<?xml version="1.0" encoding="UTF-8"?>
<svg id="_Слой_2" data-name="Слой 2" xmlns="http://www.w3.org/2000/svg" viewBox="0 0 251.16 349.76">
  <g id="_Слой_1-2" data-name="Слой 1">
    <path d="m46.64,293.65c48.9,56.95,144.45,43.07,175.23-25.35,33.6-69.6-21.28-153.45-98.52-150.48-89.05,1.67-136.08,109.39-76.71,175.83Zm-19.16-78.39c5.39-74.9,94.37-116.51,155.34-72.49,61.33,41.99,53.37,138.63-14.16,169.95-67.47,33.34-148.44-22.44-141.18-97.47ZM1.43,242.06c14.69,105.11,147.54,145.28,217.98,65.92,66.26-73.05,22.8-193.72-74.84-207.72,5.67-3.51,10.5-8.39,14.46-13.73,4.86-4.98,11.99-30.62-1.56-25.67,4.77-10.42,9.54-20.86,14.32-31.28,1.39-.54,1.81-2.55.72-3.59,0,0,0,0,0,0h0c-7.17-8.39-13.94-17.22-21.32-25.39-12.69-1.44-26.22.26-39.18-.11-35.71.1-21.5-2.16-45.39,24.31-1.24,5.26,4.48,12.13,5.9,17.78,3.21,7.79,6.42,15.58,9.62,23.37-3.07-2.01-5.91,1.3-5.81,4.35.14,12.63,7.85,25.33,18.14,32.5C33.9,117.24-8.44,180.57,1.43,242.06ZM132.54,91.01s.02-.03.03-.04c-.64,1.09-1.31,2.17-2.03,3.2,3.53-7.12,5.97-14.73,9.09-22.03-1.09,6.7-3.51,13.1-7.09,18.87Zm3.07-26.98c-1.01,4.81-2.66,9.57-3.34,14.4-1.51,3.91-3.03,7.8-4.79,11.62.21-9.87-.7-19.72-3.39-29.2-.35-10.6-.72-21.2-1.07-31.8,7.04.07,14.09.14,21.14.2-2.86,11.59-5.69,23.19-8.54,34.78Zm-16.68-22.83c.19,5.56.37,11.11.58,16.66-3.87,8.03-4.48,18.18-4.81,27.11-2.1-6.9-5.31-13.43-8.61-19.78-3.19-12.14-6.39-24.28-9.6-36.41,7.34.07,14.69.14,22.03.21.14,4.07.27,8.14.41,12.2Zm-5.58,55.84c-4.9-8.27-8.09-17.56-9.85-27,4.62,8.46,7.61,17.66,9.85,27Zm8.03,1.87s-.01,0-.02,0c-3.07-9.99-2.57-21-.21-31.19,2.12,10.33,2.09,20.56,1.52,31.15-.43.01-.86.02-1.3.04Zm38.77-34.43c2.96,14.72-11.49,32.05-25.56,34.66,10.85-9.56,16.27-23.8,25.56-34.66Zm-2.71-14.39c-3.02,8.49-9.52,16.89-10.64,25.55-2.19,3.19-4.2,6.5-6.34,9.73,1.87-5.12,8.4-22.64.52-24.35,2.59-10.58,5.19-21.16,7.79-31.74,6.04.06,12.07.12,18.11.18-3.15,6.88-6.3,13.75-9.44,20.63Zm-4.23-40.27c4.19,5.05,8.4,10.08,12.58,15.13-5.34-.05-10.67-.11-16.01-.16-3.76-6.72-7.56-13.42-11.33-20.13,3.46-.04,6.91-.08,10.37-.12,1.46,1.76,2.93,3.52,4.4,5.28Zm-19.9-5.1c3.76,6.67,7.52,13.35,11.28,20.02-7.25-.07-14.5-.15-21.75-.21-.23-6.56-.45-13.12-.66-19.68,3.71-.04,7.42-.09,11.13-.13Zm-15.62.18c.22,6.53.44,13.06.66,19.59-6.94-.07-13.88-.13-20.82-.2,2.76-6.42,5.51-12.84,8.28-19.25,3.96-.05,7.92-.09,11.89-.14Zm-37.25,10.19c2.71-3.28,5.42-6.57,8.14-9.85,4.1-.04,8.2-.11,12.31-.15-2.75,6.38-5.48,12.76-8.23,19.14-6.53-.07-13.07-.12-19.6-.2,2.46-2.98,4.93-5.97,7.39-8.95Zm-5.67,21.17c-1.06-2.58-2.13-5.15-3.18-7.74,6.71.06,13.42.15,20.12.2,3.03,10.43,5.56,21.09,8.42,31.6-6.24,3.34,3.98,28.17,6.51,33.79-5.62-4.88-10.68-10.28-14.93-16.39-5.37-13.9-11.37-27.62-16.94-41.46Zm22.12,62.77c-8.88-6.32-15.87-17.51-16.08-28.54,7.99,10.58,15.33,21.89,26.31,29.75-1.87.28-3.74.59-5.6.96-1.62-.58-3.1-1.18-4.62-2.16ZM7.44,216.44c5.3-90.12,109.9-141.51,184.47-90.43,80.63,53.87,64.59,178.68-27.18,210.34C85.83,364.74.98,300.14,7.44,216.44ZM152.93,15.07c1.14,1.97-1.82,3.72-3.02,1.77-.93-2.21-6.31-6.6-1.93-7.75,2.51.71,3.3,4.14,4.96,5.99Zm2.74,29.39c-1.59,2.5-1.03,8.6-4.62,8.7-.89-.24-1.52-1.24-1.22-2.15,1.97-4.12,3.35-14.72,7.17-16.55,4.25,1.03-1.16,7.23-1.32,10Z"/>
  </g>
</svg>