<?xml version="1.0" encoding="UTF-8"?>
<svg id="_Слой_2" data-name="Слой 2" xmlns="http://www.w3.org/2000/svg" viewBox="0 0 308.04 402.93">
  <g id="_Слой_1-2" data-name="Слой 1">
    <path d="m11.01,178.46c1.34,0,2.91-.16,4.33-.62,3.09,10.33,20.32,10.49,26.25,2.56,2.86,5.72,7.89,11.05,14.43,11.23,2.64,12.68,16.9,18.4,28.66,17.58-8.18,14.29-3.39,31.59-1.16,46.88.67,2.56.13,6.27,2.63,7.87,1.65.85,3.18-.46,4.32-1.56,13.54-9.79,32.75-14.84,40.94-30.7,1.27,34.2,7.92,69.22,1.15,103.11-5.26,20-12.85,39.29-18.19,59.28-4.78,7.1,35.71,6.28,39.81,5.25,8.52,7.61,36.48,1.16,47.32-1.5h0c6.85-1.03-11.71-42.05-12.46-49.23-11.4-37.48-2.15-76.54-2.84-114.93,6.72,13.29,22.81-19.51,23.74-25.71,5.46,9.56,15.55,17.17,26.7,18.16,4.26.44,6.85-.22,5.51-5.07.12-17,1.32-35.24-8.82-49.97-.03-4.97-.24-8.26-1-13.62,2.12,1.21,4.44,2.04,6.83,2.54,8.95,23.9,28.39,28.97,51,35.82,6.76,2,4.86-7.77,5.11-11.7.48-18.02-12.39-32.31-26.98-41.15,1.03-2.55,1.69-5.24,1.86-7.95,1.06.03,2.21-.19,3.21-.09.08,23.89,34.99,31.96,23.11,9.99,3.58.41,7.62-.12,9.93-3.18,9.26-14.88-23.73-25.64-29.69-11.45-2.25.07-4.54.32-6.77.05-.55-3.69-2.12-7.39-4.93-9.91,17.55-3.23,35.69-14,40.78-32.06.68-2.72,4.36-8.48-.62-8.89-15.43-1.1-31.1-2.07-42.88,5.28,1.74-2.86,3.04-6.92,3.34-10.18,7.78-12.56-3.16-28.65-17.65-27.5,6.62-7.55,11.06-18.86,10.89-27.29-.87-17.09-3.57-11.36-15.41-6.2-9.25,3.99-16.84,8.75-21.94,16.4-1.53-10.8-14.14-17.42-24.33-13.11-2-3.39-5.76-5.41-11.25-4.62-15.02,2.76-19.2,22.46-14.41,35.14-.04.51-.03,1.04.05,1.56-4.78.09-9.49,1.43-13.05,4.52-.9-.07-1.79-.07-2.67,0,11.04-14.11,7.17-53.7-17.6-47.93-6.63-10.26-23.65-5.35-23.34,7.23-14.79-4.75-18.84,14.64-12.75,25.89-11.35-5.99-25.58-6.71-35.66-14.69-1.22-.66-2.61-.19-3.21,1.04.48,18.46,2.1,43.83,17.57,56.16-7.6,4.9-12.27,13.2-12.85,22.28-6.48-8.92-16.86-14.76-27.75-16.12-6.26-.48-42.7.98-29.53,12.81,12.44,16.26,23.76,38.03,46.76,39.54-5.01,2.67-9.43,6.56-12.71,11.19-6.73-9.49-23.1-11.43-30.43-1.78-14.48,1.37-21.86,29.23-3.36,29.36Zm292.5-43.34c1.27,2.68-1.42,5.57-4.17,5.39-7.29.51-12.72-4.84-18.43-8.48,3.93-7.62,18.97-2.76,22.59,3.09Zm-14.25,8.68c16.99,17.39-11.22,8.71-11.31-7.82,3.73,2.68,7.93,4.67,11.31,7.82Zm-232.35,38.52c-9.4-13.38,8.63-28.39,19.65-16.44-6.01,5.16,1.45,10.28,2.27,4.35,6.86-7.55,10.87,6.43,2.62,12.71-.85.89-.69,2.39.2,3.18,2.61,1.98,4.52-1.93,6.01-3.57,5.4-6.13,3.7-19.03-5.97-19.02,4.11-6.73,12.05-8.65,16.02-.67,6.2,16.2-13.68,40.34-29.64,27.82,3.35-.66,16.78-5.87,10.95-9.94,2.17-.54,4.25-1.63,5.94-2.92,2.18-1.98-.7-5.27-2.97-3.38-2.25,1.54-6.54,3.59-8.62.93h0c-.91-1.52,1.41-3.29-.43-4.67-6.95-2.81-5.54,11.96,4.11,10.37-5.38,4.95-14.96,8.39-20.13,1.25Zm98.63-72.8c-6.68,12.02-12.95-2.43-5.22-11.85,1.77,1.2,3.65,2.21,5.62,3.01.13,2.95.47,5.97-.4,8.84Zm14.12-26.56c2.8.9,4.2-3.23,1.43-4.27-1.47-.72-3.49-1.14-4.25-2.73,1.37-1.48,3.12.45,4.63-.02-.13,3.01,3.74,1.78,5.31,3.36,1.79,4.13-4.33,6.3-7.58,6.29-21.78-1.4-10.39-27.81,3.14-13.44-8.58-5.04-16.02,6.59-2.68,10.81Zm3.29-9.82c.11.2.22.41.32.63-.08.01-.15.03-.22.05,0-.23-.03-.46-.1-.68Zm-4.67,16.93c8.48,1.62,19.52-10.01,9.34-15.51.89-2.72-2.04-5.43-3.61-7.39,15.3-3.16,26.91,16.6,13.05,25.74-7.02,2.87-15.93,2.04-21.62-3.17.94.19,1.89.3,2.84.34Zm90.85,31.2c.17,1.96.08,3.95-.32,5.91-2.73-6.44-13.72-9.06-19.49-4.21-3.06-1.84-6.96-2.22-10.08-.48-1.83-1.7-4.66.12-6.54,1.1-1.46-21.95,36.19-25.41,36.43-2.32Zm-13.02,9.41c-2.35-.21-1.95,2.49-3.32,3.54-1.46,1.44-5.19.38-4.54-1.98.03-.02.05-.04.08-.07,3.2,5.19,7.03-3.19,4.3-5.98.03-.07.07-.14.09-.22,19.04-6.16,14.93,21.78-2.37,13.87.2-.13.38-.28.54-.45,4.02.81,10.89-6.79,5.21-8.71Zm-11.34,5.56c-14.65-1.57-.48-17.79,4.22-6.57-3.4-4.97-7.35,3.74-4.22,6.57Zm7.18-12.91c.31.23.59.54.73.92-.16-.35-.41-.67-.73-.92Zm-20.72-16.52c-2.94-3.96-6.78-10.58-3.59-15.32,6.22.32,7.8,9.48,8.91,14.38-1.15.88-2.21,1.89-3.16,2.99-.69-.76-1.55-1.43-2.16-2.05Zm29.37-19.99c-.09.09-.18.19-.28.27-2.62-.02-5.36-.88-7.58-2.2,7.94-.65,12.35-13.66,3.26-16.09-.41-1.48-1.2-2.8-2.23-3.91,14.83-3.2,22.63,5.85,13.66,19.04-1.16,1.5-2.7,2.41-4.39,2.84-.66-.45-1.55-.54-2.44.04Zm-4.37-12.9c.59,1.21.45,2.5-.14,3.61-1.2-3.81-7,.43-8.73-3.3.03.09.07.18.11.27-.46-.77-.31-1.81.51-2.29.44.06.9-.03,1.3-.23.76,4.74,4.93-.55,6.94,1.95Zm-4.53,6.59c-.37.03-.75-.02-1.12-.05.36.02.74.04,1.12.05Zm-1.17-10.77c-3.38-7.02-12.55,4.57-4.63,9.3-11.9-4.54-2.52-20.48,5.51-9.75-.32.1-.61.25-.88.45Zm-2.82,14.75c-1.46,2.75,3.73,5.2,7.71,6.34-17.41,11.76-37.6-15.56-17.8-25.27-5.99,7.98,1.86,17.11,10.08,18.92Zm-9.91-28.17c-1.65,1.69-4.15,3.67-4.23,6.18-6.22,3.81-8.78,9.67-8.54,15.52-5.46-11.82,4.06-29.29,18.2-25.84-1.92,1.25-3.74,2.66-5.43,4.14Zm-9.93,53.52c.88,1,1.67,2.24,2.75,3.04-.29.54-.56,1.09-.8,1.66-2.81.72-25.26-8.55-20.93-11.3,6.9-1.44,13.91,2.12,18.98,6.61Zm9.19,45.48c1.1,3,1.36,6.21,1.57,9.38-5.95-7.48-15.21-11.21-22.58-17-.06-.64-.38-1.14-.82-1.48,1.52-2.24,2.44-4.84,3.13-7.45,2.64-1.98,4.98-3.81,7.36-6.01-3.06,8.98,2.6,18.49,11.4,21.09-.19.46-.23.99-.06,1.49Zm-27.54-9.16c-1.17,1.22-2.71,1.92-4.34,2.27,0-.01.02-.02.02-.04,10.22-6.22,8.13-22.19-4.01-24.11-.12-2.29-4.06-4.55-6.36-5.62,17.48-4.94,25.92,15.54,14.69,27.5Zm-20.74,169.12c-12.27,4.9-26.19,8.2-39.42,6.89,1.56-15.91-.09-32.05-.64-47.96,11.52,9.92,25.09,18.95,40.41,21.16-.24,6.63-.56,13.29-.35,19.91Zm-9.87-27.18c-11.4-4.42-21.5-12.1-30.53-20.19-.75-12.65-1.58-25.31-2.6-37.95,4.26.98,8.79,2.59,13.09,2.77,8.18,9.02,8.77,11.78,16.47.13,5.39.79,11,.68,16.36-.32.44,19.33-1.77,38.93-2.43,58.33-3.47-.42-7.05-1.64-10.37-2.78Zm-18.97-104.33c-1.57,16.1.21,32.31,4.18,47.95-15.04-13.35-17.6-34.22-18.6-53.24,3.76-.44,8.47-2.73,13.76-7.49-.48,4.12-1.41,9,.66,12.79Zm28.98,44.69c-3.41.41-7.1.58-10.62.25,2.31-3.43,4.38-7,5.94-10.83,2.3,3.17,4.81,6.21,7.26,9.27.02.27.03.53.04.79-.91.24-1.83.51-2.62.52Zm-19.75,5.16c-3.9-15.2-6.22-31.06-4.97-46.85,3.69.44,7.02-2.08,9.45-4.52-1.01,11.21,1.65,21.84,7.44,30.98-2.3,7.61-7.14,14.09-11.91,20.38Zm7.95-66.25c-2.1,5-6.53,15.29-12.68,14.75-.16-.46-.48-.86-.89-1.13-1.66-10.18,2.51-17.52,6.68-27.24.09,5.31,3.06,10.01,7.55,12.64-.27.23-.5.56-.66.98Zm18.71-42.95s.09.07.13.11c-1.32.32-2.75.75-3.75,1.59-7.08-2.52-12.66,7.25-7.56,12.59.35,2.84,2.97,5.24,6.07,5.77-1.22,3.35,4.09,5.2,6.7,5.63-12.72,7.76-29.31-3.1-22.83-18.06,3.3-7.82,13.84-13.81,21.23-7.63Zm-2.71-21.81c3.44-7.13,8.91,6.68,9.31,11.2-2.98-.36-6.11-.23-9,.5-1.76-3.67-2.14-7.86-.3-11.7Zm3.85,26.23c8.89-1.89,14.16,8.7,7.07,14.7-.89-.15-2.03.55-2.23,1.62-2.06.89-4.56.75-6.46-.47,3.11.1,3.29-4.35.39-4.55,2.88-1.34,5.35-7.26,1.23-11.31Zm-4.62,10.09c.39.68.86,1.11,1.37,1.32-1.71.07-6.06-.8-4.06-3.18-.07.07-.13.13-.2.21.39-.34.95-.78,1.5-.66,6.31-.04,1.67-7.54-3.75-3.32.08-5.59,9.37-2.14,7.07,2.16-.95.97-2.62,1.73-1.93,3.46Zm-17.52,15.98c-.04-.37-.07-.74-.07-1.11.52-.05,1.04-.16,1.49-.36,6.84,4.96,18.15,5.02,25.11-.52,3.01.86,6.33-.26,8.75-1.67-4.92,12.61-31.1,20.28-35.27,3.66Zm13.07-38.23c-.31.23-.67.41-.91.71-16.24,2.69-22.59,20.79-15.09,31.68-.07.05-.14.11-.2.17-24.73-6.83-6.34-40.59,16.2-32.57Zm-30.91,25.91c-32.04,20.2-35.26-4.81-1.24-5.45.17,1.87.58,3.71,1.24,5.45Zm-28.42-14.27c-4.34,1.06-9.12,1.49-13.38-.09,2.89-2.95,7.2-6.99,7.07-11.27,2.97-1.76,5.23-4.41,5.83-7.97,4.64,2.75,8.98-7.16,10.1-10.5,9.13,9.55,1.81,25.96-9.62,29.82Zm-22.54,24.71c-1.58-4.15-4.2-7.26-7.37-9.32,14.14-.62,24.97,14.05,14.64,25.91.12-5.99-1.9-12.23-7.29-15.08.16-.43.19-.95.02-1.52Zm-5.79-13.83c1.51-1.84,4.64-3.6,4.25-6.19,2.95-.24,5.69-1.28,8.15-2.86.58,4.61,8.49,3.45,12.25,3.49-.38,5.61-2.66,10.98-6.03,15.45-4-5.75-11.27-9.56-18.62-9.89Zm27.97-33.41s-.04.04-.06.06c-.96-6.67-8.55-7.57-12.43-3.2-.68-4.95-7.03-1.03-8.52,1.53-2.88-.36-5.81.52-8.43,2.04-2.63-8.59,6.84-19.46,13.61-23.76,17.13-11.51,30.47,11.51,15.82,23.32Zm-6.47-1.43s-.07,0-.12,0c.04,0,.08-.01.12,0Zm-22.99,7.35c2.01-1.41,4.57-3.09,7.13-3.12-.84,8.39,16.64,7.58,15.03,1.45-.55-1.09-1.94-1.55-3.02-.99-4.96,2.97-11.46.28-4.64-4.23.43.07.83,0,1.17-.15-2.56,3.64,3.56,6.76,3.99,2.01,3.78-5.66,7.4.46,3.95,4.45-6.43,7.17-13.81,1.51-16.09,4.18-1.7,5.49,7.31,4.47,10.65,3.75-7.8,16.81-33.03,8.67-18.17-7.35Zm1.14,39.36c.47.62.93,1.26,1.29,1.95-5.43-.23-10.05,3.3-13.16,7.75-3.97-2.98-9.41-4.2-14.38-3.36.62-12.13,19.75-16.7,26.25-6.34Zm-14.66,52.77c-6.59-1.7-13.69-6.04-14.72-13.32.11-.05.23-.11.34-.18.52.15,1.05.27,1.61.37,11.86,17.46,37.23,3.04,40.04-14.68,1.01.02,2.12-.8,3.21-2.03,6.39,17.15-13.6,35.49-30.47,29.84Zm12.63,50.48c-3.14-15.43-5.62-32.7,1.93-46.11,12.11-3.55,21.63-15.48,21.73-28.29,4.21-2.74,9.3-4.37,14.32-4.59-16.29,24.45-26.06,52.31-37.99,78.98Zm43.82-34.24c-5.07,18.76-23.38,27.4-39.35,35.25,11.72-26.2,21.27-53.58,37.35-77.61,2.7,13.9,5.18,28.31,2,42.36Zm-.11-47.1c-3.2-11.45,9.1-20.63,17.38-26.59,1.58,2.37,3.87,4.4,6.49,5.61-3.07,8.94-8.2,17.39-17.36,21.09-1.97.69-5,1.89-6.51-.12Zm3.2,51.78c1.2-3.21,1.97-6.51,2.43-9.94,1.63,4.55,4.02,8.84,7.07,12.59-3.24-.69-6.49-1.34-9.5-2.65Zm49.98,125.07c4.39,14.92,10.22,29.39,14.01,44.5-13.47.76-28.4,7.81-41.3,1.88-1.16-1.38-2.9-1.62-4.59-1.28-11.18,1.63-22.43.21-33.61-1.36,5.71-22.47,15.44-43.9,19.54-66.79,13.62,1.05,27.51-1.93,40.25-6.69.83,10.06,3.51,19.9,5.7,29.74Zm1.04-124.48c-13.75-14.74-24.61-37.76-13.21-57.03,3.27.69,6.67.6,10.07.08,5.86,19.46,4.69,40.12,5.66,60.27-.82-1.12-1.66-2.23-2.52-3.33Zm7.06,4.5c-1.05-20.85.25-42.21-5.83-62.45,3.37-1.02,6.59-2.59,9.38-4.66,16.67,19,13.34,49.33-3.55,67.11Zm19.92-26.59c-.27-.66-.88-1.09-1.55-1.24,1.64-10.6.3-21.64-4.34-31.31,10.86,16.03,17.01,34.73,28.07,50.62-9.55-1.73-18.51-9.31-22.19-18.07Zm24.89,14.02c-12.88-19.47-19.68-42.86-35.59-60.35,1.04-1.48,1.77-2.98,2.53-4.67,28.11,14.72,35.29,35.5,33.06,65.02Zm-15.68-71.99c-4.32-5.37-2.79-13.55,2.59-17.5-2.57,6.21,2.3,12.65,9.23,12.84,1.57,4.02,9.19,4.52,13.11,5-7.11,5.41-18.61,6.98-24.93-.34Zm22.3,15.14c4.98-.16,10.05-1.59,14.16-4.4,10.55,10.35,19.79,22.32,28.67,34.12-18.04-5.45-35.16-10.76-42.83-29.72Zm22.04-13.4c16.08,10.29,25.34,21.86,24.55,40.66-9-12.05-18.34-24.05-29.04-34.64,1.69-1.81,3.21-3.84,4.48-6.02Zm-8.51,3.68c-5.52,5.01-14.2,6.64-21.16,3.86,7.48-1.12,15.55-5.24,18.91-12.36,2.28-2.06,3.79-4.84,4.29-7.75,2.46-.41,3.35-5.61,3.71-8.82,4.96,7.13.91,18.85-5.75,25.07Zm43.73-63.65c-4.89,16.92-22.33,26.49-38.73,29.13-.81-2.7-1.82-5.59-3.53-7.74,12.46-9.84,28.21-14.26,42.26-21.39Zm-3.08-3.52c-14.16,7.08-29.93,11.59-42.38,21.71-.98-.75-2.03-1.41-3.14-1.97,7.47-19.78,27.39-21.15,45.52-19.74Zm-34.86-18.71c0,.37,0,.73-.04,1.09-3.87-5.84-16.47-8.65-23.87-3.84-1.54-.63-3.17-1.07-4.82-.94-1.16-.71-3.07-.8-5.02-.57,8.81-10.7,32.68-13.87,33.75,4.25Zm-9.84-51.26c.02.12.05.23.07.36-.15-.07-.3-.12-.45-.16.12-.06.25-.13.38-.2Zm-33.64,28.44c7.12-15.48,15.08-20.3,30.64-26.91-8.22,11.02-19.19,19.89-30.78,27.37.05-.15.1-.31.14-.46Zm26.58-15.34c2.72-2.78,5.46-5.54,7.62-8.8.41,11.84-5.7,25.05-15.91,31.4-13.11-6.77-28.25,4.16-29.15,18.15-4.3.29-8.67,3.89-13.51,2.91,9.09-4.22,16.48-11.82,21.32-20.93,10.84-5.84,20.94-13.9,29.63-22.73Zm-48.58,2.53c.8-2.69,1.02-5.38.66-7.8.06-.09.11-.18.16-.28,6.31-3.02,15.5.66,17.62,7.45,2.75,12.9-6.46,25.73-15.94,33.68,6.94-10.29.9-21.88-3-32.12.21-.25.39-.55.5-.94Zm-2,9.96c4.27,8.21,4.5,17.67-2.03,24.8-2.15-8.16-9.46-13.89-17.79-14.71-1.15-8.14,6.63-18.43,14.78-19.34,3.65,1.12,3.64,6.26,5.05,9.25Zm-21.8-4.41c-.75-16.74,21.84-27,19.84-8.49-8-3.44-16.1,5.22-19.87,11.53-.02-1.02-.01-2.03.03-3.04Zm-7.66,19.48c9.99-2.74,21.63,1.64,23.45,12.43-4.38-3.46-10.47-4.55-16.44-4.01-2.3-3.25-5.52-5.99-9.19-7.64.71-.3,1.44-.55,2.18-.78Zm2.46,9.82s-.09.06-.14.1c-17.05-4.7-23.1,18.21-7.15,24.43-4.08,3.59,5.79,8.22,8.62,9.16-9.64,2.3-20.57-3.62-25.48-12.16-11.34-16.75,9.32-38.49,24.15-21.52Zm-22.64-54.28c12.51,5.54,12.68,27.6,7.57,38.35-3.04,6.04-9.39,9.44-15.38,12,1.98-14.53-3.67-30.98-13.8-41.48-2.56-6.06,5.66-5.97,9.52-7.34,3.92-.95,8.05-2.97,12.09-1.54Zm-19.68-5.42c2.5-.07,4.86,1.11,6.89,2.46-4.92,1.49-12.86,2.11-13.71,8.19-.01,0-.02-.01-.03-.02-1.88-4.49,2.06-10.33,6.85-10.64Zm-5.5,17.1c10.66,10.31,14.19,26.53,13.09,40.54-.07.05-.13.09-.19.14-2.25.25-4.64.16-6.9-.49-3.94-7.68-9.88-14.49-17.32-18.98-9.95-11.73-7.88-36.54,11.32-21.21Zm-12.07,26.05c12.48,8.6,19.88,23.9,18.79,39.02-1.94-6.7-9.89-12.49-17.38-11.5-7.32-18.51-25.41-28.57-38.51-42.55,12.41,4.91,25.73,7.63,37.11,15.03Zm-36.43,12.36c-2.76-7.87-4.12-16.54-4.68-25.03,12.48,13.9,30.48,23.24,37.91,41.08-.32.1-.63.2-.94.32-6.93-2.26-13.91-.11-19.82,2.45-7.06-3.71-10.12-11.53-12.48-18.82Zm19.5,20.98c1.95-.55,3.95-.9,5.97-.98-8.5,6.63-17.81,18.02-13.2,29.16-4.26,3.6-6.32,9.42-4.79,14.7-15.7-12.25-6.86-39.01,12.01-42.88Zm-8.66,48.79c-.34-.08-.67-.17-1-.26.24.02.46-.01.67-.07.11.12.21.23.33.34Zm-52.49-37.75c13.09-1.78,26.88,4.44,34.17,15.48.71,1.04,1.79,1.2,2.66.86.43,8.77,4.16,17.38,12.54,20.54-23.73-6.86-41.67-25.72-64.65-34.16,5-1.32,10.18-2.04,15.28-2.72Zm8.75,36.42c-10.39-7.39-16.13-18.96-23.81-28.82,24.71,10.27,44.63,31.21,71.82,35.73-1.12,1.17-2.3,2.16-3.76,2.97-6.58-3.3-13.99-3.14-20.86-.96-.11-1.35-1.44-2.58-3.01-2.02-7.26.14-14.47-2.8-20.38-6.91Zm24.88,13.14c4.34-1.26,9.03-1.82,13.41-.7-8.79-.23-20.37,8.02-19.02,18.07-10.75,4.96-11.87,20.75-4.12,28.17-21.99-9.12-9.61-40.8,9.73-45.55Zm-26.43,35.59c-7.37,11.1-38.33-1.49.54-10.43-.22,2.84-.05,5.79.75,8.59-.73.33-1.2,1.04-1.3,1.84Zm-20.82-23.29c.36-5.69,9.86-7.2,14.35-6.24,4.4.86,7.81,3.97,10.45,7.43-1.37,2.62-2.38,5.42-2.95,8.3-3.26-2.1-14.82,3.32-19.02,5.35-4.89-2.64-2.28-10.22-2.82-14.84Zm-12.55,10.78c.67-4.71,3.56-8.6,8.04-10.32.1,5.8-1.42,13.29,3.59,17.45-.02.02-.04.04-.05.06-.69.1-1.34.53-1.7,1.37-6.43,3.11-12.3-1.61-9.88-8.55Zm165.39,72.33c.23,2.31-4.78,45.52,1.87,34.2.17-11.1.9-22.19,1.38-33.28,0,.01,0,.01,0,.03.09-1.66-2.32-2.57-3.26-.94Zm3.17,1.41c.04-.11.06-.21.07-.32-.01.14-.01.13-.07.32Zm.53,92.24c.12,14.81,4.63,29.23,10.33,42.67-2.98,14.49-19.22-44.89-12.08-44.42.95,0,1.75.79,1.75,1.75Zm-8.01,25.96c-.89.25-1.93-.29-2.15-1.22-.88-3.7-1.91-7.4-2.18-11.21.04-2.29,3.42-2.3,3.5,0-.53,3.45,4.03,10.47.84,12.43Z"/>
  </g>
</svg>