<?xml version="1.0" encoding="UTF-8"?>
<svg id="_Слой_2" data-name="Слой 2" xmlns="http://www.w3.org/2000/svg" viewBox="0 0 307.69 358.6">
  <g id="_Слой_1-2" data-name="Слой 1">
    <path d="m10.65,253.2c.41,17.69,2.41,34.69,3.6,52.27,2.81,34.15.67,49.27,40.62,52.53,62.04,1.8,124.57-.56,186.41-6.4,20.27-3.8,54.64,1.8,59.65-24.81,4-25.58.53-52.13-.9-77.71,9.43-15.44,9.04-40.93,4.79-55.96-5.36-22.46-33.39-20.66-51.59-23.32h0c-23.09-51.75-37.7-108.09-70.18-155.19-12.19-16.74-36.71-18.13-54.04-9.05-23.14,16.04-29.92,46.73-42.7,70.54-13.98,31.82-28.55,63.29-42.25,95.23-15.59.94-32.37,3.34-37.96,20.33-7.08,18.7-10.68,46.1,4.56,61.55Zm281.78,77.8c-6.91,11.55-23.27,9.86-34.95,11.93-44.33,5.25-88.85,7.74-133.48,7.51-22.24.37-79.62,7.01-95.46-8.04-5.71-5.92-4.98-14.58-5.93-22.19-1.9-20.57-3.55-41.22-4.86-61.8,28.01,13.45,59.09,21.55,90.05,23.6,4.69.62,15.04,1.08,18.95-1.44h0c3.16,6.85,9.05,11.46,20.55,11.21,26.59-.33,34.98-4.91,36.15-18.25,36.83,3.69,77.41,1.29,110.27-17.03.1,24.66,5.8,50.42-1.29,74.49Zm-115.29-162.69c-38.78-.5-77.27-.36-116.05,1.72,19.81-38.7,36.86-78.67,55.68-117.83,7.1-13.63,12.94-34.03,31.7-33.55,22.95-1.31,32.98,29.03,40.26,46.4,13.97,34.44,28.5,68.66,41.71,103.4-17.77-.6-35.61-.31-53.31-.14Zm-50.11,11.26c.57-1.54,1.22-3.06,2.09-4.46,15.95-.04,31.9.15,47.86.14-7.12,22.38-4.68,46.46-3.02,69.55.71,11.14,4.79,22.96,1.18,33.89-5.42,6.57-38.98,10.11-42-.6-3.8-9.56-2.81-20.29-4.27-30.35-1.45-22.56-8.25-45.89-1.84-68.17Zm167.42,7.81c10.96,20.46,10.35,63.58-17.68,69.68-29.82,10.32-62.03,13.5-93.27,9.36h0c-2.63-28.76-8.88-62.55.87-91.18h0c26.54.85,90.44-3.64,110.09,12.14Zm-233.66-36.97c12.2-26.18,23.26-52.88,35.4-79.09,8.71-17.12,19.32-47.93,34.58-58.7,14.28-8.36,35.82-8.27,46.42,5.88,31.48,45.67,46.09,100.26,68.01,150.68-2.39-.16-4.77-.3-7.16-.41h0c-13.24-35.11-27.88-69.66-42.04-104.4-6.77-17.23-13.75-35.52-28.55-47.53-13.5-9.05-34.78-6.37-43.89,7.73-26.28,47.16-45.44,98.07-70.39,145.98-.44.03-.88.06-1.32.1,2.79-6.77,5.95-13.55,8.95-20.23Zm-41.71,34.04c6.26-5.25,15.07-4.63,22.85-5.89,26.19-2.48,52.83-3,79.19-3.41-8.1,24.27-1.1,46.96.58,71.21,1.24,9.07.92,19.86,3.14,28.65-2.95-.34-5.86.32-8.89.33-22.98-.23-99.09-12.24-106.47-36.56-4.47-16.53-2.63-41.31,9.61-54.33Zm141.21,70.55c-1.07-3.83-6.08-8.61-10.16-6.52-6.13-1.72-8.2,7.93-6.01,12.16,5.02,10.98,18.79,5.66,16.17-5.63Zm-9.59-.42c2.38.46,4.23,3.52,1.82,5.21-2.03-.76-2.82-3.34-1.82-5.21Zm12.14-71.85c.18-3.45,5.13-2.63,3.47.56-2.45,9.2-3.73,18.85-3.76,28.34.13,1.19-.2,2.69-1.65,2.76-5.11-1.39.93-26.77,1.94-31.66Zm.77,41.66c-.63,2.91,2.8,9.04-.81,10.19-3.37-.69-2.16-8.03-2.63-10.85.5-2.19,3.8-1.55,3.44.66Zm107.16,88.29c5.32-11.85,5.7-24.74,6.03-37.47.2-.93,1.14-1.55,2.08-1.34,5.04.41-3.72,52.92-8.11,38.81Zm-11.43,13.25c.36.07.73.02,1.07-.12-20.05,9.71-43.24,9.51-64.98,12.1-2.7-.39-8.01,2.5-9.09-.94-.06-.98.7-1.75,1.64-1.85,23.56-3,48.72-2.17,70.59-12.31,3.01-1.7,4.2,3.37.77,3.12Zm15.6-131.25c.04-.95.96-1.68,1.88-1.61,2.9.95,1.52,5.93,2.41,8.4.54,5.03,1.88,31.83-3.32,32.46-2.5-.73-.79-3.99-.8-5.72,1.98-11.18,1.25-22.41-.18-33.53Z"/>
  </g>
</svg>