<?xml version="1.0" encoding="UTF-8"?>
<svg id="Layer_2" data-name="Layer 2" xmlns="http://www.w3.org/2000/svg" viewBox="0 0 66.67 107.41">
  <defs>
    <style>
      .cls-1 {
        fill: #000;
        stroke-width: 0px;
      }
    </style>
  </defs>
  <g id="illustrations">
    <g>
      <path class="cls-1" d="M56.81,15.42c.43-.63.88-1.24,1.3-1.88.45-.69.87-1.39,1.31-2.08.3-.46.63-.9.92-1.37.25-.4.46-.84.71-1.24.61-.95,1.25-1.9,1.87-2.84.44-.67.88-1.35,1.31-2.03.36-.57.7-1.14,1.04-1.72.23-.39.49-.75.86-1.03.17-.13.3-.32.43-.49.15-.21.13-.54-.02-.66-.14-.12-.46-.06-.65.13-.04.03-.07.07-.1.11-.06.09-.12.19-.19.27-.2.24-.43.48-.62.73-.19.25-.35.51-.51.78-.25.4-.49.8-.75,1.19-.39.59-.77,1.19-1.17,1.77-.33.47-.72.9-1.03,1.39-.72,1.12-1.41,2.25-2.12,3.38-.19.3-.39.58-.58.88-.42.68-.83,1.36-1.25,2.03-.02.03-.13.03-.19,0-.24-.12-.44-.32-.75-.29-.41.04-.82.04-1.23.05v.07c.06.02.12.05.17.05.35-.01.69-.05,1.04-.04.19,0,.44,0,.44.3.13,0,.25.02.41.03-.64.97-1.25,1.89-1.87,2.82-.51.77-1.02,1.55-1.55,2.31-.06.09-.2.12-.3.17.14.11.02.2-.14.27-.11.04-.23.06-.34.08-.19.04-.39.07-.58.1-.12.01-.24,0-.35,0q.05.33.35.21s.07-.02.09,0c.29.11.56.13.8-.14-.02.06-.04.11-.07.15-.61.78-1.21,1.56-1.83,2.32-.57.69-1.3,1.08-2.23,1.08-.42,0-.85.07-1.27.14-.76.13-1.51.29-2.27.44-.57.11-1.14.27-1.72.33-1.65.18-3.31.22-4.98.14-1.73-.08-3.47-.06-5.2.01-1.54.06-3-.35-4.48-.65-.15-.03-.27-.16-.42-.19-.5-.1-1-.18-1.5-.24-.92-.12-1.83-.34-2.77-.29-.75.04-1.5.05-2.24.09-.28.01-.56.06-.83.09-.39.04-.78.09-1.18.11-.98.03-1.96-.14-2.93.11-.05.01-.11,0-.17-.01-.34-.05-.68-.09-1.02-.14-.5-.06-1-.11-1.49-.19-1.13-.2-2.26-.42-3.39-.62-.74-.13-1.49-.24-2.23-.36-.2-.03-.42-.16-.6-.11-.35.11-.62-.05-.91-.15-.14-.05-.27-.12-.41-.16-.45-.13-.91-.24-1.36-.37-.13-.04-.26-.08-.39-.14-.26-.13-.51-.31-.78-.41-.23-.09-.43-.2-.58-.39-.07-.09-.15-.18-.23-.26-.47-.47-.75-1.05-1.04-1.67.11.04.19.07.26.09.48.11.96.21,1.44.33.34.08.67.22,1.02.27,1.74.3,3.48.6,5.23.77.53.05,1.04.24,1.58.12.15-.03.32,0,.48.03.17.03.34.11.52.12.47.03.95.02,1.42.04.31.02.61.09.92.1.36.02.73-.01,1.09,0,.87.05,1.73.12,2.6.18,1.3.09,2.6.22,3.9.25.83.02,1.67.19,2.5-.02.01,0,.03,0,.05,0,.16.02.32.07.47.06.37-.02.74-.08,1.1-.08.84-.01,1.68,0,2.52,0,.4,0,.83.08,1.2-.04.52-.16,1,.05,1.49-.02.24-.03.5.01.75,0,.46-.01.91-.05,1.37-.05.38,0,.77.02,1.16.01.53,0,1.05-.04,1.58-.05.43,0,.86.03,1.29.03.61,0,1.22-.04,1.84-.05,1.08-.02,2.15-.05,3.23-.03.71.01,1.39-.18,2.1-.17.24,0,.5-.08.72-.02.19.05.3.05.39-.1.39.21.76.18,1.19,0,.19.07.46.2.7,0,.06.04.1.1.14.1.19-.02.38-.07.57-.08.31-.02.63-.03.94-.03.12,0,.25,0,.27-.18-.17-.02-.32-.05-.52-.08.09-.07.15-.13.27-.23-.25.02-.42.03-.6.04,0,.02,0,.04,0,.05.08.02.16.04.24.06-.04.07-.11.1-.14.09-.44-.21-.89-.04-1.34-.04-.16,0-.32,0-.49,0-.16,0-.32.03-.49.04-.07,0-.15.07-.23.08-.32.03-.64.04-.96.07-.71.07-1.42.18-2.13.22-.97.05-1.94.04-2.91.06-.19,0-.36-.08-.56-.03-.24.05-.5-.05-.75-.05-.57,0-1.14.04-1.71.05-.78,0-1.57-.02-2.35-.03-.7,0-1.4,0-2.1-.01-.66,0-1.31-.02-1.97-.05-.31-.01-.61-.08-.92-.08-.72,0-1.44.04-2.16.06-.19,0-.39.03-.58.03-.1,0-.2-.05-.3-.06-.27-.02-.55.01-.81-.05-.26-.06-.48-.04-.71.06-.14.06-.28.08-.39-.08-.04-.06-.15-.11-.23-.11-.33-.01-.67,0-1.01-.02-.29-.01-.59-.01-.87-.07-.41-.07-.81-.23-1.23-.06-.05.02-.12.02-.17,0-.47-.07-.94-.17-1.42-.17-.23,0-.45-.07-.68-.09-.64-.05-1.28-.06-1.92-.12-.43-.04-.85-.15-1.29-.19-.79-.09-1.58-.15-2.36-.23-.4-.04-.8-.09-1.2-.14-.42-.05-.85-.09-1.27-.15-.47-.08-.94-.2-1.41-.27-.95-.14-1.9-.27-2.85-.39-.44-.06-.89-.12-1.34-.17-.59-.08-1.19-.16-1.78-.22-.52-.05-1.02-.14-1.47-.42-.36-.22-.73-.37-1.16-.38.05-.32.24-.49.53-.55.17-.03.34-.02.51-.04.06,0,.12-.04.17-.06-.08-.18.09-.15.17-.18.3-.12.6-.26.91-.34.35-.08.71-.24,1.09-.12.07.02.15,0,.25,0-.07-.13-.11-.21-.17-.32h.48s.07-.14.12-.15c.15,0,.29.03.4.04.19-.16.39-.15.6-.15.01-.05.02-.09.03-.15.17.1.32.2.47.29l.05-.07c-.1-.08-.21-.16-.31-.23.19-.05.33-.1.47-.12.05,0,.13.05.16.1.1.17.19.17.28,0,.17.18.34.27.58.15.03-.02.12.01.13.04.06.2.15.1.25.05.11-.06.22-.11.37-.18.05-.25-.26-.04-.36-.19.31-.02.59-.04.89-.06,0,.02.04.06.07.11.11-.24.36-.37.63-.31.17.04.4.05.21.32.16-.03.3-.05.48-.09-.12-.08-.22-.14-.32-.2,0-.02,0-.04.02-.06.12.03.24.09.36.1.24,0,.47-.01.71-.02.02,0,.06-.04.06-.07.01-.19.13-.13.23-.1.08.03.16.09.2.12.07-.06.12-.14.18-.15.32-.05.64-.09.96-.13.12-.02.25-.06.36-.04.21.05.4.05.62-.04.13-.06.35-.28.45.07.02-.1.04-.16.06-.23.08.03.16.06.17.06.16-.06.28-.13.4-.15.17-.03.34-.01.51-.04.13-.02.22-.03.27.12.01.04.1.04.15.07,0-.06,0-.11-.01-.17,0-.03-.02-.06-.04-.12.31-.07.61-.14.91-.21,0-.03,0-.06-.01-.09-.31.26-.66-.18-.97.1-.01.01-.06-.01-.09-.02-.24-.03-.49-.09-.73-.07-.9.06-1.8.16-2.69.23-1.35.12-2.7.22-4.04.36-.78.08-1.55.23-2.32.36-.47.08-.93.17-1.4.26-.72.14-1.43.29-2.16.41-.33.05-.67-.05-.98.16-.17.11-.42.16-.53.31-.13.17-.27.17-.43.23-.14.05-.28.14-.41.21-.08.04-.17.12-.25.11-.06,0-.12-.13-.14-.21-.09-.34-.08-.34.25-.5.04-.02.09-.05.13-.07.28-.2.54-.42.84-.59.6-.36,1.28-.46,1.95-.56.37-.05.74-.12,1.11-.19-.01-.02-.03-.04-.04-.06.02-.04.03-.1.06-.11.11-.04.22-.07.33-.08.83-.08,1.67-.15,2.5-.21.3-.02.61,0,.91-.04.74-.08,1.48-.17,2.22-.27.58-.07,1.16-.12,1.73-.25.37-.08.71-.06,1.07-.03.09,0,.19.02.29,0,.27-.05.54-.15.81-.18.34-.03.68,0,1.02-.02,1.03-.06,2.07-.15,3.1-.2.49-.03.98,0,1.47,0,.33,0,.65-.01.98,0,.6.01,1.21,0,1.81.07.35.04.68.1,1.02-.03.04-.01.09.03.14.04-.03.04-.05.1-.09.12-.17.08-.34.15-.52.23-.05-.02-.14-.06-.22-.09-.04.14-.07.25-.1.36.15.1,1.27,0,1.46-.16.29.31.67.14.94.06.32-.09.59-.15.83-.02.15-.04.26-.08.37-.09.28-.02.57-.02.86-.02.36,0,.71-.02,1.07,0,.36,0,.72.06,1.08.05.67-.01,1.35-.07,2.02-.08.5,0,1.01.04,1.51.07.04,0,.08-.02.12-.02.17,0,.35-.02.52-.02.18,0,.39.1.53.03.26-.13.5-.12.75-.02.23.09.45.08.68-.01.15-.05.35-.11.46-.05.22.13.41.02.61.02.06,0,.11,0,.17,0,.43-.06.78.32,1.24.23.29-.06.61.06.9.09.01-.01-.02.02-.06.08.07,0,.1,0,.13,0,.25-.02.53-.13.74-.05.5.18,1.01.23,1.52.3.18.02.35.09.53.09.56,0,1.12-.03,1.67-.05.12,0,.24-.04.36-.05.16-.02.33-.08.47-.04.57.16,1.15.16,1.74.18.85.03,1.7.1,2.55.15.36.02.73.21,1.08-.04.03-.03.1-.02.14-.02.44-.03.89-.06,1.33-.1.52-.04,1.04-.07,1.56-.1-.02-.09-.03-.17-.17-.17-.37,0-.75-.02-1.12-.03-.52-.03-1.04-.05-1.56-.09-.2-.02-.4-.1-.6-.13-.52-.07-1.04-.07-1.54-.28-.18-.08-.38-.12-.57-.12-.87-.02-1.74.02-2.61-.06-.76-.07-1.54-.01-2.31-.05-.55-.03-1.1-.15-1.65-.19-.51-.03-1.03,0-1.54,0-.15,0-.36.02-.42-.06-.15-.19-.3-.12-.47-.11-.45.02-.91.08-1.34.02-.36-.05-.71-.11-1.08-.04-.24.05-.48.08-.72.07-.3,0-.59-.09-.88-.1-.49-.02-.99,0-1.48,0-.07,0-.15-.05-.22-.08-.05.02-.14.07-.22.07-.3,0-.59-.03-.89-.03-.79.01-1.58.04-2.37.05-.36,0-.72-.03-1.08-.02-.84.03-1.67.08-2.51.12-.02,0-.03-.01-.05-.01-.35-.03-.7-.07-1.06-.09-.15,0-.29.02-.49.04-.02,0-.09-.05-.17-.05-.2-.01-.41-.01-.61-.01-.4,0-.81,0-1.21,0-.21,0-.43,0-.64,0-.51,0-1.02.01-1.53,0-.3,0-.6-.07-.9-.07-1.23.02-2.46.05-3.69-.09-.43-.05-.9-.07-1.35.13-.02-.05-.05-.12-.1-.22-.9.08-1.81.16-2.71.24-.56.05-1.12.13-1.69.14-.56,0-1.13-.07-1.69-.08-.28,0-.55.02-.83.05-.48.05-.96.08-1.43.16-.49.08-.96.21-1.45.29-.56.09-1.13.13-1.69.21-.31.04-.65.13-.7.48-.05.32-.21.5-.45.64-.17.1-.36.27-.54.26-.41-.02-.66.23-1.01.47.08.03.14.05.19.06-.01.03-.02.05-.04.08-.06,0-.13,0-.19,0-.05,0-.12,0-.15.02-.15.14-.3.28-.44.43-.04.05-.04.15-.03.23.04.25.09.49.13.72.09.06.23.13.33.23.27.26.54.53.8.79.03.03.07.07.06.1-.04.29.16.51.27.72.63,1.23,1.32,2.42,2.11,3.55.21.3.42.59.62.89.22.34.43.69.65,1.03.08.12.17.23.27.34.16.18.33.35.49.52,0,.01-.04.07-.06.11.05.04.11.08.16.14.63.76,1.26,1.51,1.88,2.29.22.28.38.61.57.91.08.13.17.36.26.37.22.02.25.16.33.3.09.15.18.32.31.43.41.36.71.79,1,1.24.07.11.12.23.19.38.4-.07.57.26.77.54.34.48.67.96.98,1.45.16.25.3.52.41.8.08.19.21.25.37.32.13.06.31.14.35.25.14.35.4.58.64.85.15.16.29.33.42.51.57.73,1.14,1.46,1.7,2.2.43.56.86,1.13,1.28,1.7.2.27.41.54.62.81.27.37.5.77.92,1.01.05.03.12.01.19.02,0-.06,0-.17-.02-.18-.27-.08-.45-.22-.48-.51,0-.01-.03-.02-.04-.03-.1-.15-.19-.3-.29-.46-.07-.11-.13-.21-.2-.3-.26-.33-.53-.64-.78-.98-.3-.39-.58-.8-.87-1.2-.48-.67-.96-1.34-1.43-2.01-.2-.28-.29-.62-.58-.83-.09-.07-.11-.24-.16-.37-.03-.07-.06-.13-.09-.2-.02,0-.05.01-.07.02,0-.07.04-.15.02-.2-.25-.44-.34-.94-.66-1.35-.21-.27-.33-.6-.51-.9-.06-.09-.16-.15-.24-.23-.04-.05-.07-.11-.09-.17-.02-.05,0-.12-.03-.16-.07-.13-.17-.24-.23-.37-.46-.94-1.2-1.68-1.81-2.51-.74-1.01-1.51-2.01-2.3-2.99-.81-.99-1.66-1.95-2.48-2.93-.22-.26-.43-.52-.64-.79.02-.03.04-.05.06-.08.22.09.44.19.66.28.08.03.18.07.26.07.2,0,.37.02.48.21.13.24.28.47.43.7.47.73.93,1.46,1.57,2.07.77.73,1.51,1.5,2.3,2.2.62.54,1.3,1.01,1.96,1.51.37.27.77.51,1.13.79.43.34.86.69,1.26,1.06.59.54,1.19,1.09,1.74,1.67.58.61,1.13,1.26,1.69,1.88.34.38.7.75,1.04,1.13.06.07.07.19.13.27.16.2.33.39.49.59.66.83,1.31,1.66,1.97,2.49.34.42.69.84,1.03,1.26,0,0,.05-.03.06-.04.05.09.08.17.14.23.18.22.38.42.56.64.21.28.37.61.62.85.6.59,1.02,1.31,1.5,1.98.53.73,1.07,1.46,1.6,2.18.44.59.88,1.18,1.32,1.77.11.14.23.28.35.42-.09-.21-.27-.38-.35-.58-.24-.6-.75-1.01-1.04-1.59-.29-.61-.78-1.12-1.16-1.69-.36-.54-.74-1.08-1.03-1.65-.22-.45-.52-.81-.88-1.14-.12-.11-.27-.22-.33-.36-.25-.61-.69-1.08-1.08-1.59-.4-.53-.81-1.05-1.21-1.58-.23-.3-.43-.62-.67-.9-.33-.39-.71-.74-1.04-1.13-.45-.53-.88-1.08-1.33-1.61-.18-.21-.24-.55-.57-.53-.04-.13-.05-.23-.11-.3-.25-.3-.52-.59-.77-.89-1.26-1.51-2.72-2.79-4.26-3.99-.91-.72-1.85-1.4-2.62-2.28-.31-.36-.65-.69-1.01-1.01-.67-.6-1.16-1.34-1.67-2.06-.09-.13-.17-.27-.25-.41.44.18.96.06,1.34.4.08.07.21.07.32.1.23.06.46.11.7.16.22.05.43.12.65.13.68.02,1.36.06,2.03.21.68.15,1.36.29,2.04.42.22.04.48,0,.65.1.62.37,1.32.38,1.98.43,1.28.09,2.56.07,3.84.05.96-.02,1.93-.07,2.88-.19,2.02-.25,4.01-.11,5.96.47.5.15.99.34,1.5.4,1.22.13,2.44.24,3.66.28.96.03,1.92-.05,2.88-.06,1.46-.02,2.91-.02,4.37-.04.97-.01,1.93.07,2.89-.13.84-.18,1.7-.28,2.54-.42.44-.07.88-.17,1.32-.25l.03.07c-.31.4-.63.8-.93,1.21-.37.49-.76.97-1.07,1.49-.33.55-.64,1.1-1.1,1.55-.41.41-.86.8-1.21,1.26-.44.58-.81,1.22-1.21,1.84-.23.36-.5.68-.67,1.09-.15.37-.43.68-.64,1.02-.22.35-.41.72-.63,1.07-.38.61-.76,1.22-1.14,1.83-.11.18-.2.36-.3.54.02.01.04.03.06.04.09-.1.21-.19.26-.3.21-.53.63-.91.97-1.34.68-.88,1.43-1.7,2.11-2.58.57-.74,1.08-1.53,1.62-2.3.41-.58.83-1.16,1.24-1.74.41-.56.81-1.13,1.24-1.68.41-.53.87-1.02,1.29-1.54.37-.45.71-.92,1.07-1.38.29-.37.62-.62,1.13-.62.55,0,1.11-.11,1.66-.18.32-.04.64-.1,1-.16-.24.32-.43.57-.78.74-.32.16-.55.5-.81.78-.33.36-.64.75-.98,1.1-.36.37-.77.7-1.13,1.06-.38.39-.74.79-1.09,1.21-.28.33-.51.7-.79,1.02-.4.45-.83.86-1.25,1.29-.55.55-1.1,1.11-1.67,1.65-.47.44-.98.83-1.44,1.28-.83.81-1.64,1.64-2.45,2.48-.51.52-1,1.06-1.48,1.61-.12.14-.17.34-.27.5-.3.46-.6.92-.93,1.36-.5.69-1.02,1.37-1.53,2.05-.09.12-.17.26-.24.39-.08.16-.13.34-.24.48-.35.43-.7.86-1,1.33-.25.38-.61.69-.86,1.07-.37.54-.68,1.11-1.02,1.67-.15.24-.34.46-.43.71-.13.37-.29.49-.67.4-.08-.02-.16-.06-.24-.05-.22.02-.43.07-.64.09-.76.07-1.52.23-2.29.15-.31-.03-.62.03-.93.01-.3-.02-.6-.08-.9-.15-.83-.2-1.66-.41-2.49-.6-.25-.06-.5-.08-.69-.28-.4-.41-.84-.79-1.18-1.25-.32-.42-.69-.65-1.22-.67-.11,0-.23-.12-.33-.2-.18-.15-.36-.32-.55-.49.05-.11-.23-.42-.39-.42-.35-.55-.69-1.02-1.31-1.23.11.12.23.24.33.36.04.05.04.14.06.21.09.11.18.23.29.35.06.07.14.13.21.2.06.06.15.1.18.17.12.34.25.67.34,1.02.1.38.25.73.52,1.02.15.15.34.25.48.41.31.33.6.67.89,1.02.1.12.16.28.23.42.05.1.09.22.16.3.26.29.54.57.79.86.16.18.28.4.44.58.19.21.39.41.59.61.07.07.13.16.22.21.37.22.77.41.95.85.02.06.07.12.13.16.37.24.68.52.9.92.21.38.47.74.71,1.11-.03,0-.06,0-.1.01-.05.12-.15.33-.13.34.25.15.23.36.19.59.08.08.12.17.17.26.04.08.06.23.1.24.24.03.23.24.31.38.45.73.84,1.48,1.09,2.3.08.27.17.55.26.82.14.41.31.81.42,1.22.13.47.19.96.3,1.43.04.17.1.33-.1.32.06.09.18.19.2.3.07.42.09.84.19,1.26.02.1-.08.26-.04.32.12.16.06.35.1.51.02.09-.12.22-.19.33.07.01.15.02.19.03.01.14.04.25.03.36,0,.11-.05.23-.08.35.06.02.13.04.24.08-.09.11-.16.2-.22.29-.04.05-.1.15-.09.16.17.17,0,.31-.06.47.12,0,.23.01.33.02,0,.02,0,.05.01.07-.09.03-.18.07-.28.11.02.7.06.82.31,1.07-.13.24-.49-.09-.64.24.23,0,.4,0,.57,0,.04,0,.09.03.12.06.02.02,0,.09-.02.11-.17.14-.35.29-.53.42-.19.13-.23.23-.11.35,0,0,0,0,0,0,.13.23.29-.09.41.03-.01.12-.02.25-.03.33.15.08.26.15.37.21,0,.01-.02.03-.02.04h-.58c.25.06.4.41.73.25-.07.14-.15.28-.23.45h.26c-.08.13-.16.26-.24.38.08.05.14.08.19.11-.15.11-.31.18-.4.31-.08.11-.06.28-.1.47.09-.03.17-.05.24-.1.02-.02.02-.14,0-.15-.16-.08-.11-.19-.01-.24.07-.04.19,0,.31.02-.1.15-.17.25-.2.3.13.08.21.13.29.18-.07.06-.13.13-.21.17-.11.06-.23.09-.42.17.22.06.39.1.54.13-.04.05-.11.13-.17.2.02.02.04.04.05.06.08-.05.16-.1.27-.18v1.22c-.12-.09-.21-.15-.3-.21-.13.07-.26.14-.38.21.07.1.14.2.21.3-.02.01-.03.03-.05.04-.05-.03-.1-.05-.14-.08-.02.02-.04.03-.06.05.06.08.11.16.16.23-.06.08-.13.18-.21.29.09.07.15.11.19.14-.05.07-.12.13-.12.18-.01.23,0,.46,0,.69.01.35-.03.7.11,1.04.06.16.01.36.01.55.03.11.02.29.1.38.22.22-.08.5.12.71-.2.15.01.24.06.35-.07.06-.13.11-.19.16.07.08.12.14.17.19-.1.08-.2.15-.3.23.19.1.33.18.48.27-.1.08-.17.14-.21.17.09.14.2.24.2.34,0,.12-.08.24-.14.39.05,0,.11.01.17.03.06.01.11.04.16.05-.03.04-.07.08-.09.13-.05.11-.13.23-.11.33.04.31.13.62.19.91.13.02.21.03.3.04-.03.08-.06.17-.1.25-.04.08-.1.16-.17.26.1.09.19.17.31.28-.01.04-.04.12-.08.2.04.02.07.03.1.04.03.01.05.03.02.01,0,.13-.02.22,0,.3.07.3.15.6.23.9h-.15c.07.13.14.25.21.38-.02.01-.04.03-.07.04-.05-.05-.1-.1-.2-.19.07.22.13.37.19.55.02-.08.03-.13.04-.19h.08c-.01.1,0,.26-.04.27-.2.08-.14.22-.15.41.07-.08.11-.13.14-.17.02.01.04.02.06.03-.04.09-.08.17-.1.22.05.08.11.14.13.21.04.22.07.44.1.66-.05.04-.12.1-.21.19q.32-.08.29.19s0,.03,0,.04c.04.23.11.45.12.68.01.33-.05.67.07,1,.04-.04.11-.09.11-.11-.11-.3-.01-.6-.02-.9,0-.21-.02-.43-.03-.64-.02-.36-.04-.72-.04-1.07,0-.08.09-.16.14-.23.03,0,.05,0,.08,0-.07-.18-.14-.37-.21-.55.07,0,.14,0,.21.01,0-.12-.03-.21-.02-.3.05-.26.13-.52.15-.79.01-.19-.05-.39-.08-.58-.05-.44-.11-.88-.16-1.32-.07-.78-.15-1.55-.2-2.33-.04-.73.01-1.47-.08-2.19-.12-.99-.34-1.96-.53-2.94-.03-.15-.04-.31-.11-.45-.24-.49-.09-.93.15-1.35.2-.34.35-.68.33-1.08-.03-.49-.03-.98-.04-1.48-.02-.77-.02-1.55-.06-2.32-.03-.49-.1-.98-.18-1.47-.1-.71-.21-1.41-.34-2.11-.12-.64-.28-1.27-.41-1.91-.09-.44-.12-.89-.23-1.32-.12-.49-.32-.97-.45-1.46-.06-.2-.02-.43-.06-.64-.07-.32-.18-.63-.26-.95-.06-.22-.1-.45-.18-.66-.19-.48-.38-.96-.61-1.42-.1-.2-.29-.35-.44-.52-.02-.02-.08,0-.11,0-.16.05-.23-.04-.25-.18-.05-.37-.22-.68-.43-.98-.22-.32-.43-.65-.68-1.02.11.03.16.05.21.06.32.09.64.19.96.27.17.04.34.04.51.06.63.08,1.27.15,1.9.23.44.05.87.11,1.31.17-.03.09-.06.18-.08.26.15-.18.24-.35.53-.38.54-.05,1.07-.18,1.6-.28.28-.05.57-.12.84-.18-.02.31-.05.59.16.84.04.05.06.14.05.2-.11.51-.22,1.01-.34,1.51-.04.16-.16.3-.19.47-.11.62-.2,1.24-.31,1.86-.14.78-.27,1.56-.44,2.33-.12.56-.32,1.11-.45,1.67-.09.39-.13.8-.17,1.2-.03.36-.03.73-.05,1.1-.03.66-.09,1.32-.1,1.98,0,1.23,0,2.45.04,3.68.02.67.12,1.33.19,1.99.03.27.09.54.1.8.02.71,0,1.41.01,2.12.01.37.09.73.12,1.1.07.87.15,1.73.2,2.6.04.8.07,1.59.07,2.39,0,.64-.07,1.27-.08,1.91-.02,1.02-.08,2.04-.24,3.06-.09.55-.09,1.12-.07,1.68.01.39.13.78.19,1.17.04.25.04.5.08.75.07.45.14.9.22,1.35,0,0-.02.02-.03.03-.02-.05-.03-.1-.04-.15-.02,0-.05,0-.07.01.21.9.07,1.87.57,2.72.02-.07.03-.13.06-.24.06.16.1.26.15.36-.02,0-.04,0-.06-.01-.03.09-.11.2-.09.27.13.34.28.66.43.99.02.05.07.1.11.15.14.17.28.34.43.49.13.13.27.25.41.37.13.11.25.22.39.34-.06,0-.09,0-.13,0,.11.14.24.24.38.32.53.3,1.12.48,1.63.85.21.16.45.33.75.36.21.02.41.17.62.21.74.15,1.46.36,2.18.6.03.01.06.02.1.02.76.1,1.52.22,2.29.3.74.08,1.49.11,2.24.18.81.08,1.63.18,2.44.28.58.07,1.16.15,1.74.24.57.09,1.14.21,1.72.29.69.09,1.26.39,1.74.89.21.22.25.56.03.82-.12.14-.24.29-.38.42-.72.66-1.47,1.26-2.33,1.73-.49.27-.93.62-1.43.86-.52.25-1.09.4-1.62.63-.47.2-.92.44-1.38.66-.49.24-.99.44-1.56.3-.2-.05-.43-.05-.64-.02-.83.11-1.66.26-2.49.36-1,.13-2.01.23-3.01.35-.89.1-1.78.18-2.67.3-.28.04-.55.18-.84.2-.79.08-1.59.16-2.38.19-1.24.05-2.48.07-3.72.1-.36,0-.72-.04-1.08-.02-.51.03-1.01.1-1.52.14-.31.02-.63,0-.95,0-.33,0-.66.06-.98.03-.31-.03-.65.13-.92-.12,0,0-.02,0-.02,0-.34-.05-.69-.1-1.03-.14-.14-.02-.28.02-.41-.02-.34-.09-.68-.2-1.02-.3-.08-.03-.17-.06-.25-.07-.42-.05-.86.06-1.27-.12-.05-.02-.11,0-.17-.01-.25,0-.51.02-.76-.02-.76-.12-1.51-.27-2.27-.42-.52-.1-1.06-.17-1.55-.36-.46-.18-.88-.46-1.3-.74-.34-.23-.64-.54-.97-.78-.3-.22-.29-.71.03-.88.06-.03.14-.04.22-.06-.11-.23.03-.37.18-.5.04-.03.1-.06.1-.1.07-.39.57-.49.59-.91,0-.02.03-.03.05-.05.43-.42.84-.84,1.28-1.25.42-.39.86-.75,1.37-1.02.15-.08.29-.2.45-.27.31-.15.62-.28.93-.41.28-.12.56-.22.84-.33.28-.12.57-.23.85-.36.2-.1.39-.21.62-.15.09-.05.2-.11.27-.08.2.08.35.05.47-.13.04-.05.11-.09.18-.14.03.08.05.13.06.18.14-.02.26-.04.4-.06-.03-.07-.05-.14-.09-.25.14.09.24.14.35.21-.02-.11-.04-.18-.07-.29.19.04.33.08.5.12.15-.08.34-.2.54-.29.08-.04.19-.03.29-.03.12,0,.25.06.35.02.09-.04.15-.17.22-.25.14.04.31.13.46.12.29-.02.57-.1.86-.16.04,0,.09,0,.14,0,.08,0,.19.04.25,0,.17-.11.43.02.53-.22,0,0,.08,0,.09.02.08.22.25.09.38.11.23.02.44-.13.68-.02.09.04.23-.03.36-.05.1.03.24.07.42.12-.13-.27-.33-.26-.51-.27-.63,0-1.26-.02-1.88-.01-.08,0-.16.07-.27.12-.1-.13-.3-.08-.49-.06-.4.04-.79.11-1.19.15-.65.08-1.32.08-1.95.23-.89.22-1.75.55-2.62.83-.17.06-.33.15-.5.18-.24.04-.46.07-.64.26-.02.02-.07,0-.11,0-.13.04-.27.06-.39.12-.12.06-.27.26-.34.23-.29-.11-.4.03-.52.24-.01.02-.04.03-.06.04-.22.09-.43.2-.65.27-.18.06-.25.14-.15.28-.1,0-.21-.03-.29,0-.19.07-.38.16-.54.27-.39.26-.81.5-1.16.81-.59.53-1.14,1.12-1.71,1.67-.22.21-.49.39-.68.63-.39.5-.77.99-1.21,1.44-.18.18-.12.38.12.45.08.03.18.04.27.02.2-.04.4-.09.59-.17.37-.17.72-.36,1.06-.53.14.36.29.73.45,1.12-.03.04-.1.12-.18.23.1.06.18.1.27.14.01-.06-.01-.08-.02-.1-.01-.02-.01-.05-.02-.1.04.01.07.01.09.02.54.34,1.06.72,1.7.88.3.07,1.01.13,1.34.03.03-.01.08,0,.12.02.36.18.73.3,1.15.33.4.03.79.13,1.2.03.02,0,.05.02.16.07-.1.03-.16.05-.23.08.43.33.92.18,1.33.33.01,0,.03-.02.05-.02.18,0,.36-.02.54-.01.14,0,.28.05.41.04.3-.02.58,0,.83.17.18.12.33.28.59.24.32-.04.64-.01.97,0,.06,0,.11.04.2.08-.09.06-.15.1-.22.15.09.02.14.03.2.05.12.03.27.03.34.11.13.14.28.18.46.19.32.02.63.06.95.09.09,0,.18,0,.27,0,.13.02.28.02.37.09.13.1.2.28.33.38.06.05.19.02.29.03q-.34-.27-.29-.45s.04-.01.05,0c.48.4,1.11.3,1.66.47.05.02.13,0,.17-.02.16-.12.32-.1.5-.03.09.03.19.01.29.02.33.03.66.07.99.11.17.02.35.03.53.04,0,0,0-.02-.01-.03l.49-.12s.01.03.02.05l-.18.09c.4.02.79-.03,1.18-.05,1.04-.07,2.08-.13,3.11-.2.33-.02.65-.07.98-.11.28-.04.57-.08.85-.14.71-.14,1.42-.34,2.14-.43.93-.1,1.86-.11,2.8-.16.16,0,.33,0,.49-.02.39-.05.8-.08,1.18-.19.47-.13.92-.35,1.39-.47.34-.09.7-.17,1.06-.06.07.02.18-.02.23-.08.06-.06.06-.19.13-.23.12-.08.26-.13.39-.18.54-.21,1.08-.4,1.61-.63.37-.16.72-.39,1.08-.57.54-.28,1.12-.51,1.63-.84.86-.55,1.7-1.15,2.53-1.74.48-.34.98-.67,1.32-1.17.12-.18.33-.32.38-.51.09-.32.02-.67-.2-.93-.29-.33-.6-.64-.94-.92-.55-.46-1.15-.84-1.9-.84-.41,0-.77-.11-1.14-.24-.9-.31-1.8-.63-2.72-.88-.53-.15-1.1-.24-1.65-.25-.76-.01-1.52.13-2.28-.02-.39-.07-.78-.07-1.17-.15-.77-.15-1.54-.31-2.31-.48-.24-.05-.49-.1-.72-.18-1.47-.53-2.57-1.53-3.39-2.83-.23-.36-.42-.75-.61-1.14-.25-.51-.58-.97-.66-1.57-.07-.53-.27-1.05-.34-1.59-.06-.48-.22-.97,0-1.45.03-.07,0-.16,0-.24,0-.33,0-.66.02-.99.02-.23.11-.47.1-.7-.02-.52-.1-1.04-.14-1.56-.01-.21.05-.43.05-.65-.02-.4-.06-.81-.09-1.21-.03-.4-.03-.79-.06-1.19-.02-.28-.08-.57-.1-.85-.04-.53-.05-1.07-.09-1.6-.07-.9-.19-1.79-.23-2.69-.02-.44.04-.89.12-1.32.05-.26.1-.5.05-.77-.09-.46-.16-.94-.2-1.41-.05-.46-.07-.93-.08-1.4,0-.32-.01-.65.06-.95.06-.28.09-.56.12-.84-.02-.07-.02-.14,0-.23.01-.08.02-.16.03-.24,0-.35,0-.69,0-1.04,0-.25,0-.49.04-.73-.02-.51-.05-1.02-.04-1.53,0-.46.09-.9.2-1.33.08-1.05.16-2.1.25-3.15.04-.02.03-.04,0-.05-.33-.22-.32-.22-.21-.6.1-.32.19-.64.26-.97.2-.95.33-1.91.58-2.84.29-1.09.66-2.16,1-3.24.11-.34.18-.7.34-1.01.21-.41.47-.8.76-1.16.34-.43.74-.81,1.11-1.21.02-.02.05-.03.12-.05-.34.6-.65,1.16-.97,1.72.03.01.05.03.08.04.15-.26.31-.51.46-.77.33-.57.67-1.12,1.13-1.6.33-.34.67-.69.96-1.07.39-.51.75-1.04.99-1.64.1-.25.28-.48.44-.71.13-.2.3-.37.42-.57.31-.5.59-1.02.91-1.51.11-.16.31-.26.47-.39.07-.06.16-.12.2-.2.1-.17.17-.35.27-.52.05-.09.13-.17.19-.26.48-.74.96-1.48,1.44-2.21.46-.7.91-1.41,1.39-2.1.8-1.15,1.61-2.3,2.44-3.43.52-.71,1.09-1.4,1.63-2.1.03-.04.06-.09.11-.1.21-.06.37-.19.49-.38.12-.18.29-.33.43-.5.37-.45.75-.89,1.1-1.35.35-.46.66-.93.99-1.4.28-.39.56-.78.87-1.15.56-.67,1.03-1.4,1.58-2.07.48-.58,1.03-1.11,1.53-1.67.49-.56.96-1.14,1.44-1.7.37-.44.76-.87,1.13-1.31.21-.24.38-.53.62-.73.36-.31.7-.64.94-1.05.06-.1.04-.25.11-.33.26-.32.55-.63.83-.94.17-.2.34-.41.52-.6.2-.22.48-.35.53-.69.04-.28.27-.4.5-.52.1-.05.23-.1.28-.19.21-.43.17-.89-.26-1.17-.34-.22-.74-.36-1.13-.46-.7-.18-1.41-.31-2.12-.44-.31-.05-.64-.15-.99.09.27.13.5.26.75.35.44.17.89.32,1.33.47.05.02.11.02.17.02.47.03.81.29,1.07.65.09.13.15.34-.1.49-.18.11-.31.31-.47.46-.11.1-.23.23-.36.28-.6.22-1.21.43-1.82.63-.28.09-.54.2-.77.42-.16.15-.39.22-.6.3-.09.03-.21-.06-.31-.03-.55.14-1.09.28-1.63.44-.53.16-1.06.34-1.6.5-.3.09-.62.12-.91.22-.34.12-.68.2-1.05.2-.21,0-.45.06-.53.33-.07-.04-.12-.08-.15-.1.15-.18.31-.35.44-.53.49-.71.98-1.42,1.47-2.13ZM31.13,67.19c.03-.08.04-.19.1-.21.18-.08.37-.12.54-.17-.06.32-.41.25-.63.38ZM32.85,50.06c-.3-.09-.62-.11-.93-.17-.73-.13-1.46-.26-2.18-.41-.27-.06-.52-.19-.78-.28-.12-.04-.24-.06-.46-.12.09-.07.17-.14.26-.2.37.32.37.31.85.06.09-.05.22,0,.33,0,.35.02.7.08,1.05.06.66-.03,1.32-.09,2-.14,0,0,0,.06.02.11.06.28.13.55.17.83.05.29-.04.32-.32.24ZM33.31,47.6c-.18-.12-.33-.21-.45-.29.2-.17.37-.33.56-.47.06-.05.16-.04.31-.08-.16.32-.28.56-.42.84ZM38.6,45.34c-.41.6-.81,1.2-1.23,1.79-.51.72-1.05,1.42-1.57,2.13,0,0-.01.01-.02.02-.15.52-.63.52-1.03.65-.16.05-.33.12-.49.16-.15.04-.4.12-.44.06-.12-.15-.21-.38-.19-.57.07-.74.38-1.4.66-2.07.46-1.11,1.2-2.05,1.75-3.11.3-.59.78-1.08,1.18-1.63.72-.99,1.43-1.99,2.16-2.96.32-.43.69-.81,1.03-1.22.48-.56.94-1.14,1.43-1.69.96-1.08,1.93-2.15,2.91-3.22,1.18-1.29,2.36-2.57,3.55-3.85.36-.39.75-.75,1.13-1.13.74-.75,1.47-1.51,2.2-2.27.23-.23.48-.44.7-.68.11-.12.17-.28.26-.42.02-.03.07-.05.11-.08.02.02.04.03.06.05-.3.58-.54,1.2-.9,1.74-.42.61-.93,1.16-1.42,1.72-.23.27-.51.51-.74.78-.1.12-.12.31-.2.45-.12.2-.25.4-.48.49-.28.11-.36.39-.52.59-.3.39-.59.79-.91,1.16-.19.22-.47.37-.52.69-.43.11-.46.56-.71.84.07.03.14.06.15.07-.16.3-.31.61-.48.89-.12.2-.28.37-.43.55-.03.03-.09.03-.13.04-.08.01-.17.02-.25.03,0,.02,0,.04,0,.06.05.03.1.06.22.12h-.38s-.02.08-.03.12c-.13.06-.24.11-.35.16v.04h.26c-.21.21-.4.36-.55.54-.23.27-.43.57-.64.85-.12.16-.24.32-.34.49-.06.09-.09.19-.15.33-.17.05-.46.6-.36.72-.07.11-.11.2-.18.28-.07.08-.16.15-.25.23l.05.07c.18-.13.35-.26.57-.43-.07.12-.1.22-.16.3-.34.5-.69,1-1.03,1.49-.43.61-.86,1.22-1.28,1.83-.05.07-.07.17-.1.25-.03.06-.04.14-.09.17-.39.23-.6.61-.84.97-.31.46-.63.93-.95,1.39ZM53.71,29.59c.23-.52.29-.58.44-.5-.15.17-.3.33-.44.5ZM55.08,18.53c.04-.11.07-.21.12-.29.01-.02.1-.03.12-.01.15.13.29.19.46.15.3-.09.59-.19.89-.27.14-.04.28-.04.42-.06.75-.12,1.5-.23,2.25-.37,1.05-.2,2.09-.43,3.14-.62.6-.11,1.14-.36,1.68-.6.03-.01.07-.03.12-.02-.25.23-.5.46-.75.69-.4.37-.8.74-1.18,1.13-1,1-1.99,2.01-2.98,3.02-.72.74-1.44,1.49-2.15,2.24-.43.45-.84.92-1.25,1.4-.36.43-.71.86-1.05,1.31-.59.8-1.19,1.6-1.75,2.42-.37.54-.75,1.08-.95,1.72-.09.28-.29.53-.52.76-1.31,1.3-2.48,2.72-3.48,4.28-.49.77-1.06,1.49-1.58,2.23-.19.28-.35.58-.56.84-.26.32-.53.64-.7,1.02-.28.6-.77,1.03-1.13,1.55-.35.51-.69,1.04-1.02,1.57-.54.86-1.07,1.73-1.6,2.6-.02.03-.04.05-.06.08-.22.31-.23.33-.56.14-.21-.12-.38-.13-.59,0-.25.15-.5.28-.77.39-.14.06-.31.06-.48.08.16-.27.3-.54.47-.77.33-.45.7-.87,1.02-1.32.53-.73,1.05-1.46,1.56-2.2.51-.75.97-1.54,1.47-2.29.41-.61.86-1.21,1.3-1.8.33-.44.71-.86,1.03-1.31.45-.62.88-1.26,1.32-1.9.52-.77,1.03-1.56,1.56-2.33.57-.84,1.18-1.65,1.74-2.49.38-.57.72-1.18,1.05-1.78.35-.65.67-1.33.99-1.99.09-.18.16-.36.25-.54.07-.15.14-.3.37-.24.05.01.12-.07.18-.11.27-.21.54-.43.81-.65.59-.49,1.27-.9,1.74-1.53.3-.41.36-.78.13-1.13-.04-.06-.14-.11-.21-.11-.3,0-.6.01-.91.02-.88.01-1.76.05-2.61.32-.17.05-.37,0-.59,0,.19-.35.39-.72.59-1.08.15-.26.31-.51.48-.76.11-.16.24-.31.36-.46.11-.14.22-.29.35-.41.14-.12.3-.22.45-.32.01,0,.05,0,.06.02.14.21.33.07.39-.02.16-.23.36-.21.54-.19Z"/>
      <path class="cls-1" d="M33.32,86.24c.14.3.23.59.09.92-.04.11.01.26.02.38.01.54.01,1.08.03,1.61.01.42.04.83.06,1.25,0,.04-.02.07-.03.11-.02.23-.03.47-.06.7-.05.45-.1.9-.17,1.35-.07.41-.13.83-.25,1.23-.13.41-.33.8-.51,1.19-.2.46-.49.84-.85,1.18-.11.1-.25.17-.38.23-.07.09-.14.24-.22.25-.17.01-.22.15-.32.22-.29.19-.58.39-.89.55-.45.23-.9.44-1.37.63-.47.19-.96.33-1.43.51-.55.22-1.12.41-1.63.7-.84.49-1.67,1.02-2.35,1.74-.15.16-.25.37-.4.53-.25.27-.53.52-.8.79-.06.06-.12.14-.17.2-.39-.2-.42-.27-.34-.67.2-1.01.87-1.69,1.66-2.24.94-.66,1.99-1.11,3.09-1.45.34-.1.67-.26,1.01-.38.38-.14.78-.23,1.13-.41.52-.27,1.02-.6,1.52-.9.08-.05.16-.09.24-.12.35-.13.64-.35.91-.59.06-.05.08-.14.12-.21.06-.1.11-.24.21-.29.29-.15.43-.39.57-.67.22-.44.48-.86.74-1.3-.15-.06-.13-.13-.05-.31.15-.3.33-.6.33-.97,0-.37.12-.75.15-1.12.03-.39-.01-.8.04-1.19.03-.25.07-.5.09-.75.04-.57.06-1.15.07-1.73,0-.28,0-.56,0-.84,0-.04.08-.08.13-.12,0,0,0,0,0,0Z"/>
      <path class="cls-1" d="M19.41,40.61c.07.03.19.04.21.09.14.32.31.6.68.68.02,0,.04.04.06.07-.08.06-.15.11-.21.17,0,0,0,0,0,0-.2-.18-.4-.36-.6-.54-.1-.1-.2-.21-.32-.34.07-.06.13-.1.18-.14,0,0,0,0,0,0Z"/>
      <path class="cls-1" d="M51.18,18.84c.22-.06.44-.13.66-.18.2-.05.36,0,.46.2-.45.15-.92.27-1.12-.02Z"/>
      <path class="cls-1" d="M23.55,11.93c.13.07.27.13.4.21.02.01.02.05.02.04-.23.04-.46.1-.69.12-.09,0-.19-.06-.28-.12-.02-.01.02-.15.06-.17.06-.03.14.01.21.01.08,0,.17-.02.25-.03l.02-.06Z"/>
      <path class="cls-1" d="M18.78,12.37c.21.06.44-.33.63.08.02-.08.01-.12.04-.15.04-.04.09-.06.14-.08.02,0,.07.04.07.05-.02.04-.05.07-.07.11-.02.07-.04.14-.04.21,0,.05.02.1.02.13-.09-.08-.19-.15-.28-.23-.07-.06-.14-.18-.19.01,0,0-.1,0-.15-.03-.06-.03-.11-.08-.16-.11Z"/>
      <path class="cls-1" d="M54.02,12.51c.06-.02.13-.03.2-.05-.02-.07-.03-.13-.06-.21.1-.03.2-.07.3-.1,0,.02.01.03.02.05-.06.03-.13.05-.21.09.16.25.42.03.58.22-.15,0-.29,0-.44,0-.08,0-.15.05-.23.05-.05,0-.1-.04-.15-.06,0,0,0,0,0,0Z"/>
      <path class="cls-1" d="M21.97,12.39c.3-.12.58-.23.87-.35-.06.11-.21.25.09.29-.02.02-.05.05-.07.07-.09-.04-.18-.08-.31-.13-.14.13-.33.27-.59.12Z"/>
      <path class="cls-1" d="M31.63,70.79h.28c-.04.12-.07.23-.11.34-.02.05-.05.1-.08.15-.04-.05-.09-.1-.11-.15-.02-.05-.01-.15,0-.16.2-.05-.02-.11.01-.19Z"/>
      <path class="cls-1" d="M20.07,12.22h.4s0,.04,0,.07c-.07,0-.13.01-.26.02.07.11.13.18.18.25-.18.03-.29-.1-.31-.34Z"/>
      <path class="cls-1" d="M21.1,12.53c-.01-.13-.03-.26-.03-.39,0-.03.09-.05.14-.08.02.06.06.11.05.17-.01.1-.05.19-.08.29h-.08Z"/>
      <path class="cls-1" d="M19.42,40.61q-.25.05-.43-.29c.15-.05.28.04.42.3,0,0,0,0,0,0Z"/>
      <path class="cls-1" d="M12.82,13.64c.15-.03.32.07.35-.14.06.01.12.03.17.04-.12.26-.28.31-.52.11Z"/>
      <path class="cls-1" d="M3.29,13.94c-.16.02-.32.04-.48.07,0-.04,0-.08-.01-.12.16-.01.32-.03.48-.04,0,.03,0,.06,0,.09Z"/>
      <path class="cls-1" d="M41.53,40.65c-.12-.33.22-.41.32-.61-.02.1-.02.21-.07.3-.05.1-.14.17-.25.31Z"/>
    </g>
  </g>
</svg>