<?xml version="1.0" encoding="UTF-8"?>
<svg id="Layer_2" data-name="Layer 2" xmlns="http://www.w3.org/2000/svg" viewBox="0 0 76.01 40.23">
  <defs>
    <style>
      .cls-1 {
        fill: #000;
        stroke-width: 0px;
      }
    </style>
  </defs>
  <g id="illustrations">
    <g>
      <path class="cls-1" d="M65.93,15.04s-.05-.07-.08-.11c-.2-.3-.49-.43-.84-.5-.21-.04-.4-.18-.6-.27,0-.03.01-.06.02-.09.2-.03.4-.08.59-.08.31,0,.47-.19.54-.43.08-.26,0-.44-.3-.59-.33-.18-.66-.35-1.01-.5-.48-.2-.98-.36-1.45-.57-.4-.18-.78-.42-1.18-.59-.59-.25-1.19-.46-1.79-.7-.41-.16-.8-.36-1.22-.52-.57-.22-1.15-.41-1.72-.62-.26-.09-.51-.21-.77-.29-.89-.3-1.78-.61-2.67-.9-.27-.09-.54-.15-.81-.24-.29-.09-.57-.18-.85-.27-.06-.02-.11-.04-.17-.05-.45-.1-.9-.19-1.35-.29-.82-.18-1.64-.38-2.46-.55-.31-.06-.64-.02-.94-.09-.3-.06-.62.03-.89-.16,0,0-.03,0-.04,0-.23.11-.44-.08-.69-.04-.25.04-.53-.08-.8-.13-.1-.02-.24.05-.31,0-.25-.18-.54-.19-.82-.28-.53-.18-1.04-.4-1.56-.59-.91-.32-1.81-.69-2.81-.66-.58.02-1.11-.3-1.69-.25-.03,0-.06,0-.08-.03-.25-.18-.48-.13-.69.08-.03.04-.09.06-.13.08-.43.26-.44.36-.08.73,0,0,0,.02,0,.02-.03.03-.06.05-.09.08.11.09.21.18.3.26l-.02.04c-.06,0-.11-.01-.17-.02-.01.02-.03.04-.04.07.14.11.27.22.43.35-.16.04-.28.1-.4.11-.48.01-.96-.01-1.44,0-.58.02-1.16.08-1.74.11-.85.04-1.68.24-2.52.39-.12.02-.25.03-.37.06-.59.15-1.17.31-1.76.44-.97.23-1.93.44-2.9.67-.26.06-.52.21-.78.21-.58,0-1.1.22-1.63.39-.61.2-1.21.34-1.85.28-.15-.01-.3.04-.45.06-.04,0-.09,0-.11-.02-.18-.21-.43-.16-.64-.1-.24.06-.43.02-.64-.06-.1-.03-.2-.04-.32-.07,0,.07-.01.11,0,.13.1.19.21.36.29.56.07.15.12.25.3.14.04-.02.12.04.18.07,0,.01-.01.02-.02.04-.09.02-.18.03-.26.04.04.04.07.08.11.12-.05.02-.1.04-.15.05-.11,0-.23,0-.35.01-.15.02-.29.05-.44.07-.1.01-.2,0-.3.02-.44.11-.87.25-1.32.35-.27.06-.58,0-.83.08-.22.08-.33.01-.44-.13-.43-.59-1-1.01-1.59-1.42-.61-.43-1.22-.84-1.84-1.26-.18-.12-.35-.25-.54-.35-.64-.35-1.25-.73-1.76-1.25-.21-.21-.44-.42-.66-.63,0,0-.01-.03-.02-.04.03-.05.07-.1.14-.21-.17-.03-.3-.06-.4-.08-.05.2-.07.35-.14.49-.18.37-.21.75-.14,1.14.03.19.09.39.2.55.2.31.44.59.65.89.06.09.13.17.18.27.09.15.07.37.3.41.02,0,.05.06.06.09.05.22.16.45.13.67-.04.27.12.38.25.54.03.04.07.06.13.11-.21.08-.4.15-.64.24.29.28.55.54.83.79.15.13.18.4.01.51-.28.19-.57.36-.84.55-.33.24-.63.53-.97.76-.3.21-.53.52-.93.58-.3.04-.42.24-.43.62,0,.24.2.29.36.36.17.07.36.12.53.19.17.08.33.19.54.09.06-.03.16,0,.3,0-.09.06-.11.08-.14.1.01.02.02.04.03.07.2-.06.39-.12.59-.18.09-.03.18-.07.27-.09.73-.12,1.47-.21,2.19-.37.96-.2,1.91-.42,2.8-.85.39-.19.71-.39.93-.79.14-.25.07-.4-.03-.59-.03-.05-.06-.1-.09-.15-.1-.16-.15-.3.17-.31-.07-.12-.12-.21-.17-.3.23-.03.15-.19.11-.33-.04-.13-.08-.26-.12-.38.48-.05.9-.07,1.32-.14.35-.05.7-.15,1.05-.21.59-.09,1.18-.17,1.76-.26.4-.06.79-.15,1.19-.22.12-.02.24,0,.37-.02.32-.04.63-.1.95-.12.3-.02.6.02.9,0,1.4-.11,2.79-.18,4.19-.14,1.29.03,2.58.02,3.87.03.56,0,1.12.03,1.67.05.62.02,1.24.04,1.87.07.42.02.84-.03,1.25.03.33.05.67.09,1,.11.42.02.84,0,1.26.04.37.03.73.11,1.09.15.46.05.92.08,1.38.12.77.08,1.53.16,2.3.24.69.08,1.37.18,2.05.24,1.04.08,2.06.27,3.06.54.44.12.9.2,1.35.26.24.03.49-.03.73-.02.24,0,.42-.08.61-.22-.09-.04-.18-.07-.27-.07-.27.01-.54.04-.81.06-.18,0-.36,0-.52-.15.07-.03.11-.05.18-.09-.16,0-.29.04-.4.02-.24-.05-.47-.15-.72-.21-.15-.04-.36.01-.46-.08-.18-.15-.36-.19-.57-.23-.62-.11-1.24-.24-1.85-.35,0,.07-.01.1-.02.14-.07-.01-.18,0-.2-.04-.08-.18-.24-.15-.38-.17-.11,0-.22,0-.33,0-.29-.04-.59-.09-.88-.12-.21-.02-.42.04-.62,0-.34-.08-.68-.18-1.03-.09-.2.05-.4.05-.54-.16-.02-.03-.09-.04-.14-.05-.34-.05-.67-.11-1.01-.14-.07,0-.14.06-.26.11-.03-.01-.11-.06-.2-.08-.22-.05-.46-.18-.65-.13-.36.11-.67-.17-1.02-.06-.02,0-.05-.03-.07-.04-.2-.04-.41-.08-.61-.11-.03,0-.08.05-.11.09-.11.11-.26.12-.33-.02-.07-.13-.1-.13-.2-.03-.05.05-.19.09-.21.06-.15-.17-.33-.07-.5-.09-.05,0-.1,0-.15,0-.23-.03-.47-.07-.7-.09-.23-.02-.45-.03-.68-.03-.14,0-.27,0-.41,0-.15,0-.3.02-.45,0-.36-.04-.71-.08-1.03.1-.05-.03-.11-.09-.16-.09-.29-.01-.58-.01-.88-.02-.07,0-.16.03-.22,0-.47-.21-.95.12-1.42-.02-.02,0-.04.01-.06.03-.18.21-.44.13-.6.08-.24-.08-.51.12-.72-.09-.35.12-.71.06-1.07.04-.47-.03-.94.02-1.41,0-.29,0-.58-.01-.87.04-.11.02-.22-.03-.34-.04-.21,0-.43-.05-.61.02-.33.12-.58.04-.86-.16.07-.03.11-.06.16-.07.73-.17,1.42-.49,2.17-.57.35-.04.69-.14,1.03-.22.11-.03.22-.09.35-.15.05,0,.15.06.25.05.58-.11,1.17-.2,1.74-.37.2-.06.49.1.61-.21,0-.01.06-.01.08,0,.26.06.5,0,.72-.15.05-.03.13,0,.19-.01.3-.02.59-.06.89-.07.21-.01.4-.07.6-.12.2-.05.44.02.66.03.19,0,.38.03.57,0,.21-.03.4-.11.61-.14.38-.06.77-.09,1.15-.13.32-.03.65-.03.97-.05.15-.01.36.15.41-.12.15.01.27.03.4.04.09,0,.23-.05.28,0,.2.21.45-.12.64.07,0,0,.05-.02.07-.04.15-.13.35-.12.5-.01.11.07.29.16.39.12.19-.09.39-.09.58-.09.48,0,.96.05,1.43.08.15,0,.3-.03.45-.03.09,0,.18.06.27.06.21,0,.42-.05.63-.05.13,0,.25.07.38.1.3.08.61.09.92.1.52.02,1.03.14,1.55.21.8.12,1.6.23,2.4.35.34.05.68.12,1.02.17.21.03.42.04.62.09.28.08.57.1.86.21.39.15.84.16,1.26.26.47.11.92.26,1.38.4.14.04.28.11.42.16.28.09.55.18.83.26.2.05.4.09.67.14-.15.06-.23.11-.32.13-.25.08-.43.23-.59.43-.34.42-.62.88-.88,1.35-.34.61-.59,1.23-.6,1.94,0,.29-.04.59-.09.88-.04.25-.13.48-.19.72-.1-.17-.14-.32-.18-.48-.1-.41-.33-.79-.25-1.23.04-.2.04-.42.05-.63,0-.08-.04-.16-.02-.23.03-.17.07-.33.13-.49.07-.2-.05-.43.12-.63.1-.12.13-.29.19-.44.09-.21.17-.42.28-.61.05-.09.17-.15.26-.22.06-.04.15-.06.18-.12.1-.22.06-.45-.05-.67-.07.16-.14.32-.13.49,0,.22-.1.25-.27.22-.24-.05-.41.07-.49.25-.15.35-.25.72-.38,1.09-.07.2.1.47-.2.59-.03.01-.04.08-.04.12,0,.37-.02.74-.02,1.11,0,.4.02.8.03,1.2,0,.03.02.06.03.11.08-.1.15-.19.24-.3.06.46.11.87.17,1.27.04.25.07.5.17.72.12.27.26.55.46.75.18.18.36.35.51.57.11.16.29.3.46.41.77.49,1.51,1.02,2.38,1.33.09.03.16.1.27.16-.52.17-.99.32-1.46.48-.63.21-1.25.43-1.88.62-.23.07-.5.11-.74.08-.3-.03-.58-.15-.88-.2-.21-.03-.27-.14-.26-.32.01-.15-.06-.19-.19-.19-.32,0-.63-.02-.95-.05-.1,0-.23-.02-.28-.09-.18-.23-.41-.17-.64-.18-.12,0-.25-.03-.37-.06-.18-.03-.35-.18-.53.01-.02.02-.1,0-.14-.01-.26-.12-.52-.19-.8-.14-.04,0-.1,0-.12-.02-.32-.3-.74-.24-1.12-.32-.3-.06-.61-.1-.91-.17-.47-.1-.94-.21-1.41-.33-.32-.08-.64-.17-.95-.28-.4-.13-.79-.31-1.2-.42-.31-.09-.64-.09-.95-.17-.51-.13-1.02-.29-1.53-.44-.5-.15-1.03-.2-1.41-.62,0,0-.03-.02-.04-.02-.1-.01-.26-.06-.28-.02-.08.12-.15.27-.15.42,0,.17.07.33.12.51-.04,0-.09.02-.12,0-.27-.1-.55-.19-.81-.32-.16-.07-.23-.07-.25.11-.01.13-.03.27-.05.42-.02,0-.06.02-.1.01-.33-.02-.64-.21-.98-.04-.02,0-.05.01-.06,0-.18-.17-.4-.1-.61-.12-.38-.04-.76-.11-1.13-.05-.35.06-.71-.13-1.05.07-.02,0-.05,0-.06,0-.16-.1-.32-.03-.49-.02-.53.02-1.07,0-1.61-.02-.38,0-.77-.04-1.15-.05-1.36-.04-2.72-.07-4.08-.11-.15,0-.31-.05-.45-.11-.59-.24-1.18-.48-1.76-.76-.39-.19-.76-.42-1.14-.64l.02-.09c.2-.07.41-.15.61-.21.34-.1.61-.32.91-.56-.08-.03-.13-.04-.18-.06-.26-.11-.55-.15-.72-.42-.08-.13-.21-.24-.35-.32-.38-.24-.78-.47-1.17-.7-.16-.1-.33-.2-.5-.27-.56-.26-1.13-.51-1.7-.76-.05-.02-.11-.03-.17-.05-.47-.14-.9-.02-1.31.21-.09.05-.23.17-.22.22.05.16.22.14.36.12.05-.01.11-.05.15-.09.3-.23,1.03-.22,1.26-.01.55.48,1.23.71,1.88.99.43.19.87.35,1.3.54.16.07.29.2.47.33-.51.25-.99.16-1.5.21.13.13.21.25.32.32.11.07.25.09.42.15-.36.27-.73.39-1.14.37-.05,0-.11-.04-.15-.08-.27-.3-.61-.44-1.07-.48.23.36.36.73.66.98.41.34.91.46,1.39.65.65.25,1.32.45,2.01.58.25.05.48.22.71.33.02,0,.02.05.03.09-.56.12-1.11.21-1.65.35-.91.23-1.82.47-2.72.75-.69.21-1.37.46-1.91.98-.06.06-.15.09-.23.12-.21.06-.42.09-.62.18-.38.16-.8.25-1.09.59-.06.07-.19.11-.29.12-.22.02-.44,0-.66,0-.07,0-.15.07-.19.14-.18.24-.06.84.2,1,.35.22,2.21,1.42,2.89,1.51.11.02.23.02.37.03-.07.12-.12.21-.16.29-.09-.03-.17-.07-.25-.08-.59-.04-1.18-.07-1.77-.12-.45-.04-.91-.1-1.36-.14-.08,0-.24,0-.25.02-.02.1-.04.25.01.32.16.22.34.43.54.61.4.35.79.7,1.26.98.44.26.8.65,1.22.96.51.37,1.03.72,1.57,1.06.38.24.78.45,1.18.65.32.16.66.27.99.42.26.12.51.21.81.1.1-.04.22,0,.33,0,0,.02,0,.05.01.07-.1.05-.19.1-.32.17.1.06.18.11.24.15-.02.09-.09.2-.06.24.15.19.28.43.48.53.44.23.91.43,1.39.55.58.15,1.19.21,1.78.31,1.18.2,2.36.41,3.55.6.47.08.95.12,1.42.18.6.06,1.2.14,1.81.17.76.04,1.53.03,2.3.05.05,0,.1.03.14.06.17.13.33.24.56.21.14-.02.28-.01.42-.02.42-.03.84-.09,1.26-.08.44.01.87.09,1.3.15.01,0,.03,0,.04,0,.28.05.55.11.83.16.27.05.59.04.81.17.26.15.51.15.78.16.22,0,.44,0,.65.02.18.01.36.05.54.05.35-.01.71-.04,1.06-.08.46-.05.94-.01,1.38-.23.2-.1.25-.25.19-.37-.12-.25.02-.33.18-.43.02-.01.04-.04.08-.09-.1-.02-.16-.05-.23-.05-.29,0-.59,0-.88-.01-.09,0-.18-.03-.26-.04.31-.04.62-.11.92-.12.48-.03.95-.02,1.43-.02.05,0,.12,0,.15-.03.08-.1.15-.21.21-.33.14-.32.03-.44-.31-.39-.54.07-1.08.13-1.62.22-.21.03-.41.11-.61.19-.05.02-.08.12-.14.22-.03,0-.12,0-.22.01,0-.02-.01-.03-.02-.05.06-.05.11-.1.18-.16-.09-.03-.16-.06-.24-.08-.08-.02-.15-.05-.23-.05-.88-.03-1.75-.06-2.59.3-.1.04-.22.05-.32.06-1.25.14-2.5.08-3.75.05-.79-.02-1.58-.01-2.37.02-1.38.06-2.76,0-4.12-.26-1.09-.22-2.18-.36-3.28-.43-1.14-.07-2.19-.42-3.25-.79-.2-.07-.38-.23-.56-.34.4-.27.78-.49,1.12-.75.35-.26.67-.56,1.01-.84,0-.05.05.02.11.08.24.25.49.29.81.15.21-.09.44-.15.66-.22.23-.07.5-.03.66-.27.1-.16.25-.24.45-.17-.07-.21.16-.41.43-.42-.01-.07-.02-.14-.03-.21.01,0,.03,0,.04-.01.03.03.05.06.09.11.1-.13.2-.26.29-.38-.05-.04-.08-.07-.07-.06.09-.08.17-.14.22-.21.04-.07.03-.18.08-.24.11-.15.2-.29.16-.49-.01-.05,0-.12.02-.15.16-.17.16-.39.23-.6.03-.08.08-.16.14-.29.01.16.02.27.03.37.04-.07.04-.13.06-.2.26-.96.33-1.93.24-2.91-.04-.46-.13-.92-.3-1.35-.18-.45-.48-.86-.73-1.29-.15-.26-.31-.53-.49-.84.63-.04,1.2-.08,1.78-.1.21,0,.43.04.64.03.57-.01,1.14-.07,1.72-.05.84.03,1.67.09,2.51.16.66.06,1.32.17,1.98.25.14.02.29,0,.43.03.12.02.24.09.36.11.26.04.53.05.78.09.12.02.22.14.33.17.3.08.61.13.92.19.62.12,1.25.23,1.87.36.47.1.95.1,1.4.3.2.09.44.12.66.17.32.07.64.25.98.05.03-.02.11,0,.16.03.14.06.28.14.43.18.17.04.35.02.52.05.18.04.35.13.53.18.36.09.72.18,1.08.26.36.08.72.15,1.07.22.12.03.24.06.37.09,0,.02,0,.03,0,.05-.1,0-.2-.01-.3-.02,0,.02,0,.04-.01.07.98-.02,1.85.45,2.79.66-.01-.08-.02-.12-.03-.2.26.2.55.22.81.34.44.2.92.3,1.38.44.2.06.4.1.59.16.3.09.6.18.9.27.05.01.08.05.13.08.12.06.23.12.36.17.12.05.26.05.35.13.11.09.22.16.37.14.04,0,.08.02.12.04.16.07.32.14.49.2.48.15.97.31,1.46.43.41.1.81.24,1.24.21.22-.02.33-.14.27-.35-.05-.19-.15-.37-.2-.56-.07-.22-.19-.39-.42-.46-.43-.14-.86-.3-1.29-.44-.21-.07-.4-.05-.59.07-.06.04-.18.04-.25.01-.23-.08-.46-.16-.7-.1.01.09.02.17.04.31-.45-.22-.9-.32-1.16-.65-.12,0-.19-.02-.27-.02,0-.03,0-.06,0-.09.1-.02.22-.08.3-.05.24.08.46.22.7.28.36.08.73.12,1.1.17.06,0,.13,0,.21,0-.05-.19-.16-.25-.33-.28-.6-.12-1.19-.25-1.78-.4-.51-.14-1.01-.32-1.51-.47-.16-.05-.32-.09-.47-.13,0-.03,0-.06,0-.08,1.38-.16,2.66-.66,3.97-1.03.04-.09.08-.2.15-.22.29-.08.59-.15.9-.19.82-.11,1.61-.36,2.38-.65.54-.2,1.1-.38,1.63-.62.36-.16.68-.4,1.03-.59.19-.1.4-.15.59-.25.62-.33,1.24-.67,1.85-1.02.23-.14.45-.31.65-.49.23-.2.22-.22.02-.44ZM13.32,9.29s-.02.07-.03.1c-.14,0-.28-.01-.41-.03-.16-.02-.32-.03-.48-.06-.06-.02-.16-.09-.16-.15-.03-.2-.03-.41-.04-.64.39.27.76.52,1.13.78ZM11.94,12.21s-.07.04-.11.06c-.34.22-.69.45-1.03.67-.05.03-.12.04-.18.06-.01-.02-.02-.03-.03-.05.14-.13.28-.27.42-.4.26-.23.52-.46.79-.67.14-.11.28-.25.51-.15.08.04.2-.02.33-.03-.18.27-.37.48-.69.51ZM12.02,10.4c.58.03,1.12.06,1.71.09-.33.26-1.42.21-1.71-.09ZM38.11,5.46c-.08.02-.16.04-.3.08.04-.1.06-.2.08-.2.07,0,.15.03.22.05,0,.02,0,.05,0,.07ZM40.11,5.73s0-.08-.01-.12c.04,0,.08-.01.12,0,.09.03.18.06.33.11-.2.11-.33.15-.43,0ZM41.28,6.02c-.13-.07-.24-.16-.36-.24,0-.02,0-.04,0-.06.16,0,.31,0,.47.02.23.03.22.25.27.45-.13-.05-.26-.1-.38-.17ZM42.15,30.69c.11,0,.23.08.35.13,0,.02,0,.04-.01.06-.06.02-.13.05-.21.08,0-.06-.01-.1-.02-.15h-.89c.28-.05.53-.11.79-.13ZM41.58,31.35s0,.05.01.07c-.17.05-.34.09-.5.14,0-.03-.02-.06-.02-.09.17-.04.34-.08.51-.12ZM29.07,23.58c.02.06.04.12.05.14-.14.26-.27.49-.4.73-.18-.31-.06-.61.35-.88ZM19.3,19.69s.04-.03.06-.04c.06.08.15.15.17.23.02.13-.03.25-.23.21v-.4ZM14.64,21.2c.3,0,1.52.92,1.55,1.18-.6-.29-1.06-.74-1.55-1.18ZM25.14,26.32c-.06-.1-.17-.22.04-.31.15-.06.23-.36.18-.57-.03-.1-.06-.2-.09-.34-.04.09-.09.15-.1.22-.05.28-.1.54-.33.76-.19.19-.31.46-.43.71-.29.56-.81.81-1.34,1.05-.27.12-.56.08-.85.09-.72.01-1.37-.24-2.02-.49-.99-.37-1.86-.94-2.7-1.57-.73-.54-1.45-1.08-2.18-1.63-.13-.1-.25-.2-.37-.3.02-.03.05-.07.07-.1.21.05.42.1.64.15.46.1.92.2,1.38.28.23.04.47.07.69.03.44-.06.81-.51.81-.96,0-.07-.08-.17-.15-.2-.4-.17-.8-.33-1.2-.49-.03-.01-.07-.04-.08-.07-.41-.68-1.03-1.14-1.67-1.58-.05-.03-.08-.07-.17-.15,1.17-.21,2.21-.68,3.33-1.07-.05.13-.06.24-.12.3-.28.3-.12.58.06.82.34.47.86.65,1.41.72.11.01.23-.05.33-.1.44-.24.65-.65.69-1.12.02-.2-.1-.45-.23-.62-.19-.25-.45-.44-.62-.6.32-.1.71-.23,1.11-.34.52-.15,1.05-.28,1.6-.4-.18.23-.05.4.05.57.39.66.78,1.32,1.16,1.98.15.26.29.53.38.82.21.67.26,1.33-.23,1.93-.08.09-.13.21-.17.33.39-.33.85-.58.96-1.16.14-.71-.03-1.37-.26-2.02-.01-.03-.02-.08-.05-.1-.28-.2-.46-.48-.61-.78-.07-.14-.18-.28-.19-.43-.01-.17-.11-.24-.2-.34-.14-.15-.25-.33-.38-.48-.11-.13-.23-.25-.34-.38.21-.02.45-.03.68-.08.16-.03.3-.13.46-.16.38-.08.68.15.94.35.55.42,1.06.88,1.59,1.34.31.27.44.62.46,1.02.03.52.06,1.04.05,1.57-.01.47-.04.95-.15,1.4-.1.42-.31.81-.48,1.2-.12.27-.24.56-.41.8-.16.23-.38.42-.6.6-.15.12-.26,0-.34-.13ZM24.52,21.22s.06,0,.09-.01l.07.5s-.07.01-.1.02c-.02-.17-.04-.34-.06-.5ZM25.66,26.9s-.03-.06-.05-.08c.46-.36.91-.73,1.37-1.08.05-.04.15-.01.23,0-.43.52-.93.92-1.55,1.16ZM28.31,20.86c0,.09-.03.21-.08.29-.35.5-.46,1.08-.56,1.67-.01.07.09.15.17.22-.05.34-.03.73-.27,1.03-.02,0-.04,0-.07,0,0-.12,0-.25-.03-.37-.03-.1-.1-.19-.17-.3.02-.05.06-.15.07-.24.05-.56.11-1.11.12-1.67,0-.62-.21-1.18-.54-1.7-.06-.1-.14-.18-.21-.28,0-.01-.02-.03-.03-.03-.41-.16-.57-.61-.92-.84-.34-.21-.67-.44-1-.66,0-.02,0-.04-.01-.06.24-.02.47-.04.71-.05.17-.01.35-.02.52-.03.17,0,.33-.02.5,0,.34.03.68.07.98.1.03.11.04.22.08.31.42.83.7,1.7.75,2.63ZM57.39,22.51c.31.08.63.16.94.24-.36.12-.67.04-.96-.14l.02-.1ZM52.89,20.95c.26.06.52.12.77.19,0,.02,0,.03-.01.05-.26-.06-.51-.12-.77-.19,0-.02,0-.03,0-.05ZM65.42,15.43c-.21.14-.43.28-.67.36-.3.11-.56.35-.91.33-.08,0-.16.12-.24.18-.31.21-.59.45-.98.51-.11.02-.21.11-.31.15-.82.34-1.62.7-2.45,1-.82.29-1.68.5-2.51.77-.32.11-.61.04-.91-.03-.09-.02-.2-.09-.25-.16-.27-.36-.56-.71-.76-1.11-.23-.46-.38-.97-.56-1.46-.14-.37-.3-.74-.4-1.13-.1-.38-.15-.78-.19-1.17-.06-.58-.1-1.16-.15-1.74-.05-.55.14-1.03.4-1.49.12-.22.27-.42.41-.62.15-.23.37-.24.61-.17.69.2,1.39.35,2.06.6.98.36,2,.6,2.93,1.08.65.34,1.32.64,1.99.95.28.13.55.27.83.39.08.03.17.05.25.07.02,0,.04,0,.05,0,0,0,0,0,0,0,.03,0,.06.02.09.02.04,0,.07,0,.11,0,.17,0,.3.11.36.25.17.06.35.13.54.22.06.03.1.16.11.24,0,.05-.1.12-.16.13-.26.07-.52.12-.77.19-.23.06-.26.21-.08.36.18.15.38.27.57.41.05.04.09.08.13.12.07.03.13.08.17.15.07.12.06.27,0,.38.15-.08.3-.17.45-.27.09.05.2.11.29.18.11.09.11.21,0,.28Z"/>
      <path class="cls-1" d="M59.56,4c.42-.21.73.14,1.09.23.06.02.1.12.15.19.2-.04.34.14.52.23.17.09.34.17.52.26.03.01.06.02.08.04.16.23.44.28.66.42.23.15.49.26.74.39.09.04.19.08.27.12.06.03.1.07.18.13.13-.08.26-.03.38.15.03.05.11.07.17.09.22.08.45.15.67.24.27.11.54.22.8.35.1.05.18.15.28.24.02,0,.06-.04.09-.05.16.05.29.1.43.14.2.06.4.11.59.19.22.09.42.22.63.32.14.06.3.09.43.16.52.3,1.04.59,1.54.92.79.52,1.58,1.04,2.32,1.63.55.44,1.03.98,1.48,1.52.15.18.42.34.4.66,0,.06.14.12.18.2.16.37.31.75.44,1.13.13.39.25.79.34,1.2.15.67.27,1.35.43,2.02.06.25.18.48.27.73.06.17.11.35.14.53.08.55.19,1.11.21,1.66.02.72.11,1.44-.08,2.15-.15.57-.33,1.14-.52,1.7-.23.69-.57,1.33-.98,1.94-.59.88-1.12,1.8-1.92,2.51-.23.2-.42.45-.61.7-.35.46-.85.7-1.33.96-.42.22-.84.42-1.26.65-.24.13-.45.3-.68.45-.17.11-.34.23-.52.31-.19.09-.39.15-.58.23-.44.18-.88.34-1.32.54-.14.06-.22.23-.36.3-.33.17-.68.31-1.03.47-.52.24-1.03.5-1.56.71-.96.38-1.93.74-2.9,1.11-.8.3-1.59.6-2.39.9-.17.06-.28.17-.36.35-.14.3-.32.58-.67.72-.19.08-.34.26-.54.34-.84.36-1.69.72-2.55,1.05-.54.21-1.1.39-1.66.54-.65.17-1.31.29-1.96.41-.4.08-.81.13-1.21.19-.12.02-.25-.02-.37,0-.62.09-1.24.2-1.87.27-.73.09-1.46.16-2.18.23-.14.01-.28,0-.41,0-.36.02-.71.03-1.07.06-.57.06-1.14.16-1.71.22-.35.03-.71.01-1.07.03-.25.01-.51.09-.76.06-.35-.04-.67.09-1,.1-.5.02-1-.01-1.5-.04-.44-.02-.87-.08-1.31-.1-.31-.01-.61.02-.92,0-.42-.02-.84-.07-1.26-.1-.17-.01-.34,0-.5-.03-.38-.05-.76-.08-1.12-.18-.6-.17-1.21-.23-1.83-.26-.02,0-.05,0-.06,0-.19-.22-.45-.05-.67-.11-.06-.02-.17-.03-.17-.06-.06-.22-.2-.14-.34-.13-.16,0-.33,0-.49-.05-.22-.06-.43-.15-.65-.23-.03-.01-.05-.05-.07-.08.44.09.49.08.45-.1.45.24.97-.02,1.39.3.04.03.1.02.15.03.64.1,1.29.2,1.93.3.53.08,1.05.19,1.58.24.57.06,1.14.09,1.71.13.21.01.42.03.63.03.61-.01,1.22-.05,1.83-.06.4,0,.79.04,1.19.03.38,0,.76-.06,1.14-.09.73-.06,1.47-.1,2.2-.17.66-.06,1.31-.15,1.97-.22.5-.05,1-.05,1.49-.11,1.32-.17,2.65-.36,3.97-.54.2-.03.4-.08.61-.11.98-.13,1.96-.29,2.91-.6.54-.18,1.08-.34,1.6-.56.7-.29,1.39-.62,2.08-.95.29-.14.6-.26.78-.6-.61.18-1.19.36-1.77.54-1.17.37-2.35.72-3.51,1.12-.7.24-1.4.48-2.14.56-.7.07-1.41.14-2.11.17-.76.04-1.53.05-2.29.06-.26,0-.52,0-.77-.03-.33-.03-.66-.11-.99-.12-1.05-.03-2.09-.02-3.14-.06-.82-.03-1.64-.11-2.46-.18-.62-.05-1.23-.1-1.84-.16-.5-.05-1.01-.14-1.51-.18-.25-.02-.51.07-.77.06-.76-.02-1.52-.05-2.29-.08-.24-.01-.48-.03-.72-.06-.51-.07-1.01-.15-1.52-.21-.39-.04-.78-.03-1.16-.08-.55-.07-1.1-.18-1.65-.27-.2-.03-.41-.03-.61-.07-.53-.13-1.05-.32-1.59-.41-.41-.07-.78-.2-1.15-.36-.13-.06-.27-.08-.4-.11v-.04c.06,0,.1,0,.2,0-.14-.08-.24-.15-.34-.2-.22-.12-.44-.23-.67-.33-.21-.09-.44-.16-.66-.25-.1-.04-.17-.13-.27-.17-.27-.1-.55-.16-.82-.26-.3-.11-.59-.25-.88-.37-.42-.15-.84-.29-1.26-.44-.6-.22-1.19-.45-1.79-.67-.47-.17-.95-.34-1.43-.51-.24-.09-.48-.17-.72-.26-.02.02-.03.05-.05.07.41.41.8.85,1.23,1.24.28.26.61.47.94.69.38.26.77.52,1.17.73.79.4,1.6.77,2.41,1.16.4.19.78.4,1.19.56.54.21,1.09.38,1.64.56.44.14.87.31,1.32.42.53.13,1.04.29,1.49.6.16-.15.34-.15.52-.04.11.06.24.08.36.12.11.04.25.04.34.11.13.09.22.1.36.03.25-.13.43-.06.52.2-.03.04-.07.07-.09.09-.45-.08-.9-.14-1.35-.23-.32-.06-.64-.15-.96-.22-.05-.01-.1,0-.15,0-.1,0-.2-.02-.3-.03-.18-.02-.36-.02-.53-.07-.43-.12-.86-.25-1.29-.38-.03,0-.06-.04-.08-.03-.54.12-.96-.23-1.42-.4-.2-.07-.39-.16-.59-.24-.43-.17-.86-.35-1.29-.52-.22-.09-.46-.15-.68-.26-.36-.18-.7-.4-1.05-.57-.15-.08-.34-.08-.5-.15-.17-.07-.32-.16-.48-.26-.17-.1-.33-.23-.51-.31-.24-.1-.43-.24-.61-.45-.24-.29-.54-.55-.85-.79-.41-.31-.79-.63-1.04-1.09-.06-.12-.24-.2-.25-.31-.07-.45-.47-.48-.77-.62-.25-.12-.52-.19-.77-.3-.61-.28-1.23-.56-1.82-.87-.6-.32-1.2-.65-1.76-1.02-.34-.22-.62-.53-.93-.8-.2-.18-.42-.34-.61-.53-.36-.37-.74-.72-1.03-1.13-.24-.34-.37-.76-.53-1.15-.08-.19-.18-.3-.4-.35-.39-.09-.77-.23-1.14-.35.04-.1.05-.15.07-.19-.18,0-.25-.16-.36-.26-.14-.11-.24-.26-.38-.38-.17-.15-.36-.27-.54-.41-.35-.27-.73-.5-1.03-.81-.35-.36-.56-.82-.71-1.3-.09-.3-.23-.6-.3-.91-.13-.62-.24-1.26-.35-1.89-.05-.3-.11-.61-.14-.91-.03-.28-.04-.57-.07-.85-.02-.16-.07-.32-.07-.48,0-.21.02-.43.06-.64.09-.44.15-.89.31-1.3.3-.76.67-1.49,1.02-2.23.2-.43.43-.84.77-1.19.37-.38.7-.79,1.04-1.19.02-.03.05-.06.06-.09.11-.36.45-.48.7-.69.33-.27.66-.55,1-.82.09-.07.18-.19.27-.2.19-.03.16-.1.1-.2.15-.1.37-.17.44-.31.19-.38.56-.58.78-.93.25-.4.64-.68,1.02-.95.23-.16.48-.31.71-.46.15-.1.3-.2.44-.3.02.02.03.04.05.06-.25.23-.49.46-.74.69-.23.21-.41.49-.74.59-.04.1-.07.25-.15.37-.04.07-.17.07-.23.13-.26.27-.52.55-.77.82-.03.03-.08.07-.08.1,0,.23-.14.35-.34.43-.06.02-.05.18-.11.24-.14.13-.21.33-.46.36-.12.02-.21.28-.31.43-.03.04-.04.09-.07.13-.25.27-.58.5-.75.82-.23.44-.62.75-.82,1.2-.12.26-.33.42-.6.5h.22c-.28.41-.53.78-.78,1.14-.09.12-.15.22-.12.39.02.13-.09.28-.13.41-.01.15,0,.31-.04.46-.11.46-.19.93-.36,1.37-.23.6-.1,1.2-.11,1.8,0,.26.1.52.17.77.13.46.28.92.39,1.39.1.43.36.78.51,1.18.03.07.06.13.1.19.05.08.12.16.2.27,0,.02,0,.11.03.17.47.85,1.03,1.62,1.71,2.31.05.05.1.09.13.15.16.32.49.43.73.66.12.11.21.05.2-.11,0-.13-.04-.26-.06-.39-.08-.44-.21-.87-.25-1.32-.06-.59-.04-1.19-.08-1.78-.02-.29-.09-.58-.17-.86-.18-.7-.48-1.37-.48-2.1,0-.43.1-.87.19-1.3.05-.28.14-.55.25-.82.09-.21.22-.4.34-.59.07-.12.16-.24.23-.37.1-.19.18-.38.37-.53.16-.14.24-.39.33-.6.05-.1.05-.22.09-.32.05-.11.1-.2.24-.28.16-.08.25-.29.36-.44.13-.17.27-.34.42-.54.04.08.06.12.1.19.03-.03.07-.06.07-.08-.08-.42.26-.55.51-.75.06-.05.12-.1.16-.16.28-.38.56-.76.84-1.14.19.19.19.28.01.48-.4.46-.81.92-1.22,1.37-.19.21-.41.39-.58.61-.14.17-.24.39-.36.58-.11.17-.24.32-.33.49-.19.35-.37.7-.54,1.06-.15.3-.31.59-.42.9-.17.48-.32.97-.46,1.47-.08.29-.08.6-.15.89-.1.44.07.84.16,1.26.2.93.4,1.86.6,2.78.11.52.25,1.04.35,1.57.03.17.02.37-.03.54-.09.33.08.56.28.76.95.92,1.9,1.82,2.71,2.88.14.19.33.33.49.51.1.12.17.27.29.37.16.16.35.29.53.43.28.21.57.4.86.6.07.05.14.09.21.12.24.11.49.2.73.31.65.3,1.28.62,1.93.91.43.2.86.39,1.31.54.52.18,1.06.31,1.58.48.38.12.76.27,1.14.4.35.12.71.25,1.06.37.23.08.46.14.69.22.03,0,.06.04.08.06.1.11.18.27.35.08.01-.01.06,0,.08,0,1.01.33,2.03.68,3.04,1,.53.17,1.07.3,1.61.44.22.05.49,0,.65.11.27.19.57.21.87.28.55.12,1.11.22,1.66.32.46.08.93.1,1.37.22,1.06.3,2.15.37,3.24.38.26,0,.52.06.78.06.57.01,1.15,0,1.72.02.68.03,1.35.08,2.03.12.61.03,1.23.05,1.84.08.76.03,1.53.06,2.29.1.41.02.82.06,1.22.1.75.07,1.51.16,2.26.23.24.02.48-.02.72-.04,1-.08,2.01-.16,3.01-.24.23-.02.46,0,.68-.03.39-.04.78-.06,1.15-.14.73-.15,1.46-.34,2.18-.51.43-.1.86-.2,1.29-.31.21-.05.4-.13.61-.19.49-.13.98-.23,1.47-.37,1.09-.32,2.19-.64,3.27-.98.86-.28,1.72-.59,2.57-.9.3-.11.59-.26.89-.37.28-.11.55-.25.85-.33.34-.09.64-.31.97-.45.37-.16.74-.3,1.11-.45.1-.04.19-.11.28-.16.48-.24.97-.46,1.44-.71.45-.24.89-.5,1.32-.77.6-.37,1.18-.76,1.77-1.15.14-.1.25-.24.38-.35.23-.18.49-.34.7-.54.42-.41.82-.84,1.24-1.26.18-.18.22-.38.2-.63-.01-.27,0-.54.03-.8.02-.26.05-.51.08-.79.04.02.07.04.1.06.18-.4.35-.8.53-1.2.02-.05.06-.08.09-.12.09-.15.18-.29.26-.44.06-.11.09-.24.12-.34-.02-.06-.06-.16-.05-.18.25-.2.19-.5.24-.76.08-.44.11-.89.15-1.34.08-.81.14-1.63.22-2.44.02-.26.08-.53.1-.79.01-.14,0-.28-.02-.42-.04-.37-.09-.74-.14-1.11-.01-.08-.04-.16-.09-.22-.19-.21-.17-.51-.31-.72-.21-.31-.14-.76-.52-.98-.02-.01-.01-.08-.04-.11-.08-.13-.17-.26-.26-.38,0-.01-.03-.01-.04-.02-.26-.3-.58-.57-.74-.92-.15-.32-.44-.42-.64-.64-.13-.15-.29-.27-.41-.39-.02-.08-.01-.18-.05-.19-.38-.17-.58-.52-.88-.77-.22-.18-.45-.34-.66-.52-.16-.13-.31-.27-.47-.4-.1-.08-.21-.15-.32-.22-.22-.14-.44-.28-.65-.43-.03-.02-.02-.09-.02-.12-.19-.04-.37-.08-.62-.13.12-.05.18-.07.28-.11-.07-.03-.12-.04-.16-.06-.19-.09-.41-.15-.55-.28-.11-.11-.21-.15-.34-.12-.18.04-.32.04-.46-.12-.06-.07-.18-.11-.28-.13-.14-.03-.26-.04-.13-.27-.32.22-.54.01-.8-.05.07-.13.11-.23-.12-.24-.14,0-.32-.06-.33-.29-.15.03-.3.06-.48.09.09-.09.16-.15.23-.21l-.02-.04c-.07.02-.15.04-.24.06-.22-.29-.48-.52-.9-.49-.13,0-.25-.09-.28-.25-.45-.03-.74-.4-1.13-.6-.37-.19-.83-.26-1.11-.65-.12-.02-.24.01-.4-.13-.24-.21-.6-.3-.91-.41-.16-.06-.25-.14-.24-.31h0ZM72.36,11.24c.16.17.3.32.45.48.02-.25-.26-.55-.45-.48Z"/>
      <path class="cls-1" d="M54.02,23.93c.1.02.21.05.31.07.04,0,.09,0,.14,0,.04,0,.09-.03.13-.02,1.07.2,2.15.39,3.22.6.96.19,1.92.41,2.88.58.62.11,1.23-.03,1.82-.26.75-.28,1.5-.57,2.24-.87.45-.18.87-.44,1.32-.61.74-.27,1.5-.48,2.24-.73.42-.14.83-.33,1.26-.48.23-.08.47-.12.7-.17.11-.03.23-.04.35-.07,0,.06,0,.12.02.15.23.34.03.57-.19.81-.38.42-.74.85-1.1,1.28-.06.07-.09.18-.11.28-.07.34-.36.58-.76.59.18-.16.33-.3.52-.47-.37.18-.7.34-1.05.51.06.08.1.14.11.16-.23.03-.46.05-.69.11-.28.07-.55.16-.89.26.23.06.41.12.58.14,1.29.16,2.59.32,3.88.47.12.01.26.03.37-.02.34-.13.63,0,.93.12.28.11.36.31.2.56-.1.15-.28.24-.42.36-.01-.02-.03-.03-.04-.05.01.05.04.1.03.14-.07.2-.38.42-.58.37-.63-.14-1.27-.08-1.91-.08-.78,0-1.57.06-2.35.05-.56,0-1.11-.09-1.67-.12-.94-.06-1.88-.1-2.82-.15-.28-.02-.56-.07-.84-.06-.24.01-.46.03-.65-.15-.04-.03-.13-.02-.19-.01-.49.1-.98.2-1.47.32-.21.05-.39.19-.59.28-1.01.41-2.02.81-3.03,1.21-.11.04-.21.1-.27.14.41,0,.85,0,1.29,0,.33,0,.37.09.28.39-.07.24-.2.42-.45.46-.24.04-.33.17-.28.4.08.33-.12.5-.37.61-.24.11-.5.19-.75.29-.02,0-.04.01-.06.03-.51.54-1.18.64-1.87.67-.26.01-.53-.03-.79-.04-.04,0-.08,0-.11.01-.4.17-.73-.04-1.08-.19-.18-.07-.4-.05-.6-.06-.35-.02-.71-.03-1.01-.31.08-.04.15-.08.2-.11-.21-.09-.43-.2-.66-.29-.1-.04-.21-.03-.32-.03-.29,0-.59.1-.85-.11-.04-.03-.13.01-.19,0-.09-.02-.17-.06-.25-.09,0-.02.01-.04.02-.06.77-.03,1.54-.07,2.32-.1,0-.01,0-.03,0-.04-.31-.02-.62-.03-.96-.05.57-.28,1.16-.35,1.74-.47,1.23-.26,2.47-.47,3.65-.94.45-.18.87-.42,1.32-.62.16-.07.35-.09.52-.16.41-.16.81-.35,1.23-.49.24-.08.46-.2.76-.16.2.03.42-.16.64-.22.55-.15,1.1-.3,1.66-.41.34-.07.63-.21.92-.37.04-.02.06-.13.05-.18-.11-.35-.18-.69.13-1.03-.26.03-.48.07-.69.08-.29.02-.58.06-.85-.1-.03-.02-.08,0-.13,0-.29-.03-.6-.01-.87-.11-.2-.07-.38,0-.56-.07-.21-.07-.43-.1-.65-.14-.37-.07-.75-.13-1.12-.21-.12-.03-.33-.01-.28-.23-.13-.04-.26-.09-.4-.11-.09-.01-.19.03-.29.04-.16.01-.32.03-.43-.14-.01-.02-.07-.03-.1-.03-.27-.06-.55-.11-.82-.16-.05,0-.1-.02-.15-.02-.26,0-.34-.08-.39-.35h0ZM55.46,29.85c0-.1-.03-.17-.01-.24.04-.13-.03-.17-.13-.17-.25,0-.5,0-.74.06-.82.2-1.63.44-2.45.65-.24.06-.49.1-.74.14-.38.06-.76.1-1.16.15.01.09.02.17.03.28.23-.03.44-.05.66-.08.62-.08,1.25-.13,1.85-.26.81-.18,1.61-.42,2.45-.45.08,0,.16-.06.23-.08ZM63.26,26.72c-.53-.08-1.05-.08-1.57.06.1.07.21.11.32.1.34-.03.67-.11,1.02-.09.08,0,.16-.04.24-.07ZM65.29,25.58h-1.24c.41.14.82.29,1.24,0ZM65.7,24.31c.49-.07.95-.02,1.36-.26-.47-.02-.91,0-1.36.26ZM53.55,30.88s0-.04,0-.06l-1,.18c.36.07.7.06,1.01-.12ZM66.45,26.34s.01.07.02.1c.3-.06.61-.12.91-.18,0-.02,0-.05-.01-.07-.31.05-.61.1-.92.14ZM68.91,23.82c-.14.06-.28.12-.46.19.25.11.32.08.46-.19Z"/>
      <path class="cls-1" d="M31.39,25.63c.81-.14,1.57-.26,2.33-.39,0,.03.02.05.03.08-.37.19-.73.42-1.11.56-.49.17-1,.3-1.51.37-.33.05-.68-.03-1.01-.09-.12-.02-.24-.15-.32-.26-.06-.08-.1-.22-.07-.31.02-.06.17-.08.26-.12.03-.01.07-.02.12-.04-.21-.25-.01-.33.15-.43.12-.07.25-.12.36-.21.07-.05.11-.14.18-.23-.4-.04-.93-.5-.95-.72.62-.08,1.23-.14,1.85-.23,1.04-.15,2.07-.17,3.1.02,1.05.2,2.11.39,3.17.6,1.05.21,2.09.43,3.14.63.44.09.89.13,1.34.2.1.02.2.09.3.11.39.09.8.25,1.18.21.4-.03.73.18,1.13.15.41-.04.83.12,1.24.16.8.08,1.6.13,2.4.2.7.06,1.41.13,2.11.19.38.03.76.04,1.14.08.2.02.4.08.6.11.13.02.26,0,.39.01,1.15.06,2.3.16,3.45.17.97.01,1.94-.07,2.91-.14.31-.02.61-.14.92-.22.26-.07.32-.02.32.23-.57.15-1.13.36-1.71.44-.78.11-1.58.14-2.36.16-.56.02-1.12-.02-1.68-.04-.16,0-.31-.05-.47-.08-.03,0-.06-.03-.08-.02-.67.07-1.33-.09-2-.11-.68-.03-1.35-.1-2.03-.16-.56-.05-1.12-.12-1.68-.17-.63-.05-1.26-.05-1.88-.11-.73-.07-1.46-.17-2.19-.27-.74-.1-1.47-.21-2.2-.34-.26-.04-.51-.13-.76-.19-.06-.01-.13.02-.19,0-.22-.07-.43-.15-.64-.22.02.02.06.07.11.14-.42-.09-.81-.18-1.2-.25-.94-.17-1.88-.34-2.82-.51-.47-.08-.94-.17-1.41-.24-.15-.02-.31-.04-.46-.02-.09.01-.21.08-.23.15-.07.25-.26.38-.48.46-.07.03-.17-.02-.24-.01-.58.1-1.15.21-1.73.3-.29.05-.58.08-.82.36Z"/>
      <path class="cls-1" d="M37.31,11.82c.23.01.46,0,.69.04.62.12,1.23.27,1.86.38.57.1,1.15.15,1.72.23.68.09,1.36.2,2.04.29.61.08,1.23.15,1.84.24.49.07.98.17,1.48.23.88.1,1.7.46,2.56.64.05.01.1.05.14.13-.09.02-.18.05-.31.08.22.2.35.46.74.42.45-.05.91.02,1.36.03.09,0,.17-.02.26-.03.1.39-.06.67-.41.57-.24-.07-.41.05-.56.3.23.06.44.1.65.16.08.02.2.08.21.15.01.07-.08.16-.13.24.12.09.13.25-.01.5-.1.18-.2.37-.32.54-.04.06-.14.12-.22.12-.61.05-1.19-.12-1.77-.25-.37-.08-.72-.24-1.07-.36-.11-.04-.22-.06-.32-.12-.2-.1-.23-.35-.1-.53.02-.03-.01-.16-.05-.18-.11-.06-.24-.07-.36-.11-.27-.08-.38-.31-.37-.58,0-.1-.15-.3-.25-.31-.35-.03-.51-.3-.75-.48-.03-.03-.07-.07-.1-.08-.22-.03-.29-.14-.2-.36-.32-.04-.62-.08-.92-.13-.16-.03-.31-.09-.46-.14-.07-.02-.13-.07-.2-.07-.22,0-.43,0-.65,0-.12,0-.27.02-.33-.16-.01-.04-.19-.09-.23-.06-.16.13-.32.07-.45,0-.2-.1-.39-.05-.59-.07-.53-.05-1.05-.1-1.58-.15-.12-.21-.41,0-.55-.23-.03-.05-.17-.03-.25-.03-.71.03-1.34-.22-1.92-.59-.07-.05-.15-.08-.23-.12.02-.04.05-.07.07-.11ZM47.42,15.08c.33.01.58.24.91.16-.16-.21-.7-.32-.91-.16ZM51.26,16.01c-.15.02-.26.03-.43.05.24.21.29.2.43-.05Z"/>
      <path class="cls-1" d="M28.68,17.92c.11.02.19.03.26.05.41.09.81.21,1.22.28.54.08,1.1.11,1.64.18.8.11,1.59.23,2.38.35.22.03.44.06.66.09.57.1,1.14.21,1.71.31.73.13,1.45.25,2.18.38.66.11,1.32.2,1.97.34.84.18,1.67.41,2.51.61.24.06.49.09.73.13.06.01.12.05.18.07-.29.03-.57.09-.85.09-.23,0-.47.09-.69-.07-.01-.01-.06.01-.08.02-.05.01-.12.05-.14.03-.22-.23-.52,0-.79-.16-.21-.13-.52-.06-.79-.1-.09-.01-.17-.08-.26-.12-.02,0-.04-.03-.06-.03-.22,0-.44,0-.65,0-.18,0-.37,0-.54-.04-.29-.06-.6-.1-.87-.22-.23-.1-.47-.07-.7-.15-.13-.04-.27-.03-.41-.06-.22-.04-.43-.08-.65-.13,0,.03.02.09.05.22-.37-.25-.73-.32-1.17-.3-.17-.23-.5-.15-.79-.2-.44-.08-.88-.12-1.32-.18-.43-.06-.86-.13-1.28-.21-.23-.05-.46-.15-.69-.19-.52-.09-1.05-.16-1.57-.24-.05,0-.1,0-.21,0,.28.49.51.96.95,1.29,1.04.77,2.19,1.17,3.49,1.24,1.48.09,2.95.27,4.42.43,1.11.12,2.21.29,3.32.41.42.04.84.07,1.25.2.24.07.5.04.76.07.31.03.61.08.92.11.19.02.38.03.56.06.36.07.72.16,1.07.24.03,0,.06,0,.08,0,.2,0,.39.01.59.02.04,0,.09.03.12.02.18-.06.34-.02.53.05.26.09.56.09.84.14.13.02.25.07.37.09.13.02.25,0,.38,0,.07,0,.15.03.22.05.2.06.39.16.63.15.13,0,.26.09.39.15.06.02.14.09.16.08.24-.21.47-.03.69-.01v.31c-.62-.14-1.29-.25-1.92-.53,0,.02-.02.03-.03.05.02.05.05.1.07.15-.07,0-.15,0-.21-.03-.21-.08-.41-.18-.61-.25-.1-.04-.27-.09-.32-.05-.21.2-.42.05-.62.03-.32-.02-.64-.07-.96-.13-.12-.02-.24-.08-.36-.12-.02,0-.04-.02-.06-.02-1.06.04-2.11-.13-3.17-.24-.54-.06-1.08-.16-1.61-.23-.52-.07-1.05-.12-1.57-.18-.21-.03-.41-.09-.62-.13-.03,0-.07,0-.1,0-.13.01-.26.06-.38.04-.78-.13-1.56-.09-2.34-.18-.91-.11-1.83-.2-2.74-.33-.52-.07-1.05-.14-1.53-.33-.61-.25-1.18-.61-1.76-.93-.13-.07-.24-.16-.38-.26.26.98.56,1.94.1,2.92-.11.23-.23.45-.35.68-.03-.01-.06-.02-.08-.03.04-.18.03-.39.12-.55.45-.82.34-1.66.19-2.52-.06-.36-.18-.68-.39-.98-.21-.31-.36-.67-.54-1-.02-.03-.06-.05-.09-.07-.19-.15-.36-.3-.42-.6Z"/>
      <path class="cls-1" d="M41.9,2.41s.09-.13.13-.12c.17.01.34.06.51.07.17.01.35-.02.52,0,.3.03.61.06.9.13.16.04.29.08.46.06.2-.02.39.03.59.12.31.14.68.14,1.03.2.04,0,.1-.02.13,0,.19.14.4.18.63.19.21.01.42.11.63.15.13.03.28,0,.41.04.33.1.66.22.99.32.17.05.37.02.54.07.35.1.69.22,1.03.33.03,0,.05.04.08.04.5.1,1.01.19,1.51.31.29.07.55.21.84.31.15.05.31.06.47.09.12.02.24.05.3.06.07.08.1.18.16.19.46.14.93.26,1.39.39.09.03.18.09.27.12.36.14.72.28,1.09.41.44.15.89.29,1.33.45.41.14.85.26,1.23.46.67.34,1.37.63,1.94,1.15.22.2.48.37.72.55.4.31.81.6,1.28.81.24.11.45.3.67.45.65.45,1.3.9,1.95,1.34.33.22.73.38.98.66.25.28.62.38.82.73.19.33.57.55.86.82,1.12,1.03,2.13,2.13,2.63,3.6.21.6.39,1.23.44,1.86.07.83,0,1.67,0,2.51,0,.19,0,.38-.03.57-.02.13-.08.25-.14.41-.17-.17-.19-.29-.17-.47.04-.42.03-.85,0-1.28-.03-.48-.12-.95-.13-1.43-.02-.59-.18-1.13-.39-1.66-.31-.78-.6-1.56-1.14-2.21-.32-.38-.71-.7-1.06-1.06-.43-.44-.87-.88-1.28-1.35-.59-.67-1.33-1.16-2.03-1.7-.42-.33-.88-.61-1.32-.91-.1-.07-.22-.1-.33-.16-.57-.33-1.09-.75-1.6-1.16-.42-.33-.83-.68-1.27-.98-.28-.19-.6-.32-.9-.48-.07-.04-.16-.07-.21-.12-.25-.23-.57-.29-.87-.39-.3-.1-.6-.18-.9-.27-.04-.01-.08-.03-.12-.04-.78-.11-1.49-.43-2.21-.73-.14-.06-.31-.07-.43-.16-.44-.29-.96-.34-1.42-.54-.11-.05-.22-.09-.35-.11-.09-.03-.18-.07-.27-.1-.08-.03-.16-.06-.23-.09-.03-.01-.06-.06-.09-.06-.26.06-.46-.21-.67-.18-.22.03-.39-.03-.59-.06-.05,0-.09-.08-.14-.1-.05-.02-.12-.03-.17-.03-.09,0-.19.03-.28.02-.22-.03-.28-.17-.19-.38-.06.05-.11.11-.18.16-.03.03-.1.06-.13.04-.26-.14-.6-.05-.8-.33,0-.01-.05-.02-.06-.02-.31.14-.56-.14-.86-.14.09-.03.18-.06.27-.1,0-.01,0-.02,0-.04-.07.01-.15,0-.2.04-.31.19-.58.01-.85-.09-.17-.06-.32-.16-.5-.19-.25-.04-.49-.12-.74-.17-.14-.02-.28.01-.43,0-.12,0-.25-.02-.35-.07-.3-.15-.63-.17-.96-.22-.01,0-.03,0-.04,0-.16-.12-.32-.08-.51-.05-.16.03-.33-.03-.5-.07-.17-.04-.33-.12-.52-.13-.2,0-.4-.03-.62-.05.05-.04.09-.07.18-.13-.28-.03-.53.06-.71-.15h0Z"/>
      <path class="cls-1" d="M20.94,11.77s.03.02.04.02c.44-.31.91-.11,1.37-.08.78.06,1.56.18,2.34.25.73.07,1.47.08,2.2.17.7.08,1.39.21,2.08.33.38.07.77.14,1.13.27.29.11.59.13.89.16,0,0,.02,0,.02,0,.27.16.58.12.88.15.44.06.88.2,1.34.13.02,0,.05,0,.07,0,.21.05.41.12.62.17.23.06.46.05.7.06.32.02.63.11.94.18.12.02.23.06.35.09.14.04.29.08.44.12.09,0,.21-.04.32-.03.29.03.58.08.87.11.06,0,.12-.05.19-.06.17-.03.35-.16.48.07.02.04.13.07.18.05.44-.11.85.1,1.28.13.37.03.74.09,1.11.13.02,0,.05,0,.07,0,.34.12.69.04,1.03.11.4.08.8.18,1.2.27.03,0,.07,0,.1-.01.16-.04.3,0,.41.08.28.04.58.06.85.13.32.08.63.21.94.32.03.01.05.04.11.09h-.97c.17-.24-.02-.28-.11-.32-.08-.04-.2,0-.3.01,0,.03,0,.05,0,.08.07.04.14.09.24.15-.17,0-.3,0-.43,0,0,0-.02,0-.02,0-.26-.32-.57.08-.84-.08,0-.09.02-.21.04-.35-.05.05-.09.09-.13.12-.12.1-.21.2-.39.05-.08-.07-.28-.15-.44-.02-.05.04-.17.02-.23-.01-.23-.11-.52,0-.71-.22-.02-.02-.08,0-.12.01-.06,0-.13.04-.17.02-.3-.16-.61-.09-.92-.11-.09,0-.17-.1-.26-.15-.14.25-.34.04-.5.07-.07.01-.16-.04-.23-.02-.14.04-.24.03-.27-.13-.35.09-.67.17-.99-.04-.03-.02-.09.02-.13.04-.19.09-.35.14-.54-.03-.08-.07-.25-.09-.37-.07-.31.05-.62.11-.9-.1-.04-.03-.14-.02-.17.01-.14.14-.27.08-.39-.02-.12-.11-.21-.19-.37-.06-.06.05-.19.06-.28.05-.22-.04-.44-.1-.66-.15-.45-.1-.9-.19-1.35-.29-.14-.03-.27-.09-.41-.13,0-.02.01-.04.02-.06-.28,0-.56.02-.83,0-.14-.02-.34.05-.44-.14-.02-.04-.16,0-.25,0-.06,0-.14.03-.17,0-.2-.16-.42-.12-.65-.13-.17,0-.34-.1-.51-.14-.16-.04-.32-.05-.48-.08-.25-.05-.5-.12-.74-.16-.26-.05-.51-.08-.77-.12-.04,0-.11,0-.13-.02-.1-.18-.24-.08-.37-.09-.44-.03-.88-.09-1.32-.13-.2-.02-.4-.02-.6-.05-.55-.07-1.1-.17-1.66-.24-.46-.06-.92-.07-1.38-.14-.3-.04-.58-.15-.88-.22h0ZM21.7,11.83s0-.05,0-.08c-.17-.01-.34-.02-.52-.03v.06c.17.02.34.04.51.05Z"/>
      <path class="cls-1" d="M39.76,7.58c.13-.24.25-.27.55-.11.05.03.13.02.19.02.19-.01.37-.03.56-.05,0,0,.02,0,.02,0,.38-.12.74.09,1.11.08.15,0,.3-.05.45-.04.8.08,1.6.15,2.4.25.95.13,1.85.47,2.75.79.23.08.48.12.72.18.14.04.29.06.42.13.22.12.43.27.65.4,0,.02-.01.04-.02.06-.16-.04-.33-.07-.49-.11-.42-.11-.83-.23-1.25-.33-.49-.11-.99-.19-1.48-.3-.11-.02-.21-.11-.35-.2-.18,0-.43,0-.68,0-.04,0-.1-.01-.1-.03-.04-.18-.16-.12-.27-.11-.23.03-.44.02-.66-.1-.18-.1-.4-.07-.61-.06-.32.02-.64-.04-.96-.05-.61-.02-1.23-.01-1.84-.03-.44-.01-.89-.04-1.33-.05-.25,0-.5.02-.75,0-.19,0-.39-.05-.58-.08-.04,0-.09-.03-.12-.01-.26.15-.52.08-.79.06-.2-.02-.41.02-.61.02-.68,0-1.35,0-2.03,0-.07,0-.14-.04-.21-.06.1-.18.18-.2.36-.11.16-.05.28-.12.41-.13.34-.03.68-.05,1.03-.07.11,0,.21.02.32.03.04,0,.1.04.13.02.18-.13.36-.06.54,0,.04.01.09-.01.13-.02.12-.04.24-.1.36-.11.35-.02.71,0,1.06-.02.21,0,.41-.06.62-.05.12,0,.23.1.37.16Z"/>
      <path class="cls-1" d="M22.96,3.73c-.02.09-.02.08-.36.11-.16.01-.32.03-.48.06-.15.02-.3.05-.49.09.03-.06.05-.1.1-.2-.24.15-.51.03-.65.3-.01.03-.06.04-.09.05-1.31.37-2.53.93-3.71,1.6-.75.43-1.48.91-2.22,1.36-.25.15-.52.25-.77.38-.02-.03-.04-.06-.06-.09.07-.07.14-.15.22-.2.78-.51,1.54-1.06,2.36-1.51.76-.43,1.57-.76,2.37-1.13.73-.33,1.48-.62,2.28-.73.38-.05.77-.08,1.16-.11.11,0,.22.02.35.04Z"/>
      <path class="cls-1" d="M39.3,2.21c-.04-.05-.07-.09-.1-.12.02,0,.04-.02.06-.02.25-.01.5-.03.75-.04.04,0,.08-.01.11,0,.23.12.45.24.67.41-.19-.04-.39-.07-.58-.11-.03,0-.07-.06-.09-.05-.46.16-.93,0-1.39.04-.29.03-.57.03-.86.04-.14,0-.28-.03-.39-.04-.16.03-.31.08-.46.09-.36,0-.72-.04-1.07-.02-.43.02-.86.09-1.29.14-.31.03-.61.08-.92.1-.07,0-.15-.04-.2-.06-.02.04-.03.1-.05.11-.13.03-.27.04-.29-.15.27-.04.54-.08.82-.12.36-.05.71-.13,1.07-.16.56-.06,1.11-.09,1.67-.14.23-.02.46-.07.7-.07.26,0,.52.02.79.03.3,0,.62-.06.89.16.03.02.09,0,.17,0Z"/>
      <path class="cls-1" d="M15.63,2.05c.03.09.05.17.07.23-.3.19-.62.37-.91.58-.41.28-.79.61-1.21.87-.44.28-.91.52-1.38.77-.3.16-.6.3-.9.45-.1.05-.21.08-.32.12-.01-.02-.03-.05-.04-.07.24-.17.48-.36.74-.52.48-.3.98-.59,1.46-.89.33-.2.64-.43.96-.64.16-.1.35-.31.48-.28.27.08.2-.24.39-.25.16,0,.31-.14.46-.23.07-.04.14-.09.21-.14h0Z"/>
      <path class="cls-1" d="M59.57,3.99c-.41.06-.78,0-1.04-.37-.02-.03-.09-.06-.11-.04-.23.19-.47-.03-.7,0-.06.01-.14-.1-.24-.18-.1.04-.23.1-.35-.08-.03-.04-.15-.01-.22-.03-.31-.07-.61-.16-.92-.22-.17-.03-.38.05-.49-.16-.05-.09-.1-.18-.17-.32.21-.02.39-.04.58-.06-.02.37.32.16.46.34,0,.01,0,.06,0,.09.43-.07.84.06,1.26.09v.23s.05.01.07.02c.03-.09.05-.17.07-.24.07.05.19.1.27.19.1.11.17.1.3.07.11-.03.25.06.38.1.1.03.21.06.31.1.24.1.48.22.72.33-.05.04-.11.09-.17.14,0,0,0,0,0,0Z"/>
      <path class="cls-1" d="M28.88.16c-.1.08-.15.13-.21.18.01.02.03.04.04.06.11-.07.22-.14.37-.23.14,0,.33,0,.52,0,.04,0,.08.04.12.06-.02.04-.04.11-.07.12-.12.04-.24.09-.36.1-.17.02-.35,0-.53,0-.17.01-.33.03-.44-.15-.03-.04-.13-.04-.2-.06-.02.03-.04.06-.05.1.05.03.11.06.19.1-.06.03-.09.05-.12.05-.29,0-.57,0-.86,0-.23,0-.46.03-.69.05-.03,0-.07.02-.09,0-.23-.14-.45-.04-.67.02-.25.07-.37-.07-.56-.28.23-.01.4-.02.58-.04.17-.01.35-.02.52-.03.04,0,.08-.02.11,0,.28.16.58.03.87.09.06.01.13-.05.2-.08.07-.03.14-.06.23-.04-.07.05-.13.09-.2.14,0,.02.02.04.03.06.19-.08.38-.19.59-.23.2-.04.42,0,.69,0Z"/>
      <path class="cls-1" d="M33.05.31V.06c.27.02.52.03.77.05,0,.01,0,.02.01.04-.05.02-.1.05-.14.07,0,.01,0,.03.01.04.06-.02.14-.02.19-.06.2-.18.31-.19.48-.06.17-.02.3-.05.43-.05.39,0,.77,0,1.16,0,.18,0,.36-.04.54-.04.1,0,.2.04.33.07-.18.23-.35.15-.52.12-.07-.01-.14.01-.21.03-.04,0-.09.06-.11.04-.31-.2-.67-.01-1-.14.07.06.14.11.21.17-.23.12-.53.09-.72-.07-.03-.02-.1-.04-.11-.03-.03.04-.04.09-.07.18-.12-.04-.25-.08-.41-.13-.18.18-.38-.05-.59-.07-.09.23-.4.27-.6.05.12.01.22.02.34.03Z"/>
      <path class="cls-1" d="M55.21,2.48c-.14,0-.24.01-.33.02,0,.02,0,.03-.01.05.14.07.29.14.44.22-.25.1-.45.04-.63-.14-.04-.04-.17-.04-.24,0-.27.11-.7-.01-.86-.25-.02-.03-.05-.05-.08-.07-.13-.05-.26-.12-.4-.14-.11-.02-.23.04-.34.03-.05,0-.1-.06-.15-.1.04-.04.07-.11.11-.12.25-.04.49-.07.72.09.11.08.27.08.44.12,0-.02,0,.01,0,.05,0,.03,0,.07-.01.1.03,0,.06-.02.09-.02.22,0,.43.02.65.03.17,0,.33.01.5.03.03,0,.06.06.11.12Z"/>
      <path class="cls-1" d="M49.83,1.47c-.06-.07-.1-.14-.13-.14-.11,0-.23.05-.34.06-.14,0-.29,0-.43-.01.04-.29.21-.28.37-.25.44.08.88.16,1.32.25.25.05.49.15.73.2.12.02.24,0,.37-.01.08,0,.15-.02.23.02l-.24.02s0,.03,0,.05c.07,0,.15.01.22.02.14.02.3,0,.43.06.07.03.09.17.14.26-.06,0-.15.04-.16.02-.1-.19-.26-.18-.45-.19-.18,0-.36-.07-.49-.1-.06.04-.12.1-.14.09-.09-.05-.18-.12-.26-.19-.04-.03-.06-.08-.09-.13-.04.05-.07.11-.11.16-.32-.09-.64-.27-.95-.19Z"/>
      <path class="cls-1" d="M32.37,2.74c-.12.05-.21.1-.3.12-.77.13-1.54.26-2.31.38-.09.01-.2-.02-.32-.04-.13.16-1.28.29-1.43.1.09-.03.18-.06.27-.09.02.18.1.1.18.06.07-.03.14-.08.21-.08.36.02.69-.07,1.04-.14.23-.05.47-.02.71-.04.1,0,.2-.04.3-.04.21,0,.42-.19.64-.04.03.02.09,0,.12-.02.15-.12.36-.1.51-.16.32-.12.65-.06.96-.17.06-.02.14.05.21.11-.27,0-.53.19-.77.04Z"/>
      <path class="cls-1" d="M25.3.62c-.15,0-.31,0-.46,0-.17,0-.34,0-.51,0-.17,0-.35.09-.46-.02-.14,0-.25.03-.33,0-.12-.04-.19-.04-.32.02-.18.08-.4.08-.61.11-.07,0-.14-.02-.27-.03.14-.07.22-.15.32-.16.39-.05.79-.06,1.19-.1.2-.02.4-.07.6-.09.19-.02.38-.03.56,0,.11.02.19.13.29.2,0,.02,0,.05,0,.07Z"/>
      <path class="cls-1" d="M48.03,1.2c-.03-.08-.06-.13-.1-.22-.07.06-.12.11-.14.13-.12-.04-.24-.1-.36-.11-.17-.02-.34,0-.52,0,.02-.11.03-.15.05-.24-.12.08-.2.13-.28.19-.06-.15-.1-.19-.27-.12-.14.07-.35,0-.52-.04.21-.18.44-.19.69-.14.18.04.37.09.55.13.31.07.62.13.94.19.21.03.43.04.64.07.05,0,.09.04.17.08-.1.08-.16.15-.24.18-.12.05-.24.07-.31-.1-.06-.14-.19-.13-.27.02Z"/>
      <path class="cls-1" d="M39.93.4c-.24-.06-.48-.11-.73-.17-.08.18-.17.22-.4.14-.03-.01-.08-.04-.1-.03-.24.11-.49-.02-.74.02-.07,0-.14-.07-.22-.11,0-.03,0-.06.01-.09.23-.03.45-.07.68-.1.05,0,.13.02.15.06.09.21.15.1.24,0,.1-.11.2-.16.37-.07.1.05.25.03.38.03.19,0,.32.07.39.25-.01.03-.02.05-.03.08Z"/>
      <path class="cls-1" d="M20.65.96c.22-.28.49-.31.7-.03-.46.03-.86.37-1.32.07-.13.18-1.04.35-1.2.21.3-.08.61-.15.9-.24.3-.1.6-.11.92,0Z"/>
      <path class="cls-1" d="M51.66,23.54c.27.01.49,0,.71.04.19.04.36.14.54.22.03.02.04.1.05.15-.06.01-.12.03-.17.03-.03,0-.06-.02-.08-.04-.2-.26-.46-.18-.72-.13-.03,0-.06,0-.09,0-.11-.02-.21-.04-.35-.07.05-.09.08-.16.1-.2Z"/>
      <path class="cls-1" d="M41.9,2.4s.02.08.04.16c-.25-.03-.48-.07-.71-.08-.25,0-.41-.14-.54-.35.22.02.44.03.66.06.05,0,.09.06.14.09.05.03.11.14.14-.02.04.01.09.02.13.04.06.03.11.06.16.1,0,0,0,0,0,0Z"/>
      <path class="cls-1" d="M15.63,2.05c.17-.08.34-.15.51-.23.07-.03.14-.06.24-.11-.03.11-.04.17-.07.27.12-.04.21-.07.34-.11-.08-.06-.13-.09-.17-.12v-.06c.05,0,.16-.04.17-.02.03.07.04.16.05.24-.15.07-.32.15-.49.24-.23.13-.42.04-.6-.1,0,0,0,0,0,0Z"/>
      <path class="cls-1" d="M40.82.25c.39-.23.8-.18,1.22-.06-.1.29-.18.28-.45.2-.17-.05-.34-.06-.49-.18-.04-.03-.17.06-.26.1,0-.02-.01-.04-.02-.06Z"/>
      <path class="cls-1" d="M30.88.23c.13,0,.26,0,.38,0,.14,0,.29-.03.43-.04.05,0,.09-.03.13-.04.06-.01.13-.02.22-.03-.04.1-.06.17-.08.22-.28.03-.55.07-.82.07-.09,0-.18-.12-.27-.19h0Z"/>
      <path class="cls-1" d="M30.89.22s-.08.06-.11.1c-.03.03-.05.06-.08.1-.13-.08-.27-.28-.54-.12.07.03.13.05.19.07-.01.01-.03.03-.04.04-.19.03-.39.06-.57.09.1-.1.2-.22.32-.3.08-.06.21-.11.3-.09.18.04.38-.06.53.11,0,0,0,0,0,0Z"/>
      <path class="cls-1" d="M27.84,3.43l-1.63.21s0-.07-.01-.11c.26-.02.53-.04.79-.07.1-.01.19-.07.3-.08.18-.02.37-.03.55-.04,0,.03,0,.07,0,.1Z"/>
      <path class="cls-1" d="M54.02,23.93c-.16.01-.33.02-.49.03-.03,0-.08-.01-.1,0-.23.11-.35.02-.35-.28.32.08.63.16.94.25,0,0,0,0,0,0Z"/>
      <path class="cls-1" d="M44.92.63s-.02-.09-.03-.13c.09,0,.21.03.26-.01.1-.09.14-.04.21.03.08.08.17.13.25.23-.2,0-.42.12-.58-.1-.01-.02-.07,0-.1,0,0,0,0-.01,0-.01Z"/>
      <path class="cls-1" d="M22.17.87c-.05-.03-.11-.06-.11-.06-.17.05-.3.09-.43.12-.22.05-.16-.2-.35-.26.17-.06.28-.09.45-.15-.06.1-.08.14-.11.19.11.01.22.02.32.03.09.01.17.04.26.06,0,.03-.02.05-.03.08Z"/>
      <path class="cls-1" d="M24.49,3.69c.53-.04,1.05-.08,1.58-.12,0,.03,0,.06,0,.1-.53.03-1.05.06-1.58.1,0-.02,0-.05,0-.07Z"/>
      <path class="cls-1" d="M44.39.67c-.06,0-.13-.02-.18,0-.12.05-.24,0-.22-.13.01-.08.09-.18.16-.23.05-.03.18-.02.21.01.05.06.04.16.05.24,0,.03-.01.07-.02.11,0,0,0,0,0,0Z"/>
      <path class="cls-1" d="M42.43.28c.16,0,.32,0,.47,0,.06,0,.11.06.15.11.02.02-.01.11-.02.11-.07,0-.14,0-.2-.02-.05-.02-.09-.07-.15-.12-.02.06-.03.11-.05.18-.08-.09-.14-.17-.21-.26Z"/>
      <path class="cls-1" d="M43.72.68c-.23-.12-.41-.21-.64-.33.31-.1.64.06.64.33Z"/>
      <path class="cls-1" d="M24.15,3.66s.06.05.13.11h-.97s0-.04,0-.07c.27-.02.53-.03.84-.05Z"/>
      <path class="cls-1" d="M37.51.31h-.59c.09-.21.09-.2.28-.16.06.01.14-.02.21-.04.04.08.07.15.09.2Z"/>
      <path class="cls-1" d="M21.96.44c.16-.03.33-.05.52-.08-.13.3-.3.34-.52.08Z"/>
      <path class="cls-1" d="M18.14,1.41c.07-.1.14-.22.3-.14.03.12-.31.03-.05.23-.14,0-.25.02-.35.02-.04,0-.08-.05-.1-.09,0-.02.05-.08.07-.09.04,0,.08.04.13.07Z"/>
      <path class="cls-1" d="M40.77.11c-.16.1-.31.19-.48.3-.04-.31,0-.35.23-.31.08.01.16,0,.24.01Z"/>
      <path class="cls-1" d="M44.92.63s0,.01,0,.01c-.02.04-.05.12-.06.11-.15-.02-.3-.06-.46-.09,0,0,0,0,0,0,.17-.01.35-.03.52-.05Z"/>
      <path class="cls-1" d="M17.24,1.59c.17-.02.33-.03.51-.05-.18.19-.38.21-.51.05Z"/>
      <path class="cls-1" d="M32.18.16c.13.01.25.02.39.03,0,.06-.02.14-.03.22-.11-.08-.22-.16-.36-.26Z"/>
      <path class="cls-1" d="M20.95,11.77c-.08,0-.17.02-.27.02.09-.18.1-.19.35-.15-.03.04-.06.09-.09.13,0,0,0,0,0,0Z"/>
      <path class="cls-1" d="M23.91,26.3c.07-.09.14-.18.2-.27.05-.07.1-.15.15-.22.22-.32.17-.54-.16-.75-.14-.09-.27-.2-.38-.32-.18-.2-.16-.29.08-.45.01,0,.03,0,.04.02.09.32.26.59.52.81.34.3.15,1.1-.45,1.18Z"/>
      <path class="cls-1" d="M60,13.41c-.29-.04-.64-.06-.98-.14-.46-.11-.67-.45-.73-.89-.04-.31-.06-.61.23-.85.11-.1.17-.27.23-.42.11-.3.17-.33.45-.2.29.13.57.27.86.4.43.19.76.44.73.98-.01.18.07.37.04.55-.06.43-.26.57-.83.58Z"/>
      <path class="cls-1" d="M56.31,14.55c.14.1.27.2.41.3.18.13.34.29.62.18.03.43.03.84.09,1.23.06.39.19.78.28,1.17-.16.03-.36-.1-.41-.28-.07-.25-.12-.5-.2-.75-.05-.14-.15-.25-.23-.38-.02-.04-.04-.08-.06-.13-.03-.13-.03-.28-.23-.29-.03,0-.08-.06-.09-.1-.02-.11-.03-.22-.02-.33.02-.2-.04-.32-.21-.45-.12-.09-.19-.31-.19-.48-.02-.4-.05-.81.04-1.18.05-.25.05-.5.11-.74.03-.13.13-.25.2-.39-.09-.1.05-.65.29-.89.24.36-.01.71-.03,1.05-.24.12-.06.32-.1.49-.08.35-.16.7-.23,1.05-.06.31-.1.62-.15.93.03,0,.07,0,.1-.01Z"/>
    </g>
  </g>
</svg>