<?xml version="1.0" encoding="UTF-8"?>
<svg id="Layer_2" data-name="Layer 2" xmlns="http://www.w3.org/2000/svg" viewBox="0 0 77.44 97.79">
  <defs>
    <style>
      .cls-1 {
        fill: #000;
        stroke-width: 0px;
      }
    </style>
  </defs>
  <g id="illustrations">
    <g>
      <path class="cls-1" d="M24.6,54.96c-.08-.13-.19-.24-.24-.38-.1-.33-.16-.68-.26-1.02-.07-.25-.17-.5-.28-.74-.05-.09-.18-.18-.29-.2-.23-.05-.31-.12-.29-.37-.42.15-.38-.33-.66-.47,0,.18-.02.33,0,.48.13.88.29,1.76.41,2.65.09.7.13,1.4.21,2.1.08.74.19,1.49.28,2.23.08.69.14,1.39.23,2.08.09.71.23,1.42.29,2.14.07.88.08,1.77.12,2.66.02.46.07.92.09,1.38.04,1.31.09,2.61-.07,3.92-.04.3-.01.61-.02.92,0,.06-.01.14-.04.19-.03.05-.09.08-.14.12-.04-.05-.08-.09-.11-.14-.19-.4-.09-.81-.06-1.22.04-.45.07-.9.06-1.35,0-1.25-.02-2.5-.06-3.74-.01-.5-.1-.99-.13-1.49-.02-.38-.02-.76-.02-1.14,0-.13.02-.27-.18-.28.18-.27.15-.37-.11-.41.1-.11.29-.22.03-.37.07-.07.14-.13.21-.19,0-.01-.02-.03-.03-.04-.04.01-.08.02-.16.05-.02-.13-.03-.26-.05-.43-.1-.07-.13-.23-.03-.4.02-.04.02-.1.02-.15-.11-.79-.24-1.58-.32-2.38-.14-1.34-.25-2.69-.4-4.03-.04-.35-.16-.68-.22-1.02-.04-.22-.04-.45-.07-.67-.05-.38-.12-.75-.17-1.13-.06-.46-.14-.92-.15-1.38,0-.24-.19-.26-.3-.38-.04.05-.12.11-.11.16.02.32.07.64.1.97.02.26.03.52.03.78,0,.26-.02.53-.02.79,0,.04.04.09.05.13.02.09.07.19.04.26-.1.22-.06.43.01.64.01.04.03.1.01.12-.17.23-.05.48-.04.73,0,.08.05.16.08.24,0,.03.04.06.03.08-.16.6.03,1.19.03,1.78,0,.72.15,1.42.26,2.13.11.69.2,1.38.28,2.07.07.59.04,1.2.17,1.77.11.52.02,1.04.14,1.54.02.1.12.18.12.28,0,.22.08.44-.11.65-.08.09-.26.27-.11.46.08-.02.15-.03.23-.05-.12.16-.21.29-.3.42-.03.04-.02.1-.03.15.04,0,.1.03.11.01.02-.03.03-.08.03-.12,0-.14.05-.21.22-.21,0,.09,0,.18,0,.26,0,.03-.03.05-.02.08.03.15.09.3.09.45.02,1.26.02,2.52.03,3.78,0,.21-.03.42-.02.63,0,.14-.08.1-.16.1-.05-.12-.11-.25-.16-.37-.02.01-.05.02-.07.03,0,.16.02.31.03.5.1-.09.15-.13.2-.17.21.14.12.36.13.55,0,.17-.03.33-.03.5,0,.07.03.14.05.21.03,0,.06,0,.1,0,.02-.21.05-.42.07-.62.02,0,.04,0,.06,0,.01.07.02.15.04.22.03.22.07.45.1.67.01.12,0,.24-.17.26-.04-.11-.08-.22-.12-.33-.03,0-.05.01-.08.02-.02.29-.03.58-.05.88.03,0,.06.01.09.02.02-.14.04-.28.08-.42.01-.06.06-.11.09-.17.05.15.13.29.13.44,0,.38-.04.76-.09,1.13-.01.1-.15.17-.21.24.02.28.04.56.05.84.01.24.01.47.03.71.02.19-.14.37-.02.56,0,0-.06.05-.08.06.02.06.08.15.06.19-.09.22,0,.28.2.3.04,0,.08.02.12.03,0,.02,0,.03,0,.04-.09.1-.4,0-.29.29.05.15-.06.34.14.44.02,0,.02.07.01.1-.23.6-.07,1.15.22,1.69.08.15.09.33.13.5.02.08.05.16.06.25,0,.05-.02.09-.03.14,0,.04-.01.08,0,.11.06.12.16.23.18.36.01.07-.08.17-.11.23-.04.11-.07.2-.09.29-.01.04-.03.08-.03.12.02.5.01,1.01.16,1.5.1.32.14.66.19,1,.02.18-.03.37-.02.55,0,.2.04.39.05.59,0,.09-.03.17-.02.26.02.11.06.22.1.39-.1.12-.05.28.1.42-.05.11-.09.22-.13.32.06.06.16.12.15.17,0,.07-.09.14-.14.22.19.07.21.2.18.42-.05.35-.03.71,0,1.06.06.52.18,1.04.24,1.56.06.56.09,1.13.12,1.7.02.4.02.79.05,1.19.04.58.08,1.16.13,1.75.02.18.08.36.08.54.01.37,0,.74,0,1.1,0,.09,0,.18.04.26.14.4.05.53-.4.52.01-.1.04-.2.04-.29,0-.09-.02-.19-.03-.29-.06-.01-.11-.02-.18-.03,0-.05.02-.1.02-.15,0-.1.06-.24.01-.31-.2-.27-.14-.6-.22-.9-.08-.02-.16-.04-.23-.06,0-.33,0-.65,0-.97,0-.09-.02-.2-.07-.27-.1-.13-.06-.21.04-.27-.13-.33-.11-.66-.06-.99.02-.12.01-.24,0-.36-.01-.15-.05-.29-.06-.44-.02-.3-.03-.61-.05-.91-.01-.16-.05-.31-.08-.47,0-.04-.03-.07-.03-.1-.06-.58-.14-1.15-.18-1.73-.03-.46.02-.92,0-1.38-.04-.75-.12-1.51-.18-2.26-.04-.46-.06-.92-.1-1.38-.01-.15-.04-.3-.07-.45.08.05.14.08.2.12.01-.01.03-.02.04-.04-.04-.08-.08-.16-.11-.25-.06-.19-.15-.36-.08-.59.07-.24.1-.5.03-.77-.07-.27-.01-.57-.02-.85-.01-.37-.03-.74-.06-1.1,0-.05-.09-.09-.18-.18.03.71.06,1.35.09,1.99l-.05.03c-.03-.06-.09-.11-.09-.17,0-.16.02-.32,0-.48-.01-.2-.06-.39-.08-.59-.05-.48-.09-.97-.12-1.45-.02-.35-.01-.69-.02-1.04,0-.22-.03-.44-.03-.67,0-.09.04-.18.07-.28-.02-.07-.07-.16-.07-.25,0-.21.03-.42.04-.63,0-.23,0-.46.01-.69,0-.14.03-.27.04-.41-.08-.02-.14-.03-.19-.04.19-.33.14-.68.09-1.02-.03-.23.01-.3.31-.29-.05-.07-.07-.16-.12-.18-.2-.07-.17-.23-.17-.38-.02-.43-.04-.86-.05-1.29,0-.22.01-.43,0-.65,0-.17-.06-.33-.07-.5-.02-.21.01-.42-.06-.63-.05-.14,0-.31.02-.47,0-.09.04-.18.06-.29.04.04.08.08.16.17v-.66s-.02,0-.02,0c-.01.13-.03.25-.04.39-.19-.05-.19-.17-.14-.28.13-.28.03-.56.01-.84-.01-.19-.03-.39-.02-.58,0-.39.03-.79.03-1.18,0-.6,0-1.21,0-1.81,0-.23-.03-.45-.04-.68-.03-.54,0-1.09-.1-1.62-.05-.29-.04-.56-.09-.84-.02-.11-.1-.21-.11-.34.05.08.09.15.15.24-.1-.49-.19-.96-.28-1.43-.01-.06-.06-.11-.08-.16-.02-.05-.03-.12,0-.15.16-.18.07-.3-.1-.41.16-.21.15-.42-.01-.62-.01-.02-.02-.04-.02-.06-.02-.32-.04-.64-.07-.95,0-.1-.06-.19-.07-.29-.01-.09.01-.17,0-.26-.03-.49-.06-.97-.1-1.46-.03-.31-.1-.62-.11-.93,0-.41,0-.82.04-1.23.04-.44-.02-.85-.19-1.27,0,.04-.03.09-.02.13.02.25.05.51.08.76,0,.02-.02.04-.01.06.06.19-.3.21-.16.47.07.13-.02.35-.02.53,0,.19.01.38.03.57,0,.05.05.11.05.16,0,.07-.02.14-.03.21-.06-.03-.17-.05-.18-.1-.04-.11-.03-.23-.04-.34,0-.04-.03-.08-.05-.14-.07.04-.12.08-.17.11.18.5.02.96-.1,1.42-.08-.04-.16-.09-.23-.13.07.18.14.34.19.51.01.03-.04.12-.08.13-.16.05-.12.17-.08.27.06.11.12.19.02.32-.02.03.03.11.06.19-.03,0-.07.02-.11.03.03.09.06.17.1.27-.07,0-.13.02-.2.03,0,.03.01.05.02.07.02.04.07.08.07.11-.04.24-.1.47-.14.71,0,.06.07.12.13.2-.13.31-.13.33.14.58-.07.03-.14.05-.21.08-.03.29-.06.6-.08.9,0,.04,0,.09.02.13.09.19.05.34-.13.45.12.24-.01,1.65-.14,1.74,0,.13,0,.25,0,.36-.02.39-.04.78-.06,1.16-.04.64-.09,1.28-.12,1.92-.01.18.02.36,0,.53-.03.31-.08.62-.12.92-.02,0-.04,0-.06,0-.02-.03-.05-.07-.05-.1,0-.33-.02-.66,0-.99.02-.33.07-.67.11-1,.01-.09.06-.17.09-.25.01-.05.03-.11,0-.15-.16-.29-.05-.6-.04-.9,0-.27.08-.54.05-.81,0-.06.04-.12.05-.18,0-.04-.02-.08-.04-.12-.02,0-.04,0-.05,0-.05.34-.07.69-.15,1.03-.12.5-.26,1-.43,1.49-.14.4-.36.78-.5,1.19-.16.45-.23.94-.4,1.38-.1.27-.2.54-.27.82-.04.14-.17.26-.26.39-.08.13-.15.26-.24.39-.07.1-.17.28-.21.27-.13-.04-.29-.13-.34-.24-.11-.24-.22-.51-.22-.77.01-.66.11-1.31.13-1.97.02-.55.15-1.07.32-1.59.2-.62.46-1.23.64-1.86.19-.66.33-1.34.46-2.01.08-.4.06-.81.13-1.21.09-.51.22-1.02.34-1.52.07-.31.18-.62.24-.93.04-.22.03-.45.04-.68.01-.19.04-.39.04-.58,0-.25-.06-.5-.03-.74.06-.46.16-.92.24-1.38.12-.66.49-1.23.73-1.85.09-.23.19-.46.16-.72-.02-.15.04-.32.07-.47.05-.25.09-.5.14-.75.02-.11.08-.2.11-.31.02-.06.01-.12.02-.18-.07,0-.15-.02-.19,0-.19.12-.4.23-.56.39-.42.42-1,.6-1.46.95-.24.18-.56.27-.75.48-.22.25-.51.38-.76.58-.13.11-.28.19-.4.3-.12.11-.23.24-.32.37-.09.14-.22.22-.34.25-.08.2-.14.4-.25.58-.17.28-.38.53-.57.8-.03.05-.01.13-.02.2-.06.06-.15.14-.22.23-.12.14-.25.28-.35.44-.12.19-.21.39-.33.58-.12.19-.26.36-.4.54-.02.03-.06.05-.07.08-.17.51-.58.85-.85,1.29-.17.28-.36.55-.55.82-.15.22-.29.44-.45.65-.23.29-.46.58-.72.84-.18.18-.4.32-.63.5.12-.21.2-.38.3-.54.16-.24.41-.47.46-.73.05-.26.25-.27.36-.4.02-.03.07-.05.07-.08.05-.46.5-.69.64-1.11.04-.11.24-.16.36-.24.05-.03.13-.07.14-.12.13-.58.39-1.1.76-1.57.12-.16.24-.32.38-.46.04-.04.14-.02.22-.02-.07-.12-.13-.29.14-.34.02,0,.02-.07.03-.1.07-.13.15-.26.23-.4.02,0,.04.02.06.02-.06-.09-.12-.18-.19-.3-.11.11-.24.22-.36.35-.23.25-.42.54-.68.76-.59.5-1.02,1.12-1.48,1.73-.07.1-.18.17-.26.26-.12.15-.22.3-.33.45-.4.58-.83,1.15-1.2,1.74-.32.51-.58,1.04-.86,1.57-.2.37-.39.74-.57,1.11-.21.44-.41.89-.63,1.35.28,0,.48-.06.57-.34.05-.15.14-.29.24-.42.07-.1.18-.17.3-.27.08-.16.18-.36.29-.55.1-.18.21-.36.33-.54.09-.15.11-.37.35-.4,0,0,.01-.04.02-.07.04-.07.07-.16.13-.2.18-.11.37-.19.58-.27-.19.23-.35.49-.58.67-.17.13-.18.29-.23.45-.01.04,0,.09-.02.13-.21.36-.36.76-.69,1.04-.09.08-.2.22-.19.33,0,.3-.25.24-.39.34-.02.01-.04.02-.07.03.06.47-.4.7-.52,1.14.13-.06.23-.11.37-.17-.06.22-.15.37-.36.43-.23.07-.47.04-.55-.11-.04-.07-.04-.17-.03-.25.02-.34.03-.68.1-1,.05-.22.21-.42.3-.63.34-.75.67-1.51,1.02-2.26.21-.44.45-.86.71-1.27.37-.58.79-1.13,1.13-1.72.39-.66.87-1.24,1.38-1.82.16-.18.36-.32.52-.5.12-.13.19-.31.31-.44.29-.31.6-.6.89-.91.27-.29.53-.59.79-.89.26-.31.52-.63.75-.98-.2.13-.4.25-.6.39-.17.12-.34.25-.51.37-.17.13-.35.25-.51.38-.29.23-.58.46-.86.71-.21.19-.41.4-.61.6-.22.21-.45.4-.66.6-.16.16-.31.34-.46.52-.41.48-.81.97-1.22,1.45-.19.22-.38.44-.58.66-.06.06-.14.1-.21.15-.03.02-.07.03-.09.06-.13.21-.26.41-.36.63-.13.29-.35.49-.6.68-.28.21-.54.44-.81.67-.23.2-.43.42-.67.59-.15.11-.36.14-.54.19-.04.01-.09,0-.13,0-.36.07-.56-.08-.6-.44-.04-.38.09-.72.27-1.02.65-1.07,1.29-2.16,2.14-3.09.72-.79,1.49-1.54,2.26-2.29.46-.45.93-.9,1.43-1.3.52-.42,1.09-.79,1.63-1.18.25-.18.5-.34.76-.51.26-.17.53-.34.79-.51.15-.09.29-.19.44-.28,0-.02-.02-.04-.03-.06-.13.05-.25.1-.38.15-.81.29-1.54.74-2.28,1.18-.61.36-1.22.74-1.8,1.16-.5.37-1.09.55-1.62.86-.18.11-.36.21-.55.31-.32.18-.64.34-.95.52-.25.14-.49.31-.73.46-.2.12-.4.24-.6.35-.54.31-1.09.61-1.63.92-.27.16-.53.34-.81.48-.21.11-.44.17-.65.25-.05.02-.1.07-.13.11-.06.08-.1.09-.21.05-.13-.04-.29.01-.46.03.05-.15.07-.33.27-.41.14-.06.3-.04.32-.29,0-.11.26-.21.42-.28.34-.15.69-.25,1.02-.41.22-.1.41-.27.62-.4.47-.29.92-.64,1.43-.85.44-.18.76-.51,1.18-.71.42-.21.83-.44,1.24-.67.59-.32,1.19-.65,1.78-.98.04-.02.11-.06.11-.09.02-.19.18-.22.3-.29.4-.26.8-.51,1.2-.77-.03-.05-.04-.06-.04-.06-.54.16-1.13.06-1.65.37-.36.22-.79.34-1.18.5-.02,0-.05,0-.12-.02.15-.1.27-.18.42-.28.19-.09.41-.19.67-.31-.34-.04-1.42.4-1.59.61.09,0,.19.02.29.02,0,.02,0,.05,0,.07-1.55.52-3.07,1.11-4.43,2.07.23-.11.46-.22.69-.34,0,.02.02.04.03.05-.09.06-.18.12-.28.17-.37.21-.73.45-1.12.6-.39.14-.61.47-.94.67-.57.34-1.08.77-1.61,1.18-.13.11-.21.28-.32.42.06.01.15.03.27.06-.1.12-.17.21-.26.31.04.03.08.07.13.11-.23.35-.62.25-.92.37-.2-.45.13-.67.37-.9.25-.24.52-.47.78-.69.21-.18.42-.36.64-.52.13-.1.18-.26.4-.28.14,0,.27-.21.41-.32.38-.29.75-.59,1.14-.88.5-.36,1.01-.71,1.52-1.06.13-.08.28-.15.42-.18.44-.06.75-.38,1.11-.58.65-.37,1.34-.61,2.05-.83.28-.09.54-.22.81-.32.36-.13.71-.26,1.07-.39.09.24.17.26.39.11.28-.19.53-.01.78.09.07.03.17.05.23.03.26-.08.53-.17.78-.29.33-.16.65-.35.98-.53l-.05-.1c-.17.08-.35.17-.52.25-.11-.04-.22.02-.33.12-.13.12-.29.16-.48.16-.23,0-.45.09-.68.14-.02,0-.04,0-.12,0,.09-.07.14-.12.2-.16,0,0,0,0,0,0,.31-.11.62-.21.93-.32,0-.03,0-.06-.01-.09-.09-.01-.19-.02-.28-.03,0-.03,0-.05,0-.08.11,0,.23-.04.32,0,.28.09.55.03.82-.04.07-.02.13-.07.2-.11,0-.02,0-.04-.01-.05-.06,0-.13,0-.19-.01,0,0,0-.01,0-.02.1-.02.19-.04.29-.06,0-.02,0-.04.01-.06-.14-.03-.27-.06-.42-.1.18-.13.61-.21.74-.12-.1.04-.18.07-.27.1.1.37.37.09.54.17.03.07.06.15.09.23.02,0,.04,0,.06,0-.05-.33.25-.25.39-.37.05-.04.1-.08.15-.11-.05-.04-.1-.1-.16-.12-.15-.04-.3-.07-.39-.09-.09.02-.18.05-.19.04-.1-.15-.24-.1-.36-.08-.16.04-.31.13-.47.17-.13.03-.27,0-.43,0,.05.05.09.1.11.12-.27.08-.55.17-.83.24-.23.06-.47.08-.7.13-.76.18-1.51.38-2.27.54-.32.07-.65.06-.98.08-.03,0-.06-.02-.1-.04.12-.08.22-.14.29-.19-.31.03-.65.06-.99.11-.05,0-.09.1-.15.14-.22.14-.42.31-.66.4-.51.21-1.03.37-1.55.56-.02-.02-.04-.04-.05-.05.04-.07.07-.16.13-.2.38-.23.73-.54,1.18-.65.31-.08.63-.12.92-.25.69-.3,1.44-.43,2.06-.91.26-.2.64-.27.97-.38.22-.07.45-.13.68-.17.19-.03.39,0,.59-.01.2-.01.41-.04.61-.06.08,0,.16-.02.24-.02.63.02,1.27.05,1.9.08.26,0,.53,0,.79,0,.02,0,.05,0,.06.02.26.24.59.11.88.14.03,0,.06-.01.09,0,.48.15.89-.12,1.32-.24.24-.07.47-.16.71-.23.16-.05.32-.11.48-.14.19-.03.38-.02.57-.03.13-.16.28-.35.44-.53-.15-.16-.28-.05-.38.03-.11.09-.21.17-.37.14-.04,0-.1.08-.15.12-.05.04-.12.1-.17.09-.28-.06-.54-.17-.82-.21-.35-.05-.72-.06-1.07-.04-.19.01-.36.06-.51-.08-.02-.02-.07-.03-.1-.02-.47.06-.91-.1-1.33-.24-.3-.1-.57-.04-.86,0-.35.03-.71.05-1.06.09-.52.06-1.04.14-1.57.21-.09.01-.19,0-.28.01-.26.02-.54-.05-.77.13-.03.02-.07.03-.1.03-.38.03-.75.05-1.13.07-.27.01-.55.01-.82.03-.13,0-.25.04-.42.07-.08.14-.26.16-.46.14-.18-.02-.36,0-.54.01-.41.04-.82.11-1.24.14-.43.03-.86.06-1.28.03-.53-.04-1.06,0-1.59-.02-.34-.01-.68,0-1.02-.06-.22-.04-.44-.14-.64-.25-.07-.04-.07-.19-.11-.29h0c.09.02.18.04.27.06.1.03.2.09.3.1.46,0,.92-.01,1.38-.02.16,0,.32-.04.49.01.1.03.24-.08.36-.1.23-.04.44-.04.68.02.29.07.61,0,.92-.02.46-.04.91-.1,1.37-.14.43-.04.86-.06,1.3-.09.21-.01.41-.01.62-.03.19-.02.37-.05.56-.08.24-.03.48-.05.72-.1.33-.07.65-.17.98-.24.16-.04.33-.04.49-.06.89-.12,1.78-.23,2.67-.15.37.03.75.04,1.11.23.28.15.63.2.95.24.86.11,1.73.19,2.6.28-.07-.38-.39-.38-.64-.49-.3-.13-.6-.26-.91-.37-.21-.08-.44-.15-.65-.23-.13-.05-.26-.12-.39-.17-.25-.08-.51-.16-.77-.23-.43-.11-.86-.22-1.3-.3-.44-.08-.88-.21-1.34-.18-.06,0-.13-.04-.2-.06-.17-.06-.33-.15-.51-.18-.44-.08-.88-.14-1.31-.2-.33-.05-.66-.07-.99-.12-.24-.04-.47-.13-.71-.14-.37-.01-.75-.16-1.12,0-.05.02-.14.02-.17-.01-.28-.27-.65-.19-.97-.23-.5-.06-1.01-.03-1.52-.02-.25,0-.49.03-.77.05.09.03.16.06.29.1-.14.02-.23.05-.3.03-.24-.09-.42.04-.62.12-.11.04-.23.05-.33.09-.07.02-.13.06-.21.11-.1.03-.24.08-.37.11-.15.03-.33.02-.46.09-.19.1-.35.26-.51.4-.08.07-.54.13-.74.03.09-.05.16-.09.24-.13l-.04-.07c-.08,0-.16-.02-.24-.03l-.02-.06c.1-.02.22-.09.31-.06.18.05.26.02.28-.18,0-.04.09-.07.14-.1.1.16.21.04.29,0,.14-.07.25-.18.38-.25.12-.06.25-.09.37-.15.15-.07.29-.18.44-.21.44-.08.88-.12,1.32-.19.23-.04.45-.11.67-.16.1-.02.2-.02.3-.02.69,0,1.39-.05,2.08,0,.6.05,1.2.2,1.8.31.32.06.63.12.95.18.27.05.52.16.81.14.21-.02.44.1.65.19.3.12.59.18.91.08.04-.01.1.05.14.1.28.02.57.03.81.24.01.01.04.02.06.01.4-.11.73.16,1.11.19.31.02.62.16.93.27.57.19,1.15.39,1.72.6.21.08.42.18.62.28.16.07.34.03.46-.12-.2-.08-.4-.16-.6-.23-.46-.16-.82-.47-1.2-.77-.16-.12-.34-.21-.52-.31-.18-.1-.36-.21-.54-.3-.18-.09-.38-.16-.57-.24-.23-.1-.47-.2-.7-.31-.1-.04-.2-.08-.3-.12-.12-.05-.21-.1-.26-.26-.05-.17-.19-.32-.32-.45-.42-.4-.95-.62-1.45-.89-.51-.27-1.02-.56-1.53-.83-.04-.02-.08-.07-.11-.06-.33.09-.55-.21-.85-.22-.19-.01-.38-.04-.56-.1-.14-.05-.27-.14-.43-.23-.22.17-.45.14-.83-.13-.14-.1-.31-.16-.47-.23-.14-.06-.28-.11-.42-.17-.13-.05-.23-.11-.4-.08-.19.03-.42-.12-.62-.2-.34-.14-.67-.33-1.03-.45-.62-.21-1.2-.47-1.67-.94-.02-.02-.05-.04-.07-.05-.41-.3-.46-.43-.33-.88.07-.26.34-.43.71-.46.32-.02.64-.02.93.16.03.02.09.02.13.02.74-.07,1.44.2,2.15.31.17.03.35.11.5.21.62.43,1.35.56,2.06.74.06.02.13.04.19.07.62.32,1.23.63,1.85.95.54.28,1.08.56,1.61.86.46.26.86.62,1.25.98.44.41.9.8,1.35,1.19.08.07.17.11.25.17.2.14.21.33.03.54-.03-.03-.07-.05-.1-.08-.5-.61-1.2-1.01-1.74-1.58-.64-.68-1.47-1.09-2.27-1.54-.76-.42-1.54-.81-2.34-1.16-.47-.2-.98-.31-1.47-.45-.2-.06-.41-.1-.61-.17-.08-.03-.17-.08-.21-.15-.23-.36-.62-.31-.95-.41-.15-.04-.3-.09-.45-.11-.36-.04-.73-.06-1.09-.11-.16-.02-.3-.08-.46-.12-.04-.01-.1,0-.14,0-.21.1-.41.21-.61.32.49.56,1.11.97,1.75,1.35.3.18.66.25,1,.38.21.08.42.16.63.24.03.01.07.03.1.03.42-.03.78.15,1.15.3.52.2,1.06.36,1.6.5,1.06.27,2.01.76,2.92,1.35.6.39,1.18.81,1.8,1.18.27.16.6.22.9.35.22.1.42.23.62.35.2.12.41.23.59.37.4.32.77.67,1.17.98.19.15.4.25.61.37.25.14.5.26.76.39.19.09.38.16.63.26,0-.19-.01-.31-.02-.42-.01-.21-.13-.42.06-.62.03-.04-.04-.24-.11-.3-.21-.19-.33-.44-.46-.68-.2-.35-.38-.71-.69-1.01-.28-.27-.5-.61-.75-.92-.06-.07-.12-.14-.18-.21-.2-.26-.43-.5-.61-.78-.29-.46-.55-.93-.8-1.41-.19-.35-.33-.73-.51-1.09-.1-.2-.23-.39-.32-.6-.17-.38-.49-.63-.76-.94-.3-.35-.58-.71-.87-1.06-.05-.06-.11-.1-.16-.15-.13-.14-.25-.29-.38-.43-.2-.21-.38-.45-.61-.62-.45-.35-.92-.68-1.39-1.01-.34-.23-.69-.45-1.03-.67-.41-.28-.81-.57-1.23-.83-.24-.15-.49-.28-.73-.41-.21.17-.21.33-.06.53.05.07,0,.24.05.31.15.21.35.38.52.58.5.6,1.11,1.08,1.74,1.55.23.17.4.42.61.62.56.53,1.13,1.03,1.67,1.57.38.38.72.8,1.08,1.2.36.4.76.78,1.09,1.2.28.35.49.75.74,1.12.08.12.19.22.29.33.14.16.26.33.28.56.01.14.1.28.16.42-.02.02-.03.03-.05.05-.09-.07-.2-.13-.27-.22-.29-.37-.6-.74-.86-1.14-.29-.46-.67-.83-1.01-1.23-.45-.52-.94-1.01-1.43-1.51-.25-.26-.51-.51-.79-.75-.72-.64-1.47-1.24-2.16-1.9-.73-.7-1.42-1.44-2.1-2.18-.24-.27-.42-.6-.61-.91-.04-.06-.05-.16-.02-.22.13-.34.39-.48.75-.49.26,0,.45.14.66.24.37.17.78.28,1.13.49.48.29.93.64,1.39.97.37.26.73.53,1.09.8.18.14.36.29.49.4.14.05.24.07.3.12.4.34.74.74,1.03,1.17.12.19.29.35.45.5.4.36.7.8,1,1.25.17.25.37.48.55.72.1.14.19.28.25.43.24.57.62,1.06.83,1.65.12.33.37.61.56.92.11.19.19.4.33.56.33.39.69.75,1.04,1.13.31.34.63.67.93,1.01.1.11.14.26.21.4.02,0,.05,0,.07-.01-.03-.25-.02-.52-.1-.76-.17-.57-.39-1.12-.58-1.68-.25-.73-.49-1.47-.74-2.2-.07-.21-.21-.39-.28-.59-.35-.99-.93-1.87-1.38-2.81-.16-.33-.27-.69-.39-1.04-.16-.47-.32-.94-.44-1.41-.14-.57-.29-1.13-.29-1.72,0-.28-.05-.55-.07-.83,0-.04.02-.09.05-.11.23-.13.45-.32.69-.37.28-.06.57.03.81.23.43.34.64.81.87,1.28.31.64.63,1.27.9,1.93.26.63.49,1.28.69,1.94.3,1,.58,2.02.81,3.04.12.51.13,1.04.17,1.57.03.36.02.72.02,1.09,0,.09-.05.17-.07.26-.09-.09-.16-.15-.21-.22-.04-.05-.08-.11-.07-.16.05-.77-.1-1.53-.27-2.28-.2-.95-.41-1.9-.65-2.85-.2-.83-.46-1.63-.83-2.4-.36-.76-.7-1.53-1.04-2.3-.12-.26-.28-.47-.53-.62-.03-.02-.08-.03-.12-.03-.26.03-.49.32-.47.59.02.27,0,.54.04.8.06.31.02.63.19.93.1.18.16.4.1.65-.04.17.05.37.09.55.16.69.46,1.32.79,1.95.37.7.7,1.41,1.06,2.12.33.64.49,1.34.67,2.03.2.75.35,1.51.58,2.24.18.55.28,1.08.25,1.65,0,.04.01.09.02.13,0,.03.03.05.05.1.13-.22.29-.16.47-.11.33.09.52-.06.58-.4.05-.31.14-.62.16-.93.04-.51.15-1.01.27-1.51.03-.14.03-.28.07-.41.02-.07.08-.12.15-.22-.09-.12,0-.23.14-.37.21-.21.14-.79-.09-1.02.05-.07.11-.14.16-.2-.03-.06-.06-.12-.1-.2.11-.01.19-.02.29-.03-.05-.15-.09-.29-.14-.45.06-.03.12-.06.18-.09.03-.18.06-.36.09-.56-.05.02-.09.04-.14.06-.01-.02-.03-.03-.03-.04.09-.18.23-.35.17-.59,0-.03.11-.14.17-.13.23,0,.15-.12.11-.24-.07.02-.13.04-.26.07.07-.18.13-.32.18-.45.02,0,.05.01.07.02v.17c.09-.07.15-.12.23-.18-.3-.13-.33-.2-.21-.51.06-.17.18-.3.14-.53-.03-.17.14-.37.21-.56.04-.09.06-.19.09-.3.09-.2.19-.41.28-.62.11-.26.22-.52.33-.78h-.12c.4-.55.84-1.03,1.37-1.43.24-.18.51-.07.64.2.3.61.11,1.13-.23,1.64-.07.11-.11.24-.17.36-.02,0-.04-.02-.07-.03.07-.19.11-.39.21-.56.2-.34.14-.71.13-1.06,0-.07-.14-.15-.23-.19-.04-.01-.14.06-.17.12-.36.61-.61,1.26-.81,1.94-.07.24-.17.46-.24.7-.04.13-.05.26-.08.4-.06.27-.12.54-.18.8,0,.04-.03.07-.02.11.02.13.05.25.07.38,0,.03,0,.1,0,.1-.19.05-.13.25-.21.34-.1.12-.1.21-.1.35,0,.12-.12.24-.16.37-.04.13-.1.27-.08.4.03.24-.13.42-.18.63-.1.44-.27.86-.38,1.29-.1.38-.17.77-.26,1.15-.06.24-.15.47-.21.71-.1.4-.19.81-.28,1.21-.05.21-.1.43-.13.65-.04.26.25.51.5.43.04-.01.08-.06.1-.1.17-.41.3-.83.51-1.22.19-.36.45-.69.69-1.03.18-.26.37-.51.58-.75.38-.44.77-.87,1.17-1.3.02-.02.06-.03.1-.04.21-.07.43-.09.57-.33.12-.21.37-.35.57-.5.05-.04.17,0,.26.03-.26.33-.46.68-.86.87-.2.09-.32.34-.47.52-.07.08-.13.18-.21.25-.12.09-.2.19-.19.35,0,.05-.09.14-.12.13-.27-.08-.33.19-.54.28.08.07.13.11.22.19-.12.05-.21.07-.29.11-.12.05-.36.03-.19.29.02.02-.03.12-.07.15-.05.04-.12.04-.19.06.01.08.02.16.03.25h-.17s.02.09.03.13c-.01,0-.03.02-.04.01-.22-.08-.26-.05-.28.18-.02.14-.1.27-.16.4-.02.05-.04.1-.06.15.01.01.03.03.04.04.08-.05.16-.09.26-.15.02.04.05.08.07.12.01,0,.03,0,.04,0,.14-.11.32-.19.41-.33.17-.25.46-.32.64-.52.08-.09.19-.15.28-.24.03-.03.12-.01.19.03-.04.01-.08.02-.13.04.03.03.05.05.08.09-.55.61-1.38.98-1.78,1.84,1.35-.41,2.41-1.22,3.53-1.93.01.02.02.03.04.05-.22.17-.43.36-.66.52-.5.35-.99.7-1.5,1.03-.21.14-.45.22-.68.33-.13.06-.26.14-.38.21.01.03.02.07.03.1.32-.04.64-.06.96-.12.42-.08.83-.19,1.25-.27.5-.1.89-.38,1.28-.69.39-.31.76-.64,1.18-.9.37-.23.8-.35,1.25-.36.14,0,.28-.01.42.01-.11.28-.36.26-.5.33-.13-.07-.22-.17-.3-.16-.13.01-.26.09-.26.27,0,.08-.07.17-.14.22-.58.42-1.15.87-1.76,1.25-.32.2-.7.28-1.06.42-.22.09-.4.28-.66.29-.17,0-.35.05-.52.08,0,.03,0,.05,0,.08.08.01.16.03.26.04,0,.15-.08.16-.19.1-.04-.02-.1-.05-.13-.04-.27.1-.53.21-.8.31,0,.02.01.05.02.07.29-.02.59-.04.88-.06.37-.03.74-.09,1.11-.12.77-.05,1.54-.09,2.31-.14.25-.02.5-.04.74-.08.11-.02.21-.13.32-.15.34-.05.69-.07,1.04-.1.5-.05,1-.11,1.51-.14.59-.03,1.18-.03,1.77-.04.18,0,.36-.02.54-.02.52.02,1.04.04,1.56.07.31.02.61.1.92.09.58-.01,1.11.15,1.63.39.27.13.59.16.88.25.18.05.35.13.53.2.03.01.04.06.1.15-.2-.06-.35-.09-.49-.14-.28-.09-.48-.01-.63.26-.05.09-.11.14-.25.09-.25-.09-.52-.14-.78-.21-.14-.04-.27-.09-.41-.13-.53-.15-1.07-.25-1.61-.2-.28.03-.51-.02-.76-.06-.31-.04-.62-.04-.93-.06-.07,0-.13-.05-.17-.06-.17.04-.33.09-.53.14.6.18,1.16.36,1.71.53,0,.02,0,.04-.01.06-.16-.04-.33-.07-.49-.11-.31-.07-.61-.15-.92-.22-.16-.04-.33-.07-.49-.11-.03,0-.04-.07-.05-.08-.1.02-.21.07-.28.04-.3-.12-.58-.04-.88,0-.3.04-.61.05-.91.06-.47.01-.94,0-1.4.02-.32.01-.64.04-.97.08-.72.09-1.45.19-2.17.28-.21.03-.42.01-.63.03-.45.03-.9.08-1.35.11-.47.03-.94.05-1.41.09-.13,0-.26.04-.39.07-.03,0-.07.03-.09.05-.11.13-.05.67.09.77.16.12.29.32.55.26,0-.03-.02-.05-.01-.07,0-.07.01-.13.02-.2.09.04.2.06.25.13.11.14.2.31.3.47.02.02.07.02.11.03,0-.04.03-.08.02-.12-.04-.13-.09-.26-.13-.38.32-.22.59.15.92-.02-.06.08-.09.11-.11.14q.28.19.4-.02c1.18.1,2.34.26,3.39.9.26.16.6.18.9.28.36.13.71.27,1.06.42.85.37,1.71.72,2.54,1.13.52.25.99.6,1.48.9.74.44,1.39.99,2.02,1.58.42.39.82.8,1.08,1.32.08.16.09.36.13.53-.26.11-.36.04-.5-.17-.38-.56-.75-1.14-1.33-1.55-.83-.59-1.6-1.26-2.44-1.83-.55-.37-1.17-.68-1.79-.91-.61-.22-1.26-.3-1.9-.43-.19-.04-.39-.06-.58-.1-.04,0-.11-.01-.12-.04-.13-.25-.4-.2-.61-.31-.05.11-.13.19-.24.05-.1.08-.21.06-.31,0-.06-.03-.1-.1-.13-.19.33.09.63.16.93,0,.52.33,1.11.27,1.67.34,0-.02.01-.04.02-.06-.62-.25-1.24-.51-1.86-.75-.53-.2-1.07-.39-1.62-.56-.52-.16-1.04-.24-1.58-.07-.04.01-.11-.02-.16-.03-.31-.09-.62-.17-.92-.26-.13.36-.08.45.25.53.14.04.28.1.42.15.03,0,.06.02.08.01.4-.19.67.24,1.04.17-.05.18-.09.31-.15.49.26-.11.38.02.5.16.07.09.17.15.27.22.53.36,1.06.72,1.59,1.08.16.11.31.23.47.35,0,.02-.02.05-.03.07-.12-.03-.25-.04-.35-.1-.54-.33-1.07-.69-1.61-1.01-.31-.19-.67-.31-.98-.49-.33-.19-.65-.42-.97-.62-.1-.06-.21-.1-.32-.15l-.05.05c.13.16.25.32.39.47.64.66,1.28,1.33,1.94,1.97.7.68,1.46,1.3,2.14,2,.75.76,1.4,1.62,1.99,2.51.3.45.6.9.9,1.35.05.07.08.16.1.24.03.1.04.2.18.21.03,0,.07.06.09.11.23.45.44.92.69,1.36.31.54.66,1.06.99,1.58.05.08.11.16.15.25.19.38.37.76.56,1.14.2.39.18.45-.27.54-.05-.12-.12-.24-.15-.37-.16-.77-.55-1.43-1.01-2.05-.18-.24-.38-.48-.55-.72-.13-.18-.23-.39-.37-.56-.27-.33-.37-.73-.57-1.09-.33-.59-.66-1.18-1.05-1.74-.37-.54-.8-1.04-1.21-1.56-.73-.91-1.57-1.71-2.49-2.44-.42-.33-.89-.59-1.31-.93-.4-.32-.77-.7-1.15-1.05-.22-.2-.43-.43-.68-.59-.34-.22-.72-.4-1.1-.57.15.16.31.32.45.49.18.2.15.26.02.48-.05.09.02.27.07.39.06.13.15.25.24.37.24.34.49.67.73,1.01.04.06.04.14.06.21-.08,0-.17.01-.25,0-.05-.01-.09-.06-.15-.11,0,.21-.02.41,0,.6.02.22.07.43.21.61.1.13.16.3,0,.45h0ZM34.96,47c-.14-.03-.27-.06-.39-.09-.03.07-.06.13-.09.19.07.02.15.03.22.05.05.01.09.05.13.06.07,0,.15,0,.22,0-.03-.07-.06-.14-.1-.21.22-.06.44-.11.65-.17-.2-.02-.39,0-.58.04-.03,0-.04.09-.07.14ZM5.96,61.19c.07-.04.18-.11.29-.19.13-.09.25-.19.38-.28.21-.15.43-.28.61-.45.25-.24.45-.52.68-.78.61-.7,1.24-1.39,1.84-2.1.36-.43.67-.9,1.04-1.33.25-.29.55-.54.83-.81.37-.37.74-.74,1.12-1.1.2-.18.44-.31.65-.48.23-.18.44-.38.68-.54.28-.2.6-.35.88-.55.73-.52,1.44-1.05,2.16-1.59.08-.06.19-.21.16-.28-.03-.09-.17-.16-.28-.21-.35-.16-.67.01-.96.17-.57.31-1.13.65-1.68,1-.64.41-1.3.79-1.89,1.26-.84.67-1.65,1.38-2.43,2.12-.75.71-1.46,1.46-2.13,2.24-.6.7-1.12,1.46-1.66,2.21-.14.19-.22.43-.33.65-.1.21-.2.41-.29.62-.06.15.09.38.31.39ZM17.1,69.54c.08-.06.15-.09.16-.13.07-.28.29-.47.35-.77.07-.39.27-.76.41-1.13.07-.19.15-.38.21-.57.17-.55.33-1.1.5-1.65.07-.22.12-.43.28-.63.14-.18.18-.45.23-.68.08-.34.12-.69.18-1.04.05-.27.12-.53.18-.8,0-.02.05-.03.05-.03-.04-.09-.09-.16-.09-.23,0-.26.03-.51.05-.77.01-.17.03-.34.04-.51.02,0,.03,0,.05,0l.09.25c.06-.06.08-.12.09-.18.03-.38.07-.76.07-1.14,0-.16-.11-.31-.11-.47.02-.45.07-.89.12-1.34.02-.12.11-.23.17-.35,0-.01,0-.03,0-.03-.03-.02-.07-.03-.07-.04.04-.07.1-.14.09-.16-.13-.21-.07-.4.04-.59.02-.03,0-.1,0-.15,0-.15,0-.3.04-.44.05-.2.16-.39.06-.55.05-.1.13-.16.13-.23,0-.34-.06-.68-.03-1.02.03-.38.14-.75.21-1.13,0-.04.06-.06.09-.1.16-.22.28-.4.14-.74-.1.2-.21.36-.27.55-.15.45-.29.9-.43,1.36-.15.5-.36,1-.44,1.52-.11.66-.12,1.33-.18,1.99-.04.44-.07.89-.14,1.33-.06.42-.17.83-.26,1.24-.14.65-.28,1.3-.43,1.95-.1.46-.2.92-.33,1.38-.12.41-.32.8-.43,1.22-.24.87-.57,1.7-.71,2.6-.11.72-.1,1.43-.1,2.2ZM15.89,53c.05-.04.11-.07.16-.11.48-.35.95-.71,1.45-1.04.35-.24.74-.43,1.1-.65.31-.19.62-.39.92-.6.25-.18.49-.37.79-.59-.77.07-3.87,2.08-4.41,3ZM17.36,50.26c.13.2.27.25.44.17.21-.1.42-.18.62-.29.36-.2.71-.41,1.06-.61l-.03-.06c-.74.15-1.38.53-2.09.8ZM22.57,68.38s.05,0,.08,0c.04-.28.14-.57.11-.85-.02-.2.04-.33.15-.45-.11-.16-.21-.31-.34-.51v1.8ZM24.16,93.62s-.08,0-.13-.01c-.03.42-.05.83-.08,1.25.03,0,.05,0,.08,0,.04-.41.08-.83.12-1.24ZM20.85,54.36c-.08-.05-.14-.11-.21-.13-.04-.02-.15.01-.15.02,0,.13,0,.27.05.39.02.05.15.06.23.09-.17-.27-.17-.29.07-.37ZM23.87,91.15s.05,0,.08,0c.08-.39.04-.78-.08-1.17v1.16ZM22.65,71.66s-.05,0-.08,0c.03.31.06.63.09.94.12-.32.12-.64-.01-.95ZM33.92,46.85c.07.16.24.18.41.15.05-.01.08-.12.13-.19-.21.02-.37.03-.54.05ZM10.83,50.05c-.27-.12-.4-.08-.51.13.16-.04.31-.08.51-.13Z"/>
      <path class="cls-1" d="M41.71,49.83s-.05.01-.07.02c.11-.14.05-.28.03-.43,0-.03.04-.07.07-.11-.06-.04-.11-.08-.18-.13.11-.24.23-.47.34-.7-.15-.03-.24-.09-.14-.28.05-.1.05-.23.08-.35.01-.05.05-.09.04-.08-.03-.26-.08-.48-.08-.7.01-.37.12-.75.08-1.11-.06-.54.21-.99.26-1.5.06-.66.18-1.32.28-1.98.04-.29.09-.58.12-.87.03-.23.05-.46.08-.68.03-.22.08-.44.11-.67.02-.13.01-.27.04-.4.03-.16.08-.32.12-.48.02-.08.02-.16.04-.23.07-.31.18-.62.21-.93.03-.24.18-.46.1-.72-.02-.06.05-.14.05-.21.03-.26.05-.51.07-.77,0-.03-.02-.06,0-.09.15-.46.13-.95.24-1.41.05-.22.03-.45.08-.67.07-.32.18-.63.25-.94.03-.17-.03-.35,0-.53.03-.29.1-.57.15-.85.05-.28.16-.56.14-.83-.02-.41.18-.76.22-1.15.08-.78.21-1.55.32-2.33.02-.11.04-.21.06-.32-.4-.02-.51-.17-.41-.54.19-.72.38-1.43.57-2.15.02-.06.03-.13.07-.19.07-.12.05-.2-.04-.32-.15-.2-.23-.45-.34-.68-.02-.05-.06-.09-.12-.18-.04.19-.05.35-.11.48-.14.31-.31.6-.45.9-.23.49-.43.99-.66,1.48-.07.15-.18.28-.29.44.07-.02.09-.02.12-.03.02.02.03.03.05.05-.1.11-.22.21-.3.33-.08.12-.14.27-.18.41-.03.11-.06.18-.19.13h0c.07-.25.1-.52.23-.74.24-.42.35-.88.52-1.32.11-.29.26-.55.39-.83.04-.1.07-.21.09-.32.01-.09,0-.18-.01-.27-.08.01-.16.03-.26.04.19-.6.37-1.21.56-1.81-.02,0-.04-.02-.06-.03-.36.27-.73.53-1.07.82-.37.31-.83.44-1.25.64-.35.16-.72.3-1.02.52-.74.53-1.44,1.13-2.18,1.66-.31.22-.69.33-1.01.52-.43.25-.84.53-1.25.8-.32.21-.58.48-.79.8-.08.13-.23.28-.45.26-.04,0-.1.07-.14.12-.21.21-.42.43-.63.64-.08.08-.15.16-.21.25-.04.05-.06.12-.11.16-.44.43-.89.86-1.33,1.3-.07.07-.13.16-.19.23-.34.42-.69.83-1.03,1.25-.08.1-.15.22-.23.33-.02-.01-.04-.03-.06-.04.05-.08.11-.16.17-.25-.08,0-.14,0-.23-.01.17-.35.31-.69.49-1,.09-.16.24-.28.38-.41.04-.04.12-.03.2-.04-.03-.05-.05-.09-.07-.13.14-.18.26-.37.41-.52.24-.25.52-.47.76-.72.59-.61,1.3-1.07,1.98-1.57.5-.37.95-.81,1.46-1.17.4-.28.88-.45,1.27-.73.54-.38,1.03-.82,1.55-1.23.48-.37.91-.82,1.51-1.02.31-.1.57-.32.87-.44.67-.29,1.25-.7,1.8-1.16.05-.04.09-.07.13-.11.16-.16.15-.23-.05-.31.02-.15.05-.29.05-.43,0-.21-.12-.32-.32-.35-.89-.16-1.77-.33-2.66-.47-.47-.07-.94-.08-1.42-.1-.15,0-.31.07-.46.11,0,.02,0,.04,0,.06.16.07.32.17.49.21.44.12.89.23,1.34.3.45.08.92.13,1.38.14.25,0,.5-.08.75-.12.08-.01.16,0,.24,0,.2.03.27.19.23.38-.09.38-.37.52-.69.61-1.22.35-2.39.82-3.52,1.39-.31.16-.6.36-.91.51-.52.26-1.06.49-1.58.75-.3.15-.57.36-.88.46-.52.16-.82.59-1.22.88-.17.12-.35.23-.53.34-.32.19-.63.37-.96.55-.81.44-1.62.9-2.44,1.32-.49.25-1.01.48-1.52.68-.18.07-.39.04-.59.08-.68.15-1.37.31-2.04.48-.46.12-.91.3-1.37.43-.13.04-.34.16-.4-.12,0-.01-.13,0-.23,0,.06.06.12.11.11.12-.03.05-.1.14-.12.13-.19-.09-.32.13-.5.09-.08-.02-.17,0-.26,0-.15,0-.33,0-.36-.18-.03-.17-.01-.35.16-.47.03-.02.07-.05.08-.08.08-.38.43-.5.69-.7.7-.52,1.41-1.03,2.13-1.5.41-.27.86-.46,1.29-.7.17-.09.32-.22.5-.3.63-.27,1.28-.5,1.89-.8.84-.41,1.72-.7,2.59-1.04.33-.13.67-.25,1.01-.36.32-.1.65-.17.97-.27.26-.08.51-.2.77-.29.51-.18,1.01-.4,1.55-.51.47-.09.91-.31,1.37-.44.44-.13.89-.21,1.33-.33.42-.12.82-.29,1.23-.41.25-.08.5-.14.76-.16.2-.02.31-.03.21-.26-.01-.03,0-.07,0-.1-.36-.02-.71-.03-1.06-.07-.41-.04-.82-.1-1.23-.17-.43-.07-.85-.17-1.28-.25-.04,0-.09-.02-.13-.04-.43-.3-.86-.11-1.28.03-.66.23-1.31.53-1.98.71-.95.26-1.89.51-2.88.6-.44.04-.87.19-1.31.26-.62.1-1.24.18-1.87.26-.72.09-1.45.17-2.18.24-.22.02-.44-.01-.65.01-.26.03-.51.11-.77.16-.73.15-1.42.48-2.18.48-.35,0-.71-.3-.77-.64-.01-.06.02-.13.05-.18.11-.16.2-.34.35-.45.16-.12.38-.19.57-.26.03-.01.09.04.19.09-.46.19-.68.49-.67.95.24.21.53.22.85.14.54-.15,1.09-.31,1.64-.43.4-.08.81-.12,1.21-.23.63-.17,1.28-.22,1.94-.22.28,0,.56-.11.84-.1.72,0,1.39-.23,2.08-.35.53-.09,1.08-.13,1.61-.21.3-.04.59-.11.88-.19.36-.1.71-.23,1.07-.33.38-.11.77-.21,1.16-.32.39-.11.78-.24,1.17-.36.03,0,.06-.04.14-.09-.18-.01-.3-.02-.42-.04-.59-.07-1.18-.15-1.77-.23-.04,0-.09,0-.12-.03-.35-.3-.76-.34-1.2-.3-.16.01-.33-.03-.5-.05,0,.03,0,.06-.01.09.15.02.31.04.46.07,0,.02,0,.05,0,.07-.16.05-.32.12-.49.15-.48.07-.97.12-1.45.19-.25.04-.49.12-.74.17-.08.01-.18-.02-.25-.06-.15-.08-.27-.08-.34.09-.06.14-.13.1-.22.03-.07-.06-.15-.11-.22-.16-.02.01-.04.03-.07.04.03.09.06.18.1.27-.11.06-.13.05-.33-.12-.14.03-.25.05-.36.07-.25.03-.51.05-.76.1-.08.01-.15.15-.21.13-.21-.06-.4.17-.62.04-.03-.02-.09.02-.13.05-.05.02-.1.07-.15.08-.41.07-.82.11-1.22.19-.13.03-.24.14-.37.19-.23.1-.31.04-.34-.21h0c.08,0,.16.02.23,0,.13-.02.26-.06.39-.14h-.39c.13-.21.88-.31,1.06-.14.1-.3.38-.22.6-.28.26-.07.52-.1.79-.14.12-.02.25-.03.37-.05.11-.03.2-.09.31-.11.26-.04.52-.09.78-.1.4,0,.78-.04,1.17-.18.45-.16.92-.27,1.41-.2.05,0,.11-.01.17-.07-.02-.01-.05-.03-.07-.04-.47-.03-.94-.07-1.42.03-.39.08-.79.08-1.19.11-.34.03-.68.08-1.02.11-.46.04-.91.05-1.32-.2-.41-.25-.41-.78-.03-1.07.12-.09.32-.11.35-.31,0-.02.09-.02.14-.03.47-.09.94-.17,1.4-.26.08-.01.15-.03.24-.05.1-.02.21-.04.31-.05.03,0,.08.05.09.04.13-.11.31-.04.41-.08.28-.13.46,0,.68.12.17-.32.46-.27.74-.25.33.02.67,0,.99.06.34.07.68-.04,1.01.05.05.01.08.06.17.13.15,0,.39-.14.57.11.02.02.09.02.12,0,.41-.14.82-.02,1.22.05.44.07.87.17,1.31.25.31.06.64.09.94.18.87.28,1.73.58,2.59.87.07.02.15.03.23.05.13.04.27.09.44.15-.05-.07-.08-.15-.13-.2-.38-.29-.78-.58-1.16-.87-.27-.2-.53-.42-.79-.63-.03-.02-.07-.05-.07-.08-.04-.21-.17-.22-.36-.25-.17-.02-.32-.16-.48-.24-.19-.1-.38-.2-.57-.3-.19-.09-.38-.16-.56-.25-.04-.02-.06-.08-.09-.12-.06-.1-.12-.2-.2-.29-.04.17-.09.16-.21.08-.39-.27-.79-.54-1.2-.78-.27-.15-.58-.24-.87-.37-.45-.19-.88-.42-1.34-.59-.47-.18-.96-.24-1.47-.2-.33.02-.66.06-1.03.1.13-.15.23-.28.45-.27.18.01.37,0,.55,0,0-.03,0-.06.01-.09-.24-.05-.49-.09-.73-.15-.26-.06-.52-.13-.78-.21-.46-.15-.9-.35-1.36-.47-.41-.11-.84-.13-1.25-.21-.57-.11-1.14-.22-1.71-.37-.56-.15-.91-.65-.9-1.25,0-.15,0-.31.05-.45.12-.34.31-.41.65-.29.07.02.14.04.25.07-.13.15-.27.25-.35.39-.11.19-.28.43-.25.61.05.26.24.5.56.59.17.05.41-.09.52.15.4.01.76.24,1.19.16.29-.05.6-.03.89,0,.61.07,1.19.28,1.77.5.18.07.34.19.52.25.21.08.43.13.65.18.43.1.86.19,1.29.27.29.06.58.08.86.14.55.12,1.04.39,1.51.69.37.23.75.46,1.12.69.27.17.53.36.8.54.12.08.25.13.36.21.05.04.07.12.08.14.17.09.32.15.47.24.36.22.71.46,1.08.66.17.1.38.13.58.2.08.35.37.53.66.71.55.35,1.05.74,1.34,1.34.11.23.33.21.52.21.15,0,.29-.08.44-.09.28-.02.56,0,.84,0-.02-.02-.07-.07-.12-.09-.42-.22-.75-.54-1.05-.9-.33-.38-.7-.72-1.08-1.05-.39-.33-.8-.63-1.2-.94-.04-.03-.05-.09-.07-.13-.04,0-.09.02-.19.04.04-.12.06-.2.09-.29.27.14.51.25.74.39.14.08.24.22.37.32.06.05.14.05.2.1.26.21.52.42.77.65.36.33.72.66,1.15.92.16.1.28.25.42.38.09.09.14.25.33.18.02,0,.07.06.11.09.17.16.34.32.53.5.07-.1.12-.19.19-.26.1-.09.2-.2.32-.25.17-.07.23-.16.1-.26-.22-.16-.2-.37-.21-.58-.09-1.4-.18-2.8-.26-4.2-.02-.38.06-.76.06-1.14-.03-1.2-.06-2.41-.12-3.61-.02-.46-.14-.92-.22-1.38-.09-.56-.19-1.12-.28-1.68-.09-.52-.07-1.06-.13-1.58,0-.03.01-.06.02-.08.1,0,.19-.02.3-.03.12.39.33.81.34,1.23.01.31.02.61.07.91.11.62.23,1.24.33,1.86.06.36.1.72.11,1.09.01.42-.01.83-.01,1.25,0,.05.07.11.1.16.03-.05.07-.1.08-.16.05-.38.11-.77.12-1.15,0-.56-.05-1.11-.07-1.67-.02-.41-.03-.81-.05-1.22-.02-.41-.11-.84-.07-1.24.05-.49,0-.97-.02-1.45,0-.11-.05-.21-.06-.32-.06-.36-.09-.72-.17-1.07-.04-.2-.17-.38-.24-.58-.03-.07-.04-.22-.02-.23.12-.05.23-.2.4-.07.27.21.41.49.43.82.05.8.1,1.61.14,2.41.01.31-.02.62-.03.92,0,.12,0,.23.02.35.06.54.14,1.07.16,1.61.04.7.04,1.41.04,2.11,0,.24-.05.48-.07.72-.03.38-.07.75-.07,1.13,0,.79,0,1.59.02,2.38,0,.19.08.37.09.56.03.52.04,1.04.07,1.55.02.24.07.47.11.74.61-.72.94-1.52,1.13-2.43.07.06.13.09.12.11-.02.14-.06.28-.09.42-.07.34-.12.68-.23,1.01-.16.5-.15,1.07-.56,1.48-.13.13-.14.24.04.36.07.05.09.16.15.24.03.04.08.09.13.09.03,0,.08-.06.1-.1.33-.71.67-1.42.97-2.15.36-.88.69-1.77,1.03-2.66.14-.37.29-.75.43-1.12.11-.3.22-.6.33-.9.36-.94.72-1.88,1.07-2.82.14-.37.27-.74.4-1.11.23-.65.45-1.31.67-1.97.12-.35.19-.73.33-1.07.13-.32.29-.62.48-.91.27-.42.56-.82.85-1.22.61-.86,1.23-1.72,1.83-2.58.11-.16.24-.24.44-.23.18.01.36,0,.54,0,0,.02.01.04.02.06-.08.07-.17.13-.23.21-.21.25-.4.52-.62.77-.26.32-.54.61-.8.94-.19.24-.35.5-.52.75-.25.36-.54.7-.75,1.08-.25.45-.46.93-.64,1.41-.4,1.07-.72,2.17-1.16,3.22-.55,1.32-.96,2.69-1.47,4.02-.14.35-.31.69-.43,1.05-.14.42-.23.85-.3,1.3.12-.21.26-.42.36-.63.25-.51.5-1.03.73-1.55.26-.58.5-1.18.76-1.76.11-.24.22-.48.23-.75,0-.05.06-.1.08-.15.09-.21.2-.42.26-.64.11-.39.22-.78.5-1.09.03-.03-.01-.12-.02-.17.09-.17.19-.36.28-.55.11-.23.23-.47.32-.71.1-.25.15-.52.26-.75.18-.36.41-.71.6-1.06.14-.25.28-.5.54-.65.03-.02.06-.03.09-.05.33.2.3.56.1.81-.35.46-.71.93-1,1.43-.25.43-.4.92-.59,1.38-.51,1.23-1,2.46-1.53,3.68-.41.94-.88,1.86-1.32,2.78-.05.1-.11.18-.15.32.15-.07.33-.11.46-.21.38-.31.8-.61,1.11-.98.77-.94,1.48-1.92,2.22-2.89.45-.59.91-1.17,1.36-1.76.17-.23.31-.49.49-.71.65-.78,1.3-1.55,1.98-2.31.23-.25.53-.44.79-.66.21-.18.41-.38.63-.55.14-.12.3-.23.46-.31.42-.19.77-.46,1.08-.8.16-.19.41-.31.61-.46.49-.37.99-.73,1.48-1.1.34-.25.25-.28.64-.05-.18.32-.39.6-.7.83-.52.38-1.04.77-1.53,1.19-.26.22-.44.53-.71.74-.61.48-1.25.92-1.87,1.39-.72.56-1.43,1.14-1.95,1.82.91-.72,1.87-1.47,2.83-2.22.02.02.04.04.06.05-.03.06-.06.12-.1.16-.3.26-.61.5-.9.77-.55.52-1.09,1.06-1.64,1.6-.39.38-.79.74-1.15,1.14-.47.51-.91,1.04-1.36,1.56-.81.95-1.5,1.99-2.39,2.87-.38.38-.78.76-1.21,1.08-.23.17-.44.35-.63.56-.06.06-.2.07-.31.07-.07,0-.14-.05-.2-.08-.17-.09-.27-.06-.35.13-.39.85-.8,1.69-1.21,2.53-.14.29-.29.57-.42.86-.1.23-.18.47-.25.7-.02.08,0,.17,0,.32.11-.08.22-.12.24-.19.11-.32.39-.47.62-.66.22-.19.49-.33.78-.46-.02.04-.02.1-.05.12-.29.26-.58.51-.87.76-.06.05-.1.12-.15.18-.06.09-.12.18-.18.26-.04.05-.09.1-.12.15-.09.17.02.38.21.37.5-.03,1-.05,1.5-.12.34-.04.68-.16,1.02-.23.34-.07.69-.12,1.04-.19.99-.2,1.98-.4,2.96-.61.26-.05.51-.16.77-.21.44-.08.89-.15,1.33-.21.57-.09,1.13-.18,1.7-.24.98-.11,1.97-.23,2.95-.3.63-.04,1.27-.02,1.91,0,.5.02,1.01.06,1.51.15,1.08.2,2.12.53,3.06,1.09.39.23.76.51,1.07.86.13.14.3.25.46.36.22.15.37.34.44.62-.18-.06-.28-.39-.51-.13-.74-.49-1.46-.99-2.22-1.43-.49-.29-1.02-.53-1.6-.62-.5-.08-.99-.26-1.49-.31-.68-.06-1.38-.07-2.06-.06-.62.02-1.24.11-1.86.16-.56.05-1.13.06-1.69.13-.69.08-1.37.2-2.06.29-.34.05-.68.08-1.02.14-.15.03-.28.12-.43.15-.73.16-1.46.32-2.2.46-.49.09-.98.15-1.47.24-.37.06-.74.15-1.11.22-.13.02-.26.02-.39.05-.29.06-.58.13-.93.22.81.05,1.56.08,2.3.16.46.04.91.17,1.36.22.6.06,1.2.08,1.8.13.34.03.67.08,1,.11.35.03.7.05,1.05.09.38.04.76.09,1.13.14.21.02.42.04.62.06.18.01.34.04.45.21.04.06.17.09.24.08.43-.08.78.14,1.16.26.21.06.4.22.63-.02.07-.08.34.03.52.05,0,.03,0,.06,0,.09-.14.03-.27.06-.41.1,0,.01,0,.03,0,.04.09,0,.19.04.26,0,.28-.15.57-.03.86-.08.03,0,.07-.02.08,0,.29.31.72.09,1.05.25.11.05.28,0,.43.03-.04.03-.09.06-.18.11.32.15.6.31.89.42.49.19,1.01.32,1.44.65.08.06.14.13.22.19.17.14.23.31.17.53-.03.09-.03.19-.06.33-1.41-1.08-2.93-1.89-4.62-2.34-.01.02-.03.04-.04.06.09.09.17.19.28.25.17.09.33.19.54.23.23.04.43.25.65.37.43.23.87.45,1.31.68.26.14.49.33.76.44.38.15.78.25,1.18.35.22.06.45.12.67.1.35-.03.7-.1,1.04-.2.3-.09.58-.24.87-.34-.27.27-.59.44-.95.55-.32.1-.64.21-.97.28-.19.04-.39.01-.58,0-.27-.02-.54-.05-.81-.09-.09-.01-.17-.06-.26-.1-.32-.12-.67-.2-.97-.36-.65-.34-1.27-.73-1.91-1.08-.34-.19-.68-.39-1.04-.54-.5-.2-1.02-.36-1.54-.52-.6-.18-1.2-.32-1.83-.39-.55-.07-1.09-.2-1.64-.29-.25-.04-.51-.05-.76-.08-.22-.03-.45-.06-.67-.09-.03,0-.07,0-.15.02.71.29,1.39.49,2.17.45-.27.25-.49.14-.73.08-.51-.11-1.02-.2-1.53-.3-.41-.08-.82-.15-1.23-.22-.11-.02-.22,0-.33-.01-.7-.06-1.4-.12-2.1-.18-.21-.02-.43.02-.64-.01-.32-.05-.64-.13-.96-.19-.3-.06-.6-.12-.9-.18-.18-.03-.33.03-.45.17.27.06.54.11.8.17.06.01.11.04.16.06.12.05.26.12.19.26-.04.07-.22.09-.33.09-.37-.02-.73-.07-1.09-.1-.05,0-.1.05-.15.08.03.06.05.14.1.17.24.15.49.29.75.41.92.46,1.71,1.13,2.52,1.75.51.39,1,.8,1.51,1.2.4.32.84.6,1.21.94.46.42.87.89,1.3,1.34.7.74,1.24,1.59,1.85,2.4.28.37.63.67.93,1.03.61.71,1.06,1.53,1.46,2.38.24.51.39,1.04.46,1.6.02.17-.03.28-.19.35-.16.07-.31.08-.42-.06-.25-.31-.51-.62-.73-.95-.17-.26-.27-.55-.43-.82-.1-.17-.24-.32-.37-.47-.23-.28-.46-.56-.71-.84-.2-.22-.38-.46-.62-.63-.31-.22-.48-.54-.69-.83-.27-.37-.49-.78-.76-1.15-.28-.37-.6-.71-.89-1.07-.14-.17-.24-.38-.38-.55-.17-.21-.36-.4-.55-.59-.25-.26-.5-.51-.74-.77-.11-.12-.18-.28-.28-.41-.37-.44-.76-.87-1.12-1.32-.48-.6-1.06-1.08-1.69-1.5-.53-.36-1.06-.7-1.6-1.04-.04-.03-.15-.03-.17,0-.05.07-.11.18-.09.25.04.13.14.24.21.35.07.11.13.23.2.33.09.12.19.24.27.36.22.3.42.61.65.91.38.49.8.96,1.17,1.46.45.6.85,1.23,1.32,1.82.41.51.77,1.03,1.04,1.62.58,1.25,1.2,2.49,1.53,3.83.2.8.38,1.61.38,2.44,0,.27-.15.42-.39.45-.08-.11-.18-.22-.24-.34-.05-.12-.1-.26-.09-.38.07-.82-.04-1.61-.39-2.35-.25-.55-.51-1.11-.76-1.66-.17-.38-.35-.76-.53-1.13-.22-.46-.46-.92-.67-1.39-.05-.11-.1-.25-.07-.36.04-.21-.04-.36-.15-.51-.34-.44-.69-.87-1.04-1.31-.13-.17-.26-.34-.4-.5-.03-.03-.07-.04-.11-.07-.02.02-.03.03-.05.05.1.13.21.25.31.38.26.35.55.68.77,1.06.21.36.38.76.4,1.2,0,.18.07.32.17.48.14.23.19.51.28.77.07.21.15.41.19.62.05.31.06.62.09.94,0,.06.03.13.06.19.03.05.07.09.12.15-.2.03-.33-.12-.35-.33-.02-.21-.04-.43-.09-.63-.04-.15-.12-.3-.19-.44-.22-.42-.22-.91-.39-1.34-.21-.53-.24-1.12-.61-1.59-.27-.33-.48-.71-.7-1.08-.18-.3-.31-.62-.47-.93-.03-.06-.1-.11-.14-.17-.13-.19-.24-.4-.38-.58-.09-.12-.23-.2-.32-.31-.19-.25-.35-.52-.53-.77-.06-.08-.16-.15-.25-.23.13.49.24.95.36,1.41-.03,0-.06.02-.08.03-.06-.17-.13-.35-.19-.52l-.06.02c.05.64.34,1.22.55,1.82.02,0,.07,0,.12,0,0,.04,0,.08,0,.11-.01.11,0,.18.12.25.08.05.13.18.15.28.06.34.09.68.14,1.02,0,.05.05.1.09.15.15.21.22.43.13.7-.03-.1-.05-.2-.1-.29-.08-.16-.17-.32-.25-.47,0-.02-.05-.03-.05-.05.03-.36-.32-.61-.31-.96,0-.09,0-.17-.01-.27-.25.01-.18-.24-.28-.36-.09-.11-.14-.28-.25-.36-.28-.2-.32-.48-.3-.78.01-.2.04-.41.05-.61,0-.03-.02-.07-.03-.1-.02,0-.05-.02-.07-.03-.05.12-.12.23-.15.35-.07.26-.11.52-.17.78,0,.03-.03.05-.05.07-.46.38-.46.92-.53,1.44-.01.08-.06.15-.06.22-.02.12-.04.25-.06.37-.06.39-.1.78-.18,1.17-.11.57-.09,1.15-.31,1.7-.13.32-.09.71-.14,1.06-.05.33-.12.65-.18.97-.03.16-.07.32-.09.41,0,.19.03.33.01.47-.05.37-.12.73-.18,1.1-.06.4-.1.81-.16,1.21-.06.46-.12.93-.19,1.38-.06.36-.17.72-.23,1.09-.09.58-.15,1.17-.23,1.75-.03.23-.08.46-.11.68-.04.26-.07.53-.09.79,0,.06.05.13.07.2-.24.18-.24.19-.06.43.04.06.07.22.04.24-.19.13-.09.33-.13.49-.04.13-.06.27-.08.41,0,.06.03.12.05.18,0,.02.03.05.02.05-.19.22,0,.46-.05.68-.05.26-.1.51-.15.77-.02.08-.04.15-.07.24h-.28c.09.05.22.08.26.16.11.19-.17.2-.2.35.21.03.23.17.21.36-.02.26,0,.53-.01.79-.02.7-.03,1.4-.08,2.1-.04.66-.13,1.31-.18,1.97-.02.3,0,.61-.02.91,0,.1-.03.2-.05.3-.07.35-.15.7-.22,1.05-.01.07,0,.15.06.22-.03.04-.1.09-.1.13,0,.15.03.31.04.46,0,.08-.03.15-.04.23-.02.39-.02.78-.05,1.17-.03.35-.11.7-.16,1.06,0,.05,0,.13.01.14.05.02.11,0,.22,0-.05.11-.1.22-.16.35-.02,0,.02,0,.06.03.03.02.07.03.14.07-.09.04-.14.06-.2.09q.2.25-.07.43c.28.53.09,1.08.07,1.64-.02,0-.06.01-.09.02-.03,0-.05,0-.04,0,.04.05.09.12.14.19-.09.04-.19.07-.28.11v.05c.08.02.16.04.23.07.04.02.11.05.11.08,0,.04-.03.11-.06.12-.23.12-.09.22.02.31.07.06.16.09.22.12-.14.06-.28.12-.41.18.09.07.17.13.28.21-.11.14-.19.28-.05.49.09.14.02.38.01.57,0,.37,0,.73-.03,1.1-.02.24-.09.48-.14.73-.08.42-.15.85-.26,1.26-.09.32-.25.62-.34.94-.05.17,0,.36,0,.54,0,.18-.01.37-.05.55-.05.26-.13.52-.2.8.08,0,.13.02.19.02-.05.16-.11.31-.15.46-.07.26-.06.56-.2.77-.16.25-.13.51-.18.76-.02.09-.01.19-.02.28-.02.12-.04.25-.06.42.01.01.06.05.1.09-.06.16-.11.3-.17.46h.19s.02.03.04.05c-.08.07-.16.15-.25.24.06.01.11.02.22.04-.08.14-.15.26-.21.38-.02.05-.06.12-.04.14.13.2.07.32-.13.41-.05.02-.1.06-.12.07.08.1.18.18.17.21-.05.09-.14.16-.22.26.02.05.05.14.08.21-.1.04-.17.06-.25.09,0,.02.01.05.02.07.07.02.13.04.19.06.03.31-.35.18-.43.41.11.01.2.02.35.03-.11.09-.17.13-.2.16.02.06.06.17.05.18-.21.11-.1.32-.15.48-.04.15,0,.32,0,.49.02,0,.05.02.07.02-.07.04-.14.09-.22.14.09.13.22.27-.02.38.06.11.03.2-.02.31-.08.2-.08.43-.12.65-.02.1-.07.2-.1.3-.02.1-.06.22-.02.29.07.11.04.16.01.27-.07.23-.09.48-.13.72-.1.6-.26,1.19-.53,1.74-.05.09-.05.21-.06.32-.03.52-.07,1.03-.22,1.54-.06.21-.1.38-.32.51.04.03.09.05.11.09.03.04.06.12.05.12-.16.11-.09.22-.05.37.05.16-.03.36-.07.54,0,.04-.11.06-.17.1.21.24-.08.37-.13.56.07.09.11.16-.04.26-.08.05-.12.19-.15.3-.08.32-.17.65-.23.98-.06.33-.11.67-.14,1.01-.02.22.04.44.03.66,0,.26-.07.52-.05.77.04.45-.2.83-.25,1.25-.04.3-.17.58-.25.88-.11.39-.26.78-.33,1.19-.04.23.02.5.09.73.24.8.18,1.58-.05,2.36-.03.12-.05.24-.07.37-.04.31-.03.64-.1.94-.08.34-.11.65.11.96-.38-.05-.3-.4-.45-.63-.09.1-.16.18-.26.31-.35.06-.09-.28-.18-.4.08-.06.15-.12.22-.18.11-.1.1-.32.02-.45-.05-.07-.02-.2-.07-.27-.22-.29-.08-.59-.03-.89.04-.26.1-.52-.07-.76-.02-.03-.02-.09-.02-.13,0-.55-.03-1.1-.02-1.65,0-.25.13-.5.12-.75-.02-.46.2-.87.24-1.31.03-.36.02-.72.06-1.07.06-.43.13-.86.24-1.27.14-.48.35-.94.49-1.42.14-.45.21-.92.35-1.37.14-.46.06-.95.15-1.41.15-.81.3-1.63.5-2.43.12-.48.35-.93.48-1.4.08-.28.12-.6.1-.89-.05-.89.14-1.76.25-2.63.09-.66.16-1.33.44-1.95.18-.39.37-.78.51-1.18.14-.42.22-.86.35-1.28.27-.91.22-1.88.49-2.78.21-.69.01-1.41.17-2.11.09-.4.11-.81.19-1.21.03-.14.13-.26.2-.4.04-.09.16-.15.03-.28-.05-.05-.02-.19-.01-.29.01-.11.04-.22.06-.33.03.02.06.05.13.12-.05-.34-.08-.64-.12-.93,0-.02,0-.04,0-.06.24-.97.29-1.95.3-2.94,0-.23.04-.45.06-.68.05-.55.1-1.09.13-1.64.01-.24-.02-.48-.02-.71,0-.19.02-.37.03-.56,0-.13.02-.26.04-.39.02-.08.07-.16.07-.23,0-.11-.02-.23-.03-.34-.02-.2-.04-.41-.06-.61,0-.07,0-.14,0-.22.01-.21.05-.43.04-.64-.01-.31-.03-.6.09-.9.07-.18.09-.39.14-.58.02-.07.07-.13.1-.21-.13-.17-.12-.48-.03-.56,0-.13,0-.2,0-.28,0-.18.02-.35.02-.53.01-.33.02-.66.03-.98,0-.18,0-.36,0-.54.14.06.23.06.26-.13.04-.32.11-.64.15-.96,0-.03-.02-.08-.03-.11,0,.29-.27.51-.21.82.02.12.08.34-.17.38ZM40,22.57s-.01-.04-.02-.06c-.21.05-.41.11-.63.15-.1.02-.27-.05-.3,0-.1.14-.25.13-.38.17-.51.17-1.05.26-1.57.43-.25.08-.51.12-.75.2-.53.17-1.06.35-1.59.53-.58.2-1.17.39-1.74.6-.34.13-.67.29-.94.41-.36.12-.66.23-.95.33-.05,0-.07.08-.12.1-.23.1-.47.19-.71.27-.28.1-.56.16-.83.28-.69.31-1.37.63-2.04.97-.41.21-.8.44-1.19.68-.32.2-.63.43-.95.63-.48.3-.93.63-1.3,1.06-.06.07-.11.16-.16.25.05.02.07.04.09.04.53-.02,1.03-.08,1.54-.29.71-.29,1.45-.49,2.19-.7.27-.08.58-.03.84-.12.66-.23,1.31-.49,1.95-.77.34-.15.68-.33,1-.52.17-.1.3-.26.47-.35.46-.25.93-.47,1.39-.71.16-.08.39-.16.44-.29.11-.27.35-.39.54-.44.29-.07.42-.3.59-.46.15-.15.17-.13.24.01.17-.12.33-.24.49-.36.21-.14.41-.29.63-.4.21-.1.45-.12.65-.22.38-.19.75-.41,1.13-.62.25-.14.49-.31.75-.41.4-.17.82-.29,1.24-.43ZM28.21,18.46c-.25.09-.49.16-.71.27-.08.04-.16.16-.17.26,0,.06.11.16.19.2.45.23.93.19,1.41.16.39-.02.77-.06,1.16-.06.77,0,1.54,0,2.31.02.46.01.92.07,1.38.12.52.05,1.03.11,1.55.17.33.04.67.09,1,.13.27.03.54.02.81.05.09,0,.18.06.26.12.14.1.27.2.47.2.38,0,.76-.01,1.13-.1.2-.05.41-.04.64-.06-.21-.1-.38-.21-.57-.28-.41-.16-.82-.3-1.24-.44-.28-.09-.58-.14-.84-.27-.24-.12-.47-.14-.71-.06-.03,0-.07-.02-.1-.03-.2-.06-.4-.12-.61-.17-.14-.04-.29-.06-.42-.11-.16-.06-.3-.14-.45-.21-.05-.02-.11,0-.17,0,0,.02,0,.04,0,.06.06.03.11.05.22.1-.23,0-.41.11-.53-.1,0-.01-.08.02-.13.03-.04.01-.08.04-.13.04-.07,0-.16-.04-.22-.02-.22.08-.43,0-.64-.02-.28-.02-.55-.11-.82-.14-.29-.03-.59-.01-.88-.03-.17-.01-.34-.05-.56-.08-.18.11-.2.11-.45-.05-.12.06-.27.2-.33.17-.2-.1-.27-.02-.3.12-.11,0-.19,0-.27,0-.23,0-.47.08-.65-.15-.02-.03-.12,0-.18,0-.12-.02-.23.12-.35,0,0,0-.03,0-.05.01,0,.05-.02.11-.03.17ZM57.81,34.76c.05-.08.11-.13.11-.16-.05-.26-.07-.53-.18-.76-.15-.33-.35-.64-.55-.94-.26-.39-.52-.77-.82-1.14-.52-.64-1.06-1.27-1.59-1.9-.71-.84-1.43-1.68-2.15-2.52-.05-.06-.14-.08-.25-.14,0,.09,0,.11,0,.13.09.11.19.21.27.33.09.13.15.27.25.39.32.38.66.75.97,1.14.22.26.41.55.61.82.16.22.32.44.5.65.27.31.57.61.56,1.06.06.01.12,0,.15.03.28.28.55.56.81.85.07.08.1.19.16.28.26.36.55.7.79,1.07.14.23.21.5.34.8ZM36.52,88.33c-.12.86-.23,1.71-.34,2.56.25-.83.44-1.66.34-2.56ZM51.92,32.84l.1-.04c-.12-.33-.24-.66-.37-.99-.05-.12-.1-.24-.17-.35-.02-.04-.1-.05-.15-.07,0,.05,0,.11.01.16.07.16.15.32.22.48.12.27.24.53.37.8ZM45.3,13.33s-.05,0-.07,0c-.12.62-.06,1.46.15,1.64-.03-.57-.05-1.11-.08-1.64ZM41.4,62.45h-.06c-.16.57-.2,1.16-.09,1.75.05-.58.1-1.16.15-1.75ZM45.19,11.48v.92c.18-.15.19-.8,0-.92ZM38.69,77.46s.04,0,.06,0c.07-.39.14-.77.21-1.16-.04,0-.08-.01-.11-.02-.05.39-.1.78-.16,1.16ZM32.88,18.06c.4.15.82.16,1.24.07-.41-.02-.83-.04-1.24-.07ZM38.72,77.63s-.05,0-.07,0v1.01h.02c.02-.34.04-.67.05-1.01ZM50.6,29.87l.06-.05c-.09-.15-.18-.3-.27-.45-.02.01-.04.03-.06.04l.27.45Z"/>
      <path class="cls-1" d="M52.68,63.26c.12-.03.21-.06.32-.09-.24.37-.46.72-.68,1.07-.02,0-.04-.01-.06-.02.02-.15.02-.31.07-.46.2-.63.44-1.25.66-1.87.2-.57.5-1.05.85-1.52.05-.08.09-.17.12-.26.1-.27.19-.55.29-.82.15-.39.3-.79.48-1.17.25-.54.53-1.07.8-1.6.23-.46.46-.94.71-1.39.36-.64.76-1.27,1.13-1.91.31-.52.6-1.05.9-1.57.13-.23.27-.45.43-.66.07-.09.21-.11.3-.18.11-.07.21-.16.33-.26-.17,0-.3-.02-.46-.03-.19.2-.24.21-.45.05-.01,0-.03-.02-.03-.03-.06-.08-.13-.23-.17-.23-.14.02-.27.1-.4.16-.5.22-.88.59-1.22.99-.37.44-.85.65-1.38.82-.05.02-.12.03-.16.07-.41.36-.81.73-1.22,1.1-.48.44-.97.85-1.41,1.32-.41.44-.76.94-1.14,1.41-.23.29-.47.58-.69.88-.42.57-.81,1.15-1.1,1.79-.05.12-.13.23-.2.35.79-.21,1.06-1.08,1.76-1.42.1.12.07.2-.05.3-.1.08-.17.21-.24.31-.13.18-.25.38-.39.55-.26.33-.6.55-1.01.63-.11.02-.31.02-.32-.02-.06-.15-.28-.25-.14-.47.22-.33.39-.68.61-1.01.43-.64.87-1.29,1.34-1.91.34-.45.71-.88,1.08-1.3.4-.44.79-.88,1.23-1.28.61-.55,1.22-1.12,1.91-1.55.59-.37,1.13-.77,1.66-1.22.3-.25.64-.46.95-.7.2-.15.4-.31.58-.48.04-.04.04-.16,0-.22-.15-.3-.57-.69-.98-.58-.32.09-.63.19-1,.31.1.05.14.07.2.1-.08.27-.31.39-.53.5-.69.35-1.38.67-2.06,1.02-.53.27-1.04.58-1.57.87-.02-.01-.04-.03-.06-.04.09-.13.15-.27.26-.38.53-.52,1.15-.93,1.79-1.3.11-.07.21-.16.32-.24-.01-.02-.03-.05-.04-.07-.31.12-.63.24-.95.36.03-.13.07-.23.23-.23.04,0,.09,0,.13-.02.34-.09.7-.16,1.03-.28.39-.14.75-.34,1.13-.51,0-.03-.02-.06-.02-.09-.17.01-.33.04-.5.04-.45,0-.89,0-1.34.02-.17,0-.33.03-.5.06-.17.03-.33.11-.5.12-.22.01-.43-.02-.64-.04-.24.07-.49.16-.74.21-.1.02-.21-.08-.32-.09-.2,0-.41-.01-.59.04-.43.14-.85.29-1.25.48-.24.12-.44.32-.66.49-.12.08-.24.16-.36.24-.28.18-.56.37-.84.55-.06.04-.12.07-.19.1,0,.02,0,.04,0,.07.16-.02.33-.05.53-.08-.06.12-.11.22-.18.34.44-.2.85-.39,1.26-.57.09-.04.19-.03.28-.05.15-.04.29-.1.44-.13.23-.06.46-.1.7-.15.16.16.32-.02.49-.05.37-.06.73-.15,1.09-.25.3-.08.58-.19.88-.29.11-.03.22-.06.33-.08.01.02.02.05.03.07-.22.11-.44.21-.66.32,0,0-.01-.04-.01-.04-.61.18-1.21.36-1.81.53-.04.01-.1.03-.13.01-.21-.12-.44.08-.67-.03.03.04.07.07.1.11-.01.01-.02.03-.03.04-.45.17-.9.34-1.35.51-.17.06-.35.11-.52.17-.24.09-.46.22-.7.29-.35.11-.7.19-1.06.27-.08.02-.18-.04-.27-.06.05-.1.06-.24.14-.3.12-.09.28-.12.42-.19.15-.07.3-.15.45-.23.03-.02.04-.07.06-.09-.28.08-.56.15-.83.23,0-.02-.02-.04-.03-.05.2-.11.4-.22.6-.34.13-.08.25-.18.38-.25.14-.08.3-.15.45-.22.04-.02.11-.02.12-.05.15-.34.52-.38.78-.56.15-.1.28-.22.43-.3.36-.18.72-.35,1.08-.52.09-.04.17-.11.26-.15.14-.05.28-.1.43-.12.7-.09,1.4-.17,2.09-.26.22-.03.42-.11.64-.15.23-.04.47-.08.7-.1.35-.02.69-.02,1.04-.04.12,0,.23,0,.35,0,.02,0,.05.02.06.01.29-.23.6.02.9-.03.31-.06.63-.05.94-.08.26-.03.52-.06.77-.11.14-.03.26-.1.42-.17-.21-.29-.41-.43-.76-.44-.84-.03-1.66-.15-2.47-.4-.51-.15-1.03-.3-1.54-.44-.41-.11-.83-.2-1.23-.33-.33-.11-.65-.28-.98-.39-.23-.07-.48-.09-.73-.1-.28-.01-.4-.1-.42-.32-.36-.08-.71-.15-1.06-.22-.22-.04-.43-.09-.65-.11-.05,0-.1.06-.16.09-.09-.04-.19-.09-.31-.15.04-.04.08-.06.11-.09-.24-.16-.37-.11-.41.15-.12-.06-.29.05-.36-.16,0-.02-.18.02-.28,0-.15-.01-.3-.04-.44-.05-.15,0-.3,0-.45.01-.19.02-.36,0-.51-.14-.04-.04-.12-.07-.18-.07-.16.01-.3.01-.45-.08-.08-.04-.22.04-.34.06-.09.01-.17,0-.32,0-.13.13-.3.18-.41-.08-.16.12-.29.23-.45.34-.06-.25.06-.41.28-.43.08,0,.17-.02.24,0,.17.04.29,0,.41-.12.16-.15.34-.23.56-.11.05-.23.31-.32.59-.23.09.03.19,0,.28.02.08.02.17.05.22.1.08.11.16.22.3.16.08-.03.11-.15.17-.23.02-.03.03-.07.06-.08.17-.09.52.07.54.2.21.05.39.1.57.14.51.12,1.02.23,1.52.36.12.03.21.13.33.16.32.08.66.13.98.23.26.08.5.2.75.3.23.09.47.16.71.23.05.01.12-.02.18-.05.17-.09.49,0,.65.08.23.11.49.18.74.24.53.12,1.08.17,1.59.35.53.2,1.07.28,1.64.34-.11.17-.28.13-.43.11-.31-.04-.62-.12-.93-.15-.25-.03-.51,0-.79,0,.18.19.42.24.63.28.68.11,1.37.19,2.05.28.08.01.18-.03.26-.04-.03-.07-.07-.14-.1-.21-.07-.13-.11-.29-.21-.4-.22-.23-.44-.48-.7-.65-.41-.26-.71-.64-.94-1.03-.23-.41-.51-.77-.76-1.16-.11-.17-.18-.38-.26-.58-.01-.03.02-.11.03-.11.11,0,.22,0,.32.04.07.02.13.1.17.16.3.43.58.87.89,1.29.31.43.64.84.97,1.26.02-.01.05-.03.07-.04-.12-.27-.25-.55-.36-.82-.06-.14-.09-.28-.15-.42-.25-.56-.47-1.13-.76-1.66-.08-.15-.08-.4-.33-.47-.04,0-.08-.15-.06-.22.06-.29-.1-.52-.21-.75-.21-.46-.46-.9-.7-1.35-.08-.15-.2-.29-.31-.43-.26-.33-.53-.66-.79-1-.03-.04,0-.13,0-.19,0-.06,0-.12.01-.2-.11.05-.17.07-.25.11v-.44s.04-.01.06-.02c.04.09.08.18.13.27,0,0,.04-.03.11-.09.27.29.53.6.82.87.14.12.34.18.4.37.08.24.21.42.42.57.08.05.09.19.13.3.22.54.43,1.09.67,1.62.24.55.53,1.08.75,1.63.26.66.46,1.34.7,2.01.12.34.32.62.59.85.05.05.06.15.1.22.13.22.27.44.42.64.04.06.13.1.2.1.14,0,.29-.02.44-.04.41-.05.42-.07.49-.48.01-.1.03-.2.05-.3.02,0,.04-.01.06-.02.03.05.08.1.08.15,0,.07,0,.15-.02.22-.09.23.06.39.17.55.08.11.16.09.22-.01.35-.54.89-.87,1.4-1.23.25-.17.48-.37.73-.54.75-.51,1.51-1.02,2.27-1.53.43-.29.88-.56,1.27-.9.7-.62,1.36-1.3,1.72-2.2.02-.06.02-.13.03-.2-.06,0-.12,0-.18.01-.32.11-.65.21-.97.33-.36.13-.75.23-1.07.44-.54.34-1.03.77-1.56,1.13-.73.5-1.25,1.2-1.84,1.83-.15.16-.31.31-.52.36-.02-.01-.04-.03-.06-.04.05-.11.08-.24.15-.33.2-.24.42-.47.63-.71.35-.39.68-.81,1.07-1.17.46-.42.96-.8,1.47-1.16.23-.17.53-.25.79-.38.12-.06.22-.19.35-.22.35-.1.7-.16,1.09-.24.05-.26.31-.17.51-.18.34-.02.47-.15.49-.49,0-.12.04-.24.05-.37.02-.42.04-.83.05-1.25,0-.03,0-.06,0-.09.05-.4.09-.81.16-1.2.04-.2.16-.38.28-.56-.25.34-.07.73-.13,1.09-.01.07.04.14.06.22.01.05.04.11.04.16-.01.67-.03,1.35-.05,2.02,0,.04,0,.09.01.17.48-.04.96-.07,1.43-.12.24-.02.47-.07.71-.08.08,0,.17.04.26.07,0,.02,0,.04-.01.06-.05.02-.09.04-.14.04-.31.02-.61.07-.91.16-.17.05-.37,0-.55.04-.21.06-.44.07-.61.24-.01.01-.02.03-.03.03-.39-.05-.38.28-.47.51-.31.72-.76,1.35-1.3,1.92-.63.67-1.36,1.21-2.15,1.7-.75.47-1.53.9-2.2,1.49-.48.43-1.02.79-1.53,1.19-.09.07-.17.15-.26.22,0,.03.01.05.02.08.14,0,.28.03.42,0,.24-.06.48-.13.71-.22.2-.08.37-.23.56-.32.39-.18.78-.36,1.18-.5.32-.12.66-.19.98-.29.15-.05.29-.15.45-.18.36-.05.72-.07,1.08-.11.28-.04.55-.11.83-.15.49-.08.98-.16,1.47-.21.53-.05,1.07-.07,1.6-.1.09,0,.17.02.26.03.33.04.67.09,1,.13.21.02.42.02.63.03,0,.19-.13.15-.24.15-.34-.02-.69-.09-1.03-.08-.98.03-1.96.05-2.93.15-.66.07-1.32.25-1.97.4-.68.15-1.37.29-2.03.49-.43.13-.84.34-1.25.53-.25.11-.31.26-.19.39.06.06.17.11.26.11.22.02.43,0,.65.05-.2.03-.4.07-.6.1,0,.02,0,.05,0,.07.05.02.1.04.16.06-.02.02-.04.04-.05.05-.24.13-.49.25-.72.39-.06.04-.08.14-.12.21.1.04.19.09.29.11.22.02.44.03.67.04,0,.02,0,.05,0,.07-.23.02-.45.03-.68.05,0,.03,0,.06,0,.08.29,0,.57,0,.86,0,.18,0,.34-.01.46-.18.05-.06.19-.09.28-.08.41.02.82.06,1.23.09.37.03.73.05,1.1.08.06,0,.11.03.17.04,0,.02,0,.05,0,.07-.06.01-.11.03-.17.03-.38,0-.76.01-1.14.02-.02,0-.05.01-.07,0-.31-.18-.61.02-.91.04-.38.02-.77,0-1.15,0-.13,0-.27,0-.4,0,0,.03-.02.05-.02.08.12.07.25.15.37.22.57.3,1.14.59,1.72.89.01,0,.03.01.04.02.08.1.16.2.24.3-.11.05-.22.12-.33.15-.24.07-.45.01-.64-.16-.38-.33-.81-.61-1.3-.75-.33-.1-.66-.18-.98-.29-.22-.08-.43-.21-.65-.3-.22-.09-.44-.18-.67-.25-.05-.01-.14.02-.16.07-.03.05-.04.15-.02.2.17.34.14.62-.1.89-.17.18-.15.28.1.35.08.02.17.03.26.05.12.03.15.13.07.22-.08.09-.2.15-.31.22-.02-.02-.05-.03-.07-.05,0,.08,0,.17,0,.25.14,1.05.08,2.09,0,3.14-.02.27,0,.54-.03.81-.06.64-.13,1.28-.18,1.92-.03.41,0,.83-.05,1.23-.1.71-.23,1.42-.38,2.12-.09.43-.24.84-.38,1.26-.18.53-.33,1.06-.45,1.61-.04.19-.15.37-.23.55-.24-.13-.36-.48-.3-.72.06-.23.08-.47.15-.69.13-.39.3-.78.45-1.16.02-.06.05-.12.06-.19.03-.22.05-.43.2-.63.13-.18.15-.45.19-.68.11-.64.21-1.28.29-1.93.04-.31,0-.63.03-.94.06-.55.16-1.09.22-1.64.03-.25,0-.5,0-.75.05-.81.12-1.62.16-2.44.02-.32-.02-.64-.04-.95-.39-.01-.56.16-.65.47-.2.74-.43,1.46-.63,2.2-.24.9-.45,1.82-.69,2.72-.11.43-.28.84-.42,1.26-.08.26-.14.53-.22.79-.02.07-.06.13-.09.2-.07.18-.23.33-.12.55.02.04-.05.12-.07.19-.05-.03-.12-.05-.16-.09-.21-.2-.44-.39-.47-.7,0-.08.05-.18.1-.25.08-.11.21-.19.27-.31.51-.97.91-1.98,1.16-3.05.14-.59.34-1.17.5-1.75.16-.54.32-1.08.46-1.63.03-.14,0-.29-.02-.51-.14.08-.24.11-.28.17-.23.34-.45.69-.66,1.04-.25.4-.51.8-.75,1.21-.27.47-.56.93-.76,1.43-.26.65-.59,1.23-1.05,1.75-.01.02-.02.04-.04.07.03.01.06.02.09.04.02,0,.05.02.12.04-.22.4-.45.76-.62,1.16-.1.24-.19.48-.31.7-.1.18-.18.36-.27.54-.25.45-.5.9-.74,1.36-.16.29-.27.6-.58.8-.21.14-.34.39-.49.6-.04.05.02.17-.01.23-.11.22-.24.42-.36.63-.01.02-.02.03-.05.08ZM57.72,48.76c.39.16.38.16.67.53.04.05.17.07.22.04.17-.1.32-.24.5-.37-.11-.04-.21-.04-.26-.09-.35-.32-.71-.36-1.13-.1ZM59.83,51.47c-.02-.23-.03-.44-.04-.6-.12.14-.26.3-.41.48.08,0,.15,0,.22.02.07.02.13.06.23.11ZM62.95,47.96c-.15-.2-.2-.2-.47-.06.03.03.08.09.12.14-.02.01-.03.02-.05.04.13-.04.26-.07.39-.11ZM53.78,45.93c-.06-.09-.26.04-.19-.17h-.35c.38.33.38.33.55.17ZM59.69,49.29s0-.07,0-.11c-.22.01-.44.03-.66.04v.07h.66Z"/>
      <path class="cls-1" d="M42.51,27.51c.08.04.16.08.25.12-.06.12-.14.25-.2.39-.04.09-.04.2-.06.3,0,.04,0,.08,0,.12-.16.47-.32.93-.49,1.4-.1.29-.2.59-.31.88-.16.42-.38.82-.5,1.26-.14.52-.19,1.06-.29,1.59-.03.15-.07.3-.11.45-.09.4-.17.81-.27,1.21-.07.28-.19.55-.28.82-.14.43-.25.87-.41,1.28-.19.48-.42.96-.66,1.42-.08.15-.23.26-.35.38-.18.17-.41.11-.48-.13-.02-.06-.04-.12-.07-.19-.04.02-.07.03-.11.05.03-.37.18-.78-.3-1.01-.03.04-.06.09-.09.13-.37-.19-.46-.54-.21-.84.18-.23.38-.45.58-.67.22-.25.33-.54.43-.86.18-.6.44-1.18.65-1.77.21-.58.41-1.17.62-1.75.14-.4.31-.8.44-1.2.12-.41.2-.83.3-1.24.06-.24.12-.48.18-.73-.27.18-.45.38-.56.69-.22.62-.47,1.22-.73,1.83-.23.55-.5,1.09-.73,1.65-.11.25-.19.5-.26.76-.03.13-.02.27-.03.45-.04-.1-.06-.16-.09-.24-.28.17-.39.42-.41.74-.03.41-.08.83-.13,1.24-.02.18-.15.26-.3.24-.15-.03-.15-.18-.12-.31.08-.35.18-.71.26-1.06.02-.09,0-.19.03-.28.09-.33.14-.68.28-.99.58-1.33,1.2-2.64,1.77-3.98.18-.43.31-.87.55-1.28.1-.17.18-.35.28-.52.07-.1.16-.18.25-.27.13-.13.35-.17.39-.41,0-.06.13-.1.23-.16.02.12.04.22.06.39.09-.1.16-.15.2-.22.13-.27.25-.55.38-.81.2-.39.42-.78.64-1.17.05-.09.04-.27.23-.24.01,0,.04-.14.07-.21.1-.18.21-.36.32-.54.02-.02.06-.03.15-.07-.16.38-.27.7-.42,1.01-.29.58-.61,1.14-.91,1.71-.35.67-.71,1.33-1.01,2.02-.18.41-.23.87-.35,1.31-.09.33-.21.65-.31.98-.15.52-.27,1.04-.43,1.56-.13.43-.3.84-.45,1.26-.19.53-.33,1.08-.56,1.59-.27.6-.53,1.2-.63,1.84-.07.41-.05.83-.06,1.25,0,.05.08.15.1.14.09-.02.21-.05.26-.12.13-.19.24-.41.34-.62.17-.38.35-.76.49-1.15.11-.3.16-.62.24-.93.04-.16.1-.31.16-.46.15-.42.21-.85.28-1.28.06-.34.2-.67.3-1,0-.03,0-.06,0-.09-.02-.32,0-.63.18-.91.08-.12.05-.31.1-.45.09-.29.21-.56.3-.85.13-.4.26-.81.38-1.21.02-.06.01-.14.05-.19.27-.37.24-.85.46-1.23.06-.1.15-.19.24-.31-.09-.23.23-.28.29-.47,0,0,0,0,0,0ZM41.29,28.04s.06.02.1.03c.05-.18.1-.36.14-.55,0-.02-.06-.05-.12-.1-.05.23-.08.43-.12.62Z"/>
      <path class="cls-1" d="M67.08,16.63s-.08.07-.13.08c-.04,0-.09-.01-.12-.03-.26-.15-.55-.02-.81-.07-.41-.08-.75.18-1.14.19-.36.01-.72.1-1.07.16-.41.06-.82.13-1.23.2-.41.08-.81.17-1.22.25-.16.03-.33.02-.5,0,.44-.32.93-.38,1.44-.42,0,.02.01.04.02.05.06-.06.11-.12.17-.18,0-.02-.01-.03-.02-.05-.16.02-.32.03-.47.06-.53.1-1.07.15-1.57.33-.41.15-.83.08-1.23.21-.28.09-.55.2-.82.3-.1.04-.2.09-.3.13-.27.12-.48.29-.66.52-.06.07-.16.11-.28.19-.02-.18-.03-.29-.04-.46-.19.09-.36.17-.53.26-.46.28-.94.5-1.49.54-.21.02-.41.09-.62.14-.01,0-.03.02-.04.01-.12-.02-.24-.05-.36-.08.09-.09.16-.21.26-.25.22-.07.46-.07.68-.14.3-.1.58-.23.87-.35.68-.29,1.35-.6,2.03-.86.79-.31,1.59-.61,2.4-.85.57-.17,1.17-.29,1.76-.37.31-.04.63.06.94.12.38.07.76.18,1.16.11.37-.06.74-.08,1.11-.11.32-.02.64-.01.96-.04.14-.01.29-.06.41-.13.18-.11.35-.15.56-.14.17.01.35-.05.52-.05.2,0,.44-.12.58.13.05.08.11.23.08.27-.07.09-.21.19-.32.2-.33.03-.66,0-.99,0,0,.03.01.06.02.09Z"/>
      <path class="cls-1" d="M45.65.35c.15.1.31.19.51.31-.02-.22-.04-.41-.05-.6.21-.11.3.08.35.2.16.4.32.81.43,1.24.08.31.11.65.12.97.02.54-.03,1.09.03,1.63.05.46.09.92.11,1.38.02.39-.03.79-.03,1.18-.01.87,0,1.75-.03,2.62-.01.48-.05.97-.08,1.45,0,.04,0,.07,0,.11.04.44.03.88-.07,1.32-.08.37-.05.77-.08,1.15-.03.36-.08.72-.11,1.07,0,.11.02.22.04.33,0,.04.02.07.02.11-.08.61-.16,1.22-.24,1.82-.03,0-.06,0-.09,0-.02-.05-.05-.1-.05-.15-.02-.36-.03-.72-.04-1.08-.01-.23-.04-.47-.05-.7,0-.06.07-.12.08-.14-.05-.13-.13-.23-.12-.33.03-.52.1-1.04.13-1.56.03-.47.05-.93.07-1.4.04-.77.09-1.54.11-2.31.01-.75,0-1.49-.02-2.24-.02-.79-.06-1.57-.07-2.36-.01-.5.02-1,0-1.5-.02-.46-.06-.93-.15-1.38-.08-.38-.34-.67-.62-.93-.06-.06-.1-.13-.15-.2.02-.02.04-.04.06-.05Z"/>
      <path class="cls-1" d="M53.12,13.75c.02-.12.01-.22.04-.23.31-.12.32-.49.54-.67.12-.1.2-.3.39-.24.12-.15.23-.28.34-.41.28-.31.56-.62.85-.92.52-.53,1.04-1.05,1.56-1.58.28-.28.55-.56.85-.83.14-.13.33-.2.5-.3.08-.05.18-.07.24-.13.44-.41.87-.83,1.31-1.23.34-.31.68-.63,1.07-.87.68-.44,1.2-1.06,1.83-1.56.2-.16.23-.34.18-.56-.04-.19-.1-.39.17-.47.24-.07.5.04.61.26.13.26,0,.47-.13.67-.35.5-.82.89-1.3,1.27-.72.58-1.41,1.19-2.12,1.77-.54.45-1.09.88-1.64,1.32-.35.28-.71.54-1.04.83-.17.15-.28.35-.44.52-.36.39-.73.79-1.11,1.16-.12.11-.3.16-.48.24-.04.36-.35.45-.68.54.09.18.04.29-.14.38-.16.08-.29.22-.43.33-.26.21-.51.41-.77.62-.04.03-.1.05-.21.09Z"/>
      <path class="cls-1" d="M35.26,6.04c.37-.09.48.12.59.3.11.19.22.32.46.34.11,0,.21.14.3.23.1.1.19.22.27.33.09.11.17.23.26.34.14.17.3.33.43.51.41.58.95,1.04,1.42,1.57.06.06.1.16.11.25.02.26.11.48.29.69.24.3.43.65.64.98.44.71.92,1.41,1.31,2.15.3.56.61,1.11.97,1.63.11.16.25.3.19.52,0,.04.04.11.09.14.32.23.43.61.62.92.02.03.02.07.04.1.13.15.09.28-.04.4-.13.13-.28.11-.4.02-.37-.3-.68-.64-.73-1.15,0-.06-.04-.12-.08-.17-.06-.07-.13-.12-.19-.18-.19-.19-.39-.35-.41-.68-.03-.53-.31-.98-.58-1.43-.2-.32-.36-.67-.55-1-.11-.2-.24-.41-.36-.61-.19-.32-.37-.65-.59-.94-.29-.39-.64-.74-.93-1.13-.18-.25-.29-.56-.45-.83-.15-.25-.32-.5-.5-.73-.16-.21-.38-.39-.52-.61-.23-.38-.49-.73-.82-1.03-.22-.19-.45-.37-.65-.57-.09-.09-.13-.23-.21-.38Z"/>
      <path class="cls-1" d="M50.58,23.68c.19-.29.44-.14.68-.06.06.02.13.03.2.04.1.02.18,0,.28.11.1.1.35.17.48.12.15-.06.2,0,.29.05.2.11.4.2.61.3.03.01.07-.02.1-.02.05,0,.11-.03.14,0,.57.41,1.12.84,1.69,1.24.23.16.52.25.76.42.32.22.65.43.89.72.19.23.44.35.66.51.23.17.37.4.56.6.08.09.22.11.34.17.04.02.08.02.11.05.56.57,1.13,1.12,1.66,1.71.47.52.93,1.07,1.35,1.64.2.27.31.62.45.94.03.06,0,.14,0,.25-.19-.18-.36-.32-.49-.48-.34-.43-.65-.87-.98-1.3,0-.01-.03-.03-.02-.03.09-.29-.21-.31-.33-.46-.15-.2-.34-.38-.52-.56-.2-.21-.39-.41-.59-.61-.41-.4-.81-.82-1.24-1.19-.26-.23-.58-.39-.87-.59-.39-.26-.77-.53-1.17-.78-.4-.24-.77-.52-1.21-.7-.53-.23-1.02-.57-1.54-.83-.53-.27-1.09-.51-1.63-.76-.03-.01-.07-.03-.11-.03-.29,0-.52-.07-.55-.42ZM54.76,25.46s.03-.05.05-.07c-.16-.09-.32-.18-.48-.27-.01.02-.03.04-.04.06.16.09.31.18.47.27Z"/>
      <path class="cls-1" d="M44.23,16.58c-.06-.11-.15-.22-.19-.34-.12-.42-.24-.85-.34-1.28-.09-.39-.17-.78-.24-1.18-.04-.23-.07-.46-.1-.69-.04-.3-.07-.59-.11-.89-.05-.3-.13-.6-.18-.91-.1-.58-.19-1.17-.28-1.75-.06-.43-.1-.86-.18-1.29-.06-.32-.18-.62-.26-.93-.12-.49-.25-.98-.35-1.48-.11-.57-.21-1.15-.27-1.73-.08-.83-.13-1.67-.16-2.51-.02-.48-.09-.97.19-1.42.03-.04.05-.09.08-.13.07.05.13.1.21.16,0,.15.02.34.03.53.02.43.04.85.06,1.28,0,.13.05.26.05.39,0,.32-.03.63,0,.95.05.58.11,1.15.19,1.73.11.78.23,1.57.37,2.34.11.63.28,1.25.39,1.89.09.54.1,1.09.19,1.63.09.61.21,1.23.34,1.83.1.47.27.93.38,1.4.07.28.08.58.12.87,0,.02,0,.05,0,.07.16.25.12.53.16.8.03.22.02.44.03.66-.04,0-.08.02-.12.03Z"/>
      <path class="cls-1" d="M39.62,26.09c.04.06.09.11.12.17.04.07.1.18.07.22-.06.11-.15.24-.26.29-.19.09-.41.12-.61.2-.59.23-1.01.69-1.44,1.14-.23.24-.41.51-.62.77-.04.05-.08.12-.08.18.01.38-.27.57-.52.72-.59.35-1.02.86-1.47,1.36-.51.56-1.01,1.13-1.51,1.71-.12.14-.19.31-.3.45-.21.28-.45.54-.66.81-.13.17-.22.36-.33.54-.26.44-.52.88-.77,1.32-.08.15-.16.3-.24.44-.06.11-.1.24-.28.23-.07,0-.14.13-.23.19-.21.14-.33.13-.44-.04-.09-.15-.03-.35.14-.46.06-.04.1-.12.13-.16.05,0,.12,0,.15-.03.17-.18.34-.36.48-.57.29-.4.56-.8.83-1.21.14-.22.24-.46.39-.67.19-.26.42-.49.61-.75.14-.19.24-.42.38-.61.27-.35.54-.7.84-1.02.51-.53,1.04-1.04,1.56-1.56.26-.25.53-.49.79-.74.06-.06.09-.15.13-.22.33-.53.78-.96,1.25-1.37.22-.19.47-.37.69-.56.04-.03.02-.12.05-.15.29-.31.59-.62,1.05-.68.03,0,.07.01.11.02,0,.02-.01.03-.02.05Z"/>
      <path class="cls-1" d="M40.42,4.76c-.26.24-.1.46.09.67.02.02.04.05.05.07.16.45.31.9.47,1.35.09.24.18.48.29.72.12-.95-.33-1.79-.55-2.69-.07-.01-.15-.03-.29-.05.37-.16.14-.42.13-.61,0-.39-.09-.78-.13-1.18,0-.08.05-.2.11-.25.1-.07.18-.07.22.11.09.49.23.98.33,1.47.08.39.13.78.19,1.16.07.4.15.8.2,1.2.07.54.14,1.08.16,1.63.01.32.13.6.19.9.12.67.22,1.37.46,2,.2.54.14,1.1.33,1.63.02.06,0,.13,0,.25-.19-.17-.19-.36-.23-.53-.11-.53-.21-1.06-.35-1.59-.09-.37-.24-.73-.35-1.1-.12-.42-.22-.84-.33-1.26-.19-.68-.38-1.36-.66-2.02-.14-.34-.24-.7-.36-1.05-.02-.05-.05-.1-.08-.15-.08-.1-.2-.19-.24-.3-.08-.22-.23-.39-.38-.57-.03-.03-.03-.08-.04-.12-.04-.12-.06-.26-.13-.36-.25-.37-.52-.74-.79-1.1-.04-.05-.11-.07-.16-.12-.05-.04-.12-.07-.12-.12-.02-.32-.34-.45-.45-.71-.06-.14-.1-.48,0-.59.03-.03.13-.03.16,0,.14.13.28.26.39.41.34.47.68.94.99,1.44.25.4.45.84.68,1.26.04.07.11.11.19.19Z"/>
      <path class="cls-1" d="M45.12,82.97c.08-.08.15-.14.24-.21-.03-.02-.06-.03-.12-.06.23-.49.44-.99.69-1.46.2-.37.44-.72.67-1.08.02-.04.05-.08.04-.12-.05-.36.14-.71.03-1.07-.01-.03.01-.09.04-.12.06-.1.11-.18,0-.29-.03-.03-.04-.12-.03-.17.08-.32.15-.64.26-.95.09-.26.23-.5.33-.76.09-.23.16-.47.22-.71.11-.42.17-.85.31-1.25.1-.31.31-.58.44-.87.07-.15.05-.34.12-.49.18-.41.38-.82.6-1.21.04-.07.22-.06.34-.09-.01.08-.01.17-.03.24-.06.21-.12.41-.19.61-.04.12-.1.24-.16.4.08.18.05.23-.17.35-.06.03-.08.13-.12.19,0,.01,0,.03,0,.04-.07.15-.23.34-.18.44.09.22,0,.3-.11.45-.09.11-.12.28-.18.43-.02.05-.04.09-.06.14-.05.11-.12.19-.03.33.11.17-.06.23-.2.33.07.04.12.07.17.1-.1.34-.23.67-.29,1.01-.04.2-.12.36-.23.52-.01.02-.03.05-.02.06.22.35-.12.51-.24.75-.05.12-.04.27-.06.4,0,.06,0,.14-.03.19-.22.26-.07.55-.09.82,0,.08-.05.21-.1.23-.2.08-.14.25-.16.39-.01.07-.05.15-.08.22-.02.04-.05.07-.07.11-.22.55-.44,1.1-.67,1.65-.05.11-.15.21-.24.3-.12.14-.32.22-.31.46,0,.05-.12.11-.19.18,0,.05.02.12.03.19h-.35s-.02-.04-.04-.06c.06-.06.11-.14.19-.19.15-.1.21-.2.05-.36Z"/>
      <path class="cls-1" d="M43.32,88.96c0,.06.04.16.02.17-.25.15-.11.3.03.47-.34-.02-.21.24-.24.38-.16.66-.31,1.31-.64,1.92-.17.31-.23.69-.33,1.04-.09.3-.2.59-.27.89-.05.18-.06.37-.08.56-.02.13,0,.28-.05.39-.05.09-.18.15-.29.24-.05.35-.11.74-.17,1.13-.01.11-.12.24.07.31,0,0,0,.12-.03.14-.22.13-.17.36-.19.54-.03.17-.12.25-.25.27-.14.02-.26-.07-.24-.24.03-.27.06-.53.09-.8,0-.06.02-.11.03-.2-.07.01-.12.02-.19.03,0-.07-.02-.14-.03-.23-.05.02-.1.03-.16.05.01-.05.02-.11.04-.16.03-.09.05-.19.09-.27.07-.17.15-.35.22-.52.05-.11.1-.21.14-.32.07-.16.05-.3-.09-.39.04-.12.07-.24.12-.34.15-.23.29-.47.47-.68.15-.18.24-.36.29-.59.1-.43.27-.85.4-1.28.04-.15.04-.31.07-.47.01-.06.03-.14.08-.17.45-.39.57-.94.79-1.45.06-.15.16-.28.25-.42.02,0,.05,0,.07.01Z"/>
      <path class="cls-1" d="M24.71,53.51c.17.17.37.31.49.5.16.25.25.54.39.79.08.15.22.26.3.4.18.31.36.63.51.96.18.37.34.76.5,1.14.06.14.08.3.13.45.03.09.1.17.13.26.05.15.12.3.13.46.02.38.2.7.35,1.03.39.85.79,1.7,1.06,2.61.19.65.5,1.26.74,1.9.11.29.18.59.25.88.15.58.33,1.16.42,1.75.08.54.06,1.09.08,1.66-.24-.13-.33-1.21-.22-1.38-.09-.33-.17-.61-.25-.89-.11-.39-.22-.79-.33-1.18-.07-.27-.13-.54-.22-.8-.07-.18-.05-.45-.3-.45-.06-.08-.11-.12-.13-.18-.04-.08-.09-.16-.1-.25-.02-.25.04-.51-.24-.68-.05-.03-.05-.16-.07-.24-.07-.25-.13-.51-.22-.75-.04-.13-.13-.25-.2-.37-.02-.04-.07-.09-.06-.1.18-.23-.12-.36-.12-.55,0-.09-.07-.17-.09-.26-.04-.19-.06-.37-.25-.49-.08-.05-.11-.19-.14-.3-.04-.15-.06-.31-.09-.49-.08.04-.14.06-.22.1v-.6c-.07,0-.12-.02-.17-.02-.02-.13.1-.3-.16-.31.14-.25-.05-.28-.22-.35.05-.07.09-.13.12-.19-.02,0-.03,0-.05,0-.02-.13-.04-.26-.06-.38-.02-.12-.04-.24-.05-.31-.07-.13-.13-.22-.19-.32-.07-.11-.17-.2-.21-.31-.07-.17-.08-.36-.14-.53-.03-.09-.11-.16-.15-.25-.13-.34-.48-.55-.52-.93-.02-.22-.09-.4-.24-.57-.11-.12-.19-.26-.28-.4.02-.02.04-.04.06-.05Z"/>
      <path class="cls-1" d="M69.45,48.26c.21-.08.38-.14.63-.24-.22-.11-.39-.2-.57-.29,0,.02-.02.03-.03.05.11.06.22.12.36.2-.36.08-.68.15-.95-.17-.04-.04-.14-.07-.19-.06-.54.16-1.08.15-1.64.12-.51-.02-1.03,0-1.54,0-.03,0-.05-.01-.08-.02.21-.26.37-.29.57-.18.09,0,.17-.02.26-.02.29.03.57.06.86.09l.02-.08c-.12-.04-.24-.08-.39-.13.05-.04.07-.07.09-.07.37.05.74.12,1.11.15.28.03.56.02.85.02.26,0,.53,0,.79.01.16.01.33.07.49.1.42.09.84.22,1.26.24.39.02.75.13,1.11.25.58.18,1.15.37,1.71.61.74.31,1.47.66,2.07,1.22.18.17.41.3.64.41.13.06.29.04.44.06.04,0,.08.02.14.04-.09.09-.16.16-.27.28.05.02.09.03.12.06.04.05.08.11.12.16-.08,0-.17.05-.24.02-.26-.12-.52-.26-.77-.41-.3-.18-.57-.4-.87-.58-.4-.24-.8-.47-1.21-.67-.47-.23-.95-.43-1.44-.61-.3-.11-.62-.19-.94-.24-.42-.07-.85-.1-1.27-.16-.16-.02-.34-.04-.48-.11-.2-.09-.38-.14-.58-.03-.02.01-.04,0-.06,0-.01,0-.03-.01-.08-.04Z"/>
      <path class="cls-1" d="M46.27,28.72c.07.06.13.09.15.13.05.09.09.18.12.27.02.05.03.13,0,.15-.18.15-.08.29-.03.46.04.15.09.32-.02.5-.04.06.04.21.1.29.03.05.13.06.2.08-.03.04-.06.07-.09.11-.06,0-.11,0-.25-.01.13.26.23.47.34.68.02.05.06.11.06.16.06.72.13,1.44.18,2.17.01.14-.04.28-.04.42,0,.14.02.27.03.41.03.31.06.61.09.92.03.35.07.7.09,1.05.02.35.02.71.05,1.06.04.44.11.88.16,1.32,0,.06,0,.12,0,.15-.12.02-.22.04-.32.06-.12.03-.26-.19-.21-.36.1-.32.08-.64,0-.96-.02-.06,0-.13,0-.2.01-.19.06-.37-.11-.53-.06-.05-.06-.18-.07-.27-.02-.34-.01-.68-.05-1.02-.03-.29-.1-.58-.15-.86-.07-.4-.13-.81-.18-1.22-.03-.25-.06-.51-.08-.76,0-.13-.08-.28.08-.38-.06-.31.11-.65-.08-.95-.02-.02-.04-.05-.04-.07.02-.29.05-.59.06-.88,0-.24,0-.49,0-.74,0-.38,0-.76,0-1.19Z"/>
      <path class="cls-1" d="M64.78,10.88c.17.23.16.4.04.57-.11.15-.22.32-.35.44-.17.16-.24.11-.34-.1-.02-.05-.18-.05-.27-.07.04-.03.08-.06.12-.09-.07.07-.14.14-.2.22-.06.08-.23.09-.17.27.01.03-.17.13-.26.2-.23.2-.47.4-.69.61-.19.17-.4.29-.65.38-.39.14-.74.36-1.12.51-.39.16-.79.29-1.19.43-.21.08-.41.16-.62.25-.15.06-.29.13-.44.19-.39.15-.78.31-1.17.45-.3.1-.61.17-.91.27-.18.06-.35.18-.53.25-.33.12-.66.23-.99.34-.34.11-.69.23-1.05.35.14-.21.29-.34.54-.43.5-.17.97-.43,1.46-.65.27-.12.55-.2.82-.31.05-.02.1-.03.14-.06.54-.33,1.16-.48,1.75-.68.11-.04.23-.07.32-.14.41-.29.91-.28,1.35-.46.09-.04.19-.06.29-.1.41-.18.83-.35,1.23-.57.32-.18.62-.41.91-.63.23-.18.44-.38.66-.56.07-.05.15-.17.23,0,0,.01.11-.03.2-.06-.07-.06-.11-.1-.19-.17.38-.23.73-.44,1.08-.65Z"/>
      <path class="cls-1" d="M59.73,10.97c.01.28-.24.37-.4.43-.69.28-1.31.68-1.97,1.02-.34.17-.68.33-1,.53-.16.09-.26.28-.4.39-.44.32-.89.63-1.33.94-.3.21-.59.43-.87.65-.3.24-.59.49-.89.73-.05.04-.17.04-.21,0-.1-.08-.25-.17-.13-.34.08-.11.18-.21.28-.3.13-.12.26-.23.41-.32.14-.09.31-.14.47-.21.03-.01.08,0,.1-.03.49-.39.98-.79,1.47-1.19.35-.29.7-.59,1.07-.85.39-.27.8-.5,1.2-.75.12-.08.24-.16.36-.25.04-.02.07-.07.11-.07.51-.07.89-.38,1.29-.67.27-.19.46-.06.47.27Z"/>
      <path class="cls-1" d="M51.29.2c.13.12.22.2.31.3.04.04.07.11.07.17,0,.14-.02.28-.05.41-.1.45-.16.91-.31,1.35-.21.62-.49,1.22-.73,1.83-.27.66-.54,1.31-.79,1.98-.27.71-.53,1.42-.77,2.14-.18.52-.31,1.06-.48,1.59-.05.15-.13.28-.19.42l-.05-.02c.04-.19.08-.39.12-.58.1-.48.15-.98.32-1.44.13-.35.13-.72.23-1.06.11-.37.25-.73.38-1.09.16-.43.32-.86.49-1.28.22-.54.48-1.06.66-1.61.17-.5.29-1.03.4-1.55.08-.36.1-.74.17-1.11.03-.16.15-.3.23-.44Z"/>
      <path class="cls-1" d="M34.93,27.09c-.47.28-.93.53-1.35.82-.83.55-1.52,1.26-2.19,1.99-.37.4-.76.77-1.11,1.18-.28.31-.51.66-.77.99-.05.07-.11.13-.21.23.01-.12.02-.19.03-.25-.02,0-.04-.02-.06-.03-.06.12-.12.25-.19.36-.06.12-.11.27-.21.33-.07.04-.22-.05-.37-.09.18-.16.12-.21-.12-.19.13-.11.19-.2.25-.2.26-.01.43-.19.53-.38.44-.79,1.11-1.38,1.72-2.02.27-.28.58-.53.83-.83.43-.54.98-.94,1.52-1.34.36-.27.79-.46,1.2-.65.17-.08.36-.03.51.09Z"/>
      <path class="cls-1" d="M36.54,10.7c-.2-.19-.42-.37-.59-.59-.46-.59-.89-1.21-1.33-1.81-.48-.65-.94-1.31-1.44-1.94-.24-.29-.56-.52-.83-.79-.21-.21-.4-.45-.6-.68-.12-.13-.22-.27-.35-.43-.11.06-.2-.02-.25-.17-.02-.07-.06-.13-.07-.2-.02-.14-.08-.33-.01-.4.17-.17.39-.29.65-.26.14.01.28.07.45.11-.24.18-.45.33-.64.5-.03.03-.04.14-.02.17.51.5,1.04.98,1.55,1.47.43.41.77.91,1.1,1.4.43.64.9,1.25,1.34,1.88.16.23.29.47.45.7.13.18.28.35.42.53.1.13.18.28.27.42-.04.03-.07.05-.11.08Z"/>
      <path class="cls-1" d="M35.26,45.97c-.06.04-.13.1-.19.1-.29,0-.57-.03-.86-.03-.31,0-.63.05-.94.06-.13,0-.27-.05-.47-.08-.08.07-.22.16-.44.04-.09-.05-.26.04-.39.07-.18.04-.36.1-.54.14-.1.02-.2.03-.3.04-.18.02-.37.03-.55.06-.12.02-.24.07-.36.1-.14.03-.27.04-.41.06-.34.06-.69.11-1.03.17-.33.06-.67.1-.99.19-.3.09-.61-.1-.89.09-.11.08-.23.15-.37.24v-.27c-.23-.04-.32.35-.62.14.31-.12.58-.23.81-.32.11.02.19.06.27.05.22-.04.44-.09.66-.15.1-.03.18-.13.28-.17.35-.11.7-.23,1.06-.3.39-.07.79-.08,1.18-.15.3-.05.59-.15.88-.2.43-.07.86-.11,1.29-.17,0,0,.02.02.07.06-.18,0-.33.02-.5.02.14.19.33.18.44.09.18-.15.39-.11.58-.15.31-.07.63-.05.95-.05.34,0,.69,0,1.03,0,.07,0,.13.05.21.09-.05.07-.08.12-.13.19h.27,0Z"/>
      <path class="cls-1" d="M59.81,46.36c-.02-.12-.05-.23-.07-.35-.03-.27-.05-.54-.09-.81-.05-.33-.09-.66-.17-.99-.13-.51-.29-1-.43-1.5-.14-.54-.27-1.08-.41-1.62-.15-.6-.29-1.2-.43-1.81-.03-.13-.04-.26-.07-.39-.09-.42-.11-.84-.09-1.27,0-.08.1-.15.15-.22.02,0,.05,0,.07.01.02.17.05.33.05.5,0,.34.21.62.25.94.05.35.14.69.2,1.03.13.64.26,1.29.39,1.93.06.31.13.63.2.94.08.37.18.75.26,1.12.1.49.21.98.29,1.48.04.27.04.55.05.82,0,.06-.05.12-.08.18-.03,0-.06,0-.09,0Z"/>
      <path class="cls-1" d="M64.69,58.49c.12-.1.19-.04.22.07.02.08,0,.17.02.24.03.09.08.21.16.25.21.12.25.15.21.38.02,0,.04-.01.06-.02.04.1.07.2.11.29.04.07.1.13.15.19.12.15.23.3.38.5.01-.15.05-.29.03-.41-.08-.47-.17-.93-.26-1.4-.11-.52-.23-1.04-.35-1.56-.03-.15-.1-.28-.15-.43-.09-.26-.18-.52-.26-.78-.02-.05,0-.11.01-.17.05.03.12.05.14.09.12.27.23.54.33.81.13.35.29.7.36,1.06.18.88.3,1.78.46,2.66.09.51.23,1.01.36,1.51.01.05.06.09.08.13.05.09.23.13.09.3-.13.16-.28.22-.46.15-.15-.06-.29-.19-.23-.35.07-.19.04-.36-.01-.53-.11-.35-.19-.74-.39-1.04-.33-.49-.57-1.02-.92-1.49-.06-.08-.03-.21-.05-.32-.01-.05-.05-.1-.09-.16Z"/>
      <path class="cls-1" d="M67.23,9.15c-.15-.05-.28-.09-.4-.13,0,.01,0,.02,0,.04-.12.02-.23.04-.35.06-.16.02-.36-.04-.38.19-.1.02-.2.04-.29.05-.2,0-.42.04-.61,0-.17-.04-.26.07-.4.09-.4.04-.69.36-1.06.48-.07.02-.13.1-.21.13-.09.04-.19.04-.28.07-.12.04-.24.08-.36.12-.09.02-.17.04-.29.06-.85.41-1.73.84-2.61,1.27-.06-.12.07-.38.27-.48.15-.08.3-.16.46-.23.32-.14.65-.26.97-.41.2-.09.37-.25.56-.33.53-.23,1.06-.44,1.59-.66.26-.11.53-.22.8-.31.11-.04.22-.05.35-.03.06-.07.12-.14.23-.25.01.16.02.25.03.34.03,0,.05,0,.05,0,.08-.42.48-.3.74-.39.18-.06.4,0,.6,0,.07,0,.15.02.22.01.3-.03.32-.01.36.35Z"/>
      <path class="cls-1" d="M64.09,31c-.2-.15-.41-.29-.6-.46-.4-.36-.77-.76-1.2-1.08-.54-.41-1.13-.76-1.69-1.14-.09-.06-.16-.15-.24-.22-.14-.12-.28-.23-.42-.35-.09-.07-.18-.13-.11-.27.07-.13.19-.14.3-.07.41.25.83.5,1.22.78.58.43,1.14.89,1.71,1.34.06.05.1.13.17.17.08.06.18.09.26.14.13.09.27.17.38.28.19.19.31.42.31.7,0,.03,0,.06-.01.09,0,.02-.03.03-.07.09Z"/>
      <path class="cls-1" d="M30.16,40.91c-.14.08-.27.17-.41.25-.01-.02-.03-.03-.04-.05.03-.04.06-.08.1-.11.34-.25.69-.48,1.02-.74.12-.1.27-.11.38-.18.27-.19.5-.43.75-.65.03-.02.05-.07.08-.08.4-.11.73-.4,1.19-.41.3,0,.59-.19.88-.29.51-.18,1.02-.37,1.57-.34.3.02.38.13.27.41-.07.19-.13.41-.4.42-.29.02-.45-.1-.48-.42-.11.01-.23,0-.34.03-.43.15-.85.32-1.27.46-.09.03-.23,0-.32-.05-.15-.08-.22-.01-.3.1.08,0,.16.01.24.02,0,.03,0,.05.01.08-.3.08-.59.16-.9.24.04.03.09.08.13.11-.41.21-.81.41-1.22.62.04,0,.08.02.13.03-.01.03-.01.06-.03.07-.22.15-.45.29-.67.44-.05.04-.09.1-.13.14-.04.05-.08.09-.11.14-.04-.06-.07-.11-.11-.17-.01-.02,0-.04-.01-.06.25.05.34-.15.48-.27l-.04-.06c-.15.11-.29.22-.44.33Z"/>
      <path class="cls-1" d="M52.23,23.54c.57.02.95.32,1.39.49.09.03.18.04.27.06.15.03.31.03.45.1.39.18.76.39,1.15.58.06.03.14,0,.22,0,.09.05.2.12.32.17.15.07.3.11.45.18.24.12.48.24.71.39.26.17.5.36.76.54.17.12.36.21.53.33.25.19.48.4.73.59-.02.03-.04.07-.07.1-.49-.26-.98-.52-1.47-.78-.03-.02-.05-.06-.08-.07-.65-.15-1.11-.6-1.66-.94-.16-.1-.35-.14-.52-.22-.72-.35-1.44-.7-2.17-1.05-.25-.12-.52-.21-.78-.32-.06-.03-.11-.08-.22-.16Z"/>
      <path class="cls-1" d="M32.88,54.89s-.09-.03-.14-.05c0,.01-.02.03-.03.04.12.08.24.16.37.25.02-.03.03-.07.05-.12.14.12.27.24.4.35.34.29.7.57,1.03.88.37.34.72.69,1.08,1.05.05.05.03.16.05.24-.02,0-.04.02-.06.03-.25-.23-.5-.46-.74-.69-.22-.21-.43-.43-.66-.63-.09-.08-.22-.12-.32-.19-.25-.17-.51-.35-.75-.54-.41-.31-.81-.62-1.21-.93-.28-.21-.54-.45-.82-.65-.53-.36-1.08-.7-1.61-1.05-.15-.1-.15-.11-.09-.36.09.06.18.11.27.16,0,.01,0,.02-.01.03h-.14s0,.04,0,.06c.07,0,.15.02.21,0,.17-.06.32.03.31.16.13.08.28.13.36.23.21.27.5.41.79.57.31.16.6.36.89.55.27.18.53.37.79.55,0,.01-.02.03-.02.04Z"/>
      <path class="cls-1" d="M26.15,52.91c.06.07.13.13.18.2.2.27.38.55.58.82.02.03.05.04.08.06.16.08.35.12.48.23.39.33.75.69,1.12,1.03.19.18.4.34.58.52.2.21.38.44.56.66.12.15.24.31.36.46.13.17,0,.23-.1.34-.11.12-.17.05-.25-.02-.15-.12-.31-.21-.44-.34-.13-.13-.24-.29-.32-.45-.17-.34-.38-.64-.65-.91-.3-.29-.57-.61-.86-.91-.1-.1-.26-.15-.35-.26-.28-.33-.55-.67-.81-1.02-.09-.12-.15-.26-.22-.39.02-.01.04-.02.05-.04Z"/>
      <path class="cls-1" d="M29.6,37.43c-.48.28-.95.53-1.35.91-.31.29-.66.55-.97.85-.2.19-.37.4-.44.69-.02.07-.11.13-.18.18-.18.13-.36.26-.4.51-.03.22-.09.26-.28.21-.18.21-.36.41-.54.61.01.01.03.02.04.04h-.13s-.02.01-.01.02c.17.4-.36.12-.33.28.09-.15.24-.37.38-.6.05-.08.08-.17.13-.24.06-.08.15-.15.22-.23.02-.02.05-.03.06-.05.33-.43.65-.87.99-1.29.25-.31.52-.62.83-.87.43-.35.89-.66,1.37-.95.16-.1.41-.05.62-.06Z"/>
      <path class="cls-1" d="M36.64,14.56c-.06-.3-.29-.4-.51-.51-.2-.1-.39-.22-.59-.3-.19-.08-.39-.12-.59-.18-.16-.05-.25-.15-.22-.35-.11.04-.2.08-.3.12-.09-.13-.12-.24.1-.29-.19-.14-.22,0-.25.13-.09-.05-.16-.11-.23-.14-.18-.07-.18-.18-.09-.32.09-.16.25-.19.34-.06.15.21.39.21.57.33.1.06.2.12.29.18.44.27.88.53,1.32.8,0,0,.02,0,.02,0,.22.39.7.35,1,.63.25.23.55.43.83.62.23.16.47.3.7.45.04.03.08.07.12.1-.02.02-.03.05-.05.07-.15-.09-.29-.19-.47-.3-.18.02-.39.03-.58-.14-.13-.12-.32-.16-.47-.26-.19-.13-.4-.25-.52-.43-.1-.15-.17-.18-.32-.14-.03,0-.06,0-.09,0Z"/>
      <path class="cls-1" d="M51.19,67.08c-.2.06-.24.16-.08.31-.1.09-.2.18-.27.24.01.09.04.17.03.25,0,.06-.07.11-.15.22q-.15.04.03.3c-.06.02-.12.04-.2.06.09.2-.05.33-.14.49-.1.19-.1.44-.17.65-.12.38-.27.75-.41,1.12-.02.04-.09.06-.11.09-.19.39-.2.87-.69,1.17.01-.11,0-.19.03-.25.18-.37.38-.74.54-1.12.11-.27.14-.56.22-.84.03-.12.1-.23.14-.34.19-.53.36-1.07.57-1.59.12-.29.3-.56.45-.84.02-.03.01-.08.02-.12,0-.08.01-.15.02-.23.01-.09.03-.18.02-.28.08-.19.26-.33.2-.59-.01-.05.14-.15.22-.22.04.04.12.09.11.12-.04.12-.11.24-.17.37.04,0,.08,0,.21.01-.17.14-.3.25-.44.36.32.2-.15.41.02.66Z"/>
      <path class="cls-1" d="M30.51,57.7c.29.4.57.77.84,1.16.04.06.03.15.05.25.08.09.22.2.31.34.35.57.7,1.15,1.03,1.73.14.25.23.52.33.78.02.04,0,.1-.02.16-.33-.03-.45-.29-.57-.49-.31-.51-.56-1.05-.83-1.58-.1-.2-.19-.4-.3-.59-.05-.08-.13-.13-.19-.21-.08-.1-.18-.2-.23-.32-.15-.33-.29-.67-.42-1.01-.02-.06,0-.15,0-.23Z"/>
      <path class="cls-1" d="M43.37,31.52c0,.19-.02.32-.02.45-.01,0-.03,0-.04,0,0-.07-.02-.14-.02-.21-.03,0-.05,0-.08,0,.01.12.02.25.03.39-.03,0-.11.01-.21.02-.01.19-.09.35-.23.5-.09.09-.09.27-.12.42-.03.14-.06.28-.09.41-.11-.12-.03-.88.15-1.22.04.07.07.13.12.24.01-.09.03-.14.02-.18-.03-.18-.11-.34.05-.53.12-.14.13-.37.19-.57.06-.19.07-.42.18-.57.18-.25.13-.53.18-.79.1-.53.28-1.03.59-1.46.05-.07.22-.06.39-.1-.03.12-.05.21-.08.29-.22.54-.46,1.08-.65,1.63-.14.39-.21.81-.32,1.21-.01.04-.06.06-.05.05Z"/>
      <path class="cls-1" d="M5.8,53.13c-.51.12-.88.42-1.28.67-.3.18-.62.33-.92.52-.44.29-.92.55-1.27.92-.38.41-.89.56-1.32.86-.01,0-.03,0-.12.04.07-.12.1-.21.15-.26.42-.35.83-.72,1.27-1.05.31-.23.65-.42.99-.61.34-.2.73-.33,1.03-.58.18-.14.36-.27.55-.38.27-.15.56-.25.91-.14Z"/>
      <path class="cls-1" d="M44.3,85.88c.01-.12,0-.23.04-.33.06-.18.15-.35.22-.53,0-.02,0-.07-.01-.08-.2-.15-.06-.24.06-.34.05-.04.07-.12.12-.15.06-.04.13-.04.2-.06-.01.06,0,.13-.04.17-.06.08-.14.14-.22.21.11.06.24.13.04.24-.16.1-.08.2.03.31-.18.07-.2.16-.12.32.04.07-.05.2-.1.35.16.17.14.39.01.64-.19.38-.34.78-.52,1.16-.06.12-.13.24-.21.37-.06,0-.15.01-.3.02.04-.12.07-.23.11-.33.16-.44.33-.88.46-1.32.04-.14.2-.3.06-.48,0,0,.13-.13.18-.18Z"/>
      <path class="cls-1" d="M35.27,45.98s-.07-.04-.12-.07c.15-.21.35-.11.53-.1.09,0,.18.06.27.06.67-.05,1.31.15,1.95.3.34.08.65.29.98.45.03.01.04.07.08.13-.3.04-.58.1-.82-.04-.56-.32-1.17-.36-1.79-.43-.21-.02-.4-.13-.6-.2-.05-.02-.1-.05-.15-.07,0,.05,0,.08,0,.11-.04-.01-.08-.02-.12-.04-.07-.04-.13-.08-.2-.12,0,0,0,0,0,0Z"/>
      <path class="cls-1" d="M42.1,38.03c-.04.38-.08.75-.13,1.15-.17.09-.17.14,0,.27-.04.3-.06.59-.13.86-.06.24-.16.47-.28.68-.04.07-.24.13-.29.09-.1-.08-.18-.21-.21-.34-.02-.09.06-.2.1-.3.13-.36.24-.73.38-1.09.17-.45.35-.89.52-1.33.02,0,.03,0,.05.01Z"/>
      <path class="cls-1" d="M27.3,10.87c.08-.23.28-.17.36-.1.18.13.38.09.57.15.05.02.14-.07.25-.14.02.03.08.08.13.14-.01.01-.02.03-.03.04-.05-.01-.1-.02-.16-.03,0,.23.17.17.29.18v.12s.11-.03.15-.06c.06-.05.12-.11.16-.15,0,.09-.01.17-.02.25.08-.02.22-.03.22-.05.03-.21.17-.13.28-.13.08,0,.16,0,.26.06-.15.06-.3.12-.44.18,0,.02,0,.04.01.05.05,0,.11.02.15,0,.11-.06.18-.02.28.03.16.08.34.12.51.17.03,0,.08-.03.12-.05-.03-.04-.05-.09-.09-.1-.04-.02-.09,0-.14-.06.16-.01.31-.02.47-.04-.03.27.12.16.25.14-.02.05-.04.09-.05.1.08.07.16.14.23.2-.01.03-.03.06-.04.09-.21-.04-.41-.09-.62-.13-.04.07-.09.14-.15.24-.42-.16-.83-.32-1.26-.47-.29-.1-.57-.21-.87-.3-.21-.06-.53.02-.67-.28-.01-.03-.1-.03-.17-.05Z"/>
      <path class="cls-1" d="M27.72,43.33c-.19-.15-.36,0-.53.07.06.22-.15.23-.25.3-.17.13-.37.22-.56.31-.04.02-.1,0-.15-.01.02-.06.02-.13.06-.16.1-.08.22-.14.33-.22.24-.17.48-.34.7-.53.19-.17.34-.39.52-.56.23-.21.47-.4.72-.59.12-.09.2-.05.24.1.2-.04.39-.09.58-.13,0-.02.01-.04.02-.06.04.04.08.08.16.15-.1.02-.14.03-.2.04.09.18,0,.22-.16.2-.29-.03-.59-.06-.69.32,0,.03-.08.06-.12.07-.14.06-.29.06-.32.28-.02.15-.2.27-.33.43Z"/>
      <path class="cls-1" d="M25.68,57.68c.09.16.19.31.25.47.13.36.24.73.34,1.1.02.07,0,.15.02.22.08.25.17.49.24.73.15.52.29,1.04.44,1.56.06.2.13.39.18.58.02.06-.03.14-.04.21-.07-.03-.14-.05-.19-.09-.05-.04-.07-.11-.09-.17-.09-.4-.21-.79-.27-1.19-.11-.77-.41-1.48-.62-2.22-.09-.31-.22-.61-.33-.92-.03-.07-.01-.16-.02-.24.03,0,.05-.02.08-.02Z"/>
      <path class="cls-1" d="M50.04,39.17s-.08,0-.13-.01c0-.1.02-.21,0-.3-.06-.23-.17-.46-.19-.69-.01-.1-.14-.3.1-.39.09.33.17.64.26.95.12.4.12.82.18,1.22.07.47.16.94.25,1.4.02.09.07.18.08.27,0,.08,0,.21-.05.23-.09.03-.24.05-.29,0-.12-.12-.19-.28-.27-.43,0-.01.07-.09.12-.1.08-.03.17-.04.28-.08-.26-.1-.14-.31-.17-.47-.01-.06,0-.15-.04-.18-.18-.12-.16-.23-.01-.31-.19-.36.02-.72-.1-1.09Z"/>
      <path class="cls-1" d="M49.79,37.71c-.25-.03-.06-.39-.37-.29.16-.24.04-.58-.21-.62.07-.05.12-.08.19-.13-.23-.15-.11-.39-.18-.57-.08-.23.02-.49-.17-.69-.06-.07-.11-.22-.08-.31.05-.16-.05-.26-.06-.39-.01-.08.02-.17.03-.24-.04-.07-.07-.15-.12-.22-.04-.06-.09-.11-.13-.16.02-.08.03-.18.07-.27.02-.05.09-.08.13-.12.03.04.07.08.08.13.02.09.02.19.05.28.24.76.42,1.53.48,2.33.03.32.14.63.22.95.02.1.04.21.07.33Z"/>
      <path class="cls-1" d="M48.74,33.69c-.1-.32-.17-.57-.25-.83-.08.01-.15.03-.22.04.09-.12.17-.24.27-.38-.11-.07-.19-.13-.28-.19.05-.07.09-.12.1-.13-.06-.26-.11-.48-.16-.7-.09-.44-.18-.89-.25-1.33-.03-.21-.14-.27-.39-.24.06-.2.11-.38.16-.56.03,0,.06,0,.09,0,.07.14.16.27.2.41.17.68.31,1.36.47,2.04.1.41.2.83.3,1.24.03.14.06.28.07.42,0,.05-.06.11-.12.21Z"/>
      <path class="cls-1" d="M53.91,37.81c-.08.06-.14.15-.2.16-.06,0-.13-.08-.22-.15-.04.07-.07.2-.15.24-.08.03-.2-.03-.29-.05-.05.18-.08.38-.15.56-.05.14-.27.13-.34,0-.14-.25-.1-.73.13-.9.14-.11.35-.13.53-.19.27-.09.5.05.74.14.01,0,.02.02.03.03.02.07.05.14.07.21-.06-.02-.12-.03-.14-.04ZM53.02,37.77c.17.14.29.1.36-.11-.11.04-.24.07-.36.11Z"/>
      <path class="cls-1" d="M42.34,33.11c-.08.4-.15.8-.24,1.2-.03.15-.01.31-.16.46-.1.11-.06.36-.09.54-.03.2-.07.39-.1.59-.02.11,0,.23-.01.34,0,.04,0,.09-.01.13-.02.12-.04.25-.06.37-.02.1-.04.2-.06.29-.02,0-.05,0-.07,0-.02-.04-.07-.1-.05-.12.12-.27.05-.56.08-.84.05-.5.09-1,.2-1.49.11-.51.09-1.07.57-1.47Z"/>
      <path class="cls-1" d="M37.23,41.75c.02.06.04.1.05.15.03-.03.05-.06.08-.09.09-.11.2-.13.34-.09.08.03.21.03.27-.02.27-.25.62-.36.94-.53.03-.02.08-.01.12-.02.06.49-.29.64-.63.79-.11.05-.23.08-.35.1-.06,0-.14-.02-.17-.06-.13-.15-.17-.07-.21.08-.08-.04-.14-.08-.21-.11-.17.19-.53.17-.76,0,.18-.06.37-.13.55-.2Z"/>
      <path class="cls-1" d="M1.25,48.48c-.5-.09-.86-.57-.82-1.13,0-.11.03-.3.09-.32.21-.06.2-.44.53-.34-.05.14-.1.28-.14.42,0,.03,0,.08.02.1.18.11.1.21-.01.31-.13.11-.14.17.02.29.12.09.31.21.25.44-.02.07.04.16.06.24,0,0,0,0,0,0Z"/>
      <path class="cls-1" d="M68.7,55.82c-.31-.01-.47-.2-.46-.43,0-.1,0-.2-.11-.3-.27-.26-.54-.53-.72-.85-.19-.33-.5-.56-.66-.95.09.03.22.03.27.09.25.28.5.56.72.87.28.39.52.8.77,1.2.07.11.12.22.2.37Z"/>
      <path class="cls-1" d="M43.2,2.18c.28.25.29.62.27,1.01,0,.14,0,.28.02.42.02.1.07.19.13.32-.11.13.15.41-.08.59-.06-.2-.06-.43-.18-.57-.28-.35-.22-.77-.28-1.16-.04-.2.08-.43.12-.6Z"/>
      <path class="cls-1" d="M61.72,41.89c.09-.06.27-.15.16-.39-.01-.02.07-.1.12-.13.03-.02.12,0,.13.01.02.05.02.12,0,.16-.07.15-.23.27-.1.47.02.04-.08.15-.1.23-.08.26-.16.53-.24.79-.04.14-.05.3-.12.43-.03.07-.16.09-.24.13-.01-.06-.06-.16-.03-.19.2-.21.16-.49.24-.74.05-.15.1-.31.14-.46.02-.09.02-.18.03-.32Z"/>
      <path class="cls-1" d="M63.68,56.34c.08.13.18.24.25.38.08.14.13.3.2.45.11.25.22.5.34.74.04.09.12.16.17.23.03.04.07.09.07.14,0,.04-.06.07-.09.11-.04-.04-.08-.07-.11-.12-.3-.45-.58-.9-.72-1.43-.01-.04-.08-.07-.1-.11-.05-.11-.08-.23-.12-.34.04-.02.07-.03.11-.05Z"/>
      <path class="cls-1" d="M25.58,21.07c-.07.03-.14.07-.2.1,0,.02.02.05.03.07-.13,0-.33-.12-.32.19-.04-.24-.19-.23-.36-.21.02.05.04.09.06.13-.02.01-.03.04-.05.04-.22-.02-.42.05-.62.15-.04.02-.1,0-.15-.01,0-.06,0-.13.03-.17.04-.05.12-.09.18-.11.39-.11.77-.21,1.16-.3.07-.01.16.09.24.13,0,0,0,0,0,0Z"/>
      <path class="cls-1" d="M47.49,27.23c.04.06.09.12.1.18.05.39.26.7.49,1.01.14.19.09.35-.13.46-.04.02-.06.06-.11.1-.15-.58-.29-1.16-.44-1.73.03,0,.06-.02.1-.03Z"/>
      <path class="cls-1" d="M53.89,55.3c.06.03.09.04.17.08-.24.06-.45.07-.54.29-.01.03-.12.03-.13.03-.03.09-.03.18-.07.21-.26.22-.53.42-.8.63-.02-.03-.04-.06-.07-.09.54-.57,1.07-1.15,1.82-1.49-.11.1-.23.21-.36.33Z"/>
      <path class="cls-1" d="M34.24,64.29c-.07-.08-.15-.14-.2-.23-.18-.31-.34-.62-.5-.94-.03-.05-.05-.11-.04-.16.02-.08.06-.16.1-.25.06.06.13.11.17.18.16.34.32.69.47,1.04.04.1.05.2.08.31-.02.01-.04.03-.06.04Z"/>
      <path class="cls-1" d="M62.28,40.32c.12,0,.17-.01.27-.02-.11.16-.19.29-.28.43.03.02.07.05.1.08-.07.15-.14.29-.22.46-.05-.02-.13-.05-.24-.09.12-.27.23-.52.34-.79,0,0-.05-.03-.1-.05.11-.17.21-.34.32-.53-.02-.02-.06-.06-.09-.1.07-.1.13-.2.22-.32.02,0,.09.03.12.04-.05.2-.08.38-.14.55-.03.08-.1.14-.16.21-.03.03-.07.06-.15.13Z"/>
      <path class="cls-1" d="M72.37,39.85c.65-.36,1.29-.36,1.72.12-.32.16-.57-.13-.85-.12-.29,0-.58,0-.86,0Z"/>
      <path class="cls-1" d="M69.71,58.14c-.54.03-.71-.47-1.06-.73.17-.13.18-.13.8.1-.04.04-.08.08-.11.12.14.15.28.3.41.45-.01.02-.03.04-.04.06Z"/>
      <path class="cls-1" d="M68.31,49.19c.2.1.36.03.55-.03.2-.06.45-.02.67,0,.13.01.26.06.38.1.12.04.23.11.35.16,0,.02,0,.04,0,.07-.13,0-.27.02-.39,0-.46-.06-.92-.13-1.38-.2-.07-.01-.14-.04-.2-.06,0-.02.02-.05.03-.07Z"/>
      <path class="cls-1" d="M34.09,4.72c-.1.02-.19.04-.28.07-.23.1-.41.05-.52-.19.14.07.23.11.36.18,0-.08.01-.17.02-.26.22.07.5,0,.65.23.13.21.21.46.33.73-.34-.08-.55-.38-.55-.76Z"/>
      <path class="cls-1" d="M49.6,49.99c.1-.24.35-.21.53-.3.43-.22.9-.27,1.36-.35.02,0,.05,0,.09.04-.13.05-.25.1-.38.14-.48.16-.96.31-1.44.46-.05.02-.11,0-.17,0h0Z"/>
      <path class="cls-1" d="M60.43,38.34c-.07.42-.14.8-.21,1.18-.02,0-.05,0-.07,0,.06-.65.12-1.3.18-1.94,0-.06.05-.12.1-.16.03-.03.09-.04.14-.06,0,.05,0,.1,0,.15-.06.23-.13.46-.17.7-.01.06.04.14.04.15Z"/>
      <path class="cls-1" d="M39.04,13.32c-.01.12-.08.16-.15.07-.25-.33-.5-.68-.74-1.02-.03-.04,0-.11,0-.21.1.08.21.13.28.22.21.27.5.49.53.88,0,.03.06.05.1.08h0Z"/>
      <path class="cls-1" d="M57.08,13.22c.05.08.08.14.1.18-.48.36-.95.72-1.42,1.07l-.06-.06c.11-.13.21-.28.33-.4.2-.17.42-.31.63-.47.13-.1.26-.21.41-.33Z"/>
      <path class="cls-1" d="M51.37,16.99c.16-.32.56-.8,1.08-.95-.02-.03-.04-.05-.06-.08.03,0,.07-.01.07,0,.02.04.06.12.04.14-.09.1-.19.18-.28.27-.1.1-.2.19-.29.3-.08.11-.44.34-.56.33Z"/>
      <path class="cls-1" d="M30.76,44.05c.52-.16,1.03-.32,1.54-.48,0,.01.01.02.02.04-.16.1-.33.2-.49.29-.18.09-.37.16-.55.26-.2.11-.39.18-.51-.1Z"/>
      <path class="cls-1" d="M38.62,26.33l-1.68,1.08s-.04-.06-.05-.09c.54-.4,1.04-.85,1.73-.99Z"/>
      <path class="cls-1" d="M24.59,54.97c.09.02.18.03.32.05-.05.1-.08.18-.1.22.1.04.23.05.31.13.06.05.08.21.04.28-.06.11-.19.12-.31.03-.17-.12-.31-.5-.25-.72,0,0,0,0,0,0Z"/>
      <path class="cls-1" d="M53.96,15.95c-.14.47-.57.86-.88.8.11-.48.6-.53.88-.8Z"/>
      <path class="cls-1" d="M63.33,37.46c-.08.24-.17.48-.23.72-.03.11-.08.21-.08.35,0,.21-.18.43-.29.63-.03.05-.1.08-.2.1.24-.61.48-1.22.73-1.83.02,0,.05.02.07.03Z"/>
      <path class="cls-1" d="M36.83,58.71c-.23-.01-.56-.26-.58-.41-.02-.14.06-.22.17-.16.18.1.34.24.49.37.03.03.03.11.01.16-.01.03-.08.04-.09.05Z"/>
      <path class="cls-1" d="M52.15,23.6c-.32-.08-.65-.16-.97-.24-.15-.04-.29-.07-.43-.12-.03-.01-.05-.07-.07-.11.04-.02.09-.06.12-.06.42.12.83.24,1.25.37.05.01.08.06.13.09,0,.02-.02.04-.03.06Z"/>
      <path class="cls-1" d="M44.51,84.08c.14-.06.3-.08.25-.29,0-.03.12-.11.19-.13.05-.01.11.05.17.08-.03.06-.06.13-.1.19-.03.04-.08.06-.09.08.03.1.05.17.08.25-.1-.01-.21-.01-.31-.04-.06-.02-.12-.08-.19-.13Z"/>
      <path class="cls-1" d="M26.71,50.45c.19.07.35.16.53.2.24.06.49.09.73.15.09.02.17.09.25.14-.01.02-.02.05-.03.07-.15-.04-.29-.09-.44-.12-.24-.04-.48-.07-.72-.1-.18-.02-.28-.12-.32-.35Z"/>
      <path class="cls-1" d="M60.67,36.41c0-.08-.01-.16,0-.23.02-.11.05-.21.09-.32.09-.25.17-.49.27-.74.01-.03.08-.04.16-.08-.15.48-.3.92-.44,1.36h-.08Z"/>
      <path class="cls-1" d="M47.47,41.74c0-.09.03-.17.02-.26-.03-.19.15-.17.23-.23.04.07.12.14.13.21.04.39-.02.43-.38.28Z"/>
      <path class="cls-1" d="M59.26,11.99c.03-.09.03-.21.09-.28.06-.08.16-.12.26-.18.03.02.07.04.11.07.04.03.08.06.15.11-.19.15-.38.26-.61.28h0Z"/>
      <path class="cls-1" d="M50.59,17.57c.5-.53.48-.52.76-.25-.11,0-.18-.01-.25,0-.07.01-.14.05-.2.12h.15c-.03.13-.32.2-.46.13Z"/>
      <path class="cls-1" d="M70.54,49.47s.06.02.07.02c.15.06.27.15.46.13.15-.02.32.11.5.18-.22.17-.77,0-1.04-.33Z"/>
      <path class="cls-1" d="M39.05,13.32c.02-.06.03-.12.07-.26.27.3.51.56.74.82-.02.02-.04.05-.07.07-.03-.03-.08-.06-.1-.09-.15-.26-.41-.39-.64-.55,0,0,0,0,0,0Z"/>
      <path class="cls-1" d="M30.06,35.26c-.12.16-.24.31-.39.51-.04-.1-.1-.19-.11-.29,0-.15.21-.27.5-.22Z"/>
      <path class="cls-1" d="M29.75,41.54s.04-.08.07-.13c.05.12.1.23.15.36-.15.02-.29.04-.43.06-.04-.11.12-.27-.06-.36,0,0,0-.05.02-.06.03,0,.07-.02.1,0,.05.03.1.08.16.13Z"/>
      <path class="cls-1" d="M36.2,42.63c-.1,0-.21.04-.29.01-.04-.02-.06-.15-.07-.23-.01-.1,0-.2,0-.31.08,0,.16,0,.28-.01-.04.11-.1.21-.09.29,0,.07.09.14.17.24Z"/>
      <path class="cls-1" d="M37.75,11.65c.27.14.34.28.29.62-.24-.11-.38-.43-.29-.62Z"/>
      <path class="cls-1" d="M5.18,51.96c0,.06.03.13.02.14-.26.19-.53.37-.81.54.09-.28.1-.27.34-.33.08-.02.13-.11.2-.17.07-.06.15-.11.25-.18Z"/>
      <path class="cls-1" d="M47.01,25.59c.15.4.29.8.44,1.2-.03.01-.06.02-.09.03-.15-.4-.29-.8-.44-1.2.03-.01.06-.03.09-.04Z"/>
      <path class="cls-1" d="M32.91,3.93c.19-.06.24.15.37.19-.02.02-.05.04-.09.08.15.04.28.07.4.1,0,.02,0,.04,0,.06-.09.01-.19.05-.28.04-.1-.01-.19-.07-.3-.11-.03-.1-.07-.23-.11-.36h0Z"/>
      <path class="cls-1" d="M11.96,51.05c-.14.03-.28.07-.42.08-.17.01-.35,0-.53-.02.4-.1.81-.19,1.25-.3-.12.1-.21.17-.3.25,0,0,0,0,0,0Z"/>
      <path class="cls-1" d="M58.64,12.47c-.08.06-.17.12-.25.18-.09.06-.2.1-.25.19-.1.15-.19.13-.37,0,.29-.16.55-.31.82-.45.02.03.04.06.05.08Z"/>
      <path class="cls-1" d="M30.46,33.81c-.04.08-.08.14-.12.23-.02-.05-.03-.08-.05-.12-.08.12-.14.2-.21.3.01-.33.09-.59.31-.8.12.13-.23.29.07.39Z"/>
      <path class="cls-1" d="M33.02,12.37c.05.07.1.14.16.21-.15-.01-.56-.45-.53-.59.14.06.28.12.4.18-.01.09-.02.15-.03.21h0Z"/>
      <path class="cls-1" d="M49.8,49.2h-.38s.01.04.02.06c-.16.04-.32.07-.53.12.11-.26.64-.35.89-.18Z"/>
      <path class="cls-1" d="M60.75,36.47c-.06.29-.12.52-.17.77-.18-.15-.1-.61.17-.77Z"/>
      <path class="cls-1" d="M73.73,46.06c-.26-.01-.51-.03-.78-.04.15-.2.49-.2.78.04Z"/>
      <path class="cls-1" d="M74.66,46.35c-.22.13-.49.04-.85-.29.31.11.57.19.85.29Z"/>
      <path class="cls-1" d="M30.28,34.14c-.05.23-.06.48-.34.61-.02-.29.15-.45.34-.61Z"/>
      <path class="cls-1" d="M48.77,49.32c-.35.04-.68.07-1.03.11.14-.15.88-.23,1.03-.11Z"/>
      <path class="cls-1" d="M55.78,42.91c-.1,0-.25.02-.29-.04-.07-.09-.07-.23-.1-.35.03-.01.05-.02.08-.04.11.12.21.24.32.36,0,.02,0,.04-.01.07Z"/>
      <path class="cls-1" d="M22.94,53.3c-.04-.05-.08-.1-.13-.17.09-.1.17-.19.26-.29.14.28.13.32-.13.46Z"/>
      <path class="cls-1" d="M59.25,11.99c-.08.23-.28.33-.49.41-.04-.19.15-.34.5-.41,0,0,0,0,0,0Z"/>
      <path class="cls-1" d="M61.24,34.8c-.05-.12-.07-.23.06-.36.15-.14.26-.32.42-.46-.16.27-.32.54-.49.82Z"/>
      <path class="cls-1" d="M60.17,41.68c.01-.17.02-.35.04-.52,0-.04.05-.07.08-.11.03.04.1.09.09.12-.04.18-.1.35-.15.52-.02,0-.04-.01-.06-.02Z"/>
      <path class="cls-1" d="M12.47,50.69c-.32.03-.64.05-.96.08.25-.17.86-.22.96-.08Z"/>
      <path class="cls-1" d="M64.76,54.97c-.19-.12-.23-.32-.28-.56.28.12.24.36.28.56Z"/>
      <path class="cls-1" d="M33.03,12.37c.06-.03.13-.07.16-.08.17.08.32.16.47.23,0,.03,0,.05-.01.08-.08,0-.17,0-.24-.02-.13-.06-.26-.14-.39-.21,0,0,0,0,0,0Z"/>
      <path class="cls-1" d="M42.58,33.68c.12.24-.08.44-.09.67-.02,0-.05,0-.07,0,.02-.22.05-.44.07-.66.03,0,.06,0,.09,0Z"/>
      <path class="cls-1" d="M25.48,36.71c0,.31-.2.61-.45.64.15-.22.29-.41.45-.64Z"/>
      <path class="cls-1" d="M63.76,36.53c-.13.27-.26.54-.39.8-.02,0-.04-.02-.06-.03.12-.27.25-.54.37-.81.03.01.05.02.08.04Z"/>
      <path class="cls-1" d="M43.67,4.65c-.04.12.14.32-.12.36,0,0-.06-.19-.06-.29,0-.05.08-.09.12-.14.02.02.04.04.06.06Z"/>
      <path class="cls-1" d="M46.44,27.3c.13.11-.19.3.11.35-.01.03-.02.07-.04.1-.04.04-.09.07-.13.11-.03-.05-.09-.12-.08-.16.03-.13.09-.25.13-.38Z"/>
      <path class="cls-1" d="M45.77,50.31s-.03.09-.04.11c.09.02.16.03.24.04v.1c-.08.02-.16.06-.24.05-.05,0-.12-.1-.12-.16,0-.06.07-.12.11-.18.02.01.03.02.05.03Z"/>
      <path class="cls-1" d="M23.64,53.36c-.09-.2-.16-.36-.22-.51.2-.06.26-.02.24.16,0,.1-.01.2-.02.35Z"/>
      <path class="cls-1" d="M32.93,42.83c-.06-.09-.12-.18-.18-.26.07-.02.19-.07.21-.05.05.07.07.17.09.26-.04.02-.08.04-.12.06Z"/>
      <path class="cls-1" d="M39.31,16.27c0-.29.05-.31.33-.17-.03.19-.17.18-.33.17Z"/>
      <path class="cls-1" d="M22.73,82.94c.05-.19.09-.38.14-.56.01,0,.02,0,.04-.01.01.11.05.23.03.34-.02.09-.1.18-.15.27-.02-.01-.04-.02-.06-.03Z"/>
      <path class="cls-1" d="M32.92,3.92h-.28c-.02-.06-.05-.14-.08-.22.29-.02.35.03.36.23,0,0,0,0,0,0Z"/>
      <path class="cls-1" d="M62.76,50.11c.28-.05.39.04.43.32-.15-.11-.28-.21-.43-.32Z"/>
      <path class="cls-1" d="M66.23,52.74c.27.03.38.17.44.42-.16-.16-.29-.28-.44-.42Z"/>
      <path class="cls-1" d="M47.43,40.71c.08,0,.17,0,.17.01.04.14.06.29.09.43-.03,0-.05.01-.08.02-.05-.14-.11-.27-.18-.46Z"/>
      <path class="cls-1" d="M46.3,28.19c.05.13.1.26.15.39-.03.01-.06.02-.09.04-.23-.06-.03-.29-.17-.38.04-.01.07-.03.11-.04Z"/>
      <path class="cls-1" d="M34.29,64.49c.19.02.38.05.58.07,0,.03,0,.05,0,.08-.19-.02-.38-.05-.57-.07,0-.03,0-.05,0-.08Z"/>
      <path class="cls-1" d="M52.49,17.01c-.05.23-.19.29-.41.15.13-.05.25-.09.41-.15Z"/>
      <path class="cls-1" d="M32,11.97c.13.08.23.15.34.23q-.3.11-.34-.23Z"/>
      <path class="cls-1" d="M31.11,11.57c.16.04.32.09.53.14-.26.12-.41.03-.55-.08,0-.02.01-.04.02-.06Z"/>
      <path class="cls-1" d="M25.56,36.61c.07-.16.14-.31.22-.47.03.01.06.02.08.04l-.21.47s-.06-.03-.09-.04Z"/>
      <path class="cls-1" d="M43.6,88.85c-.12.03-.21.05-.34.08.02-.13.03-.22.05-.35.1.1.17.16.28.27Z"/>
      <path class="cls-1" d="M28.46,46.92c-.15.15-.32.22-.51.07.17-.02.34-.04.51-.07Z"/>
      <path class="cls-1" d="M55.54,14.63c-.11.1-.21.19-.32.29.01-.21.1-.33.28-.35.01.02.02.04.03.06Z"/>
      <path class="cls-1" d="M27.44,64.56c.12,0,.24-.02.42-.03-.07.08-.12.18-.17.18-.09,0-.18-.06-.28-.09,0-.02.02-.04.03-.06Z"/>
      <path class="cls-1" d="M69.21,57.22c-.18-.06-.36-.11-.55-.17,0-.02.01-.04.02-.05.19.05.37.09.56.14,0,.03-.02.05-.03.08Z"/>
      <path class="cls-1" d="M52.2,64.77c-.16.09-.27.15-.37.21,0-.01-.01-.02-.02-.03.05-.08.11-.16.18-.26.04.02.11.04.21.09Z"/>
      <path class="cls-1" d="M56.43,22.62c-.02.08-.04.13-.06.21-.1-.02-.2-.04-.29-.06,0-.03,0-.05,0-.08.11-.02.22-.04.36-.07Z"/>
      <path class="cls-1" d="M43.37,88.44c.05-.03.11-.07.16-.1.06.07.12.13.23.24-.16-.03-.27-.05-.38-.08,0-.02,0-.04,0-.06Z"/>
      <path class="cls-1" d="M35.49,95.89c-.04.1-.09.21-.13.31-.04-.02-.07-.03-.11-.05.05-.1.1-.2.14-.3l.1.03Z"/>
      <path class="cls-1" d="M34.28,40.63h-.21c0-.06.02-.12.03-.17.07.02.14.04.2.07,0,.04-.01.07-.02.11Z"/>
      <path class="cls-1" d="M29.58,46.88c-.15.02-.29.04-.44.06,0-.03,0-.05-.01-.08.15-.02.29-.05.44-.07,0,.03,0,.06.01.09Z"/>
      <path class="cls-1" d="M11.33,50.79c-.15.03-.3.05-.45.08,0-.02,0-.03,0-.05.15-.04.29-.07.44-.11,0,.03.01.05.02.08Z"/>
      <path class="cls-1" d="M49.6,49.98c-.13.14-.26.27-.39.41-.03-.03-.05-.06-.08-.09.16-.1.31-.21.47-.31,0,0,0,0,0,0Z"/>
      <path class="cls-1" d="M26.38,10.58h.48s0,.03,0,.05h-.48s0-.03,0-.05Z"/>
    </g>
  </g>
</svg>