<?xml version="1.0" encoding="UTF-8"?>
<svg id="Layer_2" data-name="Layer 2" xmlns="http://www.w3.org/2000/svg" viewBox="0 0 69.3 101.24">
  <defs>
    <style>
      .cls-1 {
        fill: #000;
        stroke-width: 0px;
      }
    </style>
  </defs>
  <g id="illustrations">
    <g>
      <path class="cls-1" d="M69.28,5.98c0-.06,0-.13,0-.19,0,0,0-.01,0-.02,0-.03,0-.05-.01-.08,0-.01,0-.02,0-.03-.03.02-.06.03-.09.04-.04,0-.11-.06-.12-.1-.03-.11-.02-.23-.05-.33-.07-.24-.14-.47-.41-.59-.16-.07-.28-.22-.42-.34,0,0-.01-.03-.02-.04-.11-.3-.24-.39-.56-.39-.13-.42-.26-.83-.63-1.12-.27-.21-.49-.47-.74-.71-.3-.29-.58-.6-.9-.85-.16-.12-.41-.11-.59-.22-.27-.17-.49-.4-.74-.59-.16-.13-.33-.27-.55-.15,0,.07-.02.12-.02.18-.04-.03-.09-.07-.13-.1-.05-.03-.09-.08-.15-.09-.2-.05-.41-.1-.61-.13-.23-.04-.46-.08-.7-.11-.04,0-.08.02-.12.04-.19.08-.26.36-.53.3,0,0-.01,0-.02.01-.19.12-.37.25-.56.35-.06.03-.16-.02-.25-.02-.14,0-.29-.04-.42,0-.21.06-.4.15-.6.25-.18.09-.28.24-.28.45.14-.02.24-.03.35-.05,0,.03.01.07.02.1-.12.03-.25.05-.4.09,0,.1,0,.22.03.33.05.2,0,.34-.15.5-.2.23-.35.5-.51.76-.04.06,0,.2-.04.23-.14.11-.1.22-.09.36.01.14.01.3-.02.43-.07.27-.24.52-.25.79-.01.43-.31.49-.61.63.03-.06.05-.1.07-.13-.01-.01-.02-.02-.03-.03-.28.22-.55.45-.84.69,0,.01.02.06.04.12-.1.03-.2.05-.29.08-.13.04-.21.11-.06.23.16.14.24.45.12.62-.21.29-.46.57-.69.85-.14.16-.32.3-.42.48-.26.46-.49.94-.73,1.41-.08.15.04.23.14.23.21,0,.3.15.31.29.01.19.1.26.21.29.03.14.06.26.08.37.12.66,0,1.28-.24,1.89-.01.03-.03.05-.04.07-.12.18-.27.34-.35.53-.25.59-.46,1.2-.72,1.78-.33.74-.7,1.46-1.07,2.17-.23.44-.48.87-.75,1.28-.25.38-.56.73-.82,1.11-.16.24-.28.51-.43.76-.38.63-.75,1.27-1.15,1.88-.22.34-.44.69-.77.95-.33.25-.65.54-.92.85-.43.51-.81,1.06-1.2,1.6-.19.26-.33.57-.55.81-.29.31-.61.59-.95.85-1.09.85-2.19,1.69-3.28,2.54-.5.39-1,.79-1.5,1.17-.77.58-1.55,1.14-2.32,1.72-.67.5-1.33,1-1.98,1.51-.2.16-.39.34-.56.54-.14.17-.24.38-.36.57,0,0,.03.01.06.03-.2.22-.38.44-.57.65-.03.04-.08.06-.12.09-.08.07-.15.16-.23.22-.08.05-.18.08-.27.11-.08.02-.18,0-.23.04-.24.21-.49.42-.71.66-.4.43-.77.9-1.18,1.33-.54.56-1.1,1.09-1.65,1.63-.15.15-.28.3-.51.15-.03-.02-.09-.01-.13-.01-.44-.03-.88-.06-1.32-.08-.2,0-.4,0-.6.02-.19.02-.38.1-.57.1-.55,0-1.1-.05-1.65-.05-.41,0-.82.06-1.23.07-.64.02-1.27.02-1.91.05-.87.04-1.73.11-2.6.16-.55.03-1.1.03-1.65.06-.54.03-1.07.06-1.61.1-.26.02-.52.01-.77.06-.35.06-.7.18-1.05.25-.78.14-1.56.24-2.33.39-.36.07-.7.24-1.05.36-.06.02-.14.01-.18.02-.09.05-.15.1-.22.11-.23.03-.46.02-.69.07-.48.11-.95.24-1.42.37-.27.07-.55.12-.8.24-.33.17-.67.33-1.02.47-.28.11-.51.33-.84.27-.02,0-.06.02-.07.05-.08.25-.35.29-.52.45-.18.18-.42.31-.61.49-.23.21-.44.45-.68.7-.05-.11-.07-.14-.09-.18-.09-.19,0-.48-.28-.58-.02,0-.03-.13,0-.19.04-.08.11-.14.17-.21-.2.03-.31,0-.24-.26.03-.12-.02-.26-.03-.4-.01-.1-.03-.19-.03-.26-.07.01-.18.06-.22.03-.07-.06-.11-.17-.14-.26-.03-.11,0-.24-.04-.34-.08-.18-.19-.35-.3-.52-.09-.15-.24-.27-.27-.43-.05-.22-.18-.32-.34-.43-.03-.02-.11-.03-.12-.02-.08.14-.14.03-.21,0-.13-.08-.54-.07-.67.03.17.04.33.07.48.1,0,.02,0,.04,0,.07l-.64-.02c-.05.14-.15.29-.37.22-.02,0-.06.03-.08.04-.5.39-.64.9-.57,1.51.03.25-.02.52-.05.78-.03.23-.11.46-.13.69-.05.51-.09,1.03-.11,1.54-.01.21-.12.44.1.62.17.13.14.26-.12.35.18.1.32.18.46.26.16.09.22.22.16.39-.07.21-.1.42-.04.65.07.31.07.64.16.94.14.47.2.94.24,1.42.05.55.1,1.1.16,1.65.08.64.08,1.27,0,1.91.02-.02.05-.04.1-.08.04.56.09,1.09.12,1.52-.05.25-.1.42-.12.59-.02.17.11.3.09.48-.03.34.06.69-.09,1.02-.01.03,0,.07,0,.11.07.28.1.57,0,.85-.02.05,0,.11,0,.16.02.1.07.19.07.29,0,.39,0,.78-.01,1.17-.07,1.29-.14,2.57-.22,3.86,0,.05-.06.09-.09.14.08.07.11.25.06.45-.01.04-.07.08-.12.12.11.07.16.16-.06.24.23.12.06.2.02.26.02.1.07.19.06.27-.02.23-.09.45-.1.67-.03.53-.03,1.06-.05,1.59-.03.64-.03,1.27.07,1.9.05.32.07.64.07.96,0,.11-.11.22-.11.32,0,.22.05.44.09.65.12.65.25,1.3.38,1.95.05.26.09.53.18.78.21.59.44,1.18.68,1.76.11.27.27.53.44.77.1.15.26.27.38.41.31.33.6.68.93,1,.8.77,1.76,1.17,2.87,1.2.14,0,.28.1.42.15.01,0,.03,0,.05,0,0-.06.01-.12.02-.18.23-.05.35.05.39.25.07.42.14.84.17,1.26.04.42.02.84.05,1.25.01.19.11.36.14.55.03.25.02.51.05.76.07.47.22.93.25,1.41.03.49.06.96.23,1.43.08.22.04.5.04.74,0,.37.2.7.16,1.07,0,.04.04.09.06.14.02.05.03.1.05.16.02.09.04.18.06.28,0,.04.02.08.02.13,0,.23,0,.46-.02.69,0,.07-.04.14-.06.23,0,0,.07.03.07.06.02.23.03.46.03.69,0,.02-.03.06-.05.06-.12,0-.08.07-.04.12.03.04.09.05.13.08,0,.02,0,.03-.01.05-.07.01-.13.02-.16.02-.02.24-.05.46-.05.69,0,.2.02.41.05.61.08.56.15,1.13.25,1.69.04.21.19.4.27.61.12.31.19.63.33.92.16.3.31.65.75.65.02,0,.04.02.06.03.25.18.49.39.77.55.41.23.84.42,1.28.63-.04.23.17,0,.26.06-.12.15.02.16.11.19.39.12.78.24,1.17.37.68.22,1.36.46,2.05.66.4.12.83.17,1.24.25.37.07.73.14,1.1.21.28.05.57.04.83.13.65.21,1.33.31,2,.41.51.08,1.02.13,1.54.18.57.05,1.14.08,1.71.13.31.03.6.03.89.23.21.15.53.18.8.19.22.02.41.06.6.16,0,.02,0,.04,0,.07l-1.41.11v.06s.09.03.14.03c.78.01,1.55.05,2.33.03.54-.01,1.07.1,1.61.04.27-.03.56.06.85.08.11,0,.25-.06.34,0,.26.15.54.13.82.13.49,0,.98-.04,1.48-.06.36-.01.72,0,1.07-.02.65-.05,1.31-.13,1.96-.19.35-.03.71-.04,1.06-.09.32-.04.62-.14.94-.19.46-.07.93-.12,1.39-.16.54-.05,1.09-.07,1.63-.1.19-.01.37-.04.56-.06.16-.01.33-.01.49-.02.2-.01.4,0,.59-.04.5-.13.98-.3,1.48-.43.26-.07.53-.11.8-.15.25-.03.51-.03.76-.04-.11-.21.12-.2.24-.23.42-.13.85-.22,1.26-.37.5-.18.99-.4,1.48-.61.28-.12.58-.21.84-.36.42-.23.84-.49,1.23-.76.28-.2.53-.45.79-.68.12-.11.22-.23.35-.36-.01-.03-.04-.08-.07-.16.08.03.14.08.17.06.24-.15.52-.31.54-.63.02-.32,0-.65-.06-.97-.05-.3-.3-.46-.57-.42-.26.04-.48.32-.47.6,0,.27,0,.55.01.82,0,.11.02.23.04.39-.63.54-1.34,1.07-2.14,1.48-.8.41-1.66.55-2.5.78.12.01.24.02.37.03,0,.02,0,.04,0,.07-.08.04-.16.09-.25.12-.36.1-.71.22-1.08.28-.21.04-.49.26-.66-.11,0-.02-.06-.02-.08-.02-.17.01-.34.02-.51.05-.47.07-.93.15-1.4.21-.39.04-.79.03-1.19.07-.55.05-1.1.14-1.66.19-1.34.13-2.69.09-4.02.29-.91.14-1.85.14-2.78.15-.82.02-1.65-.02-2.47-.04-.58-.02-1.15-.09-1.73-.06-.77.04-1.54-.01-2.31.04-.37.02-.74-.07-1.12-.1-.11,0-.22.03-.32.02-.46-.04-.92-.09-1.37-.14-.18-.02-.35-.04-.53-.05-.26,0-.52.02-.77,0-.45-.05-.9-.14-1.35-.18-.93-.09-1.85-.25-2.76-.47-.2-.05-.37-.18-.57-.25-.33-.1-.66-.19-.99-.27-.67-.17-1.31-.43-2-.56-.31-.06-.6-.17-.9-.27-.52-.18-1.03-.39-1.56-.54-.68-.2-1.38-.34-1.97-.76-.1-.07-.21-.12-.31-.19.01-.02.02-.04.03-.06.09.01.18.02.32.04-.12-.11-.2-.18-.32-.3.11,0,.14-.02.17-.01.37.14.75.28,1.12.42.11.04.23.04.35.05v-.06c-.33-.14-.67-.3-.98-.49.23.02.46,0,.66.14.11.08.25.1.39.13.23.05.47.17.65.32.13.11.21.27.42.24.01,0,.03.03.05.05-.05.04-.1.07-.21.14.35.05.64.1.93.12.29.02.58,0,.87.02.14,0,.28.05.42.09.34.1.68.21,1.02.3.08.02.18-.1.26-.08.47.09.95.19,1.41.31.29.07.56.2.84.28.39.11.79.21,1.18.31.13.03.26.03.39.04.09,0,.18,0,.27.01.15.03.3.16.46.2.47.11.95.2,1.43.29.22.04.42.1.61.23.09.07.22.1.34.12.25.04.5.04.75.07.18.02.39.13.55.07.3-.11.58-.06.87,0,.27.06.53.18.8.23.31.05.63.03.95.06.42.03.84.07,1.25.12.11.01.22.05.32.05.69-.02,1.39-.05,2.08-.08.16,0,.32-.02.48-.02.46.02.93.11,1.39.07.44-.04.88.05,1.31-.1.16-.06.35-.06.53-.08.24-.02.49-.02.73-.03.11,0,.23-.03.34-.05.32-.05.64-.11.97-.16.3-.04.6-.07.9-.11,0-.02.02-.04.02-.06-.12-.05-.23-.11-.41-.19.11-.06.18-.13.26-.13.37-.03.74-.06,1.1-.07.16,0,.31-.05.48-.05.49.02.99-.06,1.49-.11.38-.04.75-.07,1.13-.13.4-.06.81-.12,1.2-.21.39-.08.76-.2,1.15-.29.42-.11.85-.2,1.27-.32.25-.07.48-.18.73-.26.69-.22,1.37-.44,2.06-.67.24-.08.47-.2.71-.3,0-.02,0-.03-.01-.05-.27.07-.53.14-.8.2.02.09-.06.13-.48.19.1-.06.18-.12.3-.2-.11-.02-.18-.06-.24-.04-.24.06-.48.15-.72.21-.99.24-1.97.48-2.96.69-.52.11-1.04.16-1.57.24-.5.07-1,.16-1.51.22-.14.02-.29-.04-.43-.06-.09-.01-.19-.04-.28-.03-.48.04-.95.09-1.43.13-.65.05-1.31.09-1.97.11-.66.02-1.32.03-1.97.02-.59,0-1.18-.03-1.77-.04-.48,0-.97,0-1.45,0-.68,0-1.36-.05-2.04-.03-.59.02-1.19,0-1.72.33-.02.01-.04,0-.07,0-.48,0-.96.03-1.45.02-.25,0-.49-.07-.74-.06-.24.01-.45-.25-.7-.06-.01,0-.05-.02-.08-.03-.45-.07-.89-.15-1.34-.2-.39-.04-.78-.02-1.17-.07-.46-.05-.92-.15-1.39-.23-.56-.09-1.11-.18-1.67-.27-.37-.06-.75-.11-1.12-.21-.24-.06-.52-.08-.67-.33-.01-.02-.07-.01-.1,0-.09.01-.18.06-.26.04-.76-.19-1.51-.4-2.27-.6-.35-.09-.7-.15-1.05-.26-.29-.09-.56-.22-.84-.34-.09-.04-.18-.11-.27-.13-.17-.03-.33-.02-.4-.24-.03-.11-.13-.2-.21-.28-.09-.09-.19-.2-.35-.08-.03.02-.14-.03-.18-.08-.41-.41-.84-.78-1.48-.87,0-.12,0-.25.01-.37.01-.14.05-.28.04-.42,0-.08-.1-.23-.13-.22-.11.02-.2.1-.32.16.11.08.16.13.22.17,0,.01-.02.02-.02.03-.1-.03-.2-.06-.29-.09-.02-.18-.05-.35-.05-.51-.01-.32,0-.65-.02-.97-.04-.56-.09-1.11-.16-1.66-.06-.47-.14-.94-.21-1.41-.03-.19-.06-.38-.07-.57-.03-.65-.05-1.31-.09-1.96-.02-.25-.08-.5-.11-.75-.03-.28-.05-.55-.07-.83-.01-.21,0-.42-.01-.64-.02-.29-.04-.59-.07-.88,0-.07-.02-.13-.03-.2-.02-.08-.05-.16-.07-.26.1-.08.08-.16-.02-.28-.11-.13-.19-.28.02-.42.05-.04.06-.16.05-.25-.02-.12-.13-.28-.09-.33.1-.13.01-.2-.03-.28-.11-.2-.08-.42-.12-.63-.01-.06-.01-.12-.02-.22-.07.08-.1.11-.13.14-.04-.07-.11-.13-.12-.2-.03-.15-.02-.31-.04-.46-.04-.3-.07-.6-.13-.89-.08-.41-.19-.82-.28-1.23-.06-.27-.09-.54-.15-.81-.06-.3-.15-.59-.19-.89-.06-.44-.06-.88-.12-1.32-.08-.56-.2-1.12-.3-1.68-.05-.29-.13-.57-.17-.86-.03-.21-.02-.42-.03-.63,0-.17-.02-.33-.04-.5-.03-.22-.08-.44-.1-.66-.03-.32-.03-.64-.04-.96,0-.02.02-.05.02-.07.01-.08.04-.16.03-.24-.02-.12-.09-.22-.11-.34-.02-.16-.01-.32-.02-.48,0-.17-.06-.35-.02-.5.05-.16.07-.26-.07-.31,0-.22.02-.42.02-.61,0-.16-.04-.31-.05-.47-.01-.21.09-.41-.03-.62-.04-.07.01-.18.02-.28,0-.05,0-.1,0-.15-.02-.21-.13-.47-.04-.62.1-.18.01-.31.03-.46,0-.08-.03-.16-.01-.23.05-.19.03-.36-.12-.49.18-.16.23-.35.18-.57-.05-.22-.08-.44-.15-.66-.03-.11-.11-.22-.19-.3-.16-.16-.21-.45-.11-.57-.16-.31-.04-.64-.09-.94-.04-.3-.16-.6-.01-.92-.06,0-.1.01-.21.03.25-.22.12-.43.11-.64-.02-.27.2-.4.44-.27.16.09.32.2.49.27.25.12.52.22.77.33,0-.01,0-.02.01-.04-.28-.16-.55-.32-.83-.47.01-.03.03-.05.04-.08.31.15.62.3.92.45l.03-.06c-.18-.17-.36-.34-.54-.5-.31-.26-.64-.51-.93-.78-.21-.19-.35-.46-.68-.51-.04,0-.1-.08-.1-.13-.03-.32-.05-.65-.07-.98,0-.11.04-.22.02-.33-.03-.19-.11-.37-.13-.56-.02-.21,0-.43-.02-.65-.04-.34-.11-.67-.16-1-.03-.2-.08-.39-.08-.59-.01-.29.02-.58.01-.87,0-.38-.03-.75-.04-1.19.25.12.43.2.61.29.78.41,1.54.85,2.38,1.13.22.07.47.08.7.14.41.12.8.25,1.21.38.47.15.95.29,1.43.43.24.07.51.09.73.2.56.3,1.16.39,1.79.44-.09-.05-.17-.11-.26-.16,0-.03.01-.05.02-.08.47.1.94.19,1.41.29.86.19,1.7.43,2.59.51.83.08,1.66.22,2.48.32.48.06.98.06,1.44.18.38.1.75.09,1.13.12.49.05.97.13,1.46.18.72.07,1.44.13,2.16.2.41.04.83.07,1.24.11.23.02.47.09.7.1.6.02,1.2,0,1.8.02.26,0,.51.08.76.09.46.01.93,0,1.39-.02.09,0,.17-.06.26-.08.06-.02.12-.04.19-.05.15,0,.29.02.44,0,.24-.03.48-.11.72-.11.38,0,.76.06,1.13.07.41,0,.82-.04,1.23-.04,1.15.02,2.29.14,3.42.36.22.04.46.01.69,0,.28-.01.55-.04.82-.05.36-.02.72-.01,1.07-.06.88-.12,1.75-.35,2.64-.42.31-.02.62-.13.94-.18.37-.05.74-.06,1.11-.1.14-.01.28-.05.42-.07.44-.05.88-.07,1.32-.14.61-.09,1.21-.22,1.82-.33.11-.02.23-.05.33-.08.04-.01.06-.09.09-.1.22-.05.43-.08.65-.12.04,0,.1-.02.12-.05.07-.1.06-.1.13-.1.37-.03.75-.02,1.06-.3.04-.03.11-.04.17-.04.39.04.76-.05,1.13-.17.87-.3,1.75-.58,2.63-.88.28-.1.59-.19.72-.52.02-.05.08-.09.13-.11.16-.07.32-.16.48-.17.23-.01.52-.22.69.13.11-.06.23-.09.11-.25-.03-.03,0-.15.03-.17.22-.14.34-.35.46-.62-.11.05-.18.08-.25.1-.01-.02-.02-.03-.04-.05.03-.03.07-.06.1-.09.06-.07.14-.13.15-.2,0-.06-.07-.19-.11-.19-.21,0-.46-.04-.63.06-.36.22-.67.51-1,.77-.07.06-.17.09-.26.12-.16.06-.33.11-.49.17-.19.08-.38.16-.57.24-.03.01-.08-.02-.13-.02,0,0-.02.02-.02.03.03.03.07.06.11.11-.18,0-.33.02-.48.03,0-.01,0-.03,0-.04-.12.04-.24.07-.34.1.3-.81.59-1.58.87-2.36.14-.38.26-.77.4-1.15.09-.25.24-.5.25-.75.01-.24.29-.41.14-.71-.05-.1.09-.34.1-.53,0-.24.13-.47.2-.7.02-.06.02-.13.04-.23.08,0,.17.02.25.03.36.06.63.29.92.49.25.17.53.32.71.55.36.46.7.95.83,1.53.1.42.1.86.15,1.28.02.13.02.29.1.37.37.4.34.89.31,1.36-.04.48-.21.95-.34,1.42-.16.6-.37,1.19-.5,1.79-.09.41-.17.84.19,1.2.03.03.05.08.04.12-.06.47,0,.95-.23,1.39-.09.17-.1.39-.16.58-.04.12-.08.23-.14.34-.14.23-.32.45-.43.69-.07.15-.09.35-.04.5.06.17.02.26-.1.36,0,0,0,.02,0,.04.05.02.1.03.14.05-.06.45-.36.77-.56,1.14-.07.13-.21.28-.06.42.15.15.13.31.1.47-.11.52-.23,1.03-.34,1.55-.02.08,0,.17,0,.22-.05.07-.11.12-.12.18-.02.1.01.2,0,.3-.2.82-.41,1.63-.59,2.44-.04.16-.18.34.01.51-.06,0-.11,0-.14,0-.02.25-.04.48-.06.72.04.02.1.05.16.08-.24.03-.33.27-.19.51-.05.01-.09.03-.12.03.04.05.11.12.1.14-.09.16.02.43-.2.49.02.06.06.12.05.16-.07.25-.11.52-.22.75-.12.26-.08.59-.36.78-.01,0,.03.1.05.15,0,.03.02.05.04.09-.05.02-.09.03-.08.03,0,.1,0,.18-.01.26,0,.05-.08.1-.07.13.08.27-.05.51-.1.76-.03.14-.11.27-.17.4,0,0,.02.03.04.05-.1.04-.18.07-.26.1.1.13-.04.1-.08.1-.05.01-.11-.01-.17-.02,0,.02-.01.04-.02.05.09.04.18.08.27.12-.29-.08-.36.11-.4.33-.09.51-.18,1.03-.26,1.54-.05.33-.08.65-.14.98-.05.31-.03.63-.11.94-.13.53-.17,1.09-.26,1.63-.1.61-.19,1.22-.3,1.83-.07.38-.17.75-.26,1.12-.11.51-.23,1.01-.33,1.52-.12.55-.24,1.1-.35,1.65-.16.78-.32,1.55-.48,2.33-.07.33-.11.67-.17,1-.04.21.01.49-.2.6.02.07.06.13.06.19-.01.12-.06.23-.08.35-.08.42-.15.84-.24,1.25-.11.5-.22.99-.34,1.49-.04.19-.09.38-.15.57-.02.07-.09.12-.18.22,0,0-.05.02-.09.05-.2.23-.4.47-.6.71-.05.06-.16.09-.19.16-.07.14-.13.25-.27.34-.44.29-.87.61-1.31.91-.08.05-.2.06-.27.12-.46.35-.94.66-1.49.84-.23.07-.46.12-.69.18-.37.09-.73.21-1.1.27-.57.09-1.14.14-1.71.22-.09.01-.17.08-.26.12v.08c.1.02.19.05.28.07.21.05.42.1.63.14.17.03.36.1.52.06.69-.15,1.38-.32,2.06-.52.38-.11.75-.27,1.12-.42.31-.12.62-.23.92-.37.45-.22.9-.45,1.34-.69.32-.17.66-.31.89-.61.07-.09.22-.19.32-.18.45.06.71-.28.9-.53.27-.36.43-.81.57-1.25.18-.6.31-1.21.45-1.82.12-.52.24-1.04.33-1.56.09-.51.15-1.03.22-1.55.01-.1-.03-.21-.04-.32,0,0-.02,0-.03.01-.04.3-.09.6-.13.9-.02,0-.05,0-.07.01-.02-.08-.07-.17-.06-.24.07-.38.15-.76.22-1.14,0,.07.02.14.03.23.13-.45.08-.91.3-1.3,0,.08-.02.16-.02.25.02,0,.05,0,.07,0,.04-.34.09-.68.14-1.06-.07.17-.13.3-.18.43-.01,0-.03-.01-.04-.02.06-.27.12-.53.18-.77-.13-.08-.22-.14-.34-.21-.02.19-.04.39-.07.64-.15-.24-.14-.42-.04-.61.08-.17.16-.34.26-.54.06.11.09.15.13.22.03-.1.22-.15.01-.23-.01,0,0-.07,0-.1.02-.22.02-.45.05-.67.05-.33.14-.65.2-.98.1-.52.19-1.04.28-1.56.05-.27.08-.54.1-.81,0-.1-.07-.22-.03-.31.13-.35.3-.68.25-1.07,0-.04.05-.09.05-.14.03-.22.32-.4.13-.59.05-.17.09-.29.12-.42.06-.22.11-.45.17-.66.12-.43.27-.84.38-1.27.07-.27.11-.55.17-.83.07-.37.13-.74.21-1.11.03-.12.15-.22.16-.33.04-.27.05-.55.07-.82,0-.01,0-.03,0-.04.13-.42.25-.83.38-1.25.04-.14.06-.27-.19-.24.05-.06.07-.09.1-.11.13-.11.26-.57.22-.74-.01-.05.03-.13.07-.16.21-.19.19-.49-.04-.61.25,0,.4-.14.39-.37,0-.04-.02-.09,0-.12.05-.15.13-.29.16-.44.07-.34.28-.63.27-.99,0-.07.02-.14.03-.2-.02,0-.04-.01-.06-.02.06-.02.11-.05.12-.05.03-.17.03-.38.07-.39.29-.05.13-.31.23-.45.06-.08.05-.21.07-.37,0,0,.08-.04.07-.06-.07-.2.11-.23.21-.28-.05-.09-.1-.18-.16-.27.09,0,.15,0,.16-.01-.01-.16-.02-.3-.03-.44.07-.03.12-.06.19-.09-.06-.07-.1-.11-.11-.13.06-.11.1-.2.14-.28.03-.06.06-.13.11-.23-.1-.17.06-.83.21-.87-.03-.1-.05-.2-.08-.34.12.03.18.04.23.05,0-.01,0-.02,0-.03-.05-.03-.09-.06-.11-.07.04-.2.08-.38.13-.59,0,.01-.05-.03-.04-.05.04-.14.09-.28.15-.41.03-.08.09-.15.12-.23.03-.08.04-.16.07-.27-.15-.19.03-.41.06-.64,0-.09.03-.18.05-.28.24-.35.22-.77.29-1.17-.08-.03-.14-.06-.15-.06.06-.11.12-.19.14-.28.02-.1,0-.21-.01-.31-.02-.18-.08-.36-.05-.53.13-.74.29-1.47.42-2.21.19-1.09.36-2.19.55-3.28.01-.07.02-.16.05-.23,0,0,0,0,0,0,0-.02,0-.04.01-.06.01-.08.02-.17.03-.25,0-.09.04-.17.11-.24.09-.45.27-.87.48-1.29.07.07.11.11.18.18,0-.1-.01-.16-.02-.23.05,0,.09,0,.12,0,.19.05.31.02.39-.21.09-.27.22-.53.35-.79.06-.12.15-.22.22-.33.1-.17.19-.36.3-.52.27-.38.56-.75.84-1.13.11-.15.19-.31.29-.45.16-.22.34-.42.49-.64.13-.19.21-.41.36-.58.26-.3.53-.59.82-.86.14-.13.23-.35.5-.34.08.31.21.61.22.92.02.42-.06.83-.09,1.25-.05.76-.29,1.45-.67,2.11-.09.15-.1.33-.15.5-.05.2-.11.4-.3.51-.15.09-.32.13-.48.2-.15.06-.3.14-.46.19-.1.03-.22.03-.3.03-.06.22-.11.42-.15.61,0,.03,0,.07.01.08.15.12.04.22-.03.33-.06.1-.13.2-.18.31-.25.55-.51,1.1-.72,1.67-.26.69-.48,1.4-.7,2.1-.2.64-.38,1.28-.54,1.92-.09.35-.13.72-.2,1.07-.04.18.04.43-.16.48-.04.11-.06.16-.09.22-.06.14-.15.28-.19.43-.06.21-.08.43-.12.65-.03.16-.09.32-.12.48-.08.42-.16.85-.23,1.27-.11.71-.22,1.42-.29,2.14-.07.65-.08,1.31-.11,1.97-.01.21-.02.42-.02.63,0,.28.04.57.02.85-.07.86-.3,1.69-.34,2.56-.03.65-.1,1.3-.25,1.93-.25,1.08-.54,2.16-.85,3.22-.17.58-.45,1.12-.66,1.69-.35.95-.74,1.87-1.24,2.76-.39.69-.8,1.35-1.34,1.93-.18.19-.37.36-.66.39-.18.02-.33.17-.33.35,0,.31,0,.61-.15.9-.06.11-.02.27-.02.41,0,0,.02,0,.03,0,.03-.08.06-.16.1-.25.13.17.24.19.4.05.55-.47,1.03-.99,1.44-1.58.58-.84,1.25-1.64,1.7-2.56.36-.73.67-1.49,1-2.23.01-.03.02-.08,0-.1-.12-.13-.05-.2.07-.27.03-.02.06-.06.08-.1.08-.28.16-.57.25-.84.12-.37.26-.73.39-1.09.01-.04-.01-.09,0-.13,0-.05.02-.11.03-.16.02-.06.04-.13.05-.19.03-.14.05-.28.09-.42.06-.24.15-.48.19-.72.06-.3.19-.57.29-.85.09-.25.14-.52.2-.79.01-.05.02-.1.03-.15.1-.55.2-1.1.28-1.65.01-.07-.06-.19-.13-.24-.17-.13-.08-.22-.02-.35.07.07.12.11.16.15.02-.08.02-.16-.02-.18-.2-.1-.17-.19-.05-.26v-.34s.06,0,.08,0c.01.08.03.16.04.24h.06c.02-.12.06-.22-.09-.31-.05-.03-.1-.11-.09-.16.07-.46.17-.91.23-1.36.07-.64.11-1.28.17-1.93.05-.58.1-1.15.16-1.73.06-.51.19-1.02.2-1.53,0-.41.16-.78.19-1.18.03-.36.15-.72.23-1.07.08-.37.16-.74.25-1.1.1-.4.21-.8.3-1.21.06-.27.1-.55.16-.82,0-.03.04-.07.07-.07.25-.05.13-.15.06-.21.05-.18.1-.33.15-.49.02-.08.03-.16.06-.23.14-.37.27-.75.41-1.12.17-.43.37-.85.52-1.28.05-.15.21-.31.06-.47.06-.04.14-.07.18-.12.31-.52.62-1.03.92-1.56.06-.11.07-.25.11-.37.01-.08.05-.17.1-.24.06-.1.13-.2.2-.29.25-.32.56-.61.74-.96.24-.49.42-1.02.56-1.55.11-.43.19-.88.18-1.32,0-.45-.11-.91-.2-1.36-.04-.18-.02-.24.16-.31.4-.16.4-.22.08-.5-.03-.02-.05-.06-.08-.08-.18-.16-.35-.33-.54-.47-.15-.11-.28-.22-.34-.42-.07-.23-.22-.4-.46-.51-.1-.05-.19.03-.24,0-.18-.11-.34-.24-.51-.37-.12.02-.26.02-.4.06-.27.08-.53.18-.8.27-.05.02-.1.05-.15.04-.19-.04-.33.06-.46.18-.2.19-.5.27-.63.54-.03.07-.05.15-.1.19-.67.62-1.05,1.43-1.35,2.26-.34.93-.52,1.92-.58,2.92-.01.28-.02.56-.05.84-.02.16-.06.33-.1.49-.02,0-.05,0-.07,0-.01-.07-.04-.14-.04-.2-.05-.57-.09-1.14-.3-1.68-.1-.24-.18-.52-.36-.7-.44-.44-.93-.82-1.4-1.23-.03-.03-.05-.08-.07-.1-.17.08-.28-.04-.4-.11-.11-.07-.22-.14-.34-.2-.38-.19-.61-.27-.53-.84.04-.25.03-.5.13-.75.1-.24.03-.55.11-.81.22-.67.24-1.36.27-2.06.01-.2.01-.4.02-.6-.02,0-.04,0-.06-.01-.07.19-.15.37-.22.56-.02,0-.04-.01-.06-.02,0-.04,0-.08.01-.12,0-.2.09-.44.01-.61-.09-.2-.06-.36-.03-.54.06-.28.14-.55.22-.85.09.06.13.08.17.11.02-.01.03-.02.05-.03-.03-.07-.06-.13-.1-.2-.03-.07-.1-.13-.11-.19,0-.33,0-.67.02-1,.01-.26,0-.51.13-.76.1-.19.1-.44.14-.66,0-.06-.05-.13-.03-.19.06-.33.14-.66.2-.99.03-.16.07-.32.09-.48.05-.42.08-.84.14-1.26.05-.32.12-.64.18-.96.04-.24.06-.49.12-.73.15-.58.37-1.14.47-1.72.1-.64.29-1.25.46-1.86.23-.8.56-1.57.86-2.35.18-.47.39-.92.59-1.38.16-.35.34-.69.48-1.05.06-.15.02-.33.03-.52.04.05.07.08.09.12.21-.44.42-.88.63-1.34-.08-.02-.14-.03-.26-.06.12-.09.18-.16.27-.19.07-.03.22-.18.23-.26.02-.08.07-.16.1-.23.15.09.12-.06.15-.12.04-.07.09-.13.11-.2.06-.16.07-.35.25-.45,0,0,.02-.03.01-.04-.12-.17.04-.26.11-.37.23-.42.45-.85.69-1.26.15-.24.19-.55.49-.71.13-.07.22-.26.3-.41.2-.36.4-.68.89-.64.06,0,.19-.1.19-.16.01-.2.14-.24.29-.23.16,0,.24-.03.24-.22,0-.14.03-.3.09-.43.1-.18.02-.29-.08-.42-.06-.08-.08-.19-.13-.28-.03-.06-.09-.11-.14-.18.04-.03.11-.08.16-.14.11-.12.18-.28.31-.37.14-.09.16-.19.19-.32.05-.2.11-.4.2-.57.15-.29.36-.55.5-.84.1-.22.1-.49.21-.7.32-.65.67-1.27,1-1.91.13-.24.29-.49.33-.75.08-.51.07-1.04.1-1.58,0,0,0,0,0,0-.02-.04-.02-.09-.02-.13ZM12.24,94.91c-.13-.09-.26-.18-.42-.29.24-.08.33-.03.42.29ZM10.65,94.86c.02.14.04.27.06.4-.19-.1-.19-.12-.06-.4ZM10.22,94.45c.08.02.18.01.24.06.04.04.03.14.04.22-.06-.02-.13-.04-.19-.08-.05-.03-.07-.09-.11-.13,0-.02.01-.05.02-.07ZM6.39,57.9s-.02.05-.03.07c-.11-.04-.22-.09-.34-.13.19-.16.24.05.36.06ZM61.41,68.43c-.08.44-.03.9-.33,1.28-.05-.39.3-.77.02-1.17.1-.04.2-.08.31-.12ZM62.23,45.95c.09-.79.33-1.55.68-2.26.19-.38.46-.73.73-1.06.28-.34.6-.66.94-.96.26-.23.75-.23,1.03-.03.07.05.1.16.15.25.04-.02.09-.03.15-.06-.11.23.09.17.18.21.17.09.26.3.21.49,0,.03-.02.07-.01.08.24.19,0,.27-.09.37-.32.31-.66.59-.96.91-.35.37-.66.77-1,1.15-.32.37-.64.75-.96,1.12-.28.33-.57.66-.88,1.02-.13-.42-.21-.82-.17-1.23ZM1.21,44.72c-.14-.19-.24-.37-.27-.58-.02-.14.02-.3.04-.44,0-.05.03-.11.02-.15-.17-.43.03-.79.24-1.13.17-.27.42-.51.62-.75.24.36.5.69.7,1.05.15.27.21.6.34.88.17.34.05.71.13,1.06.06.31,0,.64.09.94.11.42.03.83.08,1.24,0,.06.02.11.04.16.06.11.01.14-.1.18-.22.09-.42.22-.67.36-.02-.02-.1-.08-.19-.16.07-.03.11-.04.15-.05-.01-.02-.03-.04-.03-.04-.07.04-.15.07-.25.13v-.32s-.03-.02-.06-.03c-.07.1-.14.19-.21.29-.08-.03-.16-.06-.27-.1.15-.12.26-.22.38-.31.04-.03.08-.06.13-.09-.07-.06-.14-.13-.25-.23.11-.18,0-.45-.15-.72-.03-.05-.09-.08-.12-.12-.04-.06-.08-.12-.1-.19-.09-.3-.11-.65-.29-.88ZM4.91,60.57c.06.37.2.73.26,1.11.08.58.11,1.16.17,1.74.06.64.13,1.27.2,1.91,0,.02,0,.04,0,.07,0,.72.02,1.45.02,2.17,0,.34-.04.69-.05,1.03,0,.07.05.15.08.23-.13.21-.1.34.09.55.06.07.05.21.05.32,0,.09-.03.19-.04.26.14-.08.26-.14.41-.23.1.83.18,1.6.28,2.36.07.49.17.98.23,1.47.07.58.09,1.17.15,1.76.01.14.09.28.15.41.04.1.09.19.11.29.1.52.17,1.04.28,1.56.06.3.16.59.24.88.02.09.03.18.02.27,0,.05-.06.13-.11.14-.25.06-.52.16-.76.13-.57-.08-1.14-.17-1.61-.59-.74-.65-1.28-1.44-1.76-2.28-.47-.82-.81-1.68-1.07-2.58-.12-.43-.25-.86-.38-1.3-.08-.29-.16-.59-.25-.88,0-.02-.02-.04-.02-.06.06-.3-.11-.58-.1-.88.01-.3-.02-.61-.02-.91,0-.53-.03-1.05,0-1.58.05-1.02.11-2.04.19-3.06.08-1.14.21-2.28.28-3.42.06-1.06.08-2.12.11-3.18.04-1.34-.02-2.68-.15-4.01-.03-.3,0-.61-.02-.91-.02-.39-.07-.77-.1-1.16-.04-.44-.08-.87-.13-1.31-.09-.79-.19-1.57-.28-2.36-.02-.13.02-.19.13-.27.26-.17.29-.43.11-.69.28-.04.28-.04.29-.23.13.02.13.03.11.24.15-.01.29-.03.43-.04,0,.02.01.03.02.05-.04.04-.07.07-.11.11.08.14.18.28.24.43.04.11.03.24.06.35.09.33.18.66.3.99.09.25.22.47.31.72.03.09.02.2.04.34,0,0,.04.04.08.06,0,.1-.03.2,0,.28.05.14.14.27.2.41.02.04,0,.1.01.16.02.12.04.24.07.36.03.1.07.21.14.29.21.26.1.59.18.88.12.43.15.9.2,1.35.16,1.4.31,2.79.47,4.19.08.68.16,1.36.27,2.04ZM23.95,49.08c-.1.17-.18.34-.29.5-.09.14-.2.26-.29.39-.08.13-.15.28-.22.42-.02.03-.03.07-.05.1-.17.26-.34.52-.52.76-.16.21-.37.39-.53.61-.17.22-.3.46-.46.69-.11.16-.08.3.05.43.05.06.1.12.14.18,0,.02-.02.04-.03.07-.23-.04-.47-.08-.7-.13-.02,0-.03-.09-.03-.11-.14.03-.3.09-.45.08-.52-.04-1.04-.11-1.56-.15-.5-.04-1.01-.05-1.51-.09-.49-.04-.98-.09-1.46-.16-.54-.08-1.07-.18-1.61-.27-.49-.08-.98-.12-1.46-.22-.78-.16-1.55-.34-2.31-.54-.42-.11-.83-.27-1.25-.41-.01,0-.03-.01-.04-.01-.36-.07-.72-.13-1.08-.23-.2-.05-.39-.18-.58-.26-.62-.25-1.23-.5-1.75-.94-.06-.05-.1-.12-.13-.2-.3-.07-.5-.2-.5-.58,0-.2-.15-.39-.22-.59-.06-.15-.12-.3.01-.44.02-.02.03-.08.02-.11-.12-.16,0-.28.07-.41.02-.04.06-.09.05-.12-.12-.33.14-.47.35-.57.29-.13.53-.31.76-.52.41-.37.93-.54,1.45-.69.49-.14.97-.29,1.46-.43.38-.11.77-.24,1.16-.27.84-.06,1.65-.29,2.47-.46.16-.03.32-.03.49-.05.15-.02.31-.05.46-.06.15,0,.3,0,.44,0,.18,0,.37.02.55,0,.46-.05.92-.11,1.38-.19.45-.08.89-.19,1.34-.27.22-.04.45-.01.67-.05.4-.07.78-.19,1.18-.23.57-.07,1.14-.09,1.72-.13,0-.01-.02-.05-.03-.08.28-.02.56-.05.84-.07.23,0,.46,0,.69.02.3.02.57-.1.85-.12.49-.04.99.01,1.49.03.04,0,.08,0,.13-.05-.25-.06-.49-.12-.81-.19.26-.02.46-.03.66-.05.07,0,.13-.06.2-.08.05-.02.1-.03.15-.02.2,0,.39.01.59.02,0-.03,0-.06,0-.09-.41-.01-.81-.04-1.22-.04-.91,0-1.81.01-2.71.03-.27,0-.55.07-.82.09-.54.05-1.08.07-1.62.14-.64.08-1.26.22-1.9.31-.23.03-.47-.01-.7,0-.22.02-.44.08-.67.12-.06.01-.11.04-.17.05-.23.04-.47.07-.7.11-.29.04-.57.08-.86.13-.48.09-.96.2-1.44.29-.87.17-1.74.31-2.6.5-.59.13-1.18.32-1.76.49-.45.13-.9.27-1.35.4-.15.04-.26.13-.38.22-.13.1-.34.09-.52.13l-.02-.06c.15-.05.31-.1.46-.15v-.05c-.09,0-.18,0-.27.02-.23.07-.46.15-.69.23-.01-.03-.02-.05-.03-.08.23-.14.46-.28.7-.43.01.01-.02-.02-.08-.1.14-.04.27-.07.39-.12.15-.05.3-.1.44-.17.3-.16.59-.35.9-.5.23-.11.49-.17.74-.25.04-.01.07-.03.1-.08-.23.04-.46.09-.69.13v-.03c.27-.14.56-.27.84-.41-.02-.03-.03-.07-.05-.1-.14.06-.28.13-.42.19-.24.1-.46.28-.76.19-.05-.01-.12.05-.18.08-.43.2-.86.41-1.29.61-.03.01-.07,0-.14-.05.39-.23.78-.48,1.18-.7.36-.19.73-.37,1.11-.52.42-.16.85-.29,1.29-.42.35-.11.7-.2,1.05-.3.41-.11.83-.23,1.25-.3.65-.12,1.31-.2,1.97-.3.26-.04.51-.11.76-.15.21-.03.42-.04.63-.06.26-.02.51-.05.77-.07.33-.02.65-.05.98-.06.29,0,.59,0,.88,0,.44,0,.88-.03,1.32-.01.2,0,.41.12.61.12.81-.02,1.62-.06,2.43-.1.95-.05,1.9-.09,2.85-.17,1.08-.08,2.16-.2,3.24-.3.24-.02.49-.04.75.1-.13.14-.26.25-.36.38-.21.26-.42.52-.63.78-.15.2-.29.42-.45.61-.08.09-.21.14-.3.22-.1.11-.19.23-.27.35-.03.05-.03.12-.06.16-.29.38-.6.76-.88,1.15-.18.25-.35.52-.49.8-.21.4-.56.49-.97.51-.61.03-1.22.1-1.82.14-.33.02-.67.03-1,.04-.7.04-1.4.06-2.1.12-.59.05-1.17.14-1.76.21-.34.04-.68.08-1.02.12-.63.07-1.28.06-1.88.22-.57.15-1.15.12-1.71.23-.85.16-1.7.29-2.55.43-.66.11-1.33.19-1.99.32-.24.05-.46.19-.69.29-.1.04-.19.09-.29.1-.24.02-.31.14-.25.36,0,.03,0,.06,0,.1-.08.02-.14.03-.19.06-.04.02-.08.08-.08.12,0,.03.06.09.1.1.67.16,1.36.21,2.04.07.22-.04.44-.14.66-.22v-.05c-.2-.02-.39-.04-.58-.05,0,0,0-.02,0-.03.16-.04.31-.08.47-.12.64-.15,1.27-.32,1.94-.33.56-.01,1.13-.14,1.69-.22.38-.06.75-.12,1.12-.18.09-.02.18-.06.27-.09.05-.02.1-.06.14-.05.61.13,1.2-.04,1.79-.1.55-.05,1.1-.18,1.64-.26.17-.03.35-.02.53-.05.37-.06.73-.14,1.09-.18.51-.06,1.02-.09,1.54-.14.16-.01.31,0,.45-.14.08-.08.27-.05.41-.07.45-.04.9-.07,1.34-.12.36-.04.72-.12,1.1-.14-.19.27-.4.53-.55.83-.07.12-.26.2-.18.41.02.05-.11.14-.18.22-.11.13-.22.26-.33.38-.02.03-.05.07-.08.08-.25.04-.2.21-.21.35ZM24.31,52.17c-.06.14-.11.24-.16.35-.05.1-.09.2-.16.35-.08-.27.05-.52.31-.7ZM24.07,53.59c.18-.04.35-.08.52-.12,0,.02,0,.05,0,.07q-.47.23-.53.05ZM24.22,53.28c.15-.03.3-.07.46-.1-.17.26-.34.31-.46.1ZM56.38,39.79c-.08.3-.05.64-.3.9-.07.07-.02.26,0,.39.05.29.16.58-.08.85-.01.01-.02.04-.01.06.15.41-.1.81-.05,1.22.04.31-.1.6-.27.86-.1.15-.18.31-.07.5.02.04.01.12,0,.17-.2.53-.41,1.06-.59,1.59-.04.11.03.25,0,.36-.03.14-.11.27-.17.4-.03.07-.05.13-.08.2-.11.32-.22.65-.34.96-.15.39-.32.77-.49,1.15-.16.38-.35.74-.47,1.13-.15.47-.52.89-.39,1.43.07.29-.07.48-.26.66-.04.03-.09.06-.13.06-.33.01-.56.19-.74.44-.08.1-.16.15-.29.09,0,0-.01,0-.02,0-.14,0-.33-.1-.4.08-.04.1.06.24.1.37-.29-.05-.62.14-.93-.1-.01-.01-.06,0-.06,0-.04-.34-.28-.15-.4-.13-1.11.16-2.22.36-3.34.5-.79.09-1.58.09-2.38.13-.79.04-1.58.04-2.35.29-.23.07-.49.03-.74.05-.37.03-.73.07-1.1.09-.27.02-.53,0-.8.01-.8.03-1.6.08-2.4.11-.45.01-.9,0-1.35-.01-.35,0-.7,0-1.05-.02-.43-.02-.86-.07-1.29-.1-.46-.03-.91-.05-1.37-.07-.13,0-.26.03-.39.05-.04,0-.07,0-.11,0-.37-.04-.73-.09-1.1-.13-.08,0-.17.04-.25.03-.2-.03-.4-.1-.61-.13-.23-.03-.46-.03-.69-.04-.22,0-.44.01-.66-.03-.25-.05-.51.05-.75-.14-.09-.07-.26-.03-.39-.04-.33-.03-.67-.06-1-.09-.12-.01-.23-.05-.35-.06-.07,0-.16-.03-.22,0-.13.08-.23.03-.28-.08-.04-.09-.05-.22-.02-.32.03-.11.11-.2-.06-.25.15-.22.14-.25-.11-.31-.04,0-.09-.09-.09-.14,0-.35.01-.7.03-1.06,0-.06.06-.11.08-.16.12-.25.23-.5.35-.75.13-.28.26-.56.4-.83.13-.24.28-.48.41-.72.05-.1.05-.24.11-.34.26-.41.53-.82.8-1.23.39-.6.79-1.2,1.17-1.8.44-.69.85-1.41,1.3-2.09.36-.55.8-1.05,1.17-1.59.31-.46.57-.95.86-1.42.28-.45.55-.9.85-1.33.1-.14.28-.23.42-.35.06-.05.1-.11.16-.17.11-.12.22-.24.3-.39-.06.02-.11.03-.17.05.4-.43.8-.86,1.21-1.3.02.01.04.03.05.04-.45.59-.9,1.19-1.35,1.78.02.01.03.03.05.04.17-.19.34-.38.5-.57.5-.58,1.03-1.11,1.65-1.56.29-.21.55-.46.82-.7.34-.29.69-.57,1.02-.88.2-.19.36-.41.55-.61.09-.1.2-.18.31-.25.48-.32.97-.65,1.46-.96.26-.17.54-.3.8-.48.45-.31.93-.61,1.32-.98.19-.18.44-.28.59-.54.02.09.05.14.05.2.02.37.17.66.52.82.05.02.07.09.11.14.03.03.08.09.1.08.22-.11.25.08.29.2.08.22.19.38.45.44.14.03.34.13.38.34,0,.02.02.05.03.06.2.17.4.34.61.5.29.21.59.41.89.61.18.12.37.21.45.44.05.13.49.26.63.23.06-.01.13,0,.18.02.42.25.83.51,1.25.77.4.25.8.53,1.24.67.64.2,1.13.68,1.77.87.43.13.81.35,1.11.72,0,0,0,0,0,0,.16-.19.25-.09.33.04.07.01.14.03.21.05.02,0,.04,0,.06,0,.12.01.24.02.35.06.12.05.21.14.35.23.1-.05.57.15.79.39.19-.17.41-.12.52.13.1-.02.2-.05.3-.05.16,0,.32.03.47.06.22.06.41.07.59-.1.04-.04.16-.03.21,0,.1.07.28.09.23.27ZM62.47,17.87c-.23.44-.43.88-.67,1.31-.09.17-.24.31-.34.48-.14.22-.27.44-.37.68-.42.95-.84,1.9-1.25,2.85-.13.3-.23.62-.37.92-.2.43-.43.84-.62,1.26-.12.26-.18.54-.27.82-.05.16-.11.33-.18.48-.04.08-.11.13-.19.21.08.22.05.45-.05.7-.25.58-.43,1.19-.51,1.82-.02.14-.07.28-.11.41-.32,1.08-.43,2.18-.51,3.3-.03.38-.15.76-.21,1.15-.14.87-.26,1.74-.24,2.63,0,.36-.04.72-.1,1.07-.04.24-.11.26-.34.15-.08-.04-.17-.06-.28-.1,0,.06.02.12.02.17-.2.02-.41.07-.61.06-.1,0-.23-.09-.28-.18-.2-.32-.21-.64,0-.97.31-.53.51-1.08.51-1.72,0-.53.14-1.06.2-1.6.04-.37.07-.74.1-1.11.02-.24.14-.48,0-.72.17-.33.22-.67.14-1.04.16-.1.14-.3.28-.44.16-.16.16-.47.24-.7.13-.38.26-.77.43-1.14.3-.65.61-1.3.94-1.93.23-.43.39-.88.53-1.34.07-.24.18-.48.25-.72.05-.19.06-.4.1-.6.02-.12.06-.25.09-.37.05-.18-.02-.28-.2-.3-.2-.02-.36-.07-.35-.34-.07.04-.12.05-.14.08-.17.3-.35.6-.51.9-.26.5-.51,1-.75,1.51-.12.25-.2.53-.31.79-.05.12-.16.21-.22.33-.12.25-.22.51-.34.76-.06.12-.08.21.1.26-.05.06-.09.11-.16.18,0-.07-.01-.11-.02-.15-.02,0-.03-.01-.05-.02-.06.16-.13.31-.18.47,0,.03.08.08.11.11-.08.05-.16.11-.26.18.09.06.15.09.2.12,0,.01,0,.03-.01.04-.06,0-.12-.01-.19-.02-.01.02-.03.04-.04.07-.29.86-.55,1.72-.87,2.57-.31.83-.39,1.7-.52,2.56-.11.69-.14,1.38-.17,2.07-.01.41-.14.82-.21,1.23-.04.02-.05.02-.05.02-.15-.02-.28-.1-.45-.08-.18.02-.23-.09-.2-.27.03-.16.03-.34-.03-.49-.03-.09-.17-.15-.28-.19-.04-.01-.15.07-.17.13-.05.15-.09.32-.11.48-.02.15-.07.16-.19.1-.37-.17-.74-.34-1.11-.52-.05-.02-.08-.09-.11-.13-.21.12-.49-.1-.52-.29-.2-.17-.36-.29-.51-.42-.07-.06-.1-.12-.22-.05-.06.04-.21-.02-.28-.08-.17-.15-.42-.22-.47-.51-.03-.15-.21-.23-.38-.31-.28-.12-.52-.32-.77-.49-.13-.09-.22-.18-.38-.02-.13.13-.33.05-.55-.17-.25.18-.23-.09-.31-.21-.06.02-.11.04-.12.05-.28-.23-.53-.46-.81-.65-.09-.06-.26-.02-.39-.02-.05,0-.13.01-.16-.02-.28-.28-.54-.58-.81-.87.02-.02.04-.04.06-.07.15.15.3.3.45.46.02-.02.03-.03.05-.05-.05-.31-.38-.42-.5-.69-.07.02-.13.03-.14.03-.1-.1-.17-.19-.25-.26-.26-.21-.37-.46-.37-.81,0-.29.14-.38.33-.5.21-.14.39-.32.58-.49.7-.62,1.41-1.22,2.09-1.86.29-.27.51-.61.78-.91.35-.38.74-.73,1.07-1.13.41-.48.78-1,1.17-1.5.23-.29.45-.61.73-.85.32-.28.55-.61.74-.97.49-.89.95-1.8,1.45-2.69.32-.57.69-1.1,1.01-1.67.19-.34.34-.71.51-1.07.31-.65.64-1.3.94-1.95.27-.59.49-1.2.79-1.77.15-.28.44-.49.69-.71.06-.06.21-.01.33-.02.08-.15.62-.33.78-.25.02.01.04.04.06.06.26.29.52.58.79.87.13.14.28.24.49.22.07,0,.15.1.23.14.16.07.33.13.5.2.14.06.29.11.43.18.24.12.48.24.73.36.03.01.07,0,.11-.05-.05-.02-.11-.03-.16-.06-.05-.03-.09-.07-.14-.11.06-.01.11-.03.17-.04.03,0,.06,0,.11,0-.04-.07-.07-.12-.09-.18,0-.01.02-.02.02-.04.09.06.17.14.27.18.29.12.58.23.87.35.14.06.29.12.41.22.08.07.13.18.19.28l-.28.14c-.24.26-.38.56-.16.92-.24.34-.51.68-.74,1.04-.28.45-.53.92-.79,1.37-.19.34-.39.67-.58,1-.07.12-.1.25-.18.36-.2.27-.23.62-.42.89-.06.08-.14.16-.19.22.04.09.07.16.13.29-.13-.05-.19-.07-.25-.09-.01.01-.03.03-.04.04.09.11.18.22.28.34-.01.02-.02.03-.03.05-.09-.07-.19-.13-.3-.21-.02.04-.05.1-.08.16.07.04.13.06.16.08-.11.35-.21.68-.32,1.02.03.02.07.04.1.06.24-.29.49-.59.69-.83.02-.14.04-.23.06-.33.02,0,.03,0,.05,0,.01.04.03.08.07.19.13-.2.23-.35.33-.51.02-.03,0-.09,0-.13-.03-.11-.01-.08.1-.13.1-.05.2-.16.26-.27.31-.55.61-1.1.92-1.65.23-.4.48-.8.73-1.2.05-.08.13-.14.22-.23.16.02.21.13.12.3ZM62.57,17.62c-.07-.06-.11-.1-.17-.16.11-.07.18-.12.3-.2-.05.15-.08.23-.13.37ZM67.63,7.43c-.09-.39-.19-.82-.29-1.26-.31.34-.58.64-.86.93-.04.04-.11.09-.16.08-.49-.05-.65-.19-.78-.66-.1,0-.21.02-.34.03-.06.09-.15.2-.27.37.12-.06.2-.11.28-.15.02,0,.04.02.06.02-.04.15-.06.31-.12.45-.18.4-.39.79-.56,1.19-.1.25-.13.54-.22.79-.07.2-.03.37.05.53.05.09.15.21.22.21.14-.01.28-.09.41-.17.07-.04.1-.15.13-.22.04-.16.08-.32.14-.47.12-.31.27-.6.39-.91.09-.25.14-.51.22-.76.01-.04.04-.08.08-.14.05.07.1.13.14.18-.11.25-.26.51-.32.78-.03.17.09.36.14.57.21-.1.38-.19.62-.31-.02.19-.03.34-.05.5.02.01.04.03.06.04.13-.17.26-.35.4-.52.14-.17.29-.34.45-.51.21.15.14.34.06.49-.27.51-.57,1.02-.85,1.53-.03.06-.04.14-.04.21-.02.31-.08.4-.37.4-.2,0-.35.08-.48.21-.05.05-.1.11-.16.15-.11.09-.18.1-.32,0-.25-.2-.25-.22-.47.02-.33.36-.44.8-.48,1.27-.01.15-.01.26.12.38.37.35.38.48.24,1.06-.4-.17-.63.07-.86.35-.16.2-.46.16-.59-.07-.08-.14-.15-.29-.36-.19-.02.01-.09,0-.1-.03-.2-.37-.56-.41-.92-.47-.38-.06-.75-.18-1.13-.27-.06-.01-.13-.02-.2-.01-.52.08-.85-.19-1.1-.6-.04-.07-.14-.1-.21-.16-.05-.04-.1-.08-.15-.12-.05-.05-.1-.1-.15-.16.01-.01.03-.02.04-.03-.02-.05-.04-.11-.06-.16-.26.11-.32-.18-.49-.25-.18-.08-.35-.2-.51-.31-.13-.09-.25-.17-.3-.36-.07-.33-.39-.37-.66-.45-.15-.04-.31-.05-.45-.12-.09-.04-.13-.17-.2-.26-.1-.11-.21-.2-.3-.31-.16-.23-.35-.45-.44-.71-.06-.17.05-.39.09-.64.17.2.31.37.45.53.17.18.38.29.63.33.1.02.18.1.28.14.03.01.08.03.1.01.21-.1.43-.21.58-.29-.02-.09-.06-.17-.04-.22.09-.17.4-.26.64-.19-.05.05-.09.08-.14.12.09.04.16.08.24.12,0,.02,0,.05.01.07-.17.06-.35.12-.53.18.07.03.13.06.21.09-.04.13-.2.27.07.35-.16.14-.17.31,0,.39.16.07.35.06.53.08,0,0,.02-.14.04-.22.08.03.17.06.21.08.04-.11.07-.21.11-.3.16-.32.32-.65.49-.97.06-.12.14-.22.23-.35-.25-.17-.5-.16-.71-.09-.52.19-.67-.09-.74-.53-.03-.19-.02-.39-.09-.56-.09-.21-.24-.4-.4-.57-.07-.07-.22-.06-.31-.09.13-.22.25-.48.42-.71.07-.1.22-.15.34-.19.17-.05.27-.13.37-.29.1-.16.29-.27.45-.4.05-.04.13-.05.25-.1-.28-.08-.51-.14-.77-.21.12-.13.12-.34.37-.28.06.01.16-.06.22-.13.14-.16.27-.33.39-.5.04-.05.05-.12.08-.2.06,0,.13-.02.21-.03,0-.06-.02-.12-.02-.15.08-.09.14-.17.24-.28-.02,0,.02,0,.08.01-.02-.05-.03-.09-.04-.14.06,0,.11.01.16.02,0-.09-.01-.17-.02-.31.08.06.12.09.16.12,0,0,.03-.01.03-.02,0-.1-.01-.15.12-.2.13-.05.2-.25.33-.33.23-.13.02-.4.2-.53-.14-.22.06-.32.16-.45.03-.04.1-.08.15-.09.31-.02.61-.05.92-.05.14,0,.29.07.43.12.26.11.51.24.77.35.43.17.76.49,1.13.74.44.29.77.73,1.26.94.17.07.34.16.52.21.45.13.9.24,1.21.57.02.15.01.29.07.39.07.14.01.21-.06.32-.07.1-.1.23-.16.34-.03.05-.08.08-.14.1.13-.4-.16-.52-.44-.55-.22-.02-.43-.1-.65-.15,0,0,0,.05.02.12l-1.25-.04v.29c.25-.07.33.12.43.29.03.05.1.07.17.12-.03.02-.07.05-.14.1.66.21,1.29.42,1.95.63-.04-.08-.07-.15-.11-.23.41-.07.52.07.44.53-.01.09,0,.2.04.28.11.28.04.69-.12.85Z"/>
      <path class="cls-1" d="M47.51,60.38c.1-.02.21-.03.31-.05,0-.02,0-.05,0-.07-.07,0-.13,0-.23.01.06-.1.1-.17.17-.31-.72.12-1.37.22-2.02.34-.19.04-.37.17-.56.23-.12.04-.26,0-.38.04-.7.23-1.42.32-2.15.37-.61.04-1.22.12-1.84.19-.12.01-.24,0-.36.01-.67.04-1.34.07-2.02.11-.57.03-1.14.11-1.71.11-.55,0-1.1-.06-1.64-.11-.37-.03-.74-.09-1.1-.15-.2-.03-.39-.09-.59-.12-.21-.02-.43-.02-.65-.02-.2,0-.46-.29-.39-.47.03-.07.12-.14.2-.16.31-.09.62-.16.93-.25,1.01-.29,2.06-.17,3.09-.26.42-.04.83-.07,1.25-.1.34-.02.68-.03,1.03-.06.21-.02.41-.06.62-.07.19-.02.37,0,.51.16.05.05.16.08.24.07.7-.07,1.4-.09,2.1-.06.01,0,.03,0,.04,0,.58.33,1.19.04,1.78.05.19,0,.38,0,.57,0,.13,0,.26-.05.39-.07.95-.17,1.91-.34,2.87-.49.18-.03.37-.14.56,0,.01.01.08-.05.12-.07-.01-.02-.02-.04-.03-.06l.43.02s.1-.07.16-.09c.33-.1.67-.22,1.01-.28.39-.07.79-.08,1.18-.12.14-.01.28,0,.42-.02.31-.06.61-.16.92-.19,1.06-.1,2.09-.39,3.12-.63.33-.08.65-.24.98-.31.65-.13,1.31-.23,1.96-.32.14-.02.3.03.44.08.2.07.22.28.05.4-.12.07-.26.11-.39.16-.43.14-.86.25-1.28.4-.43.15-.84.37-1.28.47-.23.05-.35.24-.57.28-.21.03-.41.15-.62.2-.39.09-.79.16-1.19.23-.59.11-1.17.23-1.76.33-.43.07-.89.06-1.3.18-.28.08-.56.11-.84.16-.69.1-1.38.19-2.08.28-.15.02-.3.05-.45.07,0-.02,0-.04,0-.06ZM50.08,58.98s0,.05.01.08c.37-.07.75-.14,1.12-.21v-.07c-.39.07-.76.14-1.13.21Z"/>
      <path class="cls-1" d="M11.01,59.84l1.91.07c-.16-.08-.28-.17-.4-.2-.41-.07-.82-.11-1.23-.18-.53-.09-1.05-.2-1.58-.31-.03,0-.06-.03-.09-.08.18.03.36.06.61.1-.24-.31-.55-.31-.83-.39.97.1,1.94.19,2.9.29.04-.21.2-.3.37-.2.33.21.68.29,1.06.35.62.11,1.23.27,1.85.41.06.01.12.02.18.03.34.05.68.06.97.29.12.09.29.1.45.14.1.03.25-.04.25.16,0,.02.06.04.09.05.58.08,1.16.16,1.75.22.35.04.7.03,1.05.08.21.03.4.14.61.2.08.02.17.02.25.04.25.04.5.07.74.11.02,0,.05,0,.07,0,.43.25.93.11,1.38.26.6.2,1.23.12,1.84.18.68.06,1.36.09,2.04.05.59-.04,1.16.06,1.73.09,1.02.06,2.03.11,3.05.17,1.37.08,2.73.16,4.1.24.16.01.31.07.47.11.09.02.17.02.26.03.07.01.14.03.21.04-.07.07-.13.16-.21.19-.08.03-.19,0-.29,0-.2,0-.4.03-.59.03-.34,0-.67-.03-1.01-.03-.25,0-.5.02-.75.02-.61,0-1.22-.01-1.84-.02-.6,0-1.2-.03-1.81-.03-.48,0-.97.03-1.45.01-.8-.03-1.61-.09-2.41-.15-.4-.03-.8-.1-1.2-.13-.73-.05-1.47-.09-2.2-.15-.59-.05-1.18-.13-1.77-.19-.44-.04-.89-.04-1.34-.09-.57-.07-1.15-.18-1.72-.29-.78-.15-1.56-.31-2.34-.46-.24-.04-.48-.05-.72-.09-.13-.02-.25-.08-.38-.11-.31-.07-.61-.15-.92-.21-.6-.13-1.2-.27-1.8-.38-.29-.06-.59-.07-.88-.12-.15-.02-.29-.06-.43-.09,0-.02.01-.04.02-.06Z"/>
      <path class="cls-1" d="M9.03,75.42c.42,1.95.6,3.94.96,5.97-.18-.05-.31-.06-.41-.12-.06-.04-.15-.13-.05-.27.04-.05-.08-.21-.13-.33-.02-.05-.06-.1-.07-.15-.05-.32-.08-.65-.13-.97-.07-.47-.15-.94-.21-1.4-.05-.38-.08-.76-.11-1.13-.02-.29,0-.58-.02-.87,0-.15-.03-.3-.02-.45,0-.09.07-.18.11-.28.03,0,.06,0,.09,0Z"/>
      <path class="cls-1" d="M23.93,99.1c-1.45.06-2.86-.22-4.27-.46,0-.03,0-.05,0-.08,1.42.18,2.84.36,4.26.53Z"/>
      <path class="cls-1" d="M49.81,95.22c-.43.18-.85.37-1.28.55,0-.02-.02-.04-.03-.06.43-.18.86-.36,1.28-.55,0,.02.02.04.02.06Z"/>
      <path class="cls-1" d="M9.35,87.05c-.05-.28-.09-.57-.14-.86.14.05.23.49.14.86Z"/>
      <path class="cls-1" d="M19.53,98.55c-.33.03-.65.01-.9-.36.18.11.3.22.44.26.15.04.32.02.48.03,0,.03,0,.05-.01.08Z"/>
      <path class="cls-1" d="M58.03,38.06c-.03.18-.05.35-.08.54-.14-.14-.12-.33.08-.54Z"/>
      <path class="cls-1" d="M34.35,55.23l-.92-.03s0-.04,0-.06l.93.03s0,.04,0,.06Z"/>
      <path class="cls-1" d="M8.58,73.44l.02-.7s.02,0,.04,0c0,.23,0,.47,0,.7-.02,0-.04,0-.07,0Z"/>
      <path class="cls-1" d="M17.2,97.89c.18.06.35.11.53.17,0,.02-.01.05-.02.07-.18-.06-.36-.11-.54-.17,0-.02.02-.05.02-.07Z"/>
      <path class="cls-1" d="M51.35,45.72c.05.05.08.08.11.09.08.04.16.11.23.1.06-.01.14-.11.16-.18.06-.21.08-.43.13-.65.11-.44.24-.87.37-1.3.02-.06.11-.09.17-.13-.14-.11.01-.75.17-.83.12-.4.23-.75.35-1.15.04.08.09.14.08.18-.04.36-.09.71-.15,1.06-.09.56-.33,1.07-.38,1.64-.03.35-.21.68-.32,1.02-.03.11-.04.23-.08.34-.03.08-.08.15-.13.25.12.29-.04.58-.14.89,0-.05-.02-.1-.03-.16-.21.1-.11.22,0,.35-.08.02-.14.03-.21.04-.03.11-.06.23-.1.34-.02.05-.06.09-.1.14,0-.05,0-.11,0-.16,0-.02.03-.05.03-.06-.14-.2.07-.31.11-.46.02-.07.1-.13-.02-.22-.05-.03-.02-.22.03-.31.12-.27.12-.33-.15-.41-.26-.08-.14-.25-.14-.44Z"/>
      <path class="cls-1" d="M53.42,40.23c-.06.4-.12.8-.18,1.23-.28-.28-.27-.4.01-.55-.31-.2.07-.45-.09-.67.11,0,.19,0,.26-.01Z"/>
      <path class="cls-1" d="M50.36,50.83s0-.06.01-.09c.14-.4.29-.79.44-1.21.07.03.13.05.21.08-.35.3-.35.73-.48,1.11-.02.07-.06.12-.1.19-.03-.03-.06-.06-.09-.09Z"/>
      <path class="cls-1" d="M50.03,52.05c.05.26.1.51.16.77-.02,0-.04.01-.06.02-.06-.07-.12-.13-.17-.2-.06-.09-.14-.17-.02-.29.05-.06.02-.19.03-.29.02,0,.04,0,.07,0Z"/>
      <path class="cls-1" d="M2.03,54.08l.09,1.23s-.03,0-.05,0c-.04-.41-.07-.82-.11-1.22.02,0,.05,0,.07,0Z"/>
      <path class="cls-1" d="M60.59,13c.08-.26.15-.51.23-.78-.09.01-.15.02-.2.03l-.02-.03s.09-.06.14-.09c.04-.02.09-.03.14-.05-.03-.04-.06-.08-.06-.09.16-.44.32-.86.49-1.32-.2-.02-.39-.03-.61-.05-.02.05-.05.1-.09.21-.09-.06-.16-.12-.25-.16-.04-.02-.1-.02-.14,0-.13.06-.23,0-.26-.11-.03-.11,0-.23-.01-.35-.02-.16-.06-.32-.09-.49-.08-.46.08-.83.42-1.12.08-.07.25-.08.37-.05.28.07.5.27.7.48.1.1.1.19-.05.26.04.09.07.17.1.26-.02,0-.04,0-.06,0,0,.07-.03.14-.02.21.02.17.15.33.01.52-.04.05.02.17.03.31.15-.23.27-.41.39-.59.19-.29.26-.3.55-.11.03.02.08.02.12.04.04.02.1.04.1.07,0,.29.02.57.01.86,0,.51-.49.74-.68,1.14-.13.27-.32.52-.46.79-.08.15-.16.23-.34.2-.14-.02-.28,0-.46,0Z"/>
      <path class="cls-1" d="M63.64,5.48c.3-.02.21-.36.32-.56.08-.15.1-.33.17-.49.03-.06.11-.11.17-.12.04,0,.11.05.13.1.08.15.15.31.22.47.11.27.11.27.42.14.04.22.08.43.12.63,0,0,0,.02,0,.02-.21.19-.09.42-.07.65-.1,0-.18.02-.28.03,0,.13.03.25.01.37-.01.1-.03.22-.09.3-.28.37-.58.73-.88,1.09-.04.05-.09.11-.11.17-.12.32-.43.42-.73.61-.13-.14-.26-.29-.41-.45-.04.03-.09.07-.19.14.1-.25.19-.45.26-.66.07-.23.1-.47.17-.7.06-.17.15-.34.25-.5.11-.15.23-.28.24-.49,0-.13.08-.26.12-.39.04-.1.08-.2.14-.36Z"/>
      <path class="cls-1" d="M60.89,4.14c-.06-.02-.12-.04-.18-.07,0-.01,0-.02.01-.04.18.05.36.1.54.16-.04.07-.06.12-.08.17.01.01.02.02.03.03.06-.03.12-.07.21-.12-.04.08-.07.13-.1.2.06.04.11.07.15.09.05.71-.51.91-.99,1.19.05.02.09.04.13.06-.43.37-.74.8-.94,1.33-.46-.08-.56-.19-.58-.67,0-.04,0-.08,0-.11.29-.57.57-1.14.88-1.7.19-.34.49-.54.92-.46,0-.02,0-.04,0-.06Z"/>
      <path class="cls-1" d="M61.8,7.19c-.08.09-.13.15-.2.23-.31-.02-.52-.29-.41-.61.08-.24.2-.47.3-.7.11-.25.21-.51.33-.76.06-.13.17-.24.26-.36.03-.04.1-.08.15-.07.33.05.68.02.93.24-.09.29-.18.57-.26.84-.02.05-.07.12-.06.15.07.14.01.19-.12.24-.1.04-.18.13-.25.21-.12.12-.22.21-.41.22-.24,0-.34.2-.25.37Z"/>
      <path class="cls-1" d="M64.47,10.41c.12.04.24.08.36.12-.09.1-.16.23-.26.3-.21.15-.3.37-.4.6-.05.12-.12.22-.18.33-.01.02-.05.04-.05.05.1.32-.25.27-.33.43-.05.1-.05.23-.06.35,0,.05.01.13-.01.16-.13.11-.29.11-.44.03-.12-.07-.14-.15-.1-.3.12-.48.22-.97.32-1.46.01-.06.05-.11.07-.17.15-.46.54-.41.9-.42.06,0,.12,0,.18,0,0-.01,0-.02.01-.03Z"/>
    </g>
  </g>
</svg>