<?xml version="1.0" encoding="UTF-8"?>
<svg id="Layer_2" data-name="Layer 2" xmlns="http://www.w3.org/2000/svg" viewBox="0 0 83.82 97.53">
  <defs>
    <style>
      .cls-1 {
        fill: #000;
        stroke-width: 0px;
      }
    </style>
  </defs>
  <g id="illustrations">
    <g>
      <path class="cls-1" d="M83,89.91s-.05-.04-.07-.07c-.2-.32-.42-.62-.6-.95-.08-.15-.28-.31-.04-.5-.07-.03-.15-.03-.17-.07-.23-.46-.45-.93-.67-1.4-.02-.03,0-.08,0-.12,0-.06.02-.13,0-.18-.13-.25-.3-.48-.42-.74-.08-.17-.09-.37-.15-.62,0,0-.07-.04-.09-.1-.11-.41-.21-.82-.32-1.23-.21-.76-.43-1.52-.63-2.29-.05-.17-.03-.36-.05-.58-.03-.06-.12-.17-.16-.29-.07-.21-.11-.44-.17-.65-.24-.9-.48-1.8-.73-2.7-.12-.44-.24-.87-.23-1.35,0-.36-.11-.73-.21-1.08-.09-.32-.09-.67-.27-.96-.04-.06-.03-.16-.04-.24-.01-.14,0-.29-.04-.43-.12-.53-.26-1.06-.38-1.6-.05-.21-.08-.42-.38-.35.1-.05.2-.09.32-.14-.19-.6-.38-1.18-.55-1.77-.1-.34-.23-.68-.25-1.02-.02-.3,0-.59-.19-.85-.03-.04-.04-.11-.04-.17,0-.13.06-.27.03-.39-.07-.23-.19-.44-.29-.66.07-.08.14-.16.2-.24-.03,0-.06,0-.09,0-.18-.57-.25-1.16-.36-1.75-.13-.63-.26-1.26-.39-1.89-.02,0-.04,0-.06.01.01.12.03.24.04.36-.01,0-.03,0-.04,0-.15-.62-.31-1.24-.46-1.85l.05-.02.25.8c-.05-.41-.16-.8-.26-1.2-.1-.42-.18-.84-.28-1.26-.18-.77-.36-1.53-.54-2.3-.13-.58.08-1.24-.42-1.74.07.06.14.12.27.24-.1-.37-.21-.67-.26-.97-.1-.64-.31-1.27-.32-1.93,0-.05-.09-.1-.12-.14.02-.08.08-.16.07-.25-.01-.15-.06-.3-.09-.45-.04-.23-.08-.46-.13-.69-.05-.2-.12-.39-.14-.62-.02-.4-.15-.79-.22-1.18-.02-.13,0-.26-.02-.39-.02-.26-.02-.53-.06-.78-.07-.43-.17-.85-.27-1.28-.12-.57-.08-1.16-.31-1.72-.17-.41-.2-.87-.32-1.3-.17-.62-.37-1.24-.54-1.87-.03-.11,0-.23,0-.35-.01-.1-.07-.2-.1-.31-.17-.63-.31-1.26-.51-1.88-.13-.41-.32-.79-.51-1.18-.16-.32-.35-.61-.52-.92-.16-.29-.32-.58-.47-.88-.07-.14-.05-.34-.15-.44-.17-.18-.07-.26.06-.36.06-.05.18-.09.18-.15.06-.36.39-.44.61-.64.28-.26.61-.48.91-.71.48-.38.97-.75,1.45-1.13.38-.3.75-.6,1.12-.91.78-.66,1.56-1.33,2.35-2,.53-.45,1.07-.89,1.59-1.35.34-.3.65-.62.97-.94.16-.16.24-.34.23-.58-.02-.5-.19-.94-.43-1.37-.32-.59-.56-1.24-.93-1.8-.57-.84-1.2-1.63-1.84-2.42-.26-.32-.63-.56-.92-.85-.32-.32-.59-.7-.92-1.01-.86-.79-1.58-1.72-2.55-2.38-.41-.28-.84-.51-1.37-.54.09-.04.17-.07.25-.1,0-.03,0-.05.01-.08-.11-.04-.21-.11-.31-.1-.21,0-.43.05-.64.07-.23.02-.26.16-.21.34.02.09.09.16.1.25,0,.08-.02.2-.07.23-1.15.64-2.14,1.56-3.45,1.92-.6.17-1.17.47-1.76.69-.3.11-.61.19-.93.24-.28.04-.57.01-.86.01-.55,0-1.13.12-1.54-.41-.02-.02-.04-.03-.07-.04-.4-.19-.8-.37-1.22-.57.04-.04.07-.1.12-.13.24-.15.51-.27.74-.43.5-.37.99-.76,1.48-1.14.53-.42.96-.94,1.16-1.58.19-.61.31-1.27.32-1.91,0-.37-.02-.73.04-1.1.02-.12-.1-.36-.2-.39-.24-.07-.51-.05-.8-.07.04.11.06.17.07.2-.08.07-.15.13-.22.2.15.02.29.11.37.23.13.2.19.45.23.69.05.31.06.61.04.92-.02.3-.06.61-.16.9-.09.25-.21.53-.43.7-.12.09-.25.14-.38.13-.36.25-.71.49-1.06.75-.36.27-.73.54-1.04.86-.3.31-.67.22-1.02.24-.19.01-.4-.08-.59-.13,0-.02,0-.04.01-.06.08.01.16.02.23.04,0-.03,0-.06,0-.1-.18,0-.37-.03-.54,0-.28.06-.36.35-.2.59.11.16.21.33.33.52-.13,0-.22,0-.3-.02-.29-.05-.47.04-.54.33-.04.16-.03.34-.04.51-.03.41-.05.82-.1,1.22-.07.53-.26,1.06-.21,1.57.05.51-.04,1.02.09,1.52.01.05,0,.11,0,.16.03.23.05.46.11.67.1.35.24.7.35,1.05.26.85.5,1.7.76,2.55.16.5.34.99.55,1.46.13.29.33.55.5.82-.15.13-.28.24-.42.36.06,0,.1,0,.12.01-.08.11-.18.21-.23.32-.09.21-.13.44-.22.65-.06.14-.14.25.03.37.04.03.07.17.04.22-.2.31-.4.63-.65.9-.18.19-.33.4-.44.63-.11.24-.19.5-.3.78,0,0,.03.04.07.12h-.2c-.06.11-.1.2-.16.3,0,.05,0,.14-.04.21-.13.29-.26.57-.4.86-.08.16-.22.31-.25.48-.09.56-.21,1.1-.51,1.6.06,0,.1,0,.19-.02-.08.15-.15.27-.19.39-.09.28-.15.57-.23.85-.14.47-.33.93-.43,1.4-.19.89-.33,1.79-.5,2.69-.07.39-.18.77-.28,1.16-.05.19-.13.37-.17.57-.12.65-.21,1.3-.33,1.95-.06.37-.15.73-.22,1.1-.14-.12-.25-.25-.29-.4-.13-.45-.23-.91-.35-1.36-.04-.15-.13-.3-.15-.45-.04-.26-.03-.53-.09-.78-.04-.18-.16-.34-.23-.47-.01-.1-.01-.18-.03-.26-.02-.07-.08-.13-.11-.21-.18-.41-.36-.83-.55-1.24-.11-.25-.25-.48-.36-.73-.09-.2-.13-.41-.22-.6-.51-1.11-1.03-2.21-1.74-3.21-.35-.49-.67-1-1.03-1.49-.22-.3-.47-.58-.75-.83-.15-.13-.23-.36-.48-.39-.07-.01-.11-.16-.17-.24-.14-.07-.31-.15-.48-.24,0-.03.02-.06.03-.09h.28c-.12-.08-.25-.18-.4-.27-.06-.04-.14-.07-.21-.09-.11-.03-.23-.04-.32-.09-.18-.1-.35-.23-.5-.36-.15-.12-.31-.25-.41-.4-.12-.17-.21-.29-.44-.36-.23-.07-.48-.24-.54-.6.13.07.23.11.32.16.22.13.43.28.66.41.15.09.29.03.31-.13.03-.32.04-.64.03-.97,0-.09-.07-.23-.15-.26-.31-.13-.62-.23-.94-.33-.24-.08-.48-.14-.72-.21.02-.07.02-.11.04-.14.39-.87.79-1.73,1.18-2.6.33-.73.66-1.47.96-2.21.14-.35.23-.73.26-1.11.02-.25.11-.48.07-.76-.06-.38.07-.79.13-1.18.04-.28.06-.55-.01-.84-.08-.33-.06-.69-.04-1.03.01-.23.11-.46.17-.69-.04-.01-.08-.03-.12-.04-.08.16-.16.33-.24.49-.04.09-.08.19-.1.28-.09.38-.22.75-.24,1.13-.04.63-.07,1.25-.3,1.84-.1.26-.15.54-.25.8-.1.28-.21.56-.35.83-.12.23-.32.42-.41.66-.15.37-.26.76-.35,1.15-.04.2,0,.43,0,.64,0,.07-.04.14-.08.22-.2.4-.38.82-.59,1.22-.13.24-.25.52-.46.66-.27.18-.41.41-.56.67-.04.08-.15.17-.23.17-.24.01-.48-.04-.72-.03-.49.02-.98.07-1.48.11-.15.01-.3.02-.46,0-.38-.03-.76-.15-1.12-.08-.41.07-.71.41-.83.81-.07.23-.2.38-.4.43-.51.11-1.03.23-1.56.25-.67.03-1.35,0-2.02-.05-.45-.04-.91-.15-1.34-.32-.42-.17-.66-.53-.66-1.02,0-.22.01-.45-.06-.66-.23-.69-.1-1.4-.14-2.09-.03-.43.07-.86.11-1.29.06-.64.12-1.28.18-1.93.03-.31.07-.62.1-.94.04-.43,0-.88.1-1.3.2-.84.48-1.66.72-2.49.12-.41.23-.83.33-1.24.05-.2.17-.18.27-.07.16.17.35.18.57.18.34,0,.69-.03.96.23h0c.11,0,.24-.06.32-.03.36.15.7.36,1.07.49.48.17.98.28,1.47.42.21.06.41.16.62.16.27,0,.55-.09.82-.13.1-.01.2.03.3.04.44.02.87.04,1.31.06.06,0,.12-.01.19-.02.19-.03.41-.14.56-.08.18.08.34.07.51.05.31-.03.61-.1.92-.15.38-.06.77-.08,1.14-.19.56-.16,1.12-.34,1.66-.56.68-.29,1.34-.63,2.01-.94.09-.04.27-.07.32-.02.18.19.55.28.44.67-.01.04.05.12.09.16.31.37.62.73.93,1.11.41.51.79,1.05,1.23,1.53.68.75,1.39,1.46,2.09,2.19.13.13.26.26.36.42.56.94,1.13,1.87,1.39,2.96.15.62.41,1.22.63,1.83.1.28,0,.58-.25.65-.54.15-1.07.34-1.61.44-1.27.23-2.54.41-3.81.61-.68.11-1.35.2-2.03.32-.12.02-.23.14-.34.23.14-.02.29-.04.43-.04.59.01,1.18.06,1.77.04.34,0,.68-.15,1.03,0,.1.04.19.12.29.12.34,0,.68-.02,1.02-.08.84-.16,1.67-.36,2.51-.52.7-.13,1.23-.52,1.7-1.04.18-.21.19-.41.1-.65-.12-.3-.25-.6-.35-.91-.23-.66-.29-1.4-.8-1.87.04-.11.12-.21.09-.27-.2-.45-.33-.94-.73-1.28-.02-.01-.03-.07-.03-.07.2-.1.01-.18-.03-.23-.24-.28-.49-.55-.74-.82-.86-.94-1.72-1.87-2.58-2.81-.16-.18-.28-.41-.43-.6-.23-.3-.5-.56-.72-.87-.38-.55-.72-1.12-1.22-1.57-.07-.06-.08-.18-.14-.26-.2-.27-.37-.58-.64-.76-.19-.13-.35-.21-.42-.41-.17-.05-.32-.13-.47-.21-.07-.04-.14-.08-.21-.12-.4-.19-.8-.38-1.19-.58-.2-.1-.4-.23-.45-.47-.03-.17-.04-.35-.09-.52-.03-.09-.1-.22-.17-.24-.06-.02-.19.07-.25.14-.06.07-.06.18-.09.27-.13.42.09.74.34,1.02.27.29.58.56.91.79.57.42,1.16.82,1.76,1.24-.45.21-.8.6-1.33.68-.41.06-.82.15-1.2.29-.53.2-1.04.47-1.56.71-.03.01-.07,0-.11,0-.6,0-1.2.01-1.8.01-.45,0-.9-.02-1.35-.02-.28,0-.55,0-.83,0-.36,0-.68.16-1.08.07-.69-.15-1.34-.33-1.93-.72-.15-.1-.33-.16-.5-.22-.15-.05-.35,0-.4-.24-.01-.06-.15-.09-.22-.14-.01.02-.03.04-.04.06.09.06.18.12.26.18-.09.03-.14.02-.18-.01-.39-.23-.76-.5-1.2-.61-.1-.02-.21-.03-.29-.09-.24-.17-.56-.16-.7.1-.15.29-.23.61-.33.92-.08.27.06.62-.28.81-.04.02-.04.1-.06.15-.2.6-.42,1.19-.59,1.8-.17.61-.36,1.22-.42,1.84-.11,1.03-.1,2.07-.18,3.11-.07,1.06-.19,2.12-.16,3.19.02.57-.07,1.15.16,1.69.1.23.23.48.42.63.4.33.9.47,1.4.6,1.05.27,2.09.36,3.15.08.1-.03.19-.13.29-.14.16-.02.33.03.5.02.29-.01.57-.06.86-.06.09,0,.21.07.28.14.2.21.39.43.59.65.03-.04.06-.05.06-.07.03-.13.11-.21.23-.12.05.04.05.18.02.26-.04.12-.11.23-.19.32-.18.21-.14.61-.54.64-.02,0-.04.04-.05.06-.18.3-.22.68-.57.87-.03.02-.03.08-.05.12.12-.01.21-.02.32-.04-.2.22-.37.41-.57.63h-.24s0,.02,0,.03c.09.03.18.06.24.08-.08.17-.15.3-.22.43-.06.06-.13.13-.21.21.1.02.15.04.23.06-.15.16-.29.3-.43.46h.29c-.25.21-.4.5-.77.43-.04,0-.1.1-.16.16l.04.04c.15-.05.3-.1.47-.15-.1.33-.42.28-.64.44h.5c-.12.21-.22.41-.34.6-.09.14-.2.27-.34.46.06.37-.27.5-.63.6.01.02.02.04.03.06.09,0,.17-.02.26-.02,0,.02,0,.04.01.06-.14.04-.27.08-.44.13.08.16.15.29.22.42-.29,0-.67.21-.63.43.03.17-.07.2-.1.26.17.08.33.15.49.22,0,.02,0,.05,0,.07-.24,0-.23.14-.17.29-.17.02-.33.03-.48.04,0,.02,0,.04,0,.05.11.03.21.07.38.12-.21.43-.4.84-.6,1.25-.05.11-.11.23-.2.31-.17.16-.33.2-.47-.07-.03.03-.07.09-.16.18.23.02.38.03.58.05-.04.11-.08.2-.12.29-.31.69-.61,1.38-.93,2.07-.06.12-.17.21-.23.29,0,.09.05.22.01.31-.07.22-.19.43-.27.65-.05.12-.06.25-.09.42-.12-.13-.19-.2-.26-.28-.24.27-.22.57.06.69-.23.09-.44.17-.66.25,0,.02.01.04.02.06.18.02.36.05.51.07-.18.45-.37.87-.52,1.3-.34,1-.65,2-.98,3-.01.04-.02.09-.03.13-.34,1.18-.52,2.38-.6,3.61-.02.38-.14.75-.24,1.12-.15.54-.38,1.06-.3,1.64.04-.03.1-.05.11-.08.07-.31.1-.63.2-.92.14-.46.35-.9.49-1.36.09-.3.07-.62.13-.93.1-.5.22-.99.34-1.48.06-.24.12-.49.19-.73.17-.56.34-1.13.51-1.69.11-.36.22-.71.34-1.07.08-.24.24-.48.24-.72,0-.25.06-.4.23-.55.02-.02.04-.04.05-.06.12-.36.21-.72.36-1.07.23-.55.5-1.09.74-1.63.24-.55.47-1.11.69-1.67.12-.32.18-.66.31-.97.28-.65.59-1.29.89-1.94.49-1.06.97-2.13,1.46-3.19.12-.25.26-.49.39-.73.05.07.05.12.04.16-.15.36-.28.72-.45,1.07-.34.71-.72,1.4-1.05,2.11-.2.44-.31.93-.48,1.39-.15.41-.37.79-.48,1.2-.25.9-.4,1.84-.7,2.72-.38,1.11-.53,2.26-.83,3.38-.12.47-.18.97-.28,1.45-.04.17-.12.33-.17.49-.05.2-.06.41-.12.6-.19.65-.43,1.29-.59,1.94-.3,1.23-.56,2.47-.85,3.7-.12.53-.27,1.06-.4,1.6-.06.22-.11.44-.18.71,0,0-.05.03-.11.06.02,0,.05.01.07.02-.01.09,0,.2-.04.26-.17.23-.27.48-.29.77-.02.22-.1.44-.15.66-.14.57-.49,1.08-.57,1.67-.06.4-.12.8-.19,1.2-.03.14-.08.28-.12.43-.03.08,0,.19-.04.28-.08.27-.2.52-.25.79-.17.9-.32,1.81-.48,2.72-.05.31-.15.61-.18.91-.03.25.02.49-.09.77-.17.42-.23.9-.29,1.36-.05.44-.08.88-.24,1.31-.15.42-.18.89-.25,1.34-.02.1.02.2.03.34-.05.03-.16.08-.28.15.06.15.12.29.19.45.21-.2.38-.35.55-.51-.05-.03-.11-.07-.11-.07.06-.14.12-.25.13-.37.02-.28.02-.56.03-.84,0-.02.01-.05.02-.07.07-.03.14-.05.24-.09-.14-.05-.23-.08-.37-.13.16-.31.32-.59.48-.9,0,0-.05-.04-.06-.05.04-.13.07-.24.1-.35.06-.3.13-.6.18-.9.02-.11.18-.2.05-.33,0-.01.09-.13.17-.23-.03-.08-.07-.22-.13-.4.09-.06.21-.14.33-.22,0-.02-.06-.09-.06-.15.02-.18.06-.36.11-.53.05-.19.11-.39.15-.58.01-.06-.03-.15-.02-.21.1-.32.22-.64.33-.96.12-.34.28-.66.38-1.01.11-.38.16-.77.25-1.16.02-.07.07-.17.13-.19.22-.08.09-.21.06-.32.05-.03.1-.05.09-.04,0-.14-.02-.23,0-.3.05-.17.12-.33.17-.5.17-.56.35-1.13.51-1.69.02-.07,0-.19-.04-.25-.16-.2-.09-.39.02-.55.25-.36.27-.77.34-1.18.01-.08,0-.21.05-.23.25-.1.27-.34.32-.54.12-.46.21-.92.3-1.39.03-.16.01-.32.05-.48.15-.55.33-1.1.5-1.67.04,0,.1-.01.09-.01,0-.14.01-.24.02-.34,0-.05.01-.11,0-.16,0-.08-.04-.17-.01-.23.23-.47.3-.96.22-1.36.18-.33.31-.58.46-.85-.12-.24.4-1.73.75-2.01-.04-.04-.11-.12-.1-.12.14-.15.01-.29-.01-.43-.02-.11-.09-.22-.08-.32.07-.52.16-1.04.25-1.55.02-.13.12-.25.15-.39.08-.44.14-.88.22-1.32.03-.15.11-.3.15-.45.18-.77.34-1.55.54-2.31.18-.66.43-1.31.61-1.97.06-.22.11-.39.3-.41.02-.13,0-.23.05-.31.21-.38.44-.76.64-1.14.19-.38.36-.77.52-1.15.15-.36.29-.73.42-1.1.15-.41.28-.82.42-1.24.18-.52.32-1.07.56-1.56.26-.53.45-1.08.63-1.64.14-.46.38-.88.58-1.32.02.01.05.02.07.03-.18.41-.35.82-.53,1.22.18-.18.32-.38.47-.58.15-.21.3-.42.45-.63.21-.28.36-.33.66-.14.3.19.59.21.92.09.5-.19,1.02-.17,1.53-.01.03.01.07.03.1.01.35-.15.65.14.99.11.06,0,.12.08.19.1.22.07.47.09.67.2.52.3,1.01.62,1.51.95.15.1.27.23.38.37.21.28.4.58.6.86.54.72,1.09,1.44,1.61,2.17.17.24.23.54.38.79.31.51.67.98.96,1.5.24.43.41.89.62,1.34-.03.02-.05.03-.08.05-.46-.66-.95-1.31-1.38-2-.43-.69-.86-1.39-1.37-2.02-.19-.24-.42-.44-.65-.64-.08-.07-.21-.08-.32-.09-.09,0-.19.03-.29.05.04.05.12.1.11.15-.02.27.15.33.36.37.07.01.14.08.18.14.67,1.02,1.34,2.05,1.99,3.08.22.35.41.73.61,1.09.08.15.15.32.24.47.28.42.59.82.85,1.25.19.31.31.66.46.99.15.34.32.66.46,1,.27.65.52,1.31.78,1.96.06.14.08.3.13.44.05.12.16.22.18.34.07.45.11.91.17,1.36,0,.03,0,.07.02.09.35.42.34.87.18,1.37-.11.34-.17.7-.2,1.06-.02.3.06.6.07.9,0,.16-.06.31-.1.54-.21-.54-.38-1.01-.56-1.47-.09-.22-.26-.43-.31-.66-.18-.93-.68-1.71-1.05-2.56-.24-.57-.51-1.14-.73-1.72-.19-.49-.3-1.01-.5-1.5-.39-.96-.86-1.88-1.13-2.89-.1-.37-.33-.71-.5-1.07-.03-.05-.11-.08-.15-.11.01-.06.05-.14.03-.2-.06-.19-.13-.37-.22-.55-.23-.43-.5-.84-.71-1.28-.38-.8-.76-1.61-1.05-2.44-.09-.24-.15-.41-.39-.47,0-.2.1-.43-.19-.48.05-.25.05-.25-.24-.35-.11-.4.01-.92-.59-1.07.06-.02.11-.04.24-.08-.29-.29-.55-.54-.8-.79-.16-.17-.49-.16-.52-.48,0-.02-.12-.03-.19-.05,0,.08.04.1.06.12.13.18.12.42.32.58.2.17.33.43.49.66.03.04.07.09.08.14.04.16.05.34.12.48.14.31.33.61.48.92.34.73.68,1.46,1,2.2.22.48.42.98.62,1.47.13.32.19.69.39.96.46.64.75,1.36,1.07,2.07.27.61.33,1.29.64,1.89.29.57.54,1.16.8,1.75.21.49.4,1,.59,1.5.02.06-.02.15-.03.25.03.02.1.06.12.12.12.34.23.69.34,1.03.06.19.1.39.17.58.06.16.17.31.24.48.11.29.2.59.3.89.15.4.32.8.45,1.2.32.98.62,1.97.94,2.95.03.11.17.21.16.3-.05.35.16.62.23.94.11.46.24.92.34,1.39.14.71.2,1.43.4,2.12.16.55.22,1.11.33,1.66.16.86.24,1.74.38,2.6.15.89.34,1.77.39,2.68.02.37.08.73.14,1.1.08.58.17,1.17.25,1.75.03.21.02.43.04.65.08.75.42,1.45.37,2.22,0,.03.01.07.02.11.04.16.13.31.12.46-.05.55.16,1.06.23,1.6.09.73.16,1.47.23,2.2,0,.02.01.03.02.06.06.02.12.04.19.06-.05.1-.13.18-.14.26,0,.22.03.44.05.66.05.41.1.82.15,1.23.03.28.08.56.11.84.02.22,0,.45.02.67.03.23.09.45.14.71,0,0-.07.05-.06.09.06.43.14.85.2,1.28.08.49.14.98.23,1.47.07.39.16.77.24,1.16.03.16.1.33.08.49-.08.58.2,1.08.32,1.62.01.06.09.11.13.17-.3.24-.05.42.06.61-.28.13-.04.32-.03.46,0,.15.13.3.21.44.21.38.2.8-.01,1.2-.04.08.04.21,0,.3-.17.43-.48.72-.91.89-.1.04-.16.15-.25.21-.1.07-.2.16-.32.19-.82.25-1.62.55-2.32,1.06-.39.29-.87.33-1.34.23-.38-.08-.75-.22-1.12-.33-.39-.12-.79-.23-1.17-.34,0-.02,0,.02,0,.07-.46.02-.91-.12-1.36.04-.11.04-.26,0-.37.04-.5.16-1,.35-1.5.51-.59.18-1.19.36-1.82.32-.6-.03-1.21-.07-1.81-.11-.07,0-.16-.04-.19-.09-.19-.33-.54-.23-.82-.33-.17-.06-.36-.05-.54-.08-.22-.04-.47-.17-.65-.1-.57.21-1.11.5-1.66.75-.08.04-.17.07-.25.07-.28,0-.56-.03-.8-.05-.06-.05-.1-.11-.15-.12-.28-.01-.55-.01-.83-.02-.06,0-.13,0-.18-.04-.4-.22-.8-.45-1.2-.68-.3-.17-.52-.4-.61-.75-.04-.16-.11-.33-.2-.47-.15-.22-.24-.55-.63-.45-.24-.26-.53-.2-.8-.1-.23.09-.45.22-.66.35-.29.19-.57.36-.95.32-.41-.04-.83-.02-1.24-.04-.34-.01-.68-.01-1.01-.08-.48-.1-.94-.28-1.43-.37-.31-.06-.63-.02-.94-.07-.65-.12-1.3-.3-1.95-.43-.63-.13-1.23-.33-1.75-.69-.31-.21-.58-.48-.81-.67-.02-.18-.02-.31-.06-.43-.05-.19-.17-.37-.18-.56,0-.23.08-.46.13-.69.08-.38.18-.76.25-1.15.09-.43.16-.87.25-1.3-.05,0-.12-.02-.12-.02.11-.15.26-.27.3-.43.1-.35.16-.71.22-1.07.13-.72.26-1.44.37-2.16.07-.41.13-.83.15-1.24.02-.36.23-.7.55-.78-.11-.2-.05-.48.1-.64.11-.11.19-.26.26-.4.06-.13.07-.29.14-.42.05-.1.15-.17.23-.26-.06-.21-.22-.37-.52-.32-.03,0-.1-.09-.09-.14.03-.28.07-.55.11-.82.06-.44.11-.88.16-1.31,0-.02.01-.04,0-.05-.09-.26.03-.47.13-.65-.03-.11-.07-.2-.07-.29.03-.27.11-.53.11-.8,0-.23.38-.51-.11-.67.11-.04.23-.04.26-.09.07-.14.1-.31.13-.46,0-.03-.02-.09-.05-.11-.03-.01-.08,0-.11.03-.05.03-.1.07-.14.11-.01-.02-.04-.06-.04-.06.05-.05.1-.12.16-.12.23-.02.26-.19.27-.36.01-.21.01-.43,0-.65-.02-.41.05-.79.29-1.15.33-.48.37-1.04.32-1.61,0-.06-.04-.16-.07-.16-.3,0-.38-.21-.43-.45,0-.02-.04-.04-.04-.04v1.05c-.15-.04-.27-.07-.38-.1-.09-.1-.19-.21-.32-.35.14-.02.2-.02.29-.03-.08-.06-.14-.11-.23-.18.12-.02.2-.03.3-.04-.09-.06-.16-.11-.22-.15.02-.11-.04-.18-.04-.25-.01-.33-.01-.66-.01-.99,0-.21,0-.41.02-.62,0-.09.11-.2.08-.26-.16-.38.04-.76-.07-1.09.24-.01.45-.02.65-.04,0-.04,0-.07,0-.11-.06-.01-.13-.03-.19-.03-.12,0-.33.07-.34.04-.06-.14-.1-.31-.07-.45.03-.12.17-.2.27-.3h0c.15,0,.29,0,.44,0,0,.02,0,.04,0,.06.06,0,.13,0,.14.01-.11-1.47.09-2.89.13-4.31-.14-.07-.39-.04-.25-.32.08.06.15.11.24.17.06-.65-.09-1.24-.27-1.83-.05-.15.03-.45-.28-.39,0-.09.03-.2,0-.23-.14-.1-.08-.21-.07-.32.03-.18.06-.36.05-.54,0-.12-.09-.24-.14-.35-.02.03-.05.08-.08.11-.06-.45-.12-.89-.19-1.4.07-.1.02-1.38-.17-1.57.03-.36.06-.67.09-1.02-.23-.13-.17-.41-.16-.65.02-.21-.23-.49.12-.64h-.26l.06-.06c-.04-.08-.13-.19-.11-.23.11-.17,0-.37.06-.52.14-.29-.02-.54-.02-.81.05.02.1.05.15.07,0-.25-.17-.42-.14-.7.02-.23.27-.52,0-.76,0,0,0-.04,0-.05.17-.15-.01-.28-.03-.42-.03-.26-.1-.54-.05-.79.06-.33.02-.62-.21-.82.09-.03.18-.07.25-.09-.02-.12-.07-.22-.06-.32.02-.32-.07-.64-.06-.95,0-.24-.26-.49.01-.72,0,0-.04-.09-.07-.13-.16.11-.11-.07-.12-.11-.04-.13.04-.26.06-.38.05-.24-.04-.51-.07-.77-.01-.12-.02-.24-.04-.4-.03-.16-.1-.34-.07-.52.03-.22.01-.38-.14-.45v-.8s-.09-.11-.18-.22c.09-.03.15-.04.23-.07-.12-.1-.21-.17-.34-.27.12-.04.19-.07.21-.08-.15-.68-.3-1.35-.46-2.09.17.1.25.15.34.19-.04-.12-.06-.22-.09-.32.03,0,.05-.02.08-.02.03.06.07.12.09.19.19.47.36.94.46,1.45.11.58.3,1.14.42,1.72.15.72.26,1.45.41,2.17.12.58.15,1.19.4,1.75.03.08.03.17.04.26.03.48-.01.98.12,1.44.21.74.11,1.49.2,2.23.06.43.12.86.18,1.25.27.08.45.02.5-.18.05-.18.06-.38.05-.57,0-.19-.06-.38-.09-.58.02-.04.07-.12.07-.19-.02-.41-.05-.82-.09-1.23-.02-.18-.08-.35-.09-.53-.06-.6-.11-1.2-.17-1.81-.03-.31-.03-.63-.08-.94-.07-.48-.17-.95-.25-1.42-.09-.52-.14-1.05-.24-1.57-.06-.34-.16-.67-.24-1.01-.08-.33-.14-.67-.22-1-.04-.16-.1-.32-.14-.49-.07-.26-.11-.54-.21-.79-.26-.66-.56-1.31-.83-1.97-.23-.58-.4-1.18-.68-1.74-.28-.55-.65-1.06-.99-1.58-.09-.13-.17-.26-.33-.37-.31-.2-.6-.47-.79-.78-.14-.23-.07-.61-.43-.59-.02-.23.03-.46-.06-.61-.28-.46-.12-.91.39-1.09.59-.2,1.18-.43,1.76-.68.4-.17.78-.37,1.15-.57.37-.2.73-.41,1.08-.65.29-.19.56-.42.83-.64.31-.26.84-.27.92-.8.03-.17.16-.34.15-.5-.02-.34-.11-.68-.17-1.01-.16-.96-.32-1.92-.48-2.88-.13-.8-.23-1.61-.41-2.4-.28-1.25-.59-2.49-.92-3.73-.1-.36-.2-.74-.5-1.03-.2-.19-.35-.44-.53-.67-.07.06-.17.15-.26.22-.21.16-.21.42,0,.58.04.03.08.06.13.09-.14.21-.33.38-.24.65.28.78.54,1.57.84,2.34.39.99.89,1.93,1.1,2.99.32,1.69.66,3.37.79,5.09.02.3-.07.49-.33.64-.44.25-.87.51-1.28.79-1.19.78-2.42,1.46-3.8,1.83-.22.06-.43.13-.54-.11-.23.09-.43.18-.65.25-.21.06-.42.1-.64.14-.21.04-.4.23-.63.04-.02-.01-.05-.01-.08,0-.41.08-.84.13-1.24.25-.65.19-1.3.08-1.95.09-.52,0-1.05-.05-1.48.33-.12.11-.2.25-.32.35-.05.05-.15.05-.23.05-.03,0-.06-.07-.09-.12.07-.05.13-.09.22-.15-.35.03-.61.19-1,.62,0-.66-.2-.99-.56-1.22-.7-.44-1.42-.86-2.13-1.29-.81-.5-1.63-.98-2.43-1.5-.61-.4-1.19-.85-1.75-1.32-.39-.32-.5-.94-.31-1.39.11-.27.25-.54.37-.81.17-.37.33-.73.5-1.1.17-.37.33-.75.52-1.12.09-.17.23-.31.32-.48.09-.15.13-.33.22-.49.32-.53.67-1.04.98-1.58.18-.31.28-.66.47-.96.32-.5.65-.99,1.03-1.45.43-.53.9-1.03,1.38-1.52.09-.09.33-.14.43-.08.13.07.19.27.27.42.02.03,0,.08.03.12.11.2.22.4.35.63-.12-.02-.21-.03-.24-.03-.08.57-.15,1.11-.22,1.63-.11.07-.22.1-.28.18-.23.3-.43.63-.66.93-.67.92-1.29,1.86-1.71,2.94-.32.82-.73,1.61-1.1,2.41-.15.32-.32.63-.44.95-.04.11.04.26.06.39.14-.03.31-.03.41-.11.35-.26.57-.62.68-1.05.13-.51.26-1.02.44-1.51.23-.6.51-1.17.77-1.75.15-.34.27-.69.61-.91.14-.09.26-.2.39-.31-.02.26-.04.53-.05.8-.02.35-.05.7-.04,1.05,0,.2.09.4.1.6,0,.14-.09.28-.08.42.03.34.1.68.16,1.01.13.71.26,1.43.42,2.14.1.44.25.86.41,1.28.19.48.42.95.62,1.43.11.25.18.51.29.76.1.25.22.18.34.02-.04-.11-.08-.21-.13-.32.09-.02.16-.03.19-.04-.05-.1-.13-.19-.13-.27,0-.25.01-.5.03-.75.03-.54-.07-1.06-.22-1.57-.1-.36-.18-.73-.24-1.1-.03-.17.02-.35.03-.53-.02.01-.04.02-.06.04-.06-.07-.16-.14-.18-.22-.06-.29-.1-.6-.15-.89-.11-.61-.24-1.22-.11-1.85.1-.47.09-.97.23-1.43.09-.29.2-.53.06-.82-.01-.03-.01-.07,0-.11.06-.3.14-.59.2-.89.03-.17.05-.34.08-.52.05,0,.13-.02.22-.03-.04-.07-.08-.06-.1-.08-.15-.09-.36-.15-.44-.28-.11-.19-.03-.39.16-.54.14-.11.26-.26.42-.42.02,0,.11.02.27.06-.11-.12-.18-.2-.28-.31h.49c-.18-.24-.3-.43-.45-.61-.2-.23-.38-.47-.38-.79,0-.08.04-.19.11-.24.34-.25.71-.45,1.05-.71.52-.4,1.04-.8,1.5-1.27.32-.32.57-.73.78-1.13.13-.24.4-.49.21-.83,0-.02.02-.05.02-.08.03-.13.09-.27.08-.4-.03-.36-.12-.71-.13-1.06,0-.31-.19-.66.11-.94.03-.03.04-.09.03-.13-.06-.26-.13-.52-.19-.77.02-.01.05-.03.07-.04.23.12.37.03.51-.14.06-.07.17-.1.25-.16.11-.07.21-.15.36-.26-.2-.08-.32-.12-.5-.19h.31c-.04-.21-.09-.41-.11-.61-.03-.33-.05-.66.14-.96.04-.06.06-.13.06-.2,0-.42.14-.8.4-1.13.16-.2.37-.39.45-.62.11-.31.3-.55.53-.76.33-.28.65-.56,1-.83.12-.09.27-.17.41-.18.2-.03.41.01.62.02.04,0,.09-.02.12-.05.21-.25.45-.17.69-.08.1.04.2.11.3.11.22,0,.3.13.36.3.27.77.28,1.56.24,2.36,0,.09-.02.18-.04.27-.05.25-.12.49-.15.74-.07.6-.04,1.22-.31,1.79-.31.67-.47,1.35-.43,2.12,0,.1,0,.2-.02.3.02.08.02.15,0,.23-.09.24-.17.49-.29.72-.12.24-.29.46-.51.61-.25.16-.55.18-.83.1-.24-.07-.48-.19-.68-.34-.1-.08-.21-.16-.31-.25-.03.07-.04.15-.04.24,0,.29.19.46.38.65.2.21.48.31.66.56.26.37.36.79.52,1.19.03.08-.02.2-.03.33.45.11.64.57.93.91.22.25.42.52.67.73.24.2.54.32.81.48.05.03.11.04.25.08-.07-.22-.08-.41-.18-.52-.38-.45-.78-.89-1.2-1.29-.3-.29-.56-.59-.72-.98-.12-.27-.29-.52-.42-.79-.02-.04,0-.15.05-.19.23-.18.48-.33.7-.51.46-.36.74-.79.8-1.41.07-.69.21-1.39.44-2.04.27-.79.59-1.56.64-2.4,0-.1-.02-.2-.06-.29-.07-.17.04-.51.17-.56-.01-.12-.04-.23-.03-.34.03-.21.1-.42.11-.63.04-.94-.12-1.83-.67-2.62-.04-.06-.04-.23,0-.25.21-.12.13-.23.04-.37-.09-.12-.15-.27-.24-.39-.23-.31-.46-.61-.7-.92-.03-.04-.08-.08-.13-.09-.39-.08-.79-.1-1.16-.23-.46-.16-.81.06-1.19.22-.41.17-.72.54-1.19.58-.02,0-.03.06-.06.08-.26.23-.48.52-.77.69-.61.34-1.1.78-1.47,1.36-.28.43-.59.84-.9,1.26-.29.39-.49.97-.69,1.38-.14.27.05.46,0,.7-.05.24-.09.61.18.84,0,0,0,.02,0,.03.05.19.06.42.17.56.11.14.14.3.18.44.08.32.23.57.44.81.14.16.26.35.32.55.16.51.29,1.04.21,1.59-.04.28.02.58.01.87,0,.12-.02.26-.08.35-.53.86-1.09,1.69-1.95,2.25-.29.19-.62.33-1,.29-.66-.08-1.26.05-1.71.59-.15.18-.33.36-.53.48-.34.21-.62.46-.8.82-.11.21-.21.42-.36.61-.35.45-.6,1-1.11,1.31-.02.01-.04.03-.06.05.05,0,.09,0,.13,0,0,.02,0,.03,0,.05-.1.03-.19.05-.3.08.02,0,.03.02.04.02-.24.35-.54.66-.71,1.03-.28.61-.5,1.25-.96,1.76-.05.05-.09.12-.11.18-.07.16-.1.35-.19.5-.54.84-.94,1.74-1.22,2.69-.22.75-.19,1.5.4,2.13.08.09.15.19.23.28.12.15.23.34.38.45.53.4,1.06.79,1.61,1.15.77.5,1.57.96,2.33,1.48.51.35,1.01.73,1.47,1.15.29.27.48.65.73.97.11.14.21.3.38.21.08.17.18.33.25.51.03.09.06.21.03.28-.12.26-.28.5-.41.76-.05.1-.05.22-.08.35-.06.06-.19.14-.25.25-.32.64-.63,1.28-.91,1.94-.24.56-.44,1.14-.65,1.71-.1.27-.2.54-.28.82-.09.34-.34.65-.19,1.03-.19.07-.11.24-.14.37-.08.27-.15.55-.23.83-.2.71-.4,1.42-.62,2.13-.21.72-.44,1.44-.66,2.16-.07.24-.15.48-.19.73-.07.4-.12.8-.19,1.24-.13.07-.24.2-.14.44.01.03,0,.07-.01.1-.1.36-.29.69-.4,1.06-.13.47-.43.9-.65,1.35-.02.04-.03.08-.03.12-.01.15.04.34-.03.45-.22.37-.34.77-.42,1.19-.22,1.06-.48,2.11-.69,3.18-.07.36-.07.73-.09,1.1,0,.15.09.23.23.15.14-.08.28-.18.44-.29.17.16.06.39.07.59,0,.08-.06.17-.04.24.11.34.05.66-.06.99-.16.45-.06.95-.25,1.4-.09.22.02.52-.01.77-.11.84-.24,1.68-.37,2.52-.28,1.89-.45,3.78-.56,5.68,0,.13-.09.26-.13.38.15.72.09,1.93-.12,2.05.03.19.1.38.07.55-.07.4-.19.8-.28,1.2,0,.03.05.08.08.12.06-.06.11-.1.15-.14l.07.04c-.04.09-.09.17-.12.26-.03.08-.08.16-.08.24,0,.15.04.3.03.45-.02.29-.07.57-.09.86-.03.45-.04.89-.09,1.34-.07.66-.17,1.32-.24,1.98-.05.56.02,1.15-.12,1.68-.21.82-.15,1.69-.47,2.49-.12.3-.13.66-.26.95-.16.37-.4.71-.6,1.06-.01.02-.04.05-.03.06.11.27-.11.46-.18.68-.11.34-.28.67-.45.99-.07.14-.1.29-.14.43-.14.4-.38.77-.57,1.15-.13.25-.23.52-.35.77-.16.33-.33.66-.52.97-.06.1-.17.14-.09.31.05.1,0,.27-.03.39-.08.24-.2.47-.27.71-.02.08.05.18.08.28.02,0-.03,0-.07.02-.25.1-.43.49-.3.67.05.08.16.19.22.18.22-.04.44-.13.65-.21.01,0-.01-.11-.02-.17-.01-.13-.04-.26-.02-.38.01-.11.08-.21.13-.32.03,0,.1-.01.15-.02-.16-.64.35-.93.67-1.33-.12.05-.2.09-.28.12l-.1-.12.41-.2s-.08-.04-.12-.06c0-.06-.02-.13,0-.18.1-.21.22-.41.33-.62.19-.39.42-.76.63-1.13.07-.13.14-.26.21-.39h-.22c.24-.32.44-.59.69-.92,0,.31.03.54,0,.76-.06.4-.18.8-.24,1.2-.06.43-.06.86-.12,1.29-.11.86-.24,1.71-.36,2.57-.02.11-.01.22-.05.32-.12.35-.15.69.02,1.03.41.03.53-.05.62-.46.07-.33.12-.66.17-.99.08-.58.14-1.17.23-1.75.07-.46.2-.92.26-1.38.05-.42.05-.86.08-1.29,0-.03.02-.06.03-.1.05-.19.12-.38.14-.57.04-.38.01-.77.07-1.15.03-.22-.06-.42.07-.68.16-.3.04-.73.14-1.07.13-.45.37-.87.57-1.32.02.01-.03-.02-.05-.04.06-.06.13-.11.17-.17.17-.27.32-.56.5-.82.16-.24.36-.46.54-.68.15-.18.32-.36.47-.54.07-.08.13-.18.23-.31-.15-.3.2-.25.33-.33-.03-.12-.06-.21-.08-.29h.36c-.08-.09-.15-.17-.24-.27.05-.07.12-.15.19-.24.04.14.07.23.1.32.08-.07.17-.13.25-.2-.04-.03-.09-.06-.15-.1.05-.07.1-.13.15-.2-.07-.07-.13-.13-.21-.23.1-.09.19-.17.28-.25.02.02.04.04.06.06l-.15.18.03.03c.16-.15.32-.3.49-.46,0-.1.04-.23.03-.36-.05-.36-.02-.44.29-.57-.07-.47.13-.88.45-.88-.04-.08-.13-.18-.11-.25.09-.33.2-.66.32-1.01.08.09.14.15.15.17.06-.17.11-.34.18-.5.17-.36.35-.72.53-1.08.05-.1.09-.2.14-.33.03,0,.1-.04.17-.06-.04-.05-.07-.09-.12-.17h.27c-.24-.34-.24-.38-.09-.42.07-.16.14-.27.16-.38.04-.27.04-.55.06-.82,0-.08,0-.16,0-.25.08.02.14.03.2.04.14-.65.28-1.3.42-1.96.1.06.16.08.25.13-.31-.46.06-.79.12-1.17.05.04.09.07.14.1-.16-.66.27-1.19.35-1.79.03.12.07.23.12.42.06-.32.1-.56.15-.87-.08.13-.14.21-.2.3.05-.33.13-.64.22-.96.07-.24.13-.48.2-.72.03-.11.08-.22.15-.38-.08-.38.11-.76.23-1.19.11.06.19.1.27.14-.04-.09-.12-.13-.17-.19-.04-.05-.07-.14-.06-.2.07-.24.16-.48.23-.72.05-.16.08-.32.11-.49.08-.4.15-.79.23-1.19.13-.65.26-1.3.39-1.96.11-.57.24-1.13.35-1.7.06-.32.12-.64.15-.97.03-.24.06-.5,0-.73-.13-.54-.13-1.08-.07-1.63.05-.44.09-.88.11-1.32.03-.65-.01-1.31.05-1.96.08-.83.25-1.65.37-2.48.07-.46.13-.92.19-1.39.07-.54.11-1.08.19-1.62.03-.22.07-.46.18-.64.29-.48.34-1.01.45-1.53.03-.14,0-.31-.04-.45-.08-.31-.31-.33-.59-.3-.16.01-.24.03-.29.2-.09.32-.22.63-.32.94-.07.22-.19.45-.18.67.02.32-.05.6-.18.89-.04.1-.07.2-.09.31-.08.35-.15.7-.23,1.06-.05.21-.13.42-.13.63,0,.39.03.78.04,1.18.01.28.07.56.02.83-.18,1.01-.37,2.01-.34,3.04.02.75.04,1.49.04,2.24,0,.62-.02,1.24-.03,1.87,0,.15.05.3.03.45-.09.62-.18,1.25-.3,1.86-.12.62-.28,1.23-.42,1.85-.02.07.03.16.05.23-.05.07-.14.15-.16.25-.15.7-.28,1.41-.43,2.12-.13.63-.22,1.26-.41,1.87-.2.64-.24,1.33-.56,1.93-.01.03,0,.07,0,.1.06.17.06.17-.12.19.02.08.07.16.05.23-.06.21-.15.41-.19.63-.05.24-.22.46-.22.74,0,.16-.06.32-.09.47-.09.47-.17.93-.27,1.4-.04.16-.13.32-.18.48-.08.28-.11.56-.2.83-.19.55-.38,1.09-.61,1.62-.19.45-.43.88-.64,1.32-.1.22-.18.44-.26.67.02,0,.04.01.06.02-.17.2-.33.39-.52.61.07-.01.11-.02.18-.04-.24.43-.47.83-.7,1.23-.01.02-.02.05-.02.07-.04.14-.06.29-.14.4-.12.16-.28.28-.44.43.08.02.15.03.25.05-.32.59-.65,1.12-1.09,1.55-.02.27-.32.41-.37.69-.04.23-.33.41-.5.62-.18.21-.36.42-.54.63-.03-.32-.01-.59,0-.87,0-.15.02-.31.03-.46.02-.35-.02-.71.07-1.04.09-.3.03-.6.01-.87-.02-.25.02-.37.15-.51-.03-.11-.03-.21,0-.31.05-.2.14-.4.18-.61.06-.4.03-.82.17-1.19.09-.25.2-.48.25-.75.04-.25.14-.5.26-.74.07-.15,0-.36.2-.37.01-.15.03-.27.03-.38,0-.23.17-.34.31-.47.04-.04.07-.11.06-.16-.02-.12-.03-.12.05-.17,0,0,0-.03.01-.05-.05-.06-.11-.11-.13-.14.11-.15.23-.27.3-.42.04-.1.01-.23.01-.35.03,0,.06,0,.09,0-.05-.06-.09-.12-.1-.14.05-.13.08-.21.13-.34.02-.01.1-.05.18-.09-.27-.16-.26-.24.05-.43-.06-.08-.13-.17-.22-.29h.31c-.05-.11-.09-.2-.13-.3.08-.03.13-.05.12-.04.04-.3.04-.55.12-.77.09-.25-.03-.58.28-.75-.29-.16-.06-.34-.01-.5.03-.12.16-.22.19-.34.08-.33.13-.68.19-1.01.05-.29.23-.55.19-.86,0-.04.05-.09.07-.14.03-.05.09-.13.07-.16-.14-.19.06-.24.14-.32-.09-.17,0-.42.18-.53-.03,0-.07-.02-.17-.04.11-.05.17-.08.22-.1-.03-.09-.06-.18-.1-.3h.25c-.17-.06-.31-.12-.24-.36.11.05.22.1.32.15-.06-.33-.33-.71.27-.85-.06-.07-.11-.12-.1-.11.05-.35.06-.65.16-.94.09-.29-.04-.66.28-.89-.11-.21-.04-.34.27-.47-.07-.02-.14-.05-.23-.08.2-.1.32-.2.3-.43-.03-.26,0-.53,0-.8.09-.02.16-.03.3-.05-.13-.09-.21-.14-.24-.17.06-.16.19-.33.15-.41-.15-.3.06-.41.19-.53-.05-.1-.11-.2-.16-.3.39-.11.14-.21,0-.31.15-.08.27-.14.4-.2-.06-.1-.11-.18-.17-.26.12-.06.23-.11.34-.16-.12-.05-.24-.1-.37-.15.16-.12.29-.22.42-.32-.09-.15-.11-.26.11-.32.07-.02.17-.15.16-.2-.07-.25-.06-.49-.03-.74.02-.12.11-.45.14-.6.03-.15,0-.31-.02-.47h-.05c.06-.1.12-.2.18-.3-.05-.06-.09-.12-.15-.19.08-.04.13-.06.18-.09-.18-.2-.14-.45.08-.54-.31-.21-.05-.44-.04-.67,0-.26-.01-.51.22-.58-.05-.08-.09-.14-.13-.2.06-.03.12-.05.12-.05.03-.13.08-.24.06-.34-.04-.32.02-.61.12-.92.13-.42.18-.86.25-1.29.07-.39.13-.78.18-1.17.03-.2.11-.32.32-.3,0,0,.02-.04.04-.08-.08,0-.14,0-.19,0,.12-.43.26-.84.33-1.26.11-.7.28-1.39.54-2.05.2-.51.35-1.04.54-1.55.3-.8.61-1.6.92-2.4.18-.46.41-.89.59-1.35.29-.78.6-1.56,1.15-2.19.28-.33.48-.67.55-1.08.06-.4.09-.81-.2-1.21.28-.08.55-.21.84-.24.49-.05.98-.04,1.47-.05.04,0,.09-.02.13-.03.49-.13.57-.11.72.33.17.51.38.98.63,1.46.43.82.72,1.7,1.05,2.57.16.41.27.84.41,1.26.27.81.55,1.62.8,2.45.07.24.05.5.06.73.08.28.18.53.23.8.05.28.03.57.08.85.07.39.17.78.26,1.18.06.02.14.04.26.08-.1.04-.16.07-.27.11.12.11.22.2.33.3-.06.02-.11.03-.16.05l.02.05c.14-.05.29-.1.5-.17-.12.18-.21.31-.27.39.1.22.19.38.24.56.05.18.05.37.08.57-.04.03-.1.08-.2.16.24.07.17.19.07.31.12.1.26.19.03.35.08.03.13.04.2.06-.04.13-.08.25-.12.36.24.13,0,.26.01.39.05.12.07.24.08.36.05.72.1,1.43.13,2.15.02.45,0,.91.02,1.36.02.68.06,1.37.09,2.05,0,.16-.01.33,0,.5,0,.15.04.3.05.45,0,.35-.03.69,0,1.04.05.74.13,1.47.18,2.21.03.4.02.8.04,1.2.01.32.04.63.05.95.02.53.02,1.06.05,1.59.03.46.13.91.13,1.37,0,.83-.03,1.65-.05,2.48-.01.33-.06.66-.06.99,0,.59.03,1.18.04,1.77,0,.77-.04,1.53.04,2.3.02.16-.06.32-.08.49-.01.08,0,.17,0,.26.03.33.15.69.07,1-.08.29.14.54-.03.83-.09.16.05.44.07.67.01.2.17.41-.04.61-.02.02.02.12.04.18.01.05.06.09.05.13-.04.25-.09.49-.15.73-.17.67-.37,1.32-.5,2-.12.63-.15,1.28-.22,1.93-.02.17-.05.34-.09.5-.08.36-.19.71-.26,1.07-.08.42-.11.85-.2,1.27-.11.55-.26,1.08-.4,1.62-.13.49-.34.97-.32,1.49,0,.11,0,.23-.03.34-.09.37-.21.74-.28,1.12-.21,1.12-.41,2.24-.61,3.36-.02.11-.03.23,0,.35.05.28-.07.49-.27.64-.44.32-.88.64-1.34.94-.41.27-.84.5-1.26.76,0-.04-.01-.07-.02-.11-.07-.03-.14-.09-.21-.1-.21-.03-.43-.05-.64-.05-.38,0-.76-.04-1.13.01-.55.07-1.06-.11-1.59-.23.07-.03.13-.07.2-.11-.19-.04-.39-.03-.54-.11-.23-.12-.41-.03-.62.03-.16.04-.32.06-.48.07-.25.02-.49-.24-.75-.04-.02.02-.07,0-.1-.01-.16-.01-.31-.03-.47-.04-.11,0-.21,0-.32-.02-.31-.04-.61-.11-.91-.11-.4,0-.79.08-1.19.08-.4,0-.81-.23-1.21.03.09-.21.18-.43.27-.65.06-.01.15-.02.24-.04-.02-.02-.04-.04-.06-.06.12-.18.23-.36.35-.54-.02-.01-.06-.03-.08-.04.16-.21.32-.41.49-.63,0,0-.06-.05-.16-.13.18-.12.32-.22.48-.33-.07-.01-.13-.02-.21-.03.08-.23.18-.44.24-.65.06-.21.14-.36.41-.31-.08-.03-.15-.06-.28-.11.15-.31.3-.61.45-.94.03-.08.07-.18.11-.29.19-.5.39-1,.58-1.5.27-.72.57-1.42.79-2.15.11-.38.29-.74.36-1.13.04-.24.19-.47.24-.71.16-.69.3-1.39.44-2.09.13-.64.24-1.28.38-1.91.12-.52.26-1.04.4-1.56.14-.51.31-1.02.46-1.53.09-.28.17-.56.26-.84.04-.12.09-.24.12-.36.1-.39.17-.79.28-1.18.2-.74.46-1.48.63-2.23.32-1.45.6-2.92.89-4.38.13-.68.26-1.36.38-2.04.1-.58.19-1.17.3-1.75.02-.1.11-.19.18-.29.1.51.05.96.03,1.42-.02.42-.03.87-.16,1.26-.27.82-.22,1.68-.35,2.52-.12.82-.16,1.66-.26,2.49-.03.24.08.53-.18.71.14.23,0,.48.02.72.01.13-.07.27-.11.41.03.02.07.05.11.08-.22.13-.24.52-.07.73-.03.06-.07.11-.07.16,0,.13.12.24-.04.38-.09.08-.12.26-.12.4,0,.34-.11.65-.18.97-.01.06.02.13.04.2-.06-.01-.11-.02-.16-.03.2.12.27.24.02.36.05.06.08.11.07.09-.07.19-.19.36-.15.45.17.37-.06.7-.06,1.05,0,.24-.08.47-.09.71-.03.47-.03.94-.05,1.41-.01.19-.09.38-.1.58,0,.16.07.32.06.48-.03.47-.12.94-.22,1.41-.05.24,0,.5-.02.74-.03.3-.09.59-.13.88-.04.3-.08.6-.12.9-.03.26-.12.52-.1.78.04.51-.1,1.01-.09,1.52,0,.49-.18.95-.17,1.44.01.34-.09.69-.07,1.04.02.32-.12.63-.01.98.11.37.02.8.02,1.23.37-.05.72-.09,1.06-.13-.06-.06-.14-.12-.23-.2.08-.1.15-.17.22-.25-.01,0-.02-.02-.04-.03-.09.06-.18.12-.27.17-.02-.02-.03-.04-.05-.06.12-.17.24-.35.36-.52q-.39-.28-.21-.56c-.09-.06-.18-.13-.29-.2.08-.06.13-.09.14-.1-.03-.1-.06-.19-.1-.34-.27-.08-.02-.2.07-.3,0-.4,0-.77,0-1.13,0-.05.12-.09.21-.15-.36-.37-.11-.79-.07-1.19.04-.37.18-.73.22-1.1.09-.67.12-1.35.21-2.03.08-.66.19-1.32.29-1.98.07-.44.17-.88.21-1.32.1-.98.16-1.96.26-2.93.07-.68.21-1.35.31-2.03.07-.44.12-.88.19-1.32.06-.35.17-.7.21-1.05.04-.28.02-.56.03-.84,0-.33.02-.66,0-.98-.02-.22.02-.37.23-.42,0-.15.01-.29,0-.43-.01-.12-.05-.23-.09-.38.1-1.02.19-2.1.3-3.21.08.09.12.14.15.18.07-.4-.1-.78-.05-1.21.05-.48.12-.98,0-1.49-.09-.38-.09-.8,0-1.18.12-.53.05-1.07.13-1.61.17-1.07.19-2.17.23-3.26.01-.39.07-.78.11-1.18.04-.34.1-.67.15-1,.03-.17.08-.34.09-.51.02-.42,0-.84.02-1.26.04-.78.1-1.56.14-2.34.02-.38,0-.77,0-1.15.04.02.08.04.11.05-.03-1.4.15-2.79-.1-4.17.05.1.1.2.18.36-.05-.29-.11-.51-.12-.72-.01-.23.02-.46.04-.7.02-.2.07-.41.05-.61-.05-.35-.15-.69-.23-1.04.02,0,.04,0,.06-.02.06.17.12.33.18.5,0-.04.02-.08.02-.11-.06-.5-.12-1.01-.18-1.51-.02-.16-.08-.31-.08-.46,0-.36.05-.71.05-1.07,0-.66-.07-1.31-.03-1.96.02-.35-.14-.76.21-1.01-.07-.1-.16-.19-.17-.28-.02-.25,0-.5,0-.75,0-.18,0-.37.02-.55.02-.24.08-.48.07-.71,0-.14-.04-.36-.28-.33-.11.02-.24.06-.32.14-.09.08-.14.2-.19.32-.04.08-.04.18-.06.28.35.12-.09.18-.08.28.07.05.13.11.14.12-.06.23-.11.41-.16.6-.05-.04-.08-.07-.18-.15.1.2.17.32.26.49-.13-.02-.2-.03-.26-.04.04.15.08.29.11.42-.02,0-.04.01-.07.02-.02-.03-.04-.06-.09-.15.02.38.05.7.06,1.02,0,.13,0,.27,0,.4,0,.28,0,.57.02.85.02.38.1.76.06,1.13-.04.3-.1.58-.08.9.05.86.17,1.7.37,2.54.06.26.17.56.1.79-.2.69-.21,1.38-.15,2.09.1,1.11.07,2.22-.08,3.33-.08.56-.12,1.12-.18,1.68-.03.26-.07.52-.06.78,0,.29.08.59.1.88.06.81-.06,1.61-.21,2.4-.1.54-.19,1.09-.37,1.61-.13.37-.27.73-.32,1.12-.09.71-.19,1.42-.34,2.12-.1.44-.26.86-.25,1.32.01.29,0,.58-.19.84-.1.13-.13.32-.15.49-.13.85-.24,1.69-.36,2.54-.06.44-.12.88-.17,1.31-.06.46-.09.92-.18,1.36-.2.98-.43,1.96-.65,2.93-.14.64-.48,1.22-.51,1.89,0,.13-.03.26-.06.39-.07.25-.14.5-.22.75-.26.83-.41,1.7-.75,2.52-.24.56-.33,1.2-.45,1.8-.16.82-.27,1.65-.42,2.47-.13.68-.26,1.35-.69,1.94-.19.26-.25.61-.37.91-.05.13-.12.27-.18.4-.02.05-.04.1-.06.15-.1.35-.2.69-.31,1.06.02.01.1.06.2.11-.24.05-.48.37-.45.57.07.43-.1.76-.37,1.08-.15.19-.23.44-.31.67-.05.15-.02.32-.07.47-.14.4-.28.8-.46,1.18-.36.76-.58,1.59-1.14,2.26-.06.07-.1.15-.15.23.02.02.08.07.16.13-.2.11-.35.3-.59.16-.05-.03-.13-.03-.19-.02-.51.1-1.02.21-1.52.31-.1.02-.22.09-.29.05-.19-.1-.27.03-.35.14-.24.32-.17.87.13,1.23.13.16.27.23.48.2.6-.06,1.2-.12,1.81-.15.55-.02,1.1,0,1.71,0-.22-.1-.49-.2-.48-.23.06-.25.28-.14.45-.15.87-.01,1.74-.04,2.61-.01.51.01,1.03-.05,1.52.17.03.01.07.01.1.01.27,0,.55,0,.82,0-.51.25-1.01.39-1.54.12.03-.04.06-.07.06-.07h-.78c.42.11.85.23,1.27.24.45,0,.9-.1,1.36-.14.63-.05,1.27-.07,1.91-.11.18,0,.36,0,.54,0,.47-.02.95-.05,1.42-.08.05,0,.1-.03.15-.06.38-.23.75-.48,1.14-.69.61-.34,1.22-.68,1.85-.99.26-.12.56-.19.83.05.19.18.39.35.6.5.38.26.68.65,1.17.74.05,0,.12.05.13.08.06.27.31.24.5.3.24.08.49.13.74.18.76.17,1.51.36,2.3.33.31-.01.63.14.91-.1.02-.02.12.02.14.05.18.26.47.25.73.25.55,0,1.1-.05,1.65-.07.07,0,.14,0,.21,0,.17,0,.35.05.51.01.23-.05.44-.2.67-.25.29-.06.56-.33.87-.16.21.12.39.3.57.46.34.29.67.59,1,.9.1.1.17.26.29.31.46.21.94.38,1.41.56.15.06.29.14.44.18.22.05.45.06.67.09,0-.03-.01-.06-.02-.1.09-.02.18-.06.27-.07.13,0,.27.01.41.01.21,0,.4-.14.62.01.07.05.34-.03.35-.09.08-.35.19-.12.26-.06.09-.06.16-.12.24-.18-.02-.04-.05-.09-.08-.17.1.06.19.11.27.15,0-.01.01-.03.02-.04-.02-.04-.04-.07-.06-.1.15.01.3.02.45.04.27.04.53.08.79.15.42.12.83.28,1.26.4.23.07.48.14.71.13.74-.03,1.48-.09,2.22-.17.31-.03.61-.14.9-.25.36-.13.69-.35,1.05-.42.65-.14,1.32-.2,1.98-.28.14-.02.34.02.42.12.14.16.29.36.44.31.39-.13.75.04,1.13.07.45.03.9.06,1.32-.16.12-.06.26-.05.39-.09.13-.03.26-.07.37-.13.29-.16.57-.34.85-.52.13-.08.23-.23.37-.28.65-.24,1.19-.65,1.73-1.06.43-.33.86-.67,1.42-.79.13-.03.45.15.42.25-.09.31.15.31.32.39,0,.02,0,.05,0,.07-.03.41.19.61.59.57.12-.01.26.05.39.08.35.09.69.26,1.04.25.67,0,1.33-.11,2-.17.12-.01.25.02.37,0,.61-.12,1.21-.26,1.81-.39.27-.06.56-.06.83-.14.35-.1.68-.24,1.04-.38-.02.08-.03.12-.03.14.29-.09.57-.25.87-.27.31-.02.64.05.95.13.29.07.56.22.84.32.04.01.1-.02.19-.04-.11-.04-.17-.06-.24-.09,1.53.24,2.93-.15,4.38-.74-.13-.06-.18-.08-.23-.11.09-.04.16-.02.23-.01.05,0,.11,0,.16-.02.06-.03.12-.08.18-.11.14-.05.3-.06.43-.13.27-.15.52-.33.78-.48.45-.26.91-.44,1.46-.25.28.1.6.11.89.17.35.07.65-.14,1.02-.11.59.05,1.14-.27,1.68-.54.51-.25,1.03-.48,1.54-.72.19-.09.43-.16.54-.32.12-.17.12-.43.18-.71.1,0,.26-.02.42-.03,0-.04.01-.07.02-.11-.27-.16-.55-.32-.82-.48ZM43.92,28.44c-.12.41-.25.81-.37,1.22-.04-.01-.07-.02-.11-.04-.05-.46.16-.85.48-1.18ZM37.41,37.94s-.04-.02-.07-.03c.11-.2.21-.4.32-.6.03.02.06.04.09.06-.12.19-.23.39-.35.58ZM41.37,33.52c.61-.22,1.69.19,1.7.68-.47-.52-1.15-.42-1.7-.68ZM51.74,46.72c-.15-.09-.26-.21-.19-.43.07.02.11.02.13.04.08.11.15.23.23.35-.05.02-.13.06-.16.04ZM25.7,71.36s0,0,0,0c.12.08.25.16.38.24-.09.11-.21.24-.34.39,0-.21-.22-.39-.03-.62ZM26.19,65.19c-.09.29-.03.57.02.85.06.32-.17.39-.4.46-.09-.07-.23-.14-.25-.23-.02-.08.08-.2.14-.33-.14-.14-.07-.25.33-.37-.01-.22-.03-.46-.04-.69.02,0,.04-.01.06-.02.05.11.17.24.15.33ZM26.11,64.57s-.06.05-.08.08c-.11-.09-.22-.18-.39-.31.11,0,.22-.03.28,0,.08.05.13.15.19.23ZM25.42,61.51c.1.03.24.02.3.09.12.14.18.16.26-.1.01.03.03.07.04.1-.06.12-.11.25-.18.36,0,.01-.19-.05-.19-.06.03-.21-.16-.22-.26-.32,0-.02.01-.05.02-.07ZM25.93,62.47c-.15-.02-.31-.04-.52-.07.18-.12.3-.21.44-.31.03.14.05.26.08.37ZM25.71,63.28l.04-.05c-.06-.08-.12-.15-.2-.25.12-.03.23-.06.34-.08l.06.06c-.3.1.14.61-.35.6-.1-.15-.17-.27-.25-.39.12.04.24.08.36.12ZM12.65,27.09c-.05.01-.11.02-.16.04-.26-.89-.41-1.8-.47-2.73l.63,2.7ZM12.2,38.94c.13-.31.24-.62.36-.92.05-.13.1-.26.17-.38.04-.07.11-.11.18-.17-.03-.03-.06-.07-.11-.12.07-.07.15-.14.24-.22h-.25c.06-.12.2-.27.17-.35-.12-.31.13-.32.31-.45-.07-.01-.12-.02-.23-.04.11-.18.22-.35.33-.52,0,0-.03-.02-.09-.05.08-.1.15-.2.24-.32-.15-.17-.21-.32.08-.43.06-.02.09-.19.08-.29-.03-.24.03-.4.21-.58.38-.36.77-.23,1.17-.13q.04.61-.19.67c.08.05.15.09.23.14-.14.16-.39.16-.4.48,0,.2-.27.4-.42.6-.1.14-.2.29-.31.43-.21.26-.44.49-.64.76-.15.21-.26.44-.38.67-.05.1-.07.22-.13.32-.35.67-.7,1.33-1.05,2l-.05-.02c.16-.36.32-.71.47-1.07ZM6.32,56.75c.07-.16.15-.3.18-.44.02-.09-.02-.2-.02-.31,0-.08,0-.16.04-.22.01-.03.08-.03.15-.06-.02-.02-.07-.05-.06-.07.27-1.02.55-2.04.83-3.06.01-.05.09-.07.14-.11.03.01.05.02.08.03-.35,1.41-.71,2.82-1.06,4.24-.12,0-.18,0-.28-.01ZM15.19,36.99c-.41.83-.77,1.69-1.15,2.54-.29.65-.6,1.29-.85,1.95-.32.83-.64,1.67-.9,2.53-.38,1.29-.73,2.58-1.05,3.89-.15.61-.18,1.24-.29,1.86-.16.88-.36,1.75-.52,2.63-.07.37-.07.75-.12,1.13-.07.52-.15,1.03-.24,1.55-.09.5-.19,1-.29,1.51-.01.07-.03.15-.06.21-.21.31-.16.67-.2,1.01-.02.15-.11.28-.18.45.1.48-.19.92-.3,1.4-.1.45-.07.96-.51,1.31.06.03.12.06.23.11-.14.18-.27.34-.38.47,0,0,.07,0,.14.01-.16.4-.33.78-.47,1.17-.05.14-.03.31-.06.46-.01.08-.05.16-.08.25,0,0,.05.03.04.02-.14.35-.27.68-.42,1.03.01,0,.05.03.06.03-.13.42-.25.84-.38,1.26.02,0,.03.01.05.02.04-.07.09-.14.14-.21,0,.38-.22.9-.41.9.07-.1.12-.18.18-.26-.2-.05-.29.14-.25.57.06-.07.11-.12.19-.21v.45c-.09,0-.17.02-.25.03.07.26.15.52.23.83-.2-.08-.38-.16-.56-.23-.01,0-.03.01-.04.02.15.15.3.31.45.46-.01.03-.02.05-.03.08-.13-.05-.25-.09-.38-.14-.01.01-.02.02-.03.04.08.07.16.14.27.23-.12,0-.21-.02-.3-.02,0,.01-.02.03-.03.04.12.06.24.13.38.21-.1.06-.17.11-.25.15.02.01.05.02.07.03-.03.12-.03.26-.09.36-.25.37-.29.8-.37,1.22-.04.23-.11.46-.16.7-.04,0-.08,0-.11,0-.02-.23-.08-.45-.06-.68.14-1.52.28-3.04.44-4.56.07-.68.2-1.35.28-2.03.16-1.32.3-2.65.45-3.97.03-.24.03-.49.07-.73.02-.12.1-.23.15-.35-.01-.09-.05-.21-.04-.34.03-.71.13-1.41.34-2.09.04-.12.07-.25.11-.39.04.03.09.07.15.11-.37-.37.08-.76-.08-1.2.1.07.13.09.19.13-.18-.35-.04-.59.27-.79-.36-.23-.15-.53-.1-.78.14-.77.36-1.52.48-2.29.07-.41.14-.83.07-1.27-.04-.26.12-.55.19-.83.02-.09.03-.19.06-.28.06-.19.12-.38.2-.63-.21-.18.08-.38.13-.59.05-.19.04-.5.43-.44-.36-.22-.13-.46-.09-.71.05.05.08.09.11.12.1-.2.2-.39.28-.6.03-.08-.02-.19-.02-.28,0-.06.02-.13.06-.19.01-.13,0-.27.04-.38.11-.27.25-.52.38-.78.02-.03.05-.07.04-.09-.1-.25.08-.32.24-.42h-.24c.13-.18.24-.33.34-.48.13-.25.26-.51.4-.76.1-.19.29-.35.22-.62-.01-.05.15-.12.19-.2.07-.14.11-.29.17-.44,0-.03,0-.06.02-.09.35-.57.73-1.12,1.06-1.7.34-.57.64-1.16.96-1.74.21-.39.41-.78.63-1.16.08-.14.19-.27.29-.4.02-.03.05-.06.05-.09-.06-.32.25-.38.4-.55-.02-.04-.05-.08-.07-.13.02.02.04.04.06.05.26-.28.52-.57.78-.85.18-.2.38-.38.76-.34-.51.95-1.01,1.85-1.47,2.77ZM24.12,39.43c-.29.03-.24-.24-.35-.4.32-.04.4.05.35.4ZM23.84,45.81c-.06-1.32-.28-2.59-.7-3.83.02,0,.07.01.15.02-.06-.3-.09-.6-.17-.88-.13-.5-.3-.99-.43-1.49-.04-.15-.01-.32-.06-.47-.36-.99-.73-1.97-1.1-2.95-.23-.62-.44-1.24-.66-1.86-.03-.08-.03-.17-.04-.26.02-.02.04-.04.06-.06.13.1.31.18.39.31.32.5.65.99.9,1.53.19.41.26.87.38,1.31.09.33.17.66.27.98.06.22.13.44.21.65.23.6.2,1.24.34,1.85.14.63.27,1.26.35,1.89.12,1,.2,2.01.29,3.01.01.14.03.31-.19.23ZM25.09,81.09c.09-.11.24-.16.41-.21-.13.18-.26.36-.41.58-.19-.1-.08-.26,0-.36ZM6.86,94.88l-.03-.1c.13-.05.25-.13.38-.14.28-.02.56.02.84.01.3,0,.6-.02.9-.04.18-.01.32.03.36.27h-2.44ZM67.47,19.39c.15,0,.24.02.37.02-.04-.06-.07-.11-.07-.1.36-.24.72-.47,1.07-.71.03-.02.08-.09.06-.11-.13-.23.14-.33.2-.34.23-.06.31-.33.58-.36.09,0,.21-.2.38-.2.05,0,.12-.06.16-.04.51.15.92.46,1.25.85.44.51.8,1.09,1.24,1.59.32.36.71.66,1.1.95.57.43.95,1.03,1.41,1.55.26.3.54.58.79.89.27.34.55.67.78,1.04.28.46.54.94.76,1.43.16.36.26.76.38,1.14,0,.03,0,.08-.03.1-.2.25-.37.53-.6.73-.36.31-.77.55-1.14.85-.56.44-1.1.89-1.66,1.33-.22.17-.49.28-.69.47-.25.23-.44.54-.69.77-.53.48-1.09.92-1.63,1.38-.38.33-.74.67-1.12,1-.13.11-.31.16-.43.28-.38.36-.75.73-1.13,1.1-.05.05-.1.09-.16.15-.14-.24-.27-.47-.41-.69-.27-.43-.55-.86-.81-1.3-.41-.69-1.05-1.14-1.67-1.61-.17-.13-.22-.22-.05-.4.54-.58.93-1.26,1.29-1.95.28-.54.55-1.09.79-1.65.17-.39.28-.8.43-1.2.11-.29.28-.58.32-.88.05-.45.02-.91,0-1.37,0-.3,0-.6-.06-.89-.07-.26-.21-.51-.36-.74-.1-.16-.25-.28-.26-.51,0-.09-.14-.18-.21-.27-.22-.3-.27-.59-.11-.95.14-.33.19-.7.24-1.06,0-.07-.17-.16-.32-.3ZM65.6,29.79c-.05-.05-.11-.09-.12-.13-.05-.15-.13-.22-.3-.26-.26-.05-.27-.16-.1-.36.07-.08.11-.18.16-.28.2-.34.41-.66.45-1.1.06-.66.43-1.22.71-1.82.35-.75.62-1.55.93-2.32.07-.18.15-.36.23-.54.64,1.13.38,2.23-.11,3.27-.49,1.03-1.1,2.01-1.65,3.01-.08.15-.13.33-.2.52ZM58.36,24.98c-.05-.18-.02-.4.06-.57.15-.34.12-.66.04-1-.06-.24-.15-.48-.2-.72-.05-.22-.15-.45,0-.68.02-.03,0-.09-.02-.13-.21-.44-.11-.86.04-1.29.03-.09.05-.18.08-.3.72.32,1.23.8,1.43,1.56.06-.03.09-.04.09-.05,0-.46,0-.47.47-.45.25,0,.5.1.76.1.34,0,.69,0,1.02-.08.53-.12,1.04-.3,1.56-.44.14-.04.3-.03.44-.06.85-.18,1.63-.55,2.39-.94.18-.09.35-.19.53-.27.09-.04.2-.05.32-.08-.07.31-.11.56-.2.8-.06.16-.16.32-.28.44-.35.36-.39.67-.15,1.08.3.51.24,1.01-.03,1.51-.26.48-.58.95-.78,1.45-.25.6-.5,1.19-.83,1.74-.16.27-.23.59-.36.89-.05.12-.15.22-.22.34-.02.04-.05.08-.05.12,0,.47-.14.88-.41,1.26-.02.02-.03.04-.04.07-.23.65-.34.51-.88.38-.09-.02-.22-.05-.27,0-.19.17-.37.06-.55.04-.6-.07-1.2-.22-1.81-.1-.05.01-.14-.03-.18-.07-.17-.21-.35-.42-.49-.65-.17-.28-.32-.56-.45-.86-.17-.39-.31-.79-.44-1.19-.03-.09,0-.21,0-.34,0,0-.1-.05-.12-.12-.16-.46-.33-.92-.46-1.39ZM59.51,29.9s-.07.04-.1.06c-.09-.17-.19-.33-.28-.5.03-.02.07-.03.1-.05.09.16.19.32.28.48ZM58.67,37.07c.12-.43.24-.87.4-1.29.07-.18.25-.31.39-.47.03.02.06.04.09.06-.06.18-.12.35-.19.53-.02,0-.04,0-.05-.01v-.29c-.23.69-.44,1.3-.65,1.9-.02,0-.03,0-.05-.01.02-.14.02-.29.06-.43ZM58.24,34.97c-.14.59-.26,1.12-.38,1.65-.03,0-.07-.02-.1-.02.16-.52-.04-1.12.47-1.62ZM53.37,49.88c.07-.32.17-.64.24-.96.12-.58.23-1.17.35-1.75.13-.6.24-1.2.43-1.78.13-.39.28-.78.36-1.19.06-.32.11-.64.18-.96.08-.32.21-.63.28-.96.08-.34.12-.69.19-1.03.02-.09.06-.18.08-.28.02-.07.06-.15.04-.22-.05-.24.03-.47.14-.54.08-.28.08-.53.2-.66.21-.2.04-.35.02-.46.52-1.03.81-2.12,1.53-3.06-.03.28-.05.48-.07.69,0,.03-.01.05-.03.08-.25.39-.16.86-.32,1.28-.17.46-.21.96-.32,1.44-.05.2-.15.38-.19.58-.06.24-.07.49-.13.72-.08.29-.21.57-.3.86-.03.09-.02.2-.05.3-.17.53-.35,1.05-.52,1.58-.11.36-.26.72-.3,1.09-.09.81-.42,1.55-.61,2.33-.14.58-.4,1.13-.53,1.71-.11.48-.1.98-.15,1.51-.09,0-.18,0-.27,0-.21,0-.32-.11-.28-.32ZM54.28,63.18c-.1-.31-.18-.62-.27-.93l.02-.04c.08.09.18.17.22.27.1.21.18.43.24.65.02.06-.04.15-.07.23-.05-.06-.12-.11-.15-.18ZM58.9,92.5c.02.11.03.2.04.3-.08.11-.16.22-.26.36-.32,0-.1-.42-.39-.47.08-.07.13-.12.18-.17-.02,0-.05.02-.07.02-.09-.3-.18-.6-.27-.9-.02-.06-.06-.12-.08-.19-.04-.12-.06-.25-.1-.37-.06-.16-.13-.32-.21-.53.22.13.45.15.4.49-.05.28.31.67.59.74.11.03.2.11.31.17-.18.03-.34.06-.52.09-.04-.09-.09-.22-.14-.35-.02.6.14.8.51.8ZM82.21,91.02s0,0,0,.01c-.23.06-.44.11-.64.18-.19.07-.37.17-.56.26-.1.05-.18.13-.28.15-.64.12-1.29.23-1.94.32-.19.03-.41.02-.59-.04-.65-.2-1.28-.09-1.86.19-.4.19-.76.48-1.15.71-.16.1-.33.19-.5.24-.62.19-1.25.36-1.87.54-.4.12-.8.29-1.21.37-.66.13-1.3,0-1.89-.33-.16-.09-.32-.16-.51-.25.08-.02.14-.03.19-.04-.5-.17-1-.27-1.52-.12-1,.29-1.99.59-2.99.88-1.11.32-2.24.52-3.4.45-.31-.02-.58-.05-.7-.41-.05-.14-.18-.36-.4-.13-.03.03-.13.02-.17,0-.04-.03-.04-.11-.05-.17.05,0,.09-.01.14-.02,0-.01,0-.02,0-.04-.15-.04-.3-.08-.4-.11-.02-.1-.04-.21-.05-.31-.04-.36,0-.71.11-1.09-.03-.02-.08-.08-.13-.12.11-.17.21-.32.31-.48-.14-.06-.31-.07-.14-.27.04-.04,0-.16-.02-.31-.03-.09-.18-.29-.13-.38.07-.12.29-.16.41-.23-.11-.04-.26-.09-.4-.14.11-.32.28.01.41-.06-.03-.15-.06-.3-.11-.55-.23.21-.41.38-.63.58-.43-.34-.58-.94-.91-1.43.25-.22.31-.71.13-.83.06-.06.18-.14.16-.18-.02-.08-.12-.14-.2-.22.03-.01.08-.04.13-.06-.05-.12-.1-.24-.16-.36-.25.14-.22.44.09.66h-.19c-.03.26-.21.51,0,.78-.41.42-.24.98-.35,1.49-.1.02-.21.05-.32.07-.12-.23.02-.55-.28-.7.17-.25,0-1.24-.17-1.35-.02-.28-.02-.51-.06-.73-.05-.3-.12-.6-.18-.89-.07-.39-.14-.77-.21-1.16-.02-.12-.02-.24-.03-.37-.03-.33-.07-.65-.1-.98-.05-.65-.1-1.31-.16-1.96-.03-.34-.08-.68-.11-1.02,0-.1.03-.2.06-.35-.08-.11-.35-.25-.12-.54,0-.01.02-.04,0-.05-.24-.3-.1-.66-.16-.99-.04-.2.05-.44-.04-.6-.15-.29.01-.56-.03-.84-.09-.57-.21-1.14-.29-1.71-.1-.65-.17-1.3-.26-1.95-.07-.52-.15-1.04-.23-1.56-.02-.14-.09-.27-.11-.34,0-.33.05-.62-.01-.88-.13-.58-.19-1.17-.18-1.77,0-.27-.08-.55-.14-.82-.07-.32-.16-.64-.22-.96-.03-.18-.02-.37-.04-.55-.05-.52-.08-1.03-.16-1.55-.06-.4-.16-.79-.24-1.18-.02-.09-.03-.19-.05-.33.3.09.33.33.4.51.13.33.21.67.31,1.01.17.57.33,1.14.53,1.7.03.08.2.1.3.16l.07-.07c-.09-.35-.18-.7-.26-1.05-.1-.4-.17-.8-.29-1.19-.18-.63-.4-1.25-.58-1.88-.19-.63-.36-1.27-.55-1.91-.13-.45-.31-.88-.43-1.34-.1-.39-.16-.79-.24-1.19,0-.05,0-.11.01-.13-.06-.07-.16-.13-.17-.21-.12-.5-.22-1-.32-1.5-.01-.05,0-.12.02-.17.04-.09.09-.18.14-.28-.02-.02-.04-.03-.07-.05.06-.01.13-.03.19-.04-.05-.06-.11-.11-.14-.17,0-.01.06-.1.1-.1.07,0,.18.02.21.07.07.11.12.24.14.37.05.27.09.54.13.81.01.08,0,.17,0,.25,0,.07.03.13.04.2.04-.04.1-.08.12-.13.14-.32.14-.66.09-1-.05-.33-.09-.65-.12-.98-.03-.31.04-.66-.07-.92-.3-.68.11-1.28.14-1.92.02-.32,0-.67.1-.99.04-.15.09-.29.12-.44.22-1.03.4-2.08.65-3.1.3-1.24.66-2.46.99-3.69.12-.44.19-.9.34-1.33.22-.64.49-1.25.75-1.88.12-.29.25-.58.39-.86.04-.07.12-.12.18-.18l.06.04c-.06.35-.12.7-.19,1.05-.12.6-.21,1.21-.36,1.8-.17.66-.29,1.32-.34,1.99-.01.17,0,.35.03.51.01.07.11.17.17.17.08,0,.2-.06.24-.13.28-.55.32-1.17.45-1.76.2-.89.25-1.81.48-2.69.13-.5.14-1.03.25-1.54.1-.45.25-.89.38-1.34.06-.21.1-.41.17-.62.04-.11.1-.22.15-.33.03.01.05.02.08.03-.03.13-.06.27-.08.4-.07.54-.12,1.08-.21,1.61-.12.73-.22,1.47-.23,2.21,0,.35,0,.7-.08,1.05-.07.3-.04.63-.06.95-.06.76-.11,1.51-.18,2.27-.03.32-.13.62-.16.94-.03.31,0,.62-.04.92-.07.55-.19,1.09-.24,1.64-.03.32.02.65.04.98.01.33.03.65.03.98,0,.3-.05.61-.04.91.03.57.11,1.15.14,1.72.01.2-.04.4-.06.6,0,.03-.01.06,0,.08.13.68-.21,1.3-.23,1.96-.02.74-.05,1.47-.08,2.21-.01.36-.04.71-.06,1.07-.03-.01-.06-.03-.04-.02.06,2,.13,4.01.19,6.05.01,0,.04.01.05.02,0,.49,0,.95,0,1.4,0,.43,0,.86,0,1.28,0,.06.05.11.05.17,0,.18,0,.36,0,.54,0,.1-.05.26,0,.3.15.12.04.23.04.35,0,.24,0,.49,0,.73.01.33-.03.68.08.98.1.27.03.52.06.77.03.28,0,.56.03.84.02.18.11.36.18.58,0,0-.05.06-.11.13.32.14.45.35.28.67h0s.41,0,.41,0c-.28-.25-.11-.48-.1-.7,0-.12.06-.26.01-.35-.15-.27-.23-.53-.18-.86.05-.29-.06-.6-.09-.9-.04-.36-.08-.72-.12-1.08,0-.07-.04-.13-.05-.2-.02-.09-.05-.18-.05-.28,0-.12.02-.23.04-.4-.01,0,.04-.02.05-.02-.02-.92-.05-1.82-.06-2.72,0-.02.08-.05.11-.07-.21-.13-.2-.96-.03-1.15-.02-.26-.12-.55-.02-.68.1-.13.02-.19.02-.26,0-.41-.02-.82-.04-1.22-.01-.24-.05-.49-.04-.73,0-.12.08-.25.14-.41-.11.03-.2.05-.34.08.4-.41.11-.86.17-1.27.03-.27.05-.53.07-.8,0-.03.04-.05.03-.08-.17-.71-.05-1.42-.07-2.14,0-.2-.08-.37.13-.41-.06-.21-.13-.41-.18-.61,0-.02.14-.08.22-.12-.11-.11-.2-.25-.04-.41-.21-.27,0-.56-.02-.85-.02-.28.08-.56.1-.85.02-.2.02-.41.01-.61-.02-.74-.06-1.47-.07-2.2,0-.33.03-.67.04-1.01.01-.45,0-.91.03-1.36.03-.48.08-.95.14-1.43.07-.53.15-1.06.26-1.58.07-.33-.01-.72.31-.98.01-.01.02-.03.02-.05,0-.21,0-.41.02-.62.02-.16.08-.3.11-.46.03-.14.04-.29.05-.44.03-.38.07-.76.09-1.13.02-.31.1-.66,0-.93-.15-.37-.01-.7-.03-1.05-.01-.18.07-.37.12-.55,0-.02.02-.05.02-.07-.01-.3-.04-.6-.03-.9,0-.27.05-.53.08-.8.01-.1.03-.2.04-.31,0-.05,0-.12.03-.16.17-.26.15-.44-.07-.63.18-.04.35-.05.22-.33-.07-.14.09-.38-.22-.52.21.03.26-.02.27-.19.03-.33.12-.65.21-.97.12-.42.26-.83.39-1.24.02,0,.05.01.07.02-.05.24-.11.48-.15.72-.07.56-.13,1.12-.2,1.67-.03.24-.08.48-.11.72-.02.2-.03.41-.01.62.02.3,0,.57-.1.86-.05.16.05.37.09.56,0,.04.05.1.04.12-.23.32.07.66-.03,1-.09.31-.08.66-.09,1-.02.66,0,1.32-.03,1.98-.02.48-.11.95-.16,1.43-.06.54-.12,1.08-.17,1.61-.08.7-.18,1.39-.22,2.09-.03.56,0,1.13.04,1.7.06.83.14,1.66.24,2.48.08.61.02,1.21-.03,1.81-.04.42.14.86.09,1.28-.06.55.22,1.07.07,1.61-.03.12.02.27.05.41.08.46.16.91.23,1.37,0,.04-.06.09-.1.13.14.12.15.4-.03.61.06.05.12.1.13.11.02.24.04.43.06.63.07.75.23,1.51.19,2.26-.03.54.16,1.04.14,1.56,0,.23-.05.36-.25.47.06,0,.11,0,.15,0,.01.15.02.3.03.47-.05-.04-.1-.08-.16-.12-.01.01-.03.03-.04.04.1.1.19.2.29.29.18.17.18.33.02.45.26.44.13.91.15,1.37-.05,0-.1.01-.19.02.11.07.2.13.31.2-.37.33-.1.68-.07,1.03,0,.1,0,.22-.06.3-.06.09-.17.13-.01.22.01,0,0,.07-.01.1-.03.38-.07.76-.1,1.13,0,.07.01.13.03.25.08-.13.14-.22.2-.31.03.03.05.05.04.05-.25.37-.05.87-.35,1.23.04-.02.08-.05.09-.05.06.63.12,1.26.18,1.92-.07-.03-.11-.04-.13-.05.03.24.06.47.09.71,0,0-.02,0-.03,0-.01.1-.04.2-.04.3,0,.35-.09.72.02,1.03.08.23-.11.42.04.61,0,.01.01.03,0,.05-.03.36-.07.73-.1,1.09,0,.05.05.14.1.16.08.04.18.04.24.05.03-.27.06-.54.09-.81.03-.24.07-.47.07-.71,0-.05-.1-.11-.15-.17.19-.19.19-.47-.01-.79.08,0,.14.01.21.02-.09-.16-.08-.46-.03-.7.02-.09-.05-.2-.08-.31-.06-.23-.16-.46-.17-.69,0-.22.07-.44.13-.66.05-.19.22-.38-.03-.56,0,0,.08-.14.14-.24-.07-.13-.15-.3-.24-.48.06,0,.13,0,.22.02-.03-.12-.09-.23-.08-.34,0-.19.04-.38.08-.56.02-.1.12-.25.09-.29-.25-.24-.03-.49-.02-.73,0-.06.09-.13.14-.19-.18-.12-.29-2.11.04-2.45-.2-.21-.27-.45-.21-.73,0-.02.02-.04.01-.05-.23-.4.03-.81-.03-1.22-.09-.61-.1-1.22-.13-1.84-.02-.35,0-.7,0-1.05,0-.12-.06-.24-.07-.37-.04-.33-.07-.67-.11-1-.02-.23-.05-.46-.07-.69-.05-.69-.1-1.37-.16-2.06-.03-.43-.09-.86-.11-1.29-.02-.64-.01-1.28-.03-1.92,0-.26-.03-.52-.04-.79-.02-.54-.04-1.08-.05-1.62-.02-.72-.02-1.44-.04-2.16-.01-.41-.07-.83-.06-1.24.01-.26.16-.52.18-.78.05-.45.04-.9.07-1.35.07-1.08.13-2.17.21-3.25.04-.55.09-1.11.15-1.66.06-.51.08-1.02.05-1.54-.03-.49-.1-.99,0-1.48.01-.07.02-.15,0-.21-.16-.34-.12-.66,0-1.01.07-.22.03-.48.03-.72,0-.26-.03-.53-.04-.79,0-.11.03-.23.04-.34.02-.51.03-1.02.06-1.52.02-.38.08-.75.12-1.13.03-.25-.12-.35-.33-.37-.19-.02-.38-.01-.57-.03-.05,0-.11-.05-.15-.08-.12-.11-.14-.25-.02-.36.1-.1.46-.05.55.06.24-.32.5-.27.85-.15.42.14.88.14,1.32.2.05,0,.1,0,.14,0,.02.6.05,1.2.06,1.79.02.62.02,1.24.03,1.86,0,.31.03.63.04.94.01.32.02.63.05.95.02.26,0,.52-.03.77-.02.14.04.3.08.45,0,.02.09.03.17.05,0-.49.02-.96,0-1.42-.03-.43.07-.85.07-1.27,0-.46,0-.92,0-1.38,0-.45-.01-.9,0-1.35.02-.46.07-.92.11-1.41.19-.01.4-.02.61-.03.24-.01.47-.03.68-.2.06-.05.27-.02.35.05.41.31.81.65,1.18.95-.31.83-.09,1.65-.04,2.47.03.47.13.93.19,1.39,0,.06,0,.12-.02.22-.39-.35-.54-.75-.54-1.23,0-.15-.11-.31-.17-.46-.06-.17-.12-.34-.17-.51-.08-.28-.13-.56-.22-.84-.02-.07-.11-.18-.16-.18-.35.01-.66-.08-.97-.23-.08-.04-.22.05-.33.14.16.01.32.03.54.05-.09.07-.13.11-.21.17.15,0,.26.02.42.03.08.33.13.68.24,1.01.27.84.56,1.68.83,2.51.29.89.56,1.77.66,2.71.07.63.28,1.26.51,1.86.2.54.25,1.09.3,1.65.04.43.09.87.11,1.3.01.31-.02.63-.03.95,0,.28,0,.56-.01.83-.02.33-.06.67-.07,1,0,.23.04.45.03.68-.02.77-.06,1.55-.07,2.32,0,.54-.06,1.1.05,1.63.11.56.04,1.12.05,1.67.04,1.44.1,2.87.27,4.29.05.42.01.84.04,1.26.02.27.07.54.11.82,0,.04,0,.09-.02.12-.16.23-.05.44.01.67.05.18,0,.39.03.58.05.42.13.84.18,1.26.01.1-.04.21-.06.33.24.19.11.53.15.82.05.3.01.61.01.92h.23c0,.13.02.25.02.38-.08.03-.15.05-.29.1.21.04.35.07.45.09-.02-.31-.03-.62-.05-.95-.06-.02-.13-.05-.27-.11.15-.02.21-.02.21-.02.01-.15.04-.28.03-.4-.01-.17-.05-.34-.07-.5-.03-.21-.06-.42-.1-.63-.01-.07-.08-.12-.11-.19-.06-.14-.11-.29-.17-.44.03,0,.05-.02.08-.03.05.12.09.23.14.35.02,0,.03,0,.05,0-.01-.14-.02-.29-.03-.43-.02-.43.01-.88-.08-1.29-.1-.43.13-.83.03-1.25-.06-.24-.07-.49-.1-.74,0-.05,0-.1.02-.15.03-.09.11-.2.08-.26-.15-.33-.04-.65-.02-.98,0-.17-.08-.35-.1-.53-.02-.18,0-.36.01-.54.02-.27.06-.54.08-.8,0-.07-.07-.15-.07-.22-.01-.69.17-1.38-.01-2.09.02-.04.09-.11.08-.18-.04-.61-.09-1.21-.12-1.82-.01-.2.05-.4.04-.6,0-.1-.1-.19-.17-.29.21-.07.19-.21.15-.45-.08-.44-.06-.89-.05-1.34,0-.29.14-.59.09-.86-.05-.22-.06-.43-.06-.64,0-.22,0-.44-.01-.65,0-.6-.05-1.2,0-1.8.01-.19-.12-.42.08-.6.03-.03-.05-.16-.06-.25-.12-1.13-.23-2.27-.34-3.41-.14-1.53-.27-3.06-.41-4.58-.03-.35-.17-.68-.19-1.03-.02-.28.07-.57.12-.93.22.18.39.28.51.43.59.68,1.05,1.45,1.4,2.28.14.32.28.64.45.94.05.09.15.16.2.26,0,0,0,0,0-.01.29.18-.13.69.46.7-.25.08-.31.14-.18.34.16.26.24.57.37.85.07.15.15.28.24.45,0,0-.08.1-.07.11.09.09.2.17.3.25-.27.22-.06.53,0,.78.14.62.35,1.23.53,1.85.07.24.17.47.23.7.07.26.13.52.19.78,0,.03-.05.08-.07.12-.03.06-.05.12-.02.22.04-.03.08-.06.12-.09.38,1.1.53,2.08.35,2.24.2.12.19.13.09.27-.04.05-.03.15,0,.22.03.08.12.14.13.22.07.35.16.71.18,1.06.03.39.1.78.09,1.16-.02.67.13,1.31.26,1.95.04.21.13.42.16.63.03.18,0,.38.01.56,0,.13.04.26.06.41.08.01.15.02.26.04-.07.06-.11.09-.13.1.09.06.19.13.29.19l-.03.07c-.09-.02-.17-.04-.35-.08.09.18.12.39.22.44.21.09.19.26.22.4.06.29.11.58.1.88-.01.49.13.95.15,1.43,0,.07.08.14.1.22.04.18.07.37.11.55.03.13.12.25.12.37,0,.35.17.63.27.95.09.29.09.6.14.89.06.32.13.64.2.95,0,.03.03.06.11.07-.03-.12-.05-.24-.08-.36.03,0,.06,0,.09-.01.02.18.03.36.05.55.03.26-.03.6.11.78.18.24.13.5.22.73.03.07-.05.17-.07.24.04.09.12.21.15.33.06.29.09.58.14.87.11.69.2,1.39.33,2.07.05.25.22.47.28.72.07.29.21.56.14.89-.05.2.08.45.18.66-.02-.14-.03-.27-.05-.41.06.23.22.44.08.72-.06.12.05.33.09.5.02.1.03.2.08.28.04.06-.07.28.16.18.02.08.05.15.07.23.15.82.3,1.63.45,2.45.02.11.04.21.05.28-.01.13-.04.22-.02.29.02.08.12.15.14.23.11.42.22.85.3,1.27.12.61.22,1.23.34,1.84.03.15.12.28.17.42.03.1.05.21.04.31-.01.35.06.67.23,1,.11.21.1.47.15.7.1.43.2.86.31,1.3.1.43.23.85.31,1.29.24,1.37.66,2.68,1.17,3.96.17.42.47.79.69,1.19.16.29.29.59.43.9.17.37.34.75.49,1.13.08.18.12.38.19.58.06.09.21.22.21.34,0,.09-.19.18-.33.29Z"/>
      <path class="cls-1" d="M63.01,2.75c-.02.43-.1.84-.48,1.08-.22.13-.49.26-.73.25-.35-.01-.55.2-.78.38-.61.47-.8,1.13-.79,1.86,0,.29-.01.57-.05.86-.08.67,0,1.32.08,1.98.03.23-.04.47-.03.71,0,.22.05.44.09.66.15.7.33,1.4.66,2.05.02.04,0,.11-.02.16-.02.05-.07.08-.1.12-.07.09-.19.28-.2.27-.18-.1-.39-.19-.5-.35-.37-.53-.53-1.14-.57-1.77-.02-.35-.07-.7-.04-1.05.04-.45-.15-.87-.1-1.33.06-.45.01-.9.05-1.35.07-.77.19-1.54.27-2.31.02-.2-.03-.41-.03-.62,0-.09.03-.21.09-.27.26-.22.54-.42.82-.62.05-.04.1-.07.14-.12.2-.29.4-.58.61-.88.11.03.19.06.2.06.15-.19.27-.34.39-.5.02.01.03.03.05.04,0-.02,0-.04,0-.05-.32-.24-.31-.35.03-.56.14-.08.27-.18.41-.26.09-.05.23-.12.3-.09.32.15.5-.09.72-.22.26-.15.53-.29.79-.43.01.03.03.05.04.08-.12.07-.25.13-.37.2.6-.12,1.17-.05,1.77.04.3.05.61.09.92.11.05,0,.11-.06.18-.1.7.14,1.13.71,1.56,1.24.18.22.25.53.36.81.1.27.22.55.27.83.04.21-.01.44-.03.66-.02.23-.06.47-.06.7,0,.26.06.51.06.77,0,.23-.05.46-.06.7,0,.08.03.16.05.27-.03.18-.11.41-.11.63.03.98-.28,1.87-.65,2.75-.15.36-.33.72-.48,1.08-.03.06-.04.14-.02.21.12.39.23.78.38,1.15.08.2.28.35.38.55.13.28.26.57.32.87.05.22.16.35.32.46.26.18.52.38.79.55.09.06.21.06.32.09-.1.18-.18.34-.27.49-.02.04-.06.1-.1.11-.25.04-.42.16-.58.35-.21.24-.48.07-.73.08-.18.01-.36.07-.54.1-.08.01-.16,0-.27,0,0,0,0,.05-.02.1-.03,0-.06,0-.06-.01-.31-.35-.72-.61-.91-1.06-.06-.15-.09-.33-.19-.44-.28-.31-.17-.78-.5-1.08-.22-.2-.32-.5-.32-.82,0-.09-.04-.19-.08-.28-.24-.53.13-1.03.06-1.56-.03-.24.14-.52.23-.77.13-.38.28-.76.42-1.13.03-.08.04-.18.08-.26.22-.43.18-.89.15-1.35-.02-.22,0-.46.05-.67.08-.28,0-.51-.11-.75-.02-.05-.07-.14-.05-.16.2-.21.01-.35-.07-.52-.05-.11-.07-.23-.1-.34-.13-.41-.37-.83-.36-1.23,0-.32-.12-.48-.24-.71-.17-.33-.42-.44-.75-.48-.36-.04-.72-.1-1.08-.12-.15,0-.31.09-.47.12-.12.02-.24.03-.39.04Z"/>
      <path class="cls-1" d="M34.74,18.15c-.07,0-.14,0-.19,0-.01-.13-.02-.24-.04-.37.01,0,.08-.02.14-.04,0-.03,0-.05,0-.05-.08-.04-.16-.08-.24-.13.05-.07.11-.14.16-.22.04-.06.09-.13.1-.2.02-.15,0-.3.01-.45.06-.41.1-.84.23-1.23.11-.34.32-.65.52-.95.05-.08.2-.08.37-.15-.08.38-.14.65-.21.95.25-.14.49-.26.7-.41.05-.04.02-.2,0-.3-.01-.05-.09-.08-.15-.11-.14-.09-.36-.13-.42-.26-.06-.12,0-.33.06-.49.07-.19.03-.29-.14-.33.04-.2.12-.39.1-.57-.02-.18.06-.25.16-.36.12-.12.2-.27.33-.44.28.09.39-.21.48-.42.23-.54.65-.86,1.16-1.15.05.18.08.37.16.54.04.1.15.17.24.24,0,0,.08-.08.11-.1.05.02.12.05.22.09-.04-.18-.05-.28-.08-.37-.06-.18-.1-.4-.22-.52-.15-.16-.16-.27-.06-.44.06-.11.12-.22.2-.38-.24.04-.45.1-.66.1-.12,0-.3-.05-.35-.14-.08-.13-.15-.35-.09-.47.4-.79.81-1.56,1.26-2.32.11-.18.36-.28.56-.4.12-.07.25-.12.4-.19-.19-.1-.35-.19-.54-.29.3-.24.56-.43.89-.57.4-.17.81-.19,1.22-.27.24-.04.46-.2.71-.24.23-.04.48,0,.72.03.17.01.34.05.5.07.36.03.74.04.93.42.08.15.18.33.07.52-.02.03.01.11.04.13.16.15.31.3.48.42.28.19.33.46.35.84-.18-.05-.33-.1-.48-.12-.11-.02-.23,0-.34.02-.09.02-.18.11-.27.1-.39-.05-.75.04-1.1.2-.54.26-1.12.44-1.6.77-.42.29-.73.74-1.05,1.15-.32.41-.6.85-.68,1.39-.03.21-.13.42-.25.59-.22.32-.16.68-.21,1.02-.03.19-.16.36-.1.58.09.32.15.66.17.99,0,.12-.13.25-.2.38-.03.05-.09.1-.09.16-.04.52-.09,1.05-.11,1.57,0,.16.06.32.05.48,0,.08-.1.16-.11.25-.1.47-.45.82-.6,1.27,0,.02-.03.05-.05.06-.4.16-.79.38-1.2.46-.23.05-.47.02-.69.15-.08.04-.23-.06-.35-.07-.14-.02-.29-.03-.42,0-.13.02-.25.1-.3-.11-.02-.09-.15-.14-.24-.21,0-.02,0-.05.01-.07ZM42.79,6.33c-.24,0-.48-.06-.66.01-.5.21-.97.47-1.45.72-.21.11-.21.26-.05.42.15-.08.29-.18.44-.24.3-.11.62-.18.92-.3.3-.12.69-.13.79-.62ZM39.67,5.94c0,.05.02.1.03.16.14-.03.27-.06.41-.09.08-.02.16-.04.24-.04.51-.05,1.02-.1,1.4-.53-.78-.15-1.35.43-2.07.51Z"/>
      <path class="cls-1" d="M21.91,49.9s.04-.01.05-.02c-.02.49-.04.98-.06,1.47-.02.54-.05,1.09-.05,1.63,0,.31.07.62.06.93,0,.4-.05.8-.09,1.2-.06.53-.2,1.03-.16,1.58.05.63-.03,1.28-.05,1.92,0,.32.07.66,0,.96-.09.31-.1.61-.1.92,0,.31-.07.61-.08.92,0,.31.05.61.05.92,0,.72-.02,1.43-.18,2.14-.08.37-.04.76-.09,1.14-.03.21-.08.41.04.61.02.03-.02.11-.06.14-.19.22-.21.47-.14.74.05.18.1.37.15.58-.15.1-.1.29-.07.48.05.4.12.8.11,1.2-.02.44-.12.87-.19,1.31-.08-.06-.16-.11-.24-.17-.02.02-.04.04-.05.05.06.08.12.16.17.24.06.11.15.23.15.35,0,.2-.06.39-.09.59-.02.16-.04.32-.06.47-.04.52-.08,1.04-.11,1.57,0,.09.03.18.03.27,0,.2,0,.4-.09.59-.05.09-.03.22-.04.34-.01.08-.03.17-.04.25,0,.04-.04.08-.04.13-.02.66-.02,1.33-.05,1.99-.02.51-.09,1.01-.12,1.51-.03.47-.03.94-.07,1.42-.03.37-.1.75-.13,1.12-.03.38-.04.76-.07,1.14-.03.44-.1.87-.11,1.31,0,.87-.13,1.73-.01,2.61.06.44-.09.9-.13,1.35-.02.21.01.42,0,.63-.05.64-.04,1.29-.29,1.91-.13.33-.06.73-.14,1.09-.16.69-.35,1.37-.54,2.06-.06.22-.26.2-.43.15-.21-.05-.09-.19-.07-.31.16-.78.26-1.57.5-2.33.24-.74.35-1.49.42-2.25.06-.6.13-1.2.19-1.8.08-.77.01-1.54-.03-2.31-.01-.21.07-.43.1-.65.02-.19.01-.38.03-.57.03-.35-.05-.7.04-1.06.11-.44.11-.91.16-1.37.03-.28.07-.57.08-.85.01-.27.02-.54,0-.8-.05-.61-.08-1.21-.01-1.83.04-.38.23-.72.21-1.1-.02-.44-.05-.88-.07-1.32,0-.18.01-.37.03-.55.03-.32-.01-.66.11-.95.26-.65.04-1.3.1-1.94.08-.78,0-1.57,0-2.35,0-.12.02-.25.02-.37.05-1.77.09-3.55.16-5.32.02-.6.12-1.19.17-1.78.02-.21.1-.45.04-.64-.11-.34-.03-.69-.08-1.03-.09-.63-.01-1.28-.03-1.92-.01-.44.08-.89-.09-1.32-.05-.13.04-.3.05-.45.03-.47.06-.94.06-1.4.03-.13.1-.26.1-.39.03-.9.06-1.8.06-2.71,0-.35-.08-.7-.08-1.04,0-.45.08-.9.08-1.35,0-.66-.02-1.32-.05-1.98-.02-.58-.08-1.17-.09-1.75,0-.48.07-.95.06-1.43-.01-.48-.16-.96-.13-1.42.04-.46-.23-.93.05-1.38.03-.04-.02-.13-.03-.2-.01-.11-.01-.21-.02-.32,0-.04,0-.09,0-.13-.08-.25-.17-.49-.26-.75.12-.04.19-.07.26-.1v-.04c-.06,0-.11.02-.11.02-.12-.23-.25-.43-.33-.66-.07-.18-.13-.38-.12-.57.01-.7-.02-1.4-.18-2.09-.09-.36-.04-.76.16-1.1.05-.09.14-.17.23-.21.04-.02.14.03.19.07.03.02.02.08.03.13.15.59.14,1.2.19,1.81.05.54.13,1.07.21,1.61.06.46.15.92.2,1.38.04.38.05.76.09,1.13.03.26.1.52.14.78.03.2.04.41.06.61.09.84.19,1.68.27,2.53.05.6.06,1.2.12,1.79.05.55.16,1.1.22,1.66.03.3,0,.6,0,.9Z"/>
      <path class="cls-1" d="M8.38,90.62c-.04-.09-.09-.18-.13-.27-.02.02-.05.04-.07.05.08.19.16.38.23.58.07.23.09.45-.28.5-.04-.16-.09-.32-.11-.48-.07-.67-.12-1.34-.03-2.02.11-.78.18-1.57.29-2.36.03-.26.13-.51.19-.76.12-.47.24-.94.38-1.41.23-.75.47-1.49.7-2.23.05-.15.05-.32.1-.47.26-.76.52-1.51.79-2.26.17-.46.4-.91.52-1.38.3-1.17.56-2.36.84-3.54.21-.87.41-1.73.65-2.59.09-.32.28-.62.43-.94-.05,0-.09,0-.14,0,0-.02,0-.05.01-.05.18-.07.31-.15.23-.4-.02-.07.08-.18.13-.28.35-.65.34-1.36.41-2.06.03-.26.1-.52.17-.77.11-.38.23-.77.37-1.14.5-1.29.7-2.65.92-4.01.09-.55.32-1.07.47-1.6.04-.16,0-.35.04-.52.06-.26.14-.51.23-.76.07-.19.19-.36.24-.55.15-.51.27-1.03.41-1.54.08-.31.2-.62.23-.94.02-.25-.09-.51-.1-.77,0-.17.05-.35.07-.52,0-.06,0-.12-.02-.22,0,0,.05-.03.11-.07-.06-.08-.1-.14-.15-.21.03,0,.06,0,.09,0,0-.1-.03-.24.02-.28.24-.2.13-.47.15-.7.05-.59.06-1.18.1-1.77.02-.37.07-.74.1-1.11.06-.65.1-1.31.18-1.96.12-1.05.18-2.09.16-3.15,0-.5.09-1.01.1-1.51.01-.49-.02-.98-.03-1.48-.02-.62-.04-1.24-.06-1.86,0-.25.19-.35.37-.45.04-.02.19.07.2.12.03.13,0,.28,0,.42.03.73.07,1.46.1,2.2.01.26-.03.52.01.77.11.79.03,1.58-.01,2.37-.02.44-.13.87-.17,1.31-.05.6-.05,1.2-.09,1.79-.02.34-.09.67-.11,1,0,.08.07.17.11.25.02.04.08.1.07.13-.08.21,0,.42,0,.62-.01.53-.15,1.07-.21,1.6-.09.8-.13,1.6-.22,2.39-.07.64-.06,1.29-.3,1.9-.01.03-.03.06-.06.11.04.05.09.12.16.21-.09-.01-.14-.02-.21-.03-.25.94-.5,1.88-.75,2.83-.03,0-.05-.01-.08-.02.04.11.16.2,0,.34-.11.09-.11.31-.14.48-.06.37-.09.75-.15,1.12-.02.1-.11.19-.18.28-.06.07-.14.13-.17.24.05-.02.09-.04.19-.09-.04.27-.08.51-.11.75-.01.11-.03.21-.03.32,0,.39-.31.71-.24,1.14.03.19-.16.41-.23.62-.06.19-.08.4-.14.6-.08.26-.18.52-.27.78-.09.28-.16.57-.24.86-.04.13-.11.26-.14.4-.15.74-.26,1.48-.44,2.21-.09.36-.24.7-.26,1.07,0,.04-.07.08-.12.12-.14.13-.27.26-.31.47-.16.69-.36,1.38-.53,2.07-.12.51-.22,1.02-.33,1.53-.18.81-.38,1.61-.56,2.41-.01.06.04.14.06.22-.05.08-.15.19-.19.31-.2.56-.37,1.12-.58,1.67-.18.47-.4.92-.6,1.39-.03.07-.02.15-.03.23-.02.2.03.39-.18.57-.16.14-.17.46-.25.7-.2.62-.41,1.24-.6,1.87-.16.54-.29,1.1-.45,1.65-.08.3-.22.58-.27.88-.07.4-.07.81-.12,1.22-.03.21-.1.42-.13.63-.02.13-.02.27-.01.4,0,.26.03.51.04.77-.04.02-.07.04-.11.06Z"/>
      <path class="cls-1" d="M40.69,38.67c-.14.69-.29,1.3-.39,1.91-.06.35-.07.72-.08,1.07,0,.09.09.18.1.21-.08.4-.14.76-.21,1.12-.04.22-.11.44-.14.67-.04.27-.05.55-.08.83-.03.25-.1.5-.13.75-.03.19-.01.39-.04.59-.04.23-.11.46-.14.7-.06.45-.08.9-.14,1.35-.09.64-.2,1.27-.29,1.9-.04.26.06.53-.13.78-.04.06.08.21.08.32,0,.2,0,.42-.06.61-.09.25.02.39.21.56-.26,0-.31.1-.22.32.12.28.01.62-.19.74.07.06.14.13.24.21-.09.03-.15.05-.27.08.11.09.2.16.28.22v.07c-.24-.02-.47-.03-.71-.05,0-.03,0-.06-.01-.09.03-.04.06-.07.09-.11-.12-.09-.24-.19-.35-.28,0-.09.04-.22,0-.31-.15-.31-.02-.52.19-.74.07-.08.15-.21.13-.31-.11-.74.11-1.45.09-2.19,0-.28.1-.57.15-.85.08-.43.17-.85.25-1.28.01-.09-.04-.18-.02-.26.03-.14.08-.29.1-.43.04-.28.12-.57.09-.85-.05-.39.2-.7.19-1.09-.01-.38.1-.77.16-1.16.07-.43.15-.87.19-1.3.02-.17-.06-.35-.06-.52,0-.32,0-.64.03-.96.04-.37.12-.73.17-1.1.12-.83.21-1.66.34-2.49.05-.31.13-.63.26-.92.1-.23.32-.4.61-.37.31.03.43.29.57.52.2.33,0,.68.05,1.02.02.15-.02.31-.01.47.02.6.03,1.21.08,1.8.04.46.17.92.22,1.38.03.28-.04.56-.03.85,0,.26.03.52.06.78.05.38.11.76.16,1.14.06.46.13.93.17,1.39.03.35.03.71.05,1.06.04.53.11,1.07.15,1.6.02.39.04.77.26,1.12.02.03.03.11.01.12-.26.24-.03.28.18.35-.11.04-.18.07-.34.12.11.02.14.03.14.02.07.31-.2.6.02.93.09.13.08.35.06.52-.08.55.03,1.06.29,1.54.04.07.13.12.18.19.04.06.05.14.07.22-.02.01-.04.03-.07.04.06.04.12.09.17.12-.05.15-.1.27-.13.41-.04.18-.09.36-.07.54.02.19.04.34-.18.43-.03.01-.05.1-.04.14.07.24-.07.41-.21.56-.05.06-.19.1-.25.07-.08-.05-.11-.16.05-.19.01,0,.03-.22-.01-.24-.31-.19-.19-.52-.22-.77-.06-.41-.01-.83-.02-1.25,0-.08-.07-.16-.08-.25-.05-.4-.09-.79-.12-1.19-.07-.88-.11-1.76-.19-2.64-.04-.49-.14-.97-.19-1.46-.04-.38-.03-.77-.06-1.16-.03-.39-.08-.78-.12-1.17-.02-.27-.04-.54-.06-.81-.02-.31-.04-.62-.07-.93-.07-.77-.12-1.54-.24-2.3-.1-.68-.29-1.35-.43-2.02-.03-.12-.05-.23-.08-.43Z"/>
      <path class="cls-1" d="M22.69,18.72c.01-.29.02-.48.03-.66-.35.07-.72.12-1.09.21-.78.2-1.56.41-2.34.63-.32.09-.61.16-.97.09-.31-.06-.66.05-.99.09-.23.03-.47.08-.7.07-.21,0-.42-.05-.61-.13-.22-.09-.42-.18-.64-.04-.02.01-.07,0-.1-.02-.39-.16-.77-.32-1.22-.51h.41s0-.03,0-.05c-.15-.05-.31-.1-.46-.16,0-.02,0-.03,0-.05.12,0,.24,0,.37,0,.71.05,1.42.18,2.13.13.85-.05,1.69-.26,2.53-.39.04,0,.09-.03.13-.02.51.06.98-.06,1.42-.32.05-.03.1-.06.15-.07.55,0,1.01-.34,1.54-.45.32-.07.67.08.74.35-.09-.02-.17-.04-.25-.05,0,.01-.02.03-.02.04.09.07.19.14.3.22-.13.07-.24.14-.42.25.14.03.19.05.24.05.58,0,.72.22.51.76-.1.25-.15.52-.21.78-.1.43-.19.86-.27,1.3-.02.1,0,.22.05.31.18.37.4.71.65,1.03.29.36.43.77.43,1.24,0,.45.05.89.05,1.34,0,.64-.1,1.24-.41,1.82-.16.3-.19.68-.34.99-.3.66-.63,1.3-.96,1.95-.12.24-.28.46-.39.7-.1.21-.24.33-.45.37-.18-.22-.1-.38.02-.62.54-1.02,1.08-2.04,1.4-3.16.18-.6.32-1.21.51-1.81.11-.34.02-.65-.06-.96-.15-.59-.48-1.08-.91-1.54-.03.42-.06.85-.1,1.28.37.24.5.67.23.95.24-.05.21.06.18.22-.07.36-.12.73-.17,1.1-.03.22-.19.34-.38.24-.24-.12-.28,0-.31.21.19.1.39.2.57.29-.06.07,0,.36-.25.32-.18-.03-.35-.15-.57-.25-.04.33-.08.65-.13.97,0,.05-.02.11-.06.15-.13.15,0,.56-.43.4.27-1.6.57-3.21.82-4.82.25-1.63.42-3.27.79-4.77Z"/>
      <path class="cls-1" d="M44.4,45.1c-.08-.28-.17-.56-.25-.83-.03,0-.07.02-.1.03.09.39.18.77.26,1.16.08.42.15.84.22,1.26.03.19.08.39.11.58.05.44.09.87.14,1.31.02.18.08.35.1.52.08.63.15,1.26.21,1.9.05.53.09,1.06.12,1.59,0,.1-.05.2-.09.35.25.23,0,.58.07.9.02.09,0,.2-.01.29,0,.18-.08.23-.15.08-.01-.1-.03-.21-.04-.31,0-.04-.03-.08-.03-.13-.02-.44-.05-.88-.06-1.31,0-.07.04-.14.05-.18-.04-.09-.09-.17-.1-.25-.04-.33-.07-.66-.11-.99-.02-.14-.05-.28-.09-.41-.05-.17-.11-.34-.17-.52-.05-.16-.1-.32-.15-.48-.01-.05-.02-.13-.05-.14-.25-.1-.1-.33-.18-.49-.06-.13-.08-.29-.11-.44-.01-.06.03-.14.02-.2-.03-.36-.09-.72-.09-1.08,0-.92-.35-1.78-.5-2.67-.14-.84-.19-1.7-.27-2.56,0-.07,0-.18.04-.2.25-.14.1-.28.04-.45-.14-.39-.26-.78-.35-1.18-.13-.6-.23-1.2-.33-1.81-.04-.22-.05-.45-.04-.68,0-.11.07-.25.15-.33.07-.07.21-.13.31-.11.07.01.15.16.16.25.07.55.12,1.1.18,1.65.06.52.05,1.06.2,1.56.12.4.08.8.17,1.19.12.51.25,1.01.4,1.51.1.32.26.63.34.96.05.2,0,.43,0,.65,0,0-.02.01-.03.02Z"/>
      <path class="cls-1" d="M41.36,14.88c.26-.1.43.04.59.19.27.25.57.45.96.43.13,0,.26-.03.39-.05.27-.04.53-.09.8-.14.17-.03.26-.07.15-.29-.1-.22-.12-.44.11-.64.69-.62,1.08-1.43,1.36-2.29,0-.02-.03-.06-.03-.09.04-.2.03-.45.15-.57.14-.13.12-.22.09-.34-.06-.29-.14-.58-.18-.87-.08-.66-.14-1.32-.22-1.98-.02-.21-.11-.45.17-.55.17-.06.35.12.4.44.16.9.31,1.81.47,2.72.05.28,0,.53-.12.8-.14.33-.15.71-.26,1.06-.09.29-.26.56-.35.86-.19.63-.69,1.08-.95,1.66-.29.64-.79.84-1.42.9-.49.05-.95-.03-1.4-.22-.45-.19-.66-.46-.73-1.03Z"/>
      <path class="cls-1" d="M33.88,21.27s.11,0,.13.02c.29.34.6.66.83,1.03.12.19.1.47.14.7.02.14,0,.29.04.42.06.19.08.35-.01.53-.03.07.02.18.03.27,0,.03-.02.06-.02.09,0,.13,0,.26,0,.39,0,.22,0,.44-.01.66-.03.31-.09.63-.13.94,0,.02,0,.04,0,.05.27.3.16.7.23,1.04.14.72.38,1.38.68,2.05.24.53.52,1.03.84,1.51.16.23.27.52.13.86-.07-.02-.18-.02-.22-.07-.39-.59-.82-1.17-1.14-1.81-.23-.46-.35-1-.46-1.51-.19-.89-.34-1.8-.49-2.7-.15-.87-.25-1.75-.61-2.58-.13-.3.04-.58.19-.84.09-.15.22-.27.36-.44-.15-.19-.32-.41-.5-.63,0,0,0,0,0,0Z"/>
      <path class="cls-1" d="M17.75,92.25c-.03-.16-.05-.24-.05-.33,0-.14,0-.29,0-.43,0-.08-.05-.15-.09-.25-.01,0,.04-.02.1-.05-.12-.22-.24-.45.13-.65-.41-.09-.23-.37-.27-.57-.06-.24-.02-.53-.14-.74-.1-.18-.06-.27.03-.4.04-.06.09-.13.15-.21-.21-.09-.27-.21-.22-.43.05-.19,0-.41,0-.62,0-.42,0-.85,0-1.27,0-.09-.02-.19-.02-.28-.03-.54-.08-1.09-.07-1.63,0-.35.14-.7.17-1.05.03-.46,0-.92.02-1.37.02-.34.09-.68.15-1.01.02-.11.1-.2.16-.32.01.02.04.06.07.1.13.23.39.41.31.74-.07.3-.09.6-.13.91,0,.06-.04.12-.04.18-.04.9-.09,1.79-.1,2.69,0,.35.07.71.1,1.06,0,.13-.04.27-.08.39,0,.32,0,.64,0,.96,0,.26.02.53.02.79,0,.47,0,.94.01,1.42.01.47.06.93.07,1.4,0,.28-.02.57-.05.85,0,.05-.15.08-.23.12Z"/>
      <path class="cls-1" d="M40.99,47.35c.06-.01.13-.03.24-.06-.04.1-.07.18-.1.28.06,0,.1-.01.12-.01-.24,2.27-.15,4.55-.16,6.88-.12-.1-.19-.15-.26-.21-.01,0-.01-.03-.02-.07.05-.03.09-.06.14-.09-.03,0-.05,0-.08,0-.02-.15-.03-.29-.05-.44,0-.08-.02-.16-.02-.24,0-.42.02-.83,0-1.25-.01-.36-.07-.71-.09-1.07,0-.12.05-.24.06-.35.01-.17.01-.35.02-.53,0-.18,0-.36.02-.54,0-.07.07-.14.08-.16-.01-.23-.03-.43-.03-.64,0-.15.04-.3.05-.46.03-.34.05-.67.08-1.05Z"/>
      <path class="cls-1" d="M63.02,12.16c1.02-.09,1.82-.51,2.24-1.49.2.12.24.28.19.47-.29.97-1.22,1.37-2.08,1.29-.12-.01-.23-.1-.34-.16,0-.04,0-.08,0-.12Z"/>
      <path class="cls-1" d="M26.66,68.31c.02.11.08.21.06.3-.08.59-.18,1.19-.27,1.78,0,.03-.03.06-.05.09-.03,0-.05-.01-.08-.02-.03-.15-.11-.3-.09-.45.09-.93.13-1.86.44-2.75.1-.29.08-.63.12-.94.01-.1.06-.2.16-.27-.01.18-.03.36-.05.57.06-.05.1-.08.14-.11.02.01.04.03.06.04-.06.09-.15.17-.17.26-.03.16.02.34-.01.51-.05.32-.13.64-.2.95,0,.02-.06.02-.06.02Z"/>
      <path class="cls-1" d="M27.26,64.96c-.05.16-.09.32-.14.48.19.1.19.2-.07.37.06.03.11.05.24.12h-.43c.1-.36.19-.68.29-1.01.04.01.09.03.13.04Z"/>
      <path class="cls-1" d="M46.17,33.47c.07.09.14.17.21.26,0,.02-.02.05-.03.07-.12-.06-.24-.12-.37-.17-.21-.1-.43-.19-.62-.27.31-.15.56-.12.82.12,0,0,0,0,0,0Z"/>
      <path class="cls-1" d="M28.09,61.36c.09.24.04.45-.06.68-.07.15-.06.35-.08.52-.03,0-.06,0-.09,0-.01-.08-.04-.16-.03-.23.03-.22.06-.43.11-.64.03-.12.11-.22.16-.33,0,0,0,0,0,0Z"/>
      <path class="cls-1" d="M25.92,79.51c-.07-.06-.35.03-.14-.24.02-.02-.06-.11-.09-.18.17-.2.29-.12.35-.03-.05.18-.08.29-.12.44Z"/>
      <path class="cls-1" d="M1.76,92.06c-.31.46-.58.13-.84.09.26-.03.52-.06.84-.09Z"/>
      <path class="cls-1" d="M40.87,54.44c.09.06.24.11.27.2.03.09-.06.21-.1.32-.04,0-.07,0-.11,0-.05-.15-.09-.3-.14-.46.02-.02.05-.04.07-.06Z"/>
      <path class="cls-1" d="M47.46,33.66c-.34.11-.82.06-1.09-.13.39.05.76.09,1.09.13Z"/>
      <path class="cls-1" d="M41.13,55.43c-.25.14-.25-.07-.28-.19,0-.04.09-.15.14-.15.28.02.08.23.14.34Z"/>
      <path class="cls-1" d="M31.82,46.63c.06-.12.1-.18.15-.29.09.07.17.13.24.2.01.02-.05.14-.08.14-.09,0-.19-.03-.31-.05Z"/>
      <path class="cls-1" d="M27.13,64.83c.05-.18.09-.37.16-.54.02-.05.12-.08.23-.14-.13.26-.22.47-.32.67-.03,0-.05,0-.08,0Z"/>
      <path class="cls-1" d="M34.62,40.75s.11.04.16.06c.02,0,.04.04.07.07-.16.06-.31.12-.46.18,0-.01-.02-.02-.03-.04.08-.09.16-.17.26-.27Z"/>
      <path class="cls-1" d="M44.8,33.3c.09,0,.2-.17.24.08,0,.05.15.08.23.12,0,.02-.02.04-.03.07-.16-.06-.32-.13-.47-.19,0-.02.02-.05.03-.07Z"/>
      <path class="cls-1" d="M26.1,78.85c-.17,0-.3-.01-.43-.02,0-.02,0-.05,0-.07.13,0,.27-.23.43.09Z"/>
      <path class="cls-1" d="M65.04,40.78c-.01.21-.02.39-.04.57-.07.89-.16,1.77-.2,2.66-.04.95-.04,1.9-.04,2.85,0,.33-.05.67.05.97.1.31-.04.63.11.92-.2.12.11.33-.09.47-.04.03.01.2.02.31.02.2.06.4.07.61.01.13,0,.27,0,.4,0,.11.01.21.02.33,0,0-.05,0-.15,0,0,.19-.01.37,0,.56,0,.07.07.17.14.2.12.06.17.14.05.19-.22.09-.11.21-.06.32.02.06.06.12.1.19-.18.03-.18.03-.14.21,0,.02-.03.04-.04.06-.02.04-.05.12-.04.13.31.18.16.49.21.73.05.27.03.56.04.83.02.52.04,1.05.04,1.57,0,.4-.05.81-.03,1.2.03.41.14.82.19,1.23.02.14-.06.29-.07.44-.01.08-.01.17.01.25.24.63.07,1.29.12,1.93.06.92.13,1.84.17,2.76.02.43-.05.86-.03,1.29.02.48.08.95.13,1.42.07.64.15,1.28.22,1.92.08.74.17,1.47.24,2.21.04.39.03.78.06,1.16.03.47.08.95.1,1.42.01.25-.02.5-.04.75,0,.03,0,.06,0,.08.21.31.07.67.11,1,.05.34.08.69.11,1.04.03.4.05.8.08,1.19.01.18.05.35.07.53,0,.05.01.12-.01.15-.15.12-.08.25-.03.39.02.06-.06.16-.04.21.14.31-.12.68.14.98.03.03-.06.15-.06.23,0,.18.05.35.06.53.01.23,0,.46,0,.68.03.44.07.89.12,1.33,0,.06.07.11.1.16-.03.07-.09.14-.08.21.02.51.07,1.02.07,1.53,0,.18-.05.35.05.52.02.03-.05.13-.03.18.03.24.05.47.08.73,0,0,.06-.01.11-.02-.05.18-.1.34-.15.53-.07.02-.18.04-.34.08.28-.21-.06-.14-.05-.23.12-.2.13-.4.02-.6,0-.02.01-.05.02-.07.02-.05.08-.1.07-.13-.1-.23.03-.51-.18-.71-.04-.04-.07-.15-.05-.16.21-.18.05-.39.03-.57-.05-.48-.25-.97-.2-1.43.06-.46-.09-.88-.06-1.33.04-.48-.13-.97-.17-1.46-.03-.37-.2-.75-.03-1.13.03-.07-.06-.17-.07-.26-.04-.68-.1-1.35-.11-2.03-.02-1.18.02-2.35-.02-3.53-.03-1.01-.11-2.01-.19-3.02-.03-.41-.12-.81-.16-1.22-.05-.61-.06-1.22-.11-1.82-.04-.46-.11-.91-.17-1.37-.07-.54-.14-1.08-.19-1.62-.07-.77-.09-1.54-.16-2.31-.08-.9-.22-1.79-.3-2.69-.1-1.15-.18-2.3-.27-3.46-.05-.7-.07-1.41-.12-2.11-.04-.46,0-.92-.04-1.38-.04-.48-.01-.97-.02-1.46-.02-1.27-.07-2.54-.05-3.82,0-.82.1-1.64.17-2.46.06-.71.15-1.43.06-2.14-.05-.41.1-.74.38-1.02.1-.1.2-.12.29.02.05.08.12.16.16.21Z"/>
      <path class="cls-1" d="M68.48,72.84c.05.13.13.26.15.39.04.29.06.58.08.87,0,.08-.02.17-.04.27.04.3.1.63.13.96,0,.09-.06.19-.09.28-.19.47.11.93,0,1.4-.03.15.09.34.11.51-.07.31-.04.63-.05.95-.16-.89-.21-1.79-.26-2.7-.04-.9-.13-1.8-.2-2.75.03-.03.1-.11.17-.19,0,0,0,0,0,0Z"/>
      <path class="cls-1" d="M61.06,81.12l-.55-.2s0-.04,0-.06c.07,0,.14,0,.19-.01.02-.34.05-.67.07-1,.03,0,.05,0,.08,0-.1-.03-.2-.07-.31-.1.14-.15.27-.29.43-.45-.15-.25-.3-.54-.17-.91.24.14.36.46.34.69-.02.25,0,.51,0,.77,0,.06-.05.12-.09.21.12.17.11.63-.04.7.04.11.09.22.13.32-.02.02-.05.04-.07.05Z"/>
      <path class="cls-1" d="M58.57,87.11c.08-.43.16-.84.24-1.26,0-.02,0-.05,0-.07q-.1-.19.02-.29c-.02-.34-.04-.65-.06-.96.04-.01.08-.03.11-.04.11.12.22.24.33.36-.02.02-.03.04-.05.06-.07-.02-.13-.04-.25-.07.12.19.22.35.32.52-.07.03-.12.05-.2.08.38.3-.22.5-.04.78-.07.03-.12.05-.17.07.07.11.18.21.18.31,0,.09-.12.19-.2.29.06.05.13.12.26.23-.2,0-.31-.01-.48-.02Z"/>
      <path class="cls-1" d="M59.07,83.36c-.2.04-.28,0-.25-.24.03-.28-.02-.58-.04-.87,0-.1,0-.2,0-.3-.02-.14-.05-.28-.07-.41,0-.31,0-.6,0-.9,0-.07.06-.13.09-.19.08.05.23.09.23.15.01.24.03.49-.05.71-.11.32.12.59.08.88-.03.22-.04.38.14.53-.09.08-.16.14-.19.16.01.18.03.33.04.48h0Z"/>
      <path class="cls-1" d="M61.05,82.7s.05.08.12.2c-.25-.04-.43-.08-.61-.11.05-.09.1-.15.1-.21,0-.38.15-.76.05-1.15-.02-.07.09-.17.14-.26.06.06.13.12.17.2.16.24.09.47-.07.65.1.07.25.13.24.18-.01.15-.08.3-.15.51Z"/>
      <path class="cls-1" d="M58.87,77.97c.05.27.1.54.16.81.01.07.07.12.1.19-.2.06-.16.16.08.27-.31.05-.14.17-.06.28-.42-.08-.4-.44-.49-.72.36-.24-.01-.47-.05-.72.07-.04.15-.08.22-.12,0,0,.01,0,.01,0h.01Z"/>
      <path class="cls-1" d="M68.34,68.49c-.06.04-.13.09-.19.13.42-.46-.12-.91.05-1.39h.18s0-.04,0-.05c-.06-.02-.12-.04-.19-.06.13-.08.23-.15.37-.23-.02.46-.03.9-.07,1.33,0,.1-.1.19-.16.29h0Z"/>
      <path class="cls-1" d="M60.47,87.21v-1.42c.25.07.27.1.28.41,0,.08.03.16.06.27-.02,0-.1.04-.19.07.05.12.1.23.15.35-.14.05-.04.41-.3.33Z"/>
      <path class="cls-1" d="M56.22,68.45c-.07-.08-.13-.14-.17-.22-.06-.1-.07-.26-.15-.31-.23-.12-.12-.25-.01-.33.07-.06.21-.05.31-.07,0,.03.02.06.03.09-.05.06-.1.11-.16.17.26.1.26.13-.02.36.12-.01.19-.02.24-.02.06.13.12.26.22.46-.16-.01-.3-.02-.43-.03,0-.01,0-.03,0-.04.05-.02.11-.05.14-.06Z"/>
      <path class="cls-1" d="M68.33,68.49c.07.04.19.09.19.13.02.31,0,.62,0,.98-.15-.09-.27-.16-.42-.25.07-.05.1-.08.14-.1-.03-.09-.07-.17-.11-.28.11.03.18.05.25.07.01-.02.03-.03.04-.05-.06-.07-.12-.15-.18-.22.03-.09.06-.19.09-.3,0,0,0,0,0,0Z"/>
      <path class="cls-1" d="M58.45,75.59c-.02.1-.03.16-.05.27-.09-.12-.16-.2-.24-.3.07-.03.12-.05.17-.07-.07-.05-.14-.11-.25-.2.22-.03.37-.05.52-.07,0-.03.02-.07.04-.12.04.02.12.04.12.06,0,.14-.01.28-.02.42-.03,0-.05,0-.08,0,.04.05.07.11.11.16-.01.01-.02.03-.04.04-.08-.05-.16-.11-.28-.19Z"/>
      <path class="cls-1" d="M60.39,89.36c-.24.08-.36-.01-.44-.24.07-.04.14-.07.23-.13-.09-.06-.16-.11-.23-.16.12-.05.22-.1.33-.13.02,0,.1.08.1.12.01.18,0,.35,0,.53Z"/>
      <path class="cls-1" d="M60.9,87.38c-.16.25-.22.58-.64.47.1-.09.18-.17.26-.24-.03-.06-.06-.13-.09-.2.07-.01.14-.03.21-.03.07,0,.15,0,.26,0Z"/>
      <path class="cls-1" d="M58.61,79.77c.17,0,.32-.03.33-.02.06.2.09.4.15.66-.46-.08-.2-.47-.48-.64Z"/>
      <path class="cls-1" d="M58.95,77.55c-.22-.08-.39-.14-.6-.21.08-.03.12-.04.18-.06-.05-.11-.11-.21-.19-.36.17.08.3.32.46.02.02.03.03.05.05.08-.06.09-.12.18-.17.26.09.03.2.06.3.1,0,0-.02.1-.04.17Z"/>
      <path class="cls-1" d="M58.87,77.97h-.01s-.01,0-.01,0c-.14-.1-.28-.2-.42-.3.02-.03.04-.07.06-.1.15.04.3.07.44.13.05.02.09.11.1.17,0,.03-.1.06-.15.1Z"/>
      <path class="cls-1" d="M59.06,84.52c-.18-.04-.28-.16-.27-.35,0-.06.03-.14.08-.18.02-.02.12.02.16.05.05.05.09.13.09.19,0,.08-.03.17-.06.28Z"/>
      <path class="cls-1" d="M68.44,72.36h-.15c-.02-.29-.03-.53-.04-.78.13.25.39.47.19.78h0Z"/>
      <path class="cls-1" d="M68.63,71.69c-.13-.11-.28-.24-.45-.39.41-.13.48-.05.45.39Z"/>
      <path class="cls-1" d="M58.64,76.37c.08.05.18.11.3.19-.14.07-.26.16-.4.2-.07.02-.16-.07-.24-.11.02-.03.03-.07.05-.1.01.02.03.06.05.07.04.01.12.03.13.01.04-.07.06-.14.11-.25Z"/>
      <path class="cls-1" d="M60.65,88.04c-.09.1-.18.21-.32.37-.04-.16-.07-.29-.11-.47.19.04.33.07.43.09Z"/>
      <path class="cls-1" d="M68.55,70.39c-.12-.06-.24-.1-.35-.17-.03-.02-.05-.14-.04-.15.05-.03.15-.07.18-.05.1.09.18.2.26.31-.02.02-.04.04-.06.06Z"/>
      <path class="cls-1" d="M56.69,69.11c-.28.04-.36-.11-.43-.3.27-.09.32.1.43.3Z"/>
      <path class="cls-1" d="M68.91,79.71c-.18-.18,0-.43-.1-.63.03,0,.05-.01.08-.02.04.21.08.41.11.62-.03.01-.06.02-.09.03Z"/>
      <path class="cls-1" d="M68.44,72.36c.01.16.03.32.04.48,0,0,0,0,0,0-.06-.02-.17-.01-.19-.05-.03-.06-.03-.16,0-.23.02-.07.09-.13.14-.19,0,0,0,0,0,0Z"/>
      <path class="cls-1" d="M59.06,83.36c.02.12.04.23.08.41-.14-.04-.26-.08-.44-.13.15-.12.26-.2.37-.28,0,0,0,0,0,0Z"/>
      <path class="cls-1" d="M68.16,69.62c.1.03.22.04.31.08.05.02.06.11.04.2-.13-.06-.25-.12-.38-.18,0-.03.02-.07.02-.1Z"/>
      <path class="cls-1" d="M68.11,70.58c.33-.07.52.02.49.21-.15-.06-.3-.13-.49-.21Z"/>
      <path class="cls-1" d="M58.49,74.97c-.09-.02-.17-.03-.25-.04-.02-.12-.05-.25-.07-.37.03-.01.05-.02.08-.04.08.15.16.31.24.46,0,0,0,0,0,0Z"/>
      <path class="cls-1" d="M58.21,76.18c.23-.09.45.1.68.08-.23.01-.45.03-.68.04,0-.04,0-.08,0-.12Z"/>
    </g>
  </g>
</svg>