<?xml version="1.0" encoding="UTF-8"?>
<svg id="Layer_2" data-name="Layer 2" xmlns="http://www.w3.org/2000/svg" viewBox="0 0 68.11 39.07">
  <defs>
    <style>
      .cls-1 {
        fill: #000;
        stroke-width: 0px;
      }
    </style>
  </defs>
  <g id="illustrations">
    <g>
      <path class="cls-1" d="M26.7,39.04c-.32-.04-.65-.09-.97-.13-.26-.03-.51-.06-.77-.1-.18-.03-.36-.05-.53-.11-.43-.16-.86-.28-1.34-.21-.52.08-1.05.06-1.57.11-.33.03-.66.11-.99.14-.46.04-.94.14-1.38.05-.69-.13-1.37.05-2.05-.06-.35-.06-.71-.17-1.07.02-.06.03-.17-.03-.26-.05-.25-.07-.49-.17-.74-.23-.2-.05-.42-.05-.62-.09-.15-.02-.3-.07-.45-.07-.21,0-.43.06-.64.05-.48-.01-.97-.05-1.45-.07-.19,0-.38.01-.57,0-.27-.02-.54-.06-.82-.07-.12,0-.25.02-.38.03-.05,0-.11.01-.15,0-.2-.1-.41-.19-.64-.1-.02,0-.08,0-.09-.01-.08-.19-.28-.2-.42-.19-.36.01-.66-.22-1.02-.23-.22-.01-.42-.2-.64-.23-.35-.05-.53-.36-.83-.49-.69-.31-1.08-.95-1.42-1.55-.4-.71-.95-1.31-1.38-1.99-.24-.38-.62-.68-.92-1.02-.06-.07-.07-.18-.1-.26-.14-.32-.48-.37-.73-.55-.14-.1-.28-.19-.41-.29-.14.18-.39.15-.5-.06-.09-.18-.18-.33-.42-.36-.19-.02-.45-.48-.42-.68,0-.06.07-.16.12-.17.21-.04.25-.2.31-.35.14-.36.24-.73.25-1.13,0-.16.01-.32-.14-.43-.04-.03-.04-.1-.05-.17.21.16.34.05.41-.12.09-.25.21-.51.21-.76.01-.73-.05-1.46-.3-2.14-.18-.5-.26-.99-.09-1.47.12-.35.35-.67.56-.99.41-.61.84-1.2,1.27-1.79.15-.2.32-.39.33-.66,0-.01.01-.03.02-.04.35-.37.47-.84.53-1.26-.17-.24-.36-.41-.44-.63-.04-.11-.11-.32.09-.46.11-.08.15-.26.22-.4.02-.04.02-.1.05-.13.4-.34.5-.85.79-1.26.34-.47.58-1,.89-1.49.25-.39.54-.75.81-1.13.07-.1.07-.24.15-.34.8-.97,1.62-1.92,2.65-2.64.09-.07.2-.12.29-.18.38-.25.76-.5,1.15-.73.21-.12.46-.18.68-.3.22-.11.41-.29.63-.39.26-.13.55-.21.82-.32.44-.18.88-.39,1.32-.56.33-.12.67-.21,1.01-.28.18-.04.28-.1.37-.27.11-.22.27-.41.43-.6.12-.15.24-.29.39-.41.4-.3.8-.61,1.23-.87.14-.09.37-.03.55-.04-.21-.18-.04-.29.12-.38.26-.16.54-.3.81-.45.02-.01.06-.01.09,0,.16.03.3,0,.44-.1.12-.09.29-.15.44-.16.39-.03.75-.14,1.1-.33.12-.07.29-.04.44-.08.07-.02.13-.07.19-.06.08,0,.17.04.24.02.44-.13.87-.31,1.36-.2.05-.25.23-.29.46-.27.1,0,.2-.05.3-.07.09-.02.19-.07.26-.03.26.13.48.04.71-.07.09-.05.19-.1.29-.13.39-.08.79-.22,1.18-.21.39,0,.73-.11,1.1-.16.11-.02.23,0,.38,0-.07-.1-.11-.16-.16-.24.13-.02.24-.04.35-.06,0,.01,0,.03.01.04-.04.03-.09.06-.13.08,0,.02,0,.05.01.07.15-.03.29-.05.44-.08.01,0,.02,0,.04,0,.21,0,.41,0,.62,0,.11,0,.22.02.33,0,.16-.02.32-.07.48-.1.05-.01.1-.06.15-.05.36.06.71.06,1.06-.05.03,0,.07.04.11.06.14.07.28.17.41-.02.03-.04.11-.05.16-.05.22,0,.44.04.66.02.14-.01.28-.1.46-.17.03.03.07.11.13.15.05.03.14.05.19.03.45-.2.93-.19,1.41-.19.13,0,.25-.09.38-.14.14-.06.27-.12.41.04.05.05.2.04.3.02.28-.06.56-.13.84-.2.18-.04.37-.09.55-.11.18-.02.37,0,.63,0-.21.1-.36.18-.52.26.13.1.57.08.63-.04.03-.05-.01-.14-.03-.27.14-.03.3-.09.47-.12.24-.04.48-.06.72-.08.2-.02.42-.05.42.3.02-.01.05-.03.07-.04.01-.08.03-.17.04-.27.27-.03.55-.03.82-.08.31-.07.6-.21.91-.28.38-.09.77-.14,1.15-.2.07-.01.15.02.22.05.15.05.29.11.41-.06.03-.04.11-.04.17-.05.31-.04.61-.08.92-.11.09,0,.18,0,.28.02.01,0,.03.02.04.02.29-.02.58-.05.87-.07.21-.01.42-.03.63-.02.11,0,.22.06.34.09.13.03.26.11.38-.05.02-.03.12,0,.18.01.14.05.28.12.42.16.06.02.13-.02.19-.04.04,0,.08-.04.12-.03.3.06.61.12.91.17.07.01.15-.02.22-.03.05-.01.11-.05.15-.04.36.13.72,0,1.08.03.21.03.42.03.64.04.17,0,.34-.03.5.07.05.03.16-.05.25-.07.13-.03.26-.08.39-.08.49,0,.97.01,1.46.02.31,0,.63,0,.94,0,.21,0,.43,0,.63-.04.09-.01.17-.09.24-.16.25-.22.49-.45.76-.65.07-.06.21-.05.32-.03.14.02.28.08.41.13.1.04.2.12.25-.06.07.03.15.04.21.09.03.02.03.1.03.15.02.29.26.39.47.52.19.13.36.3.53.46.02.01.02.05.04.06.38.1.63.48,1.05.51.11,0,.21.11.32.15.41.15.83.29,1.25.42.25.08.42-.06.39-.31.11-.03.22-.17.35,0,.01.02.1,0,.15-.03.71-.39,1.43-.37,2.15-.02.43.21.85.46,1.15.85.22.29.51.54.54.95,0,.06.04.13.08.16.21.16.28.38.36.62.07.22.12.46.21.67.06.16.19.29.26.45.08.2.14.41.2.62.08.28.15.57.24.84.03.1.09.19.17.27.78.74,1.23,1.66,1.45,2.7.11.49.3.96.27,1.48-.03.48.02.96-.11,1.43-.07.26-.18.48-.42.62-.04.02-.06.06-.09.1-.3.39-.64.73-1.05,1-.09.06-.25.06-.36.03-.49-.11-.95-.32-1.37-.74-.02.19-.05.31-.04.43.01.3.11.63.04.91-.09.33-.01.61.03.91.04.26-.09.43-.22.62-.18.28-.46.24-.72.25-.21.01-.42.06-.63.06-.71.02-1.42-.01-2.1-.25-.2-.07-.32,0-.41.16-.15.27-.3.54-.42.82-.2.43-.36.88-.56,1.31-.19.41-.4.82-.59,1.23-.08.18-.14.38-.22.57-.14.33-.28.65-.42.97-.16.38-.32.76-.5,1.12-.11.23-.24.46-.38.69-.1.15-.19.34-.28.51-.1.19-.19.41-.34.54-.26.23-.58.39-.87.6-.27.2-.53.42-.8.62-.08.06-.2.07-.28.12-.13.08-.25.18-.39.25-.13.08-.28.14-.41.21-.16.09-.32.19-.48.29-.2.13-.42.24-.59.4-.2.18-.56.11-.65.45-.01.05-.14.08-.21.11-.5.22-.99.46-1.5.65-.34.13-.71.19-1.08.26-.3.06-.5.24-.6.53-.12.37-.23.77-.44,1.1-.2.32-.52.56-.79.84-.12.13-.22.29-.35.41-.31.29-.62.58-.94.86-.05.05-.14.06-.21.08-.24.05-.39.23-.53.42-.27-.08-.54-.09-.78.13h.53s0,.06,0,.09c-.19.03-.37.06-.56.1,0,.02-.01.06,0,.08.07.25.05.26-.2.22-.08-.01-.17.02-.26.03-.01-.02-.03-.05-.04-.06-.14.07-.27.14-.4.19-.13.05-.27.08-.4.17.11.02.23.05.34.07,0,.01.01.03.02.04-.14.05-.27.11-.39.16-.2.31-.49.21-.77.2.02-.03.04-.06.08-.11-.05,0-.11-.03-.12-.02-.03.06-.07.15-.05.18.18.29-.11.23-.2.24-.09.01-.12.05-.19.09-.17.11-.37.17-.57.25-.14.06-.28.11-.42.16-.29.11-.58.21-.86.32-.2.08-.4.22-.61.25-.25.04-.43.35-.73.22-.03-.01-.07.04-.11.06-.18.08-.37.14-.54.24-.11.06-.22.15-.29.25-.16.22-.25.25-.4.16-.19.04-.35.12-.44.08-.25-.12-.3,0-.34.23-.08-.03-.14-.06-.16-.07-.11.04-.18.07-.26.08-.27.04-.54.08-.81.12-.04,0-.07.07-.12.1-.08.05-.2.14-.25.12-.23-.12-.4.04-.58.1-.23.07-.43.21-.66.28-.2.07-.42.08-.63.12-.01,0-.03,0-.05,0-.3.19-.66.18-1,.27-.24.06-.48.12-.72.19-.19.06-.37.14-.56.19-.23.06-.47.1-.71.16-.08.02-.16.04-.24.07-.15.07-.29.13-.43-.02-.03-.03-.09-.05-.13-.04-.61.15-1.23.2-1.86.16-.36-.02-.72.01-1.08.02-.07,0-.13-.02-.2-.04.06,0,.13-.01.19-.02,0-.02,0-.05,0-.07-.16-.04-.32-.07-.48-.11,0,.02,0,.04-.01.06.1.05.2.09.31.14ZM39.28,22.77c-.26-.02-.42.18-.6.31-.15.11-.26.25-.41.36-.11.09-.24.15-.36.23.01.02.02.05.03.07.08-.02.18-.02.25-.07.2-.14.4-.3.59-.45.15-.12.29-.23.43-.36.03-.02.04-.07.06-.1.08-.04.15-.08.23-.12.12-.06.23-.13.22-.29-.27.04-.42.18-.45.42ZM47.75,22.32c0-.08.02-.16.03-.24-.02,0-.05-.01-.07-.02-.04.05-.08.1-.1.16-.02.06-.02.13-.03.2.06-.04.12-.08.18-.12-.09.13-.15.28-.26.37-.24.19-.52.34-.77.52-.08.05-.12.16-.19.25-.03,0-.1-.02-.24-.04.08.09.12.13.15.16-.29.23-.57.45-.85.67-.35.27-.69.54-1.04.8-.08.05-.2.19-.32.03-.02-.02-.1.01-.2.03.11.06.17.1.24.14-.24.22-.44.44-.68.61-.36.25-.74.46-1.12.69-.08.05-.17.1-.24.16-.15.13-.27.29-.43.4-.4.29-.81.57-1.21.86-.29.21-.57.44-.85.66-.34.26-.68.53-1.03.78-.14.1-.33.15-.49.22l-.07-.09c.05-.1.11-.19.17-.3-.02-.03-.05-.06-.08-.1.1-.05.19-.1.23-.12.03-.12.03-.21.08-.26.09-.09.2-.16.3-.22.05-.03.12-.02.18-.03,0,.06,0,.13,0,.19,0,.05-.02.14,0,.15.04.03.13.03.16,0,.08-.05.14-.13.22-.21-.11-.09-.19-.14-.26-.2.15-.24.46-.32.54-.64-.22.04-.43.09-.63.18-.32.13-.63.28-.94.41-.12.05-.24.1-.37.15-.05,0-.07.08-.11.11-.26.17-.51.37-.8.48-.68.27-1.36.52-2.06.73-.36.11-.63.41-1.06.4-.25,0-.5.12-.77.04-.06-.02-.19,0-.21.03-.11.24-.33.09-.49.16.18-.13.37-.23.57-.32.22-.1.43-.22.71-.11.14.06.36.16.49-.07-.07-.04-.13-.09-.2-.13,0-.03.01-.05.02-.08.15,0,.3.01.5.02-.1-.07-.16-.11-.24-.17.18-.05.34-.26.45.03.34-.09.66-.18.98-.26.16-.04.33-.08.49-.14.15-.07.37-.05.4-.31,0-.05.2-.13.25-.1.13.08.19,0,.28-.05.26-.16.52-.33.8-.46.34-.16.72-.25,1.04-.44.28-.17.61-.25.88-.47.23-.19.58-.25.87-.38.11-.05.21-.15.31-.23.14-.1.28-.21.42-.31.01.02.03.03.04.05-.02.06-.03.12-.05.19.18.06.24-.05.31-.16.04-.06.06-.14.11-.17.31-.18.64-.34.95-.53.14-.08.32-.18.39-.31.12-.22.35-.43.56-.43.11-.12.19-.23.3-.31.13-.1.29-.17.42-.27.34-.24.68-.49,1.02-.73.04-.03.12-.05.16-.03.03.01.04.09.06.15,0,.03,0,.06.02.11.12-.12.12-.12.07-.28,0-.03-.01-.07,0-.09.19-.23.35-.47.57-.66.25-.22.55-.39.83-.58.03-.02.03-.08.06-.12.16-.22.3-.46.5-.64.24-.22.53-.37.78-.57.16-.12.22-.38.49-.36.02,0,.05-.07.07-.11.04-.06.08-.13.13-.18.27-.26.6-.48.82-.78.19-.25.35-.52.56-.76.18-.2.28-.47.47-.67.14-.14.27-.25.31-.45.01-.05.09-.12.11-.11.25.09.26-.13.32-.25.1-.2.17-.42.25-.63.15-.41.53-.64.8-.95.14-.17.31-.32.43-.51.11-.16.18-.32.4-.37.06-.01.09-.15.15-.22.41-.45.84-.89,1.23-1.36.42-.5.81-1.02,1.19-1.55.17-.23.28-.5.43-.74.07-.11.16-.23.27-.27.29-.09.37-.35.46-.57.09-.24.16-.45.45-.5.04,0,.07-.07.11-.11.09-.11.18-.22.26-.34.08-.11.14-.23.21-.35.03-.04.03-.1.07-.14.2-.22.39-.43.6-.64.26-.25.52-.49.79-.74-.52-.44-.52-.35-.94-.07,0,0-.01,0-.02.01-.46.33-.92.66-1.37,1.01-.65.51-1.34.95-1.91,1.57-.67.72-1.38,1.4-2.07,2.11-.4.41-.76.87-1.16,1.28-.59.59-1.2,1.15-1.8,1.73-.12.12-.22.25-.35.36-.57.47-1.16.93-1.72,1.41-.27.23-.54.44-.85.63-.59.35-1.13.79-1.7,1.17-.41.27-.84.5-1.25.76-.4.25-.79.5-1.18.76-.07.04-.16.09-.18.16-.06.19-.19.22-.36.22.04.18-.22.41-.63.5.13-.16.24-.28.35-.4l-.03-.06c-.15.06-.33.09-.43.19-.06.06-.01.24-.01.41-.25.17-.56.36-.86.57-.27.19-.28.19-.52-.02-.02-.02-.05-.03-.12-.07,0,.09,0,.14.02.18.08.11.07.18-.04.27-.46.36-.91.73-1.38,1.07-.46.33-.94.64-1.41.96-.22.14-.48.21-.65.45-.08.11-.29.23-.44,0-.49.35-.99.65-1.58.79v.19c-.16-.1-.21-.1-.32.03-.18.22-.4.38-.67.47-.18.06-.36.02-.55.13-.22.13-.46.23-.68.37-.11.07-.24.12-.36.13-.03,0-.08-.17-.12-.26,0-.01-.01-.02-.02-.03-.15.06-.3.12-.14.3-.07.02-.15.03-.2.06-.12.08-.21.2-.33.25-.24.11-.49.18-.73.26-.07.03-.14.09-.21.08-.42-.03-.76.16-1.11.34-.42.21-.85.4-1.27.59-.33.15-.67.28-1.01.41-.34.13-.68.27-1.03.36-.26.07-.53.05-.76.23-.12.09-.28.17-.43.2-.4.1-.8.2-1.2.24-.45.04-.88.19-1.34.13-.05,0-.11.04-.17.05-.06.02-.13.04-.2.05-.18.02-.36-.06-.54.07-.05.04-.21.04-.24,0-.1-.15-.22-.08-.35-.08-.34.02-.69.03-1.03.03-.15,0-.32-.07-.44-.01-.4.18-.79.03-1.18.04-.22,0-.45-.03-.67-.07-.35-.07-.7-.15-1.03-.26-.42-.14-.72-.54-1.2-.59-.12-.01-.2-.29-.3-.45-.05-.08-.07-.19-.13-.25-.13-.11-.28-.2-.42-.3-.04-.03-.06-.07-.09-.11-.04-.06-.07-.12-.11-.18-.02-.03-.06-.04-.07-.07-.06-.15-.12-.29-.18-.44-.02-.04-.07-.1-.05-.12.12-.2-.05-.24-.22-.35.1-.05.18-.09.26-.13-.13-.12-.23-.21-.34-.31.09-.05.15-.08.19-.1-.08-.1-.19-.18-.17-.22.06-.17-.04-.21-.15-.28-.04-.02-.04-.13-.03-.19,0-.04.07-.07.1-.1-.1-.18-.3-.3-.24-.52-.09-.12-.17-.24-.27-.35-.33-.37-.36-.62-.13-1.01-.09-.06-.18-.43-.13-.52.02-.04.06-.07.1-.09.15-.06.41.12.41.29,0,.16-.02.34.02.49.05.2.13.39.23.57.16.29.47.37.75.49.06.03.16.14.14.18-.1.25-.21.5-.14.78.05.21.04.43.13.62.15.34.35.65.53.97.06.11.09.22-.11.28.08.11.13.24.23.3.08.06.21.05.33.08-.07.17.02.25.17.36.09.07.4.08.2.36.16.01.3.02.43.04.06.01.12.05.17.09.09.07.16.18.26.21.74.24,1.5.35,2.27.32,1.3-.04,2.61-.01,3.91-.17.79-.09,1.59-.11,2.36-.34.33-.09.67-.13.99-.24.51-.16,1.01-.37,1.52-.53.23-.08.42-.35.65-.21.15-.11.27-.21.39-.28.13-.07.28-.12.42-.17.35-.13.62-.45,1.04-.42.03,0,.06-.05.1-.08.07-.06.14-.11.2-.17.09-.1.23-.05.35-.12.68-.39,1.38-.74,2.07-1.1.56-.29,1.12-.58,1.67-.87,0-.24.09-.33.32-.39.16-.04.32-.11.44-.21.24-.21.53-.27.82-.35,0-.04.01-.09.02-.15h.39s-.02-.1-.03-.17c.14.07.29-.02.32-.16.01-.07.06-.14.11-.18.16-.11.32-.21.49-.31,0,.03,0,.06.01.09.09.02.2.08.26.04.21-.13.41-.29.62-.45-.08-.03-.15-.05-.24-.08.07-.04.1-.08.14-.09.51-.13.87-.5,1.29-.78.26-.17.55-.3.81-.47.2-.13.36-.33.55-.47.15-.11.32-.2.49-.25.12-.04.2-.05.14-.21-.02-.04.02-.14.07-.18.18-.13.39-.23.57-.36.31-.23.61-.48.92-.71.08-.06.17-.1.26-.16.17-.11.35-.21.52-.32,0-.02-.02-.04-.03-.05h-.2c.27-.15.53-.26.75-.42.14-.11.36-.12.43-.33.02-.05.08-.09.13-.12.12-.08.26-.15.38-.25.16-.14.27-.37.55-.31.04,0,.09-.06.14-.1.14-.14.27-.3.42-.42.24-.19.5-.36.73-.55.12-.1.2-.24.32-.36.2-.21.41-.42.63-.61.08-.07.19-.1.31-.16.05-.06.11-.16.19-.23.23-.2.46-.39.7-.59.06-.05.12-.09.18-.13.21-.16.42-.32.63-.47.28-.2.56-.39.87-.61.06-.06.13-.15.22-.22.22-.18.44-.34.66-.52.3-.25.6-.51.9-.77.23-.19.54-.27.71-.57.22-.37.5-.7.76-1.05.12-.17.17-.15.31.11.1-.05.21-.08.3-.15.21-.19.4-.4.62-.58.59-.49,1.18-.97,1.78-1.43.38-.29.78-.53,1.17-.81.08-.06.15-.19.14-.27-.02-.13-.13-.16-.28-.14-.3.04-.61.05-.91.07-.07,0-.16-.05-.21-.02-.75.37-1.49.75-2.24,1.12-.05.03-.11.03-.17.05,0,0,0-.02,0-.03.59-.32,1.19-.64,1.81-.97-.23-.2-.43-.38-.64-.55-.41-.32-.33-.6.11-.83.05-.02.12,0,.15-.04.07-.06.14-.14.19-.22.03-.05.04-.13.05-.2-.15-.05-.08-.13-.01-.22.09-.12.2-.2.22-.39.03-.26.1-.57.46-.63.02,0,.03-.03.08-.07-.14-.02-.25-.04-.36-.06-.11.38-.43.53-.8.52-.49-.02-.97-.13-1.45-.12-.43,0-.8-.1-1.18-.27-.65-.3-1.04-.81-1.18-1.48-.06-.3-.19-.27-.38-.27-.49,0-.97,0-1.46,0-.3,0-.59-.05-.89-.04-.3,0-.61.06-.91.07-.13,0-.27-.06-.4-.1-.12-.03-.25-.09-.35-.06-.51.13-1-.08-1.51-.05-.21.01-.42-.07-.63-.07-.69-.01-1.39-.01-2.08,0-.23,0-.46.08-.69.1-.76.06-1.52.11-2.28.16-.29.02-.59.02-.88.07-.41.06-.81.17-1.21.24-.51.09-1.02.17-1.54.24-.48.07-.96.12-1.44.17-.18.02-.35.05-.53.07-.24.02-.49,0-.73.04-.19.02-.37.11-.56.14-.15.03-.3,0-.46.02-.44.04-.87.1-1.31.15-.25.02-.5.01-.74.05-.32.05-.63.15-.95.19-.52.07-1.04.11-1.57.16-.55.06-1.1.14-1.64.2-.32.03-.63.03-.95.07-.23.03-.46.09-.68.14-.12.03-.24.07-.36.1-.15.04-.31.08-.47.11-.04.01-.09.03-.13.03-.31.05-.62.1-.94.15-.04,0-.09.02-.13.03-.58.11-1.15.22-1.73.34-.43.09-.86.19-1.29.28-.25.06-.5.09-.73.19-.45.18-.89.42-1.35.59-.29.11-.59.18-.84.36-.17.13-.35.27-.46.45-.08.13-.11.28-.27.34-.04.01-.08.09-.07.12.04.24-.03.4-.29.44.17.18.16.25-.04.38v.25c-.09-.03-.16-.05-.25-.07.03.07.04.11.07.17-.45.04-.55.45-.91.77-.23.07-.59.19-.96.3-.18.05-.34.04-.48-.1-.11-.11-.23-.2-.34-.29-.07.03-.14.06-.21.08-.42.09-.82.18-1.2.44-.42.3-.94.45-1.41.69-.42.21-.83.44-1.24.66-.08.04-.14.1-.24.17-.07.07-.15.19-.26.26-.52.31-1,.65-1.4,1.11-.5.58-.96,1.19-1.29,1.89-.19.39-.24.88-.67,1.13-.03.01-.03.07-.05.1-.18.35-.15.81-.58,1.02-.02.01-.03.05-.04.08-.16.33-.32.65-.49.98-.13.25-.12.44.06.64.12.14.24.27.36.4.21.22.24.39.12.68-.2.5-.47.96-.88,1.32-.03.02-.06.06-.06.09-.06.31-.29.53-.53.65-.23.12-.46.19-.63.42-.21.28-.49.5-.73.75-.1.1-.18.21-.27.3-.59.59-.9,1.27-.74,2.12.16.85.35,1.71.29,2.58-.05.67-.14,1.33-.23,1.99-.02.19.08.49.24.61.11.07.23.13.33.21.82.64,1.64,1.3,2.47,1.93.3.23.57.56,1.03.57-.05.03-.07.06-.13.09.1.03.19.05.27.09.41.23.82.47,1.23.7.25.14.5.32.77.36.66.11,1.33.16,2,.24.15.02.31.12.44.09.37-.08.71.16,1.09.06.19-.05.46.1.65.22.34.23.72.31,1.11.38.82.13,1.62-.11,2.42-.18.53-.05,1.07-.16,1.6-.15.52.02,1.06.08,1.54.26,1.03.41,2.07.8,3.17.95.34.05.69-.03,1.04-.07.07,0,.13-.08.19-.12.07-.05.14-.12.22-.16.64-.34,1.28-.69,1.94-1.01.43-.21.87-.38,1.32-.55.55-.21,1.14-.08,1.71-.1,1.1-.03,2.2-.02,3.3-.03.39,0,.77,0,1.08.3.05.04.19,0,.29-.02.16-.04.31-.12.47-.13.4-.03.81-.03,1.21-.04.22,0,.43-.05.62-.19.21-.15.45-.26.68-.38.11-.05.25-.06.33-.14.27-.27.52-.56.78-.84,0-.01.01-.03.02-.04.08-.11.15-.26.26-.33.69-.41,1.41-.74,2.23-.8.03,0,.07-.03.1-.05.11-.04.22-.1.34-.11.35-.02.7,0,1.05-.02.64-.04,1.28-.04,1.9-.16.63-.12,1.2-.41,1.77-.71,1.01-.52,2.03-1.02,3.05-1.53.16-.08.33-.16.18-.39-.01-.02,0-.08.02-.1.21-.29.38-.61.64-.84.27-.25.48-.52.68-.82.06-.09.14-.17.17-.27.16-.54.33-1.08.7-1.53.15-.19.3-.38.45-.58.46-.63.92-1.26,1.38-1.89.13-.18.3-.33.44-.51.19-.23.38-.47.57-.71.01-.02.03-.03.04-.05-.04-.05-.08-.09-.08-.1.19-.18.37-.34.52-.52.24-.3.45-.62.69-.92.33-.42.67-.82.99-1.23.13-.17.24-.36.37-.53.3-.4.63-.8.92-1.21.09-.13.17-.22.33-.23.02,0,.04-.03.08-.06-.07-.02-.12-.04-.17-.06.17-.19.32-.37.48-.54.04-.05.14-.07.15-.11.05-.25.26-.55.47-.69.08-.05.13-.15.19-.23-.02-.02-.03-.03-.05-.05.09-.03.17-.05.26-.08,0,.01,0,.03.01.04-.05.03-.09.07-.17.11.09.03.15.05.27.09-.16.07-.26.11-.36.16.07.02.13.03.19.05-.03.06-.05.13-.09.19-.04.06-.11.09-.13.15-.16.46-.62.72-.82,1.17-.11.24-.3.45-.47.66-.29.35-.58.72-.91,1.03-.2.19-.32.38-.3.66,0,.08-.02.16-.04.24,0,.01-.03.02-.08.03.02-.07.03-.12.04-.17-.05.16-.36.24-.16.48-.09-.01-.17-.02-.2-.03,0,.11.05.22.02.24-.19.13-.29.39-.56.4,0,0,0,.03,0,.06.09-.02.17-.04.24-.07-.07.15-.18.24-.27.35-.2.26-.38.53-.57.79-.28.38-.57.76-.86,1.13-.2.25-.41.49-.6.74-.31.4-.6.81-.9,1.21-.15.2-.26.43-.42.62-.37.44-.55.95-.67,1.48.18-.16.37-.32.54-.5.25-.26.47-.55.71-.81.3-.32.64-.62.93-.95.36-.41.69-.86,1.04-1.28.21-.25.49-.4.79-.53.03-.01.05-.05.09-.1h-.27c.11-.14.18-.26.28-.34.1-.09.23-.14.33-.19-.06-.02-.14-.04-.21-.06.15-.11.28-.18.38-.28.08-.09.11-.22.17-.32.1-.16.23-.3.32-.47.28-.53.54-1.06.81-1.6.08-.16.14-.33.22-.5.05-.09.12-.17.17-.26.05-.09.07-.19.13-.28.14-.21.3-.41.45-.61.15-.2.32-.4.46-.61.2-.32.37-.66.57-.97.15-.23.3-.46.52-.66.28-.25.4-.66.62-.98.32-.45.66-.89.99-1.33.1-.14.2-.28.29-.43.18-.3.36-.6.55-.89.17-.25.36-.48.53-.74.18-.27.34-.56.51-.84.08-.13.16-.25.25-.37.16-.21.3-.49.52-.6.27-.13.41-.24.34-.54-.39-.26-1.05-.42-1.65-.38v.14c-.21-.17-.43-.08-.55.19.07-.02.14-.05.25-.08-.02.06-.03.08-.04.1-.23.22-.11.52-.18.78-.03.1.04.22.06.33-.02,0-.04.02-.06.02.04.02.09.03.11.04-.1.24-.2.47-.3.69.09.05.17.08.25.12-.05.06-.1.08-.14.08-.07,0-.13,0-.2-.01.03.06.05.13.06.14-.11.15-.27.28-.3.43-.03.18-.07.31-.21.42-.05.04-.12.09-.13.15-.03.19-.15.3-.26.43-.04.05-.06.11-.09.17-.09.24-.19.46-.41.61h0c-.13,0-.25,0-.38,0,0,0,0,0,0,0,.12-.24.33-.4.41-.69.07-.27.33-.49.47-.75.23-.44.44-.89.51-1.39.05-.37.03-.76.22-1.11.04-.08.01-.24-.05-.31-.1-.14-.25-.26-.47-.46-.08.12-.13.24-.21.33-.22.27-.46.53-.68.79-.12.14-.25.27-.33.42-.19.35-.41.65-.76.86-.11.07-.27.12-.22.32,0,.03-.04.09-.08.12-.13.14-.28.26-.4.41-.15.18-.27.38-.41.56-.18.23-.44.42-.55.68-.12.3-.3.5-.55.68-.08.06-.16.13-.25.19.11,0,.21.02.31.03,0,.02.02.05.03.07-.24.2-.48.41-.76.65.12-.03.2-.04.27-.06,0,.08-.04.12-.08.15-.07.06-.16.12-.23.19-.3.32-.59.66-.91.97-.25.24-.55.43-.81.65-.06.05-.07.17-.1.25-.03.1-.06.2-.1.29-.01,0-.03,0-.04-.01v-.15c-.15.11-.3.2-.45.31.08.03.15.07.21.09-.14.15-.3.29-.42.46-.16.23-.27.49-.44.71-.21.25-.5.42-.66.74-.06.13-.29.17-.42.3-.16.17-.29.3-.28.55,0,.05-.08.11-.13.16-.1.11-.19.21-.29.31-.14.14-.16.43-.41.36-.01.1,0,.21-.04.27-.23.27-.48.53-.73.78-.08.08-.19.14-.29.22-.01.04-.02.12-.06.17-.16.15-.33.29-.5.42-.22.18-.39.43-.71.48ZM51.08,27.3c.09-.03.18-.09.27-.1.35-.01.58-.26.84-.43.36-.25.68-.57,1.04-.83.52-.37,1.07-.7,1.61-1.05.05-.03.12-.04.16-.08.3-.21.64-.38.87-.64.46-.52.97-1.01,1.16-1.72.08-.29.27-.54.39-.82.32-.78.62-1.58.95-2.36.21-.49.44-.97.67-1.44.42-.86.84-1.72,1.29-2.57.23-.44.53-.84.78-1.26.36-.62.72-1.24,1.06-1.87.25-.47.51-.93.7-1.43.16-.39.22-.82.33-1.23-.39.29-.68.91-.63,1.14-.08.13-.16.22-.2.33-.16.39-.42.72-.68,1.04-.12.14-.21.27-.39.36-.17.09-.29.3-.43.46-.06.07-.17.16-.15.22.06.24-.14.28-.26.38-.1.09-.22.17-.3.28-.26.35-.51.7-.76,1.07-.06.09-.07.22-.1.33-.05.1-.19.16-.26.26-.2.28-.38.59-.57.89-.13.2-.24.41-.37.61-.13.21-.44.32-.33.65,0,.02-.02.08-.05.1-.18.14-.37.27-.55.41-.11.09-.21.18-.32.28.02.02.03.04.05.07.06,0,.12,0,.25-.01-.13.17-.22.29-.32.41-.3.36-.61.71-.91,1.07-.09.11-.27.19-.15.33-.07.14-.11.27-.19.35-.23.24-.33.36-.41.6,0,.03-.02.06-.04.08-.11.12-.24.23-.35.35-.31.33-.61.66-.92.99-.08.08-.21.12-.27.21-.21.37-.51.64-.85.86.02.35-.29.5-.44.72-.16.23-.28.55-.61.6-.04.12-.11.22-.19.31-.04.04-.11.06-.15.1-.18.21-.34.43-.52.63-.06.06-.15.11-.23.15-.23.12-.48.21-.5.53,0,.17-.06.34-.06.51,0,.17.07.34.09.52.01.14.07.2.21.16.09-.03.19-.07.28-.08.39-.04.41-.04.46-.4ZM14.02,37.6c.09-.1.05-.19-.07-.26-.53-.32-1.06-.64-1.61-.97,0-.02,0-.09-.01-.12-.37-.22-.79-.27-.94-.63-.26-.12-.48-.23-.7-.32-.25-.09-.44-.3-.77-.23-.21.05-.46-.07-.69-.1-.19-.03-.39-.04-.58-.05-.17,0-.35,0-.52,0-.28,0-.57-.07-.83-.02-.21.04-.33-.01-.35-.16-.05-.42-.37-.59-.65-.78-.72-.48-1.47-.91-2.21-1.36-.2-.12-.39-.23-.62-.37.17.47.57.63.89.88-.23.13-.21.12-.04.31.31.36.59.73.88,1.1.04.05.07.12.12.17.38.44.74.9,1.14,1.33.39.42.86.74,1.44.83.21.03.36.09.39.23.18.07.3.12.42.18.04.02.07.06.11.07.65.07,1.3.15,1.95.19.43.03.86,0,1.29.01.48.01.95.04,1.43.06.17,0,.34,0,.56,0ZM30.67,34.57c-.55-.01-1.06-.03-1.57-.04-.55,0-1.11,0-1.66,0-.22,0-.46,0-.67.07-.34.1-.67.26-1,.39-.09.04-.17.1-.25.16-.07.05-.14.11-.22.15-.07.04-.16.03-.21.08-.28.29-.64.45-.95.68-.2.15-.4.27-.65.3-.13.01-.25.06-.43.11.28.25.49.46.72.66.03.03.1,0,.15.01.22.07.44.13.65.22.11.05.2.17.32.21.42.14.85.26,1.28.4.16.05.25,0,.36-.1.14-.13.29-.25.45-.35.39-.25.8-.47,1.17-.74.66-.48,1.29-1,1.93-1.51.23-.18.44-.39.58-.72ZM13.42,35.76s-.05.07-.08.11c.06.03.11.05.17.08.36.18.71.37,1.07.55.36.17.75.3,1.09.5.49.29,1.01.49,1.56.61.03,0,.1.04.09.06-.03.16.09.12.17.12.19,0,.38,0,.57.01.17,0,.33,0,.5,0v.05s-.06.05-.09.07c0,.02,0,.05,0,.07.36.03.72.08,1.08.08.26,0,.52-.08.79-.11.13-.02.31.04.37-.02.14-.14.26-.08.39-.06.14.02.29.07.43.06.18,0,.36-.1.54,0,.02.01.06,0,.09,0,.21-.09.41-.18.66-.29-.1-.06-.17-.12-.24-.15-.23-.11-.5-.18-.69-.34-.25-.21-.55-.28-.84-.34-.31-.06-.63-.06-.94-.1-.15-.02-.31-.07-.46-.11-.14-.04-.3-.05-.42-.13-.53-.32-1.04-.71-1.67-.8-.46-.07-.92-.1-1.38-.08-.4.02-.8.12-1.2.19-.35.06-.71-.15-1.08.04-.12.06-.32-.04-.48-.07ZM31.65,34.72c-.15.23-.24.41-.37.57-.17.22-.36.43-.56.62-.3.3-.59.63-.93.87-.48.33-1,.59-1.5.89-.3.18-.58.37-.9.58.07.02.11.03.14.03.15-.02.3-.11.43-.07.18.05.28-.05.41-.08.13-.03.28-.06.4-.03.53.14,1.02.07,1.54-.14.43-.18.81-.52,1.33-.45.02,0,.04-.03.06-.04.18-.05.37-.09.55-.14.14-.04.3-.06.43-.12.27-.13.52-.3.78-.43.2-.1.51-.05.55-.39,0-.02.04-.04.07-.06.16-.1.31-.2.47-.31.17-.12.34-.23.5-.36.28-.23.56-.46.84-.69.17-.14.34-.28.56-.46-.57.06-1.05.13-1.55.16-.5.03-.95.13-1.31.51-.1.11-.24.19-.36.27-.32.23-.64.46-.97.69-.07.05-.16.07-.23.1-.01-.02-.02-.04-.03-.05.49-.45.97-.9,1.44-1.34-.62-.05-1.23-.09-1.76-.13ZM65.09,7.77s-.04.04-.06.05c0,.05.01.1.03.15.13.52.29,1.03.39,1.55.07.36.17.74-.07,1.09-.05.07-.08.16-.11.25-.08.33-.17.65-.23.98-.01.06.06.16.12.2.1.07.22.1.33.15.35.16.48.48.62.81.11.26.31.27.51.06.22-.23.31-.51.29-.82-.05-.74-.1-1.48-.17-2.21-.02-.24-.07-.48-.18-.69-.14-.29-.37-.53-.51-.81-.21-.42-.64-.51-.96-.76ZM61.82,15.23s.03.05.04.07c.2-.03.42-.02.6-.11.15-.07.26-.25.38-.39.07-.08.11-.19.16-.29.1-.17.16-.41.31-.5.28-.17.41-.42.54-.69.17-.37.36-.73.53-1.1.07-.14.15-.28.19-.43.14-.61.24-1.24.53-1.8.01-.03,0-.07,0-.12-.39.15-.5.49-.71.82.12,0,.21.01.37.02-.12.05-.19.07-.25.1-.05.02-.13.04-.15.08-.08.15-.14.31-.21.47-.1.23-.18.48-.31.69-.28.48-.7.86-.95,1.38-.25.52-.61.99-.92,1.48-.06.09-.08.2-.12.3ZM35.59,36.62c.2-.08.36-.12.49-.21.34-.24.65-.52,1.06-.65.21-.07.41-.18.61-.28.17-.08.34-.17.51-.26.33-.18.65-.35.98-.53.01,0,.02-.02.03-.03.16-.14.31-.31.49-.42.25-.15.56-.21.8-.38.43-.29.83-.62,1.24-.93.06-.05.09-.12.18-.25-.51-.01-.94-.03-1.37-.04-.13,0-.16.08-.17.2,0,.07-.03.16-.08.21-.19.22-.4.43-.6.64-.07.07-.15.18-.23.19-.17.03-.31.05-.32.27,0,.02-.07.05-.11.07-.09.04-.18.07-.27.13-.28.18-.54.38-.82.54-.42.23-.85.44-1.27.67-.08.04-.14.14-.25.26-.28.03-.83.44-.9.8ZM42.41,33.69s0-.04,0-.06c.11-.02.23-.04.34-.07.43-.1.77-.35,1.12-.6.4-.28.84-.5,1.25-.78.28-.18.53-.41.79-.62-.02-.03-.03-.06-.05-.08-.05.01-.11,0-.15.03-.41.26-.8.58-1.32.6-.02,0-.04.01-.06.03-.31.18-.63.35-.94.53-.16.1-.32.2-.48.3-.18.11-.37.22-.55.32-.03.02-.08.03-.11.04-.19.07-.42.06-.51.29.03.02.06.04.05.03-.1.18-.19.35-.29.52-.14.23-.51-.02-.68.27.17.08.31.15.38.19.1-.1.16-.18.24-.23.17-.1.35-.18.52-.27.1-.06.2-.13.3-.19.1-.06.21-.1.37-.16-.1-.04-.15-.06-.2-.09ZM46.7,17.66c.07,0,.21.02.31-.03.18-.09.33-.22.48-.36.16-.14.27-.35.45-.44.34-.17.59-.44.86-.7.71-.69,1.46-1.35,2.18-2.02.16-.15.31-.33.46-.5-.01-.02-.03-.03-.04-.05-.33.27-.66.55-1,.81-.2.16-.42.28-.62.45-.51.42-1,.86-1.5,1.3-.18.16-.36.34-.54.51-.06.03-.14.06-.22.1-.45.26-.7.78-1.23.93-.02,0-.03.03-.05.05-.35.32-.69.65-1.05.96-.17.15-.37.27-.55.41,0,.02.02.04.03.06.08-.03.17-.05.24-.1.15-.1.3-.21.45-.31.32-.21.65-.41.96-.64.14-.11.24-.27.38-.43ZM39.91,32.9s-.03-.07-.05-.1c-.46.1-.93.2-1.39.31-.06.01-.14.07-.15.11,0,.23-.11.39-.28.54-.16.16-.26.38-.4.57-.09.11-.2.2-.31.3.01.02.02.05.03.07.07-.01.16,0,.21-.04.18-.12.34-.26.51-.39.37-.3.74-.6,1.12-.89.22-.17.46-.33.69-.49ZM61.34,16.13c.15,0,.26,0,.37,0,.11,0,.23.03.34.01.08-.01.23-.06.23-.1.01-.19.02-.4-.04-.57-.07-.17-.45-.14-.55.02-.11.19-.21.4-.34.64ZM54.61,1.78l-.07-.02c-.03.08-.07.15-.1.23-.06-.08-.18-.26-.25-.05-.06.16.03.38.07.57,0,.04.09.06.13.09.02-.04.05-.08.06-.13.03-.09.03-.26.09-.27.36-.12.04-.28.07-.41ZM16.53,38.03s.02-.04.02-.06c-.18-.21-.43-.19-.66-.24,0,.02-.01.04-.02.06.22.08.44.17.66.25ZM43.58,33.56c.14.03.22.06.28.05.07,0,.13-.06.19-.1-.06-.04-.12-.13-.17-.12-.09.01-.17.09-.3.16ZM40.64,34.87s-.02-.05-.02-.07c-.09.04-.18.08-.25.14-.01,0,.02.14.06.15.08.02.17,0,.25,0,0-.03,0-.06,0-.09-.08,0-.16-.01-.24-.02,0-.01,0-.02,0-.04.07-.03.14-.06.21-.08ZM43.2,19.88c.21.17.27.05.31-.07.02-.04-.03-.1-.04-.15-.09.07-.17.14-.27.22ZM44.69,24.45s.01.05.02.08c.17-.05.4.04.54-.24-.22.07-.39.12-.56.17ZM43.73,33.83c-.05-.21-.2-.16-.32-.13-.03,0-.04.1-.07.17.16-.02.27-.03.39-.05ZM32.18,37.65s.02.07.03.11c.11-.03.22-.06.33-.09-.01-.04-.02-.08-.03-.11-.11.03-.22.06-.34.1Z"/>
      <path class="cls-1" d="M31.35,24.6c1.09.33,2.15.15,3.24-.16-.04.06-.08.14-.13.16-.14.07-.28.13-.43.15-.3.05-.61.07-.92.13-.35.07-.69.07-1.04.03-.15-.02-.31,0-.45-.04-.15-.03-.29-.09-.43-.14.01-.07.02-.13.03-.2-.34.16-.51.04-.57-.37-.01-.08-.07-.15-.11-.22-.05.04-.1.09-.16.13-.17.12-.33.25-.51.34-.27.14-.56.25-.84.39-.26.14-.51.3-.78.44-.08.04-.17.04-.26.05-.03,0-.07-.01-.09,0-.34.28-.79.37-1.13.66-.01,0-.02.02-.04.03-.64.19-1.18.59-1.79.84-.07.03-.16.02-.24-.03.23-.13.46-.26.7-.39-.02-.03-.03-.06-.05-.09-.46.22-.91.45-1.38.68.2.1.38.05.56-.15.07.03.15.06.28.11-.26.14-.46.28-.68.35-.07.02-.2-.14-.34-.25-.22.11-.59-.19-.82.12-.11.02-.2,0-.27.05-.3.21-.63.31-1,.33-.02,0-.04,0-.04,0-.13.2-.37.13-.55.19-.21.07-.46.02-.7.01-.12,0-.24-.05-.37-.05-.37-.01-.68-.16-.96-.4-.16-.14-.33-.26-.51-.37-.17-.1-.27-.22-.24-.42-.18-.11-.36-.22-.28-.48,0-.03,0-.08-.03-.11-.16-.13-.14-.29-.06-.45-.08-.04-.15-.08-.24-.13.08-.08.14-.14.22-.21-.09-.07-.17-.14-.27-.21.05-.08.09-.15.14-.22-.06-.13-.19-.26,0-.41.04-.03-.04-.21-.07-.34,0-.08.05-.23,0-.29-.15-.18-.1-.31.05-.45.03-.03.04-.08.08-.13-.06,0-.11,0-.1,0,0-.09,0-.17-.01-.24,0-.05-.03-.11,0-.14.21-.36.41-.73.64-1.08.17-.26.43-.39.78-.48-.24.42-.29.83-.22,1.27-.02.21-.07.45-.07.68,0,.26.06.52.08.78.03.26.09.49.38.58.36.12.71.35,1.08.39.39.04.77.26,1.18.13.05-.02.12.03.18.06.03.01.06.05.1.05.44,0,.88.02,1.32.01.3,0,.61-.03.91-.08.13-.02.26-.1.42-.18.03.11.06.21.1.36.07-.01.18-.04.34-.07-.09-.08-.15-.13-.2-.18.06-.25.26-.23.47-.27.48-.09.95-.2,1.42-.32.38-.1.76-.19,1.11-.33.64-.26,1.27-.55,1.9-.84.36-.17.71-.35,1.05-.54.55-.32,1.08-.66,1.62-.98.19-.11.42-.18.63-.25.2-.07.4-.13.61-.18.1-.03.21-.02.32-.03.13-.27.37-.39.67-.36.02,0,.05.01.07,0,.27-.16.54-.32.81-.48.17-.1.35-.2.52-.3.03-.02.07-.02.1-.04.45-.33.92-.63,1.34-.99.73-.61,1.56-1.05,2.36-1.54.15-.09.26-.26.41-.36.35-.24.73-.44,1.08-.68.44-.29.86-.61,1.29-.91.17-.12.35-.2.52-.33.73-.54,1.44-1.1,2.18-1.62.42-.3.88-.54,1.31-.81.4-.25.79-.52,1.2-.75.2-.11.43-.17.64-.26.1-.04.18-.11.28-.16.18-.1.36-.2.54-.31.28-.16.55-.32.82-.48.18-.1.37-.2.56-.3.11-.06.2-.16.32-.2.2-.06.34-.22.58-.22.1,0,.21-.14.3-.22.39-.35.86-.55,1.34-.72.06-.02.11-.05.19-.08-.06-.04-.11-.07-.19-.12.1-.02.16-.04.23-.04.16,0,.28-.05.33-.22,0-.03.02-.07.04-.08.49-.19.88-.57,1.36-.78.52-.23,1.04-.46,1.56-.69.29-.13.51.06.83.16-.17.12-.29.21-.41.3-.5.39-1,.79-1.5,1.18-.07.05-.18.07-.27.08-.28,0-.3.02-.31.31,0,.02-.01.04-.02.08-.37-.04-.64.13-.85.42-.03.04-.1.07-.16.09-.21.09-.44.16-.64.26-.13.07-.22.21-.34.29-.79.5-1.59.99-2.37,1.5-.48.32-.95.66-1.42,1-.24.17-.48.33-.71.52-.36.29-.71.6-1.07.9-.15.12-.33.22-.49.33-.22.16-.23.18-.07.39-.05-.03-.11-.07-.21-.13-.1.11-.2.25-.33.36-.21.17-.43.34-.66.48-.23.14-.47.25-.7.39-.09.05-.17.13-.24.21-.09.11-.19.16-.33.21-.19.07-.35.23-.52.36-.5.4-1.01.79-1.51,1.19-.21.17-.4.35-.61.51-.11.09-.26.12-.38.2-.41.3-.81.62-1.22.91-.43.3-.89.57-1.33.86-.45.3-.93.57-1.35.91-.41.33-.86.58-1.33.81-.15.07-.28.18-.43.26-.5.27-.99.55-1.5.8-.64.32-1.29.62-1.94.91-.24.11-.51.16-.77.24-.06.02-.12.05-.17.07,0,.03.01.05.02.07ZM30.86,23.57c.2.03.35.1.49.07.21-.04.43-.12.62-.22.5-.24,1-.5,1.5-.75.22-.11.44-.2.65-.33.61-.37,1.18-.8,1.83-1.1.16-.08.37-.08.51-.18.21-.15.39-.32.63-.43.39-.19.74-.47,1.1-.71.12-.08.23-.19.35-.28.31-.21.63-.42.95-.62.37-.23.82-.34,1.07-.74.38-.07.49-.55.89-.59,0,0,.01-.03.02-.04.14-.14.28-.28.43-.4.21-.16.44-.3.66-.46.25-.18.48-.37.73-.55.07-.05.15-.1.23-.15.3-.18.61-.35.9-.54.36-.23.69-.49,1.05-.71.28-.17.58-.31.87-.47.06-.03.08-.12.13-.17.03-.04.08-.07.12-.09.07-.03.16-.03.22-.08.23-.16.43-.34.66-.5.48-.32.88-.75,1.4-1.03.35-.19.65-.47.97-.71.21-.16.4-.33.61-.49-.33.11-.65.22-.93.39-.27.16-.5.38-.77.59.02-.06.03-.1.04-.15-.08.06-.16.12-.24.17-.4.23-.81.44-1.21.67-.15.09-.29.21-.44.3-.23.14-.47.28-.7.41-.17.1-.28.33-.54.25-.02,0-.07.05-.1.08-.18.19-.35.41-.55.58-.43.35-.88.69-1.34,1.02-.48.34-.97.68-1.47.99-.31.19-.65.32-.95.51-.37.24-.71.52-1.07.76-.22.15-.46.27-.69.41-.28.17-.56.33-.81.54-.13.11-.25.23-.4.33-.2.13-.36.31-.54.47-.02.02-.06,0-.09.01-.12.03-.25.04-.37.09-.16.07-.3.19-.46.25-.53.21-1.02.53-1.59.64-.03,0-.05.06-.09.07-.23.1-.46.18-.68.28-.13.06-.25.14-.38.21-.04.02-.06.08-.09.09-.19.05-.38.07-.57.12-.13.03-.28.05-.38.13-.12.1-.2.26-.29.4-.03.06-.03.14-.03.16-.15.11-.3.2-.43.31-.22.19-.42.42-.65.61-.24.19-.5.35-.8.56ZM18.17,24.01c-.01.09-.03.18-.04.27,0,.04.02.11,0,.13-.13.11-.04.19,0,.3.13.29.25.58.37.88.11.28.18.59.34.83.34.5.9.59,1.45.69.19.04.38.09.61.14.01,0,.07-.07.14-.08.23-.04.47-.05.7-.1.36-.08.73-.14,1.07-.27.38-.15.74-.36,1.11-.54.63-.3,1.26-.6,1.92-.92-.13,0-.26,0-.39,0-.36.02-.73.09-1.09.05-.24-.03-.43-.07-.63.09-.02.02-.07.01-.11.02-.54.03-1.08.06-1.62.09-.78.04-1.56-.03-2.29-.31-.63-.24-1.21-.57-1.54-1.26Z"/>
      <path class="cls-1" d="M26.5,18.94s-.06.11-.11.13c-.83.34-1.57.86-2.36,1.27-.26.14-.49.34-.72.52-.11.09-.04.17.05.21.33.12.65.24.98.32.17.04.35.02.52.04.26.03.5.02.75-.11.24-.12.53-.12.79-.21.4-.14.79-.3,1.19-.45.04-.02.08-.05.13-.05.5-.05.92-.31,1.37-.51.19-.09.36-.23.56-.31.14-.06.3-.05.45-.09.11-.03.23-.08.32-.15.37-.33.74-.65,1.19-.86.3-.14.56-.37.82-.57.31-.23.6-.49.92-.7.41-.27.76-.63,1.22-.82.14-.06.25-.19.39-.3-.02-.03-.04-.06-.08-.11.27-.15.55-.29.8-.45.21-.14.41-.3.61-.46.2-.16.37-.36.58-.49.39-.23.8-.42,1.2-.63.08-.04.12-.14.19-.2.17-.12.36-.22.54-.34.53-.34,1.06-.68,1.59-1.02.03-.02.05-.05.08-.05.47-.03.68-.43,1-.68.45-.35.91-.69,1.47-.87.28-.09.55-.19.82-.32.13-.06.24-.18.36-.26.32-.23.66-.32,1.03-.13.04.02.09.03.12.01.36-.14.71-.29,1.07-.44.37-.15.74-.3,1.12-.45.03-.01.06-.02.08-.03.59-.41,1.32-.47,1.94-.77.52-.26,1.09-.1,1.62-.25.2-.05.41-.07.62-.1,0,.02,0,.05.01.07-.25.04-.5.09-.79.14.05.03.08.04.11.06v.05c-.2.03-.42.07-.63.1-.02,0-.04.01-.07.02-.77.3-1.54.6-2.32.88-.28.1-.58.15-.85.25-.39.15-.77.32-1.15.49-.04.02-.08.05-.12.06-.51.11-.93.4-1.36.67-.47.29-.96.54-1.41.84-.87.58-1.77,1.1-2.56,1.79-.69.6-1.37,1.21-2.09,1.78-.52.42-1.08.79-1.63,1.18-.78.55-1.57,1.09-2.36,1.62-.31.21-.64.4-.95.62-.55.37-1.1.76-1.65,1.13-.43.28-.87.54-1.31.81-.47.28-.93.57-1.4.84-.46.26-.94.51-1.4.76-.02-.02-.03-.05-.05-.07.19-.14.38-.28.57-.41.25-.18.51-.36.77-.54.4-.27.8-.53,1.2-.8.2-.13.38-.29.58-.42.4-.26.81-.51,1.2-.78.38-.26.74-.54,1.11-.81.2-.15.4-.31.61-.44.12-.08.25-.12.38-.18-.05-.05-.09-.1-.14-.15.29.12.41-.12.57-.24.6-.45,1.2-.91,1.8-1.37.41-.31.83-.62,1.23-.95.49-.4.96-.81,1.44-1.22-.01-.02-.03-.04-.04-.07-.18.08-.38.15-.55.26-.42.27-.84.55-1.25.84-.53.37-1.06.76-1.59,1.14-.54.38-1.08.75-1.61,1.15-.34.25-.65.55-.98.82-.23.19-.46.37-.75.49-.3.13-.56.35-.83.54-.45.31-.9.64-1.35.95-.4.27-.78.57-1.21.78-.37.18-.75.38-1.2.33-.14-.01-.3.11-.45.14-.66.15-1.32.36-2,.42-.47.04-.96.08-1.46-.08-.35-.11-.65-.24-.88-.51-.06-.07-.1-.2-.08-.3.06-.33.27-.55.54-.73.36-.23.7-.48,1.06-.71.13-.08.29-.17.44-.17.31,0,.52-.22.73-.36.16-.1.31-.28.48-.39.11-.07.24-.1.35-.18.2-.15.37-.35.58-.49.26-.17.54-.3.82-.45.56-.29,1.12-.57,1.67-.85.09-.05.21-.06.29-.12.59-.48,1.31-.74,1.96-1.12.25-.15.53-.25.8-.34.27-.09.5-.22.66-.47.03-.04.1-.06.15-.08.34-.14.69-.27,1.03-.44.12-.06.19-.21.28-.32.04-.04.08-.1.13-.1.34-.03.59-.22.85-.42.07-.05.14-.09.22-.12.56-.29,1.11-.59,1.67-.88.03-.02.05-.05.09-.1-.09-.06-.18-.11-.31-.2.33-.02.67.19.89-.19-.05-.03-.11-.06-.22-.11.19,0,.33,0,.47,0,.19,0,.33-.04.48-.18.26-.23.58-.42.89-.59.34-.18.7-.35,1.07-.45.47-.13.9-.36,1.36-.5.1-.03.18-.14.25-.24.01,0,.03-.01.04,0,.44.23.83.03,1.22-.15.39-.18.78-.4,1.2-.48.53-.11.95-.41,1.42-.63.39-.18.81-.31,1.22-.45.57-.2,1.15-.41,1.73-.58.33-.1.69-.13,1.05-.2,0,0-.01-.04-.03-.12.18-.02.36-.05.54-.04.18,0,.31-.04.41-.19.07-.12.17-.17.34-.04-.18.12-.34.28-.53.36-.52.21-1.06.38-1.59.56-.42.14-.85.26-1.26.42-.93.37-1.89.7-2.78,1.17-.87.45-1.83.63-2.72,1-.68.29-1.36.58-2.03.88-.65.3-1.29.6-1.92.94-.61.32-1.2.68-1.79,1.04-.74.45-1.47.93-2.21,1.38-.38.23-.8.39-1.16.64-.78.54-1.62.96-2.48,1.36-.41.19-.79.45-1.2.65-.91.44-1.83.86-2.74,1.29-.19.09-.36.24-.55.35-.08.05-.16.08-.24.12,0-.1-.01-.2-.02-.33-.09.02-.21.02-.3.06-.06.03-.08.13-.12.19.07.03.13.06.2.07.08.01.16,0,.25,0ZM28.95,20.69c.26-.23.51-.45.76-.67-.02-.03-.04-.05-.06-.08-.18.1-.35.23-.54.3-.24.08-.28.21-.17.45ZM29.12,17.12s.03.05.04.08c.38-.2.75-.4,1.13-.59-.01-.02-.02-.04-.03-.06-.38.19-.76.38-1.14.58ZM27.61,18c-.05-.12-.11-.18-.23-.06-.03.02-.06.07-.08.06-.25-.08-.27.18-.41.25,0,.02.02.03.03.05.22-.1.45-.19.7-.31ZM30.43,16.48s.02.04.03.07c.3-.17.6-.34.89-.51-.01-.03-.03-.05-.04-.08-.3.17-.59.35-.89.52ZM29.03,17.12c-.22.11-.44.22-.7.34.28.03.67-.17.7-.34Z"/>
      <path class="cls-1" d="M22.18,10.47c-.06.07-.1.17-.18.2-.22.09-.45.13-.67.22-.11.05-.2.15-.35.27.31-.07.54-.19.78-.22,0,.02,0,.04,0,.06-.24.09-.48.18-.72.27-.14-.22-.72-.13-.99.15-.1-.04-.19-.09-.24-.11-.04.07-.06.12-.1.15-.11.08-.23.16-.34.24-.13.09-.26.19-.4.26-.12.06-.27.08-.4.14-.38.18-.76.37-1.14.57-.07.04-.15.12-.17.19-.06.23-.19.33-.42.32-.17,0-.28.08-.41.2-.28.27-.6.5-.89.76-.21.19-.5.29-.6.59-.02.06-.02.13-.03.22-.39.03-.43.42-.64.61.04.07.1.13.09.17-.06.31-.13.62-.37.86-.25.24-.47.51-.72.74-.72.66-1.47,1.3-2.18,1.97-.15.14-.33.29-.36.54,0,.07-.13.14-.22.17-.12.04-.19.09-.19.24,0,.08-.07.15-.13.18-.11.02-.22.05-.33.07,0,.02,0,.03,0,.05.1.01.2.02.36.04-.19.16-.32.28-.51.16-.03.13-.06.23-.1.36.05.03.1.06.21.12-.13.11-.24.21-.34.3.05.02.11.04.17.08.01,0,0,.09-.04.12-.07.05-.15.09-.29.17.11.05.17.08.21.1-.11.17-.22.3-.29.44-.04.08-.02.18-.03.27.08-.03.16-.06.27-.09,0,.02.02.09,0,.11-.16.17-.2.36-.13.58,0,.03.01.08,0,.09-.21.16-.13.41-.19.61-.02.08-.02.18-.01.27.04.26.03.28-.15.34.05.16.08.32.14.47.06.15.15.29.22.44.25.53.65.88,1.23,1.01.76.17,1.18.68,1.38,1.41.11.4.22.81.33,1.22.21.76.67,1.31,1.37,1.66.51.26,1.04.49,1.57.73.06.03.15,0,.22,0,.03,0,.08,0,.1.02.28.28.67.19,1,.3.31.11.63.18.95.27.05.01.11.04.15.02.43-.18.83.07,1.25.06.69-.02,1.38-.01,2.08-.02.37,0,.73-.03,1.1-.05.18,0,.36,0,.56,0,.01-.02.04-.05.05-.08.11-.24.26-.29.48-.16.17.1.3.12.5.02.22-.11.48-.06.73,0,.1.03.22-.02.33-.05.04,0,.08-.06.12-.07.09-.01.19-.01.29-.01,0,.09-.01.18-.02.3.18-.05.27-.24.43-.33.07.1.14.21.23.36.01-.19.02-.32.02-.44.16-.12.37.19.49-.11.17.16.34.23.6.06-.2-.04-.33-.06-.46-.08,0-.01,0-.03,0-.04.15-.04.38-.16.45-.1.17.16.33.21.54.15.01,0,.04.06.07.11.04-.08.07-.15.11-.23-.09-.01-.16-.02-.24-.03,0-.02,0-.04,0-.06.18-.02.36-.05.56-.07,0,0,0-.07-.01-.16.17.09.33.17.48.25.02-.03.04-.07.05-.1-.08-.04-.15-.08-.24-.13,0,0,0-.02,0-.02.28-.06.53-.18.77-.34.13-.09.35-.02.51-.08.27-.1.53-.25.8-.38.28-.14.33-.11.38.17.1-.05.18-.1.29-.17-.08-.05-.12-.08-.21-.14.21-.12.4-.23.59-.33.41.15.48-.32.77-.4q.05.07-.12.36c.12-.05.23-.07.29-.13.25-.23.49-.47.75-.71.18.07.71-.19.92-.47-.07-.04-.15-.09-.22-.13.49-.05.89-.31,1.31-.51.22-.1.47-.15.7-.23.11-.04.18-.1.24-.23.07-.14.26-.23.4-.33.14-.1.29-.18.44-.26.02-.01.03-.04.05-.04.47-.02.74-.4,1.09-.63.29-.19.52-.45.79-.67.27-.22.55-.41.82-.62.2-.17.38-.38.59-.53.3-.21.63-.37.94-.57.12-.08.23-.17.34-.27.15-.13.3-.27.45-.41.07-.07.1-.2.25-.12.01,0,.08-.12.13-.18.08-.09.16-.17.25-.25.07-.06.15-.12.23-.19-.04-.05-.08-.08-.13-.14.07,0,.11,0,.14.01.13.06.24.08.26-.12,0-.04.1-.12.14-.11.42.09.54-.29.78-.47.03-.03.05-.08.08-.1.17-.15.34-.3.51-.44.35-.3.69-.61,1.04-.9.05-.04.16-.03.26-.04-.03-.03-.05-.06-.08-.1.1-.06.2-.13.31-.18.15-.06.26-.02.35.12.09.14-.02.2-.1.28-.16.17-.3.36-.47.52-.43.4-.87.79-1.3,1.19-.3.28-.6.57-.9.86-.02.02-.04.06-.06.06-.37.1-.54.43-.81.64-.26.21-.54.38-.81.58-.29.22-.58.45-.86.68-.02.02-.05.05-.07.05-.38.12-.64.43-.98.6-.18.09-.32.27-.48.41-.13.11-.24.28-.4.17-.07.08-.12.15-.18.2-.24.21-.48.43-.72.64-.04.03-.08.06-.13.08-.09.03-.19.04-.26.09-.18.14-.39.19-.6.25-.07.02-.15.08-.17.14-.12.35-.45.31-.71.39-.02,0-.05,0-.06.01-.49.45-1.09.7-1.7.95-.16.07-.3.2-.45.3-.08.06-.15.15-.24.2-.72.41-1.44.81-2.17,1.21-.19.1-.41.15-.62.23-.28.12-.55.26-.83.38-.22.09-.45.16-.67.23-.42.13-.84.27-1.27.37-.24.06-.48.14-.75.15-.33.02-.66.2-.99.31-.06.02-.13.02-.2.04-.14.03-.28.05-.42.08-.27.07-.56.05-.83.18-.2.09-.45.08-.68.12-.32.05-.64.12-.96.16-.23.03-.48.07-.71.02-.21-.05-.37.05-.54.1-.39.11-.78.19-1.19.16-.3-.02-.6.03-.89.05-.77.06-1.54.12-2.31.03-.61-.07-1.23-.11-1.83-.22-.33-.06-.64-.24-.96-.35-.12-.04-.25-.05-.37-.09-.41-.14-.83-.27-1.24-.44-.21-.08-.41-.2-.59-.34-.53-.42-1.06-.82-1.31-1.51-.17-.45-.29-.91-.41-1.37-.12-.48-.25-.96-.72-1.25-.29-.17-.58-.35-.87-.52-.15-.09-.34-.15-.34-.38,0-.02-.03-.05-.04-.05-.49-.1-.39-.65-.69-.9-.03-.02-.03-.09-.03-.13.02-.21.03-.43.08-.64.07-.26-.02-.67-.24-.84.23-.07.22-.26.25-.45.03-.17.13-.32.18-.48.03-.11.04-.22.05-.34,0-.1,0-.2,0-.3-.02,0-.05,0-.07,0,.17-.26.34-.52.52-.8-.03,0-.07-.02-.13-.04.11-.2.22-.4.33-.6.05-.1.06-.22.11-.31.12-.19.26-.37.4-.55.03-.04.07-.07.09-.12.1-.16.21-.3.44-.24.04,0,.08-.01.11-.01-.06-.1-.18-.24-.16-.26.14-.15.3-.28.46-.41,0-.05-.02-.15.03-.2.14-.14.3-.27.46-.39.12-.09.27-.14.43-.23-.07-.04-.11-.07-.16-.1.02,0,.03-.02.05-.03.14,0,.23-.06.31-.21.07-.14.21-.25.33-.36.48-.46,1.14-.73,1.42-1.39.07-.17.19-.32.25-.43,0-.13-.04-.22-.01-.28.21-.46.55-.81.91-1.14.18-.17.39-.31.61-.47-.06,0-.11-.01-.2-.02.11-.09.19-.15.27-.22.52-.48,1.07-.89,1.71-1.19.05-.02.1-.04.15-.03.25.04.36-.13.5-.27,0-.03-.02-.06-.03-.09-.18.04-.35.09-.53.13,0-.02,0-.04-.01-.06.19-.04.38-.1.57-.12.25-.02.48-.08.57-.29.18-.02.33-.04.48-.07.03,0,.07-.02.08-.04.18-.49.66-.49,1.04-.64.1-.04.2-.12.28-.2.07-.06.11-.15.18-.24.13.33.19.37.47.17.25-.18.53-.14.8-.15.1,0,.2-.01.3-.02,0,0,0,0,0,0ZM45.47,20.55c-.19-.1-.33-.17-.42.07.17.19.27.02.42-.07ZM28.9,31.01s.02.05.03.08c.19-.05.37-.1.56-.15-.01-.04-.02-.07-.03-.11-.18.06-.37.12-.55.18Z"/>
      <path class="cls-1" d="M22.27,15.3s-.08.08-.12.12c-.1.08-.31.07-.17.34.02-.09.03-.14.03-.17.28-.1.57-.17.83-.29.12-.06.24-.19.11-.35-.1-.13-.07-.23.07-.28.4-.16.77-.45,1.25-.3.03,0,.09,0,.1-.02.11-.24.36-.21.55-.31.12-.06.23-.13.36-.19-.18-.26-.39-.01-.61-.12.3-.07.58-.08.79-.2.18-.1.45.06.55-.22.02-.05.18-.06.27-.06.16,0,.29.01.38-.16.03-.07.13-.13.21-.17.27-.12.51-.29.8-.37.36-.1.71-.27,1.07-.37.17-.05.32-.06.37-.26.02-.05.12-.09.19-.11.25-.06.5-.1.79-.16-.08-.03-.12-.04-.24-.08.29-.13.51-.26.74-.33.26-.09.55-.11.81-.19.11-.03.2-.14.3-.21.12-.08.24-.18.38-.24.23-.1.47-.18.7-.27.04-.02.1-.04.13-.03.25.1.41-.08.57-.2.3-.23.61-.4,1-.37.04,0,.1-.02.11-.05.12-.26.36-.29.6-.34.37-.09.74-.2,1.1-.33-.18.02-.37.05-.55.07-.01-.02-.03-.03-.04-.05.06-.05.12-.12.19-.14.38-.11.77-.2,1.14-.32.14-.04.26-.14.4-.2.48-.18.97-.35,1.46-.54.43-.17.85-.35,1.28-.51.15-.06.33-.05.49-.09.3-.07.6-.15.89-.23.13-.03.27-.05.4-.11.57-.26,1.18-.29,1.79-.37.11-.01.21-.09.32-.12.34-.08.66-.23,1.02-.17.07.01.16-.15.25-.16.26-.03.53-.01.79-.03.2-.02.39-.07.59-.11.3-.05.6-.1.9-.14.63-.09,1.27-.15,1.9-.27,1.02-.18,2.04-.4,3.06-.58.37-.07.76-.07,1.14-.12.1-.01.19-.06.28-.09,0-.03-.01-.06-.02-.09-.17.01-.34.04-.51.03-.65,0-1.31-.04-1.96-.03-.87.01-1.74.05-2.61.08-.39.01-.77.03-1.16.06-.79.08-1.59.18-2.38.27-.41.05-.83.09-1.24.15-.53.07-1.06.16-1.59.23-.37.05-.75.09-1.12.14-.5.07-.99.14-1.48.22-.28.05-.56.14-.84.2-.57.12-1.14.22-1.72.33-.43.08-.87.16-1.3.27-.54.14-1.07.32-1.6.46-.54.14-1.09.24-1.63.38-.3.08-.58.21-.87.31-.26.09-.51.18-.77.27-.47.17-.94.35-1.42.5-.51.16-1.03.31-1.55.45-.37.1-.81.11-1.12.31-.27.17-.55.14-.81.26-.62.27-1.26.49-1.89.73-.05.02-.12.06-.15.04-.27-.12-.45.07-.68.16-.35.13-.73.21-1.09.32-.06.02-.12.07-.2.12-.03,0-.09-.03-.17-.05,0-.12.25-.22.03-.36,0,0,0,0,0,0,.07,0,.15-.04.22-.02.36.12.68.09.96-.2.06-.06.2-.12.27-.09.2.09.32-.07.48-.1.2-.03.4-.06.6-.09.02-.24.24-.34.48-.37.4-.05.78-.17,1.17-.26.15-.04.31-.08.45-.15.13-.06.25-.17.38-.23.13-.07.27-.11.41-.16,0,.02.02.04.03.06.04-.06.08-.13.13-.21-.15.04-.32.06-.47.12-.43.18-.85.4-1.29.56-.26.09-.55.09-.83.13-.15.03-.32.04-.45.11-.67.35-1.38.54-2.12.66-.27.05-.56,0-.84-.02-.04,0-.07-.05-.1-.1.82-.01,1.54-.41,2.31-.59.77-.18,1.57-.27,2.35-.52-.04-.03-.07-.05-.1-.07-.03-.02-.07-.02-.08-.03.6-.16,1.22-.32,1.83-.47.01.02.03.04.04.06-.04.06-.08.11-.14.2.21-.1.45-.05.57-.31.03-.07.25-.05.38-.08.61-.14,1.19-.33,1.75-.61.3.12.44-.18.66-.26.45-.16.91-.33,1.36-.49.03-.01.08-.02.11,0,.26.2.49,0,.66-.12.18-.13.34-.15.54-.18.26-.04.52-.13.78-.21.21-.06.41-.16.61-.21.3-.08.61-.12.91-.2.16-.04.31-.11.46-.16.03,0,.06-.01.08-.02.59-.08,1.2-.12,1.78-.25.59-.13,1.16-.29,1.76-.36.66-.07,1.32-.24,1.98-.36.34-.07.68-.16,1.03-.21.21-.03.44.02.65,0,.63-.05,1.26-.12,1.89-.18.04,0,.08,0,.11-.01.43-.27.91-.12,1.37-.16.39-.04.79-.05,1.18-.1,1.01-.14,2.03-.11,3.05-.12.72,0,1.44,0,2.15.02.32.01.63.09.94.14.13.02.26.03.38.04.11-.03.21-.08.32-.1.23-.03.45-.04.68-.04.15,0,.24.06.23.23-.02.36-.15.54-.52.63-.87.22-1.75.41-2.65.42-.1,0-.2.06-.3.08-.19.03-.39.06-.58.09-.54.09-1.08.18-1.61.27-.45.08-.91.18-1.36.24-.72.1-1.43.18-2.15.28-.57.08-1.14.19-1.71.28-.26.04-.53.05-.79.1-.63.13-1.26.25-1.87.42-.8.22-1.59.47-2.38.74-.93.32-1.85.67-2.77,1.01-.01,0-.02.02-.04.02-.62.13-1.14.5-1.73.7-.53.18-1.03.43-1.54.65-.33.14-.67.27-1.01.4-.03.01-.07.02-.07.04-.08.26-.33.23-.52.3-.47.18-.94.38-1.41.57-.29.12-.58.23-.86.34-.33.14-.67.26-1,.42-.58.27-1.16.56-1.74.84-.53.25-1.06.5-1.59.74-.34.16-.69.31-1.03.48-.53.27-1.05.54-1.57.81-.31.17-.62.34-.93.52-.24.14-.45.33-.68.47-.2.13-.42.23-.64.33-.19.08-.19.07-.27-.04.23-.13.45-.26.69-.4-.01-.02-.04-.06-.06-.1-.31.13-.61.26-.92.38-.03.01-.08-.02-.11-.03.02-.03.03-.08.07-.1.2-.12.4-.26.61-.36.11-.05.25-.05.37-.07.07-.01.14-.03.27-.05-.1-.06-.14-.09-.2-.12.15-.25.42-.31.66-.39h0ZM31.09,11.22c-.28.06-.49.1-.77.15.32.17.62.12.77-.15ZM23.52,14.72s.03.07.04.11c.16-.07.33-.14.49-.21l-.04-.1-.49.2ZM39.1,8.18s-.02-.05-.03-.08c-.25.07-.51.14-.76.2,0,.01,0,.03.01.04.26-.06.52-.11.77-.17Z"/>
      <path class="cls-1" d="M36.15,12.05c.11.04.16.06.22.08-.03.02-.05.05-.07.05-.43-.05-.71.27-1.05.43-.18.09-.37.17-.55.25-.26.13-.51.27-.78.39-.67.3-1.35.6-2.03.89-.59.26-1.18.52-1.78.77-.28.12-.57.22-.85.33-.19.08-.38.18-.57.26-.32.13-.67.21-.97.38-.68.39-1.42.65-2.13.97-.51.23-.99.52-1.49.79-.08.04-.16.1-.24.13-.88.4-1.65.97-2.36,1.61-.39.35-.77.69-1.15,1.04-.13.12-.24.25-.36.38q-.14-.11.14-.42s-.03-.04-.04-.05c-.22.18-.43.37-.65.55-.02-.02-.04-.04-.05-.06.21-.18.4-.43.65-.53.31-.13.54-.31.73-.57.18-.24.4-.45.62-.65.38-.35.77-.7,1.17-1.01.24-.18.52-.3.78-.46.06-.04.08-.13.13-.19.05-.06.1-.14.16-.15.29-.03.49-.22.72-.35.32-.19.66-.36.99-.54.18-.1.37-.19.54-.29.04-.03.05-.11.09-.18.37-.08.67-.3.95-.6.57-.63,1.29-1.06,2.09-1.36.45-.17.92-.22,1.39-.2.18,0,.36.08.54-.02.49-.26,1.01-.41,1.52-.63.51-.21,1.01-.42,1.52-.64.14-.06.25-.16.38-.23.16-.09.31-.15.42.07,1.71-.64,3.41-1.28,5.11-1.92.01.03.02.05.03.08-1.25.46-2.49.96-3.74,1.61ZM30.13,13.95c-.62-.07-1.13.04-1.6.31-.49.27-1.09.84-1.12,1.08.93-.39,1.84-.82,2.73-1.39Z"/>
      <path class="cls-1" d="M15.34,19.23c.31-.08.61-.16.92-.24,0-.02,0-.05-.01-.07-.23.05-.47.09-.7.14-.02-.03-.04-.06-.05-.08.11-.1.23-.2.34-.3.06-.05.11-.1.17-.14.06-.04.14-.08.21-.09.25,0,.38-.15.39-.41,0-.1.06-.22.13-.31.18-.23.38-.45.57-.66.12-.13.24-.26.39-.35.13-.08.3-.1.46-.11l-.2.21s.03.04.04.06c.09-.03.17-.06.26-.1.01.01.02.03.03.04-.26.29-.52.59-.8.87-.24.23-.51.42-.65.74-.03.08-.12.13-.18.2-.11.11-.23.22-.32.34-.16.23-.29.49-.61.5-.02.3-.17.49-.42.6-.14.06-.27.08-.21.31.04.15-.12.27-.25.37-.2.16-.37.35-.55.53-.08.08-.17.15-.25.23-.06.07-.12.14-.18.21.01.02.03.03.04.05.04,0,.09-.02.13,0,.05.02.09.06.14.09-.03.04-.06.09-.1.11-.09.05-.22.06-.27.13-.06.1-.06.24-.08.38-.03-.01-.07-.04-.13-.08-.03.08-.06.16-.09.22.08.03.15.05.2.1.02.02-.01.14-.04.15-.08.03-.18.05-.25.02-.24-.09-.25-.18-.07-.35.03-.03.08-.08.07-.1-.12-.33.15-.46.3-.66.16-.22.27-.48.42-.71.19-.29.34-.64.6-.85.29-.23.33-.58.54-.84.03-.04.02-.12.03-.18.01.02.02.04.04.06Z"/>
      <path class="cls-1" d="M55.19,6.98c-.06.05-.11.13-.18.15-.78.25-1.55.5-2.34.72-.66.18-1.32.34-1.99.48-.28.06-.59.03-.88.03-.05,0-.11-.09-.16-.13.05-.04.1-.11.15-.13.32-.08.64-.16.96-.23.18-.04.37.02.57-.04.38-.12.78-.17,1.17-.26.16-.04.31-.11.47-.16.65-.18,1.29-.35,1.94-.52.07-.02.16,0,.24,0,.01.03.03.05.04.08Z"/>
      <path class="cls-1" d="M27.21,29.56c.36-.09.76-.2,1.18-.3-.04-.02-.1-.05-.17-.1.08,0,.14-.02.21-.02v.21c-.4.18-.8.36-1.2.52-.26.11-.54.2-.81.29-.06.02-.16.01-.2-.02-.03-.03.02-.13,0-.2-.07-.33.18-.41.39-.53.11-.06.25-.13.36-.11.08.01.15.15.25.27Z"/>
      <path class="cls-1" d="M20.4,17.1c-.09-.04-.14-.06-.22-.09,0,.05,0,.09,0,.16-.24-.1-.33.12-.46.23-.16.13-.31.27-.49.43-.09-.22-.12-.44-.44-.28.11.02.17.04.27.06,0,.12-.02.24-.02.36-.07-.02-.15-.02-.22-.06-.05-.03-.08-.09-.14-.17-.02,0-.1-.05-.2-.09.2-.12.36-.23.52-.31.05-.02.17,0,.2.05.1.16.17.1.26,0,.1-.1.21-.18.32-.26.15-.11.2-.35.07-.57.15.06.28.07.34.13.17.19.34.16.53.07.05-.02.1-.04.16-.02-.11.23-.35.15-.53.24,0,.02.02.05.04.13Z"/>
      <path class="cls-1" d="M29.87,28.45s-.04-.08-.06-.13c.2-.06.4-.11.61-.17.08-.25.34-.35.66-.18-.29.14-.53.26-.78.39.01.02.04.05.06.08-.01.02-.02.03-.03.04-.32.16-.63.32-.95.48-.16.08-.32.18-.49.26-.04.02-.13.01-.15-.02-.02-.04-.02-.14,0-.15.12-.08.26-.15.39-.21,0,0-.04-.06-.07-.1.07-.04.13-.11.2-.13.2-.06.4-.1.61-.15Z"/>
      <path class="cls-1" d="M18.09,18.28c-.24.08-.49.16-.75.24.05.04.11.07.15.12.05.06.12.16.1.2-.04.08-.15.2-.21.19-.11-.02-.23-.11-.31-.19-.03-.03.04-.15.07-.23.07-.25.28-.28.5-.32.08-.01.15-.08.23-.12.05-.02.12-.06.15-.04.04.03.05.1.07.16,0,0,0,0,0,0Z"/>
      <path class="cls-1" d="M27.28,29.28c.49-.29,1.03-.41,1.56-.57,0,.02.02.04.02.06-.25.11-.49.24-.75.34-.26.1-.54.17-.81.25,0-.03-.02-.06-.02-.09Z"/>
      <path class="cls-1" d="M59.49,12.32c-.01.21-.48.83-.67.87-.03,0-.07-.01-.13-.03.06-.11.11-.2.17-.28.09-.1.25-.14.23-.34,0-.06.26-.15.41-.22,0,0,0,0,0,0Z"/>
      <path class="cls-1" d="M19.03,15.68c-.13.12-.26.25-.39.37,0,.01.02.02.02.04.06-.03.13-.07.2-.1-.17.3-.24.35-.56.4-.04,0-.1-.01-.11-.04-.02-.03-.01-.1.01-.12.26-.21.53-.4.79-.61.01.02.03.04.04.06Z"/>
      <path class="cls-1" d="M58.33,13.73c.08-.09.16-.17.26-.26-.09-.15-.06-.2.18-.21.03.25-.16.46-.44.48h0Z"/>
      <path class="cls-1" d="M58.32,13.73c.08.03.16.06.24.1-.08.26-.17.3-.37.18.04-.09.09-.18.13-.27,0,0,0,0,0,0Z"/>
      <path class="cls-1" d="M18.09,18.28s0,0,0,0c.09-.03.18-.06.27-.09,0,.02,0,.03.01.05-.13.14-.26.28-.39.42-.02,0-.03,0-.05,0,.05-.12.11-.24.16-.37Z"/>
      <path class="cls-1" d="M19.12,21.96c.1-.2.21-.4.31-.6.03.01.06.03.08.04-.06.22-.23.38-.4.55Z"/>
      <path class="cls-1" d="M55.23,6.78c.26-.1.53-.2.79-.31,0,.02.01.03.02.05-.26.11-.52.23-.78.34,0-.03-.02-.05-.03-.08Z"/>
      <path class="cls-1" d="M20.13,20.09c.08-.07.15-.14.23-.2.08-.07.17-.12.29-.15-.16.13-.32.26-.48.39-.01-.01-.02-.03-.04-.04Z"/>
      <path class="cls-1" d="M22.28,15.3c.07-.14.15-.28.24-.46.06.23-.08.43-.25.45,0,0,0,0,0,0Z"/>
      <path class="cls-1" d="M31.03,37.11c.23-.25.45-.51.68-.76.03.02.07.04.1.06-.03.11-.03.27-.1.31-.22.14-.25.56-.62.47-.02-.02-.04-.05-.06-.07Z"/>
    </g>
  </g>
</svg>