<?xml version="1.0" encoding="UTF-8"?>
<svg id="Layer_2" data-name="Layer 2" xmlns="http://www.w3.org/2000/svg" viewBox="0 0 29.11 115.92">
  <defs>
    <style>
      .cls-1 {
        fill: #000;
        stroke-width: 0px;
      }
    </style>
  </defs>
  <g id="illustrations">
    <g>
      <path class="cls-1" d="M28.95,76.83c-.01-.14.04-.28.05-.42.02-.18.05-.35.04-.53-.01-.24-.06-.49-.08-.73-.01-.18.03-.36.02-.54-.04-.5-.09-.99-.13-1.48-.02-.3-.03-.61-.05-.91,0-.07,0-.14,0-.2.02-.32.05-.65.05-.97,0-.2-.02-.41-.03-.61,0-.06-.03-.12-.05-.18.04,0,.09,0,.09,0-.02-.23-.03-.44-.05-.62,0-.13,0-.24,0-.35-.02-.19-.05-.38-.07-.57-.02,0-.09.02-.17.04.03-.13.05-.24.08-.36.06.02.11.04.14.05.02-.11.04-.2.04-.29,0-.08-.04-.17-.07-.32-.02.2-.03.32-.05.52-.15-.3-.11-.73,0-.82-.04-.09-.09-.16-.11-.24,0-.02.08-.06.08-.06-.04-.09-.1-.17-.1-.24,0-.29,0-.59.04-.87.05-.4-.06-.79.03-1.21.09-.42-.02-.88-.04-1.32-.02-.32-.05-.63-.06-.95-.01-.3-.01-.59-.02-.89-.03-.04.03-.07.03-.11,0-.06-.07-.12-.07-.18-.01-.19.04-.4-.02-.57-.08-.22-.07-.39.02-.52-.06-.15-.13-.26-.13-.37,0-.11.01-.21.02-.32,0-.01,0-.02,0-.03.02-2.05.06-4.11.07-6.16,0-.98.04-1.96.03-2.94-.01-.92-.13-1.83-.13-2.74-.02-.05-.05-.1-.04-.13.09-.33,0-.64-.08-.95-.03-.15-.09-.29-.1-.44-.05-.46-.19-.89-.23-1.35-.02-.17-.13-.34-.21-.51-.09-.19-.26-.38-.28-.57-.05-.42-.27-.74-.47-1.08-.11-.18-.25-.34-.31-.53-.07-.24-.19-.43-.36-.61-.07-.07-.12-.18-.17-.27-.06-.12-.12-.25-.18-.37-.04-.09-.11-.16-.14-.26-.16-.43-.3-.88-.48-1.3-.37-.85-.8-1.68-1.16-2.53-.28-.66-.49-1.35-.73-2.03-.09-.24-.13-.51-.25-.73-.18-.31-.43-.57-.63-.87-.25-.38-.47-.78-.71-1.16-.25-.41-.53-.8-.72-1.25-.27-.65-.59-1.28-.88-1.93-.17-.37-.37-.74-.49-1.13-.09-.28-.07-.59-.09-.89-.08,0-.14.01-.2.02.02-.01.05-.02.07-.04-.48-1.26-.77-2.56-.93-3.92-.27-.86-.16-1.8,0-2.69-.03,0-.05.02-.08.03.01-.12.03-.26.03-.39,0-.55,0-1.11.02-1.66.01-.43.05-.85.1-1.28.06-.52.15-1.04.22-1.55.02-.15.05-.31.06-.46,0-.79,0-1.57,0-2.36,0-.31,0-.63-.01-.94,0-.04.01-.08.02-.12.04-.26.1-.52.12-.78.03-.39.02-.79.04-1.18,0-.16.07-.31.09-.47.02-.25.02-.49.02-.74,0-.22-.02-.44-.03-.66-.03-.05.02-.1.02-.15.01-.42.25-.71.51-1,.17-.2.31-.42.49-.66-.11-.04-.15-.05-.19-.06-.22-.08-.38-.39-.68-.21-.27-.27-.65-.08-.94-.21.28-.2.57-.41.86-.63.04-.03.02-.14.02-.22.01,0,.08,0,.15.01v-.26c.08-.04.16-.08.23-.12-.14-.21.03-.32.1-.47.03-.06.09-.14.07-.17-.14-.23-.28-.47-.45-.68-.1-.13-.25-.17-.3.07-.19-.08-.38-.15-.64-.26.15-.07.21-.1.23-.11,0-.1-.01-.17,0-.24.04-.18.09-.35.13-.53.04-.24.13-.5-.06-.71-.19-.22-.37-.47-.61-.62-.39-.25-.76-.55-1.3-.45-.32.06-.66,0-1,0-.12,0-.24.03-.35.05-.37.06-.74.14-1.11.18-.3.03-.6.09-.91.1-.3,0-.6.14-.9.19-.11.02-.28-.09-.34-.04-.22.2-.51.09-.68.05-.42-.11-.71.15-1.05.23-.23.05-.4.36-.61.56.07.04.13.09.21.14-.08.03-.14.07-.19.07-.38.02-.62.24-.74.58-.05.13-.01.29-.04.44-.06.29,0,.54.15.78.13.2.28.39.43.59-.43.1-.76.44-.81.85,0,.06.02.14.05.19.06.09.14.17.2.27.07.1.1.19-.08.25-.1.04-.22.16-.24.27-.11.41-.22.83-.28,1.26-.07.46-.01.92.15,1.36.03.09.05.18.09.29.1,0,.22-.02.32-.03.1.23.22.43.26.65.06.33.07.68.1,1.01.03.44.07.88.09,1.32.02.34,0,.68,0,1.02.01.41.05.81.07,1.22.01.26,0,.53.01.8.02.71.14,1.43.05,2.12-.11.81.11,1.64-.21,2.42-.02.04.02.09.03.14.13.5-.04.81-.37,1.11-.06.05-.08.15-.12.22-.13.1-.27.21-.4.31.06.11.14.19.13.25-.04.34.02.6.39.69,0,.1,0,.19-.02.27-.05.14-.08.32-.18.4-.32.24-.51.89-.27,1.21.14.19.39.31.6.47,0,0-.01.01-.01.02,0,.47.01.94-.03,1.41-.03.38-.13.76-.21,1.14-.1.47-.2.94-.34,1.4-.12.39-.28.77-.44,1.15-.27.63-.48,1.29-.93,1.83-.32.38-.46.87-.81,1.24,0,0,.02.04.02.06,0,.07,0,.15-.04.21-.14.23-.3.45-.44.69-.26.43-.56.84-.75,1.3-.19.45-.53.81-.69,1.27-.08.23-.22.44-.31.67-.07.18-.11.37-.16.56.03.02.05.03.08.05.01,0,.03-.02.05-.02C1.83,41.07-.06,45.37.42,49.98c.01.1.06.17.11.23,0,.04,0,.07,0,.11-.01.33-.03.67-.03,1,0,.21.04.42.04.63,0,.35-.02.7-.02,1.05,0,.17.06.33.05.5-.01.18-.11.36-.11.54-.01.43,0,.86,0,1.29.01.36.03.72.07,1.08.02.23-.15.48.1.68.03.02-.01.13-.02.19-.02.09-.05.19-.05.28,0,.31.08.63.03.92-.04.2-.06.34.05.43-.05.16-.11.28-.12.4,0,.17.07.34.04.5-.01.07.01.12.04.18-.32,10.63-.46,21.26-.43,31.89,0,3.08.03,6.16.07,9.24,0,.17.1.28.23.32-.02.06-.05.12-.09.17-.04.05-.07.15-.04.2.16.27-.03.52-.03.77,0,.14-.03.29-.03.43,0,.48,0,.96-.01,1.44,0,.18-.09.38-.05.55.07.3.15.59.17.9.03.37.22.7.19,1.1-.02.33.09.68.09,1.02,0,.6-.02,1.21-.04,1.81,0,.22-.03.44-.06.69-.18-.25-.34-.47-.5-.69-.02.01-.05.02-.07.03.02.1.01.22.07.3.31.48.49,1.02.71,1.55.05.12.13.26.23.33.37.26.75.49,1.13.72.08.05.2.01.27.06.22.13.43.28.64.43.03.02.08.04.12.05.15.04.31.07.46.11.25.08.5.17.75.26.47.17.94.34,1.42.5.21.07.44.13.66.13.45,0,.85.07,1.21.43-.26-.05-.48-.26-.71-.01.05.03.08.06.13.07.35.08.69.15,1.04.22.14.03.29.05.43.07.23.03.46.04.69.08.14.03.3.27.39-.06,0-.01.07-.02.1-.01.15.04.3.09.44.15.03.01.02.1.03.16.28-.07,1.16.08,1.45.22.19.09.42.12.63.18.01-.04.03-.08.04-.11-.11-.06-.22-.11-.33-.17.11,0,.26,0,.31.08.2.26.48.24.83.27-.04-.15-.07-.25-.1-.35.06.01.14.03.22.05.38.09.76.21,1.15.28.19.03.39-.02.58,0,.3.03.59.15.89,0,.03-.02.09.02.14.03.09.02.18.06.27.06.3-.03.61-.07.91-.12.4-.06.81-.18,1.21-.17.58,0,1.1-.2,1.64-.31.55-.11,1.08-.27,1.62-.44.38-.12.75-.27,1.12-.41.12-.05.22-.1.29.08.02.05.12.07.2.11,0-.33.06-.39.26-.38.08.11.14.2.22.31.19-.22,0-.55.31-.63.2-.05.4-.1.59-.15,0,0,0,.01,0,.02.1-.05.2-.11.33-.18-.03-.25.16-.37.36-.48.18-.1.37-.17.54-.28.21-.14.4-.32.61-.48-.01-.02-.04-.06-.06-.1.28-.16.54-.32.81-.48.01,0,.02-.03.03-.04.09-.27.33-.48.3-.8,0-.03.01-.07.03-.08.26-.17.14-.45.15-.66.01-.21-.15-.43-.25-.7-.12.14-.2.21-.26.3-.27.38-.5.8-.82,1.14-.44.47-.95.89-1.43,1.33,0,0-.03,0-.05,0,.01-.04.03-.08.04-.12-.02-.01-.04-.03-.06-.04-.08.09-.16.18-.23.26-.07.08-.13.19-.21.23-.24.13-.5.24-.74.36-.08.04-.19.13-.22.11-.18-.12-.2.06-.3.12-.17.12-.37.19-.56.29-.07.02-.13.07-.19.09-.22.05-.45.09-.68.14-.27.06-.53.14-.8.18-.31.04-.62.04-.93.07-.04,0-.08.03-.12.04-.16.05-.32.11-.48.14-.39.05-.79.07-1.18.12-.3.03-.59.11-.89.13-.51.03-1.01.03-1.52.05-.32,0-.63.03-.95.04-.39,0-.79-.01-1.18-.02-.06,0-.12,0-.18,0-.25-.01-.49-.02-.74-.03-.22,0-.45.02-.66-.03-.29-.07-.57-.19-.87-.03-.02.01-.08,0-.09-.02-.11-.18-.26-.09-.41-.09-.05,0-.11.02-.15,0-.23-.13-.46-.15-.71-.07-.04.01-.11,0-.14-.03-.18-.21-.43-.21-.67-.24-.35-.04-.71-.06-1.05-.12-.25-.04-.49-.16-.74-.22-.39-.1-.8-.18-1.19-.29-.3-.08-.6-.18-.89-.29-.33-.13-.65-.3-.98-.42-.31-.11-.64-.17-.98-.25-.42-.22-.87-.44-1.34-.68,0,0,0-.06,0-.06-.09-.05-.15-.07-.2-.11-.2-.19-.33-.44-.43-.7-.07-.2-.16-.4-.25-.61.21-.2.01-.45.01-.68,0-.05-.03-.14,0-.16.19-.15.19-.34.19-.55,0-.32.1-.65,0-.98-.05-.14-.09-.36-.02-.46.16-.25,0-.45,0-.68-.02-.51-.04-1.03-.06-1.54-.02-.38-.04-.76-.05-1.14,0-.44,0-.88,0-1.33.62.33,1.18.63,1.74.92,0-.02.02-.04.03-.06-.02-.03-.03-.07-.04-.07h1.05s0,.03,0,.04c-.08.04-.15.08-.23.11,0,.03,0,.06,0,.08.24.07.48.16.72.2.07.01.16-.1.24-.16.02-.01.05-.02.07-.02.28,0,.56,0,.88,0-.07.12-.11.19-.17.31.43.03.82.12,1.19.05.26-.05.37.03.58.2-.19.01-.32.02-.49.04.5.19,1.04-.04,1.44.38-.26-.04-.53-.08-.79-.12.4.2.81.35,1.22.5.03.01.07.01.1.02.16.02.35,0,.49.08.39.2.81.17,1.23.19.06,0,.13-.06.19-.09,0,0,0,0,0,0,.09.05.17.12.26.16.04.02.1.02.16.02.1,0,.2-.01.3-.02.17-.02.38.12.48-.09.3.07.59.13.96.21-.09-.13-.12-.19-.18-.27.09.04.19.11.2.09.11-.14.19-.08.29,0,.02.02.08-.02.12-.02.22,0,.45-.03.64.05.28.12.55.07.83.05.16-.01.32-.03.48-.03.26,0,.52.04.78.04.43,0,.86-.04,1.29-.01.46.03.91.07,1.36-.01.33-.06.66-.07.99-.11.49-.07.97-.12,1.45-.23.38-.09.73-.26,1.11-.37.48-.14.97-.26,1.46-.38.11-.11.24-.14.38-.16-.02,0-.05,0-.07,0,.32-.04.64-.11.96-.19.16-.04.31-.09.47-.14.07-.02.14-.05.2-.07.04-.01.08-.03.12-.04.04-.01.17-.07,0,0,.03-.01.05-.02.08-.02.06-.26.16-.5.43-.63.32-.15.63-.3.94-.45-.02-.03-.05-.07-.07-.1.08-.02.16-.05.23-.07,0,.05,0,.09-.01.14,0,0,0,0,0,0,0,0,0,0,0,0-.05,0-.1.01-.15.02.04.06.08.18.12.18.35.02.23.29.26.48.02.16.02.32.04.48.05.41.11.81.16,1.22.03.21.03.42.07.63.03.22.11.43.12.64.02.25-.02.5-.02.76,0,.05.04.09.05.14.04.19.05.4.11.58.04.15-.03.35.17.43,0-.09-.06-.18-.05-.25.08-.36.04-.71.01-1.07-.03-.5,0-1.01.05-1.51.04-.47.15-.94.18-1.42.04-.59.03-1.18.04-1.77,0-.68.02-1.35.02-2.03,0-.5-.01-1.01,0-1.51,0-.39.03-.79.02-1.18,0-.44-.07-.89-.06-1.33,0-.55.04-1.1.07-1.66.01-.26.04-.52.07-.78.04-.47.09-.94.11-1.41.02-.48-.02-.95,0-1.43.04-.77.11-1.54.15-2.31.03-.7.02-1.41.04-2.11,0-.25.07-.49.07-.74,0-.31-.02-.62-.02-.94,0-.23,0-.47,0-.7.02-.09-.03-.18-.03-.27,0-.56,0-1.12,0-1.68,0-.65-.02-1.3,0-1.95,0-.31.06-.61.09-.92.02-.14.05-.28.05-.41,0-.23-.03-.47-.02-.7,0-.16.13-.35.08-.48-.09-.23-.06-.4.09-.53-.06-.11-.15-.2-.16-.29ZM7.6,114.41c.16.02.32.04.48.07.03,0,.06.07.09.1-.04.02-.09.06-.12.05-.16-.04-.31-.1-.46-.15l.02-.08ZM17.02,11.36c0,.25-.02.5-.03.74-.02.41-.04.82-.06,1.22-.02.35-.04.69-.05,1.04,0,.06.04.11.04.17,0,.21,0,.42-.01.63,0,.06-.02.12-.02.18.01.34,0,.69.06,1.02.11.51-.12,1.01-.04,1.51.11.64-.04,1.29.16,1.93.08.23-.02.53-.04.8-.51-.1-1.01-.25-1.52-.29-.48-.04-.85-.29-1.26-.46-.06-.02-.14-.07-.17-.05-.24.17-.42-.02-.62-.09-.16-.05-.33-.05-.5-.06-.08,0-.15,0-.23,0-.24,0-.49,0-.73,0-.12,0-.23-.05-.35-.05-.27,0-.54,0-.81.04-.17.02-.25.02-.3-.19-.08-.34.06-.65.07-.97.02-.52.07-1.03.11-1.55.03-.46.05-.93.08-1.39,0-.03,0-.07,0-.1-.05-.85.04-1.7.03-2.54,0-.38-.05-.74-.13-1.11-.04-.2,0-.42.03-.62.05-.31,0-.6-.03-.91-.04-.42.05-.86.1-1.28.02-.18.17-.23.35-.22.37.02.71,0,1.03-.25.13-.1.35-.11.54-.14.24-.03.48,0,.7-.19.08-.07.28,0,.41-.03.12-.04.22-.15.35-.2.33-.13.67-.24,1.01-.36.39-.14.78-.31,1.18-.43.44-.12.87-.32,1.35-.25.03,0,.06.02.11.03-.04.03-.06.06-.08.06-.61.01-.58.21-.59.82-.01.47-.07.95-.09,1.42-.02.38-.02.76-.04,1.14,0,.17-.05.34-.05.51,0,.17.04.34.04.51ZM10.18,25.72c.04-.18.09-.35.12-.53.03-.18.1-.23.28-.16.34.14.69.3,1.05.37.15.03.34-.16.5-.26.01,0-.03-.18-.08-.21-.27-.17-.56-.32-.89-.5.47-.35.95-.44,1.49-.41,0-.16.07-.22.23-.17.05.02.16,0,.19-.03.17-.24.4-.24.67-.2l-.15-.13s0-.04.01-.06c.15.04.3.07.52.13-.29.27-.55.52-.82.77-.38.34-.77.66-1.13,1.01-.12.11-.17.3-.27.43-.05.06-.15.13-.22.12-.43-.04-.75.21-.83.64-.04.21-.09.44-.4.42-.07,0-.15.1-.22.17-.09.09-.16.19-.3.28.09-.56.18-1.12.27-1.68,0,0-.01,0-.01,0ZM13.97,22.9c-.37.12-.72.29-1.08.44-.12.05-.26.08-.39.12-.33.11-.67.22-1,.34-.08.03-.18.11-.21.2-.09.24-.24.21-.42.17-.06.05-.13.17-.2.16-.08,0-.18-.1-.23-.18-.17-.31-.16-.66-.14-1,.03-.42.06-.83.09-1.24.02-.37.38-.68.75-.7.28-.02.56-.14.85-.19.73-.12,1.46-.15,2.19.08.66.21,1.33.38,2.05.58-.43.33-.81.7-1.26.96-.28.16-.67.14-.99.25ZM13.8,6.51c-.39.24-.77.48-1.16.73.25-.42.72-.55,1.16-.73ZM13.72,6.27c.06-.03.12-.07.18-.1.32-.15.64-.31.97-.43.17-.06.36-.05.54-.06.18,0,.35,0,.53,0-.65.51-1.32.94-2.19.67l-.03-.09ZM16.74,4.61c.23-.2.46-.19.73-.12-.06.13-.12.24-.19.39-.18-.09-.35-.18-.54-.27ZM10.32,2.06c.49.01.93-.27,1.43-.1-.02.06-.05.12-.07.18.02,0,.04.02.05.02.24-.1.45-.25.74-.2.18.03.38-.11.56-.1.46.04.85-.12,1.25-.31.09-.04.22-.08.29-.04.29.18.56,0,.84-.02.23-.02.47-.06.7-.03.41.06.82.15,1.22.27.24.07.45.22.36.54.22.16-.19.42.09.52-.25.19-.46.35-.67.52-.23.2-.44.35-.8.28-.62-.13-1.27-.15-1.9-.25-.24-.04-.47-.06-.71-.02-.29.06-.57.15-.85.23-.14.04-.26.16-.41.03-.01-.01-.05-.01-.07,0-.29.04-.57.1-.86.12-.18.01-.37-.03-.56-.06-.14-.02-.29-.03-.43-.06-.12-.03-.23-.08-.37-.13.14-.25.13-.45-.07-.6.08-.28.15-.53.22-.79ZM9.54,5.43c-.02-.05,0-.14.03-.18.13-.13.26-.22.47-.17.34.08.68.19,1.03.19.39,0,.78-.1,1.18-.15.42-.06.85-.11,1.27-.18.21-.03.42-.08.71-.14-.1.12-.14.2-.2.24-.48.32-.96.63-1.44.93-.23.14-.46.27-.7.41-.04.02-.08.03-.12.03-.28,0-.57-.01-.85-.01-.51,0-1.21-.48-1.38-.97ZM10.7,27.02c-.16.26-.31.48-.46.73.08,0,.14.01.24.02-.17.18-.32.34-.46.49.01,0,.06.02.15.04-.16.15-.29.28-.44.42.05.02.09.03.08.03-.18.15-.38.32-.56.47,0-.32,1.14-2.13,1.45-2.21ZM4.9,103.4c-.14-.05-.28-.12-.42-.18,0-.02,0-.04.01-.05.16.03.32.05.47.08.03,0,.05.07.08.11-.05.01-.11.05-.15.04ZM9.71,105.18c.21-.22.61-.17.87.09-.3.07-.58.01-.87-.09ZM27.74,86.06c-.03.71.04,1.43.05,2.15,0,.55-.03,1.09-.05,1.64-.01.33-.12.68-.05.99.08.35,0,.65-.02.98,0,.07.03.14,0,.21,0,.23-.02.45-.02.68,0,.22-.02.44-.03.66,0,.56,0,1.11,0,1.67,0,.23,0,.47,0,.7,0,.29.03.59-.03.88-.02.09-.06.17-.08.23.02.07.07.13.07.2,0,.16-.01.32-.02.48.02,0,.04.01.07.02-.05.03-.11.07-.2.12.11.06.19.11.24.14-.04.16-.09.32-.14.49.26.13.04.36.1.55.03.09,0,.19.02.28.05.2.06.38-.12.53-.04.03-.05.11-.05.17,0,.3-.01.61.04.9.06.35-.1.65-.14.98-.02.13,0,.26,0,.38,0,.19-.1.22-.25.18-.26-.06-.51-.15-.77-.19-.09-.01-.19-.02-.28-.03-.03.17-.12.33-.27.41-.57.32-1.19.34-1.82.34-.02,0-.03,0-.05.01-.23.05-.46.11-.69.15-.2.03-.4.06-.6.11-.24.06-.5.07-.74.1-.1.01-.2.01-.29.03-.05,0-.1.05-.15.05-.23,0-.47-.01-.7.02-.51.07-1.01.18-1.52.24-.4.05-.8.05-1.2.09-.17.02-.34.11-.51.12-.85.04-1.71.06-2.56.09-.29.01-.57.06-.86.1-.25.03-.53-.07-.73.18-.01.02-.1-.03-.16-.05-.15-.06-.29-.15-.44-.17-.35-.02-.69,0-1.04,0,.01.03.02.05.04.07-.03.03-.05.08-.08.08-.36-.06-.72-.14-1.08-.18-.48-.06-.95-.1-1.43-.14-.22-.02-.45-.02-.67-.06-.17-.03-.33-.11-.49-.16-.21-.06-.43-.09-.64-.15-.42-.12-.83-.25-1.25-.38-.12-.04-.24-.08-.39-.13-.11,0-.26.06-.4.02-.78-.18-1.46-.65-2.28-.77-.55-.08-1.09-.31-1.63-.48-.43-.13-.43-.13-.35-.63.01-.07,0-.15,0-.23,0-.37-.03-.73-.02-1.1,0-.3.09-.61.06-.91-.02-.21.1-.39.07-.58-.06-.37-.04-.74.01-1.11.05-.33.02-.66.06-.99.05-.42-.09-.86.12-1.27.01-.02-.02-.07-.02-.1-.05-.23-.1-.46-.13-.7-.02-.11-.03-.23,0-.33.14-.41.05-.82.01-1.23-.03-.24-.14-.51-.07-.72.15-.5.04-1,.1-1.5.03-.29.01-.59.04-.89.04-.51.09-1.02-.02-1.53-.05-.21.06-.45.1-.67.01-.09.03-.18.02-.27-.03-.32-.07-.65-.09-.97-.01-.26.03-.52.02-.78,0-.25-.06-.49-.07-.74-.02-.35,0-.71-.02-1.06,0-.36-.04-.72-.03-1.08.02-.67.08-1.33.11-2,.01-.29-.02-.58-.02-.87,0-.47.01-.94.02-1.41,0-.16,0-.32,0-.48.01-.51.08-1.02.02-1.51-.12-.99-.06-1.98,0-2.97.03-.59.1-1.18.06-1.76-.03-.49-.15-.97-.31-1.44,0-.3,0-.6.02-.91.05-2.23.11-4.45.17-6.68-.03-.94-.05-1.88-.05-2.82-.04-.03-.07-.05-.12-.06-.02-.37-.05-.75-.03-1.12.02-.4-.13-.81.03-1.21.01-.03,0-.07-.01-.1,0-.08,0-.16,0-.25,0-.06.01-.12,0-.17,0-.1-.03-.19-.04-.29,0-.07.04-.16,0-.2-.17-.23-.11-.47-.11-.73.01-.63-.02-1.27-.03-1.9,0-.11-.01-.22,0-.33.02-.45.08-.9.07-1.34-.01-.45-.06-.9-.1-1.35,0,0,.02,0,.03,0-.17-.66-.19-1.39-.13-2.05.06-.7.17-1.49.52-2.13.41-2.45,1.4-4.78,2.62-6.98.17-.39.33-.79.47-1.19.21-.62.52-1.19.82-1.77-.04-.01-.07-.02-.11-.02.11-.16.23-.32.34-.49.19-.29.33-.62.52-.92.22-.35.46-.67.68-1.02.25-.39.49-.79.74-1.18.1-.15.23-.27.32-.43.33-.53.64-1.06.96-1.59.07-.11.15-.21.24-.3.36-.31.74-.61,1.1-.93.17-.15.4-.29.44-.48.07-.34.37-.42.55-.63-.04.29-.1.56-.19.83-.11.34-.25.68-.38,1.01-.16.41-.33.82-.48,1.24-.18.48-.35.96-.52,1.45-.12.35-.2.71-.32,1.06-.18.58-.49,1.1-.6,1.71-.16.85-.42,1.67-.65,2.51-.19.7-.42,1.4-.61,2.1-.11.42-.18.84-.28,1.26-.13.55-.27,1.1-.39,1.66-.1.48-.17.96-.29,1.43-.2.74-.44,1.48-.66,2.22-.11.37-.27.74-.35,1.12-.07.35-.13.68-.27,1.01-.11.26-.22.54-.09.85.04.09-.04.22-.07.33-.07.24-.17.48-.2.72-.03.26-.01.54.02.8.05.4.14.79.21,1.18.03.16.07.32.13.48.07.22.18.43.24.65.09.3.16.6.24.91.07.27.15.54.23.81.03.11.1.21.14.3,0,.1,0,.21,0,.32.01.17.03.34.05.51,0,.04.04.07.06.11.05.14.11.27.13.41.04.41.06.83.07,1.24.01.5-.01,1,.02,1.49.05.76.15,1.52.22,2.27,0,.11-.08.23-.06.34.03.2.1.39.14.59.07.35.14.69.2,1.04.03.18.03.37.04.6.13-.05.25-.07.34-.14.29-.2.34-.48.12-.87-.28-.5-.44-1.02-.51-1.59-.06-.51-.19-1.01-.21-1.51-.02-.61.03-1.22.06-1.84.01-.23.06-.47.07-.7.02-.35-.18-.66-.14-1.03.04-.44-.15-.89-.17-1.36-.01-.28-.17-.54-.24-.82-.11-.43-.26-.87-.29-1.31-.03-.38-.18-.72-.21-1.09-.03-.3-.12-.6-.13-.91-.02-.34.01-.67.02-1.01,0-.05.03-.1.05-.14.14-.41.34-.81.39-1.26,0-.05.04-.13.08-.14.29-.11.17-.34.19-.54,0-.06-.02-.12,0-.17.05-.26.1-.52.15-.78.02-.13.02-.26.06-.38.08-.3.35-.54.29-.89,0-.02.05-.05.06-.08.06-.13.24-.24.07-.42-.02-.02.03-.1.05-.15.07-.17.13-.34.2-.51-.02,0-.04-.02-.06-.03.06-.03.11-.07.15-.09-.03-.09-.09-.17-.07-.22.09-.22.19-.43.3-.64.06-.11.1-.19.03-.32-.04-.07-.01-.19,0-.29.02-.08.08-.15.1-.23.05-.23.02-.5.13-.68.13-.21.14-.43.21-.64.09-.27.16-.54.23-.82.15-.57.29-1.15.44-1.72.09-.34.17-.67.27-1.01.05-.18.15-.35.21-.53.07-.24.06-.53.19-.73.17-.29.25-.61.36-.92.07-.2.12-.41.2-.61.11-.26.26-.49.35-.75.19-.52.34-1.05.52-1.58.03-.1.14-.2.14-.3.01-.41.28-.71.41-1.07.11-.29.18-.6.26-.91.09-.35.11-.74.27-1.05.29-.58.33-1.17.26-1.78-.02-.2-.12-.4-.19-.63,0-.01.06-.08.1-.15.13-.22.24-.46.4-.65.46-.55.93-1.09,1.43-1.6.4-.41.83-.78,1.26-1.16.3-.26.67-.46.94-.76.39-.42.87-.41,1.36-.4.09,0,.21.07.25.14.08.16.14.33.17.51.09.5.16,1,.26,1.49.11.52.23,1.05.38,1.56.05.18.08.32-.06.46-.06.06-.13.1-.17.17-.05.09-.07.19-.1.3,0,.04,0,.11-.02.16-.25.48-.19.98-.1,1.48.06.35.16.69.22,1.03.05.29.06.59.12.88.14.59.3,1.17.46,1.75.25.93.54,1.85.76,2.79.13.54.15,1.1.23,1.65,0,.04.03.08.05.12.08.22.18.45.22.68.15.8.27,1.6.42,2.39.04.19.12.38.16.57.12.57.22,1.14.34,1.7.09.44.2.87.29,1.3.03.17.01.35.04.53.05.39.15.78.17,1.17.02.44.11.86.08,1.31-.02.43.11.86.06,1.31-.03.27.09.55-.09.81-.04.06,0,.17,0,.25.02.14.05.27.06.41,0,.2,0,.39,0,.58-.06,0-.12.01-.14.02.02.13.04.24.05.35.01.32.01.64.03.96,0,.1.08.21.05.29-.1.26.07.24.22.23.23-.02.43-.37.41-.66-.03-.55,0-1.1.05-1.65.02-.26,0-.53,0-.79-.02-.4-.06-.79-.07-1.19-.02-.57.02-1.14-.03-1.71-.08-.8-.22-1.6-.34-2.4-.09-.56-.18-1.11-.28-1.67-.13-.68-.27-1.35-.41-2.03-.12-.59-.24-1.18-.35-1.77-.01-.06.06-.14.1-.21.05.07.12.13.16.21.08.16.14.32.21.49.18.4.37.8.54,1.21.12.29.2.6.31.91.07.21.16.42.22.64.04.12.04.26.08.38.21.61.45,1.2.64,1.82.12.39.16.81.23,1.21.08.46.02.93.2,1.37.02.06.05.15.03.19-.11.19.03.26.1.34-.06.11-.11.22-.11.34,0,.16.04.32.07.48.02.14.05.27.08.42,0,0-.05,0-.16.03.31.16-.13.46.21.59-.08.03-.14.05-.18.07.02.07.07.14.05.17-.16.25-.05.51-.05.77,0,.34.08.68,0,1.03-.06.24-.06.5-.07.76,0,.17,0,.33,0,.5.01.12.05.25.09.37.08.25-.19.52.04.77.01.01,0,.05,0,.08.02.16.04.32.07.52-.13.11-.18.32-.18.56,0,.32-.13.66.07.96.19.29.14.57.03.87-.04.1-.16.24.02.35.03.02,0,.11,0,.16,0,.13,0,.27,0,.41.01,0-.03.01-.05.02.02.12.04.2.04.29,0,.19-.02.38-.03.61,0,0-.06.03-.05.03-.02.18-.05.31-.05.43,0,.22.02.44.02.66,0,.31-.02.61-.02.92,0,.18.03.35.05.54-.08.05-.16.09-.25.14.04.07.12.13.11.18-.05.3-.11.6-.16.9-.01.07.01.14.02.18-.01.17-.02.3-.04.44.02.19-.12.32-.1.57.04.44-.1.9-.09,1.34,0,.49-.4.68-.62,1-.01.02-.06.02-.1.02-.32.03-.63.06-.95.09-.27.03-.53.06-.8.09-.24.03-.48.04-.72.07-.1.01-.2.04-.3.05-.34.04-.68.08-1.01.12-.2.02-.4.05-.6.05-.38,0-.77-.03-1.15-.04-.13,0-.28-.04-.39,0-.24.09-.47.11-.71,0-.12-.06-.28-.01-.39-.07-.31-.16-.58.11-.92.03-.57-.13-1.19-.06-1.79-.08-.69-.03-1.37-.09-2.06-.1-.68-.01-1.36-.08-2.04-.05-.27.01-.54-.02-.81-.05-.55-.08-1.1-.17-1.65-.26-.47-.08-.78.06-.82.41-.08.58-.15,1.16-.21,1.75-.04.48-.05.97-.08,1.45-.03.45-.06.91-.08,1.36,0,.26.02.52.02.78.01.47.02.94.03,1.41,0,.33.02.66.02.98,0,.22-.02.44,0,.66.01.29.15.57-.03.85-.02.02-.02.08,0,.1.19.2.13.47.16.7.09.65.07,1.3.05,1.95-.02.58-.01,1.15,0,1.73.01.72.04,1.43-.08,2.15-.06.39-.02.8-.04,1.2-.03.5-.06,1.01-.11,1.51-.09,1-.22,2-.26,3.01-.02.67-.14,1.35-.02,2.04.09.49.01,1.01.02,1.52,0,.31.01.62.03.92.03.5.05,1.01.1,1.51.03.33.08.67.2.98.1.27.31.5.18.83-.03.09-.02.22.02.3.11.22.07.54.38.67.02-.09.03-.17.06-.34.25.25.46.45.66.66.05.05.07.12.12.15.52.26,1.02.57,1.56.76.61.22,1.25.38,1.88.52.59.13,1.18.21,1.78.31.16.03.32.05.48.05.79,0,1.58,0,2.37,0,.33,0,.67-.04,1-.08.52-.07,1.03-.21,1.55-.22.33,0,.62-.09.94-.14.13-.02.26-.04.39-.07,0,.01-.02.03-.03.04.15.07.3.14.48.23.02-.13.03-.2.05-.28.12.05.23.09.37.15-.03-.09-.05-.15-.07-.22,1.15-.35,2.29-.7,3.47-1.07.21.07.56-.03.89-.23.02-.03.03-.06.06-.09.07-.07.16-.11.26-.14.15-.13.27-.27.35-.42-.15-.07-.29-.18-.44-.19-.43,0-.87.03-1.3.05-.03,0-.07.03-.08.06-.06.18-.16.13-.28.06-.04-.02-.12,0-.18,0-.06,0-.13.05-.16.03-.18-.14-.35-.06-.54-.02-.1.02-.21-.03-.32-.04-.06,0-.12-.03-.18-.03-.36.04-.71.08-1.07.13-.35.05-.7.13-1.06.17-.22.03-.45.03-.67.04-.03,0-.06.01-.1.02-.19.03-.38.04-.56.09-.27.07-.55-.09-.84.12-.21.16-.56.15-.85.2-.36.06-.72.12-1.09.16-.21.02-.42.02-.63.03-.07,0-.15.04-.23.04-.41-.02-.82-.06-1.23-.09-.6-.05-1.2.02-1.8-.14-.49-.13-1.01-.16-1.51-.29-.44-.11-.86-.31-1.3-.44-.44-.12-.89-.2-1.28-.29-.08-.07-.14-.17-.2-.17-.2,0-.21-.13-.25-.27-.06-.22-.08-.44-.12-.67-.04-.29-.12-.56-.1-.86,0-.17-.13-.35-.01-.54-.2-.13-.03-.28-.03-.42,0-.03.04-.07.03-.09-.16-.51-.11-1.03-.09-1.55.01-.25,0-.49-.01-.74-.02-.31-.06-.61-.06-.92,0-.42.03-.83.03-1.25,0-.55-.02-1.09.01-1.64.02-.37.1-.73.14-1.1,0-.06.03-.13,0-.17-.13-.23-.16-.51-.09-.73.14-.45-.09-.94.21-1.35,0,0,0-.02,0-.03.01-.32.03-.65.03-.97,0-.44.01-.87,0-1.31,0-.24.14-.51-.17-.69.19-.18.28-.36.11-.57.05-.16.05-.32.06-.48.02-.21.06-.43.06-.64,0-.45-.06-.9-.06-1.36,0-.55.01-1.1,0-1.65,0-.16-.13-.37-.06-.46.13-.19.06-.36.07-.54,0-.09.05-.18.04-.27-.03-.23-.09-.46-.13-.7,0-.04.05-.1.08-.15.02-.03.06-.07.06-.1.02-.31.05-.63.04-.94-.01-.51-.06-1.02-.08-1.53,0-.16.03-.32.04-.48.03-.26.06-.52.1-.77.02-.12.04-.23.07-.38.01,0-.07-.02-.08-.05-.01-.14-.02-.29,0-.43.07-.43.14-.86.05-1.3-.06-.28,0-.29.27-.22.52.13,1.04.27,1.57.36.61.1,1.23.16,1.84.2.54.04,1.08.03,1.62.03.43,0,.86,0,1.29,0,.51,0,1.02,0,1.53,0,.28,0,.55.01.83.04.27.02.54.09.81.1.43.01.87,0,1.3-.01.45,0,.91,0,1.36-.03.23-.02.47,0,.71-.11.23-.11.55-.04.82-.08.49-.08.98-.2,1.48-.22.28,0,.57-.12.84-.2.57-.16,1.15-.33,1.72-.5.15-.04.36,0,.44-.1.22-.23.5-.08.74-.22.11.24.26.45.29.67.06.43.25.87.01,1.3,0,.02,0,.05.01.07.01.1.03.19.03.29,0,.14-.04.27-.05.41-.01.27.03.54-.03.8-.1.43-.16.87-.2,1.31-.02.19,0,.38,0,.6,0,0-.07.02-.07.06-.04.39-.09.78-.09,1.17,0,.48.11.96.05,1.43-.04.31,0,.63-.09.95-.12.39-.09.82-.12,1.24-.02.22-.05.44-.04.66.01.24.11.48.1.71-.01.22.18.47-.09.66-.01,0,0,.05,0,.08.02.25.11.51-.03.76-.02.04,0,.1.01.15.13.28.11.56.03.85-.03.13-.03.28-.02.42.01.16.07.32.07.49,0,.36,0,.72-.03,1.08-.03.36.15.72-.07,1.09-.09.15-.07.4,0,.57.12.31.1.6-.02.89-.02.06-.01.13,0,.2.03.31.08.63.09.94.02.64.03,1.28.03,1.92,0,.3-.05.6-.06.91-.02.52-.03,1.04-.05,1.56,0,.21-.02.42-.03.64-.01.26-.03.52-.03.79,0,.46.05.92.05,1.39,0,.28-.08.57-.09.85-.02.39,0,.79-.04,1.19-.01.16-.03.32-.06.48.04-.02.09-.03.14-.03.13-.08.26-.16.38-.25.07-.06.14-.13.21-.19,0-.15-.01-.3,0-.45.02-.43.11-.85.14-1.28.02-.25-.07-.51-.03-.75.07-.44-.13-.85-.09-1.28.02-.14.1-.28.12-.4,0-.15.05-.32,0-.44-.12-.27.17-.55-.04-.81,0-.01-.02-.04,0-.05.21-.2.14-.46.17-.7.02-.24.02-.48.03-.72,0-.21.01-.43.03-.64.02-.33.06-.66.08-.99,0-.06-.07-.13-.12-.21.1-.11.11-.22.07-.4-.05-.26.04-.54.05-.81.01-.32,0-.65,0-.98,0-.27-.12-.53.01-.81.04-.1-.15-.3-.26-.48,0,0,.05-.02.11-.05.09-.05.18-.05.15-.23-.03-.26.07-.53.08-.79.01-.28,0-.57-.02-.85,0-.36-.03-.71-.03-1.07,0-.22.06-.44.06-.66,0-.1-.06-.19-.06-.29,0-.3.02-.61.02-.91,0-.54,0-1.07.03-1.61.03-.53.11-1.05.17-1.58,0-.06.03-.12.02-.18-.12-.39-.03-.79-.02-1.19,0-.15.14-.3.11-.43-.07-.3-.03-.56.12-.82.03-.04.03-.11.03-.16-.02-.21-.08-.43-.06-.64.03-.28.05-.57.08-.85.04-.34,0-.66.02-.99.03-.3.1-.59.16-.88.01-.08.02-.16.03-.24,0-.46,0-.93.03-1.39,0-.06.02-.13.03-.19,0-.36.02-.71.01-1.07,0-.11-.01-.22-.02-.34,0-.03,0-.06,0-.09,0-.07,0-.06,0,.02,0-.05-.02-.12-.03-.16-.02-.08-.05-.17-.07-.25,0,0,0,0-.01-.02,0-.01-.02-.03-.03-.04,0,0,0,0,0,0-.01-.01-.03-.03-.04-.04-.01-.01-.02-.02-.03-.03-.01,0-.02-.01-.03-.02-.07,0-.16.04-.3.12.01-.08.02-.16.03-.22-.03,0-.07,0-.1,0-.1,0-.2,0-.29,0-.39.02-.78.09-1.18.07-.04,0-.08-.02-.12-.03-.06.03-.12.07-.17.12-.15.17-.48-.12-.48-.41,0-.18-.01-.37.01-.55.03-.26.09-.52.13-.78.03-.2.04-.41.05-.61.02-.37.02-.74.04-1.11.03-.4.09-.8.11-1.2.01-.19-.02-.39-.04-.65,0,0,.04-.04.08-.09-.02,0-.04-.01-.06-.02.02-.1.04-.19.06-.29.01-.1.02-.19.03-.35.01-.05.05-.13.05-.22,0-.08-.04-.15-.07-.27.01-.16.01-.38.05-.59.05-.26.16-.51.17-.77,0-.15-.13-.31-.21-.49.16-.12.2-.29.07-.52-.06-.1-.06-.3,0-.4.1-.17.03-.31.04-.47.04-.54-.03-1.07,0-1.61.02-.42,0-.83,0-1.25,0-.27.06-.54.08-.81.01-.19,0-.38,0-.62-.13-.07-.19-.18-.03-.38.08-.11.04-.31.04-.48,0-.41.02-.83,0-1.24-.03-.52-.09-1.03-.13-1.54-.02-.23.02-.48-.02-.71-.07-.45-.19-.89-.28-1.34-.11-.53-.19-1.07-.32-1.6-.1-.41-.24-.82-.37-1.22-.17-.51-.36-1.02-.54-1.53-.3-.81-.6-1.63-.92-2.44-.22-.56-.47-1.11-.71-1.67-.05-.11.03-.32-.22-.27.04-.09.09-.15.07-.18-.09-.21-.23-.4-.3-.61-.08-.23-.3-.43-.34-.61-.1-.49-.32-.93-.49-1.37-.35-.89-.65-1.8-.87-2.73-.08-.34-.13-.7-.18-1.05-.04-.31-.09-.6-.25-.88-.08-.14-.07-.33-.07-.5,0-.21,0-.42.14-.61.07-.09.13-.19.25-.36.2.55.35,1.03.55,1.49.23.54.51,1.06.72,1.61.19.47.47.88.73,1.3.03.05.08.09.12.13.07.09.21.19.21.28-.01.45.38.68.51,1.05.08.24.25.45.38.67.15.26.31.51.43.77.27.57.51,1.15.77,1.72.25.56.51,1.11.75,1.66.27.62.56,1.23.78,1.87.11.32.28.59.44.88.25.46.45.95.69,1.42.13.25.3.48.43.73.08.15.13.32.19.48.01.03,0,.07.01.1.1.18.2.37.31.55.1.16.24.3.3.47.19.55.37,1.11.5,1.67.07.3,0,.62.04.93.02.26.09.52.13.78.02.11.03.22,0,.33-.04.19-.03.38-.03.56,0,.31-.02.62,0,.93.03.32.19.62.04.97-.08.19.02.46.02.69,0,.25-.03.49-.04.74-.01.17,0,.35-.04.52-.07.34.06.67.07,1,.01.48.05.96.07,1.44,0,.06-.04.12-.07.2.06.02.12.04.17.06-.07.27-.13.54-.21.85,0,0,.04.03.09.06-.15.24-.13.44.06.59-.05.04-.1.09-.16.14.06.05.11.09.13.11-.05.11-.12.21-.13.32-.04.53-.08,1.05-.09,1.58,0,.33.07.66.1.99,0,.09-.06.18-.07.27-.01.19-.02.38,0,.57.02.33.07.67.07,1,0,.19-.07.38-.1.56-.04.3-.09.59-.09.89,0,.43.01.86.02,1.29,0,.02.02.04.02.06.23.77.13,1.61.12,2.41,0,.09-.02.17-.06.24,0,.25.02.49.03.74.01.68-.02,1.36-.01,2.04,0,.56.05,1.12.07,1.68.01.27.03.55.03.82,0,.57-.02,1.15-.01,1.72,0,.5.11,1.01.04,1.49-.07.46-.02.91-.02,1.36,0,.9,0,1.81.01,2.71,0,.15.06.3.07.45,0,.07-.03.15-.03.23,0,.36.03.71.02,1.07,0,.38-.03.77-.04,1.15,0,.36-.07.73.02,1.06.05.21.13.42.12.64,0,.03.03.08.01.1-.26.43-.1.9-.12,1.35ZM20.41,37.37s.06-.01.08-.02c.05.27.1.54.16.81-.13-.06-.2-.12-.16-.3.03-.15-.05-.33-.08-.49Z"/>
      <path class="cls-1" d="M28.04,108.31c.02.19.04.38.07.62.12-.08.19-.12.26-.16-.08-.18-.14-.34-.21-.49-.04.01-.08.02-.12.03Z"/>
      <path class="cls-1" d="M27.22,102.65s0,0,0,0c0,0,0-.01,0-.02,0,0,0,.01,0,.02Z"/>
    </g>
  </g>
</svg>