<?xml version="1.0" encoding="UTF-8"?>
<svg id="Layer_2" data-name="Layer 2" xmlns="http://www.w3.org/2000/svg" viewBox="0 0 82.95 92.87">
  <defs>
    <style>
      .cls-1 {
        fill: #000;
        stroke-width: 0px;
      }
    </style>
  </defs>
  <g id="illustrations">
    <g>
      <path class="cls-1" d="M37.21,84.91c-.13.2-.26.44-.46.53-.5.21-.78.63-1.11,1.02-.23.26-.46.52-.68.79-.12.14-.23.3-.35.45-.22.29-.42.59-.67.85-.14.16-.37.24-.53.38-.48.44-.88.93-1.19,1.51-.34.64-.76,1.24-1.14,1.86-.06.1-.1.22-.15.33.53.09,1.07.17,1.61.24.21-.3.41-.59.61-.9.29-.46.5-.97.77-1.45.28-.51.6-.97,1.07-1.34.29-.22.45-.61.74-.82.4-.29.78-.58,1.06-1,.11-.16.27-.29.41-.45-.03-.01-.09-.08-.13-.07-.27.09-.52.2-.79.28-.03,0-.15-.13-.14-.15.11-.17.22-.36.38-.48.23-.18.48-.36.75-.46.64-.25,1.1-.83,1.82-.93.07,0,.12-.13.17-.2.22-.29.4-.65.68-.87.46-.36.78-.81,1.09-1.28.17-.27.39-.54.64-.71.56-.38,1.17-.69,1.75-1.03-.01-.02-.03-.05-.04-.07h-.43c.18-.19.31-.33.37-.4.39.02.72.04,1.04.06,0,0-.02.06-.06.18,1.19-.23,2.34-.45,3.51-.49l.03.14c-.9.25-1.79.5-2.69.76v.08h.45c-.11.12-.18.2-.3.34.12,0,.17.01.21,0,.68-.19,1.35-.39,2.03-.57.27-.07.56-.08.82-.18.18-.07.28-.11.42.06.05.06.22.03.34.04,0-.1.01-.2.02-.29.17,0,.35,0,.54,0,.6,0,1.21-.02,1.81,0,.43.02.86.18,1.24-.17.07-.06.25-.01.37-.01.62,0,1.25,0,1.87,0,.16,0,.31,0,.47-.01.49,0,1,.06,1.48-.03.22-.04.35-.11.53.2-.01-.22-.02-.32-.02-.44.37.1.38-.24.45-.42.07-.17.04-.52-.07-.58-.29-.16-.63-.28-.96-.28-.52-.01-1.04.1-1.56.12-.38.01-.77-.1-1.14-.05-.59.08-1.16.28-1.74.38-.32.05-.66,0-.99-.02-.14-.01-.28-.13-.43-.14-.41-.01-.85.11-1.21-.02-.41-.14-.75,0-1.04.12-.63.27-1.27.48-1.94.61-.9.17-1.81.33-2.71.52-.25.05-.44.02-.61-.18.25-.35.77-.53.61-1.08.23-.16.5-.29.68-.5.41-.48,1.01-.77,1.3-1.38.18-.37.51-.68.81-.98.74-.71,1.32-1.61,2.3-2.05.09-.04.17-.13.23-.21.41-.63,1.06-1,1.65-1.42.56-.41,1.2-.69,1.76-1.1.88-.64,1.72-1.34,2.56-2.03.28-.23.56-.46.81-.73.24-.25.42-.53.23-.91-.22-.44-.75-.59-1.04-.29-.3.31-.62.6-.94.88-.05.04-.23.02-.28-.03-.16-.18-.29-.38-.45-.61-.31.25-.62.45-.87.7-.42.43-.79.92-1.22,1.35-.72.72-1.48,1.39-2.2,2.11-.24.23-.38.56-.61.8-.29.31-.62.58-.94.86-.88.75-1.78,1.46-2.55,2.33-.34.39-.59.85-1.07,1.13-.32.19-.58.5-.85.77-.06.06-.08.17-.12.25-.05.08-.1.21-.17.23-.14.04-.3.03-.44.03.1.54.62.11.93.37-.22.09-.43.25-.54.2-.25-.12-.39-.12-.5.15.08.04.15.07.28.13-.31.03-.57.05-.82.07,0,.03,0,.06.01.09l.85.3c-.28.04-.47.15-.65.38-.34.43-.37.4-.82.06-.02-.01-.04-.02-.03,0-.24.14-.46.28-.67.4.2.23.19.25-.28.46.19.61-.41.63-.7.93.28-.01.51-.03.84-.04-.23.4-.41.7-.58.98-.28-.09-.49-.15-.7-.22-.12.53-.65.33-.89.63.29-.02.57-.05.93-.08-.37.23-.66.46-.99.58-.54.2-.84.62-1.13,1.07ZM49.72,79.49c-.16.06-.28.1-.4.15-.19.08-.39.13-.56.24-.27.16-.43.16-.68-.06.39-.33,1.31-.54,1.64-.32ZM42.11,81.29c.12-.12.23-.24.37-.34.06-.04.17,0,.25.01,0,0,.02.13,0,.14-.05.03-.11.02-.2.02-.11.33-.48.42-.78.58.12-.14.24-.28.37-.42ZM40.71,81.17c.12-.29.53-.5.92-.49-.1.2-.19.4-.3.6-.11.2-.23.39-.36.61-.25-.24-.37-.44-.26-.72ZM39.55,83.69s.05.07.07.1c-.92.63-1.84,1.26-2.83,1.94.7-1.09,1.7-1.6,2.76-2.04Z"/>
      <path class="cls-1" d="M.95,79.12c.47-.52.93-1.05,1.39-1.59.05-.06.07-.17.05-.24-.07-.23.04-.32.23-.39.14-.05.31-.09.39-.2.23-.29.43-.61.65-.92.07-.09.15-.17.23-.25.45-.44.94-.85,1.34-1.33.48-.58.89-1.22,1.3-1.85.33-.52.63-1.07.92-1.61.22-.4.41-.81.62-1.22.07-.14.16-.28.21-.43.24-.63.44-1.27.71-1.89.18-.42.44-.81.67-1.21.13-.23.27-.45.38-.69.09-.19.14-.39.22-.62-.02-.01-.09-.08-.17-.14.52-.34.56-.46.32-.65.18-.27.36-.54.54-.81-.03-.03-.06-.05-.09-.08l-.41.24s-.07-.03-.1-.04c-.13,0-.27-.01-.36-.02-.07.15-.12.26-.17.37-.05.13-.14.27-.12.39.06.37.01.68-.27.95-.12.12-.14.32-.24.46-.15.22.04.66-.31.65-.08.19-.12.31-.17.42-.11.23-.22.45-.32.68-.05.1-.09.22-.16.31-.21.31-.45.59-.65.91-.53.83-.95,1.74-1.62,2.48-.09.1-.15.21-.21.33-.26.45-.49.92-.78,1.34-.12.17-.22.32-.29.52-.05.14-.24.24-.39.34-.06.04-.16.04-.24.06-.02.03-.03.07-.05.1.08.04.17.08.2.09-.12.16-.22.29-.32.42-.6.77-1.19,1.55-1.8,2.32-.27.34-.52.73-.86.99-.39.29-.77.57-1.04.98-.05.08-.11.17-.16.25.32.18.63.37.95.55Z"/>
      <path class="cls-1" d="M14.19,59.38c.54-.25,1.08-.49,1.62-.74.04.11.06.17.08.22.27-.14.52-.28.79-.39.49-.19.99-.36,1.48-.53.11-.04.23-.06.35-.07.15-.02.29-.02.44-.04,0-.03,0-.07,0-.1.42.13.8.09,1.07-.25.15.05.28.14.37.12.33-.1.65-.23.96-.37.49-.22.97-.48,1.46-.7.46-.21.94-.38,1.4-.58.47-.2.93-.45,1.42-.6,1.01-.31,2.05-.57,3.07-.85.54-.15,1.08-.31,1.56-.45,0,.46-.02.9,0,1.35.02.34.52.64.88.53-.12.27-.06.46.22.58.05.02.09.19.06.26-.1.25-.23.5-.35.74,0,.01,0,.04.02.08.07-.03.14-.06.29-.12-.03.6.52,1.08.18,1.7-.02.04-.02.09-.03.14-.04.45-.21.84-.5,1.18-.1.11-.16.25-.25.38.02.01.04.03.07.04.28-.35.56-.7.84-1.06.09.37-.05.66-.31.89-.56.49-.57,1.08-.43,1.76.26,1.22-.08,2.28-.98,3.15h.2c-.05.12-.11.23-.15.35-.16.56-.13,1.17-.54,1.65-.05.06-.08.16-.1.24-.1.41-.14.84-.3,1.22-.36.86-.72,1.71-.87,2.63-.03.2-.17.38-.27.61.01.01.08.07.17.15-.13.08-.23.13-.33.19.03.01.06.03.09.04-.01.11-.03.21-.04.32-.04.36.1.77-.24,1.06-.01.01.07.14.11.22-.31.26-.49,1.23-.31,1.54-.1.3-.2.57-.29.85-.03.09-.04.19-.04.28,0,.11.1.25.06.32-.25.41-.53.81-.8,1.22.39.12.49.31.29.67-.31.56-.33,1.16-.3,1.78,0,.15.05.31.07.46,0,.05-.04.1-.05.15-.05.31-.09.62-.13.9-.05.06-.18.15-.16.2.11.4-.2.69-.24,1.04.08.03.16.06.26.1-.11.09-.19.16-.3.25.14.06.24.1.37.15-.08.12-.14.21-.21.3.3.28.27,1.16-.05,1.61.08.04.16.09.25.13-.15.21-.28.4-.44.63.26.05.46.09.71.13-.24.35-.45.67-.67,1,.11.07.21.13.31.19-.19.1-.36.2-.6.33.19.07.27.1.3.11.01.28.03.53.04.78.04.15.05.3.04.44,0,.13-.02.25-.03.38,0,.12-.04.26.02.36.1.18.07.28-.08.39-.12.09-.21.17-.17.28.41.13.83.24,1.24.36,0-.08,0-.15,0-.23,0-.25.06-.51.06-.76,0-.51,0-1.02,0-1.54,0-.23-.05-.46-.02-.68.05-.37.16-.73.23-1.1.02-.1.01-.21.02-.33h-.39s0-.03,0-.05c.12-.03.24-.06.4-.09-.02-.27-.05-.53-.04-.78.02-.56.06-1.11.08-1.67,0-.21-.09-.45.2-.58.06-.03.05-.21.07-.33.03-.13.05-.26.08-.38.01-.07.03-.13.03-.2.01-.24,0-.49.03-.72.07-.51.25-1.02-.05-1.52-.02-.03,0-.11.03-.16.05-.12.14-.23.16-.35.04-.25.03-.51.06-.76.06-.44.1-.88.2-1.31.22-.97.49-1.93.7-2.91.09-.42.07-.86.16-1.27.12-.56.3-1.1.46-1.65.2-.68.38-1.36.61-2.03.36-1.07.75-2.12,1.11-3.19.33-.97.65-1.95.97-2.92.14-.44.36-.82.84-.97,1-.3,1.83-.9,2.66-1.51.32-.23.67-.42,1.01-.63-.3.81-.67,1.53-.73,2.38-.41-.02-.47.26-.53.55-.11.47-.01,1-.43,1.39-.05.05-.03.18-.05.27-.01.09,0,.19-.04.27-.28.73-.58,1.46-.86,2.19-.08.21-.16.42-.2.64-.11.66-.2,1.32-.3,1.96-.1.02-.29.03-.31.09-.04.12,0,.27.03.4.02.13.04.26.08.46-.14-.23-.24-.38-.34-.54-.05,0-.1.02-.14.02-.16.57-.32,1.13-.49,1.73-.56.13-.1.62-.24.93-.39.12-.42.49-.53.82-.29.85-.62,1.68-.93,2.52-.07.19-.17.39-.14.58.02.17.19.33.29.49.12-.1.24-.19.35-.29.03-.03.04-.07.06-.1.08-.26.1-.54.41-.69.08-.04.16-.26.12-.34-.12-.24.04-.35.13-.52.13-.24.22-.52.26-.79.01-.1-.19-.21-.26-.34-.08-.16-.11-.35-.17-.56.16-.01.26-.02.36-.03,0,.13-.02.23-.02.32.21-.18.37-.38.49-.6.19-.37.19-.82.49-1.15.04-.04.04-.13.05-.19.05-.21.07-.43.14-.63.06-.16.2-.3.25-.46.29-.99.54-2,.85-2.98.28-.89.6-1.76.91-2.64.29-.81.65-1.59.91-2.41.14-.43.7-.81.18-1.42.63.17.75-.24.93-.59.25-.49.5-.99.78-1.47.13-.22.36-.39.5-.6.09-.14.1-.33.16-.53.3.2.55.37.81.54.11.07.24.21.32.18.49-.16.25.21.28.32.16.22.57-.02.57.41-.12.01-.23.02-.34.03.09.12.2.17.31.2.17.04.36.04.51.12.7.36,1.38.77,2.08,1.12.68.35,1.36.76,2.18.45.06-.02.12-.03.16-.04-1.02,1.52-2.36,2.75-3.62,4.04,0,0,.03.09,0,.12-.3.34-.61.68-.91,1.02-.14.16-.28.33-.38.52-.06.11-.18.39-.22.45-.32.38-.65.76-.95,1.16-.16.21-.25.47-.4.69-.11.16-.38.3-.38.45.01.49-.42.61-.65.89-.14.17-.27.34-.4.53-.09.13-.14.29-.24.41-.32.41-.65.8-.96,1.19q.37.4.01.67s-.08.06-.11.09c-.28.33-.58.65-.85.99-.1.12-.22.32-.18.43.15.46-.16.71-.37,1.02-.12.17-.17.38-.26.58.12.04.2.07.28.1-.19.12-.39.19-.51.34-.17.22-.28.49-.42.73-.16.29-.35.58-.49.88-.13.26-.33.56-.29.81.05.31-.05.42-.27.53-.21.1-.36.26-.31.5.05.23-.05.34-.19.48-.17.18-.41.37-.25.62-.28.42-.62.8-.78,1.24-.18.48-.36.95-.58,1.41-.09.18-.13.39-.2.59-.02.06-.02.14-.05.19-.37.64-.8,1.25-1.11,1.91-.14.31-.34.58-.45.9-.05.15-.06.32-.1.54.18-.11.27-.17.38-.24.08.09.15.17.18.2.07-.12.13-.23.19-.34.11-.18.23-.36.33-.55.05-.1.02-.24.08-.33.14-.22.31-.42.49-.66-.18-.02-.36-.04-.54-.06,0-.03,0-.06,0-.08.16-.03.32-.06.51-.1.01-.14.02-.28.03-.44.08-.06.18-.14.3-.24-.1-.06-.18-.11-.29-.18.17-.02.3-.04.45-.05,0-.06-.03-.14,0-.19.14-.29.29-.58.44-.87.13-.27.24-.55.4-.81.11-.18.33-.29.43-.47.33-.59.62-1.21.93-1.81.16-.3.36-.58.5-.88.13-.27.19-.56.3-.87.04-.01.14-.04.33-.09-.34-.2-.39-.35-.07-.53.13-.07.22-.24.31-.38.43-.68.87-1.36,1.27-2.05.22-.38.34-.81.58-1.18.12-.2.28-.33.05-.54.51-.12,1.39-1.37,1.29-1.73.16-.13.32-.25.5-.4-.14-.32.06-.5.31-.68.15-.11.3-.24.41-.39.22-.33.38-.71.62-1.02.79-1.04,1.61-2.05,2.41-3.08.47-.6.9-1.22,1.38-1.81.51-.61,1.05-1.19,1.58-1.78.13-.14.28-.27.44-.42.02.04,0-.01-.07-.1h.92c-.33-.18-.4-.36-.23-.59.32-.45.65-.9.97-1.35.22-.32.32-.73.69-.94.08-.05.17-.09.23-.16.36-.41.69-.83,1.06-1.24.27-.3.62-.54.84-.86.36-.55.83-.98,1.33-1.4.3-.26.66-.45.84-.84.07-.16.26-.26.41-.39.12-.1.26-.17.36-.28.19-.19.37-.39.57-.58.08-.08.22-.1.3-.18.15-.14.24-.34.41-.44.84-.51,1.39-1.31,2.09-1.95.42-.38.78-.83,1.17-1.23.15-.15.31-.32.5-.4.3-.11.44-.36.6-.58.04-.05.05-.13.1-.18.37-.43.76-.85,1.11-1.3.14-.18.2-.42.31-.68-.15.04-.22.06-.39.1.22-.16.36-.25.46-.33-.16-.07-.3-.19-.43-.18-.16.01-.4.1-.44.22-.07.19-.21.28-.34.4-.17.17-.34.35-.54.5-.23.18-.49.32-.7.45.02.01.11.07.16.11-.55.52-1.07,1.02-1.62,1.55-.17.13-.37.3-.57.46-.08.06-.16.13-.22.21-.17.21-.3.44-.49.63-.25.26-.53.5-.8.75.14.07.25.12.36.18-.02.05-.04.09-.05.14-.13-.05-.26-.09-.45-.16-.21.14-.52.3-.76.53-.31.29-.55.66-.86.95-.64.59-1.3,1.15-1.95,1.74-.25.23-.47.49-.72.72-.25.23-.53.41-.77.65-.26.25-.47.54-.72.8-.04.04-.17.04-.25,0-.09-.04-.17-.12-.22-.16.05-.12.14-.26.11-.3-.37-.54.28-.99.11-1.51.37-.08.13-.33.11-.48-.03-.24-.14-.47-.21-.71-.05-.16-.17-.38-.11-.47.21-.3.03-.52-.07-.76-.14-.33-.05-.57.26-.73.12-.07.25-.13.37-.21.76-.48,1.51-.96,2.27-1.43.44-.28.9-.53,1.34-.81.25-.16.48-.38.72-.55.08-.05.23-.1.28-.06.2.14.27,0,.36-.13.06-.08.14-.14.22-.21.18-.15.45-.22.41-.55,0-.06.17-.15.28-.2.18-.09.41-.12.55-.25.47-.43.99-.78,1.57-1.05.11-.05.24-.26.21-.36-.1-.35.09-.5.33-.65.28-.17.6-.32.71-.66.09-.26.26-.24.45-.19.32.08.64.15.94.27.47.19.94.39,1.37.66.4.25.99.29,1.1.9,0,.02.04.03.06.04.29.04.27.29.33.49.05.19.05.39.11.58.2.72.43,1.42.62,2.14.1.39.18.78.21,1.18.03.4.04.82-.07,1.19-.07.22-.12.35-.03.44-1.7,4.29-5.08,6.73-9.16,8.48-.29-.57-.61-1.14-.89-1.73-.15-.32-.45-.57-.43-.97,0-.05-.22-.17-.3-.14-.08.03-.19.21-.17.29.19.81.59,1.57.68,2.42.08.75.26,1.49.4,2.23.03-.02.07-.05.1-.07.1.07.26.12.29.21.05.15.01.32.01.6.26-.38.57-.61.67-1.02.07-.28-.11-.64.27-.85.78-.43,1.54-.9,2.31-1.34.12-.07.28-.05.42-.08.08,0,.16-.13.23-.12.51.05.77-.39,1.14-.58.23-.12.4-.37.61-.55.36-.32.7-.69,1.1-.95.58-.37.67-1.19,1.36-1.45,0,0,.02-.02.02-.03.34-.46.71-.9,1.02-1.38.38-.57.7-1.18,1.08-1.75.14-.2.08-.63.51-.55.27.05.59.08.79.24.69.55,1.4,1,2.22,1.34,1.13.47,2.19,1.1,3.26,1.71.99.57,1.97,1.16,2.92,1.79,1.17.78,2.32,1.59,3.46,2.43.28.21.49.28.77.08.27-.2.33-.53.18-.85-.16-.32-.45-.45-.77-.57-.27-.1-.53-.24-.77-.4-.54-.35-1.05-.75-1.61-1.09-.59-.36-1.21-.65-1.81-1-.75-.44-1.48-.93-2.23-1.37-1.45-.85-2.79-1.84-4.14-2.84-.44-.33-.92-.6-1.39-.89-.55-.34-1.1-.78-.99-1.44.08-.49-.15-.86-.16-1.31,0-.57-.29-1.12-.38-1.69-.12-.77-.5-1.4-.91-2.02-.08-.12-.21-.2-.29-.32-.03-.05,0-.14,0-.22-.07.06-.14.12-.26.24-.32-.29-.64-.58-.94-.86-.57-.37-1.13-.73-1.65-1.06.18-.66.66-1.2.3-1.88-.02-.04.04-.11.04-.16,0-.35.24-.69.04-1.06-.32-.59-.58-1.22-.97-1.76-.27-.39-.66-.78-1.08-.97-.38-.17-.89-.08-1.34-.1-.19,0-.38.02-.56-.02-.22-.05-.32-.17-.23-.44.14-.46.24-.93.3-1.41.06-.47-.02-.96.08-1.41.2-1.02.48-2.02,1.01-2.93.4-.69.76-1.41,1.15-2.11.32-.57.68-1.12.98-1.7.16-.3.19-.67.67-.63-.06-.18-.16-.31-.14-.43.08-.44.06-.92.43-1.27.07-.06.16-.16.14-.23-.11-.51.31-.81.51-1.18.12-.23.45-.37.72-.48.1-.04.29.14.44.22.13.06.26.17.39.17.21,0,.44-.03.62-.13.07-.04.07-.3.02-.43-.12-.3-.29-.58-.41-.8.14-.38.28-.72.39-1.07.03-.12-.1-.33-.05-.38.22-.2.05-.38.04-.58,0-.36.09-.73-.15-1.06-.01-.02.05-.08.05-.12-.03-.28.08-.56-.1-.85-.12-.19-.4-.41-.23-.61-.14-.35-.24-.64-.37-.92-.1-.21-.1-.34.21-.37-.84-.49-1.21-1.28-.78-1.76-.12-.22-.31-.43-.33-.65-.03-.36-.28-.46-.5-.62-.07-.05-.14-.12-.18-.19-.31-.52-.54-1.12-.95-1.55-.57-.61-.85-1.45-1.57-1.93-.08-.05-.09-.19-.16-.27-.35-.41-.67-.85-1.07-1.19-.44-.36-.99-.6-1.46-.93-.65-.45-1.25-.96-1.9-1.41-.48-.34-.95-.76-1.62-.68-.08.01-.18-.06-.26-.11-.28-.16-.57-.3-.84-.48-.58-.38-1.16-.77-1.73-1.15-.52-.35-1.02-.73-1.61-.99-.74-.33-1.43-.75-2.16-1.1-.63-.3-1.3-.52-1.9-.86-.41-.23-.79-.47-1.23-.63-.49-.17-.98-.36-1.46-.56-.42-.16-.85-.22-1.29-.3-.37-.07-.73-.21-1.1-.32-.08-.02-.15-.07-.23-.1-.16-.06-.31-.15-.48-.17-.45-.03-.91-.03-1.37-.05-.07,0-.14-.03-.2-.06-.44-.23-1.02-.2-1.46.09.22.01.42.02.62.03-.63.04-1.25.02-1.87.04-.33,0-.65.07-.97.11-.35.04-.64.17-.73.56,0,.02-.05.04-.11.08-.05-.08-.15-.18-.13-.23.03-.1.14-.18.25-.31-.18-.07-.33-.18-.49-.19-.59-.02-.8.47-1.08.86-.11-.03-.27-.12-.3-.09-.14.16-.47.15-.43.46.02.18-.07.22-.24.26-.3.07-.75-.05-.71.57-.33-.33-.58-.31-.79,0-.04.07-.12.11-.19.15-.24.13-.39.3-.42.6-.02.18-.18.36-.32.5-.11.11-.32.11-.43.22-.29.31-.55.64-.81.97-.41.52-.69,1.07-.62,1.77.09,1,.07,2,.53,2.93.22.44.36.93.62,1.34.77,1.17,1.95,1.58,3.29,1.72.6.06.99-.13,1.25-.7-.09-.05-.19-.11-.29-.16-.33-.13-.68-.23-.98-.4-.71-.38-1.47-.72-2.09-1.23-.83-.68-1.23-1.65-1.32-2.73-.02-.21-.07-.43-.05-.63.03-.19.14-.36.22-.54.09-.25.03-.58.16-.8.46-.77,1.03-1.46,1.91-1.78.65-.24.85-.54.84-1.21.28.04.57.09.86.13q.06.54-.87,1.46c.05.09.1.18.15.27-.36.15-.43.3-.34.67.03.11.07.24.05.35-.06.48-.01.93.2,1.37.03.07-.06.19-.05.28.02.34-.07.8.12,1.01.27.3.41.64.59.97.11.2.11.51.26.61.31.21.7.3,1.05.45.18.07.34.17.5.25-.08.27-.09.52-.22.69-.13.18-.35.29-.24.51.15-.06.25-.1.35-.15.22-.11.42-.23.64-.34.07-.03.16-.03.24-.04.07-.01.15,0,.2-.04.17-.14.3-.28.57-.22.2.05.52.06.62-.06.2-.24.36-.14.56-.09.12.03.24.07.36.08.45.03.89.04,1.34.06.4.02.82.11,1.21.03.34-.07.64,0,.94.09.46.14.89.39,1.36.44.77.09,1.55.12,2.32.08.59-.03,1.16-.22,1.75-.32.08-.01.18.04.27.06.12.03.23.09.35.1.56.09,1.14.13,1.7.25.86.2,1.63.63,2.4,1.04.15.08.32.23.37.38.14.42.24.86.32,1.29.04.23,0,.48,0,.77-.39-.3-.39-.3-.58.04-.03.05-.1.09-.17.12-.2.09-.2.2-.11.4.07.15.09.49.05.5-.42.15-.85.25-1.28.36-.02,0-.04,0,0,0-.09.29-.18.56-.23.72.07.24.11.4.16.55.08.21.15.43.26.63.05.09.22.11.27.2.2.37.37.76.54,1.14.09.21.04.33-.23.33-.12,0-.24.1-.36.15-.11.05-.25.08-.28.15-.05.12-.09.3-.04.41.17.41.33.83.57,1.19.38.59.96,1.03,1.17,1.75.07.24.25.45.37.68.21.43.42.87.62,1.31.05.1.04.27.11.32.44.28.88.55,1.34.8.07.04.24-.05.29,0,.34.32.76.33,1.18.36.22.01.45,0,.67,0,.02-.05.02-.12.05-.15.07-.06.19-.09.22-.16.11-.32.15-.69.31-.98.3-.53.63-1.04,1.01-1.5.35-.41.66-.89,1.21-1.09.06-.02.13-.08.15-.14.14-.37.44-.29.74-.31,1.14-.11,1.83.48,2.3,1.42.09.18.15.49.06.6-.22.26-.14.44.07.68-.18-.02-.3-.03-.4-.03.04.17.14.35.09.47-.24.59-.51,1.17-.78,1.75-.04,0-.07-.01-.11-.02-.01-.1-.05-.2-.04-.31.02-.41.11-.82.05-1.22-.06-.48-.23-.95-.39-1.4-.04-.11-.25-.22-.37-.21-.73.05-1.31.39-1.75,1.12.22.07.43.22.58.18.45-.12.57.14.63.47.13.69.25,1.39.37,2.09.08.5.04.98-.22,1.44-.23.41-.43.84-.58,1.27-.2.56-.48,1.04-1.03,1.32-.11.06-.22.13-.32.21-.68.49-1.36.97-2.03,1.46-.48.34-.96.68-1.43,1.04-.13.1-.21.25-.31.38l.1.13c.25-.13.52-.26.76-.41.31-.19.6-.41.9-.62.03.05.07.1.1.15-.55.37-1.1.75-1.64,1.12.17.21.16.2.38.07.29-.18.59-.34.88-.52.35-.22.7-.45,1.05-.67-.01-.03-.02-.05-.04-.08-.15-.02-.29-.04-.48-.07.22-.55.59-.11.86-.16l-.07-.08c.4-.37.79-.74,1.22-1.14.04.75-.73,2.44-1.09,3.24-.3.68-.61,1.34-.58,2.11,0,.14,0,.28,0,.42-.02.39-.07.77-.05,1.16.02.44.1.86-.22,1.24-.1.11-.16.27-.2.41-.25.75-.69,1.38-1.24,1.94-.4.4-.83.77-1.25,1.16-.11.1-.18.24-.3.34-.2.17-.41.34-.64.49-.14.08-.31.11-.47.16-.17.05-.07.44-.44.26.26.49-.19.47-.39.6-.02.13-.02.26-.07.36-.02.03-.18-.02-.27-.03,0,.05.02.15.02.19-.24.03-.46.03-.66.08-.07.02-.09.19-.17.25-.29.22-.6.41-.89.6.05.16.1.3.15.44-.03.02-.06.03-.1.05-.14-.06-.29-.13-.44-.19-.04.22-.08.42-.14.69h-.48c-.17.13-.42.32-.6.45.02.22.04.37.06.53-.45-.32-.65-.28-1.2.21.1.2.2.39.33.64-.14-.06-.22-.09-.26-.1-.07.17-.13.33-.2.48-.44-.2-.49-.18-.6.25-.01.05-.05.1-.09.15-.08.11-.16.21-.29.39-.14.05-.38.13-.65.23.07.09.12.15.19.23-.52.1-.94.3-1.06.85-.28-.14-.51-.25-.76-.37.03.11.05.18.08.26-.1.02-.19.04-.24.05.19.11.38.23.59.35.56-.34,1.18-.69,1.78-1.08.23-.15.5-.31.42-.66.28.13.44-.07.6-.22.11-.11.16-.29.28-.39.63-.52,1.28-1.01,1.91-1.52.3-.24.61-.48.89-.74.09-.09.13-.24.21-.41.01,0,.17-.05.24,0,.33.3.57.05.78-.14.22-.2.39-.47.6-.68.2-.19.43-.34.65-.51.26-.19.52-.38.78-.57.08-.06.18-.09.27-.15.58-.37.88-1.07,1.56-1.32.03-.01.05-.05.07-.08.3-.37.59-.74.89-1.1.57-.69,1.23-1.33,1.39-2.28.05-.28.16-.59.35-.78.26-.26.61-.47.95-.61.19-.08.45.02.68.04.09,0,.18.02.27.02.22,0,.44-.04.66,0,.23.03.46.17.68.18.31,0,.63-.08.91-.11.19.21.34.39.5.58-.02.02-.03.04-.05.06l-.61-.21-.06.09c.37.19.6.5.88.77.36.34.44.76.41,1.14-.07.8-.2,1.62-.73,2.28-.42.52-.85,1.03-1.29,1.52-.23.25-.77.23-.93-.02-.16.24-.37.34-.66.27-.08-.02-.19.11-.29.17.12.09.24.2.37.25.07.03.18-.06.34-.12-.35.31-.69.52-.91.83-.33.45-.96.4-1.28.84-.14.2-.54.37-.51.5.08.49-.27.45-.52.57-.17.08-.27.27-.43.38-.57.37-1.15.75-1.75,1.07-.72.39-1.47.73-2.21,1.1-.2.1-.39.21-.59.32-.18.1-.36.2-.53.3-.64-1.13-1.72-1.25-2.69-1.09-.12.02-.22.14-.33.21.09.12.14.2.21.31-.12.04-.21.07-.3.09-.98.16-1.85.59-2.67,1.12-.6.39-1.17.83-1.77,1.22-.15.1-.4.15-.56.09-.35-.12-.68-.32-.99-.47.23-.27.42-.49.62-.72-.22,0-.4-.4-.64-.14-.16.17-.2.46-.31.73-.16-.1-.35-.17-.47-.3-.13-.13-.22-.32-.34-.5.4-.07.21-.35.15-.54-.13-.37-.35-.71-.47-1.08-.11-.35-.11-.74-.23-1.08-.36-.94-.79-1.85-1.38-2.67-.18-.25-.26-.56-.42-.91.55,0,1,.02,1.44,0,.39-.02.8-.04,1.18-.14.32-.08.62-.28.93-.41,1-.43,2.01-.86,3.02-1.28.59-.24,1.21-.43,1.78-.71.34-.17.63-.46.93-.71.08-.07.17-.24.14-.3-.07-.12-.22-.3-.32-.29-.37.05-.72.16-1.08.25-.19.05-.37.16-.57.18-.43.04-.82.12-1.12.48-.16.18-.43.35-.66.37-.37.04-.66.26-1.01.32-.04-.04-.08-.09-.15-.18.01.13.02.21.03.31-.12-.04-.2-.07-.28-.1-.08.1-.14.23-.23.27-.61.23-1.21.48-1.84.63-.42.1-.88.07-1.31.04-1.06-.08-2.12-.17-3.17-.31-.37-.05-.74-.23-1.08-.39-.29-.14-.54-.38-.84-.52-.2-.1-.28-.22-.37-.42-.3-.69-.62-1.36-.99-2.02-.14-.26-.43-.44-.61-.68-.15-.2-.25-.44-.36-.67-.04-.09,0-.21-.04-.3-.1-.2-.47-.3-.24-.63,0-.01-.05-.08-.08-.11-.43-.35-.64-.87-.71-1.36-.08-.67-.55-1.22-.5-1.92,0-.02-.02-.04-.03-.07-.12-.32-.29-.64-.36-.97-.14-.68-.33-1.37-.33-2.06,0-.99.11-1.99.22-2.98.08-.8.22-1.59.34-2.38.04-.24.17-.47.19-.71.03-.33.01-.68,0-1.01,0-.07-.07-.14-.14-.27-.06.17-.08.27-.13.35-.1.17-.25.31-.34.48-.41.84-.37,1.81-.75,2.67-.14.31.01.72-.05,1.08-.19,1.05-.22,2.11-.19,3.17.03,1.02.16,2.03.51,2.99.14.4.39.75.58,1.14.05.11.06.25.07.37.01.22,0,.44.02.65.03.26.08.52.12.77.07.09.16.19.23.29.32.45.64.91.95,1.37.1.15.2.31.28.48.14.28.25.58.42.84.32.51.69.99,1,1.5.25.42.5.86.66,1.32.16.48.42.8.9.95.46.14.92.27,1.38.41.22.07.47.22.67.17.42-.11.73.1,1.16.23-.16.28-.35.5-.44.76-.26.77-.47,1.55-.73,2.32-.06.18-.23.35-.4.46-.47.28-.97.51-1.43.8-.79.48-1.57.99-2.36,1.48-.09.06-.22.07-.33.1-.24.07-.48.12-.71.2-.4.16-.79.36-1.19.51-.66.23-1.34.43-2,.65-.07.02-.13.09-.19.14-.28.22-.53.49-.93.45-.07,0-.15.04-.23.07-.41.17-.81.34-1.22.51-.02-.03-.04-.07-.05-.1-.02.09-.04.19-.05.28-.02-.03-.04-.07-.06-.1-.67.23-1.34.45-2.02.68,0,.08-.02.17-.03.25-.22.05-.47,0-.53.31,0,.05-.12.08-.2.11-.35.13-.7.25-1.04.39-.37.15-.73.35-1.11.48-.32.11-.66.13-.98.23-.69.21-1.26.59-1.83,1.15.25-.02.41-.03.61-.04-.04-.11-.07-.2-.11-.32ZM52.69,9.82c-.09,0-.19-.04-.28-.05-.44-.06-.46-.08-.39-.53-.42-.06-.67-.32-.84-.71-.08-.17-.31-.34-.5-.39-.33-.08-.68-.07-1.02-.1-.16-.02-.31-.06-.46-.09-.05-.01-.13-.05-.15-.03-.32.25-.5.06-.7-.17-.11-.13-.3-.18-.51-.3.18-.1.35-.2.52-.3,0-.02-.02-.04-.03-.06-.13.04-.25.07-.39.11-.08-.08-.16-.17-.25-.26-.46.38-.58.4-.84.16-.05-.05-.12-.1-.13-.16-.04-.21-.13-.34-.36-.37-.05,0-.08-.11-.12-.16-.31.34-.39.34-.63-.08-.22.26-.44.15-.63-.03-.22-.22-.33-.19-.36.07-.56-.12-1.12-.23-1.7-.35.11-.06.22-.13.33-.2,0-.03,0-.06,0-.09-.17-.01-.34-.05-.51-.03-.49.05-.97.22-1.46.02-.09-.04-.21-.03-.31,0-.3.06-.52-.05-.74-.24-.12-.1-.33-.17-.49-.15-.28.04-.48,0-.66-.23-.19-.24-.41-.4-.64-.26-.35-.16-.64-.29-.93-.42-.02,0-.06-.02-.07,0-.32.4-.45-.06-.66-.15-.23-.09-.45-.2-.67-.29-.24-.1-.48-.23-.74-.29-.19-.04-.43-.03-.6.05-.22.11-.27.02-.38-.13-.12-.17-.31-.28-.45-.44-.09-.1-.14-.24-.21-.38-.23-.15-.49-.34-.75-.51-.21-.14-.43-.26-.65-.39-.03-.02-.07-.02-.1,0-.37.11-.75.22-1.2.35,0-.14-.02-.31.01-.47.01-.05.19-.07.29-.07.54-.02,1.09-.02,1.63-.05.11,0,.23-.09.32-.17.26-.24.52-.33.86-.16.1.05.25.09.33.06.55-.25,1.1-.02,1.64.03.88.08,1.76.21,2.62.43.75.19,1.51.37,2.12.95.32.31.86.41,1.31.59.83.32,1.66.63,2.49.96.14.06.23.22.33.35.38.45.68.48,1.14.13.07-.05.22-.05.3,0,.25.14.47.32.72.46.14.08.31.09.48.14.28.2.57.41.87.62,1.15.77,2.3,1.53,3.45,2.3.07.05.17.12.17.19.03.33.26.38.52.41.38.04.51.22.46.59-.03.24-.17.33-.39.32ZM45.58,55.15c-.41.35-.72.84-1.31.94.37-.41.68-.9,1.31-.94ZM43.24,57.59c.3.16.65.3.95.52.32.23.64.5.76,1.05-.88-.32-1.68-.61-2.37-.86.2-.22.43-.47.65-.71ZM29.9,45.23c.52-.06,1.13.27,1.15.61-.5.06-.74-.36-1.15-.61ZM31.32,61.17c.21-.29.42-.59.64-.91.16.35-.14.81-.64.91ZM36.07,53.91c-.81,0-1.1-.72-1.61-1.14.03-.04.05-.07.08-.11.53.38,1.06.75,1.6,1.13-.02.04-.05.08-.07.12ZM33.59,51.01c.16-.52.33-1.04.49-1.56.03-.1.01-.21.03-.32.03-.19.08-.37.12-.56.04,0,.08,0,.12,0,.81,1.65,1.63,3.3,2.46,5-.82-.51-1.59-.99-2.36-1.46-.14-.08-.29-.15-.44-.22-.59-.27-.6-.28-.42-.88ZM33.41,52.28c-.06.28-.18.45-.51.51-.26.04-.5.24-.75.37-.05-.04-.13-.1-.21-.15.61-.72,1.08-.96,1.47-.73Z"/>
      <path class="cls-1" d="M23.4,89.51c.39-.19.06-.31-.06-.43.09-.12.17-.21.26-.33-.16-.12-.31-.21-.44-.32-.05-.04-.09-.18-.06-.2.35-.34-.02-.51-.11-.76-.01-.16-.14-.4-.09-.45.34-.34-.04-.36-.21-.48.25-.17.19-.31,0-.47-.14-.11-.25-.26-.4-.42.12,0,.23-.01.34-.02-.03-.17-.07-.32-.1-.49-.05,0-.12-.02-.2-.03.12-.17.23-.32.39-.52h-.43c0-.09.02-.17.01-.25,0-.1-.02-.2-.03-.31-.02-.27-.03-.54-.05-.81,0-.04-.08-.07-.12-.1-.19-.17-.19-.46-.02-.61-.07-.1-.19-.29-.19-.29.24-.18-.03-.27-.06-.39-.03-.16-.07-.31-.11-.47-.08-.33.18-.69-.09-.99-.12-.14-.07-.24-.06-.39,0-.45-.06-.9-.13-1.35-.02-.13-.13-.25-.22-.4.07-.02.15-.04.21-.05-.01-.18.04-.41-.05-.54-.26-.37-.04-.78-.18-1.16-.07-.18-.04-.39-.05-.59,0-.14.14-.3.12-.44-.03-.16-.2-.3-.31-.45.11-.03.22-.07.32-.1.01-.03.03-.07.04-.1-.15-.11-.3-.21-.48-.33.14-.05.26-.08.42-.14-.12-.16-.22-.28-.3-.42-.04-.07-.09-.22-.06-.25.24-.21.1-.42.05-.65-.05-.21-.09-.45-.03-.65.12-.41.11-.79-.06-1.18-.03-.06-.04-.15-.02-.2.19-.38.24-.78.11-1.19-.01-.04,0-.09,0-.14.01-.45.02-.89.04-1.34,0-.09,0-.23.05-.26.29-.19.12-.34,0-.45.06-.26.14-.47.16-.69.04-.35.05-.7.07-1.05,0-.08-.02-.16-.01-.24.02-.2-.02-.5.09-.57.44-.28.01-.61.15-.86h-.38c-.36.3-.49.66-.51,1.08,0,.12-.11.24-.17.36-.12-.08-.29-.13-.36-.24-.16-.24-.24-.15-.36.03.53.18-.09.52.14.79.21-.41.34-.15.42.05.05.14.01.32.03.49.01.17.04.34.05.51.02.21.05.42.05.64,0,.35.13.78-.03,1.05-.17.28-.23.49-.17.79.02.1-.02.21-.03.31,0,.07-.02.16.02.2.3.3,0,.56-.07.85l-.09-.17s-.05.05-.07.07c.1.1.19.19.32.33,0,.28.01.62,0,.96-.02.35-.07.69-.11,1.04.2-.05.22.08.21.28-.02.37,0,.74-.01,1.11,0,.23-.03.46-.02.69,0,.3-.03.63.08.89.17.39.31.74.07,1.14-.13.22-.09.86.1,1.06-.34-.02-.1.39-.41.45-.05.01-.03.41-.03.6.28-.17.52-.32.81-.5-.11.58-.26,1.09-.3,1.61-.03.51.05,1.03.09,1.63.05-.18.08-.29.12-.43.21.58.4,1.13.59,1.67.02.06.05.12.04.17-.1.47-.01.91.14,1.35.06.19.14.41.09.58-.11.38.07.47.43.48-.1.28-.18.53-.25.74.1.17.25.31.26.46.01.43-.04.86-.05,1.29,0,.11.03.26.11.32.35.28.42.69.45,1.06,0,.12.02.24.04.36.35.13.7.26,1.05.38-.03-.05-.05-.1-.09-.16.42-.48-.17-.7-.28-1.06Z"/>
      <path class="cls-1" d="M59.38,74.32c.29-.22.56-.48.84-.71.48-.39.98-.76,1.46-1.15.2-.15.38-.34.6-.46.59-.33,1.21-.62,1.8-.96.2-.12.34-.34.52-.49.61-.51,1.26-.96,1.94-1.38.05-.03.13-.08.13-.12,0-.44.4-.35.62-.49.07-.04.14-.06.21-.1.86-.58,1.7-1.18,2.57-1.73.46-.29.98-.49,1.47-.75.07-.04.09-.15.15-.26.01,0,.1.04.17.03.45-.09.91-.15,1.34-.29,1.31-.4,2.63-.55,3.99-.34.66.1,1.35.15,1.9.57.27.21.57.47.68.77.17.48.18,1.02.3,1.52.05.19.2.5.32.51.4.02.34.28.36.51.04.43.09.86.14,1.29,0,.08.06.17.04.24-.17.76-.04,1.55-.19,2.32-.16.81-.1,1.66-.13,2.49-.05,1.51-.09,3.01-.15,4.52-.03.77-.03,1.55-.13,2.31-.07.53.01,1.07-.06,1.61.42-.35.82-.71,1.21-1.08.02-.12.03-.23.06-.35.06-.31-.07-.66-.05-.98.03-.51.1-1.02.18-1.53.1-.68.17-1.37.11-2.06-.04-.4.37-.73.19-1.15-.04-.1-.05-.21-.08-.32,0-.16-.05-.33-.02-.49.03-.17.12-.34.17-.51.01-.05-.1-.11-.1-.17-.03-.37-.14-.77-.03-1.1.09-.26.03-.31-.07-.36.07-.25.21-.49.16-.66-.09-.3-.04-.55,0-.84.05-.54.36-.99.38-1.54.02-.44.31-.86.44-1.29.08-.27.19-.58.13-.83-.11-.48-.34-.93-.48-1.3-.19-.12-.33-.17-.44-.27-.29-.26-.58-.54-.86-.82-.08-.08-.16-.16-.24-.24-.21-.19-.42-.37-.63-.57-.17-.17-.34-.34-.51-.51-.12-.12-.23-.24-.36-.33-.15-.11-.31-.21-.48-.29-.18-.09-.38-.14-.58-.21-.39-.14-.78-.28-1.18-.41-.05-.02-.11.03-.16.03-.11,0-.22.01-.33.01-.13,0-.28-.07-.37-.02-.28.15-.54.2-.81-.01-.03-.03-.11,0-.17,0-.69.16-1.38.32-2.07.49-.17.04-.32.14-.48.2-.3.12-.6.23-.9.35-.28.11-.58.2-.84.35-.28.16-.51.41-.79.58-.97.58-1.97,1.11-2.93,1.71-.65.4-1.25.88-1.89,1.32.11.16.16.25.22.34-.4.21-.8.36-1.15.6-1.16.77-2.3,1.58-3.33,2.53-.79.73-1.67,1.37-2.53,2.02-.28.21-.07.5-.23.7.07.02.16.07.2.04.26-.15.53-.31.77-.49Z"/>
      <path class="cls-1" d="M27.53,17.03c-.23,1.12-.45,2.17-.66,3.22l.1.02c.18-.66.35-1.32.53-1.97.04,0,.08.02.12.03-.07.33-.11.68-.21,1-.28.82-.34,1.67-.38,2.53-.02.32.08.67-.24.91-.03.02-.03.09-.03.13.04.38.08.75.12,1.12.03.28.16.41.46.29.16-.07.34-.11.5-.16.51-.17.99-.37,1.56-.11.28.12.64.05.99.07.63.94.39,1.91-.06,2.87-.28.59-.63,1.16-.82,1.78-.25.8-.39,1.64-.57,2.47-.01.05,0,.09,0,.14-.08.74.39,1.27,1.17,1.24.81-.03,1.62-.11,2.44-.17.37-.03.69.04.87.44.08.18.09.26-.08.37-.4.26-.82.42-1.3.38-.87-.07-1.74-.14-2.61-.23-.13-.01-.25-.09-.48-.17.15-.06.22-.07.26-.1.05-.05.11-.13.1-.18-.02-.06-.14-.14-.16-.12-.23.14-.31-.05-.42-.18-.38-.47-.42-1.03-.33-1.58.14-.84.32-1.68.57-2.49.15-.5.47-.94.7-1.41.2-.4.4-.8.58-1.21.11-.25.06-.46-.26-.52-.17-.03-.34-.07-.52-.11-.28.48-.79.25-1.21.42.02-.06.02-.08.03-.09.1-.11.2-.21.3-.32-.14-.07-.27-.18-.41-.21-.29-.06-.6-.04-.88-.12-.44-.13-.7-.42-.77-.9-.07-.48-.21-.94-.29-1.42-.01-.08.05-.21.12-.25.17-.11.21-.23.03-.3-.29-.11-.18-.24-.08-.39.06-.08.11-.17.15-.24-.07-.04-.16-.07-.16-.1.01-.21.06-.41.06-.62,0-.26.13-.52-.06-.79-.14-.19-.1-.37.17-.46.19-.06.28-.16.05-.31-.05-.03-.08-.11-.08-.17,0-.27,0-.54,0-.83.1,0,.18,0,.25-.01-.29-.32-.25-1.08.06-1.19-.05-.06-.1-.13-.14-.19.03,0,.06,0,.1,0,.02-.15.08-.31.05-.45-.09-.33-.19-.63.04-.97.08-.12-.03-.37-.05-.53.17-.15.35-.3.53-.46-.02-.03-.04-.07-.06-.1.08.03.15.06.19.08.13-.24.25-.48.37-.72.03,0,.06,0,.09,0,.06.43.41.8.09,1.3-.11.17-.05.43-.08.65-.05.38-.08.77-.16,1.14-.03.13-.17.23-.2.27Z"/>
      <path class="cls-1" d="M28.41,36.69c.29-.32.67-.39.93-.13.21.22.42.13.64.08.33-.07.65-.17.98-.18.39-.02.79.06,1.19.06.15,0,.3-.08.46-.12.16-.04.31-.09.47-.09.42-.02.84-.01,1.26-.01.15,0,.3.02.46.02.34,0,.68-.02,1.02,0,.27.02.54.11.81.12.44.03.89.02,1.34.02.12,0,.23-.02.42-.03-.34.3-.61.51-1.04.57-.59.08-1.22-.07-1.79.25-.17.1-.43.01-.65.04-.17.02-.34.09-.51.14-.04.01-.11.04-.13.02-.31-.25-.48.05-.71.16-.22.11-.48.16-.73.19-.39.04-.79.06-1.18.05-.29,0-.59-.07-.88-.1-.34-.03-.68-.07-1.02-.08-.68-.03-1.08-.41-1.33-.99Z"/>
      <path class="cls-1" d="M40.07,22.76c-.39-.07-.79-.13-1.18-.19-.06,0-.14,0-.2.02-.55.13-1.09.22-1.66-.02-.2-.08-.47-.01-.7,0-.58.04-1.15.13-1.73.14-.34,0-.69-.76-.51-1.08.04-.08.19-.13.29-.14.22-.01.44.01.66.02.06,0,.15.01.17-.02.29-.55.77-.2,1.16-.25.43-.05.88-.06,1.31-.05.63.02,1.27.04,1.89.13.39.06.59.52.53.9-.02.13-.02.26-.03.51Z"/>
      <path class="cls-1" d="M35.13,24.09c.56-.11,1.09-.21,1.61-.33.13-.03.28-.07.38-.15.23-.2.44-.12.68-.04.35.13.74.35,1.08.31.4-.05.71.14,1.07.17.04,0,.12.03.12.06.03.28.09.56.06.83,0,.08-.25.18-.4.19-.25.02-.52-.05-.76-.02-.14.02-.26.18-.41.3-.38-.13-.79-.27-1.2-.41,0,.02,0,.03-.01.05.1.05.19.1.34.18-.18.18-.32.34-.47.49-.13-.2-.27-.4-.46-.69-.55-.03-1.21-.15-1.61-.94Z"/>
      <path class="cls-1" d="M26.26,61.48c-.27-.12-.5-.23-.78-.35-.08.2-.13.41-.24.58-.19.26-.39.52-.63.73-.5.45-1.02.87-1.54,1.29-.21.16-.44.31-.68.41-.12.05-.29-.01-.43-.03.03-.11.05-.23.09-.34.32-.76,1.06-1.06,1.66-1.51.36-.27.71-.54,1.06-.82.18-.14.08-.26-.06-.33-.41-.21-.84-.39-1.24-.61-.15-.08-.38-.33-.35-.38.15-.28.38-.51.58-.76.21.17.58.04.68.45.04.18.27.35.44.47.35.24.69.49,1.13.56.28.04.38.28.31.64Z"/>
      <path class="cls-1" d="M33.43,39.48c-.07.11-.11.19-.16.26-.04,0-.06.01-.08,0-.15-.04-.3-.11-.45-.1-.42,0-.83.06-1.25.06-.39,0-.55-.28-.7-.65.42-.06.8-.12,1.18-.16.82-.09,1.65-.17,2.47-.24.43-.04.86-.04,1.28-.04.05,0,.15.11.14.15-.02.14-.03.36-.12.41-.64.34-1.32.54-2.05.4-.09-.02-.17-.06-.28-.11Z"/>
      <path class="cls-1" d="M10.45,63.26s-.07-.03-.1-.04c-.01-.17-.03-.35-.04-.52h.53c-.13-.41-.05-.5.35-.54.1-.01.2-.1.3-.15-.02-.04-.03-.08-.05-.11-.07.02-.16.07-.21.05-.1-.05-.17-.14-.26-.21.32-.19.08-.73.63-.84.36-.07.63-.52.98-.73.16-.1.43-.1.61-.05.36.1.37.29.09.57-.06.06-.04.2-.06.34-.37.28-.78.59-1.19.89-.33.25-.68.48-1,.75-.22.18-.4.4-.59.61Z"/>
      <path class="cls-1" d="M54.88,27.9c-.15.11-.26.2-.39.29.24.41.37.93.98,1.05-.5.03-.95.06-1.4.07-.43,0-.65-.35-.58-.92.05-.34.22-.62.54-.78.26-.13.51-.06.73.11.05.04.08.11.12.17Z"/>
      <path class="cls-1" d="M30.98,77.8c.06-.08.13-.15.19-.23.02,0,.04.02.05.02-.05.31-.11.61-.16.92-.12.7-.24,1.41-.38,2.11-.02.12-.13.23-.2.35h0c.02-.14.05-.28.05-.43,0-.21.02-.43-.02-.63-.01-.05-.21-.07-.32-.11,0-.11.01-.26.02-.42.08.03.17.07.29.11.16-.58.32-1.15.47-1.72,0,0,0,.01,0,.01Z"/>
      <path class="cls-1" d="M39.84,61.13c-.7-.15-.78-.97-1.44-1.17.01-.03.04-.08.06-.13.17-.38.18-.39.45,0,.11.15.17.33.28.47.14.19.3.35.45.54.08.09.14.2.2.3Z"/>
      <path class="cls-1" d="M44.59,81.7c-.76.14-1.44.65-2.32.44.81-.2,1.55-.38,2.3-.57,0,.04.02.08.02.13Z"/>
      <path class="cls-1" d="M30.14,82.25c.13.97-.26,1.86-.45,2.78-.02.08-.03.16-.04.24-.02-.04-.05-.08-.07-.12.19-.97.38-1.93.56-2.9Z"/>
      <path class="cls-1" d="M39.22,53.9c.12.05.25.09.37.14-.23.45-.47.51-.72.18.12-.08.25-.16.38-.23-.01-.03-.02-.06-.03-.09Z"/>
      <path class="cls-1" d="M30.49,80.98c-.08.39-.15.79-.23,1.21-.24-.38-.04-.8-.09-1.21.14,0,.23,0,.32,0,0,0,0,0,0,0Z"/>
      <path class="cls-1" d="M45.5,64.96c.1.19.2.38.34.63-.48-.05-.37-.36-.46-.56.04-.02.08-.05.12-.07Z"/>
      <path class="cls-1" d="M38.54,53.5c.13-.33.47-.5.77-.36-.26.12-.52.25-.77.36Z"/>
      <path class="cls-1" d="M28.72,89.6c.09.34-.02.5-.42.46.16-.18.29-.32.42-.46Z"/>
    </g>
  </g>
</svg>