<?xml version="1.0" encoding="UTF-8"?>
<svg id="Layer_2" data-name="Layer 2" xmlns="http://www.w3.org/2000/svg" viewBox="0 0 72.66 45.52">
  <defs>
    <style>
      .cls-1 {
        fill: #000;
        stroke-width: 0px;
      }
    </style>
  </defs>
  <g id="illustrations">
    <g>
      <path class="cls-1" d="M72.66,18.39c0-.36-.05-.71-.09-1.07-.04-.41-.04-.84-.16-1.22-.09-.28-.12-.51-.05-.79.16-.68-.04-1.34-.19-2.01.21-.07.14-.62-.1-.86.03-.11.08-.21.06-.28-.08-.29-.17-.57-.28-.85-.26-.68-.68-1.27-1.14-1.83-.23-.28-.57-.47-.84-.72-.44-.4-.99-.57-1.54-.74-.63-.2-1.25-.42-1.88-.61-.22-.07-.46-.11-.69-.12-.54,0-1.09,0-1.63.03-.27.02-.59.04-.79.19-.61.47-1.26.89-1.82,1.44-.66.65-1.2,1.38-1.61,2.23-.26.53-.65.99-1.17,1.31-.79.49-1.6.95-2.54,1.07-.34.04-.67.08-1.01.08-.2,0-.39-.1-.59-.13-.3-.04-.62-.01-.92-.09-.49-.12-.87-.42-1.18-.82-.2-.25-.44-.35-.77-.39-.48-.05-.98-.14-1.4-.35-.31-.16-.51-.12-.76.02-.06.03-.17.06-.21.03-.28-.2-.6-.38-.82-.64-.34-.39-.75-.63-1.2-.85-.54-.27-1-.64-1.33-1.15-.06-.1-.02-.25-.04-.38,0-.09,0-.24-.05-.27-.14-.09-.31-.13-.48-.18-.16-.05-.34-.07-.48-.14-.15-.08-.27-.23-.43-.31-.52-.29-.95-.76-1.56-.89-.06-.01-.11-.09-.17-.14-.17-.14-.33-.31-.52-.4-.22-.1-.47-.14-.74-.21,0-.01-.05.06-.06.06-.23-.17-.62-.04-.76-.39-.01-.03-.09-.05-.13-.05-.21,0-.42.02-.62,0-.3-.03-.6-.1-.91-.12-.34-.02-.47.17-.4.5-.31.13-.34.12-.61-.32.04-.11.07-.3.06-.31-.21-.05-.43-.09-.64-.11-.11,0-.23.05-.34.04-.08,0-.16-.07-.24-.1.01-.02.03-.04.04-.07.06.01.14.06.19.04.35-.19.63-.45.82-.81.1-.19.19-.39.3-.58.17-.27.37-.54.31-.88-.06-.34-.14-.69-.26-1.01-.13-.33-.31-.66-.5-.96-.18-.28-.3-.62-.63-.79-.17-.09-.33-.21-.51-.29-.12-.06-.26-.09-.39-.11-.16-.02-.34.02-.5-.03-1.05-.3-1.96.18-2.89.51-.26.09-.44.41-.66.62-.32.3-.45.68-.51,1.09-.07.53.22.97.37,1.45.16.52.5.86.93,1.14.25.16.33.39.4.65.05.2,0,.29-.21.33-.57.11-1.15.05-1.72.23-.53.17-1.17-.02-1.62.45-.02.02-.05.02-.08.02-.33.07-.65.14-.98.22-.28.07-.56.14-.75.4-.18.24-.37.46-.72.49-.18.02-.36.12-.5.17-.03.11-.03.24-.09.27-.3.16-.59.36-.96.31-.21-.02-.46-.06-.63.03-.29.15-.45.08-.58-.19-.27.12-.44.31-.56.56-.06.13-.19.25-.32.31-.28.14-.59.23-.88.36-.32.15-.61.35-.99.32-.06,0-.14.03-.2.06-.55.33-1.1.66-1.64,1.01-.18.12-.32.3-.49.43-.06.05-.16.04-.25.06-.1.2-.23.43-.33.68-.06.16-.08.35-.08.52,0,.15.07.3.1.45,0,.01-.03.04-.05.06-.04-.06-.08-.12-.13-.21-.14.35.1.52.25.69.16.18.39.29.53.38-.11.08-.27.19-.42.3-.04.02-.08.04-.11.07-.5.43-1.16.65-1.58,1.2-.02.03-.06.04-.09.06-.18.11-.36.23-.55.33-.28.15-.49.45-.86.38-.02,0-.05,0-.07.02-.48.31-.96.62-1.43.94-.27.19-.54.39-.78.61-.13.13-.2.3-.39.07-.02-.03-.13.02-.23.03.02-.06.07-.13.05-.15-.14-.24-.28-.49-.45-.7-.4-.51-.88-.97-1.23-1.51-.58-.89-1.08-1.83-1.62-2.75-.03-.06-.04-.13-.07-.2-.09-.23-.17-.47-.28-.68-.33-.61-.53-1.26-.72-1.92-.34-1.21-.98-2.16-2.28-2.51-.7-.19-1.39-.41-2.09-.59-.69-.18-1.38-.33-2.07-.5-.1-.02-.2-.04-.3-.08-.2-.08-.4-.17-.6-.27-.19-.09-.37-.18-.56-.27-.1,0-.32-.09-.34.19,0,.04-.28.07-.46.11-.11.15.02.26.11.4.16.24.36.48.44.75.36,1.27,1.06,2.35,1.81,3.4.64.89,1.03,1.89,1.47,2.86.06.13.02.3.06.44.2.64.43,1.28.6,1.93.15.57.1,1.18.41,1.75.2.34.19.81.25,1.22.06.42.09.85.12,1.28.03.48.05.96.06,1.44,0,.39-.04.77-.04,1.16,0,.63.03,1.27.07,1.9.02.39.09.77.16,1.16.02.1.1.19.13.29.03.13,0,.28.04.4.16.42.32.85.53,1.24.29.53.57,1.07.96,1.53.34.4.62.82.87,1.28.17.32.39.61.61.9.2.27.52.49.61.78.13.43.37.73.68,1,.51.44,1.03.86,1.54,1.3.4.34.77.69,1.29.87.25.09.49.29.66.51.1.13.16.26.33.33.34.14.7.26,1,.47.46.32.86.71,1.29,1.06.12.1.24.2.37.28.17.11.38.17.52.31.34.34.71.62,1.11.87,1.32.18,2.43.9,3.45,1.77,1.35,1.15,2.59,2.24,4.27,2.91,1.79.71,3.7,1,5.6,1.22,2.01.23,4.06.48,6.08.24.14-.02.24.02.32.07.3-.01.59-.02.89-.05.82-.07,1.65-.11,2.47-.25.86-.14,1.71-.37,2.55-.59.33-.08.63-.27.95-.37.48-.16.89-.46,1.33-.68.93-.77,2.11-1.12,3.15-1.71.16-.09.33-.09.48-.04.22-.43.58-.71,1.05-.92.72-.32,1.28-.6,1.87-1.13.55-.49,1.1-.98,1.65-1.47.63-.57,1.25-1.16,1.83-1.78.11-.14.23-.27.35-.4.06-.07.13-.13.19-.2.27-.31.53-.64.76-.97-.07-.12.05-.24.1-.39.01.07.04.12.06.15.29-.44.56-.92.99-1.24.54-.41,1.21-.53,1.86-.67.04,0,.08,0,.12,0,.08-.04.15-.08.23-.11.97-.44,1.93-.89,2.84-1.31.02,0,.03.02.05.03,0,0,0,0,.01-.01.04-.03.09-.05.13-.08-.01,0-.02,0-.03,0,.07-.11.15-.18.23-.25.06-.05.13-.09.18-.14.19-.18.36-.38.56-.55.43-.38.87-.75,1.31-1.11.35-.29.68-.61,1.06-.86.27-.18.43-.41.63-.65.18-.22.26-.51.5-.7.18-.14.31-.34.46-.51.15-.18.29-.37.46-.54.3-.32.67-.6.91-.96.48-.7.91-1.45,1.35-2.18.08-.13.16-.27.23-.41.31-.57.61-1.13.92-1.7.02-.04.04-.12.02-.15-.18-.29.01-.57,0-.85,0-.17,0-.34-.05-.51-.04-.15-.05-.25.05-.39.08-.11.13-.28.12-.41ZM33.28,3.34c-.19-.32-.37-.61-.55-.91l.05-.09c.37.26.33-.14.5-.23-.03.09-.06.18-.08.28.15.14.21.65.08.95ZM68.08,8.88c.47.2.95.39,1.42.61.11.05.19.22.25.35.09.23.17.46.21.7.02.13-.04.28-.07.47-.45-.87-1.36-1.26-1.88-2.02.03-.04.06-.08.08-.11ZM39.67,6.52c-.24.03-.43.06-.62.07-.02,0-.09-.13-.07-.16.07-.13.55-.09.69.09ZM35.15.6c.1-.03.2-.06.29-.11.39-.23.57-.22.91.06.11.09.24.17.31.23.23.64-.18.95-.59,1.27-.03.02-.06.04-.09.05-.17.09-.3.19-.11.46-.17-.03-.27-.04-.31-.05-.06.09-.1.17-.17.23-.24.2-.48.4-.73.59-.06.05-.15.09-.23.09-.04,0-.11-.09-.12-.14-.09-.39-.21-.79-.25-1.19-.07-.56.53-1.34,1.08-1.48ZM36.06,5.24c-.19.07-.34.26-.51.4-.05.04-.14.1-.18.08-.09-.04-.21-.11-.23-.2-.06-.22-.07-.46-.1-.76.24.1.43-.2.65.02.02.02.1-.02.14-.05.15-.09.32-.06.34.1.02.12.16.31-.11.41ZM34.14,5.54c.08.07.16.13.23.2,0,0,0,.02.01.06-.06.03-.13.07-.23.14.03-.32-.2-.25-.36-.28.1-.28.14-.3.34-.12ZM26.65,8.65c.11-.06.21-.13.31-.21.3-.25.65-.31,1.02-.33.12,0,.27-.12.35-.22.18-.23.65-.39.94-.27.26-.33.59-.59.99-.71.4-.12.82-.17,1.23-.26.08-.02.2-.06.21-.12.06-.25.19-.17.36-.12.54.16,1.04.42,1.63.43.28,0,.56.14.85.2.24.05.51-.06.71.18.02.02.17-.01.2-.06.13-.19.31-.22.51-.21.19,0,.37-.03.49-.2.04-.06.12-.11.19-.13.08-.02.17-.01.25-.01v.28c.15.19.34.27.66.22.78-.13,1.57-.18,2.35-.27.12-.01.24-.1.34-.14.21.19.45.39.68.6.46.42,1.03.59,1.6.79.3.11.6.22.9.35.09.04.16.1.31.2-.22.05-.37.08-.52.12-.43.13-.85.28-1.28.41-.16.05-.33.06-.49.08-.58.09-1.16.22-1.75.28-.69.07-1.38.09-2.08.12-.69.02-1.36.11-2.03.31-.18.05-.39,0-.59.03-.3.04-.6.1-.9.15-.37.06-.71-.05-1.05-.15-.24-.07-.5-.13-.75-.12-.59.03-1.17.12-1.75.17-.28.02-.57.14-.84-.04-.02-.01-.07,0-.1.02-.22.11-.42.14-.6-.09-.04-.06-.17-.06-.27-.06-.16,0-.31,0-.5,0-.03.03-.1.09-.21.19,0-.13,0-.19-.01-.29-.1,0-.19,0-.26.03-.21.09-.32-.01-.4-.18-.05-.12-.09-.24-.15-.36-.03-.05-.1-.12-.15-.12-.16.02-.31.07-.52.12h-.97c.36-.19.73-.38,1.09-.58ZM32.54,10.19c-.23.03-.45.06-.68.1,0-.03,0-.05-.01-.08.21-.14.43-.18.69-.01ZM19.54,12.8c-.36-.28-.13-.87.26-.98.1-.03.21-.04.32-.07,0-.01,0-.03-.01-.04.88-.26,1.65-.64,2.42-1.03.39-.19.83-.29,1.25-.41.22-.06.44-.04.51-.37.04-.19.28-.34.44-.49.03-.03.14.06.2.04.43-.13.62.28.93.39.69.25,1.34.66,2.12.57.06,0,.13,0,.18.03.51.27,1.05.09,1.57.08.14,0,.28.04.42.06.1,0,.2.01.3,0,.23-.02.46-.06.69-.08.38-.03.77-.06,1.15-.07.46-.02.91-.04,1.37-.06.23-.01.47-.03.7-.04.83-.04,1.67-.08,2.51-.12.25-.01.5-.04.76-.07,0,.04.01.08.02.12-.11.01-.21.04-.32.04-.16,0-.28.06-.26.25.02.2.16.14.28.14.64,0,1.29.03,1.93.02.52,0,1.05.04,1.57-.1.35-.1.74-.05,1.1-.11.68-.11,1.33-.3,1.92-.66.12-.07.25-.13.38-.18.21-.09.38-.01.51.19.33.5.71.96,1.22,1.26.59.34,1.24.58,1.86.86.04.02.08.07.11.12.03.04.05.13.09.14.32.04.41.29.52.57-.14.07-.26.16-.4.21-.03.01-.06.03-.09.04-.02.1-.05.19-.13.28-1.12,1.32-3.19,1.85-4.81,2.21-2.05.46-4.15,1.07-6.27,1.01-2.19-.06-4.21-.96-6.37-1.18-2.05-.21-4.15.76-6.13-.14-.87-.39-1.51-1.16-2.44-1.44-.86-.26-1.66-.37-2.39-.95ZM56.09,36.26c-.14-.21.4-1.01,1.05-1.56.02.01.04.03.06.04-.37.51-.74,1.01-1.1,1.52ZM58.81,30.18s-.03.02-.04.03c-.29.54-.86.47-1.34.59-.5.13-1.03.18-1.49.39-1.08.5-2.25.63-3.39.89-.89.2-1.79.4-2.69.57-.76.14-1.54.24-2.31.35-.55.08-1.08.23-1.62.35-.7.15-1.42.16-2.13.22-.73.06-1.46.1-2.19.19-.48.06-.95.18-1.42.27-.31.06-.62.14-.93.17-.3.03-.6-.02-.9,0-.58.04-1.16.11-1.74.15-.13,0-.27-.07-.41-.1-.11-.03-.22-.06-.33-.05-.13.01-.25.08-.38.1-.13.02-.27.09-.38-.08-.03-.04-.13-.05-.19-.05-1.54-.06-3.08-.11-4.63-.18-.52-.02-1.04-.08-1.55-.12-.2-.01-.41,0-.61-.03-.19-.02-.38-.06-.56-.12-.3-.09-.6-.09-.89.05-.06.03-.15.03-.22.02-.63-.06-1.26-.12-1.9-.18-.09,0-.19.04-.29.03-.07,0-.14-.05-.21-.08-.08-.04-.17-.09-.25-.11-1.01-.13-2.02-.25-3.02-.38-.25-.03-.5-.09-.75-.14-.02,0-.04-.02-.05-.02-.38.1-.68-.16-1.03-.21-.36-.05-.7-.17-1.05-.24-.27-.05-.55-.07-.83-.11-.32-.04-.65-.07-.97-.11-.1-.01-.22-.03-.31-.08-.32-.19-.68-.17-1.02-.24-.44-.09-.87-.23-1.3-.35-.8-.23-1.59-.47-2.39-.71-.07-.02-.16-.05-.21-.1-.15-.15-.29-.13-.48.04.27.14.53.29.79.4.4.17.82.32,1.23.47,1.03.38,2.1.63,3.17.87.54.12,1.07.23,1.61.32.33.05.66.06.98.09.04.33.04.32.33.21.08-.03.18-.05.26-.03.41.11.82.24,1.23.35.29.08.58.18.88.23.22.04.45,0,.7,0,.05.13.18.18.38.2.47.03.94.1,1.41.18.38.06.74.2,1.12.24.3.03.61-.06.91-.08.23-.01.46,0,.69,0,0,.03,0,.05,0,.08-.19.02-.39.04-.58.06,0,.02,0,.04,0,.06.42.07.84.17,1.26.21.63.07,1.27.1,1.9.14.53.03,1.06.05,1.58.06.7.02,1.4.05,2.09.06,1.03,0,2.07.03,3.1-.01,1.17-.05,2.35-.14,3.52-.24.53-.04,1.06-.15,1.6-.22.89-.11,1.78-.21,2.67-.31.69-.08,1.39-.16,2.08-.26.42-.06.82-.2,1.24-.28.18-.04.37-.02.55-.03.52-.04,1.03-.07,1.52-.33.31-.16.71-.16,1.08-.22.35-.06.71-.08,1.06-.14.41-.06.81-.12,1.21-.2.49-.1.98-.23,1.46-.34.41-.1.82-.2,1.23-.28.54-.11,1.03-.35,1.56-.49.52-.14,1.05-.23,1.57-.35.22-.05.43-.14.71-.24-.07.27-.1.5-.18.71-.16.42-.34.84-.52,1.25-.1.23-.23.45-.36.67-.26.43-.52.86-.78,1.29-.2.33-.36.71-.82.77-.23.03-.23.15-.09.3-.21.16-.41.31-.34.61,0,.02-.05.09-.07.09-.42.04-.58.42-.86.64-.42.32-.85.63-1.25.97-.45.38-.88.78-1.33,1.17-.16.14-.35.24-.51.37-.27.2-.42.54-.78.65-.33.11-.65.26-.97.4-.05.02-.11.03-.14.06-.36.29-.79.25-1.21.22-.31-.02-.5.08-.62.35-.06.13-.19.26-.32.33-.57.3-1.19.53-1.72.89-.39.27-.84.34-1.23.56-.05.02-.11.05-.15.04-.4-.08-.76.15-1.16.17-.46.02-.92.27-1.38.43-.05.02-.09.06-.14.07-.54.02-.98.45-1.54.36-.05,0-.11.02-.17.04-.13.04-.26.1-.39.1-.9.04-1.81.08-2.71.08-.49,0-.98-.07-1.47-.12-.18-.02-.37-.03-.55-.05-.93-.1-1.87-.24-2.81-.3-.6-.04-1.15-.21-1.72-.38-.15-.04-.34.04-.49,0-.74-.17-1.48-.35-2.2-.56-.72-.21-1.41-.51-2.14-.68-.62-.15-1.09-.55-1.62-.86-.12-.07-.17-.25-.26-.41.13.03.29.05.42.1.44.17.87.39,1.32.52.28.08.59.03.89.03.07,0,.14,0,.21.02.98.35,1.99.54,3.03.61.91.06,1.81.16,2.72.18.81.02,1.62-.02,2.44-.06.7-.04,1.41-.12,2.06-.18.02,0-.02,0-.11-.04.48-.25,1.01.05,1.45-.24-.67,0-1.32,0-1.97,0-.5,0-.99,0-1.49.02-1.09.06-2.17-.04-3.26-.04-1.01,0-1.99-.22-2.98-.37-.08-.01-.16-.03-.24-.03-.23,0-.41-.05-.39-.27-.71-.12-1.41-.23-2.1-.34-.03,0-.08.01-.11.04-.27.21-.53.14-.79,0h0c-.24-.05-.48-.11-.71-.17,0-.03,0-.05,0-.08.05-.03.1-.06.21-.13-.1-.06-.18-.13-.27-.16-.28-.1-.58-.16-.86-.27-.67-.28-1.33-.57-1.99-.86-.54-.24-1.08-.48-1.62-.73-.2-.09-.38-.22-.58-.32-.27-.14-.56-.26-.83-.41-.25-.13-.48-.28-.72-.42-.09-.05-.21-.07-.31-.1-.03-.01-.09-.02-.09-.04-.1-.36-.48-.38-.7-.61-.27-.28-.62-.49-.94-.71-.63-.45-1.27-.88-1.9-1.33-.39-.28-.78-.58-1.15-.89-.86-.74-1.72-1.47-2.36-2.42-.58-.85-1.16-1.69-1.75-2.54-.22-.32-.47-.62-.7-.94-.08-.11-.13-.24-.17-.37-.12-.33-.18-.68-.4-.98-.17-.23-.25-.55-.31-.84-.14-.73-.28-1.47-.32-2.22-.04-.84.06-1.66.09-2.49.02-.46-.03-.93-.07-1.39-.06-.76-.27-1.49-.49-2.22-.15-.5-.2-1.03-.32-1.54-.06-.24-.18-.47-.25-.71-.09-.3-.16-.61-.23-.92-.17-.76-.45-1.48-.83-2.15-.37-.66-.77-1.3-1.16-1.95-.15-.26-.32-.51-.48-.77.35-.16.62-.09.88.15.17.16.39.28.56.44.14.13.31.25.27.51-.01.07.13.18.22.26.19.19.42.35.57.56.24.34.42.71.63,1.07.03.04.05.1.09.13.28.19.34.5.44.8.13.36.31.7.47,1.05.22.48.44.97.67,1.45.09.19.19.38.27.57.05.12.08.24.11.36.04.15.06.3.12.44.21.5.44,1,.66,1.49.22.48.43.97.67,1.44.16.3.39.56.54.87.28.6.78.99,1.25,1.41.16.15.28.34.45.5.03-.67-.32-1.2-.57-1.76-.02.02-.03.04-.05.05-.08-.08-.2-.15-.25-.25-.32-.61-.63-1.22-.93-1.84-.22-.47-.4-.96-.62-1.43-.46-.95-.93-1.9-1.39-2.85-.12-.26-.17-.56-.31-.81-.63-1.1-1.25-2.2-1.94-3.26-.32-.49-.78-.9-1.18-1.33-.19-.21-.39-.4-.59-.6-.17-.16-.35-.31-.51-.47-.24-.23-.47-.47-.71-.72.17-.16.36-.13.55-.09.43.1.88.18,1.3.3.81.23,1.61.48,2.42.73.06.02.13.05.15.09.27.57.78.93,1.15,1.42.04.06.07.12.1.18.33.71.64,1.43.99,2.13.24.49.53.96.81,1.43.31.51.64,1.02.95,1.53.06.09.07.21.09.32.04.21.06.43.11.64.01.05.1.09.17.14-.08.16-.08.3.12.4.04.02.07.1.07.15-.01.25.12.33.35.37.14.02.27.15.4.21.47.23.94.46,1.43.7-.03.12-.07.27-.1.42,0,.04.01.12.04.14.05.02.13.02.16,0,.23-.24.52-.28.82-.34.08-.01.14-.15.19-.24.05-.08.06-.2.12-.24.29-.2.59-.38.9-.55.48-.27.97-.53,1.46-.79.54-.29,1.1-.57,1.63-.88.2-.12.34-.35.54-.46.3-.17.64-.27.96-.41.17-.07.33-.14.51-.21.13-.05.21-.01.31.1.09.09.29.12.44.1.35-.04.67-.05.95.22.2.19.42.37.65.54.24.18.49.37.76.49.48.21.98.39,1.53.38.6,0,1.2.03,1.8.01.3,0,.6-.11.91-.16.21-.03.46-.12.62-.04.32.17.6,0,.9.01.38.02.76.11,1.12.24.46.17.91.35,1.4.43.54.09,1.06.31,1.61.38.69.1,1.4.14,2.1.15.64,0,1.29-.05,1.92-.11.66-.06,1.32-.16,1.97-.25,1.01-.13,2.01-.24,2.99-.53.43-.13.91-.1,1.35-.19.26-.05.51-.2.76-.32.09-.04.16-.11.25-.14.24-.07.44-.16.64-.33.24-.2.58-.28.87-.42.11-.05.2-.13.3-.19.03-.02.06-.04.09-.05.56-.22,1.13-.44,1.7-.65.38-.15.76-.31,1.15-.45.15-.05.33-.06.49-.05.65.06,1.3.13,1.95.2.07,0,.16.02.2.06.21.24.48.23.75.24.1,0,.21.09.3.14.23.13.46.27.7.4.51.28,1.04.53,1.53.85.44.29.84.65,1.24,1,.32.28.6.59.9.89.52.52,1.06,1.01,1.35,1.7.02.04.03.08.05.14-.14.06-.29.1-.41.17-.08.04-.14.12-.22.18-.21.18-.4.36-.7.36-.14,0-.27.08-.41.1-.37.07-.75.09-1.1.2-.4.13-.76.36-1.16.5-.53.2-1.07.39-1.62.54-.69.19-1.39.33-2.09.48-.2.04-.4.03-.6.07-.36.08-.72.19-1.08.28-.31.07-.63.09-.93.19-.68.21-1.37.24-2.07.3-.15.01-.29.17-.45.19-.55.08-1.11.11-1.66.19-.93.13-1.85.28-2.78.4-.58.07-1.16.09-1.74.11-.5.02-1.01-.01-1.51.02-.75.06-1.5.17-2.25.24-.37.03-.74,0-1.11,0-.37,0-.74.03-1.11,0-.28-.02-.55-.13-.83-.18-.12-.02-.24-.02-.36-.02-.16,0-.31,0-.46,0-.02.13-.05.24-.07.38-.21-.03-.39-.05-.65-.08.15-.12.24-.19.39-.3-.55,0-1.03.19-1.53.04.03-.08.05-.13.07-.19-.07,0-.15-.03-.19,0-.23.19-.51.12-.76.1-.78-.08-1.56-.19-2.34-.29-.12-.02-.25-.02-.37-.03-.24-.02-.49-.08-.72-.05-.24.03-.48.19-.61-.18,0-.02-.08-.02-.13-.02-.67-.09-1.33-.19-2-.26-.16-.02-.34.11-.51.12-.22,0-.44-.05-.65-.05-.15,0-.1-.16-.27-.19-1.05-.21-2.09-.51-3.14-.75-.69-.15-1.33-.45-1.99-.67-.76-.25-1.51-.56-2.33-.58-.03,0-.06.02-.17.05.18.11.3.21.44.26.56.2,1.13.35,1.67.58.23.09.4.2.66.1.09-.03.23.09.33.18h-.35v.07c.24.09.48.19.73.26.06.01.15-.11.25-.2.02.04.05.1.06.16.06.23.28.29.46.15.06-.05.19-.1.22-.07.36.31.83.31,1.24.46.48.17,1.01.21,1.52.31.05,0,.11-.05.17-.07.05-.01.11,0,.16,0-.02.05-.03.1-.07.21.31.07.6.16.91.21.85.14,1.69.26,2.54.39.05,0,.11.01.15.04.42.22.88.18,1.33.23.37.04.73.1,1.1.13.39.04.77.06,1.16.09.38.03.77.09,1.15.1,1.54.05,3.07.1,4.61.13,1.02.02,2.05.02,3.07,0,.59-.01,1.18-.09,1.77-.12.28-.02.56,0,.84-.03.89-.09,1.79-.19,2.68-.28.28-.03.56-.01.83-.05.41-.05.81-.14,1.22-.2.64-.1,1.28-.18,1.92-.3.66-.12,1.31-.27,1.96-.42.72-.17,1.43-.38,2.15-.54.3-.07.62-.01.91-.07.68-.14,1.36-.31,2.04-.47.17-.04.35-.06.52-.11.18-.06.38-.1.42-.35,0-.04.08-.09.13-.11.23-.07.46-.12.69-.19.53-.17,1.09-.28,1.57-.54.48-.26.97-.39,1.48-.54.2-.06.33-.1.36.22.01.13-.04.47.29.5.03,0,.06.12.08.19.12.37.26.73.34,1.11.09.47.13.95.18,1.43.08.86.04,1.71-.15,2.55-.05.23-.2.42-.22.68-.05.47-.14.93-.26,1.39-.09.35-.18.71-.37,1.01-.17.29-.46.5-.7.75ZM25.48,41.4l.02-.09c.23.05.45.1.68.15l-.02.09c-.23-.05-.45-.1-.68-.15ZM27.7,41.91l.02-.1c.21.04.42.07.63.11,0,.03,0,.06-.01.09l-.64-.1ZM28.35,23.93v.09c-.25-.04-.48-.08-.71-.11,0-.03,0-.05.01-.08.23.04.49-.1.7.11ZM62.91,29.96c-.32.2-.59.49-.9.7-.31.21-.64.4-.98.57-.26.12-.57.16-.83.29-.17.08-.21,0-.26-.09-.06-.1-.09-.22-.14-.33.02-.01.03-.03.05-.04.06.04.12.08.19.12.05-.08.11-.15.16-.23l.07.04c.01.08.03.16.04.24.14-.08.15-.16.05-.32-.23-.34-.09-.58.26-.74.52-.23,1.12-.27,1.56-.7.17-.17.46-.2.69-.32.55-.29,1.1-.59,1.65-.87.08-.04.21,0,.32.04-.61.6-1.2,1.2-1.91,1.64ZM70.68,17.17c-.03.48-.12.94-.24,1.4-.05.24-.1.48-.14.72-.09.47-.17.94-.28,1.4-.09.4-.2.8-.34,1.18-.05.13-.21.22-.33.33-.08.08-.25.06-.17.28.03.08-.21.25-.32.39-.05.07-.12.17-.12.25.03.26-.11.42-.29.56-.35.28-.67.59-.95.95-.24.3-.61.5-.93.73-.62.44-1.25.86-1.87,1.31-.61.44-1.28.77-1.95,1.1-.63.31-1.22.7-1.83,1.05-.07.04-.13.09-.21.12-.18.06-.28-.03-.23-.21.09-.35.17-.71.28-1.06.16-.53.22-1.07.26-1.62.04-.59.14-1.17.19-1.76.02-.25,0-.51-.03-.76-.11-.91-.19-1.83-.38-2.73-.1-.49-.33-.97-.6-1.39-.57-.89-1.21-1.74-1.82-2.61-.09-.12-.23-.2-.31-.33-.15-.21-.3-.43-.38-.67-.01-.03,0-.08.04-.13-.02-.02-.03-.05-.04-.07h-.21c-.35,0-.55-.31-.57-.61-.04-.04-.08-.08-.12-.12.04,0,.08-.01.12-.02.03-.2.16-.36.41-.4,1.87-.27,2.85-1.89,3.94-3.25.86-1.08,1.9-1.99,3.25-2.23.04-.02.07-.05.11-.07.39-.21.81-.23,1.24-.21.2,0,.4,0,.61,0,0-.01,0,.02,0,0,.15.08.29.16.43.24.08.04.15.09.22.14.08.05.2.1.23.17.03.08.07.13.11.18.88.45,1.62,1.17,2.12,2.09.93,1.69,1.23,3.76,1.09,5.66ZM71.37,13.98c-.19-.41-.37-.82-.57-1.22-.2-.43-.41-.85-.64-1.31.64,0,.89.41,1.02.85.15.5.19,1.04.28,1.56,0,.03-.02.07-.09.13Z"/>
      <path class="cls-1" d="M59.02,25.77c-.08,0-.21-.01-.22-.05-.07-.26-.31-.21-.44-.19-.69.12-1.37.26-2.04.43-.58.15-1.14.34-1.71.52-.02,0-.05,0-.08,0-.27.06-.55.13-.82.18-.67.14-1.35.27-2.02.42-.34.08-.76-.05-1.01.33-.01.02-.09.03-.12,0-.18-.12-.29-.05-.34.05-.2-.03-.35-.07-.5-.07-.12,0-.24.06-.36.08-.82.1-1.65.2-2.47.31-.19.02-.38.1-.57.11-.52.02-1.03.03-1.54.14-.46.1-.94.14-1.41.18-1.24.11-2.48.2-3.72.31-.21.02-.41.07-.62.08-.41.01-.81-.02-1.22,0-.83.06-1.65.2-2.48.22-.58.01-1.16.03-1.75-.03-.66-.07-1.33-.08-2-.07-.32,0-.64.09-.96.14-.07,0-.15,0-.22-.02-.12-.03-.24-.06-.36-.09-.11.02-.21.03-.32.04-.05.05-.14.11-.13.13.07.2-.1.16-.17.16-.34,0-.69-.02-1.03-.05-.33-.02-.66-.09-.99-.08-.29.01-.54-.03-.75-.24-.06-.06-.14-.12-.22-.13-.45-.06-.91-.1-1.35-.15,0,0,0,0,.01.03-.02,0-.03,0-.05-.01,0,0,0,0,0-.01,0,0,0,0,0,0h0s0,.01,0,.02c-.2-.05-.37-.1-.54-.13-.07-.01-.14,0-.21.01-.3.04-.6.09-.91.13-.05,0-.11-.05-.16-.07-.16-.08-.32-.17-.49-.24-.23-.1-.35,0-.38.24.3.11.58.23.87.31.35.1.7.17,1.05.24.31.06.62.08.94.12.27.03.55.05.82.08.38.04.76.08,1.14.13.3.04.59.11.89.15.35.05.71.06,1.05.12.23.05.46.21.66-.06.01-.02.05-.01.07-.02.21,0,.43,0,.64,0,.39-.02.77-.05,1.16-.06.05,0,.13.03.16.07.02.02.03.03.05.05.19,0,.37,0,.56,0-.12-.08-.23-.15-.35-.23.02-.03.04-.06.06-.1.13.08.26.16.4.23-.02.03-.04.06-.05.09.4,0,.8,0,1.19.04.07-.04.15-.06.26-.11q-.43-.08-.56-.52c.3.13.42.47.76.46.31-.01.63.08.9-.19-.01.04-.02.08-.02.08.3-.03.61-.08.93-.09.29,0,.58.07.88.06.66-.01,1.32-.06,1.97-.07.61-.02,1.22,0,1.82-.02.53-.02,1.06-.06,1.59-.1.41-.03.82-.1,1.23-.14.31-.03.62-.03.92-.08.54-.07,1.08-.16,1.61-.25.41-.07.82-.14,1.23-.23.31-.06.61-.17.92-.21.52-.07,1.05-.08,1.56-.16.61-.09,1.21-.2,1.81-.32.63-.12,1.25-.27,1.87-.39.53-.1,1.07-.19,1.61-.27.7-.11,1.4-.22,2.09-.33.8-.12,1.6-.24,2.4-.38.07-.01.15-.12.18-.19.04-.1.04-.22.06-.37-.23.01-.45.03-.66.03ZM31.87,29.36c-.32-.11-.65-.23-.97-.34.01-.04.03-.08.04-.12.32.12.64.25.96.37-.01.03-.02.06-.03.09ZM32.86,29.31c-.22.12-.24-.11-.35-.19.02-.03.03-.06.05-.08.07.06.14.11.23.18.06-.05.13-.11.2-.17.02.01.04.03.06.04-.06.08-.11.18-.19.22Z"/>
      <path class="cls-1" d="M46.12,37.26c-.13.1-.26.2-.4.29-.06.04-.12.07-.19.07-.49.07-.97.17-1.46.18-.57.02-1.14.2-1.73.07-.17-.04-.37.07-.56.12-.13.03-.26.1-.4.12-.79.07-1.59.13-2.38.2-.12.01-.24.07-.36.08-.59.04-1.18.07-1.76.11-.44.03-.87.09-1.31.13-.5.04-1.01.08-1.51.11-.16.01-.31.03-.47.03-.28,0-.57.01-.85.01-.15,0-.29-.01-.44-.03-.18-.02-.35-.04-.53-.05-.05,0-.11-.02-.15,0-.38.14-.74.13-1.13,0-.09-.03-.22.07-.34.09-.11.02-.23,0-.35,0-.22,0-.43.02-.65.02-.22,0-.43,0-.66,0v-.27c-.14.01-.26.02-.46.03.12.1.18.15.24.2,0,.02,0,.05,0,.07-.22-.03-.43-.05-.74-.09-.27.16-.66.09-1.05,0-.19-.04-.4,0-.68,0,.2-.13.34-.22.47-.31,0-.04-.01-.08-.02-.12-.19,0-.38,0-.57,0-.14,0-.29,0-.43-.01-.12,0-.24-.04-.39-.06,0,0,0-.06.01-.14-.28.02-.56.02-.83.06-.17.02-.33.06-.45-.11-.03-.03-.1-.06-.15-.05-.61.06-1.16-.26-1.75-.3-.05,0-.1-.02-.16-.02-.6-.04-1.19-.07-1.79-.12-.25-.02-.49-.12-.74-.16-.2-.03-.41-.03-.61-.04-.12,0-.24,0-.36-.01-.04,0-.12-.06-.12-.08.02-.16.05-.33.11-.49.01-.03.16-.04.23-.02.69.15,1.37.34,2.06.47.66.12,1.33.17,2,.26.47.06.94.14,1.44.22-.05.09-.08.15-.13.25.52-.3,1.01-.11,1.48-.03.66.12,1.31.22,1.99.21.63,0,1.25.08,1.88.13.72.05,1.45.08,2.17.17,1.22.16,2.43.05,3.65.02.25,0,.51-.08.76-.1.34-.02.68-.02,1.03-.04.32-.01.63-.03.95-.06.6-.05,1.21-.1,1.81-.18,1.02-.14,2.04-.32,3.06-.47.37-.05.75-.06,1.13-.1.54-.06,1.09-.13,1.63-.2.32-.04.64-.08.96-.12,0,.02,0,.03,0,.05Z"/>
      <path class="cls-1" d="M14.09,27.14c-.12.01-.25.07-.35.03-.53-.22-1.05-.45-1.56-.71-.24-.12-.46-.31-.68-.47-.03-.02-.07-.06-.08-.1-.1-.23-.19-.46-.3-.7-.02.02,0,0,0,0,.25.06.52.09.75.18.3.12.58.28.85.45.6.37,1.25.59,1.91.82.25.08.49.18.74.25.09.03.19.01.28.03.09.02.17.05.3.09.15-.14.34-.04.56.02.43.12.87.17,1.31.25.66.12,1.31.22,1.97.34.68.12,1.35.25,2.03.38.06.01.11.08.16.12,0,.02-.02.04-.03.07-.15-.01-.3-.03-.5-.04.08.1.13.15.22.27-.42-.04-.78.03-1.05-.21-.2.02-.37.08-.52.06-.7-.11-1.41-.22-2.1-.39-.24-.06-.48-.17-.74-.21-.62-.11-1.24-.22-1.86-.33-.07-.01-.16.02-.23.03-.11,0-.23.02-.33,0-.18-.03-.35-.08-.52-.14-.09-.03-.17-.09-.25-.13,0,.02,0,.03.01.05Z"/>
      <path class="cls-1" d="M47.11,37.07c1.41-.3,2.85-.36,4.26-.64,0,.02.01.04.02.07-.28.07-.56.16-.85.22-.33.08-.66.16-1,.2-.44.05-.88.06-1.32.11-.25.03-.49.09-.73.12-.12.02-.25,0-.37,0v-.08Z"/>
      <path class="cls-1" d="M53.85,35.25c-.39.31-.81.55-1.33.58.36-.38.86-.45,1.33-.58Z"/>
      <path class="cls-1" d="M39.88,42.07c-.25.23-.47.26-.69.09.24-.03.43-.05.69-.09Z"/>
      <path class="cls-1" d="M24.6,41.16c.14-.26.36-.14.55-.17,0,.03.01.07.02.1-.19.02-.38.04-.58.06,0,0,0,0,0,0Z"/>
      <path class="cls-1" d="M42.22,41.98c.18.02.36.04.55.06,0,.03,0,.05,0,.08-.18-.02-.36-.03-.54-.05,0-.03,0-.06,0-.08Z"/>
      <path class="cls-1" d="M36.97,10.49c-.45.13-.92.05-1.37.1,0-.03,0-.06,0-.09.46-.04.91-.08,1.37-.13,0,.04,0,.08.01.12Z"/>
      <path class="cls-1" d="M35.82,7.35c.22-.24.81-.21.94,0h-.94Z"/>
    </g>
  </g>
</svg>