<?xml version="1.0" encoding="UTF-8"?>
<svg id="Layer_2" data-name="Layer 2" xmlns="http://www.w3.org/2000/svg" viewBox="0 0 58.2 78.52">
  <defs>
    <style>
      .cls-1 {
        fill: #000;
        stroke-width: 0px;
      }
    </style>
  </defs>
  <g id="illustrations">
    <g>
      <path class="cls-1" d="M58.19,45.35c-.04-.45-.09-.9-.17-1.35-.09-.5-.22-.98-.32-1.48-.19-.91-.4-1.83-.57-2.75-.11-.59-.2-1.17-.46-1.72-.13-.28-.21-.59-.36-.86-.31-.57-.64-1.12-.97-1.68-.17-.28-.33-.57-.52-.83-.33-.45-.69-.88-1.02-1.32-.39-.52-.75-1.05-1.15-1.56-.42-.54-.83-1.08-1.29-1.59-.78-.86-1.57-1.71-2.38-2.54-.42-.44-.89-.83-1.3-1.28-.43-.47-.94-.82-1.46-1.17-.58-.39-1.13-.82-1.7-1.21-.46-.32-.93-.64-1.41-.95-.22-.14-.51-.19-.69-.36-.35-.33-.8-.5-1.21-.71-.45-.23-.94-.36-1.42-.52-.34-.11-.68-.22-1.03-.31-.21-.06-.43-.06-.63-.13-.55-.19-1.1-.39-1.65-.6-.12-.04-.23-.12-.36-.19.1-.08.17-.11.21-.17.25-.43.51-.84.88-1.17.23-.2.39-.47.58-.71.33-.42.67-.84.98-1.27.25-.35.45-.74.83-.99.03-.02.05-.04.06-.07.22-.37.41-.75.65-1.1.51-.76,1.14-1.43,1.59-2.23.03-.06.07-.11.11-.16.42-.48.76-1.01,1.03-1.58.12-.26.27-.51.43-.74.16-.22.35-.4.45-.67.16-.42.34-.82.52-1.23-.07-.14-.08-.32,0-.46.08-.14.18-.28.28-.41.11-.26.22-.52.32-.78.09-.24.17-.48.22-.72.01-.06.03-.13.04-.19,0-.03,0-.05.01-.08,0,0,0-.03,0-.04.01-.14.02-.29.02-.43,0-.04.01-.07.02-.11-.33-.35-.75-.64-1.13-.83-.79-.4-1.66-.58-2.46-.96-.89-.42-1.64-1.08-2.44-1.65-.28-.2-.58-.4-.87-.6-.04-.02-.08-.05-.12-.08-.42-.28-.84-.55-1.26-.81-.37.06-.75.05-1.13.06-.47,0-.94-.06-1.41-.06-.33,0-.67.04-1,.07-.25.02-.49.09-.73.1-.95.04-1.9.08-2.85.1-.54.02-1.07.04-1.62.12-.9.14-1.81.16-2.72.23-.31.02-.63.05-.94.03-.67-.04-1.35-.09-2.02-.14-.04.02-.08.05-.14.05-1.25.2-2.15,1.01-3.18,1.67-1.06.68-2.2,1.22-3.25,1.91-.96.62-1.78,1.43-2.69,2.12-.36.27-.9.63-.83,1.14.07.52.5,1,.73,1.46.02.04.03.08.03.13.04-.01.09.02.14.08.3.34.61.68.89,1.03.21.26.39.53.57.8.25.4.46.82.74,1.21.58.8,1.18,1.58,1.79,2.36.55.71,1.11,1.41,1.7,2.08.91,1.01,1.85,1.99,2.78,2.98.64.68,1.28,1.37,1.92,2.05.19.2.36.42.55.65-.07.05-.13.1-.19.13-.68.28-1.37.55-2.05.83-.64.26-1.34.4-1.86.92-.02.02-.07.02-.11.03-.12.03-.25.05-.36.1-1.2.62-2.4,1.24-3.6,1.86-.08.04-.16.1-.25.14-.46.25-.94.48-1.39.74-.27.16-.5.39-.77.56-.39.26-.79.52-1.19.76-.23.14-.49.22-.71.37-.29.19-.55.42-.81.64-.2.16-.53.14-.59.51-.03.19-.26.35-.42.55-.08.04-.22.08-.32.17-.18.17-.3.4-.5.54-.69.52-1.26,1.14-1.76,1.84-.13.18-.3.33-.42.51-.14.2-.25.43-.39.63-.09.12-.16.25-.36.27-.2.02-.48.49-.4.67.08.21-.01.35-.11.48-.15.21-.35.38-.49.59-.18.27-.4.54-.48.85-.11.42-.31.78-.55,1.13-.17.25-.35.51-.47.78-.25.57-.48,1.15-.71,1.73-.23.58-.47,1.16-.66,1.75-.13.39-.2.81-.3,1.21-.08.33-.17.65-.25.98-.08.31-.15.61-.23.96-.14.08-.23.24-.24.47,0,.21-.04.41-.06.62-.05.57-.12,1.14-.16,1.71-.04.63-.06,1.27-.09,1.9,0,.22,0,.43,0,.65.03,0,.07,0,.1,0,0-.17,0-.35.03-.52.04-.24.14-.47.15-.7.04-.77.17-1.52.38-2.26.06-.21.15-.4.19-.61.09-.41.14-.83.24-1.24.1-.43.23-.86.35-1.29.1-.34.2-.69.3-1.03.09-.29.15-.6.26-.88.17-.44.36-.88.56-1.31.29-.65.59-1.29.89-1.93.12-.24.27-.47.41-.7.51-.86,1.01-1.73,1.55-2.57.75-1.15,1.5-2.3,2.5-3.25.6-.57,1.2-1.14,1.8-1.71.37-.35.74-.68,1.1-1.03.18-.18.32-.42.53-.56.32-.22.69-.35,1.01-.55.31-.19.59-.42.88-.64.14-.11.25-.27.4-.34.43-.18.76-.5,1.15-.73.18-.1.36-.25.56-.3.28-.07.55-.1.81-.28.44-.29.94-.51,1.41-.76.48-.25.95-.51,1.44-.76.37-.19.74-.42,1.14-.54.51-.16.98-.42,1.52-.51.37-.06.71-.31,1.07-.46.27-.12.54-.24.83-.32.27-.08.58.1.67.56.05.25-.22.22-.36.3-.06.03-.16,0-.24,0-.38.03-.77.05-1.14.11-.3.05-.6.14-.89.23-.19.06-.42-.2-.57.09-.27-.12-.42.15-.61.23-.68.3-1.32.67-1.97,1.04-.25.14-.44.37-.69.51-.31.19-.61.42-.99.46-.07,0-.15.05-.21.03-.21-.04-.12.17-.22.23-.41.23-.69.61-.99.96-.13.15-.28.26-.47.29-.09.02-.18.05-.27.07-.13.04-.26.06-.39.11-.09.03-.17.09-.24.14-.14.1-.27.22-.42.31-.24.14-.52.22-.74.38-.41.29-.8.62-1.19.94-1.36,1.12-2.34,2.59-3.48,3.91-.29.33-.43.79-.88.99-.02,0-.01.07-.03.1-.15.41-.3.83-.45,1.24-.02.02,0,.08-.01.12-.05.11-.11.21-.18.31-.21.28-.45.54-.64.84-.22.34-.4.7-.6,1.05-.19.34-.42.66-.58,1.01-.42.93-.79,1.89-1.23,2.82-.5,1.05-.81,2.17-1.15,3.28-.13.42-.2.87-.27,1.3-.09.59-.14,1.18-.21,1.77-.04.31-.1.61-.14.92-.03.29-.05.59-.05.88,0,.62-.04,1.24.03,1.85.14,1.12.44,2.22.47,3.36,0,.19.05.4.13.58.12.28.29.55.4.83.48,1.2.95,2.41,1.42,3.61.42,1.08.99,2.09,1.67,3.02.44.6.91,1.18,1.38,1.76.32.4.64.79,1,1.16.23.24.53.42.78.64.3.26.56.56.86.82.22.19.47.34.72.49.37.22.67.58,1.17.59-.07.25.04.31.24.3.11,0,.24-.04.33,0,.38.18.74.38,1.16.6-.18.06-.32.1-.45.14,0,0,0,.01,0,.02.22-.02.44-.03.6-.04.07.18.09.34.17.4.61.4,1.22.82,1.87,1.16.26.14.51.47.83.28.07.08.12.18.2.21.31.11.64.18.95.28.62.2,1.23.4,1.84.62,1.1.4,2.23.58,3.4.55.61-.02,1.21.1,1.82.01.21-.03.43.03.65,0,.34-.03.67-.1,1.01-.15.38-.06.75-.13,1.13-.18.17-.02.35,0,.52-.02.13-.02.26-.07.4-.1,0-.02,0-.05-.01-.07-.35.02-.69.03-1.04.05-.73.05-1.45.12-2.18.16-.54.03-1.07-.11-1.62-.05-.32.03-.66-.05-.99-.1-.5-.08-1.01-.17-1.51-.26-.15-.03-.31-.06-.46-.11-.21-.07-.42-.17-.63-.25-.44-.15-.88-.3-1.32-.44-.3-.1-.6-.22-.91-.25-.19-.02-.34-.06-.47-.17-.03-.02-.06-.08-.08-.08-.29.03-.48-.18-.7-.3-.4-.23-.81-.44-1.21-.68-.11-.07-.2-.18-.31-.25-.34-.21-.7-.4-1.04-.6-.35-.22-.7-.44-1.04-.67-.49-.32-.98-.66-1.48-.98-.31-.2-.64-.36-.94-.57-.17-.12-.29-.33-.45-.46-.84-.7-1.63-1.45-2.26-2.36-.25-.36-.56-.68-.81-1.04-.4-.61-.78-1.23-1.15-1.86-.34-.6-.69-1.2-.95-1.83-.33-.79-.58-1.61-.84-2.43-.11-.35-.17-.73-.27-1.09-.16-.6-.31-1.2-.5-1.8-.27-.83-.3-1.68-.32-2.54,0-.3-.06-.6-.1-.9-.01-.1-.03-.2-.07-.3-.09-.2-.01-.4,0-.6.01-.37-.03-.74-.01-1.11.02-.48.09-.97.1-1.45.02-.99.15-1.95.46-2.89.05-.14.09-.29.14-.43.18-.58.35-1.15.54-1.73.07-.22.17-.42.26-.64.16-.4.3-.81.46-1.21.14-.34.3-.67.47-.99.06-.13.16-.23.26-.37,0-.04-.03-.14,0-.2.33-.58.68-1.16,1.02-1.74.2-.34.53-.6.6-1.02.03-.18.15-.29.3-.27.14-.18.25-.34.37-.49.05-.07.13-.13.14-.21.09-.43.4-.66.75-.88.14-.08.22-.25.33-.38.07-.09.14-.2.21-.3-.05-.04-.04-.13.07-.23.17-.14.28-.33.52-.41.2-.07.35-.3.41-.55.03-.13.11-.33.2-.35.28-.06.3-.31.44-.47.24-.3.47-.6.74-.87.13-.13.32-.2.49-.29.23-.17.45-.38.68-.58.09-.08.21-.15.32-.2.17-.08.35-.13.51-.2.09-.04.21-.11.23-.19.08-.29.34-.36.53-.51.09-.08.21-.12.32-.19,0-.02-.03-.1,0-.11.26-.16.53-.32.79-.47.04.05.07.09.07.09.15-.1.27-.18.39-.27.44-.33.88-.65,1.36-.91.16-.09.35-.15.47-.27.16-.16.29-.29.46-.21.16-.1.29-.17.41-.25.01.02.03.04.04.06-.04.04-.08.07-.11.11.02.02.05.04.07.07.08-.09.15-.2.23-.28.11-.1.25-.27.36-.26.35.04.38.05.43-.3h.65s-.04-.1-.07-.16c.47-.19.92-.36,1.37-.55.17-.07.33-.22.49-.22.4,0,.71-.22,1.07-.32.29-.08.58-.17.84-.34,0-.3.32-.61.68-.49,0,0,.02-.01.03-.02,0,.01.01.02.02.03,0,0,.01,0,.02,0,1,.48,2.03.84,3.15.9.54.03,1.08.02,1.62.01.49,0,1.08.04,1.52-.2.03-.01.05-.03.07-.05.26-.36.55-.69.95-.92.03-.1.08-.25.14-.25.32,0,.63.03.95.06,0,0,.01.02.02.03-.06.03-.11.05-.17.08,0,0,0,.01,0,.02.03,0,.07,0,.1,0,.26,0,.53.02.81.06-.07-.02-.15-.06-.25-.1h.73c-.09.08-.14.13-.21.14.45.09.88.25,1.23.49.1.07.16.16.19.25.02,0,.03,0,.04,0,.06.03.14.22.3.04.01-.01.07.02.11.03.52.18,1.03.45,1.57.53.51.08.91.37,1.39.49.32.08.62.28.93.4.13.05.28.04.41.1.22.1.42.22.63.33.04.02.1.06.1.09.03.23.22.24.37.31.08.04.17.05.25.09.24.13.48.26.7.4.21.13.4.28.6.41.46.29.93.56,1.39.84.62.38,1.19.83,1.67,1.38.11.13.26.27.48.12.05.08.1.15.13.23.02.06,0,.15.04.19.27.35.55.71.84,1.05.15.18.33.34.51.53.08.11.17.24.26.37.1.14.2.29.31.43.04.05.09.08.14.12.06.04.13.07.16.13.26.43.5.86.75,1.29.1.16.15.36.38.43.06.02.11.11.15.18.22.41.44.81.65,1.22.15.3.29.6.41.91.27.67.55,1.33.78,2.01.2.6.35,1.23.51,1.84.12.45.22.91.35,1.36.12.43.31.85.38,1.29.16.9.27,1.8.38,2.71.05.47.05.95.07,1.43.01.29-.01.59.02.88.05.37.09.73-.05,1.09-.02.06,0,.14,0,.21,0,.25.04.5,0,.74-.13.66-.3,1.3-.45,1.95-.01.05,0,.1-.02.14-.05.36,0,.75-.28,1.05-.02.03-.03.07-.04.11-.12.41-.23.82-.36,1.23-.09.27-.2.53-.31.8-.2.5-.39.99-.59,1.49-.07.17-.18.32-.25.49-.06.15-.12.31-.14.47-.06.39-.12.77-.53.97-.06.03-.12.09-.16.15-.3.46-.6.93-.89,1.4-.02.03-.03.06-.06.08-.4.33-.68.75-.96,1.17-.1.14-.23.26-.35.39-.28.29-.56.56-.71.95-.08.21-.2.39-.44.48-.11.04-.19.18-.29.27-.1.11-.2.23-.31.32-.17.15-.35.28-.52.43-.43.37-.85.74-1.28,1.1-.51.43-1.06.83-1.54,1.29-.38.37-.87.51-1.31.77-.21.12-.44.2-.65.33-.31.2-.59.43-.9.63-.27.17-.56.3-.83.47-.33.21-.64.45-.97.65-.27.17-.55.31-.83.46-.11.06-.22.12-.34.18-.24.12-.49.24-.74.34-.28.12-.56.22-.85.32-.13.04-.28.04-.42.07-.59.16-1.17.33-1.76.5-.61.18-1.23.36-1.84.55-.17.05-.34.12-.52.18v.06c.2-.02.38-.03.56-.06.24-.05.48-.11.71-.18.28-.08.56-.18.84-.27.15-.05.32-.05.47-.11.21-.09.43.07.64-.05.1-.06.25,0,.37-.02.11-.02.22-.1.32-.09.49.03.94-.13,1.39-.29.25-.09.49-.18.75-.24.27-.06.49-.28.74-.42.15-.08.27-.29.49-.11.01,0,.05,0,.07-.02.15-.11.3-.21.44-.32.28-.21.54-.47.84-.62.43-.22.87-.42,1.23-.75.04-.03.09-.06.1-.1.07-.24.28-.25.47-.31.75-.24,1.5-.47,2.05-1.09.04-.04.11-.06.16-.09.19-.11.43-.18.47-.42.12-.04.24-.05.32-.12.38-.36.75-.74,1.12-1.11.03-.03.08-.08.12-.07.3.05.47-.13.64-.33.21-.24.44-.47.67-.7.24-.23.41-.55.78-.64.04-.01.07-.08.1-.13.11-.17.2-.36.33-.52.28-.33.59-.64.87-.98.33-.4.65-.81.96-1.22.16-.22.3-.45.45-.68.1-.16.19-.33.41-.37.08-.02.14-.14.19-.22.12-.21.24-.41.33-.63.12-.28.3-.56.32-.86.02-.24.07-.45.16-.67.23-.52.49-1.03.7-1.56.21-.51.37-1.04.55-1.57.02-.07.02-.14.03-.21.02-.15-.02-.36.07-.44.35-.31.23-.72.29-1.1.01-.08-.01-.16,0-.24.09-.41.21-.81.28-1.22.05-.27.03-.55.06-.83.03-.27.11-.53.13-.79.03-.55.04-1.1.05-1.66,0-.47,0-.94-.02-1.4-.04-.55-.1-1.1-.18-1.64-.07-.52-.17-1.05-.28-1.56-.1-.49-.19-.97-.33-1.45-.2-.75-.42-1.5-.66-2.24-.3-.94-.51-1.91-.94-2.8-.18-.39-.29-.81-.44-1.21-.11-.29-.21-.58-.35-.85-.22-.42-.46-.84-.72-1.24-.38-.57-.77-1.12-1.19-1.66-.33-.44-.69-.86-1.07-1.26-.48-.51-1-.99-1.5-1.48-.45-.43-.9-.86-1.34-1.3-.14-.14-.28-.28-.43-.42-.28-.26-.52-.58-.84-.78-.46-.28-.89-.57-1.32-.89-.94-.69-1.93-1.29-2.92-1.9-.91-.56-1.9-.93-2.92-1.25-.25-.08-.52-.14-.72-.19-.89-.42-1.84-.46-2.74-.77.23-.33.47-.6.64-.92.23-.42.35-.48.81-.34.51.15,1.03.29,1.55.43.08.02.16.07.24.1.06.02.13.04.18.02.18-.08.66-.03.74.12.08.13.16.13.27.12.08,0,.18,0,.23.05.14.14.14.13.27.18.55.2,1.11.37,1.63.64.6.31,1.16.7,1.72,1.08.67.45,1.33.92,1.99,1.39.7.49,1.27,1.16,2.02,1.59.28.16.46.46.74.65.4.27.7.69,1.03,1.05.17.19.28.43.46.61.32.31.57.68.89.99.5.5.93,1.06,1.4,1.58.46.5.73,1.12,1.03,1.72.15.3.29.61.6.75.18.08.3.17.38.33.07.13.09.28.16.41.14.23.28.46.45.67.11.13.26.23.38.35.21.22.1.58.35.78,0,0,0,.02,0,.02.05.13.1.25.15.38.17.88.5,1.71.86,2.54.02-.04.04-.07.06-.11.01.03.02.04.03.07.03.21.31.39.08.63,0,0,.05.07.08.11.07.11.13.22.2.34-.06.03-.11.05-.16.08.19.73.38,1.46.57,2.19-.04.03-.1.07-.2.13.12.06.18.08.24.11-.02.08-.06.15-.05.22.05.29.12.57.17.86.08.46.26.91.18,1.4,0,.03.02.07.04.11.17.28.12.79-.08,1.05-.04.05-.01.15-.02.22,0,.04,0,.09,0,.13,0,.22,0,.43,0,.65,0,0,.01,0,.02,0,.02-.12.05-.24.07-.36.19.28.16.41-.08.55.1.12.21.24-.04.32-.03,0-.06.08-.06.12-.02.22-.08.44-.03.65.11.49-.01.95-.17,1.4-.03.1-.05.2-.06.3-.03.29-.04.59-.09.88-.08.45-.17.91-.26,1.36-.09.43-.18.87-.29,1.3-.04.16-.14.31-.17.47-.08.38-.12.76-.2,1.14-.06.31-.14.61-.22.92-.07.3-.13.61-.23.9-.1.28-.12.61-.41.81-.09.06-.12.24-.14.38-.02.15.03.29-.05.45-.23.43-.42.87-.64,1.3-.25.51-.44,1.05-.82,1.49-.1.11-.2.24-.24.38-.05.18-.1.33-.28.42-.05.02-.09.1-.11.16-.04.09-.04.21-.08.29-.24.43-.47.86-.74,1.27-.24.36-.5.71-.77,1.04-.56.68-1.13,1.35-1.7,2.02-.37.43-.74.86-1.13,1.27-.3.31-.63.6-.96.89-.87.77-1.74,1.55-2.63,2.3-.52.43-1.07.82-1.63,1.19-.9.59-1.8,1.16-2.72,1.71-.4.24-.81.53-1.32.51-.02,0-.04.04-.06.06-.23.14-.45.32-.7.41-.42.17-.89.24-1.29.44-.19.09-.34.04-.51.06-.02,0-.04.01-.06.02.02.06.04.11.06.16-.02,0-.04.02-.06.03-.04-.09-.08-.18-.11-.24-.19.04-.37.07-.55.11,0,.02,0,.05.01.07.14.02.28.04.42.06,0,.04,0,.08,0,.12-.35.07-.69.14-1.04.21-.17.03-.35.04-.53.07-.09.01-.17.07-.25.07-.23,0-.46-.02-.69,0-.28.03-.56.14-.84.16-.55.06-1.11.08-1.66.12-.62.05-1.23.07-1.85-.03-.08-.01-.17.04-.25.07-.04.01-.08.04-.12.04-.11-.01-.21-.06-.32-.06-.1,0-.19.06-.29.07-.18,0-.37-.01-.53-.02-.04.08-.07.18-.11.19-.06,0-.13-.06-.19-.08-.11-.04-.23-.08-.34-.11-.04-.01-.11.02-.14,0-.32-.21-.67-.13-1-.09-.33.03-.62.02-.9-.15-.12-.07-.25-.14-.33.06-.01.03-.09.05-.12.04-.4-.1-.79-.2-1.19-.3-.32-.08-.65-.16-.98-.24-.15-.04-.3-.1-.45-.16-.17-.06-.33-.13-.5-.17-.26-.06-.54-.07-.79-.16-.5-.16-.97-.39-1.47-.53-1.05-.29-2.02-.75-2.94-1.3-.78-.47-1.51-1.04-2.26-1.58-.97-.7-1.94-1.4-2.87-2.13-.57-.44-1.08-.95-1.61-1.44-.19-.18-.32-.44-.49-.61-.6-.57-1.1-1.21-1.61-1.85-.4-.49-.76-1.01-1.12-1.54-.33-.48-.66-.97-.95-1.49-.24-.42-.39-.89-.62-1.31-.29-.53-.6-1.05-.79-1.63-.04-.12-.09-.24-.15-.36-.31-.71-.62-1.42-.91-2.13-.18-.42-.33-.85-.48-1.29-.15-.45-.29-.91-.43-1.36-.22-.68-.39-1.37-.44-2.09-.05-.67-.2-1.34-.28-2.01-.04-.34-.05-.69-.05-1.03,0-.64.02-1.29.03-1.93,0-.44.01-.87.04-1.31.02-.33.07-.66.1-.99.02-.29.02-.59.05-.88.06-.45.11-.91.21-1.35.3-1.22.67-2.43,1.21-3.58.22-.47.35-.97.54-1.45.18-.46.38-.92.6-1.37.21-.44.45-.86.69-1.29.27-.48.53-.97.81-1.44.34-.59.68-1.18,1.04-1.75.29-.45.57-.91.92-1.31.26-.3.57-.55.76-.91.08-.15.15-.28.34-.32.09-.02.17-.11.24-.19.56-.61,1.11-1.23,1.66-1.83.32-.34.7-.61.92-1.06.15-.3.53-.49.8-.73.06-.05.13-.09.18-.15.29-.29.57-.58.96-.73.06-.02.11-.09.16-.14.14-.13.27-.27.43-.37.12-.08.29-.1.4-.19.31-.23.6-.48.89-.72.03-.02.07-.04.11-.05.16-.05.32-.09.47-.15.24-.09.49-.17.73-.27.14-.06.36-.09.25-.31.2-.04.39-.06.56-.12.25-.09.48-.23.73-.31.37-.13.8-.16,1.13-.35.49-.28,1.03-.42,1.55-.61.04-.01.08-.03.12-.02.18.04.38.15.45-.15,0-.02.07-.02.11-.03.41-.19.82-.38,1.24-.57-.81.2-1.6.42-2.4.65-.07.02-.12.1-.18.16-.15-.02-.31-.02-.45.02-.4.14-.8.32-1.2.46-.29.11-.6.17-.89.29-.69.27-1.36.57-2.05.85-1.85.75-3.46,1.86-4.9,3.22-1.1,1.04-2.17,2.11-3.26,3.17-.21.21-.32.49-.47.74-.31.52-.73.97-1.1,1.45-.04.05-.08.1-.1.16-.06.16-.1.34-.17.5-.07.16-.17.3-.24.46-.17.34-.32.68-.49,1.02-.07.13-.15.26-.21.35-.14,0-.31-.05-.38,0-.2.2-.38.43-.54.67-.54.82-.9,1.74-1.24,2.65-.24.65-.5,1.31-.58,2.01,0,.06-.03.11-.04.16-.05.17-.13.33.02.5.03.04-.02.17-.05.25-.06.14-.13.28-.2.42-.05.11-.08.22-.12.33-.06.13-.14.26-.18.39-.03.14,0,.3-.03.44-.13.42-.25.84-.42,1.24-.31.71-.26,1.48-.38,2.21-.06.35-.06.71-.09,1.07-.01.16-.04.32-.05.49,0,.16,0,.32.01.49.02.26.07.53.08.79.01.29-.03.58-.01.87.04.52.11,1.04.17,1.56.06.48.11.96.19,1.43.11.65.25,1.3.36,1.95.05.3.05.62.13.91.06.21-.09.48.17.63.01,0,0,.05,0,.07,0,.14.02.27.03.41h.05c.04-.06.07-.12.11-.17.02,0,.04,0,.07,0,.05.2.11.41.16.61.09.32.02.69.34.92.02.02.02.07.03.11.02.07.03.14.06.2.04.09.11.18.15.27.36.91.65,1.86,1.15,2.72.54.92,1.04,1.86,1.57,2.79.2.34.41.68.64,1,.23.32.26.74.59,1.02.11.09.21.25.33.36.09.08.21.15.27.25.18.29.32.6.51.89.18.27.39.52.6.77.19.22.4.42.59.65.34.41.64.86,1.02,1.23.43.41.93.74,1.39,1.13.31.26.57.59.89.83.64.49,1.25,1.03,1.97,1.42.32.18.53.53.96.55.29.01.5.21.58.4.15.02.24.02.31.05.19.09.26.32.39.42.36.24.77.42,1.17.59.34.14.71.21,1.06.34.58.22,1.13.52,1.72.68.49.13.97.42,1.51.26,0,0,.02,0,.02,0,.41.13.81.29,1.22.4.47.13.94.27,1.42.32.39.04.79.03,1.16.2.11.05.28.1.35-.11-.07-.01-.12-.02-.17-.03v-.06c.15,0,.29.02.43.03.37.03.75.07,1.12.09.29.01.57.18.86,0,.1-.06.24-.08.37-.08.44,0,.89.04,1.33.04.16,0,.37-.02.46-.11.13-.14.32-.09.35-.06.24.21.48,0,.71.02.09,0,.19-.03.29-.04.12-.01.23-.08.34-.07.31.02.62.08.94.12.17-.49.44-.06.6-.07.09-.11.14-.23.21-.24.22-.03.45,0,.68-.04.44-.06.87-.13,1.31-.22.45-.09.9-.2,1.35-.33.24-.07.48-.16.71-.26.23-.09.46-.21.7-.3.16-.06.35-.08.49-.16.25-.15.49-.33.73-.49.06.07.09.12.13.16.03-.05.06-.1.1-.14.06-.07.12-.16.2-.19.11-.04.23-.05.34-.13.26-.18.57-.28.84-.45.61-.36,1.22-.73,1.83-1.11.11-.07.19-.19.31-.26.32-.19.67-.35.98-.56.45-.31.88-.66,1.3-1,.61-.49,1.22-.98,1.8-1.5.6-.54,1.18-1.1,1.73-1.69.72-.78,1.41-1.6,2.1-2.4.15-.17.26-.38.39-.58.38-.58.79-1.14,1.13-1.74.58-1.03,1.11-2.09,1.64-3.15.42-.84.85-1.67,1.23-2.53.23-.51.39-1.06.59-1.59.07-.19.16-.37.2-.56.1-.39.17-.78.26-1.17.03,0,.05,0,.08,0,.03.04.07.07.06.07.08-.26.17-.55.27-.84.05-.15.17-.29.17-.44-.01-.37.16-.68.28-1,.23-.59.33-1.19.34-1.82,0-.07.01-.14.04-.2.23-.43.26-.91.31-1.39.04-.34.03-.69.07-1.03.03-.3.11-.61.13-.91.02-.55,0-1.1,0-1.65,0-.32.04-.64.01-.96ZM44.64,5.73c-.19.25-.34.43-.49.63-.04-.27-.07-.5-.1-.75.16.03.34.07.59.12ZM37.51,23.42s.11-.04.16-.03c.85.35,1.71.69,2.54,1.07.45.2.87.46,1.3.69-.01.02-.03.05-.04.07-.79-.32-1.58-.65-2.38-.96-.32-.12-.66-.2-.98-.32-.2-.07-.39-.18-.56-.3-.05-.03-.04-.15-.04-.23ZM41.3,3.55c.52.31,1.03.63,1.58.97-.04.07-.1.18-.17.31-.2-.12-.38-.2-.53-.32-.47-.38-1.03-.55-1.57-.78-.04-.02-.1-.03-.12-.06-.27-.34-.53-.68-.81-1.05.57.33,1.1.62,1.62.93ZM38.71,2c.13.07.26.13.38.2-.02.04-.03.07-.05.11-.16.01-.25-.13-.38-.2.01-.03.03-.07.04-.1ZM37.48,6.49c.08-.37.17-.73.15-1.13-.02-.34.16-.69.24-1.04.04-.19.08-.38.12-.57.06-.27.12-.54.16-.82.01-.08-.03-.18-.04-.26.64.2,1.05.72,1.57,1.11.45.34.93.64,1.36.99.18.15.28.4.39.61.02.03-.13.19-.22.21-.31.09-.64.13-.95.22-.49.15-.98.34-1.46.5-.37.13-.74.26-1.11.37-.23.07-.26.02-.2-.21ZM36.88,4.26c-.05.16-.05.35-.09.53-.18.82-.4,1.63-.71,2.41-.03.07-.13.14-.21.16-.49.1-.97.19-1.46.28-.32.05-.63.09-.95.13-.36.05-.72.13-1.09.17-.49.05-.99.07-1.48.09-.06,0-.17-.1-.17-.16-.04-.45-.02-.9-.11-1.34-.09-.43.18-.57.44-.74.49-.31.98-.6,1.48-.9.07-.04.14-.06.21-.1.14-.08.26-.17.4-.25.07-.04.15-.06.23-.09.02.03.04.05.06.08-.17.16-.34.31-.51.47.02.02.05.05.07.07.26-.21.54-.39.76-.63.43-.45.88-.88,1.44-1.16.15-.07.28-.18.41-.28.32-.25.64-.5.96-.75.03-.02.07-.03.14-.06.24.69.43,1.35.2,2.07ZM21.84,4.22c.21-.34.11-.74.25-1.1.06-.15.1-.21.25-.12.43.24.86.49,1.29.73.05.03.11.02.16.03.1.02.28.01.3.05.06.21.22.16.36.22.22.09.41.27.63.39.11.06.24.09.35.15.16.08.32.17.48.25.07.03.16.07.22.05.31-.1.64.04.82.3.1.15.27.29.5.23.03,0,.08-.04.08-.03.16.25.46.13.67.25.06.03.12.05.18.07.18.05.36.07.53.14.06.03.13.15.13.23,0,.38-.03.75-.07,1.13-.03.26-.08.53-.12.82-.6-.08-1.18-.17-1.76-.22-.79-.06-1.59-.09-2.38-.14-.15,0-.29-.07-.44-.09-.13-.02-.27-.02-.4,0-.19.01-.38.06-.57.06-.09,0-.26-.09-.25-.12.02-.12.06-.26.15-.33.23-.19.25-.53.04-.77-.31-.35-.64-.69-.9-1.08-.2-.31-.31-.68-.46-1.02,0-.02-.02-.05-.01-.07ZM18.78,4.54c.07-.05.15-.09.23-.13.02-.02.03-.05.05-.07.35-.31.79-.49,1.14-.8.24-.21.6-.18.78.1.39.62.63,1.37.9,2.01.24.57.45,1.32-.27,1.63-.36.16-.81.14-1.2.13-.21,0-.43-.02-.64-.03-.04,0-.07,0-.11,0-.13,0-.26-.02-.39-.03-.07,0-.13,0-.2-.01-.07,0-.13,0-.2,0-.16.08-.4.09-.65.03-.58.06-1.16.15-1.75.13-.24,0-.39-.15-.45-.33-.11.28-.38.24-.68.24.06-.08.09-.15.14-.18.18-.12.36-.24.54-.36.04-.16.15-.29.33-.33.15-.2.36-.35.58-.48.05-.03.1-.06.12-.11.13-.28.2-.31.5-.24,0,0,0,0,0,0,.04-.14.03-.25.08-.3.15-.14.33-.25.49-.37.22-.17.43-.36.66-.5ZM13.22,7.04c.25-.24.44-.43.64-.61.26-.25.55-.48.78-.75.15-.18.25.02.38,0,.03-.27.36-.59.5-.56.49-.42.92-.85,1.56-.92.16-.02.32.05.49.08.02.03.04.06.07.09-.12.08-.24.16-.35.25-.42.34-.84.69-1.26,1.02-.25.2-.54.36-.77.58-.28.26-.52.55-.77.84-.07.08-.09.2-.13.29-.2,0-.4.03-.58-.01-.17-.04-.32-.17-.55-.3ZM25.72,22.82c-.39-.41-6.01-7.31-6.73-8.08-.37-.39-.71-.8-1.03-1.23-.56-.74-1.08-1.5-1.65-2.23-.47-.61-.96-1.21-1.46-1.8-.27-.31-.58-.59-.89-.9.21-.18.39-.2.61-.06.25.17.53.26.84.24.08,0,.19.05.25.12.4.41.75.86.97,1.4.06.15.16.3.28.43-.08-.21-.16-.42-.24-.63,1.85,2.76,3.62,5.57,5.79,8.11-.02.02,3.3,4.61,3.28,4.63ZM22.19,16.4c-.17-.23-.31-.48-.47-.72-.03-.05-.09-.08-.13-.12-.04-.03-.1-.04-.11-.08-.27-.67-.88-1.09-1.25-1.68-.27-.43-.59-.84-.8-1.3-.14-.3-.4-.46-.55-.72-.14-.24-.27-.49-.42-.72-.11-.16-.25-.3-.37-.46-.05-.07-.08-.15-.12-.22-.1-.16-.15-.35-.37-.43-.09-.03-.14-.19-.2-.29-.16-.27-.32-.53-.48-.8.02-.02.03-.05.05-.07.05,0,.11,0,.16,0,.04-.1.11-.2.21-.26.72-.49,1.82-.29,2.64-.23.25.02.54,0,.81,0,.08-.02.16-.04.23-.06,0,.03.01.06.02.09.04,0,.09.01.13.02.5.15.71.65.86,1.1.38,1.17,1.12,2.14,1.69,3.22.28.54.55,1.12.68,1.72.09.44.1.89.15,1.34.04.13.08.27.12.4.09.21.18.42.27.64.2.5.39,1,.56,1.5.28.84,1.34,4.48,1.6,5.31-.15.15-4.17-6.26-4.89-7.19ZM29.21,12.18s0,.02,0,.04c0,1.61,0,3.22-.01,4.83-.02,2.03-.44,4.03-.61,6.05-.05.54-.81.69-.97.13-.39-1.39-.6-2.81-1.02-4.19-.31-1.02-.66-2.02-.8-3.07-.01-.03-.03-.06-.04-.09-.22-.55-.46-1.1-.65-1.66-.32-.95-.75-1.84-1.29-2.67-.33-.51-.68-1.01-.99-1.53-.08-.13-.1-.32-.11-.48,0-.12.03-.25.05-.39.22-.01.3-.15.31-.36.01-.37.19-.46.51-.27.06.03.15.02.22.02.14,0,.29-.12.43.02.02.02.08-.02.12-.02.27-.02.55-.04.82-.05.02,0,.05.04.09.07-.09,0-.15,0-.22.01,0,.02,0,.05,0,.07.18.03.35.05.54.08-.02-.32.21-.45.48-.31-.04.06-.08.11-.13.17.08.06.17.18.23.16.26-.06.55.15.73-.02.17,0,.29,0,.41,0,.06,0,.12.03.18.06.32.15.65.19.99.08.04-.01.13.04.14.08.08.22.16.44.2.66.06.32.11.63.16.95.12.08.21.2.21.39,0,.36,0,.72,0,1.08,0,0,.01.01.02.02.01,0,0,.08-.01.13ZM29.35,4.5c-.02.2-.08.39-.13.61-.38-.11-.75-.15-1.01-.46-.1-.13-.25-.23-.39-.31-.09-.06-.22-.06-.32-.1-.17-.08-.32-.18-.49-.25-.16-.06-.33-.11-.5-.1-.28,0-.47-.12-.65-.31-.14-.15-.28-.21-.48-.14-.06.02-.14,0-.2-.04-.55-.28-1.1-.55-1.64-.85-.51-.28-1-.6-1.54-.93.38-.09.7-.05,1.03.02.35.07.73.05,1.09.05.22,0,.44.01.66-.01.46-.05.92-.13,1.39-.19.47-.06.94-.09,1.4-.15.29-.04.57-.13.86-.18.06,0,.18.07.19.13.05.27.08.55.12.82.02.14-.02.3.13.43.13.11.21.29.03.46-.03.03-.04.13-.02.17.14.27.31.52.42.79.06.16.06.36.04.54ZM29.45,1.1s-.04-.09-.1-.21c.88-.03,1.7-.06,2.51-.1.46-.02.92-.07,1.38-.1.61-.03,1.22-.05,1.82-.08.31-.02.62-.05.93-.07.05,0,.11,0,.14.03.16.19.33.38.46.59.03.04-.04.19-.1.23-.26.2-.53.38-.82.55-.75.44-1.51.87-2.25,1.32-.48.29-.95.6-1.43.87-.35.2-.71.35-1.07.52-.01,0-.03,0-.05.01-.33.15-.33.15-.45-.22-.06-.16-.25-.33-.22-.46.07-.27-.29-.45-.1-.71.02-.02,0-.08-.01-.11-.2-.49-.29-1.01-.41-1.52-.05-.19-.15-.36-.22-.54ZM32.65,17.32c-.26.71-.49,1.42-.74,2.13-.31,1.22-.66,2.44-1.28,3.56-.24.44-.91.23-.92-.25-.04-1.54.39-3.03.51-4.56.12-1.54.08-3.1.08-4.64,0-.93-.07-1.88-.03-2.82.03-.54.13-1.57.9-1.49.02,0,.03,0,.04.01.36-.03.72-.06,1.08-.09.24-.03.48-.1.72-.13.83-.11,1.66-.22,2.49-.32.17-.02.34-.02.53-.04-.01.02-.03.05-.03.05.19.37-.13.63-.21.93-.13.52-.32,1.02-.51,1.53-.07.2-.2.39-.28.59-.04.1-.03.22-.06.33-.07.21-.1.46-.24.62-.19.22-.28.49-.48.71.03.04.07.08.12.13-.06.03-.11.04-.13.07-.04.05-.08.11-.1.17-.03.09-.02.18-.05.27-.03.09-.22.16-.05.29,0,0-.03.09-.06.12-.27.19-.38.49-.5.77-.29.68-.55,1.37-.81,2.07ZM31.45,23.59c.04-.22,2.16-5.37,2.28-5.71.15-.43.34-.84.52-1.26.3-.71.59-1.42.89-2.13.4-.93.8-1.86,1.2-2.79.12-.28.22-.56.34-.83.12-.27.26-.54.38-.81.05-.1.09-.2.14-.31-.02-.12,0-.25.05-.36.32-.61.52-1.35,1.14-1.74.28-.18.62-.25.95-.32.15-.03.3-.06.44-.11.02,0,.05-.02.07-.03.01,0,.03-.01.04-.02.03-.02.06-.04.09-.05,0,0,0,0,0,0,0,0,0,0,0,0,.2-.18.47-.19.68-.01.26-.1.52-.21.78-.32.18-.07.36-.14.54-.21.08-.03.15-.11.22-.11.19.01.38.05.56.11.05.02.1.18.07.23-.05.09-.17.15-.26.24-.04.07-.07.18-.14.24-.43.41-.86.82-1.3,1.22-.23.21-.52.36-.7.6-.25.31-.42.69-.63,1.03-.04.07-.09.13-.13.2-.46.73-.92,1.46-1.37,2.19-.13.21-.23.44-.35.66-.01.02-.03.04-.05.06-.14.12-.29.24-.42.37-.12.12-.34.19-.24.43,0,.02-.03.08-.06.1-.41.17-.47.62-.74.9-.22.23-.31.57-.47.85-.06.12-.14.23-.21.34-.01.02-.04.04-.04.06,0,.28-.27.4-.39.6-.17.28-.58.98-.65,1.09-.06-.13-3.21,5.62-3.24,5.61ZM33.8,21.57s-.07-.05-.11-.08c.27-.41.55-.81.83-1.23.09.05.16.09.29.15-.34.39-.68.77-1.01,1.15ZM35.09,19.99c-.1.09-.32.05-.48.07-.01-.02-.02-.05-.04-.07.19-.34.37-.68.57-1.01.3-.48.61-.96.93-1.42.45-.66.91-1.31,1.38-1.96.33-.46.7-.89,1.04-1.34.39-.5.78-1,1.15-1.52.24-.35.44-.72.67-1.08.12-.18.29-.34.36-.54.11-.29.38-.45.55-.69.27-.38.61-.73.92-1.08.17-.19.35-.36.53-.54.02-.02.07-.03.1-.04l.05.04c-.2.37-.39.75-.59,1.12-.26.49-.49.99-.78,1.46-.28.46-.63.88-.93,1.33-.36.54-.71,1.09-1.07,1.62-.48.7-.97,1.39-1.46,2.08-.26.36-.5.74-.77,1.09-.21.27-.46.52-.68.78-.24.28-.47.58-.71.86-.24.28-.47.58-.74.83ZM37.67,21.34c-.28-.06-.57-.12-.85-.19-.27-.07-.54-.15-.81-.23-.02,0-.03-.01-.05,0-.29.12-.21-.08-.18-.27.64.21,1.28.41,1.91.61,0,.03-.01.05-.02.08ZM55.78,39.42c-.23-.62-.45-1.24-.7-1.92.41.24.83,1.4.7,1.92ZM4.58,35.31c-.08.24-.15.44-.22.64-.03-.01-.06-.02-.1-.04.08-.2,0-.46.32-.6ZM3.99,36.48s.07.03.1.04c-.13.31-.26.62-.39.94-.02,0-.04-.02-.06-.02.05-.35.11-.69.35-.95Z"/>
      <path class="cls-1" d="M35.55,68.27c.37-.21.74-.43,1.12-.63.61-.33,1.24-.63,1.84-.99.41-.24.78-.54,1.16-.82.13-.09.2-.26.33-.34.17-.12.38-.18.56-.28.12-.07.24-.16.34-.26.35-.33.7-.66,1.04-1.01.27-.27.5-.58.76-.86.14-.16.3-.31.45-.46.32-.33.64-.64.94-.99.25-.28.46-.59.69-.89.27-.37.55-.73.82-1.1.19-.26.41-.51.56-.8.32-.58.61-1.17.92-1.76.19-.38.38-.76.57-1.14.3-.6.5-1.24.68-1.89.04-.14.1-.27.16-.4.02-.04.05-.07.05-.11,0-.29.07-.55.2-.82.14-.3.16-.66.2-1,.05-.34.07-.69.1-1.04,0-.03,0-.07.02-.09.22-.25.14-.58.18-.86.08-.48.12-.97.2-1.45.1-.61.13-1.23.23-1.84.1-.63.11-1.26.05-1.88-.05-.61-.13-1.22-.21-1.82-.06-.48-.09-.96-.2-1.43-.13-.61-.32-1.2-.48-1.8-.05-.18-.09-.37-.17-.55-.2-.47-.42-.94-.62-1.41-.31-.72-.59-1.45-.92-2.16-.23-.51-.51-1-.77-1.49-.22-.42-.44-.85-.69-1.26-.14-.23-.37-.4-.53-.61-.16-.21-.3-.44-.46-.66-.04-.06-.1-.11-.15-.17-.05-.07-.1-.14-.15-.2-.1-.12-.2-.24-.32-.38v-.32c-.08.05-.14.08-.2.12-.05-.11-.11-.22-.16-.33.03-.02.06-.04.09-.06.03.06.07.12.14.24.03-.1.05-.16.08-.25.68.72,1.3,1.4,1.94,2.07.75.78,1.28,1.71,1.73,2.68.19.41.43.8.6,1.22.24.57.43,1.17.66,1.74.13.32.33.62.44.94.14.38.23.78.32,1.18.13.58.25,1.17.35,1.76.08.44.11.88.18,1.32.05.29.13.58.2.87.01.07-.02.15-.01.22.04.29.1.59.13.88.02.21,0,.43-.01.64-.03.44-.07.89-.1,1.33-.02.23-.08.44.01.68.06.17-.03.4-.05.61-.03.29-.05.59-.08.89-.09.88-.16,1.77-.41,2.63-.26.88-.46,1.78-.72,2.66-.16.53-.35,1.05-.57,1.55-.17.38-.41.74-.6,1.11-.15.28-.26.59-.41.87-.34.61-.65,1.24-1.06,1.8-.62.85-1.31,1.66-1.98,2.47-.3.37-.62.73-.95,1.07-.31.32-.65.6-.96.91-.56.57-1.21,1.03-1.85,1.51-.26.2-.47.48-.7.73-.04.04-.1.09-.16.1-.33.04-.6.2-.84.41-.08.06-.16.14-.25.16-.23.06-.38.26-.57.32-.27.09-.53.1-.75.34-.17.18-.45.28-.7.34-.43.1-.81.39-1.28.33,0-.02-.02-.04-.02-.06Z"/>
      <path class="cls-1" d="M6.7,59.79c-.02-.07-.03-.12-.05-.18-.24.1-.32,0-.35-.42.32.09.46.37.63.59.32.41.59.86.91,1.27.35.44.75.85,1.13,1.27.39.43.76.89,1.2,1.27.63.55,1.3,1.04,1.96,1.56.45.36.99.54,1.52.75.37.15.71.36,1.05.58.4.26.79.53,1.26.64.64.15,1.15.57,1.75.81.94.39,1.86.81,2.87,1,.84.15,1.66.38,2.49.54.43.08.88.08,1.31.12.31.02.62.02.93.07.93.14,1.87.14,2.81.08.44-.03.89-.16,1.34,0,.05.02.11.03.16.05.02,0,.04.03.12.09-.61.07-1.16.13-1.72.18-.43.04-.86.08-1.29.09-.49,0-.98-.03-1.48-.04-.16,0-.32.05-.47.04-.8-.04-1.6-.08-2.39-.13-.25-.02-.49-.1-.73-.15-.19-.04-.38-.05-.57-.09-.24-.05-.48-.12-.71-.19-.75-.24-1.51-.48-2.26-.73-.04-.01-.08-.03-.12-.02-.37.06-.67-.12-.99-.27-.52-.25-1.05-.5-1.57-.74-.18-.08-.38-.13-.56-.21-.18-.08-.36-.15-.54-.23-.29-.14-.59-.26-.84-.45-.43-.33-.92-.52-1.38-.79-.2-.12-.39-.27-.59-.4-.17-.11-.37-.19-.53-.32-.18-.16-.33-.36-.5-.55-.04-.04-.11-.12-.14-.11-.2.09-.28-.05-.38-.16-.4-.46-.86-.86-1.3-1.28-.17-.16-.3-.36-.44-.55-.27-.37-.54-.74-.81-1.11-.04-.06-.04-.14-.08-.2-.04-.07-.04-.21-.19-.14-.02.01-.11-.05-.12-.09-.18-.41-.36-.82-.53-1.24-.03-.07-.01-.15-.01-.23.05,0,.09.01.18.03Z"/>
      <path class="cls-1" d="M33.59,68.93l1.72-.52c-.54.3-1.1.51-1.7.62,0-.03-.01-.06-.02-.1Z"/>
      <path class="cls-1" d="M1.15,51.01c.1,0,.17,0,.25.01.03.44-.02.59-.25.74v-.75Z"/>
      <path class="cls-1" d="M30.92,73.19c-.3.06-.6.11-.9.17,0-.03-.01-.07-.02-.1.3-.05.6-.1.91-.15,0,.03,0,.06.01.08Z"/>
      <path class="cls-1" d="M43.14,29.44c.16-.04.3.1.46.41-.3.01-.23-.36-.46-.41Z"/>
    </g>
  </g>
</svg>