<?xml version="1.0" encoding="UTF-8"?>
<svg id="Layer_2" data-name="Layer 2" xmlns="http://www.w3.org/2000/svg" viewBox="0 0 81.48 64.86">
  <defs>
    <style>
      .cls-1 {
        fill: #000;
        stroke-width: 0px;
      }
    </style>
  </defs>
  <g id="illustrations">
    <g>
      <path class="cls-1" d="M46.12,34.36c-.13-.26-.28-.51-.45-.75-.15-.21-.38-.32-.63-.41-.4-.15-.46-.55-.53-.9-.08-.4-.41-.75-.78-.79-.05-.14-.11-.26-.13-.4-.07-.31-.16-.61-.42-.82-.29-.23-.58-.49-.91-.65-.3-.15-.63-.32-.99-.29-.38.03-.75.11-1.12.19-.3.06-.58.2-.79.43-.19.2-.38.4-.56.6-.19.22-.32.49-.55.66-.25.19-.48.36-.63.64-.09.17-.24.3-.32.47-.14.27-.24.56-.39.83-.58,1.01-1.31,1.89-2.29,2.54-.16.11-.3.26-.47.36-.32.19-.67.23-1.04.21-.21-.01-.43.03-.63-.02-.29-.06-.56-.18-.8-.25-.04-.18-.05-.35-.13-.48-.46-.76-.93-1.52-1.42-2.26-.29-.44-.65-.83-.97-1.25-.24-.31-.37-.71-.73-.92-.03-.02-.04-.07-.06-.1-.18-.23-.33-.48-.54-.68-.2-.19-.31-.45-.54-.62-.25-.2-.44-.47-.69-.67-.61-.5-1.24-.97-1.86-1.45-.24-.18-.5-.35-.75-.52-.64-.41-1.28-.81-1.93-1.21-.08-.05-.17-.09-.26-.11-.25-.05-.58.07-.69-.31-.01-.04-.09-.07-.13-.1-.39-.28-.78-.56-1.16-.85-.29-.22-.5-.56-.91-.56-.03,0-.06-.03-.08-.05-.41-.47-1-.69-1.48-1.07-.35-.28-.67-.6-1.03-.85-.26-.18-.41-.6-.85-.42.04-.22.02-.24-.19-.42-.84-.74-1.69-1.48-2.51-2.25-.49-.46-.92-.98-1.39-1.46-.17-.18-.39-.32-.58-.49-.06-.05-.11-.11-.15-.17-.14-.2-.22-.46-.41-.59-.27-.19-.46-.43-.66-.67-.27-.34-.58-.65-.85-.98-.66-.82-1.3-1.65-1.95-2.48-.25-.31-.49-.63-.76-.92-.2-.21-.45-.38-.68-.57-.04-.03-.04-.11-.05-.16,0-.01,0-.03-.02-.04-.3-.3-.61-.6-.89-.91-.3-.34-.57-.71-.87-1.05-.04-.05-.15-.05-.23-.05-.03,0-.09.09-.08.12.05.14.08.33.19.4.36.22.46.6.64.93.13.24.11.6.46.61.04.1.06.18.1.23.1.13.22.25.32.39.41.51.82,1.03,1.23,1.55.05.07.08.16.09.19.19.18.37.31.49.49.15.22.31.42.56.52.06.02.14.11.13.16-.04.24.16.36.24.53.23.51.71.86.9,1.39.02.05.12.08.17.12.06.05.14.1.18.17.07.11.1.26.2.34.2.17.34.36.37.63,0,.03.04.07.07.09.13.1.29.17.38.3.15.21.44.28.51.55.36.08.38.38.44.66.02.11.04.27.25.2.1-.03.22.01.33.02-.07.36-.02.39.28.63.19.15.45.28.49.58,0,.03.09.07.14.07.08,0,.15-.04.23-.06.17.47.1.38.52.64.1.06.18.15.25.24.09.11.13.26.24.34.17.13.33.25.36.47,0,.04.08.1.09.1.22-.14.28.09.41.17.13.08.25.16.37.26.12.1.21.23.33.34.37.31.74.62,1.11.92.02.02.06.02.08.04.07.04.14.07.2.11.09.06.17.14.27.2.44.27.88.54,1.33.81.03.02.04.06.07.09.07.07.12.16.2.21.23.15.52.2.7.45.02.03.06.07.1.07.22.03.29.16.28.42-.14-.04-.26-.06-.36-.11-.31-.14-.73-.06-.93-.44-.01-.02-.06-.03-.09-.03-.17-.04-.34-.1-.51-.11-.28-.01-.44-.15-.55-.39-.03-.06-.2-.13-.23-.11-.16.14-.28.04-.41-.03-.11-.06-.23-.1-.34-.16-.23-.12-.47-.22-.65-.47.1-.01.16-.02.21-.02-.08-.08-.17-.1-.25-.15-.16-.09-.41-.15-.45-.28-.06-.19-.17-.25-.3-.32-.34-.2-.68-.4-1.03-.6-.05-.03-.11-.03-.16-.05-.31-.13-.62-.27-.94-.4-.13-.06-.27-.1-.41-.15-.11-.04-.22-.08-.31-.16-.09-.07-.13-.2-.22-.27-.12-.09-.29-.13-.4-.24-.21-.19-.41-.39-.57-.62-.14-.2-.32-.29-.54-.34-.11-.03-.22-.08-.33-.13-.01,0,0-.04-.02-.07.07,0,.12.01.18.02,0-.02.02-.04.03-.06-.14-.09-.28-.18-.42-.28-.28-.21-.55-.42-.82-.63-.02-.01-.05-.02-.05-.04-.12-.45-.58-.58-.84-.91-.01-.02-.06,0-.09,0-.04,0-.1,0-.12-.03-.13-.16-.25-.33-.39-.48-.24-.28-.5-.54-.74-.81-.32-.36-.63-.73-.94-1.09-.09-.1-.14-.26-.24-.31-.2-.1-.3-.25-.37-.45-.04-.11-.07-.25-.15-.32-.39-.32-.6-.75-.86-1.16-.18-.28-.28-.65-.62-.74,0-.11.02-.2,0-.26-.06-.14-.15-.27-.23-.39-.14-.22-.29-.43-.41-.66-.09-.18-.14-.38-.23-.56-.09-.18-.22-.34-.3-.52-.1-.21-.16-.44-.24-.66-.03,0-.06,0-.09,0-.02.07-.07.14-.07.21,0,.18,0,.37.04.54.1.34.21.69.35,1.01.11.24.28.45.43.67.26.4.36.89.73,1.22.08.07.11.21.18.3.1.14.07.25-.01.33v.27l.03-.06c.16.09.35.15.48.28.18.18.31.41.45.62.04.07.06.16.09.24-.02,0-.04.02-.05.03-.07-.04-.13-.09-.2-.13.05.15.08.38.27.31.2-.08.25,0,.33.12-.09.06-.17.11-.26.18.05.05.09.1.15.16.04-.08.08-.13.14-.25.23.23.43.43.67.67-.21.1-.32.26-.09.43.04.03.21.24.33.02-.11-.08-.21-.14-.3-.21.01-.03.03-.05.04-.08.06.02.14.02.18.06.11.1.2.22.29.33.11.13.23.26.34.39.14.18.27.38.42.56.07.09.17.16.26.23-.42-.13-.58-.29-.74-.66-.08-.19-.34-.33-.48-.22.08.08.15.18.23.25.05.04.12.04.19.06-.04.06-.07.12-.14.23.11.05.22.1.3.14.11.22.21.42.31.63.02,0,.03,0,.05-.01,0-.04,0-.08,0-.13.08.04.11.12.15.18.05.06.11.11.18.14.08.03.17.03.25.04v.05s-.08.01-.13.02c.05.04.08.06.12.08.17.08.34.16.5.25.13.07.13.17.04.28-.03.04-.06.08-.09.12.01.01.02.03.04.04.07-.04.15-.08.23-.12.2.31.4.6.82.56,0,.07-.02.14-.01.21.01.36.38.36.56.55.08.08.26.11.28.19.04.18.21.21.3.32.07.09.16.21.26.23.46.08.83.31,1.17.6.15.13.32.25.49.36.19.12.38.25.58.34.12.05.26.05.39.07,0-.03.01-.05.02-.08l-1-.58.02-.08c.07.01.14,0,.19.04.39.21.78.43,1.17.65.19.11.38.22.57.33-.07-.02-.13-.04-.2-.05-.11,0-.22,0-.33,0,0,.03-.01.06-.02.08.2.12.38.28.59.36.43.16.8.47,1.28.52.06,0,.12.06.16.1.03.04.03.11.04.17-.59-.09-1.08-.34-1.62-.44-.55-.1-1.07-.39-1.6-.59-.09-.04-.17-.1-.26-.13-.15-.06-.32-.08-.47-.15-.19-.09-.37-.21-.55-.32-.36-.21-.73-.42-1.09-.63-.14-.08-.28-.15-.41-.23-.28-.17-.56-.32-.82-.51-.74-.51-1.46-1.04-2.19-1.56-.06-.05-.12-.11-.18-.16-.1-.08-.21-.14-.31-.22-.08-.07-.17-.14-.24-.21-.14-.15-.26-.32-.41-.46-.49-.46-1-.9-1.5-1.35-.17-.15-.36-.27-.5-.43-.59-.72-1.01-1.56-1.41-2.39-.02-.04-.07-.06-.11-.08.06.3-.19.36-.33.49-.14.12-.26.35-.54.05.01.48.18.8.44,1.11.21,0,.32.25.3.51.08.07.11.19.17.29.25.41.5.82.89,1.12.07.05.14.1.2.16.24.23.47.48.72.7.19.16.42.27.62.43.47.38.92.8,1.4,1.17.46.36.93.72,1.42,1.04.82.53,1.62,1.09,2.52,1.5.46.21.85.54,1.37.66.33.08.62.35,1,.36.06,0,.11.06.17.09.19.1.38.19.56.29.31.17.66.17.99.35.4.22.88.31,1.34.43.28.07.58.08.86.12,0,.02,0,.03,0,.05-.1.02-.2.03-.29.05.29.14.58.23.88.32.03,0,.08,0,.12-.03.12-.08.21-.03.29.07.05.06.12.11.19.13.24.08.5.12.73.21.31.13.6.32.96.29.03,0,.06.03.09.03.12,0,.24,0,.36,0,.08,0,.2-.02.24.03.26.26.54.45.92.49.13.01.27.04.39.1.47.23.93.49,1.41.72.76.36,1.54.68,2.2,1.23.05.04.15.02.19.06.08.11.16.21.32.17.04,0,.15.07.15.11.04.33.28.41.53.45.04.08.07.15.12.21.04.07.09.14.15.19.05.05.12.13.17.12.23-.05.39.09.56.17.07.03.12.12.18.18.16.19.18.48.47.57.11.03.26.13.27.2.01.19.15.12.23.16.06.03.14.02.18.06.29.31.59.62.87.95.12.14.2.32.31.48.25.35.51.69.77,1.04.38.52.73,1.06,1.13,1.56.21.26.45.56.74.69.48.2.95.5,1.51.49.72-.02,1.42-.08,1.91-.72.07-.1.16-.18.25-.26.77-.75,1.47-1.56,2.08-2.45.23-.33.41-.7.65-1.02.5-.69,1-1.36,1.52-2.03.32-.41.68-.76,1.26-.7.01,0,.03,0,.04-.01.2-.16.4-.15.61,0,.08.06.19.09.28.12.52.2.94.51,1.26.98.06.09.22.12.34.18.06.03.16.07.16.09-.05.19.07.25.23.27-.03.09-.09.18-.08.24.08.31.18.61.27.92-.2.21-.45.16-.69.18-.48.04-.92.19-1.28.5-.49.41-.91.87-.95,1.58-.02.37-.21.73-.27,1.1-.15.97-.28,1.95-.42,2.93,0,.01-.02.03-.02.04-.13.52-.21,1.03.02,1.54,0,.02.02.07.01.07-.21.09-.06.24-.06.37-.04.54-.06,1.09-.11,1.63-.02.24-.1.47-.14.71-.06.35-.08.71-.16,1.06-.11.47-.25.94-.38,1.41-.1.36-.2.71-.32,1.06-.04.13-.22.25-.2.37.03.23-.1.28-.25.33.02.05.07.11.06.15-.08.21-.15.42-.26.62-.08.14-.22.38-.31.37-.25-.04-.33.16-.37.27-.13.35-.38.59-.61.87-.51.61-1.13,1.07-1.75,1.54-.47.36-.96.69-1.43,1.04-.15.11-.28.26-.44.35-.61.34-1.26.61-1.95.75-.12.02-.22.16-.34.19-.69.19-1.39.38-2.09.54-.47.11-.95.13-1.42.25-.51.13-1.01.34-1.51.5-.1.03-.23.03-.34.02,0,0,0,0,0,0-.12.06-.25.13-.37.18-.01.02-.02.04-.03.06.06,0,.11,0,.15,0-.05.07-.12.11-.18.14-.15.07-.32.11-.46.2-.07.04-.11.14-.16.22,0,.01.08.06.12.1-.04.07-.08.14-.12.22.01,0,.02.02.03.03.16-.14.32-.29.48-.43l.04.05c-.15.18-.28.4-.47.54-.45.32-.9.65-1.39.88-.75.34-1.38.82-1.93,1.41-.38.41-.74.84-1.15,1.23-.34.33-.73.6-1.09.91-.75.65-1.5,1.29-2.41,1.71-.08.04-.17.08-.22.15-.24.31-.53.25-.85.16-.24-.07-.33-.25-.35-.45,0-.1.14-.22.23-.3.17-.14.38-.24.55-.39.65-.57,1.3-1.15,1.95-1.73.56-.5,1.11-1,1.67-1.5.13-.12.19-.23.06-.39-.13-.16-.4-.28-.54-.19-.29.18-.57.38-.86.58-.03.02-.04.07-.05.11-.02.07,0,.16-.05.2-.25.27-.49.55-.77.79-.33.29-.72.51-1.03.81-.32.32-.7.52-1.1.71-.05.02-.13,0-.19-.01.02-.06.03-.13.08-.17.41-.38.83-.76,1.24-1.14.11-.1.2-.23.27-.36.1-.2.24-.29.36-.23.09-.1.18-.18.3-.31-.02.13-.03.18-.05.31.33-.38.62-.7.92-1.04-.1,0-.18-.01-.29-.02.26-.14.56-.67.52-.85-.22.15-.46.3-.68.48-.66.54-1.32,1.1-1.97,1.65-.13.11-.24.24-.37.34-.25.2-.51.38-.77.57-.63.48-1.15,1.09-1.87,1.46-.21.11-.42.15-.65.12-.22-.03-.43-.13-.65.02-.06.04-.21,0-.29-.05-.14-.07-.26-.17-.37-.25.02-.09.03-.17.06-.24.1-.34.19-.69.31-1.02.19-.52.56-.92.98-1.27.45-.38.91-.77,1.39-1.11.41-.3.86-.55,1.3-.8.31-.18.64-.31.96-.48.66-.36,1.31-.76,1.98-1.1.62-.31,1.27-.57,1.91-.85.22-.1.43-.26.66-.31.45-.09.81-.34,1.21-.52.22-.1.42-.23.64-.34.7-.36,1.4-.7,2.09-1.07.44-.23.89-.47,1.3-.76.52-.36,1.02-.77,1.52-1.16.4-.31.68-.77,1.21-.9.05-.01.08-.08.11-.12.19-.21.38-.43.58-.64.29-.3.61-.59.9-.9.31-.34.6-.71.91-1.06.17-.2.37-.37.54-.58.35-.44.69-.9,1.04-1.35.09-.12.2-.23.29-.35.08-.11.12-.22-.08-.27.05-.06.1-.12.14-.18,0,.02.02.05.03.07.06,0,.14.01.16-.02.07-.1.12-.22.16-.33.04-.13.06-.27.09-.43-.39.17-.73.3-1.05.46-.24.12-.47.26-.67.44-.14.13-.24.1-.36.01-.33-.25-.65-.26-1.02-.06-.48.26-.99.45-1.39.85-.04.04-.11.06-.17.09-.34.16-.68.32-.99.46-.16-.01-.32-.02-.48-.03,0,.02,0,.04,0,.06.01,0,.02,0,.03.01-.46.21-.95.43-1.44.64-.11.05-.29.13-.35.08-.16-.12-.27-.01-.4.02-.07.02-.14.07-.2.05-.2-.07-.39-.15-.59-.23-.11.03-.23.04-.33,0-.13-.04-.27-.1-.38-.18-.23-.18-.61-.23-.61-.64,0-.04-.1-.09-.16-.13-.13-.08-.26-.16-.41-.26.19-.11.36-.17.48-.28.16-.13.25-.05.36.05.11.1.22.24.35.27.39.09.79.13,1.21.05.53-.1.98-.46,1.54-.46.01,0,.03,0,.04-.02.24-.13.5-.25.73-.4.08-.05.29-.09.1-.36.26,0,.46,0,.67,0,.02,0,.05-.01.07-.02.27-.12.54-.23.8-.36.07-.04.14-.14.15-.22.02-.22-.23-.47-.45-.52-.13-.03-.25-.09-.37-.14-.14.26-.32-.15-.49.02.04.04.08.07.13.11-.39.13-.77.25-1.14.37-.02-.02-.03-.05-.05-.07.11-.09.22-.17.33-.26.37-.29.73-.59,1.1-.88.11-.08.25-.11.36-.18.04-.03.08-.15.06-.16-.1-.09-.14-.31-.35-.18-.04.03-.14.04-.16.02-.16-.18-.28-.02-.39.04-.59.33-1.17.66-1.75,1-.05.03-.13.04-.14.08-.06.21-.25.19-.4.25-.06.02-.13.05-.19.08-.38.22-.75.44-1.13.65-.11.06-.25.07-.36.12-.44.21-.88.43-1.33.63-.16.07-.36.12-.53.1-.23-.04-.45-.16-.69-.25.11-.18.02-.27-.14-.33-.05-.02-.1-.05-.13-.09-.16-.23-.31-.46-.49-.71.23-.08.46-.19.7-.23.55-.09.99-.41,1.48-.63.18-.08.39-.07.56-.15.49-.23.97-.52,1.47-.73.25-.11.48-.22.67-.43.07-.08.17-.14.27-.19.19-.11.39-.21.64-.34-.11-.05-.16-.07-.2-.08.4-.28.78-.56,1.17-.82.17-.11.25-.41.49-.28.1-.13.18-.23.25-.34.08-.13.21-.28.2-.4-.03-.2-.21-.33-.43-.27-.2.05-.4.12-.58.22-.24.14-.43.34-.67.47-.65.34-1.32.66-1.99.98-.12.06-.27.07-.39.13-.24.13-.47.3-.71.43-.57.31-1.14.61-1.71.91-.38.2-.77.39-1.15.6-.14.08-.27.18-.4.27-.06.04-.12.12-.19.13-.46.09-1.06-.08-1.37-.48-.19-.24-.4-.46-.61-.71.04-.06.12-.12.13-.19.02-.25.19-.21.33-.18.3.08.53-.02.72-.26.11-.14.25-.3.4-.35.74-.24,1.49-.43,2.23-.65.3-.09.62-.16.87-.34.2-.14.4-.21.61-.28.48-.16.97-.31,1.44-.5.49-.2.96-.43,1.43-.65.09-.04.24-.11.23-.15,0-.09-.09-.18-.15-.27-.02-.02-.05-.03-.08-.05-.33-.29-.45-.29-.82-.05-.06.04-.17.04-.24.01-.3-.12-.58-.07-.81.15-.06.05-.12.12-.19.14-.25.07-.51.11-.75.18-.37.11-.72.23-1.09.35-.04.01-.09.02-.12.02.03.07.06.12.12.23-.18-.03-.32-.1-.42-.07-.3.09-.59.21-.87.32-.22.09-.44.2-.66.29-.14.06-.3.11-.44.19-.28.16-.54.33-.81.49.12.19.08.3-.14.33-.27.04-.54.07-.81.06-.57-.04-1.13-.12-1.7-.18-.71-.07-1.23-.43-1.56-1.06-.03-.05-.03-.16,0-.18.12-.1.26-.19.39-.26.26-.14.59,0,.84-.22.16-.14.36-.22.54-.34.13-.09.34-.15.28-.36-.07-.24-.28-.16-.45-.14-.54.07-1.08.05-1.63,0-.77-.09-1.34-.57-1.99-.89-.41-.21-.78-.51-1.15-.8-.2-.16-.43-.36-.5-.59-.12-.35-.32-.4-.63-.38-.13,0-.26-.03-.38-.04-.02-.02-.04-.05-.07-.07,0,.08-.03.22-.02.22.21.04.16.25.24.37.07.1.13.2.21.29.03.03.08.05.11.08.33.39.66.78.99,1.16.07.08.18.13.27.19.19.12.38.24.58.34.22.12.42.33.71.27.03,0,.07.03.1.05.09.06.18.13.29.17.18.07.37.12.58.19-.25.42-.45.84-.17,1.28.23.35.4.79.91.86-.06.12-.12.22-.18.33.09,0,.14-.04.2-.05.06-.02.17-.03.2,0,.31.35.72.35,1.13.34.39-.01.62.13.78.47.14.3.3.59.46.89.29.57.83.88,1.32,1.23.27.19.58.29.92.26.07,0,.18.06.21.12.13.3.22.61.35.91.07.16.13.34.36.37.29.03.58.1.87.13.17.02.25.09.3.25.07.25.15.5.25.74.08.18.14.45.29.51.25.11.35.3.5.48.07.08.16.14.26.17.26.09.53.17.8.25.33.1.66.2,1.01.3-.05.02-.08.04-.11.05.54.03,1.08-.02,1.61,0,.24,0,.42-.11.62-.19.27-.1.55-.2.81-.32.53-.25,1.03-.55,1.61-.65.19-.03.36-.16.54-.25l-.02-.05c-.14.01-.28.02-.42.04.27-.15.55-.23.81-.35.15-.07.23-.05.29.12.09-.08.15-.15.26-.24-.1,0-.15,0-.21.01.05-.07.12-.11.19-.14.08-.03.16-.04.24-.07.13-.04.27-.08.4-.13l.05.09c-.1.14-.19.29-.31.41-.2.22-.41.42-.62.62-.49.49-.98.99-1.48,1.48-.64.62-1.33,1.18-2.08,1.67-.59.39-1.15.81-1.73,1.21-.14.1-.29.2-.44.28-.11.06-.23.09-.34.16-.19.11-.37.25-.56.36-.09.05-.21.05-.29.11-.71.52-1.41,1.06-2.12,1.59-.03.03-.08.03-.12.05-.16.07-.32.14-.47.23-.18.11-.34.31-.53.35-.49.09-.97.17-1.37.5-.12.09-.25.18-.38.24-.22.1-.46.18-.68.26,0-.02,0-.04,0-.06-.1.01-.24-.02-.3.04-.26.23-.56.38-.87.53-.4.2-.76.49-1.15.72-.54.31-1.12.56-1.66.89-.65.4-1.26.86-1.9,1.28-.23.15-.49.25-.73.38-.33.18-.54.46-.69.81-.26.59-.49,1.2-.8,1.77-.16.3-.24.59-.18.9.07.34.16.69.3,1.01.08.18.24.36.41.44.52.23,1.07.13,1.61.04.31-.05.61-.19.91-.29.21-.07.46-.03.64-.23.08-.09.26-.1.4-.13.04,0,.13.03.15.07.06.1.11.22.13.33.07.48.64.75,1.08.71.07,0,.18.04.21.1.16.31.6.51.95.43.15-.03.31-.06.46-.03.26.05.49.08.67-.18.02-.03.11-.03.18-.03.07,0,.16.02.21-.01.32-.2.71-.26,1.02-.53.43-.37.95-.64,1.39-1,.47-.39.92-.8,1.32-1.25.45-.51.81-1.1,1.27-1.6.75-.81,1.37-1.7,2-2.6.39-.56.86-1.01,1.44-1.31.46-.24.98-.38,1.49-.52.65-.19,1.32-.34,1.98-.5.51-.12,1.02-.23,1.52-.35.19-.05.38-.17.57-.16.69.04,1.27-.19,1.8-.61.04-.03.1-.08.14-.08.19.02.3-.08.45-.18.46-.32.94-.6,1.41-.9.15-.1.32-.19.45-.32.31-.32.59-.67.89-.99.52-.56,1.05-1.1,1.47-1.74.14-.21.24-.45.51-.55.04-.01.08-.06.1-.1.19-.38.39-.76.55-1.16.08-.2.07-.45.15-.65.11-.25.34-.46.4-.71.07-.28.4-.49.22-.82,0-.01.01-.05.02-.06.08-.11.17-.22.23-.34.09-.19.24-.4.21-.57-.03-.19.02-.31.06-.47.04-.14.12-.31.07-.44-.16-.45-.01-.9-.03-1.35-.01-.32.08-.64.05-.98-.05-.48.06-.97-.09-1.45-.02-.08-.01-.17,0-.26,0-.19.03-.38.02-.57,0-.27-.09-.54-.04-.8.19-1.01.18-2.04.49-3.03.13-.4.31-.76.7-.96.07-.04.16-.06.21-.12.18-.26.47-.22.72-.26.18-.03.39.08.56.03.3-.08.57-.03.86.06.32.09.65.12.98.18.05,0,.09.07.13.07.16,0,.32.01.47-.02.03,0,.07-.2.04-.27ZM7.63,19.25c.07,0,.11-.01.18-.02-.07-.08-.13-.14-.19-.21.02-.02.03-.04.05-.06.13.12.26.23.44.4-.06.03-.11.06-.15.08,0,0,0,0,0,0-.1-.06-.2-.12-.33-.2ZM8.8,20.31c-.03-.06-.05-.14-.11-.17-.15-.09-.33-.14-.46-.25-.12-.11-.18-.29-.27-.43.05,0,.11,0,.15.03.32.26.64.53.96.79.01.01.01.04.02.09-.1-.02-.2-.03-.29-.05ZM10.64,21.61c-.11-.05-.23-.1-.36-.15.04-.06.08-.11.12-.17.1.1.19.18.29.27-.02.02-.03.04-.05.05ZM14.46,23.84c-.24-.05-.49-.07-.63-.33.22.08.44.16.67.24l-.04.09ZM15.21,24.18c-.14-.1-.28-.19-.42-.29.02-.03.03-.05.05-.08.14.09.29.19.43.28l-.06.08ZM20.43,26.52c-.19-.13-.38-.25-.57-.39-.04-.03-.04-.09-.06-.14q.71.28.63.52ZM24.22,28.64c-.24-.15-.48-.32-.68-.53.28.15.55.29.87.46-.08.03-.16.09-.18.08ZM32.18,44.91s.03.04.05.06c-.17.14-.34.29-.51.43-.02-.02-.04-.04-.06-.07.17-.14.34-.28.51-.42ZM15.23,64.09c-.29-.37-.58-.75-.9-1.15.18-.11.31-.19.48-.3-.07.56.22.97.5,1.38-.03.02-.05.04-.08.06ZM18.09,63.19c-.1-.12-.13-.2,0-.29.14-.09.25-.22.36-.35.31-.33.68-.55,1.1-.72.12-.05.22-.16.32-.25.32-.29.64-.58.96-.87.1-.09.22-.17.36-.22-.83,1.14-1.82,2.09-3.11,2.7Z"/>
      <path class="cls-1" d="M81.24,10.85s-.12-.02-.18-.02v-.14c-.12.02-.29.08-.32.04-.14-.19-.2-.01-.26.05-.24.24-.52.37-.87.39.05-.05.1-.09.11-.13.06-.42.42-.73.42-1.17,0-.17.13-.35.17-.52.07-.32.11-.64.16-.96.06-.35.16-.71.17-1.06.02-.49,0-.98-.05-1.46-.01-.15-.13-.32-.24-.44-.17-.2-.38-.37-.57-.56-.02-.02-.05-.04-.08-.05-.17-.01-.33-.02-.52-.03.05-.11.11-.21.14-.32.16-.56.31-1.13.47-1.69.07-.23.18-.45.22-.68.1-.68.3-1.36.05-2.06-.27-.06-.36-.02-.34.17,0,.08-.03.17-.04.25-.01.08-.03.17-.04.25-.02.16-.03.32-.07.47-.14.49-.28.98-.44,1.46-.1.31-.24.62-.36.93-.08.2-.15.4-.23.6-.03.08-.08.16-.12.24-.02.06-.03.14-.06.21-.03.1-.07.2-.11.29-.09.21-.19.42-.26.64-.06.19-.33.33-.19.54-.37.45-.85.77-.87,1.41-.03-.02-.05-.05-.08-.07-.08.07-.18.13-.24.22-.09.13-.15.28-.22.42-.13.25-.27.49-.41.74-.08.13-.16.26-.25.38-.07.1-.2.18-.23.28-.04.14-.1.23-.19.28-.03.05-.05.1-.08.14h0s-.01.01-.02.02c-.01.02-.02.04-.04.06,0,.01-.02.02-.03.03-.2.27-.38.5-.54.74-.13.19-.24.39-.36.58-.21.33-.43.67-.65,1-.16.23-.33.45-.52.67-.15.18-.32.35-.5.51-.23.2-.5.35-.5.71,0,.04-.06.08-.1.11-.22.2-.45.37-.59.64-.08.16-.19.31-.31.46-.39.48-.83.92-1.17,1.42-.33.49-.7.92-1.16,1.29-.13.1-.26.21-.36.34-.09.11-.11.27-.2.37-.74.79-1.48,1.57-2.23,2.35-.23.24-.49.47-.73.71-.33.34-.66.68-.99,1.03-.32.35-.73.63-.95,1.08-.02.04-.11.06-.17.08-.13.04-.31.04-.39.13-.3.32-.63.65-.83,1.03-.1.18-.21.35-.32.53-.23.35-.49.7-.72,1.05-.19.3-.38.61-.54.93-.34.67-.66,1.35-1.01,2.02-.23.46-.51.89-.73,1.35-.19.4-.28.84-.5,1.22-.4.68-.86,1.32-1.3,1.98-.18.26-.43.49-.29.85.02.06.05.14.09.15.06.02.14,0,.2-.04.12-.06.23-.15.35-.22.11-.07.24-.1.32-.19.27-.32.55-.64.77-1.01.29-.49.5-1.02.78-1.51.2-.35.45-.67.69-1.03,0-.05,0-.16.03-.24.15-.32.32-.62.48-.93.28-.57.53-1.16.85-1.7.47-.82.98-1.62,1.51-2.39.3-.43.59-.91,1.13-1.11.03-.01.06-.03.07-.06.23-.47.63-.77,1.01-1.09.11-.09.26-.13.38-.2.33-.2.66-.41.99-.62.11-.07.29-.13.3-.22.03-.17.14-.22.25-.28.21-.11.42-.23.62-.36.15-.09.29-.2.44-.29.31-.2.72-.18.98-.53.16-.22.46-.37.73-.46.28-.09.47-.31.76-.4.27-.09.53-.26.77-.43.33-.23.65-.49.98-.73.32-.23.67-.44.97-.7.29-.26.73-.33.91-.72.01-.02.06-.03.08-.05.41-.32.84-.61,1.22-.95.45-.41.85-.87,1.29-1.29.28-.27.58-.5.89-.74.4-.32.83-.61,1.22-.93.23-.19.43-.41.69-.67.08-.05.24-.14.39-.23.02.06.04.11.06.17.11-.08.2-.15.34-.25-.01.13-.01.2-.03.27-.05.21-.11.42-.17.63-.08.3-.17.6-.26.89-.04.14-.07.28-.12.47-.12.07-.63,1.3-.58,1.48-.31.4-.42.92-.94,1.13.02.02.03.04.05.06h.21c-.06.13-.09.25-.16.32-.26.24-.21.52-.17.82.09.01.17,0,.25.03.23.08.35-.03.41-.24.03-.1.04-.21.1-.28.3-.4.59-.81.93-1.18.22-.25.41-.5.5-.82.02-.06,0-.13-.01-.25,0,0,.06-.05.09-.11.13-.23.28-.45.36-.69.06-.17.26-.29.2-.52-.03-.11.04-.25.08-.37.03-.09.1-.18.12-.27.1-.36.03-.74.14-1.11.1-.36.1-.75.14-1.12-.23-.01-.05-.17-.09-.25-.05-.1-.08-.2-.13-.32.13-.02.26-.02.37-.07.07-.03.19-.15.17-.18-.05-.13-.14-.24-.23-.34ZM79.53,7.33c-.08.31-.01.65-.05.98-.04.34-.13.67-.21,1.01-.09.35-.17.69-.29,1.03-.1.28-.23.56-.37.82-.12.22-.28.42-.41.64-.03.05.03.14.01.2-.01.07-.04.18-.1.21-.47.28-.79.72-1.18,1.08-.4.37-.76.78-1.16,1.15-.28.26-.59.49-.88.75-.11.1-.19.24-.3.34-.15.15-.33.28-.48.42-.46.41-.91.84-1.38,1.24-.22.19-.47.35-.69.53-.13.1-.24.23-.36.34-.27.24-.53.48-.81.7-.31.24-.63.45-.94.68-.32.25-.65.5-.95.76-.15.13-.27.31-.4.46-.03.03-.08.06-.13.07-.1.03-.23.01-.31.07-.38.26-.79.49-1.1.81-.31.31-.72.45-1.02.75-.01.01-.04,0-.14.02.15-.16.26-.27.37-.38.58-.57,1.18-1.13,1.75-1.71.53-.54,1.03-1.1,1.55-1.64.25-.26.5-.51.74-.77.22-.23.45-.45.66-.69.05-.06.06-.16.07-.19.16-.15.3-.27.43-.4.08-.09.13-.2.22-.28.19-.18.14-.29-.07-.39-.02,0-.02-.04-.03-.07.29.07.5-.05.67-.25.11-.14.18-.31.27-.46.02-.03.04-.09.07-.09.27-.04.21-.24.19-.4-.02-.15.04-.2.19-.18.1.01.2-.01.3-.02,0-.02,0-.05,0-.07-.09,0-.18,0-.33-.02.08-.08.11-.13.16-.15.34-.15.53-.48.8-.71.28-.23.43-.52.62-.81.07-.11.24-.16.42-.26-.12-.03-.18-.04-.25-.06.35-.1.57-.37.59-.72,0-.05.02-.1.04-.13.13-.15.27-.29.41-.44.16-.16.28-.33.35-.56.07-.23.29-.41.44-.62.08-.11.13-.23.21-.35.06-.09.13-.18.19-.28.17-.25.35-.5.52-.74.3-.44.61-.88.91-1.32.08-.12.14-.27.22-.39.09-.12.2-.24.31-.34s.24-.19.38-.3c.24.35.47.65.35,1.11Z"/>
      <path class="cls-1" d="M18.92,29.54c.37.08.68.15,1,.21.04,0,.11,0,.13.03.13.19.37.22.5.34.33.29.76.33,1.1.57.22.16.46.29.69.42.07.04.2.08.24.05.14-.13.21,0,.28.06.04.04.03.14.04.24.12.04.3.07.44.16.45.29.87.6,1.31.9.36.25.74.46,1.09.73.31.24.59.53.88.81.03.03.04.1.05.15-.02.02-.04.04-.06.06-.2-.15-.4-.29-.59-.45-.33-.27-.63-.59-.97-.84-.48-.34-.98-.66-1.5-.92-.46-.23-.97-.38-1.46-.57-.15-.06-.28-.18-.43-.24-.16-.07-.33-.13-.5-.15-.33-.04-.67-.05-1.01-.09-.49-.07-.97-.16-1.45-.25-.13-.02-.25-.05-.23-.24,0-.05-.11-.12-.21-.22-.02.27-.14.29-.31.27-.3-.03-.61-.04-.91-.06-.17-.01-.36.06-.48-.14,0-.01-.03-.02-.04-.02-.41.15-.79-.13-1.19-.09-.06,0-.13-.07-.2-.11-.06-.03-.12-.07-.19-.08-.17-.02-.35-.02-.52-.05-.18-.04-.35-.12-.55-.18-.04.23-.19.25-.37.2-.15-.04-.29-.12-.44-.16-.14-.04-.29-.05-.44-.08-.17-.03-.34-.08-.51-.11-.21-.03-.42-.05-.64-.08-.16-.02-.33-.04-.49-.09-.23-.08-.45-.19-.68-.29-.06-.03-.1-.07-.14-.1-.06.01-.14.05-.21.03-.55-.11-1.09-.26-1.59-.52-.26-.13-.57-.16-.84-.27-.15-.06-.27-.19-.41-.29-.22.22-.35-.07-.53-.15-.16.02-.31.04-.47.06-.18.03-.28.16-.24.31.06.23.17.46.29.67.45.76,1.1,1.32,1.89,1.69.52.24,1.05.48,1.63.56.13.02.23.14.36.17.54.14,1.11.21,1.63.4.49.18.98.21,1.49.23.1,0,.2.05.3.09.12.04.22.1.06.22-.02.01-.04.03-.04.05.01.2.01.21-.18.21-.39,0-.78-.02-1.18-.05-.42-.03-.85-.07-1.26-.09-.64-.02-1.24-.17-1.85-.31-1.11-.25-2.08-.75-2.86-1.63-.47-.53-.85-1.11-1.23-1.69-.33-.51-.28-1.04-.04-1.58.22-.49.02-.83-.47-1.08-.47-.24-.93-.54-1.2-1.03-.3-.55-.61-1.1-.92-1.65-.05-.09-.14-.16-.21-.23-.03.03-.06.05-.14.12.01-.36-.28-.39-.45-.55-.37-.35-.71-.73-1.05-1.12-.17-.19-.31-.41-.42-.64-.07-.14-.05-.31-.06-.47-.02-.23.16-.26.32-.33.18-.07.37-.14.54-.23.06-.03.08-.12.15-.19.05-.09.1-.18.16-.27.07-.11.17-.3.23-.29.14.03.33.12.38.23.11.26.14.56.22.84.03.11.06.23.14.31.22.24.16.54.2.81,0,.04.02.09.05.13.37.6.98.9,1.57,1.22.53.29,1.04.61,1.58.87.47.23.98.41,1.47.6.17.07.34.18.55.11.07-.02.17.04.25.07.27.09.53.18.79.28.14.06.26.15.39.23.35.2.75.22,1.13.31.25.06.48.19.72.25.45.12.9.21,1.35.33.72.2,1.44.41,2.17.61.55.16,1.11.3,1.67.46.89.27,1.78.55,2.67.84.19.06.36.16.55.24.01,0,.03.03.04.03.4-.08.65.26.98.38.34.12.71.21,1.02.39.37.2.69.48,1.03.72.05.03.1.06.17.1-.03.12-.05.25-.07.33-.49-.14-.97-.27-1.44-.42-.2-.07-.39-.2-.59-.27-.29-.09-.59-.15-.89-.23-.9-.22-1.8-.44-2.7-.65-.08-.02-.18-.03-.26-.03-.15,0-.3.05-.36-.16-.01-.04-.14-.06-.22-.08-.14-.03-.28-.06-.42-.09-.5-.14-1-.27-1.49-.42-.31-.09-.62-.21-.93-.31-.27-.08-.54-.13-.81-.22-.16-.06-.31-.13-.5-.14-.22,0-.43-.11-.65-.16-.07-.02-.15.01-.23.02-.03,0-.08.04-.09.03-.17-.18-.39-.05-.58-.11-.03,0-.08-.02-.09-.04-.16-.36-.51-.16-.76-.24-.56-.17-1.16-.26-1.71-.48-.52-.2-.99-.53-1.49-.77-.46-.22-.94-.4-1.41-.59-.17-.07-.34-.12-.51-.19-.47-.21-.47-.22-.75-.53.1.16.18.33.29.47.33.42.71.79,1.24.98.15.05.28.15.34.36.04.16.24.29.39.41.64.5,1.39.77,2.15,1,.94.29,1.88.6,2.84.85.99.26,2,.47,3,.71.15.03.3.07.45.1.57.11,1.15.21,1.72.32.29.06.58.12.86.22.38.13.77.09,1.16.05.12-.01.25.02.37.06.15.04.3.11.45.15.05.01.12-.06.13-.07Z"/>
      <path class="cls-1" d="M48.86,41.86c.29.36.21.82.33,1.22.11.37.25.72.38,1.08.03.08.04.16.06.25.08.31.15.63.24.94.04.15.06.3.13.43.17.31.37.61.56.92.04.06.06.13.09.2.02.06.03.12.06.18.05.12.09.25.15.36.04.09.1.18.15.27.27.39.53.79.81,1.18.21.28.43.56.68.8.68.66,1.43,1.26,2.28,1.68.92.46,1.78,1.03,2.78,1.31.16.04.29.16.44.23.08.04.18.07.27.07.28.02.55.05.75.26.03.03.08.07.12.07.47.01.48.45.66.73.07.1-.25.3-.43.25-.31-.09-.62-.2-.93-.3-.08-.03-.17-.09-.25-.08-.4,0-.7-.18-1-.44-.24-.21-.54-.34-.88-.34-.08,0-.16-.02-.23-.05-.47-.24-.96-.47-1.41-.75-.2-.13-.43-.16-.63-.27-.49-.27-.99-.51-1.4-.92-.52-.51-1.07-.98-1.6-1.47-.12-.11-.19-.27-.29-.4-.29-.38-.59-.75-.87-1.14-.15-.22-.26-.47-.41-.68-.21-.29-.46-.55-.67-.83-.07-.09-.07-.23-.12-.33-.21-.42-.44-.83-.65-1.24-.09-.18-.17-.36-.22-.55-.14-.49-.26-.97-.38-1.47-.05-.22-.05-.44-.08-.66-.02-.16-.07-.31-.11-.46,0-.03-.02-.06-.02-.09.02-.38.01-.76.07-1.12.07-.38.21-.75.31-1.13.03-.13,0-.28.04-.41.09-.31.19-.62.3-.93.04-.1.14-.18.19-.27.08-.14.1-.28.07-.47-.03-.18.08-.47.23-.59.27-.21.21-.5.29-.75,0-.02-.01-.05,0-.07.29-.48.09-1.01.16-1.5.07-.44.13-.88.21-1.32.03-.15.05-.26-.12-.34-.91-.43-1.84-.68-2.82-.27-.06.02-.14.05-.16.1-.13.28-.39.19-.6.2-.16.01-.27-.07-.14-.24.16-.2.33-.41.53-.57.28-.24.63-.4.88-.66.19-.2.3-.5.38-.77.2-.72.55-1.34,1.11-1.82.25-.22.51-.44.86-.47.04,0,.09-.03.13-.06.08-.05.14-.14.22-.17.25-.08.52-.13.78-.21.3-.09.6-.24.9.02.1.08.28.08.42.1.73.14,1.32.51,1.84,1.04.51.53.95,1.1,1.22,1.77.12.3.23.58.49.8.12.1.18.29.25.44.18.36.36.72.52,1.08.05.11.05.24.09.36.02.05.06.1.1.15.06.08.13.16.17.25.02.04-.02.13-.06.16-.04.03-.12.03-.17,0-.39-.17-.63-.42-.81-.84-.35-.79-.76-1.56-1.22-2.29-.35-.56-.78-1.08-1.28-1.51-.08-.07-.19-.14-.29-.15-.3-.04-.53-.21-.75-.4-.15-.13-.25-.29-.51-.21-.17.05-.4-.06-.58-.02-.58.12-1.09.4-1.55.78-.26.21-.5.44-.77.64-.27.2-.33.52-.49.78-.03.05-.09.11-.09.17,0,.08,0,.2.05.23.29.21.57.39.96.19.49-.25.86.14,1.06.48.29.48.25.96.14,1.49-.08.39-.02.8-.06,1.2-.06.54-.14,1.08-.24,1.61-.04.18-.28.37-.25.51.06.26-.22.38-.17.61.04.22.03.45.02.67-.05.68-.12,1.36-.17,2.04-.01.17.02.35.03.53.01.38.02.76.02,1.14,0,.03-.08.07-.13.11ZM48.09,42.15s.06,0,.09,0c-.02-.36-.04-.72-.06-1.09,0,0-.02,0-.03,0v1.09ZM48.15,42.4s-.02,0-.04,0v.91s.02,0,.04,0v-.91Z"/>
      <path class="cls-1" d="M76.06,60s-.06-.08-.08-.12c0,.04,0,.07,0,.11-.02,0-.04.01-.06.02-.02-.06-.03-.13-.06-.19-.19-.49-.21-1.03-.69-1.41-.36-.29-.77-.54-1.02-.97-.15-.26-.44-.44-.69-.64-.65-.53-1.3-1.06-1.98-1.56-.64-.47-1.31-.89-1.97-1.33-.6-.4-1.2-.78-1.8-1.19-.42-.29-.84-.59-1.23-.92-.15-.12-.27-.33-.31-.52-.05-.23-.37-.7-.61-.78-.25-.08-.47-.22-.54-.5-.01-.05-.07-.1-.12-.14-.26-.2-.54-.39-.79-.61-.17-.14-.32-.31-.47-.47-.59-.61-1.19-1.21-1.77-1.82-.51-.54-1-1.09-1.55-1.7-.06.18-.15.32-.14.45.03.3.09.6.19.88.05.15.19.28.3.41.08.09.18.16.26.25.47.53.94,1.06,1.42,1.58.3.33.63.63.95.94.18.17.41.31.55.51.14.21.28.35.55.37.1,0,.19.15.27.24.07.07.11.21.19.23.24.07.42.21.6.38.31.29.66.54.96.85.4.41.72.89,1.15,1.26.56.48,1.17.9,1.78,1.32.34.24.63.58,1.08.65.05,0,.12.07.15.12.21.42.66.49,1.01.71.42.27.88.47,1.3.74.4.26.69.66,1.16.84.15.06.29.2.38.34.24.38.45.77.66,1.16.12.22.09.45-.04.66-.4.63-1.06.84-1.76.73-.15-.02-.14-.11-.14-.22,0-.15-.02-.32-.08-.45-.08-.19-.18-.39-.33-.52-.24-.2-.27-.66-.72-.61-.02,0-.05-.04-.07-.06-.25-.29-.5-.58-.76-.86-.33-.37-.67-.73-1.01-1.09-.19-.2-.37-.4-.57-.58-.3-.27-.67-.49-.89-.82-.27-.41-.62-.72-.95-1.07-.38-.41-.72-.87-1.06-1.31-.14-.18-.28-.09-.43-.05-.17.05-.14.16-.08.26.12.22.24.46.4.66.59.71,1.19,1.41,1.79,2.11.44.51.86,1.03,1.31,1.53.4.44.82.86,1.23,1.28.11.11.23.21.36.31.2.15.4.3.6.45.06.05.12.11.18.16.08.07.16.15.21.19.18.34.33.64.5.97-.08.02-.12.04-.15.04-.85,0-1.63-.25-2.36-.67-.12-.07-.2-.23-.29-.35-.09-.12-.16-.26-.26-.37-.32-.37-.65-.74-.99-1.11-.38-.41-.76-.82-1.13-1.23-.13-.15-.22-.32-.34-.48-.03-.05-.06-.11-.11-.14-.19-.15-.4-.29-.59-.44-.41-.32-.81-.66-1.23-.97-.21-.16-.46-.27-.69-.39-.04-.02-.12.03-.19.04.02.06.03.14.07.18.8.7,1.6,1.39,2.39,2.08.09.07.2.13.26.22.1.14.14.31.24.45.19.28.42.54.61.83.22.33.4.7.62,1.03.22.32.47.61.69.92.07.1.24.22.06.37-.38.3-.79.45-1.27.32-.26-.07-.53-.14-.78-.25-.13-.05-.25-.15-.34-.25-.22-.24-.43-.49-.65-.73-.04-.05-.1-.09-.11-.15-.1-.49-.34-.91-.63-1.3-.28-.38-.34-.9-.76-1.19-.03-.02-.03-.07-.04-.11-.15-.33-.26-.68-.48-.97-.28-.38-.63-.7-.97-1.03-.36-.35-.76-.67-1.12-1.03-.17-.17-.31-.2-.52-.03.1.14.18.29.29.4.41.42.84.82,1.25,1.24.14.15.29.31.39.48.27.47.52.95.79,1.42.24.42.49.83.73,1.25.22.38.41.77.63,1.15.16.27.34.52.5.79.2.32.4.64.77.78.3.12.64.2.9.38.51.35,1.51.05,1.88-.35.15-.16.22-.37.34-.58,0,0,.03,0,.06,0,.33.14.65.28.97.43.07.03.12.12.18.17.05.05.11.1.17.12.22.07.44.14.66.18.15.03.31,0,.46-.01.15-.02.31-.06.45-.12.09-.04.18-.13.22-.23.06-.15.07-.31.11-.49.35.31.71.31,1.09.16.27-.11.54-.23.8-.36.02-.01.04-.01.06-.02.06-.03.11-.05.17-.09.01,0,.04-.02.06-.04,0,0,0,0,.01-.01.04-.04.08-.08.12-.12,0,0,0,0,0,0,.01-.02.02-.03.03-.05.03-.05.06-.1.09-.16,0,0,0,0,0,0,0-.02.01-.04.02-.06.04-.11.06-.22.08-.33,0-.01,0-.03.01-.05,0,0,0-.01,0-.02,0-.06,0-.11,0-.16,0-.01,0-.02.01-.03,0-.03,0-.05,0-.08,0,0,0,0,0,0Z"/>
      <path class="cls-1" d="M71.58,32.43c-.09-.45-.01-.63.53-.79.57-.17,1.16-.25,1.74-.36.05,0,.11.02.16.03.33.06.6.05.88-.25.3-.32.73-.51,1.09-.77.2-.14.37-.3.39-.57.01-.2-.06-.28-.26-.22-.61.19-1.2.44-1.74.79-.14.09-.32.13-.47.19-.22-.39-.03-.75.38-.92.64-.27,1.27-.57,1.9-.88.41-.2.83-.31,1.29-.34.12,0,.26-.04.36-.11.3-.23.63-.45.85-.74.18-.24.29-.57.32-.87.04-.37-.26-.61-.5-.87-.35-.38-.75-.36-1.2-.26-.47.11-.96.13-1.42.25-.62.16-1.22.39-1.83.58-.26.08-.53.14-.78.22-.14.04-.27.13-.41.16-.09.02-.19-.04-.26-.06-.15,0-.27-.03-.39-.02-.1,0-.19.05-.28.08-.06.02-.15.05-.17.03-.19-.16-.17,0-.17.08h-1.75c-.07-.23.09-.33.26-.4.42-.16.83-.33,1.28-.41.21-.04.4-.21.6-.32.03-.02.06-.06.09-.07.66-.21,1.32-.41,1.97-.64.58-.21,1.11-.55,1.64-.87.07-.04.14-.08.21-.11.99-.41,1.86-.97,2.57-1.77.45-.51.81-1.07,1.09-1.72-.41.21-.82.41-1.21.65-.54.33-1.06.69-1.59,1.03-.03.02-.06.04-.09.04-.18.01-.39.16-.52-.07-.08-.13.18-.62.33-.68.19-.08.38-.16.55-.28.61-.41,1.21-.82,1.81-1.24.24-.16.46-.34.7-.49.09-.06.22-.07.33-.1.14-.04.29-.08.45-.12.08.26.33.21.53.26.33.08.37.13.2.41-.25.42-.48.86-.79,1.24-.54.67-1.12,1.3-1.69,1.94-.38.42-.79.83-1.21,1.26.01.02.05.1.08.19.69-.18,1.18-.09,1.65.65.2.31.36.64.53.96.21.39.03.74-.14,1.09-.15.3-.32.59-.49.88-.02.03-.03.08-.06.1-.41.26-.76.61-1.26.69-.18.03-.23.11-.21.34.04.53-.08,1.06-.53,1.42-.4.31-.81.62-1.24.9-.16.11-.38.13-.57.2-.11.04-.21.08-.31.14-.29.18-.58.05-.87-.02-.36-.08-.66.05-.97.18-.2.08-.4.2-.58.33-.26.2-.52.16-.79.02Z"/>
      <path class="cls-1" d="M65.42,43.03c.09.54.31,1.06.12,1.62-.07.21-.11.45-.23.64-.08.13-.27.19-.41.27-.43.26-.86.49-1.38.43-.33-.03-.65-.12-.98-.17-.26-.04-.53-.06-.79-.07-.39-.01-.66-.23-.89-.5-.09-.11-.19-.22-.29-.34.05-.11.1-.23.16-.35.07-.14.26-.15.42-.05.27.18.53.35.8.52.06.04.13.09.2.08.48-.06.91.25,1.4.2.03,0,.06,0,.1,0,.58-.06,1.29-1.02,1.19-1.6-.05-.28-.14-.31-.41-.26-.37.08-.76.12-1.14.15-.05,0-.16-.1-.17-.17-.07-.39-.06-.39-.41-.58.22-.01.45-.04.67-.03.31.02.55-.13.78-.29.24-.16.48-.32.73-.46.36-.22.72-.42,1.08-.63.04-.02.09-.05.12-.08.27-.37.67-.58,1.01-.87.02-.02.04-.05.09-.13-.16-.01-.28-.04-.39-.01-.03,0-.03.16-.04.26-.07.04-.15.1-.25.12-.09.02-.18,0-.28,0-.15,0-.3.01-.45,0-.15,0-.36.09-.41-.13-.05-.23.16-.3.32-.35.48-.14.96-.27,1.45-.38.07-.02.15.04.22.06.75.22,1.34-.09,1.89-.55.13-.11.25-.24.4-.3.47-.2.58-.66.74-1.06.04-.1-.06-.28-.14-.39-.21-.31-.45-.15-.7-.04-.43.19-.87.37-1.31.52-.21.07-.45.09-.68.11-.07,0-.14-.04-.21-.07.03-.06.07-.11.1-.17.22-.33.57-.44.93-.54.2-.06.4-.14.56-.26.36-.28.81-.32,1.21-.51.4-.19.82-.36,1.22-.56.3-.15.51-.39.58-.74.04-.21.14-.4.22-.6-.02-.02-.04-.05-.05-.07-.77.26-1.53.52-2.31.78-.02-.44.1-.6.49-.75.3-.12.58-.3.88-.37.25-.06.47-.17.7-.26.19-.07.4-.09.6-.14.32-.08.62-.2.9-.41.32-.23.68-.4.97-.68.12-.12.2-.24.14-.42-.02-.06,0-.17.05-.21.04-.03.15-.02.21,0,.4.16.59.46.53.82-.05.29-.3.42-.51.53-.38.21-.8.36-1.22.49-.33.1-.6.38-.89.59-.03.02-.02.1,0,.15.12.44.04.89-.15,1.25-.16.31-.52.54-.82.74-.22.14-.49.2-.75.27-.15.04-.17.12-.13.25.05.15.13.3.15.46.1.61-.09,1.14-.5,1.59-.23.26-.52.42-.84.54-.19.08-.35.18-.46.39-.32.58-.83.98-1.37,1.32-.76.49-1.55.93-2.33,1.4Z"/>
      <path class="cls-1" d="M21.21,33.89c-.21.14-.4.27-.64.03-.09-.09-.46.04-.59.17-.05.05-.12.1-.19.1-.29.02-.58.03-.88.05-.06,0-.12.04-.17.08-.16.14-.34.13-.48,0-.04-.04-.09-.06-.14-.09-.02.02-.04.04-.05.06.05.06.1.13.16.2-.17.07-.34.14-.53.22.06-.22,0-.28-.21-.23-.47.1-.91.34-1.42.23-.21-.04-.45.04-.67.04-.16,0-.33-.05-.49-.08-.06,0-.12,0-.19,0-.27.05-.52.07-.81,0-.34-.09-.72-.03-1.08-.04-.5-.02-1.01-.03-1.51-.08-.4-.04-.8-.19-1.19-.18-.44.01-.79-.25-1.2-.27-.2-.01-.4-.02-.59-.06-.18-.04-.36-.12-.53-.19-.03-.01-.03-.1-.04-.15-.08-.02-.18-.03-.27-.05-.19-.06-.32-.14-.3-.39.02-.24-.02-.49-.03-.71.2,0,.39,0,.59,0,.13,0,.25.01.37.05.15.04.3.11.44.17.04.02.1.05.11.08.04.28.24.28.35.27.13.09.2.18.27.18.3-.01.59-.05.79.25.11.17.26,0,.39-.02.09-.01.18-.02.28-.03.22-.01.44-.02.65-.03.03,0,.07.02.09,0,.24-.19.46,0,.68.05.08.01.14.17.23.27.17-.39.49-.18.74-.16.25.02.48.09.73-.08.1-.07.3,0,.45.01.15,0,.29.01.44.02.2.01.39.04.59.04.16,0,.32-.04.48-.07.2-.03.4-.09.59-.09.14,0,.24-.04.37-.11.19-.1.44-.12.66-.15.19-.02.38.02.56.02.04,0,.1-.04.13-.08.16-.18.35-.23.58-.24.21-.01.42-.08.63-.12.07-.01.14,0,.23,0v-.09c.42-.04.84-.09,1.26-.13.51-.05,1.03-.2,1.55-.06.22.06.44.14.63.26.08.05.13.25.1.36-.03.13-.13.31-.23.34-.38.12-.78.19-1.17.26-.08.01-.17-.05-.21-.07-.14.09-.25.17-.36.25.07-.08.14-.16.21-.25-.01-.02-.03-.05-.04-.07-.07.02-.14.04-.21.06-.12.03-.29-.02-.27.18,0,.04.2.05.31.08ZM11.15,34.44c.24.02.47.04.69.05-.32-.26-.59-.28-.69-.05Z"/>
      <path class="cls-1" d="M24.36,35.8c-.21.06-.42.13-.63.18-.12.03-.25,0-.36.04-.1.03-.18.12-.28.15-.48.13-.95.28-1.43.37-.65.12-1.3.2-1.88.54-.07.04-.14.11-.21.16-.08.05-.15.1-.23.14-.16.08-.34.13-.49.23-.26.16-.5.35-.77.51-.07.04-.2,0-.28-.05-.04-.02-.07-.13-.06-.19.05-.55.32-.96.8-1.23.48-.27,1-.49,1.44-.8.57-.4,1.26-.43,1.87-.69.41-.18.84-.22,1.29-.25.27-.02.53-.12.79-.17.11-.02.23-.03.34-.01.17.02.34.05.49.1.23.08.03.29.1.42,0,0,0,.02,0,.02q.05.55-.5.54Z"/>
      <path class="cls-1" d="M26.77,34.13c.47.49.95.98,1.43,1.46.14.14.3.25.46.37.1.08.18.16.08.27-.02.02-.16-.04-.22-.1-.57-.55-1.15-1.11-1.7-1.67-.07-.07-.07-.21-.1-.32.02,0,.04,0,.06-.01Z"/>
      <path class="cls-1" d="M30.55,38.36c-.5-.55-1.1-1.02-1.52-1.65.02-.02.04-.05.06-.07.11.08.24.15.31.25.24.35.58.6.9.88.15.13.24.34.36.51-.03.03-.07.06-.1.08Z"/>
      <path class="cls-1" d="M61.37,54.26c-.33-.26-.66-.53-.99-.79.31-.05.99.49,1.05.74-.02.02-.04.04-.05.06Z"/>
      <path class="cls-1" d="M63.65,54.63c.27-.05.53.1.63.41-.23-.15-.43-.28-.63-.41Z"/>
      <path class="cls-1" d="M5.13,16.54c.03.08.06.16.09.24-.05,0-.15.03-.16.01-.04-.06-.04-.14-.06-.22.04-.01.08-.02.12-.03Z"/>
    </g>
  </g>
</svg>