<?xml version="1.0" encoding="UTF-8"?>
<svg id="Layer_2" data-name="Layer 2" xmlns="http://www.w3.org/2000/svg" viewBox="0 0 89.96 110.02">
  <defs>
    <style>
      .cls-1 {
        fill: #000;
        stroke-width: 0px;
      }
    </style>
  </defs>
  <g id="illustrations">
    <g>
      <path class="cls-1" d="M19.33,80.95c-.41.49-.81,1.03-1.12,1.61.38-.37.76-.74,1.11-1.14.42-.49.79-1.03,1.06-1.62-.36.37-.72.75-1.05,1.15Z"/>
      <path class="cls-1" d="M87.52,107.11s.06.02.09.03c-.21.03-.42,0-.62,0-.28,0-.57.06-.85.05-.48,0-.96-.05-1.44-.06-.42-.01-.84,0-1.27,0-.95-.03-1.89-.07-2.84-.09-1.02-.02-2.05-.01-3.08-.03-.4,0-.81-.02-1.21-.05-.11,0-.28-.1-.29-.17-.05-.54-.06-1.08-.09-1.62-.01-.22-.05-.44-.07-.67-.02-.37-.04-.74-.04-1.11,0-.49,0-.97.01-1.46,0-.23,0-.46,0-.67-.05-.17-.12-.33-.13-.49-.05-.78-.1-1.56-.11-2.35-.02-.84,0-1.69,0-2.47.09-.12.2-.2.22-.3.12-.75.14-1.5-.11-2.22-.23-.68-.22-1.38-.23-2.07-.02-1.02.05-2.05.08-3.08.01-.34.03-.69.05-1.03.03-.47.06-.94.09-1.42.03-.51.05-1.01.1-1.51.04-.33.21-.56.6-.52,0,0,0-.03,0,0-.05-.06-.13-.11-.13-.15.03-.23-.1-.47.11-.68.06-.07.09-.19.1-.29,0-.18.09-.19.24-.17.19.02.38.01.57.02.32,0,.58-.31.51-.6-.06-.24-.13-.5-.27-.69-.41-.53-.84-1.05-1.29-1.55-.53-.58-1.12-1.1-1.64-1.68-.68-.75-1.33-1.54-1.99-2.31-.08-.09-.16-.21-.16-.31-.01-.28-.17-.43-.39-.56-.18-.11-.38-.21-.53-.36-.34-.34-.67-.7-.99-1.06-.28-.32-.53-.66-.8-.99-.23-.28-.46-.56-.67-.85-.11-.15-.14-.36-.26-.49-.17-.2-.39-.36-.59-.54-.94-.82-1.73-1.78-2.51-2.74-.77-.96-1.47-1.96-2.28-2.88-1.52-1.74-3.08-3.44-4.64-5.14-.76-.83-1.54-1.64-2.32-2.46-.37-.38-.64-.79-.63-1.36,0-.47-.02-.95-.05-1.42,0-.15-.07-.3-.1-.45-.02-.06.02-.14.02-.22-.02-.6-.07-1.2-.08-1.8-.02-.92-.02-1.84-.04-2.76-.01-.56-.05-1.13-.09-1.69-.03-.44-.08-.87-.11-1.31,0-.1.03-.21.06-.33-.03-.06-.09-.15-.09-.23-.01-.48.01-.96-.02-1.44-.05-.71-.13-1.42-.21-2.12-.08-.76-.18-1.51-.26-2.27-.08-.78-.02-1.6-.58-2.28.17-.02.3-.04.43-.05.33-.04.5-.18.48-.51-.03-.41-.06-.86-.24-1.22-.52-1.05-.94-2.14-1.39-3.22-.34-.81-.68-1.62-1.03-2.43-.08-.19-.21-.36-.28-.55-.31-.91-.6-1.82-.91-2.73-.16-.48-.34-.95-.49-1.43-.2-.67-.36-1.35-.58-2-.35-1.04-.73-2.06-1.11-3.09-.56-1.5-1.13-2.99-1.68-4.5-.27-.74-.5-1.51-.75-2.26-.19-.57-.36-1.15-.6-1.7-.49-1.15-1.02-2.28-1.52-3.42-.13-.3-.26-.63-.28-.95-.06-1-.06-2-.08-3,0-.21-.02-.41,0-.62,0-.08.07-.19.13-.21.21-.07.43-.12.65-.15.34-.04.7,0,1.03-.07.26-.06.52-.19.71-.36.1-.09.07-.33.1-.51.01-.08.04-.16.06-.24-.06-.06-.1-.14-.17-.19-.13-.1-.27-.24-.45-.08-.13.11-.25.23-.39.34-.06.05-.16.1-.21.08-.43-.13-.85-.27-1.32-.12,0-.11,0-.17,0-.23-.02-.3.02-.62-.07-.9-.1-.32-.22-.63-.3-.95-.07-.27-.35-.33-.61-.35-.23-.02-.41.1-.45.31-.06.27-.08.56-.07.83.02.39.1.78.13,1.18,0,.1-.1.26-.18.29-.51.16-1.03.24-1.55.08-.79-.23-1.29.09-1.37.91-.02.2.09.31.28.3.84-.05,1.68-.1,2.53-.14.07,0,.18.07.2.13.1.39.29.78,0,1.18-.03.04-.03.12-.03.18.02.51.07,1.01.03,1.53-.03.43-.02.84-.21,1.26-.28.63-.45,1.32-.66,1.98-.36,1.14-.73,2.28-1.07,3.43-.49,1.62-.96,3.24-1.43,4.86-.2.69-.33,1.39-.54,2.07-.34,1.12-.76,2.21-1.07,3.34-.5,1.78-.94,3.58-1.42,5.37-.05.18-.06.43-.31.4-.01.18,0,.35-.03.5-.31,1.19-.61,2.39-.98,3.57-.23.73-.37,1.5-.71,2.2-.25.52-.41,1.1-.59,1.65-.09.27-.03.57.16.75.2.2.26.41.27.66.02.47.02.95.05,1.42.05.82.12,1.65.17,2.47.04.62.03,1.24.09,1.86.08.85.18,1.69.07,2.55-.04.33-.09.65-.09.98-.03,1.82-.05,3.64-.06,5.46,0,1.13-.03,2.25-.22,3.38-.08-.02-.15-.03-.23-.05.19.13.07.18-.04.24-.38.22-.73.48-.96.88-.16.28-.36.55-.54.81-.18.25-.38.49-.56.75-1.09,1.62-2.19,3.24-3.44,4.74-.84,1.01-1.52,2.13-2.41,3.09-.66.71-1.22,1.52-1.82,2.28-.45.58-.88,1.17-1.35,1.73-.56.66-1.15,1.3-1.74,1.94-.16.17-.35.32-.55.51,0,0,0,.07-.04.12-.28.37-.56.74-.84,1.11-.98,1.26-2.01,2.48-3.21,3.54-1.19,1.05-2.16,2.28-2.9,3.68-.46.88-.73,1.82-.8,2.81,0,.02,0,.04,0,.06.04.02.09.05.14.07.02,0,.03.02.05.02.11.04.21.07.32.1.04,0,.1.01.14.02,0,0,.02,0,.02,0,.03,0,.05,0,.08,0,.11,0,.22,0,.33,0,0,0,.02,0,.04,0,.02,0,.04,0,.04,0,.06-.01.12-.02.18-.04.21-.05.4.02.53.17.27-.24.54-.48.81-.72-.07.56-.15,1.1-.22,1.65-.08.65-.17,1.3-.22,1.95-.08.91-.14,1.82-.18,2.74-.04.86-.05,1.72-.07,2.59-.02.8.02,1.61-.06,2.4-.07.67-.29,1.33-.42,1.99-.15.78-.3,1.56-.4,2.34-.18,1.38-.34,2.77-.49,4.16-.12,1.13-.23,2.26-.33,3.4-.02.28-.13.4-.4.42-.15.01-.3.06-.45.07-.41.05-.82.08-1.23.13-.62.06-1.23.14-1.85.18-.81.05-1.62.11-2.42.09-1.26-.03-2.5.09-3.71.44-.67.19-1.33.26-2.02.26-.27,0-.55.05-.82.09-.09.01-.16.08-.26.13.06.05.07.08.09.08.13,0,.26,0,.39,0,1.02,0,2.04.19,3.07.08.78-.09,1.56-.1,2.35-.14.41-.02.83-.07,1.24-.06,1.05,0,2.08-.1,3.11-.29.78-.15,1.57-.26,2.35-.32.39-.03.79.1,1.18.13.19.01.39-.04.58-.07.79-.13,1.59,0,2.39-.11.66-.09,1.34-.08,2.01-.12,1.12-.07,2.23-.14,3.35-.2.12,0,.24.06.35.1-.07.07-.15.14-.28.27.46-.07.86-.13,1.26-.18v-.08h-.87v-.08c1.2-.08,2.4-.15,3.59-.23,0,.03.01.07.02.1l-.55.23s.01.07.02.11c.13,0,.26-.01.38-.02-.05-.23.16-.17.26-.22.23-.12.47-.18.75-.16.51.02,1.03-.03,1.55-.06.12,0,.25-.02.34-.08.32-.19.64-.35,1.03-.35.16,0,.33-.03.49-.05.28-.03.56-.06.84-.11.29-.05.57-.11.86-.17v.07s-.03.04-.06.07c.13,0,.25-.02.37-.02.11,0,.23.01.34.02,0,0,0-.02,0-.03-.05,0-.09-.01-.2-.03,1.06-.24,2.12-.02,3.18-.38v1.09c-.16-.04-.26-.06-.36-.09.19.42.57.17.84.3,0-.02.02-.05.02-.07-.09-.03-.17-.07-.26-.1l.02-.08c.12.03.24.07.37.1.11.03.21.09.32.08.31-.01.61-.05.92-.07.04,0,.09.06.13.06.12,0,.26,0,.37-.03.06-.02.09-.12.15-.19,0,0,.03.06.07.14.07-.13.11-.2.16-.28-.67.08-1.32.16-1.97.24v-.13c.22-.02.46-.04.69-.07.15-.02.31-.01.45-.06.17-.06.31-.18.47-.25.07-.03.2-.06.24-.02.17.16.36.07.54.09.26.02.52.05.78.08.04,0,.08-.02.12-.03.19-.02.37-.04.56-.04.08,0,.16.08.3.15-.25.04-.41.06-.59.09.16.14.26.23.37.32,0-.02,0-.05,0-.08.12,0,.23-.01.33-.02-.04-.05-.09-.11-.16-.21.34-.06.63-.17.85.1-.09.05-.18.1-.27.15.01.03.02.05.04.08.16-.01.31-.03.47-.04.02-.19.09-.29.3-.29.22,0,.26-.19.25-.34-.03-.33-.1-.66-.13-1-.11-1.07-.24-2.14-.32-3.21-.06-.74-.07-1.49-.06-2.23,0-.61.08-1.22.09-1.82,0-.39.08-.74.26-1.09.11-.21.19-.44.26-.66.06-.18.04-.39.13-.56.07-.15.17-.29.26-.43-.04-.12-.02-.26.08-.4.42-.55.91-1.12,1.52-1.41.08-.29.26-.45.58-.49.26-.03.51-.12.76-.19.21-.06.94.12,1.04.25.25.32.51.64.76.96.07.09.15.18.22.27.21.18.4.39.57.61.37.48.7,1.02.86,1.61.17.6.11,1.22.04,1.83-.08.67-.1,1.34-.11,2.01.12,1.78.17,3.57.22,5.36.17,0,.3.02.43.02,0,.02.01.04.02.06-.12.05-.23.09-.41.16.36.09.64-.04.55-.18-.1-.16,0-.24.03-.37.08-.38.13-.76.16-1.15.05-.51.07-1.03.1-1.55.05-.83.14-1.67.14-2.5,0-.59-.1-1.18-.16-1.77-.1-.9-.22-1.8-.29-2.7-.08-.97-.11-1.94-.17-2.91-.02-.39-.15-.75-.46-1-.32-.26-.65-.5-.98-.75-.1-.08-.23-.14-.3-.23-.28-.37-.53-.77-.84-1.11-.15-.16-.4-.29-.62-.31-.55-.05-1.07-.18-1.55-.45-.15-.08-.32-.16-.48-.18-.45-.05-.92-.14-1.32.16-.34.26-.67.54-1.02.78-1.02.72-1.83,1.6-2.31,2.78-.39.95-.73,1.93-.77,2.94-.04,1-.06,2.01.08,3.01.14,1,.21,2.01.28,3.01.08,1.2.06,2.4.3,3.58.08.38.15.43.55.31.03-.41.08-.83.09-1.24,0-1.04.18-2.08.06-3.12-.07-.6-.02-1.22-.05-1.83-.04-.71-.13-1.42-.15-2.13-.02-.52,0-1.04.08-1.55.09-.56.3-1.11.42-1.67.17-.75.52-1.41,1-1.99.31-.37.69-.7,1.01-1.06.51-.6,1.16-.67,1.88-.55.23.04.49.07.71,0,.26-.08.45-.05.61.13.58.64,1.13,1.31,1.73,1.94.36.38.55.83.74,1.29.14.34.23.71.14,1.13-.07-.06-.12-.09-.16-.13-.31-.36-.61-.74-.93-1.1-.46-.5-.83-1.14-1.65-1.09,0,0-.02,0-.02,0-.63-.21-1.23-.11-1.7.35-.54.53-1.05,1.1-1.54,1.67-.29.33-.56.68-.79,1.05-.32.52-.61,1.06-.66,1.68-.03.3-.06.6-.1.89-.05.48-.16.96-.15,1.44,0,.51.15,1.02.18,1.53.07.96.09,1.92.16,2.88.02.3.08.63.22.89.13.22.18.4.14.64-.02.13-.03.28-.01.41.04.31.02.34-.29.35-.28,0-.55,0-.83,0-.22,0-.45.08-.67.04-.34-.06-.74.13-1.01-.25-.15-.21-.41-.36-.38-.66.01-.14.11-.28.11-.43.02-.39,0-.79.02-1.18.02-.89.04-1.79.06-2.68.01-.47.04-.93.04-1.4,0-1.13-.06-2.28.04-3.4.11-1.19.3-2.38.59-3.53.34-1.35.87-2.64,1.77-3.73.26-.32.49-.7.99-.71.05,0,.1-.06.15-.1.35-.33.76-.56,1.22-.71.12-.04.24-.14.32-.24.25-.29.57-.5.93-.55.45-.06.9-.05,1.35-.05.41,0,.8.08,1.12.36.21.19.45.35.66.54.49.43,1.03.82,1.43,1.31.52.64.96,1.34,1.37,2.06.27.47.5.99.59,1.52.12.72.1,1.47.12,2.21.01.48-.02.95-.03,1.43,0,.42,0,.85,0,1.26.1.05.16.09.23.13-.07.12-.2.23-.19.33,0,.43.03.86.07,1.29.03.3.11.6.12.91.01.47-.08.96-.02,1.42.1.83-.03,1.65-.03,2.47,0,.8-.25,1.6.11,2.4.02,0,.08.02.13.03.39.08.47.01.47-.38,0-.25,0-.51,0-.76,0-.7.01-1.39.02-2.09,0-.68.02-1.36.02-2.03,0-.43-.04-.87-.03-1.3.02-.73.1-1.47.02-2.21-.06-.59-.03-1.18-.04-1.78,0-.21-.02-.41-.05-.61,0-.07-.07-.12-.09-.14.02-.1.05-.16.05-.23-.02-.41-.03-.82-.08-1.23-.07-.7-.12-1.39-.03-2.09.04-.32.01-.68-.09-.99-.44-1.35-1.29-2.44-2.22-3.48-.13-.14-.29-.29-.46-.36-.62-.23-1.26-.42-1.89-.63-.47-.16-.95-.27-1.38-.49-.36-.19-.62-.18-.94.06-.37.28-.78.5-1.27.54-.2.02-.42.09-.57.22-.3.27-.63.34-1.01.35-.38,0-.71.12-.94.49-.14.24-.38.42-.58.61-.17.17-.38.3-.54.47-.48.52-.73,1.18-1.03,1.8-.24.49-.39,1.03-.46,1.58-.06.46-.26.9-.39,1.3v-.27s-.04,0-.07,0c-.32,2.45-.85,4.88-.69,7.39h-.14c.02.06.03.1.05.15.06.18.17.35.17.53,0,1.03-.03,2.05-.02,3.08,0,.53.03,1.07.11,1.59.08.48.38.57.8.25,0,.11,0,.19,0,.27-.03.26-.33.41-.65.49-.46.1-.84-.15-1.26-.22-.07-.37-.13-.74-.21-1.1-.06-.28-.17-.56-.19-.85-.04-.48-.02-.96-.03-1.44,0-.06-.02-.14,0-.18.23-.35.05-.71.02-1.06-.03-.38-.14-.76-.17-1.14-.04-.68-.04-1.35-.06-2.03-.01-.45-.05-.89-.04-1.34,0-1.02,0-2.05.05-3.07.05-1.13-.02-2.27.18-3.4.14-.79.19-1.59.26-2.39.09-1.02.16-2.05.22-3.07.1-1.74.16-3.47.27-5.21.05-.8.2-1.59.24-2.4.09-1.74.27-3.47.42-5.21.01-.13.07-.26.09-.35-.03-.12-.07-.21-.07-.31,0-.27,0-.54,0-.82,0-.24.02-.49.02-.73,0-.33.01-.67.02-1,.01-.39.02-.77.04-1.16.01-.25.07-.49.07-.74.02-.86,0-1.72.03-2.58.04-.99-.06-1.99.17-2.96,0-.02,0-.05,0-.08-.01-.52-.02-1.05-.03-1.57,0-.08-.02-.15-.02-.23-.01-.15-.03-.31-.02-.46,0-.19.03-.38.04-.57.02-.33-.01-.66.05-.98.07-.34.22-.65.33-.94.42,0,.86-.03,1.3,0,.6.04,1.19.14,1.79.2.05,0,.1-.08.15-.12-.5-.07-.99-.14-1.5-.21.03-.03.04-.05.05-.06.86-.06,1.72-.16,2.58-.06.5.06,1.03.16,1.51.05.75-.17,1.5-.11,2.25-.19.42-.05.86.08,1.28.06.69-.03,1.39-.13,2.08-.19.47-.04.95-.07,1.42-.1.01.04.02.07.03.11-.06.05-.12.11-.14.13.18.16.37.33.55.5-.08.08-.15.13-.16.18-.04.24-.1.49-.09.73.05,1.49.09,2.98.18,4.47.07,1.17.22,2.33.3,3.5.04.54,0,1.09.03,1.63.03.44.11.88.16,1.32.03.3.03.61.06.91.1.99.22,1.98.33,2.98.03.3.12.62.04.89-.09.33-.08.64-.08.96,0,.37-.03.75-.04,1.12-.02.7-.04,1.39-.04,2.09,0,.63.08,1.26.05,1.89-.04.97.05,1.93.16,2.89.06.57.18,1.14.26,1.71.06.44.14.89.15,1.34.01.67.17,1.32.07,2.01-.08.55.03,1.14.06,1.71.02.37.08.74.08,1.1.01.93,0,1.86,0,2.79.01.95,0,1.91.08,2.86.08.86.05,1.72,0,2.57-.09,1.38-.27,2.75-.21,4.14.03.72-.02,1.44-.07,2.15-.02.26-.1.53-.18.78-.1.3-.02.48.24.56.08-.11.13-.2.2-.25.13-.08.18,0,.25.12.06.1.2.15.31.21.08.04.17.07.26.1.14-.06.29-.1.44-.09.19.02.38.1.57.12.96.11,1.93.18,2.89.32.68.1,1.36.18,2.03.06.46-.08.88,0,1.32.05.08,0,.15,0,.23,0,.61,0,1.21-.01,1.82-.02.33,0,.65,0,.98-.01.61-.01,1.23-.02,1.84-.04.06,0,.12-.03.19-.04,0-.03,0-.06-.01-.1h-3.57c.03-.35.14-.43.39-.36.05.01.1.02.15.02.85-.04,1.68.16,2.54.02.74-.12,1.51.08,2.23-.14.08.09.15.17.21.24.02-.01.03-.03.05-.04-.05-.08-.1-.16-.17-.26.08-.02.15-.03.22-.05-.05-.15-.1-.23-.28-.2-.26.03-.53.02-.79.02-.75,0-1.5,0-2.25.02-.84.01-1.65-.13-2.42-.47.03-.34.07-.66.09-.99.06-1.01.06-2.01-.08-3.02-.07-.5,0-1.01-.02-1.52-.02-.4-.04-.79-.14-1.18-.14-.57-.21-1.16-.3-1.75-.01-.08.02-.17.03-.23-.23-.85-.29-1.72-.41-2.58,0,0,.01-.02.02-.03.03.03.05.06.1.13v-.96c-.08-.11-.15-.24-.15-.37-.01-.37.03-.74,0-1.1-.04-.66-.12-1.32-.15-1.99-.03-.71-.03-1.43-.04-2.14,0-.56-.03-1.13-.02-1.69.01-.56.07-1.12.1-1.68.07-1.07-.06-2.16.21-3.22.02-.08-.03-.24-.09-.26-.08-.03-.21,0-.29.06-.08.06-.13.17-.22.3-.09-.21-.22-.39-.23-.57-.01-.16-.08-.2-.19-.22-.12-.02-.25-.02-.39-.03,0,.07,0,.1.02.13.28.67.34,1.36.35,2.09.02,1.39.15,2.77.26,4.15.09,1.08.17,2.17.09,3.25-.03.4-.09.79-.1,1.19,0,.37-.02.74-.01,1.12,0,.3.08.6.05.9-.02.24-.02.49,0,.73.01.29.05.58.07.87.01.22-.02.45.02.67.08.46.24.92.29,1.38.13,1.19.23,2.38.33,3.56.03.36-.05.75.05,1.09.1.34.11.66.09,1,0,.13-.02.27.01.4.05.17.15.32.2.49.14.41.25.82.15,1.26-.03.13-.03.29.02.4.16.38.09.5-.32.48-.66-.03-1.32-.07-1.99-.1-.63-.03-1.26-.07-1.89-.11-.31-.02-.44-.24-.35-.53.09-.29.2-.6.22-.9.06-.83.11-1.66.1-2.5-.01-1.08-.06-2.15-.14-3.23-.1-1.31-.16-2.62-.07-3.93.03-.35,0-.69-.18-1-.05-.08-.05-.2-.05-.3-.01-.67-.02-1.34-.03-2-.01-.67-.04-1.34-.04-2.01,0-.93.02-1.86,0-2.79-.02-.93-.08-1.85-.15-2.78-.06-.77-.16-1.54-.24-2.31-.02-.21,0-.42-.04-.62-.12-.61-.29-1.21-.33-1.85-.04-.67-.16-1.34-.23-2-.03-.24-.03-.47-.05-.69.13-.04.22-.06.31-.09,0-.03,0-.06,0-.09-.09,0-.17-.02-.25-.02,0-.25,0-.51,0-.77-.01-.43,0-.87-.06-1.3-.04-.32-.16-.62-.22-.94-.1-.54-.19-1.08-.28-1.62-.02-.13,0-.26,0-.39.02,0,.04,0,.07,0,.02.15.03.3.05.45.03,0,.05,0,.08.01.06-.17.09-.34.07-.53-.03-.24-.08-.48-.11-.72-.07-.67-.14-1.35-.2-2.02-.08-.91-.16-1.82-.24-2.72-.05-.58-.09-1.16-.13-1.75-.03-.59-.06-1.19-.07-1.78-.03-1.08.14-2.17-.13-3.29.07.09.12.15.16.21.56.84,1.11,1.68,1.68,2.51.29.41.49.89.93,1.19.06.04.06.17.11.25.05.09.09.19.16.25.08.06.19.08.28.12-.08.22.07.32.2.43.16.13.34.23.36.48,0,.06.08.11.12.16.29.28.58.56.87.85.44.43.94.82,1.31,1.31.38.49.86.87,1.26,1.32.48.53.97,1.05,1.41,1.61.4.51.92.88,1.41,1.31-.08.13-.03.23.12.3.1.05.19.12.26.21.38.47.74.95,1.13,1.41.54.65,1.1,1.28,1.65,1.93.43.5.87,1,1.29,1.52.45.55.87,1.14,1.33,1.68.6.7,1.25,1.37,1.79,2.13.2.29.45.54.63.77.04.42.07.81.11,1.22.17-.14.18-.71.07-.87.07-.11.11-.21.17-.29.06-.07.15-.16.22-.16.36.04.71.1,1.1.16-.05.08-.11.15-.1.16.14.2-.04.3-.13.42-.02.03-.04.07-.05.11-.08.34-.19.68-.22,1.03-.08,1.08-.15,2.17-.19,3.25-.04.89-.05,1.78-.06,2.66,0,.63-.11,1.25-.06,1.89.04.55.03,1.1.03,1.65,0,1.62-.03,3.24-.03,4.87,0,.81.01,1.62.05,2.43.06,1.26.13,2.51.23,3.77.04.55.14,1.09.22,1.64.04.27.16.44.46.46.07,0,.17.13.19.21.03.14-.05.23-.2.23-.22,0-.44,0-.61,0-.04-.16-.05-.26-.09-.34-.12-.25-.24-.49-.37-.73-.43-.75-.42-1.61-.57-2.42-.06-.33.02-.68,0-1.02-.03-.52-.04-1.04-.15-1.54-.08-.35.02-.7-.11-1.05-.09-.25-.05-.56-.07-.84-.04-.57-.08-1.13-.1-1.7-.02-.4.09-.83-.04-1.18-.17-.44-.06-.86-.09-1.29-.05-.72-.02-1.44-.02-2.16,0-.16.03-.33.08-.48.07-.23.2-.46-.05-.67-.02-.02,0-.08,0-.12.03-.3.07-.6.09-.9,0-.12-.06-.25-.1-.4.03-.09.1-.22.11-.36.03-.26.04-.53.05-.79,0-.19,0-.37,0-.56,0-.29-.01-.59-.02-.88,0-.13.03-.26,0-.38-.06-.2-.18-.39-.07-.61.03-.06,0-.16-.01-.23,0-.04-.06-.07-.09-.1-.02.04-.06.07-.07.12,0,.03.01.07.01.11-.03.36-.07.73-.09,1.09-.02.43,0,.85-.02,1.28,0,.03-.02.07-.04.09-.14.22-.15.4.09.48-.04.08-.1.15-.11.22-.03.4-.08.81-.04,1.2.03.25-.03.32-.27.3.07.16.12.29.19.41.09.16.1.31.05.49-.07.26-.07.54-.1.8,0,.07-.02.14-.04.21-.04.17-.1.34-.11.52-.01.14.03.29.04.43.02.37,0,.74.06,1.1.06.37-.12.75.09,1.1.02.03-.03.11-.06.15-.04.06-.09.12-.13.18.2.1.29.34.25.64-.02-.04-.04-.07-.08-.12.04.78.09,1.51.13,2.3,0,.02-.08.1-.07.18.01.31.07.61.08.92.04,1.17.04,2.35.1,3.52.04.85.13,1.7.42,2.52.11.3.22.6.37.88.07.14.2.27.34.33.31.15.63.27.99.23.26-.03.52-.03.78-.03,1.11-.01,2.22,0,3.33-.04.95-.03,1.89-.1,2.84-.15.4-.02.81-.04,1.21-.07.21-.02.42-.08.64-.11.2-.02.39-.06.59-.06.99-.01,1.98-.1,2.97-.15.61-.03,1.22-.06,1.82-.08.16,0,.31,0,.47,0-.81-.29-1.63-.08-2.44-.11ZM49.16,89.35c.5.42.93.9,1.21,1.51.27.6.59,1.18.83,1.79.12.31.11.67.16,1.01-.02,0-.04,0-.07,0-.29-1.81-1.51-3.08-2.54-4.54.16.09.31.14.41.23ZM54.31,42.55c.06.36.02.74.06,1.1.07.68.19,1.35.26,2.02.08.74.15,1.49.19,2.23.02.38-.06.77-.07,1.16,0,.34.04.68.05,1.03,0,.94,0,1.88,0,2.81,0,.9-.03,1.81-.04,2.71,0,.48-.13.94-.35,1.36-.1.2-.26.4-.55.37-.45-.06-.9-.11-1.35-.16.08-.27.2-.54.23-.82.05-.45.06-.91.06-1.36,0-.61-.02-1.22-.03-1.83-.01-.65-.04-1.31-.05-1.96,0-.39.01-.77.02-1.16,0-.15-.01-.31-.02-.46-.08-.91-.11-1.82-.08-2.73.02-.51,0-1.01,0-1.52,0-.36-.01-.72-.03-1.08-.03-.61-.06-1.23-.11-1.84-.05-.55-.19-1.11-.16-1.66.02-.33-.12-.62-.08-.95.04-.31-.02-.63,0-.94.02-.4.08-.8.11-1.2,0-.11-.02-.22-.03-.33.03-.02.05-.05.08-.07.16.09.42.14.47.27.08.2.27.3.32.52.05.23.17.44.23.67.15.55.29,1.11.42,1.67.17.71.34,1.42.47,2.14ZM53.56,36.16c-.21-.08-.41-.16-.61-.24.17-.08.35-.16.53-.24-.03-.09-.06-.16-.09-.23.25.03.3.26.16.71ZM35.57,34.91s.07-.08.11-.12c.26-.91.51-1.82.8-2.71.35-1.08.77-2.13,1.11-3.21.23-.75.34-1.53.54-2.28.29-1.13.62-2.25.93-3.37.21-.78.37-1.57.62-2.34.2-.63.41-1.26.63-1.89.01-.07.02-.14.04-.21.2-.98.5-1.94.8-2.89.61-1.89,1.29-3.77,1.58-5.75.04-.26.21-.37.41-.38.05-.06.13-.1.2-.13.02-.02.04-.05.07-.06.25-.16.58-.04.72.19.25.39.48.79.68,1.2,0,0,0,0,.01.01.64.94.75,2.09.92,3.19.19.63.36,1.27.56,1.9.34,1.07.78,2.1,1.18,3.15.45,1.21.9,2.42,1.37,3.63.12.3.31.57.42.87.23.62.41,1.26.63,1.89.22.62.48,1.23.7,1.85.3.85.57,1.72.87,2.58.12.36.3.7.43,1.05.39,1.06.76,2.12,1.15,3.18.13.36.29.7.45,1.08-.07.03-.15.06-.23.09l.02-.09c-.09-.04-.18-.12-.27-.12-.17,0-.35.03-.51.08-.21.07-.3-.03-.44-.17-.31-.3-.67-.56-1.01-.83-.08-.07-.17-.14-.22-.23-.27-.49-.54-.98-.78-1.48-.25-.52-.46-1.05-.7-1.57-.29-.62-.61-1.23-.89-1.86-.5-1.12-1-2.23-1.46-3.36-.55-1.36-1.06-2.73-1.58-4.1-.09-.23-.12-.48-.17-.73-.04-.21-.14-.34-.38-.33-.14,0-.27-.04-.41-.05-.2-.02-.32.08-.37.28-.42,1.66-.83,3.33-1.26,4.99-.36,1.4-.85,2.77-1.43,4.1-.35.8-.66,1.61-.93,2.44-.23.68-.61,1.25-1.03,1.81-.22.29-.44.58-.64.88-.11.17-.17.37-.26.57.15.06.24.11.32.13.24-.21.49-.42.73-.63.05-.07.1-.14.15-.21.63-.9,1.14-1.86,1.54-2.89.23-.6.57-1.15.86-1.73.15-.3.28-.6.43-.9.22-.45.48-.87.65-1.34.23-.6.39-1.23.57-1.84.24-.79.47-1.59.7-2.39.03-.11.05-.23.12-.35.09.24.17.48.27.72.59,1.46,1.16,2.94,1.8,4.37.27.61.69,1.17,1.08,1.73.68.99,1.26,2.02,1.72,3.13.26.63.58,1.23.93,1.81.15.25.33.51.64.64.14.06.24.21.34.29-.76.04-1.53.04-2.28.13-.54.07-1.07.09-1.61.09-.06.12-.16.21-.33.24-1.37.28-2.75.22-4.13.24-1.37.01-2.74.2-4.09-.11-.17-.04-.3-.18-.35-.34-.02-.01-.04-.02-.06-.03-.08-.06-.2-.09-.31-.11-.15.3-.36.56-.71.71-.31.13-.68.12-1.01.11-.33-.02-.66-.05-.98-.12-.21-.05-.41-.29-.39-.51.05-.56.19-1.08.46-1.57ZM31.48,63.52c-.06.1-.1.17-.17.28.13-.08.21-.14.35-.23-.7,1.01-1.37,1.98-2.03,2.94.48-.7.72-1.55,1.28-2.25-.05-.08.26-.55.58-.74ZM14.44,83.79c-.12.16-.25.3-.43.51.4-1.22,1.05-2.23,1.72-3.22.59-.88,1.29-1.68,1.94-2.51.54-.69,1.04-1.41,1.62-2.07.52-.6,1.11-1.13,1.67-1.69.84-.86,1.69-1.71,2.51-2.59.31-.33.55-.73.83-1.09.46-.59.92-1.18,1.37-1.78.51-.67,1.01-1.35,1.53-2.02.14-.18.33-.33.48-.49.25-.27.5-.53.75-.8l-.03-.06c-.08.01-.15.03-.28.05.25-.31.44-.62.71-.86.14-.13.32-.19.29-.42,0-.01.02-.03.03-.04.2-.28.37-.59.6-.84.18-.19.43-.32.69-.43-.16.33-.31.68-.5.99-.27.45-.56.89-.88,1.31-.32.42-.71.8-1.03,1.23-.42.56-.77,1.17-1.2,1.72-.49.62-1.04,1.2-1.54,1.81-.64.77-1.29,1.52-1.81,2.39-.36.6-.84,1.13-1.29,1.68-.55.67-1.12,1.33-1.69,1.98-.27.3-.59.56-.85.86-.65.77-1.28,1.55-1.93,2.32-.68.8-1.38,1.59-2.04,2.4-.44.54-.82,1.13-1.24,1.69ZM25.47,72.44c-.49.69-1.01,1.36-1.65,1.93.34-.82,1.01-1.36,1.65-1.93ZM28.49,107.22v-2.26s.09,0,.13,0c.04.73.09,1.47.13,2.23-.09.01-.2.03-.26.04ZM29.05,108.2c-.03-.19-.06-.33-.08-.5.07,0,.16,0,.19,0,.07.14.11.25.18.39-.08.03-.17.07-.28.12ZM32.41,80.09c-.14,1.73-.17,3.46-.21,5.2-.02.88.06,1.76.06,2.63,0,1.07-.07,2.14-.07,3.21,0,1.37.04,2.74.05,4.11.01,2.78.02,5.56.03,8.34,0,1.09.01,2.17.02,3.26,0,.13-.02.22-.17.22-1.05.04-2.1.09-3.19.13.03-.56.06-1.1.08-1.65,0-.29-.01-.59-.04-.88-.03-.33-.09-.65-.1-.98,0-.08.1-.17.16-.26.09-.15.13-.28-.06-.39-.04-.02-.08-.09-.08-.14,0-.52,0-1.04,0-1.56,0-1.14.01-2.27.02-3.41,0-.13-.02-.27,0-.4,0-.07.05-.14.08-.22-.04-.11-.12-.24-.13-.39-.06-1.26-.12-2.53-.16-3.79-.01-.32.07-.65.09-.98.03-.62.02-1.25.05-1.87.02-.38.12-.75.15-1.13.03-.28-.01-.56.01-.83.05-.51.15-1.02.2-1.53.05-.67.08-1.34.1-2.01,0-.2.04-.35.2-.5.11-.1.14-.3.2-.46.15-.36.3-.71.44-1.07.03-.08.05-.21,0-.27-.16-.2-.33-.4-.52-.55-.07-.06-.26-.06-.35,0-.27.14-.43.36-.57.65-.23.48-.23.96-.23,1.46-.02,1.32-.05,2.64-.08,3.96-.02.72-.02,1.45-.07,2.17-.08,1.12-.2,2.23-.29,3.35-.06.81-.11,1.61-.14,2.42-.05,1.39-.1,2.77-.1,4.16,0,.96.1,1.91.18,2.87.02.31.09.63.16.93.17.71.08,1.43.09,2.15,0,.39-.08.78-.15,1.17-.01.06-.14.13-.21.13-.77.06-1.55.11-2.32.17-.26.02-.51.05-.77.08-.96.08-1.92.17-2.88.23-1.17.08-2.34.15-3.5.22-.18.01-.36.05-.54.04-.2,0-.38-.07-.36-.27-.26.06-.54.16-.82.19-.61.06-1.22.1-1.83.11-.23,0-.46-.1-.74-.17.06-.45.11-.86.16-1.27.1-.83.21-1.66.27-2.49.03-.38-.1-.77-.08-1.15.02-.43.11-.85.18-1.27.18-1,.37-2,.55-3,.08-.47.1-.94.18-1.41.08-.5.19-1,.29-1.49.27-1.26.32-2.54.34-3.83.03-2.61.18-5.21.69-7.78.1-2.58,2.49-4.77,4.29-6.43.35-.42.75-.79,1.18-1.14l-.02.03c.29-.28.57-.57.84-.87-.03,0-.06.02-.1.02.01-.07,0-.14.03-.15.13-.05.26-.12.38-.2.77-.83,1.5-1.68,2.22-2.56.02-.04.04-.09.06-.13.04-.07.1-.12.16-.18.04-.04.09-.08.12-.13.12-.25.27-.49.34-.75.07-.28.23-.45.53-.6-.12-.03-.16-.04-.21-.05.01-.01.02-.03.03-.03.31-.04.38-.35.58-.52.14-.12.26-.27.39-.41.03-.03.06-.07.06-.1-.04-.24.13-.33.27-.47.13-.12.2-.29.29-.44.02-.03.04-.05.07-.07.15-.13.32-.24.28-.5-.01-.08.13-.19.2-.28.22-.27.46-.53.67-.81.05-.06.05-.16.08-.23.05-.1.11-.2.16-.3,0-.32.29-.42.47-.6.03-.03.06-.06.08-.09.08-.04.17-.06.22-.13.24-.3.56-.58.69-.93.2-.54.65-.91.9-1.41.07-.15.2-.27.35-.38-.02.07-.03.14-.05.21.02,0,.03.02.05.03.47-.7.94-1.39,1.41-2.09.02.01.04.02.06.03.03.63.08,1.26.08,1.89,0,1.59,0,3.19-.07,4.78-.06,1.66-.19,3.32-.28,4.98-.04.74-.05,1.48-.1,2.22,0,.12-.11.22-.16.34-.03.07-.03.14-.02.24,0,.09.01.18,0,.26-.04.21-.1.42-.14.63-.21,1.05-.51,2.1-.6,3.17ZM36.97,62.19c-.04.95-.1,1.91-.13,2.86-.02.58,0,1.16-.02,1.73-.03.95-.08,1.91-.11,2.86-.05,1.41-.07,2.83-.13,4.24-.05,1.15-.17,2.29-.21,3.44-.05,1.3-.09,2.61-.07,3.91.03,1.78-.11,3.55-.32,5.32-.18,1.5-.4,2.99-.53,4.49-.11,1.28-.15,2.56-.17,3.85-.03,1.46,0,2.92-.03,4.38-.01.44.11.86.09,1.3-.03.46,0,.91,0,1.37.01.65.03,1.29.05,1.94.03.74.04,1.47.11,2.21.02.23-.07.29-.25.35.04.05.08.1.14.17-.15.04-.28.07-.42.1.2.06.36.1.53.15,0,.04-.02.07-.02.11-.28-.05-.55-.1-.86-.15.06-.05.1-.09.15-.13-.03,0-.05,0-.08,0-.49.07-.99.14-1.48.2-.37.04-.46-.01-.5-.4-.05-.46-.06-.93-.06-1.39,0-.81.03-1.62.04-2.43.02-1.89.06-3.78.05-5.67-.01-2.16-.07-4.33-.1-6.49,0-.24.03-.48.05-.72.21-2.06.16-4.13.14-6.2,0-.91.16-1.78.31-2.66.08-.45.08-.91.13-1.36.08-.64.18-1.27.27-1.91.09-.63.19-1.26.24-1.9.12-1.52.2-3.05.3-4.57.1-1.5.24-3.01.33-4.51.06-.91.07-1.82.07-2.74,0-.63-.06-1.27-.08-1.9,0-.16.04-.32.06-.48.02-.24,0-.49.04-.72.07-.33.17-.66.28-.98.09-.26.21-.51.31-.77.07-.17.18-.26.37-.26.43,0,.85-.03,1.28-.04.27,0,.36.2.34.6-.05.94-.08,1.87-.12,2.81ZM37.82,51.89c0,.6.03,1.21,0,1.81-.03.83-.1,1.65-.16,2.47-.01.18-.08.32-.26.41-.24.11-.35.33-.42.59-.07.27-.16.54-.27.8-.03.07-.16.13-.25.13-.24.02-.48,0-.74,0,.23-.19.13-.4,0-.59-.2-.31-.5-.24-.85-.11.02-.26,0-.5.08-.68.17-.38.15-.77.18-1.16.02-.25.02-.5.05-.75.01-.11.07-.22.13-.38-.21-.24-.09-.58-.08-.92.01-.44.02-.87.04-1.31.03-.59.08-1.18.11-1.77.06-1.02.12-2.05.16-3.07.03-.83,0-1.67.03-2.5.01-.41.1-.82.12-1.23.06-1.03.05-2.06-.15-3.08-.08-.45-.17-.89-.27-1.34-.02-.11-.08-.22-.12-.32.1-.07.17-.13.23-.18-.07-.04-.14-.07-.27-.13.04-.05.09-.16.16-.18.33-.11.66-.22,1-.28.16-.03.31-.04.47-.04.26-.18.72-.14.86.26.12.36.22.72.29,1.08.04.1.07.2.08.31.08.75.16,1.5.22,2.25.04.57.05,1.14.07,1.71,0,0,0,.02,0,.03-.08.34-.16.68-.24.98,0-.2-.01-.41-.02-.62-.02.35-.05.7-.07,1.04.02.24.05.47.06.71.02.25,0,.52-.12.76,0,.03,0,.05,0,.08,0,.06-.01.11-.03.16.04,1.49.07,2.99.07,4.48,0,.15-.06.26-.13.34,0,.07,0,.15,0,.22ZM38.38,47.14c-.16-.71-.29-1.43-.23-2.16.04,0,.08,0,.11,0,.04.72.08,1.44.11,2.16ZM38.14,52.56c-.05-1.68-.11-3.43-.17-5.18.05,0,.09,0,.14,0,0,.28,0,.56,0,.85,0,.06-.02.14.01.18.35.51.13,1.07.14,1.6,0,.66-.05,1.31-.08,1.97-.01.22-.03.44-.04.58ZM51.08,57.04c-.43.03-.84.19-1.27.23-.68.06-1.36.08-2.03.08-.17,0-.35-.09-.51-.16-.64-.26-1.32-.26-1.99-.22-.73.04-1.46.13-2.19.2-.42.04-.83.03-1.24-.13-.54-.2-1.08-.07-1.57.17-.35.17-.67.18-.96-.1-.08-.08-.11-.22-.19-.31-.2-.23-.46-.34-.76-.39-.06-.01-.11-.03-.12-.03.03-.76.05-1.47.1-2.17.03-.45.13-.89.16-1.33.07-.93.14-1.86.18-2.79.05-1.37.12-2.75.09-4.12-.03-1.36.04-2.71-.16-4.07-.14-.92-.1-1.87-.15-2.81-.01-.23-.04-.46-.08-.69-.02-.14,0-.2.16-.23.44-.07.87-.18,1.3-.23.21-.03.44.04.66.04.17,0,.34-.04.51-.06.14-.02.29-.03.43-.03.49,0,.98,0,1.46-.01.24-.01.47-.11.71-.12.16-.01.33.06.49.08.05,0,.12.02.16,0,.36-.18.74-.16,1.13-.19,1.07-.06,2.15-.14,3.22-.21.39-.03.77-.05,1.16-.08.08,0,.18-.02.24-.07.25-.2.53-.21.83-.14.18.04.37.03.57.04,0,.42,0,.81,0,1.2,0,2.22-.03,4.43.02,6.65.04,1.7.18,3.39.28,5.09.04.59.1,1.17.15,1.76.05.56.16,1.11.15,1.67-.02.94-.09,1.88-.18,2.81-.06.58-.21.65-.79.69ZM59.25,108.44s0,.05,0,.07c-.9.1-1.77-.22-2.66-.17v-.11s2.66.2,2.66.2ZM55.36,72.78c.05.55.15,1.09.2,1.64.12,1.2.21,2.41.33,3.62.06.57.16,1.14.23,1.72.11.85.25,1.7.33,2.55.08.95.1,1.9.14,2.85.05,1.3.08,2.6.15,3.89.05.95.15,1.89.21,2.84.06.98.11,1.97.14,2.95.02.89.06,1.8-.01,2.69-.11,1.27.1,2.53.1,3.79,0,1.28-.01,2.57-.04,3.85,0,.25-.09.5-.16.75-.08.3-.17.59-.25.89-.07.27-.22.43-.53.44-.83.03-1.65.07-2.48.11-.11,0-.21.05-.34.08.09-.6.2-1.17.27-1.75.04-.3.03-.62.03-.92,0-.39-.02-.77,0-1.16.05-.66.13-1.31.2-1.97.06-.63.13-1.25.18-1.88.01-.13-.06-.26-.06-.4-.02-.35-.02-.7-.04-1.05-.02-.36-.1-.72-.08-1.08.04-.7-.16-1.35-.25-2.03-.04-.26-.01-.53-.02-.8-.01-.67-.03-1.34-.04-2.01,0-.11,0-.23.04-.33.1-.22.01-.43,0-.64-.01-.53-.04-1.06-.06-1.58-.02-.48-.03-.96-.04-1.44,0-.03-.01-.05,0-.08.07-.26,0-.49-.05-.74-.11-.56-.12-1.15-.19-1.72-.06-.5-.15-1.01-.19-1.51-.03-.41,0-.83,0-1.25,0-.81.03-1.63,0-2.44-.05-1.09-.14-2.17-.22-3.26-.03-.43-.13-.87-.14-1.3-.01-.47.05-.95.06-1.42.01-.7.04-1.39,0-2.09-.05-1.03-.17-2.06-.23-3.09-.07-1.14-.11-2.27-.17-3.41-.04-.94-.11-1.87-.12-2.81,0-.62.06-1.23.08-1.85,0-.11,0-.22,0-.34-.03-.35-.06-.37-.41-.3-.03-.44-.08-.86-.08-1.28,0-.3.06-.61.13-.91.01-.06.13-.15.21-.15.26-.03.52-.01.77-.03.13-.01.26-.07.39-.1.06-.02.11-.04.17-.04.29,0,.81.39.92.67.33.78.31,1.6.28,2.41-.05,1.18.02,2.36.1,3.53.08,1.18.12,2.36.19,3.54.03.53.1,1.06.13,1.59.07.92.11,1.84.19,2.75ZM75.36,81.82c-.16-.1-.35-.22-.57-.36-.09.32-.18.65-.57.39v-.97c-.32-.27-.67-.51-.95-.82-.46-.5-.86-1.05-1.3-1.57-.49-.57-1-1.12-1.48-1.69-.35-.42-.69-.84-.97-1.3-.48-.78-1.18-1.35-1.75-2.04-.47-.56-.97-1.11-1.35-1.73-.74-1.2-1.73-2.2-2.67-3.21-1.73-1.85-3.27-3.84-4.94-5.73-.85-.96-1.53-2.03-2.25-3.08-.17-.25-.36-.49-.53-.73-.07-.09-.13-.19-.19-.29l.05-.05c.13.11.27.22.4.34.54.53,1.08,1.06,1.63,1.59.54.52,1.09,1.02,1.62,1.54.13.13.16.36.29.5.21.22.49.38.7.6.25.25.47.52.7.78.56.62,1.13,1.22,1.68,1.84.4.44.79.89,1.18,1.34.57.66,1.13,1.34,1.71,2,.92,1.07,1.84,2.13,2.78,3.19.48.54,1.01,1.04,1.48,1.59.96,1.11,1.89,2.24,2.83,3.36.88,1.04,1.76,2.08,2.66,3.1.24.27.54.49.85.77-.35.21-.69.41-1.04.62Z"/>
      <path class="cls-1" d="M44.91,64.91c-.31.11-.52-.07-.73-.36-.35-.48-.59-.98-.56-1.6.02-.33.12-.42.44-.48.21-.04.41-.17.61-.24.13-.04.29-.1.4-.06.29.12.61.24.83.45.14.14.2.43.19.65,0,.28-.09.57-.19.84-.1.26-.27.5-.41.75-.02.03-.09.04-.14.04-.13,0-.26,0-.44,0Z"/>
      <path class="cls-1" d="M31.3,108.32c.1-.03.19-.08.29-.08.75-.05,1.49-.1,2.24-.14.3-.02.6-.04.9-.04.1,0,.2.03.35.05-.23.17-.42.31-.62.46-.03-.04-.05-.1-.08-.14-.09-.13-.18-.13-.28,0-.05.08-.13.13-.2.2-.03-.03-.05-.06-.08-.09.07-.04.14-.08.22-.13-.33-.08-.66-.07-.89.14-.28.26-.55.29-.88.17-.08-.03-.16-.03-.26,0,.13.05.25.1.38.15,0,.02-.01.04-.02.07-.29-.13-.64.04-.91-.2-.04-.04-.15-.05-.2-.03-.2.1-.3-.03-.43-.14h0c.27.03.54.04.85.07-.05-.15-.02-.29-.22-.23-.04.01-.1-.06-.16-.1h0Z"/>
      <path class="cls-1" d="M44.82,108.07s-.01.08-.02.14c.37-.07.73-.29,1.1-.11,0,.04,0,.07.01.11-.51.08-1.02.16-1.57.25.02-.09.03-.13.04-.17-.31.11-.38.1-.73-.06.38-.05.76-.1,1.17-.15Z"/>
      <path class="cls-1" d="M30.83,108.57c-.08-.03-.15-.06-.23-.09-.05-.02-.15-.06-.16-.04-.11.19-.28.07-.49.06.1.13.17.21.24.29,0,.02-.02.04-.02.06-.09-.03-.22-.04-.25-.1-.11-.21-.25-.25-.46-.2-.07.02-.15-.02-.23-.08.69-.13,1.38-.21,2.09-.17h0c-.08.3-.28,0-.43.09,0,.04-.02.11-.04.17h0Z"/>
      <path class="cls-1" d="M41.33,58.68c.38,0,.76,0,1.14-.01.16,0,.32-.02.49-.02.19,0,.38-.02.57-.03,0,.02.01.05.02.07-.06.02-.12.05-.18.05-.24,0-.5-.06-.72.01-.31.11-.59.06-.89.03-.14-.01-.29-.08-.43-.12,0,0,0,0,0,0Z"/>
      <path class="cls-1" d="M73.86,83.79s-.09-.08-.17-.15c.13-.07.24-.12.33-.17-.01.39-.03.74-.04,1.1-.01.28-.02.56-.03.84-.03,0-.06,0-.09,0v-1.62Z"/>
      <path class="cls-1" d="M38.56,108.36c.34-.12.64-.23.9.09-.16.19-.46.17-.9-.09Z"/>
      <path class="cls-1" d="M23.9,109.02c.28-.2.61-.22.95,0-.36.03-.65.06-.95.08,0-.03,0-.06,0-.08Z"/>
      <path class="cls-1" d="M46.59,108.29c-.02.07-.03.12-.04.19-.15-.03-.3-.05-.49-.08.15-.18.18-.42.51-.38-.07.09-.13.17-.19.25.07,0,.14.02.22.03Z"/>
      <path class="cls-1" d="M42.95,108.49c-.28.04-.53.08-.79.12.12-.12.2-.19.27-.27.1-.13.38-.07.52.16Z"/>
      <path class="cls-1" d="M29.22,108.62c-.41.29-.82.25-1.25.22.04-.04.08-.1.1-.09.34.11.63-.06.94-.12.05,0,.1,0,.2,0Z"/>
      <path class="cls-1" d="M73.4,85.54c.01.21.03.37.04.55-.24-.08-.26-.33-.04-.55Z"/>
      <path class="cls-1" d="M21.11,109.17c.29-.03.58-.06.86-.09,0,.02,0,.05,0,.07-.29.03-.58.05-.86.08,0-.02,0-.04,0-.07Z"/>
      <path class="cls-1" d="M66.95,108.54c-.23.02-.45.03-.68.05,0-.03,0-.06,0-.09h.68s0,.02,0,.04Z"/>
      <path class="cls-1" d="M30.09,66.24c-.02.08,0,.19-.06.24-.15.16-.33.3-.49.45,0,0,0,0,0,0,.16-.2.31-.4.47-.6l.08-.09Z"/>
      <path class="cls-1" d="M17.55,106.72c.15.12.12.55-.13.72.03-.4.07-.77.09-1.15,0-.2-.03-.4-.03-.6,0-.39,0-.77.02-1.16,0-.33.02-.67.04-1,.03-.52.07-1.05.11-1.57.05-.65.11-1.3.15-1.95.03-.58.02-1.17.07-1.75.05-.54.15-1.08.21-1.62.01-.09-.09-.21-.06-.28.12-.27-.11-.56.09-.82.06-.08-.02-.26-.02-.39.02-.45.04-.91.08-1.36,0-.1.08-.19.12-.28.03,0,.06,0,.08.01,0,.12,0,.24,0,.36-.05.46-.16.93-.12,1.39.03.33-.07.65-.02.99.07.47-.01.96-.05,1.44,0,.09-.09.17-.13.24.03.11.09.21.09.32,0,.48,0,.96-.04,1.44-.03.45-.09.9-.14,1.35-.06.58-.17,1.15-.15,1.73.01.42-.02.82-.13,1.22.19.17-.04.39.07.6.09.17-.03.44-.04.66-.01.2.02.41,0,.61-.03.28-.1.55-.16.85Z"/>
      <path class="cls-1" d="M18.44,92.3l-.05,1.11s-.08,0-.12,0c-.02-.37-.06-.75.1-1.12.02,0,.05,0,.07,0Z"/>
      <path class="cls-1" d="M46.41,45.03c-.06.55-.14,1.11-.17,1.66-.02.49,0,1,.05,1.49.09.77.24,1.53.35,2.29.05.38.04.77.09,1.16.03.22.12.43,0,.66-.02.04,0,.11.04.15.25.27.17.62.19.93.03.48.08.97.03,1.44-.05.5-.38.8-.86,1.02-.71.33-1.4.17-2.11.09-.27-.03-.38-.15-.5-.36-.38-.69-.54-1.45-.56-2.22-.02-.57.09-1.13.1-1.7,0-.71-.02-1.42-.06-2.13-.05-1.08-.09-2.16-.18-3.24-.07-.78-.21-1.56-.32-2.34,0-.07-.04-.13-.07-.19-.27-.66.03-1.43.87-1.62.34-.08.67-.22,1.03-.07.07.03.18-.03.26-.07.42-.25.85-.18,1.07.26.32.62.63,1.24.65,1.97,0,.28.03.55.05.83,0,0,.02,0,.03,0ZM44.42,43.11s0,0,0,0c-.16,0-.33.02-.49.02-.29,0-.53.06-.67.36-.05.12-.06.16.03.28.17.2.38.44.41.68.06.55.03,1.11.03,1.67.01,1.06,0,2.13.04,3.19.03.99.11,1.98.16,2.98.01.2-.01.41-.01.61,0,.65,0,1.3.04,1.94,0,.09.11.24.19.25.27.05.54.06.82.08.29.03.48-.13.53-.39.09-.44.18-.88.19-1.32.02-.64-.02-1.29-.05-1.93-.04-.8-.08-1.6-.15-2.39-.06-.7-.21-1.39-.24-2.09-.05-1.21-.06-2.41-.06-3.62,0-.24-.06-.33-.3-.3-.15.02-.31,0-.46,0Z"/>
    </g>
  </g>
</svg>