<?xml version="1.0" encoding="UTF-8"?>
<svg id="Layer_2" data-name="Layer 2" xmlns="http://www.w3.org/2000/svg" viewBox="0 0 58.67 59.78">
  <defs>
    <style>
      .cls-1 {
        fill: #000;
        stroke-width: 0px;
      }
    </style>
  </defs>
  <g id="illustrations">
    <g>
      <path class="cls-1" d="M57.62,30.63s-.03-.06-.03-.1c.02-.23.23-1.67,0-2.17-.06.19-.13.37-.17.56-.04.21-.09.43-.06.64.06.46.14.91-.3,1.26.01-.24.08-.47.08-.71.02-.55.18-1.08.31-1.61.02-.08.07-.15.09-.23.02-.09.04-.18.04-.27,0-.33-.03-.66-.03-.99,0-.27,0-.54,0-.81,0,0-.02.01-.02.02,0,.03-.01.05-.02.08-.05.58-.12,1.14-.26,1.71-.14.56-.13,1.16-.19,1.75-.02.17-.05.34-.09.56-.14-.11-.24-.18-.34-.25-.01.01-.02.03-.04.04.1.1.2.21.3.31-.05.09-.09.17-.15.27-.04-.06-.07-.1-.1-.14h-.02c.02.07.04.13.06.19-.05.03-.1.06-.17.09-.03-.23-.06-.43-.08-.64-.02,0-.04,0-.06,0,.02.24.06.47.07.71.01.25-.18.39-.43.33-.02.05-.03.1-.04.11-.27.03-.42.16-.5.38-.09-.03-.18-.08-.25-.06-.2.05-.4.12-.6.18-.69.2-1.37.42-2.06.6-.3.08-.62.09-.93.16-.31.07-.61.18-.92.25-.18.04-.37.22-.51.02-.14.05-.25.1-.37.13-.09.02-.2,0-.29.03-.23.07-.46.17-.69.23-.3.07-.61.1-.92.14-.29.04-.59.08-.89.1-.32.03-.64.03-.96.08-1.13.18-2.25.36-3.37.56-.16.03-.35.12-.45.24-.12.15-.22.15-.39.12-.19-.04-.39,0-.62.02-.12,0-.27-.02-.42-.01-.11,0-.22.03-.33.03-.19,0-.38,0-.57.02-.38.03-.76.08-1.14.12-.08,0-.17-.04-.26-.06.02.12-.03.16-.16.11-.04-.02-.08-.03-.12-.03-.5.07-1,.14-1.5.21-.4.06-.8.13-1.2.16-.28.02-.55,0-.83,0-.84-.02-1.69-.04-2.53-.05-.8-.01-1.59-.02-2.39-.04-.55-.01-1.09-.05-1.64-.08-.18-.01-.35-.07-.53-.08-.22-.01-.43-.2-.66-.02-.01.01-.04,0-.06,0-.41-.05-.82-.11-1.22-.17-.28-.04-.56-.11-.84-.15-.26-.04-.53-.05-.79-.08-.45-.06-.9-.11-1.35-.2-.39-.08-.8.03-1.16-.18-.02-.01-.06-.02-.08,0-.25.1-.31.08-.48-.12-.03-.03-.08-.05-.13-.05-.55-.06-1.09-.11-1.64-.16-.06,0-.12-.05-.19-.08-.19-.08-.38-.17-.57-.22-.27-.06-.55-.05-.81-.13-.34-.1-.67-.23-1.04-.2-.05,0-.1-.01-.14-.02-.34-.07-.68-.14-1.02-.23-.57-.14-1.14-.28-1.71-.42-.3-.08-.61-.13-.9-.24-.22-.08-.43-.15-.66-.11-.06.01-.14-.02-.2-.04-.33-.11-.66-.25-1-.35-.74-.21-1.48-.4-2.23-.6-.24-.07-.48-.14-.71-.25-.05-.03-.11-.08-.15-.15-.07-.02-.13-.04-.2-.06-.04.13-.12.13-.34.06-.72-.24-1.44-.47-2.16-.71-.38-.13-.77-.22-1.12-.39-.56-.26-1.11-.56-1.66-.86-.06-.03-.11-.13-.11-.19,0-.27.06-.54-.13-.78-.04-.05-.04-.12-.04-.2-.32-.5-.43-1.09-.44-1.69,0,0,0,0,0,0-.07-.17-.07-.34-.02-.53.05-.21.11-.41.06-.64-.04-.19-.06-.38-.08-.57-.06-.56-.11-1.13-.16-1.69-.03-.33-.03-.67-.04-1,0-.09,0-.18,0-.27.12-.02.05-.15.07-.24.03-.13.07-.28.15-.38.1-.13.22-.08.27.08.07.23.12.45.19.68.17.55.36,1.1.53,1.65.16.49.32.98.48,1.47.06.18.11.37.17.56.13.4.26.81.37,1.21.09.32.11.66.35.92.08.09.15.18.21.28.05.1.07.21.12.31.03.06.1.11.16.16.03-.06.08-.11.08-.17,0-.08-.04-.16-.05-.24,0-.02,0-.04.01-.06.05.01.1.02.14.03.02-.1.03-.19.06-.27.09-.22.21-.43.29-.65.1-.26.13-.55.27-.78.16-.29.23-.58.24-.9,0-.08-.04-.16-.06-.24.02-.02.07-.06.12-.09-.12-.12,0-.22.02-.33.05-.52.16-1.02.36-1.51.14-.36.25-.73.37-1.09.49.05.78.22.89.56.08.25.13.52.15.79.03.37,0,.74.03,1.11.04.4.17.79.19,1.18.01.29.06.56.17.83.07.19.12.39.19.57.19.49.36.98.58,1.46.15.32.75.38.89.12.09-.17.15-.36.19-.55.04-.2.03-.4.06-.6.07-.41.15-.82.23-1.22.03-.18.12-.36.1-.53-.03-.17.04-.29.09-.43.05-.13.12-.25.17-.38.08-.18.12-.38.34-.48.08-.04.12-.16.17-.25.31-.53.58-1.08,1.2-1.34.3-.13.57-.12.83.05.31.2.51.48.58.84.14.69.26,1.37.38,2.06.1.6.2,1.2.3,1.8.05.34.09.69.14,1.03.05.33.08.66.17.98.05.17.19.32.32.44.05.05.23.04.28-.01.41-.39.71-.86.92-1.39.03-.09.05-.19.09-.27.15-.31.3-.62.45-.94.14-.29.27-.57.4-.86.16-.36.34-.71.48-1.07.17-.45.41-.86.75-1.2.29-.28.58-.24.76.12.17.35.33.71.48,1.07.44.99.75,2.02.88,3.09.06.48.17.95.27,1.42.03.14.11.27.2.39.15.2.4.2.51-.03.1-.2.14-.43.2-.65.15-.48.29-.97.45-1.45.11-.34.23-.68.36-1.02.07-.18.04-.45.31-.47.04-.13.09-.23.11-.33.04-.18.04-.37.11-.54.14-.36.3-.72.49-1.06.15-.29.34-.55.52-.82.14-.21.46-.27.61-.08.21.25.43.51.56.81.22.49.39,1,.56,1.51.23.69.46,1.38.63,2.09.2.84.41,1.68.84,2.43.11.2.24.39.39.56.06.08.19.2.25-.03-.04-.02-.09-.03-.11-.07-.04-.06-.04-.14-.08-.2-.22-.28-.36-.56-.17-.92.07-.13.09-.28.11-.43.02-.17.02-.35.02-.52-.01-.59.03-1.19-.06-1.77-.13-.8-.31-1.59-.68-2.33-.26-.53-.47-1.1-.87-1.55-.12-.14-.3-.29-.47-.32-.32-.05-.65-.04-.98-.02-.3.02-.6.06-.8.34-.36.52-.76,1.02-1.1,1.55-.46.71-.81,1.46-1.05,2.28-.11.39-.24.78-.36,1.17-.03,0-.05,0-.08,0-.02-.09-.03-.19-.07-.28-.13-.38-.29-.76-.4-1.14-.16-.56-.37-1.09-.67-1.59-.26-.43-.38-.94-.57-1.4-.07-.16-.12-.35-.25-.46-.13-.11-.35-.23-.5-.19-.22.06-.43.21-.58.38-.24.27-.46.56-.65.87-.64,1.07-1.1,2.21-1.5,3.39-.13.39-.34.76-.52,1.13-.03.06-.11.1-.17.15-.04-.06-.09-.12-.11-.19-.28-.79-.4-1.62-.52-2.45-.09-.66-.18-1.32-.29-1.98-.09-.51-.22-1-.32-1.5-.01-.07-.02-.14-.02-.21.02-.01.04-.02.06-.03.08.06.16.12.23.19.13.12.26.23.37.37.09.11.2.23.24.36.18.53.34,1.07.3,1.65-.04.47.07.95-.11,1.41.19.09.21-.03.22-.16.02-.36.02-.71.05-1.07.05-.65-.02-1.27-.31-1.87-.23-.48-.66-.79-1-1.17-.03-.03-.11-.06-.15-.04-.16.05-.27-.01-.36-.14-.21-.28-.51-.36-.83-.38-.08,0-.16.02-.24.05-.19.08-.37.2-.56.24-.34.06-.59.21-.79.49-.17.23-.35.45-.52.67-.17.22-.37.43-.51.67-.13.23-.35.41-.38.71-.03.27-.15.54-.2.81-.1.61-.18,1.23-.27,1.85,0,.06-.03.12-.05.18-.17-.46-.3-.91-.4-1.37-.23-1.03-.43-2.06-.65-3.1-.02-.1-.04-.21-.07-.3-.11-.29-.2-.6-.36-.86-.22-.36-.49-.69-.75-1.02-.24-.3-.52-.29-.82-.13-.14.07-.28.17-.39.27-.19.18-.37.38-.55.57,0,.01.02.03.03.04.24-.09.47-.17.73-.26,0,.1.01.18.02.25.02.69-.28,1.33-.38,2-.06.38-.19.76-.29,1.13-.09.34-.17.69-.27,1.03-.02.07-.11.13-.17.19-.04-.07-.11-.14-.12-.22-.04-.26-.06-.53-.1-.79-.05-.36-.09-.73-.15-1.09-.01-.09-.05-.17-.08-.25-.03,0-.07.01-.1.02-.14.89,0,1.79.04,2.69-.1-.28-.18-.56-.26-.84-.09-.33-.17-.66-.27-.98-.07-.25-.17-.48-.24-.73-.08-.27-.11-.54-.2-.8-.22-.67-.48-1.32-.7-1.99-.12-.36-.16-.76-.44-1.06-.1-.1-.19-.15-.28-.08-.17.12-.32.26-.46.41-.1.11-.17.26-.28.44-.12-.28-.23-.49-.3-.72-.07-.24-.09-.48-.14-.74-.08.06-.15.12-.22.18,0-.28-.01-.55,0-.81,0-.11.05-.23.11-.34.09-.17.23-.32.31-.5.1-.25.24-.41.5-.48.06-.02.13-.07.16-.12.11-.2.29-.31.5-.38.27-.09.54-.17.82-.26.45-.15.87-.18,1.22.24.14.17.38.15.59.14-.2-.11-.41-.23-.61-.34.01-.02.02-.05.03-.07.27.06.54.11.82.17,0-.01,0-.02,0-.03-.2-.09-.41-.17-.66-.28.62-.04,1.16-.07,1.71-.1-.05-.05-.11-.07-.17-.08-.36-.05-.72-.06-1.05-.25-.04-.03-.1-.04-.15-.04-.28,0-.58.05-.85-.03-.33-.09-.6.01-.88.12-.27.11-.54.28-.82.29-.36.02-.66.16-.9.38-.29.28-.54.6-.77.93-.19.28-.44.55-.16.95.13.19.1.48.14.73.01.08.02.17.02.25,0,.2-.02.41.02.61.06.33.15.66.25.98.1.33.21.65.53.84.03.02.05.08.05.13.04.43.07.87.1,1.3.02.37,0,.74.04,1.1.04.49.16.95-.02,1.46-.12.33-.03.74-.02,1.11,0,.05.04.1.07.15.19.32.3.64.12.99-.1-.19.03-.46-.18-.64-.18.11-.18.28-.17.44.01.17.04.33.05.5,0,.07-.02.17-.07.2-.18.11-.2.27-.18.45.02.2.05.4.08.6.04.28.06.54-.04.82-.07.19-.01.43-.01.68,0,0-.08.06-.07.1.07.3-.06.64.15.91.02.02,0,.07,0,.1.02.98.03,1.96.06,2.94.02.67.1,1.34.08,2.01-.02.68-.13,1.36-.07,2.05.01.15-.05.3-.04.45,0,.28.06.55.05.83,0,.81-.03,1.62.08,2.43.03.2,0,.42-.05.62-.01.05-.03.1-.04.15.14.79.22,1.58.25,2.38.03.05.05.1,0,.14,0,.07,0,.15,0,.22-.03.03-.04.07-.05.13-.03,1.29-.02,2.58.05,3.86.03.62.06,1.24.13,1.86.06.5.16.98.45,1.4.01.02.03.03.04.04,0,.15,0,.29,0,.44.72.5,1.51.9,2.34,1.2.6.22,1.21.43,1.81.63.69.24,1.37.52,2.11.57.07,0,.14.06.21.09.1.05.19.11.29.14.11.04.23.04.35.07.42.09.84.18,1.27.28.13.03.26.04.38.07.19.05.38.13.58.17.65.13,1.3.23,1.95.36.48.1.95.23,1.43.32.81.15,1.62.28,2.42.42.38.07.75.15,1.13.21.47.07.93.13,1.4.19.1.01.21,0,.31.03.3.06.6.13.9.2.28.07.54-.1.83,0,.28.09.58.1.87.15.19.03.37.11.55.09.19-.02.34-.01.48.12.02.02.05.01.08.01.22,0,.43-.03.65-.02.44.02.88.06,1.33.09.07,0,.13.04.2.05.07.01.14.03.21.03.23-.01.46-.07.68-.03.14.02.25.08.41.07.33-.02.66.02.99.04.29.02.58.04.88.06.16,0,.31,0,.47,0,.29,0,.59.02.88-.01.15-.02.35.17.45-.06.13.03.24.06.37.09-.02-.06-.03-.09-.04-.13.17.08.29.12.48.09.32-.05.65,0,.97,0,.03,0,.07-.02.1-.02.25-.01.5-.02.75-.03.14,0,.27,0,.41-.01.23-.02.46-.06.68-.05.26.01.51.05.7-.08.12.03.2.06.27.06.41-.02.82-.04,1.23-.07.8-.06,1.6-.1,2.39-.2,1.02-.13,2.03-.31,3.04-.47.56-.09,1.12-.17,1.67-.29.46-.09.91-.22,1.36-.33,0-.03,0-.07,0-.11.31.15.81.14.95-.02-.26-.09-.54.12-.79-.07.3-.15.6-.29.92-.37.52-.14,1.03-.29,1.52-.5.19-.08.37-.23.56-.23.41,0,.78-.06,1.15-.27.31-.18.66-.3,1-.43.19-.07.4-.1.6-.16.02-.02.06-.08.11-.1.23-.1.46-.19.69-.28.16-.06.31-.12.47-.19.22-.09.45-.16.66-.27.22-.11.43-.26.64-.39.37-.23.75-.43,1.11-.68.29-.2.55-.45.82-.67.07-.06.17-.09.23-.16.06-.07.08-.18.14-.25.12-.13.27-.24.38-.38.12-.15.24-.32.28-.5.06-.25-.11-.45-.29-.61-.05-.05-.1-.17-.08-.22.09-.17-.02-.21-.16-.28-.02.13-.03.25-.04.36-.16.17-.3.37-.42.57-.16.28-.24.62-.46.83-.79.73-1.61,1.44-2.6,1.92-.54.26-1.06.56-1.61.77-.84.33-1.7.62-2.56.9-.51.17-1.03.31-1.54.45-.39.11-.8.19-1.19.3-.55.15-1.1.34-1.65.48-.38.1-.76.19-1.16.24-.5.07-.99.23-1.49.32-.61.12-1.23.21-1.85.31-.36.05-.72.07-1.08.12-.26.03-.52.11-.78.13-.57.05-1.13.07-1.7.11-.8.05-1.6.11-2.4.17-.3.02-.6,0-.89.03-.49.06-.98.09-1.47.05-.4-.04-.82,0-1.22.02-.16,0-.33.05-.49.04-.63-.02-1.27-.05-1.9-.09-.37-.02-.74-.05-1.11-.09-.42-.04-.83-.1-1.25-.14-.55-.05-1.1-.06-1.64-.12-1.12-.12-2.24-.27-3.37-.4-.71-.08-1.42-.15-2.13-.25-.63-.09-1.25-.21-1.88-.31-.58-.09-1.16-.16-1.74-.26-.46-.08-.9-.25-1.36-.31-1.34-.19-2.65-.48-3.95-.85-.51-.14-1.02-.29-1.53-.43-.5-.14-1.02-.25-1.51-.42-.62-.22-1.22-.48-1.83-.73-.41-.17-.84-.31-1.23-.53-.29-.16-.57-.34-.85-.53.11-.05.19-.18.1-.31-.31-.45-.38-.98-.42-1.51-.05-.6-.09-1.19-.11-1.79-.04-.79-.05-1.59-.04-2.38.01.05.03.1.04.15.05.26.02.54.07.81,0,.06,0,.11,0,.16.02.04.03.09.03.14,0,.18,0,.36,0,.55.04-.03.08-.05.13-.09v.26c.16-.23.32-.45.47-.68.67.54,1.05.72,1.27.6-.07-.03-.12-.06-.17-.09-.32-.18-.65-.35-.97-.54-.08-.05-.13-.11-.06-.22.14-.23.12-.33-.07-.49.08-.21.16-.41.23-.6.19.03.37.06.55.09h0c.42.4.84.81,1.28,1.19.27.23.5.48.7.77.13.19.3.35.47.5.1.09.14.14-.04.24.2.09.35.16.5.21.47.16.96.26,1.4.48.45.22.92.35,1.39.47.24.06.49.11.72.18.42.13.84.3,1.27.4.41.1.82.14,1.24.18.33.03.66.22,1,.01.02,0,.06.02.09.04.09.05.18.16.26.15.31-.05.59.07.89.09.28.02.56.09.84.14.24.04.48.08.72.13.03,0,.07.01.1.01.15,0,.31-.03.46,0,.44.07.88.17,1.32.24.3.05.6.09.9.14.13.02.25.08.38.09.27.03.52-.06.81.05.25.1.57.02.87.02,0,.02-.02.04-.02.06.05.05.09.14.15.16.2.07.4.13.6.17.51.09,1.03.17,1.55.23,1.02.12,2.03.24,3.05.34.77.08,1.54.14,2.31.22.18.02.35.13.53.15.4.04.81.07,1.21.08.62.01,1.24,0,1.85,0,.06,0,.11,0,.17,0,.62.04,1.25.03,1.87,0,.62-.03,1.24-.02,1.86-.05.49-.02.98-.08,1.48-.13.37-.04.74-.07,1.1-.11.55-.07,1.11-.14,1.66-.21.46-.06.93-.1,1.39-.16.6-.08,1.19-.2,1.79-.27.26-.03.52-.05.77-.1.31-.06.61-.16.93-.17.11,0,.22-.06.32-.12.2-.1.35-.32.62-.17.02.01.08-.02.11-.04.25-.08.49-.16.74-.25.17-.07.34,0,.5-.03.31-.05.61-.16.91-.26.11-.04.2-.12.31-.17.05-.02.12-.02.18-.02.04,0,.09,0,.11-.02.1-.18.19-.08.22-.06.09-.05.19-.16.26-.15.21.04.37-.03.54-.12.21-.12.43-.22.65-.33v.06c.18,0,.35-.02.53-.03,0,0,.01-.03.02-.05-.04-.03-.08-.06-.12-.09.04-.04.07-.09.11-.11.1-.05.2-.11.3-.11.23,0,.4-.32.67-.14,0,0,.02-.01.04-.03-.08-.18,0-.31.15-.42.07-.05.16-.09.24-.13.64-.36,1.29-.72,1.93-1.09.15-.09.26-.23.4-.33.23-.16.47-.3.69-.48.15-.12.3-.2.49-.17-.03.03-.06.06-.08.09.09.05.19.08.27.15.05.03.09.11.08.17-.02.13-.07.26-.09.4-.05.28-.1.57-.13.85-.01.11-.06.25.11.33.02-.04.04-.06.05-.1.03-.23.03-.46.08-.69.07-.26-.04-.57.22-.77-.19-.17-.18-.79,0-1.16,0-.2,0-.41,0-.61,0,0,.48-2.71.4-3.08-.04-.22-.05-3.91.02-4.12.12-.38.3-.75.26-1.18-.02-.19.03-.39.02-.58-.02-.56-.1-5.36-.13-5.37-.11.33-.21.67-.34,1.06-.05-.16-.08-.25-.11-.34-.02,0-.04.01-.06.02-.01.09-.03.17-.04.26-.02,0-.04,0-.06-.01.01-.08.03-.16.03-.25,0-.05-.04-.09-.06-.14,0,0,0,0,0,0,.08-.15.16-.29.24-.43-.14.05-.27.09-.39.16-.2.12-.39.25-.58.39-.36.26-.7.55-1.09.77-.34.19-.72.32-1.11.43-.68.2-1.35.42-2.03.63-.59.18-1.19.36-1.78.54-.43.12-.86.24-1.29.34-.33.08-.67.13-1,.2-.5.1-.99.21-1.49.31-.47.09-.94.18-1.41.27-.47.09-.93.2-1.39.29-.16.03-.33.04-.49.06-.16.02-.34,0-.49.06-.26.08-.49.23-.75.3-1.01.27-2.04.41-3.08.48-1.09.08-2.19.17-3.28.25-.68.05-1.35.13-2.03.16-1.48.06-2.96.11-4.44.15-.39.01-.78-.06-1.17-.05-1.1.04-2.19-.07-3.28-.24-.46-.07-.92-.22-1.38-.1-.44.11-.86.05-1.26-.06-.57-.15-1.15-.19-1.74-.2-1.12-.02-2.21-.27-3.3-.45-.83-.14-1.66-.33-2.48-.49-.28-.06-.56-.11-.84-.16,0-.03.01-.06.02-.09.2.05.41.09.61.14.13.03.27.07.32-.15.07.06.13.11.18.16.06,0,.13,0,.2,0,.51.08,1.03.16,1.54.24.39.06.78.12,1.17.18.3.05.61.09.91.13,0-.02,0-.05.01-.07-.03,0-.06-.02-.09-.03-1.41-.25-2.81-.5-4.23-.73-.93-.15-1.84-.39-2.75-.66-.15-.04-.28-.16-.42-.17-.58-.03-1.12-.25-1.65-.45-.37-.14-.74-.3-1.1-.47-.41-.19-.87-.22-1.25-.48,0,0,0,0,0,0,.03-.15.09-.03.14-.01.08.04.16.09.24.14.01-.02.03-.05.04-.07-.1-.06-.19-.17-.29-.17-.26-.01-.45-.16-.65-.29-.42-.27-.82-.56-1.24-.81-.58-.34-1.18-.65-1.77-.97-.02,0-.03-.04-.06-.08.08.02.12.04.17.05-.03-.09-.08-.14-.14-.18-.31-.21-.55-.47-.63-.85-.05-.24-.1-.47-.12-.71-.05-.45-.09-.9-.13-1.35,0-.07.04-.15.06-.23.08.03.18.04.25.1.69.55,1.48.89,2.28,1.24.59.26,1.19.47,1.8.68.56.2,1.13.38,1.7.55.32.1.65.15.97.24,1,.28,2,.58,3.01.84.43.11.88.15,1.32.24.58.12,1.16.28,1.75.39.6.11,1.22.18,1.83.26.3.04.6.08.9.12.44.06.88.14,1.31.2.33.05.67.08,1,.13.82.12,1.64.27,2.46.38.76.1,1.53.17,2.3.26.15.02.3.06.45.08.38.05.77.1,1.15.13.26.02.52.02.78.01.12,0,.27-.09.34-.04.19.13.39.09.59.09.95,0,1.9-.01,2.85,0,.39,0,.77.09,1.17.05.42-.04.86.05,1.29.08.31.02.63.05.94.04.48,0,.97.04,1.45-.08.34-.09.7-.06,1.05-.09.08,0,.16-.02.24-.02.33,0,.66.02.99.02.21,0,.43-.05.64-.05.19,0,.38.05.57.05.3-.01.6-.05.9-.08.27-.03.54-.06.81-.08.23-.02.47,0,.7-.04.31-.05.61-.17.91-.2.37-.03.74.01,1.08.02.28-.16.57-.1.86-.11-.05.04-.11.08-.16.12.22-.02.43-.1.64-.13.23-.03.46-.02.69-.05.51-.06,1.01-.13,1.52-.21.41-.06.83.01,1.22-.18.02,0,.04,0,.06,0,.3-.03.6-.05.9-.09.54-.09,1.08-.19,1.62-.28.21-.04.43-.05.64-.1.15-.03.28-.12.43-.15.22-.05.45-.05.66-.12.41-.15.82-.31,1.22-.5.26-.12.52-.25.74-.42.19-.15.34-.27.57-.1.08-.2.2-.31.41-.34.12-.02.24-.09.35-.15.11-.07.4-.1.44,0,.04.08,0,.2,0,.33.08,0,1.17-1.43.86-1.84ZM25.39,23.31c.5.49.79,1.1,1.05,1.74.07.17.2.31.25.48.36,1.02.55,2.08.52,3.16,0,.26-.05.51-.09.77,0,.05-.05.09-.1.14.02-.25-.15-.39-.26-.56-.09-.15-.14-.35-.13-.52,0-.45-.27-.82-.35-1.24-.06-.3-.13-.6-.21-.89-.04-.13-.12-.24-.2-.41.11-.14-.02-.33-.05-.53-.12-.77-.5-1.43-.88-2.09-.06-.11-.17-.2-.27-.33.29.02.51.09.72.29ZM1.54,44.34h-.07v-.68c.19.21.2.48.07.68ZM20.16,53.14s0-.05,0-.07l1.5.07s0,.06,0,.09l-1.5-.09ZM38.85,54.24c-.42.08-.85.16-1.28.2-1.04.09-2.07.15-3.11.21-.38.02-.75.02-1.13.03-.13,0-.27.05-.4.04-.61-.02-1.21-.05-1.82-.07-.3-.01-.6,0-.89-.01-.05,0-.1-.03-.14-.04,0-.03,0-.05,0-.08.34-.04.68-.08,1.01-.13,0-.01.01-.03.02-.04-.16-.03-.31-.09-.47-.09-.61,0-1.23.02-1.84.01-.63,0-1.27-.02-1.9-.05-.33-.01-.65-.09-.98-.1-.19,0-.39.04-.58.07-.09.01-.14-.06-.21-.09-.17-.08-.35-.12-.54-.14-.3-.04-.6-.06-.89-.09-.1-.01-.2-.03-.3-.06-.37-.13-.76-.11-1.14-.16-.27-.04-.54-.08-.82-.15.05-.02.11-.05.16-.05.28,0,.56,0,.84.02.4.03.79.07,1.19.1.39.02.78.03,1.17.04.54.01,1.07.02,1.61.04.83.04,1.66.09,2.5.14.74.04,1.47.07,2.21.13.16.01.23-.06.32-.15.37.01.73.03,1.1.04.4,0,.8,0,1.2,0,.18,0,.36,0,.54,0,.13,0,.25.01.36-.11.04-.04.18,0,.28,0,.21.02.43.05.64.06.49,0,.99,0,1.48,0,.25,0,.5,0,.75-.02.66-.07,1.29.2,1.94.19.03,0,.05.03.13.08-.36.08-.67.17-.98.23ZM43.22,53.48c-.52.12-1.03.26-1.55.35-.32.06-.66.04-.99.06-.16-.22-.34-.09-.5-.02-.14.06-.24.02-.31-.08-.05-.07-.05-.17-.09-.32.59,0,1.12,0,1.65,0,.23,0,.45-.04.68-.06.65-.06,1.28-.32,1.95-.11-.28.06-.56.12-.84.19ZM53.18,49.67s-.07-.08-.11-.12c0,.05,0,.12-.03.14-.09.08-.2.15-.3.21-.25.16-.5.31-.75.46-.03.02-.07.05-.1.08-.08.1-.16.2-.31.09-.03-.02-.09.01-.15.02.03.05.05.09.09.18-.3-.11-.35.21-.57.25-.38.07-.75.17-1.12.27-.43.12-.85.28-1.28.39-.51.13-1.03.22-1.54.34-.33.08-.66.12-.94.35-.01.01-.02.03-.04.07h.8c-.25.29-1.33.46-1.48.3-.23.07-.43.17-.64.19-.42.04-.85.03-1.28.06-.33.02-.65.09-.98.11-.2.01-.41-.04-.61-.06-.05,0-.11.02-.16.05-.1.05-.2.14-.31.14-.61.04-1.22.05-1.84.08-.43.02-.85.04-1.28.06-.52.02-1.03.03-1.55.04-.55.01-1.09.04-1.64.03-.64-.01-1.28-.07-1.92-.09-.48-.02-.96-.01-1.44-.02-.32,0-.64,0-.97.03.05.03.1.08.16.08.33.03.66.07.99.09.37.02.74.02,1.11.04.08,0,.17.02.25.04v.09c-.7-.04-1.4-.09-2.08-.13.08.08.16.15.24.23-.23-.03-.46-.07-.69-.1-.1-.01-.2.01-.3,0-.32-.03-.66-.02-.97-.11-.54-.16-1.09-.13-1.64-.17-.53-.04-1.06.02-1.59,0-.65,0-1.29-.02-1.93-.07-.74-.05-1.47-.14-2.21-.21-.65-.06-1.29-.14-1.94-.2-.49-.04-.98-.05-1.46-.08-.58-.04-1.16-.08-1.74-.14-.36-.04-.71-.11-1.07-.18-.08-.02-.18-.05-.22-.11-.08-.16-.23-.17-.37-.19-.29-.04-.59-.12-.87-.07-.21.04-.29-.05-.43-.12-.26-.12-.56-.18-.85-.23-.38-.07-.75-.1-1.07-.36-.12-.1-.34-.09-.52-.1-.48-.03-.96-.11-1.39-.34-.06-.03-.14-.04-.21-.06l-.02.07c.84.32,1.67.63,2.49.94-.42-.08-.87-.17-1.32-.26-.8-.17-1.61-.32-2.41-.53-.47-.12-.91-.33-1.36-.5-.08-.03-.18-.04-.26-.07-.24-.09-.5-.16-.7-.3-.3-.22-.55-.51-.84-.75-.25-.21-.54-.37-.79-.57-.44-.35-.87-.72-1.31-1.08-.05-.04-.11-.05-.17-.07v-.56c.12.06.23.09.32.17.23.18.43.4.66.57.36.27.74.52,1.12.76.46.3.93.6,1.4.89.23.14.47.27.71.37.45.19.9.36,1.37.52l-.15-.1s0-.03,0-.04c.08,0,.16-.02.23,0,.69.2,1.38.41,2.07.6.29.08.59.1.88.14.33.05.66.11.99.16.84.11,1.69.23,2.53.33.86.1,1.73.19,2.6.28.59.06,1.18.12,1.77.17.58.06,1.17.11,1.75.18.41.05.82.12,1.23.17.23.03.46.05.69.06-.02,0-.05-.02-.07-.03,0-.02,0-.03,0-.05.07,0,.14,0,.21.02.13.04.26.1.38.16,0-.02.01-.03.02-.05-.08-.01-.16-.03-.24-.04v-.05c.87-.12,1.73.05,2.6.05,0-.02,0-.03,0-.05-1.13-.1-2.26-.2-3.41-.3,0-.15-.15-.11-.29-.12-.54-.04-1.07-.09-1.6-.14-.48-.04-.96-.08-1.44-.13-.2-.02-.4-.08-.59-.1-.54-.06-1.08-.11-1.62-.16-.71-.07-1.41-.14-2.12-.22-.68-.08-1.36-.17-2.03-.26-.44-.06-.87-.15-1.3-.22-.16-.03-.34,0-.5-.05-.46-.14-.97-.21-1.34-.47-.69-.48-1.45-.7-2.24-.91-.55-.15-1.09-.31-1.52-.71.09.1.18.2.27.31-.01.01-.02.03-.04.04-.73-.44-1.46-.86-2.17-1.31-.32-.2-.59-.48-.89-.7-.31-.23-.61-.46-.95-.63-.18-.09-.21-.21-.27-.36-.16-.42-.05-.86-.1-1.28,0-.04.07-.11.12-.13.08-.03.17-.03.22-.03.04.05.07.1.11.15.24.29.58.41.89.59.66.4,1.28.88,1.95,1.27.56.32,1.16.57,1.75.85.56.26,1.11.53,1.69.75.64.25,1.31.45,1.96.66.61.19,1.22.37,1.82.55.49.14.97.3,1.46.43.56.15,1.13.28,1.7.41.42.09.85.16,1.27.25.82.18,1.64.38,2.46.54.85.17,1.71.3,2.56.45.61.11,1.22.22,1.83.32.39.07.78.14,1.18.19.53.08,1.06.15,1.59.22.14.02.31-.01.41.06.2.15.42.09.62.12.06,0,.12-.02.19-.03.03,0,.07-.02.09-.02.93.24,1.88.36,2.84.35.53,0,1.07.04,1.6.03.91,0,1.81-.03,2.72-.05.59-.01,1.18-.04,1.78-.06.03,0,.07.01.1,0,.54-.15,1.1-.14,1.65-.21.48-.06.97,0,1.45-.05.57-.05,1.13-.16,1.69-.23.13-.02.27.01.41.02.09-.02.2-.06.32-.08.63-.1,1.26-.18,1.88-.3.39-.07.76-.19,1.14-.27.7-.15,1.4-.27,2.1-.42.3-.07.59-.19.88-.29.26-.09.52-.17.78-.26.45-.16.9-.33,1.35-.49.26-.09.53-.15.78-.26.42-.19.88-.28,1.26-.59.18-.15.42-.21.63-.32.38-.2.76-.4,1.15-.59.09-.05.19-.08.3-.1-.5.57-.93,1.22-1.67,1.53ZM7.93,49.92s.03-.06.05-.09c.17.08.34.17.51.25-.02.03-.04.07-.05.1l-.5-.26ZM45.1,50.82c.59-.12,1.19-.23,1.78-.35,0,.03.01.06.02.09-.6.12-1.19.24-1.79.35,0-.03-.01-.06-.02-.09ZM48.05,50.19c.47-.13.93-.25,1.4-.38,0,0,0,0,0,0-.01.04-.02.11-.04.12-.44.12-.89.23-1.34.35l-.02-.08ZM49.45,49.81c.22-.08.43-.15.67-.23-.17.22-.45.31-.67.23ZM50.69,49.33c.47-.17.94-.33,1.41-.5.02.01.03.02.05.03-.06.07-.12.17-.19.19-.4.12-.8.21-1.2.31-.02,0-.04,0-.07-.03ZM56.17,45.36s-.03.11-.07.12c-.44.13-.57.59-.91.84-.16.13-.23.41-.43.56-.02.02-.02.11,0,.14.24.23.23.34-.07.49-.1.05-.18.11-.29.18-.02-.05-.03-.1-.05-.16-.02,0-.04,0-.04,0-.16.28-.47.3-.73.41-.44.18-.89.36-1.32.55-.64.29-1.32.45-1.99.67-.53.17-1.04.39-1.57.55-.5.14-1.02.22-1.52.33-.23.05-.45.16-.68.21-.56.14-1.13.26-1.7.39-.08.02-.14.08-.22.1-.21.04-.43.04-.64.08-.31.06-.62.16-.94.22-.5.09-1,.16-1.51.23-.6.09-1.19.19-1.79.26-.48.06-.96.07-1.44.11-.53.04-1.06.09-1.58.13-.49.04-.99.08-1.48.11-.43.03-.85.07-1.28.08-.31,0-.62-.04-.94-.05-.8-.02-1.59-.01-2.39-.05-1.46-.06-2.92-.16-4.37-.21-.75-.03-1.48-.19-2.21-.32-.82-.14-1.66-.23-2.49-.36-.65-.1-1.29-.24-1.93-.37-.66-.13-1.33-.26-1.99-.4-.35-.08-.69-.18-1.04-.27-.15-.04-.3-.04-.45-.08-.73-.18-1.45-.35-2.18-.54-.64-.16-1.28-.31-1.9-.51-.83-.26-1.66-.54-2.48-.85-1-.38-2.02-.72-2.97-1.23-.28-.15-.6-.24-.87-.4-.46-.26-.91-.55-1.36-.83-.35-.22-.69-.44-1.04-.66-.25-.16-.38-.4-.47-.67-.08-.26-.2-.45-.51-.42-.05,0-.1-.04-.11-.04.03-.14.1-.26.07-.32-.13-.25-.08-.51-.08-.77.01-.42-.03-.84-.05-1.25-.02-.42-.03-.84-.06-1.25-.02-.19-.1-.38-.13-.57-.02-.12.01-.24.02-.36.01-.18.02-.35.04-.53.02-.26.05-.51.07-.77.02,0,.04-.01.04,0,.25.45.76.58,1.13.87.15.12.34.2.48.32.09.08.14.2.22.3.03.03.06.07.1.09.17.1.34.19.5.3.11.08.2.18.29.27.18.08.38.14.55.24.81.46,1.63.92,2.5,1.27.94.38,1.86.8,2.8,1.18.58.23,1.17.42,1.76.62.83.28,1.65.58,2.49.82.93.27,1.87.48,2.8.71.55.14,1.1.29,1.66.4,1.09.21,2.17.42,3.27.58,1.28.19,2.57.35,3.86.5.55.07,1.11.12,1.66.15.36.02.73-.03,1.09-.04.12,0,.24.03.35.04.78.02,1.57.05,2.35.05.87,0,1.74-.03,2.6-.06.7-.02,1.4-.04,2.09-.08.49-.03.98-.12,1.48-.17.53-.06,1.07-.1,1.6-.15.27-.03.54-.08.82-.1.56-.05,1.13-.06,1.69-.13.56-.07,1.12-.19,1.69-.27.06-.01.14.04.2.03.39-.07.78-.15,1.18-.22.12-.02.25.02.37,0,.46-.1.91-.21,1.36-.31.19-.04.39-.05.57-.1.57-.17,1.14-.35,1.72-.52.26-.08.53-.13.78-.21.12-.04.23-.14.35-.18.15-.05.31-.08.46-.13.21-.08.42-.16.63-.24.26-.1.52-.21.78-.32.36-.15.71-.31,1.07-.44.42-.16.87-.28,1.28-.46.26-.11.47-.32.7-.48.19-.13.38-.27.57-.41.03,0,.05.02.08.03.05.81.1,1.62.15,2.43,0,.09.01.18.03.27.07.38-.1.72-.13,1.09ZM4.04,38.8s.02-.04.02-.06c.16.03.35.02.43.21-.01.02-.02.05-.04.07-.14-.07-.28-.15-.42-.22ZM53.87,41.88h-.24c-.06.11-.11.21-.16.32-.07-.04-.14-.07-.24-.12-.05.04-.13.13-.22.18-.16.09-.33.17-.49.25-.32.16-.63.34-.96.48-.86.37-1.71.77-2.64.96-.19.04-.37.17-.56.23-.38.12-.77.19-1.14.31-.91.31-1.88.36-2.81.59-.04,0-.09.02-.12,0-.25-.13-.48.04-.71.07-.26.03-.51.1-.76.13-.54.06-1.08.1-1.63.15-.42.04-.83.1-1.24.14-.21.02-.43.03-.65.05-.38.03-.76.08-1.14.11-.11,0-.22,0-.33-.03.16-.03.31-.05.47-.08.25-.04.5-.09.75-.1.43-.03.81-.27,1.25-.24.02,0,.04-.03.06-.05-.13-.07-.26-.11-.41-.02-.04.02-.09.03-.14.03-.61.09-1.21.2-1.82.27-.5.06-1.01.06-1.51.11-.17.02-.34.11-.52.12-.26.02-.53-.01-.8,0-.64.01-1.28.04-1.92.05-.18,0-.36,0-.54,0-.04,0-.07.06-.11.03-.26,0-.52,0-.78,0-.31,0-.62-.02-.93,0-.32.03-.64.1-.96.15-.05,0-.1,0-.15,0-.21-.02-.43-.1-.63-.06-.57.1-1.13-.05-1.7-.04-.54.01-1.09-.03-1.63-.07-.26-.02-.51-.13-.77-.17-.25-.04-.5-.03-.75-.07-.96-.12-1.92-.25-2.88-.38-.15-.02-.29-.03-.43-.07-.1-.03-.19-.1-.28-.15,0,0,0,0,0,0,0,0,0,0,0,0h0s0,0,0,0h0c-.12,0-.25.03-.37,0-.3-.07-.6-.19-.9-.22-1.3-.15-2.56-.52-3.81-.89-.47-.14-.94-.35-1.42-.43-.62-.11-1.19-.37-1.79-.55-.35-.11-.7-.22-1.04-.36-.51-.22-1.01-.47-1.51-.69-.45-.2-.91-.37-1.39-.57.05-.07.08-.1.12-.14-.02,0-.03-.02-.04-.02-.35.1-.63-.1-.91-.25-.8-.44-1.59-.91-2.38-1.36-.07-.04-.13-.09-.2-.14l.02-.05c.07.02.14.02.2.05.45.22.9.46,1.36.65.29.12.61.16.91.25.49.14.98.29,1.46.44,1.08.33,2.15.66,3.23.98.27.08.54.13.81.21.19.05.38.15.58.17.38.05.76.07,1.14.11.05,0,.1,0,.14.01.34.18.71.18,1.08.22.16.02.33.06.49.09.47.09.95.18,1.42.27.56.1,1.12.21,1.69.29.43.06.87.07,1.3.13.39.05.78.15,1.17.21.17.03.35-.02.52,0,.2.03.38.11.58.14.11.02.22-.02.33-.01.34.02.68.05,1.02.08.03,0,.06.03.08.02.43-.08.85.01,1.28.05.48.04.95.08,1.43.12.95.07,1.9.14,2.85.22.53.04,1.05.09,1.58.13.34.03.69.04,1.03.06.33.01.65.02.98.03.39,0,.78,0,1.17-.01.44,0,.88.04,1.31-.02.45-.06.92.07,1.34-.07.28-.09.55-.07.82-.1.24-.03.49,0,.73-.03.42-.05.83-.12,1.25-.17.22-.03.44-.05.67-.07.38-.04.75-.06,1.13-.11.58-.07,1.16-.15,1.73-.24.52-.08,1.03-.19,1.54-.28.23-.04.46-.07.68-.12.11-.02.2-.08.31-.1.52-.1,1.05-.17,1.57-.28.57-.12,1.13-.27,1.7-.4.45-.1.9-.18,1.35-.27.47-.1.93-.22,1.4-.32.42-.09.85-.17,1.27-.26.29-.07.57-.15.86-.22.1-.03.21-.04.32-.05l.04.06c-.17.15-.33.3-.51.44-.17.12-.36.23-.58.03-.01.02-.02.04-.04.06.04.06.08.13.12.21ZM52,36.06c-.42.12-.84.24-1.28.36.14-.33.93-.56,1.28-.36ZM6.56,35c-.28-.11-.56-.2-.83-.34-.16-.08-.29-.23-.43-.35.42.23.83.46,1.25.69ZM4.8,33.9c.15.12.3.24.44.36-.17-.09-.33-.19-.5-.28.02-.03.04-.05.05-.08ZM2.96,33.08c.48.47,1.06.8,1.62,1.15.47.3.94.62,1.44.88.59.3,1.2.55,1.8.82.54.24,1.09.48,1.64.72.1.04.21.08.31.12.29.09.6.14.86.28.62.33,1.29.47,1.97.63.82.19,1.64.35,2.46.51.57.11,1.14.17,1.71.26.58.1,1.16.21,1.75.31.15.03.31.03.46.05.48.08.96.19,1.44.25.42.05.85.02,1.27.04.26.02.52.09.78.11.52.04,1.05.04,1.57.09.67.05,1.35.14,2.02.19.74.06,1.49.11,2.23.12.98.01,1.96-.01,2.93-.03.7-.01,1.4-.02,2.1-.07.56-.04,1.11-.16,1.66-.22.45-.05.9-.05,1.35-.08.55-.03,1.1-.05,1.65-.1.62-.06,1.23-.13,1.85-.23,1.03-.16,2.05-.33,3.07-.53.6-.11,1.19-.28,1.79-.41.38-.08.77-.14,1.15-.21.12-.02.24-.08.36-.11.32-.08.65-.16.97-.24.33-.09.66-.18.99-.26.15-.04.31-.05.47-.08.34-.07.67-.15,1.01-.21.2-.04.41-.04.59-.06.26-.11.5-.23.76-.32.33-.12.67-.22,1.01-.33.08-.03.19-.01.18-.15,0-.01.08-.03.13-.04.57-.1,1.16-.14,1.7-.33.55-.2,1.17-.29,1.62-.74.12-.13.24-.27.33-.42.11-.18.2-.38.31-.56.02-.03.09-.02.14-.03-.02.08-.05.15-.06.23-.03.15-.06.3-.09.48.29-.02.29.13.28.32-.06,1.05-.11,2.09-.17,3.14,0,.09-.06.18-.11.27-.12.22-.08.38.12.52.09.06.14.18.24.27-.06-.53-.07-1.04.15-1.59.06.2.15.36.16.53.02.45.04.91-.12,1.35-.02.06-.04.13-.05.2-.3.25-.3.25-.5-.1-.1-.18-.22-.34-.31-.52-.08-.15-.2-.17-.33-.11-.14.07-.33.13-.28.36.01.05.02.09.02.13-.11-.02-.21-.04-.34-.06.02.19,0,.38.07.48.07.09.25.1.38.15-.05.14-.09.24-.13.33-.04.07-.08.18-.14.2-.58.21-1.15.43-1.74.61-.41.13-.84.2-1.27.28-.75.15-1.5.29-2.29.44.04-.09.07-.14.1-.21-.04,0-.08-.02-.1,0-.1.07-.17.19-.28.22-.35.1-.7.18-1.05.24-.79.13-1.59.23-2.38.37-.47.08-.94.23-1.41.32-.69.13-1.39.23-2.09.34-.44.07-.88.13-1.33.17-.43.04-.87.06-1.31.1-.22.02-.44.05-.67.07-.25.02-.51.01-.76.03-.45.03-.89.08-1.34.1-.61.02-1.23.02-1.84.03-.17,0-.33.04-.5.04-.4,0-.81-.02-1.21-.03-.17,0-.34,0-.5,0-.47-.02-.94-.03-1.41-.06-.77-.05-1.53-.12-2.3-.12-.42,0-.85-.06-1.27-.11-.2-.02-.4-.08-.6-.11-.03,0-.07,0-.1,0-.15,0-.31.05-.44,0-.38-.15-.77-.13-1.16-.17-.52-.04-1.05-.09-1.57-.13-.05,0-.1,0-.14,0-.23-.01-.45-.02-.68-.04-.3-.03-.59-.08-.89-.11-.49-.05-.99-.04-1.45-.17-.55-.14-1.1-.18-1.65-.23-.13-.01-.25-.08-.37-.12-.11-.03-.22-.08-.34-.09-.35-.03-.7-.03-1.04-.09-.76-.13-1.5-.34-2.26-.44-.45-.06-.89-.09-1.31-.27-.22-.09-.47-.08-.71-.14-.13-.03-.24-.14-.36-.19-.11-.05-.26-.04-.35-.11-.28-.2-.6-.14-.91-.16-.1,0-.2-.01-.28-.06-.46-.27-.96-.41-1.49-.51-.36-.07-.73-.13-1.03-.37-.03-.03-.11,0-.16-.01-.25-.07-.51-.15-.76-.22-.26-.06-.52-.11-.78-.17-.34-.08-.69-.14-1.02-.25-.51-.18-1.01-.37-1.5-.6-.59-.28-1.15-.6-1.73-.9-.07-.04-.15-.1-.18-.17-.12-.26-.34-.41-.58-.54-.15-.08-.21-.22-.2-.38.02-.36.05-.71.06-1.06,0-.32-.03-.64-.03-.96,0-.15-.06-.33.1-.41-.03-.16-.03-.32-.09-.45-.05-.11-.16-.18-.23-.25h.84s.01-.04.02-.06c-.55-.18-.92-.5-.98-1.09.03-.01.05-.03.08-.04.03.08.05.16.06.2.32.26.63.47.9.74ZM2.16,28.22c-.08-.16-.16-.32-.26-.52.11.01.16.02.18.02.07.18.12.33.17.47-.03.01-.06.02-.09.03ZM27.36,34.86c.14.09.25.16.37.23-.21.07-.3-.02-.37-.23Z"/>
      <path class="cls-1" d="M46.42,15.77c.16-.08.33-.13.23-.34-.15.05-.36.05-.43.15-.17.24-.41.35-.66.44-.26.1-.54.12-.81.18-.12.03-.23.06-.35.09l.02.06c.15-.02.3-.04.45-.07,0,.02,0,.04,0,.05-.1.04-.2.08-.31.11-.51.14-1.01.29-1.52.42-.24.06-.49.11-.74.13-.23.02-.46-.02-.7-.03,0,.07.01.1,0,.07-.19.01-.38,0-.55.05-.26.06-.51.19-.77.24-.38.06-.77.07-1.16.1-.17.01-.33-.01-.5,0-.32.03-.63.09-.95.12-1.13.1-2.25.2-3.38.29-.86.07-1.72.13-2.57.17-1.21.05-2.42.1-3.63-.02-.77-.08-1.55-.09-2.31-.16-1.05-.1-2.1-.23-3.15-.34-.8-.09-1.61-.15-2.41-.29-1.17-.2-2.34-.44-3.49-.72-.75-.18-1.47-.49-2.22-.71-.81-.23-1.55-.59-2.27-1.02-.17-.1-.3-.25-.48-.39.19-.04.34-.04.47-.09.4-.16.79-.34,1.17-.53.13-.07.27-.19.33-.32.08-.17-.07-.28-.21-.35-.14-.07-.31-.14-.27-.34.04-.25.62-.53.88-.45.05-.11.15-.19.31-.19.09,0,.16.03.22.08.04,0,.07-.01.11-.02.21-.03.44-.11.47.23,0,.01.04.02.08.04v-.17c.06.02.11.03.17.05.02-.05.05-.09.07-.14-.04-.02-.07-.04-.1-.05.09-.06.17-.1.23-.15.2-.2.2-.2.43-.04.08-.32.16-.63.24-.94h-.12c.07-.17.14-.33.21-.49,0-.01.02-.02.03-.02.09-.03.2-.05.28-.11.19-.16.35-.15.49.06-.03.11-.06.22-.08.29.34.26.69.52,1.03.79.12.1.22.24.35.32.76.45,1.61.62,2.48.71.71.07,1.42.1,2.13.15.3.02.61.03.92.02.24,0,.47-.05.71-.04.19,0,.36.04.56-.01.35-.09.7.12,1.05-.02,0,0,.01,0,.02,0,.21.1.44.1.67.1.39,0,.79.08,1.18.12.04,0,.09-.02.14-.04.08-.02.16-.05.23-.07.09-.02.17-.06.26-.06.26,0,.51-.15.78-.05.04.01.1-.02.09-.02.31-.03.58-.02.81-.1.11-.04.2-.06.3-.02.05.02.13.03.18,0,.34-.15.71-.05,1.06-.07.1,0,.22.04.3,0,.42-.17.87.04,1.3-.19.19-.1.48,0,.72.02.09,0,.2,0,.26-.04.29-.25.6-.29.97-.26.16.01.33,0,.5-.01.11-.02.22-.03.34-.04.13-.02.25-.04.38-.07.48-.09.95-.23,1.42-.33.61-.13,1.21-.26,1.76-.55.06-.03.17-.02.24,0,.27.08.53.19.8.27.08.03.16.06.27,0,.13-.08.3-.16.44-.15.48.06.98-.07,1.45.17.14.07.31.08.46.12.37.1.74.21,1.16.33-.09.07-.14.1-.18.14.05.03.09.05.16.08-.1.07-.18.12-.26.17,0,.02.02.04.03.05.18-.09.35-.17.55-.27-.04.24.04.46-.02.7-.09.35-.02.53.36.57.23.03.47.04.73.06-.05-.09-.12-.16-.15-.24-.04-.1-.06-.18-.2-.12-.04.02-.16-.09-.2-.16-.02-.03.04-.12.06-.19.03-.06.07-.11.1-.17.04-.09.08-.19.12-.29-.12-.27-.31-.47-.56-.59-.07.13-.13.24-.19.35-.02,0-.04-.01-.06-.02,0-.14.01-.27.02-.41-.01.02-.03.03-.04.05-.11-.08-.22-.17-.33-.24-.08-.05-.17-.11-.26-.13-.34-.07-.68-.14-1.02-.19-.77-.11-1.54-.21-2.31-.31-.24-.03-.51-.28-.55-.45-.06-.31-.06-.64-.29-.9-.04-.04-.08-.11-.08-.17-.02-.19-.13-.23-.3-.25-.28-.03-.56-.09-.85-.13-.2-.02-.43-.07-.6,0-.27.1-.5.02-.75-.02.05-.14.1-.24.14-.35-.02-.01-.03-.02-.05-.04l-.24.11c.11-.19.09-.36-.02-.53-.04-.06-.06-.13-.1-.19-.05-.09-.08-.22-.16-.25-.33-.11-.62-.33-.98-.32-.23,0-.47.03-.69-.02-.58-.12-1.16-.06-1.74-.03-.2.01-.28-.09-.37-.2-.1-.12.06-.14.11-.19.01-.01.01-.04.02-.06.08-.15.16-.3.25-.45.1-.15.26-.28.31-.44.22-.72.41-1.45.63-2.17.22-.71.2-1.42.12-2.14-.02-.21-.13-.37-.37-.38-.05,0-.1-.02-.14-.05-.27-.18-.26-.18-.47.07-.04.05-.12.11-.15.1-.37-.14-.73-.28-1.02-.59.33.05.66.11.99.16.03-.21-.08-.27-.23-.31-.3-.08-.62-.13-.9-.25-.29-.12-.53-.07-.77.07-.41.24-.81.49-1.21.74-.39.29-.83.55-1.07.98-.18.33-.3.69-.48,1.02-.08.22-.17.44-.25.66-.03,0-.05,0-.08.01-.03-.04-.07-.07-.1-.11-.12.1-.28.11-.42.04-.5-.24-.85-.68-1.19-1.11-.61-.33-1.23-.64-1.86-.93-.19-.09-.43-.09-.65-.1-.17,0-.33.1-.5-.02-.03-.02-.09.02-.14.03-.46.11-.69.47-.96.81-.07.09-.15.18-.24.22-.39.17-.58.53-.49.94.1.48.1.48-.09.79,0,0,0,.01,0,.03.03.03.06.06.09.09-.14.24-.15.5-.07.74.09.25.25.49.41.7.2.26.43.49.65.73.3.34.6.69.94,1.09-.18,0-.3,0-.42,0-.64-.04-1.28-.11-1.92-.05-.18.02-.36-.04-.54-.04-.39.01-.78.03-1.17.07-.32.03-.65.1-.97.15-.12.02-.24.07-.41.12.08-.09.11-.12.15-.17-.53.14-1.15.38-1.5.76-.1.11-.24.19-.35.3-.04.04-.06.11-.06.17,0,.1.04.2.05.31.04.24.1.46.29.69.04-.14.07-.25.11-.36.08-.24.13-.5.24-.73.07-.14.21-.27.34-.35.77-.45,1.62-.44,2.47-.39.39.02.77.07,1.14-.07.06-.02.12-.03.18-.02.77.05,1.55.1,2.32.16.1,0,.2.09.3.13,0,.02-.02.05-.03.07-.06,0-.12,0-.19,0-.65-.07-1.31-.13-1.96-.21-.46-.06-.89-.02-1.24.33-.17.16-.36.3-.55.45-.02-.02-.06-.05-.1-.09-.01,0-.02.01-.03.02.03.06.07.13.1.19-.13.17-.04.4.13.53.22.15.4.35.6.53.01,0,0,.04,0,.06.02.15.38.47.5.4.17-.09.25.02.35.07.23.12.43.29.67.38.61.24,1.24.42,1.85.67.27.11.54.14.81.16.19.01.35.05.51.21-.1.05-.17.11-.25.11-.53,0-1.06,0-1.59,0-.64,0-1.27-.04-1.91-.02-1.04.03-2.05-.07-3.06-.32-.23-.06-.48-.16-.64-.32-.3-.3-.53-.65-.79-.99-.02-.02,0-.1.04-.14.08-.1.17-.2.3-.34-.16,0-.26-.02-.36-.01-.26.02-.51,0-.72-.18-.05-.04-.16-.07-.21-.04-.33.21-.65.44-.98.65-.29.19-.3.21-.19.55.01.03.03.07.03.1,0,.16.02.32,0,.47-.04.2-.15.22-.31.09-.05-.04-.12-.09-.17-.08-.28.02-.55.05-.83.1-.42.08-.84.16-1.23.3-.43.16-.52.4-.43.86.03.15.07.31.04.44-.08.31-.21.6-.6.63-.01,0-.02.02-.03.03-.23.22-.5.22-.79.18-.35-.05-.69-.13-1.04-.16-.59-.05-1.2-.14-1.77.04-.78.25-1.55.56-2.31.87-.17.07-.31.22-.46.33.01.03.03.05.04.08.14-.06.28-.12.42-.19.14.17-.12.14-.13.25.04.04.08.08.09.08-.02.12-.03.2-.04.28.07-.03.15-.04.21-.08.16-.1.31-.22.47-.31.08-.04.2-.04.29-.02.18.04.35.1.52.16,0-.01.02-.03.03-.04-.11-.13-.21-.26-.34-.42.14-.06.27-.14.42-.19.54-.21,1.12-.23,1.69-.27.33-.02.66-.04.98-.03.16,0,.32.1.48.16,0,.03-.01.06-.02.09-.06.01-.13.03-.19.04.05.03.1.06.14.09,0,0,.01.02.02.03,0,0,.02,0,.03,0,.09-.01.19,0,.27.04.37.21.72.45,1.1.64.67.33,1.34.68,2.04.93.82.3,1.67.52,2.52.74.63.17,1.26.3,1.9.42.89.16,1.79.32,2.69.43.68.09,1.37.1,2.05.14.37.02.72.1,1.1.07.24-.02.48.07.73.12.06.01.11.06.16.09,0-.05.02-.1.03-.16.08.05.14.12.2.12.21.02.42.03.63.04.09,0,.19,0,.28.01.25.03.49.07.74.09.05,0,.13-.02.14-.06.09-.16.21-.09.32-.07.09.01.18.04.27.04.17.01.34,0,.5.02.25.02.51.08.76.09.34.01.68,0,1.02-.01.16,0,.31-.08.47-.08.23,0,.46.03.69.05.12,0,.23,0,.37,0,0,0,.01-.05.02-.09.07.06.13.11.22.18-.03-.07-.04-.1-.05-.14.22.02.44.06.65.05.32,0,.65-.04.97-.08.14-.01.32-.01.39-.09.13-.15.22-.09.32-.04.09-.03.15-.07.22-.08.19-.03.38-.05.57-.07.06,0,.14-.04.17-.01.19.16.39.05.58.04.16-.01.33-.01.49-.01.16,0,.34.06.49.01.13-.04.23-.04.36-.02.16.03.36.05.49-.01.29-.14.56-.01.83-.04.09-.03.18-.07.27-.08.2-.02.4-.02.6-.04.3-.03.6-.07.9-.11.32-.04.66-.01.96-.12.31-.11.62-.12.94-.17.34-.05.69-.09,1.01-.18.47-.14.93-.32,1.39-.48.35-.12.71-.23,1.05-.37.32-.13.58-.4.98-.32-.01-.2.1-.42-.23-.48ZM41.1,10.63c.68,0,1.36,0,2.02.19,0,.03,0,.05.01.08-.07.02-.15.08-.22.07-.45-.11-.91-.15-1.38-.14-.15,0-.3-.06-.45-.1,0-.03,0-.06.01-.09ZM34.7,1.99c-.03-.23-.06-.41-.09-.61.19.08.22.27.09.61ZM26.54,12.14c-.12-.02-.24-.05-.39-.08.18-.2.29-.07.4,0,0,.02,0,.05-.01.07ZM35.32,7.3c.27.01.54,0,.81.05.37.07.66.27.82.62.05.11.02.14-.27.3.05-.06.07-.09.13-.17-.12.05-.2.07-.27.11-.52.31-1.1.44-1.67.6-.48.14-.97.11-1.45.02-.48-.09-.67-.63-.41-1.04.05-.08.16-.11.04-.25-.08-.08.06-.23.2-.25.69-.1,1.38-.03,2.06,0ZM36.72,8.89c-.47.05-.91.09-1.41.14.45-.21,1.23-.29,1.41-.14ZM34.07,9.26c-.5.13-1,.16-1.49,0h1.49ZM24.46,6.38c-.6-.61-1.18-1.32-1.33-2.19-.12-.69.02-1.63.71-2,.95-.51,2.2.33,2.93,1.15.2.15.4.29.61.44.38.26.59.6.78.99.03.07.03.15.04.27.26.04.56.25.87.01.11-.08.2-.2.26-.32.15-.32.26-.65.4-.97.08-.19.17-.38.28-.57.03-.06.11-.1.18-.15-.11-.25-.09-.52.13-.69.27-.2.38-.52.61-.73.41-.37.83-.75,1.4-.86.52-.1.92.11,1.24.5.13.16.29.29.4.45.27.41.37.87.21,1.33-.02.46-.16.93-.32,1.34-.3.8-.7,1.57-1.1,2.32-.39.71-.86,1.4-1.42,1.98-.49.51-1.16,1.06-1.91.93-.51-.09-.98-.41-1.41-.68-.45-.29-.92-.52-1.39-.78-.83-.45-1.5-1.12-2.16-1.78ZM25.17,10.93c-.54-.16-1.1-.3-1.61-.54-.61-.28-1.17-.65-1.74-1-.13-.08-.22-.23-.33-.35-.07-.09-.08-.18.06-.22.18-.05.36-.13.54-.13.74-.03,1.49-.03,2.23-.05.14,0,.28.01.42,0,.32-.05.59.02.87.19.22.14.5.18.76.27.09.03.17.08.26.12v-.03c.1.03.19.06.28.09.3.11.59.24.9.33.24.07.5.08.73.16.18.06.34.2.51.3.12.07.24.19.37.21.32.05.66.09.98.05.29-.04.56-.19.84-.3.31-.12.58-.34.93-.37.19-.02.37-.11.56-.14.12-.02.24.01.37,0,.53-.03,1.06-.08,1.6-.11.62-.03,1.25-.05,1.87-.07.01,0,.03,0,.04,0,.23.28.48-.01.73.02.47.05.96.05,1.43.09.15.01.3.05.44.1.14.05.29.11.41.2.05.03.05.15.05.23,0,.06-.04.11-.07.17-.03.06-.05.11-.08.16-.05.08-.11.16-.16.23-.01-.01-.03-.02-.04-.03.04-.05.08-.1.12-.15-.01-.01-.02-.02-.03-.03-.09.06-.21.11-.28.2-.13.16-.3.22-.49.26-.09.02-.17.07-.25.11-.18.08-.35.19-.57.08-.07-.03-.19.03-.28.03-.32.01-.63.02-.95.03-.25,0-.51,0-.76.04-.15.02-.3.11-.45.13-.39.05-.79.08-1.18.12-.15.01-.3.04-.46.04-.06,0-.13-.02-.17-.03-.09.04-.17.11-.25.12-.39.01-.79,0-1.18.01-.38.01-.76.06-1.14.08-.47.03-.95.04-1.42.06-.31.02-.62.06-.93.07-.2,0-.4-.05-.59-.06-1,0-1.91-.38-2.85-.65Z"/>
      <polygon class="cls-1" points="15.5 12.25 15.5 12.25 15.49 12.26 15.5 12.25"/>
      <path class="cls-1" d="M58.51,21.12c-.02-.22,0-.45,0-.69.12-.1.14-.39.02-.75.07.02.13.04.15.04-.09-.19-.19-.38-.29-.57-.05-.09-.08-.2-.15-.27-.4-.38-.8-.74-1.21-1.11-.01.03-.02.06-.04.1-.04,0-.1.02-.13,0-.06-.03-.1-.1-.15-.13-.27-.15-.54-.3-.81-.43-.08-.04-.17-.05-.26-.06-.19-.01-.38,0-.57-.02-.4-.05-.79-.16-1.2-.18-.4-.02-.81,0-1.21.05-.38.05-.65-.09-.89-.35.02-.04.05-.08.07-.12-.03-.02-.07-.04-.1-.05-.38-.09-.76-.17-1.15-.26,0,0-.01,0-.02,0-.47-.14-.94-.16-1.43-.07.26.07.58.04.78.18.25.17.56.09.79.29-.1.14,0,.21.1.31.17.16.36.18.58.18.64,0,1.29-.06,1.92.14.04.01.1.02.14,0,.58-.09,1.14.08,1.68.23.45.13.87.31,1.24.62.33.28.69.54.92.93.06.1.2.16.3.24,0,0,.01.02.03.04-.03.02-.06.04-.08.06.57.86.55,1.76.2,2.73-.09-.08-.15-.15-.22-.21-.12-.1-.23-.22-.37-.29-.04-.02-.15.12-.23.13-.39.06-.53.4-.75.65-.42.48-.7,1.05-.91,1.65-.15.42-.25.84-.37,1.26-.29-.11-.58-.21-.9-.34,0-.06-.03-.17-.05-.3-.06.02-.11.03-.15.05-.05-.35-.06-.7-.16-1.02-.14-.41-.31-.81-.58-1.17-.06-.08-.11-.18-.15-.28-.06-.14-.34-.31-.47-.28-.19.04-.5.47-.51.66-.01.22-.06.44-.1.65-.02,0-.04,0-.07-.01.03-.14.06-.27.08-.41-.3.4-.51.83-.61,1.3-.12.55-.26,1.1-.39,1.65-.06.28-.1.56-.15.84-.03,0-.06,0-.09.01-.07-.17-.14-.33-.21-.5-.07-.18-.13-.37-.22-.54-.11-.22-.28-.43-.37-.66-.3-.74-.76-1.37-1.33-1.91-.22-.21-.48-.18-.74-.22-.21-.04-.36.04-.49.19-.26.3-.55.57-.8.88-.17.21-.35.44-.42.69-.26.92-.38,1.86-.3,2.81,0,.12,0,.24-.01.35-.08-.2-.09-.41-.17-.59-.08-.2-.11-.38-.03-.58.02-.04,0-.09-.01-.13-.15-.34-.31-.68-.47-1.01-.07-.14-.11-.3-.2-.43-.26-.38-.56-.74-.79-1.13-.16-.26-.36-.46-.54-.7-.23-.3-.52-.32-.76-.03-.06.07-.13.14-.2.21-.14.17-.31.33-.4.52-.21.44-.36.92-.58,1.36-.51,1.05-.96,2.13-1.37,3.23-.05.14-.12.28-.19.42-.03,0-.05-.01-.08-.02v-.34c-.02-.11-.05-.24-.06-.37-.04-.43-.24-.84-.1-1.28,0-.03-.02-.06-.03-.1-.04-.2-.08-.41-.13-.61-.06-.23-.14-.46-.21-.68l-.04.03c.03-.06.05-.12.08-.18-.03-.01-.06-.03-.08-.04-.05.12-.15.24-.15.35,0,.31.05.61.09.91.04.25.13.5.15.76.03.32-.02.64.01.95.04.42.11.84.21,1.26.08.34.22.66.35.98,0,.02.05.03.08.05-.06-.31-.02-.61.09-.9.17-.45.34-.9.51-1.35.05-.12.12-.23.19-.35.1-.2.14-.45.29-.6.23-.24.31-.54.44-.82.14-.31.27-.62.37-.94.07-.22.12-.47.08-.69-.03-.14,0-.2.08-.27.03-.03.07-.05.08-.08.13-.28.25-.56.36-.8.17,0,.31-.01.44,0,.07,0,.15.06.18.11.07.12.12.25.17.38.13.34.33.66.31,1.05,0,.13.04.26.22.28.05,0,.11.06.14.11.15.29.3.59.44.89.18.41.34.84.41,1.29.09.59.16,1.19.25,1.78.01.07.06.16.12.2.2.14.68.15.79-.03.11-.19.25-.41.14-.67-.05-.13-.06-.29-.04-.43.06-.38.16-.76.21-1.15.08-.54.15-1.07.2-1.61.03-.36-.02-.73.15-1.07.12-.23.18-.5.34-.68.44-.48.83-.47,1.14.02.09.14.14.23.32.15.03-.02.11,0,.13.02.22.22.48.42.54.77.09.47.31.88.57,1.28.2.3.35.66.45,1.01.11.37.13.77.18,1.15.04.31.12.37.41.26.11-.04.23-.08.33-.14.06-.04.11-.11.14-.18.13-.33.01-.64-.1-.95-.07-.19-.14-.37-.07-.59.12-.39.21-.8.31-1.2.03-.14.02-.3.07-.43.17-.44.21-.9.3-1.35.05-.23.11-.46.16-.7.05-.24.32-.35.35-.6,0-.02.04-.03.07-.04.16-.07.37.03.43.2.09.23.17.46.29.67.25.42.41.86.42,1.35,0,.14-.01.29.04.41.05.13.2.21.27.33.08.15.26.27.19.43.18.09.36.15.48.26.14.13.23.33.36.48.09.1.12.32.32.24.26-.1.46-.28.59-.53.03-.05.07-.13.06-.17-.07-.2-.04-.38-.01-.58.13-.85.3-1.69.7-2.46.13-.26.36-.48.55-.71.02,0,.04.02.07.03.04.22.1.44.12.66.02.18.08.31.24.4.06.03.13.11.13.17,0,.36.06.75-.03,1.08-.11.37.08.67.08,1,.04-.18.03-.37.11-.52.18-.33.16-.68.19-1.03.02-.24-.12-.5.05-.73.01-.01.01-.04,0-.06-.17-.37.03-.65.26-.9.25-.28.35-.63.45-.97.01-.04-.03-.1-.04-.15-.04-.17-.1-.35-.12-.52ZM57.81,19.35c-.28-.34-.53-.69-.81-1.07.51.05.91.46,1.14,1.13-.14.16-.27.02-.33-.06Z"/>
      <path class="cls-1" d="M47.22,19.2s.07-.07.11-.1c.2-.13.39-.26.59-.38.08-.05.18-.07.31-.12-.01-.02-.05-.09-.08-.17-.06.04-.13.08-.19.12-.08.06-.15.15-.24.2-.48.28-.97.55-1.45.81-.04.02-.12.03-.15,0-.16-.13-.28-.02-.41.06-.07.05-.12.12-.2.16-.1.05-.21.07-.32.11,0-.02-.01-.04-.02-.07.06-.04.13-.07.24-.14-.36.11-.66.19-.96.29-.25.08-.5.2-.76.26-.54.12-1.08.23-1.62.33-.47.09-.94.17-1.41.24-.24.04-.47.06-.71.07-.3,0-.59-.06-.89-.04-1.06.05-2.11.12-3.17.19-1.17.08-2.34.15-3.51.26-2.11.2-4.22.2-6.33.05-1.42-.1-2.82-.3-4.24-.45-.74-.08-1.48-.14-2.22-.21-.51-.05-1.03-.16-1.54-.17-1-.02-1.96-.24-2.92-.43-.29-.06-.57-.16-.86-.25-.6-.18-1.2-.33-1.79-.54-.46-.17-.99-.22-1.34-.63-.02-.02-.05-.03-.08-.03-.35-.04-.64-.22-.92-.43-.4-.3-.85-.54-1.12-.97-.12-.2-.21-.44-.23-.67-.02-.23.06-.47.09-.71.02-.17-.19-.41-.34-.44-.09.11-.16.21-.24.31-.04.05-.12.07-.14.12-.15.32-.35.62-.19,1,.16.38.24.79.64,1.04.41.25.79.55,1.17.85.25.2.5.37.81.45.19.05.39.12.56.22.41.27.81.52,1.32.6.34.05.65.25.98.34.76.22,1.53.45,2.3.63.62.14,1.25.22,1.88.33.33.06.66.14.99.17.44.04.9,0,1.33.08.83.15,1.68-.03,2.5.21.23.07.5,0,.74.01.36.02.71.05,1.07.07.13,0,.27-.01.4.02.25.05.5.14.76.07.03,0,.07.01.1.02.55.07,1.07.3,1.64.17.25-.05.53.04.79.06.59.04,1.19.08,1.79.12.02,0,.04-.01.07-.03-.04-.04-.08-.08-.14-.15.12,0,.21-.02.3-.02.11,0,.22.02.32.04.09.02.17.11.25.11.25,0,.51-.04.76-.03.7.02,1.38-.15,2.08-.23.23-.03.47-.02.7-.06.18-.03.35-.1.52-.16.05-.02.1-.04.16-.05.33-.07.66-.03.99-.13.41-.12.87-.04,1.31-.06.2,0,.39-.05.59-.07.11-.01.22-.05.33-.04.32.01.64.06.96.05.58-.01,1.16-.08,1.74-.08.36,0,.73-.16,1.08.05.02,0,.04,0,.06,0,.31-.14.62-.06.93,0,.27.05.55.07.82.1,0,0,0-.02,0-.03-.17-.03-.35-.07-.52-.1,0-.02-.01-.04-.02-.06.06-.04.12-.11.2-.13.3-.06.6-.11.9-.15.04,0,.09.02.12.05.09.1.35.12.44.04.06-.05.13-.09.2-.13.01.02.02.03.03.05.12-.16,1.02-.38,1.2-.29.16-.22.55-.37,1.49-.57.07-.16.1-.33.2-.43.12-.12.3-.17.44-.27.15-.1.29-.22.46-.35-.12-.05-.19-.08-.29-.12.24-.13.44-.24.64-.36-.68-.01-1.23.35-1.85.5ZM47.1,19.72c.1-.23,1.02-.72,1.27-.67-.42.22-.86.45-1.27.67Z"/>
      <polygon class="cls-1" points="15.5 12.25 15.49 12.26 15.5 12.26 15.5 12.25"/>
      <path class="cls-1" d="M15.33,12.63c-.06.04-.13.14-.12.19.04.16.12.31.19.46,0,0,.09-.03.13-.03.21,0,.42,0,.62.04.35.08.69.2,1.04.29.15.04.31.04.46.08.39.09.78.21,1.18.28,1.12.21,2.25.43,3.38.6,1.44.23,2.89.43,4.34.61.64.08,1.28.12,1.92.14,1.19.05,2.39.08,3.58.12.78.02,1.56.03,2.35.05.08,0,.19.05.25.01.38-.21.83.04,1.2-.21,0,0,.01,0,.02,0,.41,0,.83-.02,1.2-.03.05-.09.07-.13.09-.17.14-.2.36-.06.54-.12.28-.1.61.01.91-.1.12-.05.27-.03.4-.05.36-.05.71-.1,1.07-.14.05,0,.1.04.13.05.04-.04.07-.08.11-.09.25-.07.51-.19.77-.19.25,0,.45-.35.72-.11,0,0,.04-.01.05-.02.36-.2.73-.41,1.09-.62.06-.04.14-.12.13-.17-.02-.16.08-.19.22-.2-.16-.07-.18-.16-.12-.29.02-.05.02-.14-.01-.19-.12-.18-.24-.35-.38-.52-.19-.23-.31-.25-.58-.1.02.11,0,.27.07.33.19.17.08.27-.04.39-.06.07-.15.17-.14.24.04.18-.07.25-.19.3-.4.15-.8.3-1.2.45-.04.01-.1.01-.14,0-.24-.12-.34-.09-.54.09-.04.04-.12.06-.19.06-.28.02-.57,0-.85.04-.66.06-1.33.15-1.99.2-.41.03-.83,0-1.25.01-.56,0-1.12,0-1.68.03-.42.02-.83.1-1.26.03-.52-.08-1.06-.04-1.58-.05-.52-.02-1.03-.05-1.55-.08-1.22-.08-2.43-.14-3.64-.24-1.16-.1-2.31-.23-3.46-.38-1.22-.16-2.44-.35-3.66-.51-.78-.1-1.55-.23-2.3-.47-.1-.03-.23-.07-.29-.15-.1-.13-.17-.3-.24-.45-.01,0-.02,0-.03,0v.22c-.1,0-.21-.01-.27.03-.11.07-.19.04-.27-.04.05.17-.04.27-.17.36Z"/>
      <path class="cls-1" d="M30.51,24.51c-.25.4-.54.78-.74,1.21-.3.62-.7,1.18-.86,1.87-.09.4-.23.79-.37,1.18-.25.71-.5,1.42-.9,2.07.3-.07.45-.3.57-.54.26-.51.51-1.04.75-1.56.41-.89.8-1.79,1.24-2.68.22-.45.44-.92.81-1.29.24-.25.53-.22.63.07.06.16.12.32.17.48.13.41.27.81.37,1.22.19.78.34,1.58.56,2.35.1.35.34.67.53.99.04.06.17.12.24.1.06-.02.11-.14.13-.22.06-.23.1-.46.16-.69.05-.17.15-.33.18-.5.16-1.01.02-2.01-.16-3-.08-.44-.25-.87-.38-1.3-.02-.06-.02-.14-.06-.18-.15-.14-.32-.26-.48-.39-.29-.26-.6-.29-.97-.14-.15.06-.33.06-.5.07-.06,0-.12,0-.19,0-.02,0-.03.02-.09.07.06.03.12.05.22.09-.28.23-.51.42-.74.61-.05.04-.09.08-.13.13ZM32.36,24.02c.42.17.69.51.89.91.31.61.47,1.26.5,1.93.04.72.07,1.44-.21,2.14-.02.06.05.15.08.23,0,.01-.02.02-.02.03-.05-.08-.11-.15-.17-.23-.05.16-.09.31-.15.52-.18-.34-.33-.63-.49-.94.06-.03.11-.06.14-.08-.07-.18-.2-.36-.17-.52.08-.39-.14-.68-.19-1.04.04.08.08.16.11.24.01,0,.02,0,.04-.01-.06-.22-.13-.45-.19-.67-.04-.14-.07-.29-.11-.44-.06-.23-.14-.45-.2-.68-.09-.33-.16-.66-.24-.99-.01-.05-.01-.1-.01-.15-.03-.41.08-.39.4-.26Z"/>
      <path class="cls-1" d="M27.63,30.84s0,0,0-.01c0,0,0,0-.01,0,0,0,0,0,0,0Z"/>
      <path class="cls-1" d="M38.45,25.29c-.24.61-.46,1.23-.69,1.84-.1.26-.2.52-.28.78-.1.31-.17.63-.27.94-.11.34-.23.68-.34,1.01.15-.12.31-.24.38-.4.22-.49.43-.98.6-1.48.29-.83.54-1.67.82-2.5.08-.22.19-.43.3-.67-.02-.03-.05-.11-.12-.26-.15.27-.31.49-.41.74Z"/>
      <path class="cls-1" d="M35.22,26.36c.08.15.15.31.19.48.08.3.15.61.21.91.09.41.18.82.26,1.24.07.38.11.78.39,1.07.09.09.21.15.31.22.02-.03.04-.06.07-.09-.21-.11-.37-.24-.41-.49-.11-.65-.26-1.29-.36-1.93-.14-.91-.49-1.73-.93-2.52-.24-.44-.57-.82-.88-1.22-.11-.14-.28-.24-.42-.35-.06.1-.1.16-.12.18.36.38.73.74,1.07,1.13.34.39.38.92.6,1.37Z"/>
      <path class="cls-1" d="M47.96,15.65c.15-.17.31-.34.45-.53.08-.12.01-.34-.09-.38-.16-.06-.27-.04-.35.13-.03.07-.14.11-.21.16-.02-.01-.03-.02-.05-.04-.04.07-.1.13-.1.2-.03.26-.35.48-.05.78.23.22.5.33.8.21.04-.02.09-.04.13-.03.17.02.35.04.52.06,0-.02,0-.04,0-.06-.4-.04-.76-.19-1.08-.44.02-.03.02-.05.04-.06Z"/>
      <path class="cls-1" d="M48.15,14.35l.07-.15s.03,0,.05,0v.21c.32-.27.13-.58.06-.84-.09-.34-.4-.4-.71-.36-.08.12-.16.24-.24.37.38.13.72.29.78.76Z"/>
      <path class="cls-1" d="M5.06,21.56c-.32.08-.62.23-.76.57-.1.24.1.39.18.53.19-.37.39-.74.58-1.1Z"/>
      <polygon class="cls-1" points="51.1 51.99 51.1 51.99 51.1 51.99 51.1 51.99"/>
      <path class="cls-1" d="M46.72,15.15c.3-.17.33-.47.41-.73-.08.03-.17.05-.25.1-.09.06-.21.12-.25.21-.02.05.1.16.17.26-.01.03-.05.1-.08.16Z"/>
      <path class="cls-1" d="M47.16,14.67s.04.04.05.06c.04-.06.1-.12.13-.19.04-.08.04-.17.08-.25.12-.26.02-.44-.26-.47v.18c0,.07-.03.18,0,.21.2.17.02.31-.01.46Z"/>
      <path class="cls-1" d="M4.08,23.38c.33.07.37.04.38-.28-.14-.08-.25-.15-.38-.24v.52Z"/>
      <path class="cls-1" d="M48.44,18.25c.32.01.37-.28.54-.42.02-.01.01-.05.03-.1-.06.06-.09.1-.13.14-.02,0-.03-.02-.05-.03.08-.15.16-.29.24-.44-.01-.01-.03-.02-.04-.03-.05.06-.12.11-.13.18-.07.28-.26.47-.46.7Z"/>
      <polygon class="cls-1" points="40.05 30.66 40.05 30.65 40.05 30.65 40.05 30.65 40.05 30.65 40.05 30.66"/>
      <path class="cls-1" d="M49.97,16.45c-.24-.02-.48-.05-.72-.07,0,.03,0,.05,0,.08.24.03.48.05.72.08,0-.03,0-.06,0-.09Z"/>
      <path class="cls-1" d="M57,33.12c.16-.12.17-.4.05-.56-.02.2-.03.38-.05.56Z"/>
      <path class="cls-1" d="M6.63,15.83s-.04-.05-.06-.07c-.14.12-.29.24-.43.36.21-.04.4-.11.48-.3Z"/>
      <path class="cls-1" d="M56.93,32.62c-.06,0-.11-.01-.11-.01-.08.14-.14.26-.21.39.24-.01.27-.19.32-.38Z"/>
      <path class="cls-1" d="M49.52,18.49c.12-.12.24-.23.36-.35l-.05-.05c-.11.13-.21.26-.32.39,0,0,0,.01.01.02Z"/>
      <path class="cls-1" d="M40.36,45.26s0,0,.01,0h-.02s0,0,0,0Z"/>
      <path class="cls-1" d="M40.38,45.26c.2,0,.4,0,.61,0-.09-.16-.36-.15-.61,0Z"/>
      <path class="cls-1" d="M29.41,53.24c.21.23.21.23.45.22.07,0,.14.02.21.02.22.02.45.03.67.05,0-.03,0-.06,0-.09-.41-.23-.88-.01-1.34-.2Z"/>
      <path class="cls-1" d="M27.11,52.58c-.38,0-.72,0-1.06,0-.08,0-.16.04-.23.07.07,0,.14,0,.21,0,.13,0,.26.02.39.02.14,0,.28,0,.42.02.15.02.29.05.43.08v-.07c-.09,0-.19-.01-.31-.02.05-.04.09-.07.15-.12Z"/>
      <polygon class="cls-1" points="25.81 52.65 25.82 52.65 25.81 52.65 25.81 52.65"/>
      <path class="cls-1" d="M29.67,53.12s0,.04,0,.06c.3,0,.59,0,.89,0,.06,0,.13-.07.19-.11-.01-.02-.02-.04-.03-.06-.35.04-.7.08-1.04.11Z"/>
      <path class="cls-1" d="M25.18,52.57c.21.03.41.05.62.08-.15-.15-.41-.18-.62-.08Z"/>
      <polygon class="cls-1" points="25.81 52.65 25.81 52.65 25.8 52.65 25.81 52.65"/>
      <path class="cls-1" d="M9,50.59c.2.07.4.14.6.21,0-.02.01-.04.02-.06-.2-.06-.4-.13-.6-.19,0,.02,0,.03-.01.05Z"/>
    </g>
  </g>
</svg>