<?xml version="1.0" encoding="UTF-8"?>
<svg id="Layer_2" data-name="Layer 2" xmlns="http://www.w3.org/2000/svg" viewBox="0 0 86.43 77.27">
  <defs>
    <style>
      .cls-1 {
        fill: #000;
        stroke-width: 0px;
      }
    </style>
  </defs>
  <g id="illustrations">
    <g>
      <path class="cls-1" d="M32.74,52.01c-.05.09-.39.06-.13.29,0,0,0,.05-.01.07-.17.35-.32.7-.5,1.04-.09.18-.16.34-.12.56.03.15-.06.33-.11.5-.13.4-.27.79-.42,1.19-.11.3-.23.59-.34.89-.02.06.02.13.03.2,0,.16.03.34-.19.39-.03,0-.07.03-.08.05-.19.39-.39.77-.25,1.23.04.14,0,.31.03.44.05.16.17.3.25.46.02.04.04.08.04.12-.06.6.26,1.05.57,1.51.2.3.39.61.6.95.07-.18.13-.31.18-.45.02-.05.03-.1.03-.15-.08-.81-.19-1.63-.24-2.44-.02-.25.1-.51.16-.77.32-1.48,1.19-2.7,1.93-3.98.32-.54.72-.99,1.28-1.29.15-.08.31-.28.51-.06.01.01.15-.05.19-.11.27-.41.74-.48,1.14-.66.09-.04.18-.08.31-.13-.08-.05-.13-.07-.15-.11-.06-.11-.19-.26-.15-.33.06-.12.21-.27.34-.28.51-.07,1.03-.07,1.54-.13.66-.09,1.31-.21,1.97-.32.47-.08.47-.09.94.18-.04.01-.09.01-.11.04-.42.51-1.04.57-1.61.74-.58.17-1.16.35-1.74.51-.46.13-.94.22-1.39.37-.71.23-1.37.55-1.85,1.23.37-.2.7-.38,1.03-.57,0,.01,0,.02,0,.03-.13.15-.24.33-.39.45-.54.42-.92.96-1.32,1.5-.19.25-.39.48-.6.73-.06-.07-.1-.11-.14-.16-.03.04-.11.1-.1.13.17.44-.16.74-.31,1.09-.35.79-.53,1.61-.59,2.47-.03.47-.09.94-.13,1.42-.02.23-.07.48,0,.69.06.2.18.4.15.61-.07.41.19.59.47.79.56.38,1.1.77,1.65,1.15.07.05.17.09.26.1.44.03.89.04,1.34.06.09,0,.17,0,.26,0,.29,0,.57.04.86-.06.24-.08.51-.07.77-.06.87.04,1.72-.1,2.55-.31.22-.06.42-.2.63-.31,0,.01-.01.06-.03.14.48-.19.93-.38,1.41-.57-.04.25-.53.17-.34.6.21-.09.41-.18.61-.28.05-.02.1-.05.16-.07.43-.1.85-.13,1.27-.32.5-.22,1.07-.31,1.61-.45.16-.04.32-.1.48-.11,1.77-.16,3.44-.8,5.18-1.11.8-.15,1.61-.29,2.41-.45,1.05-.21,2.1-.43,3.15-.66.16-.04.32-.12.47-.2.05-.03.1-.13.08-.17-.08-.16.01-.21.13-.23.21-.04.43-.07.64-.09.2-.02.41-.02.62-.03.02.24-.09.26-.23.25-.21-.02-.41.01-.55.22,1.84-.11,3.65-.42,5.45-.78l-.02-.13c-1.36.17-2.71.34-4.07.51-.01-.04-.02-.08-.03-.12.19-.08.46-.29.57-.22.27.17.5-.09.73.07,0-.02.01-.05.02-.07-.05-.05-.1-.1-.14-.15.29.15.57.12.84-.02.02.04.04.1.05.1.06,0,.12-.01.18-.03,1.08-.33,2.21-.39,3.32-.59.16-.03.33.03.49.01.56-.06,1.11-.14,1.66-.22.06,0,.12,0,.19.05l-.84.17s0,.04-.01.07c.08,0,.17.04.25.03.42-.08.84-.19,1.26-.27.45-.09.91-.14,1.36-.23.14-.03.27-.15.41-.18.31-.07.63-.1.93-.16.08-.02.15-.11.22-.16-.08-.03-.15-.06-.23-.08-.08-.02-.17-.01-.25-.02,0-.02-.01-.05-.02-.07.29-.08.57-.17.86-.23.62-.13,1.26-.22,1.84-.51.34-.18.69-.35,1.04-.51.16-.07.34-.09.51-.16.34-.14.68-.3,1.07-.47,0,0,.07.02.12.06.11.1.14.19,0,.31-.32.26-.65.47-1.03.64-.4.17-.73.5-1.09.74-.14.09-.29.15-.44.22-.04.02-.09.06-.12.1-.09.13-.17.23-.36.26-.16.02-.28.26-.44.33-.48.19-.97.44-1.47.49-.84.08-1.67.21-2.49.36-.54.1-1.08.17-1.62.26-.02,0-.04,0-.05,0-.63.32-1.33.2-1.99.33-.57.11-1.14.23-1.7.38-.57.15-1.12.36-1.69.51-.3.08-.61.08-.92.11-.25.02-.51.02-.76.05-.14.02-.27.08-.41.13-.09.03-.19.09-.28.08-.76-.11-1.51.03-2.26.11-.65.07-1.31.13-1.96.21-.26.03-.52.09-.77.15-.43.09-.86.19-1.28.29-.53.13-1.05.26-1.57.4-.49.13-.98.26-1.46.42-.94.32-1.86.67-2.83.87-.41.08-.81.21-1.22.31-.05.01-.12-.01-.17,0-.19.03-.37.07-.56.1-.16.03-.32.09-.48.08-.68-.02-1.32.18-1.97.35-.47.13-.95.22-1.43.34-.36.09-.71.21-1.07.29-.53.11-1.06.2-1.59.29-.04,0-.1.02-.13,0-.27-.22-.55-.03-.83-.04-.48-.03-.96-.04-1.44-.04-.16,0-.32.07-.48.06-.43-.04-.85-.13-1.27-.15-.26-.01-.45-.1-.67-.24-.15-.11-.39-.14-.59-.14-.44-.02-.85-.14-1.16-.43-.33-.29-.59-.66-.89-.99-.19-.22-.41-.42-.59-.65-.54-.71-.79-1.54-.91-2.41-.08-.62-.13-1.25-.14-1.87-.01-1.18.14-2.34.58-3.45.11-.29.22-.58.27-.88.03-.17-.04-.36-.07-.58-.4.05-.78.1-1.16.13-.17,0-.34-.06-.51-.08-.06,0-.13,0-.19.01-.2.06-.4.15-.61.17-.14.01-.29-.07-.43-.11v.19c-.17-.06-.32-.1-.47-.17-.08-.04-.15-.1-.21-.17-.05-.05-.09-.14-.15-.16-.75-.27-1.21-.83-1.57-1.51-.04-.07-.09-.16-.07-.22.1-.27-.09-.35-.25-.49-.13-.11-.25-.27-.29-.43-.17-.64-.32-1.29-.46-1.95-.14-.63-.27-1.26-.38-1.89-.03-.2.02-.42.04-.63.02-.2-.08-.3-.27-.28-.21.02-.42.08-.63.09-.13,0-.3,0-.38-.09-.31-.29-.58-.61-.88-.92-.06-.06-.13-.12-.21-.15-.21-.09-.43-.17-.65-.25-.15-.05-.31-.08-.47-.12-.04-.01-.1,0-.12-.03-.22-.34-.72-.34-.9-.77-.08-.19-.41-.28-.64-.43.03-.03.08-.07.09-.08,0-.13.02-.24,0-.33-.03-.11-.1-.2-.17-.3-.13-.19-.28-.37-.4-.58-.14-.24-.25-.5-.37-.76-.13-.27-.26-.54-.39-.81-.04-.08-.09-.14-.17-.2,0,1.02.61,1.85.81,2.8-.24.13-.41.01-.62-.09-.27-.13-.3-.34-.32-.58-.02-.15-.09-.29-.13-.44-.1-.39-.2-.78-.3-1.17-.04-.16-.12-.3-.17-.45-.06-.18-.14-.37-.14-.56,0-.33-.11-.61-.29-.86-.06-.1-.17-.19-.28-.23-.09-.03-.22,0-.32.03-.16.04-.31-.1-.3-.28.01-.28,0-.55,0-.83-.03,0-.06,0-.09,0-.03.06-.07.12-.11.2-.06-.04-.12-.08-.17-.11v.06c-.08.02-.17.04-.25.05-.08,0-.17,0-.25-.03-.06-.01-.12-.05-.17-.08-.03-.02-.07-.06-.1-.06-.32.02-.52-.17-.69-.4-.03-.04-.09-.08-.14-.09-.62-.09-.99-.51-1.33-.99-.15-.21-.32-.42-.44-.65-.27-.5-.49-1.02-.76-1.51-.28-.5-.43-1.03-.6-1.57-.06-.18-.11-.38-.06-.61.04-.17-.13-.39-.17-.6-.06-.31-.11-.62-.14-.94-.02-.25-.02-.51-.02-.77,0-.05,0-.1.01-.15.04-.18.11-.35.13-.53.06-.42.13-.84.15-1.26.01-.28-.05-.55-.28-.77-.26-.25-.53-.51-.69-.81-.18-.34-.3-.73-.33-1.11-.08-.88-.1-1.77-.12-2.65,0-.41-.01-.84.09-1.23.14-.53.15-1.09.44-1.59.23-.41.36-.88.54-1.32.04-.1.11-.19.16-.29.03-.04.1-.09.09-.12-.1-.26.12-.39.24-.54.38-.48.78-.96,1.17-1.43.03-.04.08-.06.06-.11.02-.06.02-.12.06-.16.23-.28.47-.54.68-.83.07-.1.04-.28.06-.42-.02,0-.05,0-.07-.01.07-.08.13-.15.19-.21-.28-.39-.56-.79-.84-1.18h.25c-.09-.38-.52-.38-.64-.7.15.12.29.23.44.35.03-.03.06-.06.09-.1-.75-.77-1.5-1.54-2.27-2.32,0,0,.01-.1-.02-.12-.29-.2-.49-.53-.88-.62-.1-.02-.23-.17-.26-.28-.07-.3-.37-.53-.27-.87,0-.03-.03-.08-.06-.1-.54-.33-.67-.92-.91-1.44-.1-.22-.18-.44-.25-.67-.06-.24-.11-.48-.13-.73-.02-.24,0-.48,0-.72,0-.02-.02-.05-.01-.07.06-.24.1-.5.2-.73.14-.35.32-.68.49-1.03.01-.03.04-.06.04-.09.13-.52.56-.82.91-1.14.3-.28.74-.41,1.13-.59.25-.12.5-.24.76-.3.5-.11,1.02-.2,1.53-.27.15-.02.3.06.46.07.11,0,.22-.04.32-.04.09,0,.17.01.26.03.11.02.23.06.34.07.14.01.29-.11.4.07.28-.12.5.22.81.09.17-.07.36,0,.54.12.25.17.55.26.83.39.1.05.19.12.27.19.23.2.43.42.69.59.25.16.42.47.6.73.14.2.2.48.38.63.3.27.46.62.63.96.17.35.24.74.37,1.11.03.1.1.19.16.29.2.33.42.63.52,1.03.09.34.4.63.61.94.1.15.24.29.32.45.24.52.68.87,1.06,1.27.04.04.14.04.2.03.19-.04.38-.12.58-.15.07-.01.17.05.23.1.21.17.44.2.7.13.2-.05.38-.11.61,0,.16.09.4.03.61.02.77-.01,1.55-.04,2.32-.04.71,0,1.42.05,2.13.06.46,0,.92-.02,1.39-.01.2,0,.4.08.6.1.29.02.58.01.88.03.16,0,.32.05.48.07.23.02.46.03.69.04.14,0,.29,0,.43,0,.27,0,.55,0,.82,0,.57,0,1.14.02,1.71,0,.59-.02,1.18-.08,1.78-.11.36-.02.73-.02,1.1-.02.46,0,.93,0,1.39,0,.44,0,.87-.01,1.31.02.26.02.5.12.76.18.21.04.43.04.64.11.37.12.72.28,1.09.43-.11.16.01.4.16.38.43-.05.76.15,1.07.4.4.31.8.62,1.18.95.33.29.64.6.96.9.41.38.83.76,1.23,1.15.42.41.81.84,1.23,1.25.11.11.23.23.44.21.11-.01.25.12.36.21.44.34.91.67,1.32,1.06.3.3.63.57.88.94.24.37.65.62.96.96.23.25.41.54.62.81.21.26.41.53.63.77.29.31.61.59.89.9.26.3.47.64.73.94.29.34.63.63.93.97.54.62,1.21,1.08,1.78,1.67.38.39.76.76,1.16,1.13.17.16.39.28.57.41-.02.1-.21.17.06.23.22.04.4.33.6.5.06.05.13.1.19.15.25.66.9.96,1.29,1.48.03.06.06.13.11.18.13.11.32.16.28.39,0,.03.01.08.03.09.46.3.65.83,1.07,1.18.4.33.7.78,1.18,1.04.05.03.07.09.11.14.12.16.22.38.38.47.45.25.74.65,1.04,1.04.22.28.42.57.63.84.07.09.17.14.25.22.13.13.25.27.37.4.04.04.08.09.12.13.17.16.35.33.53.49.56.5,1.14.98,1.68,1.5.49.47.93.99,1.39,1.48.2.22.41.44.61.66.46.5.92,1,1.38,1.5.4.43.8.87,1.22,1.28.55.54,1.12,1.07,1.69,1.59.17.16.36.26.43.53.05.16.3.24.45.38.52.49,1.03,1,1.55,1.49.66.63,1.32,1.27,1.98,1.9.16.15.33.3.49.46.02.02.04.04.05.06.16.43.24.42.61.63.38.21.69.54,1.02.82.02.02,0,.1,0,.08.16.1.3.16.4.26.28.28.54.57.8.87.24.28.42.63.71.82.18.12.16.28.27.4.13.14.21.32.29.5.16.34.26.7.21,1.09-.06.49-.14.98-.11,1.46.02.26-.12.43-.17.64-.06.26-.12.53-.2.79-.02.07-.08.14-.14.19-.09.07-.19.11-.33.19.12.02.19.03.28.04-.32.49-.71.85-1.21,1.12-.4.22-.78.49-1.16.76-.47.33-.99.54-1.54.7-.24.07-.48.13-.73.16.2-.1.4-.2.6-.3,0-.03-.02-.05-.03-.08-.38.11-.77.23-1.15.34-.1.03-.21.04-.3.08-.12.06-.23.14-.34.21.02.02.05.04.05.05-.34.16-.7.32-1.05.48-.28.13-.49.34-.86.31-.27-.02-.57.16-.85.27-.31.12-.62.24-.92.37-.09.04-.18.11-.24.19-.15.24-.36.33-.64.32-.08,0-.16.04-.24.08-.56.25-1.11.49-1.66.75-.33.16-.64.36-.98.5-.36.15-.75.23-1.12.36-.44.15-.87.33-1.3.49-.75.28-1.51.56-2.27.82-.49.17-1,.29-1.5.45-.18.06-.35.15-.53.21-.86.29-1.71.57-2.57.86-.43.15-.86.3-1.28.46-.46.17-.91.37-1.37.52-.55.18-1.05.43-1.55.73-.34.21-.73.32-1.09.52.06,0,.12-.01.17-.03.28-.07.56-.13.84-.2.4-.11.81-.22,1.21-.33.96-.27,1.92-.52,2.87-.81.46-.14.89-.37,1.34-.52.26-.09.54-.1.81-.15.06-.01.14,0,.17-.04.27-.25.56-.11.85-.06-.7.28-1.43.39-2.16.58h.29s.01.05.02.07c-1.34.44-2.69.84-4.09,1.15-.09.23-.3.36-.63.34.07-.06.11-.1.16-.14-.01-.02-.03-.05-.03-.05-.07.04-.14.08-.2.12.04.07.09.14.16.26-.46.13-.94.26-1.41.4-.11.03-.2.11-.3.14-.2.07-.4.13-.6.2-.15.05-.29.12-.44.18.05.06.1.12.16.17-.11-.04-.19-.09-.31.03-.09.09-.31.07-.47.09.11-.24-.18-.1-.2-.22-.06.03-.13.06-.19.1.01.03.02.06.03.09.12,0,.24.01.36.02-.76.29-1.52.58-2.28.87-.51.2-1.02.4-1.53.59-.09.04-.2.03-.29.04-.69.55-1.59.59-2.34.98-.01-.02-.03-.04-.04-.05.05-.09.1-.18.16-.3-.3.08-.56.15-.88.24.13.09.18.13.23.17-.02.02-.03.05-.04.05-.44.05-.81.28-1.2.47-.44.22-.88.45-1.39.49-.15.01-.3.12-.45.16-.55.16-1.1.3-1.65.46-.12.03-.23.17-.34.16-.38-.04-.6.29-.97.34-.41.05-.78.38-1.17.59-.06.03-.12.05-.19.06-.26.06-.53.1-.78.18-.17.06-.3.12-.32-.22-.58.31-1.11.6-1.64.88-.08.05-.17.09-.26.13-.6.25-1.2.51-1.8.74-.26.1-.54.16-.81.23-.37.09-.72.22-1.11.22-.13,0-.26.1-.39.1-.34.02-.67.01-1.01.01-.24,0-.47.02-.71,0-.97-.04-1.93-.09-2.9-.16-.13,0-.24-.2-.36-.31-.05-.04-.08-.12-.13-.14-.29-.12-.36-.3-.36-.62,0-.17-.14-.35-.24-.51-.11-.19-.27-.35-.37-.54-.21-.38-.43-.74-.5-1.19-.06-.37-.2-.75-.43-1.04-.15-.19-.3-.36-.37-.6-.09-.31-.17-.62-.24-.93-.09-.39-.15-.78-.26-1.17-.06-.22-.19-.41-.28-.62-.05-.12-.08-.25-.13-.37-.04-.09-.1-.17-.15-.25-.27-.45-.54-.9-.8-1.36-.28-.49-.53-1-.83-1.49-.26-.44-.57-.85-.85-1.27-.09-.14-.15-.31-.26-.45-.12-.17-.28-.32-.41-.47-.02-.02-.04-.04-.04-.07-.01-.07-.01-.13-.02-.2-.07.03-.15.05-.24.09-.04-.43-.3-.73-.59-1.04-.21-.22-.34-.52-.53-.77-.14-.19-.32-.35-.48-.52-.04-.04-.12-.08-.12-.13-.02-.48-.42-.72-.64-1.1.06-.01.12-.02.19-.03-.31-.33-.61-.66-.92-.98.05-.07.09-.13.14-.2-.11-.05-.2-.08-.33-.14.1-.09.18-.16.25-.23,0-.01,0-.02-.01-.04-.11.03-.21.06-.35.1.04-.17.03-.29-.1-.21-.17-.21-.32-.39-.47-.57-.08-.11-.17-.22-.22-.34-.18-.44-.5-.79-.74-1.19-.18-.3-.33-.6-.51-.9-.04-.07-.12-.1-.16-.14-.04-.14-.04-.32-.12-.39-.3-.24-.38-.6-.58-.89-.15-.22-.24-.49-.37-.73-.05-.08-.16-.12-.24-.18-.12-.08-.21-.14-.08-.32.07-.1.05-.36-.03-.43-.28-.25-.36-.61-.58-.9-.07-.09-.14-.18-.25-.25v.22c-.2-.13-.2-.16.07-.42-.19-.33-.38-.66-.57-1-.02,0,.03-.01.05-.02-.09-.12-.19-.24-.28-.36.06-.04.11-.08.16-.12-.02-.08-.05-.18-.07-.27.02,0,.03-.02.05-.03-.07-.06-.14-.12-.19-.17,0,.12-.02.25-.03.37-.04,0-.07.01-.11.02-.04-.12-.08-.24-.11-.36-.1-.12-.33-.17-.23-.44,0-.03-.09-.09-.14-.14-.04-.05-.12-.11-.11-.15.04-.19-.09-.24-.2-.35-.13-.13-.2-.33-.27-.51-.06-.08-.27,0-.22-.22-.15,0-.08-.32-.31-.22-.01,0-.06-.07-.09-.11.04-.02.08-.05.16-.1-.33-.43-.66-.85-.99-1.27.05.02.11.04.18.07l.06-.05c-.15-.21-.31-.42-.46-.63-.13-.19-.25-.39-.38-.59-.02-.03-.06-.04-.08-.07-.05-.07-.1-.15-.14-.23-.03-.06-.03-.14-.07-.18-.33-.3-.44-.71-.59-1.11-.09-.23-.3-.43-.45-.63-.03-.05-.11-.09-.11-.13.02-.34-.22-.57-.42-.78-.58-.61-1.03-1.3-1.41-2.04-.24-.46-.41-.96-.81-1.32-.03-.03-.03-.11-.05-.21.09.06.15.1.21.15.01-.03.03-.06.03-.07-.05-.06-.1-.14-.17-.18-.44-.24-.46-.66-.46-1.07,0-.12.05-.22-.08-.26-.07-.02-.17.02-.26.04-.02,0-.05,0,0,0-.1-.21-.21-.37-.26-.56-.15-.54-.63-.86-.86-1.34-.02-.05-.05-.09-.06-.14-.15-.67-.54-1.2-.93-1.74-.23-.31-.37-.68-.56-1.03-.03-.06-.07-.12-.11-.17-.23-.3-.56-.57-.66-.91-.11-.39-.52-.44-.64-.78-.09-.27-.22-.53-.37-.77-.08-.14-.25-.22-.36-.34-.06-.07-.09-.16-.14-.24-.11-.19-.15-.41-.34-.59-.18-.17-.23-.48-.34-.73-.11-.24-.27-.41-.53-.49-.05-.02-.1-.14-.1-.21.04-.59.06-1.19.16-1.78.11-.62.28-1.22.45-1.82.16-.53.58-.89,1.02-1.15.67-.4,1.29-.87,1.95-1.28.88-.55,1.79-1.02,2.76-1.38.41-.15.83-.29,1.23-.44.11-.04.3-.08.14-.28-.01-.02.08-.16.12-.16.26,0,.52.02.77.07.16.04.16.27,0,.36-.35.18-.69.43-1.06.48-.46.07-.88.24-1.32.36-.2.05-.39.17-.58.27-.4.2-.81.39-1.21.61-.3.17-.59.38-.87.58-.38.27-.78.53-1.13.84-.26.23-.47.52-.69.79-.24.3-.48.61-.7.93-.14.21-.21.43-.07.71.07.14.1.37-.01.6-.13.29-.13.66-.11,1,.03.52.35.93.62,1.36.55.9,1.12,1.79,1.69,2.69.18.28.38.55.57.83.3.45.61.88.86,1.37.28.55.66,1.05.97,1.58.34.57.65,1.16.98,1.74.16.27.36.52.53.79.07.1.1.23.14.35.01.03.01.07.03.1.16.29.38.56.46.87.12.45.42.79.58,1.22.17.44.45.85.69,1.26.24.41.46.84.76,1.19.54.63.91,1.36,1.33,2.07.35.58.64,1.19.96,1.78.12.23.27.44.4.66.13.23.25.46.37.7.02.03.02.07.05.09.39.31.53.79.79,1.18.31.48.62.97.91,1.46.41.69.8,1.4,1.2,2.1.25.44.5.88.74,1.32.29.53.57,1.07.88,1.6.4.68.81,1.35,1.24,2,.55.85,1.11,1.71,1.71,2.53.45.62.85,1.27,1.21,1.95.14.26.3.52.45.78,0,0,.01.02.02.02.35.05.25.37.37.57.17.29.41.54.61.82.26.34.52.68.75,1.03.15.23.26.49.4.72.05.09.14.15.19.23.1.15.17.32.27.48.14.24.29.47.44.7.56.84,1.12,1.69,1.55,2.61.2.42.44.81.65,1.22.09.17.15.36.21.54.26.81.58,1.58,1.06,2.28.21.32.37.67.57,1,.26.41.63.67,1.05.9.4.22.84.21,1.23.4.08.04.16.07.23.11.78.47,1.63.72,2.53.8.19.02.39,0,.58,0v-.4s-.05-.02-.17-.07c.28-.04.48-.08.74-.12-.15.19-.27.34-.39.5,0,.02,0,.04.01.07.17-.03.37-.02.52-.1.15-.09.25-.26.39-.42-.01-.04-.03-.1-.06-.2-.05.04-.09.08-.17.15.09-.22,1.14-.45,1.54-.34-.26.06-.51.12-.77.18,0,.01,0,.03,0,.04.28-.04.56-.08.86-.12v.44c.66-.2,1.3-.4,1.94-.56.26-.06.55-.01.86-.01.09-.24.3-.37.64-.43.39-.06.76-.27,1.14-.41.16-.06.33-.09.49-.14.16-.05.31-.11.49-.17,0,0,.04.06.05.05.22-.08.43-.17.65-.26.03-.01.06-.03.1-.03.39-.1.77-.21,1.16-.28.35-.07.71-.07,1.06-.13.18-.03.35-.11.51-.19.1-.05.19-.13.31-.17-.02.03-.04.06-.06.1,0,.02.01.04.02.06.44-.18.88-.35,1.32-.53.2-.08.38-.19.58-.28.56-.26,1.12-.51,1.68-.78.28-.13.55-.3.84-.43.45-.19.92-.35,1.37-.54.84-.36,1.67-.72,2.5-1.1.74-.34,1.47-.72,2.21-1.05.4-.18.84-.28,1.25-.44.37-.15.72-.35,1.08-.52.43-.2.85-.4,1.28-.6.01.02.03.04.04.06-.09.04-.17.09-.26.13.02.02.04.04.05.06.32-.17.64-.35.96-.52.02.03.04.07.06.1-.13.07-.26.15-.38.22v.05c.12-.02.23-.02.32-.06.59-.24,1.18-.5,1.77-.74.09-.04.18-.05.27-.09.58-.22,1.16-.45,1.75-.66.41-.14.83-.24,1.24-.37.71-.23,1.42-.48,2.12-.73.65-.23,1.31-.44,1.96-.69.56-.21,1.11-.46,1.66-.69.22-.09.43-.28.65-.28.34,0,.49-.29.77-.37.29-.08.55-.22.84-.32.37-.14.75-.26,1.13-.39.07-.03.14-.06.21-.1.43-.21.86-.41,1.28-.62.33-.16.66-.3.98-.47.44-.22.84-.54,1.3-.67.63-.17,1.07-.63,1.65-.87.48-.2.97-.38,1.45-.58.2-.09.39-.2.59-.31.05-.03.11-.09.15-.09.27.05.46-.15.58-.3.2-.23.46-.28.71-.39.05-.02.11-.03.13-.07.22-.41.43-.83.64-1.25,0-.02-.02-.05-.03-.07-.38.43-.76.84-1.14,1.26-.02,0-.04-.02-.06-.03.07-.13.15-.26.21-.4.17-.41.38-.81.49-1.24.06-.24,0-.52-.05-.78-.06-.3-.14-.61-.26-.89-.11-.25-.29-.46-.44-.69-.04-.06-.08-.12-.14-.2.41.02.8.44.78.82.11-.02.21-.04.32-.06-.06.15-.12.31-.17.46.02,0,.03.01.05.02.09-.14.19-.28.3-.44-.07-.11-.14-.23-.23-.37.06-.02.11-.04.17-.06-.09-.11-.16-.2-.23-.3-.07-.09-.14-.17-.17-.29.16.13.32.26.48.39.11.09.22.18.32.26-.05.06-.11.12-.16.17,0,.03.02.05.03.08.15-.03.29-.05.48-.09-.07-.1-.14-.15-.14-.21,0-.26-.16-.26-.35-.23-.06.01-.12,0-.18,0,0-.06.02-.13,0-.17-.32-.47-.64-.95-.98-1.41-.08-.1-.22-.16-.33-.23.2-.37.11-.59-.3-.75-.09-.03-.16-.13-.22-.22-.18-.26-.34-.54-.54-.78-.06-.07-.25-.04-.38-.06-.06-.01-.15,0-.19-.04-.14-.15-.25-.32-.38-.49-.02.04-.05.07-.07.11-.11-.13-.22-.27-.38-.44h.3c-.36-.24-.59-.67-1.08-.7-.06,0-.13-.05-.16-.1-.16-.22-.29-.46-.47-.66-.29-.32-.6-.63-.91-.93-.25-.25-.5-.49-.74-.73-.02-.02.02-.09.03-.14-.31-.07-.45-.24-.37-.39-.24-.17-.47-.32-.69-.5-.15-.12-.3-.26-.42-.41-.04-.05-.01-.15-.02-.27.02.03.01,0,0,0-.53-.12-.7-.66-1.09-.94-.11-.08-.22-.17-.33-.24-.15-.1-.25-.21-.12-.41-.28-.13-.56-.24-.81-.38-.13-.07-.22-.21-.34-.31-.17-.15-.36-.28-.52-.43-.28-.28-.55-.58-.83-.87-.2-.21-.5-.39-.6-.65-.14-.37-.42-.58-.67-.83-.05-.06-.12-.12-.2-.14-.15-.05-.25-.09-.26-.28,0-.07-.13-.12-.18-.2-.11-.17-.39-.14-.4-.45-.01-.18-.28-.38-.47-.5-.48-.28-.79-.72-1.15-1.11-.14-.15-.32-.28-.5-.43.03-.05.06-.1.07-.1-.18-.16-.34-.3-.49-.45-.12-.13-.37-.13-.41-.42-.07-.02-.19-.04-.35-.07.06-.06.1-.1.17-.18-.39-.21-.84-.32-1.1-.75.02-.01.07-.04.13-.07-.2-.37-.44-.67-.83-.85.04-.16-.06-.19-.2-.28-.32-.21-.59-.49-.88-.74-.1-.08-.2-.16-.28-.26-.05-.06-.07-.15-.11-.22-.07-.11-.13-.23-.21-.33-.19-.22-.4-.41-.59-.63-.23-.25-.43-.52-.66-.78-.08-.1-.19-.17-.28-.26-.04-.04-.07-.09-.14-.17-.06-.04-.17-.09-.26-.16-.17-.13-.33-.27-.48-.42-.05-.05-.06-.15-.08-.23-.01-.03,0-.07-.03-.09-.16-.13-.33-.25-.48-.39-.25-.24-.49-.5-.74-.75-.27-.26-.52-.54-.81-.78-.74-.6-1.43-1.26-2.01-2.01-.24-.3-.52-.58-.77-.87-.25-.3-.48-.6-.72-.9-.05-.06-.13-.11-.19-.17-.21-.23-.42-.47-.63-.7-.08-.09-.18-.16-.27-.25-.06-.07-.09-.15-.15-.22-.04-.05-.09-.1-.15-.12-.11-.05-.23-.08-.36-.12.03-.06.06-.11.09-.16-.12-.08-.36-.07-.29-.33,0-.03-.07-.09-.11-.13-.14-.16-.27-.31-.41-.47-.02-.02-.05-.06-.08-.06-.32-.01-.41-.28-.57-.48-.12-.15-.27-.3-.41-.43-.25-.23-.59-.41-.76-.68-.19-.31-.53-.42-.72-.73-.14-.23-.41-.38-.63-.55-.15-.11-.33-.16-.44-.38-.14-.28-.41-.49-.64-.74-.07.01-.16.03-.25.05l-.02-.05s.09-.06.14-.09c-.01-.02-.02-.04-.02-.04-.23.08-.28-.14-.4-.25-.27-.24-.56-.48-.83-.72-.44-.4-.89-.79-1.32-1.21-.27-.27-.49-.59-.76-.85-.17-.17-.38-.29-.59-.44.07-.22.03-.24-.54-.28.08-.19-.07-.16-.17-.19-.11-.04-.21-.09-.3-.18-.49-.19-.99-.38-1.45-.55.04-.01.13-.04.18-.05-.23-.06-.5-.14-.77-.21-.05-.01-.11.03-.17.03-.13,0-.31.05-.37-.02-.28-.31-.65-.17-.98-.22-.28-.04-.54.06-.81.11-.33.06-.69-.06-1.04-.09-.12-.01-.25,0-.37,0-.28,0-.56.03-.84.04-.07,0-.14,0-.2,0-.43.02-.87,0-1.29.06-.32.04-.63.05-.95.03-.04,0-.08,0-.12,0-.08-.02-.15-.04-.23-.06v.3c-.13-.06-.24-.12-.33-.16-.02.11-.05.21-.07.31-.15-.05-.35-.06-.44-.16-.17-.2-.33-.33-.6-.27-.32.07-.62.04-.94-.03-.25-.05-.53.01-.79-.03-.21-.03-.43.02-.63-.16-.09-.08-.34,0-.52.02,0,.08.02.17.03.27-.02,0-.07,0-.08,0-.23-.3-.59-.15-.86-.24-.3-.11-.57.03-.85-.05-.07-.02-.16.01-.25.05-.32-.17-.64-.06-.96.02-.06.02-.14-.03-.21-.05-.12-.02-.25-.04-.37-.05-.02.02-.04.05-.05.07.05.02.1.04.16.06-.02.02-.03.05-.05.07-.14-.07-.28-.15-.42-.22-.09.27-.57.37-.76.18-.04-.04-.15-.06-.17-.04-.21.23-.44.14-.71.03.03.08.05.13.06.17-.22.03-.44.06-.66.08-.26.02-.51.14-.77,0-.02-.01-.08-.01-.1,0-.24.24-.53.11-.8.14-.11.01-.22.07-.33.1-.11.04-.24.13-.32.09-.24-.09-.43.04-.64.06-.33.03-.67.02-1,.04-.09,0-.18,0-.27.02-.68.19-1.38.35-2.04.59-1,.36-1.86.96-2.67,1.63-.01.01-.02.03-.04.04-.85.44-1.3,1.29-1.95,1.93-.14.14-.24.28-.42.39-.16.1-.22.35-.35.52-.3.4-.63.78-.92,1.18-.23.32-.45.65-.64.99-.27.5-.45,1.04-.57,1.6-.06.31-.27.59-.36.9-.09.31-.12.63-.17.95-.05.26-.1.52-.13.78-.04.3-.14.63-.05.89.12.33-.1.7.22,1,.12.11.07.38.14.57.14.42.3.85.47,1.26.03.07.15.1.22.15.03-.07.08-.14.09-.22.07-.4.07-.82.2-1.19.17-.48.24-.98.52-1.44.29-.48.46-1.03.69-1.54.1-.23.23-.44.34-.66.11-.23.25-.46.32-.7.07-.25.17-.41.49-.36-.28-.16-.15-.29-.04-.47.3-.46.57-.95.87-1.41.26-.41.56-.79.81-1.2.22-.37.55-.54.91-.74.39-.21.71-.54,1.07-.81.15-.11.3-.23.47-.29.39-.15.79-.27,1.19-.42.2-.07.39-.16.59-.23.27-.1.55-.19.82-.29.04-.01.09-.03.11-.06.25-.37.66-.37,1.03-.44.49-.09.98-.17,1.46-.28.11-.03.2-.15.29-.23.15-.01.3-.01.45-.04.47-.08.94-.17,1.41-.27.11-.02.2-.14.31-.18.39-.14.78-.25,1.17-.39.24-.08.47-.22.71-.27.47-.1.87-.34,1.29-.56.08-.04.12-.16.2-.2.18-.08.37-.15.55-.21.2-.07.4-.12.6-.19.08-.03.16-.08.24-.08.67-.04,1.34-.07,2.01-.09.48-.01.96,0,1.43.03.46.04.93.08,1.38.2.49.13.96.34,1.43.54.29.13.56.31.84.46.08.04.18.07.27.07.26,0,.45.11.65.26.3.21.63.37.96.54.24.12.58.15.72.33.23.3.63.29.83.59.04.05.13.07.2.09.15.05.3.09.45.13-.06.14-.09.21-.14.34.12-.03.19-.07.24-.06.14.01.3,0,.4.08.29.22.54.5.93.58.11.02.2.13.28.21.25.24.5.49.73.74.19.2.35.41.54.61.09.1.21.18.31.26.01.05.01.14.06.19.2.21.41.41.62.61.04.04.1.1.09.15-.06.28.15.44.29.62.62.81,1.23,1.63,1.86,2.42.19.24.44.42.65.63.18.18.34.4.54.57.22.19.47.33.71.5.05.03.12.03.16.07.44.52,1.09.7,1.65,1.04.4.24.8.47,1.13.82.16.18.34.43.67.34.07-.02.18.08.29.14-.06.05-.11.08-.17.13.24.13.47.26.7.39.36.19.73.36.98.72.11.16.3.26.46.38.22.16.44.31.69.49,0,0-.04.06-.06.1.16.12.3.27.47.34.28.12.36.45.7.54.26.07.45.42.68.64.06.06.14.14.2.13.24-.04.39.07.53.23.18.2.39.33.66.34.05,0,.1.04.14.06.44.21.89.43,1.33.64.57.26,1.07.63,1.52,1.07.55.54,1.11,1.07,1.69,1.57.55.48,1,1.03,1.35,1.67.37.68.78,1.35,1.17,2.02.14.24.4.51.37.73-.03.24.17.31.17.48,0,.05.13.13.2.14.33.02.67.01,1,.04.09,0,.16.13.25.16.41.15.82.29,1.24.44.06.02.12.05.17.08.12.07.23.14.35.22.52.33,1.05.65,1.56,1,.33.23.64.48.94.74.24.21.44.47.68.68.29.26.57.61.92.71.45.13.58.61,1.04.72.26.06.46.39.67.61.13.14.23.32.34.48.01.02.05.05.04.06-.15.25.13.33.19.5.12.29.24.58.35.88.09.25.18.5.26.75.03.08.05.17.07.25.05.14.11.27.15.41.03.1.03.21.05.32,0,.04.03.07.04.11.04.09.08.18.14.31-.1-.02-.15-.04-.21-.05,0,.03,0,.05,0,.06.19.17.34.35.2.62-.01.02-.01.06,0,.08.23.41,0,.77-.1,1.15-.02.06,0,.16.04.19.14.12.11.24.08.39-.07.3-.1.62-.21.91-.1.28-.1.56-.08.85.03.55-.05.63-.65.7.14.07.23.12.27.13-.08.35-.14.72-.25,1.08-.11.36-.26.72-.4,1.07-.15.36-.46.66-.37,1.11-.19.06-.4.1-.2.37.04.05-.04.29-.11.31-.3.09-.62.13-.98.19.07-.31.11-.55.19-.78.2-.57.42-1.12.62-1.69.05-.14.04-.31.07-.51.14-.26.34-.56.39-.93.08-.53.19-1.06.29-1.6.05-.26.07-.53.13-.79.01-.06.12-.1.18-.15.03.01.07.02.1.03-.05-.22-.07-.45-.16-.65-.06-.15-.05-.23.08-.32.27-.18.31-.38.11-.53.19-.06.26-.16.1-.33-.15-.15-.2-.33-.23-.55-.06-.4-.2-.79-.3-1.19-.06-.25-.09-.51-.12-.76,0-.04.01-.09,0-.13-.2-.37-.43-.73-.6-1.11-.24-.56-.77-.8-1.18-1.18-.42-.39-.88-.72-1.31-1.09-.06-.05-.06-.19-.12-.25-.26-.24-.46-.57-.87-.59-.06,0-.14-.1-.17-.17-.21-.52-.69-.76-1.12-1.03-.29-.19-.65-.27-.98-.42-.12-.05-.23-.12-.32-.21-.28-.26-.6-.35-.97-.33-.22,0-.45-.05-.68-.07-.51-.04-1.01-.06-1.52-.1-.13,0-.25-.05-.38-.07-.13-.01-.26,0-.38,0-.05,0-.1,0-.15,0-.39-.09-.77-.16-1.18-.09-.34.06-.7,0-1.05,0-.39,0-.79.04-1.18.04-.36,0-.72-.09-1.08-.05-.56.06-1.11,0-1.65-.05-.42-.04-.84-.15-1.26-.2-.28-.04-.57-.07-.86-.05-.78.07-1.56.17-2.35.26,0,0-.02,0-.03,0-.31.13-.61.27-.92.39-.35.13-.7.24-1.05.35-.05.02-.11,0-.15.03-.34.28-.77.19-1.15.29-.03,0-.07.03-.1.02-.47-.2-.95-.02-1.43-.03-.21,0-.41.01-.58-.16-.03-.03-.14-.05-.16-.03-.24.31-.58.12-.87.17-.22.04-.46,0-.69.03-.42.06-.84.14-1.27.21-.44.07-.88.12-1.31.18-.05,0-.13-.01-.15.01-.22.26-.55.19-.83.26-.22.06-.47.03-.69.08-.17.04-.32.16-.49.21-.15.05-.32.07-.48.08-.1,0-.21-.05-.3-.02-.22.08-.42.21-.64.29-.09.03-.2,0-.31,0,0,.02,0,.07,0,.03-.31.09-.59.16-.87.24,0,.03.01.06.02.09h.18v.06c-.11,0-.22.01-.34.02.03.27-.12.29-.34.19.08.25.02.35-.35.56-.11-.1-.16-.17-.33,0-.19.2-.51.28-.77.41-.25.13-.49.28-.75.39-.25.1-.43.25-.58.47-.11.16-.17.07-.2,0-.07.1-.15.21-.22.33-.1.18-.23.36-.27.56-.09.41-.38.69-.59,1.02-.24.38-.5.73-.71,1.13-.11.21-.15.47-.18.72,0,.06.1.14.16.2-.01.03-.02.06-.03.06-.43.1-.49.47-.6.81-.03.09-.07.19-.12.27-.2.31-.47.59-.59.93-.12.35-.23.71-.39,1.04-.02.04.03.11.04.16.03.11.05.21.08.32-.02,0-.04.02-.06.03-.05-.04-.1-.09-.18-.15-.28.62-.85,1.09-.74,1.9.17-.17.32-.32.45-.45.06.04.13.08.2.12h0ZM23.67,32.92c-.06.06-.11.12-.15.16.15.1.25.18.36.26,0,.01-.02.02-.03.04-.05-.02-.11-.03-.16-.05v.31s-.03,0-.04,0c-.05-.11-.09-.22-.14-.33h-.08c-.01.1-.02.2-.03.3l.12-.03s.02.04.04.06c-.08.05-.21.09-.23.17-.07.2-.09.42-.13.64-.01.08.02.19-.02.25-.2.33-.15.79-.5,1.07.01.04.04.11.05.15-.07.08-.15.13-.17.2-.12.43-.23.86-.32,1.3-.08.4-.11.81-.17,1.22-.05.38-.1.75-.16,1.13-.03.19-.1.38-.1.57,0,.35.04.7.07,1.04,0,.08,0,.17.01.25.07.35-.11.76.26.97.02.17.01.31.05.43.06.24.15.46.23.7.06.18.07.37.16.53.18.32.79.64,1.05.52.07-.38.15-.74.2-1.1.02-.19-.03-.39-.05-.58-.01-.11-.06-.24-.01-.32.13-.22.1-.49.01-.63-.16-.25-.09-.46-.05-.7.03-.15-.04-.32-.02-.47.03-.21.12-.41.16-.62.04-.21.12-.4,0-.64-.09-.18.02-.45,0-.68-.04-.71-.12-1.41.05-2.12.16-.69.36-1.35.8-1.91.4-.52.82-1.03,1.24-1.54.33-.4.65-.79.99-1.18.17-.2.37-.37.55-.56.02-.02.04-.05.06-.08.1-.18.16-.41.31-.52.85-.65,1.7-1.31,2.6-1.89.75-.48,1.57-.85,2.36-1.26.32-.17.64-.34.98-.46.66-.23,1.34-.43,2.01-.65.71-.24,1.42-.5,2.13-.75.31-.11.62-.21.93-.3.39-.11.79-.22,1.19-.3.43-.09.88-.15,1.32-.2.77-.09,1.54-.24,2.33-.15.39.05.79.09,1.18.05.43-.04.85-.07,1.28.04.22.06.48,0,.71.02.46.06.92.14,1.38.22.12.02.23.06.35.09.17.05.33.11.5.15.35.07.74.07,1.06.21.27.12.53.21.81.21.26,0,.5.05.72.22.15.11.34.17.51.26.25.14.52.26.74.44.26.2.46.47.7.7.23.22.9.32,1.11.21.1-.05.23-.07.35-.07.29-.01.57,0,.92,0-.37-.29-.67-.53-.99-.79.12-.06.21-.11.36-.19-.38-.05-.75,0-.84-.43,0-.02-.09-.03-.14-.04-.06-.01-.13,0-.17-.04-.3-.26-.65-.45-.97-.69-.53-.39-1.1-.73-1.67-1.07-.25-.15-.54-.21-.79-.36-.3-.17-.56-.39-.85-.57-.08-.05-.17-.07-.26-.11-.04.08-.08.14-.09.17-.31-.25-.61-.5-.92-.73-.32-.23-.65-.45-.98-.66-.32-.2-.65-.38-.97-.57-.01.02-.02.04-.03.06.23.3.66.42.76.85,0,.02.07.02.11.04.25.13.36.5.22.74-.08.15-.33.18-.57.04-.33-.2-.68-.31-1.06-.34-.07,0-.18-.06-.2-.12-.08-.19-.13-.38-.18-.58-.04-.16-.1-.27-.28-.28.05.15.09.27.15.44-.82-.16-1.61-.14-2.3-.56h.3c-.18-.17-.32-.3-.42-.4.11,0,.26.02.41.02.36.01.72,0,1.07.04.5.07.98.35,1.5.07-.19-.08-.39-.16-.59-.24-.28-.12-.56-.25-.84-.37-.33-.14-.72-.21-.99-.43-.33-.27-.71-.27-1.08-.38-.31-.09-.63-.15-.98-.23,0-.01-.02.03-.01.02-.17-.02-.29-.07-.4-.05-.24.05-.47.16-.69-.07-.04-.04-.16-.02-.24-.02-.34.03-.67.07-1.01.09-.1,0-.2,0-.3-.03-.26-.05-.51-.15-.76-.15-.62-.02-1.22.07-1.79.35-.16.08-.36.16-.52.14-.42-.06-.79.15-1.18.22-.48.09-.94.27-1.41.41-.77.24-1.54.47-2.31.73-.2.07-.37.22-.57.28-.37.12-.76.19-1.13.3-.36.11-.71.23-1.06.36-.18.07-.36.17-.54.25-.41.18-.83.35-1.24.53-.44.19-.88.37-1.32.57-.27.13-.56.2-.8.44-.17.17-.39.45-.72.22-.02-.02-.09,0-.12.03-.13.12-.26.26-.39.39.09.19-.08.31-.21.43-.25.22-.5.44-.76.65-.15.13-.3.26-.47.37-.38.25-.77.49-1.14.75-.11.08-.18.22-.28.33-.14.15-.28.29-.43.44.02.03.05.05.07.08.27-.14.54-.28.81-.42,0,.05.02.16-.02.19-.17.13-.35.24-.54.35.05.03.08.06.12.09-.19.04-.34.08-.55.13.09-.11.12-.16.17-.23-.31.1-.32.16-.15.55.08-.02.16-.04.23-.06,0,.02.02.04.03.06-.16.18-.32.36-.47.53.01.32-.31.37-.47.58l.35-.08s.03.03.05.04c-.12.12-.24.25-.37.39.17.21-.26.43-.06.68-.28.19-.14.52-.27.75-.08.15-.27.3-.26.45,0,.19-.05.26-.27.27.18.15.29.29.06.43-.03.02-.02.1-.01.15.04.16.12.26-.02.47-.15.23-.22.54-.38.79-.38.57-.46,1.22-.43,1.88.01.29-.09.59.04.87.02.04-.03.1-.03.15,0,.08,0,.15.02.23.05.2.14.39.17.59.08.53.16,1.06.44,1.52.08.12.17.23.25.35.06.07.09.18.13.28.05.12.1.24.16.35.22.42.41.86.67,1.26.27.42.58.82.92,1.17.14.14.41.15.63.21.02,0,.09-.13.1-.2.02-.14,0-.29,0-.43,0-.33.03-.67.01-1-.01-.24-.11-.47-.12-.71-.01-.32.03-.64.03-.96,0-.27-.06-.54,0-.8.13-.66.29-1.31.47-1.95.17-.58.34-1.16.58-1.73.23-.54.34-1.14.56-1.69.17-.43.44-.83.66-1.24.1-.19.35-.29.31-.56,0-.05.05-.1.08-.16.17.21.17.21.18.41,0,.04.04.07.07.1.11.12.22.24.33.36-.01.02-.03.03-.04.05-.09-.06-.18-.12-.29-.19-.01.05-.02.1-.03.15-.02-.04-.04-.07-.05-.08-.07.12-.12.23-.18.33h0ZM65.49,37.13c-.03-.06-.04-.11-.06-.11-.17-.02-.24-.1-.22-.27,0-.04-.03-.1-.05-.14-.1-.22-.23-.42-.2-.68.01-.11-.06-.23-.11-.33-.11-.22-.24-.42-.36-.63-.04-.07-.07-.13-.11-.2-.11-.17-.23-.34-.32-.52-.12-.26-.17-.56-.32-.79-.27-.4-.58-.78-.9-1.13-.41-.45-.88-.85-1.44-1.11-.13-.06-.26-.14-.35-.24-.28-.32-.63-.46-1.04-.52-.06,0-.13-.04-.18-.08-.15-.11-.29-.25-.44-.35-.3-.21-.58-.44-.97-.54-.29-.08-.68-.03-.88-.38-.02-.04-.11-.03-.17-.05-.32-.1-.64-.21-.96-.31-.09-.03-.19-.01-.28-.02-.12,0-.26.04-.34-.01-.36-.2-.76-.12-1.1-.06-.31.05-.59.06-.89.02-.21-.03-.42-.14-.63-.17-.23-.03-.48-.03-.71-.02-.54.01-1.07.08-1.61.05-.53-.03-1.04,0-1.55.09-.42.07-.83.19-1.25.29-.14.03-.3.11-.42.07-.33-.14-.65,0-.94.04-.37.04-.76.13-1.14.2-.37.07-.74.18-1.12.09-.06-.02-.14.05-.22.07-.22.05-.44.1-.67.14-.18.03-.37.03-.54.08-.35.1-.7.25-1.05.34-.43.11-.88.15-1.3.28-.66.2-1.32.45-1.97.69-.21.07-.46.12-.6.26-.16.16-.33.18-.53.21-.08.01-.17.04-.25.07-.14.06-.26.17-.4.21-.33.09-.67.16-1,.23-.14.03-.31,0-.43.07-.27.13-.55.24-.85.32-.19.05-.35.21-.55.28-.44.15-.91.24-1.34.41-.55.22-1.11.46-1.62.77-.54.33-1,.78-1.52,1.13-.47.32-.87.69-1.25,1.1-.13.14-.23.31-.41.43-.21.14-.34.41-.5.63-.02.02-.01.07-.02.1-.03.09-.03.2-.09.27-.31.41-.56.84-.78,1.3-.26.56-.58,1.1-.88,1.65-.02.03-.06.05-.09.07.06.02.11.04.16.05-.12.21-.24.4-.35.6-.1.18-.14.43-.28.56-.34.32-.25.67-.19,1.05.03.19.04.4-.01.58-.2.63-.19,1.27-.2,1.91,0,.12.11.25.07.34-.12.34-.04.67,0,1,.06.73.4,1.39.45,2.13.05.68.35,1.3.67,1.89.15.28.28.58.45.85.17.25.4.45.57.7.21.3.5.48.85.55.17.03.34.06.48-.07-.09-.15-.22-.28-.22-.4.01-.25-.18-.4-.23-.62-.02-.11-.19-.17-.28-.27-.06-.07-.12-.15-.14-.23-.05-.33-.05-.67-.13-.99-.11-.47-.3-.92-.4-1.39-.14-.65-.23-1.3-.34-1.95-.06-.4.03-.59.33-.75.05.35.09.69.15,1.04.04.19.13.36.17.55.1.51.17,1.03.26,1.54.02,0,.04,0,.07,0-.01-.16-.04-.33-.04-.49.02-.51.02-1.02.09-1.53.03-.21.17-.41.27-.61.02.01.05.02.07.03-.02.13-.03.27-.05.4.02,0,.03,0,.05,0,.03-.11.07-.22.12-.4-.02.35-.07.64-.05.92.05.84.16,1.68.17,2.52,0,.56.2,1.01.46,1.48.12.23.3.35.49.49.35.25.73.39,1.12.54.26.1.42.05.56-.13.3-.38.71-.71.73-1.26,0-.02.01-.03.02-.05.31-.62.61-1.24.92-1.85.34-.67.7-1.33,1.04-1.99.05-.1.07-.21.11-.32-.03-.01-.05-.02-.08-.03-.8,1.13-1.33,2.41-1.87,3.66-.11-.06-.19-.09-.26-.15-.05-.05-.13-.13-.12-.18.04-.24.1-.47.18-.7.34-1.08.95-2.01,1.66-2.88.63-.77,1.25-1.54,1.87-2.31.26-.32.52-.63.77-.95.06-.07.11-.15.17-.23.2-.27.39-.56.61-.81.23-.27.5-.51.71-.71.12-.02.23,0,.29-.04.36-.25.7-.52,1.06-.78.05-.04.13-.06.2-.07.08-.01.16,0,.24,0-.02-.08-.03-.15-.05-.24.17-.1.34-.26.53-.28.21-.02.4.01.51-.23.02-.04.13-.03.19-.05.07-.01.16,0,.2-.03.36-.32.9-.13,1.26-.43.02-.01.05-.01.07-.02.44-.11.88-.22,1.32-.34.51-.14,1.02-.3,1.54-.42.39-.09.82-.06,1.19-.21.69-.28,1.4-.31,2.13-.31.24,0,.49-.02.73-.04.26-.02.51-.06.77-.07.16,0,.31.07.47.08.26.02.51,0,.77,0-.01-.02-.04-.06-.07-.11.09-.01.15-.03.23-.04-.03.08-.06.14-.09.23.08.01.15.05.19.03.24-.13.51-.03.76-.18.31-.18.68-.27,1.03-.39.14-.05.31-.13.42-.09.45.16.82-.12,1.22-.18.4-.06.79-.17,1.19-.2.5-.05,1.01-.05,1.52-.06.59,0,1.16-.17,1.76-.02.65.16,1.34.18,2.01.25.18.02.37-.03.56-.04.37-.01.69.19,1.08.15.7-.07,1.42-.05,2.13-.07.05,0,.12,0,.15-.04.21-.21.46-.24.76-.14ZM29.08,16.61s0,.06.01.1c-.32.09-.67.14-.95.29-.43.24-.89.29-1.35.4-.37.09-.76.16-1.14.24-.08.02-.16.09-.24.12-.24.11-.48.25-.73.3-.32.07-.65.03-.97.09-.42.07-.84.17-1.25.28-.48.13-.95.3-1.47.46.11.19.15.35.26.43.11.09.27.11.38.15-.2.12-.41.25-.61.38-.02.01-.05,0-.08.01-.31.1-.63.2-.94.3-.18.06-.36.13-.54.16-.53.07-.97.34-1.44.56-.29.14-.58.29-.9.45,0,0,0,.06,0,.1.12.03.23.07.37.1-.04.05-.08.07-.08.1-.09.49-.43.76-.85.95-.05.02-.08.07-.11.11.05.03.1.09.15.09.18,0,.36-.02.54-.03-.04.11-.1.18-.17.21-.29.14-.6.25-.89.4-.24.13-.47.28-.66.47-.33.32-.63.67-.93,1.02-.32.37-.58.79-.71,1.27-.1.36-.22.72-.32,1.08-.06.21-.11.43-.16.65-.12.5-.25,1-.36,1.5-.05.22-.09.45-.12.68,0,.03.03.07.04.11.01.04.04.09.03.13-.05.36-.1.72-.16,1.07-.02.11-.04.21-.05.32,0,.07-.03.16,0,.19.29.33.15.73.2,1.1.05.37.03.76.06,1.13,0,.1.1.26.18.28.44.11.88.18,1.34.26.01-.12.02-.17.02-.22-.04-.76-.03-1.52.24-2.25.03-.07.01-.15.02-.23.05-.28.09-.57.16-.85.05-.2.16-.4.17-.61.01-.22-.04-.43.24-.52.03,0,.05-.05.06-.08.12-.3.25-.6.34-.91.27-.95.97-1.66,1.39-2.52.02-.04.06-.06.09-.09,0,0,0-.03,0-.05-.06,0-.12,0-.21.01.09-.13.19-.23.24-.34.31-.7.87-1.19,1.46-1.65.4-.31.83-.58,1.26-.85.68-.45,1.36-.9,2.06-1.33.32-.19.68-.3,1.02-.47.81-.41,1.62-.84,2.44-1.24.5-.24,1.03-.41,1.53-.64.58-.26,1.09-.66,1.76-.72.51-.05,1-.19,1.51-.24.45-.04.92-.06,1.37,0,.58.07,1.19.12,1.71.36.65.3,1.27.44,1.96.24.16-.05.33-.09.49-.13.39-.09.84.05,1.18-.27.03-.03.1,0,.15,0,.17,0,.34-.01.51-.03.44-.04.87-.19,1.32,0,.14.06.32.04.48.04.19,0,.38-.03.55.01.37.09.73.22,1.1.31.07.02.19-.03.25-.09.15-.15.27-.21.49-.06.13.1.35.1.52.13.19.03.5-.02.56.08.22.38.63.3.93.48.31.19.72.17,1.07.39.56.35,1.17.59,1.75.91.33.18.62.41.93.62-.14-.25-.3-.49-.47-.71-.5-.63-1.02-1.24-1.51-1.88-.66-.85-1.28-1.73-2.07-2.47-.53-.5-1.09-.98-1.6-1.49-.63-.62-1.33-1.11-2.17-1.41-.42-.15-.83-.33-1.21-.55-.35-.19-.65-.45-1.04-.56-.35-.1-.69-.24-1.04-.36-.18-.06-.38-.07-.56-.14-.18-.07-.34-.19-.52-.27-.11-.05-.25-.07-.37-.11-.29-.11-.58-.22-.87-.33-.21-.08-.43-.15-.64-.22-.26-.1-.52-.21-.79-.29-.07-.02-.16.03-.24.05-.08.02-.16.07-.24.06-.2-.02-.4-.08-.6-.09-.13,0-.33.02-.38.1-.11.18-.23.17-.39.11-.1-.03-.22-.07-.32-.04-.23.07-.44.19-.66.28-.05.02-.11.03-.17.04-.21.02-.43-.05-.59.17-.03.04-.11.04-.17.06-.31.09-.63.19-.94.28-.19.05-.17.16-.06.28q-.42-.02-.81.15c-.06.02-.11.05-.17.05-.51.05-.95.22-1.34.56-.09.07-.23.1-.36.11-.31.02-.63.02-.94.04-.14,0-.25.17-.41.07-.01,0-.06.07-.1.09-.05.04-.12.06-.17.1-.2.15-.4-.06-.65.06-.37.19-.83.22-1.25.32-.06.01-.11.04-.16.07-.14.06-.28.14-.43.19-.2.06-.41.1-.62.15.01.08.02.16.04.28-.12-.08-.2-.18-.29-.18-.11,0-.23.06-.33.09.03.07.05.13.08.21-.22,0-.42-.05-.57,0-.6.24-1.2.5-1.77.8-.41.21-.78.5-1.15.77-.25.18-.46.4-.7.6-.11.09-.25.14-.35.24-.2.2-.37.43-.56.64-.17.2-.35.39-.5.6-.16.24-.34.48-.29.8,0,.03-.05.07-.07.1-.06.1-.11.2-.17.3,0,.05-.09.06-.11.09-.09.18-.15.38-.25.55-.13.24-.28.46-.42.69-.07.12-.14.23-.17.36-.04.18-.07.36-.07.54,0,.38-.32.06-.41.21,0,.01,0,.03,0,.01.12.07.22.13.39.22-.25.08-.27.2-.15.34-.23.11-.23.11-.39-.19-.11.21-.2.39-.3.57.02.02.05.04.07.06.06-.07.11-.14.18-.19.04-.03.12-.05.17-.03.03,0,.06.13.05.14-.12.09-.25.22-.38.22-.24,0-.31.17-.36.31-.06.17-.05.37-.06.55,0,0,.04.01.06.02.13-.23.25-.45.37-.68.04.02.07.03.11.05-.14.46-.28.93-.41,1.39-.31.03-.34.06-.37.48.09-.01.18-.03.34-.05-.21.17-.36.3-.5.42.02.02.04.04.06.07.08-.06.17-.13.31-.24-.04.25-.07.43-.1.63.02,0-.03,0-.08,0,.12.26.11.49-.11.68-.03.03-.03.1-.04.15-.07.33-.01.7-.34.96.29.15.06.29.02.45-.06.26-.11.52-.16.77-.02.11-.01.23-.02.34.04.12.05.24.07.37,0,.03,0,.06,0,.09.08.2.19.39.25.59.12.4.21.81.31,1.21.1.38.17.76.3,1.12.06.18,0,.42.23.53.05.02.11.06.15.04.04-.02.08-.09.09-.14.02-.11.01-.23.01-.35,0-.15-.02-.3-.01-.45.01-.23.09-.46.06-.67-.2-1.42-.05-2.82.3-4.19.16-.64.46-1.24.65-1.87.13-.43.33-.83.61-1.16.63-.74,1.32-1.43,2.12-2,.19-.13.34-.32.48-.45-.13-.21-.24-.36-.32-.52-.03-.07-.04-.2,0-.24.22-.18.43-.4.69-.5.57-.21,1.16-.34,1.74-.51.31-.09.61-.19.91-.27.18-.05.37-.07.6-.12-.07-.16-.1-.32-.19-.41-.17-.15-.15-.28-.03-.42.1-.12.21-.23.32-.33.68-.59,1.59-.72,2.35-1.14.02-.01.05,0,.08-.01.34-.08.69-.15,1.03-.25.63-.19,1.28-.34,1.82-.77.1-.08.27-.06.43-.1-.06.18-.32.23-.12.45.15.16.26.04.39.03.15,0,.3-.06.45-.09.54-.1,1.07-.21,1.61-.29.29-.04.59-.04.89-.06ZM16.39,10.82c.16-.09.27-.16.39-.21.19-.08.38-.17.57-.23.6-.17,1.2-.35,1.81-.48.32-.07.67-.02,1-.06.17-.02.32-.11.46.07.03.04.12.02.21.03-.23-.31-.43-.57-.62-.84-.19-.26-.39-.5-.55-.78-.35-.62-.68-1.26-1.02-1.88-.2-.36-.42-.72-.63-1.07-.02-.04-.07-.07-.11-.09-.08-.04-.19-.04-.24-.1-.08-.09-.13-.22-.19-.34-.12-.23-.25-.45-.37-.68-.02-.04.01-.1.02-.14.03,0,.06-.01.08-.02.11.25.22.49.34.75.15-.14.18-.26.04-.41-.11-.12-.19-.27-.27-.41-.16-.29-.28-.61-.49-.86-.31-.36-.66-.68-1.03-.97-.3-.24-.66-.42-.99-.64-.08-.05-.13-.15-.23-.26-.01,0-.08,0-.17-.01.08-.06.13-.09.19-.15-.15-.12-.26-.25-.4-.34-.32-.2-.62-.12-.69.16-.21-.11-.41-.29-.64-.32-.46-.06-.93-.04-1.4-.05-.04,0-.08.08-.14.1-.12.06-.25.11-.38.15-.15.05-.31.05-.45.11-.24.11-.47.23-.73.31-.23.07-.42.28-.64.41-.18.11-.35.2-.46.41-.07.13-.28.18-.38.3-.13.16-.3.36-.3.55,0,.24-.07.4-.22.51.11.41.21.78.11,1.19-.04.18-.03.38-.02.57,0,.1.09.21.06.29-.03.09-.14.15-.18.18.1.18.25.34.29.53.07.32.18.61.34.9.15.27.23.59.41.84.3.44.52.94.94,1.29.37.32.75.63,1.1.97.39.39.74.84,1.22,1.14.12.08.23.16.38.27-.09.03-.14.04-.17.06.26.43.52.85.79,1.26.03.05.16.09.21.06.27-.12.55-.24.79-.41.17-.11.28-.32.44-.45.29-.22.6-.44.92-.62.18-.11.26-.37.54-.33.29.03.31-.01.22-.32.09.03.17.05.21.06ZM24.86,40.59c.06-.04.1-.06.11-.08.26-.55.54-1.09.78-1.66.19-.45.4-.89.73-1.26.08-.09.13-.2.18-.31.22-.42.43-.85.93-1.06-.06-.05-.1-.08-.14-.12.02.02.04.03.06.05.16-.19.3-.4.47-.57.46-.46.94-.91,1.41-1.37.19-.18.36-.4.57-.55.22-.16.48-.26.71-.4.42-.24.84-.5,1.26-.74.27-.15.53-.32.81-.44.32-.14.66-.24.99-.35.29-.1.58-.22.88-.29.25-.06.55.02.7-.28,0-.02.05-.01.07-.02.54-.18,1.07-.36,1.61-.53.82-.26,1.64-.51,2.46-.75.3-.09.63-.07.9-.21.61-.32,1.24-.55,1.9-.71.67-.17,1.35-.33,2.02-.5.48-.12,1.01.03,1.45-.3.01,0,.03,0,.05,0,.63-.04,1.26-.09,1.89-.12.4-.02.81,0,1.21-.03.61-.04,1.21-.11,1.82-.15.4-.02.81,0,1.21,0,.07,0,.14-.02.19-.03-.09-.11-.21-.19-.23-.29-.05-.31-.28-.42-.53-.44-.51-.06-.95-.39-1.5-.32-.29.04-.61-.07-.91-.13-.11-.02-.23-.08-.3-.16-.23-.27-.59-.19-.85-.37-.01,0-.03,0-.05,0-.29,0-.6.06-.86-.03-.5-.17-1-.22-1.52-.15-.15.02-.31-.05-.47-.07-.12-.01-.24-.01-.36,0-.09.01-.17.08-.26.1-.12.02-.24,0-.36.02-.29.03-.58.07-.87.09-.34.03-.68.04-1.01.05-.34.01-.69.01-1.03.02-.05,0-.1-.02-.15,0-.64.17-1.28.34-1.91.52-.33.09-.64.22-.97.32-.41.13-.84.19-1.22.38-.26.13-.49.22-.73.11-.03.07-.05.1-.07.14-.06-.05-.11-.1-.21-.18-.39.17-.82.36-1.25.54-.26.11-.52.24-.79.33-.26.09-.54.11-.79.21-.14.05-.3.09-.37.3-.04.12-.29.17-.45.27-.4.25-.79.51-1.19.77-.47.31-.95.61-1.42.92-.71.49-1.27,1.14-1.85,1.77-.32.36-.57.78-.87,1.16-.26.34-.53.67-.82.99-.29.31-.55.63-.7,1.04-.07.21-.1.45-.23.62-.21.26-.38.5-.24.85,0,.01-.01.03-.02.05-.1.47-.05.95.02,1.41.06.38.11.75.08,1.13-.02.27,0,.54,0,.85ZM16.37,36.65c.11-.32.26-.61.3-.91.17-1.19.45-2.34.94-3.44.19-.43.36-.87.55-1.31-.04-.03-.08-.06-.11-.08.11-.28.19-.54.3-.79.12-.28.25-.56.39-.83.02-.03.11-.02.15-.05.06-.04.15-.12.13-.15-.11-.28.1-.44.24-.62.08-.1.17-.19.24-.3.17-.29.3-.6.5-.87.26-.36.55-.71.88-1.01.25-.22.42-.61.85-.57.02,0,.05-.02.06-.04.14-.14.29-.28.42-.43.11-.13.19-.29.32-.39.38-.3.77-.6,1.18-.85.54-.32,1.1-.61,1.66-.89.4-.2.83-.34,1.22-.55.32-.17.6-.41.98-.46.03,0,.06-.04.09-.05.46-.18.83-.59,1.38-.59.09,0,.18-.09.27-.13.3-.14.6-.29.92-.4.25-.09.56.07.8-.15.19-.18.45-.15.68-.29.43-.28.96-.37,1.48-.35.07,0,.15-.01.24-.02-.01-.06,0-.12-.03-.14-.27-.22-.55-.42-.82-.63-.01,0-.03,0-.05,0-.35.02-.71.03-1.06.07-.17.02-.32.08-.49-.04-.08-.05-.19-.06-.29-.05-.68.02-1.31.22-1.93.5-.12.06-.28.05-.4.12-.26.13-.5.29-.74.44-.1.06-.19.13-.27.19-.06-.03-.14-.08-.21-.09-.04,0-.08.09-.13.16-.21-.08-.35.09-.53.19-.51.29-1.03.56-1.55.82-.45.23-.9.45-1.37.63-.67.26-1.21.78-1.93.91-.02,0-.03.02-.04.03-.4.28-.81.55-1.19.85-.4.31-.78.65-1.17.98-.55.48-1.03,1-1.31,1.69-.08.2-.18.4-.29.59-.22.38-.51.7-.62,1.14-.04.16-.16.34-.3.43-.22.13-.22.3-.19.5.01.11.04.27-.02.32-.23.19-.19.46-.24.7-.06.27-.15.52-.22.79-.03.1-.02.2-.04.31,0,.06,0,.14-.03.17-.25.26-.19.57-.18.88.01.22.01.44,0,.66,0,.22-.05.44-.04.66.01.31.06.61.09.92.03.33.04.66.08.99.02.13.1.25.14.37.03.08.05.16.08.23-.02,0-.04.02-.06.03.08.06.17.12.3.21ZM12.91,35.32c.08.13.11.27.19.31.39.18.79.36,1.2.5.26.09.35-.01.37-.29,0-.1.03-.19.05-.32-.6-.06-1.18-.12-1.82-.19ZM53.38,70.41c.31-.12.61-.26.92-.37.3-.1.61-.18.92-.27.07-.02.13-.1.19-.15-.02-.03-.04-.07-.06-.1-.7.18-1.38.41-1.96.89ZM65.95,58.93s0-.06-.01-.09c-.3-.23-.83-.11-1.29.34.43-.08.87-.17,1.3-.25ZM32.72,58.68c.25-.77.51-1.55.77-2.34-.63.66-.59,1.54-.77,2.34ZM22.09,26.09c.23-.28.45-.55.71-.86-.17,0-.27.02-.35.02-.11.15-.23.29-.32.44-.18.29-.17.29-.04.4ZM55.33,26.55c-.12-.1-.19-.17-.28-.22-.02,0-.14.12-.13.13.05.09.12.17.2.23.01.01.1-.07.2-.14ZM12.52,30.65c-.26.28-.27.37-.09.56.03-.17.05-.33.09-.56ZM12.55,29.49s.05.02.08.03c.07-.23.14-.46.2-.7-.03,0-.05-.02-.08-.02-.07.23-.14.46-.2.69ZM13.12,20.66c-.09-.06-.16-.13-.17-.12-.07.05-.13.12-.19.18.03.03.08.1.1.09.08-.03.15-.09.26-.15Z"/>
      <path class="cls-1" d="M32.75,52.02c.07-.5.22-.97.54-1.38.09-.12.11-.29.19-.42.1-.15.24-.29.36-.43.06-.07.11-.14.16-.22.02-.03.02-.07.04-.09.2-.2.4-.4.6-.6.05-.05.12-.1.16-.16.36-.54.87-.94,1.34-1.37.21-.19.43-.35.65-.52.42-.32.83-.65,1.27-.94.26-.17.57-.27.86-.41.25-.13.49-.31.75-.42.89-.36,1.78-.72,2.69-1.03.76-.26,1.54-.47,2.32-.66.36-.09.74-.09,1.12-.12.18-.02.33-.07.5-.18.27-.17.62-.24.93-.34.05-.02.1,0,.15-.02.57-.18,1.14-.36,1.72-.53.15-.04.32,0,.48-.02.36-.05.74-.06,1.08-.18.48-.16.96-.18,1.45-.17.36.01.71.01,1.07-.01.81-.06,1.61-.14,2.42-.22.31-.03.62-.09.93-.14,0,0,.01-.01.02-.01.34-.02.68-.05,1.02-.06.05,0,.13.03.13.06.09.35.38.26.61.27.15,0,.31-.03.46-.04.16,0,.32.02.48.01.17,0,.34-.03.51-.05.13,0,.31.06.39-.01.2-.17.41-.16.63-.14.53.05,1.03.07,1.54-.17.22-.1.51-.05.76-.07.7-.05,1.4-.16,2.1-.13.49.02,1.03-.03,1.48.29.17.12.34.27.53.3.34.06.62.26.93.38.35.13.74.14,1.09.28.29.12.55.33.81.53.06.05.05.2.08.32-.41-.11-.79-.22-1.18-.31-.28-.06-.57-.08-.85-.13-.12-.02-.24-.1-.36-.13-.12-.03-.26-.01-.38-.03-.1-.02-.2-.06-.3-.09-.06-.02-.11-.06-.17-.06-.14,0-.3.09-.42-.07-.01-.02-.14.06-.24.1.1-.29-.03-.26-.28-.26-.26,0-.56.1-.81-.16-.09-.09-.35-.03-.54-.03-.13,0-.25.05-.38.03-.39-.04-.73.06-1.08.2-.22.09-.48.07-.72.12-.4.07-.81.24-1.2.2-.26-.03-.5.06-.76.04-.34-.03-.69-.11-1.06-.02-.32.08-.7.21-1.05,0-.03-.02-.09,0-.12.02-.27.19-.55.13-.84.05-.19-.05-.4-.09-.59-.09-.45.01-.89.06-1.34.08-.43.01-.85,0-1.28,0-.9.03-1.79.08-2.69.13-.3.02-.58.12-.88.15-.19.02-.38-.02-.58-.01-.14,0-.28.05-.42.07-.16.02-.33.03-.5.04,0,0,.01.09,0,.09-.38.11-.75.2-1.13.32-.1.03-.19.12-.3.2-.07,0-.18,0-.27.02-.25.08-.49.2-.74.26-.31.07-.63.09-.95.15-.48.08-.96.16-1.43.25-.51.1-1.01.25-1.52.33-.66.1-1.21.47-1.81.7-.92.35-1.69.92-2.5,1.44-.25.16-.53.29-.79.43-.3.16-.62.31-.91.49-.21.14-.39.33-.58.5-.24.2-.49.39-.73.59-.16.14-.32.29-.46.45-.38.44-.76.87-1.12,1.33-.24.31-.44.65-.68.97-.13.17-.3.31-.45.47,0,0,0,0,0,0ZM48.2,43.15c.34.11.73-.04.84-.28-.26.09-.52.17-.84.28Z"/>
      <path class="cls-1" d="M10.87,39c-.29-.07-.46-.28-.6-.51-.39-.64-.76-1.28-1.14-1.93-.41-.71-.81-1.44-1.24-2.15-.29-.48-.61-.94-.92-1.42-.51-.78-1.01-1.57-1.51-2.36-.12-.18-.23-.37-.34-.55.02-.02.03-.04.05-.06.13.08.28.14.37.26.34.43.65.88.97,1.33.3.43.6.86.88,1.3.42.66.84,1.32,1.24,1.98.4.66.78,1.32,1.16,1.98.11.2.18.42.29.63.09.17.2.34.33.48.25.29.37.63.46,1Z"/>
      <path class="cls-1" d="M54.92,46.15c.13-.05.21-.08.29-.11.17-.06.33-.17.5-.18,1.4-.04,2.8-.07,4.2-.09.2,0,.39.05.59.08v.12c-1.11.12-2.22.23-3.33.35,0,.02,0,.04,0,.07h1.66c-.13.28-.38.26-.56.27-.68.04-1.36.04-2.04.06-.29,0-.59,0-.88.03-.23.02-.31-.1-.36-.28-.03-.12-.05-.24-.07-.32Z"/>
      <path class="cls-1" d="M44.47,48.59c-.12.13-.21.24-.32.35-.16-.05-.33-.11-.52.07-.08.08-.26.05-.4.06-.7.07-1.39.12-2.09.2-.28.03-.55.09-.83.14-.35.05-.44,0-.48-.35-.02-.13-.03-.25-.04-.36.53-.35,1.1-.24,1.66-.25.67-.02,1.34-.05,2.01-.03.33,0,.66.12,1.02.19Z"/>
      <path class="cls-1" d="M17.42,51.14s.04-.05.04-.06c-.12-.15-.22-.27-.32-.39.02-.03.05-.07.07-.1.1.06.23.09.31.18.32.36.56.76.74,1.22.15.38.41.73.63,1.08.21.33.43.66.65.99.18.27.39.52.56.8.27.44.52.89.77,1.34.29.51.57,1.03.87,1.54.17.28.42.5.57.79.15.28.21.61.31.91l-.09.04c-.2-.33-.41-.65-.61-.98-.11-.18-.19-.37-.29-.55-.03-.05-.08-.11-.13-.12-.35-.06-.37-.38-.49-.61-.05-.09-.11-.18-.17-.27-.1-.16-.19-.31-.3-.49.01-.02.05-.06.08-.1,0-.01-.01-.03-.02-.04-.08-.07-.17-.13-.23-.21-.1-.15-.19-.32-.28-.49-.08-.14-.15-.28-.22-.42-.23-.45-.43-.91-.68-1.34-.19-.33-.45-.62-.66-.94-.09-.14-.13-.31-.22-.45-.07-.13-.17-.26-.26-.38-.06-.08-.14-.14-.19-.23-.15-.23-.28-.46-.44-.71Z"/>
      <path class="cls-1" d="M47.56,46.84c-.1.13-.16.29-.26.34-.17.07-.38.13-.56.1-.42-.07-.84-.08-1.26-.04-.23.02-.47.09-.7.1-.29.02-.58-.01-.8-.26-.18-.2-.18-.46.03-.63.09-.07.19-.15.29-.22.05-.03.11-.06.16-.06.44.04.89.06,1.32.14.53.1,1.04.26,1.56.4.07.02.14.08.21.12Z"/>
      <path class="cls-1" d="M54.57,47.77c.36-.06.72-.12,1.08-.17.69-.1,1.39-.2,2.08-.28.3-.04.61-.05.91-.04.6.03,1.19.08,1.79.13.09,0,.18.08.32.14-.62.09-1.16.19-1.71.24-.91.09-1.83.2-2.75.16-.44-.02-.89.06-1.34.07-.14,0-.27-.08-.41-.12,0-.05.01-.09.02-.14Z"/>
      <path class="cls-1" d="M70.55,45.84c-.37-.02-.74-.03-1.11-.06-.58-.04-1.15-.11-1.73-.15-.61-.04-1.22-.12-1.82-.08-.22.02-.46.08-.7.08-.05,0-.11-.02-.16-.06.98-.37,1.98-.56,3.01-.16,0-.03,0-.05,0-.08-.15-.04-.3-.08-.44-.12,0-.02,0-.04,0-.05h1.17s0,.02,0,.03c-.19.02-.37.03-.56.05,0,.02,0,.03,0,.05.07.02.14.03.21.05.23.06.45.13.68.18.06.01.12-.01.18-.02.1-.02.2-.07.29-.04.24.07.48.18.72.26.08.02.17,0,.26,0,0,.04,0,.09,0,.13Z"/>
      <path class="cls-1" d="M74.67,47.81c.13.16.21.27.27.35-.1.02-.22.07-.34.07-.27,0-.54.02-.79-.15-.29-.2-.61-.35-.91-.54-.34-.22-.66-.47-1.04-.62-.07-.03-.13-.09-.16-.17.61.22,1.22.44,1.83.66.17.06.38.07.5.18.21.18.47.14.64.23Z"/>
      <path class="cls-1" d="M71.03,57.14c-.18.2-1.04.29-1.36.16-.04.08-.09.17-.14.27-.33.05-.69.1-1.04.16.13-.11.33-.17.11-.44.84-.05,1.62-.1,2.44-.15Z"/>
      <path class="cls-1" d="M16.29,48.32c.24-.06.36.04.32.25-.02.08,0,.18.04.26.24.47.48.94.72,1.42.03.07.04.15.05.22-.2.09-.45-.05-.49-.31-.03-.2-.11-.38-.16-.56-.08-.31-.27-.57-.32-.89-.02-.13-.1-.24-.15-.39Z"/>
      <path class="cls-1" d="M70.42,46.34c.02.05.04.12.05.17-.06.09-.79-.04-.92-.18.17-.02.31-.04.45-.04.13,0,.27.03.42.05Z"/>
      <path class="cls-1" d="M15.92,47.31c.33.23.53.72.37.92-.12-.31-.23-.59-.37-.92Z"/>
      <path class="cls-1" d="M63.94,46.42h1.07c-.06.09-.09.16-.11.16-.33-.02-.66-.06-.99-.09.01-.02.02-.04.03-.07Z"/>
      <path class="cls-1" d="M63.79,46.55c-.29.03-.57.07-.86.1,0-.02,0-.04,0-.06.28-.08.54-.24.85-.13v.09Z"/>
      <path class="cls-1" d="M34.44,74.97h-.78s0-.05,0-.08h.78s0,.05,0,.08Z"/>
      <path class="cls-1" d="M65.94,57.95c.19,0,.39-.02.58-.03v.11c-.19,0-.38.02-.58.03v-.11Z"/>
      <path class="cls-1" d="M76.01,48.48c-.15-.19-.3-.38-.45-.57.03-.02.06-.04.09-.06.15.2.29.4.44.6-.02.01-.05.02-.07.04Z"/>
      <path class="cls-1" d="M11.04,11.47c-.36,0-.38-.22-.41-.44.13.14.26.27.41.44Z"/>
      <path class="cls-1" d="M37.57,35.1c.19.06.34.11.48.15-.26.13-.4.09-.67-.19-.08-.08-.19-.15-.26-.24-.05-.07-.06-.18-.09-.27.09-.03.21-.1.27-.07.27.13.52.05.79,0,.68-.15,1.37-.25,2.06-.36.32-.05.64-.08.97-.12.69-.08,1.39-.24,2.08-.21.84.03,1.66-.08,2.46-.29.73-.2,1.46-.19,2.19-.29.14-.02.29.05.51.08-.42.29-.83.31-1.23.38-.85.15-1.69.3-2.53.46-.11.02-.22.08-.36.14.07.04.12.08.16.08.49-.01.98-.05,1.48-.05.39,0,.79-.08,1.18.16-3.14.56-6.29.61-9.5.66Z"/>
      <path class="cls-1" d="M28.6,43.65c.16-.19.33-.37.48-.56.52-.64,1.05-1.27,1.57-1.91.18-.22.34-.46.52-.68.08-.1.18-.19.29-.27.17-.11.18-.19-.06-.42-.13.15-.26.31-.4.45-.03.04-.09.09-.12.08-.36-.11-.48.26-.73.38-.24.11-.44.33-.63.54-.28.3-.52.63-.84.93,0-.11.02-.22.02-.33.01-.2,0-.4.04-.59.03-.14.09-.29.18-.41.61-.83,1.45-1.41,2.21-2.08.12-.11.3-.16.47-.25-.23-.22-.07-.42.02-.59.03-.07.22-.1.34-.09.38.02.77.06,1.15.1.03,0,.08,0,.1.02.27.22.54.06.81.03.1-.01.2,0,.31,0-.26.15-.65.12-.73.52.18.22.16.3-.07.47-.42.32-.83.66-1.24,1-.27.22-.56.43-.8.68-.28.29-.53.61-.79.93-.33.4-.65.81-.97,1.22-.13.17-.23.37-.39.5-.22.17-.48.28-.72.41,0-.02-.01-.04-.02-.06ZM32.44,39.46s-.03-.05-.05-.08c-.19.11-.39.21-.58.32.01.02.03.05.04.07.2-.1.39-.21.59-.31Z"/>
      <path class="cls-1" d="M56.27,32.34c.31.04.61.09.92.13,0,.03,0,.06,0,.08-.18,0-.35,0-.53,0-.18-.01-.36-.03-.53-.06-.34-.06-.69-.13-1.04-.23h.78v-.1c-.55-.05-1.09-.1-1.64-.15,0,.02-.01.05-.02.07.07.03.14.07.22.1,0,.01,0,.03,0,.04-.23-.02-.45-.04-.68-.06-.86-.08-1.73-.18-2.59-.24-.51-.04-1.02-.03-1.53-.04-.19,0-.27-.03-.19-.28.1-.32.31-.46.58-.55.08-.03.19.06.29.06.56,0,1.12-.06,1.66,0,.33.04.69-.07,1.01.15.11.08.31.02.47.03.39.01.79.02,1.18.05.17.01.34.09.51.13.24.05.49.07.73.13.54.13,1.07.27,1.61.41.37.09.75.17,1.12.29.28.09.55.22.83.33-.01.03-.02.07-.03.1-.07,0-.14,0-.21-.02-.34-.1-.68-.21-1.03-.29-.1-.02-.23.08-.34.07-.23-.02-.47-.07-.7-.1-.28-.04-.56-.08-.84-.13,0,.03,0,.05,0,.08Z"/>
      <path class="cls-1" d="M53.05,32.65c-.19.03-.37.07-.56.09-.23.02-.46.03-.69.03-.39,0-.79-.01-1.18-.02-.39-.01-.79-.05-1.18-.04-.56.02-1.13.05-1.69.1-.34.03-.67.1-1.01.15-.18.02-.36.02-.54.02-.03,0-.07-.02-.09-.04-.13-.13-.03-.65.14-.69.45-.11.9-.21,1.35-.3.06-.01.16.01.18.05.1.2.28.18.43.14.68-.19,1.35-.02,2.02.05.68.07,1.37.15,2.05.24.26.03.51.1.77.15,0,.03,0,.05.01.08Z"/>
      <path class="cls-1" d="M39.71,36.64c-.25.07-.5.15-.76.21-.3.06-.63.05-.91.17-.25.1-.5.11-.75.16-.56.1-1.12.22-1.69.33-.02,0-.04,0-.05,0-.12-.13-.19-.07-.34-.01-.22.08-.54.09-.74-.14-.11-.12-.2-.28-.22-.43-.03-.34.09-.44.44-.44.51,0,1.01,0,1.52,0,.1,0,.22,0,.3.04.3.15.59.06.89.01.5-.08,1-.18,1.51-.2.26-.01.54.13.8.2,0,.04,0,.07,0,.11Z"/>
      <path class="cls-1" d="M27.81,45.04c-.04-.2-.09-.37.15-.5.02.19.18.38-.15.5Z"/>
      <path class="cls-1" d="M38.77,17.09c-.82-.44-1.61-.95-2.48-1.29l-.05.09c.48.25.96.49,1.43.77.5.29.98.61,1.46.91.05.04.1.1.12.16.02.04,0,.11-.03.13-.02.02-.09,0-.13-.02-.53-.28-1.04-.59-1.58-.84-.68-.32-1.4-.57-2.07-.89-.37-.18-.74-.29-1.14-.34-.22-.03-.45-.06-.67-.08-.05,0-.1.05-.16.08-.04-.07-.08-.14-.11-.18-.17.03-.32.05-.47.07.18.38.45.58.87.58.13,0,.27.08.4.13.03.01.06.04.09.04.49.07.94.32,1.45.33.3,0,.6.15.9.26-.35.18-.7.09-1.04.03-.23-.04-.45-.09-.68-.13-.41-.07-.82-.13-1.23-.19-.2-.03-.4-.04-.6-.07-.09-.01-.17-.06-.3-.1.08-.06.12-.09.15-.12-.18-.19-.16-.28.08-.44-.08-.12-.16-.23-.25-.34-.03-.04-.09-.08-.12-.07-.38.09-.73-.06-1.1-.12-.39-.07-.8-.04-1.2-.07-.19-.01-.37-.05-.56-.07-.03,0-.06.02-.1.03q.15.18,1.08.22c-.13.02-.25.06-.38.05-.43-.04-.85-.09-1.28.03-.2.05-.46-.04-.62.06-.29.17-.6.05-.88.14-.13.04-.24.15-.36.22-.06.03-.13.07-.2.07-.11.01-.21,0-.33,0,.03-.03.06-.08.14-.17-.24.04-.41.06-.59.09l-.03-.06c.09-.07.16-.16.26-.21.33-.18.65-.38.99-.53.26-.11.54-.18.82-.23,1.04-.21,2.1-.24,3.16-.29.82-.03,1.61.08,2.41.2.42.06.84.18,1.26.27.19.04.39.03.58.07.16.04.32.11.47.17.45.19.95.28,1.31.66.06.06.18.07.28.1.4.13.62.47.92.73.05.04.09.1.13.15ZM36.05,15.87s.02-.06.03-.09c-.22-.05-.43-.09-.65-.14,0,.03-.01.06-.02.09.21.05.43.09.64.14Z"/>
      <path class="cls-1" d="M14.12,28.41c.35-.8.71-1.58,1.05-2.37.05-.13.01-.3.02-.45,0-.13,0-.27,0-.41.16.05.3.09.51.15-.45,1.03-.88,2.12-1.57,3.08Z"/>
      <path class="cls-1" d="M38.16,17.6c-.31-.07-.63-.13-.94-.23-.08-.03-.12-.17-.2-.3.42.17.79.32,1.16.47,0,.02-.01.04-.02.06Z"/>
      <path class="cls-1" d="M32.72,24.79c-.47.35-.9.67-1.33.99.14.12.54.01,1.05-.22-.23.13-.45.28-.69.39-.69.31-1.37.6-1.94,1.12-.34.31-.76.52-1.13.8-.58.44-1.13.89-1.7,1.34-.17.13-.36.24-.54.35-.09-.53.38-.68.64-.97.09-.1.17-.2.26-.3-.02-.03-.03-.05-.05-.08-.12.06-.26.1-.37.17-.36.24-.71.47-1.05.74-.12.1-.21.26-.27.4-.08.22-.24.14-.42.1.41-.4.82-.81,1.23-1.21.03.01,0,0-.12-.05.23-.12.42-.22.59-.31h-.17c.72-.71,1.65-1.02,2.43-1.66-.36-.09-.4-.34-.42-.64.2.03.4.08.59.07.18-.01.36-.08.52-.16.4-.19.79-.43,1.2-.57.43-.14.89-.18,1.33-.26.1-.02.21-.03.35-.06ZM28.65,27.31s.04.04.06.05c.28-.18.56-.34.83-.53.11-.08.19-.19.27-.3.02-.02-.07-.16-.08-.15-.12.04-.26.07-.35.15-.13.11-.23.26-.35.39-.12.13-.26.26-.39.39Z"/>
      <path class="cls-1" d="M41.99,22.99c-.03.1-.06.16-.09.24.06.01.12.03.19.04.01-.09.02-.17.04-.29.25.04.5.1.75.11.58.04,1.17.03,1.74.1.23.03.43.21.65.33-.02.03-.04.07-.05.1-.14-.08-.28-.16-.42-.23,0,0-.01.02-.02.02.05.06.1.12.15.17-.47.33-1.01.25-1.53.23-.12,0-.26-.04-.34-.11-.2-.19-.41-.14-.65-.09-.14.03-.3,0-.45-.02-.03,0-.06-.03-.09-.02-.64.08-.9-.12-1.12-.53-.03-.06-.03-.19,0-.23.07-.06.2-.12.29-.11.16.02.3.11.46.16.15.05.31.08.49.12ZM44.12,23.43c.2.04.38.07.59.1-.24-.22-.4-.25-.59-.1Z"/>
      <path class="cls-1" d="M35.98,23.94c.18-.03.37-.05.55-.08,0,.03,0,.05.01.08-.15.08-.24.24-.48.17-.1-.03-.25.15-.38.24,0,.03.01.05.02.08.19,0,.41.06.56-.01.21-.1.26.02.38.14-.16.05-.29.11-.42.14-.43.12-.86.23-1.3.33-.08.02-.22,0-.26-.06-.29-.4-.7-.29-1.08-.27-.2.01-.33,0-.37-.23-.02-.09-.13-.15-.22-.24.11-.02.23-.03.35-.06.21-.04.42-.08.63-.12.1-.02.2-.02.3,0,.18.01.36.14.5-.1.02-.04.17.02.25,0,.16-.03.32-.1.48-.11.15-.01.31.03.46.05,0,.02,0,.03,0,.05Z"/>
      <path class="cls-1" d="M39.95,23.76c-.07-.02-.13-.05-.21-.07.05.35.46.18.59.47-.43-.05-.83.24-1.24,0-.04-.02-.11,0-.16.03-.23.13-.45.11-.65-.07-.29-.27-.42-.27-.75-.07-.1.06-.26,0-.41-.02.21-.13.53-.18.26-.55.09-.04.16-.09.22-.09.38.02.77.06,1.15.07.28.01.57,0,.86,0,.18,0,.31.08.34.3Z"/>
      <path class="cls-1" d="M24.51,30.6c-.23.12-.46.24-.73.38.31-.67.79-1.16,1.28-1.62.02.02.04.04.06.05-.14.14-.29.27-.43.42-.19.21-.36.43-.54.65-.02.02-.02.1,0,.11.04.02.09.04.14.03.07-.01.14-.05.21-.07v.06Z"/>
      <path class="cls-1" d="M42.84,21.83c.19.01.38.02.63.03-.24.21-.46.21-.65.04,0-.03.01-.05.02-.08Z"/>
      <path class="cls-1" d="M23.66,32.92c.1.03.2.05.32.08v-.29c.06.05.13.09.13.09-.06.1-.11.21-.19.29-.02.02-.12,0-.16-.04-.04-.03-.06-.1-.09-.15,0,0,0,0,0,0Z"/>
      <path class="cls-1" d="M11.84,2.65c.17,0,.37,0,.57,0,.39.02.61.22.8.58.15.3.29.58.27.91-.03.39-.09.78-.17,1.17-.05.26-.32.28-.51.39-.1.05-.18.12-.28.16-.15.05-.31.13-.46.12-.45-.04-.89-.15-1.26-.42-.21-.15-.38-.33-.4-.62-.01-.21-.1-.42-.17-.62-.05-.13-.08-.22.02-.35.07-.1.07-.25.09-.37.04-.19.15-.27.36-.34.4-.13.83-.25,1.13-.6ZM12.58,3.59c-.18-.02-.32-.05-.47-.04-.19,0-.31.25-.54.15-.01,0-.09.08-.1.12-.02.08-.02.17-.02.26-.02.31.18.58.43.61.35.03.61-.15.66-.48.03-.19.03-.39.04-.61Z"/>
      <path class="cls-1" d="M16.65,3.48c-.13-.16-.27-.33-.4-.49.02-.02.04-.03.06-.05.13.17.27.33.4.5-.02.01-.04.03-.06.04Z"/>
      <path class="cls-1" d="M27.96,34.89c.29-.12.4-.48.73-.55.02.03.04.06.07.09-.24.18-.49.36-.73.54-.02-.03-.04-.05-.06-.08Z"/>
      <path class="cls-1" d="M32.91,19.81c-.35-.04-.7-.09-1.08-.13.3-.12.74-.08,1.08.13Z"/>
    </g>
  </g>
</svg>