<?xml version="1.0" encoding="UTF-8"?>
<svg id="Layer_2" data-name="Layer 2" xmlns="http://www.w3.org/2000/svg" viewBox="0 0 75.42 106.73">
  <defs>
    <style>
      .cls-1 {
        fill: #000;
        stroke-width: 0px;
      }
    </style>
  </defs>
  <g id="illustrations">
    <g>
      <path class="cls-1" d="M75.15,24.94c-.17-.81-.42-1.56-1.03-2.17-.2-.2-.34-.48-.52-.74.13-.03.21-.05.3-.07-.03-.04-.03-.08-.06-.09-.31-.16-.59-.33-.47-.75,0-.02-.04-.04-.05-.07-.12-.26-.25-.51-.36-.77-.33-.79-.65-1.58-1.14-2.28-.09-.13-.18-.26-.29-.37-.13-.14-.29-.25-.42-.38-.19-.19-.34-.45-.57-.59-.32-.19-.69-.29-1.05-.43-.56-.22-.92-.08-1.26.53.47-.08.59.31.85.53.03.02.06.04.1.06.29.18.6.34.86.56.72.58,1.36,1.23,1.63,2.17.11.4.25.81.43,1.18.44.87.94,1.71,1.36,2.59.31.65.65,1.34.75,2.04.21,1.55-.11,3.07-.63,4.55-.29.82-.52,1.65-.76,2.49-.18.62-.35,1.25-.51,1.88-.14.56-.19,1.14-.39,1.68-.17.44-.12.88-.17,1.32-.07.57,0,1.16,0,1.74,0,.56-.02,1.11-.04,1.67-.01.42-.05.83-.05,1.25,0,.28-.03.58.05.85.07.25-.02.25-.25.22.28.11.28.11.26.35-.06.67.14,1.26.51,1.82-.08-.02-.17-.04-.29-.07.02.17,0,.34.06.45.2.34.14.59-.18.8,0,0,0,.03,0,.12.15-.13.26-.22.46-.39.02.3.03.54.05.78h-.08c-.04-.27-.12-.36-.31-.33-.24.03-.24.19-.21.39.02.1.01.21.01.32-.03.81-.01,1.62-.32,2.4-.1.25-.06.55-.12.82-.08.37-.02.83-.52.98-.1.03-.21.03-.3.08-.35.21-.84-.2-1.14.25,0,0-.04,0-.06,0-.16.04-.33.07-.48.13-.21.09-.39.26-.61.32-.6.17-1.2.34-1.81.44-.65.1-1.27.3-1.97.22-.59-.07-1.21.11-1.82.15-.25.02-.53.04-.74-.06-.38-.17-.74-.32-1.17-.21-.1.03-.21.05-.31.04-1.04-.02-2.04-.2-2.94-.75-.65-.39-.77-.73-.68-1.49.07-.59.05-1.19.11-1.78.03-.29-.05-.61.19-.86.03-.03,0-.11,0-.16-.03-.12-.09-.25-.08-.37.04-.77.09-1.53.16-2.29.09-.95.2-1.9.31-2.84.03-.22.07-.45.16-.66.11-.27.27-.51.42-.76.12-.21.17-.48.5-.52.26-.03.5-.13.69-.36.08-.1.28-.09.43-.13.04-.01.1,0,.12-.03.07-.06.42-.35.46-.34.29.07.46-.19.7-.27.27-.09.43-.47.65-.72.08-.09.17-.17.25-.26.01.01.02.03.04.04-.1.18-.2.36-.3.53.35-.04.51-.19.46-.44.14-.02.27-.01.37-.07.43-.26.86-.52,1.28-.8.11-.07.19-.19.27-.3.27-.36.51-.73.79-1.08.57-.69,1.2-1.34,1.73-2.07.92-1.27,1.78-2.57,2.83-3.73.51-.56.88-1.17,1.01-1.92,0-.05.01-.14,0-.15-.05-.02-.15-.03-.18,0-.1.11-.2.23-.27.36-.16.26-.27.56-.46.79-.39.49-.82.94-1.22,1.42-.43.5-.84,1.02-1.26,1.53-.2.24-.38.5-.58.75-.03.04-.08.08-.07.12.02.32-.22.44-.42.61-.21.19-.39.42-.6.66.13.04.2.06.25.07-.04.12-.07.22-.1.31-.03.08-.08.16-.11.24-.02,0-.04-.02-.06-.03,0-.1.01-.21.02-.34-.32.24-.61.42-.86.66-.23.21-.37.52-.6.71-.5.42-.99.88-1.56,1.17-1.35.69-2.74,1.3-4.11,1.93-.49.23-.99.42-1.47.66-.43.21-.82.53-1.27.68-.74.26-1.52.44-2.29.62-.62.14-1.26.25-1.9.32-.62.07-1.23-.02-1.75-.41-.25-.18-.46-.17-.71-.04-.1.05-.27.07-.34.02-.25-.2-.47-.09-.7,0-.39.15-.78.32-1.19.44-.4.12-.9-.14-1.08-.52-.15-.31-.29-.63-.43-.92.22-.31.55-.45.78-.75.23-.31.62-.51.97-.72.19-.11.43-.24.61.08.09.16.24.13.38,0,.13-.12.25-.32.47-.17.17-.34.48-.2.71-.28.08-.13.17-.24.28-.32.1-.07.22-.11.34-.15.51-.17,1.03-.35,1.55-.5.41-.13.84-.21,1.25-.35.19-.06.35-.22.54-.29.41-.15.83-.28,1.25-.41.22-.07.43-.14.64-.22.2-.08.4-.16.61-.24.22-.09.45-.19.67-.27.08-.03.18-.02.25-.06.37-.19.73-.42,1.11-.59.51-.23,1.04-.4,1.55-.62.28-.12.53-.33.82-.44.61-.23,1.14-.57,1.64-.98.03-.03.07-.07.08-.11.16-.46.29-.93.47-1.38.42-1.06,1.09-1.88,2.2-2.29.43-.16.84-.38,1.25-.57.15-.07.25-.17.19-.37-.06-.21-.21-.15-.35-.14-.09.01-.19.03-.28.07-.61.25-1.25.45-1.83.75-.86.45-1.69.96-2.13,1.9-.13.27-.26.55-.39.83-.04.08-.13.17-.12.25.04.28-.17.32-.35.4-.22.1-.43.2-.65.29-.05.02-.11.04-.2.08.05-.12.08-.18.1-.26.19-.63.46-1.23.38-1.93-.07-.64,0-1.29.2-1.91.2-.64.34-1.3.61-1.91.38-.86.84-1.7,1.3-2.52.52-.91,1.06-1.8,1.63-2.68.46-.7,1-1.36,1.49-2.04.49-.68.98-1.37,1.45-2.07.48-.69,1.12-1.21,1.84-1.61.3-.17.69-.19,1.04-.24.21-.03.39-.07.5-.27.23-.39.25-.78.05-1.2-.09-.19-.14-.42-.14-.63,0-.23-.08-.33-.28-.4-.11-.04-.25-.09-.31-.19-.13-.21-.21-.45-.3-.68-.12-.3-.31-.42-.61-.3-.33.14-.66.3-.96.52-1.08.78-2.14,1.59-3.21,2.39-.44.32-.89.62-1.27.88-.18-.27-.34-.49-.47-.73-.11-.21-.13-.5-.29-.66-.21-.23-.49-.42-.78-.56-.37-.17-.58-.02-.62.39,0,.09-.03.17-.05.25-.08.34-.06.37.28.42.08.01.2.07.22.13.09.28.32.27.54.31,0-.13.01-.23.02-.38.11.05.19.08.24.13.02.02,0,.11-.02.15-.24.35-.26.53.03.84.17.18.13.29-.06.37-.24.1-.49.18-.71.26.07.08.17.18.31.32-.14.03-.2.06-.26.06-.32,0-.51.16-.6.44-.12.33-.3.65-.24,1.03.01.08-.03.17-.04.25,0,.18,0,.35,0,.53,0,.11,0,.24-.06.32-.19.3-.45.57-.61.89-.21.42-.35.87-.54,1.3-.39.86-.79,1.72-1.18,2.57-.43.93-.87,1.85-1.28,2.79-.13.29-.3.28-.61.14-.04-.02-.1-.08-.12-.07-.2.15-.28-.01-.38-.13-.07-.08-.12-.18-.19-.24-.47-.4-.94-.78-1.4-1.18-.51-.44-1-.91-1.01-1.65,0-.6,0-1.2.04-1.8.03-.48.14-.96.2-1.39.38-.03.71-.05,1.03-.08.04-.11.08-.19.14-.34.21.37.46.26.7.11.04-.02.09-.04.13-.05.49-.12.97-.24,1.46-.36.26-.06.32-.26.25-.46-.13-.38-.29-.74-.44-1.11-.04-.1-.12-.19-.12-.29,0-.54-.05-1.07-.32-1.48.2-.22.38-.41.55-.6.07-.09.13-.19.18-.29.19-.38.27-.75.01-1.14-.23-.34-.48-.64-.94-.61-.55.03-.78-.08-.86-.62-.17-1.08-.54-2.07-1.05-3.03-.33-.62-.79-1.12-1.35-1.54-.16-.12-.32-.09-.53,0-.27.13-.6.15-.91.18-.08,0-.18-.09-.24-.17-.09-.11-.14-.25-.22-.37-.11-.17-.16-.47-.49-.28-.04.02-.14-.05-.21-.08-.07-.03-.14-.09-.2-.09-.43-.02-.86-.16-1.26.18-.16.14-.42.17-.63.25-.19.07-.38.15-.58.19-.35.07-.7.1-1.05.16-.66.12-1.14.52-1.53,1.04-.29.38-.53.8-.77,1.21-.1.17-.14.38-.21.58-.15-.07-.32-.16-.5-.22-.2-.07-.4-.07-.53.13-.35.54-.6.65-1.26.54-.16-.02-.4-.01-.48.08-.24.3-.51.63-.43,1.05.23,1.13-.01,2.26.07,3.39.01.17-.1.34-.16.54-.14-.26-.22-.47-.34-.64-.33-.48-.32-.96-.05-1.46.32-.6.36-1.24.37-1.9,0-.21-.09-.27-.27-.27-.38,0-.7.13-.9.47-.33.57-.65,1.15-1,1.7-.23.37-.22.74-.14,1.15.05.23.25.48-.02.74-.45.44-.45.51-.18,1.07.05.09.07.2.11.29.12.3.28.6.63.65.21.03.29.13.33.29.2.87.82,1.3,1.61,1.54.48.15.94,0,1.41-.15-.03-.15-.07-.29-.08-.36.38-.21.71-.39,1.09-.6-.4-.26-.42-.6-.42-.93.03-.02.07-.03.1-.05.11.21.22.42.38.71.13-.02.42.02.54-.11.38-.39.71-.84,1.07-1.28.14.05.34.11.58.18-.41.41-.7.84-.85,1.35.1.07.17.13.26.19-.41.08-.49.22-.35.52.05.11.08.24.12.36-.14.02-.28.03-.41.04-.05,0-.09-.02-.14-.03-.28-.05-.48.11-.65.3-.15.17-.08.34,0,.53.18.48.54.64,1.01.63.27,0,.5.05.7.24.29.28.66.23,1.02.18.3-.04.61-.12.91-.12.53,0,.89-.21,1.07-.72.01-.04.05-.06.08-.09.1.4.21.77.29,1.16.05.25.07.48-.07.74-.16.32-.19.7-.31,1.04-.05.16-.17.3-.26.45-.12.18-.24.36-.36.54-.04.07-.07.16-.11.22-.32.45-.65.88-.95,1.34-.27.41-.32.87-.22,1.35.03.14.03.29.01.44-.06.48-.15.96-.17,1.44-.01.24.05.47-.09.58.04.21.07.35.08.49.06.66-.26,1.31.03,1.99.18.41-.02.89.07,1.34,0,.01-.03.03-.03.05-.02.1-.06.19-.05.29.03.31.13.63.09.93-.05.36.08.63.22.92.06.13.2.23.32.33.07.07.15.12.27.22-.48.21-.89.36-1.27.57-.24.14-.55.36-.59.58-.06.41-.28.66-.52.93-.37.41-.46.86-.19,1.35.3.52.62,1.03.98,1.52.15.21.39.35.61.5.09.06.21.07.26.09.17-.03.29-.05.41-.07.02-.04.05-.12.1-.15.16-.09.32-.2.49-.23.39-.07.77-.12,1.03-.48.07-.09.27-.16.38-.13.42.13.8.35,1.24.45.41.09.77.4,1.24.39.52-.01,1.04,0,1.56,0,.15,0,.3.02.44-.02.38-.13.76-.26,1.12-.45.69-.36,1.45-.43,2.19-.6.04.38.03.73-.29.99-.14-.34-.46-.3-.75-.32-.04,0-.13.07-.13.12-.02.28-.04.57-.03.85,0,.32.06.63.05.95-.02.6-.21,1.18-.14,1.8.05.41-.04.83-.04,1.24,0,.48.03.97.03,1.45,0,1.2-.02,2.4-.01,3.59,0,.16.09.32.14.47-.04.55-.16,1.11-.23,1.68-.07.57-.28,1.11-.23,1.71.03.35-.22.71-.31,1.08-.06.26-.34.55.03.8-.21.24-.64,1.34-.64,1.63,0,.11.04.24,0,.34-.32.99-.66,1.97-.96,2.96-.18.6-.27,1.22-.42,1.83-.25,1.06-.53,2.12-.78,3.19-.27,1.18-.53,2.36-.79,3.54-.03.16.04.37-.04.48-.19.25-.1.41.06.6.07.08.12.16.17.23-.16.2-.3.38-.4.5.19.19.34.33.54.53-.18.02-.29.01-.39.05-.09.04-.17.12-.29.21.18.04.27.06.43.1-.13.09-.24.12-.27.18-.07.14-.18.34-.13.44.16.36.16.64-.13.96-.3.33-.08.77-.17,1.14-.06.04-.12.1-.11.14.13.4-.28.64-.29,1,0,.12-.13.24-.1.34.05.24-.06.43-.13.63-.06.17-.11.35-.16.53.03.01.06.03.09.04.06-.11.13-.21.18-.32.15-.36.21-.39.62-.3-.43.26-.65.44-.35.9-.1.13-.21.26-.32.4.03.05.09.1.09.15-.03.25-.07.5-.11.75-.04.25-.26.5.05.73.03.02.01.13-.01.19-.05.13-.12.26-.19.38-.09.13-.17.24-.06.42.03.04-.06.18-.12.26-.04.05-.12.06-.19.1.24.26.23.35.06.49.02.13.04.2.02.25-.05.14-.16.27-.18.42-.04.25-.03.51-.06.76-.01.1-.05.28-.11.29-.31.09-.22.37-.2.51.07.38-.14.61-.38.81-.2.17-.32.56-.18.8-.08.06-.17.11-.27.18.12.07.18.09.22.13.04.03.07.08.1.13.08-.06.14-.11.2-.15.02.03.05.05.07.08-.11.09-.21.23-.33.26-.19.05-.24.17-.28.32-.08.27-.16.54-.24.81,0,.03-.01.06,0,.08.2.35-.07.66-.16.95-.22.73-.59,1.42-.86,2.14-.17.46-.26.95-.43,1.41-.25.64-.37,1.32-.69,1.93-.3.57-.5,1.2-.74,1.8-.1.24-.18.48-.28.72-.18.43-.48.84-.53,1.28-.04.41-.29.7-.36,1.07-.07.41-.26.79-.22,1.23,0,.08-.06.21-.13.24-.26.12-.23.37-.31.58-.14.38-.31.76-.5,1.12-.17.34-.55.38-.85.55-.26.15-.5.13-.73-.03-.65-.48-1.37-.44-2.09-.26-.55.13-1.09.34-1.56.48-.12-.41-.2-.83-.36-1.21-.08-.19-.27-.39-.47-.48-.52-.23-1.06-.37-1.65-.3-.78.1-1.57.16-2.35.24-.15.01-.3,0-.46,0,.06-.1.09-.18.14-.24.36-.37.37-.94.74-1.31-.07-.03-.14-.06-.23-.1.16-.36.32-.7.48-1.06-.08-.02-.15-.03-.21-.04.22-.3.22-.74.6-.93.01,0,.01-.04.01-.05.02-.24.02-.49.06-.73.05-.3.05-.67.23-.87.23-.25.27-.56.39-.83.52-1.16.98-2.34,1.46-3.51.22-.54.39-1.09.61-1.63.45-1.12.92-2.23,1.38-3.35.11-.27.19-.55.3-.83.31-.76.64-1.51.94-2.27.17-.42.29-.85.44-1.27.09-.26.2-.5.31-.76.05-.11.15-.23.15-.34-.02-.48.21-.86.39-1.27.03-.06.02-.19,0-.2-.18-.08-.07-.23-.02-.27.37-.36.38-.87.55-1.31.06-.16.11-.32.17-.49-.28-.01-.41.12-.42.35-.02.22-.05.45-.12.66-.05.17-.19.3-.25.47-.12.32-.21.66-.33.99-.07.21-.19.4-.25.61-.1.4-.16.81-.25,1.21-.02.09-.07.19-.13.25-.37.33-.49.79-.68,1.21-.32.7-.62,1.42-.95,2.11-.06.13-.24.21-.37.32-.01.01-.02.03-.03.05.08,0,.15,0,.22.01.02.03.04.05.06.08-.16.11-.31.21-.48.33.34.21.25.45-.2.77.18.27-.04.43-.16.61-.12.19-.24.38-.36.57-.03-.02-.06-.04-.09-.06.09-.19.18-.39.27-.58-.03-.01-.06-.03-.1-.04-.1.22-.2.44-.3.66.11.05.19.09.23.1-.23.59-.48,1.15-.66,1.73-.08.25-.12.51-.23.75-.46,1.02-.91,2.05-1.35,3.08-.15.34-.25.7-.39,1.04-.15.36-.31.71-.46,1.06-.06.15-.06.34-.15.46-.15.21-.11.36.01.47-.17.34-.34.65-.48.97-.09.2-.17.4.03.61.07.07.01.26.02.39h-.32c-.05.34-.12.73-.18,1.12.18-.03.3-.04.42-.06,0,.02.01.05.02.07-.19.09-.22.43-.6.36-.08.26-.16.56-.26.89-.15-.02-.34-.03-.53-.07-.39-.08-.79-.15-1.17-.26-.29-.08-.41,0-.41.3,0,.27-.06.51-.43.36-.03-.01-.08.01-.12.02-.02.03-.04.05-.05.08.47-.05.51.29.64.56.05.11.17.19.31.34-.25-.08-.46-.12-.64-.2-.77-.31-1.41-.84-2.08-1.32-.78-.56-1.54-1.16-2.37-1.62-1.28-.71-2.64-1.28-3.94-1.96-.75-.38-1.48-.82-2.18-1.28-.55-.36-1.05-.8-1.58-1.21-.48-.37-.97-.72-1.42-1.12-.58-.53-1.15-1.07-1.68-1.65-.45-.49-.84-1.03-1.27-1.54-.19-.22-.37-.53-.62-.61-.39-.13-.61-.37-.81-.69-.24-.38-.63-.48-1.05-.29-.08.04-.18.06-.3.1,0-.09,0-.14.02-.17.3-.45.43-1.07,1.12-1.14.05,0,.09-.06.14-.1.32-.23.62-.5.97-.69.8-.42,1.49-.98,2.1-1.63.72-.78,1.39-1.6,2.08-2.4.57-.66,1.15-1.3,1.72-1.96.52-.6,1.04-1.19,1.56-1.79.45-.53.89-1.07,1.34-1.6.29-.34.58-.68.86-1.02.09-.12.15-.26.24-.38.13-.15.28-.26.41-.41.18-.21.35-.43.52-.65,0-.01-.02-.02-.03-.03-.06.03-.13.07-.19.1-.02-.02-.04-.05-.06-.07.16-.13.31-.27.47-.4.13-.1.27-.18.39-.28.24-.22.47-.44.69-.68.11-.11.27-.29.24-.39-.08-.28.13-.29.24-.26.22.05.33-.08.43-.21.44-.52.87-1.05,1.29-1.59.46-.59.92-1.18,1.37-1.78.24-.31.4-.69.68-.95.4-.38.6-.87.92-1.29.05-.07.08-.16.12-.24h-.19c.45-.17.59-.57.78-.93.25-.47.48-.95.76-1.4.44-.72.89-1.42,1.35-2.13.34-.52.7-1.03,1.06-1.54.37-.51.73-1.03,1.13-1.52.6-.73,1.24-1.44,1.86-2.17.19-.23.35-.48.56-.69.99-1.04,2.01-2.06,2.98-3.12.91-1,1.77-2.04,2.67-3.05.29-.32.6-.63.83-.86-.15.3-.34.69-.55,1.06-.18.33-.38.66-.59.98-.34.54-.67,1.09-1.05,1.6-.49.65-1.02,1.27-1.53,1.9-.56.68-1.12,1.36-1.67,2.04-.34.42-.67.85-1,1.29-.08.1-.09.25-.15.37-.04.08-.1.15-.17.21-.07.06-.17.09-.22.16-.26.37-.5.76-.76,1.13-.03.04-.07.07-.1.1-.25.25-.52.48-.74.76-.26.33-.47.69-.69,1.05-.12.19-.21.41-.32.61-.11.21-.2.42-.34.61-.15.22-.37.39-.52.61-.33.5-.65,1.01-.96,1.51-.04.06-.06.12-.09.18-.14.23-.26.49-.45.69-.13.13-.34.18-.52.27,0,.03.02.05.03.08.35-.12.7-.23,1.08-.35-.09-.05-.15-.08-.19-.1.31-.31.6-.63.91-.93.11-.11.22-.2.09-.27.11-.11.22-.2.32-.31.21-.24.4-.48.6-.72.1-.13.19-.26.33-.44-.17,0-.26-.01-.42-.02.1-.11.15-.18.21-.23.22-.19.47-.36.66-.58.44-.51.84-1.05,1.26-1.58.01-.01.03-.03.02-.05-.03-.3.19-.47.35-.68.24-.31.42-.66.66-.97.37-.5.77-.99,1.16-1.48.42-.55.84-1.09,1.25-1.65.39-.52.77-1.04,1.15-1.56.6-.8,1.2-1.59,1.79-2.39.24-.33.5-.65.69-1,.35-.62.61-1.3.99-1.9.59-.94,1.24-1.84,1.9-2.73.51-.68,1.07-1.32,1.62-1.97.72-.87,1.43-1.75,2.16-2.6.24-.28.56-.49.83-.75.06-.06.09-.16.1-.25,0-.03-.1-.11-.14-.1-.29.07-.66.06-.86.24-.63.57-1.22,1.18-1.78,1.82-.46.52-.85,1.11-1.29,1.64-.5.61-1.04,1.19-1.54,1.8-.44.53-.86,1.09-1.3,1.63-.93,1.15-1.85,2.32-2.81,3.45-.78.93-1.62,1.82-2.43,2.73-.26.29-.48.64-.77.89-.91.76-1.54,1.75-2.29,2.64-.44.52-.8,1.1-1.22,1.63-.45.57-.93,1.12-1.39,1.67.09.04.14.06.18.08-.02.02-.04.05-.06.07-.08.02-.16.04-.26.06.04.06.07.1.09.12-.14.12-.3.22-.41.36-.1.12-.14.29-.22.43-.32.49-.65.97-.98,1.45-.21.3-.29.7-.65.9-.01,0-.01.03-.03.06.05.04.1.09.19.17-.51.38-1.04.68-1.39,1.23.15-.01.27-.02.38-.03,0,.02.02.05.03.07-.18.11-.35.24-.55.32-.23.1-.26.24-.22.48.03.16-.09.36-.18.52-.04.07-.18.08-.27.12l-.03-.07c.11-.16.22-.31.33-.47-.03-.03-.07-.06-.1-.09l-.46.75h.25s.01.07.02.1c-.2.1-.4.2-.59.3,0,.01.02.03.03.04.08-.01.15-.03.24-.05-.08.33-.28.46-.59.48-.1,0-.2.11-.3.17.05.08.1.16.2.32-.15.1-.32.21-.49.33-.04.03-.08.04-.12.08-.11.11-.23.22-.36.35,0,0,.02.06.04.1-.09.08-.19.13-.23.21-.25.5-.64.85-1.1,1.13-.06.04-.12.09-.17.15-.26.35-.5.72-.79,1.05-.24.27-.55.5-.82.74-.09.08-.17.18-.26.27-.19.2-.41.39-.56.62-.1.16-.32.23-.28.49.03.16-.01.36-.09.51-.13.25-.31.48-.47.72-.01.02-.04.03-.06.05-.03-.06-.07-.12-.1-.18-.31.22-.59.42-.84.6.08.13.17.22.15.28-.03.09-.12.16-.21.21-.1.07-.25.08-.32.17-.5.58-.98,1.18-1.46,1.78-.04.05-.03.24.01.26.28.12.01.32.08.46-.09.02-.17.04-.26.07-.03,0-.06.02-.07.04-.08.11-.19.17-.28.03-.06-.09-.05-.21-.08-.34-.4.35-.87.67-1,1.28-.02.09-.1.18-.17.25-.26.28-.59.51-.79.83-.32.51-.8.84-1.19,1.27-.08.09-.11.23-.2.31-.32.3-.65.59-.99.87-.5.42-.94.93-1.6,1.12-.08.02-.14.09-.21.14-.26.18-.5.37-.77.54-.29.18-.61.31-.9.5-.22.14-.31.15-.39-.1-.17-.53-.32-1.08-.49-1.61-.05-.15-.12-.28-.18-.42-.33-.83-.61-1.67-.99-2.47-.48-1.02-1.38-1.68-2.28-2.31-.96-.67-1.87-1.38-2.53-2.36-.41-.6-.78-1.23-1.16-1.84-.19-.3-.4-.6-.57-.91-.17-.3-.45-.57-.36-.98,0-.03-.04-.09-.07-.11-.15-.06-.31-.1-.46-.15-.22-.08-.43-.04-.45.19-.03.31-.02.66.09.94.22.55.52,1.08.81,1.6.24.43.48.85.77,1.24.28.38.49.79.79,1.17.73.92,1.56,1.72,2.6,2.26,1.13.59,1.91,1.47,2.29,2.7.2.66.45,1.3.68,1.95.2.58.39,1.16.62,1.73.29.72.35,1.53.92,2.16.7.77,1.3,1.63,2,2.4.77.85,1.61,1.64,2.41,2.46.44.44.84.92,1.3,1.34.72.65,1.55,1.17,2.29,1.79.68.58,1.52.98,2.31,1.42.49.27,1.04.45,1.56.69.41.19.8.42,1.19.65.73.41,1.45.83,2.17,1.25.57.33,1.13.7,1.72.99.24.12.56.09.77.32.35.4.8.61,1.33.63.38.02.76,0,1.14,0,0-.03.01-.05.02-.08-.24-.15-.48-.29-.72-.44.01-.03.03-.06.04-.09.36.1.73.2,1.09.3,0-.02.02-.05.02-.07-.06-.03-.11-.07-.24-.14.29-.02.51-.03.72-.04.42-.03.85-.03,1.27-.09.29-.04.56-.2.85-.22.72-.05,1.45-.07,2.17-.06.2,0,.48.1.56.24.17.3.21.67.34,1,.11.28.21.6.42.8.27.26.65.26.99.12.06-.13.16-.21.24-.3.1-.11.19-.22.34-.4.11-.06.29-.17.53-.31,0,0,.01-.06.02-.08.13,0,.22-.01.32,0,.47.06.89.26,1.23.58.34.32.69.46,1.14.37.12-.02.23-.08.34-.12.56-.17,1.13-.35,1.7-.52.33-.1.66-.18.99-.27.19-.05.29,0,.21.3.34-.12.6-.22.88-.33,0,.1,0,.2.02.2.22.01.48.08.67,0,.32-.13.68-.16.88,0,.42-.06.79-.11,1.15-.16v.05c-.26.06-.53.12-.84.19.42.07.8.19,1.17.18.48-.01.92.06,1.36.26.23.11.51-.02.56-.28.02-.08.22-.25-.05-.3,0,0,.02-.06.01-.09-.01-.09-.03-.18-.06-.33.01-.03.05-.15.11-.24.07-.11.17-.29.25-.29.39.01.58-.26.77-.5.09-.11.16-.34.11-.46-.21-.51-.31-1.03-.19-1.58.01-.04,0-.1,0-.14-.23-.62-.05-1.28-.22-1.92-.1-.37,0-.8.01-1.2.01-.39.02-.77.04-1.16.05-.86.12-1.71.18-2.57.01-.18-.02-.35-.03-.55.2.01.14-.17.14-.33,0-.17.06-.35.1-.52.02-.12.07-.23.08-.35.02-.43.04-.85.05-1.28.01-.42.22-.84-.06-1.25-.04-.06.03-.2.06-.3.08-.21.19-.41.24-.63.06-.23.05-.47.08-.71.05-.37.12-.74.15-1.11.05-.55.06-1.11.11-1.66.07-.97.16-1.95.23-2.92.02-.31.07-.64-.28-.91.34.05.31-.17.33-.33.08-.62.13-1.24.21-1.86.16-1.23.35-2.47.51-3.7.07-.57.1-1.15.17-1.72.14-1.02.33-2.04.46-3.07.09-.67.11-1.35.17-2.02.03-.28.09-.56.12-.84.03-.35,0-.71.07-1.05.07-.4.23-.79.31-1.19.14-.73.25-1.47.37-2.21.05-.32.08-.64.13-.96.05-.29.01-.67.19-.86.25-.27.17-.57.21-.84.11-.76.14-1.54.19-2.31.03-.48.05-.97.09-1.45.02-.26-.09-.54.08-.68.03-.29.03-.51.08-.72.06-.28.19-.55.22-.83.06-.59.08-1.19.11-1.79,0-.13,0-.27.03-.4.06-.32.14-.64.23-1.03.36.39.66.71,1.13.76.02,0,.03.02.04.04.33.36.77.49,1.21.61.87.24,1.76.25,2.65.25.53,0,1.06-.02,1.58-.01,1.46.01,2.91-.07,4.35-.3.69-.11,1.36-.31,2.03-.47l.03.07s-.09.09-.08.09c.08.13.16.21.17.3.02.13.02.27,0,.4-.12.67-.25,1.33-.39,1.99-.19.92-.4,1.83-.59,2.75-.16.79-.3,1.58-.47,2.36-.1.49-.23.98-.36,1.47-.13.51-.29,1.01-.41,1.52-.15.66-.27,1.32-.4,1.99-.02.09-.04.19-.05.28-.13,1.03-.27,2.07-.4,3.1-.05.36.03.72-.14,1.08-.09.2-.06.47-.05.7,0,.23,0,.48.08.69.13.36.34.7.5,1.05.13.28.25.57.34.86.03.08-.04.18-.05.24.08.2.15.39.22.57.04.1.07.2.09.3.06.37.12.74.16,1.12.02.18-.03.36-.01.54.09.75.21,1.5.3,2.25.05.4.04.8.1,1.2.15,1.06.37,2.11.39,3.18,0,.5.04,1,.04,1.49,0,.66.03,1.32,0,1.97-.04.62-.1,1.24-.22,1.85-.29,1.49-.45,3.01-.99,4.45-.23.61-.43,1.23-.87,1.74-.27.31-.55.6-.83.91.06.02.15.04.21.05-.03.1-.09.2-.07.28.03.15.12.28.19.43.04-.05.09-.11.14-.17.34.27.5.26.67.02.14-.03.24-.02.29-.06.24-.21.38-.55.77-.56,0,0,.02-.03.02-.05q-.2-.33.03-.73c.04-.07.08-.15.1-.24.15-.66.31-1.33.44-2,.13-.61.24-1.22.34-1.84.1-.59.16-1.19.25-1.78.11-.78.29-1.57.33-2.35.05-1.1.02-2.2-.03-3.3-.04-.94-.15-1.87-.25-2.8-.06-.59-.15-1.17-.27-1.75-.12-.6-.34-1.18-.45-1.78-.13-.73-.18-1.49-.3-2.22-.09-.52-.25-1.03-.38-1.55-.02-.09-.07-.21-.03-.28.12-.22-.01-.4-.03-.6-.06-.6-.12-1.2-.12-1.8,0-.62.05-1.24.11-1.86.04-.48.11-.96.18-1.43.13-.84.23-1.68.42-2.51.2-.89.63-1.73.55-2.68,0-.09.06-.2.1-.3.04-.09.1-.18.12-.28.11-.45.18-.91.3-1.36.17-.61.4-1.21.58-1.83.2-.68.33-1.37.58-2.03.23-.62.25-1.27.39-1.89.12-.5.22-.99.33-1.5.2.02.36.07.52.05.1,0,.25-.08.27-.16.17-.51.34-1.02.45-1.54.16-.77.11-1.55.07-2.34-.03-.63.05-1.27.11-1.9.05-.5.31-1.01-.04-1.5-.03-.04-.03-.09-.03-.14,0-.29,0-.58-.01-.87,0-.16-.06-.33-.09-.52-.16.08-.24.12-.32.16-.02-.02-.05-.04-.07-.06.11-.13.2-.29.32-.4.23-.21.25-.43.05-.68-.08-.09-.13-.21-.19-.31.02-.03.05-.05.08-.08.19.07.38.14.62.23-.08-.18-.13-.27-.15-.36-.04-.16,0-.36-.09-.48-.37-.55-.24-1.17-.22-1.74.02-.9.12-1.81.26-2.7.16-1.07.35-2.13.6-3.18.23-.95.5-1.9.86-2.8.59-1.45.91-2.97,1.18-4.5,0-.06,0-.11,0-.17.01-.24.02-.49.05-.73.03-.2.16-.4.13-.58-.06-.42-.18-.84-.27-1.26ZM60.98,14.82c.24.02.42.03.6.04-.02.25-.04.25-.6-.04ZM43.32,12.48c-.24-.07-.43-.12-.67-.18.32-.24.49-.19.67.18ZM42.39,12.44c.5-.13.87.27,1.34.21-.14.15-1.01-.01-1.34-.21ZM47.06,16.8c-.14-.02-.28-.05-.43-.07-.04.5-.57.37-.89.68.08.04.16.08.29.14-.27.01-.5-.04-.6.23-.02.04-.19.02-.29.03-.14.01-.28.03-.43.05q-.24.03-.3-.29c.23.02.45.05.71.07.1-.33.2-.67.31-1.02.02-.06.05-.13.09-.18.35-.39.26-.81.13-1.25-.09-.3-.19-.6-.23-.91-.05-.41-.32-.63-.58-.88-.08-.08-.11-.21-.16-.32-.02-.04-.02-.1-.05-.12-.4-.28-.31-.66-.15-1,.41-.91.99-1.66,1.98-2,.4-.14.57-.06.61.31,0,.07-.04.15-.06.22-.06-.03-.13-.06-.19-.09-.1-.04-.2-.09-.29-.13-.01.04-.02.08-.04.12.05.01.1.02.12.02-.88,1.32-1.18,2.72-.63,4.26.08.23.19.45.28.67.03.07.05.14.05.21,0,.44.11.79.55.98.09.04.16.13.23.19,0,.03-.02.05-.03.08ZM61.88,17.26s.02.05.03.07c-.09.07-.18.14-.3.23-.06-.11-.1-.19-.15-.28.14,0,.28-.02.42-.03ZM56.75,28.24c.4-.94.8-1.89,1.23-2.82.44-.95.89-1.88,1.37-2.81.26-.51.59-.97.87-1.47.14-.24.23-.5.35-.79.14-.03.34-.07.54-.11.23-.04.45-.08.62.16.08.11.21.19.33.28.4.29.71.16.81-.32.06-.27.15-.54.19-.82.04-.33.03-.66.04-.99,0-.04-.04-.09-.07-.12-.28-.37-.55-.73-.85-1.13.59-.5,1.19-.93,1.83-1.31.52-.31.99-.7,1.51-1,.88-.5,1.78-.97,2.68-1.44.19-.1.39-.1.54.09.04.04.09.1.14.1.29.01.31.23.26.41-.07.32-.19.64-.3.95-.07.2-.15.39-.24.58-.04.1-.11.19-.22.25.01-.2.03-.4.04-.6-.6-.05-.61-.04-1.14.63-.07-.1-.14-.19-.25-.33-.26.27-.52.52-.74.8-.86,1.07-1.63,2.19-2.26,3.42-.58,1.13-1.35,2.16-2.13,3.17-.41.53-.74,1.14-1.1,1.72-.25.41-.55.8-.72,1.23-.33.85-.64,1.71-.86,2.59-.22.86-.31,1.74-.46,2.62-.03.19-.08.38-.17.54-.22.38-.33.77-.3,1.22.03.49,0,.5-.57.56.27-.33.24-.69.13-1.06-.13-.47-.26-.94-.35-1.42-.03-.17.03-.35-.18-.44-.02,0,0-.08-.01-.12-.04-.13-.08-.26-.12-.38-.06-.18-.18-.37-.17-.55.01-.2-.01-.37-.16-.49-.31-.24-.21-.51-.09-.79ZM49.5,14.73c.02.47-.32,1.07-.67,1.1.23-.38.44-.72.67-1.1ZM49.11,17.35s0-.02,0-.03c.04-.33.16-.54.48-.74.32-.21.53-.61.72-.97.3-.58.54-1.19.81-1.79.01-.02.03-.04.05-.06-.17,1.19-.71,2.22-1.57,3.04.29.31.52.34.81.15.55-.36.87-.89,1.1-1.48.19-.5.36-1.01.49-1.52.23-.91.43-1.83.73-2.85.04.09.05.22.11.25.97.42.99,1.41,1.35,2.19.21.46.43.92.69,1.35.2.35.62.27.94.36.21.06.43.05.66.07,0,.36-.12.65-.34.92-.13.15-.34.27-.27.53,0,.03-.02.08-.05.1-.08.07-.16.14-.23.21-.08.43,0,.85.11,1.28.06.24.16.44.31.64.15.21.3.45.28.72-.01.16-.1.32-.27.36-.06.01-.12.02-.18.03,0,0,0,.02,0,.03-.05,0-.09-.02-.15-.03-.03,0-.06,0-.09,0,0,.11.02.2.03.37-.32-.03-.64-.05-.9-.08-.06.07-.1.15-.13.15-.06,0-.14-.05-.16-.1,0-.01-.01-.03-.02-.04-.95.08-1.83-.07-2.69-.52-.44-.23-.82-.54-1.21-.85-.27-.22-.56-.41-.89-.42-.18.4-.37.81-.58,1.28-.2.07-.43,0-.82-.3.17-.26.35-.52.49-.79.14-.27.26-.57,0-.87.37-.05.26-.4.41-.59ZM47.95,17.54c.22.1.44.19.65.29,0,.04,0,.07-.01.11-.17.06-.37.19-.5.14-.11-.04-.13-.3-.2-.46.02-.03.04-.05.06-.08ZM48.09,21.64s-.07.06-.12.11c-.09-.2-.17-.38-.27-.59.18-.11.36-.23.54-.35.35-.23.76-.38.95-.82.06-.14.29-.19.44-.3.24-.17.3.1.44.17.26.12.52.24.78.34.35.14.71.25,1.06.39.15.06.28.16.39.23-.36,1.6-.29,3.19.12,4.79-.67-.23-1.29-.45-1.85-.65-.61.08-1.2.16-1.81.24.09-.35.14-.67.25-.97.17-.44.12-.89.06-1.33-.05-.35-.11-.7-.19-1.04-.04-.14-.13-.34-.24-.38-.19-.07-.42-.06-.57.15ZM47.64,25.56c.11-.14.3-.23.46-.33.02.03.04.05.06.08-.09.24-.02.58-.46.65-.02-.14-.11-.33-.06-.4ZM47.08,28.31c.11-.62.41-1.13.94-1.49.04-.02.09-.06.12-.05.24.07.35-.02.4-.26.03-.13.12-.19.25-.07.05.05.13.07.23.13.07-.27.25-.32.45-.31.39.02.79.04,1.18.08.35.03.7.07,1.04.14.92.21,1.64.76,2.26,1.43.47.51.87,1.09,1.31,1.64.37.47.72.94.86,1.54,0,.04.04.09.07.12.54.44.74,1.06.89,1.7.11.48.1.49.62.64-.12.1-.2.22-.31.24-.82.17-1.53.6-2.28.94-.07.03-.14.06-.21.09-.41.15-.4.15-.67-.2-.16-.21-.29-.46-.62-.45-.02,0-.04-.01-.05-.03-.27-.42-.78-.5-1.13-.81-.7-.62-1.44-1.21-2.13-1.83-.21-.19-.41-.25-.65-.13-.24.12-.42.29-.38.61.06.46.3.79.64,1.09.43.38.84.78,1.27,1.16.45.4.9.78,1.36,1.17.18.15.16.21-.05.31-.33.16-.63.39-.97.55-1.21.56-2.46,1-3.85,1.01-.02-.12-.04-.25-.06-.38-.21-1.09-.43-2.18-.63-3.27-.32-1.77-.21-3.53.11-5.28ZM53.51,64.99c-.06.5-.14,1-.21,1.5-.11.73-.34,1.45-.32,2.17.03.66-.31,1.25-.17,1.9.08.36.11.73-.11,1.07-.01.02,0,.06,0,.08.17.26.05.51-.03.77,0,0-.01.02-.01.03,0,.21,0,.43,0,.64,0,.05.02.13,0,.16-.2.2-.06.43.02.57.13.21.1.26-.11.31-.05.01-.08.06-.16.13h.32c-.5,2.24-.5,4.53-1.03,6.75.02,0,.07-.02.11-.03-.14.32.31.77-.18,1.02-.03.08-.08.17-.08.25,0,.12.03.23.03.35,0,.15-.14.31.02.46.01.01-.08.14-.15.24.06.26.14.57.22.9-.25.07-.5.16-.5.51.07-.01.15-.03.15-.03-.05.21-.12.42-.15.64-.08.56-.14,1.12-.19,1.68-.01.13.04.26.06.39,0,.05.04.09.03.13-.07.66-.13,1.32-.21,1.97-.06.5-.15,1.01-.21,1.51-.06.44-.1.87-.15,1.33.09,0,.16,0,.25.02-.02.04-.02.08-.04.08-.2.08-.25.24-.27.44-.1,1.01-.15,2.01-.11,3.03.02.46-.06.93-.06,1.39,0,.75.03,1.49.04,2.24,0,.25-.04.5-.03.75,0,.26.06.51.09.77.03.25.12.51-.22.71.3.04.35.18.38.38.08.48.13.95,0,1.43-.06.19,0,.42,0,.63,0,.2-.12.32-.27.47-.39.38-.78.08-1.17.07-.07,0-.15-.04-.22-.05-.89-.1-1.79-.19-2.68-.31-.77-.1-1.53-.05-2.29.09-.11.02-.22.03-.29.04.32-1.16.63-2.32.97-3.47.21-.72.47-1.42.7-2.13.12-.37.18-.75.29-1.12.1-.35.28-.66.56-.92.14-.13.24-.34.29-.53.1-.39.11-.8.22-1.18.1-.38.29-.74.42-1.12.28-.82.55-1.64.83-2.46.19-.56.41-1.11.57-1.67.25-.89.47-1.79.69-2.7.13-.55.25-1.11.36-1.67.22-1.14.49-2.27.58-3.44.05-.71.24-1.41.35-2.12.07-.45.1-.91.16-1.37.07-.55.16-1.1.23-1.65.07-.52.13-1.04.21-1.56.09-.61.2-1.22.29-1.84.03-.18-.01-.38.02-.56.11-.57.24-1.14.37-1.71.16-.71.33-1.42.51-2.13.06-.24.16-.46.22-.7.05-.21.05-.43.08-.67.05,0,.13,0,.17.01.12-.56.26-1.12.36-1.67.07-.38.11-.76.15-1.15.06-.55.27-1.05.54-1.52.03.46-.17.86-.28,1.24.03.1.09.18.08.25Z"/>
      <path class="cls-1" d="M.23,51.94c-.11.04-.18.06-.2.07,0-.2-.02-.4-.03-.59-.02-.51.09-.99.3-1.46.09-.22.05-.54-.05-.78-.15-.36-.1-.72-.09-1.07,0-.39.11-.78.08-1.17-.03-.47.1-.91.15-1.36.05-.46.18-.92.24-1.38.06-.41.08-.82.12-1.23.03-.31.04-.62.08-.93.01-.1.07-.19.14-.28.04-.08.09-.17.13-.25.11-.22.17-.48.33-.66.31-.34.4-.84.87-1.07.14-.07.18-.32.28-.48.02-.04.11-.03.15-.07.22-.2.44-.4.71-.64-.16-.05-.22-.07-.3-.1.01-.02.02-.06.04-.06.37-.15.67-.46,1.12-.46.23,0,.46-.13.7-.16.1-.01.23.06.32.13.7.59,1.37,1.24,2.1,1.78.63.47,1.36.82,2.03,1.24.59.37,1.21.65,1.89.84.74.2,1.44.52,2.17.76.61.2,1.24.35,1.85.52.77.22,1.54.46,2.31.68.69.19,1.38.38,2.07.54.39.09.8.11,1.18.22.21.06.39.24.58.36,0-.04.01-.07.02-.11.12-.02.25-.07.37-.04.76.14,1.51.27,2.26.44.41.09.8.25,1.19.38.07.02.16.09.21.07.41-.13.75.05,1.11.21.19.09.45.04.66.09.15.04.28.15.43.23-.01-.05-.03-.11-.04-.19.02-.01.05-.03.07-.03.3.04.6.1.9.13.27.02.55,0,.83.02.17,0,.34.03.49.09.16-.06.33-.12.49-.17,0,.02.02.05.03.07-.02.03-.04.07-.08.14.22-.02.41-.04.59-.05.17-.01.35-.04.52-.02.25.04.5.11.74.19.76.24,1.53.17,2.3.13.3-.01.59-.21.9-.26.8-.13,1.61-.22,2.42-.32.28-.04.56-.08.85-.11.29-.03.58-.03.86-.09.59-.11,1.18-.26,1.78-.36.19-.03.4.03.6.04.48.03.95.07,1.43.1.05,0,.11-.01.17-.02-.04.21-.11.25-.29.21-.17-.03-.34-.06-.51-.05-.05,0-.14.13-.14.19,0,.2-.09.25-.27.29-.25.05-.48.16-.73.24-.85.28-1.71.55-2.55.85-1.17.42-2.33.87-3.5,1.3-.29.1-.61.12-.9.22-.19.07-.37.21-.54.32-.08.05-.15.13-.23.16-.46.17-.91.35-1.37.5-.58.2-1.18.34-1.75.58-.59.24-1.15.58-1.74.84-.6.26-1.21.5-1.83.7-.28.09-.55.07-.81.3-.21.18-.61.16-.92.22-.1.02-.2,0-.34,0,.06.1.09.14.09.15-.27.12-.52.25-.79.35-.24.09-.49.16-.73.24-.13.04-.25.09-.38.11-.27.05-.55.08-.83.14-.24.05-.47.12-.7.19-.18.06-.36.15-.55.18-.23.04-.43.08-.57.29-.45-.13-.91-.04-1.35.12-.29.11-.52.15-.7-.12-.14.1-.24.24-.37.26-.4.07-.82.09-1.23.15-.1.01-.19.09-.3.14-.36-.06-.75-.12-1.14.03-.16.06-.37-.01-.56-.02-.25-.01-.49-.01-.74-.04-.19-.02-.37-.06-.56-.1-.03,0-.05-.04-.08-.03-1.27.12-1.84.07-2.99-.26-.05-.02-.13-.05-.16-.02-.25.21-.54.11-.8.08-1.16-.12-2.33-.22-3.48-.41-1.01-.17-2.01-.44-3.01-.68-.55-.13-1.08-.31-1.63-.46-.1-.03-.2-.06-.34-.1.06.54.11,1.02.18,1.51.05.37.21.73.19,1.09-.03.61.18,1.15.32,1.71.14.58.38,1.15.5,1.73.17.85.55,1.62.92,2.38.4.82.94,1.58,1.4,2.37.34.58.64,1.18.97,1.76.06.1.17.18.2.21-.03.12-.1.23-.07.31.13.4.18.83.54,1.12.05.04.07.13.1.2.34.75.69,1.5,1.02,2.25.11.26.18.54.26.82.02.08.02.18-.02.25-.24.42-.12.89-.16,1.33-.02.23-.1.38-.34.47-.09-.12-.23-.24-.26-.38-.07-.36-.38-.67-.24-1.09.04-.13-.05-.32-.12-.46-.36-.77-.73-1.54-1.09-2.32-.23-.47-.46-.94-.68-1.42-.23-.51-.41-1.04-.66-1.53-.24-.46-.55-.88-.84-1.32-.19-.3-.42-.58-.59-.89-.31-.57-.6-1.16-.87-1.75-.12-.26-.18-.54-.26-.82-.15-.56-.26-1.13-.43-1.68-.12-.39-.34-.75-.45-1.14-.1-.36-.09-.75-.16-1.13-.04-.2-.13-.39-.19-.58-.02-.06-.04-.15,0-.19.18-.31.03-.65.08-.94.09-.46,0-.78-.31-1.09-.07-.07-.07-.24-.07-.36.01-.34.04-.67.07-1.05ZM1.24,46.25h-.04c-.08.09-.22.18-.23.28-.01.14.08.28.13.42.02.05.06.11.05.15-.07.3-.03.59.01.88.02.16,0,.32-.03.48-.02.18-.1.36-.09.54.05.53.13,1.06,0,1.59-.05.19,0,.41,0,.57.26.04.46.04.64.11.11.04.19.19.28.28.05.05.11.11.17.12.37.07.75.13,1.12.2.19.03.39.06.57.12.35.12.69.28,1.05.39.07.02.18-.06.29-.11.23.08.5.16.76.27.16.07.26.3.5.13.06-.04.3.05.37.14.11.14.22.17.38.2.16.03.37.05.47.16.18.2.25.08.35-.01.1.05.19.07.29.08.1.01.19,0,.29.01.05,0,.11.03.13.01.17-.17.26-.07.33.09.1.22.27.2.45.12.08-.04.15-.11.24-.18.25.11.5.17.79.03.32-.16.67-.05.97.1.16.08.27.27.39.41.1-.1.18-.26.28-.27.22-.02.46.01.67.08.26.08.5.1.77-.01.17-.07.45-.11.58-.02.23.17.41.05.62.06.18,0,.36.06.53.09.06.01.12.03.18.02.33-.06.66-.16.99-.19.23-.02.44-.08.65-.13.35-.08.73-.05,1.1-.05.3,0,.6,0,.94,0q.23-.29.87-.34c.08.13.13.26.22.33.07.05.21.03.3-.01.1-.04.18-.14.26-.22.1-.1.19-.21.29-.32.03.05.06.11.1.19.11-.1.2-.24.3-.25.18-.03.37.02.55.03.11,0,.21,0,.32-.01-.04-.09-.09-.17-.13-.24.14-.04.32-.13.5-.15.39-.04.79-.1,1.17-.05.53.07.77-.03.79-.5.28,0,.56.03.83,0,.54-.07,1.08-.18,1.61-.28.05,0,.09-.06.13-.09.08-.05.16-.12.25-.14.24-.06.51-.06.73-.16.23-.12.4-.35.63-.49.18-.12.4-.18.6-.28.08-.04.23-.09.23-.13-.02-.32.25-.3.42-.35.66-.2,1.34-.36,2-.58.8-.26,1.6-.53,2.34-.93.71-.38,1.41-.76,2.19-.97.46-.12.91-.27,1.36-.41,0-.03-.02-.06-.03-.1-.23.05-.45.1-.68.15-.89.21-1.79.4-2.68.63-.41.11-.79.33-1.2.42-.92.21-1.85.37-2.78.55-.14.03-.28.04-.42.05-.71.05-1.42.11-2.13.15-.55.04-1.11.06-1.66.09-.35.01-.71,0-1.06.02-.36.02-.73.05-1.09.08-.2.02-.4.06-.64.1-.16-.04-.39-.14-.62-.14-.42,0-.84.04-1.26.08-.11.01-.22.11-.33.16-.06.03-.17.07-.19.05-.28-.29-.65-.18-.98-.24-.16-.03-.36.11-.54.17-.06.03-.17-.05-.21-.02-.21.14-.39,0-.5-.11-.2-.2-.34-.19-.46-.02-.43-.07-.83-.14-1.05-.18-.49.07-.84.07-1.16.17-.35.11-.68-.13-1.02.05,0-.04-.01-.09-.02-.13.15-.04.3-.07.44-.11-.42-.06-.85-.05-1.27-.06-.19,0-.37-.07-.56-.09-.16-.03-.44-.11-.47-.05-.16.27-.26.11-.38-.03-.08.16-.13.24-.33.1-.11-.07-.22-.47-.49-.15-.04-.04-.07-.08-.12-.1-.11-.06-.22-.12-.33-.17,0,.02-.02.04-.03.07l.1.12s-.02.04-.03.06c-.35-.16-.71-.33-1.06-.49v.09c-.11.06-.28.2-.36.16-.32-.16-.63-.34-.9-.56-.36-.3-.77-.44-1.25-.5.22.14.4.25.58.36-.02.03-.03.06-.05.08-.24-.13-.49-.27-.73-.4-.09-.05-.18-.1-.28-.12-.07-.02-.16.01-.22-.02-.4-.18-.81-.3-1.26-.32-.08,0-.21-.11-.23-.19-.09-.33-.3-.42-.59-.22-.17-.1-.33-.2-.52-.32-.01.13-.02.21-.04.36-.11-.11-.17-.16-.22-.22-.04-.04-.08-.1-.13-.13-.13-.06-.29-.08-.4-.16-.56-.4-1.04-.89-1.45-1.46-.05-.07-.13-.14-.21-.17-.31-.1-.62-.18-.91-.26-.15.71-.31,1.43-.46,2.16ZM16.8,44.37c-.18.3-.42.18-.6.09-.26-.13-.49-.35-.82-.25-.05.01-.12-.08-.18-.12-.07-.05-.14-.11-.21-.13-.41-.11-.83-.19-1.23-.32-.29-.09-.67-.06-.8-.46,0-.02-.08-.03-.13-.03-.54-.04-1.04-.18-1.51-.45-.14-.08-.31-.11-.46-.16-.23-.08-.47-.16-.7-.24-.12-.04-.24-.1-.37-.15-.15-.05-.31-.06-.44-.14-.45-.27-.88-.58-1.32-.85-.33-.2-.71-.34-1.02-.57-.71-.5-1.4-1.04-2.11-1.55-.08-.06-.22-.05-.33-.03-.19.04-.37.1-.54.15-.91.58-1.38,1.49-1.78,2.53.9.57,1.83,1.16,2.75,1.76.66.43,1.37.67,2.16.67.26,0,.52.08.76.11,0,.1,0,.18-.01.25.07-.01.15-.02.22-.04.17-.04.34-.09.51-.13.01.03.03.06.04.1-.04.06-.07.14-.13.16-.18.08-.4.1-.56.21-.26.2-.55.12-.81.09-.74-.07-1.42-.36-2.08-.71-.64-.35-1.28-.69-1.91-1.03-.19-.1-.31-.1-.27.12-.22-.42-.7-.46-1.05-.7.02.23.03.42.05.66.5.21,1.04.45,1.6.69-.08.12-.12.17-.15.22.31.54.75.9,1.3,1.11.89.34,1.79.67,2.71.96.97.3,1.97.54,2.95.82.51.14,1.02.33,1.54.46.89.23,1.79.42,2.68.63.05.01.11.04.14.02.29-.21.57-.03.85.03.29.06.58.14.9.21.01-.14.02-.22.02-.23.23.16.49.49.74.48.34-.01.74.03,1.06-.2.07-.05.19-.08.26-.05.29.09.56.21.84.31,0-.03-.01-.06-.02-.09.17-.06.34-.18.5-.16.25.04.48.18.71.28.27-.37.75-.29.96.05.13-.16.23-.35.38-.45.13-.09.42.1.45.21.24-.01.51-.1.7-.02.45.19.83.16,1.2-.19.07.11.11.22.18.28.06.05.17.05.26.08.02-.24.22-.12.33-.15.12-.03.26,0,.38-.02.17-.03.39-.16.5-.1.46.27.96-.05,1.41.12.03.01.08-.04.12-.07.15-.1.29-.2.44-.3.01.02.03.04.04.06-.1.05-.2.11-.31.16.11.06.21.07.31.06.22-.04.43-.08.64-.15.12-.04.23-.15.38-.26.48-.07,1.05-.13,1.61-.23.25-.04.48-.18.73-.22.53-.09,1.07-.13,1.6-.23.4-.08.79-.21,1.19-.32-1.26-.13-2.43-.61-3.69-.57-1.23.04-2.45.05-3.69.07.03.09.04.13.09.25-.49-.14-.92-.26-1.33-.38-.04,0-.11.05-.15.03-.37-.14-.74-.29-1.12-.42-.13-.04-.26-.05-.4-.08-.04.3-.31.21-.48.3-.03-.03-.05-.05-.07-.07-.16-.27-.36-.41-.7-.37-.22.02-.45-.08-.67-.09-.3-.02-.61.02-.91,0-.18-.01-.36-.08-.52-.17-.05-.03,0-.22,0-.28-.14-.02-.28-.05-.43-.06-.15,0-.35-.14-.43.12,0,.03-.11.03-.18.03-.06,0-.12-.02-.18-.02-.19-.01-.38,0-.56-.03-.32-.06-.57-.31-.93-.34-.33-.03-.71-.14-.91-.51ZM32.48,48.03s.01.03.02.04c.37-.02.73-.05,1.1-.07,0-.03,0-.06,0-.1-.37.04-.74.08-1.11.12Z"/>
      <path class="cls-1" d="M68.58,8.12s-.04,0-.07,0c-.02-.43-.04-.85-.06-1.28-.22-.44-.18-.92-.19-1.39,0-.03.02-.06.04-.09-.02-.1-.04-.21-.06-.31-.1-.43-.26-.84-.38-1.27-.1-.34-.15-.7-.25-1.04-.29-.3-.59-.59-.88-.89-.3-.16-.6-.33-.9-.49-.27-.15-.54-.32-.81-.47-.13-.07-.27-.13-.41-.18-.28-.1-.58-.15-.84-.27-.57-.27-1.12-.52-1.79-.42-1.23.19-2.45.35-3.49,1.12-.16.12-.34.21-.52.31-.16.09-.38.14-.27.41,0,.03-.04.1-.07.11-.36.13-.54.43-.75.73-.37.55-.35.99.16,1.4.14.11.3.21.46.29.33.17.55.1.66-.11.22-.04.36-.07.51-.09.05,0,.09-.01.14-.01.2,0,.44.12.57-.16,0-.02.07,0,.11-.02.12-.04.25-.07.37-.12.08-.03.17-.15.21-.13.28.14.3-.14.4-.25.37.05.72.09,1.09.14-.03.08-.04.11-.05.12-.58.22-.62.73-.68,1.25,0,.1-.1.18-.13.22.03.35.05.67.09,1,.05.41.12.82.19,1.23.03,0,.06,0,.09-.01-.07-.39-.15-.78-.22-1.17l.1-.02c.13.47.26.93.4,1.41.02-.05.03-.08.07-.19.06.16.09.26.1.3-.06.03-.14.05-.14.07,0,.12.01.24.05.35,0,.03.13.02.21.03.1.48.44.83.85,1.13.19.14.44.2.61.05.11-.09.08-.33.11-.51,0-.03,0-.07,0-.12.2.04.39.07.56.11.06-.09.11-.16.19-.29.07.27.15.47-.05.68-.04.04-.05.17-.02.24.17.33.36.65.58,1.03-.16.21-.37.48-.59.76.08.1.15.26.2.25.33-.05.69-.08.98-.23.15-.08.18-.39.29-.66.03.2.05.34.06.47.02.21.13.34.33.32.41-.04.45.25.58.51.09.18.31.32.5.42.04.02.25-.2.31-.33.11-.24.2-.46.47-.57.11-.04.2-.16.26-.26.16-.32.22-.67.44-.98.14-.2.2-.46.25-.67,0-.02,0-.04,0-.06,0,0,0,0,0,0,.01-.11.02-.22.02-.34,0-.15.02-.3.05-.45,0-.02.01-.05.02-.07-.03-.18-.05-.35-.08-.53ZM66.12,3.68c-.14-.08-.22-.19-.05-.39.16.07.31.14.48.22-.12.22-.25.27-.42.17ZM67.38,5.01c-.22-.41-.43-.82-.65-1.23.04-.02.08-.05.11-.07l.64,1.26s-.07.03-.1.05Z"/>
      <path class="cls-1" d="M60.91,90.47c-.02.43-.04.87-.06,1.3-.02.38-.02.75-.05,1.13-.07.84-.16,1.69-.22,2.53-.03.39-.06.45-.43.55-.07.02-.14.08-.2.12.08.03.16.09.25.09.24,0,.48-.02.71-.02.04,0,.08.04.05.09.06.26.11.52.17.8-.16.04-.34.08-.53.12,0,.04,0,.07,0,.11.11.02.23.03.34.07.08.02.21.09.2.12-.07.3.14.63-.07.91-.07.09-.17.2-.28.23-.32.1-.64.18-.96.23-.13.02-.27-.07-.4-.12-.06-.02-.13-.06-.18-.04-.25.1-.48.22-.73.32-.1.04-.21.05-.34.07.16.29-.12.31-.31.42-.12-.39-.33-.22-.52-.07-.2.16-.39.31-.67.16-.04-.02-.16.13-.27.23-.04-.02-.13-.06-.16-.08-.48.32-.96.43-1.42.41-.08.11-.12.22-.2.28-.19.15-.28,0-.37-.17-.18.26-.37.48-.71.44-.05.23-.05.19-.4.25-.28.05-.49.03-.69-.19-.22-.24-.19-.69.02-.94.49-.59,1.18-.75,1.84-.99.4-.14.78-.35,1.15-.56.75-.41,1.48-.88,2.25-1.26.62-.3,1.28-.5,1.93-.75.07-.03.12-.09.12-.09-.04-.18-.07-.32-.11-.46-.01-.04-.01-.09-.04-.13-.2-.36-.17-.72-.09-1.11.1-.5.25-1.01.22-1.5-.04-.5.07-.96.13-1.44.1-.74.25-1.47.36-2.2.04-.28.13-.51.38-.68.09-.06.14-.22.15-.34.01-.68.01-1.36,0-2.04-.01-.41-.06-.82-.1-1.23-.02-.22-.03-.43-.07-.65-.01-.08-.09-.15-.08-.21-.02-.34-.09-.68-.06-1.02.02-.31-.12-.43-.35-.51,0,.29-.04.59,0,.88.22,1.5-.02,2.98-.08,4.47-.02.6-.07,1.2-.12,1.8-.02.19-.07.37-.11.56-.07.33-.17.66-.21,1-.04.31-.15.53-.44.65-.24.1-.5.16-.51.53-.03-.02-.05-.04-.08-.06v-.37c-.15.2-.27.35-.43.56-.03-.18-.07-.3-.06-.41.02-.44,0-.89.22-1.3.09-.16.07-.39.11-.58.1-.46.25-.91.3-1.37.03-.26.16-.49.17-.76.01-.28.08-.55.12-.82.21-1.35.1-2.7.07-4.05-.02-.66.01-1.32.04-1.98.01-.37.14-.52.5-.6.16-.04.18-.11.13-.25-.22-.62-.47-1.24-.63-1.88-.1-.4-.06-.84-.11-1.26-.02-.14-.1-.3-.2-.4-.27-.28-.36-.62-.43-.98-.03-.17-.1-.33-.13-.49-.07-.36-.13-.72-.19-1.08-.01-.07,0-.15,0-.24.08.02.15.03.29.06-.04-.25-.08-.45-.12-.7-.1.08-.17.13-.23.17-.02-.01-.03-.02-.05-.03.06-.1.13-.2.19-.3-.25-.16-.32-.39-.14-.57-.22-.07-.16-.19-.15-.37.02-.35-.08-.71-.13-1.06-.02-.11-.04-.22-.04-.33.02-.32.02-.32-.28-.53.08-.05.17-.07.2-.13.05-.1.11-.28.06-.32-.23-.2-.18-.39-.04-.63-.32-.09-.29-.23-.19-.51.1-.25.03-.57,0-.86-.04-.51-.13-1.02-.14-1.54,0-.28.04-.31-.24-.37.08-.1.17-.19.23-.3.07-.14.05-.25-.11-.36-.1-.08-.15-.28-.15-.42,0-.24-.02-.5,0-.71.06-.51-.08-1-.02-1.49.05-.38.16-.76.19-1.14.02-.22-.06-.44-.08-.67-.01-.12-.02-.24-.02-.36,0-.24.04-.48.02-.72-.04-.48.06-.93.19-1.38.05-.17.03-.38,0-.57-.04-.22.05-.28.24-.28.1,0,.21,0,.31-.02.3-.05.51.07.52.37,0,.53-.04,1.07-.08,1.6-.02.23-.06.45-.1.68-.07.31-.17.62-.21.93-.04.27,0,.55,0,.83,0,.47.02.94,0,1.41-.01.58-.06,1.16-.05,1.73,0,.34.09.68.14,1.01.1.72.19,1.44.3,2.16.21,1.32.41,2.65.68,3.96.16.8.46,1.57.68,2.35.12.42.2.84.3,1.27.06.25.15.49.21.74.27,1.1.55,2.2.78,3.31.29,1.35.55,2.71.79,4.07.1.58.15,1.16.19,1.75.08,1.05.14,2.1.21,3.15.06.98.11,1.96.18,2.94.04.5.15,1,.2,1.5.03.3.06.61.04.91-.02.29-.31.22-.47.23-.39.03-.64-.24-.66-.67-.01-.53.02-1.06,0-1.59-.01-.36-.08-.72-.13-1.08-.03-.21-.04-.42-.1-.62-.04-.12-.15-.21-.23-.32-.04.01-.07.03-.11.04Z"/>
      <path class="cls-1" d="M55.06,102.33c.14-.04.26-.04.31-.1.27-.37.69-.41,1.07-.55.17-.06.43-.04.48-.32,0-.03.17-.08.23-.05.15.06.28.07.37-.08.01-.02.04-.06.06-.06.45.05.66-.33.96-.55.65-.46,1.33-.89,2.08-1.12.64-.19,1.33-.21,2-.29.07,0,.15.07.22.12.18.13.37.25.54.39.09.08.15.2.19.26,1.5.13,2.87-.21,4.17-.88,0-.04,0-.08,0-.12-.29,0-.59-.08-.86,0-1.29.33-2.3-.15-3.18-1.03-.39-.39-.73-.82-1.16-1.3.17.03.29.02.37.07.26.17.51.38.77.55.56.35,1.16.62,1.81.76.08.02.17.03.26.03.78-.04,1.56-.08,2.33-.12.45-.02.52,0,.63.42.04.15-.06.33-.09.49.16,0,.39.03.29.37.31.31-.03.39-.19.53-.03.03-.04.08-.05.13-.15.42-.24.83.11,1.21.02.02,0,.05,0,.07-.16.11-.3.22-.46.31-.08.05-.21.03-.29.08-.15.09-.27.22-.41.31-.16.1-.33.16-.5.25-.07.04-.13.1-.21.17-.13-.07-.31-.13-.4.13-.34-.13-.54.16-.81.26-.27.09-.51.24-.77.35-.14.06-.3.07-.45.12-.15.05-.28.14-.43.18-.1.03-.22,0-.35,0-.06.05-.16.2-.26.2-.26,0-.52-.08-.79-.12-.05.04-.13.09-.18.17-.05.07-.07.16-.11.25-.09.03-.21-.11-.33.07-.06.09-.34.03-.52.05-.21.02-.43.04-.64.07-.16.03-.29.18-.5.05-.1-.06-.39-.13-.42.21,0,.08-.24.18-.37.2-.22.02-.45-.03-.67-.02-.28,0-.55.06-.83.07-.33.02-.66.03-1,.03-.4,0-.81-.03-1.21,0-.5.03-.8-.26-.91-.72-.02-.06-.04-.14-.08-.18-.15-.13-.15-.21-.05-.4.15-.29.19-.63.26-.89Z"/>
      <path class="cls-1" d="M14.18,93.59c.1-.04.2-.1.3-.12.96-.14,1.58-.75,2.09-1.52.09-.14.24-.23.35-.35.21-.25.42-.52.63-.78.65-.78,1.3-1.55,1.94-2.34.31-.39.67-.77.86-1.22.24-.54.68-.89.99-1.36.67-1.02,1.26-2.1,2.14-2.95.39-.38.86-.67,1.3-.99.06-.05.18-.02.34-.04,0,0-.23-.24.11-.17.19.04.46-.28.7-.45-.1-.07-.18-.12-.3-.2.62,0,.58-.46.61-.81.02-.32.16-.52.38-.7.13-.11.24-.19.28-.41.04-.25.24-.47.38-.7.45-.74.9-1.47,1.35-2.2.06-.1.14-.18.21-.27-.04-.02-.08-.05-.09-.05.15-.2.3-.38.43-.58.25-.38.49-.77.74-1.15.11-.17.25-.32.37-.48.19-.27.38-.53.55-.81.04-.06.01-.17.02-.29.52-.66,1.07-1.37,1.63-2.08,0,0-.06-.04-.13-.08.02-.04.02-.08.05-.1.16-.19.43-.36.46-.57.04-.33.27-.38.41-.55.07-.11.14-.23.21-.34.07-.11.13-.22.2-.34.1-.18.15-.39.42-.42.11-.01.2-.16.34-.27-.11-.02-.16-.04-.25-.05.32-.41.61-.81.93-1.2.29-.35.61-.68.89-1.03.14-.18.25-.39.36-.6.03-.05,0-.13-.02-.22.35-.1.58-.32.73-.69.1-.25.36-.42.56-.64-.02,0-.08-.04-.17-.08.27-.32.53-.64.81-.94.1-.11.28-.15.39-.25.07-.06.08-.19.08-.3.33-.19.44-.53.57-.87.04-.1.1-.21.19-.28.17-.13.38-.21.42-.46,0-.04.1-.06.15-.1.16-.12.48-.28.46-.35-.1-.4.26-.32.36-.42.03-.15.03-.27.09-.34.04-.05.17-.02.32-.04-.24.42-.39.83-.67,1.11-.29.29-.36.69-.62.99-.39.44-.73.93-1.07,1.4-.15.21-.26.44-.41.66-.6.86-1.2,1.72-1.8,2.57-.74,1.04-1.49,2.07-2.22,3.11-.55.78-1.09,1.56-1.63,2.34-.71,1.03-1.4,2.07-2.12,3.1-.27.39-.59.73-.87,1.11-.06.07-.02.21-.07.3-.15.28-.31.55-.48.81-.41.64-.84,1.28-1.25,1.92-.48.74-.95,1.48-1.41,2.23-.19.32-.34.66-.5.99-.17.35-.38.67-.69.92-.12.1-.19.28-.28.42-.09.13-.16.28-.27.39-.18.19-.3.42-.4.66-.1.23-.28.25-.56.17.2-.26.39-.49.54-.74.15-.24.25-.51.38-.77.03,0,.05.01.08.02-.04-.07-.08-.14-.17-.29-.39.49-.76.92-1.11,1.38-.25.32-.52.64-.7,1-.27.55-.76.9-1.09,1.38-.24.35-.51.67-.79.98-.16.18-.21.39-.3.6-.13.28-.38.5-.56.75-.27.36-.53.73-.8,1.08-.19.25-.41.47-.61.71-.47.59-.94,1.17-1.4,1.77-.37.49-.67,1.04-1.16,1.44-.25.21-.52.35-.86.33-.27-.02-.54-.02-.8-.04-.14-.01-.27-.07-.4-.1,0-.04,0-.07,0-.11Z"/>
      <path class="cls-1" d="M30.6,58.74c-.09-.04-.18-.08-.26-.11.2-.11.39-.21.57-.33.46-.31.92-.62,1.37-.94.21-.15.34-.06.46.08-.09.12-.15.23-.23.33-.07.08-.14.17-.23.21-.7.35-1.21.94-1.8,1.43-.25.21-.52.38-.79.57-.45.31-.88.63-1.35.92-.68.42-1.31.89-1.91,1.41-.31.26-.72.39-1.06.62-.31.2-.6.45-.9.68-.05.03-.12.02-.18.04-.2.09-.45.14-.6.28-.46.45-1.02.73-1.56,1.05-.26.16-.51.36-.77.52-.17.11-.36.2-.54.29-.12.06-.24.1-.35.17-.42.27-.84.55-1.26.84-.5.34-1,.67-1.49,1.02-.67.48-1.36.9-2.12,1.22-.4.17-.78.36-1.16.57-.52.28-1.04.58-1.56.87-.07.04-.17.06-.25.05-.33-.06-.57.08-.82.29-.1.08-.32.02-.48.04-.08,0-.16.01-.22.04-.36.14-.7.31-1.06.44-.36.14-.74.23-1.11.07-.11-.05-.22-.19-.23-.3,0-.08.14-.22.24-.25.55-.15,1.13-.24,1.67-.41.72-.23,1.44-.44,2.1-.83.69-.4,1.43-.7,2.13-1.08.42-.23.79-.53,1.19-.78.62-.39,1.26-.76,1.89-1.14.29-.17.59-.34.87-.52.54-.34,1.1-.67,1.61-1.05.18-.14.41-.26.53-.51.1-.19.38-.29.59-.42.43-.25.85-.5,1.29-.73.39-.21.79-.4,1.19-.6.09-.05.19-.09.28-.15.31-.23.61-.49.93-.7.35-.23.73-.41,1.09-.61.07-.04.14-.11.21-.16.25-.18.49-.36.74-.52.6-.37,1.21-.73,1.8-1.11.34-.22.65-.49.99-.72.04-.03.12-.02.18-.02.13,0,.25.02.38.03,0-.02,0-.04,0-.06Z"/>
      <path class="cls-1" d="M40.5,78.26c.21.05.27-.02.33-.25.14-.55.37-1.08.54-1.63.26-.85.52-1.71.76-2.58.05-.18.03-.38.05-.57,0-.04-.02-.08,0-.11.25-.55.51-1.09.76-1.64.15-.34.37-.67.42-1.03.05-.33.25-.58.31-.89.06-.32.25-.61.36-.93.25-.7.46-1.41.72-2.11.12-.32.31-.62.43-.94.08-.21.11-.44.17-.66.15-.5.27-1.01.48-1.48.16-.35.3-.7.35-1.08,0-.04.01-.08.03-.11.38-.54.47-1.19.72-1.78.19-.46.42-.9.6-1.36.25-.65.48-1.3.71-1.96.42-1.21.87-2.41,1.39-3.58.3-.67.54-1.36.85-2.05,0,.13.01.26-.02.38-.22.75-.45,1.5-.67,2.25-.25.86-.46,1.72-.74,2.57-.18.55-.42,1.09-.65,1.62-.4.9-.69,1.84-.93,2.79-.1.38-.3.73-.43,1.1-.2.53-.38,1.07-.57,1.6-.2.55-.43,1.1-.58,1.66-.09.35-.13.72-.29,1.06-.25.55-.47,1.13-.69,1.69-.12.32-.21.65-.34.97-.14.33-.31.64-.46.96-.04.08-.04.17-.05.26-.01.1,0,.21-.03.31-.08.25-.17.49-.28.8-.04-.1-.07-.18-.1-.27-.03.01-.06.03-.09.04-.1.22-.19.44-.29.66.02.01.04.02.06.04.06-.05.12-.1.25-.2-.01.14-.02.22-.02.3,0,.09-.02.18-.09.3-.04-.11-.08-.23-.16-.44-.08.17-.12.26-.16.35-.13.29-.27.58-.39.88-.13.32-.24.64-.36.96,0,0,0,.02,0,.03.34.33-.13.4-.19.61-.07.26-.18.51-.24.77-.05.22-.09.41-.28.57-.1.08-.21.28-.18.38.08.25-.07.43-.13.63-.11.4-.2.8-.32,1.2-.02.06-.09.12-.15.16-.02.01-.09-.06-.13-.1-.08-.07-.16-.14-.25-.21h0Z"/>
      <path class="cls-1" d="M23.76,59.38c.04.07.08.14.14.23-.14.07-.25.12-.38.19.02.05.04.1.08.22-.94.34-1.86.7-2.81,1.01-.49.16-.91.4-1.29.75-.07.07-.19.16-.26.14-.4-.08-.72.14-1.07.24-.41.12-.77.4-1.26.28-.17-.04-.4.13-.6.21-.05.02-.1.07-.15.06-.37-.06-.65.13-.96.28-.17.08-.41.11-.59.06-.41-.12-.75.08-1.11.17-.04.01-.08.05-.11.05-.29,0-.58-.01-.87-.01-.05,0-.1.05-.16.07-.07.02-.14.05-.22.05-.08,0-.2-.07-.23-.04-.28.32-.65.21-1,.24-.16.02-.32.12-.45.22-.21.16-.38.28-.67.15-.22-.1-.5-.08-.62.23-.02.04-.16.08-.18.06-.14-.16-.24-.05-.37.02-.56.31-1.12.61-1.69.89-.35.17-.74-.05-.82-.43-.04-.18.14-.48.32-.54.11-.04.22-.06.33-.09.17-.04.32-.04.45-.24.1-.16.41-.22.63-.28.73-.19,1.48-.34,2.21-.53.24-.06.47-.23.71-.27.66-.12,1.32-.22,1.99-.3.11-.01.26.03.34.11.18.17.33.12.44-.03.32-.43.74-.47,1.24-.51.85-.07,1.67-.27,2.49-.52.63-.19,1.29-.25,1.94-.37.07-.01.16,0,.23-.02.08-.03.19-.08.23-.15.02-.05-.06-.15-.07-.17.25-.15.51-.33.77-.46.19-.1.4-.18.62-.21.46-.06.8-.37,1.2-.55.19-.09.38-.16.61-.25,0,.03,0-.01-.02-.08.1.03.18.06.28.1-.02.09-.03.17-.06.32.28-.1.52-.19.76-.28,0,0,0,0,0,0Z"/>
      <path class="cls-1" d="M30.26,97.47c.3.07.28.08.17.39-.17.44-.3.9-.44,1.35-.13.4-.26.79-.36,1.2-.15.6-.28,1.21-.43,1.81-.02.09-.07.18-.12.3.01.07.06.2.04.32-.02.2-.07.39-.13.58-.02.06-.14.12-.22.12-.06,0-.16-.09-.17-.14-.07-.47-.1-.93.04-1.39.1-.32.14-.67.21-1,.06-.31.11-.62.2-.92.16-.59.34-1.18.52-1.77.09-.29.23-.56.26-.86.07-.75.45-1.4.63-2.12.32-1.28.46-2.59.76-3.86.19-.79.42-1.57.66-2.35.37-1.21.8-2.39,1.38-3.52.12-.23.26-.45.38-.69.06-.11.07-.25.12-.37.14-.3.34-.58.43-.89.12-.46.34-.86.56-1.27.04-.07.03-.17.06-.25.04-.12.1-.23.17-.37.37.35.36.34.11.68-.08.1-.1.24-.15.37-.13.34-.26.68-.38,1.02-.04.13-.04.28-.08.51-.26.25-.58.57-.92.9.11.07.2.13.3.19-.26.54-.53,1.07-.76,1.63-.14.34-.33.67-.31,1.08.01.27-.11.54-.18.82-.16.66-.33,1.31-.49,1.97-.2.84-.4,1.67-.56,2.52-.11.57-.22,1.13-.42,1.68-.17.45-.23.93-.34,1.4-.05.2-.06.42-.16.59-.08.14-.25.22-.39.34Z"/>
      <path class="cls-1" d="M45.1,59.99s-.02-.01-.1-.05c.08-.1.16-.19.24-.29h-.16c.53-1.23,1.06-2.43,1.58-3.64.04.01.08.02.12.03,0,.08,0,.15,0,.23-.05.81-.44,1.51-.69,2.26-.23.67-.43,1.35-.67,2.01-.15.41-.36.81-.54,1.21-.02.03-.04.07-.05.1-.11.33-.23.65-.31.99-.19.86-.52,1.67-.9,2.47-.42.87-.91,1.72-1.27,2.62-.58,1.44-1.43,2.7-2.32,3.95-.37.51-.8.98-1.12,1.53-.27.46-.41.99-.61,1.49-.15.37-.31.74-.49,1.09-.04.07-.19.09-.28.13.03-.09.05-.18.09-.27.03-.06.07-.11.12-.18-.08-.07-.15-.14-.21-.2.16-.12.31-.23.47-.35-.07-.07-.11-.11-.16-.15.29-.27.48-.54.38-.97-.03-.15.15-.34.23-.52.05-.1.1-.2.14-.3.05-.1.06-.26.14-.3.41-.21.36-.64.5-.97.08-.18.13-.36.2-.55-.02,0-.09,0-.16,0,0-.02-.02-.05-.03-.07.1-.05.2-.1.3-.15.03.02.06.04.09.07-.14.39-.28.79-.42,1.18.05.04.11.08.16.13.03-.08.04-.18.09-.25.42-.68.87-1.35,1.26-2.05.29-.5.51-1.04.78-1.56.24-.47.49-.93.73-1.4.09-.18.16-.36.25-.56-.04,0-.1,0-.16-.01.02-.03.02-.06.04-.08.21-.29.39-.58.34-.96,0-.05.04-.15.09-.16.22-.07.2-.25.25-.42.12-.36.32-.7.48-1.05.05-.12.07-.25.1-.38.01-.05.01-.11.03-.16.11-.24.22-.48.33-.72.02-.05.08-.09.1-.14.05-.13.08-.26.12-.39.04-.13.08-.25.13-.37.06-.16.12-.33.18-.49.01-.04,0-.1.02-.11.25-.13.14-.38.21-.56.09-.24.24-.45.37-.69Z"/>
      <path class="cls-1" d="M29.76,52.27c.16.18.09.26-.05.39-.43.4-.97.62-1.47.91-.6.36-1.16.77-1.78,1.09-.81.44-1.66.82-2.49,1.22-.92.44-1.85.85-2.75,1.31-.36.18-.63.55-1,.67-.58.19-.89.7-1.39.96-.07.04-.12.11-.18.17-.13.12-.25.14-.4.03-.17-.13-.08-.26,0-.34.36-.36.68-.78,1.1-1.03,1.15-.68,2.36-1.26,3.53-1.91.54-.3,1.07-.59,1.67-.73.12-.03.24-.12.34-.21.59-.5,1.29-.79,1.99-1.09.24-.1.47-.17.64-.42.1-.16.39-.21.6-.28.22-.07.46-.12.68-.17.04,0,.07-.04.1-.04.34.02.59-.1.71-.43.02-.04.09-.07.15-.11Z"/>
      <path class="cls-1" d="M68.71,20.01c.12.14.22.24.32.36-.38.31-.74.6-1.21.75-.55.18-1.07.43-1.59.67-.14.06-.27.19-.36.32-.21.33-.39.68-.57,1.03-.36.73-.35,1.51-.24,2.3.01.1.04.2.06.3-.03.01-.07.02-.1.03-.07-.23-.15-.45-.22-.67-.06.17-.13.35-.2.54.03.28.28.3.56.29.01.17.02.34.04.51-.02,0-.04,0-.05,0-.01-.05-.03-.09-.03-.14.01-.16-.02-.23-.21-.19-.23.05-.38-.05-.48-.29-.1-.25-.28-.47-.42-.71-.02-.03-.04-.07-.03-.1.08-.46,0-.95.31-1.36.11-.13.16-.32.19-.5.08-.42.33-.7.63-.97.3-.27.55-.57.85-.84.38-.34.85-.48,1.33-.64.4-.14.77-.36,1.16-.55.08-.04.16-.09.25-.15Z"/>
      <path class="cls-1" d="M56.62,9.59c.04.47,0,.93-.02,1.4-.01.27,0,.55-.05.82.04.08.09.16.13.24.07.12.24.17.34.27.06,0,.13,0,.19,0,.05,0,.09,0,.14,0,.02,0,.05,0,.07,0,0,0,0,0,0,0,.09-.01.18-.03.26-.05.08-.02.17-.04.25-.07.03-.01.06-.02.09-.03,0,0,.06-.02.08-.03.09-.04.17-.08.25-.12,0-.01,0-.02,0-.03,0-.03,0-.06-.01-.09-.05-.38-.18-.49-.54-.44-.26.04-.51.14-.84.24.02-.55.05-1.07.07-1.59.01-.28.07-.56.03-.83-.07-.43-.21-.85-.32-1.27-.15-.57.04-1.11.17-1.66.07-.3.29-.6.05-.92-.04-.05-.1-.11-.14-.1-.05,0-.11.06-.14.12-.04.08-.06.18-.08.27-.09.31-.15.64-.27.93-.07.16-.11.33-.15.5,0,.37.01.73.14,1.09.16.45.26.88.3,1.35Z"/>
      <path class="cls-1" d="M5.56,71.98c-.13.18-.25.33-.36.49-.57.78-1.32,1.35-2.19,1.76-.19.09-.37.22-.53.36-.04.04-.03.14-.04.19-.11.03-.23.11-.33.09-.17-.03-.36-.08-.47-.2-.27-.28-.14-.85.22-1.02.48-.23.95-.43,1.49-.5.14-.02.26-.15.39-.22.52-.31,1.03-.61,1.55-.91.04-.02.08-.04.13-.06.02,0,.05,0,.14.03Z"/>
      <path class="cls-1" d="M44.59,58.24c-.11.22-.23.44-.34.67-.39.78-.78,1.55-1.15,2.33-.32.68-.62,1.37-.91,2.06-.22.52-.4,1.05-.61,1.57-.1.27-.21.54-.34.79-.03.05-.15.06-.23.08,0-.09-.02-.18-.01-.26,0-.05.1-.09.1-.13,0-.51.39-.87.53-1.33.23-.73.48-1.46.84-2.15.32-.6.51-1.27.77-1.9.07-.17.19-.32.28-.48.16-.26.31-.52.48-.77.14-.2.32-.38.48-.56.04.03.07.06.11.09Z"/>
      <path class="cls-1" d="M27.52,55.74c.31-.36.6-.64,1.01-.8.18-.07.33-.21.5-.32.65-.4,1.31-.78,1.94-1.19.53-.34,1.03-.73,1.57-1.07.62-.39,1.25-.75,1.89-1.12.07-.04.16-.05.27-.08-.95.85-6.14,4.52-7.17,4.58Z"/>
      <path class="cls-1" d="M57.78,9.21s.01.03.01.05c0,0,0,.01,0,.02,0,0,0,.01.01.02,0,0,.04.04.04.05,0,0,.03.02.04.03,0,0,.02.01.03.02.02.01.05.02.07.04,0,0,0,0,0,0,0,0,0,0,0,0,.05.01.1.03.15.04.01,0,.03,0,.04,0,0,0,0,0,0,0,.02,0,.03,0,.04,0,.05,0,.1,0,.16,0h0s.05,0,.07-.02c.02,0,.05-.01.07-.02.01,0,.04-.01.05-.02.05-.02.11-.05.16-.08.02-.01.04-.03.06-.04,0,0,.04-.03.05-.04.05-.05.11-.1.15-.16,0-.01.02-.02.03-.03.02-.03.04-.05.06-.08.04-.06.07-.12.1-.18,0,0,.03-.06.03-.07,0-.02.02-.05.03-.07,0,0,0-.02,0-.02-.1-.02-.19-.04-.29-.07-.15-.05-.3-.09-.45-.13-.16-.04-.23-.06-.38-.06-.12,0-.21.03-.32.08,0,0,0,0-.01.02,0,0,0,0,0,0,0,0,0,0,0,0,0,.01,0,.04,0,.05,0,.22.01.44-.03.66,0,0,0,0,0,0Z"/>
      <path class="cls-1" d="M41.1,65.97c0,.14.03.31-.03.43-.4.82-.55,1.72-.86,2.56-.19.52-.15,1.05-.32,1.56-.03.1-.04.21-.08.31-.06.13-.1.24-.24.03-.12-.18-.29-.12-.4.09.24-.6.46-1.18.66-1.67.02-.15.01-.24.04-.32.06-.2.13-.4.2-.6.1-.27.2-.54.29-.82.08-.23.13-.46.21-.69.12-.3.26-.6.39-.9.05,0,.09.01.14.02Z"/>
      <path class="cls-1" d="M60.33,14.38c-.08.13-.16.26-.28.45-.03-.18-.08-.3-.16-.38-.11.03-.22.06-.34.07-.11.01-.22.02-.33.02-.05,0-.11,0-.16,0-.03,0-.05,0-.08,0-.03,0-.04,0-.04,0-.06,0-.16.05-.19.06-.04.01-.08.03-.12.04-.02,0-.03.01-.05.02,0,0,0,0-.01,0-.03.01-.05.03-.08.04,0,.02-.01.03-.02.05,0,.02-.01.05-.02.07-.01.03-.03.07-.05.1,0,.01,0,.03,0,.04.01.05.03.09.05.13.05,0,.11.01.16.01.06,0,.13,0,.19,0,.03,0,.06,0,.09,0,0,0,0,0,0,0,.03,0,.06-.01.09-.02,0,0,.01,0,.02,0,.05-.03.1-.05.16-.08.1-.04.19-.07.29-.08.28-.12.48.09.71.26.08-.26.16-.5.23-.74l-.07-.08Z"/>
      <path class="cls-1" d="M58.7,13.53s.03-.02.05-.04c0,0,.02-.02.03-.02.03-.02.06-.05.09-.07.06-.05.12-.11.19-.16.1-.09.21-.18.31-.27.05-.05.11-.1.15-.15,0,0,.01-.01.02-.02.01-.02.03-.05.04-.07,0-.01,0-.03,0-.03,0,0,0,0,0-.01-.01,0-.03,0-.04,0-.04,0-.08,0-.13,0-.01,0-.04,0-.05,0-.06.01-.11.03-.17.04,0,0,0,0,0,0,0,0,0,0,0,0-.01,0-.03.01-.04.02-.03.02-.07.04-.1.06-.06.04-.12.07-.18.11-.08.05-.17.09-.26.13-.15.14-.29.28-.44.4-.12.1-.26.17-.12.36.03.04.07.05.12.05.02-.02.05-.03.07-.05.15-.1.31-.19.46-.3Z"/>
      <path class="cls-1" d="M66.43,27.9c.15-.11.3-.23.46-.32.16-.1.33-.16.5-.25.38-.2.75-.41,1.14-.59.27-.13.52-.04.84.14-.28.13-.51.22-.72.33-.16.08-.31.18-.48.26-.41.2-.82.4-1.24.56-.13.05-.3,0-.45,0-.02-.04-.03-.09-.05-.13Z"/>
      <path class="cls-1" d="M36.5,78.63s.13.1.12.11c-.08.17-.17.33-.29.54,0,.03.02.13.04.23h-.42c.1-.17.16-.27.23-.39-.18-.13-.23-.25,0-.43.12-.09.16-.29.21-.44.08-.22.11-.47.23-.66.13-.21.21-.45.42-.61.17-.14.29-.34.49-.49-.04.19-.06.39-.13.57-.19.47-.39.93-.61,1.38-.04.09-.19.13-.28.2Z"/>
      <path class="cls-1" d="M34.92,81.44c.16-.1.32-.2.51-.32-.05-.06-.14-.15-.25-.27.32-.28.25-.93,1-.94-.17.46-.32.87-.48,1.27-.05.12-.14.22-.19.34-.11.27-.16.29-.39.12-.04-.03-.1-.06-.14-.09-.02-.04-.03-.07-.05-.11Z"/>
      <path class="cls-1" d="M41.11,58.86c.08-.1.16-.19.22-.3.08-.14.13-.31.22-.44.23-.36.47-.71.73-1.05.11-.14.27-.23.4-.35l.07.04c-.1.18-.19.36-.3.53-.33.5-.65,1-1,1.49-.06.09-.2.12-.3.18-.02-.03-.03-.07-.05-.1Z"/>
      <path class="cls-1" d="M34.51,55.91c-.46.42-.92.84-1.4,1.28-.04-.16-.05-.25-.07-.33.18-.12.39-.24.56-.39.1-.09.12-.25.2-.36.17-.24.43-.22.67-.28.02.03.03.05.05.08Z"/>
      <path class="cls-1" d="M34.03,50.13c-.34.21-.58.58-1.04.61-.15.01-.3.14-.45.23-.1.06-.18.15-.28.19-.05.02-.13-.05-.19-.07.03-.05.05-.13.1-.15.62-.27,1.24-.54,1.86-.8Z"/>
      <path class="cls-1" d="M64.58,27.33c-.04-.35-.07-.69-.1-1.02-.03,0-.06,0-.09,0,.08-.04.17-.07.22-.1.14.29.26.57.39.84-.14.09-.28.18-.42.28Z"/>
      <path class="cls-1" d="M25.85,57.03c.15-.1.31-.2.46-.31.07-.06.18-.08.1-.26-.1-.22.14-.37.45-.29-.08.05-.16.09-.23.14.02.03.04.05.06.08.05.01.1.03.16.04-.25.33-.56.56-.95.67-.02-.02-.03-.05-.05-.07Z"/>
      <path class="cls-1" d="M40.51,78.25c-.02-.14-.09-.29-.06-.42.08-.37.2-.73.31-1.09,0,0,.03,0,.06-.01-.05.39-.09.78-.15,1.17-.02.12-.1.23-.16.35,0,0,0,0,0,0Z"/>
      <path class="cls-1" d="M71.73,45.46c.33.36.06.77.13,1.16-.27-.36-.03-.78-.13-1.16Z"/>
      <path class="cls-1" d="M31.45,51.46c-.17.28-.46.26-.72.3-.01-.03-.03-.07-.04-.1.24-.09.48-.19.73-.28.01.03.02.06.03.09Z"/>
      <path class="cls-1" d="M29.89,52.17c.17-.21.42-.26.66-.05-.25.06-.44.1-.64.14,0-.03-.02-.06-.03-.09Z"/>
      <path class="cls-1" d="M23.77,59.39c.11-.22.48-.38.76-.33,0,.03.02.05.03.08-.26.08-.53.16-.79.25,0,0,0,0,0,0Z"/>
      <path class="cls-1" d="M42.66,56.48c.22-.24.42-.45.66-.71-.19.51-.42.75-.66.71Z"/>
      <path class="cls-1" d="M44.4,58.11c.19-.22.34-.39.51-.59,0,.34-.21.6-.51.59Z"/>
      <path class="cls-1" d="M39.53,80.67c.1-.19.21-.38.32-.58.19.36-.14.44-.26.63-.02-.02-.04-.03-.07-.05Z"/>
      <path class="cls-1" d="M67.2,15.45c.21-.11.4-.22.63-.35-.38.49-.39.5-.63.35Z"/>
    </g>
  </g>
</svg>