<?xml version="1.0" encoding="UTF-8"?>
<svg id="Layer_2" data-name="Layer 2" xmlns="http://www.w3.org/2000/svg" viewBox="0 0 81.21 37.51">
  <defs>
    <style>
      .cls-1 {
        fill: #000;
        stroke-width: 0px;
      }
    </style>
  </defs>
  <g id="illustrations">
    <g>
      <path class="cls-1" d="M81.11,12.95c.1-.12.16-.29.04-.49-.1-.17-.11-.39-.17-.59-.04-.12-.06-.3-.14-.36-.22-.14-.3-.44-.6-.48-.02,0-.05-.05-.04-.06.1-.19-.09-.24-.16-.34-.17-.22-.38-.43-.52-.67-.19-.33-.19-.42.07-.57,0-.02,0-.04,0-.06,0-.09,0-.19-.03-.28,0-.02-.01-.05-.01-.06,0-.04-.02-.08-.03-.12,0-.04-.02-.07-.03-.11,0-.02-.02-.03-.03-.05-.01-.02-.03-.04-.04-.06-.02-.02-.05-.05-.07-.06,0,0,0,0,0,0,0,0,0,0,0,0-.04-.03-.08-.05-.12-.08-.03-.02-.07-.04-.1-.05,0,0-.07-.03-.09-.04-.03,0-.05-.02-.06-.02-.04-.02-.09-.03-.13-.04-.08-.03-.16-.05-.24-.08-.18-.05-.36-.1-.53-.16-.32-.1-.62-.24-.89-.44-.23-.14-.46-.28-.68-.43-.24-.16-.46-.36-.72-.5-.69-.38-1.39-.74-2.08-1.1-.18-.09-.39-.16-.51-.3-.16-.19-.34-.3-.56-.39-.5-.21-1.01-.42-1.49-.66-.23-.11-.41-.33-.65-.45-.19-.1-.44-.09-.64-.19-.36-.16-.7-.37-1.05-.54-.33-.16-.68-.27-1.01-.43-.23-.11-.44-.26-.66-.4-.34-.21-.67-.45-1.04-.61-.42-.18-.86-.29-1.3-.43-.29-.09-.59-.18-.91-.28-.03,0-.13.05-.19.02-.51-.29-1.08-.36-1.65-.43-.4-.05-.79-.13-1.19-.17-.66-.07-1.32-.12-1.97-.17-.3-.03-.61-.03-.9-.09-.23-.05-.38-.05-.41.13-.2,0-.37-.02-.54-.02-.14,0-.35.06-.41,0-.15-.16-.29-.13-.46-.11-.04,0-.08.02-.1,0-.27-.23-.53-.06-.8,0-.06.01-.13,0-.19-.01-.08-.02-.15-.08-.22-.09-.38-.01-.76-.03-1.14-.02-.12,0-.24.06-.36.1-.18-.34-.44.12-.68-.02.06-.04.1-.06.18-.11-.3.04-.56.11-.82.11-.34,0-.67-.05-1.01-.05-.44,0-.88.04-1.31.05-.62.01-1.23,0-1.85.02-.47.02-.94.11-1.41.13-.44.02-.89-.03-1.34-.05-.05,0-.11-.02-.16-.01-.23.04-.47.08-.7.12-.41.07-.82.15-1.24.2-.13.02-.28-.02-.4-.08-.23-.11-.65-.06-.84.1-.06.05-.17.04-.26.03-.25-.01-.5-.07-.74-.05-.33.04-.66.11-1,.13-.45.03-.89.14-1.34.21-.41.06-.83.09-1.23.18-.58.12-1.15.29-1.74.42-.54.12-1.04.35-1.6.42-.4.05-.77.29-1.15.43-.53.2-1.07.38-1.6.58-.34.13-.68.26-1.01.4-.43.18-.85.38-1.27.57-.28.12-.57.23-.85.36-.41.2-.81.42-1.23.61-.36.17-.72.32-.99.64-.05.06-.15.1-.22.14-.18.1-.37.2-.55.3-.15.09-.29.18-.42.28-.11.08-.3.19-.28.25.04.18-.08.19-.17.25-.76.45-1.53.88-2.27,1.36-.64.42-1.22.91-1.85,1.34-.19.13-.31.43-.63.33,0,0-.03.05-.05.07-.2.17-.37.37-.6.49-.46.26-.94.49-1.42.7-.21.09-.5.17-.68.09-.36-.14-.64.01-.94.1-.24.07-.49.14-.74.19-.14.03-.31-.02-.43.04-.46.2-.9.42-1.36.63-.09.04-.21.03-.3.08-.37.19-.74.41-1.11.6-.17.09-.43.26-.53.2-.31-.18-.33.12-.47.21-.18.11-.33.29-.53.35-.22.07-.47.05-.7.07,0,.02,0,.04.01.06.11.06.22.12.28.16-.17.1-.36.16-.43.28-.13.22-.18.49-.27.74.02,0,.05.03.07.02.27-.08.56-.14.82-.26.42-.19.82-.4,1.22-.62.42-.22.82-.47,1.24-.69.19-.1.39-.17.58-.26.17-.08.35-.17.52-.25.01.03.03.05.04.08-.02.02-.04.06-.06.07-.59.39-1.18.78-1.77,1.16-.66.42-1.35.79-1.99,1.24-.63.44-1.22.96-1.82,1.43-.09.07-.19.17-.29.17-.24,0-.23-.01-.28.23-.02.1-.07.21-.14.28-.09.1-.22.16-.33.24-.14.11-.28.22-.42.33-.28.25-.56.5-.83.77-.05.05-.05.17-.07.25.17-.02.31-.03.44-.04-.03.14-.05.22-.07.31.09,0,.18.01.25-.02.14-.07.27-.17.39-.26.24-.17.46-.35.7-.52.3-.21.62-.4.91-.62.37-.28.71-.58,1.08-.86.17-.13.38-.19.56-.31.45-.31.87-.67,1.37-.89.08-.04.17-.06.24-.1.4-.26.79-.53,1.19-.78.38-.24.76-.48,1.16-.68.4-.21.83-.38,1.24-.57.01,0,.03,0,.05,0,.29-.01.62.06.7-.36.01-.06.07-.14.13-.17.34-.18.69-.35,1.03-.53.17-.08.33-.18.5-.24.12-.04.25-.05.37-.06.21-.01.41.03.57-.19.15-.2.37-.36.57-.52.1-.08.23-.13.36-.17.54-.17.93-.56,1.34-.92.08-.07.19-.13.28-.19.01.02.03.04.04.05-.08.18-.17.36-.23.49.18.14.34.25.49.37.18.14.33.32.53.44.1.06.26,0,.39.02.52.09,1.02-.01,1.52-.13.25-.06.51-.02.77-.02,0,0,.02.03.05.09-.31.04-.6.07-.88.11.25.12.87.11,1.04-.15v.29c.74.08,1.49.07,2.15.43-.03.02-.08.04-.17.09.46,0,.87,0,1.27,0,.19,0,.38.09.56.07.26-.03.49,0,.73.08.11.04.25,0,.37,0,.37-.01.74-.03,1.11.09.3.09.62.15.93.14.43-.02.85-.08,1.25.14.03.02.11,0,.12-.02.11-.16.2-.09.32-.01.08.05.18.08.28.08.77.06,1.55.12,2.32.18.18.02.35.08.52.12-.1.09-.19.13-.28.16-1.01.38-2.02.78-3.03,1.14-1.04.37-2.09.7-3.14,1.05-.34.11-.68.23-1.03.31-.47.11-.95.16-1.42.28-1.04.26-2.08.55-3.12.83-1.08.3-2.16.62-3.24.93-.56.16-1.12.32-1.68.5-.38.13-.75.29-1.11.45-.75.34-1.49.69-2.23,1.04-.26.12-.5.34-.77.38-.35.05-.52.27-.58.54-.06.28-.23.42-.41.6-.36.35-.68.74-1.05,1.07-.55.47-1.13.9-1.7,1.34-.03.03-.08.03-.12.04-.17.03-.33.05-.5.09-.38.1-.74.27-1.12.31-.69.07-1.38.08-2.07.1-.13,0-.25-.06-.38-.09-.03,0-.07-.03-.08-.02-.36.27-.77,0-1.15.1-.06.01-.15-.11-.18-.14-.2.04-.37.08-.55.09-.03,0-.07-.11-.13-.21-.07.02-.2.04-.26.05-.14-.11-.22-.2-.33-.25-.04-.02-.13.03-.17.07-.09.09-.2.18-.22.29-.07.25-.28.19-.44.25-.18.07-.33.15-.52.04-.13-.08-.3-.19-.42-.17-.25.05-.38-.06-.51-.23.03-.08.07-.16.11-.27-.12.02-.2.04-.29.06-.04-.18-.07-.35-.1-.52-.12-.55-.18-1.11-.04-1.67.12-.46.18-.93.33-1.38.16-.49.39-.97.59-1.45,0-.02,0-.04,0-.07-.04.03-.07.05-.11.08-.02-.02-.03-.04-.05-.05.09-.07.17-.15.22-.19,0-.1-.04-.2-.02-.28.12-.48.45-.81.83-1.13.39-.33.93-.39,1.24-.82,0-.01.03,0,.05-.01.11-.04.23-.06.34-.11.56-.28,1.12-.57,1.66-.87.45-.25.82-.65,1.38-.73-.16-.16-.31-.3-.49-.48-.19.07-.44.14-.67.25-.47.22-.92.46-1.44.54-.05,0-.09.05-.14.07-.2.08-.41.16-.61.24-.06.03-.12.06-.18.09-.25.3-.58.39-.81.22-.47.36-.99.67-1.29,1.22-.17.31-.37.61-.54.92-.07.12-.06.33-.15.37-.25.13-.26.37-.32.59-.02.06-.01.13-.02.23-.18.25-.39.55-.6.85.02.02.03.04.05.06.09-.08.17-.16.26-.24-.05.16-.1.33-.14.47-.11.07-.22.13-.33.2.05.08.11.15.16.22-.08.1-.19.23-.29.35l.04.03c.08-.07.16-.13.24-.2,0,.01,0,.02.01.03-.15.25-.3.49-.45.74.02.01.04.02.06.03.06-.03.12-.07.18-.1.01.01.03.02.04.03-.15.2-.31.41-.5.67.14-.03.19-.04.27-.06-.11.4-.2.77-.3,1.15.05.02.11.06.12.06-.08.27-.15.5-.21.75-.04.18-.05.36-.1.53-.09.29-.2.57-.3.86-.04.13-.08.25-.12.38-.03.69-.05,1.38-.02,2.07.03.67.14,1.33.32,1.97.14.1.27.2.42.28.12.07.2.1.22.26.04.28.23.4.5.48.38.11.75.27,1.11.44.13.06.21.16.38.09.07-.03.18.04.27.06.17.04.35.07.52.1.06.01.13,0,.18.03.19.07.37.15.57.21.49.14.98.27,1.47.42.26.08.52.19.77.32.22.12.56.09.63.43,0,.02.05.02.07.04.11.07.23.15.33.23.9.69,1.89,1.23,2.95,1.63.26.1.58.18.75.37.24.27.56.18.83.32.2.1.49,0,.74.01.29,0,.59.02.88.05.31.04.62.15.88-.11.3.38.57.02.85,0,.13.19.34.21.63.11.2-.07.28-.16.13-.4.38.55.85.18,1.26.16.25-.01.49-.18.73-.28.01.03.03.05.04.08-.05.08-.1.16-.15.24.13,0,.29-.1.3-.08.14.2.28,0,.42,0,.22.01.4-.26.64-.09.1-.22.3-.12.46-.14.5-.05,1-.07,1.48-.21.07-.02.17-.05.2-.02.27.27.49-.02.65-.12.25-.16.49-.21.76-.24.02,0,.05.01.13.03-.09.03-.14.04-.22.07.29.12.49.2.7-.03-.05-.02-.1-.04-.16-.06.2-.02.33-.07.44-.13.14-.07.25-.07.32.07.09-.03.17-.08.25-.09.09-.02.23.04.27-.01.15-.17.41,0,.54-.19,0-.01.05,0,.08,0,.17-.04.33-.07.5-.11.09-.02.17-.08.27-.09.23-.03.47-.05.7-.04.13,0,.28.02.38.09.36.27.74.42,1.2.3.41-.11.82.02.97.3.2.37.47.65.82.88.19.12.4.26.53.44.19.26.42.31.72.24,0,.31.23.24.41.27.19.03.39.04.58.06v.03c.19-.03.39-.06.65-.09.27.3.62-.13.97.03-.14.11-.29.17-.43.26-.06.04-.14.18-.13.19.22.17.43.43.67.47.36.06.79.05,1.1-.1.35-.17.69-.18,1.06-.19.01-.08.02-.14.03-.21.01.02.02.04.04.06.36-.15.72-.31,1.07-.46-.04-.22.08-.34.32-.33-.02-.2.17-.43.39-.49.17-.04.35-.34.31-.52.18.02.31-.02.19-.23.1-.03.19-.06.33-.11-.04-.02-.06-.03-.08-.04.25-.28.53-.54.73-.85.2-.31.36-.64.68-.84.03-.02.03-.06.05-.09.19-.35.37-.69.56-1.04.05-.09.13-.2.22-.24.24-.11.48-.2.73-.27.24-.06.48-.08.72-.12.23-.03.46-.06.68-.09.16-.02.32-.04.47-.08.37-.09.74-.19,1.12-.28.12-.03.26,0,.38-.04.34-.1.67-.23,1.01-.31.43-.1.87-.15,1.3-.23.69-.12,1.37-.25,2.06-.38.38-.07.75-.16,1.13-.23.37-.07.75-.13,1.12-.2.1-.02.19-.02.29-.04.28-.04.56-.08.84-.11.28-.03.56-.07.84-.1.04,0,.09.02.1,0,.21-.22.48-.14.74-.19.18-.03.35-.07.53-.11.15-.03.29-.07.43-.12.34-.13.69-.02,1.04-.11.7-.19,1.42-.29,2.13-.44.49-.1.98-.22,1.47-.34.72-.17,1.44-.37,2.16-.53.39-.09.8-.11,1.2-.19.42-.09.82-.21,1.23-.33.43-.12.85-.26,1.28-.38.23-.07.46-.12.69-.18.1.33.2.61.26.91.12.53.63.69.95,1.04.19.21.5.31.76.45.44.23.71.77,1.32.71,0,0,.02,0,.03,0,.33,0,.66.03.99,0,.28-.02.58-.06.84-.17.17-.07.28-.27.51-.23,0,0,.02-.05.04-.07.1-.09.21-.18.31-.26.04-.03.09-.05.12-.08.1-.12.23-.22.29-.36.11-.3.62-.34.5-.78,0-.03.04-.08.08-.1.09-.08.19-.15.33-.26-.11-.01-.15-.02-.19-.03.24-.09.2-.32.27-.5.03-.06.17-.12.16-.15-.1-.28.12-.31.28-.38-.04-.31-.07-.6-.11-.89.01,0,.02.01.04.02.04-.16.09-.31.14-.5.05-.05.2-.12.21-.22.06-.34.29-.33.54-.33.26,0,.53.02.73-.22.04-.04.17,0,.26,0,.08-.07.18-.1.27-.14.22-.09.47-.03.67-.25.12-.13.41-.09.61-.16.12-.04.22-.14.32-.24.09-.09.14-.23.24-.31.23-.19.41-.4.45-.68.09-.03.18-.07.26-.1-.02-.04-.03-.08-.05-.12-.05-.07-.1-.14-.15-.21.07-.04.14-.09.25-.15-.12-.02-.22-.04-.31-.06.19-.19.37-.38.6-.62-.32.06-.56.11-.8.16-.12.03-.24.06-.36.1-.11.04-.22.1-.34.14-.43.17-.56.68-1.02.84-.31.11-.55.38-.85.53-.38.2-.76.42-1.24.38.05-.33.12-.64.14-.96.02-.32.12-.63.11-.97-.01-.31.14-.62.23-.92.02-.09.09-.23.07-.25-.24-.19-.08-.42-.1-.6-.07-.01-.12-.02-.18-.03.02-.08.03-.16.06-.24.02-.05.1-.09.1-.12-.03-.27-.07-.55-.1-.83.06.01.12.03.24.05-.1-.14-.17-.23-.24-.32.05-.07.11-.15.2-.28-.48.12-.63-.21-.7-.48-.09-.34-.27-.57-.53-.73-.97-.61-2.01-.93-3.15-.57-.28.09-.53.31-.84.5.12.06.19.09.3.15-.34.12-.58.2-.82.28.01.03.02.06.03.09.12-.03.25-.06.44-.11-.58.47-1.1.91-1.63,1.34q.36-.1.48.02c-.22.15-.44.3-.65.47-.09.07-.21.17-.07.31.02.03,0,.14-.02.16-.35.24-.3.66-.46.97-.12.05-.24.09-.41.15.18-.01.31-.02.43-.03,0,.03,0,.06.01.08-.2.06-.4.11-.59.17.03.04.08.09.15.17-.13.09-.23.19-.35.23-.63.2-1.26.42-1.91.55-.74.16-1.51.23-2.26.36-.98.17-1.96.35-2.93.56-.83.17-1.64.42-2.47.58-1.2.24-2.41.44-3.61.64-.92.15-1.84.27-2.76.4-.44.06-.87.11-1.31.18-.58.09-1.16.18-1.73.28-.27.04-.56.04-.8.14-.55.24-1.16.13-1.72.29-.35.1-.73.07-1.1.1-.36.03-.53-.04-.6-.29-.06-.22-.09-.46-.11-.69-.05-.58-.08-1.17-.13-1.75-.01-.16-.07-.32-.09-.47-.07-.66.05-1.34-.13-2-.05-.2,0-.44.07-.64.04-.11.08-.15,0-.27-.08-.11-.09-.27-.1-.42,0-.28,0-.56.03-.84.03-.25.12-.49.19-.75-.11-.06-.09-.27.09-.43-.09-.11-.11-.63-.02-.74.08-.11.56-.16.64-.11,1.17-.62,2.44-.67,3.68-.8.11-.05.22-.1.34-.11.41-.04.82-.05,1.23-.1.48-.06.96-.18,1.44-.24.49-.06,1-.06,1.49-.12.29-.04.56-.17.85-.21.31-.05.63-.05.95-.09.54-.07,1.09-.15,1.63-.23.12-.02.24-.09.36-.11.08-.02.17-.01.26,0,.12.02.23.08.35.07.83-.08,1.65-.19,2.48-.27.5-.05,1-.08,1.5-.13.12-.01.23-.07.4-.12.2.07.46.03.72-.07.14-.05.29-.08.44-.1.44-.07.87-.11,1.31-.19.32-.06.63-.15.95-.22.2-.04.46.02.61-.09.21-.15.4-.08.6-.09.07,0,.14.04.2.02.29-.11.55-.23.9-.17.32.06.67-.08,1.01-.05.63.05,1.21-.11,1.82-.22.49-.09,1-.1,1.5-.14.42-.04.86,0,1.24-.14.33-.12.65-.17.99-.16.26,0,.51.07.77.07.35,0,.7-.04,1.05-.03.73.02,1.46-.05,2.18.12.27.06.57.01.86.01.02-.04.03-.09.05-.13-.27-.24-.53-.48-.79-.71,0-.07.04-.22.02-.22-.16-.05-.33-.08-.5-.11-.12-.02-.25,0-.37-.03-.13-.04-.26-.16-.39-.16-.39.02-.77-.02-1.16-.05-.66-.06-1.33,0-1.99,0-.09,0-.21-.04-.26-.11-.43-.56-.83-1.14-1.27-1.7-.3-.39-.63-.76-.97-1.11-.26-.26-.56-.48-.82-.74-.49-.49-1.03-.9-1.59-1.26-.1,0-.21,0-.31-.06-.57-.28-1.13-.58-1.69-.88-.49-.27-.98-.58-1.49-.8-.8-.34-1.65-.43-2.37-.9-.66-.18-1.31-.37-1.98-.51-.42-.09-.87-.04-1.31-.02-.47.02-.94.11-1.41.13-.29.01-.57.1-.89.04-.23-.05-.51.15-.77.22-.97.26-1.9.69-2.92.79-.22.02-.43.1-.64.17-.44.33-.91.61-1.4.87-.17.16-.34.31-.51.47-.82.73-1.65,1.45-2.44,2.21-.88.85-1.73,1.73-2.58,2.61-.3.31-.53.69-.86.95-.2.16-.44.26-.69.37-.34.3-.7.57-1.08.82-.57.38-1.14.77-1.39,1.44-.12.31-.23.74-.18,1.08.07.55.32.36.69.59.54.33.42,1.02.4,1.55,0,.11-.04.2-.09.27.02.17.05.34.08.51.08.43.08.87.11,1.31.03.44.05.88.07,1.31.01.2,0,.4.03.59.07.54.14,1.08.22,1.62.06.41.15.81.21,1.22.02.12-.01.25,0,.37.02.4.05.79.09,1.19.02.19-.06.27-.24.28-.1,0-.2,0-.29.03-.21.05-.39.33-.34.55.05.24.25.31.45.36.04.01.09,0,.13,0,.27-.03.37.07.38.36.04.81.12,1.61.19,2.42.03.37.09.74.11,1.11,0,.08-.1.24-.17.25-.6.1-1.2.18-1.84.27.06-.19.15-.37.18-.56.05-.4.06-.8.1-1.2.01-.14.05-.27.08-.4.03-.16.19-.34-.09-.45-.05-.02-.08-.11-.11-.18-.2-.53-.41-1.05-.61-1.58-.12-.3-.28-.6-.33-.92-.1-.66-.52-1.19-.67-1.83-.06-.25-.09-.51-.15-.76-.03-.1-.12-.17-.18-.26-.08-.13-.14-.26-.23-.39-.08-.13-.18-.25-.27-.38-.04-.05-.08-.11-.09-.17,0-.12.02-.24.03-.4-.13.04-.19.06-.24.07,0-.1.04-.2.01-.27-.05-.11-.14-.1-.23-.02-.02.02-.1-.02-.14-.04-.33-.18-.65-.41-1-.54-.66-.24-1.34-.47-2.02-.62-.41-.09-.86-.06-1.27,0-.45.06-.88.24-1.33.31-.52.08-.98.33-1.4.6-.61.39-1.17.86-1.73,1.32-.17.14-.25.37-.39.54-.13.16-.29.29-.43.44-.04.05-.06.12-.06.19-.12.16-.24.31-.37.47.01.01.02.02.03.03.08-.09.16-.19.21-.25-.3.59-.64,1.2-.91,1.85-.28.67-.53,1.36-.72,2.06-.15.52-.17,1.06-.29,1.59-.12.53-.29,1.05-.44,1.57-.16.58-.31,1.17-.46,1.75-.08.31-.15.63-.24.94-.02.06-.09.12-.15.13-.54.1-1.08.2-1.63.3-.11.02-.21.04-.32.06-.26.05-.5.16-.78.07-.11-.04-.27.08-.4.12-.76.19-1.52.37-2.28.56-.27-.43-.41-.48-.87-.29-.26.11-.52.24-.83.38.1.03.16.04.25.07-.52.14-1,.27-1.5.41-.26-.3-.64-.16-1-.19-.17-.01-.34-.02-.5,0-.14.02-.29.07-.42.13-.15.07-.26.16-.41-.04-.06-.08-.25-.1-.38-.1-.31.01-.61.03-.9-.11-.1-.05-.25.01-.45.03.1-.04.13-.05.15-.06,0-.02,0-.03,0-.05-.22.01-.44.02-.67.03.04-.02.07-.03.11-.05,0-.02,0-.04,0-.07-.33-.03-.65-.05-.98-.09-.14-.01-.31,0-.41-.07-.37-.26-.86-.2-1.22-.5-.02-.02-.07-.03-.1-.03-.53.03-.82-.37-1.16-.66-.1-.08-.1-.19.06-.24.08-.02.15-.07.23-.07.69-.02,1.37-.06,2.07.1.48.11.99.07,1.49.09.28.01.56.06.83.01.74-.12,1.47.15,2.2.07.49-.06.97-.12,1.46-.16.27-.02.53.01.8,0,.07,0,.14-.08.21-.09.5-.07,1.01-.12,1.52-.19.18-.02.36-.05.55-.07.2-.02.41-.01.61-.05.12-.02.22-.11.33-.16l-.03-.06c.65-.09,1.29-.18,1.96-.28-.55-.28-1.1-.03-1.71-.1.51-.21.96-.39,1.45-.6h-2.22s.03-.08.06-.14c-.02,0-.05,0-.07.01-.61.19-1.23.21-1.86.21-.56,0-1.13,0-1.69-.03-.41-.02-.76.09-1.14.23-.34.12-.75.09-1.12.08-.32,0-.64-.09-.96-.11-.51-.04-1.01-.1-1.52-.1-.73,0-1.47-.08-2.18.19-.13.05-.3,0-.45,0-.39-.02-.8-.09-1.18-.03-.3.04-.54.04-.77-.15-.03-.02-.08-.04-.1-.03-.25.23-.33-.03-.48-.14-.33-.23-.55-.63-1.01-.63.08-.26.16-.3.38-.21.07.03.13.08.19.09.62.06,1.25.14,1.87.17.32.01.64-.09.96-.12.35-.03.71-.14,1.05.05,0,0,.02,0,.03,0,.72-.22,1.44.04,2.16,0,.61-.04,1.22-.09,1.83-.15.11-.01.21-.08.32-.12,0-.03.01-.06.02-.09-.1-.04-.19-.1-.29-.11-.36-.01-.73,0-1.09,0,0-.03,0-.06,0-.09.35-.02.7-.04,1.05-.06,0-.03,0-.07,0-.1-.25-.01-.51-.03-.76-.05-.33-.03-.66-.03-.99-.1-.83-.17-1.67-.07-2.5-.12-.47-.03-.94-.03-1.4.09-.02,0-.06,0-.08,0-.27-.25-.55-.14-.85-.06-.12.03-.31.09-.4-.11-.01-.02-.11,0-.17,0-.21-.01-.43-.03-.64-.04-.07,0-.13,0-.2-.01-.18-.02-.35-.05-.53-.08-.24-.04-.48-.07-.72-.11-.13-.02-.27-.03-.39-.07-.31-.12-.62-.23-.97-.19-.32.04-.66-.02-.99-.04-.45-.04-.9-.06-1.34-.14-.39-.07-.77-.21-1.14-.35-.08-.03-.16-.23-.14-.32.13-.52.19-1.04.09-1.57-.03-.17-.09-.37.12-.48.21-.11.39-.08.54.12,0,0,.03,0,.07.01.03-.06.07-.13.1-.18.12-.01.23-.02.27-.03.3.14.54.27.8.35.09.03.27-.05.33-.08.39-.22.79.05,1.2-.07.27-.08.62-.09.92-.14.1-.02.19-.08.29-.09.32-.03.63-.12.98.02.29.11.67.01,1.01,0,.1,0,.21-.06.34-.1-.04.07-.07.1-.09.14l.03.05c.09-.05.17-.11.26-.14.07-.02.16-.01.24-.02.03,0,.08.03.1.01.33-.32.78-.13,1.15-.27.5-.19,1.01-.34,1.51-.53.54-.2,1.02-.46,1.42-.87.23-.23.53-.39.76-.62.31-.3.63-.58.79-1.01.07-.18.28-.31.43-.46.27-.27.54-.54.83-.81-.05-.06-.1-.11-.14-.17.2-.35.52-.47.9-.5.14-.01.27-.06.4-.12.76-.34,1.54-.64,2.26-1.04.47-.26.97-.36,1.47-.51.69-.2,1.38-.41,2.07-.59,1.02-.26,2.04-.5,3.06-.74.39-.09.79-.16,1.18-.26.28-.07.55-.17.82-.25.79-.22,1.58-.44,2.37-.66.76-.21,1.52-.43,2.29-.63.45-.12.91-.19,1.35-.32.64-.19,1.27-.41,1.9-.63.55-.19,1.1-.39,1.64-.61.38-.15.74-.35,1.11-.53.42-.2.85-.37,1.25-.61.27-.16.5-.4.71-.65.72-.87,1.42-1.78,2.14-2.65.37-.44.79-.83,1.21-1.28-.01-.05-.03-.16-.05-.25-.22.03-.45.06-.67.11-.09.02-.16.09-.24.14-.19.13-.38.25-.55.39-.17.14-.31.32-.48.47-.26.22-.55.39-.8.62-.18.16-.31.38-.47.57-.04.05-.07.11-.12.14-.18.1-.33.21-.44.4-.05.09-.21.13-.33.18-.19.08-.4.15-.59.23-.18.08-.35.17-.53.25-.12.05-.24.11-.07.25-.51.17-.99.38-1.51.07-.1.19-.25.15-.41.06-.06-.03-.15-.01-.23,0-.18.02-.35.05-.53.07-.03,0-.07-.07-.12-.12-.16.2-.26.1-.43-.07-.09-.08-.35,0-.54.04-.08.02-.14.11-.21.16v-.4c-.21.26-.39.26-.62.16-.14-.06-.34,0-.5-.01-.32-.04-.64-.15-.96-.15-.27,0-.48-.18-.71-.16-.31.03-.45.04-.66-.12-.16.16-.27.14-.38,0-.17,0-.3,0-.43,0-.13.01-.27.04-.4.06-.06,0-.12,0-.18,0-.34-.01-.67-.02-1.01-.04-.44-.03-.88-.05-1.31-.1-.21-.03-.35-.06-.27.22-.14-.1-.26-.19-.43-.3.33-.05.62-.09.89-.13-.15-.19-.18-.2-.44-.03-.08-.09-.16-.18-.26-.3-.11.16-.21.31-.33.47-.22-.28-.53-.18-.81-.2-.1,0-.28.07-.21-.18-.17,0-.36-.06-.28.3-1.09-.2-2.14-.39-3.13-.57-.1-.18-.17-.3-.25-.44.11-.15.08-.29-.09-.28-.08,0-.17.03-.27,0,.27-.24.52-.5.82-.71.46-.33.94-.62,1.41-.92.39-.25.78-.48,1.17-.73.07-.04.11-.11.18-.15.19-.12.39-.23.58-.35.05-.03.11-.06.16-.1.3-.22.59-.48.91-.66.34-.2.73-.32,1.09-.5.5-.25.99-.52,1.48-.77.05-.02.1-.08.14-.07.45.13.59-.26.85-.47.21-.16.45-.29.69-.39.17-.07.34-.1.45-.28.04-.06.19-.06.31-.1-.08-.04-.14-.08-.22-.12.04-.05.07-.12.1-.13.24-.05.49-.1.73-.14.04,0,.07,0,.11-.02.37-.14.81-.21,1.1-.45.37-.31.83-.28,1.22-.47.46-.23.98-.33,1.48-.46.18-.05.36-.06.55-.08.5-.06,1-.1,1.5-.17.27-.04.54-.1.81-.15.28-.05.56-.11.84-.13.34-.01.69.04,1.03.03.44,0,.88-.04,1.32-.08.29-.02.59.01.83-.21.03-.02.09-.02.13-.02.18.04.37.09.56.08l-.3-.07v-.05c.28-.05.55-.09.81-.14.13.28.33.32.52.1-.12-.02-.25-.03-.38-.05,0-.03,0-.06,0-.09.17-.04.34-.08.52-.13.03.11.04.19.07.28.25-.02.49-.05.74-.07,0-.38-.34.07-.41-.2.39-.04.78-.24,1.12.14.05.05.17.08.25.06.29-.08.57-.2.87-.26.19-.04.39-.01.59,0,.11,0,.21.05.33.09.1-.27.25-.23.45-.11.1.06.25.05.37.02.28-.06.59.05.85-.15.03-.02.09-.02.13-.01.16.02.31.07.46.07.69,0,1.38-.04,2.06-.01.3.01.57.04.88-.03.27-.06.56-.11.85-.16.1-.02.21,0,.31,0,.38.05.75.1,1.13.16.08.01.14.09.22.12.04.02.1-.01.14-.09h.56s0,.03,0,.05c-.06.02-.12.05-.18.07l.02.07c.08-.02.2-.02.22-.07.08-.21.2-.11.29-.04.25.23.39.26.68.1.18-.1.34-.14.53-.01.17.11.36.13.56.05.36-.14.67.11,1.02.18.18-.37.52-.23.8-.19.47.07.94.16,1.41.27.36.09.72.18,1.07.27.09,0,.18.03.27.07.42.11.85.21,1.27.32.16.04.34.09.46.19.1.07.18.18.27.29.22.07.43.15.64.25.83.4,1.63.87,2.45,1.31.37.13.75.26,1.12.4.33.13.66.28.96.47.59.38,1.13.83,1.73,1.17.37.21.66.63,1.16.55.02,0,.05.02.07.03.13.07.27.12.39.21.37.26.95.2,1.16.72,0,.02.05.03.07.04.4.21.81.43,1.21.64.19.1.37.2.56.3.59.31,1.19.62,1.79.93.14.07.18.16.09.3-.09.15-.15.31-.24.45-.21.35-.22.47.04.77.29.33.59.65.9.96.26.26.51.51.53.92.01.37.08.73.13,1.1.12.79.03,1.56-.2,2.32-.02.07.03.16.04.23-.04.14-.1.26-.1.4,0,.25-.12.46-.2.68-.13.36-.04.8-.03,1.2,0,.1.07.21.12.31.06.13.09.29.19.37.08.06.16.13.24.19.1-.32.2-.64.28-.96.02-.1.04-.2.06-.3,0-.04.01-.08.02-.12,0-.02,0-.04,0-.06.02-.22.03-.45.04-.67,0-.12.05-.23.12-.32,0-.05,0-.11,0-.16.05-.29.12-.58.18-.86.12-.58.26-1.15.34-1.73.04-.28.16-.57-.02-.88-.09-.15-.14-.38.03-.59ZM71.83,17.43c.22-.13.43-.27.66-.41v.4c-.28.16-.59.33-.91.51-.06-.11-.11-.19-.18-.32.29.11.36-.04.44-.17ZM70.87,20.55c.11-.14.21-.29.34-.46,0-.01-.04-.07-.07-.14.01,0,.02-.02.04-.03.1-.06.21-.11.3-.18.25-.21.49-.43.75-.62.08-.06.19-.05.29-.12.15-.11.41-.11.62-.11.51,0,.84.3,1.04.76.13.3.17.59.19.9.01.25-.03.45-.23.58.04.12.07.22.12.36-.1-.02-.15-.03-.2-.05-.11.24,0,.55.21.65.02.14.03.25.04.36.02.09.04.19.02.29,0,.01,0,.02,0,.03,0,.21.01.41,0,.62,0,.04-.05.07-.11.11-.07.48-.15.97-.33,1.42-.04.1-.09.19-.14.28.04.62-.11,1.17-.49,1.61-.35.41-.78.76-1.19,1.12-.18.16-.38.3-.59.43-.21.13-.44.23-.67.33-.22.09-.45.18-.68.25-.1.03-.24.01-.31-.04-.43-.31-.81-.67-1-1.19.33-.17.58,0,.83.17.01-.02.02-.05.03-.07-.02-.1-.05-.2-.08-.32.2.05.27.33.54.26.19-.05.41-.01.62-.01.06-.25.04-.44-.19-.54-.13-.06-.27-.13-.4-.14-.58-.02-.92-.4-1.23-.82-.08-.11-.13-.23-.2-.36.09-.02.17-.03.25-.05-.08-.2-.14-.41-.15-.63-.03-.37.05-.72.18-1.06-.01-.03-.02-.06-.04-.09.04-.1.12-.22.14-.34.08-.52.35-.96.58-1.42.07-.14.19-.26.28-.39.06-.09.13-.2.15-.3.08-.49.51-.71.77-1.05ZM70.43,18.91c.09.14.16.23.2.29-.1.05-.19.1-.28.15.05-.08-.1-.25.08-.45ZM69.79,19.74s.04.02.06.03v.17c.12-.07.24-.14.39-.23-.06,0-.11,0-.14,0-.06-.02-.12-.04-.18-.07.03-.05.06-.11.09-.16.03-.04.06-.08.09-.12.03-.04.06-.08.1-.12,0,0,.07.03.07.05,0,.05,0,.11-.03.16-.01.04-.04.08-.08.13.08,0,.13-.01.18-.02.02.02.04.04.05.06-.26.32-.51.64-.78.98.12.17.04.24-.53.36.13-.49.53-.79.7-1.22ZM69.16,21.04c-.1.2-.19.38-.28.55-.03-.02-.06-.05-.1-.07.13-.15.03-.44.38-.48ZM68.8,21.64c.02.09.03.15.04.21.06-.06.11-.12.17-.18l.05.03c-.06.12-.12.24-.19.38-.09-.06-.17-.11-.26-.16.06-.09.12-.17.2-.27ZM44.21,26.03s.07-.11.12-.12c.26-.07.52-.13.78-.19.18-.04.36-.06.54-.09.75-.13,1.51-.24,2.26-.38.34-.06.67-.2,1.02-.26.44-.08.89-.12,1.33-.17.71-.09,1.42-.18,2.13-.27.67-.09,1.34-.17,2-.29.73-.13,1.44-.3,2.17-.44.83-.17,1.66-.33,2.49-.49.52-.1,1.05-.18,1.56-.3.53-.12,1.05-.29,1.58-.43.22-.05.44-.08.66-.1.45-.04.9-.02,1.34-.11.56-.12,1.1-.34,1.65-.49.34-.09.7-.14,1.04-.22.11-.03.22-.09.33-.12.08-.02.17-.02.21-.02v.48s-.12.02-.23.03c.04.07.06.13.11.18.09.1.11.17.02.3-.15.22-.23.49-.36.73-.05.09-.17.17-.27.19-.67.14-1.35.26-2.03.38-.31.05-.63.08-.94.13-.78.13-1.55.27-2.33.39-.42.07-.84.09-1.26.16-.82.13-1.65.28-2.47.41-.58.09-1.17.16-1.76.25-.98.15-1.95.3-2.93.46-.96.15-1.91.31-2.87.47-.74.12-1.48.18-2.21.34-.6.13-1.19.11-1.79.09-.17,0-.43-.05-.44.23,0,.26.24.25.4.26.71.06,1.43.14,2.14.13.84-.01,1.67-.09,2.5-.17.86-.09,1.72-.21,2.58-.33.44-.06.88-.15,1.31-.23.62-.13,1.23-.28,1.86-.39.43-.08.88-.11,1.32-.16.02,0,.04,0,.05,0,.48-.12.95-.26,1.44-.34.56-.1,1.14-.16,1.7-.24.28-.04.55-.1.83-.15.65-.1,1.29-.2,1.94-.3.41-.06.81-.15,1.22-.2.61-.08,1.17.2,1.76.26.04,0,.12.12.1.16-.04.14-.08.3-.17.39-.09.09-.24.12-.37.15-1.07.26-2.15.52-3.22.78-1.23.3-2.47.6-3.7.89-.31.07-.64.1-.96.17-.56.12-1.12.25-1.68.37-.32.07-.65.11-.97.17-.46.08-.91.15-1.37.23-.18.03-.36.09-.55.13-.34.07-.69.12-1.03.2-.27.06-.53.17-.82.05-.03-.01-.08-.01-.1,0-.5.34-1.1.23-1.65.37-.51.13-1.04.21-1.56.31-.1.02-.21,0-.31.02-.29.05-.58.11-.87.16-.55.1-1.09.2-1.63.32-.35.08-.69.19-1.04.29-.07.02-.14.03-.21.05-.08-.38-.21-.73-.21-1.08,0-.74-.18-1.46-.26-2.19-.03-.26.01-.52.04-.78ZM60.78,3.09c.12,0,.24.06.35.11.35.17.69,0,1.04,0,.47,0,.92.04,1.37.22.63.25,1.28.45,1.92.68.52.19,1.04.37,1.54.6.49.23.98.49,1.43.79.77.52,1.49,1.11,2.13,1.8.19.2.45.33.66.52.33.3.56.65.74,1.07.2.46.53.87.84,1.37-.5.03-.95.05-1.39.08-.19.01-.38.01-.55.07-.15.05-.27.05-.37-.02-.29.02-.58.04-.87.08-.74.12-1.45.33-2.2.37-.79.05-1.51.13-2.28.31-.77.18-1.55.35-2.35.37-.13.04-.26.08-.39.11-.43.1-.87.18-1.31.24-.2.03-.34-.03-.15-.27.15-.2.01-.42-.05-.64-.02-.07,0-.16.01-.24.04-.26.1-.52.13-.78.04-.33.05-.67.08-1,.06-.66.21-1.31.08-1.99-.08-.42-.07-.86-.11-1.28,0-.04,0-.08,0-.11-.31-.45-.13-1.01-.34-1.48-.09-.19-.2-.37-.29-.57-.05-.11-.06-.24-.08-.37.13-.02.27-.07.4-.06ZM48.35,8.63c.44-.42.9-.82,1.38-1.21.92-.76,1.84-1.52,2.8-2.25.31-.24.71-.36,1.07-.53.25-.11.5-.25.76-.29.4-.07.82-.08,1.22-.12.09,0,.18,0,.26-.02.3-.1.6-.21.89-.33.13-.05.26-.13.39-.19.09-.04.19-.08.28-.09.33-.01.65-.05.9-.32.04-.05.15-.07.23-.06.34.05.68.1,1.02.16.05,0,.1.05.13.1.16.29.37.57.44.88.18.84.36,1.69.41,2.55.04.7-.07,1.42-.15,2.12-.09.75-.22,1.49-.34,2.23-.04.24-.07.49-.15.72-.05.14-.17.26-.35.23-.35-.06-.63.08-.93.23-.27.13-.59.17-.9.21-.54.07-1.08.11-1.62.17-.43.05-.87.1-1.3.16-.23.03-.46.12-.69.15-.17.03-.35,0-.53,0-.53.06-1.06.12-1.59.19-.1.01-.2.03-.29.01-.07-.01-.18-.07-.18-.11,0-.09.03-.24.09-.26.27-.1.22-.34.26-.53.07-.3.11-.61.16-.92.04-.29.08-.58.12-.87,0-.04-.02-.11,0-.13.24-.22.03-.42-.08-.55-.35-.4-.76-.7-1.35-.58-.15.03-.33-.05-.49-.04-.27,0-.56,0-.82.07-.64.14-1.26.31-1.95.49.18-.56.53-.93.89-1.27ZM45.82,11.81c.18-.11.3-.31.47-.44.16-.12.36-.21.56-.33.02.1.03.15.04.22.43-.25.84-.52,1.34-.51.14-.02.28-.07.42-.06.15,0,.3.06.5.11-.05-.14-.08-.21-.11-.28.01,0,.03-.02.04-.02.28.07.56.14.85.2.04,0,.09-.04.14-.05.1-.02.21-.03.31-.03.03,0,.06.05.09.05.11.03.29,0,.33.07.11.16.18.35.21.54.04.29.01.59.06.88.02.16.15.3.19.46.02.07-.02.23-.06.24-.23.07-.47.1-.7.14-.11.02-.22.03-.32.05-.25.05-.5.1-.75.14-.27.05-.54.1-.82.14-.04,0-.11-.03-.13-.07-.27-.42-.68-.28-1.05-.26-.15,0-.3.08-.45.11-.28.05-.56.11-.85.14-.09.01-.18-.03-.28-.05.02-.09.03-.19.07-.26.2-.36.2-.38-.15-.79-.12-.14-.16-.23.04-.35ZM43.34,13.27c.49-.59,1.08-.83,1.66-1.12.25.37.18.73.06,1.14-.07-.05-.14-.1-.16-.11-.17.04-.29.08-.41.08-.36.01-.72,0-1.16,0ZM30.41,31.05c-.02.06-.02.13-.03.19-.08-.04-.2-.06-.24-.12-.07-.12-.1-.26-.18-.4.17.37.1.72-.1,1.06-.17-.17-.11-.36-.07-.55.03-.16.02-.32,0-.47.05-.24.1-.49.16-.73.02-.08.07-.15.1-.22.04.07.1.13.11.2.06.23.06.47.16.68.06.13.12.23.08.36ZM39.02,32.56c-.2.36-.46.66-.74.94-.36.74-.91,1.3-1.65,1.71-.6.33-1.19.66-1.8.98-.33.17-.67.1-.99,0-.34-.11-.66-.25-.99-.39-.11-.05-.2-.13-.31-.18-.05-.02-.11-.02-.22-.04-.61-.27-.94-.9-1.32-1.51.09-.11.21-.27-.08-.38.07-.11.15-.19.25-.25-.42-.79-.41-1.75-.4-2.63,0,0,0,0,0,0,0,0-.04.04-.1.08-.03-.57-.07-1.13-.1-1.69.01,0,.02,0,.03,0,.02.05.03.09.05.16.1-.32-.14-.68.16-.92-.05-.05-.14-.13-.13-.14.29-.38.17-.87.36-1.27.01-.02,0-.07.01-.08.29-.15.44-.43.56-.7.14-.3.51-.34.62-.65.03-.08.17-.12.27-.18.64-.42,1.37-.52,2.09-.49.46.02.92.22,1.37.34.04.01.11.05.11.07-.04.32.24.34.43.46.02.01.06.02.07.04.15.35.48.53.74.78.14.13.16.26.09.44-.19.48.01.87.5,1.03.56.19.99.51,1.07,1.11.65,1.05.68,2.3.06,3.37ZM37.67,20.97c.26.14.52.26.69.5l-.03.08c-.39-.13-.77-.26-1.21-.42.19-.12.29-.3.55-.17ZM27.5,30.73c.13-.53.28-1.06.39-1.59.05-.24.05-.5.05-.74,0-.56.24-1.05.49-1.51.38-.72.8-1.42,1.23-2.12.07-.12.16-.24.24-.35.02-.09.06-.18.15-.26.06-.05.11-.1.17-.15.02-.02.04-.04.05-.07,0-.07.03-.14.08-.21.44-.61,1.02-1.11,1.66-1.48.55-.45,1.15-.82,1.77-1.18.07-.04.15-.11.19-.18.32-.49.55-.57,1.14-.42.13.03.28,0,.42,0,0,.01,0,.02.01.04.23.05.46.11.69.16,0,.02,0,.04,0,.06-.43.14-.88.24-1.3.41-.33.13-.65.27-.98.42,1.2-.18,2.43.05,3.42.78.08.01.15.03.22.06.26.13.5.33.68.56.68.83.99,1.84,1.23,2.87.09.39.2.78.29,1.17.06.27.1.55.15.83,0,0-.02,0-.03,0-.26-.58-.52-1.16-.76-1.75-.1-.23-.16-.48-.23-.72-.14-.48-.45-.85-.87-1.08-.02,0-.03-.02-.05-.02-.19.03-.39-.03-.52-.23-.14-.05-.27-.1-.41-.15-.1.05-.21.07-.34.05-1.11-.21-2.18-.72-3.32-.46-.86.2-1.6.65-2.27,1.2-.08.14-.16.29-.23.43-.08.15-.18.28-.24.43-.2.55-.51,1.03-.9,1.46-.21.23-.21.7-.04.9-.29.81-.66,1.58-.73,2.45-.03.33-.17.65-.22.99-.04.34-.03.68-.02,1.02,0,.19,0,.34-.26.37-.27.02-.54.11-.82.15-.27.04-.35-.04-.38-.31-.06-.61.04-1.21.18-1.8Z"/>
      <path class="cls-1" d="M10.23,22.3c.08.04.17.07.25.11,0,.02,0,.04,0,.05-.12,0-.24,0-.36.02-.05,0-.12,0-.14.04-.2.29-.45.15-.7.08-.04,0-.08,0-.12,0-.06.02-.12.07-.17.06-.3-.05-.59-.1-.89-.16-.03,0-.07-.04-.1-.03-.33.13-.62-.05-.92-.13-.15-.04-.33-.02-.47-.08-.19-.08-.46.06-.57-.23,0-.02-.16-.03-.2,0-.31.21-.56.02-.78-.13-.15-.1-.25-.3-.33-.47-.02-.05.07-.18.13-.25.33-.33.5-.87,1.13-.82-.13.19-.25.37-.38.54-.11.16-.13.28.1.33.24.06.47.12.71.18.05.01.09.05.14.06.24.05.48.1.72.14.22.03.44.05.72.07.08-.12.16.02.32.09.22.1.5.07.76.09.64.04,1.27.06,1.91.11.13,0,.27.09.24.34-.21-.29-.42-.15-.63-.1-.11.03-.24,0-.35,0v.05Z"/>
      <path class="cls-1" d="M5.26,15.43c-.06.03-.12.06-.18.09-.2.08-.4.16-.62.24.13-.26.48-.45.97-.55-.06.06-.12.14-.18.21Z"/>
      <path class="cls-1" d="M13.93,25.41c-.24.16-.36.11-.41-.15.24-.05.4-.29.71-.16.16.06.39-.04.58-.04.12,0,.23.08.36.11.16.04.34.13.49.09.56-.14,1.11-.31,1.66-.51.72-.26,1.42-.54,2.13-.82.3-.12.64-.17.89-.35.37-.27.86-.24,1.2-.55.18-.17.37-.34.56-.5.13-.11.31-.17.42-.3.23-.26.52-.38.82-.51.25-.11.46-.33.7-.48.41-.26.82-.51,1.24-.74.15-.08.34-.09.57-.14-.08.12-.14.23-.22.32-.35.36-.58.76-.55,1.3,0,.12-.11.29-.22.36-.29.18-.61.31-.91.48-.31.17-.62.36-.92.54-.4.24-.8.49-1.21.72-.35.19-.7.38-1.07.54-.3.12-.62.18-.92.29-.14.05-.26.15-.39.22-.07.04-.15.09-.23.11-.24.07-.49.17-.74.19-.52.04-.94.38-1.47.38-.33,0-.65.13-.98.17-.48.06-.96.13-1.44.11-.25,0-.49-.21-.74-.32.04-.13.07-.2.11-.34Z"/>
      <path class="cls-1" d="M28.78,11.5h-.69c.08-.17.37-.2.69,0Z"/>
    </g>
  </g>
</svg>