<?xml version="1.0" encoding="UTF-8"?>
<svg id="Layer_2" data-name="Layer 2" xmlns="http://www.w3.org/2000/svg" viewBox="0 0 31.61 113.04">
  <defs>
    <style>
      .cls-1 {
        fill: #000;
        stroke-width: 0px;
      }
    </style>
  </defs>
  <g id="illustrations">
    <g>
      <path class="cls-1" d="M2.03,108.32c1.06,1.46,2.59,2.46,4.31,3.1,3.73,1.39,7.95,1.66,11.89,1.62,2.17-.02,4.36-.18,6.49-.63,2.11-.45,4.13-1.22,6.08-2.12.1-.1.2-.19.3-.29.1-.1.2-.19.31-.29.34-1.42.22-2.96.03-4.44-.23-1.84-.51-12.11-.5-12.29.02-.27-.03-.55-.04-.83-.01-.38.08-2.14.1-2.34,0-.04.15-.63.12-.91-.03-.27.07-.91.09-.95.03-.06-.02-1.75-.04-2.54-.01-.51-.01-1.02-.05-1.53-.04-.51-.12-1.01-.17-1.51-.01-.13-.02-.29.04-.38.19-.29.13-.6.12-.9,0-.2-.08-.41-.12-.62.22-.04.03-.19-.02-.32.31-.2,0-.38.02-.57.06-.13.1-.26.11-.39.01-.22-.06-.47.02-.66.12-.3.06-.56-.01-.8.05-.05.14-.09.14-.13,0-.69,0-1.37,0-2.06,0-.14.03-.29.03-.43-.04-.68-.09-1.37-.13-2.05-.03-.39-.05-.78-.08-1.17-.05-.53-.07-1.06-.16-1.59-.08-.49.01-.99-.12-1.47-.03-.11.09-.26.07-.39-.05-.41-.12-.81-.19-1.24.23-.09.08-.28.04-.45-.06-.24-.15-.48-.19-.73-.08-.49-.14-.99-.21-1.48-.06-.47-.1-.93-.17-1.4-.03-.24-.11-.48-.15-.73-.08-.56-.13-1.13-.21-1.7-.06-.43-.11-.87-.19-1.3-.09-.54-.18-1.08-.29-1.62-.06-.3-.16-.6-.24-.9-.12-.48-.23-.96-.37-1.43-.35-1.22-.69-2.45-1.08-3.66-.28-.89-.62-1.76-.97-2.62-.21-.51-.5-.99-.73-1.49-.56-1.22-1.02-2.47-1.33-3.77-.19-.79-.47-1.55-.67-2.34-.16-.61-.47-1.16-.65-1.77-.29-.94-.66-1.85-.96-2.78-.17-.53-.28-1.08-.4-1.62-.05-.23-.06-.47-.11-.71-.1-.43-.21-.85-.32-1.27-.03-.12-.07-.23-.09-.35-.05-.29-.08-.58-.14-.86-.06-.25-.29-.57-.21-.73.19-.38-.21-.71,0-1.05-.21-.36-.06-.75-.11-1.13-.07-.46-.06-.94-.07-1.41-.01-.33,0-.66,0-.99,0-.19.02-.37,0-.56-.02-.27-.07-.53-.09-.8,0-.03.05-.07.07-.11.03-.06.08-.12.07-.17-.01-.3-.04-.59-.07-.89-.05-.51-.12-1.02-.15-1.53-.01-.33.05-.67.08-1,.05-.63.11-1.25.17-1.88.07-.72.13-1.43.21-2.15.06-.57.16-1.13.22-1.69.04-.39.04-.78.07-1.17.02-.27.11-.54.07-.79-.06-.33.08-.53.29-.73.04-.04.06-.12.09-.2.04,0,.12-.02.22-.03-.06-.08-.1-.12-.18-.23.7.15.49-.55.85-.71-.02-.02-.04-.04-.06-.06-.06.06-.13.12-.19.17-.02-.07,0-.13.02-.16.3-.36.38-.79.4-1.24,0-.12,0-.24,0-.35.05-.41.31-.82-.04-1.2.04-.09.12-.17.11-.24-.08-.57-.23-1.1-.67-1.51-.07-.06-.11-.19-.11-.29,0-.32.04-.63.06-.95.01-.16-.09-.32.04-.5.08-.1-.22-.46-.35-.43-.3.09-.46-.14-.66-.22.03-.11.06-.2.06-.29,0-.39,0-.79.01-1.18,0-.2,0-.44.11-.6.22-.36.11-.71,0-1.03-.19-.55-.47-1.07-.74-1.59-.11-.21-.28-.34-.55-.33-.2.01-.41.02-.61,0-.28-.04-.55-.15-.83-.18-.48-.05-.98-.11-1.45-.06-.67.08-1.34.26-2,.4-.38.08-.73.15-1.13.04-.38-.1-.77-.3-1.2-.16-.21.07-.44.06-.66.07-.17.01-.34-.02-.51,0-.52.09-.72.51-.87.93-.1.29-.04.65-.16.94-.13.31-.05.64-.25.96-.2.31-.23.75-.25,1.14-.03.6-.24,1.14-.5,1.67-.23.48-.41.99-.32,1.55.03.18.11.37.07.53-.09.36.06.77-.22,1.1-.03.04-.02.13-.01.19.05.4.19.82.15,1.21-.04.37.08.65.24.94.07.13.13.26.2.41.01,0-.03.02-.13.07.36.12.4.44.44.69.11.66.12,1.33.2,1.99.04.36.13.71.21,1.07.17.81.41,1.61.5,2.42.14,1.2.21,2.41.24,3.62.04,1.29.02,2.57-.02,3.86-.02.65-.12,1.3-.23,1.94-.09.52-.25,1.02-.35,1.53-.11.61-.18,1.24-.29,1.85-.1.58-.23,1.15-.35,1.73-.11.57-.19,1.16-.34,1.72-.18.66-.4,1.32-.64,1.97-.15.42-.4.81-.55,1.23-.24.69-.4,1.41-.63,2.1-.22.64-.46,1.28-.74,1.89-.37.83-.47,1.75-.91,2.55-.11.19-.15.42-.24.62-.18.44-.38.87-.54,1.32-.29.82-.55,1.66-.83,2.49-.01.04-.02.07-.02.11-.13.5-.26,1-.4,1.49-.09.32-.14.69-.33.94-.2.26-.11.58-.34.84-.19.23-.21.61-.3.92-.09.29-.18.57-.29.85-.08.23-.25.46-.26.69-.02.45-.18.84-.34,1.23-.03.08-.09.16-.11.25-.08.29-.1.62-.24.88-.25.43-.33.9-.47,1.36-.04.13-.2.29-.16.36.13.24.02.46-.02.67-.07.36-.19.72-.26,1.08-.07.41-.09.84-.17,1.25-.25,1.36-.32,2.73-.27,4.11.06,1.61-.15,3.19-.32,4.78-.05.46-.1.92-.1,1.39-.01,1.11.02,2.21,0,3.32-.01,1.19-.05,2.37-.08,3.56-.02.83-.04,1.66-.06,2.49-.01.4.01.8-.07,1.19-.06.28,0,.53.04.79,0,.03,0,.09-.03.1-.32.13,0,.2.03.28-.03.1-.08.18-.08.26,0,.24,0,.48,0,.72,0,.2.03.41.04.61,0,.09,0,.19-.01.28,0,0,0,0-.01,0v.96s-.02-.01-.03-.02c.39,1.4.06,2.88.02,4.33-.06,2.08-.09,4.22.04,6.29.14,2.18.66,4.31,1.18,6.43.4,1.63.56,3.26.7,4.9ZM19.75,1.62c.1-.17.37-.13.51.07.22.3.33.64.35,1.01.02.51.03,1.02.05,1.54,0,.23.02.46.06.68.04.28-.06.42-.38.38,0-.46.01-.92,0-1.37,0-.24-.06-.48-.12-.71-.05-.22-.08-.44-.3-.6-.24-.17-.3-.76-.17-1ZM10.62,11.38c-.33-.32-.36-.78-.46-1.2-.06-.25-.17-.57-.07-.76.14-.28.03-.53.05-.79.01-.13.03-.26.04-.39.34.09.65.17,1.01.27-.08-.25.05-.53-.32-.6-.08-.01-.16-.1-.22-.16-.17-.18-.44-.36-.45-.55-.01-.27.16-.56.28-.83,0-.02.24,0,.26.05.09.23.14.48.2.72.03.14.03.28.07.42.02-.19.05-.39.07-.58q.12.02.17.42c.11.05.21.09.29.13.3-.25.65-.45.86-.75.38-.55.85-1.1.76-1.86-.02-.15-.02-.3-.04-.45-.02-.24-.17-.39-.38-.43-.12-.02-.27.07-.38.15-.32.23-.4.59-.47.96-.04.21-.11.42-.14.64-.01.09.06.19.08.29.08.4-.04.68-.49.78-.18-.51-.44-1-.29-1.58.08-.33.14-.66.32-.96.12-.21.11-.48.16-.73.09-.44.16-.88.27-1.32.02-.09.12-.21.21-.24.23-.08.47-.12.7-.17.16-.04.34-.12.47-.16.39-.09.61-.46.99-.51.14-.02.28,0,.42,0,.46-.04.92-.1,1.38-.13.4-.03.8-.05,1.2-.06.41-.01.82-.03,1.23,0,.32.02.64.1.95.18.19.05.21.13.06.31-.44.57-.96,1.08-1.19,1.8-.2.61-.11,1.18.11,1.75.02.06.02.13.06.18.09.14.19.28.32.45-.15.15-.36.34-.55.55-.24.27-.49.54-.7.84-.17.24-.19.52-.12.81.03.13.02.26.03.39.13.26.26.52.39.79q.31-.13.21-.53c.06.02.11.04.16.05.04.01.08.03.14.04-.06-.11-.11-.19-.18-.31.13-.03.22-.04.34-.07-.06-.26-.02-.45.27-.38.06-.15.11-.28.16-.41.24-.52.13-1.16.56-1.69.12.42.18.83.69.85.07.5-.33.95-.15,1.45.01.11.02.23.04.34.05.21.15.42.16.63.02.4.16.76.36,1.1.05.08.13.13.2.19.06-.1.12-.19.16-.29.03-.07.02-.15.03-.25.07.03.12.06.23.1-.1-.17-.17-.3-.24-.42.03-.03.04-.05.05-.06.76-.25.6-.17.63.49.01.26.01.52.05.77.05.36-.11.62-.36.85.04.03.08.07.12.11-.25.34-.67.65-.97.72.07-.46.14-.92.2-1.34-.11-.18-.24-.31-.29-.48-.19-.54-.58-.84-1.12-.98-.42-.11-.97.14-1.18.56-.11.22-.16.46-.28.68-.1.17-.24.33-.38.46-.3.27-.6.55-.67.97-.04.2,0,.38.25.47.12.05.19.21.31.28.22.13.46.22.77.37-.17.03-.27.07-.36.07-.3.01-.56.1-.77.35-.14.17-.83.01-1-.2-.05-.07-.13-.14-.21-.16-.54-.15-.65-.37-.72-.98,0-.08-.06-.17-.12-.24-.25-.28-.52-.53-.77-.82-.15-.18-.29-.37-.38-.59-.05-.14-.13-.35.1-.46.02,0,.04-.03.04-.04-.09-.43.32-.49.52-.7.23-.25.57-.22.88-.26.24-.04.47-.13.73-.21-.11-.16-.18-.28-.28-.37-.06-.06-.2-.11-.25-.08-.2.12-.37.04-.57,0-.4-.11-.81-.07-1.19.1-.31.14-.62.29-.88.49-.16.13-.26.36-.36.56-.1.21-.18.43-.29.71.08.17.36.38.26.68-.3-.15-.58-.32-.87-.45-.1-.05-.31-.06-.35,0-.1.14-.14.33-.19.5-.03.11-.03.23-.04.35-.12-.05-.26-.07-.34-.15ZM11.95,11.77c-.06.03-.12.1-.17.1-.16-.02-.32-.06-.49-.09,0-.04,0-.08.01-.12.16,0,.33-.03.49-.02.05,0,.1.08.15.13ZM8.02,42.07c.3-.73.6-1.45.73-2.25.05-.35.26-.67.38-1.01.21-.61.42-1.21.62-1.83.19-.58.38-1.17.53-1.76.11-.44.13-.9.23-1.34.12-.54.28-1.06.41-1.6.11-.49.18-.98.3-1.47.07-.29.2-.57.28-.86.1-.34.18-.69.26-1.04.04-.16.11-.24.26-.1.11-.34.3-.66.3-.97,0-.43.24-.82.08-1.27-.07-.2,0-.49.08-.7.12-.32.12-.59-.05-.88-.03-.06-.02-.16,0-.23.06-.15-.08-.7-.2-.75-.05.24-.11.49-.16.74-.02,0-.05,0-.07,0,0-.13,0-.27.02-.4.05-.35.13-.69.17-1.04.02-.25-.03-.5-.04-.75,0-.04.04-.08.04-.12.01-.1.04-.21.02-.31-.04-.18-.19-.36,0-.54.01-.01-.09-.12-.09-.18.05-.36.12-.73.18-1.09.01-.06.06-.12.05-.17-.06-.38-.12-.75-.21-1.12-.12-.52-.28-1.03-.38-1.55-.12-.58-.19-1.18-.28-1.77-.05-.31-.13-.63-.13-.95,0-.45-.18-.84-.28-1.25-.08-.34-.07-.7-.1-1.09.18.04.35.1.52.11.3.01.6-.02.9-.02.08,0,.16.02.23.05.09.05.16.13.25.17.4.21.41.21.57-.14.18.14.37.29.56.44.1.08.16.18-.05.24.07.06.12.11.21.18-.11.05-.2.09-.28.13.04.26.03.51.33.66.17.09.26.32.39.51-.04.04-.08.09-.16.17.39-.1.8.14,1.14-.15.33.17.66.06.96-.08.58-.28,1.15-.42,1.75-.05.04-.02.06-.04.09-.06.06-.04.13-.08.19-.12.03.06.07.13.09.19.06.21.1.43.16.64.07.21.21.25.42.15.08-.04.18-.03.27-.03.33.02.45-.1.42-.45h.67v-.47s.06-.02.09-.02c.02.12.06.23.05.35-.03.36-.07.73-.1,1.09-.06.63-.18,1.25-.16,1.88.01.53-.21,1-.23,1.51,0,.29-.04.57-.06.86.03,0,.06,0,.09.01-.09.1-.19.2-.27.3-.02.02.04.09.04.13,0,.11.03.23,0,.33-.03.09-.18.14-.2.22-.02.09.06.2.1.31-.07.02-.14.05-.23.09,0,.15,0,.3,0,.46,0,.08,0,.16-.02.23,0,0-.1.02-.1,0-.02-.08-.03-.16-.05-.24-.28.09-.43.33-.42.72.03.86.07,1.72.1,2.59.02.4.03.8.08,1.19.07.61.18,1.23.26,1.84.02.16,0,.33,0,.49,0,.04-.01.08,0,.11.27.43.23.92.26,1.39.02.22.07.45.11.67.12.76.23,1.51.37,2.27.11.57.2,1.16.4,1.7.3.84.48,1.71.77,2.55.24.72.51,1.43.76,2.14.1.27.2.54.28.82.02.06-.02.16-.06.22-.19.26-.4.5-.59.76-.05.07-.09.15-.11.2-.13.09-.25.14-.33.23-.16.18-.27.4-.44.57-.08.08-.24.08-.37.12-.17.06-.38.08-.49.2-.35.36-.77.54-1.25.65-.22.05-.41.19-.63.27-.12.04-.25.05-.44.09-.54.35-1.25.19-1.97.38.1-.29.18-.49.25-.69h-1.44c-.17-.22-.16-.21-.45.08-.1.1-.23.18-.38,0-.09-.12-.28-.16-.46-.26,0,.02,0-.04,0-.09l-.05-.02c-.05.08-.1.16-.14.22-.44-.02-.88-.1-1.3-.05-.75.09-1.47-.06-2.2-.13-.19-.02-.37-.12-.55-.2-.27-.12-.54-.26-.81-.4-.18-.09-.34-.21-.52-.32.09-.07.19-.12.22-.19ZM1.3,93.92c0-.54-.03-1.09-.02-1.63,0-.48.06-.96.07-1.44,0-.43.08-.87-.07-1.31-.07-.23.01-.51.03-.76.02-.36.03-.72.07-1.08.01-.14.1-.27.13-.41.04-.16.06-.32.09-.48.01-.06,0-.13.03-.18.12-.18.05-.27-.12-.32.26-.1.2-.36.2-.53,0-.43-.07-.86-.09-1.29-.02-.61-.04-1.22-.02-1.83.04-1.1-.16-2.17-.29-3.25-.07-.59-.09-1.18-.1-1.77-.03-1.23-.06-2.46-.07-3.69,0-.57.03-1.13.05-1.7.03-.77.05-1.55.08-2.32.02-.63.06-1.27.08-1.9.01-.5-.02-1.01.02-1.51.07-1.02.17-2.03.26-3.05.08-.95.16-1.91.27-2.86.04-.37.18-.73.22-1.1.03-.4.23-.74.26-1.15.03-.41.31-.8.45-1.21.09-.26.27-.5.21-.8-.02-.08.09-.19.13-.28.15-.38.31-.75.44-1.14.1-.31.16-.63.26-.95.12-.41.24-.81.4-1.21.2-.53.43-1.05.66-1.56.03-.07.14-.11.22-.17-.04-.05-.08-.1-.11-.14.48-.2.46-.68.58-1.07.12-.39.25-.79.38-1.18.02-.07.07-.14.06-.21,0-.12-.02-.25.02-.35.11-.27.25-.52.36-.78.03-.08.14-.19-.07-.25.07-.05.16-.11.24-.17.14-.29-.02-.67.33-.94.19-.15.24-.48.36-.73.03-.06.08-.1.12-.15.04.05.09.1.12.15.03.06.04.14.07.21.03.07.07.14.11.2.05-.04.1-.12.15-.13.14,0,.33-.03.42.05.24.22.47.36.81.31.07-.01.14.04.22.04.2.02.4.02.59.05.16.02.33.07.49.12.3.08.57.07.86-.08.16-.09.4-.04.63-.06-.02.1-.04.17-.06.31.29-.04.56-.03.8-.12.44-.17.88-.17,1.32-.05.52.13,1.03.12,1.55-.03.17-.05.37-.03.55-.03.27,0,.54.09.8-.11.07-.05.26,0,.37.06.26.13.65.13.87-.04.04-.03.08-.08.13-.1.04-.02.09,0,.14-.01-.03-.03-.05-.05-.08-.08.07,0,.19-.03.21,0,.15.23.36.15.53.1.3-.08.59-.21.89-.31.18-.06.37-.09.54-.17.11-.05.19-.16.28-.24.07-.06.14-.15.21-.15.27-.03.54-.04.81-.05.12,0,.2,0,.28-.15.08-.15.3-.24.45-.35.22-.17.43-.32.3-.67-.06-.17-.06-.4,0-.57.05-.17.2-.32.35-.33.14.39.26.75.38,1.1.24.75.49,1.5.72,2.26.21.69.41,1.38.57,2.08.15.64.23,1.3.34,1.95.06.35.07.71.16,1.05.11.44.28.87.39,1.31.06.24.03.49.08.73.03.12.17.22.21.35.11.35.18.72.28,1.07.11.42.24.83.36,1.24.07.25.16.49.23.74.02.07-.03.15-.03.15.07.24.12.41.17.58.17.66.33,1.31.51,1.97.08.31.21.6.3.9.15.51.27,1.03.42,1.55.13.43.26.87.43,1.29.25.63.53,1.26.79,1.89.03.08.06.16.07.24.05.57.1,1.15.15,1.72.05.54.14,1.08.18,1.62.04.68.05,1.36.08,2.04.02.6.07,1.2.07,1.79,0,.58-.04,1.16-.05,1.74,0,.15.04.3.04.44,0,.87-.02,1.75-.01,2.62,0,.37.07.73.07,1.1,0,.33-.06.65-.08.98-.01.15,0,.3,0,.45-.01.38-.06.76-.04,1.14.05.67-.08,1.34.08,2.02.07.29-.02.61-.03.91,0,.08.02.16.04.24.03.19.16.38-.06.54-.03.02-.04.09-.03.13.05.2.13.4.16.6.01.11-.07.24-.09.28.07.19.2.38.15.44-.19.24-.19.48-.14.75.01.06-.07.14-.08.14.02.16.05.27.05.37-.02.59-.05,1.19-.06,1.78-.02.87.02,3.4.03,3.41-.03.15.85,12.02.86,12.36,0,.5.04,1.01.06,1.51,0,.04.02.08,0,.11-.27.43-.2.92-.29,1.38-.09.44-.3.85-.81,1-.92.27-1.83.57-2.74.85-.57.18-1.13.38-1.71.53-.42.11-.87.11-1.29.22-.55.15-1.07.39-1.61.55-.34.1-.7.13-1.04.21-.17.04-.32.14-.48.19-.15.05-.31.08-.47.09-.55.05-1.1.09-1.64.13-.66.04-1.33.11-1.99.11-1.06,0-2.12,0-3.18-.04-.53-.02-1.08-.03-1.58-.19-.36-.11-.74-.1-1.08-.25-.49-.21-.97-.44-1.46-.73.1-.02.19-.06.29-.06.5-.03,1-.04,1.51-.06.42-.02.85-.01,1.27-.05.12,0,.23-.12.32-.24.02,0,.04-.02.05-.01.5.41,1.01.22,1.55.08.49-.13.99-.17,1.49-.26.45-.09.89-.21,1.25-.53.04-.03.11-.03.16-.05.04-.02.07-.05.13-.09-.1-.07-.17-.13-.21-.16-.11.06-.2.13-.29.15-.35.05-.7.09-1.05.13-.16.02-.33.02-.49.05-.29.05-.59.12-.88.17-.1.02-.25.04-.29,0-.16-.19-.35-.12-.49-.05-.27.14-.52.05-.78.04-.22,0-.45.06-.67.07-.11,0-.23-.04-.34-.06-.27-.04-.63-.21-.8-.1-.43.29-.75-.13-1.13-.06-.15.03-.35-.11-.51-.21-.31-.19-.65-.09-.98-.13-.2-.02-.4-.12-.6-.18-.09-.03-.18-.02-.27-.05-.33-.09-.65-.19-.97-.28-.29-.08-.58-.16-.87-.23-.76-.18-1.52-.38-2.22-.74-.35-.18-.47-.5-.53-.87-.05-.3-.14-.59-.21-.88-.09-.37-.16-.74-.25-1.1-.1-.38-.21-.75-.32-1.12-.06-.19-.13-.38-.19-.58,0-.03.03-.08.03-.11,0-.21.01-.41-.01-.62-.05-.37-.12-.73-.18-1.1-.01-.08.03-.19,0-.24-.22-.26-.18-.6-.28-.9-.1-.3-.05-.65-.08-.98-.04-.44-.1-.88-.14-1.32-.02-.22-.03-.45-.05-.67-.02-.3-.06-.61-.07-.91-.01-.77-.01-1.53-.02-2.3Z"/>
      <path class="cls-1" d="M7.84,55.86c.12.16.29.3.35.48.07.2.06.44.08.66,0,.04,0,.08,0,.11.08.64-.06,1.27-.13,1.9-.07.58-.14,1.17-.24,1.75-.05.32-.18.62-.25.94-.05.24-.04.49-.09.73-.08.39-.19.77-.28,1.16-.1.42-.2.85-.31,1.27-.06.24-.15.47-.21.71-.02.07,0,.16.03.24.06.18.05.2-.07.2-.08.28-.17.55-.24.82-.04.15-.08.32-.06.47.07.49-.18.92-.21,1.38-.01.22-.03.44-.05.66,0,.1-.04.2-.05.3-.03.32-.05.64-.08.96-.01.13-.06.26-.08.39-.07.44-.16.88-.2,1.33-.05.51-.05,1.03-.09,1.54-.05.72-.13,1.43-.18,2.15-.03.41,0,.83-.02,1.25-.02.53-.07,1.05-.07,1.57,0,.35.04.71.05,1.06,0,.18-.03.35-.04.53-.02.41-.02.82-.04,1.23-.02.46-.04.92-.05,1.39-.02.61-.04,1.22-.04,1.82,0,.42.06.84.07,1.25,0,.46-.02.93,0,1.4,0,.55.04,1.1.06,1.66.03.65.06,1.31.1,1.96,0,.07.04.14.06.21,0,.02.03.03.03.04-.05.36.17.72.04,1.09-.03.09-.06.2-.04.29.12.6.03,1.2.05,1.8.01.25.09.49.1.73.02.27,0,.53-.01.8,0,.31,0,.62,0,.93,0,.04.02.1,0,.12-.16.19,0,.21.13.23-.01.43.04.49.4.62.76.28,1.52.57,2.28.85.45.16.91.35,1.38.44.6.11,1.22.14,1.83.21.35.04.7.08,1.05.11.14.01.22-.05.2-.22-.05-.45-.09-.9-.13-1.34,0-.11.03-.23.06-.39-.04-.04-.12-.13-.23-.24h.28c-.05-.25.15-.52-.17-.72-.04-.02.07-.27.13-.46,0,0-.07-.05-.07-.11-.02-.39-.04-.79-.1-1.16-.08-.49.18-1.01-.08-1.41-.19-.29-.03-.52-.08-.77-.06-.25,0-.55-.1-.77-.12-.25.09-.62-.32-.78.03-.11.09-.22.1-.34.02-.14.01-.29.01-.43,0-.31,0-.61.01-.92,0-.3-.01-.61.05-.91.1-.51-.17-1.01.02-1.52.05-.12-.02-.27-.02-.41,0-.21,0-.42.04-.62.06-.27.15-.52-.06-.76-.03-.03-.02-.11,0-.16.21-.43.02-.85,0-1.28-.02-.43-.03-.86-.06-1.28,0-.12-.06-.23-.1-.37.02-.08.07-.2.09-.33.05-.38.11-.75.11-1.13,0-.55-.09-1.11-.02-1.64.05-.4.02-.79.03-1.19.04-1.32.1-2.65.14-3.97.02-.64.05-1.29.03-1.93-.07-1.8-.2-3.61-.23-5.41-.03-1.34.03-2.69.09-4.03.05-1.03.15-2.06.23-3.1,0-.06.02-.12.05-.24.41.62.61,1.22.54,1.9-.05.48-.17.96-.19,1.44-.07,1.34-.11,2.69-.15,4.03-.02.86-.03,1.73-.02,2.59,0,.46.09.91.11,1.37.01.19-.02.38-.04.59.18.08.26.56.08.78-.15.19-.15.32.09.44.05.02.06.12.08.19-.03.02-.05.03-.08.05-.03-.08-.06-.17-.1-.25-.02.02-.04.05-.06.07.01.14.02.28.04.44.05.06.13.15.21.23-.01.01-.02.02-.04.03-.04-.03-.08-.05-.12-.08-.03.01-.05.03-.08.04.06.15.12.3.2.5-.03.02-.12.07-.22.14.4.43.16.97.23,1.45.05.39-.04.79-.04,1.18,0,.35.04.7.03,1.05,0,.12-.07.23-.11.37.18.06.25.18.14.39-.02.04,0,.11,0,.17,0,.23,0,.45.01.68,0,.12-.03.25,0,.36.08.22,0,.42,0,.63-.02.23.04.46.06.7.04.5.07,1,.1,1.5.03.36.06.73.08,1.09.03.5.04,1,.07,1.5,0,.17.05.33.06.49.02.52,0,1.04.03,1.57.02.47.08.93.1,1.4,0,.16.13.4-.12.44.03.27.07.54.1.81.1.84.02,1.67.06,2.51,0,.13.13.28.09.37-.08.16.04.29.02.42-.06.31.12.63.07.9-.13.68.01,1.35-.08,2.03-.04.29,0,.61.07.9.06.28-.13.58.08.84-.15.17.15.39-.07.56-.02.02-.01.14.02.15.29.14.19.33.08.53-.06,0-.12-.02-.18-.03-.01.02-.02.04-.04.07.11.07.21.14.38.24-.05.04-.1.12-.18.15-.12.05-.19.09-.08.21.09.11-.06.39.18.34,0,.23,0,.44,0,.65,0,.12,0,.28-.16.19-.31-.18-.6-.42-.9-.63,0-.03.02-.06.02-.09-.15.07-.29.14-.44.21-.03.01-.08.04-.1.03-.37-.22-.67.06-1.01.13-.31.07-.63.1-.95.11-.33,0-.67-.02-1-.07-.32-.05-.64-.14-.95-.23-.64-.18-1.28-.37-1.92-.58-.34-.11-.68-.24-1.02-.37-.05-.02-.12-.07-.12-.1.02-.32-.35-.45-.36-.77-.02-.32-.11-.63-.13-.95-.04-.56-.07-1.11-.08-1.67-.02-.78,0-1.56-.03-2.34-.03-.71-.1-1.41-.16-2.12,0-.06.02-.13.01-.2-.02-.16-.04-.33-.11-.48.02-.1.07-.2.06-.29-.05-.55-.12-1.1-.16-1.65-.04-.58-.05-1.17-.07-1.76-.03-.84-.07-1.67-.06-2.51,0-.69.08-1.39.1-2.08.02-.67,0-1.35,0-2.02,0-.69.02-1.38.04-2.08,0-.19.1-.38.11-.57.04-.79.06-1.58.11-2.37.03-.45.11-.9.16-1.36.02-.25-.06-.54.05-.73.23-.45.19-.92.21-1.38.04-.67.23-1.3.32-1.95.09-.66.23-1.31.32-1.96.07-.44.07-.9.15-1.33.17-.88.33-1.76.56-2.62.18-.67.23-1.36.36-2.04.22-1.17.38-2.35.53-3.53.08-.66.06-1.34.09-2.01,0-.09.04-.18.06-.27.04-.02.07-.03.11-.05Z"/>
      <path class="cls-1" d="M27.31,81.48c-.05-.27-.09-.48-.12-.7-.03-.21-.04-.42-.1-.64-.09-.32-.02-.69-.02-1.04,0-.18,0-.37-.01-.55-.02-.34-.04-.68-.07-1.02-.01-.16-.06-.31-.07-.47,0-.24.02-.49.03-.73,0-.32,0-.63-.01-.95-.03-.41-.15-.83-.1-1.24.06-.57-.06-1.1-.11-1.65-.02-.21.07-.43.02-.62-.06-.22.07-.4.02-.6-.03-.11-.07-.21-.08-.26,0-.19-.02-.32-.02-.45-.02-.27-.02-.54-.05-.81-.02-.16-.08-.3-.1-.46-.02-.23-.01-.46-.03-.69-.06-.7-.13-1.4-.21-2.1-.05-.45-.15-.89-.21-1.34-.09-.66-.16-1.32-.25-1.99,0-.07-.08-.12-.07-.19-.02-.17-.02-.35-.05-.52-.15-.81-.32-1.61-.45-2.43-.1-.62-.12-1.25-.21-1.87-.07-.47-.18-.94-.27-1.41-.15-.78-.31-1.56-.46-2.34-.09-.44-.17-.89-.23-1.33-.06-.47-.09-.95-.15-1.43-.03-.27-.09-.54-.13-.82,0-.06.04-.12.07-.2-.05-.1-.11-.23-.18-.36.42.24.94,1.38.8,1.6.25.09.18.32.22.5.04.19.08.38.1.57.02.18.27.32.08.55-.04.04.06.2.1.31.03.08.08.16.13.28-.1,0-.17,0-.15,0,.07.22.15.43.2.65.04.17.04.34.06.52.09.57.18,1.13.27,1.7.01.08.05.16.07.24.07.41.13.82.2,1.23.08.43.17.85.24,1.27.11.59.2,1.19.31,1.78.06.32.16.63.2.95.07.53.12,1.07.17,1.6.06.57.1,1.15.17,1.72.06.47.17.94.21,1.42.05.57.03,1.15.06,1.72.01.3.08.59.08.89,0,.25-.02.5.02.75.06.42.07.85.09,1.28,0,.24-.02.49,0,.73.02.39.07.77.1,1.16.03.48.04.95.07,1.43.03.45.07.9.1,1.36.01.18,0,.37,0,.55.03.92.05,1.84.09,2.76.02.5.07.99.13,1.49.06.41.19.8.25,1.21.04.26,0,.53.02.79.04.35.13.7.16,1.05.07.91.13,1.81.17,2.72.01.29-.05.59-.05.88,0,.26.06.52.06.78,0,.26-.04.52-.04.79,0,.1.08.2.09.3.04.44.06.89.09,1.33.03.39.07.78.1,1.17.06.68.14,1.36.17,2.05.02.48-.02.96-.03,1.43,0,.75-.07,1.52.02,2.26.11.91,0,1.8,0,2.7,0,.32-.07.65-.07.97,0,.28.06.56.06.84,0,.22-.02.44-.04.66-.02.32-.05.65-.06.97-.01.34-.02.68-.02,1.02,0,.36.02.72.03,1.07,0,.18.06.38,0,.52-.06.13-.25.2-.4.27-.11.05-.23.06-.37.09,0,.24-.19.31-.39.41-.38.18-.74.39-1.11.6-.26.15-.57.17-.8.4-.1.1-.32.06-.48.1-.4.09-.79.2-1.19.28-.41.08-.83.17-1.24.16-.72-.02-1.43-.09-2.15-.16-.89-.09-1.78-.19-2.67-.29-.14-.02-.28-.08-.42-.13.07-.4.17-.46.54-.47.18,0,.37-.1.55-.12.23-.02.46-.02.69,0,.93.05,1.86.11,2.78.16.22.01.43.05.65.03.59-.04,1.18-.11,1.77-.17.27-.03.55-.03.82-.07.08-.01.16-.1.24-.16.26.14.57,0,.74-.37.07-.15.15-.29.23-.46.11.23.25.38.51.35-.15-.47-.04-.51.4-.76.29-.17.48-.45.57-.74.05-.17.01-.4.02-.6.01-.38.14-.73.18-1.1.03-.26-.04-.53-.05-.79-.02-.51-.02-1.02-.04-1.52,0-.1-.05-.2-.07-.27.03-.16.08-.29.08-.43,0-.22-.07-.43.05-.66.09-.17.09-.45.01-.63-.15-.33.04-.62.02-.93-.02-.31-.08-.63-.02-.92.07-.34-.05-.62-.09-.93-.04-.35.08-.72.1-1.08.02-.36,0-.73-.03-1.09-.02-.3,0-.62-.1-.88-.13-.31.22-.47.12-.75-.09-.26-.15-.55-.12-.83.02-.21-.04-.41-.04-.61,0-.52-.05-1.04-.05-1.56,0-.54.02-1.08.02-1.61,0-.28-.03-.55-.05-.83-.01-.26-.02-.53-.03-.79,0-.11.02-.22,0-.32-.08-.37.15-.77-.11-1.13.2-.32-.04-.62-.05-.94,0-.31.08-.68-.2-.97-.08-.09-.05-.29-.07-.43-.07-.53-.15-1.06-.22-1.59,0-.05.07-.11.07-.11Z"/>
      <path class="cls-1" d="M23.05,69.74c.26.18.12.41.13.62.02.38.11.75.15,1.13.11.93.24,1.85.25,2.79,0,.31.08.62.11.93.03.27.03.55.05.82.05.59.11,1.18.15,1.77.02.27.03.54.04.82.01.54.02,1.08.03,1.62,0,.39.02.77.04,1.16.03.6.08,1.2.11,1.81.01.22-.02.45-.02.67.01.7.04,1.4.05,2.1.01.58-.01,1.15.02,1.73.04.77.12,1.54.18,2.3.06.76.14,1.53.19,2.29.03.48,0,.97.02,1.45,0,.27.06.54.07.81,0,.22-.02.44-.02.66,0,.25.07.52,0,.76-.08.29.21.57,0,.85-.02.02.02.09.02.13.02.39.04.77.06,1.16.01.3.03.6.02.89-.02.53-.05,1.06-.1,1.59-.06.54-.15,1.07-.24,1.61-.03.16-.1.31-.16.47-.04,0-.07-.01-.11-.02.04-.61.08-1.23.11-1.84.02-.48.03-.97.05-1.45,0-.24.03-.47.03-.71,0-.55,0-1.1-.02-1.65,0-.29-.07-.57-.08-.86-.02-.48,0-.97-.02-1.45,0-.22-.05-.44-.08-.65,0-.06-.05-.14-.03-.19.2-.56.03-1.12.03-1.67,0-.44-.05-.9-.15-1.33-.08-.32-.03-.62-.03-.93,0-.37-.13-.75-.16-1.13-.04-.4-.02-.79-.03-1.19,0-.11-.02-.21-.03-.32-.03-.43-.08-.85-.1-1.28-.02-.53,0-1.06,0-1.59,0-.15-.01-.29-.01-.44,0-.34,0-.68-.01-1.02-.02-.75-.06-1.51-.07-2.26-.01-.78,0-1.55-.01-2.33,0-.19-.09-.38-.1-.57-.02-.21,0-.43,0-.64,0-.84,0-1.69-.13-2.53-.07-.45-.05-.91-.1-1.36-.08-.78-.09-1.59-.29-2.34-.24-.89-.25-1.79-.29-2.69-.04-.83-.01-1.66-.03-2.49-.02-.76-.04-1.51-.1-2.27-.03-.42-.13-.83-.2-1.25-.11-.66-.21-1.31-.34-1.97-.11-.58-.25-1.16-.38-1.74-.03-.15-.07-.3-.06-.45.01-.19.01-.36-.14-.52-.03-.03.02-.15.05-.28-.02-.04-.08-.13-.16-.24.09-.02.16-.04.16-.04-.06-.24-.13-.46-.19-.69-.16-.7-.32-1.4-.46-2.1-.04-.22-.04-.44-.06-.66-.03-.33-.2-.66.01-1,.04-.06-.07-.21-.12-.32-.09-.17-.18-.33-.3-.54.14-.02.24-.03.44-.05-.38-.15-.6-.34-.33-.7.08.18.12.4.24.52.27.25.29.58.39.88.08.24.17.49.2.75.12.92.3,1.83.53,2.72.13.51.21,1.03.29,1.55.13.85.23,1.71.36,2.56.06.41.18.82.26,1.23.04.22.02.46.05.68.04.24.12.48.16.73.03.14,0,.29.02.43.05.63.12,1.25.16,1.88.02.33-.02.67-.02,1.01,0,.49.02.99.04,1.48.01.32.05.65.06.97,0,.27,0,.53,0,.8,0,.03.01.07.03.1.15.2.14.39-.11.54Z"/>
      <path class="cls-1" d="M7.58,48.08c.04.29.09.57.14.89-.02,0-.07.03-.13.05.02,0,.05.01.07.02-.09.36-.16.72-.29,1.07-.27.79-.59,1.57-.85,2.36-.22.65-.38,1.32-.56,1.99-.09.33-.21.66-.28,1-.07.35-.09.7-.14,1.05-.04.3-.06.6-.12.89-.06.3-.17.58-.22.88-.05.27-.03.56-.07.84-.06.34-.16.67-.23,1-.14.65-.27,1.31-.41,1.97-.08.37-.2.74-.29,1.11-.08.32-.2.65-.19.97.02.57-.12,1.12-.19,1.67,0,.04,0,.09,0,.14-.01.19-.03.38-.08.57v1.15c-.48.08-.49-.03-.67-.39-.13-.25-.12-.45-.12-.69,0-.05-.08-.1-.12-.15.24-.14.33-.28.18-.57-.07-.14.07-.39.13-.65,0,0-.05-.06-.05-.06.06-.21.12-.37.15-.54.04-.18.05-.37.07-.56.04-.3.08-.59.11-.89.02-.18.03-.36.05-.54.12-.82.22-1.65.36-2.47.12-.69.28-1.37.44-2.05.1-.47.23-.93.33-1.39.19-.87.35-1.74.55-2.6.05-.2.19-.38.26-.58.05-.14.05-.3.09-.44.14-.49.28-.98.44-1.46.16-.47.37-.93.54-1.4.19-.52.34-1.05.55-1.55.1-.24.27-.45.41-.67.05,0,.09.02.14.03Z"/>
      <path class="cls-1" d="M18.01,54.01c0,.37-.02.73,0,1.1.02.32.1.64.13.96.03.3.02.6.04.9.03.47.08.95.08,1.42,0,.44-.05.89-.07,1.33-.04.93-.08,1.87-.11,2.8,0,.27,0,.53-.02.8,0,.09-.03.19-.07.27-.18.38-.25.77-.12,1.18.01.03.02.08,0,.11-.27.64-.15,1.34-.31,2-.15.6-.26,1.23-.23,1.83.04.63-.24,1.2-.19,1.82,0,.1-.1.29-.17.29-.17,0-.31-.08-.34-.3-.12-.8-.08-1.6.04-2.4.05-.33.02-.67.06-1,.04-.36.14-.72.17-1.08.11-1.17.2-2.34.29-3.51.03-.32.03-.64.04-.96,0-.09-.03-.18-.04-.27,0-.05-.04-.1-.03-.13.18-.5.06-1.03.09-1.54.04-.56-.02-1.13-.04-1.7,0-.34-.02-.68,0-1.02,0-.1.07-.2.07-.29.02-.44.05-.88.04-1.32,0-.3-.07-.59-.08-.89,0-.23.03-.46.05-.69.02-.18.06-.36.05-.54-.02-.19-.1-.38-.13-.57-.01-.07.03-.15.05-.22.08.02.19.03.22.08.1.14.17.3.24.46.14.35.27.7.4,1.06-.04,0-.08.02-.12.03Z"/>
      <path class="cls-1" d="M10.83,54.39c.05.29.09.51.15.73.01.05.17.07.18.12.04.24.06.49.09.74-.02,0-.05.01-.07.02.09.07.18.14.28.21-.35.42-.42.89-.37,1.39,0,.03.02.07,0,.08-.23.24-.03.38.15.55h-.25c-.04.57-.18,1.11-.47,1.57-.01.2-.01.4-.04.6-.03.2-.08.39-.12.58-.08.31-.18.61-.25.92-.1.43-.16.87-.26,1.31-.07.31-.19.62-.24.93-.06.32-.06.65-.09.98-.13-.04-.25-.07-.37-.11.02-.01.03-.02.05-.03-.11-.17-.23-.34-.34-.51-.03-.04-.07-.07-.08-.12-.03-.11-.07-.23-.07-.35,0-.09.05-.19.08-.28.03,0,.06,0,.09,0-.05-.06-.1-.11-.19-.22.12.02.18.03.28.05,0-.27,0-.53,0-.8,0-.03,0-.07.02-.08.26-.18.17-.49.23-.72.11-.45.12-.92.18-1.39,0-.06.01-.13.04-.19.33-.6.33-1.28.46-1.93.11-.56.19-1.13.29-1.7,0-.04,0-.08.02-.11.24-.49.16-1.06.37-1.56.07-.16.05-.36.09-.54,0-.04.07-.08.16-.16Z"/>
    </g>
  </g>
</svg>