<?xml version="1.0" encoding="UTF-8"?>
<svg id="Layer_2" data-name="Layer 2" xmlns="http://www.w3.org/2000/svg" viewBox="0 0 55.73 53.44">
  <defs>
    <style>
      .cls-1 {
        fill: #000;
        stroke-width: 0px;
      }
    </style>
  </defs>
  <g id="illustrations">
    <g>
      <path class="cls-1" d="M55.5,18.31c0-.05.04-.1.04-.15.03-.5.02-1,.08-1.49.08-.63.09-1.25.1-1.89,0-.67-.23-1.21-.66-1.7-.14-.16-.28-.26-.49-.28-.16-.02-.33-.04-.23-.29.02-.05-.02-.12-.03-.18-.1-.32-.39-.45-.63-.63-.36-.27-.71-.56-1.05-.84-.49-.41-.97-.82-1.46-1.24-.16-.14-.33-.27-.49-.42-.18-.18-.35-.38-.53-.56-.11.13-.19.21-.28.23-.05.01-.12-.08-.18-.12.06-.07.12-.13.19-.21-.33.03-.56.41-.9.3.04-.25.05-.5.12-.73.05-.16.02-.28-.05-.41-.05-.1-.1-.2-.16-.3-.17-.26-.35-.51-.52-.76-.06-.09-.2-.16-.2-.25-.01-.33-.13-.6-.33-.86-.31-.4-.66-.7-1.18-.74-.35-.03-.7,0-1.05,0,.02-.11.03-.25.06-.4,0,0,.09,0,.1-.04.1-.25.26-.5.27-.75,0-.37-.09-.74-.15-1.11-.04-.29-.44-.64-.73-.68-.25-.03-.5-.09-.75-.15-.28-.06-.55-.25-.86-.12-.31.14-.62.28-.9.45-.21.13-.38.33-.57.5,0-.08-.01-.16-.01-.24,0-.21.04-.42.01-.63-.06-.41-.19-.81-.55-1.05-.44-.29-.87-.63-1.45-.59-.71.04-1.35.27-1.91.73-.24.2-.5.38-.75.57-.69.5-1.22,1.11-1.43,1.98-.15-.27-.32-.54-.41-.84-.2-.64-.61-1.13-1.01-1.64-.04-.04-.09-.08-.15-.1-.2-.07-.36-.17-.43-.39-.02-.07-.14-.12-.23-.17-.01,0-.07.1-.12.15-.04.05-.07.12-.12.13-.16.05-.32.11-.49.13-.65.07-1.12.51-1.19,1.15-.02.14-.04.23-.17.17.04.17.03.37.11.5.27.39.27.84.3,1.28,0,.06.03.12.05.18.06.17.14.33.17.51.06.36.13.68.39.97.29.33.13.72-.29.85-.03,0-.05.03-.08.04-.47.19-.94.37-1.4.56-.29.11-.6.2-.87.34-1.11.56-2.14,1.24-3.13,1.99-.41.31-.84.59-1.29.85-.7.41-1.43.77-2.13,1.17-.85.48-1.7.97-2.53,1.49-.75.46-1.48.98-2.24,1.44-.92.56-1.85,1.1-2.78,1.64-.62.36-1.25.71-1.87,1.06-.47.26-.94.51-1.41.77-.11.06-.25.11-.3.21-.11.22-.24.18-.37.07-.29.13-.56.24-.82.37-.03.02-.07.03-.1.05-.56.5-1.19.93-1.83,1.32-.36.22-.72.43-1.08.63-.23.17-.47.34-.7.51-.83.58-1.68,1.14-2.49,1.75-.58.45-1.09.98-1.64,1.47-.51.45-1,.91-1.36,1.5-.32.52-.64,1.04-.75,1.64-.01.07.01.2.06.23.1.07.2.05.3-.07.15-.18.34-.33.51-.49-.13.59-.05,1.16,0,1.72.04.4.1.79.18,1.19.05.24.15.47.24.7.07.16,0,.25-.13.31-.02.01-.05.02-.07.03.03.04.05.08.08.12.05.09.09.18.12.27.02.05.04.11.05.17.01.07.02.13.02.2.08-.03.17-.06.26-.09.08-.03.17-.13.18-.21,0-.29,0-.58-.05-.86-.04-.23-.18-.43-.24-.66-.18-.66-.38-1.31-.49-1.98-.07-.43-.04-.91.21-1.28.18-.28.46-.5.73-.71.18-.14.39-.29.67-.19.08.03.22-.05.29-.12.16-.14.47-.23.56-.17.13-.06.23-.12.33-.15.23-.06.45-.12.68-.16.12-.02.24-.02.37-.03.04,0,.08.02.11,0,.24-.08.47-.18.7-.25.26-.08.56-.09.79-.22.19-.11.32-.09.43-.03.17-.07.3-.11.42-.17.37-.16.78-.08,1.15-.27.29-.14.63-.13.94-.26.35-.14.76-.14,1.15-.21.23-.04.46-.08.68-.14.37-.1.73-.23,1.1-.31.4-.08.78-.25,1.21-.24.36.01.72-.08,1.08-.13.06,0,.11-.08.17-.12,0-.02-.02-.04-.03-.07.28-.03.57-.04.84-.1.52-.12,1.04-.24,1.54-.42.34-.12.71,0,1.04-.17.15-.07.35-.04.53-.07.32-.06.64-.14.96-.21.32-.07.64-.15.97-.21.28-.05.6.06.82-.22.02-.02.07-.03.11-.03.26,0,.51,0,.77,0,.08,0,.16-.02.24-.04.32-.09.64-.22.96-.25.28-.03.54-.03.81-.16.27-.13.61-.11.92-.16.29-.04.59-.09.88-.13.03,0,.06-.05.09-.06.14-.05.28-.13.43-.15.13-.02.27.05.4.03.22-.02.43-.13.66-.03.18.07.27-.05.29-.25.14.04.25.06.37.09.1-.09.21-.18.32-.18.24,0,.55-.12.67-.31.04-.06.13-.12.2-.13.32-.06.65-.1.98-.14.11-.01.23,0,.36,0,0-.13.14-.19.32-.1.04.02.11.04.15.02.58-.28,1.21-.34,1.83-.47.18-.04.36-.09.54-.12.27-.05.54-.11.81-.13.14-.01.27.05.41.06.06,0,.13-.03.19-.05.13-.06.26-.16.4-.2.19-.05.4-.07.6-.1.4-.07.79-.18,1.2-.2.24-.01.55-.07.71-.23.17-.17.29-.18.47-.11.05.02.12,0,.18-.02.56-.11,1.11-.23,1.67-.35.1-.02.19-.08.28-.07.31.01.6-.01.8-.29.04-.05.12-.08.18-.09.6-.14,1.2-.29,1.79-.42.26-.06.53-.1.79-.16.11-.03.21-.12.32-.16.46-.16.93-.31,1.39-.47.26-.09.52-.19.78-.29.09-.04.18-.11.27-.14.17-.05.35-.04.51-.11.32-.14.63-.31.94-.46.32-.16.62-.33.95-.45.33-.12.69-.18.99.09.23.2.44.41.66.61.09.08.18.17.27.25-.02.02-.03.04-.05.05-.06-.05-.12-.11-.19-.15-.25-.16-.5-.34-.77-.48-.24-.13-.51-.07-.67.11-.28.33-.62.64-.68,1.11,0,.06,0,.13-.03.18-.17.32-.35.65-.53.97-.34.61-.7,1.22-.74,1.95-.02.33-.07.65-.13.97-.01.08-.09.19-.16.22-.14.07-.29.1-.45.13-.6.12-1.2.23-1.79.35-.59.11-1.17.23-1.76.34-.19.03-.39,0-.58.05-.39.09-.77.21-1.15.32-.05.02-.11.03-.15.07-.22.18-.48.19-.75.18-.13,0-.28,0-.4.05-.29.1-.56.24-.85.33-.98.32-1.95.64-2.94.94-.57.18-1.15.34-1.73.49-.42.11-.84.18-1.26.27-1.24.29-2.44.73-3.74.67-.66-.03-1.33.01-1.99.04-.58.02-1.18.01-1.75.11-.82.15-1.62.38-2.43.58-.19.04-.38.1-.58.09-.42,0-.84-.04-1.26-.08-.84-.09-1.67-.18-2.51-.29-.51-.07-1-.28-1.54-.2-.04,0-.08,0-.11-.02-.37-.18-.74-.07-1.12-.05-.29.02-.59.07-.88.09-.25.01-.49,0-.74,0-.08,0-.16,0-.23,0-.28.01-.57-.06-.81.17-.04.04-.12.03-.18.04-.48.07-.95.13-1.42.23-.39.08-.78.2-1.17.3-.12.03-.25.03-.37.06-.45.14-.91.26-1.34.43-.69.27-1.37.56-2.04.86-.5.23-.95.55-1.5.65-.48.09-.95.23-1.42.35-.33.09-.66.19-.99.28-.16.05-.33.07-.46.16-.26.17-.51.37-.74.58-.24.22-.33.67-.2.93.02.03.13.06.17.04.23-.15.47-.31.68-.48.4-.33.8-.66,1.34-.75.1-.02.18-.11.27-.17.08-.05.14-.13.22-.17.28-.16.56-.32.84-.47.2-.11.4-.19.64-.12-.05.11-.11.18-.11.26,0,.12,0,.26.06.36.1.16.48.11.64-.03.16-.14.33-.3.52-.39.25-.12.49-.23.71-.39.69-.49,1.53-.61,2.32-.83.46-.13.94-.23,1.41-.33.35-.07.7-.12,1.05-.19.08-.02.15-.05.23-.09.09-.05.18-.13.27-.14.51-.06,1.01-.1,1.52-.15.43-.04.87-.07,1.3-.1.31-.02.62-.03.93-.03.24,0,.47,0,.71.03.33.02.65.06.98.09.11.01.3.06.33.01.16-.23.38-.17.56-.12.45.12.91.08,1.35-.01.42-.09.74.1,1.1.2-.36.12-.64.43-1.06.35-.04,0-.09.02-.13.04-.1.06-.19.15-.29.18-.42.13-.86.24-1.28.37-.87.26-1.72.53-2.63.66-.5.07-.99.24-1.49.35-.51.12-1.03.23-1.54.32-.3.06-.61.05-.9.12-.4.09-.8.22-1.2.34-.58.17-1.16.33-1.74.51-.48.15-.95.31-1.42.46-.22.07-.45.13-.67.22-.32.13-.63.3-.96.41-.88.28-1.76.54-2.65.78-.41.11-.84.16-1.26.24-.05,0-.1.04-.13.08-.21.21-.42.42-.61.64-.11.12-.19.14-.34.07-.28-.14-.42-.05-.4.26.01.26.09.53.07.79-.04.52.14.98.28,1.46.03.09.11.16.21.3.03-.17.07-.28.07-.38-.01-.25-.02-.5-.08-.74-.07-.26.04-.4.23-.55.12-.1.24-.23.3-.37.11-.27.31-.37.57-.41.24-.04.47-.11.7-.22.48-.24.98-.43,1.48-.61.34-.12.69-.2,1.04-.29.23-.06.47-.09.7-.15.09-.02.19-.06.27-.11.19-.12.36-.29.57-.36.63-.21,1.28-.39,1.92-.58.35-.11.69-.22,1.03-.35.12-.05.22-.17.34-.21.3-.07.61-.11.91-.17.28-.05.58-.06.83-.19.66-.32,1.37-.41,2.07-.57.17-.04.36,0,.52-.05.36-.14.72-.26,1.11-.32.52-.08,1.03-.2,1.55-.31.21-.04.42-.11.62.02.01,0,.04-.01.07-.03-.01-.05-.02-.09-.05-.19.14.06.24.1.4.17-.06-.11-.09-.15-.12-.2.15-.06.28-.13.41-.17.29-.08.59-.14.88-.23.7-.21,1.39-.43,2.09-.65.55-.17,1.1-.36,1.66-.53.27-.08.54-.19.81-.2.5,0,.96-.12,1.41-.3.05-.02.11-.02.16-.02.15-.02.31-.02.46-.05.27-.04.54-.12.81-.13.43-.01.87-.1,1.3.08.03.01.08,0,.12,0,.77-.07,1.55-.09,2.3-.31.62-.18,1.25-.27,1.88-.42.18-.04.34-.16.51-.21.47-.13.95-.24,1.43-.35.66-.16,1.31-.32,1.97-.49.49-.13.98-.28,1.47-.4.47-.11.93-.23,1.33-.54.05-.04.13-.04.2-.05.12-.01.25,0,.37-.03.49-.11.97-.23,1.46-.33.28-.06.61-.03.84-.17.28-.17.59-.23.88-.35.55-.22,1.13-.31,1.7-.41.62-.11,1.25-.21,1.82-.5.34-.17.73-.3.76-.79-.18,0-.25-.06-.14-.25.03-.05,0-.13,0-.21.06-.02.13-.05.23-.08-.39-.19-.04-.37,0-.53.05-.19.21-.34.31-.49.01-.08,0-.16.04-.21.26-.36.54-.71.79-1.08.32-.48.61-.98.91-1.47.13-.21.48-.24.6-.02.09.15.17.32.2.49.06.35.12.7.1,1.05-.01.35-.03.76-.2,1.04-.28.46-.35.93-.32,1.46.19.04.37.08.55.11.22.03.32-.08.29-.3-.01-.1-.07-.19.07-.28.08-.05.1-.2.15-.31.03-.08.06-.17.09-.26.03-.09.04-.2.08-.28.08-.17.24-.34.25-.51.04-.68-.05-1.35-.46-1.93-.06-.09-.08-.2-.1-.31-.03-.19-.04-.38-.05-.58,0,0,.02-.02.03-.03.06.03.11.05.24.11-.16-.35-.05-.55.24-.69.23-.11.42-.39.71-.14v-.32s.05-.03.07-.05c.19.13.37.26.57.38.17.11.23.26.21.46-.02.33-.03.67-.05,1,0,.08.02.15.01.23-.03.26-.08.52-.1.78-.05.59-.04,1.2-.16,1.78-.11.57-.27,1.13-.26,1.73.01.59-.04,1.17-.07,1.76-.01.17-.22.36-.31.29-.22-.16-.43-.06-.65-.02-.72.16-1.44.33-2.17.47-.94.19-1.91.27-2.81.66-.47.2-1.01.24-1.52.33-.82.15-1.65.26-2.46.44-1.27.29-2.51.7-3.7,1.23-.77.34-1.58.57-2.38.83-1.6.52-3.25.89-4.91,1.18-1,.17-2,.34-2.99.59-1.14.29-2.26.65-3.39.99-1.21.36-2.43.71-3.63,1.1-1.38.45-2.74.95-4.12,1.4-1.06.35-2.13.67-3.2.98-.78.22-1.58.39-2.36.6-1.42.39-2.84.79-4.26,1.2-1.18.34-2.35.7-3.52,1.06-.62.19-1.24.37-1.76.79-.15.12-.26.05-.33-.17-.09-.3-.19-.6-.29-.89-.05.48.1.89.29,1.27-.12.17-.25.33-.36.5-.35.6-.69,1.2-1.05,1.8-.36.6-.36,1.2.03,1.81-.17.23-.34.48-.52.7-.36.44-.66.89-.78,1.47-.18.82-.22,1.65-.21,2.49.01.84.15,1.66.41,2.46.04.13.05.26.08.39.05.25.01.46-.25.59-.08.04-.14.12-.19.17.02.08.07.15.06.2-.06.18-.14.36-.2.54-.38,1.01-.78,2.01-.66,3.13.06.55.31.79.82.89.3.06.6.09.9.15.17.03.33.12.49.12.36,0,.73-.02,1.1-.04.25-.01.5-.02.75-.03.25-.01.52.01.76-.06.22-.07.4-.15.63-.03.08.04.22,0,.32-.03.2-.05.4-.13.61-.18.46-.1.93-.19,1.39-.29.05.29.09.31.34.25-.06-.09-.12-.17-.19-.27.6-.15,1.2-.28,1.78-.45.83-.24,1.65-.51,2.48-.75.9-.26,1.81-.5,2.7-.78.55-.17,1.08-.44,1.64-.6.75-.22,1.51-.38,2.27-.56.25-.06.5-.1.75-.16.39-.1.78-.2,1.17-.3.29-.07.58-.13.86-.22.71-.22,1.42-.45,2.13-.67.14-.04.29-.09.44-.07.54.06,1.05-.09,1.56-.22.63-.16,1.27-.29,1.91-.43.44-.1.89-.18,1.32-.3.46-.14.9-.34,1.36-.48.25-.08.52-.11.77-.16.27-.06.55-.09.81-.19.43-.15.84-.37,1.27-.52.4-.14.82-.24,1.23-.36.18-.05.35-.12.52-.18.01.03.02.06.03.09-.28.11-.56.22-.9.35.35.05.63.06.87-.13.09-.07.27-.16.12-.32.3-.07.58-.14.9-.21-.06.07-.11.11-.16.17.1,0,.17.03.24.02.27-.06.55-.11.81-.19.13-.04.23-.14.36-.18.75-.22,1.5-.44,2.25-.64.36-.1.72-.23,1.12-.14.18.04.4-.07.6-.11.08-.02.15-.03.23-.05.45-.11.9-.23,1.35-.34.19-.05.37-.08.56-.13.06-.02.13-.06.18-.11.07-.08.11-.21.2-.25.26-.1.53-.16.81-.23.14-.03.19.04.19.19-.19.02-.36.05-.54.05-.17,0-.17-.01-.19.18.58.07.67.05.92-.2-.13-.15-.06-.23.11-.26.28-.04.57-.09.85-.11.12,0,.24.08.35.12-.05.14-.09.23-.12.33l.05.05c.13-.1.4.04.38-.31.21,0,.43.06.6-.02.18-.08.31-.29.47-.43.1-.08.22-.14.33-.2.03-.02.09,0,.11,0,.03.1.05.18.07.26.07-.05.15-.1.21-.15.21.08.43.17.65.25.13.05.25.03.27-.15.04-.25.2-.32.43-.31.02,0,.05-.01.07-.01.33,0,.66-.23.98.04.02.01.14-.08.19-.15.03-.05,0-.13,0-.2.51-.05.75.05.87.34.13-.02.26-.04.26-.23,0-.05.08-.11.14-.13.12-.04.24-.06.33-.08.07.06.12.15.17.15.1,0,.21-.06.31-.1.21-.08.33-.34.1-.58.49-.35.66-.85.6-1.43-.02-.18.02-.28.24-.3.04.42-.14.83.06,1.24.13.26.08.63.49.74.02-.21,0-.42.07-.59.13-.3.17-.6.16-.93,0-.16-.03-.37.2-.43-.04-.14-.07-.27-.11-.4.07-.02.13-.04.2-.06-.06-.27-.12-.51-.16-.76-.02-.12.06-.26.05-.39-.01-.23-.06-.46-.07-.69,0-.11.05-.22.08-.35-.02-.08-.09-.2-.09-.33,0-.31.05-.62,0-.92-.06-.47-.18-.93-.29-1.39-.06-.24-.18-.47-.19-.71,0-.28.08-.56.12-.85,0-.03.04-.05.05-.08.07-.18.17-.36.19-.55.06-.45.1-.91.11-1.37.01-.49-.02-.97-.03-1.46,0-.16-.09-.34-.04-.48.07-.2.01-.37,0-.55-.01-.2-.13-.47-.04-.58.14-.18.09-.32.09-.49,0-.33-.01-.66,0-.99.01-.34.3-.67.07-1.03,0-.02,0-.05,0-.07,0-.14-.01-.27-.01-.41,0-.09,0-.18.03-.27.04-.15.1-.3.15-.45.02,0,.06.02.13.06-.03-.16-.06-.29-.09-.44.01-.05.05-.13.05-.22,0-.23-.04-.45-.02-.68.03-.39.1-.78.15-1.18-.01,0-.02,0-.03,0l-.08.15s-.03-.02-.05-.02c.09-.19.19-.39.25-.52-.03-.16-.09-.29-.05-.36.2-.41.26-.83.25-1.28,0-.05,0-.09.02-.14.08-.28.24-.55,0-.84-.04-.04,0-.15,0-.22ZM2.79,25.3c.32-.27.64-.55.96-.82,0,.29-.61.82-.96.82ZM47.65,6.92c.2.25.27.52.29.82.03.57-.21,1-.65,1.34-.5.38-.98.77-1.48,1.14-.09.06-.21.09-.32.11-.74.11-1.48.27-2.23.31-.7.03-1.4-.06-2.1-.1,0-.03-.02-.07-.03-.1.17-.09.35-.18.52-.26.61-.29,1.21-.59,1.83-.87.43-.19.87-.37,1.32-.53.58-.2,1.12-.47,1.61-.82.33-.23.66-.46.97-.71.1-.08.17-.2.27-.33ZM45.93,5.7c.32,0,.64.07.96.16.19.05.25.21.2.43-.13.52-.45.88-.92,1.1-.58.27-1.19.47-1.78.72-.98.42-1.95.86-2.93,1.29-.41.18-.83.42-1.26.47-.38.04-.71.15-1.06.27-.21.07-.45.03-.68.02-.19-.01-.38-.07-.57-.1,0-.01-.02-.03-.03-.04.21-.05.41-.1.62-.17.08-.02.16-.07.23-.12.34-.24.67-.49,1.02-.71.16-.11.36-.16.54-.25.47-.26.93-.54,1.39-.8.29-.17.57-.39.89-.47.34-.09.52-.36.8-.51.52-.27,1.02-.57,1.54-.86.07-.04.16-.05.2-.11.21-.31.55-.3.84-.3ZM42.07,5.95l.65-.44s.05.07.07.1c-.3.03-.34.44-.72.34ZM44.6,5.31c-.08.06-.17.13-.26.14-.38.02-.76,0-1.21,0,.56-.57,1.21-.78,1.94-.95-.15.24-.18.51-.44.65-.03.01,0,.12-.02.15ZM41.89,4.85c.02-.07.05-.19.02-.22-.17-.16-.04-.26.03-.4.15-.27.24-.58.41-.83.24-.35.52-.66.78-.98.37.19.35.21.12.46-.21.22-.38.47-.54.73-.22.36-.4.75-.7,1.06-.04.04-.05.1-.08.15.02.02.04.04.06.06.14-.08.31-.14.41-.26.35-.42.69-.85,1.02-1.28.11-.15.19-.32.27-.47.21.01.42.04.63.04.21,0,.24-.08.12-.25-.1-.15-.21-.3-.32-.45.27-.06.58.12.67.36.02.06.1.1.14.16.1.15.21.3.28.46.02.04-.04.16-.1.19-1.03.61-2.07,1.21-3.11,1.81-.07.04-.16.06-.29.04.05-.13.11-.25.16-.38ZM41.86,6.25c.11.04.23.03.41.05-.52.32-.99.61-1.46.9-.01,0-.02-.01-.03-.02.2-.25.39-.49.58-.75.13-.17.27-.26.49-.19ZM38.75,2.02c.04.22-.07.48-.25.56-.13-.22-.02-.46.25-.56ZM38.49,2.89c-.29,1.23-.35,2.54-1.1,3.64.16-1.27.34-2.54,1.1-3.64ZM37.3,7.95c.05-.07.13-.14.16-.22.15-.42.26-.87.45-1.27.12-.26.19-.54.39-.79.22-.27.26-.7.38-1.05.04-.11.09-.22.1-.34.1-.67.18-1.35.28-2.02.03-.17-.01-.39.26-.46-.12-.27.14-.31.25-.39.15-.11.36-.19.54-.17.25.03.5.08.76.06.22-.02.29.14.28.32-.01.39-.04.78-.07,1.16-.02.22-.04.45-.09.67-.08.36-.17.72-.26,1.08-.03.11-.08.22-.09.34-.02.51-.32.88-.63,1.23-.14.16-.38.22-.55.36-.25.2-.47.43-.71.63-.41.34-.82.66-1.24.98-.07.05-.2.02-.35.03.07-.07.1-.11.13-.14ZM33.23,1.63c.12-.04.32.04.43.13.32.26.61.55.9.83.08.08.15.19.17.3.06.33.14.67.14,1.01-.02.94.03,1.88.14,2.82.01.11,0,.23,0,.34-.18-.05-.34-.1-.52-.15.12-.23-.05-.35-.17-.51-.15-.2-.27-.43-.4-.64-.04-.07-.08-.14-.12-.22-.08-.2-.18-.4-.24-.61-.11-.37-.21-.73-.28-1.11-.1-.61-.18-1.21-.24-1.83-.01-.13.08-.35.18-.38ZM53.4,12.78c-.14.04-.28.09-.42.14-.04.02-.07.06-.09.08-.33-.07-.64-.15-.98-.06-.24.06-.47.22-.75.08-.1-.05-.28.01-.4.07-.66.31-1.31.66-1.98.95-.26.11-.56.12-.83.19-.57.15-1.15.31-1.72.47-.8.22-1.61.44-2.4.68-.47.14-.93.32-1.4.48-.18.06-.37.1-.56.14-.44.11-.89.22-1.33.32-.43.09-.87.16-1.3.25-.31.07-.62.17-.93.23-.27.05-.57.03-.82.12-.43.16-.87.15-1.31.22-.26.04-.5.15-.76.2-.5.1-1,.17-1.49.28-.86.19-1.72.38-2.58.61-.8.22-1.58.48-2.37.75-.77.26-1.54.48-2.35.58-.21.03-.41.12-.62.17-.32.08-.64.1-.96.07-.15-.01-.32-.02-.43.19.11-.01.2-.02.28-.03,0,.02,0,.04.01.05-.27.08-.54.17-.81.23-.87.19-1.75.37-2.62.55-.21.04-.43.05-.65.09-.72.14-1.44.3-2.17.44-.16.03-.33,0-.48.04-1.18.37-2.4.52-3.6.77-.51.11-1.05.12-1.57.18-.1.01-.18.09-.28.12-.15.05-.3.1-.46.13-.43.07-.86.12-1.28.2-.34.06-.67.13-1,.21-.18.04-.36.13-.54.19-.04.01-.07.03-.11.03-.29.04-.58.06-.87.11-.09.02-.18.09-.26.14l.02.04c-.46.08-.92.14-1.37.25-.26.06-.5.19-.76.28-.36.12-.73.23-1.09.34-.16.05-.33.06-.54.1,1.4-1.66,3.15-2.77,4.99-3.77-.12-.33.26-.2.35-.36.03.08.06.13.08.18.02,0,.04,0,.06,0,.02-.13.05-.26.08-.41.23.16.38.03.55-.09.14-.1.31-.16.46-.26.19-.12.36-.26.54-.4.07-.06.12-.17.2-.18.37-.08.62-.38.95-.53.33-.16.65-.38,1-.44.37-.06.54-.34.81-.5.3-.18.56-.42.92-.47.03,0,.06-.02.08-.03q.46-.26.87-.29c-.06-.36.27-.38.47-.51.29-.2.6-.38.91-.55.15-.09.32-.15.48-.24.28-.16.56-.32.83-.49.66-.42,1.32-.85,1.99-1.27.52-.33,1.04-.66,1.56-.98.35-.21.72-.38,1.07-.59.14-.09.4-.09.37-.37,0-.01.1-.05.16-.05.08-.01.18.02.23-.01.4-.25.79-.52,1.2-.75.41-.22.85-.39,1.26-.6.32-.16.63-.34.93-.53.33-.21.64-.47.97-.67.42-.25.86-.47,1.29-.71.09-.05.16-.15.23-.23,0-.02-.02-.04-.02-.06.11.02.23.07.33.03.09-.03.19-.14.22-.24.06-.17.1-.33.35-.42-.04.11-.06.17-.1.28.09-.05.18-.07.21-.12.09-.2.27-.23.45-.28.13-.04.25-.12.38-.17.03-.01.09.06.12.04.1-.04.22-.09.3-.17.34-.32.73-.16.98.16.14.18.25.4.34.62.04.1,0,.24.03.34.06.19.15.36.24.54.08.17.21.32.26.5.06.19.04.37-.19.49-.28.14-.54.32-.66.63-.03.07-.05.18-.02.21.06.05.18.08.24.05.44-.26.78.1,1.17.16.3.04.61.11.9.19.34.08.67.18,1,.27.13.03.26.04.39.07.17.04.34.09.51.13.02,0,.04.02.06.02.74-.03,1.46.15,2.19.19.54.03,1.09.09,1.62.18.18.03.38,0,.54.17.18.18.29,0,.37-.13.19-.33.2-.34.57-.29.32.05.63.14.96.19.24.04.48.04.76.06,0-.05.02-.14.03-.24,0-.17.07-.24.25-.2.09.02.19.01.31.02,0,.03-.02.07-.04.13.12-.01.23-.02.32-.03.11.04.21.08.31.12.03,0,.05-.02.08-.03-.3-.23-.11-.31.06-.38.27-.11.52-.24.72-.44.05-.05.13-.05.22-.09-.01.13-.02.23-.03.32.02,0,.04.01.05.02.19-.34.39-.68.58-1.03.09.05.15.09.24.13v-.27s.03.01.04.02c.05-.06.08-.14.14-.19.09-.07.2-.14.3-.19.09-.05.19-.09.29-.11.15-.02.32-.05.47-.02.19.03.38.08.55.17.22.13.44.29.63.46.84.77,1.81,1.34,2.77,1.94.16.1.29.26.41.41.09.12.07.23-.11.27ZM1.28,47.08c-.07-.29-.25-.57-.16-.88h.07s.04.09.03.14c-.03.19.05.28.21.39.14.09.21.29.29.46.07.15.12.31.18.46.25-.1.38-.29.32-.59-.05-.3-.14-.61-.26-.9-.26-.64-.44-1.3-.47-1.99-.01-.29-.08-.58-.09-.87,0-.17,0-.34.05-.5.11-.36.24-.7.37-1.05.03-.07.06-.15.11-.2.35-.38.69-.78,1.08-1.13.17-.15.44-.18.66-.26.05-.02.13-.03.14-.06.08-.29.33-.26.55-.31.49-.12.98-.27,1.47-.4.15-.04.31-.05.46-.1.93-.32,1.87-.59,2.82-.79.7-.15,1.41-.22,2.12-.35.5-.09,1-.25,1.5-.35.7-.14,1.41-.27,2.12-.37.89-.13,1.75-.32,2.61-.59.51-.17,1.06-.24,1.59-.35.87-.19,1.74-.39,2.62-.59.36-.08.73-.14,1.1-.23.78-.18,1.57-.34,2.34-.56.47-.13.91-.35,1.37-.51.29-.11.57-.19.9-.07.13.05.32-.06.49-.1.09-.02.19-.07.29-.06.27.02.53.05.79.09.39.06.78.14,1.17.18.14.01.29-.07.44-.08.12,0,.24.03.36.05.07,0,.14.03.2.03.51-.02,1.01-.03,1.52-.08.46-.05.91-.14,1.36-.23.04,0,.06-.06.1-.09.06-.05.13-.13.19-.12.46.07.86-.29,1.33-.2.08.02.18-.08.28-.11.2-.05.41-.1.61-.14.38-.08.75-.17,1.13-.25.11-.02.23-.03.34-.06.09-.03.17-.1.26-.14.05-.02.12-.05.17-.03.27.13.5-.05.75-.09.33-.05.62-.27.99-.26.16,0,.32-.11.48-.17.29-.11.58-.19.89-.23.22-.03.43-.13.66-.2-.02-.05-.04-.09-.04-.1.13-.05.25-.12.37-.15.39-.09.79-.16,1.19-.26.12-.03.23-.17.34-.17.29.02.54-.06.77-.23.04-.03.12-.04.18-.03.49.07.94-.1,1.37-.28.95-.4,1.92-.48,2.92-.33.54.08,1.07.18,1.61.29.22.04.37.17.48.39.08.15.32.21.49.3,0,0,.08-.08.09-.13.07-.45-.07-.71-.5-.88-.72-.3-1.48-.45-2.26-.44-.77.01-1.53.02-2.3.06-.29.01-.58.11-.87.15-.15.02-.3.01-.45.04-.1.02-.19.08-.29.1-.36.08-.73.15-1.09.23-.46.11-.92.23-1.38.36-.13.04-.26.1-.38.18-.15.1-.29.13-.46.1-.08-.02-.19.02-.27.06-.17.06-.33.14-.5.2-.06.02-.12.03-.18.05-.42.11-.84.21-1.25.33-.33.09-.64.22-.97.31-.4.1-.81.17-1.21.27-.15.04-.29.12-.43.17-.08.03-.17.06-.24.05-.2-.04-.37-.05-.57.09-.15.11-.38.13-.58.17-.54.12-1.08.23-1.62.33-.2.04-.4.02-.6.06-.35.06-.7.02-1.05.13-.24.07-.53.01-.79-.03-.25-.04-.49-.12-.74.03-.06.04-.16.03-.25,0,.14-.09.28-.18.41-.27-.01-.02-.02-.05-.03-.07.04.01.09.03.15.05-.02-.13-.03-.24-.05-.37.27-.09.53-.26.85-.14.04.02.11-.03.16-.05.22-.12.43-.25.65-.37.12-.06.23-.13.36-.18.17-.07.35-.12.52-.18.03,0,.07-.01.08-.03.23-.31.56-.23.88-.24.15,0,.29-.1.44-.16.04-.02.08-.08.11-.08.26.06.45-.02.65-.21.11-.1.36-.07.54-.09.11-.01.21,0,.24-.16.03-.15.47-.27.62-.19.12.07.25.16.34-.05.02-.04.11-.03.14-.07.05-.05.12-.13.11-.19-.02-.23.09-.38.32-.42.25-.04.51-.08.76-.15.47-.14.92-.36,1.39-.46.47-.1.83-.43,1.3-.5.12-.02.24-.02.36-.04.36-.08.71-.17,1.07-.25.33-.08.66-.15,1-.24.13-.03.26-.1.4-.13.33-.07.67-.16,1-.2.44-.05.87-.07,1.31-.1.52-.03,1.05-.04,1.57-.07.44-.02.88-.05,1.32-.04.57,0,1.14.05,1.71.07.09,0,.17-.06.26-.08.11-.03.22-.06.33-.07.06,0,.12.02.17.03.01-.02.02-.04.03-.06-.09-.06-.17-.12-.27-.17-.15-.08-.31-.15-.46-.21-.15-.05-.3-.11-.45-.12-.77-.05-1.54-.09-2.32-.11-.3,0-.6.04-.9.07-.35.04-.7.1-1.06.13-.28.03-.56,0-.83.05-1,.15-2.01.29-3.01.48-.52.1-1.01.3-1.52.44-.34.09-.68.15-1.02.24-.4.11-.8.23-1.2.36-.45.15-.9.3-1.33.49-.72.3-1.42.65-2.13.95-.6.25-1.23.46-1.83.71-.52.21-1.03.44-1.55.66-.23.1-.46.18-.69.27,0,.02.01.04.02.06.13-.04.25-.08.38-.13-.14.23-.73.51-1.89.84-.69.2-1.38.38-2.09.5-.7.12-1.41.16-2.11.26h.73v.07c-.41.1-.83.19-1.24.29-.26.06-.53.08-.76.19-.32.15-.65.16-.98.23-.71.13-1.41.26-2.11.4-1.11.23-2.23.47-3.34.71-1.05.22-2.09.46-3.14.67-.63.13-1.27.22-1.9.34-.17.03-.32.12-.48.16-.35.1-.71.19-1.06.27-.73.17-1.46.35-2.2.49-.86.17-1.64.52-2.46.8-.71.24-1.46.38-2.18.58-.62.17-1.24.38-1.85.56-.1.03-.21.05-.38.09.07-.25.1-.46.18-.66.27-.68.73-1.26,1.22-1.78.28-.3.7-.48,1.09-.65.46-.19.95-.29,1.43-.45.63-.21,1.24-.44,1.87-.64.33-.11.68-.15,1.01-.24.46-.13.91-.28,1.36-.41.48-.14.96-.26,1.44-.39.91-.24,1.81-.46,2.72-.71.88-.24,1.75-.51,2.62-.77.64-.2,1.27-.41,1.91-.61.52-.16,1.04-.3,1.55-.47,1.02-.35,2.03-.73,3.05-1.08.65-.22,1.31-.38,1.96-.58.97-.3,1.94-.62,2.92-.92.64-.19,1.28-.38,1.93-.53.51-.12,1.03-.15,1.54-.25.57-.12,1.14-.27,1.7-.41.55-.13,1.11-.24,1.67-.37.79-.19,1.58-.37,2.35-.6.71-.21,1.41-.46,2.11-.72.52-.19,1.02-.42,1.53-.62.3-.11.61-.19.91-.3,1.19-.45,2.45-.6,3.69-.82.87-.16,1.74-.36,2.61-.53.41-.08.81-.15,1.22-.23.34-.07.68-.14,1.01-.24.25-.08.47-.24.72-.3.46-.12.92-.12,1.37.05.05.02.12,0,.22,0-.06.2-.11.38-.17.55-.23.57-.48,1.14-.68,1.72-.14.4-.24.82-.32,1.23-.02.09.08.24.17.31.09.07.2.03.21-.11,0,0,0-.02,0-.02-.03-.45.17-.83.34-1.22.2-.48.4-.96.6-1.43.02,0,.04.01.06.02-.03.49-.08.97-.09,1.46,0,.3.07.61.06.91-.03.66-.09,1.32-.13,1.99,0,.11.01.23.02.35.11,1.01.03,2.01-.18,3.01-.15.73-.22,1.48-.21,2.23,0,.14-.05.2-.18.22-.96.16-1.92.32-2.88.5-.5.09-.99.23-1.48.34-.96.22-1.93.44-2.9.65-.23.05-.46.1-.68.16-.45.1-.88.28-1.36.34-.53.07-1.04.28-1.57.42-.22.06-.48.06-.65.18-.33.23-.72.27-1.09.37-.8.22-1.6.4-2.41.59-1.01.24-2.03.45-3.04.69-.98.24-1.96.51-2.95.74-.67.16-1.36.28-2.04.42-.23.05-.44.14-.67.19-.11.03-.23.03-.34.05-.44.1-.88.22-1.32.31-.53.1-1.07.17-1.61.28-.62.12-1.23.28-1.85.41-.69.15-1.38.27-2.07.43-.51.12-1.02.27-1.53.41-1.12.3-2.24.59-3.36.89-.81.22-1.61.48-2.43.65-1.02.22-2.02.47-3,.82-.56.2-1.16.28-1.74.45-.91.27-1.82.56-2.73.84-.86.26-1.72.52-2.58.78-.31.09-.61.2-.91.28-.54.14-.91.53-1.32.87-.26.21-.52.43-.77.64-.02-.01-.03-.03-.05-.04.03-.06.06-.12.09-.19-.06.01-.11.02-.19.04-.08-.29-.18-.58-.25-.87ZM29.26,33.55c.23-.06.41-.1.58-.16.15-.06.29-.15.44-.22.02.01.03.03.05.04-.04.14-.07.28-.11.45-.31-.04-.61-.07-.95-.11ZM1.41,51.45c.23.15.41.28.63.43-.38.02-.54-.08-.63-.43ZM52.52,40.73c.18-.21.32-.39.46-.56.02.02.05.03.07.05.03.25-.11.4-.53.51ZM53.31,39.08c-.23.16-.42.39-.61.6-.14.15-.28.31-.41.48-.04.06-.06.16-.05.23,0,.1.04.2.08.29.1.21.04.24-.18.27-.2.03-.38.17-.57.28-.29.17-.58.3-.93.25-.1-.01-.21.02-.32.04-.4.06-.8.12-1.2.2-.34.06-.68.15-1.03.21-.88.14-1.76.25-2.64.41-1.01.18-2.02.4-3.03.61-1.3.28-2.61.55-3.91.85-.88.21-1.75.47-2.62.7-1.02.27-2.05.51-3.06.79-.5.14-.98.36-1.49.49-.65.17-1.32.29-1.98.43-.6.13-1.2.24-1.8.38-1.64.38-3.29.77-4.93,1.17-1.21.3-2.42.63-3.63.93-.37.09-.77.11-1.15.17-.38.06-.77.13-1.15.2-.38.07-.76.15-1.14.23-.26.06-.52.12-.76.21-.94.37-1.9.66-2.88.88-.47.1-.93.27-1.38.44-.12.05-.32.05-.33.29,0,.06-.17.12-.27.15-.43.14-.86.27-1.28.41-.1.03-.2.09-.31.11-.07.01-.14-.02-.21-.09.05-.03.11-.07.16-.1-.02-.02-.03-.05-.04-.05-.57.13-1.16.22-1.7.42-.81.3-1.65.42-2.5.44-.14,0-.27-.04-.41-.06,0-.02-.02-.05-.02-.07.11-.07.21-.14.32-.2.76-.4,1.55-.75,2.28-1.19.84-.51,1.63-1.09,2.42-1.68.45-.33.95-.48,1.47-.62.31-.08.64-.11.95-.19.26-.07.51-.19.77-.28.26-.09.52-.19.79-.26.41-.11.83-.22,1.25-.31.88-.19,1.76-.39,2.65-.56,1.07-.21,2.14-.42,3.22-.61.45-.08.9-.08,1.35-.15.55-.08,1.1-.2,1.65-.31.56-.11,1.11-.22,1.66-.34.46-.1.91-.22,1.36-.33.48-.12.97-.23,1.45-.34.87-.2,1.74-.37,2.61-.58.88-.21,1.76-.46,2.64-.69.64-.17,1.27-.39,1.91-.53.82-.18,1.65-.3,2.48-.44.04,0,.1-.01.13-.03.41-.27.87-.38,1.35-.43.13-.01.25-.07.38-.1.77-.17,1.54-.33,2.3-.5.61-.13,1.22-.25,1.83-.38.87-.2,1.74-.42,2.62-.62.92-.21,1.85-.4,2.77-.62.47-.11.93-.26,1.4-.36.45-.1.91-.14,1.36-.24.36-.08.72-.21,1.07-.33.51-.17,1.01-.36,1.54-.55.05.3-.09.44-.3.58ZM53.7,36.77c-.01.32-.02.64-.24.92-.06.07-.04.24,0,.35.04.14,0,.21-.13.24-1.17.31-2.28.8-3.5.94-.59.07-1.18.24-1.76.36-.46.1-.93.21-1.39.29-.83.15-1.66.27-2.48.43-.6.12-1.18.29-1.77.41-1.25.26-2.51.49-3.76.75-1.08.23-2.15.48-3.22.73-.33.08-.65.2-.98.27-.22.05-.46.02-.69.07-.65.14-1.29.31-1.93.47-.52.13-1.04.24-1.56.37-.45.11-.89.24-1.33.34-.24.05-.49.06-.74.09-.09.01-.2,0-.27.05-.44.3-.96.22-1.45.31-.17.03-.34.1-.51.16-.18.06-.36.16-.55.2-.84.18-1.68.33-2.51.51-.69.15-1.38.33-2.07.47-.37.07-.75.04-1.12.09-.74.11-1.47.24-2.21.36-.08.01-.15,0-.23,0-.14,0-.28,0-.42.03-.44.08-.88.17-1.32.26-.19.04-.38.08-.57.11-.24.04-.49.08-.73.12-.08.01-.17.03-.25.05-1.38.4-2.75.81-4.12,1.22-.35.1-.69.22-1.04.34-.04.01-.09.04-.11.08-.4.59-1,.9-1.6,1.22-.21.11-.44.22-.61.39-.36.36-.84.51-1.27.73-.32.17-.65.33-.99.46-.4.16-.8.31-1.21.4-.21.05-.47,0-.69-.06-.34-.1-.67-.24-.99-.38-.07-.03-.14-.15-.14-.21.03-.2.09-.4.14-.61,0-.04.02-.09,0-.12-.1-.21-.04-.39.07-.57.35-.55.8-.99,1.32-1.38.3-.22.57-.49.87-.71.15-.11.33-.22.51-.27.41-.11.84-.17,1.25-.28.6-.16,1.19-.36,1.79-.53.16-.05.34-.07.5-.12,1.12-.32,2.25-.61,3.36-.99.75-.26,1.52-.44,2.29-.65.45-.13.89-.25,1.35-.33.46-.08.89-.29,1.34-.41.52-.14,1.04-.25,1.56-.38.77-.19,1.54-.39,2.31-.59.78-.21,1.55-.44,2.33-.63.95-.23,1.92-.42,2.87-.64.56-.12,1.11-.27,1.66-.39.77-.15,1.55-.26,2.32-.43.87-.19,1.72-.43,2.59-.61.47-.09.94-.21,1.38-.39.05-.02.09-.08.12-.11.11.01.2.05.28.03.84-.16,1.68-.31,2.51-.49.52-.11,1.03-.27,1.54-.4.59-.15,1.18-.3,1.77-.45.45-.12.92-.18,1.34-.36.7-.31,1.48-.37,2.17-.68.66-.3,1.38-.19,2.05-.35.58-.14,1.15-.3,1.73-.42.39-.08.8-.12,1.2-.17.36-.04.73-.04,1.03-.31.09-.08.24-.1.37-.13.89-.19,1.78-.37,2.67-.57.3-.07.6-.17.89-.29.22-.09.35,0,.5.12.09.06.17.15.27.19.22.07.24.24.23.42,0,.33,0,.66-.01.99Z"/>
      <path class="cls-1" d="M2.19,43.77c.2-.48.5-.9.91-1.22.38-.3.79-.59,1.22-.82.45-.24.98-.35,1.41-.62.25-.16.46-.03.67-.1.5-.16,1.01-.33,1.52-.44.87-.18,1.75-.34,2.65-.29.4.02.79.17,1.19.23.21.03.42.01.63.02.04,0,.07.02.11.03.25.1.51.2.76.3.18.07.36.14.56.03.04-.02.11-.03.16-.02.53.06.99-.16,1.48-.33.56-.19,1.14-.31,1.71-.45.39-.09.77-.18,1.16-.25.5-.09.99-.21,1.49-.24.3-.02.57-.19.84-.2.43-.02.82-.16,1.23-.24.86-.17,1.71-.36,2.56-.54.33-.07.65-.17.97-.23.4-.08.81-.17,1.22-.2.65-.05,1.19-.39,1.8-.55.94-.24,1.87-.49,2.81-.69.87-.18,1.75-.3,2.63-.45.66-.11,1.33-.23,1.99-.33.76-.12,1.53-.23,2.29-.35.48-.07.96-.11,1.43-.21.56-.12,1.11-.3,1.68-.43.29-.07.6-.08.9-.12.28-.04.53-.15.75-.34.05-.05.15-.11.2-.09.19.06.32-.07.48-.11.44-.11.87-.3,1.33-.12.02,0,.05.02.07.01.35-.23.73.05,1.09-.08.2-.07.42-.12.62.06.04.04.15.02.23.01.53-.07,1.05-.14,1.58-.21.63-.08,1.26-.15,1.89-.24.44-.06.8-.3,1.14-.56.08-.06.12-.18.15-.28.09-.24.34-.35.6-.2-.12.03-.21.06-.29.08,0,0,0,.02,0,.03.28.21.28.29,0,.52-.51.41-1.04.73-1.73.78-.73.06-1.46.23-2.18.38-.32.07-.61.22-.93.31-.38.1-.77.24-1.14.21-.39-.03-.71.09-1.05.21-.36.12-.7.28-1.06.42-.4.16-.8.34-1.24.38-.53.05-1.06.13-1.59.21-.55.09-1.1.21-1.65.3-.86.14-1.72.27-2.59.42-.24.04-.47.13-.7.16-.46.07-.92.1-1.38.16-.78.12-1.57.24-2.35.38-.21.04-.4.18-.61.2-.58.05-1.12.34-1.73.29-.49-.04-.97.02-1.4.34-.1.08-.29.03-.42.08-.24.1-.55-.02-.74.23-.02.03-.08.03-.12.03-.05,0-.12-.01-.13,0-.15.28-.4.12-.6.14-.17.02-.38-.08-.48.17,0,.02-.07.03-.1.04-.68.15-1.36.31-2.05.45-.29.06-.59.05-.88.09-.3.05-.6.12-.9.19-.39.09-.78.18-1.17.28-.06.01-.1.09-.16.11-.07.03-.15.06-.23.07-.62.09-1.23.18-1.85.28-.47.07-.95.11-1.41.22-.61.14-1.2.35-1.8.49-1,.24-2.01.48-3.02.67-.73.14-1.48.21-2.22.31-.16.02-.33,0-.49.03-.51.08-1.01.18-1.52.26-.13.02-.28,0-.41,0-.1,0-.21,0-.29.05-.38.24-.83.25-1.24.38-.41.13-.84.21-1.15.57-.1.11-.34.1-.51.15-.11.03-.22.06-.4.1.12-.48.27-.84.66-1.04.99-.51,2.04-.8,3.15-.94.84-.11,1.68-.27,2.51-.43.37-.07.73-.2,1.09-.31,0-.02.01-.04.02-.07-.17-.07-.33-.15-.5-.2-.21-.06-.42-.11-.63-.14-.23-.03-.49.02-.7-.06-.32-.12-.63-.05-.94-.05-.22,0-.44.06-.65.12-.38.1-.75.28-1.13.33-.48.07-.94.16-1.4.32-.38.14-.76.29-1.14.43-.11.04-.26-.01-.35.05-.36.27-.71.57-1.06.87-.14.13-.24.31-.39.44-.12.11-.28.17-.43.24-.09.04-.18.06-.3.09Z"/>
      <path class="cls-1" d="M43.34,11.89c-.1.24-.32.16-.51.21.04-.16.24-.24.51-.21Z"/>
    </g>
  </g>
</svg>