<?xml version="1.0" encoding="UTF-8"?>
<svg id="Layer_2" data-name="Layer 2" xmlns="http://www.w3.org/2000/svg" viewBox="0 0 92.15 104.31">
  <defs>
    <style>
      .cls-1 {
        fill: #000;
        stroke-width: 0px;
      }
    </style>
  </defs>
  <g id="illustrations">
    <g>
      <path class="cls-1" d="M48.78,93.97c.16-.26.13-.32-.15-.4-.07-.02-.15-.07-.2-.12-.25-.28-.51-.54-.73-.85-.1-.14-.13-.35-.17-.53-.04-.2-.06-.41-.08-.62-.03,0-.06,0-.08,0-.04.05-.09.1-.16.2-.02-.17-.03-.3-.04-.42,0-.04,0-.09-.01-.13-.03-.16-.13-.34-.1-.48.13-.57.35-1.13.45-1.7.11-.66.42-1.31.1-2-.02-.04-.01-.11,0-.16,0-.37.04-.74.02-1.12-.04-.85-.11-1.7-.15-2.56-.03-.67-.03-1.35-.06-2.02-.01-.29,0-.59-.19-.74.01-.19.03-.31.02-.43-.02-.18-.08-.35-.09-.53-.08-.88-.15-1.76-.23-2.64-.03-.35-.14-.7-.16-1.05-.05-1.19-.06-2.37-.09-3.56-.01-.46-.02-.93-.12-1.37-.12-.53-.2-1.06-.17-1.6.02-.33-.02-.66-.04-.99,0-.04-.05-.07-.08-.11-.02.07-.03.15-.07.2-.15.18-.15.41-.03.52,0,.17-.02.29-.02.41.02.5.27.98.07,1.51-.1.26-.03.59,0,.89.04.61.1,1.22.14,1.82.08,1.13.09,2.27.24,3.39.17,1.22.21,2.45.26,3.68.03.64.02,1.28.05,1.91.06.99.14,1.98.21,2.97,0,.09.02.19.04.31.1-.04.16-.07.22-.1-.08.11-.21.21-.23.33-.1.57-.17,1.14-.26,1.71-.07.41.1.83-.18,1.24-.12.17-.11.48-.22.72-.34.75-.47,1.55-.44,2.36.01.4.08.84.28,1.17.34.58.76,1.12,1.22,1.6.23.24.41.46.48.77.16.64.16,1.28-.01,1.91-.1.36-.32.7-.53,1.03-.21.33-.36.66-.29,1.07.01.06,0,.15-.04.2-.2.31-.4.61-.6.92-.04.06-.14.11-.13.15.04.28-.14.46-.28.66-.05.07-.04.19-.06.28-.16.11-.34.24-.55.39.1.04.16.06.2.08-.06.46-.56.12-.72.4.11,0,.21,0,.31,0,.19-.02.39.01.51-.19.04-.06.05-.14.1-.2.21-.27.44-.53.63-.82.18-.26.27-.59.47-.83.34-.41.49-.85.51-1.37,0-.26.09-.51.38-.65-.05.15-.1.3-.16.45.14,0,.15,0,.4-.4.66-1.05,1.02-2.17.79-3.43.23-.12.12-.83-.18-1.13Z"/>
      <path class="cls-1" d="M47.84,22.23c.17-.23.31-.54.54-.65.34-.16.75-.2,1.13-.22.74-.05,1.45-.23,2.09-.59.51-.29.98-.67,1.48-.98,1.11-.69,2.36-.87,3.64-.85.39,0,.72-.07,1.08-.15.54-.12,1.12-.29,1.64-.21.49.08.98.1,1.47.12.65.02.69-.04.7-.71,0-.24-.09-.41-.35-.4-.46.01-.92.01-1.37.07-1.23.16-2.46.35-3.68.53-.41.06-.83.1-1.22.23-.47.17-.9.44-1.37.64-.88.37-1.73.78-2.46,1.4-.59.5-1.29.52-2.06.54.1-.08.15-.13.2-.16.81-.46,1.63-.92,2.44-1.39.46-.26.92-.53,1.35-.83.56-.4,1.08-.87,1.66-1.24.97-.63,1.98-1.2,2.98-1.8.29-.18.58-.39.89-.52.36-.16.72-.3,1.01-.58.08-.07.16-.15.24-.22v-.07c-.3.05-.61.06-.87.17-.43.17-.84.4-1.26.61-.09.04-.17.09-.25.14-1.09.73-2.25,1.35-3.43,1.92-.37.18-.75.34-1.15.51.11.04.18.07.26.1-.1.35-.4.44-.65.57-.72.37-1.45.72-2.17,1.09-.2.1-.36.29-.55.4-.28.15-.58.27-.87.4-.56.26-1.05.6-1.31,1.19-.17.38-.37.75-.5,1.14-.11.33-.14.69-.21,1.04.04-.02.08-.03.1-.06.28-.4.55-.8.83-1.2Z"/>
      <path class="cls-1" d="M6.29,79.42c-.06-.22-.18-.44-.05-.68,0-.01-.02-.05-.03-.07-.09-.27-.33-.27-.53-.23-.29.05-.57.2-.86.22-.88.05-1.75.23-2.63.06-.08-.02-.16-.07-.21-.13-.02-.03,0-.14.05-.18.49-.58,1.07-1.07,1.48-1.73.24-.38.59-.68.89-1.02.4-.44.81-.88,1.2-1.33.33-.37.6-.8.96-1.13.61-.57,1.15-1.19,1.64-1.86.48-.67.95-1.34,1.41-2.01.08-.11.09-.27.14-.44.28-.1.88-1.48.75-1.91-.07.1-.14.16-.17.24-.14.34-.26.68-.39,1.01-.1.25-.24.45-.54.45-.03.13-.03.27-.09.37-.21.35-.44.68-.68,1.02-.03.04-.13.04-.2.06-.09.02-.18.02-.27.04,0,.03.01.05.02.08.1,0,.2-.01.32-.02-.1.17-.17.32-.27.45-.27.39-.53.78-.82,1.14-.22.27-.46.56-.76.71-.3.15-.5.38-.71.6-.12.12-.15.32-.27.44-.47.46-.94.9-1.43,1.33-.38.34-.78.66-1.15,1.01-.78.74-1.54,1.49-2.31,2.23-.45.43-.73.93-.61,1.59-.06.04-.11.07-.16.1.05.05.1.13.16.15.67.22,1.36.16,2.05.07.33-.04.66-.06,1-.07.15,0,.3.06.44.04.34-.05.68-.15,1.03-.21.4-.07.81-.13,1.22-.19.1-.02.21-.02.31-.05.04-.01.11-.09.1-.12Z"/>
      <path class="cls-1" d="M27.15,91.38c-.01-.51-.39-.82-.76-.96-.58-.22-1.22-.32-1.85-.11-.41.14-.82.26-1.23.39-.06.02-.12.03-.17.04.04-.17.05-.35.13-.49.24-.39.52-.77.78-1.16.07-.1.11-.23.14-.35.07-.29.08-.6.19-.86.2-.46.46-.9.69-1.35.09-.18.18-.37.24-.56.03-.1.02-.22.02-.33-.02-.01-.05-.02-.07-.03.04-.06.1-.11.11-.18.07-.36.12-.72.18-1.09.04-.2.06-.41.13-.6.12-.31.3-.61.43-.92.15-.38.23-.76-.17-1.13,0,.15,0,.25,0,.34,0,.08.03.17,0,.23-.17.4-.3.8-.37,1.23-.05.35-.17.7-.25,1.05-.13.57-.18,1.16-.55,1.66-.05.07-.13.17-.18.17-.22-.02-.24.17-.31.29-.08.14-.14.31-.23.45-.32.51-.58,1.03-.69,1.63-.07.35-.07.71-.39,1-.38.35-.62.87-1.01,1.22-.44.38-.57.87-.72,1.38-.03.09.04.2.07.3.02,0,.05,0,.07-.01.04-.19.08-.38.11-.57.29.03.33.46.66.34.19.22.32.09.49-.06.15-.13.31-.32.48-.24.26-.17.46-.31.67-.45.26.34.34.34.56-.02,0-.02.02-.03.03-.05.11-.16.54-.38.67-.31.13.07.22.21.34.32.16-.02.03-.46.37-.25.15.09.42-.08.47.22q.34-.07.35.29c.09-.1.16-.17.32-.34.07.16.13.32.2.48.05-.03.09-.07.14-.1-.02-.17-.07-.35-.07-.52Z"/>
      <path class="cls-1" d="M1.59,74.44c.16.11.28.06.33-.12.03-.12.08-.24.12-.36-.03,0-.08-.01-.12-.02.07-.11.14-.22.2-.33.12-.19.24-.39.37-.57.06-.09.23-.18.22-.23-.09-.25.11-.27.23-.33-.02-.07-.07-.15-.05-.19.27-.46.56-.9.83-1.36.16-.27.29-.54.42-.83.12-.27.21-.55.31-.83.01-.04.04-.09.03-.12-.15-.29-.03-.55.06-.81.13-.38.25-.77.37-1.16.01-.04-.04-.1-.04-.12.05-.06.11-.1.14-.16.09-.22.14-.46.26-.67.1-.18.09-.41.14-.67,0,0,.07-.05.08-.11.08-.39.12-.8.24-1.18.09-.28.14-.54.19-.82.11-.59.39-1.14.59-1.71.03-.08.06-.16.09-.24.19-.59.39-1.18.57-1.77.12-.39.23-.78.37-1.16.14-.39.08-.83.32-1.19.01-.02.03-.06.02-.07-.16-.13-.02-.24.02-.36.05-.15.14-.29.18-.45.08-.31.12-.64.21-.95.08-.28.2-.56.3-.83.07-.21.13-.41.19-.62.06-.2.11-.4.15-.61.05-.28.09-.56.14-.84.02,0,.05,0,.07.01-.02.26-.04.51-.06.8.04-.02.15-.03.15-.06.02-.2.04-.41.03-.61,0-.15-.08-.3-.08-.45,0-.06.15-.12.24-.16.04-.02.11.02.16.03,0-.02.02-.04.02-.07-.11-.05-.22-.09-.33-.14.02-.08.05-.16.09-.3-.16.02-.28.03-.43.05.05.08.09.14.12.19-.08.06-.15.11-.23.16.04.09.08.16.12.25-.08.02-.13.03-.14.03-.07.22-.12.38-.17.55-.28.97-.56,1.94-.83,2.91-.05.19-.08.38-.13.6,0,0,.06.03.07.03-.14.46-.28.89-.4,1.3.12.07.22.12.32.17-.01.02-.03.05-.04.07-.07-.03-.14-.05-.23-.08-.05.08-.11.16-.14.25-.08.27-.17.55-.21.83-.05.39-.21.72-.43,1.04-.03.04-.06.09-.08.13-.13.41-.26.83-.4,1.24-.13.39-.27.79-.39,1.18-.07.23-.14.45-.21.68-.03.12-.06.24-.08.36-.06.28-.12.56-.18.84,0,.08-.13.12-.15.2-.12.48-.22.97-.33,1.46-.02.07-.04.15-.08.2-.19.19-.29.38-.1.58-.06.11-.11.18-.14.27-.08.24-.17.49-.23.74-.14.53-.27,1.07-.4,1.6-.02.07,0,.16-.05.2-.27.25-.38.56-.48.9-.18.63-.6,1.13-.9,1.7-.25.49-.51.97-.89,1.37-.38.39-.38.4.06.72Z"/>
      <path class="cls-1" d="M38.48,3.75c.16.08.3.2.45.3-.19.06-.34.06-.49.06-.53.01-.78.42-.57.91.14.33.39.56.68.75.57.36,1.16.68,1.57,1.25.06.08.13.15.2.22.32.31.66.55,1.15.43,0,0,0-.05.01-.13.1.06.17.11.24.16.18.12.34.26.53.34.08.04.23-.03.33-.1.04-.02.03-.16,0-.23-.1-.3-.22-.6-.33-.89-.19-.49-.34-1.01-.69-1.42.44.23.87.47,1.31.7,0-.01,0-.05-.01-.09-.08-.43-.17-.87-.24-1.3-.02-.15-.02-.32.19-.41.02.09.04.16.06.24.04-.08.08-.15.12-.22.4.17.43.15.53-.27.02-.09.03-.19.03-.29.02-.21.13-.31.33-.25.21.06.22-.05.23-.2.01-.44-.24-.72-.54-.99-.16-.15-.3-.19-.48-.03-.05.05-.21.05-.27,0-.18-.15-.31-.08-.47.04-.29.23-.4.53-.42.88,0,.06-.07.16-.11.17-.06,0-.15-.05-.19-.11-.06-.1-.08-.21-.12-.32-.24-.6-1-.74-1.4-.23-.12.15-.26.37-.23.53.05.28.17.59.35.81.32.38.7.69,1.06,1.03-.68-.5-1.36-1.01-2.04-1.52-.11-.08-.21-.2-.33-.27-.1-.05-.23-.06-.35-.08-.02.1-.04.2-.07.31-.39-.14-.79-.28-1.19-.41-.01.03-.02.05-.03.08.07.04.13.1.21.13.33.15.67.28,1,.44ZM40.01,5.06c-.29.3-.58.59-.9.92-.33-.2-.63-.48-.74-.92-.05-.2.15-.39.35-.4.49-.02.9.18,1.28.39Z"/>
      <polygon class="cls-1" points="26.53 73.68 26.53 73.68 26.53 73.68 26.53 73.68"/>
      <path class="cls-1" d="M26.7,74.52c-.18.31-.28.61-.01.92-.1.06-.18.11-.26.16.02.03.03.07.05.1.08-.04.22-.07.23-.13.06-.22.24-.43.06-.68-.02-.03.02-.1.03-.15.03-.16.07-.31.1-.47.03-.18.02-.36.05-.54.07-.35.2-.69.22-1.04.05-.69-.01-1.4.29-2.06.01-.02-.02-.06-.03-.1-.01-.08-.03-.17-.02-.25.05-.55.09-1.1.15-1.65.03-.23-.06-.5.16-.62-.06-.08-.17-.17-.16-.23.06-.36-.04-.72.04-1.1.07-.32.06-.68.09-1.02.08-1.01.11-2.02.22-3.02.12-.98.24-1.96.26-2.96.02-1.44.16-2.88.26-4.32.06-.85.13-1.69.18-2.54,0-.13-.03-.26-.04-.39-.01,0-.03,0-.04,0-.18,2.4-.37,4.8-.56,7.24-.04-.08-.08-.13-.08-.18.03-.66.05-1.33.09-1.99.05-.8.11-1.61.15-2.41.01-.19-.07-.39-.05-.57.14-1.1.3-2.19.45-3.29,0-.06.04-.12.05-.18,0,0,.02,0,.03,0-.02.37-.04.74-.06,1.11.03,0,.06,0,.09,0,.04-1.1.09-2.19.14-3.37-.32.32-.18.71-.37,1.06-.02-.38-.03-.69-.05-1-.06.12-.08.24-.08.36.02.35.1.7.07,1.05-.05.92-.15,1.83-.22,2.75-.06.77-.12,1.53-.18,2.3-.06.75-.12,1.5-.16,2.26-.04.73-.03,1.47-.08,2.2-.02.28-.06.53.1.78.05.08.05.21.05.31-.03.47-.06.94-.12,1.4-.09.83-.2,1.67-.31,2.5-.06.49-.14.98-.2,1.48-.02.21,0,.42,0,.63,0,.17.01.35,0,.52,0,.06-.06.12-.07.14.05.07.08.12.12.17-.07.04-.14.09-.15.1.04.17.12.32.11.46-.01.42-.04.85-.08,1.27-.13,1.29-.28,2.58-.43,3.87-.01.09-.14.17-.22.25.05.21.1.43.15.65.01.06.05.15.02.19Z"/>
      <path class="cls-1" d="M46.27,68.02s0,0,0,0c0,0,0,0,0,0,0,0,0,0,0-.01,0,0,0,0,0,0Z"/>
      <path class="cls-1" d="M46.25,65.62c-.03-.09-.03-.19-.04-.29,0-.68,0-1.36-.03-2.04,0-.33-.08-.65-.07-.97.01-.43.1-.86.11-1.29.02-1.24.02-2.48.01-3.71,0-.25-.07-.51-.12-.81.12-.13.15-1.3.05-2.53-.08-.89-.12-1.77-.19-2.68-.03.05-.08.09-.08.14-.04.56-.11,1.11-.1,1.67.02.76.12,1.52.17,2.29.01.18-.06.37-.02.54.04.19.02.31-.14.38.04.06.11.11.11.16-.05.37-.12.74-.17,1.12-.02.1,0,.21,0,.32,0,.11.04.23.04.34-.02.28-.08.56-.08.84,0,.64.05,1.29.06,1.93,0,.33-.04.66-.04.98.02.98.05,1.97.09,2.95.02.51.02,1.04.15,1.53.09.35.14.67.13,1.02,0,.13,0,.27.01.4,0,.11.03.2.17.14.02-.22.04-.43.06-.65.05-.59.14-1.18-.07-1.76Z"/>
      <path class="cls-1" d="M43.99,7.45c.02.09.04.18.07.27-.12,0-.22-.02-.22-.05-.13-.59-.25-1.17-.38-1.79-.08.02-.15.02-.2.06-.32.25-.55.56-.5.99.05.41.18.8.47,1.11.09.1.27.16.41.17.23.01.48-.06.71-.04.21.02.26-.07.31-.24.07-.27.18-.54.22-.81.06-.35.07-.71.11-1.06-.03-.02-.07-.04-.1-.06-.18.11-.37.23-.6.37,0-.25-.02-.48,0-.71.03-.27.09-.54.13-.81-.03,0-.07-.01-.1-.02-.02,0-.04,0-.05.02-.33.6-.44,1.26-.41,1.93.01.22.09.45.14.67Z"/>
      <path class="cls-1" d="M85.8,75.17c.08.08.15.14.2.22.39.61.76,1.24,1.16,1.84.26.39.56.74.86,1.11.12.15.28.27.4.42.14.18.23.41.4.56.36.32.65.71,1.06.97.17.11.28.32.39.5.25.38.64.56,1.02.79v-.34c-.29-.25-.57-.49-.84-.75-.55-.53-1.09-1.06-1.62-1.61-.16-.16-.25-.38-.39-.56-.11-.14-.15-.4-.37-.32-.02-.09-.02-.19-.07-.24-.14-.17-.33-.31-.44-.49-.19-.31-.34-.65-.52-.97-.24-.43-.5-.85-.76-1.27-.05-.08-.12-.14-.18-.2-.06.06-.12.12-.17.19-.04.05-.08.11-.11.16Z"/>
      <path class="cls-1" d="M26.38,76.4c.03.08.09.15.09.22-.02.34-.06.69-.11,1.03-.03.21-.1.42-.39.34,0,0-.01.03-.02.05.29.12.33.17.32.49-.02.39-.06.78-.1,1.17-.04.39-.07.79-.13,1.18-.05.26-.05.29.19.31-.01-.08-.04-.16-.03-.24.1-.64.2-1.27.29-1.91.02-.15-.05-.31-.04-.46.07-.77.15-1.54.23-2.33-.14.07-.22.11-.3.15Z"/>
      <path class="cls-1" d="M9.57,35.5c.05-.18.08-.33.13-.51-.17-.1-.15-.24-.12-.42.03-.15-.06-.33-.1-.49,0,0-.07.01-.08.01-.04-.12-.08-.23-.12-.34-.03.01-.05.02-.08.03.02.3.04.61.05.91.01.3.04.6.32.81Z"/>
      <path class="cls-1" d="M51.11,11.64c.44-.21.87-.42,1.28-.68.28-.17.52-.41.78-.62-.5.25-.97.54-1.44.83-.03.02-.06.05-.09.06-.18.06-.37.12-.55.16-.17.04-.35.04-.57.07.22.24.35.29.58.18Z"/>
      <path class="cls-1" d="M12.57,49.81s-.06,0-.09-.01c-.04.24-.12.49-.12.73-.01.56.03,1.12-.13,1.67-.06.22,0,.45.19.66.05-1.05.1-2.05.15-3.04Z"/>
      <path class="cls-1" d="M57.38,80.66c-.05.03-.11.06-.2.11,0-.31.01-.59,0-.87,0-.08-.12-.18-.2-.21-.05-.02-.19.06-.2.11-.02.13-.05.32.02.41.21.24.29.51.29.81,0,.06.05.12.08.21.1-.21.18-.38.27-.54-.02-.01-.03-.02-.05-.03Z"/>
      <path class="cls-1" d="M11.14,64.29c-.08.13-.13.27-.18.41-.12.35-.08.79-.57.93.1.09.18.16.26.23.25-.15.6-1.2.49-1.57Z"/>
      <path class="cls-1" d="M9.45,68.38s.05.03.08.04c.38-.41.34-1.01.61-1.47.03-.05-.04-.17-.07-.26-.03,0-.06,0-.09-.01-.06.28-.11.56-.2.83-.09.29-.22.57-.33.86Z"/>
      <path class="cls-1" d="M25,82.41c-.02.08.06.19.12.35.07-.18.12-.27.14-.36.02-.11-.03-.28.03-.33.18-.16.21-.33.12-.54-.02-.04.01-.1.02-.15-.02,0-.04-.02-.06-.03-.03.06-.06.13-.09.19-.1.29-.21.58-.28.88Z"/>
      <path class="cls-1" d="M8.52,69.45s0,.15,0,.23c.06-.04.14-.07.19-.12.04-.03.05-.09.08-.13.12-.22.24-.44.37-.67,0-.02-.02-.04-.02-.06-.08.03-.17.06-.25.11-.24.14-.16.46-.36.64Z"/>
      <path class="cls-1" d="M41.85,66.07h0s0,0,0,0c0,0,0,0,0,0-.02-.07-.04-.15-.07-.22-.38.07-.42.19-.17.49-.06.01-.11.03-.18.04.06.05.09.08.15.14h-.2c.13.14.24.26.4.44-.02-.13-.04-.19-.03-.25.03-.21-.11-.45.1-.64,0,0,0,0,0,0,0,0,0,0,0,0h0Z"/>
      <path class="cls-1" d="M11.99,57.58s-.06,0-.1-.01c-.08.7-.16,1.41-.24,2.11.03,0,.07,0,.1,0,.08-.7.16-1.4.24-2.11Z"/>
      <path class="cls-1" d="M25.37,80.46c.05.03.12.07.13.08.08-.31.17-.62.25-.91h-.29c-.03.27-.07.55-.1.83Z"/>
      <path class="cls-1" d="M9.59,35.61c-.11-.05-.29-.14-.32-.1-.09.11-.14.26-.16.4-.02.15,0,.32.02.5.31-.17-.02-.72.47-.8Z"/>
      <path class="cls-1" d="M24.78,84.95s.05.01.07.02c.06-.29.13-.58.2-.91-.32.19-.37.36-.27.89Z"/>
      <path class="cls-1" d="M25.56,78.97c.09-.15.22-.3.25-.46.03-.17-.05-.35-.08-.53-.01,0-.03,0-.04,0-.06.33-.11.65-.17.98.01,0,.03,0,.04,0Z"/>
      <path class="cls-1" d="M12.06,54.22c.05.05.13.14.19.2.01-.14-.01-.3.05-.41.1-.17.1-.29-.13-.43-.04.22-.07.42-.11.64Z"/>
      <path class="cls-1" d="M11.56,61.21c.07-.44.14-.89.21-1.33-.03,0-.07,0-.1-.01-.07.45-.13.89-.2,1.34.03,0,.06,0,.09,0Z"/>
      <path class="cls-1" d="M71.77,94.62c.1.36.19.71.29,1.07.04-.01.09-.02.13-.04-.12-.35-.23-.7-.35-1.05-.02,0-.05.01-.07.02Z"/>
      <path class="cls-1" d="M25.22,82.97c-.01-.06-.05-.11-.07-.17-.04.05-.12.09-.12.14,0,.15.03.3.06.5.11-.09.17-.13.23-.18-.02-.01-.05-.03-.07-.04,0-.09-.01-.17-.03-.26Z"/>
      <path class="cls-1" d="M26.51,72.51s-.06-.01-.09-.02c-.04.17-.09.35-.13.52-.03,0-.07,0-.1,0,.07.13.14.26.21.39,0-.1,0-.21.01-.31.03-.19.07-.39.1-.58Z"/>
      <polygon class="cls-1" points="26.39 73.41 26.39 73.41 26.39 73.41 26.39 73.41"/>
      <path class="cls-1" d="M23.67,63.27c.15-.06.2-.37.11-.64q-.17.11-.11.64Z"/>
      <path class="cls-1" d="M10.01,66.62c.06-.05.16-.1.18-.16.04-.11.13-.26-.07-.33-.04-.01-.11,0-.13.04-.02.03,0,.09.02.13.02.04.06.08.1.12-.06.05-.11.08-.15.12.02.03.04.05.06.08Z"/>
      <path class="cls-1" d="M25.77,76.16c-.02.07.03.2.09.24.05.04.16,0,.25,0-.34-.17-.16-.42-.15-.69-.09.19-.17.31-.2.44Z"/>
      <path class="cls-1" d="M44.79,103.24s-.08-.1-.12-.15c-.02,0-.04.02-.05.03.04.1.09.21.14.35.13-.09.24-.18.36-.26-.02-.03-.04-.06-.06-.09-.09.04-.18.08-.27.12Z"/>
      <path class="cls-1" d="M25.67,77.71c.19,0,.38,0,.57.01,0-.04.02-.09,0-.12-.02-.03-.11-.04-.11-.03-.14.21-.27.02-.44,0,0,.06,0,.1-.01.14Z"/>
      <path class="cls-1" d="M26.58,72.33c.06-.24.12-.48.18-.75-.29.19-.27.46-.25.72.02.01.04.02.07.03Z"/>
      <path class="cls-1" d="M26.15,73.89c.12-.07.25-.14.37-.21-.05-.09-.09-.18-.13-.27-.1.14-.2.27-.31.41.02.02.05.05.07.07Z"/>
      <polygon class="cls-1" points="26.39 73.41 26.39 73.41 26.39 73.41 26.39 73.41"/>
      <polygon class="cls-1" points="26.53 73.68 26.53 73.68 26.53 73.68 26.53 73.68"/>
      <path class="cls-1" d="M26.58,75.78l-.16.3c.06.03.11.05.17.08l.13-.3s-.09-.05-.13-.07Z"/>
      <path class="cls-1" d="M25.36,81.19c.23-.27.19-.44-.02-.5,0,.17.01.33.02.5Z"/>
      <path class="cls-1" d="M12.22,55.67c.02-.13.05-.25.08-.45-.37.12-.17.29-.08.45Z"/>
      <path class="cls-1" d="M25.95,77c-.01-.19-.02-.3-.03-.41-.02,0-.05-.01-.07-.02-.05.08-.12.16-.14.24,0,.03.11.09.24.19Z"/>
      <path class="cls-1" d="M57.64,82.83c-.03-.08-.1-.14-.15-.21-.04.03-.07.06-.11.08.05.08.1.16.15.24.04-.04.12-.1.11-.12Z"/>
      <path class="cls-1" d="M59.32,83.59s.05,0,.08-.01c-.04-.17-.08-.33-.12-.5-.13.19-.1.36.04.51Z"/>
      <path class="cls-1" d="M47.46,34.46s-.02.07-.02.11c.14.03.29.06.43.09,0-.03.01-.06.02-.09-.14-.03-.25-.22-.43-.11Z"/>
      <path class="cls-1" d="M10.45,66.44c.05.12.09.23.14.35.04-.02.08-.04.13-.05-.05-.11-.11-.23-.16-.34l-.1.05Z"/>
      <path class="cls-1" d="M12.26,54.6s-.04,0-.06.01c-.02.16-.04.31-.06.47.01.01.03.02.04.03.04-.06.12-.11.12-.17,0-.11-.03-.23-.04-.34Z"/>
      <path class="cls-1" d="M11.48,61.51c-.05.19-.1.38-.15.57.25-.13.13-.37.15-.57Z"/>
      <path class="cls-1" d="M78.44,63.44q-.37-.15-.46.15c.16.04.33.08.55.13-.03-.1-.05-.19-.08-.29-.02-.43-.02-.86-.06-1.28-.03-.32-.06-.64-.17-.94-.11-.3.05-.58.03-.87-.02-.29-.06-.53-.25-.74-.02-.03-.01-.09-.02-.17.1.09.16.15.23.21.02-.02.03-.04.05-.06-.12-.11-.24-.22-.39-.35.01.19.02.33.03.47-.02,0-.05.01-.07.02-.05-.18-.09-.35-.15-.55-.05.05-.12.1-.12.11.08.18.02.32-.1.45-.02.02.04.15.07.15.15.02.31,0,.47,0,.01.04.04.08.04.12.05.46.11.92.15,1.38,0,.06-.09.13-.14.2l-.06-.04c-.02-.33-.04-.66-.06-1-.11.06-.19.1-.29.15.28.27.12.56.13.77.06.13.13.25.2.41.07-.12.1-.17.15-.27.06.24.11.42.15.6-.03,0-.05.02-.08.03-.08-.11-.17-.22-.25-.33-.01.01-.03.02-.04.03.02.09.05.18.08.27-.07.01-.12.02-.15.02.13.34.26.65.39.97.01,0,.02-.01.03-.02-.01-.23-.02-.46-.03-.7,0,0,.02,0,.03,0,.07.32.14.64.21.96Z"/>
      <path class="cls-1" d="M78.4,53.71c-.18.1-.35.2-.49.28.16.1.33.21.49.31v-.59Z"/>
      <path class="cls-1" d="M78.36,53.39c-.12-.11-.25-.21-.39-.33-.06.11-.09.17-.14.25.17.06.33.11.49.16.01-.03.03-.05.04-.08Z"/>
      <path class="cls-1" d="M77.9,60.32c-.03-.1-.05-.2-.1-.39-.1.09-.17.15-.23.2l.29.22s.03-.03.04-.04Z"/>
      <path class="cls-1" d="M21.08,63.58c.07-.17.13-.35.21-.56-.36.07-.41.25-.21.56Z"/>
      <path class="cls-1" d="M20.79,64.1v.55c.1-.07.17-.12.24-.17-.06-.13-.13-.26-.2-.4-.01,0-.03.01-.04.02Z"/>
      <path class="cls-1" d="M21.76,61.34s.04-.03.06-.04c-.09-.12-.17-.24-.27-.39-.22.34.11.31.22.43Z"/>
      <path class="cls-1" d="M15.29,86.55c.03.1.05.2.08.3.07-.06.14-.11.25-.21-.12-.03-.23-.06-.33-.09Z"/>
      <polygon class="cls-1" points="79.14 62.51 79.14 62.51 79.14 62.51 79.14 62.51"/>
      <path class="cls-1" d="M21.6,62.47c.06-.07.15-.17.21-.25-.21-.01-.42-.02-.64-.04.05.1.08.16.09.18.13.04.23.07.34.1Z"/>
      <path class="cls-1" d="M91.62,89.05c-.1-.47-.38-.81-.67-1.12-.52-.55-1.07-1.09-1.86-1.26-.08-.02-.16-.07-.24-.11-.74-.38-1.48-.76-2.22-1.15-.48-.25-.9-.57-1.33-.91-.39-.31-.7-.65-.97-1.04-.16-.23-.35-.44-.51-.67-.1-.14-.28-.34-.25-.45.1-.29-.09-.4-.24-.57.16-.17.07-.28-.06-.42-.11-.11-.18-.26-.27-.4.03-.03.05-.05.08-.08.08.06.19.09.23.17.12.24.18.27.34.14.28.22.52.51.83.62.52.2,1.09.29,1.64.41.28.06.56.08.84.1.12,0,.25-.02.37-.06.14-.05.18-.03.25.11.04.08.14.16.22.18.23.05.47.06.71.09,0,.01,0-.03,0-.03.31.04.6.08.89.13.2.03.4.09.6.11.1.01.24-.07.3-.02.32.21.63.02.95.02.16,0,.35-.06.23-.32-.02-.03.02-.1.04-.15.14-.27.04-.57-.26-.64-.25-.06-.52-.11-.78-.1-.62.02-1.23-.06-1.84-.19-.67-.15-1.35-.29-2.02-.43-.09-.02-.19-.05-.28-.08-.16-.06-.31-.14-.48-.18-1.21-.27-2.41-.55-3.29-1.53,0,0-.01-.01-.02-.02-.53-.3-.45-.91-.69-1.36.17-.3-.11-.42-.26-.6.27-.2.19-.42.08-.66-.03-.06-.05-.13-.06-.19-.02-.12-.03-.25-.04-.37,0-.08-.02-.17-.03-.25-.03-.3-.05-.61-.1-.91-.03-.19-.08-.38-.14-.56-.04-.13-.11-.26-.18-.4,0-.02.06-.13.05-.13-.16-.1-.32-.18-.51-.28.19.01.37.03.48.03-.07-.38-.15-.78-.21-1.19-.01-.09.02-.19.02-.29-.03-.33-.07-.65-.1-.98-.05-.55-.06-1.11-.14-1.65-.06-.42-.32-.83-.09-1.27.02-.03,0-.09-.01-.13-.07-.93-.15-1.87-.21-2.8-.04-.6-.04-1.2-.07-1.8-.02-.48-.09-.96-.09-1.44,0-.49-.02-.97-.11-1.45-.04-.23-.03-.47-.05-.76.09.07.13.1.23.17-.13-.29-.23-.51-.32-.73-.03-.06-.06-.14-.04-.19.14-.32.13-.67.1-1.02.02,0,.05,0,.07.01-.04-.07-.08-.13-.12-.2.07-.07.12-.14.19-.22-.08-.04-.14-.08-.23-.13.05-.15.11-.3.16-.44-.07-.05-.13-.09-.21-.15.1-.06.18-.11.31-.19-.18-.22-.34-.43-.52-.65.13.06.24.1.33.15v-.65c.13.02.26.03.45.05-.14-.1-.24-.18-.36-.26.05-.07.1-.13.14-.19-.24-.18-.42-.38-.41-.68,0-.15.04-.31.02-.45-.03-.18-.09-.36-.16-.61.11.07.15.11.19.12.09.03.18.05.28.08-.03-.09-.04-.18-.08-.25-.04-.07-.1-.13-.16-.19.07-.04.12-.08.23-.14-.17-.13-.32-.24-.46-.35.01-.02.02-.04.04-.05.11.04.23.08.36.13.02-.08.03-.13.05-.18-.05,0-.1,0-.15.01.09-.29.07-.29-.2-.3-.1,0-.19-.09-.28-.14.01-.02.02-.04.03-.07.09.02.18.03.28.05.02-.07.03-.13.04-.16.09.04.17.08.26.11.01,0,.07-.06.07-.09-.03-.2-.06-.4-.09-.57-.44-.09-.24.24-.33.38-.19-.34-.18-.35.14-.51.07-.04.17-.14.16-.18-.07-.19-.17-.37-.28-.59.03-.02.1-.09.17-.14-.08-.25-.16-.49-.25-.72-.27-.04-.33-.09-.34-.29.08.04.15.07.23.1.01-.01.02-.03.03-.04-.06-.09-.13-.17-.19-.25.36-.08-.1-.38.15-.51-.12-.02-.2-.03-.27-.04,0-.03,0-.07,0-.1.1-.01.27-.04.28-.03.1.34.17.68.25,1.01,0,0,.05-.03.13-.09.09.57.16,1.09.25,1.61.07.45.15.9.24,1.34.08.38.2.75.27,1.13.07.36.12.73.16,1.1.05.46.06.93.12,1.39.08.63.18,1.26.28,1.88.03.21.14.41.01.64-.04.07.01.2.04.3.03.11.11.21.12.31.09.63.16,1.25.25,1.88.08.52.16,1.04.27,1.54.13.57.3,1.12.44,1.68.04.16.05.33.09.49.08.28.21.55.27.83.21.92.4,1.85.61,2.78.05.24.1.52.26.68.25.27.37.59.45.92.12.46.18.94.29,1.4.13.53.29,1.05.45,1.57.05.18.13.36.19.54.07.21.1.43.2.63.13.25.31.48.48.74.01,0,.05,0,.1-.02.04,0,.08-.02.11-.03-.04-.1-.08-.18-.1-.26-.2-.97-.32-1.95-.7-2.88-.11-.26-.13-.55-.21-.82-.21-.68-.41-1.36-.65-2.03-.18-.51-.19-1.1-.6-1.53-.03-.03-.03-.08-.03-.13-.04-.32-.09-.63-.12-.95-.01-.13.03-.27.05-.4-.11-.31-.22-.64-.33-.97-.07-.2-.14-.4-.18-.61-.06-.34-.17-.69-.13-1.02.02-.21.02-.39-.03-.58-.08-.26-.17-.52-.21-.79-.1-.71-.18-1.42-.27-2.13-.13-1.11-.27-2.22-.4-3.33-.09-.78-.13-1.56-.24-2.33-.2-1.36-.43-2.71-.56-4.08-.1-1.04-.22-2.07-.34-3.1-.08-.7-.2-1.4-.28-2.1-.11-.95-.21-1.89-.31-2.84-.02-.19,0-.39-.02-.59-.03-.16,0-.26.15-.35.53-.34,1.04-.71,1.29-1.33.14-.35.32-.68.46-1.03.12-.28.27-.58.28-.87.02-.47-.04-.95-.11-1.43-.05-.37-.18-.72-.48-.97-.04-.03-.08-.08-.09-.13-.08-.53-.31-.97-.61-1.42-.34-.51-.76-.84-1.33-.99-.4-.1-.81-.14-1.22-.22-.8-.16-1.61-.32-2.41-.5-.7-.16-1.4-.37-2.11-.51-.48-.1-.97-.12-1.45-.19-.25-.04-.49-.1-.74-.15-.16-.03-.34,0-.49-.06-.27-.12-.55-.09-.82-.11-.41-.03-.81-.06-1.22-.11-.16-.02-.31-.14-.47-.15-.61-.05-1.22-.06-1.83-.11-.73-.06-1.45-.14-2.18-.21-.75-.07-1.51-.16-2.26-.23-.51-.05-1.03-.04-1.53-.11-.46-.07-.95.03-1.39-.23-.03-.02-.1-.03-.12-.02-.21.19-.39.03-.58-.04-.07-.03-.14-.08-.21-.08-.48-.02-.96-.05-1.45-.05-.22,0-.42.03-.59-.15-.04-.04-.15-.02-.22-.03-.05,0-.13.02-.16-.01-.17-.18-.3-.05-.45,0,0,.03,0,.06,0,.08.16.02.32.05.49.07-.23.22-.92.23-1.12.03.1-.04.21-.08.31-.12,0-.02-.02-.05-.03-.07-.2.04-.42,0-.52.26-.01.04-.16.05-.23.03-.15-.05-.28-.15-.43-.18-.27-.05-.55-.02-.8-.1-.28-.08-.36.06-.48.28.17.07.31.12.44.18.11.06.2.14.3.2.06.04.12.08.18.09.25.05.51.1.76.11.66.05,1.32.08,1.98.11.18,0,.36-.02.53,0,.32.04.63.13.95.17.28.03.56.01.84.04.52.04,1.04.06,1.55.15.42.07.83.17,1.26.07.11-.03.24.04.36.07.17.04.34.11.51.1.62-.03,1.25-.09,1.86.05.17.04.35.07.52.08.47.03.93.04,1.4.08.14.01.27.08.4.11.14.03.28.05.42.07.38.04.77.05,1.15.11.12.02.2.13.31-.03.02-.03.17-.02.22.02.26.24.53.27.75.13.27.06.47.12.67.13.36.03.72,0,1.07.07.33.05.64.19.96.28.16.05.32.2.5.01.04-.04.19-.04.25,0,.17.11.43-.04.55.2,0,.01.05.02.08,0,.15-.06.25-.04.42.02.32.12.69.09,1.04.15.1.02.19.1.29.15.14.07.28.18.43.22.15.04.32.04.48.02.56-.08,1.03.26,1.56.31.04,0,.08.07.12.09.37.23.73.49,1.13.69.48.25.57.59.2.98-.01.01-.03.02-.04.03-.21.13-.41.27-.62.39-.32.18-.63.37-.96.53-.4.19-.81.35-1.22.51-.29.11-.59.22-.89.29-.88.21-1.76.42-2.64.62-1.09.24-2.18.47-3.27.71-.46.1-.92.23-1.38.33-.45.1-.89.18-1.34.26-.77.13-1.55.25-2.33.37-.38.06-.76.08-1.13.15-.53.1-1.05.23-1.58.33-.26.05-.58-.02-.8.1-.33.18-.67.16-1,.18-.61.03-1.21.02-1.82.07-.6.05-1.2.14-1.79.23-.33.05-.65.11-.98-.01-.25-.09-.53-.28-.75.07-.01.02-.07,0-.1,0-.5-.05-1,.01-1.51-.04-.85-.09-1.71-.12-2.56-.15-.94-.04-1.89-.04-2.83-.07-1.22-.05-2.44-.07-3.67.07-.98.11-1.98.17-2.97.19-.88.01-1.75-.08-2.63-.12-.17,0-.38.07-.52.01-.38-.16-.77-.11-1.15-.13-.88-.03-1.75-.06-2.63-.1-.76-.04-1.51-.1-2.27-.15-.55-.04-1.11-.07-1.66-.12-.35-.03-.7-.1-1.05-.11-.52-.02-1.04,0-1.56-.02-.57-.03-1.14-.12-1.71-.13-.75-.01-1.49-.04-2.23-.2-.66-.14-1.33-.23-2.01-.26-.72-.03-1.43-.13-2.14-.23-.38-.06-.76-.19-1.14-.28-1.01-.22-2.01-.42-3.02-.63-.04,0-.09,0-.13-.02-.4-.14-.8-.26-1.19-.41-.26-.1-.5-.25-.76-.35-.13-.05-.3.02-.41-.04-.4-.22-.91-.29-1.12-.79-.01-.03-.08-.05-.12-.05-.53,0-.82-.39-1.17-.69-.06-.05-.1-.24-.05-.31.28-.49.52-1.04.91-1.42.25-.24.55-.45.85-.64.09.08.21.1.34.02,1.35-.91,2.87-1.41,4.45-1.72-.08.03-.16.07-.24.12.44-.02.87-.05,1.31-.07-.18-.1-.37-.14-.54-.14.59-.1,1.19-.17,1.78-.23.13-.01.25-.02.38-.03-.14.15-.04.25.11.3.12.04.25.03.37.05.32.05.64.16.95.14.78-.06,1.56-.2,2.34-.29.59-.06,1.12-.3,1.66-.53.04-.02.07-.07.15-.17-.22.03-.36.04-.5.07-.78.15-1.56.3-2.35.45-.09.02-.22.04-.28,0-.24-.18-.5-.11-.74-.05-.36.09-.7.06-1.05,0-.02,0-.05,0-.07,0,2.23-.2,4.45-.37,6.67-.73,5.16-.83,10.48-.52,15.69-.52.11,0,.18-.04.24-.11.46.51.6,1.1.65,1.75.03.35.13.69.23,1.03.08.28.19.56.3.85-.1.04-.15.07-.21.08-.29.04-.59.07-.88.13-.22.04-.44.16-.66.19-.5.05-.79.44-1.17.7.21.03.41.03.6-.02.2-.05.37-.2.66-.06-.13.02-.2.03-.25.03.13.28.33.25.57.17.37-.12.65.05.8.45.01.03.04.07.07.08.35.11.7.26,1.07.13.26-.09.51-.2.77-.25.37-.07.75-.09,1.13-.16.1-.02.18-.11.28-.17-.09-.09-.17-.23-.27-.25-.26-.05-.53-.04-.79-.06-.18-.01-.37-.03-.55-.06-.05,0-.09-.09-.14-.13.05-.04.1-.09.15-.13.07-.05.15-.09.22-.14.07-.04.14-.11.22-.12.4-.05.81-.1,1.21-.13.1,0,.2.03.3.04,0,.03,0,.05,0,.08-.12.02-.24.04-.41.07.41.21.36.84.93.82.02,0,.03.05.05.06.21.1.29.43.56.38.32-.06.62-.08.95-.04.27.03.56-.09.81-.03.26.07.47,0,.71-.01.08,0,.17.03.29.06-.09.08-.14.16-.22.19-.43.16-.85.34-1.29.44-.42.09-.86.09-1.29.13-.4.04-.79.08-1.19.12-.37.03-.75.03-1.11.1-.73.12-1.45.11-2.16-.08-.66-.18-1.32-.35-1.97-.54-.41-.12-.88-.07-1.21-.42,0,0-.14.07-.14.09.05.16.1.34.2.47.05.08.2.09.31.13,0,0,.02,0,.02,0,.06.16.07.33.15.36.3.15.61.34.92.36.47.03.88.16,1.29.34.1.04.22.04.33.05.21.03.43.05.64.09.14.02.27.09.41.1.93.08,1.85.11,2.78-.12.53-.13,1.09-.11,1.62-.22.54-.1,1.08-.23,1.59-.42.37-.13.7-.37,1.03-.59.31-.21.28-.57.17-.89-.13-.37-.45-.51-.82-.52-.15,0-.3,0-.45,0-.25,0-.49.06-.64-.26-.09-.2-.93-.23-1.19-.11-.04.02-.11,0-.17-.02-.25-.05-.5-.17-.75-.02-.02.01-.07,0-.15,0,.06-.06.1-.09.11-.1-.04-.07-.1-.14-.1-.2.03-.57.01-1.15.11-1.71.11-.61.43-1.16.8-1.67.21-.29.38-.6.58-.91-.22-.09-.05-.28-.05-.44,0-.64.25-1.2.58-1.74.1-.17.15-.38.17-.58.06-.47.07-.95.14-1.42.04-.26-.07-.35-.28-.36-.2-.01-.42.07-.59,0-.54-.23-1.03.27-1.56.05-.02,0-.05.03-.07.03-.27,0-.54.03-.8.02-.13,0-.16-.11-.15-.25.02-.26-.01-.53-.03-.8h0s0,0,0,0c0,0,0,0,0,0,0-.39-.1-.8,0-1.16.16-.56.45-1.07.69-1.61,0-.02.02-.03.03-.04.2-.18.41-.36.61-.55.18-.18.34-.37.51-.55.06-.06.11-.14.18-.19.54-.35,1.08-.7,1.63-1.04.85-.52,1.72-.99,2.54-1.53.74-.48,1.43-1.04,2.15-1.56.4-.29.8-.57,1.19-.87.24-.18.43-.44.69-.57.76-.36,1.58-.61,2.42-.73.15-.02.48-.34.49-.48,0-.09.02-.19.06-.26.23-.38.19-.47-.24-.53-.03,0-.06-.03-.11-.06.22-.17.22-.35.1-.56-.02-.04,0-.13.04-.18.12-.2.06-.34-.17-.38-.29-.05-.56-.02-.81.15-.15.1-.33.14-.49.21.11-.31.24-.54.54-.69.28-.14.49-.42.72-.65.17-.17.22-.38.11-.6-.12-.24-.23-.51-.58-.48-.35.02-.7.04-1.06.04-.06,0-.17-.07-.17-.11-.01-.18,0-.37.01-.55.03-.38-.21-.61-.6-.54-.19.03-.38.09-.6.15.03-.08.04-.14.06-.19.13-.31.28-.6.21-.96-.06-.29-.17-.4-.47-.45-.45-.07-.84.03-1.17.29.25.03.54.04.81.1.28.06.35.24.22.5-.13.25-.29.49-.39.75-.27.69-.5,1.39-.76,2.08-.14.36-.32.71-.5,1.09-.18-.2-.32-.35-.44-.49.03-.08.06-.16.11-.27q-.43.11-.54-.02c.11-.07.26-.11.33-.21.16-.22.3-.46.42-.7.25-.49-.08-1.06-.62-1.1-.32-.02-.63-.07-.95-.09-.16-.01-.34-.04-.43.17-.02.05-.12.08-.19.11-.11.05-.22.1-.34.13-.19.06-.39.11-.59.17-.02-.04-.05-.07-.07-.11.07-.05.15-.08.22-.14.18-.14.35-.3.54-.43.31-.22.61-.45.94-.61.46-.22.92-.38,1.24-.84.4-.58.91-1.09,1.35-1.61.06.02.1.04.21.08-.12-.51-.27-.94-.51-1.31-.19.03-.35.06-.52.08.01.05.03.1.05.18-.07-.02-.11-.03-.15-.04-.27-.02-.54-.18-.8.08-.08.08-.24.07-.37-.06-.24-.26-.5-.52-.79-.72-.22-.15-.49-.23-.75-.28-.54-.11-1.21.3-1.34.82-.08.35-.09.72-.13,1.08-.02.15.06.21.21.19.19-.03.38-.06.53-.08.24.6-.11,1.12-.18,1.62-.16.03-.37,0-.43.09-.09.12-.07.32-.09.49,0,.03.06.08.06.1-.05.14-.13.26-.17.4-.06.23-.24.46,0,.71.04.04.02.16.02.25-.01.2-.04.39-.05.57.2-.02.35-.05.5-.06.56-.04,1.13-.02,1.67-.14.62-.14,1.23-.17,1.93-.17-.4.52-.77,1-1.15,1.5.16.12.31.23.54.41-.27.17-.48.31-.7.43-.18.1-.27.21-.21.45.09.35.11.72-.21.98-.17.14-.4.21-.42.48,0,.01-.04.02-.07.04-.66.38-1.33.75-1.98,1.13-.68.4-1.28.88-1.79,1.48-.03.04-.09.06-.16.1.08-.2.12-.36.2-.51.24-.44.35-.9.16-1.39-.02-.07-.02-.16,0-.23.09-.33.19-.66.02-1-.03-.07-.02-.18.01-.26.25-.56.5-1.13.79-1.67.08-.16.3-.26.48-.34.3-.13.62-.21.97-.33-.12-.09-.2-.17-.3-.21-.33-.13-.88-.07-1.12.34-.29.49-.5,1.01-.75,1.52-.03.07-.08.16-.14.18-.2.06-.24.21-.25.38-.02.24-.08.44-.28.6-.15.12-.13.29-.05.46.12.25.21.5-.06.72-.04.04-.07.1-.09.16-.13.32-.25.64-.38.97-.13.35-.26.69-.4,1.04-.05.13-.12.26-.18.39-.1-.29-.13-.56-.17-.83-.15-.97-.08-1.96-.06-2.93.01-.76.24-1.54.49-2.27.26-.79.66-1.54.98-2.31.31-.74.46-1.52.51-2.32,0-.15-.07-.31-.11-.47-.05,0-.09,0-.14,0-.07.28-.16.56-.22.84-.07.33-.13.62-.45.86-.32.23-.55.6-.8.93-.16.21-.29.45-.44.68.06-.41.17-.81.29-1.2.17-.55.36-1.09.54-1.63.2-.61.41-1.19.85-1.68.24-.27.44-.6.33-.94.15-.13.3-.21.37-.34.18-.33.36-.67.49-1.03.11-.31.17-.65.04-.99-.07-.17-.14-.27-.36-.24-.43.06-.44.04-.45-.39,0,0-.01-.01-.03-.03-.03.05-.07.09-.14.19.02-.16.03-.25.04-.34-.35.02-.39.09-.36.66-.05-.36-.34-.23-.5-.22-.34.02-.66.13-.7.56-.39-.26-.77-.39-1.22-.2-.39.17-.49.59-.22.91.11.13.19.3.24.46.12.41.32.77.61,1.07.1.1.28.16.42.16.08,0,.22-.15.23-.25.03-.23.02-.47,0-.7,0-.19-.04-.38-.05-.52.15-.1.24-.17.34-.24.05.06.11.12.14.16.17-.18.31-.35.47-.51.19-.19.32-.17.43.06.08.16.15.34.16.51,0,.37-.03.75-.05,1.14-.09-.06-.17-.11-.28-.18-.06.1-.13.19-.16.28-.12.34-.21.69-.35,1.02-.2.47-.4.94-.64,1.38-.19.36-.44.68-.67,1.02-.02.03-.05.05-.08.07-.1.11-.23.2-.29.32-.43.87-.55,1.82-.57,2.78-.01.63.09,1.27.11,1.91.01.37-.06.74-.02,1.1.05.51.18,1.01.26,1.51.07.43.12.87.18,1.31.02.12.06.23.08.34-.03.01-.06.03-.08.04-.1-.09-.21-.17-.29-.28-.21-.3-.41-.61-.61-.91-.1-.15-.2-.31-.26-.48-.04-.1.04-.25,0-.35-.13-.34-.31-.65-.44-.99-.27-.74-.51-1.48-.77-2.22-.03-.08-.13-.18-.2-.18-.53,0-1.02-.16-1.48-.39-.63-.33-1.25-.53-1.97-.38-.15.03-.36-.02-.47-.11-.35-.29-.69-.6-1-.94-.26-.29-.52-.54-.93-.56-.17,0-.34-.04-.52-.07.03.14.05.28.07.41-.34-.28-.67-.55-1.02-.83h.93c-.09-.08-.18-.16-.31-.28.06-.02.12-.05.15-.06-.18-.23-.34-.42-.49-.62-.03-.05-.01-.13-.02-.19.06,0,.13,0,.18.02.08.04.15.12.23.18.19.13.35.35.68.24-.1-.13-.19-.23-.31-.39.13.02.19.03.24.04.42.12.57.5.77.83.09.15.2.3.26.4.02.15.01.27.05.37.06.13.12.28.23.37.14.12.3.21.47.27.14.05.27-.11.25-.25-.01-.09,0-.18,0-.26.02-.02.05-.03.07-.05-.31-.23-.61-.46-.91-.7-.05-.04-.08-.11-.1-.17-.09-.32-.14-.64-.26-.95-.22-.58-.65-.95-1.24-1.14-.19-.06-.29,0-.36.16-.07.16-.13.33-.18.5-.05.17-.14.17-.23.04-.13-.21-.35-.21-.53-.16-.06.02-.09.28-.08.42.02.14.09.3.19.39.16.15.36.24.53.35-.26-.02-.55-.04-.83-.05-.27,0-.47.16-.5.37-.05.29.04.45.33.57-.19.31.2.35.28.6-.22.03-.41.06-.61.07-.46.01-.84.3-.97.77.14.05.28.09.42.14,0,.03-.02.06-.02.09-.18-.03-.36-.06-.54-.09-.21.37-.2.58.08.65.47.12.9.39,1.42.37.17,0,.34.17.51.26.05.03.09.1.14.11.39.13.78.25,1.17.36.16.05.24-.05.21-.21-.06-.27-.13-.53-.2-.79-.05-.18-.12-.35-.16-.53-.01-.07.01-.18.06-.21.05-.03.17-.02.21.02.1.11.21.24.25.38.09.3.13.62.2.93.06.24.23.32.46.26,0-.49,0-.98,0-1.46,0-.22.12-.24.28-.14.26.17.54.31.75.52.17.18.51.34.3.71-.01.02.11.14.19.19.09.06.23.06.31.13.36.32.78.51,1.24.63.21.05.49.05.57.35.01.04.11.05.16.08.45.19.93.35,1.35.6.32.19.49.53.55.92.05.32.13.62.41.85.28.23.53.5.75.79.32.42.57.89.89,1.3.16.2.19.35.11.57-.29.79-.57,1.59-.87,2.39-.05.14-.15.27-.22.4h-.09c-.14-.34-.29-.68-.42-1.02-.36-.93-.86-1.77-1.43-2.58-.12-.17-.25-.34-.36-.52-.15-.25-.26-.53-.44-.75-.59-.74-1.45-1.14-2.18-1.72-.15-.12-.4-.12-.6-.18-.04-.01-.07-.05-.11-.07-.4-.17-.79-.35-1.2-.5-.41-.15-.79,0-1.04.42.44,0,.79.41,1.25.09.04-.03.12-.06.15-.04.27.16.67.12.78.53.02.08.14.16.23.2.18.08.32.15.42.35.06.13.37.12.49.24.55.53,1.07,1.08,1.6,1.63.02.02.04.06.06.09.25.42.51.85.75,1.27.06.1.12.2.13.31.02.23.09.4.34.47.08.02.17.12.2.2.17.41.33.82.49,1.23-.02.01-.04.03-.05.04-.22-.17-.44-.34-.67-.49-.18-.12-.38-.22-.58-.3-.41-.15-.78-.33-1.06-.68-.1-.12-.21-.24-.32-.35-.69-.7-1.49-1.27-2.3-1.84-.22-.15-.39-.4-.62-.52-.69-.35-1.39-.65-2.09-.97-.2-.09-.39-.17-.52-.37-.29-.44-.67-.77-1.22-.87-.38-.07-.76-.19-1.14-.28-.58-.14-1.16-.25-1.69.15.01,0,.03.03.06.02.88-.04,1.73.15,2.55.45.3.11.56.32.82.51.23.17.42.41.66.56.39.24.83.4,1.21.66.65.43,1.27.9,1.89,1.37.25.18.46.41.71.59.16.12.36.2.58.32-.03.03-.1.08-.16.13.12.08.25.17.42.29-.19.09-.37.12-.44.23-.06.08.03.26.05.39.04.02.08.04.13.06-.06,0-.13.01-.15.02.44.19.86.36,1.28.55.41.19.81.39,1.22.58-.01.02-.02.04-.03.07-.15-.06-.29-.12-.44-.18.2.17.44.27.66.4.14.09.27.21.36.34.05.07,0,.21,0,.32.11-.1.04-.34.32-.21-.06-.12-.1-.21-.15-.3.02-.01.04-.03.06-.04.17.17.33.34.5.52-.01.02-.02.04-.04.06h-.51c.09.07.15.13.27.23-.43-.06-.78-.12-1.14-.16-.73-.08-1.32-.48-1.94-.81-.77-.41-1.54-.84-2.3-1.28-.28-.16-.52-.4-.79-.59-.16-.11-.36-.17-.51-.29-.41-.32-.8-.66-1.21-.97-.14-.11-.33-.16-.48-.26-.44-.28-.94-.51-1.29-.88-.78-.83-1.73-1.36-2.8-1.67-.24-.07-.5-.06-.76-.07-.23,0-.46.02-.69.04-.08,0-.17,0-.23.03-.39.22-.81.42-1.16.69-.61.48-.54.93-.11,1.41.25.28.58.49.89.7.13.09.3.11.46.13.38.05.79-.08,1.15.14.07.04.16.07.25.09.62.12,1.24.21,1.85.35.48.11.94.28,1.42.4.45.11.83.43,1.33.4.14,0,.3.06.44.12.08.03.13.11.2.17-.02.02-.03.03-.05.05-.08-.04-.16-.08-.24-.11-.01.03-.02.05-.04.08.13.05.26.1.37.16.08.04.2.16.19.17-.1.17.03.23.13.26.19.05.4.07.59.1,0,0-.03.04-.09.11.87.45,1.72.89,2.64,1.36-.07-.11-.1-.16-.13-.21.02-.02.03-.03.05-.05.05.05.15.1.15.16,0,.23.2.27.34.35.15.08.31.13.47.19.22.08.44.2.67.24.34.06.62.2.9.38.14.09.34.09.51.12.11.02.24-.01.34.03.22.1.42.25.65.35.16.07.33.1.49.14.02-.09.03-.15.04-.22.12.24.19.47.25.71,0,.04,0,.11-.02.12-.31.15-.17.38-.12.59.09.32.34.51.66.69-.22.07-.4.18-.57.18-.8-.03-1.58.05-2.34.28-.31.09-.62.26-.89.45-.21.14-.16.29.07.37.04.01.08.03.15.05-.22.18-.14.35-.03.52.07.13.14.26.2.39.22.48.42.98.67,1.44.14.25.29.5.46.73-2.04,0-4.08,0-6.11,0-2.06,0-4.14-.06-6.19.1-2.08.16-4.13.62-6.2.86-2.03.23-4.07.26-6.09.54-1.99.28-3.95.83-5.63,1.96-.01-.01-.03-.02-.04-.03-.25.17-.5.34-.75.51-.08-.25-.26-.14-.37-.07-.31.23-.59.5-.89.74-.25.2-.17.49-.23.74,0,.03.06.08.08.1-.35.19-.24.64-.53.86.1.05.17.08.26.12-.1.01-.17.02-.31.04.51.37.97.71,1.45,1.07-.22.21-.06.3.05.4.48.45,1.08.69,1.67.96.92.41,1.86.73,2.85.89.93.16,1.87.28,2.81.42.56.09,1.11.23,1.67.26.5.03,1,0,1.51.11.79.18,1.6.26,2.41.39.42.06.83.14,1.25.19.31.03.63,0,.94.02.6.04,1.19.09,1.79.16.48.06,1-.06,1.44.26.03.02.11-.01.16-.03.11-.03.22-.11.33-.11.4.01.8.08,1.19.07,1.04-.02,2.07.18,3.12.03.4-.06.82.03,1.23.02.42-.01.84.14,1.26-.05.09-.04.27-.02.33.04.18.21.4.16.61.15.29-.02.57-.05.86,0,.41.06.82.1,1.23.15.32.05.64.14.96.16.34.03.69-.02,1.03,0,.4.02.79.12,1.18.09.51-.04,1.02.13,1.52-.07.08-.03.19,0,.29,0,.08,0,.16,0,.24-.01.5-.07,1-.16,1.5-.22.18-.02.37.02.55.01.71-.02,1.42-.08,2.13-.07.42,0,.83.12,1.24.15,1.13.1,2.26.23,3.4.14.39-.03.78-.04,1.17-.06.71-.04,1.42-.14,2.12-.1.68.04,1.32-.12,1.97-.21.57-.07,1.13-.19,1.7-.27.61-.09,1.23-.17,1.84-.27,1.1-.18,2.19-.41,3.29-.57.76-.11,1.53-.16,2.3-.15.6,0,1.21.11,1.81,0,.34-.06.69-.05,1.03-.11.57-.11,1.14-.23,1.71-.37,1.43-.37,2.87-.75,4.3-1.15.32-.09.64-.2.94-.36.56-.3,1.11-.62,1.65-.96.23-.14.44-.32.63-.51.18-.18.31-.4.52-.68.18.62.36,1.16.48,1.71.08.38,0,.79-.3,1.06-.51.45-1.06.85-1.6,1.27-.17.14-.34.28-.52.4-.5.36-.98.75-1.52,1.03-.2.11-.42.16-.57.34-.02.03-.11,0-.15,0,0,.09.02.17.03.27-.48-.15-.74.16-1.03.39.05.03.11.07.09.06-.2.07-.44.13-.66.22-.25.09-.49.19-.74.29-.31.13-.62.25-.93.38-.5.21-.98.46-1.49.64-.76.27-1.54.48-2.32.72-.94.3-1.89.55-2.87.49-.45-.02-.88.03-1.31.12-.15.03-.3.1-.43.18-.15.08-.23.27-.47.2-.14-.04-.3,0-.45.03-.47.08-.94.17-1.41.26,0,0-.02,0-.03,0-.73.16-1.46.37-2.2.47-.76.1-1.53.09-2.3.12-.17,0-.34.03-.55.04.08-.07.11-.09.14-.12-.3.04-.63.05-.84.22-.29.23-.57.22-.88.19-.07,0-.15.02-.22.03-.5.06-1.01.12-1.51.17-.13.01-.27-.02-.39,0-.81.11-1.62.16-2.43.09-.15-.01-.3,0-.45.02-.22.03-.44.1-.67.12-.36.04-.72.06-1.08.09-.65.06-1.31.17-1.96.19-1,.03-2.01.06-3.01-.08-.4-.06-.81-.08-1.22-.07-.98,0-1.95.02-2.93.04-.55.01-1.09.06-1.64.07-.28,0-.56-.03-.84-.04-.11,0-.23-.02-.34-.01-.11.01-.22.08-.33.08-.46,0-.92-.03-1.38-.05-.07,0-.14,0-.21,0-.48.02-.97.06-1.45.05-.45,0-.9-.07-1.34-.1-.15-.01-.3,0-.45,0-.34-.02-.69-.04-1.03-.05-.8-.02-1.6.02-2.39-.07-1.19-.13-2.36-.36-3.56-.36-.43,0-.87.05-1.29,0-.58-.07-1.15-.21-1.72-.33-.96-.21-1.91-.42-2.87-.64-.14-.03-.28-.09-.42-.14-.33-.11-.66-.23-1-.32-.23-.06-.47-.04-.7-.11-.66-.2-1.31-.44-1.96-.66-.27-.09-.57-.14-.82-.27-.31-.16-.59-.37-.88-.57-.27-.18-.52-.38-.79-.56-.26-.17-.53-.31-.78-.49-.35-.25-.58-.56-.55-1.03.02-.37-.13-.65-.5-.81.05-.07.1-.13.17-.23-.13,0-.21.01-.31.02.11.35-.1.74.33,1-.42.03-.55-.24-.69-.47-.2-.32-.36-.67-.54-1-.37-.64-.66-1.31-.66-2.07,0-.2,0-.41,0-.61h-.08c-.11.41,0,.85-.06,1.29-.06-.16-.13-.32-.21-.52.02-.08.07-.21.12-.37h-.26c-.09-.09-.14-.16-.2-.22-.03.04-.09.1-.08.13.07.37.06.79.5,1-.1.04-.18.08-.34.15.45.23.38.73.64,1,0,.18-.05.37.01.52.07.19.23.35.36.54.01,0,.06-.03.06-.03.11.21.2.4.31.58.11.19.31.34.36.54.06.23.18.35.37.41.01.1,0,.2.04.27.18.43.19.88.1,1.33-.06.3-.16.6-.22.9-.06.29-.09.59-.13.89,0,.07,0,.14.02.2.04.15.13.29.14.43.02.4.02.8.02,1.19,0,.17-.03.3-.23.36-.12.04-.21.18-.29.29-.08.1-.14.21-.21.32-.12.18-.33.32-.26.58.07.24.03.47-.11.65s-.12.33-.04.48c-.07.17-.14.33-.21.49.08,0,.13.01.27.03-.16.1-.25.15-.32.2.02.12.04.22.06.32-.08,0-.14.01-.24.02.07.08.12.14.17.2-.09.04-.15.08-.3.15.13.07.21.11.28.15.03-.07.06-.14.08-.22.02-.08.02-.16.06-.23.08-.18.17-.36.26-.54.04-.08.09-.16.16-.21.05-.04.14-.05.19-.03.03.01.05.11.05.17-.1.7-.01,1.39.06,2.09.07.68.17,1.37.24,2.05.06.55.11,1.09.15,1.64.06.81.13,1.62.18,2.44.02.37-.04.74.13,1.09.04.09.02.21.01.31-.08.91-.15,1.82-.24,2.72-.04.46-.1.91-.16,1.37-.05.34-.12.67-.19,1.04.09-.02.15-.02.18-.05.2-.16.18-.4.23-.61.08-.38.09-.77.22-1.14.18-.53.17-1.07.17-1.6,0-.74.02-1.46.31-2.16.05-.12.12-.24.12-.35-.02-.34-.13-.67-.12-1,.06-1.66-.06-3.31-.17-4.97-.07-1.06-.13-2.12-.18-3.18,0-.11.05-.22.08-.37-.02-.06-.06-.15-.09-.25-.15-.52-.17-1.05-.13-1.6.08-1.15.08-2.3.1-3.45,0-.51.2-.95.39-1.39.14.1.25.22.39.27.25.1.42.27.58.48.17.21.41.36.56.58.11.17.16.39.17.6.01.2-.05.4-.08.6.02,0,.05,0,.07,0-.07.08-.13.17-.16.2.11.18.21.34.31.5.05-.03.1-.05.15-.08v-1.41c.7.56,1.43.86,2.16,1.14.44.16.9.25,1.35.37.23.06.46.12.7.16.79.14,1.6.07,2.38.3.53.16,1.1.14,1.65.23.27.05.53.19.8.25.4.09.81.15,1.22.21.16.02.22.1.2.25-.07.41-.11.83-.22,1.23-.16.59-.52,1.15-.27,1.8.02.04-.02.1-.03.15-.05.47-.1.93-.15,1.4-.04-.05-.09-.1-.15-.17-.02.05-.04.08-.04.11.02.23.1.46-.15.64-.04.03-.02.16-.02.25,0,.1.05.21.02.3-.05.19-.14.38-.21.57,0,.02-.01.06,0,.07.18.13.02.17-.06.24-.11.09-.18.19-.1.36.03.07-.08.21-.14.31-.02.03-.09.03-.14.04.05.04.1.07.19.14-.08.14-.17.3-.27.47.13.23.06.43-.16.54-.02.18,0,.34-.06.48-.05.12-.18.21-.28.32,0,.01.02.02.03.03.07-.02.13-.05.22-.08-.05.18-.08.33-.13.52-.08-.11-.14-.18-.22-.3-.01.1-.03.16-.02.18.28.38.12.73-.05,1.09-.02.05.03.13.04.17-.05.11-.13.2-.16.31-.23.79-.44,1.59-.68,2.38-.18.61-.41,1.21-.58,1.82-.33,1.18-.64,2.37-.96,3.56-.03.13-.05.26-.08.39-.06.31-.09.62-.18.91-.3.93-.63,1.86-.95,2.78-.29.84-.59,1.69-.89,2.53-.21.6-.43,1.19-.67,1.78-.04.1-.16.16-.24.23.02.04.1.11.09.18-.01.17-.06.35-.11.52-.23.7-.46,1.39-.69,2.09-.04.12-.05.26-.11.38-.27.55-.56,1.08-.82,1.63-.3.62-.58,1.25-.86,1.86.12.1.19.17.27.24-.25.24-.78.07-.78.59-.26,0-.32.06-.31.33-.32.18-.58.41-.77.71-.47.76-1.18,1.28-1.83,1.87-.41.37-.95.57-1.28,1.05-.03.04-.1.06-.16.08-.56.24-1.08.55-1.51.99-.15.15-.3.3-.45.45-.02-.02-.04-.03-.06-.05.08-.18.17-.36.23-.55.14-.47.42-.85.74-1.21.36-.41.81-.75,1-1.29.02-.06.11-.09.15-.14.26-.3.54-.58.78-.9.4-.55.77-1.12,1.15-1.68.13-.19.42-.31.28-.62-.01-.03.04-.09.07-.14.2-.27.41-.53.62-.8.08-.1.18-.19.25-.3.06-.09.11-.2.16-.3.1-.23.15-.5.31-.69.76-.93,1.05-2.08,1.5-3.15.18-.42.26-.86.29-1.32.05-.68.18-1.35.28-2.02.02-.15.02-.3.04-.44.04-.23.11-.46.14-.7,0-.08-.07-.17-.11-.27.33-.32.29-.39.01-.7.16-.11.31-.24.09-.43-.02-.02-.01-.08-.01-.12.03-.46.09-.93.1-1.39,0-.57-.04-1.13-.05-1.7-.02-1.22,0-2.45-.04-3.67-.05-1.22-.18-2.44-.23-3.66-.03-.6.02-1.2.05-1.8,0-.05.07-.1.13-.19-.18-.44.19-1-.23-1.47.14.02.26.04.37.06-.01-.16-.03-.3-.03-.44.01-.57.02-1.13.08-1.7.13-1.07.16-2.16.16-3.24,0-1.41.16-2.83-.05-4.24-.06-.41-.17-.81-.26-1.25-.11.09-.17.14-.23.19.02.08.04.16.07.29-.13-.08-.2-.12-.36-.21.04.46.07.84.1,1.22.02.19.17.41-.03.51,0,.18.01.32,0,.45-.02.14-.13.31-.08.4.14.22,0,.42.02.62.01.32-.01.63,0,.95,0,.33.13.69.02.97-.14.4.18.81-.11,1.17,0,0,0,.02,0,.04.04.02.08.04.1.05-.02.09-.04.17-.05.25-.05.47,0,.94-.13,1.41-.09.31-.02.66-.05.99-.03.41-.11.83-.11,1.24,0,1.59.03,3.17.04,4.76,0,.58,0,1.17.02,1.75.03.49.12.98.15,1.48.05.86.06,1.73.11,2.6.05.94.08,1.88-.12,2.81-.04.17-.04.35-.05.53-.02.33-.03.67-.04,1-.01.26-.03.52-.05.78-.02.2-.03.39-.05.59-.02.09-.03.18-.04.27,0,.05-.02.09-.03.13.05,0,.09-.01.14-.02-.02.27-.03.53-.07.78-.07.47-.16.93-.24,1.4-.07.38-.14.76-.2,1.14-.03.21-.18.36-.24.57-.14.52-.4,1.01-.58,1.52-.13.37-.52.58-.59.99-.01.07-.12.13-.12.19,0,.2-.12.31-.35.29-.04,0-.08.04-.12.06.01,0,.03.01.03.02-.15.24-.3.47-.43.7-.01.02.05.08.08.12-.02,0-.04-.02-.07-.03-.1.21-.18.43-.31.63-.43.68-.87,1.35-1.3,2.03-.25.4-.75.64-.81,1.17,0,.03-.04.06-.06.08-.37.4-.77.79-1.12,1.21-.35.42-.63.89-.98,1.31-.23.28-.39.56-.46.91-.03.15-.08.3-.1.45,0,.06.02.13.03.2.06-.01.13-.02.19-.05.04-.02.07-.06.11-.09.04.08.08.15.12.23.06-.1.11-.17.2-.31-.04.33-.08.59-.12.87.06-.1.11-.17.16-.25.15.18.11.39-.11.53-.01-.05-.02-.1-.03-.15-.02,0-.04,0-.06-.01-.12.24-.24.48-.35.71.61.3,1.14.27,1.68-.11.03,0,.12.04.21.07,0-.02.01-.04.02-.05-.03-.04-.06-.07-.06-.08.09-.14.17-.25.25-.37.03-.04.07-.07.1-.1.03.04.07.07.09.11.08.12.12.3.31.24.41-.13.82-.26,1.22-.42.2-.08.35-.27.55-.32.32-.08.38-.32.49-.56.05-.11.12-.21.16-.26.13.1.21.2.31.24.05.02.15-.05.22-.09.15-.06.34-.09.42-.2.1-.14.19-.13.27-.04.16.17.34.1.51.05.17-.05.33-.11.5-.16.09-.03.17-.06.26-.08.08-.02.16-.03.24-.04-.03.07-.05.14-.09.23.05,0,.12.03.18.01.4-.11.81-.21,1.21-.33,1-.29,1.91-.77,2.81-1.29.44-.25.8-.56,1.12-.96.2-.25.48-.43.72-.65.38-.34.75-.69,1.12-1.04-.11-.09-.18-.14-.24-.2,0,0,.03-.08.04-.08.08.02.17.06.21.07.1-.46.21-.94.31-1.4.11-.04.2-.07.29-.1,0-.02-.01-.04-.02-.06-.07,0-.15.01-.22.02-.11-.3.14-.36.29-.47,0-.15.02-.38.06-.39.22-.02.16-.22.24-.32.04-.04-.04-.23-.01-.24.3-.16.04-.31,0-.42.07-.08.14-.13.17-.2.22-.5.27-1.03.3-1.56.02-.29.11-.56.12-.85,0-.09.03-.19.04-.28.01-.1.01-.2.02-.29,0-.06.05-.12.07-.19.05-.21.12-.43.13-.65,0-.16-.1-.32-.1-.47,0-.4.03-.79.06-1.19,0-.06.04-.15.08-.17.16-.06.15-.14.08-.27-.06-.12-.13-.25-.15-.39-.02-.11.04-.22.05-.29.11-.07.19-.12.21-.13-.07-.14-.13-.24-.15-.34,0-.03.13-.08.23-.14-.37-.2-.16-.56-.21-.86.06.06.11.13.18.16.03.01.14-.07.14-.11,0-.08-.04-.17-.08-.28.03-.04.1-.11.15-.18-.08-.28-.24-.53-.05-.83.09-.15.14-.39.1-.56-.09-.35-.05-.68-.02-1.03.02-.24.17-.55-.19-.72.09-.06.15-.11.24-.17-.22-.28.02-.51.09-.77-.14-.04-.27-.07-.41-.1-.22.13-.07.33-.06.51,0,.18,0,.37,0,.55-.05,0-.1,0-.15-.01.04-.56.08-1.13.12-1.69.04,0,.07,0,.11,0,.03.16.06.33.09.49.03,0,.06-.01.08-.02-.02-.21.12-.45-.19-.6-.04-.02-.06-.18-.02-.22.11-.12.24-.21.39-.33-.04-.12-.1-.26-.15-.4.39-.05.56-.17.49-.3-.19.06-.38.12-.61.19.02-.08.02-.18.06-.19.23-.11.25-.25.14-.47-.06-.12-.08-.31.15-.34.09-.01.18-.04.27-.06v.36s.07,0,.11,0c-.02-.15-.03-.3-.06-.44-.02-.16-.05-.31-.07-.47-.02-.2.04-.42-.19-.57-.07-.05-.11-.16-.12-.25,0-.03.13-.07.15-.08.02-.33.04-.64.06-.97-.09.06-.15.1-.21.14-.02-.01-.04-.03-.06-.04.07-.12.14-.25.22-.39.09-.01.19-.02.32-.04-.03-.08-.06-.15-.08-.22-.07-.21-.39-.39-.1-.65.02-.02-.03-.08-.02-.13,0-.08.04-.16.05-.24.01-.09.04-.19.02-.27-.05-.19-.23-.39.06-.53-.02-.09-.04-.16-.06-.24-.04-.26.09-.52,0-.79-.03-.08.11-.21.17-.32-.02-.17-.04-.37-.07-.59.14.05.22.08.3.11,0-.02.01-.04.02-.06-.09-.04-.18-.08-.3-.13.16-.11.29-.2.43-.29,0-.02-.01-.04-.02-.06-.12.04-.25.07-.43.12.14-.28.02-.64.44-.7.02,0,.06-.19.04-.21-.22-.13-.19-.38-.18-.54.02-.24-.16-.56.2-.69-.04-.1-.13-.21-.11-.26.12-.24-.11-.54.14-.76.01,0,0-.06-.02-.09-.11-.22-.09-.37.15-.35-.04-.18-.07-.35-.12-.58.14.06.2.09.28.12-.24-.44-.24-.44.03-.66-.07-.15-.15-.31-.24-.48h.21c-.03-.26-.07-.5-.1-.74.11.01.2.02.33.03-.16-.19-.29-.34-.44-.52.13-.01.21-.02.28-.03-.02-.01-.04-.03-.06-.04.05-.14.11-.27.15-.41.02-.07.05-.17.02-.2-.19-.2-.08-.45-.11-.67-.02-.16.02-.32.02-.48,0-.3-.02-.6-.03-.89,0-.16.01-.32,0-.48-.04-.36,0-.38.37-.33.91.12,1.83.22,2.74.33.35.04.71.08,1.01.11.14-.04.24-.09.34-.08.65.06,1.3.14,1.95.19.58.04,1.16.05,1.74.07,1.32.06,2.64.12,3.96.18.25.01.54-.07.75.02.26.11.45.04.67-.05.05-.02.11-.04.17-.04.22,0,.43,0,.65,0,.37,0,.74-.02,1.11-.03.34,0,.68-.01,1.02-.01.14,0,.28.04.42.03.45-.04.91-.09,1.37-.14.04.26.08.48.09.71.04.52.08,1.03.09,1.55,0,.28-.23.56-.03.85.01.02-.03.08-.04.12-.05.22-.1.43-.12.65,0,.09.1.2.09.29-.07.42-.04.84-.25,1.25-.17.33-.1.77-.32,1.11-.02.03.04.12.07.18.03.05.06.09.06.08-.07.15-.12.24-.15.35-.03.11-.07.27-.02.34.08.1.24.14.37.2-.02.05-.05.13-.09.22-.08-.02-.14-.04-.24-.07.02.13.04.21.06.29-.08.03-.15.06-.28.11.12.07.17.1.23.13-.22.15-.23.24-.05.48-.35.18.05.16.07.21-.1.09-.18.17-.3.29.16.02.23.02.29.03,0,.02,0,.05.01.07-.09.03-.19.05-.32.09.09.12.17.22.26.32-.21.1-.25.26-.11.54-.3.12-.13.28.03.46-.11-.02-.16-.03-.21-.04-.01.3-.03.59-.04.9-.03,0-.11.03-.2.06.08.12.14.22.21.32-.42.27.16.37.09.6-.11,0-.22.01-.38.02.1.13.17.22.21.28-.06.12-.18.25-.15.3.12.23.17.44.08.69-.03.09.03.21.05.32-.13-.01-.21-.02-.3-.03.02.07.05.09.08.1.31.08.3.07.13.34-.1.15-.23.33.1.37-.04.09-.12.17-.11.23.05.23.12.46.19.69-.03,0-.05-.01-.08-.02-.04.22-.08.44-.12.66-.02,0-.04,0-.06,0v-1.18c-.07.14-.14.22-.15.31-.02.18,0,.37-.01.56-.02.33-.04.66-.07.98.14.16.3.34.46.52-.01.02-.03.04-.04.06-.06-.01-.11-.02-.17-.03.02.59.12,1.19-.04,1.81-.19-.18-.25-.1-.25.09,0,.37,0,.74,0,1.1.01.27.06.55.1.83.08-.03.13-.05.14-.05-.04.2-.11.39-.12.58,0,.15.06.3.1.46-.2.25-.09.57-.11.86-.02.31,0,.63,0,.94-.05.08-.15.17-.17.27-.12.69-.24,1.38-.34,2.08-.02.14.12.35.06.44-.2.3.11.76-.3.94.28.36.28.77.4,1.17-.24.03-.43.05-.65.08.03.09.06.16.09.23.1.22.26.43.27.65.02.27-.06.56-.14.83-.18.58-.45,1.14-.6,1.73-.36,1.48-.79,2.93-1.43,4.31-.07.15-.09.31-.15.51-.05.03-.17.09-.23.18-.11.18-.19.37-.29.56-.33.62-.66,1.24-.98,1.87-.09.18-.14.38-.23.62-.05.06-.15.18-.25.3.09.02.18.04.27.06q-.2.45-.57.25c-.11.18-.21.36-.32.53-.33.52-.66,1.04-.98,1.57-.5.84-.91,1.73-1.5,2.53-.57.77-.96,1.66-1.48,2.47-.36.57-.59,1.24-1.19,1.64-.04.02-.03.1-.06.14-.22.34-.41.7-.66,1.02-.23.28-.5.53-.78.77-.15.13-.36.31-.5.27-.16-.04-.27-.29-.4-.44-.03-.06-.14-.1-.14-.15-.02-.48-.04-.96-.03-1.44,0-.33.09-.66.1-.99,0-.2-.1-.38-.1-.6-.01-.53-.11-1.06-.18-1.59-.03-.22-.07-.44-.09-.66-.05-.43-.1-.86-.15-1.29,0-.07-.06-.13-.12-.26-.04.3-.06.51-.09.72-.03,0-.05,0-.08,0,0-.41,0-.82,0-1.23,0-.19-.02-.39-.04-.58-.01-.13-.2-.2-.32-.14.09.37.18.73.27,1.13,0,.02-.06.09-.06.16,0,.17.02.35.02.52.03,1.24.05,2.48.07,3.72,0,.1-.04.2-.08.29-.06.12-.18.22-.19.33-.07.55-.13,1.11-.16,1.66-.01.2.02.42.09.6.13.31.3.61.47.91.05.1.14.24.22.24.12,0,.25-.09.38-.14,0-.02-.01-.04-.02-.06.09.02.18.04.28.07-.01-.08-.02-.13-.05-.28.3.35.62.22.84.09.46-.27.88-.61,1.29-.96.19-.16.33-.39.46-.6.35-.54.69-1.08,1.02-1.63.02-.04.02-.09.02-.14h-.45c.15-.17.35-.37.51-.59.09-.11.12-.27.2-.39.18-.27.41-.51.55-.8.41-.81.82-1.62,1.46-2.3.3-.31.55-.66.8-1.02.12-.17.14-.4.25-.57.18-.29.4-.56.61-.83.28-.35.5-.74.83-1.07.25-.25.36-.62.55-.93.17-.3.33-.61.55-.88.2-.24.15-.67.55-.76,0,0,0-.02.01-.02.18-.39.36-.77.54-1.16.03-.07.03-.16.07-.23.39-.76.83-1.5,1.18-2.28.4-.9.74-1.82,1.1-2.74.16-.41.35-.81.47-1.23.14-.49.22-1,.33-1.52.02.07.05.14.07.21.02,0,.03,0,.05,0v-.67c.07.06.13.11.18.16.02,0,.05,0,.07-.01-.01-.17-.04-.35-.03-.52,0-.14.06-.28.1-.42.02-.08.08-.16.07-.23-.05-.64-.12-1.27-.16-1.91-.04-.54-.06-1.07-.07-1.61,0-.62.02-1.23.02-1.85,0-.22-.05-.43-.07-.65-.04-.3-.14-.6.04-.9.07-.11.03-.29.04-.43.02-.29,0-.6.1-.87.05-.13.18-.2,0-.33.36-.21.22-.55.25-.84.03-.29.02-.59-.37-.8.18-.01.25-.02.34-.03,0-.1.03-.19,0-.27-.12-.31.18-.67-.15-.95,0,0,0-.03,0-.05.03-.33.15-.7.05-.99-.11-.34.36-.63,0-.93,0,0,.02-.03.02-.04.04-.33.08-.66.11-.99.04-.41.07-.82.09-1.23,0-.09-.04-.2-.08-.28-.01-.02-.15.03-.22.06-.09.03-.17.08-.29.14-.04-.15-.06-.27-.09-.38.08.05.16.09.22.14.44-.02.61-.25.49-.68,0,0,0-.02,0-.03.14-.83.29-1.65.42-2.48.08-.53.12-1.06.18-1.59.1-.86.2-1.72.29-2.58.02-.2-.02-.42.05-.6.2-.54.16-1.1.2-1.66.02-.31.05-.61.07-.92.02-.35.03-.69.05-1.04,0-.04-.02-.1,0-.12.19-.14.1-.3.03-.45-.08-.17-.17-.33-.26-.5.01-.01.02-.02.03-.03.09.06.17.11.28.18.1-.26.28-.19.49-.16.22.04.45.06.67.05.19,0,.38-.09.57-.11.72-.07,1.43-.13,2.15-.19.56-.05,1.13-.1,1.69-.15.19-.02.37-.04.56-.05.29-.02.59-.03.87-.04.02.06.04.07.04.09-.08.78.05,1.55.03,2.32-.02.64.32,1.23.2,1.88,0,.02,0,.03.01.05.07.24.16.49.21.74.08.38.14.77.22,1.16.02.08.05.17.08.25.04.1.12.19.13.29.07.65.13,1.29.2,1.94.01.11-.01.26.05.33.14.17.08.28-.11.42.15.2.3.38.44.57.02.03.03.08.04.13.07.48.11.97.2,1.44.08.42.22.83.32,1.25.04.17.07.35.1.53-.03,0-.05.01-.08.02.05.07.14.13.16.2.08.48.14.96.21,1.44,0,.06.04.12.05.18.09.3.25.6-.12.87.12.06.21.09.3.13.05.03.11.08.12.13.03.3.05.6.07.89.05.78,0,1.58.48,2.26.04.06.09.14.1.21.03.32.04.64.05.96.02.45-.02.92.1,1.35.11.38.1.76.15,1.14.03.22-.01.45.04.66.12.43.1.9.38,1.28.01.02,0,.05,0,.08-.02.18-.04.36-.07.54-.04-.02-.09-.05-.15-.08-.01.01-.03.03-.04.04.07.08.13.17.17.22,0,.14-.06.27-.01.35.21.36.29.75.3,1.16.01.23-.04.46.22.46-.04.17-.09.32-.1.47,0,.18.02.36.05.54.01.09.04.19.05.26.1,0,.17,0,.24-.01,0,.05.02.11,0,.15-.19.25-.1.44.11.63.06.06.09.18.1.27.04.34-.22.73.14,1.01.05-.05.1-.12.16-.16.13-.08.16-.15.12-.32-.11-.51-.23-1.02-.25-1.53-.02-.73-.23-1.44-.26-2.16-.01-.28-.11-.56-.15-.84-.07-.6-.11-1.21-.19-1.81-.02-.15-.12-.28-.17-.43-.02-.05-.04-.11-.05-.16-.01-.22,0-.44-.03-.65-.07-.51-.19-1.02-.25-1.53-.08-.71-.14-1.42-.3-2.12-.19-.83-.28-1.68-.42-2.53-.03-.16-.1-.32-.12-.49-.07-.53-.08-1.08-.2-1.6-.1-.43-.02-.93-.38-1.29-.04-.04-.03-.12-.03-.18-.03-.27-.04-.54-.09-.81-.15-.92-.32-1.85-.47-2.77-.05-.31-.1-.62-.14-.93-.05-.44-.08-.88-.16-1.31-.05-.28-.17-.54-.23-.81-.06-.26-.08-.52-.12-.78-.16-1.15-.32-2.3-.48-3.45,0-.07.01-.14.01-.21,0-.19.02-.37.01-.56,0-.16-.05-.31-.07-.47-.04-.39-.08-.77-.1-1.16,0-.07.08-.21.14-.21.75-.05,1.5-.09,2.24-.13,0-.01,0-.07-.02-.17.14.09.22.15.29.2-.09.12-.17.25-.29.41.09.06.21.15.33.24-.13.15-.13.3,0,.48.09.12.11.29.16.43.09.25.04.54.27.74.02.01.03.04.05.07-.07.02-.13.03-.18.05-.03.32.25.27.46.38-.15.09-.26.15-.37.21.26.2.27.32.06.68.11-.01.2-.02.28-.03v.36s-.11.04-.19.07c.13.17.24.31.35.45-.03,0-.06,0-.08,0-.03.08-.08.16-.08.24.01.23.07.46.07.69,0,.22-.07.43.07.65.08.13.02.36.01.55-.01.17-.01.3.2.36.13.04.28.14.33.26.07.14.05.32.07.48-.03,0-.05.01-.08.02-.07-.16-.14-.33-.21-.49-.02-.04-.08-.06-.12-.09-.02.04-.06.08-.06.12.01.19.01.39.05.57.03.15.11.3.15.39.01.25.01.46.03.67.02.25.07.5.1.74.02.18,0,.37.05.54.1.32.23.62.35.93-.12.07-.18.1-.18.1.08.2.13.37.21.53.08.17.08.37.28.48.09.05.12.18.2.29-.18.02-.32.04-.45.06.06.19.1.34.14.47.06.02.14.04.27.08-.18.09-.3.15-.45.22.28.19.4.38.42.69,0,.06-.1.13-.16.19-.05.05-.15.09-.15.13.02.33-.03.71.12.98.22.41.19.84.28,1.26.08.39.08.79.13,1.19.01.12.08.23.11.35.05.22.08.45.12.68.03,0,.05,0,.08,0-.09.07-.18.14-.29.22.11.07.21.1.22.14.08.4.15.81.23,1.22.01.07.08.13.12.2-.05.1-.05.19-.04.27.01.06.08.12.08.18,0,.17-.03.35-.01.52,0,.1.08.2.12.26-.01.16-.07.33-.01.45.05.11.22.16.35.24-.02.01-.05.05-.09.08-.08.05-.15.11-.23.16.11.07.21.14.32.2.03.02.1-.01.13.01.04.03.07.09.08.14,0,.03-.01.08-.02.12-.09-.03-.15-.06-.3-.12.06.2.1.33.14.47-.03.01-.08.03-.14.05,0,.02,0,.05,0,.07h.43c-.48.48-.49.55-.29.78-.03.24-.08.41-.06.58.06.6.17,1.19.19,1.79.05,1.14.26,2.26.18,3.41-.02.28.04.57.07.86,0,.04-.01.08-.02.12-.02.14-.05.27-.06.36.19.06.3.1.42.13,0,.02,0,.05,0,.05-.18.08-.26.19-.25.41,0,.05-.11.17-.02.26.06.06.16.07.25.11.01.12.03.27.04.42-.03.02-.05.03-.08.05-.04-.09-.07-.18-.11-.26-.03.02-.07.04-.1.07.01.08,0,.18.04.23.1.1.23.18.36.28-.04.05-.09.12-.1.13.05.2.08.34.11.48-.02,0-.05.01-.07.02-.05-.08-.09-.15-.15-.25-.07.11-.12.18-.18.29.17.06.31.11.45.16-.06.19-.12.37-.15.49-.12.04-.22.07-.31.11,0,.03,0,.06,0,.09.12.05.25.1.38.15-.02.04-.05.1-.08.15,0,0,0,0,0,0h0s0,0,0,0h0s0,0,0,.01c0,0,0,0,0,0,.05.09.13.17.15.26.05.29.07.58.1.86.05.43.11.86.16,1.29-.21-.37-.11-.83-.36-1.18-.03.14-.04.28-.01.42.16.81.31,1.62.48,2.43.11.49.26.97.38,1.45.02.09.04.19.04.29.01.19,0,.38.03.56.04.39.09.78.13,1.17.04.33.08.66.12.99.03.31.15.64.07.91-.09.31.28.6-.02.87-.01.01.03.08.04.12.05.24.1.48.15.71-.02,0-.05.02-.07.03.08.04.15.07.25.12-.3.13,0,.31-.06.45-.32.17-.42.11-.52-.23-.17-.58-.35-1.16-.53-1.74-.02-.07-.01-.15-.03-.23-.06-.26-.12-.52-.19-.78-.04-.15-.14-.28-.19-.43-.09-.29-.16-.58-.25-.87-.31-.9-.56-1.81-.72-2.74-.04-.25.02-.51,0-.76-.03-.33-.12-.66-.15-1-.03-.38-.25-.73-.09-1.14.06-.14-.01-.46-.12-.52-.25-.14-.3-.35-.39-.56.27-.16.19-.39.12-.6-.02-.07-.13-.12-.19-.18-.02.02-.04.04-.06.06.03.07.05.14.08.21-.06.03-.13.07-.13.07.04.2.06.34.09.48.02.09.02.18.07.25.16.22.13.46.12.71,0,.2,0,.42.06.62.07.25.02.42-.22.51-.05.02-.09.04-.08.04-.08,1.37.39,2.61.61,3.92-.08-.02-.13-.03-.18-.05.42.27.14.82.53,1.15-.12,0-.16,0-.23-.01.11.54.57.95.52,1.53-.05-.08-.1-.16-.14-.24-.03.01-.05.02-.08.03.04.1.07.2.11.3.11.28.35.5.27.86-.03.12.08.27.13.4.03,0,.06-.01.09-.02.01-.06.05-.12.04-.17-.08-.25-.17-.49-.26-.73-.02-.06-.02-.12-.03-.19.06.03.16.04.18.08.05.12.07.25.11.37.14.45.29.9.43,1.34-.02.01-.04.03-.07.04-.04-.05-.07-.09-.11-.14-.07-.08-.14-.17-.2-.26-.03.12-.06.23-.08.35,0,.05.03.1.05.15.29.64.67,1.23.87,1.92.07.24.28.43.36.67.21.63.4,1.26.58,1.9.11.41.21.82.24,1.24.02.23.17.49-.04.72-.03.03,0,.12.01.18,0,.08.03.17.02.25-.04.28.08.56-.06.86-.07.16-.14.45-.03.66-.16.06-.28.11-.35.14-.08-.1-.14-.19-.24-.33-.05.24-.08.41-.12.6.1.02.19.07.27.06.08,0,.16-.07.31-.13-.05.13-.07.18-.1.24.02,0,.05-.01.07-.02.06.12.12.23.16.35.11.29.21.35.51.28.09-.02.17-.07.26-.05.67.08.71-.14.8-.58.12-.62.17-1.25.24-1.88.05-.43-.11-.86-.03-1.3.03-.18.02-.37,0-.56,0-.08-.06-.16-.1-.23-.06-.09-.17-.17.02-.24.03-.01.04-.07.06-.1.13-.4-.09-.82.07-1.23.06-.15-.08-.39-.13-.59-.08-.35-.17-.7-.22-1.05-.06-.48-.22-.91-.51-1.3-.08-.1-.14-.22-.22-.32-.06-.09-.17-.16-.2-.25-.08-.31-.13-.62-.19-.93-.1-.54-.23-1.07-.29-1.62-.12-1.08-.17-2.17-.29-3.26-.13-1.15-.3-2.3-.45-3.45-.11-.85-.23-1.7-.34-2.55-.06-.41-.11-.83-.17-1.28-.09.06-.14.1-.19.14-.03,0-.05-.01-.08-.02.33-.28.14-.59.14-.9,0-.12.07-.25.12-.39-.05-.08-.11-.18-.17-.29.02-.01.03-.02.05-.03.05.06.1.13.14.17-.02-.17-.04-.35-.07-.52-.02-.17-.05-.34-.07-.51,0-.07,0-.14,0-.21-.03-.47-.05-.95-.1-1.42-.03-.34-.08-.68-.13-1.02-.09-.56.06-1.13-.09-1.71-.14-.58-.08-1.21-.12-1.82-.11-1.58-.22-3.16-.35-4.75-.07-.89-.16-1.79-.25-2.68-.05-.48-.13-.96-.19-1.45-.13-1.02-.26-2.05-.39-3.07-.09-.7-.18-1.39-.25-2.09-.08-.86-.16-1.72-.21-2.58-.02-.28-.03-.56-.01-.85.04-.62-.03-1.25-.06-1.88-.02-.53-.06-1.05-.08-1.58-.02-.45-.02-.9-.04-1.35,0-.06-.05-.14-.1-.17-.14-.08-.14-.19-.12-.34.02-.15-.04-.32-.06-.48,0-.05-.04-.1-.04-.15-.02-.31-.08-.62-.04-.92.04-.33-.05-.59-.21-.84,0-.01.02-.04.02-.06.12.06.23.11.34.17.02-.02.03-.05.05-.07-.12-.09-.23-.18-.36-.28.1-.02.19-.04.29-.06.02.06.03.1.03.09.19-.06.35-.13.52-.16.51-.09,1.01-.15,1.52-.23.68-.1,1.36-.21,2.04-.31.03,0,.08,0,.1.02.19.2.34.05.51-.03.16-.08.34-.14.51-.18.17-.03.34,0,.51-.03.97-.15,1.94-.31,2.86-.45.19.24.12.36-.12.47.13.07.21.11.28.15-.12.2.04.3.16.39-.06.1-.15.19-.15.27.02.31.06.62.13.92.2.9.41,1.8.63,2.7.06.22.15.46.29.64.17.23.21.38,0,.59.12.2.26.4.34.62.1.24.14.5.21.75.12.4.24.8.36,1.2.06.19.15.37.2.56.13.56.24,1.12.35,1.69.03.17.01.37.1.5.28.4.1.88.26,1.3.02.06,0,.19.05.28.02.04.05.12.03.14-.12.16-.03.27.05.4.05.08.05.19.05.28.02.38.02.76.07,1.13.05.39.14.77.22,1.16.02.11.08.2.13.32-.01,0-.06.03-.09.05.08.32.15.63.22.94-.04-.01-.09-.03-.16-.05.03.17.07.3.08.44.05.5.08,1,.15,1.5.1.76.26,1.51.32,2.27.09,1,.11,2.01.17,3.02.02.38.08.76.09,1.13.01.29-.07.58-.02.86.1.65-.1,1.34.37,1.94-.11-.03-.19-.06-.27-.08-.01.02-.03.03-.04.05.06.11.12.21.19.32-.06.06-.08.13-.07.19.03.12.16.28.13.33-.15.21-.07.41-.06.63.03.42,0,.84.03,1.27.01.24.06.48.1.76.01-.01-.03.02-.08.06.26.19.25.42.19.71-.04.17-.2.42.06.58-.23.27-.18.71.13,1.08-.28.13-.42.34-.37.65,0,.03-.02.06-.04.1-.25.55-.27,1.13-.18,1.71.03.17,0,.29-.04.44-.02.06-.03.13-.02.2.02.31.05.62.08.93.02.15.02.36.11.44.27.23.3.28.19.6-.03.08-.04.17-.02.25.02.12.08.22.14.38.05.02.16.05.27.08,0,.01,0,.03,0,.04-.09.01-.18.03-.25.04.02.19.03.37.04.55.03.4.07.8.1,1.21,0,.06-.04.13-.05.2-.03.12-.11.27-.07.37.07.18-.14.4.1.54,0,0,0,.05-.02.07-.1.37-.11.74.06,1.08.11.23.07.47.1.7.04.3.13.59.21.94-.11.12-.03.29.1.45.07.1.15.2.21.31.15.29.22.59.01.89-.11.17-.02.38.2.48-.03-.14-.06-.27-.09-.39.02,0,.04-.01.07-.02.29.52.58,1.04.87,1.56.09-.1.15-.16.21-.23-.08-.06-.17-.13-.32-.24.15-.02.23-.03.28-.04-.21-.35-.41-.68-.64-1.07.13,0,.19.01.28.02-.12-.15-.42-.24-.13-.46-.2-.24-.2-.25-.16-.59,0-.03-.01-.07-.02-.1-.04-.15-.11-.3-.13-.46-.15-.91-.26-1.83-.43-2.74-.15-.79-.11-1.57.01-2.35.02-.12.07-.24.11-.37.25.07.53.13.81.22.38.13.74.28,1.11.42.12.04.29.01.27.23,0,.04.12.13.16.12.36-.09.64.13.96.21.32.08.61.25.92.37.21.09.42.23.63.24.44.02.88,0,1.27.25.03.02.07,0,.1,0,.37.09.75.14,1.1.27.24.09.44.23.6.12.54.15,1,.28,1.46.42.28.08.55.18.83.27.02-.03.03-.06.05-.08-.03-.09-.06-.18-.09-.27.02,0,.04-.02.06-.03.03.07.05.15.09.21.08.12.16.29.27.34.32.13.66.23.99.31.09.02.2-.06.29-.1-.04-.04-.07-.08-.11-.12.01-.03.03-.05.04-.08.17.07.34.14.51.21.09.04.24.14.28.11.3-.26.56.09.84.02-.19.27-.41,0-.62.04-.21.05-.43.01-.65.01,0,.03-.01.07-.02.1.39.1.78.2,1.14.29.11-.14.22-.26.32-.38,0,.03.01.05.02.08.27.05.54.1.83.15-.28.31-.48-.07-.72-.01-.03.08-.06.16-.1.25.17.05.33.12.48.12.15,0,.29-.09.49-.16-.07.11-.12.16-.16.22.01.02.02.04.04.06.2-.12.4-.25.59-.37.02.03.04.06.06.09-.11.09-.21.18-.38.32.16.03.26.05.35.05.17,0,.34,0,.51.02.11.01.21.09.31.1.21.02.43,0,.64,0,.1,0,.19-.03.23-.04.2.02.34.07.48.05.29-.03.57-.11.86-.14.45-.06.91-.07,1.36-.15.27-.05.54-.17.79-.28.05-.02.1-.16.08-.22-.17-.57-.41-1.13-.53-1.71ZM53.37,6.13s-.11,0-.19.01c0-.02.01-.05.02-.06.11-.13.22-.23.23-.43,0-.22.1-.25.28-.12.01-.07.02-.13.04-.2.02,0,.04.01.05.02.22.5-.02.88-.38,1.15-.38.28-.83.48-1.25.72-.01-.03-.03-.06-.04-.09.42-.33.84-.67,1.25-1ZM50.95,7.4c-.02-.13-.04-.2-.05-.27.17-.07.32-.13.48-.19.01.02.02.03.03.05-.14.12-.28.25-.46.41ZM52.04,17c-.18.07-.34.18-.5.29-.54.38-1.11.68-1.81.69.08-1.18,1.83-1.92,2.75-1.67-.01.32-.12.56-.44.69ZM58.6,11.26s.03.07.04.1c-.22.19-.44.39-.68.56-.2.15-.42.25-.63.39-.05.04-.08.11-.12.17.08,0,.15,0,.23,0,.03,0,.06-.03.14-.07-.05.09-.08.14-.12.22.55-.07,1.06-.13,1.58-.19.01.03.02.06.04.1-.09.05-.18.12-.28.14-.58.14-1.17.25-1.75.4-.23.06-.43.19-.65.29-.02-.01-.03-.02-.05-.04.1-.11.22-.22.31-.34.18-.23.37-.46.51-.72.24-.44.66-.71,1.02-1.03.08-.07.28.02.43.03ZM47.59,18.92c.17-.48.35-.95.7-1.33.06-.07.08-.18.13-.26.19-.3.44-.51.75-.52.05-.12.05-.24.12-.29.72-.55,1.44-1.11,2.18-1.63.36-.26.76-.48,1.16-.67.7-.33,1.11-.92,1.49-1.54.4-.65.75-1.33,1.13-1.99.4-.69.82-1.38,1.23-2.06.04-.07.12-.13.18-.19.03.02.06.04.09.05-.13.33-.26.65-.41,1.04.24-.16.46-.3.67-.45.12-.08.24-.19.37-.26.05-.03.14.02.21.03-.01.07,0,.15-.04.2-.19.25-.42.47-.39.81,0,.02.01.05.04.13.21-.13.41-.26.61-.38.21-.13.41-.27.63-.37.09-.04.24-.02.31.04.05.04.07.2.03.28-.12.24-.22.48-.48.63-.31.18-.58.43-.88.64-.07.05-.18.04-.3.06-.38.2-.78.41-1.18.63-.09-.25-.15-.28-.39-.11-.16.12-.3.27-.44.41.02.02.04.05.06.07.19-.07.38-.16.58-.2.19-.04.4-.03.59-.04,0,.03.02.05.02.08-.32.17-.65.36-.97.52-.51.26-.74.71-.82,1.23-.02.15.22.33.36.53.34-.53.77-.41,1.21-.42-.04.09-.04.15-.08.19-.26.28-.52.53-.86.73-.58.37-1.12.81-1.65,1.24-.4.32-.82.42-1.31.29-.58-.16-1.17-.19-1.69.13-.41.25-.78.55-1.13.87-.39.35-.75.74-1.1,1.14-.14.15-.23.35-.3.55-.15.42-.4.75-.67,1.09-.02-.01-.05-.02-.07-.03.11-.29.22-.57.32-.86ZM36.16,10.19c-.21-.02-.43-.03-.64-.08-.05-.01-.08-.13-.11-.19.06-.03.14-.09.19-.07.2.06.4.15.6.23-.01.04-.02.08-.03.12ZM43.76,12.1c-.32.1-2.89-.99-3.03-1.35.32.04.62.04.9.11.52.14,1.02.32,1.54.47.39.11.67.3.58.77ZM35,17.33c-.33-.09-.66-.19-.99-.27-.18-.05-.36-.07-.54-.11-.34-.07-.69-.14-1.03-.2-.28-.05-.57-.09-.85-.14-.14-.03-.28-.06-.41-.12-.69-.3-1.41-.38-2.16-.33-.45.03-.54-.05-.62-.33-.09-.33.05-.68.35-.83.92-.44,1.87-.64,2.84-.2.32.15.59.41.89.62.11.07.22.18.34.19.39.06.59.38.88.58.32.22.63.47.95.71.14.11.27.23.4.34-.02.03-.04.06-.06.1ZM38.2,19.79c.23.09.43.16.65.24-.28.17-.55.08-.65-.24ZM43.65,20.9h.91c-.15.4-.43.42-.91,0ZM46.52,10.92c.06-.59.1-1.19.17-1.78.02-.15.1-.32.19-.44.24-.31.4-.72.9-.89-.09.24-.13.43-.22.59-.45.81-.72,1.68-.94,2.58-.02.09-.06.17-.1.26-.02,0-.04-.01-.06-.02.02-.1.04-.2.05-.3ZM43.05,25.57c.12-.29.45-.21.65-.38.1-.09.24-.12.3.1.02.07.18.15.27.14.42-.02.84.01,1.24-.21.14-.08.36,0,.54.02.06,0,.14.07.17.05.31-.19.59.08.88.07.42-.02.83-.07,1.25-.1.09,0,.18-.02.26-.02.3,0,.37.09.38.39.02.45.09.9.08,1.35-.01.54-.09,1.07-.14,1.61-.02.17-.1.24-.28.22-.27-.02-.53-.02-.69.27-.02.04-.14.03-.23.04.23.21.24.64,0,.98.05.05.11.09.18.15-.1.05-.18.09-.34.17.18.03.27.05.39.07-.11.05-.21.09-.34.15.06.07.11.12.16.17-.35.23-.35.62-.48.96-.06.15-.1.32-.15.5h.27s0,.03.01.04c-.1.05-.24.07-.3.15-.07.1-.07.25-.12.37,0,.02-.05.05-.09.05-.32.03-.64.06-.99.09.1-.47.23-.88.29-1.31.05-.36.04-.72.02-1.08,0-.08-.15-.16-.23-.24-.07.09-.18.17-.19.27-.03.16.02.33.02.5-.02.44-.05.87-.07,1.31,0,.05,0,.11,0,.16-.02.19.02.43-.28.45-.04,0-.09.07-.13.11-.27-.52-.53-1.04-.82-1.55-.15-.27-.4-.48-.38-.82.02-.36.07-.72.11-1.14-.1-.19-.25-.45-.4-.72-.16-.29-.33-.58-.45-.89-.13-.35-.21-.72-.3-1.08-.08-.29-.17-.58-.24-.87-.05-.2-.28-.48.18-.51ZM20,66.69c.04-.22.08-.45.14-.67.02-.07.08-.12.12-.18-.02.12-.03.24-.05.36,0,0,0,0,0,0-.07.28-.15.56-.22.85-.01,0-.03,0-.04,0,.01-.12.02-.24.04-.36ZM8.66,89.82s-.04-.07-.07-.11c.11-.09.2-.2.32-.26.19-.1.38-.18.58-.24.26-.07.52-.11.78-.17-.5.34-1.02.63-1.62.77ZM21.42,81.47s-.07,0-.1,0c.03-.37.05-.73.08-1.1.03,0,.06,0,.09,0-.02.37-.05.74-.07,1.11ZM22.38,59.26c.07,0,.14-.01.26-.02-.22.2-.22.59-.62.48.04.29.14.32.41.12.02.02.04.03.05.05-.07.07-.13.14-.21.22.05.01.11.03.17.04-.12.27-.14.28-.55.21.12.12.19.22.28.29.26.17.28.29.09.52-.04.05-.07.1-.13.17.09,0,.16.01.24.02.01.31-.24.25-.38.3.11.14.23.29.34.44-.01.01-.02.03-.03.04-.06-.02-.13-.04-.21-.07.07.14.13.26.22.42-.14.02-.24.04-.38.06.14.12.27.22.45.37-.17.05-.31.1-.54.17.2.12.34.21.48.3-.28-.02-.56-.1-.8.12,0,.03.01.06.02.09.14-.05.28-.09.42-.13.03.11.06.21.1.34-.08.06-.2.14-.35.25.26,0,.25.13.21.31-.05.23-.06.46-.1.72.07.02.18.06.31.11-.17.08-.31.15-.45.22,0,.03.02.06.03.09.07.02.14.03.26.06-.11.05-.16.07-.24.11.08.11.15.2.23.32-.07.03-.14.06-.24.1.15.09.28.16.36.22-.12.05-.34.07-.38.16-.13.32.18.44.41.63-.17.04-.3.06-.41.09v.48s.03,0,.05,0c.05-.08.1-.16.16-.24.02,0,.04.02.06.03-.05.19-.08.39-.14.58-.01.04-.11.05-.21.09.02.04.05.11.1.17.05.07.11.12.2.22-.14.02-.23.04-.35.05.09.09.17.15.22.2-.02.12-.04.22-.06.31-.03.22-.07.43-.08.65,0,.13.04.27.07.44.01,0-.04,0-.13.02.03.19.08.4.09.61,0,.18-.03.36-.04.53,0,.06.04.11.06.17.04,0,.07,0,.11,0-.05.09-.11.19-.19.33.02.04.08.16.14.27-.01,0-.03,0-.04-.01,0,.14-.02.29-.03.43-.02.19-.03.39-.05.58-.02.28-.05.56-.07.84-.02.31-.03.63-.01.94,0,.1.14.19.25.34-.12-.05-.18-.08-.26-.12-.06.3-.1.58.16.79-.08.05-.23.09-.23.14,0,.09.07.19.13.3-.05.02-.12.05-.22.1,0,.3,0,.61,0,.92,0,.03-.09.06-.14.09.26.25.27.47.11.59-.05.41-.08.74-.12,1.07-.02.16-.06.32-.11.48-.19.58-.32,1.19-.33,1.8,0,.22-.13.44-.04.66,0,.01,0,.04,0,.05-.17.4-.31.8-.51,1.18-.09.18-.38.3-.41.48-.14.69-.76.83-1.24,1.09-.39.22-.76.43-1.08.74-.22.21-.46.46-.74.55-.46.15-.73.54-1.15.73-.06.03-.16,0-.23-.01h0s0,0,0,0h0c-.1-.04-.2-.11-.3-.11-.17,0-.35.06-.52.1-.08.02-.17.03-.26.05,0,.08-.01.18-.02.25-.23-.02-.49-.12-.65-.03-.31.18-.63.17-.95.19-.23.02-.4.08-.4.32-.66.11-1.28.27-1.85.58.01.03.02.06.03.09.11-.05.22-.11.33-.16,0,.02.02.05.03.07-.6.45-1.31.45-2.01.49.32.05.64.11.97.16,0,.02.02.04.03.06-.39.14-.78.29-1.17.43-.04.02-.08.04-.12.06-.27.16-.32.13-.35-.17-.1.02-.21.04-.31.06,0,0-.02,0-.04-.02.22-.24.44-.48.67-.72-.02-.03-.05-.05-.07-.08-.17.16-.34.32-.52.48-.03-.03-.05-.06-.08-.09.23-.19.48-.37.7-.58.16-.15.36-.31.43-.51.13-.4.43-.61.74-.83.04-.02.1-.03.11-.06.16-.47.69-.47.98-.78.15-.16.41-.2.64-.31-.03-.06-.05-.11-.08-.17.14-.05.28-.08.41-.14.14-.07.29-.14.41-.24.2-.18.38-.37.55-.57.09-.1.17-.21.05-.38-.04-.06.09-.34.19-.38.36-.14.66-.31.8-.69.45-.16.51-.65.76-.97.27-.35.39-.81.6-1.21.19-.36.42-.7.62-1.05.13-.23.32-.43.32-.72,0-.04.05-.07.06-.11.05-.15.08-.3.15-.45.04-.08.13-.14.21-.22-.03-.04-.06-.08-.1-.13.02-.01.04-.02.07-.03.05-.03.15-.06.15-.07-.08-.39.25-.64.34-.97.11-.37.24-.73.37-1.08.18-.5.38-1,.55-1.51.07-.22.03-.49.14-.68.09-.14-.07-.37.17-.45.01,0,0-.22-.07-.29-.1-.13-.12-.16.06-.23.24-.08.3-.3.22-.62.29-.12.57-.9.52-1.43.35,0,.29-.32.35-.51.03-.09.35-.31-.06-.37.18-.66.35-1.3.52-1.95.03-.1.03-.21.06-.31.04-.1.11-.18.18-.29-.12-.07-.19-.21,0-.41.06.05.11.09.16.14.05-.37.09-.74.13-1.11.07,0,.14-.02.16-.02.03-.21.05-.38.08-.59-.08.1-.13.16-.18.22-.01-.09-.05-.19-.02-.27.21-.82.43-1.64.64-2.46.03-.12.04-.24.06-.39.06.04.11.07.22.14-.09-.16-.18-.26-.18-.36,0-.09.09-.17.17-.3-.02,0-.04,0-.07,0,.22-.94.42-1.82.62-2.67.18,0,.3.02.41.02,0-.03,0-.06.01-.1-.14-.03-.27-.07-.42-.1.04-.1.09-.21.14-.33.06.04.12.08.22.14-.07-.23-.12-.42-.18-.63.1-.03.09-.35.35-.19.07.29.27.09.43.1-.06.21-.12.4-.19.62-.06-.08-.12-.17-.18-.25-.01,0-.03.01-.04.02.04.14.08.29.13.45ZM23.07,71.61c-.07.13-.12.24-.18.36-.02,0-.04-.01-.06-.02v-.52c.09.06.16.11.24.17ZM22.82,68.76s.06,0,.09,0v2.54c-.21-.32-.25-2.06-.09-2.53ZM22.75,58.12c-.14,0-.23-.01-.33-.02-.05.05-.12.13-.19.21-.07-.17-.34-.28-.19-.46.15-.05.24-.08.31-.11-.11-.15-.18-.25-.26-.35.02-.02.04-.04.06-.06.06,0,.12.01.21.02-.07-.13-.13-.23-.18-.34.02-.01.04-.03.06-.04.17.13.34.25.52.39-.1.11-.27.21-.28.33,0,.11.14.23.27.41ZM22.71,57.14c-.14-.16-.28-.31-.42-.47.01-.03.03-.06.04-.09.12.05.26.06.34.15.08.08.1.23.15.34-.04.02-.08.05-.12.07ZM23.45,63.7c.03.11.09.22.06.3-.03.12-.12.23-.18.34l-.09-.04c0-.06-.01-.11-.03-.17-.01-.05-.04-.09-.05-.1.08-.1.16-.19.28-.34ZM31.79,98.46c-.17.1-.34.2-.51.3-.02-.03-.03-.07-.05-.1.17-.09.34-.19.51-.28.02.03.03.05.05.08ZM36.22,90.83s-.04-.03-.06-.04c.21-.21.08-.66.53-.74-.16.28-.31.53-.46.78ZM37.89,88.28s-.06-.03-.09-.04c.08-.2.17-.39.25-.59.04-.09.06-.19.11-.26.04-.06.11-.09.17-.13.03.03.05.07.08.1-.17.31-.34.62-.52.93ZM38.33,87.21s-.06-.03-.09-.04c.11-.28.23-.57.34-.85.02,0,.05,0,.07-.01.02.06.07.13.05.17-.12.25-.25.49-.37.73ZM42.01,67.26c-.03-.32-.06-.64-.09-.96.03,0,.05,0,.08,0,.02.32.05.64.07.96-.02,0-.04,0-.06,0ZM55.52,48.27c.13.03.26.06.37.08.02-.05.04-.11.06-.16.04.03.11.05.11.09.01.07-.02.14-.03.23.16.11.16.2-.08.41.07-.39-.28-.43-.48-.58.01-.02.03-.04.04-.06ZM55.97,49.12s0-.06,0-.09c.11.06.21.13.32.19-.01.03-.02.07-.03.1-.1,0-.2-.01-.29,0-.03,0-.04.08-.06.13-.09-.05-.19-.1-.33-.17.16-.07.27-.12.38-.17ZM55.64,49.95c.15-.01.21-.02.34-.03-.14-.13-.25-.23-.33-.3.09-.05.18-.1.26-.15.06.03.12.06.18.09.06.03.12.06.16.08-.1.12-.17.21-.28.33.16-.05.24-.07.32-.09.03.13.06.25.09.38-.07,0-.15.03-.2,0-.12-.07-.21-.09-.28.12-.08-.12-.16-.24-.28-.41ZM56,51.75c.07.02.13.04.26.09-.12-.27-.21-.48-.32-.71.07-.04.13-.08.22-.14-.06-.04-.1-.06-.13-.1-.05-.05-.08-.12-.12-.18.08-.01.21-.07.24-.04.11.11.19.25.29.4-.12.05-.19.08-.31.14.45.31.37.72.27,1.13-.02,0-.05.01-.07.02-.1-.2-.21-.4-.32-.61ZM56.38,54.31c-.01.11-.02.18-.03.24-.03,0-.06,0-.08,0-.04-.69-.08-1.38-.13-2.09.09.02.17.03.25.05.14.28.13.53-.12.75.37.35.33.79.32,1.3-.09-.1-.14-.16-.21-.24ZM56.49,56.76c-.03-.23-.06-.46-.1-.7.02,0,.04,0,.06,0,.05.23.11.46.16.68-.04,0-.08.01-.13.02ZM57.15,63.47c-.06-.41-.12-.82-.18-1.26.25.14.38.93.18,1.26ZM60.39,96.47c-.27-.58-.55-1.16-.82-1.74.04-.02.09-.04.13-.06.27.58.53,1.17.8,1.75-.04.02-.07.03-.11.05ZM61.75,100.11s-.05.02-.08.03c-.08-.19-.16-.38-.24-.57.03-.01.06-.02.09-.04.23.13.15.38.23.57ZM61.23,96.15c.08.52.38.98.31,1.53-.06.47-.02.95-.02,1.43,0,.11.01.22.02.33-.04,0-.08,0-.13.01-.07-.39-.18-.79-.21-1.18-.03-.4-.29-.72-.23-1.16.05-.38-.13-.78-.21-1.17.28-.12.44.06.46.22ZM58.87,75.11c-.04-.17-.09-.34-.13-.51.05-.01.1-.02.15-.03.03.17.06.34.08.52-.03,0-.07.02-.1.02ZM58.88,73.6c.04.22-.01.46-.03.69.04,0,.11.01.17.02,0,.02,0,.05,0,.07-.08,0-.21.01-.24-.03-.06-.1-.07-.23-.09-.34-.02-.11-.03-.21-.03-.32,0-.16.01-.32.02-.51.09-.02.18-.05.26-.07-.23.15-.11.31-.07.49ZM80.48,71.91c.04.18.08.37.12.55-.04,0-.08.02-.12.03-.03-.18-.06-.37-.09-.55.03,0,.06-.02.09-.02ZM80.02,65.82s-.03.05-.04.08c-.19.04-.32.01-.33-.33.16.11.27.18.37.25ZM79.41,68.08s0-.05,0-.09c.06,0,.13-.01.22-.02-.11-.12-.19-.21-.31-.35.26,0,.44,0,.46.29.03.4.09.79.13,1.2-.26.12-.26-.18-.26-.25.01-.3,0-.58-.24-.79ZM79.59,50.53c.09.13.18.27.27.41-.2.08-.2.08-.33-.36.02-.02.04-.03.05-.05ZM79.38,52.45c0,.11-.03.22-.05.33-.02,0-.04,0-.06.01-.04-.1-.09-.21-.1-.31,0-.06.06-.13.1-.2.04.06.1.11.11.17ZM79.07,51.56c.04-.12.07-.23.12-.39.05.18.09.33.13.47-.03.01-.06.02-.09.03-.06-.04-.11-.08-.16-.12ZM79.5,48.28s-.13,0-.14-.01c-.03-.07-.06-.17-.03-.21.15-.18,0-.22-.05-.25v-.89s.03-.03.05-.04c.08.11.2.2.22.32.06.32.07.64.09.96,0,.04-.08.1-.14.13ZM79.24,46.11c.13.14.25.28.36.41-.05.07-.09.14-.14.2-.05.05-.11.09-.17.14-.02-.02-.05-.05-.07-.07.06-.09.12-.18.18-.27-.08-.11-.17-.23-.25-.34.03-.02.06-.05.09-.07ZM78.99,44.32q.16,0,.1.48s-.07.01-.1.02v-.49ZM79.01,55.8c-.02.39.02.64.21.91-.27.09-.35,0-.35-.26,0-.36-.05-.72-.08-1.08,0-.1-.01-.19-.03-.35.1.07.16.08.16.11.04.22.09.45.08.67ZM77.57,48.23c.1.06.17.16.25.24.02-.02.04-.04.06-.05-.02-.03-.04-.05-.05-.08-.01-.05-.01-.11,0-.16,0,0,.07-.03.09-.02.05.03.1.07.12.12.03.11.03.23.05.4-.18-.02-.34-.04-.5-.07-.05-.01-.11-.06-.14-.1-.07-.11-.13-.23-.2-.38.09.03.22.05.33.11ZM77.2,47.8s.04-.06.06-.09c.12.02.25.04.37.05,0,.03.02.06.02.08-.08.04-.16.11-.24.1-.08,0-.14-.09-.21-.15ZM77.94,48.04c-.05,0-.1-.09-.14-.14.1-.05.19-.09.3-.15.05.2.01.31-.16.28ZM77.85,47.6s0,.04,0,.05c-.1-.02-.21-.02-.31-.05-.31-.09-.11-.31-.13-.54.21.04.43.03.58.12.12.08.16.29.23.44-.01.02-.03.04-.04.07-.11-.03-.22-.06-.33-.09ZM77.51,46.56s0-.05,0-.07c.14,0,.27-.02.46-.03-.11.12-.18.19-.29.31h.3c.02.09.04.17.05.25-.25.04-.52-.08-.58-.28.07-.02.13-.04.23-.06-.07-.05-.12-.08-.16-.11ZM77.17,43.35c.21.09.41.18.62.27,0,.03,0,.06,0,.1-.08.02-.17.04-.26.06-.05.24.16.14.34.18-.09.11-.16.18-.25.28.05.23.11.49.18.77-.53.1-.2.58-.44.86.18.02.31.03.5.05-.09.04-.13.06-.18.08.1.09.21.19.33.3-.24.09-.35.04-.52-.11-.26-.24-.34-.61-.25-.81.16-.37-.05-.72.08-1.07.04-.13-.07-.31-.11-.48.05-.03.14-.1.25-.18-.14-.09-.24-.15-.34-.2.02-.03.03-.07.05-.1ZM74.96,87.42c-.26-.09-.52-.18-.77-.28.01-.03.02-.06.03-.09.26.08.52.16.78.25-.01.04-.03.08-.04.12ZM91.05,90.4c-.44.05-.88.07-1.37.11.06-.1.08-.14.11-.19-.01-.01-.02-.03-.03-.04-.09.05-.19.1-.28.16-.37.22-.8.2-1.21.26-1.07.14-2.09-.15-3.11-.37-.52-.11-1-.38-1.5-.55-.99-.34-1.92-.82-2.95-1.04-.52-.11-1.02-.26-1.53-.43-.55-.18-1.09-.42-1.65-.6-.76-.26-1.54-.49-2.3-.74-.8-.26-1.59-.54-2.38-.82-.19-.07-.37-.17-.54-.29-.16-.11-.31-.22-.27-.47.01-.08-.08-.25-.16-.27-.32-.11-.36-.37-.4-.65-.02-.12-.05-.23-.08-.37.01-.02.07-.08.07-.13-.03-.81-.08-1.62-.11-2.44-.01-.43.02-.86,0-1.29-.01-.46-.07-.92-.08-1.38-.01-.4.02-.79,0-1.19,0-.21-.11-.41-.12-.62-.02-.49-.03-.98-.01-1.48.02-.69-.09-1.37-.08-2.06,0-.38.06-.77.02-1.15-.04-.37-.08-.74-.11-1.12,0-.08.01-.17,0-.25-.01-.13-.03-.26-.05-.39,0-.04-.03-.1,0-.13.16-.28-.02-.57,0-.85,0-.1-.08-.21-.13-.33.05-.02.1-.04.1-.04.03-.24.07-.46.07-.67,0-.16-.02-.35-.11-.47-.12-.15-.09-.26-.05-.41.03-.11.06-.26.01-.35-.13-.25-.1-.51-.07-.77,0-.02,0-.05,0-.05-.19-.13-.05-.35-.15-.52-.08-.14-.01-.36-.01-.54,0-.04,0-.09,0-.13-.06-.18-.14-.34-.08-.57.04-.15-.14-.36-.23-.56.13-.09.33-.19.03-.39.04,0,.08,0,.12,0-.02-.12-.03-.24-.05-.36-.01-.1-.02-.21-.04-.31-.03-.12-.08-.23-.1-.35-.05-.27-.17-.56-.12-.82.04-.23-.04-.2-.13-.21v-.48c.1-.09.17-.25-.08-.39-.04-.02-.04-.11-.05-.17-.06-.55-.12-1.1-.19-1.65-.03-.25-.06-.49-.11-.73-.1-.49-.17-.99-.32-1.47-.23-.74-.27-1.56-.74-2.22-.16-.23-.27-.46-.18-.78.05-.17-.13-.39-.19-.59-.24-.81-.54-1.62-.71-2.45-.17-.86-.21-1.75-.3-2.63-.03-.28-.07-.56-.1-.84-.03-.24-.07-.47-.08-.71-.03-.39.11-.51.51-.47.04,0,.1.01.12-.01.2-.24.48-.26.75-.25.63.02,1.2-.19,1.78-.36.54-.16,1.05-.4,1.58-.6.17-.06.36-.08.53-.14.22-.07.42-.16.64-.24.66-.25,1.32-.51,1.98-.74.44-.15.9-.24,1.41-.36v.58s-.02,0-.03,0c.02.14.03.27.05.41-.01,0-.02,0-.03,0,.01.13.02.25.03.42.04.01.14.04.3.09-.31.05-.27.16-.1.3-.37.16-.12.28.1.45-.14.05-.24.1-.35.14.02.03.04.06.06.09.09.05.19.11.33.19-.13.01-.21.02-.33.03.07.08.11.14.17.2-.24.21-.1.48-.09.73,0,.28-.01.57.01.85.02.33.09.66.11,1,.01.18-.03.36-.02.54.02.27.07.53.1.8,0,.06-.05.14-.03.19.05.13.13.25.2.39-.21.15-.27.38-.14.66.02.04.03.11,0,.15-.23.37.02.67.12,1,.01.04,0,.08-.01.12-.05.18.01.31.14.45.08.09.11.24.13.37.04.24.06.47.09.73.06-.03.13-.07.21-.11.02.36-.38.15-.44.42h.51c-.05.15-.11.31-.17.47.03,0,.05-.02.08-.02.06.11.13.22.16.34.12.39.14.77.07,1.18-.03.2.05.42.08.63-.02,0-.04.01-.07.02-.06-.16-.16-.32-.16-.48-.01-.33.03-.66.04-1,0-.12-.02-.24-.04-.36-.03,0-.06,0-.09,0-.02.43-.04.87-.05,1.3,0,.04.02.08,0,.1-.15.29-.07.58,0,.88.09.44.16.88.5,1.22.09.08.17.16.26.25.21-.28.2-.44,0-.63-.15-.14-.13-.2.11-.31-.08-.49.08-1.02-.2-1.52-.06.07-.11.13-.16.19-.03,0-.05,0-.08,0,0-.15,0-.3,0-.45,0-.21.01-.43.02-.64,0-.03-.01-.09,0-.1.25-.21.01-.3-.13-.43.28-.12.13-.3.1-.47-.05-.28-.06-.57-.1-.88.02-.01.08-.04.18-.1-.13-.15-.31-.27-.33-.42-.03-.18-.16-.29-.19-.44,0-.04.06-.12.12-.15.06-.03.14-.01.3-.02-.17-.17-.28-.29-.39-.4,0-.02.02-.05.03-.07.19.04.35-.18.56,0,.02.02.14-.07.22-.11-.26-.12-.49-.22-.72-.33l.03-.08h.32s.02-.05.02-.07c-.23-.11-.47-.22-.7-.33.34-.08.7-.16,1-.22-.19-.08-.45-.18-.7-.28,0-.02.01-.04.02-.06.14-.03.28-.05.42-.08,0-.02.01-.05.02-.07-.22-.1-.44-.2-.68-.32.15-.07.42,0,.31-.35.04.01.07.02.11.03.05.13.09.26.14.39.17-.05.17-.05-.02-.31.09-.03.18-.06.35-.11-.26-.08-.45-.14-.63-.2,0-.03.01-.06.02-.08.15,0,.3.01.42.02-.06-.21-.12-.42-.17-.61-.09-.05-.18-.1-.27-.15.11-.06.23-.16.35-.17.23-.02.51-.1.56.28,0,.04.09.08.06.12-.01.08-.03.16-.03.24,0,.31.04.63.02.94-.03.41,0,.5.38.66-.11.06-.19.11-.32.18.06.08.13.17.19.27-.04.06-.09.13-.15.2.09.06.18.12.27.18-.13.13-.21.31-.14.52.03,0,.05.02.08.03.04-.11.08-.23.15-.4v.52c-.08,0-.15.02-.22.02,0,.02,0,.04-.01.06.07.02.14.04.24.06-.22.07-.34.13-.14.38.1.12.02.39.03.6.01.3.03.6.06.9,0,.05.07.09.11.13.11.08.13.15.01.25-.05.05-.07.14-.1.22-.03.09-.05.17-.08.26-.03,0-.06-.01-.1-.02-.01-.27-.03-.55-.05-.89-.34.33-.09.65-.07.94-.12.05-.22.1-.31.15,0,.02,0,.05,0,.07.24-.07.44-.06.42.25-.07-.04-.14-.07-.2-.1.25.32.34.71.31,1.08-.02.27-.01.48.2.67-.03,0-.07,0-.1.01,0,.16-.03.33,0,.47.09.32.19.61.05.95-.03.08.14.22.15.34.05.36.06.73.09,1.09.01.15-.02.31.03.44.07.21.13.38-.02.59-.04.06.04.21.05.31.03.25.07.5.1.76.25-.27.31-.28.49-.08-.16.03-.29.05-.49.08.02.15.04.3.06.46.02.17.02.36.25.39.06,0,.12-.01.18,0,.05.01.1.06.15.09-.01.03-.02.07-.04.1-.16-.02-.32-.05-.55-.08.04.15.09.3.15.5,0,0-.04.08-.1.2.2.02.37.03.56.05,0,.07,0,.14.01.2h-.55c.05.28,0,.61.39.72h-.21s-.02.05-.02.07c.07.29-.06.61.19.87.04.04-.06.21-.05.31,0,.26.05.53.05.79,0,.08-.06.16-.09.24-.04-.05-.07-.11-.11-.16-.02-.03-.04-.09-.07-.1-.24-.07-.26-.31-.22-.45.15-.48-.08-.87-.21-1.29-.09-.28-.19-.56-.29-.85-.03-.09-.06-.17-.08-.23.02-.1.09-.23.06-.28-.08-.1-.22-.16-.33-.24-.02.02-.04.05-.05.07.05.05.1.11.16.18-.3.26-.23.48.09.65-.04.29-.15.56-.04.85.03.08,0,.19,0,.29-.01.16-.08.33.13.44.1.05.16.18.23.28-.02.02-.05.04-.07.05-.05-.06-.1-.12-.15-.19-.07.1-.14.2-.23.32.16.06.31.12.48.18-.12.1-.33.21,0,.32.01,0,.03.02.03.04.06.23.12.46.12.72l-.14-.11s-.05.01-.08.02c.13.64.26,1.28.39,1.94.02,0,.11.03.2.06,0,.02,0,.04,0,.06-.07.01-.14.02-.21.04.11.11.23.19.3.31.08.13.1.29.16.47-.09,0-.15.02-.23.02.07.09.13.17.19.26-.09.05-.17.08-.24.12,0,.02,0,.05.01.07.09-.01.17-.03.26-.04.02.16.03.33.05.51h-.15c0,.16.53.21.11.4.1.13.2.27.32.41-.09.06-.16.1-.28.18.14.04.23.06.32.09,0,.23-.01.46,0,.69.01.14.09.28.11.43.02.13,0,.27.01.41.02.12.07.24.11.36.09.26-.07.58.26.78.08.05.06.26.08.4.01.11,0,.22,0,.36.04.06.13.16.17.27.17.45.32.9.26,1.39,0,.05-.02.14,0,.15.25.12.16.38.25.56.06.12.07.27.13.39.08.19.18.37.26.56.08.17.22.33.04.52-.04.04-.03.19.01.24.09.12.21.21.33.31-.07.07-.12.13-.19.2.46.31.35.84.52,1.25.01.03-.01.08,0,.1.34.5.47,1.14.98,1.54.18.14.35.3.49.48.2.26.42.48.73.63.18.09.3.3.47.43.14.11.39.13.45.26.12.26.29.14.41.2.16.1.32.2.49.29.19.1.38.19.58.28.1.05.21.1.31.14.46.2.93.37,1.37.6.43.22.86.46,1.24.75.36.28.68.62.98.97.23.27.4.6.6.9.26.4.12.7-.35.76ZM77.87,57.85c.07.28-.08.3-.32.29.13-.12.23-.21.32-.29ZM78.6,66.03c.02-.18.03-.34.05-.57.19.29.17.44-.05.57Z"/>
      <path class="cls-1" d="M21.16,62.17s0,0,0,.01c0,0,.01,0,.02,0,0,0,0,0,0-.01Z"/>
      <path class="cls-1" d="M26.61,30.48c.21-.04.43-.08.64-.12,0-.04-.01-.07-.02-.11-.21.04-.43.07-.64.11,0,.04.01.08.02.12Z"/>
    </g>
  </g>
</svg>