<?xml version="1.0" encoding="UTF-8"?>
<svg id="Layer_2" data-name="Layer 2" xmlns="http://www.w3.org/2000/svg" viewBox="0 0 77 108.96">
  <defs>
    <style>
      .cls-1 {
        fill: #000;
        stroke-width: 0px;
      }
    </style>
  </defs>
  <g id="illustrations">
    <g>
      <path class="cls-1" d="M71.46,26.31c-.34.31-.65.66-.98.98-.27.27-.54.53-.82.79-.14.13-.3.24-.45.35-.05.04-.12.06-.18.1-.27.17-.54.34-.8.52-.15.1-.29.21-.44.31-.43.28-.86.56-1.3.84-.51.33-1,.68-1.52.97-.84.46-1.7.88-2.54,1.32-.24.12-.46.29-.7.4-.28.13-.57.2-.85.32-.09.04-.15.17-.25.2-.26.07-.54.11-.8.17-.05.01-.11.02-.16.04-.24.1-.46.22-.71.29-.7.2-1.42.37-2.12.57-.28.08-.57.17-.85.26-.16.05-.32.12-.48.18-.02-.03-.03-.05-.05-.08.09-.13.19-.26.28-.38-.01-.02-.03-.03-.04-.05-.18.16-.35.31-.53.47-.02-.02-.04-.05-.06-.07.2-.24.39-.48.57-.69.08.15.14.27.23.44.14-.16.3-.26.32-.38.04-.22.19-.27.34-.37.21-.13.42-.25.6-.41.12-.11.16-.29.25-.42.26-.37.56-.72.78-1.12.19-.34.49-.67.36-1.12,0-.01.03-.04.05-.06.13-.16.1-.37-.06-.47-.05-.03-.11-.05-.17-.08.14-.13.22-.21.33-.31-.08-.01-.13-.02-.21-.03.06-.09.12-.16.15-.24.07-.22.2-.12.28-.03.29.31.55.64.84.95.45.48,1.02.6,1.66.51.12-.02.25.02.38.01.15,0,.32.09.45-.1-.87-.42-1.73-.82-2.59-1.23.13-.32-.1-.51-.37-.71.53-.13,1.02-.25,1.51-.38.26-.07.52-.15.79-.22.29-.07.59-.14.88-.21.25-.07.5-.15.75-.22.53-.15,1.06-.3,1.59-.45.31-.09.63-.17.94-.25.22-.06.45-.14.67-.2.27-.08.53-.18.8-.22.42-.07.84-.1,1.26-.16.27-.04.55-.1.82-.13.17-.02.35,0,.52-.02.06,0,.12-.05.17-.08-.04-.05-.07-.12-.12-.15-.43-.28-.9-.31-1.4-.27-.86.08-1.66.34-2.47.59-.57.17-1.13.34-1.7.51-.49.15-.98.31-1.47.47-.36.12-.71.26-1.07.38-.07.02-.16,0-.23,0-.12,0-.24-.02-.35.01-.16.05-.31.16-.47.21-.21.07-.42.12-.64.15-.2.03-.41.05-.68.07.25-.18.42-.33.61-.44.3-.16.61-.28.91-.43.61-.3,1.22-.61,1.84-.89.31-.14.64-.21.96-.34.24-.1.43-.34.73-.3.17-.28.51-.3.76-.45.47-.28.97-.51,1.45-.76.26-.13.51-.27.78-.38.67-.28,1.36-.5,2-.82.84-.43,1.64-.94,2.46-1.42l-.03-.06c-.07,0-.16,0-.22.03-.33.2-.66.41-.99.61-.29.18-.57.39-.87.53-.69.31-1.4.59-2.11.87-.09.04-.21-.01-.36-.03-.12.12-.2.12-.49.06-.13-.02-.27.02-.4.03.05.1.1.2.16.3.01.02.01.04.04.11-.38.08-.75.16-1.12.24-.08.02-.17.02-.25.06-.25.12-.48.26-.73.38-.68.34-1.37.68-2.05,1.02-.14.07-.27.16-.42.23-.21.1-.42.18-.62.28-.46.24-.92.49-1.38.73-.16.09-.35.12-.51.22-.18.1-.33.24-.49.37-.27.21-.68.3-.74.73,0,.01-.04.02-.06.04-.37.29-.74.58-1.11.87-.19.16-.38.32-.58.48,0,0-.01-.01-.02-.02.05-.09.1-.18.15-.27-.02-.01-.04-.02-.06-.03-.22.34-.45.67-.67,1.02-.23.37-.49.71-.91.88-.12.05-.25.1-.33.2-.35.41-.76.77-1.08,1.21-.23.32-.57.56-.86.83-.09.09-.18.19-.27.29-.06-.09-.1-.16-.14-.23-.15.2-.32.38-.16.64-.2.25-.39.51-.61.74-.22.22-.48.41-.72.61,0,0,.01.01.02.02.09-.04.17-.08.32-.15-.06.11-.07.15-.1.18-.14.16-.29.31-.43.46-.06.07-.1.17-.18.21-.14.09-.31.13-.45.22-.11.06-.2.15-.3.23.05.05.1.11.15.16-.1.05-.23.12-.36.19,0,.01.01.02.02.04.11,0,.21,0,.39-.01-.22.2-.39.33-.53.5-.29.35-.55.72-.84,1.07-.16.19-.37.33-.55.49-.15-.06-.48.1-.52.25,0,.01-.02.04-.01.04.14.13,0,.21-.05.31-.02.05-.02.11-.03.18-.14-.08-.27-.14-.34.1-.02.08-.14.14-.21.21h0s-.01,0-.01,0c.07.03.14.07.26.13-.11.07-.2.12-.28.18-.11.09-.3.2-.29.28.02.2-.11.29-.21.41-.31.41-.63.81-.93,1.23-.17.24-.33.49-.49.74.03.03.07.07.08.09-.09.11-.19.19-.25.29-.28.46-.55.92-.83,1.38-.19.31-.38.61-.57.91-.1.16-.19.34-.3.49-.05.07-.18.09-.22.16-.24.36-.46.74-.69,1.1-.31.49-.64.97-.96,1.45-.07.11-.16.12-.26.03.04.05.07.1.12.17-.2.25-.4.5-.58.72,0,.05,0,.11-.02.15-.16.23-.34.44-.49.68-.24.37-.44.76-.68,1.13-.41.64-.85,1.27-1.25,1.91-.23.38-.4.79-.63,1.17-.33.53-.7,1.03-1.05,1.54-.21.31-.42.62-.64.92-.27.38-.58.74-.82,1.14-.16.26-.27.53-.45.79-.3.43-.5.94-.73,1.42-.15.32-.27.67-.44.98-.19.34-.42.67-.65.99-.12.16-.28.28-.4.4-.15-.19-.27-.34-.39-.48.2.05.29-.01.29-.21,0-.04.02-.08.03-.11.07-.2.14-.4.2-.6.04-.14.06-.3.09-.45,0,0-.07-.02-.12-.03.11-.18.21-.33.3-.49.04-.08.03-.19.07-.27.25-.51.5-1.03.75-1.54.14-.29.3-.58.44-.88-.12-.18-.07-.31.14-.47.13-.1.27-.22.35-.36.06-.1.02-.24.03-.39.14-.27.34-.56.45-.88.11-.33.15-.68.31-.99.14-.27.23-.56.37-.83.09-.18.25-.33,0-.56.1.02.15.03.22.04.06-.42.09-.84.19-1.24.1-.38.15-.77.31-1.13.11-.25.18-.52.28-.78.01-.04.05-.08.09-.1.23-.17.35-.55.25-.83.07-.06.14-.13.22-.2l-.06-.05c-.05.03-.1.06-.15.09-.01-.02-.03-.03-.04-.05.12-.13.24-.26.36-.39-.24-.21-.23-.21.15-.36.02-.14.03-.28.05-.4-.08-.05-.17-.09-.26-.14.18-.08.33-.14.5-.21-.12-.09-.18-.13-.25-.19.14-.05.23-.09.32-.12,0-.02-.01-.04-.02-.06-.09-.01-.18-.02-.33-.04.18-.09.29-.15.45-.23-.15-.08-.23-.12-.31-.16,0-.02.01-.04.02-.06.07,0,.15,0,.23,0,.02-.25.34-.43.17-.74.12-.07.24-.15.1-.32-.01-.02,0-.06.01-.08.14-.28.31-.56.43-.85.17-.43.3-.88.46-1.32.14-.39.27-.79.44-1.16.16-.34.24-.73.47-1.04.01-.02.01-.05.02-.07.14-.35.2-.75.64-.81-.04-.14-.07-.25-.09-.33-.23.16-.46.32-.75.53.14.01.2.02.26.02.01.02.02.05.04.07-.19.13-.38.26-.56.41-.05.04-.05.14-.08.22-.04.13-.08.26-.14.38-.09.16-.2.3-.29.46-.07.12-.12.24-.17.37-.08.21-.14.42-.2.63-.01.04.02.11,0,.12-.27.16-.24.47-.33.71-.03.07.02.18.04.25-.09.1-.21.2-.27.33-.21.45-.4.9-.58,1.35-.1.23-.19.47-.26.71-.15.53-.28,1.07-.43,1.6-.07.26-.18.52-.26.78-.01.05.03.11.05.21,0,0-.04.03-.06.08-.09.25-.17.49-.25.74-.16.47-.33.93-.49,1.4-.22.64-.42,1.29-.64,1.93-.16.45-.52.79-.53,1.34,0,.44-.26.87-.42,1.31-.14.38-.31.76-.46,1.14-.05.14-.02.32-.09.45-.31.64-.62,1.29-.96,1.91-.31.56-.38,1.23-.8,1.73-.01.02,0,.05-.01.07-.19.38-.39.76-.59,1.14-.03.05-.13.1-.19.09-.45-.07-.84-.3-1.23-.51-.09-.05-.18-.1-.3-.17.35-.19.14-.35.05-.48.05-.12.14-.21.12-.29-.03-.19-.04-.37.07-.54.08-.13,0-.27.03-.37.04-.18.19-.33.3-.48.04-.06.12-.08.2-.14-.12-.07-.19-.11-.27-.16.08-.1.16-.18.24-.28-.1-.06-.16-.1-.23-.13.03-.17.06-.34.08-.51.02-.11,0-.27.05-.32.18-.13.06-.27.07-.4,0-.06,0-.12,0-.17,0-.08.01-.16.02-.23,0-.12,0-.23.02-.35.02-.1.07-.18.11-.28-.09-.04-.17-.07-.27-.12.5-.3.06-.37-.09-.47.11-.09.21-.17.25-.21-.05-.13-.11-.21-.1-.26.03-.09.11-.16.17-.25-.04-.02-.11-.04-.17-.07.06-.14.08-.29.16-.36.13-.11.14-.2.03-.31-.08-.07-.17-.14-.26-.21.04-.07.08-.15.1-.19-.04-.13-.09-.21-.09-.3,0-.09.05-.18.06-.27.02-.11,0-.24.05-.34.1-.27.09-.5-.18-.67.07-.12.14-.23.21-.35-.02,0-.05,0-.07,0-.03-.08-.12-.19-.09-.24.07-.15.04-.25-.1-.32.03-.07.1-.14.08-.17-.21-.36.08-.69.04-1.04-.02-.2-.02-.45.14-.63.02-.02.01-.09,0-.1-.15-.11-.06-.18.03-.25.04-.04.09-.07.11-.12.01-.02-.02-.07-.04-.11-.02.02-.05.04-.07.07-.09.12-.19.24-.28.37,0-.01-.02-.02-.03-.04.07-.19.13-.37.21-.58.03,0,.11,0,.22-.01-.1-.17-.4-.1-.34-.36.02-.09.09-.17.14-.26-.11-.08-.16-.39-.08-.47l-.05-.47c-.05-.1-.15-.19.07-.29.04.1.07.17.12.27,0-.14.01-.25.02-.36-.06-.05-.11-.12-.18-.18-.04-.04-.09-.07-.13-.1.06,0,.13-.01.19-.02.03,0,.05.01.13.04-.12-.18-.22-.32-.32-.47.08-.06.15-.11.24-.18-.22-.1-.34-.23-.14-.44-.05-.05-.09-.09-.14-.14.12-.13.18-.27.06-.44-.03-.04.03-.14.05-.22.01-.04.05-.12.04-.12-.23-.13-.07-.34-.11-.51-.06-.27.04-.56-.06-.84-.06-.16-.02-.35,0-.53,0-.05.07-.09.09-.12-.03-.05-.08-.1-.08-.16,0-.27.05-.54.05-.81,0-.37.09-.74-.06-1.1-.01-.03,0-.08,0-.12,0-.15-.01-.31-.02-.46,0-.07-.06-.15-.03-.19.11-.18.1-.33-.05-.48-.13-.13-.17-.29-.04-.45.01-.02-.03-.08-.05-.13.23-.06.09-.2.02-.31.15-.17.21-.67.08-.81-.24-.25-.19-.59-.17-.85.02-.29-.13-.62.09-.89,0-.01,0-.04-.01-.07-.06,0-.11-.02-.2-.03.04-.06.06-.11.09-.13.14-.1.07-.22,0-.31-.04-.05-.12-.07-.19-.11-.03.1-.08.19-.1.29-.01.05.02.1.03.15,0,.05.02.1.02.14,0,.15.01.3.02.45,0,.04.03.1,0,.12-.12.15-.09.25.11.29-.22.16-.15.89.08,1.05-.2.08-.2.24-.2.42.01.26.02.53.03.79.01.48,0,.96.03,1.44.02.37.11.73.12,1.1.03,1.03.04,2.06.06,3.09,0,.12.07.23.1.34-.03.07-.08.15-.08.22,0,.62.02,1.24.04,1.86,0,0,0,.02,0,.02.04.46-.08.92.04,1.4.1.4.04.84.05,1.26,0,.34,0,.67,0,1.01,0,.29.1.59-.03.88-.01.03,0,.06,0,.09.02.42.04.84.07,1.26,0,.11.08.21.08.31,0,.29-.01.58-.02.87-.01.67-.01,1.34-.03,2.01-.01.44-.05.88-.06,1.32,0,.11.08.23.06.34-.04.33-.11.66-.16.98-.07.49-.1.98-.18,1.47-.06.38-.16.76-.24,1.11-.53-.11-1.01-.22-1.5-.32-.27-.06-.57-.05-.8-.17-.3-.15-.59-.1-.89-.13-.11,0-.23-.02-.32.01-.62.23-1.01.68-1.14,1.31-.09.44-.17.9-.14,1.34.04.47-.18.71-.52.93-.27.18-.38.43-.35.78.02.16.11.35-.03.53-.31.41-.58.84-.89,1.24-.12.15-.33.21-.5.32-.08.05-.17.09-.24.15-.38.37-.44.86-.29,1.31.18.56.02,1.06-.16,1.55-.25.7-.54,1.39-.84,2.07-.27.62-.55,1.24-.88,1.83-.65,1.15-1.33,2.28-2.02,3.41-.44.73-.78,1.51-1.29,2.2-.38.51-.66,1.08-1.01,1.61-.48.73-.97,1.45-1.48,2.16-.35.49-.73.95-1.09,1.43-.49.66-.97,1.32-1.45,1.98-.04.05-.07.12-.12.15-.44.26-.7.68-1,1.07-.18.23-.27.58-.67.55-.02,0-.04.03-.06.04-.51.13-.63.66-.97.97-.15.13-.22.35-.33.52-.09.15-.19.3-.28.45-.06.1-.1.23-.17.31-.21.22-.43.43-.65.65-.33.32-.68.64-1.01.97-.23.23-.44.49-.67.72-.31.3-.64.59-.97.88-.21.18-.44.33-.64.52-.4.37-.78.76-1.18,1.12-.18.16-.41.27-.59.43-.31.27-.59.58-.9.86-.37.32-.74.63-1.12.94-.06.24-.07.48-.07.71.07-.03.15-.04.24-.03.25.03.46.31.4.56-.03.12-.05.24-.06.36,0,.03,0,.05,0,.08,0,.05,0,.1,0,.15,0,.1.02.2.04.3,0,.02.01.04.02.06.01.04.03.09.05.13,0,.02.02.04.03.06.03.03.04.05.03.04.01.02.03.05.04.07.02.02.03.04.05.07,0,0,.02.02.03.03.02.02.04.04.06.05.02.01.04.03.07.05,0,0,.02,0,.04.03.02,0,.03.02.05.03.05.02.1.05.15.06.02,0,.04,0,.04.01.02,0,.03,0,.05.01.16.04.27.13.34.26.21-.07.42-.14.62-.19.81-.21,1.64-.32,2.47-.36.04-.04.07-.07.12-.09.19-.08.28-.17.3-.39-.12-.03-.25-.06-.37-.09.16-.07-.04-.39.26-.35,0,.06-.01.11-.02.17.16.02.32.08.45.03.11-.04.16-.21.26-.36.34.19.3-.39.53-.38.07-.11.11-.23.17-.24.12-.02.16-.07.21-.17.1-.19.2-.43.37-.51.3-.14.26-.35.24-.58-.01-.16.06-.23.22-.21.21.02.41-.02.56-.2.09-.11.21-.2.31-.31.14-.14.28-.28.39-.45.11-.16.16-.35.26-.52.15-.24.15-.27-.08-.44-.25.24-.25.24-.35-.1-.06-.2-.1-.42-.4-.37-.06.01-.13-.04-.13-.04-.04-.16-.06-.27-.1-.37-.04-.1,0-.14.07-.13l-.24-.06s.02.04.03.07c-.13.09-.26.25-.4.26-.19.01-.25.1-.33.23-.16.26-.55.43-.85.33.72-.3,1.18-.81,1.56-1.4-.04-.01-.12-.03-.18-.05.3-.53.59-1.04.89-1.55-.02-.01-.04-.03-.06-.04-.13.11-.26.22-.4.35-.11-.14-.26-.27,0-.41.02,0,.03-.04.04-.06.26-.28.52-.55.74-.78.54.39,1.04.76,1.55,1.13.04.03.09.04.13.04.09,0,.18,0,.26.01.54.14.86.61,1.31.9.41.26.79.58,1.21.82.26.15.57.24.86.3.28.06.55.1.78.3.17.14.35.29.56.37.26.1.54.13.81.21.74.24,1.48.5,2.22.74.03,0,.06,0,.09,0,.21-.1.56-.03.76.16-.2,0-.38,0-.53,0,.2.11.4.23.6.35.04.02.09.03.13.04.4.05.8,0,1.19-.09.13-.03.26-.03.39-.04-.03.1-.06.17-.08.24-.1.3-.29.39-.6.29-.04-.01-.11-.03-.13,0-.13.1-.25.22-.38.33-.21-.08-.46-.18-.68-.27-.06.09-.12.22-.16.21-.14-.01-.28-.07-.43-.12-.07.11-.14.21-.21.32h-.05c0-.14,0-.27,0-.45-.12.06-.23.11-.33.16.05.11.09.18.12.24-.04.04-.12.09-.11.12.01.14-.07.15-.16.14-.09,0-.21,0-.27-.06-.07-.07-.11-.19.06-.22.04,0,.07-.03.11-.04-.07-.05-.17-.02-.2-.06-.16-.19-.19-.03-.24.08-.02.04-.04.09-.06.13-.03-.4.05-.82-.33-1.11-.09.13-.19.27-.27.41-.08.13-.15.27-.23.41.19-.02.3,0,.3.18.2.01.46.41.38.57-.29-.33-.32-.34-.52-.09.08.04.15.08.22.13.05.03.08.08.12.13-.02.02-.04.03-.06.05-.06-.03-.12-.07-.19-.1-.06.11-.13.22-.18.32-.08-.09-.14-.17-.21-.25-.1.38-.19.72-.29,1.06.08-.04.12-.1.16-.16.07-.12.12-.25.21-.36.03-.04.13-.04.19-.05.03,0,.08.06.08.07-.02.05-.05.1-.09.12-.28.17-.27.3,0,.48.06.04.08.14.13.24-.17-.01-.28-.02-.37-.03,0,.15.01.27-.02.37-.03.09-.12.16-.22.29.15,0,.27,0,.44,0-.06-.14-.09-.21-.12-.28,0,0,.02-.01.03-.02.07.08.15.15.26.27-.13.12-.26.23-.38.34-.08-.11-.12-.17-.17-.24-.1.21-.18.36.13.41.09.01.15.19.22.3l-.06.05s-.07-.02-.08-.03c-.05-.12-.08-.27-.25-.22-.14.04-.31.07-.3.29,0,.02-.04.04-.06.05-.07.04-.13.07-.22.11.14.06.22.09.32.13.13-.11.27-.22.37-.3.08.06.15.12.22.18.03.03.06.06.09.09-.04.03-.07.08-.12.09-.14.03-.28.05-.4.08l.04.35h-.06c-.05-.1-.1-.21-.16-.33-.16.02-.35.01-.36.23,0,.14.07.29.11.44-.01,0-.03.02-.04.02-.07-.09-.15-.18-.23-.29-.05.09-.09.18-.14.26.22.19.42.22.61.04.02-.09.04-.19.1-.26.04-.04.13-.02.2-.03.01.03.02.05.03.07-.22.08-.13.38-.36.45-.02,0-.02.12,0,.16.02.03.08.06.12.06.06,0,.12-.04.24-.08-.09.15-.13.23-.18.3.22.05.43.1.63.14,0,.03-.01.06-.02.1-.08-.02-.16-.06-.23-.05-.21.02-.39.21-.63.13-.05-.02-.12,0-.18,0,.06.19.13.34.4.17-.15.2,0,.37,0,.55,0,.06-.03.12-.07.25-.07-.14-.1-.21-.14-.28,0,.01-.02.03-.03.04-.08-.05-.16-.1-.28-.18-.07.16-.19.33-.15.55.04.22-.03.29-.24.23-.07-.02-.13-.05-.22-.09.13-.06.24-.11.34-.16,0-.02,0-.03,0-.05-.11,0-.22-.02-.3-.02-.06.05-.14.12-.22.18-.04.03-.1.05-.11.08-.05.21-.24.35-.35.54,0,.1.02.2.03.31.15-.17.29-.09.48.25-.09.18-.31.29-.33.52,0,.03.02.05.03.08.13,0,.31-.11.3.17-.05-.01-.09-.04-.13-.04-.04,0-.08.01-.11.03.06.15.14.3.23.42.46.59,1.3.73,2,.78.05,0,.1.01.15.02,0,0,0-.01,0-.02.13-.15.26-.29.41-.45-.04.2-.05.4-.2.5.31.05.62.13.93.2.12-.17.26-.3.46-.39.16-.08.34-.1.5-.17.02-.01.04-.03.06-.04.05-.04.1-.07.15-.11.01-.01.05-.04.05-.05.01-.01.06-.08.07-.09.1-.18.18-.37.29-.54.09-.15.19-.29.36-.36.08-.04.17-.05.26-.07,0-.01,0-.02,0-.03,0-.06,0-.12.01-.18.02-.25.1-.51.18-.75.04-.14.1-.28.17-.41.05-.3.09-.6.14-.9.03-.15.08-.3.11-.45.02-.08,0-.17,0-.26.07-.4.15-.8.23-1.23-.07.04-.12.06-.16.09.24-.28.26-.61.31-.94.07-.48.16-.95.26-1.42.08-.36.19-.71.26-1.07.06-.31.08-.62.14-.93.11-.52.23-1.05.36-1.57.1-.41.24-.81.35-1.22.09-.33.16-.66.25-.99.05-.18.05-.39.15-.54.13-.21.13-.43.19-.65.04-.15.09-.29.15-.43.13-.37.28-.73.4-1.1.1-.3.18-.62.28-.92.08-.24.19-.47.26-.71.2-.68.36-1.37.6-2.03.32-.89.7-1.77,1.06-2.65.21-.51.44-1,.67-1.5.19-.42.38-.84.58-1.25.17-.34.37-.66.55-.99.24-.44.46-.89.7-1.34.12-.23.27-.44.4-.66.18-.34.32-.71.52-1.04.48-.76.99-1.5,1.47-2.25.22-.35.54-.64.6-1.08.02-.11.05-.23.12-.31.13-.14.29-.23.44-.36.28-.25.67-.37.81-.77.09-.24.26-.39.48-.5.06-.03.12-.07.17-.12.59-.5.76-1.21.95-1.91.14-.55.2-1.12.29-1.65.26-.1.5-.19.77-.3-.08-.09-.12-.13-.16-.18.03,0,.05,0,.08,0,.03-.17.06-.33.1-.55-.14-.03-.27-.05-.39-.07.13-.15.29-.31.44-.48.36-.38.55-.71.17-1.23.3-.35.35-.72.2-1.17-.17-.55-.64-.88-.97-1.3-.08-.11-.22-.19-.34-.25-.65-.35-1.36-.56-2.07-.7.17-.16.35-.31.52-.47.7-.7,1.19-1.57,1.9-2.27.51-.5.95-1.08,1.42-1.63.11-.13.2-.27.32-.39.21-.21.42-.43.64-.62.36-.31.64-.72,1.09-.93.46-.22.9-.45,1.35-.68.15-.08.36-.11.44-.23.12-.17.2-.09.27-.05.13-.13.25-.25.38-.37.09.17.17.21.32.1.3-.22.62-.42.93-.63.13-.09.27-.17.41-.23.2-.09.41-.17.61-.26.23-.1.44-.26.68-.32.28-.08.54-.16.79-.51.04.08.08.16.12.24l.03-.03c-.03-.06-.07-.11-.12-.2.29.06.48-.05.69-.17.36-.22.74-.38,1.12-.56.09-.04.19-.06.28-.08.16,0,.34,0,.44-.09.3-.24.64-.34,1-.4.21-.04.45-.1.62-.22.32-.23.69-.34,1.05-.5.04-.02.07-.03.11-.04.09-.03.19-.05.33-.09.33-.19.75-.25,1.17-.34-.01-.07-.02-.13-.04-.19.12-.01.26.01.33-.04.25-.18.48-.36.82-.35.15,0,.31-.12.46-.2.14-.07.29-.25.4-.22.26.06.42-.1.61-.18.3-.12.55-.35.89-.43.35-.07.68-.25,1.01-.39.13-.06.25-.15.38-.22.13-.07.26-.15.4-.16.22-.02.5-.19.55-.41.09.02.2.08.27.05.25-.11.48-.26.72-.38.25-.12.5-.23.79-.35,0,0,.01-.05.02-.08.09,0,.18.04.23.01.25-.13.49-.29.74-.42.22-.12.45-.22.67-.33.24-.13.47-.27.71-.39.25-.12.51-.21.68-.46.01-.02.06-.02.09-.02.13.02.25.04.37.06.08-.34.44-.56.72-.5.08.02.18-.04.27-.08.06-.03.11-.09.16-.12.48-.24.96-.48,1.46-.73-.21-.21-.38-.16-.54-.06,0,0,.03.09.04.12-.27.09-.55.18-.82.27,0,.02.01.05.02.07.05,0,.09,0,.14,0v.05s-.54,0-.54,0c0,.01,0,.03,0,.04.05.03.1.06.18.12-.08,0-.12.02-.16.02-.14,0-.28-.06-.4-.02-.22.06-.43.15-.64.25-.06.03-.08.13-.11.19-.02.04-.04.09-.06.13-.04-.02-.07-.05-.11-.06-.05-.02-.12-.04-.16-.03-.17.07-.33.16-.48.25-.32.19-.6.44-.98.49-.03,0-.08.02-.08.04-.02.22-.22.21-.35.26-.35.14-.71.26-1.06.4-.78.32-1.55.65-2.33.97-.48.2-.97.38-1.45.57-.06.03-.11.09-.16.14-.06.06-.11.16-.19.19-.25.1-.52.17-.78.25-.06.02-.11.06-.17.09-.2.1-.4.2-.61.28-.18.07-.37.1-.55.16-.3.11-.59.24-.89.36-.57.25-1.14.5-1.71.75-.55.25-1.1.52-1.66.74-.52.2-1.09.28-1.6.5-.45.19-.83.5-1.27.72-.55.29-1.13.54-1.69.8-.34.16-.67.3-1.01.45-.06.03-.17.09-.2.06-.17-.14-.3,0-.43.05-.45.2-.9.38-1.33.61-.58.32-1.13.69-1.7,1.03-.08.05-.18.07-.27.1,0-.07.03-.09.06-.11.78-.61,1.56-1.22,2.35-1.83.65-.5,1.29-1,1.94-1.49.6-.45,1.21-.88,1.82-1.33.32-.23.69-.42.93-.71.27-.32.61-.46.94-.66.05-.03.1-.05.16-.05.27,0,.49-.08.67-.29.05-.06.13-.11.21-.15.41-.2.83-.38,1.23-.59.18-.09.33-.25.49-.37-.01-.02-.02-.05-.03-.07-.34.07-.68.15-1.02.22,0-.02-.01-.05-.02-.07.03-.03.07-.09.1-.08.17.04.14-.26.34-.19.03.01.11-.17.19-.23.1-.08.25-.11.33-.2.21-.23.5-.23.76-.34.21-.09.44-.14.63-.27.34-.22.65-.48.97-.73,0,0,0-.03-.02-.06l-.56.23s-.04-.05-.05-.08c.05-.06.09-.13.15-.17.26-.16.54-.3.8-.46.1-.06.17-.18.25-.27-.11.04-.17.1-.24.14-.31.16-.62.29-.92.46-.16.09-.29.24-.44.34-.36.23-.73.44-1.08.67-.55.35-1.09.71-1.62,1.09-.53.39-1.27.43-1.65,1.08-.07-.11-.12-.2-.19-.27-.06-.05-.15-.08-.22-.11-.03.08-.06.15-.09.23.08,0,.16.02.22.02-.02.06-.04.15-.06.27.13-.03.2-.05.27-.06,0,.09-.04.15-.09.18-.68.49-1.36.99-2.04,1.48-.22.16-.46.31-.68.47-.33.24-.65.49-.97.74-.36.28-.71.58-1.08.86-.2.16-.41.31-.62.46-.29.21-.58.41-.86.62-.32.23-.61.53-.96.68-.37.16-.63.45-.95.65-.18.12-.32.31-.47.47-.11.11-.18.27-.31.35-.29.19-.6.34-.96.55.07-.18.1-.32.17-.43.25-.38.52-.74.76-1.12.19-.3.35-.62.54-.93.17-.28.36-.56.55-.86.03,0,.11.01.17.02.02-.09,0-.17.04-.22.2-.3.4-.59.62-.87.19-.25.41-.48.61-.72.16-.19.33-.39.5-.57.07-.08.15-.15.25-.24-.1-.1-.03-.2.1-.3.14-.1.29-.2.39-.34.19-.26.34-.55.51-.83.05-.09.09-.2.14-.32-.05-.08-.1-.19.12-.21.03,0,.07-.04.09-.07.16-.21.18-.52.46-.64,0-.06-.02-.13-.03-.19.3-.13.28-.4.33-.65.08.05.16.09.29.16-.06-.14-.09-.22-.13-.31.26-.05.5-.09.75-.14,0-.02,0-.05,0-.07-.2-.09-.42.09-.67-.03.12-.02.19-.05.26-.05.29,0,.29.01.26-.27-.07.06-.15.13-.23.2-.02-.02-.04-.04-.07-.06l.37-.66.08.02c.03.06.04.14.08.18.06.06.2.14.23.12.25-.21.57-.23.86-.33.05-.02.1-.07.14-.1.33-.27.64-.58.99-.8.63-.4,1.29-.76,1.94-1.14.38-.22.74-.46,1.12-.67.31-.18.64-.32.96-.49.29-.16.57-.33.86-.49.13-.07.26-.12.38-.21.22-.15.42-.33.65-.47.41-.27.83-.51,1.23-.78.46-.31.91-.64,1.36-.96.15-.1.3-.19.44-.3.42-.33.84-.67,1.26-1,.4-.31.82-.58,1.19-.92.35-.32.69-.67.94-1.06.14-.22.52-.29.43-.66,0,0,.04-.02.06-.03.13-.15.26-.31.38-.46,0,0-.02-.04-.04-.05-.13.12-.27.23-.39.36-.11.11-.27.22-.31.35-.08.32-.36.45-.52.69-.11.16-.3.26-.43.4-.12.12-.34.08-.41.27-.01.03-.19-.05-.23.09-.08.27-.33.36-.53.51-.86.61-1.71,1.24-2.58,1.84-.84.58-1.69,1.14-2.54,1.7-.42.28-.84.55-1.27.81-.18.11-.36.21-.55.3-.03.01-.09-.04-.14-.06l.03.06c-.31.15-.62.3-.93.44-.01-.02-.02-.04-.04-.06.13-.18.25-.36.39-.52.1-.12.24-.2.36-.31.27-.25.54-.5.82-.75.43-.4.92-.74,1.26-1.23.13-.19.25-.44.43-.52.2-.09.31-.23.44-.37.16-.15.31-.31.49-.44.24-.17.49-.34.76-.45.16-.06.28-.09.24-.24.23-.1.44-.19.71-.3-.19-.04-.31-.1-.4-.07-.18.05-.32.18-.49.26-.36.17-.68.43-1.01.65,0,0-.03,0-.04-.01,0-.35-.52-.98-.7-.95.04-.2-.01-.26-.21-.23-.04,0-.08,0-.11-.02-.33-.25-.65-.14-.96.05-.39.24-.79.46-1.26.52.05-.07.12-.12.18-.17.08-.07.2-.13.24-.22.18-.5.55-.86.87-1.25.3-.38.64-.72.94-1.1.35-.43.69-.88,1.03-1.32.07-.09.12-.2.16-.31.06-.18.39-.4.59-.37.04-.12.04-.28.11-.37.22-.28.47-.54.7-.8.28-.31.55-.62.85-.91.42-.41.86-.8,1.29-1.19.35-.31.72-.62,1.08-.92.19-.16.39-.3.6-.46.1.26.17.46.25.67.03.06.02.13.02.21-.02.16.02.37-.07.48-.19.24-.45.43-.68.64-.03.03-.08.08-.08.11.08.2-.03.35-.14.47-.32.32-.63.64-.98.93-.29.24-.62.42-.93.64-.14.1-.32.21-.39.36-.24.54-.52,1.03-1.16,1.16-.05.01-.1.07-.15.11-.1.07-.19.18-.29.19-.42.07-.51.42-.73.75.22-.08.4-.1.54-.19.39-.26.87-.22,1.29-.41.35-.16.77-.17,1.16-.26.19-.04.38-.12.57-.17.25-.07.51-.12.76-.18.23-.06.46-.12.68-.2.24-.09.47-.23.72-.32.16-.06.34-.06.49-.12.52-.2,1.04-.39,1.54-.63.46-.22,1.01-.24,1.4-.61.03-.03.08-.02.13-.03.01.01.02.03.03.04-.18.21-.36.42-.53.63.06.01.09,0,.11-.02.28-.27.52-.58.83-.79.29-.2.65-.31.98-.46.42-.19.83-.39,1.24-.58.11-.05.22-.08.32-.14.26-.14.55-.26.78-.44.2-.15.35-.38.52-.57.02.03.04.06.06.09.08-.03.16-.05.23-.09.07-.03.13-.08.2-.12.15-.09.31-.17.45-.28.38-.31.7-.72,1.21-.86.07-.02.16-.06.2-.12.22-.36.62-.52.93-.78.25-.21.51-.4.75-.61.23-.21.42-.44.64-.66.22-.22.46-.43.66-.67.08-.09.11-.23.17-.38.19-.01.36-.34.53-.6-.08.06-.17.16-.25.15-.23-.02-.33.16-.45.27ZM66.65,24.26c.21,0,.41.02.66.03-.23.18-.44.04-.65.03,0-.02,0-.04,0-.06ZM2.81,101.8s-.05-.08-.05-.12c0-.02.06-.05.09-.05.06,0,.12.01.18.01.06,0,.12-.01.21-.02-.09.15-.35.25-.44.18ZM3.04,101.26s-.09-.07-.14-.11c.08-.08.16-.15.23-.23.04.04.08.07.12.11-.07.08-.13.16-.21.23ZM4.15,101.32s0-.05,0-.07c.19,0,.39,0,.64.01-.21.21-.31.21-.64.06ZM5.52,100.07c-.07-.07-.15-.12-.15-.15.02-.07.08-.12.12-.18.05.04.12.08.13.13,0,.05-.05.11-.1.2ZM7.66,97.45c.09.28.07.3-.34.37.12-.14.22-.24.34-.37ZM7.53,98s0,.02,0,.03c-.06,0-.11.01-.11.01-.02.13-.03.23-.04.32-.02,0-.04,0-.07,0-.05-.13-.1-.25-.17-.41.15.02.26.03.38.05ZM7.02,97.21c-.04-.12-.07-.25-.12-.41.21.08.22.13.12.41ZM6.93,97.62c-.23.16-.28.14-.41-.18.17.07.28.12.41.18ZM5.74,97.31c.1-.17.18-.3.3-.5.06.15.1.25.13.33-.15.06-.26.1-.44.17ZM6.41,98.04c-.1.07-.2.13-.34.23-.02-.08-.06-.19-.04-.21.11-.09.24-.15.38-.01ZM7.1,95.61s-.04-.04-.06-.06c.1-.13.2-.26.32-.42.05.1.08.16.11.21-.13.1-.25.18-.36.27ZM10.18,93.32c-.28-.24-.55-.48-.83-.73-.02-.02-.02-.08,0-.1.02-.02.08-.03.1-.02.18.15.36.29.53.46.1.1.16.23.24.35l-.04.04ZM15.23,107.21c-.1-.06-.14-.08-.22-.12,0,.21,0,.39,0,.57-.13-.26-.3-.52-.11-.83.05.02.09.04.17.07-.11-.21-.22-.4-.33-.61.05-.03.12-.06.19-.09-.09-.27-.27.01-.41-.09.07-.08.15-.15.2-.21.13.01.23.02.39.04l.13,1.27ZM15.41,106.51c.06.18.02.4.03.6-.01,0-.03,0-.04,0-.02-.23-.04-.47-.08-.7-.01-.09-.07-.16-.09-.25-.02-.1-.08-.25-.03-.31.1-.12.17-.03.25.08.05.07.15.11.23.17-.19.08-.34.14-.26.41ZM16.55,103.51c-.14-.04-.25-.07-.35-.1.23-.05.42-.13.45-.41.14.21-.09.32-.1.5ZM17.33,101.45c.07.09.14.18.2.28.02.03-.03.09-.04.13-.04-.03-.1-.05-.11-.08-.04-.1-.06-.2-.08-.3.01,0,.02-.02.03-.03ZM17.75,107.17c-.04-.15-.08-.28-.11-.41.06.03.12.06.18.1,0,0,.01-.02.02-.03-.05-.06-.1-.12-.15-.18,0-.01.02-.03.02-.04.07.02.13.03.2.05.07-.09.15-.2.25-.32.06.55-.11.88-.41.84ZM17.94,106.56s-.05-.01-.08-.02c-.02-.05-.07-.12-.05-.14.11-.15.23-.28.35-.42.02.02.04.03.06.05-.1.18-.19.36-.29.53ZM17.67,103.78c-.1-.26-.05-.29.34-.23-.13.09-.23.16-.34.23ZM18.23,99.74c-.09.17-.2.34-.34.56-.16-.38-.42-.65-.35-1.09.11.06.2.12.29.17.11.06.24.1.34.18.04.03.08.14.06.18ZM20.26,99.32c.09-.23.16-.41.24-.61-.02-.02-.07-.05-.16-.11.08-.1.14-.18.21-.26.03.02.05.03.08.05-.09.31.2.72-.36.94ZM31.71,64.95c-.04-.13-.06-.21-.08-.3.22,0,.62.25.69.46.01.03-.07.13-.1.13-.11,0-.21-.05-.32-.08v.07c-.11.04-.23.11-.36.11-.88.03-1.75-.1-2.56-.45-.32-.14-.61-.4-.84-.66-.11-.12-.06-.39-.08-.65.48.19.88.44,1.41.46.62.43,1.47.51,2.25.91ZM31.71,66.07s-.07.08-.1.07c-.13-.02-.26-.06-.39-.09,0-.02,0-.04,0-.06.13,0,.27-.01.4,0,.03,0,.06.06.08.09ZM29.75,63.68c-.17-.04-.34-.07-.53-.11.17-.22.37-.18.53.11ZM24.85,64.64c.04-.24.04-.49.06-.73.03-.32.17-.57.4-.79.08-.07.14-.17.19-.27.14-.26.31-.47.65-.45.26.02.52.01.78,0,.25,0,.46.12.68.21.36.15.73.26,1.1.39,0,.02,0,.03,0,.05-.08,0-.17.02-.25,0-.54-.15-1.07,0-1.6.05-.33.03-.68.66-.61,1,.03.13.07.25.11.39-.09.1-.24.23.07.26.02,0,.05.03.06.06.19.49.6.76,1.01,1.03.17.12.33.26.48.4.15.13.26.29.51.26.09-.01.2.13.29.24-.07-.02-.14-.03-.21-.05l-.05.06s.09.02.12.04c.08.08.26.08.21.29-.01.06.18.24.38.19.26-.07.53-.09.79.16-.27-.04-.48-.08-.7-.11,0,.03-.01.06-.02.1.29.12.58.25.87.37.02,0,.06,0,.07,0,.11.3.38.3.66.28,0,.02,0,.05,0,.07-.05.04-.11.08-.2.15.13.01.22.02.26.02.06-.08.1-.15.12-.15.25.09.49.19.78.3-.16.08-.33.09-.31.3,0,.02-.15.06-.23.13l.34-.04c.21.15.43.31.64.46.02-.02.03-.05.05-.07-.05-.02-.1-.04-.21-.09.11-.07.19-.16.27-.17.09,0,.19.07.28.1,0,.03,0,.06,0,.08.12-.06.23-.11.36-.18.09.12.13.23-.08.24.02.05.04.12.08.16.05.05.11.09.18.11.09.03.18.03.32.05-.16.22-.26.39-.39.53-.19.18-.4.11-.62.02-.26-.1-.52-.17-.79-.25-.04-.01-.1-.01-.13-.04-.38-.26-.78-.51-1.14-.79-.41-.31-.76-.7-1.19-.97-.37-.24-.44-.69-.77-.92-.4-.28-.69-.7-1.18-.88-.21-.08-.37-.3-.56-.45-.02-.02-.07-.02-.14-.03,0-.02-.02-.09-.04-.2-.28.12-.38-.03-.5-.26-.19-.35-.52-.46-.93-.36-.33.08-.38,0-.33-.34ZM33.77,70.32c-.1.36-.43.52-.88.37.32-.14.6-.25.88-.37ZM32.67,70.45c-.12.04-.26-.37-.35.02-.06-.04-.13-.07-.15-.12-.02-.04,0-.14.03-.16.11-.06.42.11.47.26ZM25.71,66.5c.06.16-.01.25-.19.29-.1-.2-.2-.4-.29-.6-.02-.04.02-.09.03-.13-.08-.09-.16-.19-.26-.31.28-.17.53-.17.81,0-.18.23-.21.48-.11.75ZM24.2,67.07c.11.14.21.27.34.43-.26.1-.52.2-.82.31.17-.27.32-.51.48-.74ZM20.92,96.9s-.05-.01-.08-.02c0-.09,0-.18,0-.27h-.05c-.03.08-.06.17-.1.25-.04.08-.06.2-.12.24-.1.07-.24.12-.35.12-.05,0-.1-.15-.15-.23l.07-.06c.02.06.04.12.06.18.02-.02.04-.04.06-.06,0-.15.01-.3.03-.44,0-.01.11-.01.17-.02,0-.01,0-.03,0-.04.19-.06.37-.13.56-.19.02.03.05.05.07.08-.06.15-.12.31-.17.46ZM23.56,89.15c.15-.82.21-.95.48-.96.02.18-.28.78-.48.96ZM24.06,87.95s-.05-.03-.07-.04c.25-.55.5-1.09.76-1.64.03.02.07.03.1.05-.26.54-.52,1.09-.79,1.63ZM24.91,85.91s-.04-.02-.06-.03c.22-.45.43-.9.65-1.35.02,0,.04.02.06.03-.22.45-.43.9-.65,1.35ZM30.41,76c-.06.15-.13.31-.22.44-.26.4-.54.78-.79,1.18-.46.75-.91,1.51-1.36,2.26-.26.42-.54.83-.8,1.26-.32.53-.63,1.07-.91,1.62-.47.9-.92,1.81-1.37,2.72-.38.77-.76,1.53-1.09,2.32-.44,1.08-.84,2.19-1.24,3.29-.18.49-.28,1.01-.51,1.47-.13.26-.16.51-.2.77-.01.07,0,.15-.01.29.17-.52.31-.97.46-1.41.16-.45.31-.91.49-1.36.18-.43.27-.91.58-1.27.02.01.04.02.07.03-.24.71-.47,1.42-.71,2.12-.03.09-.07.18-.07.26.03.36-.26.59-.36.89-.19.61-.39,1.22-.57,1.84-.06.21-.13.32-.37.26-.14-.04-.3,0-.45-.01-.68-.01-1.36,0-2.03-.05-.25-.02-.48-.17-.73-.22-.34-.06-.69-.08-1.04-.12-.54-.05-1.04-.18-1.54-.42-.7-.34-1.44-.58-2.15-.9-.32-.15-.59-.4-.89-.59-.16-.1-.33-.19-.5-.24-.35-.1-.58-.35-.82-.59-.21-.22-.42-.43-.63-.64-.06-.06-.15-.1-.24-.17-.03-.1-.1-.23-.1-.37,0-.11.03-.25.1-.33.28-.34.58-.67.86-1.01.34-.4.68-.8,1-1.21.38-.48.73-.97,1.1-1.46.08-.11.2-.19.28-.31.1-.14.17-.31.27-.45.45-.65.92-1.28,1.35-1.93.33-.5.61-1.02.92-1.53.09-.15.19-.3.29-.46.23-.36.45-.73.68-1.09.37-.62.75-1.23,1.11-1.85.2-.34.36-.7.55-1.04.09-.16.22-.3.31-.46.43-.77.86-1.54,1.28-2.32.29-.53.61-1.06.87-1.61.22-.46.36-.96.55-1.43.1-.26.23-.51.34-.76.06-.15.14-.2.29-.09.06.04.15.04.24.07-.02.05-.03.12-.06.14-.23.12-.23.33-.17.52.12.4-.1.68-.27,1-.15.28-.4.51-.42.87-.01.15-.18.28-.25.43-.17.36-.33.72-.49,1.08-.24.51-.49,1.02-.73,1.53-.02.03,0,.08,0,.06.18,0,.35-.02.51-.02.02.04.04.07.06.11-.11.1-.21.21-.33.33-.08-.09-.16-.17-.27-.27-.18.28-.38.57-.55.87-.3.52-.58,1.04-.87,1.56-.16.29-.33.57-.48.86-.2.37-.4.75-.6,1.13-.12.23-.21.48-.35.7-.44.69-.91,1.36-1.35,2.05-.15.24-.25.51-.4.74-.11.18-.28.33-.4.52-.31.49-.6.98-.9,1.48-.08.13-.1.3-.32.31-.07,0-.13.14-.19.22-.28.33-.61.64-.83,1-.14.23-.33.39-.52.56-.19.17-.44.28-.41.61,0,.09-.18.19-.29.28-.1.09-.23.15-.31.25-.05.06-.02.17-.03.26.11,0,.22,0,.33-.02.04,0,.05-.09.08-.14.08-.11.15-.27.32-.04,0-.21.12-.25.25-.33.21-.13.39-.35.53-.57.14-.21.23-.43.54-.38.04,0,.13-.09.13-.14,0-.17.04-.25.24-.24.09,0,.21-.1.27-.18.27-.34.53-.69.79-1.04.09-.12.17-.25.26-.37.02-.03.06-.07.09-.07.27.02.31-.21.42-.38.22-.34.47-.67.7-1.01.34-.5.66-1,.99-1.51.27-.42.56-.83.82-1.25.28-.46.61-.9.75-1.44,0,0,0,0,0,0,.09-.14.2-.27.28-.41.23-.46.46-.92.68-1.39.05-.11.07-.24.12-.38-.08-.05-.19-.11-.29-.17.2-.15.41-.32.53-.42.11-.28.16-.51.28-.67.49-.69.87-1.44,1.2-2.23.22-.51.63-.95.85-1.46.14-.31.36-.52.55-.77.14-.19.31-.31.57-.2.11.04.25,0,.37.01.2.02.4.04.59.08.27.06.54.13.8.23.09.03.12.19.19.32-.13.02-.2.03-.28.04.46.11.68.7,1.28.63-.05-.09-.08-.13-.12-.2.17.05.32.1.49.15.01-.04.03-.09.05-.17-.27.01-.34-.18-.45-.43.5.24,1.11.09,1.36.7.01-.02.03-.04.04-.07.07.03.16.05.2.11.33.46.76.78,1.32.86.28.04.56,0,.91,0-.03.12-.06.24-.1.35ZM19.3,80.76c-.11.24-.22.47-.32.71-.12.03-.25.06-.44.1.09-.15.16-.27.26-.44.03.12.04.17.06.27.15-.25.27-.46.4-.66.02,0,.03.02.05.02ZM33.94,71.57c-.22.47-.45.94-.71,1.4-.16.29-.37.5-.75.55-.37.05-.72.22-1.09.3-.56.12-1.12.24-1.69.09-.04,0-.08,0-.12,0-.25,0-.44-.06-.63-.29-.27-.34-.61-.68-.99-.89-.62-.33-1.29-.56-1.95-.83-.08-.03-.2,0-.3.03-.23.06-.46.1-.65-.09-.05-.04-.06-.12-.09-.18.02-.02.04-.03.06-.05-.27-.11-.53-.22-.8-.34-.04-.02-.08-.06-.1-.1-.07-.09-.12-.19-.2-.31-.03-.09-.08-.22-.12-.35-.03-.09-.08-.21-.05-.28.16-.37.13-.77.27-1.14.13-.35.25-.71.39-1.07.03-.07.12-.14.19-.14.05,0,.12.08.18.14.26.25.51.52.78.76.32.28.66.55.99.82.13.11.26.23.41.32.1.06.22.07.33.12.11.05.22.12.34.18.01-.02.03-.06.03-.05.25.05.47.09.7.15.06.01.13.06.15.11.07.2.24.21.4.25.23.05.47.09.7.14,0,.02,0,.04,0,.07-.12,0-.24-.02-.36-.03,0,.02,0,.03,0,.05.27.05.55.09.84.14-.02.06-.05.14-.08.24-.18-.05-.36-.12-.4.12-.39-.09-.76-.17-1.13-.25l-.04.09c.06.03.13.09.19.09.36.04.69.09.89.45.06.11.25.16.38.24.01-.02.02-.03.03-.05-.02-.04-.04-.08-.07-.13.29-.03.3.27.48.37.02-.02.03-.05.05-.07.02-.04.04-.08.07-.11.01.05.05.11.03.15-.09.23.01.4.15.57.17-.05.33-.11.53-.17.18.11.29.07.42-.17.06-.12.16-.23.23-.35.1-.17.2-.34.31-.56.58,0,1.23.02,1.87-.33-.02.16-.01.29-.06.4ZM33.79,65.7c-.27-.25-.28-.54-.28-.87.7-.05,1.06.44,1.43.89.09.11.09.28.15.42.05.11.15.21.18.32.02.07-.05.17-.1.24-.05.07-.15.1-.2.17-.15.21-.34.26-.58.18-.35-.12-.69-.23-1.04-.36-.09-.03-.16-.11-.25-.17.21-.09.4-.14.57-.24.27-.15.32-.38.1-.58ZM33.17,67.42s.03.02.04.03c.17.46.59.35.92.36.41.01.82-.07,1.31-.12-.11.18-.17.31-.25.41-.34.44-.81.66-1.34.75-.13.02-.32,0-.4-.08-.17-.16-.3-.1-.47-.02-.1-.15-.15-.34-.38-.24,0,0-.02,0-.02,0-.28-.31-.72-.2-1.04-.43-.65-.46-1.46-.66-2.07-1.21-.06-.05-.13-.12-.14-.18-.03-.24-.2-.31-.39-.3-.27.01-.41-.21-.61-.31-.21-.1-.4-.24-.41-.53,0-.09-.08-.18-.13-.27-.03.05-.07.11-.12.2-.05-.14-.09-.26-.13-.39l.21-.02c-.03-.12-.05-.24-.07-.35.02-.01.04-.02.06-.04.06.04.13.08.16.14.26.47.73.68,1.15.95.11.07.21.17.32.23.18.1.38.17.57.25.06.03.13.06.18.11.43.46.98.59,1.57.55.57-.05,1.05.16,1.48.5ZM51.41,47.35s.04.07.06.11c-.35.21-.61.57-1.1.53.35-.21.69-.42,1.04-.63ZM36.72,58.23c.11-.12.28-.19.43-.28l.06.08c-.06.08-.11.16-.17.23-.08.08-.16.15-.24.23-.27.26-.56.52-.81.8-.38.42-.73.86-1.1,1.29-.02.02-.06.02-.14.04.18-.46.5-.76.79-1.07.4-.43.77-.88,1.18-1.3ZM49.72,39.6c.23-.11.46-.27.7-.29.25-.02.42-.19.64-.22.1-.02.23.06.34.12.07.03.12.1.18.16.53.5.43.49.05.99-.27.35-.63.64-.96.95-.34.33-.7.64-1.03.98-.47.48-.89,1-1.39,1.45-.5.45-.91.99-1.49,1.34-.51.31-1.02.61-1.52.91-.12.07-.24.16-.36.22-.09.04-.19.06-.34.09.34-.52.64-.97.94-1.42.14-.21.3-.4.44-.61.05-.07.06-.15.09-.23-.04-.02-.07-.04-.11-.05-.11.19-.23.38-.34.56-.09.14-.16.29-.27.41-.03.04-.14.02-.27.03.1-.17.16-.27.25-.41-.09-.19.02-.37.18-.55.14-.15.25-.34.37-.5.05-.07.11-.13.17-.19.02.02.04.03.06.05-.05.16-.09.33-.14.49.01,0,.02.02.03.02.03-.06.07-.11.1-.18.06-.13.12-.26.17-.39.01-.03.03-.08.02-.11-.12-.24-.03-.41.13-.61.36-.46.67-.97,1.02-1.44.17-.22.4-.4.62-.57.26-.21.53-.41.81-.58.28-.17.59-.29.89-.43Z"/>
      <path class="cls-1" d="M49.86,34.87c-.09.08-.17.16-.26.23-.08.06-.17.11-.25.15.02.33-.46.47-.37.87-.12.03-.22.11-.07.3-.29,0-.3.19-.38.38-.2.45-.33.95-.73,1.29-.11.09-.18.22-.27.34,0,0,.04.03.05.04-.18.4-.35.8-.55,1.19-.12.24-.27.47-.41.7-.05.08-.07.17-.11.25-.06.11-.13.2-.19.31-.03-.02-.06-.03-.09-.05.09-.2.18-.4.27-.6.07-.15.15-.29.23-.44.07-.13.13-.26.19-.4.24-.55.47-1.11.72-1.66.25-.54.52-1.07.78-1.6.16-.33.32-.67.5-.99.16-.28.34-.55.51-.82.15-.24.29-.47.44-.71.07-.11.14-.21.2-.32.03-.05.09-.13.07-.16-.1-.23.09-.35.16-.53.19-.42.35-.85.52-1.28.18-.45.38-.9.56-1.35.12-.31.22-.63.35-.94.04-.11.12-.19.18-.3.31-.6.61-1.22.94-1.81.2-.37.45-.7.67-1.06.08-.13.17-.27.23-.41.18-.4.46-.71.75-1.03.21-.24.37-.52.56-.78.03-.04.08-.1.11-.1.15.03.2-.07.27-.17.22-.3.43-.62.7-.88.42-.41.88-.77,1.32-1.15.17-.14.34-.3.53-.4.27-.14.56-.22.81-.32.08.08.15.16.23.24-.05.02-.11.05-.2.09.12.06.22.1.34.17-.12.06-.22.11-.31.17v.04c.08-.01.14-.03.28-.06-.03.17-.06.31-.09.48.02.01.09.04.19.08-.44.15-.13.63-.38.8-.02.24-.04.44-.06.65-.06.04-.11.09-.17.11-.26.08-.27.13-.01.38.06-.18.12-.33.18-.49.06-.02.16-.02.18-.06.15-.24.32-.47.42-.73.16-.41.26-.85.41-1.27.1-.3.24-.59.37-.87.02-.05.11-.07.18-.09.07-.02.15-.03.22-.04,0-.02,0-.04-.01-.06-.1.03-.2.06-.35.1.08-.29.17-.54.23-.79.05-.25.14-.47.37-.56,0-.1-.03-.18,0-.24.24-.7.46-1.4.73-2.08.22-.55.52-1.07.76-1.61.1-.23.18-.47.23-.71.05-.21.11-.35.36-.33-.07-.02-.14-.05-.26-.09.14-.26.27-.51.41-.76.02,0,.05.02.07.03-.05-.04-.11-.07-.12-.09.24-.76.54-1.48.38-2.35-.19.12-.38.19-.51.32-.83.77-1.65,1.53-2.46,2.32-.57.55-1.11,1.13-1.65,1.71-.6.65-1.21,1.29-1.79,1.96-.64.74-1.31,1.45-2.06,2.1-.51.44-.96.94-1.44,1.42-.48.47-.96.93-1.43,1.41-.38.38-.73.78-1.1,1.18-.67.73-1.36,1.45-2,2.2-.78.91-1.54,1.83-2.28,2.77-.3.38-.51.83-.77,1.25-.11.18-.25.35-.36.53-.21.33-.42.67-.63,1-.37.57-.76,1.13-1.13,1.7-.19.3-.34.62-.51.92-.08.14-.17.27-.26.42,0,0,.06.02.14.05-.24.4-.47.78-.71,1.17.17.15.16.19-.12.31.16.09.12.27-.09.4-.06.04-.13.06-.21.09.05.06.09.11.16.19-.13.08-.25.15-.38.23.02.08.1.21-.13.23.02.09.04.16.06.24-.02,0-.03.01-.05.02-.06-.12-.13-.23-.21-.39.19-.27.42-.58.62-.91.06-.09.07-.22.11-.33.08-.24.17-.48.25-.73.09-.28.15-.57.27-.83.17-.37.38-.72.58-1.09.13-.25.25-.51.39-.76.19-.34.39-.67.59-1,.58-.98,1.14-1.98,1.76-2.94.32-.49.75-.9,1.1-1.37.69-.92,1.44-1.79,2.23-2.62.66-.7,1.35-1.37,2.02-2.05.87-.88,1.73-1.77,2.62-2.63.57-.55,1.21-1.03,1.78-1.59.99-.98,1.94-1.99,2.91-2.99.81-.83,1.61-1.66,2.43-2.48.53-.53,1.09-1.05,1.65-1.54.22-.19.49-.32.75-.45.11-.06.2-.04.27.14.15.4.12.76,0,1.15-.13.4-.21.83-.31,1.24-.04.16-.1.32-.16.47-.02.04-.09.05-.09.05,0,.14.03.28-.02.38-.18.45-.37.9-.56,1.35-.16.37-.33.74-.52,1.1-.05.09-.16.15-.29.27.15,0,.23-.01.34-.02-.24.4-.48.78-.7,1.15.06.02.17.04.27.07-.13.21-.25.38-.34.57-.06.12-.07.26-.1.4-.09.34-.18.67-.26,1.01,0,.02,0,.05,0,.07-.12.37-.17.79-.38,1.11-.17.26-.16.56-.31.82-.16.26-.23.58-.35.87-.1.22-.23.43-.34.64-.02.03-.01.07-.02.11-.01.1,0,.21-.04.31-.04.12-.11.24-.18.39l-.17.02c.19.37-.32.31-.32.55.02,0,.05,0,.07,0,0,.12.06.29,0,.36-.16.19-.38.12-.64.06.07-.2.14-.39.21-.57-.01-.01-.03-.02-.04-.03-.07.11-.15.21-.2.32-.05.12-.04.26-.1.37-.06.12-.17.2-.23.35.16-.09.31-.18.47-.27.01.02.03.05.04.07-.06.02-.11.05-.19.08.05.03.09.04.13.06-.14.1-.27.21-.41.31,0,.02.02.03.02.05.13-.06.25-.12.38-.18.07.05.14.1.21.15-.04.04-.09.08-.15.15.08.04.14.07.26.13-.29.12-.64,0-.77.35-.16-.24-.15-.28.13-.48-.14-.1-.24-.03-.33.06-.23.24-.46.48-.68.72-.05.05-.07.12-.11.18.07.03.13.08.2.09.08.02.16.01.24.01,0,.03,0,.06,0,.09-.11,0-.23.01-.34,0-.25-.03-.29.08-.35.31-.07.28-.09.6-.36.8-.13.1-.28.19-.38.31-.15.19-.26.4-.38.6-.05.08-.06.19-.08.29.05.02.12.05.15.07-.11.02-.26.01-.34.09-.25.24-.48.51-.71.78-.05.06-.09.13-.14.21-.06-.03-.1-.06-.19-.12-.1.24-.19.46-.31.74.12-.04.17-.05.23-.07.02.07.03.13.05.21-.27.03-.35-.11-.35-.35-.1.06-.18.11-.25.16-.01,0-.03-.01-.04-.02.05-.1.1-.21.16-.3.16-.22.33-.43.51-.63.09-.1.21-.16.32-.24.04-.03.1-.06.13-.11.21-.31.4-.63.61-.95.08-.12.16-.23.25-.35.13-.17.26-.32.33-.55.04-.15.2-.31.35-.43.16-.13.25-.36.37-.55.04-.07.09-.14.13-.21-.04,0-.12-.02-.21-.03.11-.14.21-.28.34-.44.07,0,.18.02.27.03.14-.31.28-.63.42-.95.04-.09.09-.17.08-.28-.1.08-.2.16-.3.23.03-.21.16-.3.34-.34.16-.03.19-.12.17-.24l-.3.03-.03-.07c.35,0,.37-.24.44-.47.06-.2.18-.39.27-.58.03-.15.04-.3.1-.44.16-.4.16-.81.12-1.22-.02-.2,0-.4,0-.63-.05.02-.15.04-.24.08-.16.07-.31.15-.46.24-.15.09-.29.19-.41.31-.3.3-.59.61-.88.92,0,0,0,.01-.02.02-.44.23-.5.75-.82,1.08-.31.33-.57.71-.84,1.08-.24.33-.45.68-.68,1.02-.26.39-.52.77-.77,1.16-.05.08-.06.19-.08.29,0,.04,0,.09-.02.11-.23.18-.25.46-.35.7-.08.16-.16.32-.24.48-.09.17-.05.39-.22.54-.12.1-.18.27-.3.47-.02.17-.04.41-.25.62-.09.09-.1.26-.15.4-.04.12-.05.29-.13.36-.16.13-.05.23,0,.34-.03,0-.05-.01-.08-.02-.04.14-.08.28-.13.42-.06.17-.13.34-.22.57,0,0,.05.01.11.03,0,.01-.01.03-.02.04-.05,0-.09,0-.12,0-.06.55-.55.89-.66,1.4.11,0,.21.02.35.03-.07.14-.13.25-.2.39-.27-.33-.37,0-.4.11-.07.29-.31.21-.45.21-.28,0-.44.1-.47.38.15,0,.3-.01.45-.02h0Z"/>
      <path class="cls-1" d="M50.99,18.14c-.18-.35-.45-.66-.69-.98-.02-.02-.06-.03-.09-.04-.59-.21-1.16-.04-1.68.21-.51.24-.99.55-1.45.88-.39.28-.79.59-1.08.97-.31.41-.71.72-1.06,1.08-.18.19-.4.35-.56.55-.26.33-.5.69-.74,1.03-.2.29-.4.59-.6.88.07.05.11.07.18.11-.13.05-.23.1-.34.14,0,.01,0,.03.01.04.05,0,.11.02.22.04-.2.12-.34.2-.47.28.1.11.22.2.21.22-.1.21.06.23.19.29.11-.2.23-.39.34-.59h-.08c0-.12-.03-.24,0-.34.04-.16.17-.25.35-.26.09,0,.18-.03.26-.05-.06-.1-.11-.17-.14-.24,0-.02.06-.09.06-.08.05.03.1.07.1.06.06-.15.1-.39.2-.43.14-.05.22-.16.36-.2-.02-.08-.04-.15-.05-.18.16-.18.3-.33.44-.48.49-.53.97-1.06,1.46-1.58.09-.1.19-.19.3-.27.17-.13.35-.25.53-.37.11-.07.19-.23.38-.14.05.03.17-.03.23-.08.1-.1.16-.23.25-.35.05.05.09.09.09.09.13-.16.23-.3.34-.43.11.03.2.09.28.07.15-.03.28-.11.43-.14.27-.05.54-.13.79.08-.04.08-.07.14-.11.23.19-.03.29.02.3.21.01.19.06.37.1.63-.2.28-.45.62-.7.97.05.01.1.03.16.04,0,.03,0,.06-.01.08-.11,0-.21-.02-.35-.03-.03.03-.08.1-.13.17-.23.27-.46.54-.69.81-.02.02-.03.05-.05.06-.25.07-.34.25-.35.39-.55.54-1.05,1.02-1.55,1.51.06.04.11.08.19.13-.18.08-.28.24-.49.18-.08-.02-.26.06-.3.15-.25.53-.82.73-1.15,1.19-.13.19-.38.29-.56.45-.44.39-.88.79-1.31,1.19-.34.32-.62.71-1.12.79-.03,0-.06.04-.09.07-.1.08-.19.17-.29.25-.02-.02-.05-.04-.07-.07.23-.4.46-.8.69-1.21-.02-.02-.05-.03-.07-.05-.14.18-.27.36-.41.53.04-.23.09-.48.24-.63.23-.24.31-.54.45-.81.08-.16.08-.4.2-.49.28-.2.33-.49.49-.81l-.59.06c.07-.13.14-.25.2-.36-.09.02-.16.06-.19.13-.08.17-.11.37-.2.52-.28.46-.33,1.02-.67,1.46-.22.29-.33.65-.49.98l-.08-.03c.02-.13.02-.29.08-.4.23-.43.24-.89.31-1.35.09-.62.16-1.24.29-1.85.09-.41.15-.81.13-1.23,0-.17.06-.34.09-.51.03-.18.06-.37.09-.55.02-.11.02-.23.06-.34.1-.27.21-.54.32-.83.03-.02.11-.07.18-.12-.06-.05-.12-.1-.2-.17.08-.64.16-1.33.26-2,.11-.67.24-1.33.37-2-.01,0-.03,0-.04-.01-.04.16-.09.31-.13.47-.03,0-.06,0-.09.01-.04-.16-.17-.34-.12-.46.2-.5.06-.96-.08-1.42-.02-.07-.12-.12-.14-.18-.05-.18-.05-.39-.13-.55-.1-.19-.26-.34-.41-.5-.05-.05-.13-.08-.19-.11-.07.03-.15.08-.24.1-.16.05-.32.08-.48.13-.25.09-.41.29-.38.54.19-.1.38-.17.55-.28.21-.14.55-.05.66.19.04.1.11.19.16.29.08.16.17.32.21.49.04.2.12.4.06.63-.06.22.03.47.03.71,0,.63-.11,1.24-.32,1.84-.11.32-.27.62-.39.93-.04.11-.05.24-.09.35-.04.1-.11.2-.16.29.02.01.05.02.07.03.36-.59.61-1.24.86-1.89.12.34.1.68,0,1.01-.13.44-.15.93-.61,1.2-.05.03-.06.11-.09.16-.03.05-.04.11-.07.15-.16.21-.32.42-.48.63-.01.01.03.07.02.05.14,0,.25,0,.4.01.03-.07.07-.17.13-.34-.09.07-.13.09-.16.11.12-.22.17-.5.47-.51,0,.17,0,.33,0,.48,0,.21,0,.42-.04.63-.02.15-.04.34-.13.44-.12.13.06.16.03.25-.05.16-.09.33-.11.5-.03.21,0,.46-.37.46.4,0,.26.24.23.4-.05.32-.12.64-.18.96-.08.42-.13.84-.22,1.25-.08.37-.23.72-.27,1.09-.04.42-.23.77-.4,1.13-.05.09-.12.17-.18.26-.06-.11-.06-.21-.09-.3-.1-.26.03-.64-.42-.7-.03,0-.05-.13-.08-.2.06-.01.13-.05.18-.03.13.04.21.05.24-.11.04-.19.08-.37.12-.55.03-.17.06-.34.09-.51-.07.07-.09.15-.11.23-.01.04-.01.11-.04.12-.16.1-.15.09-.16.23,0,.17-.03.34-.05.57-.09-.2-.46-.17-.25-.45-.09-.14-.2-.26-.26-.4-.05-.12-.04-.28-.09-.4-.19-.39-.15-.8.01-1.16.18-.39.2-.79.26-1.19.06-.35,0-.73-.02-1.09,0-.13-.07-.26-.11-.39-.05.15-.07.3-.05.44.07.52.02,1.02-.11,1.52-.02.07,0,.15-.02.23-.01.07-.04.14-.06.21-.02,0-.05-.01-.07-.02-.04-.14-.11-.27-.12-.41,0-.38.03-.76.05-1.14-.03,0-.05,0-.08-.01-.03.17-.08.34-.09.52-.01.43,0,.87,0,1.3,0,.09-.08.19-.13.29-.27-.19.02-.57-.34-.73.04.39.08.74.11,1.09,0,.09.03.18.02.27,0,.23.12.49.27.54.01,0,.02.02.03.03-.05.04-.1.07-.2.15.13.04.21.07.29.09,0-.1.02-.19.01-.29-.01-.08-.05-.16-.09-.26.08-.02.14-.04.17-.05.13.32.24.63.38.92.06.14,0,.18-.1.21-.15.05-.18.15-.17.31.01.38-.01.76-.03,1.13-.01.22-.05.43-.08.65h.06c.11-.45.23-.9.34-1.35.23.02.26.19.3.34.04.14.03.31.1.43.14.24.13.47.07.72-.02.08-.02.16-.04.25-.02.15,0,.32-.07.45-.14.27-.22.52-.11.83.06.18.17.4-.04.58-.02.01,0,.06-.01.09.05,0,.09,0,.15,0-.09.11-.21.19-.21.28,0,.33.04.65.04.98,0,.1-.08.2-.13.3l-.06-.03c-.05.83-.09,1.66-.14,2.49,0,0,.06-.02.06-.04.05-.24.1-.49.14-.74.02-.1,0-.2,0-.31.02-.25.05-.5.07-.75.02-.19-.04-.43.06-.55.17-.21.22-.41.26-.66.04-.24-.08-.49.07-.73.04-.06-.03-.19-.03-.29-.04-.51.32-.91.38-1.39,0-.04.07-.07.1-.11.04.04.11.08.12.13.02.09,0,.19,0,.25.06.03.12.05.17.08.24-.39.57-.73.9-1.03.37-.34.78-.63,1.2-.9.15-.19.3-.37.45-.55.04-.05.17-.07.24-.04.14.05.17.01.22-.11.12-.34.39-.57.7-.69.19-.07.28-.17.38-.32.13-.19.29-.37.48-.5.1-.07.26-.04.39-.14.16-.12.26-.21.2-.35.28-.31.53-.6.79-.87.15-.16.19-.41.46-.46.09-.02.18-.09.26-.15.18-.14.36-.28.56-.44-.07-.28.24-.14.37-.23.02-.16,0-.34.27-.38.1-.01.26-.22.25-.33-.04-.3.29-.26.36-.44,0,0,.09.01.13.02-.09.12-.16.23-.24.33.03.03.06.06.1.09.17-.16.39-.29.51-.48.17-.29.32-.55.76-.56-.15-.1-.27-.17-.39-.24-.21.27-.43.53-.64.8-.03-.03-.06-.05-.1-.08.25-.3.49-.6.74-.9,0,.03.02.06.03.09.12.01.23.03.35.04v-.07s-.1-.06-.16-.1c.13-.14.25-.29.39-.44-.14,0-.26.02-.4.02.13-.16.23-.3.35-.44.05.11.08.17.09.2.09-.17.16-.3.25-.46-.17-.16-.18.1-.29.18.01-.15.08-.27.1-.41.03-.14.02-.29.02-.44.02,0,.04,0,.07,0,.01.04.03.07.04.11,0,.11.01.21.01.32.22-.14.35-.37.23-.59ZM45.21,24.8c.04-.23.27-.23.41-.34-.01.27-.25.25-.41.34Z"/>
      <path class="cls-1" d="M31.82,61.67c.06-.23.09-.47.17-.7.27-.78.37-1.61.59-2.4.19-.69.38-1.36.46-2.07.04-.4.18-.79.26-1.18.16-.74.22-1.49.27-2.24.05-.7.15-1.4.23-2.1.03-.24.03-.49.05-.74.03-.44.07-.87.1-1.31.02-.36.03-.73.04-1.09.01-.34,0-.7.06-1.03.02-.11.06-.15-.04-.23-.05-.04-.02-.16.02-.25.02.04.03.08.05.13.02,0,.03,0,.05,0-.02-.09-.04-.19-.06-.29.15.01.14-.08.06-.2.08,0,.13,0,.24.01-.15-.13-.25-.22-.36-.32l.06-.08c.07.05.15.1.21.14,0-.09,0-.18.01-.32-.04-.19-.5.03-.45-.38.39.35.24-.19.42-.22-.08-.03-.13-.05-.22-.08.04-.12.1-.23.11-.35,0-.04-.1-.1-.16-.15-.03.02-.06.04-.09.05,0-.13,0-.26,0-.4-.07.03-.13.05-.26.1.09-.2.16-.36.23-.52-.02,0-.05-.02-.07-.03-.02.05-.04.1-.07.17-.01-.1-.03-.17-.04-.25-.33.08-.4.04-.28-.24.11-.26.01-.47,0-.71,0-.13,0-.25,0-.38,0-.09-.03-.18-.05-.27-.03-.16-.06-.33-.1-.49-.15-.52-.12-1.06-.1-1.59.02-.54.01-1.08.05-1.62,0-.06-.03-.12-.05-.2,0-.05,0-.13.01-.21.01-.09.03-.18.04-.26.03-.19.06-.38.09-.58.02-.18.02-.36.05-.54.03-.21.14-.43.11-.63-.03-.2,0-.34.11-.49.01-.02.01-.05,0-.07-.14-.21.03-.29.11-.36.04-.18.05-.33.11-.46.08-.18.23-.27.43-.17.18.09.36.2.53.31.07.04.13.1.22.13-.1-.23-.26-.43-.13-.71.04.05.08.08.13.14.02-.06.03-.11.05-.18.03.03.05.05.05.07.05.2.08.4.13.6.15.53.34,1.04.47,1.57.08.35.1.71.13,1.07.04.47.06.95.07,1.42,0,.27-.06.54-.07.82,0,.21.02.42.04.64.11-.03.26-.08.42-.13,0,.05,0,.11,0,.18.21-.18.36-.58.27-.75.1-.05.19-.11.28-.16-.03-.03-.07-.07-.12-.11.05-.04.1-.08.15-.12.03-.03.06-.07.08-.1-.04-.02-.07-.04-.07-.04.17-.58.35-1.16.52-1.73-.54-.37-.89-.82-.92-1.5.27.2.52.39.79.57.19.12.3.06.35-.17.13-.56.27-1.12.37-1.69.07-.4.05-.82.1-1.22.02-.13.14-.24.22-.36.04.05.11.11.1.16-.06.55-.12,1.09-.2,1.64-.06.46-.14.93-.21,1.39,0,.03,0,.06,0,.09,0,.01.02.02.04.03.14-.15.28-.29.42-.45.04.03.07.06.13.1.04-.12.08-.22.12-.32.19.5.12.69-.34.95-.12.07-.21.2-.31.3.04,0,.07.02.11.03.02.1.07.21.05.31-.02.11-.12.17-.24.09-.17-.11-.23-.04-.25.13,0,.06,0,.11-.02.17-.03.1-.07.19-.11.31.01,0,.07.03.19.08-.13.03-.21.05-.32.08.02.1.04.2.06.3-.17.08-.28.32-.22.41-.19.36-.2.76-.49,1.13.13-.02.18-.03.29-.05-.07.08-.11.15-.16.17-.19.09-.38.58-.34.8.02.12-.03.25-.06.38-.05.25-.11.5-.17.75-.07.32-.15.65-.22.97-.03.14-.06.28-.1.41-.18.69-.36,1.37-.53,2.06-.07.26-.09.54-.18.79-.05.15-.17.27-.26.41-.11.17-.23.33-.31.45.03.13.07.24.09.35.02.2-.14.61-.11.8.05.24-.11.41-.07.66.07.32.05.69-.1,1.03-.07.18-.03.4-.06.59-.04.26-.1.52-.15.79-.03.15-.07.3-.08.45,0,.27-.03.53-.12.79-.07.22-.04.47-.07.71-.07.6-.16,1.2-.24,1.81-.04.3-.03.62-.1.91-.2.89-.4,1.79-.66,2.67-.25.84-.58,1.67-.88,2.5-.11.32-.24.64-.36.95-.02,0-.04-.01-.07-.02ZM36.12,40.25l.14-.15s-.03-.04-.04-.07c-.12.04-.24.07-.35.11,0,.03,0,.06.01.09.08,0,.17,0,.25.01-.05.04-.11.07-.15.12-.04.04-.09.09-.09.13,0,.12.03.24.05.36.02,0,.04,0,.06,0,.05-.12.1-.24.15-.36.05-.01.12-.03.18-.04,0-.02.02-.04.02-.06-.08-.05-.15-.1-.23-.15ZM34.08,35.13c.09.05.15.06.19.1.03.03.07.13.06.13-.16.09-.09.25-.11.38-.08.63-.06,1.28-.27,1.89-.04.13-.13.33-.07.4.16.22.02.39-.02.58,0,.04,0,.08,0,.12,0,.24.02.48,0,.71-.03.4-.11.8.03,1.2,0,.02.02.05,0,.07-.18.42-.06.84.02,1.26.04.18.16.34.24.5.02,0,.05,0,.07,0,.05-.11.11-.21.16-.31.11.31-.28.41-.3.58.14.17.28.28.33.42.12.36.19.74.28,1.11.02,0,.04,0,.06,0,.1-.39.2-.78.31-1.23.01.08.01.1.02.12.02.07.04.13.06.2.05-.05.11-.09.14-.15.14-.25.15-.54.21-.81.07-.31.07-.6.05-.9,0-.13-.05-.25-.06-.37-.02-1.11-.02-2.22-.07-3.33-.03-.78-.14-1.55-.21-2.33-.01-.13-.03-.25-.19-.32-.2-.09-.38-.22-.57-.32-.05-.03-.13-.02-.19-.03.01.07.02.14.04.22-.05.02-.11.06-.24.13Z"/>
      <path class="cls-1" d="M40.92,49.62s-.1.04-.14.02c-.21-.1-.35.01-.49.17.03.06.06.12.09.16-.16.2-.31.39-.47.59.05.04.12.09.17.13-.1.05-.26.07-.28.13-.06.24-.35.37-.32.61-.27.36-.53.7-.82,1.08l-.22.02c.05.06.08.09.09.11-.1.13-.2.26-.29.37-.1.12-.2.22-.32.35.09.02.15.04.23.06-.18.27-.39-.03-.56.05-.05.2-.2.42.09.59-.03-.01-.07-.02-.1-.03-.03-.02-.06-.05-.13-.1-.05.13-.11.25-.16.4-.04,0-.11-.03-.2-.05.03.24-.44.32-.18.57-.22.34-.41.65-.6.95-.19-.24-.19-.3,0-.56.03-.04,0-.12.01-.17.25-.52.48-1.05.77-1.54.35-.59.76-1.14,1.15-1.7.19-.28.42-.52.62-.8.18-.25.33-.52.49-.79.2-.34.42-.68.59-1.04.32-.65.62-1.32.94-1.97.18-.38.47-.72.59-1.11.21-.69.65-1.24.97-1.85.27-.5.59-.96.88-1.45.09-.15.14-.31.23-.47.12-.22.21-.47.47-.57.02,0,.05-.04.06-.06.21-.77.4-1.54.62-2.31.19-.7.4-1.39.6-2.09.03-.1.09-.18.13-.28.02-.05.02-.12.02-.18,0-.04-.02-.09,0-.13.12-.39.24-.77.35-1.16.18-.61.35-1.23.55-1.84.05-.16.2-.29.3-.44.12-.18.26-.36.35-.55.27-.56.52-1.14.8-1.69.14-.26.32-.5.41-.79.04-.14.21-.23.3-.36.12-.18.21-.38.34-.56.2-.26.42-.49.63-.74.03-.04.09-.09.08-.13-.03-.21.13-.27.25-.39.18-.19.33-.42.46-.65.18-.32.32-.67.5-1,.03-.06.16-.06.27-.1-.02-.06-.04-.15-.08-.26.2-.27.4-.56.62-.84.22-.27.47-.51.7-.77l-.04-.05c-.05.03-.11.07-.18.11,0-.04,0-.07.01-.08.55-.67,1.1-1.35,1.65-2.01.09-.11.26-.12.36-.27.17-.25.4-.47.63-.66.24-.19.53-.33.79-.5.01.02.03.04.04.06-.2.18-.42.35-.61.54-.58.6-1.22,1.14-1.68,1.85-.28.43-.62.82-.9,1.25-.36.56-.68,1.14-1.03,1.71-.21.34-.43.67-.62,1.03-.1.18-.25.34-.27.57,0,.08-.08.15-.13.22-.33.5-.66,1-.99,1.5-.17.26-.36.5-.52.77-.17.28-.33.58-.49.87-.09.17-.18.35-.27.53-.04.08-.16.17.06.18-.16.14-.29.25-.4.35,0,.07.04.15.02.21-.16.35-.33.71-.52,1.05-.1.19-.25.35-.38.53-.02.03-.06.06-.07.09-.05.15-.1.3-.17.48.13.06.12.2.03.37-.12.25-.24.5-.32.76-.1.3-.17.6-.24.91-.05.2-.18.23-.36.2.06.04.12.08.21.15-.12.11-.22.21-.34.31.07.03.14.07.25.12-.1.13-.19.26-.29.39.14.48-.01.93-.42,1.25.03.11.09.23.08.34-.01.11-.09.21-.15.34l.16-.02s.02.05.01.05c-.3.2-.1.52-.19.77-.13.37-.25.72-.44,1.06-.1.18-.17.38-.27.55-.06.09-.17.15-.25.23-.1.11-.19.23-.29.34-.04.05-.07.09-.11.14-.09.13-.27.24-.18.38-.08.38-.27.64-.51.87-.25.23-.49.48-.75.74.03.04.08.1.14.16-.39.25-.35.81-.76,1,.04.18.31.19.26.48-.07-.09-.11-.13-.17-.21-.17.29-.33.57-.53.9.16,0,.22-.01.3-.02,0,.29-.51.14-.41.46.1.05.19.09.34.15-.21.09-.35.16-.5.23.08.11.15.22.24.36-.12-.03-.2-.05-.24-.06-.1.18-.18.35-.27.51-.12.23-.09.33.14.45.06.03.11.1.17.15,0,0,0,0,0,0Z"/>
      <path class="cls-1" d="M71.84,13.33c0-.15-.04-.31-.11-.44-.16-.32-.82-.61-1.17-.52-.27.07-.55.13-.78.27-.77.46-1.55.91-2.28,1.43-.93.66-1.78,1.42-2.49,2.31-.65.81-1.27,1.65-1.69,2.61-.33.75-.72,1.48-1.03,2.24-.38.91-.59,1.89-1.08,2.76-.07.12-.1.28-.18.39-.13.16-.29.29-.43.44.12,0,.21-.06.31-.07.09,0,.26.02.26.05.02.14.14.32-.04.44-.12.08-.27.14-.41.16-.2.02-.33.12-.4.33.25-.11.5-.22.79-.35-.25.22-.47.41-.68.6.02.02.04.04.06.06l.43-.39c-.07.27-.25.42-.5.48-.46.11-.62.51-.82.87.28-.29.47-.67.92-.77-.2.21-.39.41-.59.62.01.02.03.03.04.05.23-.13.49-.18.66-.43.33-.48.7-.93,1.06-1.38.28-.35.6-.68.89-1.02.17-.2.34-.41.49-.64.2-.31.37-.64.56-.96-.34.24-.62.53-.78.91-.09.08-.26.15-.27.25-.03.19-.18.23-.26.36-.04.07-.07.14-.13.25-.14,0-.26.06-.23.28,0,.03-.05.09-.09.1-.21.05-.31.19-.36.4,0,.04-.08.07-.13.11-.01-.05-.06-.12-.04-.16.09-.2.19-.4.3-.6-.25-.03-.04-.16-.05-.26-.01-.31.13-.57.33-.76.37-.36.79-.68,1.18-1.02.57-.49,1.13-.97,1.71-1.45.04-.03.1-.03.2-.05-.07.17-.13.29-.16.42,0,.02,0,.05,0,.08.02-.03.04-.06.07-.08.69-.57,1.57-.76,2.4-1.04.33-.17.67-.31.98-.52.52-.35,1-.76,1.52-1.11.71-.48,1.27-1.08,1.58-1.89.04-.09.03-.24.09-.28.28-.17.13-.47.22-.69.01-.04-.06-.11-.08-.15.03-.12.08-.25.09-.37.04-.37.07-.74.09-1.11,0-.06-.05-.13-.05-.19.02-.18.08-.37.08-.55ZM71.46,14.31c.03.33-.07.62-.1.92-.12,1.14-.54,2.13-1.52,2.81-.42.29-.81.62-1.24.9-.32.21-.69.36-1.03.54-.09.05-.17.11-.24.19-.14.15-.47.27-.67.22.07-.18.12-.34.39-.33.16,0,.34-.11.48-.2.21-.14.4-.31.59-.47-.01-.03-.03-.06-.04-.09-.27.1-.54.19-.8.31-.35.17-.68.37-1.03.55-.04.02-.1,0-.15,0-.2.01-.4.03-.46.27,0,.03-.02.06-.05.07-.34.18-.69.36-1.03.54-.03.01-.07.02-.08.04-.09.21-.29.26-.46.38-.33.22-.61.5-.92.74-.22.17-.46.3-.7.46.03.05.06.1.1.17-.15.07-.29.13-.42.19l-.06-.04c.11-.19.24-.37.34-.56.17-.33.35-.64.63-.9.06-.06.02-.23.01-.35,0-.14-.03-.28-.04-.43,0,0,.01-.02.02-.02.43-.08.51-.46.65-.78.13-.3.22-.63.4-.9.49-.77,1.01-1.52,1.59-2.22.49-.59,1.04-1.12,1.66-1.58.51-.38.99-.79,1.5-1.18.51-.39,1.08-.66,1.69-.84.4-.12.72.1.86.5.13.36.09.73.12,1.09Z"/>
      <path class="cls-1" d="M59.96,42.36s-.12-.02-.14,0c-.22.22-.53.22-.8.31-.11.04-.22.11-.33.15-.11.04-.23.05-.33.08-.09.06-.17.14-.27.18-.36.15-.72.27-1.08.43-.17.07-.31.22-.47.31-.28.15-.57.28-.84.44-.57.35-1.13.72-1.69,1.08-.09.06-.19.09-.3.13-.04-.05-.08-.1-.17-.2-.1.21-.19.39-.27.57-.07.17-.18.29-.39.29.34-.16.12-.5.24-.79.03.09.04.12.05.15.01.03.03.05.07.1.07-.1.12-.18.19-.27-.06-.02-.1-.04-.14-.05.16-.18.31-.36.46-.54.03-.03.06-.08.08-.08.32.08.46-.25.73-.31.1-.02.16-.18.26-.27.43-.39.86-.8,1.31-1.17.49-.4.99-.78,1.51-1.13.42-.29.88-.52,1.33-.77.42-.23.83-.46,1.26-.67.19-.1.42-.12.62-.21.28-.13.54-.29.82-.42.2-.09.4-.2.63-.2.02,0,.05,0,.07-.02.14-.12.28-.24.41-.37.11-.11.18-.27.31-.33.41-.19.67-.55,1.03-.8.66-.47,1.32-.95,1.98-1.43.48-.34.98-.65,1.44-1.02.64-.5,1.24-1.06,1.88-1.56.33-.25.72-.43,1.09-.63.38-.22.76-.43,1.15-.64.11-.06.22-.09.35-.1-.44.38-.9.69-1.43.91-.13.05-.22.19-.33.28-.5.41-1.01.82-1.52,1.22-.41.33-.84.63-1.24.97-.25.21-.46.46-.71.66-.33.27-.7.49-1.01.78-.25.24-.48.46-.84.54-.11.02-.2.14-.29.21,0,.08-.01.17-.02.25-.02,0-.05,0-.07,0-.01-.05-.03-.1-.05-.19-.58.4-1.15.79-1.72,1.19,0,0,0,.02,0,.03.18-.06.36-.1.53-.18.18-.08.34-.18.52-.27.03-.01.08,0,.09-.03.18-.3.49-.15.73-.21.24-.06.46-.17.69-.26.22-.08.44-.15.65-.24.09-.04.21-.07.19-.23,0-.03.16-.14.21-.12.34.11.59-.06.84-.23.31-.21.61-.43,1.01-.47.09,0,.17-.08.29-.13-.14,0-.23,0-.35,0,.22-.22.49-.25.77-.08-.1.08-.2.15-.27.23-.06.07-.09.16-.13.24.03.03.05.05.08.08-.46.18-.92.37-1.38.56-.27.11-.53.24-.81.34-.18.07-.37.1-.55.15-.19.06-.36.15-.55.19-.34.06-.63.36-1.02.25-.04-.01-.11.02-.13.05-.1.17-.24.16-.4.07,0,.03.02.06.03.08-.08.04-.16.1-.25.13-.22.08-.45.15-.67.22-.07.02-.15.02-.22.04-.23.09-.46.19-.68.29,0,.03.02.06.03.08.15.02.3.03.45.05-.18.12-.44.02-.52.27-.4.04-.75.17-1.07.4-.11.08-.27.2-.37.17-.32-.1-.37.23-.58.31-.24.09-.47.22-.69.34-.12.07-.24.17-.35.26-.19.15-.36.32-.56.46-.23.16-.47.31-.72.45-.17.09-.36.15-.55.22,0,.02.01.04.02.07.47-.15.94-.28,1.4-.46.4-.15.74-.44,1.19-.49.17-.02.33-.17.5-.26.21-.12.4-.18.67-.13.21.04.46-.06.68-.14.47-.15.93-.33,1.4-.49.04-.01.1,0,.15.02-.02.05-.03.11-.07.15-.16.17-.34.31-.6.17-.04.25-.27.23-.43.32-.12.07-.24.14-.36.19-.49.19-.98.38-1.48.57-.1.04-.16.03-.13-.1.12-.08.24-.16.36-.25-.01-.02-.03-.04-.04-.07-.11.04-.22.08-.33.12.02.02.04.03.06.05-.02.05-.04.1-.05.14Z"/>
      <path class="cls-1" d="M51.86,12.23c.1-.1.19-.19.29-.29.26-.25.52-.5.77-.76.35-.35.68-.71,1.03-1.05.36-.35.73-.69,1.1-1.03.03-.03.06-.06.09-.08.3-.21.49-.5.66-.82.07-.14.2-.24.28-.37.06-.08.19-.13.13-.28-.01-.02.05-.1.1-.12.24-.11.36-.33.49-.54.22-.35.43-.71.63-1.07.03-.06-.02-.17.01-.21.1-.13.22-.24.34-.37-.02,0-.08-.03-.14-.06.1-.16.2-.32.31-.5.05.02.12.04.25.08-.04-.11-.04-.2-.09-.23-.14-.1-.1-.19-.05-.31.07-.18.1-.38.17-.56.03-.08.11-.15.14-.19-.02-.07-.07-.16-.05-.22.15-.53.12-1.07.02-1.6-.09-.47-.41-.74-.82-.97-.63-.36-1.19-.13-1.77.11-.12.05-.27.11-.13.29.01.02-.07.14-.12.16-.42.18-.77.5-1.24.56-.11.01-.19.17-.29.25-.26.23-.55.44-.79.7-.13.14-.2.35-.29.53-.04.08-.06.17-.12.23-.28.27-.46.6-.63.94-.13.24-.32.45-.47.68-.09.14-.14.32-.26.44-.09.09-.26.12-.4.18.05.04.14.11.25.19-.1.16-.2.31-.29.47-.04.07-.03.18-.06.26-.06.14-.12.28-.2.41-.09.14-.27.23-.15.44.01.02-.06.11-.1.14-.17.1-.19.22-.04.38-.01.02-.02.04-.03.06-.15-.02-.31-.01-.45-.06-.03,0-.02-.18-.01-.27,0-.05,0-.13.04-.16.25-.24.26-.61.44-.88.03-.05.1-.08.18-.15-.02-.02-.07-.08-.15-.17.39-.67.77-1.35,1.17-2.02.3-.52.58-1.04,1.02-1.49.47-.48.85-1.04,1.29-1.54.24-.28.5-.56.8-.77.22-.16.51-.24.78-.32.37-.1.74-.18,1.12-.24.18-.03.38-.01.55.05.32.11.64.24.91.43.16.11.24.33.36.5.12.19.24.38.37.59.02.12.05.28.06.43,0,.11,0,.23,0,.34,0,.07,0,.14,0,.2,0,.06-.01.14-.04.16-.25.11-.14.2.04.28-.1.1-.19.19-.29.28.04.05.07.08.1.12.14.16.08.36-.13.4-.14.03-.24.05-.12.22.07.1.11.23.18.38-.35-.03-.36.19-.36.41,0,.02-.01.05,0,.07.04.06.08.12.12.18-.08.03-.15.06-.22.09-.03.02-.09.06-.08.07.07.14-.03.28-.03.38.01.25-.12.25-.29.29.05.04.09.06.15.1-.15.2-.28.38-.43.57-.04.05-.1.1-.15.13-.27.11-.28.12-.09.35-.05.02-.09.04-.13.05-.04.01-.08,0-.11.01.03.11.1.22.08.29-.03.07-.16.1-.26.16-.03.43-.39.68-.63,1.01-.17.23-.31.49-.5.71-.21.25-.46.47-.7.7-.42.4-.83.79-1.27,1.18-.42.37-.85.73-1.3,1.07-.12.09-.3.09-.45.14-.02-.04-.05-.07-.07-.11Z"/>
      <path class="cls-1" d="M42.76,51.64s0,.05-.02.08c-.32.25-.65.49-.96.75-.18.15-.31.36-.5.5-.17.13-.38.21-.57.3-.02-.02-.04-.05-.06-.07.25-.24.48-.5.74-.73.2-.18.45-.32.66-.49.3-.25.59-.52.9-.77.08-.06.22-.06.34-.09-.01-.02-.03-.06-.08-.14.29-.17.61-.31.87-.52.13-.11.38-.17.37-.45,0-.12.13-.29.25-.37.79-.56,1.47-1.24,2.21-1.85.56-.46,1.12-.93,1.72-1.35.61-.42,1.26-.77,1.89-1.17.32-.21.63-.45.94-.67.51-.37,1.02-.73,1.61-.97.34-.14.64-.41.95-.63.57-.4,1.15-.8,1.71-1.22.35-.27.64-.6.88-.98.19-.29.37-.61.63-.82.61-.5,1.27-.94,1.9-1.4.33-.24.66-.49.99-.73.2-.15.42-.27.66-.43.01.08.02.12.03.17.12-.13.23-.24.31-.33.09-.02.18,0,.22-.05.23-.27.6-.33.86-.57.27-.25.61-.43.9-.65.26-.2.49-.45.76-.63.49-.33.89-.79,1.47-.98.11-.03.18-.17.27-.25.06-.06.12-.13.18-.19.02.02.04.03.06.05-.05.06-.09.12-.18.24.33-.2.59-.43.99-.47-.2.36-.52.48-.78.66-.18.12-.31.24-.57.19-.24-.05-.37.19-.46.4-.03.08-.06.17-.12.22-.17.15-.35.28-.53.42-.18.15-.34.33-.59.39-.09.02-.14.16-.22.24-.17.14-.32.29-.56.35-.17.04-.32.21-.46.35-.16.15-.31.29-.53.37-.16.06-.29.18-.45.29,0,.03.02.08.05.17-.08-.04-.13-.06-.16-.07-.1.09-.18.2-.29.27-.33.21-.68.4-1.01.61-.39.25-.76.52-1.15.77-.16.11-.34.2-.5.31-.33.25-.65.51-.97.77-.35.29-.62.64-.85,1.04-.17.29-.42.52-.76.67-.29.13-.54.37-.81.56-.4.29-.8.58-1.21.86-.48.33-.95.67-1.44.99-.79.51-1.6.98-2.38,1.49-.32.21-.61.47-.92.7-.44.31-.9.6-1.34.93-.46.35-.89.73-1.34,1.09-.21.17-.44.31-.62.5-.34.37-.76.63-1.14.95-.46.4-.94.78-1.42,1.17-.12.1-.26.17-.41.26Z"/>
      <path class="cls-1" d="M36.91,35.63s-.08-.1-.08-.14c.05-.52-.3-.96-.27-1.47,0-.14.05-.29.07-.43,0-.07-.02-.14-.04-.2-.02-.06-.04-.12-.07-.23.31.18.31.16.35-.15.04-.26.14-.52.22-.78.02-.05.04-.1.04-.16.07-.63.12-1.26.2-1.88.1-.73.23-1.45.34-2.17.02-.16,0-.33.02-.5.1-.7-.14-1.35-.33-2-.02-.07-.07-.15-.13-.19-.17-.11-.19-.23-.09-.34-.1-.26-.2-.5-.29-.73-.11-.26-.4-.48-.71-.48.1,1.16-.29,2.25-.51,3.37.04.02.1.06.16.09,0,.01,0,.03-.01.04-.06,0-.12,0-.17,0,.03.1.05.18.08.26.07.16-.1.19-.14.29-.07.19-.13.39-.21.57-.02.05-.09.09-.13.13.02.18.05.38.06.59.02.29.02.58.03.87,0,.29,0,.59,0,.9h-.13c-.07.28-.11.54-.04.82.04.14-.09.31-.14.48,0,.07.06.21.02.27-.16.21.18.59-.23.71-.17-.53-.17-.68.02-.95-.04-.16-.1-.29-.1-.42-.01-.29.02-.58,0-.86-.02-.31-.09-.62-.13-.93,0-.04-.03-.08-.01-.11.21-.41.16-.88.26-1.31.05-.2.02-.41.05-.61.06-.45.15-.89.21-1.33.02-.14,0-.28,0-.42,0-.12,0-.25.06-.34.16-.26.17-.52.14-.81,0-.09,0-.19.01-.28,0-.15.01-.3.02-.44-.03,0-.05-.02-.08-.02.07-.04.14-.09.21-.13-.01-.6.08-1.14.64-1.51.58.16.96.55,1.15,1.14.07.21.11.43.18.64.08.22.2.43.26.65.09.37.13.76.21,1.13.03.13.1.25.14.37.02.07.03.15.03.23-.02.66-.01,1.31-.08,1.97-.04.44-.2.87-.27,1.31-.1.58-.16,1.17-.25,1.76-.04.25-.1.5-.13.76-.04.35-.17.71-.04,1.07.02.06-.03.15-.05.22-.02.08-.04.18-.08.25-.06.09-.15.17-.22.26-.04-.09-.11-.18-.12-.27-.01-.24,0-.47,0-.71,0-.04-.03-.08-.05-.12-.02,0-.04,0-.06,0,0,.14,0,.29,0,.43,0,.12.01.24.01.36,0,.18,0,.36,0,.59.12-.07.17-.09.21-.11-.02.34-.04.67-.06,1Z"/>
      <path class="cls-1" d="M49.72,8.58c-.16.23-.21.71-.1,1.01-.2-.06-.38.08-.4.33-.03.38-.09.75-.27,1.09-.06.11-.08.24-.12.36-.07.19-.13.39-.22.64-.12-.12-.2-.2-.28-.27-.33-.25-.7-.33-1.09-.18-.21.08-.4.19-.6.28-.12.05-.28.04-.37.11-.23.23-.45.48-.65.74-.14.19-.24.41-.38.61-.15.23-.34.44-.47.68-.38.67-.74,1.34-1.09,2.02-.08.15-.3.31-.06.51h.01c.21-.07.3-.24.39-.43.04-.08.1-.14.15-.21.19-.28.38-.56.56-.85.14-.23.25-.48.41-.71.29-.42.6-.83.93-1.22.22-.25.46-.51.74-.67.25-.14.57-.19.86-.19.39,0,.66.3.66.7,0,.23-.02.47,0,.7.05.7-.37,1.35-1.03,1.55-.21.06-.29.27-.18.5.21-.2.43-.41.64-.61.08.03.15.06.25.11-.11.03-.21.03-.25.08-.27.34-.69.55-.84.99-.01.04-.03.11-.06.12-.32.1-.14.42-.27.6,0,0,.05.05.07.08.05-.03.1-.07.15-.1.06-.04.12-.08.18-.12.01-.02.02-.04.04-.06,0,0,0-.02-.01-.03-.06,0-.11,0-.17,0,.09-.04.18-.07.27-.11.54-.76,1.43-1.17,2.1-1.81.03-.02.05-.04.08-.06.12-.12.23-.23.35-.35-.15.02-.29.14-.41.12-.23-.04-.4.08-.53.2-.13.13-.22.09-.36.03.14-.09.26-.16.37-.24.17-.12.09-.24,0-.32.12-.55.23-1.08.34-1.61-.05,0-.11-.02-.24-.04.12-.05.18-.07.25-.09-.16-.27.25-.5-.04-.75.12-.03.18-.05.27-.08-.08-.1-.15-.18-.2-.23.04-.05.08-.1.12-.16.03-.04.05-.12.09-.12.17-.03.15-.15.1-.24-.06-.11-.14-.21-.21-.32.08-.06.17-.13.24-.18-.01-.13-.08-.28-.03-.36.1-.16.27-.28.36-.37-.02-.18-.06-.35-.05-.5.04-.29.35-.13.51-.28-.19-.1-.36-.19-.53-.29Z"/>
      <path class="cls-1" d="M59.45,10.89c.22.07.14.22.08.36-.15.35-.28.71-.46,1.04-.2.36-.45.69-.82.91-.18.1-.29.31-.44.46-.14.14-.29.27-.44.38-.26.19-.53.37-.79.56-.31.23-.63.42-1.02.5-.09.02-.16.12-.24.18-.03.02-.05.06-.09.07-.62.23-1.24.38-1.88.14-.01-.03-.02-.06-.03-.09.1-.05.21-.1.31-.14.04-.02.09-.02.13-.04.49-.33,1.02-.53,1.6-.63.46-.08.84-.37,1.2-.66.22-.18.42-.39.65-.56.27-.19.56-.35.87-.54-.22-.08-.19-.18-.06-.29.16-.14.33-.28.49-.44.43-.44.58-.98.45-1.58-.08-.36-.21-.71-.52-.95-.1-.08-.25-.1-.38-.15-.03,0-.07.02-.09.01-.3-.16-.52.04-.76.15-.16.07-.33.13-.49.2-.04.02-.08.03-.1.06-.2.47-.64.66-1.02.93-.32.22-.61.47-.84.8-.12.17-.35.26-.54.39.05.05.08.08.11.11-.31.19-.61.37-.89.57-.15.11-.27.29-.41.42-.04.04-.12.07-.18.06-.04,0-.1-.12-.08-.13.05-.06.12-.09.18-.14.01,0,.02-.02.05-.04-.06-.01-.11-.03-.21-.05.41-.29.78-.55,1.15-.82-.04-.03-.08-.06-.13-.09.31-.27.61-.54.93-.82,0,.02-.01-.04,0-.07.23-.21.46-.41.7-.61.48-.39.97-.78,1.47-1.14.15-.1.38-.09.57-.13.04,0,.07-.02.11-.09-.09,0-.18-.02-.27-.03,0-.02,0-.04,0-.06.28-.05.56-.12.84-.16.12-.02.26-.01.37.02.14.04.3.09.41.18.37.3.53.7.49,1.18,0,.07.06.16.11.22.18.19.18.26-.05.43-.02.01-.03.04-.05.08Z"/>
      <path class="cls-1" d="M66.44,42.26c-.15.06-.31.12-.46.18,0,.02,0,.03,0,.05.06,0,.13,0,.22,0-.33.25-.79.26-.93.61-.27.13-.48.23-.7.33-.3.14-.6.26-.89.41-.15.08-.27.21-.41.31-.21.16-.37.4-.68.4-.06,0-.12.14-.19.17-.37.18-.76.35-1.13.53-.2.1-.37.25-.57.35-.22.11-.45.18-.68.26-.26.1-.53.18-.8.28-.06.02-.1.1-.15.15-.15-.08-.28-.08-.36.1,0,0-.01.02-.01.02-.28-.15-.43.18-.69.17-.23,0-.45.14-.68.21-.11.04-.22.06-.32.1-.1.04-.19.09-.28.13-.34.15-.69.3-1.03.44-.25.11-.51.2-.76.31-.09.04-.18.11-.22.2-.1.21-.25.13-.35.1-.32.14-.54.42-.9.4-.08.04-.17.11-.27.13-.33.08-.67.13-1.01.21-.27.07-.46-.11-.68-.19-.01,0-.02-.14.01-.16.26-.18.53-.28.86-.3.29-.02.58-.15.86-.26.45-.17.9-.35,1.35-.53.73-.3,1.45-.6,2.18-.9.27-.11.54-.2.81-.31.12-.05.22-.15.35-.2.5-.2,1.01-.38,1.5-.59.26-.11.49-.29.75-.4.43-.19.88-.36,1.31-.55.27-.12.54-.27.8-.41.01,0,.03-.02.04-.02.32.05.55-.17.81-.29.72-.34,1.45-.69,2.17-1.04.32-.15.63-.32.95-.48.05-.02.11-.02.16-.04,0,.03.02.06.02.09Z"/>
      <path class="cls-1" d="M33.02,17.16c-.08-.12-.14-.21-.19-.3l-.08.04c.06.11.14.22.17.34.02.09-.02.2-.05.3-.03.09-.09.17-.12.25-.12.26-.25.53-.36.8-.11.27-.18.55-.29.82-.05.12-.18.21-.27.32.11.07.09.27-.06.43-.07.08-.14.16-.2.22-.05-.08-.11-.19-.15-.26.06-.25.1-.48.17-.71.07-.23.17-.45.26-.67.06-.16.09-.32.25-.45.14-.11.1-.4.3-.52-.12-.15-.01-.29.04-.42.06-.15.14-.29.23-.46,0,0-.04-.05-.07-.1.02,0,.05.02.07.03.2-.38.4-.77.61-1.14.29-.53.58-1.07.91-1.57.22-.34.5-.65.78-.95.45-.47.83-.35,1.11.22.18.36.24.74.2,1.11-.21-.14-.17-.37-.21-.59-.05-.29-.24-.51-.54-.58-.1-.02-.23.06-.38.1.15.28-.06.42-.19.6-.11.15-.19.31-.27.47-.13.24-.26.48-.38.72l-.06-.03c.07-.12.15-.24.22-.37.07-.14.13-.28.14-.46-.12.18-.24.36-.35.54-.12.19-.22.39-.34.58-.09.14-.21.26-.18.46,0,.07-.12.16-.21.26,0,.34-.26.64-.48.98Z"/>
      <path class="cls-1" d="M76.86,29.3s.05.06.08.09c-.08.1-.15.18-.21.26.12.05.19.08.27.1-.05.06-.11.13-.16.19-.05.06-.16.13-.15.19.02.26-.1.43-.29.58.04,0,.07-.02.15-.04-.05.15-.07.29-.14.39-.2.25-.29.54-.38.84-.05.17-.22.31-.33.47-.07.11-.11.26-.2.36-.17.19-.36.37-.56.55-.33.29-.67.57-1.01.85-.23.19-.47.38-.71.55-.06.04-.18.06-.25.04-.18-.08-.28.02-.39.12-.23.2-.4.47-.76.48-.13,0-.24.12-.37.15-.07.02-.16-.01-.24-.02,0-.02,0-.05,0-.07.12-.01.24-.02.35-.04.04,0,.06-.07.09-.11.02-.03.02-.07.05-.09.27-.2.53-.4.8-.6.09-.07.17-.14.26-.2.1-.06.16-.21.32-.14.04.01.11-.05.16-.09.27-.25.53-.51.8-.75.33-.3.69-.56,1-.88.2-.2.33-.48.5-.71.11-.15.24-.28.36-.43.02-.03.07-.06.07-.09-.05-.33.27-.51.33-.79.04-.19.03-.4.06-.59.03-.21.03-.44.13-.61.12-.21-.01-.27-.13-.35-.16-.11-.32-.26-.52-.04q0-.26.23-.25s.06,0,.09,0c.43-.06.53-.01.7.37.03.08,0,.18,0,.34Z"/>
      <path class="cls-1" d="M41.42,12.45c-.57-.08-.89.12-1.16.62-.11.21-.15.48-.31.65-.13.15-.19.26-.15.44,0,.02.02.04.05.09.12-.2.22-.39.34-.59.14.01.29.02.45.04-.01.05-.02.09-.03.09-.42.05-.38.59-.81.7,0,0-.03-.05-.07-.11-.02,0-.05.02-.07.03.01.06,0,.15.04.16.17.08.14.2.1.33-.03.11-.05.23-.1.33-.02.06-.09.09-.14.14-.06.05-.11.1-.2.18.14,0,.21-.01.28-.01-.04.05-.07.12-.11.16-.05.05-.12.08-.18.13-.03.02-.05.07-.05.1,0,.03.04.06.07.08.07.05.14.1.24.17-.18.13-.3.21-.44.31.04.01.06.02.09.03.06.01.11.02.17.03-.02.06-.02.15-.07.18-.19.15-.21.3-.03.47-.09.07-.18.14-.28.22.29.31-.08.39-.23.56.12.01.21.02.3.02,0,.02,0,.04,0,.06l-.24.02c.1.1.16.16.24.24-.15.53-.06,1.12-.29,1.66-.02,0-.04,0-.07,0,0-.1,0-.2-.02-.35-.14.05-.28.09-.49.16.08-.27.15-.48.21-.69.08.17.14.3.2.43.03,0,.07-.02.1-.02.01-.27.02-.54.03-.81-.02,0-.03-.02-.05-.03-.07.07-.13.15-.2.23-.04-.16-.11-.31-.12-.47,0-.12.06-.24.11-.35.04-.1.14-.19.14-.28-.04-.45.09-.86.24-1.28.17-.51.25-1.04.4-1.55.18-.61.41-1.2.61-1.8.06-.16.12-.33.19-.49.14-.31.43-.45.7-.59.26-.14.43-.02.63.36Z"/>
      <path class="cls-1" d="M68.63,32.37s-.09-.09-.14-.15c.66-.32,1.3-.63,1.94-.94,0-.01-.01-.03-.02-.04-.11.05-.22.1-.38.17.31-.31.7-.49.76-.34.07-.05.14-.09.26-.17-.11,0-.15,0-.2.01.35-.17.6-.58,1.09-.4,0-.03,0-.06-.01-.08-.08-.02-.16-.03-.28-.05.26-.11.37-.48.67-.35.33-.15.63-.29.98-.46-.13-.03-.19-.05-.34-.09.19-.05.31-.08.43-.13.38-.15.74-.36,1.13-.43.29-.06.59-.24.91-.09.05.02.09.06.13.14-.23,0-.47,0-.71,0,.02.03.05.07.09.14-.37.15-.69.41-1.13.45-.23.02-.44.28-.65.43-.05.03-.08.12-.13.12-.45,0-.75.31-1.1.52-.3.18-.58.38-.87.57-.39.24-.77.49-1.17.72-.31.18-.65.33-.96.51-.18.1-.34.25-.51.36-.17.1-.36.18-.53.27-.17.09-.33.2-.5.27-.16.06-.34.07-.51.11-.09.02-.18.06-.28.08-.01-.02-.02-.04-.04-.07.32-.2.63-.43.97-.61.34-.18.71-.33,1.08-.49Z"/>
      <path class="cls-1" d="M30.04,26.86s-.08-.02-.15-.03c.05-.17.1-.33.16-.52.12.08.22.14.29.18-.09.26-.17.49-.25.73,0,.02,0,.06.01.07.21.14.05.22-.06.3.09.24.24.46-.01.65.05.09.15.2.13.22-.08.1-.19.17-.26.23.03.14.1.29.09.44,0,.13.06.34-.19.37.01.13.37.3-.05.36.04.1.07.19.11.29l-.25.03c.09.05.14.08.22.12-.08.1-.15.18-.24.28.11.03.19.05.23.07-.04.34-.08.66-.13,1.01-.17,0,.17.41-.22.36.12.08.21.15.34.25-.1.11-.21.23-.35.38.17-.05.34-.11.23.17-.04.11.03.26.02.4,0,.07-.07.13-.09.2-.05.16-.09.33-.11.49-.02.14,0,.29,0,.44,0,.04-.08.08-.17.16l.25-.03c0,.1.01.19.02.29,0,.14,0,.29.01.43,0,.12-.01.24,0,.36,0,.09.03.18.05.31-.09.07-.23.16-.36.25-.02-.03-.04-.06-.07-.09.08-.06.15-.12.23-.18,0-.01-.01-.02-.02-.04-.06.02-.13.04-.22.07-.06-.26-.05-.49.09-.69-.03-.07-.08-.13-.08-.2.02-.87.04-1.75.06-2.62,0-.23,0-.46.02-.69.05-.56.09-1.12.18-1.67.06-.35.1-.7.12-1.06.02-.25.1-.49.15-.74.01-.08-.04-.17-.03-.24.04-.17.11-.32.16-.49.03-.11.16-.21.02-.34-.02-.02.07-.16.11-.26Z"/>
      <path class="cls-1" d="M51.61,8.98c.65-1.11,1.3-2.21,2.17-3.16.27-.3.6-.51.88-.79.35-.33.74-.62,1.11-.92.03-.03.05-.07.07-.1.05.04.09.08.17.15-.3.31-.59.62-.9.92-.28.27-.6.49-.85.77-.43.48-.82.99-1.24,1.48-.44.53-.89,1.05-1.34,1.58-.02.03-.06.05-.09.07Z"/>
      <path class="cls-1" d="M72.75,24.6c.25.02.29-.19.38-.35.12-.21.26-.41.37-.62.1-.2.17-.41.28-.6.1-.19.23-.37.35-.57-.04-.04-.09-.08-.15-.14.09-.15.19-.31.29-.49-.08-.01-.17-.02-.29-.04.21-.25.08-.4-.12-.57-.15-.12-.26-.29-.4-.46l.53-.05c.11.15.22.25.27.38.05.11.09.25.08.37-.02.21,0,.37.22.48-.05.08-.11.17-.17.26.06.02.1.03.16.04-.18.28-.35.56-.54.84.05,0,.09,0,.14,0-.05.1-.09.19-.14.28-.12.2-.12.49-.4.6-.02,0-.02.07-.03.1,0,.03.02.07,0,.09-.14.19-.28.4-.45.56-.14.13-.31.06-.39-.12Z"/>
      <path class="cls-1" d="M31.17,22.54l-.17.02c.04.06.08.12.13.19-.16.02-.27.08-.14.27.02.03-.03.12-.06.16-.08.09-.17.17-.25.25.27.23.24.54.08.62-.09.39-.17.74-.24,1.08-.01.06-.02.12-.03.17-.01.05-.03.1-.05.14-.03-.03-.07-.06-.1-.1-.04-.04-.07-.08-.1-.1.22-1.21.44-2.4.66-3.61.14.08.23.14.37.21-.08.05-.15.09-.29.16.08.06.14.11.19.15-.17.09-.18.12,0,.37Z"/>
      <path class="cls-1" d="M49.16,4.6c-.14.22-.28.44-.43.66-.26.4-.53.79-.79,1.19-.07.1-.1.23-.16.33-.06.09-.13.17-.22.29,0,0,.03.06.06.14-.09.04-.18.08-.28.12.15.2-.02.22-.23.26.11.04.16.06.18.07-.15.18-.31.38-.45.55-.02-.02-.07-.08-.15-.16.02-.05.04-.13.08-.19.12-.21.24-.42.37-.62.18-.26.37-.51.56-.76.04-.05.07-.1.11-.16.22-.34.43-.69.65-1.03.04-.07.1-.13.16-.18.09-.07.21-.08.11-.26-.06-.11.22-.27.43-.25h0Z"/>
      <path class="cls-1" d="M43.63,16.5s.01,0,.01,0c.04,0,.08,0,.14,0-.38.6-.75,1.17-1.11,1.72-.07-.26.19-.92.5-1.2-.05-.02-.09-.03-.15-.05.16-.22.27-.48.6-.45Z"/>
      <path class="cls-1" d="M45.9,18.25c.06.16.01.28-.16.34-.04.01-.06.06-.09.1-.13.16-.18.36-.37.51-.2.16-.31.43-.46.65-.04.05-.09.09-.13.14l-.08-.06c.17-.26.34-.53.5-.78,0,0-.04,0-.13-.01.15-.16.27-.31.42-.47.01,0,.08,0,.14,0l.03-.05c-.06-.02-.12-.04-.18-.06,0-.02,0-.05,0-.07.22.02.24-.32.5-.23,0,0,0,0,0,0Z"/>
      <path class="cls-1" d="M46.68,17.05c.05-.03.1-.07.15-.1,0,.04.04.1.02.12-.23.31-.46.62-.7.92-.07.09-.17.17-.25.26,0,0,0,0,0,0-.03-.06-.07-.11-.13-.22.2-.23.42-.48.66-.75-.05-.02-.09-.04-.13-.05.07-.17.15-.32.37-.17Z"/>
      <path class="cls-1" d="M44.85,11.42s.05.03.06.04c.04-.17.08-.32.13-.48.1.03.17.05.28.08-.11.17-.21.33-.3.49-.04.08-.07.16-.11.24-.14.27-.29.54-.43.82-.07.13-.14.16-.23.07.2-.42.4-.83.6-1.25Z"/>
      <path class="cls-1" d="M31.22,21.58c-.12-.06-.22-.14-.18-.33.04-.2.05-.41.1-.6.05-.19.21-.25.36-.15.04.02.09.08.09.11-.06.22-.13.44-.21.65-.04.11-.1.21-.16.32Z"/>
      <path class="cls-1" d="M46.77,8.22c0,.09.01.2-.03.28-.12.25-.25.49-.4.72-.1.15-.24.16-.37.01.23-.35.46-.7.69-1.04l.1.03Z"/>
      <path class="cls-1" d="M38.71,20.23c-.12.1-.23.19-.39.33-.13-.02-.15-.18-.13-.32.02-.13.31-.23.47-.16.13.05.22.13.22.3,0,.26-.04.55.06.77.1.23-.05.34-.1.5l-.04-1.37s-.06-.02-.1-.03Z"/>
      <path class="cls-1" d="M41.38,40.13c-.09.07-.17.13-.25.19-.03-.03-.1-.12-.1-.11-.12.09-.3.16-.17.41-.16,0-.29,0-.41,0,0-.03-.02-.05-.03-.08.19-.15.4-.28.55-.46.14-.17.22-.39.36-.64.05.21.08.36.12.5.02.08-.29.04-.08.18Z"/>
      <path class="cls-1" d="M46.16,9.48c-.28.41-.43.87-.73,1.23-.03-.02-.07-.05-.1-.07.08-.14.16-.27.26-.45,0,0-.05-.06-.09-.12.14-.22.28-.44.42-.65.08.02.15.04.24.07Z"/>
      <path class="cls-1" d="M38.39,31.14s-.05-.1-.05-.15c.02-.31-.08-.62.05-.92.03-.06,0-.15,0-.23-.04-.23.14-.37.25-.55-.07.63-.14,1.24-.21,1.85-.01,0-.03,0-.04,0Z"/>
      <path class="cls-1" d="M39.57,19.03l-.17,1.74s-.04,0-.06,0c-.19-.61.07-1.17.14-1.75h.1Z"/>
      <path class="cls-1" d="M49.16,4.6s-.04-.03-.06-.04c.11-.09-.07-.29.16-.37.12-.04.14-.31.24-.46.12-.19.26-.36.43-.58.07.24.07.38-.09.5-.32.25-.5.6-.69.95,0,0,0,0,0,0Z"/>
      <path class="cls-1" d="M65.02,45.11c.23-.07.43-.14.62-.2,0-.02,0-.04-.01-.07-.04-.01-.08-.03-.15-.05.15-.08.27-.17.41-.21.09-.03.2,0,.31,0,0,.03.02.07.02.1-.3.18-.6.37-.91.54-.06.03-.17-.06-.29-.1Z"/>
      <path class="cls-1" d="M15.64,104.39s-.1-.05-.14-.09c-.13-.13-.17-.12-.25.06-.09.19-.17.33,0,.51.03.03-.02.13-.03.2-.29-.05-.37-.21-.25-.45.1-.19.2-.38.33-.62.12.14.23.27.35.4,0,0,0,0,0,0Z"/>
      <path class="cls-1" d="M53.03,31.83c-.11.22-.08.4.15.53.03.01,0,.11,0,.12-.11-.01-.24-.07-.29-.03-.08.06-.1.19-.14.29.02.01.04.03.05.04l-.25.03h0c0-.08,0-.16.03-.23.1-.23.21-.45.33-.68.02-.03.07-.05.11-.08h0Z"/>
      <path class="cls-1" d="M49.85,34.88s.03.02.04.01c.13-.07.26-.15.4-.22l.05.07c-.08.08-.16.17-.26.26.07.01.13.03.2.04-.11.27-.22.31-.56.18.05-.11.09-.23.14-.34,0,0,0,0,0,0Z"/>
      <path class="cls-1" d="M53.03,31.83c.18-.3.37-.61.55-.91.02.01.04.02.07.04l-.3.51s.03.03.05.04c.06-.04.12-.08.18-.11.02.01.04.02.06.04-.11.16-.22.33-.33.49-.01-.03-.03-.05-.04-.08-.08,0-.16-.02-.24-.02,0,0,0,0,0,0Z"/>
      <path class="cls-1" d="M38.44,22.16c-.25-.35-.18-.82.21-1.08-.06.16-.13.32-.2.51.15.1.07.21-.08.29.1.09.18.16.25.24,0,.02-.01.04-.02.06-.06,0-.12-.02-.18-.03,0,0,.01,0,.01,0Z"/>
      <path class="cls-1" d="M40.9,22.29c-.15.43-.29.85-.44,1.28-.02,0-.04-.01-.06-.02.02-.47.24-.87.42-1.29.03,0,.05.02.08.03Z"/>
      <path class="cls-1" d="M52.56,32.81c.21.06.22.17.11.35-.1.16-.16.34-.24.52-.03,0-.05-.01-.08-.02.05-.2.09-.4.14-.61.02-.08.05-.16.08-.24,0,0,0,0,0,0Z"/>
      <path class="cls-1" d="M16.84,98.62c-.16.11-.24.26-.24.46,0,.09-.07.18-.11.26l-.11-.04c.06-.23.11-.46.2-.67.01-.03.18,0,.27,0,0,0,0,0,0,0Z"/>
      <path class="cls-1" d="M72.53,21.37c.05-.15.26-.32.46-.36-.02.06-.03.12-.05.19.07.01.12.02.21.04-.22.16-.42.16-.63.12,0,0,0,0,0,0Z"/>
      <path class="cls-1" d="M38.28,32.25c.02-.33.05-.66.07-.99.02,0,.04-.01.06-.02.03.08.09.16.08.23-.03.27-.08.54-.13.81-.03,0-.05-.02-.08-.03Z"/>
      <path class="cls-1" d="M15.96,101.13c.14-.2-.08-.61.45-.64-.06.09-.09.16-.14.19-.19.14-.2.15-.02.31-.08.06-.16.13-.23.19-.02-.02-.04-.04-.06-.06Z"/>
      <path class="cls-1" d="M59.27,27.35c.09-.07.17-.14.26-.19.1-.06.21-.09.31-.13-.08.32-.12.36-.57.32Z"/>
      <path class="cls-1" d="M66.45,44.37c.28-.15.52-.35.87-.33-.24.24-.74.43-.87.33Z"/>
      <path class="cls-1" d="M50.79,13.29c.09-.12.18-.25.26-.35.14,0,.26.02.45.03-.25.14-.46.26-.67.38-.01-.02-.02-.04-.04-.06Z"/>
      <path class="cls-1" d="M55.57,30.63c-.07.04-.14.08-.25.15.1.02.16.04.23.05-.06.21-.17.23-.49.08.16-.13.31-.24.46-.36.02.03.04.06.06.09Z"/>
      <path class="cls-1" d="M68.25,43.51c-.34.07-.53.45-.88.5-.01-.03-.03-.05-.04-.08.3-.17.6-.34.89-.51,0,.03.02.06.03.09Z"/>
      <path class="cls-1" d="M53.14,15.83c-.11-.07-.21-.13-.32-.2.17-.22.33-.19.5-.06-.05.08-.1.16-.17.27Z"/>
      <path class="cls-1" d="M36.04,34.18c.04-.26.09-.51.13-.76.05.12.26.19.13.38-.07.12-.16.23-.26.37Z"/>
      <path class="cls-1" d="M57.53,27.63c-.16.17-.31.32-.46.48-.11-.25.07-.43.46-.48Z"/>
      <path class="cls-1" d="M59.32,36.25c.19-.23.36-.42.54-.63,0,.22-.34.64-.54.63Z"/>
      <path class="cls-1" d="M72.53,21.37s0,0,0,0c-.06.24-.3.46-.56.41.22-.16.4-.28.57-.41Z"/>
      <path class="cls-1" d="M41.16,20.38c-.07.3-.14.6-.21.91-.14-.12-.13-.13-.04-.27.06-.1.1-.22.13-.34.03-.1.03-.21.05-.31.03,0,.05.01.08.02Z"/>
      <path class="cls-1" d="M35.76,29.59c-.09-.08-.16-.12-.19-.19-.03-.07-.03-.16-.02-.24,0-.02.12-.05.13-.04.04.06.08.13.09.2.01.07,0,.15-.01.27Z"/>
      <path class="cls-1" d="M46.87,40.76h0s-.01,0-.01,0c-.01.04-.01.08-.03.11-.08.1-.16.19-.26.3.02,0,0,0,0,0-.05-.18.12-.49.29-.5,0,0,.02.06.03.09Z"/>
      <path class="cls-1" d="M30.16,25.8c.12.07.2.12.28.17-.09.1-.17.19-.25.27h-.07c.01-.14.03-.27.05-.45Z"/>
      <path class="cls-1" d="M40.2,24.24c-.09.25-.18.5-.27.74q-.06-.18.27-.74Z"/>
      <path class="cls-1" d="M59.97,35.58c.06-.38.39-.48.54-.74.02.02.04.03.06.05-.19.22-.38.44-.6.68Z"/>
      <path class="cls-1" d="M38.52,25.52c.2-.05.33-.09.5-.14-.03.1-.06.19-.1.31-.13-.05-.24-.1-.41-.17Z"/>
      <path class="cls-1" d="M19.25,98.01c-.11-.07-.22-.13-.32-.2,0-.03.02-.06.03-.09.08,0,.17,0,.22.03.07.04.1.13.15.2-.03.02-.05.04-.08.06Z"/>
      <path class="cls-1" d="M8.05,95.58c.09-.02.18-.06.27-.06.05,0,.1.05.15.08-.05.04-.12.13-.16.12-.09-.02-.17-.09-.26-.14,0,0,0,0,0,0Z"/>
      <path class="cls-1" d="M52.06,13.81c-.1.1-.18.18-.27.26-.03-.04-.09-.1-.08-.11.06-.09.13-.17.21-.24,0,0,.05.04.14.09Z"/>
      <path class="cls-1" d="M52.95,45.87c-.16.11-.32.22-.49.33-.02-.03-.04-.07-.06-.1.17-.09.34-.19.51-.28.01.02.02.04.04.06Z"/>
      <path class="cls-1" d="M41.01,20.22c-.08.2-.15.36-.23.55-.06-.25.03-.49.23-.55Z"/>
      <path class="cls-1" d="M38.87,28.64c-.06.16-.12.33-.18.49-.03,0-.05-.02-.08-.03.05-.17.11-.33.16-.5l.09.04Z"/>
      <path class="cls-1" d="M36.43,30.8l.06.59s-.04,0-.06,0l-.06-.59s.04,0,.06,0Z"/>
      <path class="cls-1" d="M67.16,41.74c.07-.07.15-.13.26-.24.03.1.07.21.06.22-.09.05-.19.07-.29.11,0-.03-.02-.06-.02-.09Z"/>
      <path class="cls-1" d="M49.37,48.82c.19-.09.39-.18.58-.28l.04.07c-.19.1-.38.19-.57.29-.01-.03-.03-.06-.04-.08Z"/>
      <path class="cls-1" d="M43.98,13.15c.09-.14.17-.28.26-.41.03.02.06.04.09.05-.09.14-.17.28-.26.42-.03-.02-.06-.04-.08-.06Z"/>
      <path class="cls-1" d="M38.44,22.16s-.01,0-.01,0c.03.08.06.17.09.25l-.06.06c-.06-.05-.12-.09-.18-.14.06-.06.11-.11.17-.17Z"/>
      <path class="cls-1" d="M15.96,101.27c.22.23.05.28-.15.4.07-.17.11-.28.15-.4Z"/>
      <path class="cls-1" d="M8.07,94.64c.1,0,.2,0,.3-.01-.01.04-.01.11-.04.13-.1.07-.2.1-.26-.12Z"/>
      <path class="cls-1" d="M55.03,29.01c-.1.14-.18.26-.27.4-.03-.26.06-.4.27-.4Z"/>
      <path class="cls-1" d="M64.42,18.87c.11-.15.2-.3.32-.45.49-.64.99-1.28,1.49-1.91.05-.06.17-.06.23-.07.01-.06.01-.15.05-.2.22-.29.51-.5.85-.64.16-.07.28-.24.42-.37.01.01.03.03.04.04-.13.14-.26.29-.39.43-.43.45-.86.9-1.28,1.36-.06.07-.11.15-.17.23-.31.39-.61.8-.94,1.17-.16.18-.37.32-.56.48-.02-.02-.04-.04-.07-.06Z"/>
    </g>
  </g>
</svg>