<?xml version="1.0" encoding="UTF-8"?>
<svg id="Layer_2" data-name="Layer 2" xmlns="http://www.w3.org/2000/svg" viewBox="0 0 81.33 120.93">
  <defs>
    <style>
      .cls-1 {
        fill: #000;
        stroke-width: 0px;
      }
    </style>
  </defs>
  <g id="illustrations">
    <g>
      <path class="cls-1" d="M72.17,99.92c-.27-.29-.65-.61-.79-1.12-.06-.21-.22-.39-.34-.58-.08-.12-.19-.23-.26-.35-.14-.26-.24-.55-.38-.81-.19-.37-.52-.63-.65-1.07-.14-.45-.45-.84-.69-1.25-.08-.14-.18-.28-.23-.44-.11-.36-.16-.75-.31-1.1-.25-.57-.57-1.1-.86-1.65-.1-.18-.22-.36-.3-.55-.1-.24-.11-.54-.27-.72-.19-.23-.2-.51-.35-.74-.13-.2-.19-.43-.29-.64-.11-.21-.32-.41-.32-.61,0-.26-.18-.41-.23-.63-.03-.13-.16-.22-.21-.35-.27-.67-.46-1.38-.8-2.01-.32-.58-.46-1.21-.71-1.81-.2-.49-.24-1.06-.64-1.47-.04-.05-.06-.13-.08-.19-.08-.27-.15-.56-.25-.82-.19-.48-.41-.94-.61-1.41-.24-.59-.48-1.18-.71-1.78-.26-.71-.49-1.43-.76-2.14-.2-.52-.43-1.02-.65-1.53-.09-.22-.19-.44-.27-.66-.11-.32-.2-.64-.31-.96-.18-.53-.36-1.05-.55-1.58-.17-.49-.37-.97-.51-1.46-.14-.51-.44-.95-.54-1.47-.06-.27-.19-.53-.28-.8-.11-.35-.2-.7-.31-1.05-.16-.51-.34-1.02-.5-1.53-.11-.35-.2-.7-.31-1.04-.16-.51-.32-1.02-.49-1.52-.21-.62-.43-1.23-.66-1.84-.17-.45-.38-.89-.54-1.35-.25-.7-.46-1.41-.7-2.12-.24-.7-.51-1.38-.74-2.08-.21-.6-.38-1.22-.59-1.82-.21-.61-.45-1.22-.68-1.83-.02-.06-.05-.11-.08-.16-.09-.17-.2-.34-.27-.52-.13-.36-.24-.72-.36-1.08-.2-.56-.4-1.11-.6-1.66-.16-.44-.32-.87-.51-1.3-.3-.7-.61-1.4-.91-2.1-.06-.14-.05-.31-.11-.44-.19-.41-.42-.8-.61-1.22-.29-.64-.57-1.28-.84-1.93-.08-.2-.14-.4-.21-.61-.01-.09-.09-.17-.15-.25-.32-.48-.64-.96-.94-1.46-.25-.41-.46-.85-.71-1.25-.29-.46-.57-.95-1.14-1.16-.12-.05-.21-.25-.27-.4-.09-.21-.14-.45-.23-.66-.06-.14-.14-.25.08-.33.05-.02.11-.1.12-.16.02-.18-.27-.35.01-.56-.1-.01-.15-.02-.21-.03.03,0,.05,0,.08-.01,0-.32,0-.63,0-.95-.01-.58-.05-1.17-.04-1.75,0-.21.1-.41.06-.63,0-.03.02-.07.03-.1.06-.21.16-.41.17-.62.04-.47.04-.93.05-1.4.01-.43.17-.81.33-1.2.09-.23.18-.47.23-.71.07-.3-.05-.68.43-.73-.17-.31-.13-.61,0-.75,0-.39-.03-.71,0-1.03.06-.52.28-1,.59-1.42.17-.24.18-.54.35-.78.08-.12.21-.41.05-.65-.04-.06-.01-.19.02-.27.07-.24.22-.47.22-.71,0-.38.23-.66.3-1,.07-.38.17-.75.29-1.12.08-.26.14-.51.04-.78-.01-.04.01-.09.03-.14.08-.22.25-.44.22-.65-.05-.39.11-.74.13-1.11.05-.82.08-1.64.11-2.46,0-.09-.09-.18-.16-.31-.08.19-.11.34-.2.43-.52.52-.8,1.18-1,1.85-.24.8-.36,1.63-.47,2.46-.09.64-.2,1.27-.44,1.88.18.17.14.35-.05.54-.08.08-.09.23-.12.35-.02.06,0,.14-.01.2-.29.97-.59,1.93-.87,2.9-.1.33-.19.66-.27.99-.05.2-.03.41-.08.6-.1.43-.22.85-.34,1.28-.04.15-.04.36-.14.44-.16.14-.19.28-.18.46.03.42.03.82-.27,1.09.02.13.05.21.03.27-.07.24-.17.48-.24.72-.12.39-.21.78-.33,1.17-.21.73-.59,1.37-1.02,1.99-.16.22-.36.39-.65.46-.43.1-.88.19-1.25.47-.31.23-.62.46-.92.7-.19.15-.18.39,0,.57.04.04.06.09.09.14-.02.02-.04.03-.05.05-.22-.14-.44-.27-.66-.41-.37-.23-.72-.51-1.12-.69-.97-.45-2.02-.44-3.05-.49-.41-.02-.82-.06-1.22-.13-.17-.03-.4-.12-.24-.4.02-.04.02-.1,0-.16-.04-.28-.08-.56-.14-.84-.18-.85-.35-1.7-.57-2.54-.1-.37-.3-.72-.43-1.09-.1-.28-.25-.56-.14-.82-.13-.19-.26-.34-.35-.52-.4-.81-.81-1.62-1.18-2.44-.14-.3-.22-.65-.25-.98-.08-.82-.1-1.64-.16-2.46-.05-.64,0-1.29-.14-1.93-.07-.33-.04-.68-.04-1.02,0-.07.08-.14.13-.24-.21-.2-.14-.48-.15-.76-.02-.44-.13-.87-.21-1.3-.03-.19-.08-.37-.13-.55.14.03.24.07.3.16.34.48.67.96,1.02,1.44.28.38.54.78.87,1.11,1.01,1,2.05,1.98,3.08,2.96.09.08.19.15.27.24.35.42.68.86,1.05,1.27.16.19.26.36.2.56.22.18.41.35.61.5.25.19.53.34.82.13.32-.24.65-.49.91-.79.52-.64,1-1.31,1.49-1.97.64-.86,1.44-1.57,2.27-2.24.67-.55,1.34-1.1,2.01-1.65.91-.75,1.61-1.67,2.19-2.68.1-.17.17-.43.11-.6-.1-.27-.01-.47.07-.7.03-.06.04-.13.06-.2.04-.13.02-.22-.11-.3-.22-.13-.43-.2-.67-.11-.39.13-.75.1-1.12-.09-.48-.25-.97-.5-1.48-.69-.49-.19-.92-.46-1.3-.83-.89-.9-1.73-1.82-2.07-3.09-.05-.17-.18-.32-.32-.44-.16-.15-.36-.26-.53-.38.08-.1.15-.21.24-.3.64-.65,1.05-1.4,1.1-2.35.02-.44.13-.87-.03-1.31-.31-.85-.98-1.34-1.71-1.74-.37-.2-.81-.3-1.21-.45-.04-.02-.08-.06-.12-.11-.11,0-.21,0-.32,0-.06,0-.12.01-.18.02-.02,0-.02,0-.03,0-.02,0-.04,0-.06,0-.13.02-.25.05-.38.07-.26.06-.51.13-.76.2,0,.02-.01.03-.02.05-.04.11-.16.21-.27.29-.15.11-.35.16-.48.29-.43.4-.67.92-.79,1.49-.3,1.39.13,2.6,1.01,3.67.16.19.24.35.05.6-.15.2-.24.45-.31.69-.24.88-.67,1.64-1.37,2.24-.4.34-.81.67-1.19,1.03-.57.54-1.26.82-2,.99-.3.07-.63.09-.92.19-.5.17-.91.46-1.28.87-.3.34-.4.69-.39,1.1,0,.16.03.3.24.32.05,0,.12.08.15.13.09.18.17.37.24.57.12.31.28.61.32.93.06.53.05,1.06.06,1.6,0,.39,0,.79,0,1.18-.04,0-.08,0-.12,0-.04-.2-.09-.39-.11-.59-.02-.25,0-.5-.04-.74-.04-.2-.18-.38-.24-.57-.11-.33-.19-.67-.28-1-.12-.45-.24-.9-.37-1.34-.1-.32-.2-.63-.33-.94-.02-.06-.13-.13-.2-.13-.31-.02-.59.35-.52.64.05.23.13.45.14.69.02.26.26.44.19.73-.03.1.13.23.16.36.15.58.28,1.17.42,1.76.06.24.12.48.18.72.02.1.03.2.04.31.17.6.38,1.19.55,1.79.13.47.11.98.37,1.42.05.09.04.22.06.33.01.07.03.15.05.22.05.11.11.22.15.34,0,.02-.06.08-.1.11.07.08.18.16.21.27.08.23.12.48.19.72.06.18.14.35.21.52.18.5.35,1.01.53,1.51.05.13.25.25.03.37.05.11.11.2.14.29.27.84.56,1.68.79,2.53.22.8.4,1.61.58,2.42.06.28.14.6.07.86-.15.54-.14,1.09-.15,1.63,0,.55,0,1.11,0,1.65-.15.11-.35.24-.52.39-.5.44-.84.99-1.16,1.56-.37.65-.76,1.28-1.12,1.94-.37.67-.69,1.37-1.04,2.05-.16.32-.35.63-.5.95-.09.18-.11.38-.2.56-.19.36-.43.7-.61,1.06-.24.5-.44,1.02-.67,1.53-.27.6-.59,1.19-.83,1.8-.27.71-.47,1.46-.71,2.18-.31.9-.62,1.79-.95,2.67-.17.45-.44.87-.6,1.33-.12.35-.21.7-.39,1.03-.03.05-.02.11-.04.17-.06.31-.12.61-.19.92,0,.02-.07.03-.08.06-.14.33-.36.66-.39,1-.03.28-.07.54-.19.79-.13.28-.23.57-.33.86-.12.34-.22.68-.33,1.01-.04.13-.1.26-.14.4-.06.18-.09.36-.16.54-.07.2-.17.4-.25.6-.05.13-.05.27-.1.39-.07.17-.18.32-.26.49-.05.11-.09.22-.14.34.03.02.08.06.07.06-.08.11-.21.22-.2.3.04.26-.13.38-.29.52.05.03.1.07.15.11-.32.67-.63,1.34-.95,2.01h.24c-.15.16-.27.29-.39.42.03.03.07.06.1.09-.27.45-.53.89-.8,1.35.02.02.04.05.06.07.03.02.06.03.1.04-.17.33-.32.64-.48.94.07.04.12.07.15.08-.05.06-.11.1-.13.15-.05.16-.12.3-.13.5-.01.3-.26.55-.35.87-.17.58-.48,1.11-.73,1.67-.04.08-.1.18-.09.26.04.23-.11.34-.24.49-.13.15-.32.4-.27.51.12.27-.1.32-.19.45-.14.21-.2.41-.04.63-.02.02-.05.03-.06.05-.13.34-.41.6-.44,1-.02.27-.17.54-.28.8-.24.57-.51,1.14-.72,1.72-.06.16-.33.37.03.58-.34-.02-.43.22-.49.39-.17.56-.52,1.04-.72,1.58-.14.37-.48.63-.55,1.04-.03.15-.15.28-.21.43-.2.5-.38,1.01-.59,1.51-.13.33-.31.63-.43.96-.15.41-.25.85-.41,1.26-.37.95-.75,1.89-1.15,2.82-.2.47-.44.92-.62,1.41-.21.6-.54,1.16-.81,1.75-.04.1-.03.22-.04.35-.1.11-.23.24-.34.38-.04.06-.04.15-.07.21-.2.42-.47.82-.58,1.26-.06.22-.05.42-.32.58.07.03.15.05.22.08-.11.07-.17.07-.23.09-.06.02-.12.06-.19.09.25.3.24.41-.07.59-.15.09-.22.18-.06.26-.11.14-.31.3-.29.41.08.34-.1.5-.33.66.05.07.09.12.13.18.06-.02.15-.02.18-.06.15-.2.33-.36.39-.65.03-.15.22-.33.33-.51.09-.15.05-.21-.05-.3,0,0,0-.03,0-.08.06,0,.12.01.25.03-.03-.19-.06-.38-.1-.61.1.08.15.13.24.21.07-.16.12-.29.18-.42-.1-.02-.18-.03-.26-.05v-.07c.12-.05.25-.1.39-.15v-.32c.07-.02.13-.04.13-.04.07-.2.13-.35.18-.49.06,0,.11,0,.16-.02.05,0,.11-.02.17-.03-.08-.06-.15-.12-.22-.17.06-.07.11-.13.17-.21-.06-.15.07-.37.27-.46-.02-.11-.04-.22-.05-.32.02,0,.05.02.07.03.06-.08.13-.15.17-.24.22-.5.24-1.1.82-1.41-.09-.05-.14-.08-.22-.13.1-.15.2-.29.27-.43.11-.2.23-.4.31-.61.09-.23.1-.5.21-.72.23-.5.5-.98.74-1.46.16-.32.34-.65.48-.98.1-.23.14-.48.24-.71.19-.45.41-.88.6-1.33.31-.73.59-1.47.89-2.21.14-.36.26-.74.43-1.08.33-.67.7-1.31,1.02-1.98.24-.5.41-1.02.61-1.54.1-.25.17-.51.27-.76.15-.35.32-.69.46-1.04.11-.28.07-.61.33-.83.02-.02.03-.05.03-.07-.02-.32.19-.55.31-.81.02-.05.06-.1.07-.15.08-.22.15-.44.23-.65.05-.14.2-.27.19-.39-.03-.33.22-.54.34-.78.09-.19.16-.28-.02-.44.46-.18.5-.6.64-.96.11-.29.21-.59.33-.92,0,0-.03-.05-.03-.05.08-.2.15-.37.21-.53.06-.16.32-.29-.01-.51.62-.06.43-.62.67-.91.07-.09.07-.23.11-.35.04-.08.04-.17.08-.25.06-.13.15-.26.22-.39.1-.2.17-.41.27-.62.03-.07.11-.12.13-.19.16-.45.28-.91.46-1.35.08-.19.06-.5.38-.5-.02-.13-.03-.25-.04-.33.21-.16.41-.32.61-.48,0,0,0,0,0,0,0,0,0,0,0,0,0,0,0,0,0,0,0,0,0,0,0,0-.05-.51.46-.45.69-.69.03.04.07.07.1.11,0,0,.02-.02.03-.03-.05-.08-.09-.16-.13-.23.07-.05.14-.1.2-.15-.01-.02-.02-.03-.04-.05-.27.08-.54.15-.81.23,0-.02-.02-.04-.03-.06.3-.15.6-.3.9-.45-.01-.02-.02-.04-.03-.07-.2.08-.39.15-.63.24.07-.24.2-.32.4-.32.15,0,.32.01.37-.2-.24.06-.47.11-.7.16,0-.03-.01-.05-.02-.08.1-.06.19-.16.3-.18.24-.05.44-.15.59-.34,0,0,0,0,0,0,0,0,0,0,0,0,0,0,0,0,0,0,0,0,0,0,0,0,.08-.13.22-.26-.06-.34.17-.11.23-.23,0-.33.03-.14.42-.1.16-.36,0,0,.04-.05.05-.08.14-.34.31-.67.42-1.02.08-.25.09-.52.16-.78.14-.53.31-1.05.47-1.57.1-.32.16-.66.31-.96.15-.29-.06-.67.27-.89,0,0,0-.02,0-.03.08-.33.17-.66.24-1,.04-.16,0-.38.08-.47.23-.2.24-.47.32-.72.17-.55.14-1.16.52-1.63.02-.02.02-.05.03-.07.15-.48.26-.98.46-1.45.32-.74.7-1.45,1.05-2.18.32-.66.64-1.33.94-2,.22-.49.4-.99.62-1.48.17-.37.38-.72.56-1.08.22-.45.42-.91.64-1.36.2-.4.4-.81.62-1.2.21-.39.46-.76.67-1.14.32-.57.69-1.09,1.17-1.52.33-.3.39-.29.77-.03.39.27.82.47,1.3.43.61-.05,1.21-.14,1.82-.22.33-.05.66-.13.97-.19-.12.35-.25.69-.37,1.04-.04.12-.04.27-.09.39-.37.87-.51,1.81-.69,2.73-.13.69-.21,1.38-.34,2.07-.23,1.18-.33,2.38-.81,3.52-.28.66-.34,1.41-.46,2.13-.19,1.16-.42,2.31-.81,3.42-.12.33-.12.7-.18,1.05-.09.52-.19,1.04-.28,1.56-.13.75-.24,1.51-.36,2.26-.04.25-.12.5-.14.76-.07.77-.13,1.55-.18,2.32-.02.22,0,.44-.05.65-.04.18-.12.33-.03.53.04.07,0,.25-.06.3-.12.1-.06.19-.07.3-.02.31.04.63-.18.9.02.06.07.13.07.19-.03.35-.07.69-.13,1.04-.09.56-.2,1.12-.28,1.68-.05.36-.04.73-.1,1.1-.07.47-.22.94-.24,1.41-.01.46-.2.88-.23,1.34-.01.25-.06.48.07.73-.31.06-.16.2-.06.32-.22.14-.29.28-.27.54,0,.05.01.11,0,.16-.06.18-.16.35-.2.54-.07.33-.11.67-.16.99.02.09.08.18.06.26-.05.31-.13.62-.18.93-.05.31-.06.63-.1.95-.06.45-.15.9-.22,1.35-.12.73-.23,1.47-.34,2.2-.07.41-.15.82-.2,1.23-.05.42-.07.84-.13,1.26-.02.17-.14.32-.17.49-.07.51-.12,1.02-.18,1.53-.08.69-.15,1.38-.26,2.07-.09.62-.22,1.23-.35,1.84-.11.56-.07,1.13-.33,1.67-.18.39-.21.84-.29,1.27-.03.15-.04.3-.05.46-.02.23-.02.46-.04.69-.06.13-.17.31-.12.42.06.12.25.18.36.26.25-.26.06-.54.19-.8.13-.25.15-.54.21-.82.01-.06.02-.15-.01-.17-.31-.21-.02-.23.09-.29,0-.21-.02-.4,0-.59.02-.13.08-.25.13-.37.1-.22.21-.44.12-.69,0-.01,0-.03,0-.05.08-.33.21-.66.22-.99.01-.24-.06-.47.18-.6-.06-.12-.16-.22-.13-.28.09-.25.22-.49.35-.78,0-.01-.07-.09-.06-.17.04-.27.1-.54.15-.81.05-.23.1-.46.15-.71-.09.03-.13.05-.14.05.07-.16.18-.34.2-.52.01-.15,0-.3.04-.46.09-.32.17-.67.16-1,0-.2.02-.36.09-.53.02-.04-.05-.11-.08-.15.06-.1.18-.23.15-.29-.13-.27.13-.46.11-.7-.01-.13-.05-.32.02-.39.14-.15.06-.26.04-.4-.02-.13-.06-.33,0-.38.22-.18.07-.3-.01-.45.23-.07.29-.28.18-.46.08-.22.25-.46.19-.57-.08-.16-.03-.23.03-.34.12-.23.08-.32-.17-.43-.01,0-.02-.04-.03-.08.09,0,.16-.02.23-.02.07-.32.14-.62.22-.92.05-.16.15-.32.18-.48.05-.33.06-.67.1-1.01.02-.18.08-.36.11-.54.05-.3.09-.6.15-.9.08-.42.19-.83.26-1.25.15-.85.29-1.7.43-2.56.1-.59.19-1.18.28-1.77.05-.36.07-.73.15-1.08.05-.25.08-.46-.1-.61.1-.14.27-.27.25-.37-.05-.23-.06-.43.02-.66.1-.29.1-.62.13-.93.06-.61.11-1.22.18-1.83.09-.72.2-1.44.3-2.16.1-.68.19-1.37.29-2.05.06-.4.13-.81.21-1.21.04-.23.12-.46.15-.69.05-.38.09-.77.13-1.15.01-.11,0-.21.02-.32.07-.45.16-.89.2-1.34.06-.62.19-1.22.36-1.82.16-.54.33-1.09.47-1.63.19-.72.35-1.45.54-2.17.02-.09.11-.16.19-.27.01.12,0,.17.02.22.03.07.09.14.09.2-.02.69-.03,1.39-.09,2.08-.12,1.27-.1,2.55-.11,3.83,0,.33-.02.66-.05.99-.03.32-.07.64-.11.95-.02.15-.05.31-.08.46.02.22.1.49,0,.67-.13.24-.1.45-.08.68,0,.05,0,.11-.01.16-.05.21-.11.42-.15.63-.04.27.02.6-.11.82-.17.29-.09.48.03.68-.06.1-.14.19-.15.28-.08.45-.14.89-.21,1.34-.07.48-.13.96-.19,1.44-.05.4-.09.8-.14,1.19-.05.36.12.76-.2,1.07-.02.02.01.08,0,.13,0,.17-.01.35-.04.52-.03.16-.1.31-.12.47-.06.35-.06.72-.18,1.04-.24.6-.05,1.3-.42,1.87,0,.01-.01.04,0,.05.19.26-.17.45-.09.74.05.17-.18.38-.17.64,0,.22-.2.44-.26.69-.08.3-.3.56-.34.86-.04.28-.15.51-.27.74-.17.33-.42.62-.63.93.13,0,.25-.02.32-.1.2-.23.39-.46.57-.71.07-.09.06-.24.13-.34.49-.69.68-1.51.98-2.28.16-.41.21-.86.32-1.3.13-.52.29-1.03.42-1.55.05-.21.04-.43.09-.65.11-.5.27-.99.37-1.49.11-.58.19-1.17.27-1.76.08-.58.16-1.17.23-1.76.01-.12,0-.25,0-.38.03-.06.07-.13.09-.21.03-.12.03-.25.06-.37.11-.52.26-1.03.34-1.54.09-.58.13-1.17.18-1.76.04-.41.08-.82.12-1.23.02-.18.05-.36.07-.54.05-.49.1-.97.12-1.46.03-.5.03-1,.04-1.5.01-.49.04-.98.04-1.47,0-.17-.05-.33-.04-.5,0-.11.07-.22.11-.32-.03-.05-.13-.13-.13-.22-.01-.22.01-.44.03-.66.01-.15.05-.29.08-.43.03,0,.06-.02.08-.03.09.08.17.16.31.29-.02-.12-.02-.2-.06-.25-.07-.09-.17-.15-.24-.24-.14-.16-.18-.32-.03-.5-.13-.11-.16-.2-.08-.4.08-.21.27-.47.02-.71.18-.07.31-.73.22-.98-.06,0-.12.02-.18.03,0-.02,0-.04-.01-.06.12-.03.23-.05.38-.09-.17-.17-.33-.33-.49-.49.02-.02.03-.04.05-.06.08.01.15.03.23.04.07,0,.13.01.2.02v-.06c-.12-.05-.24-.09-.37-.14.07-.12.14-.24.21-.36-.21-.22-.03-.45.6-.59-.17.2-.3.35-.44.52.09.01.15.02.25.04-.1.08-.16.14-.26.22.14.08.25.14.31.17.02.1.02.16.03.22.02.06.07.15.06.16-.22.12-.04.23,0,.35.05.16.15.34.11.48-.07.23.06.42.15.5.33.28.63.62,1.08.72.57.14,1.13.18,1.64-.2.44-.33.74-.77.95-1.24.15-.33.25-.72.2-1.12-.03-.25.03-.52.06-.84,0,0-.09-.12-.06-.15.16-.2.16-.42.12-.65-.02-.12-.06-.23-.08-.35-.04-.29-.06-.58-.11-.87-.05-.3-.11-.6-.16-.9-.04-.2-.1-.41-.09-.61.01-.4-.24-.8-.01-1.12-.1-.22-.19-.4-.26-.56.91.17,1.77.35,2.64.49.16.03.35-.05.51-.12.18-.08.33-.22.51-.3.05-.02.19.05.24.11.2.26.34.59.58.8.33.29.6.6.74,1.01.05.15.12.3.19.45.14.27.33.52.45.8.15.35.25.71.38,1.07.05.15.1.3.17.44.14.29.31.57.43.86.18.43.33.87.49,1.3.08.21.15.44.25.64.07.14.12.25.08.41-.02.07.06.18.1.26.12.23.29.44.34.68.04.19.02.36.23.44.03.01.05.09.04.11-.14.23-.1.41.12.57.04.03.04.11.04.17.05.36.14.7.36,1,.06.09.08.2.12.3.08.17.17.34.27.54,0,.03-.04.12,0,.19.13.35.29.69.43,1.04.19.48.33.99.56,1.45.17.34.1.79.47,1.03,0,0,0,.03,0,.05.04.15.05.3.12.43.14.27.36.52.46.8.07.21.14.39.27.56.02.03.04.06.05.09.03.11.06.22.09.33.02,0,.05,0,.07-.01-.03.06-.06.12-.08.16.07.08.14.14.18.22.09.18.14.37.23.55.09.17.35.39.31.47-.15.28.14.39.18.58.1.4.42.71.51,1.13,0,.02.01.03.02.05.14.23.31.45.43.7.23.51.42,1.03.63,1.54.14.32.29.63.45.94.05.09.14.15.22.23.01-.06.04-.14.02-.19-.09-.22-.21-.42-.3-.64-.09-.24-.16-.48-.24-.72-.02-.06-.06-.12-.1-.18-.04-.06-.13-.13-.12-.19.03-.21-.28-.31-.15-.54,0-.01-.05-.06-.08-.1-.04-.06-.1-.12-.13-.18-.1-.24-.17-.48-.27-.72-.11-.26-.23-.51-.35-.76-.15-.31-.28-.62-.45-.91-.25-.45-.52-.88-.78-1.32-.01-.02-.04-.06-.04-.06.23-.21-.04-.3-.1-.45-.05-.11-.1-.23-.15-.35-.04-.13-.09-.24-.15-.35-.02-.04-.07-.06-.08-.1-.11-.27-.21-.53-.32-.8-.17-.42-.3-.86-.52-1.26-.26-.47-.45-.96-.63-1.45-.18-.48-.36-.96-.55-1.43-.08-.22-.18-.43-.26-.64-.11-.27-.21-.54-.32-.8-.03-.1-.06-.21-.1-.31-.01-.03-.06-.04-.06-.07-.08-.28-.15-.57-.24-.86-.04-.15-.1-.3-.15-.45-.01-.11-.04-.21-.08-.31-.08-.2-.24-.41-.23-.6.01-.35-.31-.55-.32-.89,0-.28-.13-.55-.22-.87-.04-.08-.07-.21-.15-.32-.25-.32-.37-.71-.53-1.07-.28-.65-.49-1.33-.78-1.98-.36-.82-.74-1.63-1.35-2.32-.27-.3-.48-.68-.34-1.15.08-.25.09-.53.14-.84.55.34.96.78,1.28,1.27.54.8,1,1.65,1.5,2.49.09.15.19.29.27.45.18.41.36.83.53,1.25.12.31.22.63.34.94.09.23.17.45.29.66.08.14.29.28.28.4-.03.25.15.28.24.34,0,.12-.02.2,0,.27.15.42.3.84.48,1.25.12.27.31.51.44.77.08.16.32.3.09.52.11.04.19.07.21.07.04.16.05.26.1.34.07.14.2.27.24.41.07.25.25.43.29.7.03.22.23.4.28.67.08.45.34.87.51,1.31.06.15.08.32.13.51.03.05.1.13.15.22.07.13.14.27.2.41.02.04.04.07.05.11.07.27.12.54.21.8.12.34.28.67.41,1.01.13.36.23.73.36,1.09.17.47.35.93.52,1.39.14.4.25.82.39,1.22.07.2.2.37.27.56.08.21.1.44.17.65.05.14.18.26.23.4.12.32.21.64.32.96.08.25.14.5.22.74.03.11.16.23.13.3-.11.28.18.41.2.66.04.4.23.78.39,1.16.08.19-.13.51.27.54-.05.08-.08.13-.1.17.08.07.15.12.21.18-.16.16.01.31.05.44.07.23.25.42.18.69,0,.03.06.08.1.11.06.05.12.1.19.16-.19.14-.14.26,0,.4.08.08.12.21.14.32.06.28.11.56.17.86-.11.07-.13.32-.01.46.08.09.17.19.22.31.13.27.25.55.38.82.06.12.12.24.18.38-.04.01-.11.04-.21.07.15.18.4.28.27.55.25.23.2.56.32.84.03.07.01.16.02.27.05.06.15.15.18.26.1.32.11.67.26.96.1.21.25.37.3.63.09.46.38.89.43,1.34.03.27.26.43.24.73-.02.27.22.55.33.83.04.09.04.19.07.28.04.12.07.24.11.35.02.05.07.09.11.13.05.06.12.1.15.17.06.12.1.26.15.39.16.4.32.8.47,1.2.04.1,0,.22.04.32.18.44.37.88.58,1.31.1.2.09.51.43.54-.06.2-.16.38.08.51.02.01.03.11,0,.15-.13.2-.03.33.13.44-.06.05-.11.09-.16.14.04.03.06.06.08.06.32.03.41.25.44.53,0,.08.06.16.1.23.09.17.2.33.26.51.07.19.07.41.15.6.09.25.23.47.33.72.04.09.02.2.04.29.03.17.05.36.13.5.13.23.31.43.45.66.07.12.08.27.11.4.06.14.11.27.16.41.02.04.05.07.08.1.26.26.24.4-.08.53-.02,0-.04.02-.03.01.12.04.26.09.4.14-.05.08-.09.15-.14.23.31.19.57.8.46,1.08.09.09.18.19.26.28-.03.01-.05.02-.08.04.03.09.06.24.1.25.3.04.32.32.44.51.12.2.28.4-.02.64.3.03.35.21.37.4,0,.15.05.23.17.34.12.12.13.35.19.54-.02,0-.04.01-.06.02.18.3.36.61.54.93-.14.13-.13.16.11.27.07.03.13.11.17.18.08.15.16.3.23.46.1.21.18.42.28.63.11.25.22.5.33.74.02.05.04.11.07.16.11.26.22.52.34.79.06.15.13.3.2.45.02,0,.04-.01.06-.02.01-.06.03-.13.04-.18.07.12.13.24.22.34.13.14.28.26.25.49,0,.06.09.13.14.2.07.09.15.17.2.27.07.11.11.24.19.41.04.12.09.31.15.49.01,0,.03,0,.04-.01v-.2c.18.21.39.42.42.66.03.31.32.42.38.67.04.15.11.3.18.5.29.11.36.26.2.55.11.06.34,0,.23.27-.01.03.06.1.1.13.11.08.22.15.39.26-.05-.27-.09-.47-.14-.77ZM35.72,1.82c.3-.27.66-.52,1.03-.68.31-.14.67-.04.98.16.13.08.28.12.43.18.42.16.79.41,1.02.79.21.34.11.73-.07,1.06-.35.64-.69,1.29-1.12,1.88-.15.2-.53.29-.81.32-1.11.12-1.96-.73-1.98-1.93-.01-.65.02-1.31.54-1.78ZM31.79,12.72c.63-.35,1.29-.66,1.86-1.09.68-.52,1.3-1.11,1.77-1.86.39-.61.7-1.24.9-1.93.07-.25.12-.5.18-.79-.02,0,0,0,.02,0,.22.05.38.19.65-.02.22-.17.62-.13.94-.13.07,0,.14.18.21.29.06.1.12.21.18.32.14.23.27.47.41.7.15.25.32.49.48.74.14.22.29.44.41.68.35.72.98,1.21,1.48,1.81.71.85,1.66,1.31,2.63,1.73.25.11.53.16.84.26-.2.31-.37.63-.6.89-.71.78-1.44,1.54-2.18,2.3-.73.75-1.51,1.46-2.22,2.24-.65.71-1.22,1.5-1.83,2.24-.13.16-.26.31-.41.44-.08.07-.21.11-.31.09-.05,0-.08-.16-.12-.25-.08-.18-.13-.38-.23-.55-.7-1.17-1.72-2.06-2.69-2.98-.63-.6-1.28-1.18-1.87-1.81-.73-.78-1.24-1.71-1.66-2.73.4-.2.8-.37,1.18-.59ZM19.98,62.35l-.04-.05c.14-.11.28-.23.43-.33.02-.01.12.11.18.17-.19.07-.38.14-.57.21ZM21.06,59.69c.04-.16.12-.29.37-.22-.07.12-.12.22-.18.32-.07-.04-.2-.09-.19-.11ZM21.73,60.01c-.16.02-.32.03-.5.05.01-.1.02-.18.04-.26.16.07.31.14.47.2ZM43.39,30.82s0,0,0,0c.15.07.18.18.15.35-.06.29-.07.59-.11.88,0,.06-.04.16-.07.17-.2.04-.4.05-.61.08.23-.52.44-1,.65-1.48ZM35.78,35.44c-.82.15-1.65.21-2.48,0-.28-.07-.58-.07-.86-.12-.08-.02-.2-.09-.22-.16-.11-.38-.18-.76-.27-1.14-.01-.06-.02-.13-.02-.22.56.09,1.08.19,1.61.26.24.03.49-.02.73-.02.9,0,1.79.01,2.68.17.5.09.86.38,1.21.7.16.15.33.3.5.45-.02.02-.03.05-.05.07-.21-.04-.41-.06-.62-.11-.75-.19-1.48-.01-2.21.12ZM36.33,40.6c-.05.09-.07.19-.1.29-.03,0-.07-.02-.1-.03,0-.12-.01-.23,0-.35.02-.14.06-.29.09-.43.1-.47.21-.94.3-1.41.02-.07,0-.15,0-.23,0-.04-.02-.09,0-.12.22-.58.43-1.16.67-1.74.03-.07.15-.15.22-.15.43,0,.86.03,1.28.05.02.03.05.06.07.09-.1.15-.21.29-.31.45-.15.24-.29.49-.44.73-.3.48-.62.96-.91,1.45-.27.46-.52.93-.77,1.4ZM37.01,42.31c-.07.18-.15.35-.23.53-.04,0-.08-.02-.13-.03,0-.19-.02-.39,0-.58.03-.21.07-.43.16-.63.2-.47.42-.94.65-1.4.21-.43.44-.86.67-1.28.15-.27.31-.54.49-.8.07-.1.22-.15.36-.23,0,.05,0,.1-.01.13-.02.04-.1.08-.1.11.13.42-.25.65-.38.97-.29.67-.66,1.3-.98,1.95-.19.41-.34.84-.51,1.26ZM40.14,42.17c-.03.45.12.88.01,1.36-.1.42-.15.85-.37,1.21-.17.28-.43.54-.71.71-.49.3-1.01.06-1.23-.48-.14-.34-.12-.69-.05-1.03.17-.76.48-1.45.89-2.11.25-.41.43-.87.65-1.3.07-.14.17-.26.28-.41.31.35.38.74.42,1.14.03.31.14.62.11.92ZM42.91,37.17c-.68.59-1.56.65-2.12-.23.65-.06,1.3-.12,1.95-.16.08,0,.22.05.24.11.02.09,0,.24-.07.29ZM43.51,35.52c-.2.37-.54.31-.87.29-.31-.01-.63.02-.97.04.17-.33.38-.58.74-.67.15-.04.29-.15.45-.17.15-.02.31,0,.46.04.08.02.14.11.2.17-.07.05-.13.09-.2.15.07.04.14.07.21.1,0,.03,0,.05,0,.06ZM41.97,34.24c-.6.24-1.12.63-1.55,1.11-.26.3-.54.32-.82.07-.04-.03-.06-.14-.05-.15.33-.22.17-.54.18-.8.94-.62,2.01-.89,3.08-1.13.33-.08.56.19.76.36-.52.18-1.07.34-1.59.55ZM43.77,29.97c-.05.24-.11.48-.18.71-.02.06-.12.09-.19.13.13-.4.26-.8.4-1.23-.01.14,0,.27-.03.39Z"/>
      <path class="cls-1" d="M70.81,109.59c-.4.14-.69-.03-.96-.3-.04-.04-.08-.07-.13-.09-.39-.1-.68-.36-.99-.6-.77-.6-1.67-1.05-2.24-1.9-.03-.04-.09-.1-.12-.09-.28.06-.26-.14-.33-.31-.05-.11-.24-.16-.35-.23-.03-.08-.03-.18-.09-.23-.14-.12-.31-.21-.44-.34-.06-.06-.1-.18-.11-.3-.03-.35-.47-.66-.89-.64.2.24.33.5.65.59-.2.12-.04.22.05.31.27.3.56.6.84.9.37.42.73.85,1.1,1.26.69.76,1.51,1.37,2.39,1.9.45.28.92.54,1.34.86.57.43,1.09.93,1.65,1.37.33.25.69.46,1.06.65.2.11.44.16.66.22.06.02.13-.01.19-.02.01-.03.02-.06.03-.09-.28-.16-.56-.33-.84-.49-.33-.18-.69-.32-.99-.54-.18-.13-.26-.38-.42-.64.2-.03.32-.05.48-.08-.14-.08-.24-.14-.35-.2,0-.03,0-.06,0-.08.1,0,.22-.06.3-.02.58.25,1.16.5,1.72.79.52.27,1.06.39,1.62.25.25-.06.48-.22.72-.33.89-.41,1.67-1,2.44-1.6.25-.19.46-.43.69-.65.22-.21.44-.4.65-.61.24-.24.15-.63-.17-.76-.11-.05-.25-.05-.35-.12-.25-.16-.48-.35-.75-.54.41-.28.69-.05.94.12.17.11.42.12.52.35.02.04.24-.01.35-.02.09.13.18.26.26.39.11.18.27.36.31.56.11.73.21,1.49-.42,2.06-.29.27-.65.48-.98.71-.24.17-.5.31-.75.47-.21.13-.41.29-.63.41-.07.04-.2-.04-.29-.05-.42.11-.85.21-1.27.33-.13.04-.25.14-.38.17-.34.08-.69.13-1.01.19.17.22.4.47.56.76.11.19.18.44.17.65-.02.28-.11.57-.25.81-.18.3-.47.53-.83.63-.16.04-.31.12-.47.18-.31.13-.62.27-.93.39-.08.03-.2.03-.28,0-.17-.06-.31-.07-.47.03-.07.04-.19.03-.28.02-.17-.02-.34-.05-.51-.09-.1-.02-.18-.08-.25-.11-.08.05-.16.13-.23.13-.34-.02-.67-.09-1-.1-.39-.01-.76-.07-1.13-.21-.16-.06-.39.1-.59.14-.21.04-.38.22-.62.13-.02,0-.09.05-.12.09-.09.12-.19.16-.34.09-.06-.03-.2,0-.23.04-.14.22-.4.2-.58.31-.22.13-.44.24-.68.34-.26.11-.58.14-.76.31-.24.23-.65.03-.81.37-.02.04-.11.03-.16.05-.07.03-.14.06-.22.1-.03.01-.05.05-.08.05-.26.04-.52.14-.77.11-.59-.06-1.19-.1-1.75-.36-.49-.23-1-.41-1.5-.61-.08-.03-.17-.03-.26-.06-.04,0-.07-.03-.1-.05-.07-.03-.14-.07-.21-.08-.43-.21-.78-.55-1.25-.68-.01.03-.03.05-.04.08.04.02.08.03.14.06-.05.04-.09.07-.13.1,0,.03,0,.05.02.06.41.34.66.79.81,1.29.1.32-.21.46-.38.66-.12.14-.26.28-.34.44-.32.58-.78,1.01-1.34,1.34-.65.38-1.34.59-2.08.76-.57.13-1.09,0-1.63-.04-.24-.02-.49.03-.72-.02-.66-.15-1.22-.5-1.63-1.05-.09-.12-.19-.22-.27-.4.15.02.29.04.44.07.18.03.36.09.54.11.27.03.52.05.79.14.36.12.78.1,1.15-.07.12-.05.25-.1.38-.1.57.03,1.1-.15,1.62-.31.56-.17,1.03-.53,1.43-.96.06-.07.08-.2.08-.29-.02-.39-.24-.67-.53-.92-.29-.25-.51-.56-.8-.81-.21-.19-.31-.44-.48-.64-.15-.18-.41-.27-.6-.42-.06-.05-.09-.14-.13-.22-.02-.04-.05-.07-.07-.11-.13-.14-.25-.28-.42-.47-.05-.02-.2-.05-.27-.14-.18-.22-.34-.47-.49-.71-.08-.12-.12-.27-.18-.41-.01-.02-.01-.07-.02-.07-.36-.03-.36-.42-.57-.59.41-.06.07-.3.13-.46-.02,0-.04-.02-.06-.03-.05.08-.09.16-.16.28-.05-.06-.09-.1-.13-.16-.09-.14-.05-.36-.25-.44-.02,0-.03-.07-.02-.1.12-.32-.07-.5-.25-.72-.13-.16-.2-.38-.29-.57-.07-.17-.02-.4-.28-.48-.08-.03-.14-.2-.17-.31-.07-.31-.27-.51-.47-.73-.05-.05-.04-.16-.04-.24.02-.23.18-.47-.11-.69v.4s-.05.02-.08.03c-.12-.25-.26-.5-.36-.76-.1-.24-.16-.5-.24-.75-.15-.5-.29-1-.45-1.49-.08-.26-.22-.49-.32-.75-.14-.37-.27-.75-.39-1.13-.09-.3-.17-.6-.24-.9-.02-.1.04-.22.01-.32-.04-.13-.16-.23-.2-.36-.07-.24-.11-.5-.17-.75,0-.02,0-.04-.02-.05-.23-.22-.17-.54-.27-.81-.01-.03-.03-.08-.01-.1.2-.27.04-.47-.09-.71-.08-.15.02-.39.04-.64-.07-.05-.31.26-.35-.09.08-.05.17-.09.27-.15-.14-.19-.26-.37-.41-.59-.04.1-.07.16-.1.22-.05-.18-.14-.36-.14-.53,0-.08.16-.16.28-.27-.06-.22-.13-.47-.21-.75.12.03.2.05.29.07.02-.02.04-.04.06-.05-.22-.33-.44-.66-.66-.99.05-.09.1-.17.15-.26-.16-.15-.33-.29-.14-.53.05-.06-.02-.22-.04-.39.15.11.25.18.35.25.03-.02.05-.04.08-.05-.1-.19-.19-.37-.3-.59-.07.08-.11.14-.15.19-.12-.06-.24-.11-.35-.17,0-.01,0-.03,0-.04.11.01.23.02.34.04,0-.02.02-.04.02-.05-.11-.05-.23-.09-.34-.14,0-.02,0-.03,0-.05.07-.02.14-.04.25-.06-.06-.09-.1-.17-.15-.26.06.02.12.04.17.06,0-.01.02-.03.03-.04-.12-.09-.24-.19-.36-.28.1-.12-.23-.34.13-.41-.14-.17-.26-.31-.38-.45-.14-.16-.05-.29,0-.39-.13-.73-.27-1.45-.41-2.21.1,0,.19.01.33.02-.2-.13-.35-.24-.51-.34.01-.03.03-.05.04-.08.05-.01.1-.02.14-.04.05-.02.13-.05.13-.09,0-.05-.03-.13-.07-.15-.17-.08-.23-.23-.14-.36.05-.08.23-.08.32-.11-.02-.22-.04-.48-.06-.72.08-.03.14-.06.2-.08-.06-.06-.12-.12-.2-.2.05-.14.16-.28.05-.5-.08-.17-.02-.41-.02-.61-.21-.45-.32-.92-.29-1.44-.18-.06-.19-.14-.06-.32-.02-.19-.09-.35-.05-.47.05-.18.04-.3-.08-.36-.03-.24-.1-.45-.05-.63.04-.15.23-.25.37-.4-.11-.07-.25-.17-.41-.23-.04-.01-.13.12-.2.18,0,0-.01,0-.01-.01.24-.64-.07-1.24-.15-1.86-.03-.21-.06-.43-.07-.64,0-.06.06-.13.08-.17-.04-.19-.08-.37-.12-.54.02,0,.03-.02.05-.03.07.06.14.11.24.2.02-.13.04-.23.07-.36-.3,0-.36-.15-.36-.39,0-.18-.05-.38-.13-.54-.22-.46-.13-.98-.35-1.45-.16-.34-.17-.78-.04-1.18-.03-.04-.11-.1-.12-.17-.04-.21-.06-.43-.08-.65-.07-.57-.15-1.14-.23-1.71-.07-.5-.11-1.01-.23-1.51-.05-.19-.12-.35-.04-.55.02-.05-.03-.15-.07-.18-.24-.16-.03-.19.04-.24-.08-.29-.16-.56-.22-.84-.02-.11.02-.23.02-.34,0-.19-.01-.37-.05-.55-.11-.48-.26-.95-.14-1.46.02-.07-.1-.17-.17-.28.1,0,.17-.02.33-.03-.11-.12-.18-.2-.25-.28.22-.28-.24-.48-.09-.78.06-.02.16-.06.29-.11-.15-.1-.47-.07-.24-.36,0,0-.04-.03-.05-.06-.04-.09-.08-.19-.09-.28-.02-.17-.02-.34-.03-.51-.04-.55-.07-1.09-.12-1.64-.02-.2-.07-.41-.1-.61-.07-.46-.16-.92-.21-1.39-.03-.27,0-.54-.03-.81-.01-.11-.1-.21-.17-.34.07-.04.14-.08.2-.11,0-.2-.35-.34-.05-.58-.08,0-.13-.02-.17-.02.26-.26.16-.47-.11-.67.04-.05.08-.1.14-.16-.08-.02-.13-.03-.19-.05.02-.3.06-.58.06-.87,0-.15.03-.29-.07-.46-.09-.13-.02-.37-.02-.58.15.02.23.03.31.04,0-.02.02-.03.03-.05-.13-.12-.28-.22-.38-.36-.11-.15-.16-.33-.04-.51q.36.23.15.49c.07-.04.19-.08.19-.12,0-.14-.03-.28-.09-.41-.03-.07-.15-.09-.2-.16-.04-.04-.07-.16-.04-.18.24-.19.06-.31-.07-.44.06-.15.11-.29.18-.45-.06-.09-.14-.23-.23-.38.27-.17.41-.02.53.13.06.08.11.19.13.29,0,.05-.06.11-.11.18.03.09.15.27.11.35-.16.28-.06.44.12.66.09.11,0,.36-.04.54.02.1.3.11.08.34-.03.03.1.21.13.32.02.07-.02.16-.04.29.11.07.12.22.15.42.05.27-.16.58.1.83.03.03-.01.13,0,.19.04.16-.14.32.04.49.05.05-.03.25-.06.42.02.01.09.06.2.13-.1.03-.16.04-.19.05.11.14.25.27.31.43.08.21-.04.36-.33.38.11.08.19.11.23.17.04.06.1.16.08.22-.14.38-.11.48.23.66.02.01.03.04.04.06-.25.34-.25.35.07.77-.14.11-.23.21-.04.39.08.07.06.25.07.38.02.16-.09.35.1.48.02.01,0,.14-.04.16-.23.11-.14.3-.1.46.03.13.11.24.17.36.05.12.11.23.17.37-.12-.03-.23-.06-.35-.1-.01.02-.03.03-.04.05.12.15.28.28.34.44.07.18.06.39.08.59-.02,0-.06-.03-.16-.08.06.16.08.3.15.41.1.16.13.27-.1.34.07.11.13.21.16.26-.05.13-.11.22-.11.31.04.43.09.86.16,1.29.02.1.14.18.18.23v1.76c.17.11.19.28.09.42.08.21.16.38.2.55.05.22.09.44.11.67.04.31.06.63.09.94,0,.07,0,.15.05.2.18.26.11.52.04.78,0,.03-.02.05-.01.08.07.24.16.47.21.72.02.1.21.19.03.31,0,0,.07.16.13.21.12.1.23.17.08.33-.04.04-.02.14-.02.22,0,.24.02.48.04.71,0,.08.03.16.06.24.13.36.12.74.32,1.09.16.28.15.66.2.99.07.41.13.82.19,1.23.01.1-.02.21,0,.31.02.13.07.26.16.38-.03.06-.08.12-.08.18.01.41-.08.83.08,1.24.08.21.08.44.12.66.02.13.04.24.21.25.06,0,.13.08.17.13.07.08.12.18.19.28-.13.16-.28.34-.41.53-.03.04,0,.16.05.21.06.08.15.13.23.19-.09.07-.16.14-.24.21.11.06.23.11.37.18-.06.02-.11.04-.13.05,1,5.63,3.1,10.92,4.78,16.44-.13-.14-.23-.22-.3-.33-.07-.1-.14-.22-.18-.34-.18-.5-.34-1.01-.52-1.51-.17-.49-.37-.96-.54-1.45-.12-.34-.19-.7-.3-1.04-.17-.52-.35-1.04-.53-1.56-.22-.67-.44-1.35-.66-2.02-.08-.24-.18-.47-.25-.72-.3-1.13-.59-2.27-.88-3.4-.15-.55-.31-1.1-.46-1.65-.05-.19-.11-.38-.17-.57-.01-.04-.06-.08-.12-.11.1.96.4,1.89.36,2.87.04.2.09.41.13.62.05.27.1.55.14.83.11.65.2,1.3.33,1.94.19.92.4,1.83.6,2.75.12.52.23,1.04.35,1.56.01.05.05.1.08.14.03.04.12.07.12.1-.02.21.12.35.17.52.17.56.26,1.13.41,1.7.08.29.22.57.32.86.13.37.26.74.4,1.13-.08.02-.15.04-.21.05,0,.04,0,.07.01.07.18.02.25.14.31.3.4,1.11.8,2.22,1.21,3.32.29.77.58,1.54.9,2.3.16.38.41.73.61,1.09.03.06.05.13.08.19.1.2.12.46.39.56.08.03.14.18.16.28.04.27.18.46.39.63.14.11.25.26.38.4.09.09.18.17.27.26.04.05.11.14.1.16-.14.2.03.24.15.31.17.11.41.18.22.49.26.2.55.36.76.59.13.14.25.19.41.25.06.02.07.17.12.29.03.02.11.08.18.14.13.11.24.24.38.34.28.21.57.4.86.6.23.16.46.31.69.47.23.16.46.31.67.49.38.32.85.33,1.3.44.27.07.53.15.8.22.29.07.59.16.89.16.64,0,1.29,0,1.91-.09.49-.07.95-.28,1.42-.46.54-.21,1.07-.44,1.6-.68.21-.09.4-.23.59-.35.04-.02.1-.04.15-.04.35.01.7.02,1.04.05.25.02.49.1.74.14.15.02.31.01.46,0,.37-.03.73-.09,1.09-.11.33-.02.67.01,1-.02.26-.03.52-.11.77-.19.31-.1.61-.22.9-.36.25-.13.48-.31.71-.49.03-.03.02-.15,0-.21-.22-.47-.38-.53-.95-.39-.48.12-.92-.04-1.32-.28-.59-.35-1.15-.74-1.73-1.1-.53-.32-1.1-.6-1.61-.95-.5-.35-.96-.76-1.44-1.15-.44-.35-.89-.69-1.31-1.07-.25-.23-.43-.54-.67-.79-.15-.16-.36-.27-.53-.4.02-.01.09-.04.2-.09-.17-.18-.32-.34-.47-.5.01-.02.02-.03.03-.05.08.04.16.09.25.13.01-.02.03-.04.04-.05-.09-.07-.17-.13-.26-.2-.19-.15-.39-.29-.57-.46-.09-.08-.12-.22-.2-.31-.06-.07-.16-.1-.26-.15.02-.16.06-.36-.22-.35.07-.39-.31-.26-.47-.42.05-.05.09-.1.15-.16-.23-.21-.47-.4-.67-.62-.1-.11-.13-.29-.2-.42-.37-.67-.74-1.33-1.13-1.99-.19-.32-.44-.62-.63-.94-.2-.35-.37-.73-.55-1.09-.07-.15-.17-.29-.21-.44-.12-.38-.37-.69-.55-1.04-.2-.37-.33-.78-.49-1.17-.03-.06-.09-.14-.15-.16-.19-.07-.11-.15,0-.25-.1-.11-.3-.2-.06-.37.02-.02-.09-.26-.17-.38-.16-.25-.34-.48-.5-.72-.09-.13-.15-.28-.21-.42-.03-.08-.03-.17-.01-.27-.09-.09-.19-.15-.12-.34.04-.12-.06-.3-.13-.44-.14-.29-.31-.56-.44-.85-.04-.1.02-.24-.02-.34-.14-.35-.36-.69-.45-1.05-.06-.24-.24-.44-.23-.64,0-.25-.17-.39-.2-.59,0-.05,0-.11.01-.17.02-.15.05-.29.06-.44.03-.23-.19-.26-.3-.38-.06-.06-.13-.12-.16-.2-.07-.17-.12-.35-.17-.53-.1-.33-.19-.66-.29-.99-.03-.11-.1-.21-.12-.32-.09-.44-.16-.89-.24-1.33-.01-.07-.03-.19-.08-.21-.32-.18-.29-.55-.33-.8-.05-.36-.25-.66-.3-1-.01-.08,0-.17,0-.31-.04-.09-.1-.25-.16-.41-.05-.12-.13-.23-.17-.35-.09-.28-.17-.56-.26-.84-.03-.09-.06-.17-.08-.26-.06-.19-.11-.37-.17-.56-.12-.4-.25-.79-.38-1.19-.13-.41-.25-.82-.37-1.23-.02-.07.05-.18.02-.24-.04-.09-.13-.15-.2-.23.03,0,.05-.02.08-.02,0-.1.05-.21.02-.29-.11-.23-.25-.45-.38-.68,0-.02-.03-.03-.02-.05.06-.25.09-.49-.15-.67.17-.35-.17-.4-.34-.58.27-.15.2-.27-.01-.41-.05-.03-.11-.15-.1-.16.24-.25-.04-.49-.06-.72-.03-.31-.27-.61-.43-.92.14-.16.04-.35-.02-.53-.04-.12-.13-.22-.19-.33-.06-.13-.15-.28,0-.32-.02-.17-.03-.29-.04-.41,0-.02,0-.04,0-.05-.23-.23-.2-.56-.34-.83-.02-.03-.04-.06-.04-.09-.05-.21-.1-.41-.13-.62-.04-.33-.04-.66-.1-.98-.02-.13-.14-.24-.18-.31-.04-.18-.07-.31-.11-.43-.06-.17-.08-.36-.22-.51-.04-.04.03-.18.06-.35-.23-.2-.29-.53-.26-.9,0-.05.03-.1.06-.17-.08-.04-.2-.1-.31-.16.16-.29.12-.37-.12-.63-.11-.13-.14-.33-.2-.51-.04-.12-.06-.25-.11-.43.1.07.16.11.27.19-.06-.12-.08-.2-.12-.23-.28-.17-.33-.49-.42-.75-.16-.49-.24-1-.36-1.5-.14-.58-.3-1.16-.45-1.74-.11-.46-.29-.93-.29-1.39,0-.34-.2-.64-.1-1.01.06-.22-.17-.5-.24-.76-.15-.59-.29-1.19-.44-1.81.47.19.74.81.61,1.23.06.07.14.11.16.17.19.55.38,1.1.56,1.66.03.08,0,.18-.02.27.03.07.13.17.11.23-.08.22.06.34.18.45.14.13.22.25.15.44-.02.05-.01.11,0,.15.18.48.33.98.55,1.44.37.74.53,1.54.74,2.33.06.21.14.42.2.63.05.19.09.38.14.57.01.06.04.11.07.16.08.15.31.24.15.49-.04.05.05.19.04.3.13.08.18.16.15.37-.03.21.08.44.14.66.12.44.25.89.38,1.33.03.08.1.15.08.23v.65c.1-.05.16-.08.24-.13.02.05.07.1.06.14-.04.19,0,.34.1.53.09.17,0,.42-.06.63.05.17.09.33.14.51.07-.03.14-.07.25-.12v.79c-.12,0-.24-.02-.36-.02,0,.03-.01.07-.02.1.14.03.28.07.43.1-.02.06-.04.15-.07.26-.08,0-.15-.01-.23-.02-.04.19.06.2.2.22.29.04.35.19.19.44-.03.04-.02.11-.02.17.02.16.04.32.09.47.02.06.1.11.16.15.07.03.14.04.23.06-.08.12-.14.2-.19.28.1.06.2.1.29.17.07.05.14.13.15.21.01.08-.04.17-.07.26-.01.03-.06.05-.12.09.24.1.29.24.29.49,0,.27.17.53.25.79.06.19.09.39.15.58.04.14.12.27.18.4.3.58.4,1.21.56,1.83.09.35.25.68.36,1.03.1.3.25.59.18.93-.01.05.09.13.15.21-.16.12-.09.21.02.35.14.17.21.4.3.6.14.32.27.64.34.98.02.1.05.2.05.31,0,.09-.03.19-.03.25.2.45.39.89.59,1.34.06-.08.13-.18.18-.25-.17-.44-.27-.87-.27-1.33,0-.28-.12-.61-.29-.84-.1-.14-.19-.27-.23-.43-.07-.26-.06-.57-.2-.77-.3-.41-.15-.91-.36-1.34-.21-.42-.3-.9-.43-1.35-.13-.46-.29-.92-.38-1.39-.09-.49-.31-.93-.35-1.44-.03-.48-.25-.95-.39-1.44.09-.03.14-.04.2-.06-.27-.23-.38-.5-.29-.87-.33-.19-.2-.59-.31-.9-.14-.42-.2-.86-.28-1.3-.01-.07.05-.16.08-.24-.27-.22-.41-.73-.24-.99.14.41.28.81.44,1.25-.06.29.2.58.23.92-.04,0-.1,0-.19,0,.31.29.32.66.4,1.01.03.12.08.23.11.34.13.61.31,1.2.51,1.79.07.21.09.44.15.66.04.17.1.33.15.5,0,.03.03.07.02.1-.11.25,0,.38.23.45-.14.35,0,.63.14.93.09.21.23.41.16.67-.03.12.05.27.09.41.14.49.3.97.44,1.46.22.76.46,1.53.66,2.3.1.4.15.82.22,1.22.01.07.04.13.07.19.1.28.21.56.3.82-.19.05-.41.05-.45.14-.07.14-.16.37.12.52.05-.12.11-.23.17-.37.03.02.14.07.15.13.01.07-.04.18-.1.25-.18.2-.17.42.07.57.17.1.28.2.29.42,0,.13.12.25.14.43-.09-.03-.18-.07-.27-.1.23.23.54.4.56.78l-.1.1c-.04-.14-.09-.28-.13-.42-.04.04-.08.08-.12.11.02.33.31.46.59.63-.15.05-.25.09-.39.14.13.1.22.17.32.25-.03.05-.07.11-.1.16.3.19.3.26.06.8.1.05.2.1.32.15-.1.11-.18.19-.26.28.18.09.32.16.52.25-.13.07-.19.1-.24.12.02.17.04.33.06.53.04,0,.11.02.22.04-.06.07-.11.13-.13.16.07.27.13.51.21.74.08.24.17.47.26.75,0,.01-.05.08-.11.16.06.04.11.09.16.1.39.07.67.25.74.67.02.09.14.16.17.25.08.23.13.47.21.79-.16-.08-.23-.11-.31-.15-.02,0-.05.02-.07.02.06.16.12.32.18.48.02,0,.04,0,.06-.01,0-.05,0-.09,0-.14.48.05.61.43.78.8.21.44.45.87.69,1.3.31.55.62,1.11.93,1.65.04.06.11.11.16.16.05.06.13.13.12.19-.08.56.42.78.66,1.15.01.02.06.02.02,0,.06.16.09.26.14.35.22.42.44.84.68,1.24.18.29.42.53.61.81.1.15.15.33.23.49.06.12.12.24.21.33.55.59,1.02,1.25,1.51,1.9.27.35.55.68.84,1.04.08-.07.14-.11.2-.16-.1.33.13.51.31.69.67.66,1.34,1.31,2.02,1.95.18.16.41.26.62.4.12.08.22.18.33.26.11.08.22.16.33.23h0ZM57.43,115.45c-.11-.08-.22-.15-.34-.24.09.4.41.5.69.66.21.12.23-.02.29-.09-.14-.08-.25-.13-.36-.19-.1-.05-.2-.1-.3-.16.07-.02.14-.06.2-.04.1.04.19.12.29.18-.16-.26-.34-.49-.67-.6.07.18.13.32.19.46ZM50.75,104.85c-.04.22-.12.43.06.65.11.13.18.29.23.45.08.21.09.45.19.64.33.67.69,1.34,1.04,2,.06.12.15.22.23.33.02-.01.04-.02.06-.03-.04-.09-.07-.18-.11-.27-.05-.1-.13-.19-.16-.3-.12-.34-.2-.69-.33-1.02-.11-.29-.29-.55-.4-.83-.13-.34-.23-.7-.34-1.05,0-.02-.04-.02-.07-.05-.02.08-.03.15-.05.21-.07-.15-.07-.31-.1-.46-.03-.14-.03-.32-.26-.27-.06-.44-.05-.9-.38-1.26-.03-.03-.03-.08-.04-.12-.12-.47-.25-.93-.36-1.4-.09-.37-.15-.75-.25-1.12-.11-.41-.23-.81-.36-1.2-.03-.09-.12-.15-.19-.22-.02.02-.03.03-.05.05.24.57.46,1.14.4,1.78,0,.02,0,.04,0,.05.2.14.15.36.17.55.02.17.04.33.06.52,0,0-.05.01-.14.03.26.22.29.45.15.72.09.04.16.07.17.08,0,.69.5,1.16.57,1.79.11-.11.18-.17.24-.23ZM59.73,95.88s-.06.01-.1.02c.02.08.02.17.05.25.1.28.19.56.3.84.26.67.49,1.36.81,2,.45.91.97,1.78,1.46,2.67.06.12.07.26.14.38.15.23.31.45.47.67.39.52.78,1.05,1.18,1.57.04.05.13.06.2.1,0-.12.01-.19,0-.26-.02-.12-.03-.27-.1-.37-.19-.27-.42-.52-.63-.79-.15-.2-.28-.42-.42-.63-.11-.17-.25-.32-.33-.5-.11-.22-.17-.47-.29-.7-.18-.36-.4-.69-.59-1.05-.28-.53-.52-1.08-.81-1.6-.17-.32-.42-.6-.6-.92-.23-.41-.42-.84-.62-1.26-.06-.14-.1-.29-.14-.43ZM45.98,81.01s.05,0,.08,0c.07-.09.14-.18.22-.28-.03,0-.05,0-.08,0-.12-.63-.23-1.26-.35-1.89-.04,0-.07.01-.11.02.05.32.1.63.15.95.01.08,0,.17,0,.25,0,.05,0,.1,0,.14.02.21.04.41.06.62,0,.06.03.12.04.18ZM48.56,98.34c.08.25.13.45.2.64.02.04.11.06.13.07.06-.15.11-.26.15-.35-.11-.26-.21-.52-.33-.78-.04-.08-.11-.13-.17-.2-.01.09-.05.19-.03.28.02.09.09.17.14.24.06.08.12.15.19.23-.01.01-.02.02-.04.04-.07-.04-.13-.09-.25-.16ZM48.33,96.04s-.05,0-.07,0c.08.54.16,1.07.23,1.61.03,0,.06,0,.09,0,.03-.04.09-.09.08-.12-.11-.5-.22-1-.34-1.49ZM55.48,113.94c-.17-.23-.35-.46-.7-.47.15.34.44.38.7.47ZM53.38,111.36s.04-.05.06-.07c-.17-.18-.33-.36-.55-.59-.03.15-.06.22-.04.24.17.15.36.28.54.42ZM55.8,114.67s.04-.02.06-.03c-.06-.56-.12-.63-.29-.54.04.12.08.22.12.32.03.08.07.16.11.25ZM46.18,82.39s.05,0,.07-.01c-.03-.25-.06-.5-.09-.78-.14.08-.22.13-.32.19.1.02.17.03.22.03.04.2.08.39.12.57ZM46.42,84.86s-.02.06-.04.09c.07.1.15.2.22.31.03,0,.06-.02.09-.03,0-.1.06-.23.01-.29-.05-.06-.19-.05-.28-.07ZM46.22,82.52s-.05,0-.07-.01c0,.13-.03.27-.02.4,0,.03.1.06.22.12-.05-.22-.09-.36-.12-.51ZM56.63,114.71c-.13-.08-.23-.13-.39-.22.12.2.2.33.3.5.04-.12.07-.21.09-.27Z"/>
      <path class="cls-1" d="M12.49,96.5h-.1s0-.05,0-.06c.48-.27.49-.78.55-1.21.1-.6.42-1.11.57-1.68.03-.11.06-.22.07-.33.03-.43.26-.79.37-1.19.07-.26.17-.49.17-.77,0-.24.1-.48.17-.71.28-.89.56-1.79.84-2.68.12-.38.27-.74.37-1.12.1-.38.13-.77.22-1.15.21-.87.44-1.74.66-2.61.07-.29.2-.58.23-.87.06-.66.34-1.26.51-1.89.24-.89.59-1.75.88-2.63.14-.42.23-.85.38-1.26.24-.65.48-1.31.76-1.94.16-.35.39-.67.62-.98.08-.12.26-.17.36-.28.08-.09.12-.22.2-.35.2.02.27.11.21.34-.05.18-.05.38-.07.59-.13,0-.26-.01-.44-.02.07.08.1.12.15.18-.1,0-.16.01-.2.01-.25.5-.26,1.09-.66,1.52.15.12.02.22-.12.3.07.17-.16.81-.28.89,0,.14.02.24,0,.33-.11.43-.24.85-.36,1.28-.13.46-.28.92-.4,1.38-.09.36-.16.72-.24,1.08-.06.24-.12.47-.19.71-.12.48-.25.95-.36,1.43-.14.58-.26,1.17-.38,1.76-.16.73-.32,1.46-.47,2.18-.09.44-.17.88-.27,1.32-.07.28-.19.55-.27.83-.07.25-.08.51-.15.76-.16.61-.33,1.22-.5,1.83-.05.18-.13.36-.2.54-.1.31-.2.62-.31.92-.14.38-.34.75-.42,1.14-.1.47-.36.87-.51,1.32-.13.37-.3.72-.44,1.09-.13.35-.25.72-.37,1.07-.17.5-.35.98-.65,1.43-.17.25-.21.59-.33.88-.04.1-.14.18-.19.29-.06.15-.08.32-.15.46-.3.55-.27,1.22-.62,1.75-.03.05,0,.14-.02.2-.09.22-.18.43-.3.69,0,0,.06.1.03.16-.27.64-.54,1.27-.83,1.9-.19.41-.51.8-.59,1.23-.09.48-.52.76-.57,1.24-.01.13-.21.24-.3.38-.29.45-.57.9-.84,1.36-.09.14-.15.3-.24.44-.16.24-.35.46-.49.7-.14.24-.23.5-.34.75-.05.11-.09.22-.14.32-.02.05-.06.12-.04.17.12.31.27.58.59.73.43.21.85.39,1.34.26.06-.01.12-.02.18,0,.47.09.9-.04,1.34-.2.25-.09.52-.09.76-.19.4-.17.85-.27,1.13-.66.08-.12.23-.21.36-.28.19-.09.26-.2.26-.43,0-.18.11-.35.18-.53.09-.21.22-.42.28-.64.19-.67.38-1.35.54-2.03.12-.51.2-1.04.3-1.55.09-.46.18-.91.27-1.37.02-.09.06-.21.02-.27-.14-.22.04-.2.1-.23.06-.33.1-.63.17-.93.07-.29.21-.58.24-.87.03-.39.19-.74.22-1.12.03-.4.09-.8.16-1.19.1-.55.23-1.1.35-1.65.17-.77.32-1.55.53-2.31.1-.37.17-.78.47-1.07.07-.07.08-.19.07-.31-.08.11-.15.22-.23.33-.02,0-.05-.01-.07-.02.05-.19.1-.38.15-.57h-.16c.1-.11.18-.18.24-.26.04-.05.1-.13.09-.15-.18-.29,0-.56.05-.83.12-.63.26-1.26.4-1.89.07-.35.17-.7.23-1.05.05-.28.05-.57.1-.86.05-.34.13-.68.2-1.03.13-.63.27-1.26.41-1.88.08-.34.17-.68.25-1.02.1-.47.26-.93.21-1.43-.02-.16.12-.32.14-.49.05-.35.06-.72.12-1.07.1-.6.23-1.19.34-1.79.09-.49.16-.99.26-1.48.14-.71.3-1.42.47-2.12.04-.16.12-.31.19-.49.14.08.38.08.19.33.11.08.2.15.31.24.12-.04.21-.13.12-.31-.03-.06-.02-.14,0-.21.08-.46.16-.91.26-1.36.04-.17-.01-.38.19-.5.03-.02-.02-.16,0-.24.06-.26.11-.52.08-.79-.01-.12.07-.25.12-.41-.11-.17-.07-.42.15-.55.12-.07.12-.11.07-.25-.04-.12.08-.3.12-.46.03,0,.05,0,.08,0-.05-.04-.1-.08-.16-.14.05-.06.12-.11.14-.18.03-.08.07-.21.03-.27-.18-.29-.14-.4.14-.49,0-.13-.01-.25.02-.34.06-.17.06-.43-.04-.6.07-.02.13-.04.21-.07-.06-.06-.1-.12-.18-.2.11-.12.23-.24.35-.37-.05-.13-.1-.28-.15-.41.18-.06.3-.1.42-.14,0-.03-.02-.06-.03-.09-.07,0-.13.02-.2.02-.18,0-.24-.11-.19-.29.04-.16.01-.36.08-.5.22-.44.3-.92.39-1.4.04-.23.19-.45.24-.68.03-.13-.02-.28-.03-.42,0-.12-.07-.31-.01-.35.3-.24.27-.59.31-.89.04-.32.06-.61.47-.71l-.05-.07c-.07-.01-.15-.02-.29-.04.08-.38.16-.77.24-1.15.05-.25.11-.51.17-.76.08-.34.15-.68.25-1.01.1-.33.23-.64.22-.99,0-.2.04-.35.24-.36.09-.44.18-.86.27-1.28.03,0,.05,0,.08,0-.04-.03-.09-.05-.15-.09.04-.04.06-.06.09-.08.11-.06.26-.1.16-.29-.01-.03,0-.1.03-.12.26-.19.23-.45.23-.73,0-.14.11-.28.18-.45.01,0,.07,0,.16.01-.06-.09-.11-.16-.12-.19.04-.12.07-.2.1-.29.05-.12.1-.23.15-.35.02-.05.05-.09.06-.13.03-.15.04-.3.08-.45.1-.35.21-.69.33-1.03.12-.32.27-.63.41-.94.14-.31.26-.63.41-.93.12-.26.27-.5.41-.75.02-.05.07-.1.06-.14-.1-.37.2-.63.28-.95.01-.05.17-.07.27-.1,0,.1.03.2.02.3,0,.09-.04.18-.08.27-.07.17-.15.33-.21.49-.09.28-.16.57-.26.85-.14.39-.32.77-.46,1.16-.1.28-.14.58-.23.87-.1.34-.23.68-.34,1.02-.06.19-.1.38-.15.58-.12.46-.14.94-.36,1.37-.07.14-.12.29-.13.44-.03.25-.15.36-.42.3.2.09.26.2.2.4-.1.34-.18.68-.26,1.02-.11.5-.2,1.01-.3,1.51-.06.28-.14.56-.21.84-.06.27-.1.54-.17.81-.13.52-.29,1.04-.41,1.56-.1.41-.15.84-.25,1.25-.06.26-.17.52-.27.81,0,.06.05.18.03.28-.07.47-.16.94-.24,1.41-.01.08-.03.16-.05.23-.08.35-.15.7-.25,1.04-.04.13-.14.24-.21.37.16.06.13.15.04.37-.13.33-.15.7-.2,1.06-.1.68-.19,1.37-.3,2.05-.02.12-.13.22-.17.3,0,.18-.02.33-.02.51.04,0,.1.03.16.04,0,.02,0,.05,0,.07h-.54c.1.12.31.25.32.4.02.24-.12.47-.43.47,0,.03,0,.05,0,.05.41.14.19.42.15.66-.06.34-.09.68-.24,1-.09.19-.08.43-.08.65,0,.28-.06.51-.27.7-.02.02-.03.04-.04.07-.04.37-.06.74-.11,1.1-.03.25-.07.5-.17.73-.09.21-.04.34.07.4-.09.32-.19.6-.26.89-.09.38-.16.77-.23,1.15,0,.02-.01.03-.01.05-.05.34-.08.68-.14,1.02-.07.43-.15.87-.24,1.3-.14.67-.31,1.33-.43,2-.11.64-.16,1.3-.28,1.94-.09.47-.28.92-.39,1.38-.08.32-.11.65-.16.98-.03.16-.06.32-.11.48-.21.81-.44,1.62-.64,2.43-.11.46-.16.93-.27,1.39-.14.58-.3,1.15-.47,1.72-.13.44-.3.87-.41,1.32-.14.52-.23,1.05-.35,1.58-.11.49-.25.98-.36,1.47-.06.29-.09.58-.13.87-.03.16-.05.33-.08.49-.2.92-.41,1.83-.61,2.75-.05.26-.07.52-.11.78,0,.06-.02.13-.05.17-.26.26-.24.6-.3.93-.06.37-.12.74-.22,1.1-.03.1-.17.17-.28.28.08.01.15.02.23.04-.01.06-.01.1-.02.14-.08.24-.23.46-.15.75.03.12-.08.27-.1.41-.02.14,0,.3-.04.43-.15.48-.25.96-.24,1.47,0,.26-.19.52-.27.78-.09.3-.17.61-.24.92-.04.18-.06.37-.11.55-.16.51.18,1.42.65,1.73.29.19.6.36.83.6.37.38.81.54,1.31.6.19.02.39,0,.57-.02.61-.09,1.22-.19,1.83-.3.13-.02.26-.1.43-.17,0,.02,0-.02.01-.04.38-.42.75-.85,1.16-1.3.2.32.35.58.49.81.22-.26.48-.57.74-.87.02.02.05.04.07.05-.02.06-.05.11-.08.19.06,0,.11,0,.16.01-.05.14-.07.3-.16.4-.18.19-.36.74-.27,1-.05.03-.11.06-.13.07.05.2.1.39.15.59.03.12.08.18.22.24.16.08.3.28.37.46.23.6,1.04,1.17,1.68,1.16.1,0,.23,0,.31.05.32.21.68.16,1.02.15.49-.02.98-.09,1.47-.19.65-.13,1.31-.26,1.88-.64.24-.16.54-.22.79-.37.18-.11.36-.27.36-.52,0-.08-.03-.15-.03-.17,0-.18,0-.32,0-.46.03-.39.27-.61.6-.77.07-.03.15-.05.22-.08-.11-.1-.2-.19-.3-.28.05-.05.1-.11.15-.16.01,0,.02.02.03.02l-.05.12s.04-.02.06-.03c.09.14.17.29.27.42.29.41.58.82.89,1.23.03.05.15.04.22.04.27.02.54.03.81.04.03.37-.15.55-.57.56-.02.47.17.87.44,1.23.14.2.28.39.41.6.34.58.71.73,1.38.6.53-.11.94-.41,1.35-.72.28-.21.57-.41.83-.63.21-.18.39-.39.56-.63-.56.11-1.12.22-1.68.34-.01-.02-.02-.04-.04-.06.07-.07.13-.15.2-.21.21-.17.43-.33.65-.49.08-.05.17-.08.27-.1.23-.05.47-.07.7-.12.27-.06.3-.31.38-.52.02-.05,0-.1,0-.16,0-.29.03-.6-.32-.61-.07-.32-.15-.59-.19-.87-.09-.69-.18-1.38-.25-2.08-.03-.3,0-.62-.03-.92-.04-.32-.01-.65-.18-.96-.13-.26-.14-.59-.21-.89-.03-.1-.09-.19-.09-.28,0-.18,0-.36,0-.54,0-.14.02-.29,0-.43-.03-.31-.05-.62-.14-.91-.06-.21-.09-.38-.05-.6.03-.15-.04-.31-.05-.47-.01-.2-.19-.4.02-.61.05-.05-.04-.25-.05-.38-.02-.21-.01-.43-.03-.64,0-.05-.05-.1-.08-.15.04-.03.09-.06.18-.13-.12-.02-.19-.03-.33-.06.42-.23.29-.54.26-.86-.05-.43-.05-.88-.07-1.31,0-.05-.03-.1-.02-.15.02-.09.04-.21.11-.27.11-.11.14-.18,0-.29-.2-.17-.19-.28.02-.47-.05-.04-.09-.07-.11-.09.08-.14.15-.27.23-.42-.29.02-.41-.08-.4-.32.02-.02.05-.05.07-.07.04.11.09.23.13.34.04-.04.09-.07.13-.11-.06-.11-.1-.26-.2-.31-.34-.2-.25-.51-.28-.8.03-.01.06-.03.09-.04.04.1.08.2.16.38,0-.18-.02-.3,0-.4.02-.11.08-.22.14-.35-.02-.02-.07-.05-.08-.06,0-.23.01-.42,0-.61-.02-.27-.07-.54-.09-.82-.04-.61-.08-1.22-.12-1.83-.02-.45-.04-.9-.05-1.36,0-.45,0-.91,0-1.36,0-.26.03-.51.04-.77,0-.1-.05-.2-.04-.3.01-.19,0-.39.08-.55.19-.35.18-.72.2-1.09,0-.16.06-.32.06-.48,0-.09-.07-.18-.14-.32.08-.08.41-.17.13-.39.02-.22.06-.39.05-.57,0-.03-.2-.04-.39-.08.17-.03.27-.03.37-.06.06-.02.13-.1.13-.15,0-.48-.01-.96-.03-1.44,0-.08-.07-.16-.11-.25-.02.01-.05.02-.07.04.1-.12.2-.23.31-.36-.11-.08-.21-.14-.35-.23.18-.02.28-.03.42-.04-.06-.09-.1-.15-.14-.22.05-.01.08-.03.09-.02.14.13.21.26.14.47-.05.15.01.33.01.5,0,.81-.01,1.62,0,2.44,0,.12.1.25.17.39-.29.32-.17,1.38.22,1.64-.2.16-.37,2.04-.23,2.6-.35.12-.35.12-.29.51.01.08.04.17,0,.23-.19.31.04.48.21.67.1.11.23.2.36.31-.15.11-.36-.16-.36.1.09.15.16.27.26.43-.11-.01-.15-.02-.2-.03.06.11.12.23.19.36-.18.02-.31.04-.44.06,0,.02,0,.04,0,.06.09.03.2.03.25.09.05.06.04.18.06.26.05-.03.1-.07.18-.13,0,.09,0,.14-.02.16-.13.16-.13.29.06.41.04.03.07.14.05.2-.03.07-.12.16-.17.15-.22-.05-.24.08-.25.24,0,.13-.01.25-.02.38.03,0,.06,0,.09.01.04-.17.07-.35.11-.54,0,0,.09,0,.18.02v1.51c-.2.04-.19.15-.04.31.05.06.08.17.06.24-.05.25,0,.47.09.7.03.08-.03.2-.05.3,0,.05-.04.12-.02.14.23.23.06.54.15.8.06.16.04.37,0,.54-.03.11-.16.2-.26.31.05.03.1.07.2.14-.34.17-.27.46-.2.76-.07.02-.13.04-.23.08.09.14.16.25.25.39-.02.04-.06.1-.1.17.1.06.18.1.26.15,0,.02-.02.05-.03.07-.09-.02-.18-.05-.27-.07-.05.37-.01.43.3.59.06.39.17.73.14,1.07-.03.36.08.68.12,1.03-.05-.06-.1-.13-.18-.25-.06.15-.1.27-.17.44.1-.08.16-.13.25-.19.2.37.1.73.06,1.08-.04.36.2.66.15,1.04-.04.34.12.7.18,1.05.06.35.11.71.16,1.06.05.36.08.73.17,1.08.09.33.02.7.22,1.1-.02.25.01.58.27.87.09.1-.03.26.1.42.15.18.15.47.23.7.07.21.03.53.42.5.05,0,.16.19.16.29,0,.2-.06.39-.1.59-.06.29.07.53.21.77.32.54.74.96,1.29,1.3.54.33,1.11.53,1.71.61.39.05.79-.03,1.18-.04.75-.02,1.51-.02,2.27-.03.03,0,.06,0,.08-.01.26-.23.62-.13.9-.29.27-.16.59-.22.89-.34.53-.22.61-.58.27-.96-.08-.09-.15-.19-.18-.33.06.05.12.09.17.15.17.18.37.34.49.55.23.41.06.86-.38,1.19,0,0-.02,0-.02.01-.33.36-.75.39-1.21.39-1.96-.02-3.91-.03-5.87,0-.57,0-1-.13-1.44-.52-.48-.43-.85-.89-1.15-1.45-.1-.19-.22-.37-.35-.55-.03-.04-.12-.07-.15-.06-.16.1-.35.18-.47.32-.59.73-1.07,1.55-1.92,2.03-.2.11-.43.19-.66.2-.49.03-.99.02-1.48,0-.11,0-.25-.05-.31-.13-.4-.56-.78-1.12-1.17-1.69-.06-.09-.09-.21-.14-.31-.18-.38-.58-.63-.99-.6-.05,0-.12.05-.14.09-.26.46-.67.75-1.07,1.07-.57.46-1.22.69-1.89.91-.24.08-.46.23-.71.3-.2.05-.42,0-.62.04-.24.04-.48.18-.72.16-.29-.02-.55.01-.79.16-.03.02-.1,0-.12-.02-.25-.29-.6-.18-.91-.22-.53-.05-1.06-.11-1.49-.45-.25-.21-.47-.47-.69-.71-.02-.02.01-.09,0-.07-.12-.1-.22-.17-.28-.25-.25-.36-.58-.66-.69-1.11-.09-.37-.16-.75-.23-1.13-.05-.28-.08-.57-.12-.9-.16.18-.3.35-.47.55-.03,0-.1-.02-.13-.02-.1.22-.17.43-.29.61-.12.19-.29.35-.44.51-.04.04-.11.05-.17.06-.05.01-.13-.01-.15.02-.48.47-1.02.13-1.54.11-.22,0-.44.05-.65.03-.22-.02-.44-.09-.65-.15-.17-.05-.35-.12-.51-.19-.24-.11-.46-.24-.71-.33-.17-.06-.35-.07-.53-.1-.07-.01-.15,0-.2-.03-.62-.3-1.22-.64-1.67-1.18-.04-.05-.04-.16-.02-.24.04-.14.13-.27.15-.42.03-.19.02-.39.01-.58,0-.05-.06-.1-.12-.18.08-.2.22-.43.13-.72-.02-.07.11-.18.15-.29.04-.09.06-.2.08-.29-.02-.01-.04-.02-.06-.03-.04.06-.09.11-.12.17-.14.31-.38.44-.72.5-.23.04-.5.08-.65.31-.02.03-.05.06-.07.07-.23.04-.46.13-.68.2-.29.09-.63.02-.95.02-.05,0-.1.03-.16.04-.13.02-.26.03-.38.05-.51.07-.75-.38-1.11-.59-.05-.03-.09-.06-.14-.06-.42-.04-.57-.37-.68-.68-.13-.39-.19-.8-.27-1.21-.01-.07-.02-.17.02-.23.15-.28.09-.56.04-.85-.02-.09,0-.21.06-.28.51-.72,1.03-1.44,1.55-2.15.27-.37.58-.72.83-1.11.17-.26.26-.58.43-.84.33-.49.46-1.05.67-1.58.13-.33.29-.64.42-.96.17-.39.36-.78.48-1.19.12-.39.21-.79.42-1.15.11-.2.11-.46.15-.7-.04-.01-.1-.03-.18-.05.13-.11.24-.21.33-.3-.05-.08-.1-.16-.15-.24.28-.08.27-.08.28-.34,0-.12.05-.24.09-.35.16-.39.31-.79.49-1.18.24-.52.28-1.08.45-1.61.04-.14.17-.25.27-.39ZM19.54,80.6s.02.01.02.02c-.05.11-.13.23-.15.35-.03.22,0,.45-.05.67-.08.45-.2.9-.28,1.36-.14.8-.26,1.61-.39,2.44.07.06.17.14.32.27.03-.5.05-.94.07-1.37.03.02.08.07.14.11,0-.18,0-.34.02-.5.07-.49.15-.97.23-1.45.1-.65.2-1.3.3-1.94.01-.09.06-.17.08-.26.05-.35.07-.71.13-1.06.1-.52.22-1.04.34-1.61-.13,0-.29-.05-.35,0-.14.14-.1.32.01.47-.05.05-.08.09-.12.14.15.11-.03.21-.02.32,0,.05-.08.1-.09.16-.05.38-.1.75-.14,1.13,0,.08-.01.15-.02.23-.02.18-.04.35-.06.53ZM17.86,90.11s.07.09.08.08c.07-.04.17-.1.18-.17.04-.18.03-.36.07-.54.03-.11.14-.21.16-.33.08-.4.13-.81.19-1.22.03-.23,0-.48.1-.67.06-.12.09-.19-.01-.24-.11-.05-.27-.07-.31.11-.06.23-.1.47-.14.7-.06.39-.12.79-.18,1.18-.05.34-.09.67-.15,1.08ZM18.35,86.9c.3.04.42-.05.47-.26.04-.16.1-.32.13-.49.02-.09.03-.2-.01-.27-.03-.04-.19-.05-.23-.01-.05.05-.05.16-.07.25-.01.07-.03.14-.04.21-.01.08-.02.15-.03.24-.05.07-.12.18-.22.32ZM17.49,90.91c.07.29.13.57.2.85.01,0,.03-.02.04-.02.06-.26.13-.52.21-.82h-.44ZM17,94.2c.06-.03.16-.04.17-.08.06-.34.36-.69-.07-1.08,0,.27,0,.48,0,.69,0,.14.11.34-.1.47ZM17.51,92.64c.02-.14.02-.27.07-.38.12-.25,0-.29-.21-.3-.03.11-.07.21-.08.31,0,.1.03.19.05.32.02,0,.09.03.17.05ZM17.96,90.28s-.08,0-.13,0c0,.13-.02.25-.01.38,0,.04.06.07.09.11.04-.04.12-.08.11-.11,0-.13-.04-.25-.06-.37Z"/>
      <path class="cls-1" d="M42.59,103.13c0,.21-.07.46.27.48.03,0,.06.09.1.16-.23-.02-.35.03-.25.28.08-.02.15-.05.23-.07.02.25.05.48.07.71h-.31c.02.18.03.34.05.48.12.04.22.07.32.1,0,.03-.01.06-.02.09h-.27c.18.43.42.83.21,1.28.1.04.17.07.25.1.01.02.03.05.04.07-.07.03-.15.06-.19.07.12.31.22.58.33.87h-.33c.32.22.61.41.34.8.07.01.13.02.21.03-.11.15-.37.27-.16.43.03.21.05.37.08.53.04.25.09.5.14.76.08.01.17.03.33.06-.12.04-.17.06-.2.07.01.32.34.53.27.88-.02.11.1.24.15.36.34.86.68,1.72,1.04,2.58.08.19.22.36.37.59-.1-.02-.16-.01-.17-.03-.27-.47-.54-.94-.79-1.42-.19-.34-.37-.69-.53-1.05-.09-.19-.13-.41-.2-.61-.08-.22-.19-.43-.25-.66-.08-.29-.12-.6-.18-.9-.02-.08-.04-.17-.06-.25-.06-.18-.15-.36-.19-.55-.07-.27-.11-.55-.16-.82-.08-.45-.15-.9-.22-1.35,0-.03,0-.06-.01-.08-.18-.26-.04-.59-.14-.82-.09-.2-.34-.34-.21-.62,0,0-.02-.04-.03-.04-.34-.01-.24-.29-.27-.47-.17-.96-.33-1.93-.49-2.89-.04-.28-.06-.56-.09-.83-.05-.52-.03-1.07-.17-1.57-.07-.26-.01-.51-.1-.75-.03-.09.02-.21.04-.32,0-.03.04-.07.04-.1-.05-.26-.13-.52-.16-.78-.05-.41-.08-.83-.12-1.24-.03-.26-.08-.51-.1-.77-.02-.27-.01-.55-.03-.83-.02-.37-.06-.73-.1-1.1-.05-.48-.1-.95-.14-1.43-.01-.11,0-.24.02-.35.08-.34-.12-.62-.17-.94-.03-.21-.08-.43-.04-.64.07-.4-.27-.77-.03-1.17.02-.03,0-.11-.01-.12-.24-.12-.11-.31-.09-.48.02-.15.02-.31,0-.47-.04-.4-.11-.81-.14-1.21-.05-.66-.08-1.31-.1-1.97-.01-.25,0-.51.02-.76,0-.05.06-.09.04-.14-.02-.18-.07-.36-.07-.55-.01-.83-.02-1.66-.02-2.49,0-.13.04-.27.04-.4,0-.11-.02-.23-.02-.34,0-.28,0-.56,0-.83,0-.24-.01-.48-.02-.72-.02-.54-.02-1.07-.06-1.61-.04-.68-.09-1.37-.15-2.05-.04-.5-.11-1-.13-1.5-.02-.41,0-.82,0-1.23,0-.78,0-1.56-.01-2.33,0-.54,0-1.08-.03-1.62,0-.29-.06-.57-.07-.85,0-.17.06-.34.06-.51,0-.26-.01-.53,0-.79,0-.13.06-.27.1-.44-.08-.06-.19-.16-.06-.36.02-.03,0-.1-.01-.15-.01-.05-.06-.1-.05-.14.1-.38-.12-.77-.05-1.12.09-.46-.16-.91.07-1.36.08-.16-.04-.42-.04-.63,0-.74,0-1.49.02-2.23.03-.91.1-1.82.15-2.73.01-.18,0-.37,0-.56,0,0,.03,0,.04,0,.17.29.36.57.3.95-.04.24.07.52.02.75-.08.34.2.74-.21,1.02.13.08.22.14.26.17-.01.35-.02.66-.03.97-.01.22-.05.44-.06.67-.02.3-.01.6-.03.9-.01.28.07.55-.08.83-.05.09.04.25.03.38-.01.37-.06.74-.06,1.1,0,.26,0,.53.09.77.05.14.02.21-.03.31-.03.06.01.15,0,.23-.01.13-.04.25-.07.4.14.06.14.18.08.34-.03.08-.01.18-.02.26-.02.12-.04.25-.07.37,0,.04-.04.09-.03.12.13.4.07.82.07,1.23,0,.36.07.71.07,1.07.01.57,0,1.15,0,1.73,0,.32.03.65.05.97,0,0,0,.02,0,.03-.17.31.02.64-.06.95-.03.13.07.29.03.41-.11.31.05.59.05.89.01.37.11.74.17,1.11.02.13.05.24-.09.38-.07.07.02.3.04.51,0,0-.06.05-.11.09.05.2.11.4.17.66,0,0-.08.03-.15.07,0,.03-.01.06-.02.09.08.04.15.08.25.13-.13.17-.22.33-.02.41,0,.19.02.34.03.53,0,0-.07.02-.12.03.05.31.11.62.17.95-.23.07-.19.2-.02.34.03.03.05.1.05.14-.01.48-.05.95-.05,1.43,0,.27.05.55.06.82.02.43.02.86.03,1.3.01.74-.05,1.48.1,2.21,0,.04-.02.1-.03.17-.1-.07-.17-.13-.28-.21,0,.12-.02.2-.02.29.28-.04.29.21.39.35.06.08.01.24-.03.36.04.12.1.25.11.37.03.37.06.75.06,1.12,0,.4-.04.81-.02,1.21.01.37.11.73.12,1.1,0,.35.15.67.23,1,.01.05.04.13.02.15-.2.18,0,.27.09.37-.27.17-.19.47.21.76-.13.07-.25.12-.38.19.02.05.03.11.06.16.19.39.08.83.17,1.24.05.2.05.41.06.62.01.32,0,.63.03.95,0,.08.08.15.13.24-.26.23.07.36.17.57h-.23s-.03.04-.02.04c.21.46.07.96.18,1.43.05.21.03.44.07.65.02.11.09.2.15.32,0,.06-.01.18.03.22.16.13.1.24.02.35.09.11.18.22.27.33-.03.02-.05.05-.08.07-.11-.09-.22-.18-.38-.31.11.3.2.53.3.81-.13.27-.13.28.13.41-.05.11-.14.22-.12.32.01.07.16.13.27.21-.27.08-.25.22-.13.4.06.09.04.22.07.33.02.07.08.12.13.18.04.05.1.08.15.13-.06.02-.13.03-.26.06.06.11.11.22.16.32h0Z"/>
      <path class="cls-1" d="M5.3,95.95c.07.06.13.12.2.19-.07.05-.14.1-.24.18.14.1.27.19.46.32.08-.23.14-.42.2-.61,0,0,.02.02.03.03.08-.12.18-.24.25-.37.17-.28.34-.57.49-.86.13-.24.22-.5.35-.74.03-.05.13-.06.21-.08h0c.32.44-.16.47-.34.69.08-.03.16-.05.31-.1-.07.18-.11.32-.18.45-.28.53-.56,1.06-.85,1.58-.13.22-.3.42-.44.64-.03.05,0,.15-.02.21-.11.22-.24.42-.37.63-.09.15-.19.3-.28.45-.13.25-.25.51-.39.77-.02.05-.1.07-.13.11-.09.12-.17.23-.24.36-.12.23-.18.5-.33.69-.38.47-.55,1.03-.79,1.59-.02-.13-.04-.26-.06-.4-.04.05-.09.12-.14.19-.2.29-.4.57-.58.86-.13.2-.23.42-.34.63-.04.07-.08.14-.12.22,0,.02-.03.03-.03.04,0,.28-.22.41-.4.56-.03.03,0,.15,0,.17-.12.24-.22.44-.32.65.08.08.15.14.19.17-.08.03-.22.05-.25.12-.04.07.02.2.05.33-.04.05-.12.14-.19.23.01.01.03.03.04.04.04-.02.08-.04.14-.06-.01.27-.21.35-.4.43.26.06.43-.06.6-.24-.09.13-.17.25-.26.38.02,0,.04,0,.07.01-.06.26-.14.53-.17.79-.03.28-.12.57.06.83.02.03.03.1.01.12-.16.25,0,.44.1.65.04.08,0,.2.04.29.1.25.21.49.3.7-.29-.06-.81-.45-.91-.72-.14-.39-.34-.77-.35-1.25-.22-.18-.24-.46-.2-.79.02-.18-.03-.37.06-.55-.27-.17-.04-.28.04-.42.01-.02.02-.06,0-.07-.18-.21,0-.32.12-.46l-.07-.02c.07-.22.14-.44.21-.66.03-.1.06-.21.09-.31.02-.08.04-.16.07-.24.16-.32.36-.62.48-.94.12-.31.33-.51.62-.69-.08-.04-.12-.06-.21-.1.82-1.25,1.63-2.49,2.45-3.73l-.07-.03c.03-.12.05-.25.1-.36.17-.39.57-.64.66-1.08.01-.07.15-.11.25-.18.02-.11.06-.25.08-.4.01-.07,0-.14,0-.2,0-.03-.03-.06-.02-.07.12-.19.24-.38.36-.56,0,0,0,0,0,0ZM5.24,97.74c-.11-.01-.2-.04-.22-.02-.1.11-.21.24-.27.37-.03.07.01.18.02.28.15-.21.29-.4.47-.64ZM5.75,96.77c-.21-.21-.34-.17-.44.19.14-.06.29-.12.44-.19Z"/>
      <path class="cls-1" d="M35.4,71.39c-.11.09-.17.45-.07.6.06.1.15.2-.06.24-.02,0-.01.14.02.22-.16.27-.16.43.05.67h-.28c.1.09.16.15.23.2-.1.11-.21.23-.31.34.02,0,.04,0,.06.01-.03.3-.06.61-.08.91,0,.13,0,.27,0,.4.02,0,.04,0,.07.01-.08.06-.16.12-.26.19.07.08.14.15.23.26-.1.03-.17.05-.24.07.25.23.28.46-.04.68.17.18.15.32.02.38-.02.23-.05.4-.06.56,0,.19.01.38,0,.57,0,.16-.04.32-.06.48,0,.03-.03.05-.02.07.15.37.01.77.09,1.14.08.37-.08.69-.06,1.03.01.24.03.48.03.71,0,.07-.03.14-.06.23-.39-.31-.47-.85-.26-1.13-.01-.17-.04-.28-.03-.38.02-.24.05-.49.07-.73,0-.02,0-.04,0-.05-.37-.31.09-.38.16-.57-.03,0-.05,0-.08,0-.02-.13-.05-.26-.06-.39-.03-.32-.07-.63-.07-.95,0-.24.03-.48.06-.72.02-.27.04-.54.08-.81.01-.08.09-.15.15-.25-.02-.05-.11-.15-.11-.25,0-.06.14-.11.21-.16-.13-.09-.17-.22-.13-.42.06-.31.03-.64.09-.95.12-.57,0-1.14.14-1.71.15-.62.1-1.29.13-1.94,0-.09.03-.17.05-.26.09-.3.04-.6.03-.9,0-.12.05-.24.1-.41-.08-.13-.04-.59.1-.81-.06-.04-.12-.07-.16-.1,0-.02-.01-.03-.01-.04.19-.19.12-.42.11-.64,0-.21.02-.43.04-.65,0-.02,0-.04,0-.05.21-.24.12-.57.23-.84.09-.22.22-.35.48-.36,0,.14.02.28,0,.41-.05.32-.13.64-.17.96-.06.48-.09.96-.14,1.43-.04.48-.09.96-.13,1.45,0,.06.01.12.04.17.2.29.09.57-.09.79-.1.12-.08.21-.08.33,0,.21-.01.43-.01.64,0,.09.02.18.03.32Z"/>
      <path class="cls-1" d="M27.13,91.81c-.08-.02-.16-.04-.27-.07.08.14.15.25.21.36.02.04.05.11.03.15-.08.26-.23.51-.25.77-.02.23-.1.43-.13.65-.08.52-.12,1.04-.31,1.54-.12.31-.13.67-.21.99-.04.16-.14.3-.24.5.09.13,0,.3-.07.51-.08.22-.02.49-.09.71-.13.43-.09.91-.36,1.31-.02.04.02.11.02.17-.01.15-.04.3-.06.45,0,.05-.04.11-.02.15.07.18.04.32-.1.46-.07.07-.04.24-.07.35-.04.12-.1.23-.17.39-.06-.12-.1-.18-.14-.28-.05.08-.08.14-.12.21,0-.26-.06-.55.3-.62-.1-.12-.24-.21-.25-.32,0-.1.13-.21.21-.33-.19-.04-.33-.06-.12-.24.05-.04.23-.17.02-.29-.02-.01-.03-.1-.01-.12.13-.15.06-.33.08-.49.04-.28.16-.54.22-.81.06-.25.08-.5.11-.75,0-.03,0-.05,0-.08.12-.43.25-.86.37-1.3.07-.26.12-.52.19-.78.02-.09.08-.17.12-.26,0-.05-.05-.2-.03-.21.21-.1.09-.3.14-.44.08-.24.16-.49.23-.73,0-.02.02-.04.02-.05-.15-.32.1-.52.24-.77-.07-.04-.12-.07-.24-.13.16-.02.25-.03.36-.04-.17-.22-.17-.43-.05-.67.05-.1,0-.24.02-.36.01-.08.06-.2.1-.2.08-.01.22.02.25.08.11.17.24.36.06.6Z"/>
      <path class="cls-1" d="M31.49,105.57c.07-.55.12-1.1.21-1.64.05-.29.05-.62.29-.85.02-.02.04-.07.03-.09-.14-.31.04-.58.12-.86.08-.31.2-.62.23-.94.01-.1-.16-.23-.02-.32.02-.13.04-.27.05-.4.02-.2.02-.41.03-.61,0,0,0-.02,0-.02.24-.22.13-.53.22-.79.03-.08-.03-.18-.02-.27,0-.07.06-.14.1-.2.06.05.18.11.18.16,0,.16-.06.31-.11.46-.01.29,0,.59-.04.88-.11.73-.23,1.45-.36,2.18-.02.12-.09.24-.11.3-.04.17-.06.27-.08.37-.09.44-.17.89-.27,1.33-.08.37-.2.72-.29,1.09-.03.11.04.27-.17.24h0Z"/>
      <path class="cls-1" d="M34.3,84.9s.04-.01.07-.02c-.01-.12-.03-.23-.04-.35.07-.11-.21-.16,0-.3-.09-.07-.18-.15-.31-.25,0-.19.16-.07.29,0-.06-.37-.11-.7-.17-1.07.16-.11.06-.5.4-.51v.63c.01.15.04.35.04.55-.02.48-.07.95-.08,1.43,0,.38.06.75.08,1.13,0,.06-.06.12-.04.18.01.12.02.24.03.37,0,.1.02.21,0,.31,0,.08-.04.17-.08.24-.02.03-.13.03-.13.02-.03-.06-.05-.14-.05-.21,0-.52,0-1.04,0-1.56,0-.12.04-.24.04-.36,0-.07-.03-.15-.05-.24Z"/>
      <path class="cls-1" d="M33.13,95.59c-.02-.77,0-1.42.13-2.1,0-.11-.02-.24,0-.37,0-.03.11-.07.17-.08.02,0,.08.09.07.14-.02.2-.06.4-.07.6-.03.44-.08.88-.06,1.32.02.43-.03.83-.15,1.23-.06.19-.04.4-.05.62-.26-.11-.33-.34-.2-.57.03-.06.09-.13.07-.17-.14-.29.06-.5.11-.62Z"/>
      <path class="cls-1" d="M54.99,62.76c.11.17.24.32.32.5.36.85.83,1.63,1.31,2.41.16.26.32.52.47.79.05.09.07.19.11.28-.03.02-.05.03-.08.05-.1-.13-.2-.26-.29-.39-.12-.17-.29-.34-.34-.53-.05-.18-.14-.33-.24-.47-.14-.19-.29-.39-.4-.6-.14-.25-.25-.53-.38-.79-.17-.31-.23-.67-.51-.92-.12-.11-.05-.24.05-.34,0,0,0,0,0,0Z"/>
      <path class="cls-1" d="M7.66,93.13c.22-.44.44-.88.69-1.36.02-.05.05-.15.09-.24.09-.24.18-.48.29-.71.04-.1.11-.2.2-.26.04-.03.14,0,.22.02-.05.04-.1.09-.15.13-.02.02-.04.03-.01.07-.09.2-.19.41-.3.65,0,.01.06.07.1.12,0,.02-.01.05-.02.05-.2.04-.25.19-.31.37-.05.16-.16.29-.24.44-.04.08-.09.17-.1.26-.02.32-.11.43-.45.47Z"/>
      <path class="cls-1" d="M35.04,100.51c-.05-.07-.13-.13-.14-.21-.06-.5-.1-.99-.16-1.49-.03-.23-.1-.45-.13-.68-.02-.12.02-.24.03-.36.03,0,.07,0,.1,0v.64c.35.58.21,1.34.41,2.02-.04.02-.08.04-.12.06Z"/>
      <path class="cls-1" d="M35.69,62.59c.14-.1.27-.19.41-.28-.05-.06-.11-.12-.16-.17.08-.13.15-.25.22-.38-.07-.05-.13-.08-.22-.14.1-.05.18-.09.21-.12v-1c.07.1.18.17.18.25,0,.36-.04.73-.06,1.09-.01.18-.01.36-.03.53-.02.19-.22.27-.55.22Z"/>
      <path class="cls-1" d="M28.59,48.17c-.13.31-.26.61-.41.91-.03.06-.13.09-.15.1,0,.12.04.24,0,.29-.1.11-.22.28-.41.09.15-.24.31-.48.46-.72.07-.12.18-.25.18-.37,0-.27.18-.26.35-.29h0Z"/>
      <path class="cls-1" d="M34.79,91.08c-.05,0-.12-.01-.14-.01-.09.13-.16.24-.24.34-.04-.13-.1-.25-.11-.38-.02-.32,0-.64,0-.98.39.05.23.46.41.61-.06.03-.14.08-.22.12.1.1.2.2.29.3Z"/>
      <path class="cls-1" d="M34.34,88.61c0-.36,0-.72,0-1.08,0-.05.07-.11.11-.16.04.04.09.08.13.13.07.09.13.2.18.27-.06.09-.17.18-.17.26,0,.06.15.12.23.18,0,.02-.01.04-.02.07-.1,0-.2,0-.3.01-.03.12-.06.24-.09.36-.02-.01-.04-.03-.06-.04Z"/>
      <path class="cls-1" d="M41.76,47.97c-.34-.46-.27-1.02-.39-1.58-.04,0-.13-.02-.18-.03.06-.14.12-.28.19-.44.06.17.14.33.17.5.08.51.15,1.03.22,1.55Z"/>
      <path class="cls-1" d="M33.27,92.58c.07-.05.15-.1.24-.16-.1-.02-.17-.03-.24-.05.04-.15.08-.29.12-.42-.02-.01-.05-.02-.07-.04.05-.02.1-.04.16-.06-.12-.21-.34-.43.14-.49-.03.12-.05.24-.08.38.03.01.09.03.17.07-.06.09-.13.17-.17.27-.03.07-.03.19.01.23.15.13.03.2-.05.27-.06.05-.14.07-.21.1-.01-.03-.03-.06-.04-.08Z"/>
      <path class="cls-1" d="M35.53,81.78c-.19-.05-.25-.16-.24-.36.01-.25-.03-.5-.05-.75,0-.04.03-.1.07-.12.02-.02.09,0,.12.02.03.04.06.1.06.15,0,.05-.05.11-.04.15.08.22.12.62.08.91Z"/>
      <path class="cls-1" d="M20.07,76.08c.06.18.12.37.18.57-.02.03-.07.09-.16.21-.02,0-.12,0-.21-.02-.05,0-.1-.05-.13-.09-.11-.16.13-.64.32-.67h0Z"/>
      <path class="cls-1" d="M53.6,105.94c-.2.2-.09.33.02.49.07.11.09.26.14.39-.02,0-.04.02-.07.02.05.07.09.14.16.24-.26-.02-.27-.07-.36-.53-.04-.21-.16-.41-.27-.69.17.04.26.06.38.08Z"/>
      <path class="cls-1" d="M46.1,117.41c.13-.06.21-.1.29-.13.03.07.05.14.09.2.04.08.1.15.15.22.02.03.05.05.06.08.07.22.14.44.18.68-.25-.34-.49-.67-.77-1.05Z"/>
      <path class="cls-1" d="M9.26,89.54c.24-.03.3-.29.29-.48,0-.27.24-.26.29-.44.02.01.05.03.07.04-.22.47-.44.95-.67,1.42,0,0-.07-.02-.1-.02-.07-.2.34-.3.12-.52Z"/>
      <path class="cls-1" d="M35.34,83.74c-.05-.26-.1-.48-.15-.73.3.08.3.09.16.33.26.14.34.4.21.74-.05-.09-.08-.14-.12-.21-.05.01-.11.03-.17.05-.01-.02-.03-.03-.04-.05.05-.06.11-.13.12-.14Z"/>
      <path class="cls-1" d="M70.8,109.59c.19.11.38.21.57.32.19.12.38.26.57.39-.02.03-.04.06-.06.09-.38-.21-.77-.41-1.16-.62.03-.08.06-.14.08-.19,0,0,0,0,0,0Z"/>
      <path class="cls-1" d="M7.24,94.01c.04-.08.06-.18.12-.22.25-.18.25-.17.06-.46.17-.05.33-.09.54-.15-.05.12-.08.18-.11.24-.07.13-.14.25-.2.38-.08.17-.16.35-.41.21,0,0,0,0,0,0Z"/>
      <path class="cls-1" d="M50.01,118.17c.3.21.59.43.66.88-.36-.22-.58-.5-.66-.88Z"/>
      <path class="cls-1" d="M46.78,82.47c.03.16.06.36.1.58-.03,0-.13-.01-.15-.06-.18-.37-.21-.77-.26-1.16.02,0,.04-.01.06-.02.08.22.16.43.24.66Z"/>
      <path class="cls-1" d="M34.64,97.66c-.02-.06-.04-.12-.05-.18-.05-.26-.11-.51-.15-.77,0-.06.04-.13.07-.19.05.05.12.1.13.15.05.32.09.64.13.96-.04,0-.08.02-.12.03Z"/>
      <path class="cls-1" d="M31.48,105.57c.04.05.09.11.11.14-.1.39-.18.75-.28,1.13-.13-.2-.05-.68.18-1.26,0,0,0,0,0,0Z"/>
      <path class="cls-1" d="M28.6,48.17c-.05-.06-.1-.12-.16-.2.25-.16.31-.58.72-.58,0,.02,0,.04,0,.06-.12.19-.39.27-.38.56,0,.05-.12.1-.19.15,0,0,0,0,0,0Z"/>
      <path class="cls-1" d="M41.27,44.67c.06.31.12.62.17.93.01.07-.04.14-.06.22-.04-.03-.08-.07-.12-.11,0,0,.06-.06.06-.08-.04-.16-.07-.32-.13-.46-.08-.19-.02-.35,0-.52.03,0,.05,0,.08.01Z"/>
      <path class="cls-1" d="M20.58,75.49c-.1.04-.18.08-.26.11-.09-.07-.17-.13-.29-.22.08-.12.16-.25.26-.41.11.21.2.35.29.52Z"/>
      <path class="cls-1" d="M32.69,98.45c0-.17-.03-.33.01-.47.02-.07.15-.12.23-.18.03.07.07.14.07.21.02.21,0,.41-.31.44Z"/>
      <path class="cls-1" d="M58.6,91.96s-.09.08-.12.11c-.13-.18-.25-.34-.35-.51-.02-.04.03-.13.06-.19.07.03.17.05.21.1.08.15.13.31.21.5Z"/>
      <path class="cls-1" d="M41.94,48.34c.03.25.06.5.09.75-.03,0-.07.02-.1.02-.04-.14-.07-.29-.11-.43-.03-.1-.08-.19-.13-.28.02,0,.07,0,.15,0-.03-.1-.05-.18-.07-.26.01,0,.02-.01.04-.02.05.08.11.16.14.21Z"/>
      <path class="cls-1" d="M36.09,63.47c-.11-.04-.18-.07-.24-.09-.13-.05-.14-.13-.06-.24.1-.14.19-.29.3-.45v.78Z"/>
      <path class="cls-1" d="M20.15,74.58c.09-.12.16-.25.26-.37.02-.03.11,0,.17.01-.03.14-.02.29-.09.41-.11.21-.22.06-.34-.05Z"/>
      <path class="cls-1" d="M34.61,88.82c-.23.2-.28.43-.08.63-.1.02-.19.07-.24.04-.05-.03-.06-.13-.06-.21,0-.1.03-.2.05-.31.06-.25.06-.25.33-.16Z"/>
      <path class="cls-1" d="M35.31,84.13c.09.04.17.07.26.11.03.18.06.36.09.55-.14-.03-.27-.06-.41-.1.02-.07.05-.13.07-.19.09.04.16.07.23.09,0-.02.02-.03.03-.05-.11-.12-.23-.24-.34-.37.03-.02.05-.04.08-.06Z"/>
      <path class="cls-1" d="M42.04,53.6s.1-.04.15-.06c-.02-.07-.03-.13-.05-.19l.05-.03c.14.15.28.29.41.44.02.02,0,.11-.03.13-.03.02-.1,0-.14-.02-.13-.08-.25-.17-.4-.27Z"/>
      <path class="cls-1" d="M24.31,102.75c.27.12.42.29.27.58-.23-.02-.32-.21-.27-.58Z"/>
      <path class="cls-1" d="M52.99,104.99c.22.16.33.47.27.81-.3-.23-.19-.55-.26-.82h0Z"/>
      <path class="cls-1" d="M24.3,105.64c-.1.11-.26.21-.08.36,0,0-.11.15-.19.26q-.04-.68.27-.62Z"/>
      <path class="cls-1" d="M24.11,104.84c.18.36.17.44-.15.69.01-.26-.04-.49.16-.68h0Z"/>
      <path class="cls-1" d="M27.61,50.23c-.09-.07-.16-.13-.24-.19.08-.09.15-.18.22-.26.08.05.16.09.29.16-.1.1-.18.19-.27.28Z"/>
      <path class="cls-1" d="M52.18,102.98c.17.25.31.45.46.67-.26.03-.4-.17-.46-.67Z"/>
      <path class="cls-1" d="M34.41,82.37c0-.21,0-.38,0-.55,0-.03.12-.07.17-.06.05,0,.08.08.13.14-.09.14-.2.3-.32.47Z"/>
      <path class="cls-1" d="M20.08,76.08c-.03-.06-.08-.11-.09-.17,0-.08.02-.16.04-.24.06.04.13.06.17.11.07.11.12.23.18.35-.1-.02-.2-.03-.3-.05,0,0,0,0,0,0Z"/>
      <path class="cls-1" d="M24.2,104.25c.05-.09.1-.18.17-.3.01.02,0,0-.01-.02-.02-.06-.04-.13-.04-.19,0-.01.11-.05.13-.04.05.04.13.14.11.17-.06.15-.16.29-.24.44-.04-.02-.08-.05-.12-.07Z"/>
      <path class="cls-1" d="M52.99,104.98c-.23-.21-.33-.46-.2-.74.07.16.15.33.2.5.02.07,0,.16-.01.24,0,0,0,0,0,0Z"/>
      <path class="cls-1" d="M36.42,59.18c-.14-.01-.21-.02-.26-.02,0-.21.02-.4.03-.59.02,0,.05-.01.07-.02.05.19.1.38.16.62Z"/>
      <path class="cls-1" d="M42.01,50.1c-.12-.23-.19-.38-.27-.53.02-.02.05-.04.07-.06.11.1.23.2.32.32.02.03-.06.13-.12.27Z"/>
      <path class="cls-1" d="M25.05,101.72c-.06.14-.13.29-.19.44-.24-.16-.19-.3.12-.48.03.01.05.02.08.04Z"/>
      <path class="cls-1" d="M24.11,104.85s-.08-.06-.13-.1c.12-.14.24-.27.36-.4.01.01.02.02.03.03-.04.14-.09.29-.15.49,0,0-.06-.01-.13-.03,0,0,0,0,0,0Z"/>
      <path class="cls-1" d="M36.84,51.42c-.13.03-.22.05-.29.07-.03-.18-.05-.32-.08-.47.02-.01.03-.03.05-.04.09.13.19.26.32.44Z"/>
      <path class="cls-1" d="M35.64,86.74c-.1-.03-.19-.05-.26-.09-.04-.02-.08-.08-.1-.13,0-.02.03-.08.04-.08.05.01.1.03.16.05.05.02.11.03.15.06.04.03.08.07.12.1-.03.03-.07.06-.1.09Z"/>
      <path class="cls-1" d="M25.17,101.27c-.05.28-.38.22-.49.4.13-.16.12-.48.49-.4Z"/>
      <path class="cls-1" d="M36.45,56.45c0,.15.01.3,0,.44,0,.05-.09.09-.13.13-.02-.01-.04-.03-.06-.04.04-.18.08-.36.11-.53.03,0,.06,0,.09,0Z"/>
      <path class="cls-1" d="M35.34,85.01c.11.12.23.23.34.35-.02.02-.05.04-.07.07-.06-.06-.12-.12-.19-.2-.03.07-.06.12-.12.24v-.4s.03-.04.05-.05Z"/>
      <path class="cls-1" d="M52.1,102.39c.09.22.17.39.25.57-.26,0-.39-.28-.25-.57Z"/>
      <path class="cls-1" d="M41.13,44.54c-.02-.25-.03-.42-.04-.61.03.01.09.03.1.06.04.15.07.3.08.45,0,.03-.1.07-.14.1Z"/>
      <path class="cls-1" d="M34.49,95.96c.05.12.11.25.16.37-.32.01-.27-.17-.27-.32.04-.02.08-.04.11-.05Z"/>
      <path class="cls-1" d="M52.26,69.48c.09.13.18.27.27.4-.17.13-.24.1-.27-.1-.01-.09-.02-.19-.04-.28.01,0,.02-.01.04-.02Z"/>
      <path class="cls-1" d="M42.59,103.13c.05-.07.1-.13.19-.26.04.23.06.4.09.57-.02,0-.03.01-.05.02-.08-.11-.16-.22-.24-.33,0,0,0,0,0,0Z"/>
      <path class="cls-1" d="M35.28,82.43v-.43c.1.07.17.12.24.17-.08.09-.17.19-.24.26Z"/>
      <path class="cls-1" d="M3.02,102.19c.27.16-.04.28.03.42q-.13-.03-.03-.42Z"/>
      <path class="cls-1" d="M52,101.97c-.15-.13-.26-.23-.38-.33l.05-.05c.15.08.39.07.33.38Z"/>
      <path class="cls-1" d="M42.03,50.65c-.04-.05-.1-.12-.17-.2.12-.03.24-.05.35-.07,0,.02,0,.04.01.06-.06.07-.13.14-.19.22Z"/>
      <path class="cls-1" d="M34.36,93.43c-.06-.37-.01-.41.32-.33-.1.11-.19.2-.32.33Z"/>
      <path class="cls-1" d="M34.45,95.5c-.04.12.34.25-.06.38-.02-.14-.03-.26-.04-.38.03,0,.07,0,.1,0Z"/>
      <path class="cls-1" d="M36.08,63.55c.04.31-.02.36-.22.33.04-.06.12-.19.22-.33Z"/>
      <path class="cls-1" d="M36.16,57.76q.16,0,.13.59c-.04-.2-.09-.4-.13-.59Z"/>
      <path class="cls-1" d="M33.11,97.57c-.06.03-.11.09-.13.08-.07-.05-.14-.12-.2-.18.04-.04.11-.11.12-.11.07.06.13.13.22.21Z"/>
      <path class="cls-1" d="M33.01,97.3c-.07-.07-.13-.14-.2-.21.05-.03.14-.1.14-.1.06.06.12.14.17.22-.04.03-.08.06-.12.09Z"/>
    </g>
  </g>
</svg>