<?xml version="1.0" encoding="UTF-8"?>
<svg id="Layer_2" data-name="Layer 2" xmlns="http://www.w3.org/2000/svg" viewBox="0 0 79.15 57.57">
  <defs>
    <style>
      .cls-1 {
        fill: #000;
        stroke-width: 0px;
      }
    </style>
  </defs>
  <g id="illustrations">
    <g>
      <path class="cls-1" d="M24.24,56.03c0,.29.14.49.41.61-.01.02-.02.04-.04.06-.18-.07-.35-.15-.53-.22l-.02.04c.09.06.19.13.29.19-.24.09-.37.01-.41-.22,0-.03,0-.07-.02-.09-.18-.21-.33-.45-.54-.62-.21-.17-.48-.27-.73-.38-.21-.09-.32-.21-.38-.44-.05-.2-.19-.37-.29-.55-.13-.22-.27-.44-.4-.66-.09-.14-.15-.33-.33-.29-.09.06-.15.12-.21.14-.09.02-.2.01-.29.02-.17.01-.25-.04-.27-.23-.05-.42-.19-.8-.39-1.17-.06-.11-.19-.25-.06-.4-.23-.33-.05-.68-.05-1.02,0-.37.11-.73.2-1.09.03-.12.16-.22.23-.33.05-.07.08-.14.12-.21.07-.14.08-.29.21-.42.12-.12.12-.36.19-.54.17-.49.3-.99.51-1.46.45-.96.81-1.95,1.08-2.98.01-.05.02-.1.05-.13.12-.14.23-.26.15-.47-.02-.06.07-.21.15-.25.22-.12.45-.23.69-.31.29-.1.42.02.44.33.32.09.4.07.52-.22.1-.24.26-.37.49-.46.19-.08.37-.24.51-.39.26-.28.81-.42,1.19-.3.19.06.41.07.61.04,1.41-.17,2.62.3,3.73,1.11.37.27.75.5.87.99.01.05.04.09.06.13.02-.01.05-.03.07-.04,0-.11.02-.23.02-.33.08.43.17.87.25,1.31.01,0,.03,0,.04-.01.01-.25.05-.5.03-.75-.01-.23-.08-.46-.13-.68-.01-.06-.04-.11-.03-.17.07-.54-.07-1.05-.19-1.56-.03-.11-.11-.21-.19-.3-.21-.25-.43-.5-.64-.75-.11-.14-.19-.29-.28-.44,0,0,.03-.01.06-.03l.02-.06c-.49-.19-.97-.39-1.46-.58-.05-.02-.11-.02-.17-.01-.5.04-1,.06-1.49.12-.71.08-1.35.39-1.98.71-.14.07-.28.19-.47.1-.04-.02-.12.04-.17.07-.8.43-1.4,1.06-1.86,1.84-.08.14-.28.21-.43.31-.03-.02-.06-.05-.08-.07.06-.13.1-.27.17-.38.57-.88,1.24-1.68,2.02-2.38.36-.33.73-.67,1.14-.94.37-.24.79-.39,1.2-.55.61-.23,1.25-.32,1.9-.39.57-.06,1.09.02,1.62.23.32.13.67.2.96.37.26.15.5.38.68.62.45.6.72,1.29.9,2.01.24.98.46,1.97.61,2.97.09.58.03,1.18.04,1.77,0,.16,0,.32,0,.48-.35-.17-.39-.5-.51-.78-.01.42.06.82.28,1.18.13.22.24.42.01.64-.02.02-.03.08-.02.11.12.52.25,1.03.59,1.47.13.17.13.44.17.67.04.21.07.42.11.63-.03,0-.09,0-.16-.01,0,.03-.02.05-.01.05.13.18.24.36.53.3.09-.02.21.1.38.19h-.45c.39.22.76.49,1.23.3q.05.14-.23.44c.24-.07.43-.12.61-.17,0-.05,0-.08,0-.09-.22-.28-.11-.53.3-.65.17-.05.35-.08.52-.16-.04,0-.08-.02-.12,0-.73.21-1.31-.12-1.86-.54-.22-.17-.06-.38-.01-.57,0-.01-.01-.02-.02-.02-.11-.06-.22-.11-.33-.17.09-.11.17-.26.28-.31.21-.09.45-.14.68-.16.42-.03.84-.02,1.26-.02.6,0,1.2,0,1.8-.01.58,0,1.16,0,1.74-.01,1.02-.01,2.04,0,3.06-.05,1.39-.05,2.78-.11,4.16-.2,1.17-.08,2.33-.02,3.49.05.96.05,1.92.15,2.87.22.06,0,.11.02.18.04-.53.19-.55.16-1.04.12-.8-.07-1.6-.1-2.4-.14-.31-.01-.61,0-.92.05.7.06,1.39.14,2.09.18.71.04,1.43.02,2.14.07.7.06,1.42-.12,2.12.14-.08.02-.17.04-.25.06,0,.02,0,.05,0,.07.55-.09,1.1-.16,1.65.03-.45.29-.94.15-1.41.16,0,.02,0,.04,0,.07.08.03.17.07.25.1,0,.02,0,.04,0,.05-.4.01-.81.06-1.21.04-1.23-.05-2.46-.12-3.68-.2-.98-.06-1.96-.17-2.95-.22-.51-.02-1.03.03-1.55.07-.51.04-1.02.13-1.54.14-1.16.03-2.32.06-3.47.04-1.18-.01-2.36-.07-3.54-.11-.18,0-.35,0-.53,0,0,.03,0,.06-.01.09.3.05.59.13.89.15.25.02.44.13.61.28.21.2.44.25.71.26.71.02,1.42.05,2.14.07.25,0,.51,0,.76,0,.02,0,.05-.01.07,0,.38.15.76-.08,1.13,0,.16.03.32.05.44.06.07-.03.12-.08.17-.08,1.49.02,2.97.07,4.46.07.93,0,1.86-.05,2.78-.08,1.58-.05,3.15-.12,4.73-.14,1.18-.02,2.36.03,3.55.05.2,0,.38-.02.58-.12.17-.08.43,0,.64.05.36.08.7.1,1.01-.12.09-.06.16-.18.18-.28.03-.17.11-.24.28-.23.04.22.08.43.11.62-.49.14-.97.27-1.43.39-.12-.04-.25-.11-.39-.11-.79-.01-1.59,0-2.39,0,.35.02.69.05,1.04.07.39.02.79.03,1.18.06.19.01.4,0,.5.22.1-.01.19-.02.3-.04-.1.21-.26.26-.39.17-.05-.03-.13-.08-.16-.06-.58.39-1.25.38-1.9.4-1.15.03-2.3.03-3.44.07-.93.04-1.87.13-2.8.18-.29.02-.59-.02-.89-.03-1.18-.02-2.37-.05-3.55-.06-.88-.01-1.76-.04-2.64-.02-.77.02-1.54.09-2.31.13-.94.05-1.88.08-2.82.14-.44.03-.87.14-1.31.19-.37.04-.75.04-1.12.07-.33.03-.65.08-.98.1-.26.01-.51.03-.78-.09-.21-.1-.5-.04-.75-.02-.33.02-.67.03-.98.13-.17.05-.29.06-.45.02-.06-.02-.18.06-.23.13-.23.32-.35.33-.55.01-.18-.29-.37-.57-.43-.94-.06-.34-.3-.65-.46-.97-.13-.26-.25-.53-.36-.8-.18-.45-.36-.91-.54-1.39-.03.38-.06.75-.09,1.12-.02.22-.01.44-.07.65-.02.09-.17.15-.2.23-.07.28-.11.57-.21.83-.27.75-.48,1.53-.85,2.22-.45.83-.78,1.74-1.41,2.47-.25.29-.45.62-.72.89-.18.19-.44.31-.66.46-.19.13-.41.23-.57.38-.37.33-.81.35-1.25.32-.13,0-.26-.16-.36-.27-.07-.02-.16-.02-.21-.07-.12-.1-.22-.22-.32-.33-.18-.18-.37-.34-.65-.27-.17.04-.24-.08-.35-.17-.16-.14-.34-.28-.5-.42.01-.01.03-.02.04-.03,0,0,0-.01-.01-.02-.18-.08-.36-.15-.54-.23-.01.04-.03.08-.04.12.19.05.37.1.56.16ZM30.13,51.35c.08-.29.16-.49.2-.71.08-.44.14-.89.19-1.34.03-.35.04-.7.03-1.05-.01-.52,0-1.05-.08-1.57-.09-.69-.1-.56-.65-.5-.18.02-.4,0-.53-.09-.13-.09-.18-.3-.26-.46-.17-.33-.27-.67-.04-1.02.02-.03,0-.08.02-.12.03-.17-.07-.24-.21-.28-.17-.05-.34-.11-.52-.15-.06-.01-.16-.02-.17,0-.12.18-.29.22-.49.26-.34.07-.67.25-1.04.06-.08-.04-.3,0-.34.07-.12.23-.28.11-.38.05-.14-.08-.19-.04-.28.06-.24.28-.49.55-.72.83-.16.19-.31.39-.46.59-.32.42-.75.77-.82,1.34-.16,0-.3,0-.44.03-.07.01-.18.05-.2.1-.12.35-.25.71-.33,1.07-.07.27-.08.56-.11.75.06.34.11.6.16.85-.16-.14-.2-.05-.27.05-.08.11-.17.26-.28.3-.24.08-.28.22-.23.43.04.18.07.37.1.55.19-.09.47-.07.48.08-.04.02-.09.05-.08.04.02.24.03.46.04.68.48-.05.51-.03.71.46.02.04.02.08.05.11.03.04.07.08.11.09.36.11.41.21.3.59-.01.05-.01.12.01.15.19.24.39.46.73.54.45.11.91.13,1.37.19.15.02.29.04.5.06-.11-.08-.17-.12-.23-.16.21-.09.41-.16.6-.26.31-.18.6-.38.9-.56.06-.04.15-.1.2-.08.31.1.43-.1.55-.31.28-.51.58-1.01.83-1.53.2-.41.52-.63.95-.8.05.2.09.37.14.61ZM29.71,53.14s-.08-.05-.12-.08c-.28.44-.56.88-.83,1.32.03.02.06.04.09.06.29-.43.58-.87.87-1.3ZM37.07,49.46c.35.33.73.28.91-.1-.3.03-.58.06-.91.1ZM33.06,48.06c-.12-.68-.24-1-.38-1.05-.08.43.25.7.38,1.05ZM35,50.98s-.03.03-.05.05c.06.07.11.19.18.2.14.03.29,0,.43,0,0-.02,0-.04,0-.06-.19-.06-.37-.12-.56-.18ZM58.48,50.35s0,.04,0,.06c.21-.02.43-.05.64-.07v-.08c-.22.03-.43.06-.65.09ZM49.19,48.63s0,.04,0,.05c.28.02.55.04.83.06,0-.03,0-.05,0-.08l-.83-.04Z"/>
      <path class="cls-1" d="M46.81,19.43c-.26.1-.51.21-.79.02-.02-.02-.08.01-.12.03-.04.01-.08.05-.13.05-.37.02-.74,0-1.11.05-.59.06-1.18.17-1.77.24-.31.04-.62.04-.93.08-.43.05-.85.13-1.28.19-.17.02-.34.01-.5.04-.45.07-.89.16-1.33.24.1.44.06.85-.05,1.27-.17.64-.33,1.28-.5,1.93.22.04.2.16.16.33-.09.47-.14.94-.22,1.41-.03.22-.09.43-.12.65-.02.14.03.29,0,.43-.18,1.03-.3,2.07-.68,3.05-.03.08-.08.16-.11.25-.06.17-.17.24-.36.21-.11-.02-.23-.02-.34,0-.64.13-1.28.27-1.93.41-.23.05-.45.12-.68.17-.05.01-.12.02-.17,0-.46-.16-.93-.28-1.43-.19-.15.03-.31-.08-.47-.09-.54-.05-1.08-.1-1.62-.14-.22-.01-.45.07-.66.03-.47-.1-.95-.07-1.42-.09-.99-.03-1.97-.1-2.96-.15-.56-.03-1.13-.05-1.69-.08-.09,0-.17,0-.27.01,0,.11.02.18.02.27-.05.02-.1.04-.14.04-.68,0-1.36,0-2.04,0-.23,0-.45-.02-.68-.01-.37,0-.67-.18-.95-.37-.11-.07-.13-.3-.15-.46,0-.03.19-.11.3-.13.32-.05.64-.1.97-.11.3,0,.6.06.9.07.28.01.57,0,.85,0,0-.03.01-.06.02-.09-.07-.03-.15-.06-.22-.08-.2-.04-.41-.06-.6-.12-.18-.06-.19-.18-.03-.27,1.34-.8,2.47-1.88,3.7-2.83.69-.53,1.38-1.07,2.05-1.62.51-.42.99-.86,1.47-1.32.26-.25.58-.32.91-.37.03,0,.07.03.14.07-.32.08-.14.29-.12.43.03.2-.05.28-.18.43-.35.39-.8.62-1.19.94-.28.23-.49.54-.76.79-.1.1-.26.13-.38.21-.09.06-.16.16-.23.24-.03.03-.05.1-.09.1-.31.03-.44.29-.63.47-.44.42-.89.83-1.35,1.23-.29.26-.59.53-.9.76-.28.21-.59.37-.9.55-.18.1-.38.18-.64.31.13.05.2.1.24.08.62-.28,1.25-.1,1.89-.07.39.02.78-.02,1.18-.03.11,0,.21.06.32.07.22.03.45.06.67.08.42.03.85.05,1.27.08.25.02.51.04.76.06,1.02.11,2.04.23,3.06.33.17.02.35,0,.53-.01.06,0,.12,0,.17,0,.44.08.89.15,1.33.23.09.02.17.05.27.08.02-.07.03-.13.04-.18.1-.01.22.01.28-.04.21-.17.41-.18.66-.09.33.12.74-.11.86-.43.03-.09.09-.19.08-.28,0-.09-.06-.17-.09-.26-.03-.06-.1-.12-.1-.19,0-.53.02-1.07-.02-1.6-.02-.26.13-.36.3-.43.19-.07.31.06.39.22.18.37.35.75.55,1.19.29-2.42.82-4.77.81-7.2-.4,0-.77-.02-1.15,0-.5.03-1,.09-1.5.15-.48.06-.96.15-1.44.22-.48.07-.97.12-1.45.21-.3.06-.58.2-.88.27-.37.09-.76.13-1.13.21-.57.14-1.14.29-1.7.45-.57.16-1.14.33-1.69.52-.27.1-.53.25-.79.39-.39.2-.76.52-1.17.59-.46.08-.65.44-.95.67-1.06.81-2.11,1.65-3.15,2.49-.17.14-.25.37-.37.56-.07.11-.11.26-.21.32-.1.07-.27.12-.39.08-.17-.05-.18-.22-.12-.37.05-.14.12-.27.21-.39,1.04-1.32,2.32-2.34,3.73-3.23.48-.3.9-.71,1.38-1.03.41-.27.79-.57,1.08-.96.05-.07.15-.14.15-.22.02-.3.25-.37.44-.5.24-.16.47-.33.7-.51.46-.36,1.01-.46,1.56-.59.41-.1.8-.26,1.21-.36.42-.1.85-.16,1.28-.21.16-.02.22-.05.21-.21-.02-.31.01-.6.27-.85.13-.13.19-.39.2-.59.05-.83.18-1.65.44-2.44.21-.62.41-1.25.68-1.84.17-.37.42-.71.68-1.02.28-.33.54-.72.97-.88.26-.1.52-.18.79-.22.07-.01.2.14.24.24.04.12.06.28,0,.39-.05.11-.19.22-.31.25-.68.19-1.18.58-1.43,1.26-.27.73-.61,1.44-.85,2.18-.25.76-.18,1.56-.06,2.35.03.21.07.42.12.69.42-.14.84-.25,1.23-.42.3-.14.36-.49.29-.83-.1-.5-.06-1.09.34-1.29.26-.13.32-.33.39-.56.29-.92.58-1.84.85-2.69-.11-.15-.23-.25-.29-.38-.06-.14-.13-.33-.08-.44.05-.12.24-.24.38-.25.2-.02.42.03.62.09.31.09.38.07.55-.2.05-.08.1-.15.15-.23.08-.12.17-.2.34-.13.16.06.27.14.28.33,0,.07.06.15.09.21-.01.1-.04.2-.03.29.05.24-.1.3-.28.35-.21.05-.42.08-.63.13-.33.07-.37.14-.27.46.03.11.09.22.1.33.01.15,0,.3-.01.44-.02.31-.04.63-.07.94-.01.16-.03.32-.06.48-.06.26-.14.52-.19.79-.01.05.06.16.08.16.14,0,.33,0,.39-.08.16-.19.27-.43.38-.66.12-.26.26-.49.27-.8,0-.19.22-.37.34-.56.04-.07.1-.14.11-.21.16-.66.51-1.24.83-1.83.08-.16.14-.33.22-.49.06-.12.14-.24.22-.37-.07,0-.16,0-.25-.02-.21-.03-.28-.15-.21-.35.11-.34.31-.45.66-.36.59.15.99.55,1.28,1.05.2.34.47.51.82.61.39.11.66.34.85.73.49,1.02.88,2.07,1.2,3.15.05.16.1.32.16.48.07.19.19.16.33.07.24-.15.5-.25.8-.25.27,0,.54-.1.8-.17.3-.07.6-.16.91-.21.49-.07.98-.1,1.47-.14.02,0,.06,0,.07,0,.17-.24.36-.1.57,0,.57-.74,1.17-1.45,1.71-2.21.45-.63.89-1.27,1.18-2,.1-.25.35-.17.53-.24.1-.04.23,0,.33,0,.04.12.08.23.14.37-.1.24-.21.52-.32.83-.09.11-.24.23-.32.39-.27.53-.55,1.05-.94,1.5-.07.08-.19.12-.29.19-.1.06-.22.11-.29.2-.24.3-.47.61-.69.92-.28.39-.59.77-.81,1.2-.11.23-.23.37-.45.46-.12.05-.22.05-.25-.1-.07-.43-.38-.51-.75-.63-.39-.12-.72.03-1.05.11-.66.16-1.29.41-1.93.62-.12.04-.26.03-.36.09-.18.11-.34.27-.51.4-.15.12-.47.1-.62,0-.11-.08-.25-.17-.38-.18-.29-.01-.47-.16-.58-.4-.13-.31-.05-.53.2-.76.05-.04.02-.16.06-.22.06-.1.15-.18.24-.26.11-.09.17-.18.05-.28-.41-.33-.6-.78-.71-1.27-.07-.33-.31-.49-.56-.65-.05-.03-.22.01-.25.07-.12.21-.2.44-.29.67.03.02.05.04.08.06.07-.08.14-.15.24-.26.14.24.11.49.04.71-.07.22-.2.42-.29.64-.03.08-.02.18-.03.27,0,.17-.03.34-.01.51.03.29.07.57.12.86.05.24.01.45-.19.63.48.24,1,.39,1.43.7,0,.03-.02.05-.03.08-.04.01-.07.03-.11.03-.79-.03-1.58-.05-2.36-.09-.24-.01-.47-.11-.72-.17-.09.41-.46.29-.73.33-.48.07-.97.08-1.45.14-.16.02-.3.13-.46.16-.37.06-.75.09-1.13.15-.17.03-.34.06-.49.13-.51.26-1.07.22-1.61.25-.83.05-1.67.05-2.51.1-.61.04-1.68.42-2.24.74.41.15.82.22,1.25.07.13-.05.29,0,.44-.02.23-.03.45-.07.67-.12.74-.16,1.46-.36,2.21-.5.49-.09.98-.12,1.48-.14.18,0,.37.09.56.09.26,0,.53-.04.79-.07.57-.07,1.14-.16,1.71-.22.56-.06,1.13-.08,1.69-.14,1.33-.14,2.67-.18,3.99-.43.71-.13,1.45-.19,2.17.08.21.08.44.09.66.13,0,.03,0,.06,0,.09ZM27.85,21.12s.02.03.03.05c.32-.12.65-.25.97-.37v-.07c-.13-.02-.28-.1-.37-.05-.23.12-.42.29-.63.44ZM34.83,18.79s-.01-.04-.02-.06c-.16.02-.33.02-.49.05-.16.03-.32.08-.48.12,0,.03.02.07.03.1l.95-.22Z"/>
      <path class="cls-1" d="M75.5,33.22c-.2-.38-.44-.73-.62-1.11-.38-.82-.92-1.55-1.25-2.39-.19-.5-.53-.94-.79-1.4-.28-.48-.56-.95-.82-1.43-.37-.68-.69-1.38-1.09-2.04-.58-.95-1.24-1.84-2.05-2.61-.18-.17-.4-.3-.6-.45,0,0,.01-.02.02-.03.08.04.15.07.23.11.02-.02.03-.03.05-.05-.25-.4-.52-.79-.93-1.04-.17-.1-.23-.21-.32-.39-.27-.57-.35-1.18-.55-1.76-.23-.69-.53-1.36-.78-2.05-.2-.54-.49-1-.88-1.41-.28-.29-.55-.59-.81-.89-.71-.81-1.42-1.62-2.11-2.45-.63-.77-1.13-1.63-1.53-2.55-.43-.98-.68-2.04-1.27-2.96-.1-.16-.19-.37-.04-.58.02-.03-.03-.17-.08-.2-.34-.18-.45-.56-.68-.83-.21-.24-.31-.56-.5-.82-.51-.7-1.02-1.41-1.58-2.07-.36-.42-.76-.85-1.24-1.11-.81-.44-1.66-.83-2.64-.67-.5.08-1.03.09-1.34.59-.13.21-.33.31-.53.42-.07.04-.2,0-.28-.03-.18-.09-.34-.24-.53-.3-.54-.17-.58-.12-.91.38-.04.06-.15.14-.21.12-.52-.13-.91.12-1.3.39-.17.12-.21.24-.1.44.12.23.11.48-.04.73-.06-.06-.09-.1-.13-.14-.03,0-.05,0-.08,0-.04.5-.09,1.01-.12,1.51-.01.19.06.33.32.21-.05.44-.09.84-.14,1.25-.06.52-.03,1.05.24,1.5.3.5.67.97,1.02,1.43.14.18.34.32.52.48.19.17.07.34.02.55-.24-.37-.33-.41-.71-.22-.35.18-.67.4-.99.63-.09.07-.15.22-.16.34-.02.19-.03.4.01.59.11.53.03,1.06,0,1.59,0,.06-.04.16-.09.18-.31.11-.43.38-.44.65,0,.35.06.71.1,1.06.02.16.06.31.1.46.03.14.06.28.11.42.04.11.1.27.18.3.11.03.33,0,.37-.08.15-.29.35-.58.31-.95-.01-.12-.02-.3.05-.38.17-.2.18-.4.16-.64-.04-.35-.08-.7-.09-1.05,0-.6.02-1.2.06-1.8,0-.16.07-.36.18-.46.18-.17.42-.27.64-.4,0,0,.03,0,.05.01.04.13.07.27.12.39.08.18.22.25.42.23.18-.02.24-.14.27-.3.06-.26.12-.53.2-.79.03-.08.12-.17.21-.2.32-.1.64-.17,1.02-.27-.29.22-.45.47-.46.8-.01.29.16.42.42.29.14-.07.25-.2.37-.32.15-.15.24-.36.18-.54-.05-.15-.23-.25-.35-.37.09-.14.17-.33.31-.47.28-.28.6-.51.86-.8.16-.17.44-.29.4-.57-.02-.17.01-.3.11-.42.02-.02.03-.06.03-.09.02-.38.04-.76.05-1.14,0-.18-.03-.36-.04-.54.03,0,.05-.01.08-.02.05.07.1.14.15.22.15.28.24.57.3.89.09.46.27.9.41,1.34.14.45.27.91.41,1.36.02.06.09.11.13.17.03-.07.05-.14.08-.21.84,1.37,1.19,2.87,1.06,4.47-.14,1.66-.67,3.17-1.8,4.34-.29-.08-.55-.15-.74-.21-.1.34-.18.63-.28.92-.02.05-.09.1-.14.1-.13.01-.26,0-.39,0-.44-.01-.71.23-.69.66,0,.1.23.3.25.28.35-.21.72-.09,1.08-.11.25-.02.51-.01.76-.02.5-.02.99-.05,1.49-.05.47,0,.94.03,1.41.05.49.02.98.04,1.46.09.67.06,1.35.21,2.02.21.79,0,1.53.17,2.27.37.71.19,1.4.42,2.1.63.19.05.4.05.57.13.5.23,1,.49,1.48.75.3.16.6.31.86.52.27.22.49.49.72.76.83.94,1.73,1.83,2.32,2.97.28.55.66,1.04.93,1.61.32.68.78,1.29,1.15,1.94.21.37.36.78.57,1.16.54,1,1.1,2,1.65,2.99.16.29.36.55.67.7.26-.2.27-.21.13-.48ZM47.67,6.22c0,.52.13.98.46,1.42-.37-.2-.59-.9-.46-1.42ZM52.17,6.08c-.16.29-.29.61-.46.89-.12.21-.29.38-.43.58-.07.09-.1.21-.16.3-.05.07-.11.17-.18.19-.51.12-1.04.45-1.56.11-.39-.25-.74-.56-1.07-.88-.45-.44-.56-1.04-.53-1.64.02-.47.14-.94.21-1.41.03-.22.03-.44.08-.65.05-.21.15-.41.23-.62.07-.16.19-.26.37-.2.14.04.33,0,.35.27.02.26.16.51.24.76.12.39.7.69,1.06.52.12-.06.21-.2.32-.31.11.03.26.09.41.08.1,0,.19-.11.28-.16.06-.04.13-.08.13-.09.2.22.38.41.55.61.06.07.11.17.13.26.07.24.12.48.17.72.04.24-.02.47-.14.68ZM54.13,18.05c.33-.46.66-.86.92-1.31.27-.45.47-.95.7-1.43.03,0,.05,0,.08.01.35.93.69,1.86,1.06,2.84-.93-.04-1.84-.07-2.76-.11ZM64.48,19.6s.03-.04.04-.06c-.1.02-.2,0-.29-.04-.01.01-.03.03-.04.04-.23-.27-.47-.35-.76-.33-.1,0-.21-.03-.31-.07-.45-.16-.89-.33-1.34-.5-.16-.06-.31-.13-.47-.19,0,.15-.1.17-.26.15-.9-.12-1.81-.23-2.71-.33-.27-.03-.45-.13-.61-.37-.49-.75-.8-1.58-1.08-2.42-.04-.11-.07-.23-.13-.32-.32-.46-.3-.97-.2-1.47.2-1,.07-1.97-.23-2.92-.19-.61-.4-1.22-.64-1.81-.18-.43-.43-.83-.64-1.25-.1-.2-.15-.41-.17-.64.18.34.36.67.53,1.01.57,1.13,1.09,2.28,1.4,3.51.08.33.15.67.23,1.01.07.33.06.65-.07.97-.09.21-.12.44-.19.67.21.11.38.09.54-.08.24-.25.25-.56.25-.88,0-.84-.08-1.68-.39-2.47-.34-.89-.72-1.77-1.11-2.64-.43-.98-.89-1.94-1.35-2.9-.19-.39-.42-.76-.63-1.14-.06-.11-.1-.23-.11-.36.05.07.1.13.15.2.02,0,.03-.02.05-.02-.05-.1-.08-.21-.14-.3-.23-.32-.27-.71-.41-1.06-.16-.4-.49-.74-.75-1.1-.1-.13-.22-.25-.33-.37-.06-.07-.11-.13-.21-.25.11.02.2.03.28.06.1.03.19.08.31.07-.07-.05-.14-.1-.25-.18.5-.25.98-.36,1.48-.16.66.26,1.26.64,1.79,1.1.19.16.21.24.13.39.74.68,1.42,1.41,1.88,2.31.32.62.65,1.23.96,1.86.19.38.32.78.5,1.17.24.53.5,1.05.74,1.58.72,1.59,1.63,3.05,2.82,4.34.77.84,1.49,1.73,2.19,2.63.3.38.47.86.71,1.29.37.65.51,1.38.72,2.09.06.21.14.42.21.62-.73.01-1.34-.45-2.08-.47Z"/>
      <path class="cls-1" d="M18.81,48.2c-.15.06-.28.18-.42.27.05-.11.15-.23.13-.31-.05-.22-.24-.31-.4-.3-.11-.13-.18-.24-.27-.32-.09-.08-.2-.12-.36-.22-.08-.07-.22-.27-.37-.29-.22-.03-.46.05-.67.14-.2.08-.36.25-.56.36-.11.06-.26.09-.38.07-.25-.02-.5-.1-.75-.12-.84-.05-1.67-.07-2.51-.12-.14,0-.29-.05-.45-.1-.07,0-.14,0-.2-.03,0,.02,0,.03.01.05-.27-.04-.48-.08-.69-.12-1.02-.19-2.05-.37-3.07-.58-.56-.12-1.11-.28-1.67-.42-.05-.01-.13-.08-.12-.12.03-.45.08-.89.12-1.3.46,0,.88,0,1.29,0,.05,0,.11,0,.14.03.45.36,1.02.28,1.54.41.48.12.96.22,1.44.32,0,0,.02,0,.03,0h.24c.08,0,.15.02.22.06h.01s.01.01.02.01c.1.02.15.06.13.16.01.03.03.05.04.08,0,.02,0,.04,0,.07.44-.1.9-.09,1.35-.09.54-.09,1.08-.2,1.63-.19.12,0,.26-.02.35-.09.09-.07.19-.21.19-.32,0-.16-.1-.27-.28-.28-.21-.01-.43-.03-.64-.05-.32-.02-.65-.02-.97-.06-.21-.03-.4-.13-.61-.17-.52-.1-1.04-.18-1.55-.27-.45-.08-.9-.19-1.35-.26-.82-.12-1.6-.33-2.35-.65-.06-.15-.13-.31-.25-.39-.19-.11-.64,0-.74.19-.12.21-.27.19-.44.15-.52-.1-1.05-.22-1.57-.31-.46-.08-.93-.1-1.39-.21-.58-.13-.64-.1-.63.5,0,.32.06.37.38.42.96.15,1.93.31,2.89.46.14.02.23.07.18.24-.08.27-.02.52.06.78.01.05-.06.14-.12.18-.15.12-.35.2-.47.34-.16.19-.3.18-.51.1-.56-.21-1.12-.41-1.69-.6-.54-.18-1.02-.45-1.43-.84-.23-.22-.24-.42-.1-.71.09-.19.15-.41.2-.62.05-.25.06-.5.1-.75,0-.07.03-.13.05-.23-.08.02-.13.03-.17.05-.49.22-.81.63-1.12,1.05-.18.24-.33.46-.23.8.15.5.29.98.71,1.35.96.85,2.09,1.34,3.3,1.71.51.16,1,.4,1.51.6-.04.13-.04.23-.09.29-.14.21-.12.42,0,.63.13.22.28.42.42.63.3.43.51.88.31,1.43-.13.36-.05.67.25.91.23.19.33.16.41-.12.1-.04.24.28.29-.03.11.12.25.22.31.36.17.4.46.65.92.81-.2.01-.34.02-.52.03.03.06.05.09.06.13.18-.1.18.1.27.16.05.04.12.09.17.07.05-.02.08-.1.13-.17.02.29.22.13.38.14.1.36.31.6.72.6.48,0,.96.06,1.42-.14.13-.06.3-.13.41-.08.76.32,1.5.22,2.21-.08.34-.14.6-.46.95-.74h-.18c.07-.16.13-.31.21-.51.04.12.07.2.12.35.13-.15.26-.26.33-.4.18-.37.42-.68.73-.95.18-.16.34-.33.51-.5.44-.45.89-.91,1.33-1.37.02.01.04.03.07.04-.11.39-.22.78-.33,1.18.07-.06.14-.11.22-.18.04.07.07.13.14.25.1-.15.19-.28.28-.4l.06.04c0,.08.02.17.03.29.44-.69.87-1.34,1.28-1.99-.18-.19-.34-.27-.53-.2ZM14.61,49.34c-.6.28-1.23.51-1.84.76-.37.15-.71.33-1.01.63-.33.32-.58.37-1.03.19-.18-.07-.38-.08-.57-.1-.13-.01-.26,0-.4.02,0-.05-.02-.09-.02-.13.02-.19-.05-.25-.25-.25-.3-.01-.61-.05-.89-.13-.39-.12-.41-.26-.31-.66.04-.14.11-.2.18-.3.06-.09.06-.23.12-.33.09-.15.2-.29.31-.45-.11-.04-.21-.09-.34-.14.14-.23.35-.23.54-.2.48.07.95.14,1.43.22.07-.04.14-.07.22-.07.39,0,.76.1,1.14.16.1.01.21.02.31.02.01,0,.02,0,.03,0,.7.05,1.41.1,2.11.14.32.02.65,0,.98,0,.02.04.03.08.05.11-.24.17-.47.38-.74.5Z"/>
      <path class="cls-1" d="M75.19,47.14c-.44-.01-.73-.29-.98-.59-.26-.31-.35-.69-.31-1.11-.03,0-.05-.01-.08-.02-.08.14-.16.28-.24.42-.19.34-.09.68.02,1.02.11.34.35.47.85.46.45,0,.9-.01,1.35-.02.06,0,.12.03.21.05-.05.08-.08.14-.12.2-.14-.05-.29-.16-.31.12,0,.07-.18.13-.28.2.01.02.02.04.03.06.3-.14.6-.29.9-.43.13-.06.26-.15.4-.2.12-.04.28-.07.37-.02.18.11.28.02.35-.09.17-.26.33-.5.64-.62.06-.02.08-.18.1-.28.04-.18.06-.36.11-.53.03-.11-.02-.29.19-.29.2,0,.41.02.46.27.06.27.1.55.16.82.03.13.09.26.14.44-.06.12-.13.31-.24.48-.06.09-.17.14-.27.19-.09.05-.23.04-.3.1-.22.21-.5.24-.78.32-.64.18-1.26.39-1.89.59-.29.09-.59.2-.88.27-.09.02-.23-.02-.31-.08-.04-.03-.01-.18.01-.27.04-.15.1-.29.15-.46-.5-.13-1.05-.28-1.63-.44-.05.23-.12.49-.16.75-.07.49-.15.99-.19,1.49-.02.25.06.5.03.75-.05.39.16.78-.06,1.17-.11.2-.08.48-.13.72-.12.56-.23,1.13-.38,1.69-.06.22-.22.42-.35.61-.03.05-.12.09-.18.1-.49.05-.95.21-1.33.5-.24.18-.51.15-.75.21-.57.14-1.14-.03-1.72-.05-.1,0-.21-.06-.29-.12-.25-.19-.52-.33-.82-.44-.18-.06-.32-.22-.51-.36.11-.08.17-.12.25-.18-.19-.13-.36-.24-.54-.36,0-.03.01-.06.02-.09.15-.03.31-.05.48-.08-.23-.16-.45-.31-.65-.44.02,0,.08-.01.15-.02,0-.02,0-.03-.01-.04-.21-.09-.42-.17-.66-.28v.29c-.11.1-.39.06-.46-.05-.2-.33-.45-.65-.6-1-.13-.3-.15-.65-.19-.98-.03-.21-.02-.42-.03-.64,0-.08.02-.16.03-.24.03-.14.07-.2.21-.07.15.14.31.12.36-.07.13-.49.21-1,.32-1.5.05-.24.13-.48.18-.73.05-.25.12-.5.11-.75-.02-.61.1-1.18.36-1.73.05-.11.08-.23.1-.35.05-.22.08-.44.12-.66.02,0,.04,0,.06.01-.05.25-.1.51-.15.76.03,0,.05.01.08.02.05-.18.11-.36.16-.54.08-.36.14-.73.25-1.09.07-.22.21-.43.34-.63.46-.69.87-1.42,1.4-2.05.39-.46.91-.82,1.4-1.19.69-.51,1.51-.71,2.35-.81.07,0,.2,0,.22.03.1.21.3.16.47.2.48.12.97.2,1.37.54.85.72,1.23,1.67,1.3,2.75.03.53,0,1.07.02,1.6,0,.14.02.31.09.42.13.22.09.48.28.69.1.12-.02.23-.17.22-.27-.02-.33.08-.26.33.1.35.17.71.26,1.1ZM70.76,52.72c-.22-.11-.4-.19-.56-.3-.06-.04-.1-.21-.07-.27.15-.26.33-.49.49-.75.23-.37.5-.73.65-1.12.15-.4.18-.84.26-1.26.04-.21.14-.42.15-.63.03-.47.02-.95.01-1.43,0-.2,0-.41-.04-.61-.06-.31-.23-.59-.11-.92.02-.05-.01-.13-.04-.19-.14-.41-.29-.82-.42-1.23-.07-.24-.23-.36-.46-.36-.23,0-.45.04-.67.08-.09.02-.17.1-.23.17-.18.22-.31.49-.64.56-.33.07-.59.23-.69.58-.01.04-.06.07-.1.1-.23.18-.44.39-.69.54-.27.16-.26.69-.75.55-.02,0-.1.23-.16.36.13.03.21.05.29.07-.14.4-.31.77-.39,1.16-.11.54-.15,1.09-.22,1.64,0,.06.01.12-.01.17-.18.28-.17.59-.12.9.02.15.05.31.24.19.02.34-.03.7.07,1,.11.33.34.63.54.93.1.15.15.29.11.48-.02.1.06.29.15.34.23.12.49.17.76.07.25-.1.49-.09.69.14.02.03.07.05.1.06.16.05.33.09.49.14.13.04.26.1.39.13.15.04.22-.02.18-.18-.02-.08-.02-.18,0-.26.1-.32.35-.5.61-.67.07-.04.11-.13.16-.19ZM73.83,45.19c0-.05,0-.11-.02-.17-.05-.47-.09-.94-.16-1.41-.09-.57-.15-1.16-.31-1.72-.36-1.23-1.25-1.71-2.25-1.8-1.01-.09-1.84.4-2.55,1.05-.3.27-.49.68-.67,1.05-.29.61-.54,1.24-.8,1.86-.04.1-.02.22-.02.33.03,0,.05.01.08.02.1-.15.4-.11.35-.4.32-.22.38-.6.54-.92.24-.49.56-.81,1.13-.93.9-.18,1.76-.14,2.63.13.35.11.7.24.92.54.17.23.29.51.37.79.13.43.2.87.29,1.25.17.11.32.21.49.31Z"/>
      <path class="cls-1" d="M42.64,29.3c.52.31,1.01.26,1.52.13.24-.06.49-.1.74-.12.44-.04.88-.09,1.32-.09.42,0,.85.05,1.27.09.16.02.26.11.15.3-.04.07-.06.16-.11.28.24-.02.45-.06.66-.04.49.04.99.05,1.48.2.61.18,1.23.07,1.85,0,.06,0,.12-.05.17-.07.27.29.28.29.39.13.24.03.45.07.66.09.32.04.64.07.96.11,0,.03,0,.06,0,.09-.04.02-.08.03-.12.05,0,.02,0,.04,0,.06.49-.05.96.16,1.47.01.32-.09.67-.12,1.02,0,.09.03.28-.06.34-.15.21-.3.27-.66.28-1.03.02-.69.08-1.38.03-2.06-.05-.63-.23-1.25-.35-1.88-.02-.12-.03-.25-.08-.36-.06-.14-.16-.25-.22-.39-.06-.13-.07-.28-.13-.41-.17-.32-.36-.63-.56-.94-.12-.19-.27-.35-.42-.53.03,0,.08-.02.16-.05-.44-.31-.84-.64-1.28-.89-.54-.31-1.18-.31-1.78-.4-.19-.03-.39-.06-.58-.08-.09,0-.19.04-.28.04-.09,0-.18-.03-.27-.05.02-.09.02-.2.07-.27.1-.15.23-.23.45-.2.41.05.83.03,1.25.03.03,0,.08,0,.1-.02.21-.25.4-.08.61,0,.22.09.45.15.68.21.62.16,1.1.52,1.46,1.03.36.5.7,1.01,1.04,1.53.51.78.67,1.69.86,2.58.17.8.25,1.61.19,2.45.09-.04.15-.06.22-.09,0,.04.03.07.02.09-.05.15-.23.29-.03.46,0,0,0,.03,0,.05-.11.54-.23,1.08-.32,1.62-.02.1.05.25.12.33.34.35.34.34.03.69-.14.16-.28.1-.42.04-.28-.13-.55-.28-.83-.39-.13-.05-.28-.07-.42-.07-.43-.01-.86,0-1.3-.02-.51-.02-1.02-.05-1.53-.09-.52-.04-1.04-.12-1.56-.15-.72-.05-1.44-.06-2.16-.11-.22-.01-.44-.1-.66-.14-.32-.05-.65-.1-.98-.13-.75-.07-1.5-.13-2.25-.18-.46-.03-.92-.04-1.38-.08-.4-.04-.8-.09-1.19-.18-.29-.07-.5-.29-.52-.61,0-.13.08-.27.13-.4Z"/>
      <path class="cls-1" d="M40.31,8.71c-.06-.1-.07-.23-.04-.34.04-.17.11-.33.18-.49.06-.14.14-.28.23-.4.04-.07.09-.12.16-.16l.05-.02s.06-.06.1-.09c.07-.05.05-.25.06-.38,0-.04-.03-.07-.03-.11,0-.25-.12-.35-.35-.26-.19.07-.28.01-.3-.19-.03-.3-.07-.61-.11-.96.15-.08.27-.3.2-.42-.13-.2-.26-.38-.49-.52-.37-.22-.71-.5-1-.81-.32-.33-.68-.4-1.02-.17-.57.38-1.25.18-1.84.41-.26.1-.79.46-.77.75.02.24-.12.32-.24.46-.07.09-.14.24-.11.33.11.37.26.72.38,1.04-.12.18-.24.34-.33.51-.07.15-.11.31-.16.47-.37,1.24-.14,2.36.69,3.34.06.07.17.11.25.15.14.07.28.13.42.2.15.08.29.23.45.26.55.11,1.08.12,1.55-.3.2-.19.47-.29.71-.45.7-.46,1.17-1.07,1.38-1.86,0,0,0,0,0,0ZM38.68,3.92s0,.05.01.08c-.25.23-.5.24-.76,0,.29-.03.52-.05.75-.07ZM38.87,9.67c-.29.28-.61.5-1,.62-.11.03-.22.08-.31.15-.41.32-.77.25-1.19-.06-1.02-.75-1.2-1.67-.82-2.88.06-.18.12-.36.19-.53.08-.22.12-.42-.18-.52.15-.08.27-.14.43-.23.08.15.17.31.25.48.09.21.23.25.45.23.4-.03.81,0,1.27,0-.11.17-.2.3-.27.44-.13.27-.08.38.21.36.28-.02.56-.11.83-.19.14-.04.2-.06.32.07.15.16.13.31.12.49,0,.26.02.53.03.79.02.32-.11.57-.34.79Z"/>
      <path class="cls-1" d="M57.87,21.18c0-.2-.02-.44.23-.16.01.02.06,0,.09,0,.11,0,.21-.02.32-.01.1.01.19.05.25.01.3-.18.59-.39.92-.52.17-.07.39.02.59.05.05,0,.11.08.13.13.1.28.21.36.51.34.05,0,.12,0,.17.03.6.31,1.23.59,1.8.95.84.53,1.54,1.24,2.12,2.05.19.26.24.61.37.91.24.54.5,1.07.75,1.6.04.09.05.19.08.28.02.06.02.14.06.18.38.35.48.84.64,1.3.09.25.18.49.27.74.09.26.17.51.23.78.06.22.1.42.31.6.21.18.32.48.45.75.05.11.05.29,0,.38-.15.23-.03.4.05.59.03.07.05.2.02.22-.08.06-.23.12-.28.09-.28-.22-.53-.47-.79-.72-.04-.04,0-.16-.03-.23-.02-.05-.11-.12-.11-.11-.12.1-.23.21-.34.32-.04.04-.08.13-.12.14-.19.03-.38.04-.56.04-.96,0-1.92-.03-2.88-.02-.79,0-1.57.03-2.36.06-.26,0-.49-.08-.67-.26-.18-.18-.16-.3.07-.42.34-.18.7-.22,1.08-.16.31.05.62.09.92.09.95,0,1.89-.03,2.84-.05.62-.02,1.25-.06,1.87-.08.14,0,.2-.06.18-.2-.04-.23-.08-.47-.15-.69-.16-.5-.33-1-.52-1.49-.16-.42-.34-.83-.53-1.23-.25-.52-.51-1.03-.78-1.54-.17-.32-.36-.63-.54-.95-.44-.81-1.17-1.3-1.92-1.76-.59-.36-1.19-.7-1.82-.99-.58-.27-1.22-.39-1.86-.41-.1,0-.19.04-.28.07.17.44.32.85.48,1.26.01.03.03.06.02.09-.03.59.28,1.09.38,1.65.1.56.14,1.12.19,1.69.03.28.03.56.03.84,0,.16-.03.31-.24.33-.23.02-.25-.14-.27-.29-.04-.41-.07-.82-.09-1.22-.02-.37-.1-.73-.3-1.05-.06-.09-.06-.21-.1-.32-.15-.41-.37-.81-.44-1.24-.06-.34-.34-.48-.49-.73-.28-.43-.43-.91-.57-1.39-.03-.11.07-.28.16-.38.04-.04.2.02.3.04.07.01.13.04.21.06Z"/>
      <path class="cls-1" d="M17.9,29.77c.05-.08.14-.2.22-.32-.02-.02-.04-.03-.06-.05-.09.07-.17.16-.26.21-.27.13-.54.24-.82.35-.45.18-.9.39-1.37.52-1.22.33-2.46.61-3.69.93-1.06.27-2.11.56-3.16.85-.53.15-1.06.31-1.56.52-.38.16-.73.41-1.07.65-.29.2-.38.49-.39.87-.01.47-.17.93-.26,1.39-.02.1-.06.19-.09.28-.12.3-.28.41-.61.4-.1,0-.2,0-.3-.01-.36-.05-.62.09-.69.49-.08.51-.1,1.04-.15,1.56,0,.04,0,.09.03.12.24.3.1.58-.01.88-.25.66-.49,1.32-.74,1.98-.03.09-.06.21-.13.26-.09.07-.22.1-.33.1-.04,0-.1-.13-.12-.21-.15-.61-.11-1.24-.06-1.86.04-.47.08-.93.1-1.4.03-.63.25-1.2.52-1.75.12-.25.23-.5.3-.76.03-.13-.04-.29-.05-.43,0-.09-.03-.21.01-.26.27-.33.48-.69.94-.85.23-.08.4.1.62.01-.04-.06-.07-.11-.11-.15,0-.01.02-.03.02-.04.15.1.3.21.47.32.15-.38-.18-.36-.36-.49.16-.14.31-.26.45-.39.36-.33.69-.68,1.07-.98.63-.5,1.38-.75,2.14-.96.84-.23,1.69-.43,2.54-.64.4-.09.8-.15,1.19-.25.93-.22,1.88-.4,2.78-.7.95-.31,1.86-.75,2.78-1.14.07-.03.15-.08.2-.14.18-.22.44-.23.69-.27.12-.02.19.02.16.14-.09.38-.07.81-.36,1.12-.05.05-.13.09-.2.1-.09.02-.19,0-.28,0Z"/>
      <path class="cls-1" d="M77.87,39.9c.08.13.14.24.2.35.26-.12.37-.08.43.17.14.61.27,1.23.4,1.85.04.19-.02.38-.24.43-.22.06-.43-.11-.48-.34-.05-.2-.09-.4-.13-.61-.14.05-.27.09-.41.15,0,.05.02.13.03.23-.08,0-.16,0-.19-.03-.19-.18-.4-.36-.55-.57-.08-.11-.07-.28-.09-.42-.03-.15-.05-.31-.07-.43.01-.1.03-.17.02-.24-.02-.75-.51-1.23-.99-1.72-.3-.31-.59-.64-.88-.95-.05-.05-.1-.11-.16-.15-.21-.14-.32-.34-.25-.59.18-.62.3-1.28.58-1.86.21-.44.61-.8.96-1.17.23-.24.59-.07.69.23.31.88.21,1.8.31,2.7.01.09.03.18.07.25.33.51.41,1.06.34,1.64-.02.15.04.32.06.47.01.1.04.2.03.3-.02.18.16.32.33.27ZM76.42,35s-.05-.02-.08-.03c-.14.19-.28.38-.42.58-.21.3-.42.6-.63.9-.13.18.06.25.13.34.03.03.16.02.22-.01.25-.17.47-.11.58.18.06.15.13.3.2.44.03,0,.06-.01.09-.02-.03-.8-.07-1.59-.1-2.39ZM74.84,36.9c.11-.14.21-.27.08-.42-.02-.02-.15,0-.19.05-.16.16-.07.27.11.38Z"/>
      <path class="cls-1" d="M8.99,40.51c.49-1.36,1.11-2.69,2.45-3.52.55-.34,1.16-.59,1.76-.85.66-.29,1.34-.54,2-.82.47-.2.92-.43,1.39-.64.07-.03.15-.08.23-.08.11,0,.21.05.31.08-.04.09-.09.18-.13.26.03.14.06.3.09.46.03.17-.09.25-.21.23-.3-.05-.53.12-.79.22-.38.14-.76.27-1.13.4-.07.02-.14.06-.19.11-.47.48-1.08.7-1.69.91-.12.04-.23.1-.34.14-.22.08-.44.19-.67.21-.44.05-.68.35-.96.62-.03.03-.07.07-.1.1-.31.26-.36.65-.5.99-.16.4-.34.79-.55,1.16-.05.09-.25.13-.38.13-.17,0-.35-.07-.56-.12Z"/>
      <path class="cls-1" d="M60.63,34.44c-.26-.13-.5-.26-.74-.39-.04-.02-.05-.09-.08-.14-.08-.14-.17-.27-.25-.41-.04.02-.07.04-.11.06.07.13.13.25.21.39-.24.14-.09.31.03.42.26.24.35.51.33.87-.07,1.25-.14,2.49-.52,3.7-.04.14-.11.27-.16.41-.24-.02-.38-.14-.37-.39.02-.46.09-.92.12-1.37.02-.27,0-.55.01-.83.01-.23.05-.46.07-.7,0-.06,0-.11,0-.17,0-.31.04-.63-.01-.93-.02-.13-.2-.24-.33-.35-.02-.02-.12.05-.16.07-.02-.21,0-.44-.08-.65-.06-.17.02-.24.11-.33.09-.08.19-.16.3-.25-.28-.17-.55-.33-.81-.5-.16-.1-.26-.22-.13-.42.04-.06.05-.14.08-.21.09-.27.33-.39.6-.27.19.08.38.18.57.27.22.11.44.21.57.44.02.03.04.06.07.06.45.08.54.47.66.8.04.12,0,.26,0,.39,0,.13,0,.26,0,.42ZM59.53,35.66c.19-.31.18-.53-.05-.73.02.25.03.47.05.73Z"/>
      <path class="cls-1" d="M45.59,22.05c-.02.18-.01.35-.08.5-.11.24-.26.47-.4.7-.14.21-.29.41-.44.62-.2.27-.39.54-.59.81-.06.08-.12.16-.17.24-.14.24-.27.48-.4.72-.14.26-.31.5-.43.77-.27.57-.64,1.06-1.05,1.54-.35.41-.62.88-.97,1.29-.33.38-.73.71-1.09,1.07-.12.12-.22.26-.31.41-.11.18-.25.16-.4.09-.2-.09-.08-.24-.02-.33.29-.44.61-.86.91-1.29.4-.57.81-1.13,1.21-1.7.74-1.06,1.46-2.13,2.21-3.18.29-.4.68-.74,1-1.12.2-.24.35-.53.56-.77.13-.14.25-.35.45-.36Z"/>
      <path class="cls-1" d="M48.39,22.59c.07.13.02.26-.17.27-.28.02-.45.19-.62.39-.09.11-.23.17-.33.26-.26.24-.5.49-.75.73-.08.07-.16.14-.25.21-.31.21-.6.37-.8.75-.19.38-.45.77-.86,1.03-.29.19-.52.47-.76.73-.44.48-.87.98-1.31,1.47-.05.06-.14.1-.21.14-.02-.02-.05-.03-.07-.05.12-.27.21-.55.35-.81.3-.55.61-1.1.93-1.64.37-.63.91-1.12,1.45-1.6.2-.18.4-.37.62-.52.16-.11.36-.17.54-.27.09-.05.16-.13.25-.18.28-.15.51-.35.74-.57.19-.18.52-.22.75-.37.45-.29,1.03-.34,1.4-.77.02-.02.07-.03.1-.04.01.02.03.04.04.06-.17.14-.34.28-.52.42-.1.08-.19.16-.29.23-.07.05-.15.1-.24.16Z"/>
      <path class="cls-1" d="M12.46,38.27s.09-.11.14-.18c.08-.12.14-.28.33-.11.04.04.14.04.21.04.52-.06.62.03.61.56,0,.27-.17.44-.29.65-.19.34-.32.72-.47,1.08-.07.16-.12.32-.19.48-.07.16-.17.27-.38.3-.13.02-.25.16-.38.23-.15.09-.25.06-.25-.14.02-.48.04-.96.05-1.44,0-.03,0-.07.01-.09.17-.31.35-.62.51-.93.06-.12.06-.27.1-.43Z"/>
      <path class="cls-1" d="M44.57,32.1c-.31-.04-.62-.09-.93-.13-.18-.02-.37-.03-.56-.06-.15-.02-.31-.06-.45-.11-.03-.01-.03-.1-.03-.11-.18-.04-.33-.08-.47-.12-.26-.07-.53-.13-.78-.21-.26-.08-.29-.18-.2-.42.02-.04.05-.09.06-.13.13-.33.13-.34.48-.27.71.15,1.41.32,2.11.48.26.06.53.1.8.16.24.05.44.15.53.42-.23.04-.44.07-.65.11.05.12.09.21.12.3-.01.03-.02.06-.03.09Z"/>
      <path class="cls-1" d="M50.94,11.53c-.24,0-.49-.13-.55-.36-.03-.12.04-.28.1-.39.03-.05.17-.08.25-.07.38.05.39.04.57-.31.04-.08.09-.16.16-.21.06-.05.18-.09.23-.07.08.04.18.13.19.22.12.62-.5,1.26-.97,1.19Z"/>
      <path class="cls-1" d="M59.26,28.6c.18.04.3.05.41.1.06.03.14.13.13.17-.09.43-.19.85-.3,1.27-.04.17-.2.19-.31.14-.12-.06-.3-.2-.3-.3.02-.4.09-.79.17-1.19.02-.08.14-.15.19-.2Z"/>
      <path class="cls-1" d="M58.53,49.53c.42-.19.84-.27,1.31-.09-.29.31-1.03.34-1.31.09Z"/>
      <path class="cls-1" d="M49.87,21.61c.39-.4.68-.52.86-.35-.29.11-.47.48-.86.35Z"/>
      <path class="cls-1" d="M58.35,49.94c-.41-.08-.82-.16-1.23-.25,0-.03.01-.06.02-.09.41.07.82.15,1.24.22,0,.04-.01.08-.02.11Z"/>
      <path class="cls-1" d="M73.63,48.49c.27.16.51.3.78.46-.29.08-.6-.11-.78-.46Z"/>
      <path class="cls-1" d="M27.47,46.44c-.03.06-.03.09-.05.12-.21.34-.21.33.18.42.07.02.16.14.15.21-.03.33-.07.66-.13.99-.02.09-.09.18-.15.23-.15.13-.2.27-.17.47.05.28.07.56.1.84,0,0,0,.02,0,.02-.23.54-.23,1.18-.66,1.63-.17.18-.41.29-.62.41-.17.09-.32.08-.35-.2-.32.33-.51-.12-.79-.1,0,0-.05-.13-.04-.19.01-.12.05-.22-.14-.26-.07-.02-.11-.24-.12-.37-.02-.3.02-.61-.04-.9-.09-.42-.25-.83-.39-1.27.14-.01.24-.04.34-.03.31.03.57-.07.82-.22.19-.11.26-.3.2-.53-.04-.16-.09-.33-.12-.5-.06-.42.16-.74.41-1.03.16-.17.52-.11.76.01.17.09.38.11.58.16.07.02.15.03.24.05Z"/>
      <path class="cls-1" d="M58.16,8.52c.04.17.08.33.12.5,0,0,.04-.05.13-.15.11.47.22.88.31,1.3.05.25,0,.51.07.76.26.99.53,1.98.81,2.97.15.54.32,1.08.49,1.62.17.52.37,1.03.56,1.55.03.09.05.19.08.28.07.2-.04.3-.2.35-.17.05-.35.1-.53.11-.12,0-.31-.05-.35-.13-.06-.1-.05-.33.02-.4.22-.22.18-.45.1-.7-.33-1.07-.65-2.13-.96-3.2-.12-.42-.19-.86-.29-1.29-.06-.26-.16-.51-.24-.77-.05-.16-.12-.31-.13-.47-.04-.69-.07-1.39-.1-2.08,0-.07.01-.14.02-.21.03,0,.05,0,.08-.01ZM60.1,16.42s-.06.01-.08.02c.11.28-.01.61.18.87.03,0,.05-.01.08-.02-.06-.29-.12-.58-.18-.87Z"/>
      <path class="cls-1" d="M70.7,45.8c-.25.28-.25.36.01.6.19.17.1.36.02.52-.14.28-.31.54-.46.81-.22.4-.22.52.09.83.3.3.36.59.18,1.01-.18.41-.23.87-.34,1.31-.04.16-.09.31-.16.52-.1-.12-.16-.2-.23-.28,0,.02-.01.04-.02.05-.19-.06-.38-.12-.58-.17-.08-.02-.17-.03-.25,0-.16.06-.3,0-.27-.17.02-.12-.06-.3.14-.36.01,0,0-.07,0-.17-.21.17-.37.3-.59.47-.25-.17-.42.24-.72.25-.01.08,0,.17-.04.24-.04.07-.13.15-.19.14-.07,0-.16-.1-.17-.17-.04-.17-.07-.35-.06-.53,0-.1.08-.23.17-.28.26-.17.2-.39.11-.59-.18-.41-.09-.77.12-1.14.07-.12.11-.27.12-.41.03-.44.28-.76.56-1.07.05-.05.08-.12.1-.19.14-.48.28-.97.41-1.45.07-.26.22-.46.45-.58.05-.03.14-.05.18-.03.17.11.33.24.5.35.11.07.25.12.37.19.18.1.36.2.55.3Z"/>
    </g>
  </g>
</svg>