<?xml version="1.0" encoding="UTF-8"?>
<svg id="Layer_2" data-name="Layer 2" xmlns="http://www.w3.org/2000/svg" viewBox="0 0 76.05 65.64">
  <defs>
    <style>
      .cls-1 {
        fill: #000;
        stroke-width: 0px;
      }
    </style>
  </defs>
  <g id="illustrations">
    <g>
      <path class="cls-1" d="M76.03,17.31c-.03-.11-.03-.22-.04-.34-.02-.03-.03-.05-.05-.08-.13.13-.25.27-.33.35.03-.29.08-.67.1-1.05.02-.47.06-.94.01-1.4-.05-.51-.2-1.01-.29-1.52-.18-1.03-.63-1.95-1.17-2.84-.16-.27-.39-.5-.53-.78-.13-.26-.2-.55-.5-.68-.04-.02-.06-.07-.09-.11-.08-.1-.16-.2-.25-.29-.13-.14-.31-.24-.41-.4-.44-.66-.96-1.25-1.52-1.82-.62-.64-1.24-1.28-1.85-1.92-.16-.17-.26-.38-.41-.55-.17-.2-.35-.39-.53-.58-.13-.14-.25-.29-.22-.52.1.01.19.03.34.05-.18-.17-.31-.38-.45-.39-.37-.04-.54-.32-.75-.55-.41-.44-.81-.9-1.24-1.33-.19-.19-.42-.37-.67-.44-.48-.14-1-.25-1.43.17-.03.03-.09.03-.14.04-.48.14-.97.24-1.43.42-.36.14-.69.37-1.03.57-.2.12-.4.23-.57.38-.59.52-1.16,1.06-1.74,1.6-1.03.95-1.98,1.97-2.77,3.13-.49.72-.95,1.48-1.37,2.24-.34.62-.64,1.27-.9,1.93-.37.92-.94,1.72-1.49,2.53-.34.51-.75.97-.97,1.56-.17.46-.42.89-.61,1.35-.24.6-.61,1.15-.96,1.7-.13.21-.23.48-.52.55,0,0,0,0,0,0-.11.09-.25.17-.33.29-.17.27-.33.55-.47.84-.31.67-.72,1.27-1,1.96-.18.44-.45.85-.66,1.27-.11.23-.18.48-.3.71-.15.32-.33.63-.51.97.17-.11.3-.2.43-.28.02.02.03.04.05.05-.06.08-.1.21-.18.24-.29.1-.38.34-.48.59-.17.43-.28.89-.56,1.28-.17.24-.27.52-.41.78-.09.17-.2.33-.27.51-.06.16-.08.34-.13.5-.08.26-.16.53-.24.79.02,0,.03.01.05.02.1-.25.2-.49.3-.74.02,0,.04.01.06.02-.02.07-.03.14-.06.2-.12.31-.27.62-.38.93-.42,1.27-.81,2.54-1.24,3.8-.46,1.35-.93,2.69-1.42,4.02-.12.47-.34.91-.6,1.32-.04.06-.09.12-.13.18-.03.08-.07.16-.11.23-.17.28-.28.59-.51.84-.43.48-.82.99-1.19,1.52-.23.33-.47.64-.82.86-.12.08-.22.17-.34.24-.67.44-1.32.91-2.01,1.31-.48.28-1.02.44-1.51.69-.41.2-.65.55-.76,1.05-.11.01-.27,0-.41.06-.39.16-.78.27-1.2.33-.56.08-1.1.28-1.66.38-.79.15-1.57.3-2.37.4-.82.1-2.81.39-3.81.52-1.13.19-2.26.38-3.4.42-1.39.05-10.9,1.38-11.32,1.52-.63.2-1.25.42-1.87.65-.32.12-.62.3-.94.43-.14.06-.3.1-.46.14-.27.05-.54.09-.82.14-.02,0-.03.03-.05.05.05.04.1.07.13.1-.23.12-.44.26-.66.35-.15.06-.34.12-.5.09,0,0,0,0-.01,0-.12.09-.24.18-.37.26,0,0,.02,0,.03,0-.34.19-.69.39-1.05.59-.19.12-.37.25-.53.41-.05.05-.09.1-.13.14-.04.09-.08.18-.14.25-.12.13-.24.26-.37.38-.31.44-.57.93-.74,1.43.17-.12.15-.44.44-.43-.19.37-.38.7-.52,1.05-.06.17-.08.42,0,.56.03.04-.31.21-.29.25-.11.36-.2.72-.21,1.09-.02.45-.2.49-.17.94-.46-.18.18.42.17.41.01.09.02.41.03.49.06.4.27.64.38,1.03.07.11.22.18.3.28.23.29.7.41.95.67.41.29.87.57,1.32.84,0,0,0,0,.01,0,.05.01.12.04.12.06,0,0,0,0,0,.01.14.08.27.16.41.24,0-.01.01-.02.02-.03-.09-.05-.17-.1-.26-.15.23.04.44.13.66.18.45.1.91.19,1.37.27.68.13,1.4.13,2.04.45.1.05.15.09.16.16,1.88.09,3.72.63,5.57,1.01,0-.02.02-.03.03-.05.13.04.32.05.36.12.22.04.44.08.65.12.08.01.15.02.23.03.01,0,.02-.02.03-.02.65.04,1.3.09,1.95.13.14,0,.15.09.16.18,0,0,0,0,.01,0,.06-.15.19-.17.33-.15.79.12,1.59.24,2.38.37.27.05.55.1.82.14.62.06,1.25.11,1.87.16,1.57.13,3.13.27,4.7.4.16-.11.3-.05.47,0-.02.02-.03.03-.05.04.12,0,.24.02.36.03-.03-.02-.05-.03-.08-.05.95-.13,1.86.09,2.78.18,0,.02,0,.05.01.07.47.03.95.07,1.42.09.17-.03.34-.05.51-.08.16-.02.32-.06.47-.04.54.06,1.07.15,1.6.2.45.04.91.04,1.37.05.25,0,.51,0,.76-.01.4-.03.8-.08,1.19-.11.16-.01.32,0,.48,0,.07,0,.13-.02.2-.02.05-.2.2-.37.47-.36.93.03,1.91-.06,2.81-.37-.01,0-.03-.01-.04-.01.04-.01.08-.01.12-.01.22-.08.43-.17.64-.28.03-.02.07-.04.1-.05.15-.08.29-.17.43-.27.16-.11.31-.24.46-.36-.03,0-.05,0-.08,0,.12-.07.25-.17.4-.27.52-.45,1.03-.9,1.63-1.2.54-.53,1.18-.96,1.6-1.62.02-.03.06-.05.09-.08.37-.38.79-.72,1.1-1.15.32-.44.54-.95.81-1.43.04-.07.08-.13.13-.2-.04-.1-.07-.24-.03-.34.15-.37.33-.72.5-1.08.08-.16.15-.32.23-.48,0,0,0,0,0,0,0-.01.01-.03.02-.04.02-.04.04-.09.05-.13.03-.09.07-.18.09-.28.05-.17.18-.28.33-.33.1-.22.2-.44.3-.67.1-.24.17-.49.26-.73.15-.37.32-.74.47-1.12.16-.44.31-.89.46-1.33.15-.44.29-.88.44-1.32.21-.6.48-1.18.64-1.79.18-.71.54-1.34.74-2.04.07-.24.28-.45.35-.69.15-.51.6-.91.5-1.5-.02-.14.05-.31.1-.45.21-.57.43-1.13.64-1.7.05-.14.09-.3.09-.45,0-.1-.08-.19-.13-.29.17-.3.31-.61.51-.88.22-.29.32-.61.44-.94.02-.06.07-.11.12-.16.23-.22.35-.49.48-.78.14-.32.42-.57.62-.87.09-.14.14-.32.2-.48.02-.04.01-.11.04-.13.25-.15.19-.44.29-.65.04-.1.07-.22.15-.3.27-.3.58-.57.82-.89.13-.18.17-.43.25-.64.03-.07.04-.17.09-.21.75-.65,1.55-1.25,2.24-1.94.73-.73,1.62-1.16,2.48-1.66.21-.12.47-.16.71-.23.01.02.02.04.03.06-.21.15-.42.29-.58.4.11.2.19.38.31.53.07.09.2.16.31.2.17.05.35.08.53.1.19.01.23.13.24.28.1.84.2,1.68.32,2.51.03.23.16.45.15.68,0,.52-.07,1.04-.09,1.56-.02.53,0,1.06,0,1.59,0,.44-.04.88-.06,1.32,0,.04-.05.08-.08.12.05.05.09.1.1.11-.28.36-.11.76-.14,1.13.02-.06.03-.13.05-.19h.03v.27c.06-.02.1-.03.17-.06-.08,1.85-.17,3.69-.25,5.52,0,.04-.06.08-.07.09.02.1.06.16.05.23-.06.8-.08,1.61-.21,2.4-.17.99-.04,1.98-.09,2.97-.03.62-.02,1.24-.04,1.86,0,.09-.06.18-.09.29.1.04.1.11.01.86,0,0,0,0,0,0,.07.34.09.69.1,1.04.07.06.11.14.12.26,0,.46,0,.91,0,1.37h-.07c0-.13-.01-.26-.02-.39-.02,0-.05,0-.07,0v2.29s.07,0,.11,0v-1.15s.06,0,.09,0v1.77c.12-.11.21-.23.24-.35.12-.55.27-1.11.33-1.67.08-.72.09-1.45.13-2.18,0-.17-.04-.4.05-.49.1-.1.33-.07.5-.1.17.28.04.51-.08.71.05.05.09.07.09.1,0,.63.02,1.27.02,1.9,0,.13-.05.25-.08.38-.04.15-.1.29-.13.43-.03.14,0,.28-.03.42-.07.36.07.79-.34,1.03-.02,0-.02.04-.02.07-.11.58-.28,1.15-.21,1.75.02.21.02.42,0,.63-.03.41-.04.4-.44.45-.22.03-.45.07-.67.1.35.12.69.18,1.04.25.06.01.16.06.17.1.05.3.08.61.12.91-.04.01-.08.03-.12.04-.13-.2-.24-.41-.38-.6-.06-.09-.14-.21-.23-.24-.24-.07-.47-.13-.72-.19,0,.04-.02.09-.02.13,0,.07,0,.14-.01.2.06.03.11.05.17.09.51.34.97.76,1.64.84.24.03.47.05.71.02.21-.02.43-.01.62-.09.26-.11.68,0,.72-.46,0-.01.02-.02.05-.04,0-.13.02-.27.02-.4-.08-.05-.08-.12-.05-.29.02-.1.03-.21.04-.27-.33.01-.62.03-.9.03-.16,0-.27-.06-.22-.28.07-.26.06-.53-.11-.78-.2-.29-.16-.39.19-.44.22-.03.3-.12.28-.33,0-.15-.02-.3.02-.44.24-.76.07-1.52-.03-2.26-.06-.5-.01-.96.05-1.44.04-.33.07-.67.1-1,.03-.29.05-.58.09-.87,0-.02.02-.03.02-.05-.05-.55-.1-1.1-.11-1.65-.02-.88-.03-1.87.28-2.73,0-.38,0-.76,0-1.14,0-.77.01-1.54.03-2.31.01-.5.04-1.01.05-1.51.01-.63,0-1.25.03-1.88.03-.6.1-1.21.14-1.81.03-.41,0-.83.04-1.25.07-.75.16-1.5.26-2.24.09-.61.22-1.21.31-1.81.06-.43.09-.87.12-1.31.05-.74.32-1.47.18-2.22,0-.02,0-.03,0-.05.15-.34.28-.68.44-1.02.06-.13.13-.23-.04-.33-.14-.08-.05-.17,0-.27.04-.09.06-.2.07-.3.01-.06,0-.12.01-.17.08-.31.19-.61.26-.92.17-.77.48-1.49.84-2.18.38-.73.77-1.46,1.15-2.19.17-.32.37-.64.46-.99.06-.27.18-.49.33-.71.06-.09.11-.18.15-.28.24-.6.44-1.22.88-1.73.18-.21.24-.52.35-.79.4-.93.79-1.86,1.19-2.79.12-.29.29-.57.36-.88.07-.28.29-.54.21-.86ZM36.01,43.92c.13.14.06.24-.07.3-.12.05-.25.08-.37.12-.17.07-.34.15-.52.21-.12.04-.25.05-.37.08v-.06c.44-.21.88-.43,1.33-.65ZM14.45,63.26c-.3-.05-.6-.11-.89-.17-.14-.03-.28-.07-.41-.1-.1.02-.19.05-.27.04-.52-.06-1.04-.13-1.55-.21-.41-.07-.82-.17-1.22-.25-.08-.02-.17-.06-.24-.14.11,0,.23,0,.34,0,.51.02,1.02,0,1.53.08.38.06.75.08,1.13.08.07,0,.14.07.21.11,0-.01.01-.03.02-.04.09-.02.18-.06.26-.05.4.06.8.13,1.19.22.06.01.15.11.14.14-.04.12.01.34-.23.29ZM48.04,58.65s-.02.05-.04.06c-.51.39-.76,1.02-1.27,1.41-.1.08-.23.13-.35.2-.02-.02-.04-.05-.06-.07.06-.1.12-.21.18-.31.43-.68.86-1.36,1.29-2.03.12-.18.25-.36.39-.53.03-.04.11-.05.17-.07.06-.02.13-.03.2-.05-.13.47-.2.98-.52,1.4ZM50.42,52.93c-.17.4-.25.84-.41,1.24-.12.3-.31.56-.48.84-.1.17-.28.34-.27.51.02.42-.26.52-.55.64-.1.04-.2.06-.38.12.74-1.51,1.44-2.96,2.15-4.41.03.01.07.03.1.04-.04.34-.03.67-.17,1.01ZM54.02,44.21c-.27.63-.52,1.28-.79,1.91-.09.21-.25.38-.35.59-.1.2-.15.42-.24.62-.05.11-.13.2-.2.3-.04-.02-.07-.04-.11-.06.11-.25.24-.5.33-.75.16-.43.29-.87.43-1.31.11-.33.21-.67.34-1,.13-.33.29-.65.45-.98.03-.05.08-.09.15-.19.1.34.1.6-.01.87ZM60.62,30.86c-.38.42-.79.81-1.12,1.27-.38.51-.89.92-1.15,1.52-.1.23-.33.4-.47.61-.28.42-.55.85-.81,1.28-.3.51-.59,1.02-.89,1.54-.02-.01-.05-.02-.07-.03.22-.47.44-.94.65-1.41.03-.06.04-.13.07-.2-.07-.02-.16-.07-.22-.05-.12.05-.27.11-.33.22-.34.64-.73,1.27-.97,1.96-.24.67-.56,1.3-.82,1.96-.2.49-.36,1-.58,1.48-.16.37-.38.71-.57,1.07-.24.48-.49.96-.71,1.45-.26.58-.5,1.17-.75,1.76-.08.19-.14.4-.22.59-.34.9-.69,1.8-1.03,2.71-.24.66-.45,1.33-.7,1.98-.22.56-.48,1.1-.73,1.65-.19.42-.39.84-.6,1.26-.21.42-.45.84-.64,1.27-.11.25-.11.57-.27.76-.15.18-.13.37-.22.55-.27.58-.53,1.16-.79,1.74-.02.05-.04.13-.08.15-.36.14-.46.49-.64.77-.23.36-.45.71-.65,1.09-.22.43-.41.87-.61,1.31-.03.07-.07.15-.12.21-.18.22-.36.44-.56.64-.11.11-.28.15-.4.25-.21.17-.4.38-.61.55-.17.14-.42.2-.55.36-.21.26-.56.23-.76.47-.02.02-.06.03-.09.03-.27-.02-.49.1-.73.21-.36.17-.73.31-1.11.44-.3.1-.61.16-.92.21-.44.07-.89.11-1.33.17-.02,0-.05,0-.07,0-.29-.11-.55.03-.83.06-.35.04-.72-.05-1.08-.08-.14-.01-.27-.05-.41-.06-.6-.05-1.21-.09-1.81-.15-.61-.06-1.22-.13-1.83-.19-.66-.06-1.32-.09-1.98-.16-.56-.06-1.11-.16-1.67-.22-.45-.05-.9-.07-1.34-.11-.3-.03-.6-.07-.89-.1-.55-.06-1.1-.11-1.64-.17-.16-.02-.32-.06-.54-.11h0c-.56-.07-1.12-.17-1.68-.22,0,0,0,0,0,.01-.04.13-.08.18-.21.16-.37-.07-.74-.12-1.11-.2-.1-.02-.2-.05-.3-.07-.84-.06-1.68-.17-2.52-.32-.06,0-.13,0-.21-.02-.04-.01-.07-.03-.11-.04-.05-.01-.1-.02-.15-.03-1.5-.31-2.96-.63-4.49-.76-.7-.06-1.4-.18-2.1-.24-.58-.05-1.13-.13-1.67-.37,0,0,0,0,0,0-.05,0-.11-.01-.16-.02-.1-.02-.19-.06-.28-.07-.26-.01-.52,0-.78-.02-.53-.05-1.06-.12-1.59-.19-.25-.03-.49-.09-.73-.15-.18-.04-.36-.08-.54-.12-.65-.03-1.29-.23-1.87-.53-.14-.08-.28-.16-.41-.25-.58-.24-1.06-.66-1.25-1.3-.16-.52-.13-1.1-.08-1.63.05-.57.14-1.13.31-1.67.33-1.07.95-2.09,1.84-2.78.46-.36.98-.61,1.53-.82.47-.18.97-.29,1.38-.6.03-.03.07-.05.1-.06.28-.22,1.64-.82,2.01-.93.13-.04.27-.03.41-.06.38-.08.76-.19,1.15-.25.58-.09,1.17-.13,1.75-.24.33-.06.64-.19.96-.29.16-.05,7.49-1.19,7.54-1.2.24-.04,5.47.63,5.51.81.46.16.92.31,1.43.27.26-.02.53.07.8.12.04,0,.08.02.12.02.57.03,1.14.05,1.7.1.35.03.69.12,1.04.15.43.03.87.04,1.3.04.39,0,.79-.03,1.18-.04.1,0,.2.05.3.05.52-.02,1.04-.05,1.55-.1.23-.02.46-.11.69-.16.25-.06.51-.11.76-.16,1.03-.2,1.96-.66,2.84-1.19.69-.41,1.27-1,1.86-1.56.73-.69,1.42-1.43,2.12-2.15.15-.16.26-.36.41-.52.11-.12.25-.2.37-.3.02.02.05.03.07.05-.03.11-.04.23-.1.32-.49.74-.96,1.51-1.52,2.2-.3.38-.56.81-.98,1.1-.43.29-.82.62-1.23.94-.5.39-.99.77-1.48,1.16-.04.03-.08.08-.09.16.3-.13.6-.24.88-.4,1.15-.63,2.15-1.45,3-2.43.54-.62,1-1.29,1.51-1.93.58-.73,1.01-1.55,1.47-2.35.21-.36.46-.69.66-1.05.33-.59.64-1.2.96-1.8.18-.33.37-.65.53-.99.34-.75.67-1.51,1-2.26.24-.55.45-1.11.68-1.66.17-.39.36-.77.52-1.16.33-.81.64-1.63.96-2.44.03-.07.09-.13.12-.21.02-.06,0-.13.03-.19.03-.14.06-.28.12-.4.17-.37.31-.76.53-1.11.26-.42.27-.94.61-1.34.14-.16.15-.42.24-.63.17-.4.35-.79.53-1.19.2-.43.4-.85.59-1.28.14-.3.25-.62.39-.92.05-.11.15-.2.23-.3.06-.24.1-.5.2-.75.25-.64.5-1.28.79-1.89.34-.71.73-1.41,1.1-2.11.16-.3.33-.6.51-.89.09-.15.25-.25.33-.4.2-.33.36-.69.55-1.03.14-.24.33-.44.45-.68.24-.46.42-.95.68-1.4.68-1.16,1.15-2.42,1.69-3.65.41-.96.88-1.9,1.33-2.84.28-.58.58-1.14.86-1.71.17-.35.41-.69.48-1.06.08-.39.34-.61.54-.91.24-.36.41-.77.61-1.16.11-.21.21-.41.32-.62.06-.11.14-.21.19-.31.03-.06.06-.15.03-.19-.03-.04-.12-.05-.21-.07.01-.05.03-.12.05-.19-.07-.01-.15-.02-.24-.04-.33.51-.64,1.02-.99,1.52-.32.46-.67.9-1,1.36-.22.31-.44.62-.65.94-.1.15-.18.3-.26.46-.17.36-.34.72-.49,1.08-.06.14-.07.31-.11.46,0,.04-.01.08-.03.11-.56.89-1.12,1.77-1.67,2.66-.01.02-.02.05-.04.06-.49.53-.71,1.21-1.03,1.83-.11.21-.13.46-.22.68-.11.26-.26.49-.37.75-.42.97-.82,1.94-1.26,2.9-.39.85-.8,1.7-1.23,2.53-.15.3-.43.53-.47.9,0,.02-.02.05-.03.06-.56.38-.58,1.03-.82,1.57-.23.53-.4,1.11-.73,1.58-.32.46-.56.94-.73,1.45-.19.58-.6,1.01-.86,1.54-.19.38-.31.8-.46,1.2-.03.07-.02.15-.06.21-.26.37-.32.82-.49,1.22-.29.67-.57,1.35-.85,2.02-.04.11-.07.22-.15.31-.02.08-.03.17-.05.25-.02.07-.05.14-.08.2-.19.49-.39.98-.58,1.48-.19.5-.36,1.02-.56,1.52-.18.45-.4.88-.59,1.32-.25.59-.49,1.19-.74,1.79-.08.2-.19.38-.27.58-.08.18-.13.36-.19.52-.11.1-.24.19-.31.32-.24.4-.44.82-.69,1.22-.22.35-.47.68-.71,1.02-.02.03-.05.05-.06.08-.12.5-.43.87-.76,1.25-.49.58-.93,1.2-1.38,1.81-.6.8-1.35,1.45-2.09,2.12-.12.1-.22.22-.34.32-.32.28-.6.67-.98.8-.5.16-.89.59-1.44.6-.07,0-.16.05-.22.1-.27.24-.6.31-.94.39-.16.04-.3.12-.46.17-.14.04-.28.05-.43.07-.19.03-.37.06-.56.07-.4.03-.79.07-1.19.08-.49.01-.98.02-1.47,0-.91-.02-1.82-.02-2.72-.1-.88-.08-1.76-.25-2.64-.38-.36-.05-.72-.07-1.07-.13-.21-.03-.4-.13-.61-.17-.37-.08-.74-.14-1.11-.27.27-.04.55-.09.82-.11.35-.03.71,0,1.07-.05.33-.04.65-.14.97-.2.11-.02.22-.04.34-.05.17,0,.31-.05.47-.15.18-.11.43-.11.65-.15.49-.09,1.01-.05,1.49-.27.02-.01.05-.02.07-.02.41-.07.82-.12,1.22-.23.44-.12.92-.14,1.32-.42.08-.06.19-.1.29-.12.77-.14,1.39-.61,2.11-.88.18-.07.32-.21.53-.35-.14-.05-.19-.06-.27-.09,1.02-.78,1.81-1.78,2.97-2.34-.03.07-.07.15-.12.28.11-.07.18-.11.26-.16.22-.13.45-.26.66-.41.09-.06.15-.18.21-.27.12-.18.24-.36.35-.54.28-.44.57-.87.85-1.32.42-.68.84-1.36,1.26-2.04.17-.27.33-.82.32-1.16-.07.16-.13.3-.19.45-.03-.01-.07-.03-.1-.04.07-.22.14-.45.22-.67.08-.2.19-.4.26-.6.03-.1,0-.22,0-.28.09-.15.19-.28.24-.42.19-.48.39-.96.55-1.44.2-.58.34-1.18.54-1.76.35-1,.72-2,1.11-2.98.2-.5.49-.96.75-1.43.14-.26.32-.51.44-.78.13-.29.21-.59.32-.89.27-.73.56-1.45.82-2.19.12-.33.17-.68.25-1.01.13-.54.34-1.03.66-1.49.43-.62.82-1.27,1.24-1.9.18-.26.39-.51.61-.74.56-.61.89-1.34,1.21-2.08.6-1.42,1.44-2.69,2.48-3.84.19-.21.3-.49.46-.72.17-.25.37-.48.55-.72.1-.14.19-.3.28-.45.36-.6.7-1.22.97-1.87.12-.29.36-.55.55-.81.59-.8,1.17-1.6,1.8-2.37.54-.68,1.13-1.32,1.72-1.96.33-.35.69-.67,1.06-.99.23-.2.53-.3.71-.57.09-.13.31-.17.47-.24.21-.09.42-.18.63-.27.51-.22,1.01-.45,1.52-.67.06-.03.12-.05.16-.1.14-.2.25-.1.41,0,.27.18.45.44.64.69.21.27.43.53.64.8.34.42.57.93,1.04,1.24.07.05.1.16.16.23.31.3.64.57.93.88.52.55,1.02,1.13,1.54,1.69.19.21.39.42.58.63.25.26.51.52.75.78.1.11.16.26.25.39.2.28.43.55.62.84.1.14.15.31.25.52.44.12.64.57.91.95.23.33.44.68.57,1.06.27.79.5,1.6.7,2.41.14.56.22,1.14.26,1.72.04.52,0,1.05-.05,1.57-.02.26-.11.53-.23.76-.11.21-.29.38-.46.56-.64.64-1.27,1.27-1.92,1.89-.18.17-.4.29-.57.46-.23.22-.44.48-.66.71-.04.04-.08.09-.13.11-.66.32-1.23.77-1.8,1.23-.14.11-.22.29-.36.4-.31.24-.66.44-.97.68-.45.35-.87.73-1.3,1.11-.38.34-.75.69-1.12,1.03-1.02.95-2.06,1.88-3.06,2.85-.55.53-1.02,1.13-1.53,1.7ZM68.45,38.87c-.14-.33-.01-.63.04-.94.12-.66.21-1.32.31-1.98,0-.04.01-.07.02-.11.06,1.04-.1,2.04-.37,3.04ZM68.89,31.64c-.16.35-.27.69-.22,1.08.04.3.08.61.1.91.01.18-.05.38,0,.54.13.41.01.75-.15,1.11-.06.13-.04.29-.07.43-.13.68-.27,1.36-.38,2.04-.13.83-.23,1.67-.34,2.5-.05.4-.08.8-.11,1.2,0,.1.03.21.02.32,0,.13-.03.26-.05.39-.02.1-.06.19-.07.29-.11.89-.25,1.78-.31,2.67-.06.94-.05,1.88-.07,2.82-.01.69-.02,1.38-.04,2.07-.01.49-.03.98-.05,1.47-.03,0-.06,0-.09,0v-.36h-.04c-.09.98-.17,1.96-.26,2.95-.4.22-.11.58-.16.92-.13.02-.28.04-.44.07v-.36s-.05,0-.07-.01c.09-.2.17-.4.26-.59-.05.01-.12.03-.21.05-.02-.09-.03-.17-.05-.25-.04-.18.01-.28.18-.38.1-.06.18-.21.19-.32.03-.31.03-.63.04-.95,0-.25.03-.5.03-.75,0-.07-.07-.14-.08-.21-.03-.17-.06-.35-.06-.52,0-.37,0-.73,0-1.1,0-.51.02-1.03.04-1.54.02-.66.04-1.32.04-1.98,0-.94-.01-1.88-.01-2.81,0-.37.04-.73.05-1.1.04-1.1.09-2.2.13-3.3.02-.56.01-1.13.04-1.69.02-.31.11-.62.12-.93.02-.46,0-.93-.01-1.39,0-.12,0-.24,0-.38.04.01.07.03.18.06-.03-.46-.04-.89-.09-1.31-.01-.12-.15-.22-.27-.31.09-.36-.08-.71-.16-1.08-.01-.07,0-.14,0-.21.08,0,.16,0,.23.03.29.15.54.34.71.65.12.23.33.23.49.02.36-.5.69-1.01,1.04-1.52.04-.06.09-.12.14-.18.03.01.06.02.09.03-.08.31-.12.64-.25.92ZM73.19,21.82c-.57.91-.89,1.93-1.36,2.89-.35.72-.81,1.3-1.37,1.8-.17.24-.35.48-.52.72-.19.27-.34.56-.53.83-.23.33-.54.62-.73.97-.24.44-.64,1.64-.97,2-.1.11-.41-.44-.53-.5-.15-.09-.46-.22-.62-.3-.1-.05-.47-.7-.67-.7-.76.08-2.96.39-3.08.48-.2.16-.34.4-.63.43-.03,0-.06,0-.05,0,.16-.18.82-1.33.98-1.47.27-.25,1.39-1.04,1.64-1.29.43-.42.91-.78,1.3-1.23.31-.36.71-.56,1.08-.78.61-.37,1.09-.89,1.64-1.31.47-.36.92-.75,1.38-1.13.62-.74,4.08-3.49,4.64-4.3.36-.53-1.27,2.33-1.61,2.88Z"/>
      <path class="cls-1" d="M63.67,1.55c-.43.33-.89.64-1.29,1.01-.44.43-.84.9-1.23,1.38-.41.52-.78,1.07-1.18,1.6-.28.37-.59.72-.86,1.1-.14.21-.17.48-.3.7-.21.36-.46.7-.7,1.05-.27.41-.54.82-.81,1.24.23-.16.45-.32.62-.52.27-.31.49-.66.75-.98.35-.44.7-.88,1.07-1.3.38-.43.78-.83,1.18-1.25-.08,0-.12.04-.18.06-.04.01-.08,0-.13,0,0-.04,0-.1.03-.12.24-.19.38-.47.61-.69.62-.57,1.15-1.23,1.72-1.85.25-.27.5-.55.72-.84.19-.26.35-.54.52-.81-.03-.03-.06-.06-.08-.09-.16.11-.32.21-.48.33Z"/>
      <path class="cls-1" d="M61.08,3.86s-.04-.03-.07-.04c-.39.53-.78,1.05-1.17,1.58.03.02.05.04.08.06.39-.53.77-1.06,1.16-1.59Z"/>
      <path class="cls-1" d="M61.04,5.42l.2-.22c-.08.06-.16.12-.23.17.01.01.03.03.04.04Z"/>
      <path class="cls-1" d="M61.23,5.2c.11-.08.22-.16.33-.25-.02-.02-.04-.04-.06-.05-.09.1-.18.2-.27.3Z"/>
    </g>
  </g>
</svg>