<?xml version="1.0" encoding="UTF-8"?>
<svg id="Layer_2" data-name="Layer 2" xmlns="http://www.w3.org/2000/svg" viewBox="0 0 58.13 62.78">
  <defs>
    <style>
      .cls-1 {
        fill: #000;
        stroke-width: 0px;
      }
    </style>
  </defs>
  <g id="illustrations">
    <g>
      <path class="cls-1" d="M58.02,43.25c-.07-.08-.2-.12-.26-.21-.12-.17-.22-.35-.31-.53-.2-.44-.37-.9-.57-1.34-.27-.59-.57-1.18-.85-1.77-.13-.26-.25-.51-.39-.76-.18-.32-.38-.64-.57-.96.13-.11.23-.19.34-.28-.05-.05-.08-.1-.13-.14-.18-.15-.38-.29-.55-.46-.37-.36-.73-.74-1.09-1.11-.2-.2-.4-.41-.59-.62-.11-.12-.21-.24-.32-.35-.04-.04-.09-.07-.11-.12-.1-.3-.37-.4-.66-.58.56-.22,1.08-.44,1.6-.65.02.02.03.04.05.06l-.2.34c.1-.04.2-.13.28-.11.22.06.31-.08.43-.2.09-.09.18-.19.26-.29.07-.09.13-.18.17-.28.08-.21.14-.42.21-.63.08-.27.16-.53.21-.81.05-.3.04-.61.09-.91.07-.48.17-.96.23-1.45.05-.41.07-.83.1-1.24.02-.25.05-.49.07-.74.05-.48.09-.96.15-1.44.05-.44.13-.88.2-1.32.07-.45.13-.91.19-1.36.03-.23.05-.46.06-.69.01-.34.01-.68,0-1.01,0-.26-.03-.52-.04-.78,0-.13,0-.28-.05-.39-.12-.27-.27-.53-.41-.8-.02-.04-.04-.09-.05-.13-.07-.18-.11-.39-.22-.54-.12-.17-.32-.27-.46-.44-.09-.11-.12-.08-.2,0-.04.04-.13.06-.19.07-.05.01-.1,0-.16,0-.29.01-.55.2-.84.16,0,0-.01,0-.02,0-.2.11-.36.03-.53-.09-.24-.16-.49-.32-.8-.23-.03.24-.1.27-.3.14-.09-.06-.21-.07-.32-.1-.04-.01-.09-.02-.14-.03-.16-.06-.31-.14-.47-.18-.27-.06-.43.1-.39.33-.15-.05-.31-.1-.48-.14-.19-.05-.43.07-.57-.16.43-.87,1.11-1.57,1.67-2.36.3-.42.66-.81.95-1.23.25-.36.44-.75.65-1.13.14-.26.28-.52.39-.79.07-.18.1-.38.14-.58.06-.3.13-.6.08-.91-.02-.13,0-.27-.07-.37-.08-.15-.22-.28-.33-.41-.1-.12-.25-.21-.3-.34-.07-.18-.17-.32-.35-.38-.15-.06-.22-.14-.19-.31,0-.03-.05-.11-.08-.12-.09-.01-.19,0-.29,0-.05,0-.11.02-.14,0-.14-.1-.29-.21-.41-.33-.27-.26-.54-.51-.79-.78-.5-.53-.99-1.07-1.48-1.62-.07-.08-.16-.19-.15-.28.03-.18-.09-.24-.2-.32-.31-.25-.65-.48-.93-.76-.28-.28-.52-.62-.77-.93-.68-.83-1.5-1.52-2.14-2.38-.26-.35-.59-.64-.88-.97-.15-.17-.3-.34-.31-.58-.11-.04-.23-.08-.34-.09-.01,0-.08,0-.09,0-.05,0-.09,0-.14,0-.05,0-.09,0-.14.02-.01,0-.02,0-.03,0,0,0,0,0-.01,0-.18.04-.35.1-.51.17-.03.01-.07.04-.11.05-.14.14-.31.24-.5.29-.11.07-.22.15-.32.22-.07.05-.14.11-.21.16.14,0,.27,0,.41,0-.14.13-.29.2-.44.29-.41.25-.85.46-1.23.75-.45.35-.86.75-1.28,1.14-.05.04-.08.1-.12.14-.22.29-.43.59-.66.88-.4.5-.82.99-1.23,1.48-.48.58-.95,1.17-1.28,1.86-.09.19-.22.37-.3.57-.14.35-.26.7-.39,1.05,0,0-.06-.03-.08-.01-.14.14-.27.29-.4.44-.05.05-.1.09-.19.16,0,.02-.04.1-.07.17-.12.23-.27.45-.37.69-.21.5-.52.94-.81,1.4-.27.42-.5.88-.77,1.31-.2.33-.43.65-.64.97-.03.05-.04.11-.07.17-.12.28-.15.62-.45.8-.03.02-.04.08-.06.12-.16.51-.26,1.04-.63,1.46-.02.02-.03.06-.03.1-.07.31-.14.61-.22.92-.01.06-.03.13-.07.17-.25.28-.32.63-.37.99-.03.21-.04.42-.32.47.13.21.14.35-.14.35-.04,0-.09.05-.13.09.06.04.11.07.16.1-.03.27-.24.19-.39.23-.07-.19-.07-.18-.22-.07-.04.03-.15.03-.19,0-.24-.2-.52-.26-.81-.21-.1.02-.2.04-.28.03-.19.05-.37.09-.56.12-.4.07-.86.12-1.24-.09-.04-.02-.07-.05-.11-.08.09.19.06.29-.1.36-.29-.39-.57-.77-.85-1.16-.05-.07-.13-.17-.11-.23.07-.22-.11-.24-.23-.32-.09-.07-.22-.1-.29-.19-.18-.21-.34-.43-.51-.65-.14-.17-.26-.35-.46-.46-.09-.05-.11-.2-.18-.33-.08-.06-.18-.15-.29-.24-.04-.03-.06-.08-.1-.09-.35-.15-.47-.57-.83-.71-.07-.03-.06-.18-.2-.16-.02,0-.05-.03-.05-.05-.04-.24-.24-.27-.43-.31-.06-.01-.14-.08-.15-.13-.01-.15-.1-.19-.22-.23-.15-.05-.3-.1-.44-.18-.2-.12-.37-.27-.57-.39-.6-.34-1.19-.69-1.81-1.01-.53-.27-1.08-.49-1.63-.72-.28-.12-.58-.21-.86-.32-.36-.14-.71-.29-1.07-.43-.47-.18-.96-.35-1.43-.55-.35-.14-.67-.33-1.01-.49-.43-.2-.86-.39-1.28-.59-.15-.07-.29-.15-.42-.21-.06.06-.1.14-.14.14-.18.01-.37.02-.56,0-.58-.07-1.15-.15-1.73-.21-.06,0-.16.01-.17.05-.08.15-.2.06-.22.01-.09-.18-.23-.11-.36-.12-.05,0-.09,0-.14,0-.21.02-.42.01-.62.05-.21.04-.41.11-.61.17-.04.01-.08.06-.11.1-.11.17-.18.34-.22.55-.05.34-.22.66-.66.75.11.06.18.1.23.13-.07.16-.14.29-.2.43-.16.37-.32.74-.49,1.11-.09.2-.2.4-.3.6.02.05.03.09.04.14,0,.13-.04.24-.12.33-.04.05-.08.1-.11.15-.13.19-.25.39-.37.58,0,.06-.02.13-.08.23-.15.28-.27.58-.4.87-.09.19-.15.41-.28.56-.21.24-.32.54-.48.81-.09.16-.14.34-.24.49-.05.08-.06.19-.12.27-.02.05-.04.1-.05.15-.01.06-.04.14-.06.18-.12.33-.24.67-.35,1,0,.11-.01.17-.07.21-.24.7-.46,1.4-.61,2.12.01.11.03.22.07.32.25.57.62,1.05,1.08,1.47.68.61,1.42,1.12,2.3,1.39.28.09.55.21.83.33-.04.04-.09.07-.12.11-.17.22-.26.5-.56.64-.23.1-.39.34-.61.48-.58.38-1.16.75-1.66,1.24-.18.17-.1.42-.3.55-.01.4-.16.74-.41,1.03-.07.13-.15.25-.22.38-.05.09-.1.18-.14.28-.02.04-.04.09-.06.14,0,0,0,0,0,.01,0,.01,0,.03,0,.04-.01.05-.03.1-.04.15,0,.02,0,.04-.01.06,0,0,0,.02,0,.03.01,0,.02,0,.04,0,.04,0,.12.03.13.07.12.27.2.57.34.82.34.61.71,1.19,1.05,1.8.13.24.37.43.38.74.02.54.27.99.51,1.45.1.2.23.39.34.58.09.17.27.34.25.5-.02.25.09.45.14.67.05.22.09.45.14.7.04-.07.08-.13.12-.2.57.96,1.01,1.98,1.9,2.74,0,0,.01,0,.02-.01,0,.01.01.03.02.05.02.02.04.04.06.05-.02,0-.03,0-.04-.01.08.2.14.4.27.56.1.12.34.21.49.18.1-.02.13.06.2.05,0,.22.18.11.25.1.31-.05.62-.12.94-.19,0,0-.01-.04-.02-.09.09.03.16.06.26.1-.04-.08-.06-.13-.09-.19.18.03.33.05.36-.16,0-.03.07-.06.11-.09.44-.23.89-.46,1.33-.7.05-.03.09-.08.12-.13.11-.15.4-.26.56-.2,0,0,.02,0,.03,0-.01-.03-.03-.07-.04-.11.23.03.34-.02.45-.18.03-.04.07-.06.11-.09.09-.06.18-.12.28-.19.05.1.09.18-.07.21-.07.01-.19.07-.19.1,0,.15-.1.16-.19.2-.05.02-.08.09-.12.13,0,0,.02.02.03.03.14-.07.29-.14.43-.21,0,.02.02.04.03.06-1.73,2.54-3.85,4.79-5.64,7.29.04-.05.09-.09.13-.14-.18.39-.39.77-.59,1.14,0,.02-.03.02-.05.04-.06.06-.13.12-.16.19-.18.43-.38.85-.73,1.17-.1.09-.19.19-.25.3-.27.55-.7.97-1.1,1.41-.14.16-.31.3-.47.45-.04-.04-.06-.07-.09-.1-.16.2-.39.21-.6.23-.13.01-.19.07-.21.17-.02.11,0,.22-.03.32-.03.13-.08.26-.12.4.67.05,1.34,0,2-.06.04-.02.08-.03.13-.01.04,0,.08,0,.12-.01.08-.07.15-.14.23-.2.04-.02.11.01.17.02.08,0,.16.02.24,0,.05,0,.09-.06.12-.09.07.06.14.11.21.17.73-.06,1.45-.03,2.18.02.06-.07.15-.1.27-.06.06-.17.49-.19.72-.06.11-.02.18-.04.25-.03.14,0,.29,0,.43.03.2.04.39.09.59.14.06.02.11.07.18.09.24.08.39.25.5.48.12.24.27.46.4.7.03.04.04.1.05.15.03.25.06.5.07.74,0,.16,0,.32,0,.48-.02.06.03.12.05.19.08.23.13.47.22.7.29.82.61,1.64.88,2.47.13.41.24.85.25,1.28.01.29-.02.53.27.62-.11.14.04.19.11.25-.06,0-.1.02-.16.03.06.05.1.09.14.13-.03.01-.05.02-.06.03-.01.01-.03.04-.03.05.05.2,0,.37-.13.54-.04.05-.04.13-.04.2,0,.4.14.75.38,1.06.09.11.29.13.36.05.1-.1.21-.19.32-.28.11-.09.25-.17.35-.27.1-.11.14-.32.26-.38.29-.15.13-.32.08-.49-.01-.05-.04-.1-.05-.12.07-.07.15-.11.18-.17.03-.07.03-.16.04-.27.06.07.09.12.14.17.11-.06.21-.13.31-.18-.05-.07-.09-.11-.12-.16.05-.04.1-.07.16-.11-.04-.03-.08-.05-.11-.08.09-.05.16-.1.25-.15,0,0,.03.03.04.04.03-.08.03-.17.08-.23.14-.18.41-.25.45-.53,0-.02.05-.06.08-.06.24-.05.32-.28.47-.43.11-.12.19-.27.31-.36.13-.1.2-.19.17-.36,0-.04.03-.09.07-.13.14-.14.3-.27.44-.41.12-.12.21-.26.32-.39.13-.16.21-.39.38-.48.39-.22.47-.71.92-.9-.21-.13-.13-.2-.04-.3.08-.09.13-.21.2-.31.02-.04.05-.08.08-.11.2-.2.42-.39.58-.61.41-.55.81-1.11,1.17-1.7.47-.76.91-1.53,1.33-2.32.33-.61.6-1.25.9-1.88.1-.21.18-.42.28-.62.11-.23.22-.47.36-.67.11-.16.04-.37.22-.51.08-.06.1-.2.15-.3.04-.07.08-.14.1-.21.04-.12-.05-.26.11-.36.15-.09.27-.23.26-.44,0-.03.04-.07.06-.1.05-.12.1-.24.13-.36.02-.08.01-.16.01-.24,0-.37.31-.66.25-1.04,0-.02.02-.04.03-.05.06-.18.11-.37.17-.55.04-.13.07-.26.12-.38.09-.25.18-.5.28-.74.04-.1.08-.2.14-.32-.1-.17-.05-.54.12-.72-.13-.16.09-.38-.11-.53,0,0,0-.03,0-.04.06-.1.11-.22.18-.31.13-.15.13-.34.13-.5,0-.23.07-.4.17-.56-.02-.12-.06-.23-.05-.34.07-.44.16-.87.25-1.31.09-.43.17-.86.27-1.28.05-.25.21-.51.17-.73-.05-.27.1-.48.08-.73-.01-.19.09-.39.12-.59.07-.58.13-1.15.19-1.73,0-.05,0-.1-.02-.14-.04-.18-.09-.35-.12-.53-.03-.21-.05-.43-.06-.65,0-.05,0-.14.03-.15.17-.07.14-.21.13-.33-.02-.43-.04-.85-.08-1.28-.02-.2-.07-.39-.1-.59,0-.03,0-.06-.01-.09-.07-.23-.14-.47-.16-.71,0-.13,0-.25.01-.38,0,0,0-.01,0-.02,0-.25.05-.48.14-.71.03-.09.13-.16.21-.2.09-.04.19-.06.29-.04.09.02.18.03.27.04.34.02.69-.02,1.03-.03.17,0,.32.08.4.22.01-.02.02-.04.03-.05.11-.15.35-.21.43-.1.17.24.35.48.49.74.16.3.29.63.43.94.14.3.29.61.43.91.2.42.36.87.58,1.27.59,1.06,1.35,1.98,2.24,2.81.78.73,1.59,1.42,2.43,2.07.75.58,1.51,1.14,2.27,1.72.58.45,1.16.9,1.74,1.36.48.39.97.77,1.43,1.18.38.33.76.67,1.12,1.03.54.56,1.07,1.14,1.59,1.73.28.32.53.67.78,1,.1.13.34.16.3.4,0,0,.03.02.05.04.33.44.68.86.98,1.32.51.77.98,1.56,1.48,2.33.2.31.44.59.65.9.18.25.31.54.51.77.47.54.97,1.05,1.47,1.56.02.03.07.03.1.05.02-.07.04-.13.06-.19.02,0,.05.01.07.02-.03.09-.06.18-.09.27.02.01.06.02.07.04.26.42.64.71,1.02,1.01.49.39.75.93.95,1.5.07.2.12.41.18.61.02-.02.05-.05.07-.07.04.02.11.03.12.05.02.08.02.17.03.25.01.12.03.24.04.36,0,.05.03.09.02.14-.05.4-.05.79.12,1.18.08.19.08.42.13.62.05.24.1.49.17.73.07.27.16.54.26.8.01.04.11.05.17.08-.04-.21.13-.24.25-.33.04-.03.04-.13.04-.2,0-.03-.02-.07-.02-.1.05-.29.1-.58.15-.87.03-.22.05-.45.07-.67.03-.44.05-.89.1-1.33.04-.33.04-.64-.14-.93-.13-.21-.2-.45-.04-.66.1-.12.19-.21.14-.38-.02-.08.08-.2.05-.27-.09-.18.04-.29.1-.44-.04-.04-.08-.08-.14-.15.22-.05.03-.12.01-.19.06-.04.1-.07.15-.11-.05-.08-.15-.16-.13-.21.07-.27-.12-.58.1-.83.02-.02.02-.06.03-.1.03-.32.11-.64.08-.95-.03-.33.16-.57.22-.86.06-.26.24-.5.36-.73-.02-.1-.08-.26-.04-.31.2-.18.2-.45.35-.64.06-.08.15-.14.11-.27,0-.02.05-.06.09-.1.08-.08.16-.16.23-.24.11-.13.21-.36.34-.39.18-.04.22-.15.31-.25.08-.1.18-.19.29-.26.29-.18.58-.36.89-.51.22-.11.46-.16.71-.25,0,0,0-.04,0-.08-.06-.16-.2-.32.06-.44.02,0,.03-.05.02-.07-.01-.13-.03-.26-.04-.4.05,0,.1,0,.15.01,0-.06,0-.12-.01-.17.26-.1.29-.2.12-.39ZM54.08,31.72c-.07.17-.13.27-.33.3-.1.01-.22.14-.25.25-.05.14-.14.18-.25.23-.48.22-.95.44-1.42.66-.03.01-.06.03-.09.03-.55-.04-1.1.03-1.67.06.01.04.02.06.03.08.02.07.08.17.06.2-.04.06-.14.1-.22.11-.39,0-.78.02-1.17-.01-.42-.04-.83-.14-1.25-.22-.02,0-.04-.03-.05-.03-.62.15-1.2-.09-1.8-.14-.02.05-.04.1-.07.15-.08-.05-.16-.1-.25-.15-.38-.03-.79-.06-1.2-.11-.8-.11-1.61-.2-2.41-.35-.62-.11-1.24-.26-1.84-.46-.88-.29-1.75-.64-2.61-.99-.24-.1-.44-.28-.67-.41-.16-.09-.34-.15-.49-.25-.29-.2-.57-.43-.85-.65-.45-.36-.9-.72-1.33-1.1-.31-.28-.58-.61-.87-.91-.13-.13-.28-.25-.42-.38.08-.09.31-.11.43-.02.05.04.11.09.17.09.3.01.54.13.76.32.08.07.24.11.34.08.23-.07.43.05.63.08.46.06.92.17,1.37.25.05,0,.11-.01.17-.02.03,0,.08-.03.09-.02.13.14.28.09.44.07.03,0,.06,0,.08.02.32.27.73.24,1.1.31.31.06.63.13.94.21.61.16,1.22.34,1.83.5.34.09.68.18,1.03.25.2.04.42.03.63.08.1.02.2.11.29.17.05.03.09.1.14.11.1.03.24-.05.29.11,0,0,.04,0,.06,0,.15-.05.32-.07.43-.16.15-.13.29-.11.44-.09.44.06.88.14,1.32.18.21.02.42-.06.63-.06.29,0,.58.05.87.04.55-.03,1.1-.02,1.66-.15.31-.07.66.03.99.05.2,0,.41-.04.61-.02.37.04.74.11,1.11.17.26.04.53.05.78.13.25.08.5.19.71.35.36.26.68.56,1.02.84.08.07.09.13.04.25ZM49.83,18.98c.27-.01.55.04.82.06.42.03.84.12,1.25.09.37-.02.69.07,1.03.14.14.03.29,0,.44.02.09,0,.17.05.26.06.39.04.78.07,1.16.11.2.02.4.25.44.58.06.42.14.84.1,1.25-.04.37.02.73,0,1.09,0,.06-.03.12-.05.18-.04.19-.07.38-.1.57,0,.04.03.09.06.15-.03.06-.09.13-.1.2-.02.16,0,.33-.02.49-.01.1-.07.19-.1.29-.02.06-.02.12-.01.18-.09.14-.19.25-.17.47.02.21-.08.44-.12.64.08-.02.16-.04.24-.06.01.02.02.03.03.05-.02.05-.04.14-.07.15-.17.03-.14.17-.2.26-.12.2.02.23.15.34-.08.04-.14.08-.22.13.05.06.1.11.15.17-.17.21-.18.3-.02.53-.07.13-.24.26-.07.44-.15.18.01.36,0,.55,0,.16,0,.32,0,.48,0,.02,0,.04,0,.06-.03.2-.07.4-.08.6,0,.11.05.22.08.3-.05.26-.1.5-.16.74-.02.07-.06.14-.09.21-.02,0-.04-.02-.06-.02-.01-.06-.02-.12-.04-.21-.08.04-.14.08-.25.14.03-.11.05-.19.07-.27,0,0-.01-.02-.02-.03-.49-.19-.97-.39-1.47-.55-.33-.11-.69-.14-1.04-.21-.25-.05-.51-.15-.76-.13-.41.03-.68-.32-1.06-.34-.38-.02-.75,0-1.13,0-.25,0-.49.08-.75,0-.16-.04-.36.06-.54.07-.36.03-.72.04-1.07.06-.06,0-.13,0-.18.03-.14.06-.24.01-.3-.14-.11.04-.21.08-.31.1-.08.01-.17-.01-.25-.03-.09-.02-.18-.06-.27-.06-.34.01-.68.03-1.02.07-.21.03-.39-.05-.58-.07-.09,0-.19.03-.28.03-.09,0-.19-.05-.28-.08-.09-.04-.17-.11-.26-.13-.48-.12-.96-.22-1.43-.35-.09-.02-.16-.15-.26-.25-.13.03-.3.03-.43-.16-.05-.08-.19-.11-.29-.15-.21-.06-.42-.11-.62-.17-.71-.21-1.41-.43-2.08-.75-.2-.1-.39-.22-.59-.32-.28-.14-.57-.26-.85-.4-.1-.05-.19-.11-.29-.16-.49-.25-.98-.5-1.47-.75-.08-.04-.16-.1-.24-.16-.09-.06-.19-.17-.28-.16-.27.02-.31-.16-.36-.35-.02-.08-.06-.15-.1-.27.37-.13.74-.24,1.09-.39.29-.13.62,0,.9-.18.27-.17.58-.28.87-.41.47-.21.95-.4,1.41-.63.65-.31,1.28-.64,1.92-.96.59-.29,1.19-.56,1.79-.84.32-.15.64-.3.97-.42.17-.06.35-.08.53-.11.04,0,.08,0,.11-.02.44-.18.88-.39,1.33-.55.27-.1.57-.14.85-.21.08-.02.16-.06.25-.08.11-.02.21-.03.32-.04.03,0,.07,0,.08,0,.24-.28.56-.1.85-.15.45-.09.91-.11,1.37-.16.24-.03.49-.04.73-.08.15-.03.33,0,.44-.03.22-.08.44-.07.66-.08ZM48.11,18.15c.32-.14.53-.13.64.03-.21.11-.41.04-.64-.03ZM51.7,10.19c.47.15.95.4,1.1.9.14.44-.01.9-.18,1.31-.51,1.22-1.36,2.2-2.22,3.19,0,0,0,0-.01.01-.1.17-.2.34-.3.51-.29.49-.58,1.06-1.04,1.42-.32.25-.69.34-1.06.4-.14.09-.3.16-.46.24,0,0-.04-.06-.08-.11-.09.09-.19.17-.28.26-.14.14-.24.07-.32-.06-.18.21-.31.24-.56.13-.1-.04-.19-.06-.27.07-.03.05-.14.08-.21.09-.25.04-.5.07-.74.09-.18.02-.35,0-.53.04-.27.05-.55.11-.82.17-.05.01-.08.1-.13.16-.13,0-.29-.02-.45-.03.21-.17.4-.33.62-.5-.06-.05-.1-.09-.12-.11.08-.13.15-.25.22-.37-.01-.02-.03-.03-.04-.05.11.01.23.02.38.03-.1.12-.19.22-.27.33,0,0,.02.01.03.02.09-.07.18-.15.27-.22-.03-.1-.02-.2.06-.32.5-.78,1.07-1.51,1.58-2.28.44-.68.89-1.36,1.48-1.92.64-.61,1.32-1.2,2-1.78.61-.52,1.32-.92,1.83-1.55.16-.2.39-.19.55-.07ZM9.71,10.86c-.16-.06-.32-.12-.52-.19.26-.08.4.03.52.19ZM1.54,20c.13-.21.28-.4.44-.59.02-.03.09-.02.14-.02-.06-.07-.07-.13-.05-.19,0-.05,0-.11,0-.15.04-.17.1-.33.18-.48,0-.01.01-.03.02-.04-.02,0-.04-.01-.06-.02.04-.1.08-.23.14-.36.06-.13.12-.26.19-.37.1-.16.23-.31.32-.47.03-.05.01-.13.01-.19.05-.06.12-.11.15-.18.11-.22.29-.4.32-.68.04-.27.23-.53.37-.79.03-.06.14-.08.18-.1.05-.36.19-.66.35-.94-.01-.06-.01-.13,0-.18.06-.29.13-.57.26-.84.05-.11.15-.18.26-.22.01,0,.02,0,.04,0,.03-.11.06-.21.11-.31.12-.22.11-.49.31-.69.07-.07.05-.23.07-.35.03-.15.09-.26.26-.33.15-.05.26-.18.4-.27.16-.1.32-.21.49-.27.1-.04.24,0,.36.02.65.07,1.3.13,1.94.22.78.11,1.51.41,2.24.69.52.2,1.06.37,1.58.57.23.08.45.2.67.29.45.18.91.34,1.36.51.3.12.6.26.9.38.43.18.87.34,1.29.54.28.14.53.34.81.49.33.19.67.36,1.01.54.17.1.33.22.5.31.18.09.37.16.57.24-.03,0-.07.01-.1.02.26.19.52.38.78.58.22.17.45.34.66.52.08.07.09.22.17.26.51.28.84.76,1.26,1.13.26.23.51.48.77.71.24.22.49.44.73.66-.02,0-.06,0-.11-.02,0,.01-.01.03-.02.04.07.03.15.06.21.1.03.02.03.08.05.12.02.04.03.09.05.13.18.28.37.55.53.83.15.27.3.54.12.87-.03.06-.04.13-.04.2,0,.19.02.38-.26.39-.01,0-.04.19-.03.29.05.28.14.56.18.84.05.32.17.64.07.98-.02.07.06.16.08.25.02.09.02.19.04.28-.02,0-.03,0-.05.01-.02-.07-.04-.14-.06-.2-.11-.31-.4-.48-.71-.42-.55.11-1.09.21-1.64.3-.63.11-1.27.23-1.9.3-.56.06-1.12.07-1.68.1-.08,0-.18-.05-.23-.11-.19-.22-.46-.24-.68-.05-.04.04-.11.06-.16.05-.33-.07-.65-.16-.97-.23-.39-.08-.79-.13-1.18-.21-.23-.05-.46-.14-.69-.21-.17-.05-.35-.1-.52-.16-.41-.14-.83-.28-1.24-.44-.4-.15-.8-.31-1.19-.49-.24-.11-.47-.27-.68-.43-.29-.23-.62-.31-.98-.34-.14-.02-.28-.05-.43-.07-.75-.1-1.51-.2-2.26-.29-.08,0-.18.1-.26.09-.07-.01-.12-.17-.19-.18-.22-.05-.46-.05-.69-.09-.2-.03-.4-.08-.6-.14-.23-.07-.47-.15-.69-.25-.34-.14-.66-.31-1-.43-.61-.22-1.23-.43-1.85-.63-.19-.06-.41-.05-.6-.11-.2-.06-.24-.17-.13-.34ZM16.54,25.38c-.13.15-.58.17-.84.04.29-.16.56-.09.84-.04ZM4.4,24.7s0-.01-.02-.02c-.08-.03-.17-.06-.25-.1-.38-.2-.75-.4-1.12-.61-.53-.31-1.01-.69-1.39-1.18-.12-.15-.24-.3-.34-.47-.06-.11-.09-.24-.11-.37-.03-.2-.03-.41-.04-.61,0-.11.06-.17.17-.13.54.2,1.13.23,1.63.55.13.08.27.18.41.22.34.1.69.15,1.03.26.33.1.65.24.98.36.19.07.39.1.59.16.03,0,.07.02.09.04.18.15.41.15.62.18.51.06,1.02.13,1.52.19.34.04.69.06,1.04.1.13.02.25.1.39.15-.05.02-.09.04-.14.06l1.57.33c.12,0,.23-.02.36.03.41.17.85.28,1.28.43.28.1.54.22.82.32.24.08.49.14.74.21.3.09.6.17.9.26.04.01.07.07.11.1-.04.03-.08.07-.12.09-.18.08-.37.17-.56.23-.13.05-.28.06-.42.1-.33.07-.69.09-.99.23-.22.1-.43.06-.64.1-.26.05-.52.07-.78.11-.27.04-.53.08-.8.1-.11,0-.23-.04-.34-.04-.3.02-.6.06-.9.07-.16,0-.33-.05-.49-.07-.03,0-.06-.02-.08-.01-.28.14-.56.07-.84.01-.07-.02-.14-.03-.21-.05-1.32-.11-2.64-.55-3.71-1.35ZM2.06,28.63c.16-.14.4-.25.46-.42.08-.23.25-.29.41-.41.05-.04.04-.15.06-.25.01,0,.06.02.11.03.05,0,.14.03.15,0,.19-.26.51-.13.74-.24.03-.02.07-.03.17-.06-.12-.04-.19-.07-.26-.09.51-.2,1.02-.33,1.59-.25,0-.2.16-.22.3-.25.03,0,.08.08.12.07.4.01.81.02,1.21.03,0-.01,0-.05,0-.1.26.07.5.13.73.19-.16.11-.32.24-.49.33-.08.05-.19.04-.29.06-.18.05-.41.06-.54.17-.28.22-.6.08-.89.19-.37.14-.77.22-1.13.38-.34.16-.71.15-1.06.26-.22.07-.45.12-.66.17.03.04.06.09.08.13-.04,0-.09.02-.13.02-.18-.02-.35-.04-.5.13-.05.06-.17.05-.31.09.06-.07.09-.12.14-.16ZM9.95,38.94c-.61.32-1.21.67-1.84.97-.5.24-1.04.33-1.59.32-.12,0-.27.02-.37.08-.14.09-.22.02-.27-.07-.1-.15-.18-.31-.24-.48-.08-.23-.16-.46-.34-.65-.07-.08-.05-.24-.08-.35-.02-.09-.03-.18-.08-.25-.1-.15-.26-.27-.33-.43-.47-1.11-.92-2.22-1.36-3.33-.05-.13-.18-.27-.04-.41-.05-.07-.11-.15-.16-.22-.19.05-.41,0-.51-.18-.29-.53-.47-1.1-.59-1.69,0-.03-.01-.06-.02-.1-.02-.05-.05-.09-.07-.14-.15-.32-.28-.66-.42-.99-.16-.37-.22-.57.29-.8.03-.01.06-.02.09-.04.07-.11.19-.19.33-.2.04,0,.08,0,.12.02.29-.1.58-.2.88-.26.44-.09.85-.32,1.28-.48.18-.07.36-.12.54-.18.08-.03.15-.06.22-.09.11-.05.19-.11.33-.11.15,0,.29-.13.44-.19.1-.04.21-.05.33-.09.13-.02.26-.05.4-.07,0-.01,0-.07.02-.09.31-.2.66-.31,1.02-.41.25-.07.49-.15.74-.22.1-.03.21-.02.31-.03.41-.07.83-.15,1.24-.2.29-.03.58-.02.86-.04.06,0,.12-.02.17-.04.25-.11.51-.12.77-.13.47-.14.96-.25,1.45-.33,0-.06-.02-.12-.03-.18.1.01.18.09.26.14.07-.01.14-.02.21-.03-.07-.04-.15-.08-.24-.14.23-.14.39-.04.56.09.08-.01.16-.02.24-.03,0-.02,0-.03,0-.05.2-.02.41-.03.61-.05.06,0,.11-.01.17-.02,1.86-.28,3.71-.68,5.58-.82.2-.01.33.08.4.22.05,0,.11-.01.16-.02.03-.08.08-.15.16-.19.57-.32,1.17-.48,1.8-.59.13-.02.28.05.37.16.01-.03.02-.08.05-.09.07-.02.19-.05.22-.02.1.11.13.1.24-.01.13-.13.33-.19.52-.28.02.31-.52.79-.98.95-.12.3-.29.58-.48.84,0,0,0,0,0,0-.07.18-.16.31-.31.39-.28.35-.58.68-.91.98-.15.14-.34.18-.52.1-.01.01-.03.02-.04.04-.17.15-.33.31-.49.46-.01.01-.02.04-.04.05-.29.07-.36.36-.55.53-.36.33-.7.67-1.05,1-.02.02-.04.04-.05.06-.05.12-.11.23-.27.28-.08.03-.12.17-.19.25-.21.25-.43.49-.63.75-.22.29-.43.59-.64.88-.02.02-.03.05-.05.07-.24.22-.5.42-.73.66-.68.71-1.34,1.45-2.03,2.16-.44.45-.91.88-1.4,1.27-.29.23-.65.39-.97.58-.08.05-.15.12-.2.2-.09.15-.17.12-.24.01-.66.5-1.37.91-2.09,1.3ZM25.46,30.41c.03.85.03,1.7-.01,2.55-.03.54-.16,1.07-.25,1.61-.05.33-.12.66-.17.99-.01.07,0,.15.04.22.05.12.12.22-.01.33-.02.01-.02.07,0,.09.19.27-.02.55,0,.82.02.23-.04.46-.07.69-.09.63-.17,1.27-.3,1.9-.14.72-.33,1.43-.51,2.14-.08.31-.19.61-.3.91-.11.29-.11.61-.23.9-.14.36-.3.71-.46,1.05-.15.32-.33.62-.46.94-.11.27-.16.56-.24.84,0,.03,0,.06-.01.08-.28.41-.48.86-.7,1.3-.08.16-.12.34-.17.52-.04.14-.07.26-.26.28-.08,0-.2.13-.23.23-.06.2-.08.41-.12.62-.1.5-.32.94-.6,1.36-.15.23-.26.5-.32.77-.07.32-.19.6-.41.86-.37.43-.69.9-1.07,1.33-.84.96-1.71,1.9-2.56,2.86-.33.38-.62.79-.95,1.16-.48.53-.98,1.03-1.47,1.55-.09.1-.16.22-.23.33-.22.35-.45.7-.69,1.08-.17-.46-.31-.86-.45-1.25-.26-.72-.52-1.43-.78-2.15-.17-.48-.35-.97-.49-1.46-.06-.21-.05-.44-.05-.67,0-.27.01-.55.03-.82,0-.12.05-.23.08-.35,0-.04.03-.1.01-.13-.1-.16-.03-.29.07-.42.03-.04.04-.11.03-.15-.19-.49-.54-.87-.91-1.23-.03-.03-.14-.05-.18-.02-.24.18-.4.21-.62.05-.15-.1-.28-.13-.46-.07-.12.04-.28-.01-.42-.03-.19-.02-.39-.06-.58-.08-.5-.05-1-.11-1.49-.16,0-.02-.01-.04-.02-.06.06-.04.11-.08.17-.11.15-.06.3-.11.45-.16-.78-.03-1.56,0-2.34.03-.04,0-.07-.01-.11-.02-.12.02-.25.01-.38.02-.04,0-.11,0-.12.01-.19.29-.56.14-.8.33-.04.03-.16-.03-.25-.04.05-.06.09-.12.14-.17.14-.13.29-.25.41-.39.28-.32.54-.65.81-.98.13-.16.28-.32.39-.5.07-.11.08-.26.12-.38.01-.04.04-.09.08-.11.22-.11.26-.32.29-.54,0-.04.09-.09.14-.11.05-.02.12,0,.22,0-.06-.06-.1-.09-.13-.12q.36-.35.21-.62c.19-.2.4-.37.53-.59.13-.22.36-.34.43-.64-.11-.16.13-.23.23-.37,0,.05,0,.09,0,.2.18-.26.32-.47.47-.69.16-.23.34-.45.5-.67.2-.27.4-.54.59-.82.14-.2.25-.42.4-.61.38-.47.75-.95,1.16-1.4.47-.52.85-1.1,1.25-1.67.45-.65.9-1.3,1.36-1.95.13-.19.27-.4.45-.53.19-.13.44-.18.67-.27,0,.02.02.04.03.05,0-.02.02-.04,0-.05-.13-.25.04-.4.2-.53.22-.19.48-.32.67-.53.14-.16.31-.27.45-.42.63-.67,1.25-1.35,1.87-2.03.49-.54.98-1.08,1.46-1.62.52-.59,1.04-1.19,1.56-1.78.13-.15.3-.26.44-.4.26-.26.5-.54.77-.79.53-.49,1.07-.96,1.61-1.44.03.01.05.02.07.04,0,0,0-.01,0-.02.34-.7.98-1.24,1.61-1.67.21-.14.49-.06.63.13.11.15.09.35,0,.5.01.07,0,.15-.03.21-.01.44.01.87.01,1.31.02-.01.04-.03.06-.04.02.05.05.1.06.15.07.49.17.97.19,1.46ZM25.95,26.71c-.11-.09-.22-.19-.33-.29-.03-.03-.05-.08-.07-.12.06-.02.12-.05.18-.05.03,0,.06.06.09.09.01.01.03.03.06.08.03-.07.06-.13.09-.19.08.08.14.16.2.22-.06.07-.13.15-.23.26ZM29.39,25.26c-.05.07-.07.15-.11.22-.04.06-.09.12-.14.18-.13.15-.27.31-.4.46-.16.18-.31.26-.59.22-.26-.04-.41-.15-.59-.3-.12-.1-.29-.15-.45-.18-.25-.05-.43-.15-.54-.39-.12-.25-.27-.49-.37-.75-.11-.3-.17-.61-.26-.92-.02-.08-.07-.15-.11-.23.01,0,.02,0,.04,0,0-.08-.01-.16-.02-.24-.02-.24-.04-.48-.05-.72-.01-.17-.1-.34,0-.51.06-.1.11-.2.16-.3.06-.12.13-.23.16-.35.03-.11.04-.22.19-.22.03,0,.07-.02.09-.04.2-.14.39-.29.6-.42.07-.05.19-.06.28-.04.28.05.57.11.84.18.28.07.41.3.52.53.03.07.09.17-.03.28-.06.05-.05.25,0,.35.09.18.25.33.33.52.1.23.14.48.22.72.02.08.09.15.09.23.02.15,0,.3,0,.44,0,.11,0,.22.04.32.04.13.11.24-.03.35-.02.02.01.17.06.21.16.12.19.23.08.38ZM30.09,23.28s-.02-.02-.02-.03c-.06-.22-.12-.45-.16-.67,0-.02,0-.03,0-.05-.06-.03-.12-.08-.15-.14-.24-.46-.35-.93-.28-1.45.06-.43.24-.84.38-1.25.03-.09.1-.16.19-.19.03-.09.07-.18.1-.27.03-.08,0-.18-.02-.29.06,0,.12,0,.2,0,0-.01,0-.03.01-.04-.25-.22-.05-.46,0-.67.07-.31.2-.61.33-.9.16-.35.36-.69.54-1.03.03-.05.07-.09.11-.14-.05-.09,0-.49.12-.54.22-.08.18-.3.29-.43.11-.14.16-.33.24-.5.02-.05.08-.08.11-.13.03-.04.08-.08.1-.13.07-.25.16-.48.42-.6.03-.02.05-.08.06-.13.03-.13.04-.27.1-.39.17-.35.35-.7.54-1.04.22-.38.47-.74.7-1.11.29-.47.58-.94.85-1.43.4-.72.76-1.45,1.17-2.16.23-.41.52-.78.79-1.18.08-.12.14-.25.24-.36.64-.72,1.32-1.4,1.9-2.15.46-.59,1.09-.95,1.62-1.44.12-.11.31-.15.48-.21.18-.06.34-.13.46-.3.07-.1.24-.14.36-.21.1-.05.19-.1.33-.18.18.05.34-.07.5-.22.09-.08.18-.21.31-.05.02.02.08.04.09.02.14-.11.24,0,.31.08.44.45.87.91,1.29,1.38.04.05.07.12.09.19.08.06.16.12.23.19.19.19.36.4.51.62,0-.01,0-.02,0-.03.25.28.45.51.61.7.14.06.25.09.32.15.57.52,1.08,1.11,1.58,1.7.67.8,1.39,1.57,2.11,2.34.31.33.66.61,1,.92-.35.34-.72.62-1.14.83-.83.41-1.6.93-2.29,1.54-.46.41-.87.88-1.28,1.34-.36.42-.7.86-1.04,1.31-.15.2-.29.4-.43.6-.57,1.09-1.24,2.15-2.15,2.98-1.12,1.01-2.41,1.92-3.66,2.77-1.27.86-2.65,1.66-4.13,2.06-.94.25-1.9.38-2.87.48-.03.02-.08.02-.13.01-.04,0-.09,0-.13.01-.08.19-.21.2-.4.09-.07-.04-.2.03-.29.02-.06-.01-.13-.02-.2-.03-.17.01-.34.03-.51.04-.26.02-.41-.14-.45-.34ZM30.24,25.08c.01-.13-.05-.3.15-.36.08-.02.21-.08.24-.05.11.1.22.02.32.05.18.04.36.12.56.19.03-.17.15-.2.36-.14.2.06.41.06.61.1.11.02.22.04.31.09.22.13.42.28.64.41.37.22.73.45,1.12.64.11.06.26.02.31.19,0,.01.04.02.06.02.3-.02.47.23.72.32.26.1.49.29.75.38.28.1.51.32.82.33.03,0,.06.05.1.07.19.08.38.16.58.24.07.03.15.03.23.05,0,.03,0,.05,0,.08-.12.01-.27.08-.36.03-.3-.15-.63-.13-.94-.17-.69-.09-1.38-.15-2.06-.23-.45-.06-.89-.12-1.33-.22-.35-.08-.68-.21-1.02-.32-.27-.08-.53-.18-.81-.24-.4-.09-.72-.3-1.02-.55-.27-.23-.35-.54-.32-.89ZM56.71,43.34c-.14,0-.28,0-.46-.02.06.37.23.7.36,1.06-.28.09-.5.24-.64.51-.05.1-.16.17-.26.23-.07.04-.17.05-.25.07.01.01.02.03.04.04-.07.06-.13.15-.22.18-.26.09-.47.23-.62.46-.07.11-.18.2-.29.29-.35.29-.53.67-.63,1.11-.1.42-.24.84-.38,1.26-.08.23-.08.48-.12.71-.07.32-.14.65-.18.98-.04.32-.06.63-.07.95-.01.23-.02.47,0,.7.01.12.1.23.15.35.18.39.21.78.08,1.19,0,0,0,0,0,0,.03.14,0,.27-.06.38,0,.06,0,.12-.01.17-.03.16-.14.24-.34.29-.03-.09-.07-.18-.11-.27-.16-.03-.31-.13-.34-.29-.2-.96-.9-1.6-1.62-2.25-.64-.57-1.28-1.17-1.68-1.93-.13-.09-.24-.21-.33-.34-.32-.46-.62-.94-.93-1.42-.25-.39-.48-.78-.72-1.17-.04-.06-.04-.14-.06-.24-.28,0-.34-.26-.46-.45-.06-.09-.12-.19-.17-.29-.1-.2-.2-.4-.32-.63-.25,0-.2-.31-.35-.46-.18-.18-.34-.39-.49-.59-.11-.14-.22-.29-.3-.46-.09-.18-.29-.3-.29-.54,0-.02-.01-.04-.03-.05-.26-.13-.28-.44-.47-.63-.04-.04-.1-.06-.15-.1-.1-.08-.27-.11-.24-.3,0-.02-.02-.05-.04-.07-.39-.37-.79-.73-1.17-1.1-.36-.35-.71-.71-1.06-1.07-.21-.22-.42-.44-.63-.66-.05-.05-.13-.07-.19-.12-.07-.05-.14-.12-.2-.18-.02-.02-.04-.06-.06-.08-.14-.1-.29-.2-.43-.28-.12-.07-.23-.13-.25-.29,0-.03-.03-.08-.06-.1-.42-.21-.77-.52-1.1-.86-.06-.06-.12-.12-.2-.14-.42-.12-.67-.5-1.04-.7-.06-.03-.09-.11-.14-.16-.05-.06-.09-.16-.16-.18-.36-.1-.53-.43-.79-.64-.19-.15-.41-.25-.6-.39-.15-.11-.28-.25-.46-.41-.13.03-.26-.07-.37-.22-.07-.09-.18-.13-.27-.2-.1-.08-.2-.17-.3-.25-.11.02-.24,0-.35-.1-1.01-.84-1.87-1.88-2.58-2.98-.71-1.11-1.35-2.42-1.34-3.77,0-.58.91-.64.91-.06,0,.05,0,.09,0,.14,0,0,.01,0,.02.01.08.04.19.04.31.07,0,.41.37.39.63.51.05.02.11.05.14.09.18.23.35.45.51.68.08.11.15.23.22.35.02.03.03.06.06.08.24.2.49.4.73.61.31.27.62.54.94.82-.06.06-.11.1-.17.16.55.08.89.49,1.32.73.28.16.58.29.82.49.22.18.44.31.7.39.2.07.39.15.57.27-.05,0-.1,0-.17,0,.03.04.05.08.08.09.19.09.39.18.59.24.5.17,1,.37,1.52.48.74.17,1.44.51,2.21.54.38.01.76.12,1.14.17.16.02.34-.01.48.06.31.16.64-.01.95.14.21.1.48.09.73.13.25.04.5.08.72.24.06.04.16.02.25.02-.02-.02-.03-.05-.05-.07.1-.01.19-.03.28-.04.1.22.18.21.87.15-.07-.05-.11-.08-.21-.14.37.04.69.07,1.01.11,0-.01,0-.02.01-.03-.15-.05-.31-.09-.46-.14,0,0,0,0,0-.01.25.03.5.06.75.1.08.01.15.06.21.11.18.14.31.12.47-.05.03-.03.14-.02.2,0,.08.03.15.09.24.11-.04-.03-.08-.06-.13-.11.05,0,.07-.01.08,0,.4.29.84.11,1.26.09.15,0,.23.05.32.12.1.08.21.14.31.22.31.24.62.49.92.74.22.19.42.4.62.6.19.2.37.42.57.65l.03-.14c.18.23.32.45.51.65.23.25.51.46.69.77.41.7.93,1.33,1.26,2.07.27.62.59,1.22.86,1.84.06.14.11.31.09.5-.01.11.13.24.2.37.03.05.07.11.11.18-.23.04-.53-.08-.51.32Z"/>
      <path class="cls-1" d="M53.41,33.79s0,.07-.02.08c-.22.04-.44.08-.67.07.21-.15.43-.25.69-.14,0,0,0,0,0,0Z"/>
    </g>
  </g>
</svg>