<?xml version="1.0" encoding="UTF-8"?>
<svg id="Layer_2" data-name="Layer 2" xmlns="http://www.w3.org/2000/svg" viewBox="0 0 50.47 120.02">
  <defs>
    <style>
      .cls-1 {
        fill: #000;
        stroke-width: 0px;
      }
    </style>
  </defs>
  <g id="illustrations">
    <g>
      <path class="cls-1" d="M4.97,43.85c-.17-.13-.34-.46-.72-.22-.08-.13-.16-.27-.24-.4-.13-.22-.2-.46-.42-.64-.19-.15-.25-.45-.37-.68-.26-.48-.38-1.05-.85-1.42-.09-.07-.08-.25-.14-.37-.08-.17-.18-.34-.27-.51,0-.08.02-.19-.02-.28-.13-.34-.3-.66-.41-1-.21-.6-.38-1.21-.58-1.81-.06-.17-.15-.33-.23-.5-.03-.07-.05-.15-.06-.23-.1-.47-.21-.95-.31-1.42-.08-.39-.12-.79-.21-1.18-.09-.39.02-.78-.03-1.18-.05-.41-.07-.83-.09-1.24-.02-.54-.03-1.08-.01-1.62.01-.35.09-.7.12-1.06,0-.09-.06-.19-.08-.27.05-.14.14-.29.15-.44.03-.52.03-1.05.06-1.57,0-.11.09-.22.2-.31,0-.48,0-.96,0-1.44,0-.03-.03-.06-.02-.08q.02-.38-.13-.65c.06.01.1.01.14.03.04.01.09.03.15.06.23-1.44.28-2.89.57-4.36,0,0-.05-.04-.04-.04.04-.27.07-.48.1-.7.06-.39.13-.78.19-1.18.02-.1,0-.21-.03-.32.07-.26.14-.52.23-.86,0-.11-.02-.31-.02-.5.02,0,.04,0,.06,0,.02-.29.04-.59.08-.88.01-.09.05-.18.09-.29-.05-.04-.11-.1-.14-.12.09-.23.17-.42.25-.64-.05-.02-.12-.05-.22-.1.08-.13.16-.24.24-.36-.04-.03-.14-.1-.13-.11.17-.32.1-.65.05-.97.23-.08.17-.19.09-.26.04-.23.07-.42.09-.61.03-.2.06-.4.09-.6,0-.05.03-.12,0-.14-.21-.23-.03-.41.08-.61-.23-.07-.31-.17-.14-.38.04-.05.04-.16.02-.23-.05-.16-.05-.29.08-.43.12-.13-.03-.72-.16-.78.04-.12.08-.24.12-.36-.07-.01-.14-.02-.2-.03.3-.37.35-.78.17-.91.05-.32.09-.62.14-.96-.16-.18-.17-2.52.03-2.94-.09-.04-.17-.09-.21-.11.05-.13.15-.26.14-.38-.03-.42,0-.83,0-1.25,0-.11-.11-.23-.17-.34.05-.06.17-.14.2-.26.15-.5.29-.57.79-.36.02.09.03.17.06.25.08.17.22.33.25.5.06.44.06.89.09,1.34,0,.06.04.12.04.17,0,.26-.02.52-.02.77,0,.03,0,.06,0,.09.04.51.08,1.02.11,1.53.03.47.04.94.08,1.42.03.45.09.91.12,1.36.03.5,0,1,.04,1.5.04.59.1,1.18.18,1.77.08.64.04,1.27-.04,1.91-.03.24.08.51.12.76.03.23.06.46.06.69,0,.23.07.46-.06.71-.09.17-.01.43,0,.64.04.58.1,1.15.11,1.73.02.85-.04,1.7,0,2.55.02.28.13.55-.04.82-.02.04.05.13.06.19.02.17.04.34.04.51,0,.28,0,.56-.03.84-.05.37-.16.72-.21,1.09-.06.43-.11.87-.09,1.31.03.63.13,1.26.2,1.9.03.32.02.65.09.96.08.37.22.73.35,1.09.08.21.17.41.27.61.33.62.75,1.16,1.31,1.56-.03-.4-.08-.8-.09-1.21,0-.27.03-.55.04-.82,0-.17,0-.35-.02-.52,0-.03-.02-.06,0-.08.29-.92.27-1.86.2-2.81,0-.04.04-.08.05-.12.06-.21.2-.43.17-.63-.1-.68.06-1.36.02-2.03-.02-.45.02-.9.01-1.35,0-.45.07-.89.1-1.34.03-.37,0-.74.04-1.1.04-.37.12-.74.19-1.12.04-.21.11-.41.11-.62,0-.37-.04-.74-.05-1.11,0-.28,0-.57.02-.85.02-.42.07-.84.07-1.25,0-.44-.03-.89-.06-1.33-.04-.45-.11-.89-.16-1.33-.02-.16.04-.33.03-.5-.07-1.04-.13-2.09-.22-3.13-.07-.84-.19-1.67-.29-2.5-.07-.59-.14-1.18-.19-1.77-.06-.68-.12-1.36-.16-2.05-.01-.19.02-.39.07-.58.03-.11.15-.29.2-.28.18.03.44.08.51.21.16.3.29.64.33.97.06.54.04,1.1.06,1.65,0,.1.04.19.05.29.12,1.21.2,2.42.37,3.62.07.52.09,1.03.13,1.55.09,1.38.1,2.76.16,4.13.02.5.07,1.01.09,1.51,0,.14-.09.28-.1.42-.02.5-.02,1.01-.04,1.51-.03.72-.06,1.45-.11,2.17-.04.61-.13,1.22-.16,1.83-.03.62.01,1.24,0,1.86-.02.59-.09,1.19-.11,1.78-.03,1.13-.03,2.25-.07,3.38-.02.57-.1,1.14-.14,1.71-.02.25-.05.49-.05.74,0,.07.09.17.16.2.28.14.53.28.54.66,0,.13.16.26.24.39.07.13.12.27.18.4-.02.01-.05.02-.07.03.09.06.17.11.26.17.18.12.36.24.56.05.3-.28.61-.16.93-.03.08.03.15.06.31.12-.09-.43-.17-.78-.24-1.14-.02-.11-.02-.22-.03-.33-.02-.24-.04-.48-.06-.72-.02-.24-.05-.49-.07-.73-.01-.16-.05-.32.02-.49.04-.1-.01-.25-.03-.37,0-.06-.04-.12-.02-.16.2-.42.03-.83-.03-1.25,0-.06-.07-.11-.04-.17,0-.34.03-.68.02-1.02,0-.32-.03-.65-.07-.97-.02-.17-.09-.34-.12-.52-.01-.07.03-.14.05-.23-.06-.03-.14-.07-.27-.15.43-.3.39-.74.35-1.16-.05-.42.16-.85-.06-1.25.05-.19.1-.39.15-.59-.09-.01-.16-.02-.23-.03.23-.17.11-.39.12-.59.02-.39.1-.79.08-1.17-.03-.37-.06-.74-.05-1.12,0-.07-.06-.14-.1-.23.12-.13.18-.81.03-.99-.2-.25-.28-.62-.17-.81.09-.16-.2-.4.2-.43-.25-.13-.22-.23-.14-.4.09-.2.09-.45.08-.68,0-.16-.09-.32-.15-.51.29-.1-.03-.38.08-.57.06-.1.08-.23.17-.32-.03-.16-.04-.32-.08-.47-.04-.13-.1-.26-.17-.43.31-.24.12-.64.08-.96-.07-.56-.12-.7.11-1.18-.07-.03-.15-.07-.24-.11.05-.08.1-.15.16-.24-.05-.09-.12-.19-.16-.26.05-.09.13-.17.12-.22-.15-.41-.03-.83-.05-1.24-.02-.38.02-.77-.02-1.15-.04-.4.03-.8-.09-1.21-.1-.36,0-.78,0-1.17,0-.33-.05-.66-.07-.99,0-.06.03-.13.04-.2.07-.31.16-.62.19-.93.05-.48.14-.93.44-1.33.13-.17.25-.2.43-.12.19.08.38.16.58.24.09-.11.17-.21.26-.31.25.14.51.26.73.43.27.21.38.52.46.85.03.11.06.24.13.33.21.27.1.71.46.9.03.01,0,.11.02.16.03.09.06.18.09.27.01.03.05.05.05.07-.06.31.12.56.18.85.01.06.02.12.03.18.02.1.05.2.06.3.04.08.33.07.08.27-.01.01.04.11.07.17.07.18.27.32.09.58-.06.09.16.35.21.54.05.18.06.36.08.55.01.11-.03.25.03.32.28.36.41.82.35,1.22-.07.57.21,1.02.29,1.54.07.52.19,1.03.08,1.56-.02.12.07.26.08.4.02.35.01.71.04,1.06.04.51.14,1.02.15,1.54,0,.27.09.48.21.7.02.04-.01.11-.03.16-.09.29,0,.62.22.81-.2.06-.23.15-.16.37.14.45.19.92.26,1.39.05.34.06.69.09,1.04.03.36.09.71.17,1.06.06.27-.03.56-.03.85,0,.32,0,.64,0,.97-.19.01-.28.05-.16.25.08.13.08.31.12.47.08.35.16.7.24,1.05,0,.02.02.04.02.06.02.36.03.71.05,1.07.02.23.07.46.09.69.01.1-.01.2,0,.31,0,.11-.01.23,0,.34.06.45.13.89.19,1.34.04.3.1.6.11.91,0,.12-.11.23-.17.36.03.02.13.06.13.1,0,.22-.03.44-.03.65-.02.49-.03.99-.04,1.48,0,.33.02.66-.01.99-.05.59-.13,1.19-.2,1.78-.02.14-.07.28-.08.42-.04.3-.03.61-.1.9-.13.58-.29,1.16-.45,1.73-.03.12-.13.22-.18.33-.12.27-.2.56-.34.82-.14.27-.34.52-.5.79-.13.21-.24.43-.34.66-.02.04.05.12.05.14-.11.16-.2.3-.3.44-.08.11-.16.22-.24.33-.22.27-.53.5-.65.81-.15.37-.4.65-.6.97-.02.03-.04.08-.07.09-.4.19-.54.55-.67.94-.05.15-.21.27-.31.41-.07.09-.16.19-.17.29-.04.37-.28.69-.24,1.1.02.27-.21.55-.3.84-.17.51-.28,1.03-.3,1.57,0,.27-.06.54-.11.81-.04.2-.12.39-.18.59-.12.38-.23.77-.38,1.15-.12.31-.02.58.31.69.07.02.14,0,.2.04.12.06.23.15.34.22-.03.01-.05.03-.08.04.07.14.13.27.16.34.07.26.09.47.17.65.18.46.16.93.07,1.4-.09.45-.46.68-.76.96-.1.09-.24.18-.27.3-.13.52-.22,1.04-.33,1.57-.21.03-.39.07-.31.36.02.08-.06.19-.1.31.08.14.18.31.3.51-.34.34-.14.77-.13,1.17,0,.17,0,.35.02.52,0,.08.03.15.03.23,0,.1-.01.2,0,.29.03.16.07.33.12.53-.17.09-.14.27-.1.49.08.46.1.93.13,1.39.03.46.02.92.07,1.38.02.23.17.45.19.67.04.64.03,1.29.05,1.93.02.51.07,1.03.1,1.54.02.41.02.83.06,1.24.04.42.12.84.19,1.32,0,0-.07.06-.14.11.03,0,.05,0,.08,0,.02.44.04.88.05,1.31,0,.42-.01.84,0,1.25.02.7.1,1.41.07,2.1-.01.29.04.59-.02.9-.09.46.02.96.07,1.43.04.36.15.71.19,1.07.03.38,0,.77.02,1.15,0,.18.06.35.09.52.06.33.13.66.17.99.04.32.02.64.07.95.04.23.17.45.25.65-.06-.02-.14-.05-.23-.07-.01.09-.03.19-.03.28.05,1.74.09,3.48.15,5.21.02.5.05,1,.12,1.49.07.51.2,1.02.28,1.53.03.18-.03.37-.03.56,0,.29-.01.59,0,.88.02.32.09.64.11.96.01.22-.03.45-.03.67,0,.44-.01.89.03,1.33.05.58.16,1.15.21,1.72.02.26-.05.53-.08.84.3.11.16.48.22.75.11.51.16,1.02.23,1.54,0,.08-.06.17-.06.19.27.46.57.87.74,1.33.21.56.34,1.15.42,1.74.04.25.11.5.13.74.05.41.12.81.15,1.22,0,.07-.08.14-.12.21.3.29.14.68.21,1.02.01.05-.05.14-.03.17.34.41.13.9.17,1.34.06.72.07,1.46.03,2.18-.04.82-.16,1.63-.26,2.44-.03.25-.14.49-.22.74-.04,0-.08,0-.11,0-.01-.07-.07-.18-.04-.21.24-.23.22-.48.17-.8-.08-.49-.04-1.01-.05-1.51,0-.21,0-.43-.04-.64,0-.04-.13-.07-.21-.1-.04.1-.09.19-.11.29,0,.04.08.1.14.16-.22.12-.21.32-.27.52-.13.42.12.92-.34,1.29-.2.16-.21.53-.33.8-.05.11-.11.24-.2.31-.37.28-.61.64-.79,1.05-.36.81-.96,1.43-1.65,2,.32-.06.63.13.96-.07.23-.15.5-.24.77-.32.08-.03.24.03.3.1.13.18.26.17.43.08.22-.12.45-.22.67-.32.08-.04.18-.06.28-.09.05.47-.26.68-.55.83-.66.34-1.35.6-2.02.92-.39.19-.74.47-1.15.64-.32.13-.61.35-.99.33-.27-.02-.55.14-.83.13-.45-.02-.92-.04-1.34-.2-.31-.12-.56-.43-.8-.69-.31-.34-.6-.7-.88-1.07-.13-.18-.22-.39-.33-.59-.07-.14-.1-.3-.19-.43-.26-.38-.39-.81-.55-1.24-.09-.24-.28-.48-.28-.72,0-.3-.22-.49-.25-.76-.04-.29-.09-.58-.19-.85-.15-.4-.03-.88-.33-1.24-.03-.04,0-.13,0-.19-.02-.16-.06-.31-.06-.47,0-.14,0-.28.03-.42,0-.04.11-.08.17-.09.02,0,.07.08.09.13.08.22.14.43.04.66-.03.07.05.18.08.27.03.09.06.17.07.26.02.16-.01.34.05.47.14.31.07.68.29.97.14.18.27.43.27.64-.02.39.15.71.28,1.03.25.62.57,1.23.9,1.81.59,1.03,1.55,1.5,2.69,1.67.11.02.21.04.35,0-.15-.13-.32-.24-.46-.38-.51-.52-1.02-1.04-1.52-1.58-.18-.19-.34-.4-.47-.63-.09-.16-.07-.37-.15-.54-.08-.19-.2-.37-.32-.58.04-.03.1-.09.14-.12-.09-.46-.34-.88-.21-1.41-.09-.04-.22-.1-.34-.15l.02-.05c.08.02.15.04.29.07-.37-1.34-.55-2.66-.61-4.07-.02-.02-.09-.07-.18-.14.03-.1.09-.2.1-.3.01-.1,0-.21-.02-.31-.04-.23-.21-.47.06-.67.04-.03.06-.11.05-.15-.05-.39-.1-.77-.17-1.16-.05-.34-.12-.67-.19-1-.01-.05-.06-.1-.07-.12.04-.14.09-.27.1-.4.03-.49.04-.97.07-1.46.04-.6.1-1.2.14-1.8.01-.19-.02-.38.02-.56.07-.36.19-.7.27-1.06.06-.27.08-.54.13-.81.07-.4.17-.8.23-1.2.08-.52.14-1.05.2-1.57.07-.7.11-1.4.18-2.1.06-.54.14-1.08.16-1.66-.12.25-.29.48-.35.74-.16.63-.25,1.28-.4,1.91-.07.33-.2.65-.29.98-.08.31-.16.62-.23.93-.08.34-.15.68-.22,1.02-.08.37-.15.73-.22,1.1-.12.58-.26,1.16-.37,1.75-.07.36-.09.72-.12,1.08-.04.41-.06.82-.11,1.23-.09.71-.22,1.42-.29,2.13-.05.47,0,.95-.01,1.43,0,.44-.06.88-.03,1.32.02.35-.01.69-.04,1.03,0,.07.03.16.07.22.11.17.29.32.05.53-.01.01,0,.08.02.11.17.29-.05.34-.29.47.06-.22.1-.38.14-.53-.1-.07-.21-.15-.31-.22.03,0,.06-.02.09-.03,0-.15-.02-.31-.01-.46,0-.13.04-.26.07-.39.03,0,.05,0,.08,0-.1-.09-.21-.17-.34-.28.08-.04.13-.07.15-.08,0-.19,0-.37,0-.55-.02-.3-.06-.6-.06-.9,0-.53.02-1.06.03-1.6.01-.45.03-.89.06-1.34.04-.65.03-1.32.16-1.95.07-.34.11-.69.19-1.02.03-.11.06-.21.07-.32.06-.74.24-1.44.46-2.15.16-.52.28-1.05.42-1.58.08-.33.17-.66.24-.99.03-.15,0-.31.03-.46.04-.22.11-.44.18-.65.23-.73.44-1.47.7-2.19.06-.17.23-.31.36-.47-.03-.02-.08-.05-.09-.06.11-.53.24-1.03.32-1.54.09-.54.12-1.09.19-1.63.05-.39.12-.78.14-1.18.02-.45-.02-.9,0-1.35.01-.35.09-.69.12-1.03,0-.09-.07-.19-.08-.29-.02-.12,0-.24,0-.38-.02-.01-.08-.04-.14-.08.2-.31-.02-.54-.12-.81.11-.05.23-.09.29-.11.05-.34.19-.66.11-.91-.11-.34.05-.62.06-.92.01-.34.09-.68.11-1.02.02-.3,0-.59.02-.89.01-.39.04-.79.05-1.18.01-.42.02-.84.01-1.25,0-.06-.1-.11-.06-.18,0-.22,0-.44,0-.66,0-.06-.03-.15,0-.16.31-.18.13-.46.15-.7.03-.36.05-.73.08-1.09,0,0,0-.02,0-.03-.17-.31,0-.63,0-.94,0-.25-.06-.5-.07-.75,0-.16.06-.32.08-.49.01-.12,0-.25.01-.38.02-.34.06-.69.05-1.03,0-.22-.08-.43-.09-.65-.01-.73,0-1.47,0-2.2,0-.28.11-.63-.02-.82-.23-.32.04-.61-.06-.89-.11-.31-.11-.6,0-.9.01-.03-.06-.09-.09-.13-.02-.04-.04-.09-.06-.13.17-.06.06-.22.1-.3.17-.34.06-.67.07-1.01,0-.11.04-.23.07-.34,0-.04.05-.08.04-.11-.13-.47.23-.89.14-1.34-.08-.38-.02-.76-.03-1.14-.01-.56.03-1.11.05-1.67,0-.17.03-.34.02-.51-.02-.28-.09-.56.05-.83-.3-.32-.08-.67-.05-1.01,0-.09-.08-.19-.1-.29-.02-.11-.03-.24,0-.35.08-.24.22-.45,0-.69-.06-.06.01-.26.05-.39.1-.31.04-.48-.2-.66-.09-.16-.18-.32-.25-.43-.04-.15-.08-.25-.1-.36-.02-.12-.05-.25,0-.36.07-.21.15-.39-.09-.55-.05-.03-.08-.15-.06-.21.08-.24.18-.48.3-.71.15-.31.46-.4.7-.18.1.09.14.28.16.43.05.35.05.72.13,1.06.08.35.23.68.38,1.01.03.07.18.14.26.12.64-.13,1.28-.24,1.9-.43.2-.06.34-.33.52-.49.08-.07.19-.1.28-.15.03.1.06.21.11.37.08-.03.21-.04.28-.11.24-.25.33-.54.2-.89-.1-.27-.02-.59-.25-.82-.1-.1-.2-.19-.32-.31,0-.05.04-.2,0-.23-.09-.07-.26-.12-.34-.08-.22.1-.43.12-.65.08-.28-.06-.51.1-.72.24-.8.53-1.63-.02-1.96-.63-.39-.74-.5-1.51-.52-2.33,0-.26-.09-.53-.15-.86.18-.22.24-.53.03-.86-.03-.04-.03-.13,0-.17.27-.36.09-.77.13-1.15.03-.32.03-.64.02-.97,0-.16-.09-.31-.14-.46-.12.11-.24.21-.4.36ZM6.28,89.21s.03.02.04.03c-.07.09-.17.17-.19.27-.06.31-.17.63-.12.93.07.46-.23.93.07,1.37.01.01,0,.06-.03.08-.34.39-.19.91-.35,1.36-.14.38-.04.84-.13,1.24-.05.21,0,.43-.1.65-.09.18.05.45-.16.64-.01.01.03.09.06.13.2.34-.06.67-.02,1.02.03.21-.09.46-.18.67-.1.22.08.5-.17.67-.02.01-.01.08,0,.11.06.14.13.28.2.44h-.33c.11.17.19.29.25.39-.09.21-.19.4-.25.6-.1.36-.15.73-.24,1.08-.09.33-.08.72-.43.94.07.08.13.16.19.23-.32.16-.34.27-.18.59.03.06.04.17,0,.22-.19.3-.25.59-.08.92.01.03,0,.09-.02.11-.14.16-.11.32-.04.49.02.04.03.12.02.13-.23.11-.1.25-.05.39.03.1.02.22.02.33.04,0,.1.02.17.03-.16.12-.31.15-.17.42.12.24.02.58.02.88,0,.12.06.27.02.38-.04.12-.19.19-.28.29.09.04.2.08.35.14-.09.08-.15.13-.23.19.13.07.23.12.28.15-.06.3.1.64-.22.84h.29v.04c-.1.03-.21.06-.35.1.18.33-.12.85.56.97-.19.09-.29.14-.46.21.12.52.25,1.06.37,1.59.04,0,.09-.02.13-.03-.04-.24-.08-.47-.1-.71,0-.08.06-.2.13-.25.03-.03.17.02.22.07.14.17.11.57-.08.74.42.15.11.48.24.73-.14-.02-.24-.04-.34-.06,0,.02-.01.03-.02.05.06.04.11.08.2.14-.1,0-.17.02-.31.03.15.17.26.3.38.43.19-.05.39-.11.59-.14.18-.03.33,0,.35.25.02.23.09.45.13.67-.06.02-.11.03-.18.05.11.16.21.29.29.44.05.08.06.18.09.27-.08-.01-.16-.03-.27-.05.51.76,1.02,1.49,1.94,1.76.18.05.49.14.55.06.33-.41.95-.62.94-1.28,0-.03.04-.07.06-.1.39-.49.83-.94,1.15-1.47.24-.4.31-.89.45-1.34.01-.04-.06-.1-.07-.13.09-.08.21-.13.22-.2.08-.4.13-.8.2-1.2.02-.13.06-.26.08-.35,0-.36-.02-.67,0-.99.05-.81.14-1.61.18-2.42.03-.58,0-1.15,0-1.74-.04,0-.09-.02-.07-.01-.05-.39-.09-.74-.14-1.11-.02-.01-.08-.05-.14-.08.3-.36.15-.77.16-1.15,0-.08-.14-.19-.11-.24.1-.2.02-.33-.09-.48-.02-.03-.01-.09-.01-.13,0-.18.02-.35.03-.53,0-.06,0-.12,0-.18.04-.26.17-.55.09-.76-.09-.24,0-.31.1-.38-.08-.16-.22-.31-.19-.43.06-.3-.06-.47-.22-.56.01-.24.04-.44.03-.63-.01-.28-.06-.56-.07-.83-.02-.38,0-.75-.03-1.13-.03-.34-.13-.67-.15-1.01-.04-.58-.04-1.16-.07-1.74-.05-.86-.1-1.73-.17-2.59-.05-.58-.14-1.15-.21-1.73,0-.07,0-.13,0-.2,0-.16.01-.33,0-.49-.02-.22-.12-.45-.08-.66.06-.35-.1-.68.03-1.04.09-.27,0-.59-.03-.9-.01-.21-.03-.43-.05-.62.04-.11.1-.22.1-.33,0-.18-.05-.35-.07-.53-.03-.24-.1-.48-.09-.72.02-.3-.08-.55-.14-.83-.04-.19.08-.4-.12-.57-.02-.02.02-.09.02-.14-.01-.09-.03-.19-.06-.28-.04-.15-.16-.34-.12-.45.09-.24,0-.41-.09-.6-.03-.07-.05-.21-.02-.24.24-.19.14-.35-.02-.52-.03-.04-.05-.1-.06-.15,0-.39,0-.78-.01-1.17,0-.15-.03-.3-.05-.46.03,0,.05-.02.08-.02-.06-.02-.12-.05-.14-.05.05-.15.15-.41.13-.42-.27-.13-.11-.34-.12-.52,0-.13-.05-.26-.09-.44.01-.04.09-.14.09-.25-.04-1.18-.09-2.36-.13-3.53-.02-.64-.02-1.28-.03-1.92-.03-1.02-.06-2.04-.11-3.05,0-.11-.1-.22-.15-.33-.03-.47.25-.97-.17-1.41.08,0,.15,0,.29-.02-.07-.31-.15-.6-.21-.89-.01-.07.03-.15.05-.22.02-.06.09-.12.09-.18-.01-.41-.08-.82-.05-1.22.04-.48-.46-.85-.2-1.37-.12.01-.18.02-.24.03.22-.13.08-.22,0-.28.04-.15.1-.27.09-.38-.03-.28-.1-.55-.14-.83-.03-.16-.01-.34-.06-.5-.15-.5-.21-1.01-.18-1.53.06-.76.1-1.51.16-2.27,0-.1.07-.29.11-.29.27,0,.24-.23.3-.38.17-.51.33-1.02.49-1.55-.3,0-.57-.08-.74.02-.27.16-.54.16-.82.2-.2.03-.4.06-.63.1.02.09.01.18.05.21.2.15.09.29.03.45-.05.16-.06.35-.06.53,0,.26.06.51.06.77,0,.34-.04.67-.04,1.01,0,.37.02.74.02,1.11,0,.12-.04.25-.08.44.04.2.1.47.16.77-.03.03-.08.09-.15.18.11.04.19.07.2.07.06.19.09.32.13.44.05.12.15.24.16.36.02.29-.18.38-.43.35-.06.6-.12,1.18-.17,1.76-.04.5-.1,1.01-.09,1.52.02.71.07,1.42.04,2.13-.03.69-.05,1.38-.06,2.07,0,.12.05.25.05.37-.01.46-.03.91-.05,1.37,0,.25-.02.5-.03.74-.02.51-.04,1.01-.06,1.52-.02.6-.04,1.2-.06,1.8-.02.5.01,1-.07,1.49-.05.28-.07.47.2.61-.11.1-.19.18-.24.22.03.42.06.8.09,1.18,0,.11.03.21.05.33-.03.04-.11.1-.12.18-.04.2-.07.39.03.6.1.2.17.47-.11.6.02.12.06.23.06.33-.02.5-.06,1-.09,1.51-.01.21.01.45-.08.62-.15.27.13.53-.05.81-.09.14-.05.44.04.6.16.27-.06.44-.06.69.22.11.03.38.1.49.19.29-.02.32-.12.37.04.14.1.26.1.37,0,.17-.09.36-.04.51.18.47-.22.88-.09,1.34.03.12,0,.25-.02.38,0,.15-.02.29-.03.44-.01.18-.03.36-.05.54-.01.13-.03.26-.05.39ZM7.09,43.06c.03.14.05.24.07.34.06.26.12.52.18.79,0,.03,0,.09-.03.11-.14.1-.11.22-.09.36.02.15-.05.3-.08.46-.05.24-.13.47-.14.71-.04.54-.05,1.08-.05,1.62,0,.31-.06.68.09.91.19.29.09.48.02.73-.02.08.03.22.09.28.21.18.46.25.74.18.19-.05.38-.12.53-.17.09-.45.16-.88.26-1.32.14-.64.28-1.29.46-1.92.15-.52.38-1.02.57-1.52.02-.06.03-.13.02-.19-.05-.27-.01-.5.16-.72.06-.07.05-.2.06-.23-.35.04-.67.08-.98.11,0,0-.07-.17-.04-.21.12-.18.27-.34.41-.5.53-.64,1.38-.95,1.78-1.73.13-.26.33-.49.44-.76.1-.25.1-.54.21-.78.28-.65.84-1.14,1.08-1.83.23-.66.6-1.28.82-1.94.24-.7.43-1.42.56-2.15.12-.66.13-1.34.19-2.01.04-.4.07-.79.11-1.19.02-.27.05-.54.07-.81,0-.13-.02-.25-.01-.38.04-.49.1-.97.13-1.46,0-.14-.06-.29-.09-.44.12-.65.02-1.3-.05-1.91-.08.04-.16.08-.31.15.45-.86.39-.91.41-1.83,0-.2.03-.36-.16-.48-.02-.02-.02-.15.01-.18.23-.22.12-.38-.09-.5.06-.07.15-.12.15-.18.02-.39-.01-.78.02-1.17.03-.31.03-.63.01-.94-.02-.29-.17-.6-.09-.85.13-.43-.21-.8-.07-1.21-.22-.2-.02-.43-.04-.65-.01-.11.03-.22,0-.32-.09-.49-.21-.98-.3-1.47-.03-.17-.03-.35-.04-.53-.01-.24.1-.51-.15-.71-.04-.03-.06-.1-.07-.16-.05-.6-.14-1.19-.15-1.79-.02-1.09-.12-2.17-.31-3.24-.04-.22-.19-.43-.24-.65-.12-.51-.21-1.04-.32-1.55-.03-.15-.12-.28-.16-.37,0-.14,0-.26-.02-.36-.04-.14-.12-.27-.17-.41-.02-.06,0-.13-.02-.19-.03-.09-.11-.17-.13-.26-.11-.49-.21-.99-.32-1.49-.02-.08-.1-.14-.15-.21-.03,0-.05.02-.08.03.04.55.08,1.1.11,1.65.01.25-.02.51.37.51-.33.26-.34.27-.3.74.05.61.11,1.21.18,1.81.07.57.15,1.13.22,1.7.02.2.02.4.02.6,0,.44,0,.89.03,1.33.04.44.13.88.19,1.32,0,.02,0,.04,0,.06-.08.81.07,1.62-.03,2.45-.12.99-.1,2-.12,3,0,.25.06.51.01.76-.12.74-.29,1.47-.16,2.23.02.1.06.2-.05.31-.06.06.02.24.03.36.07,0,.13-.02.22-.03-.02.09-.03.27-.06.28-.27.05-.19.25-.18.39.02.34.06.68.09,1.02,0,.04-.02.09-.03.14-.03.11-.07.21-.07.32,0,.2.07.41.01.59-.12.41-.12.79.04,1.12-.06.14-.14.25-.14.37,0,.43-.25.87.02,1.3.01.02,0,.06-.01.09-.23.4-.12.83-.15,1.25-.02.23.08.47.05.7-.05.37-.16.73-.22.99-.33.1-.58.17-.83.27-.06.02-.06.17-.1.3-.13-.22-.26-.44-.39-.66-.02,0-.04.01-.05.02.05.18.09.37.14.56-.63-.01-1.09.28-1.46.85-.04-.06-.09-.13-.13-.19-.22-.31-.43-.6-.81-.75-.13-.05-.22-.27-.29-.42-.07-.14-.09-.3-.15-.44-.02-.05-.09-.1-.15-.11-.03,0-.08.06-.11.11-.13.2-.23.43-.4.6-.09.09-.28.14-.42.13-.26-.01-.53-.12-.79-.12-.43,0-.8-.11-1.13-.37-.25-.2-.49-.42-.75-.62-.05-.04-.19-.02-.23.02-.13.12-.24.28-.37.4-.03.03-.13,0-.19-.02-.09-.03-.18-.08-.32-.14-.13-.52-.31-1.07-.41-1.63-.1-.57-.11-1.16-.16-1.73.06-.03.21-.07.21-.09-.02-.13-.07-.25-.11-.37-.13.05-.21.08-.3.12-.01-.04-.03-.07-.04-.11.14-.04.27-.09.41-.13.01-.1.04-.22.03-.33,0-.08-.04-.21-.09-.22-.25-.07-.13-.21-.09-.36.16.15.27.17.29-.08.02-.25.05-.49.05-.74,0-.63.18-1.26.09-1.89-.02-.13-.06-.26-.1-.4h.14c.03-.27.07-.51.08-.75,0-.24.16-.49-.08-.7.2-.14.18-.45-.03-.6.22-.16.23-.67.03-.91.06-.08.15-.15.17-.23.03-.18.05-.38.02-.56-.05-.31.05-.62-.06-.95-.12-.33-.06-.71-.09-1.07-.04-.38-.13-.75-.13-1.12-.02-.97,0-1.93,0-2.93-.17.08-.14.09-.18.43-.04.29-.18.55-.15.86.02.23-.1.47-.12.71-.04.36-.05.73-.07,1.1-.01.22,0,.44-.03.65-.02.19-.08.37-.11.55-.13.85-.26,1.69-.38,2.54-.04.31-.02.62-.06.92-.06.52-.17,1.03-.22,1.55-.09.98-.16,1.96-.24,2.94-.05.65-.11,1.3-.17,1.95,0,.07-.06.15-.06.22,0,.51.31,1.02.04,1.54,0,0,0,.02,0,.03,0,.64-.01,1.29-.02,1.93,0,.3-.04.61-.01.91.02.18.05.35.06.53.02.6.07,1.2.16,1.8.05.37.19.72.28,1.09.16.61.31,1.23.48,1.84.16.56.32,1.13.51,1.68.11.31.24.62.44.89.23.32.54.59.84.91.03-.07.09-.14.08-.2-.09-.46-.18-.92-.28-1.38-.05-.25-.18-.5-.14-.73.03-.17.24-.35.41-.44.1-.05.36,0,.43.1.16.22.24.49.36.73.04.09.09.19.13.28.03.06.09.12.11.19.06.2.07.42.16.62.17.39.36.78.56,1.16.1.19.26.34.35.53.17.32.22.71.59.89.03.02.06.08.06.12.05.32.24.52.52.63ZM11.58,17.92c.05-.15.11-.26.12-.38.04-.36.07-.72.08-1.08.01-.5,0-1,0-1.5,0-.24.02-.48.02-.73,0-.29,0-.58-.03-.86-.03-.33-.11-.65-.14-.98-.04-.6-.04-1.21-.07-1.81-.04-.6.06-1.22-.15-1.81-.06-.16.07-.38.06-.57-.03-.57-.06-1.15-.12-1.72-.09-.79.04-1.61-.27-2.38-.01-.04.03-.09.03-.14.02-.29.05-.57.03-.86-.04-.47-.11-.93-.17-1.41-.3-.09-.3-.65-.84-.6-.04.49-.13.97-.1,1.45.01.27,0,.49-.2.67.06.11.15.21.15.31.01.18-.04.37-.03.55,0,.25.05.49.07.75-.04,0-.1,0-.16.01,0,.03,0,.04,0,.05.25.33.27.68.06,1.05-.02.04-.03.11,0,.13.33.38.22.85.24,1.28.04.89.05,1.78.06,2.67.02.95.03,1.9.04,2.85,0,.47,0,.94,0,1.41,0,.64.02,1.28,0,1.92-.01.49-.09.99-.09,1.48,0,.82.06,1.64.06,2.47,0,.76-.03,1.51-.03,2.27,0,.81.01,1.62.04,2.43.02.74.05,1.48.1,2.22.02.39.1.77.11,1.16.02.43,0,.86,0,1.29.05,0,.11.01.16.02.03-.14.08-.28.1-.42.1-.66.2-1.33.28-1.99.06-.46.09-.92.14-1.37.02-.19.09-.38.1-.57.06-.69.12-1.38.16-2.06.01-.19.12-.43-.16-.55-.05-.02-.06-.13-.09-.2.35-.19.38-.29.28-.68,0-.02-.01-.05,0-.07.04-.2.1-.41.12-.61.05-.55.07-1.11.12-1.66.02-.2.14-.4-.04-.59-.03-.03-.01-.12.02-.16.18-.25.14-.46-.06-.63ZM15.23,33.41s-.07,0-.11,0c-.22,2.17-1.2,4.06-2.18,5.96.08,0,.13-.02.15-.06.23-.36.46-.72.68-1.09.12-.2.22-.42.31-.63.24-.54.52-1.08.7-1.64.21-.65.33-1.34.47-2.01.03-.16-.01-.35-.02-.52ZM4.21,29.28c-.21-1.11-.4-2.19-.6-3.26-.02,0-.05,0-.07.01v.83c-.04.1-.04.19-.04.28,0,.03.02.06.02.09,0,.26-.03.52-.02.77,0,.14.05.28.08.44-.12.12-.14.13.03.5.11.24.36.26.59.32ZM15.52,31.45l-.14-.02c-.04.32-.08.63-.11.95-.03.3-.06.61-.1.91.04,0,.08,0,.12,0,.08-.62.15-1.23.23-1.85ZM4.74,99.43c-.28.22-.33.65-.17.95.33-.25.1-.59.17-.95ZM4.12,41.17s.06,0,.09,0c-.04-.16-.07-.32-.15-.46-.02-.03-.18,0-.27.01.13.18.23.31.32.44ZM15.61,29.27c-.08.26-.22.53-.1.8.03,0,.07,0,.1,0v-.8Z"/>
      <path class="cls-1" d="M50.46,108.92c0-.44,0-.89-.03-1.33-.02-.25-.21-.52-.16-.75.09-.42,0-.81-.05-1.21-.01-.1-.1-.23-.07-.3.15-.33,0-.58-.14-.76.05-.18.15-.34.11-.41-.14-.24-.08-.41.09-.58-.08-.23-.33-.44-.08-.72h-.31c.3-.37-.05-.86-.64-.96.05.32.08.65.14.97.06.31,0,.68.42.82-.3.23-.31.44-.08.8-.16.07-.32.12-.06.3.18.12.2.31,0,.4.02.21.05.38.06.56.04.63.1,1.27.12,1.9.02.65.02,1.3.02,1.95,0,.22,0,.46-.07.67-.16.5.14,1.11-.35,1.56.24.03.29.14.24.35-.19.78-.33,1.57-.54,2.34-.1.37-.3.7-.44,1.06-.03.08-.02.18-.04.33,0,0-.08.08-.12.16-.18.32-.32.67-.54.96-.4.52-.87.98-1.42,1.35-.6.41-1.07.7-1.65.51.16-.06.29-.11.42-.16-.04-.03-.08-.06-.11-.09.27-.25.55-.47.78-.73.19-.21.34-.47.49-.72.09-.16.15-.34.23-.5.08-.16.18-.3.27-.46,0-.02-.06-.1-.08-.1-.38.05-.22-.18-.17-.41-.27.18-.5.34-.73.49.03.02.07.05.1.07,0,.06.01.15-.02.18-.23.21-.46.45-.72.61-.53.32-1.09.61-1.65.89-.08.04-.23.01-.3-.04-.51-.39-.77-.95-.92-1.56-.02-.07-.1-.13-.13-.18,0-.08.04-.18.01-.25-.16-.46-.36-.92-.5-1.39-.26-.94-.49-1.89-.73-2.84-.05-.2-.18-.4-.17-.6.08-1.04-.32-2.04-.21-3.08.03-.3-.17-.65.21-.87.03-.02.03-.11.03-.16-.07-.7-.15-1.41-.21-2.11-.07-.8-.14-1.61-.19-2.41-.03-.45-.03-.9-.04-1.36,0-.34-.02-.68-.02-1.02,0-.29,0-.57.02-.86,0-.15.02-.3.03-.45.03,0,.07,0,.1,0-.04-.07-.11-.14-.1-.2.07-.48-.27-.97.03-1.45.02-.04,0-.1,0-.15,0-.53-.03-1.06,0-1.59.02-.38.11-.75.19-1.12.06-.3.2-.59.23-.89.04-.41-.02-.83,0-1.25.03-.62.07-1.24.13-1.86.04-.46.12-.92.2-1.37.07-.42.16-.83.23-1.24.02-.15-.07-.34,0-.45.1-.16.07-.3.06-.46-.01-.19.04-.39.08-.58.02-.1.07-.19.07-.28,0-.47.05-.95,0-1.42-.05-.49.29-.98,0-1.47-.04-.07-.02-.2.01-.29.23-.56.25-1.14.18-1.73,0-.06,0-.12.02-.17.09-.44.2-.87.26-1.32.04-.27,0-.55,0-.82.02-.54.05-1.08.09-1.62.01-.15.11-.29.11-.44,0-.3-.11-.6-.06-.89.11-.59-.1-1.17,0-1.78.1-.57.05-1.18.06-1.77,0-.16,0-.31,0-.47-.04-.48-.08-.96-.12-1.44,0-.06.03-.13.06-.2.06-.16.15-.31.19-.48.08-.31.23-.39.53-.34.58.09,1.16.14,1.72.2.08-.18.12-.28.16-.38.03,0,.05,0,.08-.01-.01.44.21.7.58.84.15.06.34.04.49.09.21.07.44.14.59.29.3.3.5.3.77-.04.06-.08.15-.14.22-.21.02.02.04.04.06.06-.12.15-.3.29-.35.46-.09.29-.26.6.04.9-.13.07-.23.12-.33.17.04.04.08.08.12.12.36-.02.3-.41.44-.61.05-.08,0-.24-.01-.3.12-.18.22-.36.34-.52.21-.27.42-.53.41-.9,0-.16,0-.32.02-.48.02-.14.06-.29.12-.42.05-.12.14-.22.21-.32-.13-.02-.25-.04-.38-.06-.05,0-.09,0-.15,0,.03.13.05.24.09.42-.21-.05-.36-.1-.51-.13-.04,0-.11,0-.13.04-.24.28-.32.05-.42-.13-.03-.06-.05-.13-.07-.19-.02-.08-.06-.23-.03-.25.09-.05.25-.12.31-.08.29.21.4-.02.48-.2.15-.31.24-.64.61-.79.1-.04.17-.16.24-.25.09-.11.18-.22.29-.35-.26-.19-.06-.35.1-.46-.05-.18-.09-.31-.12-.44.1-.02.16-.04.24-.06-.11-.13-.21-.21-.27-.32-.1-.17-.18-.35-.26-.53-.14-.33-.32-.66-.4-1-.12-.52-.18-1.05-.25-1.57-.05-.41-.09-.83-.1-1.25-.02-.45,0-.89,0-1.34,0-.25.03-.5.04-.75.01-.25.04-.5.02-.75-.02-.29-.1-.58-.14-.87-.03-.25-.05-.51-.05-.76,0-.38.06-.76.07-1.14.01-.42-.06-.85,0-1.26.07-.47.13-.92.04-1.39-.02-.09.08-.21.12-.31-.02-.07-.07-.17-.08-.27-.04-.35.06-.7,0-1.06-.08-.53-.05-1.08-.07-1.62-.02-.4-.05-.8-.08-1.21-.03-.49-.07-.97-.09-1.46,0-.12.1-.3.05-.36-.18-.23-.13-.47-.14-.73-.02-.54-.11-1.08-.11-1.63,0-1.17.02-2.34.04-3.5,0-.33.02-.67.01-1-.01-.47-.04-.94-.06-1.41-.03-.71-.08-1.43-.1-2.14-.02-.5-.04-1-.02-1.49.03-.76.13-1.52.14-2.28.01-.76-.07-1.52-.08-2.27-.01-.79,0-1.57.01-2.36,0-.31-.02-.61-.01-.92.02-.5.09-1,.07-1.5-.06-1.24-.16-2.48-.23-3.72,0-.08.09-.17.15-.23.05-.05.12-.08.19-.11,0,0,0,0,0,0,0,0,0,0,0,0,0,0,0,0,0,0,0,0,0,0,0,0,.07-.06.19-.12.19-.17-.03-.55-.08-1.1-.14-1.65-.04-.33-.16-.65-.17-.98-.02-.71-.01-1.42.01-2.13.02-.73-.04-1.47.01-2.2.02-.28,0-.57,0-.86-.02-.95-.03-1.9-.06-2.85-.01-.54-.07-1.09-.06-1.63.01-.55.09-1.09.14-1.64.02-.17.09-.34.1-.51.02-.34,0-.69,0-1.03,0-.13.03-.26.03-.39.01-.17.01-.35.02-.52,0-.1.05-.2.05-.29-.03-.5-.46-.98-.96-1.09-.05-.01-.12-.04-.14-.08-.24-.34-.5-.67-.71-1.02-.31-.51-.8-.8-1.39-.7-.34.06-.68.2-1,.34-.32.14-.65.29-.92.5-.42.34-.86.68-1.18,1.11-.25.34-.73.48-.8,1.01-.04.3-.32.58-.51.86-.15.23-.35.43-.48.66-.3.54-.56,1.09-.84,1.64-.22.43-.47.84-.68,1.27-.16.32-.23.68-.41.98-.35.57-.58,1.19-.72,1.84-.08.36-.13.73-.23,1.09-.08.3-.21.59-.29.9-.05.18,0,.41-.09.56-.16.27-.12.56-.17.83-.18.97-.32,1.94-.48,2.91-.11.66-.24,1.31-.31,1.97-.1.86-.14,1.72-.22,2.58,0,.07-.12.19-.18.19-.4,0-.15.19-.11.28-.09.17-.16.31-.23.44.02.01.04.03.06.04.1-.11.2-.23.35-.39-.15,1.16-.28,2.25-.43,3.34-.02.13-.13.24-.18.33.03.06.09.12.09.18-.06.85-.12,1.7-.19,2.55-.07.81-.16,1.61-.23,2.41-.02.17-.04.33-.04.5,0,.74.03,1.49.01,2.23-.01.56-.17,1.13-.09,1.67.07.49,0,.97.07,1.46.11.69-.01,1.4.04,2.1.07.91-.09,1.83.06,2.74.05.32,0,.65.01.98.05,1.07.1,2.14.15,3.22.01.27.07.54.09.82.01.14-.01.29-.02.49-.02,0-.1.05-.15.07.08.13.19.23.2.35.04.37.05.75.06,1.12,0,.28,0,.57,0,.85.01.38.06.75.06,1.13,0,.54-.03,1.07-.06,1.61-.02.34-.03.68-.07,1.02-.04.38-.13.76-.15,1.14-.03.5,0,1.01,0,1.51,0,.26-.07.54,0,.77.12.35.32.67.52,1,.16.27.4.46.74.49.13.01.28.09.36.19.14.18.28.25.46.14.13.17.21.38.36.46.27.14.6.19.88.31.43.19.86.38,1.25.63.26.16.44.44.66.65.27.24.55.46.86.72,0,0-.02.08-.04.16-.06.25-.22.52-.16.74.11.38.32.74.54,1.07.21.3.5.54.82.86-.24.02-.4.03-.56.04,0,.03,0,.05,0,.08.13,0,.26,0,.38,0,.09,0,.19,0,.27.05.38.21.76.3,1.19.19.22-.06.44-.23.61.1.02.05.16.04.26.06-.03-.06-.05-.1-.1-.18.16.07.27.16.39.17.58.05,1.13.22,1.66.46.25.11.53.15.8.22.1.03.24.02.28.09.05.09.07.26.03.34-.2.36-.44.7-.66,1.06-.06.11-.05.29-.26.18,0,0-.02.02-.04.03.03.04.06.09.12.18-.2.08-.37.2-.54.2-.41,0-.45,0-.48.4-.51.14-1.02.14-1.54-.01-.2-.06-.43-.05-.64-.07-.08-.01-.17-.02-.25-.05-.15-.06-.29-.14-.45-.2-.36-.13-.72-.26-1.09-.39-.25-.09-.5-.2-.79-.31v.47c-.34-.06-.22-.29-.22-.46,0-.13.04-.26.03-.38-.02-.36-.15-.74-.08-1.07.09-.44.1-.86-.02-1.29-.1-.39-.34-.46-.66-.22-.47.36-.48.9-.55,1.41-.06.49.21.9.43,1.3.36.64.69,1.29.79,2.03.05.37.24.77-.23,1.03-.08.05-.17.09-.24.13,0,.28-.03.55,0,.81.1.61.14,1.22.14,1.85,0,.59.08,1.18.15,1.76.05.39.21.46.6.34.03-.01.07,0,.12,0v.25c.15.01.29.03.35.03.22-.34.41-.64.64-1,.1.62.21,1.14-.13,1.62-.02.02-.03.05-.03.08,0,.28.02.57,0,.85,0,.11-.07.21-.11.29.02.09.07.19.07.28-.01.45-.05.9-.06,1.35-.02,1.18-.03,2.37-.04,3.55,0,.17.03.38-.06.49-.3.39.06.83-.15,1.22-.07.12,0,.31-.03.46-.04.4-.11.8-.13,1.21-.01.26.05.52.06.78,0,.06-.04.13-.06.19-.02.06-.07.13-.06.18.05.41.03.81-.1,1.21-.07.22-.08.46-.12.7-.03.09.03.19.02.29-.01.56-.03,1.12-.06,1.69,0,.12-.06.23-.07.35-.05.45-.1.9-.14,1.35-.01.12.01.3-.06.35-.29.23-.06.57-.2.83-.07.14,0,.34,0,.51,0,.21,0,.42,0,.66-.02.09-.06.21-.08.34-.02.15,0,.3-.03.45-.04.28-.1.55-.14.83-.05.36-.05.73-.12,1.09-.12.69-.3,1.37-.41,2.07-.05.33-.28.66-.05,1.03.07.12.02.35-.04.5-.03.1-.17.17-.26.24-.02-.18-.02-.37-.07-.55-.15-.47-.1-.93,0-1.39.01-.07,0-.14,0-.21-.03-.23-.09-.45-.09-.68,0-.18.09-.35.14-.52.13-.47-.11-.99.21-1.5-.16-.3-.13-.98.08-1.06-.2-.53-.11-1.38.1-1.45-.01-.16-.03-.31-.03-.45,0-.14.04-.27.05-.41.06-.64.11-1.29.17-1.93,0-.09.16-.17.16-.26.02-.2-.07-.41-.01-.6.15-.54.17-1.09.16-1.65,0-.15,0-.29.03-.44.08-.39.18-.77.25-1.16.06-.35.11-.7.13-1.06.04-.64.09-1.28.06-1.92-.02-.34,0-.64.11-.95.07-.2.13-.42.12-.63-.01-.29-.08-.58-.15-.87-.04-.18-.04-.28.16-.38.15-.08.3-.25.33-.41.1-.55-.12-1.05-.33-1.56.26-.34.17-.9-.17-1.19-.2-.17-.33-.11-.41.09-.06.16-.09.34-.12.52-.06.3-.04.65-.19.89-.22.35-.18.66-.08,1,.03.1.03.21.02.32-.02.24-.05.48-.09.71-.06.42.07.89-.3,1.24-.01.01-.03.04-.02.05.08.29-.18.52-.12.84.06.31-.1.65-.14.99-.02.14.03.29.04.43,0,.11.05.28,0,.32-.26.2-.18.46-.21.72-.02.18.18.49-.21.55-.01,0-.02.03-.03.05.08.03.16.07.2.09,0,.22.05.43-.01.59-.12.29-.06.59-.14.89-.16.6-.22,1.22-.3,1.84-.11.81-.21,1.61-.3,2.42-.02.22.07.46-.21.59-.05.03-.1.14-.1.21,0,.63-.06,1.24-.11,1.87-.1,1.21-.03,2.43-.11,3.64-.02.34-.02.69-.05,1.03,0,.05-.04.09-.05.14-.03.17-.07.33-.09.5-.03.17-.05.33-.07.5-.02.05.08.12.08.19,0,.22-.06.44-.07.66-.01.19,0,.39,0,.62-.22.24-.21.27.17.62-.13.21-.2.44-.07.68.11.21-.11.53.19.68-.02.05-.07.13-.08.2-.03.17-.03.33-.04.5,0,.04,0,.09.03.11.28.25.12.55.13.84,0,.28.04.55.07.83.03.26.09.51.12.77.08,1.02.15,2.05.24,3.07.05.57.11,1.14.22,1.71.15.76.03,1.57.38,2.3.13.27.02.58.11.82.17.48.13,1.04.51,1.45.05.05.04.15.05.23.02.1.04.21.08.3.34.81.97,1.33,1.78,1.6.62.21,1.26.44,1.95.33.06,0,.12.02.17.03.32.08.65.17.97.23.33.07.67.16,1,.16.62-.01.63.18.68-.45,0-.01.03-.02.06-.04.04.02.09.03.11.07.15.21.28.28.48.03.12-.15.34-.21.49-.34.22-.19.47-.37.62-.61.17-.28.31-.52.75-.45-.11-.15-.19-.24-.28-.36.11-.08.22-.16.33-.24.07-.05.2-.13.19-.17-.08-.25.15-.35.23-.52.15-.29.21-.59.28-.91.14-.67.35-1.31.5-1.98.17-.74.3-1.48.44-2.22.04-.19.11-.38.11-.58.02-.53,0-1.05,0-1.57.11-.02.18-.04.17-.03.03-.27.06-.49.07-.72ZM48.26,66.24s.08,0,.08.01c.01.13.06.27.02.39-.05.14-.16.33-.27.36-.16.04-.36-.05-.56-.09.05-.22.51-.65.73-.66ZM47.58,19.27c.1.39.19.79.27,1.18.01.08-.04.17-.07.25-.46-.07-.46-.08-.46-.55,0-.27-.03-.55-.03-.82,0-.06.08-.13.12-.19.06.04.17.08.18.13ZM47.17,15.59c-.09-.66.13-1.28.14-1.92,0-.03.02-.05.03-.08.04,1.83.07,3.64.11,5.48-.17-.02-.24-.07-.23-.28,0-.41-.07-.83-.07-1.24,0-.65.11-1.32.02-1.96ZM35.23,44.63c-.03-.36-.06-.72-.08-1.1.25.18.31.89.13,1.13-.02-.01-.04-.02-.04-.03ZM40.71,60.67c-.23-.32-.39-.59-.59-.82-.35-.39-.71-.78-1.11-1.13-.2-.18-.48-.29-.74-.37-.44-.14-.89-.26-1.34-.34-.24-.04-.51.04-.76.04-.09,0-.25-.08-.27-.15-.12-.54-.29-1.09-.3-1.64-.02-.67.1-1.35.15-2.02.02-.33.03-.66.03-.99,0-.65,0-1.3-.02-1.95-.01-.33-.09-.66-.1-.99-.01-.34-.17-.68,0-1.02.02-.03-.02-.09-.02-.13-.05-.41-.24-.82-.05-1.25.02-.04-.03-.1-.05-.16-.04-.17-.08-.33-.11-.5-.03-.14-.04-.29-.06-.43-.04-.41-.1-.83-.12-1.24-.02-.3,0-.6,0-.9.06.04.17.08.18.13.14.75.25,1.5.41,2.25.1.46.27.91.38,1.37.1.42.18.85.26,1.27.14.75.3,1.51.41,2.26.06.37.03.75.06,1.12.07.8.15,1.6.25,2.39.02.17.15.34.24.5.34.61.99.87,1.45,1.34.51.52.99,1.07,1.45,1.62.28.34.48.74.5,1.2,0,.16-.09.32-.15.54ZM46.78,64.06c-.64-.14-1.24-.32-1.85-.38-.6-.06-1.2-.33-1.82-.06-.7-.46-.83-1.13-.62-1.93-.24-.08-.26-.21-.14-.41.11-.18.08-.37.02-.58-.09-.3-.08-.63-.19-.91-.19-.45-.41-.88-.81-1.22-.29-.24-.46-.63-.7-.93-.13-.16-.3-.28-.44-.42-.1-.1-.18-.23-.27-.34-.05-.06-.11-.11-.16-.17-.28-.3-.53-.64-.86-.88-.76-.53-.73-1.39-.96-2.13-.28-.93-.45-1.88-.66-2.83-.09-.41-.12-.83-.2-1.23-.08-.36-.25-.7-.28-1.05-.06-.69-.34-1.31-.48-1.97-.17-.8-.35-1.6-.49-2.4-.1-.54-.15-1.08-.23-1.62-.04-.27-.1-.54-.18-.81-.03-.11-.11-.21-.14-.26.03-.12.06-.19.05-.26-.06-.56-.13-1.12-.2-1.68-.02-.18-.09-.35-.1-.53-.02-.54,0-1.08-.03-1.62-.04-.75-.12-1.5-.15-2.26-.02-.65,0-1.29.03-1.94.01-.3.08-.59.09-.89,0-.13-.1-.28-.06-.38.15-.34-.06-.66.01-.99.06-.3.08-.61.17-.9.04-.11.04-.17,0-.27-.05-.1-.06-.23-.05-.35.03-.42.07-.83.1-1.25.04-.48.06-.96.1-1.44.06-.67.14-1.34.2-2.02.06-.68.11-1.36.18-2.04.01-.11.08-.21.11-.32.02-.1.01-.2.02-.3.03-.24.06-.48.09-.72.06-.46.1-.93.17-1.39.04-.25.16-.48.19-.73.08-.59.11-1.19.2-1.78.08-.52.2-1.03.31-1.55.09-.43.2-.85.31-1.27.09-.34.2-.67.3-1,.1-.3.22-.59.31-.89.21-.66.4-1.33.63-1.98.12-.33.31-.63.46-.95.24-.52.45-1.06.69-1.57.17-.35.38-.67.58-1.01.12-.2.23-.41.36-.61.45-.71.89-1.44,1.37-2.13.34-.49.7-1,1.15-1.38.4-.35.92-.55,1.4-.79,0,0,.02,0,.03,0,0,0,.01,0,.02,0,.18-.06.37-.08.56-.07.02-.02.03-.04.05-.07.04.03.08.06.12.09.32.06.61.23.83.48.09.11.18.22.26.34,0,0,0,0,0,0,.01.01.02.02.03.04,0,0,0,0,.01.01,0,0,.02.01.03.02.08.04.16.07.24.12.15.1.27.23.36.39.15.28.15.58.1.89-.02.1-.04.2-.07.3-.01.05-.02.1-.03.15,0,.02,0,.05-.01.07,0-.02,0-.02,0-.04,0,.02-.01.04-.02.07-.05.46-.1.91-.02,1.32.12.57-.04,1.11,0,1.66.04.57-.06,1.16-.06,1.74,0,.34.06.69.08,1.03.05.91.09,1.83.13,2.74,0,.16,0,.33-.05.47-.09.24-.06.46.03.68.01.03.05.08.04.1-.27.33-.1.71-.14,1.06-.04.36-.08.72-.08,1.08,0,.7.03,1.4.06,2.09.02.5.07.99.09,1.49,0,.06-.08.13-.14.17-.05.03-.13.03-.18.12.04.01.09.03.13.03.25-.02.29.1.27.33-.05.7-.05,1.4.18,2.09.05.16-.01.36,0,.54,0,.09.07.18.07.26-.02.24-.06.47-.08.7,0,.06.07.14.06.19-.05.17-.13.32-.17.43.06.12.12.21.16.31.02.06,0,.14,0,.21-.08.52-.09,1.04-.08,1.57.01.87-.08,1.75-.14,2.63-.01.21-.08.42-.08.63,0,.22.07.44.09.66.07.71.11,1.43.05,2.15-.04.56,0,1.13,0,1.7,0,.06,0,.14-.02.17-.27.23-.18.52-.18.82,0,.28-.07.56-.08.85,0,.15.07.31.09.46.07.42.14.83.19,1.25.01.1-.07.2-.12.34.02.04.1.15.1.26-.01.74-.04,1.48-.07,2.21-.02.34-.14.69-.07,1.01.09.42-.04.82-.02,1.22.03.55.09,1.11.15,1.66.12,1.05.26,2.09.38,3.14.15,1.3.23,2.61.18,3.92-.04.9.01,1.8.01,2.7,0,.62,0,1.25-.01,1.87-.02.89,0,1.78-.08,2.66-.09.88-.28,1.75-.43,2.63-.09.53-.17,1.06-.25,1.59ZM41.61,73.35c-.01.09-.04.18-.06.27-.08-.05-.16-.1-.25-.16.08-.07.12-.11.18-.17-.16-.12-.3-.22-.12-.43.05-.07-.08-.28-.12-.42.03-.01.07-.02.1-.03.29.15.18.46.27.69.03.08.01.18,0,.26ZM41.66,71.66c0,.11-.02.21-.04.34-.08-.05-.14-.09-.22-.14.04-.11.08-.23.13-.4-.05-.03-.13-.07-.26-.13.13-.05.18-.07.19-.07-.03-.2,0-.41-.1-.56-.16-.26-.06-.55-.17-.78-.09-.2.04-.35.03-.53-.03-.41-.29-.63-.49-.91-.15-.22-.28-.45-.41-.68.02-.01.04-.02.07-.04.54.23,1.09.46,1.67.7-.13.2-.2.32-.28.44-.02-.02-.04-.03-.07-.05.03.15.11.32.08.46-.02.11-.16.2-.25.3.25,0,.23.16.21.39-.05.55-.05,1.11-.08,1.66ZM40.4,113.23c-.12-.11-.25-.19-.33-.3-.06-.1-.06-.24-.09-.38.02,0,.06,0,.11-.02,0-.02,0-.03-.01-.04-.1-.14-.24-.27-.3-.43-.14-.34-.1-.71-.15-1.07-.04-.29-.05-.59-.11-.88-.02-.09-.13-.16-.21-.26.15-.04.2-.1.12-.32-.1-.3-.06-.65-.09-.98-.03-.41-.11-.82-.1-1.23,0-.33-.13-.67.07-.99.03-.05,0-.13,0-.2-.01-.4,0-.8-.05-1.19-.07-.56-.02-1.13-.18-1.7-.09-.35-.02-.74-.02-1.11.02,0,.05-.02.07-.03.15.27.3.54.48.86.08-.18.12-.27.16-.35h.07c.05.22.12.43.14.64.08.62.16,1.23.21,1.85.03.49,0,.99.01,1.48,0,.23.06.47.14.69.03.08.18.11.22.13,0,1.3.03,2.54.22,3.77-.22.15-.44,1.69-.25,1.95-.05.04-.11.08-.13.1ZM40.98,116.88c-.06-.38-.21-.75-.32-1.13-.02-.06-.02-.11-.03-.17.03-.03.05-.05.08-.08.07.07.16.13.21.21.36.59.47,1.26.67,1.91.05.15.08.3.13.52-.38-.4-.66-.75-.74-1.26Z"/>
      <path class="cls-1" d="M47.19,98.22c-.02-.18-.03-.37-.05-.55-.04-.45-.07-.89-.13-1.34-.05-.33.09-.66-.06-1-.1-.24-.01-.55-.05-.82-.07-.43-.18-.85-.27-1.28,0-.02-.02-.04-.01-.06.02-.29.06-.58.06-.87,0-.58-.02-1.16-.03-1.74,0-.41-.03-.83-.03-1.24,0-.79,0-1.58-.02-2.37,0-.22-.07-.44-.08-.66,0-.15.05-.31.07-.46.02-.11.07-.25.03-.33-.29-.51-.08-1.07-.21-1.6-.13-.53-.12-1.09-.18-1.64,0-.08-.07-.14-.11-.22.02-.04.09-.12.08-.18-.08-.63-.19-1.26-.26-1.89-.05-.39-.08-.78-.07-1.17.01-.62.09-1.23.08-1.85,0-.54.05-1.05.13-1.58.07-.42.25-.87.11-1.34-.06-.2.07-.44.07-.67,0-.16-.08-.31-.13-.46-.03,0-.06,0-.08.01.08-.1.16-.19.26-.31-.1-.05-.18-.08-.18-.08.03-.14.08-.26.07-.37,0-.16-.1-.31-.08-.46.01-.15.08-.34.18-.42.14-.12.36-.15.5.04.11.14.19.29.29.44.04.06.08.1.12.16.03.04.07.08.07.12-.04.38-.11.76-.13,1.15-.02.54.01,1.09-.01,1.63-.02.34-.08.68-.15,1.01-.11.54-.3,1.08-.35,1.63-.06.61-.03,1.23,0,1.84.02.44.13.87.18,1.31.01.12-.05.25-.07.34.07.34.15.65.19.98.06.47.09.94.15,1.41.03.23.15.41.06.69-.08.25-.07.65.2.83-.02.31-.07.59-.04.86.03.26.15.5.24.75.03.08.09.16.15.28-.05.02-.14.06-.24.1.07.65.15,1.31.19,1.96.02.23-.06.46-.07.69,0,.2.02.39.07.59-.19.36-.29.47-.05.7.01.21-.02.35.03.46.15.32.22.63.09.98-.05.14.04.34.07.51.05.33.11.67.15,1.01.03.26.04.52.06.77.06.8.12,1.59.19,2.39,0,.11.1.21.16.32-.02.02-.06.05-.12.1.13.1.25.19.41.32h-.4c.04.92.07,1.83.11,2.73-.05.01-.1.03-.15.04-.07-.13-.14-.26-.22-.39-.03-.05-.09-.1-.14-.13-.02,0-.1.04-.11.07-.01.05,0,.12.02.16.06.09.15.16.19.26.07.17.17.35-.13.43-.11.03-.25.15-.12.32.18.23.13.42-.05.56.02.13.05.22.05.31,0,.58-.14,1.16.03,1.75.06.23-.05.5-.05.76,0,.6,0,1.2.04,1.79.04.56.13,1.12.18,1.68,0,.09-.05.18-.08.28.24.12.06.35.09.53.02.14.02.28.03.48-.22.11-.22.31-.09.59.05.11-.11.3-.18.46-.03,0-.05-.01-.08-.02,0-.3,0-.59,0-.89,0-.02,0-.04,0-.06-.28-.78,0-1.57-.07-2.36-.08-.8-.06-1.6-.08-2.41,0-.17.04-.34.03-.5,0-.15-.04-.31-.05-.46-.02-.42-.02-.85-.03-1.27,0-.43.02-.87,0-1.3-.05-.79-.13-1.57-.19-2.35-.01-.16,0-.31,0-.47,0-.01,0-.03.01-.04Z"/>
      <path class="cls-1" d="M48.56,99.2c.25-.35.43.02.71.05-.11.02-.19.04-.27.06.02.03.04.06.06.1.05.04.11.07.16.11-.31.42.35.61.24.99-.02.06.1.16.16.23-.05.04-.13.11-.21.17.08.05.16.09.19.11.1.16.2.29.27.42.02.05,0,.16-.03.18-.14.08-.31.2-.45.18-.12-.02-.27-.19-.3-.32-.19-.76-.36-1.53-.53-2.29Z"/>
      <path class="cls-1" d="M47.85,110.96v1.26c-.1.03-.19.05-.27.07-.08-.23-.15-.45-.21-.63.1-.4.19-.78.28-1.16.02,0,.05,0,.07.01-.02.11-.04.22-.07.35.09.04.17.08.19.09Z"/>
      <path class="cls-1" d="M47.32,113.27c.09.2.15.34.23.52-.04,0,.01,0,.07-.01.01.35-.23.46-.54.57-.02-.15-.05-.29-.07-.46-.03,0-.11,0-.27-.02.2-.21.36-.36.58-.6Z"/>
      <path class="cls-1" d="M12.44,114.82c-.17.12-.33.25-.51.36-.18.12-.37.22-.55.33-.06-.36.23-.58,1.06-.69Z"/>
      <path class="cls-1" d="M48.69,67.84c.14-.38.25-.7.36-1.01l.11.03c-.02.15-.02.3-.05.44-.03.12-.05.21-.02.34.04.23-.2.15-.4.2Z"/>
      <path class="cls-1" d="M2.64,23.03c-.03.68-.07,1.37-.1,2.14-.11-.32-.19-.58-.29-.87.36-.18.18-.62.3-.96.03-.1.03-.21.05-.31.02,0,.03,0,.05,0Z"/>
      <path class="cls-1" d="M2.33,25.66c.02-.2.04-.33.05-.46.03,0,.07,0,.1,0-.06.13.25.28-.15.46Z"/>
    </g>
  </g>
</svg>