<?xml version="1.0" encoding="UTF-8"?>
<svg id="Layer_2" data-name="Layer 2" xmlns="http://www.w3.org/2000/svg" viewBox="0 0 66.54 98.55">
  <defs>
    <style>
      .cls-1 {
        fill: #000;
        stroke-width: 0px;
      }
    </style>
  </defs>
  <g id="illustrations">
    <g>
      <path class="cls-1" d="M18.37,97.45c.14.19.27.38.45.63-.18.02-.3.04-.41.03-.19-.02-.39-.1-.57.06-.03.03-.14.03-.15.02-.18-.34-.44-.06-.65-.08-.14-.01-.28,0-.42,0-.06,0-.13-.03-.18,0-.5.2-.95.07-1.23-.29-.12-.06-.3-.08-.36-.18-.16-.26-.41-.37-.67-.48-.17-.07-.32-.18-.49-.26-.1-.05-.22-.08-.31-.15-.28-.22-.59-.1-.9-.12-.35-.03-.7-.22-1.03-.38-.34-.17-.69-.34-.95-.6-.26-.27-.67-.4-.78-.83-.03-.11-.19-.2-.31-.28-.19-.13-.38-.25-.57-.37-.07-.04-.16-.07-.23-.12-.08-.05-.21-.1-.23-.18-.17-.48-.64-.67-.91-1.05-.27.16-.06.3-.07.47-.14-.15-.28-.3-.43-.45,0-.01.02-.02.02-.03.04.03.08.06.08.06,0-.15,0-.3,0-.45.11.04.22.09.32.13-.17-.26-.42-.51-.5-.8-.12-.41-.47-.59-.7-.9-.13-.18-.45-.23-.68-.33-.1-.04-.2-.07-.29-.12-.33-.2-.67-.4-.98-.62-.16-.12-.3-.28-.4-.45-.15-.23-.46-.3-.55-.59-.04-.12-.11-.24-.16-.36-.06-.15-.12-.3-.18-.46-.06-.15-.13-.3-.18-.46-.2-.67-.42-1.33-.59-2.01-.07-.29-.11-.6-.07-.89.06-.46-.19-.86-.19-1.3,0-.08-.09-.16-.15-.23-.03-.04-.1-.06-.12-.1-.09-.31-.39-.47-.54-.73-.15-.25-.3-.52-.39-.8-.21-.64-.41-1.29-.57-1.95-.07-.29-.01-.62-.03-.93-.01-.34-.11-.69-.06-1.01.13-.78.03-1.55,0-2.32-.02-.64-.19-1.3.05-1.95.13-.34.19-.7.28-1.05.11-.48.27-.96.31-1.45.07-.85.32-1.65.68-2.41.15-.31,0-.58-.03-.87-.03-.51-.16-1.02-.17-1.53,0-.35.1-.72.21-1.06.32-.97.67-1.92,1.01-2.88.3-.85.63-1.69,1.14-2.45.15-.22.26-.49.36-.74.19-.46.61-.65.99-.89.27-.17.58-.28.83-.47.19-.16.32-.4.47-.61.36-.55.69-1.12,1.06-1.66.46-.67.88-1.38,1.43-1.97.58-.64.93-1.42,1.47-2.07.27-.32.35-.78.74-1,.01,0,.03-.03.03-.04-.1-.55.4-.63.69-.87.19-.16.41-.3.6-.46.06-.05.11-.13.11-.2.02-.42.35-.61.64-.74.41-.19.66-.55,1-.8.08-.06.18-.11.24-.19.04-.06.04-.16.05-.23.05-.04.13-.07.18-.13.42-.52.84-1.04,1.27-1.56.09-.11.23-.17.32-.27.15-.18.28-.38.42-.58.04-.06.07-.13.12-.18.39-.39.79-.76,1.16-1.16.41-.43.79-.9,1.2-1.34.16-.17.37-.29.53-.46.51-.54,1.02-1.09,1.5-1.66.26-.3.46-.65.68-.98.02-.03.04-.06.07-.07.48-.11.52-.59.75-.9.15-.2.25-.43.38-.63.02-.03.14.01.23.02-.11-.17-.1-.29.11-.38.12-.05.2-.19.29-.3.31-.38.59-.78.93-1.14.52-.56,1-1.19,1.77-1.44.08-.03.15-.09.22-.15.4-.35.8-.7,1.2-1.07.05-.05.05-.15.08-.27.35,0,.64-.17.83-.54.06-.11.2-.16.3-.25.06-.06.12-.13.14-.21.06-.03.15-.05.19-.1.12-.16.24-.32.34-.49.07-.12.12-.25.19-.37.05-.09.09-.22.18-.25.4-.18.54-.57.76-.9.11-.17.23-.34.33-.51.12-.2.25-.37.28-.63.05-.41.33-.74.68-.96.54-.33,1.12-.58,1.76-.71.31-.07.63-.15.94-.23.45-.12.8-.45,1.09-.83.19-.24.42-.45.64-.67.09-.09.2-.17.3-.25.29-.22.62-.18.91-.06.38.15.65.03.92-.24.16-.16.36-.28.52-.44.12-.12.19-.27.29-.4.02-.03.07-.1.08-.09.29.08.24-.17.31-.32.22.12.36.08.36-.19.28.06.4-.12.57-.29.26-.25.16-.59.33-.86.08-.13.25-.27.11-.49-.02-.04.15-.18.2-.29.12-.32.23-.64.33-.97.13-.45.23-.9.35-1.35.06-.23.12-.47.18-.7.02-.06.03-.14.07-.17.28-.18.28-.5.37-.77.18-.57.31-1.16.63-1.68.12-.19.17-.45.19-.68.01-.15.09-.21.16-.32.13-.19.2-.43.29-.65.08-.21.16-.43.23-.65.28-.91.56-1.81.84-2.72.1-.32.23-.63.32-.96.2-.74.37-1.49.58-2.23.08-.28.27-.54.34-.82.09-.34.1-.7.16-1.04.03-.18.09-.35.14-.52.02-.06.06-.11.07-.17.04-.41.28-.7.67-.84.18-.06.3,0,.37.16.1.23.14.46,0,.69-.38.63-.45,1.34-.53,2.04-.03.27-.12.5-.19.75-.12.45-.2.91-.32,1.36-.09.32-.22.63-.33.94-.05.14-.1.29-.16.43-.13.32-.28.64-.39.96-.15.43-.28.86-.42,1.29-.01.04-.04.07-.06.11-.08.15-.18.29-.24.45-.22.57-.43,1.14-.64,1.72-.05.14-.04.31-.09.45-.24.71-.49,1.41-.74,2.12-.05.13-.07.27-.09.41-.13.86-.53,1.63-.8,2.45-.18.56-.45,1.09-.67,1.63-.03.06-.02.13-.05.29.15-.14.25-.21.33-.31.12-.14.23-.3.35-.44.03-.03.09-.03.13-.04.05-.01.12,0,.15-.03.29-.36.74-.56.96-1,.07-.14.26-.23.39-.35.3-.26.6-.51.89-.78.23-.22.44-.46.66-.69.12-.14.22-.3.35-.43.25-.24.53-.45.79-.69.1-.1.17-.24.28-.33.15-.12.33-.19.49-.3.05-.03.09-.11.11-.17.09-.23.25-.39.49-.48.12-.04.23-.13.32-.23.26-.3.66-.48.78-.9.02-.06.15-.14.21-.13.22.06.39.02.49-.2.01-.02.03-.05.05-.06.32-.18.65-.36.97-.55.09-.05.22-.09.26-.17.16-.3.45-.43.72-.58.12-.07.2-.21.32-.3.41-.33.82-.66,1.25-.96.36-.25.75-.46,1.12-.71.15-.1.27-.23.39-.35.24-.23.47-.47.71-.69.12-.11.25-.2.39-.27.44-.22.55-.65.73-1.05.18-.38.42-.72.63-1.08.28-.47.52-.97.83-1.42.21-.31.32-.7.67-.9.05-.03.09-.09.11-.15.29-.82.59-1.64.87-2.46.18-.54.34-1.1.51-1.65,0-.03.03-.06.05-.1.14.09.26.18.43.3.06-.17.1-.31.15-.44.06-.15.12-.28.33-.27.24.02.34.14.32.36-.01.17-.03.35-.1.49-.39.69-.45,1.51-.8,2.19-.49.95-.7,2.04-1.48,2.84-.2.21-.3.52-.44.78-.26.46-.52.91-.77,1.37-.05.1-.09.2-.16.35.78-.27,1.2-.89,1.83-1.33.17.09.31.03.37-.22.01-.06.08-.12.14-.15.49-.29.98-.58,1.46-.88.05-.03.06-.11.05-.1.16-.06.25-.1.35-.13.13-.05.27-.08.39-.15.1-.05.16-.16.25-.22.22-.14.46-.25.68-.39.13-.09.23-.22.35-.32.1-.08.21-.22.32-.22.34.02.51-.24.73-.4.08-.06.14-.13.22-.22.26.2.49-.02.72-.1.2-.06.36-.14.41.15,0,.04.05.08.08.1.16.09.25.23.2.42-.04.14-.46.39-.61.37-.37-.04-.68.17-.82.52-.03.07-.13.13-.21.17-.3.13-.66.19-.91.38-.25.19-.53.32-.77.52-.17.14-.47.12-.7.2-.26.09-.51.2-.74.35-.6.39-1.17.81-1.76,1.21-.15.1-.31.16-.47.25-.47.28-.96.55-1.41.87-.73.54-1.33,1.2-1.76,2.02-.21.39-.55.71-.82,1.07-.31.41-.73.72-.94,1.23-.12.28-.43.48-.63.74-.27.34-.51.69-.77,1.04-.29.39-.65.74-.86,1.17-.23.46-.5.86-.87,1.22-.29.28-.52.63-.77.95-.07.08-.16.14-.22.22-.17.22-.27.48-.49.69-.41.39-.78.82-1.15,1.24-.41.48-.81.97-1.21,1.45-.05.06-.1.12-.15.19-.07.11-.15.19-.1.37.04.13-.04.35-.14.46-.33.36-.48.8-.65,1.24-.06.15-.14.29-.2.44.02.02.03.03.05.05.3-.2.6-.41.9-.61.04-.02.06-.07.1-.08.55-.16.89-.61,1.27-1,.51-.52,1.14-.87,1.82-1.09.25-.08.54-.04.81-.07.08,0,.16-.07.24-.1.18-.03.37-.05.6-.08.03.04.11.14.16.21-.04.17-.04.38-.13.46-.19.16-.11.42-.28.57-.04.04-.12.04-.19.06.01.22-.08.35-.29.45-.23.11-.38.28-.5.55-.12.27-.41.47-.62.71-.11.13-.22.26-.33.39-.03.03-.03.1-.06.11-.46.15-.66.56-.92.9-.09.11-.31.12-.48.16-.05.01-.11-.01-.25-.03.32.24.2.36.02.52-.32.29-.61.63-.9.94-.02-.27.2-.58.49-.73.04-.17.04-.28.1-.35.41-.52.83-1.02,1.24-1.54.06-.08.05-.22.08-.33-.02,0-.05-.02-.07-.02,0-.01.02-.04.03-.04.39.1.41-.27.55-.45.29-.37.56-.76.83-1.14.03-.04.04-.09.06-.14-.01-.02-.03-.04-.04-.07-.31.16-.63.32-.94.49-1.16.62-2.05,1.59-3.09,2.36-.14.1-.32.15-.49.21-.04.02-.1.02-.12.05-.21.28-.42.56-.63.84-.1.13-.22.25-.3.39-.29.48-.56.97-.86,1.44-.05.09-.22.1-.33.15-.01-.1-.06-.22-.02-.3.27-.52.57-1.03.85-1.54.01-.02.03-.04.04-.07.07-.57.47-1.02.6-1.56.05-.21.07-.42.19-.6.2-.31.42-.61.6-.92.18-.32.33-.66.46-1.04-.09.06-.2.11-.28.19-.21.22-.4.47-.63.68-.37.35-.76.67-1.12,1.02-.08.08-.11.22-.19.31-.16.18-.35.35-.52.53-.32.36-.64.73-.95,1.09-.03.04-.03.11-.05.17-.2.11-.43.18-.58.33-.35.35-.67.72-.97,1.12-.28.37-.53.78-.77,1.18-.13.21-.17.48-.31.69-.23.35-.52.67-.77,1.01-.25.34-.37.66-.35.9.02-.02.05-.03.06-.05.73-.9,1.46-1.8,2.18-2.71.21-.26.39-.56.59-.82.12-.16.27-.31.41-.46.09-.1.2-.19.3-.29-.07-.06-.12-.1-.11-.1.11-.3.21-.55.3-.8.11.04.21.11.32.11.12,0,.27-.01.36-.08.16-.13.27-.32.42-.46.07-.07.19-.09.28-.14.02.02.04.04.06.06-.13.24-.23.5-.39.73-.83,1.15-1.67,2.29-2.51,3.44-.12.17-.24.35-.38.51-.32.39-.65.78-.98,1.17-.03.04-.09.1-.12.09-.43-.09-.59.29-.82.51-.1.1-.05.36-.06.55,0,.07-.01.14-.02.21-.35-.05-.59.11-.78.4-.16-.37-.31-.71-.45-1.06-.02-.06-.02-.18.02-.21.14-.1.15-.22.12-.36-.03-.13.03-.22.12-.34.17-.23.29-.5.4-.76.2-.48.32-1,.68-1.4.14-.16.31-.31.44-.48.07-.09.09-.22.12-.34.04-.13.04-.26.1-.38.15-.32.34-.63.47-.96.1-.27.12-.57.21-.85.11-.38.24-.75.36-1.11-.33.03-.68.03-.89.41-.08.14-.5.13-.61.04-.21-.18-.27-.48-.1-.73.3-.44.62-.86.94-1.28.03-.03.05-.07.1-.15-.49-.02-.8.3-1.16.49-.38.2-.76.39-.95.83-.17.39-.41.74-.62,1.11-.03-.01-.06-.03-.09-.04,0-.12-.04-.25,0-.36.06-.22,0-.4-.08-.6-.09-.2-.06-.39.06-.58.09-.13.14-.29.21-.43-.34-.25-.7-.19-.95.11-.19.23-.42.42-.62.64-.06.07-.06.18-.11.33-.22.17-.5.38-.78.6.25.32.25.78.76.92-.12-.17-.22-.3-.36-.5.11.03.18.03.21.06.28.27.62.5.64.95,0,.05.02.11.05.15.26.32.1.65.05.99-.07.44-.12.87-.17,1.31,0,.03.03.06.05.1.29-.13.3-.54.65-.63-.08-.16-.07-.31.17-.39.06-.02.09-.15.14-.21.15-.18.3-.36.45-.54.23-.28.44-.58.69-.84.1-.11.28-.15.39-.2.02.15.08.29.04.39-.07.19-.18.38-.31.53-.22.24-.55.42-.56.76-.01.41-.3.56-.54.77-.49.44-.98.9-1.48,1.33-.15.13-.35.19-.52.31-.29.19-.55.43-.85.59-.31.17-.66.26-.99.39-.06.02-.11.05-.17.08.45.4,1,.33,1.54.36.03-.02.1-.07.17-.08.25-.05.5-.1.75-.12.09,0,.25.04.28.11.14.3.26.62.38.93.03.08.04.17.06.25-.18-.03-.36-.05-.56-.08,0,.13,0,.2,0,.34-.1-.08-.15-.13-.22-.19-.04.06-.08.11-.12.16.05.06.1.1.14.15-.06.01-.12.02-.18.03-.04,0-.1-.02-.13,0-.2.16-.39.35-.6.5-.13.09-.29.14-.43.21-.03.01-.08.02-.09.05-.12.3-.33.41-.66.46-.32.05-.62.24-.92.37-.02,0-.05.01-.12.03.18-.22.21-.52.59-.5-.13-.24,0-.36.16-.49.21-.17.38-.39.6-.56.21-.16.45-.29.68-.41.23-.12.47-.21.71-.32.05-.02.07-.1.1-.16-.06-.01-.15-.05-.18-.03-.18.16-.29.08-.4-.11-.13.23-.28.35-.52.18-.03-.02-.1-.03-.14-.01-.22.11-.36.01-.52-.13-.05-.05-.18-.08-.23-.05-.41.27-.92.1-1.06-.36-.07-.24-.22-.33-.47-.21-.32.16-.52,0-.73-.17-.27-.22-.53-.39-.92-.36-.35.02-.71-.11-1.06-.15-.09-.01-.18.03-.27.05.06.06.12.11.22.2-.01.04-.05.12-.06.2-.02.09-.05.2-.01.27.07.13.17.27,0,.37-.15.08-.34.1-.51.13-.02,0-.06-.06-.09-.08-.19.17-.35.36-.53.28-.26.11-.45.19-.65.28.11.19.03.27-.19.31-.14.02-.28.1-.42.16-.17.07-.31.23-.54.12-.07-.03-.22.06-.3.13-.46.44-.93.86-1.34,1.34-.3.35-.52.77-.79,1.15-.47.64-.93,1.28-1.43,1.9-.65.81-1.32,1.62-2.01,2.4-.42.48-.96.87-1.33,1.39-.25.35-.65.53-.86.91-.1.18-.26.31-.39.47-.26.31-.51.63-.77.94-.1.13-.22.24-.39.43.53-.1.84.2,1.17.43.44.31.91.6,1.27.99.55.59,1.08,1.19,1.37,1.99.32.91.83,1.74,1.39,2.53.17.25.48.4.7.65-.08-.04-.15-.09-.23-.12-.04-.01-.09,0-.14,0,0,.04,0,.09.01.12.07.1.15.2.24.28.33.29.67.57,1.04.88-.1,0-.16,0-.24,0,.03.04.04.06.06.07.2.09.4.17.59.27.41.22.83.42,1.22.68.45.3.98.25,1.46.41.38.12.73.34,1.07.54.33.19.67.35,1.06.33.09,0,.2-.01.28.03.48.25,1,.11,1.5.16.12.01.26-.13.4-.19.27-.12.55-.22.82-.34.19-.09.38-.19.56-.3.49-.31.97-.63,1.4-1.04.26-.25.4-.59.68-.82.28-.22.5-.52.72-.81.65-.83,1.29-1.67,1.94-2.49.21-.27.47-.49.71-.74.05-.05.12-.11.12-.17.04-.39.33-.64.58-.82.28-.2.42-.45.56-.72.03-.06.04-.12.04-.12.15-.08.28-.11.36-.19.26-.26.52-.52.74-.81.21-.27.36-.57.55-.85.09-.14.19-.27.29-.41-.07-.06-.17-.15-.28-.25.16-.23.33-.46.5-.7-.2-.19-.12-.32.06-.45.11-.09.19-.22.28-.33.15-.18.3-.35.44-.54.06-.09.09-.2.14-.3.03-.06.04-.13.06-.19.03-.11.06-.21.1-.34,0,0,.06.02.16.04.14-.41.27-.84.43-1.24.2-.5.28-1.01.36-1.53.06-.39.25-.76.38-1.15.07-.21.16-.43.2-.65.04-.25.05-.51.06-.76.03-.61.27-1.18.24-1.8,0-.17.1-.35.17-.52.22-.47.44-.95.67-1.41.06-.13.25-.24.25-.35,0-.32.17-.55.34-.76.12-.14.1-.5.44-.39.15-.23-.14-.63.2-.68.13-.22.22-.37.31-.52.03.01.07.02.1.03.03.17.05.34.1.51.05.17.13.32.17.49.02.07,0,.18-.06.22-.22.18-.35.65-.24.91.03.07.06.17.03.24-.29.73-.59,1.45-.88,2.18-.05.12-.04.27-.08.48.36-.25.65-.46.95-.66.11-.07.23-.13.36-.16.43-.11.68-.46.98-.73.06-.05.1-.13.16-.16.53-.3,1.07-.59,1.6-.9.35-.2.69-.43,1.04-.64.16-.1.34-.17.5-.27.32-.2.64-.42.96-.62.32-.2.63-.4.96-.57.45-.23.92-.41,1.37-.63.15-.07.26-.22.41-.29.48-.23.99-.4,1.45-.66.68-.38,1.41-.65,2.13-.92.25-.1.5-.19.76-.28.06-.02.14.03.21.03.16.02.33.01.49.04.07.01.19.09.2.14.02.35.01.71.01,1.06,0,.15-.08.23-.23.23-.18,0-.32.06-.28.29-.14,0-.26,0-.34-.01-.03.06-.05.15-.08.16-.17.02-.34.01-.51.04-.11.02-.23.05-.34.1-.11.05-.21.13-.35.22-.07.14-.17.33-.22.43-.37.06-.64.1-.91.14v.1c.1.05.2.09.3.14-.07.07-.14.13-.24.23-.05-.06-.12-.16-.22-.27-.12.11-.22.21-.34.32-.05-.06-.1-.11-.17-.2-.26.58-.8.59-1.29.72h0c-.09-.15-.02-.25.11-.34.73-.49,1.45-.98,2.17-1.47.4-.27.81-.54,1.21-.82.08-.06.14-.14.24-.25-.35.08-.73.06-.89.24-.17.19-.43,0-.53.24-.12.25-.4.25-.62.36-.2.1-.4.23-.6.33-.08.04-.2.09-.27.06-.26-.11-.35.11-.51.21-.18.12-.37.22-.56.32-.84.44-1.68.86-2.51,1.32-.44.24-.84.55-1.26.82-1.32.85-2.58,1.79-3.94,2.57-.59.34-1.09.85-1.67,1.31.15.07.24.11.38.17-.14.07-.22.12-.26.14-.03.13-.03.23-.07.31-.11.23-.25.44-.33.68-.09.24-.12.51-.18.76-.07.33-.1.66-.2.98-.15.5-.35.98-.53,1.47,0,.02-.02.05-.03.07-.18.31-.36.62-.55.93-.24.39-.5.77-.75,1.16-.29.44-.59.89-.88,1.33.02.02.05.04.07.06.33-.17.65-.35.99-.51.25-.12.52-.22.77-.34.16-.08.29-.19.44-.27.48-.25.96-.5,1.45-.72.31-.14.65-.23.98-.34.08-.02.17,0,.19,0,.19-.11.32-.21.48-.27.3-.1.61-.2.92-.26.59-.12,1.19-.21,1.78-.32.09-.02.17-.04.25-.08.22-.09.44-.15.57.05.21-.09.38-.19.57-.24.1-.03.22.04.33.05.08,0,.16,0,.24-.03.12-.03.25-.06.37-.11.24-.11.35.02.45.23.45-.45,1.05-.19,1.55-.39.16-.07.34.17.55-.01.14-.12.34-.17.57-.28-.1.31.08.33.24.33.21,0,.28.08.29.27.02.21.08.41.11.62.05.34-.19.56-.38.78-.16.19-.41.26-.53.51-.04.08-.21.09-.32.15-.42.21-.84.42-1.25.63-.15.07-.3.14-.44.23-.61.41-1.21.85-1.83,1.25-.32.2-.68.34-1.02.51-.14.07-.27.15-.41.21-.64.27-1.28.54-1.92.78-.37.14-.78.19-1.14.35-.35.15-.7.19-1.06.2-.03,0-.06,0-.08.02-.2.26-.53.32-.8.41-.34.12-.52.42-.81.55-.37.17-.55.48-.78.77-.11.13-.24.25-.44.03-.07.14-.14.27-.2.4-.36.13-.63.33-.82.72-.19.38-.53.68-.81,1.01-.15.18-.32.36-.48.53-.19.2-.37.44-.6.59-.17.12-.41.13-.61.21-.11.04-.21.11-.29.19-.15.15-.26.35-.42.48-.2.17-.44.32-.66.46-.44.28-.9.55-1.34.83-.62.39-1.11.95-1.64,1.45-.24.23-.5.46-.66.74-.12.21-.09.5-.13.75.03.01.06.03.1.04.17-.13.32-.28.51-.39.59-.33,1.19-.63,1.78-.97.21-.12.39-.3.57-.46.22-.2.43-.41.66-.6.12-.1.3-.12.42-.22.23-.19.41-.43.64-.6.56-.43,1.13-.85,1.7-1.26.66-.48,1.15-1.11,1.64-1.75.12-.16.25-.32.39-.47.24-.26.29-.26.59-.06.05-.04.11-.08.17-.13-.03.19-.05.36-.1.52-.04.16-.11.31-.2.54-.11-.15-.17-.24-.24-.33-.02,0-.04,0-.06,0,0,.11-.02.23-.02.35-.06-.01-.15-.03-.23-.05-.02.03-.03.06-.05.09.09,0,.19.02.28.03-.02.04-.04.07-.05.11-.09-.02-.18-.04-.3-.07l.05.23c-.3-.06-.56.13-.66.49-.07.25-.16.42-.41.59-.45.3-.83.73-1.23,1.11-.07.07-.15.13-.22.19-.35.28-.7.56-1.06.82-.2.14-.21.13-.35-.12-.09.11-.22.21-.23.32,0,.28-.24.37-.39.53-.21.21-.44.42-.68.59-.21.15-.47.24-.7.35-.03.02-.06.03-.09.05-.37.27-.73.55-1.12.8-.26.17-.55.29-.81.45-.13.08-.21.22-.32.33.01.03.02.06.03.09.28-.03.56-.1.83-.09.28,0,.57.08.85.13.08.01.16.03.23.02.75-.09,1.43-.39,2.06-.78.65-.4,1.28-.85,1.95-1.23.36-.21.79-.31,1.18-.46.13-.05.26-.11.38-.18.21-.12.41-.27.63-.38.06-.03.17.02.25.03,0-.02,0-.05,0-.07.1-.02.2-.05.3-.07.08-.01.18.03.22-.01.19-.18.4-.15.63-.09.06-.18.16-.24.34-.16.08.03.17.03.26.03.21,0,.49-.08.63.02.28.2.5.5.73.78.04.05,0,.19-.03.27-.17.39-.45.69-.81.92-.57.36-1.12.74-1.67,1.12-.24.16-.47.34-.71.51-.02.01-.05.03-.07.03-.2.02-.42-.01-.58.16-.02.02-.11-.03-.17-.06-.31-.15-.52-.12-.78.1-.12.11-.24.22-.39.35.1,0,.17.02.24.02,0,.01,0,.03.01.04-.09.02-.23.09-.27.06-.24-.23-.43.02-.62.07-.19.05-.3.29-.56.29-.09,0-.17.19-.28.24-.43.19-.88.35-1.36.36-.17,0-.33.1-.49.16-.09.03-.18.07-.27.09-.39.07-.79.14-1.18.2-.14.02-.28.02-.42.02-.56,0-1.12-.02-1.67-.03-.05.08-.15.17-.17.27-.04.21-.04.42-.02.63.01.15.02.25-.12.34-.06.04-.13.14-.12.19.06.23-.1.33-.22.47-.26.32-.56.64-.7,1.01-.1.26.02.61.05.91,0,.06.06.12.11.24-.34.08-.64.21-.95.21-.38,0-.53.27-.75.45.83.46,1.63.9,2.45,1.36.08-.07.18-.16.29-.25.02.02.03.04.05.06-.04.03-.09.06-.11.1-.03.06-.07.16-.05.18.14.12.29.27.46.31.28.06.48.23.7.37.18.12.3.34.62.33-.11-.1-.17-.15-.23-.21.21-.03.2-.02.3.2.04.09.15.15.23.21.32.26.65.5.95.78.2.2.1.63-.15.74-.05.02-.14-.03-.14-.03-.21.18-.41.35-.61.52-.03-.03-.06-.05-.1-.08.07-.05.14-.11.21-.16-.02-.03-.03-.06-.05-.09-.16.01-.33.02-.49.03-.07,0-.14.01-.21,0-.47-.17-.95-.33-1.41-.52-.15-.06-.28-.19-.43-.28-.16-.1-.31-.19-.52-.31,0,.15,0,.23,0,.35-.21-.19-.39-.35-.56-.5l.05.23c-.21-.11-.44-.22-.65-.35-.37-.22-.72-.45-1.08-.68-.45-.28-.88-.13-1.2.29-.28.37-.2.73-.16,1.11.01.1-.06.3-.07.3-.16-.01-.36.02-.39-.22-.06-.41-.12-.82-.18-1.24,0,0-.05,0-.08.02-.35.22-.7.45-1.04.67-.34.22-.52.58-.66.93-.08.19.13.55.34.7.13.09.26.18.38.27.99.79,1.97,1.6,2.97,2.37.44.34.95.59,1.4.9.36.25.71.53,1.05.81.15.12.28.26.24.49-.05.36-.34.51-.66.31-.06-.04-.14-.05-.22-.08-.16-.16-.3-.35-.48-.48-.54-.4-1.07-.83-1.77-1.07.53.64,1.06,1.21,1.8,1.56-.01.06-.02.12-.04.19.15.03.28.06.41.09,0-.02.02-.04.02-.07-.07-.05-.14-.1-.26-.19.15-.02.24-.03.33-.03.11.17.23.34.31.52.13.32-.22.81-.56.85-.65.07-1.25-.13-1.8-.41-.36-.18-.64-.52-.94-.82-.67-.66-1.32-1.33-1.99-1.99-.16-.15-.34-.29-.52-.41-.07-.04-.23-.03-.28.02-.15.18-.27.39-.4.59-.09.13-.13.24-.06.41.04.09-.06.24-.11.42-.02-.02.02.01.05.05.12.13.27.25.33.41.07.18.16.28.34.32.26.07.39.25.46.5-.09.04-.16.07-.2.09.08.13.12.27.22.35.21.18.45.33.68.5.16.12.35.23.45.39.22.37.58.53.91.74.48.31.94.67,1.45.92.59.29,1.09.71,1.63,1.06.27.17.52.4.77.61.33.27.31.79.01,1.1-.45.48-.9.45-1.56.24-.29-.09-.6-.14-.89-.25-.39-.14-.78-.3-1.15-.48-.69-.34-1.39-.68-2.06-1.07-.36-.21-.66-.53-.98-.8-.2-.17-.39-.35-.57-.52-.15.12-.28.23-.41.33-.03.02-.07.05-.07.08-.03.28-.28.53-.11.85.04.07-.02.18-.02.28.02.24.22.32.38.46.39.33.74.71,1.14,1.03.72.57,1.32,1.28,2.21,1.62.28.11.36.35.24.63-.2.09-.39.17-.65.28.6.26,1.12.55,1.7.2.27-.16.53-.32.8-.48.09-.05.19-.1.27-.16.04-.03.08-.08.12-.12.04-.03.07-.08.12-.09.11-.04.23-.07.34-.08.54-.05.85-.37,1.09-.84.17-.33.46-.61.74-.87.73-.68,1.19-1.51,1.58-2.42.32-.74.71-1.48,1.19-2.12.65-.87,1.43-1.66,2.14-2.49.24-.28.49-.54.84-.67.07-.03.13-.09.18-.15.72-.76,1.43-1.54,2.16-2.29.26-.27.56-.5.85-.75.04-.03.09-.06.12-.1.29-.43.77-.59,1.15-.9.16-.13.28-.31.41-.47.16.16.49.02.77-.31-.06-.04-.12-.08-.21-.14.06,0,.11-.03.12-.01.18.18.35.08.51-.02.31-.19.6-.41.92-.6.43-.26.87-.52,1.32-.75.2-.1.45-.12.67-.2.4-.13.79-.3,1.2-.4.2-.05.44.02.65.08.08.02.17.17.19.27.02.13-.02.28-.04.5.19-.14.34-.21.43-.33.07-.1.07-.26.1-.4.03-.01.05-.03.08-.04.08.11.15.24.24.34.13.15.26.3.4.43.15.13.28.23.05.41-.07.06-.11.16-.15.25-.18.43-.39.85-.5,1.3-.14.54-.39,1.02-.6,1.53-.06.14-.1.28-.14.43-.17.65-.32,1.3-.53,1.94-.12.37-.37.69-.48,1.06-.2.73-.49,1.4-.85,2.06-.1.18-.19.33-.34.49-.16.17-.18.48-.32.67-.24.32-.25.67-.27,1.03-.01.14.03.31-.17.36,0,0,.01.07.02.11.03.16-.02.24-.19.19-.08.23-.14.44-.42.5-.05.01-.1.12-.13.18-.05.1-.09.22-.14.32-.09.2-.19.4-.29.6-.05.09-.11.16-.17.24-.08.1-.2.19-.24.31-.25.62-.68,1.11-1.14,1.59-.39.4-.73.84-1.11,1.25-.13.14-.3.25-.48.34-.39.2-.79.38-1.18.58-.07.04-.12.13-.18.2-.27-.03-.51.01-.69.28-.05.07-.23.05-.33.1-.23.1-.44.22-.67.32-.08.04-.17.05-.28.08.05.05.08.08.13.14-.07.03-.16.08-.2.06-.21-.12-.34,0-.47.13-.27.29-.53.58-.79.88-.05.05-.04.15-.07.22-.03.08-.07.19-.13.21-.47.18-.63.61-.88.99-.18.28-.41.53-.61.78-.07.08-.14.16-.21.24-.25.29-.49.59-.75.87-.05.06-.17.06-.23.11-.14.12-.28.23-.42.36-.22.21-.44.42-.65.65-.19.21-.37.44-.54.66-.15.2-.28.41-.44.61-.06.07-.18.1-.27.15-.07.04-.16.06-.22.11-.27.26-.52.52-.91.6-.16.03-.33.17-.45.3-.31.36-.78.41-1.16.63-.39.23-.78.45-1.15.72-.5.36-.97.77-1.46,1.14-.13.1-.31.15-.46.23-.18.1-.36.21-.54.31-.47.25-.93.43-1.52.36-.39-.05-.61-.27-.91-.42-.21-.11-.41-.3-.7-.05-.11.1-.4,0-.61-.02-.34-.01-.69-.03-1.03-.03-.27,0-.54.01-.82.03-.13,0-.27,0-.39.06-.18.07-.33.06-.51-.03-.09-.05-.23-.03-.35-.02-.22.02-.41-.01-.53-.21-.3-.48-.33-.5-.87-.39.07-.32.36-.42.59-.57.31-.19.38-.34.31-.69,0-.03.01-.07.02-.1.05-.14.11-.29.17-.43.09-.26.25-.51.26-.77.02-.39.22-.72.33-1.07.1-.31.22-.6.27-.92.03-.21.14-.4.21-.61.05-.15.05-.31.1-.47.2-.73.4-1.47.63-2.2.17-.54.23-1.15.82-1.45,0,0,.01-.01.02-.02.5-.58,1.19-.72,1.91-.81-.13.12-.27.27-.44.31-.5.14-.92.62-.99,1.14-.04.29-.11.57-.19.85-.2.71-.42,1.41-.62,2.12-.05.17-.06.34-.11.51-.18.55-.39,1.09-.55,1.64-.19.66-.34,1.33-.51,1.99-.09.36-.18.71-.3,1.06-.11.31-.02.54.31.55.33.02.66-.05.99-.09.27-.03.55-.1.82-.07.19.02.33-.02.5-.09.72-.28,1.25-.39,1.83.2.08.09.19.15.3.24.02-.07.01-.12.04-.15.09-.1.17-.22.29-.29.03-.02.14.09.22.13.05.02.16.03.16.03.05-.2.26-.19.38-.3.52-.48,1.04-.95,1.58-1.42.16-.14.2-.27.12-.46-.09-.21-.18-.43-.22-.65-.19-.99-.38-1.98-.54-2.97-.04-.25-.03-.51-.02-.77.02-.82.06-1.64.06-2.46,0-.45-.02-.91-.12-1.35-.08-.38-.19-.7.15-1.01.14-.13.08-.29-.1-.38-.42-.22-.82-.42-1.02-.93-.15-.37-.49-.67-.69-.94-.14.08-.25.13-.36.19-.07.04-.13.09-.19.12-.08.05-.17.09-.26.13-.06.03-.12.06-.18.1-.25.2-.5.4-.74.6-.07.06-.12.13-.19.2-.08.03-.18.07-.29.1-.28.08-.53.22-.85.23-.19,0-.57-.06-.59.26-.15.06-.27.07-.34.14-.54.49-1.09.98-1.61,1.5-.5.51-.87,1.12-1.21,1.75-.13.24-.29.48-.45.7-.1.14-.24.24-.33.38-.09.14-.15.3-.22.45-.34.73-.67,1.46-1.01,2.19-.05.11-.09.23-.14.34-.2.4-.42.79-.59,1.2-.12.28-.17.58-.42.79-.11.09-.17.2.07.27-.23.09-.45.19-.35.42.08.19.28.33.43.48.06.06.14.09.2.13.09.06.18.13.27.19.09.05.19.08.26.15.14.14.26.3.36.42.25-.07.47-.16.71-.19.16-.02.47,0,.49.06.1.34.35.32.6.32ZM28.36,74.49c.13.18.25.38.41.53.31.27.64.53,1.08.57-.26-.24-.53-.47-.82-.67-.21-.15-.45-.28-.67-.41-.31-.28-.62-.58-.94-.85-.29-.24-.6-.43-1-.46.12.12.25.2.39.29.06.04.13.08.18.14.07.07.12.18.2.23.31.2.62.39.94.57.07.04.15.04.23.06ZM24.52,68.19c-.24.02-.48.08-.72.05-.47-.05-.94-.2-1.41-.2-.56,0-1.06-.18-1.58-.31-.36-.09-.7-.25-1.05-.37-.74-.26-1.51-.46-2.22-.78-.65-.29-1.3-.5-1.99-.61-.67-.12-1.35-.21-1.96-.54-.22-.12-.45-.26-.69-.27-.52-.02-.92-.32-1.38-.48-.56-.2-1.11-.46-1.68-.65-.34-.11-.71-.16-.98-.42-.28-.26-.55-.53-.85-.78-.36-.31-.73-.61-1.11-.89-.32-.22-.56-.47-.62-.87,0-.06-.05-.11-.09-.16-.35-.5-.5-1.06-.54-1.66,0-.14,0-.28-.03-.42-.02-.1-.09-.19-.13-.29-.05-.1-.09-.26-.15-.27-.1-.02-.25.04-.32.12-.16.19-.31.39-.41.61-.58,1.25-1.21,2.48-1.52,3.85-.15.67-.37,1.32-.54,1.98-.08.32-.14.66-.2.99-.09.45-.2.88.08,1.34.23.38.21.41.63.29.3-.09.64-.17.93-.1.43.1.85.29,1.25.5.7.36,1.44.56,2.21.64.09,0,.18,0,.26,0,.16,0,.33-.03.49,0,.66.09,1.31.2,1.98.1.19-.03.37-.06.59,0,.18.05.51.19.61-.2.18.08.27.35.53.22.19-.09.4-.16.59-.23l-.02.08c.16.09.32.22.49.25.4.06.82.11,1.22.09.28-.01.49.08.7.22.1.07.24.1.36.15.05.02.09.04.13.07.13.09.25.22.4.26.19.06.4.04.59.1.65.18,1.3.37,1.93.61.28.11.56.3.9.23.02,0,.06.06.09.08.07.05.14.12.22.15.31.09.63.16.95.25.09.03.16.1.24.16-.01.02-.02.05-.04.07.3.04.6.06.83.33.2.24.47.42.69.65.13.13.19.33.33.44.16.14.37.36.6.21.45-.29.94-.54,1.3-.97.14-.16.33-.28.49-.43.03-.03.05-.16.03-.17-.32-.18-.19-.35,0-.49-.04-.08-.1-.15-.08-.2.09-.3-.02-.63.21-.92.21-.27.37-.58.71-.72.45-.19.88-.44,1.33-.62.77-.31,1.34-.89,1.94-1.4.67-.57,1.21-1.31,1.8-1.97.05-.06.07-.16.1-.24.04-.12.05-.26.12-.37.14-.25.3-.48.46-.71.33-.49.52-1.02.6-1.61.03-.21.13-.4.21-.6.15-.39.23-.78.15-1.19-.04,0-.07,0-.11-.01-.04.33-.09.66-.14,1.02-.06-.39-.14-.74-.15-1.09-.02-1.02-.99-1.98-1.92-2.15-.34-.06-.68-.14-1-.26-.18-.07-.3-.27-.47-.37-.3-.19-.61-.35-.92-.53-.1-.06-.19-.16-.28-.17-.67-.02-1.34.03-2-.12-.71-.16-1.44-.25-2.11-.49-.39-.14-.9-.09-1.16-.54-.01-.02-.07-.01-.1-.03-.1-.06-.2-.11-.29-.19-.44-.38-.87-.77-1.32-1.13-.45-.36-.89-.71-1.06-1.29-.01-.05-.04-.1-.08-.14-.39-.47-.79-.94-1.17-1.42-.32-.4-.62-.81-.91-1.23-.25-.37-.47-.75-.7-1.14-.17-.29-.38-.57-.48-.88-.09-.27-.23-.44-.43-.61-.12-.1-.23-.21-.38-.36-.1.12-.23.23-.33.37-.24.35-.5.7-.59,1.14-.04.22-.11.42.13.59.08.05.12.17.16.27.16.33.28.68.62.89.11.07.19.19.29.27.25.19.48.46.77.55.49.15.88.45,1.29.71.57.36,1.11.78,1.64,1.19.16.12.4.26.29.54-.12.03-.22.06-.33.07-.32.03-.65.12-.96.07-.75-.13-1.33-.62-1.91-1.07-.56-.43-1.03-.98-1.57-1.43-.33-.28-.54-.63-.77-.99-.2-.32-.19-.76-.54-1-.07-.05-.14-.1-.22-.11-.02,0-.06.11-.11.15-.07.06-.15.13-.23.14-.5.05-.94.2-1.18.68-.15.3-.26.61-.43.9-.5.85-.92,1.75-1.65,2.47-.73.73-1.37,1.55-2.06,2.33-.43.48-.71,1.03-.88,1.59.12.1.21.19.32.25.19.11.39.2.58.31.12.07.26.12.36.21.49.47.98.95,1.44,1.44.3.32.68.53.94.92.62.95,1.51,1.57,2.58,1.94.1.03.18.11.27.17.14.1.27.24.42.28.5.14.99.28,1.43.6.23.17.4.35.55.63-.38-.04-.64.21-1.01.22-.29.01-.55-.02-.8-.11-.26-.09-.5-.25-.75-.37-.13-.06-.27-.11-.4-.16,0,.02-.02.04-.02.07.17.12.33.25.51.35.34.2.68.48,1.05.56.53.11,1.05.23,1.58.32.42.07.78.39,1.24.3.03,0,.06.02.09.04.18.08.35.17.54.24.22.08.46.12.68.21.29.11.54.28.85.37.38.11.72.38,1.09.57.14.08.29.16.45.19.32.06.66.07.97.15.21.06.4.2.6.31.12-.32.22-.02.34.04,0-.08,0-.13,0-.16.13.04.25.08.38.11.31.07.63.11.94.19.14.04.27.15.38.22.14,0,.28-.01.41.03.51.17,1.01.35,1.51.53,0,.04-.02.07-.03.11-.6.12-1.14-.14-1.69-.23ZM23.62,76.04c.02-.09.04-.18.05-.25-.22-.15-.34-.32-.33-.58,0-.08-.01-.18-.04-.26-.13-.35-.36-.69-.39-1.04-.06-.7-.65-1.06-.93-1.62-.14-.29-.48-.47-.85-.51-.23-.03-.48-.07-.68-.19-.22-.13-.54-.04-.69-.32-.04-.07-.19-.09-.29-.11-.3-.07-.6-.13-.89-.21-.23-.07-.44-.19-.68-.25-.23-.06-.48-.07-.71-.1-.35-.04-.69-.12-.98-.36-.1-.08-.24-.11-.36-.16-.21-.09-.44-.15-.63-.27-.19-.12-.35-.25-.58-.1,0,0-.02-.02-.03-.03.11-.08.22-.16.29-.21-.33-.07-.69-.09-1-.21-.43-.17-.85-.28-1.32-.15-.42.11-.83.27-1.28.17-.04,0-.09,0-.13.02-.36.1-.72.24-1.09.3-.35.06-.72.07-1.07.05-.48-.03-.95-.13-1.42-.18-.43-.04-.86-.03-1.28-.08-.31-.04-.62-.15-.92-.24-.73-.23-1.46-.47-2.19-.73-.32-.12-.75-.08-.94.19-.19.29-.38.59-.46.92-.16.62-.24,1.25-.35,1.88-.08.49-.16.98-.2,1.47-.03.39.22.6.6.55.02,0,.03.04.05.05.29.17.58.34.89.49.13.06.29.08.43.07.29-.02.57-.11.86-.11.33,0,.65.06.97.11.31.04.61-.06.92,0,.11.02.23-.07.35-.09.07-.01.14,0,.21.01.19.03.37.07.56.11,0-.03.01-.05.02-.08.02.05.04.09.07.15.36-.12.69-.11,1.05.05.22.1.57.07.78-.05.19-.11.32-.12.52-.08.15.03.39.23.45-.05l1.49-.35s.02.06.03.09c-.06.02-.13.03-.18.07-.04.03-.04.11-.06.16.26.08.04.17.03.29-.2-.1-.44-.19-.46.08-.04.38-.21.25-.32.21-.27.13-.47.26-.69.34-.26.1-.52.23-.82.13-.13-.04-.29-.05-.43-.02-.45.08-.92-.13-1.37.09-.07.03-.18-.03-.27-.05-.09-.02-.17-.04-.26-.04-.95.02-1.9.05-2.85.05-.31,0-.63-.05-.93-.13-.53-.13-1.12.14-1.66-.32,0,.24-.02.41.02.58.18.88-.04,1.73-.2,2.59-.1.55-.17,1.08.13,1.58.11.18.28.34.36.53.18.45.37.89.68,1.28.13.16.24.23.44.17.14-.04.3-.07.43-.03.33.09.63.11.82-.08.26,0,.44-.02.61,0,.28.03.25-.24.35-.37.08.04.15.1.2.09.24-.07.49-.14.72-.24.16-.07.28-.2.48-.09.06.03.18-.05.26-.09.38-.16.74-.36,1.13-.49.22-.08.5-.14.69-.06.24.11.44.1.68.05.27-.05.51-.26.81-.14.01,0,.05-.02.06-.04.22-.33.57-.38.92-.42.04,0,.08-.03.12-.04.47-.09.76-.52,1.24-.62.24-.05.47-.21.67-.37.2-.15.51-.02.64-.28.33.07.55-.36.92-.2.07.03.22-.05.31-.11.18-.13.36-.22.61-.17.19.04.37-.08.55-.19.22-.14.5-.18.72-.31.22-.13.39-.15.59.02.18.15.31.08.36-.15.03-.13.08-.26.13-.39.03,0,.05.01.08.02.01.06.02.13.05.19.1.19.28.19.55.04.2-.11.42-.2.63-.28.08-.03.19,0,.31,0-.07.22.1.16.2.14.29-.07.57-.17.86-.25.09-.02.25-.04.29.01.15.19.27.1.35.03.15.03.26.05.37.08.17.05.31-.16.51-.02.51.36,1.06.66,1.56,1.04.12.09.17.42.1.56-.1.19-.28.01-.42-.08-.26-.16-.52-.31-.77-.48-.11-.08-.18-.24-.3-.28-.42-.15-.86-.29-1.32-.14-.26.08-.54.12-.79.22-.36.14-.75.02-1.12.18-.33.14-.72.16-1.08.24-.14.03-.29.06-.43.1-.43.12-.86.24-1.28.38-.24.08-.46.19-.69.29-.26.11-.5.25-.76.35-.46.19-.99.29-1.05.92-.24.06-.23.06-.31.3-.01.04-.07.08-.1.11-.06.07-.13.14-.19.21-.09.11-.17.24-.28.32-.24.19-.6.24-.75.56-.05.11-.15.21-.24.3-.42.46-1.01.67-1.53.97-.3.17-.66.25-.83.61-.03.06-.1.14-.15.14-.49.01-.78.38-1.14.61-.33.21-.65.43-1.06.48-.43.06-.86.16-1.29.21-.64.08-1.28.14-1.93.17-.15,0-.39.02-.48-.22-.01-.04-.1-.06-.19-.11.05.16.11.26.13.38.07.35.08.73.21,1.06.32.89.66,1.77,1.24,2.53.26.34.47.72.99.66.05,0,.11.05.17.08.26.12.52.32.79.34.22.01.54-.13.66-.31.16-.23.28-.46.55-.61.25-.14.45-.36.67-.55.52-.44,1.05-.87,1.57-1.31.31-.26.63-.51.93-.78.18-.16.33-.35.5-.53.08-.08.16-.15.24-.24.23-.24.45-.49.69-.72.17-.16.37-.29.54-.45.13-.13.22-.29.45-.28.06,0,.14-.12.2-.19.05-.06.08-.15.14-.2.32-.26.62-.53.96-.76.3-.2.57-.47.98-.5.22-.02.43-.13.63-.21.25-.11.49-.24.73-.35.23-.11.47-.23.73-.36.03,0,.1.05.16.05.13-.01.26-.1.37-.07.25.07.47.19.76.06.17-.08.4-.02.59-.07.18-.05.35-.14.57-.24.03,0,.13.03.22,0,.49-.18.96-.38,1.45-.56.63-.23,1.16-.09,1.63.41.17.19.45.28.71.44-.14-.34-.25-.61-.35-.85.07-.09.15-.16.16-.23.04-.37.09-.74.09-1.1,0-.54-.1-1.09.36-1.51,0,0,0-.03,0-.06-.21-.07-.41-.15-.64,0-.04.03-.3-.12-.3-.18.02-.4-.09-.83.28-1.15,0,0,0-.03,0-.06-.06-.02-.12-.05-.19-.08ZM33.18,91.09c.07.19.1.32.16.45.03.05.13.13.15.12.23-.17.5-.23.78-.24.03,0,.07-.06.1-.09.16-.15.32-.31.48-.45.16-.14.33-.25.47-.41.32-.34.37-.88.84-1.12.02-.01.04-.04.04-.07,0-.28.25-.35.41-.48.04-.03.08-.07.11-.11.16-.2.32-.39.46-.6.08-.12.1-.27.16-.4.06-.15.11-.3.19-.44.06-.1.19-.16.25-.26.19-.33.49-.48.85-.5,1.9-.1,1.56-.1,2.68-.91.54-.39.98-.89,1.4-1.41.07-.08.14-.16.2-.24.12,0,.25-.03.33-.1.16-.16.3-.35.44-.53.18-.23.33-.48.52-.69.21-.25.47-.45.68-.7.2-.24.31-.55.52-.78.28-.31.52-.63.7-1,.3-.62.63-1.22.95-1.82.02-.04.02-.08.03-.13,0-.12-.03-.26.02-.35.09-.2.25-.36.35-.56.16-.34.31-.7.44-1.06.23-.6.45-1.19.66-1.79.12-.33.22-.66.31-.99.02-.07-.05-.16-.08-.24-.04.05-.1.1-.13.16-.17.33-.4.6-.71.8-.11.07-.19.21-.27.32-.04.06-.05.14-.1.2-.23.27-.48.52-.7.8-.44.57-.85,1.15-1.28,1.72-.49.65-1,1.29-1.51,1.95-.07-.18-.21-.14-.24,0-.07.37-.41.49-.61.75-.16.21-.39.39-.48.62-.09.25-.27.37-.44.53-.1.09-.2.18-.28.28-.47.57-1.04,1.02-1.68,1.37-.46.25-.9.51-1.35.78-.23.14-.44.29-.67.44-.02-.02-.04-.05-.06-.07.23-.23.42-.53.69-.67.54-.27.9-.81,1.49-.99.04-.01.07-.07.09-.11.14-.29.5-.33.64-.65.1-.22.41-.33.59-.53.34-.38.64-.79.96-1.18.02-.03.07-.04.1-.07.11-.08.24-.14.31-.25.3-.43.57-.88.87-1.32.23-.34.48-.67.73-1,.29-.38.61-.73.89-1.11.22-.29.41-.59.62-.89.21-.31.42-.63.65-.92.41-.51.89-.97,1.25-1.51.47-.7.87-1.47,1.29-2.2.09-.16.18-.31.25-.48.11-.25.19-.51.29-.76.03-.08.07-.15.12-.25-.25-.07-.47-.12-.71-.19-.03.02-.06.08-.11.1-.5.21-.75.63-.92,1.11-.13.35-.36.63-.66.85-.33.25-.76.39-.94.83-.03.08-.17.1-.26.16-.1.07-.21.14-.3.24-.1.11-.17.26-.28.36-.36.32-.37.31-.17.73-.11-.03-.24-.1-.28-.07-.16.14-.35.3-.41.48-.06.2-.09.33-.32.24-.11.21-.22.41-.33.63-.2-.12-.31,0-.39.19-.06.13-.15.24-.23.35-.16.23-.32.45-.5.71-.02,0-.14.01-.18.07-.17.23-.28.51-.48.71-.15.14-.31.25-.36.46,0,0-.05-.02-.07,0-.13.11-.31.2-.37.34-.09.22-.23.35-.4.43,0,.1,0,.25-.02.25-.24.02-.27.21-.36.38-.11.2-.38.25-.46.53-.03.12-.26.26-.38.43-.21.27-.5.47-.76.7-.08.07-.15.13-.24.21-.13-.39-.05-.59.26-.83.18-.14.33-.31.46-.5.25-.36.47-.74.72-1.11.06-.09.18-.15.24-.24.46-.67.9-1.35,1.35-2.03.02-.04.06-.06.09-.1.24-.3.48-.6.7-.91.13-.18.2-.46.37-.57.2-.13.26-.31.37-.49.05-.08.07-.18.14-.25.27-.29.57-.57.83-.87.19-.23.3-.53.52-.73.38-.35.78-.68,1.22-.93.28-.16.46-.31.53-.64.06-.28.23-.53.36-.79-.01-.03-.03-.05-.04-.08-.23.05-.5.06-.69.17-.49.28-.96.6-1.43.92-.44.3-.88.61-1.28.94-.82.68-1.61,1.4-2.43,2.08-.23.2-.34.58-.75.54-.02,0-.06.08-.06.13-.03.29-.24.43-.44.59-.14.11-.25.24-.39.36-.22.19-.44.36-.66.55-.09.08-.17.17-.24.26-.07.09-.11.2-.18.28-.14.15-.31.29-.45.44-.33.36-.69.68-.93,1.13-.21.39-.59.68-.79,1.07-.26.51-.67.94-.76,1.54-.02.15-.13.29-.19.44-.11.27-.22.55-.33.83-.03.06-.07.12-.11.19.17.03.31.05.44.08.01.03.03.06.04.09-.12.12-.23.32-.37.35-.37.08-.44.29-.47.64-.03.35.19.43.39.55.2.12.38.03.49-.17,0,0,.03,0,.03,0,.02.1.05.18.06.27.02.19.06.38.02.56-.05.27.02.39.26.51.23.11.42.28.63.42.05.03.09.09.14.09.25-.01.29.17.37.34.12.25.24.51.39.74.1.16.25.29.43.48-.58-.08-.95-.32-1.15-.8-.03-.08-.12-.14-.19-.19-.1-.07-.22-.11-.34-.17.08-.18.17-.45,0-.41-.28.06-.42-.11-.62-.18-.36-.12-.65-.5-.56-.77.06-.18-.02-.21-.14-.28-.24-.13-.49-.24-.72-.4-.18-.13-.25-.06-.32.09-.18.41-.47.73-.85.96-.1.06-.23.09-.32.16-.3.24-.6.48-.96.64-.05.02-.11.07-.16.06-.24-.03-.4.07-.54.25-.03.04-.08.1-.13.1-.41.07-.54.28-.37.66.1.22.23.43.32.66.24.65.44,1.31.96,1.83.53.53,1.03,1.1,1.53,1.66.06.07.1.26.07.3-.18.16-.1.32,0,.51-.14-.05-.23-.08-.39-.14ZM21.85,81.21c-.12.03-.27.03-.28.07-.11.3-.4.24-.62.31-.37.11-.76.17-1.14.25-.03,0-.08.02-.1.04-.24.27-.57.2-.86.21-.34,0-.68-.03-1.03-.03-.12,0-.25.04-.35.09-.33.17-.63.39-.97.53-.27.11-.52.34-.86.27-.05-.01-.13.12-.19.19-.03.03-.03.09-.06.1-.18.09-.37.18-.55.27-.15.08-.34.13-.43.25-.15.2-.3.38-.5.54-.17.13-.3.32-.45.48-.4.43-.8.85-1.19,1.28-.06.07-.06.19-.13.25-.45.36-.76.87-1.32,1.1-.12.05-.26.16-.29.28-.08.26-.25.41-.46.55-.06.04-.12.1-.18.16-.26.28-.49.58-.77.82-.37.31-.79.56-1.18.84-.1.07-.25.18-.24.25.03.3.07.61.19.88.16.36.39.69.61,1.01.24.33.51.65.77.96.14.17.32.3.46.47.17.2.27.48.47.62.39.27.72.63,1.21.74.03,0,.07.02.1.04.58.4,1.23.55,1.92.62.28.03.43-.12.54-.33.1-.2.2-.4.26-.62.12-.47.56-.75.64-1.26.05-.31.27-.59.41-.88.05-.1.05-.24.12-.31.29-.26.45-.62.63-.95.17-.32.31-.65.48-.97.06-.11.19-.19.25-.3.25-.45.49-.91.74-1.36.14-.25.26-.51.45-.73.68-.77,1.29-1.61,2.12-2.23.51-.38,1.03-.74,1.56-1.09.3-.19.67-.29.92-.52.43-.39.94-.52,1.48-.61.26-.05.52-.09.77-.16.17-.04.33-.11.5-.16-.04-.13-.09-.23-.11-.34-.13-.74-.66-1.13-1.27-1.43-.25-.12-.5-.23-.72-.41-.17-.13-.4-.17-.63-.27.01.13.02.19.02.26-.28,0-.54,0-.84,0,.07.1.09.14.12.19ZM33.2,59.06c-.03-.31-.1-.58-.06-.84.11-.8.26-1.59.79-2.25.38-.48.65-1.03,1.16-1.41.21-.15.36-.38.54-.56.27-.26.51-.56.96-.49.11.02.26-.06.36-.13.37-.25.72-.52,1.09-.76.22-.14.47-.24.69-.39.4-.26.77-.57,1.1-.92.52-.55,1.07-1.06,1.61-1.6.21-.2.38-.45.62-.6.52-.34.86-.91,1.47-1.13.03,0,.03-.06.06-.08.09-.09.17-.22.28-.25.24-.07.41-.2.57-.39.08-.1.24-.13.37-.19.07-.03.16-.03.22-.07.26-.15.51-.31.77-.46.11-.06.23-.18.32-.16.24.05.38-.12.58-.17.29-.08.57-.2.85-.29.42-.13.85-.23,1.27-.37.36-.12.7-.29,1.05-.44.48-.2.96-.4,1.43-.61.03-.01.06-.04.08-.06.15-.12.3-.25.46-.35.27-.16.55-.3.82-.45.19-.11.37-.24.55-.35,0-.01-.04-.09-.07-.16.02-.01.04-.02.06-.03.05.04.1.08.15.13.04-.03.08-.08.13-.08.24-.04.44-.12.58-.35.06-.1.26-.12.41-.15.16-.03.28-.07.33-.25.04-.14.09-.28.15-.46-.18.02-.35.05-.51.06-.46.04-.92.04-1.37.12-.45.07-.89-.06-1.35.11-.44.16-.94.13-1.41.21-.74.13-1.48.27-2.21.42-.27.06-.53.17-.79.27-.57.21-1.15.42-1.71.65-.42.17-.81.39-1.24.53-.77.26-1.5.59-2.14,1.1-1.22.97-2.3,2.07-3.24,3.32-.63.83-1.36,1.58-2.09,2.32-.38.38-.63.83-.93,1.27-.1.15-.18.32-.29.45-.31.37-.63.74-.96,1.09-.28.3-.56.62-.89.87-.48.37-.98.69-1.5,1-.31.19-.65.37-1,.45-.47.11-.96.11-1.44.16-.84.09-1.64-.23-2.47-.31-.41-.04-.81-.19-1.2-.34-.87-.33-1.73-.7-2.6-1.05-.03-.01-.05-.05-.08-.07-.14-.12-.27-.24-.42-.36-.32-.25-.64-.49-.96-.74-.08-.06-.14-.14-.22-.18-.32-.16-.51-.44-.71-.72-.3-.42-.58-.84-.87-1.26-.26-.38-.53-.75-.77-1.14-.25-.39-.49-.8-.7-1.21-.11-.21-.28-.4-.21-.67-.08-.05-.16-.11-.24-.16.14-.32-.11-.47-.27-.66-.26-.3-.65-.48-.8-.89-.03-.07-.15-.1-.22-.16-.08-.07-.16-.14-.21-.22-.11-.2-.21-.42-.35-.71-.25.28-.44.5-.63.72.03,0,.05.01.08.02.04.16.06.33.12.49.15.4.32.79.55,1.16.36.59.65,1.22.98,1.82.03.05.07.1.12.14.34.35.71.69,1.03,1.06.53.61,1.03,1.25,1.55,1.87.26.3.56.56.8.88.38.52.87.9,1.44,1.17.53.25,1.07.5,1.61.74.08.04.16.07.25.08.23.04.46.05.69.11.55.13,1.08.33,1.63.41.47.06.94.06,1.37.29.42.22.85.42,1.27.62.25.12.5.29.77.31,1.09.12,1.69.78,2.05,1.73.08.22.09.47.15.7.02.07.11.13.17.19.02-.01.05-.03.07-.04,0-.43-.09-.92.54-.89ZM41.41,26.73c.27.04.41-.08.49-.31.08.03.16.05.23.07.3-.35.58-.7.89-1.02.6-.62,1.22-1.23,1.83-1.85.26-.27.51-.56.76-.84.28-.31.55-.61.83-.91.08-.09.16-.21.26-.25.23-.1.43-.22.55-.44.09-.15.16-.34.29-.44.47-.35.74-.87,1.15-1.28.48-.48.9-1.03,1.34-1.55.52-.61,1.05-1.21,1.56-1.83.26-.32.46-.69.71-1.03.28-.38.59-.74.88-1.12.06-.07.08-.18.15-.24.31-.35.64-.68.94-1.03.25-.29.46-.6.69-.9.23-.31.47-.61.7-.92-.02-.02-.04-.03-.06-.05-.3.19-.6.36-.89.57-.42.31-.8.66-1.22.96-1.07.78-2.15,1.55-3.22,2.33-.21.15-.44.3-.64.47-.24.2-.45.43-.69.64-.16.14-.34.25-.5.39-.24.22-.46.47-.69.7-.58.61-1.16,1.23-1.74,1.83-.79.82-1.56,1.66-2.38,2.46-.65.63-1.37,1.18-2.04,1.79-.22.2-.38.48-.57.72.02.02.04.04.07.07.15-.05.29-.11.44-.14.29-.05.34.02.3.31-.06.4-.17.8-.15,1.2.03.58.05,1.13-.29,1.66ZM30.39,86.22h-.04c-.02-.08-.01-.19-.07-.25-.09-.1-.21-.21-.33-.23-.4-.06-.83-.04-1.22-.14-.3-.08-.48.02-.59.23-.22.41-.4.84-.59,1.27-.02.05-.02.14,0,.17.14.14.08.25,0,.38-.02.03-.02.08-.02.12,0,.21,0,.43,0,.64,0,.18-.05.38,0,.54.1.3.21.57.19.9-.03.46.03.94.13,1.4.1.45,0,.94.25,1.37.03.05,0,.12,0,.18.06.26.07.55.2.76.1.16.13.28.12.45-.02.27.42.8.69.81.16,0,.34-.03.48-.1.26-.12.51-.27.77-.41.41-.23.85-.42,1.23-.69.48-.34.94-.72,1.38-1.12.16-.14.38-.44.32-.55-.18-.37-.33-.8-.74-1.03-.06-.03-.08-.14-.11-.21-.09-.21-.15-.4-.4-.51-.24-.11-.47-.28-.65-.48-.21-.23-.38-.5-.51-.78-.15-.32-.3-.66-.35-1.01-.09-.57-.09-1.14-.14-1.72ZM33.76,60.18c.38.1.74.23,1.12.29.16.03.34-.11.51-.09.79.07,1.5-.27,2.26-.36.58-.07,1.15-.33,1.71-.56.75-.3,1.49-.63,2.23-.97.38-.18.74-.41,1.11-.62.49-.29.96-.6,1.47-.86.15-.08.34-.14.28-.3-.04-.11-.26-.19-.41-.22-.38-.09-.73.07-1.07.21-.57.23-1.12.49-1.69.73-.32.13-.65.21-.96.36-.69.34-1.36.73-2.05,1.05-.62.29-1.26.54-1.9.76-.53.19-1.08.28-1.65.13-.13-.04-.29-.06-.42-.04-.13.03-.26.11-.37.2-.07.06-.1.17-.17.3ZM25.09,76.77c-.1.3.05.58.09.87.05.37.28.59.58.77.14.08.28.16.39.27.84.83,1.91,1.27,2.95,1.76.18.09.39.13.57.22.53.26,1.06.54,1.59.8.13.06.28.09.42.14.02-.03.04-.07.06-.1-.21-.21-.41-.44-.65-.63-.25-.2-.55-.35-.81-.55-.63-.46-1.24-.94-1.87-1.38-.41-.29-.9-.47-1.27-.81-.61-.55-1.41-.8-1.99-1.37,0,0-.03,0-.07,0ZM6.63,58.06s-.06.03-.09.04c-.02.17,0,.36-.07.51-.13.3.13.57.05.86,0,.01.03.04.05.06.51.51.98,1.06,1.63,1.41.21.11.39.29.56.46.12.12.2.28.32.4.18.16.37.32.59.44.44.25.76.7,1.28.82.11.02.21.09.31.14.39.17.77.35,1.16.52,0,0,.03-.02.06-.04-.03-.03-.05-.06-.08-.08-.46-.29-.95-.51-1.34-.92-.37-.39-.84-.7-1.22-1.08-.39-.39-.73-.83-1.11-1.24-.48-.54-.97-1.07-1.47-1.6-.21-.23-.43-.45-.65-.67ZM35.76,30.22s-.05-.03-.07-.05c-.13.05-.28.07-.39.14-.37.24-.72.5-1.08.75-.05.03-.09.09-.15.1-.52.12-1.04.15-1.56.04-.1-.02-.21-.05-.3-.11-.43-.31-.89-.6-1.04-1.16-.04-.16-.15-.18-.28-.05-.14.15-.3.28-.43.43-.22.25-.45.5-.65.76-.12.15-.02.5.13.62.11.08.17.08.25-.04.21-.31.54-.38.88-.2.15.08.29.18.44.24.15.05.32.09.48.08.36-.02.72-.08,1.08-.13.21-.03.43.01.62-.14.11-.08.27-.17.39-.15.31.05.55-.04.78-.24.23-.21.42-.46.71-.6.09-.04.13-.19.19-.29ZM35.41,69.58s.01-.07.02-.1c-.13-.06-.27-.12-.4-.19-.22-.11-.45-.2-.66-.33-.51-.32-1.01-.65-1.52-.98-.46-.3-.93-.6-1.39-.9-.3-.19-.58-.4-.88-.59-.06-.04-.17-.06-.21-.03-.24.19-.47.39-.72.61.55-.02.97.22,1.34.58.15.15.33.3.52.4.56.27,1.19.32,1.73.67.59.38,1.24.65,1.92.84.08.02.17.02.26.02ZM23.98,75.93s.02,0,.03.01c.07-.13.14-.26.21-.39.08-.14.36-.23.11-.45-.01-.01.02-.08.03-.12.07-.31.15-.61.22-.92.05-.21.08-.43.13-.64.06-.29.14-.59.2-.88,0-.01-.04-.04-.07-.06-.09.33-.09.32-.39.21-.04-.02-.12.02-.17.06-.07.05-.12.12-.18.19-.41.42-.69.89-.65,1.48.1.05.23.09.24.14.02.23.22.3.34.44.04.05.08.13.07.18-.03.26-.07.52-.11.77ZM25.87,83.1c.02.23.03.45.06.66.11.75.56,1.08,1.2.9.29-.08.38,0,.41.29.01.1.08.19.13.29.18-.13.32-.22.43-.32.04-.04.06-.17.04-.19-.15-.13-.3-.3-.48-.35-.41-.11-.74-.32-1.05-.59-.25-.22-.49-.45-.74-.68ZM25.93,71.36c.02.1.02.17.05.21.23.26.44.55.71.77.37.31.8.55,1.05.99.02.03.07.05.11.07.16.09.33.18.49.29.28.19.54.42.95.47-.29-.25-.54-.46-.76-.68-.54-.53-1.1-1.05-1.59-1.62-.28-.32-.61-.4-1.01-.49ZM11.39,80.35c-.13.04-.25.06-.37.11-.54.21-1.07.42-1.61.63-.07.03-.15.05-.23.06-.44.06-.88.1-1.31.19-.23.05-.44.18-.65.27,1.56.08,2.91-.44,4.17-1.27ZM4.31,82.22s-.03-.05-.04-.08c-.14.06-.28.13-.43.17-.12.04-.33.1-.37.05-.13-.14-.28-.17-.39-.09-.15.11-.38.22-.26.52.26-.05.52-.1.78-.13.38-.04.75-.05,1.13-.1.16-.02.3-.1.45-.15,0-.03-.02-.05-.03-.08-.15-.03-.3-.07-.45-.07-.14,0-.28.06-.44.1.02-.06.04-.1.05-.13ZM47.65,69.05c.49.01.76-.39,1.18-.47-.28-.23-1.1.07-1.18.47ZM30.78,32.02c.11-.08.24-.13.29-.22.03-.06-.04-.21-.11-.26-.1-.07-.23-.1-.36-.15.07.24.12.4.19.63ZM16.85,97.44c.24.09.46.17.69.26-.29-.43-.34-.44-.69-.26ZM13.85,96.44c-.09-.47-.14-.5-.45-.33.13.1.3.22.45.33ZM25.92,70.28s.05.04.07.06c.29-.14.37-.27.33-.55-.15.18-.28.34-.41.5ZM25.28,76.2s-.05,0-.08-.01c-.09.1-.18.21-.27.31.02.03.04.06.07.09.11-.04.23-.06.31-.14.04-.03-.01-.16-.02-.25ZM30.67,76.33s.05-.05.07-.08c-.13-.12-.26-.24-.39-.35-.02.02-.03.04-.05.05.16.09.13.37.37.38ZM5.59,82.41s.04-.08.06-.12c-.09-.04-.19-.09-.28-.11-.03,0-.08.07-.11.11.11.04.23.09.34.13Z"/>
      <path class="cls-1" d="M45.02,29.4c0-.07-.04-.17-.01-.23.27-.65.54-1.31.84-1.95.15-.32.3-.66.66-.84.09-.04.12-.2.21-.35.06.07.12.15.18.22.04.05.1.1.12.16.02.06.02.13.01.2-.07.98-.57,1.82-.93,2.7-.15.37-.23.77-.37,1.15-.15.39-.34.77-.5,1.15-.14.34-.24.71-.4,1.04-.18.37-.42.71-.61,1.08-.1.2-.14.43-.23.64-.09.2-.2.4-.3.59-.33.64-.68,1.27-1,1.91-.38.76-.76,1.52-1.13,2.28-.32.65-.61,1.32-.95,1.96-.19.36-.45.68-.71,1.06.13-.17-.07-.36.13-.5-.04-.06-.09-.11-.17-.22.05-.1.13-.28.23-.47-.01,0-.06-.01-.17-.03.29-.72.58-1.43.88-2.14.17-.39.38-.77.55-1.16.06-.14.03-.32.08-.46.16-.4.35-.79.52-1.18.03-.08.01-.18.02-.33.3-.1.29-.48.42-.76.16-.36.37-.72.42-1.1.06-.4.39-.63.47-1.04.08-.44.42-.84.64-1.26.21-.39.42-.79.61-1.19.11-.22.17-.46.27-.68.04-.09.14-.16.22-.24Z"/>
      <path class="cls-1" d="M33.69,41.29c.05-.16.1-.33.16-.53-.27.01-.41.16-.53.33-.04.06-.02.15-.04.24l-.36.08c.05-.13.06-.27.13-.33.57-.43.97-1,1.38-1.56.02-.03.04-.05.07-.08-.09-.04-.16-.07-.18-.08.21-.26.4-.54.62-.78.33-.37.69-.72,1.01-1.11.05-.06.26-.15.11-.32,0-.01.04-.11.06-.11.3.01.31-.27.43-.43.16-.21.27-.45.4-.68.13-.22.25-.44.38-.65.04-.06.13-.16.14-.15.09.05.2.11.22.19.08.25.13.5.19.79-.12,0-.18,0-.24,0-.01.01-.02.02-.02.03.05.58-.49.9-.62,1.4-.05.18-.29.31-.43.48-.24.31-.57.54-.7.95-.06.18-.29.3-.39.48-.12.23-.18.5-.25.69-.13.12-.27.19-.31.3-.09.27-.34.27-.53.36-.02.37-.19.51-.55.47-.06,0-.12,0-.19,0h.01Z"/>
      <path class="cls-1" d="M48.36,35.57c.33-.25.63-.52.96-.74.2-.13.44-.21.65-.32.07-.04.12-.13.18-.21.03-.04.03-.12.06-.13.24-.11.49-.2.74-.3.09-.04.2-.06.28-.12.18-.12.35-.27.54-.36.08-.04.22.06.34.11-.02-.39.09-.5.48-.5.03,0,.06.01.07,0,.14-.12.28-.25.43-.37.17-.14.34-.27.54-.37-.03.47-.33.78-.68,1.07-.14-.09-.29-.15-.34.12,0,.04-.08.12-.1.12-.36-.12-.45.38-.77.33-.03,0-.07.02-.09.04-.31.36-.77.48-1.15.73-.37.24-.77.42-1.13.68-.24.18-.44.45-.78.52-.18.04-.32.22-.49.27-.1.03-.25-.06-.36-.14-.05-.03-.06-.16-.04-.22.15-.36.42-.42.65-.19Z"/>
      <path class="cls-1" d="M31.37,37.37c.02.07.02.14-.16.2-.2.06-.36.21-.55.32-.03-.04-.09-.1-.16-.18.11-.11-.24-.49.23-.53-.16-.23-.06-.41.15-.54.21-.14.43-.26.64-.39.03.02.05.03.05.04q.1.33.43.21c.13-.05.26-.11.39-.16.02,0,.05,0,.11.02-.06.06-.1.11-.14.16-.19.2-.36.4-.56.59-.11.1-.25.16-.42.27Z"/>
      <path class="cls-1" d="M47.44,36.26c-.17-.11-.29-.23-.34.06-.02.1-.2.19-.32.26-.03.02-.13-.07-.17-.12-.03-.05-.02-.13-.03-.27.1-.03.27-.07.42-.15.09-.05.14-.17.21-.25.11.03.22.07.37.11-.04.1-.08.22-.14.36Z"/>
      <path class="cls-1" d="M33.68,41.28c-.04.09-.07.18-.13.32.12-.07.2-.12.29-.17.02.03.04.06.06.08-.11.07-.22.18-.34.2-.06.01-.15-.14-.27-.26.18-.07.29-.12.4-.17,0,0-.01,0-.01,0Z"/>
      <path class="cls-1" d="M54.96,31.54c-.03.09-.07.18-.11.29-.07-.06-.13-.11-.21-.17-.07.09-.13.18-.2.27-.09-.26-.01-.37.22-.35.1,0,.21-.02.31-.04,0,0,0,0,0,0Z"/>
      <path class="cls-1" d="M3.26,66.7c.24-.08.46-.16.69-.22.15-.04.31-.04.47-.04.15,0,.31,0,.46.02.39.03.77.07,1.16.09.42.02.85.02,1.27.03.03,0,.05,0,.08,0,.33,0,.65,0,1,.09.45.12.96.04,1.44.05.08,0,.16,0,.24-.02-.07.34-.14.42-.47.42-.47,0-.9.16-1.34.32-.21.08-.44.12-.66.18-.9.22-1.73-.07-2.57-.34-.36-.12-.77-.12-1.15-.16-.31-.03-.39-.06-.61-.42Z"/>
    </g>
  </g>
</svg>