<?xml version="1.0" encoding="UTF-8"?>
<svg id="Layer_2" data-name="Layer 2" xmlns="http://www.w3.org/2000/svg" viewBox="0 0 89.28 106.18">
  <defs>
    <style>
      .cls-1 {
        fill: #000;
        stroke-width: 0px;
      }
    </style>
  </defs>
  <g id="illustrations">
    <g>
      <path class="cls-1" d="M89.27,88.68c0-.06-.02-.11-.02-.17-.04-.35-.09-.7-.25-.99-.44-.78-.99-1.35-1.65-1.7-.31-.16-.62-.32-.93-.46-.4-.19-.82-.39-1.21-.62l-.04-.02c-.63-.36-1.27-.73-1.67-1.42-.24-.42-.57-.8-.86-1.12-.16-.18-.35-.34-.52-.5-.17-.15-.35-.31-.51-.49-.28-.31-.56-.63-.83-.94-.26-.3-.53-.61-.8-.91-.87-.94-1.39-1.77-1.7-2.68-.05-.16-.13-.32-.24-.5-.35-.57-.7-1.13-1.05-1.69-.7-1.13-1.43-2.29-2.11-3.45-.84-1.43-1.69-2.49-2.68-3.32-.14-.12-.24-.29-.32-.45-.86-1.61-1.95-3.02-3.31-4.65-.39-.46-.71-.99-.97-1.44-.3-.52-.59-1.05-.87-1.57-.47-.85-.95-1.74-1.47-2.57-.31-.49-.65-.96-.99-1.42-.51-.7-1.03-1.42-1.44-2.21-.56-1.11-1.15-2.41-1.05-3.93.16-2.49-.08-5.17-.75-8.41-.31-1.5-.61-3.11-.57-4.74.01-.47,0-.94-.03-1.4-.04-.6-.09-1.22-.14-1.81-.04-.43-.07-.85-.1-1.28v-.07c-.02-.16-.04-.34.03-.48.26-.57.56-1.22.91-1.82.38-.65.53-1.31.47-2.04-.09-1.07-.33-2.03-.73-2.92-.07-.16-.14-.33-.21-.5-.25-.62-.51-1.25-1.04-1.7-.54-.45-1.16-.89-1.95-1.37-.24-.15-.37-.28-.37-.59-.05-1.74-.36-3.27-.96-4.69-.18-.42-.26-.73.17-1.17.68-.69,1.49-1.65,1.76-2.96.17-.82.03-1.32-.48-1.75-.19-.16-.35-.28-.5-.38-.71-.46-1.36-1.07-1.98-1.85-.18-.23-.36-.38-.53-.45-.47-.2-.96-.38-1.43-.55-.22-.08-.43-.16-.65-.24-.05-.02-.1-.03-.16-.05-.15-.04-.32-.09-.37-.2-.22-.44-.61-.56-1.03-.68l-.1-.03c-1.26-.37-2.3-.32-3.28.16-.19.09-.42.15-.72.2-.8.12-1.48.54-2,1.25-.16.22-.3.48-.43.72-.08.15-.16.31-.25.46-.7,1.18-.88,2.44-.53,3.76.02.07.02.14.02.21,0,.04,0,.08,0,.13l.02.21c.03.24.06.49.1.73.06.37.13.75.2,1.11.03.15.06.31.08.46v.05s-.04.01-.04.01c-.03,0-.05.01-.08.02h-.03c.12.47.33.92.62,1.35.26.38.55.73.83,1.07.12.14.24.29.35.42l.02.03-.02.03c-.06.1-.15.22-.24.35.03.01.06.03.09.04.11.05.21.11.32.12.15.02.3.02.47.01.08,0,.16,0,.24,0h.08l-.13.28c-.07.15-.13.3-.2.43l-.04.09c-.08.18-.17.36-.27.54-.05.08-.15.14-.24.17-.17.04-.33.08-.5.12-.24.05-.49.11-.72.18-2.29.69-3.72,1.67-4.64,3.19-.07.11-.1.25-.12.39,0,.04-.02.08-.03.12-.01.05-.02.11-.02.17,0,.07-.01.15-.03.22-.55,1.91-.72,3.41-.57,4.85.01.11,0,.24-.02.38-.04.22-.08.44-.12.66-.07.39-.15.79-.2,1.19-.03.26-.05.52-.06.78-.02.4-.05.82-.14,1.21-.21.89-.5,1.84-.91,3-.18.5-.44.97-.75,1.37h0c-.45.59-.88,1.14-1.17,1.79-.11.26-.25.51-.38.76-.13.25-.26.5-.38.76-.11.24-.22.49-.33.73-.42.93-.85,1.89-1.2,2.85-.27.72-.47,1.47-.67,2.2-.09.33-.18.66-.27.99-.13.46-.3.57-.72.51h-.03s-.01-.03-.01-.03c-.04-.11-.08-.21-.12-.31-.08-.22-.16-.43-.25-.63-.05-.11-.11-.22-.16-.33-.08-.15-.16-.3-.21-.46-.46-1.28-.96-2.65-1.43-4.02-.35-1.02-.7-2.03-1.04-3.05-.4-1.18-.82-2.41-1.23-3.61-.77-2.22-1.43-4.57-1.95-7.01-.38-1.74-.68-3.32-.93-4.82-.14-.85-.24-1.72-.34-2.56-.05-.44-.1-.88-.16-1.33-.03-.2-.06-.4-.09-.6-.07-.38-.13-.77-.14-1.16,0-.34-.13-.41-.4-.45l-.3-.04c-.45-.05-.93-.11-1.39-.12h0c-.14,0-.37.15-.43.27-.25.58-.48,1.22-.7,1.89-.14.46-.27.93-.38,1.39-.05.2-.11.41-.16.61v.05s-.2-.04-.2-.04v-.05c.04-.19.07-.38.09-.57.06-.43.13-.87.22-1.3.09-.44.2-.89.31-1.32.08-.34.17-.69.25-1.04.02-.08-.04-.23-.09-.26-.81-.42-1.65-.82-2.46-1.21h-.02c-.32-.16-.66-.32-1.08-.51-.02,0-.05,0-.08,0-.03,0-.07,0-.11,0-.17-.03-.33-.07-.49-.11l-.22-.05.07-.19c.04-.12.08-.24.13-.36.01-.04.04-.06.06-.09,0,0,.02-.02.02-.03l.02-.03.27.08s.03-.04.05-.06c-.02,0-.04-.02-.06-.02-.12-.05-.22-.09-.25-.18-.06-.27-.21-.25-.44-.22-.66.08-1.26-.11-1.81-.33h-.02s0-.03,0-.03c-.07-.18-.15-.36-.27-.42-.1-.05-.24-.04-.37-.02-.04,0-.08,0-.12,0-.12,0-.25.03-.38.04-.27.04-.54.08-.79.01-.5-.13-1-.09-1.42-.05-.44.05-.83.07-1.14-.19-.05.03-.1.07-.14.1-.12.08-.23.16-.36.21-.32.11-.66.18-.99.25-.36.08-.61.23-.84.52.64-.35,1.25-.66,2.01-.55h.05s0,.06,0,.06c-.02.15-.08.3-.14.43-.12.28-.23.52.05.82l.07.07-.24.04c-.1.02-.18.03-.27.05-.83.13-1.51.43-2.13.95-.4.33-.99.58-1.62.67-.08.01-.16.02-.24.03-.33.04-.64.08-.94.23-.07.03-.14.07-.21.1-.43.2-.83.39-.93.91-.08.42-.15.86-.18,1.31-.01.23-.02.46-.03.69-.05,1.1-.1,2.23-.49,3.3-.03.09-.04.18-.05.28,0,.08-.02.16-.04.24-.03.12-.07.23-.11.34-.06.18-.12.36-.15.54-.05.35-.1.7-.15,1.06-.15,1.01-.3,2.06-.33,3.1-.02.63-.1,1.27-.18,1.88-.1.75-.19,1.53-.18,2.3,0,.03,0,.06-.02.08,0,.02-.01.04-.01.05v.09c0,.14,0,.29,0,.43.01.2.03.4.04.61.02.21.03.42.04.62,0,.11,0,.22,0,.32,0,.18,0,.36.03.53.16.98.34,1.97.52,2.88.03.17.06.34.09.51.07.46.15.94.32,1.36.15.36.12.69.09,1.01-.02.18-.03.35-.02.53l.03.34-.13-.32c-.05-.12-.07-.24-.09-.36,0-.05-.02-.1-.03-.15-.12-.6-.25-1.19-.38-1.78l-.18-.85s-.01-.07-.02-.1c0-.06-.01-.11-.03-.15-.49-1.23-.78-2.53-.84-3.87-.02-.44-.02-.88-.01-1.31,0-.22,0-.43,0-.65,0-.27,0-.53,0-.8,0-.55-.02-1.11,0-1.66.02-.56.05-1.13.08-1.68.02-.34.04-.68.06-1.02.01-.23.02-.47.02-.7,0-.4.01-.82.06-1.23.06-.5.13-1,.21-1.49.11-.68.21-1.39.27-2.08.11-1.51.39-3.08.86-4.79.17-.62.62-.91,1.1-1.18.26-.15.5-.36.73-.56.09-.08.19-.16.28-.24l-.03-.04c-.29,0-.51.17-.75.34-.04.03-.08.06-.12.09-.15.11-.32.18-.48.22-.45.09-.89.55-.99,1.01-.15.76-.3,1.38-.46,1.95-.21.75-.46,1.75-.5,2.8-.03.76-.1,1.35-.22,1.89C.16,25.66.06,27.42.01,28.76c-.03.77,0,1.55,0,2.31.01.56.02,1.15.02,1.72,0,1.15.11,2.3.35,3.53.04.21.13.43.21.63.08.2.17.42.21.63.2.94.39,1.9.57,2.83.17.88.35,1.8.54,2.7.12.59.27,1.19.4,1.77.12.52.25,1.05.36,1.58.07.31.17.61.27.91.21.63.44,1.29.32,2.01-.05.28-.06.58-.06.87,0,.27-.02.55-.06.83-.05.31,0,.57.12.86.13.29.25.65-.03.91-.12.11-.14.16-.13.19,0,.05.1.09.19.14h.02c.63.34,1.32.42,1.99.49.27.03.55.06.82.11.03,0,.07,0,.09-.01.31-.19.51.03.64.18.21.23.43.48.62.75.09.13.21.33.23.54.04.44.09.95.05,1.44-.11,1.56-.04,3.22.22,5.22.19,1.46.18,2.93.14,4.3,0,.1-.03.2-.05.29-.01.04-.02.08-.03.13v.05s-.06,0-.06,0c-.04,0-.08-.02-.12-.02h-.05s0-.06,0-.06c0-.06,0-.12.01-.19.01-.14.02-.28.02-.42v-.1c0-.26,0-.53-.03-.78-.04-.29-.08-.59-.13-.88-.04-.28-.09-.57-.13-.86-.03-.24-.05-.48-.06-.72-.02-.21-.03-.43-.06-.64-.06-.54-.13-1.07-.19-1.6-.11-.89-.22-1.8-.31-2.71-.03-.28-.01-.56,0-.84,0-.15.02-.3.02-.46,0-.19,0-.4-.04-.59-.02-.08-.09-.19-.16-.21-.08-.03-.19-.06-.26-.01-.05.04-.07.13-.05.27.02.22.06.44.09.65.04.25.08.51.11.77.04.39.07.78.1,1.17.04.56.08,1.13.15,1.69.17,1.37.36,2.76.54,4.11.12.9.24,1.8.36,2.71.16,1.2.31,2.43.46,3.61.08.63.16,1.25.24,1.88.03.2.05.41.08.61.03.19.05.39.08.58.03.24.06.49.1.73.09.66.18,1.34.25,2.01.05.48.1.96.14,1.43.06.61.12,1.24.19,1.85.06.48.14.96.21,1.42.07.42.14.85.19,1.27.06.44.09.88.13,1.31.02.25.04.5.06.75.03.29.06.59.1.88l.03.28c.06.48.24.96.57,1.49.31-1.24.57-2.48.83-3.68.12-.54.23-1.08.35-1.62.29-1.36.6-2.77.88-4.16.1-.48.16-.97.21-1.45.03-.27.07-.54.1-.81.08-.54.33-.98.74-1.25.03-.02.06-.04.08-.06.19-.13.34-.23.36-.46v-.06s.06,0,.06,0c.15.01.25.06.31.14.08.11.07.27.04.42-.03.13-.06.26-.1.39-.04.13-.07.26-.1.39-.12.63-.24,1.25-.35,1.88-.23,1.22-.46,2.49-.73,3.72-.28,1.29-.6,2.59-.91,3.84-.13.51-.26,1.03-.38,1.54-.26,1.05-.51,2.08-.76,3.1-.07.26-.14.53-.21.79-.12.42-.24.86-.33,1.3-.14.66-.25,1.34-.37,2-.07.4-.14.81-.22,1.21-.01.07-.02.15-.03.22-.03.2-.06.41-.14.57-.05.52-.08.94-.09,1.35h0c0,.07,0,.13,0,.18,0,.04.01.08.01.11.02.19.05.4.14.55.1.18.23.35.35.51.08.11.17.22.25.34.25.36.48.77.4,1.33-.06.42-.04.9.05,1.48,0,.04.01.08.02.13.03.25.06.52.39.54.68.04,1.21-.1,1.63-.44.17-.14.34-.3.51-.45.23-.21.47-.43.73-.62.44-.32.9-.63,1.34-.93.42-.29.86-.58,1.29-.89,1.07-.78,1.33-1.77.74-2.87-.19-.35-.48-.52-.9-.52-.02,0-.05,0-.07,0-.18,0-.37.04-.55.08-.09.02-.18.03-.27.05-.12.02-.23.03-.35.05l-.37.05.06-.1c.08-.13.15-.25.23-.37.2-.33.39-.64.6-.95,0-.1.03-.19.08-.28.05-.1.1-.21.15-.31h-.06s.02-.07.02-.07c.01-.05.02-.1.03-.14.02-.09.04-.18.06-.26l.18-.59c.26-.86.54-1.75.82-2.62l.02-.07c.04-.14.09-.29.17-.42,0,0,0,0,0-.01,0-.02,0-.04,0-.06.02-.13.07-.25.12-.37.02-.05.04-.1.06-.15,0,0,0,0-.01,0l-.03-.02.14-.64c.1-.47.21-.96.32-1.44l.05-.21c.07-.33.15-.67.24-1,.04-.14.09-.28.13-.41.06-.16.12-.33.15-.5.09-.4.16-.83.23-1.37.15-1.12.29-2.25.43-3.37.07-.55.14-1.1.21-1.66.01-.11.03-.22.04-.33h-.02s-.08-.01-.12-.02h-.05s0-.06,0-.06l.45-4.21h.19l-.29,2.9c.16-1.25.32-2.54.5-3.81.18-1.28.37-2.58.56-3.83.23-1.57.48-3.19.69-4.78.12-.87.21-1.75.29-2.6.07-.7.14-1.43.23-2.14.08-.65.19-1.32.29-1.96.08-.48.16-.98.23-1.47.03-.19,0-.4-.01-.6,0-.07-.01-.13-.02-.2,0-.08-.02-.16-.05-.26,0-.04-.02-.09-.03-.15-.1,0-.21.02-.31.02-.27.02-.55.04-.82.09-.41.08-.83.2-1.23.31-.18.05-.36.1-.54.14-.04,0-.08.01-.11.01h-.51c-.6,0-1.21-.01-1.82-.03-.12,0-.23-.04-.34-.07-.05-.02-.1-.03-.15-.04h-.03s-.05-.19-.05-.19l.04-.02c.24-.12.48-.23.72-.35-3.45-.14-6.83-.42-10.04-.83v.04s.49.83.49.83l-.17.13-.03-.03s-.06-.05-.09-.08c-.07-.06-.14-.13-.21-.2-.08-.09-.16-.18-.24-.28-.15-.18-.31-.37-.49-.52-.13-.11-.36-.14-.52-.15-.22-.02-.44-.03-.66-.03-.28,0-.56-.02-.84-.05-.49-.06-.6-.23-.68-.68,0-.02,0-.03,0-.05,0-.02,0-.05,0-.06-.48-.66-.33-1.36-.19-2.03.02-.11.05-.22.07-.32.11-.56.22-1.13.33-1.68.15-.76.31-1.54.45-2.31.18-1.06.38-2.16.45-3.26.07-1.05.05-2.13.03-3.17v-.54c-.02-.31-.05-.63-.08-.94-.03-.26-.06-.52-.07-.79-.01-.26,0-.52,0-.78,0-.25.01-.5,0-.75,0-.19-.05-.38-.08-.57-.02-.11-.04-.22-.06-.34-.06-.39-.11-.78-.17-1.18-.11-.8-.23-1.64-.37-2.45-.1-.6-.24-1.2-.38-1.78-.06-.28-.13-.55-.19-.83-.01-.06-.02-.13-.03-.19,0-.03,0-.06-.01-.09v-.04s.18-.07.18-.07l.02.04s.05.1.08.15c.06.11.12.22.15.34.05.2.09.39.14.59.18.75.36,1.53.49,2.31.18,1.07.34,2.26.51,3.74.1.9.19,1.82.28,2.7.08.78.16,1.58.24,2.38.01.12.08.24.14.36.04.07.08.14.11.21.02.04.03.07.05.11.06.12.12.25.1.37l-.02.18c-.09.82-.19,1.67-.34,2.5-.14.78-.3,1.58-.46,2.35-.2.99-.4,2.01-.58,3.02-.1.61-.08,1.24-.04,1.88.05.78.54,1.24,1.34,1.24.02,0,.05,0,.08,0,.19,0,.39-.02.58-.03.4-.02.82-.04,1.22-.04.28,0,.57.05.84.09.13.02.25.04.38.05.14.02.29.03.43.05.32.04.64.07.96.12.14.02.28.07.41.11.11.04.23.07.35.1.28.06.58.09.87.12h.07c.31.04.63.08.94.11.41.04.83.09,1.24.14.48.06.91.12,1.29.19.47.09.98.19,1.54.32.35.08.66.06.98-.06.19-.07.39-.12.59-.17.15-.03.3-.07.44-.11.24-.08.48-.16.72-.25.29-.1.59-.21.88-.3.65-.2,1.25-.35,1.83-.48.09-.02.18.03.27.08.07.04.13.07.19.08.2.02.44.03.6-.05.41-.21.63-.6.61-1.07-.01-.25-.02-.49-.03-.74-.04-.94-.08-1.91-.21-2.85-.28-1.91-.66-3.85-1.03-5.67-.11-.53-.25-1.06-.4-1.57-.11-.4-.23-.82-.33-1.23-.07-.3-.11-.61-.16-.91-.05-.34-.1-.69-.18-1.02-.26-.99-.57-1.97-.86-2.87-.56-1.7-.95-3.22-1.21-4.65-.06-.32-.16-.64-.25-.95-.06-.18-.11-.37-.16-.55-.07-.26.02-.46.27-.64l.05-.03.09.15c.04.07.08.14.12.2.04.06.07.1.09.12.12-.03.21-.03.29.02.11.07.14.2.16.32.01.05.02.1.04.14.72,1.64,1.06,3.4,1.39,5.11.08.4.15.79.24,1.19.07.32.13.64.18.95.12.65.25,1.33.43,1.98.17.63.4,1.26.61,1.88.13.38.27.77.4,1.16.14.45.28.9.41,1.34.13.45.27.91.42,1.36.14.42.29.78.47,1.09.63,1.12,1.08,2.31,1.53,3.53.14.38.34.76.57,1.1.08.12.23.2.38.28.07.04.13.07.2.11.04-.02.08-.04.13-.06.17-.08.4-.18.63-.21.48-.05.94-.22,1.38-.38.34-.13.7-.26,1.07-.33.38-.08.78-.06,1.16-.04.12,0,.25.01.37.02.09,0,.2.17.21.26,0,.11.01.21,0,.31l.11-.03-.11.09c-.05.52-.34.85-.91,1.08-1.22.49-2.29.65-3.37.5l-.22-.03.21-.07c.46-.16.93-.27,1.38-.38.88-.21,1.72-.41,2.47-.91-.14.04-.28.08-.42.12-.47.14-.92.27-1.38.39-.7.2-1.43.4-2.15.58-.14.03-.32-.11-.37-.15-.06-.06-.12-.12-.16-.19-.05-.06-.09-.12-.14-.16-.06-.05-.17-.09-.2-.08-.06.03-.12.14-.14.22-.02.07-.01.15,0,.24,0,.05,0,.1,0,.16v.07l-.07-.02c-.98-.27-1.34-1.02-1.72-1.82l-.02-.04c.1,1.02.57,1.65,1.46,1.98.52.19.81.53.9,1.05.02.13.17.29.3.36.27.16.54.31.81.45.41.22.83.45,1.22.71.53.35.99.16,1.48-.05l.07-.03c.46-.2.79-.55,1-1.09.12-.29.25-.54.4-.74.22-.29.28-.55.19-.85-.02-.05-.03-.11-.04-.16-.02-.09-.04-.17-.08-.24-.32-.7.05-1.21.36-1.54l.29-.31c.57-.6,1.16-1.23,1.76-1.83.13-.14.28-.26.43-.39.19-.16.38-.33.54-.51.27-.31.5-.67.69-1.04.37-.75.91-1.39,1.76-2.09.98-.8,1.74-1.8,2.27-2.97.12-.26.26-.52.39-.77.08-.15.16-.3.23-.45.36-.72.43-1.51.5-2.27.02-.17.03-.34.05-.51.02-.14.02-.28.03-.42.02-.28.04-.57.1-.84.08-.34.26-.65.43-.96.04-.07.12-.1.23-.11.23-.02.57.09.69.25.08.11.16.21.24.32.24.32.49.65.65,1.02.13.31.18.66.22,1,.02.16.04.32.07.48.04.21.08.41.11.62.1.58.21,1.18.36,1.76.06.22.2.43.34.64.02.03.04.06.06.08l-.04-.34c-.05-.36-.09-.71-.14-1.07-.02-.2-.05-.4-.08-.59-.06-.47-.13-.95-.17-1.42-.05-.68-.34-1.26-.9-1.84-.23-.24-.41-.48-.55-.76l-.05-.1.11.02c.13.02.26.05.38.08.27.06.55.11.83.15.71.09,1.36.37,1.99.64.2.08.4.17.6.25.54.22,1.11.28,1.73.2,1.39-.18,2.47-.48,3.4-.95.21-.1.4-.26.58-.41.02-.02.05-.04.07-.06l-.44.1.03-.09c.12-.35.37-.46.59-.57.05-.02.09-.04.13-.07.21-.11.28-.22.31-.46.03-.21.15-.41.28-.6l.06-.09c.36-.57.74-1.15,1.13-1.72.1-.15.22-.28.33-.42.05-.06.1-.12.15-.18l.03-.04.06.05s.04.03.05.04l.02.02-.04.45c.6-1.87,1.17-3.88.91-5.97-.04-.35-.07-.71-.07-1.07,0-.09.03-.4.16-.43.14-.03.37.01.48.13.07.08.15.15.23.23.28.27.57.55.72.89.44,1,.89,2.07,1.14,3.17.22.98.06,1.97-.45,2.81-.3.5-.67.96-1.02,1.41-.1.13-.2.26-.3.39-.08.1-.25.19-.36.16-.56-.16-1,.12-1.42.39-.05.03-.09.06-.14.09l-.11.07c-.36.23-.7.45-1.17.45-.11,0-.24.12-.36.24-.06.06-.12.12-.18.17l-.27.21,1.21-.28-1.7,5.52.18-.16v.12c.02,1.01.12,1.79.55,2.52l.04.06-.85.2v-.06c-.01-.1-.02-.19-.02-.28-.01-.19-.02-.37-.05-.54-.08-.53-.27-.71-.83-.8-1.15-.19-2.32-.09-3.49.3-.45.15-.85.15-1.24,0-.11-.04-.25-.03-.39-.02-.04,0-.07,0-.11,0-.34.02-.68.05-1.02.07l-.35.03h0s-.07,0-.07,0c-.02.02-.04.05-.06.07-.06.07-.12.14-.19.19-.37.29-.73.58-1.1.87-.81.63-1.64,1.29-2.42,1.98-.35.31-.64.71-.92,1.1-.13.18-.26.37-.4.54l-.02.02s-.05.06-.08.09c-.69.47-.97,1.21-1.25,1.92-.07.17-.13.34-.2.5-.09.22-.16.46-.23.69-.08.26-.16.54-.28.79-.15.32-.35.63-.55.92-.08.12-.16.24-.23.36-.75,1.19-1.34,2.34-1.8,3.52-.18.45-.38.89-.57,1.32-.28.61-.57,1.25-.79,1.9-.55,1.69-1.05,3.42-1.54,5.09-.19.67-.39,1.33-.59,2-.23.77-.46,1.69-.46,2.67,0,.24-.1.48-.2.71-.04.09-.08.19-.11.28-.11.3-.21.59-.32.89-.21.57-.42,1.16-.61,1.75-.39,1.25-.9,2.9-1.36,4.56-.13.46-.22.95-.32,1.42-.1.48-.19.97-.33,1.44-.15.52-.33,1.04-.51,1.55-.13.36-.26.74-.38,1.11-.22.7-.43,1.43-.64,2.12-.11.39-.23.78-.34,1.16l-.13.42c-.27.91-.55,1.84-.84,2.76.03.55-.23,1.07-.5,1.49-.11.29-.21.61-.3.92-.13.44-.27.89-.46,1.3-.02.13-.05.28-.11.43-.04.11-.11.21-.21.3-.24.62-.48,1.23-.73,1.85-.03.07-.05.14-.07.21-.09.29-.19.59-.57.71-.04.02-.08.21-.08.38,0,.09.09.2.16.28.11.14.22.28.33.41.38.48.78.98,1.2,1.44.19.22.46.42.75.57,1.1.56,2.13,1.26,3.12,1.94l.19.13c.74.51,1.5.96,2.25,1.33.49.25,1.03.43,1.55.61.14.05.29.1.43.15.36.13.63.19.89.22.3.03.61.05.92.06.33.02.68.03,1.02.07.74.08,1.57.18,2.22.77.16.15.34.28.51.41.08.06.16.12.24.18l.03.02s.06.05.09.08c.56.76,1.39.96,2.14,1.05.19.02.37.05.56.07.48.06.97.12,1.46.2.3.05.6.1.89.16.31.06.63.12.95.17.73.11,1.44-.09,2.13-.28l.14-.04c.97-.27,1.78-.41,2.54-.45.63-.03,1.24-.12,1.75-.2.08-.01.16-.02.23-.04.34-.05.68-.11,1.02-.11.32,0,.64.05.96.19.26.12.54.22.8.33.49.19.99.4,1.46.65,1.14.63,2.07,1.02,3,1.24.18.04.36.08.53.12.35.08.71.15,1.06.26.64.2,1.32.26,2.08.18.46-.05.92-.1,1.38-.15.65-.07,1.33-.15,2-.21l.15-.02c1.15-.11,2.34-.23,3.52-.07,1.13.15,2.27.04,3.47-.34.81-.25,1.64-.45,2.45-.63.26-.06.52-.12.78-.18,1.45-.34,2.97-.77,4.18-1.89.22-.2.49-.35.75-.49.09-.05.18-.1.27-.15.17-.1.35-.2.53-.29.26-.14.52-.28.78-.44.58-.36,1.04-.92,1.41-1.7.35-.73.18-1.4-.52-2.07-.04-.04-.09-.08-.13-.12-.15-.12-.3-.25-.31-.4,0-.16.11-.33.22-.49.04-.05.07-.1.1-.15.75-1.22,1.69-2.6,3.2-3.41.1-.05.2-.12.32-.22.82-.7,1.76-1.71,1.73-3.25,0-.11,0-.23.02-.34.01-.16.03-.31,0-.46ZM16.76,96.99l.11.19-.04.04-1.19.67-.13-.2,1.26-.69ZM17.37,84.08c.24-.94.49-1.91.73-2.87.26-1.03.51-2.09.76-3.11.11-.45.22-.9.33-1.35.02-.08.04-.16.06-.25.02-.1.05-.2.07-.31,0-.03.02-.05.04-.07,0,0,0-.01.01-.02l.02-.03.15.04v.05c-.02.13-.04.26-.05.39-.03.27-.07.55-.1.82-.03.3-.05.6-.08.9-.04.53-.09,1.08-.16,1.62-.12.9-.26,1.71-.43,2.46-.35,1.56-.74,3.17-1.19,4.93-.16.61-.33,1.23-.5,1.83-.12.43-.25.88-.37,1.32-.07.26-.13.53-.19.79-.1.48-.21.97-.4,1.43-.23.59-.57,1.14-.9,1.67-.08.12-.15.24-.22.37-.16.27-.35.53-.53.78-.1.14-.2.28-.3.42-.34.5-.84.71-1.34.87-.22.07-.47.15-.74.17l-.19.02.15-.11s.05-.04.07-.06c.05-.04.11-.09.17-.12.25-.13.37-.27.25-.59-.07-.17-.01-.27.02-.31.07-.08.2-.09.36-.04.06.02.15,0,.21-.03.53-.26.93-.7,1.28-1.4.68-1.36,1.19-2.85,1.62-4.7.43-1.84.91-3.7,1.37-5.5ZM13.21,55.96c0-.1.01-.2.02-.31.02-.28.04-.55.07-.82.01-.11.15-.25.26-.26.16-.02.32.01.47.04l.12.02.02.03s.03.14,0,.19c-.21.52-.21,1.08-.22,1.62,0,.17,0,.35,0,.53-.02.52-.02,1.05-.02,1.53,0,.81.02,1.62.02,2.43.02,1.65.04,3.35.03,5.03,0,.86-.07,1.73-.14,2.58-.01.16-.03.33-.04.49-.02.29-.14.58-.26.84l-.1.22v-.24c0-.16,0-.32,0-.48,0-.35,0-.71,0-1.07.04-1.16.05-2.69-.21-4.23-.07-.41-.06-.84-.06-1.25,0-.25,0-.5,0-.75-.02-.43-.05-.86-.08-1.28-.03-.46-.07-.95-.09-1.42-.04-.81-.04-1.64-.05-2.37,0-.45.12-.78.37-1.02h-.12s0-.05,0-.05ZM12.3,54.31h0c.1-.08.24-.09.39-.04.2.07.37.26.41.46l.02.08h-.08c-.06-.02-.13-.03-.19-.04-.18-.03-.36-.05-.53-.1-.04,0-.05-.05-.06-.09,0,0-.04-.21.03-.27ZM12.31,73.63l.21.05-.38,1.84h-.05c-.05-.02-.1-.03-.14-.04h-.05s.42-1.85.42-1.85ZM14.77,15.07l-.05-.03c-.32-.17-.63-.35-.95-.52l-.05-.03.1-.19,1.06.56-.12.2ZM51.2,6.26c.06-.01.1-.02.13-.03.06-.02.1-.03.15-.02,1.25.41,1.9,1.28,1.9,2.51,0,.08,0,.16.02.24.02.18.04.37-.04.52-.07.14-.24.21-.43.3-.04.02-.08.04-.12.06l.41.08v.05c-.02.18-.09.31-.2.4-.09.06-.2.1-.33.1-.07,0-.14,0-.21-.03h-.03s0-.04,0-.04c-.03-.08-.06-.16-.09-.24-.06-.17-.13-.32-.13-.49,0-.22.06-.48.18-.67.28-.45.31-.5,0-.95-.11-.16-.25-.32-.38-.46-.12-.13-.23-.27-.34-.41-.13-.17-.23-.36-.35-.55-.05-.09-.11-.18-.16-.28l-.04-.06.07-.02ZM46.62,17.75c-.08,0-.16-.04-.24-.12-.67-.68-1.43-1.51-1.95-2.53-.04-.07-.04-.15-.05-.23,0-.03,0-.07-.01-.1l-.03-.18.13.13c.82.86,1.54,1.55,2.64,1.84h.03s.01.03.01.03c.11.25-.01.83-.27,1.05-.08.07-.16.11-.24.11ZM32.95,50.94l-.02.23-.61-.05.25.5v.02s-.02.04-.03.07c-.02.06-.06.15-.08.24-.14.52-.49.85-1.04,1-.2.06-.41.1-.62.1-.32,0-.64-.1-.96-.41-.23-.23-.53-.41-.82-.58-.14-.08-.28-.17-.41-.25-.05-.03-.09-.07-.14-.11-.02-.02-.05-.04-.08-.07l-.09-.07.11-.02c.34-.06.68-.11,1.01-.15,1.24-.17,2.4-.33,3.42-1.11l.07-.05.02.08s0,.02,0,.03c.01.04.03.1.03.16,0,.15-.02.3-.03.44ZM42.05,33.6c-.07.26-.13.52-.2.78-.5,1.98-1.03,4.03-2.05,5.88-.28.5-.59.91-.92,1.2-1.08.94-1.87,2.11-2.57,3.24-.22.36-.5.69-.78,1-.13.16-.27.32-.4.48-.18.23-.36.46-.54.69-.22.29-.45.57-.67.85-.16.2-.34.4-.52.61-.08.1-.17.19-.25.3l-.04.05-.04-.04c-.19-.21-.32-.34-.43-.45l-.02-.02v-.03c.05-.12.09-.23.13-.35.09-.27.17-.52.25-.77.64-2.08,1.6-3.98,2.37-5.41l.14-.27c.33-.61.67-1.25,1.04-1.85.16-.25.36-.49.55-.71.11-.12.22-.25.32-.38.06-.08.11-.17.16-.27.02-.04.05-.09.07-.13h0c.04-.05.1-.1.15-.13.11-.08.22-.17.25-.28.15-.41.28-.82.4-1.23.13-.42.27-.85.42-1.27.41-1.15.54-2.32.61-3.72.01-.3.05-.61.08-.9.01-.14.03-.27.04-.41v-.04s.04,0,.04,0c.03,0,.07-.01.1-.02h.04s.07.09.07.09c.07.1.13.2.2.3.11.17.21.34.32.51.23.36.46.73.7,1.09.16.24.33.48.5.71.14.2.28.4.42.6.06.09.09.23.06.32ZM42.75,32.56l.09-.17h.03s0,0,.01,0c.52,0,.86.22,1.04.66l.06.14-1.23-.62ZM51.11,33.42c-.32.09-.64.18-.97.26-.07.02-.15.03-.23.04-.09.01-.17.03-.26.05-.14.04-.28.07-.43.07-.29,0-.6-.09-.93-.26-1.17-.61-2.5-.99-4.29-1.22-.23-.03-.46-.05-.69-.07-.16-.01-.31-.03-.47-.04-.09,0-.15,0-.17.03-.02.03-.02.1.02.2l.02.06-.17.03h-.02s-.09-.06-.13-.09c-.1-.05-.2-.11-.28-.19-.87-.79-1.93-1.89-2.36-3.41-.34-1.18-.39-2.25-.17-3.29l.03-.12c.13-.57.25-1.16.54-1.66.38-.65.93-1.47,1.79-1.94.86-.47,1.77-.89,2.64-1.3l.41-.19c.14-.07.29-.09.45-.11.07-.01.15-.02.23-.04l.11-.02-.32.6c-.17.32-.33.63-.49.93,0,.02-.03.05-.07.07-.75.32-1.12,1-1.46,1.65-.07.13-.14.26-.21.39-.22.39-.4.82-.58,1.23-.07.17-.14.35-.22.52h0s.31-.19.31-.19l-.03.12c-.03.14-.06.27-.09.4-.06.27-.12.52-.15.78-.08.78-.11,1.69.2,2.58.17.49.45.85.85,1.11.17.11.33.25.48.38l.03.03c.09.08.18.16.25.15.05,0,.11-.06.16-.16.01-.02.03-.03.05-.04.07-.02.25.02.32.07.13.09.26.2.39.29.17.13.34.27.52.38.38.24.8.43,1.12.57.07.03.15.02.24.01.05,0,.11,0,.16,0,.15,0,.3.02.45.02l.27.02v.2s-.33.16-.33.16c.32.6,1.16,1.07,1.77.98.41-.06.82-.14,1.22-.21.19-.04.39-.07.58-.11.05,0,.1-.01.15-.02h.11s.04.17.04.17l-.42.11ZM52.31,17.05c-.1.04-.21.07-.32.1-.23.07-.48.14-.68.27-.22.13-.4.3-.6.49-.09.08-.17.16-.26.24l-.05.05-.72-1.45.1.02c.14.02.28.05.42.07.3.05.59.1.87.11.27.01.55-.01.82-.03.12-.01.24-.02.37-.03h.04s.08.16.08.16l-.06.02ZM54.52,14.96c-.59.42-1.28.63-2.05.63-.41,0-.84-.06-1.3-.17-.71-.18-1.39-.48-2.05-.78-.2-.09-.41-.18-.61-.27-.28-.12-.56-.27-.82-.42-.14-.08-.28-.16-.42-.23-.82-.43-1.55-1.02-2.18-1.77-.44-.53-.58-1.27-.4-2.14.25-1.21.61-2.06,1.16-2.76.41-.52.9-1,1.72-.92.33.03.61-.14.89-.33.49-.33,1.11-.37,1.79-.11l.14.05-.15.05c-.1.03-.2.04-.31.05-.25.02-.47.04-.55.36v.04h-.05s-.04,0-.06,0c-.01,0-.03,0-.04,0-.68-.15-1.06,0-1.44.61-.09.14-.29.26-.46.27-1.08.08-1.64.72-1.57,1.81,0,.03,0,.06,0,.09,0,.06.01.12.01.18-.05,1.13.44,1.99,1.54,2.7l.04.03c.87.56,1.76,1.13,2.79,1.41.17.04.32.14.46.23l.08.05c.4.24.85.3,1.44.18.96-.18,1.87-.65,2.79-1.44.12-.11.24-.23.35-.36l-1.68,1.04s-.04.02-.06.03c-.03.01-.05.03-.08.05-.64.46-1.24.23-1.81-.04-.21-.1-.44-.22-.65-.41l-.1-.08h.13c.28-.04.55-.06.83-.09.72-.07,1.46-.14,2.19-.22.23-.03.47-.11.71-.19.12-.04.25-.08.38-.12l.22-.06c.12-.15.23-.32.34-.48.08-.12.16-.24.25-.35.26-.36.37-.54.34-.67-.03-.13-.23-.24-.59-.43l-.06-.03c-.17-.09-.33-.25-.42-.41-.14-.26-.26-.54-.38-.8-.06-.13-.12-.27-.18-.4-.1-.21-.2-.41-.29-.61l-.17-.35h.1c.34.05.56.33.68.55.47.87,1.21,1.48,1.88,1.97.64.46.84,1.06.6,1.83-.21.7-.52,1.23-.95,1.62-.57.52-1.25,1.12-1.97,1.64ZM82.82,84.52c1.51.86,2.78,1.88,3.93,2.84.09.07.15.18.21.3.03.06.07.13.11.19l.06.09-.26-.02c-1.03-.07-2-.14-2.62-1.08-.33-.5-.66-.99-1.02-1.52-.16-.24-.32-.48-.49-.73l-.13-.19.2.11ZM61.81,53.06l.06.03s.03.02.05.03c.04.02.09.04.12.07.37.29.5.7.63,1.09.05.16.11.32.18.47.14.3.23.62.32.94.04.14.08.28.13.42l.02.05-.2.09-.02-.05c-.08-.17-.15-.34-.23-.51-.17-.39-.35-.78-.54-1.17-.06-.12-.13-.23-.19-.34-.06-.09-.11-.19-.16-.28-.09-.18-.18-.37-.24-.55-.02-.05,0-.11.03-.16,0-.02.02-.04.02-.06l.02-.06ZM62.02,54.71l-.16.1-.03-.03c-.3-.25-.6-.57-.55-1.1l.02-.16.73,1.18ZM61.58,52.14c.14.3.26.73.14.96l-.05.09-.83-1.76s0,0-.01.01l-.05.05-.92-1.82.17-.1.1.09s.08.07.12.11c.13.12.2.28.27.43.09.2.18.38.38.51.09.06.15.16.16.28.01.15-.06.31-.19.44l.09.02c.25.05.5.39.64.7ZM59.63,49.65l-.09-.24c-.08-.21-.14-.39-.22-.57-.02,0-.07,0-.1.01-.03,0-.06,0-.09.01h-.04s-.24-.85-.24-.85l.04-.02s.06-.03.09-.04l.06-.03.98,1.62-.4.11ZM57.65,33.7c.01-.07.01-.13.02-.21v-.05c.02-.28.14-.45.43-.58.33-.15.65-.35.96-.54.13-.08.26-.16.39-.24l.08-.05v.09c0,.5,0,1.01,0,1.52,0,1.24-.01,2.51.01,3.78.01.62.07,1.25.13,1.86.03.3.06.6.08.9.12,1.49.3,2.62.57,3.68.35,1.33.69,2.75.66,4.22,0,.25.02.51.04.76.01.13.02.27.03.4,0,.07,0,.15,0,.22,0,.03,0,.07,0,.1v.04l-.21.07-.02-.04c-.18-.32-.37-.64-.55-.96-.42-.72-.86-1.47-1.24-2.24-.41-.82-.77-1.72-1.16-2.84-.48-1.42-.69-2.98-.64-4.92.04-1.59.11-3.29.41-4.98ZM55.58,36.14c.15-.62.35-1.23.55-1.82.07-.22.15-.44.22-.66.14-.44.21-.45.7-.35h.05s-.01.06-.01.06c-.67,3.31-.48,6.86.63,11.19l.09.36-.48-.8c-.21-.36-.43-.72-.64-1.08-.05-.08-.1-.17-.14-.26-.07-.13-.13-.26-.21-.38-1.15-1.7-1.39-3.63-.76-6.26ZM50.03,39.69c.36-.07.72-.15,1.07-.22.17-.04.31-.08.43-.14.25-.12.77-.05,1.1.09.15.06.35.17.41.33.16.41.13.88-.08,1.4-.05.12-.12.2-.22.23-.03.01-.07.02-.1.02-.08,0-.17-.03-.26-.08-.12-.07-.23-.14-.34-.21-.13-.08-.26-.17-.39-.24-.47-.25-1-.51-1.65-.82-.07-.03-.15-.05-.24-.06-.04,0-.09-.01-.13-.02h-.04s-.02-.16-.02-.16l.46-.09ZM39.34,99.34c-.06.28-.14.55-.22.81-.04.12-.07.25-.11.37l-.02.06-.06-.02c-.15-.06-.3-.13-.44-.2-.31-.14-.6-.27-.91-.35-.45-.11-.91-.19-1.36-.27-.27-.05-.56-.09-.83-.15l-.36-.07c-.68-.13-1.38-.27-2.06-.45-.97-.25-1.73-.57-2.39-1.01-.61-.4-1.23-.8-1.84-1.2-.91-.59-1.85-1.2-2.77-1.82-.36-.24-.69-.51-1.04-.79-.16-.13-.33-.27-.5-.4l-.08-.06.1-.03c.63-.19.95-.67,1.28-1.18.05-.07.1-.14.14-.22.81-1.19,1.39-2.54,1.89-4.4.31-1.18.7-2.37,1.07-3.52.18-.55.36-1.11.53-1.67.12-.38.24-.77.36-1.15.33-1.04.67-2.12.96-3.19.18-.69.33-1.4.47-2.09.11-.54.22-1.11.36-1.66.19-.77.41-1.54.62-2.29.1-.35.2-.7.3-1.05.04-.14.08-.28.11-.42.06-.24.13-.49.2-.74.09-.3.19-.61.29-.91.15-.47.31-.96.44-1.45.12-.44.23-.9.34-1.34.11-.47.23-.96.37-1.44.44-1.55.9-3.16,1.4-4.74.85-2.63,1.68-5.2,2.58-7.72.64-1.8,1.5-4.16,2.51-6.47.44-1,1.01-2.15,1.92-3.05.36-.36.79-.68,1.2-.98l.18-.13c.1-.07.23-.11.36-.14.05-.01.11-.03.17-.04,0-.02,0-.04,0-.07v-.08s.08.04.08.04c.08.04.15.05.21.03.11-.04.17-.19.21-.27v-.02c.18-.39.5-.57.81-.75l.07-.04c.1-.06.2-.13.31-.2.06-.04.12-.08.18-.12h.02s.02,0,.02,0c.39.08.8.16,1.24.25l.45.09v.05c-.06.5.03,1,.24,1.48,0-.03,0-.06,0-.09-.03-.29-.06-.6-.1-.9-.03-.2-.02-.48.34-.56.21-.04.41-.08.62-.11.09-.02.18-.03.27-.05h.04s.06.15.06.15v.02c-.05.08-.1.15-.15.22-.1.16-.2.31-.24.48-.28,1.09-.76,2.13-1.46,3.18-.42.64-.81,1.31-1.2,1.95l-.24.4c-.11.19-.21.41-.27.63-.16.54-.32,1.09-.47,1.64-.26.92-.53,1.88-.83,2.81-.4,1.28-.86,2.52-1.29,3.69-.18.5-.41.99-.63,1.46-.06.12-.11.25-.17.37-.28.61-.22.78.38,1.09.46.24.84.21,1.36-.1.46-.28.51-.64.57-1.06,0-.06.02-.12.03-.18.1-.58.17-1.17.25-1.74.16-1.21.32-2.45.67-3.65.05-.17.11-.33.17-.49.06-.15.12-.3.16-.45.27-.91.49-1.66.69-2.36.3-1.08.69-1.97,1.2-2.75.06-.1.12-.2.18-.3.08-.15.17-.3.28-.44l.11-.14v.18c-.02.24-.03.48-.05.72-.02.52-.05,1.06-.1,1.59-.11,1.18-.24,2.51-.43,3.81-.17,1.18-.38,2.37-.58,3.53-.09.51-.18,1.03-.26,1.55,0,.02,0,.05-.01.08-.01.06-.02.12-.02.18.04.69-.07,1.37-.35,2.14-.22.61-.36,1.27-.49,1.91-.03.13-.05.25-.08.38-.51,2.44-.97,4.66-1.4,6.8-.25,1.25-.5,2.51-.74,3.74-.43,2.17-.86,4.4-1.33,6.6-.82,3.86-1.19,7.71-1.46,10.97-.05.58-.19,1.17-.33,1.73-.08.3-.15.61-.21.92-.23,1.15-.46,2.3-.68,3.44-.27,1.39-.55,2.79-.83,4.18ZM44.51,55.61l.18-1.03h.05s.09.02.13.03h.05s-.21,1.04-.21,1.04l-.21-.04ZM44.71,55.79l-.23,1.34-.27-.04.29-1.34.22.04ZM49.52,102.48h-.08s.02-.07.02-.07c.26-.97,1-1.4,1.76-1.72.33-.14.68-.23,1.02-.33.24-.07.49-.13.73-.22.29-.1.57-.26.81-.41.17-.1.4-.25.61-.03.41.44.82.89,1.21,1.33l.2.23s.06.1.08.15c0,.03.02.05.03.08l.03.07h-.07c-2.12.31-4.22.61-6.34.91ZM82.68,99.57h0c-.26.18-.53.35-.8.51-.08.05-.17.1-.25.15-.32.19-.63.39-.95.58-.62.38-1.27.77-1.89,1.17-.93.6-1.95.86-2.82,1.03-1.11.22-2.01.44-2.83.72-1.22.4-2.33.5-3.41.3-1.27-.23-2.6-.11-4.19.37-.38.11-.75.12-1.1.13h-.17c-.24.01-.48.01-.71.01-.36,0-.73,0-1.09.03-.2.02-.39.02-.57.02-.89,0-1.68-.18-2.41-.53-.23-.11-.48-.19-.73-.27-.15-.05-.31-.1-.46-.15-.36-.14-.72-.28-1.05-.43-.46-.21-.83-.41-1.18-.63l-.19-.12.59.06c.25.02.51.05.76.07.62.06.98-.21,1.07-.81.02-.12-.07-.31-.16-.4-.3-.3-.62-.57-1.01-.89-.7-.57-1.33-1.08-1.97-1.58-.32-.24-.71-.28-1.2-.13-.42.13-.84.29-1.25.43-.26.09-.53.19-.79.28-.16.05-.33.1-.49.15-.29.08-.59.17-.86.3-.73.36-1.35.93-1.96,1.78-.06.08-.12.17-.18.25-.19.28-.4.56-.63.82-.14.15-.37.22-.6.28-.12.03-.25.03-.37.04-.1,0-.2,0-.3.02-.7.12-1.4.05-2.16-.21-.78-.27-1.6-.31-2.4-.35-.22-.01-.43-.02-.65-.04-.28-.02-.57-.08-.83-.16-.24-.08-.38-.17-.44-.3-.07-.13-.06-.3.02-.55.05-.14.1-.28.16-.42.07-.18.15-.36.2-.55.21-.8.43-1.62.63-2.41.37-1.44.76-2.93,1.18-4.39.71-2.44.97-4.89,1.14-6.96.27-3.39.8-6.81,1.6-10.45.49-2.22.92-4.48,1.33-6.68l.18-.94c.31-1.64.6-3.31.89-4.92.13-.73.26-1.47.39-2.2.1-.54.2-1.09.3-1.63.23-1.27.47-2.58.68-3.88.13-.8.21-1.63.28-2.42.03-.28.05-.56.08-.84.02-.21.03-.43.05-.64.02-.29.04-.6.08-.89.06-.41.13-.83.2-1.23.1-.56.2-1.15.26-1.72.12-1.04.21-2.1.29-3.12.04-.5.08-1,.13-1.49.01-.15.03-.31.05-.46.03-.24.06-.49.07-.73,0-.13-.02-.27-.04-.41-.01-.07-.02-.14-.03-.2-.05-.4-.11-.86.09-1.29l.02-.04h.04c.4.13,1.11,1.08,1.63,2.03-.11-.22-.23-.44-.34-.66-.07-.14-.15-.29-.22-.43-.04-.09-.08-.17-.13-.26l-.07-.15.03-.03s.04-.05.07-.07l.03-.03.04.02s.09.06.13.08c.09.05.17.11.26.17.92.63.93.62,1.68.18.08-.05.17-.1.27-.16l.09-.05c.42-.25.46-.24.76.22,1.35,2.08,2.88,4.59,4.02,7.42.43,1.06.95,2.1,1.46,3.1l.14.27c.91,1.8,1.7,3.62,2.37,5.41.34.91.74,1.82,1.12,2.7.11.25.22.51.33.76.05.11.12.22.19.32.08.11.15.23.21.36.07.17.1.35.14.53.02.08.03.16.05.24.02.07.03.13.05.2v.05s.26-.07.26-.07l.02.05s0,.02.01.03c.01.03.03.06,0,.09-.13.17-.1.32-.01.52.43.95.85,1.91,1.26,2.84.21.48.43.97.64,1.45.11.26.23.51.36.78.04.09.09.19.13.28l.17-.37.05.1s.04.08.06.11c.03.06.05.1.07.15.02.06.03.12.04.19.02.16.04.28.25.3h.03s.02.03.02.03c.02.04.05.26,0,.37-.09.21-.14.38.04.56.09.09.16.2.21.32.14.36.29.72.43,1.08.16.42.33.84.49,1.25.08.19.15.38.23.57.26.64.52,1.31.82,1.95.3.63.54,1.29.77,1.94.17.46.34.94.54,1.41.04.08.09.17.13.25.06.1.12.2.16.31.03.08.02.16,0,.24,0,.07-.02.13,0,.19.11.34.21.68.32,1.02.32,1.02.65,2.07,1.03,3.09.34.92.74,1.83,1.13,2.71.2.46.41.94.61,1.41.2.48.41.99.58,1.5.11.34.2.69.29,1.03.16.59.32,1.19.56,1.75.46,1.06,1.04,2.09,1.59,3.09l.15.27c.2.36.44.71.67,1.05.18.26.36.53.53.8.34.57.83.99,1.48,1.31.51.24,1.02.17,1.65-.23.1-.06.2-.13.3-.19l.1-.06.03.04c.21.27.35.5.32.71-.03.18-.16.34-.47.56ZM67.46,68.26s0-.04.02-.07c.03-.04.1-.1.15-.11.06-.01.21-.02.26.06.06.1.11.21.16.31.02.04.03.08.05.12l.02.05-.14.07-.03-.02s-.07-.04-.1-.06c-.08-.05-.17-.1-.25-.16-.05-.03-.13-.1-.14-.19ZM68.88,71.39l-.44-.96.11-.11.04.02s.06.03.1.04c.1.04.19.08.19.15,0,.26.14.28.4.29.04,0,.09,0,.13.01h.12s-.64.57-.64.57ZM69.54,72.04l-.2.12-.44-.73.23-.15.03.05c.12.22.24.44.37.66l.03.04ZM87.22,90.78c-.31.28-.62.57-.92.85-.39.37-.8.75-1.22,1.11-.6.51-1.1,1.08-1.53,1.76-.37.59-.81,1.14-1.24,1.68-.17.21-.34.43-.51.64-.05.06-.1.11-.18.17-.04.04-.09.08-.15.13l-.05.04-.03-.05c-.18-.26-.36-.52-.54-.77-.4-.57-.77-1.11-1.12-1.67-.63-1.03-1.32-2.26-1.69-3.6-.52-1.9-1.29-3.74-2.02-5.53-.46-1.1-.93-2.24-1.34-3.38-.81-2.26-1.87-4.39-2.89-6.37-.57-1.1-1-2.14-1.34-3.18-.11-.33-.27-.65-.44-.95-.09-.16-.17-.33-.25-.5-.52-1.1-1.03-2.2-1.55-3.31l-.22-.47c-.35-.76-.72-1.54-1.07-2.31l-.18-.4c-.48-1.07-.98-2.18-1.45-3.29-.45-1.08-.89-2.18-1.31-3.24-.14-.35-.28-.7-.42-1.06-.02-.06-.02-.12-.03-.18,0-.02,0-.05,0-.07v-.04s.04-.01.04-.01c.03,0,.06-.02.08-.03h.04s.02.02.02.02c.09.15.19.31.28.46.2.32.4.65.59.98.31.53.61,1.06.91,1.6.58,1.03,1.19,2.09,1.81,3.11.4.66.85,1.31,1.28,1.94.21.31.43.62.64.94l.49.74c.55.82,1.12,1.67,1.67,2.51.89,1.36,1.77,2.72,2.65,4.08.52.8,1.03,1.59,1.55,2.39.23.36.46.71.7,1.06.41.62.83,1.26,1.23,1.9.44.7.78,1.23,1.06,1.66q1.15,1.79,2.52,4.84l.36.8c.49,1.08,1.23,2.44,2.6,3.32.56.36,1.18.67,1.9.5.22-.05.44-.17.65-.29.07-.04.14-.08.2-.11.1-.05.18-.11.28-.18.04-.03.09-.06.13-.09l.05-.04.03.06c.23.52.33,1.45-.1,1.84Z"/>
      <path class="cls-1" d="M8.53,4.55c.08.43.17.86.25,1.3.03.15.06.31.09.46.1.46.2.93.18,1.39-.01.51,0,1.05.25,1.49.27.49.39,1.03.51,1.56.11.51.23,1.04.49,1.52.13.23.25.38.44.4.48.04.99.06,1.66.06.27,0,.54-.02.8-.03.3-.01.62-.03.93-.03.13,0,.2-.01.23-.05.03-.03.04-.1.03-.2-.04-.34.06-.57.34-.74l.05-.03.03.05c.07.12.14.23.21.34.16.25.31.49.41.76.17.42.46.71.91.9.09.04.25.04.29,0,.14-.12.28-.25.42-.37.38-.32.77-.66,1.03-1.06.66-1.07.91-2.2.74-3.35-.09-.61-.19-1.17-.3-1.7-.08-.39-.18-.78-.32-1.22-.02-.07-.08-.13-.15-.19-.02-.02-.03-.03-.05-.05-.01.02-.03.03-.04.05-.06.07-.12.13-.14.2-.05.13-.08.29-.07.44.01.37-.16.61-.55.77l-.07.03v-.08s0-.04,0-.06c0-.04,0-.08,0-.11.38-.88.77-1.77,1.15-2.65.01-.03.04-.05.06-.07,0,0,.02-.01.02-.02.24-.23.36-.5.38-.85,0-.12.05-.23.1-.34.03-.08.06-.16.08-.23l.02-.09c.07-.31.14-.63.16-.94.03-.46-.17-.76-.61-.91-.09-.03-.18-.07-.26-.12-.08-.04-.15-.08-.23-.11-.19-.06-.37-.14-.56-.21-.44-.17-.9-.35-1.36-.4-.83-.09-1.7-.05-2.53,0h-.29c-.76.05-1.54.17-2.09.84-.09.11-.22.17-.35.24-.08.04-.15.08-.22.12-.21.14-.45.24-.68.34-.53.22-1.03.43-1.22,1.11l-.03.12-.06-.11c-.32-.55-.31-1.06.04-1.6-.1-.03-.2-.02-.27.02-.06.03-.11.09-.13.17-.09.32-.17.65-.12.95.13.77.28,1.55.43,2.31ZM15.94,9.38c.15-.25.28-.53.41-.79.06-.12.11-.24.17-.36.2-.4.48-.68.85-.86.12-.06.23-.14.35-.23.06-.05.13-.1.2-.15l.07-.05.02.08c.28,1.34.2,2.68-.22,4.12-.18.62-.39,1.32-.97,1.83-.15.13-.26.19-.36.19,0,0-.02,0-.03,0-.11-.01-.21-.09-.33-.26-.93-1.25-.98-2.18-.16-3.52Z"/>
      <path class="cls-1" d="M44.01,42.91l.36-.89-.12.06c-.23.1-.35.21-.39.35-.03.11,0,.24.1.4l.06.09Z"/>
      <path class="cls-1" d="M24.15,43.39l-.12-.03.59,1.04-.02-.25c-.06-.64-.07-.68-.45-.76Z"/>
      <path class="cls-1" d="M55.2,32.06l.03-.03c.56-.48.94-1.01,1.15-1.63.05-.13.08-.28.11-.41.01-.06.03-.12.04-.18v-.05s-.08-.02-.08-.02l-.11.18c-.05.07-.09.14-.14.22l-1.13,1.79-.03.05.05.03s.05.03.07.04l.03.02Z"/>
    </g>
  </g>
</svg>