<?xml version="1.0" encoding="UTF-8"?>
<svg id="Layer_2" data-name="Layer 2" xmlns="http://www.w3.org/2000/svg" viewBox="0 0 81.93 122.09">
  <defs>
    <style>
      .cls-1 {
        fill: #000;
        stroke-width: 0px;
      }
    </style>
  </defs>
  <g id="illustrations">
    <g>
      <path class="cls-1" d="M39.17,122.09c-.07-.1-.12-.24-.22-.31-.6-.46-.97-1.09-1.38-1.71-.11-.16-.2-.33-.32-.48-.04-.05-.13-.1-.19-.09-.31.05-.63.13-.94.19-.21.04-.42.09-.63.09-.31,0-.61-.02-.92-.05-.08,0-.16-.05-.23-.1-.17-.13-.32-.24-.57-.13-.18.07-.41,0-.62,0-.47.02-.94.02-1.41.07-.23.02-.44.14-.66.2-.05.02-.12,0-.18-.01-.28-.03-.53,0-.76.21-.12.11-.31.13-.47.19-.26.11-.53.21-.79.33-.19.09-.35.24-.54.32-.46.19-.93.35-1.39.53-.22.08-.44.17-.66.25-.08.03-.16.04-.25.05-.4.07-.8.14-1.2.2-.04,0-.09.01-.13,0-.2-.08-.39-.16-.52.12-.01.03-.16.02-.23,0-.12-.04-.23-.14-.35-.16-.44-.07-.89-.1-1.33-.18-.39-.07-.72-.28-1-.57-.11-.11-.23-.21-.33-.33-.04-.05-.05-.13-.09-.23-.2,0-.32-.14-.39-.36-.01-.03-.03-.08-.06-.1-.55-.4-.65-1-.65-1.61,0-.41-.09-.85.12-1.25.05-.09-.06-.24-.04-.36.02-.14.09-.27.2-.39.01.19.03.38.04.63.05.08.15.24.28.43.42-.96,1.07-1.84,1.27-2.92.09-.02.17-.04.25-.06,0-.02,0-.04,0-.06-.06,0-.13,0-.26-.02.15-.17.27-.29.39-.43-.09-.25.39-1.59.64-1.73.06.35-.08.64-.24.94-.15.28-.13.64-.25.94-.13.31-.13.63-.21.94-.02.06-.05.12-.04.18.07.37-.08.66-.28.95-.05.07,0,.2-.04.29-.1.24-.22.47-.32.7-.08.19-.15.39-.23.58,0,.02,0,.07,0,.08-.3.21-.08.44-.03.67.04.18.14.25.31.25.17,0,.22-.09.25-.24.03-.16.11-.32.2-.54,0,.46-.03.86,0,1.25.03.39.36.58.67.71.32.13.67.18,1,.28.16.05.32.14.47.21.4.16.77.02,1.16.03.29,0,.58-.03.86-.09.69-.14,1.37-.27,2-.64.37-.22.8-.33,1.2-.49.29-.12.57-.31.87-.39.66-.16,1.33-.27,2-.39.23-.04.47-.03.7-.07.31-.05.62-.13.93-.18.3-.06.6-.15.91-.05.07.02.17-.02.3-.04.15.23.31.48.47.73l-.06.05c-.07-.05-.14-.1-.24-.16,0,.17,0,.3.2.3.51.01,1.01.03,1.58.04,0-.26,0-.55,0-.84,0-.26-.12-.42-.34-.42-.06-.36-.12-.7-.17-1.04-.09-.57-.21-1.14-.26-1.71-.03-.32.05-.65.05-.98,0-.2-.05-.39-.1-.59-.11-.48-.19-.97-.35-1.43-.15-.41-.09-.83-.13-1.24-.03-.32-.1-.64-.15-.95-.02-.14-.04-.27-.06-.41-.03-.29-.07-.58-.09-.87-.02-.34-.03-.68-.05-1.02-.02-.27-.07-.54-.07-.81,0-.11.1-.21.14-.32.03-.08.08-.22.05-.25-.24-.22-.18-.52-.2-.79-.08-.81-.12-1.62-.18-2.43-.06-.77-.12-1.54-.19-2.31-.04-.49-.08-.98-.14-1.47-.03-.26,0-.35.25-.37-.02.21-.05.41-.05.61,0,.08.07.15.09.24.09.6.18,1.19.25,1.79.01.11-.02.23.02.35.07-.14.14-.28.22-.44-.04-.03-.1-.07-.11-.08,0-.22.01-.4,0-.57-.03-.46-.08-.92-.12-1.38-.02-.28-.06-.56-.08-.84-.04-.61-.08-1.22-.11-1.82-.01-.35,0-.7,0-1.05,0-.51-.02-1.02,0-1.53,0-.22.06-.45.07-.67.01-.29,0-.58.04-.88.15.25.14.52.09.8.07.07.14.15.22.24.16-.14.12-.31.05-.47-.12-.28-.17-.53-.04-.83.12-.26.02-.41-.22-.46.19-.11.33-.24.13-.45-.02-.02-.01-.07,0-.1.05-.15.1-.29.15-.43-.02,0-.04-.02-.07-.02-.04.03-.08.06-.14.1-.03-.14-.07-.25.13-.26.13-.01.17-.09.08-.2-.02-.03-.06-.06-.05-.08.14-.48-.03-.96,0-1.44,0-.16.09-.32.13-.49-.05-.03-.14-.08-.22-.13.01-.02.02-.05.03-.07h.27c-.04-.1-.06-.18-.09-.26.03-.02.06-.03.08-.05.07.12.19.25.19.38.03.75.03,1.51.03,2.26,0,.23-.02.47-.04.7-.01.19-.03.38.21.45-.31.45-.18,1.52.15,1.69-.05.15-.12.29-.13.43-.04.61-.07,1.21-.1,1.82,0,.14.03.28.05.41q-.39.13-.41.34c.07.01.14.03.21.04-.04.04-.11.08-.11.12,0,.12-.02.26.02.37.13.29.22.63.58.81-.11.05-.18.09-.21.11.04.3.08.57.13.87h-.33c.15.14.27.25.4.37-.11.17-.15.33-.01.52.06.08,0,.24,0,.36,0,.06-.04.12-.03.18.02.38.06.77.08,1.15,0,.06,0,.18-.03.19-.27.08-.14.2-.05.33.04.05.09.11.08.16-.07.32.16.62.1.89-.07.29.05.52.06.78,0,.29.01.57.03.86.01.22-.02.39-.34.3.13.12.22.2.32.29-.09.05-.17.09-.28.15,0,0-.04-.04-.08-.07-.02.01-.03.02-.05.03.04.09.08.18.13.29-.07.05-.15.09-.27.17.13.09.24.16.35.23,0,.02-.02.04-.03.06-.06-.02-.13-.03-.21-.05,0,.04-.01.1,0,.12.12.11.25.21.39.3.1.07.15.12,0,.2-.11.06-.22.13-.36.22-.06.31-.06.31.42.34.04.51.08,1.02.12,1.52.03.43.15.88.09,1.29-.07.45-.06.86.11,1.28.03.09-.06.22-.05.33.07.59.15,1.17.24,1.75.09.59.21,1.18.3,1.78.02.1,0,.2,0,.3.01.07.06.14.11.2.05.34.05.69.3.99.06.07,0,.21.04.3.13.36.26.72.4,1.08.03.07.06.17.11.2.29.13.39.29.29.63-.14.52.08.99.38,1.42.59.87,1.41,1.32,2.43,1.53.57.12,1.11,0,1.67,0,.57,0,1.15-.03,1.72-.07.25-.02.5-.11.75-.18,0,0,.02-.01.02,0,.51.1.93-.21,1.41-.29.53-.08,1.02-.36,1.55-.47.52-.11,1.04-.36,1.61-.19.05.01.1,0,.16,0,.21,0,.45-.07.55.22,0,.02.13.02.19,0,.1-.04.18-.15.28-.16.27-.04.54-.04.81-.06.04,0,.07,0,.1-.02.25-.13.49-.19.75,0,.04.03.14.03.15,0,.17-.27.37-.04.55-.03.09,0,.18-.02.26-.03.15-.02.3-.06.45-.06.25,0,.51.12.81-.09-.18-.04-.31-.07-.44-.09,0-.02,0-.03,0-.05.14,0,.29-.04.42-.01.44.07.75-.13,1-.45.13-.16.24-.28.49-.27.31.01.69-.4.74-.72.02-.13.03-.26.04-.36-.13-.11-.24-.22-.36-.32-.41-.34-.84-.66-1.22-1.03-.87-.84-1.84-1.58-2.53-2.59-.31-.45-.7-.86-1.01-1.31-.2-.29-.32-.64-.51-.94-.41-.66-.69-1.39-1.01-2.09-.2-.44-.41-.89-.55-1.36-.19-.59-.3-1.2-.48-1.8-.05-.16-.18-.3-.27-.45.17-.09.13-.27-.19-.56l.07-.03c-.03-.1-.06-.19-.1-.29-.01-.03-.04-.05-.05-.08-.07-.26-.14-.52-.21-.78-.09-.34-.2-.67-.28-1.01-.05-.22,0-.49-.11-.68-.18-.33-.3-.65-.33-1.03-.01-.12-.13-.23-.21-.35-.07-.1-.2-.21.04-.3-.17-.18-.2-.34,0-.54.13-.14-.14-.42-.38-.41,0-.02,0-.05,0-.05.35-.18.08-.4-.01-.52-.21-.26-.04-.29.15-.33.04,0,.08-.03.11-.04-.16-.19-.32-.36-.48-.56-.04.1-.07.18-.11.3-.05-.05-.1-.09-.1-.12.03-.18.06-.36-.06-.52-.01-.01.08-.12.14-.16.05-.04.13-.04.21-.06-.09-.28-.17-.54-.27-.85.15.03.26.06.39.09-.02-.19-.04-.34-.26-.45-.18-.1-.32-.32-.43-.51-.03-.05.13-.21.21-.33-.43-.23-.04-.6-.15-.93.16.07.28.13.41.19.02-.03.04-.05.06-.08-.1-.11-.19-.21-.28-.31-.09.03-.17.06-.28.1.04-.12.07-.2.1-.28-.07,0-.14.02-.19,0-.08-.03-.15-.09-.26-.17.15-.05.23-.08.37-.13-.29-.28-.54-.55-.23-.98-.1-.11-.22-.25-.35-.38-.16-.16-.09-.28-.02-.39-.08-.57-.16-1.14-.24-1.71,0-.06-.03-.13-.04-.19-.03-.09-.06-.17-.09-.28h.34c0-.33-.45-.02-.44-.34.07-.08.21-.17.22-.27,0-.11-.13-.22-.2-.33-.12-.19.1-.2.17-.29.06.15.12.29.19.47.04-.14.07-.23.11-.37-.09-.03-.2-.06-.3-.09.04-.22.08-.44.12-.66.05-.04.11-.1.17-.15-.08-.06-.15-.11-.17-.13,0-.18-.01-.34,0-.5,0-.09.05-.19.08-.28-.25-.07-.11-.21-.04-.32-.29-.48-.33-.97-.32-1.49-.17,0-.22-.06-.11-.24.03-.05.03-.11.03-.17,0-.19-.02-.37-.03-.62-.28-.15-.05-.5-.14-.78-.04-.13.39-.24.58-.15-.12-.31-.59-.56-.93-.44.24-.21.22-.38.14-.64-.14-.46-.14-.97-.21-1.45-.02-.16-.12-.3.07-.42.01,0-.03-.13-.06-.19-.04-.09-.08-.18-.12-.27.02-.01.04-.02.06-.03.05.1.11.19.21.36.05-.29.07-.55.42-.53.02.15.04.31.06.5-.14.07-.29.15-.45.23,0,.02.02.05.03.07.21-.07.41-.13.62-.2-.07.06-.14.13-.16.15.03.31.05.57.07.83-.02,0-.05.02-.07.03.07.04.14.08.27.15-.02-.21-.04-.35-.05-.49-.02-.22-.04-.45-.06-.67-.08-.43-.17-.86-.25-1.29-.04.01-.07.02-.11.03.02.04.05.09.05.13,0,.13.05.31-.02.37-.09.07-.26.07-.39.04-.07-.02-.14-.14-.17-.23-.06-.14-.09-.29-.12-.44-.06-.32-.1-.65-.17-.97-.04-.2-.1-.41-.19-.59-.14-.29-.18-.55-.02-.87.07-.14.23-.4-.09-.59-.13-.08-.09-.42-.14-.65-.06-.31-.13-.62-.19-.93-.02-.13-.01-.26-.03-.39-.06-.51-.11-1.02-.18-1.53-.02-.16-.12-.31-.19-.46-.02-.05-.05-.12-.03-.16.15-.34.08-.64-.04-.98-.1-.28-.23-.59-.12-.93.05-.17-.05-.38-.07-.58-.01-.1,0-.2,0-.36-.04-.18-.1-.42-.15-.67-.04-.21-.05-.43-.08-.66h.22c-.1-.32-.22-.62-.28-.94-.02-.13.1-.28.17-.43-.23-.04-.27-.24-.26-.52.01-.23-.07-.47-.09-.7-.04-.49-.07-.97-.12-1.46-.02-.19-.07-.37-.1-.56-.09-.48-.28-.97-.22-1.42.05-.33-.26-.58-.07-.89.02-.02-.03-.09-.06-.13-.03-.06-.07-.11-.11-.16.06-.02.13-.04.22-.08-.07-.15-.15-.3-.22-.45.01-.02.03-.03.04-.05.1.04.2.08.33.13-.11-.15-.24-.26-.27-.39-.03-.16.03-.34.05-.51h-.4c.04-.22.09-.41.12-.6,0-.06-.03-.12-.04-.19,0-.06-.02-.13,0-.18.07-.27.07-.52-.07-.78-.08-.13-.09-.25.15-.23.11.01.24-.08.41-.14-.12-.08-.23-.14-.32-.22-.06-.05-.11-.11-.16-.17h0c.09.02.17.03.26.06.16.05.33.1.31.33,0,.06.01.13.05.17.12.15.11.26-.1.35.21.12.28.24.19.46-.04.11.06.27.11.44-.11-.01-.18-.02-.25-.03,0,.04-.01.08,0,.09.26.18.37.4.23.71-.02.05,0,.17.05.21.13.13.1.2-.05.26-.07.03-.12.07-.24.14.16.06.26.09.36.12,0,.03,0,.05,0,.08-.1.02-.19.03-.29.05,0,.01-.01.03-.02.04.19.07.38.14.66.25-.13.09-.21.13-.31.2.1.02.17.04.32.07-.17.11-.29.19-.42.28.04.03.08.09.14.12.18.09.29.16.07.36-.05.05.06.38.18.49.12.11.16.14.07.28-.04.07-.06.18-.04.27.05.19.22.35.09.56.24.3.09.69.22,1.01.02.06.03.15,0,.2-.15.25-.14.51.04.75.09.12.15.26.19.43-.09-.04-.19-.08-.28-.12-.02.02-.04.04-.06.06.14.16.32.29.39.47.08.18.05.41.07.68-.11-.09-.18-.16-.27-.24-.02.29.54.47.14.83.07.13.23.25.06.43-.03.03,0,.13.01.2.05.38.1.76.16,1.15,0,.03,0,.06.02.08.25.17.09.41.12.63.06.62.14,1.24.24,1.86.11.65.28,1.29.3,1.96,0,.25.15.5.14.75-.01.36.02.69.12,1.03.01.04-.06.1-.1.16,0,0,0,.03.01.03.45.31.44.76.38,1.23,0,0,0,.02,0,.03.05.37.08.74.16,1.1.11.5.28.98.37,1.49.11.58.16,1.18.22,1.77.07.58.12,1.17.18,1.75.02,0,.05,0,.07,0,.02-.1.03-.21.05-.31.19.42.08.94.48,1.26-.36-.03-.27.08-.54-.66.05.26.11.51.15.7.18.12.33.23.46.32-.15.25-.27.44-.38.64-.02.04.03.12.06.17.06.07.13.13.18.17-.07.1-.13.18-.18.25.09.04.18.08.26.12-.02.05-.08.12-.07.19.04.27.1.54.16.8.09.39.17.79.27,1.18.27,1.13.53,2.27.84,3.39.28,1.02.62,2.02.94,3.03.27.83.54,1.65.82,2.48.35,1.03.71,2.05,1.08,3.08.19.53.39,1.07.6,1.59.09.22.23.43.34.64-.02.02-.05.04-.07.05-.1-.12-.22-.23-.28-.37-.49-1.07-1.01-2.13-1.43-3.23-.46-1.19-.82-2.42-1.23-3.64-.22-.64-.47-1.27-.66-1.92-.21-.72-.38-1.46-.57-2.19-.24-.95-.46-1.9-.7-2.84-.04-.14-.12-.27-.22-.39.05.29.11.58.15.88.08.56.15,1.13.24,1.69.12.74.25,1.47.37,2.21.09.56.12,1.14.23,1.7.19.93.43,1.85.64,2.78.1.42.18.84.28,1.25.05.2.16.39.23.58.09.24.17.48.25.73.24.73.47,1.45.7,2.18.1.3.18.61.27.91.08.27.16.53.26.79.18.47.39.93.56,1.4.18.49.35.99.49,1.49.3,1.06.67,2.09,1.2,3.06.2.36.34.78.6,1.09.36.42.52.98.98,1.34.22.17.32.48.5.7.09.11.23.18.35.28.05.04.12.09.12.13-.08.4.29.48.48.67.18.18.44.27.65.42.06.04.06.16.1.28.04.03.12.11.21.17.22.15.45.3.67.45.03.02.07.05.1.08.3.25.6.52.92.76.34.25.71.47,1.06.72.17.12.33.19.54.22.5.07,1.02.11,1.48.39.15.09.35.12.53.13.74.02,1.49.05,2.22-.13.49-.13.97-.32,1.45-.48.55-.18,1.12-.33,1.65-.56.65-.28,1.34-.32,2.01-.43.34-.06.7-.01,1.05-.03.3-.01.6-.06.89-.07.39-.01.78,0,1.17,0,.15,0,.31.03.44-.02.3-.12.59-.28.88-.41.2-.09.41-.15.62-.22.02,0,.05-.02.07-.03.17-.12.45-.21.36-.47-.1-.3-.34-.54-.69-.48-.77.12-1.41-.2-2.05-.6-.46-.29-.97-.49-1.45-.74-.43-.22-.87-.41-1.26-.69-.54-.38-1.06-.8-1.56-1.23-.67-.57-1.33-1.14-1.97-1.75-.23-.22-.38-.53-.58-.79-.08-.11-.19-.19-.33-.31.1-.02.16-.03.23-.04-.03-.07-.05-.14-.09-.19-.3-.3-.58-.62-.91-.89-.21-.17-.28-.4-.42-.6-.05-.07-.13-.11-.21-.15-.08-.04-.17-.07-.26-.16.07-.02.15-.04.21-.05-.29-.28-.61-.53-.81-.92-.39-.76-.87-1.48-1.3-2.23-.3-.51-.57-1.04-.86-1.56-.29-.52-.58-1.04-.84-1.58-.2-.41-.36-.85-.55-1.27-.12-.28-.32-.55-.35-.85-.08-.69-.69-1.09-.84-1.73-.02-.09-.02-.18-.05-.27-.04-.14-.07-.29-.12-.43-.09-.25-.16-.52-.29-.75-.17-.3-.25-.62-.36-.94-.1-.28-.25-.55-.35-.83-.1-.3-.17-.6-.26-.91-.02-.08-.06-.16-.11-.23-.08-.14-.15-.27-.03-.45.11-.17-.06-.57-.18-.74-.26-.39-.6-.75-.55-1.28,0-.03-.01-.07-.03-.09-.31-.59-.41-1.22-.46-1.87,0-.05-.01-.12-.04-.16-.28-.41-.39-.88-.48-1.37-.03-.16-.13-.32-.17-.48-.04-.12-.04-.25-.06-.37-.02-.08-.06-.16-.09-.24-.09-.22-.2-.44-.28-.67-.06-.16-.06-.34-.12-.5-.07-.21-.23-.41-.22-.61.02-.37-.26-.61-.31-.95-.05-.34-.15-.68-.24-1.02-.06-.23-.19-.44-.22-.67-.04-.29-.19-.54-.21-.85-.02-.29-.22-.56-.33-.85-.04-.11-.07-.23-.07-.35,0-.37-.1-.68-.48-.93.1-.05.17-.09.29-.14-.46-.28-.35-.73-.47-1.09-.08-.25-.15-.5-.27-.73-.11-.21-.14-.41-.14-.64,0-.11-.08-.23-.13-.34-.08-.18-.19-.32-.11-.57.06-.18-.13-.44-.21-.66-.02-.06-.07-.12-.09-.18-.08-.3-.15-.61-.22-.91-.08-.35-.16-.7-.23-1.05-.01-.06.05-.13.08-.21-.04-.04-.11-.1-.17-.16-.04-.04-.1-.1-.09-.12.15-.28-.13-.44-.18-.66-.04-.18-.1-.35-.15-.55.08,0,.13-.01.19-.02,0-.03,0-.06,0-.06-.27-.12-.36-.35-.34-.62.02-.23-.06-.41-.28-.54.06-.08.15-.13.15-.2.02-.15.02-.29-.12-.44-.18-.18-.26-.46-.38-.7-.01-.02-.01-.07,0-.08.27-.17.01-.26-.05-.4-.1-.24-.19-.49-.27-.74-.15-.48-.3-.96-.45-1.45-.11-.37-.22-.74-.32-1.11-.09-.35-.18-.7-.25-1.05-.04-.21-.01-.44-.05-.65-.05-.31-.14-.61-.2-.92-.02-.12,0-.24,0-.4-.08-.22-.18-.48-.26-.75-.25-.77-.5-1.54-.74-2.31-.08-.26-.12-.52-.31-.74-.02-.03.04-.13.07-.19.05.03.09.07.14.1-.13.17.07.25.11.37.12.41.26.81.42,1.2.07.16.22.29.33.43-.02.01-.04.02-.07.03.03.08.07.16.1.24.01.03.05.05.05.08.05.22.08.45.16.66.03.09.13.17.16.25.05.24.11.47.17.75.22.09.39.55.27.66.03.17.05.31.09.43.02.08.05.16.1.21.19.16.41.26.3.61-.05.15.12.37.2.55.18.43.38.86.53,1.3.16.47.25.95.39,1.43.12.43.26.85.39,1.27.04.14.11.29.09.43-.02.25.12.38.25.54.03.04-.03.16,0,.23.11.34.21.68.33,1.07-.11-.06-.16-.08-.23-.12,0,.05-.01.1,0,.11.41.43.57.96.64,1.53.01.09.11.16.19.27-.08.02-.15.04-.21.05.05.14.1.29.15.44q.26-.02.23.49c-.04-.12-.07-.18-.09-.25-.03,0-.05.01-.08.02.02.08.03.22.06.23.44.04.29.4.25.58-.04.2.02.3.1.44.06.11.11.23.18.36-.2-.05-.38-.09-.56-.13.07.16.11.31.33.27.07-.01.24.11.25.19.04.2.04.41.01.61,0,.05-.16.08-.32.16.11.05.2.09.28.14.1.07.22.13.27.23.04.07-.03.19-.06.36.02.1.05.29.09.47.01.06.08.11.13.15.07.05.14.09.22.14-.22.22-.21.26.03.41.07.04.15.07.2.13.14.18.05.3-.16.4.22.1.37.19.27.47-.04.11.09.29.14.44.11.34.21.69.32,1.04.03.09.09.17.14.25.34.6.41,1.28.59,1.92.1.33.27.64.38.98.09.3.2.59.2.92,0,.24.08.54.26.77.09.11.16.25.2.38.14.46.34.91.38,1.38.06.74.64,1.29.66,2.03,0,.06.06.12.09.17.12-.06.23-.11.34-.16.02.02.04.05.06.07-.05.07-.09.16-.16.2-.16.11-.14.22-.06.36.17.26.35.51.51.76.05.07.08.15.15.3-.18-.1-.29-.15-.4-.21-.05-.09-.1-.19-.15-.28-.04.04-.09.08-.13.11.1.05.19.11.29.16.14.22.37.44.38.67,0,.24.13.34.25.47.05.05.12.07.23.13-.11.06-.17.1-.23.13-.05.17.29.3.05.43.11.13.19.23.26.31-.09.07-.17.11-.17.14.02.1.07.2.09.3.02.07.02.14.03.24.01,0,.08,0,.19.02-.09.09-.15.14-.24.22.15.09.28.18.38.24-.18.43-.14.76.33.98-.03.01-.05.03-.08.04-.07-.01-.14-.02-.23-.04.04.09.07.16.1.24.27-.17.4-.04.48.2.02.07.08.14.1.21.01.05,0,.12,0,.17-.05-.03-.12-.05-.15-.09-.1-.13-.18-.28-.31-.39-.09.39-.05.74.28,1.07-.08.06-.14.11-.23.18.18.06.36.12.57.19-.02-.16-.04-.27-.07-.42.15.08.29.11.17.29-.02.04,0,.12.02.17.18.32.38.63.54.96.09.19.13.41.21.7-.14-.09-.22-.14-.3-.18-.05-.02-.12-.02-.19-.02,0,.08-.03.19.02.23.08.09.2.14.32.21.14-.11.4-.06.52.18.12.23.28.45.35.7.19.69.68,1.23.94,1.89.14.35.35.66.54.99.03.05.09.07.13.11.04.04.12.09.11.13-.08.4.21.6.4.88.27.4.46.84.7,1.26.3.5.62.98.93,1.47.13.21.25.42.37.63.03.05.04.12.08.16.86.85,1.49,1.88,2.28,2.78.74.84,1.48,1.69,2.38,2.38.21.16.42.34.62.52.04.04.05.1.08.16-.16-.02-.3-.02-.41-.06-.14-.06-.28-.14-.4-.23-.25-.18-.48-.39-.73-.57-.55-.38-1.13-.72-1.57-1.25-.2-.25-.47-.42-.78-.54-.06-.02-.09-.11-.09-.2l.14.08s.06-.06.09-.09c-.06-.02-.11-.04-.17-.06-.14-.05-.32-.06-.4-.15-.18-.22-.38-.41-.5-.7-.11-.29-.21-.74-.7-.73-.07,0-.14-.1-.22-.17.05-.04.08-.07.11-.1-.07-.06-.14-.13-.23-.21.23-.09.18-.22.07-.37-.27-.35-.55-.7-.81-1.06-.09-.13-.14-.28-.21-.42-.13-.27-.25-.55-.4-.82-.05-.09-.04-.29-.25-.22,0,0-.04-.04-.05-.07-.2-.66-.55-1.24-.89-1.83-.41-.72-.82-1.44-1.2-2.18-.24-.46-.42-.94-.62-1.41-.03-.06-.06-.11-.09-.16-.03.01-.06.03-.1.04.33.87.64,1.76,1.01,2.62.33.76.73,1.5,1.1,2.24.2.39.43.76.62,1.16.42.9,1.05,1.66,1.59,2.48.45.68.98,1.31,1.51,1.93.49.57,1.06,1.07,1.56,1.64.68.78,1.51,1.36,2.37,1.9.39.24.79.46,1.18.69.35.2.69.41,1.03.61.06.04.16.06.22.04.38-.15.76-.2,1.12.11-.09-.36-.34-.4-.64-.37.22-.12.43-.12.58.03.17.16.3.28.57.31.43.06.83.26,1.25.4.16.06.32.14.39-.12.02-.07.13-.11.17-.23.15.02.29.03.5.05-.13.1-.23.17-.35.26h.45c.07-.14.14-.3.2-.45-.02-.02-.04-.05-.06-.07.28-.05.57-.08.83-.17.13-.04.23-.19.35-.28.04-.04.12-.1.14-.09.21.1.3-.07.41-.18.29-.29.59-.57.89-.85.02-.02.06-.06.09-.06.37.01.59-.25.85-.45.03-.03.07-.06.11-.07.45-.12.8-.36.96-.82.02-.06.16-.06.21-.12.24-.27.51-.52.46-.96.06.03.11.04.13.07.08.19.14.38.24.56.21.4.37.8.12,1.25-.04.06-.02.15-.03.23-.04.64-.35,1.14-.86,1.47-.59.38-1.23.67-1.85,1-.48.26-1.02.33-1.52.52-.26.1-.52.21-.74.37-.35.24-.73.26-1.16.26.15.17.28.32.42.46.5.53.59,1.33.13,1.89-.21.26-.47.54-.88.56-.16,0-.33.1-.47.2-.35.23-.72.33-1.13.2-.12-.04-.26-.06-.38-.04-.42.05-.83.1-1.23-.06-.03-.01-.08-.02-.1,0-.33.22-.69.14-1.04.1-.17-.02-.34,0-.51,0-.07,0-.15.03-.2,0-.41-.21-.8-.04-1.19.06-.34.09-.7.13-1.05.22-.15.04-.27.2-.43.26-.29.11-.59.18-.88.29-.36.13-.71.28-1.03.4-.11.02-.2.01-.26.06-.27.18-.52.42-.82.56-.25.11-.54.16-.82.16-.5,0-1.01-.03-1.49-.22-.53-.21-1.06-.43-1.58-.64-.2-.08-.41-.14-.61-.23-.3-.13-.6-.27-.89-.4-.04-.02-.08-.03-.13-.06.07.16.15.3.2.44.07.2.14.39.19.6.06.23,0,.45-.14.64-.27.36-.53.74-.83,1.09-.59.69-1.34,1.12-2.22,1.33-.41.1-.81.21-1.23.29-.16.03-.33,0-.49-.04-.21-.05-.41-.15-.62-.19-.16-.03-.34.03-.51.03-.32,0-.65-.03-.97-.06-.16-.02-.31-.08-.46-.11-.22-.05-.44-.08-.57-.32-.05-.09-.18-.13-.32-.22v.28c-.18,0-.31.04-.34.25,0,.06-.15.13-.24.14-.34.04-.68.04-1.02.07-.51.05-1.01.11-1.52.2-.31.05-.6.17-.9.26h-7.79ZM55.48,115.27c0-.09.04-.21,0-.26-.16-.18-.34-.34-.56-.55-.07.2-.11.34-.14.41.28.15.49.27.71.39.02.04.02.11.05.12.26.08.16.23.11.39-.19-.13-.37-.26-.6-.42.26.53.69.65,1.12.77-.06-.08-.14-.13-.2-.2-.04-.05-.08-.17-.05-.21.11-.14.04-.23-.05-.34-.11-.13-.22-.2-.38-.1ZM52.68,112.93c-.12-.25-.24-.49-.35-.74-.03-.06-.02-.14-.03-.21.06,0,.14-.03.17,0,.07.06.15.15.15.22,0,.2.12.32.32.32.1,0,.27.05.28.1.06.3.21.46.56.44-.02.03-.03.06-.05.08-.09,0-.18-.01-.33-.03.09.19.16.34.24.49.09-.13.12-.24.2-.27.06-.03.16.05.25.09-.06.08-.09.12-.11.14.18.11.33.21.49.3-.44-.66-.91-1.29-1.38-1.9-.04-.05-.17-.05-.26-.05-.24.02-.4-.3-.67-.17-.02,0-.08-.08-.13-.12,0,0-.01-.01-.01-.02-.07-.27-.15-.54-.22-.81.03-.01.06-.02.09-.04.05.07.1.21.15.21.23,0,.22.17.29.3.06.1.14.19.22.28.02-.02.04-.03.06-.05-.26-.33-.12-.95-.67-.99-.1-.24-.15-.45-.26-.61-.06-.1-.22-.13-.36-.2-.07-.07-.17-.17-.29-.29.03-.12.08-.27.11-.41-.06-.12-.1-.26-.19-.34-.09-.08-.23-.1-.42-.17.07.25.11.41.16.58h.2c-.04.11-.13.21-.12.3.03.15.12.29.19.43.13.26.27.52.38.79.18.43.31.89.52,1.31.22.43.51.82.77,1.23.02-.01.05-.03.07-.04,0-.06-.02-.12-.03-.18.06-.02.12-.05.25-.09-.06.2-.1.34-.15.5.09.13.2.27.32.44.07-.14.13-.23.16-.33.02-.07.01-.22-.02-.23-.2-.07-.19-.25-.24-.4-.02-.06-.08-.11-.14-.19-.08.13-.13.22-.18.32ZM52.01,109c-.03-.17-.02-.29-.07-.4-.11-.27-.24-.52-.35-.79-.14-.35-.25-.7-.38-1.05-.16-.41-.34-.81-.51-1.22-.12-.3-.23-.6-.35-.9-.08-.18-.21-.35-.25-.54-.07-.33-.07-.67-.14-.99-.14-.64-.3-1.28-.48-1.91-.15-.54-.34-.68-.86-.68.15.08.28.11.34.19.12.16.2.35.28.53.11.26.2.52.29.79,0,.03-.02.06-.02.1-.01.08-.05.17-.03.24.06.2.14.4.21.57-.15.08-.27.14-.37.19.08.21.16.4.21.6.11.4.17.81.32,1.19.22.58.52,1.12.75,1.7.12.3.37.51.43.86.05.3.25.57.4.85.13.25.23.53.58.67ZM49.14,100.52c-.31-1.2-.61-2.37-.91-3.54.05.79.16,1.56.28,2.34,0,.06.02.11.01.17-.05.31.28.89.62,1.04ZM35.09,102.61c.08.18.19.31.16.39-.13.34-.09.65.06.96,0,.02,0,.05-.01.08-.07-.01-.13-.02-.24-.04.13.17.23.3.33.43.05-.24.04-.46.03-.69,0-.1-.04-.21,0-.3.13-.36.05-.66-.32-.84ZM72.56,112.98c.46.36.97.61,1.56.68-.43-.42-1.02-.5-1.56-.68ZM47.4,94.38l.03-.1c-.12-.03-.25-.06-.37-.09-.02.02-.03.05-.05.07.06.14.11.28.18.42.03.07.1.19.13.18.08-.01.15-.09.24-.16-.15-.1-.27-.18-.38-.26,0-.02.02-.04.02-.05.06,0,.13,0,.19-.01ZM52.32,110.01s.06-.03.09-.04c-.11-.28-.22-.56-.33-.85-.04.02-.08.03-.12.05.12.28.24.56.37.83ZM54.3,114.65s-.03.04-.05.06c.17.2.33.41.5.61-.01-.33-.19-.53-.45-.67ZM53.31,113.92s-.04.04-.06.06c.16.17.31.33.51.54,0-.38-.22-.5-.44-.6ZM36.03,99.93c-.28.07-.3.18-.16.66.06-.25.1-.43.16-.66ZM47.07,93.51c.09.1.18.2.29.34.09-.32.04-.39-.29-.34ZM48.92,101.33s-.05.01-.08.02c.03.17.07.34.1.52.09-.2.16-.39-.03-.54ZM49.16,102.43c-.05.39.04.53.23.48-.08-.16-.16-.32-.23-.48ZM53.93,114.29s.1.05.15.07c.06-.13.12-.26.18-.39-.03-.02-.07-.03-.1-.05-.08.12-.15.25-.23.37ZM46.44,85.95s-.05.09-.08.13c.08.07.17.13.25.2.04-.06.08-.12.13-.18-.1-.05-.2-.1-.3-.14ZM50.36,107.46s-.02,0-.03.01c.02.14.03.29.05.43,0,.05.06.08.09.12.02-.05.08-.11.07-.14-.05-.14-.12-.28-.18-.42ZM58.74,94.85l.08-.03c-.06-.14-.13-.29-.19-.43-.04.02-.08.04-.12.06.07.13.15.27.22.4ZM53.36,113.51s-.04.05-.06.07c.1.1.2.2.3.31.03-.04.06-.07.1-.11-.11-.09-.22-.18-.34-.27ZM51.91,73.25s.02-.04.03-.06c-.1-.08-.2-.15-.32-.25-.03.1-.05.17-.07.22.14.03.25.06.36.08Z"/>
      <path class="cls-1" d="M81.39,107.42c0-.06.03-.15,0-.17-.17-.12-.15-.29-.16-.46,0-.07-.07-.14-.11-.2-.07-.1-.15-.2-.2-.31-.14-.29-.26-.6-.39-.89-.11-.25-.23-.5-.35-.74-.11-.21-.37-.35-.25-.65.01-.03-.04-.09-.06-.14-.31-.68-.66-1.34-.92-2.04-.16-.43-.3-.87-.48-1.3-.34-.79-.63-1.61-.93-2.42-.16-.43-.27-.87-.43-1.29-.3-.79-.65-1.57-.93-2.38-.31-.89-.56-1.81-.86-2.71-.2-.6-.47-1.18-.68-1.78-.16-.46-.38-.89-.51-1.37-.17-.6-.45-1.17-.69-1.76-.24-.6-.49-1.2-.74-1.8-.24-.56-.54-1.09-.72-1.66-.3-.91-.69-1.77-1.13-2.61-.2-.39-.44-.76-.66-1.15-.09-.16-.26-.35-.23-.48.07-.32-.05-.46-.29-.59-.08-.04-.15-.12-.22-.19.05-.14.08-.29.03-.4-.1-.22-.26-.41-.37-.62-.17-.35-.32-.72-.49-1.07-.18-.37-.47-.71-.55-1.1-.11-.51-.42-.9-.63-1.34-.17-.35-.38-.67-.55-1.02-.3-.6-.57-1.21-.88-1.8-.44-.85-.89-1.7-1.34-2.54-.36-.67-.74-1.33-1.11-2-.02-.04-.04-.1-.06-.14-.13-.27-.24-.54-.39-.79-.11-.2-.27-.39-.4-.58-.45-.68-.9-1.36-1.34-2.04-.08-.12-.12-.26-.2-.37-.29-.39-.66-.74-.88-1.17-.25-.51-.65-.91-.89-1.43-.29-.6-.64-1.16-.97-1.74-.37-.64-.73-1.29-1.1-1.93-.17-.29-.41-.55-.53-.86-.35-.91-.91-1.69-1.39-2.53-.18-.32-.36-.64-.54-.96-.23-.41-.36-.88-.76-1.19-.11-.08-.17-.23-.24-.36-.09-.18-.15-.37-.25-.55-.11-.21-.28-.34-.54-.26-.02,0-.05-.03-.11-.06.11-.04.18-.06.28-.09-.11-.32-.16-.65-.47-.85-.05-.03-.07-.13-.1-.2-.03-.08-.06-.16-.09-.24-.02-.05-.04-.11-.06-.16-.03-.09-.03-.2-.08-.25-.11-.09-.25-.15-.38-.22.02-.03.05-.07.07-.09-.13-.07-.25-.13-.41-.22.13-.04.2-.06.26-.08,0-.03,0-.05,0-.08h-.4c.06-.13-.33-.17-.09-.35-.1-.05-.2-.09-.3-.14.03-.02.06-.04.09-.06-.01-.08,0-.18-.05-.25-.11-.21-.23-.41-.36-.61-.16-.23-.34-.45-.51-.68-.03-.04-.05-.1-.03-.14.06-.19.02-.21-.15-.31-.14-.09-.24-.26-.34-.39-.04-.05-.03-.16-.08-.19-.38-.25-.65-.59-.85-.98-.14-.27-.26-.55-.4-.83.05-.05.09-.1.17-.17-.33.03-.42-.17-.5-.39-.06-.15-.12-.3-.18-.46.03-.03.07-.08.12-.13-.11-.06-.23-.08-.29-.16-.2-.26-.37-.53-.55-.8-.22-.32-.47-.62-.65-.96-.17-.33-.26-.71-.37-1.07-.03-.11,0-.24-.02-.36-.03-.19-.43-.51-.63-.53-.11-.01-.25-.03-.31-.1-.24-.3-.44-.63-.67-.93-.3-.4-.04-.8-.05-1.2,0-.12-.03-.25-.01-.37.04-.31.09-.61.14-.91.1-.59.18-1.19.3-1.77.16-.76.37-1.52.55-2.28.11-.47.36-.89.41-1.39.02-.23.24-.44.24-.67,0-.37.23-.66.3-1,.08-.41.29-.79.42-1.19.15-.43.29-.86.41-1.29.17-.6.44-1.17.39-1.82,0-.03.02-.06.04-.09.05-.12.11-.23.14-.35.06-.35.14-.69.16-1.04.02-.52.02-1.05-.03-1.57-.03-.32-.26-.56-.59-.68-.12-.04-.26-.07-.35-.15-.21-.18-.38-.4-.49-.65-.47-.64-.61-1.36-.57-2.16.05-.94.09-1.87.18-2.81.08-.91.21-1.79.46-2.67.2-.7.4-1.41.34-2.14-.24.2-.49.39-.74.59-.06-.24-.12-.45-.17-.66-.16-.06-.39-.08-.47-.19-.18-.26-.44-.29-.7-.38-.16-.06-.33-.13-.46-.24-.38-.31-.73-.64-1.1-.95-.17-.14-.37-.24-.53-.38-.19-.18-.36-.39-.54-.59-.97-1.03-1.94-2.06-2.91-3.09-.11-.12-.24-.25-.3-.4-.16-.42-.29-.86-.43-1.29-.05-.14-.12-.21-.28-.21-.72,0-1.45,0-2.17.01-.11,0-.27.08-.32.17-.18.34-.35.69-.48,1.05-.07.2,0,.45-.3.52.2.21.2.41.02.6-.56.6-1.12,1.2-1.68,1.8-.43.47-.87.92-1.27,1.42-.21.27-.44.5-.74.66-.33.18-.72.3-.99.54-.63.56-1.4.74-2.16.98-.33.1-.66.21-.97.35-.24.11-.43.32-.67.44-.39.19-.46.3-.39.74.01.08-.02.2.02.25.14.14.32.24.45.38.11.11.22.25.27.39.2.62.38,1.24.57,1.86.16.52.33,1.03.48,1.56.15.55.25,1.11.44,1.64.17.48.32.94.35,1.46.05.83-.15,1.6-.47,2.35-.08.2-.22.34-.45.35-.24.01-.29.13-.25.35.1.53.19,1.05.28,1.58.01.08-.03.17-.04.26-.03,0-.06.02-.08.03.08.04.15.08.2.11-.06.09-.12.13-.12.17.03.19-.03.42.22.51-.15.17-.14.48,0,.75.2.38.4.77.59,1.16.15.31.28.62.42.93.27.64.56,1.28.8,1.94.27.73.51,1.46.73,2.2.19.64.36,1.28.5,1.94.17.83.2,1.67.2,2.51,0,.36.03.71,0,1.07-.03.45-.1.89-.16,1.34,0,.06-.02.13-.06.17-.19.2-.41.39-.58.6-.23.29-.58.5-.65.91-.03.18-.09.36-.18.52-.38.68-.78,1.35-1.18,2.03-.23.39-.49.77-.72,1.17-.09.15-.12.32-.21.47-.16.26-.37.49-.51.76-.15.29-.22.62-.37.91-.27.55-.57,1.09-.84,1.63-.26.51-.51,1.03-.77,1.54-.06.12-.13.23-.21.38,0,.02.05.09.03.14-.23.54-.49,1.07-.7,1.62-.26.68-.49,1.38-.71,2.07-.33,1.02-.69,2.01-1.17,2.97-.22.45-.33.95-.52,1.41-.12.31-.21.61-.12.94-.22.09-.56.76-.57,1.05,0,.21-.05.43-.12.63-.15.41-.34.81-.49,1.23-.16.45-.28.91-.42,1.36-.05.15-.07.32-.15.43-.27.35-.19.86-.53,1.17-.02.02,0,.07-.01.1-.06.18-.12.37-.19.57,0,0,.04.04.08.08-.08.07-.21.16-.2.17.11.21-.14.29-.15.45,0,.05-.12.11-.11.12.14.24-.07.41-.14.59-.12.32-.28.63-.43.93-.09.17-.19.34-.28.51,0,.01,0,.03,0,.06.06,0,.11.01.22.03-.14.16-.25.28-.33.37,0,.09.03.16.01.2-.26.49-.53.97-.8,1.47.08.04.13.07.17.09-.06.09-.09.18-.15.25-.22.24-.19.57-.31.84-.03.07-.08.13-.13.2.06.01.12.02.18.04-.12.17-.25.32-.33.49-.14.33-.26.68-.42,1.01-.22.46-.41.94-.6,1.41-.03.07-.01.16-.02.28-.17.22-.51.41-.43.86-.18.29-.6.56-.3,1.06-.08,0-.15-.01-.18-.02-.1.21-.19.4-.27.59-.04.1-.08.19-.12.29-.14.41-.27.82-.42,1.22-.14.36-.31.72-.46,1.08-.14.34-.28.68-.42,1.01-.07.16-.18.3-.25.46-.24.5-.47,1-.7,1.5-.13.27-.27.54-.39.82-.28.67-.55,1.35-.83,2.03-.14.35-.31.68-.45,1.03-.18.44-.34.89-.53,1.33-.38.91-.75,1.81-1.15,2.71-.23.52-.5,1.02-.75,1.53-.16.32-.33.64-.5.96-.23.42-.29.92-.64,1.28-.03.03-.05.07-.07.11-.37.8-.73,1.6-1.09,2.4-.04.09,0,.22-.04.3-.21.37-.46.72-.46,1.17,0,.07-.08.13-.12.2-.07.11-.14.22-.2.34-.08.16-.14.32-.21.48-.02,0-.05-.02-.07-.03.05.32-.02.7-.34.77-.08.23-.11.47-.23.65-.46.64-.66,1.4-1,2.09-.23.47-.45.95-.68,1.42.01,0,.08.03.15.06-.1.08-.22.12-.26.2-.15.3-.28.61-.41.91-.03.08-.04.17-.06.29.01.01.06.06.12.11-.06.05-.09.09-.13.11-.21.13-.34.28-.31.55.01.11-.02.31-.08.33-.35.12-.31.47-.39.69-.12.33-.34.6-.45.97.02.03.06.11.09.18-.02,0-.05,0-.07,0-.09.26-.18.53-.27.79.03,0,.08.03.15.05-.33.42-.37,1.13-.12,1.41,0,.17-.01.3,0,.43,0,.08.05.17.09.25.09.22.14.46.28.64.13.16.34.29.53.36.09.03.24-.12.37-.19-.07-.29-.14-.55-.21-.82,0-.03,0-.07,0-.11.02-.29.03-.59.06-.88.03-.3.03-.62.13-.9.17-.54.41-1.06.61-1.59.23-.61.44-1.22.66-1.82.05-.07.13-.12.15-.2.13-.32.24-.65.36-.98.14-.37.27-.74.41-1.11.15-.4.31-.81.45-1.21.04-.11-.02-.28.05-.34.15-.12.18-.25.22-.43.08-.34.25-.66.38-.98.1-.25.22-.49.32-.74.13-.35.23-.71.38-1.05.11-.27.29-.51.4-.77.35-.81.69-1.62,1.04-2.43.26-.59.53-1.18.81-1.77.45-.96.92-1.91,1.37-2.86.05-.11.04-.25.09-.37.22-.46.46-.91.67-1.37.23-.5.44-1.02.66-1.53.22-.52.45-1.04.68-1.56.27-.64.53-1.28.8-1.92.25-.6.48-1.22.75-1.81.22-.5.48-.98.71-1.48.23-.5.46-1,.68-1.51.2-.45.39-.89.57-1.35.25-.63.47-1.28.72-1.91.22-.56.48-1.11.72-1.67.14-.34.28-.68.42-1.03.05-.13.1-.26.15-.39-.03-.01-.05-.02-.08-.03.51-.35.54-.96.75-1.46.21-.48.35-.99.53-1.54.06-.07.2-.18.25-.32.13-.36.21-.75.34-1.11.11-.31.28-.6.42-.9.16-.35.33-.71.48-1.07.16-.38.29-.76.44-1.14.03-.09.07-.17.11-.26.12-.29.22-.58.35-.87.15-.35.32-.7.46-1.05.1-.25.13-.56.51-.68-.04.23-.07.42-.1.6-.07.44-.14.88-.22,1.32-.02.09-.1.16-.15.24.02,0,.03-.01.05-.02v1.97s.08.03.12.04c.04-.05.11-.09.12-.15.15-.53.35-1.04.36-1.61,0-.28.16-.55.22-.82.14-.61.27-1.22.39-1.84.04-.2.02-.4.07-.59.13-.49.27-.97.42-1.46.05-.17.12-.33.16-.5.12-.52.21-1.06.35-1.57.22-.83.48-1.65.71-2.48.2-.73.38-1.47.56-2.21.03-.12.02-.25.06-.36.12-.4.24-.8.39-1.2.22-.58.46-1.15.72-1.72.42-.93.85-1.85,1.29-2.77.23-.49.47-.98.7-1.47.31-.66.6-1.33.91-1.99.18-.4.38-.79.57-1.18.24-.49.47-.99.71-1.48.23-.45.49-.9.74-1.36.05.05.1.13.17.18.71.58,1.53.82,2.44.77.58-.03,1.15-.08,1.72-.12.4-.03.79-.05,1.19-.09.21-.02.41-.08.61-.11.13-.02.27,0,.38-.05.23-.08.39-.04.52.17-.15.18-.31.36-.45.55-.46.63-.94,1.26-1.37,1.92-.16.24-.21.55-.32.82-.14.37-.3.74-.41,1.12-.1.36-.14.74-.21,1.11-.03.15-.09.3-.11.46-.03.2,0,.41-.04.6-.11.4-.3.78-.39,1.18-.2.88-.39,1.77-.52,2.67-.12.87-.35,1.71-.55,2.55-.09.37-.23.72-.27,1.11-.09.77-.25,1.54-.39,2.3-.16.87-.37,1.73-.5,2.61-.11.74-.14,1.5-.19,2.25-.03.4-.15.8-.1,1.21.02.14-.14.3-.14.44.01.37-.02.71-.14,1.06-.11.34-.07.73-.12,1.1-.12.95-.24,1.9-.37,2.85-.07.48-.16.96-.24,1.44-.04.2-.09.39-.13.59-.05.31-.11.62-.14.93-.01.13.01.26.02.39,0,.07.02.14,0,.21-.02.1-.05.2-.1.38-.29.21-.14.66-.29,1.01-.15.36-.14.79-.2,1.19.04,0,.1.02.16.03-.09.19-.21.36-.24.54-.09.55-.13,1.12-.21,1.67-.06.43-.13.86-.2,1.29-.07.51-.13,1.03-.22,1.54-.09.57-.22,1.13-.31,1.7-.05.31-.04.63-.09.94-.03.16-.19.32.02.41-.09.23-.21.43-.25.65-.09.52-.13,1.04-.19,1.56-.08.6-.15,1.19-.24,1.79-.11.69-.24,1.39-.35,2.08-.04.23-.06.47-.09.7-.02.18-.04.36-.08.53-.06.2-.17.38-.22.58-.1.35-.17.72-.24,1.08-.03.14-.02.29-.04.44-.02.22-.04.43-.06.7-.16.13-.18.36-.07.44-.05.09-.11.18-.13.28-.05.31-.07.62-.12.93-.02.1-.07.2-.11.3.16.02.15.13.05.24-.15.16-.25.33-.17.57,0,.03,0,.08,0,.1-.25.38-.13.88-.4,1.25-.01.02,0,.05,0,.08-.02.21-.02.43-.07.64-.16.68-.32,1.36-.5,2.04-.15.59-.38,1.16-.37,1.78,0,.3-.21.55-.13.88.03.14-.09.33.03.49.02.02-.01.11-.05.14-.26.22-.09.54-.19.8-.1.24-.1.52-.16.78-.06.25-.22.51-.21.75.02.47,0,.92-.17,1.36-.09.23-.18.47-.22.71-.06.3-.08.6-.1.9-.02.29-.03.58-.05.87,0,.08-.03.17-.05.25-.02.09-.05.19-.08.32,0,0,.06.07.05.13-.04.17-.11.32-.15.49-.02.07.03.16.01.22-.08.22-.19.42-.26.64-.21.64-.41,1.28-.62,1.92-.02.05,0,.11-.01.24.19-.14.48-.12.44-.38-.02-.17,0-.28.05-.43.26-.75.49-1.51.71-2.27.04-.12-.03-.27-.01-.41.03-.23.07-.46.13-.68.07-.23.17-.45.24-.68.06-.16.1-.32.15-.49-.07-.05-.13-.1-.15-.11.11-.72.49-1.35.39-2.11.01-.01.08-.05.09-.11.05-.17.07-.34.12-.51.07-.26.15-.52.21-.79.04-.15.06-.31.09-.46,0,0,0,0,.01,0,.03-.15.07-.3.1-.44.06-.28.18-.54.23-.82.08-.46.07-.94.21-1.4.11-.38.16-.78.23-1.18.03-.19.06-.39.09-.59.03-.17.06-.34.09-.53.06-.14.16-.3.2-.47.07-.29.11-.6.17-.9.12-.59.24-1.18.37-1.76.05-.21.12-.41.17-.62.06-.23.1-.47.15-.7,0-.04-.02-.09-.04-.12-.06-.1-.12-.2-.2-.33.11.02.19.04.27.05.15-.3.15-.33-.13-.69.1,0,.18.01.28.02.05-.34.1-.67.16-1,.02-.15.01-.32.09-.43.13-.2.09-.33-.1-.47.1-.06.18-.11.24-.15,0-.21-.04-.41,0-.59.05-.22.18-.42.26-.63.03-.07,0-.17,0-.25,0-.05-.02-.11,0-.16.08-.35.2-.69.23-1.04.02-.25-.05-.49.16-.63-.05-.13-.13-.24-.1-.3.09-.21.22-.41.32-.62.02-.04.02-.1.02-.15,0-.11-.02-.22,0-.32.05-.32.13-.64.17-.96.07-.46.11-.91.18-1.37.04-.29.12-.58.16-.87.02-.12-.03-.25,0-.37.05-.2.22-.42.18-.6-.06-.24.06-.42.08-.63.01-.17-.04-.38.04-.5.17-.28.06-.52,0-.74.06-.1.16-.19.15-.26-.03-.18.03-.32.09-.48.04-.09,0-.21-.02-.32.04-.09.07-.21.15-.3.14-.16-.06-.33.02-.45.16-.27.11-.44-.22-.58.31.05.39-.15.38-.32-.02-.31.12-.57.19-.85.05-.2.08-.4.11-.61.01-.06,0-.12.01-.18.07-.41.15-.82.21-1.23.05-.31.07-.62.12-.92.06-.32.15-.63.21-.94.16-.89.31-1.78.46-2.67.1-.6.21-1.19.3-1.79.06-.38.14-.77.17-1.15.02-.19.12-.42-.13-.54.09-.11.27-.26.24-.32-.1-.29.03-.54.07-.8.06-.41.08-.83.13-1.24.05-.45.11-.91.17-1.36.07-.52.15-1.04.22-1.56.06-.43.11-.86.16-1.28.04-.33.05-.67.11-1,.09-.54.22-1.07.32-1.61.07-.35.11-.7.17-1.05.09-.55.17-1.09.26-1.63.15-.87.28-1.74.46-2.61.18-.87.42-1.73.64-2.6.14-.54.28-1.08.42-1.62.01-.05.07-.11.13-.14.02-.01.12.04.12.07,0,.06-.03.12-.05.18,0,.03-.05.05-.04.07.12.37.02.74-.02,1.1-.05.5-.05.99-.09,1.49-.03.39-.11.78-.13,1.17-.03.67,0,1.35-.04,2.03-.02.51-.11,1.01-.11,1.52,0,.45.05.9-.14,1.33-.02.04.02.12.04.17.05.09.11.17.15.24-.07.08-.17.14-.18.22-.03.22-.02.44-.03.65,0,.15.06.36-.01.44-.18.19-.1.39-.11.6,0,.11-.02.23-.06.34-.06.21-.15.41-.19.62-.01.07.06.17.11.24.03.05.09.07.08.06-.09.28-.18.52-.23.76-.05.2,0,.42-.09.6-.11.24,0,.34.17.44.04.02.08.05.12.08,0,.01-.01.03-.02.04-.1-.05-.2-.09-.32-.14-.03.43-.04.83-.1,1.23-.1.71-.25,1.42-.14,2.15,0,.04-.05.1-.08.15-.05.11-.1.22-.12.33-.02.13,0,.28-.02.41-.03.15-.12.29-.15.44-.12.68-.24,1.36-.34,2.04-.03.21-.01.42-.05.63-.02.14-.16.28-.15.41.04.41-.08.76-.23,1.11.02.13.03.26,0,.38-.05.18-.14.34-.21.51-.08.19-.16.39-.24.58.02.01.04.03.06.04.04-.05.1-.09.13-.14.21-.5.42-1,.62-1.5,0-.02,0-.05.01-.08.09-.4.14-.82.28-1.2.22-.61.36-1.24.47-1.87.06-.34.12-.68.19-1.02.05-.23.14-.45.18-.68.08-.44.16-.87.22-1.31.11-.76.21-1.52.31-2.28.01-.1-.02-.2-.04-.3.03-.07.11-.15.1-.23-.05-.32.14-.59.17-.89.05-.39.17-.76.23-1.15.05-.35.05-.7.09-1.05.06-.59.14-1.18.2-1.77.04-.38.08-.76.1-1.15.04-.57.08-1.14.08-1.7,0-.49.12-.96.04-1.46-.07-.4,0-.83.01-1.24.01-.44,0-.87.05-1.3.01-.14.16-.27.25-.41-.05-.15-.11-.34-.19-.58.16.03.24.05.28.06-.09-.14-.25-.28-.25-.42.01-.28.13-.54.18-.82.06-.31.07-.63.15-.94.04-.17.07-.3-.09-.4,0,0,0-.03,0-.05.06,0,.13,0,.27-.01-.28-.13-.28-.55-.67-.37.14-.08.16-.37.41-.13.14.14.37.19.56.29-.01.03-.07.11-.06.17.06.28.14.56.22.84.03.11.04.25.11.33.37.43.78.81,1.38.85.43.03.84.02,1.22-.28.4-.32.71-.7.95-1.13.19-.34.31-.74.25-1.16-.03-.19,0-.39.02-.59,0-.13.02-.25.04-.37.03-.16.11-.32.09-.48-.1-.77-.23-1.53-.35-2.3-.06-.42-.11-.85-.17-1.27-.01-.09-.07-.18-.06-.26.02-.16.08-.32.13-.51.06,0,.15,0,.25,0,.65.02,1.31.04,1.96.05.23,0,.46,0,.68-.02.26-.04.52-.1.77-.18.29-.09.57-.21.86-.32.17-.07.34-.16.52-.23.1-.04.21-.03.3-.08.22-.11.35-.03.46.17.2.35.42.69.63,1.04.45.76.91,1.52,1.36,2.28.34.57.66,1.14,1,1.7.39.64.8,1.26,1.2,1.89.24.38.48.75.71,1.13.03.05.03.11.04.16-.1,0-.15-.02-.2-.06-.19-.18-.29-.41-.44-.62-.2-.28-.4-.55-.63-.8-.14-.15-.32-.25-.48-.37l-.06.07c.14.18.29.34.41.53.5.74,1,1.48,1.48,2.22.36.55.66,1.14,1.04,1.67.47.64.88,1.31,1.22,2.03.17.36.26.76.48,1.08.23.34.52.64.56,1.07,0,.01.04.02.06.04.19.19.4.36.55.58.09.13.09.32.15.48.02.05.06.1.09.15.06.07.13.12.17.19.22.39.43.78.64,1.18.23.43.44.87.68,1.3.52.95,1.03,1.91,1.59,2.83.44.73.97,1.41,1.44,2.12.28.42.53.86.82,1.27.27.4.59.76.87,1.15.38.53.66,1.13,1.1,1.62.15.16.2.4.31.6.24.44.49.87.73,1.31.39.69.78,1.38,1.17,2.08.38.69.76,1.38,1.13,2.08.05.09.02.22.03.36.05.05.19.12.26.24.17.27.29.56.45.83.38.64.6,1.38,1.15,1.93.04.04.05.16.03.18-.21.14-.07.27,0,.4.2.33.39.67.58,1.01.04.07.05.16.07.25.04.14.05.29.11.41.11.2.36.39.36.58,0,.31.16.37.28.4.15.43.26.81.41,1.18.14.35.33.68.48,1.02.34.79.63,1.59,1.04,2.34.19.35.31.73.45,1.1.09.24.13.51.23.75.19.44.39.9.64,1.31.22.35.18.65.03.93.16.23.3.45.45.66.05-.03.11-.07.17-.11.19.47.36.93.55,1.39-.05,0-.11-.02-.26-.04.19.18.33.31.49.47-.11.01-.17.02-.26.03.15.17,0,.48.34.49-.14.35-.11.42.21.5-.03.08-.08.16-.07.23.02.28.04.56.32.74.04.02.03.13.04.2.06.22.1.44.18.64.08.19.19.37.29.55.07.13.15.27.22.41.17.36.34.73.5,1.09.09.21.21.41.27.62.07.24.11.47.39.52-.07.05-.17.1-.17.14.02.34.13.65.37.83,0,.12-.03.26-.01.26.31.08.34.4.44.61.22.43.36.9.51,1.36.17.51.4,1,.45,1.55.02.29.22.58.36.86.11.23.27.43.38.65.13.28.23.58.36.85.13.27.31.53.43.8.13.28.21.57.4.83.26.37.45.79.68,1.19.31.56.56,1.16.99,1.66.12.13.19.3.29.48.08-.27-.31-.99-.54-1.06ZM1.83,105.46s-.09-.09-.09-.1c.06-.09.14-.18.21-.27,0,0,.07.04.15.07-.1.11-.19.2-.27.29ZM2.26,104.98c-.12-.03-.23-.07-.39-.11.11-.05.18-.08.24-.11-.02-.01-.03-.02-.05-.03.06-.14.08-.34.18-.39.11-.06.29.01.44.03-.33.06-.31.38-.43.62ZM2.72,103.9c-.12.03-.24.07-.37.1-.02-.03-.03-.05-.05-.08.06-.07.11-.18.19-.21.06-.02.16.05.24.07,0,.04,0,.07-.01.11ZM21.25,60.81c-.02.24-.09.34-.39.28.14-.35.28-.7.42-1.05.04.02.09.03.13.05-.06.24-.14.48-.16.72ZM27.33,9.05c-.07-.24.03-.52.23-.68-.01-.02-.04-.04-.05-.06.23-.19.52-.34.81-.29.77.14,1.41-.2,2.09-.46,1.21-.46,2.16-1.26,3.05-2.17.34-.35.72-.66,1.06-1,.2-.2.38-.41.55-.64.49-.63.96-1.28,1.47-1.9.26-.32.65-.49,1.13-.21.86.5,1.52,1.21,2.19,1.93.45.48.91.96,1.37,1.43.53.55,1.06,1.11,1.6,1.65.34.33.68.66,1.07.93.37.26.82.31,1.29.24.2-.03.43-.1.59.15.03.05.16.05.27.08.03.64.09,1.27-.05,1.92-.13.58-.2,1.18-.3,1.77-.05.32-.11.64-.19.95-.13.54-.24,1.08-.4,1.61-.24.78-.09,1.57-.05,2.35,0,.1.01.21.02.31-.03.02-.06.03-.07.05-.27.33-.6.15-.91.1-.57-.08-1.13-.03-1.65.26-.12.07-.28.06-.4.12-.42.23-.85.44-1.24.72-.68.48-1.32,1.02-1.99,1.51-.31.23-.69.33-1.08.26-.16-.03-.3-.17-.44-.26-.14-.08-.27-.18-.41-.26-.33-.19-.66-.39-1-.57-.51-.28-1.02-.58-1.55-.82-.47-.2-.96-.37-1.49-.36-.17,0-.35-.04-.52-.06-.69-.07-1.37-.04-2,.33-.11.06-.25.08-.39.13,0-.06,0-.12,0-.17-.26-.06-.49-.25-.5-.59-.15-2.87-1.28-5.57-2.07-8.3ZM35.79,38.45c-.38,0-.74.07-1.1.21-.04.02-.09.01-.13.01-.72-.01-1.44,0-2.15-.05-.06,0-.12-.02-.18-.04-.05.02-.11.04-.17.04-.21,0-.41-.01-.62-.06-.11-.03-.2-.09-.28-.17-.03-.04-.07-.09-.1-.13-.06-.1-.09-.21-.09-.32,0-.06.02-.11.02-.17.02-.08.06-.16.12-.22.05-.07.11-.13.18-.17.07-.05.15-.07.24-.08.06-.01.12,0,.19,0,.12.01.23.02.35.02.12,0,.22.03.32.09.03.02.05.04.08.06.53.11,1.06.21,1.59.31.11.02.23,0,.34,0,.26.04.52.02.76.22.16.13.43.12.65.18.16.05.31.13.46.19,0,.03,0,.05,0,.08-.16-.01-.32-.03-.48-.03ZM35.57,36.91c-.17-.07-.34-.14-.52-.18-.45-.1-.91-.19-1.36-.27-.19-.04-.39-.07-.58-.11-.37.13-.88-.07-.9-.58-.05-1.67.02-3.37-.25-5.03-.25-1.5-.78-2.94-1.47-4.29-1-1.95-2.14-3.94-1.45-6.21.64-2.11,2.64-2.18,4.43-1.5.83.31,1.73.7,2.44,1.24.54.41.92.84,1.54,1.15.64.32.99.48,1.54.13,1.15-1.63,2.82-3.1,4.85-3.21.87-.05,2.17.29,2.82.89.59.55.55,1.37.42,2.09-.21,1.12-.36,2.26-.58,3.38-.24,1.2-.91,2.17-1.32,3.31-.74,2.07-.94,4.26-1.1,6.43-.05.73-.13,1.58-.77,2.04-.62.45-1.47.49-2.2.64-.19.04-.35,0-.48-.09-.21.05-.42.13-.62.09-.18-.03-.34-.24-.48-.39-.31-.35-.56-.75-.89-1.06-.61-.58-1.22-1.18-2.08-1.37-.51-.11-1.04-.14-1.57-.16-.39-.01-.81.49-.91.95-.13.62.4,1.38.97,1.52.47.11,1.32.6,1.57.87-.4.07-.72-.15-1.06-.29ZM36.19,36c-.42-.1-.72-.35-.93-.71-.09-.15-.2-.29-.34-.49.88.02,1.74-.12,2.42.39.62.46,1.41.81,1.6,1.68l-.06.08c-.5-.19-1.01-.39-1.51-.57-.39-.14-.78-.28-1.18-.38ZM36.89,43.37c-.02.05-.05.11-.09.18-.31-.31-.32-.69-.25-1.04.12-.58.36-1.11.75-1.58.4-.48.77-.97,1.15-1.46.04-.05.06-.12.08-.18.21.1.24.25.08.57-.28.56-.58,1.1-.86,1.67-.3.61-.58,1.23-.87,1.85ZM40.25,43.17c.03.25.02.51,0,.76,0,.27.01.55-.05.81-.08.34-.2.69-.37.99-.28.5-.63.86-1.25.85-.51.01-.99-.49-.96-1.03.02-.29.04-.59.11-.87.04-.18.16-.34.25-.51.27-.52.53-1.05.82-1.57.24-.44.5-.88.76-1.31.1-.16.19-.14.29.02.2.32.19.68.26,1.03.05.27.12.54.15.82ZM45.41,37.99c-.09.15-1.03.3-1.19.35-.55.19-1.14.22-1.7.39-.09.03-.18.03-.27.01-.23-.01-1.88-.12-1.98-.15,0-.03-1.03-.19-1.03-.22.1-.03,2.61-.82,2.88-.89.58-.16,1.19-.2,1.77-.39.34-.11.95-.02,1.05.3.05.15.56.46.48.59ZM52.2,48.41s-.06,0-.1.01l-.26-.36s.02-.05.04-.07c.11.04.24.05.31.12.05.06.01.19.01.3Z"/>
      <path class="cls-1" d="M20.63,76.51c.36-.1.23-.44.32-.67.02-.07.03-.15.03-.22,0-.12,0-.24.01-.36,0-.1-.03-.26.03-.3.06-.05.21-.02.31,0,.11.02.21.08.32.12.11.35.07.44-.28.63-.02.01,0,.12.02.18.04.11.13.23.12.33-.07.52-.15,1.04-.27,1.54-.1.39-.15.79-.39,1.15-.14.22-.11.55-.16.84-.06.37-.13.73-.17,1.1-.01.09.05.19.08.3-.04.19-.09.41-.13.63-.08.43-.16.86-.24,1.29-.06.31-.17.62-.2.94-.02.18.08.37.14.59-.14.1-.16.29-.18.53-.03.39-.2.77-.32,1.19-.04-.09-.07-.13-.09-.19-.03.04-.06.05-.06.07-.02.19-.02.39-.05.58-.07.4-.17.78-.23,1.18-.07.49-.09,1-.18,1.49-.08.44-.24.86-.36,1.29-.03.12-.06.24-.08.36-.17.77-.34,1.54-.51,2.31-.19.85-.38,1.7-.57,2.54-.06.25-.13.49-.19.74-.03.13-.03.28-.07.41-.22.69-.46,1.38-.65,2.08-.17.63-.27,1.28-.41,1.92-.05.22-.16.43-.2.64-.11.59-.19,1.19-.31,1.78-.2.97-.42,1.94-.63,2.91-.04.2-.05.42-.1.62-.09.32-.22.64-.3.96-.1.44-.17.9-.26,1.34-.02.09-.1.17-.14.22,0,.12.05.23.01.3-.13.29-.09.61-.15.9-.11.52-.24,1.03-.37,1.55,0,.03-.03.07-.03.1.04.66-.35,1.22-.41,1.86-.02.16,0,.32,0,.48,0,.03,0,.06,0,.09-.05.12-.12.24-.15.36-.15.86.2,1.51.98,1.89.24.12.45.3.69.44.08.05.2.07.29.07.33-.03.65-.06.95.11.08.04.19.01.28.04.07.02.14.07.19.13.29.03.59.08.88.09.17,0,.35-.05.52-.06.24-.02.42.03.41.34,0,.08.09.17.16.28-.04.08-.11.19-.18.32.11.02.19.03.27.05l.04.06c-.12.08-.23.18-.36.24-.68.29-1.34-.03-2.01-.06-.03,0-.07-.03-.1-.03-.65.02-1.22-.27-1.83-.43-.12-.03-.22-.1-.34-.14-.31-.1-.63-.15-.92-.28-.41-.19-.8-.43-1.19-.67-.2-.12-.38-.29-.55-.45-.06-.06-.09-.26-.06-.29.29-.21.21-.52.22-.8,0-.1-.05-.21-.09-.38.32-.63.43-1.4.6-2.17.04-.19.13-.37.2-.56.07-.2.15-.41.21-.62.04-.14.04-.29.08-.43.15-.54.3-1.08.45-1.62.17-.63.35-1.25.49-1.89.18-.78.32-1.56.48-2.34.14-.67.29-1.34.42-2.02.17-.84.32-1.68.49-2.52.11-.53.22-1.07.34-1.6.19-.87.38-1.74.58-2.61.03-.15.12-.3.15-.45.03-.16,0-.32.03-.46.06-.13.2-.33.15-.39-.2-.27.05-.3.13-.36,0-.22-.03-.41,0-.59.16-.8.34-1.6.51-2.39.07-.33.16-.67.23-1,.05-.26.08-.52.11-.78.02-.17.04-.33.08-.49.14-.6.28-1.2.42-1.81.14-.58.3-1.15.4-1.74.07-.43.23-.85.17-1.31-.02-.17.11-.35.14-.53.05-.34.06-.68.11-1.02.11-.69.21-1.38.35-2.07.15-.73.35-1.44.52-2.17.09-.37.14-.75.22-1.13.06-.31.18-.36.43-.21.02,0,.03.02.05.03.4.22.37.22.42-.26.04-.4.16-.8.23-1.2.03-.16,0-.33,0-.49h0ZM17.54,93.05c.06-.05.16-.09.18-.16.08-.28.15-.58.22-.89-.17,0-.34-.02-.51-.03.07.34.13.64.18.94-.02,0-.04,0-.06,0,0,.05,0,.1-.01.15-.08,0-.15-.02-.23-.02q-.16.64.19.69c-.07-.24.23-.43.03-.68ZM19.79,80.27c-.24.04-.17.32-.22.49-.07.24-.04.51-.06.79,0,0,.06.03.07.04-.03.15-.06.27-.08.39-.03,0-.1-.01-.17-.02.03.12.08.22.08.32-.02.26-.06.53-.11.79-.07.39-.17.78-.25,1.17-.1.5-.19,1.01-.3,1.51-.13.57-.04.68.47.92-.07-.47-.14-.89-.21-1.34.11.07.19.11.26.16.02-.02.03-.04.05-.06-.07-.1-.14-.2-.21-.3.05-.03.12-.06.13-.1.1-.54.19-1.08.28-1.62.15-.88.29-1.76.44-2.64.11-.67.24-1.34.37-2.04-.16-.06-.33-.13-.52-.2.04.24.08.44.12.65-.06.07-.13.15-.21.24.2.13.15.25.02.32.02.19.04.34.07.53ZM17.93,91.38s.04,0,.07,0c.04-.11.08-.22.11-.33.03-.1.02-.21.06-.31.06-.14.17-.27.2-.41.09-.44.13-.88.21-1.32.07-.37.16-.74.25-1.11.06-.23.15-.46.2-.7.02-.09-.06-.19-.1-.28-.11.06-.23.1-.31.19-.04.05,0,.17-.02.25-.02.12-.01.27-.09.33-.17.15-.2.26-.08.35-.09.16-.19.27-.22.41-.07.33-.09.67-.14,1-.11.73-.22,1.45-.32,2.18-.03.23.02.26.28.21-.03-.15-.06-.3-.09-.45ZM17.03,94.13c0,.26.01.49,0,.72,0,.14-.06.28-.09.43.02,0,.09.02.2.04.07-.37.14-.74.21-1.1-.1-.03-.17-.05-.32-.09ZM18.65,86.36s-.08.05-.12.08c.06.11.12.22.19.33.05-.04.15-.1.15-.11-.06-.1-.14-.2-.21-.3Z"/>
      <path class="cls-1" d="M11.39,114.3c-.12.07-.19.11-.26.15.01.02.02.05.04.07.09.01.17.02.28.03-.03.07-.06.13-.09.22.1,0,.18.01.26.02-.13.22-.7.4-1.08.32-.03.28-.27.3-.48.38-.49.2-.99.03-1.48.09-.18.02-.35.08-.57.05-.45-.08-.77-.33-1.13-.56-.01,0-.03-.02-.05-.02-.53-.05-.75-.47-.84-.88-.1-.46-.25-.95.03-1.42.1-.16.08-.39.13-.58.04-.13.09-.26.16-.38.11-.2.27-.36.3-.63.03-.2.25-.37.37-.57.38-.64.72-1.31,1.13-1.94.26-.4.41-.84.67-1.25.22-.35.34-.77.5-1.16.3-.71.6-1.42.88-2.14.2-.48.39-.97.56-1.46.07-.2.04-.44.1-.64.18-.54.38-1.08.57-1.61.06-.16.15-.32.21-.48.26-.72.52-1.44.79-2.16.16-.43.35-.86.51-1.29.23-.63.44-1.27.66-1.91.02-.07.02-.16.04-.23.11-.43.27-.85.41-1.27.11-.32.16-.66.25-.99.15-.53.33-1.05.48-1.57.13-.46.24-.92.37-1.37.12-.42.28-.82.4-1.24.08-.29.1-.59.17-.88.15-.6.31-1.19.46-1.78.14-.56.25-1.12.4-1.67.25-.94.48-1.88.77-2.8.28-.9.62-1.78.93-2.67.15-.43.28-.87.44-1.31.15-.43.32-.85.5-1.32.12.09.21.16.28.21-.12.11-.21.21-.3.3.24.16.23.18.03.34-.06.05-.06.17-.07.28-.04.21-.09.42-.13.63-.02.08,0,.2-.04.24-.32.27-.17.66-.27.98-.23.74-.42,1.5-.61,2.25-.09.36-.15.73-.24,1.09-.19.78-.41,1.55-.58,2.34-.12.56-.16,1.13-.28,1.69-.15.73-.34,1.45-.51,2.17-.05.23-.09.46-.15.68-.12.45-.25.9-.36,1.35-.09.37-.15.75-.24,1.12-.15.57-.3,1.14-.48,1.7-.18.57-.38,1.13-.59,1.69-.07.2-.24.38-.24.57,0,.38-.29.63-.36.97-.09.41-.31.8-.46,1.2-.28.72-.54,1.44-.82,2.15-.08.19-.2.37-.29.56-.25.55-.52,1.09-.75,1.65-.25.63-.44,1.28-.67,1.92-.09.25-.26.49-.29.75-.08.66-.47,1.19-.67,1.8-.17.52-.46.99-.69,1.48-.21.44-.4.89-.62,1.33-.16.32-.35.61-.53.92-.42.72-.85,1.44-1.25,2.17-.12.21-.16.46-.25.68-.03.09-.07.17-.12.25-.13.2.03.71.31.87.46.25.92.48,1.48.37.18-.03.38.06.57.05.34-.02.68-.1,1.02-.13.22-.02.45.01.67.05.23.04.45.12.74.2Z"/>
      <path class="cls-1" d="M62.91,80.93c-.2.12-.34.01-.42-.14-.34-.67-.66-1.35-.98-2.03-.09-.2-.11-.42-.19-.63-.05-.13-.15-.25-.24-.37-.17-.23-.16-.55-.42-.73-.1-.07-.11-.28-.17-.42-.13-.34-.26-.67-.4-1.01-.18-.42-.39-.83-.53-1.27-.1-.3-.21-.65-.37-.88-.01-.01-.03-.03-.03-.04-.06-.44-.41-.75-.54-1.16-.1-.33-.21-.66-.32-.98-.02-.06-.07-.12-.1-.18-.04-.06-.11-.11-.11-.17-.02-.43-.33-.72-.51-1.07-.03-.05-.05-.11-.07-.17-.11-.3-.23-.6-.34-.9-.07-.18-.12-.37-.21-.54-.12-.26-.27-.51-.4-.76-.35-.69-.69-1.39-1.02-2.09-.11-.23-.17-.49-.27-.72-.06-.13-.17-.24-.26-.35-.04-.06-.09-.13-.12-.2-.11-.26-.21-.53-.31-.8-.04-.1-.04-.21-.08-.3-.15-.3-.32-.59-.47-.88-.06-.12-.1-.25-.15-.37-.17-.4-.32-.82-.51-1.21-.15-.31-.36-.6-.51-.91-.16-.33-.26-.67-.41-1.01-.07-.16-.19-.3-.28-.45-.15-.29-.29-.57-.42-.87-.15-.35-.26-.71-.44-1.04-.24-.44-.53-.86-.78-1.29-.11-.18-.16-.4-.26-.59-.16-.33-.34-.64-.5-.97-.09-.18-.15-.37-.23-.55-.01-.03-.03-.06-.06-.08-.24-.16-.28-.43-.4-.66-.24-.43-.46-.87-.72-1.29-.47-.74-.95-1.48-1.44-2.21-.31-.46-.63-.91-1-1.32-.25-.29-.39-.67-.61-.99-.36-.52-.75-1.01-1.1-1.54-.34-.52-.63-1.07-.96-1.59-.33-.52-.68-1.03-1.02-1.54-.01-.02,0-.05-.02-.11.07.05.13.07.16.11.26.3.52.59.76.9.12.16.19.37.3.55.24.39.48.79.73,1.17.2.31.42.62.63.93.39.55.77,1.1,1.17,1.65.45.62.9,1.24,1.36,1.86.33.45.66.89.99,1.34.05.07.02.19.05.27.04.1.09.2.14.29.15.26.3.53.46.79.04.07.11.12.15.18.05.07.09.15.17.28.02.07.05.19.1.3.1.18.22.34.32.51.23.38.46.77.69,1.16.18.31.35.62.51.94.2.38.38.76.58,1.14.18.35.38.68.55,1.03.05.1,0,.24.05.34.16.3.35.58.5.88.14.26.33.5.37.81.02.14.14.26.21.4.16.31.32.61.47.93.1.23.14.49.27.7.2.3.26.66.42.97.28.56.52,1.14.75,1.72.31.79.75,1.51,1.1,2.27.32.7.65,1.39.97,2.09.05.1.1.2.16.29.29.39.32.87.49,1.3.11.28.27.54.4.82.11.25.19.51.32.75.17.35.37.69.56,1.03.01.02.05.05.04.06-.09.34.19.55.28.83.09.29.27.55.38.83.11.26.17.55.29.81.27.6.56,1.18.83,1.77.35.76.67,1.54,1.03,2.3.25.55.54,1.09.81,1.63.07.14.11.28.18.45Z"/>
      <path class="cls-1" d="M56.64,86.29c-.26-.11-.52-.16-.39-.52.02-.06-.05-.14-.08-.22-.06-.22-.17-.45-.17-.67-.01-.48-.1-.9-.39-1.31-.19-.27-.21-.66-.32-1-.25-.81-.5-1.61-.74-2.42-.13-.45-.21-.91-.33-1.35-.08-.29-.21-.56-.29-.85-.07-.26-.1-.53-.16-.8-.11-.5-.24-.99-.35-1.49-.02-.08.02-.16.03-.27-.18-.12-.3-.56-.23-.82-.06-.14-.12-.23-.15-.33-.08-.28-.17-.57-.22-.85-.04-.23-.01-.48-.06-.71-.09-.4-.22-.79-.33-1.18-.03-.12-.03-.25-.04-.38.04,0,.07-.01.11-.02.05.19.09.39.14.58,0,.03,0,.07.02.1.16.5.33.99.5,1.49-.07,0-.13.02-.12.02.1.27.2.53.29.79.08.25.14.5.21.75,0,.02.02.04.01.05-.11.27.11.46.16.7.06.26.14.52.21.78.06.23.08.47.18.68.14.28.16.55.16.85,0,.09.14.18.17.22.03.17.05.29.07.4.03.16.05.33.11.48.1.25.19.48.2.76,0,.21.13.41.2.62.12.41.23.83.35,1.24.22.74.46,1.48.67,2.22.09.3.12.62.2.92.09.35.2.69.29,1.03.04.15.06.31.09.5Z"/>
      <path class="cls-1" d="M35.21,72.62c.06.05.12.09.2.15-.4.13-.11.25.02.35-.22.13-.4.25-.58.36.13.08.24.15.28.18-.06.24-.11.41-.16.59.13.04.26.07.39.11-.18.09-.34.17-.5.24-.05.02-.11.01-.16.02,0-.06-.01-.11-.01-.17,0-.13,0-.26.01-.39.01-.28.02-.56.03-.84,0-.11.03-.22.05-.34.05-.36.11-.72.15-1.08.02-.22.02-.45.03-.67,0-.14.01-.28.03-.41.04-.23.1-.43.02-.68-.07-.23.02-.52.04-.78,0-.07-.04-.14-.03-.21,0-.07.05-.13.09-.21-.2-.18-.08-.37.01-.57.03-.07.06-.16.05-.23-.01-.13-.07-.26-.07-.39.02-.29.04-.59.1-.88.04-.2.15-.38.25-.62.05.09.07.13.09.18.09-.06.19-.13.33-.22,0,.13.01.21,0,.3-.04.26-.13.51-.13.77,0,.34-.05.66-.13,1-.09.36-.02.77-.04,1.15-.01.27-.06.53-.08.79,0,.08,0,.17.04.24.16.31.12.57-.14.81-.05.05-.07.14-.07.21,0,.2.07.41.04.61-.03.23,0,.37.26.38-.15.05-.28.09-.41.14,0,.03,0,.06.01.1Z"/>
      <path class="cls-1" d="M25.3,57.97c.2.14.09.21-.07.27.1.29.06.34-.52.65.04.04.08.07.11.1.22.17.22.27.01.48-.1.1-.28.17-.18.38,0,.01-.09.07-.16.13.07.05.13.08.2.12-.06.1-.12.2-.16.27.04.15.08.28.12.41-.02.02-.04.03-.06.05-.17-.13-.35-.27-.44-.34.05-.35.1-.62.12-.77.12-.34.19-.56.28-.79.04-.09.08-.2.16-.25.14-.09.23-.16.13-.35-.05-.09,0-.22,0-.37.08-.1.19-.22.32-.36-.04-.05-.1-.1-.18-.19.08-.04.14-.08.21-.11,0-.01,0-.03,0-.04,0-.13-.02-.26.02-.38.15-.46.36-.91.47-1.37.18-.75.55-1.42.78-2.15.05-.16.14-.33.25-.46.29-.31.16-.76.39-1.09.07-.1.06-.24.12-.35.04-.08.13-.14.2-.19.02-.01.12.03.12.05.01.08.04.2,0,.26-.12.17-.13.37-.19.56-.06.21-.12.42-.19.63-.07.19-.15.37-.22.55-.14.34-.28.68-.42,1.03-.08.2-.18.4-.25.61-.08.25-.13.52-.21.77-.04.12-.11.24-.15.36-.09.32-.18.64-.26.96-.06.26-.11.53-.18.79-.02.06-.11.1-.18.16Z"/>
      <path class="cls-1" d="M67.83,88.76c-.26.05-.36-.08-.49-.25-.28-.38-.6-.73-.9-1.1-.32-.4-.68-.79-.94-1.23-.43-.69-.8-1.42-1.19-2.14-.01-.02-.02-.05-.03-.07-.13-.25-.26-.5-.41-.74-.26-.44-.53-.88-.79-1.32-.01-.02-.04-.04-.05-.06-.09-.24-.18-.48-.28-.75.13-.09.28-.09.39.11.2.37.38.75.58,1.12.34.63.68,1.25,1.04,1.87.22.39.47.76.68,1.16.49.95,1.22,1.74,1.81,2.62.18.26.38.51.58.79Z"/>
      <path class="cls-1" d="M62.67,90.05c.23.28.46.56.68.84.27.34.5.7.79,1.01.81.84,1.67,1.63,2.45,2.49.39.43.84.74,1.3,1.06.41.29.83.55,1.25.83.08.05.16.11.23.18.23.24.46.49.66.71-.09.01-.8-.54-.85-.7-.09-.01-.2,0-.24-.04-.5-.53-1.14-.85-1.77-1.18-.18-.09-.31-.28-.47-.42-.5-.46-1.01-.92-1.49-1.4-.25-.25-.43-.58-.7-.8-.23-.19-.38-.43-.56-.64-.17-.2-.31-.43-.5-.6-.23-.2-.37-.45-.52-.7-.12-.2-.22-.4-.33-.6.02-.02.05-.03.07-.05Z"/>
      <path class="cls-1" d="M34.89,89.42c-.37.2-.48.15-.49-.24-.01-.56,0-1.13-.02-1.69,0-.29-.04-.57-.04-.86,0-.32.05-.64.07-.97,0-.09-.04-.18-.05-.27-.03-.48-.07-.95-.09-1.43,0-.09,0-.19.05-.26.04-.07.14-.1.21-.15.03.07.07.14.07.21.01.3,0,.61.02.91.02.89.03,1.77.06,2.66,0,.31.13.65.05.93-.1.34.16.61.04.93-.02.05.08.14.12.22Z"/>
      <path class="cls-1" d="M34.41,80.12c-.2-.16-.2-.17.16-.51-.07-.05-.13-.1-.15-.12-.07-1-.08-1.96.09-2.94.33.1.36.36.42.53-.13.12-.3.2-.31.3-.01.14.09.29.14.43-.03.1-.09.22-.1.34-.02.29-.03.58-.03.87,0,.46,0,.93,0,1.39,0,.04,0,.09.02.13.09.2.09.4.02.62-.11.36,0,.72,0,1.09,0,.07-.07.14-.1.2-.05-.06-.13-.1-.15-.17-.12-.33-.17-.66-.04-1.02.07-.18-.01-.41-.01-.61,0-.16.03-.32.05-.53Z"/>
      <path class="cls-1" d="M38.75,110.32c.01.11.02.22.04.33.17,1.11.34,2.22.5,3.33.03.24-.04.52.05.72.18.39.02.83.24,1.21.03.06-.01.17-.05.25-.29-.42-1-5.42-.86-5.82.03,0,.05,0,.08-.01Z"/>
      <path class="cls-1" d="M35.11,91.34c-.15-.07-.3-.13-.45-.2-.03.07-.04.1-.04.1.23.19.16.39.06.63-.05.13.02.31.03.46,0,.06-.02.13-.04.22v.52s.07.04.18.11c-.1.08-.18.14-.28.22,0,0,0,.05.01.1-.02,0-.04.02-.06.03-.03-.05-.1-.09-.1-.14-.02-.75-.03-1.49-.04-2.24,0-.28.24-.16.37-.2.1-.03.25-.12.26.12,0,.09.1.18.15.26-.02,0-.04,0-.06.01Z"/>
      <path class="cls-1" d="M29.02,48c.11.11.17.16.24.23-.14.17-.31.34-.44.55-.09.14-.1.33-.16.49-.03.07-.08.13-.12.19-.05.1-.09.21-.13.32,0,.02,0,.06,0,.07-.19.18-.26.41-.35.64-.08.21-.26.16-.42.08.16-.26.31-.5.45-.75.13-.24.24-.49.39-.73-.12-.11-.12-.2.08-.32.1-.06.13-.24.2-.36.08-.14.17-.28.26-.42Z"/>
      <path class="cls-1" d="M23.76,61.68c.16.11.28.2.44.31-.11.06-.17.09-.26.14.1.03.18.04.24.06v.5c-.13-.04-.22-.07-.34-.11.03-.09.05-.15.08-.24-.09-.04-.17-.07-.25-.1-.11.33.09.58.49.56-.08.09-.14.16-.19.22-.02-.01-.05-.03-.07-.04.03.14.07.28.12.46-.15-.03-.26-.05-.32-.06-.02-.15-.03-.25-.04-.35-.04-.35-.28-.71.03-1.06.04-.05.04-.14.07-.29Z"/>
      <path class="cls-1" d="M34.71,98.81c-.06-.05-.15-.1-.17-.16-.05-.28-.09-.56-.12-.84,0-.08.03-.16.06-.26-.15-.11-.17-.77.03-.99.14.09.21.18.14.38-.05.14.03.32.04.48.04.44.07.88.1,1.32-.03.02-.05.04-.08.07Z"/>
      <path class="cls-1" d="M22.82,67.05c-.32.04-.02-.28-.19-.34-.02.04-.04.09-.06.13-.02,0-.04,0-.06.01,0-.07-.03-.17,0-.2.27-.27.26-.64.33-.97.03-.14.06-.29.1-.43.06-.19.19-.2.38-.1-.04.08-.08.15-.12.23.06.02.13.05.21.08,0,.03-.01.05-.02.05-.13.04-.31.04-.37.12-.06.08.05.25.03.38-.02.18-.08.36-.12.54-.04.15-.07.3-.12.49Z"/>
      <path class="cls-1" d="M38.46,106.84c.06.42.14.84.17,1.26.02.33-.02.66-.04.99,0,.04-.02.1,0,.13.26.27,0,.64.19.92-.03.02-.05.03-.08.05-.04-.06-.11-.12-.11-.18-.06-.72-.11-1.45-.16-2.18-.02-.28-.05-.55-.07-.83,0-.06.01-.12.02-.18.02,0,.04.01.07.02Z"/>
      <path class="cls-1" d="M35.6,82.92c-.43-.13-.35-.45-.38-.71-.02-.16,0-.33,0-.5-.01-.31,0-.32.33-.28-.02.18-.03.36-.05.56.27.25.08.59.11.93Z"/>
      <path class="cls-1" d="M22,73.7c-.09-.08-.18-.15-.26-.21.18-.06.36-.12.54-.19,0,0,.01.01.02.02-.08.06-.15.11-.25.19.07.05.13.1.18.14-.01.25-.29.61-.54.67.09.06.17.11.25.15,0,.02,0,.05-.01.07-.27-.03-.54-.06-.81-.1,0-.01-.02-.03-.03-.04.28-.1.56-.2.9-.33-.12-.04-.17-.06-.27-.1.11-.1.2-.19.3-.28Z"/>
      <path class="cls-1" d="M35.27,85.04v-.98h.11c0,.12.02.25.03.38.26.12.32.3.2.75-.13-.06-.26-.12-.34-.15Z"/>
      <path class="cls-1" d="M34.65,75.24s.08,0,.11.01c-.05-.16-.1-.31-.16-.52.15.05.22.07.24.08.04.2.07.37.1.57-.14.11-.16.38-.01.67-.36-.06-.44-.21-.31-.54.03-.08.02-.17.03-.27Z"/>
      <path class="cls-1" d="M21.82,69.73c.11-.26.21-.53.34-.77.03-.06.2-.05.3-.07.02.03.03.05.05.08-.13.11-.26.23-.41.35.09,0,.17.02.33.03-.2.17-.36.31-.52.44-.03-.02-.06-.04-.09-.06Z"/>
      <path class="cls-1" d="M22.48,67.99c.07.06.13.15.21.18.09.03.2.02.31.08-.09.02-.18.06-.26.05-.15-.03-.25.05-.27.16-.02.08.07.18.11.27-.09.02-.22.06-.44.12.11-.32.19-.58.28-.82,0-.01.05-.02.07-.02h0Z"/>
      <path class="cls-1" d="M35.58,86.11c.02-.24-.08-.34-.35-.28.02-.11.03-.18.04-.27.09.03.15.06.21.08,0,0,.02-.02.03-.03-.1-.11-.19-.21-.29-.32.02-.02.04-.04.06-.06.1.03.21.06.35.1.01.25.03.51.04.77-.03,0-.06,0-.08.01Z"/>
      <path class="cls-1" d="M19.99,77.2c.11.18.22.35.34.54-.2.04-.44.16-.53-.11-.04-.12.06-.29.1-.44.03,0,.06,0,.09,0Z"/>
      <path class="cls-1" d="M34.49,90.63c-.05-.15-.12-.26-.12-.38-.02-.33.06-.57.17-.63.04.14.11.29.11.44,0,.15-.08.31-.16.56Z"/>
      <path class="cls-1" d="M35.26,86.38v-.28c.46.25.54.45.33.89-.12-.07-.24-.13-.35-.2,0-.03.02-.05.02-.08.09.03.19.06.34.11-.01-.13,0-.26-.04-.34-.03-.06-.16-.06-.3-.1Z"/>
      <path class="cls-1" d="M23.1,64.16c.22.1.41.18.59.25-.15.21-.29.26-.46.13-.14-.11-.26-.24-.13-.38Z"/>
      <path class="cls-1" d="M42.65,56.49q.16.18.15.67s-.04.03-.07.04c-.05-.08-.11-.16-.14-.24-.04-.1-.05-.21-.09-.34.03-.02.08-.07.14-.12Z"/>
      <path class="cls-1" d="M69.95,110.38c.08-.04.16-.07.23-.11.01.01.02.03.03.04-.04.05-.07.09-.15.18h.37s0,.08,0,.15c.07,0,.14.02.24.03-.03.04-.05.08-.08.1-.16.09-.55-.13-.66-.39Z"/>
      <path class="cls-1" d="M24.48,61.09c-.21-.06-.41-.11-.62-.16,0-.03,0-.07,0-.1.1-.02.2-.08.29-.06.33.08.33.09.34.33Z"/>
      <path class="cls-1" d="M24.5,61.36c-.13.05-.21.11-.24.09-.12-.06-.22-.15-.32-.23.06-.05.15-.15.18-.13.12.05.22.14.38.27Z"/>
      <path class="cls-1" d="M35.22,87.46c.16.04.3.07.44.12.03.01.06.08.07.12,0,.03-.03.08-.06.1-.15.08-.44-.12-.45-.34Z"/>
      <path class="cls-1" d="M23.86,63.75c-.05.17-.08.27-.13.42-.1-.05-.2-.09-.29-.15-.02-.01,0-.12.02-.13.12-.05.25-.09.4-.14Z"/>
      <path class="cls-1" d="M34.77,82.95c-.11.19-.19.32-.3.52-.02-.22-.04-.37-.05-.52,0-.03.04-.1.06-.09.09.02.18.06.3.09Z"/>
      <path class="cls-1" d="M20.64,76.51c-.05.02-.12.02-.15.05-.08.12-.15.15-.27.04-.12-.11-.14-.21,0-.37.14.1.27.19.41.28,0,0,0,0,0,0Z"/>
      <path class="cls-1" d="M42.31,57.22c-.12-.16-.24-.32-.36-.49.02-.01.04-.03.06-.04.16.09.31.18.42.24-.05.12-.09.21-.13.3,0,0,0,0,0,0Z"/>
      <path class="cls-1" d="M21.33,81.19c-.1.35-.2.7-.3,1.05-.03,0-.06-.02-.09-.03.11-.35.21-.7.32-1.04.03,0,.05.02.08.02Z"/>
      <path class="cls-1" d="M54.82,54.82c.36.22.43.4.32.68-.12-.24-.22-.46-.32-.68Z"/>
      <path class="cls-1" d="M24.37,61.82c-.26-.1-.47-.19-.74-.3.28-.11.63.04.74.3Z"/>
      <path class="cls-1" d="M35.37,63.65c.23-.08.47-.16.72-.25-.04.26-.38.37-.72.25Z"/>
      <path class="cls-1" d="M35.4,80.84c.19.3.15.37-.25.44.08-.14.16-.28.25-.44Z"/>
      <path class="cls-1" d="M35.13,83.46c.08-.1.16-.21.25-.3,0,0,.1.07.15.1-.1.1-.19.2-.29.3-.04-.04-.08-.07-.12-.11Z"/>
      <path class="cls-1" d="M22.49,68c-.01-.13-.04-.25-.04-.38,0-.17.12-.21.44-.13-.05.04-.08.08-.12.09-.15.03-.2.11-.19.26,0,.05-.06.11-.09.16,0,0,0,0,0,0Z"/>
      <path class="cls-1" d="M34.63,94.96c-.22,0-.33-.12-.23-.31.02-.04.09-.06.13-.09.03.05.08.09.09.15.02.07,0,.15,0,.25Z"/>
      <path class="cls-1" d="M27.41,50.95c.14-.03.28-.06.43-.08.02.03.03.05.05.08-.07.08-.14.16-.22.24-.1-.06-.18-.11-.26-.16,0-.03,0-.05,0-.08Z"/>
      <path class="cls-1" d="M34.82,94.2c-.08.07-.14.13-.21.18-.05.04-.11.06-.17.08-.02-.06-.07-.14-.05-.18.02-.06.1-.13.16-.14.08-.01.16.03.27.06Z"/>
      <path class="cls-1" d="M35.47,64.36c.44-.32.5-.32.58.03-.19-.01-.36-.02-.58-.03Z"/>
      <path class="cls-1" d="M21.94,78.69l-.17.75s-.05-.01-.07-.02c.05-.25.11-.5.16-.75h.08Z"/>
      <path class="cls-1" d="M20.27,75.88c.07-.15.1-.29.19-.38.03-.03.19.04.25.06-.13.1-.25.18-.44.32Z"/>
      <path class="cls-1" d="M41.81,40.96c-.13-.21-.26-.41-.39-.62.03-.02.05-.03.08-.05.12.21.25.42.37.63-.02.01-.04.03-.06.04Z"/>
      <path class="cls-1" d="M35.26,83.72c.12.12.25.24.37.36-.03.03-.06.05-.08.08-.04-.2-.36-.15-.35-.38.02-.02.04-.04.07-.06Z"/>
      <path class="cls-1" d="M34.52,95.95c.03.09.09.19.09.28,0,.05-.1.09-.23.19.02-.21.02-.32.03-.44.03,0,.07-.02.1-.03Z"/>
      <path class="cls-1" d="M34.38,95.77c.03-.11.06-.22.09-.33.05.02.11.03.16.05-.03.11-.07.21-.1.32-.05-.02-.1-.03-.15-.05Z"/>
      <path class="cls-1" d="M21.3,74.74q.33-.05.53.26c-.16-.08-.31-.16-.53-.26Z"/>
      <path class="cls-1" d="M41.17,39.95c-.13-.08-.26-.15-.44-.25.31-.14.36.07.47.19,0,0-.01.02-.03.06Z"/>
      <path class="cls-1" d="M52.3,70.52c.08.13.17.27.25.41-.21.08-.23.05-.25-.41Z"/>
      <path class="cls-1" d="M21.1,65.41c-.08.15-.16.3-.23.45-.02-.01-.05-.03-.07-.04.09-.15-.04-.4.24-.46.02.02.05.03.07.05Z"/>
      <path class="cls-1" d="M68.52,89.72c-.14-.16-.27-.32-.41-.48.02-.02.05-.04.07-.06l.41.49-.07.06Z"/>
      <path class="cls-1" d="M34.68,76.59c-.03-.07-.07-.14-.1-.21-.03-.07-.04-.14-.05-.22,0-.02.07-.04.1-.05.03.06.05.12.08.19.02.07.04.14.06.21-.03.03-.06.05-.09.08Z"/>
      <path class="cls-1" d="M35.41,78.93c-.15.04-.3.09-.45.13-.01-.04-.02-.07-.03-.11.15-.04.3-.09.45-.13.01.03.02.07.03.1Z"/>
      <path class="cls-1" d="M34.75,93.82c-.07.03-.17.11-.2.09-.07-.04-.1-.14-.11-.26l.29.1s.01.05.02.07Z"/>
      <path class="cls-1" d="M19.92,76.91c.15-.02.26-.03.43-.05-.09.12-.15.2-.21.28-.07-.07-.14-.14-.22-.22Z"/>
    </g>
  </g>
</svg>