<?xml version="1.0" encoding="UTF-8"?>
<svg id="Layer_2" data-name="Layer 2" xmlns="http://www.w3.org/2000/svg" viewBox="0 0 70.67 102.5">
  <defs>
    <style>
      .cls-1 {
        fill: #000;
        stroke-width: 0px;
      }
    </style>
  </defs>
  <g id="illustrations">
    <g>
      <path class="cls-1" d="M69.93,80.8c-.37-.12-.44-.48-.64-.74-.08-.11-.13-.25-.2-.38-.02-.07-.11-.1-.15-.16-.33-.51-.66-1.02-.98-1.53-.52-.81-1.11-1.56-1.89-2.15-.09-.07-.18-.15-.25-.24-.2-.25-.39-.53-.61-.76-.34-.37-.63-.78-.87-1.22-.1-.18-.18-.36-.29-.52-.13-.19-.37-.3-.38-.59,0-.06-.18-.13-.29-.15-.11-.02-.24.05-.34.03-.22-.05-.48-.08-.65-.22-.28-.22-.5-.52-.75-.79-.02-.02-.02-.06-.03-.1-.02-.07-.02-.17-.07-.22-.11-.11-.23-.21-.36-.31-.36-.3-.72-.61-1.09-.9-.06-.05-.19-.02-.29-.03,0,.1-.02.21.02.3.03.07.11.16.19.17.34.08.53.35.75.58.48.49.94,1,1.41,1.5.1.11.2.23.29.35-.01.03-.03.07-.04.1-.4,0-.79.01-1.19,0-.12,0-.27-.09-.34-.18-.39-.52-.74-1.07-1.13-1.58-.23-.3-.48-.63-.8-.78-.33-.15-.65-.32-.94-.53-.45-.32-.91-.24-1.42-.13.08.16.14.27.19.39.22.48.45.96.83,1.34.17.17.31.37.4.59.11.26.23.5.53.59-.7-.2-1.45-.15-2.1-.56-.63-.41-1.17-.88-1.44-1.62.09-.05.16-.08.17-.08-.12-.05-.35-.07-.39-.18-.26-.57-.96-.81-1.11-1.45,0-.02-.02-.03-.03-.04-.24-.23-.49-.46-.71-.71-.41-.45-.8-.92-1.19-1.38-.21-.25-.44-.5-.61-.79-.19-.34-.51-.36-.82-.45.34.42.74.77.96,1.29.19.45.51.85.83,1.22.44.52.93.99,1.4,1.48.08.08.18.14.25.23.49.62.97,1.25,1.46,1.88-.06.04-.11.07-.16.1.26.17.52.34.77.5-.02.03-.03.06-.05.1-.19-.08-.4-.12-.56-.23-.29-.2-.54-.44-.93-.47-.14-.01-.27-.12-.39-.21-.06-.04-.07-.14-.11-.21-.1-.09-.26-.11-.41-.16-.13-.04-.26-.11-.37-.19-.33-.27-.62-.61-.99-.82-.33-.19-.39-.53-.59-.78,0,0,.02-.02.02-.02.37.21.67.56,1.14.56.03.43.38.2.6.26-.24-.28-.53-.5-.78-.76-.62-.63-1.21-1.28-1.83-1.91-.57-.58-1.16-1.15-1.73-1.73-.52-.52-1.02-1.06-1.54-1.58-.17-.17-.4-.3-.58-.46-.13-.11-.24-.24-.34-.37-.16-.22-.27-.47-.45-.68-.26-.32-.59-.57-1.04-.6.09-.08.18-.12.23-.19.05-.07.09-.19.06-.25-.2-.35-.38-.71-.63-1.01-.69-.84-1.4-1.68-2.14-2.49-1.2-1.32-2.42-2.61-3.63-3.92-.3-.33-.57-.68-.9-1.08.13.03.18.03.22.05.44.14.76.45,1.06.78.19.2.33.45.55.61.41.33.85.61,1.28.91.06.04.16.13.15.16-.08.2.1.21.19.28.04.04.12.05.15.09.21.28.44.55.63.84.43.64,1.06,1.07,1.61,1.58.06.05.09.13.14.19.13.15.24.38.4.42.18.04.28.12.38.23.08.09.15.2.24.29.73.73,1.47,1.46,2.2,2.2.19.2.35.43.55.62.35.33.74.63,1.09.97.46.44.9.9,1.36,1.34.08.07.2.1.3.15l.05-.07c-.19-.27-.35-.56-.58-.8-.61-.67-1.26-1.3-1.87-1.97-.45-.48-.87-.99-1.3-1.49-.16-.18-.32-.37-.5-.52-1.39-1.22-2.6-2.61-3.74-4.06-.35-.44-.68-.89-1.07-1.4.38.13.59.34.77.6.15.22.33.44.53.62.18.16.42.25.6.41.7.61,1.38,1.24,2.07,1.87.19.17.39.32.57.5.22.22.41.48.64.69.21.19.44.35.52.65.01.05.06.09.11.12.3.21.6.42.9.63.02.01.03.04.05.07-.04.04-.08.09-.14.15.07.07.13.13.2.18.32.21.65.39.95.61.19.14.35.26.59.1.03-.02.09.01.13.02-.02.04-.03.1-.06.13-.04.03-.1.03-.17.05.06.05.11.1.18.15-.09.05-.16.09-.16.09.17.19.43.36.49.58.07.27.2.36.48.42-.09-.34-.17-.63-.25-.93.29.22.5.47.75.68.26.23.49.46.65.78.11.23.35.39.53.58l.07-.06s-.02-.1-.04-.14c-.14-.18-.29-.36-.44-.53-.51-.56-1.01-1.12-1.53-1.67-.3-.32-.83-.42-.92-.95,0-.01-.03-.02-.04-.03-.21-.17-.42-.32-.62-.5-.71-.62-1.42-1.23-2.12-1.87-.5-.45-.95-.95-1.45-1.4-.82-.72-1.47-1.63-2.46-2.17-.32-.17-.52-.55-.79-.82-.42-.42-.85-.84-1.3-1.22-.17-.15-.4-.22-.4-.51.52.29,1.04.57,1.55.86-.05-.1-.1-.2-.18-.35.28.07.53.02.65.34.1.24.29.44.47.64.1.11.23.2.35.28.48.33.96.66,1.44,1,.4.28.79.57,1.18.86.18.14.4.22.46.51.04.2.22.38.34.56.02.03.09.04.14.06.12.04.28.03.37.11.38.34.76.68,1.11,1.05.37.38.68.8,1.05,1.18.71.71,1.44,1.4,2.17,2.1.08.08.15.17.23.24.05.04.11.08.16.12.03-.01.06-.03.09-.04-.05-.21-.09-.43-.17-.64-.04-.1-.13-.19-.21-.27-.64-.64-1.29-1.27-1.93-1.91-.57-.56-1.13-1.13-1.69-1.7-.48-.49-.95-.98-1.42-1.47-.06-.06-.09-.19-.14-.19-.34-.02-.48-.31-.71-.48-.44-.31-.58-.97-1.22-1.04-.01,0-.02-.03-.04-.04-.41-.32-.75-.73-1.26-.9-.1-.03-.21-.07-.29-.13-.44-.35-.88-.71-1.32-1.06-.48-.38-.98-.74-1.56-.97-.2-.08-.39-.2-.57-.33-.22-.15-.43-.33-.65-.48-.36-.25-.81-.27-1.16-.57-.35-.31-.78-.53-1.15-.83-.39-.32-.76-.66-1.27-.81-.25-.07-.47-.25-.69-.4-.07-.05-.11-.15-.13-.24-.12-.44.04-.92-.25-1.33-.04-.05,0-.15,0-.23,0-.27.02-.55,0-.82-.02-.29-.06-.58-.1-.87.19,0,.36,0,.53,0,.13,0,.31.05.39-.02.18-.15.36-.34.46-.55.15-.34-.11-.58-.55-.56-.88.05-.96-.03-.94-.92,0-.21,0-.45-.1-.62-.13-.22-.1-.4-.04-.6.02-.06.05-.12.05-.18,0-.46-.02-.92-.03-1.38,0-.2-.02-.41-.01-.61.03-.49.11-.98.12-1.47.02-.84,0-1.68,0-2.53,0-.39,0-.78.01-1.17,0-.18.02-.36.07-.53.13-.4.13-.8.15-1.21.02-.35,0-.71.07-1.06.03-.2.08-.38.02-.59-.05-.17-.06-.36-.03-.53.06-.32.03-.59-.14-.88-.2-.33-.32-.7-.52-1.03-.23-.37-.32-.83-.45-1.25-.17-.51-.29-1.03-.49-1.52-.18-.44-.44-.83-.91-1.04-.22-.1-.36-.1-.43.17-.02.07-.11.14-.18.16-.04,0-.1-.1-.16-.14-.08-.06-.17-.13-.27-.16-.09-.03-.2.02-.29-.01-.37-.12-.47.08-.54.4-.1.48-.21.96-.31,1.44-.15.68-.39,1.34-.36,2.06,0,.19-.1.38-.15.57-.04,0-.07.02-.11.03-.2-.25-.44-.48-.61-.75-.32-.51-.6-1.04-.89-1.56-.1-.19-.2-.38-.28-.57-.22-.5-.42-1-.8-1.41-.04-.05-.04-.15-.05-.22-.04-.25,0-.54-.12-.74-.32-.55-.71-1.04-.89-1.67-.12-.4-.11-.78-.11-1.17,0-.36.1-.72.17-1.07.03-.13.08-.26.14-.38.13-.27.22-.55.11-.86-.04-.11-.06-.23-.04-.34.02-.09.1-.16.16-.24.03.08.1.16.09.24-.02.72-.01,1.44-.08,2.15-.05.6-.14,1.19.02,1.79.12.43.26.62.71.58.08-.21.19-.42.23-.64.08-.38.15-.77.17-1.17.03-.74.02-1.47,0-2.21,0-.79-.04-1.58-.05-2.37,0-.28.02-.57.03-.85.02-.44.05-.87.07-1.31,0-.16-.05-.32-.04-.48.03-.58.07-1.15.12-1.72.01-.13.07-.28.15-.39.13-.16.26-.12.29.08.06.42.09.84.14,1.26.03.28.04.56.08.84.09.59.2,1.17.29,1.76.14.88.27,1.76.41,2.63.09.54.2,1.07.27,1.61.07.56.07,1.13.13,1.69.04.38.12.75.19,1.12.09.48.34.62.83.46.04-.01.09-.01.13,0,.14.01.28.03.46.05.02.07.06.18.1.29.08.22.16.45.25.66.02.04.09.05.14.08.02-.05.07-.11.06-.15-.06-.23-.12-.47-.21-.68-.17-.39-.42-.75-.54-1.15-.14-.47-.17-.96-.25-1.45-.06-.43-.15-.86-.17-1.29-.01-.37-.18-.76.1-1.11.02-.03,0-.1,0-.15-.06-.32-.14-.64-.19-.97-.08-.51-.15-1.03-.23-1.55-.07-.42-.14-.84-.2-1.27-.11-.74-.2-1.48-.31-2.22-.08-.56-.2-1.12-.28-1.68-.05-.36-.07-.73-.1-1.1,0-.03,0-.07-.03-.1-.18-.34-.29-.68-.2-1.09.14-.62-.15-.95-.76-.9-.26.02-.28-.08-.25-.26.04-.28.11-.56.12-.84.02-.52,0-1.05,0-1.57,0-.08.03-.2.08-.24.35-.2.66-.48,1.11-.46.13,0,.27-.02.4-.05.35-.1.53-.39.66-.69.11-.26-.15-.45-.31-.62-.08-.09-.26-.14-.39-.14-.47.02-.93.07-1.46.12,0-.24-.02-.49-.03-.74,0-.23.01-.46-.02-.69-.04-.3-.25-.4-.5-.23-.11.08-.23.23-.25.35-.04.41-.05.83-.03,1.25.02.36.05.36-.31.46-.18.05-.46.09-.5.2-.12.37-.39.33-.65.34-.33.01-.61.12-.83.36-.14.16-.19.35-.05.54.12.17.25.31.51.2.17-.07.38-.04.57-.07.29-.04.57-.08.86-.12.26-.04.51-.07.8-.12-.06.37-.14.67-.16.98-.04.61-.05,1.22-.06,1.84,0,.16-.03.26-.19.34-.25.13-.38.36-.37.64.01.37.06.73.1,1.1.03.27.06.51-.02.8-.2.66-.3,1.35-.43,2.03-.06.28-.13.56-.14.84-.02.5-.26.92-.43,1.4.13.21.1.53-.06.71.01.1.05.19.03.22-.42.42-.23,1.02-.42,1.51-.09.22-.08.48-.13.71-.09.38-.19.75-.29,1.13-.1.37-.04.77-.22,1.14-.1.21-.19.52-.11.72.12.3-.01.33-.21.44-.26.14-.49.37-.49.68,0,.32-.16.55-.31.8-.21.33-.41.67-.58,1.02-.31.65-.58,1.31-.9,1.95-.23.46-.52.89-.74,1.34-.12.25-.26.39-.51.33-.03.13-.06.25-.09.37-.06.2-.11.4-.19.6-.14.32-.16.73-.61.84-.08.02-.16.14-.21.23-.25.39-.44.81-.79,1.15-.48.48-.87,1.06-1.36,1.54-.35.33-.19.92.16,1.08.15.07.33.1.45.21.16.16.25.38.23.63-.01.12-.06.26-.02.37.1.33-.06.54-.29.73-.04.03-.05.1-.06.15,0,.07.02.14.02.18.04.12.11.22.11.32,0,.1-.08.19-.09.3-.03.35-.03.69-.07,1.04-.12,1.18-.25,2.37-.38,3.55-.04.39-.11.77-.13,1.16-.03.45-.03.91-.03,1.36,0,.82-.04,1.63,0,2.45.04.57.19,1.14.05,1.71-.04.18-.11.35-.14.53-.04.22-.09.45-.08.68.01.78.1,1.57.06,2.34-.03.5-.21,1-.38,1.48-.22.62-.25,1.25-.13,1.89.03.15,0,.23-.17.25-.08.01-.16.11-.2.19-.01.02.09.1.1.16.04.19.15.43.07.56-.4.72-.61,1.47-.6,2.29,0,.07-.09.19-.14.19-.65.03-.9.6-1.32.94,0,0,0,.02,0,.02-.1.14-.21.28-.31.42-.11.16-.23.31-.32.47-.1.18-.12.4-.24.55-.44.56-.9,1.09-1.35,1.65-.24.3-.44.64-.68.95-.4.51-.9.92-1.21,1.52-.27.51-.75.9-1.15,1.34-.33.37-.79.66-.8,1.23,0,.06-.05.13-.1.19-.45.53-.91,1.05-1.36,1.58-.04.05-.03.14-.04.21-.31.38-.65.75-.95,1.16-.53.73-1.29,1.28-1.67,2.13-.01.03-.07.05-.1.08-.31.33-.64.64-.93.98-.35.42-.65.89-1.01,1.31-.31.36-.55.74-.63,1.21-.01.07-.07.17-.14.2-.3.16-.51.38-.56.73-.01.09-.06.19-.1.27-.1.2-.21.4-.32.61-.02.04-.03.09-.02.12.04.19.65.7.85.71.31,0,.62,0,.97,0-.18.34.13.81-.27,1.04,0,.16.04.31,0,.42-.16.3-.16.68-.45.92-.04.03-.02.14-.01.21.07.4.25.78.17,1.19-.03.15-.1.3-.12.45-.05.34-.07.69-.11,1.03-.03.21-.16.43-.11.61.09.37.07.71.02,1.08-.05.3-.21.63.05.93.03.03.02.11,0,.15-.04.14,0,.21.15.25.04.01.05.14.07.21-.35.09-.24.29-.11.5-.09.04-.16.07-.31.14.45.11.34.42.37.68-.1.03-.22.04-.3.09-.12.08-.22.19-.3.31-.01.02.13.14.23.24,0,.08-.05.22-.02.34.14.56.1,1.09-.14,1.61-.04.08-.09.17-.08.25.1.7-.03,1.35-.31,1.99-.04.09-.05.19-.04.29.06.73.12,1.47.18,2.2.04.41,0,.8-.07,1.22-.12.66-.08,1.36-.09,2.04,0,.16.08.33.06.49-.09.84-.2,1.69-.31,2.56.16-.04.36.2.43-.1.1-.39.18-.79.24-1.19.1-.7.21-1.4.24-2.11.02-.4,0-.8.05-1.21.09-.72.07-1.45.08-2.18,0-.16-.07-.31-.07-.47,0-.22.03-.44.03-.67,0-.56-.07-1.12-.03-1.67.03-.52.17-1.03.23-1.55.1-.85.18-1.71.26-2.56,0-.08-.03-.16,0-.23.03-.1.09-.19.14-.28.03-.07.1-.14.1-.21,0-.24-.02-.47,0-.71.02-.32.08-.63.11-.95.06-.47.12-.95.17-1.42.01-.12,0-.25,0-.37.13-1.04.22-2.08.4-3.11.12-.69.02-1.42.02-2.13,0-.15-.02-.31-.02-.4-.08-.17-.22-.32-.19-.43.05-.2.17-.4.3-.55.28-.32.52-.65.54-1.1,0-.07,0-.15.03-.21.19-.39.21-.78.08-1.2-.02-.05.03-.15.08-.2.29-.33.6-.65.88-.99.16-.19.35-.39.44-.62.14-.34.22-.66.52-.95.57-.56,1.04-1.23,1.55-1.85.69-.85,1.39-1.7,2.08-2.55.26-.32.55-.61.81-.93.49-.6.96-1.21,1.44-1.81.3-.37.62-.72.93-1.08.45-.52.89-1.03,1.34-1.55.03-.04.06-.1.05-.15-.08-.29.12-.36.32-.47.3-.17.64-.25.84-.6.16-.28.42-.5.63-.75.1-.11.2-.22.29-.34.06-.08.12-.21.18-.22.08,0,.18.09.25.16.05.05.06.13.09.2.19-.13.25-.06.24.14,0,.21-.08.45-.01.63.11.31.1.6.04.91-.02.08.04.19.09.28.21.36.3.73.23,1.16-.05.34-.25.73.13,1.03.03.03.04.1.03.15-.01.5-.02.99-.05,1.49-.04.81-.1,1.61-.15,2.42,0,.13-.03.26-.07.38-.16.42-.23.85-.24,1.31-.01.59.09,1.2-.2,1.76-.02.05-.02.16,0,.17.23.13.02.34.09.51.07.18,0,.42-.02.64-.01.14-.04.28-.07.42-.08.34-.21.68-.25,1.03-.03.29.05.6.06.9.01.33-.09.65.08.98.08.16,0,.39.05.58.15.62.13,1.24-.06,1.84-.06.2.01.26.16.35.1.06.22.17.23.27.03.3,0,.6.01.9,0,.1.03.22.09.29.11.13.13.24.09.41-.05.19-.07.39-.06.59,0,.12.1.25.1.37,0,.33-.03.65-.15.98-.11.33,0,.73,0,1.1,0,.79.04,1.58,0,2.36-.02.49.08,1.01-.25,1.44-.02.03-.02.07-.02.1-.04.41-.06.82-.11,1.23-.05.38-.13.75-.19,1.13-.01.09-.05.19-.02.26.17.44.07.89.06,1.34,0,.21.04.43.06.64,0,.04.01.09,0,.13-.21.34-.06.72-.06,1.07-.01.6.04,1.21.08,1.82,0,.13.1.26.15.4.04.12.13.25.11.37-.06.48-.16.96-.23,1.44-.03.22-.05.44-.07.65-.03.36-.08.71-.09,1.07,0,.09.09.23.17.25.09.02.26-.04.29-.11.1-.24.17-.49.21-.74.08-.55.18-1.11.2-1.67.03-.63,0-1.25-.02-1.88,0-.17-.03-.33-.05-.49-.05-.34-.07-.68.09-.95-.03-.21-.06-.38-.08-.55-.04-.57-.08-1.14-.12-1.72,0-.09,0-.18.02-.26.04-.31.1-.61.13-.92.02-.23-.09-.55.03-.67.24-.25.12-.43.04-.66-.06-.18-.12-.34.12-.5.12-.07.12-.36.13-.55.01-.15-.07-.31-.03-.44.09-.37.2-.73.14-1.11-.02-.14,0-.28.01-.43.03-.6.06-1.19.07-1.79,0-.1-.09-.2-.08-.3.02-.31.11-.61.1-.92,0-.41-.09-.81-.1-1.22-.02-.44.01-.88,0-1.32-.01-.33-.06-.66-.1-.99-.07-.56.16-1.16-.21-1.69-.02-.03,0-.1,0-.16,0-.11.02-.23,0-.34-.16-.92-.08-1.86-.31-2.78-.11-.43-.03-.92-.02-1.37,0-.1.06-.2.09-.31.04-.16.14-.34.1-.49-.05-.22-.01-.41.05-.62.05-.16.09-.35.07-.52-.07-.45.04-.88.14-1.29.26-1.04.26-2.12.42-3.17.08-.52.04-1.06.05-1.59.02-.56.07-1.13.05-1.69-.02-.47-.06-.96-.18-1.41-.11-.41-.09-.82-.11-1.23-.02-.5,0-1,0-1.5-.02-.69-.06-1.37-.06-2.06,0-.35.08-.7.11-1.05.04-.58.04-1.16.09-1.73.05-.48.2-.94.17-1.44-.02-.24,0-.49.03-.73.04-.23.13-.46.2-.69.07-.25.18-.5.2-.76.04-.45.05-.9.05-1.36,0-1.1,0-2.2,0-3.3,0-.39,0-.79,0-1.22.07.12.11.24.2.31.08.07.21.1.32.15.03-.09.07-.17.07-.26.01-.16-.04-.34.01-.48.08-.22.17-.47.34-.6.44-.33,1.02-.35,1.51-.32.51.04,1,.02,1.5-.02.17-.02.36-.05.5.01.33.14.56,0,.8-.19.09-.07.19-.15.29-.17.31-.04.61,0,.93-.05.37-.05.75-.06,1.11-.2.24-.09.55-.04.77-.17.33-.19.62-.25.97-.12.08.03.29-.03.3-.07.05-.22.17-.14.3-.11.08.02.17,0,.26,0,.15,0,.28,0,.42,0,.14,0,.29-.04.4,0,.19.07.35.08.53-.04.18-.13.38-.14.58-.02.15.08.29.18.45.22.56.12,1.05.34,1.51.68.29.21.65.33.97.49.29.15.31.21.24.42.1.2.22.34.24.49.09.87.16,1.75.22,2.62.02.3.08.63-.32.74.1.2.22.36.27.54.05.17.06.35.04.53-.01.16-.11.31-.11.47,0,.21.06.42.05.63-.04.46-.12.91-.17,1.37-.04.4-.05.8-.09,1.19-.08.72-.18,1.44.22,2.11.06-.03.12-.06.17-.09.02.01.04.02.06.03-.05.16-.06.38-.17.47-.15.13-.13.24-.13.39,0,.34.07.7-.01,1.03-.1.39-.03.77-.1,1.15-.05.29.12.59-.08.87-.05.07-.1.29.12.34-.01.06-.02.11-.04.16-.04.08-.13.15-.13.23-.02.51,0,1.03-.12,1.52-.13.52-.21,1.04-.25,1.58-.07,1.01-.05,2.01.06,3.01.05.41.09.83.16,1.24.09.53.18,1.06.3,1.58.02.09.2.17.32.21.05.02.19-.08.2-.13.05-.34.11-.69.09-1.03-.06-.86-.2-1.71-.26-2.57-.04-.56,0-1.13.02-1.7,0-.16,0-.33.02-.49.1-.55.22-1.09.31-1.65.12-.75.2-1.52.33-2.27.04-.22-.05-.53.3-.61-.14-.11-.15-.9.04-1.19.02.12.04.24.07.4.05-.06.08-.1.16-.2.02.2.03.35.05.5,0,.06.02.14.06.17.12.1.26.19.43.32,0-.01.03-.09.06-.18.16.2.27.34.37.48.16.24.28.5.46.72.3.36.64.68.96,1.02.55.56,1.1,1.12,1.64,1.68.52.54.98,1.14,1.56,1.6.7.56,1.33,1.18,1.94,1.82,1.1,1.16,2.18,2.34,3.27,3.51.09.1.22.19.24.31.09.46.18.92.21,1.39.05.98.08,1.97.09,2.95,0,.49,0,.99-.06,1.49-.04.32-.03.65-.14.97-.05.13-.05.28-.05.42,0,.36,0,.73.04,1.09.04.35-.01.69,0,1.04.01.62-.08,1.24-.13,1.85,0,.04,0,.08.02.12.03.13.1.27.07.38-.14.5.14.99-.01,1.49,0,.02.01.05.01.08.04.34.09.68.12,1.01,0,.09-.03.2.01.26.18.24.17.44-.02.59.07.08.15.14.16.2.05.43.11.85.12,1.28.03.92.17,1.84-.1,2.75-.02.05.02.12.04.18.1.28.2.56.13.87-.04.18-.02.37-.05.56-.04.34-.05.7-.17,1.01-.1.28-.13.52-.04.79.09.28.28.52.18.88-.07.26.03.56.03.84,0,.21-.05.41-.03.62.05.8.09,1.59.07,2.39-.01.66-.05,1.33-.04,1.99,0,.57.05,1.15.11,1.72.01.14.12.3.23.39.27.23.47.16.48-.19.01-.3-.02-.6-.04-.91.13-.04.28-.12.45-.14.2-.03.25-.13.24-.31-.02-.29-.03-.58-.05-.88-.08.02-.15.03-.21.05.23-.23.1-.42-.02-.6.18-.19.16-1.83-.03-2.32-.08.07-.16.13-.28.23-.04-.25-.1-.45-.11-.65,0-.1.04-.24.11-.29.23-.14.26-.34.27-.59.01-.26.08-.52.09-.78.01-.42,0-.84-.02-1.26,0-.07,0-.15-.05-.2-.17-.22-.22-.52-.11-.8.01-.04,0-.08,0-.13,0-.14-.01-.27-.02-.41,0-.12-.03-.24-.02-.35.02-.2.08-.39.09-.59.03-.52.04-1.04.05-1.56,0-.37.02-.74,0-1.1-.03-.62-.08-1.23-.12-1.85-.03-.47-.04-.94-.1-1.4-.09-.71-.23-1.41-.33-2.12-.05-.32-.05-.64-.09-.96-.07-.53-.17-1.05-.21-1.58-.04-.54-.03-1.09-.04-1.64,0-.17-.03-.33-.03-.5,0-.33.04-.67.05-1,0-.2,0-.4,0-.68.08.11.11.15.15.2.16-.16.07-.29,0-.44-.06-.11-.1-.25-.11-.39-.02-.33,0-.66-.03-.98-.04-.38-.14-.75-.17-1.13-.05-.5-.06-1.01-.08-1.51-.01-.25-.02-.5-.03-.75,0-.16-.02-.32-.03-.49.02,0,.04-.01.06-.02,1.11,1.3,2.22,2.6,3.36,3.95.23-.46.57-.13.92-.2-.16-.06-.24-.1-.33-.13.12-.13.23-.25.37-.4.05.07.12.13.16.21.16.31.38.56.68.74.11.06.22.13.3.22.69.71,1.34,1.45,2.06,2.12.5.47.65,1.01.61,1.65-.01.18-.02.38.02.56.09.36.23.7.35,1.05.02.07.02.15.03.22-.02,0-.04,0-.07,0-.12-.32-.24-.64-.36-.98-.02.04-.05.07-.04.09.02.45,0,.9.07,1.35.05.36-.02.74-.02,1.11,0,.41.02.83.03,1.24,0,.26.05.52-.09.77-.08.15-.08.36-.09.54-.01.25,0,.5,0,.75.01.76.01,1.53.05,2.29.02.48.27.91.2,1.43-.05.35.08.71.12,1.07.04.39.06.79.12,1.18.05.35.07.35-.28.36.46.07.39.42.4.72,0,.15-.02.3,0,.45.09,1.4.22,2.8.28,4.21.06,1.29.04,2.59.05,3.88,0,.04-.03.09-.05.13-.04-.02-.11-.04-.12-.07-.06-.24-.12-.49-.15-.73-.02-.14.03-.3.02-.44,0-.22-.06-.44-.06-.66,0-.36.06-.72.05-1.09,0-.55-.05-1.09-.07-1.59-.08,0-.18.01-.27-.02-.2-.09-.38-.21-.31-.48.1-.37-.12-.69-.2-1.03,0-.03-.1-.04-.18-.07.07-.16.15-.31.21-.47.01-.03-.01-.08-.01-.13,0-.11-.02-.22,0-.33.05-.37.14-.73.17-1.1.02-.28-.07-.56-.08-.84,0-.15.06-.3.1-.43-.04-.08-.11-.16-.11-.25-.01-.41,0-.82-.01-1.23-.03-.7-.08-1.4-.12-2.1-.04-.65-.08-1.31-.13-1.96-.02-.31-.13-.62-.11-.92.03-.44.11-.87-.04-1.32-.09-.28-.06-.61-.07-.91-.02-.4-.11-.83,0-1.19.12-.39,0-.75,0-1.11,0-.54-.13-1.08-.25-1.6-.15-.63-.31-1.27-.73-1.79-.5-.62-1-1.22-1.5-1.83-.11-.14-.25-.27-.09-.42-.22-.45-.58-.57-1.03-.45-.11.03-.22.12-.28.21-.15.21-.27.44-.4.67-.03.06-.06.15-.04.2.08.19.16.4.4.46.1.03.21.05.28.11.25.24.51.48.72.76.46.59.99,1.12,1.39,1.77.26.44.34.89.43,1.36.05.23.07.47.1.71.03.26.07.52.09.78.03.35-.06.72.17,1.05.08.12.05.33.04.5-.01.19-.11.39-.09.57.04.35.16.69.23,1.04.04.25.07.51.06.77-.02.51-.08,1.03-.09,1.54-.01.43,0,.86.03,1.29.01.2.16.42.12.59-.14.51-.09,1.02,0,1.5.13.75.1,1.51.12,2.26.02.75,0,1.51-.02,2.27,0,.23-.03.46-.02.69.06.94.15,1.88.21,2.82.05.68.05,1.37.3,2.02.08.2.13.49.28.57.31.15.67.29,1.08.13.02.14.05.26.04.39-.02.26-.07.51-.09.77-.02.38.06.45.42.33.09-.03.16-.16.21-.26.07-.17.15-.34.16-.52.01-.16-.09-.33-.09-.5,0-.39-.11-.79.09-1.18.06-.12.04-.33-.03-.46-.2-.41-.15-.84-.16-1.26-.01-.67,0-1.33,0-2,0-.22-.01-.43,0-.65.02-.29.11-.59-.09-.86-.03-.04-.04-.12-.04-.18-.03-.52-.05-1.04-.08-1.55-.06-1.09-.12-2.19-.18-3.28-.01-.26,0-.53,0-.79-.03-.65-.09-1.29-.1-1.94,0-.82.04-1.65.05-2.47.02-1.16,0-2.31.05-3.47.04-.98-.18-1.91-.37-2.87.14.11.39.1.35.39.26-.17.42.02.59.17.19.16.36.34.55.5.31.27.61.53.93.78.23.18.47.36.74.49.51.25,1.07.21,1.62.15.19-.02.4,0,.55-.08.53-.3.59-.83.16-1.26-.58-.57-1.15-1.14-1.74-1.7-.29-.28-.61-.52-.92-.78-.2-.17-.41-.33-.59-.52-.17-.17-.32-.38-.49-.56-.54-.55-1.09-1.1-1.63-1.64-.06-.06-.11-.13-.16-.2.4-.18,1.19,0,1.56.34.45.41.92.79,1.36,1.2.34.32.66.66.98,1,.46.48.9.97,1.36,1.46.02.02.05.04.07.04.38.03.49.41.74.6.3.23.57.5.94.63.07.02.1.12.15.18.02.02.03.05.05.06.19.12.39.24.58.35.16.09.32.17.47.25l.04-.06c-.04-.05-.08-.12-.13-.16-.36-.26-.76-.49-1.09-.79-.77-.7-1.52-1.41-2.25-2.15-.72-.72-1.4-1.48-2.09-2.22-.06-.06-.11-.13-.16-.19.12-.04.22-.01.32,0,.18.01.38.07.53,0,.21-.08.38-.07.53.08.35.35.7.71,1.04,1.07.03.04,0,.14-.01.21.41.46.99.79,1.31,1.38.09.17.27.3.41.45.33.37.63.77.99,1.11.45.43.95.82,1.43,1.23.08.06.19.08.28.12-.15-.19-.32-.33-.46-.49-.08-.09-.09-.23-.17-.31-.53-.55-1.11-1.05-1.6-1.63-.74-.88-1.42-1.81-2.13-2.71-.06-.08-.1-.17-.16-.27.29-.08.54-.24.79-.02.23.2.46.42.67.65.28.31.51.67.82.95.31.28.37.76.8.93.03.01.05.07.07.11.16.26.3.53.48.77.29.38.6.73.92,1.12-.1.03-.18.05-.19.06.12.15.25.29.36.45.05.07.06.17.1.25.1.2.31.22.46.05.04-.04.14-.08.19-.05.17.08.34.19.51.28,0,.23.13.28.33.23.28-.07.54-.02.82.13-.09.02-.16.04-.3.08.47.06.86.11,1.28.16.2.34.37.76.91.87-.21.19-.1.33-.03.51.12.3.26.62-.05.92-.05.05-.09.15-.09.22.04.39.09.78-.03,1.17,0,.03,0,.07.03.1.09.15.18.29-.07.37-.03,0-.06.09-.05.14.06.32.08.63,0,.96-.04.19.12.42.12.64.01.51,0,1.03-.02,1.54-.02.39-.1.77.42.89.06.02.1.12.16.17.03.02.08.02.12,0,.03,0,.06-.06.05-.08-.02-.17-.04-.34-.09-.5-.03-.09-.13-.15-.2-.23.05-.04.1-.08.15-.12-.02,0-.05,0-.07,0-.03-.28-.08-.55-.09-.83-.03-.5-.05-1.01-.04-1.52,0-.79.03-1.59.05-2.38,0-.09-.02-.18-.04-.31.19-.21.06-.5.04-.78-.03-.27-.1-.54-.15-.81l.07-.03c.12.23.23.47.35.7.05.09.1.19.17.27.05.05.14.1.2.09.06-.01.13-.09.15-.16.04-.13.07-.28.08-.42,0-.05-.02-.15-.05-.16ZM1.48,83.07s-.05,0-.08,0c-.03-.35.04-.68.12-1.02.04,0,.08.01.12.02l-.16,1.01ZM16.63,86.16c-.05.2-.1.39-.15.59-.07.24.05.38.23.52-.18.03-.37.02-.34-.21.03-.31.12-.62.18-.93.03,0,.06.01.09.02ZM29.34,40.44c0,.06-.14.15-.19.13-.25-.09-.48-.21-.75-.34-.12.15-.22.32-.35.45-.07.07-.18.11-.28.12-.33.04-.65.07-.98.1-.06,0-.15,0-.19-.03-.35-.31-.73-.23-1.11-.11-.2.06-.4.17-.57.28-.81.52-1.68.65-2.63.51-.37-.05-.77.08-1.16.13-.43.04-.86.08-1.29.12-.06,0-.14.02-.17.06-.21.22-.39.16-.57-.03-.02-.02-.05-.02-.09-.03-.08.34-.3.3-.57.22-.21-.06-.37.06-.46.27-.04.1-.11.2-.16.3l-.1-.03c0-.27-.02-.54,0-.8.05-.58.11-1.15.2-1.72.06-.35.03-.68,0-1.02-.02-.27.1-.55.14-.83.09-.71.14-1.43.25-2.13.09-.55.22-1.1.37-1.63.13-.5.36-.97.45-1.47.08-.43.01-.88.05-1.31.03-.29.08-.59.2-.84.3-.63.64-1.25.97-1.86.09-.17.23-.33.34-.49.09-.14.17-.28.24-.43.06-.13.11-.26.16-.39.1-.25.24-.5.29-.76.08-.4.27-.73.51-1.04.17-.21.32-.43.47-.65.03-.04.07-.1.06-.14-.05-.36.24-.53.41-.77.37-.5.75-1,1.13-1.5.03-.04.17-.07.19-.05.24.27.47.54.69.83.2.26.37.54.54.83.09.16.19.34.18.51-.02.38.18.65.34.95.21.4.4.81.62,1.2.17.32.39.61.55.94.45.94,1.3,1.58,1.85,2.44.09.14.18.36.14.51-.31,1.08-.16,2.19-.18,3.28,0,.58.01,1.17.04,1.75,0,.14.1.28.11.42.01.22-.03.44-.02.65.02.3-.17.6.03.89.01.02.02.05.02.08-.09.48.19.91.21,1.37,0,.06.09.11.18.21-.03.26-.06.57-.11.88ZM33.38,30.8c-.08.21-.23.36-.46.39-.1.01-.2,0-.28-.04-.09,0-.18.02-.27.03-.53.07-1,.53-1.11,1.04-.04.17-.12.33-.16.5-.04.16-.09.33-.09.49,0,.5.03,1.01.06,1.51.02.39.07.78.1,1.16.07.95.13,1.9.21,2.84,0,.1.08.23.16.28.3.18.42.11.42-.24,0-.53-.04-1.07-.02-1.6.02-.74.09-1.48.11-2.21.03-.68.02-1.36.04-2.04,0-.16-.03-.37.28-.34-.17-.25-.15-.5,0-.6.17-.11.66-.03.7.13.07.3.15.61.15.91,0,.33-.12.66-.15,1-.02.22.03.45.04.68,0,.15-.02.3-.05.44-.05.29-.14.57-.17.86-.03.27-.03.55.02.81.02.09.24.14.37.22.06.04.11.09.16.14-.05.04-.1.09-.15.11-.33.12-.38.16-.35.55.02.23-.08.46.06.7.15.26.08.33-.3.35.05.34.1.68.15,1.02h.09c.05-.08.1-.17.15-.25.16.1.15,1.57,0,2.24-.03,0-.05,0-.08.01-.02-.21-.03-.42-.06-.63-.01-.08-.07-.15-.11-.22l-.08.03c-.02.07-.02.15-.06.19-.06.07-.17.17-.21.16-.64-.28-1.28-.58-1.91-.87-.05-.02-.1-.05-.17-.09.11-.09.16-.13.2-.17,0-.02,0-.03,0-.03-.47-.49-.51-1.09-.52-1.73,0-.67-.12-1.35-.16-2.02-.03-.5,0-1,0-1.49,0-.39-.02-.78-.01-1.17,0-.22.02-.44.09-.65.03-.11.19-.17.27-.28.08-.11.18-.24.18-.37,0-.25-.05-.49-.08-.74,0-.02,0-.04-.01-.05-.26-.17-.08-.4-.01-.53.19-.38.04-.75-.03-1.09-.15-.73-.23-1.43.04-2.16.17-.48.22-1.01.32-1.52,0-.04,0-.1.02-.12.28-.32.17-.71.23-1.07,0-.05,0-.11.02-.16.03-.11.07-.21.11-.32.09.09.25.16.26.26.05.35.36.49.51.75.05.1.1.19.15.29.08.2.17.4.23.61.1.29.19.59.27.88.03.09.06.19.08.28.12.1.2.25.19.4,0,.09,0,.17,0,.26.1.13.2.25.29.38.4.56.57,1.24.32,1.91ZM46.92,84.1c.07.73.15,1.47.22,2.2-.04,0-.08,0-.12,0-.08-.73-.21-1.46-.19-2.19.03,0,.06,0,.09,0ZM54.53,85.02c0-.46,0-.9.16-1.32.08.63.02,1.03-.16,1.32ZM54.83,83.27s-.09,0-.14,0l.05-.55h.09v.56ZM35.84,49.42c.26.1.57.2.74.41.2.25.38.44.7.54.18.06.31.3.43.48.14.21.24.44.55.25.03-.02.11,0,.14.03.22.22.49.4.52.75,0,.07.12.12.18.19.18.24.36.48.54.73.2.27.39.54.58.81-.33.12-.91-.05-.97-.39-.08-.46-.46-.61-.7-.88-.24-.26-.57-.35-.93-.16-.07.04-.22,0-.29-.07-.22-.19-.42-.41-.62-.62-.01-.01-.03-.02-.04-.04-.35-.65-.99-1.06-1.39-1.68-.12-.18-.34-.29-.53-.45.39-.08.76-.02,1.11.11ZM35.05,50.01c.07.09.12.2.14.32.09.39.43.58.66.86.08.09.17.19.23.29.23.43.61.73.96,1.06.35.33.66.71.97,1.07.41.48.79.98,1.2,1.45.85.96,1.72,1.91,2.58,2.87.16.18.35.33.51.51.26.3.5.61.75.91.24.28.5.55.74.83.17.2.32.42.48.64-.04.03-.08.07-.13.1-.43-.4-.86-.81-1.3-1.2-.83-.74-1.62-1.52-2.36-2.36-.41-.47-.96-.8-1.42-1.23-.35-.33-.66-.7-.97-1.05-.4-.46-.81-.91-1.19-1.39-.21-.27-.39-.57-.54-.87-.11-.23-.24-.4-.59-.38.11-.08.15-.11.19-.14-.55-.8-1.02-1.65-1.26-2.63.12.12.25.22.35.35ZM50.26,71.68c-.2-.22-.39-.44-.59-.66-.6-.64-1.21-1.28-1.81-1.93-.36-.39-.73-.78-1.08-1.18-.1-.11-.19-.24-.24-.38-.14-.37-.56-.37-.79-.63-.18-.21-.37-.4-.55-.6-.23-.26-.46-.52-.68-.79-.09-.11-.17-.23-.25-.35,0,0-.02.05-.05.14-.19-.21-.36-.41-.54-.61-.41-.44-.83-.87-1.25-1.31-.61-.64-1.23-1.28-1.84-1.93-.45-.48-.9-.96-1.34-1.45-.29-.31-.59-.62-.87-.94-.44-.5-.86-1.02-1.33-1.5-.46-.48-.96-.92-1.44-1.38-.13-.12-.22-.27-.34-.41-.18-.21-.36-.42-.54-.62l-.07.04c0-.11.02-.23.03-.37.07.03.12.05.19.08.02-.07.03-.13.05-.23.11.04.22.06.3.12.61.51,1.1,1.13,1.55,1.78.12.17.3.32.38.51.14.33.54.46.58.86,0,.06.14.1.21.16.1.1.19.21.28.32.03-.01.06-.03.09-.04-.08-.19-.14-.4-.25-.58-.28-.46-.65-.88-.88-1.36-.3-.62-.75-1.08-1.25-1.52-.03-.03-.06-.06-.07-.1-.15-.48-.55-.75-1.04-.69-.2.02-.3-.03-.36-.25-.11-.43-.2-.86-.18-1.31.03-.75.07-1.5.11-2.25,0-.17,0-.35,0-.58.19.51.4.96.52,1.44.05.19.07.4.18.57.2.3.44.58.65.88.25.38.47.77.71,1.15.06.1.14.18.21.28.1.14.37.15.29.45-.02.08.2.25.34.34.37.25.46.68.69,1.02.02.03.02.08.04.09.24.13.32.38.45.59.14.23.28.45.43.68-.11.09-.18.15-.3.25.25.53.5,1.07.77,1.61.06.12.15.22.23.32.48.57.95,1.14,1.45,1.69.36.38.75.74,1.16,1.05.51.39.87.92,1.28,1.4.29.33.58.65.85.99.29.35.55.73.85,1.08.11.13.25.2.19.4,0,0,.08.03.15.06-.05.07-.1.13-.16.2.16.19.32.38.48.57l.07-.02c-.07-.17-.15-.33-.23-.5.33.07.56.24.73.54.11.2.3.38.48.52.25.2.45.41.62.7.21.37.53.69.81,1.03.63.75,1.27,1.49,1.89,2.24.06.07.07.17.1.26-.03.02-.06.03-.09.05ZM54.99,73.53c.16.17.27.4.42.58.11.12.26.2.38.3.21.17.42.35.61.53.55.53,1.06,1.09,1.63,1.6.58.52,1.2.98,1.79,1.48.17.14.32.3.47.45-.09.23-.23.33-.45.34-.22.01-.44.07-.66.08-.09,0-.19-.07-.28-.11.07-.06.13-.15.21-.19.15-.07.31-.12.48-.19-.24-.19-.97-.22-1.21-.04-.13.1-.21.1-.35.02-.45-.26-.83-.57-1.07-1.04-.03-.06-.13-.08-.21-.11-.14-.05-.32-.06-.42-.15-.24-.22-.44-.48-.67-.71-.18-.17-.39-.31-.57-.48-.08-.08-.11-.21-.16-.33-.03-.08-.04-.18-.09-.24-.47-.52-.95-1.04-1.43-1.55-.12-.12-.26-.21-.38-.33-.18-.19-.35-.39-.54-.58-.17-.18-.32-.42-.53-.49-.42-.16-.58-.46-.6-.85-.02-.26-.15-.39-.35-.52-.2-.14-.35-.34-.52-.51-.7-.75-1.4-1.51-2.11-2.26-.69-.74-1.4-1.47-2.07-2.22-.59-.65-1.12-1.35-1.71-2-.61-.67-1.27-1.3-1.87-1.98-.16-.18-.37-.29-.53-.45-.44-.46-.86-.94-1.29-1.4-.07-.08-.17-.12-.25-.19-.44-.33-.77-.75-1.04-1.24-.19-.35-.43-.67-.63-1.02-.05-.08-.06-.21-.03-.3.03-.08.15-.12.17-.14.19.25.33.46.5.63.74.73,1.48,1.46,2.24,2.16.46.43.97.8,1.45,1.21.79.68,1.59,1.35,2.36,2.05.27.25.45.59.7.87.25.28.53.54.8.82.4.42.8.84,1.2,1.26.13.14.27.27.41.4.22.19.46.37.66.58.19.2.46.37.35.73-.01.04.05.11.09.16.41.46.83.91,1.25,1.37.05.06.11.11.19.18-.05.05-.09.08-.18.17.24.1.46.19.67.27,0,.02-.01.05-.02.07-.07,0-.13-.01-.28-.02.23.17.4.3.57.43l.05-.04c-.02-.11-.04-.21-.05-.31.11.09.23.18.38.3-.12.05-.19.08-.2.09.07.16.14.31.21.45.02.05.06.1.1.12.56.27.88.79,1.31,1.2.38.37.75.75,1.11,1.14ZM59.2,72.38c-.49-.61-.97-1.23-1.48-1.88.19-.07.3-.11.43-.15v-.3c1.01.63,1.52,1.64,2.18,2.51-.41.21-.87.15-1.13-.18ZM66.71,79.14c-.22-.05-.46-.03-.69-.06-.08,0-.15-.06-.23-.1.02-.04.06-.11.05-.12-.1-.09-.22-.15-.31-.24-.46-.46-.94-.9-1.35-1.39-.35-.42-.59-.92-.92-1.36-.42-.57-.89-1.1-1.32-1.66-.16-.2-.29-.42-.4-.65-.09-.18,0-.3.22-.32.85-.09,1.31.19,1.73.95.2.36.51.67.82.96.48.46.99.88,1.51,1.3.41.34.74.71.98,1.2.18.38.5.7.76,1.05.13.18.27.35.44.57-.48.08-.87-.03-1.27-.12Z"/>
      <path class="cls-1" d="M30.03,84.2c.19-.05.25.04.27.22.04.38.1.76.15,1.13,0,.04.03.09.01.13-.17.53-.01,1.05.06,1.57.01.08.05.15.08.22.08.18.15.34.07.56-.04.12-.02.3.04.41.23.45.21.95.24,1.43.04.56.02,1.12.06,1.67.05.85.14,1.7.19,2.56.04.73.06,1.46.07,2.19.01.49,0,.99.02,1.48.02.46.1.91.13,1.36.01.2-.03.41-.04.61-.01.17.08.28.24.29.15,0,.3,0,.3-.23,0-.19.07-.38.08-.58,0-.13-.07-.26-.07-.39.05-1.06.14-2.12.17-3.18.02-.8-.03-1.6-.05-2.4-.04-1.11-.12-2.22-.11-3.33.01-1.17.11-2.33.16-3.5,0-.2-.02-.39-.03-.63.13-.09.17-.57.01-.75-.03-.04-.07-.14-.06-.15.3-.2.03-.41.02-.61-.02-.36,0-.72,0-1.11.06.05.11.08.21.15-.03-.29-.06-.53-.09-.77-.02,0-.04,0-.07,0,.04-.07.1-.13.1-.2.06-1.08.13-2.17.16-3.25.05-1.42.06-2.84.09-4.27,0-.19-.02-.36-.15-.54-.11-.15-.08-.41-.09-.62,0-.64.02-1.28.02-1.92,0-.39-.01-.78-.03-1.17,0-.18.07-.24.23-.25.09,0,.18-.02.27-.01.35.01.39.09.48.44.25,1.01.29,2.05.33,3.08.03.81-.03,1.62-.04,2.42-.02.95-.02,1.91-.05,2.86-.02.63-.09,1.26-.12,1.89-.01.22,0,.44,0,.66-.02.51-.05,1.02-.07,1.54,0,.27.03.55,0,.82-.04.44-.15.87-.16,1.31-.01,1-.02,2.01.06,3.01.06.69.12,1.36.04,2.05-.04.35.02.7.04,1.06,0,.03.01.06,0,.08-.18.27-.11.58-.12.87-.02.37-.08.74-.11,1.1-.03.56-.04,1.12-.07,1.68-.04.82-.08,1.63-.14,2.44-.05.64-.15,1.27.06,1.91.02.07.02.18-.02.25-.11.19-.05.29.15.32.43.07.86.24,1.3,0,.06-.03.16-.02.24-.02.65.02,1.29.04,1.94.06.17,0,.35.04.5,0,.62-.17,1.26-.19,1.9-.16.45.02.9.09,1.34.19.48.11.95.26,1.45.2.1-.01.2-.02.29,0,.58.1,1.16.22,1.74.32.3.05.6.1.9.12.8.07,1.61.03,2.38.21,1.71.39,3.42.08,5.13.21.4.03.79.07,1.19.09.86.04,1.72.08,2.58.1.12,0,.24-.05.36-.09.61-.24,1.25-.33,1.9-.39.45-.04.89-.21,1.33-.37-.58.12-1.13.11-1.65-.26.3.02.57.05.84.06.32.01.63,0,.91-.21.11-.08.31-.04.47-.07.17-.03.33-.07.5-.11,0-.05.02-.1,0-.14-.12-.6-.11-1.21-.15-1.82,0-.13-.08-.26-.12-.39-.02-.07-.05-.15-.05-.23,0-.6,0-1.19-.02-1.79-.02-.94-.03-1.88-.07-2.82-.01-.27-.11-.53-.17-.8,0-.03-.04-.08-.03-.1.23-.43,0-.87,0-1.31.01-.44-.04-.89-.11-1.33-.14-.92-.22-1.83-.26-2.76-.04-.94-.07-1.9-.38-2.81-.06-.18-.1-.35-.2-.52-.11-.19-.08-.46-.11-.69-.02-.17-.05-.33-.07-.5h-.09c-.02.15-.03.3-.05.45-.06.3-.14.6-.19.91-.02.12.02.24.03.37.03.51.05,1.03.09,1.54.03.41.04.83.15,1.22.14.49.13.99.14,1.48,0,.07-.03.15-.05.22-.07-.03-.14-.04-.2-.09-.14-.12-.23-.17-.28.08-.04.18-.15.34-.22.51-.03,0-.06-.02-.08-.03.01-.06.01-.12.03-.18.13-.34.16-.68.07-1.03,0-.03,0-.07,0-.1.15-.37-.01-.72-.06-1.08-.05-.41-.21-.81-.14-1.24.04-.23-.03-.49-.06-.73-.01-.08-.07-.17-.13-.22-.33-.27-.39-.65-.25-1.04.13-.35.14-.74.26-1.1.1-.3.22-.63.44-.85.2-.21.52-.32.81-.39.1-.03.31.18.4.32.12.19.17.42.27.63.06.13.18.23.24.35.06.12.1.27.11.4.04.31.05.63.09.95.02.13.05.27.1.39.15.32-.02.56-.18.8-.03.05-.06.11-.06.16.03.72.05,1.44.12,2.15.05.48.19.95.26,1.43.1.7.2,1.41.25,2.12.05.83.02,1.67.05,2.5.04.84.14,1.67.17,2.5.04,1.05.02,2.11.05,3.17,0,.36.07.73.1,1.09.01.16.08.22.26.21.39-.01.78.03,1.16.01.35-.02.7-.09,1.05-.15.39-.07.78-.17,1.18-.21.56-.04,1.13-.03,1.7-.05.36-.01.71.05,1.07-.09.24-.09.56-.02.84,0,.39.01.79.11,1.16.03.22-.05.4-.07.68.04-.19.08-.33.14-.51.21.2.05.37.1.53.14,0,.02,0,.03,0,.05-.3.02-.59.03-.89.06-.32.04-.65.11-.97.13-.2.02-.4-.01-.59-.03-.4-.05-.79-.13-1.19-.14-.33-.01-.66.04-.99.08-.13.02-.27.07-.38.15-.22.14-.43.03-.64,0-.08-.01-.16-.05-.23-.04-.97.12-1.95.15-2.89.47-.07.02-.14.06-.18.1-.21.2-.47.11-.71.13-.09,0-.19,0-.26.04-.35.25-.76.25-1.16.3-.71.09-1.42.19-2.08.28.06.01.18.03.3.06,0,.01,0,.02,0,.03-.15,0-.31,0-.46,0-.36.01-.74-.04-.94.39-.02.05-.15.09-.23.09-.95.04-1.9.11-2.85.11-.84,0-1.67-.04-2.51-.08-.42-.02-.84-.11-1.27-.11-.64,0-1.28.09-1.92.11-.31.01-.62-.04-.92-.06-.05,0-.11,0-.17,0,0,.03-.01.05-.02.08.17.05.33.1.5.15,0,.01,0,.03,0,.04-.34-.03-.67-.06-1.01-.08-.51-.03-1.01-.02-1.52-.06-.3-.02-.6-.1-.9-.15-.37-.06-.74-.12-1.12-.16-.67-.08-1.34-.14-2.01-.22-.08,0-.16-.08-.22-.11-.21.02-.41.05-.62.05-.55,0-1.09-.08-1.63-.2-.21-.05-.42-.04-.63-.06-.9-.06-1.81-.11-2.71-.19-.39-.03-.78-.11-1.16-.19-.21-.04-.37.03-.5.18-.16.2-.35.28-.61.23-.18-.04-.38,0-.59,0,.13-.4-.15-.83-.51-.87-.17-.02-.34-.03-.5,0-.07.01-.18.12-.18.18.02.18.07.36.13.53.03.07.12.13.19.15.6.13,1.2.25,1.8.37.23.05.48-.09.69.1.01.01.09-.05.14-.08.12-.08.23-.16.35-.25.02.02.04.04.07.05-.03.09-.05.17-.08.27.17.06.19.12.04.27-.28.28-.64.37-.99.38-.7.03-1.41.08-2.09-.03-.69-.11-1.33-.43-1.9-.87-.04-.03-.07-.17-.04-.2.12-.13.24-.31.39-.35.21-.05.45-.01.66.05.21.06.27,0,.31-.19.03-.12.09-.23.14-.35-.23.01-.24-.18-.24-.35-.02-.83-.03-1.66-.06-2.5-.02-.64-.08-1.29-.09-1.93,0-.76.03-1.52.04-2.28.01-.83.11-1.67-.01-2.48-.09-.64-.07-1.32-.44-1.91-.28-.45-.62-.83-1.07-1.1-.08-.05-.16-.07-.23-.13-.46-.4-.95-.38-1.48-.17-.88.35-1.61.91-2.16,1.68-.36.5-.38,1.09-.42,1.66-.04.73-.03,1.46-.03,2.19,0,.71,0,1.42-.02,2.13-.01.6-.07,1.21-.07,1.81,0,.5.05.99.05,1.49,0,.17-.11.35-.17.52-.07.18-.15.35-.22.54-.06.17-.16.2-.31.11-.13-.07-.26-.15-.38-.23-.04-.02-.06-.09-.06-.14.04-.65.07-1.3.13-1.95.05-.54.14-1.07.19-1.61.1-1.02.2-2.04.28-3.05.04-.51.05-1.01.06-1.52.01-.66-.03-1.32.02-1.98.06-.83.38-1.55,1.05-2.08.08-.06.16-.11.25-.15.8-.4,1.64-.61,2.54-.55.31.02.62-.06.89.17.03.03.19-.1.33-.18-.27-.22-.51-.35-.67-.54-.5-.59-1.21-.88-1.82-1.3-.33-.22-.72-.4-1.14-.17-.38.21-.73.46-.83.92,0,.04-.04.07-.08.1-.52.38-.7.97-.88,1.55-.06.21-.13.42-.16.64-.03.18,0,.37-.02.55-.06.42-.17.85-.2,1.27-.04.64-.03,1.29-.03,1.93-.01.83-.02,1.66-.03,2.49-.01.79-.03,1.59-.05,2.38,0,.21-.04.41-.12.62v-2.78c-.12.22-.26.43-.36.65-.05.11-.05.24-.02.37.05-.13.1-.27.16-.4.04.01.08.02.12.04-.06.33-.11.65-.17.98,0,.04-.06.1-.05.11.21.25-.06.4-.11.6-.08.31-.12.63-.11.95.01.5.07,1.01.11,1.51,0,.04.03.09.01.13-.14.4-.27.8-.43,1.19-.03.08-.16.13-.24.19-.03-.08-.09-.15-.1-.23-.03-1.1-.07-2.21-.06-3.31,0-.42.13-.84.16-1.27.02-.27-.04-.54-.04-.81,0-.2.06-.4.07-.6.04-1,.06-1.99.1-2.99.02-.48.07-.96.09-1.44.01-.41-.02-.82.15-1.2.01-.02.01-.05,0-.08-.22-.78.14-1.47.34-2.19.16-.59.4-1.15.87-1.56.33-.29.66-.58,1.04-.81.31-.18.67-.29,1.02-.38.22-.06.46-.05.68-.03.45.04.92.05,1.35.17.45.13.91.32,1.3.58.71.48,1.37,1.03,2.07,1.57,0,0,.04-.04.04-.07-.05-.35-.09-.7-.18-1.04-.05-.19-.07-.34.06-.49h0ZM30.03,87.5c-.05-.36-.1-.67-.14-.97,0-.04-.05-.07-.08-.1-.59-.57-1.16-1.15-1.76-1.7-.31-.28-.7-.44-1.14-.49.02.07.07.15.05.16-.2.15-.04.2.07.28.45.38.9.77,1.35,1.16.23.2.41.44.6.68.29.36.68.63,1.07.98Z"/>
      <path class="cls-1" d="M30.04,84.19c-.26.03-.38-.13-.44-.34-.09-.29-.29-.54-.23-.87,0,0,0-.02,0-.03-.15-.39-.27-.79-.46-1.16-.15-.28-.38-.52-.58-.78-.03-.03-.07-.07-.07-.1-.03-.28-.23-.43-.41-.61-.08-.08-.12-.2-.19-.29-.05-.07-.1-.14-.16-.2-.18-.14-.36-.28-.57-.44.1-.05.14-.08.24-.13-.04-.01-.06-.02-.09-.03-.35-.12-.7-.23-.96-.53-.07-.08-.18-.13-.35-.11-.33.03-.67-.09-1-.17-.04-.01-.07-.12-.12-.22.3.05.53.09.82.13-.25-.38-.67-.49-1.03-.37-.11.16-.17.29-.26.37-.17.15-.31.38-.6.29-.04-.01-.16.06-.17.11-.22.75-.78,1.26-1.26,1.83-.45.54-.92,1.07-1.28,1.66-.29.47-.45,1.03-.64,1.56-.05.13-.02.3-.02.45,0,.06,0,.14-.03.18-.37.49-.32,1.1-.5,1.65-.13.41-.16.85-.25,1.27-.04.21-.12.42-.17.63-.06.25-.11.5-.15.75-.01.07.03.15.04.23.02.1.04.21.04.31,0,.28-.01.55-.03.83-.01.24,0,.5-.08.71-.15.38-.06.77-.08,1.15-.05,1.11-.04,2.22-.04,3.34,0,.43.04.85.05,1.28,0,.72,0,1.44,0,2.15,0,.52.03,1.03.04,1.55,0,.14-.04.29-.07.47.18,0,.37-.01.56,0,.08,0,.15.09.23.14-.05.07-.1.16-.17.22-.4.33-.9.27-1.37.32-.14.02-.28-.01-.42,0-.37.02-.73.04-1.11.06,0,.03-.02.08-.03.13-.07-.03-.2-.04-.21-.08-.04-.27-.25-.16-.39-.17-.42-.03-.79.14-1.18.27-.31.1-.66.11-.99.13-.67.04-1.33.04-2,.08-.58.03-1.15.09-1.73.12-1.15.05-2.29.1-3.44.14-.3.01-.6-.02-.91-.01-.47.02-.94.09-1.41.09-.65,0-1.3-.05-1.94-.05-.46,0-.92.02-1.37-.1-.09-.02-.2-.04-.28-.09-.05-.03-.1-.13-.09-.19.01-.07.08-.15.15-.19.05-.03.14-.02.21-.01.62.02,1.24.04,1.86.05.45.01.91.04,1.36.03,1.04-.03,2.08-.07,3.11-.13,1.14-.07,2.27-.19,3.41-.26.33-.02.67.04,1.01.03.47,0,.94-.04,1.41-.05.68-.01,1.37,0,2.05-.01.22,0,.45,0,.67-.01.16-.01.34,0,.43-.2.02-.04.12-.05.19-.06.35-.05.7-.09,1.05-.14.06,0,.12-.05.18-.05.71-.09.56-.28.57-.76.02-.84.06-1.67.06-2.51-.02-2.08-.06-4.15-.09-6.23,0-.52-.04-1.05,0-1.57.03-.61.12-1.21.19-1.82.08-.69.16-1.38.26-2.07.11-.8.39-1.55.71-2.28.26-.6.47-1.24.79-1.8.42-.74.91-1.45,1.41-2.14.37-.52.88-.88,1.47-1.15.43-.2.77-.56.91-1.05.06-.21.16-.26.39-.2.5.13.92.35,1.3.71.44.42.92.8,1.43,1.13.59.38,1.01.9,1.37,1.48.02.03.03.07.05.09.79.77,1.05,1.79,1.29,2.82.03.14.13.27.16.42.02.12-.01.25-.02.38,0,0,0,0,0,0Z"/>
      <path class="cls-1" d="M67.28,83.07c-.02.08-.03.15-.06.29-.04-.1-.07-.14-.07-.18.09-.62.05-1.19-.38-1.7-.18-.21-.25-.52-.44-.72-.18-.18-.45-.28-.73-.43-.06.29-.12.5-.14.72-.07.72-.13,1.44-.18,2.17-.02.22,0,.44.03.66.07.6-.07,1.22.08,1.81.08.31.18.62.22.93.05.32.04.64,0,.97-.03-.08-.06-.15-.1-.25q-.19.53.2.58c-.09.09-.16.17-.26.28.32.12.3.26.02.43.11.03.17.04.26.06-.04.1-.09.2-.13.3.02,0,.04-.01.06-.02.04.28.08.56.12.83.02.13.02.26.03.39.04.41.06.83.11,1.24.05.39.09.79.21,1.17.07.22.06.36-.08.54.06-.02.12-.04.2-.07,0,.08.02.14.01.19-.01.19-.06.39-.05.58.05.81.15,1.63.16,2.44,0,.3.07.58.09.88.01.17-.02.34.02.51.02.07-.08.24-.15.25-.17.04-.35-.02-.4-.22-.03-.12,0-.25-.02-.37-.04-.5-.09-1-.12-1.51-.03-.43-.03-.86-.03-1.29,0-.07.1-.14.19-.26-.14-.08-.29-.16-.44-.25,0-.02.01-.05.02-.07.05-.01.11-.02.14-.03,0-.23,0-.45,0-.67,0-.04,0-.1-.03-.11-.24-.12-.1-.23-.08-.34-.02-.09-.06-.18-.07-.27-.03-.2-.03-.4-.07-.6-.1-.53-.19-1.06-.33-1.58-.12-.48-.31-.94-.44-1.42-.08-.29-.18-.59-.08-.91.03-.11-.05-.26-.09-.39-.02-.06-.08-.11-.07-.16.11-.53,0-1.02-.23-1.51-.1-.22-.12-.48-.14-.72-.05-.62-.11-1.24-.13-1.86-.01-.53.03-1.07.06-1.6,0-.11.05-.24.13-.31.21-.18.19-.42.23-.65.03-.18.07-.37.11-.55.14-.58.96-.73,1.4-.43.22.15.38.15.58-.02.02.05.04.08.04.11-.06.4.22.64.42.94.28.42.61.82.63,1.37,0,.15.11.3.1.45-.02.34.2.63.13.98-.02.11.03.25.04.37.03.42.05.84.08,1.26,0,.14,0,.28.03.42.06.44.13.87.18,1.3.07.62.06,1.25.21,1.84.13.53.08,1.07.18,1.6.03.14.08.37-.05.57-.07.12.02.33.03.5,0,.06.03.11.03.16,0,.15,0,.31.04.46-.14.15-.13.3.02.44-.05.06-.13.11-.12.16,0,.31.03.62.04.92,0,.1-.07.19-.08.29-.04.45-.09.9-.1,1.35-.02.62,0,1.24,0,1.86,0,.17,0,.34,0,.57h-.43c-.32-1.43.06-2.86-.09-4.28.03-.1.09-.19.09-.29.01-.88.02-1.76.01-2.64,0-.25-.07-.49-.08-.74-.03-.46-.03-.93-.07-1.39-.02-.32-.08-.65-.11-.97-.02-.27-.03-.54-.04-.81,0-.16,0-.31-.01-.47-.05-.54-.13-1.07-.17-1.61-.03-.36,0-.72-.02-1.08,0-.15-.04-.3-.07-.44h-.05Z"/>
      <path class="cls-1" d="M24.63,57.88c.27-.02.4.11.51.34.1.21.3.36.43.56.17.26.38.53.47.82.12.39.15.81.19,1.21.09.99.12,1.99-.07,2.96-.13.67-.41,1.32-.65,1.96-.17.45-.53.77-.89,1.08-.25.22-.46.5-.68.76-.11.13-.53.24-.71.17-.53-.22-.85-.63-1.03-1.14-.21-.57-.41-1.14-.54-1.73-.25-1.13-.31-2.27-.05-3.41.07-.32.08-.68.23-.94.44-.75.68-1.65,1.54-2.09.31-.16.61-.34.92-.49.1-.05.22-.05.34-.07ZM24.61,58.78c-.22.2-.37.35-.54.49-.28.22-.52.46-.62.82-.05.19-.19.35-.28.53-.08.18-.16.36-.21.56-.09.36-.13.74-.24,1.09-.24.75-.18,1.51-.12,2.27.04.5.41.86.75,1.2.19.19.57.14.71-.09.17-.29.32-.6.48-.89.07-.13.25-.26.23-.37-.04-.28.12-.49.17-.74.14-.72.3-1.45.27-2.19-.02-.38-.06-.76-.15-1.13-.12-.49-.29-.98-.46-1.55Z"/>
      <path class="cls-1" d="M55.55,64.18c.08-.17.06-.27-.16-.31-.28-.05-.09-.25-.11-.44-.09.07-.17.12-.26.19-.11-.14-.2-.28-.31-.4-.46-.5-.92-1-1.39-1.49-.14-.15-.33-.25-.46-.4-.67-.76-1.47-1.4-2.07-2.22-.14-.2-.35-.35-.53-.52-.4-.37-.8-.73-1.08-1.21-.11-.2-.33-.35-.52-.48-.16-.11-.23-.25-.3-.42-.07-.15-.22-.27-.34-.39-.31-.28-.63-.55-.91-.87.41-.15.77-.14,1.1.04.58.32,1.08.75,1.52,1.25.67.75,1.36,1.48,2.03,2.23.55.62,1.14,1.21,1.61,1.89.39.57.88,1.03,1.3,1.55.47.58.94,1.17,1.47,1.69.85.83,1.65,1.72,2.66,2.38.37.24.64.64.93.99.18.22.3.49.49.7.17.19.39.34.61.52,0,.01.01.1.06.14.57.61,1.17,1.2,1.56,1.95.06.12.08.28.14.4.11.2.25.37.36.57.1.19.18.4.23.64-.11-.06-.23-.11-.31-.19-.52-.51-1.1-.97-1.52-1.55-.35-.49-.81-.81-1.25-1.19-.28-.24-.59-.42-.75-.81-.11-.26-.4-.45-.62-.66-.3-.29-.63-.55-.92-.85-.19-.2-.33-.44-.5-.66-.1-.13-.22-.25-.34-.39.04-.05.08-.1.13-.17-.36.03-.44-.05-.37-.35-.22-.04-.3-.16-.35-.39-.04-.19-.26-.35-.41-.5-.12-.12-.27-.2-.41-.31Z"/>
      <path class="cls-1" d="M27.5,90.23c.18-.07.27-.08.32.17.13.6-.01,1.21.05,1.81.03.36.02.73,0,1.09-.02.47-.07.93-.1,1.4,0,.06-.01.12-.01.19-.02.48-.04.96-.06,1.44-.02.43-.02.87-.04,1.3-.02.3-.02.61-.12.89-.06.19-.26.35-.41.51-.03.03-.15,0-.19-.03-.21-.2-.42-.4-.61-.62-.13-.15-.09-.31-.03-.5.05-.17.03-.36.03-.54,0-.44.01-.88,0-1.32-.03-.83-.06-1.65-.1-2.48,0-.22.05-.48-.05-.64-.16-.24.08-.43-.01-.67-.08-.2-.02-.46-.03-.69-.01-.18-.07-.35-.08-.52,0-.2.05-.37.27-.48.09-.04.14-.2.18-.32.12-.32.41-.21.62-.22.13,0,.26.09.39.14-.01.03-.02.05-.03.08Z"/>
      <path class="cls-1" d="M62.84,88.54c.06.39.12.75.18,1.11.04.26.08.53.1.79,0,.09-.07.18-.06.26.02.18.08.36.11.54.01.07-.01.15-.02.23,0,.11-.02.21-.02.32,0,.15,0,.3,0,.45,0,.09.01.18.03.27.07.35.03.71.23,1.04.06.1,0,.28-.02.41-.09.43-.1.86,0,1.29.06.24.02.5.04.74.03.51.07,1.03.1,1.54.02.33,0,.66,0,1,0,.1.03.2.05.3-.21-.04-.42-.34-.4-.6.01-.17.04-.34-.16-.44-.03-.01-.03-.09-.03-.14,0-.62.03-1.24,0-1.86-.03-.53-.03-1.06-.08-1.59,0-.02,0-.04,0-.05.27-.59.05-1.17,0-1.76-.04-.54-.01-1.08-.07-1.62-.05-.5-.17-1-.29-1.49-.02-.09-.17-.17-.27-.22-.13-.06-.21-.13-.21-.3,0-.83-.02-1.67-.05-2.5,0-.2-.13-.39-.19-.59-.02-.08-.04-.19-.01-.27.06-.15.16-.29.25-.45-.19,0-.32,0-.3-.25.02-.23-.06-.47-.05-.71,0-.16.04-.37.14-.48.24-.25.27-.5.15-.8-.31-.78,0-1.46.36-2.12.19-.34.87-.33,1.07.02.23.39.38.82.56,1.24-.02.01-.05.03-.07.04-.33-.18-.65-.37-1-.57.06.2-.15.42.12.65.09.08.05.34.04.52,0,.14-.08.28-.08.42,0,.48.02.96.03,1.44,0,.03.01.06,0,.08-.32.33-.05.67-.04,1.01,0,.2,0,.41,0,.61-.01.53-.02,1.06-.04,1.6,0,.24-.02.47-.04.71,0,.07-.04.13-.06.18Z"/>
      <path class="cls-1" d="M3.27,79.72c0,.26-.02.53,0,.8.07.72,0,1.42-.14,2.12-.07.39-.04.8-.06,1.19-.01.17-.08.34-.08.51,0,.23.07.47.05.7-.08,1.06.12,2.13-.13,3.19-.05.2.05.44.08.66,0,.05.03.11.03.16-.08.42-.16.84-.23,1.26-.02.13.02.27.01.4-.03.39-.07.78-.1,1.17-.07.86-.12,1.72-.22,2.58-.08.74-.21,1.48-.32,2.21-.07.47-.13.95-.21,1.42-.01.09-.1.16-.15.24-.03-.08-.09-.16-.09-.24,0-.52.01-1.04.04-1.56,0-.11.07-.22.05-.33,0-.09,0-.18,0-.28.04-.4.08-.8.12-1.21.04-.43.09-.86.13-1.29.03-.34.05-.68.08-1.04.04,0,.11.02.23.04-.18-.29-.27-.57-.09-.8-.05-.21-.12-.37-.11-.53.04-.67.03-1.36.18-2.01.14-.6.05-1.2.14-1.79.05-.31.14-.61.16-.91.02-.33-.02-.66-.04-.99,0-.04.02-.09.03-.13.02-.07.07-.14.06-.2-.03-.33-.07-.66-.11-.98-.05-.45-.12-.89-.14-1.34-.01-.24.04-.49.1-.73.04-.16.12-.3.2-.45.1-.18.13-.34.01-.54-.22-.35-.22-.76-.14-1.15.06-.29.36-.33.68-.13Z"/>
      <path class="cls-1" d="M26.29,101.56s.01.02.06.12c-.73-.06-1.43-.1-2.11-.19-.63-.09-1.25-.04-1.86.08-.18.03-.4,0-.55.09-.32.21-.67.11-1,.15-.06,0-.15,0-.18.03-.21.24-.51.16-.77.2-.25.04-.51,0-.76.03-.14.01-.3.05-.42.12-.19.12-.37.02-.55.03-.19.01-.37.04-.56.09-.21.05-.41.15-.62.18-.21.03-.43.01-.64-.03-.09-.02-.16-.15-.24-.24.09-.05.17-.15.27-.15.21-.02.43,0,.64.01.08,0,.16,0,.23-.02.67-.24,1.37-.31,2.07-.35.21-.01.42-.08.62-.12.59-.12,1.19-.2,1.77-.38.61-.19,1.24-.28,1.87-.31.65-.03,1.29.02,1.94.04.42.01.84.04,1.25.08.08,0,.15.07.23.11-.05.06-.08.13-.14.17-.17.1-.35.17-.55.27Z"/>
      <path class="cls-1" d="M69.39,91.43s.12,0,.12.03c.06.24.14.47.17.71.07.52.12,1.05.18,1.58.05.44.09.88.17,1.31.06.37.11.76.63.9-.09.68-.19,1.35-.28,2.02-.03.21-.12.34-.37.32-.26-.03-.45-.17-.47-.39-.02-.2,0-.41,0-.61-.01-.29-.04-.58-.07-.87-.02-.27-.14-.55.1-.81.05-.06,0-.24-.03-.35-.07-.23-.09-.49-.37-.62.07-.08.13-.16.16-.19-.05-.12-.1-.2-.11-.29-.02-.2-.02-.41-.05-.61,0-.05-.07-.1-.12-.16.02-.21.27-.43,0-.67.06-.11.13-.23.19-.33-.19-.38-.06-.69.13-.99,0,0,0,0,0,0Z"/>
      <path class="cls-1" d="M55.57,65.94c.16.13.35.22.46.38.12.18.29.24.46.32.07.03.16.06.21.11.22.23.42.48.64.72.16.17.34.33.52.5-.17.18-.28.19-.42-.02-.09-.13-.27-.21-.4-.32-.22-.19-.44-.37-.66-.57-.11-.1-.18-.25-.3-.32-.12-.07-.28-.07-.41-.09-.04-.1-.07-.19-.11-.3.01-.01.05-.05.1-.11-.16-.09-.3-.16-.39-.21-.08-.13-.13-.24-.21-.32-.29-.34-.59-.68-.9-1.02-.13-.14-.29-.24-.42-.38-.05-.05-.06-.15-.1-.28-.2-.08-.37-.24-.48-.53-.1-.26-.3-.48-.47-.71-.17-.22-.37-.42-.54-.64-.07-.1-.12-.24-.13-.36,0-.05.1-.16.15-.16.1,0,.24.03.3.1.22.28.4.58.61.86.33.44.67.86.99,1.3.18.24.31.52.5.75.28.36.59.71.88,1.06.05.06.08.15.11.23Z"/>
      <path class="cls-1" d="M69.42,88.41c.02.47.04.92.08,1.38.01.17.08.34.08.51,0,.16-.05.33-.08.49l-.13.02c-.14-.26-.28-.52-.41-.78-.01-.02,0-.06,0-.08.2-.31.07-.61-.01-.92-.02-.08-.02-.18-.02-.26.02-.35.04-.37.5-.36Z"/>
      <path class="cls-1" d="M58.93,90.88c-.08-.15-.19-.32-.28-.5-.07-.16-.09-.34-.17-.49-.12-.25-.13-.51-.09-.77.02-.12.01-.25.02-.37,0-.06.02-.16.06-.17.05-.02.16,0,.19.04.08.12.16.25.18.39.06.35.1.7.15,1.1,0,0-.06.05-.14.11.09.02.16.03.25.04-.06.21-.11.41-.18.63Z"/>
      <path class="cls-1" d="M26.23,65.63c0-.07,0-.11.02-.14.27-.35.27-.77.32-1.18.05-.42.13-.84.18-1.27.04-.31.04-.62.06-.93,0-.09.04-.19.07-.33.39.74-.06,3.28-.65,3.85Z"/>
      <path class="cls-1" d="M59.2,92.07c-.06-.04-.12-.08-.21-.13-.02.08-.04.14-.06.2-.18-.14-.23-.45-.12-.63.03-.05.07-.12.05-.15-.17-.27.02-.22.13-.23.1.31.2.6.3.9-.03.02-.06.03-.09.05Z"/>
      <path class="cls-1" d="M50.99,63.42c.17-.07.31-.16.38.09.01.05.04.1.08.13.15.16.3.31.48.49-.27.07-.28.08-.55-.18-.14-.14-.24-.33-.39-.53Z"/>
      <path class="cls-1" d="M58.7,68.87c-.13-.03-.26-.04-.38-.08-.16-.05-.24-.13-.09-.26-.18-.06-.34-.12-.5-.18,0-.03,0-.07.01-.1.13-.01.33-.08.38-.02.18.23.62.23.57.65h0Z"/>
      <path class="cls-1" d="M58.69,68.87c.31.04.52.29.4.49.1.02.19.05.37.09-.25.09-.4.12-.54-.04-.11-.13-.21-.25-.33-.39.03-.04.07-.09.11-.15,0,0,0,0,0,0Z"/>
      <path class="cls-1" d="M69.39,91.43s0,0,0,0c-.06.03-.12.06-.16.08-.06-.11-.11-.2-.17-.31.09-.07.2-.15.31-.23.09.17.21.31,0,.47Z"/>
      <path class="cls-1" d="M50.5,63.04c.09-.08.15-.13.23-.19.11.15.21.29.3.43-.03.03-.05.06-.08.09-.14-.11-.29-.21-.45-.33Z"/>
      <path class="cls-1" d="M26.85,60.88c.03.2.05.39.08.59h-.07c-.03-.19-.07-.38-.1-.58.03,0,.06,0,.09,0Z"/>
      <path class="cls-1" d="M21.99,28.33c.16-.09.31-.13.4-.23.36-.37.76-.67,1.31-.67.03,0,.05-.01.08-.02.02,0,.03-.02.07-.06-.2-.21.18-.52-.13-.73.58.07.59.17.88.82.24.54.38,1.13.65,1.66.22.44.38.87.45,1.35.03.18.01.38.06.55.18.64-.01,1.3.1,1.95.03.18.22.42-.11.56-.05.02-.02.25-.02.38,0,.31.02.63-.01.94-.13,1.18-.28,2.35-.4,3.53-.05.45-.03.92-.07,1.37-.02.21-.09.43-.18.63-.02.06-.19.13-.23.1-.13-.09-.35-.27-.33-.32.17-.35-.04-.66-.06-.99-.02-.24-.02-.45.15-.67.1-.13.03-.38.02-.58,0-.17-.02-.35-.04-.52-.02-.19-.06-.37-.06-.56,0-.35.02-.69.03-1.04,0-.04-.01-.08,0-.11.26-.32.08-.66.08-1,0-.16.09-.31.11-.47.02-.17.09-.36-.05-.45.02-.17.05-.31.04-.45-.04-.38-.09-.77-.15-1.15-.08-.5-.17-1-.25-1.5-.01-.07,0-.15,0-.2-.22-.31-.41-.62-.48-.99-.05-.25-.07-.54-.32-.69-.09-.05-.25-.02-.37.02-.03.01,0,.19.03.3-.33.31-.37.75-.45,1.17-.05.29-.13.57-.15.86-.06.64-.06,1.29-.14,1.93-.07.58.06,1.14.08,1.71.02.42-.05.85-.06,1.27-.02.68-.04,1.36.09,2.04.08.38.07.78.11,1.17.02.15.05.3.1.44.12.36,0,.69-.35.86-.14.07-.21.14-.17.31.02.09-.02.2-.03.34-.08-.06-.13-.08-.16-.12-.14-.19-.13-.43-.33-.61-.09-.08-.02-.33-.04-.5-.04-.35-.14-.7-.11-1.03.04-.37-.04-.72-.07-1.08-.06-.69-.05-1.4-.04-2.1,0-.77.04-1.53.06-2.3,0-.26.04-.52-.17-.74-.05-.06-.05-.22,0-.3.18-.28.08-.56.07-.85,0-.12.02-.25.04-.37,0-.06.06-.12.05-.17-.1-.49.14-.9.28-1.34.09-.29.18-.58.26-.87.06-.2.15-.4-.11-.52Z"/>
      <path class="cls-1" d="M32.95,39.88c.07.17.15.27.15.36-.01.2-.06.41-.1.61-.01.06-.09.1-.14.16-.04-.06-.12-.12-.11-.18,0-.24.03-.48.06-.72,0-.05.06-.1.14-.22Z"/>
    </g>
  </g>
</svg>