<?xml version="1.0" encoding="UTF-8"?>
<svg id="Layer_2" data-name="Layer 2" xmlns="http://www.w3.org/2000/svg" viewBox="0 0 78.88 104.3">
  <defs>
    <style>
      .cls-1 {
        fill: #000;
        stroke-width: 0px;
      }
    </style>
  </defs>
  <g id="illustrations">
    <g>
      <path class="cls-1" d="M33.86,80.21c.01-.09-.01-.2.04-.27.16-.23.13-.49.14-.75.03-.45.07-.9.1-1.35.02-.39.03-.78.04-1.17,0-.2,0-.41.02-.61.03-.69.05-1.38.09-2.06.02-.42.08-.83.1-1.25,0-.09-.07-.19-.06-.28.01-.16.05-.32.09-.47.01-.07.05-.13.06-.2.14-.98.28-1.96.4-2.94.06-.48.09-.97.13-1.46.07-.96.29-1.89.47-2.84.13-.66.17-1.34.22-2.02.02-.36-.03-.73-.05-1.1.02,0,.04.01.06.02.05-.17.11-.34.16-.5-.03-.01-.05-.02-.08-.04-.11.14-.22.29-.34.43l-.1-.03c.28-.91.27-1.81.06-2.74.04.02.08.04.12.06.03-.13.05-.26.09-.4.02-.06.03-.13.07-.17.1-.1.22-.18.34-.26.02.12.06.24.07.37.02.41,0,.81.04,1.22.03.51.12,1.02.13,1.52.01.47-.04.94-.07,1.41-.07.92-.16,1.83-.21,2.75-.02.41,0,.82.03,1.23.04.57,0,1.13-.19,1.68-.09.25-.05.54-.07.81-.01.2-.01.39-.04.59-.03.27-.07.54-.12.81-.02.13-.09.25-.15.36.06.36.07.73-.02,1.11-.04.17.03.37.04.56,0,.13,0,.26-.15.34-.05.03-.08.13-.09.2-.02.16-.02.33-.03.49,0,.03,0,.08.02.08.2.02.11.16.1.25-.03.26-.11.52-.13.78-.06.77-.08,1.54-.15,2.31-.11,1.26-.25,2.52-.37,3.78-.09.95-.17,1.9-.27,2.85-.07.66-.17,1.31-.25,1.97-.03.27.02.57-.06.81-.06.17,0,.33-.06.48-.01.03-.03.09-.01.1.17.15.01.19-.09.25.05.14.14.28.13.41,0,.08-.19.13-.3.2h.27c.02.65.03,1.29.05,2-.14.18-.24,1.34-.07,1.55-.16.08-.12.21-.13.37-.02.36.19.75-.12,1.09.07.05.12.09.12.09-.07.32-.12.6-.19.9.04.01.09.03.17.05-.09.17-.26.34-.02.43-.04.18-.07.34-.1.5-.03.23-.05.45-.07.68,0,.06.02.12.01.19,0,.07-.01.15-.02.22,0,.01-.03.03-.02.04.12.21-.04.45.02.61.09.26-.02.47-.06.68-.09.48-.21.96-.39,1.4-.24.59-.55,1.16-.85,1.72-.07.14-.24.23-.32.37-.08.13-.11.3-.16.47.21.01.46-.03.65.06.21.11.4.09.61.07.16-.02.31-.02.47-.03.31,0,.62,0,.93-.01.33-.02.65-.09.97-.08.21,0,.41.1.66.16-.2.13-.33.26-.5.02-.04-.06-.22-.04-.37-.06.05.07.08.11.13.18-.15,0-.22.26-.35.11-.44.09-.84.16-1.32.26.19.2.35.4.54.56.79.65,1.7,1.07,2.72,1.15.5.04.95.16,1.42.28.46.11.91.07,1.34-.1.31-.13.35-.28.25-.59-.05-.16-.09-.33-.06-.49.03-.19.37-.34.61-.31.07,0,.13,0,.24,0,0-.01.01,0,.02.04.04.12.05.31.12.34.25.12.53.18.8.26.13.04.27.06.4.1.2.07.39.15.59.22.29.1.58.21.87.3.44.13.87.29,1.35.12.19-.06.44.04.66.09.38.08.55-.05.67-.43.16-.49.3-.99.32-1.51,0-.1.06-.19.08-.29.09-.48.18-.95.28-1.43.03-.13.07-.26.11-.41-.06,0-.13-.02-.15-.02.04-.74.1-1.47.1-2.19,0-.5-.08-1-.12-1.5,0-.02,0-.05,0-.07.22-.29.06-.61.07-.92,0-.51.03-1.01.05-1.52,0-.11-.02-.22-.01-.32.02-.18.07-.37.08-.55.03-.43.03-.85.05-1.28.02-.51.07-1.03.07-1.54,0-.49-.06-.98-.08-1.48,0-.19.05-.39.05-.58,0-.3,0-.59,0-.89,0-.19.02-.38.03-.58,0-.34,0-.68,0-1.01,0-.38.04-.76.03-1.14,0-.4-.04-.79-.06-1.19,0-.21.01-.42,0-.64-.03-1-.07-2-.11-2.99,0-.16-.06-.32,0-.49.04-.11-.04-.27-.07-.41,0-.03-.03-.07-.02-.09.2-.43,0-.85,0-1.28,0-.59,0-1.18,0-1.77,0-.37-.03-.73-.05-1.1,0-.02,0-.03,0-.05.22-.5-.15-.97-.07-1.48.07-.43,0-.88,0-1.33-.02-.65-.04-1.3-.05-1.96-.01-.59,0-1.18-.04-1.77-.02-.36-.1-.72-.15-1.08,0-.03,0-.06,0-.09.02-.47.03-.93.05-1.4,0-.18.04-.36.06-.56.04.04.08.07.13.11v-.33c-.07.03-.13.05-.22.09,0-.08-.02-.18.02-.21.19-.17.1-.39.11-.59,0-.13.02-.27,0-.4-.02-.11-.1-.2-.2-.28.05-.14.12-.28.13-.42.02-.27,0-.55,0-.82,0-.46.04-.92.03-1.38,0-.73-.02-1.46-.03-2.18,0-.06.01-.12.02-.18.03,0,.05,0,.08,0,.02.12.06.25.06.37.04.97.06,1.94.11,2.91.05,1,.12,2,.16,3,.04.83.04,1.67.07,2.5,0,.27.06.54.08.81.03.35.07.71.09,1.06.03.69.05,1.39.07,2.08.02.59.03,1.18.05,1.77,0,.11.05.21.05.31,0,.09-.01.18-.05.27.03.17.06.33.11.58-.07.21-.1.5.01.8.02.05-.01.11-.02.17,0,.04-.05.11-.03.13.14.17.06.37.07.56.04.64.04,1.29.07,1.93.03.68.07,1.37.09,2.05.02.64,0,1.27.02,1.91.01.51.06,1.03.08,1.54.02.45.06.9.06,1.36,0,.11-.07.23-.12.36h.16c-.02.45-.05.88-.07,1.32-.02.36-.03.72-.06,1.08-.01.15-.1.29-.11.44,0,.23.02.45.04.68,0,.15.02.3.03.45-.03,0-.05,0-.08.01-.03-.09-.05-.17-.08-.26.15.51.3,1.03.13,1.61-.04-.07-.06-.11-.1-.17-.14.23.06.22.14.25-.07.11-.13.2-.19.3.03.01.06.03.1.04,0-.03,0-.06,0-.09.09.08.08.32-.02.42-.04.04-.08.08-.08.13,0,.21,0,.42,0,.67.07-.1.12-.15.16-.21.03.02.06.04.08.05-.06.1-.12.2-.17.3l-.07-.02s.06.08.08.12c.03.09.07.19.08.29,0,.1-.02.21-.03.31-.01.12-.03.23-.03.35,0,.04.03.08.04.13.02.06.06.13.04.18-.13.46,0,.92,0,1.38,0,.07-.04.13-.09.25.03.05.1.14.16.22-.01,0-.03,0-.04,0v.81c-.06,0-.1-.01-.19-.02.11.14.19.24.23.3-.02.15-.05.26-.05.38-.01.22-.01.43-.01.65,0,.05.03.1.05.14.17.29.16.36,0,.54v.57c-.04.23-.1.43-.09.62.01.17.01.34.04.51.05.36-.02.75-.07,1.12-.04.35-.14.69-.19,1.03-.07.49-.13.98-.18,1.47-.02.16-.02.33.01.48.09.41-.12.75-.23,1.11-.06.21-.21.31-.44.31-.33,0-.66,0-.99,0-.13,0-.27.05-.37-.12-.02-.04-.16-.03-.24-.03-.2,0-.4,0-.6,0-.05,0-.12-.04-.14-.08-.11-.22-.31-.17-.49-.17-.43,0-.86.09-1.26-.13-.03-.02-.08.01-.17.03.27.17.49.3.76.46-.41.1-.67-.1-.95-.26-.26-.15-.51-.33-.79-.45-.22-.09-.48-.09-.72-.15-.15-.04-.29-.11-.44-.18-.09.41-.3.67-.72.75-.21.04-.42.14-.63.19-.15.04-.31.05-.47.05-.37,0-.74.02-1.11-.02-.34-.04-.7-.07-1-.21-.75-.34-1.47-.73-2.19-1.12-.32-.18-.6-.42-.92-.61-.16-.09-.36-.12-.55-.17-.03,0-.07,0-.09-.03-.31-.31-.73-.29-1.11-.42-.16-.06-.32-.14-.48-.18-.11-.03-.23,0-.34-.02-.34-.06-.73.07-1-.26-.04-.05-.04-.14-.06-.22.02-.02.04-.05.06-.07-.54-.05-1.08-.09-1.62-.15-.19-.02-.37-.08-.56-.1-.28-.03-.56-.08-.83-.04-.5.08-.99.21-1.48.34-.19.05-.37.17-.54.28-.29.19-.57.28-.82-.15-.03-.05-.16-.08-.24-.07-.57.04-1.12.2-1.67.38-.65.21-1.35.35-2.03.39-.6.03-1.23-.04-1.76-.4-.14-.09-.28-.24-.33-.4-.16-.46-.33-.9-.7-1.24-.02-.02-.05-.05-.05-.08-.13-.54-.35-.85-.86-1.23-.29-.22-.56-.48-.87-.66-.3-.17-.64-.25-.96-.36-.1-.04-.21-.05-.31-.1-.52-.21-1.04-.05-1.56.01-.15.02-.3.04-.44.03-.45,0-.91,0-1.36-.02-.29-.02-.57-.09-.88-.14.02.08.03.16.07.32-.2-.11-.37-.17-.51-.27-.25-.18-.47-.39-.71-.56-.27-.19-.57-.33-.58-.73,0-.07-.07-.14-.11-.21-.02,0-.04.01-.06.02.02.07.03.15.06.28-.1-.11-.18-.18-.24-.26-.27-.41-.55-.82-.79-1.26-.09-.17-.12-.4-.11-.61.01-.35.06-.68-.13-1.01-.11-.19-.1-.39.09-.57.11-.11.17-.27.25-.41-.03-.02-.07-.05-.1-.07-.05.06-.11.11-.16.17-.05.06-.07.15-.12.2-.23.22-.35.19-.49-.11-.04.04-.08.07-.14.13-.1-.35-.39-.3-.65-.35-.82-.16-1.46-.63-1.98-1.27-.05-.06-.09-.13-.15-.18-.43-.35-.64-.83-.83-1.33-.08-.21-.02-.48-.01-.72,0-.05.08-.11.12-.15.06-.06.22-.07.11-.22,0-.01.01-.06.03-.08.61-1.12,1.23-2.23,1.82-3.36.29-.55.56-1.11.8-1.68.28-.68.53-1.38.78-2.07.27-.73.52-1.46.79-2.19.04-.11.15-.19.25-.32.08-.68.16-1.42.24-2.15-.02,0-.03,0-.05,0-.1.3-.17.63-.31.91-.43.81-.91,1.57-1.59,2.2-.49.45-.92.97-1.39,1.44-.32.32-.72.5-1.14.65-.3.1-.6.18-.9.29-.12.04-.25.11-.32.21-.36.52-.71,1.05-1.03,1.59-.12.2-.18.45-.22.69-.02.11.04.25.1.35.17.33.34.65.54.96.06.1.19.18.3.21.43.13.88.23,1.31.37.09.03.15.19.2.3,0,.02-.12.14-.2.15-.6.12-1.18.08-1.65-.37-.17-.17-.32-.37-.48-.55-.06-.07-.1-.15-.17-.2-.47-.36-.46-.84-.35-1.34.16-.72.46-1.39.83-2.02.16-.28.28-.58.43-.86.1-.18.19-.38.43-.43.03,0,.05-.07.07-.11.21-.33.42-.64.52-1.04.08-.3.32-.55.5-.82.26-.38.53-.76.81-1.13.3-.42.57-.86.73-1.37.19-.61.42-1.22.58-1.84.11-.42.15-.87.2-1.31.05-.38.09-.77.13-1.15.05-.57.1-1.13.14-1.7.06-.89.12-1.79.16-2.68.03-.63.04-1.26.07-1.89.01-.29.04-.58.03-.87-.01-.32.17-.42.45-.46,0-.02,0-.04-.01-.06-.09,0-.19,0-.28,0-.06,0-.16-.03-.16-.04,0-.07,0-.18.04-.21.11-.08.25-.13.4-.21-.13-.02-.25-.03-.37-.05-.08-.38-.09-.75.05-1.12.03-.08-.02-.2-.09-.35.09-.03.18-.05.26-.09.06-.03.16-.09.16-.14,0-.18-.05-.37-.08-.57.12-.05.21-.12.07-.28-.04-.05,0-.17.02-.26,0-.06.05-.14.03-.16-.05-.04-.13-.05-.15-.06-.05.31-.09.59-.13.9q.16.17-.21.34c.03-.37.07-.73.09-1.09,0-.06-.03-.12-.05-.18-.02-.07-.06-.15-.04-.21,0-.03.12-.04.19-.06-.26-.28-.14-.58-.06-.89.01-.04-.01-.09-.02-.13,0-.04-.03-.07-.02-.11.05-.35.08-.7.15-1.04.07-.35.18-.69.26-1.04.02-.08.02-.17.02-.26,0-.15-.01-.3-.3-.22.26-.54.07-1.12.36-1.54.01-.18,0-.3.04-.41.06-.21.15-.42.2-.63.04-.19.01-.39.04-.58.02-.15.08-.29.12-.43.02-.08-.01-.16.01-.24.05-.17.13-.33.24-.48,0,.13,0,.25-.02.38-.06.41-.15.82-.17,1.24-.01.4-.05.78-.22,1.15-.09.2-.16.41-.23.62-.02.07.02.15.03.23.02,0,.04,0,.06-.01.04-.12.08-.24.12-.36.02,0,.03,0,.05.01-.01.16-.02.32-.04.48-.1.7-.2,1.4-.3,2.1-.04.29-.11.58-.15.88,0,.07.04.16.07.24h.09c.02-.11.03-.22.07-.31.22-.59.13-1.22.23-1.83.1-.61.17-1.22.27-1.84.08-.53.19-1.05.27-1.57.07-.45.15-.9.21-1.35.02-.17-.01-.35-.03-.56-.13.12-.26.24-.39.37-.02-.01-.04-.03-.06-.04.03-.11.04-.23.08-.33.12-.33.27-.65.38-.99.07-.21.09-.44.13-.67.02-.1.04-.19.05-.29.37.07.49-.06.51-.52.01-.18.03-.36.05-.53-.02,0-.04-.01-.06-.02-.1.3-.2.6-.3.9-.02,0-.05-.02-.07-.03.3-1.3.6-2.6,1.25-3.77-.41-.06-.63-.64-.5-.97.11-.28.25-.56.41-.82.15-.25.42-.36.78-.45-.47.7-.38,1.47-.63,2.16.03.01.05.03.08.04.09-.03.19-.04.25-.1.23-.23.45-.12.68-.02.3.12.6.24.91.33.25.08.5.14.76.18,1.12.18,2.25.36,3.37.53.52.08,1.05.12,1.56.25.87.22,1.75.22,2.63.26.73.04,1.47.02,2.2.08.5.04.99.18,1.49.24.86.11,1.72.21,2.58.28,1.57.12,3.14.23,4.72.32,1.41.08,2.82.12,4.23.18,1.18.05,2.36.14,3.54.15.99,0,1.98-.06,2.97-.13,1.28-.09,2.56-.21,3.84-.31.91-.08,1.82-.15,2.73-.23.09,0,.19,0,.28.02.64.09,1.27-.03,1.91-.08,1.01-.08,2.03-.11,3.04-.19.7-.05,1.39-.16,2.09-.23,1.46-.16,2.93-.31,4.39-.47.81-.09,1.64-.13,2.44-.27.85-.15,1.7-.36,2.52-.61.76-.24,1.51-.56,2.24-.88.23-.1.4-.36.61-.53.05-.04.15-.09.17-.07.17.16.28.04.35-.09.1-.19.27-.36.2-.6,0-.03.03-.08.07-.14.34.54.56,1.07.47,1.7,0,.04,0,.1.02.14.34.53.35,1.15.47,1.74.14.7.29,1.4.44,2.1.09.43.16.87.26,1.31.04.19.13.38.2.57.02.06.05.11.06.17.06.34.1.69.18,1.03.24,1.08.49,2.16.73,3.24.1.45.21.91.29,1.36.09.48.14.97.21,1.45.03.2.1.4.13.61.03.23.02.47.04.71,0,.03.02.05.03.08.03.1.07.21.11.33.01.11.02.23.04.35.04.23.09.46.14.69,0,.02.02.04.03.07.02.24.04.47.07.71.02.15.08.3.11.46.04.2.07.39.09.59.02.28.08.54.16.8.08.28.02.6.03.91,0,.1.05.19.07.28.02.07.05.13.06.2.01.19,0,.38.03.57.03.28.07.55.12.83.09.57.18,1.13.26,1.7.04.26.04.53.07.8,0,.1.05.19.07.28,0,.03.04.07.03.09-.13.26.04.49.05.74.01.39.03.78.14,1.16.08.3.05.63.07.94,0,.05.02.11.03.16.02.15.03.29.05.46,0,0,.05,0,.12-.02.04.21.09.43.13.65-.02,0-.05.01-.07.02-.03-.13-.05-.26-.08-.39-.02,0-.04,0-.06,0,0,.21-.01.42,0,.63.04.7.08,1.4.14,2.09.08.84.2,1.67.29,2.51.1.95.16,1.91.28,2.86.08.62.21,1.24.34,1.86.09.41.25.8.33,1.2.11.51.16,1.04.27,1.55.13.57.29,1.14.43,1.71.05.23.07.46.12.69.17.68.33,1.37.54,2.05.14.47.34.92.54,1.36.09.21.2.41.21.64,0,.16.04.3.2.28.08.22.13.41.21.59.12.28.26.56.4.84.04.07.1.12.15.19.12.17.23.35.35.53.2.3.44.59.53.96.23.02.23.03.14.21.11.25.22.46.31.69.02.06,0,.15-.02.23-.03.14-.08.29-.12.43-.01.04-.06.06-.08.1-.03.04-.04.09-.07.13-.07.09-.14.19-.23.24-.48.28-1,.35-1.54.32-.37-.02-.73-.03-1.09-.18-.31-.12-.65-.15-.92-.21-.24.16-.46.31-.68.46-.01-.02-.03-.04-.04-.06l.47-.27s-.02-.06-.03-.09c-.14.04-.29.05-.41.12-.69.42-1.42.75-2.21.97-.67.18-1.33.36-2,.53-.04.01-.13-.03-.14-.06-.04-.11-.12-.25.03-.34.11-.07.23-.13.36-.17.57-.19,1.16-.35,1.73-.55.58-.21,1.2-.36,1.63-.84.23-.26.44-.53.62-.82.07-.11.02-.3.02-.46,0-.22,0-.44-.01-.65-.03-.31-.09-.62-.13-.93-.03-.26-.05-.52-.08-.79,0-.03.02-.07,0-.08-.25-.23-.23-.56-.28-.86-.04-.19-.12-.3-.28-.32.02-.17.03-.3.04-.44-.07,0-.13,0-.17.01-.21-.28-.16-.55-.07-.83,0-.03.02-.07.01-.09-.19-.36-.08-.8-.33-1.16-.17-.26-.24-.59-.33-.9-.04-.12-.06-.21-.2-.26-.18-.06-.25-.15-.21-.37.08-.36.13-.74.15-1.11.01-.24-.06-.48-.1-.72-.06-.41-.1-.82-.18-1.23-.06-.32-.17-.64-.26-.96-.05-.2-.12-.39-.17-.59-.18-.8-.35-1.6-.52-2.4-.1-.47-.17-.95-.28-1.41-.06-.27-.19-.53-.28-.79-.03-.08-.08-.16-.09-.24-.08-.78-.16-1.56-.24-2.34-.04-.41-.08-.83-.13-1.24,0-.05-.05-.09-.07-.13-.03-.05-.06-.1-.07-.16-.05-.34-.09-.68-.14-1.02-.07-.46-.17-.92-.24-1.39-.08-.63-.15-1.26-.21-1.89-.01-.1.02-.21,0-.3-.03-.13-.05-.25-.08-.38-.03-.14-.07-.27-.08-.41-.04-.3-.03-.61-.11-.9-.06-.24.02-.5-.15-.73-.08-.11-.06-.3-.08-.46-.02-.19-.03-.39-.07-.58-.07-.38-.15-.76-.23-1.14-.07-.34-.12-.68-.19-1.02-.2-.93-.41-1.86-.6-2.79-.15-.75-.29-1.5-.44-2.25-.05-.25-.12-.51-.19-.75-.14-.44-.28-.88-.43-1.32,0-.01-.02-.04-.02-.04.25-.36-.13-.61-.16-.93-.01-.15-.04-.29-.07-.44-.11-.69-.23-1.37-.34-2.05,0-.02,0-.05-.02-.07-.21-.16-.13-.41-.18-.61-.11-.54-.24-1.07-.3-1.62-.03-.27-.17-.5-.21-.76,0-.02-.02-.05-.01-.07.08-.34-.14-.62-.19-.94-.06-.35-.13-.7-.19-1.07-.35-.07-.08-.4-.23-.59-.38.04-.28-.38-.52-.54.12-.05.19-.08.27-.11.03-.42-.18-.66-.58-.62-.84.08-1.69.19-2.53.26-.18.02-.36-.06-.54-.09-.04,0-.07-.01-.11,0-.31.03-.62.07-.93.1-.09.01-.18.03-.33.06-.26-.05-.59-.1-.91.07-.03.02-.08.04-.1.03-.26-.2-.55-.01-.82-.04-.29-.03-.58-.04-.87-.05-.02,0-.06-.02-.07-.01-.27.23-.52-.06-.78-.04-.42.03-.84.04-1.27.07-.45.04-.9.1-1.36.15-.45.05-.9.12-1.36.14-.45.01-.84.26-1.29.26-.18,0-.36.03-.54.05-.5.05-1.01.12-1.51.15-.22.01-.45-.05-.67-.07-.13,0-.26.03-.39.04-.04,0-.08.02-.11.02-.64.03-1.27.07-1.91.09-.62.02-1.24,0-1.85.01-.73.02-1.46.06-2.19.12-1.68.16-3.36.23-5.05.23-1.08,0-2.16.05-3.23.04-1.09,0-2.19-.04-3.28-.09-1.41-.07-2.81-.16-4.22-.27-.63-.05-1.25-.14-1.88-.21-.4-.04-.81-.04-1.22-.08-.45-.05-.9-.14-1.35-.18-.91-.08-1.82-.16-2.73-.21-.63-.04-1.26-.03-1.88-.07-.42-.03-.84-.11-1.26-.17-.23-.03-.47-.06-.7-.1-.17-.03-.34-.07-.49-.15-.29-.16-.59-.22-.91-.25-.58-.06-1.16-.18-1.74-.3-.66-.14-1.31-.31-1.97-.47-.31-.07-.34-.04-.42.25-.25.95-.51,1.89-.75,2.84-.08.32-.11.66-.18.99-.02.13-.09.24-.12.37-.07.36-.13.72-.2,1.08-.11.53-.23,1.06-.36,1.59-.11.45-.24.9-.36,1.34,0,.02-.03.06-.02.06.2.25-.07.47-.04.69.06.42-.12.79-.16,1.19,0,.09-.07.18-.1.24.03.11.09.22.08.32-.03.37-.07.74-.11,1.12-.08.75-.17,1.51-.24,2.26-.02.26,0,.53,0,.8-.04.95-.09,1.89-.14,2.84,0,.07,0,.14,0,.21,0,.23-.02.28-.24.39.21.08.24.22.21.41-.03.24-.01.49-.05.73-.03.21-.09.4.03.6.02.03,0,.1-.03.13-.17.15-.15.36-.17.54-.06.6-.1,1.2-.14,1.81-.01.19.04.38.04.57,0,.15-.04.3-.06.46-.04.34-.08.68-.12,1.02,0,.05-.02.09-.02.14-.01.45-.02.91-.03,1.36,0,.17,0,.33,0,.5,0,.05.01.1,0,.14-.08.45-.16.9-.26,1.34-.1.42-.17.86-.49,1.2-.06.06-.11.16-.13.25-.08.54-.41.95-.69,1.39-.33.52-.62,1.06-.95,1.57-.26.39-.56.74-.85,1.1-.05.06-.09.12-.14.18,0,.02.02.04.02.06.09-.02.19-.01.27-.06.47-.26.93-.52,1.39-.79.17-.1.31-.24.49-.33.47-.24.69-.7.98-1.1.26-.36.54-.7.78-1.06.16-.23.27-.48.4-.73.17-.31.34-.62.5-.93.2-.38.39-.76.56-1.16.05-.12.02-.28.02-.42.03-.57.07-1.14.09-1.71.02-.6.01-1.2,0-1.8,0-.34-.03-.67-.05-1.01-.02-.27-.06-.53-.1-.8-.02-.16.02-.28.27-.29-.1-.08-.16-.13-.22-.17.09-.25.02-.5-.18-.68-.11-.1-.12-.16-.04-.32.11.06.23.12.34.18l.07-.04c-.07-.15-.12-.3-.2-.44-.09-.15-.05-.28.08-.31.25-.07.23-.25.18-.4-.11-.32-.04-.62.03-.94.04-.19.02-.4,0-.61,0-.04-.1-.07-.11-.08.02-.19.04-.37.06-.54-.02,0-.04,0-.07,0,.08-.1.16-.19.24-.3-.05-.04-.09-.08-.14-.12.04-.06.08-.12.13-.19-.07-.04-.12-.06-.14-.07-.02-.17-.03-.31-.05-.47.29-.07.2-.29.12-.46-.11-.22.02-.37.1-.56-.04-.01-.09-.03-.13-.04q-.04-.28-.1-.24c0-.11.01-.1.23-.19.06-.02.08-.11.13-.18-.06-.04-.13-.1-.18-.1-.05,0-.1.08-.19.16.03-.22.06-.4.09-.57.02,0,.04,0,.07,0,.03.05.07.11.13.2.07-.18.13-.33.2-.51-.02-.02-.06-.05-.13-.11.09-.03.15-.05.18-.06.03-.27.08-.51.08-.76,0-.12-.09-.25-.14-.37.04,0,.12,0,.2.02-.04-.3-.11-.58-.1-.86,0-.33.09-.67.13-1,.01-.08.02-.17.04-.25.04-.28.09-.56.13-.85.03-.27.04-.55.09-.82.08-.49.21-.98.27-1.48.05-.38.04-.77.07-1.15,0-.06.05-.13.09-.21,0-.07-.02-.2.03-.26.06-.06.22-.11.29-.08.1.05.22.18.21.28-.04.66-.11,1.32-.18,1.98-.02.24-.04.49-.06.73,0,.02,0,.05,0,.07-.17.34-.09.71-.14,1.07-.1.85-.21,1.7-.31,2.55-.01.1-.01.19-.05.29-.02.15-.04.31-.05.46-.06,1.15-.14,2.3-.19,3.46-.05,1.07-.07,2.13-.1,3.2-.02.73-.05,1.46-.08,2.19,0,.17-.04.34-.05.51-.03.43-.08.85-.07,1.28.01.33-.12.68.09,1,.02.04-.03.12-.06.21.04.02.09.05.19.11.14-.55.26-1.07.4-1.58.07-.26.18-.51.24-.77.07-.33.1-.67.16-1.01.02-.14.06-.27.09-.4.09-.44.18-.88.28-1.32.05-.24.13-.48.18-.72.04-.21.04-.42.07-.62.02-.16.04-.32.07-.49.05-.24.1-.48.15-.72,0-.04.02-.08.02-.12,0-.31-.03-.62-.02-.93,0-.22.06-.45.08-.67.03-.29.06-.57.08-.86.03-.3.03-.6.07-.89.02-.13.1-.25.16-.39-.09-.1-.17-.2-.05-.38.06-.09.01-.26.02-.39.02-.27.03-.53.06-.8.02-.19.09-.38.12-.58.01-.08-.04-.16-.05-.24,0-.07,0-.18.03-.21.14-.09.09-.21.1-.34,0-.15.03-.29.06-.44.19-.83.27-1.66.27-2.51,0-.28,0-.56,0-.77-.11-.17-.24-.29-.26-.42-.01-.12.08-.35.16-.36.15-.02.33.05.46.13.08.04.09.19.14.29.05.09.12.18.15.28.05.14.1.28.1.42.01.78,0,1.56.01,2.34.02.75.07,1.5.08,2.26.01.74,0,1.49-.01,2.23,0,.53,0,1.07.03,1.6.13-.35-.02-.73.11-1.08.03,0,.07,0,.1,0,0,.14.01.29,0,.43-.04.47-.04.95-.16,1.4-.09.35.03.68-.03,1.02-.04.25-.06.5-.07.76-.01.26,0,.52,0,.79,0,.24-.02.48-.05.72-.09.82-.19,1.64-.28,2.47-.02.25,0,.5,0,.75,0,0,0,.02,0,.02-.06.36-.11.73-.17,1.09,0,.02-.01.06,0,.07.18.17,0,.34,0,.51,0,.21,0,.42,0,.65.07-.01.13-.02.19-.04,0,.03,0,.06,0,.08-.24.4-.24.83-.25,1.28,0,.36-.06.73-.08,1.09-.03.4-.12.81-.05,1.19.07.4,0,.78,0,1.18,0,.41-.04.82-.04,1.23,0,.27.05.54.05.82,0,.29-.02.57-.04.86-.03.41-.08.82-.08,1.23,0,.33.05.66.04.99,0,.11,0,.22,0,.34-.02.21-.04.42-.07.62-.05.41-.09.83-.16,1.24-.1.62-.21,1.23-.33,1.85-.08.4-.13.8-.26,1.19-.25.76-.51,1.52-.83,2.24-.21.47-.56.89-.82,1.34-.15.26-.26.55-.39.83-.02.04-.07.06-.08.1-.03.09-.04.19-.05.28-.02.14-.03.28-.06.41-.02.09-.07.17-.1.26-.03.1-.05.19-.2.17-.06,0-.13.13-.19.19.05.04.11.09.2.16-.09.25-.21.56-.32.87-.11.3-.08.6.04.87.08.18.23.35.39.46.26.16.47.09.74-.18.05-.04.12-.05.19-.08.04-.02.11-.05.11-.06-.08-.21.13-.25.22-.35.5-.55.99-1.12,1.52-1.64.48-.47.86-1.01,1.18-1.58.42-.74.82-1.5,1.18-2.28.44-.93.83-1.89,1.23-2.84.17-.4.36-.8.51-1.21.2-.56.36-1.13.54-1.7.17-.54.36-1.07.47-1.62.07-.36.28-.69.29-1.02.01-.45.26-.83.23-1.27.03.01.05.02.08.03.04-.05.11-.1.12-.16.04-.19.05-.39.08-.58.05-.32.12-.63.17-.95.02-.15.02-.3.04-.44.03-.24.08-.47.12-.7.06-.44.08-.9.19-1.33.11-.45.15-.91.2-1.37.02-.18.13-.38.07-.52-.11-.24.07-.41.05-.64-.04-.4.11-.81.15-1.22.03-.28.02-.57.03-.86.01-.31.02-.62.04-.92.02-.31.07-.62.09-.93.03-.46.04-.91.06-1.37.02-.49.02-.98.05-1.47.03-.59.09-1.19.13-1.78,0-.03,0-.07,0-.09-.09-.21-.04-.42,0-.64.05-.34.03-.68.04-1.02.02-.36.05-.71.06-1.07,0-.31-.03-.63-.04-.95,0-.04-.01-.09,0-.11.17-.2.06-.42.04-.63,0-.04-.02-.08-.01-.11.03-.18.08-.35.1-.53,0-.1-.06-.2-.06-.29.01-.23.04-.47.07-.7,0-.05.01-.11,0-.16,0-.07-.04-.14-.04-.2,0-.74.02-1.49.03-2.23,0-.05.02-.09.02-.14,0-.16-.02-.32-.03-.49,0-.16,0-.32-.03-.48-.05-.3-.12-.6-.18-.9.02,0,.04-.02.06-.02-.07-.03-.14-.05-.21-.08.15-.2.35-.2.49,0,.05.07.12.15.19.17.25.07.3.25.28.46-.03.25-.07.49-.1.73-.01.08-.02.16-.02.23,0,.37.11.74-.03,1.1,0,.01,0,.04,0,.05.18.28.02.56.02.84,0,.33-.04.66-.06.99,0,.07.04.13.04.2,0,.24-.02.48-.02.71,0,.09,0,.19.03.27.1.32.14.63.09.98-.06.44-.02.91-.01,1.36,0,.25.03.51.04.76,0,.11-.05.21-.05.32-.02.24-.01.48-.04.72-.02.2-.1.4-.12.6-.02.26,0,.53,0,.79,0,.38,0,.77-.03,1.15-.03.39-.1.78-.15,1.16,0,.04.03.09.03.13,0,.1.01.19.02.29-.02,0-.05,0-.07.01.03.06.07.12.11.2-.06.02-.12.05-.18.07.05.19.14.37-.02.55-.01.01-.02.05-.01.07.03.16.06.33.1.49-.06.02-.12.04-.17.06,0,.02,0,.04,0,.05.02.11.05.23.06.34,0,.15-.01.29-.03.44-.02.12-.07.25-.08.37-.02.13,0,.26-.01.38-.05.58-.08,1.15-.15,1.73-.11.81-.24,1.61-.38,2.42-.01.09-.09.17-.13.24,0,.12.04.24.03.36-.09.69-.18,1.39-.29,2.08-.07.4-.18.8-.26,1.2-.07.32-.11.65-.17.98-.12.61-.23,1.23-.37,1.84-.12.52-.28,1.02-.44,1.53-.1.33-.24.64-.34.97-.15.51-.25,1.04-.43,1.54-.2.57-.48,1.11-.71,1.67-.08.19-.16.39-.24.59-.2.5-.39,1.01-.6,1.51-.17.42-.3.86-.54,1.23-.39.59-.64,1.24-.96,1.86-.18.36-.48.67-.65,1.03-.15.3-.45.53-.45.9,0,.19-.11.32-.26.44-.29.24-.55.51-.82.77-.11.11-.33.14-.26.3-.1.18-.19.3-.24.44-.01.03.12.16.19.16.34.02.57.36.95.3.33-.05.68.02,1.01-.04.48-.08.94.05,1.41.03.89-.04,1.64.39,2.35.87.3.2.57.43.86.65.22-.51.6-.74,1.15-.8.49-.06.98-.2,1.46-.34.4-.12.64-.46.91-.75,1.02-1.08,1.67-2.39,2.36-3.67.29-.53.62-1.05.86-1.6.28-.67.47-1.38.71-2.07.09-.25.21-.49.28-.75.28-1.1.54-2.2.82-3.3.08-.31.2-.61.25-.93.06-.38.05-.76.09-1.14.01-.12.06-.24.09-.37.02-.06.05-.12.05-.18-.03-.32-.01-.64.15-.92.22-.37.14-.77.21-1.15.08-.48.18-.96.26-1.43.07-.39.12-.78.17-1.16.09-.67.18-1.34.26-2.01.06-.44.09-.89.16-1.33.07-.45.06-.91.14-1.37.08-.47.09-.95.15-1.43.04-.31.11-.61.15-.91.03-.19.03-.39.05-.58.03-.37.05-.73.08-1.1.03-.34.09-.67.11-1.01.02-.35.01-.69.01-1.04,0-.05-.02-.11,0-.14.23-.38.05-.79.09-1.18.02-.2.07-.39-.07-.59-.04-.06.03-.21.05-.32.03-.17.08-.33.1-.5.11-.66.22-1.33.31-2,.11-.76.24-1.51.28-2.27.02-.44.06-.87.1-1.31,0-.09.03-.18.06-.3.07.09.12.15.17.21.17-.26.14-.7-.09-.84.08-.26.18-.53.23-.8.03-.14-.05-.3-.05-.45,0-.12.03-.25.06-.37.02-.12.13-.24-.01-.37-.02-.02,0-.09,0-.13.08-.31.16-.62.25-.93.02-.06.08-.11.13-.14.03-.02.12.01.12.03,0,.05-.02.11-.03.16-.05.26-.21.51,0,.78.03.04.03.13.01.18-.17.47-.13.95-.14,1.43,0,.31-.09.62-.14.93-.01.07,0,.14,0,.21,0,.09.03.17.02.26,0,.19-.01.39-.04.58-.02.1-.08.2-.13.34.24.25,0,.57.02.87.01.23-.08.47-.11.71-.03.23-.02.47-.05.7-.04.41-.11.82-.14,1.24-.02.17.03.34.02.51-.01.46,0,.92-.07,1.37-.09.66-.23,1.31-.35,1.97-.01.07-.01.15-.02.23-.03.31-.06.62-.08.93,0,.09.02.18-.02.24-.07.23-.17.46-.21.7-.11.74-.19,1.49-.29,2.23-.08.58-.18,1.16-.24,1.75-.06.62-.08,1.24-.14,1.86-.09.88-.22,1.76-.31,2.64-.06.62-.09,1.25-.14,1.88-.03.34-.09.68-.13,1.02-.06.54-.11,1.09-.19,1.62-.04.27-.14.52-.2.79-.08.39-.13.79-.21,1.18-.13.63-.28,1.25-.43,1.88-.06.25-.16.5-.23.75-.09.31-.14.64-.24.95-.23.72-.47,1.44-.7,2.16-.09.29-.13.59-.23.88-.12.34-.27.68-.44,1-.32.64-.64,1.28-.98,1.9-.51.94-1.03,1.87-1.68,2.73-.46.61-1.06,1.02-1.68,1.42-.03.02-.07.04-.1.07,0,0,0,.01-.02.04.04.02.08.04.14.08-.41.13-.79.28-1.18.37-.37.09-.76.13-1.14.18,0,.02,0,.04,0,.07.07,0,.14.01.21.02,0,.02.01.03.02.05-.08.03-.15.06-.26.1.08.24.23.47.44.58.17.09.23.24.31.37.19.3.35.62.52.93.25.48.71.69,1.18.86.3.11.56-.1.81-.25.03-.02.05-.05.07-.06.45-.07.71-.46,1.09-.67.61-.34,1.11-.8,1.43-1.46.29-.6.65-1.15.93-1.75.46-.99.79-2.02,1.03-3.09.15-.66.4-1.29.59-1.94.08-.29.13-.6.2-.89.02-.07.04-.14.06-.21.02,0,.04,0,.06,0v.57c.16.05.23.03.32-.17.64-1.47.93-3.03,1.2-4.59.11-.64.21-1.28.3-1.93.01-.08-.03-.17-.04-.28.24-.17.2-.48.21-.77,0-.05-.03-.09-.02-.14.07-.35.16-.69.21-1.04.08-.47.13-.95.2-1.42.08-.5.16-1,.25-1.5.03-.19.06-.37.1-.57.04-.02.1-.06.16-.09,0-.01,0-.03,0-.04-.07,0-.15.02-.25.03,0-.22,0-.43,0-.64,0-.03.13-.08.19-.07.05.01.12.1.12.16-.04.63-.07,1.27-.14,1.9-.08.78-.2,1.56-.28,2.35-.03.29,0,.6,0,.89-.03,0-.09.01-.09.03-.05.26-.09.52-.13.78.02,0,.04,0,.06.01.05-.27.1-.55.15-.82.01.08.05.15.04.23-.09.7-.16,1.41-.29,2.1-.08.42-.24.82-.37,1.24,0,.03-.03.07-.02.09.2.39,0,.75-.08,1.11-.14.7-.32,1.4-.5,2.1-.08.34-.19.67-.28,1-.05.19-.08.38-.13.56-.16.54-.32,1.09-.49,1.63-.2.64-.42,1.28-.63,1.92-.11.32-.23.63-.34.95-.02.07,0,.15,0,.26-.02.02-.08.08-.13.14.08.03.16.06.3.11-.11.2-.21.4-.32.6-.04.07-.12.14-.12.22-.01.18-.07.33-.22.45-.03.02-.07.08-.06.09.14.19-.07.23-.13.33-.04.06-.04.13-.07.19-.02.05-.05.09-.09.13-.19.17-.38.33-.57.5-.11.09-.25.16-.33.27-.13.17-.21.38-.33.56-.11.17-.24.33-.37.5.4.18.81.09,1.2,0,.39-.09.75-.26,1.09-.47.55-.34,1.17-.31,1.78-.17-.11,0-.21,0-.32,0-.13,0-.25,0-.38.01-.11.01-.22.05-.33.08v.08c.46-.03.9-.06,1.35-.09,0,0-.01.04-.03.1.67.15,1.36-.03,2.04.23.63.24,1.32.3,2.02.44,0-.02.03-.09.02-.16,0-.32-.02-.65-.04-.97,0-.07-.05-.14-.07-.22-.03-.11-.08-.23-.07-.34,0-.18.07-.36.08-.54.06-.89.35-1.7.71-2.5.39-.88.73-1.78.92-2.74.12-.61.33-1.19.32-1.83,0-.2.1-.39.13-.59.05-.32.07-.64.1-.96,0-.04-.04-.08-.05-.12-.01-.06-.04-.14-.02-.2.17-.42.27-.85.25-1.31,0-.05.05-.11.08-.17.02-.04.06-.09.05-.12-.15-.5.04-.99.05-1.49.01-.87.03-1.75.05-2.62,0-.22.01-.47.28-.58.05-.02.11-.03.2-.05-.02.08-.04.13-.05.18.02,0,.05.01.05,0,.09-.14.2-.25.15-.45-.04-.15-.03-.32,0-.47.04-.15.05-.24-.16-.29.25,0,.23-.15.24-.31.02-.32.07-.63.09-.95.02-.27-.07-.38-.33-.48-.07-.03-.1-.13-.15-.2.11,0,.22,0,.33,0,.14-.02.22-.1.15-.28-.19.05-.39.07-.47.29ZM72.67,73.23s.01,0,.02,0c-.02-.12-.03-.24-.04-.36,0-.04.01-.09,0-.14-.06-.25-.15-.5-.19-.76-.09-.66-.15-1.32-.22-1.99-.02-.21-.06-.42-.09-.63-.05-.28-.11-.56-.16-.83,0-.06.06-.15.04-.18-.27-.33-.14-.73-.2-1.1-.09-.48-.11-.97-.18-1.46-.02-.13-.13-.26-.11-.37.04-.31-.09-.58-.13-.88-.04-.34-.13-.67-.19-1-.06-.35-.1-.71-.19-1.06-.04-.16.08-.36-.11-.48.09-.12.07-.22-.02-.35-.09-.13-.13-.31-.12-.47.01-.43-.11-.83-.18-1.24-.05-.32-.09-.65-.13-.97-.03-.24-.03-.48-.07-.71-.07-.43-.17-.86-.26-1.29-.05-.26-.11-.52-.17-.78-.07-.32-.13-.64-.2-.96-.05-.25-.1-.49-.16-.74-.07-.29-.16-.57-.22-.86-.05-.24-.11-.49-.1-.73,0-.22.02-.43-.07-.64-.04-.09.02-.23-.02-.32-.14-.43-.28-.86-.29-1.33,0-.3-.12-.6-.17-.9-.03-.16-.01-.33-.06-.49-.05-.19-.15-.37-.23-.55-.21-.48-.44-.96-.51-1.49-.04-.3-.05-.62-.47-.65-.11,0-.23-.06-.33-.03-.54.17-1.08.37-1.62.54-.29.09-.62.08-.73.42.03.08.05.16.07.23.03.13.05.26.09.38.19.64.41,1.27.57,1.91.18.71.29,1.43.44,2.14.18.83.36,1.66.54,2.5.13.61.26,1.23.39,1.84.01.05,0,.11,0,.16,0,.06.01.11.03.16.02.06.09.13.07.17-.08.15,0,.26.04.39.23,1.01.44,2.02.67,3.03.2.89.42,1.78.62,2.67.09.41.16.82.25,1.24.16.76.35,1.52.49,2.28.14.77.23,1.54.34,2.31.06.38.1.76.17,1.14.05.27.14.52.18.79.06.45.09.9.13,1.35.02.26.05.52.08.78.03.26.07.51.07.77,0,.24.17.46.07.71,0,.02.08.09.13.13.06.04.13.07.19.11,0,.02-.02.04-.03.05-.07,0-.14-.02-.23-.03.05.26.1.5.15.73.03,0,.05.01.08.02.04-.1.07-.19.14-.35.02.29.08.51.04.72-.05.26-.02.49.09.73.07.15.12.3-.07.41-.03.02-.03.13-.02.19.02.42.05.85.07,1.27.01.21.07.41.23.57-.01-.09-.03-.19-.04-.28.03,0,.05-.02.08-.03.05.13.12.25.14.39.03.21,0,.43.05.64.13.62.07,1.26.31,1.86.02.04,0,.1-.01.15-.01.09-.06.19-.04.27.12.44.27.88.39,1.32.24.86.46,1.71.69,2.57.14.51.26,1.03.4,1.55.06.21.14.41.22.62-.08.02-.13.03-.18.05.09.1.22.19.22.29,0,.08-.13.17-.2.26.24-.05.31.03.37.25.17.67.36,1.34.54,2,.13.48.28.95.42,1.43.07.23.11.47.19.7.22.66.43,1.32.4,2.03,0,.03.02.06.04.08.2.23.12.53.16.79.05.3,0,.63-.01.94,0,.21.11.35.3.42.13.05.27.13.39,0,.19-.22.43-.27.7-.19,0,0,.01.02.02.02.12.16.04.59.46.35,0,0,.03.05.05.05.05.01.1.02.14.02.08-.01.16-.07.24-.06.43.03.68-.23.6-.65-.02-.1-.05-.21-.02-.3.07-.23-.01-.4-.13-.59-.1-.17-.27-.31-.2-.55,0-.02-.04-.05-.07-.08-.06-.07-.12-.14-.17-.22-.07-.11-.14-.23-.21-.36.01-.02.04-.06.05-.08-.15-.23-.31-.43-.43-.66-.12-.23-.2-.48-.3-.72-.13-.3-.3-.6-.4-.91-.27-.89-.53-1.78-.78-2.68-.15-.52-.28-1.04-.4-1.56-.05-.19-.06-.38-.1-.57-.12-.49-.25-.98-.36-1.48-.11-.5-.2-1.02-.3-1.52-.07-.34-.18-.67-.24-1-.09-.56-.15-1.14-.24-1.7-.14-.96-.29-1.92-.43-2.87-.03-.18-.08-.35-.09-.53-.03-.31-.03-.61-.05-.92-.03-.38-.07-.76-.11-1.14-.01-.13-.06-.26-.08-.36,0-.13.02-.25.02-.36-.03-.49-.07-.98-.11-1.47-.02-.22-.05-.45-.07-.67,0-.09,0-.18,0-.27ZM10.47,80.25s0,0,0,0c.01-.08.02-.16.04-.25.04-.29.16-.61.1-.88-.05-.22.01-.35.08-.51.05-.11.1-.23.15-.34-.02-.02-.05-.04-.07-.07-.05.09-.11.17-.16.26-.02,0-.03-.01-.05-.02.02-.1.04-.21.06-.31.08,0,.15-.03.16-.08.09-.21,0-.37-.22-.5,0-.11,0-.22,0-.33.01-.22.01-.44.04-.66.05-.38.15-.76.16-1.14.01-.71-.02-1.42-.05-2.13-.02-.53-.07-1.06-.09-1.6,0-.12.06-.25.08-.36-.03-.16-.08-.33-.09-.5-.02-.35,0-.69,0-1.04-.02-.79-.03-1.58-.06-2.37,0-.21-.05-.42-.08-.63-.07.07-.08.15-.1.23-.08.4-.21.79-.19,1.21,0,.05-.03.1-.06.15-.04.09-.1.17-.12.27-.07.34-.14.68-.18,1.02-.17,1.17-.54,2.28-.96,3.38-.19.5-.36.99-.38,1.53,0,.11-.06.22-.1.33-.02.06-.07.12-.07.18-.02.3-.02.6-.03.93.17.05.15.18.03.35-.04.05-.07.16-.05.2.15.19,0,.26-.09.3,0,.12,0,.2,0,.28-.01.1-.04.2-.06.3-.03.18-.04.37-.08.56-.02.13-.07.26-.09.4-.01.12.03.24,0,.35-.12.43-.26.85-.39,1.27-.24.77-.46,1.55-.74,2.3-.33.89-.71,1.76-1.07,2.64-.1.24-.31.24-.56.27.08-.25.14-.46.21-.68-.12.14-.17.3-.25.45-.29.49-.59.98-.9,1.46-.18.29-.38.57-.56.86-.06.09-.13.19-.16.3-.08.36-.15.73-.22,1.09,0,.03-.02.07-.04.08-.19.1-.08.24-.04.35.46,1.07,1.29,1.73,2.39,2.03.47.13.98.16,1.39-.15.49-.36.93-.78,1.1-1.4.04-.14.06-.29.13-.42.12-.25.27-.49.37-.74.12-.29.22-.59.32-.89.14-.43.29-.86.4-1.3.12-.46.2-.92.31-1.38.07-.28.26-.52.29-.83.02-.31.14-.62.18-.93.03-.19,0-.39,0-.58,0-.1.08-.19.09-.29.02-.23.01-.47.03-.7.02-.24.05-.47.09-.71.03-.2.08-.4.13-.59ZM10.72,65.08c.03.33.05.58.06.83,0,.25-.02.5,0,.74.05.6.15,1.2.17,1.8.04.94.05,1.89.07,2.83,0,.38,0,.77,0,1.15,0,.07.03.14.05.22.03,0,.06,0,.09-.01.02-.49.06-.97.07-1.46,0-.33,0-.65-.02-.98-.02-.54-.06-1.08-.07-1.62,0-.21.04-.42.06-.62,0-.01.02-.02.03-.04.02-.06.06-.14.05-.19-.03-.14-.13-.28-.13-.42-.02-.49-.02-.99-.02-1.48,0-.04.03-.08.05-.12.02,0,.04,0,.06,0,.07.39-.04.82.15,1.19.03-.07,0-.16.04-.19.23-.25.19-.55.17-.85,0-.11-.1-.22-.1-.33,0-.39.03-.78.06-1.17.02-.23.05-.46.08-.68,0-.02.01-.05,0-.07-.16-.22-.07-.46-.06-.69,0-.13-.03-.27-.05-.45.11-.12.12-.28,0-.39v-.86c-.09.05-.2.09-.21.14-.02.07.05.16.08.25-.03.02-.09.05-.16.09.02,0,.05.01.07.02-.02.15-.04.3-.05.45,0,.1,0,.2,0,.31-.02.04-.08.1-.1.17-.04.09-.05.19-.09.34.08.01.2.03.4.07-.15.11-.26.18-.38.26.03.06.06.13.1.19-.07.04-.12.07-.19.11.06.08.11.13.18.22.05-.17.09-.31.12-.45.02,0,.05.01.07.02v.47c-.06.04-.16.1-.21.13-.06.47-.1.87-.15,1.29-.09-.08-.17-.14-.29-.25ZM31.84,99.64s.04.02.06.03c.15-.22.3-.45.44-.67.26-.41.43-.85.51-1.33.1-.57.24-1.13.37-1.7.01-.06.03-.12.04-.18,0-.05,0-.11,0-.17-.06.01-.13.01-.17.05-.06.05-.1.12-.13.19-.14.29-.27.58-.4.88-.08.18-.17.37-.22.56-.09.34-.16.69-.24,1.03-.03.13-.11.25-.13.38-.06.31-.1.62-.14.94ZM64.57,47.42s0-.09,0-.14c-.38-.06-.74.13-1.12.14-.4,0-.79.07-1.19.1-.39.04-.77.07-1.16.11v.1c1.16-.1,2.32-.21,3.47-.31ZM10.72,82.46c-.09.33-.19.67-.27,1-.02.08-.04.21,0,.26.04.05.17.03.28.04-.02-.16-.08-.31-.04-.39.16-.3.08-.6.03-.91ZM73.56,92.17s.06-.01.08-.02c-.1-.49-.2-.98-.3-1.48-.11.53.02,1.02.22,1.5ZM7.12,51.84c.35,0,.55-.68.37-1.1-.23.35-.03.8-.37,1.1ZM25.36,92.3s.09.03.13.04c.1-.34.2-.67.3-1.01-.03,0-.05-.02-.08-.03-.12.33-.23.66-.35.99ZM11.55,60.58s-.06,0-.1,0c-.04.16-.08.32-.11.49,0,.04.05.13.08.13.04,0,.14-.04.14-.07,0-.18-.01-.37-.02-.55ZM6.15,59.91c-.04.23-.08.42-.11.6,0,.03.03.08.05.09.03,0,.08,0,.1-.03.08-.08.07-.52-.04-.66ZM73.05,89.84c0,.18.02.35.03.52,0,.02.03.06.06.06.02,0,.06,0,.08-.02.07-.08-.03-.48-.17-.55ZM28.17,100.27v-.05c-.35-.03-.7-.05-1.05-.08,0,.02,0,.04,0,.06.35.02.7.04,1.05.07ZM10.72,82.33s.07,0,.11,0c.01-.17.03-.34.04-.51-.02,0-.05,0-.07,0-.02.17-.05.34-.07.51ZM11.42,59.78h.08v-.65h-.02c-.02.21-.04.43-.06.65ZM47.28,98.66c-.06.09-.12.18-.19.3.27.03.29.01.19-.3ZM47.15,93.82s.06,0,.09,0c.01-.17.03-.33.04-.5-.03,0-.06,0-.09,0-.01.17-.02.34-.03.51ZM9.58,87.51c.17-.1.23-.32.13-.53-.05.2-.09.36-.13.53ZM6.14,62.34c-.27.15-.28.19-.08.36.02-.11.04-.2.08-.36Z"/>
      <path class="cls-1" d="M39.06,32.74c.21.5.49.94.95,1.19.47.26.95.12,1.42-.09.61-.27,1.03-.71,1.28-1.32.01-.03.02-.06.05-.07.14.43,0,.78-.25,1.09-.5.61-1.16.82-1.93.74-.19-.02-.38,0-.57,0-.38,0-.67-.18-.89-.46-.2-.25-.36-.53-.51-.81-.08-.15-.18-.19-.32-.17-.61.09-1.23.18-1.84.29-.07.01-.12.12-.17.18-.01.02-.02.04-.02.07-.04.44-.18.82-.61,1.05-.51.27-1.03.48-1.6.25-.25-.1-.46-.32-.65-.52-.17-.17-.27-.41-.43-.59-.17-.19-.39-.33-.58-.5-.02-.02-.06-.02-.09-.02-.53.09-1.01-.23-1.54-.19-.17.01-.34.03-.5.09-.47.17-.93.43-1.41.54-.5.11-1.01.04-1.5-.16-.14-.06-.31-.08-.48-.11.11-.18-.03-.3-.12-.41-.11-.12-.23-.23-.37-.32-.3-.2-.58-.41-.74-.75,0,.04-.01.08,0,.11.28.47.12,1.02.25,1.52.09.35.17.69.25,1.04.01.06-.02.12-.04.2.2.09.24.25.27.48.1.7.45.96,1.18,1,.72.03,1.45.07,2.17.11.11,0,.22.06.34.08.24.06.47.15.71.16.25,0,.35.14.43.32.06.12.03.22-.13.22-.07,0-.14-.01-.21-.03-.39-.07-.78-.16-1.18-.22-.25-.04-.52,0-.77-.04-.71-.1-1.42-.22-2.13-.31-.33-.04-.54-.18-.71-.48-.53-.91-.84-1.89-.91-2.93-.04-.66-.02-1.32,0-1.98,0-.15.06-.28-.01-.44-.02-.05.06-.21.12-.22.26-.08.53-.12.8.04.12.07.29.04.44.07.32.05.64.11,1,.17-.06-.28-.11-.55-.17-.82,0-.03-.02-.06-.01-.09.09-1.05-.14-2.88-.41-3.88-.11-.39-.07-.82-.06-1.24,0-.08.17-.2.29-.24.26-.1.37-.33.52-.53.02-.02-.02-.08-.03-.15.12-.06.26-.12.39-.19.18-.1.34-.24.53-.32.18-.08.38-.15.57-.16.27-.02.53.01.8.02.1,0,.2,0,.3-.01-.28-.73-.62-1.43-.7-2.2-.03-.3.04-.62,0-.92-.08-.53-.22-1.04-.31-1.57-.03-.18,0-.37.03-.56.08-.47.22-.92.65-1.21.27-.18.57-.13.87-.12.11,0,.22.03.33.01.29-.03.59-.04.85-.14.34-.12.65-.08.99-.05.41.04.83-.04,1.25-.05.71-.02,1.42-.04,2.12-.03,1.22.02,2.41-.25,3.61-.37.17-.02.34,0,.52.04-.62.09-1.24.18-1.87.27v.13c.47-.03.93-.06,1.38-.1.77-.07,1.54-.13,2.31-.21.28-.03.56-.08.83-.16.04-.01.07-.17.07-.26,0-.07-.06-.14-.09-.21.22-.04.41-.07.64-.11.08.04.2.11.4.22.02-.21.09-.4.06-.57-.13-.77-.27-1.53-.43-2.29-.02-.09-.1-.2-.19-.25-.12-.07-.23-.05-.28.13-.06.2-.12.41-.22.6-.28.5-.94.58-1.43.16-.39-.34-.77-.69-1.16-1.03-.06-.06-.13-.11-.21-.15-.14-.06-.26-.05-.32.12-.13.33-.36.59-.65.79-.14.09-.32.16-.48.16-.84,0-1.55-.27-2.06-.99-.28-.39-.53-.4-.95-.13-.1.06-.19.14-.3.19-.21.11-.31.26-.36.5-.07.4-.55.63-.98.47-.5-.19-.99-.43-1.37-.81-.1-.1-.16-.23-.24-.34-.04-.05-.11-.07-.16-.11-.03.05-.08.1-.08.16,0,.15,0,.3.02.44.02.3.06.61.07.91,0,.7.18,1.37.41,2.03.01.04.01.07.03.15-.15.01-.29.05-.42.02-.07-.01-.16-.13-.17-.21-.14-1.01-.28-2.02-.41-3.04-.04-.29-.07-.55-.36-.73-.26-.16-.23-.46-.18-.73.07,0,.14-.02.25-.03-.09-.06-.14-.09-.2-.12-.07-.21.57-.35.93-.19.11.05.17.19.25.29.02-.01.04-.02.05-.03-.01-.04-.03-.08-.04-.12-.06-.17-.03-.26.17-.29.4-.06.79-.13,1.18-.21.06-.01.12-.03.17-.07.25-.21.54-.28.84-.3.18-.01.26-.11.25-.27-.03-.48-.07-.96-.12-1.43-.03-.32-.11-.64-.14-.96-.05-.55.11-1.04.49-1.46.05-.05.09-.11.1-.13-.07-.11-.1-.21-.17-.27-.15-.12-.31-.21-.47-.31-.29-.19-.59-.36-.86-.56-.27-.2-.33-.49-.29-.8.15-1.05.48-1.34,1.55-1.31.05,0,.09,0,.14,0,.34,0,.64.08.73.48,0,.04.03.07.05.1,0,.01.02.02.05.04.33-.23.52-.71,1.06-.64-.31-.04-.33-.24-.31-.47.01-.17.02-.35.01-.52-.06-.92.91-1.38,1.56-1.31.55.06.92.54,1.05,1.1.06.27.1.53.15.79.44-.14.9-.28,1.36-.42,0-.02,0-.04,0-.06-.19.02-.38.05-.57.07.21-.49.76-.62,1.15-.5.18.05.25.15.27.36.04.34.19.67.28,1,.06.23.12.47.16.71.02.09,0,.2-.03.27-.3.56-.61,1.11-.94,1.66-.08.14-.22.26-.35.4.27.34.41.77.43,1.23,0,.2-.04.41-.03.61.02.45.06.9.11,1.35.02.23.08.45.11.67.03.22.15.28.34.23.2-.05.39-.12.6-.14.27-.03.55-.04.82-.05.29-.01.58-.01.87-.02.29-.01.5.06.59.38.08.27.22.53.31.8.07.22,0,.41-.17.58-.12.13-.22.27-.33.42-.02.03,0,.09,0,.14.05.67.15,1.34.14,2,0,.55-.12,1.1-.22,1.64-.07.36.06.55.44.56.55.02,1.1.03,1.65.05.18,0,.27.1.27.29,0,.19,0,.38,0,.56,0,.07.02.13.02.14-.08.14-.14.24-.2.34-.12.19-.25.38-.36.58-.24.44-.33.93-.33,1.43.02,1.13.03,2.27.04,3.4,0,.02.01.04.03.09.17-.11.33-.21.5-.3.35-.19.72-.12,1.08-.04.35.08.7.18,1.04.28.04.01.09.1.08.15-.01.13.03.16.16.14.26-.05.44.12.36.37-.07.21-.21.41-.31.61-.04.07-.08.15-.09.23-.05.78.05,1.55.16,2.32.07.53.08,1.08.07,1.62,0,.38-.08.76-.11,1.14,0,.08.01.17.02.2.33-.02.63-.06.92-.06.12,0,.26.08.35.16.42.4.66.85.58,1.47-.07.6-.06,1.22-.08,1.82-.01.49-.01.98-.02,1.47-.01.49.36.95.85,1.08.23.06.45.13.66.21.64.24,1.28.49,1.91.75.08.03.18.12.19.19.01.06-.1.14-.15.22-.09.15-.17.31-.26.46-.26.43-.26.92-.31,1.39-.04.38-.12.76-.15,1.14-.01.17.03.36.08.53.01.04.12.09.18.08.22-.04.43-.05.64.08.1.07.26.04.39.06.56.09,1.12.18,1.67.27.33.05.67.06,1.01.12.43.07.85.17,1.28.23.65.09,1.3.15,1.94.22.5.06,1.03.03,1.49.2.82.3,1.69.26,2.51.51.79.25,1.57.51,2.34.78.3.1.54.3.64.62.02.07-.02.15-.03.23-.08-.03-.19-.04-.23-.1-.12-.21-.32-.28-.52-.39.08.16.21.3.21.44,0,.32-.06.65-.13.97-.13-.38.15-.8-.14-1.15-.13.04-.23.07-.32.11-.14.06-.24.01-.32-.11-.16-.26-.44-.36-.7-.44-.91-.27-1.82-.52-2.74-.74-.48-.11-.98-.13-1.47-.21-.39-.07-.76-.19-1.15-.25-.52-.08-1.04-.13-1.56-.18-.39-.04-.78-.06-1.18-.09-.03,0-.06,0-.09-.02-.86-.36-1.77-.45-2.69-.48-.19,0-.37.08-.56.08-.23,0-.46-.04-.69-.06-.14-.01-.2.04-.2.19-.04.7-.09,1.4-.12,2.1,0,.12.08.25.11.37.09.33.06.65-.09.96-.01.02,0,.06,0,.14.21-.13.38-.22.55-.33.21-.14.45-.18.63-.03.05.04.09.16.07.22-.07.27-.31.31-.54.37-.29.08-.58.17-.85.3-.28.13-.55.31-.81.48-.46.31-.99.27-1.5.33-.64.08-1.3.08-1.95.12-.12,0-.23.03-.35.06-.52.11-1.03.25-1.56.33-.73.11-1.47.18-2.21.25-.7.07-1.4.11-2.09.17-1.41.12-2.83.2-4.25.11-.66-.04-1.32-.05-1.98-.06-.17,0-.33.05-.5.08-.04,0-.08.01-.12,0-1.37-.08-2.74-.14-4.1-.24-.61-.04-1.22-.16-1.84-.23-.23-.03-.47,0-.7-.02-.25-.02-.49-.07-.74-.07-.77,0-1.51-.22-2.26-.32-.58-.08-1.14-.25-1.71-.37-.15-.03-.29-.05-.44-.06-.67-.05-1.28-.27-1.87-.65.05-.04.09-.07.19-.14-.5-.03-.88-.22-1.23-.47,0-.02.01-.05.02-.07.11.03.22.05.33.08.21.07.43.21.64,0,.08-.07.09-.22.17-.28.53-.36.59-.9.56-1.46-.02-.4,0-.8-.01-1.2,0-.02-.01-.05,0-.07.17-.22.04-.29-.22-.31.09-.07.14-.11.15-.12-.02-.19-.05-.35-.06-.52,0-.16-.07-.23-.24-.19-.68.16-1.38.26-2.04.47-.85.28-1.73.34-2.59.48-.33.05-.65.11-.98.16-.45.07-.9.13-1.35.19-.88.13-1.77.25-2.65.39-.35.05-.7.11-1.04.2-.16.04-.32.13-.47.2-.26.13-.52.25-.76.39-.21.13-.41.28-.61.43-.02-.02-.04-.04-.06-.05.13-.15.26-.32.41-.45.15-.14.34-.24.48-.34-.03,0-.12,0-.23.02.09-.26.27-.37.48-.42.44-.1.88-.17,1.32-.26,1.33-.28,2.7-.36,4.01-.74.77-.22,1.59-.31,2.38-.46.42-.08.84-.21,1.27-.26.53-.06,1.02-.24,1.51-.42.28-.1.58-.13.87-.19.11-.02.16-.07.18-.2.03-.27.12-.53.17-.8.01-.07-.02-.15-.06-.22-.24-.4-.15-.87.25-1.14.82-.55,1.74-.79,2.71-.72.45.03.89.21,1.34.28,1.14.17,2.29.31,3.44.46.15.02.3.04.44.07.19.05.35.08.56,0,.22-.08.48-.04.73-.04,1.2,0,2.39.02,3.59,0,1.36-.03,2.73-.07,4.08-.18,1.1-.09,2.2-.3,3.3-.43.43-.05.86-.04,1.29-.07.64-.05,1.27-.1,1.91-.16.2-.02.39-.09.58-.07.66.07,1.28-.14,1.92-.19.34-.03.7-.08,1.02-.2.26-.11.48-.34.7-.53.04-.04.04-.15.02-.22-.02-.11-.08-.22-.11-.33-.06-.19-.09-.36-.05-.57.04-.23-.05-.48-.08-.72-.05-.34-.1-.69-.14-1.03-.03-.28-.04-.3-.3-.19-.26.12-.48.3-.73.45-.27.16-.57.31-.86.16-.39-.2-.74-.46-1.1-.71-.09-.06-.14-.19-.23-.33-.1.34-.17.65-.27.93-.1.27-.22.54-.37.79-.14.24-.36.27-.64.24-.64-.09-.98-.53-1.29-1.03-.07-.12-.2-.21-.33-.29-.12-.08-.28-.11-.4-.19-.05-.03-.06-.13-.11-.18-.06-.06-.14-.13-.2-.12-.43.05-.86.14-1.29.19-.8.09-1.61.15-2.42.23-.14.01-.28.03-.44.05ZM46.36,24.25c.43-.19.81-.5,1.32-.47.05,0,.16-.11.15-.14-.02-.08-.09-.18-.16-.2-.13-.03-.28-.03-.42-.02-.51.03-1.02.08-1.53.1-.8.03-1.61.02-2.41.05-.92.04-1.84.12-2.76.18-.1,0-.19.05-.29.08-.22.05-.44.13-.66.15-.31.02-.63-.04-.94-.04-.73,0-1.46.01-2.19.01-1.46,0-2.92,0-4.37,0-.7,0-1.4.03-2.1.03-.27,0-.53-.06-.84-.1.03.1.02.2.07.23.17.14.34.33.54.37.77.17,1.56.3,2.34.43.35.06.7.07,1.05.12.07,0,.12.07.19.11-.04.06-.07.14-.12.19-.08.07-.18.11-.31.19.09.03.14.06.19.07.82.2,1.59-.01,2.36-.27.33-.11.65-.31.99-.35,1.24-.14,2.49-.23,3.74-.32,1.33-.1,2.65-.18,3.97-.27-.03-.14.08-.16.21-.16.58-.01,1.16-.02,1.74-.03.08,0,.17.03.25.05-.15.03-.3.07-.45.09-.65.1-1.3.21-1.96.29-.89.1-1.78.17-2.68.27-.44.05-.87.13-1.31.19,0,0,0,.01,0,.02l2.64-.25c-.08.07-.17.11-.25.12-.86.15-1.75.18-2.59.44-.17.05-.35.05-.52.07-.58.07-1.17.13-1.75.2-.17.02-.34.09-.5.14-.03,0-.05.02-.08.03-.16.03-.31.04-.46.08-.03,0-.06.09-.05.13.09.53.03,1.01-.32,1.46-.45.57-1.02.82-1.73.78-.29-.02-.5-.15-.62-.44-.14-.34-.27-.69-.43-1.02-.12-.24-.14-.44.08-.63-.39-.37-2.04-.23-2.55.22.03.01.06.03.09.04.46.14.55.37.34.8-.18.37-.5.56-.83.73-.5.25-1,.36-1.52.03-.42-.26-.86-.46-1.04-.82.1.9.22,1.9.34,2.91.2.02.2.04.11.26-.06-.03-.13-.06-.2-.09-.02.28.1.42.35.45.26.04.44.16.59.39.07.11.22.2.35.25.33.13.69.21,1.02.35.13.05.23.19.35.29-.01.02-.02.04-.04.06.05,0,.11.01.16,0,.61-.18,1.23-.25,1.86-.15.04,0,.08-.01.12-.01.17,0,.34,0,.5.02.15.02.3.09.46.1.72.05,1.45.08,2.17.12.19.01.39.08.58.06.7-.07,1.39-.16,2.08-.25.88-.11,1.76-.22,2.65-.32,1.03-.12,2.08-.16,3.05-.58.09-.04.2-.03.3-.05,0,.02.01.05.02.07-.08.04-.15.08-.23.11-.22.07-.43.15-.65.2-.5.12-.99.27-1.49.35-.97.16-1.95.28-2.92.42-.05,0-.1.07-.15.11.06.03.13.09.19.08.59-.1,1.17-.24,1.76-.33.68-.1,1.37-.35,2.05.02.25.14.46.08.67-.09.08-.06.24-.03.36-.04.35-.01.69-.02,1.03-.04.1,0,.2-.08.32-.14-.39-.02-.74-.04-1.09-.05.02-.37.15-.45.41-.45.56,0,1.13-.03,1.69-.05.07,0,.15-.02.2-.06.26-.23.57-.28.89-.32.16-.02.31-.08.47-.12,0-.04-.02-.08-.03-.11-.18.03-.37.07-.55.1-.17.03-.34.16-.51-.02.05-.07.09-.14.15-.22-.37-.07-.68.27-1.05.1.03-.06.05-.14.08-.15.23-.08.47-.19.71-.2.3-.02.61.04.92.07.36.03.44-.04.46-.39.01-.2,0-.39.02-.59.02-.63.04-1.26.06-1.89,0-.27,0-.53-.01-.8,0-.19,0-.37-.01-.55,0-.11-.07-.2-.09-.31-.03-.25-.28-.18-.42-.29-.22-.17-.27-.14-.36.12-.02.06-.03.12-.05.18-.11.33-.2.68-.35,1-.08.16-.24.31-.41.39-.71.34-1.58-.07-1.98-.59-.25-.33-.48-.67-.85-.87-.05-.03-.13-.12-.12-.15.03-.07.09-.16.16-.19.2-.09.4-.04.55.1.23.22.45.46.65.71.26.32.55.58.97.68.25.06.41,0,.5-.23.15-.41.28-.82.42-1.23.04-.13,0-.2-.15-.21-.25-.02-.51-.08-.76-.13-.14-.03-.21-.08-.19-.26.02-.17.09-.18.24-.19.47-.02.94-.06,1.41-.12.13-.02.26-.12.39-.19-.01-.02-.02-.04-.03-.06-.52.02-1.05.05-1.57.07ZM51.48,37.42c-.04-.07-.07-.13-.11-.19.4-.48.88-.81,1.52-1.01-.44-.07-.81-.13-1.17-.18-.06,0-.13.03-.21.07-.23.12-.45.26-.68.37-.23.11-.47.23-.71.28-.46.08-.94.1-1.41.17-.12.02-.23.09-.35.13-.06.02-.18.05-.19.03-.11-.23-.28-.09-.42-.07-.26.03-.51.06-.77.09-.51.06-1.02.09-1.52.17-.64.11-1.28.29-1.92.37-.84.1-1.69.11-2.54.16-.28.02-.56.02-.85.04-.34.03-.68.09-1.02.11-.65.02-1.3.03-1.96.03-1.24.01-2.49.05-3.73.03-.9-.01-1.81-.09-2.71-.16-.58-.04-1.16-.16-1.73-.17-.59,0-1.16-.09-1.73-.18-.44-.07-.87-.16-1.3-.24-.96-.17-1.84.02-2.66.54-.05.03-.07.1-.13.19.18-.08.3-.13.43-.19.03.07.05.11.07.16.2.48.22.5.75.39.02,0,.05,0,.07-.01.38-.13.76-.11,1.14-.01.74.18,1.46.41,2.17.71.54.23,1.13.33,1.71.46,1.29.27,2.6.47,3.93.36.27-.02.53-.05.8-.08,0-.02,0-.04,0-.06-.78-.05-1.56-.08-2.33-.15-.79-.08-1.59-.04-2.36-.28.06-.03.12-.03.18-.03.8.06,1.6.15,2.4.16,2.05.03,4.11.04,6.15-.24.77-.1,1.53-.24,2.32-.22.82.03,1.64-.05,2.45-.11.75-.05,1.49-.1,2.23-.21.69-.11,1.38-.19,2.08-.17,1.07.03,2.09-.27,3.08-.66.35-.14.64-.44,1.06-.39-.17.14-.33.32-.52.42-.54.27-1.11.48-1.65.75-.66.33-1.35.53-2.07.65-.05,0-.1.09-.15.13-1.26-.08-2.54-.1-3.81.09.11.1.21.2.32.3.37.34.73.69,1.11,1.03.51.45,1.14.6,1.79.69.03,0,.08-.01.11-.04.29-.23.58-.46.85-.71.23-.22.39-.5.39-.84,0-.06-.02-.14-.07-.17-.16-.12-.34-.23-.52-.34.35-.08.68-.12,1.01.04.35.17.72.2,1.1.16.17-.01.35.04.53.06,0,.03,0,.06,0,.09-.3.2-.54.53-.96.46-.39-.06-.59.12-.76.45-.12.23-.26.5-.47.64-.31.21-.57.52-1.02.55-.2.01-.3.06-.31-.17-.09.04-.17.12-.23.1-.44-.08-.9-.12-1.31-.29-.75-.3-1.31-.88-1.83-1.49-.06-.06-.08-.16-.12-.24-.38.05-.76.07-1.14.15-.15.03-.39.05-.39.32,0,.03-.08.07-.12.1-.12.11-.27.2-.37.33-.17.23-.33.47-.47.73-.24.46-.72.57-1.11.83-.24.16-.49.25-.77.22-.58-.05-1.06-.34-1.47-.71-.33-.3-.65-.59-1.09-.71-.09-.02-.18-.15-.21-.24-.01-.04.12-.13.23-.23-.25.03-.47.04-.69.08-.26.04-.52.13-.78.15-.19,0-.26.09-.31.25-.12.35-.34.62-.66.8-.14.08-.3.14-.44.23-.57.39-1.2.27-1.78.13-.69-.18-1.28-.6-1.78-1.12-.23-.24-.42-.51-.66-.8.21-.05.35-.09.54-.13.16.18.37.4.56.64.62.74,1.44,1.08,2.38,1.14.64.04,1.02-.36,1.03-1.05h-2.63s.03-.06.05-.09c-.08-.1-.13-.24-.23-.29-.48-.25-.94-.56-1.52-.49-.07,0-.19-.02-.21-.07-.16-.33-.48-.21-.71-.29-.06.17-.08.34-.17.43-.21.2-.46.35-.69.53-.06.05-.13.12-.16.19-.07.19-.17.33-.35.45-.33.21-.88.27-1.19.02-.48-.38-.74-.91-.94-1.47-.09-.24-.44-.63-.63-.64-.24,0-.48,0-.7,0,.11.63.22,1.27.34,1.95.11.04.27.11.42.17,0,.02,0,.04-.01.06-.07.01-.14.01-.2.04-.05.02-.11.08-.11.12-.01.2,0,.4,0,.6.11.03.19.05.27.07,0,.01,0,.03,0,.04-.09.02-.18.03-.31.05.03.34.05.67.09,1.01.03.29.06.58.11.87.05.27.08.55.42.64.17.05.33.14.49.21.19.08.38.19.58.23.81.14,1.63.28,2.45.39.8.11,1.59.21,2.39.28,1.48.13,2.96.21,4.43.37,1.4.15,2.8.16,4.2.11.62-.02,1.24-.1,1.86-.09.44.01.86.09,1.31-.01.35-.08.73-.03,1.1-.04,1.41-.02,2.75-.49,4.14-.67.59-.08,1.18-.12,1.77-.18,0,.02,0,.04,0,.06-.29.04-.58.07-.87.11,0,.04.01.07.02.11.43-.05.85-.1,1.28-.14.28-.03.6.07.7-.22.51-.04.96-.08,1.43-.12-.11-.21-.05-.41.14-.5-.03.15-.05.28-.08.41.35.06.73-.11.84-.42.1-.27.2-.56.21-.84.03-.65,0-1.3,0-1.95.01-.72.05-1.43.07-2.15,0-.28,0-.56,0-.84-.42.07-.83.14-1.23.22-.13.02-.26.05-.37.11-.1.06-.19.17-.23.28-.03.09.03.21.05.33-.15-.07-.3-.18-.46-.19-.37-.02-.68-.19-1-.33-.15-.06-.22-.14-.18-.31.01-.05.02-.11,0-.16-.04-.18.08-.24.21-.24.14,0,.29.03.4.1.16.11.29.27.46.44.11-.11.24-.23.41-.39-.28-.1-.51-.18-.77-.28.33-.3.7-.41,1.08-.44.36-.03.74.03,1.1.03.47,0,.91-.14,1.19-.53.16-.23.21-.54.31-.83-.58-.04-1.02.24-1.49.48-.25.13-.56.17-.84.26ZM39.41,18.08c-.04.21-.05.36-.1.5-.08.21-.13.47-.29.6-.5.42-1.09.55-1.72.31-.29-.11-.57-.27-.85-.41-.27-.13-.52-.15-.75.11-.1.11-.22.21-.33.3-.51.38-1.26.35-1.74-.09-.34-.31-.68-.62-1.03-.95-.2.1-.35.3-.44.54-.1.29-.27.52-.56.67-.4.21-.82.26-1.26.17-.28-.06-.37.07-.28.34.1.3.2.59.28.89.06.24.08.49.12.76-.14-.01-.22-.02-.38-.04.09.34.15.65.25.95.13.38.42.59.81.49.32-.09.6,0,.9.05,1.54.24,3.1.36,4.66.35,1.31-.01,2.61.01,3.92-.12.88-.09,1.78-.06,2.67-.09.31-.01.62-.06.92-.04.4.02.73-.16,1.07-.32.06-.03.13-.18.11-.24-.21-.47-.2-.97-.18-1.46.03-.69.06-1.39.12-2.08.02-.24.12-.48.2-.71.07-.21.18-.4.29-.66-.44.06-.82.12-1.21.17-.28.03-.26.36-.45.47,0,0,.03.11.07.15.09.08.21.12.28.21.07.09.1.21.1.32,0,.04-.13.1-.21.12-.21.07-.45.07-.62.19-.16.12-.26.28-.49.19-.03-.01-.09.05-.14.07-.18.04-.38.15-.53.11-.3-.09-.59-.25-.87-.42-.37-.23-.55-.62-.71-1-.07-.17-.17-.29-.38-.31-.42-.02-.83-.05-1.25-.07ZM35.96,9.75c.25-.02.48-.07.7-.05,1.07.09,2.14.03,3.2-.1.33-.04.65-.09.98-.14.15-.03.21-.11.16-.29-.15-.49-.24-.98-.24-1.5,0-.56-.11-1.12-.19-1.68,0-.07-.12-.17-.18-.17-.51.03-1.02.08-1.54.13-.02,0-.04.02-.07.02-.24.05-.47.13-.71.13-.49,0-.97-.03-1.46-.06-.61-.03-.87.19-.81.79.05.49.17.97.25,1.46.03.18.02.34-.16.45-.04.03-.08.12-.07.17.04.28.09.56.13.83ZM36.14,40.56s0,.05,0,.07c.06.02.12.06.19.07.29.05.54.17.77.36.3.24.6.48.92.69.34.23.71.33,1.09.05.11-.09.23-.17.35-.24.57-.33.81-.89,1.04-1.46-.12,0-.22,0-.32.02-.3.08-.64,0-.92.23-.05.04-.17,0-.25-.01-.11-.02-.22-.07-.33-.06-.41.05-.82.12-1.23.19-.07.01-.15.05-.22.06-.23.02-.46.03-.69.03-.14,0-.27,0-.41,0ZM36.69,10.48s-.02.05-.03.08c.06.09.1.19.17.28.22.28.49.53.65.83.15.28.34.5.6.66.3.19.45.17.71-.08.3-.28.45-.65.54-1.03.04-.18,0-.38-.18-.47-.12-.06-.26-.08-.39-.11-.34-.11-.66-.26-1.04-.1-.11.05-.26.02-.39.01-.22-.01-.43-.04-.65-.06ZM33.55,26.36c.07.09.18.21.25.34.18.3.34.62.52.93.26.44.8.45,1.04,0,.29-.54.54-1.11.82-1.71-.9.15-1.76.3-2.64.45ZM35.19,17.73c-.07-.01-.18-.05-.28-.06-.53-.04-1.06-.09-1.6-.11-.28,0-.38.16-.27.42.05.12.12.25.21.33.43.38.87.75,1.31,1.11.04.03.16.05.18.03.16-.26.36-.51.43-.79.07-.28.02-.6.02-.94ZM49.75,31.63s-.04-.02-.06-.03c.07-.32-.23-.36-.4-.46-.12-.07-.36-.06-.48,0-.34.19-.69.23-1.06.21-.1,0-.21,0-.3.03-.04.01-.09.14-.07.17.3.4.59.81.94,1.17.24.25.47.19.71-.07.17-.19.35-.37.49-.57.1-.14.15-.31.22-.47ZM37.53,1.72c.04.29,0,.62.37.76.04.02.06.07.1.1.2.18.39.37.59.54.06.05.17.08.25.07.04,0,.07-.14.08-.22.02-.31.04-.63.02-.94-.01-.31-.02-.63-.12-.92-.16-.48-.66-.55-1.03-.19-.24.23-.24.51-.26.8ZM36.53,5.27c.02-.07.03-.09.03-.11-.04-1.01-.7-1.6-1.46-2.11-.22-.15-.44-.05-.6.18-.21.31-.16.61.19.88.48.37.94.78,1.49,1.05.1.05.22.07.34.11ZM42.22,12.38c.01.09.01.18.04.25.01.04.07.06.11.08.07-.11.23-.28.21-.31-.12-.16.03-.18.09-.23.19-.19.4-.36.56-.57.17-.21.15-.29-.11-.37-.3-.09-.61-.15-.91-.21-.32-.06-.66-.07-.97-.17-.23-.07-.17.19-.3.18,0,.06,0,.12.02.17.1.18.22.35.32.54.13.26.29.5.58.59.12.04.25.03.37.04ZM41.4,2.84c0-.09.02-.19,0-.28-.02-.06-.09-.15-.13-.15-.34,0-.61.14-.71.49-.19.65-.39,1.29-.58,1.94-.05.17.07.21.21.18.37-.08.69-.23.85-.6.22-.5.37-1.02.37-1.57ZM31.4,17.99c-.35.03-.64.1-.94.08-.25-.02-.38.04-.42.29,0,.05-.03.1-.04.16-.13.58.29,1.09.87,1.06.34-.01.78-.42.74-.72-.05-.31-.15-.62-.21-.87ZM33.54,33.23c-.07.57.32.88.66,1.15.32.25.74.13,1.09-.07.29-.17.56-.63.52-1.09-.74.31-1.49.11-2.27,0ZM29.56,26.45c-.2-.08-.37-.14-.54-.21-.43-.18-.87-.34-1.13-.76-.06-.09-.12-.18-.2-.26-.04-.04-.13-.08-.18-.06-.07.04-.17.11-.18.18-.01.13.01.27.05.39.15.51.49.89.82,1.28.1.12.23.16.4.1.39-.12.71-.33.96-.66ZM43.82,18.22c-.23-.06-.4-.12-.57-.13-.44-.04-.87-.04-1.31-.08-.19-.02-.29.08-.42.25.31.26.61.53.92.77.18.15.38.28.57.41.1.07.16.05.21-.07.06-.15.14-.3.21-.44.12-.23.25-.45.4-.71ZM38.17,4.78c0-.51-.25-1-.64-1.41-.14-.14-.35-.23-.54-.29-.16-.05-.26.1-.21.27.18.59.37,1.17.56,1.75.02.06.06.14.11.17.27.15.74-.12.73-.5ZM44.52,32.65c.18.36.43.67.79.89.29.18.45.14.58-.17.13-.31.23-.64.33-.96.06-.16-.05-.19-.17-.19-.24,0-.47.02-.71.03-.32.02-.63.06-.82.4ZM36.24,17.94c.07.09.12.19.2.25.25.2.51.4.78.57.21.13.45.22.69.28.12.03.32-.02.4-.11.2-.23.36-.5.56-.81-.93.05-1.77-.01-2.65-.19ZM44.17,17.2s.02-.05.03-.08c-.03-.03-.07-.06-.09-.1-.03-.07-.1-.17-.07-.2.04-.06.14-.09.21-.1.08-.01.17.01.26.03.53.06,1.06.13,1.59.19.21.02.3-.08.27-.29-.03-.24-.2-.23-.37-.22-.72.03-1.44.12-2.16,0-.26-.04-.54,0-.75,0,.16.2.29.44.49.59.15.12.39.13.59.19ZM31.51,25.54c-.09-.02-.15-.03-.2-.05-.51-.13-1.03-.23-1.52-.41-.37-.14-.73-.2-1.12-.09.01.04.01.09.04.13.12.23.33.34.56.44.36.16.73.26,1.11.2.19-.03.36-.02.55.02.19.04.43.02.58-.24ZM25.95,30.84c.03.14.02.31.1.39.35.36.73.71,1.1,1.05.03.03.13.02.16,0,.21-.21.31-.47.26-.77-.02-.17-.1-.26-.29-.26-.23,0-.47-.02-.7-.06-.06,0-.15-.07-.17-.13-.08-.26-.12-.29-.47-.22ZM28.7,27.52l-.02.09c.29.09.57.18.86.26.08.02.19.01.25-.03.39-.31.54-.75.63-1.25-.2-.02-.37-.03-.5-.04-.31.49-.77.72-1.22.97ZM34.87,10.71c-.5.09-.98.18-1.48.27.02.06.03.09.05.11.2.19.35.4.33.7,0,.03.1.08.15.08.07,0,.13-.06.2-.07.58-.07.81-.45.74-1.09ZM25.71,39.23s-.02.05-.03.07c.11.26.22.52.34.77.02.05.07.11.12.14.3.18.95-.15,1.04-.51-.49-.16-.97-.32-1.46-.48ZM36.45,39.65s0,.05,0,.08c1.41.04,2.8-.17,4.19-.39-.15-.07-.31-.12-.47-.1-1.03.1-2.05.22-3.07.33-.22.02-.44.05-.66.08ZM50.32,30.41c-.07-.15-.1-.33-.2-.44-.08-.08-.25-.12-.37-.11-.11.01-.28.08-.32.18-.14.3-.08.48.21.68.14.1.32.15.49.23.06-.17.12-.34.19-.54ZM29.15,32.09c-.28-.05-.5-.1-.72-.13-.19-.03-.33.05-.41.24-.04.11-.11.22-.17.33.19.23.45.25.7.16.2-.07.38-.19.61-.31-.09-.06-.13-.09-.17-.11.04-.05.08-.09.16-.18ZM31.32,17.68c-.06-.34-.1-.6-.15-.88h-.77c.04.24.06.45.1.66.01.05.06.14.1.14.24.04.48.06.72.08ZM41.17,17.25h1.44c-.33-.48-.78-.63-1.28-.45-.03.01-.06.07-.07.11-.03.1-.05.19-.08.34ZM34.11,12.73c.17-.14.33-.25.47-.39.09-.09.04-.16-.09-.19-.21-.04-.41-.1-.61-.14-.09-.01-.24,0-.26.05-.04.1-.07.27,0,.33.12.13.3.2.5.33ZM39.34,17.31s0-.06-.01-.09c-.58-.11-1.17-.21-1.75-.32-.05.24,0,.35.23.37.34.03.69.1,1.03.11.17,0,.34-.05.51-.08ZM39.47,3.82s.05,0,.07,0c.24-.5.48-1,.72-1.51-.23.14-.46.27-.69.4-.01,0-.02.03-.02.04-.03.35-.06.71-.09,1.06ZM28.22,24.16c.04.05.09.09.11.13.12.23.33.21.53.17.05-.01.13-.12.11-.15-.08-.16-.16-.31-.27-.45-.11-.13-.32-.06-.37.1-.02.06-.06.12-.1.2ZM36.13,11.33c-.13-.17-.24-.35-.38-.49-.08-.08-.24-.11-.31.06-.05.14-.1.27-.16.43h.85ZM42.22,9.97c-.37.06-.71.11-1.04.16.12.21.33.29.65.24.22-.03.35-.15.4-.41ZM34.9,16.98s0,.07,0,.1c.48.04.96.07,1.44.1.04,0,.09-.06.13-.09-.04-.04-.08-.1-.13-.1-.48,0-.96,0-1.45,0ZM34.23,32.78c.11.24.29.34.5.3.22-.05.22-.22.24-.45-.26.05-.5.1-.74.15ZM40.98,16.55c-.27-.12-.84-.07-1.05.1.36-.03.69-.06,1.05-.1ZM43.59,10.82c.09.07.17.15.19.14.12-.08.22-.18.32-.27-.02-.02-.03-.05-.05-.07-.14.06-.27.11-.47.19ZM43.32,10.12s0-.03.01-.04c-.12-.04-.24-.09-.36-.12-.03,0-.07.04-.11.06.03.03.06.1.1.1.12.01.24,0,.37,0Z"/>
      <path class="cls-1" d="M56.06,103.03c.04-.14.1-.28.13-.43.06-.33.31-.41.58-.5.36-.12.72-.26.94-.61.18-.28.41-.53.58-.82.32-.57.55-1.16.56-1.83,0-.43.07-.87.09-1.3.01-.38-.03-.76-.01-1.14.01-.31.06-.62.1-.92.08-.57.16-1.13.24-1.7.04-.25.07-.51.1-.77,0-.07-.01-.14,0-.21.03-.21.07-.41.1-.62.01-.06.03-.12.03-.18,0-.55,0-1.11-.01-1.66-.01-.33-.07-.66-.09-1-.01-.31.01-.63,0-.94,0-.24-.05-.48-.08-.71-.04-.39-.07-.78-.1-1.18-.03-.48-.07-.97-.09-1.45-.03-.72-.06-1.45-.08-2.17-.02-.56-.03-1.12-.04-1.68,0-.27.06-.54.03-.81-.1-.73-.06-1.47-.1-2.2-.04-.75-.1-1.49-.11-2.24-.02-.97-.01-1.95-.03-2.92-.01-.68-.06-1.36-.07-2.04,0-.54,0-1.09.02-1.63,0-.11.04-.2-.11-.23-.03,0-.07-.11-.06-.16.03-.31.11-.62.11-.93,0-.68-.05-1.36-.09-2.05-.05-.81-.1-1.61-.15-2.42-.02-.3-.04-.59-.05-.89,0-.18.08-.41,0-.54-.16-.27.05-.5,0-.75-.06-.26,0-.54-.03-.81-.03-.42-.09-.83-.12-1.25-.05-.66-.06-1.32-.13-1.97-.06-.63-.18-1.25-.26-1.88-.01-.08-.04-.17,0-.23.2-.32.05-.61-.04-.92-.04-.14-.09-.31-.05-.44.14-.51.03-1.02,0-1.53-.02-.39-.12-.78.06-1.16.04-.08.1-.16.15-.24.08.07.17.13.24.21.03.04.03.1.03.16.02.49.09.98.03,1.46-.08.6.06,1.17.09,1.75.09,1.28.14,2.56.22,3.84.04.61.12,1.21.16,1.82.02.28-.01.57-.02.85,0,.02,0,.05.02.06.23.23.12.51.13.77,0,.18.02.36.03.54.05,1.02.1,2.04.15,3.06,0,.15,0,.31.02.46.01.07.09.13.15.21-.19.07-.14.2-.11.36.04.19.02.4.02.6,0,.23-.02.46,0,.69.05.57.12,1.13.16,1.7.02.37-.01.74-.02,1.11,0,.09-.01.17,0,.26.1.56.12,1.12.08,1.68-.02.26.03.53.03.79,0,.82,0,1.65,0,2.47,0,.17-.04.34-.06.51,0,.01,0,.04,0,.04.28.26,0,.57.08.85.06.24.09.49.1.74,0,.19-.05.39-.04.58,0,.56.03,1.12.04,1.67,0,.32-.02.64,0,.95.01.19.09.38.11.58.02.28,0,.57.02.85,0,.1.06.2.09.29.01.04.04.09.03.13-.16.43.02.85.05,1.28.04.53.14,1.06.22,1.59.02.13.08.26.11.39.02.07.04.13.05.2.04.51.07,1.01.1,1.52.06.97.13,1.94.16,2.92.02.59-.04,1.18-.05,1.77,0,.49.04.98.01,1.46-.04.69-.13,1.38-.2,2.08-.02.23-.05.47-.08.7-.03.25-.04.5.02.75.02.09-.08.21-.11.31-.1.36-.2.73-.28,1.1-.08.39-.18.79-.18,1.19,0,.16.19.34.33.47.13.13.32.2.48.29.06.04.13.06.17.12.38.48.89.71,1.47.81.03,0,.07,0,.09.01.57.26,1.09.02,1.62-.14.07-.02.15-.04.23-.03.11,0,.22.02.36.04,0-.02.01.05,0,.06-.19.13-.38.27-.58.38-.16.09-.33.16-.5.23-.08.04-.18.09-.26.08-.43-.03-.89.01-1.29-.13-.65-.23-1.32-.46-1.84-.94-.11-.1-.16-.09-.26.01-.11.11-.25.19-.39.25-.38.18-.76.36-1.16.52-.22.09-.44.16-.57.39-.03.04-.1.06-.15.09-.03-.05-.06-.1-.07-.13-.2.02-.4.04-.6.08-.07.01-.13.08-.2.11-.12.06-.25.1-.37.15h0ZM56.71,102.6s.02.02.03.03c.24-.08.49-.13.71-.25.51-.28,1.13-.29,1.59-.69.02-.01.04-.03.06-.03.23-.03.31-.2.42-.46-.15.04-.31.05-.33.1-.06.19-.22.24-.36.33-.56.36-1.19.54-1.81.77-.11.04-.2.13-.31.19ZM59.56,95.12s-.07,0-.1,0c-.03.37-.06.74-.09,1.11.03,0,.06,0,.09,0,.17-.35.11-.73.1-1.11Z"/>
      <path class="cls-1" d="M22.02,52.17c.01.44.03.86.04,1.28h.06c.12-.15.25-.31.37-.46.04.01.07.03.11.04-.05.37-.09.73-.14,1.1-.03.24-.07.48-.11.72-.04.31-.08.62-.13.93-.06.44-.15.87-.19,1.31-.01.15.08.31.13.5-.07-.05-.12-.08-.17-.12-.01,0-.03.02-.04.03.02.07.04.13.07.22-.17.1-.18.23,0,.4h-.13v.56s-.02,0-.03.01c-.01-.08-.03-.16-.04-.24-.02,0-.05,0-.07,0-.07.69-.15,1.39-.22,2.08.02,0,.04,0,.05,0,.07-.57.13-1.13.2-1.7.02,0,.05,0,.07,0,.01.07.04.14.03.21-.04.44-.1.88-.13,1.32-.02.22.03.45,0,.67-.06.65-.09,1.31-.21,1.95-.14.74-.09,1.48-.21,2.22-.08.52-.12,1.04-.17,1.56,0,.05.05.1.05.15,0,.2.08.44-.22.52-.04.01-.09.08-.09.12,0,.21.02.42.04.62,0,.05.03.1.02.14-.06.19-.14.38-.21.56.11.05.18.09.26.13-.35.05-.27.31-.27.54.08-.08.17-.16.25-.24.02.01.04.03.06.04-.07.1-.14.19-.21.29-.05.07-.12.15-.14.23-.03.19-.05.39-.04.59,0,.1.08.2.1.25-.04.16-.09.27-.1.4-.05.37-.09.74-.12,1.11-.02.19.03.39-.03.56-.13.33-.12.66-.16,1-.03.27-.02.54-.04.81-.02.21-.07.43-.11.64-.04.25-.09.51-.13.76-.07.44-.14.87-.18,1.31-.09.89-.17,1.78-.26,2.67-.03.31-.09.62-.17.92-.15.61-.2,1.24-.29,1.86-.09.63-.19,1.26-.3,1.89-.1.59-.21,1.19-.35,1.77-.17.78-.34,1.55-.56,2.32-.22.77-.5,1.51-.74,2.27-.18.58-.32,1.17-.49,1.75-.09.28-.21.56-.32.83-.02.05-.05.11-.09.13-.33.18-.29.52-.36.82-.06.27-.14.54-.21.82-.02.09-.02.18-.02.28-.42.23.13.45.03.71-.15-.07-.31-.12-.45-.21-.05-.03-.08-.16-.06-.22.09-.28.04-.51-.08-.78-.08-.19-.01-.51.1-.71.42-.74.77-1.51,1.06-2.32.29-.82.64-1.62.92-2.44.23-.67.41-1.35.57-2.03.19-.77.34-1.54.5-2.31.14-.69.28-1.37.38-2.07.12-.85.2-1.7.3-2.56.07-.55.1-1.11.22-1.64.18-.84.15-1.69.28-2.54.13-.81.18-1.64.26-2.45.05-.54.11-1.08.14-1.63.03-.43,0-.87.03-1.3.03-.49.11-.98.16-1.47.03-.28.07-.56.08-.84,0-.22,0-.45-.05-.65-.08-.3-.04-.57.03-.86.09-.35.24-.73.19-1.07-.06-.43.06-.84.03-1.26-.02-.23.13-.47.1-.69-.02-.16.15-.35-.05-.5-.02-.01.03-.11.04-.17.03-.15.01-.33.08-.46.09-.16-.05-.28-.01-.43.04-.16.02-.33.03-.49.02-.24.03-.49.07-.73.04-.28.12-.55.16-.83.03-.17,0-.35.02-.53.13-1.03.27-2.06.42-3.09.07-.46.21-.91.25-1.37.08-.95.22-1.9.03-2.85-.03-.13-.08-.25-.1-.38,0-.06.02-.16.06-.17.16-.04.34-.06.55-.1Z"/>
      <path class="cls-1" d="M60.36,55.09h.35c-.04.13-.09.25-.11.31.09.21.21.38.22.56.06.6.08,1.2.14,1.8.06.58.14,1.15.21,1.72.06.48.14.96.19,1.44.04.36.03.73.05,1.09,0,.09.07.18.08.27.07.85.13,1.7.2,2.55.03.34.11.67.17,1,0,.02,0,.06.02.07.33.18.23.52.27.79.09.57.18,1.14.16,1.71-.01.42.08.82.06,1.22-.01.36.03.7.13,1.04.04.13.12.24.17.33.02.32.04.62.06.92.02.23.03.47.05.7.03.3.09.59.12.88.05.51.07,1.02.11,1.53.04.42.08.85.27,1.24.03.05.04.15.02.18-.15.13-.05.27-.03.41.07.63.13,1.27.22,1.9.08.56.21,1.11.3,1.67.04.24.03.49.05.74.03.36.07.71.1,1.07,0,.07-.03.15-.02.22.03.13.08.25.09.38.02.28,0,.56.03.84.02.18.1.36.11.54.02.26.1.51.06.79-.02.18-.02.48.07.62.18.29,0,.55.08.83.09.33.1.67.14,1.01.02.16.03.33.04.5.01.31.02.62.02.93,0,.02-.02.06,0,.07.19.17.02.42.12.61.03.06,0,.14.02.21,0,.1.02.2.03.3,0,.05.02.11.02.16.03.34.07.68.09,1.02,0,.24-.04.49-.03.73,0,.23.06.46.1.69.13.86.27,1.72.39,2.59.06.48.1.97.1,1.46,0,.24-.07.5-.15.73-.1.29-.16.6-.35.87-.13.19-.12.46-.18.72-.02,0-.09-.02-.15-.04.07-.26.15-.49.18-.73.09-.57.16-1.14.24-1.71.05-.39.03-.78-.09-1.16-.01-.04,0-.08,0-.12.1-.61,0-1.21-.15-1.8-.04-.15-.15-.27-.23-.41-.02-.04-.04-.11-.03-.15.1-.37,0-.74-.02-1.11,0-.15-.03-.29-.04-.44-.04-.5-.07-1.01-.12-1.51-.02-.2-.06-.4-.08-.6,0-.03-.02-.06-.01-.09.06-.4-.09-.79-.09-1.19,0-.13.1-.29-.09-.38,0,0,0-.03,0-.04.03-.5-.14-.99-.13-1.49,0-.27,0-.54-.03-.81,0-.05-.07-.09-.11-.14.04-.12.08-.24.11-.36-.05-.06-.15-.13-.14-.17.07-.24-.02-.47-.05-.7-.01-.11-.05-.21-.09-.34.08-.1.15-.23-.02-.39-.05-.05,0-.2,0-.31-.05-.34-.11-.67-.16-1.01-.03-.19-.05-.37-.08-.56-.08-.45-.16-.9-.23-1.35-.02-.12.01-.25,0-.37-.03-.6-.09-1.21-.09-1.81-.01-.88-.13-1.74-.28-2.6-.13-.78-.27-1.55-.39-2.33-.13-.83-.23-1.67-.36-2.5-.08-.55-.18-1.1-.27-1.65-.04-.26-.08-.52-.12-.79-.06-.38-.12-.75-.16-1.13-.04-.37-.07-.73-.11-1.1-.07-.69-.13-1.37-.2-2.06-.06-.62-.12-1.25-.2-1.87-.05-.42-.14-.84-.2-1.26,0-.03,0-.07.02-.11,0-.03.05-.06.05-.08-.13-.27-.07-.55-.07-.83,0-.22,0-.44-.01-.67,0-.04.02-.08.01-.12-.11-.38-.06-.77-.13-1.15-.07-.39-.11-.79-.2-1.18-.06-.29-.19-.56-.27-.85-.03-.12-.14-.27.05-.38.05,0,.11,0,.16,0Z"/>
      <path class="cls-1" d="M50.31,56.02c-.1.06-.24.11-.25.18-.02.08.09.18.14.27.04.07.08.15.13.24-.34.04-.34.05-.31.35.09.78.19,1.55.26,2.33.03.3-.04.61-.04.92,0,.22.05.43.08.65.01.09.03.19.03.28,0,.16.02.29.23.27.03,0,.07.03.09.06,0,.01-.02.07-.03.07-.03,0-.07-.01-.1-.02-.05-.02-.1-.03-.16,0,.12.15.24.31.38.49-.11.01-.18.02-.26.02,0,.02-.02.03-.01.04.21.63.11,1.31.23,1.95.07.35.16.7.23,1.05.05.23.14.47-.02.7-.01.02-.02.06,0,.09.18.32.15.66.11,1-.01.1.03.2.03.3.03.69.05,1.38.07,2.07,0,.24-.04.48-.06.72,0,.05,0,.12.02.15.12.14,0,.19-.06.22,0,.2,0,.38,0,.56,0,0,0,.02,0,.02.18.2.07.43.08.65,0,.09.03.21,0,.27-.08.12-.11.21,0,.33.02.02.02.09,0,.11-.1.12-.03.24-.02.37.03.31.01.63.01.94,0,.52,0,1.05,0,1.57,0,.32,0,.65.01.97.02.54.04,1.07.06,1.61.01.39,0,.78.02,1.17.02.45.06.89.09,1.34.04.76.08,1.52.12,2.29.04.72.08,1.45.09,2.17.03,1.83.04,3.66.05,5.49,0,.81,0,1.62,0,2.42,0,.31,0,.63-.03.94,0,.07-.11.14-.19.23-.03-.19-.05-.32-.07-.45,0-.09-.01-.17,0-.26.04-.34.08-.67,0-1.01-.04-.2.04-.43.05-.64.02-.24.03-.48.04-.72,0-.57.04-1.13,0-1.7-.03-.4.04-.8,0-1.2-.04-.42-.01-.83-.03-1.24-.02-.43,0-.87-.02-1.3-.02-.44-.08-.88-.12-1.32-.05-.58-.11-1.16-.15-1.73-.02-.3.04-.61-.01-.9-.08-.42.06-.86-.13-1.27-.07-.14-.01-.34-.02-.52-.04-.69-.09-1.38-.13-2.07,0-.15,0-.3,0-.45,0-.2-.15-.4,0-.6-.24-.18,0-.45-.13-.67-.05-.09.05-.26.04-.4-.01-.3-.05-.61-.07-.91-.01-.22-.02-.43-.02-.65-.01-1.06-.02-2.12-.03-3.19,0-.43-.08-.87-.02-1.29.06-.41,0-.81.05-1.22.05-.43.06-.87.05-1.3-.02-1.12-.18-2.23-.21-3.35-.01-.38-.08-.75-.11-1.13-.08-.97-.14-1.95-.22-2.92-.06-.77-.13-1.54-.18-2.31-.04-.61-.04-1.22-.06-1.84,0-.11,0-.24.16-.22.16.02.17.1.14.25-.04.25.01.49.21.66Z"/>
      <path class="cls-1" d="M39.22,91.87c0-.39-.02-.79-.03-1.18-.04-1.38-.08-2.75-.12-4.13-.03-1.03-.06-2.06-.09-3.08,0-.24.02-.47.02-.71,0-.03-.01-.06-.03-.08-.1-.21-.09-.39.16-.54-.3-.08-.24-.27-.23-.47.01-.29-.08-.59-.04-.88.06-.41-.02-.8-.01-1.2,0-.02,0-.05,0-.07.1-.41.2-.81.25-1.21-.03-.09-.09-.18-.09-.28-.05-.75-.1-1.5-.13-2.25,0-.16.05-.32.05-.48,0-.07-.04-.15-.05-.23-.01-.22-.02-.44-.02-.66,0-.46,0-.92-.02-1.38-.02-.46-.1-.91-.12-1.37-.01-.26.03-.52.04-.78,0-.06,0-.12-.02-.18-.03-.15-.07-.29-.11-.43-.02-.07-.05-.15-.05-.22,0-.4-.14-.81.06-1.2.03-.06.08-.12.16-.23.08.7.15,1.33.22,1.96,0,0-.02,0-.03,0-.04-.14-.09-.27-.13-.41-.23.28.25.5.02.73.05.08.12.15.12.21.03.6.05,1.21.08,1.81.02.37.05.74.08,1.11.03,0,.06,0,.09,0,0-.24,0-.49,0-.73,0-.52,0-1.05.01-1.57,0-.13-.01-.25,0-.38,0-.07.03-.15.04-.22.03,0,.06,0,.09,0,0,.28,0,.55,0,.83,0,.29.04.58.04.86,0,.26-.03.51-.04.77,0,.04-.03.09-.01.11.19.39.05.83.17,1.24.06.18-.02.41-.05.62,0,.03-.06.08-.1.08-.21.01-.21.14-.19.3.02.13.02.26.02.41.09-.01.17-.02.3-.03-.05.15-.08.26-.11.34.02.11.05.22.05.32,0,.51,0,1.02-.02,1.53,0,.12-.06.23-.11.39.14.2.05.49.06.77,0,.13-.02.27.01.38.08.23,0,.32-.22.35-.04,0-.07.02-.11.05h.34c-.04.76-.09,1.5-.12,2.25-.01.31.03.63-.02.93-.09.54,0,1.07.02,1.61,0,.28.09.55.13.83,0,.06,0,.12,0,.18,0,.13-.01.26-.02.39,0,.08-.02.17-.01.25,0,.07,0,.13.02.2,0,.04.06.1.04.12-.15.18,0,.36,0,.54,0,.31-.05.63-.05.94,0,.29.03.57.05.86.02.46.05.92.04,1.39,0,.29-.06.58-.1.9h-.16,0Z"/>
      <path class="cls-1" d="M38.49,63.84c.07.17.13.3.18.44.02.05.03.11.03.16,0,.3,0,.61-.04.93-.02-.05-.05-.11-.06-.16-.05-.4-.1-.81-.16-1.21-.02-.16-.07-.33.1-.44-.26-.49-.14-1.05-.28-1.56v1.25s-.03,0-.05,0c-.01-.06-.04-.11-.04-.17-.04-.6-.07-1.2-.11-1.79-.02-.24-.07-.47-.08-.71,0-.15.08-.3.07-.45-.05-.75-.11-1.5-.19-2.25-.02-.17-.09-.33-.16-.49-.13-.29-.1-.51.1-.73.09-.11.16-.09.22.01.05.1.08.2.1.31.08.7.18,1.41.23,2.11.03.42,0,.85.02,1.28.06.94.14,1.87.22,2.8,0,.09,0,.18.03.26.06.19.08.35-.12.42Z"/>
      <path class="cls-1" d="M56.06,103.02s-.05.09-.08.09c-.46.07-.91.13-1.37.19-.79.1-1.54.33-2.22.73-.51.3-1.04.26-1.58.24,0-.02-.01-.04-.02-.07.11-.03.22-.08.34-.1.5-.1.95-.33,1.39-.57.25-.13.51-.24.76-.38.27-.15.53-.3.79-.46.3-.19.59-.41.96-.39.17,0,.34.1.51.15,0,.04-.02.07-.02.11-.19-.01-.38,0-.56-.04-.27-.06-.48.03-.68.21.2.32.77.47,1.09.35.21-.08.46-.05.69-.07,0,0,0,0,0,0Z"/>
      <path class="cls-1" d="M69.94,99.76s-.08.11-.13.15c-1.09.85-2.25,1.6-3.59,1.98-.37.11-.77.13-1.16.19-.09.01-.2,0-.27-.05-.08-.05-.17-.16-.17-.24,0-.06.13-.16.22-.18.58-.1,1.16-.2,1.75-.28.65-.09,1.24-.34,1.79-.68.43-.26.85-.54,1.27-.81.08-.05.17-.09.25-.13.01.02.03.04.04.05Z"/>
      <path class="cls-1" d="M38.8,66.2c.09.14.26.28.08.4.05.36.09.69.14,1.05-.2-.08-.35-.15-.2-.36.02-.02,0-.07,0-.11-.04-.41-.08-.82-.13-1.24-.01-.12-.03-.24-.05-.36.02,0,.04-.02.06-.02.03.03.06.07.07.11.04.1.07.21.09.31.01.06,0,.13,0,.2l-.06.02Z"/>
      <path class="cls-1" d="M39.07,97.26c-.03-.11-.06-.23-.1-.38-.13.11-.23.2-.33.29.13-.32.24-.64.38-.95.04-.08.14-.14.21-.21l.05.04c-.06.4-.11.81-.17,1.21-.02,0-.04,0-.06,0Z"/>
      <path class="cls-1" d="M32.76,10c-.25.06-.5.13-.76.19-.13.03-.26.05-.39.05-.05,0-.1-.04-.15-.06.03-.04.04-.1.08-.12.29-.15.59-.31.94-.2.09.03.18.03.27.04,0,.03,0,.07,0,.1Z"/>
      <path class="cls-1" d="M25.61,90.24c0-.05,0-.12.02-.16.19-.25.18-.55.24-.84.01-.05.03-.11.06-.15.03-.04.09-.05.14-.08.02.05.07.1.07.15,0,.17-.02.35-.03.54-.17-.03-.23.12-.27.3-.02.1-.1.18-.15.27-.03-.01-.05-.02-.08-.03Z"/>
      <path class="cls-1" d="M39.3,70.58c-.26-.58-.05-1.24-.29-1.82.02-.01.04-.03.07-.04.05.07.12.13.15.2.03.1.03.21.04.32.03.35.05.69.07,1.04,0,.09.02.19.03.28-.02,0-.04,0-.06,0Z"/>
      <path class="cls-1" d="M37.79,100.13c.06-.05.12-.09.17-.15.1-.11.21-.2.16-.38-.01-.04.05-.14.1-.16.1-.03.21-.03.31-.04-.03.07-.07.14-.1.21-.12.29-.31.49-.64.53Z"/>
      <path class="cls-1" d="M39.27,94.86c.14.05.17.27.05.41-.03.04-.08.07-.13.11.19.07.22.16.1.31-.07.09-.11.2-.19.3.02-.38-.04-.77.17-1.12h0Z"/>
      <path class="cls-1" d="M11.97,72.39c.03-.22.05-.45.11-.66.04-.16.18-.2.35-.13-.06.15-.12.29-.18.43-.06.13-.12.26-.17.39-.03-.01-.07-.02-.1-.03Z"/>
      <path class="cls-1" d="M60.36,55.09c-.05,0-.11,0-.16,0-.19-.17-.15-.37.16-.66.06.17.12.32.16.43-.07.09-.11.16-.16.23Z"/>
      <path class="cls-1" d="M50.62,60.48c-.04-.4-.09-.82-.14-1.28.21.22.27,1.1.14,1.28Z"/>
      <path class="cls-1" d="M5.87,57.42c.08.39-.03.88-.21.99.08-.36.14-.68.21-.99Z"/>
      <path class="cls-1" d="M38.96,67.67v.82c-.23-.21-.23-.5,0-.82Z"/>
      <path class="cls-1" d="M39.21,91.87c.26.21.31.55.06.77-.02-.28-.04-.53-.06-.77,0,0,0,0,0,0Z"/>
      <path class="cls-1" d="M39.27,94.86c-.18-.21-.05-.43-.07-.69.25.22.26.49.06.69,0,0,0,0,0,0Z"/>
      <path class="cls-1" d="M38.33,99.2c-.04-.23.1-.3.26-.34.02,0,.09.06.09.08-.05.15-.14.28-.35.26Z"/>
      <path class="cls-1" d="M50.94,59.41v.79s-.03,0-.05,0v-.79h.05Z"/>
      <path class="cls-1" d="M39.35,93.32c-.11-.06-.09-.38.08-.63,0,.1.01.2,0,.3-.01.11-.05.22-.08.32Z"/>
      <path class="cls-1" d="M50.82,59.18c-.15-.37-.13-.51.09-.56-.03.18-.06.36-.09.56Z"/>
      <path class="cls-1" d="M7.55,65.5c.17.17.16.4-.04.54.02-.19.03-.36.04-.54Z"/>
      <path class="cls-1" d="M10,97.47h.54s0,.05,0,.07h-.54s0-.05,0-.07Z"/>
      <path class="cls-1" d="M39.35,94.14c-.04-.14-.07-.28-.11-.42l.11-.03c.04.14.07.28.11.42-.03,0-.07.02-.1.03Z"/>
      <path class="cls-1" d="M51.12,94.53c.05.07.09.14.14.2-.06.02-.15.06-.16.05-.04-.06-.05-.13-.08-.2.03-.02.07-.03.1-.05Z"/>
      <path class="cls-1" d="M7.48,66.62l.03-.41s.04,0,.07,0v.41s-.06,0-.09,0Z"/>
      <path class="cls-1" d="M5.18,85.3c.15,0,.26.01.4.02-.22.19-.29.19-.4-.02Z"/>
      <path class="cls-1" d="M40.87,40.93c-.11.36-.27.69-.64.89.22-.31.43-.6.64-.89Z"/>
      <path class="cls-1" d="M39.62,25.65c.23-.04.34.03.45.2.51.82,1.14,1.5,2.14,1.72.64.14,1.09-.1,1.26-.73.1-.37.17-.75.25-1.13.45.09.74.63.51,1.02-.32.54-.7,1.06-1.34,1.27-.15.05-.34.05-.5.03-.59-.09-1.18-.2-1.67-.58-.49-.39-.89-.85-1.06-1.47-.03-.1-.03-.21-.05-.33Z"/>
      <path class="cls-1" d="M40.11,25.43l1.91-.24s0,.04,0,.06c-.63.08-1.27.17-1.9.25,0-.02,0-.04,0-.06Z"/>
      <path class="cls-1" d="M41.31,23.32c.46-.06.91-.13,1.37-.19,0,.04,0,.07.01.11-.43.24-.92.1-1.38.15,0-.02,0-.04,0-.06Z"/>
    </g>
  </g>
</svg>