<?xml version="1.0" encoding="UTF-8"?>
<svg id="Layer_2" data-name="Layer 2" xmlns="http://www.w3.org/2000/svg" viewBox="0 0 48.4 115.07">
  <defs>
    <style>
      .cls-1 {
        fill: #000;
        stroke-width: 0px;
      }
    </style>
  </defs>
  <g id="illustrations">
    <g>
      <path class="cls-1" d="M39.65,73.31s-.04,0-.07,0c-.02.15-.03.31-.05.46-.03.33-.06.66-.1.99-.02.22-.06.43-.09.65-.02.19.03.43-.06.57-.12.19-.09.36-.07.54.02.21.1.44.04.61-.06.18-.02.32,0,.47,0,.04.04.1.02.13-.14.19-.09.4-.1.61-.05.59.06,1.19-.12,1.78-.11.36-.04.78-.07,1.18-.03.49-.06.97-.1,1.46-.05.57-.13,1.13-.18,1.7-.04.5-.03,1.01-.06,1.51-.03.59-.1,1.18-.12,1.78-.02.67-.05,1.34-.12,2.01-.05.4-.08.81-.12,1.21-.05.62-.1,1.24-.16,1.86-.03.27-.1.54-.12.81-.02.26.03.52,0,.78-.07.68-.16,1.36-.24,2.04-.08.76-.15,1.51-.22,2.27-.08.9-.16,1.81-.24,2.71-.07.75-.12,1.5-.2,2.25-.02.17-.11.34-.12.51-.02.37,0,.75-.03,1.12-.07,1.08-.2,2.16-.23,3.25,0,.23-.11.45-.17.67-.04.14-.1.28-.1.42,0,.41.03.82.05,1.17-.29.04-.55.05-.79.12-.41.11-.81.27-1.23.38-.88.24-1.78.32-2.69.35-.61.02-1.21.09-1.81.15-.16.01-.33.03-.46.11-.61.34-1.27.46-1.94.47-.85.02-1.7-.04-2.55-.06-.28,0-.56.07-.84.04-.77-.08-1.51-.25-2.24-.54-.8-.33-1.65-.54-2.49-.78-.36-.1-.73-.2-1.08-.3-.41-.11-.8-.22-1.16-.42-.24-.13-.45-.31-.63-.51-.17-.17-.28-.4-.41-.6-.05-.08-.12-.16-.13-.24-.03-.43,0-.86-.11-1.3-.1-.39-.07-.81-.1-1.22-.03-.4-.07-.8-.1-1.19-.03-.34-.06-.67-.09-1.01.02-.09.06-.2.05-.3-.03-.38-.09-.76-.11-1.14,0-.16.06-.33.13-.48.08-.19.11-.36.06-.57-.1-.42-.14-.86-.19-1.3-.05-.42-.06-.85-.4-1.17.05-.08.16-.17.16-.25,0-.19-.1-.38-.1-.57,0-.35.02-.71.03-1.06.01-.33.11-.69.01-.98-.13-.4-.09-.78-.09-1.17,0-.06-.03-.13-.05-.19,0-.01-.04-.02-.07-.03,0,.04,0,.08,0,.11,0,.03-.03.06-.05.1-.16-.27-.14-.35.07-.46.04-.02.09-.11.08-.15-.05-.12-.12-.22-.16-.28.03-.16.07-.3.08-.44.01-.35,0-.69,0-1.04-.03,0-.06-.01-.09-.02-.02.07-.06.14-.07.21-.01.1.01.21,0,.31,0,.04-.06.08-.09.13-.04-.04-.1-.07-.11-.12-.02-.06,0-.13.01-.19,0-.2,0-.4.01-.61,0-.25,0-.5,0-.75.03,0,.05,0,.08,0,.03.32.06.64.1.97.23-.06.2-.21.18-.33-.06-.43-.17-.85-.08-1.28,0,0-.02-.02-.04-.04-.06.12-.12.25-.2.41,0-.08-.02-.11,0-.13.1-.24.26-.48.09-.76-.03-.06,0-.16.03-.24.1-.33.24-.65.09-1-.03-.08-.03-.18-.03-.26,0-.36,0-.71,0-1.07-.02,0-.04,0-.06,0v.85s-.06.01-.1.02c-.03-.13-.1-.27-.09-.4,0-.16.09-.32.11-.49.03-.28.05-.57.05-.86,0-.14-.05-.29-.07-.43-.02,0-.04,0-.07.01-.02.27-.04.54-.07.84-.05-.11-.11-.19-.12-.27-.02-.2-.1-.45-.02-.6.12-.22.15-.41.11-.65-.14-.81-.25-1.62-.19-2.45.04-.56.05-1.11-.12-1.68-.06-.22-.02-.46-.27-.61.27-.19.27-.44.23-.69-.07-.45-.16-.91-.22-1.36-.02-.15.05-.3.05-.46,0-.25-.04-.5-.06-.75-.02-.16-.02-.34-.08-.49-.13-.34-.11-.7-.06-1.03.03-.21.04-.35-.07-.42.01-.35.01-.64-.07-.94-.03-.11-.02-.23-.05-.34-.02-.08-.08-.14-.13-.21-.02,0-.04.02-.06.03.05-.09.09-.19.15-.29.03.04.06.07.1.12,0-.1,0-.16-.01-.23-.09,0-.16,0-.21.01-.02-.45-.05-.88-.07-1.31.06,0,.11-.01.18-.02-.04-.09-.07-.16-.1-.24-.05.02-.09.04-.12.04-.03,0-.07-.01-.1-.02.05-.09.15-.18.13-.25-.06-.26-.1-.54-.25-.75-.21-.31-.07-.54.04-.84.11.34.2.65.3.95.02,0,.04-.01.07-.02,0-.05.01-.1,0-.14-.05-.68-.12-1.36-.16-2.04-.05-.89-.08-1.78-.13-2.66,0-.13-.11-.26-.11-.38,0-.19-.08-.23-.23-.19-.21.05-.41.12-.55.16.05.17.11.34.16.52.01.05.02.1.03.14.05.23.15.46.15.69,0,.82.02,1.63-.05,2.45-.08.84.04,1.7.09,2.55.02.38.1.75.14,1.13.06.62.09,1.24.14,1.86.01.14.06.28.06.42.02.55.02,1.11.05,1.66.04.75.08,1.5.15,2.24.05.6.17,1.19.2,1.78.04.74.02,1.49.05,2.23.02.43.07.86.11,1.29.06.66.13,1.32.18,1.98.06,1.01.11,2.01.16,3.02.01.26-.02.53,0,.8.07.73.18,1.45.18,2.19,0,.41.07.82.11,1.23.05.49.12.97.15,1.46.01.2-.08.41-.07.61.04.51.15,1.02.17,1.53.03.7.02,1.4.11,2.1.03.22-.05.46-.05.69,0,.22.08.44.06.65-.07.75.02,1.5.09,2.24.05.51.06,1.01.09,1.52.03.6.05,1.2.06,1.79,0,.17-.03.34-.05.53.32.25,0,.71.22,1.04.03-.06.06-.11.13-.23,0,.12,0,.17,0,.21-.05.44-.15.88-.13,1.32.01.38.12.76.25,1.12.23.63.57,1.19,1.12,1.6.31.23.64.44.93.7.23.2.45.32.77.38.59.1,1.17.32,1.75.47.65.17,1.31.31,1.96.46.14.03.27.06.41.09h8.55c.34-.04.68-.07,1.02-.1.05-.03.11-.05.17-.08.2-.09.38-.2.56-.32.38-.25.74-.52,1.13-.74.4-.24.81-.37,1.26-.49.42-.1.83-.25,1.26-.31.09-.07.17-.15.24-.24.03-.04.06-.09.09-.14.01-.03.03-.05.05-.07.02-.02.04-.03.06-.05.02-.01.03-.01.05-.02.1-.21.21-.42.31-.63.02-.05.03-.11.03-.17-.02-.26-.03-.53-.06-.79,0-.04-.08-.08-.08-.08,0-.27-.02-.52,0-.76.05-.59.12-1.18.19-1.77.03-.25-.06-.52.16-.73.02-.02,0-.09,0-.14-.01-.14-.05-.28-.04-.42.03-.62.06-1.25.1-1.87.03-.44.06-.88.1-1.32.09-.92.2-1.84.29-2.77.05-.5.04-1,.12-1.49.19-1.2.17-2.41.32-3.61.06-.48.07-.96.08-1.44.01-.49.18-.96.15-1.47-.04-.59.07-1.19.12-1.78,0-.1.06-.2.08-.31.02-.13.08-.3.03-.38-.2-.31-.07-.62-.03-.93.02-.13.1-.26.12-.39.02-.16.01-.33.02-.5.03-.54.06-1.08.09-1.62.03-.53.03-1.05.07-1.58.04-.55.13-1.1.18-1.66,0-.06-.07-.12-.1-.17.03-.02.11-.04.12-.06.02-.19.02-.37.03-.56,0-.16.02-.33.04-.49,0-.09.05-.18.05-.27.01-.27,0-.54.02-.82.02-.42.05-.85.07-1.27.02-.41,0-.83.03-1.24.02-.31.07-.62.09-.94.03-.67.04-1.33.08-2,.04-.67.09-1.34.13-2.01.01-.26,0-.52,0-.78ZM14.75,89.27c.19.24.19.58,0,.73v-.73ZM13.13,69.87c.02.15.31.3,0,.48v-.48ZM14.15,85.21v-.83s.05,0,.07,0c.04.28.1.56-.07.83ZM14.09,84.06v-1.19s.04,0,.05-.01c.06.35.11.7.16.98-.09.1-.14.15-.21.23ZM15.09,96.29c.08.31.09.62,0,.94-.1-.31-.09-.62,0-.94ZM15.4,102.82c-.05-.17-.1-.35-.16-.52.18.01.25.19.16.52ZM15.55,101.93c-.43-.16-.25-.46-.26-.7,0-.14.02-.28.03-.42,0-.18,0-.36-.25-.37,0-.06,0-.09,0-.12.02-.1.04-.21.05-.31.08.11.2.2.22.32.09.4.14.81.2,1.21.02.12,0,.25,0,.39ZM35.98,112.24c-.28.15-.58.26-.88.36-.34.18-.68.36-1.02.52-.8.37-1.61.7-2.41,1.06-.55.25-1.11.46-1.71.5-.81.06-1.63.14-2.44.17-.31.01-.62-.09-.93-.16-.47-.09-.93-.16-1.41-.12-.1,0-.2,0-.3,0-.94.14-1.88-.11-2.81-.28-.18-.03-.37-.05-.55-.08-.07-.01-.13-.06-.2-.1-.44-.28-.95-.37-1.43-.53-.44-.15-.85-.35-1.28-.54-.35-.09-.7-.2-1.01-.39-.04-.01-.08-.03-.13-.04-.45-.16-.78-.44-1-.87-.07-.15-.16-.3-.24-.45-.04-.04-.09-.07-.13-.11-.07-.06-.1-.12-.1-.19-.04-.05-.09-.1-.13-.15-.13-.17-.03-.34.13-.41,0-.08-.02-.15-.03-.23.1.05.18.12.23.2.08.01.15.05.21.13.41.54,1.04.83,1.61,1.15.27.15.52.35.81.45.35.12.73.15,1.1.19.63.07,1.24.23,1.86.39.69.18,1.36.24,2.06.3.67.06,1.31.27,1.98.32.67.05,1.35.04,2.03.04.7,0,1.39-.16,2.09-.25.71-.1,1.4-.27,2.11-.38.65-.1,1.25-.22,1.87-.44.38-.13.79-.24,1.17-.37.02,0,.03-.02.04-.03.09-.05.18-.09.27-.1.09-.04.18-.07.26-.12.35-.19.67.35.31.54Z"/>
      <path class="cls-1" d="M47.93,13.31c.02-.09.07-.17.08-.25.03-.19.05-.39.09-.63,0,0-.04-.07-.1-.07-.47-.03-.53-.57-.91-.7-.01,0-.02-.03-.02-.04.09-.19-.1-.22-.18-.29-.19-.16-.39-.3-.59-.43-.05-.03-.13-.04-.19-.02-.15.03-.32.05-.42.14-.3.24-.58.27-.85-.03-.06-.07-.14-.16-.15-.24-.12-.68-.31-1.32-1.01-1.66-.27-.13-.26-.16-.26-.49-.21.04-.31-.04-.31-.28,0-.13-.1-.26-.13-.4-.04-.16-.13-.36-.08-.5.17-.47.11-.9-.13-1.31-.25-.43-.58-.78-1.15-.78-.17,0-.34-.12-.51-.19-.09-.04-.16-.1-.24-.16.03-.02.07-.04.11-.06-.04-.05-.06-.11-.1-.13-.18-.1-.6.05-.72.23-.05.08-.16.17-.24.17-.41-.02-.83-.04-1.24-.13-.54-.11-1.07-.29-1.61-.43-.3-.08-.59-.14-.89-.22-.05-.01-.11-.04-.15-.08-.12-.16-.23-.32-.35-.49-.41-.6-.82-1.21-1.25-1.79-.1-.14-.3-.24-.47-.28-.56-.14-1.12.01-1.67.13-.31.07-.6.25-.89.39-.05.02-.07.11-.1.17l.06.05c.09-.04.17-.08.26-.11.06-.02.13-.06.18-.05.27.08.77-.11.88-.33.09.05.17.13.25.13.11,0,.21-.07.33-.09.33-.06.7-.18.95.15.37.48.7.99,1.04,1.49-.02.02-.04.03-.06.05-.03-.01-.05-.03-.08-.04-.03-.02-.05-.04-.08-.05-.74-.25-1.5-.34-2.28-.17-.19.04-.39.06-.58.08-.21.03-.42.06-.64.09,0,.02,0,.04,0,.05.2.07.41.15.64.23-.01-.09-.02-.14-.02-.19.21-.03.42-.06.62-.08.2-.02.4-.02.61-.03,0,.02.01.05.02.07.05-.08.1-.16.16-.27.34.07.74.05,1,.24.27.19.71.1.88.53-.23-.02-.42-.04-.61-.05.11.08.24.11.36.15.29.1.6.16.75.49.12.27.26.54.43.78.24.37.4.76.47,1.19.16,1.07.23,2.13-.26,3.15-.04.09-.08.19-.11.29-.07.18-.19.36-.18.53.01.2-.05.33-.17.47-.08-.06-.14-.11-.21-.16.22.25.09.49-.02.74-.15.37-.26.77-.41,1.15-.27.67-.55,1.33-.83,2-.09.2-.2.37-.46.38-.13,0-.29.09-.38.19-.17.18-.3.41-.41.66.11-.05.21-.09.32-.14.01.02.02.04.04.06-.14.09-.28.17-.42.26,0,.01,0,.02,0,.03.06,0,.11-.02.21-.03-.16.19-.31.35-.47.53.07.06.12.09.15.12.25.32.53.41.91.19.29-.18.57-.33.68-.71.05-.16.28-.27.43-.4.1-.08.2-.15.31-.21.12-.06.25-.1.37-.17.09-.05.17-.12.27-.16.19-.08.39-.14.58-.22.07-.03.14-.09.19-.16.28-.37.74-.65,1.29-.53,0,.24,0,.49,0,.74-.03.65-.24,1.17-.88,1.5-.74.38-1.51.51-2.33.53-.35.01-.69.2-1.04.3-.39.1-.78.2-1.18.28-.21.04-.39.05-.57.22-.14.14-.42.13-.65.2-.18-.45-.02-.86.16-1.27.34-.76.67-1.53.99-2.31.04-.09.02-.2-.01-.3.07-.15.15-.3.21-.46.13-.32.25-.65.4-.96.22-.45.35-.92.4-1.41.02-.24.04-.47.04-.71,0-.13-.04-.25-.08-.38,0-.04-.07-.07-.06-.1.04-.28-.13-.41-.39-.53.24-.09.41-.2.64-.18.2.01.4-.05.6-.1.36-.1.56.09.72.36.15.26.3.53.46.79.05.07.14.12.21.17-.09-.17-.18-.34-.26-.51-.11-.27-.38-.51-.17-.85.01-.02-.02-.08-.04-.11-.11-.18-.29-.18-.51,0-.06-.05-.12-.1-.19-.15.1-.07.19-.12.32-.2-.15,0-.23-.01-.32-.01-.01-.02-.02-.05-.04-.07l.49-.41c-.66.32-1.29.68-1.91,1.05-.2.12-.57.1-.75-.05-.17-.14-.2-.36-.03-.47.4-.27.8-.56,1.23-.78.44-.22.93-.26,1.41-.15.14.03.27.06.42.09.05-.46.02-.48-.36-.5-.72-.02-1.37.21-2.02.47-.32.13-.64.26-.99.41.02-.16.03-.26.04-.36-.11-.07-.32-.1-.06-.24.03-.02.06-.06.06-.1.08-.53.11-1.06-.32-1.46-.51-.47-1.05-.91-1.58-1.36-.11-.09-.23-.17-.34-.26-.05-.01-.09-.03-.14-.04.13-.03.25-.06.38-.1-.03-.04-.07-.08-.1-.12-.08,0-.16.02-.22.03-.07-.13-.17-.26-.18-.39,0-.12.08-.25.15-.43h1.7s0-.05,0-.07c-.05-.03-.09-.07-.14-.08-.61-.11-1.21-.31-1.85-.25-.07,0-.14-.05-.21-.06-.2-.05-.41-.1-.61-.14-.14-.03-.3-.02-.43-.07-.18-.07-.34-.13-.53.01-.19.14-.4.25-.67.2-.08-.02-.23.02-.27.09-.1.15-.22.14-.35.1-.62-.16-1.22-.02-1.83.07-.25.03-.33.17-.34.42.07.01.12.03.17.03.35-.02.71-.05,1.06-.06.3-.01.61-.04.91-.01.17.02.33.14.5.22.02-.06.03-.12.06-.23.26.14.48.27.71.4.02,0,.01.08,0,.1-.02.03-.07.05-.1.04-.2-.06-.39-.13-.62-.2.06.11.1.17.12.21-.3.17-.58.33-.85.49-.19.11-.36.27-.57.36-.5.21-1.01.38-1.51.58-.4.16-.85.22-1.19.55-.19.19-.45.26-.75.16-.55-.19-1.11-.3-1.69-.12-.3.09-.6.2-.73.52-.09.22-.11.48-.18.71-.11.36-.25.72-.37,1.08-.02-.02-.03-.04-.05-.05-.1.04-.2.08-.29.13-.18.12-.36.24-.53.37-.1.07-.24.15-.26.24-.01.09.16.19.08.34.26.12.28.27.06.46-.02.02,0,.08-.02.12-.03.12-.07.23-.11.35-.07.27-.26.56-.19.79.09.31-.14.53-.03.82-.17-.03-.28-.05-.39-.08-.47-.13-.86-.36-.98-.88-.09-.39-.19-.78-.17-1.19.02-.33-.05-.67-.14-.98-.1-.34-.19-.69-.45-.98-.17-.2-.32-.45-.39-.71-.1-.36.12-.64.34-.92.17-.21.46-.33.5-.64,0-.03.07-.06.12-.08.64-.34,1.29-.64,1.85-1.1.15-.12.32-.37.59-.18.06-.06.11-.12.17-.16.18-.12.36-.23.55-.35.25-.16.39-.14.61.04.17.14.35.31.56.37.5.15.77,0,1.14-.48.11-.15.31-.22.48-.33.05-.03.12-.04.18-.07.24-.14.48-.27.7-.42.27-.19.55-.19.85-.08.05.02.1.06.14.06.16-.03.34-.04.45-.13.07-.05.04-.24.07-.38.36-.25.76-.54,1.16-.83.19-.13.37-.28.56-.4.12-.07.26-.08.39-.14.16-.07.3-.16.46-.21.18-.06.37-.08.55-.13.13-.03.2,0,.22.14.04.24.2.29.42.28.12,0,.26.02.37.07.1.05.17.15.26.22.12.09.24.16.37.24.23.15.41-.05.57-.13.13-.06.27-.1.39-.18.04-.03.05-.11.09-.21-.09.06-.13.08-.13.07-.11-.28-.22-.55-.33-.83-.11.02-.22.05-.32.04-.14,0-.29-.03-.42-.07-.13-.04-.24-.11-.36-.17-.01.02-.03.05-.04.07.02.04.03.08.05.13-.21-.03-.45.05-.52-.25-.01-.05-.08-.08-.12-.12-.19-.15-.36-.32-.56-.43-.11-.06-.32-.07-.4,0-.33.28-.63.6-.94.92-.14.14-.25.31-.4.44-.24.23-.49.46-.76.65-.22.16-.47.35-.71.36-.22,0-.43.02-.64.07-.19.04-.41.02-.58.11-.26.15-.61.18-.75.52-.02.06-.1.11-.17.14-.34.17-.6.41-.81.72-.05.08-.21.14-.31.12-.2-.03-.4-.12-.63-.2.08-.05.13-.08.17-.11-.19-.26-.63.1-.75-.33-.01,0-.03.03-.04.03-.54-.09-.95.23-1.33.51-.54.41-1.02.89-1.64,1.21-.42.21-.8.51-1.19.79-.12.09-.21.23-.3.37-.1.16-.16.33-.24.5,0-.32-.16-.44-.56-.37.5.21.48.14.34.65-.14.52-.05.97.22,1.42.11.18.16.41.2.63.04.25,0,.52.08.75.08.24.09.46.1.71.02.44.07.88.29,1.29.27.5.62.88,1.17,1.06.13.04.27.09.4.14.16.07.33.13.18.37-.04.06-.02.17,0,.26.02.16.08.31.1.46.07.64.15,1.27.19,1.91.02.26-.03.53-.18.77q-.3-.25-.65-.25c-.52,0-.54.02-.86-.26-.4-.35-.93-.59-1.08-1.18,0-.03-.05-.04-.08-.06-.12-.13-.25-.25-.36-.38-.13-.16-.29-.31-.36-.49-.18-.45-.31-.92-.47-1.39-.03-.1-.13-.21-.1-.29.1-.31-.15-.5-.26-.71-.16-.29-.29-.57-.26-.89.01-.12.08-.25.15-.35.11-.14.25-.26.39-.38.2-.18.07-.3-.06-.43-.04-.04-.1-.06-.14-.08-.03-.04-.06-.07-.09-.11l.8-.61s-.02-.06-.03-.09c-.18-.08-.35-.16-.53-.25-.22-.1-.37.05-.51.16-.11.08-.27.25-.25.34.05.26-.06.41-.17.49.05.39.13.73.12,1.07,0,.49.12.93.37,1.35.03.05.02.17-.02.21-.08.09-.2.14-.29.23-.07.08-.12.18-.17.28.07-.05.16-.06.23-.16.06-.1.25-.14.39-.16.03,0,.12.16.14.25.15.6.27,1.22.44,1.81.1.37.19.78.42,1.07.29.37.71.64,1.08.95.22.18.45.36.64.52-.1.19-.19.34-.25.49-.09.27-.12.57-.26.81-.18.32-.06.58.03.91-.11,0-.22.02-.29-.02-.43-.24-.9-.45-1.28-.75-.79-.62-1.43-1.39-2.04-2.19-.48-.64-.88-1.31-1.17-2.06-.04-.11-.06-.22.03-.33.1-.12.13-.26-.08-.32-.04-.01-.08-.06-.11-.09-.34-.37-.61-.78-.81-1.24-.2-.45-.43-.88-.63-1.33-.12-.25-.05-.35.2-.48.11-.06.21-.16.3-.25.1-.1.19-.2.3-.32-.21-.23.04-.24.17-.3-.04-.06-.07-.1-.14-.2.33.07.56-.05.77-.21.06-.05.13-.13.13-.19,0-.05-.1-.11-.16-.15-.13-.1-.28-.19-.41-.29-.14-.11-.25-.24-.4-.32-.1-.05-.23-.04-.37-.07-.34.12-.46.36-.29.74.02.05-.05.2-.11.24-.22.11-.26.32-.19.48.12.29,0,.41-.23.52-.05.02-.09.07-.13.11-.27.26-.26.41-.03.7.25.3.5.6.68.94.25.46.45.95.65,1.43.18.45.13.64-.26.92-.27.19-.58.33-.85.51-.41.27-.81.56-1.29.73-.17.06-.33.2-.5.2-.34,0-.64.03-.94.21-.16.1-.37.11-.57.15-.15.03-.3.05-.45.08-.1.02-.21.03-.31.06-.19.06-.37.19-.56.19-.52,0-.96.21-1.42.38-.12.04-.2.08-.14.25.05.13,0,.28.04.42.05.21.09.44.21.6.31.43.68.81,1,1.23.43.59.85,1.19,1.24,1.81.26.42.46.88.7,1.31.08.15.23.26.3.42.29.59.58,1.17,1.02,1.68.83.98,1.73,1.88,2.75,2.68.46.36.9.77,1.37,1.12.54.4,1.12.67,1.82.47.12-.03.27-.01.4-.02.74-.05,1.47-.08,2.21-.15.27-.03.54-.13.8-.2v-.04c-.27-.05-.54-.09-.81-.14,0-.04,0-.07,0-.11.25-.07.49-.17.74-.22.2-.04.41-.03.61-.05.21-.02.42-.12.62-.09.34.06.66.19.99.28.09.02.18.04.27.05.3.04.6.07.89.14.27.06.53.17.78.27.42.17.85.33,1.26.54.48.25.93.56,1.41.82.22.11.47.17.72.22.21.03.42,0,.7,0-.3.27-.39.61-.74.72-.1.03-.17.14-.3.27-.26.04-.36.15-.33.36-.14.09-.26.17-.38.26-.4.31-.79.65-1.21.93-.44.28-.92.5-1.38.75-.58.31-1.17.58-1.81.75-.29.08-.58.1-.87.17-.36.08-.71.09-1.05-.06-.15-.06-.31-.13-.47-.17-.37-.11-.71,0-.83.2-.31.03-.6.05-.89.08-.07,0-.14.02-.2,0-.44-.14-.88-.29-1.32-.44-.2-.07-.41-.14-.57-.26-.2-.15-.34-.37-.53-.54-.3-.26-.47-.59-.59-.96-.1-.28-.21-.56-.31-.84-.47-1.27-1.19-2.38-2.07-3.4-.12-.14-.28-.25-.43-.38l-.06.06c.21.28.41.56.62.84.77,1.05,1.43,2.15,1.79,3.43.17.59.26,1.22.74,1.69.3.3.51.68.97.82.54.17,1.06.43,1.58.65.04.02.08.03.12.04.44.04.88.12,1.32.1.91-.04,1.83.08,2.73-.2.37-.11.75-.17,1.12-.27.52-.14,1.04-.28,1.56-.43.06-.02.11-.07.16-.1.17-.08.33-.2.5-.21.15,0,.23-.02.31-.16.11-.22.38-.23.5-.07.16-.02.31-.04.47-.05-.06.14-.08.24-.13.31-.11.14-.23.29-.37.41-.22.18-.47.31-.68.5-.24.22-.45.48-.77.34-.03.07-.03.16-.07.17-.39.18-.74.42-1.02.74-.11.12-.21.29-.22.44,0,.18.13.33.33.37.06-.07.11-.13.18-.2.45.38.9.05,1.35,0,.28-.03.38-.26.48-.49.1-.24.27-.4.52-.5.22-.08.45-.15.63-.29.65-.51,1.28-1.06,1.92-1.59.03-.03.08-.05.09-.08.06-.23.25-.12.39-.15.01.1.02.19.03.29,0,.08.02.17,0,.25-.06.23.16.53-.18.69,0,0,0,.01,0,.02,0,.24,0,.48,0,.71,0,.37.02.74.03,1.11,0,0,0,.01-.01.02-.03,0-.06-.02-.07-.02.02.42.05.83.06,1.23,0,.2-.04.41-.04.61,0,.45.01.89,0,1.34-.02.49-.07.98-.1,1.47-.01.23-.03.46-.03.69,0,.39.03.79.06,1.18.03.34-.08.69.08,1.03.04.09,0,.21-.02.32,0,.1,0,.19-.02.29-.05.45-.06.92-.19,1.35-.09.3-.13.6-.15.91-.02.32,0,.64-.11.96-.09.26-.03.57-.04.86-.02.52-.06,1.03-.08,1.55,0,.32.01.65.02.97,0,.17.06.36.01.52-.1.4-.2.78.07,1.15.03.04.02.1.02.15,0,.37-.02.74-.02,1.11,0,.36.05.71.06,1.07.01.3,0,.61,0,.97-.07-.11-.11-.16-.15-.22-.38-.58-.77-1.16-1.15-1.74-.3-.45-.71-.82-.88-1.36-.02-.06-.11-.09-.17-.13-.04-.03-.11-.03-.13-.07-.25-.4-.68-.57-1.03-.83-.17-.12-.39-.23-.48-.4-.2-.38-.43-.72-.74-1.02-.12-.12-.3-.28-.16-.43-.29-.4-.64-.74-.83-1.16-.15-.32-.3-.61-.55-.85-.07-.07-.21-.07-.32-.11,0,.12-.05.28,0,.36.45.69.91,1.37,1.37,2.05.27.39.55.77.82,1.16.24.34.38.75.76,1.01-.44-.05-.87-.12-1.29-.23-.39-.1-.78-.22-1.16-.37-.2-.07-.41-.18-.54-.34-.57-.72-1.13-1.46-1.67-2.21-.19-.26-.46-.51-.42-.89,0-.03-.03-.06-.05-.08-.25-.29-.5-.58-.75-.87-.33-.39-.68-.77-1-1.17-.38-.47-.86-.32-1.34-.28.19.1.42.13.57.26.33.27.66.57.94.9.48.58.92,1.2,1.37,1.81.26.35.49.72.76,1.05.38.47.78.91,1.19,1.37-.19-.06-.34-.12-.5-.15-.41-.07-.83-.11-1.23-.21-.33-.08-.63-.3-.96-.33-.54-.04-.95-.4-1.5-.45-.55-.04-1.09-.27-1.63-.42-.04-.01-.12-.06-.11-.08.08-.29-.17-.23-.28-.23-.58,0-1.07-.26-1.57-.53-.12-.06-.26-.1-.39-.15-.27-.1-.56-.18-.81-.32-.18-.1-.32-.27-.5-.37-.36-.21-.74-.4-1.1-.61-.36-.21-.68-.48-1.12-.5-.23,0-.46,0-.61.23.14-.01.28-.06.42-.1.19-.05.31-.03.45.17.15.22.4.38.63.54.24.17.51.31.77.44.37.18.74.35,1.12.52.14.06.3.11.45.16,0,.02,0,.04-.01.07-.22-.02-.44-.05-.66-.07.01.05.02.1.04.15-.74,0-1.35.34-1.97.64.23-.05.45-.13.67-.18.46-.1.89-.31,1.4-.19.41.1.82.18,1.2.37.33.16.65.33,1,.51-.81.28-1.59.54-2.35.81-.76.28-1.61.31-2.3.79.16-.02.31-.09.46-.1.63-.02,1.2-.3,1.79-.44.3-.07.57-.22.86-.3.14-.04.3,0,.43-.05.39-.14.77-.31,1.15-.47.29-.12.57-.07.85.05.39.17.77.39,1.17.52.87.27,1.75.5,2.63.74.22.06.45.13.75.21-.18.11-.29.2-.42.24-.38.13-.76.24-1.14.35-.13.04-.27.07-.41.1-.38.1-.77.19-1.15.29-.38.1-.76.2-1.13.31-.42.13-.83.27-1.24.41-.71.23-1.43.45-2.18.58-.68.12-1.35.26-2.02.39-.06.01-.13-.01-.19-.01-.25,0-.51,0-.76,0-.14,0-.29-.02-.42-.08-.17-.09-.31-.3-.48-.32-.23-.03-.37-.16-.53-.27-.3-.21-.5-.5-.66-.9,1.11-.22,2.18-.43,3.25-.64,0-.03,0-.05,0-.08-.07,0-.14-.03-.2-.03-.34.02-.68.05-1.01.08-.48.04-.95.12-1.43.1-.37-.01-.82.12-1.08-.34-.15-.26-.37-.49-.55-.74-.04-.05-.05-.18-.03-.19.25-.12.5-.26.76-.33.48-.12.97-.18,1.46-.29.08-.02.13-.13.2-.2-.1-.04-.2-.11-.29-.1-.21,0-.43.05-.64.08-.45.08-.91.18-1.36.25-.13.02-.35.03-.39-.04-.22-.36-.55-.7-.4-1.19.01-.03,0-.07,0-.11,0,0-.01-.01-.02-.02-.12-.18-.33-.37-.47-.58-.07-.11-.15-.23-.19-.36-.03-.1-.03-.21-.07-.31,0-.01,0-.02,0-.03,0,0,0,0-.01-.02-.01-.02-.02-.04-.03-.06-.02-.04-.07-.11-.07-.11-.07-.09-.14-.17-.22-.25-.18-.19-.32-.39-.43-.63-.05-.11.02-.26.11-.33.09-.07.25-.09.34-.02.18.12.38.2.59.25.08-.05.17-.08.29-.07.12.01.24.02.36,0,.28-.01.56-.04.83.06.06.02.15-.03.23-.05,0-.02-.01-.05-.02-.07-.21-.04-.41-.08-.68-.14.1-.06.15-.09.21-.11.89-.24,1.78-.49,2.67-.72.42-.1.85-.14,1.27-.21.35-.06.7-.16,1.06-.18.74-.05,1.48-.08,2.22-.09.6-.01,1.2.03,1.8.01,1.02-.04,2.03.04,3.04.16.76.09,1.48.32,2.17.62.62.27,1.29.46,1.77,1,.39.44.81.85,1.23,1.26.12.12.26.2.4.3.03-.02.06-.05.09-.07-.06-.16-.1-.35-.2-.47-.39-.46-.79-.9-1.2-1.33-.18-.19-.41-.34-.61-.51-.14-.12-.28-.24-.42-.36-.05-.04-.1-.09-.16-.11-.21-.06-.43-.11-.65-.17-.83-.23-1.66-.47-2.5-.7-.06-.02-.11-.03-.17-.03-.45,0-.9,0-1.35.01-.13,0-.26.03-.4.03-.56-.02-1.13-.08-1.69-.06-.55.02-1.1.11-1.65.17-.16.02-.32,0-.47.01-.59.03-1.18.05-1.76.08-.3.02-.59.04-.89.07-.15.02-.31.03-.46.07-.32.1-.63.26-.96.33-.44.09-.9.11-1.35.16-.04,0-.07.03-.11.05-.19.09-.38.19-.58.26-.25.09-.51.13-.76.22-.47.16-.9.14-1.33-.14-.18-.11-.38-.33-.65-.2,0,0-.03-.01-.04-.02.01-.04.03-.07.04-.1-.03.01-.06.02-.08.03,0,0,0,0,0,0-.02,0-.03.01-.05.02-.06.03-.11.05-.16.08-.03.02-.06.04-.1.06,0,0,0,0-.01,0,0,0,0,0,0,.01-.02.02-.04.04-.05.05,0,0,0,0,0,0,0,0,0,0,0,.02,0,0-.02.04-.02.05,0,.02-.01.04-.02.06,0,.01,0,.01,0,.01,0,0,0,0,0,.01,0,.04,0,.08,0,.12,0,.01,0,.02,0,.02,0,0,0,0,0,.02,0,.03.01.06.02.09.03.14.08.28.13.42.03.08.06.16.09.24,0,0,.01.01.02.02.25.37.4.82.6,1.22.04.07.07.15.11.22,0,0,0,0,0,0,.13.15.29.3.35.47.11.28.2.56.28.85.18.37.36.74.53,1.12.42.91.98,1.68,1.61,2.46,0,0,0,0,0,0,0,0,0,0,0,0,0,0,0,0,0,0,.22.27.43.56.67.82.02,0,.03.02.05.03.07.04.14.12.19.2.16.14.33.26.5.39.37-.14.61.31.96.22.02,0,.05.08.08.12.15.16.32.13.43-.04.05-.07.11-.13.17-.19.06.07.13.14.19.21.02-.24.21-.3.4-.32.22-.03.44-.18.68-.04.04.03.15-.05.23-.08.08-.04.16-.1.25-.12.57-.11,1.14-.22,1.71-.33.47-.09.96-.1,1.4-.34.11-.06.24-.1.37-.14.65-.17,1.3-.32,1.95-.51.42-.12.86-.18,1.24-.43.17-.11.4-.13.61-.18.43-.11.87-.21,1.3-.33.23-.07.44-.24.71-.13.29.12.58.22.87.33.19.07.4.13.58.21.4.18.79.38,1.18.57,0,.02,0,.04,0,.07-.15.02-.3.05-.44.04-.14-.01-.27-.08-.43-.13.09.11.18.23.29.36-.35.05-.63.2-.82.55-.06-.01-.16-.03-.25-.04,0,.02.02.05.03.07-.07.03-.14.06-.21.09-.06.03-.13.04-.19.08-.07.04-.13.11-.2.15-.22.12-.46.23-.68.35-.27.15-.55.3-.82.45-.06.03-.15.09-.15.12.04.19-.13.18-.22.21-.43.14-.87.25-1.3.39-1.01.33-2.05.49-3.11.55-.6.04-1.2.03-1.8.04-.25,0-.36.12-.35.43.47.03.94.11,1.4.08.88-.07,1.76-.22,2.64-.33.22-.03.45-.02.67-.08.73-.2,1.46-.43,2.2-.64.31-.09.63-.14.93-.25.31-.12.6-.3.9-.44.36-.17.72-.31,1.08-.48.16-.07.32-.17.48-.25.06-.06.14-.11.21-.18.24-.23.47-.33.83-.16.31.14.45.02.64-.39.08-.16.13-.24.3-.09.31.25.66.45.95.72.47.44.87.96,1.17,1.53.14.26.27.54.45.76.19.23.36.45.45.73.12.39.16.4.54.29.02,0,.03,0,.07,0,.02.08.05.17.06.25.04.35.07.7.11,1.04.03.29.1.59.11.88.01.33-.01.66-.02.99-.02.56-.05,1.11-.05,1.67,0,.67,0,1.34.05,2,.06.79.15,1.59.25,2.38.02.21-.02.3-.24.29-.27-.02-.54-.01-.81-.02-.15,0-.31,0-.46-.04-.2-.05-.4-.15-.6-.19-.31-.07-.57-.29-.92-.22-.14.03-.3-.02-.44-.07-.45-.15-.9-.27-1.38-.18-.05,0-.11.01-.15,0-.3-.15-.6-.07-.9,0-.07.02-.17.04-.22,0-.2-.14-.41-.05-.61-.05-.07,0-.16.02-.22,0-.42-.17-.89-.12-1.33-.29-.31-.12-.68-.08-1.02-.16-.39-.09-.78-.18-1.14-.34-.34-.14-.63-.38-.96-.56-.37-.2-.79-.32-1.11-.61-.23-.21-.61-.18-.8-.48-.15-.24-.34-.44-.49-.68-.02-.03.05-.17.1-.19.58-.16,1.12-.47,1.74-.46.04,0,.08-.01.12-.03.53-.21,1.07-.34,1.64-.36.65-.02,1.3-.28,1.96-.12.02,0,.04-.02.07-.02.24-.03.48-.06.73-.08.3-.02.62.05.89-.04.26-.09.47-.16.62.02.17-.09.31-.15.44-.22.01.02.03.04.04.07-.02.06-.05.11-.07.17.02.01.04.03.05.02.19-.05.37-.1.56-.16-.05-.09-.12-.18-.14-.27-.03-.22-.18-.24-.32-.22-.35.05-.72-.06-1.05.15-.05.03-.15.02-.22,0-.29-.08-.58-.12-.87-.02-.03.01-.07,0-.1.01-.82.1-1.63.19-2.45.29-.55.07-1.11.12-1.66.22-.62.11-1.25.17-1.84.45-.21.1-.48.12-.72.14-.21.02-.26.15-.25.3,0,.22.05.45.07.67,0,.09.02.21-.03.26-.23.24-.16.44.05.65.08.07.13.18.19.27.24.37.57.63,1.01.71.27.05.51.15.68.38.03.04.09.06.14.07.84.16,1.63.53,2.49.62.42.05.83.19,1.25.26.48.08.97.12,1.45.18.37.05.73.14,1.09.18.53.06,1.06.08,1.59.15.74.09,1.48.2,2.22.32.23.04.45.12.67.18.51.13,1.04.15,1.51.43.13.08.2.15.16.29-.1.39.06.81-.12,1.2-.06.12,0,.29,0,.44.05.58.11,1.16.14,1.74.03.54.02,1.08.06,1.62.04.49.13.97.18,1.45.04.41.06.81.1,1.22.03.43.07.86.1,1.29,0,.12.06.28.01.37-.21.34-.05.69-.04,1.03.02.43.12.85.16,1.28.07.7.12,1.4.18,2.09.06.73.14,1.45.19,2.18.05.71.07,1.42.12,2.13.07.91.14,1.82.23,2.73.03.33.08.66.18.98.12.39.43.74.23,1.19-.01.03,0,.07,0,.1.06.29.11.58.17.86.11.51.22,1.01.33,1.52.1.49-.02,1.03.36,1.44.02.03.01.08.02.12.17.78.34,1.56.52,2.33.09.37.23.73.3,1.11.1.52.14,1.05.25,1.57.09.45.23.9.35,1.35.1.37.18.74.28,1.1.09.33.21.66.32.98.29.85.81,1.57,1.4,2.23.33.36.77.63,1.16.94.25.19.33.63.14.92.28.06.54.13.8.19.22.04.37-.05.44-.28-.04-.03-.09-.07-.14-.11.05-.06.09-.1.15-.15-.11-.06-.24-.1-.28-.17-.18-.29-.31-.62-.49-.9-.17-.25-.21-.61-.55-.74-.01,0-.02-.03-.03-.04.06-.01.13-.03.2-.04-.04-.08-.07-.14-.1-.2-.08-.19-.18-.34-.43-.2-.17.1-.28-.04-.36-.16-.06-.09-.1-.19-.14-.29-.12-.29-.19-.6-.35-.87-.15-.24-.19-.48-.19-.75,0-.25-.04-.51-.11-.75-.08-.29-.25-.56-.28-.84-.04-.36-.36-.71-.09-1.1.02-.02,0-.08-.02-.12-.18-.46-.36-.93-.54-1.39-.04,0-.08.02-.12.03,0,.1-.01.2.02.29.11.29.23.57.35.85.04.1.1.21.15.31-.05-.05-.1-.1-.15-.15-.04.17-.08.35-.12.52.03,0,.05,0,.08-.01.04.33.07.65.11.98-.02,0-.03,0-.05,0-.06-.32-.11-.65-.17-.97,0,0,.01,0,.02,0-.03-.03-.06-.05-.08-.08-.08-.34-.17-.67-.25-1.01-.14-.62-.3-1.24-.42-1.86-.09-.48-.45-.83-.48-1.36-.04-.71-.32-1.41-.45-2.13-.06-.32-.29-.63-.15-.98.02-.04,0-.1-.02-.15-.11-.44-.24-.87-.34-1.31-.02-.08.04-.17.07-.29-.08-.4-.17-.84-.26-1.28-.08-.41-.16-.81-.25-1.22-.09-.41-.25-.8-.14-1.25.08-.32.04-.68,0-1.01-.06-.54-.39-1.03-.28-1.6,0-.03-.01-.07-.02-.1-.07-.37-.14-.73-.19-1.1-.03-.19.01-.38,0-.57-.08-.91-.17-1.82-.25-2.73-.02-.23.01-.49-.08-.69-.21-.47.09-.94-.04-1.4-.01-.05.06-.12.09-.17.15-.26.18-.53.04-.81-.26-.55-.25-1.14-.27-1.72,0-.22,0-.45-.04-.67-.09-.49-.1-.99-.04-1.48.03-.21.14-.47.06-.6-.19-.31-.07-.6-.07-.89,0-.2.02-.39-.1-.47,0-.29.02-.52.02-.76,0-.14-.01-.28,0-.41.02-.26.06-.51.07-.77,0-.08-.08-.16-.08-.24,0-.22.04-.43.05-.65,0-.04-.03-.08-.05-.11-.06-.08-.12-.15-.21-.26.21-.04.43-.15.52-.09.26.19.51.05.75.04.27-.02.53-.08.8-.12.15-.02.3-.04.44-.05.55-.04,1.11-.09,1.69-.13.02-.19.19-.13.37-.12.34,0,.68,0,1.02-.06.29-.04.56-.16.85-.22.2-.04.41-.06.61-.08.19-.03.39-.05.58-.08.13-.02.26-.06.38-.05.38.02.65-.14.72-.38.27-.1.62.04.73-.34.21-.04.5.15.57-.23,0-.02.09-.03.13-.05.14-.06.28-.11.41-.18.07-.04.13-.1.21-.14.19-.1.4-.18.59-.28.15-.08.27-.2.41-.29.07-.05.16-.13.22-.11.15.05.42.13.42.21.02.46.01.92-.06,1.38-.07.46-.28.89-.35,1.35-.07.51-.28.93-.55,1.35-.19.29-.45.61-.15.99.01.02.01.05.01.07-.02.26-.02.52-.05.78-.04.33-.11.66-.15.99-.05.42-.07.85-.12,1.27-.03.24-.11.47.01.71.03.06-.02.16-.03.24-.02.1-.04.2-.05.29-.1.88-.2,1.75-.31,2.63-.1.78-.23,1.56-.32,2.34-.03.21.03.43.02.64,0,.31-.02.62-.05.93-.01.12-.06.24-.09.36,0,.03-.03.06-.03.08,0,.25,0,.49-.02.74-.04.46-.08.91-.15,1.37-.11.75-.34,1.48-.38,2.25,0,.14-.03.31-.11.4-.26.3-.34.63-.25,1.01,0,.04,0,.08,0,.12-.08.58-.16,1.15-.24,1.73-.01.1-.01.2-.05.29-.25.6-.27,1.23-.33,1.86-.01.15-.07.29-.12.48.13.12.14.29.03.49-.05.1-.07.22-.07.34,0,.56.02,1.12.02,1.68,0,.59-.03,1.18-.07,1.77-.02.3-.1.6-.13.91-.01.11.06.23.05.34-.03.4-.09.8-.13,1.2-.03.26-.05.53-.09.79-.05.3-.14.6-.16.9-.03.51-.02,1.03-.02,1.55,0,.14.02.28.04.41,0,.12.02.24.02.36,0,.31,0,.62-.03.92-.03.34.05.69-.19,1.02-.15.21-.18.55-.15.83.02.26.16.53.3.77.08.12.26.22.41.25.12.03.23-.07.27-.23.12-.5.31-.99.39-1.5.1-.64.27-1.27.25-1.92,0-.25.07-.5.14-.74.05-.17.11-.32-.02-.48-.04-.05-.03-.16-.02-.24.03-.18.09-.36.1-.55.03-.39-.04-.78.07-1.19.15-.54.14-1.13.2-1.7,0-.03,0-.07,0-.17-.07.13-.1.2-.14.27-.02-.01-.04-.02-.06-.03.05-.09.13-.18.15-.28.03-.17.1-.42.02-.5-.22-.22-.29-.46-.29-.76.08-.03.15-.05.28-.1-.02.1-.01.18-.04.24-.11.22-.07.33.19.47.03-.33.07-.64.09-.96,0-.05,0-.1,0-.15-.21.19-.36.31-.5.44-.02-.02-.04-.04-.07-.05.07-.29.13-.58.2-.87.02,0,.03,0,.05,0,.03.09.1.19.08.26-.05.16-.02.24.24.22.03-.64.06-1.27.09-1.91.01-.3,0-.61.04-.91.07-.53.18-1.06.28-1.59.03-.18.14-.37.11-.54-.11-.51.1-.99.1-1.48,0-.31,0-.63,0-.92-.12-.05-.25-.11-.41-.18.09-.14.16-.23.22-.33.08.16.14.28.22.46.06-.31.11-.55.16-.78-.02.01-.05.03-.07.04-.07-.07-.16-.12-.21-.2-.1-.17-.01-.3.1-.44.05.14.09.25.13.36.01,0,.03-.01.04-.02.24-2.42.47-4.84.71-7.26.05.01.09.02.17.04-.21-.4-.13-.78-.09-1.17.05-.41.11-.82.16-1.23.02-.15.08-.31.08-.46,0-.67,0-1.34.22-1.99,0-.02-.03-.05-.03-.08-.02-.12-.08-.26-.04-.36.13-.34-.09-.68.07-1.05.15-.35.09-.79.14-1.19.04-.35.12-.7.15-1.06.05-.61.08-1.22.11-1.87.13.08.21.12.32.19.01-.11.02-.2.04-.28.01-.06.02-.12.06-.16.14-.16.09-.23-.1-.24-.02-.1-.05-.19.1-.25.06-.02.12-.23.08-.27-.2-.24-.16-.42.04-.55.02-.2.03-.34.04-.51-.08.07-.13.12-.18.16,0-.2-.03-.39,0-.58.02-.16.15-.31.16-.48.03-.35.02-.71.04-1.07.01-.19.06-.39.12-.58.08-.27.18-.53.27-.8.04-.11.08-.22.12-.31-.09-.22-.18-.46-.29-.69-.09-.2-.19-.41-.32-.59-.15-.21-.38-.37-.51-.6-.15-.27-.37-.44-.64-.52-.37-.11-.76-.18-1.14-.27-.12-.03-.24-.05-.36-.07-.06.04-.12.06-.15.04-.25-.16-.49-.33-.74-.49-.02-.01-.05,0-.07-.01-.01.07-.03.14-.04.2-.18-.05-.33-.09-.53-.14.1-.05.17-.08.23-.11,0-.03-.02-.06-.02-.09-.12.03-.33.03-.35.1-.05.14-.1.13-.2.09-.23-.09-.46-.22-.69-.26-.42-.08-.84-.12-1.27-.16-.51-.05-1.02-.09-1.53-.13-.48-.03-.96-.06-1.43-.06-.77.01-1.53.05-2.29.09-.28.01-.58.01-.77.37.18.05.35.13.52.14.59.05,1.19.06,1.79.11.8.06,1.6.14,2.4.23.47.05.94.12,1.4.22.95.2,1.9.42,2.84.64.4.09.79.24,1.19.32.55.11,1.12.16,1.56.54.36.3.51.52.1.92-.22.21-.49.37-.74.53-.44.29-.89.58-1.35.84-.21.12-.48.13-.71.21-.34.12-.68.28-1.02.39-.24.08-.46.24-.74.14-.04-.02-.12.09-.19.12-.07.03-.15.07-.23.07-.15,0-.31-.04-.46-.04-.18,0-.36.03-.55.05-.33.03-.66.12-.99.09-.38-.02-.79.29-1.14-.09-.03-.03-.09-.04-.14-.06-.42-.15-.79.11-1.19.13-.29.01-.6.21-.82-.14.04-.07.08-.13.11-.2-.02-.02-.04-.03-.06-.05-.07.07-.12.16-.2.21-.21.14-.43.35-.65.36-.36.02-.74-.08-1.1-.14-.05,0-.13-.09-.13-.13,0-.24-.03-.5.05-.71.14-.39.07-.76.01-1.14-.03-.22-.11-.43-.17-.64-.04-.13-.11-.26-.12-.39-.01-.61,0-1.23,0-1.84,0-.2-.03-.4-.03-.6.01-.41.08-.82.04-1.22-.07-.61.02-1.24-.16-1.85,0-.02,0-.03,0-.05-.06-.48-.11-.97-.18-1.45-.04-.27-.09-.53-.15-.9-.13-.13-.14-.13-.16-.54-.05-1.33-.1-2.67-.15-4,0-.11-.03-.22-.02-.32.02-.22.08-.44.09-.66.01-.23-.04-.46-.03-.69.02-.56.08-1.11.09-1.66,0-.74.03-1.48.18-2.22.13-.64.24-1.29.33-1.94.05-.33.01-.68.06-1.01.08-.56.22-1.11.31-1.66.05-.3.03-.62.05-.92.01-.18.04-.36.04-.54.02-.39.04-.78.05-1.18,0-.08,0-.17-.03-.23-.11-.14-.11-.27-.06-.44.06-.19.14-.39,0-.58-.02-.03,0-.1,0-.14.02-.18.03-.36.05-.54.01-.09.04-.18.06-.27.03-.13.09-.27.06-.38-.04-.13-.07-.24-.07-.38,0-.13-.05-.27-.08-.41,0,0,.04,0,.07,0-.03-.14-.1-.29-.07-.43.06-.31.19-.61.24-.92.05-.34.02-.69.07-1.03.07-.57.17-1.13.25-1.69.02-.18,0-.37-.01-.56,0-.05-.02-.1,0-.14.08-.17.16-.34.25-.5.12-.24.2-.5.56-.47.2.02.31.06.32.28,0,.18.04.37.12.53.32.68.7,1.32,1.22,1.88.48.53.94,1.08,1.42,1.61.43.48.89.95,1.31,1.44.39.46.77.93,1.14,1.41.17.22.34.41.64.43.09,0,.18.08.26.13.15.11.59.11.66-.06.05-.12-.04-.32-.09-.47-.02-.07-.11-.12-.17-.17-.12-.08-.24-.15-.36-.23-.28-.19-.56-.37-.82-.57-.07-.05-.1-.16-.13-.23-.07-.03-.17-.05-.22-.1-.21-.25-.41-.51-.61-.77-.36-.44-.65-.94-1.16-1.24-.08-.05-.13-.16-.2-.24-.08-.09-.18-.16-.27-.25-.05-.05-.12-.09-.16-.15-.25-.41-.49-.82-.72-1.2.12-.25.22-.48.33-.72-.04-.05-.1-.11-.15-.17.02-.02.03-.04.05-.06.16.09.33.17.47.27.7.53,1.39,1.07,2.1,1.59.26.19.56.33.84.5.23.15.44.34.68.45.35.16.69.34,1.01.56.43.3.89.54,1.46.26.48-.24.89-.56,1.28-.92.31-.28.63-.56.99-.76.35-.2.75-.3,1.14-.43.35-.11.72-.2,1.08-.29.38-.09.78-.14,1.13-.28.46-.18.89-.44,1.32-.68.13-.07.21-.23.34-.29.31-.15.39-.28.3-.67-.11.02-.23.02-.33.07-.37.16-.75.3-1.08.51-.77.49-1.64.69-2.47,1.03-.46.19-.95.3-1.4.5-.7.31-1.37.67-2.07.98-.22.1-.5.13-.74.1-.31-.04-.6-.18-.89-.29-.07-.03-.13-.1-.19-.16-.09-.09-.17-.2-.28-.28-.34-.26-.68-.51-1.03-.77-.28-.21-.56-.41-.84-.62-.2-.14-.42-.27-.61-.42-.35-.28-.67-.6-1.04-.84-.38-.25-.82-.41-1.23-.62-.11-.06-.21-.13-.31-.21-.11-.09-.15-.19.01-.27.17-.08.35-.15.52-.22.2-.08.42-.13.59-.24.45-.29.87-.61,1.41-.72.03,0,.07-.02.08-.05.12-.26.37-.16.58-.21,0-.03-.02-.07-.03-.13.19-.03.4-.02.56-.1.37-.2.72-.45,1.08-.69.3-.2.61-.41.91-.62.18-.13.41-.21.39-.49-.04,0-.07.01-.13.02,1.16-1.08,2.24-2.18,3.15-3.49-.12.03-.23.06-.37.1.28-.25.54-.47.8-.7.11-.09.23-.18.31-.3.29-.44.59-.86.78-1.36.04-.12.06-.26.13-.35.36-.4.5-.88.6-1.39.04-.19.01-.41.1-.57.27-.49.58-.95.88-1.42.02-.04.03-.09.04-.14.04-.12.08-.25.12-.37.03-.07.09-.12.12-.19.15-.43.29-.87.44-1.3.14-.4.29-.8.45-1.2.2-.5.4-1,.6-1.49.06-.15.15-.21.3-.07.13.13.26.27.4.37.16.11.33.22.51.26.26.04.52.01.8.01,0,.13-.03.28,0,.41.13.59.14.62.64.53.01,0,.03.01.04.02.04.07.08.14.09.16-.08.29-.13.54-.24.77-.08.18-.16.3.06.4-.06.21-.38.34-.18.62.01.02-.04.09-.07.12-.31.33-.42.72-.41,1.17,0,.06-.02.14-.05.18-.21.24-.44.46-.66.7-.08.09-.21.26-.18.31.14.21-.06.24-.14.33-.07.07-.15.12-.23.19-.58.48-.93,1.15-1.39,1.73-.26.33-.54.66-.84.97-.2.21-.44.39-.66.58-.17.15-.33.3-.51.45-.43.35-.85.71-1.29,1.05-.43.34-.86.67-1.29,1-.24.19-.48.37-.72.56.12.08.23.14.29.1.32-.18.63-.39.94-.59.02-.01,0-.09,0-.11.15-.07.31-.13.45-.22.08-.05.13-.15.2-.22.62-.54,1.24-1.06,1.85-1.6.31-.28.69-.46.96-.81.3-.39.67-.73,1-1.1.18-.2.27-.47.49-.64.06-.04.06-.15.08-.2.09-.08.18-.14.26-.22.06-.06.09-.14.15-.19.42-.36.7-.82.98-1.29.06-.11.13-.21.21-.31.14-.2.31-.38.43-.59.16-.28.3-.58.44-.87.05-.09.27-.11.15-.25-.19-.22-.09-.34.1-.46.03-.02.04-.05.07-.09-.17-.15-.11-.25.03-.41.32-.36.53-.77.34-1.28-.01-.04-.02-.09-.01-.12ZM36.61,96.11c.05-.23.08-.41.12-.61.06.05.12.1.16.14-.09.15-.17.28-.28.46ZM39.61,70.29c.03-.25.06-.49.11-.73.01-.06.08-.11.13-.17-.06.42-.12.84-.19,1.25-.03,0-.06,0-.09-.01,0-.11.01-.23.03-.34ZM39.77,70.8c0,.09,0,.17-.01.26-.07.03-.14.06-.22.1-.05-.27.03-.39.23-.36ZM37.75,13.45s-.04-.04-.06-.07c.04-.07.08-.14.12-.2,0-.02-.01-.04-.02-.06-.06.03-.14.05-.19.1-.09.09-.18.2-.25.31-.07.1-.17.21-.16.31.03.18-.07.25-.18.35-.18.15-.35.32-.53.47-.04.04-.11.07-.16.07-.38-.03-.61.23-.87.44-.11.09-.23.16-.35.23-.04.02-.1,0-.16.01,0-.05,0-.11,0-.16.06-.26.3-.23.48-.32-.1.01-.21.03-.35.04.02-.1.03-.19.07-.26.19-.46.37-.92.57-1.38.3-.69.6-1.37.91-2.05.17-.38.39-.75.53-1.14.2-.58.38-1.16.37-1.81,0-.42-.23-.76-.22-1.17,0-.32-.05-.65-.14-.95-.07-.22-.23-.41-.36-.61-.18-.26-.37-.51-.56-.76.02-.03.04-.06.06-.1.29.09.58.18.87.26.3.08.6.18.91.23.28.05.52.37.81.2.49.19.95.41,1.44.55.31.09.64,0,.91-.21.14-.11.24-.11.34.02.14.19.22.44.39.59.29.26.05.49.03.73-.02.23-.06.44-.21.62-.16.19-.31.4-.48.58-.09.09-.15.16-.14.31.01.16-.07.32-.14.48-.1.23-.28.41-.27.71,0,.16-.23.32-.34.49-.21.31-.39.64-.61.95-.26.37-.54.73-.82,1.09-.12.16-.24.33-.37.48-.07.09-.17.15-.27.22-.2.14-.39.27-.59.41ZM32.05,10.47s.08,0,.09-.02c.13-.19.22-.07.36.09.03-.16.04-.26.07-.41.13.12.25.23.37.33-.24.89-.31,1.84-.77,2.7,0,.1-.05.19-.14.24,0,0,0,.01-.01.02,0,0,0,0,0-.01-.02.01-.04.03-.07.03-.15.04-.36-.05-.38-.22-.03-.2-.08-.31-.2-.48-.12-.17-.23-.35-.3-.56-.05-.15-.09-.3-.17-.43-.07-.11-.15-.21-.21-.32-.17-.28-.28-.71.07-.92.14-.08.3-.08.46-.06.03,0,.06,0,.08.01,0,0,0,0,.01,0,.25,0,.5,0,.75,0ZM30.09,15.67c-.27.24-.53.5-.81.72-.33.26-.68.49-1.03.74-.05.03-.08.08-.13.11-.11.08-.19.19-.39.1-.14-.06-.35.02-.52.07-.12.03-.22.09-.34.2.13.04.25.07.38.11,0,.02,0,.04,0,.06-.19.01-.37.03-.61.04.08-.14.13-.22.16-.26-.1-.08-.18-.18-.28-.21-.16-.05-.34-.1-.5-.07-.31.05-.54-.09-.83-.2.07-.07.12-.11.17-.16-.04-.02-.06-.04-.09-.06-.07-.03-.17-.04-.2-.09-.19-.31-.52-.38-.82-.52-.11-.05-.21-.19-.24-.31-.06-.21.02-.5-.1-.65-.08-.11-.1-.21-.09-.31-.08-.15-.12-.31-.03-.47.11-.19.32-.22.52-.22.11,0,.22.02.32.02.14,0,.26-.04.39-.06.35-.07.52.11.79.29.27.18.69.04.99,0,.35-.05.64,0,.99.05.27.04.55,0,.83.01.15-.02.3-.05.45-.07.17-.03.35-.04.52-.06.01,0,.03,0,.04,0,0,0,0,0,.03,0,.04,0,.07-.01.11-.02.02,0,.04-.01.06-.02.06-.05.11-.1.17-.15.05-.04.1-.08.15-.13.04-.03.07-.07.1-.11,0,0,0,0,.02-.02,0,0,0,0,0,0,0-.01.02-.02.02-.04.02-.03.03-.05.04-.08,0,0,0,0,0,0,0-.02.01-.03.02-.05.01-.04.02-.07.03-.11.03-.15.2-.24.34-.22.15.02.27.15.27.3,0,.21-.08.41-.19.58-.09.14-.2.27-.29.4-.06.08-.11.17-.16.26-.02.13-.1.24-.2.34.01.09-.01.2-.09.27ZM19.86,14.6c-.16-.02-.31-.16-.45-.27-.07-.05-.1-.15-.13-.24-.17-.43-.17-.42.24-.59.32-.13.62-.27.94-.4.06-.02.16.02.21.06.22.18.44.37.65.56.1.09.21.19.28.3.29.49.68.89,1.16,1.28.03-.14.05-.24.08-.33.02-.05.07-.11.11-.11.04,0,.09.05.14.08-.03.04-.05.09-.08.13.32.57.64,1.15.98,1.77-.41-.12-.83-.22-1.23-.39-.53-.22-1.04-.47-1.55-.73-.41-.22-.8-.48-1.2-.73-.07-.04-.12-.12-.17-.19.02-.03.03-.06.05-.09.39.16.77.32,1.16.47,0-.02.02-.04.02-.07-.39-.2-.74-.48-1.21-.54ZM23.09,13.7c.14.11.16.16,0,.25-.08.04-.16.08-.24.12.02.03.05.05.07.08h-.25v.94c-.08-.14-.13-.25-.2-.35-.07-.11-.14-.22-.22-.33,0-.01-.02-.03-.03-.04-.07-.02-.14-.06-.17-.13-.1-.21-.24-.39-.35-.59-.05-.09-.09-.18-.14-.27-.05-.07-.1-.14-.15-.21-.1-.14-.2-.28-.24-.45-.04-.19,0-.35.09-.52.12-.26.27-.55.51-.71.29-.19.71-.17.93.11.24.3.12.75.02,1.08-.02.05-.05.1-.09.13-.04.38.19.69.44.89ZM29.38,11.76s0,.02,0,.03c0,0,0,0,0,.02,0,0,0,.02,0,.02.02.05.04.09.06.14.07.18.07.38-.04.55-.07.11-.18.17-.31.15-.13-.02-.21-.1-.26-.22.03.08-.02-.01-.02-.04,0,0-.02-.02-.03-.03-.04-.04-.08-.07-.12-.11-.01-.01-.04-.03-.05-.04-.04-.03-.08-.06-.12-.09-.05-.04-.1-.08-.14-.12-.21-.21-.43-.41-.66-.6-.21-.17-.42-.4-.37-.69.06-.32.44-.49.73-.51.07,0,.14,0,.2.02.12-.05.25-.08.39-.08.49.01,1.09.37,1.06.92,0,.18-.08.32-.19.46-.04.05-.08.09-.12.14,0,0,0,0-.01.02,0,0,0,0,0,0,0,.01-.01.02-.02.04,0,0,0,0,0,0,0,0,0,0,0,0,0,0,0,0,0,.01,0,0,0,0,0,0ZM28.09,13.05c-.18.03-.28-.02-.36-.2-.11-.27-.32-.5-.3-.85.33.12.55.35.71.61.28.45.69.57,1.16.65.24.04.45.03.67-.09.08-.04.2,0,.35,0-.21.33-.34.67-.76.7-.03,0-.07.01-.1,0-.42-.05-.84-.09-1.25-.14-.24-.03-.48-.03-.72-.07-.17-.03-.34-.1-.53-.16.18-.29.5-.09.73-.29.15-.13.5-.02.76-.02,0-.04,0-.09,0-.13-.13,0-.25-.01-.38,0ZM29.86,12.26c.02-.23.14-.34.39-.34.04.39.33.74.13,1.16-.09-.06-.16-.12-.24-.15-.28-.1-.32-.19-.28-.67ZM26.75,13.41s0,.01.01.02c.04.09.07.19.06.28,0,.03-.14.07-.22.07-.65,0-1.28-.03-1.9-.27-.14-.05-.29-.08-.43-.11-.67-.11-.84-.23-.92-.83-.04-.05-.08-.1-.1-.16-.11-.27.07-.5.31-.61.2-.09.4-.07.62-.1.23-.04.44-.18.67-.22.26-.04.52-.03.78.04.22.06.47.16.63.33.02.02.03.04.05.06.09.05.15.15.16.26.03.05.06.1.09.14.09.12.26.15.37.25.31.29.12.66-.18.84ZM31.82,10.01c-.27.11-.52.11-.8.08-.12-.01-.24-.02-.36,0-.13.01-.25.05-.38.06-.56.07-.99-.35-1.39-.68-.06-.05-.08-.11-.08-.19-.02-.02-.03-.03-.03-.04-.04-.04-.07-.08-.08-.13-.05-.17.06-.32.22-.38.32-.12.65-.06.98-.1.22-.03.39,0,.57.14.19.16.37.32.59.44.22.11.46.18.7.23.25.05.32.46.07.57ZM23.63,6.69c.61-.09,1.1-.43,1.64-.68.36-.17.74-.3,1.1-.47.33-.16.64-.34,1.01-.54.47.15.87.53,1.23.95.47.55.93,1.11,1.59,1.44.14.07.31.1.46.15l.05-.07c-.29-.29-.58-.58-.88-.85-.3-.28-.63-.54-.93-.84-.3-.29-.57-.61-.86-.92.24-.03.46-.09.68-.08.18,0,.38.02.48.24.04.1.16.16.25.25.04.04.11.1.1.13-.08.35.12.34.37.33.1,0,.21.1.29.18.24.27.53.48.85.63.5.23.65.65.68,1.15.02.33.07.66.08.99,0,.1-.05.27-.11.3-.12.04-.3.04-.4-.02-.29-.18-.58-.38-.74-.71-.06-.13-.18-.2-.35-.15-.24.08-.5.13-.75.18-.13.02-.27.01-.4,0-.13-.02-.25-.06-.38-.1-.02,0-.05,0-.07-.01-.3-.23-.6-.45-.88-.69-.14-.12-.23-.29-.35-.44.06-.03.13-.07.22-.13-.32-.11-.5.15-.45.58-.3.02-.38-.1-.24-.45-.8-.12-1.59-.2-2.37.06.03.25.15.3.38.31.46.02.92.07,1.36.16.23.05.43.23.66.33.09.04.22.02.33.02.05,0,.12-.02.13,0,.22.32.58.23.89.29.16.03.33.05.48.13-.36-.04-.72-.07-1.08-.11,0,.04,0,.08-.01.12.13.03.26.05.4.08v.03c-.1,0-.2.02-.35.03.26.23.5.44.74.65l-.1.12c-.14-.08-.28-.18-.43-.24-.11-.04-.23-.04-.35-.06-.04,0-.08,0-.12,0-.39-.01-.78,0-1.16-.05-.28-.03-.54-.17-.81-.21-.5-.07-.76-.48-1.13-.73-.41-.28-.78-.64-1.31-.78.14-.24.33-.46.58-.5ZM18.62,12.72c.07-.1,0-.29.03-.43.01-.07.06-.17.12-.2.12-.06.15-.12.09-.23-.01-.03,0-.08.01-.11.07-.21.15-.41.22-.61.06-.17.09-.36.14-.53.02-.08.04-.18.09-.25.04-.07.11-.12.18-.16.11-.06.22-.11.35-.17-.01-.05-.02-.11-.05-.15-.25-.35-.07-.66.02-1.01.09-.33.22-.63.39-.93,0,0,0-.02,0-.02-.03-.58.49-.65.83-.87.07-.05.14-.1.21-.13.08-.03.18-.06.26-.04.21.06.4.15.59.23-.37.5-.79,1.03-1.16,1.57-.15.23-.22.52-.33.78-.05.11-.11.21-.16.31,0-.02-.02-.04-.02-.07-.14.03-.31.02-.4.1-.1.09-.11.26-.17.39.13.01.25.03.37.04.13.01.21.01.31-.15.1-.18.33-.36.53-.38.36-.05.46-.28.5-.55.04-.26.16-.45.32-.66.16-.21.22-.49.36-.73.08-.13.22-.22.33-.33.15-.15.31-.07.47,0,.55.22,1.04.55,1.46.98.31.32.71.46,1.1.59.35.12.72.17,1.08.22.17.02.35-.02.53-.04.29-.03.46.18.7.35-.38.22-.73.43-1.09.61-.2.1-.3.29-.27.52.02.16,0,.33,0,.52-.24-.07-.45-.15-.55-.4-.02-.05-.09-.08-.15-.1-.09-.03-.18-.05-.28-.08-.28.3-.6.34-.98.13-.07-.04-.2-.05-.28-.01-.23.11-.45.26-.68.39-.05.03-.13.04-.19.02-.31-.1-.62-.18-.91-.32-.29-.14-.57-.3-.88-.12-.2.11-.36.29-.55.43-.18.13-.38.23-.56.36-.06.04-.1.16-.08.23.02.06.13.1.2.15.03.02.07.03.13.05-.29.27-.39.58-.34.95,0,.04-.08.12-.14.15-.35.15-.71.28-1.07.42-.23.09-.41-.04-.55-.19-.12-.13-.26-.27-.11-.5ZM41.92,12.98c.2-.07.4-.14.6-.21.21-.07.43-.13.63-.22.2-.09.37-.23.58-.37.02.08.04.11.03.14-.12.4-.23.79-.35,1.19,0,.03-.04.08-.02.09.2.23-.05.34-.13.49-.06.11-.11.23-.14.34-.11.39-.16.8-.32,1.17-.14.31-.12.69-.39.96-.07.07-.05.25-.07.38,0,.02.01.05,0,.07-.16.27-.32.54-.49.82-.12-.19-.23-.39-.37-.56-.27-.35-.56-.44-.96-.28-.25.1-.5.21-.7.37-.3.24-.56.53-.85.78-.18.15-.39.28-.59.4-.57.33-1.16.61-1.7.98-.41.28-.75.67-1.11,1.01-.2.19-.41.38-.6.58-.11.12-.18.27-.27.41.23.09.36-.01.48-.16.31-.42.71-.72,1.2-.91.12-.05.21-.22.33-.25.31-.07.43-.37.69-.49.28-.13.5-.35.78-.48.78-.38,1.39-.99,2.1-1.47.05-.03.1-.07.15-.09.57-.28.59-.27.7.35.03.16.16.31.02.47.2.22-.03.45.03.68.06.26-.04.34-.31.38-.08.01-.2.1-.21.17-.06.47-.4.8-.55,1.23-.01.04-.06.08-.05.1.09.25-.12.31-.24.42-.16.15-.32.3-.47.47-.03.03,0,.11,0,.1-.31.47-.61.92-.9,1.36-.08.12-.17.23-.26.35-.21.28-.4.58-.64.83-.11.12-.33.15-.48.25-.11.07-.2.18-.3.27l.03.07c-.16-.02-.33-.03-.49-.06-.22-.04-.4.04-.57.17-.44.35-.89.68-1.35,1.01-.1.08-.24.12-.36.15-.38.11-.7.32-1.03.53-.27.17-.59.24-.88.38-.13.06-.23.17-.35.22-.16.06-.33.07-.49.11-.06.01-.12.01-.17.04-.57.4-1.27.51-1.87.85-.16.09-.29.15-.29.38,0,.22-.16.36-.38.36-.4,0-.8,0-1.2,0-.09,0-.2-.06-.25-.13-.23-.38-.6-.45-.97-.36-1.07.26-2.08.13-3.08-.3-.33-.14-.67-.24-1-.39-.15-.07-.28-.2-.42-.3-.28-.19-.54-.43-.85-.55-.38-.15-.67-.4-.93-.68-.35-.38-.68-.77-.97-1.19-.22-.32-.36-.71-.56-1.05-.11-.18-.27-.33-.42-.51-.14.2-.16.34-.08.53.12.27.18.58.33.83.23.36.52.68.79,1.01.21.25.39.51.45.91-.5-.14-.97-.26-1.44-.4-.19-.06-.38-.14-.55-.24-.21-.14-.42-.3-.6-.47-.16-.15-.29-.28-.53-.32-.17-.03-.32-.16-.47-.26-.27-.18-.54-.36-.79-.56-.29-.23-.56-.48-.83-.74-.19-.18-.38-.36-.55-.56-.21-.24-.41-.49-.61-.74-.22-.27-.43-.54-.64-.81-.17-.23-.34-.46-.5-.7-.14-.21-.26-.43-.38-.65-.04-.06-.06-.14-.09-.2-.09-.18-.13-.38-.37-.46-.11-.04-.2-.19-.25-.32-.17-.47-.44-.89-.71-1.31-.2-.31-.26-.7-.38-1.06-.01-.04-.03-.08-.04-.12-.17-.02-.24.06-.19.2.17.49.33.99.53,1.47.19.45.41.89.63,1.33.1.2.23.38.34.58.33.59.66,1.2.96,1.81.37.76.93,1.32,1.52,1.88.39.37.77.75,1.19,1.09.31.26.68.44,1.01.68.54.39,1.08.8,1.62,1.21-.57.08-1.06.35-1.54.69-.15.11-.37.16-.56.18-.74.05-1.5.3-2.2-.09-.38-.21-.83-.35-1.05-.79-.02-.04-.09-.06-.14-.08-.31-.08-.53-.28-.75-.5-.22-.22-.5-.38-.73-.58-.72-.62-1.47-1.21-2.13-1.89-.48-.49-.9-1.05-1.22-1.65-.34-.64-.75-1.23-1.09-1.87-.24-.46-.54-.9-.69-1.38-.16-.5-.51-.94-.52-1.5,0-.18-.13-.36-.18-.54-.01-.05.06-.16.12-.19.19-.09.44-.1.56-.24.19-.23.38-.2.61-.14.06.02.14.03.19,0,.14-.05.29-.09.4-.18.16-.12.3-.29.45-.43.13-.11.23-.1.27.04.14-.05.29-.11.44-.17-.04-.03-.08-.07-.12-.1.21-.01.42,0,.63-.04.12-.03.27-.14.31-.25.06-.17.15-.19.31-.21.27-.03.53-.11.73-.16-.03-.15-.09-.25-.07-.33.04-.16.17-.14.32-.13.12,0,.27-.04.38-.11.21-.14.4-.31.63-.5.17.27.37.51.48.78.35.86.97,1.51,1.58,2.17.43.47.87.92,1.33,1.35.21.2.5.32.75.48.06.04.14.08.18.13.16.2.37.28.61.35.06.02.11.12.15.18.23.37.44.73.59,1.15.13.38.48.7.79.98.36.32.72.64,1.09.95.22.18.14.41.13.63.15-.2.3,0,.45,0,.13,0,.27.03.4.05.05,0,.11,0,.15.02.41.28.87.13,1.3.14.26,0,.51-.02.77-.02.26,0,.53.01.79,0,.13,0,.27-.04.4-.08.49-.16.98-.1,1.47.01.33.07.67.11,1.01.11.16,0,.34-.11.47-.22.17-.14.11-.3-.12-.4.05-.08.11-.16.16-.24-.01-.02-.03-.04-.04-.06-.06.04-.14.07-.17.12-.13.23-.48.4-.73.32-.16-.05-.33-.11-.49-.18-.51-.23-1.01-.26-1.54-.06-.26.1-.57.07-.86.07-.61.01-1.21.02-1.82,0-.43-.01-.88-.06-1.23-.33-.37-.28-.84-.44-1-.96-.08-.26-.34-.46-.52-.68-.02-.03-.05-.05-.06-.08-.11-.31-.31-.54-.51-.8-.34-.42-.54-.94-.44-1.52,0-.04.03-.08.02-.12-.09-.42.21-.66.44-.91.18-.2.38-.02.52.05.25.13.49.31.69.52.14.14.18.37.3.53.06.08.21.16.3.15.41-.07.77.02,1.16.16.41.15.85.21,1.28.32.13.03.25.07.38.1.33.07.66.15.98.22.26.05.46-.12.65-.23.37-.2.73-.24,1.12-.13.12.03.29.04.4-.02.47-.24.96-.22,1.47-.19.16,0,.32-.02.48-.03-.06-.28-.3-.27-.48-.35-.14-.07-.3-.1-.45-.15-.22-.07-.38-.22-.51-.41-.16-.23-.46-.29-.73-.22-.15.04-.32.03-.49.04-.18.01-.39-.02-.55.05-.27.11-.5.31-.77.42-.13.05-.3,0-.45-.01-.12,0-.24,0-.35-.01-.21,0-.43-.02-.64-.02-.22,0-.44.03-.66,0-.27-.04-.53-.14-.77-.2,0,0,0,0,0,0-.02,0-.04,0-.06,0-.04,0-.08-.01-.12-.04-.02,0-.03-.02-.04-.04-.09-.03-.18-.06-.24-.12-.17-.2-.31-.42-.46-.64-.03-.05-.06-.11-.06-.16-.01-.69-.02-1.38-.03-2.07,0-.07,0-.13-.02-.2-.05-.35-.1-.7-.15-1.06.03-.01.05-.02.08-.03.04.02.09.04.13.07.15.14.29.27.42.43.19.21.36.44.53.66.16.21.28.47.47.65.42.38.89.71,1.33,1.07.03.03.06.07.1.08.63.14,1.18.58,1.87.54.13,0,.27-.01.39-.05.44-.13.79.11,1.15.28.29.14.58.27.87.42.1.05.2.11.29.18.2.16.43.26.69.22.01.02.02.04.04.06-.06.03-.11.07-.17.1-.07.04-.14.06-.2.11-.02.02,0,.12.02.13.09.02.21.06.28.02.47-.25.93-.52,1.4-.77.11-.06.25-.09.38-.12.23-.06.45-.12.57-.35.01-.02.03-.06.05-.06.27,0,.28-.25.42-.35.11-.03.23-.06.34-.1.11-.04.2-.11.31-.15.33-.14.35-.47.46-.75.05-.12.06-.26.11-.38.26-.63.58-1.23.97-1.79.02-.03.08-.05.12-.07.02.05.06.11.05.15-.06.2-.14.39-.21.58-.07.19-.14.37-.2.56-.11.41-.22.82-.3,1.23-.04.23-.02.46-.03.7,0,.14-.02.27-.04.41-.02.11-.07.22-.09.34-.08.36-.16.73-.24,1.08h.07s.02.05.03.08c-.1.04-.21.07-.31.12-.12.07-.23.16-.35.23-.51.31-1.02.64-1.55.93-.53.29-1.07.55-1.61.83-.07.04-.12.13-.18.19.08.18.18.15.32.09.49-.21.98-.41,1.47-.61.26-.1.52-.18.78-.28.02,0,.05-.02.07-.02.46,0,.81-.29,1.19-.47.56-.26,1.1-.58,1.74-.63.12,0,.23-.08.35-.13.35-.14.69-.31,1.05-.41.35-.09.72-.08,1.07-.15.29-.06.57-.16.85-.25.55-.18,1.1-.37,1.65-.56.06-.02.11-.09.17-.13.08-.06.15-.13.24-.16.32-.14.64-.28.84-.59.13-.21.22-.44.35-.64.18-.29.18-.62.19-.94.02-.45.04-.91.07-1.36,0-.12.05-.24.03-.34-.11-.38.05-.67.3-.93.24-.25.49-.49.7-.76.17-.22.29-.49.43-.74.06-.12.11-.24.14-.37.43-.23.47-.72.69-1.09.3-.53.59-1.06.88-1.6.02-.04.04-.07.09-.16.12.27.3.44.21.72.06.03.12.07.19.1-.16.33.13.47.26.68.1.15.24.29.3.46.16.47.38.92.4,1.43.02.35-.22.51-.42.63-.47.29-.98.51-1.48.76,0,.03.02.05.03.08Z"/>
      <path class="cls-1" d="M44.99,30.7c-.5-.13-.27-.43-.2-.7.05-.2.18-.37.2-.6.04-.35.66-.65.99-.54.05.02.11.03.13.07.14.25.28.19.46.04.18-.15.37-.29.54-.43-.11-.03-.23-.04-.3-.1-.07-.06-.12-.18-.14-.27-.04-.18-.09-.21-.29-.14-.54.19-1.11.22-1.69.23-.38,0-.76.11-1.14.16-.46.07-.92.12-1.38.19-.31.05-.62.13-.93.2-.35.08-.69.26-1.03.25-.55-.01-1.04.25-1.59.23-.22,0-.44.11-.67.15-.08.02-.17,0-.26,0-.05,0-.11-.01-.14,0-.33.26-.75.26-1.07.18-.67-.17-1.33-.05-1.99-.09-.16,0-.32,0-.33-.21-.01-.19.11-.27.27-.29.55-.09,1.1-.16,1.65-.25.35-.06.7-.13,1.04-.2.45-.09.91-.16,1.35-.3.6-.18,1.21-.21,1.82-.28.16-.02.32-.08.48-.11.27-.05.54-.1.8-.15.42-.07.83-.14,1.25-.22.46-.08.92-.16,1.37-.25.12-.02.25-.05.35-.11.29-.17.6.01.9-.07.3-.08.63-.05.94-.07.03,0,.08,0,.1.02.21.18.44.26.72.22.04,0,.12.08.14.14.04.18.05.36.12.56.05-.22.11-.43.14-.65.05-.33.1-.67.14-1,.06-.62.12-1.23.17-1.85.02-.26.07-.52.02-.77-.04-.22-.19-.43-.32-.62-.05-.06-.21-.02-.33-.04-.08-.01-.22-.05-.22-.08,0-.1.01-.23.07-.3.11-.11.25-.19.39-.26.19-.1.48.03.61.26.27.49.26,1.01.18,1.54-.03.21-.05.41-.07.62-.07.67-.14,1.34-.2,1.98.1,0,.2-.03.24,0,.15.13.11.7-.02.81.02.13.07.23.06.33-.05.53-.36.86-.79,1.13-.31.2-.58.46-.88.67-.13.09-.29.13-.43.21-.12.07-.21.21-.34.26-.18.07-.38.08-.63.13-.06.08-.18.21-.27.33Z"/>
      <path class="cls-1" d="M19.05,83.55v-.35s.05-.01.07-.02c.05.16.11.33.13.49.06.39.11.78.16,1.17,0,.06-.01.11-.02.17-.02.09-.08.19-.05.27.09.32-.05.63-.05.95,0,.3-.06.6-.04.89.04.69.11,1.37.17,2.06.04.48.06.96.11,1.44.03.25.13.5.13.75,0,.34-.07.68-.06,1.01.03,1.21.08,2.42.13,3.64.01.34.03.68.04,1.02,0,.41,0,.81,0,1.23-.21-.03-.28.1-.23.33.04-.03.07-.05.09-.07.02-.02.03-.05.06-.1.02.05.03.07.03.09,0,.18,0,.37,0,.55.01.23,0,.42-.25.54-.05.02-.06.15-.09.22.07-.04.14-.07.21-.11.03-.01.05-.04.12-.09.02.33-.03.6-.29.85.08.06.16.12.25.18-.07.18-.22.35-.03.56.07.07-.27.41-.44.44.12.39.31.78.35,1.18.03.4-.09.8-.14,1.21-.03,0-.07,0-.1,0-.02-.07-.05-.14-.06-.21-.05-.56-.1-1.12-.13-1.68-.02-.51-.02-1.03-.03-1.54,0-.21-.03-.42-.03-.64-.01-.48-.03-.96-.03-1.43,0-.57,0-1.14,0-1.71,0-.66-.01-1.32-.01-1.98,0-.34.02-.67.03-1.01,0-.05.02-.1.01-.15-.04-.44-.09-.87-.13-1.31-.02-.25-.02-.49-.04-.74-.05-.59-.11-1.17-.15-1.76-.01-.23.05-.47.05-.71,0-.31-.02-.61-.04-.92-.01-.23-.05-.46-.06-.68-.02-.64-.02-1.28-.03-1.92,0-.03,0-.07.02-.1.16-.58.12-1.17.09-1.75-.02-.28.02-.33.31-.27Z"/>
      <path class="cls-1" d="M12.67,7.08c-.01.1-.02.17-.03.24.12.01.26.07.36.03.22-.09.42-.24.63-.36.02.03.03.06.05.08-.17.1-.33.22-.51.28-.2.08-.35.18-.39.4,0,.02,0,.06-.02.07-.35.16-.5.6-.93.69-.26.06-.33-.17-.46-.28-.09-.07-.12-.2-.18-.29-.09-.14-.1-.23.06-.37.11-.09.11-.32.16-.52.12-.02.29-.04.52-.08.23-.31.48.06.73.11Z"/>
      <path class="cls-1" d="M9.78,56.25c-.14.08-.27.18-.42.22-.25.07-.51.08-.76.14-.13.03-.24.12-.36.18,0,.02.01.04.02.06-.06-.02-.12-.04-.18-.06-.15-.06-.25-.05-.35.11-.1.15-.25.3-.41.37-.14.06-.33,0-.49-.02-.13-.02-.26-.04-.38-.1-.21-.11-.22-.23-.04-.39.13-.11.28-.22.44-.27.5-.14,1-.28,1.51-.35.46-.06.93-.01,1.4-.01.01.03.03.06.04.09Z"/>
      <path class="cls-1" d="M22.56,62.47c-.17.25-.24.26-.47.08-.07-.06-.14-.12-.22-.16-.05-.02-.13,0-.19,0,0,.02,0,.04,0,.06.06.03.13.06.25.11-.15.05-.26.09-.4.14.05-.24.11-.46-.22-.6.24-.02.4-.05.56-.03.72.08,1.44.07,2.16-.02.49-.06.64.02.78.35-.17,0-.34,0-.51,0-.21.01-.45-.02-.63.07-.29.15-.55.22-.85.06-.07-.04-.16-.03-.24-.04Z"/>
      <path class="cls-1" d="M30.14,95.98c-.07.31.15.43.31.6.18.19.21.45.16.7-.05.2-.01.35.18.47.05.03.09.13.08.19,0,.06-.08.11-.13.17-.01-.07-.02-.14-.03-.21,0-.03.01-.06-.03-.14-.08.06-.16.13-.26.21-.02-.14-.09-.31-.05-.46.08-.35-.06-.64-.18-.95-.07-.17-.11-.35-.16-.53.04-.02.08-.03.12-.05Z"/>
      <path class="cls-1" d="M4.72,47.19c-.05.13-.09.23-.13.34-.05-.05-.11-.1-.16-.15-.21.22-.42.4-.77.33-.12-.03-.26.04-.38.08-.15.04-.29.08-.44.12,0-.02-.02-.04-.02-.06.12-.06.23-.13.35-.19.15-.09.28-.2.43-.27.1-.05.22-.04.33-.06.26-.04.51-.08.8-.13Z"/>
      <path class="cls-1" d="M4.38,52.46c.64-.25,1.33-.09,1.99-.23,0,.03,0,.07.01.1-.66.07-1.32.14-1.99.21v-.08Z"/>
      <path class="cls-1" d="M39.77,71.67c0,.11.02.22.01.34,0,.24-.02.47-.04.71,0,.08-.04.15-.07.23-.04-.01-.09-.02-.13-.03.04-.41.09-.81.13-1.22.03,0,.06,0,.09-.01Z"/>
      <path class="cls-1" d="M29.92,95.94c.02-.26-.27-.54.07-.81.06.19.13.37.15.55,0,.09-.1.19-.16.28-.02,0-.04-.02-.06-.03Z"/>
      <path class="cls-1" d="M13.03,12.84c-.03.05-.05.14-.1.16-.23.11-.46.21-.71.29.24-.19.47-.42.81-.44,0,0,0,0,0,0Z"/>
      <path class="cls-1" d="M5.49,47.1c-.2.05-.41.1-.61.15,0-.04-.02-.07-.03-.11.2-.05.41-.1.61-.16l.03.12Z"/>
      <path class="cls-1" d="M13.7,73.97c-.04-.15-.07-.31-.11-.46.03,0,.06-.02.1-.02.04.15.08.31.13.46-.04,0-.07.02-.11.03Z"/>
      <path class="cls-1" d="M38.65,92.31c-.01-.18-.03-.36-.04-.53.03,0,.06,0,.09-.01,0,.09,0,.17.01.26,0,.09.01.19.02.28-.03,0-.05,0-.08,0Z"/>
      <path class="cls-1" d="M25.99,22.9c.15-.42-.21-.6-.38-.87-.12-.19-.23-.37-.36-.56-.04-.06-.1-.11-.16-.14-.19-.11-.43-.16-.58-.31-.22-.22-.5-.2-.74-.27-.41-.12-.83-.15-1.25-.22-.21-.04-.36-.25-.29-.44.02-.06.11-.12.17-.12.35,0,.7,0,1.05.01.09,0,.19.05.27.09.44.23.88.47,1.31.71.04.02.07.06.11.06.63-.07.73.45.96.84.15.24.32.47.5.69.05.05.17.08.25.06.24-.05.47-.15.7-.21.31-.08.62-.13.93-.19.07-.01.16,0,.22-.04.26-.14.49-.13.78-.04.35.12.74.12,1.1.18.25.04.5.08.79.13.15-.13.66-.1.75.04.13-.03.23-.09.33-.08.15.02.28.06.42-.07.06-.06.18-.07.27-.11.15.33.46.34.68.05.15-.2.41-.22.65-.13.12.05.28-.03.43-.03.06,0,.13.02.17.06.03.03.03.14,0,.16-.06.03-.14.05-.2.03-.15-.05-.23-.04-.36.09-.14.14-.36.22-.56.28-.29.07-.59.09-.88.15-.07.01-.13.08-.19.13,0,.02.02.04.03.06.07.01.15.03.25.05-.39.21-.77.32-1.18.21.29,0,.57-.04.77-.3-.25-.21-.75-.14-.94.12-.14-.13-.28-.12-.46-.02-.1.06-.27-.01-.41-.01-.32,0-.64.03-.96.01-.53-.03-1.06-.08-1.59-.12-.35-.02-.7-.05-1.05-.03-.31.01-.61.09-.91.13-.13.01-.27-.02-.44-.03Z"/>
      <path class="cls-1" d="M27.01,24.56c.68-.07,1.36-.14,2.03-.2-.57.51-1.73.6-2.03.2Z"/>
      <path class="cls-1" d="M29.84,24.37h-.67s0-.05-.01-.07c.47-.37,1.04-.42,1.61-.45,0,.02.01.04.02.07-.28.08-.57.16-.89.25,0,.03-.03.1-.06.2Z"/>
      <path class="cls-1" d="M31.61,23.63c.1-.19.65-.26.94-.12-.31.04-.63.08-.94.12Z"/>
      <path class="cls-1" d="M18.3,23.43c-.16.06-.32.13-.46.19.08-.1.18-.23.29-.37.07.07.12.13.17.18,0,0,0,0,0,0Z"/>
    </g>
  </g>
</svg>