<?xml version="1.0" encoding="UTF-8"?>
<svg id="Layer_2" data-name="Layer 2" xmlns="http://www.w3.org/2000/svg" viewBox="0 0 95.51 113.72">
  <defs>
    <style>
      .cls-1 {
        fill: #000;
        stroke-width: 0px;
      }
    </style>
  </defs>
  <g id="illustrations">
    <g>
      <path class="cls-1" d="M62.29,38.27c.07.15.14.3.22.44.4.73.8,1.46,1.25,2.16.36.56.76,1.08,1.19,1.58.18.13.35.26.53.39-1.15-1.33-2.14-2.77-2.98-4.29-.07-.09-.14-.18-.22-.27Z"/>
      <path class="cls-1" d="M13.59,99.81c-.21.6-.44,1.2-.66,1.8.14.11.24.28.25.47.04.1.05.21,0,.34,0,.02-.01.04-.02.05.08-.12.15-.24.2-.37.11-.81.21-1.63.31-2.44-.03.05-.06.1-.08.15Z"/>
      <path class="cls-1" d="M95.51,49.14c.02-.35-.11-.71-.1-1.06,0-.35-.25-.61-.23-.99.02-.37-.21-.77-.38-1.14-.14-.29-.36-.54-.54-.8-.17-.25-.36-.5-.52-.77-.07-.12-.07-.28-.13-.41-.08-.17-.18-.33-.27-.49-.07-.14-.11-.31-.21-.42-.2-.23-.43-.43-.65-.65-.14-.21-.37-.42-.39-.65-.05-.48-.3-.86-.57-1.16-.52-.57-1.13-1.07-1.73-1.56-.49-.41-1.04-.75-1.54-1.15-.43-.34-.82-.73-1.24-1.09-.42-.35-.9-.65-1.27-1.05-.31-.34-.65-.58-1.05-.81-.55-.31-1.07-.68-1.49-1.16-.05-.05-.1-.11-.16-.14-.21-.12-.43-.21-.63-.34-.82-.51-1.63-1.05-2.45-1.55-.91-.55-1.84-1.08-2.76-1.62-.4-.24-.81-.46-1.2-.72-.44-.29-.86-.61-1.3-.9-.32-.22-.66-.41-.99-.61-.78-.45-1.58-.86-2.33-1.35-.46-.3-.84-.71-1.25-1.08-.89-.8-1.81-1.58-2.65-2.43-.47-.47-.82-1.06-1.2-1.61-.52-.76-.96-1.58-1.53-2.3-.59-.74-1.31-1.38-1.97-2.08-.3-.32-.6-.64-.89-.97-.44-.5-.86-1.02-1.31-1.51-.9-.96-1.81-1.9-2.72-2.85-.53-.56-1.11-1.03-1.9-1.2-.19-.04-.39-.15-.53-.29-.33-.32-.26-1.18.07-1.57.12-.14.34-.31.14-.5.08-.17.16-.32.23-.47.64-1.46.55-2.92-.07-4.35-.35-.8-.96-1.42-1.61-1.99-.35-.31-.84-.52-.92-1.16-.28.38-.6.18-.9.19l.41.23-.08.14c-.17-.1-.35-.19-.52-.29.01-.02.02-.05.03-.07-.07.04-.14.07-.21.11v-.09c-.07-.03-.14-.08-.22-.1-.09-.02-.2.01-.29,0-.21-.05-.41-.12-.62-.16-.26-.05-.53-.08-.8-.12-.53-.07-1.04-.02-1.54.17-.32.12-.68.32-.98.27-.37-.06-.67.07-.95.18-.58.22-1.08.63-1.38,1.15-.17.3-.34.32-.6.33-.2,0-.31.07-.2.32.15.34.25.7.37,1.06.02.05-.02.12-.02.18,0,.09,0,.19.03.28.11.3.3.59.32.9.03.51.35.82.68,1.05.26.18.4.37.51.64.09.23.19.46.33.67.44.7.89,1.39,1.36,2.07.27.4.54.81,1.02,1.01.52.21,1.01.55,1.54.63.39.06.71.29,1.15.27.45-.02.93.27,1.41.44-.26.53-.51,1.01-.74,1.49-.1.21-.24.44-.24.66,0,.62.03,1.24.08,1.85.04.46.14.92.19,1.38.01.1-.04.22-.1.3-.12.12-.26.24-.41.32-.28.15-.55.34-.85.39-.2.04-.44-.12-.67-.19.03-.11.06-.19.08-.28-.08-.04-.16-.07-.23-.11,0-.29,0-.57,0-.85.01-.53.03-1.05.05-1.58.01-.38.03-.76-.15-1.1-.05-.09-.17-.19-.27-.21-.06-.01-.18.13-.2.21-.09.37-.2.74-.2,1.12,0,.84-.1,1.67-.33,2.48-.03.1-.16.27-.19.25-.29-.1-.31.16-.42.29-.53.61-1.06,1.23-1.58,1.85-.68.82-1.34,1.64-2,2.47-.49.6-.99,1.18-1.45,1.8-.38.5-.55,1.09-.67,1.69-.16.79-.36,1.57-.54,2.36-.03.12,0,.26-.05.36-.2.37-.01.85-.37,1.17-.02.02,0,.1,0,.15.09.57-.35,1.09-.13,1.67,0,.03,0,.07,0,.09-.22.27-.03.51.06.75.02.06.07.11.09.16.24.46.47.91.73,1.41-.19.18-.44.35-.6.58-.17.25-.37.41-.63.56-.98.57-1.92,1.2-2.89,1.78-.37.22-.77.4-1.17.59-.38.18-.76.34-1.14.52-.37.18-.71.43-1.09.55-.37.12-.66.27-.84.61-.21-.08-.59.19-.52.4.1.32-.11.32-.3.37-.21.05-.42.1-.63.16-.22.06-.44.12-.66.2-.06.02-.12.08-.19.13-.24-.26-.47-.08-.7.06-.15.09-.25.15-.38-.04-.18-.25-.45-.31-.74-.18-.2.09-.4.19-.59.29-.72.38-1.4.82-2.15,1.12-.85.33-1.67.71-2.45,1.19-.05.03-.09.07-.15.13.11.05.18.08.21.09-.22,0-.48-.05-.69.04-.23.09-.41.3-.64.48.08.04.1.07.11.06.9-.18,1.76-.49,2.6-.85.06-.03.1-.15.15-.15.15,0,.3.07.45.05.2-.03.43-.07.59-.19.25-.19.44-.47.68-.67.14-.11.34-.13.52-.18.08-.02.18.01.26-.01.35-.11.7-.25,1.06-.36.17-.05.34-.07.51-.1.21-.03.43-.08.63-.06.2.02.3,0,.3-.22,0-.05.04-.1.1-.21.11.4.32.3.54.21.34-.15.68-.32,1.02-.47.28-.12.58-.3.86-.29.26.01.38-.18.58-.22.41-.09.87-.1,1.03-.62.04-.12.11-.25.2-.34.1-.11.22-.28.31-.11.11,0,.19-.04.23-.01.22.18.37.15.54-.08.09-.12.26-.26.4-.26.42,0,.71-.28,1.07-.4.29-.1.57-.22.9-.34.05-.06.14-.21.26-.29.54-.35,1.11-.64,1.62-1.02.53-.4,1.02-.87,1.51-1.32.23-.22.43-.47.63-.71.08-.1.14-.22.24-.31.24-.21.55-.36.72-.61.27-.38.46-.82.67-1.25.31-.63.75-1.14,1.27-1.59.06-.05.14-.15.13-.19-.07-.21-.17-.58-.26-.58-.24,0-.57.09-.71.26-.38.49-.67,1.04-1,1.57-.1.15-.21.3-.34.47-.06-.15-.1-.23-.13-.31-.2-.43-.47-.85-.59-1.3-.16-.61-.22-1.25-.19-1.89.04-.78.23-1.51.5-2.22.15-.39.28-.8.46-1.18.19-.38.32-.81.75-1.03.21-.11.44-.28.56-.49.38-.65.96-1.14,1.3-1.83.16-.34.47-.61.73-.9.44-.52.89-1.03,1.34-1.55.36-.41.72-.81,1.13-1.27.16.55.61.57,1.06.63.11-.3.24-.03.29,0,.54-.13.96-.37,1.25-.69.33.3.65.55.93.84.55.59.69,1.37.86,2.12.04.2,0,.41,0,.62,0,.4,0,.8-.01,1.2,0,.36.03.74-.03,1.09-.13.73-.33,1.45-.49,2.18-.17.76-.32,1.52-.52,2.27-.17.65-.4,1.28-.6,1.92-.25.75-.49,1.5-.75,2.24-.32.89-.67,1.78-.99,2.67-.06.15-.07.32-.13.46-.09.23-.24.43-.32.66-.07.2-.1.43-.13.64-.03.24-.03.49-.06.74,0,.05-.08.12-.13.12-.38.03-.76.05-1.13.08-.35.02-.71,0-1.06.06-.65.13-1.27.24-1.84-.24.49-.37.98-.74,1.47-1.11.1-.08.26-.22.31-.19.3.16.39-.08.52-.24.05-.06.08-.15.14-.19.37-.29.76-.56,1.12-.85.05-.04.04-.22,0-.28-.1-.13-.25-.22-.42-.37-.05.04-.16.11-.26.19-.17.15-.32.32-.5.45-.57.4-1.17.74-1.71,1.17-.41.33-.75.75-1.14,1.11-.16.15-.37.26-.55.4-.14.11-.25.26-.39.36-.32.22-.69.39-.98.64-1.03.92-2.21,1.62-3.4,2.29-.31.17-.59.4-.9.56-.59.32-1.19.63-1.8.92-.65.31-1.3.6-1.96.87-.34.14-.72.2-1.07.31-.6.19-1.18.41-1.78.6-.38.13-.77.24-1.16.36-.89.29-1.78.58-2.67.86-.34.11-.68.18-1.03.27v.13c.13.04.25.11.36.1.39-.03.79-.04,1.16-.15.44-.12.99.02,1.29-.5.02-.04.17-.02.25-.01.26.03.51.07.77.1.03-.07.05-.14.08-.22.11.05.2.08.3.12.02-.27.23-.43.45-.36.37.12.69.02,1-.2.21-.15.45-.27.69-.38.25-.12.52-.21.78-.32.18-.08.35-.17.53-.26-.05.12-.11.18-.18.23-.56.46-1.12.91-1.67,1.37-.09.07-.23.16-.24.25,0,.09.13.19.21.29-.16.12-.33.25-.53.41.42.01,1.56-1.11,1.47-1.38.31,0,.45-.11.56-.41.12-.32.48-.55.84-.54.28,0,.6-.19.68-.42.31.2.2-.11.25-.2.16-.06.3-.1.44-.16.15-.07.29-.18.44-.24.33-.13.66-.26,1-.37.49-.17.85-.57,1.37-.69.27-.06.51-.28.76-.44.45-.28.91-.56,1.34-.86.16-.11.26-.31.41-.45.42-.37.84-.74,1.28-1.08.39-.29.8-.54,1.21-.81.03.03.06.07.09.1-.2.26-.38.52-.59.77-.41.51-1.01.83-1.38,1.42-.45.74-1.05,1.38-1.58,2.07-.4.52-.81,1.04-1.18,1.58-.54.78-1.04,1.59-1.57,2.38-.39.58-.8,1.14-1.17,1.73-.37.59-.68,1.2-1.03,1.8-.29.49-.57.97-.89,1.44-.62.93-.96,2.01-1.6,2.94-.32.46-.63.95-.83,1.47-.24.62-.47,1.24-.8,1.82-.06.1-.03.25-.08.36-.51.98-1.04,1.95-1.55,2.92-.14.28-.25.58-.37.87-.4.94-.9,1.83-1.35,2.75-.25.51-.48,1.03-.71,1.55-.27.62-.54,1.25-.79,1.88-.17.42-.26.88-.6,1.12-.02.57-.36.98-.5,1.44-.15.48-.29.97-.48,1.44-.18.45-.41.89-.62,1.33.03,0,.07.02.07.02-.08.24-.14.48-.23.72-.25.66-.51,1.31-.77,1.97-.19.47-.45.91-.57,1.39-.09.34-.16.67-.31.99-.22.47-.4.97-.65,1.43-.19.35-.37.69-.49,1.08-.1.33-.26.64-.42,1,.1.1.1.22-.13.3-.07.03-.16.09-.19.15-.15.36-.29.72-.43,1.08-.24.58-.48,1.15-.72,1.73.04.03.09.07.1.08-.23.34-.49.64-.65.99-.26.55-.43,1.14-.67,1.71-.18.43-.38.86-.58,1.28-.36.75-.73,1.5-1.11,2.24-.2.38-.42.75-.63,1.12-.23.42-.42.85-.71,1.24-.18.24-.3.56-.34.85-.05.29.03.6.05.98-.4-.19-.56,0-.7.22-.13.22-.26.45-.38.67-.12.77-.22,1.53-.32,2.3.14-.23.41-.4.33-.71-.06-.26.06-.37.25-.47.24-.12.37-.31.43-.57.05-.23.1-.46.18-.68.07-.2.15-.39.25-.57.12-.22.28-.42.41-.63.15-.26.49-.38.48-.78,0-.22.19-.46.33-.67.14-.21.34-.37.49-.58.06-.09.03-.23.03-.29.14-.22.28-.38.35-.58.13-.32.26-.65.37-.98.21-.57.64-1.05.97-1.57.06-.09.04-.23.06-.37.18-.31.47-.65.58-1.03.08-.29.08-.58.31-.79-.02-.1-.01-.19.01-.27.02-.07.09-.14.1-.21.03-.21.33-.33.22-.59.28-.14.32-.41.39-.67.02-.06.08-.1.13-.15.07-.08.17-.15.21-.24.15-.4.27-.8.41-1.2.04-.13.13-.24.17-.37.13-.32.24-.65.38-1.02.13-.21.3-.47.46-.74.11-.17.22-.35.3-.54.21-.51.41-1.02.6-1.53.04-.1,0-.23.04-.33.08-.2.22-.37.3-.57.46-1.18.91-2.35,1.37-3.53.3-.79.59-1.59.91-2.38.25-.62.54-1.23.78-1.85.26-.67.48-1.36.75-2.03.2-.48.46-.93.69-1.39.03-.05.04-.11.05-.17.02-.11,0-.23.06-.33.31-.64.72-1.25.92-1.93.17-.58.58-1.02.7-1.63.1-.55.48-1.04.72-1.56.31-.66.6-1.32.91-1.98.25-.52.51-1.04.76-1.56.21-.44.43-.87.64-1.31.18-.37.32-.76.52-1.12.37-.68.78-1.34,1.15-2.02.36-.65.69-1.31,1.05-1.96.28-.49.58-.97.89-1.45.26-.4.53-.78.8-1.17.07-.11.13-.22.19-.33.18-.3.22-.68.56-.89.17-.1.32-.25.42-.42.51-.83,1-1.68,1.51-2.52.22-.36.47-.71.7-1.07l.07.04c-.2.46-.37.93-.61,1.37-.17.3-.45.54-.3.94.02.06-.04.16-.08.23-.17.33-.38.65-.51,1-.21.56-.34,1.15-.54,1.71-.51,1.39-1.05,2.76-1.58,4.14-.38.98-.76,1.97-1.18,2.94-.25.58-.38,1.21-.71,1.75-.02.03-.02.08-.03.12-.13.43-.23.88-.41,1.3-.25.58-.54,1.14-.44,1.7-.18.16-.31.27-.5.43.2.02.31.03.47.05-.08.21-.09.44-.21.56-.33.29-.38.7-.54,1.07-.06.14-.09.29-.13.44-.09.31-.18.63-.29.94-.1.29-.25.57-.33.87-.21.8-.41,1.6-.59,2.4-.17.79-.56,1.52-.57,2.35,0,.03-.04.07-.06.1-.09.16-.2.32-.26.49-.12.37-.22.76-.29,1.14-.13.64-.14,1.3-.53,1.87-.03.04-.03.1-.04.15-.14.69-.03,1.44-.48,2.05-.02.03-.03.12,0,.15.2.19.05.34-.05.48-.19.27-.33.54-.31.89,0,.22-.04.46-.1.68-.17.61-.36,1.22-.54,1.83-.14.47-.3.94-.41,1.42-.03.11.08.28.17.38.11.12.19.15,0,.32-.2.18-.33.45-.46.7-.06.11-.03.27-.04.41-.02.09-.02.17-.04.25-.09.43-.19.86-.29,1.29-.17.72-.35,1.44-.5,2.17-.12.59-.21,1.18-.31,1.77-.01.08-.03.16-.08.22-.13.15-.27.28-.44.44.15.03.23.05.32.07-.06.23-.12.44-.18.66.05.01.14.04.2.05-.24,1.24,0,2.57-.86,3.63.23.1.41.18.65.29.25-.7.5-1.42.75-2.13.11-.32.24-.64.34-.96.1-.31.25-.64.22-.94-.02-.24-.03-.48,0-.71.03-.28.13-.56.2-.86-.37-.24-.38-.26-.25-.74.01-.04.01-.08.02-.12.06-.46.09-.92.18-1.37.06-.28.23-.53.31-.81.12-.44.2-.88.3-1.32.09-.42.17-.84.26-1.26.06-.29.29-.54.19-.88-.02-.09.05-.2.07-.3.08-.4.39-.74.24-1.19-.02-.05.03-.12.05-.17.08-.25.17-.5.26-.76.23-.67.09-1.45.57-2.05.01-.01.01-.04.02-.06.09-.42.19-.85.28-1.27.01-.07,0-.14.01-.21.02-.12.02-.25.06-.37.1-.27.4-.43.39-.76,0-.1.01-.22.07-.31.16-.26.14-.35-.09-.48.1-.2.2-.4.28-.61.05-.11.04-.25.09-.36.14-.37.33-.72.44-1.1.29-1.03.39-2.1.87-3.08,0-.02,0-.04,0-.06.18-.76.39-1.51.55-2.27.09-.42.1-.86.15-1.29.1-.32.23-.65.44-.94.19-.27.32-.51.1-.81.47-.37.66-1.09.35-1.38.12-.14.29-.27.37-.44.16-.32.27-.67.4-1.01.02-.06.01-.18.04-.19.25-.08.14-.22.12-.35.14-.24.25-.5.35-.76.07-.17.16-.34.2-.51.12-.44.17-.91.33-1.33.16-.42.42-.81.61-1.22.18-.39.31-.8.47-1.2.17-.43.35-.86.52-1.28.1-.24.2-.47.3-.71.05-.12.09-.25.15-.42-.08-.18.83-2.3,1.19-2.61-.04.14-.07.24-.11.35-.09.24-.22.48-.28.73-.09.34-.14.69-.18,1.04-.08.64-.4,1.21-.47,1.86-.08.69-.36,1.36-.56,2.03-.1.31-.25.61-.33.92-.11.41-.17.83-.25,1.25-.06.31-.14.63-.19.94-.03.16.01.33-.02.49-.08.39-.22.76-.28,1.15-.05.32-.04.65-.21.96-.09.17-.14.4.06.55-.05.11-.12.23-.14.35-.1.53-.15,1.07-.28,1.59-.11.45-.18.9-.39,1.34-.22.46-.22,1.03-.34,1.54-.11.46-.27.91-.4,1.37-.03.12-.03.24-.05.35-.09.19-.22.38-.27.58-.15.59-.27,1.19-.41,1.82,0,0,.06.07.09.1-.07.15-.12.27-.17.39-.11.27-.24.54-.31.83-.09.33-.33.65-.17,1.03.02.05-.07.15-.13.21-.11.12-.36.25-.34.32.08.28-.12.3-.27.35.06.19.12.35.16.47-.13.07-.25.12-.4.2.09.13.16.24.23.35-.37.28-.36.28-.28.76.02.14.01.32-.06.45-.06.11-.22.17-.33.25.1.04.22.08.27.11-.15.35-.31.67-.43,1-.12.33-.21.67-.31,1.02-.09.3-.16.61-.24.91-.08.28-.2.56-.27.85-.13.52-.21,1.05-.34,1.57-.13.52-.28,1.04-.43,1.56-.06.2-.11.46-.25.56-.38.27-.49.6-.46,1.03,0,.1-.08.21-.12.31-.05.14-.11.28-.17.44.21.03.37.05.56.07-.07.14-.12.24-.16.34-.02,0-.04-.01-.06-.02v-.29c-.09.05-.17.09-.3.17.06.23.38.49.1.84-.11-.03-.24-.06-.39-.1-.04.23-.09.46-.13.69-.07.13-.15.27-.18.41-.05.21-.18.54-.1.62.31.28.05.29-.12.36-.14.06-.28.11-.42.17v.05c.11,0,.23-.02.36-.02,0,.06,0,.12-.01.17-.06.03-.13.07-.21.11.06.06.09.1.13.14-.08.04-.18.06-.22.12-.15.25-.27.52-.41.79.13-.06.25-.12.3-.14-.13.31-.27.64-.39.97-.03.08.03.2,0,.29-.14.67-.24,1.35-.43,2.01-.21.7-.37,1.42-.76,2.05-.24.38-.6.69-.49,1.21,0,.02-.06.06-.07.09-.07.17-.2.35-.18.5.05.38-.13.54-.44.64-.04.01-.05.12-.08.19.12.03.2.04.34.08-.09.22-.16.43-.24.62.07.06.13.11.14.12-.08.24-.14.44-.2.64-.05.17-.1.34-.14.5-.13.44-.24.89-.38,1.33-.03.08-.13.17-.21.19-.17.04-.34.04-.51.05,0,.03,0,.06,0,.08.15.01.3.03.46.04-.06.12-.08.28-.17.36-.36.29-.39.67-.36,1.09-.06.02-.1.04-.15.06-.28.08-.48.2-.32.56.05.12.05.3,0,.41-.15.31-.33.6-.5.89.05.08.1.14.14.2-.11.13-.4.14-.22.4.09-.02.17-.04.28-.07-.12.15-.24.26-.3.39-.07.16-.1.35-.15.55.02,0,.1.04.19.08-.37.06-.44.31-.43.61,0,.03-.02.06-.03.09-.22.51-.49,1-.65,1.53-.15.49-.41.92-.62,1.38,0,.13-.02.26,0,.39,0,.03,0,.06,0,.08,0,.04.02.08.03.12,0,0,0,.01,0,.02,0,0,0,0,0,0,.05-.01.07,0,.06.02,0,0,0,0,0,0,.07-.02.13-.03.2-.05.04-.01.09-.03.13-.05.01,0,.02,0,.03-.01.07-.04.15-.07.22-.1.19-.1.38-.2.56-.31.35-.21.69-.46,1.04-.68.02-.07.03-.14.05-.22.39-.21.7-.88.48-1.09.21-.32.37-.64.28-1.06.07-.02.16-.04.29-.07-.39-.28,0-.35.13-.53-.11-.05-.21-.09-.3-.13,0-.03-.02-.06-.03-.09.17-.07.34-.14.52-.21.03-.03.06-.07.09-.1-.12-.07-.24-.14-.36-.2,0-.02.02-.04.03-.07.11.02.22.05.38.09.21-.72.47-1.43.6-2.25.36-.2.13-.7.33-1.08-.02-.03-.07-.09-.07-.09.09-.23.17-.41.23-.59.11-.33.23-.66.29-1,.03-.19-.04-.41-.11-.61.02-.2.45.09.38-.34-.09.05-.17.1-.29.16.2-.43.41-.8.56-1.19.1-.28.12-.59.19-.94.12-.04.15-.14-.02-.21-.06-.02-.12-.02-.18-.03-.04-.01-.09-.04-.19-.08.3-.11.41-.23.18-.49-.07-.08.02-.34.09-.5.24-.59.53-1.16.75-1.76.24-.69.41-1.41.64-2.11.2-.62.47-1.22.66-1.85.31-1.04.58-2.1.88-3.15.14-.49.3-.96.45-1.45.17-.53.34-1.05.5-1.58.44-1.51.88-3.02,1.32-4.53.09-.29.25-.57.29-.86.03-.24-.06-.49-.1-.74-.01,0,.05,0,.12.02,0-.02.03-.04.03-.05-.14-.21,0-.36.08-.55.2-.52.34-1.07.52-1.61.11-.33.25-.65.37-.98.13-.35.26-.69.36-1.05.09-.36.15-.74.2-1.11.01-.09-.02-.19-.04-.34.33-.15.32-.53.36-.89,0-.07-.03-.16,0-.21.42-.84.5-1.79.76-2.68.29-1.02.59-2.03.85-3.06.13-.5.15-1.03.27-1.53.11-.45.3-.89.41-1.34.09-.35.13-.72.19-1.08.02-.1.04-.21.07-.3.16-.51.38-1.02.33-1.58-.01-.14.13-.29.14-.44.02-.18-.02-.36-.02-.54,0-.18.01-.37.05-.55.07-.29.16-.57.24-.85.13-.49.27-.99.39-1.48.18-.7.35-1.41.51-2.12.13-.57.22-1.15.35-1.72.13-.57.31-1.14.45-1.71.19-.76.36-1.52.49-2.3l-.29.8s-.09-.03-.13-.04c.19-.83.18-1.7.64-2.49-.04-.01-.09-.03-.15-.06.15-.43.36-.85.41-1.28.04-.38.12-.72.32-1.01.39-.56.6-1.19.79-1.83.11-.36.2-.74.36-1.08.13-.29.35-.53.53-.81.32-.51.65-1.01.95-1.53.36-.63.7-1.27,1.06-1.9.04-.07.1-.12.15-.18.06.06.16.12.17.19.07.32.13.64.18.97.03.17.04.34.04.51-.01.32-.02.64-.07.96-.04.32-.15.62-.19.94-.05.37-.06.75-.1,1.13-.05.5-.11,1-.18,1.49-.13.91-.27,1.82-.4,2.73-.1.72-.2,1.43-.28,2.15-.02.22.05.46.03.68-.03.4-.12.79-.14,1.19-.02.47-.23.96.06,1.42h-.1c-.03.17-.1.35-.09.53.03.44.12.87.15,1.3.01.13-.09.27-.11.41-.09.67-.1,1.36-.26,2-.15.61-.09,1.23-.25,1.83-.15.59-.16,1.22-.24,1.83-.07.54-.16,1.07-.26,1.6-.06.32-.18.63-.24.95-.06.36,0,.75-.13,1.07-.2.49-.05.98-.14,1.47-.05.26-.16.5-.23.76-.02.07,0,.16.01.26-.24.44-.41.93-.28,1.49.03.12.03.3-.04.39-.33.42-.33.88-.18,1.36.01.04-.02.09-.03.14-.04.16-.1.31-.12.47-.03.18-.02.37-.06.54-.05.21.03.29.25.28-.34.19-.32.19-.35.62-.02.26-.11.51-.18.81.21.1.17.27.06.57-.13.36-.07.79-.09,1.19,0,.08.01.18-.03.23-.34.36-.36.79-.28,1.25.02.1-.12.22-.13.34-.03.29-.02.58-.06.86-.06.45-.15.89-.23,1.33-.02.11-.03.21-.05.37.03.03.3.05.04.23.14.38-.35.7-.11,1.11.04.07-.03.2-.05.3-.05.25-.11.5-.17.77.24.13.05.36.04.56-.03.41-.12.82-.15,1.24-.02.35-.15.7.05,1.04,0,.01,0,.04-.02.06-.42.4-.05.92-.22,1.36-.11.28-.05.58-.11.87-.05.3-.14.64-.1.96.01.09.02.19,0,.27-.07.39-.18.79-.21,1.18-.03.44.03.88.02,1.32,0,.27-.07.55-.11.82-.09.67-.19,1.35-.26,2.03-.04.34-.01.69-.05,1.03-.03.28-.13.55-.17.84-.02.11.04.23.05.29-.03.35-.07.67-.07.98,0,.37-.08.72-.15,1.07-.05.27-.11.59-.07.89.04.3.17.64.07.89-.12.3-.11.59-.08.86.1.93-.08,1.83-.17,2.74-.05.54.03,1.09.04,1.63,0,.08-.05.16-.09.26.14.29.19.62.06.96-.03.07-.02.15-.02.23,0,.38.01.77.02,1.15,0,.04-.01.08,0,.12.03.79.07,1.59.08,2.38,0,.23-.09.47-.13.7-.01.09-.02.23.04.28.04.04.06.07.07.1.03,0,.06-.01.08-.02.04-.01.07-.02.11-.04,0,0,0,0,0,0,0,0,0,0,.01,0,.09-.05.17-.09.25-.14,0,0,.04-.03.06-.05.02-.02.06-.05.06-.05.08-.07.15-.14.21-.22,0-.26.01-.53.04-.79.07-.88,0-1.76.03-2.64.01-.61.08-1.22.1-1.83,0-.39.22-.82-.02-1.18-.16-.24-.05-.47-.09-.69-.04-.28.08-.58.09-.87.05-.79.08-1.58.12-2.37.01-.26,0-.51.01-.77.02-.4.06-.8.09-1.2.02-.3.01-.59.04-.89.03-.31.09-.61.11-.92.03-.36.01-.72.04-1.07.04-.44.12-.87.16-1.31.04-.47.05-.94.1-1.41.02-.21.12-.41.14-.61.02-.25-.01-.5,0-.75.05-.68.1-1.37.18-2.05.07-.64.16-1.28.24-1.91.05-.42.11-.83.14-1.25.03-.39.03-.78.05-1.17.03-.43.06-.87.1-1.3.05-.62.1-1.23.16-1.85.02-.24.1-.48.11-.72.02-.39.25-.75.13-1.15-.03-.11.03-.24.05-.36-.03-.05.05-.08.04-.11-.06-.61.36-1.16.22-1.79,0-.03.02-.06.02-.09.05-.34.1-.68.16-1.01.08-.48.11-.96.25-1.42.19-.66.23-1.32.21-1.99,0-.17.05-.35.08-.52.03-.16.14-.35.08-.47-.17-.36-.07-.69.04-1.03.05-.16.2-.33,0-.5-.03-.02-.01-.12,0-.18.08-.2.18-.39.25-.59.03-.11,0-.24,0-.36,0-.05-.01-.09,0-.14.12-.52.26-1.04.37-1.56.02-.08-.07-.19-.1-.26.05-.06.15-.12.16-.2.03-.49.35-.96.13-1.47-.01-.03.01-.07.02-.11.09-.45.2-.9.28-1.36.02-.11-.06-.24-.04-.35.02-.17.08-.33.14-.49.14-.38-.03-.84.27-1.19.03-.03-.01-.11-.02-.17,0-.11-.01-.21,0-.32,0-.13.03-.26.04-.39.04-.36.08-.72.12-1.08,0-.07.06-.13.07-.2.09-.73.18-1.46.26-2.18.04-.33.05-.66.09-.99.06-.6.34-1.16.29-1.8-.04-.48.07-.97.1-1.46.05-.72.09-1.44.13-2.16.02-.36,0-.71.05-1.07.06-.44.17-.86.24-1.3.03-.19,0-.39.02-.58.07-.53.15-1.06.25-1.59.11-.6.26-1.19.37-1.79.02-.13-.03-.27-.05-.47.19-.17.22-.46.03-.76.08-.07.23-.13.24-.2.04-.4-.02-.82.07-1.21.09-.42-.16-.88.17-1.28.08-.1,0-.32.05-.46.13-.36.3-.71.11-1.1-.03-.06-.01-.15.01-.21.27-.58.68-.75,1.36-.58.04.01.12,0,.14-.03.12-.29.37-.16.56-.17.06,0,.12.02.17,0,.25-.06.49-.12.73-.18v.65s-.02-.01-.02-.02c-.06.2-.11.4-.17.6-.22-.05-.74.19-.71.35.08-.02.17-.04.26-.07-.05.24-.3.47.03.66-.03.08-.08.16-.07.23.07.47.15.94.25,1.41.13.56.31,1.12.44,1.68.23,1.02.42,2.05.64,3.08.09.43.18.85.28,1.27.07.32.16.63.22.94.05.3.06.6.1.9.05.4.21.77.24,1.19.06.76.3,1.51.47,2.27.08.34.17.68.22,1.03.08.52.11,1.04.18,1.57.04.32.13.64.15.97.03.43-.07.89.04,1.3.16.58-.02,1.2.27,1.74.02.04-.01.1,0,.15.04.5.08,1.01.13,1.51.04.34.11.67.14,1.01.02.21,0,.42,0,.63,0,.13.02.26.04.42.05.07.21.19.21.3-.03.57.18,1.08.33,1.6.1-.02.17-.03.23-.04-.28.19-.33.48-.29.75.05.37-.07.75.14,1.12.2.36-.02.82.21,1.2,0,.01,0,.04,0,.06,0,.26-.04.53-.02.79.01.3.07.6.08.9,0,.24-.06.49-.04.73.1,1.36.22,2.72.33,4.08.01.13-.01.27,0,.4.05.39.12.78.17,1.18.01.08-.03.16-.03.25,0,.21-.02.42,0,.62.04.31.14.6.19.91.07.41.1.82.17,1.23.13.78.28,1.56.42,2.34.04.22.02.52.15.63.16.14.16.25.18.41.07.74.12,1.49.22,2.22.11.82.26,1.63.41,2.45.1.55.21,1.1.32,1.65.17.83.44,1.64.45,2.5,0,.4.07.81.15,1.2.1.47.31.91.38,1.38.03.24-.06.49.04.76.13.38.14.81.28,1.18.32.87.58,1.76.73,2.67.1.59.23,1.17.35,1.75.04.22.08.44.13.67.02.09.05.18.09.29-.17.05-.15.2-.05.38.09.17.14.36.19.55.15.62.3,1.24.45,1.85.01.05.03.1.06.14.24.29.25.63.22.97-.01.15-.04.3-.02.45.05.32.12.64.2.95.14.54.28,1.08.45,1.61.17.53.36,1.04.55,1.56.12.33.37.63.24,1.03-.02.07.02.17.04.24.15.44.29.88.47,1.3.22-.05.43-.11.65-.17-.04-.08-.1-.16-.15-.23-.04-.17-.09-.33-.13-.5-.08-.31-.14-.62-.23-.93-.22-.74-.47-1.47-.7-2.21-.19-.62-.31-1.27-.56-1.87-.19-.46-.09-.94-.24-1.39-.08-.23-.08-.49-.14-.73-.08-.32-.19-.64-.25-.96-.15-.72-.3-1.43-.41-2.16-.08-.54-.36-1.02-.35-1.57,0-.08-.03-.18-.09-.23-.23-.22-.14-.49-.16-.75,0-.18,0-.35-.05-.52-.14-.6-.29-1.19-.44-1.79-.14-.57-.27-1.14-.39-1.72-.11-.53-.17-1.06-.28-1.59-.14-.68-.3-1.35-.44-2.03-.24-1.15-.49-2.3-.69-3.46-.04-.23.05-.48-.15-.68-.02-.02,0-.08,0-.12,0-.1,0-.19,0-.29,0-.1-.02-.2-.03-.3-.04-.37-.01-.75-.13-1.09-.09-.27-.23-.43-.07-.77.17-.36-.03-.82-.22-1.22-.02.07-.04.14-.06.21-.03,0-.06-.02-.09-.03.03-.1.03-.22.08-.31.16-.26.14-.31-.14-.45-.05-.02-.07-.13-.07-.2,0-.25.1-.51.04-.73-.2-.73-.4-1.46-.41-2.23,0-.18-.08-.35-.09-.53,0-.16.07-.34.05-.49-.12-.62-.26-1.23-.39-1.85-.03-.16-.02-.32-.05-.47-.1-.46-.24-.9-.31-1.36-.07-.52-.08-1.05-.12-1.57,0-.1-.04-.21-.02-.31.1-.41.07-.81-.04-1.21-.05-.2-.08-.41-.1-.62-.06-.75-.1-1.51-.16-2.26,0-.08-.04-.16-.09-.23-.14-.23-.1-.42.07-.61.06-.06.1-.18.09-.26-.09-.71-.19-1.42-.28-2.12-.02-.16,0-.33-.03-.49-.08-.58-.19-1.16-.26-1.74-.14-1.19-.25-2.39-.41-3.58-.05-.33-.12-.63-.1-.98.02-.39-.01-.8-.04-1.19-.03-.45-.07-.91-.1-1.36-.01-.14.02-.31-.04-.43-.19-.44-.3-.9-.38-1.37-.1-.62-.23-1.24-.33-1.87-.07-.44-.13-.88-.19-1.31-.15-1.04-.3-2.08-.47-3.11-.07-.41-.17-.81-.26-1.21-.11-.52-.22-1.05-.32-1.57-.09-.5-.17-1.01-.25-1.51-.06-.37-.07-.74-.3-1.07-.18-.25-.34-.54-.22-.89.02-.06-.04-.15-.06-.23-.11-.46-.44-.88-.26-1.36.16.27.37.54.51.85.22.49.41,1,.59,1.51.15.42.25.86.38,1.29.13.43.28.86.4,1.29.12.45.2.92.33,1.37.06.21.2.39.28.59.06.19.05.41.13.59.17.38.4.74.37,1.19,0,.02.04.04.07.06.13-.14.2-.24.16-.48-.06-.34.15-.71-.06-1.06-.01-.02,0-.08.02-.11.14-.43-.01-.81-.19-1.18-.18-.38-.45-.72-.6-1.11-.23-.6-.39-1.23-.58-1.85-.02-.08-.09-.15-.1-.23-.1-.67-.39-1.26-.7-1.84-.04-.07-.05-.14-.07-.22-.06-.3-.08-.6-.17-.89-.03-.1-.28-.24-.3-.23-.24.22-.2-.07-.3-.12.31-.39.45-.82.34-1.37.12.11.18.15.22.21.63.77,1.27,1.53,1.9,2.3.42.51.89,1,1.26,1.55.49.73.93,1.49,1.36,2.26.42.75.78,1.53,1.21,2.27.31.53.48,1.16.98,1.58.24.2.47.42.65.66.68.9,1.34,1.82,2.03,2.75.07-.08.1-.13.12-.14.73.21.6.97.93,1.38-.02.13-.09.27-.05.34.36.61.74,1.2,1.11,1.8.06.09.14.19.13.29-.03.46.22.69.62.85.2.08.52.18.26.52-.02.02-.01.09,0,.12.12.18.23.38.38.53.19.18.41.33.62.49.03.03.07.06.08.1.03.12.01.27.08.37.13.21.3.4.45.6.69.91,1.2,1.94,2.01,2.77.29.31.55.66.89.92.21.15.32.3.31.54.11.09.17.21.24.32.03.06.07.11.09.17.03.08.07.16.09.24.02.07-.02.19.01.21.26.16.32.46.48.68.35.48.74.93,1.15,1.35.16.17.34.4.65.37.08,0,.2.12.27.22.03.05,0,.15-.01.22-.12-.11-.22-.19-.32-.27-.03.03-.05.05-.08.08.04.09.09.18.14.27-.07.02-.12.04-.19.06.15.06.28.12.51.21-.2.02-.3.03-.47.05.2.26.43.45.52.7.11.3.16.61.49.76.04.02.05.1.06.16.02.1.01.22.06.31.16.3.37.58.49.89.1.25.23.31.47.28.1-.01.2.03.3.04-.32.18-.26.37-.11.59.03.05.05.11.09.16.27.37.33.9.84,1.08-.09.14-.02.53.13.57.29.08.38.26.35.5.21-.09.41-.17.6-.25.04.11.09.22.13.32-.12.06-.26.14-.45.24.36.21.74-.12,1,.23-.09.03-.14.05-.19.07,0,.03-.01.05-.02.08l.64.28c-.05-.12-.08-.25-.15-.35-.15-.24-.32-.48-.47-.72-.42-.66-.82-1.34-1.27-1.99-.36-.51-.62-1.07-.88-1.63-.09-.19-.22-.37-.35-.54-.3-.36-.62-.72-.91-1.05,0,0,.08,0,.22,0-.07-.13-.1-.22-.15-.3-.13-.21-.26-.42-.4-.62-.38-.58-.74-1.17-1.13-1.74-.32-.46-.68-.89-1.01-1.35-.15-.2-.11-.55-.44-.53,0-.15.04-.27,0-.34-.27-.44-.55-.87-.84-1.29-.58-.82-1.18-1.62-1.76-2.44-.4-.56-.78-1.14-1.17-1.71-.27-.4-.57-.78-.81-1.19-.35-.63-.64-1.28-.97-1.92-.12-.23-.31-.42-.45-.64-.17-.28-.27-.59-.47-.85-.37-.48-.78-.93-1.18-1.38-.04-.05-.13-.07-.19-.08-.24-.03-.53-.02-.27-.39.02-.02-.03-.09-.05-.14-.22-.37-.43-.74-.66-1.1-.52-.82-1.05-1.63-1.57-2.45-.08-.12-.18-.23-.22-.36-.09-.29-.15-.58-.45-.66,0-.15.04-.3,0-.39-.39-.69-.79-1.39-1.22-2.06-.55-.86-1.09-1.74-1.73-2.54-.91-1.12-1.9-2.17-2.86-3.24-.12-.14-.27-.26-.39-.4-.3-.36-.59-.73-.89-1.1.02-.12.04-.3.06-.48.09-.72.61-1.3.66-2.03.32-.29.44-.66.6-1.05.18-.43.52-.79.67-1.28.19-.62.55-1.19.8-1.8.21-.52.64-.96.54-1.59,0-.02.01-.04.02-.06.11-.44.23-.89.33-1.33.11-.53.13-1.1.31-1.61.29-.83.12-1.72.4-2.54.03-.09-.02-.2-.03-.31,0-.07-.03-.15-.02-.21.05-.33.17-.63.1-.99-.07-.32.03-.66,0-.99-.02-.32-.18-.63-.16-.94.04-.74-.37-1.36-.53-2.04-.03-.14-.28-.29-.25-.38.07-.23-.08-.29-.19-.4-.07-.07-.12-.17-.17-.26-.12-.23-.22-.48-.36-.7-.15-.25-.37-.47-.5-.73-.3-.6-.47-1.24-.44-1.9.01-.31.21-.61.32-.91.03,0,.07.02.1.03.03.07.05.13.08.2.28.77.54,1.55.85,2.31.2.5.44.99.71,1.47.45.79.89,1.6,1.4,2.35.95,1.39,1.75,2.83,2.08,4.5.09.44.25.87.35,1.32.03.15,0,.34-.05.49-.07.2-.23.38-.29.58-.22.75-.42,1.52-.63,2.27-.06.23-.17.45-.2.69-.04.27.01.56-.02.83-.04.4-.13.79-.18,1.19-.07.61-.15,1.22-.17,1.83-.04,1.18-.06,2.36-.05,3.55,0,.35-.06.77.4.98-.24.37-.09.72-.02,1.09.18.97.59,1.85.94,2.76.17.45.44.85.69,1.27.36.62.73,1.21,1.18,1.76.21.26.53.44.68.72.18.34.43.56.71.78.26.21.49.46.73.69.14.13.25.3.41.4.26.15.54.26.83.4-.04.09-.09.18-.13.27.38-.26.58.05.81.22.1.08.16.21.26.29.3.22.6.44.91.64.26.16.6.24.8.46.22.24.35.26.51.1.18.2.33.4.52.55.18.14.41.21.61.33.16.09.3.2.45.31.3.2.61.41.91.61.02.02.05.03.08.06-.06.04-.11.06-.13.08.45.21.89.42,1.34.63l.02-.04c-.16-.1-.31-.19-.47-.29.02-.03.03-.05.05-.08.47,0,.59.57,1.01.66.12-.23.29-.2.44-.07.12.11.2.26.3.39.06.08.12.17.2.21.4.17.8.35,1.21.48.36.11.75.14,1.12.22.2.05.4.22.54-.11.02-.06.21-.06.32-.08.1-.01.21,0,.31-.01.57-.05.8-.32.87-.89.01-.11.16-.27.27-.3.14-.04.32.04.48.03.51-.01,1.02.26,1.53-.13.22-.17.59-.26.88-.23.41.04.72-.19,1.09-.23.11-.01.22-.16.32-.15.27.01.55.12.81.1.58-.05,1.17-.12,1.74-.26.16-.04.32-.12.5-.11.45.02.89.04,1.34.07.21.02.42.05.62.1.56.14,1.11.3,1.67.42.18.04.41.1.56-.13.03-.04.19,0,.29,0,.07,0,.15.05.2.02.24-.13.46-.29.71-.41.12-.06.27-.05.4-.04.21.02.42.08.64.1.16.02.34-.02.5.01.47.08.94.2,1.41.28.17.03.37.04.51-.02.47-.2.94-.4,1.36-.67.27-.17.45-.46.67-.7.02-.02,0-.06.01-.09.03-.16.02-.33.09-.47.18-.41.11-.84.13-1.26ZM51.38,1.96c.13.18.27.35.4.54.03.04,0,.11,0,.17-.05-.01-.13-.01-.15-.05-.13-.19-.24-.4-.36-.6l.11-.06ZM50.04,1.66c.36.38.71.77,1.04,1.17.03.04-.04.17-.07.3-.13-.09-.21-.12-.26-.18-.3-.37-.59-.74-.88-1.12-.03-.04-.02-.13-.02-.19.06,0,.16,0,.19.03ZM48.16,2.81c.46.51.85,1.08,1.24,1.65-.75-.54-1.88-.65-2.01-1.94.27.1.61.12.77.29ZM51.67,7.8c-.51,0-1.03.02-1.53-.05-.27-.04-.52-.24-.77-.38-.36-.21-.73-.43-1.07-.67-.18-.13-.31-.33-.54-.58.23.05.44.05.6.14.19.11.35.28.51.43.22.2.44.31.71.07.66.52,1.39.24,2.1.22.07.2.16.4.2.6.01.06-.14.22-.21.22ZM52.74,5.13c-.02-.26-.05-.51-.07-.76.11.25.37.48.07.76ZM23.61,110.64c-.08-.02-.2-.05-.35-.09.21-.4.42-.8.63-1.2.03.01.05.02.08.04-.12.42-.24.84-.37,1.25ZM24.65,109.39c-.02.17-.06.32-.07.47-.03.53-.23.58-.52.39.08-.28.18-.55.23-.83.01-.07-.14-.16-.24-.27.18-.08.39-.19.59-.28.13.22-.31.39,0,.52ZM29.12,92.05c.15-.27.27-.47.38-.67h.36c-.26.24-.47.43-.74.67ZM29.95,91.16c-.04.07-.18.1-.28.13-.02,0-.06-.1-.1-.16.15-.13.3-.27.48-.42-.03.18-.03.33-.1.45ZM58.74,21.69c-.09-.24-.25-.45-.33-.69-.05-.17,0-.37-.02-.55-.03-.36-.06-.73-.12-1.09-.02-.14-.11-.26-.16-.39-.18-.49-.36-.99-.53-1.49-.09-.28-.16-.57-.24-.85.02-.02.03-.03.05-.05.09.11.22.2.26.32.17.45.31.91.45,1.37.16.5.33,1,.47,1.5.1.34.15.68.24,1.02.07.27.15.53.23.79.1.34.18.67.28,1.01.21.7.47,1.4.65,2.11.18.74.3,1.49.41,2.24.09.62.14,1.24.21,1.86.01.12.07.24.11.35l-.11.04c-.52-1.78-1.04-3.55-1.55-5.29.01-.18.03-.34.04-.5.04-.61-.14-1.17-.35-1.72ZM63.15,46.45c-.09-.06-.19-.1-.27-.18-.6-.59-1.15-1.22-1.55-1.95-.3-.55-.71-1.01-1.09-1.49-.23-.29-.42-.62-.62-.93.02-.02.04-.04.07-.06.05.01.15.04.15.04-.05.28.22.24.33.35.22.22.4.47.61.7.23.25.48.5.73.74.3.29.64.56.91.88.33.4.56.87.63,1.41.02.14.11.28.17.42-.02.02-.04.05-.07.07ZM75.41,52.95c-1.21-.27-2.45-.44-3.62-.85-1.07-.37-2.17-.77-3.08-1.51-.6-.48-1.21-.95-1.88-1.31-1.03-.55-1.91-1.31-2.82-2.01-.42-.33-.66-.81-.8-1.33-.02-.06.03-.13.05-.19.06.02.15.02.19.07.39.41.76.84,1.16,1.24.21.21.48.38.72.57.69.54,1.37,1.09,2.08,1.6.4.29.83.56,1.26.8.41.23.85.41,1.27.62.65.32,1.28.67,1.94.97.52.24,1.07.42,1.61.6.29.09.59.12.89.18.01,0,.02,0,.03,0,.45.15.91.3,1.36.45,0,.03,0,.06,0,.09-.13,0-.26.04-.38.01ZM94.94,49.58c.01.12.05.22.03.3-.09.3-.17.63-.58.64-.34.01-.6.22-.8.45-.23.26-.5.38-.82.23-.09-.04-.19-.08-.29-.09-.04,0-.1.07-.18.14-1.15-.09-2.37-.33-3.63-.03.09.11.15.18.21.25-.16.2-.46-.59-.54.14-.69-.12-1.38-.23-2.07-.36-.81-.15-1.6-.38-2.43-.37-.55.01-.61.02-.68.6-.47-.05-.94-.1-1.4-.15-.16-.02-.33-.06-.49-.05-.27,0-.39.26-.28.43-.13.17-.26.33-.38.49-.02-.01-.03-.02-.05-.03.03-.06.06-.13.12-.27-.2.04-.36.07-.52.09-.61.08-1.23.17-1.85.22-.5.04-1.01.03-1.49-.2-.1-.05-.26.04-.39.03-.51,0-1-.01-1.49-.25-.37-.18-.8-.22-1.18-.37-.47-.18-.93-.41-1.4-.62-.09-.04-.19-.07-.29-.1-.17-.06-.34-.09-.5-.17-.34-.17-.67-.36-1.01-.54-1.02-.55-2.06-1.07-3.04-1.68-.52-.32-.95-.81-1.43-1.21-.14-.12-.3-.22-.45-.34-.19-.15-.43-.21-.52-.53-.06-.23-.42-.37-.58-.6-.06-.09-.12-.17-.18-.25-.14.04-.3.03-.41-.06-.54-.39-1.05-.87-1.41-1.43,0,0-.01,0-.02,0-.81-.91-1.63-1.82-2.45-2.72-.18-.2-.32-.46-.66-.43-.07,0-.18-.13-.23-.23-.47-.77-.67-1.65-.85-2.51-.31-1.49-.44-3.01-.46-4.54,0-.42.11-.84.16-1.25,0-.06.03-.12.03-.19-.08-1.03.26-1.99.45-2.98.06-.33.12-.66.19-.99.06-.31.22-.54.55-.66.05.29.08.58.16.86,0,.02.01.04.02.07.27-.32.86-.35.93.17.21,1.55.53,3.08.97,4.58,0-.06-.02-.12-.03-.18-.09-.75-.32-1.48-.47-2.22-.08-.39-.14-.79-.19-1.19,0-.05.06-.11.13-.23.16.42.29.77.44,1.11.2.44.41.87.63,1.29.33.62.68,1.22,1.01,1.83.38.73.8,1.43,1.42,2,.48.44.85,1,1.29,1.49.38.42.66.95,1.2,1.22.56.28,1.1.58,1.66.86.52.27,1.05.48,1.61.66.17.06.32.21.47.33.11.09.21.19.37.33-.16-.59-.58-.79-1-1.03-.57-.32-1.11-.68-1.66-1.02-.19-.11-.38-.22-.57-.32-.86-.45-1.37-1.24-1.93-1.98-.65-.85-1.32-1.69-1.93-2.57-.29-.41-.47-.89-.68-1.35-.16-.34-.26-.71-.42-1.05-.21-.45-.49-.86-.68-1.31-.11-.27-.12-.58-.18-.87-.09-.45-.24-.89-.26-1.34-.03-.54-.17-1.05-.28-1.56-.1-.46-.21-.92-.29-1.39-.03-.15.08-.32.04-.45-.15-.51-.32-1.01-.5-1.51-.12-.33-.31-.64-.42-.98-.14-.42-.19-.86-.34-1.27-.26-.67-.57-1.32-.86-1.98-.15-.33-.31-.66-.43-1.03.11.09.24.17.33.28.51.66,1.06,1.29,1.43,2.05.23.48.49.95.72,1.43.18.39.41.79.49,1.2.1.52.43.91.62,1.36.14.33.16.72.31,1.05.18.41.4.81.67,1.16.4.53.86,1.01,1.29,1.51.25.29.47.61.74.89.21.22.49.37.71.57.22.19.39.44.62.59.24.16.35.49.71.52.12.01.23.11.34.2.04,0,.09.03.13.04,0-.04,0-.07,0-.11.02-.02.05-.03.07-.05.04.07.09.14.13.21.53.19,1,.53,1.41.92.24.22.47.46.71.68.12.11.24.22.37.32.02.01.02.02.03.02.03.02.05.04.08.06.03.02.07.05.11.07.18.08.35.15.53.23-.02-.06-.03-.12-.03-.18-.28-.18-.55-.36-.82-.55-1.59-1.11-3.08-2.36-4.45-3.73-.11-.11-.15-.22-.15-.34-.33-.35-.66-.71-.97-1.07-.45-.53-.81-1.15-1.17-1.75-.27-.46-.47-.96-.68-1.45-.07-.16-.05-.35-.1-.51-.03-.1-.12-.19-.17-.28-.12-.21-.25-.41-.34-.62-.04-.09,0-.2,0-.25-.11-.23-.23-.41-.3-.61-.06-.18-.06-.38-.1-.57-.02-.08-.07-.15-.12-.22-.03-.04-.1-.1-.09-.12.2-.4-.19-.65-.28-.97-.12-.43-.34-.84-.52-1.25-.29-.65-.59-1.3-.89-1.95-.05-.11-.23-.2-.23-.3.02-.33-.19-.55-.31-.8-.28-.57-.58-1.12-.87-1.68-.03-.05-.03-.11-.06-.24.36.21.66.37.87.69.2.3.49.54.74.81.03.03.08.04.09.08.22.57.76.86,1.12,1.31.17.22.42.39.61.59.12.13.2.3.32.44.37.41.76.8,1.14,1.21.39.43.78.86,1.16,1.31.29.35.58.7.83,1.08.33.49.62,1.01.93,1.5.39.62.85,1.18,1.35,1.73.64.7,1.39,1.26,2.04,1.94.26.28.52.56.79.83.26.25.62.4.87.66.38.39.91.42,1.33.67.57.34,1.17.6,1.73.95.89.56,1.78,1.13,2.64,1.74.89.63,1.89,1.08,2.83,1.62.52.3,1.04.58,1.57.87.37.21.75.42,1.12.64.14.08.27.18.4.28.33.24.67.46.99.71.35.28.66.6.98.91.36.35.65.76,1.03,1.08.29.24.66.37.95.61.64.52,1.24,1.08,1.88,1.6.24.19.43.42.77.52.39.13.74.44,1.07.71.44.35.85.73,1.26,1.11.08.07.1.21.16.31.14.24.28.47.43.7.01.02.07,0,.11,0-.14.29.14.46.2.7.04.13.1.26.14.39.01.04,0,.11,0,.12.28.13.3.42.44.65.28.47.61.92.86,1.4.29.56.51,1.16.76,1.75.01.03.04.06.03.09-.17.55.38,1.04.12,1.6-.02.05-.01.14.02.18.14.19.05.28-.11.32Z"/>
      <path class="cls-1" d="M62.9,103.17c.08.45.11.9.18,1.35.06.37.16.74.21,1.12.08.61.11,1.23.21,1.84.09.54.2,1.09.36,1.61.06.19.11.38.15.57.02,0,.05.02.07.02.04.01.07.02.11.03.02,0,.12.04.03,0-.08-.03,0,0,.03,0,.04,0,.07,0,.11,0,.02,0,.04,0,.07,0,.02,0,.03,0,.05-.01-.05-.31-.08-.63-.11-.95,0-.09.07-.19.1-.28.07.07.18.12.21.2.09.27.18.55.26.82,0,0,0,0,.01,0,0,0,0,0,.02-.02.11-.09.2-.19.29-.3,0,0,.01-.02.02-.02-.13-.46-.32-.91-.36-1.4-.05-.62-.26-1.23-.4-1.85-.16-.69-.6-1.28-.67-2.02-.08-.77-.32-1.52-.46-2.28-.09-.51-.15-1.03-.2-1.54-.02-.17.03-.35.02-.52,0-.05-.07-.11-.13-.15-.01,0-.09.05-.12.09-.25.32-.23.5.04.82.04.04.08.11.06.16-.06.2-.13.4-.19.57-.1-.24-.19-.5-.29-.75-.04,0-.08,0-.13,0,0,.13-.04.27-.02.4.15.84.32,1.68.46,2.52ZM63.25,102.49c.13.45.26.89.4,1.34-.03.01-.06.02-.1.03-.14-.44-.28-.88-.42-1.33.04-.01.08-.03.13-.04Z"/>
      <path class="cls-1" d="M32.04,47.52c.17.04.33.09.5.13,0,.02,0,.05,0,.07h-.53s-.01.04-.02.06c.11.04.21.08.36.14-.26.16-.49.31-.72.46-.03.02-.09.03-.11.06-.17.26-.34.52-.5.79-.07.12-.13.26-.2.39-.05-.04-.1-.07-.14-.11.05.07.1.14.13.19-.15.16-.27.34-.44.46-.16.11-.38.15-.62.24.16.06.26.09.36.13-.28.29-.54.55-.82.84-.26-.04-.43.2-.58.45.13-.09.26-.19.44-.32-.02.37-.59.34-.38.75-.3.03-.46.11-.46.44,0,.18-.2.37-.32.53-.16.2-.34.38-.5.58-.25.31-.48.63-.73.93-.39.47-.77.95-1.19,1.4-.08.08-.3.03-.45.04,0,.09.02.23-.01.36,0,.03-.14.04-.14.04-.39.48-.74.92-1.13,1.4.05.15.13.36-.23.44-.11.02-.17.25-.25.38-.15.22-.3.43-.5.7.08.2,0,.44-.22.67-.34.36-.63.77-.99,1.11-.18.17-.3.29-.32.57-.01.16-.28.3-.43.45-.09.08-.19.16-.22.26-.05.12-.09.24-.15.35-.02.04-.09.06-.11.1-.25.42-.47.86-.77,1.25-.32.41-.71.77-1.08,1.14-.12.12-.28.2-.41.31-.03.03-.04.09-.05.14-.14.62-.52,1.11-.92,1.59-.15.19-.33.35-.52.55.07-.02.13-.03.24-.06-.36.64-.93,1.11-1.15,1.84-.21.72-.88,1.25-1.01,2.1-.42.17-.47.67-.68,1.06-.07.14-.11.29-.18.43-.19.4-.41.49-.91.41-.23.67-.4,1.38-.7,2.02-.31.66-.74,1.26-1.1,1.85.06.08.14.13.13.17-.06.27-.09.56-.22.8-.25.48-.57.92-.83,1.39-.18.33-.32.69-.47,1.04,0,.02-.01.05-.03.06-.55.37-.54,1.08-.96,1.53-.08.09-.18.17-.24.27-.05.07-.1.19-.07.24.17.26.04.47-.1.67-.47.66-.86,1.37-1.2,2.11-.16.35-.38.67-.57,1-.03.04-.08.11-.07.13.15.25-.04.39-.17.56-.18.24-.34.51-.48.77-.04.08.05.22,0,.3-.09.21-.22.41-.34.61-.06.11-.12.22-.16.33-.14.39-.27.79-.41,1.19-.1.28-.2.55-.34.81-.21.42-.46.83-.68,1.25-.07.14-.1.3-.14.45-.1.36-.17.72-.3,1.07-.07.19-.23.34-.35.51-.17-.15-.27-.24-.37-.32.12-.17.27-.34.37-.54.07-.14.09-.32.09-.48-.01-.28.12-.38.45-.36-.07-.15-.15-.25-.17-.36-.02-.1,0-.25.05-.29.39-.28.33-.74.48-1.11.08-.21.23-.4.32-.61.09-.19.15-.4.23-.59.08-.2.16-.4.24-.6.02-.05.03-.11.03-.16.02-.19-.02-.42.07-.57.21-.35.34-.72.46-1.1.36-1.16,1.05-2.19,1.31-3.4.1-.44.38-.85.58-1.27.04-.07.09-.17.15-.19.34-.14.32-.47.43-.75.23-.57.51-1.12.79-1.68.36-.73.73-1.46,1.1-2.19.08-.16.15-.32.24-.47.5-.87,1.01-1.73,1.51-2.6.14-.24.23-.51.36-.75.26-.5.61-.98.78-1.51.25-.81.82-1.41,1.23-2.11.45-.78.99-1.51,1.47-2.27.18-.29.29-.63.47-.91.3-.47.61-.93.94-1.38.41-.55.84-1.08,1.28-1.6.1-.12.28-.18.41-.25,0,0-.08-.03-.2-.08.37-.55.73-1.08,1.08-1.61.35-.53.67-1.07,1.03-1.59.36-.53.73-1.05,1.12-1.55.39-.51.8-1.01,1.2-1.5.39-.48.71-1.06,1.19-1.4.52-.37.62-1.13,1.24-1.27.06-.17.08-.31.15-.4.42-.51.86-1,1.27-1.51.63-.78,1.23-1.59,1.87-2.36.3-.37.67-.68,1-1.02.54-.57,1.07-1.16,1.62-1.72.31-.32.64-.61.97-.91h0Z"/>
      <path class="cls-1" d="M72.06,105.28c0,.16,0,.32.03.47.03.18.1.36.14.54.06.3.12.6.17.91.03.17.02.34.04.51.01.15.02.3.06.44.07.21.22.4.24.61.02.18.06.36.1.54.08.05.16.1.24.14.19.1.38.2.55.26.12.05.25.08.38.13-.19-.54-.38-1.07-.55-1.61-.21-.67-.37-1.36-.57-2.04-.19-.69-.42-1.37-.58-2.06-.11-.47-.14-.96-.23-1.44-.07-.36-.17-.71-.26-1.06-.23-.84-.45-1.68-.69-2.51-.09-.32-.29-.6-.39-.92-.13-.4-.2-.81-.3-1.22-.12-.46-.24-.92-.35-1.38-.14-.59-.24-1.18-.4-1.76-.12-.43-.31-.83-.45-1.25-.17-.53-.33-1.06-.47-1.6-.17-.66-.35-1.32-.49-1.99-.14-.67-.24-1.35-.35-2.03-.13-.79-.25-1.57-.39-2.36-.08-.44-.14-.88-.28-1.3-.15-.48-.37-.95-.57-1.42-.02-.05-.05-.09-.07-.13-.12-.17-.25-.35-.34-.48.12-.16.26-.28.24-.32-.08-.14-.2-.27-.32-.39-.05-.05-.18-.06-.2-.11-.06-.23-.09-.46-.13-.7-.02-.13-.04-.25-.07-.37-.02-.1-.06-.19-.09-.29-.04-.14-.08-.29-.14-.42-.03-.08-.13-.15-.15-.23-.09-.4-.17-.81-.26-1.21-.11-.52-.22-1.05-.35-1.57-.08-.31-.18-.61-.28-.92-.2-.62-.38-1.25-.59-1.87-.21-.63-.47-1.24-.66-1.88-.2-.67-.35-1.36-.52-2.05-.21-.83-.43-1.65-.64-2.48-.12-.5-.21-1.02-.33-1.52-.28-1.16-.57-2.32-.87-3.47-.07-.28-.19-.55-.27-.81-.2.07-.33.11-.46.17-.06.03-.12.08-.16.13-.08.15-.1.15-.28,0h0c-.2.15,0,.19.07.23.21.1.44.17.65.27.07.03.11.12.16.18-.02.02-.04.03-.05.05-.1-.04-.19-.08-.29-.12-.02.03-.03.06-.05.09.13.08.26.16.43.27,0,0,.04.11.02.13-.29.22,0,.46.02.65.05.41.12.41-.28.44.04.09.08.18.14.3.07-.07.12-.12.18-.19.04.08.08.13.09.18.14.5.29.99.42,1.49.01.06-.08.14-.1.18.07.07.16.13.19.21.14.38.26.77.39,1.15.06.19.12.39.17.59-.03,0-.05.02-.08.03.08.05.16.1.26.16-.27.09-.32.21-.16.4.11.13.25.23.33.3-.12.14-.22.26-.3.35.11.2.19.36.28.52-.05.03-.13.07-.3.16.45.11.43.38.36.65-.05.24-.12.47-.19.73.08.02.22.07.28.08-.01.28-.09.55-.02.78.15.51.38,1.01.58,1.51.11.27.23.53.32.8.16.51.29,1.04.43,1.53.14-.1.23-.17.33-.22.03-.01.09.06.14.09-.06.09-.13.17-.19.27-.05.08-.16.19-.14.23.15.32.14.74.54.91-.03.07-.08.13-.06.16.18.4.17.8.16,1.24,0,.48.22.95.35,1.43.02.08.04.2.1.22.27.1.2.31.22.51.01.11.03.23.06.34.15.52.29,1.04.46,1.55.28.83.3,1.75.85,2.48.02.02,0,.06,0,.09-.01.33,0,.64.33.83.04.02.07.08.08.13.07.28.15.56.2.85.05.31.07.63.09.94.04.54.1,1.09.1,1.63,0,.55,0,1.1.39,1.56.03.04,0,.12,0,.18,0,.11,0,.22,0,.31.18.02.34.04.42.05-.02.18-.08.3-.04.4.07.2.17.38.27.58-.11.04-.22.07-.3.12-.06.04-.14.15-.12.2.12.51.23,1.02.4,1.51.11.33.07.73.39.96.19.14.24.33.26.55.03.35-.02.72.3.88-.02.15-.06.25-.04.35.1.44.19.9.34,1.32.19.52.44,1.02.67,1.53.03.06.08.14.06.2-.07.33-.04.64.08.95.26.7.11,1.51.57,2.16,0,0,0,.02,0,.03.05.4.13.48.52.55.06,0,.1.08.15.12-.06.03-.11.07-.17.09-.03.01-.07.01-.1.01.06.18.1.35.16.52.11.33.18.68.35.97.09.15.1.25.1.4Z"/>
      <path class="cls-1" d="M54.26,53.04c.1.2.31.41.29.6-.03.25.17.35.2.56.05.37.2.72.21,1.11,0,.17.14.34.23.5.2.39.41.78.6,1.18.23.48.3,1.32.15,1.68-.07-.44-.13-.9-.2-1.36-.04,0-.08,0-.12.01.03.22.06.43.07.65.02.26,0,.52.04.78.01.11.08.22.18.32-.1.3-.06.56.18.8.05.05-.08.26-.14.45.47.45.61,1.12.64,1.81.02.49-.01.99-.02,1.48,0,.06,0,.13.03.18.23.36.15.74.15,1.13,0,.34.11.68.18,1.01.04.2.09.39.16.58.25.71.41,1.44.49,2.18.1.89.21,1.77.3,2.66.06.66.07,1.33.16,1.99.04.29.25.54.24.85,0,.16-.02.31-.02.41.07.26.13.48.19.71,0,.03,0,.07.01.09.47.51.37,1.19.57,1.78.04.12,0,.28,0,.49-.16-.45-.28-.82-.41-1.18-.08.41-.19.8.05,1.17.04.07-.02.2-.02.3,0,.18-.07.38.22.46,0-.21-.02-.39-.03-.67.13.11.24.16.23.2-.04.22.21.52-.16.68-.01,0,.02.18.07.24.18.2.36.99.22,1.24,0-.15-.02-.31-.03-.46-.02,0-.04,0-.06,0-.02.04-.07.08-.06.12.02.26.02.52.08.77.04.16.15.31.22.46.03.06.01.14-.03.22-.03-.14-.06-.28-.09-.42-.08.23-.11.43.11.6.24.19.24.7-.04.87.13.3.23.62.39.91.16.3.09.58.05.88,0,.08-.02.16,0,.23.08.27.18.54.26.82.02.06.03.14,0,.18-.21.25-.1.54-.08.81.01.17.08.33.13.5.03.09.09.17.09.26,0,.69.2,1.32.48,1.94.23.51.36,1.07.51,1.61.03.1-.1.24-.16.36-.03.06-.12.13-.12.18.09.59.19,1.17.3,1.76.01.07.07.13.11.18.17.21.34.42.52.66-.11.08-.17.12-.23.16.02.03.03.06.04.06.32.02.34.32.4.51.11.39.06.84.21,1.21.1.24.15.44.12.67-.02.12-.11.23-.14.29,0,.15.04.29,0,.36-.14.18-.12.34.02.53.26-.15.38-.03.45.24.07.25.18.48.28.73-.03.01-.06.03-.09.04-.15-.23-.3-.45-.48-.73.1.85.19,1.65.28,2.45-.06.01-.12.03-.17.04-.11-.28-.22-.56-.32-.84-.24-.64-.27-1.31-.38-1.98-.16-.9-.44-1.78-.62-2.68-.19-.93-.31-1.88-.5-2.81-.13-.65-.33-1.28-.47-1.93-.12-.54-.22-1.1-.32-1.65-.08-.44-.14-.89-.23-1.34-.14-.63-.35-1.25-.43-1.89-.05-.4-.3-.83-.02-1.25.03-.04-.06-.18-.11-.26-.06-.11-.19-.2-.21-.31-.05-.33-.1-.66-.08-.99.01-.28-.06-.46-.29-.6-.07-.04-.14-.08-.25-.15.28-.18.51-.31.35-.61-.1-.19.11-.47-.17-.61-.04-.02-.07-.11-.06-.17.03-.22.05-.42-.13-.59-.02-.02-.02-.07,0-.09.28-.56-.05-1.03-.23-1.52-.02-.05-.02-.1-.02-.15-.06-.84-.13-1.69-.19-2.53-.01-.18,0-.36.04-.53-.04-.1-.1-.19-.11-.29-.07-.53-.09-1.07-.39-1.55-.02-.03-.05-.09-.03-.12.29-.46-.25-.78-.19-1.2.02-.19.02-.37.04-.56,0-.04.02-.08,0-.11-.19-.34-.19-.7-.2-1.08,0-.47-.12-.95-.17-1.42-.03-.29-.04-.59-.08-.88-.03-.3-.08-.6-.13-.9-.02-.11-.05-.22-.04-.33.08-.65-.18-1.24-.28-1.86-.09-.53-.15-1.07-.23-1.6-.07-.49-.15-.98-.21-1.47-.03-.21-.03-.42-.08-.62-.1-.41-.23-.81-.35-1.22-.02-.06-.04-.12-.05-.18-.09-.43-.16-.86-.26-1.29-.13-.55-.24-1.1-.43-1.63-.22-.6-.28-1.21-.33-1.83-.02-.27-.2-.54-.21-.81-.01-.2-.09-.48.19-.62h0ZM61.95,95.49c.05,0,.1-.02.15-.03-.08-.44-.16-.88-.25-1.32-.23.49.01.9.09,1.34Z"/>
      <path class="cls-1" d="M43.19,3.35c.34.32.31.76.36,1.17.02.14,0,.29.04.43.11.43.14.85.03,1.28-.04.14.01.31.01.46,0,.54-.01,1.09.04,1.63.03.35.13.71.26,1.04.14.36.03.75-.32.91-.22.11-.41.64-.28.85.24.41.27.87.36,1.32.04.21.1.42.21.6.06.1.18.26.38.09.07-.06.29.07.44.12.45.15.88.28,1.39.09.51-.19,1.08-.22,1.62-.33.25-.05.51-.12.75-.21.28-.11.49.02.68.17.06.05.05.32-.02.38-.1.09-.32.16-.43.11-.22-.1-.35,0-.5.11-.15.11-.3.23-.47.29-.1.04-.25,0-.36-.04-.22-.09-.43-.03-.44.17-.02.39-.31.47-.56.5-.34.04-.7.15-1.05-.16-.14-.13-.55-.02-.81.06-.48.14-1.01-.09-1.18-.58,0-.02,0-.05-.02-.06-.6-.42-.47-1.14-.69-1.71-.22-.55-.34-1.14-.52-1.71-.05-.17-.04-.3.15-.34.48-.1.68-.36.55-.84-.01-.04,0-.09,0-.12.22-.67-.06-1.35,0-2.02.05-.51.1-1.02.12-1.53.01-.27-.03-.54-.04-.81-.01-.23-.03-.46-.01-.69,0-.11.09-.21.14-.32.04-.09.09-.17.14-.28Z"/>
      <path class="cls-1" d="M.06,104.17c.05.02.11.03.16.04,0,0,.01,0,.02,0,.02,0,.04,0,.07,0,0,0,.01,0,.02,0,.06-.2.14-.4-.03-.55.08-.25.16-.47.21-.7.08-.38-.1-.83.3-1.14.06-.05.04-.23.04-.34,0-.07-.04-.14-.07-.21h0c-.15-.07-.27-.07-.33.12-.05.14-.13.27-.14.41-.06.65-.33,1.26-.27,1.94.01.13,0,.26-.04.39.02,0,.04.01.06.02Z"/>
      <path class="cls-1" d="M81.38,97.8c.11.08.19.13.28.19-.08.09-.14.16-.2.22.09.15.19.26.25.4.24.56.46,1.13.7,1.69,0,0,0,0,0,0,.05.01.1.02.15.03.08,0,.16,0,.24,0,.03,0,.07-.01.1-.02-.26-.72-.56-1.43-.83-2.14-.26-.69-.54-1.38-.78-2.09-.11-.33-.08-.71-.2-1.04-.3-.8-.64-1.59-.98-2.38-.1-.22-.3-.4-.39-.63-.31-.79-.6-1.58-.88-2.38-.16-.47-.28-.95-.44-1.42-.08-.22-.2-.43-.3-.65-.23-.49-.34-1.08-1.04-1.28.02.13.02.26.06.37.26.67.52,1.33.79,1.99.03.08.1.15.16.22.25.3.38.57.14.95.07.12.15.23.2.34.16.33.3.68.48,1.01.09.17.24.31.35.47.15.21.3.43.44.65.01.02,0,.07,0,.09-.26.31.03.42.21.56-.14.24,0,.86.25,1.14.26.3.6.6.29,1.07.53.41.64.85.31,1.11.15.12.3.24.47.38-.08.05-.16.11-.25.17.17.33.79.44.42.97Z"/>
      <path class="cls-1" d="M59.78,60.99c-.06-.26-.37-.44-.21-.77.02-.05-.14-.15-.15-.25-.04-.22-.3-.42-.08-.68.03-.03-.08-.16-.1-.25-.03-.13-.03-.27-.04-.45-.19-.09-.28-.54-.09-.79-.32-.19-.43-.41-.31-.62-.1-.05-.19-.11-.32-.18.11-.07.19-.12.21-.14-.03-.14-.08-.25-.09-.37,0-.21,0-.42.02-.64,0-.08.03-.16.04-.24.02-.15.15-.29-.05-.43-.08-.05-.08-.23-.1-.35-.03-.19-.06-.37-.09-.56-.03-.21-.06-.43-.11-.64-.05-.26-.11-.52-.12-.8.15.39.35.76.45,1.16.23.88.41,1.77.63,2.65.16.65.36,1.3.55,1.94.17.58.36,1.15.48,1.76-.03-.05-.05-.11-.09-.14-.05-.03-.12-.04-.19-.06-.01.05-.03.11-.04.17-.02.18-.02.36-.06.54,0,.05-.1.08-.15.12,0,0,0,0,0,0Z"/>
      <path class="cls-1" d="M74.03,78.62c.12.36.23.65.33.96.29,0,.46.21.44.53,0,.14.08.37.17.4.28.08.32.31.42.5.35.66.69,1.33,1.02,2.01.12.24.2.49.3.74.04.1.09.19.15.3-.17.43.33.65.39,1.02-.16.08-.25.05-.33-.13-.14-.32-.3-.64-.49-.94-.07-.11-.27-.14-.33-.26-.36-.67-.71-1.36-1.05-2.04-.23-.45-.44-.91-.64-1.38-.03-.07,0-.18.02-.31-.41-.17-.59-.62-.84-1-.17-.25-.3-.52-.41-.79-.04-.11-.04-.31.02-.37.17-.14.31.02.41.15.09.11.11.27.2.39.07.1.18.17.22.21Z"/>
      <path class="cls-1" d="M22.37,44.26c-.08.43-.58.86-.94.86-.29,0-.61-.07-.46.42.02.05-.05.14-.1.19-.23.22-.52.4-.7.65-.22.29-.49.38-.7.42-.21.24-.32.51-.5.56-.47.14-.7.53-1.03.82-.36.32-.67.7-1,1.06-.07.08-.09.21-.17.27-.1.08-.22.13-.34.19-.04-.04-.07-.08-.11-.12.22-.33.44-.66.65-.98-.03,0-.11.02-.19.04-.02-.02-.04-.04-.06-.06.31-.31.61-.64.94-.93.76-.66,1.52-1.32,2.3-1.95.4-.32.86-.56,1.29-.84.22-.15.43-.32.66-.45.12-.07.26-.09.45-.14Z"/>
      <path class="cls-1" d="M72.8,77.06c0,.06,0,.12.03.16.02.05.07.09.11.13-.03.02-.05.05-.08.07-.15-.17-.3-.34-.45-.52-.28-.34-.55-.68-.83-1.03-.13-.16-.26-.32-.38-.5-.23-.36-.45-.73-.67-1.1-.25-.41-.51-.82-.76-1.23-.4-.66-.82-1.32-1.2-1.99-.21-.37-.37-.78-.57-1.16-.05-.1-.13-.18-.2-.27-.08-.1-.17-.19-.25-.29l.07-.1c.17.08.34.17.53.26-.09.19-.09.32.12.44.11.06.12.29.23.39.17.17.39.3.63.47,0,0-.09.03-.18.07.07.04.09.05.11.05.18-.04.32-.04.23.22-.02.07,0,.22.05.23.36.13.26.55.49.75.02.02.04.07.04.08-.23.32.13.28.26.4-.06.06-.12.11-.25.23.16.01.26.02.36.03l.02-.09c.19.15.43.28.23.6.11.06.21.11.32.18-.19.31-.13.55.17.77.13.1.31.2.29.46-.01.11.19.25.29.38.09.11.18.21.23.37.1.01.2.03.32.05-.04.1-.07.17-.11.28h.42c-.11.08-.15.12-.2.16.11.4.64.56.6,1.04h0Z"/>
      <path class="cls-1" d="M65.74,65.78c.07-.05.12-.08.16-.12-.12-.14-.5-.08-.29-.42-.44-.22-.48-.47-.07-.77-.2-.03-.37-.05-.54-.07-.12-.22-.23-.44-.38-.72.44.07.81.13,1.18.19,0,.03,0,.07,0,.1-.09.04-.19.07-.3.12.17.13.35.24.48.39.07.07.06.21.09.35.04.02.21.06.21.11,0,.21.28.46-.09.62.12.32.61.24.63.67.01.29.19.58.3.91-.1-.01-.17-.02-.23-.03,0,.01-.01.03-.02.04.25.13.5.27.74.4,0,.03-.01.06-.02.1-.17.05-.34.09-.5.14.1.23.6,0,.56.47-.02.26.08.52.15.88-.17-.08-.29-.1-.34-.17-.19-.29-.36-.58-.51-.89-.13-.27-.2-.57-.33-.84-.17-.33-.38-.64-.56-.97-.04-.08,0-.2-.04-.27-.06-.09-.17-.15-.28-.23Z"/>
      <path class="cls-1" d="M90.28,102c-.16.34-.17.35-.57.09.09-.04.16-.07.19-.08-.27-.35-.53-.67-.78-.99-.09-.11-.16-.24-.21-.37-.07-.19-.08-.41-.17-.59-.12-.24-.28-.46-.47-.76,0,0,.06-.03.17-.08-.91-.71-1.15-1.82-1.7-2.74-.05-.09-.09-.19-.15-.27-.14-.21-.2-.42,0-.71.22.43.41.82.61,1.2.13.25.26.51.43.75.19.27.4.52.6.78.51.66.68,1.49,1.11,2.19.27.44.45.94.69,1.4.04.07.14.11.24.19Z"/>
      <path class="cls-1" d="M76.34,75.86s.08.02.12.04c.33.13.34.15.13.47.53.64,1.09,1.28,1.34,2.1-.03.02-.05.04-.08.07-.05-.06-.1-.13-.17-.17-.11-.06-.23-.11-.35-.16,0,.11-.02.23.02.33.15.36.33.71.48,1.07.03.08,0,.19,0,.3-.46-.27-.76-.92-.66-1.35.01-.07-.06-.22-.12-.23-.37-.1-.47-.43-.66-.7-.24-.36-.51-.71-.75-1.06-.07-.11-.18-.26-.15-.36.05-.16.21-.13.39-.11.14.02.31-.15.47-.24,0,0,0,0,0,0ZM76.21,76.76s.07-.07.1-.1c-.11-.11-.2-.23-.32-.33-.02-.02-.13.06-.22.11.13.07.21.11.28.16.06.04.11.11.16.16Z"/>
      <path class="cls-1" d="M79.17,82.07c.03-.26.05-.44.07-.63.07-.02.15-.05.3-.11-.3-.19-.47-.45-.85-.36-.15.04-.34,0-.49-.06-.28-.1-.26-.37.04-.64-.13-.03-.25-.06-.36-.09.35-.15.37-.36.21-.66-.04-.07.04-.2.07-.3.09.04.21.05.26.11.27.39.52.8.78,1.2.18.27.39.53.55.81.15.27.25.56.35.85.01.04-.12.18-.16.17-.27-.09-.52-.2-.77-.3Z"/>
      <path class="cls-1" d="M81.82,85.1c-.16.03-.3.07-.44.08-.47.06-.68-.12-.87-.56-.18-.41-.52-.75-.59-1.23-.01-.09-.17-.17-.27-.25-.14-.11-.32-.19-.12-.41.03-.03-.06-.16-.1-.28.33-.15.47.1.72.26.32.2.16.57.45.75-.08.06-.14.11-.25.2.14.02.26.08.29.05.24-.22.31-.02.41.14.23.36.47.71.69,1.06.03.05.04.11.06.18ZM80.73,83.85l-.08.04c.04.27.07.55.12.82,0,.05.11.08.17.11.02-.07.07-.15.06-.21-.04-.19-.1-.37-.16-.55-.02-.07-.07-.14-.11-.2Z"/>
      <path class="cls-1" d="M26.91,46.46c-.13.02-.26.07-.39.07-.65,0-1.24.27-1.85.44-.29.08-.63.04-.94.04-.19,0-.38,0-.57,0,0-.03-.02-.07-.02-.1.06-.04.11-.08.18-.11.06-.03.16-.02.18-.06.17-.29.44-.29.74-.31.54-.03,1.08-.13,1.62-.19.23-.03.46-.07.68-.06.13,0,.26.11.39.17,0,.04-.01.07-.02.11Z"/>
      <path class="cls-1" d="M26.92,95.5c-.02.07-.04.15-.08.25.11-.02.2-.03.35-.05-.06.27-.11.49-.16.72-.17.78-.38,1.56-.51,2.35-.05.28.01.59-.16.85-.05.08-.12.15-.18.23-.02-.01-.05-.03-.07-.04.07-.22.15-.43.24-.7-.02-.02-.08-.11-.15-.21-.06-.1-.12-.19-.2-.32.1.01.2.02.37.04-.42-.24-.16-.55-.13-.8.08-.55.26-1.08.38-1.62.03-.13-.06-.28-.02-.4.04-.12.17-.21.26-.32.02,0,.03.01.05.02Z"/>
      <path class="cls-1" d="M85.3,93.78c.13,0,.23-.01.43-.02-.29-.29-.51-.52-.74-.74-.14-.13-.33-.21-.46-.35-.11-.11-.1-.25.1-.29.12-.03.24-.06.39-.1.18.27.39.57.58.88.23.37.45.73.65,1.11.07.13.07.3.11.47h-.29v.27c-.42-.35-.47-.86-.77-1.24Z"/>
      <path class="cls-1" d="M.79,101.29c-.17-.14-.23-.27-.12-.51.29-.64.54-1.3.8-1.95.03-.07.02-.16.05-.23.04-.09.11-.17.2-.23.08.26.26.53-.14.65-.04.01-.1.11-.09.15.07.28-.04.52-.11.79-.11.41-.17.84-.48,1.17-.05.05-.09.1-.14.16,0,0,0,0,0,0Z"/>
      <path class="cls-1" d="M90.35,102.81c.07.06.16.1.2.17.23.35.45.7.67,1.06.18.29.36.58.54.87.04.07.12.16.1.22-.07.25.03.39.37.45-.16.11-.26.17-.35.24-.05-.08-.12-.15-.15-.24-.12-.31-.23-.63-.36-.94-.02-.06-.08-.14-.14-.16-.44-.13-.5-.53-.65-.87-.1-.24-.2-.49-.3-.73.02-.02.04-.03.07-.05Z"/>
      <path class="cls-1" d="M2.37,96.15c.41.23.45.51.15.8-.17.17-.38.31-.61.5h.33c.06.29-.19.73-.45.79-.04.01-.12,0-.14-.03-.03-.05-.03-.12-.01-.17.15-.45.31-.89.47-1.33.07-.18.16-.35.26-.55Z"/>
      <path class="cls-1" d="M81.2,86.09c.27.13.54.27.82.41.3-.22-.06-.39-.09-.6.23-.06.31.08.38.23.17.37.35.74.52,1.11.06.13.13.25.16.44-.26-.17-.52-.35-.82-.55.12-.06.18-.09.24-.12-.2.01-.02-.69-.41-.25-.3-.19-.59-.37-.88-.54l.07-.13Z"/>
      <path class="cls-1" d="M54.47,44.66c-.13-.07-.32-.1-.37-.2-.14-.27-.43-.42-.51-.72-.01-.05-.07-.11-.12-.13-.26-.1-.33-.18-.41-.41-.04-.11-.14-.19-.21-.29-.05-.07-.1-.15-.18-.26.24.08.43.12.6.21.05.02.05.15.1.3.23.03.45.18.46.53,0,.04.09.08.13.13.14.2.28.4.42.6.05.07.09.13.14.2,0,.02-.02.04-.03.06Z"/>
      <path class="cls-1" d="M54.27,53.03c-.08,0-.16-.02-.26-.03-.2-.85-.39-1.7-.59-2.54.04-.01.08-.03.12-.04.1.29.41.47.34.86-.03.15.05.36.14.5.26.39.24.82.24,1.25,0,0,0,0,0,0Z"/>
      <path class="cls-1" d="M56.89,49.02c.44,1.18.88,2.37,1.32,3.55l-.09.05s-.09-.02-.1-.05c-.1-.39-.3-.74-.51-1.08-.07-.11.03-.31-.02-.44-.18-.48-.41-.93-.6-1.41-.07-.19-.09-.4-.13-.6l.11-.03Z"/>
      <path class="cls-1" d="M84.44,90.7c-.22-.41-.44-.81-.67-1.22-.04-.07-.07-.16-.13-.2-.32-.19-.18-.52-.3-.77.04-.02.08-.04.12-.05.36.73.71,1.46,1.07,2.18-.03.02-.06.03-.1.05Z"/>
      <path class="cls-1" d="M2.92,95.18c.22.42.02.81-.43.86.01-.5.17-.8.43-.86Z"/>
      <path class="cls-1" d="M81.19,85.43c.22-.06.44-.13.67-.19.06.11.13.23.22.38-.35.22-.59-.17-.89-.19Z"/>
      <path class="cls-1" d="M76.71,85.44c.1.05.17.09.21.11.08-.13.14-.25.21-.36.05.08.11.17.15.24.1.04.2.08.29.12,0,.03-.02.05-.03.08-.26-.13-.6.24-.84-.19Z"/>
      <path class="cls-1" d="M31.58,39.84l1.46-.54s.02.06.03.08c-.49.18-.97.36-1.46.54l-.03-.09Z"/>
      <path class="cls-1" d="M55.92,47.27c-.15-.28-.3-.57-.45-.85.03-.02.07-.04.1-.05.15.28.3.57.45.85-.03.02-.07.04-.1.06Z"/>
      <path class="cls-1" d="M72.8,77.06c.07-.01.2-.06.22-.04.09.14.16.3.23.46-.08.04-.16.07-.24.11.02-.03.04-.06.05-.09-.09-.15-.17-.29-.26-.44,0,0,0,0,0,0Z"/>
      <path class="cls-1" d="M27.59,46.35c-.19-.02-.34-.03-.49-.05,0-.03-.02-.05-.03-.08.1-.07.19-.15.29-.23.08.12.14.22.23.36Z"/>
      <path class="cls-1" d="M75.5,75.51c-.19.32-.32.19-.44-.02.13,0,.25.01.44.02Z"/>
      <path class="cls-1" d="M61.28,91.36c-.07-.13-.15-.26-.22-.39.35-.05.28.18.31.34-.03.01-.06.03-.09.04Z"/>
      <path class="cls-1" d="M32.05,47.52c.2-.09.39-.18.59-.26,0,0,.04.09.06.13-.23.05-.45.09-.66.13,0,0,0,0,0,0Z"/>
      <path class="cls-1" d="M83.09,88.39c.08.47.06.51-.21.59.06-.17.12-.34.21-.59Z"/>
      <path class="cls-1" d="M51.56,105.78c.21.12.38.21.58.32-.08.12-.16.24-.24.36.03,0,.05,0,.08.01-.03.19-.05.38-.09.57-.03.16-.1.31-.14.47-.02.08,0,.16-.04.21-.11.24-.22.48-.33.72-.03,0-.06-.02-.09-.03.02-1.34-.24-2.68-.18-4.01-.03-.14-.05-.26-.07-.39-.03-.17-.09-.34-.08-.51.02-.6,0-1.19-.09-1.79-.09-.6-.05-1.23-.08-1.84-.01-.23-.11-.46-.1-.68.02-.31.11-.62.17-.98-.04-.02-.13-.06-.24-.11,0-.26,0-.54,0-.81,0-.1.03-.21.08-.3.1-.16.15-.3-.03-.45-.06-.05-.08-.16-.09-.25-.02-.12.01-.24-.02-.36-.1-.43-.28-.85-.28-1.27,0-.34-.04-.69,0-1.03.01-.12-.05-.24-.06-.37-.08-.64-.15-1.29-.22-1.93-.07-.59-.17-1.18-.2-1.77-.02-.37.09-.75.11-1.13,0-.24.02-.54-.11-.7-.21-.25-.25-.49-.21-.78.03-.24.02-.49.02-.74,0-.31-.06-.62-.04-.93.01-.27.09-.54.12-.81.01-.1-.05-.2-.06-.3-.02-.24-.05-.48-.05-.72,0-.22.06-.44.06-.66,0-.24-.05-.48-.06-.72-.06-.87-.1-1.75-.17-2.62-.02-.25-.08-.5.18-.67-.28-.52-.14-1.08-.16-1.62-.04-.82-.05-1.63-.05-2.45,0-.44.04-.89.04-1.33,0-.25-.04-.51-.05-.76,0-.12.05-.24.08-.39-.19-.11-.24-.33-.11-.62.05-.13.12-.33.06-.41-.28-.39-.08-.82-.14-1.23-.06-.39.05-.81.08-1.22,0-.1,0-.2-.03-.3-.04-.22-.14-.42.02-.65.05-.07.13-.25-.02-.4-.08-.08-.07-.25-.08-.39-.1-1.21-.19-2.42-.3-3.63-.03-.36,0-.75-.25-.97.02-.24.06-.43.04-.61-.05-.49-.14-.98-.2-1.47-.01-.12.03-.24.06-.36.13-.46-.17-.84-.2-1.28,0-.09,0-.17.01-.26,0-.06.04-.13.02-.19-.07-.23-.23-.45.03-.67.02-.02-.06-.13-.06-.2,0-.33,0-.66.02-.99,0-.08.04-.16.07-.22.08-.15.17-.27.01-.46-.08-.1-.02-.34.02-.51.06-.31.02-.62.07-.94.05-.32.06-.68.08-1.02,0-.07.09-.13.14-.19.05.06.14.13.15.19.04.45.07.9.07,1.35,0,.31-.08.62-.07.92.01.31.14.61.15.92.01.4-.05.81-.07,1.21,0,.09.02.18.04.27.03.13.12.27-.16.28.12.1.28.16.3.25.04.16,0,.34-.01.5,0,.07-.07.16-.04.2.36.6.14,1.28.29,1.91.02.07,0,.15,0,.22-.05.23,0,.43.07.65.12.39.13.81.18,1.21,0,.05.02.11.02.16,0,.13.02.26.03.44.15.06.18.27.13.47-.08.35-.1.67.07,1,.04.08.01.2,0,.3-.04.39-.09.78-.12,1.17,0,.05.09.1.17.14-.01.7.14,1.43,0,2.18.03.05.14.16.14.26,0,.47-.03.95-.03,1.42,0,.35.05.71.06,1.06,0,.16-.01.32-.02.48,0,.04-.01.09,0,.13.17.51.14,1.01.02,1.52-.02.09.06.2.06.3,0,.51.08,1.01.16,1.52.1.59.05,1.2.05,1.8,0,.91,0,1.82,0,2.74,0,.19.09.38.12.57.02.14-.01.29,0,.43.05.58.12,1.16.17,1.73,0,.04,0,.08,0,.12-.07.62-.15,1.24-.2,1.86-.03.43,0,.87-.03,1.3-.02.23-.12.46-.18.69-.01.04,0,.09,0,.13.12.62.24,1.24.35,1.86.01.06.02.15-.01.18-.35.4-.06.85-.09,1.27-.05.59-.01,1.2,0,1.8.02.51.02,1.03.1,1.53.07.44.27.85.36,1.29.12.56.19,1.14.28,1.71.2,1.29.4,2.57.59,3.86.01.09,0,.19.02.28.03.28.07.56.1.84.02.27.04.55.04.82,0,.48.03.95,0,1.43-.02.26-.05.47.06.73.12.28-.15.5-.37.66-.18.13-.33.26-.21.46Z"/>
      <path class="cls-1" d="M47.97,48.32c.15.17.29.35.46.55.04-.05.1-.12.19-.22.11,1.45.22,2.87.33,4.29-.04,0-.08.02-.11.03-.12-.14-.25-.27-.34-.37-.01-.22-.02-.42-.03-.61,0-.06.01-.14.05-.17.3-.22.1-.33-.01-.38.02-.24.08-.45.03-.61-.12-.34-.1-.67-.1-1.01,0-.07-.13-.15-.24-.26,0,0,.06-.07.07-.08-.11-.41-.21-.78-.31-1.15h0Z"/>
      <path class="cls-1" d="M47.97,48.32c-.02-.08-.05-.16-.09-.29.1-.03.21-.07.32-.1.04-.27.07-.54.11-.81.04,0,.08,0,.12,0,.03.45.07.89.11,1.41-.21-.08-.39-.15-.57-.22,0,0,0,0,0,0Z"/>
      <path class="cls-1" d="M49.11,39.99c.09.08.19.15.25.2-.25.15-.56.33-.94.56.23-.31.42-.57.62-.82.03.02.05.05.08.07Z"/>
    </g>
  </g>
</svg>