<?xml version="1.0" encoding="UTF-8"?>
<svg id="Layer_2" data-name="Layer 2" xmlns="http://www.w3.org/2000/svg" viewBox="0 0 56.22 107.53">
  <defs>
    <style>
      .cls-1 {
        fill: #000;
        stroke-width: 0px;
      }
    </style>
  </defs>
  <g id="illustrations">
    <g>
      <path class="cls-1" d="M56.11,97.12c.04-.28.2-.56.04-.84-.18-.3-.34-.63-.6-.86-.41-.37-.89-.65-1.32-1-.13-.1-.31-.33-.28-.42.08-.23-.03-.35-.12-.51-.04-.07-.07-.15-.09-.22.11-.08.21-.15.24-.17-.05-.27-.11-.5-.13-.72-.04-.38-.07-.76-.1-1.14-.02-.22-.06-.44-.07-.66,0-.24.02-.47.02-.71,0-.27-.03-.54-.04-.82,0-.4-.01-.8-.01-1.2,0-.16.01-.31.01-.47,0-.3-.02-.61-.03-.91,0-.26,0-.52-.01-.78,0-.22-.02-.44-.01-.67,0-.05.07-.1.11-.15-.14-.33-.14-.68-.13-1.1,0-.03-.05-.14-.05-.24-.01-.59,0-1.18-.02-1.76,0-.42-.05-.83-.05-1.25,0-.48.08-.97.02-1.45-.07-.57.16-1.17-.15-1.71,0-.02.01-.05.01-.07,0-.26,0-.52,0-.78-.02-.25-.06-.51-.08-.76,0-.05.02-.09.03-.14,0-.05,0-.1,0-.15-.04-.14-.11-.28-.12-.43-.04-.39-.06-.79-.08-1.18-.03-.4-.05-.81-.07-1.21-.02-.33-.02-.66-.04-.98,0-.18-.1-.4-.02-.52.19-.28.06-.49-.04-.67.04-.1.11-.18.1-.23-.07-.27.1-.56-.07-.82-.01-.02.02-.06.02-.09.01-.08.03-.17.03-.25,0-.06-.02-.13-.01-.19.01-.19.05-.37.05-.56,0-.14-.03-.28-.05-.46.07-.09.15-.23.04-.41-.03-.05-.05-.11-.04-.17.02-.34.09-.68.07-1.01-.04-.63-.13-1.26-.18-1.89-.02-.24-.04-.5,0-.73.04-.19.05-.31-.12-.38.05-.11.12-.2.13-.3.01-.12-.04-.24-.05-.36,0-.09.02-.19.02-.28-.01-.3-.05-.61-.05-.91,0-.22.04-.45.03-.67,0-.21-.06-.41-.07-.62,0-.08.06-.17.06-.25,0-.3-.01-.6,0-.9,0-.32.04-.64.05-.97,0-.18.02-.36.02-.54.02,0,.04,0,.06,0-.04-.05-.08-.1-.12-.14.05-.08.13-.15.13-.22,0-.33-.05-.66-.06-.99-.02-.75-.02-1.5-.03-2.25,0-.2,0-.39.02-.59,0-.16.04-.33.04-.49,0-.74-.02-1.47-.03-2.21,0-.18-.04-.37-.03-.55,0-.16.05-.31.08-.47.06-.28.13-.57.19-.85.02-.09.04-.18.05-.27.02-.12.03-.24.04-.4-.03-.08-.1-.21-.12-.34-.05-.41-.13-.8-.3-1.18-.35-.79-.83-1.46-1.57-1.9-.59-.35-1.21-.64-1.82-.93-1.17-.56-2.44-.65-3.69-.85-.66-.1-1.32-.2-1.97-.32-.68-.12-2.37-.52-2.51-.56-.45-.12-1.38.09-1.4.09-.52-.2-3.19-.39-3.63-.33-.52.07-1.06.16-1.58.13-.49-.02-4.53-.12-4.61-.11-.39.03-.56.39-.45,0,.13-.47.16-.94-.05-1.39-.22-.47-.43-.92-.96-1.15-.31-.14-.58-.38-.85-.6-.23-.19-.18-.45-.15-.71,0-.11,0-.26-.06-.33-.17-.17-.24-.35-.22-.57.01-.11.03-.21.04-.32.02-.18.03-.35.07-.53.04-.22.1-.43.15-.64.06-.24.12-.49.2-.73.02-.06.13-.13.12-.15-.21-.32.09-.57.17-.81.2-.57.5-1.12.8-1.65.39-.69.81-1.38,1.26-2.03.36-.52.78-1.01,1.17-1.51.2-.25.4-.49.58-.75.22-.33.43-.67.62-1.02.05-.08.04-.19.07-.31.18-.07.27-.32.16-.45.05-.04.13-.07.16-.13.12-.24.24-.47.34-.72.26-.64.51-1.29.75-1.94.11-.31.24-.63.28-.95.03-.22.12-.32.22-.36,0-.12-.02-.2,0-.28.06-.24.15-.47.2-.71.09-.44.15-.89.22-1.34.04-.3.06-.61.1-.92.04-.32.07-.65.13-.97.04-.21.17-.4.18-.61.02-.35-.03-.71-.04-1.06-.03-.69-.03-1.38-.08-2.07-.02-.33-.13-.66-.17-.99-.03-.26.01-.53-.05-.77-.12-.54,0-1.12-.32-1.62-.05-.08-.09-.16-.13-.22.03-.07.11-.16.1-.24-.04-.39-.12-.76-.29-1.13-.23-.47-.41-.96-.56-1.46-.21-.69-.53-1.31-.98-1.87-.09-.11-.26-.18-.16-.38.02-.03-.05-.13-.1-.16-.3-.16-.41-.43-.48-.73-.02-.1-.06-.25-.14-.29-.3-.18-.39-.48-.53-.76-.05-.11-.11-.22-.18-.31-.51-.63-1-1.26-1.53-1.87-.2-.23-.26-.45-.17-.74.1-.32-.03-.48-.35-.5-.17,0-.35-.03-.51.01-.12.03-.28.14-.31.24-.17.56-.15,1.13.23,1.61.39.49.74.96.84,1.62.09.58.13,1.15.19,1.73.02.18.09.35.14.53.02.08.06.16.07.24.09.83-.11,1.62-.33,2.4-.13.47-.37.91-.58,1.34-.61,1.22-1.32,2.39-2.17,3.46-.52.66-1.11,1.27-1.61,1.94-.84,1.13-1.66,2.29-2.44,3.46-.35.53-.6,1.13-.89,1.71-.09.18-.08.4-.3.52-.06.03-.04.21-.05.31,0,.06,0,.12-.02.17-.1.23-.21.45-.33.67-.09.18-.22.35-.28.54-.09.29-.13.59-.19.88-.1.48-.16.97-.29,1.44-.14.48-.2.97-.36,1.44-.16.48-.23,1-.32,1.5-.16.9-.4,1.79-.41,2.72,0,.22,0,.43,0,.65.02.49.05.99.07,1.48.01.28-.04.57,0,.84.04.25.11.57.29.72.41.35.55.79.62,1.28.09.62.35,1.15.78,1.6.16.17.25.41.37.62.02.04.05.12.08.12.21.03.32.23.46.31.42.23.72.65,1.25.72.32.04.62.22.94.33.28.09.45.02.48-.16.2-.07.37-.14.55-.19.16-.05.38-.03.47-.13.09-.1.06-.32.07-.48.03-.34.06-.68.09-1.04.06.04.12.06.15.1.32.46.76.81,1,1.33.08.17.14.31.12.5-.02.12-.04.27.01.34.06.08.22.08.37.13-.11.19-.2.41-.35.59-.15.18-.36.31-.56.47.26.21.22.39.13.55-.13.24-.28-.05-.43.17-.03.05-.12.1-.18.1-.19,0-.39-.01-.59-.02-1.53-.08-3.05.07-4.57.24-1.34.15-2.68.4-4.03.4-.57,0-1.15.07-1.72.11-.27.02-.55.01-.82.03-.77.05-1.53.11-2.3.17-.66.05-1.32.09-1.97.18-.6.08-1.18.22-1.77.33-1.27.24-2.52,1.07-3.61,1.82-.85.57-1.57,1.26-1.94,2.23-.15.41-.26.83-.29,1.29-.03.55-.18,1.1-.2,1.66-.01.34-.14.68-.18,1.02-.15,1.03-.3,2.06-.41,3.1-.1.87-.12,1.74-.22,2.61-.14,1.23-.2,2.47-.18,3.71.02,1.07.06,2.14.09,3.21.01.42.02.84.04,1.26.04.72.1,1.45.14,2.17.02.45,0,.9,0,1.34.01,1.27.03,2.53.04,3.8,0,.63,0,1.25-.03,1.88,0,.14-.09.27-.08.41.02.27.1.54.13.81.01.11-.01.23-.02.35,0,.12-.02.25-.03.37.03,0,.06,0,.09.01.05-.14.1-.27.15-.41,0,.15.02.31-.05.42-.25.38-.12.8-.17,1.2-.03.22,0,.44-.04.65-.11.56-.07,1.12-.05,1.68.02.66.07,1.33.05,1.99-.02.39-.11.76-.08,1.17.05.57,0,1.14-.02,1.71,0,.25-.05.5-.02.74.04.31-.18.56-.05.92.13.35-.04.8-.07,1.2-.01.14,0,.28,0,.44-.17.03-.15.23-.16.37-.03.48-.03.97-.04,1.45,0,.45,0,.91-.02,1.36-.04.93-.09,1.85-.14,2.78,0,.13-.02.26-.2.31-.46.13-.34.06-.41.55,0,.07,0,.14,0,.2-.03,1.01-.27,2.01-.1,3.03.07.44.44.92.87.99,0,0,.01.01.02.02.08.24.29.37.44.55.09.11.32.11.5.17-.22.3-.19.42.05.58.05.03.1.09.13.14.1.15.18.32.3.44.53.56,1.07,1.11,1.63,1.65.26.25.56.46.87.65.47.28.96.51,1.44.77.02,0,.02.04.07.14-.13,0-.24.03-.32,0-.2-.1-.38-.24-.58-.34-.23-.12-.47-.23-.71-.33-.04-.02-.1.03-.16.05-.02.03-.05.06-.07.1.1.05.24.09.28.17.16.28.42.48.7.5.27.02.48.14.7.25.14.07.27.18.41.25.27.15.54.31.82.43.22.09.45.14.75.23-.59-.32-1.1-.6-1.62-.89.13-.17.25-.21.42-.13.18.09.36.16.54.24.03-.19.14-.14.24-.08.09.06.16.13.24.2-.01.02-.02.05-.03.07-.08-.01-.17-.02-.25-.03.06.04.12.09.19.11.26.06.52.1.77.17.09.02.15.13.23.19-.02.02-.03.04-.05.06-.11-.02-.22-.04-.33-.05.09.07.18.09.28.11.23.05.47.08.69.16.4.14.78.34,1.18.44.38.1.76.21,1.11.38.44.21.89.25,1.37.19-.04-.05-.07-.09-.09-.12.12,0,.21.04.3.07.06.02.12.03.19.04.07.01.16,0,.21.04.1.08.17.13.29.03.03-.03.17-.01.18.01.11.25.32.16.5.15.29-.01.58-.05.87-.06.09,0,.18.06.27.07.46.09.92.23,1.38.24.28.01.52.07.78.14.22.06.44.1.66.11.31.01.63-.01.94-.02.2,0,.41-.01.61-.02.26-.01.54-.1.77-.03.36.12.71.13,1.07.12.19,0,.39-.02.58-.01.33.02.65.05,1.03.08-.09-.07-.13-.1-.18-.13,0-.02.01-.05.02-.07.47.05.94.1,1.44.15-.06-.09-.1-.15-.13-.21.01-.01.02-.03.04-.04.09.05.17.11.28.17-.01-.07-.02-.11-.03-.14.15,0,.29-.01.43,0,.39.03.75.3,1.16.12.13-.06.3-.05.45-.05.25,0,.49.03.72.05.03.04.06.11.08.11.17-.01.34-.05.51-.06.58-.02,1.15.04,1.65.4.12-.21.31-.17.49-.13.04.01.05.13.09.25.09,0,.23-.06.32-.02.31.16.63.09.95.09.53,0,1.06.03,1.59.02.69-.01,1.38-.03,2.08-.08,1.09-.08,2.17-.17,3.26-.29.7-.08,1.38-.25,2.08-.31.57-.05,1.09-.29,1.65-.38.38-.07.74-.23,1.12-.31.42-.09.82-.22,1.18-.46.03-.02.08-.04.12-.04.28-.02.57-.03.85-.05.13-.01.26-.05.39-.08.04-.21.21-.21.37-.28.63-.31,1.32-.34,1.99-.51.56-.14,1.12-.24,1.68-.38.39-.1.77-.24,1.16-.35.27-.08.55-.13.82-.23.6-.21,1.18-.44,1.78-.67-.09-.15,0-.29.15-.42.04-.03.09-.07.1-.11.08-.29.23-.54.47-.73.06-.05.1-.12.12-.19.15-.41.39-.74.78-.91-.02-.1-.08-.18-.06-.25.06-.21.18-.39.19-.63,0-.22.11-.43.15-.65.05-.29.09-.58.13-.88.01-.12,0-.24,0-.36,0-.28-.06-.57-.02-.84ZM26.83,31.56c-.29.48-.63.91-.95,1.37-.01.02-.03.04-.06.08-.21-.29-.31-.59-.31-.93,0-.07-.02-.16-.07-.21-.15-.16-.25-.33-.16-.56,0,0,0-.02,0-.02-.25-.31-.1-.69-.18-1.04,0,0,0-.02,0-.02.11-.44-.08-.85-.11-1.28-.02-.22.06-.44.08-.67.01-.16-.02-.33,0-.49.02-.14.11-.28.16-.41.02-.04.05-.1.04-.12-.25-.36.17-.7.02-1.05.23-.51.25-1.09.55-1.6.17-.29.2-.66.3-1,.04-.15.11-.29.16-.43.26-.72.51-1.44.78-2.16.14-.37.35-.72.52-1.09.23-.5.46-.99.68-1.49.03-.07,0-.17-.01-.28-.34.12-.41.4-.53.62-.21.38-.41.76-.61,1.14-.42.78-.85,1.56-1.25,2.35-.24.46-.46.94-.65,1.43-.23.59-.43,1.19-.61,1.79-.09.3-.11.62-.19.93-.15.68-.33,1.35-.47,2.03-.05.24-.02.5-.05.76-.02.22-.08.43-.11.64-.02.11,0,.22,0,.34,0,.33-.03.67-.01,1,0,.18.1.36.14.54.18.84.42,1.68.32,2.56-.04.39-.07.78-.09,1.17-.01.22.02.43.01.65,0,.13-.03.31-.32.22.1.14.16.29.26.34.15.07.18.18.21.32.03.15.08.29.11.44.1.39-.11.59-.51.53-.49-.06-.9-.26-1.24-.59-.22-.22-.42-.46-.62-.7-.22-.27-.46-.53-.62-.83-.4-.72-.82-1.44-1.11-2.21-.25-.66-.36-1.38-.32-2.1.03-.55.08-1.09.12-1.64.01-.21-.01-.42.02-.63.03-.2.11-.39.16-.58.1-.41.17-.82.28-1.22.19-.68.4-1.36.63-2.02.16-.47.42-.91.57-1.39.29-.92.64-1.81,1.09-2.67.14-.27.23-.56.36-.83.05-.11.15-.19.21-.3.05-.1.06-.21.11-.36.07-.05.18-.13.3-.22,0-.02-.02-.04-.02-.06-.04,0-.09,0-.13,0,0-.02-.02-.04-.03-.06.09-.04.18-.07.26-.11-.02-.07-.04-.14-.06-.22.05,0,.11.02.13.02.11-.27.23-.54.37-.87.03.11.04.15.05.2,0-.41.36-.59.55-.88.51-.77,1.03-1.54,1.57-2.28.67-.92,1.4-1.78,2.26-2.53.12-.11.37-.21.36-.3,0-.24.19-.31.27-.46.16-.28.35-.54.5-.83.17-.32.32-.64.44-.98.18-.46.34-.94.48-1.41.11-.36.18-.73.27-1.09.04-.18.09-.35.12-.53.02-.12-.03-.25-.01-.37,0-.08.06-.17.12-.21.05-.03.15,0,.22.02.09.04.16.1.25.15-.22.24-.24.4-.09.46-.03.07-.09.15-.07.19.08.16.19.3.28.46.08.12.15.25.21.38.15.33.31.66.45,1,.15.34.29.69.42,1.03.03.08.01.17.02.24.07.1.16.17.21.27.22.49.44.97.63,1.47.05.13.04.29.04.44.01.19,0,.37.02.56.03.21.1.42.14.63.02.13.02.27.01.41-.02.64-.04,1.27-.08,1.91-.03.46-.12.92-.17,1.38-.11.95-.2,1.9-.33,2.84-.04.3-.17.59-.27.88-.02.06-.1.1-.15.15-.17.13-.29.25-.2.52.05.14-.09.34-.13.52-.19.72-.37,1.45-.72,2.12-.08.16-.1.32-.31.37-.04,0-.06.08-.11.15.09-.04.15-.06.24-.09-.49.87-.94,1.71-1.58,2.43-.17.2-.29.44-.44.66-.13.18-.27.35-.41.52-.2.24-.44.46-.58.73-.2.4-.53.67-.83.97-.37.38-.89.58-1.18,1.06ZM.54,96.05c-.04-.11-.08-.22-.12-.32.04-.02.08-.03.12-.05.05.1.09.21.14.31-.04.02-.09.04-.13.06ZM52.65,48.29c.14.17.06.36.04.54-.03,0-.07,0-.1,0-.01-.18-.03-.36-.04-.54.03,0,.07,0,.1-.01ZM52.51,50.75c.06.04.17.08.18.13.03.19.03.38.02.57,0,.13-.05.26-.07.38-.2-.14-.21-.2-.06-.43-.05-.17-.11-.31-.14-.46-.01-.06.04-.12.07-.19ZM52.57,52.35c-.06-.13-.11-.25-.18-.39.32.03.36.11.18.39ZM27.42,46.86c.02-.26,0-.53.03-.8.05-.39.13-.78.2-1.18.18.2.26.19.37-.04.03-.06.08-.12.12-.18.03.05.06.11.1.16,0,0,.04-.02.05-.01.05.05.13.1.15.16.03.11.03.23.04.36-.09.03-.17.05-.29.09.46.26.69.62.63,1.12-.04.32-.11.64-.17.96-.01.07-.02.14-.02.21,0,.33.02.66-.16.96-.01.02-.04.05-.03.06.18.51-.14.94-.21,1.42-.04.31-.05.62-.07.94,0,.05,0,.1-.06.16-.08-.28-.17-.55-.23-.83-.07-.32-.17-.66-.15-.98.03-.55-.3-.97-.41-1.46-.02-.07.02-.16.04-.24,0-.03.04-.06.03-.08-.12-.28.04-.53.06-.8ZM3.06,47.28c.05-.16.15-.31.27-.46-.01.06-.03.12-.04.19.05-.01.09-.02.14-.03.01.02.03.03.03.05.03.24.05.49.08.73.01.09.02.18.04.27.07.26.15.48.39.65.27.18.51.43.75.65.16.15.35.22.53.24-.34-.28-.63-.6-.82-.99-.27-.44-.44-.9-.4-1.41.02-.27.1-.56.22-.81.35-.72.91-1.26,1.63-1.59.78-.35,1.58-.66,2.39-.93.65-.22,1.32-.37,1.99-.54.07-.02.15-.02.22,0,.14.02.27.03.36-.12.03-.04.09-.09.14-.09.76-.07,1.51-.14,2.27-.18.76-.04,1.53-.05,2.29-.09,1.01-.05,2.03-.11,3.04-.18.6-.04,1.2-.09,1.79-.15.89-.09,1.77-.21,2.66-.28.5-.04,1,0,1.49,0-.16.1-.34.21-.56.35.4.07.78-.15,1.1.12.19-.16.85-.17,1.06,0,.02.02.04.03.05.05.09.13,0,.8-.16.91.06.01.1.02.12.02,0,.12-.02.25-.03.37.02.06.04.12.04.18,0,.72-.02,1.44-.04,2.16.04.07.06.15.03.26-.03.1.03.22.04.34,0,.11.03.24-.02.32-.03.05-.05.1-.06.16,0,.13,0,.25,0,.38,0,.06.01.13.02.19,0,.27.01.54.02.82.02.6.04,1.19.05,1.79,0,.15-.02.3-.03.47-.07-.05-.12-.08-.17-.12-.08.22-.06.25.28.41-.19.23-.18.24.18.52.21.17.43.35.62.55.31.32.68.46,1.12.45.35,0,.49-.21.42-.55-.02-.11.03-.28.11-.34.29-.2.33-.49.39-.79.1-.6.21-1.2.31-1.8,0-.06,0-.12,0-.18.01-.09,0-.24.05-.27.29-.17.15-.37.11-.61-.04-.24.07-.51.11-.77.01-.07.01-.15.02-.22,0-.11.02-.22.02-.34,0-.06,0-.12-.02-.18-.08-.28-.05-.42.14-.55,0-.32,0-.64.03-.95-.1-.04-.21-.09-.32-.13.17-.19.29-.32.43-.47,0-.02-.03-.07-.06-.09-.33-.25-.32-.59-.27-.94.04-.28.05-.56.08-.84.02,0,.05,0,.07,0,0-.02,0-.03-.02-.05-.07-.11-.15-.21-.22-.31.13-.05.26-.13.39-.14.73-.02,1.47-.06,2.2-.03.64.03,1.27.16,1.9.22.55.05,1.1.04,1.64.06.46.02.92.04,1.37.04.43,0,.85-.05,1.28-.04.25,0,.5.11.74.1,1.12-.05,2.18.34,3.28.45.88.08,1.76.14,2.65.19.61.03,1.23.03,1.84.05.51.02.94.27,1.36.54.11.07.21.14.32.21.58.24,1.09.57,1.54.97.8.53,1.43,1.3,1.78,2.22.38.99.35,2.17-.35,3.02-.4.49-.94.77-1.52.98-.95.35-1.91.66-2.87.96-1.01.32-2.04.6-3.07.84-.91.21-1.84.32-2.73.57-.75.22-1.58.51-2.4.65-.24.09-.48.19-.72.3-.41.19-.9.21-1.35.29-1.41.25-2.82.01-4.23.04-.28,0-.54.02-.82.05-.59.07-1.19.05-1.79.06-.25,0-.5,0-.74,0-.81,0-1.61-.01-2.42-.02-.43,0-.86,0-1.28-.02-.5-.03-1.01-.06-1.51-.13-.35-.05-.68-.2-1.03-.28-.53-.11-1.07-.19-1.6-.28-.1-.02-.19-.07-.29-.09-.78-.15-1.56-.32-2.35-.44-1.11-.16-2.22-.29-3.34-.4-.78-.07-1.56-.05-2.34-.14-.88-.1-1.76-.16-2.62-.46-.81-.27-1.63-.56-2.52-.57-.3,0-.6-.22-.88-.36-.04-.02-.02-.16-.03-.27-.2.11-.35.01-.49-.15-.07-.08-.18-.12-.28-.16-.79-.28-1.55-.64-2.2-1.19-.16-.14-.34-.25-.5-.39-.46-.4-.65-.95-.76-1.51-.06-.3.13-.66.23-.98ZM51.22,51.94c-.08.15-.17.35-.3.41-.34.15-.7.28-1.07.35-.65.12-1.31.2-1.97.29-.24.03-.41.14-.6.29-.21.17-.56.16-.88.25.1-.14.16-.23.23-.31.04-.04.11-.1.14-.09.29.12.5-.05.73-.16.22-.1.45-.21.69-.29.55-.18,1.1-.35,1.64-.53.32-.11.64-.24.96-.35.09-.03.19-.06.27-.03.07.02.18.15.17.17ZM45.7,53.72c-.22.12-.44.23-.65.35-.49.27-.96.57-1.46.81-.32.15-.68.21-1.03.29-.31.07-.65.2-.95.14-.5-.11-.9.21-1.37.2-.54,0-1.09.09-1.63.14-.14.01-.27.05-.4.07,0-.02,0-.04,0-.06,1-.21,1.99-.4,2.99-.62.5-.11,1.01-.25,1.5-.41.49-.16.97-.35,1.46-.53.38-.14.76-.29,1.14-.42.12-.04.27,0,.41.04ZM33.72,55.85v.09c-.09,0-.18,0-.27.02-.57.08-1.13.19-1.7.22-.3.01-.6-.13-.9-.22-.09-.03-.17-.09-.26-.14,0-.04.01-.07.02-.11,1.04.05,2.08.09,3.11.14ZM2.1,72.85s-.08.12-.12.13c-.16.03-.27-.03-.25-.32.15.08.26.14.37.19ZM22.85,105.93c-.78,0-1.56,0-2.33-.02-.67-.02-1.34-.04-2-.1-.49-.04-.99-.12-1.48-.19-.85-.12-1.71-.25-2.56-.37-.4-.05-.8-.08-1.19-.13-.1-.01-.23-.02-.29-.08-.13-.15-.28-.16-.46-.18-.26-.03-.51-.13-.76-.19-.49-.13-.99-.25-1.48-.38-.29-.08-.57-.21-.86-.24-.26-.02-.5-.05-.72-.21-.03-.02-.14.05-.18.07-.15-.09-.26-.17-.38-.23-.11-.06-.24-.05-.25-.24,0-.08-.19-.14-.31-.22.04-.03.07-.06.11-.09-.02,0-.04-.02-.06-.02-.23-.01-.42-.19-.68-.1-.1.03-.28-.13-.41-.22-.15-.11-.32-.21-.34-.45,0-.07-.2-.14-.32-.2-.07-.04-.15-.05-.21-.1-.19-.15-.37-.31-.56-.47.02-.01.08-.04.19-.1-.14-.02-.22-.02-.29-.03,0-.06.02-.19.01-.19-.2-.03-.4-.04-.57-.06.12-.1.07-.23-.1-.34-.15-.1-.29-.21-.45-.33.19-.15.32-.21.56-.06.82.5,1.66.96,2.51,1.4.61.31,1.25.55,1.88.83.03.01.06.04.09.04.94.03,1.76.49,2.64.74.19.05.38.06.57.1.07.01.13.05.23.09-.11.08-.17.12-.24.17q.25.01.29-.19c.85.21,1.7.43,2.55.64l-.02.07c-.37.05-.77-.26-1.12.03,0,.03.02.06.03.09.08-.03.15-.06.17-.06.15.04.26.09.38.11.28.03.56.05.85.06.17,0,.34.04.49-.13.07-.08.29-.04.44-.02.29.04.57.11.86.15.37.05.74.09,1.1.14.17.02.34.05.5.11.09.03.16.13.27.21.14.03.33.07.52.11-.02-.25.16-.16.35-.14.48.05.96.05,1.43.12.53.07,1.06.18,1.59.29.17.03.24.16.2.34.33-.22.51-.19.7.15-.3,0-.59,0-.87,0ZM30.54,104.65c-.8.07-1.61.17-2.41.24-.41.04-.83,0-1.23.07-.66.1-1.29.03-1.94-.1-.61-.12-1.24-.16-1.86-.25-.28-.04-.56-.1-.84-.14-1-.15-2-.29-3-.43-.48-.07-.97-.1-1.45-.18-1.37-.24-2.73-.5-4.1-.73-1.3-.22-2.51-.68-3.7-1.22-.42-.19-.92-.21-1.35-.39-.7-.3-1.37-.66-2.03-1.04-.52-.3-.99-.67-1.49-1.01-.08-.06-.17-.09-.26-.14.08-.3-.21-.38-.36-.5-.33-.25-.71-.42-1.04-.67-.15-.11-.24-.32-.36-.48-.04-.05-.06-.13-.12-.16-.42-.24-.76-.57-1.02-.97-.16-.25-.39-.33-.67-.34-.13,0-.26-.07-.39-.1,0-.03,0-.06,0-.09.09-.05.18-.1.28-.14.18-.07.34-.12.26-.39-.05-.17.01-.37.02-.55,0-.12,0-.23,0-.38.03-.02.08-.07.14-.12-.03-.05-.04-.12-.08-.14-.29-.18-.27-.45-.24-.74.05-.62.08-1.25.11-1.87.03-.47.06-.95.08-1.42.03-.67.03-1.34.06-2.01.06-1.14.13-2.28.19-3.42.04-.66.08-1.33.09-1.99,0-.67-.04-1.34-.05-2.01,0-.65,0-1.3.03-1.95,0-.1.06-.19.06-.29.02-.25.02-.5.06-.74.06-.32.23-.64.2-.95-.04-.33.11-.64.04-.97-.04-.18.05-.39.09-.65-.21-.14-.12-.39-.04-.65.05-.17.04-.36.06-.54.06-.39.14-.78.18-1.17.02-.23-.03-.46-.04-.69-.02-.48-.02-.96-.04-1.43-.01-.32.04-.68-.09-.96-.18-.41-.07-.81-.12-1.21-.03-.26-.02-.53,0-.79.02-.19.1-.37.11-.56,0-.28-.04-.56-.07-.84,0-.09-.03-.17-.07-.25-.04-.19-.11-.37-.11-.56,0-.25-.03-.5.14-.74.09-.12.05-.35.03-.53-.04-.5-.15-.99-.12-1.48.02-.36-.14-.7-.05-1.04.1-.39.13-.79.16-1.2.04-.55.09-1.1.13-1.65.03-.39.04-.77.05-1.16,0-.23-.09-.49-.02-.7.15-.47-.05-.97.18-1.43.07-.14.02-.35,0-.52-.06-.4-.19-.79-.1-1.21.04-.2-.08-.43-.1-.65-.01-.13.02-.27.03-.41.02-.23.04-.46.07-.68.08-.62.15-1.24.26-1.85.04-.24.18-.47.3-.78.17.16.3.29.43.42.4.39.8.78,1.19,1.17.42.42.91.73,1.45.96,1.09.45,2.18.93,3.33,1.22.66.17,1.3.41,1.96.57.59.15,1.19.25,1.78.35.52.09,1.05.12,1.57.21.59.1,1.16.27,1.75.37.61.11,1.23.17,1.84.26.22.03.44.08.65.13.51.11,1.01.23,1.58.36-.08.05-.11.07-.17.12,3.24.69,6.48,1.11,9.78,1.02-.04-.05-.08-.1-.15-.19.08.01.13.01.16.03.38.26.8.17,1.21.15.75-.03,1.5-.11,2.26-.13.7-.01,1.4.05,2.1.05.37,0,.77-.17,1.11-.08.36.1.68-.05,1.02-.03.71.03,1.42-.07,2.12-.13.37-.03.73-.05,1.1-.1.37-.05.73-.15,1.1-.22.48-.1.97-.18,1.45-.31.6-.15,1.19-.34,1.79-.52.27-.08.54-.2.82-.27.99-.26,1.98-.52,2.98-.75.24-.06.51-.02.77-.02.05,0,.1-.02.17-.03-.04-.06-.07-.11-.11-.16.61-.2,1.21-.39,1.83-.59.04.36.07.66.11.96.03.26.08.51.1.77.03.29.04.59.05.88.02.37.04.75.04,1.12,0,.55-.04,1.1-.07,1.64-.02.43-.03.86-.05,1.28-.02.42-.04.84-.05,1.26-.02.73-.02,1.47-.04,2.2,0,.38,0,.75-.01,1.13,0,.05-.01.11,0,.15.22.67.08,1.36.15,2.04.04.43.04.85.07,1.28.07.96.15,1.92.23,2.87.04.5.09,1,.13,1.49,0,.02,0,.04,0,.05-.19.59.1,1.16.07,1.75,0,.22.09.44.15.66.04.16.09.32-.11.31.05.11.14.22.15.33.01.36-.02.73,0,1.1.01.28.08.56.1.85.02.25.02.51.03.77,0,.23,0,.45,0,.7-.1-.02-.17-.04-.24-.06,0,.01-.01.03-.02.04.1.05.19.09.29.14-.1.32-.07.63,0,1.01,0,0-.07.05-.12.1.06.27-.05.61.36.75-.28.06-.32.18-.28.42.05.31,0,.64.03.95.01.16.1.32.11.48,0,.18-.04.36-.07.54,0,.04-.05.09-.04.1.25.28.08.63.13.94.05.3.07.6.04.9-.04.34.23.71-.06.97.04.14.09.25.09.35,0,.67,0,1.33,0,2,0,.24.1.47.14.71.04.22-.07.39-.23.51-.15.1-.15.16,0,.26.08.05.15.17.17.26.07.32.1.66.17.98.05.22.06.41-.23.49.3.09.45.51.31.82-.08.18-.14.34-.1.56.03.16-.06.34-.09.52,0,.02-.03.05-.02.07.03.2.14.45.07.6-.09.18-.12.34-.1.51,0,.05.08.1.08.1-.04.27-.07.49-.1.72-.01.08,0,.16-.03.23-.12.36-.02.72-.04,1.07-.02.4-.11.82-.29,1.18-.2.41-.5.78-.81,1.12-.18.2-.46.34-.71.44-.55.22-1.12.39-1.66.61-.46.19-.91.42-1.36.62-.66.29-1.33.59-2,.86-.54.22-1.1.41-1.65.6-.65.22-1.31.41-1.94.66-.55.22-1.13.26-1.69.36-.97.18-1.97.26-2.93.49-.81.19-1.62.12-2.42.23-.34.05-.68.11-1.02.14-.16.02-.33-.04-.5-.03-.6.05-1.2.11-1.8.16-.6.05-1.19.07-1.79.13ZM36.42,105.94c-.33.26-.71.25-1-.03.36.01.66-.09,1,.03ZM55.37,96.93c-.1-.03-.18-.05-.28-.08.02.19.06.36.05.53,0,.3-.02.6-.07.88-.13.66-.27,1.33-.44,1.98-.06.26-.19.5-.29.76-.06.16-.09.32-.16.47-.21.44-.64.64-1.03.85-.95.53-1.99.84-3.03,1.1-.77.2-1.54.41-2.32.58-.39.08-.8.11-1.2.12-1.14.05-2.16.53-3.17.99-.16.07-.3.2-.43.32-.46.43-1.06.52-1.63.69-.5.16-1,.3-1.51.41-.33.07-.68.09-1.02.12-1.02.09-2.05.19-3.07.27-.28.02-.56.03-.84.02-.07,0-.14-.07-.23-.11-.02.21-.19.21-.38.18-.02,0-.04,0-.05,0-.33.15-.64-.04-.96-.07-.18-.02-.36.04-.53.03-.09,0-.18-.07-.27-.11,0-.03.02-.06.03-.09l1.87-.13s.01-.06.02-.09c-.18-.04-.36-.08-.61-.13.53-.32.99-.15,1.46-.07-.07-.04-.13-.08-.25-.15.1,0,.17-.02.19,0,.22.21.45.09.68.04.04,0,.09,0,.13-.01.13-.03.27-.07.4-.1-.02.23.15.36.4.24.26-.12.52-.15.82-.12.25.02.5-.05.75-.08.31-.04.64-.05.94-.12.27-.06.59,0,.8-.27.03-.04.1-.08.13-.07.26.1.39-.18.63-.18-.21-.22-.2-.42.02-.51.38-.15.78-.27,1.17-.41.2-.07.38-.2.59-.25.19-.04.31-.28.55-.17.04.02.12,0,.15-.03.23-.27.58-.32.86-.34.35-.03.66-.13.99-.2.17-.04.37.03.55.02.1,0,.24-.06.29-.13.19-.3.52-.32.79-.45.75-.37,1.53-.68,2.24-1.14.88-.57,1.78-1.11,2.68-1.65.19-.11.41-.18.62-.24.23-.08.36-.24.48-.44.17-.29.38-.56.58-.83.23-.32.23-.31-.06-.52.11-.24.23-.46.31-.7.05-.15.02-.29-.07-.45-.08-.14,0-.37.02-.55,0-.09.03-.18.05-.26.03-.15.13-.32.09-.45-.09-.28.02-.54.05-.8.02-.18.06-.36.13-.55,0,.04.01.08,0,.11,0,.04-.04.08-.03.11.02.04.07.07.05.12.01.11.02.22.04.33.08.37.27.68.57.93.14.11.2.31.3.46.05.08.12.15.24.21,0-.06,0-.13-.02-.23.06.08.09.13.17.25.06-.28.1-.5.14-.72.03,0,.05,0,.08.01.13.3-.11.56-.14.87Z"/>
      <path class="cls-1" d="M4.94,52.64c.07.51.14.99.2,1.48.03.27.04.54.06.82.04.76.12,1.52.1,2.27-.02.88-.15,1.76-.2,2.65-.02.36.02.73,0,1.1,0,.32-.05.64-.08.97.02.1.04.22.06.35.04.3.07.6.1.91-.01.07-.04.14-.04.22,0,.18-.08.42,0,.55.2.32-.08.56-.06.85.02.28-.08.57-.09.85-.02.28.01.55,0,.83,0,.07-.04.15-.03.21,0,.16-.04.35.03.49.13.27.04.53.02.8,0,.13-.02.25-.05.37-.04.22.03.46.05.7.01.11.05.22.04.33-.02.18.04.28.29.26-.33.3-.35.62-.29.97,0,.05-.07.12-.12.2.13.06.26.15.01.29.04.04.08.08.14.14-.1.05-.17.08-.24.12.09.05.19.1.29.15,0,.02-.01.04-.02.06h-.38s0,.02,0,.04c.11.04.23.08.31.11,0,.27,0,.51,0,.74,0,.06-.01.12-.01.18,0,.32.03.63.03.95,0,.29-.05.59-.06.88-.02.51-.02,1.02-.03,1.53,0,.36-.02.72-.01,1.07,0,.23.03.46.04.7,0,.1-.03.21-.08.31.12.18.21.36,0,.56-.02.02.08.16.14.26-.1.06-.29.16.02.24-.05.42-.28.82-.13,1.27-.25.23-.25.23.02.47-.3.16-.11.41-.11.62,0,.45.06.91.07,1.36,0,.21-.04.42-.05.63-.03.3-.05.6-.09.9,0,.03-.09.05-.17.08.34.08.12.32.14.48.03.26-.03.52-.04.78-.03.54-.04,1.09-.07,1.63-.01.24-.05.49-.04.73,0,.08.09.16.11.2-.03.13-.08.23-.07.32.07.67.16,1.33.23,2,.07.75.12,1.51.18,2.26.05.72.12,1.43.14,2.15.02.41.13.79.27,1.17.07.2.08.34-.18.4-.07.02-.12.16-.17.23,0,0-.05-.05-.09-.1-.02,0-.03.02-.05.02.04.43.08.86.11,1.27-.48,0-.57-.47-.8-.81-.16-.24-.34-.47-.49-.72-.1-.16-.16-.35-.24-.53.02-.02.04-.04.06-.05-.06.02-.13.04-.21.06,0-.03,0-.06.02-.07.09-.12.1-.23.08-.39-.02-.24.04-.48.08-.72.13-.84.02-1.67-.03-2.51-.02-.32.05-.65.04-.97-.03-1.54-.07-3.07-.09-4.61,0-.41.02-.81.04-1.22,0-.04.07-.08.09-.1v-.29s.04,0,.07,0c-.04-.06-.09-.11-.14-.18.06-.01.1-.02.17-.04-.06-.08-.1-.15-.15-.22.04-.03.12-.07.11-.1-.03-.14-.1-.28-.1-.41,0-.22.05-.45.07-.69,0,0-.04,0-.06,0,.02-.18.05-.37.05-.55,0-.39-.01-.78.01-1.17.03-.53.09-1.06.12-1.59.02-.41.02-.82.03-1.23.01-.62,0-1.25.05-1.86.09-1,.01-2.01.22-3.01.15-.73.13-1.5.15-2.25.03-1.07.02-2.14.02-3.2,0-.67-.01-1.33,0-2,0-.5.03-1,.03-1.5,0-.5,0-1,.02-1.5.02-.97.05-1.95.08-2.92.04-1.09.08-2.19.13-3.28.01-.27.07-.54.08-.81.03-.72.04-1.45.06-2.17,0-.48,0-.96,0-1.43,0-.18.1-.26.3-.3Z"/>
      <path class="cls-1" d="M50.06,58.72s.1.04.16.08c-.1.19-.08.34,0,.54.09.23,0,.52,0,.79-.01.4-.04.81-.04,1.21,0,.34.04.68.06,1.02,0,.11-.03.23-.02.34,0,.37,0,.73.03,1.1.02.23.08.46.13.69,0,.02.04.05.04.06-.2.53-.06,1.08-.08,1.62-.01.35.07.7.09,1.05,0,.16-.06.32-.09.47,0,.03,0,.07,0,.1.03.22.07.43.09.65.03.33.04.65.07.98.01.22.09.46.03.66-.07.21,0,.32.06.44,0,.17,0,.34,0,.5,0,.27-.01.54,0,.82,0,.39.04.78.05,1.17.02.9.04,1.8.07,2.7.01.52.03,1.03.06,1.55,0,.07.07.13.11.2-.1.13-.04.68.12.89-.19.03-.19.13-.15.3.04.18.02.38.05.57.01.09.05.18.09.3-.1.09.03.28,0,.37-.11.32.08.59.07.9-.02.34.1.69.14,1.04.01.08-.03.16-.03.25,0,.08.01.17.06.24-.01.11-.04.22-.04.33.02.35.04.7.07,1.05.01.13-.13.28.03.4,0,0-.06.11-.04.15.03.32.06.64.1.96.02.17.09.34.11.51.03.17.03.34.04.5,0,.09-.01.18.03.27-.02.1-.06.2-.06.3,0,.18.04.37.05.55.03.51.04,1.02.07,1.54.04.58.09,1.16.13,1.75.02.31,0,.63,0,.94,0,.11.04.22.04.32.01.21-.05.44.04.61.14.27.02.52.02.78,0,.29-.06.57-.05.86.01.27.07.54.15.79.13.41.17.78-.1,1.17-.26.38-.46.8-.66,1.22-.08.18-.12.39-.14.58-.02.15-.08.25-.21.23-.09-.01-.22-.12-.24-.21-.05-.22-.07-.46-.07-.69,0-.84,0-1.67.03-2.51.03-.91.12-1.81.14-2.72.02-.93,0-1.85-.02-2.78-.02-1.11-.09-2.21-.09-3.32,0-.99.09-1.98.08-2.97,0-.96-.08-1.91-.13-2.87-.01-.27,0-.55-.05-.82-.1-.63-.06-1.26-.14-1.89-.11-.81-.16-1.63-.24-2.45-.08-.85-.17-1.71-.27-2.56-.11-.99-.22-1.98-.33-2.97-.07-.66-.16-1.33-.2-1.99-.05-.72-.05-1.44-.07-2.16-.04-1.15-.09-2.29-.11-3.44-.02-1.33-.03-2.65-.03-3.98,0-.9.23-1.76.46-2.63.03-.1.2-.16.3-.24.04.08.1.16.11.25.07.73.13,1.45.19,2.18.03.4.06.79.09,1.19,0,.05-.06.1-.1.15Z"/>
      <path class="cls-1" d="M18.48,64.96s.04.08.06.12c.02.11-.33.08-.02.26-.11,0-.17.01-.23.02,0,.23.36.42,0,.67.14.03.23.05.32.07,0,.01,0,.02,0,.04h-.37c.08.07.19.16-.03.24.08.1.14.19.22.29-.24.13-.13.23.12.33-.14.05-.2.07-.32.12.08.06.14.1.16.12-.03.14-.05.27-.08.44-.29.06.03.31-.13.48.01,0-.05,0-.15,0,.07.22.21.45.2.66-.01.21.16.48-.13.63.16.09.15.19.04.3-.12.11.26.26-.05.33.07.14.28.23,0,.37-.15.07-.07.22.07.29-.33.34-.2.77-.23,1.15,0,.09.09.18.13.25-.03.15-.08.31-.08.47-.02.45-.03.89-.04,1.34,0,.15,0,.29-.04.4-.05.07-.13.13-.13.2,0,.11.06.22.1.32.05-.04.09-.07.14-.11-.06.03-.11.06-.16.08-.02.12-.04.24-.06.37.04.01.12.03.13.04-.01.21,0,.38-.03.55-.02.09-.09.18-.15.28.13.18.1.4.09.64-.03.56-.02,1.13-.02,1.7,0,.2-.01.41,0,.61,0,.14.03.28.04.42,0,.06,0,.13,0,.2,0,.09,0,.18,0,.33-.12.09-.17.23,0,.41-.23.13-.27.27-.02.42-.09.12-.17.23-.27.35.11.12.21.24.27.3-.07.35-.13.65-.17.86.03.2.08.33.08.47,0,.43-.01.85-.01,1.28,0,.12,0,.2-.14.26-.22.08-.26.3-.09.47.12.13.15.2-.01.32-.15.11-.15.56-.01.8-.04.03-.09.06-.16.11.11.09.22.17.27.21-.03.23-.06.43-.08.64,0,.06-.01.11-.01.17,0,.09,0,.18.05.27-.09.12-.16.23-.12.45.05.26-.06.54-.07.81,0,.41.05.81.01,1.21-.02.2-.07.4-.05.61.04.3.07.61.08.92,0,.19-.08.4-.05.58.04.22-.01.41-.05.61,0,.02-.02.03-.02.05.04.34.09.68.14,1.06-.11.13-.16.3-.08.55.05.15.06.38.02.59-.05.28.02.58.02.87,0,.09-.06.18-.08.24.03.2.1.4.09.59-.04.67.03,1.33.09,2,.02.27-.02.54-.02.81,0,.31.1.64.02.93-.06.24.21.5-.06.71-.02.01.03.1.05.17-.14.06-.29.13-.47.21.14.1.24.17.31.23-.1.24-.19.45-.3.71-.1.02-.18-.05-.23-.21-.07-.21-.18-.41-.25-.62-.04-.13-.05-.27-.07-.41-.01-.11-.06-.24-.02-.34.11-.3-.12-.66.13-.87v-1.57s-.04-.01-.08-.02c.03-.12.04-.25.09-.35.13-.31.07-.63.07-.94.01-.42-.03-.84-.05-1.25-.01-.29-.04-.59-.05-.88,0-.09,0-.17,0-.28-.02-.01-.06-.04-.11-.06.01-.03.02-.05.03-.07.04-.04.11-.09.11-.13,0-.14-.04-.28-.06-.42,0-.02-.02-.05-.02-.07.15-.76.03-1.53.04-2.3,0-.24.02-.48.02-.72,0-.03.01-.06,0-.08-.23-.57,0-1.14.01-1.7.02-1,.11-2,.19-2.99.05-.7.14-1.39.2-2.08.02-.22-.07-.45-.03-.66.17-.87.12-1.75.15-2.63.01-.35-.01-.69,0-1.04.02-.3.08-.6.11-.9,0-.05-.06-.1-.05-.14.01-.04.08-.07.04-.11-.01-.47-.02-.94-.03-1.42,0-.03.04-.08.03-.09-.22-.16-.05-.38-.08-.57-.04-.26-.05-.53-.05-.8,0-.09.08-.18.1-.24-.02-.12-.05-.22-.06-.33-.02-.32.13-.62-.01-.97-.1-.25,0-.58,0-.87.01-.21.06-.42.04-.63-.02-.29-.08-.58-.12-.87,0-.02-.01-.06,0-.07.24-.32.08-.68.1-1.01.05-.69.07-1.39.11-2.09.03-.53.07-1.05.11-1.58.03-.36.02-.74.12-1.08.08-.28.07-.55.05-.83,0-.06.08-.13.09-.2.01-.07,0-.15-.01-.23-.02-.15-.12-.36-.05-.43.21-.23,0-.44.02-.65.01-.16,0-.33,0-.49,0-.27.02-.54,0-.81-.04-.52-.08-1.03.01-1.55.06-.35.05-.72.1-1.08.01-.08.12-.14.14-.23.01-.08.03-.17.04-.25,0,0,0-.02,0-.02.07-.43.11-.86.22-1.28.09-.34.27-.65.42-.97.01-.03.12-.05.13-.04.05.06.11.14.11.21,0,.41,0,.82,0,1.22,0,.15.04.3.05.45.01.16.01.31.02.47,0,.07,0,.15.03.21.12.22.12.41.03.66-.12.35-.2.73-.21,1.11-.03.95-.02,1.91-.02,2.86,0,.29,0,.58,0,.87,0,.06-.07.12-.13.23Z"/>
      <path class="cls-1" d="M8.15,84.92h-.23c.01.19.03.36.04.53,0,.02.01.04,0,.05-.21.29-.09.62-.12.94-.03.41-.02.83-.03,1.24-.01.42-.04.85-.04,1.27,0,.42.04.83.07,1.25.03.46.04.93.08,1.39.03.3.1.59.13.89.07.61.14,1.23.17,1.85.02.35-.03.71-.04,1.06,0,.12.04.23.05.35.04.54.05,1.07.11,1.61.04.37.13.73.2,1.12-.23-.03-.43-.07-.63-.09-.12,0-.26,0-.37.03-.22.08-.38,0-.37-.22,0-.2.06-.39.08-.55-.02-.11-.07-.19-.05-.27.09-.36.08-.72.04-1.09-.03-.28.04-.56.06-.84.03-.39.05-.77-.02-1.16-.04-.22,0-.45.01-.67.03-.76.06-1.51.07-2.27,0-.2-.03-.4-.04-.61-.01-.38,0-.76-.04-1.13-.02-.23-.12-.45-.13-.68-.01-.42.02-.85.04-1.28,0-.02.06-.03.01-.05,0-.13-.05-.3.01-.39.17-.23.12-.46.11-.71-.02-.29.01-.59,0-.89-.03-.47.07-.93.11-1.4.06-.72.06-1.44.07-2.17,0-.15-.04-.3-.01-.45.02-.13.11-.26.17-.39-.25,0-.2-.23-.21-.41,0-.6,0-1.19.02-1.79.02-1.5.04-3,.07-4.5,0-.32.09-.63.11-.95.02-.34.02-.68.03-1.02,0-.07.03-.14.02-.21-.01-.13-.04-.26-.07-.44.12-.15.12-.35.01-.47,0-.36,0-.64,0-.92,0-.23-.03-.46-.02-.69,0-.46.09-.94,0-1.38-.07-.36.06-.68.04-1.03-.02-.33-.08-.68,0-.99.17-.65.03-1.3.09-1.95.02-.29.06-.57.06-.86,0-.29-.05-.58-.05-.86.02-1.4.06-2.8.09-4.19.02-.78.05-1.55.05-2.33,0-.38,0-.77-.07-1.15-.03-.18-.04-.32,0-.49.02-.09-.06-.21-.11-.35.12-.04.26-.08.43-.13.08.41.15.8.22,1.18,0,.05.02.1.04.15.07.3.17.61.22.91.05.33.07.67.1,1.01,0,.04.02.09,0,.13-.08.19-.02.33.11.41,0,.15,0,.27,0,.39,0,.09.03.17.04.25.04.72.08,1.43.1,2.15,0,.19-.05.39-.07.58,0,.08.02.16.04.31-.02.16-.05.41-.06.65-.02.49-.03.97-.04,1.46-.01.38-.03.76-.03,1.14,0,.33.07.65.04.98-.02.29,0,.58-.1.88-.11.34-.04.74-.05,1.11,0,.09-.02.18-.02.28-.03.87-.05,1.75-.09,2.62,0,.17-.11.34-.11.51,0,.32.1.66.01.95-.08.28-.09.55-.09.83,0,.08.02.16.03.23.02.16.05.32.05.48,0,.4-.03.8-.05,1.2,0,.14-.05.27-.08.41,0,.02-.03.03-.02.04.1.3-.06.57-.07.86-.01.18-.04.35-.04.53,0,.06.03.13.03.2,0,.09.02.2-.03.25-.24.31-.23.77.03,1.07.04.04.08.14.07.14-.3.24-.05.5-.02.74.04.39.09.77-.04,1.16-.04.13.03.29.02.43-.04.42-.16.85-.11,1.25.03.25-.16.45-.03.71.08.16-.04.42-.04.64-.01.3-.04.59-.1.88-.04.22.07.46.12.71Z"/>
      <path class="cls-1" d="M40.61,86.13c-.01-.07-.02-.14-.03-.21,0-.05,0-.1-.01-.14,0-.04-.04-.09-.03-.12.14-.51-.1-.98-.12-1.48-.04-.69-.1-1.37-.17-2.06-.04-.43-.12-.86-.17-1.29-.02-.17.03-.34.03-.52,0-.06-.07-.12-.1-.18.14-.17.12-.51.01-.69-.05-.09-.04-.22-.04-.34,0-.14.16-.28-.03-.41-.03-.02-.07-.11-.05-.13.14-.24-.12-.47-.03-.7.03-.07.04-.15.08-.26,0,0-.05-.04-.1-.07,0-.19.12-.35.06-.59-.11-.4-.09-.84-.12-1.27-.03-.54-.04-1.08-.05-1.62,0-.06.04-.13.06-.19-.05-.31-.14-.63-.15-.96-.06-1.14-.08-2.28-.13-3.42-.02-.44-.08-.88-.11-1.33-.05-.67-.11-1.34-.14-2.01-.01-.22.03-.44.05-.65,0-.03-.01-.08-.03-.09-.17-.08-.09-.26-.13-.34-.12-.21.14-.4-.02-.6-.02-.02.09-.18.04-.31-.04-.11-.05-.24-.05-.37,0-.04.08-.08.13-.13-.06-.02-.13-.05-.22-.08.16-.16.15-.29.01-.45-.14-.17-.12-.37-.08-.58.02-.09.15-.19-.02-.28.07-.09.13-.18.2-.27-.14-.02-.33-.04-.17-.3.02-.04-.03-.12-.06-.24.1.07.15.11.24.16.04-.12.1-.22.11-.32,0-.05-.05-.16-.08-.16-.08,0-.16.05-.28.09.04-1.25.07-2.5.11-3.77.32.04.4.32.51.56.16.36.31.73.44,1.1.09.28.1.59.23.84.2.39-.01.72-.04,1.08-.02.38-.04.75-.05,1.13-.01.36-.02.72-.02,1.09,0,.32,0,.65,0,.97,0,.5.02.99.04,1.49.04.93.1,1.86.13,2.8.02.55,0,1.1.03,1.66,0,.19.13.42.07.57-.08.19.23.33.01.5,0,0,.09.11.1.17.03.19.05.39.07.58.02.21.03.41.04.62.03.33.05.66.08,1,.03.27.07.54.1.81.05.33.11.67.15,1,.04.42.06.84.09,1.26.02.24.04.47.06.71.02.22.04.44.06.65,0,.02.03.06.02.07-.29.25.05.29.15.41-.07.09-.19.18-.2.27-.02.09.07.2.12.32-.21.23-.26.88-.04,1.16-.05.05-.1.11-.16.18.03.05.07.1.1.15-.15.17-.14.24.04.5-.13.08-.15.18-.15.35,0,.31.21.63-.02.94-.04.05.04.18.05.28.03.39.06.79.09,1.18.03.35.07.69.11,1.04.02.13.05.25.07.38,0,.17,0,.32.02.47,0,.05.02.1.04.15.02.05.05.1.05.15.01.22.01.44.03.66.02.23.06.46.09.68.02.15.06.3.07.44.01.19,0,.38-.03.57.12.13.11.27.07.46-.05.24,0,.51,0,.76q-.29,0-.31.19c.15.02.29.04.44.06-.04.07-.07.14-.12.22.03.07.08.17.12.27.03.08.03.16.05.24l-.08.04c.09.1.18.19.28.29-.15.01-.17.08-.14.26.08.51.12,1.03.17,1.55.07.64.13,1.29.19,1.93.03.38.03.77.06,1.16.03.31.14.61.13.92,0,.37.27.73.05,1.11-.03.05.05.17.09.3-.02.03-.07.11-.13.21.07.02.12.04.17.05.05.53.07,1.06.34,1.54-.31.08-.56-.03-.63-.34-.12-.55-.2-1.11-.29-1.67-.1-.6-.21-1.2-.31-1.8-.07-.42-.06-.86-.18-1.27-.09-.32,0-.65-.15-.98-.1-.22-.02-.52-.05-.78-.11-.96-.24-1.91-.35-2.87-.04-.35-.03-.7-.05-1.05-.01-.16-.06-.31-.07-.47-.02-.17,0-.34-.02-.51-.06-.51-.13-1.02-.18-1.53-.02-.18,0-.37,0-.55,0,0,0,0-.01,0Z"/>
      <path class="cls-1" d="M12.36,96.18c.11.05.19.09.22.1.02.21.01.39.07.55.08.21.16.39.05.61-.01.03.03.08.04.12.02.07.04.14.05.21,0,.1,0,.21-.02.31-.01.05-.07.1-.1.14.06.25.28.48.13.79-.02.04.06.12.1.2-.06.02-.11.03-.2.06.06.13.12.25.17.37-.06.13-.09.3-.2.41-.07.07-.23.04-.28.05-.08-.14-.14-.22-.17-.31-.08-.24-.21-.48-.22-.72-.02-.43.04-.86.05-1.29,0-.15-.02-.32-.07-.46-.11-.27-.07-.53-.07-.81,0-.42-.05-.85-.06-1.27-.01-.4.02-.81,0-1.21-.02-.35-.03-.7,0-1.05.01-.12-.03-.29,0-.44,0-.03,0-.08-.01-.1-.3-.22-.16-.56-.2-.84-.07-.53-.09-1.07-.11-1.61-.01-.49,0-.98.03-1.46.02-.4.07-.8.09-1.2.02-.26.04-.51.19-.73.04-.06,0-.18,0-.29-.04-.01-.11-.04-.18-.06.18-.42-.03-.83-.01-1.24.02-.57.01-1.15.03-1.73.01-.5.05-1,.06-1.49.02-.78.01-1.57.03-2.35.01-.63.03-1.26.05-1.88.03-.79.07-1.57.08-2.36,0-.48-.07-.95-.07-1.43,0-.79.03-1.58.02-2.37,0-.64-.06-1.29-.08-1.93,0-.31,0-.61.02-.92,0-.07.05-.14.09-.24-.03-.03-.08-.08-.15-.14.06-.03.11-.06.1-.05-.03-.26-.12-.5-.07-.72.1-.45,0-.88.02-1.32.02-.66.03-1.32.05-1.97.02-.89.03-1.77.06-2.66,0-.09.07-.17.06-.25-.01-.08-.03-.17-.04-.25-.02-.12-.03-.24-.05-.36,0-.02-.03-.06-.02-.07.16-.29.04-.6.07-.9.05-.43.11-.87.14-1.3.05-.7.23-1.36.48-2.01.02-.05,0-.11,0-.17,0-.17,0-.33,0-.58.13.09.23.13.24.18.04.28.06.55.08.83.02.26.03.52.05.77.01.19.02.38.04.66.03.11.09.31.16.54-.05.03-.14.09-.17.12v1.77c-.17.02-.25.15-.14.37.01.02,0,.07-.02.1-.2.4-.02.81-.07,1.22-.02.17.02.35.02.53,0,.05-.07.11-.12.17.24.24.06.52,0,.76-.05.19.01.32.09.42.14.18.03.28-.06.42-.03.06-.05.19-.03.2.15.09.11.18.08.32-.06.29-.1.59-.1.88,0,.58.05,1.15.08,1.73.01.24.02.47.01.71,0,.08-.07.15-.09.23-.02.07-.04.17-.01.23.12.19.14.38.04.49.03.17.05.26.05.36.02.4.04.79.06,1.19.01.2-.07.38.13.58.21.21.03.48-.34.6.11.08.21.15.33.23-.24.12-.25.17-.02.37-.09.05-.17.1-.27.16.06.05.11.1.16.15-.08.02-.18.05-.29.08.13.06.24.11.4.18-.1.09-.17.16-.27.25.11.06.2.11.3.17,0,.01,0,.03,0,.04h-.43c.15.11.28.2.42.31-.12,0-.23.02-.33.03,0,.02-.01.04-.02.06.15.06.3.12.49.19-.2.13-.4.25-.59.37,0,.01,0,.02,0,.03.17-.04.34-.08.52-.12-.05.33-.13.66-.13,1,0,.35.06.71.1,1.08-.19.05-.3.12-.13.3-.08-.02-.15-.04-.22-.05,0,.07.02.14.03.22-.04.01-.09.03-.15.04,0,.02-.01.05-.02.07.11.04.22.07.32.11,0,.03,0,.05-.01.06-.35.28-.36.39-.19.81.03.08-.08.22-.14.36.1.18.09.44-.04.53.15.22.1.63-.1.83.09.09.17.19.28.31-.03.08-.35.25,0,.28-.01.13-.01.24-.04.35-.03.16-.13.32.02.48.02.03-.12.19-.21.33.12.06.25.13.39.2-.05.03-.13.05-.18.1-.05.06-.06.14-.08.22-.01.08-.01.17-.01.28.03.01.13.04.24.08-.06.04-.12.08-.24.16.2.03.34.05.54.07-.12.28-.28.52-.31.78-.05.37-.02.76-.02,1.14,0,.07.01.16-.02.22-.09.17-.22.32-.29.49-.03.08.06.2.1.31.03,0,.06,0,.08,0-.09.08-.18.16-.29.26.04.03.09.06.11.1.04.05.09.14.07.17-.17.27-.08.57-.12.85-.03.22-.08.37.05.46-.01.23-.02.42-.04.6,0,.07-.05.13-.09.23.05.03.12.08.16.1,0,.04.02.05.01.05-.24.19-.13.44-.12.68.02.46.01.92.06,1.38.07.7.16,1.4.25,2.11.1.75.13,1.51.02,2.26-.07.45-.13.9-.2,1.36Z"/>
      <path class="cls-1" d="M45.74,84.7c.18-.1.18-.33-.05-.64.02-.12.07-.23.06-.33-.02-.21-.06-.42-.11-.73.2-.25.06-.65.06-1.03,0-.35.02-.71.02-1.06,0-.11-.04-.23-.01-.33.02-.1.09-.18.16-.29-.03-.02-.08-.06-.13-.09.02-.09.08-.2.04-.25-.09-.16-.06-.3-.03-.47.03-.14-.03-.29-.07-.43.02-.18.05-.37.08-.57-.03-.01-.08-.03-.16-.05.07-.04.11-.06.14-.08-.03-.14-.06-.27-.09-.4.05,0,.11,0,.24-.02-.17-.08-.28-.13-.45-.21.15-.01.22-.02.34-.02-.07-.05-.12-.09-.19-.14.06-.02.11-.04.17-.06-.41-.32-.4-.72-.28-1.18,0,0-.04-.03-.09-.06.06-.04.1-.06.15-.09-.16-.11-.25-.23-.01-.3-.03-.06-.07-.12-.09-.18-.11-.34-.07-.67-.02-1.01.01-.09-.02-.18-.01-.28-.05-.35-.23-.66-.17-1.05.05-.35,0-.71-.02-1.07,0-.27-.02-.55-.03-.82,0-.16-.03-.32-.04-.48-.01-.22-.02-.44-.03-.66-.04-.85-.08-1.69-.13-2.54-.02-.27-.08-.54-.09-.81-.01-.31.03-.62.02-.92,0-.48-.02-.96-.06-1.43-.1-1.08-.29-2.16-.24-3.25.02-.6,0-1.19-.01-1.79,0-.37.01-.74,0-1.1-.01-.38-.04-.77-.08-1.15-.02-.18-.11-.36-.1-.54,0-.16.1-.31.19-.53.09.09.21.16.27.27.31.64.62,1.27.74,1.98.13.73.11,1.47.1,2.21,0,.16-.12.32-.13.48-.02.25.01.5.02.75.01.35.02.7.03,1.05,0,.36.02.72.02,1.09,0,.34-.02.69,0,1.03.01.35.06.69.09,1.03,0,.04-.02.09-.02.14-.01.07-.05.15-.04.21.13.54.06,1.08.06,1.63,0,.17.04.34.06.52.04.45.09.91.13,1.36.02.32,0,.65.03.97.02.29.06.58.09.88.03.39.05.79.1,1.19.02.18.08.36.12.55.01.05.04.1.04.14,0,.52-.02,1.04,0,1.55.01.28.14.56.17.85.03.26,0,.54-.02.8-.02.17-.08.34-.12.5,0,0-.01.02,0,.02.26.19,0,.48.12.69.07.13.16.25.25.39-.25.12-.28.34-.16.6-.1.06-.17.11-.27.18.1.07.17.12.25.17-.02,0-.04,0-.06.01.01.11.03.22.04.33,0,.18,0,.37,0,.55,0,.1,0,.19,0,.34.04.02.12.06.25.13-.31.01-.22.26-.3.39-.15.24-.06.35.14.48-.23.26-.17.57-.17.87,0,.21.03.42.05.64,0,.02.02.04.01.05-.23.22.03.43.02.65-.02.25-.02.49-.03.74,0,.32-.02.63-.02.95,0,.18.03.36.04.55,0,.23,0,.46-.02.69-.01.22-.05.44-.06.66-.02.32-.04.63-.05.95,0,.13.03.26.05.39.03.37.06.74.08,1.11.02.34,0,.69.02,1.03.02.32.1.64.12.96.02.34.02.69.01,1.04,0,.07-.09.13-.11.16.06.13.16.25.17.37.04.29.02.59.06.87.05.33.06.65.06.98,0,.32-.03.64,0,.96.03.25.13.48.19.73.01.05.02.09.02.14,0,.31-.03.62,0,.92.02.17.14.34.21.51.12.26.24.53.39.87-.25-.05-.45-.09-.69-.14-.17.22-.62.12-.75-.24-.05-.14.01-.33-.04-.47-.07-.2-.01-.39-.02-.59,0-.21,0-.42,0-.65h-.15c-.06-.17.38-.28.09-.46.04-.15.11-.3.1-.44-.01-.19-.09-.37-.14-.58,0,0,.07-.04.07-.08-.02-.45-.1-.9-.05-1.34.11-1.06-.23-2.08-.2-3.13.02-.69-.03-1.39-.05-2.08,0-.49,0-.98-.01-1.46,0-.5,0-1,0-1.49,0-.19-.05-.37-.05-.56,0-.18.02-.36.03-.54,0-.15,0-.3,0-.51Z"/>
      <path class="cls-1" d="M24.07,62.01c.33-.1-.2-.49.23-.58-.08-.02-.16-.04-.31-.07.13-.12.23-.2.32-.3.06-.06.11-.14.16-.21-.07-.04-.15-.09-.24-.14,0-.19-.1-.44.19-.6-.07,0-.15.01-.17.02-.04-.17-.1-.32-.11-.48,0-.07.07-.15.12-.24-.02-.01-.08-.05-.16-.09.07-.04.12-.06.2-.1-.07-.06-.13-.11-.2-.17.06-.03.11-.05.17-.09-.05-.07-.09-.13-.14-.2.04-.01.07-.03.1-.04-.01-.16-.02-.32-.04-.53.17-.21.2-.43.04-.69.13-.05.25-.1.41-.17.13.5.29.97.37,1.45.04.26.08.52.18.77.02.04-.08.12-.09.14.03.16.07.28.08.41.04.5,0,1.01.12,1.49.06.23-.1.41.01.62.1.19.11.4.05.63-.04.14.07.32.1.49.04.26.06.52.08.78.09.79.19,1.58.26,2.37.03.36.02.73.03,1.1,0,.06.02.11.03.17.02.16.03.31-.19.3.07.09.16.18.19.28.02.05-.07.14-.1.18.02.24.05.45.07.63-.03.12-.06.21-.09.36,0,0-.06.02-.11.04.1.08.19.16.3.25-.11.08-.17.13-.24.18.13.16.13.32.08.57-.02.07.06.17.1.25.09.16.12.3-.01.37.05.21.11.38.12.56.02.54.04,1.09.02,1.63-.02.63-.09,1.25-.12,1.88-.02.4,0,.8,0,1.23-.26.15-.26.17-.02.55-.02.02-.04.05-.07.06-.03.01-.07.01-.07.01-.09-.18-.19-.33-.26-.5-.03-.08-.07-.19-.04-.25.11-.18.09-.35.03-.53-.01-.03-.02-.07-.01-.1.03-.34.08-.69.11-1.03,0-.11-.02-.22-.03-.33,0-.23,0-.47,0-.7,0-.05,0-.1,0-.15-.02-.3-.05-.59-.07-.89-.03-.38-.09-.76-.1-1.14,0-.29.05-.58.08-.88,0-.02.02-.03.02-.05-.03-.29-.06-.58-.08-.85.08-.15.15-.29.23-.43-.13-.06-.26-.12-.4-.18.04-.06.09-.13.15-.2q-.2-.12.04-.46c-.08-.03-.16-.05-.18-.05-.03-.17-.06-.3-.07-.43-.02-.27-.02-.54-.05-.8-.03-.3-.09-.59-.14-.89-.04-.25-.1-.51-.15-.76-.03-.17,0-.36-.07-.51-.17-.32-.02-.77-.44-.99.21-.22.43-.42.33-.75-.03-.11-.09-.23-.17-.31-.2-.23-.2-.26.11-.41-.13,0-.2,0-.34-.02.11-.13.19-.24.31-.38,0-.05.01-.17.02-.39-.08.1-.15.14-.18.21-.05.14-.1.22-.27.09Z"/>
      <path class="cls-1" d="M25.4,79.22c.06.12.16.24.16.36,0,.72-.04,1.44-.06,2.16,0,.09.02.19,0,.28,0,.07-.05.13-.08.19-.05-.05-.15-.1-.15-.16-.02-.23-.02-.46-.02-.69,0-.7,0-1.41,0-2.11.05-.01.09-.02.14-.04Z"/>
      <path class="cls-1" d="M25.79,78.65c-.16.05-.32.11-.53.17.08-.11.16-.19.18-.27.01-.07-.06-.15-.1-.25.12-.03.26-.16.39.05-.07.06-.13.12-.22.21.13.01.21.02.29.03,0,.02,0,.03,0,.05Z"/>
      <path class="cls-1" d="M42.94,100.93q-.49-.2-.37-.32c.15.09.29.17.44.25l-.07.06Z"/>
      <path class="cls-1" d="M42.88,100.42c-.2.03-.39.06-.5-.17.01-.03.02-.06.03-.09.16.06.32.12.49.18,0,.02-.01.05-.02.07Z"/>
      <path class="cls-1" d="M13.7,104.24c-.07,0-.14.04-.2.03-.3-.08-.59-.17-.88-.27-.05-.02-.08-.08-.13-.11.05-.03.12-.09.16-.08.26.07.51.16.76.25.1.03.2.08.29.12v.07Z"/>
      <path class="cls-1" d="M16.77,104.92c.33.02.66.04.99.06,0,.03,0,.05,0,.08l-.99-.07s0-.04,0-.07Z"/>
    </g>
  </g>
</svg>