<?xml version="1.0" encoding="UTF-8"?>
<svg id="Layer_2" data-name="Layer 2" xmlns="http://www.w3.org/2000/svg" viewBox="0 0 77.6 90.54">
  <defs>
    <style>
      .cls-1 {
        fill: #000;
        stroke-width: 0px;
      }
    </style>
  </defs>
  <g id="illustrations">
    <g>
      <path class="cls-1" d="M77.53,35.44c-.35-.82-.66-1.64-.81-2.53-.24-1.39-1.07-2.42-2.22-3.18-.47-.31-1.01-.52-1.54-.72-.89-.34-1.71-.91-2.72-.89-.08,0-.17-.06-.23-.12-.26-.26-.58-.28-.92-.29-1.2-.03-2.4-.1-3.59-.11-.43,0-.91-.08-1.27.27-.19.19-.37.22-.6.04-.22-.16-.77-.04-.91.14-.08.11-.19.22-.31.27-.59.28-1.19.53-1.78.81-.27.13-.52.3-.83.48-.04-.2-.1-.32-.09-.44.08-.81.16-1.62.26-2.43.09-.77.22-1.54.32-2.31.11-.87.22-1.74.32-2.61.04-.35.15-.75.03-1.04-.13-.31-.03-.44.16-.56.51-.32,1.05-.57,1.67-.63.27-.03.59-.06.8-.21.64-.47,1.43-.74,1.9-1.43.19-.27.44-.49.66-.73-.38-.19-.38-.19-.04-.48.2-.17.27-.31.02-.52-.21-.17-.39-.39-.57-.6-.36-.42-.33-.52.11-.8.06-.04.13-.13.12-.2,0-.07-.08-.16-.14-.19-.29-.12-.57-.17-.89-.01-.11.06-.32-.03-.46-.08-.16-.07-.28-.22-.44-.26-.38-.1-.78-.12-1.05-.46-.04-.05-.21-.03-.29.01-.38.19-.73.33-1.08-.08-.1-.11-.33-.11-.5-.17-.23-.08-.45-.14-.5-.45-.02-.15-.16-.36-.29-.42-.73-.31-1.46-.62-2.21-.85-.42-.13-.9-.05-1.15-.53-.02-.03-.06-.06-.09-.06-.38.04-.5-.23-.57-.47-.31-.01-.61.04-.85-.05-.48-.18-1.06-.21-1.35-.75-.02-.03-.06-.04-.1-.06-.63-.27-1.26-.54-1.89-.8-.28-.12-.56-.21-.84-.33-.39-.17-.76-.41-1.23-.27-.12.04-.31-.08-.45-.16-.4-.21-.78-.45-1.18-.66-.25-.13-.52-.22-.82-.34.14-.13.23-.21.28-.27-.34-.16-.68-.27-.94-.47-.33-.25-.62-.49-1.07-.42-.09.01-.24-.03-.27-.1-.25-.48-.98-.36-1.13-.95,0-.03-.09-.05-.13-.06-.5-.03-.99-.07-1.19-.65-.01-.03-.09-.03-.14-.05-.29-.16-.57-.32-.85-.49-.06-.04-.07-.14-.1-.22.19.01.32.09.46.16.5.25.9.73,1.53.69.3-.02.59-.03.87-.05,0-.01-.03-.07-.07-.14.12-.02.22-.03.31-.04-.07-.09-.12-.16-.2-.26.19-.09.36-.17.55-.26-.21-.57.27-.9.49-1.33.33-.64.38-1.09-.39-1.34-.34-.12-.63-.35-1.02-.41-.35-.06-.66-.34-1-.5-.07-.03-.16-.04-.25-.04-.06.03-.11.07-.17.09-.56.16-1.14.24-1.72.26-.2.08-.39.17-.59.23-.24.08-.46.17-.43.49,0,.08-.05.16-.08.24l-.14-.1c-.02-.29-.02-.59-.04-.88-.42-.03-.83-.09-1.24-.16-.04.36-.09.71-.14,1.09-.11-.04-.14-.04-.15-.06-.26-.32-.85-.56-1.15-.43-.18.08-.45.24-.45.37,0,.21-.14.36-.16.53-.08.63.68,1.82,1.36,2.08.4.16.47.43.46.77,0,.33-.22.49-.51.59-.19.06-.38.14-.57.22-.3.12-.37.32-.12.51.31.23.66.41,1.02.57.28.12.6.18.9.26.23.06.45.13.68.18.25.05.5.06.79.09.07-.34.26-.24.46,0,.06.07.13.12.19.15.22-.13.44-.24.67-.33,0,0,.01-.01.02-.01.07-.03.13-.05.19-.05,1.48-.48,3.08-.04,4.31.98,1.7,1.41,3.76,1.98,5.77,2.82,2.36.98,4.68,2.08,7.04,3.06,1.4.58,3.34.78,4.37,2,.4.48.23,1.09-.35,1.31-1.13.44-2.34.14-3.49.42-.1.02-.2.05-.3.08.4.09.8.17,1.21.26,0,.06-.02.11-.03.17-.41-.03-.81-.06-1.22-.08h0c-.13-.07-.26-.14-.39-.21-.07.02-.14.05-.21.07.2.04.39.09.59.14-.23.04-.46.08-.7.1-.03,0-.06-.1-.09-.17-.5.18-.99.35-1.51.43-.11.06-.22.13-.32.19-.27-.06-.5-.12-.77-.18.04.19.05.28.08.4-.84-.33-.86-.33-1.33.04.25.22.54.23.83.15.28-.07.39.08.53.26-.52-.08-1-.15-1.51-.22-.03.04-.08.07-.12.11.02.02.03.03.05.06-.04,0-.08,0-.11,0-.02.01-.03.03-.05.05-1.71,1.03-3.53.66-5.42.68-.98,0-1.85.36-2.79.59-.95.24-1.86.21-2.83.21-1.81,0-3.68.14-5.37-.59-.83-.36-1.59-.88-2.45-1.16-.96-.3-1.97-.3-2.95-.18-1.83.21-3.63.73-5.49.63-.78-.04-1.53-.2-2.22-.56-.68-.35-1.24-.89-1.91-1.26-1.74-.97-4.6.44-6.03-1.21-.72-.83-.31-1.85.6-2.28.48-.23,1.05-.34,1.62-.37,0-.16.14-.18.53-.26.5-.11,1.08.04,1.47-.44.03-.03.12-.02.18-.03.17-.02.35-.04.52-.08.39-.09.77-.18,1.16-.28.05-.01.08-.05.13-.07.28-.13.55-.29.84-.37.41-.12.85-.16,1.26-.29.6-.2,1.18-.45,1.77-.68.28-.11.56-.21.84-.33.21-.09.41-.18.62-.28.38-.17.77-.32,1.12-.53.66-.4,1.21-.94,2-1.14.97-.24,1.87-.67,2.62-1.41-.25-.37-.62.16-.93-.18.14-.07.27-.15.41-.22-.03-.03-.05-.07-.08-.1-.7.15-1.42.14-2.04.63-.57.46-1.23.82-1.84,1.23.02.03.04.06.05.09.22-.05.45-.1.67-.14-.23.17-.47.3-.7.44-.56.33-1.07.78-1.67.98-1.07.36-2.08.89-3.21,1.13-.89.19-1.74.58-2.63.81-.46.12-.97.05-1.43.16-.63.14-1.25.36-1.86.56-.09.03-.16.14-.21.23-.12.19-.23.24-.42.08-.23-.2-.32-.13-.42.16-.05.17-.2.38-.35.44-.42.17-.86.28-1.3.41-.33.1-.67.19-.59.67-.18-.09-.31-.16-.45-.22-.06.26-.07.48-.16.67-.25.57-.15.85.38,1.17.32.19.58.47.85.73.47.45.89.95,1.52,1.19.4.15.84.25,1.2.48.26.17.51.47.61.77.15.47.2.97.25,1.47.08.88.52,1.68.48,2.61-.02.58.35,1.18.56,1.76.03.08.16.13.24.2.03-.11.11-.22.09-.32-.05-.23-.19-.45-.21-.69-.09-.9-.15-1.8-.23-2.69-.05-.61-.1-1.21-.17-1.81-.02-.15-.14-.28-.2-.4.02-.06.08-.15.07-.24-.09-.64-.07-.68.55-.74.1-.01.21-.02.3-.07.31-.18.55-.06.79.14.56.45,1.12.89,1.68,1.33.81.65,1.71.94,2.75.87.76-.06,1.53-.03,2.3-.03.4,0,.53.24.39.59-.09.22,0,.5-.16.72-.02.02.07.12.11.18.05.08.11.16.17.26-.14.04-.24.08-.35.11,0,.7-.01,1.38.01,2.06,0,.12.15.35.21.34.22-.02.45-.09.62-.21.05-.04-.08-.33-.13-.5,0-.04-.02-.07-.02-.1.13-.18.26-.35.35-.48-.05-.41-.38-.7-.41-1.09.03-.02.07-.03.1-.05.07.05.14.11.23.19-.01-.19-.02-.32-.03-.47-.12.02-.21.03-.3.05-.03-.03-.05-.06-.08-.09.12-.16.24-.32.39-.51-.08-.15-.2-.36-.33-.6.12-.09.25-.19.38-.28-.06-.14-.06-.34,0-.36.56-.23,1.15-.35,1.73-.32-.02.33-.03.62-.05.9-.02.25,0,.51-.06.76-.08.34.09.48.39.61-.02-.19,0-.36-.06-.49-.17-.38.06-.66.17-.98.06-.15.07-.33.1-.49,0-.07.05-.16.13-.22.1-.08.2-.2.31-.21.35-.03.71-.04,1.07-.02.29,0,.66-.04.85.11.24.2.5.2.74.3.45.2,1.03.17,1.34.67.03.06.15.07.18.12.16.24.58.26.56.66-.03.58-.06,1.17-.09,1.75-.01.27.04.54-.03.79-.17.71-.06,1.36.28,1.99.04.07-.03.19-.05.29.09.13.17.29.13.4-.22.58-.32,1.16-.17,1.79.08.32.16.68.08.98-.07.29-.27.52-.06.83.06.09,0,.27-.02.41,0,.07-.05.18-.02.22.28.35.03.55-.19.73.08.13.2.24.21.36.03.57.06,1.14.05,1.71-.02.82-.04,1.64.12,2.45.03.17.11.33.17.48-.08.08-.23.17-.23.26.03.46.1.92.16,1.44-.14.11-.34.27-.11.54.02.03-.02.14-.06.17-.26.17-.19.36-.1.59.08.21.09.45.12.67.03.2.07.39.1.59.01.1.02.19.01.29-.02.56-.12,1.13-.04,1.67.04.24,0,.4-.04.61-.03.22.03.46.05.69.01.1.05.21.03.31-.06.34-.14.68-.2,1.02,0,.05.03.13.07.17.42.39.3.85.17,1.32-.04.13-.08.28-.07.41.03.36.38.69.09,1.07,0,.01.02.05.02.07.06.37.14.75.16,1.12.02.38-.03.76-.03,1.14,0,.34-.01.68.02,1.02.04.44.02.91.19,1.29.12.25.12.4-.02.56-.18.21-.13.38,0,.59.11.18.32.47.27.54-.24.3-.1.61-.09.9.02.85-.15,1.69-.02,2.55.12.8.05,1.62.07,2.44,0,.22,0,.45,0,.7.08.07.19.16.37.31-.2-.04-.3-.06-.45-.09.02.24.03.44.05.65.08.88.21,1.76.23,2.65.03.99-.07,1.97-.06,2.96,0,1.21.12,2.42,0,3.64-.09.99.04,2.01.11,3.01.07,1.03.17,2.05.27,3.08.03.28.13.56.13.84,0,.29-.08.59-.07.89.02.52.02,1.06.13,1.57.11.54.19,1.02-.11,1.54-.14.24-.13.61.17.85.06-.07.1-.11.17-.19.03.12.04.2.06.28.04,0,.08.02.12.02.25-.38-.24-.99.27-1.26-.05-.12-.11-.21-.12-.31-.03-.38-.06-.76-.05-1.14.01-.7.05-1.41.08-2.11.01-.26.06-.53.06-.79,0-.65-.02-1.31-.04-1.96-.01-.5.03-1.01-.08-1.49-.15-.62-.49-1.2-.43-1.88.04-.48.01-.97.04-1.45.03-.5.17-1-.08-1.49-.04-.08-.06-.17-.06-.26.01-.71.05-1.41.04-2.12-.01-.63-.08-1.26-.12-1.89,0-.06-.02-.13,0-.19.19-.55-.1-1.12.1-1.71.15-.43-.09-.99-.11-1.49-.04-.78-.04-1.57-.06-2.36,0-.1-.01-.19-.04-.29-.04-.19-.13-.38-.13-.58,0-.34.08-.68.09-1.02,0-.18-.05-.36-.06-.54-.02-.69-.03-1.39-.03-2.08,0-.6,0-1.19,0-1.79,0-.44.12-.94-.04-1.32-.17-.42-.05-.79-.08-1.18-.04-.4-.01-.81-.09-1.2-.08-.42-.22-.81.27-1.03-.06-.27-.11-.5-.17-.74-.02-.22-.06-.42-.09-.62,0-.06-.03-.16,0-.17.27-.16.05-.33.02-.49-.04-.22-.08-.44-.09-.67,0-.19.06-.38.06-.56,0-1.16-.03-2.32-.04-3.48,0-.65.06-1.3,0-1.94-.13-1.54-.29-3.07-.48-4.61-.1-.87-.3-1.74,0-2.62.27-.79.37-1.6.34-2.44-.04-.99-.02-1.99.04-2.99.06-1.07-.02-2.12-.12-3.18-.08-.84-.18-1.68-.28-2.54.11,0,.17-.02.23-.01,1.2.13,2.41.27,3.61.41.07,0,.17.06.2.12.09.21.23.28.44.19.23-.1.29.03.27.21-.04.29.09.62-.22.85-.04.03-.03.14-.03.22.02.3.09.61.06.91-.03.31.11.37.31.41.12-.87.21-1.72.35-2.56.03-.17.21-.39.38-.45.36-.14.82-.09,1.13-.29.45-.28.89-.1,1.41-.26-.26.36-.13.69.08.74.42.1.36.37.38.65,0,.14.04.29.07.43-.03-.01-.06-.02-.1-.04-.07.16-.19.32-.2.49-.05.71-.06,1.43-.08,2.14,0,.3.11.68-.03.87-.22.27-.19.55-.2.82-.08,1.31-.23,2.62.11,3.92,0,.04.02.08.01.11-.04.41-.07.82-.11,1.23-.03.22-.08.44-.12.67.1.39.2.79.16,1.19-.03.35-.22.69.26.94-.37.17-.53.39-.37.7.05.09.24.11.44.2-.01.05-.05.17-.08.29-.07.33-.19.67-.2,1.01-.01.38.12.75.12,1.13,0,1.04-.02,2.07-.05,3.11-.03.88-.09,1.75-.11,2.63-.02.67.02,1.34,0,2.01-.01.94-.06,1.89-.07,2.83,0,.66.04,1.31.03,1.97,0,.4-.09.79-.1,1.18-.05,1.35-.06,2.71.18,4.05.06.35.07.73.42.99.18.14.13.26-.1.42-.07-.12-.13-.24-.2-.36-.04.02-.08.04-.12.06.07.21.22.43.21.63-.04.78.17,1.56-.07,2.34-.11.35-.07.76-.05,1.14.05.98.19,1.95.1,2.93,0,.08.05.17.07.25.02.12.06.24.05.37-.03.43-.08.86-.1,1.29-.05,1.15-.11,2.31-.13,3.47-.01.86.03,1.72.07,2.59.03.58.09,1.16.14,1.74,0,.11.03.29-.03.32-.26.15-.19.34-.15.56.03.14-.03.3-.04.45-.03.23-.08.47-.07.7.04.62.25,1.22.09,1.85-.01.05,0,.1.01.15.05.45.13.9.15,1.35.02.64-.01,1.28-.03,1.92-.02.91-.03,1.81-.06,2.72-.01.39-.07.78-.11,1.16-.02.18-.04.36-.06.61.1-.09.25-.16.27-.25.06-.29.06-.59.1-.88.09-.74.02-1.48.24-2.21.13-.45,0-.99,0-1.48,0-.26.06-.53.09-.79.03-.12-.1-.26-.08-.37.14-.54-.07-1.06.02-1.62.13-.82.07-1.68.08-2.52,0-.01-.04-.03-.06-.04-.06.08-.12.16-.18.24-.02,0-.05-.02-.07-.03.02-.22.05-.43.07-.66.12.07.22.13.28.16v-3.12c.03-.14.07-.24.06-.33-.05-.5-.17-1-.17-1.5,0-.75.1-1.5.12-2.25.02-.71.03-1.43-.02-2.14-.05-.71.36-1.36.14-2.1-.13-.44,0-.96-.02-1.44-.04-1.3-.08-2.6-.13-3.9-.01-.37-.05-.74-.04-1.1.01-.32.13-.64.11-.96-.04-.48-.14-.95-.25-1.42-.04-.18-.1-.33.13-.4.3-.1.28-.27.15-.5-.06-.1-.14-.29-.1-.33.34-.33.06-.47-.12-.62.05-.83.05-1.65.05-2.47,0-.33-.02-.65-.02-.98,0-.39.05-.78.04-1.17-.01-.53-.06-1.06-.08-1.59,0-.27.03-.54.02-.8-.05-1.06-.12-2.12-.17-3.18-.07-1.37.18-2.76-.15-4.12-.01-.06.01-.13.03-.19.21-.62.24-1.25.11-1.89-.13-.62.05-1.28-.22-1.88-.02-.04.05-.11.06-.16.05-.17.14-.34.14-.51,0-.36-.05-.73-.07-1.09-.03-.53-.05-1.06-.08-1.59.09-.05.19-.12.26-.17-.06-.24-.15-.44-.14-.63.05-.75-.27-1.47-.09-2.24.1-.42.02-.89.04-1.34.04-1.03.09-2.06.14-3.09,0-.05.03-.1.03-.15.06-.58.14-1.17.17-1.76.01-.22-.08-.45-.12-.67.03-.18.05-.36.1-.53.02-.08.09-.19.16-.21.37-.1.78-.2,1.13-.21,1.04-.03,2.05-.19,3.05-.43.27-.06.56-.13.83-.11.3.01.58.12.78.41.16.23.37.44.6.61.4.3.52.73.36,1.21s-.28.97-.39,1.47c-.1.46-.16.93-.23,1.4-.06.4-.12.8-.18,1.21-.09.65-.18,1.3-.27,1.96h-.09c.05-.54.08-1.07.14-1.6.03-.22.03-.33-.25-.32-.49.02-.61.15-.8.59-.14.31.11.83-.58.9.54.07.55.09.32.46-.07.11-.1.26-.11.4-.08,1.57-.14,3.14-.23,4.71-.04.83-.12,1.66-.18,2.49-.02.23-.02.46-.04.7-.05.6-.11,1.21-.14,1.81-.03.52-.08,1.05-.03,1.56.03.27.21.51-.08.74-.03.03,0,.14,0,.21.02.14.07.27.08.41.03.35.04.71.06,1.06,0,.16.06.33.04.49-.05.45-.13.9-.18,1.35-.01.1.03.22.06.32.09.29.25.58,0,.76.07.22.15.39.16.55.01.92-.03,1.85.01,2.77.06,1.19,0,2.38-.1,3.56,0,.06.04.12.05.18.03.24.05.48.07.72,0,.11-.04.22-.03.33.04.32.09.65.16.97.04.18.11.34.17.52.05-.01.1-.02.15-.03,0-.39-.02-.78,0-1.17.04-.61.15-1.21.18-1.81.05-.87.06-1.75.08-2.62.03-1.15.07-2.29.1-3.44.02-.89.02-1.77.05-2.66.03-1.14.07-2.28.12-3.41.02-.33.11-.67.12-1,.05-.94.07-1.88.1-2.81,0-.23,0-.46,0-.69h.12c.09.45.19.89.14,1.38-.08.9-.01,1.82-.03,2.72,0,.66-.05,1.31-.08,1.97-.03.7-.05,1.4-.07,2.09-.03,1.01-.06,2.02-.08,3.03-.01.66-.02,1.32-.03,1.97-.03,1.44-.09,2.88-.1,4.32-.02,1.57,0,3.13-.02,4.7,0,.24-.08.47-.13.71.03.73.03,1.47.03,2.21,0,.76,0,1.53-.03,2.29-.02.75-.08,1.5-.11,2.26-.03.77.11,1.58-.1,2.28-.22.74.19,1.47-.16,2.19.04.06.1.15.17.24-.03,0-.07,0-.1,0-.07.46-.14.92-.21,1.39.04.02.16.04.19.1.19.42.37.84.29,1.34-.11.71-.16,1.43-.23,2.15-.02.24-.04.48-.07.72-.12,1.01-.25,2.01-.36,3.02-.02.22,0,.45.05.67.07.34.28.69.23,1-.13.73-.37,1.44-.57,2.15-.02.08-.04.18-.03.26.04.28.09.56.15.91.1.02.28.05.46.08-.03-.12-.07-.24-.09-.37,0-.06.05-.12.05-.18.02-.15.05-.31.04-.46-.03-.33-.02-.63.31-.84.07-.04.09-.18.11-.27.06-.28.08-.57.17-.85.06-.21.3-.4.03-.63-.02-.02,0-.12.02-.14.27-.16.11-.34.04-.52-.03-.09-.04-.2-.02-.29.05-.27.16-.53.18-.8.11-1.75.2-3.51.32-5.26.02-.29.16-.57.19-.86.05-.61.04-.61.64-.76.05-.01.09-.07.14-.09.48-.22.96-.43,1.53-.68-.11.54-.09.9.45,1,0,.04-.02.09-.03.13-.17.03-.34.06-.56.09.11.07.18.11.26.15-.7-.07-.19.64-.58.77.17.12.29.21.43.3-.2.18-.34.32-.57.53.15.12.28.22.44.35-.15-.02-.25-.03-.3-.04-.03.16-.01.31-.08.42-.08.13-.23.21-.34.32.05,0,.09.02.14.03.02.14.05.29.05.43,0,.19-.02.39-.03.58.05.18.03.36-.01.52-.08.31,0,.66-.34.89-.38.26-.52.8-.32,1.2.13.27.33.57.69.51.38-.07.46-.38.4-.72-.02-.15-.13-.28-.19-.39.12-.1.35-.2.38-.34.08-.37.06-.76.1-1.13.02-.13.08-.27.16-.38.33-.41.29-.69-.14-.98-.07-.05-.13-.11-.15-.13.18-.15.44-.27.43-.38,0-.17-.2-.33-.35-.55h.94c-.19-.16-.3-.26-.48-.42.39-.24.75-.46,1.13-.7.05.33.27.31.46.19.55-.33,1.09-.68,1.64-1.03.04-.03.06-.09.16-.24-.36.15-.63.25-.95.38-.08-.29-.16-.55-.23-.82-.08.03-.23.08-.39.14-.02-.03-.04-.05-.05-.08.13-.16.25-.32.31-.4-.17-.31-.33-.59-.45-.8.24-.1.25-.12.07-.6.56-.09.65-.04.97.57.14-.15.3-.26.37-.41.19-.38.6-.52.95-.29.21.13.41.05.5-.19.05-.12.13-.24.23-.3.32-.2.65-.38.98-.56.24-.13.49-.25.73-.38.15-.08.29-.19.39-.26.41.03.81.06,1.21.09,0-.04,0-.07.01-.11-.54-.05-1.1-.03-1.67-.28.63-.5,1.41.15,1.91-.45-.06-.13-.13-.28-.2-.43l.09-.07c.24.05.48.11.7.16-.02.18-.03.3-.05.53.15-.1.26-.14.27-.2.15-.54-.29-.79-.66-1.17h1.57s.02-.08.03-.13c-.43-.22-.87-.44-1.3-.66,0-.03.01-.07.02-.1.17,0,.34,0,.51,0,.35.01.72.07,1.01-.21.29-.27.64-.35,1.02-.36.09,0,.18-.04.27-.06,0-.04,0-.08.01-.12-.34-.09-.69-.19-1.09-.29.43-.29.81-.23,1.29.2.1-.37.25-.7.26-1.03.01-.4.16-.56.58-.54-.08-.04-.13-.05-.16-.08-.11-.1-.2-.2-.31-.31.14-.09.28-.19.43-.27.11-.05.23-.07.41-.12-.17-.07-.27-.11-.37-.14,0-.04,0-.09,0-.13.19,0,.39-.02.59-.03,0-.09-.02-.22-.03-.35.06-.05.13-.11.19-.16.05.16.09.31.15.52.21-.32.35-.55.5-.78-.12-.09-.2-.15-.31-.24.27-.12.49-.22.8-.36-.28-.11-.47-.17-.65-.24,0-.03-.01-.06-.02-.09.14-.02.28-.08.4-.06.32.06.5,0,.45-.3-.14-.1-.24-.17-.34-.23.13-.07.26-.14.44-.23,0-.06.03-.18.05-.29-.12-.05-.22-.09-.32-.13,0-.04,0-.07.01-.11h.53c.08-.17.15-.34.23-.51-.09-.06-.17-.1-.25-.15.1-.08.2-.11.28-.08.31.1.41-.1.48-.33.04-.12.07-.26.05-.38-.06-.27.09-.39.29-.45.29-.1.21-.27.13-.45-.03-.07-.1-.12-.1-.13.17-.16.34-.28.43-.44.36-.66.71-1.32,1.05-2,.13-.26.2-.54.31-.81.07-.19.17-.36.25-.54.2-.49.33-.99.71-1.31-.09-.5.19-.86.34-1.24.16-.42.43-.8.67-1.25-.05-.25-.03-.52.2-.85.31-.45.47-1,.68-1.48-.01-.13-.07-.25-.04-.35.22-.72.49-1.43.68-2.16.22-.89.39-1.8.55-2.71.06-.36.05-.73.09-1.09.07-.59.29-1.19.22-1.76-.08-.71.05-1.39.04-2.08,0-.31.07-.65-.04-.91ZM40.89,3.6s.1-.07.12-.06c.07.04.17.1.18.16.05.23.08.46.12.75-.35-.13-.57-.65-.43-.85ZM33.25,7.2c-.18.52-.48.39-.77.32,0-.03-.01-.07-.02-.1.25-.07.49-.13.79-.21ZM31.71,7.61c.14-.03.34.18.51.29-.02.03-.04.06-.05.09-.34.02-.69.03-1.05.05.03-.35.37-.37.6-.43ZM61.6,18.49l.18.1c-.12.2-.24.39-.35.59l-.14-.08c.11-.2.21-.41.32-.61ZM54.77,67c-.07.14-.2.34-.15.45.17.38-.08.68-.13,1.01-.05.29-.13.57-.2.85-.01.06-.02.13-.06.18-.53.61-1.17,1.04-2.01,1.31.1-.51.21-.95.26-1.4.04-.43,0-.87,0-1.35,0,0-.08-.03-.12-.05.06-.23.15-.43.16-.63.06-1.07.12-2.14.15-3.21.02-.8,0-1.6,0-2.4,0-.09.04-.17.04-.26,0-.22,0-.44-.03-.66.04-.19.07-.39.11-.58.06-.3.16-.59.17-.89.01-.19-.1-.39-.15-.59-.02-.1-.08-.26-.05-.28.45-.25.17-.65.18-.96.05-1.15.02-2.3.06-3.45.02-.61.12-1.21.14-1.81,0-.23-.08-.47-.14-.76.01,0,.1-.06.11-.06.09-.8-.27-1.51,0-2.25.07-.18-.02-.41-.03-.62,0-1.13-.18-2.25-.07-3.39.08-.93-.03-1.88-.01-2.81.02-.98.11-1.95.14-2.93.02-.67-.01-1.35,0-2.02,0-.42.03-.84.03-1.26,0-.72-.01-1.44,0-2.16.01-.47.11-.94.11-1.41,0-.97-.04-1.94-.05-2.91,0-.14.07-.28.09-.37,0-.35-.03-.67,0-.99.02-.22.09-.44.15-.71h.31c-.17-.22-.3-.38-.45-.58.45-.02.53-.18.3-.54-.1-.16-.1-.42.17-.55.05-.03.09-.24.04-.3-.19-.23-.16-.74.06-.94.08-.07.14-.24.11-.34-.09-.33-.25-.66.15-.91.02-.01.04-.05.03-.07-.12-.49.04-.89.56-1.18-.21-.05-.3-.07-.41-.1.2-.49.14-1.16.94-1.17,0-.07.01-.13,0-.19-.1-.32.07-.45.35-.54.2-.07.37-.22.57-.28.15-.05.33.04.47-.01.24-.08.55-.15.69-.33.33-.45.82-.49,1.28-.63.14-.04.25-.16.48-.31-.25-.07-.41-.13-.58-.15-.48-.06-.95-.1-1.43-.15-.05,0-.1-.07-.13-.14.84-.14,1.63.1,2.43.34.05-.39-.32-.34-.5-.51.66.04,1.29.07,1.96.11,0,.38,0,.83-.3,1.22-.63.82-1.05,1.73-1.27,2.76-.16.72-.54,1.4-.83,2.1-.12.29-.27.58-.37.88-.03.09.1.23.13.31-.05.64-.08,1.26-.17,1.88-.08.59-.21,1.18-.31,1.77-.12.67-.06,1.33.16,1.97.04.12.1.25.08.36-.21,1.73-.44,3.45-.63,5.18-.08.68-.07,1.36-.12,2.04-.03.41-.13.81-.17,1.22-.02.2.05.42.03.62-.06.67-.28,1.33.04,2.03-.18.04-.31.07-.36.08.05.21.14.41.13.6-.03.47-.12.93-.18,1.39-.13,1.06-.26,2.13-.38,3.19-.02.16.03.32.05.51-.06.05-.15.12-.24.19.03,0,.07,0,.1.01,0,.49.01.98-.01,1.46,0,.11-.18.2-.22.32-.05.14-.04.3-.06.48-.06.02-.17.06-.33.11.32.32.32.65.17,1.01-.03.06-.03.19,0,.22.37.29-.03.77.42,1.12-.69-.07-.67.31-.65.65.03.45.1.89.16,1.34,0,.08,0,.17,0,.32-.1-.11-.16-.18-.2-.22-.08.48-.17.97-.28,1.62.07.46.15,1.08.24,1.73-.09-.01-.24-.03-.44-.05.15.17.26.3.31.36-.22.29-.42.54-.6.81-.03.05,0,.19.04.23.44.32.29.74.19,1.14-.06.25-.19.5.13.67-.2.34-.31.66-.13,1.03.04.08-.04.22-.09.32-.25.46-.24.6.11.98-.37.49-.3,1.01-.16,1.55.02.08.03.22-.02.27-.48.48-.48.48.11.84-.08.07-.19.11-.23.19ZM56.87,53.29c-.23-.07-.43-.13-.63-.19q.59-.18.63.19ZM55.04,73.21c.07-.2.09-.38.14-.38.18-.02.38,0,.57.02,0,.06.02.12.02.19-.21.05-.41.1-.73.18ZM55.05,71.88c-.17-.54.42-1.22,1.18-1.35.08.12.16.24.27.41-.42.34-.73.94-1.45.95ZM56.66,70.59c-.14-.03-.28-.05-.43-.08,0-.08.01-.16.01-.24,0-.14,0-.28.02-.42,0-.09.03-.18.07-.35.14.24.27.38.32.55.05.17.01.36.01.54ZM66.44,63.89c.13-.25.24-.46.4-.75.06.06.13.12.2.19-.22.15-.08.63-.6.56ZM74.49,38.3c-.06,2.53-.32,5.03-1.17,7.43-.32.9-.74,1.76-1.11,2.64-.17.39-.3.8-.51,1.16-.09.16-.32.23-.5.33-.12.07-.24.12-.34.23.19-.04.39-.08.63-.13-.19.9-.67,1.59-1.07,2.31-.13.23-.3.43-.45.65,0,0-.07-.03-.12-.05.02.12.04.24.06.35-.32.25-.61.49-.47.95.01.04-.05.12-.1.15-.32.25-.29.67-.48.98-.22.35-.47.67-.68,1.02-.54.89-1.16,1.7-1.88,2.45-.45.47-.81,1.01-1.23,1.5-.46.53-.94,1.04-1.43,1.54-.29.3-.63.54-.93.83-.51.49-.96,1.04-1.5,1.5-.73.61-1.52,1.15-2.28,1.73-.25.19-.46.48-.74.59-.82.32-1.41,1.08-2.32,1.21-.16.02-.32.03-.53,0,.31-.29.46-.54.04-.82.13.04.27.07.47.13-.15-.29-.28-.52-.43-.81.15.03.23.05.35.07-.06-.14-.1-.26-.16-.4.09-.07.19-.14.32-.24h-.47c-.03.09-.05.19-.09.33-.19-.32-.26-.57.06-.84.1-.08.06-.35.06-.53,0-.11-.06-.23-.05-.33.01-.08.09-.18.16-.22.03-.02.15.06.2.13.09.11.16.24.24.36.05-.03.09-.04.09-.06.04-.51.07-1.03.11-1.54.05-.64.11-1.28.17-1.91,0-.08.03-.15.04-.23.1-.78.21-1.56.28-2.34.05-.53.17-1.04.17-1.59,0-.85.22-1.69.32-2.54.07-.62.11-1.24.17-1.86.02-.23.06-.46.1-.72h-.4c.54-.18.5-.56.48-1.02-.02-.46.15-.92.19-1.39.03-.32,0-.65,0-.98,0-.15.09-.29.12-.44.03-.13.05-.26.04-.38,0-.21-.07-.42-.04-.63.08-.68.21-1.35.29-2.03.15-1.3.27-2.6.4-3.9.08-.78.17-1.56.25-2.35.1-1,.21-2,.31-3,.06-.63.11-1.25.19-1.88.03-.21.15-.42.17-.63.02-.19-.05-.4-.09-.66.42-.25.44-.48.1-.85-.11-.12-.17-.28-.22-.49.65.37.95-.13,1.31-.44.73-.63,1.59-1.02,2.48-1.37.94-.37,1.92-.3,2.89-.34.68-.03,1.36-.15,2.02-.09,2.21.2,4.26.8,5.75,2.63.57.71.64,1.53.68,2.35.07,1.47.11,2.94.08,4.4Z"/>
      <path class="cls-1" d="M59.43,81.5c-.8-.86-1.76-1.5-2.95-1.77-.07.1-.14.21-.24.35.46.23.92.4,1.31.68.38.27.69.65,1.06,1.02.31-.13.5,0,.47.44-.04.62-.37,1.16-.77,1.57-.71.73-1.69,1.06-2.65,1.31-1.58.43-3.17.8-4.78,1.09-1.05.19-2.14.16-3.2.27-1.07.11-2.15.14-3.16.65-1,.51-2.1.58-3.22.5-.96-.06-1.92-.09-2.87-.08-.57,0-1.14.11-1.7.12-.93,0-1.82-.22-2.68-.58-.79-.33-1.59-.66-2.38-1-1.19-.51-2.54-.47-3.7-1.07-.03-.02-.08-.02-.11-.02-.66.09-1.17-.31-1.73-.53-.25-.1-.48-.26-.68-.44-.48-.44-.92-.92-1.4-1.36-.22-.2-.24-.38-.15-.64.06-.17.08-.37.05-.54-.07-.32-.34-.55-.24-.96.09-.4-.02-.85-.03-1.27,0-.46,0-.93,0-1.39-.03-.13-.07-.26-.06-.4.02-.3.08-.61.09-.91.02-.39,0-.78,0-1.19-.25-.12-.5-.24-.75-.36l.05-.15h.75c-.08-.23-.18-.39-.2-.56-.04-.48-.03-.96-.06-1.44-.02-.28-.17-.57.22-.73.07-.03.11-.17.14-.27.06-.21-.14-.55-.29-.49-.45.17-.83,0-1.25-.19-.07.16-.14.33-.22.49-.15-.08-.31-.15-.46-.23-.02-.38.26-.35.53-.33-.13-.19-.23-.34-.34-.49.03-.03.05-.06.08-.08.13.1.35.19.36.3.01.32.23.31.44.38.03-.04.07-.08.1-.12q.39-.64.77.02c-.12-.53,0-1.02-.34-1.47q-.12.74-.5.78c.06-.11.22-.26.21-.39-.02-.31-.13-.61-.2-.91-.03-.14-.06-.27-.09-.41.04-.02.09-.04.13-.05.13.23.26.46.39.69.04-.12,0-.23,0-.35,0-.07,0-.13,0-.2.07.02.14.03.21.05.03-.13.05-.26.08-.42-.09.05-.15.09-.26.15.09-.18.15-.3.25-.51-.3-.03-.54-.05-.78-.07-.07,0-.17,0-.19-.04-.03-.07-.04-.18,0-.23.18-.25.37-.49.58-.76-.07-.06-.16-.15-.27-.25.08,0,.14-.01.24-.02-.42-.83-.1-1.67-.03-2.6-.14.18-.21.27-.31.4-.02-.54-.05-1.04-.07-1.55.46-.2.17-.68.26-1.04.11-.45,0-.84-.62-.98.26-.2.56-.32.59-.48.03-.17-.2-.39-.33-.62.2-.09.43-.22.17-.52-.14.07-.29.14-.44.21-.03-.04-.06-.08-.09-.12l.44-.46.06.07-.04-.54c-.18.06-.34.11-.5.15-.03-.06-.05-.09-.05-.11.08-.2.17-.39.23-.58.05-.15.04-.35.13-.47.25-.3.32-.75.05-1.16v.83c-.05,0-.1-.01-.15-.02.09-.59.18-1.17.27-1.78-.13.08-.23.14-.26.16.06-.4.13-.83.19-1.26,0-.05-.03-.1-.03-.15,0-.13-.03-.27,0-.39.03-.14.12-.27.19-.42-.19-.08-.34-.14-.49-.21.05-.31.6-.66-.09-.89.04-.06.06-.1.1-.13.38-.29.37-.28.07-.6-.07-.07-.05-.25-.03-.38.03-.21.21-.48.13-.6-.27-.44-.02-.86-.05-1.35-.05.11-.09.18-.12.26l-.14-.03c-.06-.31-.18-.62-.17-.93,0-.3.15-.59.21-.89.02-.07-.06-.17-.1-.26-.07.11-.11.17-.19.3-.08-.19-.14-.31-.16-.37.11-.14.25-.24.24-.33-.01-.6.02-1.23-.11-1.81-.14-.64-.07-1.25,0-1.88.08-.72.21-1.47-.13-2.18-.03-.06-.02-.16.01-.21.18-.28.06-.42-.2-.52-.2-.08-.22-.17-.06-.33.12-.12.26-.29.25-.43-.02-.58-.09-1.16-.15-1.74-.04-.39-.23-.83-.11-1.15.12-.32.08-.51-.03-.76-.02-.06-.07-.13-.05-.18.24-.73-.06-1.44-.08-2.17,0-.24-.03-.47-.05-.77.22-.1.37-.29.01-.57-.04-.03,0-.16,0-.24,0-.1.02-.2,0-.29-.03-.15-.09-.29-.15-.44.35-.12.35-.25.08-.46-.14-.11-.24-.28-.34-.4.09-.1.21-.24.33-.37-.28-.22.14-.21.12-.38-.05-.55-.07-1.12-.06-1.67.01-.63-.49-.98-.79-1.42-.25-.37-.72-.59-1.1-.87-.08-.05-.23-.11-.28-.07-.27.19-.43,0-.6-.14-1.9-1.55-4.05-2.62-6.34-3.43-.62-.22-1.29-.32-1.92-.53-.63-.2-1.24-.47-1.87-.68-1.02-.13-2.03-.28-3.05-.34-1.4-.09-2.79.05-4.19.14.1.25.01.37-.27.43-.34.08-.74.06-.82.57.18.15.47.28.44.65,0,.1.17.27.29.3.29.07.23.23.18.43-.02.08,0,.25.02.25.32.03.18.26.16.4-.04.25.02.39.31.43v-.33c.27.24.55.4.72.64.51.69,1,1.41,1.48,2.12.33.49.63,1.01.97,1.49.15.22.42.36.55.59.42.78.8,1.58,1.2,2.37.44.87.89,1.74,1.33,2.6.34.66.7,1.32,1.04,1.98.38.73.75,1.45,1.12,2.18.38.76.77,1.5,1.11,2.28.38.88.67,1.79,1.04,2.67.55,1.26,1.2,2.47,1.66,3.78.15.41.44.76.54,1.23.1.52.38,1,.6,1.49.03.08.11.13.17.2.5.57.74,1.22.65,1.95.15.01.31.03.47.04-.02.18-.06.37-.07.55-.01.16-.05.34,0,.48.15.39.31.78.52,1.13.42.69.6,1.46.84,2.21.25.8.42,1.63.67,2.43.3,1.01.65,2,.97,3,.11.36.19.73.25,1.1.13.69.3.86,1.01.93.13.01.26.01.48.03-.44.23-.95-.18-1.21.31.14.67.83.17,1.15.56-.35.03-.66.06-1,.09.06.14.11.21.12.28.1.66.17,1.32.29,1.98.12.66.24,1.32.43,1.96.2.63.06,1.36.51,1.92.02.03-.04.12-.04.18.04.5-.07,1.03.25,1.34,0,.33-.04.57,0,.8.13.7.3,1.38.44,2.08.04.21,0,.44.07.64.34,1.06.36,2.16.43,3.26,0,.13-.07.29-.16.4-.35.44-.77.83-1.09,1.29-.55.79-.74,1.61-.16,2.53.6.96,1.49,1.54,2.38,2.17,1.05.75,2.35,1,3.36,1.85.96.81,2.19,1.14,3.38,1.52.61.19,1.2.45,1.79.71.73.33,1.45.7,2.17,1.05.93.45,1.91.6,2.93.49.46-.05.91-.16,1.36-.19,1.68-.15,3.36-.25,5.03-.42.78-.08,1.57-.2,2.32-.43,1.31-.41,2.61-.91,4-.94.93-.02,1.75-.24,2.48-.83.82-.67,1.79-.95,2.83-1.06.3-.03.62-.06.9-.17.91-.37,1.8-.78,2.69-1.18.19-.09.39-.2.52-.36.23-.28.39-.61.62-.89.68-.83.48-1.88-.11-2.51ZM21.51,42.56c.06.26.12.52.16.79,0,.04-.08.13-.1.13-.06-.03-.16-.08-.17-.12-.02-.26,0-.53,0-.79h.11ZM5.45,26.72c-.05,0-.11.01-.16.02-.03-.31-.07-.62-.1-.93.05,0,.1-.02.15-.03.21.29.2.61.11.94ZM21.18,67.97s-.06.08-.1.15l-.11-.02c.25-.7.63-1.4.01-2.07.25-.15.44-.26.71-.41-.21-.06-.32-.1-.42-.13-.15-.59-.14-1.14.22-1.65.04-.05-.01-.21-.07-.27-.14-.14-.32-.25-.47-.38-.13-.11-.26-.19-.05-.39.08-.08.05-.38-.04-.48-.1-.12-.32-.19-.49-.21-.24-.03-.49.02-.74.03l-.02-.14c.09-.02.19-.06.28-.06.11,0,.23.04.34.05.26.02.57.04.63-.27.08-.41-.3-.81-.67-.79-.1,0-.2.02-.31-.06.11-.02.23-.06.34-.05.12,0,.24.04.41.08.08-.6-.36-.81-.8-1.01.03-.03.05-.06.08-.08.11-.03.22-.06.34-.09,0-.44-.41-.38-.68-.58.15-.08.27-.14.41-.21-.1-.44-.86-.32-.78-.9.47-.12.48-.18.15-.56-.1-.12-.11-.3-.18-.45-.04-.09-.1-.16-.17-.26.06,0,.12,0,.21-.01-.18-.53-.35-1.06-.53-1.6-.1.08-.15.13-.21.18-.09-.16-.19-.32-.28-.49.03-.03.06-.06.09-.08.09.04.19.07.3.11-.1-.75-.31-1.44-.87-2-.15-.15-.09-.5-.14-.75-.02-.11-.08-.28-.14-.3-.35-.08-.36-.36-.43-.61-.17-.62-.3-1.24-.52-1.85-.11-.31-.35-.58-.59-.96-.36-.12-.34-.14-.25-.66.03-.19-.11-.44-.23-.61-.36-.49-.43-1.07-.57-1.64-.13-.5-.36-.97-.54-1.47-.03-.09.01-.21,0-.32,0-.09-.02-.23-.07-.26-.19-.12-.4-.19-.59-.31-.08-.05-.2-.17-.18-.24.13-.86.14-1.57-.52-1.96-.05-.03-.08-.09-.14-.15.08-.07.14-.13.17-.15-.12-.18-.25-.32-.32-.49-.15-.35-.27-.72-.43-1.07-.04-.1-.19-.15-.25-.25-.25-.45-.48-.9-.73-1.35-.05-.09-.11-.19-.19-.23-.28-.14-.36-.48-.18-.73.07-.09.11-.2.16-.3-.04,0-.09.01-.13.02-.05-.06-.11-.11-.16-.17.27-.22-.02-.29-.11-.42-.13-.18-.26-.37-.34-.61.08.06.16.12.25.19.03-.04.07-.07.06-.09-.02-.1-.05-.21-.09-.31-.14-.35-.29-.7-.45-1.04-.05-.1-.14-.21-.23-.25-.32-.14-.43-.46-.3-.8.04-.12-.04-.3-.11-.43-.07-.13-.27-.19-.07-.4.04-.04-.15-.3-.29-.42,0-.11.05-.26,0-.32-.45-.49-.44-1.24-1.01-1.67-.15-.11-.22-.37-.25-.58-.06-.43-.13-.5-.57-.4,0-.07,0-.13.01-.21-.29.06-.45.02-.39-.34.02-.13-.11-.29-.18-.47.16-.02.28-.04.46-.07-.15-.25-.28-.48-.41-.7-.4-.67-.8-1.33-1.19-2-.07-.12-.04-.29-.11-.4-.05-.07-.12-.14-.18-.21-.28-.08-.45-.3-.5-.55-.19-.21-.38-.43-.6-.69.04.49.44.89.09,1.42-.08-.14-.16-.23-.18-.33-.15-.81-.19-.93-.74-1.66.69.03,1.3.06,1.9.09.14,0,.3.07.41.02.55-.26,1.11-.11,1.62.02.93.24,1.83.6,2.74.91.57.2,1.16.37,1.72.6.89.37,1.76.8,2.65,1.19.19.08.42.09.61.18.53.23,1.05.49,1.57.74.04.02.07.07.1.11.26.32.53.58.98.7.4.11.73.47,1.11.68.67.36.98.93,1.22,1.64.26.77.26,1.55.3,2.33.1,1.87.1,3.74.2,5.61.04.88.26,1.74.31,2.62.06.91.01,1.83.03,2.75,0,.38.07.76.07,1.13,0,.31-.11.63-.1.94.02.62.1,1.24.14,1.86.02.38,0,.76,0,1.15,0,.16-.03.34.01.49.29,1.2.37,2.42.35,3.66-.02,1.01.04,2.02.08,3.02.04.94.09,1.88.16,2.82.05.69.15,1.37.21,2.05.01.17-.07.35-.06.51.05.65.14,1.31.19,1.96.04.47.03.93.04,1.4,0,.15,0,.3.02.45.02.35.04.71.08,1.06.03.32.1.65.12.97,0,.23-.05.47-.08.71-.06.41.08.76.26,1.11.08.16.07.36.12.64-.2-.11-.3-.16-.4-.22-.09.09-.17.18-.26.27-.02-.01-.04-.02-.07-.03.05-.13.1-.25.15-.37-.18-.03-.35-.06-.54-.09ZM21.74,68.71c.29.19.6.37.88.58.06.05.07.27.01.34-.19.24-.42.45-.65.69-.11-.09.12-.41-.22-.37.02-.1.02-.21.07-.3.08-.13.19-.24.28-.35-.03-.02-.06-.05-.09-.07-.16.17-.32.35-.54.58.1-.4.18-.74.26-1.1ZM23.04,75.47c-.09.36-.17.7-.25,1.04-.03,0-.07,0-.1,0-.11-.63-.42-1.22-.36-1.96.42.24,0,.95.7.91ZM23.4,72.96c-.42-.13-.65-.35-.6-.77q.36-.1.6.77ZM23.18,74.38c-.24-.11-.47-.21-.7-.33-.09-.04-.17-.11-.26-.16.12-.06.23-.15.36-.17.56-.08.59.31.6.66ZM22.2,71.96c.05.39.11.77.17,1.2-.65-.33-.37-.77-.17-1.2ZM24.36,84.58c-.32-.25-.63-.53-.98-.74-.51-.31-1.03-.59-1.56-.84-.54-.25-.7-.77-.33-1.22.22-.28.45-.55.66-.84.13-.18.22-.12.31.03.02.03.03.07.03.11.05.41.13.79.7.74.07,0,.22.23.24.37.07.38.08.76.13,1.14.01.09.12.16.18.24.23.31.46.62.7.93-.03.02-.05.05-.08.07Z"/>
      <path class="cls-1" d="M29.53,59.85c.14-.04.21-.07.3-.1.09.34.13.64-.26.86h.33c-.06.41-.11.8-.17,1.23.06.04.16.09.25.14-.04.01-.08.02-.12.04.04.32.12.64.11.95,0,.27-.11.54-.2.81-.03.09-.11.16-.19.28h.37c-.04.17-.08.32-.11.48-.02.09-.02.18,0,.27.02.17.12.35-.14.45-.06.03-.11.17-.11.26.03.6.08,1.19.1,1.79,0,.23-.03.46-.05.69-.04.01-.08.03-.12.04.13.04.27.07.49.13-.23.15-.4.27-.59.4.39.21.25.46.08.71q.32.36-.19.57c.42.24.39.61.31,1.01-.1-.01-.22-.03-.45-.06.19.24.34.42.5.62-.09.03-.17.07-.2.08.12,1.01.22,1.99.1,3.01-.07.58-.13,1.24.24,1.81-.04,0-.08,0-.12-.01-.02.2-.08.39-.07.59.05.54.13,1.07.19,1.6,0,.07.03.15.02.22-.03.26-.18.5.04.77.06.07-.03.26-.06.41-.09-.05-.13-.05-.13-.07-.23-.66-.24-1.38-.44-2.03-.18-.58-.09-1.15-.18-1.72-.1-.66-.06-1.34-.1-2.01-.02-.33-.09-.65-.12-.98-.05-.6-.11-1.21-.12-1.81-.01-.63.04-1.26.04-1.9,0-1.25-.03-2.5-.02-3.75,0-1.34.06-2.68.06-4.01,0-1.09-.05-2.18-.09-3.27-.04-1.03-.08-2.07-.14-3.1-.03-.64-.11-1.27-.14-1.91-.02-.39.04-.79.03-1.18-.02-.58-.06-1.16-.1-1.75-.02-.26-.05-.53-.05-.79-.01-.95-.02-1.91-.01-2.86,0-.2.11-.39.13-.59.05-.74.08-1.49.11-2.23.02-.32.03-.63.05-.95,0-.05.02-.11,0-.15-.16-.58.05-1.1.34-1.64-.48.02-.51-.24-.4-.55.36-1.07.27-2.19.36-3.28.06-.76,0-1.52,0-2.28,0-.3.22-.59-.02-.91-.05-.06.14-.3.22-.47-.11-.17-.22-.34-.37-.56h.57c-.18-.16-.28-.26-.47-.43.18-.04.33-.13.45-.1.09.03.18.2.18.32.04.9.07,1.8.09,2.7,0,.08-.05.17-.07.25-.02.14-.1.34-.05.4.32.31.18.66.16,1-.02.32-.04.65-.05.98-.12-.11-.25-.22-.38-.33-.04.03-.07.05-.11.08.12.13.24.25.34.38.08.09.19.21.19.31-.03.57-.06,1.14-.14,1.71-.13.97.05,1.92.21,2.87.08.46,0,.95,0,1.43,0,.17.08.34.11.52.02.12.07.28.01.36-.18.3-.29.57.02.85.03.03.03.15,0,.18-.43.37-.11.84-.17,1.27-.01.08,0,.17,0,.25-.05.27-.18.53-.16.79.03.53.15,1.04.19,1.57.04.55,0,1.1.03,1.64.04.87.05,1.75.18,2.61.08.56.14,1.1.03,1.66-.07.37-.1.75-.12,1.13,0,.11.09.22.16.37-.11.02-.22.04-.36.07.11.16.2.3.32.49-.14.01-.22,0-.28.03-.06.03-.13.09-.14.14,0,.05.05.14.1.17.34.2.37.48.09.79-.04.04-.05.11-.1.25Z"/>
      <path class="cls-1" d="M42.15,38.43c0,.16.02.32.02.48,0,.08-.03.16-.01.23.31,1.31.27,2.65.31,3.98.03.88,0,1.76.01,2.64,0,.19.08.38.08.57,0,.41-.02.83-.04,1.24,0,.09-.07.18-.05.25.09.42.24.82.28,1.24.03.32-.08.65-.1.98,0,.16.05.33.07.5.01.15.01.3,0,.45,0,.4-.02.8-.04,1.2,0,.01,0,.03,0,.04.02.66.07,1.32.05,1.97,0,.32-.14.64-.21.93.02.17.04.34.05.5.02.24.02.49.07.73.06.3.15.6-.11.86-.04.04-.08.11-.08.16.04.88.09,1.77.13,2.65,0,.01,0,.03,0,.04.01.53.03,1.07.04,1.54,0,0-.05-.07-.11-.14-.04,0-.07,0-.11.01.11,1.31.23,2.62.35,3.96-.13-.01-.25-.02-.33-.03.13.3.29.58.36.89.07.31.03.64.05.96.04.56.09,1.11.11,1.67,0,.09-.06.23-.14.27-.24.13-.23.24-.01.38.04.03.1.09.09.12-.09.35.04.69.03,1.02-.01.55-.06,1.08.14,1.62.09.25.01.57-.01.86-.04.54-.13,1.09-.14,1.63,0,.74.04,1.48.06,2.22.03,1.05.06,2.09.07,3.14,0,.77-.01,1.54-.02,2.31,0,.13-.04.27-.06.4h-.11c-.11-.77-.25-1.54-.32-2.32-.04-.47.08-.95.07-1.43,0-.42-.11-.83-.15-1.25-.05-.47-.1-.95-.12-1.42-.05-1.04-.09-2.09-.11-3.13-.02-.73,0-1.46,0-2.2,0-.39,0-.78-.03-1.16-.07-1.07-.17-2.14-.24-3.22-.02-.4.03-.81.02-1.21,0-.26-.09-.53-.1-.79-.02-.64-.02-1.28-.04-1.93,0-.18-.04-.36-.04-.54-.01-.23-.03-.46-.03-.68,0-.78,0-1.56-.01-2.34-.02-.7-.07-1.39-.1-2.09,0-.17.03-.33.05-.55-.32-.38-.24-.92-.23-1.41.01-1.38.09-2.75.15-4.13.03-.7.11-1.4.12-2.1.01-.74-.04-1.47-.05-2.21,0-.25.05-.51.06-.76.04-.79.06-1.57.1-2.36.04-.74.1-1.47.12-2.21.01-.34-.06-.68-.07-1.01-.01-.66,0-1.32,0-1.98.08,0,.15-.01.23-.02Z"/>
      <path class="cls-1" d="M32.35,56.75c.43.22.07.71.16,1.09.03.14,0,.3.02.45.03.35.08.69.09,1.04.01.34-.25.45-.51.44-.22,0-.37-.06-.34-.45.08-.87-.03-1.75-.04-2.63,0-.96.04-1.91.04-2.87,0-1.5-.02-2.99-.02-4.49,0-.82.03-1.64.04-2.46.01-.64.02-1.29.03-1.93,0-.2-.04-.4-.03-.6.01-.19.08-.39.09-.58.02-.35.01-.7.02-1.05,0-.15-.02-.31-.01-.46.02-.49.05-.99.07-1.48.03-.78.07-1.55.08-2.33,0-.22-.07-.44-.08-.67-.02-.35,0-.7-.02-1.06-.01-.4-.05-.79-.07-1.19-.03-.47-.04-.94-.08-1.4-.06-.78-.15-1.56-.18-2.34-.01-.44.09-.89.14-1.38-.44-.2-.13-.66-.11-1,.02-.34-.24-.77.22-1.03-.39-.28-.22-.65-.17-1,.02-.11.08-.24.04-.33-.24-.59-.18-1.19-.1-1.8.03-.24-.01-.49.05-.74.01.08.03.16.05.25.26.02.6-.08.66.34.7.27-.31.41-.03.66.06-.03.13-.06.2-.09,0,.15-.02.28-.03.42h-.39c.03.08.03.15.06.16.75.4.31,1.1.4,1.66.02.11-.33.28-.56.35,0,.02-.02.07-.01.07.59.26.38.89.61,1.32.08.15.01.37-.08.56-.07-.24-.15-.48-.22-.72-.04.01-.09.03-.13.04.04.5,0,.99.4,1.43.22.24.25.58-.03.89-.25.27-.24.6-.05.92.16.27.2.54-.04.68.1.6.21,1.16.27,1.73.05.47.04.95.06,1.43,0,.05,0,.1,0,.15-.12.76.05,1.51.09,2.27.02.46,0,.92-.03,1.37,0,.11-.15.22-.24.35.27.58.32,1.23.21,1.9-.02.09.02.2.04.29.02.11.08.22.07.33-.07,1.37-.17,2.74-.21,4.12-.03,1,.03,2,.03,3,0,.83-.04,1.66-.08,2.49,0,.15-.12.29-.14.34.04.26.09.43.09.61.01.48.02.96.01,1.44,0,.3-.02.61-.07.91-.03.18-.15.35-.25.57Z"/>
      <path class="cls-1" d="M32.07,60.74c.45.09.43.33.32.62-.06.15-.09.32-.09.48-.03,1.58-.02,3.16-.1,4.74-.03.55-.17,1.08.03,1.62,0,.02,0,.05,0,.08-.27.87-.07,1.75-.12,2.63-.03.59.13,1.16.17,1.74.05.72.04,1.45.08,2.17.04.63.13,1.25.18,1.88.04.47.03.95.05,1.42.02.42.04.83.08,1.25.06.68.13,1.36.19,2.05.04.46.05.93.07,1.39,0,.04-.04.09-.06.13-.01.01-.05.01,0,0-.13-.62-.27-1.23-.38-1.85-.05-.27,0-.55-.04-.82-.02-.15-.13-.28-.22-.46.14-.27.27-.58-.05-.89-.04-.04-.07-.16-.04-.21.14-.28.01-.55-.01-.82-.08-.77-.23-1.54-.28-2.31-.09-1.31-.12-2.62-.18-3.92-.02-.33-.25-.66.06-.97.01-.01,0-.05-.01-.07-.33-.49-.16-1.05-.18-1.57-.03-.73.07-1.47.1-2.2.02-.53,0-1.07.02-1.6.02-.43.13-.86.15-1.29.02-.34-.03-.69-.04-1.04,0-.09-.02-.18,0-.26.18-.73.09-1.46.03-2.19,0-.06-.04-.13-.02-.19.05-.14.11-.28.17-.42.16.09.39.15.45.28.05.12-.08.33-.15.5,0,.03-.05.04-.15.11Z"/>
      <path class="cls-1" d="M42.11,37.04c.22.37.33.76,0,1.25-.06-.14-.14-.24-.15-.33-.02-.6-.03-1.19-.05-1.79-.01-.41-.07-.81-.05-1.22.04-.91-.18-1.84-.05-2.73.15-1.06-.04-2.13.19-3.18.05-.22.2-.47.14-.66-.11-.35.14-.7,0-.98-.13-.27-.09-.39.02-.63.12-.25.04-.59.04-.88,0-.32.05-.39.41-.51-.01.2-.03.38-.03.56-.05,1.07-.1,2.14-.16,3.22-.02.29-.12.57-.14.86-.04.57-.11,1.15-.05,1.71.05.49.03.95-.05,1.44-.09.55-.03,1.12,0,1.68,0,.14.17.27.23.42.21.45.04,1.38-.33,1.77Z"/>
      <path class="cls-1" d="M29.07,27.45c-.08-.2-.17-.37-.21-.55-.03-.15,0-.31,0-.47.15.02.32,0,.44.07.44.23.53.78.16,1.21-.05-.37.32-.91-.41-.99.21.65.4,1.25.6,1.88-.12.01-.24.02-.4.04.04.08.06.14.1.18.32.29.43.75.24,1.11-.04.08-.19.18-.22.16-.17-.11-.45-.24-.46-.39-.05-.45.01-.91.02-1.37,0-.07-.07-.14-.11-.21-.16-.27-.08-.57.25-.68Z"/>
      <path class="cls-1" d="M32.31,23.29c.1-.09.18-.16.32-.27v1.09c-.28-.03-.55-.05-.81-.09-.26-.04-.36-.14-.26-.45.08-.26.02-.56.02-.86q.19-.03.74.58Z"/>
      <path class="cls-1" d="M28.95,30.82c.14.27.28.51.38.76.05.11.01.26.01.39-.18-.06-.49-.08-.52-.18-.1-.37-.13-.76-.13-1.15,0-.12.2-.32.33-.33.18-.02.37.1.55.17-.04.08-.05.21-.11.24-.15.06-.31.07-.51.1Z"/>
      <path class="cls-1" d="M29.22,26.18c-.35-.12-.72-.1-.7-.49.01-.25.23-.34.49-.28.23.05.49.08.46.39-.02.14-.17.27-.24.38Z"/>
      <path class="cls-1" d="M58.62,82.96c-.05-.22-.12-.43-.15-.65-.01-.07.07-.16.11-.24.05.06.14.11.15.18.02.24,0,.48,0,.72h-.11Z"/>
      <path class="cls-1" d="M34.65,6.41c-.19.13-.38.27-.58.39-.03.02-.1-.04-.15-.07.05-.09.09-.22.16-.25.17-.07.35-.08.53-.12.01.02.02.04.03.06Z"/>
      <path class="cls-1" d="M69.86,52.88c-.24.29-.5.56-.71.87-.2.28-.28.65-.67.77-.03.01,0,.22,0,.33.05.01.1.02.15.03-.21.22-.42.45-.67.71-.03-.16-.06-.26-.08-.36-.04,0-.07,0-.11,0,0,.13.02.27,0,.4-.02.13-.06.27-.13.38-.09.15-.2.29-.32.41-.08.07-.2.12-.3.13-.05,0-.11-.11-.17-.17.09-.07.17-.15.27-.21.06-.04.14-.04.26-.07-.1-.08-.16-.13-.25-.21.14-.08.26-.15.37-.22-.06-.39.15-.7.8-1.13-.06-.11-.12-.21-.14-.26.42-.57.82-1.11,1.24-1.69-.1-.07-.18-.13-.3-.22.12-.03.19-.08.24-.06.32.14.43-.08.46-.31.04-.33.15-.58.45-.75.04-.02.06-.08.07-.13.04-.25.04-.26.41-.16-.32.61-.63,1.21-.94,1.81-.01.02.06.08.09.12,0,0,0,0,0,0Z"/>
      <path class="cls-1" d="M65.97,58c.24-.26.48-.52.79-.86-.04.53-.53.96-.79.86Z"/>
      <path class="cls-1" d="M56.02,64.93c-.1.13-.19.26-.29.39-.06-.05-.12-.1-.19-.15.11-.12.21-.24.32-.36.05.04.1.08.15.12Z"/>
    </g>
  </g>
</svg>