<?xml version="1.0" encoding="UTF-8"?>
<svg id="Layer_2" data-name="Layer 2" xmlns="http://www.w3.org/2000/svg" viewBox="0 0 81.17 63.08">
  <defs>
    <style>
      .cls-1 {
        fill: #000;
        stroke-width: 0px;
      }
    </style>
  </defs>
  <g id="illustrations">
    <g>
      <path class="cls-1" d="M45.91,41.87c.02.23.03.39.04.54.02,0,.04,0,.06,0,.04-.06.09-.13.13-.19.43.11.58.33.56.73,0,.09.09.23.16.26.41.14.55.48.7.83.06.14.16.27.24.4.05.08.17.19.15.22-.06.1-.17.17-.26.24-.03.02-.08.03-.12.05.1.42.22.82.27,1.23.02.18-.11.37-.17.56.12-.11.25-.23.38-.36.05.25,0,.36-.19.48-.12.07-.25.12-.36.19-.1.06-.24.11-.27.19-.09.3-.39.38-.57.58-.22.24-.49.4-.78.56-.28.16-.51.41-.75.63-.15.14-.28.26-.52.28-.15.01-.29.18-.42.31-.16.16-.27.37-.44.52-.14.13-.33.21-.49.33-.51.39-1.01.79-1.51,1.19-.14.11-.3.2-.41.33-.26.29-.51.6-.76.9-.14.16-.25.3-.49.36-.24.06-.42.32-.66.45-.47.26-.95.49-1.44.73-.15.07-.31.09-.45.17-.32.18-.65.29-1.02.29-.15,0-.31.1-.44.18-.21.12-.38.06-.54-.07-.12-.1-.22-.15-.4-.13-.23.03-.47-.07-.71-.11-.81-.12-1.6-.28-2.36-.62-.22-.1-.47-.2-.74-.07-.08.04-.22-.05-.34-.06-.35,0-.7.01-1.05,0-.21,0-.42-.04-.64-.06.04.03.07.07.1.1,0,.01-.01.02-.02.04-.24-.12-.48-.26-.72-.37-.31-.14-.5-.4-.69-.66-.07-.1-.25-.13-.39-.17-.09-.03-.2,0-.28-.04-.85-.4-1.7-.81-2.55-1.21,0,.03-.01.07-.02.1-.07.04-.14.12-.2.11-.46-.04-.91,0-1.34-.26-.42-.24-.87-.42-1.32-.59-.45-.18-.93-.29-1.38-.47-.58-.23-.98-.68-1.18-1.26-.09-.26-.05-.58-.01-.86.02-.13.01-.2-.08-.28-.11-.1-.17-.2-.05-.35.04-.05.03-.16.03-.24-.01-.2-.06-.39-.05-.59,0-.09.1-.23.18-.25.26-.05.21-.21.19-.38-.01-.11.01-.22.02-.38-.18-.14-.24-.11-.48.1-.13.11-.34.15-.52.16-.53.04-1.07.07-1.6.06-.26,0-.52-.08-.78-.13-.04,0-.08-.02-.12-.02-.15,0-.31.03-.46,0-.2-.04-.38-.21-.61-.04-.05.04-.18-.01-.26-.05-.38-.17-.78-.28-1.19-.36-.21-.04-.44-.16-.63-.11-.29.08-.55,0-.82-.05-.03,0-.06,0-.08-.01-.34-.24-.75-.19-1.12-.31-.55-.17-1.07-.42-1.61-.63-.04.03-.08.11-.11.1-.11-.02-.22-.07-.4-.12-.24.12-.74-.15-.76-.43-.44-.25-.85-.46-1.24-.71-.09-.06-.14-.2-.17-.32-.16-.6-.46-1.17-.42-1.82,0-.09,0-.17.01-.26,0-.03.02-.06.07-.16.34.38.15.91.51,1.29-.1-.4-.15-.76-.29-1.08-.4-.87-.45-1.78-.36-2.71.05-.46,0-.92,0-1.39-.11,0-.21.01-.31.02.1-.26.1-.26.41-.17.02-.07.05-.14.08-.21.16-.38.44-.6.82-.75.23-.09.45-.28.6-.48.16-.23.32-.43.59-.53.06-.02.11-.08.16-.12.47-.33.93-.66,1.4-.99.39-.27.76-.57,1.17-.8.83-.47,1.58-1.06,2.45-1.47.7-.33,1.3-.86,1.95-1.29.28-.18.58-.33.86-.52.54-.38,1.06-.79,1.61-1.16.42-.28.88-.52,1.32-.79.09-.06.18-.14.25-.22.38-.46.92-.7,1.4-1.02.21-.14.36-.3.36-.58,0-.18.1-.29.29-.34.09-.02.23-.13.23-.21,0-.54.33-.94.56-1.37.11-.21.25-.42.34-.64.05-.12.11-.15.21-.22.45-.3.94-.23,1.42-.22.16,0,.21-.04.23-.19.05-.37.11-.75.18-1.12.03-.2.13-.32.35-.34.39-.03.79-.05,1.17-.1.55-.08,1.09-.2,1.63-.3.63-.12,1.02-.62,1.51-.96.43-.29.83-.63,1.23-.96.31-.26.59-.56.92-.81.72-.56,1.46-1.1,2.2-1.64.21-.15.43-.28.68-.37-1.51,1.19-3.01,2.38-4.44,3.69h2.63s0-.06,0-.09c-.14-.01-.27-.03-.41-.04-.19-.02-.38-.01-.56-.05-.08-.01-.15-.09-.23-.14.09-.03.18-.08.26-.07.23.03.47.05.68.14.64.27,1.31.32,1.98.37.97.09,1.9.37,2.85.58.6.13,1.21.26,1.79.47.8.28,1.45.75,1.68,1.64.04.16.16.29.24.44.08.15.15.31.2.47.1.3.12.64.46.82.05.03.04.17.06.26l-.07.02c-.1-.08-.2-.16-.35-.28.04.3.2.43.37.57.37.32.65.7.66,1.21,0,.09-.06.2-.12.25-.21.16-.3.38-.37.62-.02.07-.05.17-.01.22.12.17.01.29-.07.41-.2.29-.4.58-.57.91.58-.32,1.16-.63,1.73-.96.54-.3,1.07-.62,1.6-.92.5-.29,1-.59,1.52-.84.3-.15.63-.22.94-.32.19-.06.39-.11.39-.37.49.4,1.05.42,1.61.4.65-.02,1.17.22,1.66.62.48.39,1.08.53,1.7.56.07,0,.18,0,.21.05.13.21.34.24.55.27.43.07.88.11,1.3.21.42.1.83.25,1.24.39.1.03.18.12.27.19.06-.14.11-.33.21-.48.08-.12.24-.28.33-.26.14.04.25.2.36.32.02.02.01.11-.01.14-.04.03-.1.05-.16.05-.05,0-.1-.05-.19-.09.05.26-.05.51.16.7q.3-.2.04-.42c.47-.11.35-.59.57-.89.08.17.16.33.24.5.07.16.11.31-.08.43,0,0,.05.16.07.16.91,0,1.73.34,2.57.6.19.06.39.11.58.11.38,0,.74.08,1.08.26.06.03.18,0,.26-.03.47-.18.95-.13,1.37.08.29.14.42.5.46.83.07.63.12,1.26.14,1.89,0,.23-.03.47-.05.7-.02.21-.17.44-.32.62-.55.66-1.1,1.31-1.7,1.93-.6.63-1.23,1.22-1.86,1.81-.62.57-1.28,1.09-1.89,1.67-.37.35-.8.6-1.22.87-.6.39-1.2.8-1.74,1.26-.35.3-.7.55-1.13.73-.98.41-1.99.68-3.06.75-.66.04-1.31-.04-1.96-.06-.55-.01-1.11.13-1.64.28-.39.11-.68.06-.95-.23-.06-.07-.17-.1-.28-.16ZM31.82,41.76h0s.01.05,0,.07c-.45.45-.91.89-1.51,1.14-.07.03-.19.11-.18.15.05.23-.05.26-.24.23-.05,0-.1.05-.15.08-.27.18-.53.38-.82.53-.54.27-1.1.49-1.65.74-.09.04-.17.1-.26.15-.07.03-.15.06-.2.08-.04.05-.08.12-.13.16-.05.04-.13.05-.18.08-.17.13-.32.3-.51.39-.79.37-1.59.72-2.39,1.06-.85.35-1.65.81-2.56,1.01-.28.06-.53.21-.77.3.1.22.18.4.26.57.09.19.13.44.28.56.27.21.59.39.92.5.6.2,1.22.35,1.82.52.34.1.68.21,1.05.33.07-.61.41-1.04.74-1.48.1-.13.16-.29.24-.44.16-.13.3-.28.44-.44.14-.16.25-.42.42-.46.43-.12.64-.54,1.04-.67.05-.02.12-.18.1-.22-.12-.2-.02-.26.15-.3.19-.05.39-.08.56-.15.3-.12.46-.48.82-.5,0,0,.01-.01.02-.02.41-.24.81-.48,1.22-.72.14-.08.3-.14.41-.24.2-.19.34-.43.55-.6.28-.23.52-.57.97-.46.04.01.1-.02.14-.05.31-.18.62-.37.93-.55.06-.04.13-.07.2-.1.15-.06.29-.12.44-.18.13-.03.29-.03.37-.12.26-.28.61-.39.95-.53.28-.11.56-.26.83-.4.23-.12.39-.27.15-.54h-.54s-.01-.04-.02-.06c.16-.06.32-.12.47-.18,0-.12.05-.27,0-.35-.25-.37-.53-.72-1.05-.72-.09,0-.19-.09-.27-.15-.19-.12-.36-.28-.57-.37-1.05-.43-2.09-.28-3.12.09-.23.08-.43.22-.65.32-.19.08-.39.11-.58.19-.72.33-1.44.63-2.18.89-.62.22-1.21.57-1.77.92-.43.26-.86.46-1.34.59-.48.13-.98.27-1.42.51-.88.47-1.43,1.29-1.99,2.02-.17.03-.35.02-.46.1-.18.12-.14.32-.05.5.15.29.13.55-.13.75.33.63.77.76,1.3.34.3-.24.65-.3.97-.44,1.31-.61,2.61-1.25,3.91-1.88.55-.27,1.08-.55,1.63-.81.27-.13.58-.19.85-.33.68-.37,1.35-.77,2.02-1.15.17-.1.35-.19.53-.28ZM18.61,39.78h0c-.18.23-.36.46-.54.69-.12.16-.34.25-.34.5,0,.05-.09.1-.14.14-.34.3-.69.59-1.01.91-.2.2-.35.46-.64.55-.05.02-.12.05-.14.1-.16.29-.32.58-.49.9.27,0,.5,0,.74,0,.68,0,1.36.02,2.03-.03,1.04-.07,2.07-.21,3.08-.48.19-.05.41-.04.57-.12.43-.22.84-.51,1.27-.73.44-.22.76-.65,1.27-.76.03,0,.05-.04.07-.07.22-.27.43-.55.67-.8.44-.46.8-.96,1.03-1.57.08-.21.26-.39.4-.59.03.01.06.03.09.04-.03.21,0,.46-.1.63-.32.53-.69,1.03-1.03,1.55-.12.18-.2.38-.31.6.3-.13.59-.2.81-.36.43-.31.78-.65.89-1.24.12-.69.32-1.36.23-2.07-.08-.61-.26-1.13-.8-1.5-.2-.14-.34-.38-.46-.61-.14-.28-.21-.61-.62-.6-.07,0-.14-.06-.21-.09-.76-.39-1.38-.93-1.85-1.65-.22-.35-.5-.65-.74-.99-.11-.16-.23-.33-.29-.51-.11-.31-.07-.67-.28-.96-.08-.11-.1-.26-.15-.38-.18.07-.32.12-.47.18-.02-.02-.05-.03-.07-.05.05-.12.11-.24.15-.36.12-.35.32-.62.7-.72.05-.01.13-.08.13-.1-.09-.42.11-.75.31-1.07.12-.18.05-.28-.07-.4-.13-.14-.25-.3-.37-.45.03-.02.05-.05.08-.07.21.19.41.38.62.57.14-.1.27-.2.36-.26-.14-.17-.3-.31-.41-.49-.16-.28-.28-.59-.44-.87-.05-.08-.2-.15-.31-.15-.08,0-.22.13-.22.2,0,.19.05.37.08.54-.23-.22-.55-.19-.72.13-.07.13-.3-.04-.26.19-.27-.16-.35.03-.44.23.04.02.09.04.13.06-.12.08-.27.07-.35.14-.25.22-.47.48-.72.7-.13.11-.28.2-.43.28-.21.12-.45.19-.63.33-.95.76-1.88,1.55-2.84,2.3-.45.35-.96.62-1.44.93-.04.03-.09.08-.1.13-.03.15-.12.17-.26.19-.23.02-.49,0-.59.23.96,0,1.93,0,2.89,0,.37,0,.75-.03,1.12-.03.13,0,.34-.02.38.05.1.18.14.41.2.62-.18,0-.3-.01-.41,0-.41.05-.83.15-1.24.15-.96,0-1.92-.05-2.88-.04-.4,0-.82.05-1.19.18-.34.12-.64.37-.95.58-.57.38-1.14.77-1.69,1.18-.3.22-.61.45-.85.73-.44.55-.83,1.14-1.24,1.71-.04.06-.08.12-.09.18-.05.31-.13.63-.11.94.03.44.17.87.21,1.31.06.71.23,1.39.43,2.07.03.09.1.19.17.24.19.14.38.26.59.37.2.1.42.19.64.26.16.05.26-.02.28-.2.01-.13.03-.29.1-.39.28-.41.54-.85.9-1.19.65-.62,1.37-1.17,2.05-1.75.23-.19.5-.36.66-.6.16-.25.37-.27.63-.29-.45.21-.7.61-1.02.95-.13.14-.32.22-.46.36-.52.5-1.04.99-1.54,1.51-.33.34-.6.73-.69,1.21-.06.3.06.46.36.5.46.06.92.12,1.38.18.77.1,1.53.19,2.3.28.18.02.29-.04.41-.19.27-.35.57-.69.89-1,.42-.41.86-.81,1.31-1.19.53-.44,1.07-.87,1.61-1.29.13-.1.29-.16.44-.24ZM40.79,27.6c-.21.04-.36.04-.48.1-.23.11-.45.24-.67.38-.75.49-1.52.9-2.46.83-.1,0-.21,0-.31.03-.28.06-.57.12-.85.18-.58.12-1.16.24-1.74.37-.81.19-1.62.41-2.45.42-.47,0-.95.17-1.4-.11-.02-.01-.05,0-.07,0,.04.07.08.13.12.19-.06.03-.13.08-.19.09-.18.04-.37.07-.56.09-.69.09-1.38.17-2.05-.13-.12-.05-.27-.05-.4-.04-.35.02-.66-.05-.96-.26-.52-.36-1-.8-1.6-1.05-.26-.11-.48-.31-.71-.47.45-.61.84-.41,1.17.03-.18-.02-.33-.04-.49-.06l-.02.09c.17.05.35.12.53.14.3.02.58.04.63.43.06-.02.1-.02.13-.04.36-.18.53-.12.74.22.04.07.12.13.2.15.36.07.72.19,1.08.16.94-.06,1.87-.19,2.81-.3.04,0,.08-.05.13-.09-.11-.16-.21-.3-.31-.44.2-.09.41-.13.56-.26.24-.2.43-.47.65-.69.22-.22.44-.45.69-.64.6-.45,1.28-.81,1.55-1.58.02-.06.11-.11.16-.16.09-.09.18-.19.3-.31-.1-.01-.14-.01-.15-.01.1-.12.24-.22.28-.36.07-.28.1-.56.45-.64.03,0,.06-.06.08-.09.44-.55.9-1.08,1.3-1.65.19-.28.27-.64.4-.96.06-.14,0-.22-.13-.25-.26-.06-.53-.14-.8-.16-.83-.05-1.66-.08-2.49-.11-.28-.01-.57-.03-.85-.04-.55-.02-1.11-.04-1.66-.07-.29-.01-.58-.04-.87-.08-.22-.03-.32.06-.42.24-.2.34-.48.62-.86.74-.45.14-.91.25-1.37.32-.63.1-1.28.17-1.92.2-.48.02-.51,0-.43.48,0,.06.03.12.06.17.16.27.33.54.52.86-.33-.02-.63-.04-.92-.06-.02,0-.06-.02-.07-.04-.11-.2-.28-.14-.45-.13-.15.01-.31.05-.46.04-.2,0-.24.11-.29.27-.08.23-.17.5-.35.66-.3.27-.44.56-.3.94.16.44.41.82.74,1.16.38.41.7.87,1.04,1.31-.02.03-.03.06-.05.09-.33-.27-.48.17-.78.17.11-.08.18-.13.27-.21-.28-.08-.36-.03-.42.18-.04.12-.1.24-.17.34-.16.26-.44.46-.41.81,0,.02-.05.04-.07.07-.05.07-.11.14-.12.22-.05.26.11.47.18.7.06.17.18.32.28.48.07.11.18.22.21.34.06.26.08.54.11.83-.16.04-.25-.08-.33-.23-.04-.09-.09-.19-.15-.27-.2-.27-.4-.53-.61-.79-.06-.08-.16-.13-.26-.21-.12.35-.08.64.16.84.33.27.56.59.78.95.46.75,1.21,1.22,1.89,1.78,0-.02,0,0,0,.01,0,.02-.01.05-.02.07-.12.25-.09.31.19.32.08,0,.16-.04.25-.05.06,0,.13-.01.19,0,.16.05.32.14.49.15.55.04,1.11.02,1.66.09,1.03.12,2.04-.03,3.05-.18.52-.08,1.02-.21,1.54-.27.64-.07,1.28-.08,1.92-.13.23-.02.48-.04.68-.14.62-.3,1.25-.61,1.72-1.15.19-.22.4-.43.61-.62,1.04-.95,2.05-1.93,2.87-3.08.23-.33.45-.66.53-1.14ZM56.65,31.73s.02.04.03.05c-.07.05-.13.12-.21.15-.3.12-.71.02-.8.5-.02.11-.21.18-.33.27-.23.18-.47.34-.68.53-.21.18-.49.17-.71.39-.39.4-.88.7-1.32,1.06-.28.23-.53.49-.8.73-.36.33-.7.68-1.09.97-.69.51-1.27,1.11-1.76,1.81-.02.03-.04.07-.06.11-.1.28-.19.56-.31.83-.05.12-.15.22-.23.32-.18.24-.2.53-.24.82-.04.27.01.5.15.68.71-.53,1.41-1.04,2.07-1.53h-.22c.78-.91,1.79-1.45,2.69-2.16.08.25-.07.46-.26.52-.17.06-.32.17-.46.29-.14.11-.24.27-.37.39-.19.17-.47.3-.59.51-.14.26-.31.44-.53.6-.44.34-.88.68-1.31,1.03-.17.14-.3.31-.44.47.67.05,1.31.12,1.95.15.23.01.46-.02.69-.06.34-.06.67-.15,1.01-.21.22-.04.46,0,.65-.1.57-.27,1.13-.56,1.67-.89.62-.37,1.22-.78,1.83-1.18.33-.22.66-.43.95-.7.6-.56,1.17-1.15,1.75-1.73.07-.07.13-.14.21-.19,1.08-.76,1.88-1.77,2.69-2.79.48-.61.7-1.33.92-2.05.08-.27.07-.58.1-.89-.54.33-1.03.62-1.51.91-.02-.02-.03-.05-.05-.07.07-.05.14-.1.21-.16.36-.26.72-.53,1.09-.77.26-.18.27-.41.21-.67-.07-.33-.16-.5-.54-.5-.49,0-.99.05-1.48.12-.12.02-.25.16-.33.28-.08.12-.1.28-.17.42-.06.13-.14.25-.23.4-.09-.12-.13-.22-.2-.26-.32-.18-.49-.52-.84-.68-.35-.17-.65-.44-1-.64-.14-.08-.35-.15-.48-.09-.56.24-1.1.53-1.64.81-.14.07-.24.22-.37.31-.47.32-.95.62-1.41.94-1.09.74-2.18,1.49-3.27,2.24-.26.18-.51.37-.74.59-.27.26-.5.55-.75.83-.04.04-.1.07-.16.08-.27.02-.45.19-.62.37-.27.28-.57.55-.82.85-.14.17-.3.4-.3.61,0,.39-.06.72-.26,1.04-.25.4-.48.83-.69,1.26-.07.15-.16.21-.3.28-.13.07-.28.19-.32.32-.11.38-.29.75-.25,1.17.01.11-.06.24-.1.39.47.3,1.04.37,1.61.56,0-.34-.04-.65,0-.95.07-.42.26-.82.31-1.24.13-.96.75-1.66,1.28-2.4.3-.41.79-.65,1.08-1.09.02-.03.07-.04.11-.06.12-.07.26-.13.37-.22.36-.29.71-.6,1.07-.9.18-.15.38-.3.57-.43.08-.05.18-.07.27-.12.08-.04.17-.09.23-.15.12-.12.2-.29.33-.38.43-.28.88-.53,1.31-.81.36-.23.69-.51,1.05-.75.27-.18.55-.35.83-.5.33-.18.68-.35,1.02-.52.06-.03.13-.06.23-.1-.1.18-.15.35-.26.45-.19.16-.41.27-.63.38-.11.06-.25.07-.37.1,0,.03.02.06.02.09.07-.01.14-.02.2-.03ZM27.28,40.29l.06.05c.07-.05.13-.11.2-.15.29-.17.49-.54.92-.4.02,0,.08-.02.09-.04.16-.35.57-.23.83-.45.28-.24.75-.26,1.09-.45.49-.26.96-.55,1.49-.69.12-.03.3-.07.36-.01.22.22.49.19.76.23.42.06.84.15,1.24.27.34.11.65.29.98.44.19.08.38.15.58.21.25.08.37.23.27.43.22.14.44.23.6.38.31.32.89.4.91,1,0,.08.11.17.19.23.06.05.14.06.21.09,0,.03,0,.06,0,.09h-1.22c-.16.37.19.39.31.56-.74.44-1.45.88-2.18,1.29-.41.23-.87.38-1.29.59-1.42.7-2.68,1.64-3.94,2.59-.59.45-1.25.81-1.88,1.21-.2.13-.45.22-.6.39-.44.51-.86,1.03-1.26,1.57-.13.18-.18.43-.28.68.26.29.64.46,1.04.58.29.09.58.19.86.29.16.06.3.14.45.2.12-.3.24-.56.32-.82.08-.29.25-.48.53-.59.16-.06.3-.16.45-.24.16-.09.3-.25.46-.27.42-.05.69-.33,1.02-.52.2-.12.38-.26.59-.36.68-.34,1.37-.66,2.06-1,.27-.14.53-.31.8-.45.45-.24.92-.46,1.37-.7.39-.21.76-.47,1.15-.69.49-.27.99-.51,1.48-.75.47-.23.95-.43,1.41-.66.17-.08.33-.2.49-.3.13-.08.26-.21.38-.2.38.02.68-.16.98-.31.52-.25.9-.67,1.29-1.09.12-.13.14-.22.06-.35-.11-.17-.19-.39-.34-.49-.33-.21-.69-.42-1.07-.52-.41-.11-.85-.13-1.27-.15-.23,0-.49.05-.69.15-.25.14-.76.22-1.02.07.09-.4.38-.54.75-.58.19-.02.39-.07.57-.13.16-.05.23-.14.21-.33-.02-.21.02-.41.09-.63.08-.27,0-.6-.03-.9,0-.03-.05-.07-.09-.09-.46-.19-.91-.15-1.36.07-.17.08-.39.14-.58.11-.7-.12-1.27-.47-1.56-1.14-.09-.2-.08-.44-.09-.67-.02-.27.06-.58-.03-.82-.19-.52-.18-1.05-.16-1.58,0-.22,0-.33-.22-.37.03-.08.08-.15.07-.2-.1-.36-.26-.43-.59-.25-.08.05-.17.1-.23.16-.22.23-.45.34-.74.13q-.08.34-.4.41c-.35.07-.7.16-1.05.21-.98.16-1.96.32-2.94.44-.53.06-1.08.09-1.62.04-.7-.06-1.39-.11-2.08.07-.06.02-.14.07-.17.12-.01.03.05.12.09.15.26.18.53.34.8.51.05.03.11.08.14.14.09.22.17.44.28.66.45.93.45,1.88,0,2.82-.11.22-.2.45-.3.67ZM46.46,43.62c-.06-.09-.13-.19-.19-.3-.02-.03-.05-.07-.04-.1.06-.27-.11-.35-.32-.4-.18-.04-.32-.09-.43-.27-.09-.13-.32-.21-.49-.22-.63,0-1.13.29-1.57.73-.23.23-.46.46-.8.58-.63.22-1.25.49-1.86.77-.32.14-.6.35-.92.5-.65.3-1.33.54-1.96.86-.57.29-1.08.69-1.64,1-.53.3-1.07.59-1.63.8-1.06.41-1.98,1.05-2.96,1.6-.53.3-.96.75-1.49,1.04-.63.35-1.02.89-1.38,1.47-.03.04.03.17.08.21.08.05.19.07.3.08.33.04.6.17.81.42.04.04.09.09.14.1.81.14,1.62.29,2.43.06.15-.04.29-.1.42-.19.51-.34.99-.71,1.51-1.02.38-.23.81-.41,1.22-.59.27-.12.56-.19.85-.28.25-.08.49-.16.74-.23.18-.05.39-.05.56-.13.62-.32,1.22-.68,1.84-1.01.86-.45,1.76-.86,2.6-1.34.89-.51,1.74-1.08,2.61-1.62.32-.2.65-.39.98-.57.11-.06.27,0,.3-.21.09-.58.19-1.15.3-1.78ZM50.71,27.43c-.5-.45-1.04-.83-1.71-.95-.16-.03-.3-.02-.38-.2-.02-.04-.12-.07-.18-.06-.17.02-.33.08-.49.11-.51.09-.95.26-1.37.62-.93.8-1.92,1.52-2.9,2.26-.7.53-1.43,1.04-2.13,1.58-.28.21-.52.48-.77.72-.2.19-.41.39-.63.61-.04.01-.17.02-.23.08-.18.19-.42.39-.48.62-.09.35-.32.58-.49.86-.16.26-.35.53-.4.82-.04.24-.1.43-.23.62-.16.23-.38.45-.46.71-.13.43-.34.78-.75,1.1.46.12.87.26,1.3.32.28.04.58-.02.85-.09.23-.06.44-.21.65-.33.03-.02.04-.1.05-.15.01-.09,0-.18.03-.26.25-.51.49-1.02.9-1.43.12-.12.21-.26.32-.39.22.16.28-.08.37-.17.56-.61,1.09-1.26,1.67-1.85.62-.64,1.28-1.25,2.02-1.77.19-.13.38-.26.54-.42.21-.21.38-.47.6-.67.12-.11.32-.12.48-.19.1-.04.23-.07.28-.14.28-.43.78-.57,1.13-.9.26-.25.62-.4.93-.6.09-.06.15-.2.25-.22.41-.09.82-.14,1.28-.21ZM55.64,28.21c-.47-.27-.98-.35-1.49-.22-.39.1-.75.28-1.12.44-.75.32-1.45.72-2.1,1.21-.86.66-1.71,1.32-2.58,1.97-1.22.91-2.46,1.79-3.67,2.72-.28.22-.49.53-.74.8-.17.19-.35.38-.52.57-.16.18-.36.34-.47.55-.12.23-.35.42-.26.75.07.23.08.49.11.73.03.26.2.39.47.37.17-.01.28-.19.25-.44-.01-.12-.05-.23-.08-.35-.09-.3-.19-.6-.27-.91-.07-.27.07-.47.43-.61.19-.07.31.09.41.24.11.16.22.33.32.5.1.16.19.13.31.02,1-.93,2.04-1.79,3.21-2.5.04-.03.07-.08.1-.13.2-.28.51-.37.79-.2-.06.07-.11.16-.18.21-.16.12-.34.21-.5.33-.51.36-1.03.71-1.51,1.1-.72.58-1.47,1.13-1.95,1.96.02.02.03.03.04.04.04,0,.08.02.13.02.51.02.92-.19,1.29-.53.74-.69,1.49-1.37,2.25-2.03.41-.35.89-.64,1.31-.98.44-.35.85-.74,1.27-1.11-.03-.07-.09-.17-.07-.22.06-.13.14-.25.24-.34.28-.26.57-.51.86-.77-.08.03-.17.05-.24.1-.48.33-.95.67-1.42,1.01-.45.33-.88.68-1.31,1.03-.17.14-.27.08-.37-.1.05-.06.1-.12.16-.17.85-.64,1.69-1.28,2.56-1.9.35-.25.75-.41,1.1-.66.47-.34.89-.75,1.45-.94.06-.02.1-.08.16-.12.18-.13.35-.27.54-.38.43-.26.96-.41,1.09-1.06ZM37.34,21.04c-.09,1.13-.72,1.85-1.49,2.5.14.08.23.13.31.18-.16.07-.37.1-.46.22-.28.39-.52.8-.77,1.21-.14.23-.26.48-.42.69-.13.16-.32.27-.47.42-.26.26-.49.55-.75.8-.39.38-.8.73-.98,1.27-.04.12-.04.25-.06.35.36-.02.68-.02.99-.05.07,0,.13-.11.19-.16-.07-.04-.13-.09-.2-.13-.04-.02-.08-.02-.15-.04.05-.03.07-.05.1-.06.84-.33,1.64-.72,2.33-1.32.47-.41,1.02-.72,1.6-.93.99-.36,1.95-.77,2.79-1.42.13-.1.27-.24.31-.39.12-.48.1-.97-.25-1.37-.29-.33-.55-.7-.91-.92-.52-.33-1.11-.56-1.71-.85ZM38.87,49.94s0-.02-.01-.03c-.06.02-.13.03-.19.05-.3.14-.61.28-.9.44-.32.17-.7.17-1.02.37-.25.16-.51.28-.62.58-.01.04-.05.07-.09.09-.35.24-.7.5-1.07.71-.44.25-.92.45-1.37.69-.07.04-.11.13-.17.2.08.05.15.13.24.16.24.07.48.14.72.17.49.06.98.13,1.48.15.42.02.84-.07,1.26-.05.49.03.89-.13,1.27-.4.15-.11.27-.27.39-.42.38-.47,1.08-.56,1.35-1.15,0-.01.02-.02.04-.03.44-.33.91-.61,1.31-1,.32-.31.69-.56,1.04-.84.15-.12.29-.25.07-.41.15-.09.29-.16.4-.26.48-.43.97-.83,1.56-1.12.17-.08.28-.28.42-.42-.02-.02-.04-.04-.06-.06-.05.03-.11.04-.15.08-.49.33-.97.68-1.47,1-.45.28-.89.59-1.38.77-.69.25-1.37.53-2.02.87-.36.19-.73.35-1.12.49-.26.09-.54.11-.81.16,0-.03-.02-.05-.03-.08.31-.23.62-.46.93-.69ZM49.37,29.05c-.46.23-.92.43-1.35.69-.49.3-.96.63-1.43.97-.37.27-.72.55-1.06.85-.27.24-.49.54-.77.77-.32.26-.59.6-1.01.72-.08.02-.15.09-.2.15-.23.25-.49.46-.64.79-.1.23-.37.36-.34.7.02.26.18.37.34.48.04.03.21-.07.28-.14.63-.65,1.22-1.35,1.88-1.97.5-.47,1.09-.83,1.63-1.25.38-.3.74-.62,1.11-.92.08-.06.17-.12.26-.17.12-.07.25-.13.37-.22.63-.47,1.24-.97,1.88-1.42.38-.26.83-.44,1.25-.65.44-.21.9-.41,1.35-.61.19-.08.38-.17.56-.25-.01-.02-.02-.05-.03-.07-1.51.17-2.82.95-4.27,1.49.12.04.16.05.2.06ZM37.18,34.61s.05.03.08.04c.14-.24.29-.47.41-.72.09-.17.13-.36.4-.3.06.01.17-.05.22-.11.13-.16.27-.32.36-.5.2-.39.48-.72.82-1.01.17-.14.29-.35.42-.54.13-.2.2-.45.5-.49.06,0,.12-.07.16-.12.62-.77,1.39-1.37,2.17-1.97.74-.57,1.48-1.15,2.22-1.71.7-.53,1.35-1.15,2.26-1.32.03,0,.06-.03.12-.08-.07,0-.11,0-.14,0-.54.21-1.1.38-1.62.63-.67.32-1.34.65-1.95,1.07-.74.52-1.54.97-2.18,1.67-.42.46-1.04.72-1.55,1.1-.25.19-.45.44-.66.66-.02.02-.02.06-.03.09-.02.09,0,.2-.06.25-.24.24-.49.48-.75.7-.06.06-.18.1-.26.08-.27-.06-.39,0-.4.27-.01.3-.06.57-.41.68-.07.02-.11.16-.14.25-.14.39-.29.77-.04,1.18.03.05.02.13.04.19ZM40.95,38.4c.02.14.05.22.04.29-.01.24-.03.48-.05.73,0,.1-.05.2-.05.3-.01.23.15.36.29.53.38.44.81.65,1.39.56.06-.01.14.02.19.05.42.26.79.57,1.05,1,.04.06.14.13.21.12.25-.02.49-.06.74-.12.06-.01.14-.14.13-.18-.06-.18-.14-.37-.25-.52-.2-.29-.3-.59-.16-.93.01-.04.03-.09.02-.11-.08-.14-.16-.28-.24-.42-.19-.3-.4-.35-.73-.18-.1.05-.22.11-.33.12-.08,0-.2-.05-.23-.11-.03-.06.01-.17.04-.25.06-.16.13-.32.2-.48-.02-.02-.05-.04-.07-.05-.12.03-.24.06-.36.09-.3.07-.59.16-.9,0-.28-.14-.57-.26-.92-.41ZM40.63,25.21s-.09.05-.13.09c-.24.2-.46.44-.73.61-.3.2-.61.43-.95.48-.28.05-.54.05-.81.2-.97.55-1.96,1.07-2.94,1.6-.08.04-.14.1-.28.2.11,0,.15,0,.18,0,.6-.12,1.21-.23,1.81-.36.6-.14,1.21-.26,1.79-.47.64-.24,1.24-.58,1.86-.86.23-.1.33-.21.25-.5-.08-.3-.04-.64-.06-.97ZM20.92,43.62c-.41.12-.83.23-1.25.37-1.09.36-2.2.54-3.34.56-.13,0-.27.07-.4.1,0,.04,0,.08.01.13.34.07.68.18,1.02.18.6,0,1.19-.08,1.79-.11.24-.01.49-.03.7.04.18.06.33.24.51.37.35-.59.66-1.13.96-1.65ZM41.88,35.17c-.42.19-.87.71-.92,1.06-.05.36-.07.74-.17,1.09-.07.27.05.37.24.45.11.05.24.08.36.11.2.06.29.02.31-.22.05-.82.12-1.65.18-2.49ZM56.5,28.37c-.08.09-.15.17-.22.25-.21.22-.39.48-.63.66-.41.31-.86.58-1.29.87-.26.17-.51.35-.79.55.07,0,.11.01.21.02-.67.47-1.29.89-1.92,1.33.04,0,.06.02.07.01.97-.61,1.94-1.22,2.9-1.84.48-.31.93-.66,1.4-.98.23-.16.39-.59.27-.86ZM47.98,35.38c-.07.02-.11.02-.13.04-.27.27-.56.53-.81.82-.51.61-.93,1.3-1.56,1.8-.04.03-.06.12-.05.18.03.2.17.28.36.33.19.05.22-.08.3-.17.07-.09.14-.2.2-.3.36-.63.7-1.26,1.07-1.88.17-.28.4-.52.63-.82ZM15.5,30.44c-.74.51-1.55.92-2.16,1.59.17-.07.3-.2.45-.29.33-.21.68-.39,1-.61.27-.19.59-.33.71-.69ZM41.01,25.29s-.05.05-.08.07c.06.22.14.44.36.56.06.03.15,0,.23-.02,0-.06,0-.15-.03-.18-.15-.15-.32-.29-.48-.43ZM45.3,39.13c.13.26-.04.63.3.86.02-.38.05-.69-.3-.86ZM12.98,44.41s0,.06-.01.08c.42.04.85.09,1.27.13,0-.04,0-.07.01-.11-.42-.04-.85-.07-1.27-.11ZM44.73,40.07l.08-.04c-.07-.19-.12-.39-.21-.56-.02-.04-.18,0-.28,0-.02.03-.04.07-.06.1.43-.05.26.37.47.5ZM29.19,20.72c-.39-.2-.43-.18-.62.2.22-.07.42-.14.62-.2ZM22.71,29.95s-.03.02-.05.03c.2.32.4.64.6.97.03-.02.05-.04.08-.05-.21-.32-.42-.63-.64-.95ZM44.11,38.31c0,.14,0,.25.02.35,0,.04.06.09.09.09.04,0,.1-.05.11-.08,0-.14.04-.31-.21-.37ZM45.8,46.84l-.09-.1-.41.34s.05.06.07.09c.14-.11.28-.22.42-.33ZM49.51,25.74s-.03.05-.05.08c.17.1.33.21.5.31.02-.02.03-.05.05-.07-.17-.11-.33-.21-.5-.32Z"/>
      <path class="cls-1" d="M81.07,21.95c.04-.56.03-1.14.07-1.7.06-.69.1-1.43-.47-1.93-.15-.13-.16-.29-.1-.42-.05-.01-.1-.02-.15-.04-.67-.23-1.35-.46-2.02-.7-.21-.07-.42-.15-.62-.24-.49-.22-.99-.44-1.48-.66-.81-.36-1.66-.67-2.19-1.45-.24-.35-.51-.69-.72-1.06-.3-.52-.23-1.05.15-1.48.43-.5.9-.98,1.42-1.37.48-.36,1.06-.6,1.59-.9.64-.37,1.25-.77,1.91-1.11.81-.42,1.25-1.04,1.37-1.94.08-.66.11-1.34.43-1.95.02-.05,0-.12,0-.18-.01-.14-.04-.29-.05-.43,0-.13.05-.27.02-.38-.05-.18-.02-.3.11-.43.06-.07.13-.24.09-.28-.25-.3-.52-.59-.8-.87-.36-.35-.9-.44-1.23-.88-.18-.23-.47-.38-.72-.56-.04-.03-.09-.05-.14-.05-.42.02-.78-.17-1.14-.34-.21-.09-.43-.2-.69-.14-.15.03-.32-.04-.47-.08-.54-.13-1.07-.34-1.61-.37-.9-.05-1.81.02-2.72.05-.06,0-.12.03-.17.06-.44.26-.91.49-1.31.8-1.16.88-1.89,2.11-2.54,3.37-.41.8-.85,1.58-1.49,2.21-.62.62-1.3,1.2-1.96,1.79-.12.1-.27.17-.43.21-.23.07-.47.11-.7.14-.77.12-1.54.25-2.31.36-.39.06-.79.08-1.18.12-.37.03-.75.13-1.1.05-.4-.08-.77-.03-1.16.02-.11.02-.22,0-.33-.01-.13,0-.25-.01-.38-.02-.71-.03-1.42-.01-2.11-.22-.17-.05-.39.04-.58.08-.1.02-.23.09-.31.06-.41-.17-.73.05-1.06.2-.29.14-.55.33-.82.51-.08.06-.15.16-.17.25-.04.11-.02.24-.03.38-.06-.01-.12-.02-.16-.03-.51-.2-1.01-.42-1.52-.62-.44-.17-.89-.34-1.34-.49-.14-.05-.3-.08-.45-.07-.41.05-.82.12-1.23.2-.26.05-.51.19-.76.17-.27-.02-.48.08-.71.14-.23.05-.46.1-.68.16-.11.03-.21.1-.3.16-.13.08-.26.22-.4.23-.65.06-1.3.1-1.95.1-.5,0-.99-.08-1.49-.08-.44,0-.69.31-.69.71-.13.08-.33.13-.38.24-.17.38-.3.78-.42,1.18-.2.63-.15,1.23.25,1.78.09.12.1.29.12.39-.17,0-.32-.02-.45.01-.03,0-.01.2-.01.3,0,.02,0,.03,0,.05.05.35-.03.74.29,1.02.05.05.03.17.08.24.08.14.16.29.28.38.17.13.37.22.56.32,0-.04,0-.1,0-.16.02-.18.25-.31.4-.22.17.1.33.2.5.31,0,.03-.06.12-.03.16.1.18.2.38.35.52.33.3.76.41,1.18.53.1.03.2.07.31.08.19.03.39.01.58.06.84.2,1.69.36,2.56.38.61.01,1.2.02,1.8.23.45.16.96.16,1.45.17.45,0,.89-.08,1.34-.11.53-.04,1.06-.02,1.58-.09.61-.08,1.2-.21,1.81-.33.8-.15,1.55-.46,2.21-.94.82-.61,1.52-1.33,2.14-2.14.1-.13.18-.3.21-.46.07-.49.12-.99.16-1.48.01-.17-.06-.33-.3-.27v-.24c-.06.08-.08.12-.11.17-.06-.04-.11-.08-.2-.15,0,.09,0,.14.01.19,0,.06.02.11.02.17-.06.91-.46,1.64-1.16,2.21-.32.26-.65.48-1.04.65-.45.19-.87.48-1.27.78-.44.33-1.03.25-1.46.58,0,0-.02,0-.03,0-.34.08-.69.12-1.01.24-.43.16-.86.2-1.31.14-.3-.04-.62-.01-.92.02-.39.04-.78.16-1.16.16-.59,0-1.19-.02-1.77-.1-1.11-.17-2.21-.4-3.32-.58-.78-.13-1.54-.35-2.25-.7-.17-.08-.35-.14-.53-.22.05-.22.18-.32.41-.32.34,0,.68,0,1.03,0-.06-.15-.03-.24.16-.19.07.09.12.23.2.25.18.06.39.11.58.07.47-.09.93-.17,1.42-.07.42.09.85.12,1.27.18.05,0,.15.04.15.06,0,.22.17.2.3.22.51.07,1.02.13,1.53.19.32.04.65.11.97.1.63-.02,1.27-.05,1.89-.14.46-.06.96.02,1.39-.26.18-.11.38-.19.57-.29.19-.1.38-.19.56-.3.04-.02.08-.11.07-.14-.02-.05-.08-.11-.14-.13-.07-.02-.15-.02-.23-.02-.54.05-1.09.09-1.63.15-.66.08-1.33.26-1.99.24-.86-.02-1.72-.2-2.58-.3-.41-.05-.81-.09-1.22-.13-.17-.02-.34-.04-.5-.06.17-.13.32-.23.5-.27.37-.09.74-.14,1.11-.22.97-.2,1.93-.39,2.89-.61.45-.1.92-.18,1.32-.39.68-.35,1.33-.78,1.96-1.22.35-.24.62-.58.8-.99.12-.27.37-.48.58-.7.2-.2.45-.35.65-.56.12-.13.2-.17.36-.07.12.08.27.09.41.14.43.14.86.29,1.29.44.16.05.18.15.09.3-.18.29-.34.6-.52.89-.55.88-1.25,1.63-2.11,2.22-.13.09-.22.26-.27.41-.06.17.09.3.27.25.09-.02.18-.07.26-.12.25-.17.47-.38.74-.51.45-.23.75-.59,1.02-.99.17-.25.29-.56.65-.64-.17-.14-.14-.34.1-.6,0,.15-.02.27,0,.39.03.12.09.23.16.33.02.03.12.03.16,0,.25-.13.49-.26.73-.39-.05-.46-.42-.65-.74-.87.01-.02.02-.04.04-.05h.32s.02-.05.02-.07c-.1-.05-.21-.11-.29-.15.07-.13.13-.27.21-.42-.11-.04-.18-.05-.23-.09-.38-.36-.87-.53-1.33-.75-.21-.1-.27-.29-.33-.5.47.03.92.08,1.38.08.71,0,1.42.07,2.13.02.28-.02.58.05.86.02.59-.08,1.18-.18,1.77-.3.42-.08.84-.17,1.24-.31.26-.09.5-.26.74-.4.2-.12.37-.25.63-.27.2-.01.4-.18.56-.33.67-.63,1.36-1.26,1.98-1.94.24-.26.63-.47.59-.93,0-.03.03-.06.05-.09.07-.12.17-.24.21-.37.33-1.07.86-2.03,1.53-2.92.4-.53.91-.91,1.62-.92.46,0,.92-.03,1.39-.04.07,0,.14.01.21.02-.05.07-.11.12-.17.12-.25,0-.48.03-.7.19-.17.13-.41.28-.59.24-.25-.05-.33.1-.5.18.29-.02.52-.03.76-.04.06,0,.12-.02.17-.04.45-.13.89-.28,1.35-.38.83-.17,1.67-.25,2.5,0,.6.19,1.2.4,1.8.63.07.02.14.19.12.25-.14.44-.29.87-.46,1.3-.04.11-.14.25-.25.27-.73.2-1.47.46-2.22.54-1.23.13-2.39-.33-3.55-.67-.29-.09-.43-.37-.24-.6.17-.22.08-.39.06-.59-.01-.18-.15-.2-.28-.16-.52.16-.71.69-.49,1.18.22.48.62.72,1.06.9.69.27,1.39.5,2.1.71.42.12.84.16,1.29.02.54-.16,1.09-.26,1.64-.36.33-.06.61-.11.88-.41.5-.57.8-1.18.83-1.93,0-.08.02-.16.05-.29.52.25,1,.47,1.48.7.13.06.15.15.12.3-.06.31-.23.54-.41.78-.31.41-.66.79-.89,1.24-.3.59-.72.98-1.35,1.16-1.1.3-2.09.8-3.04,1.43-.29.19-.53.47-.88.57-.17.05-.32.15-.26.38,0,.01-.1.07-.16.09-.18.04-.39.02-.53.11-.36.24-.68.51-1.01.78-.48.4-.82.87-.85,1.52-.02.67-.06,1.34-.08,2.01-.03.74-.06,1.48-.05,2.21,0,.41.09.81.13,1.15-.4.23-.76.44-1.13.65.01.03.02.06.03.09.14-.01.27-.03.44-.05-.16.19-.29.39-.46.53-.92.74-1.84,1.47-2.77,2.19-.41.32-.87.57-1.2,1-.18.23-.41.45-.66.57-.46.21-.78.55-1.13.88-.27.25-.44.57-.82.74-.58.27-1.04.74-1.45,1.23-.09.11-.29.14-.44.18-.27.06-.38-.17-.52-.33-.38.31-.35.57.07.73.16.06.33.1.49.15.05.02.09.06.12.08-.25.31-.55.32-.87.29-.31-.03-.64-.02-.92-.26-.11.05-.23.11-.36.16-.2.09-.29.03-.31-.19,0-.08,0-.16.01-.28.13.05.23.07.32.11.24.1.42,0,.46-.26.01-.08,0-.2.05-.25.34-.3.69-.58,1.05-.86.04-.03.15.02.24.04.1-.08.24-.16.35-.26.17-.16.3-.36.49-.51.51-.41.94-.9,1.5-1.26.3-.19.54-.47.82-.69.23-.18.46-.38.73-.5.35-.17.69-.32.97-.62.21-.23.47-.42.72-.62.22-.17.45-.32.67-.48-.38-.32-.64.07-.98.09.04-.09.12-.12.19-.18.3-.24.62-.46.88-.73.43-.45.83-.93,1.24-1.41.19-.23.39-.41.73-.29.1.04.22.02.33,0,.07-.01.14-.06.21-.1-.04-.07-.06-.16-.11-.21-.67-.57-1.54-.59-2.21-.02-.34.29-.68.59-1.07.83-.69.43-1.34.93-2,1.4-.46.33-.94.64-1.38.99-.48.38-.95.78-1.4,1.19-.38.34-.73.7-1.09,1.06.07.05.1.07.12.08-.1.05-.21.07-.27.13-.35.35-.68.71-1.03,1.06-.28.28-.56.55-.85.82-.2.18-.43.31-.61.5-.14.15-.26.17-.42.06-.06-.05-.12-.1-.18-.14-.41-.27-.83-.48-1.34-.28-.37.15-.59.06-.81-.28-.22-.34-.14-.69-.06-1.04.05-.19.17-.35.28-.58-.17.03-.37,0-.42.08-.15.25-.25.52-.36.8-.04.11-.05.23-.07.36-.09-.04-.16-.07-.24-.1.06.32.07.61-.07.89-.09-.08-.16-.14-.22-.2-.03.03-.05.05-.08.08.35.43.68.87,1.05,1.28.11.12.33.24.47.22.27-.05.57-.04.79-.29.16-.18.32-.13.49.07.06.08.16.13.26.2-.02-.13-.04-.22-.06-.32.29-.05.41.07.28.29-.15.25-.05.45,0,.69.12-.08.21-.15.36-.26-.15.01-.23.02-.32.03.17-.35.45-.42.68-.18.18.18.38.35.5.57.08.14.08.34.06.52-.02.24.1.36.29.42.51.17,1.03.33,1.54.49.19.06.4.08.59.15.07.02.12.11.19.17.01-.02.03-.03.05-.05-.02-.04-.04-.08-.08-.15.09.03.13.05.18.06.23.05.5.18.7.12.24-.07.45-.05.68-.02.14.01.32-.01.42-.1.11-.1.19-.12.31-.08.67.22,1.34.46,2.03.64.5.13,1.02.2,1.54.24.6.04,1.21.1,1.8.01,1.06-.17,2.12-.42,3.14-.77.18-.06.36-.12.52-.21.41-.23.82-.47,1.22-.71.33-.2.66-.42.99-.61.11-.07.25-.14.38-.14.3,0,.48-.12.59-.39.01-.04.04-.08.07-.11.25-.23.51-.45.76-.69.04-.04.05-.17.02-.2-.17-.17-.13-.35-.08-.54.04-.15.12-.29.12-.44,0-.42.12-.81.28-1.19.08-.2.11-.43.09-.65-.04-.45-.04-.88.12-1.31.11-.27.22-.55.3-.83.05-.18.08-.34.27-.34-.05-.23-.08-.44-.14-.65-.07-.2-.13-.45-.28-.54-.11-.07-.2-.09-.24-.23-.09-.34-.25-.47-.61-.5-.24-.02-.49-.03-.73-.06-.23-.03-.36-.26-.64-.25-.22.01-.45-.13-.68-.21-.17-.06-.34-.14-.52-.19-.1-.03-.22-.02-.33-.02-.11,0-.22.02-.33.04,0-.03,0-.07-.01-.1.15-.03.3-.06.47-.1-.04-.06-.05-.09-.07-.11-.42-.28-.87-.49-1.37-.56-.07,0-.18.03-.21.08-.1.14-.18.3-.26.46-.01-.02-.04-.04-.04-.06-.04-.53-.1-1.05-.11-1.58-.01-.48,0-.96.04-1.44.02-.31,0-.64.12-.91.15-.35.42-.64.63-.97.09-.13.15-.28.23-.42.11-.19.18-.42.34-.55.37-.29.78-.53,1.16-.8.18-.13.46-.25.5-.42.06-.23.22-.23.33-.35.04.09.07.14.09.19-.04-.4.23-.58.5-.71.9-.42,1.79-.86,2.62-1.41.08-.05.2-.08.29-.07.26.04.36,0,.43-.27.06.01.12.03.24.05-.09-.07-.13-.1-.2-.16.13-.03.25-.02.32-.08.28-.23.54-.47.81-.71.32-.28.65-.54.95-.83.19-.18.12-.33-.09-.38-.03.1-.03.23-.09.28-.38.32-.77.63-1.17.93-.08.06-.2.07-.29.11-.02-.02-.04-.04-.06-.06.1-.21.18-.44.31-.62.26-.35.54-.69.84-1,.09-.09.16-.16.19-.29.02-.08.08-.14.13-.21.14.1.43.03.44.27.01.36-.04.71-.06,1.07-.03.36-.22.69-.13,1.09.06.27-.02.58-.08.87-.07.37.02.79-.36,1.05,0,0,0,.04.01.07.07-.02.13-.04.2-.05.01.02.02.05.03.07-.34.21-.68.44-1.03.64-.64.38-1.27.79-1.94,1.11-.71.34-1.41.7-1.99,1.22-.49.43-.92.92-1.34,1.42-.24.29-.33.65-.21,1.04.08.27.15.56.17.84.03.37.19.66.46.89.4.32.82.61,1.23.92.35.28.74.4,1.19.33.08-.01.19.02.26.07.23.14.44.3.66.44.12.07.27.11.4.16.28.11.54.25.83.34.53.18,1.08.32,1.61.5.21.07.42.16.58.3.2.16.36.37.52.57.03.03-.02.12-.03.18.04.02.1.05.11.05-.06.16-.12.28-.15.41-.09.32-.14.65-.25.96-.12.34-.26.67-.44.98-.15.27-.34.53-.57.74-.36.35-.77.65-1.14.99-.42.38-.81.79-1.22,1.18-.27.26-.56.51-.84.76-.15.13-.3.25-.44.38-.18.18-.34.38-.53.55-.94.84-1.92,1.63-2.82,2.51-1.02.99-2.1,1.93-3,3.03-.47.58-1.03,1.08-1.57,1.6-.88.85-1.75,1.72-2.66,2.53-.7.63-1.24,1.41-1.99,1.99-.14.11-.28.22-.42.34-.69.61-1.37,1.23-2.06,1.84-.74.66-1.48,1.31-2.22,1.96-.41.36-.81.74-1.23,1.09-.37.31-.76.59-1.13.91-.55.48-1.09.97-1.63,1.47-.9.83-1.81,1.66-2.7,2.5-.12.11-.18.3-.25.45-.04.07-.03.18-.08.23-.46.44-.92.89-1.4,1.31-1.03.9-2.08,1.79-3.12,2.68-.5.43-.99.86-1.48,1.29-.28.25-.58.48-.85.74-.21.2-.4.4-.71.39,0,0-.01.03-.02.05.06,0,.11.02.21.03-.11.09-.19.15-.26.22-.38.37-.76.73-1.14,1.1-.02.02-.02.07-.03.09-.1.16-.17.35-.3.48-.31.28-.66.51-.98.79-.58.51-1.17,1.01-1.72,1.55-.52.51-1.13.8-1.81.98-.27.07-.54.08-.75-.18-.04-.05-.12-.07-.18-.09-.26-.1-.53-.18-.79-.29-.16-.07-.29-.04-.4.07-.09.09-.18.19-.26.29-.25.31-.35.36-.72.24-.85-.28-1.69-.57-2.54-.84-.21-.07-.43-.06-.65-.08-.16-.01-.34.03-.47-.04-.43-.22-.84-.5-1.27-.71-.4-.2-.83-.37-1.25-.54-.28-.11-.58-.19-.88-.27-.13-.03-.27-.03-.46-.04.14.19.22.35.35.44.19.15.42.26.63.38.9.48,1.8.96,2.71,1.41.21.11.48.1.76.16-.06-.18-.1-.29-.16-.47.16.04.26.04.33.08.27.13.54.27.8.42.99.55,1.99,1.06,3.18.79.19-.04.4-.01.59-.05.35-.06.7-.2,1.05-.21.64-.02,1.16-.29,1.65-.66.07.11.15.22.22.34-.08-.02-.13-.09-.2-.1-.08-.02-.16.02-.25.03.05.08.11.09.14.13.24.28.42.3.7.07.23-.19.49-.35.7-.56.44-.42.88-.84,1.27-1.3.17-.19.3-.35.51-.35.01-.1,0-.2.04-.25.1-.15.22-.29.35-.41.47-.44.96-.88,1.43-1.32.22-.21.44-.43.66-.64.31-.28.65-.53.92-.85.4-.47.82-.92,1.23-1.39.07-.09.19-.18.29-.19.29,0,.38-.22.46-.41.24-.51.64-.8,1.15-.99.12-.05.31-.04.36-.13.18-.29.59-.32.71-.73.08-.28.4-.51.65-.73.4-.35.83-.66,1.3-1.02-.13,0-.21-.01-.39-.02.2-.17.35-.3.43-.37.18.06.29.14.39.12.1-.02.2-.12.28-.21.22-.22.43-.46.65-.68.13-.13.27-.28.43-.37.75-.44,1.38-1.03,1.94-1.69.14-.16.32-.29.48-.43.27-.24.54-.48.79-.73.14-.14.22-.34.37-.47.41-.36.84-.7,1.27-1.04.56-.44,1.12-.88,1.68-1.32.32-.26.61-.54.92-.8.05-.04.13-.05.2-.06.07,0,.16.05.2.02.37-.25.72-.53,1.09-.78.64-.44,1.27-.9,1.93-1.31.48-.3.92-.64,1.29-1.06.34-.38.61-.82.95-1.21.33-.39.71-.74,1.06-1.11.16-.17.32-.33.48-.5-.02-.03-.04-.05-.06-.08-.07.02-.14.03-.21.05-.06.02-.12.06-.23.13.29-.43.41-.5.59-.28.16-.21.3-.42.48-.59.3-.29.66-.52.95-.82.22-.22.56-.32.63-.68.01-.06.13-.11.2-.14.19-.06.19-.17.13-.33-.08.04-.15.07-.26.12.44-.47.86-.89,1.24-1.34.55-.65,1.15-1.21,1.87-1.67.32-.2.6-.47.88-.74.3-.3.55-.65.87-.93.35-.31.77-.53,1.13-.83.64-.53,1.29-1.06,1.87-1.65.51-.51,1.05-.98,1.58-1.45.57-.51,1.09-1.08,1.24-1.88.01-.06.02-.11.04-.17ZM42.79,16.12c-.15,0-.3,0-.44-.02-.22-.03-.43-.09-.64-.13,0,0,0,0,0,0-.41-.17-.82-.34-1.29-.26-.17.03-.42-.11-.55-.24-.11-.12-.11-.35-.15-.49,1.24-.2,2.2.31,3.08,1.07,0,.03,0,.06,0,.08ZM52.28,11.87s-.11.11-.1.14c.14.27-.11.35-.24.46-.79.7-1.74,1.08-2.74,1.38-.47.14-.92.33-1.39.45-.95.24-1.89.56-2.88.57-.27,0-.55.02-.82.05-1.04.14-2.05-.04-3.07-.22-.25-.04-.52-.05-.76-.12-.26-.08-.51-.17-.69-.44-.25-.38-.6-.69-.9-1.04-.08-.1-.17-.23-.18-.35-.01-.51.14-1.07.77-1.35.47-.2.91-.25,1.39-.25,1.17.01,2.34-.06,3.48-.33.96-.23,1.9-.54,2.84-.83.43-.13.82-.14,1.24.07.29.15.64.19,1,.28-.08.02-.13.04-.11.03.39.31.8.64,1.22.96,0,.04,0,.07-.01.11-.15.04-.3.09-.47.13,0,.03.02.08.04.17-.2,0-.4.02-.59,0-.34-.04-.66,0-.97.17-.15.09-.31.16-.47.21-.16.04-.34.05-.51.06-.23,0-.47,0-.64.21,0,0-.01.02-.02.02-.35.1-.7.2-1.05.29-.31.08-.62.15-.94.22-.68.16-1.36.33-2.04.46-.48.09-.96.14-1.44.21v.08c.22,0,.45,0,.67,0,.1,0,.23-.05.3,0,.2.14.37.03.55-.02.17-.04.37-.03.55,0,.27.04.53.09.74-.16.03-.03.09-.05.14-.06.84-.2,1.68-.43,2.54-.6.79-.16,1.59-.25,2.38-.38.56-.09,1.11-.2,1.66-.31.24-.05.41-.19.44-.46.02-.16.11-.22.29-.2.26.04.52.03.78.05.06,0,.12.06.19.1.02.04.04.07.06.11-.08.05-.17.09-.24.15ZM53.95,10.43s-.05-.04-.08-.06c.04-.08.08-.15.12-.23-.28-.14-.39-.1-.53.15-.04.07-.09.13-.11.21-.14.57-.59.67-1.07.73-.3.03-.59.09-.88.14-.06,0-.12,0-.17.01-.11-.55.06-1.02.22-1.49.02-.06.12-.12.19-.12.4-.04.81-.1,1.2-.07.31.03.62.18.92.27.11.04.23.08.37.13.04-.04.12-.13.2-.21.02.02.04.04.06.05-.15.17-.3.33-.45.5ZM57.05,25.54c-.09-.63.16-1.13.38-1.65.02-.05.07-.11.11-.13.56-.19.91-.61,1.24-1.08.37-.52.75-1.04,1.17-1.52.29-.32.64-.6.99-.86,1.23-.86,2.46-1.71,3.71-2.55.26-.17.55-.28.83-.42l.08.08c-.14.18-.26.38-.43.54-.7.63-1.43,1.23-2.12,1.87-.34.32-.62.7-.93,1.04-.09.09-.21.15-.31.23-.4.26-.88.46-1.19.8-.6.68-1.41,1.12-1.95,1.86-.1.14-.23.27-.34.4-.2.22-.42.1-.72.02-.17.44-.34.88-.51,1.35ZM58.92,26.35c-.24-.02-.47-.06-.71-.09,0-.05.01-.09.02-.14.23.01.46.02.69.03.03,0,.08.06.09.1,0,.03-.06.09-.09.09ZM69.94,16.36c-.04-.24-.08-.48-.13-.78.27.26.18.52.13.78ZM60.91,25.78c.26-.03.41-.09.39-.33,0-.04.11-.13.18-.15.1-.03.22-.05.33-.03.66.12,1.33.26,1.99.38.22.04.3.16.26.38-.01.07,0,.15.02.28-1.09.09-2.11-.15-3.17-.54ZM74.33,24.1c-.32.85-.87,1.49-1.86,1.65-.39.06-.75.29-1.12.43-.17.07-.35.11-.52.18-.16.07-.3.2-.47.24-.84.18-1.67.39-2.52.48-.48.06-.99-.09-1.48-.13-.38-.03-.77-.04-1.16-.06-.04,0-.08-.02-.13-.03.07-.24.1-.45-.07-.66-.11-.13.02-.38.2-.38.72-.03,1.36-.32,2.03-.55.49-.17,1.01-.27,1.51-.42.43-.13.86-.29,1.3-.4.79-.21,1.54-.52,2.23-.94.61-.36,1.17-.79,1.76-1.19.32-.21.64-.41.96-.62.01.02.02.05.03.07-.22.77-.39,1.56-.67,2.31ZM64.73,25.24c.45-.38.92-.41,1.43-.29-.41.39-.89.37-1.43.29ZM74.32,21.12c-.63.32-1.19.77-1.81,1.12-.48.28-1,.5-1.59.49-.21,0-.42.08-.63.12-.09.02-.17.03-.26.04,0-.03-.02-.06-.03-.09,1.94-.76,3.43-2.22,5.21-3.25-.22.57-.22,1.23-.91,1.57ZM72.02,17.42c.1-.07.18-.16.28-.22.05-.03.15-.03.21,0,.29.11.57.24.86.33.23.08.48.16.67-.06.18.11.31.2.44.28.72.45.59.95.15,1.46-.36.41-.9.67-1.37.98-.19.13-.43.19-.62.31-.29.2-.55.44-.83.64-.54.39-1.1.75-1.65,1.14-1.22.86-2.56,1.5-3.89,2.15-.32.15-.67.22-1.04.34.07-.33.11-.6.2-.85.06-.16.24-.27.31-.42.27-.58.66-1.06,1.13-1.48.03-.02.04-.06.07-.07.74-.29,1.09-1.02,1.67-1.5.33-.27.65-.53.98-.79.73-.57,1.42-1.18,1.99-1.92.1-.13.28-.21.42-.31ZM70.13,17.18c.15-.16.3-.34.13-.56.11-.04.23-.08.35-.13.17-.07.6.09.63.26.02.08-.04.22-.11.28-1.24,1.16-2.49,2.31-3.73,3.48-.13.12-.38.22-.23.49-.03.01-.06.02-.08.03-.46.44-1.06.76-1.33,1.38-.01.03-.03.06-.06.09-.52.42-.69,1.07-1.05,1.59-.23.33-.39.7-.61,1.1-.88-.23-1.77-.47-2.71-.72,1.03-.92,2.03-1.81,3.04-2.7.32-.28.68-.53,1.01-.79.69-.54,1.37-1.09,2.06-1.63.36-.28.75-.52,1.1-.79.33-.26.64-.55.96-.83.21-.18.43-.35.61-.55ZM70.18,11.66c-.23-.31-.14-1.11.14-1.44-.04.46-.09.95-.14,1.44ZM71.84,9.85c-.25.14-.49.31-.72.47-.06.04-.1.11-.15.16.01-.42.32-.58.62-.74.22-.12.52-.13.67-.29.18-.19.34-.13.54-.08-.32.16-.65.31-.96.48ZM72.89,8.4s-.02-.04-.04-.07c.21-.13.41-.26.62-.38.45-.28.89-.57,1.35-.83.17-.1.38-.14.58-.19.09-.02.19.01.29.05-.96.44-1.76,1.16-2.8,1.42ZM40.3,59.22c-.32.26-.65.53-.99.77-.06.04-.18.01-.27.01.53-.38,1.05-.76,1.58-1.14.01.01.02.02.03.03-.12.11-.24.22-.36.32ZM40.95,58.64s-.04-.03-.07-.05l.48-.62s.05.04.07.05c-.16.21-.32.41-.49.62ZM52.55,48.38l-.05-.06c.14-.12.29-.24.43-.36.02.03.05.06.07.09l-.45.34ZM52.24,48.26l-.07-.07c.69-.62,1.38-1.23,2.07-1.85l.06.06c-.69.62-1.37,1.24-2.06,1.86ZM56.27,44.67c.13-.38.98-1.15,1.38-1.24.02.02.03.04.05.06-.47.39-.95.79-1.43,1.18ZM60,41.41c-.39.3-.85.52-1.28.77-.02-.03-.05-.06-.07-.08.69-.71,1.53-1.24,2.36-1.89-.2.58-.62.9-1.01,1.2ZM68.37,34.66c.36-.51.79-.95,1.31-1.28l.05.06c-.45.41-.91.82-1.36,1.23ZM70.88,31.42c-.44.5-.82,1.06-1.29,1.53-.61.61-1.28,1.16-1.93,1.74-.41.37-.86.7-1.21,1.12-.63.76-1.38,1.39-2.11,2.03-.72.64-1.56,1.15-2.35,1.71-.09.07-.23.07-.35.1-.02-.04-.04-.08-.05-.12.34-.3.66-.63,1.03-.88.74-.51,1.39-1.11,2-1.77.23-.25.5-.47.74-.72.42-.44.81-.9,1.23-1.34.1-.11.22-.19.33-.29.51-.46,1.02-.93,1.53-1.39.03-.03.05-.08.08-.09.63-.18.88-.75,1.24-1.2.28-.34.59-.66.89-.99.14-.15.27-.31.43-.43.21-.16.44-.29.64-.42.09.09.16.15.23.22-.35.38-.73.77-1.08,1.18ZM80.64,21.67c-.24.88-.67,1.64-1.38,2.23-.2.17-.32.43-.48.64-.03.04-.11.06-.16.08-.08.03-.2.01-.25.06-.35.32-.66.68-1.02.98-.47.4-.98.76-1.47,1.14-.52.41-1.06.81-1.56,1.23-.64.53-1.25,1.08-1.9,1.62.2-.25.39-.51.61-.75.18-.2.39-.38.59-.56.42-.4.84-.81,1.27-1.21.13-.12.31-.19.44-.31.27-.26.53-.54.79-.82.15-.16.3-.33.46-.48.03-.03.11-.02.17-.03.02,0,.06.01.07,0,.18-.19.36-.39.54-.58-.02-.02-.03-.03-.05-.05-.05,0-.09.02-.16.03.02-.05.03-.08.05-.11.38-.41.76-.81,1.15-1.21.32-.33.65-.66.97-.99.15-.15.32-.29.45-.46.25-.32.49-.65.74-.99.18.05.24.19.15.52Z"/>
      <path class="cls-1" d="M24.9,54.89c-.23.19-.43.13-.6.04-.44-.23-.87-.48-1.32-.7-.23-.11-.48-.19-.72-.26-.07-.02-.16,0-.26,0,.12.43.43.62.75.8,1.05.56,2.11,1.11,3.16,1.68.41.22.8.49,1.2.75.04.03.09.12.07.16-.02.06-.1.13-.15.13-.13,0-.28-.03-.4-.08-.7-.32-1.4-.64-2.09-.99-.37-.19-.72-.42-1.06-.68.5.23,1,.45,1.49.68,0-.02.02-.04.03-.06-.34-.17-.68-.33-1.01-.51-.69-.38-1.36-.79-2.05-1.17-.06-.03-.16-.26-.27-.02,0,0-.14-.04-.2-.08-.71-.42-1.42-.85-2.13-1.28-.18-.11-.36-.24-.55-.33-.25-.11-.51-.19-.76-.29-.46-.2-.92-.41-1.38-.62-.82-.37-1.62-.77-2.51-1-.35-.09-.66-.35-.99-.51-.14-.07-.31-.08-.46-.14-.29-.12-.56-.28-.85-.39-.25-.1-.52-.16-.77-.25-.35-.14-.74-.23-1.02-.45-.5-.39-1.04-.69-1.61-.94-1.24-.55-2.38-1.27-3.51-2-.22-.14-.41-.26-.71-.16-.17.06-.43,0-.59-.09-.26-.15-.48-.27-.67-.04-.42-.27-.82-.51-1.26-.79.17.32.31.59.45.87-.03.02-.06.04-.08.05-.17-.26-.37-.5-.5-.77-.11-.23-.27-.37-.55-.48.43.68.84,1.32,1.54,1.67.57.28,1.17.53,1.78.73.35.11.5.37.68.62-.8-.41-1.59-.84-2.52-.95.11-.31-.24-.31-.39-.42-.57-.41-1.16-.79-1.4-1.5-.03-.09-.02-.19-.03-.33C.02,44.52.04,43.87,0,43.26c0-.09.09-.19.14-.28.02.01.04.02.06.03-.05-.09-.1-.18-.19-.33.15.05.21.07.28.09,0-.01.02-.03.02-.04-.08-.33-.16-.66-.23-.99-.07-.33.09-.66.4-.73-.04.17-.07.33-.11.51.1,0,.16,0,.23.01.06.24.14.48.18.72.14.7.47,1.3.94,1.83.01.01.02.03.04.04.5.32,1.06.66,1.62.62.58-.05,1.03.14,1.45.41.66.41,1.26.92,1.89,1.38.35.26.7.52,1.08.73.79.43,1.59.83,2.39,1.21.22.1.47.12.72.17.59.1,1.12.36,1.68.54,2.06.65,3.9,1.78,5.87,2.63,1.07.46,2.1,1.01,3.16,1.5.42.19.86.32,1.28.51.53.24,1.05.51,1.57.77.15.08.28.19.44.3ZM21.23,53.8s.03-.07.05-.11c-.69-.33-1.37-.65-2.06-.98-.02.03-.03.07-.05.1.61.48,1.29.83,2.05.99Z"/>
      <path class="cls-1" d="M65.17,14.64c-.18.56-.47,1.04-.97,1.36-.67.44-1.34.86-2,1.31-.18.12-.33.29-.5.43-.06.05-.11.12-.18.14-.87.33-1.57.91-2.3,1.48-.93.73-1.93,1.37-2.91,2.03-.15.1-.33.14-.5.21-.13.05-.28.09-.36-.07-.07-.14.04-.39.17-.46.3-.17.6-.36.9-.54.19-.12.37-.24.56-.37.14-.1.27-.23.41-.33.35-.22.71-.43,1.07-.64.05-.03.11-.06.09-.05.05-.13.07-.25.1-.25.36-.03.54-.32.77-.52.18-.15.37-.25.59-.34.37-.15.72-.36,1.04-.59.85-.61,1.69-1.24,2.53-1.86.29-.21.59-.41.74-.76-.2-.16-.41-.16-.65-.07-1.05.38-2.02.93-3,1.46-.23.13-.49.2-.73.32-.32.17-.63.37-.95.56-.41.24-.73.64-1.24.73-.1.02-.18.17-.28.24-.6.41-1.22.8-1.8,1.23-.53.39-1.02.84-1.53,1.26-.15.12-.3.23-.47.32-.45.24-.88.48-1.28.8-.2.16-.5.19-.78.3.57-.05.7.46.99.7-.13-.02-.3-.08-.47-.07-.23.02-.43-.02-.58-.19-.34-.38-.72-.25-1.13-.15-.77.18-1.54.35-2.31.46-1.07.16-2.09-.1-3.1-.44-.56-.19-1.12-.36-1.66-.58-.64-.26-1.27-.57-1.9-.86-.4-.18-.81-.36-1.21-.53-.58-.25-.89-.73-1.1-1.29-.1-.26-.15-.54-.24-.8-.04-.13-.15-.18-.29-.24-.23-.1-.41-.33-.58-.48.15-.29.26-.5.39-.73.26.33.55.46.75.35.23.54.45,1.08.69,1.67-.14-.03-.21-.04-.28-.06,0,.02-.01.03-.02.05.04.03.09.08.12.07.23-.03.32.12.43.28.11.15.26.28.41.4.16.12.33.24.51.33.22.11.45.19.68.29.33.15.72.25.99.48.66.55,1.41.68,2.22.7.21,0,.46.07.63.19.31.22.64.27,1,.28.3.01.6.05.9.05.69-.01,1.38-.04,2.08-.08.37-.02.74,0,1.09-.09.78-.18,1.52-.47,2.22-.87.15-.09.29-.22.41-.35.31-.32.6-.65.91-.99-.06,0-.13,0-.21,0,.03-.04.04-.06.05-.07.14-.06.29-.11.43-.17.02,0,.07-.02.07-.03.06-.33.35-.19.53-.27.1-.05.22-.08.28-.16.16-.19.3-.37.56-.4.05,0,.1-.06.15-.09-.02-.02-.04-.04-.06-.06.05-.08.09-.19.16-.25.32-.23.63-.48.98-.64.45-.21.88-.44,1.25-.78.09-.08.26-.07.38-.13.25-.12.49-.28.75-.4.58-.27,1.16-.52,1.74-.77.07-.03.14-.05.22-.08.6-.21,1.19-.42,1.79-.63.25-.09.5-.18.75-.27.25-.08.47.03.68.15.12.07.23.13.38.21Z"/>
      <path class="cls-1" d="M27.6,58.71c.31.09.62.16.92.29.62.26,1.23.56,1.85.83,1.73.75,3.49,1.43,5.32,1.92.68.19,1.4.26,2.1.39.18.03.35.07.53.11.15.03.19.11.17.26-.06.38-.41.64-.84.55-1.21-.25-2.41-.51-3.57-.95-.2-.08-.45-.05-.67-.08-.09-.01-.19-.01-.26-.06-.53-.33-1.04-.7-1.58-1-.4-.22-.87-.32-1.28-.53-.81-.41-1.6-.86-2.39-1.3-.14-.08-.24-.2-.36-.31l.07-.13Z"/>
      <path class="cls-1" d="M11.71,50.69c2.1.75,3.97,2.02,6.15,2.77-.08-.14-.12-.23-.17-.32.03-.01.06-.03.08-.03.52.24,1.06.45,1.57.72.35.18.65.46,1,.64.68.36,1.37.69,2.07,1.02.2.09.42.14.63.2.29.08.43.28.31.6-.26-.16-.51-.34-.78-.46-.71-.31-1.43-.58-2.14-.87-.51-.21-1.02-.44-1.54-.64-.16-.06-.34-.06-.51-.1-.11-.03-.22-.09-.32-.15-.2-.12-.38-.28-.59-.37-.58-.25-1.18-.46-1.75-.71-.77-.34-1.53-.7-2.28-1.07-.47-.23-.94-.49-1.39-.76-.16-.09-.27-.26-.4-.39.02-.02.05-.05.07-.07Z"/>
      <path class="cls-1" d="M26.24,55.88c.35.18.71.36,1.06.55.15.08.3.16.45.24.46.22.93.44,1.4.65.33.15.66.29.99.41.2.07.37.16.47.38-.06.01-.1.03-.13.02-.77-.21-1.54-.41-2.16-.96-.22-.2-.5-.33-.76-.48-.43-.23-.86-.45-1.29-.68-.03-.01-.06-.02-.09-.04.02-.03.04-.06.06-.09Z"/>
      <path class="cls-1" d="M30.39,58.25c-.25.12-.5.11-.76.03-.51-.15-1.02-.3-1.52-.47-.24-.08-.46-.21-.69-.33-.02-.01-.02-.06-.04-.12.97.45,1.95.77,3,.88Z"/>
      <path class="cls-1" d="M66.46,18.41c.55-.24.95-.74,1.58-.85-.51.32-1.02.63-1.53.95-.02-.03-.04-.07-.05-.1Z"/>
      <path class="cls-1" d="M5.26,37.45c-.18.22-.36.44-.55.65-.02.02-.1,0-.16,0,.01-.05.01-.11.04-.15.08-.13.15-.27.25-.38.08-.09.2-.15.3-.23.04.04.07.08.11.12Z"/>
      <path class="cls-1" d="M21.59,55.98c-.46-.23-.92-.45-1.38-.68.01-.03.03-.05.04-.08.46.23.92.46,1.38.69-.01.02-.02.04-.03.07Z"/>
      <path class="cls-1" d="M56.77,26.33s.06,0,.06.01c.12.15.1.3-.02.44-.02.02-.12.01-.13,0-.07-.17,0-.31.09-.44Z"/>
      <path class="cls-1" d="M1.64,40.32c-.17.07-.33.15-.54.24.06-.39.33-.28.5-.35.01.04.03.07.04.11Z"/>
      <path class="cls-1" d="M4.5,38.27c-.15.09-.3.18-.46.27l-.06-.09c.15-.09.3-.19.45-.28.02.03.04.07.07.1Z"/>
      <path class="cls-1" d="M20.27,37.67c.28-.13.28-.46.49-.65.23-.2.38-.49.6-.7.5-.5.87-1.08,1.14-1.72.02-.05.02-.13,0-.18-.16-.62-.57-1.09-.97-1.56-.08-.1-.16-.2-.24-.3-.22-.25-.21-.28.11-.47.51.43.9.97,1.18,1.59.14.31.28.62.33.95.05.3.06.64-.04.91-.23.61-.69,1-1.35,1.18.08.26-.1.35-.31.46-.18.1-.32.25-.48.38-.07.06-.14.12-.2.18-.1-.03-.19-.06-.27-.09h0Z"/>
      <path class="cls-1" d="M20.51,32.48c-.18.32-.4.4-.72.3-.15.28-.34.52-.69.56-.04,0-.11.05-.12.09-.08.39-.39.54-.69.73-.29.18-.53.44-.78.69-.33.34-.65.7-.98,1.04-.02.02-.07.02-.18.04.11-.17.17-.32.28-.41.47-.4.92-.81,1.26-1.33.06-.1.05-.26.12-.34.14-.16.3-.32.48-.41.14-.07.2-.15.24-.29.14-.45.37-.56.83-.48.14.03.3-.03.44-.06.15-.03.29-.08.5-.13Z"/>
      <path class="cls-1" d="M20.26,37.67c.17.41,0,.69-.3.95-.34.29-.64.63-.97.93-.11.1-.26.15-.39.22,0,0,0,0,0,0-.18-.15.05-.17.09-.22.15-.18.11-.41.2-.64.09.05.16.09.22.12.06-.11.11-.25.2-.37.18-.25.37-.5.57-.72.1-.11.25-.18.37-.26,0,0,0,0,0,0Z"/>
      <path class="cls-1" d="M14.83,37.35c-.15.2-.26.37-.39.52-.1.11-.22.17-.31-.02.14-.17.27-.35.42-.5.1-.1.23-.11.28,0Z"/>
      <path class="cls-1" d="M15.31,36.76c.21-.13.43-.27.67-.41,0,0,.04.04.07.08-.24.13-.48.25-.71.38l-.03-.05Z"/>
      <path class="cls-1" d="M14.12,38.27c-.11.08-.22.17-.33.24-.02.02-.08-.02-.12-.03.02-.04.02-.11.05-.12.12-.06.24-.1.37-.15.01.02.03.05.04.07Z"/>
      <path class="cls-1" d="M25.97,28.1c-.08-.32.02-.5.37-.53-.02-.02-.03-.04-.05-.07-.08.02-.16.04-.27.06-.05-.41.18-.71.46-.9.56-.38,1.16-.71,1.76-1.01.39-.2.82-.35,1.24-.48.19-.06.41-.04.61-.03.08,0,.22.11.22.16,0,.09-.08.22-.16.26-.49.24-1,.44-1.48.69-.3.16-.56.39-.85.57-.4.26-.81.49-1.21.75-.08.05-.13.16-.19.25-.11.16-.22.31-.46.28Z"/>
      <path class="cls-1" d="M52.99,37.21c.25-.14.43-.33.36-.64,0-.03.03-.07.06-.1.2-.17.38-.39.61-.5.33-.16.57-.4.84-.63.46-.4,1-.71,1.51-1.05.13-.09.26-.16.41-.22.16-.36,1.14-.9,1.49-.74-.1.06-.19.1-.28.15.06.02.13.05.2.08-.33.29-.63.59-.97.85-.47.36-.96.69-1.43,1.04-.03.02-.08.07-.11.06-.48-.19-.44.28-.62.47-.13.13-.33.19-.49.3-.31.2-.61.4-.91.61-.12.08-.21.21-.33.29-.09.06-.2.08-.3.11-.01-.03-.03-.06-.04-.09Z"/>
      <path class="cls-1" d="M57.73,30.7c.45-.3.87-.67,1.41-.8.2.43.16.5-.26.54-.12.01-.25.1-.36.18-.25.21-.52.14-.79.08Z"/>
      <path class="cls-1" d="M59.36,32.5c.04.27-.08.36-.27.33-.02-.02-.04-.05-.06-.07.11-.09.22-.17.33-.26Z"/>
      <path class="cls-1" d="M60.66,32.13c.05-.29.25-.08.39-.16-.08.26-.24.16-.39.16Z"/>
      <path class="cls-1" d="M58.68,33.24c-.15-.02-.29-.04-.42-.05.1-.09.19-.17.3-.25.01,0,.09.04.1.07.02.08.02.16.03.23Z"/>
      <path class="cls-1" d="M26.35,49.5v.62c-.17-.13-.2-.41,0-.62Z"/>
      <path class="cls-1" d="M31.82,41.76c.28-.19.54-.38.87-.49.44-.15.83-.45,1.24-.69.15-.09.3-.18.46-.26-.3.38-1.8,1.32-2.59,1.44,0,0,0,0,0,0Z"/>
    </g>
  </g>
</svg>