<?xml version="1.0" encoding="UTF-8"?>
<svg id="Layer_2" data-name="Layer 2" xmlns="http://www.w3.org/2000/svg" viewBox="0 0 79.74 103.26">
  <defs>
    <style>
      .cls-1 {
        fill: #000;
        stroke-width: 0px;
      }
    </style>
  </defs>
  <g id="illustrations">
    <g>
      <path class="cls-1" d="M35.47,34.21c-.1.08-.19.18-.3.25-.21.11-.42.22-.64.3-.2.07-.42.1-.63.14.14.27-.13.62-.54.72.4.61.82,1.21.46,1.99.02,0-.02,0-.02,0-.18-.4-.55-.54-.92-.68-.15-.06-.3-.11-.45-.17-.35-.13-.41-.09-.51.28-.1.32-.22.64-.36.95-.19.42-.47.8-.54,1.28-.02.14-.16.27-.25.42-.09-.08-.14-.12-.21-.19.07-.02.11-.04.18-.06-.11-.16-.04-.27.05-.42.08-.15.22-.35.07-.56-.02-.02,0-.08.01-.11.08-.28.17-.56.25-.85.05-.16-.09-.58-.24-.6-.13-.02-.31.06-.43.15-.21.16-.39.35-.63.58.03-.23-.12-.42.13-.54.02,0,.03-.05.03-.08.04-.36.31-.58.49-.91-.05-.07-.12-.26-.21-.27-.22-.02-.47,0-.66.09-.13.06-.2.27-.28.43-.13.24-.26.49-.36.74-.15.39-.23.79-.16,1.22.02.12-.05.26-.08.4-.08.39-.17.77-.24,1.16,0,.04.01.08.02.12.01.05.04.1.03.14-.07.28-.19.54-.15.84,0,.06-.06.14-.1.21.12.16,0,.82-.2.95.19.29-.02.55-.07.83-.03.19-.11.38-.18.57-.03.09-.07.19-.14.24-.33.27-.34.28-.25.59-.08.16-.14.27-.2.38-.16.27-.32.55-.49.81-.22.35-.43.7-.68,1.02-.17.23-.41.41-.6.62-.07.08-.12.19-.17.28.02.01.04.03.06.04-.31.2-.61.42-.92.61-.12.07-.27.1-.4.15-.16.06-.35.09-.48.19-.69.5-1.35,1.03-2.05,1.52-.29.2-.63.35-.96.45-.25.07-.54.01-.85.01.07-.1.1-.15.15-.22-.32-.08-.63-.15-.93-.24-.15-.05-.3-.12-.44-.2-.05-.03-.06-.13-.07-.15-.54-.26-1.05-.51-1.56-.76-.08-.04-.17-.08-.25-.08-.28.02-.55.07-.83.09-.43.03-.88.16-1.27-.17-.1-.09-.26-.11-.4-.15-.22-.06-.46-.09-.67-.18-.34-.15-.69-.15-1.05-.15-.16,0-.32-.11-.48-.11-.31-.02-.62.04-.92,0-.31-.04-.61-.15-.9-.27-.14-.06-.05-.15.04-.22.15-.12.29-.24.47-.39-.46-.21-.38-.66-.53-.98-.17-.35,0-.74.15-1.08-.28-.02-.54,0-.79-.06-.46-.09-.92-.22-1.37-.39.21.04.42.07.63.11,0-.02,0-.04.01-.06-.57-.21-1.13-.42-1.7-.63l-.04.09c.09.04.19.09.34.16-.1.02-.17.06-.21.04-.1-.05-.19-.12-.28-.19-.18-.12-.37-.24-.55-.35-.02.04-.05.07-.07.11l.47.29s0,.04,0,.06c-.08-.01-.17,0-.24-.04-.17-.09-.32-.22-.49-.31-.13-.07-.27-.11-.4-.17-.34-.14-.69-.27-1.03-.43-.39-.18-.77-.39-1.16-.57-.09-.04-.24-.18-.33.03-.15-.07-.35-.09-.46-.2-.22-.22-.39-.47-.72-.54-.34-.07-.41-.41-.58-.64-.17-.22-.34-.45-.49-.68-.09-.13-.16-.28-.22-.43-.16-.37-.33-.75-.33-1.17,0-.03.04-.07.06-.1.31-.51.68-.95,1.25-1.15-.09-.16-.19-.32-.28-.48-.19-.38-.39-.75-.56-1.14-.14-.32-.28-.65-.36-1-.1-.4-.14-.81-.2-1.22,0-.04,0-.09.02-.12.17-.28.31-.58.51-.84.21-.27.29-.67.07-.95-.32-.4-.44-.88-.6-1.34-.06-.19-.01-.47.1-.65.07-.12.33-.17.51-.19.54-.07,1.08-.14,1.63-.16.39-.02.79.07,1.19.07.33,0,.66-.07,1-.11v-.07c.08.11.16.21.25.32.03-.02.06-.04.09-.07-.1-.13-.21-.25-.29-.39-.16-.28-.3-.58-.46-.86-.05-.1-.09-.23-.17-.28-.31-.19-.37-.45-.28-.78.02-.08-.02-.18-.04-.26-.03-.17-.1-.35-.1-.52.02-.51.06-1.02.1-1.53.06-.7.11-1.41,0-2.11-.02-.16-.07-.32-.1-.49-.05-.27-.23-.44-.45-.6-.3-.22-.44-.59-.34-.88.03-.09.12-.16.19-.25.11.03.23.06.37.1-.04-.11-.07-.22-.11-.34l.04-.04c.24.17.51.32.72.53.36.35,1.09.31,1.5-.06.12-.11.25-.19.37-.3.04-.03.05-.1.08-.17.23.03.28-.15.35-.34.11-.25.26-.48.41-.74-.1-.16.08-.61.33-.73-.05-.05-.14-.1-.14-.15,0-.07.09-.12.14-.18h0c.04.1.08.22.13.35,0,.06,0,.14,0,.22,0,.06-.04.11-.07.16-.04-.03-.09-.07-.15-.12-.11.26-.16.5-.07.79.05.15,0,.34-.07.5-.09.22-.16.47-.43.57-.07.02-.09.17-.16.23-.11.13-.2.29-.34.39-.18.14-.27.4-.55.39,0,0-.02,0-.02,0-.23.35-.55.13-.83.13-.03,0-.06,0-.14.02,0,.29,0,.58,0,.87,0,.57,0,1.13-.03,1.7-.02.49-.07.97-.11,1.46,0,.03,0,.07.01.09.22.29.1.61.08.92-.02.36.12.66.27.97.08.15.15.3.23.45.07.12.14.25.23.36.18.22.35.44.56.63.07.07.21.05.32.08.08.01.2,0,.22.04.21.37.56.21.86.22.09,0,.18-.05.27-.08-.22-.03-.43-.05-.63-.08,0-.04,0-.07,0-.11.13,0,.27-.03.39,0,.42.13.83.04,1.25.04.65,0,1.29-.02,1.94.09.39.07.81,0,1.22,0,.51.01,1.02,0,1.52.07.36.05.71.22,1.07.3.53.11,1.07.17,1.61.25.13.02.26.04.38.08.29.08.57.16.85.24.53.16,1.07.33,1.6.49.06.02.13,0,.2,0,.06,0,.13,0,.18.01,1.06.33,2.11.68,3.18.99.6.17,1.22.28,1.83.41.13.03.26.04.37.05-.12.18-.21.19-.42.02-.04-.03-.12-.02-.19-.03-.67-.09-1.35-.17-1.99-.43-.1-.04-.21-.05-.31-.06-.3-.05-.62-.05-.9-.16-.64-.25-1.34-.24-1.97-.5-.25-.1-.53-.14-.8-.21-.05-.01-.11-.03-.14-.01-.24.15-.43-.02-.65-.09-.21-.07-.44-.09-.66-.14-.5-.12-.99-.25-1.48-.36-.31-.07-.63-.12-.95-.18-.57-.11-1.14-.24-1.72-.33-.25-.04-.51-.02-.76-.03-.04,0-.08-.02-.12-.02-.7-.14-1.4-.14-2.11-.07-.59.06-1.19.04-1.77.06,0-.02,0,.01,0,.04-.22.06-.37-.32-.63-.06.13.03.23.05.34.07,0,.02,0,.04,0,.06h-.45s-.02.05-.04.08c.1.08.2.17.32.24.2.11.41.21.61.32.13.07.25.15.39.21.67.28,1.33.56,2.01.81.25.09.55.09.81.16.39.11.77.25,1.16.36.2.05.41.05.62.08.03,0,.07,0,.1,0,.48.25,1.03.18,1.54.31.53.14,1.07.25,1.6.38.3.07.6.19.91.2.25,0,.47.07.7.15.04.01.08.04.11.09-.79.23-1.53.02-2.28-.29.02.05.04.09.09.2-.14-.08-.23-.13-.32-.18-.11-.06-.21-.14-.32-.16-.35-.07-.7-.1-1.05-.16-.24-.05-.48-.16-.73-.18-.29-.02-.59,0-.87.06-.23.04-.4.02-.52-.19-.02-.03-.07-.04-.12-.07-.03.07-.06.13-.11.22-.06-.03-.12-.07-.19-.1-.17-.08-.33-.19-.51-.24-.46-.12-.92-.19-1.38-.31-.2-.05-.39-.17-.58-.26-.45-.22-.88-.49-1.35-.67-.44-.17-.83-.39-1.2-.67-.19-.15-.39-.19-.66-.13-.41.09-.84.12-1.26.13-.5.01-1-.05-1.5-.04-.45.01-.9.08-1.37.13.13.24.28.42.27.68,0,.09.14.17.2.27.24.41.48.82.71,1.23.04.07.01.17,0,.26,0,.09-.01.17-.02.28-.12,0-.24.01-.39.02.05.07.09.11.16.21-.18-.03-.31-.06-.38-.07-.08.08-.14.14-.2.19-.19.18-.44.32-.54.54-.09.19-.01.46,0,.69.02.24.08.48.09.71.02.32.16.59.35.83.19.25.38.54.63.69.34.2.55.59,1,.61.39.02.77.06,1.15.09.07,0,.15.02.22.04.54.14,1.08.28,1.62.42.09.02.2.02.29.06.14.07.27.16.4.24,0-.02-.02-.07-.03-.12.01-.02.03-.03.04-.05.11.07.21.15.32.22.06.04.12.09.19.09.59,0,1.17-.03,1.76-.04.23,0,.47,0,.7-.02.17-.01.19.07.17.15-.15.07-.26.14-.38.17-.07.02-.15-.03-.22-.04-.21.21-.37-.12-.59-.05.08.06.14.1.21.15-.19-.03-.37-.06-.56-.07-.06,0-.13.05-.19.07.04.05.07.12.13.15.2.11.42.2.65.31-.47.26-1.21-.05-1.29-.26-.21-.01-.39,0-.55-.03-.55-.11-1.09-.23-1.63-.37-.19-.05-.36-.19-.54-.27-.1-.05-.22-.09-.33-.12-.29-.08-.59-.15-.89-.21-.07-.02-.15,0-.23,0,.04.07.08.14.13.24,0,0-.02.02-.03.05-.1.33-.16.39-.52.38-.17,0-.35-.07-.52-.07-.21,0-.41.07-.61.07-.23,0-.38.11-.54.26-.16.14-.14.3-.12.46.01.13.08.25.11.37.02.09.02.19.03.33.24.14.26.19.09.39.13.11.27.21.41.33.03.05.05.15.11.19.25.18.51.34.77.51.13.09.24.19.36.29.05.04.1.12.15.12.39,0,.67.31,1.05.37.37.06.72.24,1.08.37.1.04.2.07.29.13.16.1.31.19.51.15.15-.03.58.25.6.3.38.09.74.15,1.09.25.44.12.86.3,1.3.39.25.05.53,0,.79-.02.17-.01.34-.08.5.08.11.11.25.05.32-.09.05-.09.08-.19.12-.3-.2-.14-.41-.29-.63-.44.07-.02.13-.04.23-.07-.07-.05-.11-.08-.16-.11.01-.01.02-.03.04-.03.65-.08,1.31-.11,1.94-.25.68-.15,1.33-.4,2-.59.3-.09.62-.13.93-.22.56-.16,1.11-.33,1.63-.6.31-.16.65-.27.97-.43.52-.25,1.03-.52,1.55-.77.3-.14.62-.26.91-.41.32-.16.62-.35.93-.51.34-.17.69-.32,1.03-.49.1-.05.19-.11.29-.16.56-.28,1.12-.56,1.67-.84.06-.03.12-.07.15-.12.09-.21.25-.33.48-.35.04,0,.09-.03.1-.06.05-.16.17-.21.31-.25.06-.02.09-.12.17-.25.03,0,.12.03.25.07v-.25s-.04-.03-.06-.04c.16-.11.31-.22.48-.31.04-.03.13-.04.16-.01.23.18.32-.01.47-.14.23-.2.51-.34.77-.51.08.1.15.18.23.28-.07.1-.13.21-.17.27-.16.09-.31.13-.42.23-.35.31-.7.61-1.02.96-.18.2-.27.48-.44.69-.17.22-.39.39-.58.59-.04.04-.11.07-.14.12-.27.38-.55.76-.81,1.14-.04.06-.03.15-.03.2-.12.09-.27.15-.34.26-.34.53-.76.99-1.21,1.44-.19.19-.3.44-.49.63-.32.32-.68.6-1.02.9-.17.14-.34.27-.52.39-.08.06-.2.07-.29.12-.08.05-.21.12-.21.2-.02.17-.14.2-.24.27-.58.4-1.15.8-1.73,1.19-.17.12-.37.2-.55.3-.05.03-.09.09-.15.15-.04,0-.12-.03-.2-.04l-.03.04s.08.05.18.11c-.12,0-.17,0-.23,0-.05,0-.14-.02-.16,0-.21.26-.55.22-.82.35-.16.08-.35.11-.52.17-.04.01-.09.02-.11.05-.27.43-.72.37-1.13.42-.17.02-.33,0-.48.15-.09.08-.3.04-.45.05-.06,0-.12-.02-.18-.03,0,.03-.02.05-.03.08.17.09.34.21.52.25.5.11,1.02.26,1.52.25.73-.02,1.48-.08,2.17-.39.33-.15.69-.25,1.02-.4.2-.09.38-.23.57-.35.19-.12.37-.23.56-.35.02-.01.05-.02.06-.04.34-.35.67-.7,1.01-1.05.16-.17.34-.32.54-.51,0,0,.06.02.13.05,0-.02.03-.04.02-.04-.11-.13-.02-.26.05-.33.33-.34.68-.65,1.02-.98.18-.18.37-.35.54-.54.11-.11.22-.22.29-.37.06-.13.25-.19.39-.29.03-.02.08-.04.07-.06,0-.33.32-.39.47-.6.16-.23.28-.48.44-.7.16-.21.38-.38.54-.59.14-.18.21-.39.35-.57.08-.1.21-.16.33-.24-.02-.03-.05-.07-.08-.11.15-.21.3-.42.41-.56.04-.18.03-.32.09-.4.26-.36.55-.71.81-1.07.25-.34.49-.68.71-1.04.16-.27.26-.57.41-.84.11-.19.27-.36.42-.54.06-.19.13-.39.2-.59.15.04.23.06.36.1-.04-.1-.07-.15-.11-.24.4.13.79-.17,1.16.08-.03.06-.06.12-.09.17,0,.02.02.03.03.05.22-.1.45-.21.62-.29-.04-.1-.08-.17-.1-.24-.05-.22-.26-.06-.36-.15-.16.18-.38.02-.57.08-.24.07-.49.09-.74.12-.1.01-.21-.01-.31-.04-.31-.08-.62-.17-.93-.26.02-.02.04-.03.06-.05-.03-.1-.03-.23-.1-.28-.23-.17-.48-.3-.66-.41-.17.08-.29.16-.42.18-.15.02-.22-.08-.39-.45.17-.1.21-.21.13-.43-.12-.37-.16-.77-.24-1.25.39.09.72.16,1.1.24-.05-.27-.09-.53-.16-.78-.03-.13-.1-.26-.2-.35-.21-.19-.06-.46-.17-.66-.13-.25-.1-.57-.39-.77-.17-.12-.2-.43-.31-.7.33-.01.37-.22.46-.4.11-.2.25-.4.41-.57.24-.28.58-.27.92-.27.38,0,.61.15.64.54,0,.07.04.14.05.21.06.29.14.35.43.33.14,0,.28,0,.41,0,.18,0,.36,0,.48.22,0-.09-.02-.17-.01-.26.1-.7-.44-.92-.9-1.22-.34-.22-.66-.48-.98-.76.27.04.32-.1.35-.3.02-.15.09-.32.18-.44.24-.29.26-.62.2-.97-.08-.47-.17-.94-.27-1.41-.04-.17-.11-.34-.17-.54-.04,0-.13.02-.24.05.04-.13.08-.23.11-.34-.15-.01-.23-.05-.16-.24.12-.35-.01-.68-.09-1.02-.02-.1-.01-.2,0-.3.01-.31.08-.61-.14-.9-.08-.1,0-.31,0-.47,0-.04.03-.08.03-.11-.04-.3-.07-.6-.13-.89-.02-.11-.12-.21-.19-.31-.23-.34-.48-.66-.68-1.01-.28-.49-.53-.99-.76-1.49-.32-.68-.62-1.37-.92-2.06-.23-.52-.43-1.05-.66-1.57-.09-.2-.22-.38-.36-.54-.1-.11-.25-.16-.38-.24-.19-.1-.4-.18-.57-.31-.12-.09-.22-.23-.28-.37-.22-.53-.49-1.04-.62-1.6-.12-.55-.53-.77-.9-1.07-.11-.09-.25-.16-.34-.27-.16-.2-.37-.23-.61-.25-.16-.01-.33-.06-.48-.13-.26-.11-.51-.23-.76-.37-.39-.21-.77-.44-1.16-.66-.09-.05-.19-.09-.36-.16.06.2.08.33.13.46.08.23.18.42.07.7-.16.4-.23.85-.27,1.29-.03.26.08.53.12.79,0,.05.01.11.01.16,0,.05-.04.11-.03.16.11.46.23.93.34,1.39.05.21.06.43.1.65.03.15.1.29.13.43.13.52.24,1.04.39,1.55.18.61.4,1.22.61,1.82.15.43.32.84.48,1.26.12.33.23.68.35,1.01.08.21.19.41.28.62.12.32.23.64.3.99-.15-.22-.31-.44-.44-.67-.07-.12-.08-.28-.13-.42-.04-.1-.08-.2-.13-.3-.09-.18-.19-.35-.27-.54-.13-.3-.25-.61-.36-.93-.08-.23-.12-.47-.21-.7-.07-.19-.18-.36-.26-.54-.09-.22-.16-.44-.22-.66-.01-.04.07-.11.12-.17-.23-.06-.27-.25-.32-.46-.09-.38-.23-.76-.34-1.14-.07-.24-.11-.49-.16-.73-.04-.19-.08-.39-.13-.58-.11-.41-.23-.82-.34-1.23-.03-.11-.04-.22-.05-.33-.03-.25-.04-.51-.1-.76-.06-.29-.17-.58-.25-.87-.01-.04-.03-.09-.03-.14.01-.17.03-.35.06-.52.04-.22-.02-.38-.21-.5-.04-.02-.09-.09-.08-.13.05-.23-.14-.3-.26-.29-.21.02-.42.14-.63.2-.26.07-.52.11-.78.16-.18.04-.36.08-.54.11-.33.05-.65.09-.98.11-.16,0-.24.04-.36.17-.27.3-.37.67-.52,1.02-.05.13-.18.23-.22.36-.06.21-.05.43-.1.64-.07.31-.15.62-.25.93-.11.38-.3.75-.06,1.15.02.03.04.08.03.09-.17.15-.02.26.02.4.08.24.15.49.2.73.02.12,0,.25-.01.37-.03.24.25.42.12.69-.02.04.03.14.08.17.32.23.35.56.33.91,0,.1.05.22.1.32.4.81.81,1.61,1.22,2.42.13.25.25.51.4.74.35.55.7,1.1,1.06,1.64.23.34.47.68.72,1,.31.4.64.79.97,1.17.44.51.9,1.02,1.35,1.53.06.07.13.11.2.18.26.26.51.52.77.77.1.1.22.2.31.3.05.05.06.12.1.18.04.05.1.1.15.14.22.17.45.33.66.51.2.17.37.36.66.4.11.01.21.15.31.23.15.12.31.25.51.41-.31.02-.44-.15-.6-.27-.14-.11-.28-.24-.44-.31-.83-.39-1.44-1.08-2.15-1.63-.32-.24-.44-.62-.73-.87-.25-.21-.52-.4-.77-.61-.17-.14-.4-.28-.48-.47-.28-.66-.97-.97-1.29-1.57-.07-.13-.15-.26-.24-.38-.06-.08-.17-.12-.22-.2-.15-.23-.27-.47-.43-.7-.13-.19-.29-.35-.44-.53-.02-.03,0-.08-.03-.08-.09-.16-.17-.33-.28-.48-.39-.52-.65-1.12-.93-1.71-.18-.37-.39-.73-.54-1.11-.22-.57-.41-1.16-.6-1.75-.12-.37-.25-.73-.35-1.11-.05-.22-.03-.45-.06-.67-.01-.09-.06-.18-.09-.27-.03-.08-.08-.17-.07-.25.03-.2-.05-.34-.14-.52-.09-.18-.03-.43-.07-.64-.07-.37-.06-.8-.39-1.06-.28-.21-.53-.48-.88-.58-.19-.06-.34-.06-.48.16-.16.24-.43.41-.58.66-.11.17-.31.29-.29.55,0,.14-.12.28-.13.43-.03.29-.04.59,0,.88.01.12.15.24.25.34.06.06.17.09.21.16.06.09.12.21.12.32,0,.06-.12.13-.17.17-.04.29-.08.58-.12.88-.01.09-.01.19-.02.31-.03.01-.09.03-.11.04.04.25.07.47.1.7.05.37.09.74.13,1.11.04.34.06.68.13,1.02.08.39.17.77.34,1.14.18.4.35.81.42,1.24.01.07.08.13.11.2.07.15.12.31.2.46.05.1.12.19.2.26.19.18.23.38.08.59.32.01.28.27.35.46-.17-.17-.35-.33-.5-.5-.05-.06,0-.2-.05-.26-.1-.15-.24-.28-.38-.45.01-.02.06-.08.09-.12-.16-.32-.35-.63-.47-.96-.14-.37-.21-.76-.33-1.14-.07-.22-.18-.43-.23-.65-.1-.51-.18-1.02-.26-1.54-.05-.33-.1-.66-.13-.99-.03-.35-.04-.7-.06-1.05,0-.11-.02-.22-.04-.34-.05.05-.09.09-.16.17-.04-.31-.06-.57-.11-.83-.02-.12-.05-.25-.1-.36-.39-.8-.38-1.55.24-2.24.17-.19.3-.41.49-.57.22-.19.48-.34.73-.51.02-.01.06-.01.06-.03.14-.32.37-.21.58-.11.16.08.29.1.37-.11.03-.08.09-.15.17-.29.39.46.76.9,1.15,1.35.12-.5.22-1.03.37-1.55.09-.34.25-.66.36-1,.05-.15.05-.32.06-.47.04-.61.04-.58.69-.53.58.04,1.16.19,1.74.24.22.02.46-.06.69-.12.29-.08.58-.16.84-.3.21-.11.41-.14.63-.11.13.02.21-.02.22-.18.01-.18.06-.35.1-.59.15,0,.37-.03.58-.03.05,0,.1.07.15.11.41.44.88.83,1.44.98.76.2,1.3.71,1.9,1.15.27.2.53.42.78.66.17.16.3.36.45.55.23.3.34.67.5,1,.09.19.36.3.55.44.04.03.1.05.21.1.07-.28.14-.53.19-.8.16-.93.31-1.86.47-2.79.08-.44.17-.87.26-1.3.04-.21,0-.44.17-.61.07-.07.14-.15.21-.23-.26-.27.16-.39.17-.6.09.07.16.13.24.19.09-.13.22-.24.27-.38.1-.29.28-.49.54-.64.04-.02.07-.07.08-.11.07-.3.1-.62.2-.91.1-.28.02-.64.33-.86.07-.05.07-.19.12-.28.35-.54,1.01-.64,1.57-.31.3.18.47.46.73.66.14.12.28.23.42.35.23-.32.45-.37.85-.16.25.13.49.22.78.17.2-.03.31-.1.39-.27.06-.12.11-.24.19-.34.06-.07.17-.14.26-.14.47.04.82.27,1.08.68.19.3.47.55.66.86.14.22.2.49.29.74.01.03,0,.08.01.11.08.13.27.3.24.38-.11.28.25.42.15.68,0,.02,0,.05.01.07.28.6.59,1.2.83,1.81.12.3.12.65.17.98,0,.05.02.09.03.14.02.14.04.29.07.48.17.15.17.15.01.36.29.21.27.55.33.86.06.33.14.66.21.99.02.1.03.2.04.3.01.1.03.21.05.31,0,.03.03.08.02.09-.19.22.02.39.06.58.03.12.04.25.05.37.03.39.06.78.09,1.17,0,.1.04.19.03.29,0,.25-.04.5-.02.74.02.27-.09.52.01.8.07.19-.01.42-.02.64,0,.34,0,.67-.02,1.01,0,.08-.03.16-.05.24-.03.14-.1.3-.06.41.09.24-.04.36-.18.48.25.27.19.57.14.88-.05.27-.03.54-.05.81-.03.35-.07.69-.1,1.04-.02.25-.08.51-.03.74.05.26-.14.42-.15.64-.01.53-.28.99-.39,1.5-.06.27-.14.54-.23.81-.13.36-.22.75-.44,1.03-.15.19-.07.37-.16.54-.01.03,0,.09-.01.09-.23.07-.17.28-.24.43-.21.49-.46.95-.67,1.44-.23.53-.44,1.07-.66,1.61-.09.24-.17.49-.25.74.04.03.1.06.15.09.27.15.28.23.19.5-.07.19-.06.41-.15.59-.14.29-.31.56-.5.82-.19.27-.41.52-.65.75-.08.08-.24.07-.38.12,0,.09.02.22.03.35.02.28-.1.5-.27.72-.12.15-.17.34-.22.54.15-.06.38.15.42-.14.02-.14.05-.27.08-.4.49.07.67-.45,1.06-.6-.06-.02-.12-.04-.18-.05,0-.02-.02-.05-.02-.07.07-.03.14-.07.21-.1.12-.05.25-.09.35-.16.13-.09.23-.23.37-.3.15-.07.17-.13,0-.26.28-.04.35-.5.73-.21,0-.09,0-.15.02-.21.05-.13.07-.31.16-.36.34-.17.4-.52.56-.8.02-.04.09-.05.17-.04,0-.01.03-.03.02-.04-.2-.4.17-.58.33-.82.19-.27.46-.5.62-.79.31-.57.77-1,1.16-1.49.34-.42.62-.91,1.01-1.28.28-.28.46-.61.7-.91.26-.33.49-.67.74-1,.23-.31.48-.62.71-.94.04-.05.04-.13.09-.15.07-.04.16-.07.19-.12.24-.44.44-.9.69-1.33.16-.27.38-.51.54-.78.15-.25.24-.53.38-.78.1-.2.23-.39.34-.59.1-.16.21-.32.28-.49.08-.17.15-.3.36-.12-.21-.27-.19-.35.08-.47.06-.31.1-.57.18-.82.07-.21.19-.4.29-.6.03-.06.09-.1.11-.13.02-.11.03-.21.05-.3.04-.21.09-.43.13-.64.01-.05.02-.12.05-.16.25-.33.28-.73.35-1.12.05-.29.15-.57.26-.84.14-.33.2-.67.25-1.01.11-.72.05-1.44-.04-2.16-.06-.52-.36-.81-.83-.99-.38-.15-.73-.4-1.12-.54-.81-.28-1.34-.97-2.08-1.34-.17-.09-.31-.27-.49-.33-.62-.2-1.02-.76-1.6-1.01-.23-.1-.44-.29-.61-.48-.08-.09-.09-.26-.17-.39-.18-.31-.13-.5.12-.76.04-.05.09-.1.13-.15.13-.16.31-.16.43,0,.1.14.2.28.25.43.22.58.64.98,1.14,1.31.27.18.53.36.8.53.18.12.36.22.54.34.28.2.54.41.82.6.22.15.45.28.68.42.21.13.43.25.64.38.45.28.9.57,1.4.88,0-.14.01-.23,0-.31-.07-.39-.13-.79-.23-1.17-.05-.18-.19-.34-.29-.5-.1-.15-.16-.3.05-.39.21.18.44.36.63.57.11.11.16.28.23.43.08.17.15.35.25.51.28.45.61.87,1.14,1.05.29.1.6.11.91.15.34.05.69.06,1.03.13.09.02.16.18.23.28.05.06.09.13.13.19.06-.05.12-.1.18-.14.12-.06.25-.11.37-.17.03.1.09.2.09.3,0,.42-.1.81-.31,1.18-.06.1-.05.24-.08.36-.02.06-.05.12-.08.18-.03.06-.06.13-.07.19-.02.12.01.28-.06.36-.15.16-.12.28.04.43-.09,0-.15.01-.24.02.05.11.09.2.14.3-.04.05-.08.13-.14.15-.15.04-.13.08-.08.22.04.12-.03.29-.06.43-.01.05-.07.09-.08.14-.05.31-.09.62-.13.93-.01,0,.04,0,.16-.03-.04.23-.08.44-.1.64-.02.19.01.37,0,.56-.01.17-.09.34-.07.49.04.32-.17.56-.25.84-.06.23-.15.45-.22.68-.05.14-.08.29-.14.42-.06.13-.1.25-.09.41,0,.16-.18.32-.28.48-.01.02-.03.04-.04.07.16.11.26.09.42-.05.26-.24.58-.4.87-.61.34-.24.67-.51,1.03-.72.46-.28.89-.61,1.43-.77.3-.09.58-.34.89-.45.18-.06.37-.08.56-.13.04,0,.06-.05.1-.08.45-.26,1.24-.24,1.69.02.07.04.11.2.09.3-.07.57-.28,1.07-.68,1.5-.02.02-.02.04-.04.09.78.14,1.62,0,2.3.55.04.08.08.21.16.29.05.05.18.03.27.02.12,0,.24-.06.35-.04.04,0,.07.17.07.27-.01.47-.24.87-.47,1.26-.26.45-.55.88-.82,1.32-.03.04,0,.12,0,.14-.12.13-.27.24-.36.39-.34.55-.65,1.11-.99,1.65-.31.48-.66.94-.99,1.42-.03-.02-.05-.04-.08-.05.15-.2.29-.41.44-.61-.01-.01-.03-.02-.04-.03-.81.94-1.63,1.87-2.44,2.81-.21-.09-.32-.01-.33.21-.07.01-.15,0-.21.04-.3.21-.64.39-.86.67-.33.42-.79.62-1.2.91-.36.25-.74.49-1.12.71-.25.14-.52.22-.79.32-.4.15-.8.32-1.21.45-.74.24-1.49.46-2.24.68-.46.13-.93.28-1.4.36-.73.12-1.37.49-2.08.68-.83.22-1.62.63-2.45.85-.64.17-1.32.16-1.98.23-.11.01-.22.07-.33.11,0-.14-.01-.26-.22-.23-.14.02-.29.02-.42,0-.22-.04-.43-.16-.65-.17-.5-.02-.97-.12-1.45-.21-.11-.02-.25.11-.38.17.03.05.05.14.09.14.22.03.45.03.66.07.14.03.27.1.45.18.1-.07.23-.04.38.1.16.16.62.21.8.12.14-.07.3-.13.45-.17.09-.02.19,0,.29.01ZM26.51,11.72c.13.42.28.88.42,1.34.15.49.25,1,.42,1.49.24.68.35,1.38.45,2.09.08.58.14,1.17.22,1.76.07.59.16,1.17.22,1.76.04.33.03.67.07,1,.06.48.16.96.22,1.45.04.27-.02.58.09.82.19.4.02.94.47,1.24.04.02.03.12.04.18.56,0,.74.13.87.68.03.14.07.28.07.42-.01.22-.08.43-.09.64-.01.18.01.37.04.55.02.14.04.27.24.29.11.01.22.13.31.21.12.11.23.23.4.39.04-.2.06-.32.08-.43.04-.28.07-.56.11-.85.1-.73.52-.77,1.01-.6.27.09.3.41.4.65.04.1.1.19.15.29.23-.14.19.07.21.15.12,0,.21.02.3.01.04,0,.1-.03.12-.06.08-.17.12-.35.22-.51.17-.29.37-.57.57-.87-.17-.27.13-.43.2-.65.07-.22,0-.55.38-.59-.04-.01-.09-.02-.11-.03.08-.48.41-.85.41-1.36,0-.29.21-.57.3-.87.15-.5.32-.99.41-1.5.11-.64.16-1.29.21-1.94.05-.66.07-1.32.1-1.97.04-.74.08-1.48.11-2.22,0-.19-.05-.39.01-.55.14-.39.01-.77.02-1.15,0-.38-.09-.75-.14-1.13-.11-.81-.22-1.63-.35-2.44-.06-.39-.18-.77-.27-1.16-.1-.41-.17-.82-.29-1.22-.11-.39-.31-.76-.39-1.16-.1-.49-.31-.94-.48-1.4-.17-.44-.36-.88-.51-1.33-.12-.38-.25-.75-.54-1.04-.24-.25-.7-.37-.98-.21-.25.15-.48.35-.72.51-.13.08-.26.17-.4.2-.06.01-.15-.1-.22-.16-.24-.2-.49-.4-.73-.59-.08-.06-.18-.16-.25.01-.19.46-.32.92-.29,1.43.01.16-.02.32-.03.49,0,.05.02.09.02.14,0,.08,0,.16,0,.23-.03,0-.06,0-.09,0,.08.16.17.32-.02.47-.03.03-.02.18.03.23.24.26.26.52.08.71v1.4c-.12-.03-.21-.05-.24-.05-.05-.16-.09-.27-.13-.38.17-.06.13-.22.06-.33-.1-.18-.12-.33-.02-.43-.04-.16-.08-.28-.09-.4-.01-.16.01-.32,0-.48-.04-.36-.11-.72-.14-1.08-.02-.25.01-.5.01-.75,0-.06-.03-.13-.06-.19-.03-.06-.1-.1-.11-.15-.06-.45-.1-.89-.16-1.41-.19-.07-.46-.18-.73-.26-.22-.07-.49.04-.54.22-.12.34-.21.69-.33,1.03-.09.26-.15.54-.29.77-.31.53-.71,1.02-.94,1.6-.11.28-.24.56-.34.84-.06.16-.06.34-.11.51-.12.42-.28.82-.37,1.25-.08.43-.07.88-.14,1.32-.04.29-.13.57-.07.87,0,.02-.06.05-.04.03.03.13.07.24.07.34,0,.1-.04.21-.08.3-.1.23-.14.47-.04.71.31.78.61,1.56.94,2.33.49,1.15.98,2.31,1.63,3.38.06.1.13.18.19.27.02-.13,0-.24-.03-.35-.08-.33-.16-.66-.24-.99-.06-.24-.12-.48-.19-.72-.11-.33-.21-.67-.35-.99-.06-.14-.14-.24-.02-.3-.1-.24-.2-.46-.27-.69-.06-.22-.07-.45-.1-.62-.1-.17-.19-.32-.28-.46h.44ZM53.86,18.91c-.06.05-.13.09-.18.14-.4.4-.79.81-1.19,1.2-.2.2-.44.35-.65.55-.28.27-.58.52-.77.87-.12.21-.32.38-.47.58-.23.3-.43.63-.68.91-.27.32-.58.6-.86.89-.06,0-.13-.01-.21-.02.03.07.06.14.09.19-.15.23-.32.47-.49.73.1.03.16.05.24.07-.11.07-.2.13-.29.19-.01-.1-.02-.17-.03-.27-.09.06-.14.11-.2.15-.02-.02-.04-.04-.06-.06.07-.06.14-.13.23-.22.04-.14-.12-.37.14-.54.16-.11.16-.41.47-.38-.04-.11-.07-.19-.1-.27.02,0,.04-.02.06-.03.04.07.08.13.11.2h.07c0-.08,0-.16,0-.24,0-.07,0-.16.04-.21.09-.11.21-.21.32-.31.09-.02.25-.07.25-.1-.03-.26.18-.37.29-.54.22-.34.49-.66.71-1.01.18-.27.55-.39.57-.77,0-.03.06-.05.09-.08.22-.19.44-.36.65-.56.49-.46.99-.91,1.44-1.41.23-.25.4-.58.34-1.04-.31.09-.59.17-.87.24-.45.11-.91.2-1.32.46-.35.22-.73.42-1.09.62-.27.15-.58.27-.83.45-.47.36-.84.85-1.38,1.13-.3.15-.58.34-.84.55-.22.18-.55.23-.68.53-.05.1-.09.21-.15.3-.25.35-.52.68-.77,1.03-.1.14-.13.32-.24.45-.49.63-1,1.25-1.5,1.87-.16.2-.34.39-.52.57-.16.16-.34.31-.49.48-.16.18-.29.39-.47.55-.43.38-.88.75-1.34,1.11-.1.08-.24.12-.35.18-.02.06-.01.17-.06.21-.12.11-.26.22-.41.29-.39.2-.7.49-1,.79-.17.17-.31.22-.53.1.08-.08.15-.14.22-.21.26-.23.42-.54.76-.7.18-.09.3-.31.45-.46.2-.18.42-.33.61-.52.25-.26.44-.57.7-.8.69-.61,1.33-1.27,1.87-2.02.23-.31.46-.62.66-.9.13-.08.24-.12.32-.2.11-.12.18-.27.27-.4.04-.06.11-.12.11-.18,0-.06-.05-.14-.07-.2-.06.03-.12.05-.17.09-.06.04-.11.1-.16.15-.12.11-.24.22-.36.34-.04.04-.11.07-.17.11-.06.04-.1.11-.15.15-.45.34-.91.66-1.34,1.02-.72.6-1.42,1.23-2.12,1.85-.24.21-.46.44-.7.66-.11.1-.23.17-.34.27-.2.18-.41.36-.59.56-.16.17-.46.24-.4.52-.14.09-.27.16-.37.26-.25.24-.47.51-.73.75-.28.26-.59.48-.88.73-.17.15-.32.32-.49.46-.23.18-.5.32-.72.52-.37.35-.69.73-1.13,1.01-.36.24-.69.53-1.03.81-.06.05-.09.11-.14.17.3.09.57.17.84.24.09.03.2.06.29.05.22-.03.44-.15.65-.13,1.07.09,2.05-.27,3.06-.51.19-.05.36-.17.55-.23.29-.1.59-.18.89-.26.16-.04.33-.07.5-.11.07-.02.18-.06.18-.1,0-.21.19-.19.3-.23.18-.08.38-.09.56-.14.28-.08.6-.11.82-.27.16-.12.46-.1.5-.38,0-.02.07-.03.11-.04.11-.02.21-.03.32-.04-.01-.07-.03-.14-.05-.26q.36.38.44.29c-.06-.04-.13-.08-.19-.12.14-.09.25-.15.36-.22q-.14-.11.09-.31c.08.07.15.14.23.21-.12.13-.22.25-.34.38.32-.05.62-.06.88-.16.45-.16.93-.2,1.37-.38.41-.16.85-.22,1.26-.42.69-.33,1.4-.61,2.04-1.04.49-.33.99-.65,1.46-1.01.31-.23.54-.57.91-.73.07-.03.12-.11.17-.17.14-.18.25-.38.4-.55.43-.48.91-.92,1.27-1.47.07-.1.12-.29.19-.29.2-.02.19-.18.27-.28.11-.14.23-.28.34-.41.04-.1.08-.2.12-.29.12-.25.25-.49.37-.72,0,0,.05.01.14.03-.06-.1-.09-.16-.14-.25.39-.02.38-.35.49-.61.06.07.1.11.14.15.11-.16.21-.3.31-.44,0-.02,0-.04-.01-.05-.1.04-.2.07-.3.11.22-.12.25-.34.32-.53.05-.14.13-.24.29-.21-.06.16-.11.3-.17.44.02.01.05.02.07.04.08-.15.16-.31.25-.46-.07-.06-.13-.12-.22-.2.1-.13.21-.25.29-.39.11-.18.19-.38.3-.57.18-.32.16-.4-.18-.54-.17-.07-.35-.13-.53-.17-.14-.03-.29,0-.44,0-.09,0-.25-.03-.26-.07-.07-.31-.37-.34-.56-.51ZM46.6,20.28c.26.08.27.07.24-.2,0-.02.01-.04.02-.06.1-.22.2-.44.28-.66.16-.46.34-.92.46-1.4.13-.52.19-1.05.28-1.58.03-.18.07-.35.08-.53.01-.15.15-.24.11-.43-.05-.23.12-.46.09-.73-.02-.22.09-.45.13-.67.13-.67.26-1.35.37-2.02,0-.06-.05-.12-.06-.15.04-.07.11-.12.12-.19.05-.33.07-.66.13-.98.04-.24.13-.48.22-.78-.17.06-.24.09-.3.11-.09-.08-.15-.14-.22-.21-.05.19-.11.02-.16,0-.09-.03-.18-.1-.28-.12-.28-.06-.57-.11-.87-.17v.17c-.15-.06-.3-.09-.43-.16-.41-.23-.65-.6-.87-1-.08-.14-.17-.28-.26-.41-.03.01-.06.02-.08.03.02.25.05.51.07.76.03.39.05.78.07,1.17.02.35.05.71.08,1.06,0,.11.03.22.02.32-.03.31.11.64-.12.92,0,0,0,.03,0,.05,0,.18.02.37-.02.55-.07.36-.18.71-.25,1.06-.09.42-.17.84-.26,1.26-.02.08-.03.15-.06.23-.02.07-.05.14-.07.21.02,0,.03.01.05.02-.06.05-.12.11-.13.12-.01.21.01.38-.03.53-.15.45-.32.9-.49,1.34-.03.09-.11.16-.14.25-.1.28-.2.55-.27.84-.1.42-.45.71-.59,1.11-.1.28-.33.52-.48.78-.14.23-.25.47-.38.71-.2.36-.41.72-.62,1.09-.15.26-.28.52-.45.77-.25.36-.52.71-.78,1.07-.12.16-.17.39-.32.5-.17.12-.21.23-.15.42-.08.02-.16.03-.2.07-.03.03-.03.11-.04.17.04,0,.1.04.13.02.18-.13.35-.27.53-.41.04-.03.06-.09.11-.12.23-.14.47-.25.68-.41.3-.23.58-.5.87-.75.31-.26.62-.52.95-.77.27-.2.55-.39.83-.58.44-.31.87-.61,1.3-.92.26-.19.51-.39.73-.62.17-.18.27-.43.41-.66ZM27.66,38.65s-.04-.04-.06-.06c-.21.27-.46.52-.63.81-.18.3-.47.53-.54.91-.03.17-.26.3-.39.45-.22.26-.45.5-.65.78-.45.64-.9,1.27-1.55,1.73-.34.25-.68.5-1.01.76-.03.02-.06.05-.08.09-.16.25-.51.34-.57.67,0,0-.01.01-.02.02-.18.19-.34.39-.53.57-.12.12-.27.21-.41.31-.02.01-.04.03-.06.04.06.03.11.05.18.09-.17.11-.31.21-.44.3,0,.04.02.12,0,.15-.13.16-.26.33-.42.47-.17.14-.37.23-.55.34-.22.14-.44.28-.67.42-.15.09-.3.19-.46.3-.16.06-.34.16-.53.17-.18,0-.25.2-.34.19-.27-.04-.4.13-.61.25.23.13.42.27.63.36.34.15.66.36,1.07.31.24-.03.5.05.71.24.1.09.29.14.42.11.3-.06.59-.18.88-.28,0,0,.01,0,.02-.01.44-.32.88-.63,1.31-.95.02-.02.03-.05.05-.07.25-.29.5-.59.75-.88.02.02.05.04.07.06-.14.15-.28.3-.42.46.02.01.03.03.05.04.12-.14.27-.28.37-.44.13-.2.29-.26.51-.22-.05.09-.1.17-.14.25.02.01.04.02.06.03.06-.03.13-.06.26-.12-.04.16-.06.27-.1.43.16-.11.33-.17.43-.29.37-.49.88-.85,1.23-1.36.13-.19.36-.32.43-.52.18-.54.58-.97.76-1.52.22-.66.47-1.32.58-2.01.04-.24-.03-.5,0-.74.02-.18.14-.34.17-.52.07-.36.12-.72.15-1.09.03-.35.04-.69.06-1.04ZM21.89,41.7c0-.45.37-.66.48-1.01.01-.05.07-.1.12-.12.24-.12.37-.33.51-.54.17-.26.38-.5.57-.75-.2-.11-.2-.15.06-.42-.17.02-.3.04-.44.06.02.05.04.09.03.07-.2.09-.38.15-.56.24-.3.15-.6.31-.89.46-.08.04-.15.1-.23.14-.05.07-.13.08-.2.12-.12.07-.22.16-.34.22-.21.12-.43.23-.65.35-.1.05-.21.09-.31.14-.09.05-.16.15-.25.16-.4.07-.61.42-.94.6-.13.07-.19.26-.42.21-.09-.02-.23.14-.34.22-.07.05-.12.15-.19.18-.18.08-.38.12-.57.19-.07.02-.13.07-.19.1-.2.11-.38.26-.59.32-.15.04-.21.08-.2.22-.07,0-.16-.02-.18.02-.19.26-.54.17-.78.4-.21.2-.6.2-.91.29-.47.12-.95.23-1.42.36-.39.1-.77.22-1.16.33-.19.05-.44.01-.48.3,0,.02-.05.02-.07.04-.08.07-.17.13-.23.21-.09.14-.16.29-.27.48.04.02.1.05.17.08-.03,0-.07,0-.1.01-.05.11-.07.26-.15.33-.31.26-.09.45.06.65.26.35.54.65,1.06.59.16-.02.31-.08.46-.1.45-.07.91-.1,1.35-.22.69-.19,1.37-.43,2.06-.66.02,0,.04-.02.06-.04.25-.18.48-.42.82-.45.05,0,.09-.03.14-.05.39-.23.79-.46,1.17-.71.34-.22.66-.47.99-.69.12-.08.28-.1.39-.19.32-.26.62-.56.94-.83.25-.21.53-.38.76-.6.26-.25.47-.54.71-.82.04.02.08.05.18.11ZM30.87,31.39c.25.01.47.04.68.03.05,0,.12-.07.15-.12.15-.29.27-.59.43-.87.18-.34.43-.64.45-1.06,0-.21-.02-.3-.19-.33-.05-.4-.11-.8.45-1.01-.44-.06-.2-.36-.34-.55-.04.05-.07.09-.1.13-.2.23-.38.48-.6.69-.26.25-.28.35-.04.61.05.06.09.12.14.19q-.25.1-.26.38c-.11.13-.19.2-.24.29-.18.29-.5.32-.73.07-.21-.22-.18-.49-.21-.75-.04-.29-.55-.54-.8-.38-.1.06-.17.21-.33.11-.03.05-.1.12-.08.15.05.12.13.24.29.16.18-.09.34-.03.43.1.19.3.38.61.51.94.16.41.27.84.39,1.23ZM54.21,25s.05.03.07.05c.21-.33.42-.66.63-.99-.03-.02-.05-.03-.08-.05-.21.33-.41.66-.62.99ZM29.46,34.62l-.05-.08c-.09.05-.24.09-.26.17-.03.09.06.21.09.32l.06-.02c.05-.13.1-.26.16-.38ZM28.92,35.83s.07.04.1.06c.09-.16.18-.33.28-.49-.31.03-.23.3-.37.44ZM8.15,30.01c-.18-.03-.32-.06-.47-.08.11.25.26.26.47.08ZM45.12,22.92c.13-.16.23-.28.34-.4-.15.08-.45.02-.34.4Z"/>
      <path class="cls-1" d="M79.44,62.38c.04-.08.07-.15.09-.19-.29-.1-.56-.2-.78-.27-.16-.01-.31.02-.38-.04-.21-.16-.41-.35-.59-.55-.18-.19-.33-.42-.51-.61-.17-.18-.34-.39-.55-.49-.49-.23-1.01-.41-1.51-.61-.21-.08-.41-.17-.66-.27.23-.12.45-.19.4-.41.1-.09.17-.16.24-.23.18-.18.37-.36.55-.54.31-.31.63-.62.93-.95.22-.24.41-.51.62-.78,0,0-.04-.03-.1-.07.54-.23.83-.61.85-1.18,0-.06-.03-.12-.06-.22v-.24c-.09.03-.2.04-.28.09-.24.15-.46.33-.69.49-.04.03-.1.03-.2.07.04-.11.05-.18.09-.21.31-.3.62-.6.95-.87.49-.41,1.02-.77,1.5-1.2.24-.22.52-.44.32-.9-.12-.27-.27-.48-.49-.59-.29-.13-.54-.31-.8-.47-.46-.3-.56-.71-.58-1.19,0-.12.02-.27.08-.37.09-.16.23-.29.34-.44.15-.21.23-.44.13-.69-.09-.24-.2-.48-.31-.74.05-.04.13-.09.24-.17-.11-.11-.2-.2-.29-.3-.15-.16-.34-.21-.55-.27-.2-.05-.39-.17-.59-.23-.51-.16-1.03-.28-1.53-.47-.29-.11-.57-.22-.89-.26-.46-.05-.92-.19-1.37-.33-.94-.31-1.91-.35-2.87-.23-.72.09-1.42.37-2.12.6-.33.11-.65.28-.96.46-.17.1-.14.22.06.27.15.04.31.04.54.07-.58.68-1.11,1.36-1.7,1.98-.76.79-1.57,1.54-2.35,2.3-.24.24-.49.46-.73.7-.41.41-.79.85-1.22,1.24-.46.42-.95.79-1.43,1.18-.09.07-.17.15-.26.23.11.06.25.13.39.2.41-.3.82-.6,1.22-.91.23-.18.45-.37.68-.55.2-.16.4-.33.6-.48.17-.13.35-.23.51-.37.38-.35.75-.71,1.13-1.07.45-.42.94-.79,1.32-1.28.13-.17.29-.33.43-.49.38-.42.79-.83,1.14-1.28.5-.63.81-1.4,1.54-1.85.18-.11.35-.25.56-.28.44-.06.88-.09,1.32-.12.22-.02.45-.05.67-.03.39.04.78.1,1.17.17.07.01.12.08.23.16.14.04.33.1.53.15.28.08.56.14.83.23.26.09.5.3.75.3.39,0,.7.19,1.05.29.02,0,.03.03.05.05-.05.02-.09.04-.19.09.39.18.74.35,1.07.5-.1.35.44.42.36.76-.24.11-.59.05-.63.44,0,.03-.09.06-.14.09-.06.04-.12.08-.14.09.11.05.22.1.33.15h0c.15,0,.2.13.18.21-.09.31-.2.6-.31.91-.02.05-.03.1-.05.15.06-.02.14-.02.17-.06.05-.07.07-.16.11-.24.07-.16.13-.32.22-.52.04.07.07.1.07.12-.03.41.2.7.47.97.18.18.38.34.52.55.13.18.4.32.28.62,0,.02.03.05.06.07.11.1.05.17-.04.23-.19.14-.39.27-.57.42-.04.03-.06.1-.09.17-.06.02-.18.03-.26.09-.25.22-.5.44-.73.68-.26.28-.48.57-.66.92-.25.5-.54.96-.59,1.54-.01.18-.11.39-.04.52.08.15.03.23-.05.28-.54.36-1.05.78-1.63,1.05-.68.32-1.43.51-2.14.75-.16.05-.32.11-.49.15-.24.07-.47.14-.7.2v-.35c-.17.1-.3.17-.43.24-.15.08-.3.17-.46.2-.6.11-1.19.2-1.79.28-.61.07-1.23.12-1.84.18-.36.03-.72.07-1.08.09-.26.01-.53,0-.79,0,0-.03,0-.06,0-.08.13-.04.25-.1.38-.13.66-.15,1.33-.28,1.99-.44.47-.11.89-.35,1.39-.38.25-.02.49-.16.74-.24.37-.12.75-.22,1.11-.36.4-.15.84-.14,1.22-.43.31-.23.72-.32,1.09-.48.46-.2.99-.29,1.35-.69.03-.04.09-.06.15-.08.26-.09.52-.17.77-.25,0-.03,0-.06,0-.09-.22-.01-.44-.04-.66-.02-.12,0-.27.05-.35.13-.32.34-.71.53-1.14.66-.28.09-.54.21-.81.33-.35.15-.69.31-1.04.44-.2.08-.42.12-.63.16-.59.12-1.19.28-1.78.32-.43.02-.82.08-1.21.26-.22.1-.45.19-.68.23-.48.09-.97.15-1.46.22-.3.04-.59.1-.89.13-.45.04-.9.07-1.36.09-.17,0-.33,0-.5,0,.24-.11.48-.18.73-.23.73-.17,1.48-.24,2.16-.61.35-.19.73-.32,1.1-.46.14-.05.28-.07.42-.11.11-.03.21-.09.36-.15.25-.07.55-.16.85-.26.03,0,.03-.11.04-.19.4-.12.83-.26,1.26-.38.36-.1.73-.19,1.08-.3.25-.08.48-.19.72-.29.35-.15.7-.31,1.05-.46.36-.15.72-.3,1.08-.45.18-.08.35-.16.52-.26.21-.12.4-.27.62-.38.21-.1.43-.16.47-.43.1,0,.2.03.26,0,.19-.12.38-.24.53-.4.11-.12.43-.19.19-.46.07-.06.13-.11.2-.17-.04-.02-.07-.02-.09-.03,0,0,0,0,0,0,.25-.29.48-.56.75-.88-.11.02-.22.02-.27.07-.13.12-.24.28-.37.4-.44.42-.77.95-1.35,1.22-.6.28-1.18.61-1.78.92-.47.24-.96.47-1.43.72-.26.13-.48.33-.75.44-.67.27-1.36.51-2.04.76-.15.05-.32.07-.47.13-.32.12-.64.25-.96.37-.34.12-.7.2-1.04.33-.5.18-.98.38-1.48.55-.52.18-1.05.33-1.57.48-.31.09-.62.17-.94.22-.37.05-.74.06-1.12.09-.47.04-.94.1-1.41.14-.16.01-.32-.03-.48-.02-.58.01-1.16.04-1.74.06-.34,0-.68-.02-1.02-.02-.19,0-.38.06-.58.07-.07,0-.13-.06-.2-.09.04-.05.08-.1.13-.14.28-.24.58-.46.85-.71.44-.43.79-.94,1.25-1.35.26-.23.47-.53.68-.81.55-.73,1.09-1.46,1.64-2.19.36-.47.73-.93,1.09-1.4.39-.52.77-1.06,1.15-1.59.31-.43.61-.88.92-1.31.18-.25.33-.52.54-.73.37-.37.7-.75.85-1.25,0-.03.08-.04.1-.07.07-.15.14-.3.2-.45,0-.02-.07-.07-.08-.08-.18.13-.33.25-.51.38.22.03.21.16.14.25-.33.36-.67.7-1.01,1.05-.08.08-.17.15-.24.24-.25.29-.49.58-.74.88.05.04.1.08.18.13-.14.01-.26-.01-.31.03-.11.11-.18.26-.28.39-.08.11-.17.21-.29.34.24.19-.02.28-.13.42-.05.06-.13.12-.14.19-.04.28-.18.43-.47.45-.01,0-.02.04-.04.07.06.02.12.04.14.05-.07.14-.13.28-.21.39-.12.17-.25.34-.41.46-.13.1-.23.16-.19.26-.14.12-.26.19-.34.3-.18.25-.33.52-.51.76-.18.25-.4.47-.59.71-.06.08-.08.2-.14.28-.22.24-.46.46-.67.7-.33.36-.63.75-.97,1.1-.33.34-.69.67-1.05.98-.24.2-.51.37-.76.55v-.09c-.1-.04-.19-.07-.27-.13-.05-.04-.12-.12-.12-.17.02-.2.09-.4.09-.6.02-.49-.24-.88-.51-1.25-.02-.02-.06-.02-.09-.04-.1.26-.19.11-.27.03.06-.16.12-.3.16-.44.08-.27.21-.5.22-.82,0-.26,0-.46-.15-.68-.14-.21-.36-.38-.36-.68,0-.24-.12-.43-.37-.53.03-.06.04-.13.07-.14.23-.09.33-.25.33-.5,0-.18,0-.36.07-.52.07-.18-.02-.31-.13-.35-.1-.03-.27.05-.36.13-.12.12-.21.29-.29.45-.08.15-.21.27-.12.49.04.11-.11.29-.15.44-.11.38-.2.77-.32,1.15-.02.06-.12.13-.18.13-.16,0-.46.14-.52.29-.13.3-.27.61-.4.91-.25-.06-.49-.12-.76-.19.15-.04.27-.05.38-.1.08-.04.19-.12.21-.19.05-.22.08-.45.08-.67,0-.42,0-.45.41-.41.15.02.2-.03.22-.15.04-.3.08-.6.09-.9,0-.1-.13-.19-.05-.32,0,0-.04-.06-.07-.08-.27-.17-.67-.07-.82.21-.14.25-.15.52-.22.79-.08.32-.3.61-.46.91-.04-.07-.01-.13-.02-.17-.04-.38.14-.7.25-1.04.09-.3.3-.55.3-.89,0-.35.07-.71.17-1.04.19-.6.4-1.19.65-1.76.15-.35.31-.71.67-.92.1-.06.17-.2.21-.31.07-.19.08-.4.15-.59.13-.38.28-.75.44-1.12.12-.27.36-.51.4-.79.08-.5.41-.85.62-1.28.08-.16.17-.32.26-.47.07-.11.15-.22.26-.37,0,0,0-.08.03-.15.08-.2.17-.38.24-.58.06-.17.07-.36.14-.52.1-.24.25-.46.36-.69.13-.28.24-.58.38-.86.19-.4.4-.8.6-1.2.04-.09.02-.21.07-.3.21-.39.44-.77.65-1.16.21-.39.41-.79.62-1.18.28-.51.59-1.01.86-1.53.37-.69.71-1.4,1.07-2.09-.27-.15-.41-.02-.54.13-.08.1-.17.2-.23.31-.35.62-.69,1.26-1.05,1.87-.23.38-.51.73-.75,1.1-.2.3-.37.62-.54.94-.17.3-.41.55-.52.89-.09.24-.27.45-.4.69-.2.38-.39.77-.59,1.15-.09.18-.23.33-.32.51-.26.55-.52,1.11-.76,1.67-.31.69-.6,1.38-.91,2.07-.17.37-.37.73-.55,1.1-.03,0-.07-.01-.1-.02,0-.1-.01-.2,0-.29.01-.08.08-.14.1-.22.08-.33.16-.66.23-.99.1-.46.22-.92.28-1.39.09-.8.14-1.6.21-2.39.06-.61-.11-1.19-.27-1.76-.12-.43-.27-.86-.41-1.28-.03-.09-.12-.21-.09-.27.14-.27-.1-.44-.16-.65-.05-.17-.16-.33-.17-.5-.03-.37-.22-.66-.41-.94-.28-.41-.56-.82-1.15-.78-.01,0-.03-.01-.05-.02-.35-.11-.71-.21-1.06-.32.66.2,1.25.53,1.7,1.05.23.26.38.57.49.91.23.72.52,1.42.78,2.13.11.31.16.64.31.92.18.35.18.71.22,1.08.04.42.07.84.05,1.26-.03.58-.06,1.17-.2,1.72-.09.34-.06.69-.14,1.02-.06.23-.16.46-.23.69-.02.06,0,.12-.02.18-.07.35-.12.71-.21,1.05-.06.24-.17.46-.24.69-.03.11.03.26-.02.34-.32.45-.26,1.02-.5,1.49-.19.38-.36.77-.48,1.18-.15.51-.23,1.03-.34,1.55-.05.24-.1.49-.15.74-.25.01-.53-.06-.67.21-.07.14-.14.3-.14.46,0,.17.09.34.13.52.01.07,0,.16-.03.22-.24.49-.5.97-.76,1.45.07-.44-.21-.77-.31-1.16-.05-.19-.18-.35-.25-.54-.02-.04.04-.16.1-.18.2-.09.42-.15.62-.25.08-.04.17-.16.17-.25,0-.28-.04-.56-.06-.88-.29.07-.54.15-.79.2-.29.06-.53-.08-.63-.36-.14-.4-.29-.8-.39-1.21-.19-.78-.3-1.58-.53-2.35-.15-.5-.03-.99-.1-1.47-.04-.27.14-.57-.1-.82-.02-.02,0-.08,0-.12.02-.66.02-1.32.05-1.98.02-.53.08-1.05.11-1.58,0-.13-.02-.27-.02-.4.01-.49.03-.98.05-1.47,0-.07-.01-.14-.03-.24-.14.03-.26.06-.36.09.08.08.2.14.21.22.01.09-.09.18-.12.28-.03.08-.03.16,0,.22.04.1.07.19.12.31-.13-.03-.24-.05-.35-.07,0,.05,0,.07.01.07.33.24.25.18.05.48-.11.17-.07.22.07.3.04.02.07.04.1.07.18.13.18.19,0,.31-.08.05-.15.09-.25.14.05.06.09.11.14.18-.06.03-.11.05-.16.07.15.22.3.44-.03.64.29.29.28.7,0,.84.06.13.14.25.15.38.02.13-.04.27-.06.4-.02,0-.05,0-.07,0,.07.06.13.11.2.17-.06.16-.13.31-.19.47.12.09.14.64-.01.97-.02-.04-.06-.08-.06-.1.07-.38-.24-.68-.23-1.05,0-.12-.28-.2-.09-.31-.1-.26-.2-.49-.27-.72-.2-.73-.4-1.47-.58-2.21-.12-.52-.19-1.04-.3-1.56-.1-.49-.22-.99-.34-1.48-.12-.47-.28-.94-.37-1.42-.11-.58-.19-1.18-.09-1.74.14-.09.25-.17.37-.24.34-.2.68-.4,1.02-.6.06-.03.13-.06.16-.11.19-.33.54-.34.85-.43.29-.09.6-.14.91-.17.13-.01.26.09.46.16-.06-.14-.09-.21-.15-.33.22.02.41.02.59.06.29.06.57.15.87.24.04-.21.12-.34.33-.29-.4-.04-.81-.13-1.21-.11-.42.03-.75-.07-1.03-.37-.18-.2-.4-.28-.63-.13-.21.13-.39.34-.54.54-.14.18-.17.47-.51.4-.03,0-.07.03-.11.05-.44.21-.89.42-1.33.62-.07.03-.19.05-.21.11-.11.31-.16.04-.26-.04-.16.59-.13,1.14.14,1.66-.06.04-.11.09-.1.13,0,.07.08.15.06.2-.16.4.13.71.23,1.05.02.06.11.1.12.15.1.46.19.93.28,1.39.03.13.08.25.1.37.05.29.08.58.13.86.05.25.12.5.17.75.05.23.06.47.12.7.06.25.22.5.21.74-.03.34.18.58.24.87.05.21.17.41.23.62.06.22.07.46.12.68.07.27.17.52.24.79.07.24.13.49.2.74.06.22.17.43.19.66.02.21.01.41.07.62.2.69.35,1.39.5,2.1.13.67.23,1.34.33,2.01.03.23,0,.46,0,.76-.11-.32-.19-.57-.27-.83-.12-.35-.31-.67-.32-1.05,0-.03-.05-.06-.06-.1-.03-.08-.06-.17-.09-.26-.02-.05-.06-.1-.1-.14-.14-.15-.29-.29-.43-.43l.06-.06c.11.1.23.2.34.3l.04-.04c-.13-.22-.26-.44-.36-.61-.02-.13-.02-.21-.05-.29-.09-.21-.31-.45-.26-.61.09-.3-.13-.19-.2-.23,0-.11.06-.24.02-.31-.21-.42-.46-.81-.65-1.24-.16-.35-.25-.74-.39-1.1-.22-.59-.46-1.18-.69-1.76-.2-.52-.4-1.04-.6-1.56-.09-.23-.19-.46-.29-.69-.08,0-.16-.02-.25-.03,0-.08,0-.14.01-.23.05.07.09.12.13.16,0,0,.08-.03.07-.04-.01-.06-.02-.14-.06-.17-.18-.16-.35-.32-.32-.6,0-.03-.02-.06-.04-.09-.17-.3-.35-.6-.52-.9-.11-.19-.19-.4-.35-.57-.37-.39-.68-.83-1.08-1.18-.3-.26-.72-.39-1.07-.58-.07.1-.1.15-.13.2-.11-.05-.21-.09-.34-.15,0,.15-.03.28,0,.39.08.19.22.36.29.55.13.35.16.39.58.43-.15-.21-.31-.42-.46-.63.56.2,1.03.48,1.43.91.46.48.82,1.02,1.11,1.61.07.14.1.29.17.43.19.41.41.81.59,1.23.25.58.46,1.18.7,1.77.27.66.54,1.33.81,1.99.29.7.58,1.4.88,2.1.25.57.5,1.15.76,1.72.04.08.15.13.17.2.02.06-.06.14-.08.21,0,.02.02.06.04.08.2.38.41.76.59,1.15.05.11.2.23.06.38,0,0,.1.11.16.17.01.01.04.02.06.03-.04.05-.08.08-.11.12.17.31.33.61.5.92,0,0-.04.03-.11.08.11.06.19.1.28.14,0,.05-.03.11-.01.14.16.32.34.63.51.94.01.03.02.08.01.09-.15.14-.03.26.02.39.02.06.03.12.04.18-.03.02-.06.04-.08.06-.22-.21-.46-.42-.67-.65-.2-.21-.37-.44-.58-.69.05-.1-.06-.14-.18-.18-.07-.02-.15-.03-.2-.08-.22-.24-.43-.49-.65-.74,0,0,.01-.03.03-.04.06.03.11.06.16.09.02-.03.05-.05.07-.08-.07-.05-.15-.08-.21-.14-.19-.2-.4-.39-.56-.61-.29-.39-.54-.8-.81-1.2-.04-.07-.1-.12-.15-.19-.23-.34-.45-.69-.7-1.02-.32-.4-.66-.79-1.01-1.17-.51-.55-.85-1.19-1.09-1.89-.1-.28-.23-.56-.26-.85-.09-.83-.14-1.67-.22-2.5-.02-.19-.04-.39-.1-.57-.06-.17-.16-.31-.07-.5.02-.04-.08-.12-.12-.19.02.25-.21.52.06.75,0,0,0,.02,0,.02.04.52.14,1.05.12,1.57-.03.89.13,1.74.46,2.56.1.24.19.48.28.72.04.11.01.26.07.36.26.4.54.79.82,1.18.05.07.13.12.18.18.26.35.51.7.77,1.05.31.42.67.82.92,1.28.12.21.27.4.39.62.21.4.49.77.76,1.13.32.42.69.8.99,1.23.31.45.72.7,1.21.87.21.07.41.18.61.29.07.04.13.1.19.15.03-.02.05-.04.08-.05.14.46.28.92.44,1.44-.25-.14-.45-.24-.65-.35-.3-.18-.58-.38-.88-.56-.14-.08-.31-.12-.45-.2-.34-.21-.64-.46-1.03-.59-.38-.12-.72-.35-1.09-.48-.78-.26-1.44-.72-2.06-1.2-.72-.55-1.34-1.23-1.96-1.9-.39-.42-.7-.9-1.06-1.36-.3-.37-.61-.73-.9-1.11-.26-.34-.52-.68-.72-1.05-.26-.47-.45-.97-.69-1.45-.26-.52-.38-1.08-.39-1.63-.03-1-.08-2-.22-2.99-.04-.29-.16-.56-.26-.83-.06-.16-.27-.19-.35-.08-.16.22-.31.44-.47.66.03.08.07.15.1.24.07.24.14.49.2.73.07.25.16.49.2.75.07.54.12,1.09.14,1.63.03.74.23,1.44.48,2.13.14.39.35.75.53,1.13.09.19.18.38.3.55.26.35.54.69.81,1.03.22.28.42.57.65.85.25.31.51.62.77.92.17.21.34.43.52.62.46.48.9,1,1.42,1.42.55.45,1.17.82,1.79,1.19.28.17.63.23.93.37.72.33,1.44.67,2.14,1.02.56.28,1.11.6,1.67.89.15.08.32.41.3.59,0,.08.02.16.03.24.05.03,0,.09,0,.1.1.11.2.22.31.32.07.07.15.13.23.2-.02.03-.03.06-.05.09-.26-.04-.53-.08-.79-.13-.36-.07-.72-.15-1.09-.22-.26-.05-.53-.09-.79-.16-.42-.11-.83-.25-1.26-.35-.98-.24-1.95-.48-2.88-.89-.47-.21-.96-.37-1.43-.55-.05-.02-.14-.05-.14-.08,0-.29-.26-.29-.44-.36-.13-.05-.28-.07-.38-.14-.32-.25-.61-.53-1.04-.58-.03,0-.06-.06-.09-.08-.14-.1-.29-.2-.44-.31-.02.02-.04.05-.06.07.18.19.36.38.56.55.24.21.47.45.76.58.23.11.42.24.62.39.46.35.93.69,1.42,1,.24.15.54.2.82.3.36.12.72.24,1.08.36.2.06.4.11.6.16.2.05.42.05.59.14.21.11.41.23.65.2.05,0,.12,0,.17.03.42.2.84.4,1.27.59.58.26,1.14.58,1.8.54-.02-.05-.03-.1-.05-.14.04,0,.09-.03.13-.02.22.05.43.11.67.18-.17.24-.32.47-.48.7,0,0,.03.03.06.05-.1.02-.2-.05-.25-.02-.3.15-.58.32-.87.49-.25.15-.5.3-.73.47-.16.11-.29.26-.44.4-.04.04-.07.09-.11.12-.47.28-.93.58-1.43.82-.66.32-1.34.61-2.02.89-.4.17-.81.29-1.25.28-.09,0-.18.08-.28.11-.06.02-.14.03-.2.02-.13-.03-.25-.08-.38-.11-.39-.07-.8.04-1.17-.18-.03-.02-.08,0-.12,0-.36-.06-.71-.11-1.07-.18-.15-.03-.29-.11-.43-.14-.25-.06-.53-.07-.76-.18-.39-.19-.74-.45-1.11-.67-.48-.29-.91-.65-1.34-1-.42-.34-.73-.77-1.06-1.18-.23-.29-.44-.62-.61-.95-.19-.39-.55-.74-.35-1.24,0-.02.01-.05,0-.07-.17-.4-.09-.81-.01-1.19.07-.34.13-.67.17-1.01.01-.1.07-.21.05-.31-.07-.36-.02-.7.03-1.06,0-.05,0-.11-.01-.17-.03-.16-.06-.32-.09-.48,0-.04-.05-.09-.11-.11-.14-.04-.29.07-.29.2,0,.33.03.66-.01.98-.07.49.02,1-.23,1.46-.01.03-.01.06,0,.09.02.13.04.25.07.39-.13.01-.19.02-.33.03.17.07.27.11.31.13.02.27.04.5.06.72.01.1.08.19.08.29,0,.1-.11.23-.08.31.17.47.36.93.54,1.4.06.15.08.38.19.44.28.14.35.44.56.64.35.34.65.73.98,1.09.07.08.15.15.23.21.36.3.72.6,1.09.88.2.15.4.31.62.42.18.09.35.31.55.18.06.07.09.15.15.18.13.06.27.11.41.14.27.08.54.14.77.2.1-.02.2-.08.26-.05.07.03.1.13.14.2.1.21.41-.24.52.23.2-.05.4-.11.6-.14.06-.01.19.03.19.05.02.25.18.16.32.15.1,0,.2,0,.29.02.45.15.89.06,1.33-.02.47-.09.94-.22,1.41-.35.32-.09.64-.18.93-.33.43-.23.81-.56,1.24-.76.62-.29,1.11-.74,1.6-1.18.68-.63,1.42-1.17,2.26-1.54.02.27-.02.47-.12.68-.08.16-.17.33-.23.5-.15.41-.28.83-.44,1.24-.27.67-1.88,3.88-1.9,3.92.07.06.31.34.39.4.18-.39.34-.74.53-1.15-.04-.15-.04-.15.16-.17.03,0,.07-.04.08-.08,0-.03-.01-.07-.03-.09-.03-.04-.07-.07-.14-.13h.27c.33-.92.72-1.82,1.18-2.71.02-.11.05-.25.09-.45.06.13.1.21.13.28,0,0,.02,0,.03,0-.02-.16-.04-.33-.06-.5.06.06.12.11.19.18.03-.09.05-.13.07-.18.06-.19.06-.42.17-.57.19-.26.28-.51.27-.83,0-.06.13-.17.22-.19.22-.06.33-.18.33-.41,0-.11.01-.21.02-.32,0-.26-.14-.47-.4-.55-.32-.1-.53-.37-.49-.64.33.05.62.35.98.13,0,.29.12.31.63.16-.22.13-.44.27-.66.4,0,.03.02.06.02.09.22.06.44.13.67.2-.01.06-.03.14-.04.22-.09.46-.17.92-.25,1.37-.03.17-.14.35.01.47-.05.17-.13.31-.14.45,0,.34,0,.67.06,1.01.05.33.17.65.25.98.19.76.36,1.53.58,2.29.13.46.28.92.49,1.35.28.59.71,1.07,1.24,1.45-.13-.16-.26-.32-.4-.49.02-.02.04-.03.06-.05.07.04.15.07.2.13.32.44.75.73,1.26.92.07.02.17.09.17.12-.03.26.18.23.32.3.22.1.43.2.65.29.34.14.69.27,1.04.39.04.01.12,0,.14-.04.13-.21.24-.06.36,0,.23.13.45.26.69.37.04.02.11-.02.16,0,.12.02.24.03.35.08.21.08.39.22.6.28.45.13.92.22,1.38.33.06.01.13,0,.19.02.25.06.46.23.74.19.17-.02.38.03.53.12.26.16.5.18.78.1.1-.03.23-.05.3,0,.26.17.55.1.82.12.09,0,.19.04.28.06.21.04.42.08.64.13,0,.18.15.2.3.23.14.03.28.07.42.11.13.04.25.11.39.15.54.15,1.07.31,1.62.44.25.06.52.06.77.04.18-.01.35-.1.54-.16.01-.16-.06-.22-.33-.24-.4-.04-.81-.09-1.21-.14-.27-.03-.55-.06-.82-.12-.14-.03-.27-.13-.41-.19.01-.03.02-.05.04-.08l.44.13s.01-.08.02-.12c-.2-.03-.41-.05-.61-.08-.07-.01-.13-.04-.19-.07-.08-.04-.15-.11-.23-.12-.21-.04-.43.02-.63-.16-.11-.09-.32-.07-.49-.08-.71-.07-1.42-.13-2.13-.22-.13-.02-.27-.17-.38-.16-.18.02-.33,0-.5-.05-.31-.1-.65-.11-.97-.18-.25-.05-.49-.13-.73-.2-.13-.04-.25-.1-.39-.15-.04.09-.06.15-.1.24-.04-.05-.07-.08-.09-.11-.12-.23-.28-.38-.57-.42-.25-.04-.48-.19-.72-.31-.19-.09-.37-.2-.55-.29-.03-.01-.07,0-.14.01.06.09.11.17.15.24l-.04.05c-.07-.06-.19-.12-.19-.17.01-.22-.17-.23-.29-.3-.1-.05-.22-.08-.33-.13-.3-.13-.61-.26-.9-.41-.48-.25-1.03-.36-1.44-.76-.19-.19-.44-.3-.62-.5-.37-.41-.76-.82-.91-1.39-.13-.48-.36-.94-.49-1.42-.15-.52-.25-1.05-.36-1.58-.07-.32-.12-.65-.16-.97-.08-.69.13-1.35.24-2.01.05-.26.18-.5.28-.79.13.12.22.18.29.26.35.39.78.72.84,1.3,0,.04.06.09.11.11.42.2.85.38,1.26.61.57.32,1.12.67,1.68,1.01.57.35,1.19.57,1.74.75.11-.08.17-.12.23-.16-.51-.23-1.02-.46-1.53-.7.18-.04.36-.07.54-.03.21.05.41.15.6.24.04.02.1.09.09.12-.06.23.11.2.24.21-.04-.06-.07-.13-.14-.24.2.05.35.11.49.13.21.02.39.2.62.1.15-.06.29-.06.46.01.18.07.4.05.61.06,0-.03.01-.06.02-.09-1.76-.17-3.31-.91-4.89-1.69.07-.05.08-.06.09-.06.07,0,.13,0,.2,0,.81.02,1.62.07,2.41.26.38.09.78.13,1.17.18.54.08,1.09.2,1.63.23.95.05,1.9.02,2.85-.11.75-.1,1.48-.27,2.2-.49.58-.17,1.16-.37,1.73-.56.31-.1.64-.18.93-.34.65-.34,1.27-.73,1.91-1.07.41-.22.85-.39,1.28-.56.22-.09.46-.15.7-.2.43-.1.85-.29,1.31-.21.53.09,1.07.18,1.6.28.63.12,1.18.41,1.6.9.24.28.48.57.67.89.16.27.34.58.1.91-.02.02-.04.06-.03.09.05.18-.08.26-.2.32-.93.49-1.37,1.42-1.99,2.19-.16.2-.3.4-.55.52-.12.06-.3.15-.25.3-.14.14-.25.26-.36.37-.03.03-.08.05-.11.09-.16.21-.45.22-.63.43-.21.24-.56.37-.86.53-.3.16-.6.34-.92.43-.4.11-.81.14-1.22.2-.01,0-.03-.01-.04-.02.02-.02.04-.04.08-.08-.23.02-.44.03-.67.05.05.04.08.06.11.09,0,.02,0,.05,0,.07-.42-.19-.84-.17-1.26-.04.25-.01.5-.03.74-.04,0,.02,0,.05,0,.07-.42-.04-.84.24-1.26,0-.04.05-.09.08-.14.07-.06,0-.13-.07-.17-.05-.35.18-.71.15-1.09.14-.25,0-.51.06-.77.09v.13c.25.09.51.19.77.27.23.07.46.11.69.18.12.03.23.12.35.13.35.03.69.04,1.04.04.33,0,.67-.06.99,0,.33.06.6-.05.89-.13.24-.06.49-.17.73-.15.3.02.54-.08.79-.2.05-.02.1-.04.16-.06.66-.2,1.35-.32,1.9-.79.35-.29.72-.56,1.06-.85.25-.21.47-.46.7-.69.04-.05.06-.12.11-.16.06-.05.19-.07.2-.12.09-.37.48-.52.67-.88,0,0,.06-.01.14-.03,0-.05-.03-.09-.02-.11.05-.08.12-.14.17-.21.2-.28.39-.56.6-.83.08-.11.16-.27.26-.3.3-.07.36-.36.54-.54.14-.15.23-.35.34-.53.12-.19.03-.55-.15-.62ZM48.24,54.49c-.09-.37-.33-.7-.24-1.17.25.18.16.41.21.59.05.18.06.38.09.56l-.06.02ZM48.8,58.4s-.04,0-.06,0c-.04-.08-.09-.16-.16-.3.11.02.23.02.25.06.03.07,0,.16-.02.24ZM50.75,57.67c-.28-.11-.47-.19-.66-.26-.02,0-.03-.01-.05-.02-.14-.03-.43-.27-.48-.41-.07-.21-.14-.43-.19-.65-.04-.18.14-.4.36-.4.19,0,.4.02.56.11.24.14.44.35.66.53.03.03.06.09.05.13-.08.33-.16.65-.24.97ZM51.18,59.47c-.11-.29-.05-.37.31-.36-.11.13-.21.23-.31.36ZM53.25,59.4c-.12.05-.24.07-.37.1,0-.02,0-.05,0-.07.08-.07.16-.14.26-.19.04-.02.11.01.17.02-.02.05-.02.13-.05.14ZM53.37,58.97c.08-.06.17-.12.27-.19.06.07.13.16.2.24-.15.24-.29.23-.47-.04ZM72.36,59.57c-.28.04-.52.11-.76.28-.29.2-.66.31-.98.47-.32.16-.61.36-.93.52-.91.47-1.85.84-2.84,1.1-1.21.32-2.44.59-3.69.7-.46.04-.92.09-1.37.05-.67-.05-1.33-.18-1.99-.27-.95-.13-1.91-.25-2.85-.41-.96-.16-1.97-.16-2.84-.73-.04-.03-.1-.04-.12-.08-.09-.16-.2-.33-.23-.5,0-.05.25-.17.39-.2.32-.08.64-.13.96-.18.08-.01.16,0,.23,0,.12,0,.27.03.35-.02.3-.2.62-.16.94-.16.36,0,.72.06,1.07.09.08,0,.15-.03.23-.04.08-.01.16-.04.23-.03.31.02.59.12.93.07.32-.05.67.07,1.01.08.36.01.71-.02,1.07-.03.04,0,.09-.02.11,0,.18.18.38.09.57.05.26-.05.51-.12.77-.15.15-.01.3.05.45.06.21.01.43.01.64.01.04,0,.08-.03.11-.02.58.19,1.14-.06,1.71-.09.25-.01.49,0,.74-.02.13,0,.27-.04.4-.06.44-.05.88-.09,1.33-.13.54-.05,1.08-.14,1.62-.13.76,0,1.47-.26,2.22-.34.42-.05.83-.12,1.25-.18,0,.03,0,.06.01.09-.25.07-.5.17-.76.21Z"/>
      <path class="cls-1" d="M30.18,44.84c.21.21.09.48.1.72,0,.23-.12.47-.13.71,0,.14.11.27.07.43-.05.21-.04.44-.07.66-.06.42-.16.83-.2,1.24-.03.27.01.54.02.82,0,.05-.03.1-.03.15-.01.13-.02.26.01.39-.1.18-.18.37,0,.57.01.02.02.05.02.07-.03.24-.07.48-.09.72-.02.24-.02.48-.02.72,0,.21,0,.42-.01.63-.02.47-.05.94-.07,1.41-.02.55-.03,1.09-.02,1.64,0,.26.06.52.07.78,0,.16,0,.32-.02.48-.02.16-.07.31-.08.47-.02.63-.04,1.27-.05,1.9,0,.38,0,.76,0,1.14,0,.15-.04.3-.05.45,0,.15,0,.3,0,.45,0,.19.02.39.03.58,0,.08.01.16-.01.23-.04.1-.11.19-.17.29-.06.31-.13.62-.19.94-.04.19-.07.39-.11.58,0,.05-.02.1-.04.14-.08.18-.15.35-.17.56-.03.3-.18.58-.28.87-.05.17-.08.35-.13.52-.07.23-.22.45-.22.68,0,.34-.26.53-.34.81-.04.15-.06.3-.09.44-.08.32-.16.63-.26.94-.18.58-.38,1.15-.57,1.72-.16.49-.31.98-.48,1.46-.08.22-.21.42-.29.63-.15.36-.27.73-.42,1.08-.08.18-.2.35-.27.54-.08.22-.03.48-.28.64-.05.03,0,.18-.03.25-.13.28-.28.56-.41.84-.05.11-.03.24-.05.39-.38.21-.41.72-.78,1.04.11,0,.18.01.26.02-.03.02-.05.05-.08.05-.24.06-.49.43-.44.68.07.34.01.46-.33.6.46.25-.06.31-.06.52-.07-.09-.11-.13-.16-.19-.09.11-.15.19.04.25.15.05.24.12.06.26-.09.08-.15.19-.24.31.01.05.04.13.06.22-.01,0-.03.02-.04.03-.04-.04-.09-.07-.14-.11-.04.08-.07.16-.1.21.08.07.23.17.21.19-.1.18-.22.34-.34.51-.08.18-.17.37-.27.6.02.06.07.16.12.28-.07.02-.13.03-.2.05.02.03.03.05.04.07.16.13.14.26,0,.4-.08.09-.14.2-.19.32-.07.15-.12.31-.16.46-.02.08.03.16.07.25-.05.19-.54.2-.18.59-.16.11-.3.22-.42.31.07.08.16.18.23.27-.05.11-.09.2-.14.3-.09,0-.2.01-.37.02.15.12.25.19.39.29-.09.14-.18.27-.26.4-.03,0-.06-.01-.09-.02.05.12.1.24.16.39-.06.05-.14.11-.23.19.14.09.26.19.07.34-.02.02-.02.08-.03.11-.03.14-.06.28-.14.41,0,.19.02.38.03.6-.13-.07-.24-.13-.35-.18-.02.03-.04.05-.05.08.08.06.15.12.25.21-.06.11-.14.24-.22.37-.02.04-.03.09-.03.13,0,.08.02.16.04.23.03.09.09.17.15.29-.05.15-.11.35-.18.56.18.07.3.15.06.34-.06.05,0,.24,0,.4-.15.1-.22.22-.06.41.16.2.12.33-.14.47.06.03.11.04.17.07-.04.2-.09.4-.12.61-.01.08.02.17.02.26,0,.08,0,.17-.02.25-.03.17-.18.32-.04.5.03.03,0,.11,0,.18h-.29c.08.08.13.12.16.16-.06.1-.12.19-.2.31h.26s.02.03.02.05c-.09.07-.18.15-.32.26.13-.02.2-.03.27-.04,0,.36.03.71,0,1.06-.04.42-.13.83-.2,1.24-.03.16-.13.34-.08.46.09.22.15.39-.09.55,0,0,.1.19.16.29-.17.13-.18.47-.02.64.13.14.13.25,0,.37-.03.03-.08.1-.07.12.16.27-.05.36-.27.49.28.05.3.19.28.42-.02.37.04.75.07,1.13.02.27.04.55-.18.78.07.09.13.18.21.28-.05.12.02.33.13.48.05.06,0,.18,0,.24.05.18.09.34.13.5,0,.04,0,.1.01.11.12.07.12.16.04.24-.07.07-.17.13-.26.19-.02-.02-.04-.04-.06-.07.07-.08.13-.17.22-.28-.13-.08-.25-.15-.36-.21.07-.37-.07-.73-.15-1.09-.05-.24-.1-.49-.12-.73-.03-.29-.01-.58-.04-.87-.02-.17-.04-.36-.12-.5-.12-.22.05-.24.19-.34-.06-.1-.16-.2-.19-.32-.02-.08.05-.18.03-.26,0-.12-.01-.24-.01-.37,0-.26,0-.51.02-.77,0-.27.04-.54.03-.81-.01-.33-.06-.67-.08-1,0-.1.07-.21.08-.32.04-.46.05-.92.09-1.38.08-.88.17-1.75.24-2.63.08-.93.13-1.87.21-2.8.03-.29-.04-.62.18-.81,0-.14-.01-.24,0-.33.06-.36.13-.72.19-1.07.07-.41.12-.82.22-1.22.09-.32.25-.63.37-.94,0-.01.01-.04,0-.05-.23-.23.04-.35.1-.52.05-.15.04-.33.05-.49,0-.04-.02-.08,0-.11.34-.69.55-1.42.74-2.16.06-.23.19-.44.29-.66.17-.41.34-.82.51-1.23.07-.15.15-.3.22-.45.01-.03.05-.05.05-.08-.01-.56.34-.99.54-1.46.14-.32.25-.64.35-.97.03-.11.09-.21.16-.3.2-.27.23-.59.3-.9.03-.15.15-.29.2-.43.05-.14.08-.28.14-.41.08-.2.17-.39.25-.6.1-.27.2-.54.29-.81.11-.33.21-.66.32-.98.06-.16.16-.3.21-.46.15-.52.27-1.04.43-1.55.07-.24.19-.46.29-.69.13-.31.24-.61.27-.95.03-.26.18-.51.26-.76.07-.23.11-.48.18-.71.06-.21.16-.42.22-.63.08-.29.14-.59.21-.88.05-.19.1-.39.14-.58.03-.12.03-.23.06-.35.02-.09.06-.18.08-.27.03-.12.06-.24.07-.37,0-.08-.05-.17-.04-.26.02-.2-.09-.34-.18-.5-.1-.17-.11-.38-.17-.58-.11-.34-.22-.69-.34-1.03-.2-.59-.31-1.2-.35-1.84h.16c-.03-.07-.06-.13-.09-.2.16-.04.31-.07.43-.09.09.11.15.23.25.31.31.24.24.61.31.92.08.36.3.62.51.91.02-.17.03-.33.07-.49.04-.16.12-.3.18-.46.02-.05.02-.1.01-.16,0-.04-.04-.08-.03-.11.13-.47.08-.96.1-1.44.03-.83.07-1.66.1-2.49.01-.25,0-.5.04-.75.01-.09.11-.16.18-.24.03-.04.08-.08.11-.14-.21.06-.27.06-.25-.2.04-.46.06-.92.02-1.39-.03-.33.08-.67.11-1.01.02-.27.01-.54.02-.81.02-.38.05-.75.07-1.13.03-.63.05-1.25.09-1.88.02-.29.06-.58.12-.87.15-.71.2-1.43.18-2.16,0-.2.03-.32.22-.4,0,0,0,0,0,0Z"/>
      <path class="cls-1" d="M65.87,35.79c-.06,0-.1.01-.15.02.01.02.02.05.03.05.16.02.22.14.31.25.2.25.47.45.72.66.02.02.12-.02.17-.05.15-.1.29-.23.45-.32.16-.09.51.2.51.41,0,.04,0,.09.01.12.22.3.03.59-.01.88-.02.12-.07.24-.13.35-.04.08-.11.15-.16.23-.04.06-.1.14-.09.18.25.5-.02.91-.2,1.34-.11.27-.16.57-.25.85-.07.25-.15.51-.24.75-.04.11-.07.21-.06.33.03.26-.25.33-.38.51.05-.33.09-.66.15-.99.06-.33.1-.66.19-.98.1-.36.12-.74.22-1.1.1-.36.05-.73.15-1.09.01-.05-.1-.13-.15-.19.22-.08.05-.26.02-.41-.06-.38-.41-.55-.64-.81-.3-.34-.56-.71-.83-1.07-.1-.14-.19-.29-.3-.45-.16.49-.21,1-.46,1.43-.06.08-.11.17-.17.25-.02.02-.04.05-.05.07-.16.45-.4.85-.74,1.19-.12.12-.13.33-.22.47-.07.12-.17.22-.28.3-.13.1-.14.23-.2.36-.06.13-.2.23-.32.33.08.06.08.12-.04.26-.34.4-.61.84-.93,1.25-.34.43-.71.84-1.07,1.27-.13.15-.22.34-.36.48-.58.58-.99,1.3-1.52,1.93-.39.47-.74.97-1.09,1.47-.13.19-.16.43-.28.64-.24.44-.5.86-.75,1.29-.06.11-.12.22-.21.37.06.14-.08.29-.17.44-.13.21-.27.41-.4.61-.09.15-.18.29-.26.45-.05.1-.04.23-.1.33-.13.24-.22.24-.37.02.11-.13.22-.25.3-.39.02-.03-.08-.13-.13-.2.08-.02.19-.05.3-.08,0-.02,0-.05-.01-.07-.06-.03-.12-.05-.19-.09.1-.16.44-.04.35-.35-.05-.03-.11-.06-.23-.12.16-.03.26-.05.29-.05.09-.15.16-.26.23-.37-.03-.02-.07-.04-.13-.08.09-.06.17-.12.29-.2-.11-.03-.19-.05-.27-.08,0-.02,0-.03,0-.05.15-.02.29-.05.44-.07.01-.03.03-.05.04-.08-.04-.03-.08-.07-.15-.13.14-.13.31-.28.48-.44.15-.5.3-1.02.8-1.38-.05-.02-.08-.03-.1-.04-.03,0-.06,0-.12,0,.04-.05.06-.08.09-.11.16-.2.33-.38.48-.59.2-.28.36-.58.56-.85.37-.5.74-.99,1.12-1.48.14-.18.31-.34.46-.52.41-.51.83-1.02,1.23-1.53.36-.46.73-.92,1.07-1.4.27-.39.49-.81.74-1.21.14-.22.33-.42.42-.65.05-.13.47.17.22-.23-.05-.08.13-.3.21-.45.08-.15.18-.29.26-.44.06-.1.11-.2.16-.3.03-.07.05-.14.04-.22.37-.23.36-.58.29-.95,0-.04,0-.08.01-.11.07-.12,0-.21-.05-.32-.11-.26-.16-.54-.24-.81-.02-.06-.09-.15-.15-.16-.59-.09-1.18-.18-1.76.02-.27.09-.53.21-.79.32-.05.02-.08.07-.12.11-.03.03-.08.1-.1.09-.28-.12-.48.14-.73.16-.33.03-.66.06-1.01.09-.02-.13-.03-.2-.04-.23.38-.11.77-.15,1.08-.33.58-.33,1.2-.53,1.81-.77.42-.17.86-.31,1.3-.41.44-.1.87.01,1.27.22.04.02.09.08.08.11-.09.35.05.72-.16,1.08-.08.13.04.41.13.58.15.29.35.55.55.85Z"/>
      <path class="cls-1" d="M10.45,22.11c.61.14,1.06.48,1.44.9.21.23.38.5.56.76.18.25.34.52.52.77.09.12.2.24.32.34.7.55,1.38,1.11,2.2,1.48.58.26,1.15.54,1.73.81.08.04.14.13.22.18.3.18.6.35.9.53.27.16.52.38.81.5.36.15.59.42.85.68.21.2.51.3.75.46.24.15.46.33.69.49.13.09.26.17.38.27.06.05.08.14.14.19.04.04.11.06.17.08.1.02.27.01.28.06.09.3.39.31.59.45.42.29.85.56,1.28.83.08.05.17.07.28.11-.05.07-.09.12-.12.16.16.34.52.29.79.46-.16.01-.33.03-.49.04v.09c.23.04.47.07.71.11-.03.23-.18.06-.27.08-.1.03-.2.03-.33.05v.12c-.13-.04-.26-.07-.39-.11,0-.03.02-.05.03-.08.04.02.08.03.13.05v-.44c-.17-.05-.38-.11-.59-.17-.03,0-.07.02-.1.04-.21.18-.27.17-.41-.09h.32c-.54-.38-.92-.88-1.51-1.15-.37-.17-.7-.43-1.05-.65-.18-.11-.36-.21-.54-.31-.61-.36-1.21-.72-1.82-1.07-.11-.06-.26-.05-.39-.07.02-.02.04-.04.06-.06-.05-.08-.09-.18-.16-.23-.31-.18-.66-.32-.95-.53-.7-.52-1.56-.71-2.29-1.16-.38-.23-.75-.46-1.13-.69-.15-.09-.32-.13-.44-.24-.12-.1-.19-.26-.29-.4-.03-.05-.05-.11-.1-.14-.74-.39-1.13-1.11-1.67-1.7-.2-.21-.42-.39-.63-.59-.04-.04-.08-.09-.09-.14-.03-.19-.02-.39-.08-.56-.06-.18-.19-.33-.29-.52Z"/>
      <path class="cls-1" d="M39.97,79.34c.06.06.13.12.19.17-.06.11-.12.22-.2.38-.03-.04-.07-.1-.12-.18-.1.11-.12.21,0,.25-.09.28-.17.54-.26.79-.02.05-.06.12-.11.13-.27.06-.19.19-.05.32-.27.1-.37.27-.34.58,0,.05,0,.12-.02.15-.18.21-.18.2-.07.42-.23.14-.41.29-.4.6,0,.14-.14.27-.23.44.12.18.07.28-.27.31.11.08.16.12.25.18-.01.03-.04.1-.08.2-.04-.08-.07-.14-.11-.22-.07.08-.13.15-.19.22.22.05.28.22.18.42-.09.16-.2.32-.28.48-.02.04.02.11.04.19h-.26c.06.08.11.13.17.21-.06.11-.13.24-.2.38.01,0,.02,0,.03,0-.03.11-.06.21-.09.32-.06-.07-.12-.15-.23-.27-.03.21-.05.35-.07.54.12-.11.21-.2.3-.28-.04.19-.04.39-.33.38-.06,0-.12.15-.19.24.1.07.18.13.31.22-.32-.04-.38.12-.39.29.09.07.15.13.21.18-.06.01-.12.03-.21.05.02.33-.43.65,0,1.08-.13-.04-.2-.06-.3-.1.09.1.15.18.21.24-.09.01-.17.03-.25.04.04.06.09.12.12.19.03.05.05.1.08.19-.12-.02-.18-.03-.23-.04-.13.47-.26.93-.38,1.39l.05.02c.07-.16.14-.32.21-.48l.08.02c-.04.16-.07.33-.13.49-.05.16-.13.3-.21.49.32.23-.03.56.06.88-.11-.03-.16-.05-.25-.08.06.13.11.24.16.34-.05.04-.09.07-.16.11.06.02.1.03.12.03-.07.39-.13.76-.19,1.14h-.25c.06.03.12.04.12.06,0,.23,0,.46-.04.69-.01.09-.22.17.02.24.01,0,0,.11,0,.17-.04,0-.08-.02-.13-.03-.04.09-.09.2-.13.31-.02.04-.04.11-.01.14.11.13.16.25.11.42-.04.15,0,.31,0,.47h-.09c-.04-.12-.08-.25-.13-.39-.08.19-.08.2.11.59.09.19.07.26-.06.31-.02.37-.04.71-.06,1.11.14.17.14.18-.12.25-.03.19-.07.38-.1.58,0,.04,0,.09.02.11.2.15.1.33.08.51-.06.57-.1,1.13-.17,1.7-.02.2-.12.4-.13.6,0,.18.06.35.1.56-.07.03-.17.06-.24.08-.04-.21-.08-.4-.12-.59-.02-.08-.13-.15,0-.24.04-.03.03-.12.03-.19.06-1.1.1-2.21.18-3.31.06-.82.17-1.65.25-2.47.01-.13.02-.26.04-.39.13-.9.26-1.8.39-2.7.02-.15.02-.31.04-.46.1-.6.21-1.2.32-1.8.08-.47.16-.93.26-1.39.09-.44.2-.88.33-1.31.13-.44.24-.9.44-1.31.17-.35.31-.71.45-1.07.18-.46.36-.91.54-1.37.05-.13.09-.27.14-.4.04-.09.09-.16.16-.3,0-.03-.02-.12-.06-.27.14.09.22.15.31.2-.07-.21.01-.37.03-.55.04-.37.31-.61.41-.94.11-.34.33-.65.49-.97.1-.19.18-.38.28-.56.02-.04.1-.05.16-.07-.04-.05-.08-.09-.11-.14l.04-.05.15.08h0Z"/>
      <path class="cls-1" d="M76.82,49.44c-.13.1-.27.19-.38.31-.35.4-.67.83-1.03,1.22-.22.23-.5.41-.75.61-.2.16-.38.35-.58.51-.13.1-.3.13-.43.22-.4.27-.79.55-1.19.83-.02.01,0,.09,0,.08-.34.13-.68.23-.99.4-.7.38-1.37.83-2.08,1.19-.49.25-.97.56-1.54.65-.19.03-.37.2-.55.29-.2.1-.4.18-.6.27-.14.07-.28.13-.43.2-.53.25-1.07.5-1.6.76-.27.13-.52.31-.79.41-.37.13-.77.2-1.16.3-.1.03-.19.12-.29.16-.27.11-.54.22-.82.29-.1.03-.23-.04-.38-.02.04.02.08.04.12.06v.05c-.15-.03-.29-.07-.43-.1,0,.02,0,.04-.01.06l.16.05c-.35.18-.72.17-1.11.15.06.04.13.07.2.11-.2.14-.58.09-.89-.12.32-.05.61-.08.89-.15.31-.08.62-.19.93-.29.49-.17.98-.34,1.47-.51.08-.03.16-.04.23-.07.64-.25,1.28-.5,1.92-.75.23-.09.47-.17.74-.27-.08-.03-.16-.06-.27-.1.14-.02.25-.01.35-.04.12-.04.23-.12.35-.17.12-.05.24-.09.36-.14.34-.15.69-.29,1.02-.45.23-.11.44-.26.66-.38.13-.07.26-.14.4-.2.18-.08.37-.13.55-.22.29-.14.56-.3.84-.46.29-.17.58-.34.88-.51-.04.06-.07.12-.11.18l.05.05c.1-.07.21-.13.29-.22.02-.02-.02-.11-.03-.17.03.02.06.05.06.05.09-.07.15-.13.22-.17.45-.22.9-.43,1.28-.79.2-.19.48-.29.73-.43.21-.12.41-.24.61-.38.34-.24.69-.47,1.01-.74.19-.16.45-.24.58-.51.05-.11.28-.13.42-.2,0-.04-.01-.12.02-.16.22-.22.46-.42.69-.64.12-.11.24-.16.4-.09,0,0,0,0,0,0Z"/>
      <path class="cls-1" d="M54.45,55.51c.12-.19.24-.37.36-.56-.08-.12.08-.45.29-.5.13-.03.15-.1.19-.2.12-.24.22-.52.56-.59-.17-.17-.02-.29.06-.41.19-.27.4-.53.6-.8.26-.36.5-.72.78-1.07.25-.32.54-.62.8-.94.29-.34.58-.69.88-1.03.31-.36.64-.71.94-1.08.38-.47.74-.97,1.12-1.45.09-.11.22-.17.33-.27.18-.17.35-.34.53-.5.07-.06.18-.09.28-.14-.06-.2,1.09-1.1,1.48-1.03-.16.12-.3.21-.41.32-.13.12-.25.25-.35.4-.2.31-.54.48-.78.74-.33.35-.63.73-.95,1.09-.25.29-.51.57-.76.86-.21.24-.4.5-.61.74-.18.21-.37.4-.56.61-.17.19-.33.39-.49.59-.21.26-.42.53-.63.79-.34.41-.69.81-1.01,1.24-.35.48-.66.98-1,1.46-.04.06-.14.1-.18.16-.13.22-.26.44-.38.66-.08.15-.11.32-.31.37-.05.01-.09.09-.12.15-.08.14-.09.35-.35.33-.05,0-.12.16-.31.06Z"/>
      <path class="cls-1" d="M7.13,18.5c-.09-.28-.19-.57-.28-.85-.1-.29-.17-.6-.32-.87-.15-.28-.07-.59-.23-.88-.13-.25,0-.62,0-.94,0-.03.04-.07.03-.09-.18-.25.1-.48.05-.73,0-.04.06-.1.11-.18,0-.01-.03-.06-.03-.08.25-.5.49-.99.74-1.48.03.02.07.03.1.05-.06.16-.12.32-.19.52.02.02.07.07.14.15h-.16c.26.15.18.37.14.57-.09.47-.18.93-.26,1.4-.02.12,0,.26.01.38.01.28.02.57.03.85,0,.04.03.08.04.12.05.2.09.41.15.6.05.16.15.31.21.47.09.26.15.52.23.78.04.14.07.32.17.38.14.09.15.21.19.34.07.21.15.42.2.64.02.08-.06.17-.09.26.08.02.16.03.23.06.03,0,.06.06.05.07-.1.21.11.26.19.38.19.31.38.6.69.82.1.07.12.23.16.37-.41-.24-.77-.53-1.02-.93-.29-.46-.58-.92-.85-1.39-.13-.23-.21-.49-.33-.73-.02-.03-.07-.05-.11-.07,0,0,0,0,0,0Z"/>
      <path class="cls-1" d="M34.41,49.2c-.1-.08-.15-.12-.24-.19.04.12.06.21.09.3.19,0,.33.15.31.33-.03.31.09.57.23.84.24.45.45.93.69,1.38.11.2.27.38.36.58.11.25.3.43.48.61.06.06.12.12.19.18.32.26.64.52.94.81-.05-.02-.11-.04-.16-.06,0,0-.01.02-.02.02.19.12.39.25.55.35-.02.15-.03.28-.05.46-.13-.11-.25-.21-.37-.31-.24-.2-.49-.39-.73-.58-.07-.06-.14-.13-.22-.19-.23-.18-.46-.34-.68-.52-.41-.35-.58-.85-.79-1.33-.14-.32-.3-.62-.44-.94-.14-.33-.29-.66-.4-1.01-.09-.27-.13-.56-.18-.85-.12-.66-.25-1.32-.35-1.99-.07-.55-.1-1.1-.14-1.66,0-.06.02-.13.04-.24.23.19.22.42.24.63.03.25.04.5.06.75,0,.03,0,.08.02.09.37.37.2.86.27,1.29.02.15.06.3.1.44.06.19.14.38.2.57.02.05,0,.11-.01.21Z"/>
      <path class="cls-1" d="M30.18,44.84s0,0,0,0c-.04-.03-.11-.06-.11-.1-.03-.47-.11-.94-.06-1.4.06-.6.01-1.2.14-1.8.07-.32.04-.69.19-.99.09-.2-.04-.47.24-.58-.05-.07-.08-.13-.12-.18.14.09.38-.18.46.15-.09-.01-.15-.02-.24-.03.03.04.04.08.05.08.3-.04.36.15.38.38.04.37.09.74.12,1.1,0,.11-.04.22-.06.33-.07.36-.19.72-.21,1.08-.02.32-.12.61-.27.87-.15.26-.1.61-.38.81-.03.02.01.15.02.23-.04.02-.1.04-.16.06Z"/>
      <path class="cls-1" d="M62.47,42.27c.13-.03.26-.09.29-.31,0-.09.18-.17.29-.23.05-.03.13,0,.24.01-.42.52-.83,1.02-1.24,1.53-.34.41-.67.84-1.02,1.23-.48.54-.99,1.06-1.49,1.59-.3.32-.6.65-.9.98-.24.27-.48.54-.7.82-.14.18-.23.4-.35.59-.15.23-.34.45-.48.69-.24.41-.47.82-.69,1.24-.23.45-.45.91-.68,1.36-.02.05-.09.07-.13.11-.03-.05-.1-.12-.09-.15.15-.36.25-.75.58-1.04-.11-.14-.02-.21.12-.34.15-.14.22-.38.3-.58.06-.13.08-.28.14-.41.05-.11.12-.21.18-.31.17-.26.32-.55.55-.66.12-.19.2-.32.28-.46.1-.17.19-.35.3-.52.09-.15.18-.3.29-.42.28-.32.58-.62.87-.94.29-.31.56-.64.85-.94.23-.24.48-.45.71-.68.1-.1.17-.22.27-.33.05-.06.12-.1.18-.15,0-.03-.01-.11.01-.14.25-.31.54-.61.76-.94.11-.16.24-.24.39-.33.07-.04.09-.16.15-.27Z"/>
      <path class="cls-1" d="M16.55,13.74c.16.14.28.23.38.34.02.02,0,.09,0,.13,0,.06-.04.12-.01.16.02.04.1.04.18.06.07.29.14.62.22.95.02.1.07.19.1.29.02.1.04.2,0,.32.06.05.13.09.19.14l-.06.04c.04.09.1.19.13.29.05.14.08.29.13.43.04.12.09.25.15.36.14.3.28.59.42.89.16.33.32.67.45,1.01.12.29.2.59.33.87.07.12.14.25.21.37.07.13.15.26.22.39.01.02.05.03.05.05.08.54.62.83.74,1.36.04.17.22.31.35.46.13.15.24.31.27.51,0,.05.05.13.08.14.35.06.38.4.58.61-.19.03-.37-.09-.49-.27-.2-.29-.37-.63-.63-.85-.28-.23-.34-.57-.56-.82-.03-.03-.05-.07-.07-.1-.13-.18-.26-.35-.37-.54-.23-.39-.45-.78-.67-1.18-.05-.09-.03-.21-.07-.31-.05-.12-.1-.25-.19-.33-.25-.25-.22-.6-.37-.89-.19-.39-.31-.82-.52-1.2-.27-.5-.35-1.06-.56-1.58-.16-.41-.29-.83-.42-1.25-.02-.06,0-.13-.02-.19-.04-.13-.09-.25-.13-.37-.02-.07-.03-.15-.05-.28Z"/>
      <path class="cls-1" d="M25.42,27.26c.21.24.57.39.62.83-.1.07-.23.13-.33.22-.04.03-.08.13-.06.17.11.24.25.47.35.71.09.22.15.46.21.7,0,.03-.09.14-.14.13-.18-.02-.37-.06-.55-.1-.03,0-.08-.07-.08-.1,0-.24-.14-.41-.32-.49-.46-.21-.55-.75-.45-1.15.04-.18.06-.38.07-.57.02-.26.26-.24.42-.33.06-.04.15-.02.25-.03Z"/>
      <path class="cls-1" d="M22.82,28.75c-.04-.24.01-.42.25-.5.38-.13.62-.08.77.17.15.25.34.5.39.78.06.33.23.59.37.87.04.07.08.19.05.23-.06.07-.18.14-.26.12-.21-.05-.41-.13-.59-.23-.08-.04-.08-.2-.16-.27-.17-.17-.37-.3-.54-.47-.2-.19-.33-.42-.29-.71Z"/>
      <path class="cls-1" d="M16.74,37.44s-.09.09-.14.11c-.31.14-.61.27-.92.4-.1.04-.22.04-.33.07-.18.05-.34.14-.52.17-.18.04-.38.01-.56.06-.2.05-.39.16-.59.23-.15.05-.3.09-.47.14.05.16-.09.15-.24.17-.23.03-.45.11-.68.14-.22.04-.45.04-.67.07-.21.03-.41.09-.62.1-.31.01-.62.08-.93.09-.08,0-.17-.11-.26-.17.08-.05.16-.14.25-.15.19-.02.38,0,.57-.01.34-.03.67-.07,1-.13.36-.07.71-.15,1.06-.24.37-.09.73-.2,1.09-.3.35-.09.71-.16,1.06-.25.38-.1.76-.2,1.14-.32.24-.08.47-.18.71-.27.02.03.03.05.05.08Z"/>
      <path class="cls-1" d="M17.33,33.86c.12-.18.54-.22.65-.12.09.08.23.09.26.28.01.08.3.11.47.16,0-.02.02-.04.03-.06-.14-.08-.27-.16-.47-.27,1.46.13,2.81.57,4.23.54,0,.03,0,.07,0,.1-.1.01-.22.06-.31.03-.3-.1-.57.03-.82.13-.22.08-.39.07-.58-.01-.16-.07-.3-.17-.46-.23-.14-.05-.31-.11-.45-.07-.26.08-.5,0-.75-.03-.24-.02-.49.02-.71-.05-.37-.1-.73-.26-1.09-.4Z"/>
      <path class="cls-1" d="M14,39.39s-.02-.06-.05-.17c.13.08.21.12.35.21-.52.17-.94.37-1.43.34-.23-.02-.49-.07-.66.18-.02.03-.09,0-.14.02-.16.04-.34-.07-.5.1-.05.05-.26-.03-.39-.07-.07-.02-.13-.06-.19-.08-.02.02-.03.04-.05.06.05.01.11.02.16.03-.02.03-.04.06-.06.09-.18-.07-.36-.15-.55-.2-.08-.02-.17,0-.26,0-.25,0-.49,0-.74,0-.16,0-.32.02-.47,0-.08-.01-.15-.09-.22-.13,0-.02.02-.04.02-.06.04,0,.09-.02.13-.02.28.04.58.16.84.1.35-.09.7.03,1.04-.07.05-.01.1-.02.14,0,.37.15.71-.03,1.07-.1.43-.08.86-.09,1.29-.13.21-.02.42-.06.66-.1Z"/>
      <path class="cls-1" d="M64.31,69.29c-.32.02-.63.06-.95.06-.12,0-.24-.1-.37-.13-.15-.03-.3-.03-.45-.05-.21-.03-.42-.03-.62-.09-.4-.12-.8-.27-1.21-.42.03-.05.05-.08.05-.09-.16-.05-.33-.1-.49-.15-.18-.05-.32-.13-.28-.41,1.38.69,2.81,1.11,4.3,1.27Z"/>
      <path class="cls-1" d="M17.65,28.52c-.21.26-.47.17-.68.12-.25-.05-.49-.18-.73-.3-.34-.18-.67-.38-1.01-.55-.1-.05-.23-.05-.32-.1-.2-.13-.39-.28-.58-.42.02-.03.03-.06.05-.09.1.04.21.08.31.13.3.15.61.29.9.45.4.22.79.45,1.19.67.05.03.12.04.18.05.23.02.46.04.69.05Z"/>
      <path class="cls-1" d="M21.71,21.46c.18.34.36.67.53,1.01.14.3.24.61.38.91.06.12.18.2.25.32.12.2.21.41.32.63-.22-.18-.46-.27-.51-.62-.05-.3-.26-.58-.43-.85-.14-.22-.3-.42-.36-.69-.04-.17-.2-.31-.29-.47-.03-.06-.02-.14-.03-.22.04-.01.09-.02.13-.03Z"/>
      <path class="cls-1" d="M40.79,77.69c-.19.08-.2.16-.01.27-.2.1-.41.18-.33.35-.1.16-.17.27-.24.38-.02.03-.03.07-.05.1-.07.18-.02.39-.18.54.09,0,.18.02.23.02.07-.12.14-.24.22-.38-.08-.02-.14-.03-.2-.04.14-.06.3,0,.37-.23.05-.18.13-.33.08-.53.05-.04.12-.08.18-.13-.03-.13-.05-.23-.08-.35Z"/>
      <path class="cls-1" d="M59.7,68.13c-.63-.34-1.25-.68-1.88-1.02.05-.02.11-.07.18-.07.07,0,.2,0,.21.04.12.3.43.3.66.4.16.07.32.11.47.19.11.06.34.04.25.29,0,.02.09.07.14.11-.01.02-.02.05-.04.07Z"/>
      <path class="cls-1" d="M56.03,65.73c.37.24.69.46,1.02.68.13.09.29.15.41.25.09.07.14.19.19.29-.69-.2-1.2-.62-1.62-1.22Z"/>
      <path class="cls-1" d="M64.36,46.85c.09-.11.17-.19.25-.29.05.05.08.1.16.2.01-.27.03-.47.03-.62.1,0,.21,0,.23-.02.13-.22.23-.06.29-.03-.15.27-.29.54-.45.79-.15.22-.31.02-.51-.02Z"/>
      <path class="cls-1" d="M54.78,53.95c-.12-.29-.05-.6.16-.74-.09-.21,0-.42.24-.51-.07-.04-.12-.06-.22-.12.13-.09.24-.17.34-.24.03.02.06.04.09.06-.26.48-.39,1.02-.61,1.55Z"/>
      <path class="cls-1" d="M76.2,51.9c.01.06.03.12.04.18-.04,0-.08,0-.13.01-.05,0-.09,0-.19.02.19-.31.36-.58.51-.87.05-.1.03-.23.07-.34.02-.04.1-.06.16-.09,0,.06.03.12,0,.17-.1.21-.21.42-.32.65-.01,0,.03.01.13.04-.1.08-.19.15-.28.23Z"/>
      <path class="cls-1" d="M25.74,34.58h-1.31s0-.04,0-.07h1.31s0,.04,0,.07Z"/>
      <path class="cls-1" d="M20.93,20.37c.23-.03.29.03.24.26.19.11.31.36.26.55-.11-.1-.21-.2-.33-.32.05-.1-.02-.37-.17-.49h0Z"/>
      <path class="cls-1" d="M26.4,34.44h1.02c-.14.13-.26.27-.47.12-.08-.06-.23,0-.36,0-.07,0-.14-.02-.21-.04,0-.02,0-.05.01-.07Z"/>
      <path class="cls-1" d="M53.67,49.61c.04.08.08.16.14.26-.23-.02-.31-.19-.2-.36.1-.15.19-.3.09-.48.29.05.28.19-.03.58Z"/>
      <path class="cls-1" d="M66.45,42.76c.07.03.11.05.12.05-.09.08-.19.17-.26.24-.05-.31.07-.57.43-.84.02.01.03.03.05.04-.06.07-.13.13-.18.21-.06.09-.1.18-.16.3Z"/>
      <path class="cls-1" d="M65.75,44.46c.1-.22.2-.44.3-.66.02,0,.04.01.05.02-.03.2-.05.41-.1.61-.01.05-.14.06-.22.09-.01-.02-.03-.04-.04-.06Z"/>
      <path class="cls-1" d="M54.52,44.16c-.06.34-.11.68-.17,1.02-.03,0-.06,0-.09-.01l.13-1.02s.08.01.13.02Z"/>
      <path class="cls-1" d="M39.58,39.57c-.11-.16-.21-.31-.33-.49.14-.02.23-.03.36-.04.03.05.07.12.12.21-.08.01-.14.02-.21.03.05.09.09.16.13.24-.02.02-.05.03-.07.05Z"/>
      <path class="cls-1" d="M23.66,35.48c.23-.08.46-.16.69-.23.02,0,.07.03.09.06,0,0-.02.07-.04.07-.19.07-.39.14-.59.2-.04.01-.1-.03-.15-.04,0-.02,0-.04,0-.05Z"/>
      <path class="cls-1" d="M22.56,25.15c-.23-.21-.41-.37-.59-.53.22-.11.41.04.59.53Z"/>
      <path class="cls-1" d="M59.65,54.78c.14-.01.28-.04.42-.04.04,0,.09.05.13.08-.07.07-.15.2-.22.19-.13-.02-.25-.11-.37-.17.02-.02.03-.04.05-.06Z"/>
      <path class="cls-1" d="M54.13,45.67c-.06-.02-.12-.04-.2-.07.1-.11.19-.2.28-.3.15.21.12.35-.13.58.02-.09.03-.14.04-.21Z"/>
      <path class="cls-1" d="M22.82,35.76c.28-.03.54-.07.8-.1-.05.2-.56.29-.8.1Z"/>
      <path class="cls-1" d="M22.06,24.4c-.28.02-.4-.16-.52-.38.13.02.26.05.41.08-.24.2-.09.25.11.3Z"/>
      <path class="cls-1" d="M16.74,13.66c-.14-.04-.25-.04-.31-.09-.04-.04-.03-.15-.03-.22,0-.03.06-.08.09-.09.03,0,.07.04.09.08.04.08.07.16.15.32Z"/>
      <path class="cls-1" d="M59.07,55.36q.53-.34.74-.26c-.26.12-.49.22-.72.33l-.02-.07Z"/>
      <path class="cls-1" d="M23.72,34.55c-.37.13-.69.04-1.06-.12.38.04.7.08,1.06.12Z"/>
      <path class="cls-1" d="M6.92,18.62s-.09-.1-.1-.15c-.01-.06.02-.12.04-.18.05.03.1.06.15.09.05.04.09.08.13.12,0,0,0,0,0,0-.03.08-.06.16-.1.25-.03-.04-.07-.08-.11-.13,0,0,0,0,0,0Z"/>
      <path class="cls-1" d="M55.42,51.9c.32.16.05.27-.01.42-.19-.16-.1-.29.01-.42Z"/>
      <path class="cls-1" d="M23.62,25c.31-.03.37.21.47.37-.13-.11-.3-.25-.46-.38h0Z"/>
      <path class="cls-1" d="M65.44,45.68c0,.1-.01.19-.02.29-.06-.03-.13-.05-.19-.08.04-.08.07-.16.11-.25.03.01.06.02.1.04Z"/>
      <path class="cls-1" d="M65.38,45.36c.14-.05.24-.08.34-.11.02.03.03.05.05.08-.07.07-.14.14-.23.19,0,0-.08-.08-.16-.17Z"/>
      <path class="cls-1" d="M36.65,89.25c0,.26.04.47-.23.57.07-.17.14-.34.23-.57Z"/>
      <path class="cls-1" d="M23.63,25c-.09-.04-.18-.08-.27-.11,0-.02,0-.04.01-.06h.46c-.1.08-.16.13-.22.18,0,0,0,0,0,0Z"/>
      <path class="cls-1" d="M20.93,20.37c-.06-.15-.12-.31-.18-.47.26.04.31.19.18.47,0,0,0,0,0,0Z"/>
      <path class="cls-1" d="M59.06,65.19c-.15-.04-.29-.08-.44-.13,0-.03.01-.06.02-.09.15.04.3.08.44.12,0,.03-.02.06-.03.09Z"/>
      <path class="cls-1" d="M41.24,77.37c-.12.12-.21.2-.3.29-.02-.02-.04-.04-.06-.07.15-.03,0-.35.36-.22Z"/>
      <path class="cls-1" d="M53.42,50.29c.05-.09.09-.17.15-.29.07.09.1.14.15.21-.09.05-.17.09-.24.13-.02-.02-.04-.03-.06-.05Z"/>
      <path class="cls-1" d="M51.97,50.73c-.02.11-.05.23-.07.34-.02,0-.04,0-.06,0-.01-.09-.04-.18-.03-.26,0-.05.08-.08.12-.12l.04.03Z"/>
      <path class="cls-1" d="M34.15,45.67c-.02.11-.05.21-.07.32-.02,0-.04.01-.06.02-.02-.07-.05-.14-.04-.2,0-.06.06-.12.09-.18.02.01.05.03.07.04Z"/>
      <path class="cls-1" d="M40.48,42.21s-.13-.03-.13-.06c-.02-.1-.01-.2,0-.3,0,0,.05-.03.06-.02.03.02.07.05.07.08,0,.1,0,.21,0,.31,0,0,0,0,0,0Z"/>
      <path class="cls-1" d="M30.67,19.65c.17.18.37.22.28.5-.05.16.04.38.07.57.02.12.04.23.06.35.06.29.15.58.19.87.03.2,0,.41,0,.64.34.05.48.29.51.59.04.38-.03.71-.38.94-.15.1-.23.29-.35.44-.01.02-.04.03-.05.03-.02-.03-.04-.06-.09-.12-.07.22-.13.4-.19.58-.04.11-.03.25-.22.24-.19-.02-.4-.02-.46-.24-.09-.36-.16-.73-.21-1.1-.03-.18,0-.37.01-.56.02-.38.1-.46.46-.54.17-.04.33-.11.5-.17.03-.01.06-.06.06-.1-.02-.29-.05-.58-.08-.87-.02-.27-.03-.55-.06-.82-.03-.34-.07-.67-.1-1.01,0-.05,0-.09.02-.22Z"/>
      <path class="cls-1" d="M29.87,14.88c-.19,0-.34-.24-.26-.42.02-.04.06-.1.05-.1-.29-.2.09-.63-.32-.78.07-.08.11-.14.17-.22-.06-.09-.13-.19-.18-.28-.03-.05-.06-.12-.06-.18,0-.29.05-.58.02-.86-.01-.15-.18-.29-.2-.44-.02-.14.1-.29.11-.44.02-.26.01-.53,0-.79,0-.13-.05-.26-.08-.38.03-.15.07-.3.09-.46.04-.39.08-.78.1-1.17.01-.38,0-.76,0-1.14,0-.03.02-.06.04-.1.17.09.3.15.22.4-.06.2-.02.43-.02.65,0,.36,0,.72,0,1.09,0,.43-.04.86-.03,1.29.01.72.03,1.44.07,2.16.02.28.14.56.17.85.04.41.05.83.07,1.25,0,.02.03.05.04.07h0Z"/>
      <path class="cls-1" d="M29.86,14.88c.01.07.03.13.03.2.01.1.02.19.03.29.05.33.1.66.14.98-.03,0-.06.01-.09.02-.07-.35-.13-.71-.22-1.05-.04-.17-.11-.33.1-.44,0,0,0,0,0,0Z"/>
      <path class="cls-1" d="M30.6,17.95c-.29,0-.37-.13-.43-.31-.03-.08-.08-.15-.12-.22-.02-.03-.06-.1-.05-.1.25-.2,0-.41.02-.62.02,0,.05-.01.07-.02.05.23.1.45.15.68.05.21.03.46.36.58Z"/>
      <path class="cls-1" d="M30.8,19.04c-.33-.07-.48-.45-.42-.93.3.24.21.63.42.93Z"/>
      <path class="cls-1" d="M26.19,11.53c.05-.11.09-.2.12-.28.02,0,.04,0,.06,0,.03.09.06.19.11.33-.11-.02-.19-.04-.29-.06Z"/>
      <path class="cls-1" d="M43.65,30.07h-.18s-.02.06-.03.08c.12.06.24.13.36.2-.13.06-.25.13-.38.19-.17-.26-.16-.45.08-.69.06-.06.17-.06.26-.04.11-.09.22-.18.36-.29.03.12.05.19.09.33.12-.14.23-.23.28-.34.12-.28.33-.44.58-.58.03-.02.1.03.15.05-.02.04-.03.11-.05.12-.4.11-.53.52-.83.75-.17.13-.31.1-.48.12-.06,0-.11.05-.19.09Z"/>
      <path class="cls-1" d="M47.42,26.36c-.05-.08-.1-.15-.18-.27.15.01.22.02.32.03-.03-.08-.05-.13-.07-.2.08-.03.15-.06.19-.08.06-.17.07-.34.17-.45.09-.1.27-.13.44-.15-.13.2-.24.4-.38.59-.14.18-.31.34-.5.53Z"/>
      <path class="cls-1" d="M46.94,26.5c.08.06.16.12.25.19-.2.23-.39.45-.61.69.03-.34.15-.63.37-.88,0,0,0,0,0,0Z"/>
      <path class="cls-1" d="M45.75,28.11c.06.04.12.08.18.12-.1.11-.19.22-.31.35-.05-.01-.16-.03-.28-.06-.01-.23.14-.39.42-.4h0Z"/>
      <path class="cls-1" d="M44.93,28.75c.1-.03.21-.08.31-.07.11,0,.22.05.32.07-.11.15-.18.16-.63,0Z"/>
      <path class="cls-1" d="M44.22,29.48c.07-.15.14-.3.22-.46h.19c-.12.19-.22.36-.32.53-.03-.02-.06-.04-.09-.06Z"/>
      <path class="cls-1" d="M45.76,28.12c.04-.06.07-.12.09-.15-.04-.09-.07-.17-.11-.25.02,0,.03-.01.05-.02.07.06.14.12.25.22-.12.08-.2.14-.29.19,0,0,0,0,0,0Z"/>
      <path class="cls-1" d="M46.94,26.5s0,0,0,0c-.04-.05-.08-.1-.16-.19h.43s.02.03.04.04c-.1.05-.21.1-.31.15Z"/>
      <path class="cls-1" d="M45.7,16.24c-.24-.21.12-.36.05-.56.16.06.13.35-.05.56Z"/>
      <path class="cls-1" d="M45.84,35.41c.3.06.7.65.64.92.07.06.16.1.18.16.08.39.16.77.21,1.16.03.2-.14.41-.04.62.01.03-.06.13-.08.12-.07-.02-.13-.06-.19-.13.05,0,.1-.01.09-.01-.02-.21,0-.41-.06-.59-.1-.3.05-.66-.24-.91-.03-.03-.04-.09-.05-.13-.02-.19.07-.41-.18-.54-.04-.02,0-.17-.03-.24-.08-.16-.18-.3-.27-.44Z"/>
      <path class="cls-1" d="M46.57,39.67c.01-.23-.24-.38-.04-.6.05-.06.02-.2.02-.3,0-.07-.03-.14-.05-.21h.4c-.17.35.11.79-.32,1.11Z"/>
      <path class="cls-1" d="M45.28,71.45s-.29.28-.31.38c-.08,0-.12.13-.06.22-.05.16-.29.38-.21.47-.09.07-.19.21-.24.19-.28-.09-.41.28-.4.28-.05.09-.11.19-.16.28.01,0,.02,0,.03.01-.1.11-.2.22-.29.32.05.09.07.15.12.24-.1-.03-.17-.04-.25-.06,0,.08.02.16-.01.19-.12.14-.26.26-.39.4-.16.17-.14.35.07.45-.08.06-.15.1-.24.17-.02-.09-.03-.15-.05-.24-.06.09-.11.15-.13.18.06.08.11.14.19.24-.34-.05-.41.03-.34.23-.13.14-.3.23-.34.37-.07.31-.28.41-.54.48.05.23.05.23-.17.39-.03.02-.05.09-.06.14-.05.31-.19.45-.47.48.1.16.15.31-.13.3-.04,0-.1.05-.13.1-.13.19-.42.68-.43.73.07.07.03.15-.09.22,0,0,0,0,0,0-.04.09-.08.17-.12.25.06,0,.14,0,.17-.03.14-.15.94-.99,1.13-1.29.18-.29.5-.45.63-.8.06-.17.18-.3.17-.52.07.08.14.15.25.27,0-.15.01-.25.01-.28.1-.11.17-.17.23-.25.08-.11.16-.23.24-.35.29-.4.58-.79.86-1.19.23-.31.45-.63.7-.93.3-.35.52-.76.75-1.16.23-.39.44-.78.64-1.19.21-.42.4-.86.6-1.29.09-.21.83-1.66.93-1.86-.07-.03-.32-.38-.39-.4-.19.4-1.41,3.57-1.76,3.86ZM44.21,73.32c-.07-.15-.11-.23-.15-.32.1-.06.21-.11.35-.19-.07.18-.12.31-.2.51Z"/>
    </g>
  </g>
</svg>