<?xml version="1.0" encoding="UTF-8"?>
<svg id="Layer_2" data-name="Layer 2" xmlns="http://www.w3.org/2000/svg" viewBox="0 0 70.3 113.62">
  <defs>
    <style>
      .cls-1 {
        fill: #000;
        stroke-width: 0px;
      }
    </style>
  </defs>
  <g id="illustrations">
    <g>
      <path class="cls-1" d="M70.22,10.82c-.06-.26-.23-.49-.37-.72-.07-.11-.19-.17-.29-.26-.01-.02-.03-.05-.04-.07-.4.36-.8.72-1.22,1.09.07-.22.15-.44.22-.67,0-.03-.06-.11-.04-.15.11-.18.18-.35.15-.57-.01-.12.07-.24.1-.37.09-.36.2-.57.4-.87.06-.09.07-.22.1-.33.04-.17.06-.34.1-.51.11-.44.28-.88.34-1.32.08-.59.11-1.2.13-1.8.02-.66,0-1.33-.02-1.99,0-.07-.04-.16-.09-.21-.25-.26-.16-.68.16-.84.08-.04.13-.12.21-.19-.44-.27-.84-.25-1.16.1-.26.3-.51.61-.73.94-.15.22-.25.47-.39.69-.25.41-.52.8-.77,1.21-.23.39-.41.81-.66,1.19-.5.74-1.01,1.47-1.55,2.18-.35.45-.57.99-1.07,1.34-.37.26-.62.68-.98.95-.65.5-1.18,1.15-1.92,1.53-.4.2-.8.4-1.2.6-.78.38-1.57.75-2.35,1.14-.12.06-.21.16-.32.24.01.02.02.04.03.06h.17s-.06.08-.09.07c-.46-.04-.86.16-1.24.36-.21.11-.39.26-.59.38-.34.21-.73.37-1.03.64-.51.44-1.05.8-1.64,1.12-.09.05-.17.13-.28.22.08.02.12.03.2.05-.82.26-1.37.81-1.87,1.46.08-.01.12-.02.17-.03.02.03.03.05.05.08-.53.02-.7.56-1.21.69.13.05.17.06.23.08-.11.12-.2.22-.28.32-.01-.01-.02-.02-.03-.03.03-.05.06-.11.09-.16-.08,0-.12.02-.16.06-.28.28-.55.57-.84.85-.13.13-.28.25-.42.38-.21.19-.41.4-.63.57-.37.3-.75.59-1.15.86-.19.13-.35.35-.65.29-.08-.02-.2.14-.29.23-.03.02-.03.08-.05.09-.32.18-.65.35-.97.52-.6.31-1.23.55-1.88.74-.57.17-1.12.31-1.71.27-.25-.01-.51,0-.76.03-.26.03-.52.1-.79.15-.14.03-.22,0-.27-.17-.08-.28-.2-.55-.31-.82-.1-.24-.09-.48.03-.7.19-.35.4-.68.6-1.02.06-.09.12-.18.19-.26.28-.4.57-.8.85-1.2.33-.47.67-.93,1.01-1.39.14-.19.27-.37.41-.56.03-.05,0-.15.04-.22.1-.2.23-.38.34-.58.09-.17.19-.33.3-.5,0-.07,0-.14,0-.21.11-.56.45-1.08.48-1.65.03-.56,0-1.17.44-1.6.16-.16.36-.26.54-.39.19-.15.34-.35.45-.56.23-.43.32-.93.45-1.4,0-.03.01-.06.02-.08.08-.31.21-.61.23-.92.03-.67.04-1.34,0-2.01-.05-.72-.29-1.41-.71-2-.34-.49-.77-.92-1.17-1.37-.5-.57-.99-1.14-1.52-1.68-.22-.22-.5-.43-.79-.52-.53-.16-1.09-.23-1.64-.31-.23-.03-.47-.02-.7,0-.39.03-.54-.11-.64-.47-.08-.29-.24-.57-.39-.84-.03-.06-.21-.1-.26-.06-.19.14-.35.31-.52.47.28-.09.32-.05.36.37-.07-.03-.13-.04-.17-.07-.69-.47-1.47-.57-2.25-.46-.55.07-1.1.25-1.61.47-.84.36-1.65.8-2.48,1.18-1.26.59-2.29,1.45-3.07,2.6-.51.74-.98,1.5-1.01,2.45-.02.41-.19.81-.2,1.22-.02,1.1.07,2.19.45,3.23.23.63.46,1.27.99,1.74.08.07.14.19.19.29.18.42.35.86.54,1.27.19.41.4.81.61,1.21.07.12.19.22.27.33.16.21.31.43.47.64.18.21.4.4.57.62.44.6,1.07.94,1.71,1.26.4.2.84.36,1.22.59.28.17.57.25.86.24.29-.01.57.09.89,0,.5-.13,1.05-.06,1.56-.19.53-.13,1.03-.37,1.53-.59.69-.3,1.38-.6,1.91-1.16.15-.17.38-.29.46-.59-.23.11-.41.19-.58.28-.23.12-.51.21-.66.4-.34.43-.85.55-1.29.77-.38.19-.82.31-1.24.4-1.1.22-2.2.22-3.23-.3-.66-.34-1.31-.69-1.93-1.1-.32-.21-.57-.54-.82-.84-.16-.2-.26-.44-.39-.66-.18-.29-.4-.55-.55-.86-.26-.51-.5-1.04-.71-1.58-.07-.18-.09-.41-.05-.6.07-.37.19-.73.3-1.1.09-.32.15-.66.3-.96.23-.47.65-.72,1.15-.89.64-.22,1.25-.51,1.88-.76.45-.18.9-.36,1.35-.55.05-.02.09-.08.14-.13.05.02.12.05.26.1-.06-.14-.1-.21-.11-.25.27-.14.52-.26.76-.41.13-.08.24-.21.37-.3.63-.44,1.27-.86,1.9-1.3.71-.5,1.37-1.06,1.84-1.81.16-.25.15-.63-.07-.87-.03-.03-.09-.05-.14-.04-.1.02-.2.04-.28.09-.13.09-.35.29-.34.3.21.29-.02.45-.17.62-.45.49-.95.91-1.57,1.18-.46.2-.89.49-1.33.73-.68.38-1.36.76-2.05,1.12-.41.21-.84.4-1.27.56-.17.06-.38.04-.57.03-.32-.01-.65-.05-.98-.07.02-.02.03-.06.05-.08.52-.48,1.01-.98,1.56-1.43.28-.23.57-.5.68-.8.11-.29.32-.4.48-.6.03-.04.06-.08.13-.16-.11.02-.18.02-.22.05-.31.19-.63.37-.93.59-.36.26-.69.57-1.05.84-.33.25-.71.43-1.01.71-.39.36-.71.78-1.07,1.17-.09.09-.22.15-.28.25-.09.13-.21.3-.18.43.06.27.04.5-.07.74-.09.22-.15.45-.19.68-.07.46-.12.93-.19,1.4,0,.03-.1.06-.15.08.01.06.03.12.06.22-.08-.04-.15-.04-.17-.08-.14-.25-.28-.5-.42-.75-.06-.11-.12-.22-.15-.34-.07-.38-.12-.75-.18-1.13-.12-.84-.19-1.68-.03-2.52.09-.49.14-1,.29-1.47.31-.97,1.03-1.66,1.72-2.35.31-.32.67-.58,1.11-.75.36-.14.67-.43,1.1-.33.02,0,.05,0,.08-.01.33-.16.67-.31.99-.48.89-.46,1.72-1.06,2.78-1.05.25,0,.52-.11.72.16.18.25.66.27.93.12.17-.1.37-.25.56.03.07.1.21.2.33.22.37.06.75.1,1.13.13.45.04.9.01,1.34.1.82.17,1.36.73,1.84,1.37.26.36.52.72.84,1.04.81.8,1.31,1.75,1.46,2.88.05.36.14.75-.12,1.11-.11-.08-.21-.15-.3-.24-.58-.54-.86-1.28-1.26-1.93-.2-.32-.32-.7-.57-.97-.34-.36-.76-.64-1.16-.96-.21-.17-.41-.33-.42-.65,0-.16-.09-.32-.16-.47-.02-.04-.18-.06-.21-.03-.31.31-.43.81-.13,1.15.25.28.55.51.84.74.66.49,1.1,1.15,1.46,1.87.41.8.78,1.62,1.35,2.33.16.2.34.46.32.69-.04.46-.19.91-.31,1.36-.01.04-.04.08-.07.11-.11.12-.21.2-.36.04-.04-.05-.16-.06-.22-.04-.35.12-.41.23-.4.61.02.53.03,1.05-.12,1.58-.18.63-.2,1.3-.54,1.88-.1.17-.22.33-.31.5-.52.95-1,1.91-1.55,2.84-.36.6-.81,1.14-1.23,1.7-.41.55-.8,1.11-1.11,1.73.18.16.22.43.11.64-.16.3-.45.54-.75.69-.36.18-.78.28-1.19.28-.17.09-.36.13-.56.02-.09-.04-.17-.1-.24-.15-.17-.07-.32-.16-.45-.28.01.03.03.05.04.08-.25.07-.49-.05-.62-.3.15-.05.27-.05.37-.02,0,0,0-.01-.01-.02-.21-.32-.22-.69-.16-1.05.02-.15.13-.25.25-.31.01-.18.03-.37.04-.56q-.31-.23-.52.16s-.02.03-.03.04c-.17.21-.15.43-.06.65-.13.18-.24.37-.38.53-.12.14-.27.3-.43.36-.27.09-.36.27-.33.51.03.23-.02.41-.15.6-.22.33-.42.66-.64.99-.16-.08-.41-.14-.54-.29-.41-.45-.8-.92-1.15-1.43-.36-.52-.62-1.1-.99-1.61-.36-.49-.76-.96-1.21-1.36-.51-.44-.66-1.16-1.31-1.49-.31-.16-.61-.47-.72-.86-.01-.04-.07-.08-.12-.11-.57-.32-1.13-.65-1.71-.96-.32-.17-.66-.31-1.01-.42-.38-.12-.77-.18-1.15-.28-.7-.19-1.39-.41-2.09-.59-.98-.25-1.94-.58-2.95-.73-.91-.14-1.81-.38-2.71-.61-1.03-.26-2.05-.55-3.07-.84-.11-.03-.23-.11-.28-.2-.12-.21-.31-.28-.52-.34-.13-.04-.26-.08-.37-.15-.82-.47-1.53-1.13-2.44-1.46-.39-.14-.72-.47-1.07-.72-.53-.39-1.08-.77-1.59-1.19-.42-.35-.79-.76-1.19-1.14-.15-.15-.34-.27-.46-.45-.14-.2-.29-.18-.43-.08-.14.1-.36.29-.33.38.25.8.51,1.6.83,2.38.19.47.49.9.76,1.36-.07.03-.16.06-.25.1-.59.28-.79.52-.48,1.18.31.66.58,1.34,1.02,1.93.29.39.56.78.86,1.16.11.13.28.21.42.32.32.25.63.5.95.74.06.05.15.04.23.06-.05.3-.1.6-.15.92.1.07.22.13.33.21.42.31.83.65,1.26.94.8.53,1.6,1.08,2.53,1.37.36.11.7.27,1.06.37.55.15,1.11.32,1.67.38.66.08,1.34.06,2.01.06.23,0,.45-.07.68-.1-.04-.31-.04-.32-.27-.34-.09,0-.18-.01-.27,0-.37.03-.75.16-1.07-.15-.04-.04-.12-.04-.18-.05-.39-.04-.77-.02-1.15-.21-.29-.15-.63-.18-.93-.29-.22-.08-.43-.19-.63-.3-.12-.07-.2-.2-.33-.26-.28-.12-.57-.21-.85-.33-.21-.09-.4-.23-.6-.35-.18-.11-.36-.23-.54-.35-.34-.22-.68-.45-1.08-.72.33-.08.54.07.79.02.3-.05.62.06.93.11.15.02.31.07.46.05.19-.03.37-.13.55-.17.27-.07.55-.13.83-.17.53-.08,1.08-.07,1.53-.51-.16-.06-.29-.14-.43-.16-.42-.05-.85-.08-1.27-.12-.49-.06-.98-.12-1.47-.19-.34-.05-.67-.1-1.01-.16-.29-.05-.59-.17-.87-.13-.26.04-.49.03-.71-.05-.62-.23-1.12-.63-1.59-1.1-.06-.06-.13-.15-.13-.23-.01-.24-.17-.34-.34-.45-.15-.1-.32-.19-.44-.33-.16-.19-.28-.42-.41-.64-.2-.32-.4-.63-.64-1.02.19,0,.33-.06.43-.01.46.21.9.44,1.35.66.24.12.47.24.71.37.16.09.35.15.45.28.13.19.29.27.5.27.2,0,.41,0,.62,0,0-.05-.01-.1-.01-.11.12-.04.23-.08.34-.1.07-.01.15,0,.22.02.05,0,.12.06.13.05.04-.04.07-.1.08-.15.02-.08.03-.17.05-.28.14.08.24.12.3.19.27.32.66.45,1.03.58.41.14.85.17,1.25.34.51.21,1.07.3,1.55.6,0,0,.02,0,.03,0,.98.2,1.95.41,2.93.6.31.06.63.04.94.06.39.03.78.07,1.17.09.1,0,.19-.03.29-.03.3.02.6.06.9.06.25,0,.5-.13.73-.09.49.08.96.23,1.44.37.26.07.51.16.77.25.14.04.29.06.41.13.3.17.56.39.87.52.31.13.47.4.77.56.51.27.97.65,1.4,1.04.53.47,1.02.99,1.49,1.51.38.42.87.75,1.11,1.31.14.33.39.62.61.91.56.74,1.14,1.48,1.69,2.22.09.11.16.34.1.43-.07.12-.27.18-.42.23-.12.03-.25,0-.42,0-.08-.1-.3-.05-.44.13-.11.14-.28.22-.41.34-.14.13-.42.14-.4.37-.12-.02-.23-.05-.35-.05-.27,0-.42.2-.58.38-.13.15-.31.32-.48.34-.43.05-.6.43-.92.61-.25.13-.36.41-.66.51-.24.08-.44.35-.62.57-.22.25-.4.54-.61.81-.12.16-.26.31-.38.47-.09.11-.17.23-.23.35-.03.05-.01.12-.01.15-.13.17-.25.34-.39.49-.32.35-.65.7-.98,1.04-.06.06-.17.14-.16.2.03.22-.17.27-.26.4-.1.16-.21.32-.33.46-.13.16-.27.31-.43.44-.16.13-.38.21-.5.37-.3.43-.56.9-.84,1.38-.2-.05-.31.02-.28.28.01.09-.09.2-.14.3-.03.06-.1.1-.13.16-.2.38-.35.8-.59,1.16-.03.04-.06.09-.07.14-.07.26-.11.54-.22.79-.25.61-.15,1.2.09,1.78.12.29.26.58.35.89.19.65.33,1.32.52,1.97.1.33.22.66.4.96.21.35.47.68.75.99.29.32.64.58.94.88.63.62,1.48.55,2.24.75.09.02.17.06.26.08.14.03.28.06.43.07.06,0,.14-.04.18,0,.33.21.71.18,1.05.12.35-.06.72.14,1.05-.12.03-.02.09,0,.13.01.64.27,1.24-.02,1.85-.1.02.04.03.08.04.1.12-.05.21-.09.31-.12.07-.02.16.02.22-.01.19-.11.25-.09.29.14-.07.04-.15.06-.2.11-.53.55-1.06,1.09-1.59,1.65-.63.66-1.27,1.32-1.88,2.01-1.14,1.29-2.16,2.67-3.1,4.12-.21.32-.42.65-.63.97-.23.35-.45.7-.68,1.06-.13.2-.25.4-.39.63-.01,0,.04.03.07.05-.27.35-.55.67-.8,1.02-.37.52-.73,1.06-1.08,1.6-.18.27-.33.56-.48.84-.06.11-.06.24-.12.35-.34.6-.7,1.19-1.03,1.8-.07.13-.06.32-.09.51,0,0-.07.04-.1.1-.23.49-.45.98-.7,1.46-.25.5-.4,1.05-.81,1.45-.02.02-.04.06-.06.09-.31.74-.6,1.5-.95,2.23-.25.53-.58,1.02-.88,1.53-.03.05-.09.09-.13.14-.13.19-.3.37-.36.58-.2.69-.62,1.27-1.01,1.85-.43.63-.88,1.25-1.18,1.95-.07.15-.2.28-.3.42-.09.11-.27.24-.25.33.06.27-.12.33-.33.43.1.03.14.04.24.07-.22.27-.42.52-.61.77-.14.18-.28.36-.4.56-.18.32-.33.65-.52.96-.33.55-.67,1.09-1.01,1.63-.19.3-.37.59-.58.87-.28.36-.62.67-.86,1.06-.4.65-.76,1.32-1.09,2.01-.44.92-.82,1.88-1.24,2.81-.28.63-.6,1.25-.9,1.87-.09.19-.19.39-.25.52-.04.14-.05.21-.08.28-.07.21-.14.42-.22.63-.11.3-.16.65-.35.9-.39.52-.83,1.01-1.28,1.49-.54.57-1.03,1.17-1.41,1.87-.22.41-.19.75.16,1.05-.25.23-.27.4-.03.63.28.27.59.49,1.03.42.33-.05.42.05.33.29.11.06.21.12.33.17.16.06.34.1.49.17.38.16.75.34,1.13.51.1.04.21.06.31.11.27.13.53.28.81.38.17.06.38.06.61.08.14-.27.33-.04.49.07.4.28.85.33,1.3.24.23-.05.38,0,.55.11.05.03.1.06.2.12-.03-.11-.04-.17-.07-.28.18.04.31.06.45.09.28.08.56.17.85.25.09.02.2-.01.29.01.5.13.9.41,1.27.76.81.77,1.62,1.53,2.44,2.28.16.15.37.24.55.37.09.06.17.13.25.21.12.11.21.26.34.34.43.27.88.51,1.32.78.13.08.22.23.35.3.33.18.68.33,1.03.5.28.13.57.38.85.37.39-.01.68.18,1.02.24.38.06.77.12,1.15.12.28,0,.6.19.85-.11,0,0,.04,0,.05,0,.16.17.32.02.47-.01.22-.05.44-.15.67,0,.02.01.07-.02.13-.03-.05-.04-.08-.06-.12-.09.31.03.61.05.9.09.51.07.89.42,1.3.68.34.22.65.49,1.03.67.12.05.23.13.33.22.27.22.6.27.93.33.1.02.2.05.31.07.37.07.74.14,1.11.2.04,0,.1,0,.13-.01.32-.23.63.13.97,0,.12-.05.31.1.48.11.54.05.8.39.95.87.03.1.12.18.19.28l.06-.04c-.01-.1-.03-.2-.04-.29.02,0,.04-.02.05-.02.07.11.15.23.24.37-.03.07-.07.17-.11.26-.08-.1-.16-.19-.24-.28-.03.01-.06.03-.08.04.24.28-.24.65.1.87-.03.25-.06.48-.09.71,0,.03.02.07.05.09.35.24.33.65.35.98.03.6.15,1.13.6,1.53.18.16.25.44.59.49.25.03.49.26.71.44.25.21.5.2.79.14.06-.01.15,0,.21.03.24.13.5.1.65-.13.11-.16.17-.36.24-.54.09-.24.24-.51.21-.74-.05-.42.02-.82.05-1.23.01-.16.03-.33-.19-.24,0-.1-.02-.19-.03-.29-.09.03-.16.05-.21.07.02-.16.03-.31.06-.45.07-.3-.03-.62.1-.93.06-.16-.04-.39-.1-.59-.01-.04-.13-.06-.2-.08-.13-.04-.32-.02-.39-.11-.25-.3-.66-.57-.29-1.08.16-.22.26-.31.47-.11.22.2.45.32.75.26.04,0,.09,0,.13.02.26.07.51.16.77.23.3.07.6.11.93.06.34-.05.69.09,1.04.1.51.02.53,0,.59.49.04.4.21.84-.23,1.18-.18.14-.12.25.12.32.17.05.27.15.3.34.02.13.1.26.15.38.06-.01.07,0,.06,0-.23.27-.22.61-.17.91.04.3.11.63.55.67.41.04.8.19,1.21.29.05-.18.07-.28.1-.39q.26-.02.26-.18c.15-.08.28-.13.38-.22.3-.28.59-.58.88-.88.03-.04.04-.13.02-.19-.1-.28-.04-.51.19-.65-.15-.05-.32-.1-.1-.29.03-.03.01-.1.04-.15.15-.32.01-.76.4-.99-.02-.02-.03-.04-.05-.06-.06.03-.12.06-.22.1.02-.14.04-.26.05-.39-.03-.11-.09-.25-.05-.35.04-.1.18-.22.28-.23.67-.08,1.22-.5,1.87-.62.21-.04.4-.15.6-.22.58-.23,1.14-.53,1.74-.66.59-.13,1.22-.09,1.84-.12.21-.01.43,0,.64-.02.28-.02.56-.07.83-.07.28,0,.55.08.83.11.24.03.5.07.73.03.34-.05.65-.14.95-.36.27-.2.58-.39.88-.56.14-.08.27-.18.41-.28.17-.12.33-.34.49-.34.51,0,1.02.07,1.53.14.33.04.64.17.99.06.29-.09.6-.14.9-.13.38,0,.71-.11,1.02-.28.24-.13.48-.28.72-.42.24-.14.53-.25.71-.45.42-.46.78-.96,1.16-1.45.06-.08.07-.2.14-.26.22-.2.46-.39.68-.57.08.03.19.12.3.13.15.02.32-.06.47-.03.39.1.74.09,1.03-.22.02-.02.07,0,.1-.02.29-.1.58-.19.86-.32.06-.03.09-.15.12-.23.03-.09.04-.2.08-.28.04-.09.15-.16.15-.24,0-.23.32-.37.18-.64,0,0,.04-.03.05-.05.07-.17.14-.33.19-.5.04-.16.05-.33.07-.49.03-.21.07-.43.07-.64,0-.22-.05-.45-.09-.66-.11-.55-.17-1.12-.35-1.65-.22-.67-.51-1.32-.83-1.96-.34-.68-.75-1.33-1.12-1.99-.14-.24-.3-.48-.36-.75-.06-.25-.12-.44-.39-.48,0-.11.03-.2,0-.27-.15-.29-.32-.56-.47-.84-.36-.72-.72-1.45-1.08-2.18-.27-.55-.53-1.09-.81-1.66,0,0,.04-.05.05-.06-.1-.12-.19-.19-.25-.29-.17-.31-.32-.62-.48-.93-.33-.63-.67-1.27-1.01-1.9-.24-.44-.5-.86-.73-1.31-.33-.62-.63-1.26-.96-1.89-.21-.4-.47-.78-.68-1.19-.4-.82-.78-1.65-1.17-2.48-.08-.18-.16-.36-.25-.54-.17-.31-.34-.61-.51-.92l-.06.03c.01.07.03.13.04.2l-.08.02c-.02-.08-.05-.16-.05-.24,0-.13.02-.27-.01-.39-.12-.41-.24-.82-.38-1.22-.19-.53-.38-1.07-.58-1.59-.09-.23-.24-.44-.33-.67-.13-.32-.22-.66-.33-.99-.11-.31-.24-.61-.34-.93-.17-.57-.3-1.15-.7-1.62-.05-.06-.07-.16-.1-.24-.05-.14-.09-.29-.14-.43-.16-.38-.32-.75-.5-1.12-.04-.09-.16-.14-.25-.2-.02-.02-.04-.03-.06-.05.03-.06.06-.11.07-.12-.08-.11-.17-.18-.2-.28-.05-.18-.06-.37-.08-.55-.02-.15-.03-.31-.04-.46-.07-.21-.2-.41-.33-.6-.09-.14-.23-.27-.28-.42-.18-.54-.33-1.08-.51-1.62-.11-.35-.26-.68-.38-1.03-.11-.32-.18-.66-.29-.98-.09-.28-.22-.55-.33-.83.09-.03.16-.04.22-.06,0-.03,0-.06,0-.08-.08,0-.17-.02-.27-.03-.09-.27-.17-.56-.27-.85-.07-.21-.18-.42-.25-.63-.12-.41-.19-.84-.32-1.25-.2-.63-.44-1.24-.67-1.86-.32-.87-.62-1.75-.96-2.61-.17-.42-.18-.89-.47-1.27-.09-.12-.14-.29-.18-.44-.15-.5-.28-1-.42-1.5-.02-.07-.07-.14-.07-.21,0-.27.01-.55.03-.82.01-.14.01-.35.1-.39.34-.2.7-.36,1.07-.5.94-.35,1.88-.71,2.84-.99.52-.16.93-.44,1.28-.82.45-.49,1.02-.78,1.59-1.08.25-.13.53-.23.77-.38.25-.16.52-.33.57-.68.04-.29.12-.58.16-.88.03-.2.08-.41.05-.61-.07-.57-.13-1.14-.27-1.69-.14-.54-.37-1.06-.55-1.59-.06-.18-.11-.37-.19-.62.65.24,1.24.31,1.82.41.09.01.17.14.26.14.44.02.89.02,1.33.02.19,0,.4-.04.58,0,.36.07.7.01,1.04-.08.29-.08.59-.17.88-.22.41-.08.79-.23,1.03-.57.17-.23.36-.39.63-.45.14-.03.18-.12.23-.25.16-.4.19-.88.63-1.15-.36.25-.53,0-.76-.19-.17-.15-.46-.19-.7-.21-.28-.02-.57.03-.86.04-.21.01-.43,0-.63.04-.29.04-.59.18-.87.16-.41-.03-.81-.15-1.2-.24-.44-.11-.88-.23-1.32-.35-.13-.03-.28-.11-.39-.06-.36.15-.68.07-1.03-.07-.16-.06-.32-.07-.45-.21-.06-.07-.18-.09-.27-.13-.04.12-.08.21-.12.32.25.16.49.36.77.48.57.24,1.15.45,1.73.63.48.15.98.33,1.48.37.55.05,1.11-.03,1.66-.07.33-.03.67-.1,1-.14.23-.03.3.11.29.31-.01.31-.38.8-.69.89-.73.21-1.46.44-2.2.6-.32.07-.67.02-1.01,0-.27-.01-.55-.1-.63.22-.15-.1-.3-.3-.42-.28-.43.07-.73-.22-1.09-.33-.21-.06-.42-.18-.6-.31-.12-.09-.2-.15-.35-.07-.07.04-.24,0-.29-.06-.11-.16-.17-.35-.26-.53-.22-.41-.47-.81-.67-1.22-.28-.55-.52-1.12-.78-1.68-.16-.33-.4-.64-.48-.99-.1-.45-.46-.75-.54-1.2-.05-.27-.28-.51-.42-.77-.11-.19-.22-.37-.32-.56-.17-.32-.17-.75-.57-.94-.01,0-.02-.03-.03-.04-.13-.25-.24-.51-.39-.75-.06-.1-.21-.25-.27-.23-.29.09-.35-.15-.48-.29-.27-.28-.43-.67-.88-.76-.26.19-.28.33-.11.59.2.31.42.48.75.64.08.04.13.17.15.26.03.13-.02.3.04.39.22.3.49.57.75.87-.05.06-.13.16-.25.29h.35c.13.21.3.4.36.62.09.34.19.7.34,1.01.16.33.26.72.56.98.02.01.02.05.02.07.04.32.08.63.29.89.04.04.02.12.05.18.04.1.08.2.13.29.06.15.12.3.19.45.03.08.07.16.12.23.05.07.14.11.19.19.19.31.36.64.56.94.15.22.3.46.51.59.15.09.21.16.24.32.04.22-.03.52.28.53.08.19.13.34.2.49.06.14.16.27.21.41.16.46.32.93.47,1.39.14.43.33.86.39,1.3.07.5.04,1.02,0,1.53-.02.35-.13.67-.5.86-.49.25-.94.57-1.42.84-.8.45-1.61.88-2.43,1.3-.5.26-1.03.46-1.54.71-.46.22-.88.54-1.36.7-.4.14-.85.13-1.28.17-.31.03-.62.02-.93.04-.07,0-.15.06-.22.09-.05.02-.11.07-.16.07-.29,0-.58,0-.84,0,.32-.64-.25-.95-.65-1.35.14-.06.23-.1.33-.14.47-.21.95-.39,1.4-.62.4-.21.77-.48,1.15-.72.19-.12.39-.23.57-.36.45-.31.79-.78,1.34-.97.05-.02.09-.08.14-.12.5-.45,1.01-.89,1.51-1.34.3-.27.61-.54.89-.83.35-.37.68-.75.99-1.14.23-.29.43-.62.65-.93-.02-.01-.03-.02-.05-.04-.06.04-.12.08-.24.15.07-.13.1-.19.14-.25l-.06-.04c-.24.25-.48.5-.71.75-.12.12-.22.26-.35.37-.68.59-1.37,1.18-2.06,1.77-.27.23-.53.46-.81.67-.11.09-.25.15-.37.22-.58.33-1.16.66-1.75.99-.23.13-.48.23-.71.36-.12.07-.21.18-.31.27.12-.27.28-.5.41-.74.24-.44.47-.89.68-1.35.27-.56.55-1.11.7-1.72.12-.5.29-.98.41-1.47.13-.55.27-1.1.34-1.66.05-.35-.03-.72-.03-1.09,0-.43-.02-.85-.25-1.23,0,0,0-.02-.01-.02-.14-.39-.26-.79-.44-1.16-.25-.51-.54-1.02-1.02-1.36-.51-.37-.99-.79-1.67-.79-.51,0-1.02,0-1.53-.02-.16,0-.31-.08-.5-.13.42-.69.31-1.37.23-2.04-.05-.49-.19-.96-.29-1.45-.03-.16-.03-.32-.05-.49.09,0,.15,0,.21-.01.61-.04,1.22-.06,1.82-.13.89-.1,1.7-.47,2.52-.82.83-.36,1.63-.76,2.32-1.34.87-.73,1.7-1.51,2.55-2.27.3-.26.62-.5.89-.78.36-.37.76-.68,1.16-.99.48-.37.95-.76,1.43-1.14.27-.22.53-.49.84-.62.42-.18.75-.46,1.08-.74.29-.25.57-.53.87-.76.21-.16.51-.22.69-.39.39-.38.88-.55,1.36-.75.52-.22,1.08-.33,1.58-.57.57-.27,1.11-.61,1.63-.97.37-.25.82-.36,1.1-.75.04-.05.12-.07.19-.1.22-.11.45-.21.65-.34.2-.13.37-.31.57-.44.49-.33.92-.72,1.18-1.27.04-.09.18-.14.28-.21.11-.08.24-.14.32-.23.12-.13.19-.3.3-.43.15-.18.31-.34.47-.5.18-.2.36-.39.56-.61,0,0-.02-.06-.05-.13.08,0,.17,0,.17-.02.05-.2.33-.25.33-.51,0-.16.09-.36.21-.47.3-.26.41-.63.59-.95.18-.31.36-.62.54-.94.1-.18.24-.35.29-.55.09-.32.32-.57.43-.89.09-.25.37-.43.61-.68.03.13.04.18.05.23.1.95.17,1.9.08,2.85-.08.79-.23,1.57-.52,2.31-.22.56-.46,1.11-.69,1.66-.17.39-.3.81-.52,1.18-.36.63-.78,1.23-1.17,1.85-.1.16-.19.34-.27.51-.07.14-.12.29-.19.43-.08.16-.22.31-.23.48-.02.25-.14.4-.31.54-.35.29-.71.56-1.06.85-.14.12-.23.3-.38.4-.14.09-.27.16-.39.31-.21.3-.5.55-.76.82-.09.09-.2.15-.28.24-.34.38-.66.78-1.01,1.15-.39.41-.77.81-.86,1.46.2.05.4.1.55.14.31-.25.56-.47.84-.67.17-.12.36-.21.54-.29.26-.12.53-.21.79-.33.18-.08.34-.19.52-.28.31-.15.67-.15.95-.38.17-.14.38-.24.58-.36l.09.08c-.1.27-.17.56-.3.82-.16.31-.39.58-.57.89-.41.71-.85,1.4-1.43,1.98-.06.06-.12.11-.18.16-.19.15-.43.27-.54.47-.13.23-.29.34-.53.39-.02,0-.03.04-.05.06.05.03.1.05.18.09-.37.3-.74.56-1.05.87-.45.45-.87.93-1.3,1.41-.07.08-.15.27-.11.33.1.15.22.31.48.27.23-.03.5-.02.7.08.54.28,1.11.24,1.68.26.16,0,.33-.01.49-.04.17-.02.34-.05.5-.1.24-.08.48-.21.72-.28.27-.08.56-.11.84-.16.21-.04.43-.07.69-.12-.04.12-.06.16-.07.21-.06.22-.12.43-.43.3-.06-.02-.17.03-.24.07-.29.15-.57.32-.87.47-.09.04-.2.02-.31.04-.06,0-.13,0-.18.03-.24.16-.48.28-.78.34-.66.14-1.25.49-1.94.54-.21.01-.42.16-.62.24l.04.11c.21-.06.42-.11.67-.18-.15.11-.28.19-.4.27.28,0,.54-.04.79-.1.3-.06.59-.19.88-.19.5,0,.92-.23,1.33-.42.5-.23.96-.55,1.53-.65-.25.46-.52.89-.8,1.31-.18.26-.5.24-.75.35-.89.38-1.82.66-2.77.85-.74.14-1.5.24-2.25.35-.12.02-.23.06-.35.09,0,.04,0,.08.01.12.14.01.29.05.43.04.86-.05,1.72-.12,2.58-.16.36-.02.69-.03,1.02-.22.27-.16.6-.23.91-.33,0,.03.02.06.03.09-.4.23-.74.61-1.27.51-.04,0-.08.03-.12.04-.1.05-.2.11-.3.15-.22.08-.44.16-.66.23-.56.19-1.11.37-1.67.57-.96.34-1.9.07-2.85-.03-.1-.01-.19-.1-.28-.16-.09-.06-.18-.11-.3-.19.06-.06.14-.16.22-.25,0-.01-.02-.02-.02-.03-.2.11-.4.22-.54.29.2.22.41.44.62.67.07.07.13.15.21.2.16.12.35.22.5.36.08.07.13.19.19.29.1.07.33.17.37.12.14-.18.28-.07.38-.02.71.38,1.34,0,2.03-.15-.07-.1-.11-.15-.17-.23.08.01.12,0,.14.03.23.21.45.11.68-.01.32-.18.65-.35.99-.49.27-.11.5-.3.82-.28.3.02.59-.06.78-.33.06-.08.17-.14.26-.19.53-.32.96-.75,1.33-1.24.2-.26.43-.49.64-.73.41-.49.83-.98,1.22-1.49.17-.23.31-.51.39-.79.16-.57.26-1.16.39-1.74-.02,0-.03,0-.05-.01-.07.15-.13.3-.22.5-.11-.15-.21-.25-.28-.38-.12-.21-.21-.23-.42-.12-.29.15-.59.28-.89.41-.02-.04-.05-.08-.07-.12.29-.22.57-.43.86-.65.02.02.03.04.05.06.06-.24.12-.47.19-.73.01,0,.1-.04.13-.09.1-.2.17-.4.31-.6.29-.42.49-.9.73-1.36.06-.11.14-.26.23-.28.23-.05.21-.21.21-.36,0-.08-.03-.14.09-.15.03,0,.05-.13.06-.2.02-.22.02-.45.06-.66.07-.32.18-.63.25-.95.17-.77-.06-1.43-.71-1.78-.03-.01-.04-.05-.03-.04.06-.15.1-.26.16-.36.07-.13.13-.27.22-.38.24-.27.51-.51.73-.8.28-.36.54-.74.78-1.12.15-.24.29-.49.4-.74.07-.15.04-.34.12-.48.25-.46.25-.95.13-1.43ZM8.75,13.76c-.21.02-.41.07-.6.04-.2-.02-.41-.1-.6-.18-.2-.09-.39-.21-.59-.31-.02-.01-.06-.02-.07-.04-.27-.43-.86-.46-1.15-.87-.13-.19-.26-.39-.4-.58-.03-.04-.07-.09-.11-.1-.28-.1-.46-.3-.59-.56-.21-.45-.43-.9-.64-1.35-.03-.07,0-.17.02-.25.11,0,.23-.01.32.04.09.05.14.16.21.24.82,1.11,1.79,2.06,2.96,2.79.37.23.73.46,1.07.73.15.12.2.24.15.41ZM35.93,24.67c.15-.11.32-.19.5-.27.08-.04.16-.09.24-.13.16-.1.33-.18.51-.25.19-.08.41-.1.61-.05.23.06.44.24.54.45.05.1.06.21.06.32.16.34.25.69.34,1.05.05.19-.01.36-.13.49.1.36.2.72.3,1.07,0,0,.04.02.07.04-.18.17-.02.38-.06.57-.04.19-.07.39-.1.58-.04,0-.07,0-.11.01-.09-.14-.17-.3-.27-.43-.34-.43-.68-.86-1.02-1.3,0,0-.01,0-.02,0-.03,0-.05-.03-.08-.04-.01,0-.02,0-.04,0-.13,0-.27-.06-.37-.15-.18-.18-.39-.34-.59-.52-.13-.11-.25-.24-.35-.38-.03,0-.06,0-.09,0-.02-.03-.07-.08-.12-.13-.07-.09-.23-.21-.2-.26.09-.24.17-.54.36-.69ZM32.91,28.04s.08.03.12.04c.09-.16.03-.42.29-.49-.02-.08-.04-.16-.06-.27.06.03.1.05.15.08,0-.03,0-.06,0-.07-.39-.87-.38-1.75-.09-2.64.03-.1.09-.2.15-.28.2-.29.25-.29.54-.12.24.14.53.19.74.36.13.11.2.36.21.55.02.46-.13.87-.37,1.27-.25.41-.45.86-.67,1.29-.04.07-.1.15-.17.19-.29.19-.58.38-.93.6.04-.21.07-.35.1-.51ZM30.96,28.35c.35-.55.53-1.15.7-1.77.05-.18.27-.31.44-.5.04.38.08.7.1,1.03,0,.1-.05.2-.08.3-.03,0-.07,0-.1,0,.1.61.18,1.22.29,1.82.05.28.24.51.53.59.1.03.32-.03.34-.1.1-.31.41-.42.58-.66.24-.33.44-.7.71-1,.37-.41.78-.8,1.21-1.16.22-.19.46-.11.68.12.25.26.54.48.76.76.25.33.44.71.66,1.06.05.08.11.17.17.24.21.22.21.43-.02.63-.15.13-.3.27-.48.32-.46.14-.57.6-.89.87-.25.21-.42.23-.7.06-.29-.18-.57-.4-.88-.53-.3-.13-.63-.18-.96-.24-.24-.05-.49-.06-.74-.09-1.05-.14-2.06-.04-2.97.57-.04,0-.07-.02-.11-.03,0-.22-.03-.44,0-.66.1-.61.42-1.12.74-1.63ZM29.6,46.18c-.45.11-.92.18-1.38.2-.53.02-1.07-.03-1.61-.04-.23,0-.47.06-.7.03-.91-.12-1.83-.26-2.74-.4-.47-.08-.84-.36-1.22-.64-.53-.39-.89-.92-1.24-1.46-.29-.44-.54-.91-.58-1.47-.02-.32-.18-.63-.26-.96-.09-.4-.16-.8-.24-1.2-.05-.29-.08-.59-.14-.89-.13-.68.18-1.21.55-1.73.03-.05.08-.1.09-.15.13-.48.46-.83.78-1.17.04-.04.08-.07.11-.12.14-.24.2-.51.5-.65.14-.07.18-.31.3-.45.16-.19.36-.35.53-.54.05-.05.05-.13.09-.18.1-.14.19-.3.32-.4.48-.4.82-.89,1.11-1.44.07-.13.23-.22.34-.33.42-.46.83-.93,1.25-1.39.47-.51.93-1.05,1.45-1.51.37-.33.82-.55,1.24-.83.11-.08.2-.2.31-.28.21-.15.43-.27.63-.42.21-.28.45-.53.75-.74.24-.17.57-.03.71.19.13.21.06.45-.09.61,0,.04.01.07,0,.1-.12.32-.27.63-.4.94-.31.78-.62,1.57-.93,2.35,0,0,0,0,0,0,.04.09.06.2.02.32-.11.4-.24.79-.38,1.18,0,.04,0,.07,0,.11,0,.25-.02.5-.04.75-.01.19-.07.39-.04.58.04.32.12.63.21.94.12.42.26.83.42,1.24.12.3.3.58.44.88.1.2.16.42.27.61.12.21.27.39.41.59.37.55.74,1.11,1.12,1.66.25.37.52.72.76,1.09.11.18.17.4.25.61.01.03-.03.07-.05.11l-.08.06c-.04-.11-.09-.21-.13-.33-.07.32-.12.56-.19.85-.25.01-.51.02-.77.04-.16.01-.32.04-.48.04-.24,0-.48-.01-.71-.04-.07-.01-.14-.11-.23-.18-.4.32-.8-.25-1.13-.06-.11-.11-.17-.2-.24-.23-.34-.15-.7-.25-1.02-.42-.46-.23-.96-.22-1.41-.17-.33.04-.55-.31-.88-.07.16.09.32.23.49.24.44.03.76.22,1.01.56.02.03.04.07.07.08.4.12.8.24,1.19.36.05.02.11.01.16.04.43.22.89.39,1.31.66.2.14.52.11.78.15.03,0,.06-.02.08,0,.31.24.68,0,1.01.1.04.01.09.02.13,0,.24-.05.29.03.27.27-.02.19.09.39.09.59,0,.14-.07.31-.17.41-.27.26-.6.45-.84.72-.33.38-.77.49-1.21.59ZM33.39,43.61l.02.09c-.18.14-.36.29-.56.43-.1.07-.34-.13-.43-.4.34-.04.65-.08.97-.12ZM38.36,107.6s.05-.04.07-.03c.38.05.72-.11,1.08-.19.05-.01.12.03.21.05-.49.38-1.03.44-1.36.17ZM41.02,46.08c.1.24.09.51.06.77,0,.05-.01.09-.02.14.02.15.01.31-.01.47.07.37.14.75.19,1.13.02.17-.05.36-.04.54,0,.18.08.35.08.53,0,.5.02,1.01-.02,1.51-.02.32-.14.62-.18.94-.05.54-.1,1.09-.09,1.64.01.74.06,1.48.12,2.22.06.77.14,1.53.2,2.3.04.47.04.93.07,1.4.06,1.07.12,2.14.2,3.2.07.82.19,1.64.29,2.46.06.46.14.92.17,1.39.03.54.01,1.08.02,1.62,0,.1.03.19.04.29.02.13.06.25.05.38-.02.31-.06.63-.07.94,0,.09.08.18.09.27.08.45.13.9.22,1.34.07.34.16.67.27.99.19.52.29,1.06.36,1.61.05.37.18.72.26,1.08.05.21.03.44.09.65.07.24.19.45.28.68.08.22.14.46.21.68.04.12.11.24.15.36.09.29.16.58.26.86.07.2.19.39.28.59.07.15.14.3.21.45.03.05.08.09.11.14.04.06.1.16.08.19-.12.18,0,.29.07.44.17.37.31.76.44,1.15.08.24.14.48.21.72-.02.01-.04.02-.06.03.07.04.15.09.24.14-.04.2.02.35.16.53.2.27.28.64.39.97.1.31.16.63.22.94.04.17.04.36.08.53.15.61.33,1.21.47,1.82.14.6.24,1.21.39,1.81.15.58.36,1.15.52,1.73.06.23.06.47.11.71.04.17.12.3.06.5-.05.18.06.41.09.62.09.51.16,1.02.1,1.54-.03.27.08.55.11.83.02.16.05.34.02.5-.1.52-.02,1.03.09,1.54,0,.04.02.09.02.13,0,.41-.04.83,0,1.24.03.27.18.52.27.78.25.73.36,1.47.29,2.25-.04.43-.05.91.24,1.29.07.1.27.15.41.14.2-.01.09-.18.09-.29-.01-.2.01-.4,0-.6-.1-.92-.22-1.83-.31-2.75-.02-.24.03-.49,0-.74-.03-.37-.11-.74-.15-1.11-.05-.55-.07-1.1-.12-1.65-.03-.4-.08-.8-.13-1.2-.05-.33-.07-.65-.03-.98.02-.15-.06-.31-.1-.47-.2-1.02-.38-2.05-.59-3.07-.13-.61-.32-1.22-.47-1.83-.14-.56-.25-1.12-.39-1.68-.1-.39-.23-.76-.34-1.15-.08-.29-.13-.58-.18-.87-.09-.28-.3-.5-.38-.81-.1-.4-.29-.77-.46-1.15-.1-.24-.24-.46-.34-.7-.06-.13-.07-.29-.09-.43-.09-.55-.37-1.01-.64-1.49-.03-.05,0-.14,0-.21,0-.05.02-.14,0-.15-.24-.12-.15-.31-.12-.43-.15-.18-.31-.31-.38-.48-.19-.49-.34-.99-.52-1.49-.08-.24-.2-.46-.08-.72.01-.03,0-.1-.03-.12-.39-.34-.38-.84-.51-1.28-.08-.25-.06-.53-.12-.78-.03-.12-.13-.23-.21-.34.03-.07.09-.14.08-.21-.03-.32-.06-.65-.12-.97-.08-.41-.17-.82-.27-1.23-.08-.32-.2-.64-.26-.96-.09-.55-.22-1.1-.02-1.67.05-.15.02-.35-.03-.5-.24-.64-.2-1.31-.28-1.96-.07-.61-.16-1.22-.28-1.83-.03-.15-.13-.27-.05-.44.01-.03-.08-.11-.07-.17,0-.2.01-.4,0-.6-.03-.35-.08-.69-.11-1.04-.02-.21-.02-.43-.05-.64-.04-.25-.07-.49.05-.73.02-.04,0-.09,0-.13-.04-1.09-.06-2.18-.12-3.28-.03-.72-.12-1.44-.15-2.17-.02-.54.02-1.08.03-1.62,0-.36,0-.71,0-1.07,0-.05.02-.11.05-.13.25-.15.28-.38.26-.64-.02-.23-.07-.46-.06-.69,0-.11.12-.21.14-.33.04-.16.05-.32.05-.48-.01-.32-.06-.64-.07-.97,0-.05.09-.11.16-.19.13.5.26.93-.04,1.38h.11c.04-.05.08-.12.15-.24.06.39.12.72.15,1.06.05.49.06.99.12,1.48.09.7.19,1.4.32,2.09.08.42.07.84.1,1.26.02.22,0,.45.06.67.04.16.18.28.29.44h-.24c0,.06-.01.14.02.19.16.32.25.67.31,1.02.07.39.15.77.24,1.16.23.97.47,1.94.7,2.91.05.23.04.48.09.72.09.44.21.88.31,1.32.08.34.12.7.21,1.04.04.15.15.27.21.38,0,.16-.02.31,0,.46.15.88.28,1.76.47,2.62.09.44.29.86.44,1.28.12.34.22.69.37,1.03.36.85.74,1.69,1.11,2.53.44,1.02.88,2.03,1.3,3.05.17.43.27.88.41,1.33.06.19.12.39.18.58-.02,0-.05.01-.09.03.02.04.03.06.04.07.26.12.4.33.55.59.23.4.25.84.37,1.25.1.35.33.65.47.99.17.41.47.74.54,1.21.06.35.29.66.43.99.06.15.1.31.16.46.12.29.24.59.37.88.01,0-.04,0-.1,0,.09.19.2.37.27.56.12.37.2.76.32,1.13.08.23.19.46.3.68.32.62.65,1.23.97,1.85.04.07.03.17.04.26.02.1.03.21.07.3.23.45.46.9.69,1.34-.01,0-.05.01-.11.03.65,1.01,1.17,2.08,1.39,3.3.1-.09.13-.12.19-.18.05.17.1.32.14.47.04.16.06.31.09.47,0,.04-.02.09-.03.14-.02.11-.07.21-.06.32,0,.14.13.1.21.14.15.07.29.27.35.44.1.34.13.71.22,1.05.05.17.19.31.3.49-.05,0-.13-.02-.17-.02,0,.13-.02.25-.02.38,0,.03,0,.09.02.1.28.08.13.32.2.48.11.26.28.51.45.75.12.18.24.38.53.31-.13-.14-.21-.26-.17-.51.03-.24-.19-.52-.32-.78-.09-.17-.21-.31,0-.5-.07-.08-.13-.14-.22-.23-.02.09-.03.13-.04.17-.04-.03-.11-.07-.1-.09.04-.1.08-.22.15-.3.08-.09.11-.14.02-.26-.11-.15-.15-.37-.23-.58.01,0-.04,0-.02,0-.22-.59-.28-1.21-.74-1.68.05-.07.1-.14.19-.28-.12.04-.17.06-.2.07-.07-.17-.15-.32-.19-.49-.03-.12,0-.26-.01-.39,0-.07-.03-.15-.07-.21-.23-.44-.47-.88-.7-1.33-.02-.05-.03-.11-.03-.16.04-.24-.06-.36-.34-.35.15-.24.11-.39-.1-.54-.16-.12-.27-.29-.26-.53,0-.13-.08-.26-.14-.38-.12-.29-.24-.57-.38-.85-.24-.47-.54-.91-.72-1.4-.21-.59-.69-1.08-.73-1.73-.03-.45-.34-.75-.5-1.12-.13-.32-.26-.62-.35-.96-.09-.32-.28-.61-.4-.92-.21-.56-.4-1.13-.58-1.7-.1-.32-.63-1.2-.78-1.31-.04-.3-.04-.54-.12-.75-.18-.51-.38-1.01-.59-1.51-.43-1.01-.89-2.02-1.29-3.04-.36-.9-.65-1.82-1-2.73-.22-.58-.52-1.13-.73-1.71-.28-.77-.53-1.55-.77-2.33-.17-.54-.29-1.09-.43-1.64-.19-.77-.4-1.53-.56-2.3-.19-.96-.31-1.93-.49-2.88-.15-.81-.36-1.61-.53-2.41-.06-.27-.08-.55-.13-.82-.05-.21-.1-.43-.16-.64-.37-.75-.41-1.6-.41-2.43-.03-.14-.06-.28-.08-.42,0-.06.04-.13.07-.2,0,0,0,0,0,0-.06-.07-.13-.15-.21-.25.06-.02.11-.03.2-.05-.17-.38.05-.85-.25-1.15-.04-.36-.01-.68-.11-.96-.1-.26-.13-.47,0-.78.11.55.21,1.05.3,1.54.02,0,.04,0,.05,0,0-.15,0-.29,0-.44,0-.26.01-.52-.07-.77-.1-.31-.22-.57-.22-.91,0-.08.01-.15.04-.21,0,0,0-.02,0-.03-.09-.33-.24-.62-.3-.97-.09-.6-.28-1.19-.45-1.78-.04-.16-.18-.29-.22-.45-.08-.34-.12-.69-.17-1.04-.01-.08,0-.16,0-.24,0-.36.37-.68.7-.52.19.09.32.32.46.51.11.16.19.35.28.52.03.06.08.12.1.19.18.6.35,1.2.54,1.8.18.56.4,1.11.59,1.67.06.16.13.32.13.49,0,.48.26.87.46,1.3.06.07.12.15.16.23.03.06.06.14.08.21.02.08.03.16.03.24,0,0,0,.02,0,.03.1.26.21.53.3.8.26.77.5,1.55.76,2.32.03.08.09.15.14.23.03.05.09.1.11.15.16.39.32.79.47,1.18.19.49.36.98.56,1.47.22.55.46,1.09.7,1.62.17.38.4.74.56,1.12.33.77.63,1.55.95,2.32.1.24.23.46.35.69.03.05.07.1.09.16.19.48.37.96.56,1.44.05.13.08.26.14.38.02.04.1.05.1.05.25.65.49,1.29.73,1.93.19.51.4,1.01.58,1.51.15.41.23.86.42,1.25.22.45.37.93.57,1.38.09.2.17.39.26.59.05.12.14.24.15.37.09.73.52,1.29.88,1.89.36.59.75,1.15.9,1.86.06.29.2.61.45.86.21.22.29.56.45.84.09.16.24.28.33.44.2.39.36.8.57,1.19.24.45.52.88.79,1.31.02.03.05.06.05.1-.01.38.28.64.37.97.07.26.14.52.18.78.06.36.17.67.42.96.19.23.27.56.41.84.32.62.64,1.23.97,1.85.31.57.62,1.13.94,1.7.22.38.45.76.68,1.13.26.43.54.86.79,1.3.14.25.23.54.37.8.11.21.26.4.37.61.09.17.16.36.24.54.13.32.32.62.34.98,0,.06,0,.13-.03.17-.32.37-.26.69.12.98.15.11.25.31.33.49.09.21.13.43.18.65.01.06-.04.13-.03.19.01.05.09.07.15.12-.22.18-.21.37-.19.62.02.27,0,.58-.35.77-.37.21-.67.52-1.03.74-.02.01-.04.04-.07.05-.72.32-.69.29-.84-.34-.02-.1-.07-.2-.11-.3-.07-.21-.21-.26-.43-.29-.86-.11-1.55.46-1.57,1.37.27,0,.26.13.15.32-.25.43-.45.89-.75,1.28-.2.26-.52.43-.81.61-.36.22-.75.39-1.11.61-.15.09-.28.23-.38.37-.18.25-.59.46-.88.37-.36-.12-.71-.29-1.07-.42-.09-.04-.21,0-.31-.03-.29-.06-.57-.15-.86-.19-.71-.1-1.25.26-1.76.68-.15.12-.31.24-.46.35-.35.26-.7.52-1.07.76-.12.08-.28.13-.42.13-.55,0-1.1,0-1.65-.02-.26,0-.51-.06-.77-.07-.66-.04-1.33-.16-1.99.03-.42.12-.87.13-1.26.31-.74.33-1.43.76-2.16,1.13-.43.22-.89.39-1.39.38-.16,0-.32.03-.48.04-1.07.09-2.13.22-3.2.24-.56,0-1.13-.18-1.68-.29-.8-.16-1.59-.37-2.4-.5-.64-.1-1.28.01-1.91.15-.53.12-1.07.29-1.64.22-.35-.05-.73.02-1.06-.08-.41-.12-.84-.12-1.24-.21-.68-.16-1.3-.54-1.96-.78-.58-.22-1.03-.61-1.34-1.11-.27-.43-.68-.57-1.07-.81-.38-.23-.71-.12-1.09-.04-1.03.22-2.03.54-3.12.41-.97-.11-1.89-.36-2.82-.63-.68-.2-1.34-.44-1.95-.82-.12-.07-.22-.15-.33-.23.01-.02.02-.04.03-.06.08.03.15.06.22.08-.39-.22-.75-.51-1.06-.82-.23-.24-.44-.51-.62-.79-.27-.2-.54-.41-.76-.65-.28-.3-.56-.57-.91-.77-.19-.11-.3-.3-.58-.3-.17,0-.32-.23-.49-.34-.55-.37-1.05-.82-1.7-1.02-1.04-.31-2.11-.63-3.2-.51-1.03.11-1.71-.53-2.52-.9-.47-.21-.91-.48-1.38-.7-.39-.19-.54-.59-.35-.98.03-.06.04-.13.05-.2.04-.21.02-.42.21-.61.51-.51,1.04-1.01,1.45-1.6.48-.7.86-1.47,1.24-2.24.41-.84.78-1.69,1.13-2.55.14-.34.19-.72.32-1.08.05-.15.17-.27.26-.41.03-.04.11-.09.1-.11-.13-.35.16-.56.28-.81.25-.54.54-1.06.84-1.58.17-.29.38-.56.57-.84.2-.31.37-.64.61-.91.6-.67,1.07-1.43,1.56-2.18.34-.52.61-1.08.93-1.61.25-.42.55-.82.79-1.25.24-.42.44-.88.68-1.3.36-.62.75-1.22,1.11-1.84.39-.68.76-1.38,1.13-2.07.27-.51.56-1.01.81-1.53.23-.46.43-.94.66-1.4.17-.36.37-.71.54-1.07.14-.3.22-.62.37-.91.17-.32.39-.61.58-.92.09-.15.12-.32.23-.48.3-.43.56-.9.8-1.37.33-.64.62-1.3.97-1.93.34-.62.72-1.21,1.07-1.82.36-.62.72-1.24,1.09-1.85.29-.47.6-.92.9-1.38.41-.62.79-1.26,1.22-1.87.47-.68.97-1.34,1.47-2.01.29-.39.56-.78.87-1.15.32-.38.68-.71,1-1.09.28-.34.51-.73.78-1.08.15-.2.34-.38.5-.58.17-.21.31-.46.5-.66.23-.24.5-.43.75-.65.21-.18.4-.38.61-.54.16-.12.38-.18.53-.31.25-.2.5-.38.62-.72.06-.17.27-.28.41-.42.15-.15.3-.31.44-.45.11.1.23.2.33.29-.43.36-.79.82-1.12,1.32-.31.48-.63.95-.95,1.42-.03.05-.1.07-.15.1.1.17.02.32-.22.43.01.09.06.18.03.24-.47.76-.95,1.52-1.44,2.27-.14.21-.43.38-.44.58-.03.3-.23.46-.33.69-.03.08-.15.12-.19.15-.1.26-.18.51-.3.74-.13.24-.32.46-.47.69-.14.23-.25.48-.39.75.06.1-.16.72-.41.94.17.17.13.27-.08.28.01.1.06.21.03.28-.17.46-.35.91-.53,1.37-.17.44-.36.87-.51,1.32-.17.48-.3.98-.45,1.47-.09.31-.18.61-.3.91-.02.04-.14.05-.22.08.04.04.08.08.13.12-.02,0-.05,0-.08-.01-.07.25-.14.51-.21.76-.04.12-.1.22-.14.34-.05.15-.1.3-.15.44-.12.38-.22.77-.35,1.15-.11.3-.27.57-.38.87-.15.4-.27.81-.39,1.22-.02.08.02.19.03.24-.09.12-.16.22-.27.35.12,0,.18,0,.24.01-.31.12-.43.38-.5.66,0,.03-.01.07-.03.07-.35.08-.35.37-.39.64-.01.08-.09.15-.14.23.04.05.09.11.16.2-.11.01-.18.02-.25.03-.05.34-.07.68-.28.97-.07.1-.09.25-.1.38-.04.33-.19.62-.35.92-.06.11-.08.24-.11.36-.04.19-.08.38-.12.57-.02.09-.06.17-.11.32-.26.08-.22.32-.1.59-.1.01-.16.02-.28.04.1.05.16.08.17.09-.08.3-.15.57-.22.84,0,.03-.06.04-.09.07-.05.05-.12.1-.13.15-.04.2-.04.4-.09.59-.04.16-.15.3-.22.45-.09.19-.06.33.17.38-.2.14-.2.44-.02.7-.1-.05-.2-.1-.35-.17.09.24.06.44-.03.65-.04.09.1.25.16.39-.34-.05-.44.12-.45.46,0,.13-.18.25-.26.36.09.01.26.03.46.05-.72.38-.79.45-.7.73.06-.09.12-.17.17-.24.08.2.05.19-.06.39-.09.17-.11.39-.14.59-.02.13.05.31-.01.39-.16.22-.16.38.12.52-.11.06-.19.08-.23.13-.05.05-.07.13-.08.19-.01.04.02.09,0,.12-.24.32-.17.71-.24,1.07-.01.06-.07.12-.11.19.04.05.09.1.14.16-.46.47-.35,1.09-.44,1.65-.04.22-.07.45-.11.67-.01.06-.02.12-.03.19-.08.59-.16,1.18-.25,1.77,0,.03,0,.06-.01.08-.33.41-.33.94-.47,1.42-.03.11-.01.23-.05.33-.04.11-.14.19-.18.3-.12.34-.22.69-.33,1.03-.07.21-.14.42-.23.62-.29.63-.37,1.31-.52,1.98-.15.68-.28,1.36-.45,2.03-.09.37-.24.72-.35,1.09-.04.14-.09.28-.1.42-.02.32-.02.64-.03.96.05.04.1.07.15.1.28-1.56.68-3.11,1.16-4.57.18-.57.38-1.13.61-1.68.04-.15.07-.3.09-.46.07-.6.31-1.13.57-1.66.13.1.11.47.03.78.09-.16.18-.31.26-.47.29-.59.45-1.23.58-1.89.02-.14.05-.27.08-.4.09-.48.18-.97.3-1.44-.05-.26.17-.5.14-.77-.02-.15.1-.31.15-.48.02-.07,0-.16.03-.22.1-.22.06-.54-.07-.68.08-.11.15-.22.22-.33.02-.04.06-.11.05-.13-.14-.17-.05-.36-.06-.55,0-.04-.02-.07-.01-.11.07-.24-.02-.55.06-.72.18-.34,0-.65.06-.96.03-.15.07-.3.16-.44v.61s.02,0,.03,0c.21-.63.42-1.26.63-1.9-.02,0-.05-.02-.07-.03-.24.24-.05.75-.44.9-.03-.01-.06-.03-.09-.04.03-.09.03-.22.09-.25.18-.11.13-.29.18-.44.08-.26.14-.54.2-.81,0-.03.03-.06.02-.08-.15-.32.06-.59.12-.88.04-.23.03-.46.3-.57.02,0,.02-.06.03-.1-.04-.03-.09-.05-.1-.08-.03-.21.16-.5.34-.52-.09-.17-.12-.34.04-.49.03-.07.04-.15.08-.19.04-.05.12-.06.19-.09-.05-.02-.11-.03-.18-.05.02-.37.05-.72.32-.92.05-.27.08-.5.14-.71.36-1.21.72-2.41,1.08-3.62.05-.16.06-.32.09-.49.03,0,.06,0,.1.01-.02.22-.02.45-.08.66-.25.89-.52,1.77-.78,2.65-.1.34-.21.68-.31,1.03-.02.05.01.12,0,.18-.01.12-.03.24-.05.35-.04.22-.09.44-.14.66.07-.13.16-.25.22-.39.07-.15.12-.31.18-.46.08-.24.16-.48.23-.72.01-.04-.04-.11-.07-.17.06-.04.13-.09.21-.14-.03-.11-.29-.25.03-.32.03,0,.05-.11.05-.17-.01-.32.17-.58.28-.87-.06-.05-.12-.09-.25-.18.13.01.19.02.26.03-.02-.24.33-.42.12-.68.09-.13.18-.28.27-.41-.07-.06-.12-.11-.16-.15.02-.03.03-.06.04-.06.27,0,.29-.25.33-.39.21-.72.39-1.45.57-2.18.14-.62.26-1.24.39-1.86.06-.27.08-.56.18-.82.11-.28.32-.52.42-.8.2-.55.35-1.11.53-1.67.09-.29.26-.56.3-.85.02-.17.14-.21.2-.31.08-.14.1-.31.14-.46,0-.02-.01-.07,0-.08.31-.2.24-.6.41-.86.22-.33.32-.72.48-1.07.09-.19.25-.36.31-.56.19-.6.52-1.14.74-1.72.16-.42.27-.85.47-1.25.23-.43.45-.87.68-1.3.24-.44.47-.88.72-1.31.26-.44.55-.85.81-1.28.25-.41.48-.84.74-1.24.28-.44.59-.85.87-1.28.57-.87,1.18-1.72,1.58-2.69.04-.09.15-.2.24-.22.56-.11,1.12-.2,1.69-.27.29-.04.4.13.29.4-.09.24-.17.49-.29.71-.11.19-.06.47-.32.6-.07.03-.02.27-.06.4-.11.34-.23.68-.35,1.03-.1.31-.24.61-.28.93-.05.4-.21.75-.31,1.13-.14.51-.21,1.05-.42,1.53-.13.29,0,.6-.18.88-.09.14,0,.39,0,.6,0,.1-.02.22-.08.29-.21.24-.34.49-.2.81,0,.02,0,.06,0,.08-.29.54-.28,1.16-.43,1.73-.15.59-.28,1.19-.41,1.79-.03.15-.02.32-.05.47-.06.34-.15.68-.21,1.02-.01.07.04.16.09.23.1.14.08.22-.09.27-.09.03-.17.08-.26.13.04.06.05.09.08.11.18.2.2.37-.03.56-.11.1-.16.27-.25.41.06.03.1.05.19.09-.13.08-.23.14-.35.21.13.26.07.52-.02.79-.11.34-.07.7,0,.95-.12.32-.26.58-.32.85-.09.4-.14.81-.2,1.22-.1.64-.18,1.27-.28,1.91-.03.17-.08.33-.11.5-.03.19-.03.38-.06.57-.06.4-.12.81-.21,1.2-.12.55-.29,1.09-.41,1.65-.14.64-.25,1.3-.36,1.95-.05.26-.05.54-.09.8-.03.24-.08.47-.1.71-.02.19,0,.37,0,.56,0,.5.02,1.01.01,1.51,0,.17-.03.35-.05.52-.03.35-.06.71-.1,1.06,0,.04-.03.07-.03.1,0,.3.04.6-.03.88-.1.42.08.81.07,1.21-.02.37.01.75-.05,1.11-.05.28.01.54.05.82.04.34.01.7,0,1.05,0,.4,0,.81-.02,1.21-.01.38-.06.76-.05,1.13.02.43.09.86.13,1.29.01.15,0,.31,0,.49.06.02.14.06.28.11-.32.04-.23.23-.19.4-.06.03-.12.06-.17.09.23.28-.15.52-.03.79.04.08,0,.21-.03.3-.12.25.08.5-.05.78-.12.24-.08.56-.11.84-.05.42-.1.83-.15,1.25,0,.1.03.2.05.36-.07.34-.16.75-.25,1.18.09,0,.16-.01.26-.02-.22.17-.28.36-.24.67-.09.15-.2.37-.05.67.15.28.06.45-.17.58-.11.25-.18.42-.26.6.04,0,.11,0,.21-.02-.03.07-.04.12-.07.18-.09.18.02.48.21.55.13.05.28-.07.3-.21.05-.36.13-.71.18-1.07.04-.28.04-.56.06-.84.02-.3-.1-.6.01-.91.04-.12,0-.26.02-.4.03-.41-.05-.84.16-1.23.04-.07.04-.16.03-.24-.02-.21-.11-.41.03-.64.07-.11-.03-.32.03-.46.06-.16.13-.29.03-.46-.03-.04.02-.14.03-.2.05-.21.12-.42.15-.64,0-.08-.09-.18-.08-.25.05-.17.12-.33.13-.5.02-.45-.06-.92.05-1.35.08-.31.16-.62.17-.93.05-.9.1-1.79.09-2.69,0-.84-.08-1.68-.12-2.52-.03-.7-.09-1.4-.09-2.1,0-.51.07-1.02.13-1.53.06-.51.17-1.01.24-1.51.01-.07-.04-.15-.05-.23-.05-.27-.1-.54.19-.75-.2-.15-.09-.29,0-.43.05-.07.09-.2.05-.27-.16-.31-.15-.65-.06-.94.22-.71.25-1.45.4-2.17.09-.46.06-.94.14-1.4.11-.6.27-1.19.42-1.77.06-.25.19-.49.23-.74.04-.24-.02-.5.03-.73.08-.41.23-.8.3-1.2.18-1.16.34-2.32.5-3.48.03-.19,0-.39,0-.58,0-.04,0-.07,0-.11.06-.37.12-.74.18-1.12.03-.2.08-.4.1-.6,0-.06.15-.26-.11-.21,0,0-.03-.11-.06-.2.26.07.27-.08.31-.25.07-.3.2-.59.27-.9.04-.18.02-.38.04-.56,0-.07.01-.14.03-.21.13-.56.26-1.13.41-1.69.14-.54.32-1.06.48-1.59.09-.29.17-.58.25-.87,0-.02,0-.04,0-.05.29-.38.32-.84.43-1.28,0-.03.01-.06.03-.07.41-.38.47-.92.64-1.41.26-.76.53-1.51.78-2.26.06-.18.06-.38.11-.57.14-.57.28-1.15.44-1.72.04-.15.06-.37.33-.21.06.04.18,0,.27-.01.22.29.11.62.08.93-.03.31.1.64-.19.92-.16.15.05.22.2.24,0,.44,0,.86,0,1.29,0,.38.03.77.06,1.15.03.31.13.4.42.39.05,0,.14-.11.14-.17,0-.61-.02-1.21-.01-1.82,0-.34.05-.68.08-1.01.04-.4.08-.79.13-1.19.03-.19.09-.38.12-.57.06-.43.29-.66.76-.62.03.06.05.13.08.21.2-.05.41-.02.6.05.08.03.16.06.24.09.12,0,.23-.02.35-.03.21-.02.42-.03.64-.01.11,0,.24.02.35.06.2.07.35.2.43.4ZM22.35,68.69c-.14-.1-.23-.17-.32-.23.08-.06.15-.11.29-.21.01.19.02.27.03.44ZM33.62,43.69s.01-.07.02-.11c.21.01.41.02.62.04.04,0,.09.07.09.11,0,.03-.07.09-.1.09-.21-.04-.42-.09-.62-.13ZM35.47,45.35c.04.22.07.39.09.57-.04,0-.07.01-.11.02-.08-.17-.21-.35.01-.59ZM39.48,44.68c.17-.31.43-.51.58-.39.15.12.22.32.33.49-.03.01-.06.03-.09.04-.28-.05-.55-.09-.83-.14ZM39.76,29.4c.82-.2,1.55.08,2.25.49.58.34,1.04.78,1.34,1.38.27.53.54,1.07.58,1.69,0,.1.08.2.09.31.02.25.02.51.02.76,0,.31.04.62.01.93-.08.98-.27,1.92-.71,2.83-.34.72-.82,1.34-1.17,2.05-.03.06-.08.12-.1.19-.14.51-.43.92-.79,1.3-.24.25-.5.49-.74.74-.09.09-.17.2-.29.34-.15-.1-.3-.01-.38.16-.22.46-.7.55-1.09.77-.06.03-.15,0-.23.01-.09,0-.19-.02-.26.02-.37.23-.74.46-1.09.71-.32.22-.73.19-1.01-.07-.23-.21-.49-.38-.74-.57-.05-.04-.09-.08-.13-.13-.32-.37-.62-.75-.95-1.12-.1-.11-.24-.18-.35-.27-.09-.07-.18-.16-.24-.25-.33-.49-.65-.98-.97-1.47-.19-.3-.38-.61-.57-.91-.02-.04-.04-.09-.07-.12-.72-.59-1.01-1.45-1.44-2.22-.25-.45-.46-.92-.64-1.41-.1-.3-.11-.63-.14-.95-.06-.63-.02-1.26.15-1.86.18-.62.4-1.29,1.08-1.57.61-.26,1.26-.39,1.93-.31.73.09,1.41.31,2,.76.15.11.28.25.38.4.21.28.54.32.77.05.33-.39.63-.8.96-1.19.31-.36.66-.67,1.11-.9.47-.24.94-.47,1.45-.59ZM51.02,17.27s-.03-.04-.05-.06c.37-.29.75-.59,1.12-.88.03.04.06.07.08.11-.35.33-.77.56-1.16.84ZM57.19,13.21c.02-.05.03-.12.07-.14.28-.12.56-.22.85-.33.03-.01.06,0,.09,0l.02.07c-.34.13-.69.26-1.03.39ZM67.52,19.04c-.04.22-.11.43-.13.65-.06.71-.48,1.25-.81,1.84-.37.65-.73,1.31-1.13,1.94-.19.3-.46.52-.84.61-.68.17-1.34.41-2.01.59-.45.12-.89.02-1.34-.1.22-.3.41-.58.63-.83.11-.12.27-.19.4-.3.44-.38.87-.79,1.32-1.16,1.33-1.11,2.14-2.59,2.97-4.06.23-.41.47-.81.93-1.03.28.61.15,1.22.03,1.84ZM69.62,11.26c-.12.49-.2,1-.38,1.47-.13.35-.45.64-.56.99-.11.35-.38.54-.58.81-.16.22-.3.46-.5.63-.36.31-.71.65-1.19.81-.14.05-.26.15-.38.24-.43.31-.85.65-1.29.94-.28.19-.6.34-.91.49-.06.03-.16,0-.24,0,0-.03,0-.05-.01-.08.44-.43.89-.86,1.33-1.3.51-.5,1.01-1,1.52-1.51.2-.2.41-.38.59-.59.25-.3.48-.61.72-.92.24-.31.48-.61.7-.93.06-.09.08-.22.11-.32.08-.08.19-.15.26-.25.13-.19.24-.4.34-.61.06-.14.14-.16.27-.13.14.03.24.08.2.25Z"/>
      <path class="cls-1" d="M25.58,38.16c.07-.34.15-.67.22-1.01.01-.08.03-.16.04-.25,0,0,0-.02,0-.03,0-.04,0-.07.01-.11.01-.15.01-.29,0-.43,0,0,0,0,0,0,0-.03-.01-.06-.02-.09,0-.02-.01-.03-.02-.05,0-.01-.01-.02-.02-.04-.01,0-.02,0-.03-.02,0,0,0,0,0,0,0,0,0,0-.01,0-.11.13-.23.25-.34.38-.2.53-.39,1.07-.59,1.6-.25.64-.52,1.28-.78,1.91-.22.54-.6.99-.83,1.53-.07.17-.05.38-.12.56-.1.26-.24.49-.37.74-.08.15-.17.29-.24.45-.02.05.03.18.06.18.15,0,.34.03.43-.04.15-.13.25-.34.35-.52.16-.27.3-.54.45-.81.19-.33.39-.65.58-.98.06-.1.08-.22.12-.33.08-.1.19-.2.24-.32.15-.34.23-.71.41-1.03.13-.23.23-.46.34-.7.03-.2.07-.4.11-.59Z"/>
      <path class="cls-1" d="M20.53,30.75c-.23.32-.44.62-.89.57-.23-.02-.46-.03-.56.27-.04.1-.2.17-.31.24-.35.21-.7.42-1.07.6-.44.21-.85.46-1.36.51-.25.02-.49.22-.73.2-.35-.03-.65.3-1.02.11-.11-.06-.32,0-.45.06-.38.18-.73,0-1.09-.05-.16-.02-.32-.1-.47-.07-.24.04-.35-.12-.52-.21-.29-.16-.6-.27-.9-.41-.43-.21-.86-.41-1.27-.66-.13-.08-.2-.3-.23-.47-.07-.32-.03-.67-.3-.88.03-.15.03-.28.07-.4.07-.21.17-.42.25-.63.02-.07.03-.21,0-.22-.22-.12-.24-.31-.14-.5.11-.22.35-.14.47-.06.28.19.55.19.86.11.18-.05.37-.04.56-.06.34-.03.67-.07,1.01-.1.28-.02.57.02.83-.06.37-.11.77-.01,1.1-.11.28-.08.54-.05.79-.11.15-.03.29-.14.43-.2.08-.03.17,0,.26-.02.16-.03.3-.1.46-.13.26-.05.55-.02.79-.12.42-.18.78.01,1.16.1.12.03.25-.02.38,0,.07,0,.19.06.2.1.01.09,0,.25-.06.28-.14.08-.34.17-.48.13-.38-.11-.67.06-1,.17-.35.12-.65.36-.99.43-.24.05-.49.06-.74.13-.24.06-.49.07-.73.1-.14.02-.29.03-.43.06-.46.11-.96-.01-1.4.28-.13.08-.35,0-.53.02-.08,0-.16.03-.24.07-.01,0-.01.11,0,.12.07.03.15.06.23.05.47-.09.92.07,1.37.15.44.08.88.16,1.31.27.35.09.7.2,1.05.31.06.02.15.04.18.02.14-.11.21-.06.31.05.06.06.17.1.26.1,1.11-.02,2.22-.06,3.34-.09.09,0,.18-.02.26-.03ZM13.93,31.1c-.33-.06-.6-.08-.85-.16-.47-.15-.97-.05-1.46-.2-.21-.07-.36-.11-.49-.3-.09-.12-.31-.18-.46-.18-.21,0-.11.2-.12.32,0,.03-.02.05-.02.08.03.29.07.6.37.73.49.21.9.61,1.49.58.03,0,.06,0,.08.02.26.2.59.22.86.34.53.23,1.03.03,1.53,0,.44-.02.87-.11,1.3-.18.33-.06.65-.12.97-.21.35-.1.69-.23,1.03-.35.1-.04.18-.12.28-.2-.43-.21-.81.13-1.18-.07-.02-.01-.06.03-.1.03-.15.02-.3.04-.45.04-.15,0-.29-.07-.44-.08-.42-.05-.83-.08-1.25-.12-.14-.01-.29,0-.41-.05-.23-.1-.57.04-.72-.28,0,0-.05.01-.09.02.02.04.03.07.04.1.02.03.03.05.09.13Z"/>
      <path class="cls-1" d="M13.33,22.94c.1.04.24.1.38.15-.04.04-.13.1-.15.17-.05.24-.23.3-.42.35-.22.06-.57.05-.65.19-.14.27-.37.21-.56.28-.3.11-.62.22-.94.25-.28.02-.57.05-.84.05-.5.02-1.01-.11-1.5-.24-.38-.11-.73-.32-1.1-.48-.33-.15-.66-.3-.99-.45-.03.03-.06.06-.09.09.05.09.07.2.15.25.32.21.64.4.97.59.14.08.27.17.42.23.59.24,1.19.46,1.77.73.3.14.61.2.91.31.19.07.35.23.53.34.16.1.35.29.5.27.31-.05.42.25.68.28.25.04.48.19.72.27.11.04.23.02.35.03.02,0,.05,0,.07.02.45.28.93.44,1.46.44.02,0,.05,0,.05,0,.2.29.57.2.9.39-.15.04-.23.06-.31.08-.05.01-.14,0-.15.03-.15.34-.48.26-.73.27-.24.01-.49-.1-.73-.16-.05-.01-.1-.03-.14-.02-.49.14-.92-.08-1.37-.2-.4-.11-.79-.28-1.17-.44-.3-.13-.58-.29-.87-.44-.14-.07-.3-.18-.44-.17-.43.04-.66-.3-.98-.46-.62-.32-1.22-.69-1.84-1.01-.45-.23-.93-.42-1.26-.83-.07-.09-.11-.19-.16-.3-.14-.32-.28-.63-.42-.95-.15-.32-.1-.34.19-.52.26-.16.5-.02.74-.03.23,0,.45.19.69.22.38.06.58.49,1.03.42.18-.03.39.17.6.19.52.05,1.02.19,1.53.26.39.05.81-.1,1.22-.15.37-.04.74-.06,1.1-.11.15-.02.28-.09.43-.13.05-.01.1,0,.15,0,.07-.02.14-.04.28-.09Z"/>
      <path class="cls-1" d="M39.34,14.83c-.08.64-.51.96-1.02,1.19-.39.18-.81.31-1.2.47-.39.16-.75.04-1.13-.06-.41-.1-.7-.31-.82-.72-.01-.04-.07-.06-.08-.1-.07-.16-.22-.33-.05-.51.15-.16.49-.11.64.08.24.32.56.54.95.58.24.02.5-.02.74-.06.36-.07.71-.16,1.07-.25.23-.05.41-.17.5-.4.07-.19.21-.26.42-.21Z"/>
      <path class="cls-1" d="M19.91,76.15c-.04-.17.04-.28.2-.31.04,0,.16.12.15.15-.1.28-.23.56-.35.84-.03-.01-.05-.02-.08-.03.04-.11.08-.21.13-.32.06-.13.2-.27-.07-.34,0,0,.01.01.01.01Z"/>
      <path class="cls-1" d="M20.46,74.77s.05-.03.08-.05c-.03.01-.06.03-.09.04,0,0,0,0,0,0Z"/>
      <path class="cls-1" d="M33.62,70.05c-.02-.15-.06-.24-.04-.32.04-.12.11-.24.17-.36,0-.13-.04-.29,0-.43.18-.49,0-.99.04-1.48.01-.14-.07-.29-.1-.44-.05-.29.03-.55.11-.83.07-.25.14-.57-.1-.84.09-.08.18-.16.27-.23-.03,0-.05-.01-.08-.02,0-.13-.03-.25-.02-.38.01-.45.03-.91.04-1.36.02-.47.01-.95.06-1.42.04-.38.15-.76.2-1.14.03-.18,0-.36,0-.54.02-.16.06-.32.1-.48.03,0,.05,0,.08,0-.05-.08-.1-.16-.18-.27.09.03.13.04.2.06-.02-.07-.03-.13-.05-.17-.06-.11-.17-.2.02-.29.04-.02.05-.15.04-.22-.04-.3.03-.59.08-.89.05-.29.04-.59.05-.88,0-.02,0-.04.01-.05.21-.32.08-.69.13-1.03.06-.4.09-.82.18-1.21.04-.2.23-.37.28-.57.07-.27.07-.55.1-.83.03-.3.06-.6.1-.9.02-.18.04-.36.06-.55.06-.46.14-.92.19-1.39.05-.44.04-.9.11-1.34.06-.36.18-.71.29-1.07.02-.05.1-.08.15-.12.03.07.09.13.08.19-.05.38-.13.76-.18,1.14-.01.12.07.25.08.37.05.62-.11,1.21-.22,1.81-.06.31-.05.62-.09.94-.07.57-.14,1.14-.23,1.7-.03.19-.31.35-.08.52-.08.27-.17.5-.2.74-.08.61-.12,1.22-.18,1.82-.05.48-.02.98-.16,1.43-.2.65-.16,1.32-.32,1.96-.08.34-.05.7-.09,1.05-.03.24-.09.48-.12.72-.04.38-.06.76-.08,1.14-.02.52-.02,1.04-.05,1.56,0,.15-.1.3-.15.45-.04.11-.07.22-.11.35.25.02.36.07.24.31-.05.11.03.29.05.44-.04,0-.07.01-.11.02-.02-.18-.05-.36-.07-.54-.02,0-.05,0-.07,0-.01.13-.06.27-.04.39.15.66.11,1.33.03,1.99,0,0,.01,0,.06.04.05-.3.1-.59.15-.87h.04c-.05.61-.11,1.22-.17,1.85-.05-.07-.1-.13-.17-.24-.01.13-.02.21-.02.3,0,.09,0,.18-.02.27,0,.04-.06.07-.1.11.01.04.02.07.03.11-.11-.04-.23-.07-.28-.09Z"/>
      <path class="cls-1" d="M48.66,69.13c.11,0,.25.01.4.02,0,.03,0,.05,0,.08-.1.02-.19.05-.31.08.17.19.31.35.47.53-.14.05-.24.09-.38.14.05.18.09.36.15.53.03.07.12.18.18.18.33-.03.33.24.43.45-.15,0-.29.02-.44.02-.01.47.51.1.6.43-.11.04-.22.09-.36.15.06.32.58.33.52.78-.17-.09-.31-.17-.52-.28.11.19.17.4.3.46.34.17.4.47.43.77.03.27.01.52.26.72.09.07.1.24.13.37.06.25.1.51.16.75.09.32.18.65.3.96.22.56.5,1.1.7,1.67.17.47.47.81.8,1.15.07.07.14.17.16.27.18.77.65,1.4,1.01,2.07.24.43.48.86.74,1.31-.04.03-.11.07-.21.15-.16-.2-.3-.41-.46-.6-.15-.18-.32-.35-.47-.53-.12-.15-.28-.31-.33-.48-.14-.55-.5-.98-.78-1.46-.4-.69-.83-1.37-1.14-2.1-.35-.82-.59-1.68-.87-2.53-.07-.2-.07-.43-.12-.63-.04-.17-.11-.33-.18-.49-.1-.23-.24-.45-.32-.68-.12-.33-.2-.67-.3-1-.07-.22-.17-.43-.23-.65-.04-.15-.04-.31-.06-.47,0-.05,0-.12-.03-.14-.21-.13-.25-.32-.26-.55,0-.08-.07-.15-.12-.24.03-.02.07-.04.09-.06-.32-.34-.39-.77-.48-1.17.1-.03.18-.06.28-.09.05.24.11.49.17.74.02,0,.05,0,.07-.01v-.64Z"/>
      <path class="cls-1" d="M32.42,80.92c-.09-.08-.13-.13-.19-.18.07-.04.13-.08.21-.14-.09-.06-.15-.1-.24-.16.1-.06.17-.09.26-.14-.05-.07-.1-.13-.15-.19.21-.2.23-.44,0-.66.14-.02.24-.03.35-.05,0-.04,0-.1,0-.18.34.12.04.37.17.53h-.28c.04.06.05.11.08.13.31.19.3.27.23.67-.07.36-.05.74-.06,1.11,0,.15-.19.35.04.41-.07.24-.12.45-.18.66.01,0,.03,0,.04,0,0,.18,0,.37,0,.55,0,.03-.02.05-.02.08.02.14.11.31-.07.37-.09.03-.22-.1-.34-.14-.11-.04-.23-.07-.35-.1,0-.03,0-.06,0-.1.13-.04.26-.08.39-.12-.01-.12-.03-.25-.05-.39-.07-.02-.16-.04-.25-.06,0-.02,0-.04-.01-.06.15-.06.3-.12.43-.17-.08-.18-.16-.35-.25-.53.19-.13.23-.79-.01-1.02.06-.03.12-.06.22-.11Z"/>
      <path class="cls-1" d="M32.35,84.85c-.08,0-.18-.01-.25-.02.1-.13.2-.25.32-.39-.23-.01-.42-.03-.65-.04.26-.09.46-.16.66-.23,0-.03-.01-.05-.02-.08-.09-.04-.18-.07-.28-.12.06-.05.11-.1.17-.12.1-.02.2-.03.3-.02.02,0,.03.14.03.21-.01.22-.03.45-.05.67-.02.29-.03.58-.07.87-.01.09-.15.17-.16.26-.05.26-.08.53-.08.79,0,.23.07.45.08.68,0,.08-.06.16-.11.28.01.01.05.07.1.14-.07.05-.15.09-.24.14.05.06.08.11.12.15,0,.01-.02.03-.03.04-.23.1-.33.46-.3.83.02.27-.04.54-.09.81-.01.06-.11.1-.14.13-.02-.19-.05-.36-.05-.54,0-.46,0-.91,0-1.37.04,0,.07,0,.11,0,.02.13.03.26.05.39.02,0,.05,0,.07,0,.02-.33.05-.65.07-.98-.03,0-.06-.01-.09-.02-.03.13-.07.26-.1.39-.02,0-.04,0-.06,0,0-.13,0-.25,0-.38,0-.03.02-.09.04-.09.51-.12.3-.58.4-.88.09-.27.05-.57.26-.81.02-.02,0-.07,0-.1,0-.2,0-.4,0-.62Z"/>
      <path class="cls-1" d="M33.32,71.79c.01-.24.02-.43.03-.63.03.02.07.05.12.09-.01-.17-.02-.34-.03-.52.07-.01.15-.02.23-.04,0,0,0-.02,0-.03-.09-.02-.17-.03-.26-.05,0-.03-.02-.05-.03-.08.14-.05.28-.11.47-.18-.11-.02-.18-.03-.25-.04.24-.14.28-.12.33.15,0,0,0,.02,0,.03.34.21.11.44.01.66-.02.04-.07.07-.08.12-.02.09-.08.22-.04.27.17.21.01.34-.07.46-.18-.09-.34-.17-.44-.22Z"/>
      <path class="cls-1" d="M32.77,74.34c.11-.22.22-.44.33-.66-.02-.01-.04-.02-.06-.03-.08.04-.16.08-.23.12l-.02-.06c.1-.15.21-.3.28-.46.07-.15.2-.32-.08-.5.15,0,.23-.01.39-.02-.39-.24-.31-.54-.22-.81.19.14.39.28.59.43-.14.03-.27.05-.46.09.07.11.12.19.17.27-.02,0-.04-.01-.05-.02-.08.61-.16,1.23-.24,1.86-.13-.07-.25-.12-.41-.2Z"/>
      <path class="cls-1" d="M27.79,98.1c-.11-.12-.19-.22-.28-.31.09-.13.18-.26.27-.39-.02-.02-.07-.06-.12-.1,0-.02,0-.05,0-.07.1,0,.21-.03.31,0,.03.01,0,.17.03.25.06.25-.19.5,0,.76.02.03-.04.12-.06.18-.03.06-.06.12-.08.18-.03.07-.03.2-.07.22-.08.03-.2.01-.27-.03-.04-.02-.01-.15,0-.23,0-.03.04-.08.03-.09-.24-.28.03-.29.24-.37Z"/>
      <path class="cls-1" d="M32.51,79.15c.07-.22.13-.41.2-.62.02,0,.09-.01.16,0,.11.03.22.08.33.12-.07.07-.14.15-.23.24.03.02.09.06.15.1,0,.02,0,.04,0,.06-.22.03-.43.06-.61.09Z"/>
      <path class="cls-1" d="M54.33,83.01c.26.43.52.85.78,1.28-.04.02-.07.05-.11.07-.27-.42-.54-.84-.82-1.26l.14-.09Z"/>
      <path class="cls-1" d="M20.13,75.53c.1-.05.21-.11.28-.14-.08-.14-.14-.24-.2-.34.13,0,.26,0,.42,0-.11.26-.2.49-.3.73-.03,0-.05.01-.08.02-.04-.09-.08-.17-.12-.26Z"/>
      <path class="cls-1" d="M31.71,90.13c.31.31,0,.62.05.91-.11-.14-.22-.26-.06-.47.07-.08.01-.27.01-.44Z"/>
      <path class="cls-1" d="M32.9,75.72l.27.14s-.07.07-.1.1c-.07-.08-.2-.15-.21-.23,0-.1.06-.3.13-.31.26-.04.1.23.2.34l-.22-.11-.07.07Z"/>
      <path class="cls-1" d="M56.4,94.83c.05.2.1.4.16.6-.03,0-.05.02-.08.02-.07-.2-.14-.39-.2-.59.04-.01.09-.03.13-.04Z"/>
      <path class="cls-1" d="M32.64,77.6c.25.03.49.06.74.09,0,0,0,0,0,.01h-.74s0-.07,0-.11Z"/>
    </g>
  </g>
</svg>