<?xml version="1.0" encoding="UTF-8"?>
<svg id="Layer_2" data-name="Layer 2" xmlns="http://www.w3.org/2000/svg" viewBox="0 0 68.82 97.15">
  <defs>
    <style>
      .cls-1 {
        fill: #000;
        stroke-width: 0px;
      }
    </style>
  </defs>
  <g id="illustrations">
    <g>
      <path class="cls-1" d="M68.76,41.72c.03-.14,0-.3-.03-.45-.06-.23-.1-.44.02-.64-.06-.1-.16-.19-.17-.3-.04-.29-.08-.57-.34-.77-.02-.02-.01-.08-.02-.13-.02-.09-.03-.18-.06-.26-.04-.13-.08-.27-.16-.38-.2-.29-.07-.73-.44-.93-.02-.01-.02-.07-.04-.11-.08-.22-.12-.47-.25-.67-.24-.36-.54-.69-.81-1.04-.01-.02-.04-.02-.06-.03-.16-.09-.35-.16-.48-.29-.22-.21-.33-.54-.66-.66-.05-.02-.09-.08-.12-.13-.12-.16-.23-.33-.34-.49-.02-.02-.06-.06-.06-.06-.18.15-.19-.05-.23-.12-.28-.4-.73-.49-1.14-.58-.3-.06-.63.05-.95.08-.35.02-.7.08-1.04.02-.15-.03-.26-.05-.39.02-.02.01-.07-.01-.12-.03.03-.04.05-.06.08-.09,0,0,0,0-.01-.01-.33-.09-.66-.15-.88.03-.17-.07-.29-.12-.43-.18v.28c-.16-.07-.3-.14-.49-.23.25.37.21.47-.16.6-.02,0-.04.02-.06.03-.15.08-.32.16-.46.26-.16.11-.3.24-.44.37-.11.12-.31.22-.15.42-.09.04-.2.06-.25.12-.42.61-.84,1.23-1.24,1.83-.05-.06-.12-.16-.18-.25.04,0,.13-.06-.04-.16-.2-.12-.27-.34-.19-.48.11-.19.2-.4.3-.59.2-.41.22-.9.64-1.22.4-.31.77-.65,1.27-.79.18-.05.37-.09.62-.15-.08-.04-.1-.06-.12-.06-.54-.08-1.03.12-1.51.32-.13.05-.25.14-.38.18-.23.07-.46.13-.69.19-.01,0-.02.02-.03.03-.15.14-.3.28-.46.43-.04-.25-.07-.46-.11-.68.05.01.09.02.11.03-.08-.24-.15-.47-.22-.7-.03-.11-.1-.25-.06-.34.1-.31-.14-.52-.21-.76-.07-.26-.06-.57-.28-.77,0,0-.02-.03-.01-.04.06-.32-.23-.54-.21-.87.01-.19-.16-.4-.25-.6-.14-.29-.32-.56-.42-.86-.17-.55-.33-1.11-.16-1.69,0-.02,0-.07-.03-.08-.07-.04-.17-.11-.21-.09-.06.04-.11.14-.12.21-.09.56-.12,1.11-.07,1.68.02.23-.03.47.02.69.1.39.17.78.22,1.18.07.5.22.99.33,1.49.01.05,0,.11.01.15.1.27.21.54.32.81.04.1.04.23.11.29.29.25.3.6.34.92.02.21.09.38.16.57.1.28.18.58.19.87,0,.24-.12.49-.18.73-.03.13-.02.27-.03.4h.07c-.12.17-.24.32-.38.49-.39-.43-.66-.94-.88-1.49h1.17v-.06c-.29-.12-.59-.13-.9-.06-.15.04-.31.03-.38-.13-.13-.31-.26-.62-.36-.94-.09-.28-.1-.58-.21-.85-.28-.73-.21-1.5-.26-2.25-.03-.44.11-.9.16-1.35.04-.33.05-.66.08-.98-.03,0-.06,0-.1,0-.04.52-.07,1.03-.11,1.59-.2-.84-.09-1.64-.05-2.45.04-.79.11-1.59.16-2.38.03,0,.07-.01.1-.02.04.09.08.18.13.28.07-.08.13-.14.2-.22-.12-.08-.21-.14-.32-.21.15-.05.26-.08.38-.12.21.28.04.62.12.94.11-.02.2-.03.26-.04.03-.21.06-.39.06-.57,0-.14-.02-.29-.06-.43-.03-.08-.15-.13-.17-.21-.03-.15,0-.31,0-.48.12.05.19.08.25.11.01-.2.04-.36.03-.52-.04-1.02-.03-2.04.09-3.06,0-.07-.02-.17-.07-.21-.08-.09-.2-.14-.3-.22.2-.21.28,0,.39.09l.06-.04c-.03-.08-.06-.16-.09-.24.19-.11.21-.35.21-.55,0-.33.04-.63.18-.93.06-.13.01-.3.04-.45.11-.56.32-1.09.57-1.61.04-.09.03-.22,0-.32-.09-.22-.16-.43-.02-.66.09.01.17.02.25.03.01-.02.03-.04.04-.06-.08-.07-.16-.13-.27-.22.09-.23.21-.48.27-.74.07-.27.44-.46.26-.81,0-.01.01-.05.02-.06.15-.19.3-.38.46-.59-.03,0-.08-.01-.12-.03-.06-.02-.12-.04-.17-.06.03-.07.04-.14.09-.2.07-.08.17-.13.24-.21.03-.03.06-.12.04-.15-.14-.18-.11-.33.03-.5.07-.08.15-.2,0-.3-.16-.1-.23.02-.28.13-.14.32-.28.65-.41.98-.16.42-.3.85-.46,1.28-.27.72-.46,1.45-.44,2.23,0,.08.06.16.09.25-.26.58-.54,1.19-.83,1.83.09.04.19.09.33.16-.34.38-.48.83-.54,1.33-.04-.01-.09-.02-.13-.04.05-.38.1-.75.16-1.13h.36c-.05-.09-.09-.14-.12-.2-.06.04-.11.09-.22.17.02-.35,0-.65.05-.95.22-1.11.47-2.21.7-3.32.03-.15.05-.29.21-.38.08-.04.11-.16.16-.25.05-.1.1-.2.15-.3.04-.05.03-.12.04-.19.08-.3.17-.6.26-.89.14-.48.3-.96.44-1.43.16-.51.31-1.01.46-1.52.03-.09.14-.2.12-.26-.09-.24.08-.39.15-.58.06-.17.14-.33.2-.49.2-.53.39-1.06.6-1.59.3-.74.6-1.48.91-2.22.23-.55.46-1.1.69-1.65.24-.56.49-1.12.76-1.67.14-.28.26-.58.58-.72h0c.14-.12.32-.23.41-.39.16-.28.27-.6.4-.9-.22-.11-.33.02-.43.14-.36.44-.71.9-1.07,1.34-.35.43-.73.83-1.05,1.27-.31.42-.56.89-.83,1.33-.01.02-.01.05-.02.08-.01.07,0,.17-.04.19-.27.16-.23.45-.34.68.02,0,.04.02.06.03.06-.13.12-.26.19-.41.01,0,.07.02.15.03-.06.14-.1.26-.16.37-.21.37-.43.73-.64,1.1-.14.24-.26.48-.39.72-.05.09-.12.18-.14.28-.05.19-.15.23-.33.17-.05-.02-.11-.02-.23-.03.4.4-.1.51-.12.77.12-.15.25-.3.39-.47,0,.06.01.07,0,.09-.21.46-.41.92-.64,1.37-.06.11-.07.27-.15.33-.11.1-.16.2-.15.33.03.35-.4.49-.38.84,0,.1-.14.21-.17.33-.03.12,0,.26,0,.41-.22.06-.13.29-.17.45-.12.48-.19.51-.54.22-.3-.02-.53.24-.83.08-.02,0-.05,0-.06.01-.25.16-.5.34-.77.48-.42.22-.78.53-1.28.61-.27.04-.53.17-.62.35-.23.08-.38.13-.53.19-.02,0-.05.03-.06.02-.28-.09-.39.19-.6.26-.03.01-.05.15-.03.21.01.04.12.07.18.07.13-.02.25-.07.37-.09.18-.03.37-.02.54-.08.68-.22,1.34-.46,2.02-.68.19-.06.41-.14.58-.1.21.06.4.12.62.07.1-.02.21,0,.3,0,.02.14.04.27.06.41-.2.1-.02.27-.05.41-.05.06-.13.15-.11.18.11.16,0,.26-.06.37-.02.05-.08.1-.07.14.11.27-.12.47-.13.72-.01.22-.13.44-.2.66-.02.05-.02.11-.02.16,0,.13,0,.26-.02.39-.03.22-.11.45.12.65-.37.11-.19.4-.22.63-.19.02-.2.13-.2.3,0,.39.13.82-.21,1.16.3.28-.05.24-.15.3.07.15.13.29.2.43-.06.04-.11.07-.16.1.34.29-.08.48-.1.74.11-.03.19-.05.3-.08-.11.14-.25.24-.24.33.01.1.15.18.27.31-.04.08-.12.21-.19.35-.03-.02-.05-.03-.08-.05.07-.09.14-.18.2-.27-.01-.02-.02-.04-.04-.06-.08.03-.19.04-.24.1-.05.06-.06.17-.04.25.04.19.07.38-.08.53-.26.25-.52.51-.81.73-.13.1-.32.13-.49.14-.12,0-.2-.01-.26.14-.05.13-.17.22-.26.33,0-.03-.01-.07-.02-.1-.07-.04-.17-.12-.2-.11-.1.07-.25.13-.14.3.03.04.04.09.06.14.1.27-.08.41-.23.57-.82.88-1.34,1.95-1.89,3-.37.71-.67,1.45-1,2.17-.25.55-.51,1.09-.78,1.63-.1.2-.3.35-.37.55-.18.51-.54.78-1.03.9-.11.03-.26-.01-.34.05-.21.16-.34.04-.49-.09-.08.07-.17.14-.24.21-.1-.1-.17-.18-.27-.29-.1.25-.2.46-.25.67-.14.54-.27.59-.61.59-.06,0-.12.03-.18.04-.23.05-.46.11-.69.14-.12.02-.24-.01-.36,0-.27.02-.53.04-.8.06-.04,0-.09-.01-.14-.02-.24-.06-.47-.13-.71-.17-.3-.06-.53-.2-.67-.48-.04-.08-.09-.15-.16-.26-.04.09-.06.14-.08.19-.13.34-.27.68-.39,1.03-.02.06.05.2.11.21.37.12.75.25,1.13.33.41.08.81.3,1.25.11.02,0,.04.01.06.02.12.03.25.07.37.07.25,0,.51-.01.76-.06.14-.03.26-.13.39-.2.05-.02.09-.06.14-.08.28-.1.56-.2.87-.31v.28c.08-.12.14-.22.19-.31l.09.08c0,.05-.02.11-.02.16.05-.01.08-.02.16-.04-.08.14-.14.26-.2.37.1-.11.19-.25.37-.21-.14.23-.28.45-.4.67-.09.18-.22.21-.34.08.09-.11.18-.21.27-.32-.07.06-.15.12-.21.19-.17.18-.35.36-.48.57-.15.26-.25.56-.37.85.02.04.06.1.1.16-.14,0-.23-.02-.29,0-.08.03-.15.1-.22.15-.17.14-.38.26-.48.45-.13.24-.31.34-.54.42-.09.03-.15.12-.22.19-.13.14-.26.29-.39.42-.02.03-.08.06-.1.05-.22-.07-.3.14-.45.21-.17.08-.27.48-.57.17-.01-.01-.1.04-.14.07-.03.03-.05.08-.08.14.05,0,.08,0,.11-.01-.06.08-.15.14-.21.12-.14-.04-.19-.01-.28.11-.08.12-.24.21-.38.08-.15.11-.14.45-.48.27-.02.02-.06.05-.09.08-.02.01-.03.03-.04.05.12.14.08.22-.19.35-.03-.05-.05-.1-.09-.17-.09.07-.18.12-.25.18-.05.04-.06.13-.11.16-.14.07-.28.22-.47,0,.03.11.04.16.05.21-.06,0-.13.02-.19.01-.2-.03-.19-.03-.24.16,0,.04-.1.06-.16.07-.04,0-.09-.04-.11-.05-.04.08-.05.16-.09.2-.11.1-.2.02-.32-.02-.08-.02-.19.1-.29.15,0,0-.01-.02-.02-.01-.09.02-.19.05-.29.08.03.07.06.13.12.25-.18.02-.33.04-.45.05-.08.09-.15.23-.25.26-.11.04-.26-.02-.4-.03-.01.07-.03.14-.05.22-.24.03-.53-.17-.68.16-.06-.03-.11-.06-.19-.11.04.12.07.19.11.31-.34-.15-.41.17-.65.28.05-.15.09-.26.13-.37-.25.31-.54.54-.93.65.05.07.08.12.13.18-.22.13-.43.26-.65.39-.02-.07-.03-.1-.05-.16-.15.12-.3.23-.43.35-.18.16-.37.31-.52.5-.29.34-.54.7-.82,1.04-.09.1-.23.15-.39.25-.03.14-.07.35-.13.6-.01,0-.07.03-.14.05.01.05.02.09.03.12,0,.03,0,.07,0,.1-.07-.02-.13-.07-.17-.05-.21.06-.35-.04-.32-.26.02-.17.11-.35-.05-.5-.01-.01,0-.07.01-.09.3-.2.12-.52.19-.78.08-.28-.1-.59.05-.87,0,0-.02-.02-.04-.04-.16.06-.33.08-.43-.11-.06-.12-.12-.23-.18-.36.02-.02.07-.09.11-.16-.09.03-.18.06-.32.1-.05-.05-.21-.15-.2-.22.04-.22-.12-.28-.24-.37-.04-.03-.09-.05-.13-.09-.11-.11-.2-.25-.33-.33-.18-.12-.38-.2-.57-.29-.2.18-.2.21-.05.4.3.38.6.76.9,1.14.18.23.31.47.21.79-.03.09,0,.22.03.32.07.22.03.4-.15.48.07.14.13.27.2.4l-.05.03s-.07-.04-.09-.06c-.04.11-.08.21-.12.31-.09-.27-.12-.53-.16-.8,0-.04-.03-.07-.05-.1-.15-.22-.34-.43-.45-.67-.16-.37-.27-.76-.4-1.14-.03-.08-.04-.17-.06-.25-.03.26.02.52,0,.77-.03.38.04.72.21,1.05.11.21.18.45.26.68.09.26.18.53.25.79.05.19.08.38.12.57-.02,0-.04.02-.05.03-.11-.16-.21-.32-.33-.5-.05.09-.08.17-.13.26-.11-.1-.23-.17-.29-.27-.07-.13-.09-.29-.13-.44-.03-.14-.07-.25-.25-.19-.05-.63-.08-.55-.3-.51-.03-.17-.12-.21-.28-.16-.05.02-.13,0-.18-.02-.08-.05-.15-.13-.18-.16-.15.04-.24.06-.33.09-.01-.13-.02-.23-.03-.35-.28.19-.37-.13-.57-.17-.02.04-.04.08-.06.12-.16-.11-.3-.23-.45-.31-.33-.17-.68-.32-1.01-.49-.22-.11-.42-.28-.64-.36-.29-.1-.6-.14-.9-.18-.08-.01-.17.04-.26.06.05.08.09.19.17.24.24.16.5.3.76.44.07.04.13.09.2.12.29.14.58.27.86.43.5.29.99.6,1.5.91-.06.04-.11.08-.16.12,0,.02,0,.03,0,.05h.31c.11.16.2.33.33.47.11.12.26.2.37.32.09.1.15.22.2.34.05.11.05.3.13.35.35.19.46.57.72.83.04.04.05.12.07.18-.17.07-.31.14-.44.2.09.09.16.16.22.22-.16.09-.29.16-.41.23-.3.18-.59.39-.91.54-.35.17-.72.28-1.08.42-.2.07-.39.16-.59.21-.24.06-.48.09-.72.13-.02,0-.03.04-.05.05-.16.07-.32.18-.49.2-.24.03-.5,0-.75,0-.02,0-.04,0-.05,0-.2.17-.42.14-.67.12-.32-.02-.63,0-.94-.13-.43-.17-.88-.28-1.32-.42-.01,0-.03-.01-.04,0-.22.08-.45.17-.74.28.23.21.41.46.66.56.38.16.71.45,1.15.47.44.02.87.14,1.3.14.31,0,.62-.11.93-.18.19-.04.38-.08.59-.12.13.11.38.15.45.05.11-.16.38-.36.56-.39.66-.09,1.31-.18,1.94-.42.12-.05.24-.13.36-.14.14-.01.25-.01.3-.17.01-.04.12-.06.18-.06.22.03.41-.02.59-.12.14-.08.29-.15.44-.23.05.27.08.5.13.77.1-.09.17-.16.24-.2.1-.05.22-.07.23.08.03.34.09.69-.12.99.05.05.1.09.14.13-.09.15-.17.29-.25.43-.01.02-.01.06,0,.09.04.24,0,.46-.18.65-.08.09-.06.18.09.18.05,0,.11,0,.23,0-.08.2-.13.39-.22.56-.1.19-.21.36-.06.54-.13.07-.24.13-.37.19.19.25.05.41-.13.55.04.07.08.13.11.18-.1.14-.32.24-.08.42-.33.1-.34.39-.43.6.05.1.1.18.15.27-.11.03-.18.06-.3.09.1.08.17.13.27.21.06-.26.11-.49.17-.73.16-.03.15-.2.2-.35.04-.15.12-.28.18-.42-.04-.05-.08-.11-.12-.16.01,0,.02-.02.03-.03.06.04.13.09.23.15v-.43c.13-.09.32-.69.27-.77.07-.1.15-.18.18-.27.11-.27.2-.56.32-.83.04-.09.13-.15.2-.23.04.12.1.24.13.36,0,.05-.05.11-.09.18.11.06.22.12.33.17-.03.13-.06.23-.09.36.42,0,.27.37.3.55.03.19-.16.42-.25.63.02,0,.08-.01.15-.02-.04.1-.08.19-.12.29.19.12.19.3.2.5,0,.24.09.48.14.72.04.21.29.42.06.56-.26.06-.45.06-.6.14-.22.12-.39.35-.61.42-.24.08-.47.16-.71.26-.11.05-.3-.03-.43-.1-.28-.15-.57-.07-.81.04-.15.07-.27.07-.34-.01-.14-.18-.32.06-.45-.06-.1.13-.16.03-.24-.03-.09-.06-.2-.08-.3-.11-.22-.05-.49.07-.66-.18-.01-.02-.06-.02-.08,0-.13.08-.22.05-.32-.06-.02-.03-.09-.05-.13-.03-.19.07-.31-.03-.45-.13-.11-.08-.23-.19-.35-.2-.22-.02-.43,0-.51-.27,0-.02-.05-.05-.08-.05-.24.04-.4-.08-.53-.26-.2-.28-.65-.25-.78-.62,0-.01-.04-.02-.06-.03-.12-.08-.25-.15-.36-.23-.12-.09-.24-.21-.35-.31-.11-.37-.14-.39-.54-.46-.24-.32-.43-.6-.64-.85-.15-.18-.4-.3-.49-.5-.2-.42-.5-.8-.55-1.31-.08-.68-.27-1.35-.4-2.03-.03-.19-.01-.38-.02-.57-.01-.2-.04-.41-.06-.61-.01-.18.01-.37,0-.55-.05-.46-.1-.91-.08-1.37.02-.41,0-.83-.02-1.24,0-.04-.04-.12-.07-.12-.04,0-.13.04-.13.07,0,.11,0,.23.02.34,0,.03.02.07.05.13-.09-.05-.14-.08-.21-.13-.01.07-.03.11-.03.15-.02.39,0,.79-.05,1.18-.05.4-.1.79-.05,1.19,0,.04,0,.08,0,.12-.06.34-.07.68.04,1.03.03.1-.01.22-.02.34,0,.07-.02.14,0,.21.04.21.1.41.12.61.02.14-.07.34,0,.43.21.27-.11.65.21.89,0,0-.02.02-.02.04-.07.55.11,1.04.41,1.47.29.41.62.8.95,1.2.07.09.17.15.26.23.13.11.28.21.4.32.31.28.6.6.94.86.22.16.48.26.69.45.23.2.43.47.78.5.13.34.53.23.74.44.03.03.13.02.19,0,.06,0,.11-.04.17-.06.03.29.14.35.43.38.22.03.43.13.65.2.12.04.24.07.36.09.09.01.18-.01.26.01.3.09.59.27.89.28.28.01.51.11.77.15.61.11,1.22.13,1.81-.07.39-.13.75-.34,1.14-.5.15-.07.31-.1.38-.29.01-.04.1-.05.16-.07.41-.18.84-.33,1.24-.55.32-.17.58-.45.9-.62.32-.17.6-.37.85-.63.33-.34.37-.34.78-.15.03.01.07.05.08.04.07-.04.19-.1.18-.14-.03-.23-.03-.47-.24-.64-.04-.04-.06-.14-.05-.21.01-.1.04-.21.09-.29.09-.15.2-.28.31-.42.01-.02.06,0,.09-.02.07-.03.15-.05.2-.1.14-.15.28-.31.41-.48.18-.24.33-.5.5-.74-.21.18-.38.4-.56.6-.22.24-.42.49-.68.68-.21.15-.51.18-.73.32-.41.24-.74,0-.95-.33-.05-.08-.12-.14-.19-.23,0-.05.02-.12.04-.21-.1,0-.18-.01-.26-.02.02-.01.03-.03.05-.04-.06-.1-.11-.28-.17-.28-.27,0-.29-.23-.38-.38-.12-.21-.21-.45-.31-.68-.06-.14-.09-.28-.15-.46.21.05.38.03.34-.18-.06-.36-.11-.75-.27-1.06-.21-.39-.27-.8-.33-1.21-.02-.14.02-.31.08-.45.06-.17.27-.2.4-.08.12.11.25.22.39.31.45.3.91.58,1.34.86,0-.03-.02-.09-.04-.19.13.07.21.12.31.15.05.02.16.01.17,0,.07-.28.27-.13.36-.07.15.09.24.1.36-.05.1.09.2.17.32.27.05-.18.09-.34.14-.51.07.03.13.05.21.08-.04-.3.18-.28.34-.32.43-.12.86-.22,1.32-.34,0,.09,0,.15-.01.21-.03.41-.07.81-.08,1.22,0,.16.12.33.11.49-.03.5-.1.99-.15,1.48-.04.38-.2.7-.39,1.02-.19.32-.37.65-.52.99-.23.5-.43,1.02-.66,1.55-.08-.16-.14-.29-.21-.43-.03,0-.05.01-.08.02-.02.07-.05.14-.05.21-.01.4-.11.76-.43,1.03-.05.04-.08.11-.12.17-.45.75-.88,1.51-1.36,2.24-.34.51-.74.99-1.11,1.48-.06.08-.12.21-.2.23-.42.13-.49.57-.77.82-.16.14-.27.35-.43.48-.33.26-.53.6-.72.95-.07.12-.2.2-.31.29-.17.12-.42.19-.5.36-.08.15-.12.23-.3.21-.04,0-.08.04-.12.06-.21.14-.43.29-.64.44-.02.01-.06.01-.11.02.04-.07.06-.11.09-.16-.46.34-.89.7-1.34,1.05-.09.07-.22.1-.34.16,0,.02-.05.13-.06.13-.19-.04-.3.12-.45.19-.06.03-.13.04-.19.07-.06.03-.12.07-.21.12,0,.02.02.08.03.14-.02.02-.03.04-.05.06-.1-.06-.19-.13-.3-.2-.01.08-.02.17-.04.26-.12-.04-.23-.08-.34-.11,0,.03.02.05.03.08-.19.13-.39.25-.58.38-.02-.02-.03-.04-.05-.06.04-.05.09-.09.13-.14l-.03-.06-.41.19c-.07.03-.18,0-.25.04-.24.16-.5.08-.75.07-.11,0-.24-.09-.3-.17-.17-.22-.22-.48-.26-.77-.07-.49-.23-.96-.36-1.43-.13-.44-.31-.85-.71-1.13-.07-.05-.13-.15-.13-.23,0-.21-.11-.33-.26-.44-.33-.24-.59-.52-.66-.95-.08-.49-.34-.91-.59-1.34-.25-.42-.5-.85-.74-1.27-.15-.27-.31-.38-.5-.37.05.06.14.14.19.24.09.2.26.35.26.62,0,.18.17.37.28.55.05.09.16.14.2.23.09.21.15.43.23.64.06.15.2.3.19.45,0,.28.09.48.28.67-.39.13-.76.26-1.14.36-.17.04-.33.04-.44.21-.02.03-.12,0-.19.02-.1.02-.25.01-.3.08-.1.15-.25.13-.39.17-.14.03-.28.07-.4.13-.19.09-.35.27-.6.21-.05-.01-.12.05-.18.09-.19.15-.34.35-.54.51-.43.35-.79.8-1.13,1.24-.21.27-.29.31-.53.08-.08-.07-.17-.12-.25-.19-.02.02-.04.05-.06.07.11.13.23.25.36.4-.12.08-.22.14-.34.22,0-.08.01-.12,0-.15-.15-.26-.15-.52-.05-.8.03-.07-.03-.19-.17-.13-.09.04-.19.07-.28.11-.05.04-.11.08-.21.16.14.31.3.66.46,1.01-.01.01-.03.03-.04.04-.14-.12-.33-.21-.43-.36-.37-.57-.6-1.2-.63-1.89-.02-.35,0-.71-.04-1.06-.02-.22-.06-.5-.19-.65-.2-.21-.26-.46-.36-.7-.13-.31-.1-.68-.4-.91,0,0,0-.03,0-.04.06-.08.14-.2.11-.25-.06-.08-.18-.11-.28-.17.02-.08.04-.17.06-.25-.15-.03-.27-.06-.46-.1.09-.06.13-.11.18-.11.06,0,.12.04.12.03.04-.19.11-.36.11-.53,0-.14.2-.29,0-.43-.17-.12-.37-.07-.53.12-.02.02-.03.04-.04.06-.07.15-.12.31-.2.45-.18.31-.07.6.09.86.1.16.2.3.26.49.11.39.26.76.22,1.18-.01.12.03.29.11.37.24.21.2.52.28.77.09.29-.14.64.14.92.02.02,0,.08.01.11.04.22.08.45.13.67.07.28.17.55.23.83.11.47.21.95.3,1.42.03.17.06.33.1.51-.1.07-.33-.08-.36.17-.07,0-.15-.01-.21,0-.4.11-.8.22-1.19.33-.64.19-1.28.24-1.94.15-.16-.02-.32,0-.55,0,.18.09.29.18.43.22.64.21,1.31.25,1.98.18.62-.07,1.23-.07,1.84.02.28.04.35.15.27.4-.02.05-.06.09-.09.13.14.16.29.28.37.45.11.25.28.5.21.81-.04.22.09.33.31.36.19.02.43.06.47.26.06.31.07.65.03.96-.08.6-.29,1.16-.63,1.66-.18.26-.4.49-.6.74-.12.15-.12.48.03.58.09.06.3.06.38,0,.33-.25.65-.52.94-.82.23-.24.41-.52.64-.81v.75s.05.02.08.02c.04-.07.09-.14.11-.21.1-.5.2-1,.3-1.5.01-.06.05-.11.1-.21.1.22.17.38.24.55.02-.24.08-.52-.02-.69-.16-.26-.17-.39.06-.61.13-.12.19-.11.3-.06.14.06.27.14.41.2.1.04.22.05.3.11.24.16.47.35.71.52.07.05.18.03.27.03.13,0,.27-.02.4-.03,0,.02,0,.04,0,.06-.04.04-.09.07-.16.13.58.24,1.13.35,1.69.06,0-.02,0-.04,0-.05-.15-.15-.2-.37-.49-.41-.2-.02-.39-.23-.6-.37-.01.1-.02.16-.03.24-.06-.03-.12-.03-.15-.06-.13-.16-.29-.25-.51-.27-.08,0-.15-.12-.22-.18-.09-.08-.16-.2-.26-.22-.66-.17-1.22-.48-1.62-1.05-.04-.06-.15-.06-.22-.1-.14-.08-.41-.06-.39-.27.03-.38.12-.76.21-1.13.02-.07.16-.17.24-.17.75-.01,1.49-.02,2.24,0,.41,0,.82.08,1.22.07.66-.03,1.34,0,1.98-.22.24-.08.53,0,.66-.34.2.25.38.28.6.07.1-.09.23-.14.36-.22-.01.07-.02.12-.03.18,0,.17-.09.41,0,.49.17.17.23.36.27.57.02.17.18.38-.07.53-.03-.08-.05-.15-.08-.23q-.15.13-.11.43c.05.33,0,.45-.27.6-.06.03-.09.12-.14.18-.1.13-.2.25-.3.37-.03.04-.08.07-.12.11-.16.22-.28.48-.49.65-.18.15-.28.37-.52.48-.16.08-.22.37-.32.55-.07.04-.17.07-.23.13-.25.23-.5.48-.75.72-.06.06-.11.13-.17.19-.13.15-.27.31-.4.46-.05.06-.1.12-.14.19,0,0-.03,0-.05.01,0-.05-.02-.09-.02-.13-.02-.02-.05-.03-.07-.05-.02.05-.04.11-.07.15-.39.48-.78.96-1.18,1.44-.35.42-.69.84-1.05,1.24-.07.08-.21.11-.35.18.08.2-.01.36-.27.44-.03,0-.04.06-.06.09-.14.27-.28.55-.42.82-.04.02-.07.04-.11.06l-.29-.45s-.05.04-.08.06c.04.09.07.23.14.25.17.05.13.17.12.26,0,.09-.07.17-.11.25-.08-.17-.12-.32-.22-.4-.1-.08-.26-.09-.39-.13,0,.03-.02.05-.03.08.12.04.24.08.34.12-.07.08-.15.17-.2.22.12.13.26.22.26.3,0,.11-.11.22-.19.32-.04.05-.14.07-.16.12-.08.23-.1.46-.42.54-.13.03-.23.29-.3.46-.07.17-.09.36-.13.54-.05.22-.07.45-.25.63-.09.09-.15.23-.19.35-.08.25-.31.45-.28.75,0,.03-.09.05-.13.09-.06.07-.13.14-.15.23-.08.47-.24.93-.17,1.42,0,.03,0,.06-.02.09-.05.16,0,.3.16.33.13.02.27-.02.4-.06.06-.02.11-.1.17-.15.18-.19.36-.37.52-.56.04-.05.04-.15.02-.21-.12-.33-.1-.66.03-.98.13-.3.27-.6.43-.89.07-.14.2-.25.3-.37.02.01.03.02.05.03-.17.77-.05,1.54,0,2.31,0,.11-.01.23-.02.35,0,.07,0,.13,0,.2.07,0,.15,0,.22-.03.14-.05.26-.12.4-.16.18-.05.38-.05.54-.13.38-.19.73-.42,1.1-.63.05-.03.1-.06.15-.06.35,0,.59-.29.94-.32.24-.02.46-.09.7.04.02-.06.02-.12.05-.16.03-.05.08-.1.12-.14.03.05.08.11.09.17.01.16,0,.32,0,.47.02,0,.03,0,.05,0l.17-.63h.08c.06.34.34.16.5.21-.07.09-.21.24-.19.26.11.13.26.24.37.34-.1.08-.25.19-.41.32-.05-.12-.11-.26-.18-.42-.15.22-.29.39-.39.57-.09.16-.16.34-.26.57-.59.27-1.97,1.96-2.05,2.56.13.04.26.07.39.11l-.02-.06c.14-.1.28-.28.42-.27.26.01.39-.14.55-.26.24-.18.49-.37.68-.61.18-.24.38-.36.68-.37.04,0,.09-.07.11-.11.11-.21.23-.27.44-.2.03-.09.03-.22.09-.27.34-.27.65-.62,1.19-.64-.06.09-.1.19-.17.24-.1.08-.22.14-.33.21-.19.12-.16.43-.43.49h.25c-.11.15-.23.28-.31.42-.06.1-.05.23-.11.32-.1.17-.25.3-.35.47-.07.12-.12.26-.12.39,0,.09.08.18.15.25.02.02.13-.05.19-.09.09-.06.18-.13.28-.2.04.01.1.03.16.05,0-.11,0-.2.02-.35.09.09.13.14.18.19.02-.01.04-.01.04-.02.16-.31.42-.43.75-.43.15,0,.2-.07.13-.21-.06-.12-.13-.25-.19-.37,0,0,.02-.02.03-.02.06.04.12.08.19.13.11-.11.41-.08.26-.34.13,0,.31.07.38,0,.18-.16.25-.03.34.07.04.04.07.1.1.16.21.41.47.81.6,1.24.07.25.17.32.37.38.05.01.07.13.11.2.02.08.1.14.13.22.08.21.13.43.19.64.11.38.31.68.67.79-.09-.3-.19-.61-.27-.92-.09-.34-.11-.72-.25-1.04-.25-.56-.57-1.08-.86-1.62-.22-.42-.44-.84-.67-1.28.12-.02.2-.03.3-.04-.04-.05-.07-.08-.08-.11-.02-.04-.03-.08-.04-.11.02-.01.04-.02.06-.04.26.64.71,1.13,1.24,1.61,0,0,.08-.01.16-.03-.03.06-.05.11-.07.17.35.1.57.32.77.61.16.25.31.55.64.65.02,0,.04.04.06.07.16.2.31.41.47.61.12.15.26.3.39.45.08.09.16.19.24.29.03,0,.05-.02.08-.03,0-.1,0-.21-.03-.29-.05-.13-.16-.23-.21-.36-.05-.12-.05-.27-.11-.38-.11-.18-.27-.34-.39-.52-.11-.16-.27-.34-.27-.51,0-.26-.16-.34-.3-.47-.2-.2-.48-.27-.64-.55-.13-.23-.45-.35-.69-.52-.09-.07-.18-.13-.27-.2.01-.02.02-.03.03-.05l.25.11.03-.07c-.22-.38-.7-.42-1.05-.71.2.04.35.07.52.1-.16-.23.15-.05.14-.14-.12-.25-.3-.31-.53-.25.14-.07.28-.13.42-.2-.05-.03-.09-.06-.13-.09,0-.03,0-.05,0-.08.12-.02.24-.05.36-.07.12-.02.23-.04.38-.06.02.03.08.11.16.22-.02-.19-.03-.32-.05-.45.14-.12.38.11.49-.15.09-.2.18-.38,0-.58-.06.02-.12.03-.22.06.02-.12.04-.2.06-.31-.06.03-.1.05-.17.09.06-.18.09-.34.16-.48.03-.06.13-.09.2-.13.27-.17.51-.41.87-.41.09,0,.18-.1.27-.16.12-.09.23-.22.36-.27.16-.07.35-.08.52-.11.2-.04.4-.09.61-.13v.02c.11-.03.21-.06.34-.1.36.11.76.24,1.22.38-.08-.15-.13-.24-.16-.29.07-.12.13-.21.17-.32.01-.03-.04-.09-.08-.15-.04.06-.07.1-.09.13-.12-.07-.24-.14-.36-.19-.14-.05-.29-.09-.43-.12-.27-.05-.55-.17-.8-.12-.19.04-.33,0-.46-.07-.16-.08-.28-.07-.43.01-.21.12-.44.21-.66.31-.17.08-.33.18-.51.24-.2.07-.41.12-.61.17-.04.01-.09-.02-.14-.03,0,.02,0,.03,0,.05.08.01.17.03.24.04-.29.23-.55.5-.98.51.07.2-.04.26-.2.27-.03,0-.06,0-.08.02-.12.11-.23.22-.36.34-.06-.1-.09-.14-.11-.19-.02,0-.05,0-.07,0,0,.1-.02.2-.03.3-.06-.01-.12-.03-.23-.05.04.12.07.21.11.32-.15-.03-.28-.07-.41-.09-.14-.02-.27-.04-.46-.06.08.12.15.18.15.22-.05.24-.03.44.22.57-.33.2-.33.35-.05.57.06.05.1.12.14.18-.02.02-.04.03-.06.05-.28-.2-.58-.38-.73-.71-.04-.09-.1-.21-.07-.29.09-.29.21-.56.3-.79-.1-.13-.22-.25-.3-.39-.17-.28.31-.23.24-.47-.05-.01-.11-.02-.17-.04-.25-.07-.28-.13-.2-.38.01-.04-.01-.1-.02-.15-.04-.15-.07-.29-.12-.44-.02-.08-.05-.16-.08-.23.03-.06.09-.12.09-.17.01-.36,0-.73.02-1.09.02-.24-.06-.56.34-.6.02,0,.03-.04.05-.04.16-.06.32-.14.48-.16.21-.03.43,0,.65,0,.18,0,.37,0,.55,0,.42,0,.83,0,1.25,0,.05.16.16.26.35.2.16-.05.22-.24.16-.4-.02-.07-.01-.15-.02-.26-.1.06-.21.13-.32.19-.01-.05-.03-.12-.05-.2-.14.06-.27.11-.4.16-.07-.16-.12-.35-.36-.21-.03.02-.12-.05-.18-.08-.1-.04-.19-.12-.29-.12-.38-.03-.77-.03-1.15-.07-.19-.02-.34-.18-.49-.26-.39-.19.02-.34-.02-.5-.02-.08.03-.17.04-.25.03-.18.05-.36.1-.53.12-.41.25-.82.39-1.22.27-.74.51-1.49.83-2.21.31-.7.72-1.35,1.07-2.03.07-.13.07-.32.3-.17-.03-.1-.09-.24-.07-.25.27-.18.17-.37.04-.57-.01-.02,0-.06,0-.09-.02-.12-.04-.24-.06-.39.01-.06.02-.17.05-.27.02-.07.03-.17.07-.2.2-.13.4-.25.61-.36.14-.07.29-.12.43-.18.22-.09.45-.17.66-.28.59-.33,1.18-.68,1.77-1.03.2-.12.41-.24.6-.37.39-.27.78-.54,1.17-.82.28-.19.55-.39.83-.59.2-.14.39-.33.67-.2.13.06.26.11.4.17,0-.03.02-.07.03-.12.02-.07.05-.14.07-.2.07.05.16.09.19.16.17.38.26.77.17,1.19-.02.1-.02.22.01.32.1.3.24.58.33.88.08.26.25.54-.06.85-.2-.45-.4-.86-.34-1.35-.08.27-.13.53-.14.79-.03.55,0,1.1.28,1.59.19.33.45.62.65.95.12.2.36.38.29.63.07.04.16.06.19.12.21.39.57.6.95.78.21.1.33.26.41.44-.17,0-.33,0-.5,0-.17,0-.36.11-.48-.13-.03-.05-.17-.06-.25-.06-.18,0-.37.03-.55,0-.38-.06-.76-.19-1.14-.22-.49-.04-.96-.15-1.41-.36-.15-.07-.35-.09-.52-.08-.09,0-.23.09-.26.17-.04.1-.02.27.05.34.2.19.42.36.66.5.24.14.52.2.77.33.32.17.66.19,1.01.14.03,0,.07.01.11.02,0,.01,0,.03,0,.04-.06.01-.13.02-.19.04.02.05.04.1.07.18-.09-.01-.14-.02-.22-.03.25.33.52.08.76.13,0-.07,0-.12,0-.17.04.05.1.1.12.15.03.09.02.18.03.31-.2-.03-.41-.06-.62-.09-.16-.02-.32-.07-.48-.05-.28.04-.57.1-.84.2-.68.25-1.36.51-2.03.78-.15.06-.26.19-.42.31-.01-.08-.02-.12-.02-.17-.01-.38.06-.74.16-1.11.2-.69.34-1.4.51-2.1.12-.5.24-1,.41-1.49.14-.41.37-.79.53-1.18.22-.51.42-1.03.62-1.56.09-.23.19-.46.05-.67.07-.02.14-.03.2-.05,0-.03-.01-.07-.02-.1-.11.01-.24,0-.33.05-.04.02-.03.17-.04.27-.07-.04-.13-.07-.23-.13-.14.21-.32.4-.42.62-.17.37-.26.77-.44,1.14-.39.8-.47,1.68-.67,2.53-.1.44-.18.89-.27,1.34-.06.26-.14.52-.22.78-.05.15-.11.3-.16.45-.04.1-.09.2-.14.29-.2.42-.11.89-.17,1.33-.05.36-.18.55-.53.6-.52.08-1.04.14-1.56.22-.06,0-.12.05-.17.08.03.05.05.13.09.14.28.13.56.22.89.16.42-.08.85-.11,1.26-.17,0,.36.01.7,0,1.04-.03.5-.05.99.12,1.47.13.38.21.79.37,1.16.1.24.31.42.46.64.05.08.05.2.1.28.14.21.29.4.43.61.13.19.23.39.35.58.13.2.27.4.41.6.02.03.04.07.05.1.07.21.14.42.21.62.07.21.09.46.23.62.2.23.13.5.24.75.11.24.1.53.15.8.08.42.17.83.26,1.24.03.14.09.27.15.43-.11.13.03.28.07.44.02.09.07.2.03.26-.14.24-.05.42.06.55v.58c-.12.13-.11.22.07.28,0,.26-.27.47-.11.77.03.06,0,.17-.02.25-.03.13-.09.25-.11.38-.02.19.19.37,0,.56,0,0,0,.04,0,.04.12.11.03.23-.02.31-.13.18-.07.42-.21.61-.09.12-.11.31-.14.47-.02.12,0,.26-.03.38-.07.27-.16.53-.25.79-.06.17-.13.34-.21.5-.04.07-.14.1-.22.15.02.05.05.11.06.15-.06.06-.11.11-.15.16-.25.3-.51.6-.75.91-.05.06-.08.15-.12.22-.09.09-.24.14-.35.23-.14.12-.23.28-.38.4-.18.14-.34.35-.61.33-.03,0-.07.04-.11.06-.16.1-.31.21-.48.28-.43.17-.88.17-1.33.21-.41.04-.8.11-1.18-.11-.02-.01-.06-.01-.09-.02-.38-.05-.76-.09-1.13-.15-.14-.02-.28-.11-.41-.17-.35-.14-.69-.29-1.08-.45-.2.15-.35-.04-.53-.18-.23-.17-.46-.33-.77-.36-.19-.02-.38-.09-.57-.12-.3-.04-.51-.25-.77-.36-.1-.04-.22-.04-.31-.09-.28-.16-.55-.34-.83-.52-.41-.26-.79-.55-1.11-.93-.37-.44-.75-.86-.91-1.42-.14-.49-.33-.98-.38-1.48-.06-.69-.02-1.39,0-2.08,0-.23-.09-.46.01-.7.03-.06,0-.16-.02-.26-.08.05-.13.07-.21.11,0-.16.5-.28,0-.41.06-.24.12-.47.18-.69-.21.02-.44.57-.33.85-.07.02-.14.04-.21.06.09.3.07.44-.05.7-.03.07-.03.19,0,.26.06.13.09.23-.08.29-.05.02-.08.06-.13.1.09.1.16.18.24.27-.23.07-.35.16-.16.37.01.01.02.04.02.06-.05.18-.1.37-.14.55,0,.03-.02.07-.01.09.06.14.13.28.2.42.02.04.04.09.02.13-.1.24-.06.47.02.72.08.24.13.5.2.75.08.29.22.56.21.87,0,.06.06.13.1.18.1.13.21.26.32.4.03-.02.07-.04.11-.06.03.18.05.34.07.51.02.12.07.16.21.14.09-.01.23.06.3.13.08.08.12.21.19.33-.12.23-.05.35.22.39.1.01.2.08.27.15.1.11.17.25.26.36.04.05.09.11.15.12.14.03.28.04.43.07.03,0,.06.04.09.07.07.08.12.17.2.25.07.06.21.1.22.17.05.29.16.2.31.03.09.11.17.23.26.35.1-.22.19-.13.28-.05.21.19.38.45.72.45.1,0,.21.07.33.11.03-.03.08-.07.11-.1.09.12.14.26.24.31.21.1.45.14.67.22.3.11.59.24.89.35.1.03.27-.01.3.04.16.24.26.07.36-.03.17.06.32.12.47.18.11.04.25.06.34.13.14.11.24.13.33.02.11.03.2.06.29.07.04,0,.11-.03.12-.02.12.15.25.04.38.03.25-.03.51-.03.77-.04,0,0,.01.03.02.04.09.16.19.12.29.01.24.17.42.13.65-.05.16-.13.39-.17.57-.27.13-.07.35,0,.34-.26.06.02.11.05.17.08,0-.35.24-.28.47-.29-.14-.3.21-.28.27-.42.08-.02.19-.02.22-.06.11-.16.19-.33.31-.53.04.11.07.17.07.18.19-.06.35-.11.51-.16-.04-.29.03-.37.34-.39,0-.12-.18-.27.05-.37.02.04.03.08.05.13.09-.14.17-.26.25-.38l-.04-.03c-.06.03-.13.05-.19.08-.02-.01-.04-.03-.06-.04.08-.15.16-.3.25-.47.24.04-.01.23.08.32.05-.03.1-.06.17-.1-.09-.23-.21-.46.17-.52,0,0,.01-.1,0-.16-.02-.09-.05-.18-.08-.27.1-.02.19-.04.29-.07.05-.01.1-.03.12-.07.02-.02-.01-.11-.02-.11-.22-.02-.09-.16-.12-.29.11.06.18.11.27.17.06-.26.12-.51.19-.75-.11,0-.19-.01-.3-.02.05-.17.1-.31.14-.45.1-.02.2-.04.29-.06l-.03-.04c.06-.09.13-.17.19-.26-.06-.03-.12-.05-.18-.08-.2-.1-.21-.18-.03-.31.08-.06.16-.14.24-.21-.11-.19-.31-.38,0-.55.02,0,0-.06.01-.09.07-.19.15-.38.2-.58.05-.18.02-.23-.1-.3-.14-.08-.18-.17-.06-.32.07-.1.2-.24-.03-.33-.04-.02-.04-.11-.06-.16.02,0,.04-.02.06-.03.05.05.1.11.16.18.06-.19.12-.35.18-.53-.09.01-.15.02-.22.03.03-.09.05-.15.08-.23.05,0,.12,0,.22.02-.03-.04-.03-.06-.05-.07-.14-.15-.28,0-.42,0-.05,0-.1-.01-.15-.02.04-.04.07-.09.11-.12.06-.03.13-.05.19-.07-.02-.02-.03-.03-.05-.05.06-.08.11-.17.18-.27,0,0-.02,0-.04-.02-.25-.2-.25-.26-.07-.51.04-.05.03-.15.04-.23-.07.01-.14.03-.18.04-.02-.12-.04-.26-.06-.39.06.04.13.09.2.14.02-.02.04-.04.07-.07-.1-.12-.19-.24-.29-.35.06-.06.13-.14.21-.24-.26-.17-.37-.41-.29-.71,0-.03-.04-.07-.05-.1-.05-.18-.12-.37-.15-.55-.02-.15-.07-.2-.27-.06.1-.17.15-.25.24-.41-.16.06-.26.09-.4.15.06-.17.11-.32.18-.51-.11.11-.19.17-.26.24.1-.17.15-.31-.05-.43-.03-.02-.01-.11,0-.17,0,0,.05-.01.08-.02v.14c.14-.17.03-.47-.22-.63,0-.03,0-.06.03-.08.11-.12.16-.22-.04-.3-.03-.01-.04-.06-.07-.09-.16-.24-.19-.5-.13-.81.31.19.64.36.92.57.61.46,1.17.99,1.85,1.35.53.28,1.04.59,1.65.68.37.06.73.17,1.1.26,0,0,.02-.08.03-.16.26.11.5.38.71.09.16.11.29.24.44.28.16.05.35,0,.53,0,.39.03.79.09,1.18.1.62.01,1.23.12,1.85-.08.45-.15.93-.22,1.38-.32-.03-.06-.06-.12-.1-.19.07,0,.15-.02.22-.02.17.02.34.06.52.07.21.01.35.15.33.36.1-.04.19-.07.29-.1-.02-.06-.03-.12-.05-.18.02-.01.04-.02.06-.03.07.08.12.18.21.24.1.07.2.18.36.04-.08-.07-.15-.13-.23-.19,0-.02.02-.03.03-.05.1.04.19.07.34.13-.06-.19-.11-.35-.18-.56q.38.3.62.29c.04-.18.06-.35.29-.44.14-.06.21-.26.29-.42.09-.19.33-.32.51-.46.11-.09.32-.17.32-.25,0-.17.12-.17.2-.23.17-.14.47-.16.45-.48,0-.03.06-.07.09-.1.17-.17.37-.32.49-.52.12-.19.12-.44.26-.66.16-.26.2-.6.29-.91.01-.03.03-.07.03-.1,0-.02-.06-.03-.09-.04.03-.03.07-.06.09-.1.04-.08.08-.16.12-.25-.15-.03-.27-.05-.39-.08,0-.04-.01-.09,0-.1.23-.18-.06-.51.2-.68-.16-.29.13-.39.23-.58.12-.24.19-.5.28-.75,0,0-.01-.03-.02-.04-.09-.19.03-.31.16-.4.14-.09.16-.18.12-.33-.04-.18-.11-.38-.06-.55.06-.21,0-.34-.12-.48-.03-.03-.04-.08-.05-.12-.08-.3-.08-.6-.02-.89.03-.15-.01-.23-.12-.34-.08-.08-.11-.22-.14-.33-.02-.08,0-.16,0-.24-.01,0-.03-.01-.04-.02-.05.08-.11.16-.19.29-.16-.37-.31-.65-.16-1.02-.12.06-.17.09-.27.14.08-.12.13-.2.22-.33-.14.02-.21.03-.31.05-.07-.18-.13-.36-.2-.54.3-.09.31-.11.18-.37-.01-.02.01-.06,0-.08-.02-.07-.03-.16-.07-.22-.09-.15-.25-.27-.05-.46.05-.05.04-.15.06-.26-.1.05-.17.09-.29.15.36-.48.37-.52.05-.63.09-.07.16-.14.24-.19.15-.08.23-.17.12-.35-.02-.03,0-.12.02-.15.21-.22.06-.48.05-.71,0-.13-.08-.27-.15-.39-.09-.16-.24-.28-.17-.49.02-.05,0-.13-.03-.17-.15-.19-.31-.37-.46-.57-.17-.23-.38-.39-.69-.35-.02-.06-.03-.12-.07-.15-.39-.31-.78-.61-1.28-.73-.13-.03-.28-.13-.34-.24-.16-.29-.46-.4-.72-.53-.19-.1-.35-.19-.48-.36-.04-.05-.14-.06-.19-.11-.11-.09-.23-.17-.29-.29-.11-.2-.17-.43-.25-.65,0-.02-.01-.05-.02-.07-.02-.08-.03-.18-.07-.24-.22-.31-.46-.6-.67-.91-.06-.09-.08-.22-.15-.31-.33-.4-.27-.95-.58-1.37-.09-.13-.04-.37-.05-.58.29-.08.47-.32.68-.54.52-.54,1.07-1.06,1.62-1.57.11-.1.25-.15.44-.26,0,.68-.01,1.27,0,1.86,0,.33.04.67.1,1,.11.58.24,1.15.38,1.73.02.08.08.15.12.23.04-.05.07-.09.12-.15.1.27.38.45.27.77,0,.03,0,.07.01.09.21.18.16.44.2.75-.19-.08-.33-.17-.48-.21-.34-.09-.7-.14-.95-.47-.06.35-.11.67-.15.98,0,.06.06.13.11.18.06.06.14.09.21.13.05-.02.12-.09.15-.07.25.11.5.23.75.35.05.02.08.07.12.1.37.24.75.48,1.12.73.17.12.3.3.48.39.26.14.56.21.82.33.17.08.32.21.5.33.04-.29.21.02.26-.03.11.11.2.21.29.31.04-.04.08-.08.14-.15.1.09.2.18.32.29-.02-.1-.04-.17-.06-.3.18.12.31.19.42.28.3.24.55.17.65-.17.31-.02.62-.04.93-.06.02-.12.03-.18.04-.28.09.03.15.05.22.08,0-.03.02-.07.03-.12.18.01.35.02.53.04,0-.02.01-.04.02-.06-.08-.09-.16-.18-.21-.23.12-.07.22-.14.33-.2.06-.04.13-.08.2-.1.13-.03.27-.02.39-.08.18-.08.32-.04.48.04.1.05.22.07.33.05.45-.07.89-.16,1.32-.24.06-.33.1-.37.42-.4.05,0,.11-.02.14-.05.25-.25.48-.53.75-.77.28-.26.59-.5.89-.74.1-.08.16-.15.06-.29-.1-.14-.05-.25.13-.31.14-.05.28-.14.38-.25.27-.32.52-.67.79-1,.06-.07.11-.27.28-.11.02.01.09,0,.12-.04.15-.17.16-.41,0-.6.16-.1.31-.19.47-.28-.02-.05-.09-.22-.07-.23.26-.16.29-.36.21-.65-.03-.13-.02-.37.2-.45.01,0,0-.06,0-.09,0-.09,0-.19,0-.27.14-.02.24-.04.4-.07-.28-.1-.35-.22-.2-.37.14-.14.11-.22.08-.39-.08-.42-.1-.86-.15-1.29,0-.08-.03-.15-.04-.23-.06-.35-.11-.7-.16-1.02-.11-.05-.24-.12-.37-.18.04-.06.09-.12.13-.18-.02-.19-.06-.43.05-.56.09-.12.1-.19.07-.31-.02-.09-.01-.18-.02-.28,0-.02-.02-.04-.04-.06-.05.04-.09.08-.15.13.02-.23.03-.42.05-.62-.03.01-.05.03-.08.04-.03-.03-.08-.06-.09-.1-.05-.18-.06-.37-.14-.53-.17-.33-.38-.64-.57-.97-.33-.57-.59-1.17-1.03-1.67-.09-.1-.17-.2-.25-.3-.11-.48-.52-.77-.77-1.18.01,0,.07-.05.09-.06-.02-.18-.04-.32-.06-.49.03,0,.08-.02.12-.03-.01-.07-.05-.15-.03-.18.14-.14,0-.26-.03-.38-.07-.2-.15-.39-.22-.59-.02-.04-.05-.11-.08-.12-.04,0-.09.03-.13.06-.03.03-.04.07-.06.12-.29-.15-.57-.28-.84-.43-.08-.05-.14-.15-.18-.24-.08-.16-.13-.34-.21-.5-.11-.22-.23-.43-.36-.66.01,0-.03.02-.08.05-.2-.34-.4-.67-.58-.98-.11-.05-.28-.06-.32-.14-.15-.3-.29-.6-.36-.92-.08-.38-.07-.79-.11-1.18-.01-.11-.07-.21-.09-.27.02-.28.06-.52.05-.77-.02-.43.04-.85.24-1.23.25-.48.56-.93.82-1.36.21.09.38.17.56.25.02.01.05.03.06.05.55.56,1,1.22,1.78,1.51.13.05.11.16,0,.24-.04.03-.09.05-.13.08-.71.65-1.25,1.44-1.69,2.29-.09.17-.16.41-.1.56.1.25.05.39-.07.48v1.01h.06c0-.12,0-.24.02-.35.06-.34.12-.67.45-.88.05-.03.04-.17.05-.26.16.05.27-.01.4-.23.09-.16.2-.3.32-.44.06-.07.14-.11.24-.19,0-.09-.07-.27.14-.21.07-.09.11-.15.16-.19.16-.12.34-.21.47-.35.13-.15.26-.29.46-.36.06-.02.1-.09.15-.14.1-.11.18-.23.29-.33.19-.17.67-.04.74.19.01.04,0,.09-.03.13-.11.19-.14.39-.15.6,0,.05,0,.12-.03.15-.26.35-.53.69-.78,1.04-.03.05-.03.2,0,.21.16.08.1.23.08.32-.05.17-.14.32-.22.48q-.14-.19-.39.12s.08.08.08.12c0,.16-.07.32-.05.48.03.19-.17.42.14.57-.16.12-.3.22-.49.37.22-.02.37-.04.52-.06-.17.22-.34.43-.52.66.12.07.18.11.27.16-.12.07-.23.1-.23.13-.02.25,0,.5,0,.82.14-.11.27-.16.32-.25.1-.2.15-.43.22-.64.09-.26.18-.5.39-.65.21-.15.25-.36.37-.55.1-.17.14-.41.37-.48.15-.05.49.07.55.21.02.05-.05.14-.1.19-.02.02-.1,0-.2-.02.12.26.22.48.32.7,0,.02.01.04.01.07.02.17.05.34.14.51.15.27.25.58.39.86.13.27.26.55.44.79.25.33.55.63.82.94.02.02.03.03.05.05.61.42,1.25.79,1.94,1.07.27.11.51.29.76.44.13.07.26.14.39.21.14.08.28.15.44.23h-1.73c-.13-.11-.21-.22-.31-.25-.29-.08-.59-.11-.88-.19-.36-.1-.72-.25-1.08-.36-.2-.06-.42-.06-.6-.15-.36-.17-.66-.45-1.01-.64-.39-.21-.72-.52-1.09-.76-.09-.06-.23-.03-.35-.04,0,.1-.06.22-.02.29.14.23.28.48.48.65.31.27.68.48,1.01.74.47.37.92.78,1.55.87.16.02.32.07.47.12.2.07.38.18.58.26.08.03.16.05.24.06.21.02.42.04.62.03.55-.03,1.09-.09,1.64-.11.29-.01.58.03.87.04.09,0,.21.02.26-.03.04-.04.09-.07.14-.09.04-.09.1-.17.18-.22.35-.23.76-.35,1.17-.45.19-.05.38-.1.57-.18,0,0,.01,0,.02,0,0,0,.01,0,.03-.01.05-.02.09-.04.14-.07.09-.05.17-.1.25-.17.14-.11.32-.08.46,0,.07-.04.14-.06.21-.08.39-.08.57-.38.83-.6.23-.19.4-.48.64-.66.37-.27.5-.7.76-1.04.23-.31.31-.73.46-1.11.02-.06.07-.11.11-.17.11-.19.23-.37.32-.56.15-.33.28-.67.42-1.01.09-.24.22-.46.21-.74,0-.15.09-.3.09-.45,0-.33-.02-.66-.05-1-.02-.24.03-.34.29-.43.03-.01.07-.04.09-.06.09-.15.17-.31.25-.47-.13-.12-.11-.12-.06-.33ZM57.38,4.63c.44-.98.98-1.89,1.76-2.64-.57.89-1.08,1.82-1.76,2.64ZM27.05,52.15v-.93c.16.26.17.82,0,.93ZM29.5,53.31c.15.31.44.55.67.82.18.21.37.42.56.63-.02.02-.04.04-.06.07-.05-.02-.1-.05-.16-.07.01.27-.21.35-.37.48-.24.2-.47.45-.75.57-.2.08-.29.35-.55.32-.03,0-.06.1-.08.12-.1.04-.17.08-.25.1-.04.01-.09.01-.12,0-.02-.01-.04-.09-.03-.1.35-.22.08-.51.08-.76,0-.36-.04-.72-.1-1.08-.04-.29-.12-.57-.19-.86-.04-.18-.11-.36-.16-.54,0-.03.04-.08.05-.12,0-.06.02-.16-.02-.19-.15-.12-.16-.27-.11-.44,0-.03.01-.06,0-.09-.06-.21-.13-.41-.18-.62-.03-.11,0-.23-.01-.35-.01-.49-.03-.98-.03-1.47,0-.06.07-.16.12-.18.1-.02.26-.03.3.02.23.32.46.64.62.99.1.21.09.48.11.72.07.72.34,1.39.64,2.03ZM17.58,66.95c-.26.05-.54.01-.81,0-.38,0-.76-.11-1.15-.04-.06.01-.14,0-.2-.04-.32-.18-.67-.24-1.03-.22-.2,0-.4-.03-.6-.03-.25,0-.5.04-.75.05-.07,0-.14-.02-.26-.03.08-.07.12-.11.16-.15-.04,0-.08-.01-.13-.02.13-.32.26-.61.38-.91.02-.05.05-.11.09-.12.15-.05.17-.15.21-.29.05-.17.2-.32.32-.47.18-.23.33-.49.54-.69.16-.16.39-.26.6-.36.15-.08.32-.13.49-.19.11-.04.18-.06.23-.2.04-.1.25-.15.39-.21.04-.02.14.01.14,0,.06-.17.19-.18.33-.22.12-.03.24-.14.34-.24.26-.29.95-.31,1.2.06.13.19.2.41.3.62.15.33.31.65.45.98.09.21.16.42.23.63.02.05-.01.12-.02.2.22.13.43.26.39.56,0,.06.03.13.06.2.1.2.2.41.3.63-.73.17-1.46.35-2.2.49ZM21.65,81.43c.02.23.04.43.07.7-.17-.25-.29-.44-.07-.7ZM19.88,83.15c-.03.08-.06.16-.1.26.08.03.18.06.26.1.08.04.14.1.22.15-.22.18-.54.03-.65-.42.08-.03.16-.06.27-.09ZM19.29,72.71c-.27.69-.54,1.38-.82,2.07-.07.16-.21.3-.25.47-.09.36-.14.73-.21,1.09-.01.06-.06.13-.11.16-.13.06-.25.1-.19.3.03.1-.06.22-.1.34-.03.12-.06.24-.09.38-.09-.01-.16-.02-.27-.03.08.1.13.16.18.21-.09.19-.27.4-.23.55.08.3-.14.51-.15.76,0,.12.02.24.02.36,0,.31.01.63.03.94,0,.05.06.09.08.14.04.08.12.18.1.25-.07.26-.02.49.08.73.03.07-.03.17-.05.28-.16-.05-.3-.07-.42-.13-.16-.07-.31-.08-.49-.04-.37.09-.75.12-1.11.2-.21.05-.41.17-.63.23-.61.17-1.04.63-1.58.9-.09.05-.21.05-.31.09-.23.08-.38.27-.53.46-.01.01-.04.02-.1.05,0-.44-.03-.85,0-1.26.05-.56.09-1.13.23-1.67.14-.55.39-1.08.62-1.6.11-.25.32-.43.6-.52.1-.03.18-.12.28-.16.2-.1.41-.19.61-.27.52-.22,1.04-.44,1.61-.57.26-.06.49-.27.73-.46-.38.04-.7.02-.77-.45-.04.03-.08.05-.09.07-.06.18-.12.35-.37.19-.04-.03-.15.06-.3.13.06-.18.07-.33.14-.43.2-.32.43-.62.65-.92.02-.03.08-.05.12-.07.14-.06.24-.13.34-.29.19-.3.48-.54.73-.8.16-.17.33-.34.5-.51.15-.16.3-.34.45-.5.26-.27.52-.55.79-.81.07-.07.2-.08.3-.12,0,.1.04.21,0,.3ZM53.54,24.04s.04,0,.06,0c0,.34,0,.68,0,1.01,0,.05-.11.1-.21.18,0,.01-.02.09-.03.16l-.08.02c-.02-.09-.07-.18-.06-.26.03-.14.12-.27.15-.4.07-.23.12-.47.17-.71ZM52.99,20.99c.05-.36.03-.74.1-1.09.05-.29,0-.62.3-.83-.18.9-.13,1.85-.52,2.69-.02,0-.04-.01-.06-.02.06-.25.15-.5.19-.75ZM47.66,31.16c-.11.36-.37.65-.52.99-.06-.44.2-.73.52-.99ZM42.94,36.26s-.03-.04-.04-.06c.07,0,.13,0,.24-.01-.21.23-.25.54-.57.63.12-.18.25-.37.37-.55ZM33.66,48c-.16.09-.34.15-.52.2-.06.02-.14-.07-.23-.11,0,.06.01.12.02.23-.1-.04-.16-.07-.22-.1,0,.02,0,.04.01.06-.14.03-.28.06-.42.1-.06.02-.12.08-.18.09-.11.02-.23.04-.34.02-.11-.02-.24-.13-.27.05-.13-.01-.26-.04-.38-.03-.28.04-.49-.06-.66-.25-.17-.19-.33-.39-.5-.59-.06-.07-.13-.12-.19-.18.13-.26.25-.52.37-.78.05-.09.11-.18.17-.27.02-.04.07-.08.07-.11-.03-.46.17-.86.42-1.2.33-.45.74-.87,1.16-1.24.24-.21.59-.29.89-.42.24-.1.47-.24.72-.28.13-.02.33.1.42.21.19.22.32.49.48.73.03.05.13.08.19.07.05,0,.09-.09.14-.13-.05-.04-.11-.07-.14-.12-.07-.1-.16-.19-.2-.31-.07-.2-.18-.1-.24-.07-.05-.14-.09-.27-.14-.4-.06-.14.02-.19.14-.23.56-.21,1.16-.36,1.66-.67.45-.28.97-.39,1.4-.69.05-.03.12-.06.18-.05.27.03.48-.11.69-.25.31-.2.62-.4.94-.58.27-.15.56-.26.84-.39.36-.17.71-.34,1.07-.51.07-.04.16-.06.25-.06-.72.97-1.32,2.01-1.79,3.13.13.03.23.04.35.07-.08.13-.14.22-.22.36-.03-.14-.05-.22-.07-.32-.4.74-.78,1.46-1.17,2.17-.12.22-.26.42-.4.62-.05.07-.16.09-.2.17-.12.22-.22.46-.34.68-.07.13-.15.24-.25.34-.11.1-.23.18-.31.29-.19.25-.36.52-.54.78-.13.19-.25.38-.38.57-.06.08-.14.14-.22.23.05.04.11.1.19.17-.08.01-.14.02-.19.03-.13.53-.47.94-.72,1.39-.03-.01-.07-.02-.1-.03.02-.21.02-.42.06-.62.06-.33.14-.67.23-.99.05-.18.16-.35.24-.52.07-.15.02-.24-.11-.32-.14-.08-.17-.15-.01-.27.1-.08.16-.22.23-.33-.07-.07-.13-.12-.2-.18-.03,0-.09.03-.15.05-.01-.03-.03-.05-.03-.07.03-.27.08-.53.11-.8.03-.37.14-.75-.02-1.12-.03-.07-.09-.15-.16-.19-.1-.08-.1-.13-.02-.22.06-.06.1-.14.14-.22-.02-.01-.04-.03-.05-.04-.05.03-.1.07-.17.12-.09-.12-.17-.23-.25-.34-.02,0-.03,0-.05,0,.01.12,0,.25.05.34.23.44.13.92.18,1.39.03.29.03.59.04.88,0,.16-.04.27-.19.36-.38.23-.75.49-1.13.72ZM36.1,49.21c-.01-.2-.02-.36-.03-.53.1,0,.17-.01.24-.01,0,.04,0,.08-.01.13.09-.06.17-.11.26-.16.01,0,.03.02.04.03-.04.06-.07.13-.11.19-.07.1-.13.19-.21.28-.04.04-.11.05-.18.08ZM36.28,49.23c-.16.31-.29.54-.41.78l-.07-.02c0-.07.03-.13.03-.2,0-.18.24-.27.19-.47,0,0,.13-.04.26-.09ZM33.57,54.7c.09-.11.03-.33.25-.34,0-.06-.01-.11-.01-.13.19-.32.36-.63.54-.93.03.02.05.03.08.05-.32.57-.44,1.26-.92,1.75-.03-.02-.07-.04-.1-.06.06-.11.09-.24.17-.33ZM29.98,71.51s0,0,0,0c-.28-.08-.33-.15-.21-.37.03-.05.13-.1.19-.1.08,0,.2.06.21.12.05.2.14.31.34.29-.03.17-.05.32-.08.47-.21-.07-.12-.49-.47-.41ZM25.52,75.3c.05.14.09.22.1.31.01.07,0,.15.04.23.02-.04.04-.08.07-.16.11.63.22,1.21.33,1.83-.44-.17-.8-1.61-.55-2.21ZM40.7,55.48c-.19.26-.38.52-.56.78-.03.05-.03.12-.04.19-.05.21-.24.25-.39.36-.26.19-.47.47-.66.74-.24.37-.43.77-.65,1.15-.04.07-.13.14-.2.15-.05,0-.15-.09-.16-.15-.05-.32-.1-.64-.1-.96,0-.43.03-.87.09-1.3.06-.45.16-.9.27-1.34.08-.31.21-.61.36-.89.13-.24.26-.24.46-.05.05.04.08.1.13.13.06.04.18.1.2.08.18-.18.27.03.4.07.37.11.73.22,1.1.33.06.02.13.03.22.05-.17.24-.32.46-.47.68ZM41.12,53.57c-.1-.09-.2-.19-.29-.28-.06.12-.11.24-.19.4-.06-.08-.1-.14-.14-.19-.16.2-.24.21-.47.05-.13.16-.29.17-.46.06-.02-.01-.04-.02-.06-.03-.07-.02-.21-.03-.21-.04,0-.12.01-.25.04-.37.02-.09.05-.17.09-.29-.08,0-.13.01-.23.02.08-.07.13-.11.18-.15-.08-.07-.15-.13-.22-.21-.05.03-.09.06-.18.11-.09-.78-.26-1.53-.04-2.3-.1.16-.21.33-.31.49-.12.2-.14.2-.29.05-.03-.03-.1-.03-.17-.05.13-.37.24-.74.37-1.09.06-.16.1-.37.38-.31.03,0,.16-.19.14-.28-.02-.13,0-.18.09-.27.15-.16.25-.36.38-.54.05-.07.13-.11.17-.17.09-.12.16-.26.24-.38.04-.06.09-.14.14-.14.21,0,.22-.21.34-.31.05-.05.11-.09.16-.14.05.07.14.13.15.21.07.3.12.6.17.9.06.32.07.67.21.96.15.29.1.61.2.88.21.55.21,1.13.39,1.69.09.29.11.6.15.91.01.08-.02.17-.04.25-.04.16-.13.21-.3.12.02.3-.19.38-.41.45ZM51.16,63.71c-.29.19-.58.4-.89.53-.16.07-.38-.02-.55-.03-.12-.09-.23-.18-.35-.27,0,.01,0,.02-.01.03-.07-.1-.14-.2-.2-.29-.03.02-.06.04-.09.06.1.15.2.29.28.42-.07.02-.15.04-.23.06-.1-.21-.23-.44-.32-.68-.06-.15-.13-.23-.29-.15-.13.07-.19.02-.25-.1-.23-.44-.47-.87-.72-1.29-.05-.09-.18-.14-.28-.2-.07.13-.21.26-.21.39,0,.2.08.41.13.62.06.21.14.43.22.63.04.1.12.18.16.28.12.32.27.61.53.83.06.05.14.09.25.17-.16.07-.29.14-.42.17-.46.09-.93.16-1.39.24-.12.02-.23.07-.35.09-.03,0-.08,0-.11,0-.4-.11-.82-.19-1.21-.33-.55-.19-1.09-.39-1.55-.77-.21-.17-.44-.31-.63-.5-.57-.56-.51-.87-.32-1.59,0-.03.02-.05.04-.1-.17.07-.31.13-.45.19-.06-.17-.12-.3-.17-.45.06,0,.15-.02.31-.03-.14-.1-.23-.16-.3-.21.01-.16,0-.32.05-.45.04-.12.15-.22.25-.35-.17-.1-.55-.13-.23-.49-.28-.14-.26-.42-.29-.65-.05-.38-.1-.76-.08-1.14,0-.24-.03-.46-.07-.69-.04-.25.09-.44.25-.62.09-.1.17-.22.22-.35.02-.05-.04-.13-.08-.26.11-.12.09-.42.37-.52.02,0,.04-.03.05-.05.08-.34.32-.26.55-.21.18.03.37.06.59.1.02-.11.03-.22.06-.33.01-.05.06-.12.1-.12.17-.01.33-.03.43.18.05.1.2.22.28.2.31-.07.32.2.44.34.04.04.05.12.1.15.22.15.45.28.66.43.63.46,1.31.85,1.65,1.61.07.16.23.28.34.43.02.03.06.07.05.09-.07.17.07.23.15.33.11.13.19.3.24.47.04.11,0,.25,0,.38.02,0,.04,0,.06,0,.01-.05.03-.09.04-.14.03-.13.13-.15.21-.08.1.08.16.21.24.31.02.03.01.08.03.1.15.12.31.24.42.38.05.1.1.2.15.31.02.04.07.08.06.12-.02.25.22.37.29.55.08.22.3.3.38.51.08.21.21.41.35.6.1.15.26.26.36.42.16.27.5.28.7.49.1.11.1.18.01.24ZM53.82,61.24c-.15.12-.28.27-.43.41-.08.08-.18.14-.27.2-.18.14-.44.22-.36.54,0,.03-.02.07-.02.05-.26.02-.46,0-.66.05-.37.08-.44.07-.63-.23-.08,0-.15.02-.22,0-.16-.05-.31-.11-.46-.17-.05-.02-.1-.04-.13-.08-.13-.19-.24-.39-.37-.58-.22-.33-.44-.65-.67-.97-.22-.3-.43-.61-.68-.88-.1-.11-.3-.15-.46-.21-.28-.11-.59-.16-.68-.52,0-.03-.09-.05-.15-.08.05-.08.09-.14.13-.2-.1-.12-.24-.21-.29-.35-.05-.12-.26-.25-.05-.41-.05-.1-.27-.11-.14-.28,0,0,0-.02,0-.02-.27-.13-.25-.54-.59-.61-.07-.01-.13-.11-.18-.18-.06-.09-.12-.18-.17-.28-.24-.43-.54-.81-.9-1.15-.17-.16-.37-.3-.52-.48-.07-.08-.08-.22-.11-.33.1-.03.19-.08.29-.08.27.01.54.05.81.09.11.02.22.06.18.23,0,.04.11.13.18.17.09.05.2.07.34.12-.03-.07-.05-.11-.09-.18.07.04.12.06.16.08.22.08.43.15.65.23.24.09.47.18.72.26.2.06.4.09.6.13.07.02.15.04.22.07.42.24.85.48,1.25.75.16.11.27.31.4.47.15.18.28.37.55.35.03,0,.1.08.09.09-.08.18.08.24.16.34.21.3.42.6.64.89.21.29.42.58.63.86.16.21.3.43.49.61.23.22.48.4.73.59.37.28.37.39,0,.68ZM45.89,53.55c-.09.01-.17.03-.31.05-.08-.1-.19-.26-.3-.41h.49c-.1.05-.15.07-.26.12.15.1.27.17.39.24ZM50.74,47.72c.23,0,.23,0,.15.32.12-.06.22-.16.33-.16.09,0,.22.07.27.14.11.14.18.31.27.49.06-.03.12-.07.2-.11.02.15.06.29.05.43-.02.26.18.37.31.52.1.12.23.21.31.34.2.3.37.63.58.93.12.18.32.3.46.47.18.23.33.47.47.72.1.16.18.33.25.51.07.18.09.37.16.54.11.29.25.57.38.87-.08.08-.05.33.11.38.28.08.19.22.1.38-.01.03-.02.06-.03.08.15.05.3.37.29.53-.02.27-.04.54,0,.8.08.65.21,1.29.29,1.94.02.16-.04.36-.12.51-.24.44-.43.93-.83,1.27-.06.05-.15.08-.23.12-.04-.08-.07-.15-.14-.28-.08,0-.23-.01-.38-.03-.22-.03-.35-.21-.3-.46-.08.02-.15.04-.24.07.01-.08.02-.13.03-.16-.24-.18-.49-.32-.68-.53-.24-.27-.4-.62-.64-.89-.41-.45-.85-.87-1.29-1.29-.2-.2-.42-.39-.64-.57-.1-.08-.23-.14-.35-.2-.39-.2-.86-.26-1.15-.65-.03-.04-.13-.06-.19-.04-.24.05-.44.1-.63-.15-.12-.16-.34-.25-.52-.37-.01,0-.03-.02-.04-.01-.34.14-.59.03-.78-.33.07-.02.15-.05.27-.08-.32-.06-.74.14-.84-.37.03-.02.08-.06.15-.1-.07-.08-.29-.08-.07-.29-.23.07-.37.11-.53.16,0-.07.03-.14,0-.17-.23-.26-.01-.37.16-.5.05-.04.1-.09.16-.14.03.16.07.31.11.51.12-.15.22-.27.32-.4-.01-.01-.02-.02-.04-.04l-.12.07-.03-.02c.04-.08.08-.16.17-.31.02.11.04.18.05.24.04-.02.08-.04.13-.06.01-.14.02-.28.03-.45.03-.05.09-.13.12-.23.09-.27.2-.47.52-.56.3-.08.56-.29.84-.42.19-.09.43-.11.6-.22.25-.17.54-.12.8-.23.2-.08.45-.04.68-.05.03,0,.06.01.09,0,.29-.08.55,0,.82.11.05.02.12.02.2-.01-.12-.11-.24-.21-.36-.33.06-.03.1-.05.17-.08-.61-.08-1.18-.19-1.76-.21-.58-.02-1.17.07-1.7.37-.17.1-.38.12-.56.21-.28.14-.55.32-.83.47-.23.13-.46.23-.68.37-.11.07-.19.19-.29.29-.1.1-.21.19-.31.28-.22-.17-.17-.35-.1-.51.15-.35.38-.64.65-.91-.16-.31-.06-.59.31-.85.04-.03.08-.06.11-.1.11-.17.25-.24.45-.22.08,0,.17-.07.26-.11-.07-.09-.14-.24-.22-.25-.17-.03-.39-.04-.54.04-.61.31-1.14.72-1.52,1.31-.13.2-.29.37-.39.59-.15.3-.2.61-.19.93,0,.13,0,.2-.14.24-.06.02-.11.1-.19.18-.05-.14-.08-.29-.15-.4-.18-.25-.38-.49-.57-.73-.36-.44-.56-.96-.72-1.5-.13-.46-.24-.93-.35-1.39-.01-.04-.04-.08-.07-.11-.06-.06-.17-.11-.19-.19-.04-.18-.04-.36-.05-.55,0-.02.06-.04.09-.06-.14-.19-.15-.63-.01-.82.02-.03.09-.05.12-.04.04.02.1.07.1.1,0,.07-.04.13-.07.19.06.05.13.11.19.17.27-.12.56-.25.85-.38.01-.07.03-.13.03-.14.21-.1.39-.19.57-.27.04-.02.1-.03.12-.01.14.12.49.16.69.09.1-.03.21-.02.35-.03,0,.03,0,0,0-.02,0-.03-.02-.06-.02-.06.27,0,.56.06.8-.02.25-.08.4.02.58.13.15-.24.32-.28.56-.14-.07.02-.12.04-.18.05.03.03.05.07.07.08.27.02.54.03.81.05.07,0,.16,0,.2.04.16.16.32.13.48.02.12.12.23.27.44.16.02-.01.12.07.15.13.03.07.03.16.04.27.19-.11.28-.03.44.07.15.1.41.04.62.04.02,0,.04-.06.06-.1.07.24.5.15.41.51.05,0,.08,0,.1-.02.16-.11.29-.14.34.11.02.08.12.14.19.22.06-.05.11-.09.21-.16.06.14.11.27.17.41ZM50.72,37.24c-.04-.2-.07-.37-.12-.53-.02-.06-.06-.12-.1-.18-.02-.04-.07-.08-.06-.11.09-.36-.14-.65-.19-.98-.06-.39-.05-.78-.01-1.16,0-.1.02-.21,0-.3-.02-.08-.1-.21-.14-.2-.08,0-.2.08-.23.15-.23.56-.33,1.14-.23,1.75.04.25.02.51.09.76.1.36.25.71.37,1.06.02.07,0,.18-.03.25-.3.6-.65,1.17-.89,1.79-.17.45-.23.95-.27,1.43-.08.91-.09,1.83,0,2.75.03.25.02.5.15.72.07.12.2.22.27.34.1.17.16.36.24.54.05.11.1.22.18.32.26.34.53.67.79,1.01-.01.02-.03.05-.04.07-.33-.12-.66-.22-.98-.35-.26-.1-.49-.28-.75-.35-.23-.06-.43-.18-.65-.25-.17-.05-.35-.06-.51-.16-.11-.07-.23-.12-.37-.19-.01,0-.05.05-.07.06-.12-.04-.2-.09-.29-.1-.36-.07-.72-.12-1.08-.19-.02,0-.06,0-.07-.02-.13-.21-.29-.18-.47-.08-.04.02-.15,0-.16-.04-.11-.26-.34-.1-.51-.16-.03,0-.08.04-.11.07-.15.2-.26.22-.44.06-.06-.05-.12-.09-.19-.09-.21,0-.42.01-.63,0-.21-.01-.39,0-.45.28-.26-.19-.44-.09-.61.11-.09.11-.22.2-.35.24-.07.02-.19-.06-.27-.11-.04-.02-.04-.1-.06-.14-.08-.18-.27-.31-.14-.57.08-.16-.12-.39.06-.57-.22-.21.03-.38.03-.58,0-.27-.03-.54.02-.79.06-.34.09-.33,0-.58.05-.04.11-.08.16-.12,0-.01,0-.03-.01-.04l-.37.05c-.05.08-.11.15-.14.23-.04.15-.06.3-.09.46-.04.22-.08.44-.14.65-.09.32-.21.64-.29.96-.03.1.01.23.02.34.02.44.06.88.04,1.32,0,.13-.16.27-.28.38-.19.17-.4.31-.6.46-.04.03-.09.07-.11.12-.11.24-.3.4-.49.57-.12.11-.19.27-.28.41-.15.22-.25.22-.36.02-.03.05-.05.08-.08.14.07.03.13.05.21.07-.03.46-.37.72-.7,1.04.12,0,.18,0,.24.01.06.2.05.36-.16.4-.09.22-.17.42-.26.63.03.02.08.06.12.1-.03.15-.05.29-.08.45.03,0,.11.02.19.03-.01.08-.02.16-.04.29.09-.07.13-.11.18-.14.12.12.04.98-.06,1.1.03.15.04.27.08.39.06.2.12.39.19.59,0,.02.03.05.03.06-.14.21,0,.39.04.59.01.06-.04.14-.07.21-.14.29-.27.57-.42.85-.22.42-.27.87-.31,1.33,0,.05-.05.09-.08.13-.02.03-.07.07-.06.09.05.19.09.35-.06.54-.05.06-.02.25-.11.38-.03.05.04.18.07.27.02.05.05.09.1.16-.18,0-.23-.29-.39-.14.04.13.07.26.11.38.04.13.1.25.15.38.03.07.07.15.11.22l-.16.07c-.03-.08-.06-.17-.09-.25-.13.05-.12.29.05.47-.18.18-.1.34.04.49.06.07.11.15.17.22.11.13.11.28.11.43,0,.1.03.2.05.32-.05-.02-.11-.05-.17-.08l-.05.04c.07.08.14.16.21.25.01-.01.03-.02.04-.03,0,.01.01.04,0,.04-.32.39.02.69.16,1,.16.38.38.73.59,1.09.1.16.22.3.35.47-.01.02-.04.05-.06.09.07.09.14.18.25.31-.94-.03-1.85-.04-2.75.14.05.1.07.16.12.26.29-.02.64-.05.98-.08.02,0,.05,0,.07,0,.4.28.9.16,1.33.3.3.1.6.24.88.39.29.16.55.38.85.52.31.14.59.34.93.45.64.2,1.28.48,1.76.98.23.24.37.54.56.82.06.09.16.17.21.27.04.09.04.21.05.31.01.1.04.21.02.3-.03.24-.18.51-.1.7.13.34-.24.73.12,1.03.02.02,0,.14-.03.18-.16.16-.11.32,0,.46.07.11.1.18.04.31-.14.3.04.57.14.84.15.4.44.74.5,1.18.03.18.11.36.18.53.02.06.1.1.14.15.03-.01.05-.03.08-.04.06.54.15,1.08.16,1.62,0,.32-.14.63-.17.95-.04.39-.29.57-.58.75-.09.06-.2.1-.31.16.03.04.07.1.11.16-.12.12-.1.21-.02.37.1.21.11.46.14.7.01.07-.02.15,0,.21.11.32-.05.54-.23.78-.29.38-.55.77-.84,1.14-.24.3-.49.58-.77.84-.21.21-.43.11-.55-.16-.06-.15-.21-.26-.33-.38-.13-.13-.26-.26-.39-.39.05-.06.09-.11.13-.15-.11,0-.2,0-.23-.03-.06-.08-.09-.19-.13-.28.03-.02.07-.04.1-.06.07.1.15.2.26.36.14-.2.11-.36-.11-.73-.26-.43-.59-.82-.87-1.23-.25-.35-.47-.73-.73-1.07-.16-.22-.37-.4-.55-.61-.39-.44-.74-.92-1.17-1.31-.32-.29-.6-.6-.89-.91-.19-.21-.45-.16-.69-.22,0,0-.09.17-.07.18.29.26.45.62.76.87.36.29.65.67.94,1.04.3.38.56.78.84,1.17.28.38.58.76.84,1.15.16.24.24.54.39.78.28.44.58.88.89,1.3.3.4.31.39.55.5-.05-.08-.09-.12-.12-.17l.03-.05c.06.03.13.04.17.09.09.12.14.26.23.37.1.11.23.2.35.3-.04.04-.12.13-.2.23-.13.16-.25.32-.37.49-.16.22-.32.27-.58.2-.29-.07-.59-.07-.89,0-.06.01-.15-.05-.21-.1-.17-.13-.34-.28-.51-.42-.02-.02-.07-.03-.07-.05-.11-.33-.41-.43-.69-.57-.01,0-.03-.01-.04-.03-.09-.27-.39-.36-.52-.6-.14-.26-.37-.29-.62-.22.11.23.21.45.32.67.05.1-.11.21.03.32.11.09.17.24.26.38,0,0-.04.02-.07.04.11.14.22.28.34.43-.06.02-.12.03-.17.04,0,.02,0,.04,0,.05.17.12.31.3.45.4.17.13.33.31.54.4.14.06.12.16-.02.21-.4.13-.8.28-1.22.37-.89.19-1.78.14-2.66-.03-.21-.04-.42-.13-.63-.19-.18-.05-.37-.13-.54-.11-.22.03-.38-.04-.55-.13-.07-.04-.16-.05-.24-.06-.33-.03-.67-.05-.99-.1-.1-.02-.2-.12-.29-.2-.15-.15-.27-.3-.54-.31-.2,0-.41-.19-.6-.31-.3-.19-.58-.4-.88-.61-.43-.3-.88-.57-1.29-.89-.39-.3-.74-.65-1.11-.98-.02-.02-.05-.03-.05-.04,0-.42-.42-.56-.61-.86-.09-.14-.28-.22-.36-.37-.15-.26-.29-.53-.35-.81-.12-.57-.21-1.16-.26-1.74-.05-.51-.04-1.02-.06-1.53,0-.26.22-.27.36-.32.31-.11.63-.16.94-.24.35-.1.69-.23,1.03-.32.26-.07.53-.11.8-.15.03,0,.07,0,.09.01.16.1.31.21.42-.06,0,0,.03-.02.04-.02.22.2.5-.11.77.1.19.14.53.09.81.12.16-.45.24-.87.22-1.31,0-.14.02-.19.17-.23.31-.09.59-.23.92-.36.11.27.17.58.15.91-.02.36-.19.57-.53.71-.12.05-.17.25-.27.37-.04.05-.14.07-.18.12-.09.12-.19.25-.22.4-.05.2-.11.25-.29.07l-.03.08s.1.1.11.11c-.12.3-.26.57-.33.86-.1.43-.13.87-.2,1.31-.05.29-.12.57-.15.86-.03.35-.12.72.09,1.08-.4.08-.18.35-.17.54,0,.26.08.51.1.77,0,.07-.08.14-.14.22,0,0,.03.01.05,0,.25-.1.47-.02.67.15.05.04.12.04.18.06.01-.06.03-.13.03-.19-.02-.4-.01-.79.18-1.18.35.71.69,1.4,1.02,2.08.03-.01.07-.03.1-.04-.19-.53-.39-1.06-.56-1.6-.13-.41-.35-.8-.29-1.25,0-.02,0-.06,0-.07-.34-.32-.11-.74-.21-1.1-.01-.05.03-.16.07-.17.18-.05.16-.18.18-.31.02-.2,0-.43.08-.59.13-.24.29-.44.1-.71.15-.1.11-.36.34-.42.04-.01.08-.08.09-.14.05-.15.08-.31.13-.46.06-.18.12-.36.18-.54.01-.03.04-.08.07-.09.23-.08.3-.24.31-.48,0-.18.09-.35.14-.52-.38-.18-.27-.59-.43-.87l.05-.07c.25.06.54.08.75.21.2.12.32.38.51.6.04-.11.06-.18.09-.24.05-.11.07-.28.16-.33.4-.21.16-.57.2-.85,0-.06-.1-.16-.18-.22-.25-.17-.5-.32-.79-.5.28-.29.55-.57.86-.91.1.34.17.61.25.89.02,0,.03,0,.05.01.03-.1.08-.19.08-.29,0-.15-.03-.31-.07-.46-.07-.33.13-.64.47-.64.11,0,.22.09.33.13-.01-.43.01-.45.45-.5.05,0,.1-.03.14-.06.14-.11.22-.25.47-.26.29-.01.6-.18.87-.33.32-.18.62-.4.92-.61.07-.05.11-.14.17-.22-.13-.07-.24-.14-.36-.19-.21-.1-.4-.12-.57.11-.08.1-.26.14-.41.19-.44.15-.89.29-1.33.43-.07.02-.13.06-.2.07-.42,0-.72.27-1.03.5-.06.05-.13.08-.2.12-.33.18-.54.5-.81.75-.2.17-.37.37-.57.54-.13.11-.25.14-.37-.06-.13-.2-.26-.39-.35-.62-.05-.13-.27-.18-.42-.27-.05-.03-.11-.04-.15-.07-.16-.1-.32-.21-.47-.32-.04-.03-.08-.09-.1-.14-.07-.19-.12-.38-.2-.56-.03-.06-.13-.08-.19-.12-.05-.04-.12-.1-.13-.16-.02-.09,0-.19.02-.32.1-.07.25-.18.39-.28.03-.02.07-.05.07-.08,0-.38.32-.48.55-.65.23-.18.5-.32.71-.51.15-.14.25-.34.4-.55-.42-.04-.71.07-.94.35-.03.04-.15.07-.2.05-.18-.08-.3-.04-.44.09-.28.25-.59.48-.9.72-.38-.83-.63-1.65-.65-2.54,0-.41-.01-.83-.04-1.24,0-.1-.1-.21-.18-.29-.18-.18.03-.3.06-.44.02-.09.11-.17.23-.06.02.02.11,0,.13-.03.07-.1.15-.21.19-.33.05-.15.1-.26.27-.3.14-.03.14-.15.1-.26-.04-.11-.06-.22.1-.24.01,0,.03,0,.04-.02.19-.23.4-.45.57-.7.38-.56.71-1.14,1.1-1.7.18-.26.45-.46.63-.72.11-.16.31-.19.4-.35.14-.26.24-.54.4-.77.14-.2.22-.42.3-.64.12-.32.28-.62.42-.94.12-.27.23-.55.34-.83-.03-.01-.07-.03-.09-.03.11-.24.23-.47.32-.7.02-.06-.01-.13,0-.2,0-.04.02-.12.02-.12.27.04.13-.17.17-.27.04-.1.08-.19.11-.29.01-.03.04-.07.03-.08-.18-.18.02-.3.06-.44.05-.15.1-.3.17-.45.05-.11.13-.21.15-.25.02-.13.01-.22.05-.29.42-.66.86-1.3,1.28-1.96.15-.23.25-.48.41-.71-.39.58-.32,1.29-.6,1.89.02,0,.05.02.08.03.16-.33.35-.65.47-1,.2-.61.49-1.17.85-1.69.12-.18.2-.39.31-.57.09-.13.19-.26.31-.36.15-.12.11-.17-.1-.25.13-.02.19-.03.23-.03.12-.18.24-.36.38-.57h-.28c.16-.12.28-.21.41-.31-.03-.03-.07-.06-.09-.08.08-.09.15-.18.25-.3-.1-.03-.15-.04-.2-.05,0-.02,0-.03,0-.05.08-.01.16-.02.27-.03-.04-.07-.08-.14-.09-.16.12-.23.23-.43.32-.63.14-.3.27-.6.38-.91.05-.15.16-.31.03-.48,0,0,0-.02,0-.02.15-.46.28-.93.47-1.37.12-.3.31-.57.48-.84.03-.04.08-.07.15-.12-.03.14-.05.23-.07.32.15-.01.29-.03.45-.04-.02-.1-.04-.17-.05-.24-.05,0-.11.01-.16.02,0-.02-.02-.04-.03-.06.07-.04.15-.07.21-.12.13-.08.25-.16.37-.25.03-.02.03-.11.02-.15-.1-.33.05-.68.34-.89.2-.14.38-.31.53-.5.12-.15.17-.35.26-.53.02-.04.05-.08.09-.1.31-.22.38-.55.46-.89.06-.24.17-.48.28-.71.21-.42.41-.84.66-1.24.23-.38.48-.75.77-1.08.27-.32.59-.59.91-.87.1-.09.26-.12.33-.15.08-.13.15-.23.21-.33,0,0,0,0,0-.01.18-.2.38-.39.54-.6.29-.41.56-.82.82-1.25.11-.18.19-.39.28-.61-.2-.09-.15-.22-.08-.39.1-.23.14-.49.24-.73.06-.14.2-.25.29-.38.06-.08.09-.17.13-.25.02-.03.03-.07.05-.1.35-.48.69-.97,1.05-1.44.45-.59.91-1.17,1.37-1.76-.05-.03-.1-.06-.17-.09.13-.15.28-.18.45-.17.07,0,.17-.02.21-.07.1-.16.33-.26.28-.5.38-.46.34-1.09.67-1.58.07-.1.07-.26.1-.39.02,0,.04,0,.06-.01.01.05.05.11.04.15-.14.73-.27,1.46-.42,2.19-.09.41-.2.82-.34,1.23-.14-.43.02-.87-.03-1.28-.1.37-.2.75-.31,1.14-.04.13-.09.19-.25.13-.11-.04-.26-.05-.36,0-.09.04-.13.19-.21.32.19.03.36.06.53.08.02.02.03.04.05.06-.39.03-.42.29-.41.55,0,.24-.09.52.2.68-.08.29-.2.6-.25.91-.05.35-.04.71-.08,1.07-.02.22.12.44-.02.65-.02.03-.02.1,0,.14.06.19.09.36-.03.55-.02.03.05.13.07.18-.03.12-.07.24-.09.37-.01.11,0,.23.01.34.02.12.04.25.06.37.01.08.03.16.05.23.03.07.09.14.1.21,0,.23-.02.47-.02.7,0,.1.08.19.1.29.05.22.07.45.12.67.05.24.12.47.18.71.02.07.05.15.04.22-.04.23.09.39.21.57.08.12.1.29.15.43.02.05.03.13.06.16.16.12.11.22,0,.32-.08.07-.17.13-.27.18-.26.15-.52.29-.78.43-.27.15-.53.3-.84.47ZM53.74,38.46c-.01.14,0,.28,0,.45-.02.03-.06.09-.11.16l.05.04s-.04.01-.04.01c-.06-.09-.1-.2-.17-.28-.13-.14-.07-.22.07-.3-.42.06-.11.39-.23.58-.62-.15-1.23-.37-1.77-.74,0-.02.02-.04.03-.06l-.21.02s-.02-.03-.02-.05c.05-.03.1-.06.15-.09-.01-.1-.02-.21-.03-.34-.03,0-.09-.02-.15-.04.46-.2.69-.78,1.29-.73-.1-.44.31-.29.42-.42.2.4.39.81.59,1.22.02,0,.04-.02.06-.02.03-.08.05-.16.1-.31.06.14.09.22.12.28.13.04.24.07.36.1,0,.02,0,.05.01.07-.23.09-.45.19-.48.46ZM66.76,45.91s0,.02-.01.02c-.1.08-.2.15-.3.23-.06-.11-.14-.21-.17-.33-.07-.22-.13-.45-.17-.68-.06-.34-.09-.69-.16-1.02-.04-.2-.14-.38-.21-.57-.03-.08-.08-.16-.11-.22-.1-.1-.21-.18-.28-.28-.29-.41-.58-.83-.87-1.25-.3.04-.35,0-.33-.38-.31.01-.41-.23-.56-.44-.08-.12-.25-.19-.37-.28-.02.01-.03.03-.05.04.04.07.07.14.11.21.23.35.47.71.7,1.06.29.45.59.89.86,1.34.15.25.23.53.35.8.03.07.09.12.11.19.14.37.28.75.42,1.12.1.27.21.54.27.82.05.22.03.46.08.68.08.37-.09.67-.24.98-.09.18-.24.24-.44.22-.21-.01-.26-.14-.32-.3-.07-.17-.16-.33-.25-.5-.04-.08-.12-.17-.11-.24.04-.23-.11-.34-.27-.5.02.22,0,.42.06.58.06.16.06.32.21.48.22.24.29.62.39.95.02.08-.12.2-.18.3-.03.06-.06.12-.09.17-.05.07-.1.17-.17.21-.38.17-.76.34-1.15.49-.1.04-.23.04-.34.02-.61-.1-.71-.04-1.14.5-.04.05-.02.13-.04.23-.05-.02-.13-.05-.2-.09-.06-.03-.11-.08-.17-.09-.14-.03-.26-.04-.31-.22-.02-.07-.22-.11-.34-.12-.19-.01-.34-.03-.44-.22-.03-.07-.14-.11-.23-.13-.22-.04-.41-.12-.47-.28-.15-.05-.23-.11-.33-.12-.55-.07-.93-.43-1.34-.74-.23-.17-.46-.29-.72-.39-.42-.17-.63-.56-.89-.9-.26-.34-.49-.7-.69-1.07-.2-.36-.21-.77-.13-1.16.03-.17.1-.36.34-.39.12-.02.16-.36.11-.52-.1-.34-.17-.69-.24-1.04,0-.04-.01-.09,0-.11.26-.23.16-.58.29-.85.22-.5.45-.99.66-1.43-.03-.14-.05-.27-.08-.42.09-.02.15-.04.21-.04.29,0,.51-.13.73-.33.17-.15.41-.22.66-.25.79-.07,1.58-.1,2.33-.4.21-.08.43-.18.67-.08.05.02.14-.05.23-.09-.23-.28-.52-.3-.82-.3-.12,0-.23.02-.35.02-.04,0-.1-.01-.13-.04-.22-.23-.49-.28-.79-.22-.02,0-.05,0-.06-.01-.25-.19-.52-.07-.78-.06-.29.02-.57.08-.86.13-.08.02-.16.08-.24.09-.07.01-.16-.01-.28-.03-.02.01-.09.05-.2.11,0-.17,0-.26.13-.35.09-.06.15-.21.17-.33.04-.19.14-.28.37-.3-.05-.08-.11-.14-.13-.21-.04-.12.16-.39.3-.38.16.01.16-.07.16-.18,0-.18.03-.36.2-.48.06-.04.07-.17.12-.29.26,0,.27-.3.4-.47.09-.12.09-.29.27-.35.06-.02.11-.12.14-.19.08-.2.2-.35.42-.42.26-.09.47-.31.79-.29.2.02.41-.07.61-.13.46-.15.88,0,1.3.15.26.1.5.27.81.2.05-.01.14.1.21.15.27.18.53.37.82.52.57.31.96.8,1.41,1.24.28.29.54.59.72.95.29.56.51,1.15.62,1.77.11.66.19,1.33.37,1.98.2.72.21,1.44.21,2.17,0,.87-.36,1.63-.8,2.37Z"/>
      <path class="cls-1" d="M33.38,17.14c0-.15.03-.31-.03-.38-.19-.19-.27-.43-.37-.66-.19-.43-.37-.87-.54-1.31-.02-.05.06-.14.1-.21.06.04.14.06.17.12.12.18.22.36.33.55.06.1.11.2.16.3.03,0,.05-.02.08-.03,0-.05.02-.1.03-.17q.14.41.3.31c.23.26.44.52.68.75.14.14.31.23.47.35.04.03.11.06.12.09.08.44.4.74.69,1.02.34.33.76.59,1.14.89.06.05.09.14.15.23.03-.02.09-.04.16-.08.08.1.15.25.26.29.08.03.21-.08.35-.15-.05.1-.11.2-.17.31.16.06.4.08.41.39.08-.04.13-.06.22-.1.04.09.08.17.13.29.25.05.28.03.27-.3,0-.05,0-.1,0-.16,0-.03.03-.05.05-.07.13.06.25.1.36.15.22-.71,0-1.31-.29-1.91-.08-.16-.1-.35-.14-.54,0-.04.03-.09.05-.14.05.03.11.04.14.08.05.07.07.15.12.22.1.14.2.28.3.42.08.12.22.18.24.37.01.1.21.18.32.27.01.04.01.12.05.18.04.08.11.15.19.25h-.25l-.02.04c.07.04.13.08.2.12.34.19.41.34.36.74-.02.22,0,.44,0,.65,0,.1-.03.21-.06.31-.05.22-.1.44-.16.71.16-.02.29-.04.45-.05.01.01.04.05.08.09.03-.02.06-.03.06-.05,0-.15-.03-.3-.02-.45,0-.16.08-.33.05-.48-.05-.27.07-.51.09-.77.02-.21.1-.41.17-.64.14.12.18.1.26-.03.17-.28.39-.52.58-.79.14-.21.25-.43.4-.64.13-.18.27-.35.42-.52.15-.18.28-.38.45-.53.42-.37.86-.72,1.29-1.07.02-.01.04-.01.07-.02.07-.03.14-.07.21-.1-.06-.06-.12-.12-.17-.19-.07-.09-.13-.19-.2-.28.02-.01.03-.03.05-.04.06.07.13.14.2.2.05.04.12.11.18.1.05,0,.1-.09.14-.14.05-.06.09-.12.15-.17.26-.19.53-.37.8-.54.44-.28.88-.55,1.33-.83.06-.04.12-.09.15-.11.11-.03.21-.04.3-.07.51-.21,1.03-.42,1.54-.64.16-.07.42-.08.35-.41.07.06.11.09.15.13.04-.06.07-.11.13-.2.05.11.08.17.09.2.17.03.31.06.45.09l.04-.05c-.09-.07-.18-.14-.29-.22,0-.02.03-.08.06-.17.04.06.07.11.11.17.14-.23.21-.16.27.04.02.07.09.12.13.19.02,0,.04-.02.05-.02-.02-.18-.04-.37-.07-.56.12-.02.21-.04.32-.06.02.11.03.21.05.32.13.02.13.02.18-.21.03-.12.06-.24.09-.37.08.17.15.32.22.48.03,0,.06,0,.09,0,.1-.17.2-.35.31-.53.07.12.15.25.24.4-.19.08-.37.15-.58.25,0,0,.02.07.03.14-.19.1-.4.2-.6.3-.06-.08-.1-.13-.18-.23.01.13.02.19.02.25-.19.08-.43.11-.55.25-.22.25-.58.16-.77.34-.25.24-.58.23-.84.4-.16.1-.3.23-.46.35-.03.02-.05.07-.09.07-.17.03-.29.1-.19.28-.1-.03-.26-.07-.26-.07-.06.17-.46.07-.32.4-.23.07-.45.11-.65.21-.15.07-.26.22-.39.34-.27.23-.55.45-.82.67.44.43.87.85,1.3,1.26.27.26.52.54.8.78.18.15.4.25.6.38.21.14.42.28.63.43.05.04.09.1.12.16.04.07.06.17.12.22.45.41.55.99.72,1.53.1.32.18.65.24.98.02.09-.09.2-.14.31-.03-.01-.06-.03-.09-.04.03-.11.06-.23.1-.35-.42.03-.3-.37-.44-.56-.12-.18-.19-.4-.27-.6-.04-.1-.06-.22-.11-.32-.3-.58-.7-1.07-1.19-1.5-.76-.66-1.52-1.31-2.18-2.08-.08-.09-.21-.14-.28-.19-.39.38-.77.75-1.14,1.12-.29.29-.44.66-.62,1.03-.16.33-.22.7-.41,1.01-.03.05-.06.12-.09.12-.26.03-.24.26-.32.42-.02.04.01.1.03.14.04.1.09.19.14.29-.02.01-.03.02-.05.03.07.03.15.07.25.11-.08.06-.15.11-.2.14.04.07.07.14.11.2-.1.05-.19.12-.29.13-.06,0-.13-.08-.19-.13-.05-.04-.08-.1-.12-.16-.03,0-.05,0-.07,0-.04.13-.07.26-.11.39-.01.03-.06.05-.08.09-.03.07-.05.14-.07.21.02,0,.04.02.06.03-.07.02-.14.05-.23.08.14.19.31.23.51.15.04-.02.09,0,.14,0,.14,0,.26.03.32-.2.08-.28.37-.4.66-.44.57-.09,1.15-.19,1.72-.24.71-.07,1.42-.1,2.13-.14.09,0,.19.02.27.04.21.06.45.42.4.62,0,.04-.09.09-.13.09-.67.04-1.34.06-2.01.11-.48.04-.95.12-1.42.19-.24.03-.49.06-.73.1-.06.01-.11.06-.17.09.04.04.08.1.13.12.42.18.84.34,1.25.53.15.07.28.19.43.27.11.06.24.07.35.12.08.03.14.1.2.15.18.15.4.25.47.52.03.11.19.17.28.27.09.11.17.23.25.34-.02.02-.03.04-.05.06-.07-.03-.15-.04-.21-.08-.47-.28-.92-.59-1.4-.85-.34-.18-.72-.29-1.08-.43-.19-.08-.38-.16-.57-.24-.04-.02-.09-.02-.16-.03.03.16-.11.31.12.43.06.03.05.24.02.34-.02.06-.15.12-.23.13-.33.02-.32.02-.22.34.11.35.25.7.08,1.08-.02.05.03.15.08.2.23.24.48.47.7.72.13.14.27.3.32.47.11.45.42.78.64,1.16.15.27.3.53.44.81.16.32.02.63-.04.94-.02.1-.1.19-.13.29-.02.05-.01.12,0,.18.01.07.03.14.04.17-.16.11-.28.2-.41.3-.14-.28-.1-.53-.03-.82.03-.14-.07-.33-.15-.47-.21-.38-.43-.77-.68-1.13-.21-.3-.49-.55-.68-.86-.2-.32-.44-.58-.75-.79-.2-.13-.41-.23-.61-.36-.18-.11-.29-.27-.3-.5-.01-.19-.07-.39-.03-.57.05-.22.19-.42.28-.63-.1-.13-.23-.29-.36-.45-.2.3-.64.45-.82.26-.19-.21-.33-.48-.49-.72-.04-.06-.1-.12-.15-.18-.05.05-.11.1-.15.16-.1.14-.19.29-.28.43,0,.06,0,.14.02.21,0,.04.02.09.05.13.09.14.18.27.26.41.02.04.02.11,0,.15-.1.27-.08.29.2.3-.04.06-.07.12-.1.17-.09-.05-.16-.09-.29-.16.04.18.07.3.1.44.04-.02.09-.05.14-.07.12.17-.04.44-.27.49.18.34.17.38-.04.57.03.16.05.3.08.47h-.32c.12.1.2.16.3.24-.34.18-.41.5-.14.69-.14.13-.26.26-.4.4.1.07.3.14.05.3-.02.01.06.17.09.27-.25.06-.22.29-.21.52-.05,0-.1.01-.11.02-.12.37-.24.72-.37,1.12-.07-.1-.09-.14-.12-.18-.02.02-.03.04-.03.04.21.19.03.35-.05.51-.13.28-.28.56-.43.83-.12.22-.24.44-.38.65-.21.33-.23.7-.22,1.08,0,.12-.01.24-.02.36-.02,0-.05.02-.07.02-.07-.11-.17-.21-.21-.33-.06-.19-.16-.41-.11-.58.04-.15.1-.31.14-.47.03-.11.02-.23,0-.36.24-.33.68-.58.45-1.16.16-.2.34-.43.53-.68-.02-.05-.04-.11-.06-.18.02,0,.03,0,.05,0,.02-.11.04-.22.06-.37-.03,0,.02,0,.02,0,.04-.25.34-.42.23-.72-.02-.04.03-.12.07-.17.05-.08.12-.14.17-.21-.15-.18-.13-.24.06-.35.01-.09,0-.15.02-.19.03-.06.07-.13.12-.17.3-.19.17-.42.09-.66-.02-.05-.02-.1-.03-.22.1.08.13.11.17.14.01-.01.02-.02.04-.03-.03-.04-.06-.08-.1-.12-.03-.04-.07-.07-.11-.1.05-.03.09-.07.14-.1.05-.03.1-.05.2-.1-.1-.04-.15-.06-.22-.09.08-.09.15-.16.23-.25-.07-.01-.13-.02-.22-.03.11-.17.21-.33.31-.5-.05-.03-.09-.05-.14-.08.07-.04.15-.08.27-.15-.13-.1-.23-.19-.36-.29.1-.08.22-.18.33-.26.02-.18.05-.37.06-.56,0-.06-.03-.14-.07-.17-.24-.17-.44-.4-.77-.38-.03,0-.06-.01-.09-.02.01-.02.02-.04.04-.06-.09-.07-.17-.16-.27-.19-.28-.09-.39-.33-.53-.54-.02-.02.01-.08.03-.12.06-.1.12-.19.22-.34-.2,0-.34-.01-.47,0-.72.07-1.43.15-2.15.22-.07,0-.13.05-.19.07-.14.04-.28.1-.43.11-.32.04-.64.07-.95.08-.38.02-.77.03-1.15.04-.13,0-.25,0-.37,0,.01-.09.03-.17.03-.22,1.57-.57,3.18-.98,4.87-1.1-.3.02-.35-.18-.41-.39-.04-.14-.11-.26-.17-.4-.27.03-.44-.16-.61-.31-.05-.04,0-.19-.03-.27-.08-.17-.19-.32-.32-.51-.03.09-.04.13-.08.25-.17-.27-.3-.52-.47-.73-.16-.19-.38-.32-.56-.49-.18-.18-.35-.37-.52-.56-.07-.07-.14-.14-.19-.22-.1-.16-.25-.3-.21-.53.02-.11-.2-.23-.31-.17Z"/>
      <path class="cls-1" d="M1.91,70.27c.13.1.18.06.28-.19.03.02.07.03.07.05.06.45.4.76.59,1.15.01.02.04.04.04.06-.08.31.23.4.34.6.11.2.3.36.43.55.06.09.09.21.11.32.04.31.15.39.46.37.05,0,.12.04.16.08.09.08.14.21.24.27.18.11.17.21.02.36.11,0,.19,0,.26,0,.21-.03.23-.01.15.2.27.05.63.03.54.51.3-.19.47,0,.66.17.05.05.15.06.22.1.09.05.17.12.26.19.14-.21.18-.1.23.08.06.22.23.28.43.15.03.08.06.16.1.26.08-.06.14-.1.2-.15q.36.25.58-.01c.14.18.28.08.45.04.4-.09.82-.13,1.23-.17.06,0,.12.06.19.08.28.11.54.16.82-.05.1-.08.27-.07.4-.12.11-.04.22-.12.33-.16.08-.03.17,0,.24,0,.17-.14.34-.28.51-.41v.04c.13-.05.24-.09.35-.14.14-.06.27-.14.42-.19.31-.12.62-.24.93-.36.06-.02.12-.04.16-.08.24-.2.54-.23.82-.33.06-.02.15.05.25.08-.04.07-.07.14-.11.18-.4.33-.79.67-1.2.99-.12.09-.3.09-.43.16-.33.18-.66.37-.98.57-.28.18-.54.39-.82.57-.12.07-.27.13-.41.13-.42,0-.83,0-1.25-.03-.22-.01-.4-.02-.62.08-.25.11-.62.1-.89,0-.3-.11-.61-.09-.91-.14-.36-.06-.63-.28-.94-.41-.22-.09-.42-.22-.63-.33-.44-.24-.9-.47-1.33-.74-.2-.12-.35-.32-.52-.47-.24-.2-.54-.36-.71-.6-.33-.48-.86-.79-1.12-1.32-.37-.76-.78-1.51-1.03-2.33-.21-.68-.46-1.34-.68-2.02-.09-.28-.12-.57-.17-.86-.1-.52-.23-1.04-.29-1.56-.05-.42-.02-.84-.03-1.26,0-.56-.05-1.13,0-1.68.04-.42.01-.85.28-1.27.45-.71.77-1.49,1.19-2.22.32-.56.77-1.03,1.28-1.43.58-.46,1.12-.98,1.71-1.43.44-.33.92-.62,1.52-.64.73-.02,1.46-.13,2.19-.12.62.01,1.25.13,1.87.23.38.06.75.15,1.12.23-.02.07-.02.18-.07.22-.12.08-.27.17-.4.16-.42-.03-.83-.06-1.25-.04-.08,0-.17,0-.22-.05-.32-.24-.68-.15-1.03-.16-.39-.02-.79-.05-1.18-.06-.26-.01-.53-.04-.79.05-.15.05-.33.01-.49,0-.11,0-.22-.04-.26.11,0,.03-.08.05-.13.07-.19.07-.38.11-.56.2-.41.22-.74.54-1.07.87-.17.17-.35.33-.53.49-.11.11-.22.21-.32.33-.21.23-.44.46-.64.71-.28.34-.55.69-.79,1.06-.3.46-.58.93-.84,1.41-.11.22-.21.45-.19.73.02.23.01.5-.1.69-.1.16-.01.19.02.3.05.16,0,.34-.02.52,0,.08-.05.16-.04.24.04.38.09.76.13,1.18-.08-.05-.12-.08-.17-.11l-.03.03s.08.08.1.13c.05.11.16.23.14.33-.06.36.04.68.1,1.02.04.25.21.49.09.76-.02.04.05.14.1.19.32.34.44.75.44,1.2,0,.06.07.12.1.19.19.42.4.84.56,1.28.04.12,0,.32-.22.38Z"/>
      <path class="cls-1" d="M9.51,80.39c-.13.04-.23.04-.28.1-.12.14-.22.27-.39.06-.02-.02-.07-.02-.1-.03-.03.1-.06.19-.09.28-.06-.03-.11-.05-.2-.09-.08.14-.16.28-.24.44-.13-.23-.22-.04-.36.03-.29.15-.6.26-.9.38-.23.09-.46.19-.69.29-.02.05-.04.16-.09.18-.34.15-.68.29-1.04.4-.16.05-.31.09-.47.16-.18.09-.39.1-.59.13-.39.07-.79.12-1.18.19-.29.05-.58.13-.87.15-.21.02-.43,0-.64-.05-.35-.09-.7-.22-1.04-.35-.16-.06-.23-.18-.22-.38,0-.2-.09-.41-.12-.62-.01-.11.03-.23.04-.37.21.1.38.19.56.27.07.03.15.04.22.05.09.01.19,0,.28.01.52.1,1.03-.08,1.54-.11.24-.02.48-.02.72,0,.56.03,1.09-.09,1.6-.27.25-.09.49-.22.74-.32.17-.07.36-.08.52-.16.19-.09.36-.22.53-.33.05-.03.12-.09.14-.08.18.12.25-.02.33-.12.12-.14.28-.15.45-.16.04,0,.08-.02.11-.04.13-.05.26-.11.39-.17.05-.02.08-.06.13-.09.06-.03.13-.08.18-.06.17.05.3.05.43-.13.09-.11.26-.16.4-.23.03.01.09.04.15.07.02-.06.04-.11.06-.17.01-.04.02-.1.05-.11.02-.01.09,0,.11.03.15.21.25.06.3-.06.08-.21.14-.37.41-.25.03.01.13-.09.16-.16.03-.08,0-.17,0-.24.1.04.2.07.31.11.04-.12.08-.23.13-.38.07.03.17.08.28.13.07-.13.14-.26.21-.41.03.06.05.1.08.16.07-.03.14-.06.2-.1l.04.03c-.05.09-.09.19-.15.26-.15.18-.27.36-.14.6.02.03,0,.1-.02.12-.1.11-.21.21-.32.32,0-.04-.01-.11-.03-.24-.19.13-.35.25-.51.36-.03.02-.06.07-.09.07-.23.01-.25.17-.25.34,0,.03-.02.06-.03.09-.25-.1-.71.2-.77.45Z"/>
      <path class="cls-1" d="M36.92,33.99c.08.12.13.19.21.3.04-.12.06-.19.08-.28.13.07.38.06.16.31.16.3-.11.5-.16.78-.2-.09-.38-.17-.57-.25-.08-.04-.17-.07-.25-.1-.33-.09-.66-.18-.99-.26-.36-.09-.71-.18-1.07-.27-.1-.03-.19-.07-.28-.12-.26-.12-.51-.24-.76-.36-.04-.02-.1-.02-.13-.05-.3-.39-.83-.47-1.14-.85-.31-.37-.66-.7-1-1.04-.12-.12-.29-.17-.41-.29-.18-.18-.34-.38-.5-.58-.6-.69-.79-1.52-.83-2.41-.03-.83.05-1.64.31-2.41.13-.39.13-.77.18-1.15.04-.39.04-.79.08-1.18.02-.24.07-.47.12-.71.07-.34.15-.68.22-1.02,0-.01.02-.03.01-.04-.09-.23.03-.35.16-.4.04-.3.04-.56.12-.79.16-.47.36-.93.7-1.31.08-.1.09-.26.15-.38.11-.22.2-.24.4-.13-.04-.07-.08-.14-.13-.24.08-.04.16-.09.25-.13.15.11.14.19.04.33-.26.35-.51.71-.73,1.08-.09.16-.07.39-.13.58-.05.17-.14.34-.2.51-.05.14-.08.29-.12.43-.17.62-.39,1.22-.49,1.85-.09.5-.05,1.02-.04,1.53,0,.3.06.6.05.9,0,.14-.12.28-.15.42-.12.6-.28,1.19-.31,1.79-.02.35.16.72.3,1.06.23.57.5,1.12.98,1.52.01,0,.04.02.03.03-.07.19.11.21.18.32.21.34.52.57.83.81.08.06.15.15.23.21.16.12.32.24.48.36.29.23.55.51.88.69.4.21.84.34,1.26.5.28.11.56.22.84.31.15.05.31.07.46.11.12.03.25.06.36.12.14.07.25.12.29-.13Z"/>
      <path class="cls-1" d="M58.2,6.62c-.07.03-.15.07-.22.1.25-.3.48-.61.46-1.04.01.11.02.22.04.38.03-.08.05-.12.05-.15-.04-.45.17-.82.35-1.21.15-.32.29-.64.45-.95.1-.2.22-.38.34-.57.15-.24.27-.49.45-.69.17-.19.22-.5.55-.55.2-.03.34.09.51.13.08.02.18.12.19.2.03.14.03.32-.02.44-.08.19-.12.42-.36.51-.02,0-.04.07-.04.1.02.36-.19.6-.41.84-.08.1-.12.24-.21.33-.13.12-.29.22-.45.3-.4.22-.55.62-.71,1-.24.59-.57,1.14-.87,1.69-.19.35-.33.74-.56,1.07-.22.32-.32.65-.39,1.03-.06.37-.2.74-.34,1.09-.12.29-.32.55-.45.83-.08.17-.1.36-.14.55,0,.02.07.05.12.09q-.28.16-.25.5c-.12,0-.24.01-.42.02.04-.16.07-.29.11-.42.08-.23.17-.46.26-.69.07-.16.17-.31.23-.48.08-.21.12-.43.14-.66-.36.48-.34,1.12-.75,1.57.13-.37.25-.75.39-1.12.28-.73.56-1.46.84-2.19.04-.11.1-.23.16-.33.03-.05.09-.1.14-.12.18-.06.27-.17.33-.36.09-.27.25-.51.37-.76.07-.16.12-.33.17-.49-.02-.01-.05-.02-.07-.03Z"/>
      <path class="cls-1" d="M30.34,39.58c-.17.05-.3.1-.49.16.15.06.28.12.41.17.13.05.26.09.24.28-.09-.03-.16-.06-.23-.09-.01.01-.02.02-.04.04.05.08.09.17.16.23.14.11.2.25.18.42,0,.06-.03.12-.05.17-.05-.04-.11-.07-.14-.12-.1-.18-.2-.37-.3-.58-.24.14-.28.02-.24-.19-.3.02-.59.04-.76-.28-.02-.04-.14-.06-.19-.04-.22.09-.36,0-.49-.16-.03-.04-.08-.07-.14-.12,0,.09,0,.15-.01.26-.09-.07-.16-.12-.22-.17-.22-.21-.49-.27-.79-.31-.31-.04-.62-.19-.92-.28-.06-.02-.13,0-.22,0-.26-.07-.54-.17-.82-.22-.24-.04-.48-.05-.73-.05-.33,0-.65.04-.98.07-.35.03-.7.09-1.06.12-.1,0-.2-.05-.31-.08-.12.21-.53.25-.82.04-.01.11-.02.19-.03.28-.13-.07-.26-.08-.33.15-.21-.27-.33.05-.5.04-.16,0-.33.05-.5.05-.12.08-.16.29-.41.24-.07-.01-.17.11-.26.17-.2.14-.38.28-.59.4-.07.04-.17,0-.3,0,.13-.13.23-.24.32-.34.32-.35.72-.6,1.12-.85.07-.04.16-.05.24-.07.65-.15,1.3-.32,1.96-.45.49-.1.99-.15,1.48-.22.12-.02.24.03.37.02.49,0,.97-.03,1.46-.04.21,0,.43.08.61.02.3-.09.5.07.74.15.26.09.55.07.81.14.25.07.48.18.72.28.05.02.1.1.15.1.43-.05.72.22,1.02.45.05.04.15.03.23.04.04,0,.09-.02.13,0,.16.04.31.1.53.17Z"/>
      <path class="cls-1" d="M44.12,15.31c-.69-.15-1.35-.32-2.01-.43-.36-.06-.73-.01-1.1-.02-.15,0-.3-.02-.44-.06-.62-.16-1.23-.05-1.85.03-.84.11-1.67.22-2.52.29.58-.47,1.36-.45,2.03-.79.1.07.24.1.41-.05.11-.09.32-.07.49-.08.54-.05,1.08-.09,1.62-.12.62-.04,1.24-.08,1.85.09.08.02.16.05.24.09.2.11.42.21.6.35.24.18.45.4.67.6.02.02,0,.07,0,.1Z"/>
      <path class="cls-1" d="M30.8,40.66c.08-.05.16-.09.24-.14.01,0,.03.01.04.02.22.05-.15.4.23.42.1,0,.19.3.28.46,0,.02,0,.04,0,.07-.2.06-.29-.06-.37-.2-.03-.05-.08-.09-.14-.11-.25-.08-.25-.3-.28-.52Z"/>
      <path class="cls-1" d="M16.22,43.53c.13-.02.22-.03.34-.05-.13.23-.25.44-.4.7.06.17.1.4-.09.64-.07-.07-.15-.14-.2-.19.07-.12.16-.21.19-.31.07-.26.11-.52.16-.78Z"/>
      <path class="cls-1" d="M16.68,42.66s.06.04.11.08c-.1.08-.19.16-.28.24.16-.42.28-.84.67-1.13.03.24-.29.72-.5.81Z"/>
      <path class="cls-1" d="M28.94,43.55c-.23-.24-.27-.48-.08-.69.04-.04.17-.05.2-.02.12.13.03.58-.12.71Z"/>
      <path class="cls-1" d="M32.51,18.11c.06-.02.1-.04.19-.08-.17.23-.31.42-.45.62-.07-.11-.12-.17-.16-.23.16-.2.33-.41.49-.61.02.02.04.03.07.05-.04.08-.08.16-.14.26Z"/>
      <path class="cls-1" d="M17.74,41.44h-.32s-.03.04-.04.07c.05.02.1.04.16.06-.09.08-.16.15-.24.22-.18-.18-.03-.31.04-.43.07-.11.23-.08.4.09Z"/>
      <path class="cls-1" d="M10.93,64.21s-.1-.05-.14-.09c-.05-.04-.09-.09-.14-.14.06-.04.13-.13.19-.12.1.02.18.09.29.15-.09.08-.15.13-.21.19,0,0,0,0,0,0Z"/>
      <path class="cls-1" d="M59.99,1.34c.08.05.17.09.26.14-.05.08-.1.18-.16.27-.06.09-.12.17-.17.23.02-.2.05-.42.07-.65,0,0,0,0,0,0Z"/>
      <path class="cls-1" d="M15.95,83.06c-.01.14-.02.28-.03.42-.03.02-.06.04-.08.05-.06-.07-.12-.14-.19-.22.11-.12.18-.2.25-.28l.05.02Z"/>
      <path class="cls-1" d="M37.48,33.89c-.31,0-.17-.31-.33-.4.2,0,.32.17.33.4Z"/>
      <path class="cls-1" d="M54.32,10.21c-.05.17-.09.35-.14.52-.04-.01-.08-.02-.12-.03.05-.17.11-.34.16-.52.03,0,.06.02.1.03Z"/>
      <path class="cls-1" d="M18.36,40.58c-.06.08-.12.16-.2.25-.05-.02-.12-.05-.27-.11.18-.08.31-.14.44-.2,0,.02.02.04.02.06Z"/>
      <path class="cls-1" d="M57.62,7.43c-.1.23-.2.47-.31.7-.02,0-.04-.02-.06-.03.1-.24.2-.47.3-.71.02,0,.04.02.06.03Z"/>
      <path class="cls-1" d="M17.26,71.38c.13.08.21.13.28.17v.08c-.09,0-.18.01-.26.02,0-.07,0-.14-.02-.27Z"/>
      <path class="cls-1" d="M15.68,73.61c-.08-.05-.17-.11-.32-.21.15-.03.24-.05.33-.07l.05.25-.06.03Z"/>
      <path class="cls-1" d="M52.13,11.39c.04.14.09.28.14.42-.28-.11-.31-.2-.14-.42Z"/>
      <path class="cls-1" d="M17.69,41.01c.08-.04.17-.08.32-.16-.04.13-.04.24-.07.25-.07.03-.16,0-.24,0,0-.03,0-.06,0-.09Z"/>
      <path class="cls-1" d="M41.23,42.11c-.08.05-.16.09-.24.14,0-.1.02-.19.03-.29,0-.08.01-.17.03-.25.06-.25.17-.45.48-.45.14.08,0,.32.19.4-.04.06-.06.13-.11.17-.12.1-.25.19-.38.28,0,0,0,0,0,0Z"/>
      <path class="cls-1" d="M35.64,63.77c.21-.09.36-.1.45.1-.19.17-.28-.04-.45-.1Z"/>
      <path class="cls-1" d="M49.43,28.16c.16-.14.32-.27.47-.41.02.02.04.04.05.06-.16.14-.32.27-.48.41-.01-.02-.03-.04-.04-.06Z"/>
    </g>
  </g>
</svg>