<?xml version="1.0" encoding="UTF-8"?>
<svg id="Layer_2" data-name="Layer 2" xmlns="http://www.w3.org/2000/svg" viewBox="0 0 80.05 111.82">
  <defs>
    <style>
      .cls-1 {
        fill: #000;
        stroke-width: 0px;
      }
    </style>
  </defs>
  <g id="illustrations">
    <g>
      <path class="cls-1" d="M18.13,61.5c.35.19.7.38,1.11.6-.41-.68-.72-1.35-.99-2.07-.2,0-.23-.26-.3-.43-.16-.42-.32-.85-.42-1.3-.14-.6-.23-1.21-.34-1.81-.06-.33-.15-.66-.16-1-.01-.37-.14-.45-.6-.51.3-.02.25-.24.28-.42.04-.2.04-.38-.13-.51.16-.16.14-.28-.06-.41.02-.15.04-.3.06-.46-.04-.02-.09-.04-.17-.08.14-.15.33-.31-.04-.42.08-.08.14-.15.2-.21-.07-.04-.14-.08-.27-.16.12-.02.16-.03.2-.03,0-.02,0-.04,0-.04-.28-.25-.08-.57-.13-.86-.05-.3-.01-.61-.05-.92-.04-.36-.12-.71-.16-1.06-.04-.27-.04-.54-.08-.81-.01-.09-.1-.17-.11-.26-.03-.19-.02-.38-.05-.56-.01-.08-.05-.17-.09-.26.03-.42.12-.87.07-1.3-.03-.29-.01-.58-.04-.88-.03-.31-.08-.59-.42-.76.38-.14.52.18.7.32.18.15.28.41.42.61.27-.03.32.05.25.4h.2c0,.06,0,.13,0,.19,0,.04-.01.09,0,.12.31.46.31.64,0,1.11-.06.08-.06.21-.08.31-.03.26-.07.53-.05.79.01.22.11.43.13.65.07.78.51,1.43.75,2.15.15.45.24.91.35,1.37.09.37.17.75.26,1.12.12.53.25,1.05.35,1.58.16.8.27,1.61.45,2.4.18.8.41,1.6.63,2.42.32-.31.58-.62.88-.87.43-.35.89-.67,1.33-1,.02-.01.04-.04.06-.04.72-.22,1.15-.8,1.65-1.29.08-.07.17-.13.25-.19.17-.13.36-.26.52-.41.57-.52,1.14-1.05,1.71-1.58.88-.8,1.73-1.63,2.5-2.54.34-.4.66-.81.97-1.23.14-.19.22-.42.36-.62.24-.33.52-.64.75-.98.17-.26.43-.44.58-.67.2-.31.51-.52.69-.85.18-.33.4-.63.63-.92.21-.27.44-.51.66-.77.04-.05.05-.14.08-.21-.02,0-.04-.02-.06-.02.12-.14.25-.28.37-.44.03-.04.02-.11.02-.17h0c.15-.13.31-.25.43-.4.23-.29.41-.62.64-.91.11-.13.27-.22.42-.33-.02-.03-.05-.07-.09-.12.36-.15.48-.49.69-.77.18-.24.39-.45.61-.69-.07-.03-.12-.06-.18-.08-.02-.02-.03-.04-.05-.06.66-.03.74-.63,1.05-1.02-.02-.01-.06-.05-.14-.11.14-.05.25-.09.4-.14-.07-.05-.12-.09-.16-.12,0-.01.02-.04.03-.04.39.02.52-.33.73-.54.26-.27.48-.56.85-.71.32-.12.52.03.74.21.24.2.5.37.72.59.07.07.09.25.07.36-.04.18-.01.34.14.41.14.07.31.07.46.09.04,0,.11-.06.14-.04.28.14.42-.08.58-.22.32-.28.64-.43,1.09-.24.26.11.57.1.85.16.22.04.43.1.64.16.74.19,1.49.38,2.23.57.15.04.31.08.45.15.51.26,1.07.3,1.62.36.38.05.72.19.98.49.08.09.21.16.25.26.12.27-.11.45-.21.66-.03.06-.09.12-.11.18-.05.14-.08.28-.12.43-.03.09-.07.19-.09.28-.03.11-.03.22-.05.36-.12-.09-.21-.18-.18-.38.04-.26.03-.52.05-.83-.25-.08-.52-.16-.77-.26-.21-.08-.41-.21-.62-.29-.23-.09-.48-.17-.72-.23-.95-.25-1.9-.52-2.87-.73-.57-.12-1.17-.13-1.75-.19-.18-.02-.36-.03-.55-.03-.16,0-.31.02-.51.03.1.19.17.34.25.49.38.72.67,1.49,1.2,2.13.18.21.39.41.58.61l.06-.05c-.09-.17-.18-.33-.26-.5-.03-.07-.05-.21,0-.24.07-.06.2-.12.29-.09.67.17,1.35.32,1.98.57.33.13.67.14.99.27.33.13.67.26.99.41.12.06.19.2.29.28.24.2.49.39.74.57.15.11.32.18.46.29.06.05.09.15.11.23,0,.02-.11.08-.17.09-.27.05-.18.3-.25.45-.05.1-.06.21-.09.33-.4-.28-.78-.52-1.13-.79-.54-.42-1.06-.86-1.59-1.3-.33-.27-.73-.18-1.11-.19-.21,0-.43,0-.66.06.49.48.98.96,1.46,1.45.67.69,1.34,1.38,1.99,2.1.26.29.45.63.68.94.03.04.07.1.1.1.35.01.49.3.66.52.43.54.83,1.11,1.27,1.65.28.34.59.66.9.98.5.53,1.01,1.05,1.52,1.57.32.32.65.63.96.95.09.09.27.19.16.32.11.08.24.15.34.25.47.46.94.92,1.39,1.39.18.19.34.4.52.59.03.04.09.06.14.09.03-.05.07-.1.09-.16.22-.68.44-1.36.64-2.05.25-.86.5-1.72.73-2.59.24-.9.47-1.81.68-2.72.08-.34.09-.69.13-1.03,0-.04-.05-.08-.08-.11.04-.06.13-.12.13-.19.02-.29.18-.57.06-.87,0-.02,0-.05.01-.07.33-1.03.5-2.09.65-3.16.01-.1.08-.19.13-.3,0,0-.06-.07-.05-.12.06-.34.13-.67.21-1.04.03,0,.11-.01.17-.02-.05-.33-.32-.42-.62-.49.02-.04.03-.07.05-.11.21.02.42.04.62.06,0-.02,0-.03.01-.05-.16-.04-.33-.08-.48-.12.43-.06.88-.12,1.37-.19-.04-.74-.08-1.43-.12-2.09-.44-.08-.85-.17-1.26-.24-.07-.01-.15,0-.22,0-.09-.02-.22-.03-.25-.09-.13-.26-.24-.54-.32-.82-.07-.27.04-.4.32-.36.21.03.37-.04.55-.08.36-.1.74-.16,1.12-.24,0-.33-.01-.68,0-1.03.02-.31-.19-.62.06-1,.1.36.07.79.62.62-.05.39-.08.74-.13,1.1-.03.2,0,.28.23.3.18.02.37.12.53.22.18.11.32.28.5.4.3.2.35.32.23.65-.14.37-.22.42-.62.34-.28-.05-.56.17-.55.45.01.55.04,1.1.06,1.66,0,.13,0,.27,0,.4,0,.06.06.11.09.16.04-.03.1-.05.13-.09.19-.19.31-.16.44.06.06.11.18.2.27.29.23.24.19.44-.12.53-.02,0-.04.02-.1.05.18.8.36,1.61.53,2.42.2.91.38,1.83.57,2.74.26,1.23.5,2.46.79,3.68.25,1.09.55,2.18.83,3.26.1.36.22.72.31,1.09.08.28.12.57.21.85.11.35.25.68.37,1.03.03.1.19.2,0,.31,0,0,0,.06.03.09.42.56.53,1.25.79,1.87.1.24.12.51.19.76.02.06.11.1.18.13.34.12.69.24,1.01.35.06.61-.37.81-1,1.03.04-.1.09-.2.14-.31-.03,0-.07-.02-.12-.04.02-.04.04-.08.08-.16-.11,0-.21-.01-.32-.02.07.26-.37.44-.01.72-.12,0-.2.01-.3.02.1.12.18.21.21.25-.03.14-.04.23-.07.31-.04.09-.08.21-.15.24-.16.06-.22.15-.25.3-.01.07-.06.13-.07.13-.04.29-.06.53-.1.76-.06.36-.14.72-.21,1.09,0,.04.04.1.08.13.21.19.42.36.65.56-.29.29-.54.54-.95.37.08.22.15.43.22.64.06.17.07.41.19.5.19.15.09.35.15.52.07.18.19.41.05.63-.01.02.03.08.05.13.04.11.11.22.1.32-.08.47,0,.93.09,1.38.02.11-.03.23-.05.34-.03.25-.14.49-.02.75.08.19.2.4-.04.59-.03.02,0,.14.02.21.09.29.07.42-.15.64.2.16.28.34.01.53.06.07.1.13.15.18-.11.22-.12.43-.08.67.03.19.22.39.07.61-.02.04,0,.11.03.17,0,.03.06.07.05.08-.18.21.06.44-.03.65,0,.02-.03.06-.03.07.18.2.08.41.03.61-.07.29.11.55.06.84-.01.06.04.13.06.2.01.05.05.11.03.13-.15.27-.04.55-.01.82.03.28.08.55.11.83.03.37.05.74.08,1.11.02.25.07.51.06.76-.01.25-.11.5-.13.75-.02.17.03.34.08.51-.02.16-.06.32-.05.47.02.3.08.6.11.91.02.26.05.52.02.77-.03.35-.04.68.13.93-.03.14-.09.24-.08.34.06.79.13,1.58.18,2.37.03.49,0,.98.02,1.47.01.42.05.84.06,1.26,0,.1.23.21-.06.28.1.08.15.12.2.17,0,.02,0,.03,0,.03-.3.19-.11.48-.13.72,0,.06.02.13.05.2.02.06.08.11.09.17.02.37.08.75.03,1.11-.06.42.12.8.13,1.2,0,.15.01.32-.05.45-.2.4-.05.8-.03,1.2.03.54.09,1.08.14,1.61-.12.1-.37-.07-.38.23.1-.04.19-.08.34-.14,0,.2,0,.36,0,.52,0,.11.04.22.07.34h-.23c-.02-.19-.04-.37-.06-.54h-.12c.02.22,0,.44.07.63.06.17.23.3.36.46-.12.05-.22.09-.35.14.15.13.24.25.21.46-.02.11.11.24.17.36-.24.13-.35.1-.48-.2.07-.02.13-.05.21-.08-.02-.04-.03-.08-.06-.1-.14-.11-.19-.23-.21-.42-.07-.77-.18-1.54-.24-2.31-.05-.63-.04-1.25-.06-1.88,0-.11-.05-.22-.09-.36.01-.01.1-.07.1-.12,0-.55,0-1.11-.02-1.66-.04-.89-.09-1.78-.14-2.67-.01-.21-.04-.42-.04-.62.02-.37.05-.74.09-1.11.03-.26.1-.51.08-.76-.01-.14-.09-.35-.29-.32.04-.08.11-.16.11-.23-.05-.81-.11-1.61-.17-2.42-.06-.79-.08-1.59-.21-2.37-.07-.41-.17-.8-.2-1.22-.04-.6-.08-1.21-.17-1.8-.03-.21-.08-.43-.14-.65-.05-.18-.1-.37-.34-.4-.03,0-.06-.06-.09-.1h.33c-.03-.39-.05-.82-.09-1.24-.03-.43-.06-.86-.1-1.3-.03-.33-.1-.66-.12-1-.03-.54-.04-1.08-.05-1.63,0-.34-.01-.67-.01-1.01,0-.13.02-.27.03-.43,0,0-.05-.04-.14-.11.07-.05.13-.09.2-.13-.11-.15-.21-.29-.08-.49.05-.07-.01-.21-.02-.32,0-.06-.03-.13-.02-.19,0-.14.03-.28.04-.42,0-.07-.03-.14-.06-.27-.01,0,.04-.02.08-.05.03-.2-.19-.39-.01-.59,0,0-.08-.07-.08-.11,0-.08.04-.17.03-.25,0-.08-.06-.15-.09-.23.03-.11.08-.25.1-.39.03-.21-.16-.17-.29-.23.09-.1.17-.18.29-.31-.12.03-.18.04-.23.05-.04-.09-.08-.18-.13-.29.1.02.17.03.27.04-.04-.15-.08-.3-.12-.44.02-.01.05-.02.07-.04-.09-.05-.19-.09-.28-.14.02-.27.02-.27-.23-.17-.03.01-.07.02-.09,0-.24-.13-.53-.06-.76-.2-.3-.18-.61-.03-.92-.05-.51-.04-1.03-.06-1.54-.05-.61.02-1.22.08-1.85.15.39.16.56.51.76.83.03.05.1.06.16.09.09.04.24.07.25.12.02.11,0,.25-.05.37-.14.4-.25.79-.16,1.22.06.27.12.51,0,.81-.11.25-.05.58,0,.87-.05.07-.12.14-.14.23-.1.37-.29.36-.57.37-.39.02-.39,0-.37.38.12.08.24.15.33.2-.02.14-.01.26-.05.36-.04.08-.12.16-.2.2-.18.08-.37.13-.57.19-.03-.07-.07-.13-.08-.16-.17.1-.33.19-.49.29,0-.01-.02-.03-.03-.04.12-.1.24-.21.41-.35-.15-.03-.23-.05-.31-.07.11-.09.22-.18.32-.27.26.21.47.17.67-.16-.15.07-.27.12-.43.19-.01-.14-.02-.29-.04-.44-.08.07-.11.15-.14.24-.02.06-.04.12-.06.18-.01-.21-.02-.42-.04-.67-.02-.01-.1-.05-.13-.07.1-.33.2-.63.29-.93l-.06-.02c.07-.05.13-.11.2-.16-.37.14-.27-.32-.49-.37.06-.04.12-.07.18-.11.03.05.05.11.08.16.03,0,.06,0,.08,0-.2-.81-.06-1.61-.06-2.46-.04-.15-.13-.34-.16-.54-.03-.2-.11-.33-.28-.45-.17-.12-.32-.13-.47-.06-.19-.28-.37-.54-.54-.81-.02-.03.01-.08,0-.11-.07-.11-.05-.31-.28-.28-.05,0-.15-.1-.17-.17-.13-.56-.24-1.12-.36-1.68,0-.03-.02-.06-.04-.09-.07-.16-.22-.29-.18-.5.02-.14-.18-.24-.12-.42,0-.02-.11-.07-.15-.12-.19-.23-.16-.51-.16-.78,0-.46-.2-.85-.37-1.25-.02-.04-.05-.09-.05-.14,0-.21,0-.42,0-.65.36.18.37-.11.43-.34.17-.59.34-1.18.49-1.77.05-.21.03-.43.05-.68-.52.07-.7-.41-1.02-.68-.56-.5-1.13-.99-1.67-1.52-.39-.39-.7-.85-1.07-1.25-.54-.57-1.11-1.13-1.68-1.67-.12-.11-.27-.22-.47-.11-.06.03-.17.06-.21.02-.29-.26-.69-.35-.92-.73-.17-.27-.5-.43-.74-.66-.28-.27-.55-.55-.82-.83-.41-.44-.84-.86-1.21-1.33-.47-.6-1.06-1.07-1.62-1.58-.27-.25-.48-.56-.7-.85-.17-.22-.32-.46-.49-.69-.13-.17-.28-.33-.41-.5-.03-.03-.01-.1-.03-.14-.01-.04-.04-.1-.07-.1-.24,0-.32-.15-.34-.37-.07-.01-.14-.02-.19-.03.02-.05.06-.11.04-.13-.11-.15-.23-.3-.36-.43-.17-.16-.4-.28-.53-.46-.48-.73-1.18-1.24-1.72-1.92-.22-.28-.54-.48-.73-.77-.15-.23-.22-.21-.38-.04-.23.26-.47.52-.71.77-.36.37-.73.74-1.09,1.1-.08.08-.15.17-.22.25-.05.06-.09.15-.15.16-.39.11-.51.49-.75.75-.74.78-1.46,1.58-2.18,2.38-.11.12-.21.25-.31.38h0c-.23.21-.45.42-.68.62-.44.37-.63.91-.96,1.34-.51.67-1.07,1.3-1.59,1.96-.26.33-.48.7-.73,1.03-.24.31-.48.62-.76.89-.75.72-1.52,1.43-2.29,2.13-.69.63-1.4,1.24-2.09,1.86-.32.28-.61.61-.96.84-.42.28-.9.48-1.34.73-.3.16-.63.29-.84.6-.03.05-.11.06-.17.08-.28.1-.6.54-.57.78-.09.07-.19.12-.24.19-.05.07-.07.17-.1.27.04.06.1.15.14.21-.13,0-.26-.02-.4-.02,0,.03-.01.06-.02.1.13.03.26.06.41.1-.06.09-.11.16-.14.21.17.22.33.44.51.64.05.06.15.08.23.12.14.08.33.13.42.25.16.23.04.46-.23.46-.24,0-.47-.09-.74-.15-.04.07-.02.34-.32.19-.02.2.03.33.24.31.19-.01.33.03.33.26,0,.17-.18.33-.35.33,0-.08.01-.17.03-.32-.23.19-.41.35-.6.49-.09.06-.27.05-.3.12-.09.17-.13.38-.02.57.12.19.23.37.08.6-.02.02.05.1.06.12-.01.34-.04.65-.04.96,0,.3.01.6.08.89.08.31.24.6.38.92-.13-.04-.28-.12-.3-.09-.07.08-.12.21-.12.31.01.16-.06.31.04.5.07.15-.04.38-.06.58-.16,1.56-.32,3.13-.49,4.69-.09.79-.21,1.58-.28,2.37-.04.48,0,.97-.03,1.45-.04.8-.09,1.59-.13,2.39-.03.59-.05,1.18-.07,1.78-.01.46,0,.91,0,1.38.02,0,.07,0,.13.01,0,.03,0,.05,0,.06-.16.09-.17.21-.16.39,0,.45-.06.89-.08,1.34-.02.28-.02.56-.02.84,0,.28.04.56,0,.85-.09.52-.05,1.05-.08,1.58,0,.1-.07.2-.13.34.13.17.15.39-.02.65-.04.06-.15.08-.23.12,0,0,0,0,0,0,.05-.14.09-.27.14-.42-.11-.1-.24.3-.37-.02.09-.08.19-.16.27-.26.05-.06.09-.21.06-.24-.07-.06-.18-.08-.25-.1.02-.07.07-.16.08-.26.04-.28.05-.57.1-.84.03-.15.11-.29.18-.45-.11.02-.18.03-.27.04.04-.12.11-.22.09-.31-.01-.08-.12-.14-.18-.21-.03,0-.07.02-.1.02.12-.32.24-.65.36-.99-.1-.02-.16-.04-.24-.06.28-.21.24-.45-.03-.67.14-.38.27-.74.4-1.11-.02-.01-.03-.02-.05-.03-.06.05-.13.1-.19.16-.02-.02-.04-.03-.06-.05.06-.08.11-.15.17-.23.09-.14-.33-.22,0-.45-.33-.05-.29-.22-.17-.41.05-.09.19-.19.04-.31.07-.08.14-.16.22-.25-.06-.05-.11-.09-.11-.1.03-.22.02-.42.1-.59.13-.27-.05-.4-.17-.57-.08-.11-.06-.22,0-.36.1-.26.13-.54.19-.82-.02,0-.04,0-.06,0-.01-.1-.03-.19-.04-.29-.03-.16.08-.31-.03-.49-.08-.14-.02-.36,0-.55.02-.39.06-.78.08-1.17.06-.97.12-1.94.2-2.91,0-.07.09-.13.14-.21-.05,0-.1,0-.16-.01.02-.18,0-.39.08-.54.07-.14.24-.24.39-.38-.1-.06-.2-.12-.28-.16-.02-.17-.04-.34-.07-.53.05-.02.12-.04.17-.05-.03-.09-.1-.18-.09-.27.06-.6.14-1.2.21-1.82,0,0-.05-.01-.1-.02.28-.22.15-.56.25-.84.01-.03-.07-.09-.09-.11.04-.05.12-.11.12-.17.02-.35.02-.69,0-1.04,0-.07-.07-.14-.13-.24.02-.02.08-.07.18-.16-.14-.03-.23-.04-.32-.06,0-.02-.01-.04-.02-.06.09-.05.18-.11.31-.18-.07-.06-.14-.12-.24-.21.08-.01.16-.02.31-.04-.13-.06-.21-.1-.28-.13-.12-.06-.28-.08-.35-.18-.17-.22-.33-.14-.53-.02.08.02.15.04.25.07-.06.07-.1.15-.14.15-.24.02-.47.04-.71.04-.3,0-.6,0-.9,0,.06.3.23.4.45.3.47.23.94.46,1.39.69-.06.1-.1.17-.16.27.11.03.18.05.27.07-.06.04-.1.07-.15.11.2.21.04.44-.06.58-.25.33-.18.67-.15,1.03.01.2.03.42,0,.61-.1.46-.17.95-.39,1.35-.16.3-.13.58-.18.87-.01.06-.05.14-.1.16-.49.21-1,.2-1.55.2.05-.11.09-.18.16-.31-.15.08-.24.12-.33.17-.01-.01-.03-.02-.04-.03.1-.14.22-.27.3-.41.1-.17.16-.36.25-.55-.07-.03-.13-.05-.24-.09.26-.21.45-.41.43-.77-.02-.32.01-.63-.29-.89.13-.02.21-.02.36-.04-.17-.15-.29-.25-.44-.38.11-.02.17-.03.23-.05.05-.14.11-.27.13-.4.03-.17-.06-.27-.17-.26-.06-.27-.12-.51-.18-.77.06-.02.16-.06.29-.11-1.85-.17-3.66-.33-5.45-.49.16.53.36,1.06.31,1.65-.03.35-.05.69-.07,1.04-.06-.03-.15-.07-.31-.15.05.2.09.34.13.5-.07-.02-.13-.04-.18-.04-.05,0-.13.03-.13.05,0,.1,0,.2.03.29.02.09.07.16.1.25.02,0,.04,0,.07-.01-.08.13-.16.26-.23.38.03.02.07.05.1.07.07-.08.14-.16.21-.24.18.12.18.3-.02.42-.22.13-.44.62-.32.83.07.12.22.2.17.38h0c-.23-.03-.25.1-.26.29-.05.9-.11,1.81-.18,2.71-.05.64-.12,1.29-.19,1.93-.11,1.06-.24,2.12-.33,3.18-.06.68-.08,1.36-.11,2.05-.03.59-.06,1.19-.07,1.78-.01.55,0,1.1-.02,1.64-.04.61-.13,1.22-.18,1.83-.02.25.03.51.02.77,0,.24-.06.48-.08.71-.02.29,0,.58-.02.88-.01.25-.04.5-.05.76,0,.08-.01.16-.02.24,0,.18-.01.36,0,.53,0,.33.01.66.02.99,0,.23,0,.45.03.68.02.18.09.35.09.52.01.4,0,.8,0,1.19,0,.28.03.56.03.84-.01.94-.04,1.88-.06,2.82-.02.94-.04,1.88-.05,2.82,0,.38-.04.76.06,1.15.06.23.01.49.01.77-.06-.06-.11-.13-.17-.18-.07-.05-.14-.08-.25-.14.02-.09.05-.2.09-.33-.24-.23-.14-.55-.2-.82-.06-.26-.11-.53-.16-.79.08-.06.19-.14.34-.25-.42-.05-.43-.05-.43-.46,0-.49.03-.99.03-1.48,0-.19-.03-.38-.03-.57,0-.21.09-.4.14-.6.06-.25.05-.52.06-.79.02-.45.05-.9.06-1.35,0-.2-.02-.41-.03-.61-.03-.38-.05-.77-.08-1.15-.04-.44-.1-.88-.14-1.31,0-.09.06-.19.06-.28,0-.57,0-1.14,0-1.71,0-.18-.05-.36.1-.51.04-.04.02-.14.02-.22,0-.65.02-1.3,0-1.95,0-.2-.09-.41-.08-.61,0-.27.05-.55.08-.82.02-.15.05-.29.07-.44.03-.3.07-.59.08-.89.01-.28,0-.56,0-.85,0-.21.03-.41.05-.62,0-.13,0-.26.02-.38.02-.11.03-.24.1-.32.17-.2.09-.33-.07-.48.11-.17.23-.34.1-.55-.02-.04.07-.12.07-.19.03-.46.13-.91.05-1.37-.03-.18,0-.37.02-.55.02-.29.03-.58.06-.86.04-.32.1-.63.13-.95.03-.33.03-.65.06-.98.03-.39.03-.78.1-1.16.19-1.06.2-2.13.25-3.19.07-1.36.11-2.73.14-4.09,0-.33-.03-.66-.04-.99,0-.26-.19-.35-.39-.38-.21-.04-.31-.16-.38-.35-.06-.17-.13-.37-.42-.35.02-.19.06-.36.06-.53,0-.24-.01-.49-.03-.73-.07-1.03-.15-2.06-.22-3.09,0-.08.02-.23.07-.24.27-.11.17-.31.16-.5,0-.11,0-.24.04-.34.11-.25.25-.5.39-.76-.06,0-.12-.02-.19-.03.08-.21.41.04.44-.28.01-.17.11-.34.17-.51.41-1.06.84-2.1,1.23-3.17.43-1.2.85-2.4,1.23-3.62.18-.59.24-1.22.42-1.82.14-.47.38-.91.56-1.37.05-.12.05-.26.08-.39.06-.25.12-.5.18-.74.08-.28.18-.55.25-.83.26-1,.53-1.99.75-3,.12-.53.13-1.09.24-1.63.09-.46.25-.91.4-1.36.08-.25,0-.5-.26-.63-.04-.02-.08-.08-.09-.13-.03-.1-.05-.2-.07-.33.03-.07.08-.18.11-.29.06-.23.25-.25.41-.23.17.03.22-.05.22-.18.02-.64.09-1.3.04-1.93-.08-.84,0-1.68,0-2.52,0-.22.09-.44.14-.66.01-.05,0-.1,0-.15-.02,0-.05,0-.07,0,.05-.03.1-.05.2-.1-.11-.07-.19-.12-.3-.19.05-.07.09-.19.13-.18.28.03.19-.16.17-.34.09.06.14.1.19.13.01-.01.03-.03.03-.04-.02-.35.26-.44.49-.55.83-.39,1.72-.59,2.63-.66.33-.02.51.11.54.41-.39.06-.79.09-1.17.18-.33.07-.65.2-.97.32-.19.07-.29.22-.31.44-.02.23-.09.46-.17.67-.09.24-.24.11-.37,0-.02,0-.04.02-.06.03.02.16.02.33.07.49.07.22.05.41-.03.63-.07.21-.03.45-.04.68,0,.07,0,.14-.03.19-.1.18-.17.35,0,.54.04.04-.07.21-.12.34.26.27.09.46-.15.67.05.09.12.17.14.27.02.06-.02.14-.05.21-.05.1-.16.19-.17.3-.02.29-.04.59,0,.88.04.28.15.29.35.08.06-.06.1-.14.15-.23.1.09.24.14,0,.27.09.05.17.09.27.14-.06.03-.11.06-.16.08,0,.02,0,.04,0,.06h.22c.18.22.35.43.5.61-.17.2-.28.35-.41.49-.04.04-.13.06-.19.06-.11.01-.21,0-.38,0-.06.41-.13.83-.16,1.25-.02.2-.05.32-.28.32-.24,0-.36.13-.4.36-.08.49-.17.97-.26,1.46-.02.09-.08.16-.11.25-.2.76-.38,1.53-.58,2.29-.06.22-.16.42-.24.63-.02.05-.07.09-.06.13.02.39-.29.66-.38,1.01-.09.35-.22.7-.33,1.04-.35,1.14-.7,2.28-1.06,3.43-.2.64-.36,1.3-.6,1.93-.34.88-.74,1.75-1.11,2.62-.22.51-.45,1.02-.68,1.54-.08.17-.17.34-.23.52-.03.08-.03.21.02.28.03.04.16.04.25.02.42-.07.82-.22,1.22-.36.33-.11.71-.05,1.07-.06.11,0,.22,0,.32-.01.36-.04.71-.1,1.07-.13.11,0,.22.04.35.07.03-.12.08-.18.25-.05.14.11.34.16.52-.02.07-.07.17-.1.29-.16.04.09.07.17.11.27.25-.01.54.22.8-.09.13.18.29.28.51.22.03-.03.05-.06.08-.09-.07-.03-.14-.07-.21-.1.01-.02.02-.04.03-.05.12.07.24.14.4.24-.12.02-.18.03-.23.04,0,.02,0,.03,0,.05h.36c0-.05-.02-.11-.03-.18h.19c-.12-.17-.07-.32.09-.32.15,0,.29.12.44.19,0,.03-.01.05-.02.08-.15.06-.31.11-.46.17,0,.02,0,.03.01.05.38-.04.76-.09,1.13-.13h0ZM57.65,62.74c.16-.11.32-.22.48-.32.01,0,.02,0,.03.01-.1.13-.2.25-.33.42.09.03.17.06.28.09.03.18.17.06.34,0-.11-.06-.18-.1-.24-.14.17-.2.31-.36.5-.58-.38.04-.69.08-.95.11-.08.14-.14.24-.2.34.03.02.06.04.1.06-.26-.04-.53-.07-.77-.11.08.07.19.17.32.26.08.05.2.13.27.1.08-.03.12-.16.17-.25ZM15.06,63.62c-.09-.07-.19-.15-.27-.21.14-.05.24-.09.34-.13.16-.05.33-.11.49-.15.25-.07.52-.09.75-.19.26-.11.52-.21.8-.15,0,0,.02-.02.02-.03-.03-.03-.06-.05-.09-.08.1,0,.17.05.24.06.28.01.46.13.55.41.03.08.12.15.2.25.04-.12.07-.2.1-.29.45.24.34-.36.55-.37-.08-.05-.18-.15-.3-.19-.6-.25-1.2-.49-1.87-.47-.34,0-.64.1-.86.4-.05.07-.18.11-.27.12-.57.07-1.15.09-1.72.18-.68.11-1.34.26-2.04.18-.13-.02-.27-.04-.4-.02-.66.11-1.32.24-1.98.36-.13.02-.17.1-.17.23.02.71-.06,1.41.06,2.12.1.55.13,1.11.2,1.7.34-.23.72-.03,1.07-.15.21-.08.45-.09.67-.13.14-.03.27-.09.39-.14.25-.1.54-.08.82-.09.03,0,.07.12.08.19,0,.03-.03.07-.05.11.02.01.03.03.05.04.14-.12.27-.27.43-.34.16-.07.36-.04.54-.06,0,.03,0,.07,0,.11.35-.15.66-.12.82.08.02,0,.05,0,.07-.01.13-.07.33-.22.37-.19.16.14.32.04.48.07.24.04.5.04.74.05.01,0,.03-.05.05-.09-.07-.02-.13-.04-.19-.05.27,0,.54.04.8.06.02,0,.05.01.07.02.07.01.18.06.21.03.13-.14.26-.06.39-.04.22.03.47.09.67.02.17-.05.32-.18.52-.12.01,0,.04-.03.05-.04-.06-.14-.02-.28-.07-.39-.06-.14-.13-.26-.02-.34-.08-.29-.16-.57-.24-.86.06.04.09.07.18.13-.06-.13-.09-.2-.12-.26-.06.02-.1.03-.19.05.07-.12.11-.2.16-.28-.09-.02-.16-.03-.23-.05,0-.02,0-.03,0-.05h.23c-.16-.31-.12-.73-.61-.72-.01,0-.03-.01-.04-.02-.12-.21-.29-.12-.47-.08-.81.16-1.54.62-2.39.62-.02,0-.03,0-.05.01-.22.08-.44.17-.66.25-.03.01-.06.04-.14.11.21-.02.36-.04.5-.05,0,.02.02.04.02.07-.05.03-.09.1-.14.1-.22,0-.42.04-.64.12-.2.08-.44.22-.61.02-.11.02-.18.03-.24.04-.11.02-.26,0-.33.07-.15.15-.33.11-.45.05-.25-.11-.3-.02-.28.19-.15,0-.28,0-.41,0-.24.01-.48.05-.72.04-.08,0-.16-.09-.23-.16-.02-.02,0-.11,0-.11.08-.01.16-.03.23,0,.2.06.39.1.6,0,.21-.1.45-.16.67-.23.78-.22,1.56-.43,2.34-.64.2-.05.39-.12.59-.18.25-.08.5-.18.76-.24.49-.11.99-.2,1.47-.31.35-.08.7-.19,1.13-.06-.15-.11-.24-.24-.33-.24-.3,0-.6.05-.89.1-.28.05-.55.12-.79.18-.04-.1-.07-.18-.11-.25-.02,0-.04.02-.06.03,0,.07-.01.14-.02.19-.12-.01-.22-.02-.32-.03,0,.02,0,.03,0,.05.04.04.09.07.13.11-.26-.07-.46.05-.64.26-.02-.15-.03-.23-.04-.31.26-.1.51-.19.77-.29-.01-.03-.03-.06-.04-.09-.24.12-.48.24-.72.36,0,0,0,.02,0,.02ZM66.13,61.42c-.23-.67-.47-1.38-.71-2.08-.3-.86-.61-1.71-.91-2.56-.11-.32-.19-.65-.29-.97-.05-.14-.12-.27-.19-.43,0-.05,0-.13-.02-.21-.01-.07-.04-.13-.06-.2-.08-.27-.14-.54-.23-.81-.09-.27-.13-.55-.26-.81-.13-.27-.12-.6-.19-.9-.11-.46-.25-.91-.37-1.37-.16-.63-.32-1.27-.46-1.91-.11-.49-.18-.98-.29-1.47-.14-.66-.3-1.31-.46-1.96-.05-.19-.14-.36-.21-.54-.05-.15-.14-.29-.05-.47.02-.04-.05-.18-.11-.2-.26-.09-.53-.16-.83-.24-.05.39-.08.77-.15,1.14-.13.62-.14,1.27-.22,1.91-.08.64-.15,1.29-.27,1.92-.1.53-.25,1.05-.38,1.58-.11.43-.22.86-.35,1.29-.1.33-.2.66-.33.99-.14.35-.33.68-.45,1.04-.11.3-.14.63-.23.93-.24.78-.49,1.55-.73,2.33-.05.17-.06.36-.12.52-.04.11-.17.2-.21.31-.13.41-.25.83-.36,1.26-.08.31-.13.61-.03.93.06.17.05.36.07.58-.12-.06-.19-.1-.28-.15,0,.15,0,.27,0,.39,0,.11.03.25-.01.34-.15.31-.1.78.13,1.06.03-.03.06-.05.1-.08.23-.17.23-.23.04-.43-.09-.09-.15-.2-.23-.32.18,0,.33-.01.48-.03.67-.06,1.34-.11,2.01-.2.2-.03.39-.19.59-.22.72-.1,1.45-.17,2.17-.23.14-.01.2-.06.25-.19.12-.36.86-.57,1.18-.38.16.1.33.29.61.07-.05.11-.07.15-.1.21.85.19,1.67.37,2.47.55ZM57.9,67.07c.35.09.64-.05.63-.34-.01-.19.09-.18.18-.2.54-.1,1.06-.22,1.62-.11.58.12,1.18.13,1.7.44.1.06.23.07.35.08.12,0,.25-.08.35-.05.24.08.45.2.66.3-.07-.16-.15-.35-.23-.55.16-.14.32-.26.5-.42.15.2.26.36.39.52.04.05.11.09.17.12.1.04.21.04.3.09.2.12.61.1.66-.07.05-.17.08-.36.07-.53-.01-.29-.04-.57.16-.8-.09-.06-.17-.12-.19-.13.07-.17.13-.29.16-.42.02-.09,0-.2,0-.29,0-.38,0-.76.01-1.14,0-.17.03-.34,0-.5-.03-.17.08-.42-.16-.51-.56-.19-1.13-.37-1.74-.36-.27,0-.54-.02-.82-.04-.25-.01-.51-.05-.76-.05-.46,0-.91.03-1.37.04-.29,0-.58,0-.87,0,.78.22,1.55.43,2.32.64.25.07.5.1.75.15.22.05.46.07.67.15.11.04.18.18.27.27-.1.08-.19.19-.3.23-.47.15-.96.05-1.45.09-.27.02-.55-.14-.82-.23-.14-.04-.27-.1-.41-.12-.54-.08-1.07-.16-1.61-.2-.29-.02-.6.01-.88.08-.28.07-.55.2-.8.3-.03-.02-.02,0,0,0,1.14.12,2.27.24,3.41.35.28.03.45.14.51.39-1.57.14-3.13.19-4.69.08.21.62.41,1.21.62,1.8.03.09.11.18.2.23.18.11.45.16.3.47.1.03.18.06.3.09-.09.06-.13.09-.19.12ZM13.61,67.53s0,.05,0,.08c.48.06.96.12,1.44.18.02-.06.03-.1.04-.14.11.07.21.13.31.19.01-.02.02-.04.04-.06-.04-.07-.07-.14-.13-.23.31.14.58.26.85.38.01-.02.03-.05.04-.07-.08-.14-.15-.27-.23-.41-.01-.02-.07-.02-.09-.01-.41.15-.84-.16-1.24.09-.02.01-.06,0-.1,0-.31,0-.61,0-.92,0ZM59.45,67.11c-.33.26-.61.49-.89.71.01.01.02.02.04.04l-.25.02c.09.07.24.12.26.09.11-.23.33-.14.51-.17-.03-.33.15-.4.46-.31-.04-.13-.07-.22-.12-.38ZM41.03,42.98s.05-.04.08-.06c-.08-.31-.15-.62-.58-.65l.51.7ZM67.3,99.4s.03-.03.04-.05c-.23-.12-.25-.31-.16-.53-.3.2-.13.49-.19.73,0,.02.07.07.17.15-.03-.16-.04-.24-.06-.33.08.02.14.03.19.04ZM60.44,40.05c-.23.08-.4.14-.58.21.2.17.4.11.58-.21ZM10.73,67.8c.43.07.7-.03.74-.21-.11.03-.22.06-.33.09-.13.04-.27.08-.4.11ZM56.97,63.4c.05-.08.08-.13.11-.18-.01-.01-.03-.03-.04-.04-.12.08-.24.17-.4.29.24.01.41.03.57.04,0-.02,0-.03,0-.05-.07-.01-.14-.03-.24-.05ZM15.79,73.39s.04.04.05.06c.39-.07.43-.13.3-.35-.12.1-.23.19-.35.28ZM57.76,62.86c-.06.04-.33.3-.34.53.12-.18.23-.35.34-.53ZM10.32,70.22q.02.5.24.47c-.08-.16-.16-.3-.24-.47Z"/>
      <path class="cls-1" d="M32.43,39.45c.05.05.1.09.16.14.02-.09.04-.18.06-.29.14.08.27.16.39.23.12-.04.25-.08.39-.13.01.02.02.05.03.07-.06.07-.13.13-.18.19h-.39c.36.22.57.12.72-.28.23,0,.46-.03.68,0,.14.02.26.16.4.21.25.09.51.15.76.23.03,0,.05.05.12.12.25.03.5.25.44.42.05.03.12.04.16.08.04.05.05.12.09.21-.48-.23-.99-.14-1.48-.11-.35.02-.69.09-1.04.16-.55.12-1.1.25-1.65.4-.28.07-.55.22-.84.25-.55.07-1.06.24-1.55.48-.39.19-.8.36-1.19.55-.31.15-.31.41-.02.6.13.09.34.14.29.35-.06.22-.19.38-.45.43-.57.1-.97-.13-1.1-.69-.11-.44-.13-.89-.13-1.35,0-.62-.09-1.26-.23-1.87-.13-.59-.38-1.16-.57-1.72-.4-.04-.84-.47-.89-.86.11.1.2.19.27.26.17-.26.32-.51.48-.75.04-.06.08-.14.14-.17.55-.26.63-.85.9-1.29.34-.55.67-1.12.98-1.69.36-.65.72-1.31,1.06-1.98.43-.86.85-1.74,1.26-2.61.15-.33.26-.68.39-1.01.09-.23.21-.45.31-.68.1-.23.21-.45.28-.69.04-.13-.02-.28,0-.44.03.12.05.23.08.35.01,0,.03,0,.04,0,.01-.06.05-.14.03-.19-.11-.27.03-.43.23-.58.02.04.03.07.07.17.12-.27.23-.5.33-.72.02,0,.03.02.05.02-.07.19-.13.37-.2.56l.09.03c.27-.47.29-1.02.49-1.54-.14.08-.24.15-.35.22h0c.09-.19.23-.37.26-.57.03-.23.14-.46.15-.66.02-.22.13-.4.14-.61.01-.19.13-.31.31-.32-.03-.06-.09-.13-.08-.18.13-.93.54-1.78.86-2.65.48-1.3.96-2.61,1.41-3.93.48-1.37.94-2.76,1.4-4.14.26-.8.36-1.63.39-2.46,0-.26.04-.51.07-.77,0-.04.08-.11.1-.11.08.02.18.05.23.11.11.11.14.3.35.31.14,0,.19-.03.19-.18,0-.33-.2-.5-.46-.62-.23-.11-.47-.19-.75-.3v.47c-.46-.02-.55-.08-.67-.49-.06-.21-.12-.42-.17-.63-.04-.17.06-.26.21-.35.23-.15.48-.2.74-.21.05,0,.1-.02.14-.04.11-.07.23-.15.34-.22.13-.09.22-.15.27-.35.05-.24.3-.44.51-.71-.03-.32-.07-.72-.12-1.13-.07-.6-.14-1.19-.22-1.79-.01-.08-.08-.15-.12-.23-.07.05-.13.1-.22.16-.05-.02-.12-.06-.2-.09-.11.15-.61.26-.78.18-.2-.1-.4-.54-.31-.76.03-.07.14-.14.22-.14.18,0,.18.02.18-.13.27-.08.52-.15.79-.23-.07-.2-.03-.34.19-.4-.02.07-.05.2-.04.2.09.04.2.06.27.07.09-.15.14-.27.22-.37.06-.07.16-.09.25-.13.03-.01.07.02.1.01.8-.31,1.62-.15,2.44-.1.88.06,1.76.13,2.66.2.04-.4.34-.19.58-.28-.08.19-.13.32-.22.52-.04-.14-.06-.23-.1-.38-.21.36-.4.68-.58.99.01.01.03.03.04.04.11-.04.22-.08.38-.14-.17.29-.43.24-.63.23-.3-.01-.6-.12-.91-.15-.49-.05-.99-.11-1.49-.1-.61.01-1.23.1-1.84.14-.18.01-.2.09-.14.25.24.75.29,1.51.19,2.29-.05.42.02.85.03,1.28,0,.11-.03.21-.04.32-.03.2-.07.41-.07.61,0,.07.07.15.11.22.05-.04.12-.07.16-.12.07-.07.12-.15.2-.24.23.22.46.43.68.64.04.04.06.12.09.18.15.31-.35.91-.69.87-.05,0-.1,0-.1,0,.23.68.46,1.36.67,2.05.09.27.14.56.21.84.05.18.1.32.34.37.11.02.2.23.26.38.14.33.25.67.37,1.01.16.47.34.94.48,1.42.11.38.18.78.26,1.17.01.06-.01.12-.01.12.05.17.09.3.12.43.1.36-.06.73.08,1.1.08.21,0,.48.03.72.06.44.13.87.23,1.3.03.15.16.29.22.44.03.08-.02.18,0,.26.11.46.18.94.36,1.37.42,1.04.39,2.19.83,3.22.39.93.74,1.88,1.09,2.83.14.39.24.79.36,1.19.05.16.08.32.16.47.49,1,.97,2.01,1.48,3.01.39.76.81,1.5,1.23,2.25.25.44.51.88.78,1.3.09.14.22.25.33.37.23.25.47.49.7.74.09.09.18.22.29.25.26.08.34.27.43.49.15.36.35.7.54,1.05.11-.03.19-.05.24-.06.06.25.12.49.2.78-.13.09-.29.2-.51.34q-.02.11-.6.3c.2.68-.1,1.29-.24,1.94-.09.06-.19.13-.33.23-.04-.27-.1-.49-.11-.72,0-.28.04-.57.08-.85,0-.06.07-.13.11-.18.14-.19.2-.36.11-.61-.1-.3-.08-.64-.11-.96,0-.11.01-.21-.03-.28-.28-.26-.54-.52-.83-.77-.4-.34-.78-.74-1.24-.99-.8-.44-1.67-.69-2.61-.64-.4.02-.81-.08-1.21-.08-.47,0-.93.06-1.4.07-.47,0-.95,0-1.42-.03-.52-.03-1.04-.1-1.57-.15-1.09-.11-2.19-.16-3.28-.33-.76-.12-1.51-.24-2.28-.22-.77.02-1.5.23-2.2.52-.56.23-1.1.48-1.63.77-.14.07-.26.29-.28.45-.05.33-.1.41-.42.55-.32.14-.63.31-.94.47-.24.12-.49.23-.73.35-.05.03-.11.09-.11.13-.02.56.05,1.11.15,1.66.09.47.16.95.24,1.42.03.14.1.28.15.45.01,0,.07.01.12.03.02-.05.04-.11.07-.19.1.1.18.19.27.28.02-.02.05-.04.07-.06-.07-.09-.13-.19-.23-.33.29.12.32-.07.38-.27.21.26.4.09.58-.04-.09-.09-.2-.19-.32-.3,0-.02,0-.03.01-.05.06.03.13.05.18.08.1.07.18.15.27.23.02-.02.04-.05.06-.07-.08-.09-.16-.18-.25-.26,0-.02.02-.04.03-.06.07.05.19.07.21.14.1.23.18.13.25.03.12.03.23.06.34.08-.04-.17-.08-.33-.13-.52.14.09.26.22.36.21.11,0,.22-.14.36-.24.02.02.1.07.19.13-.1.04-.18.07-.26.1,0,.03,0,.05,0,.08.14-.01.28-.03.42-.04v-.33c.11,0,.21,0,.3.01.08.06.1.25.27.14.02-.15.03-.29.05-.48.05.02.11.04.18.07-.02.25.11.43.3.43-.04-.07-.08-.14-.12-.21h.21c0-.11-.01-.22-.02-.33ZM48.06,34.66c-.3-.45-.56-.82-.8-1.22-.29-.49-.54-1.01-.83-1.5-.76-1.25-1.37-2.57-1.89-3.93-.36-.93-.66-1.87-1-2.8-.36-.98-.75-1.94-1.11-2.92-.25-.67-.47-1.35-.72-2.02-.09-.25-.23-.48-.32-.73-.35-1.08-.68-2.15-1.03-3.23-.22-.68-.44-1.36-.66-2.04-.21-.66-.45-1.32-.63-1.99-.22-.8-.38-1.62-.57-2.43-.02-.07-.11-.12-.19-.21,0,.42,0,.76,0,1.09,0,.03,0,.08.02.09.17.08.11.21.08.34-.05.17-.1.34-.13.52-.12.63-.23,1.26-.36,1.89-.13.64-.28,1.28-.41,1.92-.06.28-.31.48-.34.78-.01.15-.08.28-.05.44.05.32-.07.59-.28.83-.08.09-.1.23-.12.35-.04.18-.05.38-.1.56-.15.54-.33,1.07-.48,1.61-.19.68-.36,1.37-.57,2.05-.1.33-.29.63-.42.96-.17.44-.3.9-.48,1.34-.3.72-.62,1.42-.94,2.14-.06.14-.14.29-.2.43-.5,1.13-1.01,2.26-1.5,3.4-.3.7-.59,1.41-.88,2.11-.28.68-.56,1.36-.85,2.07.12-.03.28-.02.37-.09.18-.14.34-.28.56-.38.2-.09.42-.05.62-.18.17-.11.44-.04.67-.05.05,0,.11.02.13.05.11.17.17.09.28-.02.07-.07.21-.08.32-.1.11-.01.21.01.32.01.17,0,.31-.04.2-.28.06.02.1.01.12.04.15.18.33.25.56.23.18-.02.36,0,.54-.01.39,0,.77,0,1.16,0-.02-.05-.04-.1-.06-.18.12.01.21.02.34.03-.1.06-.15.1-.26.17.19,0,.3,0,.42,0,.6,0,1.19,0,1.79,0,.25,0,.5.03.74.01.27-.02.5.16.8.06.25-.08.56,0,.84.03.23.03.45.11.68.15.23.04.47.06.7.09.22.02.46.1.66.05.2-.04.27.05.35.15.3-.16.52.04.77.13.02-.05.04-.1.06-.13.16.05.31.1.48.15.02-.02.06-.06.06-.07.14.02.25.03.38.04-.06.05-.09.09-.12.12.04.05.07.1.11.14.07.05.14.11.22.12.05,0,.1-.09.16-.12.09-.05.21-.13.28-.1.18.06.35.18.5.27.19-.15.39-.08.59-.07,0,0,.01.02.02.04-.06.03-.12.05-.2.08.08.06.15.1.22.16.05-.06.09-.1.11-.15.17-.33.21-.35.58-.32.21.02.41.03.7.05ZM27.97,35.87c.1.13.27.08.39-.06.17-.2.29-.43.44-.65.56-.79.93-1.67,1.34-2.54.24-.5.42-1.04.65-1.54.17-.37.36-.72.4-1.14.03-.31.06-.62.13-.92.05-.19.17-.36.25-.55.02-.05,0-.12-.01-.18-.03,0-.05,0-.08-.01-.13.3-.24.61-.39.9-.11.22-.08.53-.29.6-.12.27-.22.48-.3.7-.07.21-.12.43-.18.64-.02,0-.03,0-.05-.01v-.25c-.1.13-.18.24-.22.31.03.09.06.15.05.18-.04.09-.11.16-.16.24-.06.13-.08.31-.17.38-.34.22-.41.59-.58.9-.02.03-.02.08-.02.12,0,.05,0,.13-.03.15-.11.09-.16.2-.23.32-.13.22-.35.4-.54.59.06.04.12.09.19.15-.11.07-.21.12-.28.18-.06.05-.15.14-.14.18.09.2-.09.21-.18.28-.05.04-.14.1-.13.13.04.21-.08.34-.22.46-.22.2-.29.49-.11.7.13-.08.27-.15.46-.26ZM41.69,16.22s.06-.01.09-.02c-.03-.13-.05-.26-.08-.39-.1-.41-.2-.81-.11-1.24.02-.1.02-.24-.03-.33-.25-.42-.29-.91-.45-1.36-.1-.27-.23-.53-.33-.8-.08-.22-.14-.44-.22-.66-.03-.09-.09-.16-.14-.24-.02.01-.05.02-.07.03.05.17.09.33.15.49.13.33.29.65.4.99.23.71.42,1.42.48,2.18.04.45.2.89.3,1.34ZM35.85,16.75s.05,0,.07.01c.09-.27.19-.54.29-.82-.12.05-.2.09-.27.12-.03.24-.06.47-.09.7Z"/>
      <path class="cls-1" d="M49.52,90.5c-.04-.05-.01-.15-.03-.22-.08-.46-.15-.92-.24-1.38-.08-.41-.19-.81-.3-1.21-.08-.3-.16-.6-.28-.89-.35-.81-.94-1.46-1.49-2.13-.79-.97-1.69-1.84-2.68-2.6-.3-.23-.57-.51-.88-.73-.76-.54-1.55-1.05-2.31-1.59-.19-.13-.37-.19-.6-.19-.1,0-.23-.06-.3-.13-.23-.26-.48-.5-.81-.64-.22-.1-.43-.22-.66-.3-.19-.07-.4-.14-.59-.12-.87.11-1.69.39-2.43.85-.74.46-1.5.86-2.29,1.23-.4.19-.83.4-1.13.71-.87.91-1.68,1.87-2.52,2.82-.05.06-.1.13-.14.2-.43.73-.74,1.51-.91,2.35-.03.15-.06.3-.09.44-.01,0-.03,0-.04,0-.03-.09-.05-.19-.09-.34-.07.12-.13.19-.15.27-.08.26-.17.52-.22.79-.2,1.14-.35,2.29-.37,3.45-.02.92-.13,1.83-.16,2.74-.02.7.06,1.41.06,2.11,0,.76-.05,1.53-.07,2.29-.03,1-.06,2-.06,3.01,0,.76.02,1.52.03,2.28,0,.24-.03.47-.05.72-.07,0-.11-.01-.14-.02-1.14-.27-2.26-.63-3.45-.67-.79-.02-1.57-.14-2.36-.18-.73-.04-1.46-.05-2.2-.07-.51,0-1.01,0-1.45,0-.11-.23-.19-.42-.28-.61-.03,0-.05.02-.08.02,0,.08,0,.16.02.23.05.31-.04.43-.34.44-.18,0-.37,0-.55-.02-.27-.03-.33.15-.37.35-.04.19-.04.4.21.47.28.07.56.16.84.17.25,0,.29.13.32.32,0,.06.02.12.03.18.02,0,.04,0,.07,0,0-.07,0-.16.03-.22.05-.09.12-.21.2-.22.21-.03.43-.03.65-.02.44.03.88.1,1.32.11.56.02,1.13,0,1.69,0,.57,0,1.15-.03,1.72.01.7.05,1.39.17,2.08.27.05,0,.08.05.13.07.05.03.1.07.15.07.46.06.92.11,1.38.18.49.07.98.16,1.47.25.16.03.32.1.48.11.12,0,.23-.01.27.11.03,0,.05.02.08.02.03,0,.07.01.1.02,0-.05-.01-.1-.02-.18.26,0,.49.03.72,0,.58-.08,1.15-.19,1.72-.29,0,0,.02,0,.02,0,.27-.18.58-.1.88-.14.34-.04.69-.07,1.03-.12.12-.02.23-.09.35-.15,0,0,.02.09.04.09.34.01.69.04,1.03,0,.35-.04.45-.39.64-.65.21.33.54.29.83.33.3.03.61,0,.87,0,.02.08.02.2.05.2.13.02.27.04.39,0,.47-.15.92-.35,1.43-.25.02,0,.06-.03.12-.08-.27-.05-.5-.09-.73-.15-.49-.13-.97-.24-1.48-.14-.07.01-.16-.02-.24-.05-.34-.15-.68-.27-1.06-.24-.1,0-.2.06-.3.05-.35-.06-.7-.19-1.05-.2-.44-.01-.87.06-1.31.11-.27.03-.59,0-.8.13-.37.23-.78.21-1.16.31-.37.1-.75.14-1.13.19-.08.01-.17-.03-.31-.06,0,.01-.06.07-.14.19-.06-.13-.14-.21-.15-.31-.02-.23,0-.46,0-.7-.02,0-.04,0-.06,0-.04.22-.08.44-.12.65-.05.26-.15.34-.41.29-.38-.06-.77-.12-1.15-.19-.05,0-.12-.08-.12-.12-.01-.25-.01-.5,0-.74.01-.55.03-1.09.05-1.64.02-.49.04-.98.08-1.47.02-.25.12-.5.12-.75.01-.7,0-1.4-.02-2.1,0-.39-.05-.78-.04-1.17.01-.79.05-1.58.08-2.37.01-.41,0-.82.03-1.22.03-.39.09-.78.15-1.16.05-.32.1-.64.15-.96.09-.57.31-1.12.28-1.72-.02-.5.09-.98.29-1.46.15-.34.17-.74.23-1.12.11-.59.24-1.17.53-1.71.04-.08.12-.18.2-.21.66-.21,1.13-.67,1.58-1.15,1.29-1.39,2.76-2.53,4.47-3.38.77-.38,1.58-.63,2.45-.55.24.02.47.13.69.22.51.21,1.04.4,1.52.65.32.17.59.43.86.67.48.4.96.77,1.59.88.05,0,.1.04.14.07.13.11.25.23.38.34.08.07.18.12.26.19.31.3.62.61.93.91.1.09.23.15.31.25.47.59.93,1.18,1.38,1.78.58.79,1.1,1.62,1.48,2.54.57,1.4.87,2.83.68,4.35-.05.36-.04.36-.36.28-.01,0-.03.01-.04.02.18,3.44-.14,6.88-.02,10.36.17-.1.33-.2.53-.32,0,.11.02.22.02.33.11.05.21.1.36.17-.02-.14-.04-.25-.04-.36-.02-.81,0-1.62-.07-2.42-.14-1.58-.11-3.17-.02-4.75.06-.99.13-1.98.2-2.97.03-.42.09-.84.12-1.26.02-.26.07-.53-.1-.78ZM48.94,101.51c0-.94,0-1.87,0-2.81,0,0,.02,0,.02,0,.04.97.08,1.93.12,2.97-.07-.08-.14-.12-.14-.16Z"/>
      <path class="cls-1" d="M32.39,111.07c.12.25.24.07.32,0,.11.05.18.12.26.12,1.17.02,2.35.04,3.52.05.69,0,1.38.02,2.07.01.67,0,1.33-.06,2-.07.77-.02,1.55,0,2.32-.02.19,0,.38-.04.57-.04.62,0,1.23.03,1.85.02.83,0,1.67-.05,2.5-.04.5,0,.99.09,1.49.1.75.02,1.5,0,2.24.02.28,0,.55.1.77.14.08-.07.12-.15.17-.15.72-.02,1.45-.02,2.17-.04.3,0,.6-.05.9-.06.12,0,.24.06.36.09,0,.03,0,.05-.01.08-.22.02-.45,0-.67.05-.71.15-1.44.06-2.15.1-.72.04-1.43.12-2.14.16-.43.03-.86.01-1.29.03-.91.04-1.83.11-2.74.14-.45.02-.9-.02-1.35-.02-.85,0-1.69.01-2.54.02-.49,0-.98,0-1.47,0-.88,0-1.77.02-2.65.03-1.15,0-2.31.02-3.46.02-1.12,0-2.25,0-3.37-.03-1.13-.02-2.26-.07-3.39-.09-.74,0-1.48.04-2.22.03-.47,0-.94-.1-1.41-.13-.51-.03-1.03-.03-1.55-.07-.86-.05-1.72-.13-2.59-.18-.2-.01-.4,0-.59.04-.32.06-.62.04-.91-.1-.08-.04-.2.03-.31.02-.78-.02-1.57-.05-2.35-.08-.63-.02-1.25-.04-1.88-.05-.82-.02-1.63-.03-2.45-.04-.27,0-.55.04-.82.04-.27,0-.55-.06-.82-.06-.65,0-1.3-.01-1.96,0-1.16.03-2.31.1-3.47.13-.76.02-1.52.03-2.28.02-.5,0-1.01-.02-1.51-.1-.36-.06-.71.06-1.05-.03-.06-.02-.14,0-.19-.04-.12-.08-.22-.19-.33-.28.11-.08.21-.17.33-.23.43-.2.88-.35,1.21-.73.07-.08.27-.11.38-.07.32.09.62.26.93.34.5.14.99.24,1.53.19.51-.04,1.02-.07,1.53-.12.65-.07,1.31-.03,1.96-.04.19,0,.38,0,.57,0,.8.02,1.6.02,2.39.07,1.33.09,2.65.19,3.99.17,1.16-.02,2.32.07,3.47.13.94.05,1.87.14,2.81.2,1.56.1,3.11.2,4.67.29.96.05,1.91.08,2.87.1.82.02,1.63,0,2.45.02.36,0,.73.04,1.09.05.06,0,.13-.07.2-.12Z"/>
      <path class="cls-1" d="M27.51,84.61c.08-.16.14-.33.23-.48.36-.58.76-1.14,1.07-1.74.25-.49.55-.93.89-1.35.02-.02.04-.04.04-.06.02-.36.3-.52.54-.71.89-.74,1.76-1.51,2.67-2.23.9-.72,1.9-1.27,2.95-1.73.48-.21,1.01-.3,1.54-.41-.15,0-.3,0-.45,0-.15,0-.33.06-.36-.21.21-.03.41-.06.67-.1.2.19.46.33.82.19.4-.15.77.06,1.14.15,1.23.29,2.33.88,3.38,1.57.77.51,1.55.99,2.31,1.52.65.45,1.15,1.04,1.62,1.67.55.74,1.11,1.48,1.67,2.21.12.15.26.28.33.37.1.76.49,1.36.62,2.05-.07-.14-.14-.27-.21-.41-.26-.54-.5-1.09-.79-1.61-.15-.27-.4-.48-.61-.72-.67-.76-1.33-1.52-2.01-2.27-.28-.31-.58-.6-.91-.86-.17-.13-.4-.19-.6-.27-.38-.15-.77-.26-1.13-.43-1.01-.49-2-1.02-3.01-1.52-.24-.12-.52-.17-.78-.24-.51-.13-1-.34-1.53-.35-.45,0-.92-.1-1.35.1-.25.11-.49.24-.72.38-.76.44-1.52.87-2.27,1.32-.7.42-1.31.95-1.86,1.55-.36.39-.71.78-1.06,1.17-.02.02-.02.05-.04.06-.58.38-.89,1.01-1.34,1.51-.06.07-.13.13-.2.18-.6.41-.87,1.05-1.16,1.67,0,.01-.02.02-.04.03-.02,0-.04-.02-.06-.03Z"/>
      <path class="cls-1" d="M38.95,37.66c-.07.17-.28.1-.45.09-1.06-.03-2.11.05-3.16.17-.58.07-1.17,0-1.76.02-.28,0-.57.07-.85.12-1.04.17-2.07.33-3.11.51-.22.04-.43.11-.71.19.04-.13.05-.22.1-.27.09-.09.19-.17.31-.21.7-.26,1.41-.51,2.11-.76.51-.18,1.01-.36,1.52-.53,0,0,.02,0,.02,0,.67-.02,1.27-.37,1.93-.42.67-.05,1.33-.16,2-.19.39-.02.79.03,1.19.07.27.03.53.11.8.13.25.03.51-.04.74.11.03.02.09-.02.14-.03.05-.02.13-.07.15-.05.22.16.45.05.69.03-.05.04-.1.07-.19.14.25.04.45.09.65.09.76,0,1.51,0,2.27-.01.68-.01,1.27.25,1.84.57.06.03.08.12.13.17.06.07.11.17.19.19.25.07.4.27.59.42.13.1.29.18.43.26-.01.03-.03.05-.04.08-.43-.12-.86-.26-1.3-.37-.34-.09-.69-.16-1.04-.21-.27-.04-.55-.05-.76-.26-.04-.04-.12-.05-.18-.06-.43-.04-.86-.07-1.28-.1-.8-.06-1.59.03-2.38.15-.18.03-.37-.02-.6-.04Z"/>
      <path class="cls-1" d="M52.21,109.6c-.46.28-.92.11-1.39.09.07.05.11.09.19.15-.22,0-.4,0-.59,0-.36,0-.73-.09-1.07-.02-.39.08-.74,0-1.11-.03-.41-.03-.83.06-1.25.09-.36.02-.72.02-1.08.03-.11,0-.21.03-.32.03-.16,0-.32-.04-.49-.05-.55-.04-1.11-.1-1.66-.12-.44-.02-.88.01-1.32.02-.71,0-1.43.04-2.14.02-.88-.02-1.75-.06-2.63-.11-.43-.02-.85-.1-1.28-.12-.39-.02-.78-.05-1.16-.01-.51.06-1,.07-1.51,0-.24-.04-.5.05-.75.05-.25,0-.51-.04-.76-.05-.47-.03-.94-.05-1.41-.07-.08,0-.16.05-.24.06-.14.02-.28.02-.41.02-.27,0-.54-.01-.81,0-.44.02-.89.08-1.33.08-.21,0-.42-.12-.64-.19-.18.17-.33.15-.57-.11.01-.02.02-.05.03-.06.38-.06.74-.3,1.15-.15.07.03.17,0,.25-.02.6-.16,1.21-.07,1.81-.03.43.03.87.09,1.3.1.35,0,.69-.05.96-.07.17-.1.27-.2.39-.22.37-.08.73-.15,1.12-.12.29.02.59-.09.88-.13.27-.04.54-.07.81-.11.17-.02.34-.06.51-.06.08,0,.17.06.25.09-.06.05-.12.14-.18.15-.19.04-.39.05-.58.07-.14.01-.27,0-.29.25.24,0,.48-.03.7,0,.21.03.41.14.61.22,0-.02.02-.05.03-.07-.13-.05-.26-.1-.4-.16.26-.19.35-.16.5.07.04.06.15.1.24.1.23.01.46,0,.71,0,0,.03.01.1.01.1.47,0,.94,0,1.4,0,.61.01,1.21.05,1.82.06.17,0,.33-.02.5-.02.71,0,1.42-.03,2.13,0,.44.01.87.1,1.31.16.05,0,.11.02.15,0,.44-.21.9-.07,1.34-.1.38-.03.75-.11,1.13-.13.89-.06,1.79-.08,2.68-.16.7-.06,1.39-.18,2.08-.28.15-.02.29-.04.46-.06,0,.1-.01.17-.02.26.07-.01.13-.02.22-.04-.16.19-.08.27.1.27-.02.08-.06.16-.06.23,0,.06.03.12.05.18-.09,0-.18.01-.26,0-.04,0-.08-.05-.09-.06ZM34.26,108.82c.17.09.31.15.48.24-.03-.39-.05-.4-.48-.24Z"/>
      <path class="cls-1" d="M31.61,85.8c.02.06.04.13.07.2.07-.04.16-.09.24-.13.02.02.04.04.07.05-.1.18-.17.38-.29.55-.5.74-.92,1.52-1.21,2.37-.08.22-.09.46-.14.69.02,0,.05.01.07.02.08-.14.14-.29.23-.42.09-.12.22-.22.35-.34.15.32-.08,2.34-.25,2.49.1.12.03,1.53-.09,1.65-.07-.99-.15-1.98-.22-2.96-.01,0-.03,0-.04,0-.05.84-.1,1.68-.14,2.52-.04.84-.06,1.69-.09,2.53.26.23.4.51.42.86.02.5.06,1,.08,1.49,0,.13-.01.26-.02.39-.04.57-.05,1.15-.11,1.72-.04.39-.14.77-.2,1.16-.03.18,0,.37-.01.56,0,.08-.02.19-.07.22-.07.04-.17,0-.26,0,0-.03,0-.06,0-.08.06,0,.13-.01.19-.02-.3-.1-.24-.34-.24-.56,0-.39,0-.78-.03-1.17-.03.44-.07.87-.1,1.31-.02,0-.05,0-.07,0-.05-2.71-.25-5.41-.07-8.12-.02,0-.04,0-.06,0-.02.16-.05.32-.08.54-.07-.6.02-1.18.21-1.26-.08-.02-.13-.04-.17-.06.03-.47.05-.93.08-1.39.02-.3,0-.61.08-.89.13-.5.3-.98.46-1.46.22-.68.64-1.24,1.04-1.82.14-.2.26-.4.39-.6h0Z"/>
      <path class="cls-1" d="M33.75,45.33c-.37.05-.73.14-1.1.15-.75.03-1.48.14-2.2.3-.48.11-.96.19-1.44.28-.22.04-.31.12-.27.4.07.5.04,1.02.07,1.54.03.67.08,1.33.09,2,0,.29-.04.58-.11.86-.04.16-.15.32-.25.45-.04.06-.17.09-.24.08-.04,0-.09-.13-.09-.2-.07-.95-.11-1.91-.21-2.86-.06-.57-.21-1.13-.35-1.68-.04-.15-.2-.25-.28-.39-.16-.27-.11-.34.16-.45.34-.14.65-.34.99-.47.49-.18.99-.33,1.5-.46.56-.15,1.13-.27,1.69-.4.51-.12,1.02-.1,1.53.04.4.11.63.47.53.84,0,0,0,0,0,0Z"/>
      <path class="cls-1" d="M14.33,89.31s-.07.03-.18.09c.09-.13.14-.27.2-.28.28,0,.18-.2.17-.33,0-.15-.03-.29-.05-.5-.1.16-.17.29-.27.46-.05-.22.24-.41-.03-.49.05-.17.15-.35.11-.48-.09-.3,0-.48.34-.62-.15-.02-.22-.03-.32-.05.05-.08.1-.15.14-.22.06-.09.19-.16.05-.29-.02-.01.11-.21.11-.2.19.08.26-.07.37-.17.02-.02.06-.01.09-.02.03.08.07.16.1.24.03,0,.06,0,.08,0,.14-.43.28-.87.44-1.33v.2c.14.01.28.03.42.04-.01.01-.02.03-.03.04.06.07.13.15.23.26,0,.01-.03.09-.05.17.02,0,.04,0,.06,0,.01.07.02.14.03.22,0,.06-.02.12,0,.17.05.13.18.28.15.37-.08.22.01.39.07.57,0,.02.01.03,0,.05-.09.32-.19.64-.28.95-.04.12-.09.25-.11.37-.08.48-.11.95.02,1.43.11.4-.44.96-.84.9-.07-.01-.16.03-.24.05-.31-.4-.51-.02-.81.16.1-.16.24-.29-.05-.3.07-.04.09-.06.12-.08,0,0-.01-.02-.02-.03-.09.02-.18.05-.27.07l-.02-.05c.12-.08.24-.16.4-.26-.05-.2-.1-.43-.15-.66.35-.11-.2-.32.02-.46Z"/>
      <path class="cls-1" d="M59.36,104.56s.01.08.03.14c-.13-.12-.25-.23-.38-.34-.02.02-.04.03-.06.05v.19c-.14-.04-.27-.07-.4-.1-.06-.01-.12,0-.17,0-.16.03-.32.06-.49.09-.13.02-.26.04-.39.06,0,.02,0,.05,0,.07-.08-.05-.17-.1-.21-.13-.11.07-.18.14-.26.16-.32.07-.63.13-.96.17-.1.01-.21-.04-.32-.04-.45-.01-.89-.03-1.34-.02-.61.01-1.21.05-1.82.06-.24,0-.48-.03-.72-.03-.27,0-.55.02-.82.01-.17,0-.34-.03-.5-.05-.03,0-.07-.02-.1-.01-.51.21-1.02.06-1.52,0-.24-.03-.46-.02-.69,0-.33.03-.66.03-.95-.19-.04-.03-.14-.02-.2,0-.18.04-.31-.06-.26-.24.03-.13.07-.25.14-.37.15-.25.37-.29.58-.09.21.19.45.21.67.12.42-.16.8-.06,1.22.04.37.09.77.08,1.16.09.56,0,1.13,0,1.69-.03.49-.03.99.02,1.48-.11.27-.07.59.05.89.04,1.17-.03,2.35-.07,3.52-.1.35-.01.7,0,1.04-.02.25-.01.37.09.41.33.03.21-.05.29-.27.25Z"/>
      <path class="cls-1" d="M69.59,111.03c-.2.03-.41.09-.61.1-.2.01-.41-.02-.61-.04,0,.02-.01.04-.02.07.15.06.31.12.46.18,0,.03,0,.05-.01.08-.12,0-.24.02-.35,0-.21-.04-.42-.14-.64-.17-.59-.09-1.18-.11-1.78-.05-.23.02-.47,0-.71,0-.34,0-.68-.03-1.01-.01-.36.02-.71.09-1.07.14-.04,0-.1,0-.12-.02-.19-.25-.45-.14-.73-.18.06.07.09.1.13.14-.36.13-.67,0-1-.1-.2-.06-.32,0-.32.17-.14-.05-.27-.1-.4-.13-.12-.03-.25-.06-.37-.06-.87,0-1.73.01-2.6.02-.12,0-.23,0-.35-.02-.14-.02-.26-.03-.38.11-.14.17-.46.08-.55-.17,1.2-.02,2.39-.05,3.57-.06.28,0,.57.06.85.07.09,0,.19-.09.28-.1.6-.03,1.2-.06,1.8-.08.09,0,.24.02.27.08.13.22.31.15.5.14,1.4-.1,2.79-.19,4.19-.28.95-.06,1.9-.11,2.85-.18,1.16-.08,2.31-.16,3.47-.25.21-.02.42-.09.64-.1.88-.05,1.75-.1,2.62-.28.32-.07.67-.04,1-.06.39-.02.77-.05,1.22-.08.05.07.15.2.23.34.09.15.04.26-.11.33-.23.11-.46.22-.69.32-.04.02-.08,0-.12,0-.42,0-.84,0-1.26,0-.55,0-1.1.01-1.65,0-.17,0-.33-.05-.5-.08-.02,0-.06-.03-.07-.02-.29.22-.47-.11-.72-.13,0,.16-.3.27-.51.22-.3-.08-.61-.13-.91-.19,0,.02-.01.04-.02.06.11.05.21.11.32.16-.52-.08-1.03-.34-1.47.21.09.04.17.08.25.12-.01.03-.03.05-.04.08-.14-.07-.27-.15-.41-.21-.18-.08-.37-.19-.55-.2-.32-.01-.63.05-.95.07-.17,0-.33-.03-.5-.03-.17,0-.34.03-.51.04,0,0,0,0,0,0Z"/>
      <path class="cls-1" d="M59.1,87.09c.06-.08.12-.16.2-.26-.05-.06-.14-.17-.27-.32.15.04.25.07.42.11-.13-.1-.22-.15-.28-.22-.08-.08-.17-.16-.19-.26-.01-.04.13-.12.21-.18.04-.03.09-.04.15-.07-.08-.05-.16-.1-.3-.18.07-.03.12-.06.17-.08-.06-.15-.11-.3-.18-.46.04,0,.08,0,.12-.01-.08-.37.06-.66.31-.95.11.16.2.29.28,0,.03-.11.13-.21.21-.34.05.08.1.16.18.28.07-.12.09-.17.11-.21.13.1.26.2.38.3.14.11.18.23.17.43,0,.15.16.33.28.46.13.15.29.26.49.43-.23.18-.42.36-.64.51-.26.17-.36.37-.33.68.02.23-.05.47-.04.7.01.33.12.63.43.82-.29.18-.51.29-.58.27,0,.05,0,.11-.01.16-.02,0-.03,0-.04,0-.06-.03-.13-.07-.18-.09-.09.06-.16.13-.25.16-.07.02-.2.02-.22-.02-.15-.26-.38-.12-.57-.18-.01.03-.02.05-.03.08.06.04.13.08.19.12.06.05.11.1.17.15-.02.02-.04.05-.06.07-.13-.1-.26-.2-.45-.35.05.13.08.2.13.32-.15-.02-.27-.03-.38-.05.08-.15.17-.29.25-.44.02.01.04.02.06.03-.03-.07-.05-.13-.09-.22.1.03.18.06.26.09.01-.03.02-.06.03-.09-.15-.05-.31-.1-.52-.18h.3c-.11-.07-.16-.1-.24-.15h.42c-.17-.09-.28-.15-.44-.24.16.02.27.03.37.04,0-.02.01-.03.02-.05-.07-.04-.14-.09-.26-.15.19.01.33.02.55.04-.17-.19-.29-.32-.42-.47.01,0,.04-.02.08-.04.09.05.17.1.26.14,0,0,.06-.1.09-.16-.01-.02-.03-.04-.04-.06-.11.03-.21.05-.32.08Z"/>
      <path class="cls-1" d="M31.62,85.79c.02-.08.01-.18.06-.25.16-.24.34-.48.5-.73-.62.27-1.01.8-1.35,1.36-.02-.02-.03-.03-.05-.05,0-.02-.01-.05,0-.07.35-.76.79-1.46,1.39-2.06.39-.4.72-.86,1.13-1.23,1.1-1.02,2.27-1.95,3.77-2.31.2-.05.41-.05.61-.1.1-.02.19-.1.28-.15.09-.05.18-.13.28-.15.36-.09.72-.08,1.07.09.16.08.32.16.53.26-.2.12-.32.27-.59.24-.99-.09-1.93.06-2.74.7-.55.43-1.07.91-1.61,1.35-.66.53-1.33,1.05-2,1.57-.34.26-.62.56-.84.94-.12.22-.29.4-.44.61,0,0,0,0,0,0Z"/>
      <path class="cls-1" d="M29.24,54.26c-.17.28-.3.52-.46.73-.34.46-.72.88-.97,1.4-.16.33-.48.58-.72.87-.21.26-.42.53-.63.78-.16.19-.32.37-.51.54-.3.27-.61.52-.92.78-.02.02-.06.04-.07.07-.13.37-.4.58-.76.7-.13.04-.25.1-.41.16,0-.03,0,.01,0,.06-.02,0-.05-.01-.07-.02-.07-.01-.17-.05-.2-.02-.2.18-.39.04-.65.03.1-.1.15-.17.21-.23.71-.64,1.45-1.25,2.13-1.93.66-.66,1.26-1.39,1.89-2.08.45-.49.91-.96,1.35-1.47.15-.18.27-.34.54-.28.04.01.1-.04.23-.1Z"/>
      <path class="cls-1" d="M38.7,53.76c.23-.01.44-.02.7-.03-.28.54-.52,1-.77,1.48-.27-.15-.51-.33-.81-.06-.3-.45-.78-.31-1.25-.37.07-.08.1-.12.13-.16-.38-.36-.52-.81-.51-1.32,0-.35.13-.53.49-.6.24-.04.27.2.4.31.03.03.03.1.05.19.05-.06.07-.08.1-.11.16-.21.31-.35.63-.3.21.03.41.01.58.15.25.2.33.48.25.82Z"/>
      <path class="cls-1" d="M44.79,103.26c0-.39,0-.79,0-1.18-.02-1.16-.07-2.33-.06-3.49,0-1.63.03-3.25.06-4.88.03-1.19.09-2.38.13-3.57.01-.37.02-.75,0-1.12,0-.17-.07-.34-.11-.52.19-.04.51.24.54.49.07.65-.07,1.27-.19,1.9-.04.24-.03.5-.02.75.22-.4-.11-1.01.51-1.23.22.25.23.58.23.9,0,.11-.09.21-.09.32,0,.11.04.21.07.32.04.15-.03.2-.16.21-.13.02-.21-.02-.23-.16-.03-.19-.06-.39-.15-.58-.02.08-.04.16-.05.24-.1,1.15-.21,2.31-.28,3.46-.03.51.02,1.03.03,1.54,0,.2-.02.4-.02.59-.02,1.23-.04,2.46-.07,3.69-.02.69-.06,1.38-.09,2.07,0,.08-.02.16-.02.24-.01,0-.03,0-.04,0Z"/>
      <path class="cls-1" d="M17.83,89.92s0,0,0,0c.07.08.17.15.2.25.05.16.07.33.07.5,0,.34-.04.67-.06,1.01-.01.18-.02.36-.04.52.03.09.1.18.1.27.03.57.05,1.14.06,1.71,0,.35,0,.69,0,1.04,0,.65.03,1.29.03,1.94,0,.35-.02.69-.02,1.04,0,.06.02.13.03.19h0c-.06.04-.12.08-.18.13.02,0,.05.01.07.02,0,.16,0,.32-.03.48-.05.22-.13.43-.18.64-.02.08.02.16.02.25,0,.1-.03.21-.09.3.02.11.06.23.05.34-.03.29-.11.58-.13.87,0,.07.14.14.23.23-.06,0-.12,0-.2.01,0,.25.16.53-.14.78.15-.68-.18-1.34.06-2-.02-.03-.07-.1-.07-.16-.01-.38,0-.75-.02-1.13,0-.17-.08-.34.06-.49-.18-.11-.02-.22,0-.33-.05-.03-.09-.06-.13-.09.15-.17.29-.33.45-.5-.14-.05-.28-.1-.42-.15v-.03h.28c.03-.16.05-.3.08-.46-.06,0-.15-.02-.29-.05.32-.21.03-.43.12-.63-.03-.02-.07-.04-.1-.06l-.08.24-.11-.08c.07-.13.14-.25.23-.4-.07.01-.13.02-.21.04.39-.3.28-.72.41-1.06-.03,0-.05-.02-.08-.03-.05.16-.1.32-.17.53-.09-.1-.15-.17-.25-.27.13-.01.2-.02.34-.04-.11-.09-.18-.15-.25-.21-.01-.01-.04,0-.07-.06.1-.01.2-.02.26-.03-.01-.17-.03-.34-.04-.53-.05.02-.11.04-.17.06.1-.27.19-.54.3-.85-.12-.05-.27-.11-.41-.16.33-.07.33-.08.34-.45,0-.09.05-.19.08-.3-.04,0-.09,0-.16-.02.1-.45.2-.89.29-1.33h.07c-.08.06-.15.1-.27.17.07-.31.12-.58.18-.86-.25-.21-.27-.51-.03-.75Z"/>
      <path class="cls-1" d="M38.31,108.33c0-.05-.02-.09-.02-.13,0,0,.01,0,.02-.01,0,0,.02,0,.02,0,.29.24.62.14.94.11.38-.04.75-.13,1.13-.18.17-.02.35.03.52-.01.45-.12.88.09,1.32.09.49,0,.98,0,1.46,0,.13,0,.26.03.45.05-.16.2-.32.28-.51.29-.55.03-1.1.04-1.65.05-.59.01-1.18,0-1.76.02-.54.02-1.07.11-1.61.13-.65.02-1.31,0-1.96,0-.1,0-.2.04-.3.03-.11-.01-.23-.04-.31-.1-.08-.07-.08-.2.08-.21.43-.03.86-.02,1.28-.09.15-.02.3.13.46-.03.07-.07.28,0,.45,0Z"/>
      <path class="cls-1" d="M42.39,85.21c-.21-.17-.41-.37-.64-.51-.31-.19-.64-.36-.98-.5-.66-.27-1.33-.49-2.04-.55-.25-.02-.5-.12-.75-.12-.38,0-.77.03-1.14.11-.91.21-1.8.45-2.62.92-.03.02-.07.01-.12-.03,1.21-.8,2.51-1.39,3.97-1.32,1.68.08,3.21.62,4.31,2Z"/>
      <path class="cls-1" d="M46.49,104.78c-.39.13-.74.26-1.09.36-.28.08-.57.14-.86.2-.04,0-.1,0-.12-.01-.13-.19-.26-.38-.37-.58,0-.02.1-.15.15-.15.65-.03,1.29-.05,1.94-.07.02,0,.03,0,.05,0q.31-.03.29.25Z"/>
      <path class="cls-1" d="M30.08,52.92c.07-.15.14-.29.22-.44.14-.27.25-.56.43-.8.18-.25.34-.23.62.03-.42.42-.84.83-1.26,1.25,0-.01,0-.03,0-.04Z"/>
      <path class="cls-1" d="M59.76,103.99c.41.03.82.06,1.23.09,0,.02,0-.02,0-.1.12.07.22.12.31.17,0,.03-.01.06-.02.08-.13.01-.25.03-.35.04.04.14.09.3.13.47-.02,0-.05.01-.07.02-.09-.07-.17-.15-.27-.19-.28-.13-.57-.24-.86-.36-.06-.03-.11-.1-.17-.15.02-.03.04-.05.06-.08Z"/>
      <path class="cls-1" d="M48.73,47.41c.03.35.07.64.08.93,0,.04-.08.13-.13.13-.08,0-.18-.03-.23-.08-.07-.08.03-.78.1-.85.03-.03.08-.05.18-.12Z"/>
      <path class="cls-1" d="M43.54,84.36c.49.69.66,1.53,1.06,2.26-.04.02-.07.03-.11.05-.34-.76-.68-1.52-1.01-2.28.02,0,.04-.02.06-.03Z"/>
      <path class="cls-1" d="M41.16,81.56c-.18-.07-.37-.13-.54-.21-.35-.17-.69-.35-1.1-.56.24-.11.43-.1.59,0,.34.21.66.45.99.68.02.02.04.05.05.08h0Z"/>
      <path class="cls-1" d="M62,103.96c.39-.1.63.15.88.38-.22.1-.84-.18-.88-.38Z"/>
      <path class="cls-1" d="M41.16,81.57c.47.2.77.59,1.08.97.08.1.15.21.19.34-.17-.19-.33-.39-.5-.58-.09-.09-.21-.16-.3-.25-.16-.16-.31-.33-.46-.49,0,0,0,0,0,0Z"/>
      <path class="cls-1" d="M18.14,61.5c-.15-.02-.29-.04-.44-.07,0-.03,0-.05,0-.08-.05.04-.09.08-.16.14.08-.33.34-.51.55-.4.05.03.08.09.13.14-.06.02-.11.03-.17.05-.04,0-.08,0-.19.02.12.09.2.15.28.21,0,0,0,0,0,0Z"/>
      <path class="cls-1" d="M46.36,103.58c-.07-.06-.17-.11-.17-.17-.02-.18,0-.37.01-.55,0-.05.07-.1.16-.13v.85Z"/>
      <path class="cls-1" d="M33.48,47.75c-.2.34-.39.68-.59,1.01-.04-.02-.07-.04-.11-.06.08-.15.15-.32.25-.46.13-.18.3-.33.45-.49,0,0,0,0,0,0Z"/>
      <path class="cls-1" d="M46.27,99.99v-1.55s.04,0,.06,0v1.55s-.04,0-.06,0Z"/>
      <path class="cls-1" d="M67.57,102.99c-.12-.21-.23-.38-.35-.59-.05.03-.14.07-.23.12,0-.05.02-.12.03-.19.38.01.68.34.55.66Z"/>
      <path class="cls-1" d="M48.27,48.84c-.16.05-.49-.11-.5-.24,0-.04.04-.1.07-.11.07-.01.14,0,.21.02,0,0,0,.01.01.02.07.1.13.2.21.32Z"/>
      <path class="cls-1" d="M46.15,96.17c.04.45.07.89.11,1.34-.03,0-.05,0-.08,0-.03-.45-.07-.89-.1-1.34.02,0,.05,0,.07,0Z"/>
      <path class="cls-1" d="M46.52,38.12c.16.11.31.22.48.34-.1.25-.13.26-.32.01-.08-.1-.13-.22-.19-.32.01,0,.02-.02.04-.03Z"/>
      <path class="cls-1" d="M30.75,93.05c-.17.25.11.57-.14.81-.03,0-.06,0-.09-.01.04-.27.09-.54.13-.81.03,0,.06,0,.1.01Z"/>
      <path class="cls-1" d="M46.35,101.98c-.24-.27,0-.51-.06-.78.02,0,.04,0,.06,0v.77Z"/>
      <path class="cls-1" d="M27.51,84.78v.89c-.16-.23-.18-.71,0-.89Z"/>
      <path class="cls-1" d="M10.82,71.31c-.04.21-.09.42-.13.63h-.05c-.03-.13-.05-.28-.08-.44.05-.06.11-.13.18-.21.03,0,.05.01.08.02Z"/>
      <path class="cls-1" d="M45.46,89.22c.13.26.14.89,0,1.08v-1.08Z"/>
      <path class="cls-1" d="M30.09,53.04c-.14.2-.27.37-.4.55-.05-.05-.1-.09-.14-.13.32.03.19-.49.55-.42Z"/>
      <path class="cls-1" d="M69.58,111.04c.31.04.61.07.94.11-.03.05-.03.06-.04.08-.22-.12-.44-.05-.66,0-.12.02-.23-.03-.23-.19,0,0,0,0,0,0Z"/>
      <path class="cls-1" d="M18.19,98.38c.04.29.21.57.05.87-.01.03-.03.06-.05.09,0-.33,0-.65,0-.97,0,0,0,0,0,0Z"/>
      <path class="cls-1" d="M31.83,39.97c-.17.1-.19-.08-.27-.14-.04-.07-.08-.14-.15-.25.2.12.42.13.42.4Z"/>
      <path class="cls-1" d="M18.04,67.45c.09.01.18.02.28.04,0,.1.02.21.02.31,0,.05-.04.09-.06.14-.03-.04-.09-.07-.09-.11,0-.08.03-.16.04-.25-.06-.02-.13-.05-.2-.08,0-.01.01-.02.02-.04Z"/>
      <path class="cls-1" d="M10.4,73.75s.05-.09.07-.13c.03.02.06.04.08.06-.07.15-.14.3-.21.46-.04-.02-.08-.04-.13-.06.06-.11.12-.22.18-.33,0,0,0,0,0,0Z"/>
      <path class="cls-1" d="M32.33,24.57c-.06.12-.13.24-.19.37-.03.07-.05.15-.07.23-.02,0-.04-.01-.07-.02.05-.21.1-.42.16-.66.05.03.11.05.16.08,0,0,0,0,0,0Z"/>
      <path class="cls-1" d="M14.02,63.7c.26-.08.47-.15.67-.21-.16.31-.44.41-.67.21Z"/>
      <path class="cls-1" d="M37.6,27.26c.08.11.13.18.18.24.01,0,.02-.01.04-.02-.05-.18-.1-.36-.15-.54.02,0,.03,0,.05-.01.04.11.09.22.13.33-.02-.18.12-.4-.11-.57.03-.01.11-.06.13-.04.06.05.1.13.17.24-.01-.16-.02-.29-.03-.45.17.02.33.04.51.07.02-.04.05-.1.09-.17.09.18.18.35.25.5.08-.05.15-.09.23-.15.03.16.05.27.07.38.02,0,.04,0,.06,0,0-.06.01-.12.02-.19.1.14.2.2.24-.03.32.3.37.74.07,1.04-.2.2-.1.44-.19.65-.09.22-.19.45-.23.68-.04.21-.03.43,0,.64.05.28.14.54.21.82.02.08.01.17.02.3-.18-.11-.32-.16-.44.04-.03.05-.24.02-.35-.03-.14-.06-.25-.18-.39-.02-.02.02-.09.02-.11,0-.2-.12-.4-.04-.6-.02,0,0-.01,0-.05.04-.05-.26-.12-.5-.13-.74,0-.23.07-.46.1-.69.07-.43.16-.85.2-1.28.03-.33,0-.67,0-1.04Z"/>
    </g>
  </g>
</svg>