<?xml version="1.0" encoding="UTF-8"?>
<svg id="Layer_2" data-name="Layer 2" xmlns="http://www.w3.org/2000/svg" viewBox="0 0 79.35 92.51">
  <defs>
    <style>
      .cls-1 {
        fill: #000;
        stroke-width: 0px;
      }
    </style>
  </defs>
  <g id="illustrations">
    <g>
      <path class="cls-1" d="M48.07,88.75c.26.07.52.13.78.2.01-.02.02-.05.03-.07-.11-.07-.21-.14-.32-.19-.76-.34-1.43-.79-1.9-1.51-.3-.46-.61-.91-.97-1.32-.31-.36-.5-.75-.63-1.19-.03-.1-.12-.18-.18-.26-.02-.03-.07-.06-.07-.09-.02-.13,0-.27-.04-.39-.03-.13-.11-.25-.16-.38-.05-.02-.09-.04-.14-.06.08-.04.16-.07.23-.11-.14-.11.15-.38-.17-.43-.02,0-.05-.05-.05-.07,0-.21.03-.42.04-.63,0-.04-.02-.09-.04-.14-.01-.05-.06-.12-.04-.16.11-.26.12-.25,0-.45-.01-.16-.06-.32-.04-.47.06-.4-.12-.81.13-1.2.08-.12.05-.31.06-.47,0-.1,0-.21,0-.31h.06s-.08-.07-.14-.13c.08-.03.13-.05.19-.07-.15-.19-.21-.38-.07-.6.04-.06.06-.15.06-.23,0-.22,0-.44,0-.68h.15s0-.09,0-.1c-.21-.24-.11-.55-.17-.82,0-.02,0-.05.01-.07.36-.38.12-.85.17-1.27.03-.25-.01-.52-.04-.77-.03-.24.08-.51-.1-.73,0-.01-.01-.03,0-.05.05-.33.11-.67.15-1,.02-.17.02-.35.03-.53.03-.65.05-1.3.08-1.95,0-.09.08-.17.1-.26.02-.16.03-.32.03-.49,0-.12-.02-.25-.03-.37-.02-.17-.05-.35-.05-.52-.02-.6-.02-1.19-.03-1.79,0-.59,0-1.17,0-1.81-.11.08-.16.12-.22.17.04-.37.08-.72.12-1.07.02-.17.07-.34.09-.51.01-.11.05-.25,0-.33-.15-.21-.05-.34.06-.43-.04-.2-.07-.36-.1-.53-.11-.01-.22-.03-.38-.05.07-.06.1-.09.13-.11.35-.22.4-.45.15-.78-.02-.03-.04-.07-.04-.11,0-.93.01-1.86,0-2.79-.01-.81-.04-1.61-.11-2.41-.05-.69-.11-1.39-.11-2.08,0-.73,0-1.45-.03-2.18-.02-.45-.09-.9-.13-1.36,0-.08.04-.17.06-.29-.2-.12-.19-.33-.17-.57.05-.61.09-1.23.09-1.84,0-.64-.08-1.29-.11-1.93,0-.08.01-.16.02-.24.03-.25,0-.47-.27-.58.25-.27.18-.59.16-.9-.01-.18,0-.36-.02-.53-.02-.25-.02-.51-.06-.76-.07-.51-.15-1.02-.22-1.54,0-.04.05-.08.07-.12-.04,0-.08,0-.16.01.08-.06.13-.1.19-.15-.05-.05-.09-.11-.11-.13.01-.12.04-.2.03-.29-.02-.19-.09-.37-.1-.55,0-.08.07-.17.11-.26.15-.34.06-.72-.15-1.01-.11-.16-.09-.4-.13-.61,0-.03,0-.07.01-.09.04-.12.06-.32.14-.35.17-.08.39-.11.57-.08.23.03.28.28.15.52.05.11.13.2.14.31.05.34.09.68.12,1.01,0,.05-.06.11-.11.2.03.11.1.27.12.43.04.2.08.39.3.47.04.01.06.13.06.19-.01.49-.04.97-.04,1.46,0,.09.06.17.07.2.02.27-.03.51.06.68.16.31.09.62.12.93.04.38.07.77.05,1.15-.02.36.1.7.05,1.06-.01.1-.05.2-.07.26.02.22.05.41.06.6,0,.03-.07.1-.08.1-.09-.05-.19-.1-.27-.16-.05-.04-.1-.14-.08-.17.37-.7.1-1.43.08-2.15-.01-.38-.12-.77-.2-1.15-.02-.12-.1-.22-.15-.34-.02,0-.04.01-.06.02.02.16.02.33.05.48.09.4,0,.8,0,1.2,0,.21.04.42.07.65-.02,0-.07.02-.11.03.09.28.17.55.26.81-.02,0-.03.02-.05.02-.04-.07-.09-.13-.16-.24,0,.35-.05.66.01.94.07.28.25.54.39.82-.04.01-.11.04-.19.07.04.16.08.32.12.47-.05.07-.11.16-.16.25.01.02.03.04.04.06.07-.03.14-.06.22-.09.01.16.02.31.03.47.01.16.02.31.03.48-.08-.05-.15-.1-.21-.14l-.11.45s.05.02.08.03c.06-.03.11-.07.22-.13-.08.23-.15.42-.21.61-.02,0-.04,0-.06,0-.02-.12-.04-.23-.05-.35,0,0,0,0-.01,0,0,.17-.01.35,0,.52.04.57.06,1.15.16,1.71.08.45-.01.88-.02,1.31,0,.51.11.98.3,1.45.06.14-.02.33-.05.5-.02.15-.06.29-.08.43-.01.11-.02.22,0,.33.02.17.07.35.09.52,0,.09-.03.18-.05.28-.02,0-.05.01-.07.02.06.04.12.08.2.14-.04.09-.09.2-.15.33.08.26.16.55.26.86-.03.02-.1.08-.18.13.02,0,.04,0,.06,0-.03.3-.06.6-.08.9,0,.09.02.19.03.28.02.21.04.42.06.63,0,.03,0,.08,0,.09.23.17.06.29-.11.42.1,0,.15.01.24.02-.22.86-.06,1.71.01,2.6-.08-.03-.13-.05-.19-.07,0,.02,0,.04,0,.04.22.2.17.48.21.73.06.42-.06.86.19,1.26.05.07,0,.2,0,.31.01.1.04.19.08.33-.02,0-.09.05-.17.1q.12.7.03.77c.05.55.09,1.06.14,1.6-.2.04-.2.2-.2.37,0,.47-.01.94-.03,1.41,0,.07-.05.14-.07.22,0,.04,0,.09.01.13.02,0,.05,0,.07.01.1-.23.19-.46.29-.7.19.22.07.54-.32.85.07.25.19.48.08.79-.08.21.05.5.08.75,0,.06.04.14,0,.19-.14.22-.09.44-.06.67.01.13-.03.26-.04.4-.01.21-.01.41-.01.62,0,.63-.02,1.25-.02,1.88,0,.1.04.19.07.33,0,0-.07.06-.08.12-.05.8-.08,1.61-.14,2.41-.02.22-.1.44-.14.65-.1.47-.09.92.04,1.39.07.26.07.56.02.83-.13.64-.08,1.25.12,1.86.13.39.21.81.39,1.18.27.52.54,1.04.98,1.46.25.24.42.56.67.79.24.22.53.37.8.57.1.07.16.2.27.25.27.12.55.22.84.31.18.05.37.05.55.1.43.12.8.04,1.13-.27.11-.11.12-.2.02-.31-.06-.06-.11-.15-.18-.19-.43-.27-.6-.72-.78-1.14-.29-.65-.54-1.32-.8-1.98-.19-.48-.35-.97-.53-1.46-.05-.13-.14-.25-.23-.4.1-.09,0-.17-.07-.3-.12-.2-.16-.45-.24-.68-.05-.16.05-.4-.24-.44-.02,0-.03-.07-.04-.11-.02-.15.09-.3-.03-.45-.06-.08-.09-.17-.16-.3-.29.54.09,1.13-.28,1.57-.03,0-.06,0-.08,0-.02-.37-.06-.74-.06-1.11,0-.25.04-.51.06-.76,0-.1.02-.21,0-.31-.03-.21-.11-.42-.1-.62.02-.32-.05-.57-.39-.67.13-.08.27-.12.32-.21.05-.09.01-.23.01-.35,0-.15.08-.32-.1-.43,0,0-.01-.04,0-.04.18-.17.06-.41.14-.61.08-.2.1-.41-.05-.5,0-.38,0-.7,0-1.02,0-.12.02-.23.04-.35,0-.02.04-.05.03-.06-.21-.38.07-.78-.08-1.17-.03-.08.03-.2.03-.3,0-.18-.02-.36-.02-.54,0-.25.01-.51,0-.76-.02-.74-.04-1.47-.07-2.21,0-.22-.07-.45-.1-.67,0-.03,0-.06.01-.09.18-.4.17-.44-.11-.7.26-.26.15-.55.1-.86-.05-.31-.04-.64-.05-.95,0-.07.06-.14.1-.22-.03-.02-.07-.04-.07-.05v-2.26s.08-.03.19-.08c-.09-.21-.18-.42-.26-.63-.03-.07-.05-.15-.05-.22,0-.41.02-.82,0-1.23-.02-.79-.05-1.58-.08-2.37-.02-.47-.05-.94-.08-1.4-.02-.47-.04-.93-.06-1.4,0,0,0-.02,0-.02-.26-.39.07-.82-.06-1.22-.02-.06.02-.14.02-.21,0-.07-.03-.13-.04-.2,0-.03,0-.07,0-.1.09-.26.03-.52,0-.79-.03-.25-.1-.53.02-.79.04-.1.1-.28-.11-.34-.02,0-.05-.07-.05-.1.03-.24.07-.47.11-.7.01-.07.04-.18.01-.2-.25-.18-.11-.39-.04-.57.07-.22-.01-.34-.22-.43.23-.16.2-.31.13-.54-.06-.18.06-.41.07-.62.02-.27.12-.54-.03-.81-.03-.06.03-.17.02-.25,0-.12-.02-.24-.03-.36-.01-.2-.11-.39-.05-.6.01-.04-.07-.11-.05-.16.01-.39.03-.77.05-1.19-.08-.05-.12-.12-.09-.31.05-.43,0-.86-.02-1.29,0-.18-.07-.37-.09-.55-.01-.09.01-.18,0-.28-.01-.24-.09-.49.03-.73.02-.04-.02-.15-.07-.19-.16-.16-.13-.34-.09-.53.03-.17.02-.35.03-.56.18-.04.15-.24.07-.32-.16-.17-.1-.31,0-.47-.11-.03-.19-.06-.33-.11.33-.15.23-.34.16-.56-.08-.25-.12-.51.05-.76.05-.07.07-.21.03-.3-.13-.32-.01-.58.16-.9-.13,0-.21.01-.3.02,0-.03.02-.1,0-.11-.28-.14-.15-.35-.03-.47.14-.13.12-.28.12-.4-.02-.48.24-.7.68-.8.17-.04.19.07.16.2-.03.15-.11.29-.11.44,0,.24.04.48.08.72,0,.04.08.06.15.12.03-.14.06-.24.07-.35.05-.36.08-.73.15-1.09.03-.13.14-.25.23-.36-.12,1.58-.22,3.14-.21,4.7-.04,0-.07,0-.11,0-.05-.93-.09-1.86-.14-2.79-.34.11-.38.4-.36.66.01.25-.18.56.16.77-.33.27-.09.64-.19.95,0,.03.03.07.06.1.12.12.22.25.36.34.18.12.17.28.17.47,0,.32.06.63.1.95.01.13.03.26.02.38,0,.17-.09.28-.3.3.07-.09.11-.15.19-.25-.37.07-.4.15-.34.46.04.2.02.42.01.63-.02.44-.05.88-.06,1.32,0,.26.05.52.06.78.01.33,0,.66,0,.99.02,1.24.05,2.49.08,3.73.02.6.07,1.19.09,1.79.03.73.04,1.46.06,2.18.02.51.02,1.02.06,1.53.02.27.1.54.12.81.03.37.04.75.05,1.12.01.44,0,.88.01,1.32,0,.32.01.65.03.97,0,.05.05.11.1.21-.11.34-.01,1.45.12,1.79-.05.04-.11.08-.19.13.09.04.16.07.24.1-.07.08-.13.16-.22.27.08.02.12.03.16.05.04.02.09.05.1.08,0,.03-.03.09-.06.1-.16.06-.14.18-.12.32.02.18-.02.37.12.53.03.03-.05.16-.09.27.07.1.22.22.06.41-.04.04.06.19.1.31-.12.21-.12.43-.02.69.07.17.03.39.02.59-.01.44-.01.89-.06,1.33-.05.41,0,.8.09,1.21.05.23-.01.49-.02.77,0,0,.05.02.08.03-.02.32-.04.64-.05.95-.02.36-.03.73-.03,1.09,0,.34.03.69.03,1.03,0,.28-.03.57-.03.85,0,.18.03.36.03.53,0,.08-.03.17-.03.25,0,.22.01.45.01.67,0,.12-.02.23-.02.35,0,.1,0,.2,0,.3-.01.55-.03,1.1-.04,1.65,0,.23.02.45.04.69-.02-.02-.05-.04-.08-.07h-.05c.05.17.12.32.15.48.07.37.13.75.19,1.12.03.16.02.33.07.48.04.13.16.23.21.36.08.23.13.46.18.7.12.57.36,1.08.66,1.57.42.7.85,1.39,1.23,2.11.1.19.13.46.1.68-.08.5.2.82.5,1.14.06.07.14.14.21.19.18.13.37.1.47-.08.13-.24.25-.49.35-.75.29-.68.6-.88,1.27-.83.48.03.97.02,1.45.02.26,0,.45-.14.52-.4.05-.19.17-.32.35-.39.23-.1.26-.24.1-.44-.3-.36-.61-.72-.9-1.08-.05-.06-.09-.14-.09-.21,0-.11.05-.22.07-.32.09.07.18.12.26.2.57.6,1.17,1.17,1.97,1.47.31.11.64.2.86.48.03.03.08.06.12.07.45.14.89.29,1.37.31.5.02,1,.15,1.5.15.44,0,.89-.06,1.32-.16.49-.11.97-.25,1.44-.44.22-.09.41-.29.6-.46.03-.02-.02-.12-.02-.18.03-.52-.38-.71-.7-.99-.18-.16-.35-.34-.52-.51.39.31.78.63,1.18.94.16.12.5-.09.55-.33.02-.08.07-.15.16-.21-.02.44.15.93-.37,1.21-.03.02-.06.07-.07.12-.08.37-.32.58-.65.73-.26.12-.49.33-.76.43-.24.09-.52.1-.79.13-.42.06-.84.09-1.25.16-.14.02-.25.17-.39.22-.08.03-.23.03-.29-.03-.33-.3-.64-.31-.96,0-.05.04-.09.09-.15.14-.17-.11-.32-.23-.49-.32-.12-.07-.24-.12-.37-.16-.35-.11-.71-.19-1.05-.32-.5-.18-1.01-.24-1.53-.13-.1.02-.19.14-.27.22-.44.43-.82.51-1.38.27-.1-.04-.21-.06-.35-.1.04.09.05.13.06.15-.22,0-.45-.02-.67,0-.21.03-.42.1-.62.16,0,.03.01.05.02.08.25-.01.5-.03.75-.04,0,.01,0,.03,0,.04-.24.05-.49.07-.72.14-.35.1-.42.18-.37.52.05.33-.11.55-.27.78-.07.11-.14.23-.21.34-.13.22-.08.4.13.53.17.11.09.23-.01.31-.1.08-.23.16-.36.18-.24.05-.37.2-.48.41.1.04.19.08.32.13-.07.03-.1.06-.13.06-.46.06-.91.11-1.37.16-.08,0-.17-.03-.24-.07-.28-.18-.57-.19-.9-.15-.32.04-.66.13-.95-.11-.29-.24-.66-.22-.99-.31-.04-.01-.1,0-.14-.02-.49-.38-.95-.07-1.42.03.41.2.81-.19,1.23-.02-.46.15-.82.52-1.36.48-.37-.03-.76.09-1.14.13-.13.01-.27-.05-.4-.06-.44-.03-.87-.13-1.31-.05-.03,0-.05.03-.11.07.1.05.16.09.29.16-.52,0-.99.09-1.42-.21-.08-.06-.27-.04-.36.02-.31.2-.63.34-1.01.34-.01.04-.03.09-.04.12-.14-.03-.26-.05-.38-.07,0,.02-.01.05-.02.07.05.02.11.04.17.07-.03.02-.05.05-.06.05-.63-.14-.9.39-1.29.69-.3.23-.63.43-.96.62-.19.11-.41.15-.6.24-.11.05-.21.13-.33.18-.2.23-.41.4-.76.35-.2-.03-.41.05-.61.08-.3.05-.6.11-.91.17-.19.04-.39.1-.58.11-.14,0-.28-.06-.42-.07-.06,0-.13.02-.19.04-.07.03-.15.1-.21.09-.43-.11-.87-.23-1.29-.36-.11-.03-.19-.13-.32-.23.02.1.04.16.07.29-.37-.05-.71-.09-1.04-.13,0-.03,0-.06,0-.1.1-.03.2-.06.29-.1.05-.02.12-.06.14-.11.01-.03-.05-.11-.09-.13-.54-.32-1.08-.61-1.75-.48-.06.01-.15.03-.19,0-.27-.21-.55-.12-.83-.06-.35.08-.68.2-1.03.29-.16.04-.32.03-.48.07-.38.11-.76.24-1.13.36-.07.02-.13.06-.19.1-.36.23-.58.21-.92-.05-.09-.07-.23-.13-.34-.11-.53.1-1.05.23-1.58.34-.47.1-.94.19-1.41.27-.31.05-.62.08-.93.11-.06,0-.12-.03-.18-.03-.06,0-.15-.01-.16,0-.08.18-.19.1-.31.07-.28-.07-.57-.09-.84-.17-.23-.06-.44-.16-.66-.25.33-.57.17-1.13-.36-1.45-.11-.07-.16-.36-.11-.42-.08-.16-.14-.33-.24-.46-.13-.18-.27-.36-.43-.52-.19-.18-.41-.34-.61-.51-.51-.42-1.1-.66-1.73-.82-.15-.04-.3-.1-.45-.15-.15-.05-.29-.1-.39.08-.01.02-.05.04-.08.05-.41.08-.82.23-1.23.22-.32-.01-.62.06-.93.09-.17.01-.31.03-.39.21-.03.07-.13.13-.21.14-.5.1-.94-.03-1.28-.41-.29-.33-.47-.75-.85-1.02-.11-.08-.15-.23-.13-.4.03-.18-.01-.37-.05-.55-.03-.14,0-.22.14-.28.34-.14.43-.73.14-.96-.61-.47-1.23-.92-1.84-1.38-.17-.12-.34-.24-.48-.4-.1-.11-.17-.27-.19-.41-.04-.28-.14-.38-.45-.35-.51.06-.96-.16-1.35-.47-.25-.2-.47-.44-.7-.68-.15-.16-.32-.32-.44-.51-.25-.39-.51-.78-.69-1.2-.09-.2-.01-.47,0-.7,0-.02.01-.06.03-.06.42-.2.38-.7.63-1.02.25-.31.35-.74.52-1.12.07-.15.15-.29.21-.44.01-.03-.03-.08-.04-.11.08-.06.16-.12.24-.18,0-.01-.02-.02-.02-.04-.05.02-.09.04-.16.07.02-.16.06-.32.04-.45-.03-.15-.13-.3-.21-.46-.42-.07-.82-.25-1.17-.55-.14-.12-.32-.17-.48-.26-.38-.23-.78-.44-1.11-.73-.19-.17-.31-.46-.21-.76.04-.13.11-.25.13-.38.02-.07-.01-.16-.04-.24-.07-.16-.15-.31-.23-.46.14-.06.22-.09.33-.13-.27-.13-.33-.5-.15-.79.07-.11.18-.2.26-.31.1-.13.17-.28.27-.41.08-.11.17-.22.31-.3v.19s.05.01.07.02c.04-.12.08-.23.12-.35-.02,0-.03-.02-.05-.02.05-.02.1-.04.14-.07.82-.71,1.67-1.4,2.27-2.32.23-.34.39-.73.55-1.11.28-.67.41-1.38.43-2.12.02-.59.13-1.17.18-1.76.05-.56.1-1.12.14-1.69.02-.35.03-.7.05-1.06.04-.65.08-1.31.12-1.96.03-.57.05-1.15.08-1.72,0-.21,0-.43.01-.64.01-.21.04-.41.33-.41.04,0,.07-.06.09-.14-.11.02-.22.03-.39.05.04-.16.05-.31.11-.43.06-.12.19-.21.33-.36h-.41c.02-.31.04-.61.06-.9.15,0,.28-.02.46-.03-.07-.16-.13-.29-.21-.45-.08.07-.13.12-.21.2v-.25c.17-.05.32-.09.5-.14-.11-.07-.19-.12-.28-.17,0-.01,0-.03,0-.04.06,0,.12.02.17,0,.05-.02.1-.07.13-.12.01-.02-.02-.1-.04-.1-.05,0-.1,0-.14.03-.09.04-.18.09-.28.12.09-.22.22-.37.49-.33,0-.02.02-.05.03-.07-.14-.12-.28-.24-.41-.36-.01.02-.03.03-.04.05.02.1.08.2.06.29-.01.07-.12.12-.23.22-.04-.72-.09-1.38-.13-2.04.19-.04.27-.21.23-.37-.02-.06,0-.12,0-.19,0-.02.02-.05,0-.07-.2-.23.01-.43.05-.64.03-.14.05-.28.07-.42.01-.07,0-.16.03-.21.23-.35.24-.7.06-1.09-.02-.04-.07-.18-.04-.3.11-.42.2-.84.29-1.27.04-.21.02-.46.1-.65.16-.37.14-.76.19-1.15.03-.25.13-.5.21-.75.03,0,.06.01.08.02-.06.59-.15,1.19-.17,1.78-.02.61-.53,1.1-.38,1.76.06-.03.11-.06.17-.09.04.21-.05.3-.24.31.15.11.14.22.11.4-.09.55-.23,1.1-.17,1.68.02.22-.07.46-.15.68-.09.23.03.22.13.22.1-.14.19-.23.23-.35.05-.15.06-.31.08-.47.03-.43.04-.86.09-1.29.06-.59.14-1.19.23-1.78.14-.89.28-1.79.45-2.68.08-.4.02-.84.28-1.21.07-.1.05-.26.06-.39.02-.25.04-.51.07-.78-.06-.01-.13-.03-.16-.03v-.47s.03.02.06.04c.17.11.31.08.37-.12.08-.27.12-.55.17-.83.04-.22.08-.43.12-.65-.02,0-.05-.02-.07-.02-.07.21-.15.41-.22.62-.02,0-.04,0-.05-.01.05-.16.08-.33.15-.48.12-.26.28-.5.4-.76.08-.18.13-.38.17-.57.12-.62.4-1.15.85-1.6.18-.18.12-.52-.09-.69-.05-.04-.07-.13-.1-.2.07-.06.15-.12.23-.18,0-.03-.01-.06-.02-.08-.08,0-.17.01-.25,0-.06-.01-.11-.07-.17-.11.05-.04.09-.1.15-.11.12-.03.16-.12.23-.21.16-.2.37-.38.59-.52.53-.33,1.1-.54,1.74-.55.18,0,.36-.06.54-.08.35-.03.72-.01,1.06-.1.35-.09.68-.1,1.04-.13.88-.05,1.75-.19,2.63-.28.45-.04.91-.05,1.36-.07.28,0,.56.04.84.02.36-.03.72-.11,1.08-.15.35-.04.7-.03,1.05-.06.5-.04,1-.13,1.5-.14.32-.01.63-.23.97-.06.02,0,.05,0,.07,0,.65-.04,1.3.1,1.95-.03.31-.06.65.03.98.01.84-.04,1.68-.12,2.53-.16.83-.04,1.66-.08,2.49-.09.29,0,.58.13.87.14,1.02.05,2.04.08,3.06.13.11,0,.21.06.3.05.18-.04.35-.11.53-.12.33-.02.67,0,1.04,0-.05-.1-.08-.16-.11-.22-.25-.5-.48-1.02-.76-1.5-.19-.33-.48-.61-.69-.94-.15-.23-.25-.49-.38-.74-.09-.16-.18-.32-.28-.48-.05-.09-.12-.17-.17-.25-.1-.15-.04-.27.1-.33.17-.07.18-.19.18-.35,0-.07.06-.14.09-.21.06-.11.13-.22.19-.32.04-.06.05-.15.09-.19.15-.15.15-.27-.02-.41-.52-.44-1.03-.91-1.56-1.34-.46-.37-.73-.88-1.02-1.37-.12-.2-.23-.4-.32-.61-.03-.06.03-.16.06-.23.04-.09.13-.18.12-.27-.04-.45.2-.77.44-1.11.05-.07.09-.13.16-.21-.28-.1-.54-.2-.8-.3-.8-.3-1.6-.59-2.27-1.14-.33-.27-.73-.46-1.08-.71-.81-.58-1.54-1.25-2.23-1.97-.38-.39-.81-.72-1.17-1.13-.22-.25-.35-.59-.5-.9-.07-.15-.11-.31-.16-.46-.12-.41-.23-.82-.34-1.23-.09-.32-.15-.65-.28-.94-.11-.24-.3-.44-.47-.66.05-.1.11-.21.16-.32-.27-.1-.32-.21-.16-.44.14-.21.31-.41.49-.59.06-.06.2-.1.27-.08.17.06.26,0,.36-.12.08-.1.19-.18.33-.24-.01.05-.01.1-.03.15-.12.3-.12.31.2.4.48.12.95.13,1.44.03.31-.07.65-.04.98-.03.28,0,.55.06.83.08.16,0,.32-.02.48-.04.2-.03.4-.13.59.05.03.03.11,0,.16,0,.41-.04.77.1,1.12.28.04.02.06.08.12.15-.12-.02-.2-.04-.28-.04-.09,0-.22-.12-.27.07,0,0-.18-.03-.27-.05-.02.02-.03.05-.05.07.21.16.4.39.64.48.43.16.58.47.72.86.14.38.32.75.48,1.12.03.07.05.14.04.22-.29-.34-.59-.68-.88-1.01.02-.01.05-.02.07-.03.05-.06.09-.13.14-.19-.18.09-.3.05-.34-.11-.07-.31-.32-.44-.56-.57-.46-.25-.92-.49-1.4-.68-.29-.12-.61-.15-.92-.21-.13-.02-.27,0-.41-.02-.29-.03-.29-.03-.33-.29-.05.09-.08.18-.14.25-.05.05-.13.09-.19.09-.45,0-.89,0-1.34,0-.32,0-.62-.02-.87-.25-.09-.08-.2-.14-.28.04.1.05.2.09.3.14,0,.02,0,.03-.01.05-.1-.03-.2-.05-.28-.07-.13.13-.27.25-.37.39-.05.08-.05.22-.02.31.26.84.52,1.68.79,2.51.13.39.3.77.46,1.15.02.04.04.09.08.12.62.66,1.26,1.3,1.86,1.98.2.23.41.28.69.24-.06.03-.12.07-.21.11.48.41.93.81,1.4,1.19.14.11.33.14.5.2.69.25,1.39.48,2.07.75.44.18.84.44,1.27.65.15.08.31.12.47.18.05.02.11.03.15.06.62.51,1.22,1.04,1.85,1.54,1.05.85,1.74,1.95,2.32,3.15.11.23.36.4.56.62.28-.47.31-.95.32-1.44,0-.43.03-.87-.03-1.29-.05-.38-.21-.74-.32-1.11-.05-.16-.09-.31-.14-.47-.22-.62-.57-1.18-.93-1.73-.29-.44-.56-.9-.85-1.34-.1-.15-.22-.28-.3-.44-.07-.14-.15-.29-.22-.43-.18-.32-.37-.64-.55-.96-.07-.12-.14-.25-.21-.37.2-.27.4-.29.59-.02.37.54.75,1.07.99,1.69.12.33.25.65.42.95.11.2.28.36.43.53.06.07.14.12.18.19.21.43.43.85.6,1.3.2.54.34,1.1.5,1.66.02.09.03.18.04.27.02,0,.05,0,.07,0-.03-.3-.06-.61-.1-.91-.16-1.04-.23-2.09-.24-3.14,0-.56-.24-1.13-.4-1.69-.08-.3-.18-.6-.33-.87-.14-.26-.35-.48-.55-.71-.41-.46-.83-.92-1.27-1.35-.23-.22-.52-.39-.78-.58-.52-.37-1.04-.74-1.56-1.1-.41-.28-.73-.64-1-1.05-.13-.2-.33-.25-.57-.27-.31-.02-.61-.14-.92-.22-.02,0-.04-.04-.08-.09.48.05.92.1,1.38.14,0-.24-.51-.22-.25-.56-.26-.13-.34-.33-.33-.6,0-.28-.23-.43-.43-.57-.02-.02-.05-.03-.11-.07.12-.02.2-.03.23-.04-.05-.16-.09-.31-.13-.46-.04-.13-.09-.26-.1-.39,0-.15-.02-.32.05-.44.43-.69,1-1.17,1.86-1.22.5-.03.97.02,1.39.36,0-.04.01-.07,0-.09-.36-.46-.35-1.04-.5-1.57-.08-.28-.19-.56-.25-.85-.09-.43-.12-.88-.21-1.31-.08-.37-.05-.71.16-1.04.03-.05.06-.12.06-.18-.02-.26.11-.41.3-.57.18-.16.37-.23.6-.25.36-.02.72-.05,1.08-.08-.06-.1-.15-.25-.24-.4-.03-.05-.05-.15-.03-.19.03-.05.13-.09.19-.07.12.04.24.09.33.18.36.36.69.76,1.05,1.11.36.34.74.67,1.29.73.09,0,.21.2.22.31,0,.23.13.38.25.55.48.67.87,1.38.78,2.23-.05.46-.25.91-.39,1.36-.04.13-.1.25-.11.4.03-.03.07-.06.09-.1.35-.73.69-1.47,1.04-2.2.11-.23.24-.45.35-.68.08-.18.12-.37.18-.55.11-.38.18-.77.35-1.12.14-.28.36-.56.62-.74.57-.4,1.18-.76,1.8-1.09.32-.17.67-.28,1.02-.39.22-.07.44-.09.61.14.02.03.16.02.22-.02.35-.2.7-.09,1.05,0,.21.05.25.31.12.5-.04.05-.06.13-.05.2.02.39-.02.76-.33,1.06.1.12.2.24.29.37.22.32.21.67.09,1.03-.19.55-.36,1.11-.54,1.66-.02.07-.08.14-.1.21-.02.05-.04.13-.02.16.15.17,0,.25-.1.28-.25.07-.37.21-.41.46-.02.09-.09.17-.13.26.04,0,.09,0,.17.02-.45.9-1.39,1.19-2.13,1.81.42.02.8.04,1.18.05.1,0,.21,0,.31.01.16.01.26.06.3.26.05.24.19.45.27.68.3.87.31,1.77.17,2.67-.01.09-.03.17-.03.26,0,.03,0,.06.02.15.18-.09.35-.15.5-.25.63-.46,1.25-.94,1.87-1.41.06-.05.1-.12.16-.18.05-.04.1-.09.16-.11.14-.04.3-.02.41-.09.37-.21.7-.01,1.05.04.36.05.61.23.81.51.04.06.14.07.22.11-.02.05-.05.09-.08.16.18.05.34.14.51.15.43.01.55.34.66.65.08.23.1.48.13.73,0,.06-.03.13-.06.22.11.03.22.06.28.08-.02.16-.02.31-.05.44-.07.23-.14.47-.26.69-.12.23-.3.42-.45.64-.11.15-.21.3-.32.46.06,0,.13.02.21.03,0,.02,0,.03,0,.05-.07.01-.15,0-.22.03-.08.04-.16.1-.21.17-.1.14-.19.29-.27.44-.08.13-.15.27-.22.41-.11.22-.31.35-.49.5-.21.17-.34.43-.51.65-.16.21-.31.42-.47.62-.12.14-.3.23-.39.38-.24.39-.71.41-1.02.68-.16.14-.29.3-.46.43-.26.21-.53.41-.8.61-.19.14-.39.25-.57.4-.14.11-.24.27-.36.4-.34.39-.79.58-1.27.7,0,.01.02.04.02.04.36-.1.73-.18,1.09-.29.22-.07.44-.17.66-.26.25-.1.49-.22.74-.32.25-.11.49-.21.74-.32.14-.06.29-.11.43-.22-.12-.02-.23-.04-.3-.06.3-.22.6-.46.91-.68.41-.29.83-.54,1.35-.54.07,0,.15,0,.21.04.41.18.71.93.54,1.34-.19.43-.38.87-.58,1.29-.04.08-.1.15-.17.26.53.31,1.05.63,1.6.96-.09.09-.12.14-.17.18-.06.05-.14.08-.21.12-.02-.06-.03-.13-.06-.19-.02-.05-.05-.1-.1-.12-.1-.05-.2-.1-.31-.13-.38-.09-.7-.3-1.02-.52-.09-.06-.2-.07-.31-.09-.08-.01-.17,0-.28,0,.03-.07.03-.1.05-.12.46-.39.75-.9,1.03-1.41.16-.31.28-.63.07-.98-.17-.28-.65-.34-.84-.08-.31.43-.7.74-1.19.97-.41.19-.75.5-1.15.7-.57.3-1.12.68-1.81.68-.08,0-.16,0-.23.03-.57.25-1.17.45-1.7.77-.95.59-1.84,1.27-2.5,2.2-.18.26-.4.49-.58.71.95-.14,1.77.41,2.61.65.21-.17.41-.33.6-.49.03-.03.05-.08.08-.1.07-.03.16-.08.23-.07.16.04.14.03.3-.11.07-.07.22-.06.34-.08,0,.02.02.05.03.07-.12.08-.24.15-.38.24.14.15.23.03.33-.03.22-.14.44-.29.66-.41.43-.23.87-.47,1.32-.66.48-.2.97-.42,1.52-.34.14.02.29-.06.45-.09.02.19-.07.24-.23.28-.53.13-1.06.24-1.57.44-.45.17-.85.44-1.28.66-.18.09-.38.16-.6.25.06.05.11.09.16.13-.02.02-.04.04-.06.04-.31,0-.62.02-.93.02-.16,0-.24.08-.35.19-.28.26-.14.42.05.63.1.1.16.26.18.4.02.13.02.28-.17.37-.13.06-.21.23-.29.35-.09.14-.16.29-.24.44-.01.02-.04.04-.03.06.09.46-.34.66-.5.99-.32.66-.68,1.3-1.02,1.95-.05.1-.1.2-.17.33.27.01.53.03.79.04.43,0,.86,0,1.28,0,.8,0,1.59-.02,2.39-.03.1,0,.21.04.31.06.03,0,.07.02.09.01.5-.27,1.03-.09,1.55-.12.71-.05,1.42,0,2.12,0,.36,0,.71-.01,1.07-.02.16,0,.34-.1.46.08,0,.01.06,0,.08,0,.37-.23.77-.06,1.15-.07.51,0,1.01,0,1.51-.07.33-.04.67,0,1,0,.63-.02,1.26-.07,1.89-.07.78,0,1.56.02,2.35.02.34,0,.69-.05,1.03-.06.66,0,1.33,0,1.99,0,.05,0,.11,0,.14.01.4.27.87.16,1.3.23.39.06.77.11,1.16.16.07,0,.15-.02.22-.03.11.06.24.15.37.19.63.22,1.27.42,1.91.63.3.1.42.25.39.57-.04.39.09.73.2,1.08.11.37.16.76.24,1.14,0,.03,0,.07.02.09.35.33.34.8.43,1.22.15.72.26,1.45.38,2.17.01.09-.03.19-.05.27.05.11.15.23.17.36.1.52.16,1.04.26,1.56.03.13.14.25.2.38.04.07.07.14.08.22.02.12,0,.25.03.38.07.34.15.68.24,1.02.08.32.16.63.24.94.16.58.35,1.16.49,1.75.19.84.34,1.68.5,2.52.05.29.05.59.1.88.05.29.14.57.2.85,0,.04,0,.09,0,.13,0,.11,0,.23.04.34.07.2.08.22-.04.34.04.13.08.23.11.34.03.12.09.25.06.36-.06.28.26.5.09.78-.01.02,0,.05,0,.07.34.46.12,1.02.28,1.51.01.04,0,.1.01.12.21.18.13.39.1.61-.04.29-.09.58.12.85.04.06,0,.18,0,.28,0,.09-.03.19-.01.28.08.45.18.91.25,1.36.12.76.3,1.51.27,2.28,0,.04,0,.09.03.11.18.15.1.29.01.4.05.15.11.28.14.41.07.37.13.74.18,1.12.07.5.13,1,.2,1.5.02.17.02.39.11.51.25.33-.08.68.14,1-.03.01-.06.03-.1.04-.09-.13-.17-.26-.26-.4,0,.06-.03.14-.02.22.05.57.1,1.14.17,1.71.1.78.22,1.57.35,2.34.06.32.15.66.3.94.3.54.38,1.15.65,1.69.21.42.46.82.75,1.19.54.69,1.12,1.35,1.68,2.02.04.05.12.08.14.09.15.19.26.36.4.5.37.38.75.74,1.11,1.14.13.15.22.35.28.55.11.37-.19.69-.58.68-.04,0-.08.05-.12.07-.05.03-.12.09-.16.07-.26-.13-.44.1-.66.14-.14.02-.25.15-.39.22-.06.03-.14.05-.19.06.36.29.62.49.88.71.12.1.18.56.12.7-.1.24-.15.51-.47.56-.09.01-.17.03-.27.05-.01.02-.03.09-.07.1-.42.04-.84.07-1.25.11-.07,0-.17.09-.18.14-.02.14-.04.28-.21.24-.06-.01-.08-.16-.15-.32-.04,0-.15.03-.25.06-.07.02-.15.03-.2.07-.36.25-.72.1-1.08,0-.25-.08-.51-.13-.76-.2-.09-.03-.19-.05-.27-.1-1.03-.63-2.06-1.25-3.07-1.89-.48-.31-.96-.63-1.4-1-.34-.28-.62-.62-.92-.94-.18-.19-.36-.39-.55-.58-.27-.27-.42-.59-.4-.99.02-.29,0-.58-.03-.86,0-.07-.07-.16-.13-.21-.12-.1-.16-.17,0-.27.18-.12.05-.29.03-.44-.02-.14-.05-.29-.04-.43.04-.33.12-.66-.01-.99-.03-.06,0-.15.01-.25-.04-.03-.11-.06-.13-.08.04-.25.08-.47.11-.69.08-.49.19-.99.24-1.48.03-.31-.05-.64-.06-.96,0-.21.05-.43.06-.64.01-.32,0-.65,0-.97,0-.2.04-.39.04-.59,0-.35-.01-.69-.01-1.04,0-.11,0-.24.04-.34.04-.11.11-.19-.02-.29-.04-.03-.08-.1-.07-.14.12-.35,0-.69-.04-1.03-.03-.23-.04-.43.19-.6.11-.08.13-.27.22-.47-.19.08-.31.14-.46.2.07-.42.33-.78.21-1.22-.07.04-.11.06-.18.1-.04-.07-.08-.13-.12-.2h.08c.02-.16.07-.31.06-.47-.01-.26-.07-.52-.08-.78-.01-.31.01-.62,0-.93,0-.23-.03-.46-.05-.69,0-.07,0-.14.02-.21.01-.12.03-.23.04-.34,0-.12.01-.24.01-.35,0-.07.02-.16-.01-.21-.1-.16-.08-.3-.03-.48.08-.29.06-.61.11-.92.06-.34-.06-.68-.02-1.01.05-.4-.01-.78-.06-1.17-.02-.16-.05-.34,0-.48.09-.24-.04-.45-.05-.67-.01-.3.01-.6.02-.9,0-.06,0-.13-.01-.19-.03-.45-.06-.89-.1-1.34-.02-.23-.09-.45-.11-.68-.04-.43-.06-.86-.1-1.28-.01-.14-.04-.28-.09-.41-.11-.31-.29-.61-.03-.94.04-.06-.02-.29-.1-.34-.16-.11-.12-.19-.08-.33.07-.25.13-.51.13-.77,0-.2-.1-.4-.16-.61,0-.03-.02-.06-.02-.09.13-.7-.09-1.38-.14-2.06-.03-.42-.1-.83-.16-1.25-.03-.24-.21-.44-.14-.74.05-.21-.1-.48-.19-.72-.02-.06-.14-.07-.19-.13-.05-.06-.1-.2-.08-.21.26-.17.01-.35.06-.57-.11.06-.16.1-.25.15-.07-.15-.14-.28-.21-.42.1-.03.17-.06.28-.1-.05-.15-.08-.31-.15-.46-.05-.12-.07-.2.07-.28.06-.04.13-.11.14-.18.07-.37.12-.75.19-1.12.03-.15.07-.31.14-.45.14-.25.12-.63-.1-.8-.18-.13-.14-.24-.04-.37.66.18.94.39,1.09,1.07.04.19.12.36.14.55.03.25.01.5.02.75,0,.31.03.63,0,.94-.04.53-.12,1.06-.15,1.6-.02.34.01.69.02,1.04.01.45.01.91.04,1.36.03.48.1.95.15,1.42.04.4.05.81.08,1.21.07.8.14,1.6.21,2.4.02.2,0,.41,0,.62.04,1.11.09,2.22.14,3.33.01.22.06.44.08.67.01.13,0,.27,0,.4,0,.03-.01.07,0,.09.18.4.09.83.14,1.24.05.39.06.77.09,1.16.03.42.09.84.09,1.26,0,.75-.04,1.5-.06,2.24,0,.11.03.22.03.33.02.58,0,1.16.07,1.73.03.27-.09.56.08.83.05.07-.06.23-.04.34.07.41-.08.81-.03,1.22.05.43.03.86.04,1.29,0,.94.01,1.88,0,2.83,0,.45-.02.9-.05,1.34-.02.34-.09.68-.11,1.03-.01.24.04.47.04.71,0,.32-.03.64-.04.97-.01.25-.05.51-.04.76.03.58.05,1.17.16,1.74.06.3.08.59.09.89.01.38.13.75.37,1.07.13.17.18.4.28.59.09.17.19.34.32.47.31.31.63.61.97.87.47.37.94.76,1.46,1.04.4.22.82.4,1.23.61.07.04.16.04.23.04.26,0,.44.05.48.37.01.09.18.2.3.23.24.05.49.05.74.07.09,0,.19,0,.31.01-.03.07-.05.12-.06.17-.1.33.05.58.4.56.38-.02.75-.11,1.13-.18.13-.02.26-.08.39-.11.41-.07.81-.5.87-.91.04-.27-.14-.34-.32-.46-.02.05-.04.11-.07.17-.05-.03-.12-.04-.14-.08-.15-.31-.47-.41-.74-.52-.73-.29-1.34-.74-1.86-1.31-.22-.24-.46-.48-.7-.71-.13-.12-.28-.22-.39-.35-.19-.24-.34-.5-.51-.75.02-.02.05-.04.07-.06.13.12.25.24.39.36.57.52,1.12,1.07,1.74,1.54.59.45,1.26.79,1.9,1.18.1.06.22.09.34.11.06,0,.17-.03.19-.07.12-.31.4-.34.64-.48.3-.16.64-.22.92-.4.04-.03.09-.04.13-.06.23-.08.41-.17.23-.46-.02-.03.04-.12.06-.2-.05-.01-.12-.03-.22-.06.05-.07.08-.13.09-.14-.16-.13-.31-.23-.44-.36-.27-.3-.53-.63-.8-.93-.3-.34-.64-.66-.92-1.02-.54-.7-1.06-1.42-1.58-2.13-.12-.17-.17-.38-.28-.55-.25-.38-.23-.85-.43-1.26-.16-.32-.27-.67-.35-1.01-.1-.4-.15-.81-.21-1.21-.05-.32-.07-.64-.12-.95-.02-.1-.08-.2-.13-.31.04-.02.09-.04.11-.05-.22-.85-.38-1.7-.2-2.6-.03-.03-.12-.1-.24-.2.14-.06.21-.09.32-.13-.09-.03-.16-.05-.24-.07.04-.11.07-.21.1-.3-.07-.1-.14-.19-.2-.27.08-.09.13-.16.19-.23-.23,0-.4-.29-.35-.59.02-.11.06-.2-.04-.3-.04-.04-.02-.15-.03-.23-.01-.1-.03-.19-.04-.29,0-.06-.03-.13,0-.18.08-.22.09-.22-.12-.37.13-.18.12-.36,0-.56-.04-.07,0-.19.02-.32-.04-.04-.11-.1-.18-.16.02,0,.04-.01.07-.02-.03-.14-.07-.28-.09-.43-.01-.08-.04-.21,0-.24.18-.12.12-.17,0-.3-.1-.1-.15-.28-.16-.42-.03-.41-.02-.83-.03-1.24-.01-.29-.04-.59-.07-.88,0-.04,0-.1-.03-.11-.3-.14-.16-.33-.11-.5-.02-.13-.03-.27-.05-.4-.06-.35-.14-.71-.2-1.06-.03-.15-.04-.29-.05-.44-.03-.32-.02-.65-.09-.97-.05-.23-.03-.47-.16-.69-.06-.1,0-.26,0-.41-.19-.04-.16-.2-.16-.38,0-.19-.05-.38-.08-.56-.05-.41-.09-.82-.15-1.22-.02-.12-.11-.27-.06-.35.15-.3.07-.53-.12-.78-.1-.13-.09-.35-.13-.52-.08-.34.06-.71-.18-1.02-.02-.03.03-.12.04-.15-.04-.18-.08-.36-.12-.54-.08-.43-.14-.87-.23-1.3-.05-.25-.15-.49-.23-.74-.03,0-.05,0-.08.01,0,.24-.01.48,0,.71.03.5.08,1,.11,1.49.01.28,0,.57-.02.85,0,.06-.09.12-.11.14.05.09.14.19.14.29,0,.53-.01,1.06-.02,1.6.2.18.09.4.09.6,0,.14-.02.27-.03.41,0,.03.02.07.02.1,0,.12-.02.24-.07.36.12.11.17.22-.05.33.18.28.18.4,0,.53.04.09.08.19.12.29-.14.03-.23.05-.29.07.1.13.2.25.29.38.01.02-.05.09-.09.13.09.27.2.55.27.85.02.09-.06.21-.1.31-.02.06-.08.1-.08.16-.03.24-.05.48-.06.73,0,.24.07.43.41.37,0,.03,0,.06.01.09-.09.04-.19.09-.28.13.03.02.07.05.1.07-.02.09-.06.17-.07.26,0,.09,0,.19.01.29-.06.03-.16.08-.28.15.19.15.24.29.11.46-.02.02,0,.06,0,.09.02.12.06.25.05.36-.03.34.12.55.42.67.05.02.09.09.13.13-.01.02-.03.04-.04.06-.11-.03-.21-.06-.34-.1-.03.06-.07.13-.11.21.17-.02.26,0,.17.17-.01.02,0,.05-.02.07-.23.22-.15.43.07.66.04-.19.08-.36.13-.56.13.19.09.32-.22.79.24-.03.25.14.27.29.02.17-.15.41-.36.47.25.12.59.21.07.52.15-.03.21-.04.31-.06-.06.27-.18.51-.03.76.04.07-.08.24-.13.38.05.02.09.05.14.07.04.03.07.06.16.14-.09.04-.17.08-.24.12.15.2.16.78.1.83-.02.16-.04.26-.05.36,0,.02-.01.03,0,.05.17.35-.09.66-.1.99,0,.18.06.36.05.54-.01.26.03.46.26.64.1.07.21.31.04.5h-.3c.05.15.08.26.13.41.06-.09.1-.15.16-.23.1.19.26.35.11.48,0,.22.03.38,0,.53-.06.22-.05.42.06.62.07.13.09.23-.09.31-.05.02-.1.12-.1.18,0,.46,0,.93.01,1.39.01.22.01.43.21.63.17.18.22.47.17.76-.51-.15-.74-.26-.69-.84.03-.37,0-.75-.03-1.13,0-.06-.1-.12-.17-.2.05,0,.11,0,.15-.01,0-.7-.28-1.39-.01-2.1-.06-.01-.13-.03-.21-.05,0-.21.02-.41.02-.61,0-.07-.03-.14-.04-.21,0-.04-.04-.1-.02-.13.08-.19.01-.36-.05-.54-.06-.15-.09-.32-.11-.49-.04-.38-.07-.75-.11-1.13-.01-.1-.04-.21-.01-.34.04.07.09.13.13.2.02,0,.04,0,.06,0-.02-.39-.04-.77-.06-1.16,0-.15,0-.29-.01-.44-.02-.24-.01-.48-.08-.7-.04-.15-.08-.25,0-.34-.01-.15-.02-.31-.03-.46-.02-.13-.01-.29-.08-.39-.09-.13-.06-.2,0-.32.04-.08,0-.2,0-.3-.01-.15-.05-.3-.06-.46-.02-.29-.02-.59-.04-.88-.04-.46-.12-.92-.14-1.38-.02-.4.03-.81.04-1.21,0-.4-.02-.79-.03-1.19-.01-.43-.03-.87-.05-1.3-.02-.37-.05-.74-.05-1.11,0-.22.04-.43.07-.65,0-.02.03-.05.02-.07-.14-.21-.01-.43-.02-.64-.02-.3-.04-.6-.06-.9-.01-.13,0-.28-.06-.4-.03-.09-.14-.15-.21-.22.29-.13.27-.13.2-.47-.03-.14.08-.3.08-.45,0-.2-.03-.41-.04-.61,0-.13,0-.27,0-.41,0-.27.07-.54-.1-.79-.02-.03.04-.11.06-.17.01-.08.04-.17.02-.24-.09-.28-.09-.31.22-.42-.1-.04-.18-.07-.29-.11.18-.19.08-.35-.06-.49-.01-.01-.02-.04-.02-.04.18-.2-.05-.43.06-.64.02-.04,0-.11,0-.16,0-.17,0-.35.03-.51-.02-.12-.02-.25-.05-.36-.04-.18-.11-.35-.15-.53-.03-.13-.03-.27-.06-.41-.03-.14-.07-.28-.09-.42-.01-.09-.02-.2,0-.29.08-.21.09-.4-.02-.62-.11-.23-.2-.49-.02-.78-.14-.04-.25-.08-.39-.12.22-.17.16-.34.04-.52-.27-.42-.45-.87-.53-1.36-.04-.24-.05-.5-.34-.62-.03-.01-.05-.06-.07-.09-.13-.26-.25-.51-.37-.78-.03-.06-.01-.13-.02-.2,0-.04,0-.11-.02-.13-.28-.22-.26-.54-.29-.84-.02-.13.01-.26,0-.38-.02-.19-.12-.23-.25-.11-.16.15-.3.21-.53.09-.12-.06-.33.07-.5.12-.16.05-.31.12-.46.15-.07.01-.15-.06-.23-.1-.17.23-.61.13-.61.57-.02,0-.04-.02-.06-.03-.02-.06-.04-.11-.07-.22-.2.07-.41.12-.6.2-.25.11-.48.17-.77.07-.24-.08-.55,0-.82.03-.57.08-1.14.18-1.72.27-.23.03-.47.02-.69.07-.14.03-.26.16-.39.24-.11.07-.22.14-.35.22.03.04.07.08.13.16-.05.07-.11.14-.18.24.08.22-.05.39-.35.34-.15-.03-.2,0-.2.16-.01.43-.04.87-.06,1.3,0,.1,0,.19,0,.29,0,.28,0,.56,0,.87,0,0,.05.02.11.03-.05.07-.09.14-.17.26.1-.04.15-.06.19-.07v1.37s-.09-.07-.13-.1c0,.02,0,.03,0,.05.05.49.11.98.16,1.47.03.29.04.57.06.86,0,.06-.03.12-.03.18,0,.14,0,.28.02.42.02.16.07.31.08.46.01.63.04,1.26.11,1.89.07.65.04,1.31.09,1.96.03.3-.09.63.13.9.02.02.02.07,0,.09-.17.34.03.69-.02,1.04-.05.34.03.7.04,1.05,0,.09-.02.17-.04.29.03.03.07.11.13.15.15.1.17.21.08.37-.03.06-.04.13-.04.2,0,.28.04.57.03.85-.03.49.05.98.05,1.47,0,.44.02.87.03,1.31,0,.12.05.23.07.34,0,.09-.01.19-.02.31.05.03.13.07.24.13-.07.05-.14.07-.18.12-.04.04-.1.14-.09.15.19.18.02.4.06.59.03.16.05.31.08.47,0,.07.04.16,0,.21-.14.24.02.43.06.65.03.17-.05.36-.05.54,0,.17.02.34.04.51.02.14.08.29.08.43,0,.32-.07.64-.06.95,0,.31.09.63.11.94.01.26-.04.53-.04.8,0,.14,0,.28.06.41.06.16.11.28-.11.28-.02.14-.04.26-.07.41.06-.05.11-.09.2-.15.1,1-.03,1.98-.02,3.01-.14-.07-.25-.13-.35-.18-.02.02-.03.04-.05.06.15.13.3.26.48.42,0-.04.01,0,0,.02-.25.41-.11.83-.04,1.25.02.1.03.2.03.3-.02.45-.05.91-.07,1.36-.01.37-.03.75-.02,1.12.01.31.08.63.11.94.03.31.04.62.05.93,0,.04-.08.08-.09.12-.02.08-.04.22-.01.23.22.12.1.29.1.44,0,.21,0,.41.01.62.07.75.15,1.49.25,2.24.02.16.12.32.14.48.01.13-.02.28-.09.38-.15.24-.12.39.12.5.08.04.14.17.15.26.06.33.07.67.16.99.09.34.24.66.37.99.01.03.02.06.04.09.21.29.42.58.65.86.16.19.36.36.54.54.3.31.59.63.88.94-.08-.04-.15-.08-.23-.12-.05-.02-.13-.07-.15-.05-.25.23-.37-.06-.48-.16-.16-.15-.24-.38-.37-.57-.13-.2-.28-.38-.41-.56-.13.04-.23.08-.32.11-.09-.22-.16-.41-.24-.62.05,0,.1-.01.23-.02-.19-.18-.35-.32-.5-.46-.18-.17-.32-.35-.3-.62,0-.03,0-.08-.02-.09-.25-.12-.19-.31-.14-.51.02-.09,0-.17-.14-.23-.24-.09-.31-.36-.25-.57.1-.33-.04-.59-.11-.88-.07-.29-.13-.59-.16-.89-.08-.99-.18-1.98-.14-2.98.03-.62-.05-1.24-.07-1.87,0-.13.02-.27.03-.4,0-.16.14-.31-.01-.48-.05-.05,0-.2,0-.3,0-.56,0-1.12-.02-1.67-.03-.74-.1-1.48-.11-2.22-.02-.77,0-1.55,0-2.32,0-.34-.03-.68-.04-1.02-.01-.44-.01-.88-.02-1.31,0-.13-.03-.27-.04-.4,0-.05-.03-.13,0-.16.16-.22.08-.46.02-.67-.08-.31-.07-.6,0-.9.02-.07-.02-.21-.07-.23-.13-.06-.13-.14-.1-.25.21-.71.13-1.43.06-2.16-.03-.37,0-.74-.03-1.1-.03-.39-.09-.77-.12-1.16-.05-.61-.09-1.22-.12-1.84,0-.09.02-.19.05-.28.04-.13.05-.22-.07-.34-.07-.07-.07-.27-.03-.39.06-.19.04-.34,0-.53-.07-.28-.08-.58-.09-.88-.02-.6-.02-1.19-.05-1.79-.03-.62,0-1.27-.16-1.86-.17-.65-.25-1.29-.31-1.95-.11-1.24-.18-2.49-.27-3.73-.02-.28-.07-.55-.1-.83-.04-.35-.15-.71-.1-1.04.16-.95-.08-1.91.08-2.86.03-.15.02-.31.04-.49-.19-.04-.39-.07-.58-.12-.33-.08-.67-.14-.98-.28-.26-.12-.48-.07-.73-.03-.32.05-.62.16-.92.31-.28.14-.59.2-.94.07-.24-.09-.62-.13-.8,0-.34.24-.73.09-1.06.27-.05.03-.12,0-.18,0-.54.02-1.07.05-1.61.06-.19,0-.39-.05-.58-.03-.43.05-.86.12-1.3.19-.32.05-.64.1-.96.15-.7.11-1.4.14-2.1.15-.1,0-.2.06-.3.07-.1.01-.2,0-.3-.03-.14.13-.29.11-.47.05-.16-.05-.34-.04-.52-.04-.55,0-1.1.02-1.65.04-.3.01-.6.04-.9.05-.58.03-1.16.06-1.74.08-.51.02-1.02.01-1.53.03-.09,0-.18.08-.26.13,0,0,.02.07.04.14-.35.1-.3.42-.3.71h0c-.04-.1-.07-.19-.11-.29-.03-.08-.06-.16-.09-.26h-.2s-.02-.04-.03-.05c.16-.13.33-.26.49-.38,0-.02,0-.04,0-.05-.38.04-.76.09-1.14.13-.09,0-.17,0-.26,0-.57,0-1.15,0-1.72-.03-.6-.02-1.2-.08-1.79-.1-.39-.01-.78.03-1.18.03-.17,0-.35-.02-.52-.04-.43-.05-.86-.11-1.37-.18.26,1.1.5,2.16.37,3.3,0,0-.07.02-.14.05.02.15.36.27-.05.45.08.05.13.09.18.12-.02,0-.04.01-.06.02.03.08.07.16.08.25,0,.07.01.17-.03.21-.2.17-.2.17-.05.41-.12.11-.22.24-.1.42.02.03-.02.1-.04.14-.01.03-.06.06-.05.07.09.23.01.44-.02.66-.02.15,0,.24-.22.22.28.14.37.29.16.55-.07.09-.01.3,0,.45.01.16.03.31-.09.35,0,.14,0,.26,0,.37,0,.14-.01.29-.02.43,0,.09.02.19,0,.28-.06.25-.18.47-.09.75.07.22.02.49-.01.73-.04.25-.11.49-.18.73-.02.07-.08.13-.13.21.24.16.23.36.08.61-.03.05.07.19.12.32-.02.04-.07.13-.12.24-.07.02-.15.04-.26.06.1.08.18.12.22.18.04.06.07.14.06.21-.01.15-.05.3-.07.45-.04.24-.09.48-.13.72-.02.1-.02.21-.02.31,0,.24.08.5,0,.7-.12.28.02.57-.08.81-.14.35-.03.67-.01,1.01,0,.05-.01.11-.02.16-.03.21-.12.43-.08.62.07.4-.15.74-.18,1.12-.03.43-.15.85-.23,1.27,0,.05-.03.09-.03.14,0,.52,0,1.05,0,1.57,0,.2-.04.33-.26.32-.07.34-.14.67-.21.99.33.28.34.32.19.62-.05-.09-.09-.15-.14-.24-.03.04-.07.07-.07.11-.03.34-.05.68-.09,1.02-.07.49-.16.97-.24,1.46-.02.15-.05.3-.06.45-.09,1.13-.17,2.26-.27,3.39-.08.86-.2,1.72-.28,2.59-.03.31,0,.62,0,.93,0,.11-.06.21-.07.32-.06.52-.11,1.05-.18,1.57-.07.6-.14,1.2-.22,1.8-.01.08-.08.16-.09.24-.03.18-.05.35-.07.53-.01.09-.02.19-.04.28-.04.2-.08.39-.11.59,0,.02.04.04.07.07-.07.03-.13.06-.21.09.13.21.21.42.02.54.02.2.02.36.05.5.02.09.08.17.09.21,0,.16,0,.27,0,.39,0,.06-.02.12-.03.17-.04.16-.24.31.03.46-.2.12-.34.24-.09.41-.13.16-.26.31,0,.44-.4.37-.14.69.09,1.05-.13-.03-.21-.05-.32-.08.03.07.03.14.07.16.24.13.13.28.03.44-.03.05-.07.14-.05.16.16.15.04.3.03.46,0,.39.03.79.05,1.18,0,.03.05.07.04.08-.2.32-.05.62.01.94.06.32.02.67-.01,1-.06.62-.13,1.24-.21,1.85-.03.24-.09.47-.14.7,0,.02-.02.06,0,.07.26.19.02.44.08.66.07.28-.21.46-.35.67-.12.18-.27.34-.4.51-.03.04-.07.1-.07.15.04.38-.23.59-.49.72-.36.17-.64.4-.89.7-.15.18-.36.33-.55.47-.3.22-.61.42-.92.63,0,.03,0,.06.01.09.19,0,.38,0,.57,0,.38-.01.76-.02,1.14-.06.54-.06,1.07-.17,1.56-.46.26-.15.56-.21.85-.3.2-.06.42-.11.62-.16.06-.01.11-.02.17-.03l.02.08c-.31.09-.62.18-.93.28,0,.02,0,.04,0,.06.04.01.08.03.12.03.94-.12,1.89-.2,2.79-.56.21-.08.4-.2.59-.32.38-.23.75-.47,1.14-.69.14-.08.32-.1.47-.17.09-.04.16-.12.24-.18.08-.06.17-.1.24-.16.06-.06.09-.14.18-.27h.7c-.03.12-.06.19-.08.28.06,0,.11,0,.18-.01-.02.06-.04.12-.05.18-.01.23-.13.35-.34.45-.11.05-.18.19-.3.32.18.06.29.1.37.13.02.15.03.3.05.45.02,0,.05,0,.06-.02.22-.48.62-.85.72-1.4.1-.53.29-1.04.42-1.57.05-.18.05-.37.07-.56-.03,0-.06-.01-.09-.02-.04.08-.09.15-.13.23-.02,0-.05.01-.07.02-.03-.13-.13-.28-.08-.38.05-.11.22-.16.35-.24-.07-.04-.14-.08-.25-.14,0-.57-.03-1.16,0-1.74.04-.62.12-1.24.23-1.86.04-.25.12-.48-.15-.68.48-.18.1-.63.36-.87-.07-.07-.12-.12-.16-.15.03-.16.05-.3.07-.44-.37-.22-.32-.24-.05-.38.03-.19.05-.34.08-.48.07-.26.14-.52.01-.8.17-.12.23-.23.09-.46-.09-.14,0-.4.02-.6.04-.4.17-.8,0-1.2-.02-.05.02-.12.02-.19.03-.35.06-.69.08-1.04.02-.29.02-.57.03-.86,0-.11.17-.2.05-.34-.02-.02.08-.16.15-.21.09-.07.2-.11.31-.16.04-.02.12-.02.12,0,.04.09.1.19.1.29,0,.17-.05.34-.07.51-.06.68-.12,1.37-.18,2.05,0,.02,0,.05-.01.07-.13.22-.15.45.06.67-.3.07-.37.19-.15.39.03.03,0,.14,0,.22.05.03.1.08.16.12,0,.02,0,.04,0,.06-.13.01-.26.02-.41.04.02.04.03.08.04.08.24,0,.27.2.24.35-.05.3.13.59-.01.92-.07.17.06.43.1.66-.16.19-.19.61-.06.79-.2.22-.2.43,0,.54-.21.14-.2.19.04.39-.26.08-.16.25-.17.43-.02.27.04.5.17.73-.1.06-.19.11-.32.2.15.07.26.12.41.18-.07.02-.12.03-.17.05-.17.05-.22.17-.17.34.02.06.08.14.07.17-.16.26.04.32.22.43-.1.02-.2.04-.35.06.04.11.08.22.11.32,0,.02.03.06.03.06-.23.17.02.43-.11.62-.03.05-.02.12-.02.18,0,.11,0,.21,0,.32,0,.1.02.2.04.3.01.07.02.15.04.24-.1,0-.16.02-.31.03.27.07.26.22.28.4.11,1.14-.43,2.07-.94,3.01-.17.31-.36.6-.55.9-.12.18-.27.35-.38.53-.06.09-.08.2-.12.31.4.34.89.24,1.35.16.65-.11,1.3-.25,1.93-.42.34-.1.69-.21.97-.47.2-.19.52-.26.79-.38.09-.04.2-.05.16-.21,0-.05.14-.19.21-.19.36.01.62-.12.9-.36.25-.22.62-.29.9-.48.33-.22.62-.49.94-.73.15-.11.32-.2.49-.28.13-.07.28-.11.28-.3,0-.02.02-.04.03-.05.26-.2.5-.42.77-.6.27-.18.55-.33.83-.49.11-.07.21-.15.32-.2.77-.39,1.54-.4,2.31-.01.11.06.22.12.34.18.01,0,.02.02.07.08-.3-.09-.56-.15-.8-.25-.47-.19-.96-.11-1.43-.06-.26.02-.51.27-.75.45-.33.25-.62.54-.94.81-.08.06-.17.1-.21.12-.05.1-.08.19-.14.25-.19.18-.4.35-.6.53-.03.03-.04.12-.01.15.04.05.11.09.17.1.26.05.52.04.78,0,.14-.02.29.05.43.05.32.01.65.03.97.01.42-.02.84-.07,1.26-.12.13-.01.25-.07.38-.08.55-.06,1.11-.13,1.66-.16.29-.01.59.04.89.08.18.03.22,0,.19-.2,0-.05.01-.13.05-.16.03-.02.11-.01.15.01.05.03.09.09.13.14.11.15.21.28.43.25.07,0,.15.07.23.11-.07.1-.14.2-.21.3q.27.18.43-.01c-.09,0-.16.01-.2.02-.01-.12-.02-.21-.03-.31ZM24.58,75.3s-.02-.02-.03-.02c.09-.12.22-.24.27-.37.05-.16.01-.35.02-.52,0-.01.01-.03.02-.04.16-.13.15-.28.07-.45-.02-.04,0-.09,0-.14,0-.26.04-.52,0-.76-.03-.19-.14-.35.07-.51.06-.04.06-.18.06-.27,0-.15-.05-.31-.02-.45.02-.13.09-.32.18-.35.22-.08.27-.18.27-.41.01-.78.16-1.55.34-2.31.06-.25.06-.52.1-.78.06-.4.14-.8.19-1.21.18-1.46.35-2.92.52-4.37.05-.44.09-.89.15-1.33.03-.24.12-.48.11-.73-.01-.53.18-1.04.1-1.57,0-.02,0-.03,0-.05.04-.26.1-.52.11-.78.01-.2-.05-.42-.02-.61.05-.3-.15-.65.17-.89.01-.01.02-.04.02-.06-.03-.25-.07-.51-.11-.83.09-.13.09-.34.01-.56-.04-.11-.04-.24-.03-.36.03-.26.07-.52.11-.78.02-.16.04-.32.07-.48.05-.23.15-.45.19-.69.09-.56.17-1.12.24-1.68.06-.48.11-.96.12-1.44,0-.31-.01-.61.07-.92.07-.29.07-.6.11-.9.02-.14.03-.29.09-.41.07-.14.08-.24,0-.38-.06-.11-.12-.31-.07-.35.19-.16.19-.34.13-.55-.02-.06.04-.15.07-.22.05-.1.12-.19.18-.28-.21-.16-.17-.7.02-.85-.02-.12-.09-.29-.05-.32.27-.19.07-.33-.02-.46.05-.11.1-.2.12-.29.03-.22-.14-.45.08-.67.03-.03-.1-.23-.07-.27.15-.18.07-.36.1-.54.04-.22.1-.4-.1-.58.13-.14.25-.28.06-.45-.02-.02.02-.09.03-.13.03-.1.06-.19.11-.29.02-.05.07-.1.1-.15-.26-.09-.27-.13-.05-.32.03-.03.04-.08.05-.12.03-.15.05-.3.07-.49-.24-.08-.31-.28-.16-.56.01-.02,0-.05,0-.07,0-.27,0-.54-.02-.82-.01-.21.01-.48-.1-.63-.15-.2-.17-.4-.18-.62,0-.12-.06-.15-.18-.15-.33,0-.66-.04-.99-.06-.07,0-.14-.02-.21-.02-.24,0-.49,0-.73.02-.05,0-.13,0-.16.03-.15.19-.34.11-.51.09-.56-.04-1.12-.09-1.68-.11-.56-.02-1.12-.02-1.68-.01-.26,0-.52.03-.78.05.3.33.55.64.84.91.17.16.1.23-.01.31.02.06.05.11.06.16.15.68.06,1.37.01,2.05-.06.86-.16,1.73-.23,2.59-.05.58-.09,1.16-.12,1.74-.02.27,0,.53,0,.81-.04.09-.11.21-.12.32-.06.51-.1,1.02-.14,1.53,0,.09-.02.2.02.28.08.14.13.24-.04.34-.04.03-.08.13-.06.16.09.18.02.31-.07.46-.06.11-.02.27-.03.41-.03.3-.06.6-.09.9,0,.09-.03.17-.04.26-.02.24-.05.48-.04.72.02.3.13.6-.03.89-.04.08-.07.17-.08.26-.08.67,0,1.36-.27,2.01,0,.01,0,.03,0,.05,0,.26-.03.54.01.79.06.34-.05.67-.07,1-.03.52-.16,1.05-.13,1.58,0,.17.02.42-.08.49-.17.12-.13.25-.14.39,0,.27,0,.53,0,.83,0,0,.07.01.13.02,0,.03.02.05.03.08-.1.05-.2.1-.35.18-.03.12-.08.3-.13.47.02.01.03.02.05.03.11-.13.22-.26.3-.36-.1.43-.2.87-.31,1.32-.01,0-.02,0-.03,0l.04-.56c-.04.1-.03.2-.05.3-.05.16-.08.31.08.43.02.02-.02.11-.03.16-.01.04-.06.07-.06.11-.03.52-.07,1.04-.1,1.56-.02.3-.32.55-.12.87,0,0,0,.02,0,.02-.16.29-.14.59-.11.91.02.26-.08.53-.1.79-.06.52-.05,1.04-.21,1.54-.08.25-.09.52-.11.78-.01.14,0,.28,0,.46-.01.03-.07.1-.08.17-.05.47-.1.93-.15,1.4-.05.53-.08,1.07-.16,1.59-.08.51-.22,1.01-.33,1.51-.03.12-.02.25-.04.38-.03.26-.06.52-.1.78-.07.42-.15.83-.21,1.25-.09.59-.16,1.18-.28,1.77-.11.52-.28,1.03-.41,1.54-.12.46-.21.93-.34,1.39-.17.59-.38,1.16-.56,1.74-.1.33-.16.66-.26.99-.13.44-.26.87-.41,1.3-.08.25-.23.45-.49.56-.07.03-.13.14-.14.22-.03.15-.02.3-.02.45,0,.18,0,.36,0,.57.43-.24.85-.23,1.3-.21-.14.17-.24.34-.38.45-.14.11-.32.17-.48.26-.16.08-.3.19-.47.23-.22.05-.2.2-.17.35-.76-.05-1.42.03-1.74.17.57.37,1.18.74,1.77,1.14.37.25.71.53,1.05.82.22.19.42.4.63.61.05.04.13.06.16.11.13.26.23.53.38.78.14.24.14.6.48.7,0,0,0,.02,0,.02.15.2.34.23.58.14.11-.04.29-.04.37.02.14.1.31.14.39.04.24-.28.6-.31.89-.48.02-.01.04-.03.06-.04.12-.08.23-.17.36-.24.59-.33,1.15-.7,1.58-1.22.38-.47.75-.95,1.07-1.46.23-.36.43-.75.56-1.15.13-.41.2-.86.24-1.29.07-.81.11-1.62.15-2.43.03-.48.06-.96-.14-1.4.06-.07.13-.12.14-.17.02-.34.01-.68.02-1.01,0-.64.01-1.27.02-1.91,0-.5,0-.99.04-1.49.04-.57.13-1.13.2-1.69,0-.03,0-.06,0-.1-.04.03-.07.05-.1.07ZM19.95,53.81c.21-.16.31-.32.28-.6-.01-.1-.05-.2-.06-.29,0-.23.04-.46.05-.69.01-.2,0-.41.02-.61,0-.1,0-.24.06-.29.24-.22.14-.51.18-.76.06-.39,0-.81.06-1.2.11-.77.26-1.54.38-2.31.01-.09-.02-.18-.04-.3.16-.02.2-.13.12-.29-.01-.03-.01-.06,0-.09.06-.53.15-1.06.17-1.59.03-.82,0-1.64.02-2.47,0-.15.04-.3.06-.51.12.14.18.21.26.31.17-.39.21-.8.11-1.15-.14-.52-.07-1,.03-1.5.06-.28.16-.56,0-.84-.02-.04-.02-.11,0-.16.08-.28-.11-.51-.14-.76,0-.01-.04-.02-.06-.03-.02.03-.04.05-.06.08-.12.19-.34.24-.53.11-.27-.18-.33-.39-.21-.6.12-.2.2-.42.31-.65-.12-.04-.18-.08-.25-.08-.45-.02-.9-.02-1.35-.03-.13,0-.26.01-.38-.01-.41-.08-.82-.19-1.23-.25-.41-.06-.82-.08-1.24-.1-.18-.01-.35,0-.53,0,0,.01,0,.02,0,.03-.12-.03-.24-.05-.36-.08-.01.03-.02.05-.03.08.28.06.36.27.41.5.06.27.12.53.19.8.02.08.05.16.08.25-.04.11-.03.22-.05.33-.02.16-.06.31-.07.46-.01.39-.01.77,0,1.16,0,.13.04.27.03.4-.02.31-.06.61-.09.92-.01.15-.02.31-.03.46,0,.38,0,.75,0,1.13-.01.52-.05,1.04-.05,1.55,0,.25.07.5.07.75,0,.16-.07.31-.07.47.01.46-.18.92-.07,1.38,0,.01-.02.03-.02.04-.02.22-.04.44-.07.66-.02.16-.05.32-.09.52.16.14.05.3-.11.44.04.07.1.11.11.17.06.29-.12.58-.05.88.03.13-.03.28-.03.41,0,.17.05.35.05.52,0,.34-.08.69-.05,1.03.02.26.02.42-.27.46,0,0-.01.03-.02.04.02,0,.04,0,.06,0,.05.41.11.82.16,1.24-.08-.02-.12-.04-.17-.05.03.11.04.2.09.27.14.19.07.28-.14.32.11.34.09.51-.04.73.04.09.11.22.09.23-.16.14-.02.29-.03.43-.02.18,0,.37-.02.55-.01.2.12.42-.11.59-.04.03-.03.17,0,.25.04.11.11.21.17.32-.06.04-.11.08-.16.12,0,.01.02.02.02.04.06-.02.12-.03.18-.05-.13.13-.28.23,0,.4-.32,0-.15.25-.26.35.07.06.14.11.2.17.06.06.12.13.18.19-.02.01-.03.03-.05.04-.06-.04-.12-.07-.2-.12-.06.14-.11.25-.16.37.07.04.13.07.21.12-.27.14-.2.33-.13.45-.05.11-.11.18-.11.25-.02.37-.02.74-.04,1.11-.01.21-.04.42-.07.64-.03.25-.06.5-.07.76,0,.28.01.56.02.84,0,.26.01.52.01.78,0,.15-.01.3-.02.44-.01.19-.02.39-.03.58,0,.05.02.09.01.14-.07.38-.2.76,0,1.14-.26.2-.26.49-.02.85-.11.04-.27.4-.23.58.05.22.14.42.22.63-.03,0-.11.01-.23.03.2.23,0,.54.24.73.02.02,0,.11-.01.16-.09.34-.21.68-.26,1.03-.04.37.01.75-.02,1.12-.03.36-.11.71-.15,1.06-.07.62-.13,1.24-.19,1.87-.06.56-.11,1.12-.18,1.69-.1.76-.18,1.52-.32,2.28-.06.33,0,.71-.28.99-.02.02,0,.06,0,.09-.02.16-.02.34-.07.49-.08.26-.26.5-.29.75-.05.51-.26.92-.57,1.3-.04.05-.07.11-.09.17-.24.65-.54,1.27-.94,1.84-.16.23-.36.43-.48.68-.09.17-.16.29-.38.23.17.18.12.67-.07.81-.31.23-.65.44-.94.71-.12.11-.48.14-.28.47,0,0-.07.07-.12.1-.04.03-.1.04-.14.06,0,.1.02.18,0,.24-.07.15,0,.23.13.27.09.03.18.04.27.03.14-.02.27-.05.32.15.01.04.13.11.18.09.49-.15,1.03.05,1.5-.23.02-.01.07-.02.09,0,.34.21.67.04.97-.06.72-.24,1.42-.55,2.18-.65.02,0,.03-.03.06-.05-.1-.14-.27-.29-.27-.43,0-.25.07-.51.19-.73.35-.64.72-1.26.93-1.96.09-.28.17-.58.32-.82.41-.66.61-1.4.83-2.14.19-.61.35-1.22.52-1.84.1-.34.21-.69.27-1.04.15-.88.23-1.78.43-2.65.13-.56.23-1.11.28-1.67.09-.95.18-1.89.28-2.84.02-.19.08-.39.12-.58.04-.16.12-.31.14-.47.04-.58.04-1.16.1-1.74.03-.35.15-.68.2-1.03.05-.4.01-.82.09-1.22.07-.39-.04-.78.11-1.18.08-.21,0-.48.01-.72,0-.23.02-.46.02-.68,0-.29,0-.58,0-.88,0-.04.01-.09.03-.13.05-.12.13-.24.14-.36.06-.67.11-1.35.16-2.03,0-.13.02-.28-.03-.4-.19-.48-.08-.92.1-1.37.06-.16.14-.45.06-.52-.23-.23-.02-.41-.02-.61,0-.2.03-.4.05-.6.04-.32.06-.64.14-.95.06-.21.04-.47-.15-.63ZM9.18,84.43c.16-.1.27-.17.37-.23.11-.07.26-.13.32-.24.17-.3.43-.48.69-.69.18-.15.35-.33.5-.51.4-.48.66-1.05.99-1.58.48-.76.77-1.6,1.08-2.43.09-.25.18-.51.23-.77.06-.25.08-.51.12-.77.06-.39.13-.79.18-1.18.03-.26.05-.52.07-.78.05-.78.25-1.54.18-2.33-.04-.42.06-.85.02-1.27-.03-.28-.07-.54-.02-.83.09-.54.11-1.09.15-1.64,0-.1-.06-.21-.1-.35.18-.16.18-.19-.07-.35.14-.27.05-.51-.11-.73.26-.22.3-.41.1-.59.27-.18.37-.23.08-.71.07-.04.14-.09.21-.14-.06-.08-.12-.15-.17-.22.2-.23.2-.38,0-.59.33-.34.25-.34.09-.55.26-.15.31-.31.14-.48-.11-.11-.14-.16,0-.27.15-.12.09-.32-.09-.39.23-.33.25-.7.22-1.07-.08-.03-.15-.06-.23-.09.25-.01.24-.18.25-.34.01-.18.02-.37.03-.55,0-.15.01-.28-.15-.37-.12-.07-.07-.14.04-.18.05-.02.1-.03.1-.03-.18-.64,0-1.25.02-1.84.07-.03.14-.08.14-.13.01-.24,0-.47-.1-.71-.07-.17-.19-.37-.05-.6.1-.16.17-.35.21-.53.03-.14,0-.29.01-.43.02-.82.04-1.64.05-2.47,0-.15.06-.35-.16-.38.06-.2.14-.39.15-.58.02-.29,0-.58-.01-.87-.01-.47-.03-.94-.04-1.4,0-.17,0-.33-.01-.5-.02-.24-.07-.47-.09-.71-.01-.12.05-.27,0-.35-.11-.18-.03-.26.15-.33-.29-.03-.17-.23-.23-.38.1.02.17.04.27.06-.06-.28.1-.59-.23-.7.08-.08.21-.16.21-.24.01-.7,0-1.41,0-2.11,0-.16.01-.33-.25-.35.09-.08.16-.13.23-.19-.08-.04-.14-.07-.2-.1.17-.25.17-.38,0-.43.06-.08.11-.16.18-.25-.06-.07-.13-.13-.21-.22.24,0,.2-.13.15-.28-.02-.04-.02-.09-.02-.14,0-.45.02-.91.01-1.36,0-.1-.07-.2-.1-.26.06-.14.14-.27.16-.41.04-.29.04-.59.05-.88,0-.09-.04-.18-.08-.31.23-.37.24-.77.02-1.01.27-.4.19-.85.28-1.27-.02-.02-.05-.04-.07-.06-.18.11-.35.22-.53.34,0-.02-.02-.03-.03-.05.09-.06.18-.11.26-.17-.18-.16-.32-.26-.34-.37-.06-.35-.08-.7-.11-1.05-.01-.12-.05-.26,0-.35.12-.25.27-.47.42-.72-.11-.07-.21-.15-.32-.18-.37-.11-.72-.17-1.12-.11-.4.06-.83-.06-1.24-.15-.42-.09-.83-.24-1.24-.36-.1-.03-.25-.06-.3,0-.22.22-.54.37-.5.77.02.27-.07.56-.03.82.03.17.05.28-.04.34.01.14.03.24.03.33,0,.17-.01.31-.09.48-.08.18,0,.43-.02.65,0,.12-.14.24.02.36.02.01,0,.11-.04.15-.1.14-.12.26.07.36-.08.09-.15.16-.21.23.05.11.31.22.06.32,0,.19-.02.36,0,.53.05.32.09.62-.05.96-.15.35-.13.75-.15,1.14-.01.36,0,.73-.09,1.07-.11.41,0,.86-.25,1.23-.01.02-.02.07,0,.09.12.14.05.26-.02.39-.03.06-.04.14-.04.21,0,.28.01.56-.01.83-.03.36-.11.73-.12,1.09-.01.55-.2,1.08-.17,1.63,0,0,0,.01,0,.02-.05.04-.11.08-.17.11.03,0,.05.01.08.02-.24,2.39-.26,4.79-.33,7.19,0,.04-.06.07-.09.11,0,0,0,.02,0,0,.04.09.1.16.1.23,0,.49,0,.99-.03,1.48-.01.28-.07.56-.08.84,0,.17.04.34.05.51,0,.13,0,.25,0,.38-.05.19-.1.35-.07.59.04.26-.05.54.11.8.01.02-.02.06-.03.09,0,.06,0,.11,0,.17,0,0,.08.02.08,0,.02-.05.04-.11.05-.17.01-.07,0-.19.04-.2.16-.05.16-.18.17-.31.01-.14.04-.29.07-.43.13-.61.26-1.21.39-1.82.06-.27.11-.54.19-.8.03-.1.11-.18.16-.28-.04-.02-.08-.05-.09-.06.01-.11,0-.22.03-.31.05-.19.11-.38.16-.58.04-.15.15-.31.11-.43-.07-.23,0-.39.08-.48,0-.17,0-.26,0-.36,0-.08.03-.16.03-.25,0-.06-.03-.15,0-.18.18-.18,0-.42.14-.61.06-.09.02-.25.07-.36.07-.14.15-.26,0-.4-.03-.03-.04-.13-.02-.15.16-.17.09-.35.03-.53-.02-.06,0-.13.02-.18.02-.08.08-.16.09-.25.03-.23.04-.46.05-.69,0-.14.02-.27.03-.41.02-.26.08-.52.05-.77-.03-.27,0-.45.26-.57.02,0,.02-.03.04-.06-.07-.02-.13-.03-.2-.05,0-.22.04-.44,0-.64-.05-.23-.07-.43.03-.64.11-.23-.03-.52.19-.73.03-.03,0-.16-.03-.23-.15-.29-.15-.3.16-.46-.06-.1-.17-.19-.17-.29,0-.11.12-.22.13-.33.06-.47.12-.94.13-1.41,0-.47-.09-.95.06-1.41,0-.01,0-.03,0-.05-.09-.26-.07-.53-.09-.8-.02-.27.06-.5.09-.7-.1-.07-.18-.13-.27-.19.27-.02.35-.13.31-.36-.01-.07,0-.14,0-.22.07-.72.12-1.45.2-2.17.06-.52.13-1.03.26-1.54.04-.18.22-.36.38-.49.15-.11.26-.03.25.16-.05.99-.11,1.97-.17,2.96,0,.17,0,.33-.02.5-.04.66-.11,1.32-.1,1.99,0,.96.07,1.91.11,2.87.05,1.09.06,2.18.17,3.27.06.55.07,1.11.08,1.66.01.54.01,1.09,0,1.63-.01.28-.08.55-.12.83,0,.13.03.28.04.43.01.14,0,.29,0,.43-.01.21-.03.43-.04.64,0,.09-.02.18-.02.27,0,.28.03.55,0,.82-.04.4-.13.8-.17,1.21-.05.43-.07.86-.1,1.28-.02.25-.05.51-.04.76.02.34.08.67-.13.97-.02.03-.03.1-.01.13.12.25-.1.53.07.79.04.05-.05.18-.06.27-.03.2-.05.41-.08.64.12-.02.17-.03.22-.04,0,.08-.01.14-.02.21.21-.39.31-.46.6-.34-.12.22-.22.44-.35.64-.05.08-.16.16-.26.18-.16.04-.23.12-.24.27-.02.29-.04.57-.05.86,0,.12.06.24.06.36,0,.11-.05.21-.08.32-.02.06-.06.15-.05.16.23.13.22.25,0,.37,0,0,0,.01,0,.02-.02.28-.04.56-.06.9.12-.1.19-.15.26-.21-.01.13-.11.22-.12.32-.05.37-.06.75-.11,1.12-.02.19-.06.36.27.39-.29.08-.28.08-.18.27.03.06,0,.15,0,.26-.07-.05-.09-.07-.12-.1,0,.1,0,.19,0,.28,0,.08,0,.15.01.26.03.04.1.13.16.21-.06.06-.1.12-.18.2.12.02.19.04.28.06-.27.15-.36.36-.29.65.04.17.13.38.07.51-.09.2-.07.37-.06.57,0,.16-.03.32-.04.45.03.13.06.25.09.36.02.09.03.18.05.3-.35.08,0,.22.05.35-.25.15-.26.18-.08.36-.15.19-.13.25.09.31-.27.19-.3.35-.12.64-.19.06-.2.13-.07.28.06.07.05.2.08.31l-.07.02c-.03-.06-.06-.12-.12-.24-.06.31-.11.56-.15.81-.05.36-.08.73-.12,1.1-.01.11-.06.21-.09.32-.02.09-.04.18-.08.26-.11.22.03.45-.08.69-.24.5-.41,1.04-.61,1.56-.11.3-.15.66-.32.91-.47.68-.97,1.34-1.5,1.97-.19.23-.43.46-.78.49-.12,0-.25.05-.37.08.06.32-.18.24-.34.27-.08.02-.21.1-.2.13.02.1.08.2.14.29.06.08.19.14.2.22.03.21.16.34.32.45.14.1.29.2.42.31.32.27.64.55.96.83.13.11.24.25.37.38-.22.14-.02.37-.06.65.14-.25.22-.45.36-.61.14-.16.32-.29.54-.47-.13-.01-.18-.02-.3-.03ZM37.33,32.27s-.02-.05-.03-.08c-.08,0-.15-.03-.23-.03-.67,0-1.35,0-2.02.01-.27,0-.54.07-.81.08-.5.02-1.01.02-1.51.04-.11,0-.22.05-.31.02-.19-.06-.36-.14-.53.03-.04.04-.12.03-.18.03-.19,0-.38,0-.58,0l.03-.06s-.09-.1-.14-.1c-.19,0-.38.03-.57.06-.14.02-.27.04-.43,0-.24-.06-.55-.09-.77.01-.41.19-.81.14-1.23.12-.31-.02-.62-.04-.93-.06-.2-.01-.4-.02-.63-.03-.04.17-.13.19-.32.07-.08-.05-.23-.01-.35,0-.09,0-.19.02-.28.03-.23.03-.46.06-.7.09-.09.01-.19.03-.28.03-.46-.02-.91-.07-1.37-.06-.31,0-.62.08-.93.11-.09.01-.19.01-.28,0-.23-.04-.45-.09-.66.07-.04.03-.1.05-.16.05-.43.04-.85.09-1.28.12-.17.01-.34.01-.52,0-.2-.01-.41-.06-.61-.06-.23,0-.46.03-.68.1-.21.06-.37.02-.48-.1-.11.04-.19.09-.28.1-.16.03-.35.02-.49.08-.63.27-1.29.07-1.93.18-.39.07-.79.02-1.18.04-.15,0-.29.09-.44.11-.22.03-.45.04-.68.08-.26.04-.51.11-.77.17,0,.04.01.08,0,.06-.57.26-1.22.18-1.74.56.09.08.17.13.26.15.43.11.87.21,1.3.31.23.05.47.15.7.15.52-.01,1.03,0,1.52.17.15.05.32.06.48.07.19.01.39,0,.58.02.33.04.66.13.99.14.42.02.86.16,1.27-.05.03-.01.07.02.11.03.1.03.19.07.29.09.47.09.95.17,1.42.24.06,0,.13-.04.19-.05.06-.01.13-.03.19-.02.14.02.27.09.41.09.35,0,.7-.03,1.06-.01.19,0,.37.11.56.11.35,0,.7-.04,1.05-.04.47,0,.94.03,1.41.05,1.12.06,2.23.12,3.35.18.08,0,.16-.04.23-.07.1-.03.2-.11.29-.1.15.01.3.12.45.12.67.03,1.34.03,2.01.07,1.56.07,3.11.16,4.67.23.81.03,1.61.05,2.42.04.94-.02,1.88-.07,2.82-.12.36-.02.71-.05,1.09-.08.13.2.31.08.49.03.12-.03.24-.08.36-.09.76-.02,1.51-.02,2.27-.04.12,0,.25-.04.37-.08.11-.04.21-.12.33-.14.36-.06.72-.1,1.09-.14.6-.07,1.21-.13,1.82-.18.3-.03.61.02.9-.04.51-.11,1.07.13,1.56-.2,0,0,.03.01.04.01.23,0,.46.02.69.03.24.01.49.05.54-.21.2.04.36.11.51.1.39-.03.78-.1,1.17-.16.16-.02.33-.06.49-.1.19-.04.37-.09.56-.14,0,.02.02.04.02.06.02-.04.04-.09.03-.08.19.01.34.04.48.02.21-.02.42-.09.62-.12.45-.07.9-.13,1.34-.2.43-.06.86-.14,1.3-.19.21-.02.43.04.65.02.36-.03.73.03,1.07-.14.05-.03.12-.02.19-.02.45-.01.91.06,1.33-.06.48-.13.95-.1,1.42-.13.76-.05,1.51-.07,2.25-.26.24-.06.49-.08.73-.12.19-.03.4-.03.57-.11.27-.14.54-.26.85-.21-.1-.03-.19-.03-.29-.03-.15,0-.3.02-.44,0-.62-.12-1.23-.34-1.88-.28-.27.02-.55-.04-.83-.06-.12,0-.26.06-.34,0-.2-.13-.39-.08-.58-.03-.51.14-.5.14-.6-.37-.01-.06-.09-.16-.14-.16-.38,0-.76.04-1.14.05-.16,0-.33,0-.48-.05-.14-.04-.27-.17-.41-.18-.54-.06-1.09-.09-1.64-.12-.11,0-.22.08-.33.08-.22,0-.45-.01-.67-.05-.12-.02-.23-.1-.32-.14-.11.23-.36.08-.55.1-.22.02-.44,0-.66,0,0,.02,0,.04,0,.06l.7.11s0,.05,0,.08h-1.69c.18-.07.33-.13.48-.19,0-.03-.02-.05-.03-.08-.06.02-.11.03-.17.05-.17.05-.33.15-.5.15-.21,0-.42-.03-.64-.01-.7.06-1.42.06-2.12.08-.14,0-.27.02-.4.02-.44.03-.88.07-1.33.09-.41.02-.82.03-1.24.02-.08,0-.2-.07-.24-.14-.06-.1-.09-.13-.18-.05-.03.03-.08.05-.12.05-.4,0-.8.02-1.19.01-.5,0-1-.04-1.5-.04-.45,0-.89.04-1.34.03-.62-.01-1.24-.06-1.86-.08-.34,0-.67.03-1.01.05,0,.03-.01.06-.02.09.23.16.47.32.7.48.3.21.36.42.23.83-.07.21-.28.35-.55.34-.37-.01-.74-.04-1.12-.05-.47-.02-.94.04-1.42.03-.72-.02-1.43.05-2.15.09-.16,0-.33.02-.49.03l-.08.11c.09.03.18.06.26.08-.01.02-.03.05-.04.07-.08,0-.17,0-.25,0-.06,0-.13-.05-.19-.03-.22.05-.38-.04-.51-.19-.13-.14-.16-.32-.1-.51.19-.56.66-.76,1.16-.93.11-.04.21-.09.32-.14ZM39,11.29s0-.04,0-.07c-.08-.76-.12-1.52-.27-2.27-.1-.51,0-.97.12-1.42.1-.39.25-.77.49-1.11.16-.22.14-.53.27-.77.03-.05,0-.13,0-.19,0-.1-.02-.21-.02-.31.01-.7-.07-1.35-.65-1.85-.18-.16-.24-.44-.36-.65-.04-.07-.12-.14-.2-.17-.53-.24-1.1-.42-1.46-.92-.15-.22-.3-.38-.57-.4-.17-.01-.36.01-.53-.02-.33-.07-.52.24-.81.26-.24.02-.3.19-.29.42,0,.17,0,.36-.04.52-.18.6-.08,1.2.06,1.77.19.8.47,1.59.75,2.37.24.66.57,1.27,1.33,1.49.11.03.22.1.31.18.25.23.54.44.72.72.28.43.5.91.73,1.37.09.17.17.34.24.52.02.07-.02.16-.03.24-.08-.04-.19-.05-.24-.11-.07-.09-.1-.23-.16-.33-.32-.49-.62-1-.98-1.46-.18-.22-.48-.44-.74-.47-.31-.03-.56-.15-.81-.29-.14-.07-.3-.18-.36-.32-.17-.38-.38-.71-.7-.97-.4-.34-.86-.36-1.36-.29-.43.07-.71.28-.91.68-.26.52-.34,1.02-.06,1.55.11.2.21.4.32.6.22.38.4.8.68,1.13.27.32.31.87.85.93,0,0,.01.01.02.02.47.37.94.75,1.42,1.12.73.55,1.5,1.05,2.07,1.78.1.12.29.18.35.31.23.43.43.88.63,1.32.11.25.2.52.29.78.17.52.38,1.04.23,1.61-.04.18-.08.35-.11.53.02,0,.05.02.07.02.15-.39.29-.78.45-1.16.18-.45.26-.91.17-1.39-.07-.38-.12-.76-.16-1.14-.07-.62,0-1.22.21-1.81.13-.36.17-.75.33-1.1.3-.68.64-1.34.98-1.99.15-.29.35-.55.53-.82.13-.21.24-.42.38-.66-.16-.01-.29-.02-.42-.03.03-.05.06-.07.09-.06.25.07.43-.03.56-.24.04-.06.11-.11.17-.16.31-.21.63-.4.92-.62.52-.4,1.02-.82,1.52-1.24.25-.22.5-.45.59-.79.06-.2.12-.41.22-.6.35-.66.59-1.35.72-2.08.08-.46-.06-.74-.49-.95-.1-.05-.2-.11-.29-.16.23-.29.43-.55.64-.81.13-.16.04-.59-.16-.65-.14-.05-.28-.07-.43-.09-.24-.03-.48-.05-.73-.08,0,.03.02.09.04.17-.1-.05-.19-.14-.26-.13-.2.02-.4.09-.6.14-.25.06-.3.16-.2.38-.25.24-.51.45-.89.46-.14,0-.31.08-.38.31-.11.35-.32.66-.51.98-.04.07-.13.11-.22.19-.05-.34,0-.61.15-.84.14-.22.33-.4.52-.61-.63.31-1.48,1.88-1.27,2.28-.1.12-.23.22-.28.35-.27.69-.56,1.37-.93,2.01-.28.48-.49,1.01-.75,1.55-.08-.11-.11-.15-.18-.24-.2,1.24-.02,2.42,0,3.64.07-.07.13-.11.16-.17.14-.28.26-.56.4-.84.25-.51.49-1.03.78-1.52.08-.14.12-.2-.01-.26.11-.05.21-.11.32-.16,0-.02-.02-.04-.02-.06-.06,0-.12,0-.18,0,.1-.09.2-.15.26-.24.3-.5.58-1.01.87-1.51.21-.37.41-.73.6-1.1.15-.29.29-.58.44-.86.23-.43.47-.86.72-1.31.08.03.15.05.23.08-.02.08-.04.13-.06.18-.14.4-.27.81-.43,1.21-.08.21-.21.41-.33.6-.11.17-.27.31-.36.49-.13.27-.23.55-.41.81-.46.67-.85,1.39-1.24,2.11-.3.54-.52,1.13-.83,1.67-.2.35-.28.8-.72.99-.04.02-.05.14-.04.21.02.13.09.26.11.39.03.18,0,.38.04.56.05.26.15.51.18.77.05.35.06.71-.18,1.08-.04-.16-.07-.26-.08-.36-.11-.72-.1-1.46-.52-2.12-.1-.15-.14-.32-.34-.41.09-.01.19-.03.31-.05ZM7.23,64.72s.03,0,.05-.01c-.02-.07-.06-.14-.06-.2,0-.42.02-.84.04-1.25.03-.5.09-1,.09-1.5,0-.39-.08-.78-.07-1.17.01-.53-.15-1.04-.15-1.58,0-.2.02-.29.15-.32-.03-.15-.06-.29-.09-.42-.03-.13-.03-.28-.1-.38-.22-.29-.23-.31.09-.43-.01-.27-.36-.53-.02-.76-.06-.11-.16-.21-.17-.32-.01-.16.02-.33.06-.49.02-.09.09-.16.14-.24.08-.12.16-.24.24-.36-.03-.02-.05-.04-.08-.06l-.27.18s-.03-.02-.05-.03c.06-.12.09-.27.19-.35.16-.15.17-.3.11-.55-.08.14-.13.22-.21.35-.02-.21-.06-.36.1-.48.14-.11.25-.24.38-.37-.02-.03-.04-.05-.06-.08-.13.06-.25.12-.38.18,0-.01-.01-.03-.02-.04.16-.14.32-.27.47-.4-.08-.06-.2-.1-.2-.14,0-.3.04-.6.07-.9,0-.07.02-.14.04-.22-.07,0-.15.01-.22.02-.09-.27.25-.11.28-.26-.24-.16-.22-.4.03-.55.05-.03.08-.09.12-.14-.05-.04-.1-.07-.14-.11-.06-.04-.16-.11-.16-.14.08-.25.17-.49.27-.72.02-.04.11-.04.17-.07.03-.01.06-.03.1-.04,0-.01,0-.03,0-.04h-.14v-.33c-.09.06-.16.12-.23.17l-.08-.1c.12-.09.26-.17.35-.29.06-.08.05-.22.04-.33,0-.05-.09-.1-.15-.17.35-.15.07-.32.06-.48.07-.08.15-.19.12-.24-.13-.18.03-.35.01-.52,0-.1.06-.22.04-.32-.03-.16-.03-.29.12-.4.03-.02,0-.12,0-.19,0-.23-.05-.48.02-.7.04-.13.13-.24.11-.4-.01-.11.03-.24.06-.35.08-.28.03-.58.23-.86.11-.16.03-.43.06-.66.01-.12.06-.24.1-.39-.01-.12-.05-.29-.05-.46,0-.16.07-.33.06-.49-.01-.21.03-.3.32-.15-.19-.22-.31-.38-.06-.54.01,0,.01-.03.02-.04.08-.32.17-.65.25-.97.07-.29.13-.58-.18-.84.14.05.22.07.36.12-.25-.28-.27-.69-.12-.96.03-.06.04-.16.01-.21-.1-.16-.05-.27.05-.32,0-.19-.01-.34,0-.49.02-.25-.06-.51.08-.74,0,0-.01-.03-.02-.04-.12-.16-.06-.3.03-.38-.03-.11-.11-.21-.08-.27.13-.28-.11-.49-.11-.74,0-.02-.08-.04-.15-.07-.09.24-.19.46-.26.68-.21.62-.4,1.24-.61,1.87-.15.45-.31.89-.43,1.34-.1.34-.13.71-.21,1.05-.19.83-.38,1.66-.58,2.48-.13.52-.29,1.03-.44,1.57.13.08.18.2.05.38-.06.08-.2.24,0,.37.02.01.01.09,0,.13-.05.26-.11.51-.17.76-.04.16-.11.31-.14.4.03.21.05.35.06.5,0,.1,0,.21-.02.32-.01.13.08.32-.12.34.02.14.06.28.04.42-.03.29-.09.57-.13.85-.03.18-.07.36-.08.54-.02.42-.03.84-.04,1.26,0,.1.03.21.03.31-.02.31-.06.61-.08.92-.02.44-.02.88-.05,1.32-.02.24-.08.48-.1.72-.02.18,0,.36,0,.54-.11.01-.18.02-.28.03.3.26.3.26.29.65,0,.18,0,.35,0,.53,0,.12-.04.25-.06.39-.12-.07-.19-.11-.29-.17.01.14.02.24.03.34.07-.03.16-.09.19-.07.07.04.14.12.15.19,0,.05-.06.16-.12.17-.16.04-.17.14-.16.27.02.29.03.57.04.86.02.48-.13.96-.06,1.43.03,0,.05.01.08.02-.05.03-.11.07-.15.1.04.1.1.17.1.23-.01.33.03.68-.08.98-.14.38-.06.74-.06,1.12,0,.39-.1.78-.05,1.19.04.3,0,.62-.03.92-.05.39-.13.77-.19,1.15-.05.36-.15.68-.48.9-.05.03-.08.11-.09.16-.03.52-.34.91-.63,1.29-.44.59-.93,1.15-1.4,1.73-.12.15-.22.33-.34.51-.03-.02-.08-.07-.13-.08-.06,0-.15,0-.18.04-.14.15-.28.31-.4.48-.05.07-.09.16-.13.24.35.15.58.13.98-.11.54-.32,1.07-.68,1.62-.98.32-.18.55-.43.72-.74.15-.28.29-.57.49-.82.32-.39.58-.79.62-1.31.02-.2.07-.41.16-.59.05-.1.22-.18.34-.2.05,0,.17.16.19.26.06.46.07.9-.15,1.35-.35.73-.72,1.42-1.38,1.94-.46.35-.83.82-1.23,1.24-.1.1-.16.23-.27.32-.44.37-.98.52-1.5.71-.16.06-.32.09-.49.12-.13.02-.29-.1-.38.09-.07.14-.14.27-.2.41-.06.14-.08.29-.16.41-.08.13-.11.22.05.3.04.02.05.1.08.16.04,0,.11-.02.2-.03-.04.07-.06.12-.09.17.31.2.6.39.9.58.21.13.45.22.64.38.19.16.43.13.63.28.14.1.26.14.17.35.11-.04.18-.08.26-.08.33,0,.43-.13.35-.4.08-.13.15-.24.21-.34.13-.2.28-.38.38-.59.13-.25.2-.53.32-.79.18-.37.39-.72.57-1.09.13-.28.23-.59.35-.88.2-.52.41-1.04.6-1.56.07-.18.08-.38.18-.54.08-.12.18-.21.13-.37-.02-.06.01-.14.02-.21.06-.43.13-.87.19-1.3.06-.4.1-.79.16-1.19.01-.1.12-.19-.01-.29-.02-.01.02-.1.04-.15.03-.12.07-.23.11-.35.03-.1.05-.19.07-.29ZM9.72,58.62q.31-.34.34-.85c-.12,0-.25-.16-.38.1.05.01.11.03.17.05-.11.12-.18.2-.25.29.1.03.19.06.28.08-.16.19-.41.3-.44.6-.05.59-.12,1.19-.2,1.78-.05.39-.08.8-.37,1.1,0,.07,0,.15-.03.2-.07.14-.18.26-.22.4-.11.38-.12.83-.33,1.14-.21.3.02.65-.23.9.08.42-.02.82-.17,1.21,0,.03,0,.06,0,.09,0,.15-.01.3-.02.49.17.13.18.2.05.46-.03.06-.01.15-.01.22,0,.05.02.12,0,.16-.15.31-.15.64-.2.97-.04.23-.1.46-.16.68.04.07.06.14.04.2-.16.54-.32,1.08-.5,1.61-.16.46-.41.89-.5,1.36-.1.49-.39.89-.52,1.37-.03.13-.08.25-.14.44-.14.08-.15.11.03.29-.12.12-.3.14-.31.4,0,.1-.3.19-.51.32.07.03.14.06.24.09-.16.1-.25.16-.34.21.01.02.02.03.03.05.05-.02.11-.03.18-.06-.07.2-.16.34-.38.32-.01-.11-.02-.2-.04-.35-.06.09-.08.11-.09.14-.16.29-.31.59-.49.87-.27.43-.62.81-.73,1.33-.02.08-.09.15-.14.21-.1.13-.22.25-.32.37-.03.03-.05.09-.04.12.08.2,0,.32-.19.39-.06.02-.12.06-.18.09,0,.01,0,.02.01.04.06,0,.12-.01.19-.02-.01.11-.04.2-.03.28.02.21,0,.39-.17.53-.04.03-.05.16-.02.21.25.48.53.94.91,1.33.41.41.93.62,1.45.66.84.07,1.64-.15,2.29-.74.2-.18.38-.39.51-.63.12-.22.16-.49.24-.74,0-.02.04-.04.07-.07.01.09.02.15.03.26.17-.25.3-.46.46-.7-.04-.1,0-.22.17-.29.05-.02.09-.12.11-.19.03-.12.02-.26.07-.37.07-.16.03-.4.23-.43.02-.15.03-.27.05-.4.12-.04.23-.07.35-.11-.02,0-.05-.01-.07-.02,0-.11,0-.22.02-.33.02-.08.07-.16.09-.25.16-.69.31-1.37.47-2.06.04-.19.14-.37.18-.55.04-.19.05-.38.06-.57,0-.21,0-.42,0-.63-.02,0-.04-.01-.06-.02-.03.06-.05.11-.08.17-.12.23-.21.49-.37.69-.16.19-.39.32-.19.61.01.02-.01.06-.01.09-.02.38-.16.74-.09,1.13.02.12-.06.28-.13.4-.08.14-.22.25-.32.39-.5.66-1.1,1.13-1.96,1.26-.37.05-.73.2-1.1.31-.17.05-.35.09-.52.13-.11.1-.23.19-.37.24-.17.05-.36.04-.52.1-.2.07-.48.06-.63-.08-.04-.04-.09-.11-.07-.14.08-.17.14-.4.28-.47.4-.2.82-.4,1.26-.49.7-.14,1.22-.52,1.65-1.05.32-.39.62-.81.93-1.24,0,0-.05-.04-.1-.07.34,0,.31-.33.43-.52.05-.07,0-.2,0-.31.12-.19.29-.36.46-.54.31-.33.5-.73.63-1.16.03-.09.05-.19.09-.28.07-.19.16-.37.22-.56.1-.33.18-.67.26-1,.06-.28.21-.59.14-.83-.08-.26-.02-.4.09-.54-.06-.07-.13-.11-.14-.17-.02-.14,0-.28,0-.42,0-.35-.03-.71,0-1.06.01-.22.1-.44.13-.66.05-.32.06-.65.11-.97.06-.31-.05-.61-.05-.92,0-.29.12-.63-.1-.91-.02-.03,0-.09,0-.14,0-.13.03-.27.02-.4-.04-.46-.09-.91-.13-1.37,0-.09.05-.19.08-.29-.02-.03-.07-.1-.07-.16-.02-.48-.04-.96-.05-1.44,0-.47,0-.95,0-1.45-.13.03-.21.04-.32.07ZM48.68,13.89c-.32.44-.61.85-.9,1.26-.1.13-.2.26-.3.4-.25.35-.5.72-.76,1.06-.1.14-.25.24-.37.37-.25.29-.49.59-.74.86-.08.09-.23.13-.11.28,0,0-.03.06-.06.09-.24.23-.5.44-.73.68-.33.34-.64.69-.96,1.03-.04.04-.12.04-.18.08-.08.05-.16.11-.23.18-.02.02.04.1.05.11-.12.06-.27.11-.38.2-.15.12-.27.27-.4.41-.56.6-1.11,1.22-1.7,1.79-.35.34-.44.87-.89,1.11-.01,0-.01.03-.02.04-.23.58-.29,1.19-.31,1.81.27,0,.26,0,.36-.21.06-.11.12-.22.19-.33.2-.3.4-.6.62-.89.18-.23.34-.48.57-.65.88-.66,1.77-1.28,2.66-1.92.14-.1.29-.19.43-.29.24-.17.47-.36.71-.53.08-.05.19-.03.29-.07.06-.02.11-.06.15-.11.18-.23.32-.51.53-.69.38-.32.81-.57,1.21-.86.19-.13.4-.25.56-.42.54-.58,1.07-1.17,1.59-1.77.52-.62,1.02-1.26,1.52-1.89.14-.17.27-.37.45-.49.19-.13.23-.32.28-.49.12-.42.22-.85.25-1.28.05-.75-.22-1.12-.91-1.4-.29-.12-.6-.22-.82-.3-.2.05-.35.15-.45.11-.35-.15-.65.05-.94.14-.7.21-1.27.65-1.88,1.04-.41.26-.81.54-1.33.55-.06,0-.17.08-.17.12-.03.5-.42.81-.62,1.22-.1.21-.32.36-.45.49.04.11.14.23.11.31-.12.36-.28.71-.42,1.06-.02.04-.03.07-.06.11-.45.65-.66,1.4-.88,2.15-.18.62-.41,1.22-.62,1.83-.01.04,0,.09.01.16.13-.06.27-.08.34-.15.44-.5.83-1.04,1.29-1.51.77-.78,1.33-1.72,2.14-2.46.33-.3.43-.8.81-1.08.03-.02.05-.07.05-.11.01-.21.12-.35.3-.46.05-.03.06-.15.09-.24.1-.08.24-.19.36-.31.17-.18.37-.24.67-.17ZM44.94,8.99c-.45-.23-.87-.24-1.31-.24-.38,0-.65.08-.83.45-.09.2-.3.34-.43.53-.16.25-.28.53-.43.79-.29.47-.62.92-.89,1.4-.25.45-.47.92-.65,1.41-.1.25-.22.54-.02.82.02.03-.04.14-.07.2-.04.07-.13.12-.14.19-.04.16-.05.33-.07.53.3-.4.58-.77.84-1.15.15-.22.25-.48.41-.7.17-.24.38-.46.58-.69.05-.06.1-.12.14-.19.23-.38.45-.77.68-1.15.2-.33.41-.66.64-.97.05-.07.21-.06.32-.08,0,.1,0,.19-.02.29-.04.21-.29.41-.03.62-.17.24-.33.46-.5.68-.42.56-.84,1.12-1.27,1.67-.39.51-.75,1.03-1.16,1.52-.31.37-.41.76-.35,1.24.11.82.04,1.62-.43,2.35-.03.05-.05.12-.07.18-.24.64-.2,1.32-.23,1.99-.03.73.01,1.47.04,2.2,0,.16.07.31.11.47.03,0,.06.01.08.02.07-.08.15-.15.21-.23.22-.34.41-.72.67-1.03.29-.35.66-.63.99-.94.17-.16.26-.34.3-.58.07-.41.14-.83.26-1.23.19-.62.41-1.23.64-1.83.13-.34.31-.66.46-1,.25-.54.47-1.1.76-1.61.13-.22.23-.44.32-.67.08-.21.15-.42.25-.62.06-.14.16-.26.24-.4.1-.19.15-.42.29-.56.22-.23.38-.44.15-.74,0,0,0-.02,0-.02-.01-.59-.01-1.18-.04-1.77-.02-.36-.04-.72-.11-1.08-.03-.17-.18-.31-.29-.5-.01.19-.02.3-.03.45ZM37.69,25.03s.04-.04.06-.06c-.06-.12-.11-.24-.17-.35-.25-.49-.43-1.04-.77-1.45-.35-.43-.84-.76-1.3-1.09-.48-.34-.99-.63-1.5-.93-.19-.11-.54-.02-.6.14-.09.26-.15.54-.19.81-.03.16.05.31.25.3.23,0,.39.15.58.23.17.07.35.18.52.17.26-.02.4.12.58.26.19.15.44.22.63.38.48.39.94.81,1.41,1.21.16.14.34.26.51.39ZM10.49,53.67c.05.15.14.27.12.38-.05.49-.13.97-.21,1.46,0,.01-.02.02-.03.03-.05-.02-.11-.04-.17-.06.04.26.1.48.07.74-.05.39.06.8.09,1.2.04.55.09,1.1.11,1.65.02.53,0,1.07,0,1.6,0,.06-.07.12-.1.19.2.14.26.38.15.61-.01.03-.04.07-.04.1.01.33.03.66.05.99,0,.09.02.18.04.3.06-.04.08-.05.08-.05.03-.56.07-1.12.09-1.68,0-.08-.05-.15-.05-.23.03-.39.1-.78.1-1.17,0-.59-.03-1.18-.04-1.77.02-.02.04-.03.06-.05.02.06.04.13.07.19.01-.01.02-.03.03-.04-.05-.44-.1-.88-.16-1.39.22.18.34.1.35-.07.01-.24-.02-.48-.04-.72,0-.12-.03-.24-.03-.36,0-.23.02-.46.05-.69.04-.35-.1-.71.08-1.05.06-.12-.02-.17-.15-.15-.08.01-.17.01-.25.02,0-.03,0-.05-.01-.08.11-.03.22-.06.33-.09.02-.23.03-.45.05-.7-.12.09-.2.14-.29.2,0-.01-.02-.02-.02-.04.04-.05.08-.11.13-.16-.05-.04-.08-.07-.07-.06.09-.11.21-.19.22-.29.01-.12-.07-.24-.12-.39-.01,0,.04,0,.05-.03.02-.07.04-.22.03-.22-.09-.03-.19-.03-.29-.04.02.06.05.12.05.18,0,.1.04.23-.01.29-.13.16-.13.33-.14.52,0,.09-.04.17-.07.26-.01.04-.04.08-.06.11.05.02.09.06.14.06.09,0,.19-.01.29-.02-.17.2-.33.37-.46.53ZM33.4,22.77s-.04.07-.04.09c0,.06,0,.11,0,.17.05.51.44.82.77,1.1.53.47,1.14.83,1.73,1.23.07.05.18.1.26.08.35-.08.69-.19,1.01-.28-.16-.16-.37-.32-.51-.52-.18-.25-.41-.42-.67-.56-.15-.08-.3-.17-.44-.29-.62-.53-1.39-.72-2.11-1.03ZM15.33,47.8s.05,0,.07,0c.02-.15.05-.31.06-.46.04-.63.08-1.26.09-1.9.02-.56,0-1.11.02-1.67.01-.35.08-.7.13-1.05.01-.09.04-.17.04-.26,0-.48-.02-.95-.03-1.43-.01-.38-.03-.76-.05-1.14,0-.15-.02-.31-.04-.46-.03-.19-.07-.37-.11-.59-.08.06-.11.07-.11.09-.07.31-.08.63-.16.95-.08.31-.04.66-.05.99,0,.18-.03.37-.03.55,0,.77-.03,1.54,0,2.31.02.38-.19.79.07,1.16.01.02,0,.06,0,.09-.02.38-.06.76-.06,1.14,0,.08.11.16.19.27-.32.43-.04.92-.02,1.4ZM40.22,31.39s.08.02.11.03c.04-.07.08-.14.11-.22.1-.35.17-.7.29-1.04.22-.62.22-1.3.6-1.87.13-.2.17-.47.28-.75-.4,0-.74,0-1.09,0-.09,0-.2,0-.28.05-.07.04-.16.13-.17.21-.06.43-.1.86-.15,1.29-.07.65-.13,1.29-.2,1.94-.09-.38-.15-.77-.19-1.16-.04-.32-.05-.63-.08-.95,0-.04-.08-.07-.13-.11-.03.04-.08.08-.08.12.01.13.05.26.07.4.04.26.08.51.09.77.02.36.01.72.03,1.07,0,.13.04.27.22.27.19-.61.41-1.2.56-1.81.15-.6.25-1.22.37-1.83.04,0,.08.01.12.02-.05.6-.07,1.21-.15,1.8-.08.6-.23,1.19-.35,1.78ZM38.16,31.48c-.05-.1-.07-.15-.1-.19-.04-.08-.11-.16-.13-.24-.11-.62-.2-1.25-.32-1.87-.1-.54-.22-1.08-.33-1.58-.24.08-.41.15-.59.19-.19.04-.4.02-.6.05-.06,0-.15.11-.14.14.09.25.17.5.3.72.34.59.74,1.15,1.04,1.76.2.41.34.81.86,1.03ZM31.4,89.86s0-.04,0-.07c-.08-.05-.15-.11-.24-.15-.05-.03-.13-.07-.17-.05-.2.08-.4.17-.6.27-.52.26-1.03.52-1.55.78-.05.03-.09.07-.15.12.17.05.3.08.43.13.24.08.48.17.72.25.07.02.14.06.2.06.18-.02.27.04.25.17.14.04.26.07.37.12.22.11.33.06.37-.17.04-.27.1-.53.21-.8.08-.19,0-.45,0-.67,0,0,.08,0,.15.01ZM37.7,27.51s0,.06,0,.08c.14.59.29,1.18.42,1.77.03.14.02.29.04.43.07.36.16.72.24,1.08.05.22.1.44.17.65.02.06.12.09.24.17,0-.28.02-.5,0-.72-.03-.32-.12-.64-.12-.96,0-.51-.03-1-.24-1.47-.06-.13-.08-.29-.11-.43,0-.04.05-.08.05-.12.03-.14.04-.3-.13-.35-.18-.06-.37-.07-.56-.1ZM65.67,36.68c-.39,1.08.12,2.05.31,3.05.05-.32.07-.64.07-.96,0-.3-.02-.59-.03-.89,0-.11-.03-.22-.04-.33.12-.43.03-.77-.31-.88ZM37.51,33.62v-.05c.05-.03.11-.07.17-.08.35-.04.7-.06,1.04-.11.16-.02.32-.09.48-.15.04-.02.08-.1.08-.15,0-.03-.06-.08-.11-.1-.14-.07-.28-.13-.45-.2-.48.5-1.1.73-1.88.59-.07.08-.14.25-.36.11,0,.03.01.06.02.09.33.02.67.04,1,.06ZM41.97,26.62c-.33-.28-.7-.19-1.03-.26-.04,0-.1.04-.13.09-.13.2-.35.26-.49.13-.34-.3-.46-.09-.59.18,0,.01,0,.03,0,.05.73-.06,1.46-.12,2.23-.19ZM37.09,27.02c-.18-.28-.7-.5-.93-.4-.07.03-.11.13-.17.2.06.04.12.11.18.12.29.03.58.05.92.08ZM51.01,88.82c-.56.14-1.09,0-1.59.22.3.05.6.11.9.1.23,0,.53.08.69-.32ZM37.95,26.17c-.09-.53-.49-.61-1.1-.38.4.14.74.26,1.1.38ZM.58,70.87s.03.03.04.04c.11-.02.22-.05.28-.06.12-.18.23-.32.3-.47.07-.14.11-.29.16-.43l-.08-.03c-.23.32-.46.63-.7.95ZM15.39,36.03s.04-.05.05-.08c-.1.01-.2.01-.3.04-.26.08-.18.31-.19.49,0,.05.06.11.09.16.07-.06.17-.11.2-.18.06-.13.09-.28.14-.43ZM28.88,37.75s-.03.01-.04.02c.02.12.05.25.05.37,0,.32-.01.65,0,.97,0,.06.06.11.09.17.03-.06.09-.11.08-.17-.01-.36-.03-.73-.06-1.09,0-.09-.07-.18-.11-.27ZM41.96,28.7c.26-.1.46-.46.41-.75-.29.09-.52.51-.41.75ZM39.21,28.48c.2-.03.27-.24.25-.71-.1-.01-.21-.03-.32-.04.02.25.05.49.07.75ZM5.8,49.96c-.22.17-.31.69-.17.85.1-.11.26-.19.13-.39-.03-.05,0-.14.01-.21,0-.07.02-.14.03-.25ZM10.97,50.49c-.06.23-.11.4-.14.57-.01.06.01.14.05.19.02.03.12.03.15,0,.04-.03.08-.11.07-.16-.03-.19-.07-.37-.12-.61ZM41.14,32.58s-.01.05-.02.08c.64.38.64.39.85.22-.3-.11-.56-.2-.83-.3ZM39.5,26.83c-.04-.13-.07-.24-.11-.37-.13.1-.26.2-.43.33.21.02.35.03.54.04ZM41.89,28.79c-.11.25-.21.47-.32.71.38-.39.43-.49.32-.71ZM59.52,72.72s.05,0,.08,0c-.03-.32-.05-.63-.08-.95-.03,0-.05,0-.08,0,.03.32.05.64.08.95ZM10.49,72s-.08,0-.12-.01c-.04.19-.08.39-.12.58.03,0,.07.01.1.02.04-.2.09-.39.13-.59ZM11.04,51.63c0-.1.01-.19,0-.26,0-.02-.14-.04-.17,0-.06.05-.08.14-.14.24.13.01.2.02.31.03ZM9.96,57.19s-.06,0-.09,0c0,.14-.01.27-.02.44.06,0,.16-.02.16-.03,0-.14-.03-.27-.04-.41ZM14.74,49.83s-.05,0-.08,0v.67s.05,0,.08,0v-.67ZM14.88,37.83v.43c.11-.15.2-.29,0-.43ZM15.44,48.05s-.07,0-.1,0c.02.19.04.38.05.57.02,0,.05,0,.07,0,0-.19-.02-.38-.03-.57ZM59.24,62.69c.03-.18.06-.36.1-.55-.23.19-.24.28-.1.55ZM45.03,49.25c0-.09,0-.15,0-.21,0-.05.03-.1.05-.14-.06.02-.14.02-.18.06-.13.15-.02.21.12.29ZM37.18,26.63c.18.09.31.16.45.24q.01-.22-.45-.24ZM5.92,49.64v-.08c-.1-.01-.2-.02-.33-.04.02.11.04.18.06.28.11-.07.19-.12.26-.16Z"/>
      <path class="cls-1" d="M61.34,56.67c-.11.28-.07.4.09.45,0-.28,0-.57,0-.85,0-.31.06-.65-.32-.88.14-.02.2-.03.29-.05-.06-.82-.1-1.62-.17-2.43-.07-.8-.04-1.61-.2-2.45.12-.09.08-.25-.03-.42-.04-.07-.01-.18-.01-.27,0-.05.03-.12.01-.15-.11-.16-.05-.26.15-.4-.1-.07-.16-.11-.18-.12.01-.17.02-.31.02-.45,0-.05-.03-.1-.02-.14.11-.45.05-.9,0-1.35-.02-.21-.02-.43-.04-.64-.04-.33-.1-.66-.16-1.01.17-.18.14-.6-.09-.81.28-.26.09-.57.09-.86.01-.49.01-.98,0-1.48,0-.29-.06-.59-.07-.88-.01-.54-.04-1.09,0-1.62.02-.3-.04-.58-.07-.87,0-.08,0-.17,0-.26,0-.34-.01-.68,0-1.02.01-.34.05-.67.09-1,.02-.16.05-.34.13-.47.13-.23.23-.19.39,0,.28.33.23.69.21,1.07-.03.59,0,1.19,0,1.78,0,.45-.04.91-.03,1.36.02,1.05.04,2.1.07,3.15.03.91.06,1.82.1,2.73.01.32.05.63.09.95,0,.05.08.09.06.14-.02.29-.06.59-.06.88.01.68.03,1.35.07,2.03.03.49.09.97.12,1.45,0,.1-.02.2-.03.3,0,.04,0,.08.03.11.12.19.24.38.04.6-.03.03-.02.09-.02.14,0,.5-.02,1,0,1.5,0,.34.05.68.1,1.02,0,.05.08.1.11.13.17-.07.01-.43.33-.31-.04.14-.1.27-.11.4,0,.09.05.19.07.28.01.04.04.07.04.1.03.27.06.54.07.8.02.27.02.54.03.81,0,.15.05.3.04.45-.02.26-.07.51-.09.77-.01.22.02.44.02.66,0,.16-.04.32-.02.48.04.32.09.63.17.94.02.1.16.16.24.24-.19.23-.19,1.25,0,1.42-.03.06-.07.11-.12.19.08.02.14.04.19.05,0,.03.01.05,0,.06-.16.24-.14.49-.04.75.04.11-.03.26,0,.39.02.1.09.2.14.3-.02.06-.08.15-.07.24.05.49.11.98.16,1.47,0,.05,0,.1-.03.16-.32-.75-.17-1.58-.46-2.34v1.06c-.09-.13-.15-.24-.23-.35-.02.02-.06.06-.16.14,0-.14.02-.22.02-.3,0-.14.02-.29,0-.43-.09-.61-.18-1.23-.28-1.84-.04-.27-.14-.53-.17-.79-.02-.23-.04-.49.03-.71.1-.32.04-.61-.06-.91-.02-.07-.13-.11-.19-.15.06-.05.13-.1.2-.15-.1-.08-.2-.16-.29-.24v-.41c.3,0,.36-.15.2-.6-.1-.28-.22-.55-.35-.85-.12.04-.3.05-.33-.18-.02-.2-.01-.4.27-.52ZM62.36,62.79s.04-.02.06-.03c-.11-.77-.21-1.54-.32-2.32-.04.18-.11.34-.11.51,0,.19.05.38.08.57.02.14,0,.31.06.41.16.22.17.45.19.7,0,.05.03.11.05.16Z"/>
      <path class="cls-1" d="M65.5,81.71c-.25-.34-.2-.5.19-.84-.06-.35-.46-.38-.6-.63-.18-.31-.47-.33-.76-.41.23-.13,1.21-.05,1.59.15-.25.02-.45.04-.68.06.31.38.82.46,1.23.2.05.08.13.15.15.23.05.34.31.35.54.33.22-.02.36.07.53.17.25.15.51.31.79.41.18.06.4.01.59.04.11.02.23.09.32.16.2.17.43.21.71.2-.03-.1-.07-.17-.06-.23.01-.1.03-.24.09-.28.07-.04.21-.02.29.02.15.06.28.18.42.24.05.02.18,0,.2-.05.04-.06.04-.17,0-.24-.14-.27-.25-.56-.45-.78-.19-.2-.44-.4-.7-.47-.5-.14-.89-.46-1.31-.72-.09-.05-.15-.16-.24-.19-.21-.07-.43-.11-.65-.16.02-.14-.15-.38-.38-.54-.46-.3-.78-.72-1.01-1.23-.14-.31-.35-.6-.58-.84-.59-.63-1.07-1.32-1.29-2.17-.05-.2-.17-.38-.24-.57-.15-.46-.3-.92-.44-1.39-.15-.52-.28-1.04-.43-1.57-.03-.11-.09-.21-.11-.32-.03-.12-.03-.24-.04-.36,0-.09,0-.17-.01-.26-.15-.87-.3-1.74-.45-2.62-.02-.14,0-.28.02-.43.31.42.38.93.51,1.42.03,0,.05,0,.08-.01v-.69c.18.16.26.56.2.73-.04.11-.08.25-.06.36.07.35.17.69.26,1.04.11.44.2.89.33,1.32.09.32.07.65.1.98.03.42.02.86.51,1.03-.03.45.1.82.29,1.19.09.18.19.36.25.56.08.09.15.19.23.28.11.13.23.26.35.39.02.02.06.05.06.07-.03.29.22.4.37.59.31.4.6.83.94,1.2.41.45.86.85,1.31,1.26.14.12.34.17.5.28.63.43,1.25.86,1.87,1.29.05.04.13.04.2.04.2.02.26.11.26.31,0,.12.05.24.08.36.08.27.23.55.21.81-.02.29-.14.6-.5.72.03.06.06.12.12.24-.09-.05-.12-.08-.16-.1-.08-.04-.19-.12-.25-.1-.29.1-.57.04-.86.04-.05,0-.13.02-.15.06-.14.25-.28.1-.37-.02-.12-.16-.27-.18-.45-.2-.15,0-.29-.02-.43.06-.06.03-.23-.03-.27-.09-.29-.48-.8-.51-1.27-.63-.22-.06-.45-.1-.68-.14-.31-.06-.57,0-.74.3-.02.04-.04.07-.07.13Z"/>
      <path class="cls-1" d="M31.17,25.88v.14c.64-.05,1.28-.1,1.92-.14,0,.03,0,.07.01.1-.41.11-.81.22-1.22.32-.27.07-.55.12-.83.18-.06.01-.12.05-.18.05-.42,0-.85,0-1.27,0-.14,0-.28-.02-.4.02-.32.1-.6-.01-.9-.11-.32-.1-.66-.11-.98-.21-.37-.12-.75-.26-1.09-.46-.28-.17-.41-1.11-.25-1.4.04-.07.1-.12.17-.19-.06-.02-.13-.04-.17-.05.16-.24.34-.47.46-.72.11-.23.18-.46.38-.64.04-.03-.02-.24-.09-.31-.21-.2-.45-.37-.67-.57-.2-.18-.22-.42-.05-.63.08-.1.18-.2.27-.3.09-.09.17-.19.27-.28-.12-.15-.07-.3.11-.29.56.04,1.13-.17,1.67.1.21.11.42.23.62.35.3.18.6.35.88.55.19.13.34.3.51.45.13.11.26.24.41.33.14.09.31.13.32.34,0,.04.07.09.12.1.37.06.55.35.78.59.39.42.78.84,1.18,1.25.12.12.31.17.45.27.25.2.49.42.71.66-.23-.1-.5-.07-.66-.33-.07-.11-.24-.18-.39-.23-.66-.19-1.01-.74-1.45-1.19-.15-.16-.31-.31-.46-.46,0,0,.05-.01.17-.04-.17-.09-.28-.15-.39-.21-.12-.06-.24-.11-.34-.19-.19-.14-.36-.31-.55-.44-.38-.27-.76-.55-1.16-.78-.45-.25-.93-.45-1.41-.66-.34-.15-.65.03-.97.12-.03,0-.06.03-.09.04-.5.2-.51.27-.15.68.19.22.47.36.72.53.19.13.38.25.56.39.03.03.06.1.05.14-.02.11-.33.29-.45.28-.3-.04-.45.07-.52.37-.04.19-.14.37-.19.55-.06.2-.09.4-.13.61-.02.11-.02.23-.05.33-.06.19-.02.38.15.46.16.08.37.12.53.08.15-.04.23-.04.33.07.06.06.16.12.25.13.67.08,1.35.14,2.02.22.18.02.36.11.54.11.31,0,.61-.04.93-.06Z"/>
      <path class="cls-1" d="M61.63,37.78c.44-.14.42-.14.4-.6-.02-.49-.02-.99,0-1.48,0-.3.5-.58.76-.43.06.03.11.14.11.21,0,.96.01,1.91,0,2.87,0,.3-.07.6-.11.9,0,.05,0,.11,0,.17-.01.15-.03.3-.04.5.14.12.12.34.11.58,0,.27.03.55.05.82.02.33.04.66.06,1,.01.21,0,.42.02.62,0,.06.08.11.12.16-.06.03-.19.06-.21.12-.03.07.04.18.05.27.01.09,0,.19,0,.28,0,.07,0,.14-.01.21-.01.11-.03.22-.04.38.13.13.14.78-.02,1.05.35.13.11.31.02.5.22.11.15.23.04.33.04.08.08.14.09.22.02.11.02.23.03.35.02.19.05.39.05.58,0,.09-.07.18-.11.27-.03,0-.06.01-.09.02.09.06.18.12.31.19-.13.07-.2.11-.29.17.19.11.24.24.1.45-.14-.2-.48-.04-.58-.37.14-.01.25-.02.39-.03-.09-.2-.58-.13-.3-.51.08.07.14.12.21.18,0-.09-.01-.17-.02-.28h-.29c-.05-.2-.1-.4-.16-.66-.09.13-.15.23-.21.31-.04-.11-.09-.22-.14-.36.08-.13.39.02.4-.25,0-.18-.03-.37-.06-.6.05-.03.14-.09.19-.12-.02-.17-.03-.3-.05-.43-.02-.08-.03-.18-.09-.22-.18-.13-.17-.25-.04-.4.05-.05.07-.12.11-.18-.13-.07-.24-.14-.36-.2l.02-.06c.09-.02.17-.05.25-.07-.05-.2-.11-.4-.15-.6,0-.04.02-.12.06-.14.27-.14.18-.38.17-.59-.01-.2-.06-.39-.07-.59,0-.08.04-.16.04-.23,0-.1-.01-.21-.02-.31,0-.09,0-.19-.01-.28-.04-.43-.07-.87-.12-1.3-.02-.21-.07-.42-.09-.63-.02-.41-.01-.83-.05-1.24-.02-.22-.06-.48-.41-.51ZM62.55,47.02l-.06.08c.04.16.16.22.41.19-.15-.12-.25-.19-.35-.27Z"/>
      <path class="cls-1" d="M47.9,26.59c-.32.22-.66.09-1,.05-.57-.06-1.14-.11-1.71-.16-.08,0-.16,0-.24,0-.27-.04-.55-.08-.82-.12-.12-.02-.24-.05-.36-.11h1.24c-.1-.05-.14-.07-.19-.1,0-.02,0-.04,0-.06.09,0,.19,0,.28,0,.53.04,1.02-.09,1.51-.29.09-.04.24-.03.33.02.14.08.25.05.38-.01.35-.17.7-.35,1.05-.49.12-.05.28-.03.41-.04,0,.04.01.07.02.11-.57.21-1.13.47-1.71.62-.59.15-1.2.2-1.8.29.28,0,.58,0,.87,0,.21,0,.43-.07.6.12.04.04.15.04.23.03.7-.08,1.39-.17,2.09-.25.92-.11,1.72-.51,2.46-1.06.06-.05.09-.13.14-.2-.08-.04-.16-.09-.24-.11-.31-.1-.62-.19-.92-.3-.14-.05-.2-.14-.05-.28.07-.07.1-.24.07-.33-.11-.35-.06-.48.28-.6.12-.04.24-.05.44-.09-.19.34-.35.62-.53.95.31,0,.57,0,.83,0,.25,0,.39.16.47.38.06.18.13.36.19.54.04.13.04.21-.13.29-.28.13-.52.33-.78.51-.92.66-2.01.77-3.08.9-.1.01-.22-.07-.33-.11,0-.02,0-.05,0-.07Z"/>
      <path class="cls-1" d="M33.04,15.22c.1.11.22.21.28.33.25.49.44,1.01.71,1.48.28.49.61.95.94,1.41.25.34.51.69.81.98.19.18.48.26.73.39.32.16.64.32.95.5.33.19.52.51.72.82.1.15.24.28.33.48-.11-.05-.24-.08-.33-.16-.18-.15-.33-.34-.5-.49-.13-.11-.27-.25-.43-.29-.65-.18-1.2-.51-1.67-.98-.35-.35-.72-.69-1.04-1.07-.31-.36-.59-.75-.82-1.16-.26-.45-.45-.93-.66-1.4-.03-.06.01-.16.02-.24-.03-.02-.11-.07-.23-.13.08-.06.13-.1.23-.17-.34-.03-.5-.24-.59-.54,0,0,.05-.03.12-.08-.08-.06-.15-.12-.21-.16-.02-.24-.05-.48-.07-.72,0-.05.02-.1.04-.15.05.02.14.01.16.05.08.13.22.3.19.41-.05.19.08.2.15.28.06.06.11.15.11.23,0,.13-.03.26-.05.39.03,0,.06-.01.09-.02Z"/>
      <path class="cls-1" d="M33.06,18.86c-.33-.15-.65-.26-.94-.43-.28-.16-.54-.38-.78-.59-.3-.26-.59-.53-.84-.83-.61-.74-1.34-1.33-2.14-1.85-.1-.07-.14-.23-.23-.33-.08-.1-.18-.19-.29-.25-.17-.1-.34-.19-.4-.41-.02-.08-.16-.14-.29-.24.11-.11.19-.26.32-.31.19-.08.29.08.4.22.53.67,1.24,1.15,1.89,1.68.29.23.55.51.84.74.4.31.63.75.93,1.13.03.04.07.12.11.12.4.02.4.47.69.64.28.16.51.43.75.66,0,0,0,.03,0,.07Z"/>
      <path class="cls-1" d="M44.76,24.96c.02.24-.1.33-.44.24.03-.06.04-.15.08-.18.45-.32.79-.75,1.09-1.2.64-.97,1.61-1.52,2.54-2.14.26-.17.51-.32.88-.19-.39.31-.74.68-1.17.9-.57.3-1.03.69-1.46,1.14-.34.36-.68.73-1.04,1.08-.14.14-.32.23-.49.35Z"/>
      <path class="cls-1" d="M62.75,49.69c.06-.02.11-.03.16-.04,0-.01,0-.03,0-.04h-.39s0-.04-.01-.06c.11-.02.22-.05.34-.07-.08-.17-.15-.33-.23-.51.05-.03.14-.08.25-.13-.13-.06-.24-.11-.4-.18.18-.04.3-.07.47-.11.2.17.23.28.1.44.14.52.05,1.03.09,1.56-.16-.01-.31-.02-.56-.04.38-.24.24-.53.2-.8Z"/>
      <path class="cls-1" d="M30.62,24.05c-.02-.05-.04-.1-.07-.18.25.19.46.38.7.53.22.13.48.21.71.32.2.1.42.19.6.32.22.15.42.34.63.52-.01.02-.03.04-.04.06-.28-.16-.55-.33-.83-.49-.19-.11-.39-.21-.58-.31-.26-.14-.53-.29-.79-.43-.09-.05-.19-.06-.27-.12-.23-.17-.46-.36-.68-.54-.01-.01,0-.07.01-.08.03-.02.08-.04.1-.02.1.06.2.13.28.21.07.07.13.15.19.23,0,0,.02-.01.03-.02Z"/>
      <path class="cls-1" d="M6.92,40.68c-.04.21-.07.41-.11.62-.03.18-.03.37-.11.54-.06.12-.2.21-.3.31-.03-.02-.06-.04-.1-.07.19-.47.38-.94.57-1.42.02,0,.03,0,.05.01Z"/>
      <path class="cls-1" d="M62.86,52.56c.03-.5.05-1,.08-1.51.16.12.15.26.12.43-.05.36-.06.72-.09,1.08-.04,0-.08,0-.11,0Z"/>
      <path class="cls-1" d="M5.18,48.43c.04-.3.07-.59.1-.87.15.23.1.67-.1.87Z"/>
      <path class="cls-1" d="M34.22,26.21c.24.03.49.06.73.08,0,.04-.01.08-.02.13-.24-.04-.49-.07-.73-.11v-.1Z"/>
      <path class="cls-1" d="M65.27,81.89c.01.25-.09.31-.23.31-.04,0-.07-.06-.11-.09.1-.06.2-.12.34-.21Z"/>
      <path class="cls-1" d="M51.36,10.84h.89s0,.02,0,.03h-.89s0-.02,0-.03Z"/>
      <path class="cls-1" d="M32.6,13.72h-.37c.09-.08.14-.12.19-.16-.04-.05-.08-.1-.11-.16.02-.01.04-.03.06-.04.07.1.13.21.23.36Z"/>
      <path class="cls-1" d="M51.49,62.58c-.13.1-.21.17-.34.27.13.05.22.08.34.12-.05.06-.08.1-.11.14-.05.06-.11.11-.17.17.06.04.13.07.17.13.06.07.12.15.13.24.02.19,0,.38,0,.59,0,0-.05.03-.09.04-.29.08-.29.08-.19.35.02.05.02.11.01.17-.02.24-.05.48-.08.72,0,.03,0,.07,0,.1.13.48-.05.97,0,1.45.01.14.05.29.06.43,0,.05,0,.11-.02.16-.06.15-.11.3.01.45.03.03.02.12,0,.16-.16.26-.11.54-.07.81,0,.06.02.11.01.17-.08.79.15,1.56.16,2.34.01.9.14,1.79.23,2.68.04.43.1.85.13,1.28.02.21,0,.42,0,.68-.27-.11-.32-.24-.23-.35-.03-.16-.06-.26-.08-.36-.02-.12-.02-.24-.04-.35,0-.04-.05-.07-.05-.11.01-.25.03-.5-.34-.6.02-.01.05-.03.07-.04.06-.01.12-.03.19-.05v-.28c-.07.06-.13.11-.15.13-.1-.12-.18-.23-.27-.34h.32c-.07-.1-.1-.17-.16-.2-.06-.03-.15-.03-.16-.03.02-.14.03-.23.05-.31.05-.33-.03-.69.23-.98-.08.05-.16.11-.27.18-.05-.51-.07-1.01-.16-1.5-.13-.7-.06-1.4-.11-2.09-.02-.3.1-.58.06-.87-.04-.28-.09-.56-.14-.84,0-.03-.02-.07,0-.09.11-.18.19-.36-.03-.52,0,0-.01-.03-.01-.04.04-.18.11-.37.11-.55,0-.3.19-.61-.07-.9.26-.18.04-.29-.07-.44.22-.17.17-.36.03-.56.32-.22.13-.55.14-.83.05-.81.03-1.63.04-2.44,0-.44,0-.88,0-1.33,0-.05.03-.11.06-.15.08-.12.14-.23.03-.37-.02-.02-.03-.08-.02-.11.16-.31.07-.64.06-.96,0-.16.09-.32.14-.48.05-.17.17-.34.02-.43,0-.19,0-.32,0-.45,0-.1.05-.2.05-.31,0-.11-.03-.22-.04-.32,0-.05-.04-.1-.04-.15.03-.54.08-1.07.11-1.61.02-.43.02-.86.04-1.29,0-.03.01-.06.03-.09.2-.27.2-.38,0-.66.22-.31.21-.38-.03-.53.32-.26.21-.58.14-.91-.03-.13,0-.28,0-.42,0-.22.03-.44.03-.66,0-.05-.05-.09-.02-.13.02-.14.08-.3.05-.43-.04-.2-.08-.37,0-.57.04-.12-.02-.27,0-.4.04-.56.09-1.12.13-1.69,0-.08-.05-.17-.08-.26.03-.16.08-.35.08-.53,0-1.25,0-2.49,0-3.74,0-.31-.09-.61-.13-.92-.01-.08-.03-.16-.01-.23.04-.18.04-.31-.1-.46-.06-.06,0-.24.03-.37,0-.01.09-.01.16-.02.03-.5-.06-.99-.18-1.5-.12-.48-.14-.99-.18-1.48-.01-.15.08-.26.25-.25.1,0,.2-.02.3,0,.1.02.26.05.29.13.05.11.07.32,0,.38-.28.28-.21.61-.17.93.04.35.12.7.14,1.04.05.84.07,1.69.11,2.54,0,.19.08.37.09.56.02.62.02,1.24.04,1.87.02.55.07,1.1.1,1.65,0,.07-.03.14-.06.21,0,.03-.06.06-.05.07.16.46-.2.87-.12,1.33.04.22.06.44.06.66,0,.24-.06.49-.06.73-.01.35,0,.7,0,1.05,0,.54.03,1.09.03,1.63,0,.27-.05.55-.03.82,0,.23.08.45.11.68.03.17.04.34.1.52.02-.19.06-.38.07-.57.02-.4.03-.8.06-1.2,0-.07.07-.14.1-.21.03.07.08.14.08.21-.03.8-.07,1.6-.11,2.4,0,.18-.04.37-.09.54-.01.06-.1.1-.15.15-.04-.06-.11-.11-.11-.17,0-.12.02-.24-.02-.36-.05.25-.09.49-.14.76.35.04.32.28.28.5-.07.48-.16.95-.23,1.43-.01.08.05.17.09.26q-.24.25.15.52c-.16.06-.43-.07-.44.23-.01.28.25.11.38.23-.08.05-.14.1-.21.13-.23.08-.3.19-.23.43.09.33.03.65-.02.97-.02.15-.02.31-.04.46,0,.04-.05.08-.08.13.07.04.13.08.3.19-.12.1-.21.18-.29.25.17.11.17.13-.1.53.28.04.23.2.17.39-.03.11-.02.23-.03.35,0,.05.02.12,0,.14-.22.21-.13.34.14.45ZM50.88,70.92c-.05.17-.19.3,0,.46.07-.15.22-.28,0-.46Z"/>
      <path class="cls-1" d="M36.89,37.86c.15.03.18-.06.21-.18.06-.28.16-.35.38-.32.18.03.32.18.27.36-.13.43-.03.74.25,1.11.24.32.28.8.32,1.22.07.72.07,1.45.1,2.18,0,.03,0,.08.01.09.25.25.17.58.2.88.01.15,0,.31-.02.46-.03.3-.08.59-.09.89-.01.31,0,.62.02.92.04.72.08,1.43.12,2.15,0,.1-.03.2-.05.3-.02,0-.05,0-.07,0-.02-.09-.05-.18-.05-.28-.04-.87-.04-1.74-.12-2.6-.04-.51-.17-1.01-.12-1.54,0-.05-.1-.12-.16-.18.18-.15.22-.67.04-.87-.05-.05-.07-.14-.07-.22-.02-.37-.01-.74-.04-1.1-.05-.5-.12-1-.19-1.49-.05-.31-.12-.61-.2-.91-.02-.08-.09-.15-.16-.25-.03.41-.07.73-.07,1.06,0,.27.04.54.06.81.04.44.09.89.15,1.33.02.12.08.23.12.35.01.03.02.06.02.09.03.77.05,1.55.08,2.32.03.69.04,1.39.11,2.08.06.59.19,1.18.28,1.77.03.16.02.33.04.5.02.15.07.29.11.45-.18-.01-.18.13-.17.29.04.46.07.93.11,1.39h.06c.02-.09.04-.19.06-.28.02,0,.04,0,.06,0,0,.1.01.22-.03.3-.14.28-.09.55-.06.84.05.47.07.94.09,1.41,0,.09-.05.17-.08.29.22.3.22.33-.04.48.22.22.22.51.25.79.03.21,0,.43.02.65,0,.11.07.22.08.33.01.09,0,.18,0,.28.04.05.1.13.18.23-.09.02-.14.03-.23.05.25.16.32.33.13.49.05.18.12.32.12.47.02.34-.02.68.02,1.02.01.12.14.23.23.34.11.13.14.42.12.59-.02.32,0,.64,0,.97,0,.21.02.43.04.67-.1-.02-.17-.03-.27-.06.03.06.04.11.07.12.23.09.23.29.23.48,0,.77,0,1.55,0,2.32.17.07.3.12.43.17,0,.02-.01.04-.02.06-.11-.02-.22-.05-.32-.05-.04,0-.08.08-.12.12.21.13.12.37.14.54.06.53.05,1.06.06,1.6,0,.29,0,.57,0,.86,0,.14.05.29-.13.36-.02,0-.02.09-.02.13.01.49.03.99.03,1.48,0,.1-.08.2-.13.31.02.12.11.28.07.42-.09.38.06.74.04,1.11-.01.23.06.48-.12.68-.02.03,0,.14.01.14.26.08.15.27.11.41-.1.27-.07.53.02.79,0,.03.03.07.02.09-.19.51.07,1.02-.02,1.53-.03.19.06.4-.13.56-.01.01-.02.05-.01.07.07.38-.04.77.04,1.14.02.1.06.2.1.29.05.11-.12.9-.1.94.07.13.28.21.07.4-.03.03.03.16.03.25,0,.14,0,.28,0,.47,0,.08.08.23.03.34-.15.39-.02.76,0,1.14.02.45.16.93.04,1.33-.12.4-.02.76-.06,1.22-.06-.1-.1-.14-.1-.18-.04-.43-.1-.86-.1-1.29,0-.47-.02-.94-.1-1.41-.02-.11.01-.22,0-.33-.04-.85-.08-1.71-.11-2.56-.02-.6-.04-1.19-.06-1.79-.02-.49-.05-.99-.08-1.48-.01-.25-.04-.51-.03-.76,0-.1.1-.2.16-.31-.25-.05-.21-.25-.21-.46,0-.56-.04-1.12-.07-1.67-.03-.51,0-1.01.27-1.47.13-.22.03-.36-.19-.43.23-.68.03-1.35,0-2.02-.01-.31-.14-.63.08-.92.01-.01,0-.04,0-.06-.02-.3-.04-.59-.06-.89,0-.12-.04-.23-.05-.35-.01-.23,0-.46-.02-.69-.04-.55-.1-1.11-.14-1.66-.01-.17,0-.35,0-.53-.08-.02-.15-.04-.22-.06,0-.01,0-.03,0-.04.05-.01.09-.02.14-.04.11-.05.18-.12.11-.26-.23-.49-.22-1.02-.25-1.55,0-.07.08-.14.09-.21.01-.14.1-.3-.03-.44-.02-.02-.03-.08-.01-.12.16-.39.07-.82.22-1.21.03-.08-.02-.2-.04-.31-.03,0-.06,0-.09,0-.02.25-.05.49-.07.74-.03,0-.06,0-.09,0-.01-.11-.03-.23-.04-.34-.05-.38-.1-.77-.14-1.15-.02-.21-.07-.4.11-.61.08-.1.24-.35,0-.59-.12-.13-.06-.42-.11-.63-.24-.91-.22-1.84-.27-2.77-.02-.28-.02-.56-.05-.83-.01-.09-.1-.17-.16-.25.23-.34.22-.61.03-.72.04-.12.1-.23.1-.33-.03-.51-.07-1.02-.13-1.52-.03-.25-.11-.49-.14-.74-.02-.18,0-.36,0-.54.02-.59.06-1.18.07-1.77,0-.16-.11-.31-.13-.47-.06-.82-.09-1.64-.18-2.46-.06-.57-.22-1.13-.3-1.7-.06-.39-.06-.79-.08-1.19-.02-.46-.03-.92-.05-1.38,0,0,0,0,0,0ZM39.05,63.82s.05,0,.07,0c.03-.84.05-1.69.08-2.57-.05,0-.15-.03-.18,0-.04.05-.05.14-.05.22,0,.07.03.14.03.21,0,.51,0,1.01.02,1.52,0,.2.02.41.03.61ZM38.31,55.98c.06.4.1.72.16,1.11.07-.11.14-.18.14-.24-.02-.21-.06-.42-.11-.63-.02-.08-.1-.14-.18-.24ZM38.96,59.7s-.05,0-.07,0v.45s.05,0,.07,0v-.45Z"/>
      <path class="cls-1" d="M37.03,43.42c-.1.25-.15.54-.31.74-.24.31-.37.61-.36,1,0,.46-.07.92-.09,1.38-.02.48-.02.97-.04,1.45,0,.2-.05.4-.05.6,0,.18.03.36.06.61,0,.1-.03.29-.03.48,0,.18.02.37,0,.55-.03.27-.02.53.12.77.02.04.05.1.04.13-.22.39-.1.83-.16,1.24-.08.56-.15,1.12-.18,1.68-.04.87-.05,1.75-.05,2.63,0,.54-.01,1.08-.26,1.58-.08.17-.05.39-.06.59-.02.3-.02.6-.05.89-.02.17-.11.31-.06.5.03.11,0,.27-.17.36-.14.07-.16.19,0,.22-.01.12-.05.23-.03.33.04.25.11.49-.08.71-.01.01-.01.05,0,.07.25.52.02,1.04-.02,1.55-.02.23-.14.45-.21.67-.02.05-.03.11-.02.16,0,.21.04.43.03.64-.05.72-.13,1.43-.19,2.15-.02.25.01.51.01.77,0,.08-.03.17-.05.25-.07-.07-.14-.13-.21-.2,0,0,0-.03-.06-.03.03.13.05.27.08.4.04.19.05.37,0,.58-.08.38-.12.77-.12,1.16,0,.21-.1.28-.27.33-.15.04-.3.08-.44.17.07,0,.15,0,.22,0,.24-.04.37.11.37.3,0,.5-.04,1.01-.06,1.51-.03,0-.05,0-.08,0,0-.31-.03-.62,0-.93.05-.42-.04-.48-.33-.63-.12-.07-.29-.09-.25-.29.03-.19.19-.24.35-.28.1-.03.2-.06.28-.13-.14-.02-.27-.04-.46-.06.19-.28-.02-.58.18-.83.05-.06-.03-.21-.03-.32,0-.18,0-.36,0-.54.02-.44.06-.87.08-1.31,0-.16,0-.32.02-.48.04-.68.06-1.36.11-2.05.03-.48.09-.96.14-1.44,0-.06.03-.15,0-.18-.28-.27.03-.49.06-.73.01-.07.05-.13.06-.2.13-.96.27-1.92.38-2.89.05-.4,0-.81.05-1.21.12-.77.28-1.54.42-2.31.22-1.2.41-2.39.35-3.62,0-.14.04-.28.05-.43.01-.13.05-.26.03-.38-.03-.25-.09-.5-.14-.75,0-.03-.01-.06-.01-.09.1-1.02.21-2.05.32-3.07.03-.32.06-.64.1-.95.05-.46.09-.92.16-1.37.02-.13.15-.23.18-.36.1-.43.35-.78.63-1.11.03.01.06.02.09.03Z"/>
      <path class="cls-1" d="M52.46,41.05c0-.07-.01-.13-.02-.2-.03-.7-.06-1.4-.1-2.1-.01-.2-.06-.39-.08-.59,0-.09,0-.18.01-.33-.04-.03-.14-.1-.27-.2.35,0,.39.03.45.34.16.87.23,1.75.18,2.64,0,.14-.06.29-.09.43-.03,0-.06,0-.09,0Z"/>
      <path class="cls-1" d="M52.31,47.5v-2.03c.14.67.37,1.35,0,2.03Z"/>
      <path class="cls-1" d="M52.5,43.75c-.3-.5-.22-1.03-.08-1.55.18.51,0,1.04.08,1.55Z"/>
      <path class="cls-1" d="M47.73,83.34c-.09-.21-.19-.4-.25-.59-.03-.08.02-.19.03-.3.27.19.3.3.22.9Z"/>
      <path class="cls-1" d="M45.45,86.55c.23.21.45.43.68.64-.03.03-.05.06-.08.09l-.7-.62s.07-.07.11-.11Z"/>
      <path class="cls-1" d="M52.47,42.1v-.95c.16.12.17.7,0,.95Z"/>
      <path class="cls-1" d="M52.33,47.97v1.05s-.04,0-.07,0v-1.05s.04,0,.07,0Z"/>
      <path class="cls-1" d="M46.69,88c-.26-.12-.53-.24-.79-.36.02-.04.03-.07.05-.11.26.13.52.26.78.39-.01.03-.02.05-.04.08Z"/>
      <path class="cls-1" d="M47.67,81.94c-.06.15-.11.29-.17.44-.03-.01-.06-.03-.1-.04.03-.16,0-.35.19-.44.03.01.05.03.08.04Z"/>
      <path class="cls-1" d="M18.47,43.32c.13.03.19.04.25.05,0,.03.02.06.01.07-.1.19-.07.37-.05.57.02.16-.03.34-.1.49-.08.16-.08.3-.02.45.05.11.12.22-.03.32-.02.02-.01.13.02.17.13.16.09.29,0,.45-.05.08-.07.22-.03.28.06.09.19.12.13.26-.04.1-.08.2-.14.27.06.17.17.43-.07.63.23.2.04.45.07.68,0,.05-.03.12,0,.15.13.19.06.3-.14.35.17.21.17.33.03.4.15.21.29.43.46.67-.1,0-.19.01-.24.02.12.29-.06.55-.12.85.2.07.21.23.17.45-.06.33-.09.66-.1.99,0,.17.08.34.08.52,0,.12-.06.24-.08.37-.02.15-.03.31-.04.47,0,.06.03.17,0,.18-.34.2-.08.47-.1.71-.02.27.16.56-.08.81-.01.01.02.06,0,.09-.07.2.18.39-.04.64-.13.15.15.25.32.28-.1.1-.21.19-.3.28.17.34.11.68-.17.82.11.1.22.2.3.28-.04.11-.08.21-.12.33-.05,0-.13.01-.26.02.12.09.21.15.31.23-.06.05-.12.09-.18.14.04.05.08.09.14.16-.09.02-.16.04-.26.07.1.13.2.25.31.38-.14.03-.25.05-.41.09.14.09.23.15.35.22-.13.05-.23.09-.33.14.12.1.23.19.38.32-.14-.01-.2-.02-.3-.03.05.22.09.41.14.61-.12.03-.2.06-.31.09.13.07.23.13.39.22-.29.07-.29.25-.29.43,0,.02,0,.04,0,.04.33.21-.01.3-.1.45.06.04.12.07.18.11,0,.02-.02.04-.03.06-.03.1-.11.16-.07.32.05.21-.07.48-.13.71,0,.04-.07.06-.06.06.02.76-.01,1.47-.3,2.15-.16-.12-.18-.75-.02-.95-.04-.03-.09-.07-.14-.11.06-.08.11-.15.15-.22-.02,0-.05,0-.07,0,.01-.22.02-.43.04-.69.01,0-.04-.02-.06-.03.07-.27.14-.53.21-.82-.11-.14-.1-.28.09-.39-.19-.16-.19-.39,0-.58-.23-.2-.23-.27-.05-.36-.02-.26-.04-.5-.06-.78,0,0-.04-.02-.1-.06.08-.07.16-.13.23-.19,0-.21-.2-.44.06-.61-.05-.08-.14-.16-.13-.22.05-.29.13-.57.19-.85.01-.05.03-.15,0-.16-.28-.15-.1-.4-.14-.61-.02-.11-.02-.23-.03-.35,0-.06-.03-.14,0-.19.1-.22.04-.43.03-.65-.01-.29.08-.58.13-.85,0-.15-.02-.27,0-.39.01-.1.09-.19.1-.29,0-.1-.03-.2-.06-.3-.01-.04-.09-.08-.08-.11.09-.29.02-.59.04-.89.02-.23.14-.45.04-.69-.01-.03-.02-.06-.02-.09.03-.27.12-.54.09-.8-.05-.35.19-.71-.07-1.04-.02-.03-.01-.11.01-.13.17-.14.11-.27,0-.4.1-.16.25-.32-.01-.45.23-.36.24-.59.02-.82.05-.02.1-.04.1-.04.03-.25.06-.46.09-.72-.17-.17-.15-.34.1-.49-.06-.07-.16-.13-.17-.21-.01-.08.05-.17.05-.26.02-.15.05-.29.05-.44,0-.17-.02-.33-.02-.5,0-.09.03-.19.01-.27-.03-.19-.14-.37.02-.57.04-.05-.09-.25-.16-.42,0,0,.07-.02.1-.07.04-.06.08-.16.05-.21-.09-.2-.1-.2,0-.38-.25-.23-.08-.49-.06-.76-.05-.03-.11-.06-.17-.09.11-.09.24-.16.31-.27.06-.1.04-.24.05-.36,0-.44,0-.88.01-1.32,0-.58,0-1.15,0-1.73,0-.25.11-.4.33-.5.03.17.05.33.09.48.02.07.08.12.1.18.04.13.12.3.08.41-.21.58-.22,1.15-.12,1.75.06.33-.05.69-.1,1.04-.02.16-.08.31-.13.49Z"/>
      <path class="cls-1" d="M40.74,34.86c.07-.05.09-.08.17-.14-.39.02-.73.05-1.07.07-.24.01-.49.02-.73.03-.14,0-.29,0-.43,0-.15,0-.3,0-.45-.02-.42-.03-.83-.08-1.25-.08-.14,0-.29.09-.44.15-.19.08-.3.03-.36-.17-.02-.05-.07-.1-.12-.15.24-.22.5-.33.82-.3.39.03.79,0,1.18.02.67.04,1.33.11,2,.18.89.08,1.78.14,2.63-.24.12-.05.25-.06.4-.09-.18.53-1.68.8-2.36.76Z"/>
      <path class="cls-1" d="M38.14,8.53c-.08-.06-.19-.11-.25-.2-.28-.45-.56-.91-.8-1.38-.17-.31-.3-.65-.42-.98-.17-.47-.3-.96-.45-1.44-.05-.17-.08-.35-.14-.51-.04-.1-.12-.18-.19-.27-.02-.03-.07-.05-.08-.08-.08-.27-.15-.55-.24-.88.34.23.62.42.88.59.08.27.17.54.25.82.02.06.01.13.01.2,0,.19,0,.38.2.5.03.02.08.08.07.1-.09.22.06.38.13.56.2.6.4,1.2.61,1.79.05.13.11.26.17.39.11.24.21.48.32.71-.02.02-.04.04-.07.06Z"/>
    </g>
  </g>
</svg>