<?xml version="1.0" encoding="UTF-8"?>
<svg id="Layer_2" data-name="Layer 2" xmlns="http://www.w3.org/2000/svg" viewBox="0 0 60.79 54.9">
  <defs>
    <style>
      .cls-1 {
        fill: #000;
        stroke-width: 0px;
      }
    </style>
  </defs>
  <g id="illustrations">
    <g>
      <path class="cls-1" d="M.05,26.66c.12.31.23.62.35.93.09.21.18.43.28.63.1.2.23.39.3.6.2.58.35,1.17.56,1.75.17.48.37.95.56,1.42.13.33.18.7.43.98.02.02.03.06.03.1.05.49.1.98.34,1.42.2.37.34.76.53,1.13.45.9.74,1.89,1.51,2.6.32.3.63.62.99.87.4.27.84.49,1.28.68.43.19.81.48,1.29.58.42.09.81.32,1.23.47.33.11.67.19,1.01.28.49.13.97.28,1.47.36.68.12,1.37.17,2.05.27.55.08,1.07-.06,1.57-.28-.08-.03-.16-.03-.24-.03-.23,0-.47,0-.7.03-.85.09-1.64-.17-2.44-.36-1.04-.24-2.06-.58-3.09-.86-.53-.15-.89-.46-1.06-.98-.12-.36-.24-.72-.38-1.07-.16-.41-.35-.81-.52-1.21-.1-.24-.18-.49-.28-.73-.09-.21-.22-.41-.31-.63-.17-.43-.32-.86-.5-1.29-.14-.35-.31-.69-.46-1.04-.05-.11-.06-.24-.11-.35-.07-.16-.17-.3-.23-.46-.06-.15-.09-.31-.14-.46-.12-.36-.24-.72-.37-1.08.08.06.17.12.26.19,0-.04.02-.08.01-.1-.06-.13-.18-.27.03-.38.01,0,.01-.05,0-.07-.14-.31-.21-.69-.43-.92-.29-.31-.26-.76-.58-1.02-.01-.01,0-.05,0-.07-.02-.1-.03-.2-.06-.29-.12-.31-.26-.62-.37-.89.61,0,1.22,0,1.83,0,.16,0,.22.06.27.2.19.48.39.97.6,1.44.26.57.55,1.12.8,1.68.23.52.64.88,1.06,1.25-.49-1.5-.99-3.01-1.49-4.53.24-.01.46-.05.68-.03.48.04.6.14.66.49.19,1.09.39,2.17.56,3.27.11.73.18,1.48.27,2.21.01.11.04.22.06.33.04,0,.08-.01.11-.02-.18-1.85-.37-3.7-.55-5.56.02,0,.05,0,.07,0,.02.17.04.34.06.5.15,1.11.56,2.16.73,3.27.06.36.18.7.25,1.06.08.4.15.81.22,1.22.15.95.49,1.84.95,2.68.1.19.21.39.52.39-.03-.2-.03-.41-.09-.59-.06-.2-.19-.38-.25-.59-.17-.61-.33-1.22-.48-1.84-.18-.69-.36-1.39-.53-2.08-.25-1-.5-1.99-.75-2.99-.02-.1-.02-.21-.05-.3-.15-.44-.31-.87-.49-1.34.11,0,.18-.01.24,0,.53.11,1.05.22,1.58.35.16.04.31.12.46.18.13.06.25.16.38.17.19.02.55.27.61.45.1.32.22.63.34.97.11-.07.2-.12.29-.18.16.27-.1.26-.21.37.06.08.11.19.2.24.12.07.12.14.08.25-.09.23,0,.34.24.32.05.09.11.18.14.27.07.2.16.4.17.6.02.43.19.78.42,1.13-.03-.21-.08-.42-.14-.62-.04-.15-.16-.29-.14-.43.03-.28.02-.54-.07-.81-.05-.16.03-.28.24-.22-.02.08-.03.15-.05.25.26-.14.26-.26.02-.44.03-.07.09-.14.08-.19-.09-.36-.19-.72-.3-1.08-.02-.06-.07-.11-.1-.17-.11-.16-.22-.33-.33-.5.17-.12.36.28.49-.13.08.14.15.22.17.31.15.65.33,1.29.43,1.95.15.99.24,1.99.36,2.98.02.19.06.37-.11.44.12.18.24.35.35.52.07-.09.08-.16.08-.23-.02-.28-.05-.56-.07-.84-.11-1.2-.19-2.41-.48-3.58-.03-.13-.13-.25-.11-.37.05-.35-.23-.6-.26-.92,0-.05-.05-.09-.07-.14.06-.01.12-.04.18-.04.14,0,.29.06.42.03.31-.06.61-.15.92-.24.04-.01.05-.13.1-.24.27,0,.58,0,.89,0,.06,0,.14,0,.19-.05.25-.23.25-.43-.02-.63-.13-.1-.26-.25-.4-.27-.31-.04-.63-.01-.95-.01,0-.09.02-.16,0-.18-.28-.21-.49-.51-.9-.53-1.01-.04-1.95-.41-2.9-.73-.87-.29-1.7-.71-2.56-1.04-.37-.14-.77-.28-1.16-.29-.44-.01-.77-.18-1.08-.45-.33-.28-.68-.55-1.01-.83-.26-.22-.57-.41-.76-.69-.15-.21-.34-.36-.5-.55-.3-.34-.75-.56-.91-1.03-.08-.23-.23-.43-.28-.66-.07-.33-.08-.67-.11-1.01-.03-.35.02-.65.35-.87.18-.12.33-.27.49-.41,0-.02,0-.03,0-.05-.24.04-.48.08-.72.12.06-.07.14-.1.22-.13.28-.13.57-.23.82-.4.34-.22.64-.5.96-.74.03-.03.16,0,.18.03.25.45.8.61,1.04,1.07.01.03.06.04.08.05.14.07.28.13.42.22.22.14.42.33.66.42.29.11.53.25.71.51.05.07.13.14.21.18.3.16.61.3.92.45.09.04.2.1.29.09.57-.07,1.05.25,1.55.4.75.23,1.45.6,2.17.93.31.14.6.3.89.48.28.18.62.19.92.35.5.27,1.06.42,1.59.62.25.09.49.21.74.28.23.06.24.05.56.27.1.07.24.08.37.12,0-.02.01-.03.02-.05-.07-.05-.14-.11-.21-.16.21-.07.32-.02.46.21.32-.09.49-.05.51.14.02.13.02.27,0,.4-.04.44.03.64.21.95.14.25.51.42.35.81,0,.01.03.04.03.06.03.22.06.43.08.65,0,.03-.06.09-.11.1-.49.12-.98.22-1.47.34-.12.03-.24.1-.32.19-.16.19-.28.41-.43.6-.14.17-.37.29-.47.48-.14.29-.45.54-.29.93.01.03-.02.09-.05.12-.27.32-.24.71-.29,1.09-.06.41-.04.82.02,1.23.05.35.03.7.27,1.02.08.1.34.31.07.52-.01,0,.04.1.07.18.03-.09.06-.15.08-.21.04.03.07.05.11.08-.03.09-.05.19-.08.28-.06.18.03.3.17.38.12.07.25.13.37.21.28.17.56.34.85.51-.04.08-.08.14-.11.21.2.08.38.15.56.22.19.07.4.1.58.19.16.08.27.24.42.34.05.04.14.03.14.03.39.29.8.41,1.18.6.39.2.78.41,1.19.57.4.16.83.25,1.25.37.41.12.82.23,1.19.33-.03.14-.11.29-.1.43.07.85.17,1.69.23,2.53.04.63.03,1.26.04,1.89,0,.27.02.53.04.8.03,0,.06,0,.09,0,.01-.12.03-.25.04-.37.03,0,.05,0,.08,0l.06.95c-.15-.13-.24-.26-.32-.4-.07-.12-.16-.25-.18-.39-.21-1.04-.41-2.09-.62-3.14-.08-.39-.17-.78-.29-1.16-.08-.24-.22-.46-.48-.65-.07.31-.12.57-.18.86-.05-.3-.09-.55-.14-.79,0-.04-.1-.11-.14-.1-.05.01-.13.08-.13.13-.01.15,0,.31.01.46.08.51.16,1.02.25,1.53.1.04.2.1.21.18.06.37.13.74.15,1.11.02.33.12.68-.03,1,.2.18.3.85.16,1.16-.07-.36-.14-.69-.2-1.02-.03,0-.05,0-.08,0,0,.07-.01.15,0,.22.04.17.09.34.13.51.03.12.02.29.09.34.25.17.14.38.12.58,0,.08,0,.15,0,.23.06.62.12,1.24.17,1.87.08,1.06.16,2.11.24,3.17.04.57.26,1.12.14,1.71-.02.07.03.17.08.24.25.31.57.54.98.7,0-.12.02-.22,0-.3-.13-.37-.02-.74-.02-1.12,0-.3-.06-.6-.1-.9-.03-.2-.1-.4-.11-.6-.06-.82-.07-1.64-.18-2.45-.1-.74-.05-1.46.02-2.19.03,0,.05,0,.08-.01.08-.02.16-.05.24-.07-.05-.06-.1-.13-.13-.2-.09-.16-.21-.31-.08-.53.1.11.18.23.2.36.02.22.19.44.04.67-.03.05-.11.08-.13.13-.09.24.06.65.28.81.12.09.25.62.19.75-.04.1-.05.22-.06.33,0,.12,0,.24,0,.3.06.18.12.3.14.42.11.58.23,1.15.3,1.74.11.91.17,1.82.26,2.73.02.17,0,.36.08.5.15.28.35.53.49.74-.3-.11-.67-.32-1.06-.39-.76-.13-1.41-.46-2.06-.87-.46-.29-.97-.49-1.46-.73-.02-.01-.06,0-.14.01.29.23.54.42.8.62-.02.03-.03.05-.05.08-.11-.04-.24-.07-.34-.14-.4-.29-.68-.67-.8-1.16-.06-.23-.02-.48-.06-.71-.08-.54-.28-1.06-.39-1.6-.16-.82-.28-1.65-.43-2.47-.1-.58-.23-1.15-.33-1.73-.12-.68-.2-1.37-.33-2.05-.1-.55-.29-1.08-.36-1.63-.04-.34-.36-.6-.24-.98.03-.1-.03-.25-.07-.37-.09-.29-.2-.57-.28-.85-.14-.47-.17-.96-.42-1.41-.26-.48-.4-1.03-.6-1.54-.02-.05-.1-.11-.16-.11-.09,0-.18.02-.27.05-.14.04-.23.11-.15.28.04.09.04.2.05.3,0,.25,0,.51,0,.76,0,.14-.02.28,0,.42.03.17.1.34.15.51.07.28.18.55.2.84.01.17.15.18.19.28.09.28.16.57.24.85.04.15.08.29.12.44.08.28.17.55.22.83.05.31.04.63.08.94.04.3.12.59.18.87-.02.04-.06.09-.06.13.02.23.03.46.07.69.12.68.21,1.37.38,2.04.17.65.46,1.28.64,1.93.21.76.38,1.54.52,2.32.07.39.22.74.37,1.09.08.19.18.38.32.53.19.21.43.36.62.57.95,1.03,2.14,1.67,3.44,2.12.91.32,1.84.58,2.76.87.45.14.89.36,1.34.4.53.04,1.02.16,1.53.27.07.02.15,0,.29,0-.15-.11-.23-.18-.34-.27.17-.05.3-.12.43-.12,1.11-.06,2.22-.09,3.33-.17.99-.07,1.97-.17,2.96-.27.37-.04.75-.08,1.11-.17.51-.13,1.01-.29,1.5-.46.34-.11.69-.2.99-.38.32-.19.72-.3.85-.73.06-.19,0-.25-.15-.25-.17,0-.36-.1-.52.05-.03.03-.13-.03-.2-.04.04-.05.09-.15.11-.14.21.05.34-.09.43-.22.12-.19.44-.09.47-.39.02-.15.11-.29.17-.43.13-.27.14-.57.23-.85.06-.19-.09-.46.23-.55.01,0,0-.05.01-.07.03-.23.07-.47.1-.7-.05,0-.1.02-.16.03.15-.23.28-.43.06-.61.05-.13.1-.22.12-.31.05-.32.23-.61.12-.95-.01-.04.09-.12.14-.18-.12-.16-.13-.29.11-.34.01-.29-.04-.58.19-.8.02-.02.02-.06.03-.1.04-.35-.01-.73.25-1.02,0-.01.01-.04,0-.05-.13-.19,0-.35.03-.53.1-.45.18-.9.28-1.35.11-.49.22-.98.34-1.47.1-.4.2-.79.3-1.18.04-.17.09-.33.12-.5.02-.11.02-.22.03-.33.03-.25.27-.36.39-.55.06-.09.15-.16.23-.24.02.02.04.04.07.06-.09.15-.2.3-.26.46-.06.14-.07.3-.11.44-.12.43-.24.85-.36,1.28,0,.03.02.09.05.1.03.01.1,0,.11-.02.05-.07.13-.18.11-.24-.08-.21.04-.34.13-.48.03-.05.07-.13.05-.15-.16-.21,0-.3.13-.41.04-.03.07-.08.08-.13.1-.44.2-.88.3-1.32.02-.11.05-.21.08-.32-.03-.01-.06-.02-.1-.03-.08.21-.15.43-.24.66-.07.02-.17.05-.27.08-.02-.11-.04-.22-.06-.34-.09.02-.15.04-.29.08.09-.16.12-.3.2-.34.22-.09.27-.24.27-.44,0-.07.04-.15.07-.22.1-.22.21-.44.31-.67.09-.2.19-.37.49-.34-.06-.1-.1-.17-.15-.24.03-.03.04-.05.06-.06.36-.09.56-.36.76-.64.17-.24.09-.48-.19-.6-.22-.09-.41-.04-.6.09-.09.06-.23.05-.35.07,0-.11-.02-.22,0-.32.12-.49.24-.97.12-1.48-.07-.29-.25-.44-.5-.55-.2-.09-.39-.21-.57-.32-.14-.08-.17-.18-.02-.3.06-.04.09-.12.13-.18.19-.28.32-.63.65-.79.3-.15.41-.37.36-.68,0-.01.01-.03.02-.04.01.02.02.04.03.05.1-.06.2-.11.33-.19-.2-.17-.27-.35-.11-.52.25-.28.12-.6.12-.91,0-.41-.46-.68-.3-1.1-.1,0-.2.05-.24.01-.1-.09-.18-.2-.26-.31-.37-.52-.8-.97-1.31-1.35-.34-.25-.63-.6-1.08-.67-.03,0-.05-.08-.11-.17.49.02.75-.28,1.03-.56.08-.08.25-.14.37-.13.38.02.77.05,1.14.12.32.06.7-.11.97.21.01.02.08-.01.12-.02-.02-.03-.04-.06-.08-.1.1.02.17.03.27.05-.11.25-.21.48-.3.71-.04.09-.06.18-.09.27.02,0,.04.01.05.02-.05.05-.11.1-.18.16.29.17.59.12.88.09.05,0,.11-.03.13-.07.15-.22.38-.27.62-.29.46-.04.93-.08,1.4-.12-.08.52-.03.66.18.73,0,.18.03.34.02.49-.01.41-.05.82-.05,1.22,0,.37.07.74.05,1.11-.05.89-.14,1.78-.22,2.67-.04.43-.04.87-.12,1.3-.04.21,0,.3.23.33-.07.11-.14.2-.19.3-.02.05,0,.11,0,.17.05-.02.1-.03.14-.06.05-.05.07-.11.11-.16.03.02.05.03.08.05-.16.3-.32.6-.49.92.09-.01.18-.02.3-.04-.04.23.08.3.29.3.07-.47.15-.94.21-1.41.03-.24.03-.49.04-.74.01-.42,0-.84.04-1.25.04-.42.14-.84.2-1.27.05-.36.04-.74.13-1.09.12-.44.01-.89.18-1.34.11-.29-.02-.68-.04-1.02-.02-.34-.06-.68-.06-1.02,0-.31.07-.34.37-.25.27.08.54.18.79-.07.02-.02.07-.03.09-.02.15.09.23-.02.32-.11.04-.04.11-.08.17-.1.19-.06.39-.13.59-.17.44-.09.89-.17,1.4-.27-.07.35-.12.64-.18.92-.24,1.03-.46,2.06-.73,3.07-.21.75-.5,1.47-.74,2.21-.02.07.02.17.03.25.08-.05.19-.07.24-.14.07-.11.11-.25.15-.37.15-.49.28-.98.46-1.46.17-.47.25-.97.5-1.42.11-.2.13-.46.18-.69.18-.78.35-1.57.53-2.35.01-.06.1-.15.15-.16.48-.04.96-.06,1.43-.09.31-.02.62-.07.94-.1.09.85-.33,1.65-.45,2.51.12-.05.25-.11.3-.21.12-.28.24-.57.31-.87.1-.41.15-.84.24-1.26.02-.08.13-.18.21-.19.37-.06.74-.1,1.11-.12.43-.03.65.29.46.68-.03.05-.05.11-.07.16-.45,1.39-.9,2.79-1.35,4.18-.36,1.11-.69,2.22-1.06,3.33-.24.72-.54,1.42-.77,2.14-.13.4-.3.77-.51,1.13-.18.32-.32.65-.49.98-.05.09-.12.19-.21.25-.16.12-.33.25-.51.34-.28.14-.58.25-.86.39-.76.37-1.51.76-2.26,1.13-.07.04-.17.03-.25.02-.35-.02-.7-.09-1.04-.07-.82.05-1.64.13-2.46.2-.14.01-.28.02-.41.03,0,.03-.01.06-.02.09.15.05.29.12.44.13.31.02.63.04.94.01.24-.02.46-.14.7-.19.06-.01.14.03.17.04.3-.07.59-.14.89-.21l.02.07c-.07.04-.14.07-.21.11,0,.02,0,.05,0,.07.09,0,.18.02.26-.02.26-.12.52-.19.78-.02.18.12.36.19.58.13.44-.13.89-.25,1.33-.38.09-.03.19-.15.26-.13.2.05.31-.03.43-.15.05-.04.12-.06.18-.09.44-.17.89-.29,1.3-.5.43-.22.87-.46,1.08-.93.05.01.08.02.1.03.27.14.44.12.56-.05.16-.23.13-.53-.05-.71-.09-.09-.13-.22-.19-.34-.05,0-.13.01-.24.02.08-.2.14-.35.2-.51.15-.42.29-.84.46-1.26.03-.08.17-.12.27-.19-.01-.01-.07-.06-.08-.08.02-.14,0-.28.06-.36.12-.19,0-.42.19-.63.16-.17.34-.41.3-.73-.02-.21.09-.44.16-.66.04-.12.11-.24.16-.33.1-.07.26-.13.29-.23.07-.19.07-.4.1-.61.03.03.06.06.07.08.06-.24.12-.48.19-.71.06-.21.13-.42.21-.66.02-.01.09-.04.19-.09-.08-.06-.13-.09-.19-.14.06-.06.14-.1.16-.15.15-.49.29-.98.45-1.47.04-.12.12-.22.18-.33l.03.02v-.44c.07.02.11.03.17.05.03-.09.05-.18.08-.27-.02-.02-.04-.04-.06-.06-.07-.11-.07-.23-.05-.35.09-.52.32-1,.56-1.47.16-.49.34-.98.5-1.47.03-.1.04-.21.04-.31,0-.28-.17-.47-.36-.62-.28-.22-.59-.42-.9-.61-.04-.02-.11.01-.17.03-.22.07-.44.14-.66.2-1.04.27-2.1.49-3.13.81-.85.26-1.7.44-2.58.54-.56.06-1.11.12-1.67.17-.55.05-1.09.28-1.67.15-.2-.05-.43.02-.65.03-.04,0-.08,0-.12-.02-.15-.03-.3-.04-.45-.08-.11-.03-.21-.1-.32-.15-.06-.02-.13-.04-.2-.04-.12.01-.25.07-.37.06-.71,0-1.42-.03-2.13-.04-.51,0-1.02,0-1.52,0-.17-.42-.34-.88-.55-1.4.79.33,1.52.64,2.25.95l.03-.04c-.08-.12-.17-.24-.27-.39.1.02.16.03.29.06-.47-.27-.96-.37-1.32-.72l.34.05s.03-.05.04-.08c-.06-.04-.13-.08-.21-.13.07-.04.12-.06.25-.13-.27-.13-.47-.26-.68-.32-.38-.11-.76-.18-1.15-.27-.27-.07-.34-.2-.26-.44.02-.05,0-.12-.04-.16-.17-.28-.39-.55-.52-.85-.09-.2-.22-.31-.4-.4-.04-.02-.08-.06-.12-.1-.38-.33-.75-.68-1.16-.99-.31-.23-.66-.4-1.01-.6.04-.03.08-.06.13-.1-.28-.13-.54-.25-.81-.37-.4-.18-.79-.42-1.21-.52-.86-.19-1.66-.48-2.34-1.04-.17-.14-.32-.3-.52-.48.41-.06.76-.38.76-.68,0-.32-.05-.64-.14-.95-.16-.57-.37-1.12-.56-1.67.11-.02.22-.05.37-.08-.13-.07-.2-.1-.27-.14-.21-.11-.43-.21-.64-.33-.06-.04-.11-.1-.16-.16-.08-.1-.15-.21-.24-.29-.17-.16-.37-.3-.53-.48-.07-.07-.1-.21-.09-.31.02-.24.12-.47.12-.7-.02-.74.19-1.49-.18-2.22-.08-.15-.11-.26-.26-.29-.27.2-.36.46-.33.79.06.73-.19,1.4-.41,2.1-.12-.09-.19-.22-.29-.3-.47-.32-.95-.63-1.43-.94-.27-.18-.55-.35-.82-.54-.14-.09-.26-.2-.39-.31l-.08.07c.04.07.07.14.12.2.1.12.17.22.18.4.01.22.12.47.26.64.14.18.37.31.58.43.37.23.75.45,1.15.68-.36,0-.68,0-1,0-.16,0-.44,0-.45.06-.07.33-.34.31-.56.34-.65.09-1.3.19-1.96.16-.22-.01-.5.34-.49.56,0,.05.03.11.06.13.23.17.46.3.77.26.37-.05.75-.06,1.19-.09-.15.32-.26.65-.45.92-.22.31-.2.65-.23.98-.01.13-.03.2-.13.26-.4.22-.8.43-1.19.66-.45.27-.87.57-1.33.83-.19.11-.28.24-.35.44-.11.34-.27.67-.45,1.09.12.36.28.85.42,1.34.03.09-.04.26-.11.32-.12.1-.29.13-.46.21-.32-.9-.95-1.43-1.73-1.81-.62-.31-1.24-.62-1.88-.88-.52-.21-1.07-.41-1.62-.47-1.29-.14-2.6-.2-3.9-.28-.57-.04-1.14.02-1.68-.23,0-.02,0-.05,0-.07.15,0,.3.02.48.03-.03-.07-.04-.18-.1-.21-.15-.08-.32-.15-.48-.16-.5-.04-.97-.15-1.39-.44-.02-.01-.05,0-.14-.02.14.12.23.19.32.27l-.07.08c-.36-.35-.72-.69-1.12-1.08.11,0,.17,0,.23-.01l.02-.05c-.13-.05-.26-.09-.42-.15-.06-.1-.14-.26-.25-.39-.51-.6-.83-1.31-1.08-2.05-.03-.09-.01-.28.05-.32.29-.18.34-.51.48-.77.07-.13.01-.35-.03-.52-.09-.38-.21-.75-.31-1.12-.06-.2.06-.24.22-.24.09,0,.17,0,.26-.01,0-.02,0-.04,0-.06-.06-.02-.13-.05-.2-.07.21-.24.53-.22.75-.02.12.11.31.16.47.21.18.06.39.06.54.15.49.29.98.24,1.5.15.26-.05.53-.05.74-.24,0,0,.02,0,.03,0,.46.06.93.12,1.39.2.39.07.78.15,1.17.24.3.07.62.1.89.29.06.04.15.03.23.04-.02.03-.03.07-.06.13.18.07.38.11.54.2.45.24.9.5,1.34.75.39.23.78.46,1.15.7.28.19.28.2-.06.46.1.07.2.13.29.19.3.19.52.43.58.8.03.17.08.33.11.5.06.34.27.51.6.56.21.03.46.03.63.14.38.26.8.38,1.21.55.16.06.3.16.45.24,0,.02-.01.05-.02.07-.11.03-.22.09-.34.09-.37,0-.74.02-1.1-.05-.77-.14-1.54-.31-2.3-.52-.49-.13-.96-.34-1.43-.54-.38-.16-.76-.35-.99-.73-.2-.32-.51-.49-.84-.65-.53-.26-1.08-.51-1.58-.84-.49-.32-.96-.69-1.07-1.34,0-.03-.03-.06-.08-.15-.06.13-.11.19-.12.25-.04.44.09.84.35,1.19.32.44.78.71,1.24.97.62.36,1.24.71,1.86,1.07.16.09.3.22.47.3.53.25,1.06.51,1.6.73.59.24,1.19.44,1.79.65.3.1.63.08.94.14.7.12,1.36.13,2-.22.17-.09.18-.22.13-.34-.15-.34-.38-.6-.74-.74-.43-.17-.87-.32-1.28-.53-.23-.11-.49-.22-.44-.6.07-.59-.21-1.11-.46-1.6-.25-.49-.6-.98-1.19-1.18-.13-.04-.24-.13-.35-.21-.35-.23-.69-.48-1.05-.7-.96-.58-1.99-.88-3.11-.93-.4-.02-.8-.14-1.24-.22.1-.12.16-.17.2-.24.37-.55.49-.6.06-1.25-.18-.27-.26-.53-.17-.86.04-.12,0-.31-.19-.21-.18.09-.23,0-.28-.12-.03-.08-.04-.18-.06-.29-.11.09-.22.17-.33.25-.15-.26-.22-.26-.51-.02-.07-.09-.13-.25-.2-.25-.18,0-.35.08-.53.14-.02,0,0,.1,0,.21-.22-.09-.45-.13-.58-.26-.24-.24-.59-.46-.4-.95-.49.13-.88-.02-1.24-.25-.07-.04-.17-.05-.25-.07-.03.1-.07.19-.07.29,0,.07.03.16.08.21.19.18.4.34.59.51.05.05.09.12.12.18,0,.02-.04.09-.07.09-.36,0-.52.26-.71.5-.21.26-.27.26-.51-.06-.13.1-.27.2-.4.3.01.02.03.05.04.07.07.01.15.03.29.06-.06.13-.12.24-.17.35-.04.09-.11.21-.08.27.09.17.23.32.31.43.06.22.1.4.16.63-.05.04-.13.12-.22.17-.46.25-.98.42-1.27.88-.16.24-.3.43-.57.55-.28.13-.53.33-.8.48-.59.33-.72.88-.51,1.46.12.33.18.68.25,1.02.01.06-.01.17-.05.19-.28.12-.56.23-.85.34-.27.11-.54.24-.82.32-.28.07-.51.28-.82.29-.28,0-.57.33-.58.51,0,.12-.04.25-.07.37-.04.13-.13.26-.12.38.04.56.07,1.13.2,1.67.12.5.36.97.54,1.46.02.05.02.15-.02.18-.17.16-.33.35-.54.45-.48.24-.98.42-1.47.64-.11.05-.19.18-.26.29-.06.08-.09.18-.13.27-.1.22-.19.45-.29.7.11,0,.19-.01.25-.02-.07.27-.17.53-.18.79,0,.29.06.58.12.86.05.24-.09.56.28.67.03,0,.04.07.06.11.31.65.66,1.25,1.33,1.6.04.02.07.09.07.12-.02.15.05.22.14.33.37.45.83.77,1.34,1.03.65.32,1.32.59,2.05.65.43.03.77.24,1.09.51.05.04.07.14.11.24.11.05.28.13.45.2.42.17.84.35,1.26.5.34.12.7.2,1.04.31.23.07.45.17.67.25-.21.04-.42.08-.61.03-.39-.1-.77-.25-1.15-.39-.3-.11-.57-.31-.88-.34-.77-.08-1.55-.09-2.32-.14-.53-.04-1.06-.14-1.47-.51-.26-.24-.53-.37-.89-.39-.5-.03-1.01-.1-1.51-.17-.09-.01-.19-.08-.24-.15-.26-.38-.5-.78-.74-1.17-.12-.19-.27-.35-.53-.35-.1,0-.19-.07-.29-.1l-.02-.12c.52.09.86-.18,1.21-.52h-.64c0-.15.02-.35-.22-.3-.16.03-.31.14-.46.2-.1.04-.22.12-.3.1-.55-.19-.86.07-1.1.53-.18.33-.17.49.14.72.23.16.41.33.3.64-.02.05,0,.1,0,.15v1.71c-.19-.18-.36-.34-.53-.5-.01.1.05.17.03.24-.03.19-.1.37-.14.56,0,.04.03.09.04.14ZM13.16,28.97s.06-.01.08-.02c.04.2.07.4.11.6.04.16.09.31.18.45-.04.13-.07.27-.11.41-.21-.13-.37-1.01-.27-1.44ZM19.13,43.29c-.02-.24-.05-.49-.07-.73.04,0,.07,0,.11-.01.02.24.04.49.06.73-.04,0-.07,0-.11.01ZM19.28,43.86c.17.12.18.42.05.69-.02-.22-.03-.45-.05-.69ZM19.32,44.55c.14.11.28.21.28.43,0,.19.05.38.04.58-.11-.34-.21-.67-.32-1.01ZM59.11,22.04c.2-.11.41-.08.65.07-.11.09-.19.21-.29.23-.27.05-.55.05-.84.07.17-.13.32-.27.49-.37ZM43.29,39.38c-.15.68-.29,1.35-.45,2.02-.28,1.14-.56,2.28-.85,3.42-.28,1.1-.57,2.2-.84,3.3-.06.26-.03.52-.17.78-.12.23-.12.52,0,.79.02.04,0,.1,0,.15-.05.36-.09.73-.15,1.09-.01.09-.07.23-.13.24-.2.05-.25,0-.29-.19-.05.1-.09.21-.16.3-.11.15-.12.27.03.4.05.04.07.15.05.22-.01.04-.11.09-.17.1-.38.03-.66.29-1,.4-.25.08-.46.26-.71.36-.39.16-.78.35-1.18.42-.79.13-1.6.21-2.4.27-.51.04-1.02,0-1.53.01-.06,0-.12.03-.17.03-.22,0-.44-.01-.65-.04-.17-.02-.33-.08-.5-.1-.69-.07-1.38-.13-2.06-.21-.62-.07-1.24-.14-1.86-.24-.31-.05-.62-.16-.88-.23-.02-.28-.04-.55-.07-.82-.06-.53-.14-1.06-.21-1.59-.07-.54-.14-1.09-.2-1.63-.06-.61-.1-1.23-.17-1.84-.09-.85-.2-1.7-.31-2.55-.09-.72-.17-1.44-.28-2.16-.12-.74-.29-1.46-.4-2.2-.13-.83-.21-1.66-.31-2.5,0-.06.01-.11.02-.17.33.12.64.24.96.35.09.03.19.05.28.05.38-.03.76-.08,1.14-.12.31-.03.57.09.75.34.19.26.36.53.54.8.01.02.04.04.04.06.1.45.21.91.29,1.36.02.1-.05.21-.08.32,0,.01-.03.03-.03.04.06.31.11.62.18.92,0,.03.09.03.12.06.04.03.11.09.11.12-.06.27-.08.52.05.78.01.03-.04.09-.05.12.05.08.1.16.15.24-.02.01-.03.03-.05.04-.05-.03-.1-.06-.15-.08-.01,0-.02.02-.03.02.08.12.16.24.25.38-.12.02-.21.03-.31.04-.04-.23-.08-.45-.13-.66,0-.04-.06-.07-.09-.1-.03.05-.07.09-.07.14.02.35.05.69.08,1.04-.14.07-.44-.07-.41.26,0,.07.15.2.17.19.11-.06.2-.15.33-.25.08.82.19,1.69.49,2.44-.09-.92-.18-1.9-.27-2.91.03,0,.12-.03.24-.05.04.27.08.53.12.78.09.02.17.04.25.05-.04.06-.07.13-.12.19-.11.12.01.4.16.44.04.13.08.23.11.34l-.06.03s-.07-.07-.14-.16v.78c.1-.06.14-.09.19-.1.04,0,.1,0,.13.02.02.02.04.09.02.12-.21.43-.04.85.02,1.28,0,.05.03.1.02.14-.06.23-.13.45.04.67-.31-.34-.26-.83-.52-1.26,0,.47.48,1.86.76,2.05-.02-.28-.03-.57-.05-.85-.01-.28-.03-.55,0-.83.04.11.08.22.14.4.1-.22-.19-.49.22-.48,0-.02-.02-.05-.03-.07-.11-.02-.23-.04-.37-.07,0-.02-.02-.1-.03-.18.1-.03.19-.06.3-.1.02.04.05.1.08.15.06-.11.15-.22.17-.35.02-.09-.04-.2-.06-.31-.08-.49-.17-.98-.23-1.48-.07-.52-.13-1.04-.18-1.56-.03-.33-.04-.67-.04-1,0-.66,0-1.32.03-1.98,0-.12.1-.23.14-.35.02-.07.06-.17.03-.22-.2-.37-.26-.65-.19-1.11.05,0,.11,0,.17,0,.28-.02.57-.05.85-.07.37-.03.75-.07,1.12-.07.3,0,.63-.03.88.09.55.26,1.09.03,1.62.05.28.01.57.14.83.25.07.03.13.21.12.31-.03.59-.05,1.18-.12,1.77-.15,1.33-.33,2.65-.48,3.98-.12,1.04-.23,2.08-.29,3.12-.05.78-.05,1.57-.01,2.36.02.32.15.66.43.87.13.1.31.15.47.2.04.01.15-.04.16-.08.04-.1.08-.23.04-.31-.12-.27-.28-.51-.41-.78-.02-.04.05-.16.1-.17.15-.03.31-.04.53-.05-.02.17-.03.33-.07.49-.05.19.16.51.36.48.06,0,.15-.12.15-.18.01-.4,0-.81,0-1.21,0-.22-.01-.44-.02-.67,0-.21,0-.43,0-.66-.02,0-.07.01-.15.03.11-.34.22-.66.33-.99-.18-.01-.26-.17-.22-.44.05-.31.1-.62.16-.95.06.02.12.04.18.06.03-.03.06-.06.08-.09-.04-.08-.08-.16-.12-.24-.05.04-.1.09-.15.13.03-.46.02-.93.12-1.37.08-.39.07-.78.08-1.16.03-1.04.01-2.08-.03-3.12-.02-.5-.15-1-.18-1.51-.02-.26.09-.53.13-.76.08.1.16.22.25.32.02.02.08,0,.13,0,.07,0,.16-.05.22-.03.19.06.48.08.28.41-.02.03.03.09.06.21-.22-.04-.4-.07-.58-.1.09.07.19.13.28.2.08.07.2.15.21.24.03.25.04.51.02.77-.02.29.07.59-.06.89-.03.06.09.19.11.29.02.08,0,.17,0,.24-.04.16-.09.31-.13.47.03.01.06.02.09.03.03-.06.06-.11.1-.17,0,.21.15.42-.09.61-.07.06-.01.27-.03.41-.03.28-.07.56-.11.85.07-.01.16-.02.24-.03,0,.02,0,.03.01.05-.09.07-.19.13-.28.2.02.03.03.07.05.1.15-.06.31-.13.49-.2-.02-.05-.06-.1-.05-.13,0-.06.05-.11.08-.16.04.04.11.09.11.13,0,.33-.02.65-.03.98,0,.02,0,.04,0,.05.12.55-.08,1.08-.1,1.62-.03.55-.06,1.09-.1,1.64-.03.49-.09.98-.09,1.47,0,.31.1.63.16.94,0,.03.07.06.15.13.03-.57.07-1.09.1-1.61.02,0,.04-.01.07-.02.07.14.14.29.21.43-.26-1.39.16-2.71.32-4.06.04,0,.08,0,.12,0v1.55s.06,0,.08,0c.01-.08.02-.16.03-.27.05.15.09.28.14.4.01,0,.02,0,.03,0,0-.18.02-.35.03-.55-.02-.01-.09-.05-.15-.09.04-.06.08-.12.12-.18.02-.03.05-.07.05-.11,0-.22,0-.44-.03-.67l-.12.66s-.04,0-.07,0c0-.26-.1-.6.02-.77.3-.41.09-.85.17-1.26.07-.4.1-.8.13-1.2.02-.24,0-.47.03-.71.08-.79.31-1.53.65-2.25.08-.16.19-.3.31-.43.23-.25.49-.47.72-.71.26-.28.57-.19.88-.15.11.01.22-.01.36-.02-.02.08.13.22-.1.35-.09.05-.15.2-.19.32-.05.18-.07.36-.11.58-.24.11-.46.58-.29.88.16.28-.04.39-.17.56.04.04.08.09.15.16-.07.08-.14.16-.21.24-.14.12-.25.24.03.38-.11.06-.18.09-.27.14.03.1.06.2.08.25-.08.2-.15.36-.22.52.04.06.08.12.12.18-.08.04-.15.08-.25.12.03.03.07.08.07.08-.03.19-.06.33-.09.49-.04,0-.1,0-.17-.01.01.03.01.05.02.06.14.06.14.16.11.29-.12.41-.21.83-.34,1.23-.09.28-.18.57-.22.86,0,.03-.08.04-.15.07.01.04.04.11.06.19-.1,0-.19.01-.25.02.05.1.12.2.13.3,0,.09-.1.18-.12.28-.03.16-.03.33-.05.54.02,0-.02,0-.05.02.03.1.05.19.09.32-.09-.02-.14-.03-.17-.04-.02.11-.04.22-.06.34-.1.01-.19.03-.3.04.06.09.09.14.14.22-.1.04-.17.06-.3.11.12.11.22.2.36.32-.12-.01-.19-.02-.27-.03-.02.18-.04.35-.05.52l.06.03s.03-.08.05-.12l.06.03v.65c.11-.08.19-.11.21-.16.24-.78.48-1.56.71-2.34.17-.57.31-1.16.48-1.73.15-.53.34-1.05.48-1.58.15-.53.27-1.08.4-1.61.03-.1.11-.18.14-.28.25-.86.49-1.71.73-2.57.04-.13.1-.25.15-.37l.06.02c-.04.22-.08.43-.13.65ZM34.86,37.46c.39-.32.79.01,1.29,0-.07.12-.1.23-.18.29-.04.04-.15.02-.22,0-.3-.09-.6-.2-.89-.29ZM36.85,40.23c0-.08.03-.16.06-.28.19.27.15.63-.12.92.02-.07.06-.14.06-.21,0-.14,0-.29,0-.43ZM36.8,42.09c-.03,1.14-.06,2.28-.09,3.41-.01.49-.06.97-.07,1.46,0,.47.01.95.01,1.42,0,.16.02.35-.05.47-.07.11-.25.16-.39.24-.03-.02-.05-.05-.08-.07.09-2.49.09-4.99.5-7.46.04,0,.08,0,.12,0,.01.18.04.36.04.53ZM39.33,43.26c.04.16.08.33.14.56,0,0-.06.05-.18.15-.01-.27-.03-.48-.04-.69.02,0,.05-.01.07-.02ZM39.29,43.11c.01-.21.03-.42.04-.63h.1c-.02.22-.05.42-.07.63-.03,0-.05,0-.08,0ZM39.45,39.95c-.17.08-.28.13-.44.21.16-.31,0-.68.32-.93.05-.04.04-.18.05-.27.02-.1.04-.21.04-.31,0-.26,0-.52,0-.79.03.08.06.15.09.23.05-.08.08-.15.12-.21.02,0,.03,0,.05.01,0,.08.01.16.02.22.16-.18.31-.36.46-.54.03.02.06.03.08.05-.4.76-.8,1.51-.8,2.34ZM39.15,41.21s.03-.1.05-.14c.03,0,.07.02.1.02-.09.42-.18.84-.26,1.24-.11-.01-.21-.02-.32-.04-.04,0-.09-.04-.11-.07-.01-.02.03-.08.06-.1.33-.21.48-.51.49-.9ZM44.85,33.56c-.16.21-.34.24-.56.12-.22.22-.3.5-.34.8-.03.23-.08.45-.13.68-.01.05-.06.12-.1.14-.24.09-.46.25-.76.14-.35-.13-.71-.18-1.1-.06-.41.13-.84.17-1.27.22-.24.03-.49-.03-.73,0-.31.03-.61.1-.92.14-.19.02-.38,0-.57,0-.24.01-.49.04-.73.06-.31.02-.65,0-.94.09-.42.13-.85.22-1.28.26-.96.09-1.93.15-2.89.24-.52.05-1.03.17-1.54.22-.2.02-.43.02-.59-.07-.59-.32-1.25-.34-1.87-.5-.74-.19-1.5-.29-2.25-.46-.35-.08-.67-.28-1.01-.34-.68-.1-1.21-.54-1.84-.73-.63-.2-1.25-.44-1.88-.65-.74-.25-1.48-.48-2.21-.75-.23-.09-.47-.24-.63-.43-.29-.33-.41-.74-.43-1.18,0-.14-.03-.28-.07-.42-.07-.25-.16-.49-.25-.76.14-.04.1-.1.04-.24-.18-.5-.46-.99-.23-1.55.02-.06.09-.11.15-.13.17-.06.34-.11.51-.16l-.04-.13c-.15.05-.29.09-.43.14.02-.09.03-.2.08-.3.09-.24.16-.47.52-.48.24,0,.46-.2.7-.28.29-.1.59-.19.88.02.13.09.31.12.44.21.06.05.06.18.09.27-.02.02-.05.03-.07.05.52.34,1.05.69,1.57,1.03.19.12.38.27.6.34.29.09.34.34.48.54.06.09.16.19.26.22.42.12.85.2,1.26.34.45.15.88.36,1.31.58-.15-.01-.31-.02-.46-.03.35.3.77.31,1.18.37.17.03.35.05.52.08.37.07.78.06,1.1.22.69.35,1.45.44,2.17.66.25.08.5.11.74.24.35.19.77.25,1.16.36.21.06.44.07.64.14.32.11.63.25.95.38.19.08.37.19.56.29.04.02.09.03.12.02.34-.11.59.12.88.2.21.06.41.15.64.24-.02-.09-.03-.12-.02-.11.36.1.72.26,1.1.28.36.03.69.18,1.07.13.43-.06.89.06,1.33.08.5.02,1.01.08,1.49-.16.02-.01.06-.01.07-.03.32-.45.83-.34,1.28-.42.14-.03.39-.06.32-.23-.06-.14,0-.2.03-.31-.07-.04-.13-.07-.2-.1,0,0,0-.01,0-.02.5.14.99.28,1.5.42.05-.09.09-.15.16-.25.16.13.3.24.44.36ZM22.37,21.96s.02-.05.03-.05c.27-.03.54-.08.8-.08.12,0,.24.1.36.15.04.02.08.05.11.04.47-.05.79.17,1.05.53.14.19.26.39.41.58.21.28.38.61.82.5.02.12.04.21.06.34.16-.21.27-.2.41-.02.08.11.22.17.35.25.3.18.59.36.9.51.14.07.32.06.51.1,0,0,0,.01,0,.01.23.06.47.11.7.17.1.03.2.07.29.13.26-.1.43.07.59.23.15.15.29.23.53.22.22-.01.45.14.67.21.12.04.24.07.36.1.31.06.66.06.92.2.17.1.27.23.48.13.35.37,1.51.67,1.82.38.16.03.3.1.4.06.28-.1.53-.06.82,0,.33.08.7.19,1.05,0,.08-.04.2-.01.31-.01.37.01.74.06,1.11.03.37-.02.73-.13,1.1-.16.11-.01.26.07.36.14.42.31.84.62,1.23.97.13.11.26.14.39.22.06.03.08.11.14.19.02,0,.09-.03.14,0,.29.17.58.36.93.58.14-.03.35-.04.47.27.05.13.3.17.4.3.18.24.45.3.68.43.04.02.08.11.06.16-.08.24-.07.51-.31.7-.65.49-1.34.9-2.1,1.21-.43.18-.87.28-1.34.32-.42.04-.83.09-1.25.14-.28.03-.56.05-.83.06-.04,0-.08-.04-.18-.1.24-.05.44-.09.63-.14-.94-.04-1.87-.07-2.81-.12-.38-.02-.76.01-1.13-.12-.16-.06-.34.03-.53,0-.51-.11-1.03-.13-1.55-.21-.31-.05-.61-.16-.92-.25,0-.02,0-.05.01-.07.11,0,.22-.02.31-.03.1.02.2.04.3.06,0-.03.02-.06.03-.1-.32-.1-.65-.2-.99-.31-.03.07-.04.15-.08.19-.03.03-.13.06-.16.03-.1-.08-.18-.18-.26-.26-.05-.04-.1-.08-.15-.12-.04.06-.07.12-.12.2-.05-.04-.11-.1-.18-.16.12-.05.21-.09.33-.15-.07-.04-.11-.08-.15-.08-.73-.01-1.36-.38-2.04-.57-.84-.23-1.68-.45-2.52-.68-.44-.12-.83-.3-1.07-.73-.05-.1-.18-.19-.3-.22-.45-.14-.84-.36-1.17-.7-.13-.13-.31-.2-.47-.3-.39-.24-.77-.48-1.19-.74.32-.1.21-.28.11-.45-.22-.33-.58-.43-.89-.21-.06-.11-.15-.21-.18-.32-.16-.52-.25-1.07-.46-1.57-.13-.31-.22-.63-.29-.95-.14-.71-.13-.65.57-.77.21-.04.43-.03.65-.05.35-.04.7-.09,1.09-.14-.08-.04-.14-.06-.19-.09ZM29.95,24.71s.01-.04.02-.06c.11.08.23.14.33.23.02.01-.04.11-.06.17-.11-.13-.2-.24-.29-.34ZM43.35,25.94c.08,0,.17.05.23.11.39.38.79.76,1.14,1.17.36.43.3.96.23,1.48-.02.12-.03.23-.06.38-.26-.14-.5-.26-.73-.39-.83-.47-1.65-.93-2.48-1.41-.12-.07-.22-.17-.33-.26.12-.15.24-.29.37-.44.02.01.03.02.05.03,0-.08,0-.15,0-.22-.03-.18.04-.27.23-.28.09,0,.18-.08.27-.09.36-.04.72-.06,1.08-.08ZM41.1,18.79c.26.19.53.38.83.6-.32.11-.7-.15-.88-.53.02-.02.04-.05.06-.07ZM37.73,16.43c.27.16.54.32.81.47.21.11.42.21.63.32.43.24.85.49,1.16.9-.42,0-.71-.29-1.03-.51-.36-.24-.72-.49-1.08-.73-.18-.12-.36-.25-.53-.37.01-.02.03-.05.04-.07ZM35.22,15.78c.18.04.34.18.52.26.31.14.69.11.96.38.07.07.25.05.37.03.19-.02.28.09.34.24.07.19.44.42.59.41.04.09.05.18.1.21.26.14.43.43.78.45.16.01.31.21.47.32.03.02.05.05.08.06.23.08.45.16.7.25,0-.05-.01-.1-.02-.16.1.08.2.18.31.24.12.07.25.1.37.15,0,.02,0,.05,0,.07-.08.01-.17.03-.26.04.31.28.61.58.93.86.04.04.16-.01.25-.02.05,0,.14-.02.15,0,.07.14.12.29.15.47-.11-.08-.2-.18-.32-.24-.07-.04-.17-.04-.26-.05-.06,0-.12.01-.17,0-.25-.1-.49-.2-.71-.38-.24-.19-.55-.3-.83-.45-.23-.11-.46-.22-.68-.33-.02.02-.03.04-.05.06.24.18.48.36.74.55-.07.03-.14.06-.23.1.09.04.15.07.21.1,0,.01,0,.03,0,.04-.07,0-.14,0-.2,0-.51-.08-1.02-.12-1.47-.39-.08-.05-.18-.12-.21-.21-.25-.59-.66-1.01-1.22-1.32-.21-.12-.37-.31-.57-.44-.51-.31-1.08-.54-1.55-.91-.39-.3-.88-.44-1.23-.79-.18-.18-.33-.39-.49-.58.02-.03.05-.05.07-.08.14.08.3.14.43.23.59.41,1.25.65,1.94.81ZM32.64,10.53c.03-.19.05-.37.07-.57.07,0,.13-.02.18-.02,0-.02,0-.03,0-.05,0-.06-.02-.11-.03-.17.1.03.21.05.28.11.06.05.07.15.08.17-.07.22-.12.41-.18.58-.05.14-.14.27-.21.4-.17-.1-.23-.25-.2-.45ZM26.75,14.61c.13-.04.24-.12.36-.19.24-.13.48-.25.7-.4.08-.05.12-.17.2-.24.27-.24.92-.1,1.11.2.23.36.45.74.91.89.16.05.3.23.41.37.11.14.23.15.38.11.21-.05.43-.11.63-.09.15.02.28.16.4.24.09-.06.14-.1.24-.17-.14-.03-.26-.07-.36-.09.09-.1.16-.2.25-.29.06-.06.15-.1.22-.14.03.06.06.13.1.19.14.22.28.45.42.67.02,0,.05-.02.07-.03-.03.05-.06.09-.13.19.14.02.26.02.36.07.14.06.26.15.38.24.07.05.11.15.18.21.09.09.12.18.14.31.02.12.2.2.3.31.24.26.55.41.86.56.15.07.31.16.44.27.14.12.29.21.47.29.24.1.43.31.64.45.15.1.31.18.51.29.13.96.8,1.41,1.77,1.56-.07.01-.14.02-.22.03v.06c.11.03.25.12.36.09.48-.12.94.02,1.39.12.41.09.79.31,1.2.41.54.14.64.59.8,1,.1.25.19.5.27.76.05.16.09.33.18.51.03-.29.06-.57.09-.86l.05-.03c.05.15.13.3.16.46.07.44.03.89.01,1.33,0,.23-.23.44-.47.45-.1,0-.19.03-.34.05-.13-.12-.28-.33-.58-.24.3-.12.6-.2.62-.55-.15-.03-.29-.06-.43-.08,0-.38-.12-.46-.45-.31-.11.05-.21.13-.36.22.2.14.37.25.56.38-.13.21-.32.14-.54.12.07-.06.1-.09.09-.08-.24-.09-.49-.18-.75-.28-.08-.03-.16-.06-.24-.09-.23-.1-.45-.2-.68-.29-.06-.03-.14-.03-.24-.06-.03-.03.07-.31-.18-.13,0,0-.02,0-.02,0-.31-.13-.61-.25-.89-.36-.09.01-.18.05-.23.03-.6-.28-1.19-.56-1.79-.85-.11-.05-.23-.1-.35-.13-.37-.11-.75-.18-1.11-.31-.84-.3-1.68-.58-2.49-.95-.69-.31-1.37-.68-1.99-1.11-.9-.61-1.77-1.28-2.62-1.97-.43-.35-.83-.76-1.18-1.19-.2-.25-.31-.59-.36-.91-.07-.46.26-.86.72-1.01ZM24.63,18.29c.35-.35.74-.26,1.09-.13.45.17.86.42,1.29.64.31.17.61.35.91.54.08.05.13.15.21.2.17.12.34.3.52.31.47.02.79.32,1.17.5.4.19.79.43,1.2.61.74.33,1.48.65,2.23.96.34.14.7.22,1.04.35.56.2,1.11.42,1.66.63.05.02.1.06.14.05.45-.08.79.2,1.18.34.28.1.52.24.84.08.12-.06.32.04.49.07.15.02.3.04.45.06,0,.03,0,.06,0,.09-.17.07-.34.13-.48.18-.25-.08-.48-.15-.71-.22.28.31.62.4,1.05.29-.04.1-.06.14-.1.23.25.05.5.09.73.16.18.06.34.18.51.25.15.06.31.09.47.13l.04-.11c-.15-.06-.3-.12-.45-.18.36-.07.4-.03.72.22.2.15.45.23.67.35.1.05.19.11.35.21-.43.09-.79.16-1.15.23-.12.02-.24.04-.36.04-.15,0-.32.03-.45-.02-.44-.18-.89-.26-1.37-.18-.43.07-.86.05-1.29.11-.21.03-.38,0-.57-.1-.28-.14-.58-.11-.89-.03-.36.09-.73.1-1.1.14-.07,0-.15-.05-.27-.1.13-.1.21-.17.29-.23-.18-.02-.32-.07-.46.13-.1.14-.38.2-.58.2-.65,0-1.29-.05-1.94-.11-.16-.02-.31-.16-.45-.26-.02-.01.01-.1.03-.2-.16-.04-.33-.08-.5-.12,0,.02-.01.04-.02.06.12.05.24.09.3.12.04.12.06.2.1.33-.31-.16-.59-.3-.87-.45.01-.03.03-.05.04-.08.07.02.14.04.21.06.01-.02.02-.04.03-.06-.06-.04-.12-.09-.18-.1-.65-.11-1.21-.45-1.79-.74-1.16-.59-2.26-1.28-3.31-2.05-.34-.25-.7-.45-.79-.89-.06-.28-.06-.58-.05-.86.01-.41.05-.82.09-1.23.01-.14-.1-.26.06-.43ZM10.63,12.77c.1.19.18.38.28.57.02.03.08.03.12.06.07.05.13.11.19.16-.03.03-.06.06-.09.09-.21-.15-.43-.28-.63-.45-.18-.16-.34-.35-.51-.53.01-.02.02-.04.03-.06.13.07.26.13.4.21.02-.04.05-.1.09-.18.04.05.09.09.11.14ZM8.51,8.41c.11-.03.23-.16.38-.03.03.02.11-.02.17-.04.09-.03.19-.06.28-.09.01.18.08.37.03.53-.19.57-.27,1.13.08,1.67.13.21.26.43.38.65.06.11.1.24.15.36.1.27.2.54.31.81.01.03.06.04.08.06.04.07.07.14.1.21-.03.02-.07.03-.1.05-.1-.13-.19-.26-.29-.38-.35-.39-.72-.77-1.07-1.15-.05-.06-.07-.14-.12-.2-.07-.08-.14-.16-.21-.24l.14.23s-.06.02-.09.03c0,.1-.03.22,0,.31.06.15.16.28.24.42l.07-.02c-.04.06-.08.12-.1.17-.27.06-.49-.58-.4-1.09l.1-.1s-.04-.04-.06-.06c0-.04.06-.13.03-.2-.15-.38-.31-.75-.47-1.12-.15-.35,0-.68.37-.79ZM9.25,12.23s0-.06-.01-.09c.07-.07.13-.14.2-.21.08.12.16.25.26.4-.11.03-.16.05-.24.07,0-.11.09-.33-.2-.17ZM4.87,13.58c-.06-.55.02-1.06.57-1.34.25-.13.55-.19.83-.22.49-.05.91-.25,1.32-.49.22-.13.41-.21.58.11.07.14.29.21.42.32.1.08.19.19.28.29.18.2.32.45.53.6.5.36,1.04.67,1.56,1,.05.03.1.06.12.11.21.32.44.6.87.56.01,0,.03.01.05.02.41.18.42.18.66-.19.01-.02.03-.04.05-.06.27.14.53.29.79.43.01-.02.02-.04.04-.06-.16-.1-.32-.2-.47-.3l.03-.06c.21.06.41.12.62.19.02-.02.04-.04.05-.05-.21-.21-.43-.41-.64-.62.21.12.53.08.59.4.22.06.43.11.63.19.06.03.1.15.12.23.03.13.09.17.22.19.42.04.84.14,1.26.16.35.02.7-.04,1.05-.04.42,0,.83-.02,1.25.02.55.05,1.13,0,1.63.31.05.03.13,0,.19.01.12.02.23.04.35.06,0,.02,0,.04,0,.07-.1.01-.2.03-.35.05.07.04.09.07.11.08.44.1.9.15,1.32.31.61.23,1.19.52,1.77.8.17.08.31.22.47.34.28.21.32.55.43.85.02.05-.01.13-.04.18-.07.13-.15.25-.25.36-.42.47-.51,1.04-.51,1.64,0,.23,0,.46.01.69,0,.2-.03.4.22.49.03.01.07.08.06.1-.09.23.1.34.25.51-.11-.01-.19,0-.24-.03-.6-.35-1.25-.24-1.9-.23-.6,0-1.2.04-1.8.04-.12,0-.24-.04-.36-.07-.03.08-.05.15-.11.31-.08-.12-.12-.18-.16-.24-.09.02-.2.02-.28.08-.08.06-.17.15-.19.24-.05.24-.23.34-.45.24-.47-.22-.93-.45-1.41-.66-.14-.06-.31-.06-.46-.1-.17-.04-.33-.08-.49-.14-1.05-.37-2.09-.74-3.14-1.11-.49-.17-.98-.34-1.46-.54-.2-.08-.37-.24-.56-.37-.2-.13-.39-.29-.61-.38-.14-.05-.37-.05-.47.04-.25.2-.44.14-.67-.01-.97-.68-1.94-1.35-2.91-2.04-.38-.27-.65-.64-.88-1.07-.37-.7-.45-1.44-.53-2.2ZM5.05,30.59c-.01.11-.04.22-.07.34-.11-.21-.21-.43-.31-.64.16-.05.4.13.38.3ZM3.44,26.18c.41.03.82.07,1.23.1.19.01.39-.02.58.01.14.02.27.11.41.17-.01.03-.02.06-.03.09-.1,0-.19,0-.29-.01-.55-.03-1.1-.05-1.65-.09-.1,0-.2-.11-.3-.17.02-.03.04-.06.06-.09ZM1.9,24.71c.15.34.33.67.49,1,.05.1.07.21.14.3.11.13.24.24.37.36,0,0-.02.01-.05.01-.02,0-.05-.01-.07-.02-.13-.05-.27-.09-.4-.16-.36-.19-.51-.11-.52.28,0,.48.17.57.65.62.18.02.37.04.55.08.04,0,.08.06.09.1.11.39.35.75.32,1.18,0,.03,0,.07.02.1.16.35.32.71.49,1.06.42.87.71,1.79,1.03,2.7.17.49.44.94.64,1.41.25.56.49,1.13.71,1.7.27.69.51,1.39.78,2.09.12.32.24.66.4.96.22.43.49.83.78,1.33-.14-.03-.23-.02-.29-.06-.97-.54-1.94-1.08-2.64-1.97-.13-.17-.28-.32-.39-.5-.07-.11-.08-.25-.13-.37-.11-.27-.22-.53-.33-.8-.06-.15-.14-.29-.21-.44-.05-.1-.19-.23-.17-.28.11-.21-.09-.31-.13-.46-.09-.28-.15-.58-.3-.83-.19-.33-.29-.68-.41-1.03-.06-.18-.21-.34-.32-.51-.02-.03-.04-.05-.05-.08-.15-.52-.3-1.05-.45-1.57-.05-.17-.04-.36-.09-.53-.04-.15-.14-.28-.2-.43-.08-.18-.15-.37-.12-.57,0,0,0-.02,0-.02-.33-.57-.28-1.24-.48-1.84-.16-.47-.23-.97-.29-1.46-.06-.53-.06-1.07-.1-1.6,0-.07-.08-.14-.12-.21.39-.08.64.08.8.47Z"/>
      <path class="cls-1" d="M50.18,19.91c-.12-.09-.22-.2-.35-.25-.31-.13-.65-.2-.96-.34-.22-.1-.42-.22-.69-.19-.08,0-.11-.24-.3-.16-.07.03-.17.02-.25.02-.05,0-.11,0-.16-.01-.29-.07-.57-.15-.85-.23-.08-.02-.15-.08-.24-.13-.4.17-2.01-.53-2.12-.96-.05.04-.09.07-.13.1v-.06c-.16-.05-.33-.09-.49-.15-.1-.04-.2-.1-.27-.18-.21-.25-.5-.33-.8-.4-.04-.01-.08-.05-.12-.07-.2-.05-.33-.4-.61-.15-.02.02-.1-.04-.14-.08.06.01.12.02.25.04-.08-.11-.11-.21-.18-.24-.56-.26-1.13-.52-1.7-.76-.67-.28-1.34-.58-1.87-1.08-.38-.36-.75-.75-1.03-1.18-.17-.26-.17-.63-.23-.96-.02-.12.02-.25.03-.41-.21.14-.25.05-.22-.13.03-.24.05-.49.07-.74,0-.05.03-.12,0-.15-.12-.16-.26-.31-.42-.49-.05.36-.32.27-.56.35.04-.08.05-.13.07-.13.2,0,.32-.11.44-.26.06-.07.21-.08.32-.07.22.02.27-.07.26-.26-.02-.2.15-.49.3-.54-.04-.06-.07-.12-.09-.15.28-.21.55-.39.8-.6.26-.23.55-.34.88-.33.31,0,.59,0,.88-.17.4-.24.91-.2,1.33.06.05-.16.09-.3.13-.45.06-.26.09-.53.16-.79.03-.12.09-.28.3-.18.05.02.15-.06.29-.06-.04.1-.08.2-.11.29.08,0,.16,0,.24.01-.04.05-.08.09-.15.18.02.12.12.32.08.49-.09.34.09.63.13.94.04.32.17.64.27.96.03.09.04.19.08.27.03.07.07.16.13.21.35.25.7.49,1.07.72.41.25.82.49,1.24.71.39.21.79.4,1.21.56.49.18.99.33,1.49.48.54.16,1.08.32,1.63.46.23.06.47.03.7.08.26.05.51.13.75.23.54.23,1.1.33,1.67.42.34.05.66.15,1,.21.25.04.5.06.75.08.1.01.21,0,.31.03.21.06.42.14.62.21-.02.02-.07.06-.17.14.6.08,1.17-.04,1.68.28,0-.03.02-.06.03-.1-.03-.03-.07-.06-.11-.09.64-.08,1.42.18,1.9.65-.05.18-.1.36-.15.56.03.01.07.04.1.04.49-.03.84.24,1.16.55.16.16.36.31.43.51.14.37.21.77.31,1.15.05.18.12.37.13.55,0,.36-.2.58-.56.63-.12.02-.23.04-.34.08-.1.03-.18.08-.24.15-.06.09-.12.2-.2.27-.07.06-.18.1-.27.13-.33.09-.46.38-.66.61-.07.08-.22.12-.34.14-.89.09-1.78.15-2.67.25-.47.05-.9,0-1.34-.17-.18-.07-.41-.04-.61-.08-.4-.08-.79-.18-1.19-.27-.2-.05-.4-.07-.6-.14-.13-.04-.24-.13-.33-.23-.11-.03-.22-.06-.32-.09-.15,0-.3.02-.46.02.01-.03.02-.05.04-.08ZM44.2,12.09c-.1-.12-.16-.21-.24-.27-.13-.1-.28-.16-.41-.26-.37-.28-.71-.6-1.11-.83-.22-.13-.4-.28-.52-.48-.08-.13-.08-.3-.18-.41-.22-.26-.49-.47-.72-.72-.18-.2-.36-.26-.61-.16-.65.26-1.32.46-2.03.5-.11,0-.23.13-.3.23-.13.2-.22.43-.35.62-.32.45-.61.89-.41,1.5.14.42.2.85.41,1.26.3.58.64,1.1,1.18,1.47.31.21.6.46.93.61.74.33,1.5.62,2.25.91.42.16.85.33,1.29.43.5.12.78.56,1.27.71.31.1.62.3.95.43.29.11.58.21.87.28.52.13,1.05.23,1.57.35.21.05.41.12.6.21.88.38,1.77.72,2.71.89.73.13,1.45.3,2.21.34,1.12.05,2.24.11,3.34-.07.56-.09,1.1-.29,1.64-.46.1-.03.2-.13.25-.23.17-.32,0-.65-.04-.97-.05-.4-.38-.62-.68-.87-.36-.3-.75-.46-1.19-.54-.98-.2-1.96-.37-2.9-.72-.47-.17-.98-.15-1.42-.42-.1-.06-.26-.03-.38-.08-.31-.12-.61-.27-.92-.39-.51-.19-1.02-.37-1.53-.56,0-.02.01-.05.02-.07.26.04.51.07.77.12.73.13,1.46.28,2.19.41.07.01.14-.03.27-.06-.17-.09-.26-.16-.36-.18-.46-.11-.92-.21-1.38-.32-.63-.15-1.27-.28-1.9-.45-.64-.17-1.27-.37-1.91-.55-.24-.07-.48-.14-.72-.13-.36,0-.68-.06-.95-.31-.39-.36-.76-.73-1.35-.7-.09,0-.18-.05-.23-.06ZM56.42,15.15c-.39-.06-.79-.09-1.17-.18-.37-.09-.74.03-1.1-.02-.37-.05-.73-.23-1.11-.06.32.1.64.12.95.22.83.25,1.67.42,2.54.51.23.02.45.07.7.11.04-.13.1-.29.15-.45-.35-.09-.67-.16-1-.24.02.06.03.1.04.12Z"/>
      <path class="cls-1" d="M44.61,5.84c-.06.02-.13.05-.23.09v-.2c-.18-.19-.33-.35-.48-.51-.01-.01-.02-.03-.03-.04-.13-.07-.3-.11-.22-.33.05-.13.09-.27.14-.44-.11.09-.23.18-.33.28-.11.11-.2.14-.33.04-.14-.1-.16-.21-.06-.35.09-.12.18-.25.28-.38-.13,0-.32-.02-.5-.02-.25,0-.26-.03-.17-.26.15-.34.49-.41.76-.56.26-.15.56-.24.87-.36-.03-.05-.07-.1-.11-.16-.03-.04-.1-.1-.09-.13.11-.28-.14-.36-.28-.48-.13-.11-.28-.2-.42-.28-.29-.16-.33-.4-.24-.7.07-.24.16-.28.37-.14.39.25.77.52,1.15.77.26.17.57.18.76,0,.07-.06.11-.16.17-.25-.34-.13-.34-.31-.06-.68-.1-.22-.19-.44-.31-.73.13.05.19.07.25.1.03-.04.08-.14.09-.13.09.03.2.06.25.13.22.32.43.65.64.99-.05,0-.12.01-.18.02-.14.21.72.84,1.25.91,0-.16-.02-.33,0-.48.02-.11.11-.28.17-.28.15,0,.33-.13.47.11.22.37.48.72.74,1.07.03.04.12.05.17.05.24,0,.48-.03.72-.03.07,0,.19.11.19.14-.07.26.17.44.16.65-.01.28.08.56.05.83-.01.1-.08.18-.12.28.2.4.2.69-.2.79-.04.34-.07.68-.11,1.01-.17.01-.32.02-.52.04.17.14.3.27.44.36.04.02.15-.07.28-.14.37.21.58.64.82,1.03.27.45.44.97.73,1.4.2.3.54.51.85.72.61.43,1.33.56,2.03.77.09.03.15.12.21.21.34,0,.66.1.94.34.25.21.46.55.29.8-.02.03-.04.08-.08.1-.46.24-.87.59-1.42.63-.22.01-.44,0-.7,0,.04-.05.07-.08.1-.12-.36-.14-.72-.27-1.07-.43-.37-.16-.73-.35-1.09-.53-.11-.05-.21-.14-.32-.14-.41,0-.68-.28-.95-.49-.41-.33-.73-.76-1.1-1.14-.05-.06-.17-.07-.25-.07-.33,0-.65.04-.98.02-.43-.03-.83-.15-1.2-.4-.89-.59-1.44-1.44-1.87-2.38-.13-.29-.2-.6-.31-.94ZM55.06,11.44c-.09-.06-.14-.12-.2-.15-.19-.08-.4-.13-.59-.2-.5-.18-.99-.37-1.48-.55-.33-.13-.68-.23-.99-.39-.58-.3-1-.78-1.31-1.34-.12-.22-.21-.45-.32-.67-.08-.17-.19-.33-.27-.51-.11-.26-.18-.56-.33-.79-.06-.1-.19-.36-.45-.17-.07.05-.26.01-.36-.05-.18-.1-.34-.26-.52-.37-.1-.06-.22-.09-.34-.12-.14-.03-.29-.05-.45-.08,0,0,0-.05,0-.12-.14.08-.79-.15-.78-.29.01-.25-.3-.18-.31-.38-.05,0-.12-.01-.14.01-.27.36-.7.43-1.12.57.28.36.54.7.8,1.05.48.65,1.06,1.18,1.82,1.49.38.16.92.1,1.18-.17.64.35,1.13.87,1.58,1.44.24.3.5.59.79.84.18.15.43.22.65.33.62.31,1.23.64,1.92.75.39.06.79.12,1.21-.12Z"/>
      <path class="cls-1" d="M16.72,33.54c.25.38.16.82.23,1.29-.13-.06-.2-.09-.27-.12-.02-.4-.04-.78-.06-1.16.03,0,.06-.01.09-.02Z"/>
      <path class="cls-1" d="M45.96,36.44c-.04.27-.08.54-.14.81,0,.04-.08.06-.13.09-.03-.06-.09-.14-.07-.19.08-.25.19-.48.28-.72.02,0,.03,0,.05.01Z"/>
      <path class="cls-1" d="M35.14,10.87c.14-.17.29-.2.44-.06.02.02-.03.17-.06.17-.14,0-.33.16-.38-.11Z"/>
      <path class="cls-1" d="M44.57,41.33c-.06-.46-.02-.57.2-.54-.04.19-.07.38-.11.57-.03,0-.06-.02-.09-.03Z"/>
      <path class="cls-1" d="M22.66,12.19c.2.03.4.05.59.08,0,.03,0,.06-.01.1-.22.18-.39-.04-.59-.09,0-.03,0-.06,0-.09Z"/>
      <path class="cls-1" d="M56.1,14.4c-.28-.08-.54.2-.78-.17.17.04.29.07.42.1.02-.03.04-.09.06-.13.09.06.17.12.3.2Z"/>
      <path class="cls-1" d="M16.76,35.28c.08-.15.16-.3.24-.46.02.01.04.02.06.03-.02.18-.06.36-.31.42Z"/>
      <path class="cls-1" d="M32.58,38.61c.21-.16.34,0,.39.18.1.39.22.78.24,1.18.07,1.08.09,2.16.14,3.23.04.7.12,1.39.15,2.09.02.53,0,1.05-.01,1.58,0,.2.01.39,0,.59-.02.65-.07,1.29-.07,1.94,0,.38.07.76.08,1.14,0,.09-.06.2-.13.28-.27.34-.26.32-.63.08-.46-.3-.5-.76-.47-1.22.09-1.34.24-2.68.31-4.02.07-1.57.1-3.13.11-4.7,0-.78-.07-1.55-.11-2.34Z"/>
      <path class="cls-1" d="M29.3,41.54c-.07.01-.12.02-.22.04.09.05.14.08.15.09-.05.16-.1.32-.14.49l.07.07c-.11.02-.21.04-.33.06.03.04.08.1.12.16.04.07.12.16.1.22-.05.18-.11.35.04.51,0,0-.06.09-.1.13-.08-.06-.17-.11-.22-.19-.03-.04,0-.14.03-.2.08-.2.01-.31-.18-.34v-.52c-.31-.03-.33-.22-.32-.47,0-.22-.06-.44-.07-.66,0-.4-.14-.77-.2-1.15-.03-.15.01-.31-.01-.46-.05-.26-.14-.52-.2-.78-.02-.08-.06-.18-.03-.25.03-.09.1-.21.18-.23.08-.02.23.02.28.09.17.23.31.46.36.76.06.32.21.63.31.95.03.09.05.18.06.27.06.38.11.76.17,1.14.02.09.1.17.16.28Z"/>
      <path class="cls-1" d="M37.71,38.27l-.4-.27s.05-.06.07-.09c.12.1.34.11.32.37,0,0,0,0,0,0Z"/>
      <path class="cls-1" d="M30.98,47.86c-.07-.13-.13-.26-.22-.42.36.02.18.29.22.42Z"/>
      <path class="cls-1" d="M19.58,27.85c-.33.08-.64.28-1,.26,0-.03-.01-.05-.02-.08.33-.09.67-.18,1-.28,0,.03.01.07.02.1Z"/>
      <path class="cls-1" d="M25.46,30.78c-.18-.09-.37-.18-.55-.27.01-.03.02-.05.03-.08.2.07.39.15.59.22-.02.04-.05.09-.07.13Z"/>
    </g>
  </g>
</svg>