<?xml version="1.0" encoding="UTF-8"?>
<svg id="Layer_2" data-name="Layer 2" xmlns="http://www.w3.org/2000/svg" viewBox="0 0 85.43 108.3">
  <defs>
    <style>
      .cls-1 {
        fill: #000;
        stroke-width: 0px;
      }
    </style>
  </defs>
  <g id="illustrations">
    <g>
      <path class="cls-1" d="M85.36,78.66c-.14-.55-.21-1.1-.23-1.65-.02-.58-.06-1.17-.3-1.71-.25-.58-.53-1.16-.84-1.72-.15-.28-.38-.52-.58-.78-.21-.28-.43-.55-.64-.82-.05-.06-.12-.09-.18-.14-.06-.04-.13-.06-.17-.12-.54-.83-1.34-1.38-2.12-1.95-.32-.23-.68-.46-1.05-.54-.39-.08-.66-.32-.98-.48-.63-.32-1.22-.73-1.84-1.08-.49-.27-1-.49-1.51-.73-.82-.39-1.64-.77-2.37-1.33-.37-.29-.66-.58-.63-1.1.02-.38-.04-.77-.09-1.16-.03-.25-.14-.49-.15-.73-.03-.54-.03-1.09-.03-1.64,0-.24.11-.51.04-.72-.19-.6-.13-1.21,0-1.79.21-1-.22-1.73-.84-2.43-.74.36-.22.83-.1,1.26h-.6c.04-.57-.11-.74-.67-.7-.24.02-.48.05-.71.13-.66.2-1.31.44-1.97.65-1.26.4-2.53.79-3.86,1.2.06-.21.08-.37.15-.5.16-.29.19-.59.25-.9.08-.45.09-.88.05-1.33-.02-.25.09-.51.11-.76.03-.54.04-1.08.05-1.62,0-.18,0-.36,0-.58.08.05.12.08.17.12.75.55,1.58.94,2.47,1.23.65.21,1.29.43,1.92.68.46.18.88.53,1.41.18.13-.08.28-.14.46-.22-.11-.1-.18-.16-.25-.22-.52-.39-1.15-.52-1.75-.66-.7-.16-1.41-.26-2.07-.55-.51-.23-1.03-.45-1.53-.69-.15-.07-.32-.2-.36-.34-.07-.24-.05-.51-.05-.77-.03-1.21-.04-2.43-.07-3.64-.02-.82-.07-1.64-.06-2.46.01-.54-.07-1.05-.31-1.53-.03-.07-.04-.16-.03-.24.06-.4.13-.8.18-1.2.02-.14.02-.3-.02-.43-.16-.43-.33-.85-.52-1.26-.06-.14-.22-.23-.34-.33-.09-.07-.22-.11-.29-.19-.42-.48-.97-.66-1.58-.71-.27-.02-.54-.08-.8-.15-.07-.02-.12-.12-.17-.18-.11-.14-.18-.34-.32-.41-.28-.14-.41-.33-.4-.63,0-.31,0-.62.02-.93,0-.15.09-.29.08-.43-.02-.35-.08-.7-.12-1.05-.05-.45-.11-.91-.16-1.36,0-.03,0-.08.02-.1.14-.19.03-.37-.01-.56-.12-.47-.25-.93-.3-1.41-.06-.54-.17-1.05-.46-1.51-.04-.07-.15-.16-.21-.14-.07.02-.18.13-.18.2,0,.37-.03.75.03,1.12.09.54.27,1.06.35,1.6.12.89.2,1.78.27,2.68.03.34,0,.66-.12,1.01-.1.31-.13.65-.33.92-.02.03,0,.09-.02.12-.05.1-.08.23-.17.29-.21.15-.43.3-.66.39-.26.1-.56.11-.83.19-.4.12-.79.26-1.18.39,1.01.18,1.93-.14,2.86-.52.04.79.1,1.5.12,2.22.01.36-.19.55-.52.63-.35.09-.69.21-1.02.33-.55.2-1.08.46-1.64.61-.57.15-1.16.2-1.74.26-1.63.16-3.26.23-4.87.61-.88.21-1.61.63-2.37,1.07-.07.04-.1.14-.2.27.49-.03.89-.02,1.27-.09.61-.1,1.21-.24,1.81-.38.16-.04.31-.14.48-.18.88-.19,1.77-.38,2.66-.55.49-.09.99-.17,1.49-.21.98-.07,1.96-.05,2.92-.31.32-.09.64-.15.95-.24.39-.11.53-.31.54-.73,0-.1.04-.24.11-.3.36-.32.6-.68.61-1.19,0-.18.11-.35.17-.53.03,0,.07,0,.1,0,.04.25.13.44.39.48.05,0,.1.12.11.2.09.52.06,1.03-.22,1.5-.04.07-.13.12-.21.16-.48.23-.95.46-1.43.66-.49.2-.98.41-1.49.54-.62.16-1.25.26-1.79.65-.17.12-.38.23-.58.27-.76.14-1.53.3-2.3.35-1.4.09-2.8.11-4.2.17-.69.03-1.38.09-2.07.14-.04,0-.08-.01-.12-.02,0-.01,0-.03,0-.04.14-.01.29-.02.43-.03,0-.03,0-.06-.01-.1-.46.08-.92.16-1.38.24-.11.02-.23.05-.33.02-.72-.22-1.46-.15-2.19-.15-.21,0-.42-.08-.63-.12,0-.03,0-.06,0-.09.13-.06.27-.11.38-.2.09-.07.15-.19.22-.28-.11-.04-.23-.1-.34-.1-.85.02-1.69.18-2.56.1-.81-.08-1.62-.13-2.41-.29-1.3-.25-2.55-.69-3.81-1.09-.77-.24-1.41-.67-2.02-1.17-.05-.04-.09-.13-.11-.2-.24-.69-.15-1.4-.11-2.14.08.04.13.06.18.08.48.22.95.47,1.44.66.28.11.59.11.88.18,1.02.24,2.04.51,3.07.74,1.64.38,3.29.19,4.95.16,0,0,.01,0,.02-.02-.04-.02-.08-.04-.17-.1.51.04.95.11,1.39.1.88-.03,1.76.21,2.64-.06.39-.12.83-.06,1.23-.17.39-.1.76-.24,1.18-.21.14,0,.28-.1.42-.15-.02-.04-.05-.07-.1-.15.43-.07.82-.14,1.22-.2.18-.02.36-.01.54-.03.48-.06.97-.11,1.45-.19.37-.06.74-.14,1.11-.24.55-.15,1.1-.33,1.65-.49.39-.12.8-.19,1.19-.34.52-.2,1.02-.45,1.53-.7.42-.21.81-.46,1.06-.89-.22-.19-.47-.17-.69-.1-.9.27-1.8.55-2.69.86-.29.1-.59.22-.81.42-.2.19-.4.31-.67.35-.35.06-.7.1-1.05.18-.62.15-1.23.35-1.86.47-1.14.21-2.29.34-3.42.57-1.07.21-2.13.33-3.22.33-.52,0-1.04,0-1.56,0-.17,0-.33.03-.5.05,0,.01,0,.03,0,.04.1.03.21.07.31.1-.21.07-.4.1-.6.11-.14,0-.31.02-.33-.2,0-.03-.09-.08-.14-.08-.71-.06-1.41-.1-2.12-.17-.86-.08-1.71-.17-2.57-.27-.35-.04-.71-.08-1.04-.18-.67-.21-1.37-.34-2.03-.63-.62-.27-1.25-.48-1.71-1.08.12-.4.24-.82.38-1.25.08-.25.23-.48.25-.73.04-.72.03-1.45.05-2.17,0-.15-.05-.2-.2-.17-.42.1-.43.09-.57-.31-.01-.04-.03-.08-.05-.12-.19-.26-.26-.55-.24-.87.02-.53-.03-1.04-.44-1.44-.12-.11-.24-.24-.43-.13-.18.1-.28.26-.26.47.02.22.07.44.08.67.06.78.13,1.57.16,2.35.03.76,0,1.52.02,2.28,0,.4.04.79.04,1.19,0,.38-.03.76-.06,1.13,0,.07-.09.18-.16.2-.27.09-.55.15-.83.21-.4.08-.8.13-1.19.21-.21.04-.42.08-.63.15-.4.13-.79.28-1.18.43-.32.13-.64.26-.95.41-.05.02-.07.11-.14.21-.24,0-.47.13-.59.43-.08.19-.11.37.04.53.17.17.38.12.65.09-.1-.06-.14-.09-.19-.12-.24-.19-.23-.48.04-.63.36-.2.72-.4,1.11-.55.51-.19,1.05-.32,1.58-.48.51-.15,1.02-.3,1.53-.45.33-.1.65-.2,1.02-.32,0,.32,0,.59,0,.85-.02.86-.04,1.72-.07,2.59,0,.25.07.45.31.58,1,.54,2,1.09,2.99,1.64.12.07.25.13.37.2l-.02.08c-.11,0-.21.04-.32.02-.43-.06-.86-.12-1.28-.2-1.11-.21-2.22-.42-3.33-.67-.52-.12-1.01-.34-1.52-.5-.15-.05-.34-.09-.48-.05-.15.04-.21,0-.29-.1-.34-.42-.74-.74-1.34-.6-.05.01-.14-.04-.18-.09-.19-.2-.54-.34-.7-.24-.22.14-.25.37-.24.61.01.3-.03.59-.04.89,0,.04,0,.09,0,.13.02.22.06.43.05.65-.03.38-.08.76-.14,1.13-.03.19-.1.37-.15.56-.02.07-.07.19-.04.22.19.17.02.29-.03.43-.04.12-.08.25-.08.37-.02.5.11.97.17,1.46.1.78.06,1.58.07,2.37.02.74-.02,1.49.07,2.23.08.6.29,1.19.48,1.77.12.37.26.77.62.99.84.53,1.55,1.24,2.48,1.63.48.2.92.48,1.41.63.82.25,1.67.4,2.5.62.33.08.65.22.98.33.16.05.32.11.51.17,0,.02.03.15.08.16.43.13.85.26,1.29.33.35.06.72.01,1.08.03.52.02,1.03.04,1.55.07.32.01.63.03.95.05.09,0,.18.11.25.09.54-.16,1.07-.09,1.59.06.5.14,1,.3,1.51.42.69.16,1.36.39,2.07.4.69,0,1.39.1,2.08.08.74-.02,1.47-.14,2.2-.21.48-.05.96-.11,1.44-.15.38-.03.75-.04,1.13-.08.51-.06,1.02-.18,1.53-.2.9-.03,1.78-.17,2.65-.4.45-.12.9-.2,1.36-.31.15-.03.29-.08.45-.12-.05-.02-.09-.04-.19-.08h.73s0-.04,0-.05c-.09-.02-.19-.03-.28-.05,0-.02,0-.03,0-.05.46-.1.93-.19,1.39-.29-.08.12-.2.19-.32.26-.12.07-.29.1-.17.34.53-.06,1.06-.09,1.59-.2,1-.19,2-.42,3-.65.53-.12,1.06-.28,1.59-.41.54-.13,1.07-.26,1.62-.35,1.03-.16,1.97-.59,2.91-.99.88-.37,1.76-.66,2.66-.8-.18.25-.44.5-.57.8-.44,1.02-1.11,1.89-1.73,2.79-.25.36-.56.65-1,.81-.46.18-.89.43-1.33.66-.08.04-.14.13-.22.2.09.02.19.07.27.05.17-.04.34-.11.5-.18.37-.17.76-.31,1.11-.52.65-.38,1.28-.8,1.92-1.2.05-.03.11-.05.16-.09.24-.15.5-.28.72-.46.05-.04.09-.09.13-.13-.01-.16-.03-.33-.05-.49-.15.01-.3.02-.44.04.16-.21.28-.47.47-.64.1-.19.32-.32.51-.32.33,0,.54.26.57.57.25,2.34.23,4.7.22,7.05,0,.09.02.17.02.26.03.89-.05,1.79.07,2.67.03.2-.04.33-.2.46-.33.27-.52.64-.57,1.06-.46.11-.95.22-1.45.34-.31.08-.61.2-.92.24-.16.02-.26.05-.32.19-.08.19-.07.37.11.48.09.06.26.07.36.02.28-.14.56-.25.89-.24.34.01.39.12.21.41-.04.06-.07.12-.12.16-.77.56-1.54,1.12-2.44,1.46-.44.17-.82.35-.94.86-.02.07-.13.16-.19.16-.69,0-1.34.17-1.96.48-.21.1-.42.19-.65.25-.79.21-1.59.39-2.39.6-.59.16-1.17.39-1.77.51-1.21.25-2.43.45-3.65.67-.24.04-.48.06-.71.11-.2.04-.38.15-.58.18-.35.06-.7.09-1.06.13-.74.08-1.49.17-2.23.24-.36.04-.73.03-1.08.08-.69.1-1.38.27-2.07.35-.65.07-1.32.06-1.97.1-.32.02-.66.14-.95.05-.3-.09-.55-.04-.83-.01-.12.01-.26.01-.38-.02-.15-.04-.28-.17-.43-.18-.95-.08-1.89-.15-2.84-.18-1.42-.05-2.83-.06-4.24-.3-.18-.03-.38,0-.57,0-.16,0-.33.05-.48.03-.8-.09-1.59-.2-2.38-.3-.81-.1-1.63-.16-2.43-.32-.79-.15-1.62-.17-2.37-.55-.55-.28-1.12-.52-1.67-.79-.5-.24-1-.5-1.5-.75-.64-.32-1.29-.62-1.92-.95-.73-.39-1.45-.8-2.17-1.2-.1-.06-.19-.15-.29-.21-.07-.04-.16-.05-.24-.07-.19-.05-.41-.05-.56-.15-.28-.18-.51-.45-.8-.61-.32-.18-.34-.44-.34-.73.01-.6.05-1.21.08-1.81.01-.21-.02-.5.11-.62.34-.36.18-.77.18-1.15,0-.15-.06-.36-.06-.54,0-.21.05-.42.12-.61.02-.05.17-.05.26-.07.1-.02.26-.01.28-.06.13-.33.28-.19.44-.03.05.05.11.09.18.14.01-.5-.03-.54-.48-.61-.07-.01-.15-.12-.19-.2-.04-.09-.06-.2-.07-.3-.02-.35-.27-.6-.38-.92-.05-.13-.04-.33-.13-.39-.22-.14-.16-.35-.18-.53-.09-.77-.17-1.54-.25-2.31-.05-.48-.13-.97-.08-1.45.03-.39,0-.74-.13-1.11-.05-.14-.03-.33.01-.48.09-.31.22-.61.32-.93.1-.34-.04-.65-.32-.74-.32-.11-.54.01-.68.41-.14.41-.24.83-.36,1.25-.11.38-.17.75-.1,1.15.04.25.05.51-.18.72-.07.07-.07.24-.05.36.1.48.4.9.35,1.43-.03.34.11.69.19,1.03.24,1.03.32,2.08.33,3.14,0,.89,0,1.78.03,2.67.02.69.11,1.38.08,2.07-.02.65.03,1.34-.48,1.87-.02.02-.03.06-.04.09-.02.26-.05.52-.04.78.03.54.09,1.08.13,1.63.06.79.11,1.58.16,2.38,0,.12-.03.25-.08.37-.16.41-.44.78-.36,1.27.06.36.02.75.13,1.1.06.21.16.4.12.61-.03.15.01.23.15.27.04.01.07.06.13.12-.1-.01-.16-.02-.28-.03.08.19.14.33.2.48.05-.14.09-.29.15-.47.23.27.41.49.6.7.66.72,1.46,1.27,2.25,1.83,1.02.72,2.17,1.17,3.31,1.63.5.2,1.04.29,1.56.47,1.14.38,2.29.77,3.49.93.33.04.67.08,1,.14.54.09,1.08.22,1.63.29.67.09,1.34.13,2.01.19.88.08,1.75.15,2.63.22.83.06,1.67.08,2.5.19.48.06.96-.04,1.45.03.84.12,1.71.1,2.56.11.5,0,1.01-.05,1.52-.07.25,0,.49.02.74,0,.53-.05,1.05-.14,1.58-.16.39-.02.79.08,1.18.07.54,0,1.07-.05,1.61-.07.14,0,.27-.03.4-.03.56.03,1.11.1,1.67.08.49-.02.97-.13,1.46-.21.92-.14,1.84-.27,2.76-.4.75-.11,1.5-.2,2.25-.32.58-.09,1.16-.2,1.74-.31.19-.04.38-.1.57-.16.36-.11.72-.22,1.07-.35.11-.04.2-.15.32-.19.26-.09.53-.16.8-.23.23-.06.47-.09.61-.33.03-.06.15-.07.23-.1.38-.13.76-.27,1.15-.4.46-.16.93-.3,1.38-.49.42-.18.83-.4,1.23-.64.16-.1.27-.28.41-.43.23-.24.44-.45.83-.43.19.01.39-.14.59-.23.1-.05.19-.12.29-.17.26-.12.54-.2.78-.35.32-.2.63-.42.91-.67.29-.25.52-.58.81-.82.39-.31.49-.69.46-1.17-.03-.39,0-.79.02-1.18.01-.23.07-.46.09-.69.09-1.2.17-2.41.25-3.61.03-.44.05-.88.08-1.31.04-.48.14-.96.13-1.44-.01-.76-.09-1.52-.15-2.27,0-.05-.03-.09-.05-.14-.18-.5-.46-.95-.45-1.52.01-.41-.05-.82-.07-1.24,0-.07.02-.14.04-.25.39.16.76.28,1.1.45.45.22.87.49,1.32.71.64.3,1.29.58,1.93.86.26.12.52.23.8.36-.17.02-.33.04-.48.06,0,.03-.02.06-.02.09l2.33,1.42s.01-.01.02-.02c-.17-.15-.35-.3-.52-.44.02-.03.04-.06.06-.08.29.19.58.37.87.56.21.14.38.33.6.45.65.39,1.28.8,1.79,1.38.42.47.88.92,1.25,1.43.37.51.66,1.08.96,1.63.19.35.35.72.47,1.09.09.29.1.61.15.91.09.46.26.92.26,1.39,0,.62-.11,1.25-.17,1.87-.01.13.01.28-.04.4-.09.19-.23.36-.38.57-.03-.09-.11-.21-.08-.28.09-.26.06-.45-.16-.64-.18-.15-.32-.17-.37.05-.14.59-.26,1.18-.38,1.78.02.02.04.03.07.05.2-.24.39-.49.59-.73.03,0,.05.01.08.02-.04.32.06.57.32.69-.1.22-.18.4-.26.59-.05.11-.09.24-.18.33-.7.72-1.32,1.53-2.17,2.1-.41.28-.82.56-1.24.84-.11.07-.23.12-.3-.04-.06-.14.15-.75.27-.84.16-.12.29-.27.44-.41-.07-.04-.11-.05-.13-.03-.4.37-.82.74-1.21,1.12-.28.28-.53.58-.8.87-.11.12-.21.26-.41.14-.07-.04-.2.02-.3.03,0,.02,0,.03,0,.05.06.03.13.05.22.09-.32.18-.59.34-.87.48-.97.51-1.94,1.04-2.93,1.53-.63.31-1.29.56-1.95.81-.53.2-1.03.54-1.64.49-.02,0-.05.02-.07.02-.5.12-1.01.22-1.51.36-.64.18-1.27.39-1.9.6-.32.11-.64.25-.96.36-.27.09-.55.16-.82.22-.65.15-1.31.29-1.96.44-.32.07-.66.11-.94.26-.53.29-1.1.32-1.67.41-.54.09-1.08.13-1.62.2-1.08.13-2.16.29-3.24.39-.88.08-1.76.07-2.64.11-1.17.06-2.35.15-3.52.19-.79.03-1.57,0-2.36,0-1.08,0-2.16.01-3.24,0-.92,0-1.83-.06-2.75-.07-1.62-.01-3.23,0-4.85-.01-.76,0-1.52-.01-2.28-.05-.56-.03-1.12-.1-1.68-.16-.83-.09-1.66-.18-2.49-.28-.46-.05-.92-.13-1.39-.19-.43-.06-.86-.04-1.27-.26-.27-.14-.61-.15-.91-.25-.61-.21-1.27-.26-1.83-.63-.09-.06-.21-.07-.32-.1-1.04-.22-2.1-.39-3.13-.67-1.31-.36-2.6-.78-3.88-1.22-.96-.33-1.9-.7-2.83-1.11-1.08-.47-2.16-.96-3.2-1.51-1.29-.68-2.54-1.43-3.8-2.16-.44-.25-.83-.59-1.29-.78-.42-.18-.8-.38-1.13-.71-.38-.38-.89-.62-1.21-1.08-.21-.3-.53-.51-.66-.88-.08-.23-.27-.42-.42-.63.01,0,.04-.03.06-.04-.12-.31-.3-.61-.35-.92-.07-.47-.19-.93-.14-1.42.04-.39,0-.8.05-1.19.05-.52.14-1.04.2-1.55.03-.27.01-.54.05-.8.06-.43.17-.85.23-1.27.04-.29,0-.59.27-.83.21-.19.34-.48.54-.69.31-.32.66-.59,1.06-.8.49-.26.93-.62,1.42-.9.39-.22.81-.38,1.2-.6.2-.11.34-.32.54-.41.3-.14.62-.23.94-.32.2-.06.38-.1.16-.38.13.04.22.09.31.11.08.01.17-.02.26-.03.02-.05.03-.1.05-.16-.29.25-.23,0-.3-.06.16.02.32.05.49.07-.14-.11-.27-.22-.41-.33-.84.37-1.63.85-2.43,1.39,0,0-.08-.07-.13-.06-.25.07-.51.14-.74.25-.2.1-.37.25-.54.4-.23.2-.45.41-.68.62-.25-.29-.41.02-.63.03.05.08.07.14.14.25-.13-.09-.2-.14-.3-.2-.26.23-.53.46-.79.7-.08.07-.16.16-.26.22-.61.43-.97,1.05-1.14,1.74-.2.78-.31,1.6-.33,2.41-.03,1.3.03,2.61.08,3.91.03.64.2,1.26.59,1.78.29.39.61.77.96,1.1.62.57,1.25,1.13,1.93,1.63.69.51,1.44.95,2.17,1.41.28.18.59.32.89.46.77.35,1.56.66,2.33,1.02.97.45,1.91.96,2.89,1.39,1.3.58,2.61,1.14,3.93,1.67.8.32,1.62.59,2.43.87.82.27,1.64.52,2.46.78.48.15.96.34,1.45.46.76.19,1.52.33,2.29.48.32.06.65.12.97.14,1.01.05,2.02.08,3.03.13.3.01.6.06.9.1,0,.02,0,.04,0,.06-.33-.02-.65-.04-.98-.05,0,.02,0,.04,0,.06,1.27.14,2.54.28,3.81.42l.03-.08c-.07-.07-.13-.15-.25-.28.16.03.26.04.36.07.08.02.15.1.23.1.46.04.93.06,1.39.09.32.02.63.07.95.1h0c.57,0,1.14-.01,1.71,0,.32,0,.63.03.95.05,0-.01,0-.02,0-.04l-.73-.09c.1-.05.19-.05.29-.05,1.07.05,2.13.1,3.2.15.67.03,1.35.06,2.02.06,1.48.02,2.96.01,4.43.02.78,0,1.56.03,2.33.05.16,0,.32.03.48.03.21,0,.43-.06.64-.06.68-.01,1.36,0,2.04-.02.67-.02,1.34-.05,2-.09.38-.02.76-.05,1.14-.09.48-.06.97-.12,1.45-.21.46-.08.97.04,1.38-.31.02-.02.07,0,.1-.01.33-.04.67-.06.99-.13.18-.04.33-.15.55-.1.16.04.35-.01.52-.06.47-.13.92-.3,1.39-.42.65-.17,1.35-.19,1.94-.57.03-.02.08,0,.12,0,.09,0,.19.02.27-.01.51-.21,1.03-.37,1.58-.44.3-.03.59-.1.88-.19.48-.14.94-.34,1.42-.47.61-.17,1.25-.25,1.86-.44.66-.2,1.3-.46,1.94-.71.67-.27,1.33-.55,1.99-.84.48-.21.96-.42,1.44-.64.7-.31,1.4-.6,1.98-1.12.16-.15.39-.22.6-.32.12-.05.25-.07.37-.12.71-.34,1.37-.75,1.96-1.28.17-.15.35-.33.56-.39.31-.1.58-.22.77-.51-.21.13-.42.26-.63.39.09-.14.19-.24.31-.33.68-.5,1.17-1.18,1.71-1.8.1-.12.17-.34.44-.28-.03.12-.04.24-.08.35-.12.31-.31.6-.37.92-.09.45-.4.75-.58,1.13-.1.19-.16.4-.28.58-.08.12-.19.24-.31.31-.19.1-.41.15-.61.24-.18.08-.35.19-.53.29-.14.07-.28.15-.42.22,0,.02.02.04.03.06h.2c-.46.28-.92.55-1.37.84-.68.42-1.35.85-2.02,1.27-.35.22-.72.4-1.07.62-.58.36-1.14.75-1.73,1.11-.14.09-.35.07-.51.13-.45.18-.9.37-1.34.59-.5.25-.98.54-1.47.8-.2.11-.4.17-.64.1-.16-.05-.36-.04-.52.02-.44.16-.87.37-1.31.53-.5.18-1.01.34-1.53.48-.54.14-1.09.23-1.63.37-.55.14-1.09.31-1.64.46-.16.04-.31.08-.53.13.15.05.23.08.3.1-.49.23-.96.45-1.49.47-.03.03-.08.1-.14.11-.15.04-.31.06-.47.1-.53.13-1.07.27-1.6.39-.21.05-.42.04-.63.09-.34.09-.67.24-1.01.29-.54.09-1.1.14-1.65.18-1.08.08-2.14.33-3.23.25-.71-.05-1.43-.07-2.15-.1-.08,0-.15-.03-.18-.04.2-.25.39-.49.65-.81-.18,0-.3-.02-.41,0-.18.04-.34.11-.52.16-1.12.28-2.23.65-3.37.8-1.53.2-3.08.25-4.62.32-.55.03-1.11-.08-1.67-.09-.91-.02-1.83-.02-2.74-.02-.26,0-.51.05-.77.03-.31-.01-.61-.08-.92-.1-.94-.08-1.88-.14-2.81-.22-.15-.01-.3-.07-.45-.08-.42-.01-.84.01-1.26-.02-.44-.03-.88-.13-1.33-.17-1.12-.08-2.24-.16-3.37-.19-1.18-.03-2.35-.16-3.51-.38-.59-.12-1.19-.21-1.78-.34-.43-.1-.85-.23-1.26-.38-.95-.37-1.89-.77-2.84-1.13-.65-.25-1.31-.48-1.97-.71-.28-.1-.56-.2-.85-.3-.19-.06-.4-.09-.58-.17-.6-.27-1.19-.56-1.79-.84-.23-.11-.47-.21-.7-.33-.16-.09-.29-.25-.46-.33-.11-.06-.29-.07-.4-.03-.18.07-.05.22-.02.33.01.06.02.13.03.23-.12-.04-.21-.05-.28-.09-.39-.22-.81-.4-1.16-.68-.68-.54-1.33-1.11-1.97-1.7-.66-.61-1.3-1.24-2.1-1.71-.92-.53-1.77-1.17-2.65-1.75-.31-.21-.64-.4-.98-.56-.22-.1-.44-.18-.58-.4-.19-.3-.41-.59-.61-.89-.31-.46-.68-.89-.92-1.38-.22-.45-.42-.89-.67-1.32-.08-.13-.06-.31-.09-.47,0-.04-.03-.07-.05-.11-.24.15-.39.47-.31.74.09.31.15.65.32.93.27.45.31.94.44,1.42.08.31.24.62.44.88.31.41.7.76,1.01,1.18.29.41.57.84.89,1.23.21.26.46.49.71.72.46.43.88.92,1.4,1.26,1.16.77,2.39,1.42,3.72,1.86.43.14.87.24,1.27.44.59.29,1.14.67,1.72.99.78.42,1.57.81,2.36,1.2.05.03.12.02.18.02.1,0,.21-.03.3,0,.25.08.5.17.73.28.13.06.24.19.37.25.32.15.65.29.98.4.9.31,1.79.63,2.71.9.43.12.84.37,1.32.33.06,0,.13.03.19.05.44.15.87.33,1.35.35.43.02.86.09,1.29.16.33.05.66.14,1,.21.87.16,1.74.33,2.61.48.69.12,1.39.24,2.08.35.24.04.48.06.72.1.17.03.34.09.5.09.42,0,.83-.06,1.25-.05.5.01,1,.08,1.5.11.59.04,1.19.07,1.78.13.24.03.48.17.72.18.58.03,1.16.03,1.75.02.54,0,1.08-.04,1.62-.05.72-.02,1.44-.02,2.17-.04.52-.01,1.03-.04,1.55-.05.63,0,1.27,0,1.9,0,.6,0,1.19-.03,1.79.09.68.14,1.39.15,2.09.16,1.55.01,3.11.03,4.66-.04,1.2-.05,2.38-.24,3.58-.34,1.55-.13,3.04-.51,4.53-.94.31-.09.61-.23.93-.3.47-.11.94-.18,1.41-.27.43-.09.87-.17,1.29-.27.42-.1.84-.23,1.26-.36.48-.14.95-.31,1.44-.43.68-.18,1.38-.26,2.03-.5,1.11-.4,2.19-.88,3.28-1.33.02,0,.02-.04.04-.08-.08,0-.14,0-.27.01.38-.23.7-.44,1.04-.62.3-.16.6-.3.92-.42.88-.34,1.71-.77,2.49-1.3.11-.08.22-.15.34-.22.35-.19.71-.37,1.05-.56.15-.08.26-.22.4-.31.62-.38,1.28-.7,1.85-1.13.82-.62,1.59-1.32,2.37-2,.22-.19.44-.4.61-.63.16-.21.51-.31.45-.68,0-.01.03-.04.06-.05.21-.09.22-.28.23-.48.02-.22,0-.48.12-.65.24-.38.25-.8.31-1.21.11-.74.2-1.48.25-2.23.04-.5.09-1.02-.03-1.49ZM46.24,41.13s0,.05.01.08c-.38.17-.79.12-1.18.15v-.08c.38-.05.78-.11,1.17-.16ZM30.05,36.83c-.12-.02-.21-.03-.37-.05.02-.22.05-.45.08-.68.01-.12.01-.25.04-.37.03-.12.09-.23.14-.34.04,0,.07.02.11.03v1.41ZM32.39,44.7c-.13-.04-.27-.06-.4-.12-.5-.22-1-.46-1.5-.68-.17-.08-.22-.2-.18-.41.72.65,1.63.86,2.44,1.3-.12-.03-.24-.06-.36-.09ZM60.24,42.4c.04-.5.12-1,.18-1.55.35.09.74.03,1.08.3.19.15.43.25.65.36.52.27.79.9.61,1.51-.14-.34-.41-.5-.68-.67-.13-.08-.2-.26-.3-.4-.09-.12-.15-.29-.35-.2-.2.09-.25.27-.24.46,0,.16.08.31.08.46,0,.06-.08.14-.15.18-.06.04-.15.04-.29.07.1.1.17.18.24.25.12.12.09.21-.06.24-.4.08-.63.09-.71-.23-.06-.25-.08-.51-.06-.77ZM29.52,59.04c-.27-.09-.55-.16-.82-.27-.2-.08-.39-.22-.58-.32-.56-.3-1.13-.59-1.7-.88-.58-.28-1.16-.55-1.74-.82-.08-.04-.17-.05-.25-.06-.12-.01-.29.03-.34-.03-.09-.11-.12-.28-.16-.43-.05-.2-.07-.39-.11-.63.18.08.36.15.52.25,1.47.9,2.93,1.81,4.4,2.71.25.16.53.27.8.4l-.03.08ZM62.28,57.41c-.05.18-.17.35-.25.52-.02,0-.04-.01-.07-.02.02.07.04.14.05.18-.09.13-.15.26-.24.33-.3.2-.6.45-.94.55-.71.22-1.46.36-2.18.54-.22.06-.45.13-.65.25-.43.26-.9.38-1.4.41-.39.02-.77,0-1.16,0,.2-.03.4-.08.61-.1.41-.04.72-.3,1.07-.48.21-.11.48-.12.72-.17.46-.09.94-.14,1.4-.26.51-.13,1-.32,1.5-.49.22-.08.43-.17.5-.42-.26-.2-.69-.22-.96-.1-.18.07-.4.06-.6.09-.11.02-.23.04-.34.06,0-.02-.02-.05-.03-.07.79-.51,1.58-1.02,2.38-1.53-.13-.29-.43-.02-.65-.15-.04.24-.17.35-.4.32-.02,0-.05.01-.07.02-.66.31-1.32.63-1.99.93-.23.1-.47.18-.71.23-.82.19-1.63.37-2.45.55-.14.03-.28.1-.41.15-.3.11-.56.25-.51.64,0,.06-.04.13-.09.28.94-.18,1.81-.35,2.69-.53,0,.02.01.04.02.07-.06.04-.12.07-.19.11-.86.49-1.78.73-2.76.91-.91.17-1.83.2-2.75.31-.25.03-.48.03-.69-.12-.06-.05-.16-.06-.24-.06-.45.03-.9.05-1.35.08-.73.22-1.5.35-2.26.35-.62,0-1.24-.09-1.84-.24-.1.04-.2.07-.31.07-.81-.02-1.63-.04-2.44-.06-.8-.01-1.56-.16-2.29-.5-.09-.04-.22-.01-.33-.04-.36-.08-.72-.21-1.08-.24-.72-.07-1.45-.06-2.17-.13-.39-.03-.72.07-1.09.22.22.32.59.21.9.35-.06.03-.09.06-.12.06-1.02-.09-2.05-.04-3.07-.24-.45-.08-.76-.38-1.11-.62-.01,0-.03-.03-.03-.04.03-.47-.45-.41-.67-.61-.22-.2-.57-.26-.87-.39-.4-.17-.81-.33-1.19-.53-.65-.35-1.3-.71-1.93-1.11-.79-.49-1.56-1.01-2.33-1.54-.32-.22-.61-.51-.91-.76-.11-.09-.14-.17-.12-.33.03-.27,0-.55-.02-.82-.03-.4-.09-.81-.09-1.21,0-1.52.21-3.01.41-4.52.12-.88.13-1.77.17-2.66,0-.16-.12-.32-.17-.48-.03-.09-.04-.18,0-.3.1.55.57.5.92.63.15.06.32.1.45.19.61.41,1.29.63,1.99.84.62.18,1.24.37,1.87.48,1.02.19,2.04.33,3.07.46.73.09,1.46.14,2.19.19.36.02.72,0,1.08,0,.61,0,1.22.02,1.83,0,.48-.01.96-.07,1.44-.09.78-.02,1.57-.03,2.35-.04.26,0,.53,0,.78-.05.17-.04.32-.16.48-.26.09-.05.16-.12.3-.23,0,0,.04-.09.1-.1.52-.06,1.05-.07,1.55.13.09.03.19.04.28.04,1.61-.04,3.23-.09,4.84-.14.6-.02,1.2-.06,1.8-.11.43-.04.85-.14,1.28-.19.9-.11,1.81-.18,2.71-.33.99-.17,1.96-.4,2.94-.61.94-.2,1.88-.4,2.82-.62.3-.07.58-.23.86-.36.22-.1.43-.21.69-.33,0,.19,0,.36,0,.53,0,.31-.04.62-.02.92.03.31-.1.55-.26.79-.6.91-1.2,1.82-1.8,2.72-.02.03-.03.06-.04.08.62.11.82-.4,1.1-.75.3-.38.6-.78.74-1.27.03-.1.12-.17.2-.28.04.06.07.08.07.11.04.59.08,1.19.11,1.78.04.86.05,1.71.09,2.57.03.71.11,1.41.13,2.12.02.84-.19,1.64-.57,2.39-.05.1-.13.2-.13.31,0,.13.02.27.08.39.02.04.2.03.29,0,.22-.08.29-.02.27.2-.01.14.01.28.02.44-.45.04-.63.35-.75.74ZM18.98,73.54c.75.33,1.51.63,2.24,1,.98.5,1.93,1.04,2.88,1.6.32.19.64.35,1.01.43.05,0,.08.05.13.07-.41.05-.79.03-1.12-.22-.07-.05-.18-.04-.27-.06-.79-.22-1.58-.41-2.35-.67-.54-.18-1.07-.43-1.57-.72-.55-.31-1.07-.94-1.13-1.48.07.01.14.02.2.04ZM71.27,76.89c0,.87-.04,1.74-.07,2.6-.01.25-.06.5-.12.74-.02.09-.09.19-.16.25-1.25.89-2.49,1.79-3.89,2.46-.58.28-1.12.62-1.71.87-.65.28-1.33.48-1.99.72-.25.09-.5.2-.75.28-.19.06-.34.22-.59.06-.11-.07-.37.06-.56.11-.48.14-.95.33-1.43.44-.71.16-1.44.26-2.16.38-.1.02-.2.05-.3.07-.36.08-.72.17-1.08.25-.97.2-1.93.41-2.91.6-.4.08-.81.09-1.21.15-.9.13-1.79.3-2.69.38-1.01.1-2.04.14-3.05.19-1.45.07-2.9.15-4.35.17-1.13.01-2.27-.03-3.4-.12-1.2-.09-2.4-.26-3.6-.4-1.31-.16-2.62-.31-3.93-.48-.94-.13-1.88-.26-2.81-.44-1.29-.24-2.53-.64-3.76-1.1-.92-.34-1.88-.58-2.8-.93-.57-.22-1.1-.54-1.63-.84-.22-.13-.4-.34-.61-.49-.08-.06-.2-.08-.3-.12-.06-.02-.14-.03-.16-.07-.15-.36-.56-.42-.8-.67-.17-.19-.4-.33-.57-.52-.22-.24-.4-.5-.6-.75-.02-.03-.03-.08-.03-.12,0-.26-.06-.52-.01-.77.06-.35.18-.69.29-1.03.02-.06.15-.07.26-.14-.3.09-.26-.04-.2-.22.09-.29.16-.59.19-.9-.04.04-.07.08-.14.16-.07-.46-.13-.87-.17-1.29,0-.07.07-.19.13-.22.15-.06.17-.16.15-.29-.11-.53,0-1.08-.19-1.61-.1-.29.01-.65.03-.99h.07s.09.06.11.1c.12.23.21.47.34.69.13.21.23.48.54.49.04,0,.09.05.12.09.64.73,1.49,1.16,2.37,1.47,1,.35,2.04.61,3.08.86.61.15,1.25.2,1.87.3.09.01.2.03.26.09.25.23.55.14.83.2.41.08.81.22,1.21.34.51.14,1.02.28,1.53.43,1.18.35,2.39.49,3.6.61,1.03.11,2.05.26,3.08.36.71.06,1.43.06,2.15.08,1.3.04,2.61.11,3.91.08,1.44-.03,2.88-.13,4.32-.25,1.12-.09,2.24-.27,3.36-.4.97-.11,1.94-.2,2.9-.3.04,0,.09,0,.13-.01.72-.26,1.49-.21,2.23-.36.3-.07.6-.16.9-.22.69-.16,1.38-.31,2.07-.46,1.04-.23,2.09-.43,3.09-.82.77-.3,1.58-.52,2.37-.79.65-.22,1.3-.44,1.93-.71.6-.26,1.15-.61,1.74-.9.22-.1.44-.23.62-.35.61-.41,1.15-.92,1.74-1.37.76-.58.83-1.43.95-2.27,0-.04.01-.08.02-.13.02-.01.05-.03.07-.04.06.1.15.19.18.3.04.13.03.27.03.41-.01,2.03-.02,4.06-.04,6.09ZM57.33,93.49c.56-.03,1.1-.07,1.64-.1-.54.08-1.06.3-1.64.1ZM2.88,85.01c.47.28.93.57,1.4.82.9.48,1.72,1.08,2.46,1.78.47.44.91.91,1.38,1.36.28.27.58.51.87.76-1.48-.24-5.08-3-6.11-4.72ZM29.21,96.62c-.35-.04-.69-.08-1.04-.12v-.06c.35.05.7.09,1.05.14,0,.01,0,.03-.01.04ZM51.17,97.12c-.2-.06-.41-.17-.55.11-.02.04-.14.05-.22.05-.52-.01-1.04,0-1.55-.05-.36-.03-.72-.11-1.08-.17,1.14,0,2.27-.37,3.43-.11.01.06.02.11.03.16-.03.01-.05.02-.06.02ZM70.33,93.71c.13-.14.21-.24.31-.35.06.02.14.04.29.08-.23.1-.39.17-.6.27Z"/>
      <path class="cls-1" d="M53.31,17.64c.13-.33.41-.47.68-.63.3-.18.64-.31.9-.53.79-.69,1.5-1.44,2.03-2.36.43-.74.82-1.49.99-2.33.07-.32-.03-1.28-.17-1.55-.05-.09-.1-.18-.13-.28-.22-.61-.49-1.19-1.07-1.55-.12-.08-.25-.15-.38-.23-.54-.32-1.12-.45-1.74-.35-.5.08-1,.21-1.5.3-1.05.19-2,.59-2.85,1.25-.15.11-.3.22-.46.33-.03.05-.05.1-.09.14-.14.13-.26.27-.4.4-.09.08-.18.16-.27.23-.07.06-.15.1-.22.15-.01.02-.03.03-.04.05-.29.32-.6.62-.89.94-.5.56-.99,1.13-1.48,1.7-.01,0-.02-.02-.03-.03.04-.15.06-.31.12-.44.21-.42.41-.84.66-1.23.29-.45.53-.92.75-1.4-.01-.07-.01-.13,0-.2.02-.07.05-.14.1-.19.02-.04.06-.06.09-.08.06-.15.11-.29.16-.44.26-.76.47-1.54.75-2.28.08-.2.13-.4.18-.61.02-.41.06-.82.04-1.23,0-.03-.03-.21,0-.09,0-.05-.02-.1-.03-.16-.03-.12-.06-.24-.1-.36-.05-.15-.09-.3-.12-.46-.32-.35-.53-.77-.69-1.22-.07-.2-.14-.4-.2-.59-.03-.09-.06-.18-.09-.27,0,0-.02-.07-.03-.09-.01-.02-.04-.09-.05-.1-.08-.17-.22-.38-.3-.49-.08-.11-.26-.31-.39-.44-.14-.14-.28-.27-.4-.4-.11.01-.23,0-.31-.05-.75-.5-1.48-.64-2.31-.15-1.29.75-2.26,1.74-2.8,3.14-.14.37-.36.73-.42,1.11-.11.67-.13,1.36-.18,2.04.02.46.03.93.01,1.39,0,.03-.02.06-.02.1.02.1.03.19.03.29.05.95.35,1.83.66,2.71.09.26.14.55.21.82-.03.02-.07.03-.1.05-.1-.11-.18-.23-.29-.33-.58-.53-1.13-1.09-1.83-1.47-.46-.24-.91-.53-1.39-.71-.41-.15-.86-.19-1.3-.24-1.04-.1-2,.06-2.74.9-.2.22-.44.41-.68.6-.66.53-.87,1.2-.64,2.01.12.41.24.81.33,1.23.17.76.51,1.43,1.03,2.01.37.41.81.69,1.35.82.24.06.48.15.72.22,1.07.32,2.15.64,3.22.95.18.05.36.08.53.13-.12.06-.24.05-.35.06-1.17.03-2.35.04-3.52.09-.64.03-1.28.1-1.91.17-1.02.12-1.84.58-2.32,1.52-.05.09-.06.22-.04.32.04.27.1.54.16.8.12.61.25,1.21.36,1.82.02.13.03.27,0,.4-.07.31-.17.62-.25.92.28.37-.01.73,0,1.1,0,.49.15.98.16,1.48.01.53-.06,1.06-.1,1.59,0,.06-.04.14-.09.18-.21.16-.13.33-.04.5.03.06.09.11.11.17.16.47.32.94.48,1.42.03.1.06.21.09.31-.25.06-.46.11-.68.17-.67.18-.95.81-.54,1.3.18.22.44.39.7.51.41.2.84.34,1.26.51.47.18.93.4,1.41.53.65.18,1.32.3,1.99.42.52.09,1.05.22,1.56.18,1.5-.1,3.01-.05,4.51.01,1.28.05,2.56.06,3.85-.02,1.42-.09,2.85-.15,4.28-.18,1.1-.02,2.17-.14,3.21-.49.3-.1.64-.11.93-.23.27-.11.51-.32.76-.48.44-.27.9-.51,1.33-.81.33-.23.64-.5.56-1.01-.04-.26-.13-.46-.39-.54-.16-.05-.31-.11-.47-.13-.4-.05-.67-.22-.7-.65,0,0,0-.02,0-.08.63.12,1.25.24,1.87.36-.11-.15-.24-.25-.38-.34-.43-.28-.94-.28-1.42-.37-.14-.03-.3-.13-.37-.24-.29-.46-.33-.97-.25-1.5.02-.16.02-.33,0-.49-.04-.62-.18-1.25.06-1.85.12-.3-.21-.5-.12-.79.04-.14-.05-.3-.06-.46-.03-.55-.04-1.1-.08-1.65-.04-.62-.13-1.23-.17-1.84-.02-.36.01-.73,0-1.09,0-.12-.02-.27-.09-.36-.1-.13-.09-.23.02-.31.15-.11.1-.2,0-.29-.34-.32-.75-.49-1.22-.51-.41-.02-.82,0-1.24,0,.14-.09.28-.17.41-.27.11-.08.26-.16.3-.28ZM41.49,9.35c-.13-1.56-.27-3.12.04-4.67.09-.46.18-.92.37-1.34.16-.36.46-.67.69-.99.08-.1.16-.2.23-.31.22-.32.48-.54.9-.62.34-.07.63-.34.95-.48.58-.25,1.27-.08,1.67.4.14.17.28.34.42.52.53.62.98,1.31,1.23,2.09.3.94.4,2.01.21,2.98-.04.19-.19.32-.37.37-.26.94-.65,1.83-1.12,2.69-.35.65-.62,1.34-.92,2.01-.03.08-.07.15-.11.24-.08-1.06.22-2.02.56-2.98.31-.9.62-1.81.87-2.73.11-.63.03-1.32-.13-1.95-.07.42-.15.84-.26,1.26-.25,1-.56,1.97-.83,2.96-.16.58-.28,1.16-.42,1.74-.02.1-.06.2-.08.29-.05.17-.1.34-.39.12-.04.37-.08.67-.11.98-.03.29-.04.59-.08.88-.01.1-.13.27-.17.26-.15-.03-.34-.08-.43-.2-.1-.12-.11-.32-.14-.49-.06-.27-.08-.55-.17-.81-.18-.49-.01-.97-.02-1.46,0-.64.07-1.28.04-1.91-.04-1.03-.14-2.06-.21-3.1-.03-.38-.09-.76-.06-1.14.02-.23.06-.45-.01-.68-.05-.15-.12-.28-.19-.43-.03,0-.07.01-.1.02,0,.25-.03.5-.02.75.04.73.09,1.46.15,2.18.06.79.13,1.58.2,2.36.03.33.01.64-.1.97-.11.33-.05.73-.07,1.09,0,.15-.04.31-.11.45-.55-2.18-.89-4.38-.74-6.63-.05,0-.1,0-.14-.01-.08.25-.2.49-.23.74-.1.96-.11,1.92.08,2.87.26,1.23.59,2.45.86,3.67.09.42.12.86.19,1.28.06.35.14.69.21,1.06-.54-.16-.68-.6-.85-1-.2-.47-.36-.95-.55-1.42-.12-.29-.25-.56-.38-.85-.03-.07-.06-.15-.05-.22.02-.25.04-.49-.25-.62-.05-.02-.08-.13-.08-.2ZM45.99,15.44c0,.34-.04.36-.37.17.1-.05.16-.07.21-.1.05-.02.11-.05.16-.07ZM39.27,17.38c-.41-.08-.82-.14-1.21-.27-.6-.19-1.18-.42-1.76-.64-.28-.1-.55-.23-.82-.35-.02,0-.03-.03-.04-.02-.21.05-.38,0-.53-.16-.47-.47-1.07-.84-1.27-1.53-.06-.21-.13-.41-.21-.61-.11-.3-.05-.57.05-.85.05-.15.06-.35.01-.5-.16-.55,0-.98.43-1.34.29-.25.55-.54.84-.8.51-.45,1.13-.54,1.77-.48.9.09,1.73.41,2.49.88.81.51,1.64,1.02,2.29,1.74.37.4.66.89.94,1.36.4.66.74,1.34,1.14,2,.13.23.34.41.5.6-.08.1-.18.2-.26.31-.23.3-.39.35-.74.2-.65-.27-1.3-.53-1.95-.8-1.61-.67-2.99-1.66-4.13-2.98-.06-.07-.12-.16-.2-.2-.09-.05-.19-.07-.29-.1,0,.1-.04.2-.01.28.23.65.62,1.18,1.14,1.64,1.13.98,2.47,1.6,3.84,2.17.34.14.7.21,1.06.32.03.2-.08.3-.24.41-.28.2-.52.18-.83.03-.26-.13-.59-.11-.88-.16-.37-.06-.75-.11-1.12-.18ZM36.93,19.29c0,.6.46.7.86.83.81.26,1.64.48,2.46.71.18.05.37.06.56.09.1.02.2.04.29.1-.64-.04-1.29-.1-1.93-.11-1.88-.01-3.7-.46-5.55-.67-.12-.01-.25-.15-.35-.25-.11-.11-.19-.24-.27-.34,1.28-.25,2.6-.33,3.93-.36ZM55.02,31.48c.13-.05.29-.05.38-.14.19-.17.36-.16.55-.02.13.1.26.2.4.3-.13.12-.23.29-.38.36-.56.27-1.12.53-1.7.76-.75.3-1.48.68-2.3.78-.73.09-1.46.18-2.19.24-1.4.11-2.79.24-4.19.28-1.26.03-2.52-.06-3.78-.08-.76-.01-1.52.02-2.28.01-.32,0-.65-.05-.97-.1-1.35-.22-2.67-.55-3.95-1.02-.74-.27-1.49-.51-2.23-.77-.14-.05-.26-.14-.38-.21.01-.05.03-.09.04-.14.41.03.83.02,1.22.11.61.15,1.2.38,1.8.55.71.2,1.42.39,2.14.57.91.22,1.84.25,2.75.11,1.23-.19,2.47-.12,3.7-.19,1.01-.06,2.01-.2,3.01-.3.34-.03.67-.08,1.01-.08.92-.02,1.84-.12,2.74-.32.39-.09.8-.09,1.2-.16.54-.09,1.08-.21,1.63-.29.21-.03.43.03.65.04.09,0,.23.05.26.02.23-.3.58-.21.87-.31ZM42.72,28.24c.3-.06.56-.12.83-.16.72-.09,1.44-.16,2.15-.26.31-.04.61-.15.91-.21.12-.03.26-.04.38-.02.76.06,1.47-.14,2.2-.31.34-.08.69-.1,1.04-.15.18-.03.35-.09.53-.11.7-.06,1.41-.11,2.11-.16.26-.02.53.03.77-.03.36-.08.7-.24,1.06-.36,0,.27.02.55,0,.83-.02.3-.07.59-.12.89-.01.08-.09.18-.16.21-.71.22-1.41.44-2.13.64-.47.13-.96.21-1.44.33-.11.03-.21.11-.32.15-.3.1-.59.22-.9.28-.56.12-1.14.21-1.7.31-1,.18-1.99.37-3.01.26-.12-.01-.24.03-.36.03-1.19.03-2.38.09-3.57.07-.66-.01-1.31-.19-1.96-.26-1.5-.15-2.9-.7-4.31-1.18-.53-.18-1.05-.4-1.56-.62-.06-.02-.13-.1-.14-.15-.02-.52-.03-1.03-.04-1.55,0-.01.01-.03.04-.07,1.55.69,3.1,1.35,4.81,1.58,1.68.22,3.35.43,5.05.25-.05-.05-.09-.11-.18-.21ZM33.34,29.46c1.53.57,3.1.96,4.71,1.2.71.11,1.43.17,2.14.25.22.02.43-.02.64-.13.16-.08.38-.15.61.03.15.12.41.11.62.11.83.01,1.66.05,2.48,0,.6-.04,1.18-.22,1.78-.3.73-.09,1.46-.1,2.19-.19.65-.08,1.28-.22,1.92-.34.29-.06.59-.22.87-.21.65.02,1.23-.27,1.85-.37.38-.06.75-.18,1.12-.29.17-.05.23-.02.25.16.04.35.11.69.18,1.07-.07.03-.15.08-.23.11-1.06.33-2.1.7-3.17.96-.85.21-1.74.27-2.61.4-.42.06-.83.16-1.25.2-1.06.1-2.11.2-3.17.27-.96.06-1.92.06-2.87.13-.78.06-1.52-.13-2.27-.22-.75-.09-1.49-.22-2.24-.35-.84-.14-1.64-.38-2.4-.77-.2-.1-.44-.15-.67-.2-.4-.1-.66-.31-.72-.74-.03-.27-.08-.54-.13-.87.14.03.25.05.35.08ZM54.79,23.86c.04.3.05.6.06.9,0,.05-.06.11-.1.16-.09.1-.19.19-.28.29-.26.3-.57.46-.97.53-.28.05-.54.24-.82.35-.28.11-.57.22-.87.27-.82.13-1.64.21-2.46.35-.37.06-.72.24-1.09.29-.8.13-1.61.21-2.41.31-.19.02-.39.05-.58.08.06.36.05.39-.3.4-1.5.04-3,.09-4.49-.11-.19-.03-.38-.04-.57-.01-.5.06-.96-.09-1.43-.21-.88-.22-1.78-.39-2.63-.69-.86-.3-1.67-.74-2.5-1.13-.19-.09-.3-.2-.29-.45,0-.2-.13-.41-.22-.67.1.03.18.03.25.07.62.32,1.31.37,1.97.51.39.08.78.2,1.18.26.39.06.79.07,1.19.09.76.03,1.53.08,2.29.07.79-.01,1.57-.1,2.36-.13.68-.02,1.36,0,2.05-.01.48,0,.95,0,1.43-.04.29-.02.57-.12.85-.18.06-.01.13-.04.18-.02.24.11.46-.04.69-.07.05,0,.14-.04.15-.08.07-.4.46-.38.71-.51.2-.1.45-.12.67-.15.08-.01.18,0,.24.04.27.19.53.21.83.06.12-.06.29-.06.43-.05.28.01.57.09.84.07.29-.03.58-.12.85-.24.39-.17.77-.39,1.22-.36.2-.27.57-.07.8-.3.09-.1.27-.11.42-.18-.07.18-.01.28.2.3.06,0,.14.14.15.22ZM52.85,18.41c.13-.02.27.02.41.03,0,.02,0,.05,0,.07-.08.02-.16.04-.23.06,0,.02,0,.03-.01.05.08.02.16.06.24.06.31.03.62.05.92.08.24.03.38.27.37.6-.01.62-.04,1.24-.02,1.87,0,.39.07.77.11,1.16.03.37,0,.41-.35.52-.54.16-1.08.3-1.61.47-1.26.42-2.58.49-3.86.76-.39.08-.77.22-1.16.28-1.49.23-2.98.36-4.49.35-2.17-.01-4.34-.16-6.49-.43-1.05-.13-2.07-.4-3.05-.81-.36-.15-.57-.38-.58-.82-.01-.38-.17-.76-.26-1.15-.04-.15-.07-.3-.1-.46,1.27.35,2.55.51,3.83.58.74.04,1.48-.05,2.21-.05.81,0,1.62.02,2.44.04.37,0,.74.03,1.11.03.07,0,.13.01.18.03,1.57-.14,6.9-.92,6.9-.97-.49,0-3.17-.08-3.65-.09.01.06.02.11.03.17-.55-.03-1.08-.06-1.6-.1-.18-.01-.42.05-.52-.05-.02-.02-.04-.06-.05-.1-.58-.03-1.16-.09-1.74-.2-.05,0-.1-.02-.15-.03-.06,0-.11,0-.17,0-.12,0-.22-.04-.3-.09-.51-.09-1-.19-1.49-.4-.09-.04-.16-.1-.21-.16-.1-.01-.19-.03-.29-.04-.4-.06-.81-.1-1.2-.18-.18-.04-.35-.15-.53-.22,0-.03,0-.06,0-.09.13-.06.25-.12.38-.16.61-.21,1.23-.23,1.86-.19.08,0,.17.01.25.02.07,0,.13,0,.2.02.72.06,1.44.12,2.16.19v.04c.42.03.83.03,1.25.04.45-.03.89-.05,1.34-.07.57-.01,1.15-.05,1.72-.1.37-.03.75-.08,1.13-.11-.01-.02-.02-.04-.04-.05.12,0,.22-.02.32-.02.89,0,1.78,0,2.67-.03.47-.02.95-.11,1.42-.18.23-.04.46-.14.69-.18ZM52.18,16.85c-.5.34-1.02.58-1.64.64-.65.06-1.28.23-1.92.35-.46.08-.92.13-1.38.02-.11-.01-.21-.02-.32-.04-.56-.06-1.13-.05-1.68-.17-.56-.13-.53-.96,0-1.1.19-.05.37-.11.55-.17.09-.03.19-.06.28-.09.02,0,.04-.01.05-.02,0,0,.05-.02.06-.03.18-.09.36-.2.54-.3.05-.03.09-.06.14-.1.53-.37,1.06-.74,1.61-1.08.21-.13.45-.2.73-.32.15-.33.58-.44.89-.73-.09-.03-.16-.05-.26-.09.08-.05.15-.1.22-.14v-.07c-.09.01-.22,0-.26.05-.37.45-.88.67-1.38.92-.62.31-1.23.62-1.88.94-.08-.34-.14-.57.1-.82.62-.65,1.2-1.35,1.82-2.01.35-.37.76-.7,1.13-1.05.28-.26.54-.56.85-.79.43-.32.88-.6,1.33-.88.84-.52,1.76-.86,2.71-1.09.68-.17,1.35-.06,1.91.41.79.67.92,1.55.77,2.51-.02.11-.03.22-.04.33-.01.1,0,.22-.05.3-.36.62-.58,1.32-1.15,1.81-.34.3-.64.66-.92,1.01-.47.6-1.1.95-1.79,1.23-.35.14-.69.34-1.01.56Z"/>
      <path class="cls-1" d="M35.44,98.64c.21.18.86.2,1.08.02.03-.03.07-.09.06-.12-.02-.04-.08-.07-.12-.07-.2,0-.39,0-.59-.04.26,0,.53-.02.79.01.1.01.19.14.28.22-.09.08-.16.2-.26.22-.33.08-.66.12-.99.19-.42.09-.86.14-1.25.32-.43.2-.83.48-1.21.77-.58.44-1.13.92-1.69,1.4-.17.15-.31.33-.47.51.92.29,1.81.57,2.69.86.11.04.19.19.29.28.04.04.09.08.12.17-1.09-.27-2.18-.55-3.3-.83-.09.13-.24.3-.33.49-.12.23,0,.51.22.66.5.34.98.7,1.48,1.03.2.13.45.21.67.31.11.05.22.1.31.2-.22-.05-.44-.09-.67-.14,0,.01-.01.02-.02.04.14.06.28.14.42.19.72.22,1.49.3,2.17.65.04.02.1.02.17-.02-.38-.18-.76-.37-1.15-.53-.82-.33-1.62-.69-2.22-1.37-.14-.16-.24-.31-.21-.53.03-.19.15-.25.29-.13.2.16.39.31.53.55.15.26.45.45.73.6.35.18.75.29,1.13.43.09.03.18.06.25.12.46.34,1.03.29,1.54.47.88.31,1.78.59,2.69.85.81.23,1.62.35,2.48.31.85-.04,1.7.09,2.56.15.93.06,1.86.13,2.79.17.11,0,.23-.1.35-.15.1-.05.2-.13.3-.13.25,0,.5.04.75.06-.02.06-.03.11-.04.17.21-.02.4-.04.6-.06.5-.05,1.01-.14,1.51-.13.92.02,1.84.02,2.73-.22.63-.17,1.22-.47,1.83-.7.39-.15.8-.26,1.18-.44.34-.16.67-.37.95-.62.31-.27.57-.6.83-.92.3-.38.31-.9.04-1.3-.54-.82-1.21-1.51-1.93-2.19-.84-.8-1.81-1.4-2.75-2.06-.11-.07-.19-.17-.27-.29.38-.03.74-.06,1.09.13.45.24.96.36,1.38.63.54.35,1.03.78,1.52,1.2.38.33.79.67,1.08,1.08.32.46.54,1,.75,1.53.07.17-.03.4-.05.6,0,.03-.03.07-.02.1.12.42.04.78-.25,1.13-.16.2-.23.48-.36.71-.08.14-.19.27-.31.36-.3.22-.62.41-.93.62-.09.06-.18.14-.24.23-.13.21-.32.28-.54.28-.31,0-.6.05-.87.24-.15.1-.36.1-.54.15-.75.21-1.48.47-2.26.54-.53.05-1.05.18-1.58.23-.78.08-1.56.12-2.34.18-.03,0-.06,0-.16-.02.7-.07,1.34-.14,1.97-.21,0-.03,0-.06,0-.09-.22-.04-.45-.12-.66-.1-.73.09-1.5.11-2.18.36-1.19.44-2.39.39-3.6.39-1.08,0-2.15-.07-3.23-.14-.49-.03-.98-.12-1.46-.22-.56-.12-1.11-.27-1.66-.41-.54-.14-1.09-.27-1.62-.44-.66-.2-1.3-.43-1.96-.65-.42-.14-.84-.29-1.26-.42-1.22-.37-2.22-1.02-2.85-2.17-.48-.87-.3-1.68.23-2.45.58-.83,1.37-1.4,2.26-1.86.95-.5,1.92-.87,3.02-.8.09,0,.19-.05.32-.09Z"/>
      <path class="cls-1" d="M42.51,66.69c.89.04,1.78.09,2.66.13,0,.04,0,.08,0,.12-.25.02-.5.06-.75.07-.66.02-1.34.07-1.98-.15-.34-.12-.67-.06-1.01-.08-.6-.05-1.19-.17-1.8-.21-.68-.05-1.37-.04-2.06-.06-1.21-.03-2.4-.2-3.6-.43-1.22-.23-2.34-.7-3.45-1.23-.54-.26-1.07-.53-1.61-.77-.47-.2-.96-.36-1.44-.55-.47-.18-.93-.37-1.4-.52-.33-.11-.68-.16-1.05-.21.1.04.2.08.3.13.67.29,1.35.57,2.01.89.23.11.4.31.62.45.3.2.61.37.92.55.11.06.21.11.15.28-.07.19-.21.12-.33.1-.6-.14-1.21-.28-1.8-.45-.87-.25-1.73-.53-2.59-.81-1.01-.34-2.01-.71-3.02-1.05-.51-.17-1.04-.29-1.56-.43-.05-.01-.13,0-.17.02-.39.22-.8.05-.92-.41-.05-.19-.07-.39-.07-.59,0-.36.28-.59.63-.53.31.06.63.11.94.2.5.14,1,.27,1.47.49.19.09.37.19.58.25.68.2,1.36.41,2.04.61.04.01.08,0,.18.02-.08-.08-.1-.14-.15-.16-.46-.17-.91-.33-1.37-.5-.16-.06-.31-.15-.48-.2-.44-.14-.88-.27-1.31-.42-.6-.21-1.06-.64-1.52-1.04-.17-.14-.35-.27-.52-.42-.13-.12-.25-.26-.37-.4.02-.03.05-.06.07-.09.45.24.9.49,1.36.71.46.23.93.43,1.39.65-.02.04-.03.07-.05.11-.18-.09-.37-.18-.55-.27,0,.02-.02.03-.03.05.06.04.13.08.17.13.06.09.1.2.15.29.03.07.05.18.1.2.07.02.19,0,.26-.04.16-.13.44-.1.56.07.05.07.1.12.18.21,0-.08.01-.12.02-.16,1.1.36,2.18.72,3.28,1.07.55.18,1.1.33,1.64.52.11.04.34.05.26.28.29.03.59.03.86.11.58.16,1.14.36,1.68.63.42.21.91.31,1.36.46.31.1.62.19.94.28.14.04.29.06.43.06.87.02,1.74.04,2.62.06.46.01.92.01,1.37.04,1.08.07,2.17.08,3.24.36.56.15,1.16.18,1.74.26.17.02.35,0,.44.2.02.05.13.07.2.08.51.06,1.03.1,1.54.19.27.05.53.18.78.29.06.03.08.13.12.2-.07.04-.14.1-.22.11-.34.03-.69.03-1.04.06-.36.03-.73.09-1.09.14,0,.02,0,.04,0,.05ZM34.77,65.42c.72.12,1.45.24,2.22.37-.17-.27-1.34-.46-2.22-.37Z"/>
      <path class="cls-1" d="M56.53,103.46c-.04.2-.05.37-.12.5-.14.26-.32.5-.48.75-.07.11-.14.23-.22.34-.03.05-.06.1-.11.12-.44.2-.87.41-1.31.59-.33.14-.67.28-1.02.37-.37.09-.76.14-1.15.17-.89.08-1.79.14-2.68.22-.25.02-.49.08-.74.13-.12.02-.24.14-.33-.04,0-.01-.07-.02-.09,0-.34.24-.68,0-1.02-.01-.46,0-.92-.12-1.38-.18-1.1-.13-2.2-.24-3.29-.36-.43-.05-.86-.06-1.28-.14-.38-.06-.79,0-1.1-.34-.07-.07-.27-.02-.41-.03-.53-.04-.97-.28-1.43-.52-.2-.1-.44-.12-.65-.2-.36-.13-.71-.27-1.06-.41-.03-.01-.07-.09-.06-.12,0-.03.07-.08.11-.08.46,0,.89.05,1.31.29.31.18.66.29,1,.42.32.12.66.2.97.34.69.33,1.44.34,2.17.42.51.05,1.01.12,1.52.17.87.08,1.74.2,2.61.22,1.06.03,2.13.04,3.18-.05.91-.08,1.82-.28,2.73-.46.67-.13,1.34-.27,1.98-.5.44-.16.82-.47,1.22-.71.03-.02.07-.06.08-.1.1-.41.3-.8.21-1.23-.02-.08-.05-.17-.11-.22-.21-.15-.44-.28-.67-.43-.24-.15-.48-.31-.71-.47-.52-.34-.82-.87-1.2-1.35-.41-.52-.6-1.14-.88-1.72-.05-.11-.13-.2-.19-.31-.09-.16-.11-.32.07-.43.15-.09.32-.15.46.03.2.25.42.49.58.76.09.15.06.36.11.53.06.22.12.45.23.64.54.94,1.36,1.59,2.25,2.16.19.12.38.23.55.38.18.17.32.38.32.65,0,.08.04.15.05.19Z"/>
      <path class="cls-1" d="M57.89,64.78c.17,0,.35-.01.52,0,.08,0,.22.08.22.12,0,.09-.05.21-.12.25-.16.1-.33.18-.51.24-1.13.36-2.3.61-3.48.74-1.08.13-2.16.27-3.24.4-.32.04-.64.08-.97.08-.11,0-.23-.12-.34-.18.1-.16.04-.43.3-.49.59-.13,1.18-.28,1.77-.39.63-.12,1.27-.23,1.91-.33.75-.11,1.51-.21,2.26-.3.56-.07,1.12-.11,1.68-.17,0,0,0,.02,0,.02Z"/>
      <path class="cls-1" d="M19.38,65.91c-.06-.46-.11-.92-.18-1.43-.07.09-.1.13-.16.2-.03-.19-.06-.36-.08-.47.45-.33,0-.55-.05-.8.12-.03.22-.06.35-.09.08.88.16,1.73.24,2.59-.04,0-.08,0-.12,0Z"/>
      <path class="cls-1" d="M11.9,67.36c.22-.09.41-.17.53-.23.18.09.29.15.4.2.01,0,.06-.09.09-.13-.05-.03-.1-.06-.14-.08.11-.09.24-.18.36-.28.17-.13.36-.07.46.13.06.13.05.21-.1.25-.27.07-.54.13-.8.21-.07.02-.14.08-.21.09-.1.02-.21.03-.31,0-.09-.02-.16-.09-.28-.16Z"/>
      <path class="cls-1" d="M10.69,68.16c-.05-.07-.09-.12-.13-.17,0-.02.02-.04.03-.06.12.03.23.07.36.1.09-.12.18-.26.29-.42.07.15.13.27.19.4-.41.07-.76.42-1.22.27.15-.04.3-.08.49-.13Z"/>
      <path class="cls-1" d="M81.82,82.85c.17-.19.43-.26.42-.57,0-.14.42-.24.55-.18-.1.14-.24.26-.31.42-.13.3-.37.31-.66.32Z"/>
      <path class="cls-1" d="M17.07,81.88s.05-.05.06-.06c.13.17.26.34.39.5-.03.03-.05.05-.08.08-.19-.15-.37-.29-.59-.46.1-.03.17-.04.23-.06,0,0,0,0,0,0Z"/>
      <path class="cls-1" d="M14.77,66.61s.04.13.03.13c-.19.07-.39.13-.58.17-.03,0-.07-.07-.1-.1.23-.07.42-.13.65-.2Z"/>
      <path class="cls-1" d="M48.66,66.94c.43-.04.86-.08,1.29-.12,0,.03,0,.06,0,.1l-1.29.06s0-.02,0-.04Z"/>
      <path class="cls-1" d="M9.75,68.24c.05.12.09.22.13.32-.23.07-.41-.05-.44-.29.1,0,.19-.02.3-.03Z"/>
      <path class="cls-1" d="M81.14,83.65c.14-.16.28-.31.51-.28.02.03.03.06.05.09-.17.08-.34.17-.51.25-.01-.02-.03-.04-.04-.06Z"/>
      <path class="cls-1" d="M36.21,93.94c-.49,0-.98,0-1.47,0,.49,0,.98,0,1.47,0,0,0,0,0,0,0Z"/>
      <path class="cls-1" d="M64.89,62.78c.03.05.06.11.09.17-.22.08-.42.16-.63.23-.01-.02-.02-.04-.03-.07.13-.06.27-.11.4-.18.07-.04.12-.1.17-.16,0,0,0,0,0,0Z"/>
      <path class="cls-1" d="M48.28,66.99h-.7s0-.02,0-.04h.7s0,.02,0,.04Z"/>
      <path class="cls-1" d="M24.53,51.9h-.43c.09-.13.14-.22.2-.31.42.17.87.28,1.13.71.04.07.09.14.12.22.07.21.25.24.43.12.13-.08.31-.13.46-.11.34.05.67.15,1,.24.97.27,1.94.55,2.91.83.44.13.87.33,1.32.44.74.17,1.48.33,2.23.43.84.12,1.68.22,2.52.26,1.07.06,2.15.05,3.23.07.81.01,1.63.06,2.44.03.83-.04,1.65-.16,2.47-.23.72-.06,1.45-.09,2.17-.15,1.11-.09,2.22-.19,3.32-.31,1.59-.18,3.17-.37,4.76-.6.82-.12,1.63-.32,2.44-.5.5-.11.98-.27,1.48-.38.11-.03.32,0,.34.05.04.12.03.28-.02.4-.1.24-.31.35-.57.41-.76.18-1.53.29-2.31.38-.86.09-1.71.3-2.56.45-.42.08-.85.15-1.28.22-.57.09-1.14.19-1.71.26-.61.07-1.22.12-1.83.16-.68.04-1.36.07-2.04.08-.65.01-1.31,0-1.96,0-1.05,0-2.09.03-3.14.03-.35,0-.71-.03-1.06-.05-.04,0-.09-.02-.13,0-.44.17-.9.2-1.37.21-.56.02-1.11.14-1.67.13-.76-.02-1.51-.1-2.26-.18-.98-.1-1.96-.2-2.93-.33-.5-.07-1.01-.17-1.5-.29-.9-.22-1.8-.43-2.68-.7-.77-.24-1.55-.51-2.27-.85-.36-.17-.62-.55-.93-.84-.12-.11-.22-.25-.3-.33Z"/>
      <path class="cls-1" d="M61.96,56.63c.21-.27.44-.33.62-.16-.06.05-.12.09-.17.14.01.02.03.04.04.06-.15-.01-.31-.02-.48-.03Z"/>
      <path class="cls-1" d="M54.22,19.7c-.19.07-.33.13-.48.16-.5.1-1,.19-1.5.29-.62.12-1.23.3-1.85.37-.23.03-.47.04-.71.07-.02,0-.04.02-.06.02-.12.01-.25.02-.37.03-.29.05-.57.12-.86.26.11.04.2.1.28.1.78-.02,1.55-.04,2.33-.08.63-.04,1.26-.11,1.88-.16.14-.01.25,0,.36.16.18.29.85.2.97-.12.13-.35.05-.72.01-1.11Z"/>
      <path class="cls-1" d="M51.84,14.2c.1.54-1.61,2.03-2.5,2.23.05-.25.27-.44,1.18-1.12.45-.34.86-.72,1.32-1.11Z"/>
      <path class="cls-1" d="M53.96,10.28c-.08.11-.14.22-.23.32-.2.24-.39.48-.61.7-.09.09-.25.13-.35.21-.22.18-.41.38-.63.56-.19.15-.39.29-.59.43-.02-.02-.04-.04-.06-.06.04-.06.07-.14.12-.19.23-.21.49-.4.71-.63.35-.36.78-.65,1.06-1.09.1-.16.33-.24.5-.35l.08.09Z"/>
      <path class="cls-1" d="M50.19,13.64s.01-.11.04-.14c.15-.17.3-.35.45-.51.17-.18.36-.12.58-.02-.35.24-.68.48-1.01.71-.02-.01-.04-.02-.06-.03Z"/>
      <path class="cls-1" d="M41.78,14.82c.3.27.61.54.92.82-.01.01-.02.03-.03.04-.23-.12-.46-.27-.7-.35-.75-.25-1.41-.66-2.08-1.08-.81-.5-1.48-1.14-2.12-1.83-.05-.05-.02-.17-.02-.26l.09-.02c.16.18.29.38.47.54.28.25.58.49.89.71.35.24.73.43,1.09.65.45.28.92.46,1.45.48.08,0,.15.08.23.12-.06.06-.12.12-.18.18Z"/>
    </g>
  </g>
</svg>