<?xml version="1.0" encoding="UTF-8"?>
<svg id="Layer_2" data-name="Layer 2" xmlns="http://www.w3.org/2000/svg" viewBox="0 0 80.88 61.75">
  <defs>
    <style>
      .cls-1 {
        fill: #000;
        stroke-width: 0px;
      }
    </style>
  </defs>
  <g id="illustrations">
    <g>
      <path class="cls-1" d="M73.84,57.47c.71-.52,1.61-.7,2.45-.87.4-.08.81-.15,1.2-.28.46-.15.88-.41,1.29-.66.36-.22.7-.43.98-.74.03-.07.05-.13.08-.19-.02,0-.05.01-.07.01-.05-.21-.11-.41-.16-.64.23-.05.44.03.64.1.07-.14.15-.28.21-.42.05-.11.09-.21.13-.32,0-.04.02-.1.03-.15-.05,0-.09,0-.21-.02.37-.17.33-.34.04-.51.07-.04.13-.05.16-.08.09-.15.28-.39.25-.43-.16-.18-.05-.32.03-.51-.08.04-.12.06-.15.08.27-.45,0-.75-.26-1.07.08.01.14.02.27.04-.54-.47-1.06-.85-1.66-1.09-.4-.16-.74-.46-1.21-.5-.26-.02-.49-.24-.75-.34-.17-.07-.38-.04-.55-.12-.47-.22-.92-.48-1.35-.71.29-.08.55-.3.52-.66-.03-.36.02-.75-.24-1.08-.07-.09-.08-.22-.09-.34-.02-.19.03-.41-.03-.58-.13-.39-.32-.76-.49-1.14-.14-.05-.26-.12-.33-.23-.27-.38-.59-.69-1.02-.88-.63-.27-1.24-.58-1.89-.81-.64-.23-1.3-.41-1.97-.57-.45-.11-.94-.12-1.38-.26-.32-.1-.62-.23-.97-.24-.12,0-.24-.04-.35-.06-.64-.11-1.28-.23-1.92-.34-.19-.03-.38-.04-.56-.1-.15-.05-.32-.13-.4-.25-.14-.22-.34-.28-.55-.11-.05.04-.14.07-.21.06-.15-.03-.31-.08-.45-.15-.38-.2-.77-.33-1.21-.32-.06,0-.13-.04-.18-.08-.16-.16-.32-.23-.58-.23-.39,0-.79-.11-1.18-.18-.11-.02-.21-.05-.32-.08-.43-.13-.42-.22-.5-.65-.06-.35-.28-.68-.46-1.01-.06-.11-.21-.23-.33-.25-.37-.06-.74-.08-1.11-.12-.52-.05-.69.1-.7.58,0,.24-.04.49.02.72.06.25-.05.31-.23.34-.33.05-.67.09-1,.12-.27.02-.53.01-.8.04-.31.02-.61.07-.92.1-.16.02-.32.06-.47.04-.49-.06-.98-.2-1.47-.21-.37,0-.73-.02-1.08-.13-.41-.13-.84-.22-1.24-.38-.29-.12-.54-.34-.82-.51-.32-.19-.63-.38-1.02-.38-.05,0-.1-.02-.15-.03-.36-.14-.7-.38-1.13-.28-.1.02-.25-.06-.34-.13-.4-.33-.82-.65-1.18-1.02-.55-.57-1.06-1.18-1.6-1.77-.18-.2-.44-.34-.6-.55-.41-.54-.8-1.09-1.17-1.65-.64-.97-1.25-1.96-1.88-2.94-.59-.92-1.15-1.85-1.77-2.74-.61-.88-1.3-1.71-1.91-2.58-.86-1.22-1.78-2.39-2.82-3.46-.19-.19-.42-.36-.54-.59-.34-.65-.9-1.11-1.33-1.68-.39-.51-.82-.99-1.22-1.48-.46-.55-.9-1.12-1.37-1.67-.56-.65-1.14-1.28-1.71-1.91-.21-.23-.42-.45-.63-.68-.1-.11-.18-.23-.27-.35.03-.02.08-.07.15-.12-.5-.58-1-1.12-1.46-1.7-.67-.84-1.5-1.54-2.04-2.49-.24-.42-.62-.76-.95-1.12-.22-.25-.48-.47-.7-.72-.59-.67-1.15-1.37-1.75-2.03-.37-.4-.79-.75-1.19-1.11-.11-.1-.28-.17-.36-.3-.33-.5-.64-1.02-.94-1.54-.21-.36-.45-.67-.84-.86-.61-.31-.9-.29-1.41.16-.09.08-.15.18-.23.26-.55.58-1.12,1.15-1.53,1.85-.35.6-.76,1.16-1.13,1.75-.11.17-.16.38-.23.54-.41.08-.85.17-1.31.26-.02-.07-.03-.19-.07-.29-.04-.12-.11-.23-.17-.33-.14-.23-.38-.34-.6-.19-.23.16-.42.38-.59.59-.15.19-.25.42-.41.6-.35.39-.73.76-1.09,1.14-.1.11-.18.23-.29.33-.44.4-.91.78-1.32,1.21-.43.45-.82.94-1.19,1.44-.39.53-.75,1.09-1.12,1.64-.1.16-.16.34-.23.52-.2.44-.28.94-.63,1.31.11.25.09.31-.14.48-.31.23-.44.49-.38.81.02-.28.18-.44.45-.53-.04.17-.17.32-.16.46.02.31-.12.27-.29.2-.27.37.02.36.27.36-.07.12-.11.21-.16.3-.11-.07-.2-.14-.34-.23-.04.19-.07.37-.12.54-.15.51-.31,1.02-.46,1.53-.19.64-.4,1.28-.54,1.94-.1.43-.13.89-.14,1.33-.02.58-.03,1.16.02,1.73.05.54.16,1.07.29,1.6.09.38.29.72.23,1.14-.03.21.05.47.14.67.13.27.31.5.49.75.08.12.2.22.28.34.18.26.37.52.52.8.24.47.45.96.68,1.43.08.17.17.33.27.48.11.15.29.27.35.44.14.38.48.66.58,1.06,0,.03.06.05.1.07.06.04.13.07.17.12.25.33.49.67.72,1.01.06.08.09.19.15.33.23-.02.26.24.33.43.18.41.3.83.48,1.24.16.37.34.72.55,1.06.28.47.45.99.72,1.46.08.13.11.29.17.43.03.08.05.21.11.22.24.07.21.22.17.34.07.12.12.2.16.3.04.1.04.22.09.31.12.22.27.42.31.69.05.32.21.62.32.93.08.23.14.47.21.71.11.34.27.67.33,1.02.09.46.1.93.15,1.4.02.16.02.33.07.49.05.2.2.4.2.59,0,.59.23,1.13.33,1.7.13.71.23,1.43.32,2.15.06.51.1,1.02.13,1.52.05.84.09,1.68.11,2.52.02.54.03,1.08.02,1.62,0,.36-.07.71-.11,1.06-.03.24-.04.48-.08.72-.04.2-.11.39-.18.62h.24c0,.28,0,.54,0,.8,0,.04-.07.08-.11.11-.03.02-.09.04-.09.05.05.21-.18.44.04.64.02.02.02.06.01.05-.12.05-.22.09-.32.13,0,.03,0,.06,0,.1.22-.11.3-.02.31.19-.35.09-.31.33-.16.62-.11-.04-.16-.06-.22-.09,0,.11-.02.2-.02.29,0,.18-.02.35,0,.53.02.26.1.3.34.24.08-.02.16-.01.24,0,.14,0,.28.04.42.04.11,0,.23-.06.34-.07.37-.04.75-.07,1.12-.09.08,0,.16,0,.23.03.25.11.54.1.69-.09.19-.22.49-.38.5-.74,0-.17.02-.34.02-.51,0-.37-.31-.75-.62-.7-.32.05-.64.16-.95.24-.26.07-.53.15-.79.21-.14.03-.2-.05-.17-.17.05-.19-.1-.4.08-.57.03-.02,0-.1,0-.15-.01-.14-.06-.29-.05-.43.03-.37.08-.73.12-1.1.06-.47.11-.94.17-1.41q-.24-.13-.15-.43c-.22-.13-.13-.21.03-.29.08.07.16.14.29.25v-.43s.1-.06.14-.08c0-.1-.02-.19,0-.26.09-.35.19-.7.28-1.05,0-.03-.02-.07-.03-.11-.04.01-.11.01-.12.04-.03.06-.04.14-.06.21-.08.33-.17.67-.27,1.07-.12-.13-.28-.23-.26-.29.11-.42.04-.84.04-1.26,0-.49.04-.98.01-1.46-.07-1.05-.06-2.1-.29-3.14-.22-1.04-.39-2.08-.6-3.12-.15-.69-.29-1.39-.37-2.09-.09-.74-.25-1.49-.47-2.2-.25-.84-.57-1.66-.91-2.47-.39-.93-.82-1.85-1.25-2.77-.3-.64-.6-1.29-.94-1.91-.33-.59-.71-1.15-1.07-1.72-.22-.35-.46-.7-.69-1.05-.21-.32-.43-.64-.62-.97-.13-.21-.22-.44-.33-.67.65.27,1.25.56,1.85.87.21.1.4.23.6.35.54.35,1.07.73,1.62,1.07.44.27.87.54,1.25.88.08.07.17.11.26.17.25.17.58.3.71.54.13.23.34.29.46.39v.21c.06-.03.12-.06.17-.09.82.51,1.58,1.14,2.49,1.43-.42,2.23-.84,4.46-1.25,6.67.34.19.34.21.14.49-.09.13-.12.31-.19.49h.23c-.1.15-.18.3-.27.44.02.01.04.02.05.03.09-.06.17-.12.26-.18l.06.07c-.08.08-.16.16-.24.23-.15.13-.15.13-.07.33.06-.11.11-.19.16-.26.03,0,.06,0,.06.01.16.28.11.82-.12,1.06-.11.11-.14.21-.11.36s0,.3,0,.46c0,0,0,0,0,0v.62c.13-.04.21-.07.31-.11-.03.48-.03.52.08.62-.13.22-.27.45-.42.7.05.02.12.06.19.06.07,0,.14-.04.21-.06-.37.29-.38.37-.02.56-.02.2-.03.4-.05.61-.04.02-.08.04-.11.06-.02-.06-.04-.12-.05-.18-.03.02-.05.05-.08.07.1.12.19.23.3.36-.09.03-.16.05-.17.05.03.27.06.51.08.75,0,.12,0,.25-.01.37.02.11,0,.22,0,.34-.01.21,0,.43-.02.64,0,.08-.09.18-.07.25.14.34.03.69.03,1.03,0,.08.03.23,0,.24-.19.08-.06.21-.06.33.08-.08.16-.16.18-.26.06-.29.08-.58.14-.86.14-.59-.04-1.21.19-1.79.06-.15-.02-.35-.01-.52.02-.72.09-1.43.07-2.15-.04-1.44.09-2.86.22-4.29.09-.98.2-1.97.35-2.94.16-1.04.38-2.07.58-3.1.06-.3.15-.59.23-.92.11.05.18.07.24.11.57.36,1.15.71,1.71,1.09.42.28.8.6,1.22.88.28.19.47.42.48.77,0,.16-.05.35.02.48.24.5.21,1.04.34,1.56,0,.04.03.08.02.11-.13.4.04.79.08,1.18.05.41.16.81.23,1.21.05.28.09.57.1.86.01.28-.03.56,0,.83.03.39.09.77.14,1.15.02.14.08.27.09.41.03.35.02.71.07,1.06.1.65.12,1.32.35,1.95,0,.03-.02.06-.02.1,0,.11,0,.21.02.32.03.23.08.45.1.68.04.32.06.65.08.97.04.59.08,1.18.12,1.78.02.33.01.66.04,1,.03.37.21.57.58.68.06-.12.12-.24.18-.36.09.03.16.06.17.06.19-.06.33-.1.46-.14.28-.03.56-.02.85-.04.09,0,.2-.07.25-.14.16-.21.21-.46.19-.72-.03-.37-.07-.73-.1-1.1-.01-.12,0-.25-.02-.38-.06-.75-.13-1.5-.18-2.25-.02-.4,0-.8.02-1.2,0-.38.02-.75.02-1.13,0-.42.02-.84.01-1.25,0-.48-.06-.96-.06-1.44,0-.99.04-1.98.05-2.96,0-.19-.05-.39-.08-.62.21.12.42.19.57.32.24.22.44.5.67.74.31.32.64.61.94.93.32.35.62.73.92,1.09.36.43.74.85,1.09,1.29.29.36.55.73.82,1.1.34.47.67.95,1.01,1.43.29.41.58.81.87,1.22.13.18.26.36.4.53.12.14.27.27.39.41.1.12.17.28.27.4.44.52.97.95,1.24,1.62.13.32.42.57.64.85.23.28.47.55.68.85.33.45.64.92.95,1.38.05.08.13.2.1.27-.08.23.07.33.19.44.49.46,1.19.68,1.58,1.27,0,0,.01,0,.02.01.17.15.37.28.52.46.37.42.7.89,1.09,1.29.28.29.62.53.94.77.21.16.39.32.44.61.04.22.1.47.24.61.24.24.53.47.84.6.6.25,1.22.42,1.84.63.23.08.49.26.69.22.33-.07.6.11.91.1.18,0,.36.04.53.08.59.15,1.17.33,1.79.32.19,0,.38.03.56.06.15.02.29.08.44.11.15.02.3.02.49.03,0,0,.03-.06.04-.07.2.05.33.11.45.11.38-.01.76-.04,1.14-.07.15-.01.3-.05.44-.05.27-.01.55.03.82-.02.35-.07.73.05,1.06-.14.02-.01.06.01.1.01.15.01.3.03.44.03.53-.01,1.05-.02,1.58-.06.31-.02.6-.11.93-.07.25.03.52-.08.79-.12.31-.05.63-.06.93-.12.19-.04.37-.1.55.02.02.01.05,0,.07,0,.35-.08.71-.17,1.06-.24.6-.11,1.21-.19,1.81-.31,1.23-.24,2.45-.51,3.68-.73,1.47-.26,2.94-.45,4.41-.7.6-.1,1.19-.25,1.78-.39.29-.07.58-.16.86-.24.21-.06.43-.14.64-.21.43-.15.9-.11,1.3-.35.04-.02.1,0,.15,0,.3-.05.6-.1.89-.16.35-.07.7-.16,1.05-.25.16-.04.34-.05.5-.08,0,0,0,0,0,0ZM75.39,48.91c.06.04.07.17.13.32.12-.22.19-.31.33-.09.15.24.34.39.69.26.12-.04.33.15.5.24.06.03.14.13.17.12.25-.09.36.05.5.22.06.07.24.05.4.08,0,0,.03.06.03.11,0,.18.1.18.24.14.07-.02.17-.06.21-.03.34.23.71.4.99.75.22.27.28.58.41.87.03.06.03.16,0,.21-.12.15-.08.27,0,.41.02.04.01.15,0,.15-.18.04-.28.28-.52.23-.08-.02-.21.09-.29.18-.03.03.03.15.05.24-.07.05-.18.12-.31.21.08.05.14.09.2.13,0,0-.02.03-.02.03-.21-.12-.31.1-.47.14-.39.09-.79.17-1.18.25-.22.05-.44.12-.66.16-.22.04-.45.02-.66.08-.83.23-1.65.48-2.49.7-.42.11-.85.16-1.28.24-.68.12-1.35.25-2.03.35-.61.09-1.23.14-1.84.22-.69.09-1.37.2-2.06.3-.55.08-1.11.14-1.66.23-.58.09-1.16.23-1.74.3-.63.08-1.27.11-1.9.16-.06,0-.13-.02-.17,0-.28.15-.49.13-.66-.19-.15-.28-.41-.51-.55-.8-.19-.38-.33-.78-.45-1.19-.13-.45-.19-.91-.16-1.39.02-.32,0-.64.03-.95.07-.63.16-1.26.24-1.89.04-.29.07-.58.13-.86.1-.47.21-.93.33-1.39.12-.43.27-.86.39-1.29.11-.39.19-.78.3-1.17.01-.05.12-.11.19-.11.13-.01.29-.04.39.02.29.15.58.02.87.07.33.06.66.06.99.09.11,0,.22,0,.32-.02.21-.05.37-.03.5.16.06.08.15.2.29.06.02-.02.08,0,.12,0,.31,0,.61,0,.92,0,0,.03-.03.1-.06.23.21-.06.37-.12.53-.16.09-.02.19.01.28,0,.33-.04.66.16.99-.02.06-.03.16-.04.21,0,.3.21.6.11.9.01.09-.03.2-.02.32-.03.02.32.18.46.41.33.24-.13.42-.02.62.02.06.01.13.07.16.05.31-.16.58.06.87.07.04,0,.11.08.12.14.03.12.26.28.36.22.03-.02.04-.08.06-.11.15.41.54.28.85.4-.07-.09-.12-.15-.17-.21,0-.02.01-.04.02-.06.12.03.25.04.35.11.23.14.42.39.66.45.35.09.6.47,1.02.31.05-.02.12.02.22.03-.21.24-.05.29.13.39.47.25.93.52,1.39.8ZM59,40.55c.06-.23.12-.45.17-.68.22.04.41.06.57.12.1.04.17.17.25.26.1.11.17.19.3,0,.04-.06.34-.06.38,0,.16.24.29.2.46.03.01-.01.05-.01.08-.02v.27c.13-.02.24-.06.36-.06.09,0,.19,0,.27.04.11.04.2.11.31.16.07.04.15.07.22.1.17.07.35.15.47.04.12.08.21.15.32.2.13.06.27.1.41.14.05.01.13.02.16,0,.16-.16.24-.06.27.04.15.16.34-.19.44.12-.09.02-.16.03-.24.05.09.17.11.18.26.08.24-.15.3-.13.43.12.03.05.13.07.2.07.15-.01.29-.14.44.02.03.03.14-.02.15-.03.16.08.26.13.36.19.07.04.12.1.19.16.04-.06.09-.12.13-.18.02.01.04.02.06.03-.02.06-.04.13-.06.2.25.1.33-.1.47-.26.11.06.23.14.35.19.12.04.25.06.37.07.33.03.68-.02.98.19.05.03.11.04.17.05.3.04.6.07.9.13.1.02.19.11.31.12.13.04.26.08.39.12.17.07.34.14.53.22-.08.19.11.27.25.34.13.06.25,0,.31-.17.01-.04.17-.08.22-.05.13.07.23.18.34.27-.05.1-.1.17-.16.29.37-.02.15-.45.45-.49.1.27.31.17.52.1v.08c-.15.05-.3.1-.45.14.02.21.02.19.2.11.12-.05.29-.02.43.01.1.02.18.1.33.19-.16.02-.25.03-.34.04,0,.02,0,.04.01.05.13.11.27.19.35.37.11.23.41.26.65.31.39.08.57.34.65.7.1.46.21.92.3,1.38.01.05-.04.14-.09.18-.17.11-.15.24-.05.38.03.04.08.12.07.13-.05.05-.12.12-.18.11-.17-.01-.35-.03-.52-.09-.82-.3-1.64-.62-2.47-.91-.65-.23-1.31-.41-1.96-.62-.03,0-.06-.02-.1-.02-.39-.05-.77-.09-1.16-.13-.2-.02-.4-.03-.6-.06-.09-.01-.17-.08-.24-.12-.1.02-.21.07-.31.05-.44-.08-.88-.2-1.33-.27-.38-.06-.76-.06-1.14-.08-.11,0-.23,0-.32-.04-.49-.25-1.02-.12-1.53-.17-.52-.06-1.03-.1-1.55-.17-.05,0-.11-.12-.13-.19-.11-.3-.15-.65-.33-.9-.2-.29-.55-.4-.92-.42-.2-.01-.4-.05-.59-.09-.15-.03-.35-.37-.37-.55-.06-.56-.14-1.12-.19-1.68,0-.1.06-.21.08-.31ZM11.64,4.97c.07-.43.31-.85.59-1.23.12-.17.31-.28.51-.25.19-.22.37-.45.57-.67.09-.1.27-.13.41-.2.01.02.03.03.04.05,0-.07.02-.13.03-.23.21.13.24.02.28-.15.03-.11.14-.19.23-.32.06.08.13.17.21.29.01-.07.02-.12.03-.21.45.46.88.9,1.29,1.34.16.17.26.4.42.58.17.21.38.39.56.59.27.31.54.62.79.93.38.47.77.93,1.14,1.42.46.62.9,1.26,1.35,1.89.2.28.4.55.58.84.12.19.19.42.29.62.03.07.11.11.17.17.02-.02.04-.04.06-.06-.11-.18-.22-.37-.34-.55.03-.02.05-.03.08-.05l.81,1.29s-.02.02-.04.04c-.06-.03-.13-.05-.19-.08-.02.01-.03.03-.05.04.52.72,1.1,1.4,1.6,2.13.03.03.07.06.09.09.86,1.14,1.54,2.4,2.24,3.65.39.33.77.69,1.1,1.1.06.07.11.15.17.23.4.4.81.8,1.22,1.19.18.18.41.31.62.46.05.04.11.08.15.13.34.42.67.83,1,1.25.06.08.1.18.16.28.27-.02.39.21.54.39.09.11.19.2.28.31.08.1.13.23.21.32.18.18.27.43.43.6.26.27.36.67.65.88.49.35.89.79,1.19,1.29.21.35.48.64.74.95.12.13.32.24.29.48,0,.02.03.06.06.08.44.32.69.78.97,1.22.15.25.33.48.51.7.02.03.13-.01.26-.02.04.14.1.33.17.52.04.11.09.22.16.31.21.26.43.52.65.77.02.02.05.04.08.04.27,0,.21.12.13.22.17.22.33.42.48.63.12.16.22.33.34.49.08.11.18.2.25.32.2.31.35.65.59.93.39.45.68.97,1.01,1.46.17.26.41.46.61.7.3.36.6.72.87,1.11.11.16.38.15.4.39,0,0,.09,0,.18,0-.2-.24-.37-.46-.54-.67-.4-.49-.83-.95-1.15-1.5-.19-.32-.44-.61-.66-.92-.26-.37-.54-.73-.79-1.11-.11-.16-.14-.38-.24-.54-.21-.33-.47-.63-.69-.95-.25-.37-.47-.75-.72-1.12-.08-.12-.2-.22-.31-.33-.05-.05-.13-.09-.14-.14-.09-.5-.49-.77-.76-1.14-.11-.15-.35-.27-.25-.55.02-.05-.18-.18-.29-.28-.09-.08-.21-.15-.28-.25-.21-.32-.4-.66-.62-.99-.04-.06-.15-.08-.22-.12-.07-.03-.14-.07-.25-.12.15-.03.23-.05.31-.07-.04-.07-.07-.14-.11-.21-.12-.19-.23-.39-.36-.57-.04-.06-.14-.08-.21-.11-.14-.06-.23-.12-.08-.24-.46-.57-.92-1.15-1.38-1.71-.55-.67-1.15-1.31-1.67-2-.59-.79-1.3-1.43-2.03-2.08-.12-.11-.28-.19-.4-.3-.04-.04-.04-.13-.07-.24-.49-.16-.77-.67-1.15-1.07-.32-.33-.57-.75-.94-1.02-.38-.29-.64-.68-.98-.99-.05-.04-.01-.17-.04-.24-.1-.22-.24-.38-.55-.21,0-.03-.02-.05-.02-.08.05-.1.1-.2.19-.35-.05-.06-.14-.17-.24-.28.04-.02.08-.03.09-.04-.03-.16-.03-.32-.09-.46-.08-.16-.21-.3-.32-.45-.45-.62-.91-1.25-1.38-1.9.1-.02.15-.03.14-.03-.31-.43-.64-.87-.95-1.32-.7-1.03-1.36-2.08-2.08-3.09-.52-.74-1.11-1.43-1.66-2.15-.25-.32-.47-.66-.7-.99.02-.02.05-.04.07-.06.06.05.13.1.18.16.49.66,1.1,1.22,1.68,1.8.33.34.66.69.96,1.05.36.42.69.87,1.05,1.3.72.85,1.48,1.66,2.16,2.53.77.98,1.7,1.83,2.35,2.91.26.43.63.81.99,1.17.3.29.5.61.67.98.09.2.31.34.47.51.24.27.54.47.74.79.23.36.57.64.86.96.31.33.64.65.94,1,.2.23.36.49.55.73.2.27.39.54.61.79.28.31.6.59.87.91.53.64,1.03,1.3,1.56,1.94.31.39.65.75.97,1.13.02.02.05.05.06.08.13.52.53.85.83,1.25.41.55.83,1.09,1.25,1.63.02.03.01.09.02.13.01.05.02.12.04.13.44.16.5.62.73.93.41.56.77,1.17,1.14,1.76.07.12.13.18.2.08.17.36.34.71.52,1.05.13.24.27.48.41.71.04.07.11.17.16.17.43-.01.38.41.57.61.04.05.05.12.09.18.13.21.25.43.4.63.09.13.23.23.34.34.01.01.04,0,.04.02.12.4.52.55.76.83.19.22.42.4.6.62.32.37.59.78.93,1.14.34.36.74.68,1.11,1.02.07.06.16.12.18.2.07.24.25.27.46.3.33.06.65.16.97.25.09.02.17.06.26.06.45.02.74.36,1.11.54.16.08.35.1.52.17.09.03.16.1.24.15.12.08.27.24.37.21.19-.05.2.08.3.16.24.2.52.33.85.3.18-.01.38,0,.55.05.42.16.84.18,1.28.11.06-.01.16.01.2.06.14.15.27.15.47.11.25-.04.53-.2.78.03.01,0,.03.01.05.01.38-.03.77-.05,1.15-.1.5-.07,1-.18,1.5-.26.3-.05.45.15.5.5.13.87.24,1.74.53,2.57.1.28.22.55.33.83.01.03,0,.08,0,.12-.86-.03-1.67.25-2.49.37-.05,0-.11.03-.15,0-.39-.22-.78.05-1.17,0-.44-.05-.91.07-1.32-.06-.32-.1-.64-.16-.97-.2-.12-.02-.24.05-.36.03-.21-.03-.42-.09-.64-.13-.14-.03-.29-.04-.43-.06-.27-.05-.54-.07-.79-.17-.42-.16-.85-.33-1.24-.55-.32-.18-.57-.47-.88-.67-.32-.21-.67-.37-1.08-.24-.1.03-.25-.02-.35-.08-.48-.31-.94-.64-1.42-.95-.58-.38-1.17-.75-1.74-1.13-.12-.08-.2-.22-.3-.32-.56-.55-1.12-1.09-1.67-1.64-.32-.33-.58-.71-.91-1.02-.82-.77-1.42-1.72-2.18-2.54-.36-.38-.6-.86-.93-1.27-.47-.57-.98-1.11-1.46-1.68-.35-.42-.68-.85-1.03-1.27-.27-.32-.56-.63-.82-.96-.31-.39-.57-.82-.9-1.19-.64-.74-1.3-1.45-1.96-2.17-.68-.75-1.39-1.47-2.05-2.23-.14-.15-.15-.41-.22-.63-.01-.03,0-.07-.01-.1-.02-.03-.04-.06-.05-.09-.07-.08-.15-.16-.22-.23-.11-.12-.22-.24-.32-.36,0,.05,0,.11,0,.16-.42-.66-1-1.16-1.55-1.7-.72-.7-1.39-1.47-2.11-2.17-1-.96-1.93-2-2.8-3.08-.71-.88-1.36-1.8-2.02-2.72-.16-.22-.25-.49-.4-.72-.83-1.28-1.85-2.39-2.96-3.43-.7-.49-1.38-.99-2.07-1.48-.58-.42-1.31-.68-1.78-1.24-.28-.33-.37-.68-.34-1.02-.02,0-.03,0-.05-.01.02-.03.04-.07.06-.1ZM10.98,6.86s.09-.08.14-.09c.14-.03.27-.05.37-.02.31.23.61.47.93.68.52.33,1.09.58,1.56.96.7.55,1.36,1.14,1.97,1.79.64.67,1.2,1.42,1.78,2.14.4.5.79,1.01,1.18,1.52.39.52.73,1.07,1.14,1.56.81.97,1.65,1.92,2.5,2.86.53.58,1.13,1.11,1.68,1.68.19.19.35.43.55.61.35.33.72.62,1.06.95.17.17.29.39.42.59.12.17.31.28.27.55-.01.09.2.2.29.32.26.32.53.64.77.97.02.03.04.07.05.11.05.04.1.08.16.12,0-.04.01-.07.02-.11.03,0,.05.01.08.02-.01.05-.02.1-.03.14.07.05.14.1.21.16.26.23.48.49.68.77.06.09.08.2.07.31.11.12.21.23.32.35.37.38.74.75,1.12,1.11.4.37.81.73,1.21,1.1.25.24.51.48.7.76.4.61.92,1.13,1.31,1.76.12.2.35.33.49.52.08.1.11.26.16.39.01.04.02.08.04.11.42.47.85.94,1.27,1.42.23.26.44.54.68.8.08.09.19.16.33.27.19-.1.28.15.41.27.13.12.22.29.33.45-.1.02-.18.03-.27.05.02.05.02.1.04.12.37.23.67.54.92.89.09.12.26.16.24.37,0,.06.14.13.21.2.03.03.08.05.08.08,0,.4.36.56.57.81.35.41.72.8,1.08,1.2.14.15.29.28.43.42.2.19.39.38.59.58.66.64,1.31,1.29,1.97,1.91.14.13.37.17.53.28.53.37,1.05.75,1.59,1.12.37.25.74.48,1.18.61.36.11.69.33,1.03.51.03.02.03.09.05.17.06,0,.16-.02.26-.02.06,0,.14-.01.19.02.6.37,1.28.49,1.93.71.25.09.55.05.8.13.63.21,1.29.13,1.93.19.8.07,1.6.09,2.41.12.41.01.82.01,1.23-.02.5-.04.98,0,1.45.16.14.05.29.07.29.24-.12.09-.22.15-.32.24-.41.35-.83.68-1.21,1.05-.68.65-1.52,1.02-2.4,1.3-.41.13-.83.24-1.22.42-.48.23-.95.28-1.46.19-.26-.04-.53-.03-.8-.04-.71-.03-1.37-.28-2.05-.44-.42-.1-.84-.2-1.26-.33-.37-.11-.74-.24-1.09-.4-.76-.37-1.53-.74-2.26-1.16-.55-.32-1.06-.7-1.56-1.09-.59-.46-1.2-.92-1.73-1.44-.92-.91-1.83-1.84-2.6-2.89-.29-.39-.57-.78-.86-1.17-.04-.06-.11-.1-.16-.16-.05-.06-.2-.09-.06-.21.01,0-.05-.11-.09-.16-.61-.83-1.24-1.64-1.82-2.48-.49-.7-.92-1.45-1.38-2.17-.21-.32-.44-.64-.66-.95-.57-.8-1.08-1.65-1.72-2.39-1.29-1.49-2.66-2.91-3.99-4.36-.65-.7-1.28-1.42-1.93-2.12-.55-.59-1.11-1.16-1.65-1.75-.33-.36-.62-.77-.96-1.13-.5-.54-1.03-1.06-1.54-1.59-.76-.78-1.35-1.69-1.95-2.59-.52-.79-1.15-1.51-1.7-2.29-.07-.09-.13-.19-.19-.29-.05-.02-.09-.05-.13-.08-.44-.4-.81-.87-1.17-1.34-.24-.32-.47-.65-.69-.98,0,.02-.01.05-.02.07-.01.12,0,.25.02.46-.2-.16-.37-.26-.49-.41-.59-.79-1.17-1.59-1.75-2.39-.37-.51-.72-1.03-1.07-1.54-.35-.5-.68-1.01-1.04-1.5-.15-.21-.11-.39-.03-.58ZM20.82,42.03c0,.48,0,.95,0,1.43,0,.31-.04.63-.05.94-.01.44,0,.88,0,1.31,0,.35,0,.71.02,1.06.02.32.08.64.09.96.02.6,0,1.21.01,1.82,0,.26.05.52.05.77,0,.15.02.33-.05.44-.05.08-.25.07-.38.08-.07,0-.14-.04-.24-.07,0-.04.01-.07,0-.1-.25-.73-.17-1.5-.28-2.25-.11-.76-.12-1.53-.19-2.29-.02-.23-.12-.45-.16-.68-.05-.31-.06-.63,0-.94.04-.22.01-.45,0-.68-.02-.5-.05-1-.08-1.5-.04-.57-.08-1.15-.12-1.72-.05-.65-.09-1.31-.14-1.96-.02-.33-.04-.66-.07-1.07.26.23.45.41.65.58.25.21.51.4.76.6.05.04.11.11.12.17.06.64.11,1.29.16,1.93.03.4.04.8.06,1.2,0,.16,0,.33,0,.49-.03,0-.05,0-.08,0v-.54s-.04,0-.07,0ZM36.68,55.38c-.39-.29-.79-.57-1.17-.88-.95-.76-1.74-1.67-2.48-2.63-.4-.52-.84-1.01-1.25-1.53-.69-.87-1.37-1.75-2.05-2.63-.35-.45-.72-.88-1.04-1.35-.44-.63-.83-1.3-1.28-1.92-.34-.47-.75-.9-1.12-1.36-.23-.29-.41-.61-.65-.88-.44-.51-.9-1-1.37-1.49-.51-.54-1.03-1.08-1.56-1.6-.5-.49-1.03-.96-1.55-1.43-.11-.1-.23-.28-.43-.04-.55-.53-1.09-1.07-1.65-1.59-.26-.24-.56-.45-.85-.67-.82-.63-1.62-1.28-2.47-1.87-.8-.56-1.65-1.05-2.47-1.6-.97-.65-1.9-1.35-2.87-1.99-.73-.48-1.46-.96-2.26-1.34-.59-.28-1.12-.7-1.69-1.02-.71-.4-1.44-.76-2.14-1.16-.38-.21-.78-.38-1.11-.68-.24-.22-.54-.37-.79-.57-.12-.1-.19-.25-.31-.36-.09-.09-.21-.16-.32-.2-.17-.06-.13-.11,0-.2-.2-.16-.37-.31-.54-.45-.2-.17-.44-.32-.41-.64,0-.03-.02-.06-.03-.09-.42-.95-.4-1.95-.32-2.95.03-.37.05-.74.09-1.11,0-.08.04-.15.06-.23.01-.05.05-.09.05-.14-.01-.58.22-1.1.38-1.64.05-.15.16-.28.25-.43-.13-.23-.06-.43.17-.63.09-.08.13-.23.15-.35.05-.38.21-.71.38-1.05.2-.39.35-.81.5-1.23.11-.3.19-.62.31-.92.05-.14.15-.26.23-.39.11-.19.21-.38.33-.56.19-.27.4-.53.58-.8.09-.14.15-.31.19-.48.01-.04-.09-.11-.17-.2,0-.05.01-.15.02-.3.07.08.11.13.15.16.07.05.18.14.23.11.07-.03.11-.15.16-.23.03-.06.04-.17.08-.17.09-.02.2,0,.29.03.07.02.12.09.18.14.02-.02.03-.03.05-.05-.09-.15-.18-.31-.27-.46.16-.03.29-.05.35-.06.15-.18.27-.31.37-.45.04-.05.08-.13.06-.17-.09-.26.04-.44.24-.63-.01.21-.3.37-.07.54.12-.12.21-.27.35-.35.32-.19.34-.2.24-.59.36.33.48-.06.69-.17.22-.11.25-.41.51-.5.1-.03.13-.23.23-.42.18.46.51.47.83.35.16-.06.23-.01.32.07.39.37.8.73,1.17,1.12.16.16.25.39.39.57.18.22.37.42.57.61.2.19.32.41.42.65.11.27.26.53.41.78.05.07.2.08.28.14.1.07.2.15.28.24.16.2.31.4.46.6.22.22.43.46.6.73,0,0,0,.01.01.02.03.05.06.09.08.14.01.02.02.04.03.06.12.26.39.37.52.61.15.26.39.47.57.71.3.4.58.81.87,1.22.23.32.41.7.71.92.39.28.54.71.85,1.03.31.33.56.71.85,1.05.32.39.66.77.98,1.17.21.25.39.52.61.76.26.29.54.54.8.83.13.14.21.32.32.48.08.1.19.17.28.27.25.29.48.59.74.86.32.33.66.64,1.01.95.27.24.55.45.83.68.03.02.05.05.07.07.11.22.21.43.5.49.07.02.11.19.17.3.03.08.04.17.09.21.17.15.37.27.54.42.39.37.76.76,1.13,1.15.37.38.72.78,1.1,1.16.56.56,1.15,1.1,1.7,1.68.19.2.31.49.45.74.04.06.05.15.11.18.56.34.89.9,1.3,1.38.27.31.56.59.8.92,1.01,1.39,2.05,2.76,3,4.18.62.93,1.27,1.83,2,2.68.16.18.21.46.36.65.24.3.41.65.78.84.1.05.16.21.24.33-.06.03-.12.06-.17.08.01.03.01.05.02.05.31.11.41.42.6.64.06.07.1.19.17.2.21.04.29.19.38.34.06.1.14.19.21.28.16.22.31.44.46.66.02.03.06.05.1.08.22.16.44.31.66.48.19.15.41.3.55.49.22.32.5.54.8.76.33.24.59.57.92.81.52.37,1.06.71,1.61,1.03.28.16.58.27.88.41.07.04.16.07.21.13.41.51,1.07.52,1.6.78.14.07.32.02.48.04.48.06.82.42,1.25.59.25.1.49.19.75.26.12.03.26-.01.39-.03.18-.02.37-.03.55-.05,0,.02,0,.05,0,.07-.06.01-.13.02-.2.03.01.04.02.08.03.08.06.01.13.03.19.02.39-.05.76-.08,1.15.07.22.08.5-.01.75-.05.76-.11,1.5-.31,2.19-.66.26-.13.55-.19.83-.28.49-.15.97-.31,1.28-.78.01-.02.04-.02.08-.03.03.19.06.37.09.6.1-.14.35-.11.21-.36-.02-.03.09-.15.15-.22.22-.22.51-.37.72-.57.18-.16.35-.22.59-.35-.02.24-.03.42-.04.6-.02.37-.03.75-.07,1.12-.01.1-.14.18-.22.29.03,0,.1.03.14.04,0,.49,0,.98,0,1.46,0,.68,0,1.36,0,2.04,0,.38,0,.77.06,1.15.1.71.32,1.39.57,2.06.16.43.42.83.64,1.25-.02.01-.04.05-.07.05-.53.02-1.07.07-1.6.05-.41-.02-.8,0-1.2.07-.59.11-1.19.15-1.79.2-.5.05-1.02.18-1.5.1-.44-.08-.87-.03-1.29-.02-.48,0-.97.08-1.45.11-.61.04-1.23.09-1.84.1-.69.02-1.39-.02-2.08,0-.62.02-1.24.09-1.87.14-.46.04-.93.11-1.39.12-.6,0-1.2,0-1.79-.08-.41-.05-.79-.28-1.19-.34-.87-.13-1.5-.71-2.21-1.13-.56-.33-1.06-.75-1.59-1.14ZM72.97,56.58c-.24.1-.47.22-.72.3-.3.1-.6.18-.91.23-.5.09-1.01.13-1.5.22-.21.04-.39.16-.6.23-.54.19-1.08.38-1.63.55-.52.16-1.03.32-1.56.44-.58.13-1.17.21-1.75.31-.65.1-1.3.19-1.96.29-.62.09-1.24.19-1.85.28-.58.09-1.15.19-1.73.27-.37.05-.74.1-1.12.13-1.11.08-2.23.17-3.34.22-.42.02-.84-.05-1.25-.05-.72,0-1.44.02-2.16.05-.31.01-.61.09-.91.1-.42.02-.85.01-1.27.01-.71,0-1.42.01-2.13-.02-.96-.04-1.91-.1-2.86-.17-.33-.02-.65-.09-.97-.15-.78-.16-1.58-.29-2.34-.52-.35-.11-.65-.41-.97-.63-.15-.11-.29-.25-.43-.37.01-.01.02-.02.03-.04.3.17.6.37.92.5.83.34,1.69.49,2.59.43.61-.04,1.21-.11,1.82-.08.44.02.81-.12,1.21-.21.45-.11.93-.14,1.39-.17.81-.05,1.62-.07,2.42-.09.41,0,.83.02,1.24.01.37-.01.73-.07,1.1-.09.46-.02.92-.04,1.38-.05.37,0,.75-.06,1.1,0,.75.15,1.43-.11,2.15-.2.61-.07,1.22-.15,1.83.01.46.12.93.19,1.4.29.38.08.66-.13.97-.29.3-.16.65-.25.98-.32.86-.18,1.73-.33,2.6-.48.62-.1,1.24-.16,1.86-.25.26-.04.52-.1.78-.14.2-.03.41-.04.61-.04.47,0,.95-.04,1.41.03.33.05.56.02.79-.22.08-.09.29-.06.44-.09.25-.05.48-.23.77-.12.05.02.14-.09.21-.1.52-.11,1.04-.21,1.56-.3.33-.05.66-.07,1.02-.11-.16.23-.4.28-.62.37Z"/>
      <path class="cls-1" d="M2.2,21.02c-.12.12-.19.19-.29.3.1,0,.19-.01.23-.01.15.2.28.4.43.59.16.21.37.4.5.62.16.26.34.48.6.65.34.23.64.54.99.76.26.16.58.21.87.31.09.03.18.08.27.12.77.35,1.56.68,2.32,1.06.89.44,1.76.93,2.64,1.4.43.23.85.46,1.28.69,0,0,.02,0,.02.01.56.43,1.12.86,1.68,1.3.07.06.14.12.23.2-.08.05-.13.09-.18.13.58.39,1.17.78,1.75,1.17l-.04.09c-.41-.26-.82-.5-1.33-.5.1.08.19.17.29.25-.01.02-.03.04-.04.06-.1-.05-.21-.07-.28-.15-.33-.33-.79-.5-1.03-.92-.01-.02-.08-.04-.1-.03-.38.17-.67-.09-.96-.23-.41-.19-.78-.48-1.16-.74-.08-.05-.14-.14-.19-.22-.08-.1-.11-.26-.3-.19-.01,0-.03,0-.05-.02-.21-.14-.42-.27-.6-.39.11.02.28.06.44.09,0-.03.02-.05.03-.08-.21-.09-.42-.18-.63-.26-.2-.08-.4-.17-.61-.23-.16-.05-.35-.09-.31.29-.33-.56-.93-.41-1.33-.74.08-.02.15-.03.28-.06-.6-.22-1.16-.38-1.69-.62-.55-.25-1.09-.54-1.59-.88-.5-.34-.93-.77-1.4-1.16.01-.02.02-.04.04-.05.19.15.39.29.59.45.1-.36-.01-.48-.34-.69-.1-.07-.19-.16-.29-.24-.24-.21-.34-.52-.64-.7-.2-.12-.31-.39-.49-.63.14-.03.24-.06.38-.09-.13-.14-.25-.26-.36-.38-.05-.06-.07-.13-.11-.2.07-.04.14-.09.22-.11.06-.02.13,0,.27-.02ZM11.37,28.1h.41s0-.04.01-.07c-.29-.14-.59-.29-.88-.43,0,.02-.02.04-.03.05.13.08.27.14.38.23.06.05.08.14.12.22-.07.04-.14.09-.26.17.19.08.33.15.47.21,0-.02.02-.03.03-.05-.08-.11-.16-.22-.24-.33ZM12.32,28.37s-.06.04-.09.06c0,.06.01.12.02.18-.08.02-.13.04-.24.07.19.09.33.17.48.22.03.01.13-.09.13-.09-.09-.15-.19-.29-.29-.44Z"/>
      <path class="cls-1" d="M43.47,39.15c-.19-.21-.38-.43-.61-.68-.02-.05-.05-.15-.09-.28.04-.02.09-.06.12-.08.21.34.41.67.62.99-.02.02-.03.03-.05.05Z"/>
      <path class="cls-1" d="M42.54,37.82c-.09-.06-.19-.1-.26-.18-.2-.24-.33-.61-.25-.71.18.28.35.56.52.84,0,.02,0,.03-.01.05Z"/>
    </g>
  </g>
</svg>