<?xml version="1.0" encoding="UTF-8"?>
<svg id="Layer_2" data-name="Layer 2" xmlns="http://www.w3.org/2000/svg" viewBox="0 0 68.62 45.31">
  <defs>
    <style>
      .cls-1 {
        fill: #000;
        stroke-width: 0px;
      }
    </style>
  </defs>
  <g id="illustrations">
    <g>
      <path class="cls-1" d="M68.6,26.38c-.01-.41,0-.82-.07-1.22-.08-.41-.26-.8-.4-1.2-.02-.06-.07-.14-.05-.17.12-.2,0-.44-.07-.53-.16-.22-.09-.39-.03-.59.06-.19.09-.39.13-.59.05-.33.07-.67.09-1.01,0-.12,0-.25-.02-.37-.03-.29-.09-.59-.11-.88-.02-.25.04-.52-.02-.76-.18-.75-.46-1.47-.93-2.1-1.02-1.37-2.05-2.72-3.41-3.8-.69-.55-1.46-.88-2.29-1.13-1.19-.35-2.39-.69-3.57-1.06-.6-.19-1.17-.49-1.77-.69-1.05-.36-2.1-.69-3.16-1.03-.62-.2-1.23-.47-1.86-.59-1.37-.27-2.75-.54-4.15-.62-.77-.04-1.54-.16-2.31-.17-1.05-.01-2.12-.01-3.16.09-.63.06-1.24.34-1.85.53-.18.06-.28.06-.34-.15-.08-.29-.17-.58-.3-.85-.25-.52-.5-1.03-.79-1.52-.14-.25-.36-.45-.55-.68-.11-.13-.24-.26-.34-.4-.06-.09-.06-.23-.13-.3-.17-.18-.35-.35-.54-.52-.39-.35-.77-.72-1.19-1.02-.29-.21-.65-.33-.98-.49-.65-.31-1.32-.58-2.05-.66-.11-.01-.23-.06-.33-.11-.5-.29-1-.58-1.49-.89-.58-.37-1.19-.67-1.88-.74-.61-.07-1.23-.1-1.84-.14-.14,0-.28-.04-.41-.01-.35.07-.7.16-1.05.24-.38.09-.76.17-1.14.27-.63.17-1.18.58-1.87.57-.02,0-.05.01-.08.02-.29.12-.57.24-.85.36-.61.28-1.23.54-1.82.85-.69.36-1.36.76-2.04,1.14-.3.17-.6.33-.9.51-.75.46-1.5.92-2.24,1.39-.07.05-.12.15-.19.19-.31.15-.6.32-.81.6-.03.04-.09.06-.13.09-.27.17-.54.34-.8.52-.14.09-.26.21-.4.3-.19.12-.39.22-.62.34.09.05.13.07.16.09-.12.05-.23.1-.36.16.07.06.11.09.18.14-.14.07-.26.12-.36.2-.16.12-.32.25-.48.38.1.09.21.18.31.27-.09.07-.18.14-.26.21.02.02.03.04.05.07.09-.02.19-.03.29-.05-.18.31-.46.26-.74.22-.01.03-.03.06-.04.09.1.11.2.22.31.33-.06.04-.13.08-.23.13.04.05.08.09.12.13.84-.59,1.6-1.25,2.38-1.95,1.15-1.04,2.36-1.94,3.73-2.67.93-.49,1.89-.93,2.83-1.38,0,0-.01,0-.02,0,.24-.12.44-.21.64-.32.62-.33,1.23-.68,1.87-.99,1.26-.62,2.57-1.12,3.94-1.42.64-.14,1.3-.15,1.95-.22.19-.02.37-.07.56-.05.25.02.5.09.82.16-.12.13-.17.19-.18.21.04.17.08.31.14.52.34.06.77.11,1.18.21.56.14,1.12.31,1.67.47.67.2,1.36.37,2.01.62.39.15.73.39,1.06.68.46.4.81.92,1.32,1.26.11.08.15.25.23.37.24.34.47.69.72,1.03.52.69.83,1.46,1.07,2.28.18.61.45,1.19.71,1.78.28.64.55,1.27.31,2.07-.05-.32-.07-.56-.14-.79-.07-.24-.19-.46-.29-.71.02-.02.07-.06.11-.09-.05-.01-.1-.02-.14-.04-.06-.04-.12-.1-.15-.16-.12-.24-.19-.5-.34-.72-.31-.47-.65-.93-.99-1.39-.39-.52-.81-1.03-1.21-1.54-.02-.02-.04-.04-.05-.06-.12-.21-.25-.4-.49-.53-.18-.1-.3-.3-.46-.44-.2-.18-.39-.35-.6-.51-.49-.37-.97-.74-1.48-1.07-.09-.06-.18-.11-.28-.16h-.46c.11.08.21.17.31.26.46.39.93.76,1.37,1.17.14.12.27.26.4.39.19.06.31.2.36.37.11.11.21.23.32.34.04.04-.03.18,0,.25.05.14.13.27.2.41.03.07.06.15.11.28-.36-.23-.73-.39-1.1-.52-.02,0-.04.01-.07.01-.16,0-.28-.06-.38-.15-.47-.13-.95-.21-1.42-.31-1.21-.25-2.43-.18-3.64-.08-.66.05-1.32.24-1.97.39-.66.15-1.33.3-1.97.51-.79.26-1.56.56-2.33.88-.87.36-1.73.73-2.57,1.12-.44.21-.86.47-1.28.73-1.07.68-2.15,1.36-3.2,2.08-.41.28-.74.66-1.13.97-.82.65-1.46,1.46-2.17,2.21-.78.83-1.56,1.66-2.26,2.56-.71.91-1.33,1.88-1.96,2.85-.18.27-.23.62-.35.92-.27.66-.53,1.33-.82,1.98-.34.76-.53,1.55-.64,2.37-.06.44-.04.87-.07,1.3-.03.44-.13.87-.15,1.31-.04.58-.03,1.16-.04,1.75,0,.03-.03.06-.06.15,0,0,0,0,0,0,0,.24-.21.47-.43.53-.27.08-.51-.06-.67-.27-.9-1.22-1.98-2.34-2.73-3.66-.7-1.23-.96-2.54-.88-3.91-.02-.39-.05-.78-.08-1.18,0-.04.02-.09.04-.13.26-.53.52-1.05.79-1.57.06-.11.18-.21.19-.33.04-.32.43-.55.26-.93,0-.02.02-.08.04-.09.34-.2.53-.49.62-.88.02-.1.1-.18.15-.27.47-.77.93-1.55,1.41-2.31.52-.82,1.07-1.64,1.61-2.45.04-.06.08-.12.13-.18,0-.09.03-.19.1-.29.52-.74,1.22-1.27,1.96-1.74-.02-.06-.04-.12-.06-.19.38-.2.73-.39,1.15-.62.07-.14.09-.35-.2-.43-.36-.1-.73-.17-1.1,0-.72.34-1.38.73-1.81,1.47-.26.46-.67.83-.98,1.26-.41.57-.8,1.15-1.18,1.75-.29.47-.53.98-.82,1.45-.44.72-.9,1.42-1.34,2.13-.18.3-.33.63-.5.94-.16.29-.42.5-.52.86-.11.42-.44.77-.62,1.18C.37,21.18,0,21.37,0,21.76c0,.37.04.74.09,1.1.05.32.16.63.21.95.08.5.12,1.01.18,1.51.02.17.01.38.1.51.27.39.09.87.34,1.24-.1.06-.18.1-.33.2.12.08.2.13.29.18-.19.21.01.33.12.46.03.04.12.08.12.11.01.35.3.53.46.79.07.12.3.18.16.4,0,.02.03.08.07.1.3.21.41.6.74.78.02.01.03.06.03.1-.02.22.14.3.29.38.16.76.79,3.65.8,3.76,0,.1.16.39.19.48.24.69.8,1.23,1.27,1.79.27.32.46.68.56,1.1.04.17.03.48.36.51.16.02.34.06.48.14.09.05.13.21.22.27.33.22.67.43,1.01.63.41.24.83.47,1.24.72.06.04.08.15.1.19.08-.02.2-.08.28-.06.48.15.96.32,1.43.49.23.08.45.17.68.23.73.2,1.46.38,2.19.57.08.02.18.04.26.03.26-.04.48-.02.65.22.04.06.15.06.23.09,0-.02.02-.04.03-.06-.04-.05-.08-.1-.14-.18.62.09,1.2.15,1.78.25.74.13,1.49.13,2.24.11.52-.02,1.05-.05,1.57-.12.51-.07,1.01-.19,1.52-.27.2-.03.41.02.61-.02.35-.06.69-.16,1.04-.25.14-.04.27-.05.34-.24.04-.11.27-.21.41-.22.09,0,.19.18.31.31.13-.15.24-.27.35-.4.22.05.45.1.67.16,0,.03,0,.07.01.1.12-.09.24-.2.37-.27.24-.11.49-.29.73-.27.6.03,1.05-.34,1.57-.52.39-.14.74-.44,1.2-.34.09.02.23-.04.29-.12.29-.4.74-.49,1.17-.61.08-.02.25.02.28.08.13.28.46.36.6.68.15.35.55.6.85.88.12.11.27.2.41.3.55.44,1.08.88,1.64,1.31.28.21.59.37.88.57.29.21.5.57.94.53.07,0,.15.05.22.08.23.09.46.2.7.27.96.29,1.92.56,2.88.84.27.08.53.2.8.26.43.09.87.14,1.31.2.1.01.22-.03.32,0,.31.06.62.14.94.2.29.05.58.09.86.13.59.07,1.19.14,1.79.2.2.02.41-.01.61-.02.5-.02,1-.01,1.49-.05.43-.03.86-.04,1.29-.15.44-.12.92-.08,1.38-.14.36-.04.73-.08,1.08-.17.7-.18,1.38-.43,2.09-.56.56-.1,1.04-.39,1.55-.59.47-.17.91-.44,1.35-.69.3-.17.64-.35.85-.61.16-.2.34-.25.55-.31.29-.08.58-.15.86-.24.12-.03.23-.09.35-.13.38-.1.82-.05,1.13-.37.03-.03.08-.04.12-.06.58-.24,1.2-.36,1.7-.76.37-.3.83-.5,1.05-.97.03-.06.12-.1.18-.15.29-.26.6-.49.85-.78.3-.35.55-.75.8-1.14.24-.37.49-.74.66-1.15.22-.54.38-1.11.55-1.67.12-.38.21-.77.5-1.08.09-.09.1-.22-.04-.31-.06-.04-.1-.09-.15-.14.06-.12.1-.26.18-.33.33-.27.36-.69.51-1.05.1-.25.12-.53.2-.78.05-.15.14-.28.21-.41,0-.08-.02-.16-.01-.24.02-.18.06-.36.09-.54.04-.24.07-.47.12-.71.08-.42.19-.84.23-1.26.04-.46,0-.92,0-1.38ZM11.7,8.43s-.04-.06-.06-.09c.47-.3.95-.59,1.42-.89.02.04.04.07.07.11-.39.43-.97.56-1.43.88ZM40.5,8.99c.81-.27,1.63-.49,2.5-.37.2.03.4-.01.6-.02.56-.02,1.12-.08,1.67-.04.73.05,1.46.17,2.18.29.35.06.67.22,1.01.3.29.07.6.07.9.13.3.05.59.14.89.19.22.04.44.02.66.07.34.07.67.18,1,.28.62.18,1.25.34,1.85.56.48.18.94.42,1.4.66.4.21.79.44,1.19.66.06.03.17.04.22,0,.18-.14.31-.06.48.04.52.3,1.07.54,1.7.47.14-.01.31.04.43.11.34.21.72.15,1.07.2,1.17.16,2.15.69,3.07,1.41,1.16.91,2.07,2.01,2.8,3.27.33.58.59,1.23.75,1.89.14.58.09,1.2.11,1.8,0,.23-.02.47-.04.76-.13-.12-.23-.21-.35-.31.05-.03.09-.07.13-.09-.12-.15-.24-.29-.36-.43-.2,0-.38-.11-.51-.28-.82-1.17-1.97-2.02-3.19-2.77.05.05.11.11.16.16.86.95,1.71,1.9,2.55,2.86.43.5.68,1.12.93,1.73.05.12.14.23.18.35.03.09,0,.19.03.29.04.16.12.31.16.48.02.08.03.21-.02.26-.25.28-.24.64-.34.96-.14.46-.28.93-.47,1.37-.12.27-.33.26-.51.01-.17-.23-.23-.46-.19-.58-.2-.22-.38-.41-.56-.61-.55-.62-1.08-1.24-1.64-1.85-1.17-1.27-2.61-2.2-4.05-3.12-.56-.36-1.19-.6-1.79-.88-.31-.14-.63-.28-.94-.42-.4-.1-.79-.21-1.18-.35-.03,0-.04-.03-.07-.04-.37-.12-.73-.27-1.11-.36-.77-.19-1.54-.36-2.31-.5-.45-.08-.9-.09-1.36-.13-1.31-.1-2.63-.19-3.94-.3-.79-.07-1.58-.18-2.36-.29-.36-.05-.71-.16-1.07-.23-.12-.02-.25,0-.37,0-.15.02-.23-.01-.19-.19,0-.04.02-.09,0-.13-.31-.57-.28-1.2-.31-1.82,0-.21.15-.42.18-.63.01-.09-.04-.2-.1-.29-.12-.05-.22-.12-.28-.23-.24-.47-.5-.92-.76-1.38-.05-.06-.1-.13-.16-.19-.04-.05-.13-.06-.19-.09.02-.03.05-.05.07-.08h.07c-.21-.37-.41-.75-.59-1.14,0,0-.01,0-.01,0-.06-.05-.08-.16-.12-.25-.11-.23-.21-.47-.32-.7-.04-.08-.08-.15-.1-.19.31-.1.61-.2.9-.3ZM65.32,27.3c-.05.17-.21.38-.15.5.18.38-.31.59-.18.93-.21.18-.17.43-.19.67,0,.06-.09.11-.1.18-.01.07,0,.15-.03.21-.23.36-.45.72-.7,1.06-.07.1-.18.16-.27.24-.37.35-.83.65-1.09,1.07-.48.76-1.16,1.33-1.78,1.95-.08.08-.12.18-.2.25-.1.09-.22.17-.34.22-.29.11-.58.21-.89.31.03-.04.06-.1.09-.15l-.03-.04c-.51.3-1.01.61-1.52.89-.19.11-.4.17-.61.25-.28.1-.56.19-.83.3-.2.09-.38.23-.59.31-.37.16-.8.21-1.08.54-.02.02-.07.03-.1.02-.42-.19-.74.14-1.09.24-.73.2-1.42.5-2.14.73-.51.16-1.04.28-1.57.39-.2.04-.42-.01-.62.01-.31.04-.65.04-.91.18-.24.13-.42.05-.63.05-.16,0-.34.11-.49.08-.34-.07-.66.05-1,.05-.15,0-.31,0-.46-.01-.12,0-.25,0-.37,0-.46-.04-.93-.07-1.39-.14-.51-.08-1.01-.19-1.51-.32-.33-.08-.64-.23-.97-.31-.27-.07-.56-.06-.83-.13-.17-.04-.33-.24-.47-.23-.26.03-.43-.12-.64-.18-.32-.09-.66-.1-.98-.17-.13-.03-.25-.14-.38-.19-.36-.14-.75-.23-.99-.58-.02-.03-.06-.05-.09-.05-.53-.02-.69-.51-1.02-.79-.08-.07-.15-.14-.21-.2.51-.57,1.02-1.12,1.52-1.69.35-.4.67-.83,1.13-1.12.13-.09.21-.25.3-.39.19-.27.38-.54.55-.81.24-.39.48-.78.71-1.17.15-.25.32-.49.45-.76.25-.55.46-1.11.7-1.66.06-.13.19-.22.26-.35.12-.2.22-.4.32-.61.35-.74.47-1.56.66-2.35.08-.34.15-.68.21-1.02.03-.17.02-.34.04-.51.04-.44.11-.87.11-1.31,0-.46-.07-.91-.1-1.37-.03-.39-.03-.78-.05-1.18,0-.09-.05-.17-.07-.25-.08-.37-.16-.73-.27-1.2.44.13.81.23,1.23.36.17-.21.44-.02.7,0,.28.01.56.08.84.13.35.06.69.14,1.04.16.42.02.83-.02,1.25-.04.08,0,.16-.03.24-.03.43.02.86,0,1.28.08.34.07.67-.2,1,.04.07.05.25-.07.39-.1.12-.02.24-.04.35-.02.14.04.28.14.38-.06,0-.02.06,0,.1,0,.5,0,.99,0,1.51,0-.12-.05-.24-.09-.35-.14,0-.02,0-.03.01-.05.18.04.35.07.52.12.65.21,1.29.43,1.93.66.23.08.45.19.68.28.67.27,1.35.51,2,.82,1.06.51,2.1,1.07,3.01,1.83.64.53,1.34,1.01,1.93,1.6.61.6,1.13,1.28,1.69,1.93.2.23.4.47.62.74-.1.02-.17.03-.28.05.16.05.28.09.4.13-.05.21.19.58.45.73-.01.06-.04.12-.04.18,0,.08.02.17,0,.24ZM36.29,10.14s.08.03.1.01c.25-.17.44,0,.62.12.08.05.12.15.18.23.03.04.05.11.09.13.28.14.28.42.35.66.02.06.03.12.06.18.17.33.34.66.53,1.05-.04.02-.08.03-.12.05.06.06.12.13.17.2.09.12.14.26.2.39.03.1.03.21,0,.31-.02.05-.04.09-.06.14-.01.02-.04.04-.05.06.12.5.14.99-.04,1.53-.25.73-.57,1.41-.89,2.1,0,0,0,.02,0,.03-.21.23-.54.37-.49.75.02.04.11.11.1.16-.21,1.02-.42,2.04-.65,3.06-.07.32-.15.64-.27.94-.11.28-.29.54-.43.82-.22.44-.42.9-.65,1.33-.14.26-.34.5-.53.73-.36.45-.72.91-1.11,1.33-.87.94-1.74,1.9-2.81,2.63-.67.46-1.3.98-1.96,1.47-.58-.52-.6-1.39-1.33-1.74.05-.78.41-1.46.74-2.15.18-.39.39-.76.6-1.13.15-.25.34-.47.51-.71.19-.27.37-.56.58-.81.14-.16.34-.27.5-.42.14-.13.13-.15-.05-.24.14-.12.27-.24.41-.36-.05-.09-.09-.16-.13-.24.17.01.32.02.46.04,0-.02,0-.04,0-.07l-.25-.11c.11-.03.22-.05.3-.08-.03-.02-.09-.06-.15-.08-.07-.01-.17-.02-.22.02-.18.15-.33.34-.5.49-.25.23-.54.42-.76.68-.53.61-1.03,1.25-1.53,1.88-.11.13-.21.26-.3.41-.21.34-.42.69-.62,1.03-.05.09-.09.2-.13.3.02.01.04.03.05.04-.08.03-.16.07-.24.1.02,0,.05.01.07.02-.06.26-.12.52-.19.78l-.08.03c-.11-.23-.26-.45-.32-.7-.16-.65-.28-1.31-.41-1.97-.04-.18-.07-.36-.07-.55,0-.45-.14-.89.05-1.35.12-.3.1-.64.17-.96.12-.55.27-1.09.41-1.64.17-.68.36-1.36.53-2.04.02-.09.01-.26-.03-.28-.11-.05-.26-.06-.38-.03-.16.04-.32.13-.47.2-.01-.02-.02-.03-.03-.05.16-.15.32-.31.48-.46-.04,0-.11-.02-.18-.04,0-.01,0-.03,0-.04.08-.02.17-.05.22-.06.04-.13.06-.26.13-.36.13-.17.3-.32.45-.48.03-.03.08-.06.09-.09.09-.38.41-.57.67-.82.01-.01.03-.03.04-.03.05,0,.09-.01.14-.02.18-.48.52-.87.91-1.22-.05,0-.11.02-.16.02.26-.26.5-.53.77-.77.55-.51,1.1-1.01,1.68-1.49.32-.27.68-.5,1.04-.73.68-.44,1.36-.86,2.04-1.29.16-.1.34-.15.51-.23.38-.19.74-.4,1.13-.56.16-.07.36-.03.54-.04ZM26.72,30.67c.11-.22.13-.41-.11-.53.41-.31.53-.29.83.15.15.22.29.45.4.69.04.07.02.21-.03.28-.05.08-.16.15-.25.18-.16.05-.32.07-.48.11-.06-.29-.32-.53-.18-.87-.05,0-.11,0-.18-.01ZM6.59,27.67c-.03-.27.09-.56.14-.85.03-.16.04-.31.07-.47.09-.45.15-.92.28-1.36.13-.43.33-.84.5-1.26.14-.36.3-.73.42-1.1.13-.4.23-.79.49-1.16.25-.36.38-.8.59-1.2.12-.22.28-.41.43-.61.11-.16.22-.33.34-.49.06-.08.15-.16.24-.21.13-.06.19-.13.2-.28,0-.06.07-.15.13-.18.23-.11.36-.3.5-.5.16-.21.4-.35.61-.52.07-.06.15-.12.26-.21,0,0,0,0,0,0,.19-.19.37-.37.54-.54.01-.01.03-.04.03-.04-.22-.31.13-.27.23-.38.17-.18.34-.37.53-.53.56-.5,1.13-.99,1.7-1.49.3-.26.6-.51.9-.77.18-.15.36-.32.55-.45.09-.06.23-.07.36-.1-.09-.21.11-.38.28-.44.36-.13.58-.52,1.01-.53.06,0,.11-.15.18-.2.14-.09.29-.15.44-.23.43-.21.84-.46,1.28-.63.32-.12.61-.28.91-.44.44-.23.93-.38,1.4-.57.37-.15.73-.31,1.1-.46.15-.06.3-.1.45-.16.32-.12.65-.24.97-.36.04-.02.09-.04.13-.03.36.13.61-.17.91-.25.45-.12.89-.26,1.33-.38.21-.06.42-.12.63-.16.07-.02.15.01.23,0,.08-.01.16-.05.25-.06.12-.02.26-.07.37-.04.13.04.23.06.33-.06.03-.03.09-.05.14-.05.43-.04.87-.09,1.3-.11.71-.03,1.42-.07,2.13-.06.63,0,1.27.03,1.89.14.43.07.91.11,1.2.47.14,0,.31-.04.35,0,.1.14.37.2.26.47-.02.05.07.16.12.27-.23.1-.48.19-.72.3-.72.33-1.45.65-2.15,1.02-.57.3-1.13.65-1.65,1.03-.58.42-1.12.88-1.67,1.34-.83.7-1.6,1.45-2.24,2.33-.16.22-.34.42-.53.6-.03.03-.08.04-.14.04-.05.09-.08.19-.13.28-.06.1-.14.18-.21.27,0,0,0,0,0,0,.15.11.06.22-.02.32-.6.77-1.22,1.53-1.81,2.31-.23.3-.41.63-.63.95-.02.02-.04.04-.06.06-.01.02-.03.04-.04.06-.07.12-.14.25-.2.38-.02.03-.03.06-.04.1,0,0-.02.04-.02.06,0,.02-.02.04-.02.05-.01.03-.03.07-.04.1-.1.27-.18.55-.23.84-.01.07-.03.13-.04.2.06-.01.12-.04.14-.07.27-.35.5-.73.78-1.15-.07.65-.14,1.24-.19,1.84-.04.5-.06,1-.09,1.5,0,.07-.02.15-.05.2-.14.21-.12.4-.02.63.08.18.07.4.09.6,0,.05-.01.11,0,.16.24.66.47,1.32.75,1.96.14.33.36.63.54.95.02.04.03.08.05.14-.14.06-.26.11-.36.15.02.25.04.46.06.72.64.25.24.78.24,1.23,0,.11-.01.23.04.31.14.23.33.43.48.65.12.18.23.36.35.56-.74.47-1.52.96-2.28,1.47-.56.37-1.13.67-1.79.83-.49.12-.97.31-1.45.47-.46.16-.91.41-1.38.46-.64.08-1.3,0-1.95,0-.19,0-.37-.02-.56-.04-.72-.08-1.44-.16-2.15-.26-.28-.04-.55-.17-.83-.24-.31-.07-.62-.11-.93-.18-.3-.07-.61-.15-.9-.25-.47-.15-.92-.36-1.4-.45-.24-.05-.43-.2-.64-.24-.91-.2-1.7-.68-2.52-1.07-.31-.15-.61-.38-.63-.69-.02-.28-.19-.4-.28-.6-.08-.17-.04-.4-.05-.61,0-.07-.02-.15-.02-.22-.03-.62,0-1.26-.1-1.86-.06-.35.07-.65.03-.99ZM31.17,37.26c-.02.07-.07.13-.18.19-.72.38-1.44.74-2.16,1.11-.36.18-.72.36-1.08.52-.31.14-.62.28-.94.37-.64.17-1.28.36-1.92.49-.03.19-.16.35-.41.39-.71.12-1.42.21-2.13.28-.31.07-.62.14-.94.21-.67.15-1.33.32-2.01.43-.42.07-.87.03-1.3.03-.38,0-.77.03-1.15-.03-.7-.1-1.4-.25-2.1-.39-1.21-.26-2.42-.51-3.62-.81-1.16-.28-2.16-.9-3.13-1.57-.2-.14-.36-.35-.58-.46-.31-.17-.46-.47-.65-.73-.1-.14-.12-.41-.24-.44-.4-.13-.59-.37-.54-.81-.41.1-.67-.1-.88-.38-.2-.26-.41-.51-.57-.8-.12-.22-.74-2.97-.97-3.87,1.63.42,2.89,1.66,4.2,2.67.36.16.75.26,1.08.46.04.02.09.02.12.04.64.52,1.44.74,2.17,1.07.06.02.13,0,.19.02.22.05.44.11.66.17.46.13.91.26,1.38.39,0-.09,0-.14,0-.21.06.04.1.05.12.07.21.19.44.22.68.1.07-.04.19-.02.28,0,.18.06.36.16.54.2.27.05.56.06.84.09.05,0,.1.01.15.03.06.02.11.07.17.07.66.03,1.32.07,1.98.08.18,0,.37-.08.55-.09.17,0,.33.06.5.07.07,0,.14-.03.21-.05.15-.06.3-.14.46-.18.34-.09.68-.17,1.02-.25,1.7-1,3.53-1.92,5.42-2.51.31-.19.64-.35.97-.48.83-.33,1.49-.89,2.17-1.43.7-.56,1.41-1.11,2.08-1.71.54-.48,1-1.05,1.56-1.51.61-.5,1-1.17,1.51-1.74.46-.52.86-1.09,1.24-1.68.27-.43.47-.91.68-1.39.06-.14.12-.27.18-.41-.04-.13-.02-.28.09-.43.88-1.23.35-2.83.86-4.2.2-.53.47-1.03.77-1.5-.09.04-.18.08-.31.14.1-.18.16-.3.22-.4.07.04.13.07.19.11.47-.73,1-1.43,1.45-2.17.07-.11.15-.17.25-.22.13-.34.36-.63.56-.95.12.34.34.65.29,1.03,0,.05-.01.13.01.15.33.21.26.59.36.89.11.35.15.71.25,1.06.03.12.15.21.27.29-.11-.04-.23-.08-.34-.11.21.19.26.4.16.65,0,.02-.01.04,0,.05.24.22.04.55.19.79.02.04.03.12.01.15-.16.18-.02.34.02.51,0,.04.03.1.02.12-.16.17-.07.32-.01.51.04.14-.05.33-.1.5-.03.09-.12.15-.01.27.09.1.11.25.04.42-.09.25-.08.54-.13.81-.02.13-.09.25-.18.37-.05.43-.11.85-.16,1.28,0,.07-.02.14,0,.21.14.56.03,1.1-.14,1.62-.12.37-.3.72-.39,1.09-.2.84-.61,1.6-.95,2.38-.09.22-.29.39-.42.6-.52.76-1.02,1.52-1.55,2.27-.3.42-.62.83-.96,1.22-.27.31-.57.6-.87.88-.07.07-.19.09-.31.14.04.04.07.07.09.1-.13.12-.27.25-.41.38-.02.02-.03.05-.04.07-.8.84-1.64,1.64-2.6,2.3-.17.12-.35.18-.55.2-.39.31-.81.56-1.27.77ZM67.38,27.74c-.07.45-.02.9-.07,1.35-.04.38-.13.76-.16,1.14-.05.66-.36,1.24-.56,1.85-.1.3-.18.62-.27.92-.03.12-.08.23-.12.35-.07.21-.12.42-.19.63-.17.49-.33.99-.54,1.46-.31.69-.65,1.37-.99,2.04-.07.14-.17.27-.29.37-.3.25-.47.6-.69.9-.23.31-.54.56-.83.82-.64.56-1.41.87-2.21,1.12-.28.09-.55.19-.82.28-.5.22-.99.44-1.48.69-.68.35-1.32.78-2.02,1.09-.16.07-.32.13-.49.19-.45.23-.9.47-1.38.62-.81.26-1.64.48-2.48.63-1.07.19-2.15.33-3.23.42-1.07.09-2.15.21-3.23,0-1.13-.21-2.28-.35-3.41-.57-.94-.19-1.87-.43-2.79-.7-.66-.19-1.28-.51-1.94-.72-.57-.18-1.02-.52-1.51-.83-.4-.25-.84-.44-1.22-.72-.64-.47-1.26-.99-1.86-1.51-.45-.38-.86-.81-1.31-1.23.17-.08.28-.13.39-.19.06-.03.13-.05.19-.07.08-.11.19-.21.32-.24.34-.08.68-.17,1-.3.05-.02.09-.05.13-.08-.07-.04-.14-.09-.21-.18.2-.03.41-.07.6-.1.01-.06,0-.15.05-.18.3-.22.61-.42.91-.63.03-.02.07-.02.09-.03.17.25.34.49.49.73.14.22.3.4.58.43.05,0,.14.03.14.05.06.37.38.38.64.45.48.14.96.27,1.44.37.49.11.99.17,1.48.27.3.06.58.2.88.25.42.07.86.07,1.28.13.57.08,1.13.19,1.7.28.47.07.95.23,1.4.17.4-.05.77.06,1.16.04.17-.01.33.04.5.04.24,0,.51.11.72-.14.04-.05.19-.07.24-.04.33.25.65.06.96,0,.21-.04.39-.14.62-.14.26,0,.52-.15.78-.22.11-.03.22-.05.33-.06.14,0,.28,0,.42,0,.16,0,.34.06.48,0,.23-.08.47-.16.62-.39.06-.08.25-.13.37-.1.28.07.45-.11.66-.22.17-.09.32-.2.49-.27.13-.05.28-.08.43-.09.57-.04,1.04-.34,1.55-.54.61-.24,1.21-.51,1.82-.77.08-.04.16-.1.23-.16.03-.03.07-.08.1-.08.56,0,.92-.41,1.38-.63.26-.13.54-.22.8-.35.1-.05.17-.15.25-.22.13-.11.26-.23.39-.34.02.02.04.04.06.06-.13.22-.25.44-.38.66.35-.17.7-.33,1.04-.51.38-.29.75-.59,1.13-.88.49-.37,1.01-.71,1.48-1.11.35-.3.62-.68.94-1.01.14-.15.3-.28.45-.41,0,0,0,0,0,0,.02-.03.04-.05.06-.08.05-.06.1-.13.15-.19-.06.08.05-.07.07-.1.19-.25.37-.51.52-.78.08-.14.16-.28.23-.42.03-.06.06-.13.09-.19,0,0,0,0,0,0,0,0,0-.01,0-.02.01-.03.03-.07.04-.1.04-.1.09-.17.15-.24.02-.05.04-.09.05-.14.07-.29.09-.58.16-.87.05-.22.09-.45.14-.67.04-.17.08-.35.13-.52.16-.61.32-1.22.5-1.82.05-.17.2-.3.31-.46.06.18.19.37.17.54-.06.73-.13,1.46-.25,2.18Z"/>
      <path class="cls-1" d="M31.16,21.88c.22-.18.44-.36.67-.54.02.03.05.05.07.08-.3.09-.31.52-.67.55-.02-.03-.05-.06-.07-.09Z"/>
      <path class="cls-1" d="M33.91,19.87c-.22.12-.43.24-.65.36-.02-.03-.03-.06-.05-.09.22-.12.44-.23.66-.35.02.03.03.06.05.09Z"/>
      <path class="cls-1" d="M32.52,20.81c.07-.25.16-.44.5-.33-.18.12-.33.22-.5.33Z"/>
      <path class="cls-1" d="M31.16,22.15c-.15.03-.24.31-.49.04.18-.05.32-.09.46-.13,0,.03.02.06.03.09Z"/>
    </g>
  </g>
</svg>