<?xml version="1.0" encoding="UTF-8"?>
<svg id="Layer_2" data-name="Layer 2" xmlns="http://www.w3.org/2000/svg" viewBox="0 0 70.09 81.11">
  <defs>
    <style>
      .cls-1 {
        fill: #000;
        stroke-width: 0px;
      }
    </style>
  </defs>
  <g id="illustrations">
    <g>
      <path class="cls-1" d="M70.08,18.49c-.09-.18-.15-.39-.28-.53-.47-.52-.73-1.14-.91-1.8-.12-.42-.16-.88-.35-1.27-.36-.71-.82-1.37-1.5-1.83-.38-.26-.75-.52-1.12-.78.01-.02.02-.04.04-.07.11.04.21.07.32.11-.04-.1-.11-.18-.19-.24-.44-.28-.86-.57-1.32-.82-.48-.26-.98-.49-1.49-.71-.12-.05-.29,0-.46,0,.12.2.2.33.32.52-2.76-.6-5.42-1.19-8.19-.95.23-.95.34-1.84.24-2.75,0-.08.07-.2.14-.25.22-.15.47-.27.69-.43.31-.23.65-.49.6-.92-.06-.51-.1-1.06-.56-1.44-.83-.68-1.75-1.23-2.73-1.65-.11-.04-.22-.08-.32-.12-.04-.09-.11-.17-.23-.21-.52-.17-1.04-.32-1.56-.46-.39-.13-.79-.27-1.18-.39-.91-.28-1.84-.5-2.77-.69-.3-.06-.62-.09-.94-.11-.55-.03-1.1-.15-1.66-.07-.17.02-.34.04-.51.06.08.03.17.06.25.08-.33-.03-.66-.05-1-.07.24,0,.48,0,.72-.02-.07-.09-.13-.19-.22-.26-.07-.05-.24-.08-.25-.05-.16.31-.18.12-.22-.05,0-.03-.07-.05-.11-.08-.06.11-.12.21-.19.34.08.04.17.11.25.11-1.08-.07-2.16-.11-3.25-.13-.24-.17-.49-.3-.79-.15.18.05.35.1.53.15-.19,0-.39,0-.58-.01-.05-.05-.1-.1-.15-.16.06-.01.08-.02.1-.02-.07-.04-.15-.07-.22-.11-.01.02-.03.05-.04.07.04.06.07.14.11.21-.06,0-.12,0-.18,0,0,0,0,0,0,0-.19-.11-.38-.22-.63-.36.05.2.13.3.23.36-.14,0-.28,0-.43,0,.02,0,.03,0,.05,0-.22-.21-.37-.48-.71-.34-.02,0-.08-.03-.1-.06-.1-.24-.32-.03-.44-.11-.27-.16-.27.13-.4.23.11.13.31.23.49.27-1.33,0-2.65,0-3.95,0-1.61,0-3.22,0-4.82.05-.04-.12-.08-.22-.11-.3-.21.04-.48-.22-.67.23.24.03.45.05.67.08-5.12.14-10.22.6-15.24,1.76-1,.23-2.01.48-3.02.76.12-.06.23-.12.35-.16.46-.19.93-.36,1.4-.52.45-.15.92-.35,1.38-.38.45-.02.86-.1,1.28-.24.63-.2,1.28-.32,1.93-.48-.26-.48-.65-.28-1.02-.18.01.06.02.12.03.21-.17-.06-.3-.11-.45-.17v.2c-.65.08-1.3.17-1.95.25.03.1.05.14.05.14-.19.03-.36.05-.53.09-.53.14-1.06.28-1.58.42-.39.11-.81.17-1.16.35-.41.2-.77.51-1.16.76-.1.06-.23.05-.4.08,0,.01,0,.05-.02.06-.18.08-.36.14-.55.21-.13.05-.35,0-.3.22-1.51.56-2.98,1.24-4.31,2.13-.2.13-.21.36-.12.53-.09,0-.18,0-.27,0-.32.03-.64.04-.94.14-.34.11-.65.3-.97.47-.41.21-.56.48-.5.9.06.46.2.89.7,1.02.42.11.85.14,1.28.21.77.13,1.55.24,2.31.39,1.12.22,1.91.99,2.68,1.75.3.29.52.66.78.98.16.2.38.37.51.59.51.82,1,1.66,1.5,2.49.1.17.21.35.34.51.14.18.3.35.45.52.27.29.55.58.83.86.01.01.05,0,.11-.01-.08-.14-.16-.26-.23-.38.03-.02.06-.04.09-.06.07.09.13.21.22.28.09.07.21.1.32.14-.24-.4-.63-.66-.62-1.2.19.05.35.08.5.12l.08-.07c-.11-.22-.2-.46-.35-.66-.18-.23-.43-.42-.64-.64-.04-.04-.06-.11-.08-.17-.04-.11-.05-.24-.12-.34-.12-.17-.27-.32-.39-.49-.58-.78-1.15-1.56-1.72-2.34-.2-.27-.43-.53-.61-.82-.54-.84-1.22-1.48-2.24-1.69-.24-.05-.46-.15-.76-.26.11-.06.15-.09.2-.09.51-.06,1.03-.13,1.54-.16,1.45-.09,2.75.35,3.96,1.12.51.32,1,.68,1.53.95.7.35,1.42.7,2.17.93.56.17,1.17.19,1.76.22.95.05,1.89.08,2.84.09.73,0,1.47,0,2.2-.04.83-.04,1.65-.1,2.48-.15,0-.1.01-.17.02-.24.18.06.33.11.48.16.04-.14.12-.11.24-.09.15.03.32,0,.48-.01.28-.04.56-.11.85-.14.46-.04.93-.04,1.38-.09.58-.07,1.14-.26,1.72-.3.45-.03.9-.09,1.34-.14.68-.08,1.37-.13,2.04-.24.62-.1,1.23-.29,1.86-.09.04.01.09-.01.14-.02.63-.1,1.26-.21,1.9-.3.2-.03.41,0,.62,0,.01-.06.03-.14.04-.17.5.02.96.06,1.42.05.38,0,.76-.06,1.15-.08.18,0,.36.03.57.05,0,0,.04-.08.05-.08.21.05.4.02.62-.02.3-.05.61.02.92,0,.38-.01.76-.05,1.14-.1.1-.01.19-.07.36-.13.08.06.28.03.44.04.72.02,1.44.01,2.15-.08.8-.1,1.58-.3,2.37-.45.42-.08.85-.13,1.27-.24,1.02-.26,2.03-.55,3.05-.83.47-.13.94-.29,1.48-.45-.23.57-.04,1.14-.29,1.68-.36.75-.38.67-1.02.69-.21,0-.42-.03-.63-.03-.11,0-.22.04-.38.07.09.13.16.19.19.27.05.13.15.32.1.41-.29.55-.58,1.1-.93,1.62-.38.56-.76,1.11-.89,1.78-.11.54-.25,1.07-.73,1.44-.18.14-.29.38-.45.59h.77c-.03.19-.04.35-.08.5-.24.84-.23,1.71-.13,2.56.09.7.34,1.38.51,2.07.22.92.42,1.84.64,2.76.18.75.28,1.52.75,2.18.2.28.32.63.4.97.17.75.28,1.52.45,2.27.13.58.31,1.14.46,1.72.05.2.06.41.11.62.1.46.23.92.33,1.39.17.82.31,1.65.48,2.48.28,1.42.58,2.83.86,4.25.27,1.4.52,2.81.79,4.21.2,1,.43,2,.63,3,.13.63.36,1.23.46,1.88.09.59.15,1.19.26,1.78.12.61.48,1.2.35,1.86,0,.02.03.05.04.08.22.7.47,1.39.65,2.09.22.85.41,1.71.55,2.58.09.54.42,1.01.38,1.6-.03.41.13.83.21,1.25.15.82.29,1.64.44,2.46.16.88.34,1.76.49,2.65.08.5.11,1.01.17,1.52.05.4.11.81.16,1.21.06.48.12.95-.21,1.39-.17.22-.27.5-.41.77.34-.05.68-.03.64-.51,0-.11.13-.25.23-.33.03-.03.16.09.25.11.11.03.25.08.33.04.28-.12.45-.66.33-.95-.37-.9-.64-1.83-.8-2.79-.15-.91-.29-1.83-.45-2.74-.1-.59-.24-1.18-.36-1.77-.17-.86-.17-1.76-.49-2.59-.05-.13-.07-.28-.1-.42-.07-.38-.13-.76-.21-1.13-.02-.1-.12-.17-.16-.23,0-.12.04-.23.02-.33-.07-.38-.16-.76-.24-1.14-.05-.23-.09-.46-.15-.69-.13-.49-.3-.97-.42-1.47-.11-.44-.18-.88-.26-1.31.39-.36.43-.48.24-.8.11-.12.21-.26.33-.38.07-.07.17-.09.26-.14.12-.08.21-.2.34-.25.31-.12.49-.4.49-.66,0-.24.12-.34.24-.45.24-.23.31-.49.18-.78.08-.07.22-.15.21-.19-.08-.31.23-.45.28-.7.03-.16.14-.31.21-.47.08-.17.15-.34.23-.51-.02-.01-.04-.02-.06-.03.07-.05.14-.1.21-.15,0-.01-.02-.03-.02-.04-.08.01-.16.02-.33.05.15-.18.24-.28.32-.39-.25-.36.18-1.47.56-1.65.05-.16.08-.26.11-.35.02,0,.05,0,.07.01.01.06.03.11.05.2.06-.11.1-.19.14-.27-.06,0-.11-.01-.19-.02.11-.18.21-.35.31-.52.02.01.03.02.05.03-.04.09-.08.18-.12.27.22-.31.36-.67.54-1,.35-.64.77-1.26,1.08-1.92.7-1.49,1.38-2.98,1.87-4.56.13-.43.34-.84.42-1.27.14-.78.23-1.58.32-2.37.06-.54.12-1.07.39-1.57.28-.52.54-1.07.77-1.62.24-.57.41-1.18.67-1.75.48-1.02.88-2.05,1.12-3.15.16-.75.35-1.5.52-2.25.22-.94.42-1.89.68-2.82.09-.34-.08-.74.24-1.01.02-.02.02-.08,0-.11ZM46.54,1c.06-.2.16-.07.24-.03.05.03.11.06.16.1-.14-.02-.28-.04-.41-.05,0,0,.01,0,.01,0ZM37.28.23c.07.08.15.15.2.21.05-.01.11-.03.18-.04,0,.05,0,.1.01.15-.13,0-.27,0-.4,0,.02,0,.04-.02.05-.03-.03-.07-.07-.15-.1-.23.02-.02.05-.04.07-.06ZM52.35,6.98c-1.09.23-2.19.42-3.28.64-.63.13-1.25.31-1.88.41-1.32.21-2.64.41-3.97.55-1.18.12-2.38.18-3.57.23-.88.04-1.77,0-2.65.06-.85.06-1.68.22-2.53.32-1.02.13-2.03.24-3.05.35-.27.03-.54,0-.8.03-.61.1-1.21.26-1.83.33-1.24.15-2.48.25-3.72.37-.99.09-2,.11-2.97.27-1.08.19-2.16.09-3.24.09-.65,0-1.29-.19-1.95,0-.09.02-.2,0-.3-.02-.49-.08-.98-.22-1.47-.25-.94-.06-1.73-.44-2.46-.97-.68-.5-1.41-.92-2.17-1.29-.8-.39-1.67-.54-2.54-.59-.84-.04-1.69,0-2.53.02-.3,0-.61.16-.88.11-.26-.05-.48-.04-.68.08-.23.15-.42.13-.64,0,.08-.67.22-.73.93-1.23.64-.45,1.3-.88,1.96-1.3,1.84-.79,3.8-1.34,5.74-1.82,3.27-.82,6.59-1.38,9.94-1.68,6.6-.6,13.31-.49,19.92-.25,3.35.12,6.69.45,9.91,1.38.15.08.3.16.45.23.84.43,1.61,1.02,2.37,1.58.27.2.45.53.7.83-.28.04-.48.07-.69.09-.37.03-.48.12-.55.5-.02.09.01.18-.01.27-.02.08-.07.18-.13.2-.48.16-.95.34-1.44.44ZM55.98,42.25s-.06.01-.09.02c-.16-.54-.33-1.07-.49-1.61-.03-.12-.06-.23-.09-.35-.08-.38-.15-.77-.23-1.15-.01-.07-.05-.13-.07-.19-.03-.13-.03-.27-.06-.39-.05-.22-.11-.43-.18-.7.16-.22,0-.91-.28-1.13,0-.17.02-.29,0-.4-.1-.57-.19-1.13-.31-1.7-.04-.21-.15-.4-.19-.6-.01-.21,0-.42-.04-.62-.12-.66-.24-1.32-.38-1.98-.12-.53-.29-1.05-.43-1.58-.07-.3-.11-.6-.17-.9-.06-.3-.13-.59-.2-.89-.16-.69-.32-1.39-.5-2.08-.05-.19-.15-.36-.21-.55-.09-.34-.18-.68-.24-1.02-.17-.99-.33-1.97-.47-2.97-.08-.54-.11-1.09-.16-1.63,0-.04-.01-.08-.04-.11-.27-.32-.23-.7-.21-1.07,0-.06-.02-.12-.03-.17-.06-.32-.12-.64-.17-.96-.03-.19-.04-.37-.04-.56,0-.22.04-.35.32-.39.45-.08.88-.25,1.32-.39.65-.22,1.29-.45,1.94-.67.41-.14.82-.3,1.25-.4.53-.13,1.07-.24,1.62-.32.68-.1,1.37-.18,2.06-.32l-1.21-.16v-.07c.82,0,1.64-.05,2.46,0,.4.03.8.22,1.19.38.12.05.25.24.24.35-.03.51.3.88.46,1.31.19.5.35,1.02.54,1.53.3.77.63,1.53.91,2.31.19.53.33,1.08.42,1.64.08.5.1,1.01.08,1.52-.02.47-.11.95-.2,1.42-.07.37-.3.75-.23,1.08.06.29-.32.39-.06.67-.13-.05-.19-.08-.25-.1-.03.09-.06.17-.1.26.05,0,.13.02.21.04.02.03.04.05.06.08-.07.04-.14.09-.21.13.24.26-.8,2.93-1.28,3.27.04.03.08.05.15.09-.48.36-.6,1.05-1.3,1.18.02.02.03.05.05.07.16-.04.31-.08.5-.13-.33.53-.62,1.03-.95,1.5-.08.11-.28.14-.44.21.03.03.09.1.16.18-.4.62-.81,1.25-1.22,1.87-.09.13-.16.28-.23.42-.15.31-.16.32-.53.35.1.05.16.08.21.11v.06c-.09,0-.18.02-.33.03.09.09.15.14.24.23-.13.03-.2.05-.31.08.03.04.06.08.1.14-.1.12-.36.16-.21.44.03.07-.2.25-.27.4-.12.26-.2.53-.31.8-.02.04-.05.09-.08.12-.17.18-.24.39-.22.64,0,.05-.09.12-.15.18-.07.06-.15.12-.27.2.11,0,.16.01.21.02-.37.99-.73,1.98-1.1,2.96ZM57.88,48.18c.23-.1.4-.18.58-.26-.12.19-.19.48-.58.26ZM58.15,47.71c.12-.37.38-.16.62-.23-.17.39-.39.3-.62.23ZM68.75,20.39s.06.03.09.05c-.02.32-.04.65-.06.97-.03,0-.07,0-.1-.01,0-.08-.02-.16-.03-.24-.07.72-.22,1.45-.56,2.07-.12.22-.3.29-.49.29-.02.14-.04.3-.08.43-.12.4-.26.8-.39,1.19-.02.06-.09.11-.14.17.05.02.09.03.19.07-.15.05-.24.08-.28.09.04.76-.39,1.31-.78,1.88-.02.04-.04.08-.07.11-.04.06-.08.13-.12.19.06.06.11.12.17.18,0,.02-.02.03-.03.05-.09-.03-.19-.05-.22-.06-.06.17-.11.32-.16.47-.18.55-.36,1.09-.53,1.64-.09.31-.13.64-.22.95-.1.36-.22.71-.33,1.07-.09.26-.24.52-.26.79-.05.48-.3.88-.42,1.33-.1.39-.25.76-.38,1.14-.06.16-.12.32-.19.49.04,0,.09-.01.09-.02-1.77,3.8-3.55,7.61-5.33,11.43.07.06.11.09.16.13-.23.17-.48.31-.67.51-.06.06,0,.25,0,.38.03,0,.05,0,.08,0-.11.09-.21.18-.35.29.09.03.14.06.24.1-.16.24-.32.47-.49.73-.43-.56-.51-1.15-.6-1.72-.05-.3-.06-.61-.09-.91,0-.05-.05-.11-.09-.15-.14-.13-.08-.22.07-.26.33-.09.3-.3.24-.56-.04-.16,0-.33,0-.49,0-.06.02-.14-.01-.17-.22-.22-.13-.45-.06-.69.03-.12-.03-.26-.05-.42.07.05.1.07.09.07.04-.25.08-.52.14-.79.06-.25.13-.49.2-.74.11-.36.21-.73.36-1.07.19-.43.44-.83.65-1.24.11-.22.18-.45.3-.66.47-.83.9-1.67,1.43-2.46.54-.81,1.19-1.55,1.76-2.34.47-.64.89-1.31,1.35-1.96.31-.45.64-.9.97-1.35,0-.04-.04-.12,0-.18.23-.48.53-.93.7-1.42.2-.56.3-1.16.43-1.75.05-.22.1-.45.15-.68,0-.02-.01-.02-.02-.04-.26-1.42.08-2.72.22-4.12.12-1.18.01-2.37-.28-3.52-.52-2.07-1.62-3.96-3.15-5.45v.09c-.19-.03-.38-.04-.56-.08-.56-.14-1.11-.3-1.67-.45-.05-.01-.1-.03-.15-.03-.68.06-1.37.1-2.05.18-.95.11-1.9.21-2.84.37-.44.07-.86.26-1.28.42-.45.17-.9.36-1.34.55-.19.08-.35.22-.53.33-.17.1-.33.28-.61.11.19-.23.39-.43.54-.66.37-.56.71-1.14,1.09-1.69.17-.24.44-.42.65-.64.27-.28.53-.56.8-.86.02.02.06.08.11.12.3-.17.58-.37.89-.5.26-.1.55-.12.83-.18.32-.07.63-.17.96-.21.42-.05.84-.09,1.26-.07.23.01.45,0,.67-.06.1-.03.21,0,.31.01.05,0,.11.04.16.03.93-.06,1.84.07,2.74.3.55.14,1.09.31,1.63.49.13-.13.32-.2.55-.12,1.2.4,2.17,1.33,2.94,2.3.38.48.74.99,1.03,1.53-.14-.53-.46-.96-.76-1.4.03-.02.06-.04.09-.06.18.26.43.49.54.77.16.4.28.82.4,1.24.12.28.21.56.28.86.02.07.02.15.04.22.05.18.11.36.16.55.04.14.05.29.06.43.02.26.06.52.11.78.09.44-.02.93-.05,1.39,0,.03-.04.05-.08.09,0,.04,0,.08,0,.11.02-.02.04-.04.05-.06Z"/>
      <path class="cls-1" d="M8,3.49s0,0,0,0c0,0,0,0,0,0Z"/>
      <path class="cls-1" d="M58.9,70.78c-.14.06-.25.17-.36.16-.53-.03-1.01.14-1.46.39-.69.39-1.37.81-2.07,1.19-.34.19-.7.33-1.07.47-.07.03-.23,0-.25-.05-.13-.25-.24-.52-.32-.79-.1-.32-.25-.66-.22-.97.03-.26,0-.45-.1-.67-.03-.08-.03-.17-.03-.26-.02-.28-.02-.56-.07-.83-.09-.5-.24-.98-.31-1.48-.09-.57-.13-1.15-.18-1.72-.08-.85-.15-1.69-.23-2.54-.03-.32-.04-.65-.11-.96-.07-.3.15-.66-.18-.91-.02-.01-.01-.08,0-.11.13-.21.12-.4-.01-.57-.04-.2-.07-.4-.11-.61,0-.1.04-.23.03-.34-.04-.35-.18-.7-.14-1.03.08-.66-.13-1.27-.2-1.9-.04-.35-.12-.7-.17-1.05-.05-.35-.07-.7-.11-1.05-.03-.3-.07-.61-.11-.91-.03-.28-.05-.56-.09-.84-.04-.33-.1-.66-.14-1-.03-.3-.02-.6-.04-.9-.02-.23-.06-.47-.1-.7-.02-.1-.06-.2-.09-.29.04-.01.09-.02.09-.02,0-.16.03-.28.02-.4,0-.18-.02-.37-.04-.55-.05-.35-.16-.7-.13-1.04.02-.17.12-.3-.19-.43.17-.01.22-.02.27-.02-.47-.18-.12-.37-.02-.52-.1-.12-.22-.21-.26-.32-.09-.27-.12-.55-.19-.82-.07-.26.06-.41.28-.51-.12-.23-.23-.45-.35-.69.15-.01.24-.02.39-.04-.23-.21-.45-.36-.35-.67.03-.09-.06-.21-.09-.32,0-.03,0-.06,0-.09.09.02.17.03.26.05-.11-.31-.21-.59-.32-.92,0,0-.08-.03-.13-.06.02-.15.07-.28.04-.39-.03-.11-.14-.21-.21-.31.01-.01.03-.03.04-.04.08.03.16.06.24.09-.05-.14-.13-.27-.14-.4-.04-.31.02-.65-.15-.94-.19-.34-.13-.7-.16-1.05-.02-.19-.09-.39-.16-.57-.03-.08-.16-.13-.17-.21-.02-.21-.01-.43,0-.64,0-.07.06-.14.09-.21-.04-.02-.1-.06-.1-.06v-.43s.06-.01.09-.02c-.03-.2-.06-.37-.1-.57-.09-.02-.21-.04-.28-.05.07-.18.14-.34.21-.52-.02-.02-.07-.07-.11-.12l.03-.03c.06.02.12.05.18.07.02-.01.04-.03.06-.04-.12-.2-.24-.4-.36-.6.08-.02.16-.04.29-.07-.18-1.05-.35-2.08-.52-3.11-.08-.48-.14-.96-.21-1.44-.06-.38-.12-.75-.16-1.13-.04-.39-.05-.78-.11-1.16-.07-.48-.19-.95-.26-1.44-.1-.65-.17-1.29-.26-1.94-.04-.31-.11-.62-.15-.93-.06-.51-.09-1.02-.15-1.53-.05-.48-.2-.96-.15-1.43.07-.62-.22-1.08-.5-1.56-.04-.08-.18-.1-.27-.15-.04.08-.08.17-.12.25-.07.17-.13.34-.21.54-.02-.01.03.03.1.08-.08.04-.14.07-.17.09.06.11.12.22.17.31-.12.07-.19.11-.25.14.09.05.24.1.24.14,0,.2-.05.41-.09.64.14.09.18.6.04.74.06.18.12.33.16.49.03.1,0,.23.06.3.16.19.08.3-.09.38.03.15.06.28.08.4.07.48.14.95.19,1.43.07.68.11,1.36.17,2.05.02.17,0,.42.09.49.21.16.12.33.15.52-.08-.03-.12-.05-.25-.09.14.17.23.27.3.35-.06.23-.13.46-.18.68-.01.05.02.04.11.2.04.08-.03.22-.06.37.48.19.27.65.3,1.04-.07.05-.15.11-.2.14.1.08.16.14.22.19-.26.1-.14.33-.14.49,0,.5.04.99.07,1.49.03,0,.05,0,.08,0v-.94c.22.23.31.81.14.97-.22.2-.14.41-.1.63.13.74.26,1.49.38,2.23.06.36.12.73.19,1.09.08.41.19.82.25,1.23.09.59.13,1.19.21,1.79.13.91.28,1.81.41,2.72.14.98.26,1.96.39,2.94.11.81.23,1.62.33,2.43.13,1.03.22,2.07.38,3.1.08.5.02,1,.19,1.49.09.28.06.59.11.89.05.35.15.7.19,1.06.04.39,0,.78.04,1.16.05.52.15,1.04.22,1.55.12.85.23,1.69.34,2.56.06.02.15.06.17.07-.06.14-.16.26-.15.36.06.49.16.97.22,1.46.08.62.15,1.24.22,1.86.03.28.06.55.1.83.03.21.14.44.1.64-.11.62.17,1.18.25,1.77.04.32.13.63.18.95.05.34.04.69.14,1.02.15.5.18,1.01.26,1.52.13.79.51,1.43,1.35,1.83-.48,0-.84.12-1.1.48.12.08.23.15.33.22-.19.1-.37.19-.54.28.02.01.07.04.08.05-.15.09-.29.18-.44.26-.04.02-.1.01-.15.01-.1,0-.2-.03-.29-.02-.13.01-.26.05-.38.07-.51.11-1.07.12-1.51.35-.76.39-1.56.57-2.38.73-1.62.33-3.26.61-4.89.89-.53.09-1.07.16-1.61.19-.61.04-1.23.03-1.85.05-.8.04-1.6.11-2.4.14-1.4.06-2.79.11-4.19.13-.88.02-1.76,0-2.64-.06-.13,0-.25.04-.39.02-.45-.08-.91-.12-1.37-.14-.54-.02-1.07,0-1.61,0-.06.08-.12.12-.19.13-.15.01-.31,0-.47.02-.27.03-.53.09-.8.09-.43-.01-.85-.07-1.27-.11-.08,0-.16.01-.24.01-.26,0-.52.06-.78.02-1.04-.16-2.07-.32-3.1-.53-.94-.18-1.88-.36-2.78-.65-.83-.26-1.61-.68-2.42-1.01-.44-.18-.91-.29-1.36-.45-.12-.04-.2-.17-.3-.25-.06-.05-.12-.1-.19-.13-.25-.07-.47-.2-.7-.29-.78-.31-1.52-.72-2.24-1.15-.44-.26-.8-.64-1.21-.95-.59-.45-1.19-.88-1.77-1.33-.16-.12-.27-.31-.43-.44-.31-.24-.63-.46-.94-.69-.36-.26-.67-.61-1.15-.68-.08-.01-.19-.16-.19-.24,0-.36.04-.73.08-1.09.09-.78.19-1.57.29-2.35.13-.98.32-1.94.37-2.93.01-.28.13-.56.22-.89-.06.02-.14.06-.26.11.11-.47.21-.91.32-1.35.28-1.11.56-2.22.84-3.32.14-.55.28-1.1.42-1.65.24-.95.51-1.9.72-2.85.31-1.45.56-2.9.85-4.35.26-1.3.53-2.59.79-3.89.14-.73.25-1.47.39-2.19.11-.54.28-1.07.39-1.61.14-.71.26-1.43.38-2.15.11-.68.21-1.37.32-2.05.22-1.37.45-2.73.67-4.1.32-1.99.64-3.98.94-5.98.15-.98.54-1.9.59-2.9.02-.45.2-.9.27-1.35.11-.7.18-1.41.27-2.12.04-.29-.05-.4-.35-.38-.4.02-.49.14-.61.63-.12.5-.29.98-.43,1.47-.19.64-.39,1.28-.56,1.93-.44,1.69-.54,3.45-1.12,5.11-.03.08.04.19.01.27-.21.63-.43,1.26-.64,1.89-.13.39-.24.79-.36,1.18-.16.57-.32,1.13-.47,1.7-.14.54-.27,1.09-.39,1.64-.06.28-.09.56-.17.84-.18.61-.39,1.2-.58,1.81-.04.11-.05.23-.06.35-.01.1-.01.2-.02.39-.33.21-.35.69-.48,1.1-.12.38-.18.78-.29,1.16-.13.44-.34.86-.45,1.3-.19.78-.38,1.57-.49,2.36-.08.61-.47,1.13-.44,1.75,0,.02-.04.05-.05.07-.06.14-.13.29-.16.44-.05.33-.22.61-.26.95-.05.41-.23.81-.37,1.21-.19.54.04,1.16-.35,1.69-.23.32-.33.73-.49,1.1-.02.05-.02.1-.03.15.02,0,.03.02.05.02.09-.12.17-.25.26-.37.02.02.05.03.07.05-.09.13-.18.26-.27.38-.06.09-.16.16-.19.25-.24.92-.48,1.84-.69,2.77-.22.97-.42,1.94-.62,2.92-.16.77-.27,1.55-.44,2.32-.21.93-.47,1.85-.68,2.77-.16.71-.32,1.43-.41,2.15-.09.66-.18,1.37.13,1.99.32.63.8,1.17,1.36,1.6.51.39.86.93,1.32,1.35.24.22.29.62.68.68.01,0,.02.03.03.06-.04.03-.08.05-.12.08.22.22.55.27.75.58.17.27.39.61.8.63.04,0,.07.08.11.12.13.17.27.34.39.5-.08.08-.16.17-.28.31.16-.02.24-.03.36-.05-.22.39.25.35.26.61-.02.02-.07.05-.12.09.15.18.21.44.51.38.1.44.55.6.78.93.26.37.59.53,1.03.54,0-.05-.01-.11-.01-.1.17.02.33.04.56.06-.11-.14-.16-.21-.22-.29.08-.09.15-.18.23-.26-.02-.03-.03-.05-.05-.08-.17.07-.34.13-.5.2-.23.11-.43.04-.45-.13.18-.09.36-.18.51-.25-.22-.18-.43-.33-.62-.49-.17-.15-.47-.23-.39-.63.27.1.52.18.76.28.14.06.24.18.38.25,1.05.55,2.11,1.1,3.17,1.64.34.18.69.35,1.05.48.61.22,1.24.39,1.86.59.82.27,1.65.54,2.47.82.14.05.27.12.4.18,0,0,.01-.02.02-.02.12.04.24.08.41.14-.14.03-.25.06-.41.1.51.14.96.27,1.4.39.03-.13.05-.2.07-.32.2.27.6-.06.76.32-.14.03-.24.05-.35.07.82.11,1.62.34,2.44.1.18-.05.4.04.6.06.39.03.78.05,1.17.08.65.05,1.3.2,1.94.14,1.31-.11,2.61-.01,3.92-.04,1.05-.02,2.11-.02,3.16-.06,1.36-.06,2.72-.16,4.08-.23.74-.04,1.48-.03,2.22-.05.23,0,.45-.03.68-.03.11,0,.21.07.32.06.67,0,1.34-.05,1.99-.23.08-.02.16-.1.22-.08.3.08.54-.09.8-.18.08-.03.17-.07.25-.06.32.03.63.05.95,0,.41-.06.84,0,1.24-.08.91-.16,1.81-.37,2.7-.58.89-.21,1.74-.54,2.54-.99.71-.4,1.44-.77,2.17-1.12.22-.11.5-.09.75-.13,0,.03.01.05.02.08.05-.11.1-.21.16-.32-.08-.09-.16-.18-.23-.28.03-.03.06-.05.09-.08.14.15.27.31.39.44.39-.06.81-.13,1.25-.19-.02.05-.03.09-.06.18.12-.06.22-.08.29-.14.21-.19.39-.42.62-.58.65-.46,1.32-.9,1.99-1.35-.01-.02-.03-.04-.04-.07-.13.04-.26.09-.39.14.02-.09.06-.13.1-.15.31-.17.61-.33.92-.49.2-.11.29-.25.17-.47-.03-.05-.03-.11-.04-.18.17-.07.33-.13.48-.19-.09-.05-.17-.1-.21-.12ZM3.43,65.94c-.09.73-.21,1.48.23,2.22-.58.14-.31-.53-.65-.6-.1.2-.24.21-.43.05-.64-.54-1.24-1.12-1.69-1.83-.27-.42-.19-.89-.04-1.35.18-.54.35-1.08.5-1.63.27-.99.53-1.98.76-2.98.22-.99.38-1.99.58-2.99.2-1,.41-2,.62-3,.13-.6.25-1.21.4-1.8.04-.16.15-.3.26-.43.11-.14.13-.27.13-.45,0-.22.11-.44.18-.65.09-.29.2-.57.27-.86.14-.57.27-1.15.4-1.73.06-.28.08-.58.16-.85.12-.39.3-.75.44-1.14.04-.12.02-.25.03-.35.12-.32.27-.61.34-.92.08-.33.09-.68.13-1.05.13,0,.22-.08.13-.31-.03-.08.06-.2.08-.3.06-.25.16-.51.16-.76,0-.18-.07-.36.05-.53.07-.1.17-.18.22-.29.03-.05-.02-.14-.03-.2.05-.09.17-.19.15-.27-.07-.39.16-.71.23-1.07.02-.1.12-.17.19-.27-.04-.06-.08-.13-.07-.11.12-.36.25-.65.32-.95.19-.71.33-1.42.54-2.12.16-.56.4-1.1.57-1.66.08-.26.06-.55.11-.83.06-.3.13-.6.22-.9.11-.37.24-.73.36-1.09.02-.05.06-.09.1-.14.25.13.22.35.2.54-.06.57-.13,1.14-.22,1.71-.07.41-.18.82-.26,1.23-.08.42-.15.85-.23,1.27-.16.81-.32,1.63-.48,2.44-.21,1.08-.42,2.16-.63,3.24-.21,1.06-.42,2.11-.61,3.17-.27,1.48-.51,2.97-.79,4.45-.2,1.06-.44,2.11-.67,3.16-.37,1.79-.74,3.58-1.12,5.37-.13.6-.35,1.19-.45,1.8-.11.67-.1,1.36-.18,2.04-.16,1.25-.36,2.49-.52,3.74ZM17.92,77.44s.02-.05.03-.08c.24.08.48.15.72.23-.3.13-.51-.09-.75-.15ZM53.05,73.95c-.03-.08-.06-.15-.09-.23.18-.03.37-.06.57-.1-.06.31-.32.25-.49.32Z"/>
      <path class="cls-1" d="M25.03,27.03c.02-.5.12-.99.13-1.48.04-1.05.05-2.11.05-3.17,0-.12-.12-.34-.2-.34-.18,0-.49.04-.53.15-.16.42-.23.87-.33,1.3-.04.19-.09.38-.13.56.05.05.16.11.16.17,0,.14-.07.28-.13.5.11.2.08.43-.16.55.33.2.18.3-.12.36.11.06.19.1.35.18-.13.07-.21.11-.25.13.04.11.1.19.1.27,0,.18-.06.35-.06.53,0,.26.02.53.04.84-.22.14-.29-.14-.47-.34.07.28.11.48.17.7,0,0,.05,0,.08.02.09.04.17.08.25.12-.06.06-.14.11-.18.18-.06.11-.12.23-.13.35-.02.26,0,.53,0,.8,0,.06-.02.13,0,.19.04.22.13.43.14.65.01.19-.04.39-.08.68.11.16.16.43.06.75-.04.13-.07.3,0,.41.13.23.08.37-.14.49.12.31.22.57.07.87-.08.15-.12.32-.15.49-.04.25-.03.52-.08.77-.05.25-.17.49-.21.74-.04.28-.04.57-.04.85,0,.54,0,1.07,0,1.61.08-.01.13-.02.22-.03-.11.15-.24.25-.25.36-.04.53-.05,1.07-.06,1.6,0,.12.08.23.12.35,0,0-.09.02-.17.04.05.24.09.47.12.64-.05.12-.13.21-.14.32-.04.28-.18.56.02.84.02.03-.04.11-.05.16,0,.07,0,.13,0,.2,0,.35.02.69.03,1.04,0,.13,0,.26,0,.38,0,.1-.08.22-.08.33.01.69.04,1.38.07,2.06.02.43.06.86.09,1.34,0,0-.05.02-.09.05.03.05.09.11.08.16-.05.37-.13.75-.16,1.12-.04.54-.03,1.09-.04,1.64,0,.41,0,.82-.03,1.23-.02.36-.08.72-.13,1.07,0,.08-.04.16-.04.24,0,.28.05.56.04.84-.02.52-.07,1.04-.12,1.57-.07.72-.17,1.43-.24,2.15-.05.52-.09,1.03-.12,1.55-.03.57-.03,1.14-.06,1.7-.01.22-.09.43-.08.65.02.3.12.59.12.89,0,.7-.03,1.4-.04,2.1,0,.24.03.49.03.73,0,.22-.06.44-.07.65,0,.07.06.13.09.2-.06.05-.12.1-.17.14.06.07.16.17.15.18-.24.32.26.67-.03.98,0,.01.02.05.02.08.02.08.01.17.05.23.09.15,0,.29-.01.43-.01.26.06.52.07.78.01.36,0,.72,0,1.07,0,0,.03,0,.09-.02-.11.25-.2.47-.3.7.07.01.13.03.2.04-.03.2-.07.38-.1.57.01,0,.02,0,.03,0v1.66s0,0,0,0v.41c-.03.08-.04.16-.04.23,0,.11.04.23.04.34,0,.16-.05.33-.03.49.08.53.2,1.06.27,1.59.03.22.11.38.32.31.11-.04.25-.38.22-.4-.26-.23-.11-.51-.05-.7.09-.3.05-.53-.14-.76.11-.04.18-.07.26-.09-.13-.16-.07-.61.04-.75,0-.24,0-.43,0-.61,0-.23.03-.47.04-.7,0-.12,0-.24,0-.36-.01-.76-.03-1.53-.04-2.29,0-.08,0-.16,0-.24.02-.27.07-.55.06-.82,0-.21-.08-.42-.13-.64.01-.01.1-.05.11-.11.03-.26.05-.51.04-.77-.01-.33-.07-.67-.08-1-.01-.33,0-.66,0-.99,0-.28-.01-.56-.02-.84,0-.19-.08-.42,0-.58.15-.35,0-.7.07-1.05.08-.38-.03-.79-.03-1.18,0-.16.06-.32.06-.48,0-.54-.02-1.09,0-1.63.01-.42.07-.83.1-1.25.02-.35.02-.71.04-1.06,0-.1.08-.24.04-.28-.23-.25-.07-.53-.07-.79,0-.25.22-.57.13-.74-.21-.38.05-.63.11-.93.03-.14.02-.3.03-.44.02-.42.04-.83.05-1.25,0-.28.02-.55,0-.83-.02-.29.28-.62-.1-.88-.01,0,.04-.13.07-.19.04-.11.14-.3.11-.33-.23-.19-.11-.3.06-.4-.02-.1-.07-.2-.05-.27.09-.35.07-.68.03-1.05-.06-.56-.03-1.14.04-1.7.1-.8.01-1.61.15-2.41.03-.17-.15-.38.08-.53.02-.01-.06-.17-.1-.25-.03-.06-.11-.16-.09-.18.17-.2-.05-.33-.03-.48.08-.12.13-.25.17-.39.05-.19.14-.38.14-.58,0-.21-.07-.43-.11-.68.11.07.17.11.23.15-.05-.16-.22-.27-.23-.39-.04-.59-.05-1.18-.03-1.77,0-.28-.03-.62.37-.71-.09-.1-.16-.18-.23-.26.09-.04.18-.08.31-.13-.06-.09-.11-.18-.12-.2.05-.38.1-.69.15-1.01-.25-.23.03-.45.05-.59-.08-.2-.21-.38-.16-.45.14-.23.22-.44.29-.71.1-.36,0-.7.08-1.03.03-.14.07-.29.04-.43-.06-.31-.07-.6.2-.83-.35-.17,0-.38-.04-.58-.03-.13.04-.29.05-.44,0-.18-.02-.37-.02-.55,0-.87,0-1.75.02-2.62,0-.61,0-1.21.04-1.82Z"/>
      <path class="cls-1" d="M53.85,74.74c-.13,0-.25-.01-.43-.03.12.15.18.23.26.33-.52.11-1,.2-1.45.4-.35.16-.76.11-1.11.36-.4.28-.89.44-1.32.68-1.04.57-2.18.87-3.31,1.21-.54.17-1.12.21-1.69.31-1.41.25-2.82.54-4.24.74-1.5.21-3.02.32-4.52.5-.7.08-1.4.26-2.1.33-.31.03-.58.17-.89.17-.13,0-.26-.02-.38,0-.67.08-1.33.18-2,.25-1.78.17-3.55-.01-5.32-.09-.77-.03-1.54-.19-2.3-.3-.45-.07-.9-.18-1.36-.26-.34-.06-.67-.11-1.01-.14-.56-.05-1.13-.12-1.69-.09-.26.01-.46,0-.67-.13-.08-.05-.2-.03-.36-.06-.05-.06-.14-.16-.23-.26-.03,0-.06.02-.09.02.03.12.06.24.08.33-.44-.06-.91-.12-1.39-.18,0,0,.02-.07.04-.14-.23-.01-.44-.02-.65-.04,0-.03,0-.06,0-.09.09-.02.18-.05.27-.07-.08-.29-.29-.27-.51-.24-.17.03-.34.05-.57.09.1-.08.15-.12.26-.21-.22-.08-.38-.19-.53-.19-.41.01-.81-.09-1.19-.2-.33-.09-.63-.11-.95-.03,0,.02,0,.05,0,.07h.5s0,.06,0,.08c-.09.02-.17.05-.26.07v.09c.29.08.59.16.95.25-.08-.14-.14-.24-.19-.34.02-.02.03-.04.05-.05.2.16.41.32.61.48-.13-.03-.27-.07-.41-.1.07.13.14.26.21.38.03.05.09.11.14.13.55.2,1.09.41,1.64.56.2.05.44-.05.66-.08,0-.03,0-.06,0-.09.03.06.06.11.1.17-.11.05-.21.1-.33.16.06.04.11.08.12.08.21-.16.31.01.45.13.3.25.65.4,1.05.38.16,0,.32,0,.41,0,.09-.11.18-.28.23-.27.23.05.44.14.66.22.05.02.11.07.16.06.25,0,.51-.05.76-.03.37.02.73.07,1.1.12.03,0,.05.04.07.05.32.11.63.26.95.31.47.07.94.08,1.42.11.05,0,.1.02.14.04.43.25.88.27,1.37.23.6-.05,1.21,0,1.82-.02.45-.01.89.11,1.32.13.84.04,1.69.14,2.54,0,.54-.09,1.1-.02,1.66-.02.01-.12.02-.19.02-.26.13.38.38.28.63.2-.06-.06-.1-.11-.15-.16.26.02.48.14.71.14.63,0,1.27-.07,1.9-.09.53-.02,1.06-.04,1.59-.04.31,0,.63.04.94.02.65-.04,1.3-.09,1.94-.17.62-.08,1.24-.19,1.86-.31.25-.05.5-.16.75-.22.33-.08.66-.14.99-.23.93-.24,1.86-.48,2.79-.73.44-.12.9-.18,1.17-.64.05-.08.18-.13.28-.16.62-.19,1.25-.37,1.86-.55-.18-.3.07-.36.22-.43.16-.07.34-.1.52-.14-.06-.02-.13-.05-.26-.09.32-.16.58-.29.84-.43.29-.15.58-.3.86-.47.29-.17.57-.37.87-.54.14-.08.34-.09.45-.19.32-.33.7-.5,1.17-.48-.08-.07-.14-.12-.21-.18,0-.02.02-.04.02-.06.18.02.35.04.53.06,0-.02,0-.05,0-.07-.1-.05-.19-.09-.34-.16.22-.06.39-.11.6-.17-.37-.11-1.02.09-1.12.28ZM15.17,78.65c-.07.02-.13.03-.23.06.09.06.16.1.22.14-.01.03-.02.05-.03.08-.19-.07-.38-.14-.57-.2-.08-.03-.17-.05-.25-.07-.15-.03-.24-.1-.17-.27.15.03.29.07.44.09.2.03.39.05.59.08,0,.03,0,.06,0,.09ZM15.92,79.24s-.05.06-.07.09c-.12-.11-.25-.21-.37-.32.16-.05.32-.11.48-.16.01.04.02.08.03.12-.08.02-.16.03-.25.05.06.08.13.15.19.22ZM16.85,79.31s-.01-.1-.02-.14c.14-.02.27-.05.41-.07,0,.07,0,.14.01.22h-.41Z"/>
      <path class="cls-1" d="M12.72,28.92c-.1.61-.07,1.24-.12,1.86-.05.63-.14,1.26-.2,1.89-.06.6-.07,1.21-.15,1.81-.07.52-.1,1.04-.12,1.57-.03.74-.05,1.49-.06,2.23,0,.71.05,1.42,0,2.12-.05.87-.17,1.74-.24,2.61-.07.92-.13,1.84-.17,2.77-.04.95-.05,1.91-.07,2.86-.02,1.01-.03,2.01-.04,3.02-.02,1.11.06,2.21-.15,3.31-.09.49-.12,1,.02,1.5.02.08.02.19,0,.27-.11.33,0,.68-.14,1.03-.15.34-.1.77-.14,1.16-.03.33-.07.65-.07.98,0,.42.05.84.04,1.26,0,.31-.1.62-.13.93-.05.51-.09,1.03-.12,1.54-.01.2,0,.39,0,.59,0,.3.03.6.01.89-.02.33-.1.66-.1.98,0,.84.05,1.67.06,2.51,0,.56-.05,1.13-.04,1.69,0,.75.11,1.5-.07,2.25-.02.08,0,.17,0,.26.03.02.05.03.08.05.11-.13.27-.24.31-.39.11-.37.17-.76.24-1.14.03-.16.06-.32.05-.47-.01-.26-.08-.51-.09-.77,0-.65.01-1.29.02-1.94,0-.48,0-.95,0-1.43,0-.24.05-.49.05-.73.01-.49-.02-.99.01-1.48.05-.74.15-1.47.2-2.2.04-.56.05-1.12.09-1.67.04-.62.12-1.23.15-1.85.04-.91.05-1.83.07-2.74,0-.28.03-.55.05-.83.02-.29.04-.58.06-.91,0-.19.02-.42.02-.65,0-.69,0-1.38,0-2.07.03-.03.1-.08.17-.13-.01-.01-.02-.03-.04-.04-.07.03-.15.05-.3.1.11-.2.18-.33.27-.49-.05-.03-.15-.08-.28-.15.04-.07.1-.15.15-.24.07-.13.17-.25.2-.39.06-.3.06-.61.12-.9.1-.44.12-.88.06-1.32-.02-.16.03-.33.04-.5,0-.05,0-.11-.01-.16-.04-.28-.11-.56-.1-.84,0-.24.15-.47.17-.71.06-.61.07-1.23.12-1.84.03-.43.11-.85.14-1.28.04-.64.05-1.28.1-1.91.07-.95.18-1.9.26-2.85.16-1.89.32-3.77.47-5.66.05-.57.07-1.15.14-1.72.17-1.53.35-3.05.54-4.58.06-.52.13-1.03.2-1.55.03-.2.06-.41.11-.61.12-.42.28-.83.38-1.26.12-.51.2-1.03.31-1.64-.26.24-.52.39-.64.6-.2.36-.32.77-.48,1.15-.85,1.99-1.11,4.12-1.44,6.23Z"/>
      <path class="cls-1" d="M17.76,18.27c-.74-.08-1.47-.18-2.21-.27-.28-.03-.48.03-.44.39-.24-.05-.44-.04-.53.26.28.11.53.27.81.32.77.14,1.54.25,2.31.35,1.27.16,2.53.3,3.8.45.72.09,1.44.19,2.17.26.43.04.87.03,1.3.08.35.03.69.13,1.04.16.69.06,1.38.1,2.07.13.32.01.64-.01.95-.04.19-.02.37-.07.55-.11-.07-.34.23,0,.33-.13.04-.06.3.02.49.03-.12-.1-.19-.17-.28-.24.27-.13.49-.24.71-.35,0-.03,0-.05,0-.08-.37,0-.71,0-1.07-.14-.48-.18-1.04-.17-1.57-.23-.02,0-.05.03-.08.03-.1.02-.2.05-.29.04-.94-.11-1.88-.24-2.82-.34-.31-.04-.63-.02-.95-.05-.25-.03-.48-.13-.73-.16-.59-.05-1.18-.08-1.78-.1-.31-.01-.62,0-.95,0,.06.07.11.12.21.23-.4-.02-.75.02-1.07-.06-.66-.17-1.3-.36-1.98-.44Z"/>
      <path class="cls-1" d="M45.77,14.32c-.36-.03-.72.02-1.08.03-.54.01-1.08-.02-1.61.03-.41.04-.81.18-1.23.24-.66.1-1.32.17-1.98.24-1.19.13-2.39.25-3.58.36-.47.04-.94.02-1.41.03-.27,0-.55.06-.82.05-.4-.02-.81-.07-1.21-.11-.15-.01-.3-.03-.44-.04-.18-.02-.37-.02-.55-.05-.17-.03-.32.1-.53-.02-.23-.12-.55-.1-.83-.12-.35-.03-.7-.05-1.07-.07-.15.43-.71-.13-.88.26-.24-.12-.42-.26-.68-.15-.07.03-.2.03-.27-.01-.2-.11-.39-.25-.58-.38-.16.28-1.07.38-1.53.2-.07.08-.15.18-.25.3-.29-.44-.75-.42-1.23-.43,0,.07-.03.2.02.24.13.11.29.19.45.26.13.06.29.07.43.11.12,0,.22.03.32.04.08,0,.21.01.24-.03.18-.25.38-.21.55-.11.1-.05.17-.11.25-.12.1-.02.22-.01.32,0,.09,0,.18.02.27.03,0,.02,0,.04,0,.06-.16.05-.33.11-.54.18.23.12.42.23.61.34.01-.02.02-.04.03-.06-.08-.04-.16-.08-.26-.13.05-.04.08-.07.1-.07.31.02.62.05.93.08.22.02.44.06.66.05.19,0,.39-.08.58-.09.21-.02.43-.01.64-.02.25-.01.51-.08.75-.03.33.07.65.21.97.34.06.02.09.1.15.14.07.05.15.11.23.11.25.01.5,0,.75,0,0-.04-.01-.1-.02-.12.16.08.31.2.47.22.3.04.62.03.93.04.66,0,1.33.02,1.99,0,.51,0,1.02-.05,1.53-.07.2-.01.41-.03.61-.05.38-.03.78-.04,1.15-.12.37-.08,1.1-.15,1.45-.08.04,0,.11-.07.16-.1.13.05.28.08.42.05.27-.05.53-.14.8-.2.1-.02.25-.06.32-.01.21.14.36.14.47-.11.14.06.27.11.4.16-.01-.03-.02-.07-.03-.1.1-.07.23-.22.29-.2.28.11.62-.11.87.15.02.02.06.02.09.01.34-.05.67-.1,1.02-.16.11-.39.13-.4.58-.28.2-.13.36-.23.52-.33.1.1.17.18.26.27.11-.14.2-.25.33-.43-.5-.09-.9-.19-1.32-.23Z"/>
      <path class="cls-1" d="M41.48,18.61c.65-.07,1.31-.13,1.96-.23.88-.14,1.77-.27,2.59-.7.24-.13.53-.15.88-.24-.27-.06-.47-.11-.69-.16.03-.05.07-.12.13-.22-.18,0-.33-.02-.47,0-.7.09-1.4.21-2.11.29-.62.08-1.24.13-1.86.21-.08,0-.17.07-.21.14-.1.14-.17.29-.28.47.18-.02.35-.04.53-.07-.24.16-.46.3-.75.49.14.01.21.03.28.02Z"/>
      <path class="cls-1" d="M10.61,77.48c-.15-.02-.29,0-.38-.06-.29-.2-.56-.44-.84-.65-.37-.27-.85-.27-1.15-.01.09.14.15.29.25.36.28.18.58.33.87.49.43-.25.76.07,1.1.22.36.16.69.38,1.03.58.02-.03.04-.06.05-.09-.34-.21-.68-.41-1.01-.62.03-.09.05-.15.07-.21Z"/>
      <path class="cls-1" d="M17.14,1.09c.06.06.14.15.2.14.31-.03.62-.09.93-.14,0-.02,0-.05,0-.07h-.35c.26-.4.5-.03.8.03-.07-.11-.1-.15-.13-.2.27.33.56.21.86.09,0,0,.02,0,.03,0,.42,0,.85,0,1.27,0,.02-.09.04-.18.06-.29-.32.02-.61.05-.91.06-.29,0-.57-.02-.86,0-.38.01-.78.1-1.14.04-.31-.05-.25.09-.23.3-.25-.08-.46-.15-.73-.23.1.13.14.21.21.27Z"/>
      <path class="cls-1" d="M22.99.78c.18,0,.37-.08.55-.12-.2-.07-.36-.21-.62-.17-.39.07-.79.04-1.19.05-.24,0-.48,0-.72,0-.01.03-.02.06-.03.09.13.06.26.18.39.18.54,0,1.09,0,1.63-.04Z"/>
      <path class="cls-1" d="M22.37,14.83c.12.08.22.14.31.2,0,.02-.01.03-.02.05-.08,0-.16-.02-.25-.02-.01.04-.03.07-.04.11.17.03.42.14.49.07.19-.19.25-.03.41.02-.1-.14-.21-.28-.31-.43.1.02.19.03.28.04-.27-.27-.55-.13-.87-.04Z"/>
      <path class="cls-1" d="M44.11.7h.02s0,0-.01,0c0,0,0,0-.01,0,0,0,0,0,0,0,0,0,0,0,0,0Z"/>
      <path class="cls-1" d="M17.19,78.68c-.41-.13-.76-.25-1.1-.36.04.08.08.17.13.28.31-.14.56.42.98.07Z"/>
      <path class="cls-1" d="M16.87,1.24s.06-.1.08-.14c-.05-.03-.09-.07-.14-.07-.21,0-.42,0-.66,0,.19.33.5.42.72.22Z"/>
      <path class="cls-1" d="M42.63.46s0-.02-.01-.03c-.13-.02-.23-.27-.41-.03-.04.05-.33-.09-.55-.16.19.39.58.47.97.21Z"/>
      <path class="cls-1" d="M33.51,19.11h1.24s-.02-.02-.03-.03c-.15-.04-.29-.1-.44-.12-.27-.04-.53-.04-.78.15Z"/>
      <path class="cls-1" d="M29.5,15.77h1.03c-.32-.16-.66-.22-1.03,0Z"/>
      <path class="cls-1" d="M9.52,76.41c.31.1.63.2,1.02.32-.3-.37-.65-.39-.99-.42,0,.03-.02.06-.03.1Z"/>
      <path class="cls-1" d="M38.05,18.69c.22-.02.43-.03.71-.05-.15-.22-.25-.36-.34-.49-.02.01-.04.03-.06.04.04.08.08.16.12.22-.18.07-.32.13-.46.19,0,.03.02.06.03.09Z"/>
      <path class="cls-1" d="M8.79,75.94c.31.07.55.12.8.17,0-.04.01-.09.02-.13-.24-.06-.47-.31-.81-.04Z"/>
      <path class="cls-1" d="M23.55.66s0,0,0,0h0s0,0,0,0c0,0,0,0,.01,0,0,0,0,0,0,0Z"/>
      <path class="cls-1" d="M24.59.67c-.14-.04-.29-.08-.44-.13-.2.3-.43-.05-.66-.02.02.06.04.1.06.15.34.03.69.06,1.03.09,0-.03,0-.05.01-.08Z"/>
      <path class="cls-1" d="M35.7.14c.08-.11.3.23.28-.11-.23.01-.45.02-.75.04.17.13.3.24.47.37V.14Z"/>
      <path class="cls-1" d="M39.33.42s0,0,0,0h0s0,0,.01,0Z"/>
      <path class="cls-1" d="M24.27,40.57c.03-.18.06-.36.09-.55-.05,0-.09-.02-.14-.03-.04.18-.08.35-.12.53.06.02.11.03.17.05Z"/>
      <path class="cls-1" d="M21.73,15.09c-.05,0-.11.09-.16.14.04.03.09.1.13.09.17-.03.34-.08.56-.13-.22-.04-.38-.09-.53-.1Z"/>
      <path class="cls-1" d="M8.61,75.35s-.02.05-.04.08c.25.04.51.08.76.12,0-.03.01-.05.02-.08-.11-.04-.22-.1-.34-.11-.13-.02-.27,0-.4,0Z"/>
      <path class="cls-1" d="M39.32.42s-.05-.03-.08-.04c0,0,0,0-.01,0,.03.01.06.03.09.04,0,0,0,0,0,0Z"/>
      <path class="cls-1" d="M11.13,77.22l-.02-.14c-.19-.05-.36.04-.52.15,0,.03.01.07.02.1.17-.04.34-.08.52-.12Z"/>
    </g>
  </g>
</svg>