<?xml version="1.0" encoding="UTF-8"?>
<svg id="Layer_2" data-name="Layer 2" xmlns="http://www.w3.org/2000/svg" viewBox="0 0 82.9 103.09">
  <defs>
    <style>
      .cls-1 {
        fill: #000;
        stroke-width: 0px;
      }
    </style>
  </defs>
  <g id="illustrations">
    <g>
      <path class="cls-1" d="M52.97,68.15c-.25-.59-.67-1.11-.68-1.8-.07.05-.14.1-.22.16-.08-.23-.16-.43-.22-.63-.06-.2-.22-.17-.34-.13-.06.02-.13.17-.12.25.04.32.08.64.17.94.05.16.22.28.34.41.03.04.11.05.13.09.09.21.16.42.25.66-.19-.01-.32-.03-.44-.03-.18,0-.37.02-.55,0-.36-.05-.72-.13-1.08-.18-.4-.06-.8-.1-1.2-.16-.06,0-.15-.07-.17-.12-.09-.3-.19-.59-.24-.9-.04-.28-.05-.57.16-.83.08.07.14.12.2.18.28.26.48.29.82.14.2-.09.4-.2.61-.2.46,0,.78-.31,1.05-.57.42-.41.89-.72,1.37-1.03.08-.05.13-.16.2-.24.04-.06.12-.1.19-.15.1-.06.23-.2.29-.17.22.08.25-.11.32-.16.1,0,.22.01.22,0,.05-.18.41-.19.29-.47,0-.01.06-.06.1-.08.09-.03.21-.04.29-.09.09-.06.2-.15.22-.24.01-.07-.11-.19-.19-.22-.12-.06-.28-.03-.4-.09-.17-.08-.24,0-.31.13-.04.07-.15.18-.2.17-.34-.08-.57.12-.83.27-.1.06-.25.02-.38.03-.05,0-.12,0-.16.01-.08.04-.15.11-.23.15-.23.11-.46.22-.69.33-.14.06-.28.11-.41.18-.45.25-.9.49-1.33.76-.19.12-.34.32-.5.48-.12.12-.24.24-.42.07-.05.16-.05.35-.15.44-.18.16-.4.32-.62.38-.18.05-.27.14-.29.28-.04.27-.05.55-.07.83,0,.03.03.09.05.1.36.09.27.41.35.6-.43-.04-.86-.08-1.29-.13-.51-.07-1.05-.03-1.47-.43.06.1.12.2.2.34-.34-.08-.66.02-.87-.21-.22.02-.44.11-.6.04-.17-.07-.27-.29-.4-.45-.01,0-.02,0-.03.01.05.14.09.27.13.39-.26,0-.52,0-.78,0-.49.01-.85-.26-1.23-.51-.04-.03-.09-.03-.14-.05,0,.05,0,.12.02.16.02.04.09.05.13.08-.02.04-.04.07-.06.11-.22-.05-.44-.09-.65-.17-.29-.11-.43-.39-.42-.69,0-.11-.06-.28-.14-.31-.16-.07-.22.1-.26.22-.06.23-.11.46-.17.71-.04-.03-.09-.07-.14-.1-.06-.03-.16-.1-.18-.08-.21.19-.42.04-.63.02-.09-.01-.18-.08-.28-.13-.01,0-.06.07-.1.07-.24-.02-.48-.03-.72-.08-.36-.06-.72-.15-1.08-.21-.3-.05-.6-.06-.9-.11-.07-.01-.17-.1-.19-.17-.11-.47-.21-.94-.3-1.42-.05-.26-.2-.42-.41-.4,0,.03,0,.06,0,.09.02.16.07.33.07.49,0,.18-.04.36-.06.55-.03.24-.06.48-.1.72,0,.05-.11.12-.15.11-.19-.02-.38-.09-.57-.11-.39-.04-.77-.05-1.16-.08-.13,0-.27-.01-.4-.02-.06.04-.13.07-.21.07-.54,0-1.07-.16-1.57-.36-.01,0-.02-.01-.03-.02-.26-.06-.52-.12-.78-.18-.04,0-.07-.1-.08-.15-.02-.18-.01-.37-.03-.56-.02-.18-.05-.36-.07-.53.02,0,.04-.02.05-.02.21.24.22.63.59.79-.03-.22-.05-.4-.09-.58-.03-.18-.06-.36-.31-.41-.11-.02-.25-.14-.06-.26-.06-.09-.1-.2-.17-.27-.07-.07-.17-.1-.26-.15-.04.08-.1.15-.11.23-.02.37-.02.75-.05,1.12-.02.22-.09.44-.14.65-.27-.03-.48-.02-.67-.07-.05-.01-.11-.02-.16-.04-.07.05-.15.09-.24.09-.54-.02-1.05-.17-1.55-.35-.46-.04-.91-.1-1.36-.18-.17-.03-.45-.01-.46-.34,0-.34-.05-.67-.08-1.01-.32.08-.38.22-.37.5,0,.26-.06.53-.1.81-.32-.09-.59-.19-.87-.23-.51-.07-1.03-.1-1.54-.16-.46-.05-.91-.12-1.36-.19-.1-.02-.24-.07-.27-.14-.08-.2-.15-.41-.15-.62,0-.47-.04-.56-.45-.69-.08.44-.15.87-.22,1.25-.26-.03-.51-.06-.77-.08-.17-.01-.35.01-.52-.01-.34-.05-.68-.11-1.03-.17-.13-.02-.27-.07-.4-.08-.13,0-.26.06-.34-.1-.02-.04-.15-.06-.19-.03-.23.17-.47.06-.7.03-.14-.02-.2-.09-.22-.25-.07-.4-.18-.79-.29-1.19-.02-.07-.12-.11-.19-.16-.03.07-.08.14-.09.21-.05.4-.09.79-.13,1.14-1.34-.19-2.66-.38-3.94-.57-.1-.5-.2-1-.31-1.5-.55.35-.28.92-.47,1.31-.26-.03-.5-.07-.75-.1-.26-.03-.51-.06-.77-.1-.33-.06-.65-.14-.98-.22-.08-.02-.18-.07-.2-.13-.15-.39-.28-.79-.42-1.19-.04-.12,0-.18.13-.19.17-.01.34-.02.51-.04.08,0,.16-.06.23-.05.28.06.53-.01.78-.11.18-.07.38-.11.57-.17,0,.03.02.05.03.08-.25.13-.5.27-.75.39-.17.08-.22.24-.16.38.03.06.21.08.32.08.09,0,.18-.04.27-.08.61-.32,1.27-.42,1.93-.55.07-.01.19.03.23.09.19.33.58.43.89.23.13-.08.28-.18.42-.18.31-.01.63.05.91-.24.03.22.03.39.07.55.02.08.12.21.19.21.29,0,.59.02.86-.06.24-.07.4-.03.54.14.1.12.18.11.3.06.15-.06.3-.11.45-.17.12.36.12.35.49.34.25,0,.52-.03.75.04.27.07.49.05.72-.1.19-.12.4-.19.6-.28-.26.33-.26.43.06.72.14.13.28.2.49.12.36-.13.73-.23,1.04-.33.03.16.02.3.09.37.08.08.22.11.34.14.15.03.3.02.46.02.26,0,.53-.01.79-.05.19-.03.38-.11.57-.17-.12.1-.26.19-.34.31-.08.13-.15.31-.12.44.05.18.22.3.44.27.49-.08.98-.13,1.46-.24.2-.05.36-.21.59-.1.03.01.1-.03.14-.07.17-.14.35-.13.56-.08.41.09.36.18.66-.16.07-.08.19-.16.29-.17.43-.04.84-.16,1.24-.32.03-.01.08-.01.11-.02-.15.07-.29.14-.44.22,0,.03.01.05.02.08.58.09,1.14-.16,1.73-.15-.22.08-.24.27-.24.44,0,.13.1.25.09.38-.01.25.13.27.31.24.29-.05.58-.11.87-.18.24-.06.47-.16.71-.24.26-.09.5-.1.77,0,.13.05.31-.02.45-.07.11-.03.19-.13.3-.17.61-.25,1.22-.52,1.85-.72.4-.13.79-.26,1.16-.46.26-.14.3-.38.06-.54-.24-.16-.51-.19-.79-.08-.12.05-.26.05-.4.07-.16.02-.36-.02-.49.06-.34.21-.73.14-1.09.26-.34.12-.71.16-1.07.24-.14.03-.27.08-.41.12-.14.04-.29.06-.42.11-.3.09-.6.2-.91.28-.06.02-.19-.02-.21-.07-.08-.17-.19-.22-.35-.14-.1.05-.2.09-.3.11-.3.06-.6.11-.9.17.14-.06.28-.13.41-.19.39-.19.78-.36,1.21-.46.26-.06.52-.16.78-.24.19-.06.39-.1.58-.16.11-.03.26-.05.31-.13.11-.17.1-.38-.08-.5-.21-.14-.45-.23-.68-.33-.06-.03-.15-.02-.22,0-.2.06-.4.13-.61.2-.05.02-.09.05-.14.06-.13.01-.27.01-.4.02-.16,0-.35-.03-.46.05-.17.12-.21.05-.32-.06-.07-.08-.19-.13-.3-.17-.08-.03-.17-.02-.25-.03-.4-.02-.8.04-1.19-.11-.03-.01-.06,0-.09,0-.41.05-.82.1-1.22.17-.36.06-.73.15-1.09.24-.42.1-.85.2-1.27.3-.41.1-.81.22-1.22.32-.48.12-.97.25-1.46.37.02-.07.06-.09.1-.12.61-.43,1.35-.54,2.04-.75.44-.13.9-.19,1.35-.29.13-.03.32-.09.35-.18.06-.19-.06-.36-.24-.46-.04-.02-.08-.05-.12-.08-.52-.3-1.04-.04-1.56-.02-.22,0-.44.06-.65.02-.27-.05-.52-.17-.79-.26-.09.26-.21.12-.34-.03,0,.29-.19.31-.37.34-.14.02-.28.02-.42.03-.06,0-.12.02-.18.04-.14.05-.28.11-.43.15-.24.06-.49.08-.73.14-.46.13-.92.28-1.38.42-.14.04-.28.07-.42.1-.01-.02-.03-.04-.04-.06.03-.05.05-.12.1-.14.09-.04.2-.04.29-.08.69-.3,1.41-.57,2.06-.96.07-.04.13-.08.25-.16-.26-.04-.45-.07-.65-.1-.24-.03-.24-.03-.09-.26-.33,0-.61.19-.96.08-.17-.06-.41.11-.62.14-.22.03-.44,0-.66,0-.16,0-.36-.05-.47.02-.19.12-.36.1-.55.08-.04,0-.08,0-.12,0-.64.03-1.25.22-1.86.41-.24.07-.47.17-.7.32-.18.13-.49.08-.75.11.31-.45.77-.58,1.26-.6,0,0-.02-.01-.1-.06.34-.13.65-.24.96-.35.15-.05.36,0,.38-.17.16-.07.3-.09.39-.17.16-.13.13-.32.06-.5-.06-.16-.2-.16-.35-.17-.64-.04-1.25.17-1.87.26-.35.05-.69.15-1.05.01-.08-.03-.17-.05-.25-.03-.35.07-.69.16-1.03.24-.06.01-.18,0-.19-.02-.07-.22-.22-.11-.34-.09-.22.03-.39.26-.65.17,0,0-.03.02-.04.02-.33.11-.66.22-1,.32-.42.12-.85.24-1.28.35-.39.1-.78.2-1.16.31-.1.03-.2.06-.28.12-.18.13-.35.2-.48.06-.18.1-.32.21-.48.27-.46.17-.93.32-1.39.5-.07.03-.17.11-.17.17,0,.2-.05.4,0,.61.05.2.12.28.3.25.13-.02.18.02.23.13.09.18.2.35.31.52.05.09.09.17.13.23.12.06.23.12.35.16.16.05.36.16.48.11.36-.16.69.02,1.02.02.38,0,.76.1,1.14.17.07.01.12.05.19.08.27.11.54.29.81.29.24,0,.43-.06.7.06.37.17.83.13,1.26.18,0,0,.02,0,.02,0,.4.05.83-.1,1.2.16.02.01.05,0,.07,0,.25.02.51.03.76.06.29.03.58.08.86.13.13.02.25.13.37.13.37,0,.72.04,1.07.14.23.07.49.04.73.07.09.01.18.09.27.11.24.06.49.11.73.16.1.02.2.05.29.06.29.02.59-.03.86.05.44.13.89.14,1.34.18.11.01.25.01.33.07.36.24.77.23,1.18.22.27,0,.59-.07.81.03.33.15.67.2,1,.26.64.12,1.3.16,1.94.25.52.07,1.05.16,1.57.24.3.05.59.11.89.14.36.04.71.04,1.07.07.15.01.3.09.45.1.12.01.24.02.35.04.53-.13,1.1.06,1.62.17.03,0,.06,0,.09.01.34.09.67.2,1,.3.03,0,.06,0,.09,0,.51.08,1.01.17,1.52.25.04,0,.08.01.12.02,0,.01,0,.02,0,.03,0,0,.01,0,.02,0,.16,0,.31.03.46.07.04,0,.08.02.12.03v-.04c.06,0,.11.02.16.02.38.05.76.1,1.14.13.38.03.75.04,1.13.05.41.01.78.22,1.21.18.37-.03.75.1,1.13.15.11.02.23.02.35.03.71.08,1.42.15,2.13.24.43.05.86.12,1.29.2.25.04.49.14.74.17.4.04.81.04,1.22.08.2.02.4.07.61.1.34.05.67.11,1.01.13.48.02.98-.06,1.43.17.03.01.06.01.09.01.37,0,.74.02,1.1.02.17,0,.33,0,.5,0,.35.03.71.05,1.05.12.76.14,1.52.31,2.29.46.06.01.12.03.18.02.15-.03.3-.11.44-.1.37.05.74.12,1.1.23.26.08.5.13.79.05-.11-.28-.2-.53-.31-.79ZM9.95,58.62s.01.05.02.07c-.37.09-.74.19-1.11.28,0-.02-.01-.04-.02-.06.37-.1.74-.19,1.11-.29ZM6.35,60.84c.06.28.13.57.21.89-.25-.05-.47-.09-.68-.13-.31-.07-.62-.16-.93-.21-.15-.02-.32.01-.46.07-.27.11-.41-.08-.56-.26.07,0,.14.01.27.02-.07-.1-.12-.17-.17-.25-.1.08-.19.15-.27.22-.02-.01-.03-.02-.05-.04.05-.11.11-.21.16-.31-.12-.11-.22-.21-.3-.28.17-.07.37-.22.56-.22.35,0,.64-.16.95-.25.71-.22,1.4-.47,2.1-.7.09-.03.19-.04.3-.05-.42.3-1,.37-1.34.91.24.09.45.16.68.24-.04.24-.28.25-.45.37Z"/>
      <path class="cls-1" d="M82.88,42.67s-.19-.06-.29-.05c-.4.03-.79.07-1.16.11-.11-.3-.21-.59-.32-.86-.08-.19-.21-.34-.43-.38-.05-.01-.14-.1-.13-.14.04-.18-.1-.22-.19-.31-.16-.18-.33-.36-.42-.57-.16-.36-.25-.75-.39-1.13-.23-.61-.47-1.21-.73-1.81-.16-.36-.37-.69-.55-1.04-.09-.17-.16-.35-.23-.52-.07-.19-.13-.38-.2-.56-.13-.29-.27-.57-.4-.86-.15-.34-.27-.69-.42-1.04-.12-.29-.26-.57-.43-.84-.2-.32-.29-.71-.43-1.07-.08-.19-.19-.37-.27-.55-.07-.17-.12-.34-.17-.51-.17-.58-.41-1.13-.68-1.67-.37-.73-.66-1.5-1.01-2.25-.24-.52-.51-1.03-.77-1.55-.11-.21-.23-.41-.36-.62-.06-.1-.22-.21-.21-.29.03-.24-.13-.38-.22-.56-.18-.37-.34-.74-.5-1.12-.08-.18-.13-.38-.2-.57-.06-.17-.14-.33-.21-.5-.02-.05,0-.11-.03-.16-.2-.55-.41-1.09-.61-1.64-.03-.09,0-.19,0-.29l.08-.02c.08.13.18.25.24.38.11.25.2.52.31.77.02.04.1.04.15.06,0-.05,0-.11-.01-.16-.07-.18-.17-.34-.23-.52-.19-.52-.38-1.04-.57-1.57-.11-.31-.21-.62-.31-.93-.1-.31-.16-.64-.27-.95-.12-.34-.28-.67-.39-1.02-.27-.81-.53-1.62-.77-2.44-.15-.51-.24-1.03-.35-1.54,0-.03.01-.07.03-.11.04-.11.1-.21.11-.32,0-.51.35-.89.53-1.33.09-.24.31-.42.47-.63.08-.1.15-.26.24-.28.19-.04.25-.18.36-.3.2-.21.4-.39.73-.37.08,0,.2-.06.26-.12.17-.18.3-.39.47-.56.18-.18.39-.32.6-.48.06-.04.12-.08.18-.12.27-.18.54-.35.8-.53.09-.06.15-.16.24-.23.19-.13.42-.22.6-.37.36-.29.74-.57,1.01-.92.22-.29.49-.46.77-.65.22-.15.52-.19.67-.44.1-.17.22-.32.33-.49-.18-.09-.13-.25-.07-.41.04-.09.1-.18.14-.27.02-.05.05-.14.03-.16-.1-.1-.06-.19,0-.29.05-.1.12-.2.13-.3.03-.44.05-.88-.18-1.29-.05-.09-.08-.21-.09-.26-.09-.04-.14-.09-.21-.1-.1-.03-.22-.07-.32-.05-.13.03-.26.11-.37.19-.29.2-.57.41-.86.6-.4.26-.81.51-1.21.77-.16.11-.3.25-.46.35-.6.35-1.2.7-1.71,1.18-.03.03-.07.08-.1.09-.37.06-.59.36-.86.57-.29.22-.58.47-.9.62-.52.23-.99.53-1.41.89-.61.52-1.15,1.12-1.73,1.67-.24.23-.49.43-.75.63-.18.14-.38.27-.56.41-.16.13-.31.29-.47.43-.41.35-.83.71-1.24,1.06-.07.06-.14.12-.23.16-.2.09-.42.14-.6.26-.31.21-.6.45-.89.68-.15.11-.28.24-.44.34-.29.19-.6.36-.9.54-.44.28-.87.58-1.32.88-.01.02-.04.09-.08.13-.49.38-.98.76-1.49,1.12-.52.37-1.06.73-1.6,1.08-.21.14-.41.28-.6.44-.32.27-.7.48-1.05.72-.07.05-.11.13-.18.17-.41.22-.82.43-1.22.66-.28.15-.54.34-.83.48-.58.26-1.1.6-1.56,1.03-.14.13-.27.28-.42.4-.11.09-.26.14-.38.22-.54.37-1.07.75-1.6,1.13-.18.13-.43.18-.5.44-.02.07-.14.12-.22.16-.23.11-.5.17-.66.39-.05.06-.09.13-.15.17-.54.37-1.09.73-1.64,1.1-.12.08-.24.17-.36.25-.22.15-.44.31-.66.46-.19.12-.42.17-.55.38,0,.01-.04.01-.07.02-.1.04-.2.06-.28.11-.1.07-.18.19-.28.25-.34.22-.69.42-1.01.66-.15.11-.43.1-.43.39,0,.02-.06.05-.09.06-.23.1-.47.19-.69.31-.22.12-.43.27-.65.41.01.02.03.06.06.1-.11,0-.2.01-.3.02q-.04.2-.25.18c-.16-.02-.31.06-.41.23.11-.05.2-.09.29-.13,0,.02.01.04.02.05-.21.1-.35.38-.66.23.06.03.12.05.24.11-.14.05-.29.13-.3.11-.15-.22-.27-.04-.41,0,.1.01.19.03.34.04-.86.58-1.88.81-2.49,1.59-.12,0-.22-.03-.29,0-.33.2-.66.42-.98.64-.22.15-.43.32-.66.47-.34.22-.71.39-1.02.65-.32.27-.64.5-1.02.67-.07.03-.14.1-.17.17-.12.24-.16.51-.41.68-.17.12-.28.32-.45.44-.41.29-.84.55-1.25.84-.62.44-1.22.9-1.84,1.33-.4.28-.83.51-1.24.78-.5.34-.98.72-1.48,1.06-.39.27-.83.48-1.19.78-.38.32-.8.57-1.22.82-.6.36-1.21.69-1.66,1.25-.04.05-.09.09-.15.11-.23.11-.48.19-.7.31-.58.32-1.16.64-1.71,1-.73.48-1.44,1-2.16,1.51-.06.04-.08.16-.12.27-.22.03-.5.05-.77.09-.22.03-.43.08-.65.11-.89.1-1.78.19-2.67.28-.32.03-.63.06-.95.06-.23,0-.45-.09-.68-.08-.28.01-.57.09-.85.14,0,.02,0,.04,0,.06.04.02.09.05.09.05-.06.06-.13.13-.19.2.2.18.02.27-.07.38.09.21.1.49.45.48-.07.06-.13.08-.14.11-.03.13-.06.27-.07.4,0,.05.07.14.11.15.41.07.55.34.64.73.16.72.23,1.43.13,2.16-.11.8-.2,1.61-.32,2.41-.05.36-.13.72-.26,1.07-.11.32-.26.64-.46.91-.21.28-.48.51-.76.72-.59.44-1.19.85-1.79,1.27-.04.03-.08.05-.13.06-.99.38-2,.7-2.99,1.11-.05.02-.11.03-.16.04-.26.01-.53.06-.79.03-.43-.05-.83.05-1.23.19-.05.02-.11.03-.16.03-.5.04-1,.08-1.49.1-.22,0-.36.11-.41.31-.06.23-.09.47-.12.7-.06.53.04,1.05.16,1.56.09.37.14.76.14,1.14,0,.37-.1.74-.13,1.11-.12,1.45-.36,2.9-.21,4.36.03.33.07.67.18.99.13.4.48.56.88.54.13,0,.3.08.41.17.28.23.54.49.9.59,0,.05-.02.14,0,.16.19.16.39.32.66.28.07,0,.16,0,.23.02.22.05.43.12.65.17.32.07.64.12.96.2.43.11.86.24,1.29.37.07.02.14.1.18.17.13.22.25.45.36.65,0,.15.01.3.09.44.1.18.2.35.27.54.12.31.18.64.32.93.38.78.79,1.54,1.2,2.3.21.4.47.77.67,1.18.39.81.76,1.64,1.13,2.46.18.4.4.8.51,1.23.25.93.45,1.86.62,2.8.03.15.17.48-.17.6-.02,0-.02.12,0,.19.03.14.09.27.11.41.06.43.11.86.16,1.3.06.59.22,1.18-.07,1.75-.07.14-.09.32-.09.43,0,.6-.19,1.1-.6,1.54-.16.17-.2.46-.37.61,0,0-.01.01-.02.02.42.64.95,1.22,1.68,1.52.86.35,1.92.25,2.75-.15.98-.47,1.43-1.29,1.6-2.25,0-.23,0-.47,0-.7.01-.41.03-.83.05-1.24-.1-1.19-.38-2.4-.49-3.32-.38-3.02-.13-6.39,1.72-8.88.09-.39.17-.78.26-1.17.01-.05.04-.12.02-.15-.13-.18-.27-.34-.38-.48-.16.08-.3.15-.43.22-.14.08-.31.15-.39.28-.16.24-.29.5-.38.77-.14.43-.21.88-.36,1.31-.21.62-.15,1.3-.47,1.88-.02.04,0,.11-.01.16-.02.21,0,.45-.09.62-.2.39-.1.77-.08,1.17.03.52.03,1.04.04,1.56,0,.04-.03.07-.05.11-.04-.27-.07-.53-.04-.78.04-.31.06-.59-.25-.78-.12-.08-.28-.03-.28.12,0,.36.02.73.06,1.09.03.28.13.54.16.82.07.53.12,1.05.18,1.58.05.48.13.96.16,1.44.03.44,0,.89.01,1.33.02.49.06.98.1,1.47.03.36.09.71-.02,1.06-.03.1,0,.21,0,.32,0,.05-.02.1-.05.13-.09.08-.18.16-.27.22-.37.23-.74.45-1.11.67-.09.05-.2.07-.27.14-.17.18-.37.17-.58.14-.15-.02-.32-.11-.46-.07-.31.08-.53-.1-.79-.2.12-.25.23-.49.32-.69,0-.14-.04-.27-.02-.38.07-.39.16-.77.25-1.15.04-.17.11-.34.13-.51.02-.18,0-.36,0-.54,0-.08,0-.16.02-.23.04-.28.12-.55.1-.82-.02-.4-.11-.79-.19-1.18-.18-.9-.34-1.79-.55-2.68-.16-.67-.36-1.33-.57-1.99-.12-.39-.28-.77-.44-1.15-.3-.75-.6-1.5-.91-2.24-.25-.58-.51-1.16-.77-1.73-.17-.36-.36-.7-.54-1.05-.11-.21-.26-.41-.36-.62-.05-.11-.01-.26-.06-.37-.06-.13-.19-.23-.25-.35-.15-.33-.28-.68-.42-1.02-.09-.22-.18-.44-.28-.7.21.03.4.06.59.1.55.11,1.09.25,1.64.34.54.09,1.09.12,1.64.18.07,0,.15.04.22.07.12.04.24.1.36.11.36.03.72.03,1.08.06.15.01.33.16.44.11.2-.08.33.02.48.07.09.03.2.04.3.05.28.04.55.07.83.11.21.03.42.07.64.1.18.02.37,0,.55.03.17.02.33.08.5.11.86.14,1.73.22,2.57.42.45.11.93.04,1.34.3.04.03.11.03.16.03.45.05.9.1,1.35.15.34.04.68.09,1.02.15.48.09.92.32,1.43.36.47.04.92.19,1.38.29.35.07.7.17,1.05.19.18.01-.05.03.13.06,0,.17,0,.34.01.51.01.2.06.4.07.6.02.26.01.53.02.79,0,.44.02.88.03,1.32,0,.16,0,.33.02.49,0,.04.47.09.51.1.23.07.32-.01.36-.26.03-.17.09-.34.13-.51.02,0,.03,0,.05,0,.03.15.05.31.08.46.02,0,.03,0,.05,0,0-.1.03-.21.02-.31-.03-.24-.07-.47-.11-.71-.01-.07,0-.15-.04-.19-.15-.16-.15-.34-.12-.52.06-.38.05-.75-.05-1.12-.05-.18-.07-.37-.1-.56.32.07.63.14.95.22.02,0,.05,0,.07.02.39.36.92.25,1.37.39.28.09.59.1.88.15.04,0,.09.02.13.03.01.27.03.54.05.8.04.43-.08.87.12,1.28,0,0,0,.02-.01.03-.09-.04-.17-.09-.26-.13l-.05.05c.09.37-.24.33-.16.7.01.05.01.12-.02.15-.07.07.26.13.19.19-.31.25-.66.38-1.05.46-.19.04-.43.02-.52.21-.11-.06-.21-.16-.31-.16-.6,0-1.14-.2-1.68-.4-.16-.06-.22.26-.25.12-.01-.04-.03-.08-.04-.11-.01.2-.01.41,0,.61.02,0,.03,0,.05.01,1.17.51,2.42.59,3.66.39.06-.09.11-.24.18-.25.23-.04.28-.14.2-.34,0,0,.02-.01.03-.02.04.09.08.17.12.26.07-.21.13-.42.19-.64,0,0,0,0,0,0-.05-.21-.08-.42-.09-.64.08.1.13.21.17.33,0-.05.02-.1.03-.14.01-.1.09-.17.18-.2-.02-.14-.04-.28-.06-.43-.01-.08-.04-.16-.04-.24-.01-.29-.01-.58-.03-.87-.02-.31-.07-.62-.07-.92.32.04.65.06.97.1.17.02.35.07.52.09.39.04.77.06,1.16.11.61.08,1.21.18,1.81.28.11.02.22.07.33.09.38.07.75.14,1.13.18.17.02.35-.01.52,0,.36.02.71.05,1.07.08.3.03.6.05.9.09.34.04.67.1,1.01.14.36.04.71.06,1.07.1.54.07,1.07.17,1.61.25.21.03.42.06.63.1.27.05.54.15.81.18.38.04.76.01,1.12.2.34.17.73.25,1.01.54.03.04.09.05.14.07.19.05.38.12.58.13.04,0,.08.01.12.02,0,0,.02,0,.03,0,2.04-.14,2.85,2.54,3.24,4.08.56,2.21.77,4.5.97,6.76.14,1.65.32,3.29.49,4.93.02.05.02.1.02.15.08.79.16,1.58.23,2.37.05.61.13,1.23.15,1.85,0-.02.05-.05.07-.06.03,0,.09.03.09.05,0,.18,0,.36-.01.53-.04,0-.07,0-.11,0-.01-.12-.02-.23-.03-.35,0,.22,0,.43,0,.65-.04.71-.2,1.42-.35,2.11-.16.72-.34,1.44-.42,2.18-.06.55-.1,1.23.26,1.7.07.09.15.16.23.24.73.32,1.47.62,2.22.85.43.05.86.08,1.22.08.96.02,1.94-.06,2.88-.27.06-.15.19-.2.39-.17,0,0,0,0,0,0,.08-.15.13-.31.15-.48-.05-.03-.13-.05-.25-.1.13-.01.19-.02.25-.03,0,0,0,0,.01,0,.06-.59-.1-1.25-.25-1.77-.15-.52-.34-1.04-.52-1.55-.1-.08-.19-.17-.22-.28-.12-.38-.18-.77-.24-1.16,0-.04,0-.08,0-.12-.23-1.08-.27-2.21-.26-3.31.03-1.53.2-3.05.2-4.59,0-1.5-.12-2.99-.09-4.49.03-1.43.31-2.76.83-4.09.49-1.27,1.11-2.49,1.6-3.77,0-.02.02-.03.03-.05.03-.18.08-.36.19-.52.12-.2.28-.39.46-.52.27-.21.6-.34.87-.55.55-.42,1.08-.87,1.61-1.31.46-.38.97-.69,1.29-1.22.02-.03.03-.05.05-.07.27-.21.55-.42.82-.64.53-.42,1.05-.86,1.58-1.28.04-.03.1-.05.19-.08.06.71.1,1.39.16,2.06.02.27.06.54.1.81,0,.04.06.06.08.1.04.09.09.18.09.28,0,.03-.14.06-.19.08,0,.13,0,.26,0,.4,0,.23,0,.46,0,.69.05.65.11,1.3.17,1.95.02.16.07.32.1.48,0,.19-.04.41-.01.61.02.12.24.58.24.7,0,.24,0,.48,0,.72,0,.22.03.44.04.66,0,.36,0,.71.02,1.07.01.26.07.51.09.76.02.33.02.67.02,1.01.01.56.02,1.12.04,1.68,0,.21,0,.42.03.63,0,.05.07.11.12.13.3.08.41-.02.46-.33.03-.22.11-.43.17-.65.02,0,.04,0,.06,0,.03.2.07.39.1.59.02,0,.04,0,.06,0,0-.13.04-.27.02-.4-.03-.3-.09-.6-.14-.9-.01-.08,0-.19-.05-.24-.18-.2-.19-.44-.15-.67.08-.48.06-.95-.06-1.43-.07-.29-.11-.59-.15-.89-.02-.12,0-.25-.02-.36-.06-.25-.16-.5-.19-.76-.06-.49-.12-.98-.13-1.46-.01-.57.05-1.15.05-1.73,0-.44-.07-.89-.07-1.33,0-.4.05-.81.07-1.21.03-.56.06-1.12.09-1.68.03-.57.05-1.15.09-1.72.02-.27-.01-.56.3-.7.06-.03.1-.1.15-.15.24-.23.49-.45.73-.68.37-.35.74-.71,1.11-1.06.29-.28.58-.56.88-.83.36-.32.73-.63,1.09-.95.17-.15.31-.35.58-.37.04,0,.08-.07.11-.1.15-.13.23-.35.51-.37-.02.23-.07.44-.05.64.01.17-.03.23-.19.24-.02,0-.04.03-.08.06.08.03.13.05.18.08-.05.19-.09.37-.13.56-.02,0,.02,0,.05.02-.01.08-.05.16-.03.21.1.24.09.47.04.71-.01.04-.09.07-.14.12.02.1.07.24.06.37-.03.29-.09.57-.14.85-.09.53-.2,1.06-.25,1.59-.06.63-.07,1.26-.11,1.89-.02.3-.03.6-.05.89-.01.16.05.27.19.34.08.03.15.07.23.11-.1.03-.18.02-.26,0-.06-.02-.11-.06-.16-.09-.02.07-.06.14-.07.21-.03.38-.04.76-.06,1.14-.01.25-.11.53-.03.76.09.28.01.53.02.79.02.47-.06.94-.07,1.42-.01.6.05,1.2-.03,1.81-.03.23.01.48.03.72.04.76.06,1.51.13,2.27.05.54-.1,1.11.15,1.63,0,0-.01.03-.02.04-.11-.05-.22-.11-.33-.16l-.06.06c.11.48.22.95.32,1.43.01.06.01.15-.02.19-.08.09-.19.17-.29.25-.39.32-.84.49-1.34.58-.25.05-.54.02-.66.27-.14-.08-.27-.2-.39-.2-.76.01-1.45-.25-2.15-.51-.21-.07-.27-.19-.32-.37-.09-.36-.37-.44-.66-.2.05.04.11.08.19.15h-.41c.09.13.14.23.22.29.18.14.37.28.57.39.19.1.4.15.58.26.21.12.4.28.6.43.15.12.3.25.45.37.06.05.12.09.19.11.19.06.39.11.58.16.06.02.13.02.2.02.14,0,.29-.03.43-.03.27,0,.56.19.82-.06.06-.06.16-.11.25-.11.35,0,.54-.16.6-.5,0-.05.02-.09.05-.13.07-.12.14-.31.23-.33.3-.05.35-.18.25-.44,0,0,.02-.01.03-.02.11.23.22.45.33.68.13-.22.27-.44.43-.65-.05-.09-.1-.18-.16-.27,0,0,0,0,0,0,.08-.2.21-.4.21-.6,0-.35-.07-.7-.12-1.06-.01-.1-.05-.2-.05-.3-.02-.37-.01-.74-.03-1.11-.02-.39-.08-.78-.09-1.18,0-.5.03-1,.04-1.5,0-.37-.02-.73,0-1.1,0-.34.05-.68.05-1.01,0-.6-.03-1.2-.03-1.79,0-.5.04-1.01.07-1.51.05-.74.11-1.48.16-2.23,0-.08.01-.2-.03-.25-.1-.11-.04-.17,0-.27.06-.12.19-.25.04-.4-.02-.02,0-.07,0-.11.03-.15.06-.3.08-.46.05-.4.13-.81.13-1.22,0-.22.3-.43.01-.66-.02-.01.03-.11.05-.16.03-.09.1-.2.07-.27-.09-.23-.01-.44.06-.65.02-.05.05-.13.03-.15-.24-.18-.04-.32,0-.49.08-.34.08-.69.13-1.03.04-.25.11-.49.16-.73,0-.02.02-.05.03-.07.02-.25.02-.49.06-.74.05-.31.14-.62.17-.94.02-.22.11-.34.32-.39.1-.03.22-.1.28-.19.13-.2.25-.38.52-.4.08,0,.16-.08.23-.14.15-.13.28-.27.44-.43-.02-.04-.05-.12-.1-.24.05-.06.14-.16.24-.25.25-.23.6-.38.7-.76.01-.05.1-.07.14-.11.16-.13.32-.26.49-.38.33-.26.65-.52.98-.77.28-.21.57-.41.85-.61.06-.04.13-.09.2-.1.2-.03.32-.13.37-.31.14-.53.22-1.07.41-1.57.18-.49.02-.97.08-1.45.03-.27-.08-.56-.06-.83.06-.65-.15-1.3.03-1.94.01-.04-.03-.08-.04-.13-.01-.05-.04-.1-.04-.15.07-.5.17-.99.23-1.49.11-.82.22-1.63.14-2.46-.03-.27.01-.55,0-.82-.03-.63-.07-1.27-.12-1.9-.03-.4-.07-.8-.13-1.2-.05-.32-.14-.63-.22-.94-.06-.22-.14-.44-.2-.66-.02-.07-.02-.21.02-.23.24-.13.48-.27.74-.34.18-.05.27-.13.22-.3ZM59.13,101.17c.05.33.08.58.12.84-.2-.15-.25-.43-.12-.84ZM69.83,82.06c.04.46.06.93.09,1.39,0,.11,0,.22-.01.38.07-.09.13-.16.19-.23.23.43-.07.74-.22,1.09h-.08c.02-.16.05-.31.05-.46,0-.12-.02-.24-.04-.36-.02-.13-.05-.27-.06-.4-.04-.51-.07-1.01-.1-1.52.03-.01.06-.03.09-.04.03.05.09.1.1.16ZM69.7,81.31c.05.17.18.3-.04.47-.05-.18-.16-.32.04-.47ZM74.97,86.13c-.07-.08-.17-.16-.19-.26-.07-.27-.1-.54-.11-.82.26.32.29.69.31,1.07ZM79.11,42.46c.12.07.26.11.4.14.15.03.31.04.46.04.06,0,.16-.05.18-.1.09-.21.36-.31.55-.18.16.12.29.26.46.41-.06.03-.12.08-.17.08-.56,0-1.06.22-1.57.39-.45.16-.87.38-1.32.55-.21.08-.44.08-.66.15-.37.12-.73.26-1.1.39-.05.02-.1.04-.15.05-.39.05-.79.07-1.18.14-.55.1-1.11.19-1.63.38-.48.18-1,.1-1.47.26-.29.1-.59.16-.88.24-.04.01-.07.04-.11.04-.24.01-.44.09-.66.21-.15.09-.39.03-.59.05-.46.05-.91.1-1.36.16-.19.02-.37.07-.56.08-.16.01-.35.11-.47-.12-.02-.05-.17-.03-.26-.07.17-.02.34-.03.51-.06.94-.15,1.88-.29,2.81-.44.24-.04.48-.14.73-.18.5-.07,1.02-.1,1.52-.19.72-.13,1.44-.29,2.16-.47.16-.04.29-.18.48-.31-.21.03-.39.05-.56.08-.2.04-.28-.02-.27-.28-1.25.2-2.49.4-3.78.61.29.03.54.06.78.08-.04.02-.09.06-.13.06-.52.05-1.04.09-1.56.14-.07,0-.15,0-.22,0,0-.02,0-.04,0-.06.36-.05.72-.1,1.08-.15,0-.01,0-.03.01-.04-.07-.02-.15-.08-.22-.07-.31.05-.62.12-.93.17-.36.06-.73.1-1.09.16-.12.02-.23.1-.36.14-.06.02-.14,0-.2,0-.17-.02-.33-.03-.5-.06-.06,0-.12-.03-.17-.04.01-.05.03-.11.04-.17-.37-.27-.73-.55-.86-1.05-.05-.2-.15-.39-.24-.58-.14-.32-.02-.5.33-.49.78.03,1.55.09,2.33.1.68,0,1.37-.03,2.05-.05.19,0,.38,0,.57-.01.66-.04,1.31-.09,1.97-.12.24-.01.47.03.71.05.32.02.63.03.98.05,0-.11-.01-.18-.02-.28.27-.03.54-.06.81-.09,0-.02,0-.03,0-.05-.84-.07-1.67-.13-2.51-.2,0-.03,0-.06,0-.08.35-.04.7-.07,1.04-.11,0,.03,0,.07.01.1-.08.02-.16.03-.23.05,0,.01,0,.03,0,.04.49.02.98.04,1.47.07.47.02.94.06,1.42.07.1,0,.2-.07.29-.1.25,0,.5-.01.75,0,.22.02.45.04.66.12.17.07.29.24.45.34ZM71.42,44.59c.16-.2.37-.09.55-.11,0,.03,0,.05,0,.08-.19.01-.38.02-.56.04ZM52.48,43l.02-.07c.14.03.28.07.43.1.11.03.22.07.32.07.57-.02,1.14-.05,1.71-.08.25-.01.49-.05.74-.06.24,0,.49.02.73.04.03,0,.06.01.09,0,.38-.16.78-.03,1.18-.07.38-.03.77-.03,1.15-.05.49-.02.98-.02,1.47-.05.45-.02.91-.07,1.36-.09.59-.02,1.18-.01,1.77-.04.25-.01.49-.08.74-.11.25-.04.35.06.39.3.11.62.22,1.23.33,1.85.03.17.06.35.1.59-.37,0-.69,0-1.01,0-.74,0-1.48.02-2.21.03-.02,0-.03,0-.05,0-.4-.03-.81-.13-1.19-.08-.67.1-1.32-.17-1.99-.07-.25.04-.52-.09-.78-.08-.27,0-.56-.07-.82.11-.05.03-.17.03-.19,0-.22-.29-.55-.18-.82-.21-.42-.05-.85-.04-1.28-.05-.23,0-.46-.01-.69-.03-.09,0-.18-.03-.27-.03-.08,0-.16,0-.23.01-.09.01-.19.06-.27.03-.34-.12-.69-.06-1.04-.05-.07,0-.15.02-.21-.01-.3-.16-.63-.08-.94-.09-.24-.01-.46.04-.69-.11-.06-.04-.21.06-.32.09-.09.02-.2.05-.27.02-.45-.22-.92-.05-1.38-.1-.34-.04-.69-.09-1.01-.18-.09.04-.19.11-.28.11-.86-.07-1.72-.01-2.57-.02-.35,0-.71-.05-1.06-.07-.4-.02-.8-.04-1.2-.05-.07,0-.13.06-.22.11-.19-.16-.39-.27-.64-.08-.04.03-.16-.05-.25-.05-.51-.03-1.02.02-1.51-.16-.11-.04-.25-.01-.37-.02-.32-.01-.65-.02-.97-.03-.18,0-.35,0-.53-.02-.49-.04-.98-.09-1.47-.13-.18-.02-.36-.04-.53-.05,0-.03,0-.05,0-.08.08-.01.15-.04.23-.04.41,0,.84.09,1.23-.01.42-.1.82-.06,1.23-.07.08,0,.16-.05.25-.06.32-.05.65-.1.98-.06.18.02.37-.03.56-.04.14,0,.28,0,.41,0,.4,0,.79-.03,1.19-.03.5,0,1,.02,1.5.03.03,0,.07.02.09,0,.51-.27,1.07-.11,1.61-.15.81-.06,1.62-.04,2.42-.07.28,0,.57-.06.85-.08.35-.02.7-.04,1.04-.04.33,0,.67,0,1,0,.02,0,.05,0,.07,0,.36-.25.76-.08,1.14-.14.41-.06.82-.08,1.25-.14-.12-.03-.23-.06-.35-.09ZM62.19,46.9c.13-.07.21-.13.16-.31-.02-.06.05-.17.11-.23.02-.02.13.04.2.06.12.03.27.03.37.1.38.23.74.06,1.12,0,.13-.02.28.03.4-.02.31-.12.6-.29.91-.42.1-.04.22-.08.31-.07.37.07.74.17,1.15.28-.08.06-.15.13-.23.18-.52.32-1.08.5-1.68.62-.27.05-.54.19-.77.36-.36.26-.75.28-1.12.18-.29-.08-.54-.3-.8-.46-.07-.04-.14-.09-.23-.14.04-.04.06-.09.1-.11ZM76.94,35.32c.31.24.32.67.53.97-.02.01-.05.03-.07.04-.18-.32-.35-.64-.53-.96.02-.02.04-.04.07-.05ZM76.69,34.55c.06.16.12.32.18.48-.03.01-.07.03-.1.04-.06-.16-.11-.32-.17-.48.03-.01.06-.02.08-.03ZM74,28.41c.05.05.1.1.13.16,0,.02-.05.07-.1.15-.06-.08-.12-.13-.12-.18,0-.04.06-.09.09-.13ZM70.38,18.08c.23.37.44.75.54,1.18-.03.01-.06.03-.09.04l-.51-1.18s.04-.02.06-.03ZM69.19,17.27c.1.12.12.32.17.48.21.58.41,1.16.64,1.74.22.55.47,1.08.7,1.62.02.05.02.1.03.16.04.23.04.49.14.7.14.32.36.6.53.91.16.3.29.62.45.92.08.15.19.28.27.42.03.05,0,.12.02.18.17.45.36.89.53,1.34.05.12.08.25.12.38.03.09.04.19.09.26.36.46.43,1.04.65,1.56.12.29.26.57.41.85.04.07.13.15.19.15.28,0,.27.22.36.44-.13-.04-.21-.07-.37-.12.3.69.39,1.41.89,2.01-.08.28,0,.5.24.57-.02.08-.07.16-.05.23.1.33.22.65.34.98.02.05.05.1.07.13.14-.05.34-.18.39-.13.13.13.19.32.28.48-.02.02-.05.03-.07.05-.03-.04-.07-.08-.09-.12-.04-.08-.06-.16-.11-.23-.03-.03-.09-.05-.14-.05-.04,0-.1.05-.1.08.01.18,0,.38.07.54.16.42.36.82.53,1.24.12.29.21.6.32.9.08.21.16.41.23.63.02.06,0,.12,0,.17.09.16.19.32.28.49.04.09.05.19.08.28.16.44.34.87.5,1.31.21.59.41,1.19.59,1.79.1.32.15.66.23.99-.17.05-.33.1-.53.16.01.02-.01-.02-.04-.06-.11.03-.22.06-.33.09,0-.03.01-.05.02-.08-.09-.05-.19-.15-.28-.15-.32-.02-.64,0-.95,0-.2,0-.4-.02-.61-.04.02.03.04.07.09.16-.18-.06-.31-.13-.44-.13-.5,0-1,.01-1.5.04-.25.01-.5-.05-.76.08-.11.06-.31-.08-.46-.07-.58.03-1.15.1-1.72.13-.1,0-.2-.06-.3-.07-.17-.01-.34,0-.51,0-.14,0-.29.08-.41.04-.43-.15-.86,0-1.29-.02-.92-.01-1.84,0-2.76.01-.17,0-.25-.04-.29-.22-.03-.16-.14-.31-.18-.47-.04-.16-.02-.32-.03-.52.5-.01.99-.03,1.48-.04.31,0,.62,0,.93,0,.59-.03,1.18-.08,1.76-.11.21-.01.42-.02.63.02.12.02.23.13.38.22.14-.19.4-.2.66-.2.11,0,.17-.04.16-.17,0-.07.03-.14.04-.24-.15-.05-.32-.17-.46-.14-.43.1-.83-.14-1.26-.08-.16.02-.32.06-.48.07-.09,0-.18-.03-.26-.05-.04,0-.08-.04-.1-.02-.39.25-.83.11-1.25.14-.39.03-.78,0-1.16,0-.19,0-.38-.03-.57-.02-.15,0-.31.04-.45.09-.29.1-.5.03-.59-.25-.16-.5-.29-1-.45-1.5-.13-.4-.29-.79-.41-1.19-.08-.25-.09-.51-.16-.76-.07-.23-.18-.44-.26-.67-.21-.61-.39-1.23-.61-1.84-.19-.52-.41-1.02-.61-1.54-.09-.23-.16-.47-.25-.7-.18-.47-.32-.97-.56-1.41-.34-.63-.54-1.31-.8-1.97-.08-.2-.26-.37-.19-.62,0-.02-.01-.05-.02-.06-.41-.45-.45-1.05-.66-1.58-.03-.07.01-.16.03-.26-.39-.12-.3-.52-.41-.8-.15-.4-.24-.82-.36-1.23-.15-.49-.3-.97-.46-1.45-.08-.24-.22-.47-.3-.71-.16-.5-.3-1.01-.44-1.52-.02-.08-.03-.17-.05-.25-.07-.3-.06-.53.27-.72.26-.16.54-.34.7-.65.08-.14.3-.19.46-.29.12-.07.23-.17.36-.23.28-.13.5-.37.77-.48.21-.09.35-.23.53-.34.36-.23.73-.44,1.09-.67.32-.2.6-.47.95-.6.23-.09.37-.25.56-.38.35-.25.68-.55,1.07-.72.55-.23,1-.6,1.5-.91.35-.22.58-.53.67-.95.02-.08.04-.15.06-.25.48.14.67.51.85.89.19.43.4.85.57,1.28.16.41.25.85.41,1.26.18.45.26.95.58,1.35ZM57.12,20.2c0,.09-.04.19-.01.27.08.25.19.49.29.73.13.31.3.61.41.93.1.32.13.66.21.99.05.24.14.47.19.7.08.41.36.77.3,1.22-.02.11.08.25.13.37.3.84.5,1.72.89,2.54.2.42.3.88.43,1.33.04.15.11.23.27.24.06,0,.11.07.17.11-.01.02-.02.04-.03.06-.06.01-.13.02-.19.03,0,.02-.01.04,0,.05.19.61.39,1.22.58,1.83.19.58.38,1.15.57,1.72.18.54.36,1.08.54,1.62.16.46.33.91.47,1.38.09.3.16.61.4.84.02.02,0,.07,0,.11,0,.05-.03.14-.01.15.23.13.15.34.18.53.04.22.16.43.24.65.13.37.27.74.39,1.12.01.05-.05.16-.08.17-.31.05-.62.07-.92.1-.05,0-.09,0-.14,0-.53.03-1.07.06-1.6.1-.45.03-.89.08-1.33.09-.4.01-.8-.02-1.21-.03-.2,0-.4.01-.6.01-.44,0-.88-.03-1.32,0-.38.02-.76.09-1.14.13-.17.02-.34.02-.51.03-.35.01-.69,0-1.03.14-.25.1-.57.06-.85.08-.48.03-.96-.09-1.43.07-.11.04-.25.01-.37.02-.22.01-.43.03-.65.05-.05,0-.12.03-.16.01-.34-.21-.7-.06-1.05-.04-.76.03-1.52.1-2.28.16-.44.03-.89.07-1.33.1-.23.01-.47,0-.7,0-.63.03-1.26.07-1.89.1-.55.03-1.09.05-1.64.08-.54.03-1.07.07-1.61.08-.6,0-1.19.09-1.78.15-.15.02-.31-.02-.46-.02-.11,0-.22.04-.34.05-.52.04-1.03.08-1.55.12-.11,0-.21.04-.32.05-.25.02-.51.02-.76.04-.46.03-.91.1-1.37.11-.47.01-.95-.03-1.43-.04-.16,0-.32.04-.47.06-.04,0-.07.03-.11.03-.42-.01-.85-.03-1.27-.04-.19,0-.37,0-.56,0-.39,0-.79,0-1.18-.01-.71,0-1.42,0-2.14-.01-.49,0-.98-.01-1.46,0-.17,0-.35.08-.52.11-.07.01-.17.02-.21-.02-.11-.11-.21-.08-.31,0-.03.02-.07.06-.1.06-.15-.02-.29-.05-.44-.07.07-.12.11-.26.21-.34.11-.09.28-.11.4-.19.21-.15.41-.32.62-.47.22-.17.44-.36.68-.52.33-.22.68-.4,1.01-.62.69-.46,1.37-.94,2.06-1.41.42-.29.82-.59,1.25-.86,1.12-.7,2.26-1.39,3.39-2.08.56-.34,1.12-.7,1.68-1.04.14-.09.32-.11.45-.21.2-.14.38-.32.59-.5.01.08.02.12.03.17.02,0,.03,0,.04-.01.14-.13.27-.27.42-.38.6-.39,1.2-.78,1.81-1.15.43-.26.88-.48,1.32-.73.23-.13.44-.31.67-.45.19-.11.39-.2.57-.31.23-.15.45-.33.68-.48.3-.19.63-.35.93-.54.32-.21.62-.45.94-.66.11-.07.25-.1.37-.16.27-.14.58-.24.79-.44.37-.35.86-.46,1.25-.77.35-.27.77-.45,1.16-.67.59-.33,1.16-.71,1.77-.99.37-.17.7-.4,1.06-.57.39-.19.76-.44,1.14-.66.29-.17.61-.29.89-.48.35-.23.67-.49,1.01-.74.36-.27.74-.52,1.1-.79.06-.05.1-.14.16-.19.38-.32.76-.63,1.14-.95.03-.02.05-.06.07-.09.28-.36.67-.59,1.04-.85.22-.16.42-.35.64-.51.17-.12.36-.2.53-.32.21-.15.4-.34.6-.5.07-.05.16-.08.25-.08.03,0,.09.12.08.17-.02.11-.07.22-.13.31-.05.08-.14.14-.21.21-.02,0-.04-.02-.06-.03-.07.12-.13.24-.2.35.01,0,.02,0,.04,0ZM59,25.61c-.07-.17-.15-.34-.22-.52-.17-.43-.2-.9-.33-1.35-.09-.33-.19-.65-.28-.98,0-.03.03-.07.04-.11.03,0,.06,0,.09,0,.12.48.24.95.35,1.43.07.28.11.56.18.84.04.16.13.3.2.46.03.06.04.13.07.2-.03.01-.06.02-.09.04ZM59.16,26.05q-.29-.06-.09-.43c.04.17.06.29.09.43ZM71.53,6.07s-.05-.05-.07-.08l.35-.3.07.1c-.12.09-.24.19-.35.28ZM75.09,2.37c.36-.22.72-.45,1.14-.71-.04.14-.05.26-.11.33-.19.23-.4.45-.61.67-.04.04-.18.08-.21.05-.15-.14-.22-.07-.26.1-.21-.19-.15-.32.05-.44ZM20.08,41.13c.23-.13.47-.26.7-.39,0-.01,0-.02,0-.04-.17.04-.34.07-.57.13.07-.06.09-.09.13-.11.34-.21.67-.42,1.01-.63.02-.01.05-.02.06-.04.22-.35.61-.48.91-.71.45-.35.96-.62,1.44-.94.78-.51,1.58-1.01,2.33-1.56.52-.38,1.08-.71,1.6-1.1.19-.14.34-.33.62-.33.06,0,.1-.15.17-.2.19-.15.38-.39.59-.41.48-.05.73-.45,1.12-.63.23-.11.44-.32.68-.46.1-.05.23-.06.3-.14.26-.27.65-.38.81-.76.03-.07.16-.12.25-.13.3-.03.47-.25.68-.42.16-.13.33-.26.49-.39.57-.46,1.32-.65,1.79-1.24.08-.1.2-.16.32-.22.53-.29.91-.78,1.48-1.03.29-.13.51-.4.77-.59.32-.23.66-.45.99-.67.06-.04.12-.09.18-.14.08-.06.15-.16.23-.18.5-.13.81-.55,1.2-.83.26-.19.55-.33.8-.54.25-.21.55-.38.82-.56.48-.32.97-.64,1.45-.97.32-.22.62-.46.94-.67.55-.36,1.11-.7,1.67-1.04.07-.04.16-.08.18-.14.08-.25.28-.3.5-.36.12-.03.23-.11.33-.19.27-.21.53-.44.8-.65.28-.22.57-.42.87-.62.47-.31.95-.61,1.43-.92.4-.26.8-.51,1.19-.78.08-.05.14-.13.19-.22.21-.13.5-.09.64-.38.05-.1.18-.2.29-.23.16-.04.22-.14.32-.25.12-.13.33-.18.5-.27.03-.02.09-.03.1-.06.04-.23.24-.18.38-.23.07-.03.14-.06.21-.11.11-.08.21-.19.33-.24.35-.15.64-.4.95-.62.4-.28.8-.54,1.2-.82.45-.33.89-.68,1.35-1,.66-.46,1.34-.9,2-1.37.32-.23.6-.51.91-.76.11-.09.26-.14.37-.22.31-.23.6-.5.92-.72.38-.27.8-.49,1.18-.76.44-.31.87-.64,1.3-.95.4-.3.81-.59,1.21-.88.88-.64,1.69-1.37,2.48-2.13.42-.4.92-.71,1.38-1.07.42-.33.82-.68,1.25-1,.34-.26.72-.48,1.07-.73.26-.18.51-.37.77-.57.16-.12.31-.25.47-.37.01,0,.03-.02.04-.02.39.12.5-.29.76-.41.22-.11.42-.26.64-.41.05.17.1.33.14.49,0,.04-.02.12-.05.13-.45.17-.64.64-1.02.9-.56.38-1.09.8-1.63,1.19-.64.47-1.32.9-1.86,1.5-.28.3-.6.56-.89.85-.17.18-.3.39-.45.59-.29.38-.63.74-.86,1.16-.38.7-.88,1.31-1.37,1.93-.37.48-.81.87-1.33,1.18-.84.5-1.69.99-2.51,1.51-.38.24-.7.57-1.07.83-.32.23-.66.42-1,.63-.01,0-.03.01-.04.02-.27.38-.74.41-1.09.65-.57.39-1.14.79-1.71,1.18-.24.16-.52.29-.76.45-.51.34-1.01.69-1.49,1.06-.2.15-.35.38-.53.56-.06.06-.17.09-.23.15-.34.3-.67.61-1.01.92-.26.24-.55.45-.75.72-.22.3-.51.49-.81.67-.22.13-.45.25-.67.39-.09.06-.16.17-.25.23-.27.17-.54.33-.81.49-.43.27-.85.55-1.29.8-.21.12-.46.18-.68.27-.1.04-.18.12-.27.18-.3.18-.59.38-.89.54-.44.24-.9.45-1.35.69-.23.12-.44.29-.65.44-.16.11-.3.26-.48.35-.09.05-.22,0-.37,0-.14.08-.24.35-.52.28-.14.18-.3.31-.55.36-.17.03-.32.18-.48.27-.11.06-.22.12-.33.19-.34.24-.67.47-1.01.72-.24.18-.47.37-.72.55-.1.07-.22.11-.32.17-.55.32-1.09.64-1.64.95-.45.25-.92.46-1.38.71-.32.18-.63.38-.95.58-.35.22-.71.43-1.06.64-.07.04-.16.1-.17.15-.03.3-.23.28-.44.26-.02.05-.02.12-.06.15-.24.19-.47.38-.72.55-.13.09-.29.12-.43.18-.52.25-1.02.54-1.47.92-.21.18-.47.31-.71.44-.35.2-.72.36-1.06.57-.21.13-.38.32-.59.45-.52.32-1.06.61-1.56.94-.58.38-1.12.82-1.7,1.2-.53.35-1.09.66-1.63.99-.42.26-.84.51-1.25.78-.45.3-.87.65-1.34.93-.44.26-.74.64-1.03,1.03-.11.15-.2.22-.39.2-.31-.03-.63,0-.94,0-.03-.18.25-.27,0-.39ZM19.9,41.32c.02.06.03.13.06.24-.32.04-.62.07-.96.11.24-.34.53-.43.9-.35ZM13.16,43.21s.1-.04.15-.03c.59.07,1.17-.06,1.75-.14.53-.07,1.04-.25,1.57-.3.63-.06,1.25-.17,1.9-.1.58.06,1.18-.03,1.77-.05.47-.01.95-.04,1.42-.01.29.02.57.14.85.19.12.02.26-.03.38-.06.54-.13,1.08-.28,1.63-.14.34.09.63,0,.95-.05.37-.06.76,0,1.14,0,.4,0,.8-.02,1.19-.03.14,0,.28.02.42.03.33.01.66.02.99.03.06,0,.13.03.19.03.3,0,.61.02.91,0,.38-.02.75-.11,1.15-.06.45.06.91-.03,1.37-.05.04,0,.08-.03.11-.02.59.18,1.15-.05,1.72-.12.28-.03.57-.02.85-.02.39,0,.77-.02,1.16-.02.09,0,.18.02.28.04,0-.02,0-.07.02-.07.25-.06.52-.2.74-.15.24.05.43-.03.64-.06.12-.02.25-.03.38-.03.04,0,.07.01.11,0,.58,0,1.16,0,1.73-.03.45-.02.89-.1,1.34-.15.28-.03.56-.05.85-.08.32-.03.63-.05.95-.07.43-.03.85-.05,1.28-.1.14-.02.26-.11.39-.17.25.27.55.09.84.08.03,0,.07-.05.1-.05.53.02,1.06.05,1.58.06.16,0,.32-.07.48-.08.21-.01.43,0,.65,0,.07,0,.14,0,.21,0,.38-.03.75-.07,1.13-.1.08,0,.16-.02.23-.04.28-.07.56-.17.86-.05.13.05.32-.05.48-.05.58-.03,1.17-.03,1.75-.07.44-.03.88-.09,1.32-.14.45-.04.91-.08,1.37-.11.75-.04,1.5-.08,2.25-.1.41-.01.81,0,1.22-.02.13,0,.26-.06.41-.1.12.14.45.17.66.06.08-.04.17-.07.26-.07.61-.02,1.21-.04,1.82-.06.07,0,.15-.05.22-.06.28-.05.48,0,.63.3.1.2.22.37.25.6.03.2-.07.35-.28.36-.52.01-1.05.03-1.57.05-.26.01-.54.12-.79.06-.41-.09-.79.04-1.19.05-.4.02-.8.06-1.2.08-.21,0-.42-.05-.63-.04-.64.03-1.27.08-1.91.11-.62.03-1.25.04-1.88.06-.4,0-.82-.07-1.19.04-.42.12-.83-.02-1.23.1-.08.03-.19-.03-.28-.02-.41.04-.82.09-1.23.14-.05,0-.1.06-.09.06-.15-.04-.25-.07-.36-.08-.17-.01-.35-.03-.51,0-.53.06-1.05.14-1.58.21-.07.01-.14.06-.19.09-.36-.17-.73-.1-1.1-.09-.95,0-1.9.19-2.85.07-.13-.02-.27,0-.43.02,0,0-.03.07-.05.07-.26,0-.52-.01-.79-.02-.45-.02-.89-.03-1.34-.04-.08,0-.16.02-.25.04-.11.02-.23.08-.32.05-.4-.14-.79-.01-1.18,0-.93.03-1.85.09-2.78.17-.23.02-.44.02-.66-.03-.09-.02-.18,0-.28,0-.28.01-.56.01-.84.04s-.56.08-.84.11c-.33.04-.66.08-.99.09-.91.03-1.81.04-2.72.06-.38.01-.76.06-1.14.07-.38,0-.76-.02-1.14-.03-.29,0-.57,0-.86,0-.19,0-.37,0-.56,0-.27,0-.54.03-.81.04-.06,0-.13-.04-.19-.06-.08-.03-.15-.06-.28-.11.08.07.12.1.17.14-.32.02-.67-.18-.87.22-.21-.06-.42-.17-.64-.19-.37-.03-.75-.01-1.12-.02-.48,0-.95-.02-1.43-.02-.25,0-.5.04-.75.05-.49.02-.98.05-1.47.06-.22,0-.44-.03-.65-.02-.21.01-.43.07-.64.09-.46.03-.93.04-1.39.08-.31.02-.63.08-.94.13-.11.01-.22.03-.32.03-.19,0-.37-.03-.55.09-.09.06-.26-.03-.4-.04-.38-.03-.75-.04-1.13-.07-.14,0-.29-.02-.43-.04.01-.13.03-.26.05-.41ZM35.16,44.01c-.33.08-.62.05-.9-.14.32-.07.64-.17.9.14ZM31.81,43.84h-.96c.31-.31.64.04.95-.08,0,.03,0,.05.01.08ZM14.42,43.9h-1.2s0-.04,0-.06h1.2s0,.04,0,.06ZM12.14,43.17c.05.02.09.07.14.11.1.09.2.19.27.26-.31.03-.66.07-1.04.12-.03-.12-.07-.27-.12-.46.25-.05.5-.11.76-.02ZM28.16,73.45c0,.09,0,.17-.01.3.06-.07.1-.13.15-.18.18.33-.05.58-.17.86-.02,0-.04,0-.06,0,.01-.12.04-.24.04-.36,0-.1-.02-.19-.03-.29-.01-.11-.04-.21-.05-.32-.03-.4-.05-.79-.08-1.19.02-.01.05-.02.07-.03.03.04.07.08.08.12.03.36.05.73.07,1.09ZM27.99,71.76c.04.13.14.24-.03.37-.04-.14-.12-.25.03-.37ZM49.6,74.1c-.32,0-.64-.08-.96-.16-.65-.16-1.29-.34-1.94-.51-.46-.12-.93-.24-1.39-.33-.55-.1-1.11-.17-1.67-.25-.68-.09-1.35-.19-2.03-.26-.65-.07-1.3-.1-1.96-.16-.69-.06-1.38-.12-2.06-.21-.16-.02-.31-.03-.46,0-.35.07-.62-.21-.95-.22-.13,0-.26.02-.38,0-.2-.02-.41-.04-.6-.09-.47-.13-.94-.24-1.43-.25-.41-.01-.82-.1-1.22-.15-.01,0-.03,0-.04,0-.02.01-.05.02-.08.01-.31-.06-.63-.06-.94-.14-.1-.01-.2-.03-.3-.04-.18-.03-.36-.1-.54-.14-.49-.09-.97-.2-1.46-.23-.28-.01-.55-.06-.81-.13-.2-.03-.39-.09-.57-.15-.51-.05-1.01-.1-1.51-.21-.65-.14-1.3-.3-1.95-.42-.68-.12-1.36-.22-2.03-.36-.65-.14-1.3-.31-1.95-.48-.22-.06-.44-.1-.66-.17-.07-.02-.14-.05-.21-.08-.49-.05-.98-.11-1.46-.21-.59-.11-1.18-.25-1.78-.35-.32-.05-.65-.1-.97-.14.02.01.04.02.06.03-.22-.04-.43.05-.65-.12,0,0-.02,0-.02,0-.47-.08-.94-.2-1.4-.3-.06,0-.13-.01-.19-.02-.21-.03-.41-.11-.62-.14-.44-.07-.89-.12-1.33-.18-.34-.02-.68-.04-1.02-.06-.02.01-.05.02-.06.02-.02,0-.05-.02-.07-.02-.03,0-.05,0-.08,0-.55-.05-1.1-.11-1.64-.18-.54-.06-1.07-.12-1.6-.23-1.03-.22-2.05-.54-3.1-.64-.07,0-.1-.06-.1-.12-.02,0-.04,0-.06,0-.13-.02-.13-.22,0-.21,1.24.15,2.48.32,3.71.52,2.19.34,4.38.73,6.57,1.06,1.1.17,2.2.32,3.31.44.52.06,1.04.12,1.56.23.51.11,1.02.23,1.54.31.08.01.09.09.05.15.01,0,.02,0,.03,0,.29.09.58.16.87.22,1.13.24,2.28.4,3.42.63.2.04.39.08.59.12.09,0,.18,0,.27,0,.14.01.27.05.41.07.29.05.59.05.88.08.3.04.6.05.89.11.19.04.37.09.55.13.04,0,.09,0,.13.01.02,0,.02.02.03.03.04,0,.08.02.13.03.05.01.07.05.07.1.3.07.6.13.91.13.26,0,.52.15.78.2.43.09.85.16,1.28.23,0,0,.01,0,.02,0,.4,0,.8,0,1.19.02.1,0,.12.12.07.18.29.04.58.08.88.11.84.08,1.7.1,2.54.18.77.07,1.53.18,2.3.27.84.1,1.67.21,2.51.31.71.08,1.42.15,2.12.33.74.18,1.5.23,2.26.34.36.05.72.13,1.08.19.88.15,1.77.33,2.66.43.95.11,1.91.15,2.86.22.36.03.71.06,1.07.08.09,0,.19-.02.29-.03v-.07c-.31-.08-.62-.18-.95-.23-.96-.14-1.93-.26-2.9-.4-.8-.12-1.6-.25-2.4-.39-.84-.15-1.67-.32-2.5-.47-.86-.15-1.71-.31-2.57-.44-.68-.1-1.38-.14-2.06-.23-.42-.06-.84-.18-1.26-.25-.72-.12-1.43-.22-2.15-.32-.41-.06-.82-.06-1.24-.02-.43.03-.87-.1-1.31-.15-.44-.05-.88-.1-1.32-.16-.05.02-.09.03-.15.03-.79,0-1.52-.25-2.28-.44-.11-.02-.22-.05-.33-.07-.16-.03-.32-.06-.48-.09-.34-.03-.68-.02-1.02-.07-.46-.06-.9-.2-1.35-.32-.05-.01-.08-.04-.12-.06,0,0,0,0,0,0-.43-.07-.86-.12-1.29-.18-.49-.07-.99-.12-1.48-.21-.6-.11-1.19-.26-1.79-.38-.4-.08-.82-.11-1.22-.18-.99-.15-1.97-.29-2.95-.48-.69-.13-1.37-.33-2.04-.6-.39-.16-.83-.29-1.29-.27-.29.01-.58-.1-.88-.14-.14-.02-.28-.03-.43-.02-.49.04-.98-.03-1.45-.15-.1-.03-.22-.1-.28-.19-.1-.15-.23-.17-.38-.17-.49-.03-.98-.04-1.47-.1-.6-.07-1.2-.19-1.8-.27-.6-.08-1.2-.13-1.81-.18-.34-.03-.68-.05-1.02-.09-.12-.01-.23-.09-.35-.14-.12.15-.29.1-.45.06-.17-.04-.34-.1-.52-.11-.26,0-.44-.15-.64-.27-.49-.3-.98-.58-1.47-.87-.04-.02-.09-.02-.14-.03,0,.14.02.28.02.43.04,0,.1.01.16.02-.02.06.02.2.14.48-.23.06-.44.03-.63-.12-.02-.01-.04-.04-.05-.04-.34.05-.34-.25-.38-.43-.06-.32-.07-.66-.09-.99-.02-.22-.04-.45-.02-.67.04-.51.1-1.02.16-1.53.05-.41.09-.83.15-1.24.03-.26.14-.52.1-.77-.03-.21.13-.4-.01-.6-.02-.03,0-.11,0-.16.13-.44-.01-.87-.1-1.29-.05-.22-.07-.45-.1-.68-.02-.14-.05-.29-.07-.44.13-.07.26-.15.41-.23-.02-.02-.04-.06-.1-.13.17.04.29.06.44-.03.11-.07.32,0,.48,0,.16,0,.31-.03.47-.05.12-.01.24-.01.35-.03.34-.04.67-.08,1.01-.13.22-.03.39-.2.65-.16.12.02.26-.16.4-.22.09-.04.21-.04.32-.05.24-.02.49,0,.71-.07.48-.15.97-.31,1.43-.53.83-.4,1.67-.81,2.45-1.3.86-.54,1.46-1.33,1.7-2.35.19-.78.36-1.56.37-2.38,0-.54,0-1.09.07-1.63.08-.63-.01-1.24-.18-1.84-.07-.23-.18-.43-.36-.6-.04-.04-.05-.12-.07-.18.07-.01.14-.04.21-.03.21.02.43.06.65.1.01.05.03.12.04.16.11-.09.22-.19.33-.28.03.04.05.06.05.07-.14.23,0,.46.01.69,0,.25,0,.5.04.74.03.2.04.39-.13.46.01.26.03.48.03.71,0,.33-.05.65-.02.98.01.21.15.41.17.62.05.47.05.94.08,1.42.04.66.08,1.32.11,1.98.03.79.04,1.59.06,2.38,0,.22.02.45.02.67,0,.11-.04.21-.04.32,0,.08,0,.17,0,.25.04.33.08.66.14.98.05.24.27.2.44.18.06,0,.13-.16.13-.24.01-.37,0-.73,0-1.1.02-.73.06-1.46.08-2.19.01-.34,0-.68-.01-1.02-.02-.45-.05-.91-.1-1.36-.04-.33-.14-.65-.16-.98-.04-.55-.04-1.11-.07-1.66,0-.16-.06-.32-.08-.47-.02-.14-.03-.27-.05-.41-.04,0-.08,0-.19.02.09-.07.14-.11.16-.12-.03-.42-.09-.81.12-1.16-.03-.14-.08-.28-.1-.42-.03-.27-.02-.55-.06-.81-.02-.17-.09-.33-.16-.53.21-.01.4-.03.6-.03.39,0,.77.05,1.16.03.43-.03.86-.12,1.3-.18.04,0,.11-.03.13-.01.15.18.3.04.46.01.23-.04.47-.02.7-.05.15-.02.3-.07.45-.1.11-.02.23-.04.34-.03.16,0,.33.04.49.06.15.02.31.04.46.04.13,0,.26-.03.39-.04.52-.03,1.05-.07,1.57-.1.34-.01.69-.06,1.01.01.33.08.64-.04.95,0,.1.01.2-.03.3-.04.06,0,.13-.04.18-.02.36.15.74.16,1.11.12.22-.03.41,0,.62.06.17.05.39.11.55-.09.01-.02.09.02.14.03.15.05.3.13.45.14.49.05.97.06,1.46.1.26.02.51.09.76.13.06,0,.14.02.18,0,.34-.22.69-.05,1.01.02.41.09.81.15,1.24.12.4-.02.81.07,1.21.11.17.01.37.06.51,0,.31-.12.58.09.89.05.24-.03.5.04.74.08.22.04.43.09.65.14.04,0,.1.02.14,0,.29-.13.57-.02.85.04.13.03.28.02.41.02.26,0,.52,0,.79,0,0,0,.02,0,.02,0,.58.21,1.21,0,1.8.19,0,0,.02,0,.02,0,.57-.17,1.12.08,1.69.09.44.01.87.01,1.31.03.68.03,1.36.08,2.04.11.4.02.8,0,1.2.01.6.02,1.21.05,1.81.08.52.02,1.04.04,1.56.06.12,0,.23.04.35.04.23-.01.45.11.68-.01.11-.05.27.01.41.03.05,0,.11.03.14.02.32-.21.63.06.95,0,.07-.01.15,0,.23,0,.13.01.26.03.46.05.18-.3.48-.02.75-.02.33,0,.65.06.98.1.17.02.34.04.5.06.03,0,.07.02.09,0,.42-.13.79.09,1.19.15.3.05.62.04.93.06.09,0,.18-.02.25.01.39.18.78.04,1.17.06.23.01.46-.02.69-.02.49,0,.99-.03,1.47.03.34.04.68.09,1.09.03-.14.29-.24.54-.38.76-.13.22-.07.4.04.58.13.22.27.44.4.66.02.03.04.07.06.1.04.08.07.16.12.29.1.03.19.22.16.45-.02.17-.01.34,0,.51.06.7.08,1.39-.28,2.03-.02.04-.04.09-.05.13-.2.78-.62,1.45-1.13,2.04-.63.73-1,1.57-1.22,2.5-.07.28-.23.55-.23.82,0,.53.02,1.06.13,1.58.15.7.05,1.36-.2,2.01-.31.82-.94,1.41-1.51,2.03-.09.1-.26.13-.39.19-.26.13-.52.27-.78.4-.1.05-.21.06-.32.09-.34.11-.69.22-1.03.35-.2.08-.38.22-.58.32-.1.05-.22.07-.32.11-.32.14-.64.27-.95.42-.1.05-.21.1-.3.18-.25.21-.49.42-.72.64-.04.04-.04.13-.07.25.39-.23.7-.41,1.02-.59.12-.07.18-.05.24.1.06.15.13.35.34.36.1,1.03.2,2.06.3,3.09.13-.14.24-.26.36-.38.04.05.06.07.07.1.07.11.13.28.22.31.13.04.33.07.38-.19.02-.07.21-.11.36-.19-.04.17-.08.32-.13.53-.06-.12-.09-.17-.12-.23-.02.01-.05.01-.05.02-.05.45-.12.9-.15,1.36-.09,1.22.32,2.29,1.07,3.23.31.4.66.77.99,1.15.18.22.36.44.56.69-.34,0-.64.04-.93,0-.47-.07-.93-.21-1.4-.3-.43-.08-.86-.14-1.28-.21-.32-.05-.64-.11-.95-.15-.17-.02-.35.02-.52,0-.81-.1-1.62-.24-2.44-.22ZM58.73,102.12c-.11,0-.21-.02-.32-.03,0-.02,0-.05-.01-.07.2-.08.39-.17.6-.26.06.33.02.38-.27.36ZM60.54,76.42c-.12.15-.23.32-.31.49-.11.22-.13.24-.35.04-.12.24-.26.47-.34.71-.26.89-.54,1.78-.73,2.69-.24,1.11-.45,2.23-.61,3.36-.13.91-.16,1.83-.25,2.75-.06.61-.1,1.21-.02,1.82.04.3.03.62.03.93,0,.11-.02.23-.04.37.19.12.24.87.09,1.14.17.59.21,1.12,0,1.68-.07-.01-.13-.03-.21-.04.09.22.09.41-.07.59-.04.04.02.15,0,.22-.1.46-.2.91-.3,1.37-.01.06,0,.14.02.2,0,.04.04.08.03.11-.1.39.09.72.16,1.08.02.1-.02.21-.03.31,0,.04-.02.08-.01.11.02.24.03.47.07.71.03.18.09.35.13.52.06.23.1.47.17.7.03.09.1.17.15.25.03.06.07.12.09.18.04.15.05.31.09.46.09.32.18.64.27.96.11.37.21.74.33,1.14.03-.06.05-.1.09-.18.01.22.02.39.03.6-.14-.02-.25-.04-.37-.05-.38-.02-.76-.05-1.14-.05-.8,0-1.61.07-2.34-.35-.06-.04-.15-.04-.22-.04-.46.04-.6-.13-.46-.56.11-.35.25-.71.34-1.07.05-.2.04-.41.06-.62.04-.7-.12-1.36-.32-2.03-.08-.27-.06-.57-.08-.85-.03-.35-.06-.7-.08-1.05,0-.15.01-.31.02-.46,0-.08,0-.17,0-.25,0-.12-.04-.26,0-.34.27-.44.13-.92.14-1.38,0-.47-.11-.94-.15-1.42-.03-.4-.07-.8-.05-1.19.01-.28-.06-.54-.05-.82,0-.29-.04-.59-.06-.88-.03-.36-.12-.72-.08-1.07.04-.39-.08-.74-.11-1.11-.01-.18,0-.37-.03-.55-.05-.36-.11-.72-.16-1.08-.07-.48-.13-.96-.23-1.43-.13-.63-.28-1.25-.42-1.87-.21-.9-.41-1.8-.62-2.7-.05-.22-.2-.44-.19-.66.01-.36-.29-.54-.38-.84-.09-.31-.22-.61-.34-.91-.07-.19-.15-.37-.24-.55-.02-.05-.09-.08-.14-.1-.17-.07-.23-.2-.19-.34.3.04.59.07.88.11.1.02.2.08.3.1.75.1,1.5.19,2.26.3.35.05.7.16,1.06.2.31.04.64-.03.93.05.32.1.65-.04.91.06.83.32,1.71.3,2.57.45.09.01.19-.03.27-.07.02-.01,0-.13-.02-.24.07-.04.11-.25.29-.09.15.14.14.27,0,.44ZM59.06,75.86s0-.06,0-.09c.11-.01.21-.02.32-.03,0,0,.02.08.02.12h-.35ZM61.79,75.26c-.08.06-.18.1-.27.15-.02-.03-.04-.05-.06-.08.08-.08.16-.17.25-.24.02-.01.1.02.11.05.01.02,0,.1-.03.11ZM68.74,72.03s.05,0,.07,0c.02.2.05.41.07.61-.03,0-.05,0-.08,0-.02-.2-.04-.41-.07-.61ZM68.89,73.4c-.03-.16-.06-.33-.09-.49.03,0,.06,0,.08,0,.03.16.05.32.08.48-.02,0-.05,0-.07.01ZM70.56,68.43c-.07.1-.17.17-.26.25-.17.14-.35.28-.53.43-.1-.13-.12-.23.02-.35.12-.1.22-.22.39-.23.02,0,.03-.08.06-.11.09-.11.18-.22.28-.33.04.02.08.05.13.07-.03.09-.03.2-.08.27ZM81.91,48.17c.02.5.03,1,.04,1.49,0,.05,0,.11,0,.16-.03.33-.07.66-.1.99-.05.47-.08.93-.16,1.39-.09.49-.05.97-.03,1.46.03.54.02,1.09.04,1.63.01.24.06.47.1.71,0,.03.03.07.02.09-.22.43-.05.88-.1,1.31-.03.31-.13.62-.18.93-.04.29-.22.5-.34.75-.18.39-.51.56-.82.78-.08.06-.12.17-.21.32-.2,0-.39.1-.56.31-.12.15-.31.26-.49.33-.41.16-.74.43-1.05.74-.06.06-.16.06-.23.11-.43.32-.87.64-1.3.96-.28.21-.55.42-.84.62-.07.05-.19.04-.32.06.06.04.1.06.18.1-.28.14-.52.27-.77.4-.07.04-.13.08-.19.12-.38.27-.76.54-1.14.83-.54.41-1.06.85-1.62,1.22-.37.25-.7.54-1.05.81-.51.4-1.01.81-1.42,1.33-.34.43-.78.79-1.18,1.18-.24.24-.46.49-.72.71-.47.4-.95.78-1.43,1.17-.35.29-.69.58-1.05.86-.62.48-1.24.96-1.88,1.43-.25.19-.53.34-.81.5-.12.07-.25.11-.37.18-.38.2-.74.49-1.14.58-.52.11-1.02.39-1.59.29-.21-.04-.45.04-.67.07-.33.05-.63-.1-.83-.39-.27-.4-.56-.78-.83-1.18-.31-.46-.63-.91-.88-1.4-.17-.34-.27-.73-.32-1.11-.07-.51-.08-1.02-.1-1.54-.03-.59-.04-1.18-.06-1.76,0-.13.03-.27.04-.4,0-.05,0-.12-.04-.15-.17-.19-.12-.36.01-.56.25-.38.18-.8.11-1.21-.03-.15-.04-.29-.08-.44-.07-.27.1-.34.3-.43.53-.22,1.06-.46,1.59-.7.04-.02.06-.07.09-.1.1-.1.2-.21.32-.34.04.13.06.2.07.26.21-.18.45-.34.63-.54.35-.37.67-.76,1-1.14.11-.13.19-.28.3-.39.22-.21.24-.2.42.08.05-.09.1-.17.12-.25.13-.63.17-1.27.05-1.91-.11-.61-.21-1.23-.37-1.83-.23-.87.02-1.63.43-2.37.17-.31.43-.57.63-.86.14-.2.27-.41.41-.62.01-.02.03-.04.03-.06-.06-.61.46-.98.61-1.51.04-.14.11-.27.16-.41.07-.19.17-.34.46-.26-.07-.16-.11-.29-.18-.39-.17-.26-.23-.52-.22-.83.03-.66.14-1.32-.06-1.97-.06-.19.02-.26.21-.29.39-.05.78-.12,1.17-.19.11-.02.18-.05.24-.19.04-.1.28-.13.43-.19.32-.12.64-.05.96,0,.1.02.18.17.25.23.3-.05.6-.08.9-.14.12-.02.23-.07.34-.13.29-.16.59-.3.94-.2.03,0,.06,0,.09,0,.27-.07.55-.13.82-.2.02,0,.06,0,.07-.02.17-.25.28-.16.42.04.04.06.22.05.33.02.44-.1.9-.14,1.31-.39.12-.08.33,0,.47-.07.38-.2.79-.16,1.19-.23.31-.05.67-.06.91-.22.23-.16.48-.15.71-.27.26-.14.53-.25.8-.38.11-.06.2-.17.32-.21.08-.02.2.02.27.08.12.1.29.13.35,0,.08-.19.23-.15.37-.17.05,0,.11,0,.16.02.46.17.87,0,1.27-.2.17-.08.37-.11.55-.17.4-.12.85-.17,1.2-.39.3-.2.63-.18.93-.27.22-.07.45-.14.68-.17.05,0,.14.04.17.09.12.15.22.31.35.51-.07.03-.13.06-.2.09.25.14.37.3.37.54,0,.18.06.36.08.54,0,.06,0,.12,0,.17,0,.26-.01.52,0,.78.02.45.07.9.09,1.34Z"/>
      <path class="cls-1" d="M55.05,55.89c.26.01.53.04.79.03.4,0,.79-.04,1.19-.04.13,0,.27-.02.26-.15-.01-.11-.13-.27-.22-.28-.42-.05-.84-.08-1.26-.09-.59,0-1.16.11-1.76-.07-.37-.11-.79-.05-1.18-.07-.61-.03-1.22-.06-1.83-.12-.23-.03-.41-.02-.55.23-.11-.27-.24-.35-.48-.32-.16.02-.32.05-.48.04-.42-.03-.84-.07-1.25-.12-.48-.05-.95-.2-1.43-.14,0,0-.02,0-.02,0-1.15-.17-2.3-.24-3.46-.27-.55-.01-1.09-.07-1.63-.15-.45-.07-.93.16-1.36-.13-.02-.01-.06.01-.09,0-.32-.02-.65,0-.95-.09-.2-.06-.37-.05-.56-.04-.05,0-.09.02-.14.02-.5-.1-1-.17-1.51-.19-.48-.02-.96-.06-1.43-.1-.21-.02-.41-.07-.62-.08-.48-.04-.96-.06-1.43-.1-.4-.03-.79-.09-1.19-.13-.12-.01-.24,0-.36,0-.23,0-.47,0-.7-.03-.36-.04-.72-.09-1.08-.14-.67-.1-1.35.08-2.01-.12-.05-.01-.11,0-.16.02-.05.03-.11.08-.11.13,0,.04.07.1.12.11.1.02.2,0,.3.01.68.06,1.36.11,2.04.18,1.21.12,2.42.27,3.63.36.33.02.68.23,1.02.02.02-.01.07.02.11.03.14.04.28.11.42.13.23.03.47.02.7.04.69.04,1.38.08,2.07.13.98.08,1.97.16,2.95.25.39.04.77.11,1.15.15.58.06,1.17.11,1.75.16.55.05,1.1.13,1.65.12.86-.01,1.69.14,2.54.22.88.08,1.77.12,2.65.18.06,0,.14.03.18.08.24.26.51.19.79.1.06-.02.13-.04.2-.03.26.03.53.08.79.11.27.03.55,0,.81.06.36.08.7.25,1.09.12.02,0,.05,0,.07,0Z"/>
      <path class="cls-1" d="M49.82,62.22c-.15.05-.28.07-.41-.04-.02-.02-.12,0-.14.02-.1.18-.25.17-.42.18-.12,0-.23.07-.34.11-.07.03-.14.07-.21.08-.17.04-.35.07-.52.12-.7.23-1.35.56-1.94.99-.23.17-.46.35-.7.51-.07.05-.17.06-.26.08-.03-.08-.05-.14-.07-.21-.14.01-.26.03-.38.03-.48.02-.92.13-1.32.41-.13.09-.17.22-.13.31.05.11.15.26.34.19.09-.04.19-.05.3-.08.02.08.04.15.04.21-.01.44.19.48.57.41.09-.02.18,0,.21,0,.1-.06.16-.11.22-.13.23-.07.47-.12.69-.21.17-.07.21,0,.26.16.03-.07.05-.13.09-.2.02-.05.05-.12.09-.14.56-.18,1.1-.41,1.63-.68.46-.23.97-.32,1.41-.59.14-.09.36-.07.52-.13.18-.07.35-.18.52-.27.32-.17.64-.33.99-.51-.06-.08-.13-.15-.18-.23-.13-.25-.59-.48-.86-.4Z"/>
      <path class="cls-1" d="M44.93,63.31c.29-.04.38-.09.4-.31.26-.1.53-.14.73-.29.2-.15.39-.36.31-.71-.16-.04-.33-.11-.5-.11-.39,0-.79.03-1.18.06-.06,0-.12.02-.18.05-.36.2-.76.19-1.15.17-.15.26-.24.36-.59.36-.02,0-.05,0-.07.02-.58.23-1.15.47-1.73.7-.48.19-.96.4-1.45.56-.33.11-.69.16-1.03.25-.12.03-.24.1-.35.16.01.02.02.04.03.06.08-.04.15-.08.28-.15-.07.11-.1.16-.13.2.71.11,1.36-.1,2.02-.35-.07.31-.24.57-.11.92.2-.21.39-.21.59-.07.05.03.14.02.2,0,.18-.06.36-.14.53-.22.88-.37,1.75-.74,2.63-1.11.24-.1.49-.19.74-.22Z"/>
      <path class="cls-1" d="M37.17,62.03c.05-.02.12,0,.18,0,.05,0,.11.04.15.02.4-.15.8-.3,1.18-.51.06-.03.12-.14.11-.2-.03-.21-.05-.43-.14-.61-.08-.14-.23-.27-.45-.18-.23.1-.47.21-.71.27-.51.14-1.05.15-1.55.33-.34.11-.7.15-1.03.27-.41.15-.81.35-1.21.53-.18.07-.37.12-.55.19-.37.15-.73.33-1.1.47-.3.12-.62.21-.93.32-.14.05-.23.14-.21.3.03.24.07.48.11.77.15-.05.28-.07.35-.14.29-.25.64-.34.99-.42.4-.1.8-.18,1.2-.26.05,0,.09-.03.14-.04.58-.08,1.14-.21,1.68-.45.25-.12.52-.2.78-.29.34-.12.67-.25,1.01-.37Z"/>
      <path class="cls-1" d="M41.57,62.32c.02.14.04.22.05.33.28-.22.31-.33.12-.5.33-.19.68-.17,1.02-.2.02.08.04.15.05.21.16-.08.31-.15.5-.23-.01-.18-.03-.36-.03-.55,0-.15-.04-.22-.19-.21-.15,0-.3,0-.45,0-.15,0-.29.02-.43.05-.15.03-.29.11-.44.12-.29,0-.58-.04-.83.17-.04.04-.13.02-.2.03-.22.05-.43.11-.65.17-.13.04-.24.11-.37.14-.78.22-1.49.57-2.17.99-.19.12-.37.27-.52.43-.14.15-.25.34-.11.56.12.19.29.32.52.27.18-.04.37-.1.53-.19.81-.47,1.65-.88,2.53-1.2.35-.13.71-.25,1.07-.38Z"/>
      <path class="cls-1" d="M54.21,72.9c.25.07.47.13.73.21,0-.28-.12-.45-.29-.57-.39-.28-.82-.49-1.32-.53-.11,0-.21-.09-.32-.12-.08-.02-.16-.02-.24-.03.48.68.57.74,1.41,1.1.02-.04.04-.07.03-.06Z"/>
      <path class="cls-1" d="M48.23,64.55c-.27.09-.55.17-.82.25-.21.06-.18.26-.19.4,0,.07.15.16.24.21.11.05.24.06.37.09.03-.06.06-.11.08-.17.12-.31.32-.53.64-.64.06-.02.12-.07.17-.12.04-.04.06-.09.09-.13-.05-.02-.11-.07-.16-.06-.15.04-.28.1-.43.15Z"/>
      <path class="cls-1" d="M39.17,64.78c-.11.05-.21.11-.31.15-.26.11-.16.31-.12.49.03.17.12.28.32.27.28-.03.52-.33.51-.66,0-.32-.09-.38-.39-.25Z"/>
      <path class="cls-1" d="M26.83,53.16c-.21-.02-.43-.04-.64-.05-.23,0-.45.02-.68.02-.37,0-.74,0-1.13,0,.04.02.08.04.12.05.31.02.62.03.93.06.73.07,1.46.15,2.2.22.06,0,.14-.07.2-.11-.06-.04-.12-.11-.18-.12-.27-.03-.54-.04-.81-.06Z"/>
      <path class="cls-1" d="M34.9,63.04c-.21.04-.43.09-.63.16-.25.08-.5.19-.74.29,0,.03.01.07.02.1.27-.03.55-.04.81-.09.21-.04.41-.15.61-.22.06-.02.12-.03.18-.04-.02-.05-.02-.12-.05-.14-.05-.04-.13-.07-.19-.06Z"/>
      <path class="cls-1" d="M9.62,57.6s.03.05.04.08c.26-.12.51-.23.77-.35.17-.07.15-.17.02-.29-.28.19-.56.37-.84.56Z"/>
      <path class="cls-1" d="M35.64,63.01s.02.05.03.08c.43.01.77-.24,1.14-.4,0-.03-.02-.05-.03-.08-.38.14-.76.27-1.14.41Z"/>
      <path class="cls-1" d="M75.45,44.1s.01.06.02.09c.29-.05.59-.11.88-.16,0-.03-.01-.06-.02-.08-.29.05-.59.11-.88.16Z"/>
    </g>
  </g>
</svg>