<?xml version="1.0" encoding="UTF-8"?>
<svg id="Layer_2" data-name="Layer 2" xmlns="http://www.w3.org/2000/svg" viewBox="0 0 78.17 115.86">
  <defs>
    <style>
      .cls-1 {
        fill: #000;
        stroke-width: 0px;
      }
    </style>
  </defs>
  <g id="illustrations">
    <g>
      <path class="cls-1" d="M25.8,59.28c-.17.15-.17.38-.26.56-.21.39-.31.84-.46,1.27-.04.13-.07.27-.13.39-.15.26-.32.51-.5.76-.38.54-.76,1.08-1.14,1.62-.1.14-.18.29-.27.44.06.05.11.09.21.18-.31.11-.58.21-.84.31-.06.03-.18-.02-.24.02-.45.34-.79.77-1,1.29-.16.42-.26.85-.4,1.28-.29.91-.57,1.82-.86,2.73-.31.97-.61,1.94-.92,2.9-.18.53-.22,1.12-.57,1.59-.05.07-.03.2-.04.3,0,.06-.01.14-.05.16-.27.16-.3.43-.38.7-.17.6-.39,1.19-.56,1.78-.13.47-.19.95-.34,1.41-.31.95-.52,1.92-.69,2.9-.1.55-.16,1.1-.25,1.65-.13.71-.26,1.42-.43,2.13s-.11,1.45-.43,2.11c0,.02,0,.04,0,.05.03.62-.1,1.23-.25,1.83-.01.05-.04.1-.02.14.21.41.11.81-.02,1.21-.03.08-.05.18-.03.25.1.4-.06.77-.09,1.15-.02.33-.09.66-.15.98-.1.59-.22,1.19-.33,1.78-.01.05-.02.11-.03.16-.05.53.02,1.07-.13,1.61-.1.36-.08.77-.18,1.15-.14.51-.1,1.09-.33,1.55-.18.36.11.77-.23,1.06,0,0,0,.02.01.05.04.05.09.11.14.17-.33.53-.35.71-.13.94-.08.21-.18.38-.2.56-.06.56-.08,1.13-.12,1.69-.01.2-.07.39-.06.59,0,.29.06.58.08.87,0,.05-.09.1-.17.16,0,.07,0,.21,0,.35-.05.81-.16,1.63.74,2.2-.19.03-.3.06-.42.07-.24.03-.47.12-.55.36-.09.25-.24.2-.43.18-.1-.01-.23.02-.31.08-.11.08-.19.21-.33.37-.05-.46-.19-.82-.23-1.21-.04-.37-.06-.74-.07-1.11-.02-.56-.02-1.12,0-1.68.04-.89.1-1.78.17-2.67.03-.41.1-.81.16-1.21.09-.53.19-1.06.29-1.59.06-.33.14-.67.22-1,.12-.5.24-1,.36-1.5.09-.4.19-.79.27-1.19.09-.48.15-.97.23-1.45.08-.42.25-.83.09-1.27-.01-.04,0-.1.02-.14.31-.4.3-.92.31-1.36.02-.54.21-1.02.29-1.54.06-.4.27-.77.19-1.2-.03-.14.02-.3.04-.45.05-.38.13-.77.17-1.15.03-.26,0-.54.04-.8.07-.37.18-.73.3-1.09.05-.14.18-.27.3-.37.25-.21.32-.66.12-.91.06-.07.12-.14.19-.21-.32-.19-.47-.15-.61.14-.39.79-.65,1.62-.86,2.47-.27,1.1-.63,2.18-.85,3.29-.12.58-.11,1.18-.34,1.76-.16.43-.16.91-.24,1.37-.11.67-.32,1.32-.28,2.01.01.22-.12.45-.18.68-.14.54-.28,1.08-.42,1.62-.02.07-.06.15-.05.22.07.53-.26.96-.35,1.44-.04.23-.38.45-.04.71.01.01,0,.07-.02.11-.06.31-.14.61-.19.92-.08.52-.13,1.04-.21,1.55-.02.13-.1.26-.11.39-.03.33.21.7-.17.97-.03.02-.02.09-.02.14.02.45.03.89.06,1.34.06.85.12,1.7.19,2.55.02.2.08.39.08.59.02.51,0,1.01.03,1.52.02.19.18.36.27.54.05.1.12.21.13.33.04.41.32.82.66.9.33.08.67.15,1.01.19.16.02.36-.03.5-.12.48-.31.58-.26,1.07.05.21.13.4.27.6.41.21.15.19.42-.06.52-.18.08-.38.13-.58.13-1.06,0-2.12-.06-3.18-.02-.83.03-1.66.08-2.5,0-1.27-.12-2.56-.16-3.83-.25-.47-.03-.73-.3-.88-.74-.12-.34-.02-.85-.59-.91-.02,0-.06-.03-.07-.05-.08-.18-.21-.13-.34-.06-.15.07-.29.16-.51.28.02-.18.04-.27.05-.37.03-.25.06-.5.08-.76,0-.04-.02-.07-.03-.11-.14-.55-.12-1.1-.03-1.66.05-.28.23-.55.09-.87-.05-.12.06-.32.11-.48.01-.04.07-.07.12-.09.02,0,.07.06.08.1.09.43.15.86.25,1.28.08.31.22.58.16.95-.05.3.18.64.32.96.05.11.2.25.28.24.17-.03.29-.17.26-.38-.05-.37-.08-.74-.12-1.12-.04-.4-.09-.81-.13-1.21-.04-.38-.09-.77-.11-1.15-.02-.24.07-.51,0-.73-.22-.66-.05-1.36-.22-2.02.21-.24.03-.51.06-.77.04-.34.09-.68.09-1.02,0-1.23,0-2.45,0-3.68,0-.45.06-.9.03-1.36-.05-.72.05-1.45.08-2.17,0-.2-.02-.4,0-.6.07-.66.11-1.33.23-1.99.09-.48.29-.94.43-1.42.36-1.2.72-2.39,1.06-3.59.14-.48.27-.97.36-1.47.12-.74.17-1.48.29-2.22.13-.84.33-1.66.46-2.5.16-1.06.29-2.12.4-3.19.05-.47,0-.96.06-1.43.08-.72.27-1.42.3-2.14.02-.65.22-1.27.2-1.92-.01-.37.11-.73-.21-1.04.13.03.23.06.37.1-.06-.15-.15-.26-.14-.37.05-.54.12-1.08.18-1.62.02-.21.04-.41.09-.62.15-.63.55-1.07,1.18-1.46-.19-.09-.31-.18-.44-.2-.44-.06-.78.07-1.1.45-.49.56-.7,1.21-.85,1.9-.05.25-.06.51-.06.77,0,.43.02.87.03,1.3,0,.2.04.4.05.6.05.98.1,1.95.14,2.93.01.22.04.44.03.66-.04.86-.09,1.72-.14,2.58,0,.03-.03.05-.07.11-.02-.16-.03-.28-.04-.4-.02,0-.05,0-.07,0,0,.08-.02.16-.02.24.01.36.06.72.04,1.07-.02.55-.07,1.1-.13,1.64-.03.29-.13.58-.17.87-.08.51-.12,1.03-.23,1.54-.16.74-.4,1.47-.52,2.22-.12.77-.41,1.47-.74,2.16-.05.1-.09.21-.13.32-.11.34-.21.69-.32,1.03-.06.19-.12.38-.2.55-.15.34-.33.66-.48.99-.4.85-.4,1.79-.56,2.68-.11.57-.11,1.17-.14,1.76-.02.42-.05.84-.03,1.26.02.44,0,.86-.24,1.24.06.05.18.1.19.16,0,.36,0,.72-.02,1.08-.02.32-.07.64-.07.95,0,.15,0,.24-.13.33-.13.09-.23.23.01.34-.06.08-.14.14-.14.19.02.38-.14.7-.25,1.04-.14.44-.13.92-.25,1.37-.13.48-.12.99-.35,1.44-.04.08-.02.2,0,.3.03.19.11.38.12.57.02.34,0,.68-.01,1.02,0,.15-.06.3-.04.45.03.32.09.65.1.97.02,1.04-.15,2.08.08,3.12.06.26-.16.6.26.75-.09.22-.19.41-.25.6-.04.15-.07.32-.06.47.05.51.31.9.62,1.27.3.18.58.4.85.63.23.2.45.43.71.59.32.19.67.31,1.03.42.07-.02.14-.05.2-.03.57.16,1.17.05,1.75.14.55.09,1.14.03,1.7-.01.61-.04,1.22-.15,1.83-.19.68-.05,1.37-.04,2.05-.07.36-.01.72.2,1.08-.04.01,0,.06.06.09.06.21.01.42.03.63.03.06,0,.12-.07.18-.07.36.02.71.04,1.04-.13.02-.01.05-.02.08-.02.37,0,.74.02,1.11.02.09,0,.18-.03.27-.03.26-.01.52-.01.77-.02.34-.01.65-.26,1.01-.15.05.01.11,0,.16-.03.21-.13.46-.16.68-.29.02-.59,0-1.19-.07-1.77-.11-.1-.23-.19-.34-.27,0,0-.01-.01-.02-.02-.35-.11-.69-.22-1.03-.35-.68-.26-1.35-.56-2.02-.85-.4-.17-.81-.33-1.19-.53-.18-.09-.28-.31-.46-.4-.31-.17-.66-.29-.97-.46-.09-.05-.19-.17-.2-.27-.04-.32-.04-.65-.05-.99.11-.08.24-.2.4-.26.21-.09.44-.17.66.04.07.07.24.09.34.05.07-.03.11-.17.13-.28.03-.13.04-.27.06-.4.18.15.28.38.57.28-.04-.1-.07-.18-.11-.29.22-.02.4-.05.59-.06.18,0,.38.06.54,0,.28-.11.53-.28.85-.46-.21-.02-.39-.07-.57-.05-.7.09-1.4.21-2.1.31-.2.03-.4,0-.54,0,.06-.27.19-.52.13-.7-.12-.31-.19-.61-.19-.93,0-.83.04-1.66.07-2.49,0-.11.04-.22.05-.33.02-.29.02-.59.04-.88.04-.47.29-.91.11-1.4,0-.02,0-.06,0-.08.08-.72.35-1.4.31-2.15-.02-.42.2-.86.31-1.29.12-.46.24-.92.34-1.39.11-.51.19-1.03.27-1.54.12-.7.23-1.4.35-2.1.01-.07.03-.15.05-.22.04-.14.1-.28.11-.43.02-.18-.03-.37,0-.55.06-.62.13-1.25.21-1.87.08-.62.18-1.24.27-1.85.01-.1-.03-.2-.06-.3-.01-.05-.05-.1-.05-.15.07-.46.11-.92.24-1.36.09-.33-.15-.73.23-.99.04-.02.01-.14,0-.21,0-.05-.04-.11-.02-.16.08-.25.18-.5.26-.75.1-.33.22-.66.29-.99.21-.91.31-1.85.62-2.71.28-.78.48-1.58.72-2.36.1-.34.13-.69.25-1.03.22-.65.47-1.29.71-1.93.17-.47.35-.94.52-1.4.02-.04.03-.1.02-.14-.06-.36.15-.65.27-.96.1-.26.23-.51.33-.77.06-.17.07-.36.12-.53.09-.34.19-.68.29-1.01.15-.48.3-.95.45-1.43.15-.46.28-.92.45-1.38.14-.4.26-.82.5-1.16.26-.36.66-.61.98-.92.23-.22.53-.44.62-.72.17-.52.46-.95.76-1.38.32-.46.74-.85.81-1.46.05-.46.21-.9.26-1.36.03-.28.05-.62-.32-.78ZM18.18,113.56c-.08.25-.56.35-.96.2.31-.2.61-.34.96-.2Z"/>
      <path class="cls-1" d="M43.02,27.7c.11-.82-.16-1.54-.55-2.23-.17-.3-.36-.59-.54-.88-.22-.37-.47-.72-.62-1.11-.19-.49-.29-1.02-.42-1.53-.09-.32-.18-.65-.26-.97-.06-.24-.11-.49-.17-.73-.06-.26-.1-.51.3-.66-.33-.13-.59-.19-.79-.33-.29-.21-.42-.06-.55.16-.04.06-.08.11-.12.16-.55.7-1.31,1.06-2.15,1.28-.31.08-.64.13-.86.41-.06.07-.17.11-.29.18-.03-.15-.05-.26-.09-.37-.03-.09-.09-.17-.13-.26-.13.14-.27.28-.39.43-.16.22-.28.48-.46.67-.14.15-.34.28-.59.21-.06-.02-.14,0-.2.02-.27.11-.54.23-.82.33-.49.18-.88.51-1.23.87-.08.08-.15.3-.1.38.22.33.15.69.15,1.04-.11-.02-.2-.04-.21-.04,0,.16.05.39,0,.42-.26.14,0,.19,0,.26-.1.18-.23.37-.23.56-.02.45.03.9.04,1.34,0,.13-.02.26-.06.38-.11.33-.22.65-.35.97-.17.41-.35.8-.53,1.21-.03.06-.06.12-.08.18-.1.29-.19.6-.31.88-.07.17-.2.31-.29.48-.26.44-.48.89-.85,1.28-.31.33-.45.81-.66,1.23-.09.19-.15.4-.23.6-.11.27-.31.54-.33.81-.04.43.03.86-.04,1.3,0,.04,0,.11.03.14.27.26.07.59.15.89.12.45.12.92.17,1.37-.3-.11-.66-.25-1.03-.38-.63-.21-1.23-.52-1.71-.97-.38-.36-.83-.57-1.26-.84-.14-.09-.32-.18-.46-.21-.47-.1-.8-.35-1.06-.71-.16-.22-.29-.46-.42-.71-.16-.3-.31-.6-.43-.92-.23-.64-.42-1.29-.65-1.92-.2-.57-.44-1.12-.64-1.68-.06-.17-.05-.36-.1-.53-.08-.24-.21-.46-.28-.71-.16-.63-.3-1.27-.45-1.9-.08-.35-.19-.69-.25-1.04-.09-.45-.15-.91-.22-1.36,0-.06-.04-.13-.01-.17.15-.24,0-.43-.09-.62-.13-.32-.42-.42-.78-.29-.21.08-.36.35-.24.58.17.31.21.64.29.97.12.5.19.99.05,1.52-.51-1.1-1.02-2.2-1.53-3.32.19-.05.32-.06.43-.11.19-.08.36-.17.54-.26-.1-.16-.18-.34-.3-.48-.1-.12-.1-.18.04-.27.13-.09.31-.21.33-.33.05-.32.06-.66,0-.99-.07-.46-.19-.91-.3-1.36-.04-.17-.09-.37-.2-.49-.47-.49-1.01-.83-1.73-.65-.08.02-.17.05-.25.04-.05,0-.14-.06-.14-.1-.02-.39-.29-.59-.58-.77-.15-.1-.12-.16-.02-.29.22-.27.41-.58.66-.94.32-.03.76-.08,1.23-.13-.01-.01.03.06.07.05.46-.06.86-.17,1.18-.53,0-.28-.03-.57-.06-.83-.07-.56-.32-1.1-.3-1.68,0,0,0-.01,0-.02-.02-.2-.03-.4,0-.6.03-.16.1-.47.23-.59.01,0,.01-.02.02-.02-.02-.04,0-.05.01-.04,0-.01-.01-.03-.01-.04-.1-.36.28-.57.56-.66.08-.02.15-.05.23-.07.04-.05.09-.09.13-.14.08-.1.16-.25.19-.33.01-.03.02-.07.03-.1,0-.01,0-.04.01-.05,0-.03,0-.05,0-.08,0-.01,0-.03,0-.04-.06-.26-.22-.48-.4-.7-.09-.07-.17-.14-.22-.18-.49-.4-.99-.77-1.35-1.29-.18-.03-.36-.06-.53-.09,0-.03,0-.05.01-.08-.06.07-.13.14-.23.25.22.26.44.52.67.77.12.13.31.2.41.34.18.27.36.52.67.67.18.08.21.41.06.48-.36.18-.72.35-1.1.47-.14.05-.32.05-.3.21.01.16.09.35.21.45.14.12.22.16.04.31-.22.18-.27.48-.15.7.15.27.18.55.22.84.03.17-.02.36,0,.53.06.36.14.72.21,1.09.05.25-.06.37-.32.34-.44-.05-.88-.11-1.32-.16-.44-.06-.94.34-1.04.76-.08.32-.23.63-.38,1.02-.45-.3-.81-.58-1.2-.79-.4-.22-.84-.37-1.26-.56-.19-.11-.37-.26-.57-.38-.25-.14-.52-.25-.78-.38-.32-.15-.64-.3-.97-.44-.5-.2-.99-.4-1.5-.58-.39-.13-.78-.26-1.18-.34-.22-.05-.4.06-.37.34.03.22-.08.31-.22.31.03.35.05.68.07,1.01.29-.18.29-.4.14-.66.24,0,.45-.05.63,0,.56.2,1.1.46,1.66.67.34.13.7.18,1.03.32.71.31,1.42.64,2.12.98.29.14.56.33.83.52.18.13.35.29.52.43.18.14.37.26.55.4.1.08.17.19.27.27.15.12.32.21.47.32.18.12.36.25.61.42-.18.24-.39.51-.6.79-.1.13-.17.15-.3.02-1.2-1.14-2.57-2.05-4.08-2.7-.78-.33-1.61-.53-2.41-.8-.3-.1-.58-.25-.85-.37.04.12.04.32.14.41.38.33.77.67,1.21.92.38.21.83.28,1.24.44.78.31,1.66.38,2.24,1.11.22.28.51.54.83.68.59.26.83.86,1.33,1.19.05.03.08.11.11.17.17.46.35.93.52,1.39.08.22.15.45.23.67.04.1.1.18.14.28.1.24.19.48.29.72.06.13.19.28.17.39-.05.23.05.36.17.51.18.23.33.48.49.72.04.06.07.11.11.17.26.36.52.73.78,1.09-.27.11-.34.21-.23.36.16.22.31.44.61.53.13.04.32.26.3.32-.09.21.05.3.13.44.26.47.51.93.77,1.4-.03.02-.06.05-.09.07-.07-.09-.18-.17-.22-.28-.25-.62-.53-1.21-1.1-1.6-.05-.03-.08-.08-.11-.13-.43-.62-.86-1.25-1.3-1.87-.38-.53-.77-1.04-1.15-1.57-.69-.98-1.47-1.88-2.3-2.75-.15-.16-.24-.37-.39-.52-.42-.42-.84-.83-1.28-1.23-.66-.59-1.34-1.17-2.01-1.76-.34-.3-.7-.57-.97-.92-.25-.33-.49-.63-.88-.78-.13-.05-.35-.09-.4-.04-.12.15-.19.36-.22.55-.04.25-.07.54.33.54.04,0,.09.07.13.11.75.66,1.5,1.31,2.25,1.97.24.21.49.4.71.62.2.19.28.51.63.53.03,0,.06.07.09.1.63.7,1.28,1.38,1.9,2.09.4.46.8.92,1.17,1.41.51.68,1,1.37,1.5,2.06.54.75,1.09,1.49,1.6,2.26.33.49.59,1.03.88,1.55.14.25.28.49.42.74.23.43.44.87.67,1.31.34.66.69,1.31,1.02,1.98.22.46.41.94.61,1.41.1.24.29.49.25.71-.06.34.18.51.29.74.1.2.34.21.51.05.13-.12.26-.25.37-.35-.35-.74-.7-1.45-1.02-2.18-.17-.4-.26-.84-.42-1.25-.19-.47-.4-.94-.62-1.39-.27-.55-.56-1.09-.88-1.62-.1-.17-.05-.23.12-.37.15.28.28.53.43.81-.02-.16-.04-.27-.05-.38.47.33.83.72,1.01,1.25.12.36.27.72.41,1.08.05.12.13.23.17.35.08.25.14.5.21.74.02.06.09.1.12.15.12.2.24.41.35.62.07.13.13.27.21.4.1.16.22.3.31.47.08.15.13.32.21.51-.02.04-.07.11-.11.18.15.3.37.52.69.65.58.23,1.16.47,1.74.7.14.06.29.11.44.12.43.03.8.21,1.17.41.68.36,1.36.73,2.06,1.05.71.33,1.44.6,2.16.9.11.05.23.1.33.18.45.34.9.69,1.41,1.08-.11.04-.18.06-.28.1.22.14.44.11.49.35,0,.03.34.04.35.02.06-.24.42-.37.27-.69-.01-.03,0-.07,0-.1.4-.6.1-1.21-.12-1.72-.15-.34-.09-.63-.08-.93.02-.35.14-.69.22-1.03.06-.25.15-.49.22-.74.06-.23.15-.46.17-.69,0-.08-.15-.18-.25-.26,0,0-.14.09-.14.13.01.3-.17.46-.33.54.01.21.07.38.02.51-.07.23-.25.42-.3.65-.13.57-.23,1.14-.32,1.71-.04.26,0,.53-.03.79-.02.16-.08.26-.29.15-.77-.41-1.54-.8-2.32-1.2l.02-.1c.08-.05.15-.11.23-.13.24-.08.32-.25.26-.48-.04-.16-.14-.3-.16-.46-.07-.46-.11-.93-.16-1.4-.02-.15-.03-.31-.02-.46,0-.26.11-.55.03-.76-.22-.56.06-1.07.19-1.55.17-.66.61-1.25.95-1.87.2-.36.42-.7.63-1.05.09-.15.19-.3.26-.46.1-.21.14-.45.28-.63.42-.59.72-1.23.82-1.95,0-.06.06-.12.1-.17.03-.04.08-.09.08-.13.04-.41.21-.77.44-1.11.12-.18.33-.38.31-.55-.02-.25.13-.25.23-.31.01-.11,0-.22.04-.28.19-.28.15-.53,0-.81-.19-.34-.14-.49.24-.53.4-.04.66-.27.92-.53.23-.23.44-.49.69-.69.24-.19.51-.35.79-.48.33-.16.68-.27,1.02-.4.03,0,.06-.01.09,0,.48.03.85-.28,1.28-.42.46-.15.88-.42,1.32-.63.19-.09.31-.03.32.21.02.52.05,1.04.1,1.56.02.23-.06.28-.27.28-.62,0-1.22.1-1.76.41-.33.19-.63.43-.94.65-.54.4-1.1.8-1.62,1.23-.48.39-.99.77-1.27,1.36-.06.12-.16.21-.24.32-.06.08-.13.16-.19.22-.08.17-.12.33-.21.42-.31.32-.53.68-.7,1.09-.15.35-.29.66-.05,1.03.05-.02.11-.03.14-.07.2-.27.4-.55.59-.83.17-.24.29-.52.5-.72.82-.82,1.67-1.61,2.51-2.41.36-.34.7-.73,1.11-1.01.43-.3.92-.54,1.41-.74.19-.08.51-.05.69.06.31.19.6.39.93.56.54.27.89.79,1.09,1.37.16.47.3.96.37,1.45.07.46.09.94.04,1.41-.06.55-.23,1.09-.34,1.63-.05.25-.05.51-.11.76-.16.68-.35,1.34-.5,2.02-.1.47-.14.95-.23,1.42-.08.39-.2.77-.3,1.16-.16.59-.27,1.2-.49,1.76-.26.65-.64,1.26-.94,1.9-.31.67-.73,1.24-1.27,1.73-.05.04-.04.16-.05.24-.28.03-.32.1-.21.48-.16,0-.3-.02-.43.02-.11.03-.21.13-.29.21-.08.09-.1.21-.18.3-.44.54-.89,1.08-1.34,1.62l.1.09c.11-.1.22-.21.36-.33-.03.12-.05.2-.08.31-.47,0-.73.36-1.04.64-.31.28-.57.65-1.04.64-.4,0-.8-.04-1.2-.08-.24-.02-.48-.15-.7-.12-.84.13-1.63-.17-2.44-.29-.13-.02-.32-.07-.35-.16-.1-.25-.29-.22-.47-.21-.1,0-.28.06-.28.11-.01.12.01.32.09.37.38.24.77.5,1.19.64.52.18,1.1.21,1.58.52.05.03.11.04.16.05.47.09.94.18,1.41.27.04,0,.08.01.11.02.48.04.92-.09,1.34-.31.59-.3,1.17-.63,1.86-.63.06.17.1.35.17.51.03.07.13.16.2.17.35.02.71.04,1.06.02.2-.01.43-.01.54-.26.12-.28.11-.57-.02-.84-.1-.21-.27-.38-.56-.27-.32.12-.65.24-.97.36-.26.1-.5.29-.78.08.08-.11.18-.22.25-.34.22-.38.28-.82.58-1.17.41-.48.69-1.05,1.26-1.38.21-.13.38-.34.58-.49.17-.13.38-.33.54-.31.35.05.56-.17.84-.26.2-.07.28-.22.31-.4.05-.32.11-.61.36-.85.06-.06.06-.18.08-.27.03-.09.05-.18.08-.27.2-.54.43-1.07.59-1.63.13-.44.15-.92.23-1.37.13-.69.27-1.39.41-2.08.17-.87.35-1.73.51-2.6.08-.4.14-.8.2-1.21.11-.8.22-1.59.29-2.39.02-.27-.12-.55-.08-.81ZM16.65,22.6c-.09.1-.34.12-.5.09-.09-.02-.15-.21-.22-.32-.08-.13-.15-.26-.22-.4-.18-.36-.36-.71-.54-1.08.25-.19.49-.37.74-.56.33-.26.79-.12.94.28.09.25.22.49.31.74.04.11.08.27.03.36-.15.31-.32.63-.54.89Z"/>
      <path class="cls-1" d="M66.2,84.61c-.45-.07-.75-.47-1.09-.79-.46-.44-.84-1-1.36-1.35-.65-.44-.96-1.15-1.54-1.62-.08-.06-.16-.15-.25-.17-.4-.09-.44-.48-.65-.72-.48-.54-.95-1.08-1.42-1.64-.32-.38-.62-.79-.95-1.18-.31-.36-.67-.68-.97-1.05-.53-.67-1.03-1.38-1.55-2.06-.27-.36-.58-.69-.86-1.04-.05-.06-.02-.19-.06-.26-.35-.54-.7-1.08-1.08-1.61-.23-.32-.48-.62-.74-.91-.49-.56-.81-1.22-1.19-1.85-.08-.14-.24-.24-.29-.39-.28-.7-.83-1.24-1.18-1.9-.37-.71-.83-1.36-1.24-2.04-.12-.21-.2-.44-.31-.66-.09-.18-.21-.35-.31-.53-.49-.8-.98-1.59-1.45-2.4-.68-1.17-1.34-2.36-2-3.54-.36-.65-.73-1.3-1.08-1.96-.16-.29-.26-.62-.42-.91-.14-.28-.31-.54-.47-.81-.01-.02-.04-.05-.04-.07.02-.57-.4-.95-.59-1.43-.23-.57-.55-1.12-.76-1.7-.33-.92-.63-1.86-.9-2.8-.21-.74-.37-1.5-.55-2.25-.02-.09-.09-.16-.14-.24-.19-.3-.23-.59-.06-.92.1-.19.21-.33.46-.3.07.01.16,0,.23-.03.78-.29,1.38.06,1.91.57.47.44.92.89,1.36,1.35.89.91,1.8,1.8,2.64,2.76,1.01,1.16,1.96,2.38,2.91,3.6.85,1.08,1.68,2.17,2.48,3.28.7.96,1.37,1.95,2.01,2.95.54.84,1.01,1.73,1.54,2.57.47.76.98,1.49,1.46,2.24.03.05.07.09.1.14.23.41.45.82.69,1.22.38.63.77,1.25,1.17,1.87.5.77,1.03,1.52,1.55,2.28.45.66.92,1.3,1.58,1.76.52.37,1.02.79,1.57,1.11.61.36,1.27.62,1.9.94.77.4,1.53.83,2.3,1.24,1.27.68,2.54,1.34,3.8,2.03.75.41,1.48.87,2.21,1.31.04.03.06.09.1.14-.16.19-.27.17-.48.03-.28-.2-.6-.34-.93-.44-.83-.26-1.61-.66-2.42-.96-1.26-.47-2.36-1.22-3.56-1.8-.08-.04-.14-.12-.22-.17-.37-.21-.76-.38-1.1-.62-.57-.4-1.29-.54-1.82-1.01-.31-.28-.63-.55-.94-.82-.04-.03-.07-.06-.12-.08-.5-.19-.81-.64-1.23-.93-.43-.29-.72-.72-.89-1.22-.04-.1-.18-.17-.28-.25-.29-.27-.6-.53-.87-.81-.11-.11-.19-.26-.25-.41-.16-.41-.48-.69-.77-1.01-.26-.28-.43-.65-.63-.98-.09-.15-.14-.35-.27-.46-.41-.35-.52-.87-.75-1.31-.05-.09-.09-.2-.16-.26-.22-.2-.34-.44-.38-.74,0-.06-.09-.11-.14-.17-.25-.38-.51-.75-.74-1.13-.09-.14-.15-.32-.16-.49,0-.08.13-.17.24-.3-.12.03-.23.05-.41.08-.12-.18-.28-.42-.43-.67-.27-.43-.5-.89-.83-1.27-.3-.35-.48-.76-.77-1.1-.41-.47-.7-1.02-1.07-1.51-.28-.36-.53-.74-.81-1.1-.27-.35-.55-.69-.83-1.02-.15-.17-.34-.3-.47-.48-.12-.15-.18-.34-.28-.5-.22-.33-.46-.65-.68-.97-.3-.44-.6-.88-.91-1.32-.05-.07-.16-.11-.21-.18-.18-.24-.35-.48-.52-.73-.43-.65-.79-1.37-1.3-1.95-.67-.75-1.31-1.58-2.28-2.01-.02,0-.02-.03-.05-.05.03-.05.06-.1.09-.15-.03-.02-.04-.05-.05-.04-.44.05-.7-.22-.96-.52-.37-.43-.83-.72-1.43-.65-.06,0-.12.05-.25.11.13.07.2.09.25.14.06.05.14.12.13.18-.05.82.22,1.56.49,2.31.34.97.67,1.95,1.04,2.91.3.78.65,1.55,1,2.31.33.71.67,1.41,1.03,2.1.38.73.79,1.43,1.18,2.16.25.46.46.95.72,1.41.42.76.84,1.52,1.29,2.26.84,1.38,1.68,2.76,2.54,4.13.53.84,1.08,1.67,1.62,2.51.67,1.03,1.31,2.07,2.01,3.07.81,1.16,1.67,2.29,2.52,3.43.3.4.61.79.93,1.2,0,.02-.05.12-.02.15.37.43.77.83,1.13,1.27.52.61,1.01,1.25,1.53,1.87.52.61,1.04,1.22,1.59,1.82.8.87,1.62,1.73,2.44,2.58.46.47.94.91,1.42,1.35.4.37.82.72,1.22,1.09.15.14.25.33.39.48.52.53,1.15.65,1.87.57.41-.05.65-.23.78-.6.12-.33.41-.52.71-.59.84-.21,1.6-.59,2.33-1.02.21-.13.37-.34.58-.48.19-.13.41-.21.61-.31.1-.05.19-.12.28-.18.14-.09.29-.18.43-.28.13-.09.27-.18.38-.3.16-.17.29-.38.47-.53.29-.24.63-.28,1-.21.31.06.63.09.94.13,0,.04.02.08.03.12-.17.07-.33.17-.51.2-.22.04-.37.15-.52.31-.26.27-.56.49-.85.73-.04.04-.1.06-.13.11-.57.7-1.38,1.1-2.1,1.6-.51.36-1.09.63-1.66.9-.33.16-.7.21-1.04.35-.19.08-.36.23-.54.35-.09.06-.18.17-.28.19-.91.16-1.83.24-2.72-.1-.22-.08-.42-.23-.54-.5-.1-.21-.4-.33-.62-.48-.1-.07-.21-.13-.3-.22-.06-.06-.09-.14-.16-.26Z"/>
      <path class="cls-1" d="M23.12,98.88s.04.04.07.08c-.03,0-.05,0-.08.01,0,.09-.04.21,0,.26.16.18.33.38.53.49.61.33,1.19.74,1.89.85.25.04.51.04.79.06v-.17c.42.09.83.17,1.23.25.06.01.14.05.16.1.14.29.27.59.44.98-.48-.03-.89-.03-1.3-.09-.39-.06-.76-.08-1.15.07-.2.08-.46.03-.68.03-.16,0-.32-.03-.48-.02-.74,0-1.49.01-2.23.03-.11,0-.22.04-.32.09-.38.19-.74.39-1.12.57-.12.06-.28.05-.43.07-.21-.25-.18-.39.1-.54.12-.06.22-.16.37-.28-.11-.04-.17-.06-.15-.06-.02-.41-.02-.8-.06-1.18-.07-.55-.3-1.07-.37-1.63-.04-.32.05-.72-.21-1.02-.05-.06-.03-.18-.04-.28-.01-.16.01-.33-.04-.48-.19-.57-.15-1.16-.22-1.74-.05-.44-.12-.88-.16-1.32-.02-.2-.04-.42,0-.62.14-.58,0-1.16.01-1.73.02-.71.02-1.42.14-2.11.3-1.68.8-3.32,1.36-4.93.36-1.06.69-2.12,1.06-3.18.24-.69.52-1.36.77-2.05.14-.38.24-.77.37-1.15.37-1.08.74-2.15,1.1-3.23.12-.36.2-.74.31-1.1.05-.18.11-.36.18-.54.43-.95.89-1.88,1.31-2.83.2-.45.34-.94.52-1.4.08-.19.16-.4.29-.55.38-.43.4-.93.39-1.46,0-.03-.02-.08-.04-.1-.15-.15-.16-.28.04-.39.02-.01.05-.03.06-.06.05-.07.1-.14.15-.21.05.08.14.16.16.25.04.25.04.5.06.76,0,.05-.01.1,0,.14.08.57-.05,1.12-.17,1.66-.08.4-.25.78-.39,1.17-.29.77-.58,1.54-.89,2.31-.08.2-.22.37-.3.56-.1.24-.16.49-.24.73-.06.19-.09.39-.17.56-.3.63-.44,1.32-.67,1.98-.09.27-.22.52-.31.79-.31.97-.61,1.95-.92,2.93-.25.8-.52,1.59-.77,2.39-.09.29-.15.59-.23.88-.02.06-.03.13-.07.19-.38.59-.59,1.24-.75,1.92-.16.7-.45,1.37-.66,2.06-.06.2-.04.42-.08.62-.07.32-.18.64-.26.96-.03.13.02.27,0,.4-.07.4-.19.79-.25,1.19-.04.32-.02.65-.01.97.01.74.03,1.48.06,2.22.02.37.1.74.13,1.11.03.37.04.74.03,1.1-.01.4-.06.79-.09,1.23.01,0-.05.01-.07.02.16,1.12.33,2.24.49,3.37.41-.02.83-.05,1.3-.07.13-.15.3-.36.41-.5-.12-.29-.21-.51-.32-.72-.03-.05-.1-.08-.14-.13-.1-.11-.22-.22-.29-.35-.09-.16-.05-.37-.24-.52-.1-.08-.07-.34-.05-.52.08-.65.17-1.31.27-1.96.19-1.18.36-2.37.6-3.55.16-.79.43-1.56.63-2.35.13-.5.21-1.02.34-1.53.2-.78.44-1.56.63-2.35.12-.48.17-.98.26-1.47.03-.16.1-.3.15-.46.1-.32.2-.64.28-.96.02-.08-.02-.17-.03-.18.08-.2.17-.34.19-.49.08-.62.27-1.2.46-1.79.26-.82.44-1.66.64-2.5.08-.35.1-.72.19-1.07.1-.4.26-.78.38-1.17.02-.06.01-.13.03-.2.04-.24.09-.48.14-.71.05-.25.12-.51.16-.76.1-.57.3-1.1.49-1.65.17-.48.25-.99.38-1.48.13-.51.29-1.01.41-1.52.1-.4.15-.8.23-1.2.08-.39.17-.77.25-1.16.05-.21.07-.43.12-.65.21-.9.43-1.79.64-2.68.12-.48.22-.97.34-1.45.15-.61.31-1.21.46-1.81.06-.25.07-.51.12-.76.18-.98.38-1.96.55-2.94.04-.26-.04-.53-.02-.79.02-.23.03-.55.17-.66.29-.23.21-.53.29-.8.04-.17,0-.36.03-.54.05-.27.12-.54.19-.81.02-.07.07-.15.14-.2.03-.02.12.06.17.1.09.06.18.11.26.18.06.06.12.14.14.22.04.25.1.51.09.76,0,.26-.09.52-.13.79-.07.37-.13.74-.2,1.11-.09.45-.2.9-.3,1.35-.08.38-.16.77-.25,1.14-.18.71-.38,1.42-.55,2.13-.16.67-.27,1.35-.43,2.02-.15.63-.34,1.26-.5,1.89-.06.23-.06.47-.11.7-.1.53-.19,1.05-.32,1.57-.1.38-.14.77-.15,1.16,0,.02,0,.05,0,.05-.27.16-.19.47-.29.7-.12.3-.18.62-.27.93-.24.8-.49,1.6-.71,2.41-.32,1.22-.69,2.43-.89,3.67-.14.84-.35,1.64-.67,2.41-.13.32-.24.64-.36.97-.02.05-.04.11-.03.16.09.59.03,1.16-.21,1.71-.05.1.06.27.03.39-.09.42-.21.84-.31,1.26-.02.06-.04.17-.01.19.23.2.05.36-.05.53-.18.32-.29.66-.29,1.03,0,.06.02.13,0,.19-.04.15-.13.3-.15.45-.05.49-.17.95-.41,1.4-.12.22-.09.52-.12.78,0,.03.01.06,0,.08-.09.26-.19.52-.26.78-.11.45-.17.91-.28,1.37-.06.27-.17.53-.26.79-.07.23-.16.47-.21.7-.15.68-.3,1.37-.44,2.06-.09.44-.16.88-.21,1.32-.02.13.03.27.04.41,0,.03.03.06.02.08-.08.29-.17.58-.23.88-.04.23-.05.46-.04.69.01.49.06.99.07,1.48,0,.13-.1.26-.17.42Z"/>
      <path class="cls-1" d="M26.82,58.39s-.08-.04-.09-.06c-.04-.05-.08-.11-.11-.16.47-.38.5-.94.6-1.47,0-.04-.03-.11-.01-.13.2-.25.15-.55.18-.83.07-.59.09-1.19.14-1.79,0-.1,0-.21.03-.31.05-.15.1-.27-.13-.25-.02,0-.04-.01-.05-.03-.09-.42-.48-.33-.75-.43-.14-.05-.3-.04-.46-.06-.21.2-.06.43,0,.63.1.38.3.74.39,1.12.09.41.11.83.13,1.25.02.34.02.68-.21.97-.05.07-.11.13-.16.2-.03-.02-.05-.03-.08-.05.05-.09.1-.17.14-.26-.33-1.29-.64-2.6-1.29-3.85.1-.07.22-.17.4-.3-.41-.07-.77-.12-1.13-.19-.34-.06-.67-.13-1.01-.19-.04,0-.07-.04-.11-.03-.7.07-1.34-.19-2-.36-.33-.08-.64-.26-.97-.37-.24-.08-.49-.13-.73-.2-.52-.14-1-.4-1.56-.44-.21-.01-.39-.23-.6-.32-.27-.12-.55-.19-.82-.31-.39-.18-.84-.31-1.13-.59-.51-.49-1.26-.71-1.59-1.42-.19-.41-.56-.73-.81-1.12-.33-.5-.68-1-.92-1.54-.15-.33-.36-.59-.56-.86-.1-.13-.26-.21-.36-.34-.22-.3-.41-.63-.63-.93-.14-.18-.35-.31-.51-.48-.14-.15-.36-.24-.32-.54.01-.1-.24-.22-.35-.35-.26-.31-.61-.61-.71-.97-.08-.29-.35-.36-.4-.62.03-.01.08-.03.07-.03-.31-.4-.62-.78-.91-1.18-.38-.53-.74-1.07-1.1-1.61-.3-.44-.59-.89-.9-1.33-.16-.22-.35-.42-.51-.64-.15-.2-.28-.42-.42-.63-.18-.29-.28-.65-.69-.75-.09-.02-.17-.15-.21-.25-.13-.34-.2-.72-.37-1.04-.15-.3-.22-.67-.54-.88-.05-.04-.03-.19-.04-.3.03-.01.07-.02.1-.03-.18-.29-.37-.57-.55-.86-.04-.06-.07-.11-.09-.18-.06-.19-.14-.35-.26-.51-.16-.23-.18-.59-.19-.89,0-.25-.07-.55.21-.75.04-.03-.05-.22-.08-.34-.08-.34-.16-.68-.25-1.02-.03,0-.05,0-.08,0-.06.34-.1.69-.18,1.02-.18.78-.05,1.57-.03,2.35.02,1.05.32,2.05.45,3.08.01.09,0,.17.01.26.02.2.05.4.05.61,0,.27-.07.55-.05.82.02.32.09.64.16.95.14.61.3,1.21.46,1.82.03.13.09.25.14.38.13.33.26.67.38,1,.12.37.22.74.32,1.11.1.35.2.7.3,1.05.12.43.25.87.36,1.3.02.07,0,.15,0,.24.36.14.52.55.35.76.1.22.22.4.26.59.06.3.08.61.1.92,0,.22-.03.45-.04.68,0,.13-.01.26-.01.39,0,.04-.02.09,0,.11.33.36.08.8.14,1.19.06.41.08.82.11,1.23.04.57.11,1.15.08,1.71-.04.67,0,1.33,0,2,0,.67-.07,1.33-.1,2,0,.21.05.43.06.65.02.55.03,1.1.04,1.65.01.4.05.8.06,1.2.02.72,0,1.45.04,2.17.01.35.12.7.13,1.05.02.5-.03,1.01-.02,1.51,0,.26.08.52.13.78,0,.02.01.04.01.06-.06.3,0,.56.22.81.32.38.62.79,1.06,1.05.3.18.61.32.92.48-.23.56-.34.56-.89.55-.53-.01-.77-.34-1.09-.66-.34-.33-.42-.76-.64-1.13-.35-.61-.42-1.27-.39-1.96.01-.31-.11-.63-.17-.93.02,0,.08.03.1.04-.06-.6-.12-1.22-.17-1.83-.07-.79-.14-1.58-.19-2.37-.07-1.06-.12-2.12-.16-3.17-.03-.74-.1-1.48-.04-2.21.05-.69-.06-1.35-.05-2.03.02-.94.02-1.89.02-2.83,0-.05,0-.1.02-.14.39-1.05.18-2.1.06-3.17-.04-.39-.27-.65-.4-.97-.04-.09-.09-.21-.06-.28.22-.46-.08-.8-.27-1.15-.09-.16-.24-.28-.36-.43-.02-.03-.04-.07-.04-.1-.01-.76-.5-1.37-.68-2.07-.11-.39-.18-.8-.35-1.17-.31-.66-.43-1.35-.57-2.05-.02-.11-.05-.22-.09-.32-.34-.85-.4-1.74-.45-2.63-.02-.43-.15-.86-.19-1.29-.05-.54-.05-1.09-.08-1.64-.02-.27-.15-.57-.08-.81.11-.38-.37-.73-.01-1.09.01-.02,0-.08-.02-.11-.13-.23.02-.26.23-.26-.2-.18-.12-.29,0-.49.16-.27.19-.61.26-.93.06-.31.13-.63.17-.93.05-.36.24-.64.32-.97.14-.53.3-1.05.5-1.56.15-.39.28-.78.54-1.13.29-.39.52-.81.77-1.23.21-.36.9-.67,1.38-.59-.07.3-.08.62-.22.88-.15.28-.42.5-.61.76-.12.16-.18.36-.27.55-.05.1-.07.22-.13.31-.23.34-.46.66-.37,1.11.03.12-.16.27-.2.43-.15.61-.27,1.23-.41,1.84-.23.99,0,1.96.15,2.92.07.41.29.78.45,1.17.08.2.15.41.23.61.13.31.21.65.4.92.34.46.53,1,.81,1.49.29.51.52,1.06.8,1.58.18.33.4.64.61.95.28.42.55.85.84,1.26.48.67.97,1.33,1.46,2,.41.56.82,1.13,1.23,1.69.26.36.54.71.78,1.08.18.28.31.59.48.87.08.12.22.2.32.29-.11.05-.19.09-.02.24.24.22.45.47.66.72.28.34.54.69.81,1.03.3.38.61.75.9,1.13.07.1.12.22.16.34.1.37.46.52.68.79.23.28.51.51.8.73.84.62,1.69,1.23,2.71,1.55.93.3,1.84.64,2.78.92,1.28.38,2.56.72,3.89.88.36.04.71.21,1.06.22.67.02,1.25.32,1.87.5.84.24.95.1,1.34-.75,0-.02,0-.04,0-.06.23-.5.5-.99.69-1.51.24-.68.58-1.34.46-2.1-.07-.47.23-.75.54-1.01.14-.12.32-.1.42.11.04.08.1.16.08.25.03.11.08.22.09.34.01.17.04.35,0,.51-.17.65-.34,1.31-.57,1.94-.19.51-.5.97-.7,1.48-.21.57-.6,1.04-.85,1.58-.16.35-.28.72-.35,1.1-.07.36-.04.74-.11,1.11-.07.38-.2.75-.3,1.12-.02.09-.02.2-.03.29,0,.03.01.06,0,.08-.29.66-.35,1.41-.83,2.02Z"/>
      <path class="cls-1" d="M70.05,89.26q-.52-.27-.39-.57c-.1-.06-.21-.12-.31-.19-.04-.02-.11-.07-.1-.09.07-.29-.2-.31-.34-.42-.21-.16-.19-.4-.13-.58.03-.09.3-.15.44-.13.38.06.61.34.75.66.23.55.42,1.11.63,1.67,0,.02.01.04.02.05.15.55.06.68-.5.84-.38.11-.76.24-1.14.36-.39.12-.8.2-1.17.36-.39.17-.76.39-1.12.62-.23.15-.47.31-.64.53-.49.63-1.36.75-1.81,1.43-.08.12-.31.13-.45.22-.33.23-.65.46-.95.72-.56.49-1.11,1-1.67,1.49-.42.37-.85.72-1.26,1.09-.11.1-.17.25-.26.37-.04.06-.1.11-.17.13-.88.26-1.71.67-2.51,1.11-.89.49-1.72,1.08-2.58,1.61-.28.17-.6.27-.9.41-.37.18-.73.41-1.11.54-.65.22-1.24.6-1.96.64-.4.02-.78.27-1.18.38-.38.11-.77.18-1.16.24-.5.07-1.01.11-1.51.17-.17.02-.34.1-.51.15-.81.24-1.62.51-2.44.71-.46.11-.94.12-1.41.15-.17.01-.26.05-.26.22,0,.24-.05.48-.02.72.13.95-.07,1.88-.14,2.82-.06.8-.43,1.49-.67,2.23-.19.57-.54,1.04-.74,1.59-.07.18-.22.34-.33.5.02.02.03.05.05.07.13,0,.26,0,.38-.02.26-.06.5-.15.76-.22.28-.07.58-.48.48-.74-.09-.23.05-.29.18-.34.33-.12.67-.23,1.01-.31.15-.04.21-.09.27-.24.18-.48.37-.96.79-1.31.33-.28.5-.81.38-1.11.22-.13.51-.17.51-.53,0-.12.13-.25.21-.39-.06-.09-.13-.19-.17-.25.1-.13.19-.23.26-.34.08-.13.14-.27.22-.4.1-.16.25-.29.14-.52-.02-.05.08-.17.14-.25.11-.13.2-.23.1-.43-.04-.08.11-.26.18-.39.05-.08.12-.14.19-.2.1-.09.21-.19.32-.27.09-.07.19-.13.26-.23.41-.1.66.04.85.41.17.33.34.66.55.96.07.1.26.11.37.19.11.08.24.18.26.29.12.56.23,1.13.29,1.7.03.29-.06.59-.07.89,0,.37.02.75.01,1.12,0,.3.02.63-.06.91-.13.42.03.82-.02,1.22-.04.38-.13.75-.23,1.12-.08.3-.38.37-.58.26-.18-.09-.33-.35-.37-.56-.06-.35-.03-.73-.03-1.09,0-.1.07-.2.06-.3-.01-.44-.04-.89-.06-1.33,0-.09-.02-.17,0-.26.14-.68-.18-1.3-.23-1.99-.08.04-.14.04-.16.07-.13.23-.25.48-.39.71-.16.27-.32.55-.52.8-.32.4-.7.75-1,1.16-.21.28-.31.64-.5.95-.19.31-.43.6-.64.9-.07.1-.1.24-.18.33-.15.18-.31.37-.5.51-.52.39-1.15.46-1.77.56-.23.04-.46.13-.7.16-.32.04-.64.02-.96.05-.21.02-.42.05-.61.12-.45.18-1.32-.04-1.6-.42-.03-.04-.03-.09-.06-.13-.11-.11-.22-.22-.35-.32-.07-.06-.17-.09-.24-.2.18,0,.37.04.54-.01.17-.05.29-.21.45-.3.08-.04.19-.02.24-.08.1-.1.2-.2.29-.31.19-.22.38-.44.58-.66.16-.18.32-.35.48-.53.12-.13.23-.28.35-.4.14-.14.3-.26.45-.4-.05-.02-.14-.06-.25-.11.09-.06.16-.11.23-.16-.02,0-.04-.01-.06-.02.03-.08.05-.17.09-.25.06-.15.19-.31.17-.44-.06-.33.09-.56.21-.84.14-.32.23-.66.33-.99.21-.69,0-1.4.05-2.09.01-.2,0-.43-.03-.64-.03-.25-.13-.36-.39-.33-.24.03-.46-.02-.49-.27.05-.14.07-.29.14-.41.06-.09.2-.22.28-.2.44.08.75-.27,1.15-.31.27-.02.54-.07.81-.12.8-.15,1.6-.3,2.4-.46.95-.19,1.9-.34,2.88-.27.27.02.52-.05.79-.18.31-.15.69-.15,1.04-.21.24-.04.5-.06.74-.12.12-.03.22-.14.34-.2.47-.23.93-.48,1.42-.67.47-.18.81-.55,1.21-.83.31-.21.59-.46,1.02-.39.03-.29.22-.41.47-.5.11-.04.2-.13.3-.21.15-.12.28-.3.45-.36.98-.39,1.89-.91,2.82-1.41,1.09-.59,1.99-1.41,2.95-2.17.03-.02.06-.05.08-.08.51-.72,1.24-1.21,1.91-1.75.73-.58,1.48-1.14,2.24-1.69.4-.29.84-.52,1.26-.8.81-.54,1.78-.62,2.68-.91.05-.02.1-.04.2-.08ZM48.1,105.8c-.14.02-.28.04-.45.06.2.13.37.24.55.35-.03-.14-.06-.25-.1-.41Z"/>
      <path class="cls-1" d="M36.76,7.56c-.19-.13-.15-.31,0-.45.34-.34.68-.68,1.07-.97.21-.16.56-.33.76-.26.28.09.49.01.73-.02.05,0,.11.05.15.1.62.7,1.25,1.41,1.87,2.11.24.27.47.54.7.8.27-.15.15-.35.12-.52-.04-.24-.12-.48-.19-.71-.01-.03-.04-.07-.07-.09-.35-.21-.43-.58-.6-.91-.13-.27-.4-.48-.6-.72-.16-.19-.37-.33-.36-.63,0-.08-.15-.17-.19-.31.16.05.32.1.48.14.27.06.55.08.82.16.17.05.31.19.47.27.09.05.21.14.29.11.28-.1.49.04.61.23.28.46.5.96.77,1.42.21.36.46.7.69,1.04.03-.02.06-.04.09-.06-.06-.08-.12-.17-.18-.25.15.08.32.1.3.36,0,.13.2.28.31.42.5.62,1.18,1.11,1.43,1.91.2.65.22,1.31.06,1.97-.08.35-.23.7-.29,1.06-.06.35-.09.72-.06,1.07.05.59-.13.89-.66,1.08-.15.06-.26.26-.37.4-.11.14-.19.3-.31.43-.15.16-.31.28-.16.55.07.14,0,.33-.26.26-.04-.01-.1-.01-.14,0-.3.12-.6.31-.91.35-.49.07-1,.12-1.47-.13-.27-.14-.59-.23-.83-.42-.63-.52-1.12-1.14-1.11-2.03,0-.32.04-.59.43-.64-.09.4-.02.53.34.52.1,0,.26-.1.29-.18.07-.17.14-.37-.06-.54-.11-.1-.19-.24-.3-.39-.28.02-.6-.06-.88-.3-.46-.41-.93-.82-1.38-1.23-.19-.18-.37-.37-.54-.57-.07-.08-.09-.2-.14-.32-.36-.11-.38-.52-.56-.8-.06-.09-.12-.18-.18-.27-.04-.07-.09-.14-.12-.21-.07-.16-.1-.37-.22-.48-.18-.17-.11-.35-.09-.53.01-.14.1-.3.06-.42-.08-.25.01-.41.15-.6.09-.14.11-.33.16-.49.03-.1.07-.19.12-.32ZM42.38,12.67c0,.4.12.71.43.94.22.15.46.19.72.01-.08-.09-.14-.16-.2-.23.05-.09.1-.18.15-.26-.53.19-.66-.45-1.11-.46ZM41.74,10.73s-.07-.01-.1-.02c-.03.13-.05.27-.08.4-.06.22.05.52.24.63.18.11.29.07.37-.14-.23-.07-.44-.12-.35-.44.04-.12-.05-.28-.08-.43ZM45.16,11.63c.12.32-.11.77.36,1,.07-.43-.12-.73-.36-1ZM42.7,9.74s.07-.04.11-.06c-.08-.15-.16-.3-.25-.44-.04.02-.07.04-.11.06.08.15.17.3.25.44Z"/>
      <path class="cls-1" d="M12.96,4.43c-.07.12-.14.22-.2.33.13.03.26.05.4.08.15.4-.03.72-.45.84-.4.11-.66.35-.8.77-.16.5-.17.96.03,1.44.11-.21.17-.46.33-.57.16-.11.41-.09.64-.13-.06.56-.4.88-.7,1.22-.03.04-.1.1-.08.13.11.23-.08.35-.17.5-.09.16-.37.19-.52.08-.28-.21-.52-.45-.61-.81-.02-.06-.01-.13-.01-.2,0-.05.03-.12,0-.16-.11-.19-.23-.37-.38-.6-.08.05-.2.11-.32.18-.04.02-.09.04-.13.05-.22.03-.44.06-.66.07-.2,0-.25.1-.19.28.06.19.12.35-.19.38-.18.02-.35.13-.56.22,0,0,.04.08.03.16,0,.07-.06.13-.11.22.23.09.19.27.13.39.07.16.15.25.16.36.04.37.08.75.08,1.13,0,.11-.13.23-.21.33-.08.11-.21.2-.26.33-.2.46-.36.94-.56,1.4-.03.07-.17.14-.25.13-.22-.03-.44-.08-.64-.15-.08-.03-.14-.14-.2-.22-.26-.34-.51-.69-.78-1.05.04-.03.09-.06.16-.1-.04-.02-.06-.05-.08-.05-.23.06-.32-.12-.42-.26-.09-.13-.17-.27-.22-.42-.05-.13-.05-.29-.1-.42-.07-.16-.16-.3-.26-.44-.41-.6-.56-1.25-.52-1.97,0-.1-.09-.21-.14-.32-.09-.21-.24-.42-.23-.63.02-.53.09-1.07.18-1.6.08-.47.05-.97.37-1.39.1-.13.14-.3.19-.46.16-.57.63-.68,1.11-.76.13-.02.28.06.41.12.09.04.17.1.26.15-.03.14-.06.28-.09.42-.45.06-.83.55-.81,1.02.01.19-.08.39-.09.59-.03.39-.05.78-.06,1.17,0,.06.06.13.14.29.2-.36.38-.65.53-.96.14-.29.23-.6.36-.89.16-.35.34-.68.72-.85.15-.07.31-.18.25-.4,0-.04.02-.09.05-.13.36-.5.71-1.01,1.08-1.51.15-.2.3-.41.48-.58.21-.19.45-.34.78-.59-.08-.05-.22-.09-.3-.18-.06-.07-.06-.2-.09-.31.11-.03.23-.1.31-.07.29.11.63.14.83.44.06.09.26.08.4.11.12.03.25.02.36.07.12.06.22.15.33.23-.09.11-.18.23-.29.33-.15.14-.32.27-.49.4.02.03.04.05.05.08.59-.32,1.19-.63,1.8-.96,0,0-.03-.07-.06-.16.45-.04.88-.12,1.3-.1.41.02.82.15,1.23.24,0,.03,0,.07,0,.1-.24.19-.48.38-.75.59.12.03.24.06.36.09.1.03.21.03.3.09.33.21.58.18.8-.12.27-.36.5-.73.3-1.22-.06-.15.06-.17.18-.13.42.13.61.44.64.85.01.16,0,.32.04.48.05-.15.1-.3.14-.45.04-.15.09-.18.26-.13.47.14.6,1.04.34,1.35-.14.16-.27.33-.42.51.17.09.21.19.02.32-.04.02-.04.1-.05.16-.02.34-.04.67-.06,1.01,0,.14-.02.28-.02.45-.05-.02-.15-.07-.26-.08-.1,0-.2.04-.24.05-.31-.2-.57-.41-.87-.55-.19-.1-.29-.2-.26-.37-.14-.01-.29.02-.38-.04-.32-.2-.6-.46-.93-.64-.15-.08-.43-.06-.56.04-.1.07-.08.33-.1.51,0,.04.06.1.06.11-.17,0-.41-.07-.53.01-.41.29-.43.43-.28.76Z"/>
      <path class="cls-1" d="M31.97,64.16c.02.27.08.53.07.8-.05.81-.11,1.62-.18,2.42-.07.7-.17,1.39-.25,2.09-.04.32-.06.64-.1.95-.06.4-.17.79-.21,1.19-.05.43-.04.86-.06,1.29-.02.57-.05,1.13-.06,1.7-.02.73-.03,1.46-.05,2.18-.01.28-.07.56-.09.84-.03.46-.03.91-.07,1.37-.07.81-.13,1.62-.26,2.42-.05.29-.25.54-.16.89.05.21-.11.47-.17.71-.01.04-.03.1-.01.14.19.42.05.86.07,1.29.05.99.03,1.99.05,2.99.01.61.1,1.22.05,1.82-.06.68.29,1.33.11,1.98-.1.35.1.64.02.98-.08.32,0,.68-.02,1.02-.02.53-.01,1.07-.13,1.58-.09.43-.12.86-.11,1.27,0,.53-.15,1.02-.17,1.53,0,.2,0,.4,0,.6-.03.77-.03,1.54-.11,2.31-.04.36.05.69.01,1.04-.04.37-.05.74-.08,1.12,0,.11-.05.22-.09.42-.2-.43-.44-.75-.4-1.17.06-.62-.07-1.21-.17-1.82-.04-.24-.02-.5-.04-.75-.06-.81-.13-1.62-.17-2.43-.02-.33.05-.65.07-.98.01-.31,0-.62.01-.93.02-.39.02-.79.12-1.17.26-1.04.24-2.1.36-3.15.07-.56.03-1.14.07-1.7.03-.53.1-1.06.15-1.59.03-.36.05-.72.07-1.08.02-.36.04-.72.04-1.08,0-.36-.03-.72,0-1.07.02-.41.08-.81.13-1.22.03-.27.08-.54,0-.82-.07-.25-.02-.54-.02-.81,0-.33.03-.66.04-.99.03-.7.05-1.41.08-2.11.03-.73.06-1.45.08-2.18.03-.91.07-1.81.1-2.72.03-.89.04-1.79.11-2.68.04-.51.17-1.02.28-1.52.26-1.28.54-2.56.81-3.84.08-.36.14-.72.22-1.09.03,0,.07,0,.1,0Z"/>
      <path class="cls-1" d="M75.52,79c-.06-.21-.12-.39-.18-.6-.02,0-.1,0-.13-.01-.18-.4-.12-.88-.59-1.09-.04-.02-.08-.1-.06-.14.01-.04.08-.09.13-.09.11,0,.25,0,.33.07.48.37.97.73,1.42,1.13.31.27.57.61.81.94.1.13.2.39.13.47-.09.12-.32.13-.49.19-.03.01-.07,0-.13,0,.08.15.15.27.23.42h-.31c0,.07,0,.13,0,.18-.03.11-.03.25-.1.32-.06.06-.23.07-.31.03-.23-.14-.45-.09-.69-.04-.13.03-.29-.07-.43-.1-.42-.07-.84-.17-1.26-.19-1.33-.08-2.58-.43-3.82-.89-.99-.36-1.92-.84-2.82-1.39-.69-.42-1.4-.83-2.05-1.31-.64-.47-1.33-.84-2.02-1.22-.44-.24-.85-.51-1.27-.78-.73-.46-1.46-.91-2.18-1.38-.55-.36-1.1-.72-1.64-1.1-.26-.18-.5-.39-.77-.61.4.08.79.15,1.17.25.53.13,1.01.33,1.43.72.34.31.82.44,1.23.68.89.52,1.76,1.07,2.65,1.59,1.2.7,2.42,1.37,3.63,2.07.32.18.61.42.93.61.18.11.38.18.58.25.54.18,1.09.35,1.64.51.83.23,1.64.56,2.53.57.45,0,.9.12,1.35.2.41.07.75-.11,1.08-.26Z"/>
      <path class="cls-1" d="M36.1,78.56c.16.62.33,1.25.49,1.87.09.36.2.72.27,1.08.15.71.29,1.42.42,2.13.04.24.03.49.07.74.07.39.18.78.25,1.17.04.23,0,.47.04.7.03.22.11.44.17.66.02.08.08.16.08.24.05.86.26,1.68.52,2.49.11.36.19.73.26,1.1.03.17.01.35.02.52.02.33.05.67.08,1,0,.05.05.09.08.14.02.04.08.08.08.11-.07.53.12,1.02.19,1.53.06.41.26.81.24,1.21-.01.32.22.53.2.84-.03.41,0,.83.04,1.25.03.29.13.57.19.85.04.17.08.35.11.52.05.24.1.47.13.71.03.2.05.4.03.6-.02.19.1.76.18.86-.03.21-.04.38-.07.53-.04.17-.07.36-.16.51-.05.08-.25.15-.32.11-.1-.05-.18-.2-.19-.32-.05-.32-.05-.65-.09-.97-.01-.12-.08-.23-.11-.35-.03-.13-.03-.27-.04-.4,0-.08.02-.18,0-.25-.26-.53-.25-1.12-.37-1.68-.04-.17-.09-.34-.15-.51-.03-.09-.07-.18-.13-.34.12.05.17.08.32.14-.13-.54-.22-1-.34-1.46-.29-1.04-.62-2.07-.87-3.11-.16-.68-.23-1.39-.32-2.09-.06-.45-.06-.92-.12-1.37-.06-.47-.18-.94-.25-1.41-.05-.34-.04-.68-.09-1.02-.05-.43-.08-.86-.33-1.24-.04-.06,0-.15-.02-.23-.02-.1-.05-.2-.08-.3-.01-.03-.06-.07-.05-.09.1-.22,0-.42-.05-.63-.1-.48-.17-.97-.22-1.46-.03-.33.01-.66-.01-.99-.03-.42,0-.84.04-1.26.01-.15-.07-.33-.07-.52-.01-.49-.1-.98-.16-1.47,0-.05.03-.1.04-.16.02,0,.05,0,.07,0Z"/>
      <path class="cls-1" d="M35.76,20.8c-.04-.54-.06-1.09-.13-1.63-.02-.17-.18-.36-.33-.45-.36-.2-.75-.36-1.14-.52-.44-.18-.9-.31-1.34-.5-.35-.15-.47-.49-.26-.75.14-.17.37-.27.56-.38.15-.08.32-.13.46-.21.18-.11.18-.33-.01-.44-.13-.07-.28-.14-.42-.15-.4-.03-.72-.16-.87-.56-.1-.26-.19-.52-.29-.8.24-.1.48-.17.67-.3.27-.19.53-.4.75-.64.18-.2.35-.43.45-.68.05-.12-.06-.31-.11-.47-.07-.21-.05-.36.16-.49.26-.16.42-.14.73.1.18.14.38.28.58.39.12.06.28.01.23-.17-.04-.16-.11-.34-.22-.46-.31-.32-.66-.6-.98-.91-.25-.23-.53-.18-.82-.13-.16.03-.36.4-.35.57,0,0,0,.02,0,.02.01.23.05.47.05.69,0,.43-.15.83-.47,1.12-.41.38-.94.55-1.46.72-.05.28-.05.56,0,.84.06.32.19.58.35.86.15.26.28.53.29.84,0,.19-.03.37-.04.56-.01.21-.01.42-.04.63-.01.1-.05.19-.11.26.16.38.41.7.8.9.22.11.47.16.71.23.09.03.19.03.29.05.3.04.61.09.91.13.16.02.32.05.48.05.61-.03.87.3.8.89-.03.25-.12.56.12.8Z"/>
      <path class="cls-1" d="M38.02,5.19c-.61-.12-1,.3-1.49.5,0,.02.02.05.02.07-.06-.03-.11-.05-.18-.08-.02.04-.03.06-.04.09-.02.08,0,.17-.04.23-.2.36-.41.69-.41,1.14,0,.36-.16.72-.25,1.08-.07.3-.16.59-.23.88-.07.3-.12.61-.21.9-.09.31-.33.07-.47.07-.3-.02-.39-.31-.38-.56.02-.47.07-.94.15-1.4.1-.54.26-1.07.39-1.6.02-.07.02-.14-.04-.25-.07.06-.16.11-.21.19-.3.51-.63,1.01-.88,1.55-.21.43-.43.9-.47,1.37-.03.34-.22.56-.29.87-.26-.16-.41-.33-.45-.59-.08-.48-.02-.94.17-1.4.09-.21.06-.48.13-.71.19-.66.32-1.35.74-1.91.37-.49.87-.76,1.5-.81.35-.03.71-.18,1.04-.33.21-.09.38-.16.61-.05.36.18.79.2,1.1.49.07.06.14.12.21.17,0,.02-.02.05-.03.07Z"/>
      <path class="cls-1" d="M38.82,102.22c-.18.2-.32.35-.46.51-.02.02-.03.06-.06.06-.47.11-.94.27-1.43.32-.4.04-.82-.09-1.22-.08-.59.02-1.17.12-1.75.14-.27,0-.55.15-.83.01-.05-.02-.14.07-.22.09-.31.08-.62.15-.93.24-.07.02-.13.08-.17.13-.26.32-.72.26-1.01.59-.2.23-.61.33-.93.19-.12-.05-.14-.32-.21-.5,0,0,0-.02,0-.03.01-.19-.04-.42.06-.55.07-.09.34-.01.51-.06.2-.05.44-.06.46-.38,0-.08.22-.17.35-.21.49-.15.98-.3,1.48-.43.13-.04.32-.07.41,0,.29.18.43-.05.59-.18.25-.19.31-.15.56.03.17.12.46.12.69.11.42-.03.82-.16,1.25,0,.15.06.35-.04.52-.06.26-.02.52-.04.78-.05.21,0,.43-.02.64,0,.32.02.63.07.92.11Z"/>
      <path class="cls-1" d="M18.89,38.58c-.25-.11-.44-.18-.61-.28-.39-.23-.77-.48-1.16-.72-.24-.15-.51-.26-.74-.42-.2-.13-.31-.33-.27-.59.02-.11,0-.23-.03-.34-.18-.8-.37-1.59-.71-2.34-.14-.3-.19-.64-.3-.96-.09-.26-.23-.51-.3-.78-.07-.27-.23-.52-.15-.85.04-.17-.11-.41-.2-.6-.16-.33-.23-.7-.56-.94-.21-.16,0-.32.12-.44.13-.13.26-.12.36.04.12.2.22.4.33.6.12.22.26.44.35.67.17.41.32.82.48,1.23.08.21.16.43.27.63.3.56.51,1.15.67,1.76.04.14,0,.3.03.44.11.45.24.89.36,1.34.03.12.04.25.08.37.04.1.09.22.17.28.38.24.77.46,1.16.69.43.25.61.64.66,1.21Z"/>
      <path class="cls-1" d="M37.59,51.72c-.15.06-.4-.06-.43.23,0,.02-.14.03-.21.04-.22.03-.43.05-.65.08-.05,0-.1.02-.14.01-.6-.15-1.18-.12-1.78.06-.49.15-1,.24-1.51.29-.39.04-.79-.07-1.18-.02-.56.07-.82-.29-1.11-.63-.04-.04-.02-.16.02-.22.02-.04.14-.06.19-.04.53.28,1.1.2,1.66.23.17,0,.34-.01.51-.05.04,0,.09-.18.08-.18-.1-.06-.2-.1-.31-.15-.06-.02-.15-.02-.17-.05-.02-.06-.02-.16.02-.2.09-.1.2-.23.31-.24.35-.03.7-.02,1.05,0,.32.01.63.04.95.07.36.04.73.06,1.09.13.28.05.44-.06.57-.27.21-.33.52-.41.87-.33.09.02.22.15.23.23.02.25.12.51-.08.74-.04.05.01.17.02.29Z"/>
      <path class="cls-1" d="M19.28,41.69c-.19-.12-.37-.24-.58-.38.4-.46.87-.61,1.39-.65,1.24-.1,2.36.29,3.44.84.42.21.85.37,1.28.57.15.07.28.19.42.28.64.41,1.31.8,1.93,1.25.47.34.88.77.96,1.39.02.11-.05.26-.12.36-.02.03-.2,0-.28-.06-.36-.25-.7-.52-1.05-.79-.11-.09-.22-.19-.34-.26-.29-.14-.53-.29-.72-.59-.15-.24-.45-.39-.69-.57-.31-.23-.62-.46-.95-.66-.48-.3-.94-.63-1.5-.75-.55-.12-1.04-.39-1.56-.58-.23-.09-.5-.08-.75-.06-.18,0-.35.12-.52.14-.27.04-.41.14-.29.45-.02.02-.05.04-.07.06Z"/>
      <path class="cls-1" d="M17.77,66.18c-.1.06-.2.13-.31.17-.23.08-.46.16-.51.45,0,.05-.08.12-.14.14-.4.12-.79.25-1.19.35-.42.1-.84.17-1.26.24-.25.04-.51.02-.76.04-.31.03-.61.07-.92.1-.53.04-1.06.07-1.6.11-.27.02-.55.06-.82.07-.09,0-.19-.08-.28-.12.07-.05.14-.11.21-.14.43-.18.85-.38,1.29-.54.29-.11.6-.19.91-.25.91-.16,1.83-.32,2.75-.44.27-.04.55.04.82.03.36-.02.71-.06,1.07-.11.25-.03.49-.08.74-.13,0,.01,0,.03.01.04Z"/>
      <path class="cls-1" d="M35.86,46.77c.37.13.76.27,1.16.4.27.08.55.14.83.2.74.17,1.52.24,2.14.76.31.26.27.51-.09.66-.28.12-.55.05-.79-.13-.17-.12-.38-.21-.58-.25-.5-.11-1.01-.2-1.51-.29-.52-.09-1.04-.18-1.57-.25-.28-.04-.56-.01-.85-.02-.09,0-.19-.02-.28-.06-.16-.07-.18-.18-.02-.27.33-.19.66-.39.99-.56.16-.08.34-.11.56-.18Z"/>
      <path class="cls-1" d="M38.61,49.93c-.11.07-.22.2-.34.22-.5.06-1,.1-1.51.11-.56.02-1.07.24-1.62.3-.42.05-.83,0-1.22-.2-.04-.02-.09-.1-.08-.12.03-.06.09-.12.15-.15.24-.12.48-.22.72-.33.45-.22.93-.37,1.43-.42.3-.03.61,0,.92,0,.27,0,.47-.1.69-.27.15-.12.41-.17.61-.15.23.03.44.16.65.27.05.03.1.16.08.22-.05.15-.13.29-.21.43-.08.16-.19.16-.27.11Z"/>
      <path class="cls-1" d="M17.12,8.12s.03-.02.04-.03c.09-.09.02-.33.02-.46.11-.24.3-.46.31-.68.02-.32-.08-.65-.15-.97-.02-.08-.12-.22-.17-.21-.2,0-.4.04-.59.11-.14.04-.11.15-.08.29.06.32.04.65.05.98,0,.04-.07.08-.11.12-.27.29-.62.25-.96.2-.31-.04-.58.15-.61.42-.05.37.05.51.45.58.09.02.19.03.28.04.19.03.35.08.51-.14.08-.11.36-.09.54-.13.15-.03.34-.04.46-.1.01,0,.02-.02.04-.02Z"/>
      <path class="cls-1" d="M6.63,21.14c.19.02.37.04.56.07.04,0,.09.02.13.04,1.1.75,2.04,1.67,2.82,2.74.24.33.5.64.75.96-.03.03-.06.07-.08.1-.15-.09-.33-.16-.45-.28-.42-.45-.8-.93-1.22-1.39-.26-.28-.54-.55-.84-.78-.32-.25-.68-.46-1.01-.7-.22-.15-.42-.32-.63-.49.1.05.2.1.35.17-.16-.2-.26-.32-.36-.45h0ZM7.15,21.55s-.05.07-.08.11c.23.13.47.26.7.39.01-.02.03-.04.04-.06-.22-.15-.44-.29-.66-.44Z"/>
      <path class="cls-1" d="M10.79,11.29c-.1.15-.16.25-.23.36.01.02.04.05.05.09.02.1.03.2.05.3-.11-.02-.22-.03-.34-.05-.02,0-.04-.06-.06-.06-.53-.03-.71-.4-.84-.85-.07-.25-.28-.48-.28-.72,0-.37.1-.74.19-1.1.01-.05.21-.13.26-.09.09.05.17.18.19.29.03.21,0,.44.03.65.08.42.18.84.27,1.22.24-.01.43-.02.7-.03Z"/>
      <path class="cls-1" d="M4.67,19.09c.04.08.11.16.13.25.02.07-.01.16-.05.22-.02.02-.15,0-.19-.04-.41-.54-.29-1.57.31-1.91.25-.14.46-.09.68.19.17.22.14.33-.1.56-.19.18-.34.4-.52.59-.06.07-.17.09-.27.14Z"/>
      <path class="cls-1" d="M40.53,103.95c-.1.03-.18.06-.26.08.02.02.03.03.05.05-.05.06-.1.17-.17.19-.25.05-.51.1-.6-.26-.01-.06-.15-.08-.2-.14-.06-.07-.14-.16-.14-.25,0-.05.12-.13.2-.15.43-.11.91.09,1.12.48Z"/>
      <path class="cls-1" d="M6,20.62c.14.11.29.21.42.32.07.06.13.14.2.2,0,0,0,0,0,0-.14-.06-.29-.12-.43-.18,0,.02-.01.05-.02.07l.42.36c-.62-.29-1.24-.58-1.87-.88,0-.01,0-.03,0-.04h.7s.05.06.07.1c-.08.03-.17.06-.25.09.02.04.03.08.05.11.22-.25.46-.23.71-.14h0Z"/>
      <path class="cls-1" d="M6.01,20.63c-.35-.16-.71-.31-1.07-.48.11-.08.19-.21.37-.02.09.1.3.1.44.17.31.16.62.33.92.51.08.04.13.13.21.22-.32-.15-.6-.28-.88-.41,0,0,0,0,0,0Z"/>
    </g>
  </g>
</svg>