<?xml version="1.0" encoding="UTF-8"?>
<svg id="Layer_2" data-name="Layer 2" xmlns="http://www.w3.org/2000/svg" viewBox="0 0 71.18 123.17">
  <defs>
    <style>
      .cls-1 {
        fill: #000;
        stroke-width: 0px;
      }
    </style>
  </defs>
  <g id="illustrations">
    <g>
      <path class="cls-1" d="M45.46,44.71l.58.13s.02-.04.02-.06c-.05-.07-.1-.14-.14-.2.1-.11.18-.21.24-.28-.03-.25-.06-.47-.09-.68.1-.01.13-.07.17-.25.1-.45.3-.89.42-1.33.12-.42.19-.86.3-1.29.07-.26.17-.51.25-.77.11-.35.2-.71.31-1.06.04-.14.12-.27.17-.41.01-.03-.02-.09-.04-.15.15-.11.26-.53.16-.67.17-.12.33-.25.56-.42-.15-.05-.2-.07-.25-.09,0-.02,0-.04.02-.05.15-.1.24-.23.15-.41-.17-.33.01-.63.09-.93.19-.74.47-1.45.87-2.11.13-.21.15-.38-.13-.51-.4-.19-.79-.43-1.18-.65-.09-.05-.18-.11-.27-.18-.24-.17-.46-.38-.72-.51-.72-.35-1.27-.88-1.79-1.48-.29-.33-.47-.7-.6-1.1-.05-.14-.05-.36.03-.45.08-.1.29-.13.44-.12.21.02.41.13.62.17.16.03.33.04.48.01.81-.15,1.62-.33,2.43-.48.23-.04.25-.16.23-.35-.07-.49-.11-.99-.23-1.47-.04-.19-.23-.36-.38-.49-.5-.42-1.04-.77-1.64-1.04-.42-.19-.75-.55-1.13-.83-.16-.12-.29-.33-.56-.27.03.16.05.3.07.45,0,0-.02,0-.03.01-.03-.09-.06-.18-.09-.27-.04.04-.07.07-.11.11-.03.09-.05.17-.08.26.08.01.34-.11.13.17-.03.04-.01.12,0,.19.01.33.04.66.03.99,0,.12-.06.23-.04.35-.03.25-.06.51-.08.76-.02.27-.03.55-.04.81.06.23.12.47.17.7-.11.06-.23.14-.36.22-.03.28-.05.56-.09.88-.09.06-.24.17-.1.38,0,.01,0,.04,0,.06-.11.34-.28.66-.32,1.01-.17,1.38-.63,2.69-.98,4.02-.1.37-.09.73-.11,1.09-.01.2-.13.39-.17.59-.11.54-.21,1.09-.33,1.63-.04.18-.1.36-.33.42-.07.02-.12.13-.17.2-.06.08-.11.17-.17.26.06.04.15.09.24.15-.05.08-.11.16-.13.2.03.1.05.18.08.28-.13,0-.21.01-.29.02,0,.01,0,.02,0,.03.07.02.13.05.2.07-.02.19-.05.37-.07.56-.1-.05-.21-.1-.39-.19.18.21.34.34.41.5.03.07-.12.22-.18.31,0,.09.04.2,0,.29-.04.1-.1.17-.04.3.04.09-.1.25-.07.34.07.21-.11.31-.13.46-.02.17.04.37-.16.48-.02,0-.02.07,0,.1.12.27-.07.25-.25.3.07.02.15.04.29.07-.05.09-.1.17-.14.24,0,.01-.03.02-.04.03.32.32-.34.55-.09.88.01.02-.02.06-.03.09-.12,0-.24-.02-.42-.03.11.21.47.2.33.47-.08.16-.19.31-.3.48.04.02.09.05.17.09-.08.09-.14.16-.2.23.25.24.24.26-.02.49-.05.04-.09.11-.14.17-.08-.01-.18-.03-.28-.04,0,.01,0,.03-.01.04.14.07.28.13.44.21-.05.24-.06.5-.16.72-.09.19-.27.33-.42.49.01.02.03.03.04.05.07-.04.15-.08.22-.12.02.01.05.02.07.03-.04.09-.08.18-.14.3q.14.35-.44.52c.18.01.29.02.4.02-.01.08-.03.18-.05.28-.1,0-.2.01-.3.02,0,.02,0,.04-.01.07.07.05.14.09.2.15.04.04.09.12.08.17-.01.05-.08.1-.14.13-.08.05-.17.08-.3.14.43.21.43.31.1.55.03.18.06.35.09.51-.12.07-.23.11-.31.19-.05.05-.11.19-.08.23.13.2-.02.25-.17.34.08.05.14.09.27.17-.17.16-.33.3-.48.44.07.09.18.18.25.3.02.04-.05.16-.11.2-.17.11-.19.2-.07.28-.04.17-.07.3-.11.44-.02,0-.08,0-.15-.02.32.3.04.45-.08.66.02.02.09.07.11.08-.02.15-.03.26-.06.37-.01.05-.05.1-.08.15-.03.06-.1.14-.09.18.12.23-.07.28-.21.35.24.19.17.4-.16.66-.03.21-.05.38-.07.59.11.07.05.14-.05.31-.16.27-.21.61-.32.92-.03.09-.07.17-.12.28.01.01.06.07.11.13-.03,0-.06,0-.09-.01-.07.15-.17.29-.19.45-.05.32-.04.65-.08.98,0,.08-.06.18-.13.24-.28.25-.15.61-.26.91-.12.35-.13.74-.2,1.11-.11.57-.24,1.14-.36,1.72-.08.43-.14.86-.23,1.28-.04.21-.12.42-.16.63-.02.16.02.32,0,.48-.01.1-.09.18-.16.31,0,0,.06.05.12.11-.09.11-.16.2-.26.32.07.03.12.05.18.08-.27.17-.25.41-.25.69-.07.22-.16.48-.25.75-.07.2-.15.39-.21.59-.01.05.03.11.06.22-.07.26-.16.59-.23.92-.01.04.02.12.06.15.17.16.17.57,0,.71-.05.04-.14.01-.22.02q-.08.27.08.27c-.01.38-.42.7-.18,1.06-.1.16-.22.28-.25.42-.08.33-.11.66-.19.99-.06.25-.14.5-.21.75-.12.39-.25.79-.37,1.18-.12.39-.24.79-.35,1.19-.02.07,0,.16-.01.24-.01.07-.05.14-.07.22-.01.03-.04.07-.04.1.02.34.06.68.06,1.02,0,.35-.06.7-.07,1.05,0,.13.09.28.07.41-.05.37-.11.74-.21,1.09-.17.57-.37,1.12-.16,1.72.02.05,0,.1-.02.24-.13-.17-.22-.28-.3-.39-.18.26-.23.8-.09.92.12-.14.24-.28.37-.44.44.54,1.04.74,1.6,1,.47.22.81.59,1.1,1.02.13.19.04.65-.15.78-.43.29-.66.74-.92,1.16-.18.29-.34.37-.68.35.02.06.05.13.08.21-.06.01-.1.03-.14.03-.54-.02-.85-.39-1.13-.79-.14-.2-.31-.38-.47-.57-.02,0-.05.02-.07.03.02.21.04.41.07.62.07.49.19.98.22,1.47.04.59,0,1.19.01,1.79,0,.11.05.22.06.33.01.24.02.49.02.73,0,.04-.02.08-.01.13.02.33.04.66.07.99.02.16-.11.37.15.46.02,0,.02.08.01.13-.04.69-.08,1.37-.12,2.06,0,.04,0,.07,0,.11.21.79.11,1.6.21,2.4.03.26.11.51.16.77.07.37.15.74.22,1.11.13.72.25,1.45.38,2.17.25,1.4.64,2.76,1.32,4.02.37.68.62,1.42.93,2.13.19.43.43.84.59,1.27.45,1.19,1.15,2.25,1.77,3.35.22.39.31.84.52,1.24.22.41.49.8.77,1.17.38.5.78.97,1.19,1.45.46.54,1.06.87,1.72,1.13.17.07.34.15.48.26.44.35.94.24,1.43.22.5-.02.99-.06,1.48-.1.43-.04.87-.09,1.3-.13.03,0,.06-.02.08-.01.61.1,1.06-.27,1.56-.51.5-.24,1.02-.46,1.55-.65.83-.31,1.68-.57,2.45-1.04.36-.22.78-.34,1.17-.52.16-.08.33-.18.44-.31.48-.6,1.16-.88,1.81-1.23.14-.08.25-.19.38-.29.35-.27.7-.55,1.05-.81.14-.11.23-.2.28-.41.06-.27-.03-.59.21-.83.05-.05,0-.2,0-.3-.02-.26-.05-.51-.08-.77,0-.03.02-.06,0-.08-.26-.42-.1-.94-.31-1.37-.03-.07-.11-.12-.16-.18.03-.04.11-.09.11-.13,0-.27-.02-.54-.04-.81-.04-.55-.08-1.1-.13-1.64-.01-.14-.05-.27-.08-.41-.02-.09-.05-.19-.03-.26.08-.22.04-.36-.22-.4h.24c-.11-.59-.28-1.15-.31-1.71-.03-.55-.13-1.13.1-1.61-.05-.17-.13-.31-.13-.45-.01-.45,0-.9,0-1.35,0-.67,0-1.33.01-2,0-.39.09-.8.01-1.18-.15-.73.11-1.4.16-2.09.03-.44.1-.89.1-1.33-.01-1.11-.06-2.22-.1-3.33,0-.25-.08-.49-.12-.73-.03-.15-.12-.2-.26-.15-.63.19-1.25.39-1.88.56-.21.06-.44.05-.67.08-.14.02-.31,0-.41.09-.23.18-.47.13-.72.15-.45.04-.89.16-1.33.24-.16.03-.33.05-.5.08-.29.05-.57.12-.86.16-.82.14-1.61.42-2.46.39-.25,0-.5.13-.74.19-.06.01-.11.02-.2.03.04-.2.16-.47-.22-.29,0,0-.16-.14-.25-.01-.28-.19-.36-.41-.23-.73.08-.18.08-.39.12-.59.04-.16.12-.26.32-.27.57-.02,1.14-.03,1.7-.09,1.03-.11,2.05-.24,3.08-.38.95-.13,1.9-.29,2.85-.45.57-.1,1.13-.23,1.7-.34.3-.05.61-.08.92-.12.08-.01.15-.04.22-.05-.05-.32-.31-.57-.23-.94-.01-.02-.1-.08-.11-.15-.09-.61-.16-1.23-.23-1.84-.05-.38-.13-.75-.13-1.13,0-.27.04-.51-.16-.76-.12-.14.01-.31.23-.36-.08-.15-.16-.27-.21-.36.05-.09.11-.17.13-.25,0-.02-.1-.07-.16-.12.03-.02.09-.06.14-.1-.15-.19-.09-.39.15-.55-.21-.15-.25-.52-.08-.72-.14-.24-.19-.31.16-.47-.53,0-.09-.38-.29-.53.09.01.13.02.2.02-.05-.16-.08-.31-.12-.44.06-.17.11-.34.17-.52-.24-.1-.24-.12-.08-.27.11-.53.2-.99.3-1.46-.03-.01-.11-.05-.18-.07.02-.23.04-.44.06-.67-.04-.02-.11-.05-.18-.09.08-.16.13-.36.26-.47.12-.11.32-.13.54-.2-.13-.03-.21-.05-.29-.06-.28-.03-.38-.16-.27-.44.2-.49.16-1,.21-1.51.02-.21-.07-.43-.11-.67.06-.05.15-.12.24-.19-.09.12.1.28-.07.37.06.11.12.23.19.34.02,0,.04-.02.07-.03v-.79s-.1-.02-.2-.04c.14-.09.26-.17.37-.24,0-.02-.02-.04-.03-.06h-.41c.46-.29.31-.7.42-1.06-.12-.01-.2-.02-.3-.04.11-.09.27-.14.29-.23.03-.13-.02-.29-.05-.44,0,0,.07-.01.1-.01v-1.25s-.1-.02-.21-.04c.1-.05.17-.08.27-.13-.12-.06-.19-.09-.33-.16h.35v-1.19h-.28c.13-.09.21-.14.31-.21-.09-.16-.18-.31-.28-.47.2-.3.21-1.2,0-1.37.08-.14.15-.28.24-.44-.07-.01-.13-.02-.2-.03.05-.11.1-.21.15-.31-.04-.03-.08-.06-.15-.12.1-.07.18-.13.25-.18-.02-.01-.09-.05-.15-.08.2-.25.19-.3-.02-.34.04-.09.07-.18.11-.26.04-.09.09-.18.14-.29,0,0-.05-.03-.09-.06.09-.02.17-.05.25-.07,0-.02,0-.04,0-.07-.1,0-.2-.01-.26-.02v-.67c.12.05.2.07.3.11.02-.07.05-.14.08-.24-.13.02-.22.03-.38.05.03-.2.06-.37.1-.57,0,0-.06-.04-.14-.08.1-.05.17-.1.27-.16-.07-.04-.11-.07-.16-.1.24-.3.2-.83-.1-1.05.3-.21.36-.52.4-.87-.12,0-.21-.01-.31-.02,0-.03,0-.06,0-.08.09,0,.18-.01.28-.02.03-.44.07-.9.1-1.36-.1-.05-.21-.1-.32-.15,0-.02,0-.04.01-.06.1,0,.2-.02.29-.03.04-.28.11-.58.12-.87,0-.11-.11-.22-.18-.34.18-.05.21-.16.23-.35.04-.44-.04-.87,0-1.31.01-.1.08-.19.13-.28-.11-.26-.02-.57.01-.87.03-.3.04-.61.06-.93-.06.02-.13.03-.2.05,0-.02-.02-.03-.02-.05.1-.05.2-.09.32-.15-.13-.22.29-.68-.32-.7,0-.02.01-.05.02-.05.27.04.36-.03.36-.34,0-.5.06-1.01.15-1.5.05-.31-.08-.66.18-.94.04-.04-.03-.16-.01-.24.06-.32.15-.64.19-.97.02-.11.15-.21.21-.29v-.73s.06.01.11.02c-.11-.36-.09-.44.19-.64.02-.23.03-.43.05-.63.08,0,.14,0,.27.01-.14-.08-.22-.13-.3-.17.09-.23.18-.44.28-.68-.02-.01-.07-.05-.15-.11.28-.19.27-.47.24-.77-.02-.16.08-.32.11-.49.01-.08-.01-.16-.02-.3.03-.02.11-.08.22-.17-.08-.03-.13-.05-.18-.07.08-.09.15-.18.27-.33-.14.02-.21.02-.3.04.13-.18.25-.33.36-.49-.01-.02-.03-.03-.04-.05-.08.04-.15.08-.27.15.03-.08.03-.14.05-.15.29-.12.29-.38.34-.63.09-.37.22-.72.31-1.08.07-.27.09-.55.17-.82-.02,1.8-.49,3.55-.71,5.33.03,0,.05.02.08.02-.06.04-.13.08-.21.13.05.08.09.15.13.21-.06.16-.32.28-.13.47-.08.22-.15.42-.23.63.02,0,.07.02.14.03-.09.19-.18.36-.28.56.02.03.26.01.07.23-.06.07-.02.32-.07.49-.04.14,0,.31-.03.46-.02.07-.13.12-.22.19.22.14.23.36.2.62-.07.52-.12,1.05-.16,1.58-.02.19.03.39,0,.58-.06.54-.04,1.07,0,1.6,0,.06-.03.12-.06.17-.18.32-.3.76-.14.96-.05.26-.08.46-.12.67.02,0,.04.01.07.02-.07.04-.13.08-.22.13.07.06.13.1.12.09,0,.43.03.82,0,1.21-.04.39-.14.77-.21,1.15-.03.15-.06.31-.08.47-.05.5-.04,1.02-.17,1.5-.16.64,0,1.28-.07,1.92-.06.47.05.95.04,1.42,0,.3-.1.6-.11.9-.02.32.01.65,0,.97-.01.33-.06.65-.09.98,0,.03-.03.05-.02.08.1.59-.08,1.17-.01,1.76.02.21.05.42.06.64,0,.07-.03.14-.05.25.17.22.08.68-.22.92.07.07.14.13.24.21-.07.02-.13.04-.13.04-.07.39-.13.75-.19,1.11.04.12.18.25-.07.41-.03.02.02.15.03.25-.06.05-.14.1-.19.15.06.2.2.41.15.54-.18.39-.08.8-.16,1.22-.08-.05-.13-.08-.27-.17.19.34.54.64,0,.9.08.04.14.08.26.14-.11.09-.2.17-.3.26.05.15.11.29.19.52-.1.08-.25.2-.4.33.19.19.19.24-.06.34l.13-.13c.1.13.2.26.3.39-.03.03-.05.07-.08.1-.08.01-.16.02-.23.03.06.08.12.15.17.24.01.02,0,.09-.03.11-.09.08-.09.08,0,.2.02.03.03.09.02.12-.06.17-.13.34-.2.53-.03-.02-.08-.05-.14-.09-.02.11-.04.2-.05.3.08.01.14.02.21.04-.04.03-.1.05-.13.09-.03.04-.03.09-.04.14-.07.3-.14.59-.21.89,0,.02-.02.03-.02.05.07.31,0,.61-.03.92-.06.64.03,1.3-.13,1.94-.03.14,0,.3.03.44.01.05.1.09.12.11-.03.1-.07.21-.08.33-.02.19-.03.39-.04.58,0,.07.02.18.06.2.25.12.19.33.19.54,0,.3-.01.6.04.89.03.16.18.29.3.47h-.4c.1.19.08.63-.05.86.11.03.21.04.31.08.09.04.17.11.26.17-.06.06-.12.13-.2.18-.04.03-.09.03-.22.07.19.02.3.03.41.06.1.03.19.08.28.13-.09-.32-.17-.61-.26-.9.02-.02.05-.05.07-.07.02.05.02.1.05.14.4.72.47,1.51.41,2.32-.01.17-.09.34-.16.51-.13.3-.13.61-.02.94.03,0,.08,0,.17,0-.06.11-.1.19-.16.31.1-.04.18-.06.31-.11-.04.13-.06.22-.1.33.05,0,.1.02.11.02.07.33.13.65.19.97,0,0-.01,0-.02,0,.02.15.05.29.05.44,0,.13-.02.27-.03.41.03.01.06.02.09.04-.07.05-.13.11-.21.17.17.09.32.15.14.41-.09.14.01.4.02.61.01.43.02.86.04,1.28,0,.11.06.21.07.32.09.57.18,1.13.25,1.7.08.65.12,1.31.22,1.96.06.44.23.86.28,1.3.07.62.07,1.24.11,1.86.03.46.09.92.1,1.38.02.66,0,1.32,0,2.05-.14-.08-.18-.1-.23-.13-.06.08-.13.16-.19.24.34-.78.15-1.58.12-2.36-.03-.98-.09-1.96-.18-2.94-.06-.7-.21-1.4-.3-2.1-.09-.75-.15-1.5-.24-2.26-.02-.16,0-.36-.27-.49.01.18.05.32.01.42-.03.08-.17.11-.29.18.08.02.17.05.35.1-.11.07-.18.15-.27.17-.24.06-.33.18-.32.44.01.37-.04.75-.07,1.12,0,.14-.01.28-.02.43,0,.09,0,.19-.05.25-.11.18-.14.33.12.43-.1.09-.17.16-.28.26h.31c-.07.09-.11.15-.17.24.11.07.21.15.33.23-.18.1-.35.19-.21.47.06.11-.03.3-.06.49,0,.04.05.13.04.22-.03.27.14.54-.08.81-.05.06.07.25.09.38.01.13-.01.26-.06.39.08.18.13.34.08.59-.09.43-.04.89-.05,1.34,0,.14-.04.28-.06.43-.06.03-.14.07-.21.11,0,.03.01.05.02.08.13-.03.25-.06.38-.1-.03.11-.1.22-.07.29.02.06.16.07.27.11-.08.02-.15.05-.27.08.04.17.12.34.1.5-.03.29-.1.58.02.86-.29.12-.02.26,0,.39,0,.08.02.16.02.24.01.38.03.76.03,1.14,0,.09-.05.19-.08.28.23.07.31.29.23.56-.03.11-.01.23,0,.34,0,.05.05.11.04.16-.02.18-.02.35.12.49.03.03,0,.12,0,.18,0,0,0,0,0,0-.01.02-.04.05-.04.05.16.2.21.44.12.67-.03.09.18.27-.09.27.04.06.06.16.12.19.19.09.38.15.57.23.03.01.09.03.08.03-.02.26.23.33.37.53-.1.05-.19.08-.27.12-.16.08-.32.15-.46.24-.03.02-.02.13,0,.19.05.14,0,.19-.14.22-.09.02-.21.07-.25.15-.2.39-.49.69-.88.88-.39.19-.74.38-.95.79-.12.23-.38.39-.58.58-.15.15-.33.29-.44.46-.21.32-.53.33-.85.39-.12.02-.25.06-.35.14-.63.48-1.25.97-1.94,1.37-.99.57-2.02,1.06-3.05,1.56-.5.25-1,.49-1.51.72-.09.04-.21,0-.32,0-.08,0-.16.02-.24.04-.52.16-1.04.33-1.6.24-.24-.04-.49.01-.73.01-.13,0-.27,0-.4-.03-.43-.09-.85-.21-1.25-.4-.54-.25-1.12-.39-1.67-.61-.42-.16-.85-.33-1.23-.57-.47-.3-.85-.71-1.16-1.19-.33-.52-.68-1.03-.99-1.56-.11-.18-.14-.41-.23-.59-.08-.1-.16-.19-.23-.29-.12-.19-.23-.38-.34-.57-.17-.32-.32-.64-.49-.96-.09-.16-.18-.32-.32-.45.03.37.08.74.09,1.11.02.6.02,1.21.04,1.81.01.34.07.68.06,1.01,0,.63-.06,1.27-.06,1.9,0,.84.03,1.68.05,2.51.01.43.03.85.03,1.28,0,.62,0,1.24,0,1.88h-1.6c0-.28,0-.57,0-.85.02-.53.08-1.06.08-1.58,0-.52,0-1.05-.08-1.57-.06-.44.03-.86,0-1.29-.05-.62-.03-1.24-.08-1.86-.03-.46-.14-.91-.16-1.37-.04-.82-.05-1.65-.06-2.48,0-.3,0-.6.02-.9.02-.35.31-.49.55-.66.03-.02.15.05.2.1.11.1.2.21.34.28-.03-.17-.1-.31-.23-.42-.08-.07-.1-.21-.12-.32-.03-.18.02-.4-.25-.45-.01,0-.02-.03-.03-.04-.1-.27-.2-.55-.3-.84-.02,0-.07.02-.12.03-.11-.24-.17-.48-.04-.73.02-.03,0-.11-.01-.12-.04-.01-.09,0-.14,0-.07,0-.18,0-.19-.04-.07-.17-.11-.36-.16-.54-.02-.06-.03-.11-.06-.17,0-.02-.06-.04-.06-.05.06-.25-.05-.47-.12-.7-.09-.27-.09-.58-.15-.86-.07-.27-.18-.53-.25-.8-.01-.04.04-.1.06-.16.03-.11.11-.23.09-.33-.12-.49-.27-.98-.42-1.46-.03-.1-.1-.19-.18-.34-.07.15-.11.23-.15.32-.05-.04-.1-.07-.13-.09-.2.14-.4.28-.56.4-.2-.11-.38-.19-.53-.31-.15-.12-.28-.27-.42-.4.02.19.05.41.05.63,0,.16-.06.32-.1.48-.06.25-.13.5-.2.75-.18.66-.35,1.32-.53,1.98-.05.18-.15.34-.22.51-.21.52-.42,1.04-.62,1.56-.02.06.01.14.02.24-.09.15-.22.35-.34.55.02.02.03.03.05.05.05-.03.1-.06.15-.09.01.01.03.03.04.04-.13.15-.28.29-.38.45-.18.27-.37.55-.51.85-.2.43-.35.88-.54,1.31-.25.6-.7,1.04-1.13,1.51-.65.7-1.33,1.39-1.88,2.16-.37.51-.89.77-1.33,1.16-.13.11-.22.26-.33.39-.03.03-.08.06-.13.07-.06.02-.15,0-.18.04-.28.39-.76.3-1.13.46-.16.07-.29.18-.44.27-.08.05-.18.1-.27.1-.63.02-1.25.07-1.88,0-.22-.02-.45.06-.67.06-.75-.02-1.48-.12-2.18-.39-.32-.12-.67-.16-.99-.29-1.07-.45-2.05-1.04-2.94-1.81-.22-.19-.48-.34-.71-.51-.1-.08-.19-.17-.28-.26-.37-.37-.76-.73-1.1-1.13-.24-.28-.44-.6-.58-.94-.08-.19.02-.46.04-.69.04-.33.09-.66.12-1,.06-.72.12-1.45.15-2.17.02-.57,0-1.15,0-1.76-.28.12-.55.33-.83.33-.34,0-.48.24-.69.38-.19.12-.33.22-.58.24-.35.03-.67.24-1.02.36-.14.05-.3.02-.45.04-.3.05-.61.12-.91.18-.03,0-.07,0-.1,0-.43-.09-.84.07-1.26.1-.28.02-.56.04-.84.05-.43,0-.86,0-1.29-.01-.83-.02-1.53-.39-2.19-.87-.17-.13-.24-.29-.24-.49-.03-.78-.05-1.56-.07-2.34,0-.07.03-.14.04-.21.08-.02.16-.04.31-.07-.16-.03-.24-.05-.28-.05-.04-.49-.08-.96-.12-1.43-.01-.2-.02-.39,0-.59,0-.07.08-.14.12-.2-.03-.07-.09-.15-.09-.23-.05-.8-.11-1.6-.13-2.4-.01-.4.06-.81.08-1.22.01-.2-.04-.41,0-.6.03-.15.16-.29.24-.43-.24-.11-.05-.38-.06-.57-.01-.5,0-1,.08-1.49.05-.34.12-.68.12-1.03,0-.16-.06-.32-.04-.47.09-.54.02-1.08.03-1.62,0-.44.02-.89,0-1.33-.01-.29-.1-.59-.11-.88,0-.17.06-.35.08-.53.01-.1,0-.2-.02-.34.02-.01.07-.05.13-.09-.04-.16-.32-.27-.07-.48-.03,0-.05-.01-.08-.02.01-.1,0-.23.05-.28.06-.06.19-.04.31-.01-.25.26-.15.48-.02.7.01.02.03.05.03.07-.02.21-.06.43-.06.64,0,.23.01.46.04.68,0,.06.07.11.12.16-.14.19-.14.22.04.41-.02.16-.03.26-.04.36,0,.08-.02.16-.02.24,0,.38-.02.77-.02,1.15,0,.34.03.7-.05,1.02-.05.21.03.36.03.54,0,.21-.02.42-.02.63,0,.42.03.83.03,1.25,0,.51-.02,1.01-.02,1.52,0,.32.04.63.05.95.01.93.02,1.86.03,2.79,0,.08-.06.16-.1.23-.06.1-.12.19-.18.28.03.02.06.03.08.05.04-.09.09-.17.13-.26.03,0,.06,0,.09.01,0,.22,0,.44,0,.67,0,.58,0,1.15,0,1.73,0,.51.02,1.01.04,1.52.02.43.05.86.05,1.29,0,.25.15.32.35.33.73.03,1.47.04,2.2.06.45.01.89.02,1.34.02.46,0,.91-.08,1.37-.12.31-.03.64.04.95,0,.21-.02.41-.12.6-.21.21-.09.4-.22.61-.31.12-.05.27-.03.4-.07.2-.07.4-.17.49.08.05-.09.07-.22.14-.25.64-.28.58-.88.67-1.42.04-.28.09-.56.11-.84.01-.32-.01-.64-.02-.95,0-.13,0-.27,0-.4,0-.17-.03-.34-.04-.56.23-.09.01-.39.11-.6.16.38-.14.85.26,1.16,0,.02.01.03.01.05,0,.08,0,.17,0,.25,0,0,.07.01.07,0,.03-.08.07-.16.08-.24.01-.12,0-.24,0-.37-.08,0-.15,0-.3-.01.39-.2.28-.51.27-.76-.01-.48-.1-.95-.16-1.47.11.04.2.07.36.12-.12-.14-.19-.23-.26-.32-.02.01-.03.03-.05.04-.07-.11-.15-.22-.21-.31.05-.23.1-.49.15-.76-.22-.07-.19-.22-.02-.39-.18-.2-.17-.27.12-.38-.38-.38-.23-.88-.3-1.33-.07-.46-.1-.92-.23-1.36-.06-.2-.11-.33,0-.51.02-.02.01-.07,0-.1-.04-.38-.08-.76-.1-1.14,0-.11.08-.22.13-.35-.44-.06-.25-.45-.26-.71-.03-.41.05-.83.05-1.24,0-.29-.11-.59-.05-.86.08-.37,0-.73.01-1.09.04-1.35.06-2.71.09-4.06.02-.76.09-1.53.11-2.29.03-1.34.03-2.67.04-4.01,0-.01.02-.03.06-.08.03.1.08.18.08.26,0,.38-.02.76-.03,1.14,0,.21-.01.43,0,.64,0,.07.1.14.15.21.01-.06.03-.13.04-.19.01-.14.03-.28.02-.43,0-.14-.04-.27-.04-.41,0-.17,0-.35,0-.52,0-.23.04-.46.02-.68-.02-.29-.04-.29-.34-.11-.09-1.72-.07-3.41.02-5.11.01.08.02.17.04.33.1-.08.21-.13.22-.19.07-.46.11-.92.17-1.4-.07,0-.14-.01-.21-.02,0-.02.01-.05.02-.05.28-.05.24-.3.26-.48.06-.6.09-1.2.13-1.8,0-.07.03-.15,0-.22-.07-.22.03-.41.1-.61.06-.18.1-.38.13-.57.07-.44.13-.88.19-1.32.06-.42.04-.88.2-1.26.34-.84.07-1.68.11-2.51,0-.16-.06-.33-.11-.5-.04-.13-.1-.26-.16-.41.24.03.55.31.56.51.03.94.1,1.89.06,2.83-.03.68-.2,1.36-.29,2.03-.08.57-.13,1.14-.19,1.7,0,.03.01.07,0,.07-.29.09-.06.22-.02.36-.22,0-.17.14-.12.27h-.14c.2.23.04.46,0,.68-.05.33-.14.64-.07.99.05.29-.03.61-.04.91-.02.52-.04,1.04-.07,1.56-.01.21-.05.41-.06.62,0,.17.05.35.04.52-.01.21-.06.41-.1.65.14.09.15.27.08.47-.03.08-.01.17,0,.26.03.52.1,1.03,0,1.55-.03.14-.15.41.09.55.02.01.02.08.02.12-.05.4-.11.79-.16,1.19,0,.02-.01.05,0,.05.27.19.04.35-.04.54.07.01.12.02.22.03-.04.15-.1.29-.11.43,0,.08.08.17.07.25-.01.17-.05.34-.08.51-.03,0-.06,0-.08.01.07.04.14.09.2.12-.1.6-.19,1.2-.29,1.8h-.07c-.03-.24-.05-.47-.08-.7-.03,0-.06,0-.09,0v1.01c.08-.01.17-.03.29-.05-.02.06-.03.09-.04.09-.3-.03-.36.16-.36.4,0,.5,0,1,0,1.51,0,.17-.05.33-.08.55,0,0-.07.02-.08.02.04.15.1.29.09.43,0,.3-.05.6-.08.91.02.14.05.31.1.56.06-.12.1-.18.13-.26.03-.08.02-.18.06-.25.25-.39,0-.85.17-1.25.07-.16.09-.33.16-.49.04-.08.14-.14.18-.17.05-.22.08-.42.14-.61.33-.94.68-1.88,1-2.82.2-.58.34-1.18.52-1.77.07-.22.14-.47.28-.65.34-.42.38-.89.31-1.39-.03-.24,0-.5,0-.78.31.07.12.43.33.56.13-.09.29-.16.11-.37-.03-.04,0-.14.02-.2.02-.06.07-.11.09-.16.06-.18.08-.34-.18-.37-.02,0-.04-.05-.09-.12.13.03.21.04.29.06.14-.28-.14-.4-.27-.66.14.07.21.11.3.16.11-.27-.04-.4-.24-.52.07-.09.13-.18.2-.28-.17-.07-.38-.11-.19-.35.01-.01-.06-.08-.08-.13-.13-.26-.28-.52-.38-.79-.11-.28-.18-.58-.27-.88-.03-.11-.06-.23-.06-.34-.02-.82.03-1.65-.08-2.47-.1-.78.02-1.55-.06-2.32-.04-.37.06-.76-.03-1.11-.09-.34.04-.6.11-.89.04-.18,0-.37,0-.56,0-.39,0-.79,0-1.18,0-.3.03-.59.03-.89,0-.28,0-.57,0-.85,0-.15-.07-.3-.08-.45,0-.17.02-.34.04-.55-.12-.04-.18-.13-.02-.31.05-.05-.02-.21-.04-.32-.03,0-.06,0-.09,0,.07-.15.14-.31.21-.46-.03-.04-.09-.12-.15-.2.06-.04.11-.07.19-.12-.1-.25-.2-.53-.32-.83.05-.01.14-.04.26-.07-.01-.03-.02-.06-.03-.09-.07-.17-.23-.3-.1-.52.04-.06-.04-.19-.07-.31.03-.03.09-.08.14-.12-.02,0-.05,0-.07,0v-.35c-.29-.4-.82-4.99-.52-5.33-.06.02-.13.04-.18.06,0-.2.09-.49-.02-.63-.21-.28-.05-.57-.15-.86-.14-.4-.13-.86-.2-1.29-.04-.22-.12-.44-.16-.66-.03-.15-.03-.3-.05-.45-.03-.23-.06-.47-.12-.69-.14-.6-.28-1.2-.43-1.79-.2-.82-.43-1.64-.62-2.46-.19-.8-.37-1.61-.52-2.42-.11-.59-.15-1.18-.23-1.77-.07-.51-.16-1.01-.2-1.52-.07-.8-.07-1.61-.16-2.4-.07-.62-.18-1.23-.33-1.83-.11-.47-.28-.93-.46-1.38-.14-.35-.34-.68-.51-1.03-.07-.14-.12-.29-.24-.44,0,.11-.03.22-.01.32.1.46.21.91.31,1.36.12.57.19,1.13.11,1.72-.05.37.03.75.04,1.12.01.57.01,1.15.03,1.72.01.28.07.56.07.84-.02.19-.03.38-.04.57-.02.26.15.54-.06.79-.02.03.05.13.07.2.02.1.06.22.03.31-.09.27-.06.54.04.64,0,.31,0,.54,0,.78.01.29.09.6.05.88-.07.4.15.77.1,1.15-.04.3.1.6.04.85-.05.22.04.36.04.54,0,.1-.04.2-.06.27.05.27.09.51.13.75.03.13.04.27.1.39.2.44.07.89.02,1.34-.04.4-.09.8-.13,1.2,0,.05.02.13.06.16.14.11.19.19-.01.29-.02,0-.02.12,0,.17.03.08.08.16.12.23-.18.17-.24.33-.15.57.04.11,0,.25-.02.37-.01.19-.02.38-.06.58-.01.14-.03.28-.04.42,0,.31,0,.62,0,.96,0,0-.05.04-.07.05,0,.27,0,.5,0,.74-.02.36-.05.72-.08,1.07,0,.05.04.09.05.14.01.07.04.2.02.21-.19.11-.08.21,0,.3.1.14.12.25-.03.37-.03.02-.04.09-.06.13h.19c-.05.13-.09.27-.14.41,0,.02-.02.04-.02.05.18.42-.12.84.03,1.26.02.05-.06.15-.04.22,0,.28.01.57,0,.85-.01.27-.12.55-.07.8.06.29-.07.56.02.88.1.34-.03.76-.06,1.14,0,.04.02.08.04.12.07.16.11.32.02.45,0,.26.01.53.01.79,0,.46,0,.92.01,1.38.01.45.04.89.05,1.34,0,.04,0,.08-.02.1-.12.16-.1.28.07.33-.06.78.1,1.55-.08,2.34.26.09.07.38.1.6.05.36.05.72.08,1.08.03.43.08.86.07,1.29,0,.17-.11.35-.16.51.03,0,.1-.03.17-.04-.02.34-.05.67-.06,1,0,.2,0,.41,0,.61,0,.07-.06.14-.1.21.23.08.15.32.14.49-.02.31-.03.61,0,.93.02.17-.08.34-.08.52,0,.21.03.43.04.65.01.12.03.24.04.37.02.39.04.77.04,1.16,0,.29-.02.58-.02.86,0,.11.05.22.11.32-.01.11-.21.22.01.35.04.02,0,.18-.03.28-.05.26-.14.53-.15.79-.01.19.06.4.09.59,0,.03.04.09.03.1-.15.18-.08.39-.11.59-.02.13-.02.26.02.39-.12.18-.18.35.03.53.04.03.03.14.02.2-.03.46-.08.93-.08,1.39,0,.25.07.51.08.76,0,.19-.03.38-.05.57-.02.28-.07.54.06.82.05.12-.05.31-.06.47-.01.19.01.39-.02.58-.02.1-.12.19-.18.3.03,0,.11,0,.24.02-.04.18-.08.35-.12.53.09.03.2.1.06.27-.02.02-.04.06-.04.06.25.18.04.42.07.63.05.32.04.65.03.98,0,.27-.06.53-.05.79,0,.13.09.25.14.39-.11.14-.25.3-.13.43,0,.28.01.47,0,.66-.02.35-.06.71-.1,1.06,0,.03,0,.05,0,.08-.03.22.18.46-.05.69-.06.06.05.26.05.4,0,.32-.02.64,0,.96.02.56.06,1.11.09,1.67.01.23-.05.48.02.68.13.34-.03.65.02.98.03.19-.1.39-.12.59-.01.13.05.27.09.4.01.05.08.09.07.14-.03.43-.06.87-.1,1.3-.02.17-.06.34-.09.51,0,.03-.01.07,0,.09.15.18.05.29-.11.39.36.29-.09.25-.17.41.09.1.2.21.31.33-.06.09-.13.19-.19.28h.06c.02.17.05.33.05.5,0,.19-.01.38-.05.57-.02.1-.1.24-.18.27-.18.06-.38.09-.56.07-.07,0-.17-.15-.19-.25-.16-.76-.03-1.53-.11-2.3-.01-.11.02-.24.05-.35.12-.44.26-.88.35-1.33.04-.17-.05-.37-.07-.55-.01-.16,0-.33,0-.5.03-.02.06-.04.09-.06-.1-.02-.2-.04-.31-.06.34-.18.2-.51.2-.79,0-.61-.03-1.21-.04-1.82,0-.54,0-1.09,0-1.63-.01-.52-.07-1.05-.05-1.57.03-.81.12-1.61.15-2.42.02-.48-.01-.96-.01-1.43,0-.43,0-.86,0-1.29,0-.56.01-1.13,0-1.69,0-.52-.04-1.04-.03-1.55,0-.26.01-.51-.03-.77,0-.04,0-.08,0-.11.17-.5,0-.99,0-1.48,0-.05,0-.09,0-.14,0-.44,0-.87.03-1.31.03-.62.1-1.24.12-1.86.01-.24-.05-.49-.06-.74-.01-.29,0-.58,0-.87,0-.05-.02-.1-.02-.15,0-.18.02-.36.02-.53,0-.44,0-.88,0-1.32,0-.41,0-.83.02-1.24,0-.05.03-.1.06-.17.08.04.14.07.22.11,0-.05,0-.1,0-.1-.48-.23-.22-.67-.29-1.01-.03-.13.02-.28,0-.41-.04-.22-.02-.39.32-.45-.16-.05-.23-.07-.25-.07-.08-.82-.16-1.61-.24-2.41-.05,0-.09.02-.15.03,0-.03,0-.05.01-.08.09-.3.18-.59.08-.91-.06-.19-.01-.41-.01-.62,0-.29,0-.58,0-.87,0-.09.04-.18.06-.28-.04-.02-.09-.06-.23-.14.11-.05.18-.09.24-.12-.12-.4-.11-.66.02-.78-.09-.08-.19-.15-.26-.24-.02-.02.07-.13.1-.16-.01-.09-.01-.17-.03-.25-.02-.07-.08-.14-.08-.22-.01-.24,0-.48-.02-.72,0-.2-.04-.39-.03-.59,0-.14-.07-.34.17-.37-.06-.12-.13-.26-.19-.39.02-.02.05-.03.07-.05.06.03.11.05.18.08.09-.17-.57-.33.07-.5-.14-.02-.23-.03-.32-.05,0-.45,0-.89,0-1.33,0-.09.07-.18.1-.27.02-.07.05-.14.04-.2-.02-.14-.09-.28-.09-.43-.02-.37-.01-.74-.01-1.12,0-.41,0-.83,0-1.24,0-.23.07-.46.07-.69,0-.17-.08-.34-.08-.51,0-.41.05-.83.07-1.24,0-.2,0-.39,0-.6h.28c-.1-.08-.21-.14-.26-.23-.03-.05.04-.16.07-.27,0,0-.08-.08-.08-.14,0-.55.02-1.11.06-1.66.01-.18.12-.35.19-.57-.25-.23-.03-.48.12-.72-.13-.06-.22-.11-.29-.14.09-.21.16-.39.25-.6h.36l.02-.07c-.17-.06-.34-.12-.55-.19.12-.07.22-.13.36-.21-.12-.03-.21-.05-.36-.09.09-.05.14-.08.22-.13-.07-.03-.12-.06-.17-.09,0-.02,0-.04.01-.06.14.02.28.05.41.07,0-.02.01-.03.02-.05-.14-.06-.27-.12-.43-.19.06-.03.12-.06.21-.11-.1-.11-.2-.22-.29-.33.01-.01.02-.03.04-.04.08.02.15.04.27.06-.13-.19-.23-.35-.34-.51.04-.03.07-.05.11-.08.03.07.06.14.1.22.03-.02.06-.05.09-.07-.11-.15-.21-.3-.34-.47.06-.03.14-.06.22-.09-.04-.05-.08-.1-.15-.18.09,0,.15,0,.2.01,0-.02.02-.03.03-.05-.06-.04-.13-.08-.23-.14.12-.04.22-.07.4-.13-.14-.05-.21-.07-.31-.11-.04-.11-.11-.25-.16-.37.16.04.31.08.47.12.01-.03.02-.05.04-.08-.14-.11-.27-.22-.41-.33.14-.01.27-.03.4-.04,0-.01,0-.03,0-.04-.08-.03-.16-.06-.26-.1.12-.15.17-.3-.05-.39.14-.06.26-.3.43-.02.06-.06.12-.11.25-.22-.4.02-.72.02-.84-.37.06-.05.13-.11.21-.19-.07-.03-.12-.05-.2-.08.06-.07.12-.14.17-.2-.22-.18-.31-.51-.15-.63.04-.03.15.02.28.04v-.44s-.04,0-.06,0c.06-.08.12-.16.22-.28h-.44c.23-.14.32-.28.16-.44.06-.05.11-.1.17-.15-.08-.08-.16-.15-.22-.2.03-.19.04-.37.08-.53.01-.06.08-.12.13-.17-.22.05-.33-.06-.34-.3,0-.06-.04-.17-.08-.18-.2-.07-.13-.24-.11-.36,0-.05.18-.07.28-.11.03-.01.06-.02.17-.07-.16-.06-.26-.1-.32-.12-.04-.27-.18-.57-.09-.77.21-.52,0-1.03.09-1.54.01-.07.1-.12.13-.17-.03-.12-.11-.26-.07-.38.02-.08.19-.12.25-.15-.05-.02-.21-.06-.26-.15-.06-.1-.03-.26-.02-.4.02-.34,0-.69.08-1.03.13-.61-.08-1.2-.07-1.81,0-.43-.04-.86-.07-1.29,0-.11-.02-.22-.06-.33v-1.23c-.43.23-.53.7-.71,1.13.05-.24.09-.49.14-.73-.02,0-.05-.02-.07-.03-.03.05-.08.11-.1.17-.18.62-.36,1.23-.51,1.86-.18.74-.31,1.5-.47,2.25-.04.17.09.42-.13.47.02.2.05.38.04.54-.04.31-.16.61-.15.91.01.81-.16,1.59-.28,2.38-.08.5-.23.99-.34,1.49-.07.33-.1.68-.2,1.01-.09.31-.25.59-.36.9-.06.17-.07.36-.13.52-.04.1-.13.18-.18.24.02.06.09.15.07.21-.19.6-.4,1.19-.59,1.78-.04.13-.06.28-.1.41-.03.08-.09.15-.12.2,0,.07.06.18.03.24-.2.4-.2.85-.34,1.26-.14.42-.22.86-.34,1.29-.13.48-.37.93-.3,1.46.03.23-.01.48-.04.71-.04.29-.08.57-.15.85-.02.09-.13.17-.2.25.14.15.12.2-.21.39h.21c.04.33-.34.63-.09.98-.05.03-.1.06-.19.11.29.08.19.2,0,.37.08.05.14.08.18.1-.06.34-.15.68-.19,1.02-.09.91-.16,1.82-.25,2.74-.01.11-.09.21-.17.36.02.08.21.22.03.39.19.21-.13.45.03.68.04.06-.09.22-.1.33-.04.73-.07,1.46-.1,2.18,0,.06,0,.12-.01.23-.16-.11-.28-.19-.42-.29.09-.19.17-.37.26-.57-.18-.07,0-.2.01-.34.01-.29-.03-.59-.02-.88,0-.27.07-.54.09-.8,0-.08-.03-.17-.02-.25.02-.3.07-.59.09-.89,0-.06-.06-.13-.07-.15.03-.29.07-.55.08-.81.04-.82.07-1.64.11-2.46.02-.44.02-.88.05-1.32.04-.65.07-1.31.15-1.95.04-.27.05-.56.16-.83.02-.06-.04-.16-.06-.21.05-.08.11-.13.12-.2.08-.29.14-.58.22-.88.02-.09.07-.61.06-.72,0-.02.01-.05.02-.07.22-.37.13-.81.27-1.2.03-.09.09-.18.13-.27,0-.6.24-1.17.37-1.76.12-.58.38-1.14.57-1.71.03,0,.06,0,.09.01-.06-.06-.12-.11-.21-.2.08-.03.13-.05.18-.07-.04-.44.05-.54.52-.52-.15-.06-.24-.1-.33-.14.14-.4.06-.86.36-1.26,0-.13.01-.3.02-.52,0,0,.09-.05.1-.11.06-.29.12-.57.14-.86.01-.24.05-.45.16-.67.06-.12.02-.3,0-.44-.06-.31.22-.56.11-.9-.07-.21.05-.47.09-.71.11-.74.23-1.48.35-2.22.04-.22.08-.44.12-.67.18-.92.62-1.74,1.06-2.56.16-.31.29-.63.42-.91-.03-.1-.08-.19-.07-.26.06-.22.14-.43.22-.64.07-.18.2-.34.08-.55-.03-.05.05-.16.07-.25.02-.08.02-.16.04-.3,0,0,.05-.03.1-.06,0-.03.01-.06,0-.07-.13-.13-.11-.23,0-.37.15-.19.29-.34.51-.48.45-.29.83-.69,1.3-1.08-.17-.02-.26-.03-.35-.03v-.05c.06,0,.13-.03.18-.01.33.1.57-.05.8-.27.06-.06.15-.11.23-.13.39-.09.7-.33,1.04-.53.67-.38,1.36-.74,2.04-1.11.76-.42,1.62-.6,2.43-.88.42-.15.84-.32,1.26-.48.25-.1.52-.19.74-.32.3-.19.65-.27.95-.45.06-.04.1-.12.13-.14.25-.07.47-.11.69-.19.26-.09.52-.22.77-.33.04-.02.1-.03.11-.06.21-.43.62-.41,1-.4.13,0,.17.08.22-.11.03-.12.25-.18.37-.29.25-.24.47-.49.72-.73.29-.27.59-.53.89-.79.06-.05.17-.06.26-.03-.05.01-.1.03-.18.05.06.08.11.14.18.23.38-.42.75-.82,1.1-1.23.09-.1.11-.25.17-.38.08-.18.14-.36.37-.43.08-.02.12-.22.16-.34.03-.07.02-.18.06-.23.23-.24.48-.46.71-.7.18-.19.31-.46.53-.58.56-.32,1.14-.6,1.73-.83.24-.09.53-.04.8-.04.05,0,.1.08.15.12-.05.05-.09.14-.14.14-.43,0-.69.27-.94.63.13-.02.27,0,.38-.06.66-.32,1.05-.89,1.41-1.49.3-.5.58-1.01.9-1.49.27-.39.68-.59,1.13-.72.52-.15,1.05-.28,1.49-.63.06-.05.17-.07.26-.08.31-.04.63-.09.95-.12.17-.01.22-.08.21-.24-.03-.48-.05-.96-.08-1.44,0-.04,0-.07-.03-.1-.21-.35-.39-.73-.65-1.04-.4-.49-.84-.95-1.28-1.4-.66-.68-1.23-1.43-1.42-2.37-.11-.55-.04-1.14-.08-1.7-.07-1.25.1-2.46.69-3.57.36-.68.77-1.34,1.26-1.93.53-.64,1.3-.86,2.13-.88.2,0,.42-.13.55.15.27-.19.48-.15.61.09.13-.03.25-.1.35-.07.43.13.87.27,1.28.45.89.4,1.51,1.11,2.03,1.92.16.25.33.51.4.79.11.45.03,1.05-.57,1.18-.11.02-.2.11-.31.17-.1-.04-.23-.07-.34-.13-.13-.08-.24-.18-.19-.38.02-.07,0-.16,0-.24,0-.23.03-.46-.01-.68-.05-.25-.13-.51-.25-.73-.49-.91-1.26-1.48-2.26-1.6-.93-.11-1.84.08-2.6.71-.73.6-1.28,1.3-1.53,2.25-.12.43-.36.83-.34,1.3.03.59-.08,1.18-.05,1.77.02.39.08.76.32,1.09.59.78,1.15,1.59,1.75,2.36.3.38.65.72.98,1.08.28.3.5.61.53,1.04.03.38.12.75.13,1.13.02.35-.03.69-.04,1.03,1.36-.2,2.51.43,3.62,1.17.14.1.29.2.41.31.16.15.15.39-.05.55.77.47,1.28,1.17,1.78,1.97v-.31s.04-.04.07-.04c.28-.08.55-.19.83-.24.75-.13,1.48.44,1.75,1.15.21.52.41,1.04.62,1.56.17.41.32.84.51,1.24.11.24.32.42.62.47-.1.28.07.43.27.58.19.15.35.35.54.5.36.28.75.52,1.09.82.53.47,1.22.57,1.81.9.51.29,1.01.6,1.52.9.71.42,1.42.85,2.15,1.23.24.13.56.11.84.17.77.15,1.43.56,2.12.88.54.25,1.05.56,1.57.85.49.26.97.55,1.48.78.44.2.91.35,1.36.52.05.02.11-.03.17-.04.13-.02.25-.03.38-.04-.01.03-.03.06-.04.09.05.07.08.16.14.2.56.36,1.13.71,1.7,1.06.34.21.51.54.58.91-.08.07-.15.13-.22.19.06.07.12.14.19.21.17.18.38.34.51.55.25.41.48.83.67,1.27.11.27.12.58.18.88.14-.07.29-.15.52-.26-.3.54.02.98.04,1.45.03.58.1,1.16.15,1.74,0,.1.06.19.08.28.02.12.01.25.02.37.01.2.03.39.04.59.02.32.04.64.03.96,0,.06-.13.13-.24.23.25-.03.35.03.25.25-.02.03.04.1.06.15.02.05.08.12.07.16-.09.35.02.69.06,1.03.01.16.23.31.03.48.24.14.04.38.12.56.03.07-.05.19-.09.32.19.14.28.37.27.68,0,.27.08.55.13.82,0,.03.03.06.02.07-.11.28.09.53.07.79,0,.08-.04.16,0,.21.05.19.17.39.13.56-.03.18.03.29.06.44.05.24.06.49.08.74,0,.05-.02.12,0,.16.12.22.03.33-.28.38.13.04.17.08.21.07.18-.02.22.09.23.23.02.27.03.54.05.82-.06,0-.13-.01-.22-.02.05.12.44.07.2.26.06.16.11.29.15.43.03.1.04.21.05.31.01.13.01.27.02.41,0,.03,0,.09,0,.1.24.21.07.44.01.67.22.1.32.25.32.52,0,.31.13.62.18.93.03.18.03.37.05.55.13.82.26,1.63.41,2.45.06.32.15.64.21.96.07.35.14.71.19,1.07,0,.06-.05.13-.08.19.03,0,.05,0,.08,0,0,.08-.01.16-.02.24,0,.05-.02.1,0,.13.15.44.14.89.2,1.34.03.3.12.59.17.89.07.38.12.76.22,1.13.14.53.32,1.05.47,1.58.12.44.32.88.31,1.32-.01.35.28.54.26.86,0,.09.08.19.12.29.05.13,0,.22-.2.31.07.09.14.17.21.26-.03.04-.07.09-.14.17.1-.01.15-.02.28-.04-.06.12-.11.21-.17.32.2.15.1.35.05.58-.03.12.1.27.13.35,0,.24,0,.45.03.64.07.4.18.79.24,1.19.07.53.1,1.07.17,1.61.05.41.16.82.16,1.23,0,.25.09.49.04.75-.04.2.09.44.12.66.05.38.07.76.12,1.14.03.2.12.4.13.6.02.35,0,.7.01,1.05.02.44.07.88.09,1.32,0,.11-.07.22-.12.38.1.11.13.24.05.46-.08.22.02.49.04.74.01.22.03.45.02.67-.01.23-.07.46-.08.69,0,.14.04.29.03.43-.01.19-.09.39-.08.58.01.21.04.4-.06.6-.02.05.07.15.12.24-.34.21-.04.29.21.39-.03.01-.06.03-.09.04-.07-.02-.14-.03-.31-.06.14.19.23.31.33.45-.12.02-.21.03-.3.04-.01.02-.03.04-.04.06.22.06.21.13.18.34-.06.39,0,.79.02,1.19h.14c.02-.15.03-.31.05-.47.06.56.25,1.11.05,1.69-.12.37-.12.79-.13,1.19-.02.74,0,1.48-.02,2.23-.02.9-.06,1.79-.08,2.69-.01.66,0,1.31,0,1.97,0,.21.02.42.02.63,0,.05-.07.09-.08.11,0,.12,0,.23,0,.34,0,.21,0,.43-.01.64-.01.21-.05.42-.06.63,0,.14.03.28.03.42,0,.39-.03.79-.02,1.18,0,.19.04.39.06.58,0,.06.03.13.02.19-.02.31-.06.63-.07.94,0,.23.03.46.03.7,0,.25-.03.49-.05.74,0,.07-.02.14-.05.2-.03.07-.08.13-.13.21.01.01.07.06.12.11-.14.25-.23.49-.16.77.12.47-.1.96-.52,1.22-.47.28-.91.61-1.4.83-.87.37-1.74.74-2.74.63-.63-.07-1.27.03-1.91.03-.28,0-.57-.04-.86-.07-.24-.03-.48-.05-.71-.1-.94-.18-1.87-.36-2.81-.54-.3-.06-.49-.38-.47-.76,0-.02,0-.04,0-.05.04-.3.08-.59.12-.89,1.02.21,2.03.43,3.08.64-.04-.43-.09-.8-.11-1.17,0-.07.07-.15.06-.22.01-.11.05-.23.03-.33-.1-.38.09-.71.13-1.06.05-.4.06-.81.06-1.22,0-.42-.03-.84-.02-1.26.01-.39.05-.79.11-1.17.01-.09.18-.15.28-.22-.17-.3-.17-.33.03-.44-.05-.08-.11-.16-.19-.28.13,0,.2,0,.26-.01q.05-.88.3-.99c-.14-.1-.25-.18-.42-.3,0-.24.26-.2.5-.23-.2-.14-.36-.25-.58-.41.34-.1.59-.18.85-.26,0-.02,0-.04-.01-.06h-.62l-.04-.08c.11-.14.2-.31.34-.41.13-.09.31-.1.46-.17-.17.04-.35-.22-.51.03-.08-.05-.15-.1-.26-.17.15-.04.24-.07.39-.11-.15-.07-.24-.12-.28-.14.05-.18.13-.33.12-.49,0-.27.19-.2.33-.27.25-.12.45-.05.66.06.03.02.05.04.06.05-.06.07-.14.13-.16.21-.02.05.04.13.07.2-.09.02-.22.04-.34.06.12.13.23.26.38.43-.14.03-.24.06-.34.08-.03.19.28.24.16.47-.06.11,0,.28-.01.42-.02.19-.06.38-.09.58-.08.02-.17.04-.33.08.11.1.17.16.19.17-.05.17-.08.32-.13.47-.02.07-.07.13-.11.22.25.22-.02.47-.03.72-.02.29-.09.58-.16.87-.03.15-.09.29-.16.42-.1.21-.11.4.12.57-.1.02-.18.04-.3.07.06.11.12.2.15.29.02.07.04.19,0,.22-.24.19-.15.35-.02.46-.02.21-.03.37-.05.6q-.09.08.15.58c.22-.08.29,0,.24.22-.03.17-.02.35-.04.52-.01.11-.05.21-.06.32,0,.1-.03.22,0,.3.13.23.2.43-.12.57-.04.02-.06.06-.11.11-.05-.35.2-.72-.08-1.08-.22.25-.29.47-.21.76.06.22.07.46.04.68-.01.13-.14.24-.22.37.19.03.09.47.47.37-.06-.09-.11-.17-.16-.25.01-.02.03-.03.04-.05.11.07.21.15.32.21.13.08.26.2.4.21.52.04,1.03.05,1.55.06.51,0,1.02.06,1.52,0,.62-.08,1.26-.12,1.83-.42.17-.09.36-.17.52-.28.07-.05.07-.17.12-.25.24-.4.32-.85.35-1.3.01-.21-.04-.4.15-.54-.04-.07-.09-.13-.11-.2-.03-.09-.04-.19-.06-.29,0-.03-.03-.07-.03-.1.03-.3.07-.59.1-.89,0-.06.01-.13,0-.18-.22-.52-.06-1.05-.05-1.57.02-.85.07-1.7.16-2.55.07-.77.01-1.54.04-2.31.02-.59.13-1.17.18-1.76.04-.58.04-1.17.07-1.75.01-.25.05-.51.09-.75,0-.26-.01-.52,0-.78.01-.2.07-.4.1-.6.03-.18.06-.37.09-.58-.02-.22-.06-.48-.08-.74-.03-.57-.04-1.15-.08-1.72,0-.07-.08-.13-.09-.15.02-.3.04-.54.06-.82-.02-.01-.09-.05-.16-.1.4-.23.05-.62.24-.91-.07-.03-.13-.06-.24-.12.13-.06.21-.09.33-.14-.08-.07-.15-.12-.24-.19.05-.07.1-.13.15-.21-.05-.04-.1-.07-.1-.08,0-.11,0-.18,0-.25-.01-.13-.04-.26-.06-.39-.03-.22-.06-.44-.07-.66,0-.06-.12-.21.08-.2,0,0,.03-.06.02-.09-.02-.25-.05-.51-.06-.76,0-.07.05-.15.09-.23-.04-.05-.09-.11-.14-.18.11-.1.21-.19.32-.29-.18-.27-.54-.44-.36-.85.02.11.04.22.08.37.11-.08.2-.14.31-.22-.21-.13-.3-.24-.2-.5.07-.18-.09-.43-.05-.63.1-.45-.04-.84-.21-1.23-.02-.04-.01-.1,0-.15.02-.26.05-.52.06-.78,0-.06-.09-.12-.14-.19.03,0,.05,0,.08,0-.01-.18-.03-.36-.04-.53-.03-.3-.07-.6-.1-.9,0-.02.08-.05.09-.06-.04-.11-.08-.19-.09-.27-.14-.99-.28-1.98-.4-2.98-.06-.47-.05-.95-.13-1.41-.03-.2-.08-.41-.2-.61-.14-.23-.12-.55-.16-.84-.01-.09.02-.19.03-.3-.02-.03-.09-.11-.11-.2-.08-.38-.13-.77-.21-1.16-.15-.7-.29-1.41-.46-2.1-.14-.56-.34-1.11-.48-1.68-.15-.64-.28-1.29-.39-1.95-.1-.61-.14-1.23-.22-1.84-.06-.45-.15-.9-.22-1.35-.11-.72-.19-1.44-.31-2.15-.21-1.27-.46-2.54-.66-3.82-.22-1.46-.39-2.93-.58-4.4-.06-.42-.14-.83-.22-1.25-.35-1.85-.51-3.72-.69-5.59-.11-1.21-.15-2.43-.26-3.65-.05-.51-.21-1.01-.32-1.52-.07-.37-.27-.66-.58-.97-.03.26-.07.47-.09.68-.08.78-.13,1.56-.24,2.34-.11.78-.28,1.55-.39,2.33-.06.39-.06.8-.09,1.2-.01.22-.03.44-.03.66,0,.25-.07.55.04.74.13.21.07.33-.02.49.28.09.21.78-.1,1.27l.23-.19c-.08.25-.02.51-.09.77-.06.23.18.53.02.72.05.36.1.66.14.96-.02,0-.05,0-.07,0,.05.08.09.17.15.24.05.07.1.13.15.19-.19.42.03.82.08,1.23-.09.03-.17.06-.27.1.13.08.35.05.26.3-.05.13,0,.3,0,.48h-.73s0,.03-.01.04c.1.03.2.07.31.08.46.02.55.12.54.59,0,.12,0,.23,0,.36-.2-.04-.39-.08-.59-.11,0,.04-.02.08-.02.12.14.03.29.04.43.08.07.02.17.1.18.17.03.33.26.66.02,1.01-.05.07.04.26.1.37.14.3.14.29-.2.38.08.08.15.16.22.24.12.24-.11.23-.27.29-.06.18.05.23.18.29.06.03.1.12.17.22-.03,0,.02,0,.07,0,0,.02.02.03.01.03-.3.34.14.7-.01,1.05-.03.06,0,.14,0,.21,0,.18.02.37.02.55,0,.21.01.42.02.63,0,.17,0,.34,0,.51,0,.07.03.14.03.22,0,.08,0,.16-.02.32.19.25.17.67-.02,1.04-.07.13,0,.33.02.5,0,.08.04.16.04.24,0,.09-.05.19-.08.32.12.04.29.13.16.39-.01.03,0,.1.03.11.18.08.15.17.04.29-.02.02.01.1.02.15.06.35.12.7.18,1.05.06.39.12.78.16,1.17.02.17,0,.34-.03.5.03.12.06.24.08.36.05.34.1.69.15,1.03,0,.07-.02.14,0,.21.04.29.08.57.12.86.01.08.06.16.05.23-.03.35,0,.7.05,1.05.05.35.18.72.13,1.06-.06.35.19.63.1.97-.04.16,0,.36.04.53.03.11.14.19.22.3-.41.2-.02.45,0,.67-.12.04-.22.07-.34.11.13.09.28.13.32.23.04.1-.02.25-.04.38-.11-.02-.19-.04-.27-.05,0,.01-.01.03-.02.04.04.03.07.06.11.08.19.09.4.46.37.66-.02.13-.02.26-.02.39,0,.05.02.11,0,.13-.23.2-.03.41,0,.64-.08,0-.15,0-.25-.01.13.11.24.21.34.3-.02,0-.04.01-.07.02,0,.15.02.3,0,.45-.04.29-.11.57-.16.86-.02.1-.03.2-.02.3,0,.19-.06.42.03.56.2.3-.09.63.1.92.05.08-.02.25-.04.38,0,.02-.02.03-.03.06.05.04.1.09.16.14,0,.02-.02.04-.03.07-.02.05-.08.12-.07.16.07.22.16.44.23.66.08.24-.09.65-.34.79.08.11.16.21.25.32-.06.04-.1.07-.16.11.45.4.22.85.18,1.3,0,.18.02.37-.01.55,0,.05-.15.08-.24.13.21.09.25.2.15.45-.1.26-.02.58-.02.87-.1,0-.17.01-.24.02,0,.02,0,.04-.01.06.04.02.08.07.12.07.2.02.19.14.17.29-.02.3-.02.61-.03.91,0,.28.06.59-.03.84-.14.41-.02.77.05,1.15,0,.05.01.1.03.22-.08-.09-.13-.15-.19-.21-.22.31.21.3.21.52-.24.06-.28.19-.25.44.03.32-.07.66-.11.99,0,.09,0,.17,0,.26,0,.14,0,.29,0,.43.01.11.05.22.11.32v.87c.06.04.13.09.24.17-.13.03-.21.05-.29.07-.02.35.24.75-.2,1.01.16.09.2.16.09.35-.1.17-.07.41-.1.66-.01,0-.1.03-.19.06.04.16.25.32-.05.43.06.08.1.15.15.21-.03,0-.05,0-.08,0-.02.1-.1.24-.06.28.2.19.06.22-.1.25-.03,0-.06.03-.11.04.06.11.23.18.09.32-.01.01.09.13.16.23-.3.03-.26.15-.13.34.11.15.05.31-.11.35-.24.07-.49.07-.74.11,0-.19-.01-.34,0-.49.02-.15.06-.3.09-.44.02,0,.05,0,.07,0-.05-.07-.1-.14-.14-.2.05-.18.36.07.34-.18-.15-.05-.27-.1-.45-.16.31-.14.53-.24.75-.34,0-.03,0-.06-.01-.09-.15.01-.31.02-.51.04.01-.07.03-.17.06-.27.04-.13.23-.25,0-.38-.02-.01.02-.16.07-.22.04-.05.13-.06.19-.09-.2-.45-.06-.87,0-1.34-.08-.07-.07-.75.06-.95-.04-.05-.08-.09-.13-.15.07-.09.12-.17.16-.21-.06-.46-.12-.89-.18-1.37.26-.3.21-.77.34-1.18-.26-.29-.1-.65-.07-.94.04-.47-.18-.96.07-1.42.04-.08.02-.19.02-.29,0-.21-.02-.43-.01-.64,0-.17.12-.32,0-.51-.06-.11-.02-.33.05-.46.12-.22-.02-.41-.01-.61.02-.45.05-.91.05-1.36.01-.63.02-1.25,0-1.88,0-.46-.05-.92-.08-1.38-.02,0-.05,0-.07,0,.06-.05.13-.1.19-.14-.02,0-.05,0-.07,0,.03-1.12-.07-2.23-.05-3.35.03,0,.05,0,.08,0-.04-.03-.11-.05-.12-.09-.04-.17-.08-.35-.08-.52-.01-.46-.02-.92,0-1.38.01-.17-.05-.28-.11-.42-.08-.18-.1-.4-.13-.6-.09-.58-.16-1.16-.24-1.75-.02-.13,0-.27-.03-.39-.06-.3-.14-.6-.2-.9-.02-.09.02-.2.02-.21.1-.08.15-.12.15-.12-.13-.16-.24-.29-.35-.42l.08-.09c.12.06.25.12.37.18.02-.03.04-.06.06-.08-.06-.04-.13-.11-.2-.12-.38-.06-.31-.34-.33-.6-.03-.36-.07-.72-.1-1.09-.01-.15-.04-.31-.03-.46,0-.09.07-.17.11-.28-.15-.12-.18-.76-.07-.97-.07-.19-.13-.31-.14-.43-.05-.4-.09-.79-.11-1.19-.01-.31-.08-.63.11-.92.04-.06-.01-.17-.02-.25-.03-.29-.07-.58-.1-.88-.03-.35-.07-.71-.07-1.07,0-.39.06-.78.07-1.17,0-.18-.06-.35-.07-.53-.03-.49-.04-.97-.05-1.46,0-.09,0-.18.01-.28-.03,0-.05-.01-.08-.02.04-.05.09-.11.1-.12-.01-.17-.02-.3-.03-.43.02-.02.04-.05.06-.07-.18-.05-.36-.09-.57-.14.14,0,.27-.02.45-.03-.05-.1-.09-.18-.13-.25.03-.01.08-.04.12-.06-.09-.58-.17-1.15-.26-1.73.1-.01.17-.02.24-.03-.28-.03-.26-.18-.26-.41,0-.4-.09-.79-.18-1.18-.02-.1-.19-.17-.31-.27.17,0,.4.07.2-.21-.02-.03-.02-.11,0-.12.31-.23.14-.54.12-.82.13-.04.25-.07.43-.12-.19-.07-.34-.08-.42-.16-.08-.08-.1-.23-.16-.37-.05-.02-.14-.05-.22-.07.09-.05.23-.09.24-.15.01-.08-.08-.17-.13-.26.17-.18.03-.39.03-.6,0-.31-.16-.37-.36-.45.06-.11.12-.2.18-.3.07,0,.16-.01.24-.02,0-.02,0-.04.01-.06-.13-.04-.26-.08-.38-.11.04-.1.13-.22.11-.32-.02-.08-.16-.14-.26-.22.07-.03.14-.07.23-.11-.04-.09-.08-.17-.12-.27.09-.02.16-.04.27-.07-.13-.06-.23-.1-.36-.15.09-.08.15-.13.24-.21-.11-.04-.18-.06-.3-.1.11-.05.18-.08.25-.11-.05-.18-.11-.37-.17-.58.12-.09.16-.22-.11-.34.14-.08.25-.15.4-.24-.14-.02-.23-.03-.3-.03-.03-.19-.05-.36-.08-.54.07-.04.16-.09.27-.15-.1-.06-.18-.1-.3-.17.11-.08.18-.13.25-.18-.07-.06-.15-.12-.26-.2.11-.09.21-.16.32-.25-.06-.03-.13-.06-.19-.09.1-.41.05-.69-.14-.77.08-.07.17-.14.29-.24-.07-.04-.13-.07-.2-.1.24-.21.22-.35-.1-.5.07-.04.12-.07.16-.08.14-.04.2-.1.12-.24-.01-.02-.04-.05-.03-.06.29-.41.08-.89.18-1.33.09-.39.18-.78.25-1.17.1-.62.17-1.25.28-1.87.05-.25.17-.49.26-.73.05-.14.13-.28.16-.43.03-.17-.01-.31-.21-.39-.43-.16-.87-.31-1.29-.51-.5-.24-.97-.57-1.48-.79-.64-.28-1.31-.47-1.95-.74-.59-.25-1.16-.56-1.73-.84-.56-.27-1.12-.54-1.68-.81-.1-.05-.18-.12-.28-.15-.08-.03-.17-.03-.25-.04-.1,0-.21.04-.29,0-1.09-.56-2.19-1.13-3.27-1.72-.26-.14-.48-.37-.76-.6.05.14.08.26.13.38.19.44.37.89.81,1.16.13.08.2.16.05.32-.1.12-.1.33-.2.45-.11.14-.27.28-.43.32-.62.16-1.25.27-1.87.4-.47.1-.93.19-1.47.3.28.14.51.25.73.37.86.45,1.74.87,2.57,1.36.4.24.73.62,1.06.96.08.08.11.26.08.38-.09.42-.21.84-.32,1.25-.06.23-.11.45-.17.68-.03.11-.06.22-.1.34-.07.21-.13.43-.2.64-.09.29-.18.57-.27.86-.02,0-.05-.01-.07-.02.04.06.07.12.12.18-.34.14-.33.47-.41.73-.25.73-.47,1.48-.69,2.22-.26.85-.5,1.71-.76,2.57-.24.78-.44,1.57-.76,2.32-.16.37-.27.73-.36,1.11-.03.16-.14.3-.19.4.03.16.06.3.08.42-.16.09-.28.15-.4.21.01.03.03.06.04.09.06-.01.11-.02.2-.04,0,.08.02.15.03.24-.07.01-.13.01-.17.03-.05.03-.09.08-.14.12.06.03.13.1.19.1.16-.03.32-.08.5-.18-.1-.03-.2-.06-.33-.09.11-.17.46-.17.35-.49-.06.02-.12.03-.17.05-.02-.02-.03-.04-.05-.06.13-.1.26-.2.4-.31-.03-.02-.09-.05-.19-.11.08-.16.15-.31.23-.48-.23-.18-.03-.41.07-.61.16-.33.32-.66.39-1.03.03-.17.24-.31.36-.44-.03,0-.12-.03-.14-.04.12-.3.22-.59.34-.87.07-.17.17-.32.28-.47,0,.05-.01.1-.02.16.09.02.19.05.29.07.05-.07.11-.15.18-.25-.07-.04-.14-.08-.21-.13-.1-.15.07-.45.43-.75-.08-.27-.02-.38.27-.48.18-.06.3-.1.09-.3-.16-.15-.04-.31.08-.44.08-.09.18-.16.33-.3h-.29s-.01-.04-.02-.06c.06-.03.12-.05.18-.08,0-.01,0-.03-.01-.04-.04-.05-.14-.12-.13-.13.07-.09.13-.22.23-.25.19-.06.4-.07.6-.1.01.03.03.06.04.09-.12.13-.25.25-.37.38.28.07.31.13.61-.5h.63c-.07.09-.11.14-.16.2.12-.02.22-.05.39-.08-.12.17-.19.27-.27.39.06,0,.11.01.23.03-.06.19-.11.36-.16.54.06,0,.16-.01.28-.02-.08.24-.15.44-.22.64-.05-.03-.12-.07-.19-.11.22.35-.07.38-.32.46.12.06.2.1.33.17-.12.1-.22.18-.32.26.02,0,.07.02.13.04-.09.27-.02.62-.39.71.04.08.15.21.12.25-.1.17-.24.33-.49.32.07.03.13.05.2.08-.08.1-.17.19-.26.31q.09.16-.27.35c.13.11.26.23-.03.31-.02,0,0,.11-.03.17-.1.26-.19.52-.31.77-.14.31-.37.6-.45.93-.11.44-.42.72-.69,1.08.1.03.17.04.26.06-.07.17-.11.34-.21.49-.22.33-.37.67-.44,1.06-.06.33-.23.64-.3.99.13-.27.25-.54.38-.81.22-.45.46-.89.67-1.35.15-.32.26-.65.39-.97,0-.02.01-.03.02-.05.26-.37.51-.75.78-1.12.17-.23.37-.45.56-.67.04-.05.12-.1.17-.09.29.04.48-.12.65-.34.04.07.09.14.13.19-.15.08-.29.15-.43.22.02.03.03.06.05.09.16-.13.4-.01.53-.31.09-.22.33-.39.53-.56.19-.16.41-.28.62-.43-.03-.01-.09-.03-.11-.03.75-.77,1.45-1.64,2.63-1.62.26.14.5.26.72.39.01.21-.17.37-.07.59.01.03-.08.13-.14.18-.1.07-.23.11-.33.19-.34.29-.67.61-.92.99-.07.11-.17.2-.24.31-.19.31-.33.65-.61.9-.13.12-.15.34-.28.46-.37.34-.6.81-1.01,1.11-.13.1-.25.23-.35.37-.11.14-.17.31-.29.44-.21.23-.41.49-.67.66-.41.26-.63.66-.91,1.03-.27.36-.59.69-.89,1.04,0,.03.02.07.03.1.35.02.71.05,1.06.07,0-.63.3-1.09.63-1.54.22-.29.23-.28.5-.25.04.04.07.07.11.11l-.26.06s.01.04.02.06c.12.02.25.03.43.06-.12.09-.2.16-.28.23,0,.01,0,.03.01.04.1-.03.2-.06.3-.09-.16.14-.18.28-.03.44.03.03,0,.1,0,.15,0,.06-.01.12-.03.26-.09.09-.26.25-.43.41,0,.02,0,.04.01.07.26-.02.51-.06.77-.07.47-.03.94-.05,1.41-.08.51-.04,1.03-.06,1.54-.15.21-.03.4-.21.59-.32.07-.04.14-.1.2-.15.05.29.09.56.14.82.03,0,.05-.01.08-.02-.03.08-.06.16-.11.28.12-.05.19-.08.33-.14-.05.7-.1,1.37-.13,2.03-.03.64-.03,1.28-.08,1.92-.03.38-.1.75-.18,1.13-.05.24-.15.46-.24.69-.13.37-.47.53-.8.62-.35.1-.74.07-1.1.13-.69.11-1.37.26-2.06.37-.31.05-.63.04-.94.1-1.44.29-2.9.22-4.35.28-.52.02-1.04-.07-1.56-.11-.18-.01-.36.01-.54,0-.35-.01-.45-.09-.51-.45-.03-.17-.06-.34-.03-.47.08-.13.2-.25.24-.4.05-.16.23-.3.11-.5.08-.04.15-.08.23-.1.06-.01.13,0,.18.03.26.12.52.24.83.16.03,0,.11.13.16.2.06.1.11.2.19.33.1-.16.17-.29.25-.4.03-.04.09-.08.14-.08.36.01.71.04,1.07.05.55.02,1.1.02,1.65.03.53,0,1.05.02,1.58,0,1.28-.06,2.54-.28,3.79-.56.47-.11.68-.37.75-.83.15-1.01.32-2.02.5-3.03.04-.21.12-.41.18-.63-.72.07-1.45.13-2.17.21-.84.1-1.68.22-2.53.32-.28.03-.56.04-.84.06-.04,0-.09,0-.1.02-.12.24-.34.13-.5.11-.42-.05-.84-.11-1.25.02-.04.01-.09,0-.14,0-.37-.03-.74-.09-1.11-.09-.66,0-1.32.04-1.98.08-.28.02-.36.19-.38.46-.01.18-.07.36-.16.52-.25.43-.28.92-.39,1.39-.15.63-.26,1.26-.4,1.89-.03.14-.13.27-.21.45,0,.03.03.12.04.22,0,0-.1.03-.1.03-.13.33-.25.64-.37.95-.07.18-.11.37-.16.56-.05.16-.06.34-.14.48-.17.31-.03.64-.11.94-.09.33-.09.71-.35.93-.02.11-.05.19-.06.27-.03.27-.29.48-.22.79,0,.03-.02.06-.04.09-.06.14-.17.28-.17.42,0,.16-.03.26-.17.37-.08.06-.03.29-.05.46-.05.06-.13.15-.22.25.05.04.09.07.14.11-.06.05-.18.09-.2.17-.02.06.08.16.09.19-.16.28-.32.52-.44.79-.03.06.08.17.15.32-.38.28-.52.79-.68,1.32.07.08.25.18-.02.3-.1.05-.1.3-.16.5-.2.03-.25.18-.06.42-.02,0-.04.02-.07.03-.08-.05-.16-.1-.29-.17.03.16.05.29.07.43.03,0,.05,0,.08,0-.09.07-.17.15-.26.22-.31.23-.33.61-.4.93-.08.34-.23.61-.39.9-.12.22-.22.45-.33.68-.26.5-.52,1-.78,1.51-.03.05-.05.12-.03.17.07.3-.01.52-.28.67-.03.02-.07.06-.06.08.05.27-.2.37-.32.54-.02.02-.05.06-.04.08.1.23-.08.34-.17.51-.18.32-.25.7-.39,1.04-.07.18-.19.35-.29.51-.07.11-.21.19-.23.3-.05.26-.23.37-.46.44.03.1.05.18.07.27-.26.09-.33.23-.27.5.01.07.03.15.01.2-.15.37-.3.75-.48,1.12-.24.48-.5.95-.77,1.42-.1.17-.26.31-.4.47-.47-.43-.26-.91-.13-1.32.23-.75.54-1.49.84-2.22.17-.43.42-.83.59-1.25.41-1.02.8-2.04,1.2-3.06.06-.16.12-.32.17-.49.02-.07,0-.15,0-.14.06-.21.09-.36.15-.49.08-.17.18-.33.27-.5.31-.59.64-1.18.92-1.78.36-.78.7-1.57,1.03-2.36.2-.49.36-1.01.56-1.5.08-.2.24-.36.31-.56.15-.4.25-.82.4-1.22.16-.43.32-.87.52-1.28.33-.67.56-1.37.66-2.12-.05,0-.09-.02-.18-.03.16-.26.3-.51.47-.79-.07.04-.12.06-.2.11.02-.09.02-.15.05-.19.11-.18.16-.33.12-.57-.05-.23.09-.52.2-.75.13-.27.32-.5.5-.78-.08.03-.13.04-.22.08.41-.43.26-.99.48-1.43.05-.1.12-.19.17-.28-.02,0-.06-.02-.13-.05.12-.25.28-.49.34-.74.07-.32.23-.61.24-.95,0-.13.14-.24.19-.38.04-.09.04-.2.03-.3,0-.09-.08-.19-.05-.25.03-.06.15-.08.28-.14-.05-.11-.11-.24-.18-.41.11-.05.22-.1.31-.13-.01-.25-.03-.51-.04-.76.03,0,.06-.02.09-.03-.09-.05-.19-.1-.32-.18.14-.07.19-.09.18-.08v-1.05c.08,0,.16.01.24.02,0-.02,0-.03.01-.05-.08-.04-.16-.09-.27-.15.1-.09.17-.16.25-.24-.11-.06-.22-.13-.4-.23.19-.06.3-.1.45-.14-.08-.05-.13-.08-.19-.12.1-.09.21-.16.29-.25.04-.05.01-.15,0-.22,0-.02-.09-.04-.14-.03-.07,0-.15.03-.22.04.04-.1.07-.21.12-.3.03-.06.09-.1.11-.2-.08.02-.17.04-.3.06.07-.09.11-.16.16-.23-.03-.01-.05-.02-.08-.03.04-.11.06-.24.13-.32.11-.12.2-.18,0-.31-.04-.02-.02-.21.03-.27.08-.1.21-.15.31-.22,0-.03,0-.05-.01-.08-.14.05-.29.09-.48.15.05-.21.49-.22.16-.46.09-.06.19-.13.29-.19-.01-.02-.03-.04-.04-.07l-.18.1-.05-.04c.08-.11.14-.25.25-.31.1-.05.25-.01.39-.05-.14-.03-.28-.07-.5-.12.15-.07.22-.11.29-.14-.2-.15-.4-.3-.62-.47.1-.03.16-.05.23-.07-.07-.15-.13-.31-.21-.49.19-.09.36-.2.24-.5-.03-.08.18-.25.28-.37.05-.06.12-.12.21-.2-.51-.12-.59-.21-.59-.56.08,0,.16,0,.24,0,.24,0,.25-.04.16-.26-.02-.06.09-.25.13-.25.23.03.45.1.74.18-.14.06-.2.08-.27.11,0,.02,0,.03,0,.05.12.02.23.03.43.06-.1.06-.15.08-.25.14.13.1.23.18.34.26-.05.03-.12.07-.19.12.17.02.33.04.5.06-.14.09-.26.17-.32.2.03.26.04.46.07.65,0,.08.04.15.06.23-.08.22.08.4.35.41-.01-.09-.03-.19-.04-.28-.16.09-.25.01-.31-.13ZM57.8,85.9s.06-.05.08-.08c.04-.07.07-.14.11-.21-.06-.03-.13-.07-.19-.08-.15-.03-.3-.04-.48-.07.17.28.17.28.44.35.03,0,.04.06.06.09,0,.02.02.03.02.05,0,.01-.02.03-.03.03-.07.03-.2.04-.21.08-.02.07.03.17.05.27-.07.03-.16.06-.29.11.14.08.24.13.38.2-.12.05-.2.08-.28.12.05.08.09.15.12.19.17-.03.32-.06.45-.08v-1s-.05-.02-.07-.02c-.05.01-.1.03-.15.05ZM24.5,55.09c-.36-.33-.38-.77-.44-1.21-.06-.42-.2-.84-.3-1.25-.07-.28-.12-.56-.16-.84,0-.07.06-.14.1-.22-.02,0-.04.02-.06.03-.13-.33-.38-.67-.35-.98.02-.23-.01-.45-.04-.66-.04-.38-.11-.75-.18-1.12-.13-.67-.28-1.35-.41-2.02-.04-.19,0-.39-.03-.57-.04-.22-.13-.43-.18-.64-.12-.5-.21-1.01-.33-1.5-.15-.6-.34-1.19-.5-1.79-.07-.27-.14-.53-.19-.8-.04-.21-.06-.42-.1-.62-.01-.06-.06-.11-.08-.17-.16-.64-.32-1.27-.49-1.91-.09-.36-.21-.71-.3-1.07-.06-.24-.09-.48-.15-.71-.16-.67-.33-1.33-.48-2-.1-.46-.18-.92-.24-1.38-.03-.18-.05-.38.01-.53.15-.33.36-.63.55-.95.38-.64.89-1.17,1.47-1.63.17-.13.32-.29.48-.43-.07-.07-.11-.11-.16-.15-.28-.25-.54-.52-.96-.55-.39-.03-.79-.11-1.16-.25-.25-.09-.5-.26-.66-.47-.08-.1.01-.38.08-.55.26-.64.54-1.28.83-1.96-.44.14-.9.24-1.33.42-.72.31-1.42.67-2.13,1-.69.33-1.39.63-2.06.99-.56.3-1.08.66-1.62,1-.26.16-.52.33-.79.46-.28.13-.58.23-.87.34-.21.08-.35.17-.24.44-.05-.07-.09-.15-.17-.27-.84.45-1.68.89-2.51,1.35-.21.12-.39.29-.58.45-.12.1-.12.19-.01.34.2.27.37.56.55.85.02.03.01.09.02.13.04.32.08.64.42.8.06.03.11.1.14.16.14.31.27.62.44.99-.15-.15-.26-.26-.4-.41-.01.1-.03.13-.02.15.22.4.6.73.53,1.26-.02.17.02.36.03.54-.07.03-.14.06-.17.08.11.93.21,1.84.31,2.76.07,0,.14.02.21.03-.2.07-.32.15-.17.37.03.04,0,.12,0,.18,0,.27,0,.54,0,.87.37-.36.15-.73.14-1.1.26.11.27.32.3.51.05.43.1.86.16,1.29.02.12.07.24.08.37.03.28.04.56.06.87-.01,0-.07.04-.12.08.32.37.4.71.25.83.06.15.12.27.16.4.1.3.2.61.3.91.03.08.07.16.11.25.07.17.18.34.2.52.03.25.28.48.12.77-.01.02.06.09.08.13.03.06.05.11.07.17.09.43.17.85.25,1.28.1.57.2,1.15.3,1.72.08.47.12.94.21,1.41.1.54.23,1.06.33,1.6.06.32.02.66.12.96.17.5-.01,1.05.27,1.52,0,.01,0,.03-.01.05-.02-.02-.04-.03-.07-.05-.05.07-.13.13-.13.2-.02.19-.03.39,0,.58.09.5.24.99.32,1.49.1.61.15,1.22.22,1.83.02.16-.05.26-.21.3,0,0,0,.03,0,.05.07,0,.14-.01.24-.02-.12.24.17.54-.2.73.11.03.18.05.3.08-.1.12-.18.21-.27.32.06.04.12.07.19.11-.11.2-.2.39-.3.57.09.03.18.06.29.1-.1.14-.17.24-.25.36.19.06.26.16.21.37-.05.21-.04.43-.04.65,0,.17.02.35.03.56.04,0,.12.01.22.02-.11.12-.21.22-.31.34.07.02.15.05.23.08-.01.07-.04.14-.02.18.03.08-.05.81-.1.88-.04.06-.07.13-.07.2,0,.1.05.21.04.31-.03.25-.1.5-.12.75-.04.55-.08,1.1-.09,1.65-.02.65,0,1.3-.02,1.94-.01.85.28,1.67.19,2.53,0,.03.01.07.01.11,0,.28,0,.55,0,.83,0,.08.01.16.05.23.09.16.19.31.31.49-.08-.02-.13-.02-.22-.04.09.2.17.38.26.57-.01,0-.07.02-.13.04.11.34.14.7.33.94.14.18.16.25.09.45-.04.13.07.31.11.46.08.27-.14.59.12.83-.06-.04-.11-.08-.22-.16,0,.37,0,.68,0,.99,0,.17.05.34.09.55-.01.05-.04.17-.07.29.03,0,.06.02.09.03l.13-.23c-.08,1.31-.6,2.49-.97,3.72.04.03.09.07.13.11-.09.04-.2.05-.23.11-.06.1-.09.23-.13.34-.12.34-.22.68-.35,1.02-.14.36-.31.7-.44,1.05-.18.47-.31.96-.51,1.43-.09.22-.04.28.15.32.1.02.2.03.3.04.99.09,1.98.15,2.96.26.83.1,1.66.13,2.5.06.64-.06.64-.06.9.5.01.02.04.04.05.07.22.52.06.87-.51.95-.43.06-.88.06-1.32.04-.73-.03-1.47-.07-2.2-.15-1.1-.11-2.19-.25-3.27-.37-.04.27-.09.59-.15.92-.07.39-.16.78-.22,1.17-.04.22,0,.44-.15.65-.08.13,0,.36,0,.55,0,.06-.02.12-.02.18,0,.18,0,.35-.02.53-.01.1-.07.19-.1.29,0,.02,0,.03,0,.05.06.05.12.1.18.15-.03,0-.05,0-.08.01v1.09c.18.16.19.28.03.54.05.07.08.12.12.18.26.36-.18.83.17,1.19.04.04-.03.19-.03.29,0,.14-.01.29,0,.43.08.58.18,1.17.25,1.75.06.53.1,1.06.14,1.59,0,.12,0,.24.03.34.11.34-.23.72.11,1.02-.18.02-.34.04-.5.05.52.09.54.16.46.72-.04.25.03.53.07.79.01.08.08.15.13.22-.06.16-.07.34-.08.52,0,.02,0,.05,0,.06-.11.13-.24.25-.33.39-.06.09-.12.22-.11.32.03.31.09.62.15.99.07-.17.11-.3.16-.43.07.34.13.66.12.98-.01.46.14.93-.04,1.39-.06.15-.04.41.06.51.11.12.08.2.05.29-.07.21-.13.41.08.58.03.02.01.09.02.12-.08-.03-.16-.05-.2-.07.02.25.04.46.04.66.01.32-.35.25-.51.47.17.02.3.04.44.06.05.32-.23.46-.36.63.09.09.23.16.22.21-.04.2-.12.4-.2.62.15.11.15.24,0,.37.19.19-.06.26-.16.44.16-.02.28-.03.33-.04.16.22.31.42.45.62.04-.04.08-.08.11-.13.04.08.05.18.11.23.22.23.46.45.69.68.07.07.11.18.15.25.12.03.26.04.36.11.19.13.35.29.52.45.84.79,1.88,1.24,2.92,1.63,1.31.49,2.69.68,4.09.65.44-.01.91-.05,1.3-.22,1.18-.51,1.87-1.56,2.6-2.55.11-.15.26-.28.3-.44.1-.41.46-.61.65-.95.27-.48.69-.89.99-1.36.4-.63.76-1.28,1.1-1.94.2-.39.31-.82.48-1.22.23-.55.47-1.11.74-1.65.29-.57.56-1.15.67-1.79.04-.21.12-.41.2-.6.18-.46.37-.93.55-1.39.05-.14.12-.29.12-.44,0-1.01.31-1.97.5-2.94.11-.53.23-1.06.28-1.6.05-.47.02-.96.03-1.44,0-.23.09-.37.35-.39.18-.01.36-.09.58-.14-.16-.62-.35-1.21-.45-1.81-.12-.73-.21-1.47-.25-2.21-.03-.58.04-1.16.07-1.75,0-.04.03-.09.03-.13,0-.22,0-.44,0-.66-.01-.19-.06-.38-.06-.56,0-.3.06-.6.03-.89-.05-.54-.17-1.07-.22-1.6-.14-1.68.1-3.32.59-4.92.22-.74.54-1.45.57-2.23.01-.29.09-.58-.21-.78-.03-.02-.03-.1-.04-.15-.23-.68-.46-1.35-.7-2.03-.16-.47-.34-.93-.51-1.39-.13-.36-.25-.73-.39-1.09-.03-.07-.12-.12-.19-.18.03-.11,0-.22-.01-.33-.03-.36-.38-.62-.4-.99.02,0,.05-.02.07-.02-.06-.03-.12-.06-.19-.09.05-.05.08-.1.12-.14-.3-.18-.39-.58-.3-.87.01-.04-.05-.1-.08-.15-.14.2-.13-.05-.17-.05.02-.11.04-.21.06-.31-.01,0-.02,0-.03,0-.04.06-.07.13-.13.21-.34-1.06-.66-2.08-1-3.14.09.07.16.13.21.17.13-.39-.08-.65-.36-.88.05-.04.09-.08.12-.1-.16-.27-.63-.13-.68-.54.12,0,.22.01.38.02-.37-.36-.53-.73-.64-1.15-.1-.39-.27-.76-.41-1.15-.06-.16-.18-.33-.16-.48.04-.33-.17-.59-.19-.91,0-.1-.06-.21-.11-.31-.13-.25-.27-.49-.4-.74-.01-.02.05-.08.08-.12-.14-.08-.33-.12-.22-.35.01-.02-.02-.08-.04-.1-.15-.11-.25-.25-.31-.44-.05-.17-.12-.32-.15-.51-.05-.33-.18-.65-.26-.97-.08-.37-.13-.75-.22-1.12-.03-.13-.13-.24-.2-.36,0,0,.04-.02.06-.03-.25-.96-.49-1.9-.74-2.84.02-.01.04-.02.06-.04.09.05.18.1.26.15ZM34.24,33.05c-.38-.13-.65-.01-.61.41.03.34-.03.68-.05,1.02,0,.03,0,.06-.01.08-.25.23-.15.55-.22.83-.03.09-.08.17-.11.24,0,.11.05.23.02.33-.08.29-.21.57-.27.87-.12.58-.18,1.17-.3,1.76-.1.47-.23.93-.38,1.38-.14.43-.39.83-.29,1.31,0,.03,0,.05,0,.08-.06.5-.12,1-.19,1.51-.17,1.28-.35,2.57-.52,3.85-.1.69-.19,1.38-.31,2.07-.09.5,0,1.04-.35,1.47,0,.01,0,.03,0,.05,0,.58,0,1.15,0,1.73,0,.08-.08.16-.1.2.04.13.11.25.11.36,0,.32-.04.65-.08.97-.02.14-.11.27-.13.41-.04.35-.06.7-.08,1.05,0,.16,0,.32,0,.47-.01.32-.02.65-.06.97-.04.35-.14.7-.15,1.05-.02.4.03.8.06,1.2.01.21.04.41.04.62,0,.24-.05.48-.05.71,0,.51.03,1.02.12,1.53.05.28.08.56.13.83.08.41.17.82.25,1.24.13.63.22,1.28.38,1.9.13.49.34.96.5,1.44.13.39.21.8.36,1.19.19.51.37,1.01.66,1.49.13.22.09.54.14.88.2.09.23.34.19.56.18.2.32.37.5.57.16-.51.38-1,.45-1.5.14-1,.49-1.95.69-2.93.08-.38.21-.75.29-1.13.09-.43.16-.87.24-1.3.16-.91.32-1.81.5-2.72.13-.65.29-1.29.44-1.94.06-.26.09-.53.13-.79-.02,0-.04,0-.06-.01.06-.03.12-.06.15-.08-.03-.08-.07-.13-.07-.18,0-.15.02-.31.03-.46.02-.18.04-.36.07-.53.01-.1.05-.2.04-.3-.05-.59-.11-1.18-.16-1.76,0-.08.02-.16.02-.22.1-.01.18-.03.26-.04,0-.02,0-.04,0-.06l-.34-.2s0-.05,0-.07c.14-.03.28-.05.42-.08,0-.02.01-.05.02-.07-.1-.05-.21-.09-.3-.15-.07-.04-.13-.11-.19-.17.05-.05.09-.12.15-.16.08-.06.18-.1.26-.15-.06-.25-.67-.2-.33-.63-.04-.05-.13-.13-.12-.14.06-.09.13-.16.18-.21-.07-.08-.16-.17-.24-.27.02-.02.04-.04.06-.07.12,0,.23.01.36.02-.16-.13-.3-.25-.44-.36l.06-.07c.07.04.13.09.24.16-.38-.59-.38-.6-.1-.68-.02-.08-.04-.15-.06-.23-.03-.12-.06-.24-.08-.36-.02-.09-.05-.2-.02-.28.08-.19.13-.35-.03-.53-.04-.05-.04-.15-.05-.23-.04-.23.13-.48-.1-.69-.02-.02-.02-.07-.02-.11.08-.45,0-.88-.04-1.33-.08-.73-.04-1.47-.09-2.21-.01-.25-.08-.49.02-.73,0,0,0-.02,0-.03.01-.17.02-.34.03-.5,0-.14-.12-.35-.06-.42.18-.24.12-.37-.02-.44-.02-.33.01-.61-.06-.86-.12-.46-.23-.92-.19-1.41,0-.11-.02-.22-.04-.32-.1-.49-.23-.97-.32-1.46-.08-.47-.13-.95-.19-1.43-.08-.64-.16-1.28-.22-1.93-.02-.22,0-.45-.02-.67-.03-.21-.12-.41-.13-.62-.03-.44.21-.88-.05-1.31,0,0,0-.02,0-.03-.05-.42-.11-.85-.16-1.27ZM26.27,41.34s-.1-.04-.23-.1c.21-.08.35-.14.49-.2,0-.02-.01-.03-.02-.05-.09,0-.19,0-.26-.01-.04-.19-.07-.36-.11-.55,0,0,.04-.02.08-.04-.1-.15-.27-.29-.06-.41-.05-.05-.14-.1-.15-.16-.03-.22,0-.46-.05-.67-.1-.34-.12-.69-.02-1.02.06-.23.05-.42-.02-.63-.02-.06-.05-.12-.06-.18,0-.31,0-.61,0-.93h.37c-.23-.16-.42-.29-.61-.42,0-.01.01-.03.02-.04.05,0,.1.02.16.03-.23-.5-.23-.66.02-.87-.05-.03-.1-.06-.14-.09.05-.14.16-.31.12-.39-.13-.24.03-.42.11-.67-.17.07-.29.12-.42.17-.09-.16-.16-.28-.2-.35.19-.15.35-.27.56-.44-.24-.06-.38-.08-.51-.14-.05-.02-.09-.15-.07-.19.07-.12.18-.22.32-.38-.58.05-.58-.28-.51-.66.13-.03.26-.05.39-.08-.07-.37-.51,0-.56-.33.16-.07.29-.12.43-.18-.12-.22-.26-.35-.22-.6.03-.18.07-.45-.27-.52-.14-.03-.15-.2,0-.22.12.1.21.16.3.23.02-.03.05-.05.07-.08-.14-.15-.28-.31-.42-.46-.08-.06-.15-.16-.14-.25.06-.54-.23-1.04-.14-1.58.05-.32-.02-.66-.04-.98-.03-.47-.06-.93-.08-1.4,0-.13,0-.26,0-.4.11,0,.18.01.27.02-.13-.13-.25-.24-.37-.35l.12-.02c.04-.09.1-.18.11-.27.04-.22-.07-.32-.31-.3,0-.03-.01-.05-.02-.08.1-.06.2-.12.32-.2-.2-.52.07-1.12-.16-1.67-.04.18-.07.36-.11.54-.04,0-.07-.01-.11-.02.03-.17.05-.35.09-.56-.15.22-.28.41-.41.59-.16.22-.31.43-.47.65-.2.27-.42.52-.61.79-.31.43-.57.89-.9,1.29-.52.64-.96,1.32-1.27,2.09-.2.51-.18.56.36.65.86.14,1.64.53,2.42.88.18.08.4.27.43.44.03.19-.07.43-.27.61-.74.63-1.47,1.27-2.18,1.92-.36.33-.63.71-.5,1.24.07.26.15.52.2.79.18.84.34,1.69.51,2.53.16.76.33,1.52.5,2.27.02.1.09.19.14.29l.07-.02c-.04.06-.07.13-.12.21.08,0,.13,0,.19-.01-.13.15-.2.29.07.37-.21.26,0,.44.16.63-.18.04-.25.09-.14.24.06.08.09.19.13.29.04.1.06.2.1.29.05.13.1.25.15.38.03.13.12.26.08.35-.05.14-.1.24.06.34.04.03.03.13.04.19-.08.02-.14.03-.23.06.16.05.27.09.38.13,0,.02-.01.05-.02.07-.07,0-.13,0-.21.01.28.25.56.95.46,1.18-.02-.07-.02-.15-.05-.18-.06-.06-.14-.08-.21-.12-.03.07-.06.14-.07.21,0,.05.02.12.05.15.16.14.32.27.47.39,0,.12,0,.24.03.34.07.31.14.62.23.92.15.53.31,1.05.47,1.57.05.17.11.33.14.5.06.29.09.58.17.87.06.25.24.5.23.73-.02.34.22.64.06.99-.05.11.05.29.08.49,0,0-.04.06-.06.09.06.12.11.2.14.29.06.18.04.42.16.53.22.21.12.35-.02.52.2.04.24.17.16.37.07.12.15.19.14.25,0,.09-.08.17-.13.27.07-.02.13-.03.2-.05.06.67.23,1.28.51,1.87.11.24.13.52.2.78.04.18.07.35.11.52,0,.04,0,.09,0,.13.15.36.26.73.24,1.13,0,.06.06.13.09.19.03.06.08.12.1.19.08.3.13.6.23.89.15.44.34.87.51,1.3-.04,0-.09.02-.12.03.06.17.13.31.17.46.11.48.2.97.32,1.44.14.55.3,1.1.47,1.65.05.17.17.31.21.48.09.34.14.69.23,1.03.18.66.37,1.31.57,1.97.25.82.5,1.64.75,2.46.14.47.24.96.41,1.42.36.96.73,1.91,1.13,2.85.24.56.55,1.09.83,1.63.03-.01.05-.02.08-.03-.03-.11-.08-.22-.1-.33-.03-.17-.08-.36-.04-.52.09-.44.25-.86.34-1.3.04-.19.03-.41-.01-.61-.1-.5-.42-.87-.76-1.23-.09-.09-.18-.19-.23-.3-.11-.23-.21-.47-.31-.72-.13-.35-.25-.7-.37-1.06-.1-.31-.19-.62-.3-.93-.1-.29-.21-.57-.31-.85-.02-.07-.05-.14-.06-.21-.03-.2-.03-.4-.08-.6-.08-.33-.21-.64-.28-.97-.04-.17,0-.36,0-.54,0-.07-.05-.13-.07-.21-.02-.12.02-.25-.02-.35-.2-.5-.26-1.03-.32-1.57-.04-.38-.07-.78-.2-1.14-.17-.51-.05-1.03-.13-1.54-.07-.43-.09-.87-.13-1.3-.03,0-.07-.01-.1-.02-.02.06-.06.12-.05.18.04.18.11.36.14.54.01.08-.05.18-.07.26-.08-.03-.2-.05-.24-.11-.07-.12-.09-.26-.13-.4-.07-.24.16-.46.05-.72-.05-.11-.16-.3.01-.44-.07-.08-.13-.15-.18-.21.07-.27.34.1.44-.18-.09-.02-.13-.02-.17-.03-.05-.01-.1-.02-.15-.03-.16-.04-.16-.11,0-.26-.07-.13-.14-.26-.22-.39-.04-.06-.13-.15-.12-.17.04-.07.13-.12.2-.16.08-.04.18-.07.31-.12-.25-.1-.5-.08-.54-.38-.02-.17-.08-.33-.11-.45.08,0,.21,0,.33,0,.01,0,.04-.12.02-.13-.1-.08-.22-.14-.37-.23.02-.03.07-.1.11-.16-.06-.05-.12-.1-.27-.22.16-.07.25-.12.37-.17-.14-.08-.21-.13-.31-.19.11-.07.19-.13.29-.2-.09-.06-.15-.1-.22-.15.06-.07.11-.12.16-.18-.11-.07-.19-.13-.28-.18.11-.11.41-.21.01-.29-.04,0-.06-.09-.12-.19.12.06.18.09.25.12.02-.01.04-.02.06-.03-.05-.13-.07-.28-.16-.38-.16-.18-.15-.41.09-.51-.2-.22-.42-.46-.06-.7-.44-.28.22-.33.08-.54-.05-.01-.11-.03-.15-.03-.1-.14.41-.36,0-.4-.02-.11-.04-.19-.04-.26,0-.37,0-.73,0-1.14-.08.08-.13.12-.17.15-.04-.06-.09-.12-.16-.22.41.05.29-.2.29-.36,0-.18-.03-.36-.04-.54-.24-.05-.28-.12-.2-.38-.05-.19-.1-.38-.07-.56.02-.13.02-.18-.11-.21-.04-.01-.08-.06-.13-.1.17-.11.47-.16.21-.44,0,0,.02-.04.03-.07.1-.29-.05-.53-.15-.78-.03-.07-.11-.12-.17-.19.01-.01.04-.05.08-.1-.28-.11-.17-.3-.1-.47-.12-.02-.23-.05-.35-.07,0-.02,0-.04,0-.05.06,0,.13-.01.14-.01,0-.13.01-.24.02-.34-.04-.03-.14-.06-.14-.09.01-.15.05-.31.09-.47-.07-.02-.13-.04-.2-.06.32-.23.31-.3-.07-.61.1-.07.19-.15.28-.22-.16-.09-.28-.16-.46-.26.15-.02.21-.03.27-.04,0-.02.01-.04.02-.07-.15-.08-.3-.16-.49-.26.13-.04.21-.07.36-.12-.17-.11-.28-.19-.38-.26.07-.05.15-.11.26-.19-.15-.05-.24-.09-.36-.14.11-.06.17-.1.24-.14.02-.03.04-.06.06-.09-.11-.05-.22-.1-.34-.15.2-.17.36-.28.06-.4-.05-.02-.04-.18-.07-.31ZM42.54,19.58s.08.03.11.05c.04.22.12.43.12.65.01.39.04.8-.03,1.18-.06.3-.23.59-.38.87-.1.19-.2.48-.36.53-.25.07-.25.32-.44.41-.08.03-.14.14-.19.23-.13.23-.21.48-.37.68-.27.34-.6.64-.88.97-.35.41-.49.98-.97,1.29-.02.01-.02.05-.03.07-.09.25-.35.45-.58.44-.02.12,0,.29-.07.36-.09.09-.26.09-.39.15-.05.02-.1.06-.14.11-.05.07-.06.17-.12.21-.12.09-.26.14-.38.23-.16.11-.32.22-.46.36-.21.21-.41.44-.59.68-.17.22-.45.38-.41.74.54-.07,1.07-.15,1.6-.21.89-.1,1.78-.22,2.67-.27.23-.01.48.24.72.37-.11.3.12.26.28.28.17.02.26.09.27.27.03.58-.11,1.11-.39,1.62-.06.11-.14.21-.21.32-.01.02-.01.04-.02.07.07,0,.13-.02.14-.02.03.16.06.3.08.44-.21-.09-.32.02-.35.23-.07.42-.42.5-.75.6-.36.11-.74.18-1.11.27-.02,0-.05,0-.07,0-.35-.13-.7-.24-1.03-.39-.19-.09-.35-.32-.54-.34-.46-.06-.84-.26-1.23-.48-.18-.1-.39-.13-.6-.2,0,.38-.04.72.01,1.04.03.17-.06.36-.02.46.17.39.07.79.13,1.18.06.37.06.74.1,1.11.05.43.15.86.16,1.29.02.71,0,1.42-.01,2.13,0,.06.03.12.05.18.12.46.24.91.35,1.37.08.35.15.7.21,1.05.07.4.12.8.19,1.2.04.2.11.39.18.64,0,.03-.05.14-.04.25.03.31.08.62.11.94.03.33.03.67.07,1,.07.68.19,1.35.24,2.03.06.9.08,1.81.11,2.71.03.87.05,1.74.07,2.61,0,.54,0,1.08,0,1.62.12-.29.17-.6.24-.9.11-.5.23-.99.35-1.49.04-.15.09-.29.14-.46,0,0-.05-.02-.11-.05l.1-.04c.02-.11.04-.22.06-.32.04-.2.09-.4.16-.67,0-.02-.03-.19,0-.2.23-.1.2-.32.15-.44-.1-.26.03-.34.18-.4,0-.13,0-.24.03-.33.05-.2.2-.42.16-.59-.08-.29.07-.51.09-.76,0-.04.12-.07.19-.09.08-.02.16-.04.23-.05v-.07c-.3-.01-.32-.19-.25-.41.01-.04.03-.09.04-.13.03-.17.25-.3.07-.5.21-.17.09-.41.14-.62,0-.04.07-.07.1-.12.04-.07.07-.15.09-.22.02-.05,0-.11.02-.16.08-.29.17-.57.24-.86.02-.08.04-.18.01-.26-.07-.23.02-.35.22-.44.06-.02.11-.07.17-.1,0-.01-.01-.03-.02-.04-.1.02-.2.04-.34.08.03-.11.05-.2.07-.28.07-.26.17-.52.21-.79.08-.49.13-.99.19-1.48.01-.1,0-.2.04-.29.04-.08.11-.15.17-.22-.14-.21.12-.22.22-.29-.05-.16-.09-.31-.12-.41.3-.38.29-.84.43-1.24-.03-.09-.07-.19-.11-.32.14.02.21.03.32.05q-.26-.21.05-.91c-.06-.03-.12-.06-.17-.1.16-.23.35-.41.32-.72-.02-.17.08-.37.18-.52.07-.1.24-.13.4-.2-.13-.03-.24-.06-.42-.1.11-.18.2-.33.28-.46,0,0-.03-.01-.11-.04.11-.05.17-.09.29-.14-.14,0-.21-.02-.29-.02,0-.03-.02-.06-.03-.1.17-.07.33-.14.57-.24h-.42c.02-.07.05-.14.03-.17-.1-.19-.05-.32.17-.39,0,0,0-.03,0-.05-.07-.03-.14-.06-.23-.11.05-.13.08-.26.15-.35.09-.12.16-.2.08-.38-.09-.18.05-.29.25-.25.05,0,.1,0,.16,0,0-.02,0-.04,0-.06-.09-.02-.18-.05-.31-.08.12-.11.31-.22.09-.36,0,0,0-.05.01-.07.09-.14.18-.27.27-.41-.16-.12-.15-.11-.04-.31.06-.11.07-.24.11-.39.02,0,.1,0,.18-.02-.09-.06-.16-.11-.23-.16.07-.09.14-.18.17-.21-.03-.12-.09-.22-.06-.29.04-.11.13-.19.18-.26-.02-.1-.09-.22-.08-.34.04-.26.12-.52.17-.78.09-.47.14-.94.24-1.4.04-.2.23-.39.22-.57-.02-.21.06-.27.21-.34-.05-.08-.13-.15-.12-.2.07-.36.11-.75.26-1.08.19-.42.12-.83.07-1.25-.03-.31-.18-.62,0-.94.1-.17.17-.36.22-.55.12-.51.2-1.02.04-1.53-.02-.06-.02-.14.01-.18.18-.22.02-.41-.06-.6-.27-.67-.55-1.34-.85-2-.13-.3-.27-.6-.47-.86-.24-.33-.72-.45-1.03-.32-.31.13-.6.28-.93.44.17.19.32.39.5.57.04.04.18.03.25,0,.2-.07.38-.16.61-.05.15.07.34.04.51.06.01,0,.02.02.07.05-.07.04-.14.07-.2.11ZM36.52,27.68c.42-.4.8-.73,1.15-1.1.48-.5.93-1.03,1.39-1.54.04-.05.14-.06.22-.06.1,0,.2.01.3.01.02,0,.05-.02.1-.04-.11-.04-.16-.06-.19-.07.48-.78.95-1.54,1.42-2.3-.33-.15-.63-.28-.92-.43-.34-.18-.65-.44-1.01-.56-1.16-.4-2.34-.75-3.52-1.12-.89-.27-1.78-.13-2.65.1-.54.14-1.08.3-1.61.47-.44.14-.9.26-1.28.5-.64.4-1.23.89-1.85,1.35.16.27.29.53.46.76.52.69,1.07,1.34,1.79,1.84.53.37.99.83,1.34,1.4.22.36.53.68.73,1.05.15.29.36.41.65.44.79.08,1.58.15,2.37.21.06,0,.13-.07.18-.13.19-.25.37-.51.57-.76.1-.12.24-.19.4-.32,0,.12-.01.17-.02.29ZM27.9,42.87s.12.07.13.12c.03.17.03.35.04.52.02.28,0,.57.07.84.11.44.21.87.26,1.33.05.46.24.9.14,1.4-.05.25.03.58.08.83.09.41.12.81.14,1.22.06.96.1,1.92.17,2.88.04.62.1,1.24.17,1.85.09.74.2,1.48.31,2.23.01.09.07.19.06.28-.01.17,0,.31.19.37.04-.11.12-.23.12-.34,0-.46-.08-.93,0-1.38.19-1.23.15-2.46.16-3.7,0-.32-.1-.65-.08-.97.05-.82.14-1.63.22-2.45.12-1.14.23-2.28.37-3.42.13-.98.29-1.95.45-2.92.06-.38.14-.76.21-1.13.09-.47.17-.94.28-1.41.06-.25.21-.49.27-.74.08-.4.1-.8.16-1.2.04-.24.13-.48.2-.72.02-.03-.03-.08-.02-.14.06-.54.15-1.08.2-1.62.01-.16.17-.42-.21-.46.31-.09.37-.31.29-.94-.11.01-.22,0-.33.04-.22.07-.44.15-.65.23-.3.12-.64.19-.9.38-.39.29-.82.44-1.26.59-.36.12-.72.26-1.09.37-.1.03-.22-.02-.34-.04,0-.02,0-.04.01-.06.09,0,.19.01.28.02,0-.02.02-.03.02-.05-.15-.1-.29-.21-.5-.36.11-.04.18-.07.27-.11-.13-.1-.2-.15-.3-.21.08-.03.12-.05.22-.08-.41-.34-.8-.66-1.18-.98-.03.02-.06.05-.1.07.05.19.1.38.15.56.08.29.2.58.25.88.09.57.15,1.14.22,1.72.02.2.11.44.04.59-.09.19.02.3.04.45.04.23.05.46.08.7-.03,0-.05,0-.08.01.06.05.13.1.19.15-.03.21-.04.42.05.57.08.13.13.2.04.33-.03.04-.03.1-.02.16.04.25.09.5.12.75.05.35.08.7.12,1.04.02.17.1.35.06.49-.07.23,0,.41.09.58.13.28.15.55.11.87ZM25.63,26.09c-.1.11-.17.2-.28.32.18-.09.29-.14.39-.19v1.12s-.07.13-.08.23c0,.1.04.2.05.3.04.3.06.61.11.91.01.09.08.16.12.24-.22.3.05.61.02.92.08-.18.13-.37.22-.55.09-.18.25-.32.35-.5.17-.29.49-.32.73-.48.28-.17.54-.14.85.01.46.23.96.38,1.43.59.53.24,1.03.54,1.56.77.45.19.93.33,1.4.48.03,0,.13-.09.12-.11-.03-.09-.09-.18-.12-.22.11-.18.23-.36.35-.55-.03-.03-.06-.05-.08-.07-.02-.02-.03-.05-.07-.1.58.04,1.12.09,1.59-.29-.29-.06-.59-.05-.88-.06-.82-.04-1.42-.22-1.72-1.07-.18-.52-.44-1.01-.91-1.32-.81-.53-1.52-1.16-2.13-1.9-.42-.52-.8-1.07-1.19-1.61-.03-.05,0-.14,0-.21-.13-.27-.24-.57-.41-.83-.3-.44-.46-.9-.38-1.43.04-.32.11-.65.18-1.06-.37.26-.7.46-.98.72-.22.2-.4.47-.53.74-.12.25-.16.54-.2.81-.05.3-.08.6-.11.91.09.01.16.02.22.02-.08.09-.2.17-.2.26-.01.28,0,.57.04.85.04.35.1.7.14,1,.11.14.25.24.29.37.08.26-.06.58.27.78-.08.05-.13.07-.19.11.02.05.05.11.05.11ZM46.07,47.87c.15.03.19.04.23.05-.04.06-.06.13-.11.17-.07.06-.15.09-.23.13.08.05.15.11.23.16.03.02.05.03.08.05-.36-.05-.42.19-.49.45.2-.03.38-.06.55-.09-.09.08-.19.11-.28.15-.06.03-.15.06-.17.11-.06.2-.1.4-.15.6-.02.1-.05.19-.08.28-.08.24-.16.49-.24.75.42.05.76.08,1.08.12-.01-.3-.05-.59-.03-.87.02-.32-.07-.65.1-.97.07-.13.05-.31.08-.49.07-.17.15-.39.24-.64-.09-.22-.33-.11-.52-.11-.08,0-.15.07-.28.14ZM27.42,31.3c.19-.06.37-.12.55-.17.2-.05.33-.19.37-.36.04-.14.04-.35-.04-.43-.11-.1-.31-.13-.47-.13-.1,0-.23.11-.28.21-.09.17-.13.37-.2.56.26.06.15.2.07.32ZM32.86,83.89c-.49-.18-.65-.11-.73.34-.04.21-.17.45.07.68.22-.34.43-.67.65-1.01ZM35.61,37.62c.28-.14.08-.28.06-.42-.06-.37-.09-.75-.16-1.12-.01-.08-.11-.14-.18-.22-.04.09-.14.24-.12.26.19.2.08.45.14.66.08.27.16.54.25.84ZM10.15,77.22h.11c.09-.6.03-1.2-.02-1.84-.07.05-.14.08-.14.1.01.58.03,1.16.05,1.74ZM10.44,78.29h-.05c0-.13-.01-.26-.02-.4,0-.12.01-.24,0-.35,0-.06-.06-.11-.09-.16-.04.05-.1.1-.1.15,0,.45,0,.9,0,1.35.05,0,.09,0,.14,0,0-.09,0-.17.01-.26.02-.12.07-.23.1-.35ZM39.24,31.53h-.71l-.02.11c.25.09.49.19.77.29-.02-.17-.03-.28-.04-.4ZM10.47,83.46c.09-.32-.22-.74.31-.95-.41.02-.63.25-.55.5.02.06.06.14.04.19-.1.22.05.21.2.26ZM39.07,29.83c.36.11.75-.05,1.16.13-.12.07-.18.1-.23.14,0,0,.01.01.02.02.11-.03.22-.06.33-.08-.06-.3-.75-.4-1.27-.21ZM11.13,102.1s-.07,0-.1.01c.05.41.1.83.15,1.24.27-.45-.07-.83-.05-1.25ZM11.49,107.1c-.04-.41-.08-.76-.11-1.1h-.09c0,.33,0,.65,0,.98,0,.03.09.06.19.12ZM40.19,30.94c.03.09.06.17.11.3.06-.64,0-.69-.55-.55.14.07.23.12.32.16-.02.04-.05.09-.11.22.12-.07.17-.1.23-.13ZM35.25,34.48c-.05.08-.08.1-.08.12.03.31.04.62.09.93.03.17.14.15.22.08-.08-.38-.15-.72-.23-1.12ZM35.29,29.73c.09-.43-.11-.64-.53-.54.19.19.34.35.53.54ZM28.86,30.46s0,.06,0,.08c.34.2.64-.07.96-.07,0-.03,0-.05,0-.08-.32.02-.64.04-.95.06ZM11.38,103.62s-.11-.05-.24-.12c.02.31.03.57.04.84.02,0,.03,0,.05,0,.05-.23.09-.46.15-.71ZM40.7,116.78s.04-.04.06-.07c-.14-.22-.22-.51-.64-.43.22.19.4.34.58.5ZM29.04,59.1l.11-.03c-.01-.25,0-.5-.16-.7-.03,0-.06.01-.09.02.05.24.09.48.14.71ZM10.26,75.3v-.65c-.07.09-.15.14-.15.2-.04.39-.02.41.15.45ZM10.69,103.55s-.06,0-.08.01c.05.28.09.56.14.83.04,0,.08,0,.12-.01-.03-.28-.1-.56-.17-.83ZM27.17,41.16c-.14.06-.21.09-.28.11.07.14.12.24.21.42.03-.21.04-.33.07-.54ZM27.05,40.69s-.05-.01-.08-.02c-.04.11-.08.22-.12.33.1.02.18.04.27.06-.02-.13-.05-.25-.07-.38ZM10.38,82s-.1,0-.15,0v.34c.05-.01.15-.02.15-.05.01-.1,0-.2,0-.3ZM50.57,40.22l-.04-.11-.42.06s.02.1.03.15c.14-.03.29-.06.43-.1ZM39.57,65.89s-.05-.03-.07-.05c-.1.22-.21.43-.31.65.02.01.04.02.07.03.11-.21.21-.42.32-.63Z"/>
      <path class="cls-1" d="M.64,78.49c-.07.03-.11.04-.2.08.09.08.16.14.23.2-.02,0-.04,0-.07.01.02.24.06.48.07.72,0,.08-.05.17-.08.25,0,.05.02.13.03.21-.1,0-.2.02-.3.03,0-.09,0-.18.01-.28,0,0-.02,0-.03,0l-.07-1.14s.02,0,.02,0c-.01-.15-.04-.31-.04-.46.02-.71.07-1.41.08-2.11,0-.68-.04-1.36-.05-2.05,0-.06.05-.12.05-.18,0-.13.28-.27-.02-.38-.01,0,0-.08,0-.13,0-.18,0-.36.02-.54,0-.08.04-.17.08-.3-.15-.27-.1-.63-.09-.99,0-.41,0-.82-.01-1.24,0-.36,0-.72.04-1.09.03.07.06.14.1.27,0-.2.08-.38-.21-.38v-.51h.12v-.48s-.03,0-.05,0c-.03.1-.06.21-.09.31l-.08-.02c.04-.2-.1-.43.16-.59-.31-.29-.07-.65-.13-.96.06-.04.13-.08.2-.13.04-.03.08-.08.11-.12.04.06.11.12.11.17-.02.36-.05.71-.08,1.09.05.04.23.06.06.24-.03.03.08.17.08.26,0,.31-.01.63-.01.94,0,.09.04.19.07.29-.26.1,0,.29-.04.47-.05-.01-.09-.02-.15-.04.05.23.1.44.16.67-.03.02-.08.05-.14.09.07.09.13.16.21.25-.14.15-.09.25.06.28-.04.09-.1.17-.11.26-.01.11.02.23.03.34.06.42-.02.83-.04,1.25,0,.08.03.16.03.24,0,.11-.04.22-.07.35.09.05.18.14.03.3-.03.04-.02.12-.02.19,0,.12,0,.25.01.37,0,.08.03.16.07.31-.12.15-.12.39-.03.65.02.07-.03.17-.03.25-.04.54-.08,1.08-.1,1.62-.02.32,0,.64,0,.96,0,.06.05.11.09.19Z"/>
      <path class="cls-1" d="M.45,81.56c-.22-.22-.22-1.22.05-1.49.09.08.17.16.22.2-.02.25-.05.45-.05.66,0,.33-.01.67,0,1,.01.35.1.71.05,1.04-.03.19.09.42-.11.59-.04.03.05.21.07.32.01.07.02.15,0,.22,0,.03-.11.02-.17.02,0-.06,0-.12-.01-.19-.01-.15.02-.32-.05-.44-.13-.24-.06-.47-.06-.71,0-.29-.03-.58-.03-.88,0-.11.06-.23.1-.36Z"/>
      <path class="cls-1" d="M60.23,41.17c.03-.23.05-.47.09-.69.13-.62.26-1.24.41-1.86.04-.19.12-.38.18-.57.02-.05.04-.14.06-.14.3-.02.27-.26.32-.47-.06,0-.12-.01-.25-.02.14-.08.22-.13.3-.17-.22-.35.2-.58.13-.89.16.58.07,1.13-.24,1.66.03.01.09.04.14.06,0,0,0,.01-.01.02-.06.05-.15.08-.17.13-.23.71-.45,1.43-.67,2.15-.06.19-.07.4-.12.59-.02.09-.08.17-.13.25-.02-.01-.03-.03-.05-.04Z"/>
      <path class="cls-1" d="M.74,86.05h-.29v-.86s.03-.03.03-.02v-1.01c.11.11.21.17.22.23.01.2,0,.4-.02.6,0,.08-.04.17-.05.25,0,.06-.02.15,0,.17.17.12.2.22.02.36-.02.02.06.18.1.29Z"/>
      <path class="cls-1" d="M7.02,106.47c.27-.04.54-.08.81-.12-.08.28-.36.57-.55.51-.13-.04-.22-.2-.33-.31.02-.03.05-.05.07-.08Z"/>
      <path class="cls-1" d="M.14,66.57c.03-.12.07-.24.09-.37.01-.05,0-.11,0-.16-.02-.16-.03-.33-.05-.48.17.07.29.13.39.17-.12.31-.23.58-.34.86-.03,0-.06-.01-.08-.02Z"/>
      <path class="cls-1" d="M.74,88.34s-.06.04-.15.09c-.08-.13-.17-.24-.22-.38-.02-.06.05-.16.08-.24.07.06.17.1.21.17.05.08.05.19.08.35Z"/>
      <path class="cls-1" d="M.84,87.34c-.18.41-.2.42-.46.15.11,0,.2-.01.31-.02-.03-.07-.06-.14-.1-.22.09.03.16.06.25.09Z"/>
      <path class="cls-1" d="M11.34,105.25c.12-.16.17-.28-.06-.33.09-.11.15-.2.24-.33v.67s-.09,0-.19-.01Z"/>
      <path class="cls-1" d="M29.14,61.21c-.08-.25-.16-.51-.23-.76,0-.04.09-.11.14-.17.31.29.12.62.2.91-.04,0-.08.02-.11.02Z"/>
      <path class="cls-1" d="M24.26,22.92v.9s-.04,0-.06,0c-.02-.3-.04-.59-.07-.89.04,0,.08,0,.12-.01Z"/>
    </g>
  </g>
</svg>