<?xml version="1.0" encoding="UTF-8"?>
<svg id="Layer_2" data-name="Layer 2" xmlns="http://www.w3.org/2000/svg" viewBox="0 0 80.49 99.61">
  <defs>
    <style>
      .cls-1 {
        fill: #000;
        stroke-width: 0px;
      }
    </style>
  </defs>
  <g id="illustrations">
    <g>
      <path class="cls-1" d="M14.02,41.81c.14.1.27.2.42.28.07.04.16.07.24.1.12.05.3.07.35.16.2.37.57.47.92.51.81.1,1.48-.2,2.03-.81.29-.32.33-.64.08-1.01-.29-.43-.56-.86-.82-1.3-.36-.62-.9-1.04-1.5-1.42-.67-.42-1.34-.85-2.01-1.26-.42-.25-.87-.45-1.37-.51-.24-.03-.43.05-.58.27.12.07.25.12.35.2.43.3.84.62,1.27.92.34.24.71.46,1.05.7.15.1.28.23.42.36.4.36.78.73,1.19,1.08.1.08.24.11.4.19.07.22.16.49.24.75-.34-.24-.66-.46-.97-.7-.38-.3-.74-.63-1.12-.93-.43-.34-.89-.65-1.33-.98-.37-.27-.75-.55-1.12-.82-.12-.09-.21-.08-.25.06-.04.16-.08.33-.07.49.01.15.09.27.04.45-.04.17.09.38.14.58.15.59.29,1.19.44,1.78,0,.04.02.07.05.1.22.32.41.66.48,1.06.01.06.13.1.22.16-.09.08-.14.11-.18.15.02,0,.05,0,.07,0,.05.17.11.33.14.5.03.16-.14.38.18.46-.28.14-.21.36-.17.55.03.16.04.29-.05.38-.02.16-.02.34-.07.49-.2.57-.4,1.14-.65,1.69-.08.17-.3.27-.45.39.06.01.14.04.28.07-.2.14-.35.27-.49.37-.19.13-.31.3-.49.43-.21.15-.21.15-.51,0,.2-.45.39-.91.59-1.37.1-.22.18-.45.28-.68.1-.22.21-.43.34-.63.29-.46.46-.96.45-1.51,0-.15-.05-.31-.1-.45-.13-.38-.29-.76-.41-1.15-.08-.25-.12-.51-.19-.77-.01-.06-.03-.11-.05-.17-.1-.31-.21-.61-.29-.93-.04-.17.02-.37-.02-.54-.04-.19-.1-.39-.22-.55-.11-.15-.13-.23.05-.34-.16-.06-.27-.12-.17-.29.01-.02,0-.09-.03-.1-.33-.23-.35-.62-.5-.95-.03-.06-.07-.1-.13-.15.14.63-.12,1.14-.44,1.64-.05.07-.05.17-.08.26-.14.37-.3.74-.43,1.11-.21.63-.42,1.25-.61,1.89-.1.32-.18.65-.22.98-.07.65-.03,1.3.13,1.94.1.42.36.74.58,1.09.21.33.43.66.65,1-.85.06-1.24-.52-1.65-1.04-.18-.23-.31-.53-.38-.82-.27-1.16-.22-2.32.1-3.47.2-.71.45-1.4.68-2.1,0-.03.01-.06.02-.12-.28.08-.41.31-.53.5-.09.14-.15.2-.27.2-.09.06-.2.11-.27.18-.12.12-.22.26-.32.4-.14.18-.26.38-.42.54-.07.07-.21.08-.33.12-.16-.21-.19-.19-.39,0-.36.34-.73.65-1.1.98-.24.22-.5.43-.72.67-.09.1-.12.26-.16.39-.03.1-.03.21-.04.32-.01.13-.02.26-.03.4-.68,0-1.69-.61-1.74-1.31,0-.12.03-.25.07-.37.04-.13.1-.26.17-.39.06-.11.13-.21.21-.29-.1.36,0,.7.13,1.01.08.2.2.4.34.57.12.15.26.11.26-.08,0-.36.23-.54.47-.74.14-.12.26-.26.38-.41.25-.32.48-.67.75-.98.56-.65,1.12-1.29,1.7-1.92.18-.2.41-.36.61-.54.04-.04.05-.11.08-.17-.02-.01-.03-.02-.05-.03.02-.01.04-.03.06-.04.4-.15.64-.38.51-.86-.03-.11.04-.25.08-.44-.45.09-.9.17-1.33.27-.26.06-.53.12-.78.23-.28.12-.53.29-.8.44-.2.12-.41.17-.66.15-.17-.01-.35.08-.53.11-.34.05-.7.04-1.02.14-.31.1-.63.11-.93.23-.05.02-.13-.02-.21-.04-.05.29-.33.14-.51.19-.12.03-.25.03-.38.07-.4-.32-.85-.65-1.01-1.19-.16-.52-.11-1.01.32-1.42.14-.14.25-.31.39-.45.09-.09.21-.16.36-.28-.12.21-.2.37-.31.51-.2.26-.29.54-.24.87.03.21,0,.43.02.65.04.38.42.65.79.56.29-.07.57-.17.87-.23.12-.02.25.05.4.08,0-.04-.02-.1-.05-.21.23-.05.46-.08.69-.14.27-.07.54-.16.8-.24.45-.14.92-.26,1.36-.43.73-.28,1.51-.35,2.26-.52.06-.01.13-.06.15-.11.11-.29.23-.35.51-.23.02-.04.02-.11.05-.12.3-.1.59-.33.94-.17.07.03.1.14.15.22-.09-.12-.23-.11-.32-.03-.07.06-.08.19-.12.29-.05-.02-.1-.05-.15-.05-.07,0-.18.01-.21.06-.07.11-.11.25-.16.4.14.08.3.18.47.28q.2-.27.14-.36c.06-.07.13-.14.19-.21-.2.02-.33.24-.56.06.13-.03.34.08.28-.19.09-.08.17-.16.26-.24,0,.01,0,.03,0,.04.06-.02.11-.04.17-.07.05.02.1.04.17.07-.08.06-.13.1-.25.18.27,0,.47,0,.68,0,.02,0,.06-.09.05-.13-.08-.23-.14-.48-.27-.69-.18-.3-.52-.28-.8-.29-.74-.03-1.42-.27-2.11-.48-.2-.06-.34-.23-.54-.32-.45-.19-.91-.32-1.39-.31-.25,0-.51.02-.76.03-.04,0-.09.02-.11,0-.14-.09-.25-.17-.36.06-.04.08-.26.06-.38.12-.27.13-.53.29-.8.42-.07.03-.17,0-.27,0,.06-.17.08-.3.15-.38.08-.1.19-.18.3-.26.22-.16.43-.34.66-.47.15-.08.35-.11.53-.12.6-.02,1.2-.05,1.79,0,.35.03.69.22,1.03.36.34.15.65.38,1,.48.36.11.76.13,1.14.17.18.02.36-.02.54-.02.29,0,.42.23.57.41.44-.6.29-1.39.61-2.07-.01-.04-.06-.12-.05-.2.03-.39.09-.78.12-1.17.03-.33.05-.66.08-.99.01-.1.08-.21.08-.31-.02-.53.09-1.03.34-1.48.18-.34.44-.64.66-.96.08-.11.16-.2.25-.3.09-.1.22-.18.3-.02.06.1.09.28.04.37-.17.3-.4.56-.58.85-.17.28-.38.57-.45.88-.09.4-.09.83-.09,1.25,0,.25.04.5.07.75,0,.02.01.05,0,.07-.1,1.1-.21,2.19-.31,3.29-.01.11-.02.21-.03.32.02,0,.05.02.07.03.06-.13.12-.25.18-.38.29-.73.56-1.48,1.09-2.08.46-.52.95-1.01,1.43-1.52.12-.13.19-.31.32-.43.45-.43.82-.93,1.16-1.45.04-.05.1-.12.16-.12.18,0,.24-.11.23-.26-.01-.24-.05-.48-.08-.74-.34.12-.52.31-.52.6-.07.01-.13.02-.18.03-.25.06-.48-.05-.55-.3-.04-.15-.11-.16-.24-.13-.57.14-1.02.42-1.29.98-.13.28-.35.52-.51.8-.11.19-.17.4-.28.59-.08.15-.21.25-.43.18.05-.11.1-.21.13-.32.06-.18.09-.38.17-.55.15-.34.29-.7.5-.99.25-.35.55-.68.89-.94.32-.24.73-.38,1.1-.55.22-.11.45-.21.68-.31.12-.05.25-.11.37-.13.17-.02.37-.06.42.2,0,.04.07.09.11.11.11.06.15.13.11.27-.02.09,0,.2.04.29.12.38.13.74-.07,1.1-.15.27-.22.6-.39.86-.28.42-.61.81-.92,1.21-.23.29-.46.57-.7.84-.27.3-.57.58-.85.88-.37.39-.63.84-.81,1.35-.04.1-.09.2-.13.31.01.02.03.03.04.05.13-.07.26-.15.39-.22.21-.11.42-.22.63-.34.3-.17.61-.33.9-.53.52-.35,1.02-.72,1.53-1.08.33-.23.66-.45.99-.68.33-.23.66-.48,1-.69.26-.16.55-.28.83-.42.14-.07.17-.17.13-.33-.03-.11,0-.23.02-.35h-.14c.02-.06.03-.11.04-.13-.23-.18-.45-.36-.68-.54.23-.09.45-.18.68-.27-.2-.44-.18-.54.13-.67-.35,0-.38-.28-.48-.46-.23-.4-.44-.82-.6-1.26-.14-.38-.18-.8-.28-1.19-.05-.2-.17-.4-.18-.6-.02-.36-.16-.71-.05-1.1.08-.27.02-.58.03-.87,0-.09,0-.18,0-.32-.53.41-.76,1.09-1.38,1.31-.07.09-.12.19-.21.26-.3.24-.61.47-.92.7-.12.09-.23.2-.36.28-.58.36-1.16.72-1.76,1.06-.63.36-1.27.68-1.9,1.05-.33.19-.66.4-1.04.39-.24,0-.43.16-.66.11-.17-.04-.34-.1-.52-.15-.14-.04-.28-.09-.44-.08.08.02.17.03.25.05-.35.08-.11.38-.22.57-.14-.13-.27-.24-.42-.38.11-.18-.18-.16-.25-.29-.02-.03-.2,0-.27.05-.34.23-.6.54-.78.91-.06.13-.16.28-.06.45.01.02-.02.07-.04.1-.02.03-.05.06-.07.09-.19.2-.27.43-.21.72.03.15-.04.31-.09.47-.06-.15,0-.36-.23-.39.04-.09.08-.19.14-.3-.32-.68.03-1.8.67-2.26.2-.14.41-.28.61-.43.06-.04.11-.11.15-.17.04-.05.06-.11.09-.18-.07-.26-.18-.56-.23-.86-.03-.17.06-.35.06-.53,0-.18-.05-.36-.07-.54,0-.03-.04-.07-.03-.08.2-.2-.01-.47.09-.64.16-.3,0-.69.3-.93.08-.06.1-.15.02-.28-.06-.11,0-.28,0-.5.12.1.18.15.24.2.07-.16.14-.3.23-.48.17,0,.26-.18.31-.39.02-.09.04-.14.16-.18.17-.06.31-.22.46-.34.16-.13.33-.25.51-.39-.12-.22.16-.27.25-.41.05-.08.12-.15.22-.28.25-.12.52-.31.73-.6.14-.19.3-.38.58-.42.12-.02.23-.19.34-.29.04-.04.06-.1.11-.13.21-.11.42-.22.66-.04.05.04.21,0,.25-.05.21-.32.51-.42.95-.22-.1-.1-.16-.15-.22-.2,0-.01.01-.02.02-.03.27.07.54.15.81.21.05.01.12-.07.18-.07.2,0,.4.02.61.03,0-.08,0-.17-.02-.28.11.07.2.13.29.18.18.09.37.09.55,0,.03-.01.07-.01.11,0,.19.03.3-.04.39-.21.14-.27.24-.29.52-.14.29.16.59.32.85.52.21.16.41,0,.61.07.06.02.12,0,.19,0,.31.02.32.02.28-.29-.02-.18-.06-.35-.11-.52-.02-.07-.11-.12-.17-.19-.03.07-.07.14-.1.22-.01.03-.01.06-.03.15-.11-.15-.19-.27-.28-.38-.1-.12-.14-.3-.38-.22-.06.02-.17-.09-.25-.15-.18-.14-.36-.29-.53-.43-.03-.03-.07-.08-.06-.11.07-.22-.14-.25-.22-.36-.1-.14-.16-.3-.24-.46-.11-.23-.21-.47-.3-.71-.04-.11-.07-.23-.1-.35-.1-.39-.19-.79-.29-1.18-.06-.26-.13-.51-.18-.77,0-.05.06-.11.09-.17.18.24.42.08.65.15-.13.04-.26.07-.48.13.26.23.47.43.68.62-.06.05-.1.08-.15.12.08.04.14.07.19.1,0,.08-.04.16-.02.21.23.34.23.76.35,1.14.09.3.3.41.56.46,0-.4,0-.79,0-1.18,0-.27-.04-.54-.02-.81.09-.96.37-1.87.79-2.75.13-.27.21-.55.32-.87-.13.03-.19.05-.26.07-.01-.1-.02-.19-.03-.33-.06.09-.09.13-.12.17,0-.22.07-.41.09-.61.01-.07-.03-.19-.08-.23-.11-.07-.25-.11-.38-.16.01.05.02.1.03.15-.43-.11-.78.04-1.12.23-.06.03-.13.12-.13.17.01.2-.3.27-.2.5,0,0-.07.03-.1.05-.05.02-.09.04-.16.06.07.1.12.19.16.26-.1.01-.24,0-.27.05-.05.08-.05.21-.03.31.04.18.11.35.17.54-.12.05-.25.1-.09.27,0,0,0,.04,0,.05-.11.2-.04.34.12.48.04.03.07.14.05.17-.02.04-.11.06-.17.06-.07,0-.14-.03-.2-.05,0,.02-.01.03-.02.05.08.1.17.2.27.32-.16.04-.28.07-.4.11-.05-.07-.09-.14-.13-.2.03-.19.05-.37.09-.63-.18-.33-.16-.78-.07-1.23.07-.34.14-.68.2-1.03.11-.6.75-1.11,1.25-1.14.47-.02.94-.06,1.41-.09.28-.01.41.1.47.38.03.15.06.3.09.44.38-.42.75-.85,1.14-1.24.28-.28.6-.51.91-.75.21-.16.44-.14.67-.04.19.08.26.26.16.44-.11.2-.25.34-.46.46-.32.19-.61.46-.89.72-.21.19-.41.4-.56.63-.25.38-.45.79-.67,1.19-.24.45-.47.89-.68,1.35-.1.21-.14.45-.21.68-.05.17-.12.34-.15.52-.06.33-.13.67-.14,1.01-.02.46-.03.93.04,1.38.06.37.22.73.36,1.09.03.07.13.11.22.19v-1.8s.05,0,.07,0c.03.47.07.95.11,1.42,0,.11.04.23.08.34.02.05.11.12.15.11.26-.08.33.14.46.27.13.13.26.27.39.39.04.03.12.02.21.03.01.01.06.06.1.11.04-.07.12-.13.13-.2.11-.52.19-1.04.3-1.56.11-.53.23-1.06.48-1.56.18-.36.23-.77.37-1.15.33-.88.67-1.75,1.02-2.62.12-.3.29-.57.42-.86.11-.24.17-.51.29-.75.14-.27.18-.58.3-.84.15-.3.15-.61.22-.92.05-.21.25-.22.41-.25.38-.07.62.2.49.56-.27.73-.57,1.46-.86,2.19-.1.26-.22.51-.34.75-.11.23-.25.45-.35.69-.2.46-.39.93-.58,1.39-.15.36-.31.71-.46,1.06-.36.89-.85,1.72-.97,2.7-.04.36-.13.72-.2,1.09-.02.09-.06.17-.11.28.05-.02.1-.02.14-.05.2-.15.39-.32.61-.45.26-.15.55-.28.87-.23.06,0,.13-.06.21-.08.41-.09.82-.19,1.23-.24.18-.02.38.06.57.09.4.07.8.12,1.17.32.18.1.39.13.59.18.05.01.12-.04.12-.04.15.05.26.11.37.13.32.07.54.54.33.76-.07.07-.22.11-.32.1-.56-.06-1.08-.25-1.55-.55-.27-.17-.56-.24-.85-.26-.51-.03-1.03-.05-1.53.04-.67.13-1.18.56-1.58,1.12,0,0,0,.02,0,.02-.05.11-.17.3-.15.33.14.12.31.25.48.29.33.07.68.09,1.02.09.22,0,.2.2.3.29-.06.05-.14.15-.17.14-.31-.12-.61-.03-.91,0-.15,0-.37.04-.42.13-.11.19,0,.37.18.51.34.27.66.58.98.87.34.3.67.6,1.02.87.26.21.58.37.83.59.57.51,1.23.88,1.88,1.25.28.16.58.28.87.42.13.06.26.13.41.2-.01-.08-.02-.15-.03-.22.36-.05.4-.15.23-.49-.15-.29-.23-.62-.4-.9-.11-.18-.3-.31-.46-.47-.19-.19-.39-.38-.59-.56-.02-.02-.02-.05-.03-.06-.75-.25-1.43-.68-2.17-.95-.46-.17-.94-.26-1.41-.38-.16-.04-.33-.07-.5-.1-.03-.22.17-.28.3-.3.24-.04.51-.05.75,0,.74.17,1.46.39,2.17.67.55.22.98.59,1.46.89.59.37.83.97,1.2,1.5.07.1.16.19.24.29.03,0,.05-.01.08-.02.03-.1.08-.21.1-.31.08-.37.17-.74.21-1.12.03-.26-.02-.53-.04-.8,0-.04,0-.09,0-.13.03-.12.09-.23.11-.35.05-.29.09-.58.13-.87.01-.1,0-.21.03-.3.09-.25.23-.48.3-.74.03-.11-.03-.25-.01-.35.07-.15.11-.31.2-.45.14-.23.31-.44.47-.66.15-.2.42-.3.47-.61.02-.11.21-.19.32-.28.34-.26.67-.53,1.01-.77.23-.16.49-.28.73-.42.21-.13.36.01.56.1-.23.08-.45.11-.63.22-.21.12-.38.3-.57.46-.13.11-.28.21-.4.33-.16.15-.31.32-.45.48-.03.04-.04.1-.08.13-.28.24-.41.59-.55.91-.2.43-.29.9-.44,1.35-.11.31-.25.61-.35.92-.05.16-.01.35-.02.52,0,.15-.03.31-.04.46-.04.57-.1,1.15-.1,1.72,0,.66.04,1.32.21,1.97.03.11.03.22.05.33.07.42.43.61.7.87.29.28.55.37.87.05.09-.08.21-.13.31-.19-.34-.14-.68-.29-1.01-.43,0-.02.02-.04.03-.07.13.05.28.08.4.15.42.22.78.1,1.18-.11.89-.46,1.29-1.28,1.73-2.09.07-.14.13-.28.19-.42-.26-.06-.33-.16-.21-.4.27-.53.55-1.05.84-1.56.52-.92,1.03-1.85,1.58-2.76.21-.35.51-.66.79-.97.33-.35.69-.67,1.03-1,.18-.18.37-.34.54-.53.08-.09.11-.21.19-.38-.21.1-.35.18-.51.23-.52.16-1.06.29-1.58.48-.39.15-.75.38-1.11.58-.28.16-.56.34-.83.53-.19.14-.36.31-.53.47-.6.6-1.21,1.2-1.8,1.81-.2.2-.37.44-.52.68-.07.12-.03.3-.06.44-.02.09-.09.2-.16.25-.18.1-.33,0-.33-.2-.01-.53.19-.99.55-1.35.51-.49,1.06-.93,1.59-1.4.13-.12.21-.29.35-.4.11-.09.22-.31.44-.14-.04-.04-.08-.07-.13-.12.09-.08.17-.17.26-.23.72-.45,1.45-.9,2.18-1.35.38-.24.81-.35,1.25-.44.26-.06.52-.11.8-.16-.11-.1-.18-.22-.05-.38.2-.25.3-.28.58-.12.07.04.15.05.22.07.02-.1.08-.21.06-.31-.04-.21-.27-.4-.48-.4-.52,0-1.05-.02-1.57,0-.39.01-.78.08-1.18.12-.26.02-.54,0-.79.05-.59.13-1.18.25-1.66.66-.09.08-.21.22-.3.04-.33.06-.66.1-.98.17-.15.03-.29.13-.44.16-.11.02-.24-.03-.35-.05-.04,0-.09-.03-.1-.02-.13.17-.32.12-.49.17-.27.08-.54.15-.84.12-.14-.02-.28.11-.43.15-.33.09-.67.16-1,.24-.12.03-.24.04-.36.08-.47.14-.93.3-1.4.43-.2.06-.42.08-.63.1-.06,0-.12-.04-.18-.06-.07.25-.7.23-1.08.07.34-.26.81.03,1.13-.3-.05-.04-.09-.08-.18-.16.26.03.47.06.73.09-.06-.24,0-.36.2-.29.12.04.23.13.37.17-.09-.09-.19-.19-.28-.28.02-.03.04-.05.06-.08.15.1.31.19.46.29-.14-.13-.13-.24.04-.39.03.11.06.19.09.31.11-.15.19-.29.31-.4.06-.06.19-.05.28-.05.25,0,.5,0,.75,0,0-.03,0-.07,0-.1-.09-.01-.17-.03-.26-.04,0-.02,0-.03,0-.05.18-.01.37-.03.55-.04,0,0,0-.03-.02-.09.1.05.19.09.27.13.01-.01.02-.03.03-.04-.04-.04-.07-.09-.09-.11.27-.09.55-.2.83-.26.38-.09.78-.12,1.16-.21.3-.07.59-.2.88-.31.42-.16.84-.32,1.26-.47.41-.15.81-.32,1.23-.44.35-.1.71-.17,1.07-.23.17-.03.35,0,.52-.04.12-.02.23-.11.35-.13.36-.06.73-.19,1.1-.04.02,0,.04-.02.12-.05-.08-.11-.14-.22-.22-.31-.32-.33-.76-.46-1.18-.6-.55-.18-1.1-.37-1.66-.53-.42-.12-.86-.18-1.29-.28-.41-.09-.81-.2-1.21-.3-.16-.04-.33-.05-.48-.11-.25-.1-.49-.22-.75-.34.01.06.03.12.04.18.02.16-.04.26-.22.25-.14-.01-.3,0-.41-.07-.09-.05-.18-.2-.17-.3,0-.08.14-.17.23-.23.03-.02.1,0,.15,0,0-.02.01-.04.02-.06-.14-.05-.29-.12-.44-.14-.49-.09-.98-.16-1.47-.24-.07-.01-.15,0-.23.02-.08.01-.15.04-.22.05-.41.04-.82.04-1.22.11-.36.06-.73.15-1.07.28-.66.26-1.16.72-1.53,1.33-.11.18-.24.34-.38.5-.39.42-.55.95-.81,1.44-.21.4-.43.78-.65,1.18-.04.07-.07.14-.11.24-.07-.01-.15-.02-.27-.04.09-.23.18-.42.25-.62.2-.56.36-1.13.58-1.68.29-.73.73-1.37,1.25-1.95.2-.23.42-.45.63-.68.02-.02.03-.04.05-.05.23-.25.26-.26.57-.28.04,0,.11,0,.12-.02.17-.23.42-.27.68-.32.39-.06.78-.17,1.18-.22.33-.05.67-.05,1-.06.18-.01.36-.02.57-.08-.04-.02-.08-.04-.13-.06.04-.01.05-.02.07-.02.37.13.75.16,1.12.24.67.15,1.33.32,1.92.73.31.22.74.34,1.12.34.44,0,.82.11,1.22.22.16.04.33.03.5,0-.65-.75-1.3-1.47-2.28-1.93-.08-.07-.21-.19-.35-.31,0,.02-.01.03-.02.05-.1-.04-.2-.05-.28-.11-.14-.1-.25-.26-.41-.32-.24-.1-.45-.24-.67-.37-.05-.03-.15,0-.23,0-.31-.44-.67-.87-.93-1.35-.26-.48-.41-1.02-.6-1.53l.08-.02c-.01-.13-.04-.26-.03-.39.03-.32-.02-.68.13-.94.22-.39.55-.74.98-.93.12-.05.26-.28.44-.03.1-.23.24-.3.43-.16.01,0,.03,0,.05,0,.28-.05.55-.1.83-.14.14-.02.28-.03.42-.03.14,0,.25.14.43.05.1-.05.3.09.46.15.12.04.23.1.34.14.24.08.48.17.73.22.44.09.76.39,1.12.6.04.03.11.07.11.1-.01.18.11.23.23.31.32.2.53.49.69.83.07.15.17.23.03.29.04.27.08.51.12.75.03.18,0,.38.08.54.07.14.23.23.36.34.23.19.35.4.38.72.04.36.18.7.28,1.05.1.32.2.64.31.96.04.12.09.23.14.36-.02.04-.06.09-.1.17.06.03.12.06.17.08-.01.08-.06.16-.04.23.05.17.12.33.18.5.03.09.07.17.09.26.09.61.36,1.13.74,1.61.11.14.23.27.35.4.12.13.17.06.19-.07,0-.05,0-.09.02-.14.19-1.14.63-2.19,1.1-3.23.09-.2.21-.38.32-.57.02-.03.05-.06.11-.07-.06.16-.13.32-.18.48-.23.66-.5,1.31-.68,1.99-.11.42-.24.86-.07,1.31.12.33.18.5.58.26.21-.13.41-.25.61-.39.23-.17.47-.22.75-.19.11.01.23-.02.34-.03.13-.01.27-.15.4.03.01.02.14-.02.18-.06.31-.29.63-.58.92-.89.75-.8,1.5-1.6,2.23-2.43.22-.25.35-.59.56-.85.18-.22.41-.4.63-.58.12-.1.27-.15.38-.25.21-.21.46-.35.73-.46.2-.08.36-.26.56-.31.49-.14,1-.2,1.52-.17.67.05,1.31.23,1.84.62.33.25.53.65.8.98.21.25.42.5.65.72.07.06.23.03.37.04.03.31.28.41.56.46.3.06.62.08.9.19.21.08.39.26.55.42.25.25.47.52.71.78.02.03.06.05.13.11-.07-.26.1-.26.3-.31-.11-.07-.17-.11-.24-.15.02,0,.04-.02.06-.02,0-.08.01-.17-.02-.23-.18-.3-.29-.6-.3-.96,0-.21-.09-.42-.17-.62-.12-.31,0-.57.14-.82.03-.06.13-.13.19-.12.24.05.51-.15.73.1.03.03.13,0,.2,0,.53-.07,1.06-.15,1.56.1.59.29.93.82,1.23,1.37.34.6.33,1.29.47,1.94.07.31.18.6.25.91.05.19.1.39.1.59,0,.1-.13.2-.2.3-.08-.08-.2-.15-.24-.25-.1-.31-.17-.63-.24-.95-.23-1.12-.58-2.18-1.37-3.04-.23-.25-.49-.32-.8-.2-.33.14-.67.1-1.01.1-.08,0-.17.02-.3.04.25.66.36,1.34.74,1.94-.04.04-.09.08-.12.12.14.17.27.33.44.54-.14,0-.22-.01-.29-.01.43.2.37.66.53.99.23.49.38,1.01.57,1.52.03.07.08.13.11.2.04.09.07.18.1.27,0,.03,0,.06.02.09.37.53.74,1.06,1.11,1.59.02.03.06.04.14.1-.18-.58.21-.95.35-1.39.09-.29.32-.46.41-.73.1-.31.21-.64.25-.96.08-.76.16-1.52.17-2.28,0-.43-.1-.87-.2-1.29-.11-.48-.17-.98-.41-1.43-.05-.09-.06-.21-.07-.31-.02-.24.03-.29.23-.17.21.12.45.2.54.51.28.91.73,1.77.79,2.74.02.28.06.55.11.89.1-.18.33-.19.23-.43-.02-.04.07-.15.13-.2.2-.16.39-.33.61-.44.16-.09.37-.11.55-.15.25-.06.5-.14.76-.16.19-.02.39.03.58.07.35.07.69.16,1.04.25.03.08.05.17.09.27.21-.07.25.06.32.21.07.17.12.38.35.43.03,0,.05.07.09.1.14.15.28.29.41.45.04.05.05.13.08.19-.07-.01-.15,0-.2-.03-.38-.23-.73-.5-1.12-.69-.72-.33-1.48-.42-2.25-.12-.2.07-.41.13-.58.24-.14.09-.29.24-.33.39-.1.36-.25.69-.47.93.16.35.33.67.47,1,.06.15-.07.22-.21.24-.23.03-.45-.05-.59-.22-.15-.18-.23-.11-.31.04-.09.18-.17.38-.26.57-.05.11-.11.22-.16.34.03.05.07.11.11.18-.11.04-.2.07-.3.1l-.06.07c.06.03.13.05.19.08,0,.02,0,.04,0,.07-.09.03-.18.06-.26.1-.05.02-.09.06-.08.06.13.11.27.17.32.28.12.23.42.47.01.72.28.13.54.05.72-.15.16-.18.35-.34.53-.51.23.12.15.31.03.43-.11.11-.28.16-.45.25.41.07.74.31,1.18.22.48-.09.99-.04,1.48-.04.38,0,.75.03,1.12-.1.57.19.87-.3,1.26-.53.54-.33.94-.82,1.15-1.43.05-.14.06-.32.03-.48-.04-.3-.12-.6-.19-.9l.08-.06c.03.06.06.12.07.13.08,0,.13,0,.17.01-.14.22.15.26.19.41.02.09.12.18.21.24.22.16.18.35.08.55-.24.49-.46.99-.75,1.45-.15.25-.43.42-.65.63-.13.12-.26.24-.46.42.46.11.85.2,1.24.29.05.01.1.02.14.04.04.02.07.06.11.1.03-.04.06-.09.11-.15.61.25,1.26.45,1.85.77.9.49,1.8,1,2.49,1.8.28.32.55.69.52,1.13-.02.33-.12.67-.25.98-.18.45-.4.88-.61,1.31-.07.13-.17.25-.26.37l-.08-.02c0-.08-.02-.16,0-.23.12-.41.27-.8.35-1.22.08-.39.11-.8.14-1.2.02-.27-.11-.48-.29-.69-.15-.17-.26-.38-.52-.41-.02,0-.04-.08-.05-.12-.02-.04-.03-.11-.06-.13-.29-.2-.59-.39-.89-.57-.14-.08-.29-.12-.44-.18-.07-.03-.17-.03-.22-.08-.27-.27-.6-.39-.97-.46-.29-.06-.56-.21-.83-.32-.01,0-.03-.01-.04-.02-.33-.02-.67-.02-1-.06-.31-.03-.63-.07-.91-.18-.27-.1-.52-.01-.77,0-.12,0-.25-.03-.37-.04-.05,0-.12-.02-.15,0-.15.14-.28.06-.43,0-.09-.04-.19-.04-.29-.06-.14-.03-.29-.09-.42-.07-.21.04-.41-.09-.63.04-.17.09-.43.09-.63.04-.33-.08-.61.07-.92.09-.04,0-.08.08-.09.09.16.11.3.21.44.3.06.04.12.07.19.09.62.22,1.24.45,1.86.65,1.13.36,2.25.78,3.47.74,0,.03,0,.06,0,.08-.34.01-.69.08-1.02.02-.82-.13-1.63-.29-2.43-.48-.59-.15-1.17-.36-1.75-.56-.12-.04-.22-.15-.34-.19-.29-.09-.58-.17-.88-.22-.07-.01-.16.08-.23.12.04.06.07.13.13.18.28.26.56.51.84.76.44.38.89.74,1.32,1.12.44.38.87.77,1.29,1.17.21.2.36.47.59.64.34.25.52.64.91.85.31.16.54.45.84.63.46.28.93.56,1.44.74.21.07.43.17.67.19.11,0,.21-.01.32,0,.1.02.21.04.28.1.12.1.23.14.39.13.14-.01.28.03.42.06.32.06.58-.11.85-.22.16-.06.28-.22.44-.35.25.16.27.68-.05.75-.58.15-1.17.37-1.78.07-.1-.05-.24-.06-.36-.07-.32-.02-.65-.03-.98-.05-.09,0-.18-.07-.27-.1-.13-.04-.26-.08-.38-.13-.12-.05-.22-.13-.33-.19-.29-.15-.59-.28-.87-.45-.27-.16-.51-.35-.76-.55-.35-.28-.7-.56-1.01-.88-.49-.48-.94-.99-1.41-1.49-.35-.37-.71-.73-1.07-1.09-.19-.19-.44-.33-.61-.54-.31-.37-.66-.25-1.02-.14-.09.03-.17.06-.23.08-.1-.09-.17-.17-.26-.22-.15-.08-.26-.02-.29.15-.03.14-.05.28-.11.42,0-.08.02-.16.02-.25-.02,0-.04-.02-.06-.02-.05.13-.12.26-.15.39-.14.72-.13,1.44-.09,2.17.05.86.26,1.68.5,2.5.06.21.06.42.11.62.14.52.23,1.05.43,1.55.14.36.37.72.64.99.47.46,1,.86,1.51,1.28.08.07.23.06.32.12.16.1.29.24.44.35.09.06.21.09.3.15.24.14.47.3.71.44.11.06.23.11.33.2-.05-.01-.09-.02-.14-.03-.3-.12-.63-.16-.94-.23-.31-.08-.6-.24-.89-.39-.1-.05-.16-.16-.26-.27-.03.07-.05.12-.07.17-.47-.07-.5-.09-.53-.42-.29.02-.48-.16-.67-.35-.19-.18-.44-.29-.62-.48-.28-.28-.57-.56-.78-.89-.15-.24-.16-.56-.26-.84-.1-.31-.24-.61-.35-.92-.04-.11-.04-.23-.06-.34-.06-.3-.14-.59-.19-.89-.04-.21-.03-.43-.06-.64-.02-.11-.09-.22-.1-.33-.02-.14-.02-.29-.03-.44,0-.03,0-.08.02-.09.23-.09.1-.27.09-.41-.04-.39-.09-.79-.13-1.18-.03-.29-.07-.59-.1-.87-.12.22-.26.47-.39.72-.23.44-.45.9-.69,1.34-.09.18-.14.33.05.47-.12.05-.22.09-.33.14-.03.01-.07.03-.07.05-.03.32-.34.46-.46.73-.16.36-.34.7-.55,1.04-.3.49-.61.97-.93,1.45-.09.14-.23.25-.31.4-.03.06,0,.2.05.27.52.7,1.08,1.36,1.58,2.08.46.66.86,1.36,1.26,2.05.53.92.96,1.9,1.68,2.69.44.48.93.93,1.39,1.4.3.31.56.64.86.94.16.16.36.28.55.4.17.11.35.23.54.28.37.1.74.15,1.12.22.02,0,.07-.03.08-.06.07-.15.12-.09.22-.01.09.07.23.14.34.13.43-.03.85-.08,1.28-.12,0,0,.02,0,.02,0,.79.04,1.58.04,2.36.14.33.04.64.07.95.02.07-.01.13-.07.2-.14-.42-.07-.6-.44-.91-.64-.54-.35-1.09-.67-1.65-.99-.29-.16-.6-.3-.9-.42-.4-.16-.81-.29-1.21-.44-.42-.15-.83-.34-1.26-.46-.38-.1-.78-.15-1.17-.18-.21-.02-.18.16-.13.28.09.19.21.37.33.57-.03.01-.08.03-.13.05,0,.02,0,.04-.01.06.13.05.25.11.39.15.04.01.1-.03.14-.06.05-.04.09-.15.13-.14.09.01.22.05.26.11.11.19.18.4.27.6-.02.03-.04.06-.06.08-.25-.05-.49-.1-.74-.15-.1-.37-.5-.3-.71-.5-.31-.31-.63-.64-.68-1.11-.01-.1-.01-.2,0-.3.03-.41.22-.56.74-.48.32.05.65.07.97.13.2.04.39.12.59.18.09.03.18.08.28.12.45.16.92.28,1.35.48.79.37,1.57.8,2.35,1.2.19.1.39.19.62.29.06-.27.08-.49.15-.69.02-.07.13-.12.24-.2,0-.07.01-.19.02-.32.07,0,.13-.01.21-.02-.01.21,0,.42-.03.62-.04.26.02.37.28.44.28.08.57.15.86.22.11.03.2.06.17.2-.15.16-.29.25-.51.1-.11-.07-.3-.09-.43.07.18.18.34.34.62.26.21-.07.31-.21.32-.43.16-.05.19-.16.15-.32-.22-.92-.48-1.83-.65-2.75-.11-.6-.08-1.23-.16-1.83-.08-.55-.23-1.1-.36-1.64-.06-.26-.13-.51-.24-.75-.06-.13-.18-.25-.29-.35-.2-.21-.44-.14-.5.18-.03.17-.01.36,0,.53.05.65.11,1.31.17,1.96,0,.06,0,.13.03.18.18.41-.13.64-.3.92-.03,0-.06,0-.09,0-.08-.32-.17-.65-.23-.97-.07-.4-.14-.8-.18-1.2-.08-.76-.03-1.52.29-2.23.06-.14.24-.23.38-.33.01,0,.14.09.15.14.02.14.1.16.22.21.19.08.34.23.5.36.12.1.23.21.3.32.02.15.05.3.07.44.04.23.06.47.1.7.03.18.06.37.13.53.26.54.25,1.14.35,1.71.12.65.19,1.3.31,1.95.05.27.15.52.23.78.13.38.26.75.39,1.13.03,0,.06,0,.08,0,.05-.16.12-.32.16-.48.07-.33.11-.67.2-1,.09-.35.22-.69.32-1.04.08-.27.15-.55.21-.82.08-.35.14-.71.21-1.06.03-.13.07-.27.06-.4-.04-.53.02-1.07-.17-1.58-.06-.15.04-.24.15-.26.18-.04.37-.05.55-.05.04,0,.1.09.11.14.02.32.03.63.04.95.03,1.08-.09,2.15-.44,3.18-.27.8-.52,1.61-.78,2.42-.02.06-.01.13-.02.27.16-.08.28-.12.38-.19.43-.27.87-.51,1.28-.81.51-.38.98-.8,1.48-1.2.24-.19.5-.35.75-.53.11-.08.22-.16.32-.26.53-.49,1.25-.56,1.85-.19.2.13.31.41.45.63.02.03,0,.11-.02.15-.37.74-.72,1.48-1.12,2.2-.16.28-.43.49-.66.72-.21.21-.43.4-.65.59.57.35,1.08.67,1.59.99.19.12.24.36.11.49-.14-.15-.27-.3-.41-.44-.26-.26-.6-.41-.95-.48-.41-.08-.82-.12-1.24-.18-.14.18-.33.1-.5.1-.02,0-.05.02-.07.01-.29-.05-.48,0-.79.2.21.13.41.27.62.39.29.18.57.4.88.5.27.08.49.21.7.37.48.39.89.83.98,1.49.02.13.1.25.16.37.12.24.25.47.38.7.08.14.17.27.23.42.09.21.18.42.25.64.08.24.19.46.37.64.1.09.14.24.22.37.12-.06.28-.07.2-.3.08.03.15.05.24.08-.05.13-.1.26-.13.38-.01.05.08.12.07.16-.09.24-.17.49-.31.71-.04.06-.26-.01-.36-.02-.27.16-.53.32-.8.46-.17.09-.35.14-.52.21-.03.01-.08.02-.11,0-.22-.13-.43-.26-.66-.41.08-.06.14-.1.14-.12-.04-.28.08-.4.4-.32-.09.1-.16.17-.29.31.37-.06.68-.11,1.01-.16-.06-.15-.32-.17-.18-.36-.11-.04-.22-.09-.34-.14.03-.08.07-.15.11-.25-.07,0-.12.01-.12.01-.63-.65-1.23-1.28-1.86-1.93-.12.41-.13.74.09,1.06.18.27.31.58.49.93-.05.54-.17,1.15-.38,1.75-.21.61-.49,1.14-.96,1.57-.02-.01-.03-.02-.05-.03.03-.04.07-.07.09-.12.06-.12.12-.25.18-.37.04-.08.1-.15.16-.23.02-.08.06-.18.07-.29.07-.4.16-.79.21-1.19.03-.24-.02-.49-.03-.74-.02-.68-.28-1.26-.65-1.82-.12-.18-.22-.4-.25-.61-.08-.59-.44-.98-.82-1.37-.17-.18-.35-.36-.53-.53-.09-.08-.19-.15-.32-.24-.05.57-.11,1.09-.14,1.61-.02.34.02.68,0,1.02-.01.57-.04,1.14-.07,1.71-.02.33-.03.66-.08.99-.05.31-.15.6-.23.9-.02.1-.03.2-.04.3-.06.34-.12.68-.17,1.02-.04.31.09.52.4.57.27.04.55.06.81.02.16-.03.3-.19.46-.29.05-.03.12-.02.18-.03,0,.05-.01.1-.02.15,0,.03-.02.06-.02.09,0,.03.01.06.03.11.2-.1.39-.19.57-.28.02.02.03.03.05.05-.06.06-.12.15-.19.16-.24.05-.31.22-.34.42-.09.58,0,1.16,0,1.75,0,.61-.02,1.22-.04,1.82-.01.44-.02.89-.04,1.33-.02.4-.07.8-.02,1.2.03.22-.07.45-.08.68-.01.22.02.44.03.66,0,.03.01.06,0,.09-.02.26-.06.52-.07.78-.01.2,0,.4,0,.6,0,.58,0,1.17,0,1.75,0,.14,0,.31-.23.32.24.09.21.25.2.43-.03.54-.03,1.08-.04,1.62,0,0,0,.02,0,.02-.2.5-.03,1.02-.08,1.53-.02.21-.08.42-.09.62-.02.24,0,.49-.02.73-.02.29-.07.58-.09.87-.01.15-.03.31,0,.46.07.35-.12.66-.1,1.01.03.58-.07,1.17-.11,1.75-.03.34-.04.69-.08,1.03,0,.07-.09.12-.08.18.01.14.03.29.03.43,0,.19-.02.39-.03.58-.02.31-.06.63-.07.94-.02.36-.01.72-.02,1.08,0,.11-.03.21-.04.32,0,.13-.02.26,0,.38.03.17-.03.31-.07.47-.05.21-.02.44-.04.67-.04.34-.11.68-.13,1.03-.04.57-.05,1.15-.08,1.72,0,.05.02.13-.01.16-.17.2-.06.42-.06.62,0,.11.03.21.02.32-.01.21-.04.42-.03.63,0,.23.06.47.03.69-.06.37.03.73.02,1.1,0,.17-.06.34-.15.5.03.11.06.22.09.36-.06-.01-.1-.02-.16-.03.03.08.04.18.09.22.16.12.08.23,0,.34-.06.09-.12.16.03.21.02,0,.05.07.04.1-.03.27-.07.54-.08.82,0,.23.08.47.04.69-.07.37.12.75-.08,1.1-.02.04.03.13.05.19.08.23.14.45.08.72-.06.29,0,.61,0,.92,0,.07-.03.14-.05.21.01.04.03.09.04.15.02.15.03.29.04.44,0,.04.02.09,0,.11-.19.19-.07.38-.02.57.01.04-.04.09-.06.14-.02.05-.05.12-.03.14.2.22.1.46.06.7,0,.05.02.11,0,.16-.01.05-.05.09-.07.11-.02.32-.04.62-.06.93,0,.07.02.14.01.21,0,.13-.03.26-.04.39-.06.54-.12,1.08-.17,1.62-.03.35-.01.71-.03,1.06-.01.28-.04.56-.06.83-.02.29-.04.58-.08.87-.04.28-.11.56-.15.85-.02.12.02.25,0,.38-.06.42-.12.85-.2,1.27-.09.44-.2.88-.32,1.31-.03.13-.09.27-.16.39-.08.14-.5.13-.6,0-.04-.05-.12-.08-.2-.14.01-.11,0-.22.14-.35.12-.11.14-.36.15-.56,0-.09,0-.17.02-.27.07-.29.11-.62.04-.9-.06-.22.02-.42-.02-.62-.04-.27-.05-.54-.08-.81,0-.03-.03-.07-.01-.09.22-.32-.01-.65.04-.98.03-.17.02-.35,0-.53-.02-.13-.1-.24-.12-.35,0-.09,0-.19,0-.28,0-.01,0-.03,0-.04.29-.32.06-.69.07-1.03,0-.27-.03-.53-.05-.8-.03-.45-.05-.9-.09-1.35-.05-.71-.14-1.42-.17-2.13-.02-.53-.03-1.07-.05-1.6,0-.24.03-.45-.13-.65-.02-.03,0-.1.02-.15.05-.13.12-.25-.06-.35-.03-.02.02-.18.02-.27-.02-.31.08-.62-.11-.92-.05-.07,0-.21.02-.37-.12-.1-.13-.23-.02-.45.04-.08.03-.18,0-.27.06-.18.14-.35-.06-.52-.03-.03.02-.16.04-.24.01-.05.07-.11.05-.14-.05-.11-.13-.21-.2-.33.12-.03.17-.04.23-.06-.02-.04-.04-.09-.07-.12-.04-.05-.09-.1-.1-.19.04,0,.08.02.16.04-.3-.3.08-.46.08-.7-.15,0-.25-.14-.25-.32,0-.33,0-.65.02-.98,0-.1.05-.2.07-.3-.02,0-.09-.01-.16-.02.07-.08.16-.15.15-.19-.04-.12-.11-.23-.19-.37.12-.14.12-.32-.01-.55-.03-.04-.02-.11-.02-.17,0-.03.05-.06.04-.08-.17-.29.03-.58-.02-.88-.05-.3,0-.6,0-.91h.09c-.06-.29-.18-.58-.16-.85.07-.85-.04-1.71,0-2.56.02-.42.05-.84.05-1.26,0-.25-.08-.51-.09-.76-.03-.47-.07-.95-.04-1.42.02-.31-.01-.58-.14-.85-.02-.04-.03-.11,0-.13.15-.19.08-.37,0-.57-.03-.08.05-.19.05-.29,0-.17-.04-.34-.05-.52-.02-.28-.04-.57-.05-.85-.04-.65-.07-1.3-.11-1.95-.02-.3-.01-.61-.05-.91-.07-.61-.17-1.21-.23-1.82-.08-.85-.11-1.71-.18-2.56-.05-.63-.15-1.25-.22-1.87-.06-.54-.12-1.08-.18-1.62-.08-.64-.17-1.28-.26-1.92-.04-.31-.07-.63-.11-.95-.05-.31-.11-.61-.17-.92-.04-.21-.08-.42-.13-.63-.02-.07-.05-.13-.06-.2-.03-.16-.04-.32-.07-.47-.09-.39-.19-.77-.28-1.16-.02-.1,0-.21-.03-.31-.18-.83-.36-1.66-.55-2.49-.11-.46-.23-.92-.34-1.38-.09-.38-.15-.78-.27-1.15-.15-.46-.28-.94-.65-1.3-.23-.22-.49-.33-.81-.37-.51-.06-1.02-.09-1.46-.42-.24-.18-.33-.39-.19-.66.07-.15.17-.28.25-.42.09-.17.19-.25.32-.08.09-.11.15-.25.25-.29.11-.05.26-.03.38,0,.23.06.45.15.68.21.05.01.14-.03.19-.08.29-.28.57-.57.87-.84.14-.13.38-.1.57.09.14.14.24.11.36,0,.28-.25.54-.52.84-.74.29-.22.62-.4.93-.59.05-.03.09-.07.15-.12-.56-.34-1.19-.3-1.78-.4-.2-.03-.4-.06-.6-.08-.37-.04-.73.02-1.07.14-.07.03-.11.15-.18.27.03-.08.05-.13.05-.17,0-.09.02-.2-.03-.26-.03-.04-.16-.01-.24,0-.27.05-.49-.05-.68-.21-.23.13-.38.1-.58-.08-.04-.04-.15-.06-.19-.03-.14.08-.23.04-.33-.06-.39-.38-.78-.76-1.18-1.13-.14-.13-.37-.21-.45-.37-.15-.27-.41-.4-.62-.59-.21-.18-.39-.4-.59-.6-.16-.16-.33-.3-.49-.46-.07-.07-.13-.15-.18-.24-.29-.48-.57-.96-.86-1.44-.18-.31-.39-.61-.55-.93-.21-.39-.38-.81-.58-1.2-.08-.16-.22-.29-.33-.44-.26-.36-.53-.72-.77-1.09-.09-.14-.08-.33-.14-.48-.02-.06-.11-.1-.12-.11-.29-.47-.47-.96-.98-1.16-.32.55-.86.67-1.44.74-.52.07-1.02-.03-1.53-.11-.29-.05-.65-.38-.66-.64,0-.14.08-.29.12-.43.02-.07,0-.14.01-.2.04-.38.12-.74.46-1-.02-.01-.05-.03-.07-.04-.06,0-.12.01-.2.02-.07-.22-.14-.45-.21-.69.04,0,.11-.02.17-.03-.2-.1-.37-.21-.4-.45-.03-.25-.07-.51-.13-.75-.02-.08-.12-.16-.2-.2-.72-.31-1.42-.67-2.16-.91-.6-.19-1.12-.52-1.69-.75-.27-.11-.53-.24-.78-.39-.13-.08-.24-.2-.36-.3-.03-.02-.06-.06-.09-.06-.33-.05-.55-.29-.8-.46-.17-.12-.31-.27-.47-.39-.57-.42-1.14-.83-1.71-1.24-.07-.05-.17-.07-.25-.13-.11-.08-.2-.18-.3-.26-.09-.07-.19-.12-.27-.19-.13-.1-.25-.22-.37-.33-.29-.26-.58-.51-.88-.78,0,.02-.03.05-.02.07.12.33.23.65.36.98.17.44.33.88.51,1.31.1.24.16.49.19.75.02.17.16.33.2.5.06.29.17.62.11.89-.07.26.13.42.08.66-.11.57-.09,1.16-.31,1.72-.25.64-.54,1.23-.99,1.74-.4.46-.82.9-1.25,1.34-.36.36-.81.36-1.25.21-.28-.09-.53-.26-.8-.39,0-.03.02-.06.03-.09.17-.01.35-.04.52-.04.69.01,1.19-.33,1.58-.85.36-.49.72-1,1.03-1.53.22-.38.35-.81.54-1.2.2-.4.04-.8.03-1.2,0-.05-.08-.1-.07-.16,0-.24.04-.49,0-.71-.13-.59-.3-1.16-.44-1.75-.03-.13-.04-.26-.06-.4,0-.03,0-.07-.02-.09-.43-.62-.53-1.37-.8-2.05-.17-.44-.35-.88-.53-1.32-.02-.05-.1-.1-.15-.09-.04,0-.07.09-.1.14-.25.4-.14.86-.21,1.29-.07.39-.17.77-.23,1.16-.06.39-.09.78-.12,1.17-.03.45-.06.9-.07,1.36,0,.23.03.47.05.7,0,.02.02.05.02.07-.13.45.13.86.12,1.3,0,.24.06.48.1.73.04.22-.05.43-.25.5-.02-.19-.03-.38-.06-.57-.05-.27,0-.54-.03-.8-.03-.26-.17-.51-.23-.77-.04-.15-.03-.31-.05-.46-.03-.31-.09-.62-.09-.94,0-.45.02-.9.05-1.35.04-.66.08-1.32.13-1.97.02-.23.06-.46.09-.68,0-.04-.02-.08-.05-.16-.17.22-.32.41-.46.61-.53.69-.98,1.42-1.39,2.18-.23.44-.48.87-.7,1.31-.07.15-.07.34-.28.39-.01,0-.02.03-.03.05-.13.32-.26.65-.4.97-.03.07-.12.11-.2.18,0,.2-.06.25-.46.29.03.07.06.13.1.22-.08-.02-.13-.03-.21-.05.06.07.09.12.14.19-.19.24-.41.48-.58.75-.25.38-.45.79-.69,1.19-.14.23-.29.46-.44.68-.1.15-.2.31-.32.44-.22.24-.45.46-.68.69-.08.08-.2.15-.24.25-.09.19-.25.23-.42.28-.34.1-.66.21-.88.53-.12.17-.31.3-.49.42-.09.06-.22.06-.37.09-.03.08-.08.23-.13.39-.14,0-.39-.14-.3.2-.27.03-.32.11-.21.31-.25-.02-.34.06-.35.26-.19.19-.35.33-.49.49-.2.24-.36.5-.57.74-.21.24-.46.45-.67.69-.2.22-.36.47-.56.7-.24.27-.51.52-.76.79-.12.13-.22.29-.32.44-.01.01.03.06.02.05-.08.05-.16.1-.24.15,0,.02.02.04.02.05-.07-.01-.13-.03-.2-.04.01.02.02.04.03.06-.12.1-.25.18-.36.29-.09.09-.18.19-.24.3-.1.18-.21.31-.41.41-.17.08-.27.3-.4.46-.08.09-.15.19-.23.28,0,0-.02,0-.02.01-.1.32-.57.33-.58.71-.35-.07-.45.23-.55.43-.2.36-.46.64-.76.92-.17.15-.26.37-.34.6-.11.3-.4.54-.62.8-.01.01-.06,0-.11-.01.03.11.06.18.07.21-.23.3-.47.55-.65.84-.29.46-.54.94-.83,1.41-.11.18-.28.34-.43.51.15.13.2.26.04.42-.06.06-.08.19-.08.28,0,.43-.07.83-.37,1.18-.14.16-.19.4-.29.6-.03.07-.1.12-.17.21-.03.1-.08.25-.13.41-.07.02-.16.05-.27.09.03.07.05.14.06.15-.15.14-.3.25-.4.39-.14.2-.21.44-.36.63-.11.15-.21.27-.16.47,0,.02-.07.05-.1.09-.07.08-.13.15-.18.25-.27.09-.28.12-.16.4-.07-.05-.14-.1-.24-.17-.08.12-.16.25-.24.37.09.07.15.12.21.17-.01.02-.02.04-.03.05-.06-.03-.13-.06-.2-.1-.26.22-.27.36-.03.65-.29.23-.67.38-.79.8.06-.06.11-.13.2-.23.02.08.05.14.03.19-.03.11-.08.22-.13.33-.02.05-.06.1-.09.14-.05-.04-.09-.08-.18-.15-.1.22-.2.43-.31.65.08.05.14.08.19.11,0,0,0,.02-.01.03-.06-.01-.13-.02-.21-.04-.06.24-.37.38-.23.72-.06-.03-.1-.05-.14-.07-.3.44-.45,1.01-.3,1.12.04-.06.07-.11.1-.17.01,0,.03,0,.04,0-.02.1-.04.2-.05.25-.14.03-.31.02-.35.09-.06.1-.04.26-.06.43,0,0-.05.02-.11.03v.05s.09.01.14.02v.21c-.2,0-.29.08-.28.32,0,.14-.15.29-.26.47.06.11.12.27-.12.35.08.15.06.23-.07.36-.13.13-.23.37-.22.56,0,.24-.1.4-.19.59-.02.03-.05.06-.06.1-.06.29-.11.58-.17.88,0,.04-.02.11-.05.12-.3.11-.23.39-.29.61-.03.11-.07.22-.14.32,0,.12.19.27-.1.35.02.07.04.14.06.22-.22.05-.28.19-.3.4-.04.34-.16.67-.2,1.01-.02.19-.16.34-.1.57.05.22-.08.48-.13.73-.05.25-.11.51-.17.76,0,.02,0,.05,0,.06.16.24,0,.29-.2.33,0,.31-.29.65.15.94-.27-.04-.29.11-.24.23.04.09.15.15.23.23-.03,0-.06,0-.09,0-.05.09-.13.17-.13.26,0,.28.01.56.03.84,0,.05.08.1.12.14-.02,0-.04,0-.07.01,0,.09.02.18.03.27.01.15.03.3.03.46,0,.04-.07.08-.06.11,0,.2.02.4,0,.61-.03.54-.07,1.09-.12,1.63-.02.18-.09.36-.11.55-.04.45-.06.9-.1,1.35-.04.47-.11.94-.15,1.41-.04.44-.07.88-.1,1.33-.02.24-.02.48-.06.72-.02.11-.08.21-.11.28v1.51c-.05-.09-.09-.16-.13-.23.03-.03.09-.06.09-.08-.02-.19-.04-.38-.07-.6-.17.25-.12.47,0,.69-.05,0-.1-.02-.18-.03.06.17.19.32.04.5-.03.04.1.21.17.33-.08.03-.17.06-.25.08,0,.15.01.29.02.44l.04.02c.07-.15.14-.29.2-.44l.08.03c-.07.19-.13.37-.2.56-.02.05-.06.14-.04.16.32.31.07.67.16.99-.02,0-.04.02-.06.03-.08-.05-.16-.09-.25-.14q0,.19.18.22c.05.15.1.29.14.43-.21.15,0,.32.02.5-.04.02-.08.05-.13.08.02,0,.05,0,.07.01-.01.51-.03,1.01-.04,1.52,0,.28,0,.56-.01.83,0,.2-.03.39-.04.65-.09-.09-.13-.14-.18-.19q-.08.16.14.35c-.07.03-.15.05-.23.08,0,.02.01.04.02.06h.13c.09.23.12.44-.08.61.2.15.2.21.04.38.08.24.12.46.06.73-.07.29-.03.6-.06.9-.04.5-.09.99-.13,1.48-.02.32-.01.63-.05.95-.04.29-.13.58-.17.87-.02.11,0,.22.04.33.1.33,0,.66-.04.98-.01.13,0,.27-.01.4,0,.48-.03.97-.02,1.45,0,.43.06.85.08,1.28,0,.14-.04.28-.04.43-.02.38-.03.76-.03,1.14,0,.26.04.53.05.79,0,.12-.02.24-.02.3.05.12.09.18.09.24,0,.31-.04.61-.02.92.04.55.11,1.1.16,1.65.03.3.09.59-.1.88-.09.14-.1.34-.15.53,0,0,.03,0,.09,0-.01.28-.08.58-.03.85.07.36-.17.61-.23.92-.05.25-.23.35-.4.46-.16.11-.31.03-.38-.15-.07-.18-.18-.34-.27-.51-.02-.03-.04-.07-.05-.1-.04-.21-.08-.41-.12-.65-.07.1-.12.17-.14.2-.06-.08-.11-.13-.17-.21.02-.31.47-.56.29-.91.03-.29.07-.53.07-.77,0-.3-.03-.6-.04-.9-.02-.57-.03-1.13-.04-1.7,0-.28,0-.56,0-.84.03-.52.09-1.03.13-1.55.03-.44.07-.88.03-1.31-.03-.32,0-.61.09-.91.03-.09-.03-.21-.05-.31.03-.12.09-.26.09-.39,0-.16-.07-.33-.04-.48.06-.32-.11-.65.08-.96.04-.07-.04-.21-.07-.32.03-.04.09-.09.12-.16,0-.01-.08-.07-.09-.08.02-.08.03-.15.04-.23.03-.24,0-.47.05-.72.09-.43.05-.88.06-1.32,0-.04-.05-.09-.05-.08.04-.2.08-.35.09-.5.01-.35-.05-.71.03-1.03.03-.14-.04-.24,0-.37.09-.31.06-.34-.25-.44h.26c-.06-.44-.06-.9.07-1.36-.13-.06-.15-.15.06-.24-.18-.06-.2-.14-.18-.31.03-.25-.03-.52-.04-.78-.04-.74-.08-1.48-.11-2.23,0-.18-.14-.37.04-.54-.19-.44-.06-.91-.12-1.36-.08-.55-.17-1.1-.14-1.65.02-.32-.04-.64.02-.97.06-.33-.04-.68-.05-1.03,0-.44,0-.88,0-1.32,0-.17.05-.34.06-.51.01-.15,0-.31,0-.47,0-.13,0-.26,0-.39-.01-.38-.02-.76-.04-1.13-.03-.7-.06-1.4-.1-2.1-.01-.22-.14-.44-.11-.64.04-.26-.06-.47-.08-.7-.02-.32-.04-.64-.05-.97-.02-.42-.03-.83-.05-1.25-.04-.88-.07-1.76-.12-2.64-.02-.5-.06-1-.08-1.5,0-.09.05-.19.06-.23-.02-.16-.06-.27-.05-.38.02-.7.05-1.4.08-2.1.02-.6.03-1.2.06-1.8.03-.68.05-1.36.12-2.04.07-.65.19-1.29.29-1.94.01-.09.09-.16.11-.25.04-.19.04-.38.08-.57.02-.07.08-.16.15-.19.39-.19.75-.09,1.11.09.03.02.07.03.1.06.19.19.32.17.51-.01.15-.15.33-.27.52-.38.08-.04.2,0,.32.03-.19.12-.27.25-.21.46.01.04-.11.13-.19.2.31.22.13.53.06.8-.15.67-.35,1.33-.51,2-.08.33-.12.68-.18,1.01-.08.42-.18.83-.27,1.25-.03.16-.11.26-.32.17.09.15.19.26.21.38.01.1-.08.22-.12.33,0,.15.02.32,0,.48-.04.3-.07.6-.15.88-.12.39-.01.81-.18,1.2-.03.06,0,.14,0,.22-.07.02-.14.04-.22.06.16.18.32.35.15.59.2.25-.04.54.08.81.06.13-.04.31-.04.47,0,.42.01.85.02,1.27,0,.17,0,.33,0,.52,0,0-.05.02-.06.02.2.49.13,1.02.26,1.52.18.67.28,1.36.62,1.98.11.19.2.4.29.6.02,0,.04-.01.06-.02,0-.16,0-.33,0-.49.02-.4.05-.8.06-1.2.02-.48.02-.95.04-1.43.02-.39.06-.78.09-1.18.01-.14.02-.29.05-.43.05-.22.12-.43.16-.65.03-.19.01-.38.05-.56.06-.27.18-.52.22-.79.04-.33.23-.63.22-.98,0-.24.09-.48.16-.72.07-.23.19-.45.27-.69.06-.19.08-.39.13-.58.08-.28.18-.55.27-.83.06-.19.12-.38.2-.61,0,0-.02-.08,0-.14.08-.27.17-.54.26-.8,0-.02.01-.05.03-.06.27-.35.32-.77.42-1.18.03-.12.13-.22.18-.34.19-.49.36-.98.54-1.47.16-.42.34-.84.52-1.26.2-.46.37-.93.6-1.37.26-.49.39-1.03.67-1.51.23-.4.44-.81.67-1.22.22-.39.45-.78.65-1.12-.12,0-.27-.01-.43-.02-.53-.05-1.05-.18-1.51-.46-.21-.13-.4-.31-.6-.46-.29-.22-.6-.42-.89-.64-.09-.07-.15-.16-.2-.22.1-.06.22-.12.37-.21,0,0,.06.07.12.13-.08.03-.16.06-.24.09.12.29.34.29.57.28-.1-.12-.2-.24-.3-.35ZM32.31,3.29c-.14,0-.28.01-.42.02-.27,0-.55.06-.8,0-.24-.05-.46-.06-.68.03-.04.02-.11.04-.11.07-.02.29-.19.56-.06.86.09.2.14.42.24.61.27.52.51,1.05,1.05,1.37.34.21.64.49.97.72.44.32.88.63,1.32.94.11.08.2.15.08.25.08.03.18.03.24.09.18.16.37.33.51.53.25.35.5.71.69,1.09.12.24.26.4.5.49.22.09.46.15.68.25.33.15.65.33.96.49-.37-.71-.74-1.43-1.11-2.15-.11-.21-.23-.43-.3-.66-.19-.64-.51-1.21-.92-1.72-.26-.32-.51-.63-.7-.98-.05-.09-.09-.18-.16-.25-.33-.39-.67-.78-1-1.18-.24-.28-.5-.53-.86-.63-.16-.05-.17-.13-.15-.26.18-.13.31.03.45.1.2.11.39.27.6.32.2.04.27.12.28.3,0,.17.07.3.24.33.3.05.54.21.72.43.42.47.8.98,1.22,1.44.33.37.61.77.83,1.21.14.29.31.56.47.87.2-.39.11-.78.02-1.13-.19-.72-.44-1.42-.67-2.12-.02-.06-.05-.11-.08-.16-.12-.18-.27-.35-.37-.54-.06-.12-.12-.28-.09-.4.03-.2-.06-.31-.2-.39-.24-.14-.48-.27-.71-.43-.46-.3-1.03-.36-1.46-.72,0,0-.01,0-.02,0-.57-.11-1.13-.3-1.71-.01-.26.13-.57.16-.85.26-.21.07-.43.15-.58.4.23.01.43.02.62.04.31.03.61.05.92.09.13.02.25.09.37.13ZM12,35.81c.08.01.13.02.18.03.42.09.82-.04,1.22-.13.52-.11,1.03-.22,1.54-.34.36-.09.76-.14,1.06-.33.62-.38,1.19-.85,1.77-1.28.33-.25.57-.63,1-.74.03,0,.06-.08.08-.13.11-.3.33-.48.62-.6.09.26.14.49-.05.71-.21.25-.4.51-.6.77-.04.05-.06.12-.1.18-.03.07-.05.15-.1.19-.41.3-.82.6-1.23.89-.21.15-.43.3-.65.46.2.02.4,0,.46.27-.31.01-.6-.2-.92-.01-.22.13-.48.18-.71.27-.43.16-.84.38-1.32.4-.17,0-.34.05-.52.07.55.32,1.11.58,1.67.85.59.28,1.2.53,1.76.86.66.39,1.24.9,1.76,1.53-.04-.49-.07-.93-.1-1.38.28,0,.11.19.15.29.08,0,.15.02.2.02-.05.03-.15.06-.16.11,0,.06.06.12.07.15-.15.34.06.64,0,1,.21-.2.36-.35.55-.52,0,0,0-.06-.02-.12.01,0,.03.02.04.03.65-.93,1.29-1.87,1.93-2.79-.05-.06-.1-.13-.11-.14.13-.12.26-.21.34-.33.21-.31.35-.68.8-.75,0-.02-.02-.04-.03-.05-.14.04-.28.08-.45.13.11-.25.25-.4.51-.42.07,0,.15-.09.2-.16.2-.3.38-.61.58-.91.04-.07.13-.11.18-.17.3-.41.57-.84.89-1.23.69-.84,1.41-1.66,2.11-2.49.3-.36.6-.72.91-1.07.29-.33.59-.66.91-.96.33-.32.69-.6,1.03-.91.26-.23.52-.45.78-.68-.08,0-.13.04-.19.05-.11.02-.26.06-.34,0-.37-.25-.67-.58-.84-.99-.09-.2-.17-.22-.35-.15-.19.08-.34.03-.42-.16-.04-.09-.05-.18-.08-.32-.13.04-.28.07-.4.13-.74.37-1.49.33-2.25.07-.74-.25-1.4-.66-2.02-1.13-.04-.03-.08-.04-.13-.06-.02.01-.03.03-.05.04.19.36.4.71.57,1.08.25.56.26,1.13-.1,1.65-.22.32-.51.6-.77.89-.03.04-.11.04-.12.05v.5c-.08,0-.19,0-.19.03-.06.18-.24.2-.36.3-.27.22-.53.45-.8.68-.56.48-1.2.7-1.96.51-.12.26-.23.52-.19.83.02.18-.12.49-.26.59-.39.28-.76.56-1.15.84-.11.08-.25.12-.38.18-1.74,1.36-3.47,2.75-5.47,3.83ZM54.27,15.69s-.05.01-.07.02c-.02-.07-.03-.16-.08-.22-.13-.2-.26-.4-.42-.58-.08-.09-.27-.1-.33-.2-.22-.31-.44-.61-.76-.81-.27-.17-.58-.27-.87-.41-.35-.17-.65-.44-1.08-.42-.01,0-.03,0-.04-.01-.28-.1-.55-.22-.83-.29-.53-.12-1.08-.18-1.62-.3-.51-.11-1,.01-1.5.04-.57.03-1.11.15-1.65.33-.36.12-.73.19-1.1.26-.6.11-1.2.2-1.79.31-.06.01-.15.1-.14.15.06.43.1.87.23,1.28.15.47.58.76.94,1.07.26.23.6.37.87.59.43.36.82.77,1.25,1.14.28.23.57.46.89.62.4.2.82.35,1.24.51.51.19,1.01.41,1.53.53.51.12,1.05.16,1.57.18.3.01.63-.03.91-.13.76-.27,1.37-.78,1.92-1.37.06.05.12.09.2.15,0-.55.4-.82.68-1.17-.06-.02-.1-.04-.16-.06.08-.1.14-.19.21-.27.12-.14.21-.27.02-.44-.05-.04-.06-.17-.04-.24.01-.04.13-.04.18-.05-.02-.12-.04-.25-.07-.38-.04-.13-.09-.25-.14-.37-.02,0-.04.01-.05.02.03.17.05.34.08.5ZM60.58,15.58c-.06-.1-.15-.25-.25-.4-.22-.32-.46-.63-.67-.95-.23-.36-.42-.75-.66-1.1-.56-.82-1.14-1.62-1.72-2.42-.53-.73-1.17-1.34-2.04-1.65-.22-.08-.48-.12-.66-.25-.26-.19-.5-.43-.68-.69-.25-.37-.54-.72-.75-1.14-.17-.34-.52-.57-.91-.69-.25-.08-.51-.14-.77-.23-.86-.28-1.67-.15-2.38.38-.65.49-1.19,1.11-1.71,1.75-.27.33-.57.64-.87.95-.34.36-.7.7-1.04,1.07-.5.53-.99,1.08-1.47,1.62-.03.03,0,.1,0,.15-.34.06-.55.29-.76.62.52-.09.99-.17,1.46-.25.13-.02.25-.08.37-.13.43-.18.89-.28,1.35-.33.28-.03.56-.05.83-.07.23-.02.47-.07.7-.04.41.04.81.15,1.22.19.78.06,1.48.38,2.22.58.08.02.17.02.25.03-.05.04-.1.07-.15.11.13.03.28.05.4.11.35.17.7.34,1.03.55.27.17.53.35.66.68.04.1.19.15.29.23,0-.25-.3-.41-.15-.68-.14-.14-.02-.22.08-.3.08-.06.16-.12.23-.18-.04-.11-.09-.22-.14-.34-.17.15-.36.23-.58.13,0-.08-.01-.14-.02-.2-.02-.15-.04-.29-.06-.44,0-.09.02-.19,0-.28-.1-.31-.24-.6-.34-.91-.09-.3-.14-.6-.06-.92.07-.25.44-.57.65-.5.16.05.3.17.45.27.54.34,1.09.67,1.62,1.02.96.65,1.69,1.52,2.3,2.48.38.6.84,1.13,1.31,1.65.23.25.51.46.77.67.09.07.18.1.29,0,.08-.08.21-.09.33-.14ZM8.27,23.31c-.06.14-.13.25-.15.37-.09.44-.17.89-.24,1.34-.03.2-.05.41-.04.61,0,.13-.05.28-.04.35.05.32.26.57.57.7.12.05.23.12.35.18.09.04.19.11.28.1.26-.02.52-.11.78-.1.35.02.66-.08.94-.26.24-.15.48-.33.73-.46.49-.26,1.01-.48,1.49-.76.55-.32,1.08-.67,1.58-1.06.67-.52,1.3-1.1,1.95-1.66.09-.07.23-.13.25-.22.07-.26.22-.43.41-.6.13-.12.24-.27.31-.43.2-.48.49-.88.95-1.14.2-.11.38-.26.59-.4-.18-.21-.34-.39-.51-.59-.13.19-.26.18-.41.11-.17-.08-.35-.15-.53-.21-.31-.11-.62-.2-.92-.3-.09-.03-.17-.13-.26-.14-.53-.05-1.06-.07-1.59-.11-.15-.01-.33.01-.43-.07-.13-.11-.17-.19-.25.02-.02.05-.12.09-.2.11-.14.03-.29.05-.44.08-.48.1-.95.21-1.34.54-.17.14-.34.27-.51.41-.28.22-.57.43-.82.67-.37.35-.72.71-1.07,1.08-.37.38-.73.77-1.08,1.17-.1.12-.16.28-.23.42-.05.08-.09.17-.13.26ZM70.72,41.36s.02,0,.03,0c.03-.11.06-.22.09-.33,0-.04.02-.12,0-.13-.17-.12-.06-.26,0-.36.15-.24.27-.48.35-.76.13-.44.37-.85.55-1.27.16-.37.31-.74.46-1.11.06-.15,0-.24-.15-.16-.25.13-.5.27-.7.46-.36.35-.69.74-1.01,1.12-.59.71-1.19,1.41-1.99,1.91-.37.23-.69.48-1.18.48-.39,0-.42.11-.2.46.13.21.29.42.39.65.31.73.61,1.45.87,2.2.19.53.3,1.08.45,1.62.09.34.21.68.29,1.03.03.11.14.28-.09.28.04.14.08.27.12.38.04.05.11.11.1.13-.15.26.06.47.09.71,0,.07.03.17.08.21.25.21.26.2.02.39.16.07.26.16.15.27.02.12.03.21.05.29.01.09,0,.19.04.28.06.15.15.29.22.43-.04.02-.11.06-.11.07.05.18.11.35.17.54q-.08.06.08.26s-.09.08-.08.08c.14.4.26.77.39,1.17.03.01.1.04.14.06-.05.09-.13.22-.12.22.23.17,0,.35.03.51.11.08.22.16.34.26-.12.02-.2.04-.28.05.04.13.08.25.1.36.03.25.03.51.06.76,0,.05.05.1.07.15.02.04.03.08.04.12,0,.24,0,.48.02.71.05.46.15.92.16,1.39.02.42.06.82.14,1.23.11.57.14,1.17.2,1.75.09.85.18,1.71.27,2.56.02.21-.01.43.04.64.09.33,0,.71.29.98.02.02,0,.11-.01.16.3-.03.31-.03.32-.32,0-.15-.02-.3-.01-.45.01-.37.03-.74.04-1.11,0-.26,0-.52,0-.78,0-.09.01-.18,0-.27-.02-.19.07-.37.02-.57-.04-.13.03-.28.04-.42.02-.16.02-.32.04-.49.02-.31.05-.62.07-.92,0-.07.04-.16.02-.21-.16-.33-.03-.68-.06-1.02-.03-.29.07-.59.09-.89.03-.43.03-.86.04-1.29.01-.34.04-.67.04-1.01,0-.28-.04-.56-.05-.84-.01-.24.03-.5-.04-.73-.07-.24.08-.52-.14-.72-.01-.01,0-.07,0-.09.1-.15.08-.3.03-.46-.02-.08-.01-.2.03-.27.11-.19.22-.37-.03-.54-.03-.02-.02-.09-.02-.13-.05-.44-.1-.89-.16-1.33-.05-.38-.12-.75-.15-1.12-.02-.31-.05-.61-.22-.89-.13-.2-.14-.42.08-.61.04-.03.02-.16-.01-.22-.04-.07-.12-.12-.18-.17-.59-.45-.84-1.06-.89-1.78-.03-.42-.04-.85-.09-1.27-.01-.12-.11-.25-.2-.34-.21-.2-.33-.42-.24-.72.05-.18.11-.35.17-.53.06-.16.13-.32.22-.52.21.33.06.73.31.97v-1.12ZM60.86,18.21c-.2-.06-.4-.14-.6-.19-.37-.08-.77.1-1.14-.12-.1-.06-.26-.03-.39-.02-.15,0-.3.05-.45.05-.1,0-.2-.09-.3-.1-.57-.06-1.12-.01-1.6.33-.17.12-.35.23-.47.38-.13.18-.42.27-.37.57,0,0,0,.01-.02.02-.23.21-.45.44-.7.62-.24.18-.23.5-.43.69-.01.01-.01.05,0,.07.15.18,0,.25-.11.35-.06.05-.12.13-.14.2-.08.34-.16.67-.22,1.02-.17.93-.32,1.85-.49,2.78-.05.31-.12.63-.17.94,0,.06.02.16.06.2.21.18.44.33.73.29.19-.02.38-.05.56-.1.39-.11.83-.04,1.15-.37.03-.03.08-.03.1-.05.04-.04.07-.09.11-.14.06-.08.12-.17.19-.23.09-.07.21-.11.3-.18.38-.28.61-.67.8-1.08.26-.56.47-1.14.72-1.71.16-.37.28-.73.28-1.14,0-.29.05-.32.35-.31.07,0,.13-.02.18-.03.07.09.12.16.2.27.21-.43.36-.8.57-1.14.31-.48.63-.95,1-1.39.13-.15.29-.25.27-.51ZM26.67,24.41s.02-.07.03-.1c-.18-.07-.35-.14-.53-.21-.51-.21-1.05-.38-1.54-.64-.45-.25-.86-.59-1.26-.92-.7-.57-1.38-1.15-2.07-1.73-.11-.09-.22-.17-.33-.26.03.37.06.69.07,1.02,0,.2-.05.41-.05.61-.03,1.11.09,2.21.34,3.3.09.41.15.82.22,1.23-.02.02-.05.03-.07.05-.05-.05-.14-.1-.16-.16-.09-.31-.18-.63-.25-.94-.11-.5-.2-1.01-.28-1.52-.12-.77.06-1.57-.17-2.34-.16-.55-.26-1.11-.42-1.66-.08-.28-.19-.29-.38-.08-.26-.15-.28-.15-.43.11-.02.04-.04.08-.06.12-.23.31-.5.59-.68.93-.2.37-.37.78-.48,1.19-.15.55-.36,1.08-.29,1.68.1.88.29,1.73.61,2.55.23.57.46,1.14.7,1.71.12.3.39.43.73.38.03,0,.08.01.1.03.23.15.44.09.63-.06.3-.24.59-.51.88-.77.48-.45.92-.93,1.44-1.34.46-.36.47-.81.41-1.28-.06-.49-.2-.97-.32-1.45-.02-.09-.08-.18-.15-.25-.27-.28-.56-.54-.81-.84-.16-.18-.27-.41-.35-.64-.03-.08.06-.24.14-.32.04-.04.2,0,.26.05.57.5,1.14,1.01,1.7,1.53.09.09.13.21.29.16.02,0,.07.06.09.1.02.03,0,.1.02.11.17.11.34.23.52.3.28.11.57.21.87.25.34.06.7.05,1.05.07ZM72.92,47.08c-.02.1-.03.13-.03.17-.02.78-.06,1.55-.07,2.33,0,.41.03.83.02,1.25-.01.62-.04,1.24-.07,1.87,0,.15-.08.33-.03.44.11.22,0,.26-.14.31.03.18.07.34.09.5,0,.07-.04.15-.04.22.02.25.03.5.08.74.04.19-.06.35-.03.51.05.34,0,.66-.03.99-.01.16.06.32.09.47-.02.21-.03.41-.05.61,0,.04.03.1.02.13-.1.2,0,.41-.01.62,0,.12.02.25.03.38,0,.18-.14.38.05.49-.03.14-.06.25-.07.35-.04.39-.06.78-.1,1.17-.02.14-.09.28-.1.42,0,.17.08.37.03.52-.08.25,0,.49-.04.72-.03.2-.08.37.04.55,0,0,0,.02,0,.02-.2.08-.04.22-.05.32,0,.06.02.15,0,.18-.16.2,0,.39-.01.58-.2.11-.18.68.02.95-.03.13-.09.24-.06.32.09.25-.15.48-.01.73,0,.01-.04.05-.05.08-.03.23-.05.46-.07.74-.22,1.5-.45,3.04-.12,4.56.07.21.13.38.18.55,0,.02-.04.06-.07.09-.03.03-.09.04-.1.07-.1.26-.06.55.1.73.14.16.11.31.09.44-.03.22-.02.36.19.49.11.07.14.2,0,.31-.2.16-.18.37.03.52-.02,0-.04.02-.07.02.03.09.06.18.11.3.21-.23-.07-.54.24-.65-.03-.08-.06-.14-.11-.24.08.04.13.06.16.07.03-.37.06-.74.09-1.12-.11-.02-.28-.05-.45-.08.25-.17.32-.43.46-.66.16-.26.12-.45.02-.69-.05-.13-.19-.28.05-.39.02,0,.02-.09,0-.12-.09-.15.11-.35-.09-.47,0,0,0-.02.01-.04,0-.12.02-.24.03-.36,0-.08-.02-.19.02-.23.21-.25.14-.55.19-.83.01-.07.04-.16.02-.22-.2-.4-.04-.73.2-1.07-.11-.09-.22-.18-.31-.26.07-.27.15-.53.22-.79.03-.13.07-.26.07-.39,0-.21,0-.42,0-.62,0-.26,0-.53,0-.79,0-.09.03-.17.05-.26.03-.14.1-.28.09-.42,0-.24-.07-.47,0-.74.09-.33.03-.72-.01-1.07-.03-.23.03-.41.16-.57.1-.13.14-.24,0-.36-.03-.03-.05-.08-.07-.12.2-.14.26-.31.19-.53-.01-.05,0-.1,0-.15,0-.07.02-.17-.01-.2-.15-.14-.09-.29-.06-.45.02-.1.2-.18.03-.3.16-.34.06-.71.11-1.06.04-.31.1-.61.13-.92.02-.32.01-.64.01-.97,0-.06-.03-.12-.04-.18,0-.05-.03-.1-.01-.14.16-.31-.05-.68.16-.98,0-.01-.01-.04-.01-.07,0-.31,0-.62-.02-.94,0-.08-.02-.17-.02-.25-.01-.34-.02-.68-.03-1.02,0-.14-.02-.28-.03-.47,0-.01.05-.09.05-.17.03-.53.05-1.07.08-1.6,0-.1.05-.21.05-.31,0-.22-.01-.44,0-.67.01-.42.05-.83.04-1.25,0-.39-.05-.77-.07-1.16,0-.16-.07-.17-.22-.17-.26,0-.52-.04-.78-.09-.12-.02-.23-.12-.37-.2ZM53.22,23.46c.08-.35.17-.68.23-1,.08-.41.09-.84.22-1.22.16-.47.38-.94.63-1.37.19-.34.48-.63.72-.94.12-.15.28-.29.34-.46.05-.16.14-.21.27-.27.1-.04.22-.09.3-.16.24-.19.44-.43.69-.58.23-.13.51-.22.77-.23.46-.03.93.01,1.4.03.27.01.54.05.81.05.21,0,.42-.03.64-.04,0-.44-.16-.78-.61-1.16-.54-.46-1.14-.85-1.48-1.5-.05-.1-.11-.2-.18-.29-.15-.19-.31-.37-.46-.57-.35-.45-.69-.91-1.04-1.36-.11-.14-.22-.29-.37-.38-.24-.17-.51-.3-.77-.44-.59-.33-1.18-.66-1.8-1.01,0,.07,0,.1,0,.13.12.35.25.7.37,1.05.25.71.52,1.41.76,2.12.09.27.14.56.23.84.09.28.19.56.1.85.05.06.1.12.09.18-.02.22-.06.45-.07.67,0,.07.06.2.11.22.35.1.7.17,1.05.25,0,.07.05.12.1.14.07.02.15.01.22.02,0,.04,0,.07-.01.11-.09-.02-.19,0-.25-.05-.26-.21-.57-.2-.87-.24-.38-.05-.48.01-.49.3-.04,0-.09,0-.13,0-.29-.07-.5.06-.58.35-.03.11-.14.21-.21.31-.08.09-.15.18-.19.29-.04.1-.1.26-.06.32.11.17.04.26-.07.35-.13.12-.31.2-.4.34-.19.32-.49.47-.79.62-.11.06-.32.03-.37.11-.14.21-.37.18-.53.21-.34.06-.7.04-1.05.01-.92-.06-1.79-.33-2.63-.69-.11-.05-.24-.05-.36-.07.15.15.29.27.44.37.34.21.68.42,1.04.61.4.2.81.39,1.22.56.16.07.35.07.53.12.2.06.43.11.58.24.17.15.32.25.46.23.27.17.49.29.69.43.12.08.22.18.34.26.36.23.41.32.39.62-.17.13-.37.21-.4.33-.08.27.21.29.38.42ZM10.25,67.96c.05-.08.1-.14.12-.21.03-.13.03-.27.04-.4,0-.1,0-.21.02-.31.02-.18.06-.36.08-.55.03-.23,0-.46.07-.68.06-.22-.15-.22-.2-.34-.16-.34-.35-.68-.53-1.01-.01-.03-.03-.05-.04-.08-.1-.33-.21-.66-.3-.99-.03-.12-.03-.25-.05-.41-.02-.04-.08-.11-.1-.19-.05-.17-.06-.35-.11-.52-.05-.18-.12-.35.08-.4-.06-.07-.15-.14-.16-.21-.04-.19-.04-.39-.05-.59-.01-.54-.03-1.08-.03-1.62,0-.55,0-1.1.02-1.65,0-.37.03-.73.05-1.1.01-.22.1-.45.06-.66-.05-.24-.01-.43.11-.62,0-.01.01-.03,0-.04-.05-.22-.02-.42.06-.63.04-.1.04-.24,0-.33-.1-.2.05-.29.12-.43.06-.11.14-.26.11-.35-.11-.31-.02-.55.14-.74-.02-.08-.05-.14-.04-.19.06-.34.12-.68.19-1.01.05-.21.12-.41.18-.62.02-.06.02-.12.03-.17,0-.1,0-.2.03-.29.12-.48.25-.95.36-1.42.06-.26.03-.28-.22-.22-.02,0-.05.01-.07,0-.19-.18-.39,0-.58,0-.17,0-.27.13-.3.31-.02.16-.04.32-.08.48-.08.38-.21.76-.26,1.15-.06.55-.05,1.1-.1,1.65-.02.17,0,.35,0,.53,0,.29.03.58-.01.85-.05.33-.1.66,0,.99,0,.01-.02.04-.03.05,0,.1-.02.19-.02.29,0,.21,0,.43,0,.64,0,.31-.14.64.13.91.09.09.06.14-.07.21,0-.06-.02-.13-.03-.2-.03,0-.07,0-.1,0,.01.21.03.42.04.63,0,.05,0,.09,0,.14-.01.23-.04.45-.04.68,0,.24.08.52-.01.72-.16.36,0,.63.09.93-.05.12-.09.24-.09.36.01.34.24.66.08,1.01,0,.01,0,.03,0,.05.01.36,0,.73.04,1.09.05.55.12,1.09.18,1.64-.06.02-.11.04-.15.06.1.24.2.45.27.68.03.08-.04.18-.02.27.03.17.1.33.11.5.07.7.11,1.41.18,2.12.01.15.03.29-.16.29.05.07.15.17.14.18-.13.13-.01.25-.01.38,0,.33-.01.65-.03.98,0,.12-.05.24-.06.36-.01.28,0,.57-.02.85,0,.17-.06.33-.06.49-.01.38-.02.77,0,1.15.01.35-.12.7.03,1.05,0,.02,0,.05,0,.07.02.59.03,1.17.06,1.76.02.38.07.75.08,1.13.01.47,0,.94-.01,1.41,0,.48.15.96.08,1.45,0,.02.03.05.04.08.03.18.06.37.07.55.01.16,0,.32,0,.48,0,.22,0,.45,0,.67,0,.19-.02.37-.02.56,0,.07.02.14.06.2.02.03.09.05.13.05.02,0,.04-.07.04-.11,0-.11-.02-.23-.02-.34,0-.27,0-.54.02-.81.04-.31-.11-.65.14-.92.02-.02,0-.1-.02-.12-.26-.21-.1-.46-.09-.7,0-.14.03-.29.04-.43.01-.11.03-.21.06-.35-.01-.01-.08-.05-.12-.11-.03-.04-.06-.13-.04-.15.18-.22.19-.44.08-.7-.05-.13-.06-.28-.06-.43,0-.24.03-.48.07-.72.05-.29-.19-.58.03-.86.01-.02,0-.06-.02-.09-.02-.1-.1-.23-.06-.31.12-.27-.05-.52-.02-.79.04-.32,0-.65.02-.97,0-.18.02-.36.03-.55,0-.28,0-.56.01-.84,0-.1.06-.19.07-.29.06-.57.1-1.14.16-1.71,0-.08.1-.14.15-.21-.07-.03-.15-.07-.1-.26.07-.25.08-.52.11-.79,0-.03-.06-.06-.09-.09.19-.06.2-.07.09-.23ZM72.87,37.34s-.04.08-.05.11c-.09.32-.15.65-.28.95-.18.42-.42.81-.63,1.22-.2.39-.4.78-.56,1.19-.21.53-.25,1.1-.33,1.67-.07.54-.01,1.05.04,1.58.04.46.18.92.2,1.38.02.46.33.68.64.91.13.1.22.04.25-.11.05-.19.09-.38.13-.57.17-.79.35-1.58.52-2.37.02-.11,0-.22.03-.32.19-.76.21-1.54.26-2.31.06-.88.07-1.77.09-2.66,0-.27-.06-.5-.32-.67ZM73.89,37.78c.42.29.86.5,1.19.83.28.27.69.45.8.88.03.1.11.2.19.26.62.44,1.15.98,1.59,1.6.16.22.28.45.43.68.02.04.06.06.08.1.11.14.26.26.32.42.07.17.18.17.32.18.06,0,.12-.03.15-.04.01.08.03.15.04.22.04-.05.1-.1.13-.16.03-.06.04-.14.05-.16-.08-.04-.15-.07-.19-.09.05-.08.1-.11.09-.15-.01-.19-.04-.37-.06-.55-.08-.67-.32-1.28-.67-1.86-.1-.17-.2-.36-.27-.54-.2-.55-.52-1-1.04-1.29-.85-.48-1.7-.98-2.56-1.45-.12-.07-.31-.02-.47,0-.03,0-.08.11-.07.14.14.35.13.68-.05,1ZM74.07,35.57c.09.09.19.21.29.31.3.29.49.32.83.09.17-.11.32-.27.5-.37.24-.12.49-.21.78-.23.42-.03.77-.28,1.06-.6.15-.17.37-.28.49-.46.38-.57.73-1.16,1.08-1.74.17-.28.07-.49-.25-.46-.34.03-.69.1-1.01.22-.29.12-.54.33-.79.52-.48.37-.95.77-1.44,1.14-.31.24-.64.46-.98.66-.34.21-.7.4-1.04.61-.06.03-.11.19-.1.2.12.08.26.16.4.21.03.01.09-.06.16-.12ZM70.55,37.41s-.03-.03-.04-.05c-.27.14-.55.25-.79.42-.37.27-.71.57-1.05.87-.54.48-1.2.77-1.85,1.08-.26.12-.51.27-.79.32-.45.09-.87-.03-1.26-.3.03.13.1.24.11.36.02.26.18.33.4.35.25.03.52-.07.75.14.04.04.16,0,.25,0,.08-.01.17-.05.25-.05.41.01.77-.12,1.14-.26.81-.3,1.36-.88,1.79-1.6.29-.49.53-1.01,1.08-1.28ZM71.99,81.11c0,.2,0,.42,0,.63,0,.09.06.18.04.26-.06.25-.15.49.1.69.02.01.01.1,0,.1-.2.06-.12.24-.16.37-.04.12-.01.2.15.21.16,0,.22-.04.21-.19,0-.16-.02-.32-.02-.48,0-.36.01-.72.02-1.08,0-.02,0-.05-.01-.07-.12-.16-.23-.31-.33-.45ZM71.96,84.96s.03.03.04.05c.05,0,.1,0,.15-.01v.78s.04.01.06.02c.03-.09.08-.18.09-.27,0-.24,0-.49,0-.73,0-.1,0-.21.03-.31.07-.32-.21-.53-.22-.83-.1.1-.03.76.1,1.02-.08.1-.16.19-.24.29ZM72.21,80.74c0-.09,0-.16,0-.23.01-.22.03-.45.04-.67,0-.05-.05-.1-.07-.15-.05.04-.13.07-.14.12-.02.15-.02.29-.03.44,0,.15,0,.3,0,.45,0,.01,0,.03.02.05.06,0,.12,0,.17-.01ZM71.79,65.43c.16-.16.19-.33.16-.53,0-.04,0-.09,0-.14,0-.05.02-.12,0-.14-.03-.03-.11-.03-.15-.01-.04.03-.07.09-.08.14-.01.05.03.13,0,.15-.19.22.07.35.09.53ZM7.75,26.93c.18.18.39.24.58.17-.12-.33-.31-.38-.58-.17ZM17.37,15.59c-.17.25-.09.46.26.62-.08-.2-.17-.39-.26-.62ZM57.99,10.11c.09.03.17.06.25.08v-.38s-.04,0-.07,0c-.05.08-.1.17-.18.29ZM40.47,13.23c.03.17.12.25.26.23.03,0,.02-.18.03-.3-.13.03-.21.05-.3.08ZM57.92,8.46c-.04-.09-.08-.16-.11-.23-.02,0-.04,0-.06,0-.03.12-.06.23-.1.36.05,0,.08,0,.1,0,.05-.03.1-.07.17-.12ZM52.75,23.26c.05.22.34.41.51.32-.17-.1-.34-.21-.51-.32ZM12.01,35.47s-.05-.06-.08-.08c-.08.06-.16.11-.23.17.03.04.1.1.1.1.07-.06.14-.12.21-.19Z"/>
      <path class="cls-1" d="M47.88,6.17s.04.1.06.18c-.07.05-.14.09-.2.13l-.04-.03c.04-.08.09-.16.13-.24-.01-.02-.03-.04-.04-.06-1.22.36-2.27,1.05-3.25,1.87.28-.3.34-.79.83-.88.09-.34.39-.48.66-.65.38-.25.8-.46,1.16-.75.4-.32.81-.64,1.13-1.06.19-.25.46-.42.65-.67.2-.28.45-.52.65-.79.26-.36.38-.79.35-1.23,0-.13-.15-.29-.27-.36-.33-.2-.71-.17-1.08-.18-.09,0-.18-.03-.27-.05-.15-.04-.27-.15-.46-.08-.09.03-.25-.03-.35-.09-.43-.25-.91-.33-1.38-.36-.53-.03-1.03.12-1.52.34-.58.25-1.17.47-1.74.74-.6.29-1.25.52-1.69,1.06-.35.43-.66.9-.94,1.38-.24.42-.42.88-.62,1.32-.16.37-.31.74-.47,1.11-.11.25-.23.48-.35.72-.08.05-.17.11-.29.18-.08-.38,0-.74.17-1.11.1-.21.12-.46.18-.69.02-.07.06-.13.08-.2.02-.06.03-.13.04-.2.02-.1.05-.19.07-.29.08-.28.13-.58.26-.83.24-.45.51-.89.81-1.31.45-.62,1.05-1.09,1.72-1.44.69-.36,1.41-.68,2.13-.99.36-.15.76-.24,1.14-.36.18-.06.37-.11.53-.2.31-.18.62-.09.93-.03.2.04.39.15.59.19.29.06.58.07.87.12.08.01.14.09.22.11.2.06.4.13.6.14.46.04,1.03.21,1.39.48.08.06.16.13.21.21.35.61.54,1.27.22,1.93-.22.45-.56.83-.87,1.24-.45.6-1.01,1.1-1.6,1.56-.09.07-.23.07-.37.11Z"/>
      <path class="cls-1" d="M6.44,42.27c-.04.37-.08.73-.11,1.08-.06.6-.06,1.21.06,1.8.07.35.18.7.23,1.05.05.4.04.82.05,1.23,0,.04-.08.11-.13.12-.04,0-.13-.04-.14-.07-.07-.22-.13-.44-.19-.66-.07-.26-.11-.54-.22-.78-.26-.57-.29-1.16-.26-1.77.03-.51.06-1.01.1-1.52.02-.19.38-.47.61-.48Z"/>
      <path class="cls-1" d="M12.07,13.13c-.18.02-.29-.09-.38-.24.07-.04.13-.08.27-.17-.09-.04-.16-.06-.2-.11-.03-.04-.04-.15-.02-.17.12-.09.13-.2.09-.33-.06-.22.1-.27.29-.3-.09-.04-.16-.08-.24-.11.18-.23.34-.45.5-.67.2-.27.47-.43.81-.46.2-.02.3.07.21.26-.08.16-.24.29-.37.42-.16.16-.34.31-.47.49-.08.11-.08.27-.12.4-.07.23-.14.46-.24.68-.05.1-.2.15-.15.31h0Z"/>
      <path class="cls-1" d="M12.85,16.58c-.37,0-.61-.2-.72-.62-.04-.15-.11-.3-.17-.45-.01-.04-.03-.07-.04-.11-.03-.17-.01-.34-.07-.51-.04-.14.07-.32.12-.49-.1-.05-.24-.12-.42-.22.11-.08.19-.12.24-.19.07-.08.12-.18.19-.27.06-.08.13-.15.23-.26.02.18.05.29.03.4,0,.05-.08.11-.13.14-.11.07-.22.13-.36.21.18.06.3.09.41.14.05.03.07.11.08.17.05.21.1.43.12.64.01.12-.03.25-.04.32.08.16.15.3.22.44.1.21.19.43.29.64Z"/>
      <path class="cls-1" d="M13.64,17.61c-.39.05-.7-.06-.95-.47.14.03.23.04.32.06,0-.02.01-.04.02-.06-.1-.02-.21-.06-.31-.06-.13,0-.25.01-.3-.17.07-.03.13-.07.21-.1-.08-.06-.16-.11-.23-.16.02-.03.05-.05.07-.08.22.07.44.07.59.34.15.26.39.47.59.7h0Z"/>
      <path class="cls-1" d="M36.8,23.02c.06.37.12.73.19,1.16-.21-.23-.32-.89-.19-1.16Z"/>
      <path class="cls-1" d="M12.07,13.13c.22.16.23.21.05.31-.12-.06-.22-.12-.33-.17.12-.06.21-.1.29-.14,0,0,0,0,0,0Z"/>
      <path class="cls-1" d="M13.64,17.61c0,.08.01.16.03.29.02.01.09.05.15.09-.01.02-.03.05-.04.07-.12-.07-.24-.14-.37-.22.1-.1.16-.17.23-.24,0,0,0,0,0,0Z"/>
      <path class="cls-1" d="M44.29,8.37c.1-.14.18-.32.47-.21-.16.1-.29.18-.43.26-.01-.02-.03-.04-.04-.05Z"/>
      <path class="cls-1" d="M69.31,11.5c.08.17.15.34.23.5-.02.01-.05.03-.07.04l-.26-.48s.07-.04.1-.06Z"/>
      <path class="cls-1" d="M3.15,41.28l.26-.65s.05.02.07.03c-.09.21-.19.42-.28.64-.02,0-.03-.01-.05-.02Z"/>
      <path class="cls-1" d="M19.38,38.16c.05.44.3.86.09,1.31-.03,0-.06,0-.09,0v-1.31Z"/>
    </g>
  </g>
</svg>