<?xml version="1.0" encoding="UTF-8"?>
<svg id="Layer_2" data-name="Layer 2" xmlns="http://www.w3.org/2000/svg" viewBox="0 0 59.5 92.61">
  <defs>
    <style>
      .cls-1 {
        fill: #000;
        stroke-width: 0px;
      }
    </style>
  </defs>
  <g id="illustrations">
    <g>
      <path class="cls-1" d="M45.47,84.54c.36.01.4-.3.49-.52.31-.74.61-1.5.89-2.25.09-.23.13-.49.2-.73.04-.13.12-.25.16-.39.1-.34.18-.68.29-1.02.07-.21.09-.43.12-.64,0-.04.02-.1.05-.11.22-.08.12-.26.14-.4.02-.15.07-.3.11-.45,0-.01.03-.02.04-.03-.15-.21.11-.21.19-.32v.16s.03.01.05.02c.05-.13.11-.25.13-.38.02-.15-.03-.28-.19-.3-.13-.44.27-.38.48-.5-.11-.16-.07-.28.04-.43.1-.12.14-.28.22-.43-.1-.02-.14-.03-.23-.04.07-.03.1-.05.13-.06.12-.02.18-.05.2-.21.03-.26.13-.52.18-.78.03-.17.02-.35.04-.52.02-.18.03-.35.19-.5.12-.11.23-.29.23-.44,0-.23.13-.43.13-.64,0-.22.15-.34.23-.51.11-.23.24-.46.3-.7.06-.24.05-.5.09-.74.01-.11.05-.22.08-.33.05-.16.1-.31.08-.5-.02-.16.14-.34.21-.51.08-.23.14-.48.23-.71.06-.15.17-.28.23-.42.17-.43.31-.87.48-1.3.11-.3.25-.59.37-.89.15-.4.28-.81.43-1.21.21-.57.43-1.13.63-1.69.11-.3.18-.61.28-.91.09-.28.21-.54.31-.82.11-.28.22-.56.31-.84.04-.12.05-.25.05-.37,0-.24.25-.77.41-.95.1-.11.17-.27.23-.41.1-.24.2-.47.28-.72.04-.14.05-.28.08-.43.01-.07,0-.17.04-.22.26-.34.36-.73.49-1.12.17-.52.46-1.01.72-1.5.19-.35.42-.68.61-1.03.09-.17.14-.37.21-.57-.04-.02-.08-.04-.1-.05.09-.12.16-.26.27-.35.52-.46.88-1.04,1.32-1.58.08-.09.09-.24.12-.37.03-.1,0-.24.06-.31.25-.29.17-.62.15-.94-.04-.53-.08-1.07-.17-1.59-.06-.37-.17-.73-.31-1.07-.13-.31-.33-.58-.49-.88-.08-.14-.14-.3-.22-.44-.1-.16-.22-.3-.34-.44-.05-.06-.14-.11-.19-.17-.29-.39-.68-.63-1.09-.85-.52-.28-1.05-.53-1.58-.78-.35-.16-.68-.15-.97.18-.08.09-.25.1-.38.15-.06.03-.11.07-.21.14.35.03.32.07.27.35-.05.26-.25.23-.39.32-.09.06-.21.08-.18.24,0,.03-.07.11-.1.11-.22-.02-.33.11-.42.27-.25-.04-.38.07-.4.32,0,.04-.04.08-.05.12-.04-.02-.07-.05-.11-.07-.01,0-.04.02-.05.03-.08.23-.22.42-.37.6-.03.04-.08.07-.12.1-.14.09-.29.16-.41.27-.32.28-.62.56-.93.86-.04.04-.05.15-.02.21.05.1.14.17.23.27-.47.52-1.01.96-1.64,1.33.02.03.05.06.1.12-.26.19-.51.37-.76.55-.14.11-.28.22-.43.33-.17.13-.34.26-.53.36-.36.19-.73.36-1.1.53-.12.05-.3.03-.36.11-.14.19-.35.18-.52.27-.47.24-.95.47-1.44.66-.25.1-.53.1-.8.16-.09.02-.17.05-.25.07-.24.07-.48.14-.72.19-.06.01-.13-.03-.2-.04,0,.02-.02.07-.03.07-.45.03-.83.3-1.27.36-.45.06-.88.2-1.33.27-.1.02-.19.07-.28.08-1.01.12-1.99.38-2.95.71-.63.22-1.29.33-1.93.48-.18.04-.35.12-.53.14-.4.05-.79.07-1.19.09-.23.02-.46.04-.69.03-.3-.01-.61-.09-.91-.07-.27.02-.54.13-.81.19-.16.03-.32.04-.47.07-.06,0-.11.05-.16.06-.39.11-.77.2-1.18.18-.39-.02-.79.09-1.18.11-.39.03-.79,0-1.18.03-.35.02-.69-.15-1.06-.06-.3.07-.62.04-.93.07-.3.03-.59.08-.89.1-.23.01-.45-.03-.68-.04-.39,0-.78.01-1.16,0-.25-.01-.49-.08-.74-.1-.38-.03-.76-.05-1.14-.06-.34,0-.68,0-1.01.01-.25.01-.53-.06-.71.2-.03.04-.11.06-.17.06-.37-.03-.72.01-1.07.15-.09.04-.23-.03-.32,0-.38.13-.78.04-1.16.06-.1,0-.21.06-.32.03-.14-.04-.28,0-.42-.13-.1-.1-.31-.08-.47-.12-.45-.11-.9-.23-1.35-.32-.19-.04-.38-.19-.6-.08-.05.02-.14-.01-.2-.04-.4-.21-.82-.28-1.26-.27-.38,0-.75,0-1.13.01-.01,0-.03,0-.04,0-.3-.12-.56.03-.83.1-.05.01-.1,0-.17,0,.02.04.04.08.08.17-.12-.04-.21-.06-.3-.09-.03.14-.06.16-.83.31.05.05.1.09.14.13-.04.08-.07.16-.11.26.1.03.19.05.3.08-.23.24-.14.65-.55.79.07-.09.11-.14.15-.2-.01-.01-.03-.03-.04-.04-.07.06-.14.12-.23.19-.1-.1-.21-.24-.41-.08.02.41.14.81.3,1.21.21.52.38,1.05.56,1.58.11.32.25.63.3.96.06.33.22.61.31.92.02.08.03.17.05.26,0,.04.01.1.04.11.13.07.16.15.06.27-.02.02-.02.06-.01.08.08.29.15.57.23.86.06.23.15.45.19.67.06.33.08.66.13,1,.04.29.09.58.15.87.03.16.17.31.04.48,0,.01.04.06.05.1.04.12.11.21.08.38-.04.2.06.43.11.64,0,.01.06.01.06.01-.03.1-.1.2-.08.28.04.22.12.42.17.64.03.12.02.24.03.37.02.19.02.38.05.56,0,.05.07.09.12.16h-.15c.04.1.07.18.1.27.08.31.14.61.14.94,0,.29.06.58.08.88.04.5.08.99.12,1.49.02.22.06.43.08.65.01.17,0,.33,0,.5,0,.06,0,.12,0,.17.11.37.13.75.16,1.13.04.49.03.98.05,1.47.02.38.05.77.1,1.15.03.23.11.46.16.69.02.09.02.18,0,.27-.07.33.07.63.13.95.11.63.27,1.25.34,1.88.04.39.22.76.17,1.16,0,.04.05.08.07.12.03.05.08.13.07.17-.1.21-.02.4.03.61.1.43.14.86.24,1.29.15.65.29,1.3.5,1.94.07.23.28.44.48.59.56.43,1.22.66,1.87.92.8.31,1.59.65,2.4.93.55.19,1.12.3,1.68.43.8.19,1.61.37,2.41.54.25.05.51.08.77.11.5.08,1,.16,1.5.23.14.02.29.01.43,0,.16-.01.3,0,.46.06.27.1.57.11.86.16.1.02.21.05.31.07.13.03.25.07.38.11.13.04.26.07.43.12.07-.03.2-.09.32-.15,0,.02.02.03.02.05-.05.04-.09.07-.14.11,0,.02,0,.04.01.05.26-.02.53-.03.78-.07.42-.07.83,0,1.25-.02.22,0,.44.11.67.17.09.02.19.04.28.04.27,0,.53,0,.8,0,.44,0,.87.03,1.31.04.55.01,1.09.02,1.64.02.38,0,.77-.02,1.15-.04.32-.01.64-.01.96-.04.26-.03.57-.03.77-.16.34-.23.65-.12.99-.09.04,0,.08-.04.14-.08.2.12.41-.04.62-.08.39-.07.78-.16,1.16-.25.2-.05.4-.12.6-.16.25-.05.49-.08.74-.12.07-.01.13-.03.19-.06.09-.05.19-.16.27-.15.25.05.42-.08.6-.21.02-.01.07-.03.08-.02.15.16.25.01.38-.04.39-.16.77-.35,1.2-.34.03,0,.07,0,.1-.01.38-.15.76-.3,1.15-.45.18-.07.37-.13.56-.18.22-.05.41-.2.65-.23.19-.02.36-.19.54-.28.11-.05.23,0,.35-.1.15-.12.37-.14.55-.23.67-.33,1.33-.67,2-1,.13-.06.28-.08.41-.15.21-.1.42-.22.62-.33.11-.06.23-.12.33-.21.53-.48,1.07-.96,1.57-1.47.18-.19.28-.46.41-.7.02-.04,0-.1,0-.19.37-.15.41-.57.5-.93.23-.97.45-1.94.64-2.92.15-.73.25-1.46.38-2.19.02-.14.07-.27.09-.41.05-.36.08-.72.15-1.08.04-.19.03-.41.22-.54.02-.01.03-.05.03-.07-.02-.46.15-.89.2-1.34.02-.18.03-.36.06-.53.06-.3.13-.6.19-.89.04-.2.1-.41.09-.6-.01-.24.12-.43.16-.65.03-.23.14-.46.2-.69.13-.44.25-.89.38-1.33.05-.19.14-.38.13-.57,0-.21.03-.41.09-.61.09-.32.15-.65.23-.98.16-.66.33-1.32.5-1.98.13-.48.28-.96.41-1.44.03-.12.02-.25.04-.37.02-.09.07-.18.1-.26.02-.05.07-.12.05-.15-.09-.14,0-.23.05-.34.11-.24.24-.49.31-.74.18-.71.32-1.42.51-2.13.26-.97.54-1.95.83-2.91.21-.7.46-1.38.68-2.08.2-.61.38-1.22.59-1.82.08-.23.22-.43.33-.65.03,0,.05,0,.08,0,.01.22.08.45.03.66-.21.9-.44,1.8-.68,2.69-.07.28-.2.54-.28.81-.17.58-.31,1.17-.5,1.75-.11.34-.28.66-.42.98,0,.02-.04.03-.04.04.06.34-.2.59-.22.92-.03.32-.22.62-.31.94-.32,1.18-.64,2.37-.95,3.55-.16.62-.34,1.23-.49,1.85-.17.69-.31,1.38-.48,2.07-.14.57-.31,1.13-.45,1.69-.12.48-.19.97-.3,1.45-.14.64-.29,1.27-.43,1.91-.16.7-.32,1.41-.48,2.11-.08.38-.15.77-.22,1.16-.02.1,0,.21,0,.31,0,.02.02.05,0,.06-.26.28-.06.63-.15.94-.09.31-.1.63-.15.95-.14.85-.28,1.69-.41,2.54,0,.05.03.1.05.18-.12.08-.19.17.03.28.13.06.14.21.04.28-.22.17-.3.38-.32.66-.03.35-.19.7-.2,1.05-.01.53-.39.85-.6,1.26-.04.08-.15.13-.22.2-.04.04-.06.08-.11.15,0,0-.05-.01-.08-.02-.02.13-.01.27-.07.35-.06.08-.2.11-.3.16.01,0,.05.03.11.08h-.3c.04.15.02.23-.16.18.03.06.05.1.08.16-.03,0-.05.02-.07.01-.07-.01-.16-.06-.12.09,0,.03-.04.08-.08.09-.33.13-.57.44-.96.44-.11,0-.05.18-.2.21-.22.04-.44.14-.64.25-.16.09-.3.23-.44.35-.02.02.01.1.02.11-.3.17-.59.34-.89.5-.04.02-.1.06-.13.05-.26-.06-.44.1-.64.2-.07.04-.17.02-.25.03-.11.02-.22.06-.32.08,0,.02,0,.04.01.06.09-.01.19-.03.28-.04.01.02.02.03.03.05-.11.07-.2.16-.32.21-.19.08-.37.19-.58.01-.12-.1-.37.01-.44.15-.03.06-.09.11-.12.16-.03.06-.04.12-.04.14-.12.02-.22.04-.33.07-.05.01-.11.07-.13.05-.16-.14-.32,0-.47,0-.22,0-.37.12-.38.34-.26.04-.55.03-.8.13-.31.12-.66.11-.93.33-.04.03-.1.07-.15.07-.29,0-.57.05-.84.12-.25.06-.51.12-.77.17-.4.08-.81.14-1.21.22-.13.03-.25.09-.38.14-.05.02-.09.04-.14.04-.66-.02-1.25.23-1.87.39-.25.07-.52.07-.77.1-.27.03-.54.07-.81.09-.18.02-.36,0-.55.02-.35.02-.7.08-1.05.07-.4-.02-.81.1-1.21-.07-.03-.01-.08,0-.11.02-.22.1-.43.18-.69.08-.14-.05-.32.03-.48.04-.45.04-.89.12-1.34.12-.35,0-.7-.01-1.05.05-.48.08-.96,0-1.43-.14-.1-.03-.22,0-.33-.02-.04,0-.08-.05-.12-.07-.13.21-.39.29-.62.22-.14-.04-.3-.03-.49-.05.06.05.09.07.11.09,0,.02,0,.04-.01.06-.24-.05-.5-.05-.72-.15-.39-.17-.78-.26-1.19-.29-.28-.02-.56-.1-.84-.14-.28-.04-.57-.08-.85-.12-.12-.02-.24-.07-.36-.1-.38-.08-.77-.15-1.15-.25-.41-.1-.81-.23-1.22-.33-.51-.12-1.02-.23-1.52-.35-.85-.2-1.63-.57-2.4-.98-.52-.28-1.03-.6-1.55-.88-.31-.17-.65-.3-.96-.49-.27-.16-.51-.38-.78-.54-.26-.16-.54-.28-.81-.42-.21-.12-.26-.2-.27-.48.06.03.12.06.19.1.03-.14.1-.26-.05-.36l-.09-.46s-.03-.05-.04-.07c-.12-.19-.27-.37-.34-.57-.08-.22-.11-.48-.09-.71.03-.37-.04-.7-.2-1.03.02.08.03.15.05.23h-.05c-.01-.1-.02-.22-.03-.33-.02-.29-.02-.58-.07-.87-.1-.62-.25-1.24-.35-1.86-.12-.72-.21-1.44-.31-2.15-.1-.73-.22-1.46-.31-2.19-.06-.53-.08-1.07-.13-1.6-.04-.4-.1-.8-.15-1.21-.02-.2,0-.4-.03-.59-.06-.4-.14-.79-.21-1.18-.05-.31-.1-.63-.15-.94-.03-.17-.05-.35-.09-.52-.12-.59-.24-1.18-.36-1.77-.04-.22.02-.45-.14-.64-.02-.02,0-.07.01-.1.14-.23.06-.46.02-.7-.02-.14-.03-.28-.06-.42-.01-.06-.06-.1-.1-.16.02-.04.05-.11.08-.18-.02-.01-.04-.02-.06-.03-.03.02-.07.04-.14.09.06-.2.11-.36.17-.58-.11.05-.16.07-.21.09-.02,0-.03-.02-.05-.03.05-.09.11-.19.19-.33-.11.04-.15.06-.23.09-.03-.16-.06-.31-.09-.45.02,0,.04,0,.07-.01.03.09.06.17.09.26.02,0,.04,0,.06-.01-.02-.16-.04-.31-.06-.48-.13.16-.17.09-.18-.06h.17c-.02-.27-.3-.51.03-.78-.04,0-.08,0-.11,0-.02.04-.04.07-.07.13-.06-.05-.12-.1-.2-.17.1-.02.16-.03.28-.04-.32-.23-.1-.54-.2-.79-.04-.1-.1-.18-.17-.31.09.03.13.05.2.08-.01-.07,0-.12-.03-.16-.37-.59-.38-1.27-.5-1.92,0-.06-.02-.11-.03-.17-.05-.27-.09-.54-.14-.81-.01-.08-.03-.16-.06-.24-.06-.15-.09-.3-.1-.47-.02-.27-.16-.53-.23-.8-.1-.36-.17-.72-.26-1.08-.01-.06-.06-.1-.07-.16-.04-.12-.06-.24-.09-.37,0-.02,0-.06-.01-.07-.28-.24-.25-.57-.28-.89-.01-.13-.05-.26-.09-.39-.02-.09-.06-.18-.09-.26-.12-.26-.26-.49-.59-.5-.05,0-.1-.06-.17-.1-.03.07-.06.13-.08.18-.11.01-.21.02-.32.04.04-.12.07-.24.11-.36.02,0,.06.02.09.03,0-.03.02-.05.01-.06-.12-.1-.12-.18.03-.27.14-.09.26-.22.36-.38-.06,0-.11,0-.17,0,.31-.07.41-.37.6-.56.56-.57,1.16-1.09,1.84-1.52.45-.28.86-.61,1.32-.87.57-.32,1.07-.76,1.7-1,.43-.17.84-.4,1.21-.69.08-.06.19-.09.28-.13.34-.15.68-.31,1.03-.44.37-.14.75-.25,1.12-.39.24-.09.46-.21.7-.3.29-.11.59-.19.9-.26-.14.21-.31.37-.57.44-.3.08-.6.17-.88.3-.45.21-.89.46-1.34.69-.28.15-.55.3-.83.44-.23.12-.48.22-.7.35-.2.12-.38.28-.58.42-.18.13-.34.31-.55.38-.56.2-.96.65-1.47.92-.18.1-.36.19-.52.31-.2.14-.38.29-.56.45-.41.35-.81.71-1.22,1.07-.04.03-.07.08-.11.09-.35.14-.54.37-.65.79.24-.03.47-.05.69-.1.27-.07.52-.2.79-.26.27-.06.56-.07.83-.12.14-.03.29-.07.41-.15.28-.18.59-.14.9-.17-.03.02-.07.05-.13.1.13,0,.23.02.32,0,.4-.1.79-.23,1.18-.33.38-.09.77-.16,1.16-.23.06-.01.12,0,.18,0,.05,0,.13-.01.15-.04.08-.18.24-.18.39-.19.23-.01.45-.02.68-.06.08-.01.14-.1.22-.13.08-.03.18-.03.27-.04,0,0-.01-.05-.01-.05.54-.18,1.05-.36,1.57-.53.13-.04.27-.07.4-.13.07-.03.2-.04.12-.18,0,0,.08-.1.12-.1.25-.01.49,0,.74-.02.19-.01.37-.08.52.12.06.08.25.05.39.08.04,0,.08.01.18.03-.09.03-.16.04-.17.06-.11.26-.38.19-.57.28-.2.09-.43.06-.61.26-.16.18-.45.23-.67.36-.18.1-.41.07-.55.26-.04.05-.16.03-.24.06-.25.08-.5.16-.75.24-.06.02-.11.06-.17.08-.49.13-.99.27-1.48.4-.15.04-.15.04-.14.23.41.06.77-.31,1.25-.17-.28.13-.5.26-.77.22-.08-.01-.17.04-.25.07v.1c.43.03.85.07,1.27.1.31.03.63.06.94.07.11,0,.22-.06.33-.07.2-.01.41,0,.61,0,.25,0,.49,0,.74-.07.25-.06.52-.18.79-.1.02,0,.05-.02.08-.03.24-.05.48-.1.72-.14.06,0,.12.02.18.03.04,0,.09.03.13.02.21-.05.41-.11.66-.18-.16-.03-.29-.05-.42-.08,0-.02,0-.04,0-.06.15-.02.3-.03.48-.05.01.22.13.22.31.14-.06-.02-.11-.03-.16-.05.23-.05.44-.07.63.09.26.22.57.11.87.13.03,0,.08-.04.1-.02.24.16.38.01.53-.15,0,0,.02,0,.05.01-.03.03-.05.06-.08.1.02,0,.04.02.06.02.64-.1,1.26-.03,1.9.04.4.04.81-.03,1.22-.05.32-.02.64-.02.96-.05.15-.01.29-.07.48-.11,0,0,.05.05.11.1.08-.08.16-.16.27,0,.05.07.22.07.34.07.36-.03.71-.08,1.07-.11.11-.01.24.03.33-.01.21-.09.43-.01.65-.07.12-.03.22-.19.38-.08.02-.04.05-.08.09-.15.39-.08.87.05,1.33-.16.22-.1.5-.06.76-.08,0-.02-.02-.07-.05-.16.24.16.41,0,.56-.1.2-.13.38-.25.62-.31.15-.04.27-.16.42-.23.27-.12.55-.24.83-.33.13-.04.27-.04.41-.06,0-.05,0-.09.01-.14l.04.05c.06-.02.12-.05.18-.07.14-.04.27-.08.41-.1.13-.02.27-.01.4-.04.13-.03.24-.12.38-.03.03.02.11-.05.17-.07.03.06.06.13.1.21-.09.03-.17.05-.25.07-.05-.06-.09-.12-.14-.18-.2.13-.14.62-.59.33-.04.3-.27.3-.48.38-.27.1-.51.25-.77.37-.52.24-1.04.47-1.56.7-.03.01-.06.03-.14.07.1.03.16.07.21.07,1.06.04,2.1-.12,3.1-.47.31-.11.63-.19.95-.27.91-.2,1.81-.46,2.69-.78.29-.1.6-.15.89-.26.32-.11.63-.27.95-.39.21-.08.43-.12.64-.2.32-.13.64-.28.96-.42.06-.03.13-.04.2-.05.18-.02.35-.09.55-.2.13-.07.28-.08.41-.13.28-.11.57-.21.84-.34.57-.27,1.14-.54,1.69-.84.4-.22.78-.51,1.17-.76.29-.18.59-.34.88-.54.34-.24.67-.49.99-.75.41-.33.8-.67,1.2-1.01.11-.1.23-.19.35-.29-.08-.11-.14-.19-.2-.26.01-.02.01-.04.02-.05.31-.13.43-.46.68-.65.09-.07.22-.07.33-.11.05-.02.12-.03.13-.06.18-.44.56-.71.88-1.03.59-.61,1.19-1.23,1.79-1.83.41-.4.83-.79,1.25-1.17.6-.55,1.06-1.21,1.47-1.9.15-.25.21-.56.16-.88-.03-.16.06-.35.09-.52.01-.06.04-.16,0-.19-.19-.19-.06-.39-.02-.58,0-.02.03-.04.02-.06-.02-.31-.04-.62-.06-.93,0-.04-.02-.08-.05-.12-.18-.25-.36-.5-.53-.75,0-.01-.02-.02-.03-.03-.09-.46-.51-.66-.79-.97-.17-.19-.35-.38-.55-.54-.36-.27-.72-.53-1.1-.76-.82-.49-1.72-.82-2.6-1.18-.3-.13-.6-.28-.91-.39-.17-.06-.36-.03-.47-.04-.14.33-.24.6-.36.86-.09.19-.19.38-.29.56-.05.09-.1.17-.16.25-.1.13-.1.13.05.23-.05.02-.11.05-.12.04-.14-.12-.2.02-.24.09-.04.07-.03.16-.03.25,0,.07.05.18.02.2-.34.28-.68.56-1.05.8-.33.22-.7.37-1.05.56-.08.05-.13.16-.2.21-.24.17-.48.36-.73.5-.3.17-.62.3-.92.45-.05.03-.09.08-.15.13-.01-.03-.03-.08-.06-.17-.29.19-.57.36-.85.54,0,.03.02.05.03.08.24.04.49.11.73.1.17,0,.34-.11.49-.2.11-.06.2-.18.31-.26.13-.09.26-.18.4-.26.04-.02.14-.02.16,0,.12.22.28.06.42.05.09,0,.18-.03.32-.06-.2.38-.52.46-.84.55.06.12.03.19-.11.18-.18,0-.32.04-.37.24-.01.06-.09.11-.15.14-.28.1-.54.24-.77.44-.15.12-.35.17-.51.28-.19.13-.37.28-.55.42-.03.02-.05.06-.08.07-.42.08-.72.4-1.1.56-.62.27-1.21.61-1.83.88-.35.15-.67.36-1.02.5-.1.04-.23.01-.33.06-.17.07-.32.19-.5.26-.38.15-.77.29-1.16.43-.56.19-1.12.38-1.68.56-.36.11-.73.19-1.08.31-.25.08-.48.21-.72.3-.08.03-.19,0-.28.03-.22.06-.44.15-.66.2-.1.02-.21-.03-.31-.01-.56.1-1.12.19-1.67.34-.28.07-.56-.03-.83.09-.12.05-.26.08-.39.09-.14.02-.28,0-.44,0-.06.02-.14.07-.23.08-.39.06-.79.12-1.18.18-.33.04-.67.08-1,.11-.04,0-.08-.02-.12-.03-.13-.01-.27-.05-.4-.03-.29.03-.58.09-.87.13-.05,0-.11-.03-.18-.04.04-.04.07-.07.14-.13-.34.06-.62.11-.92.17.04.04.07.07.11.13-.08-.01-.15-.02-.26-.04.07.07.1.11.14.14,0,.01-.01.02-.02.04-.09-.05-.26-.11-.26-.15.01-.12.09-.24.15-.36-.09-.03-.88.17-.93.28-.14-.13-.29-.13-.47-.07-.1.03-.22-.02-.33,0-.48.03-.97.06-1.45.09-.11,0-.23,0-.34,0,0-.03-.01-.07-.02-.1.14-.03.28-.07.42-.09.44-.06.88-.12,1.32-.16.14-.01.28,0,.42,0,.38-.02.75-.18,1.15-.07.04.01.12-.04.15-.09.09-.12.2-.13.31-.06.17.11.32.1.46-.05.03-.03.08-.05.13-.06.28-.05.57-.1.85-.14.12-.02.24,0,.38,0,.07-.02.17-.07.28-.08.61-.06,1.22-.13,1.82-.28.07-.02.14,0,.21,0,.22-.03.45-.04.67-.13.26-.1.56-.09.84-.14.54-.08,1.08-.14,1.61-.26.65-.15,1.28-.34,1.92-.53.63-.19,1.25-.38,1.87-.59.18-.06.35-.18.53-.26.26-.12.52-.24.8-.32.64-.2,1.26-.46,1.87-.74.43-.2.88-.35,1.31-.53.19-.08.37-.19.55-.28.41-.2.82-.39,1.23-.58.16-.07.32-.13.48-.2.1-.05.2-.11.29-.19-.31,0-.6.01-.9.18-.33.19-.72.27-1.09.4-.06.02-.12.06-.19.08-.18.08-.35.15-.53.24-.12.06-.26.11-.36.2-.19.18-.43.18-.67.21-.13.02-.26,0-.38.04-.72.26-1.44.52-2.17.78-.06.02-.15-.01-.21,0-.46.14-.92.28-1.38.42-.01-.02-.02-.04-.03-.06.17-.11.34-.21.51-.31-.02,0-.08-.03-.18-.07.17-.06.31-.1.45-.15.13-.05.25-.12.37-.19.24-.12.48-.25.72-.37.05-.02.11,0,.16,0,.06,0,.15,0,.18-.03.12-.18.31-.16.48-.2.14-.03.26-.14.39-.19.4-.15.79-.29,1.19-.42.31-.1.66-.13.93-.29.16-.09.32-.13.47-.21.49-.26.94-.63,1.45-.84.43-.18.82-.43,1.22-.65.79-.41,1.6-.79,2.39-1.2.5-.27,1.02-.53,1.46-.88.38-.3.78-.62,1.01-1.09.03-.06.07-.14.13-.16.35-.15.41-.51.58-.79.16-.27.34-.54.46-.83.18-.43.35-.87.44-1.33.11-.56.15-1.13.16-1.7,0-.37-.09-.73-.15-1.1-.03-.2-.05-.4-.09-.6-.06-.28-.13-.56-.22-.83-.07-.2-.21-.37-.31-.56-.09-.19-.16-.4-.24-.6-.01-.03-.02-.07-.04-.09-.29-.28-.57-.56-.87-.83-.23-.21-.53-.34-.62-.67-.33-.12-.47-.53-.85-.58-.06,0-.12-.04-.17-.07-.52-.37-1.03-.76-1.57-1.11-.42-.27-.86-.5-1.29-.76-.41-.24-.81-.5-1.21-.75-.3-.19-.6-.39-.91-.57-.19-.11-.39-.21-.6-.31-.03.04-.06.06-.06.09-.05.29-.1.59-.16.88-.03.15-.06.3-.13.44-.28.56-.56,1.11-1.03,1.55-.34.32-.66.66-.99,1-.18.18-.34.38-.53.56-.17.17-.36.33-.54.49-.04.03-.1.03-.17.04.03.21-.12.23-.28.27-.11.03-.25.07-.3.15-.17.29-.44.45-.72.61-.03.02-.03.08-.05.1-.09.06-.22.17-.29.14-.19-.06-.29.05-.38.16-.35.44-.83.64-1.26.82-.07.09-.1.19-.15.2-.56.09-1.06.35-1.59.55-.19.07-.39.12-.61.18.04.06.07.09.08.11-.13.04-.25.1-.38.13-.35.08-.7.14-1.04.21-.43.1-.86.21-1.3.3-.42.09-.84.15-1.26.24-.43.09-.86.19-1.29.29-.24.05-.48.07-.71.15-.44.15-.87.36-1.32.5-.33.1-.6.26-.87.47-.19.15-.42.25-.63.38-.11.07-.19.17-.3.23-.11.07-.25.09-.36.16-.22.14-.43.31-.65.45-.08.05-.19.04-.29.06-.08.02-.19.02-.22.07-.12.21-.35.21-.51.33-.07.05-.16.09-.26.15-.02-.02-.07-.05-.07-.05-.34.3-.75.42-1.12.63-.06.03-.14.03-.2.06-.16.08-.3.19-.47.27-.28.12-.56.23-.85.34-.22.08-.47.12-.67.23-.32.19-.68.22-1.02.34-.26.1-.55.14-.83.19-.46.08-.92.16-1.37.23-.32.06-.64.11-.96.17-.03,0-.06,0-.08.03-.25.25-.61.21-.9.34-.32.14-.63.31-.94.47-.22.11-.43.24-.65.35-.56.28-.95.74-1.3,1.24-.14.2-.29.38-.42.58-.15.24-.37.38-.65.47.01-.06.02-.1.04-.16-.17-.04-.28.05-.35.17-.15.25-.32.5-.42.77-.18.51-.31,1.02-.13,1.58.11.34.21.67.47.93.31.3,1.03.36,1.4.13.09-.06.24-.02.37-.03.05,0,.1,0,.16,0-.23-.17-.48-.29-.65-.49-.17-.2-.19-.48-.03-.8.06.11.13.18.14.27.04.27.34.63.61.7.36.1.71.21,1.06.32.01,0,.03.01.04.01.22,0,.51-.09.64.01.22.18.42.09.63.11.12.01.26-.05.38-.1.23-.08.44-.2.71-.21.25-.01.5-.16.76-.24.44-.13.88-.25,1.32-.38.25-.08.48-.19.72-.27.54-.18,1.02-.47,1.51-.76.03-.02.07-.05.09-.04.24.05.39-.07.49-.27,0-.02.03-.04.05-.04.45-.04.73-.4,1.1-.57.45-.22.91-.43,1.36-.64.18-.09.36-.18.54-.26.15-.06.32-.11.48-.16.07-.02.14-.06.22-.08.17-.05.35-.1.51-.16.19-.07.41-.09.49-.34.02-.06.16-.1.25-.11.13-.01.24-.01.32-.14.04-.06.12-.09.19-.12.33-.12.66-.24,1-.36.27-.1.54-.23.82-.31.21-.06.43-.06.67-.06-.19.07-.38.15-.58.23.14,0,.26.01.39.02,0,.02,0,.03,0,.05-.12.03-.24.07-.36.11-.02.2-.23.21-.37.29-.09.05-.19.11-.29.14-.06.02-.14.01-.23.02v.12c-.32.04-.57.22-.82.41-.1.07-.23.12-.35.12-.26,0-.35.08-.33.33-.12.02-.24.03-.35.07-.22.09-.43.2-.65.3-.45.2-.9.4-1.35.6-.4.18-.8.35-1.21.51-.1.04-.22.01-.33.03-.05,0-.1.03-.15.06-.08.06-.14.13-.22.18-.15.11-.34.2-.46.34-.11.13-.23.05-.33.1-.17.08-.35.17-.45.31-.25.34-.62.44-.97.6-.38.18-.76.35-1.14.55-.21.11-.39.16-.64.09-.15-.04-.34.03-.5.08-.22.07-.44.16-.65.25-.1.04-.2.1-.3.14-.11.05-.22.08-.33.13-.09.04-.19.09-.27.16-.28-.07-.5.07-.71.24-.09.08-.23.11-.34.16-.38.19-.76.39-1.13.59-.11.06-.21.2-.31.19-.38-.02-.61.26-.9.4-.26.12-.5.27-.75.4-.3.15-.59.3-.89.45-.11.05-.23.08-.32.14-.26.17-.5.35-.75.52-.12.08-.25.13-.36.2-.11.07-.22.16-.32.24-.12.09-.23.19-.36.26-.2.12-.34.31-.6.37-.14.03-.24.23-.37.35-.41.39-.83.77-1.23,1.18-.26.27-.46.61-.73.87-.29.28-.42.66-.64.97-.06.08-.07.21-.07.32.01.23-.04.45.03.7.17.57.61.82,1.03,1.11.17.12.36.22.54.34.04.02.06.07.11.14.11-.13.21-.27.32-.4.22-.23.44-.45.67-.67.03-.03.12.01.24.03.21-.2.47-.43.69-.69.35-.41.78-.69,1.26-.92.12-.06.23-.13.35-.19.51-.28,1.03-.53,1.52-.84.65-.42,1.36-.72,2.05-1.07.57-.3,1.12-.63,1.69-.94.1-.05.21-.06.31-.1.14-.06.27-.15.42-.2.15-.05.32-.14.46-.1.2.05.34-.01.5-.07.2-.08.39-.2.63-.04,0-.08-.02-.13-.02-.15.25-.13.47-.24.7-.36.02,0,.04-.03.06-.02.35.13.63-.13.96-.15.09,0,.18-.04.27-.05.19-.01.43-.21.53.2.06-.28.18-.42.43-.43.19,0,.38-.06.6-.11.03-.01.1-.07.17-.07.21-.02.43-.02.64-.03,0-.02,0-.05,0-.07-.07.01-.15.04-.22.03-.07,0-.14-.05-.21-.11.44-.02.84-.3,1.33-.18-.13.1-.24.18-.35.27.05.11.08.21.13.3.07.14-.02.21-.12.24-.33.08-.67.15-1,.22-.04-.1-.07-.18-.11-.27.35-.08.7-.17,1.04-.25,0-.03-.02-.06-.02-.09-.48.11-.97.22-1.45.33,0,.02,0,.04,0,.06.06.01.12.03.18.04.03.07.07.14.11.22-.48.13-.98.26-1.49.4-.65.19-1.31.38-1.96.6-.41.14-.81.33-1.22.48-.31.11-.64.17-.96.27-.1.03-.17.12-.27.16-.28.14-.56.28-.85.4-.26.11-.52.19-.78.29-.05.02-.11.05-.14.09-.15.23-.38.34-.64.39-.02,0-.05,0-.06.01-.2.28-.55.33-.82.5-.6.36-1.24.65-1.83,1.03-.64.41-1.23.9-1.87,1.32-.5.33-.85.8-1.27,1.2-.21.2-.41.42-.61.63-.02.02-.05.05-.05.07.13.31-.22.39-.28.61,0,.04-.04.07-.08.12.44-.09.88.05,1.29-.1.06-.02.13.02.2.03,0,.02.01.05.02.07-.19.08-.37.18-.57.25-.32.12-.65.23-.98.32-.14.04-.29.05-.44.03-.12-.01-.23-.08-.18-.25.01-.04,0-.1-.02-.13-.12-.15-.08-.29,0-.45.21-.49.5-.92.93-1.31-.31-.17-.58-.33-.86-.48-.44-.25-.83-.59-1.1-1.01-.19-.3-.26-.68-.32-1.04-.03-.16.09-.35.15-.51.46-1.22,1.25-2.2,2.21-3.06.23-.21.46-.43.72-.62.39-.29.8-.54,1.2-.82.34-.23.66-.47,1.01-.68.36-.22.73-.42,1.09-.63.28-.16.56-.34.85-.48.48-.23.98-.44,1.46-.65.1-.04.18-.1.28-.15.37-.21.74-.43,1.13-.65-.05-.03-.11-.09-.18-.11-.39-.09-.79-.17-1.18-.25-.03,0-.07.05-.11.08-.02.02-.04.04-.06.05-.51.02-1.02.09-1.53.05-.59-.04-1.09-.31-1.39-.86-.07-.12-.09-.26-.15-.39-.02-.05-.09-.08-.13-.12-.02.01-.04.03-.06.04-.02-.28-.03-.57-.05-.88.08.02.13.04.2.05-.02-.04-.03-.08-.05-.09-.31-.15-.31-.22-.03-.44-.04-.01-.08-.03-.09-.03.03-.17.05-.34.08-.51,0-.03,0-.06.02-.08.12-.2.24-.41.37-.6.07-.1.19-.18.25-.28.25-.44.61-.79.94-1.16.26-.29.56-.54.85-.79.28-.25.57-.49.86-.74.06-.05.09-.12.14-.15.15-.06.3-.13.45-.19.14-.06.29-.11.42-.2.16-.11.29-.27.45-.39.43-.32.86-.65,1.3-.95.39-.26.8-.49,1.2-.74.02-.01.04-.04.07-.05.58-.12,1.04-.51,1.53-.8.44-.26.91-.43,1.35-.65.28-.14.48-.33.69-.6-.36.03-.69.04-1.02.08-.55.07-1.09-.04-1.63-.11-.07,0-.13-.09-.2-.13-.31-.17-.63-.33-.93-.52-.24-.16-.45-.35-.66-.55-.05-.05-.05-.17-.06-.26-.02-.2-.03-.4-.04-.61,0-.25,0-.5,0-.7.16-.04.25-.06.36-.09,0,.02,0,.07.01.14.05-.02.1-.04.16-.06.03.05.11.11.11.18.02.17-.02.35,0,.52.03.2.12.39.18.58.03,0,.06,0,.09-.01.04-.43.08-.86.13-1.3,0-.09-.09-.12-.12-.19-.15-.3.04-.49.15-.72.12-.25.23-.5.35-.76.05-.03.13-.06.2-.11.06-.06.1-.14.15-.22-.02-.02-.05-.05-.08-.08.15-.14.29-.29.45-.42.09-.08.21-.11.32-.18.04-.03.08-.07.1-.11.08-.11.14-.25.23-.34.39-.37.79-.73,1.2-1.09.36-.32.7-.68,1.2-.81.16-.04.29-.18.44-.26.17-.09.36-.17.54-.26.03-.01.07-.01.1-.03.32-.3.64-.6.97-.89.17-.15.35-.29.54-.41.4-.25.71-.6,1.04-.92.05-.05.14-.07.16-.13.05-.15.36-.01.29-.28,0-.03.16-.09.23-.15.36-.3.72-.61,1.08-.92.33-.29.66-.58.98-.88.06-.06.08-.18.11-.27.02-.04.03-.09.05-.13.37-.5.74-1,1.12-1.5.09-.12.24-.19.39-.31.02-.06.05-.19.12-.29.16-.27.34-.54.52-.8.16-.22.34-.42.5-.64.07-.09.13-.19.18-.3.18-.41.36-.82.53-1.24.03-.08.04-.17.07-.26.1-.25.2-.5.3-.76.17-.45.36-.9.51-1.36.1-.3.16-.62.24-.94.15-.65.31-1.29.45-1.94.06-.29.05-.6.11-.9.05-.24.16-.46.25-.69.03-.08.07-.15.13-.27-.12.08-.19.13-.27.19-.13-.46.11-.81.28-1.18.03-.07.1-.15.16-.19.34-.18.41-.53.52-.85.09-.26.14-.54.19-.82.02-.14,0-.29,0-.44,0-.15.02-.29.16-.39.05-.04.06-.13.09-.21h.12c-.05-.06-.09-.11-.13-.16.21.04.35.16.42.34.08.2.15.38.12.63-.04.31.01.65.06.97.05.33.14.66.22.99.08.32.22.64.22.96,0,.83.46,1.47.75,2.19.5,1.22,1.23,2.3,2.04,3.32.54.67,1.09,1.33,1.69,1.95.46.47.96.92,1.51,1.26.51.31.83.74,1.14,1.21.29.44.62.87.88,1.33.55.98.85,2.05.83,3.18,0,.31.11.54.38.67.23.11.49.19.72.3.22.1.42.23.66.35-.02-.08-.03-.16-.04-.24.24.21.47.42.71.64.19-.09.33.05.49.15.08.05.18.08.28.11.04.01.09,0,.12.03.28.23.63.32.94.49.21.11.43.22.63.35.18.12.33.29.52.39.43.24.81.56,1.2.84.1.07.21.11.28.2.07.08.14.16.21.23.33.3.67.6,1,.9.05.04.07.11.12.15.52.48.8,1.11,1.1,1.73.08.17.12.35.18.53,0,.03.01.06.02.08.33.64.43,1.34.38,2.05-.04.53-.16,1.05-.24,1.58-.03.19-.07.37-.09.56-.02.14.13.25.27.24.09,0,.19.04.28.07.2.07.39.16.59.23.45.18.91.32,1.34.53.52.25,1.02.56,1.52.85,0,0,.02,0,.02.01.14.39.58.42.84.68.18.18.38.35.58.52.38.32.72.68,1,1.1.18.26.4.51.53.79.14.31.23.65.3.99.08.43.15.87.15,1.3,0,.45-.07.91-.13,1.36-.08.51-.29.97-.55,1.41-.19.32-.36.66-.58.96-.17.23-.43.38-.62.6-.24.27-.44.56-.7.89.29.07.53.12.76.19.14.04.27.1.4.16.04.02.08.06.13.07.38.02.6.32.9.49.27.16.54.34.76.56.3.29.55.63.82.95.11.13.23.27.31.42.26.49.53.97.75,1.48.11.26.11.57.17.86,0,.02,0,.05,0,.06.14.13.08.3.11.45.09.38.04.75-.04,1.13-.09.4-.15.81-.23,1.21-.04.19-.12.37-.18.56-.01.05,0,.1,0,.15.05-.01.11,0,.15-.04.13-.1.26-.22.38-.33.14.21.06.39-.08.56-.38.45-.76.9-1.16,1.34-.13.15-.3.25-.44.39-.16.15-.27.33-.28.56,0,.14-.07.27-.11.4-.04.12-.06.25-.12.35-.05.09-.15.14-.24.23.05.1,0,.21-.02.31-.05.46-.3.85-.41,1.29-.05.21-.17.41-.26.61-.03.07-.05.15-.08.23-.06.14-.12.28-.19.43.13.08,0,.24-.03.37-.03.19-.11.38-.17.57-.36,1.04-.56,2.13-1.04,3.14-.31.65-.54,1.34-.82,2.01-.14.34-.29.68-.43,1.02-.03.07-.02.15-.04.22-.15.38-.31.76-.45,1.15-.08.23-.11.48-.19.71-.06.18-.18.34-.25.52-.24.63-.5,1.25-.71,1.89-.17.52-.27,1.05-.44,1.57-.15.48-.35.94-.53,1.41-.04.1-.06.21-.1.31-.19.56-.39,1.11-.56,1.68-.2.64-.39,1.29-.58,1.93-.23.77-.45,1.55-.69,2.32-.14.45-.34.89-.5,1.34-.15.42-.28.85-.42,1.28-.14.43-.29.85-.42,1.28-.13.43-.25.87-.39,1.3-.05.16-.13.31-.2.47-.06.14-.21.25-.11.43.01.02,0,.07-.02.1-.17.38-.34.76-.52,1.13-.06.12-.14.24-.2.36-.02.03-.03.06-.03.09-.04.34-.31.64-.64.69-.04,0-.09,0-.12-.03-.18-.15-.35-.3-.53-.46.39-.26.77-.5.73-1.02-.02-.01-.04-.02-.06-.03-.05.1-.1.21-.15.31-.01,0-.02,0-.03,0v-.37s-.09-.01-.16-.02c.02-.14.04-.28.06-.43-.09.03-.19.07-.31.11.07.06.12.11.2.19-.1.02-.18.03-.28.04.09.22.16.43-.01.62.12.05.23.09.35.14-.16.16-.29.28-.45.43-.27-.02-.57-.42-.51-.76.03-.17.11-.33.16-.49.02-.08.01-.18.04-.26.04-.09.11-.17.17-.27-.03-.01-.08-.04-.12-.06.14-.27.06-.64-.16-.66.01-.07.02-.15.04-.22.02.02.03.03.05.05.04-.03.1-.05.11-.09.05-.14.04-.15.19-.12.04-.54.16-1.06.47-1.53-.16-.14.04-.17.12-.24-.01-.17-.05-.33-.04-.5,0-.11.09-.21.14-.31-.09-.09-.03-.28.03-.49.05-.16.02-.35.05-.52.04-.26.09-.53.14-.79.08-.38.16-.77.24-1.15.06-.27.14-.54.21-.81.02-.08-.02-.17,0-.25.12-.49.25-.98.36-1.48.08-.36.13-.73.22-1.09.18-.68.39-1.36.58-2.04.04-.15.08-.3.12-.46.02,0,.05,0,.07-.01.04.08.08.17.13.27.05,0,.14-.02.23-.04-.1-.15-.19-.29-.29-.44.07-.01.12-.02.19-.04-.08-.09-.14-.15-.22-.24.09,0,.15.01.22.02.09-.3.19-.59.63-.42,0-.02-.01-.04-.02-.07-.14-.07-.29-.14-.43-.22-.02-.16-.04-.33-.06-.48.18.04.32.09.47.1.08,0,.2.04.24-.11,0-.03.12-.04.2-.06.02-.23-.26-.21-.37-.38.27-.04.57.05.68-.26-.06-.07-.11-.12-.16-.17.1-.07.2-.14.31-.21.02-.01.06.01.12.03-.1-.32-.37-.38-.61-.51.34.11.67.11.97-.14.01.02.02.05.04.07-.03.06-.07.13-.09.19-.02.06-.03.12-.04.18-.02.09-.03.17-.06.3.03.2.07.45.11.7-.28.01-.54.03-.8.04q.02.1.4.26c-.2.05-.36.09-.52.12,0,.02,0,.05,0,.07.14.07.29.15.48.25-.17.09-.3.17-.45.25.05.04.1.07.17.12-.22.21-.03.58-.26.76,0,.12.01.23.02.35-.1.02-.19.04-.31.07.21.17.32.34.18.58-.03.06,0,.16.01.25-.08.1-.17.2-.26.3.01,0,.03.02.04.02-.03.07-.06.14-.09.21-.02.08-.08.21-.05.23.22.18,0,.28-.06.4.07.15-.03.76-.16.87-.05.05-.15.04-.25.06,0,.04-.02.11,0,.14.13.17,0,.31-.04.45,0,.04-.02.09-.03.13-.03.09-.06.18-.1.26-.02.05-.09.1-.09.14.02.27-.12.41-.37.44.07.26-.09.55.16.77-.07-.04-.14-.07-.21-.11l-.02.02c.11.1.21.2.27.25-.13.21-.23.37-.33.53-.04.06-.07.13-.11.2-.12.17-.11.18.13.26-.39.12-.31.49-.44.74-.1.21-.16.44-.21.67-.04.17-.04.34-.06.53-.06-.01-.11-.02-.19-.04.03.06.04.11.05.11.13.02.12.08.08.19-.08.21-.14.43-.3.61-.05.06-.01.19-.02.28-.02.17-.04.35-.05.52,0,.02-.02.05-.02.07-.03.16-.04.31-.08.47-.04.14-.11.26-.17.41.01.01.05.04.1.07-.06.02-.11.04-.17.06.03.1.06.2.1.33,0,0,.06.01.13.02.04.07-.01.1-.3.11.01.04.03.08.05.13-.04,0-.08.02-.12.03-.04.01-.08.02-.11.09.06,0,.11,0,.17-.01-.01.04-.02.09-.03.13-.27.07-.28.09-.22.33.08-.02.16-.04.26-.06-.02-.1-.04-.19-.05-.28ZM26.48,26.75c.07.04.13.06.18.09.05.02.1.07.14.06.14-.03.28-.08.42-.12.14-.04.28-.13.42-.12.55.04,1.03-.25,1.55-.36.42-.09.82-.29,1.24-.42.24-.08.51-.1.74-.19.41-.16.8-.39,1.22-.51.45-.13.81-.42,1.21-.63.56-.29,1.11-.65,1.59-1.08.69-.61,1.43-1.17,2-1.92.8-1.07,1.53-2.18,1.72-3.54.03-.18.12-.36.1-.53-.03-.39-.1-.78-.17-1.16-.04-.2-.13-.39-.2-.59-.08-.22-.11-.47-.24-.66-.21-.3-.49-.55-.73-.82-.15-.17-.35-.32-.41-.51-.06-.17-.12-.28-.28-.35-.61-.26-1.11-.68-1.65-1.05-.11-.08-.18-.25-.29-.29-.23-.07-.22-.25-.3-.41-.07-.13-.09-.37-.35-.26-.01,0-.04-.03-.07-.04-.22-.1-.35-.28-.48-.48-.06-.09-.18-.15-.27-.22-.01.02-.03.03-.04.05v-.13c-.07-.02-.16-.02-.19-.06-.2-.25-.38-.51-.58-.75-.17-.21-.36-.41-.54-.62-.09-.11-.19-.22-.27-.33-.06-.08-.1-.18-.15-.27-.22-.44-.46-.87-.65-1.32-.18-.43-.32-.88-.49-1.32-.1-.26-.23-.5-.34-.75-.02,0-.04.01-.07.02.03.35.05.69.1,1.04.08.52.03,1.06.26,1.55.06.12.08.26.11.39.02.11-.02.26.04.34.32.41.27.97.57,1.39.01.02,0,.05.01.08.02.1.03.2.06.3.13.45.29.89.38,1.35.05.25.09.47.25.68.03.03.02.14,0,.16-.17.13-.06.26-.01.39.02.06.07.11.09.17.06.26.11.53.16.79.06.31.14.63.18.94.03.21.01.42.02.63,0,.36.05.72,0,1.07-.03.22-.04.45-.06.67-.02.24-.08.48-.13.72-.04.19-.19.36-.11.57-.21.21-.21.5-.3.76-.09.28-.17.56-.27.83-.1.27-.24.52-.35.78-.06.14-.08.31-.16.45-.2.33-.42.65-.63.98-.19.29-.34.6-.55.88-.2.26-.25.64-.63.75,0,0-.01.02-.02.04-.06.08-.11.16-.17.24-.15.18-.29.37-.45.54-.14.14-.29.27-.44.39-.13.1-.27.19-.4.29-.19.16-.35.34-.54.49-.34.27-.69.53-1.02.79-.12.09-.22.2-.34.32.46.12.49.11.58-.16ZM27.85,17.15s.01.01.02.02c-.14.11-.37.19-.41.32-.09.3-.39.37-.52.59-.17.28-.52.4-.64.72,0,.03-.07.05-.11.05-.36,0-.6.22-.49.54.09.26-.04.34-.2.45-.12.08-.22.16-.27.33-.03.1-.04.32-.24.31-.3-.01-.45.23-.57.41-.1.16-.2.32-.34.41-.28.19-.43.48-.63.73-.12.16-.25.31-.38.48-.19-.06-.33.04-.39.21-.06.17-.06.36-.22.5-.11.1-.15.28-.25.41-.26.34-.58.64-.79,1.01-.28.5-.77.81-1.03,1.34-.1.2-.36.31-.55.47-.05.04-.1.09-.12.14-.17.47-.34.94-.63,1.35-.03.04-.02.12,0,.18.02.13.05.26-.05.37-.04.04-.08.08-.11.12.61,0,1.1-.27,1.58-.55,0-.02-.02-.04-.02-.07-.17.06-.34.12-.51.18,0-.02-.02-.05-.02-.07.2-.07.41-.12.6-.21.28-.12.65-.11.77-.5,0-.02.02-.04.04-.04.17-.06.35-.12.52-.17.22-.07.45-.12.67-.19.07-.02.14-.07.21-.1,0-.02-.01-.04-.02-.05l-.4.15s-.02-.04-.03-.06c.08-.04.15-.08.23-.11.33-.13.67-.25,1-.38.1-.04.28-.04.15-.23,0,0,.04-.08.06-.08.25-.02.37-.38.67-.26.02,0,.04,0,.06-.02.26-.13.53-.25.78-.4.44-.26.87-.55,1.32-.79.15-.07.32-.06.42-.24.06-.11.19-.17.29-.25.04-.04.08-.09.12-.11.4-.2.82-.37,1.08-.76.05-.07.16-.09.25-.14-.03-.18.08-.28.26-.34.07-.03.15-.07.2-.12.06-.07.1-.17.15-.25.07-.1.17-.17.23-.27.13-.23.24-.47.36-.69.05-.08.15-.13.19-.22.13-.22.25-.45.36-.68.22-.46.43-.92.63-1.38.12-.27.24-.54.31-.82.16-.62.31-1.25.23-1.91-.02-.19,0-.38-.01-.57-.01-.35-.02-.69-.04-1.04,0-.13-.07-.26-.1-.38,0-.04,0-.08,0-.12,0-.1,0-.2-.01-.3-.07-.36-.14-.72-.21-1.08-.07-.37-.14-.74-.23-1.1-.07-.27-.18-.54-.26-.81-.1-.31-.18-.62-.29-.98-.07.41-.13.76-.19,1.11-.02.15-.05.31-.07.46-.06.42-.1.84-.18,1.25-.04.24-.15.46-.23.69-.27.82-.57,1.62-1.06,2.33-.25.36-.55.68-.83,1.03-.04.05-.08.12-.12.18ZM29.07,8.77c-.03.16-.05.26-.07.35-.05.23-.18.47-.15.69.06.41-.06.76-.21,1.11-.15.36-.33.7-.5,1.05-.13.27-.23.55-.47.76-.08.07-.1.2-.14.3-.06.13-.1.26-.17.39-.09.17-.24.33-.27.5-.08.42-.38.7-.58,1.05-.13.24-.29.46-.45.69-.17.25-.33.51-.52.75-.2.25-.43.49-.66.72-.17.18-.35.35-.54.51-.15.13-.31.26-.48.36-.27.16-.55.32-.72.59-.09.14-.21.22-.36.28-.03.01-.06.01-.08.03-.12.14-.27.18-.45.19-.09,0-.17.09-.25.15-.04.03-.06.09-.09.12-.2.17-.41.33-.61.49-.13.11-.25.23-.39.32-.22.15-.44.28-.67.41-.16.09-.33.16-.51.23-.17.06-.37.05-.52.14-.41.24-.79.53-1.2.79-.42.26-.86.48-1.27.75-.38.25-.86.38-1.08.84-.02.03-.07.05-.1.07-.32.12-.54.34-.72.62-.21.32-.43.63-.58.98-.1.22-.23.42-.33.64-.04.1,0,.26-.06.33-.15.15-.16.34-.19.51-.07.52-.11,1.05-.16,1.57,0,.08.03.22.08.24.22.08.24.23.22.36.13.11.22.2.33.28.05.04.13.06.19.07.5.02.95-.16,1.42-.28.28-.07.53-.21.84-.19.48.02.96-.04,1.38-.31.08-.05.14-.12.22-.19.03,0,.1.02.16.03v-.34c.14-.17.27-.38.45-.53.17-.15.29-.31.37-.52.1-.24.19-.48.32-.7.31-.51.64-1.01.98-1.49.14-.19.32-.39.53-.5.25-.13.35-.34.47-.56.04-.07.1-.15.17-.18.18-.06.33-.12.3-.34.19-.05.43-.04.27-.34,0-.02,0-.07.01-.08.17-.03.15-.21.23-.31.17-.21.3-.46.51-.6.15-.1.26-.2.34-.34.05-.09.11-.18.17-.29-.03-.03-.07-.09-.12-.16.23-.11.56-.08.53-.46.08.02.14.04.2.06-.01-.05-.02-.09-.02-.07.14-.04.3-.04.36-.12.14-.17.3-.35.31-.59,0-.05.05-.11.09-.15.13-.13.31-.25.23-.43.12-.12.22-.21.3-.32.05-.06.05-.17.11-.22.09-.09.21-.16.31-.25.1-.09.22-.17.24-.34.02-.15.06-.36.32-.33.02,0,.06-.11.09-.18.02-.06.03-.13.07-.17.25-.23.51-.45.74-.7.07-.08.28-.17.11-.33.14-.21.29-.4.39-.61.04-.08.04-.17.11-.25.11-.13.19-.3.27-.45.03-.06.03-.15.06-.21.08-.17.17-.33.25-.49.12-.24.27-.47.34-.72.11-.44.19-.88.24-1.33.09-.75.16-1.49.21-2.24.03-.38,0-.77,0-1.18-.11.05-.17.08-.16.08ZM21.46,29.17c-.1,0-.19.04-.27.02-.07-.02-.2.14-.21-.06-.04,0-.09,0-.13.02-.05.02-.1.05-.16.08.03-.09.05-.14.06-.2-.06,0-.12,0-.17,0-.03,0-.06.02-.08.04-.09.08-.17.19-.26.26-.12.08-.25.14-.38.2.02,0,.04.02.05.03-.03.08-.05.15-.1.28-.11-.13-.19-.21-.27-.3.21-.1.4-.2.6-.29-.37-.05-.58.18-.83.38-.14.11-.27.28-.52.25-.3-.04-.61.01-.92,0-.34-.02-.7.08-1.02-.15-.03-.02-.13.03-.17.06-.1.08-.18.17-.27.25-.16.13-.33.27-.51.38-.25.16-.5.31-.75.45-.14.08-.35.09-.45.21-.25.3-.65.35-.94.58-.19.15-.43.24-.65.36-.09.05-.18.1-.27.16-.04.03-.09.06-.13.09-.18.12-.44.12-.55.35-.01.03-.05.04-.08.06-.33.24-.65.47-.98.71-.01,0,0,.04,0,.07.03,0,.06,0,.08,0,.47-.14.94-.3,1.42-.43.34-.09.68-.16,1.03-.22.34-.06.68-.08,1.01-.16.56-.15,1.11-.32,1.66-.5.39-.13.78-.29,1.16-.45.37-.16.73-.36,1.11-.48.69-.23,1.3-.6,1.86-1.06.04-.04.1-.06.16-.07.22-.06.44-.11.65-.17.12-.04.23-.09.13-.26-.02-.03.02-.09.03-.13-.2-.02-.4-.04-.59-.07.12-.06.26-.1.41-.12.09-.02.17,0,.26-.02.03,0,.07-.06.06-.08,0-.03-.06-.05-.09-.07,0,.03,0,.05,0,.04ZM31.61,26.62c.3.08.3.08.5-.12.03-.03.07-.03.11-.05.34-.18.69-.34,1.02-.55.13-.08.21-.24.31-.36l-.05-.05c-.49.24-.97.51-1.47.72-.51.21-1.06.29-1.51.55v.27c-.35.09-.69.08-1,.27.2.11.86.02,1.02-.13.17-.16.37-.24.59-.31.16-.05.4,0,.47-.25ZM8.15,70.27c.15-.33-.12-1.96-.34-2.17.11.72.23,1.44.34,2.17ZM5,55.09c.44.38.72.36.87,0h-.87ZM34.69,91.78s0-.03-.01-.05h.42c-.23-.15-.7-.1-.82.09.13.01.24.02.37.03v.15c.11-.03.2-.05.29-.07,0-.01,0-.03,0-.04-.08-.04-.17-.07-.25-.11ZM49.64,47.68s-.04-.06-.06-.08c-.29.23-.58.46-.88.68.01.02.03.04.04.06.3-.22.59-.44.89-.66ZM44.48,89.16c-.24.07-.47.14-.7.21.34.27.5-.02.7-.21ZM5.97,55.05c.22.15.54.07.68-.18-.21.06-.42.11-.68.18ZM22.6,28.78s-.02.03-.04.05c.09.06.18.13.28.17.03,0,.1-.1.15-.16-.05-.03-.11-.07-.16-.08-.08,0-.16,0-.23.02ZM48.57,71.15c.08-.07.14-.14.2-.2-.1-.05-.2-.1-.33-.16.05.14.08.22.13.36ZM7.07,63.07s-.04,0-.06,0c.03.21.06.41.09.62.03,0,.05,0,.08-.01-.03-.2-.07-.41-.1-.61ZM29.74,3.01s-.04.03-.05.04c.07.1.14.19.23.32.08-.23,0-.32-.17-.36Z"/>
      <path class="cls-1" d="M29.19,88.44c-.02-.07-.03-.14-.06-.26-.27-.12-.21-.45-.22-.72-.02-.47.03-.94.02-1.41-.01-.6-.07-1.21-.09-1.81-.02-.45-.03-.9-.03-1.35-.01-.52-.02-1.04-.03-1.56,0-.94,0-1.89,0-2.83,0-.83.01-1.66.07-2.49.02-.26-.07-.49-.07-.74.01-.46-.01-.91-.01-1.37,0-1.1.03-2.21.04-3.31,0-.31-.02-.61-.02-.92,0-.11.04-.21.06-.33-.12-.07-.17-.15-.03-.29.05-.05.03-.18.04-.28.02-.26.04-.51.06-.77.01-.21.02-.41.04-.62,0-.09,0-.18.01-.27.04-.37.08-.73.11-1.1,0-.06-.04-.12-.07-.18.07-.02.2-.02.11-.22-.05-.1.02-.25.02-.38.01-.39,0-.79.02-1.18.02-.34.06-.69.09-1.03,0-.11-.02-.22-.03-.33,0-.01-.02-.03-.02-.04.03-.25.07-.5.1-.75,0-.06,0-.13,0-.19.01-.1.04-.2.04-.31,0-.13,0-.26,0-.39,0-.04-.04-.09-.02-.12.21-.43.15-.92.27-1.37.02-.08-.02-.21.12-.15-.05-.14-.09-.28-.15-.41-.02-.03-.09-.08-.11-.07-.1.04-.22.07-.27.15-.2.31-.57.36-.85.51-.33.18-.74.19-1.12.29-.29.07-.58,0-.86-.03-.15-.02-.31.02-.45-.01-.2-.05-.38-.15-.57-.21-.27-.09-.55-.13-.81-.24-.3-.13-.68-.15-.87-.44-.13-.2-.17-.46-.22-.71.4.18.76.08,1.15,0,.32-.07.67-.05,1.01-.04.59.01,1.17.05,1.76.06.46,0,.91-.08,1.35-.25.28-.11.57-.21.87-.25.32-.05.63.02.9.2.07.05.1.18.11.28.03.27.12.37.39.45.36.1.72.07,1.08-.01.09-.02.18.02.27,0,.2-.04.4-.07.59-.13.51-.16,1.01-.34,1.51-.5.24-.08.5-.12.75-.19.22-.07.42-.19.64-.26.18-.05.37-.06.56-.06.04,0,.08.09.11.15.03.05.04.1.06.16.14-.11.26-.2.38-.31.03-.02.05-.05.06-.08.07-.29.11-.31.47-.22-.1-.06-.16-.1-.26-.15.39-.06.6.17.77.39.17.23.28.51.42.79.18-.07.37-.12.54-.21.29-.15.6-.14.91-.19.28-.05.53.04.79,0,.28-.03.55-.1.82-.18.44-.12.87-.24,1.3-.37.15-.05.28-.14.43-.2.49-.2.99-.38,1.47-.6.28-.13.55-.24.87-.21.07,0,.14.02.21.03.17.01.26.09.25.27,0,.04.02.08.05.14.18-.14.33-.05.5.02.29.12.59.2.9.12.03,0,.06-.02.08-.01.36.03.71.09,1.07.1.64,0,1.24-.15,1.75-.58.24-.2.51-.37.75-.58.14-.13.25-.3.37-.46.09-.12.19-.18.36-.22.16-.04.28-.21.42-.33.05-.05.1-.1.14-.16.13-.16.3-.23.48-.11.37.23.76.12,1.14.12.15,0,.3-.04.44,0,.08.02.2.15.2.22,0,.12-.08.32-.17.34-.39.1-.78.17-1.18.22-.15.02-.31-.05-.47-.09-.18-.04-.28,0-.38.18-.07.12-.25.2-.39.26-.16.07-.34.09-.38.31,0,.03-.08.04-.11.07-.08.06-.14.11-.17.23-.03.13-.22.22-.35.31-.12.08-.26.13-.37.22-.07.05-.09.16-.14.25-.16-.12-.27-.04-.33.17,0,.03-.05.07-.08.08-.36.1-.72.24-1.09.29-.78.11-1.56.15-2.31-.18-.08-.03-.16-.04-.25-.05-.33-.04-.4-.11-.44-.44,0-.03-.02-.05-.03-.11-.15.31-.45.3-.7.34-.49.09-.92.3-1.36.53-.31.16-.65.25-.98.36-.3.1-.6.18-.9.25-.07.02-.16.02-.23,0-.3-.1-.56-.01-.82.11-.09.04-.2.05-.3.08-.03.01-.05.07-.08.09-.04.03-.09.07-.12.06-.17-.04-.29-.03-.46.07-.19.11-.44.12-.67.15-.21.03-.43.06-.65.05-.23-.01-.45-.07-.73-.12,0,.08-.04.2-.02.31.03.22.09.44.12.66.03.22.04.45.03.68,0,.09-.1.18-.16.29.03.05.07.12.12.21-.06.01-.12.03-.19.04.02.04.05.07.07.1.16.24.06.52.09.78.04.33.04.67.07,1.01.01.16-.08.22-.21.27-.05.78-.09,1.56-.26,2.31-.11-.02-.18-.04-.22-.05-.08.1-.15.18-.22.27.02.02.04.04.06.07.02.02.04.03.06.05-.17.16-.17.16.05.24.03.01.07.12.06.13-.22.21-.13.45-.07.68.01.04-.02.13-.06.14-.09.03-.24-.09-.25.11,0,.1.03.2.04.29-.04.1-.09.19-.12.3,0,.01.09.05.15.09,0-.01,0,.01,0,.01-.32.28-.22.71-.37,1.06-.08.19-.11.43-.09.64.02.17-.18.37.06.51,0,0,0,.06,0,.08-.19.22-.21.47-.13.74,0,.03,0,.07-.01.1-.08.37-.19.74-.25,1.12-.14.88-.26,1.77-.38,2.65-.01.08,0,.17-.01.25-.02.06-.07.12-.13.2.27.3.11.67.09,1.03-.03.62-.1,1.24-.14,1.85,0,.13.04.26.07.42-.11.09-.15.68-.02.81-.15.07-.25.42-.24.68,0,.26-.02.52-.07.77-.02.11-.13.2-.18.31-.02.03-.01.1,0,.13.15.26.13.53.05.81-.04.14-.03.29-.04.44,0,.03.02.07.01.1-.09.24,0,.45.07.66-.09.12-.17.22-.26.33.01,0,.03,0,.04,0-.02.12-.04.24-.06.36-.06.36-.12.71-.18,1.07-.03.17-.07.34-.08.51-.01.15,0,.3,0,.46,0,.27.01.54,0,.81,0,.1-.15.17-.08.31.03.06.02.14.02.24-.19.18-.26.61-.12.93.03.06,0,.15.02.22.01.08-.11.18.03.24.01,0,0,.06,0,.1,0,.1-.01.21,0,.31,0,.11.01.22.01.33,0,.05,0,.09,0,.16-.07,0-.14.01-.21.02.02-.01.03-.03.05-.04-.07-.12-.13-.25-.2-.37-.03-.05-.1-.09-.15-.13.05-.03.11-.07.16-.1.02-.01.03-.03.07-.06-.08,0-.13-.01-.18-.02-.04-.28-.1-.56-.12-.83-.01-.18.04-.37.03-.55-.02-.48-.05-.95-.07-1.43-.01-.31-.01-.62,0-.93,0-.44,0-.88.02-1.32.02-.41.1-.82.13-1.22.03-.35.02-.7.03-1.06.01-.35-.03-.71.05-1.04.15-.59.09-1.18.15-1.77.01-.14.03-.25-.04-.4-.06-.14.06-.34.08-.52.04-.36.14-.72.06-1.09-.02-.11.1-.25.14-.39.02-.05.01-.11.02-.2.02,0,.08-.02.08-.02.02-.21.09-.41.03-.57-.05-.13-.03-.24-.03-.37,0-.2,0-.41,0-.61,0-.02,0-.05.02-.06.24-.21.09-.48.1-.73,0-.12.02-.27.09-.35.15-.18.14-.38.15-.58.05-.5.08-.99.11-1.49.02-.28.04-.55.06-.83.03-.35.06-.7.08-1.05,0-.14-.04-.29-.05-.36.05-.2.1-.34.11-.49.02-.39.02-.77.03-1.16,0-.01,0-.03,0-.04.27-.23.08-.59.27-.84-.11-.22.17-.49-.07-.66.04-.08.1-.14.11-.21.04-.24.07-.49.1-.73,0-.05,0-.12-.03-.16-.08-.12-.1-.21.02-.31.03-.03.03-.12.03-.18,0-.26-.07-.56.02-.78.12-.27.03-.49.02-.74,0-.19-.01-.39,0-.58,0-.06.07-.11.15-.15v.57c.06-.24.14-.45.07-.72-.06-.22.06-.48.1-.73,0-.02,0-.04,0-.08-.04.02-.08.04-.18.09.05-.21.1-.37.13-.54,0-.02,0-.05,0-.06-.24-.21-.04-.45-.03-.67,0-.29.12-.57.19-.85.01-.05.07-.09.12-.14v.2s.04,0,.06,0c0-.11.01-.23.02-.36.03.01.08.03.12.04.19-.22.19-.26-.06-.4-.04-.02-.07-.04-.1-.07-.25-.29-.6-.29-.87-.01-.05.05-.11.1-.18.12-.31.08-.62.14-.93.22-.16.04-.31.12-.46.19-.37.16-.74.33-1.11.49-.08.04-.18.03-.27.05-.37.07-.74.17-1.12.21-.2.02-.41-.03-.51-.26-.02-.04-.12-.04-.18-.06,0,.06-.03.12-.02.18.02.18.07.36.06.53-.01.26-.13.52-.09.77.05.37-.19.68-.11,1.04.01.06-.05.12-.07.19-.06.27-.06.53.06.8.04.1-.03.26-.06.38-.05.2-.17.4-.17.6,0,.26-.18.45-.2.69,0,.1.03.2,0,.3-.06.25-.14.49-.2.74-.03.13-.05.26-.06.4-.06.45-.13.89-.16,1.34,0,.15-.16.32.03.48.04.03-.02.18-.03.28-.03.26-.06.52-.08.78,0,.15.02.31,0,.46-.03.33-.07.66-.1.98-.01.15,0,.29,0,.38-.04.14-.07.22-.08.31,0,.24,0,.48.01.71,0,.24,0,.48,0,.71,0,0,0,.02,0,.02-.33.27-.11.63-.16.95,0,.05-.03.1-.02.14.02.14.05.29.05.43,0,.26-.02.52-.03.79,0,.02,0,.05.02.06.2.11.05.3.08.44.03.16-.01.35-.04.52-.01.09-.05.17-.12.25.04.11.08.22.12.35-.07,0-.12,0-.18.01.03.09.05.18.09.26.06.11,0,.23,0,.32.04.33-.2.62-.08.95.02.04.02.1,0,.14-.08.15-.13.29-.04.45.02.03-.05.09-.06.14-.01.07,0,.14,0,.26-.17.1.03.21.08.34-.31.16-.12.43-.14.65-.03.37-.01.74-.01,1.11,0,.1.02.21.02.31,0,.12,0,.23,0,.35.02.34.04.67.05,1.01,0,.06-.08.13-.13.2.12.09.22.41.16.63q-.1.33.05.67c-.04.06-.09.11-.13.18-.04.06-.07.12-.1.18.02,0,.04,0,.06,0,0,.09.03.19,0,.27-.12.26-.08.38.21.48,0,.16-.02.32,0,.48.03.25.09.5.14.75.03.15-.13.41-.34.51.1.08.08.14.03.27-.07.17-.01.39,0,.59.02.19.05.38.08.59-.04.02-.11.06-.18.09,0,0,.01,0,.01,0ZM30.04,59.47c.28.8.12,1.69.07,2.58.06-.05.1-.1.11-.16.12-.67.05-1.36.26-2.01,0-.02,0-.05,0-.06-.16-.13-.32-.26-.43-.35ZM37.49,58.47c.14-.03.33-.03.46-.13.05-.04-.02-.27-.06-.41-.02-.07-.08-.14-.14-.18-.05-.04-.13-.06-.19-.05-.03,0-.07.09-.07.15,0,.19,0,.39,0,.62Z"/>
      <path class="cls-1" d="M40.56,83.29c.16.08.27.14.43.23-.12.04-.18.05-.24.07.04.09.08.16.13.25.17-.13.15-.36.18-.55.04-.28,0-.57.05-.85.07-.5.18-1,.27-1.51.04-.24.07-.49.11-.73.06-.28.13-.56.19-.84.05-.21.08-.41.13-.62.1-.41.24-.81.31-1.23.09-.48.28-.93.26-1.44-.01-.31.14-.62.23-.93.02-.06.11-.1.19-.16-.24-.26-.05-.57-.09-.86.07-.02.14-.04.21-.06,0-.03,0-.05,0-.06-.19-.14-.3-.27-.02-.44.05-.03.06-.12.09-.18.03-.06.07-.12.13-.17.06.29-.17.56.01.85-.06.03-.12.07-.19.1.02,0,.05.02.07.02,0,.09.05.23,0,.26-.16.13-.09.31-.12.45-.06.42-.13.83-.12,1.25,0,.28-.02.54-.08.82-.05.22.04.47.07.71,0,.04.03.09.01.11-.18.21-.11.46-.12.68-.04.58-.12,1.16-.32,1.71-.05.15-.05.32-.09.47-.08.34-.18.68-.26,1.02-.04.16-.04.33-.06.49-.08.58-.18,1.16-.26,1.73-.03.21-.02.42-.04.64,0,.08-.05.16-.05.25-.02.06-.03.12-.05.18-.01.05-.04.13-.02.15.17.16.04.19-.12.22.05.07.1.12.15.19-.08.15-.12.3-.03.5.05.12-.04.33-.11.48-.03.07-.14.13-.22.14-.1.01-.17-.03-.23-.15-.22-.43-.13-.87-.1-1.31.02-.36.07-.72.08-1.09,0-.06-.11-.13-.17-.2-.05.09-.13.17-.15.27-.03.11,0,.22,0,.34-.02,0-.04,0-.06.01.04.02.08.05.09.06-.07.05-.15.1-.23.15.01.02.02.03.04.05.04-.03.08-.07.12-.1.02,0,.04.01.06.02-.05.22-.11.44-.14.66-.02.14.02.28.03.42,0,.01.02.02.02.03-.02.29-.03.58-.06.87-.02.18-.09.36-.12.55,0,.05.02.11.03.18-.09.03-.18.07-.3.11.06.05.12.07.15.12.03.05.05.12.03.16-.01.04-.08.1-.11.1-.12-.03-.27-.04-.34-.12-.09-.11-.11-.27-.16-.41-.02-.07-.05-.13-.06-.2-.03-.21-.07-.43-.07-.64,0-.56.03-1.12.05-1.68.03-.56.03-1.11.16-1.66.11-.48.08-.98.13-1.47.02-.19.08-.38.11-.57.03-.2.03-.41.06-.61.02-.18.08-.36.1-.54.02-.15,0-.31,0-.53.24-.3.28-.73.29-1.16,0-.08-.05-.16-.06-.24-.01-.07-.03-.15-.02-.23.07-.54.16-1.07.23-1.61.04-.3.04-.61.12-.9.11-.42.11-.84.14-1.26,0-.05.02-.11.05-.13.19-.12.15-.31.18-.49.09-.58.19-1.17.29-1.75.05-.33.11-.65.18-.98.02-.1.07-.21.13-.27.18-.17.25-.48.2-.73-.02-.12.07-.25.1-.39.04-.2.08-.41.12-.63.18,0,.15-.19.17-.33.02-.16,0-.33,0-.49,0-.02,0-.05.01-.07.04-.12.08-.24.13-.36.03-.09.07-.18.13-.26-.02-.3-.12-.62.17-.87-.03-.29.4-.42.25-.74-.06-.12-.12-.25-.16-.35.03-.17.05-.33.1-.48.03-.09.1-.16.15-.24.02-.04.05-.09.05-.14.02-.27,0-.56.04-.82.09-.42.22-.82.34-1.23,0-.03.04-.07.03-.1-.1-.27.07-.48.17-.69.2-.41.22-.84.22-1.28,0-.08.01-.19.06-.22.24-.15.27-.4.35-.63.03-.1.08-.2.09-.3.02-.27.23-.27.41-.3.04,0,.15.08.16.14.04.39.07.79.1,1.22.19-.5.37-.98.56-1.45.03-.08.11-.17.18-.19.24-.07.26-.04.28.21.05.63-.1,1.19-.48,1.7-.17.22-.25.52-.36.78-.11.27-.2.55-.29.83-.05.17-.07.34-.11.51-.04.23-.08.46-.14.68-.02.08-.11.16-.18.19-.18.07-.24.17-.17.36.02.06.02.12.02.18,0,.08,0,.16,0,.24,0,.09-.02.17-.08.26,0-.07,0-.14-.01-.2h-.05c-.03.27-.06.54-.1.85-.05-.07-.08-.11-.1-.15-.02,0-.03,0-.05,0,0,.15-.04.31,0,.44.12.35,0,.66-.16.94-.08.14-.08.25-.04.39.03.11.02.24.01.36,0,.15-.02.29-.04.44-.05.34-.11.67-.16,1.01,0,.03-.03.07-.02.08.19.21-.02.27-.14.36-.13.1-.17.19-.05.33.06.07.09.16.1.29-.15-.1-.31-.19-.47-.3.03.4-.27.74-.14,1.16.04,0,.1.01.19.02.02.12.06.26.05.39,0,.07-.11.12-.19.2.02.03.06.11.1.18-.02,0-.03.02-.05.03-.05-.07-.11-.15-.16-.22-.23.11.18.4-.18.45.05.09.09.16.14.24-.06.01-.12.03-.17.04.25.25.04.54.12.8-.03.02-.05.03-.06.03-.33-.02-.34,0-.36.34,0,.11-.02.22-.03.34-.04.23-.04.23.15.41.02-.03.04-.07.06-.1.02-.03.04-.06.07-.09.02,0,.04.02.06.03-.04.09-.07.18-.11.27l-.03-.02v1.36s-.05,0-.08.01c-.04-.1-.08-.19-.12-.3-.06.03-.13.05-.19.09-.15.1-.14.23,0,.34.12.11.21.25.31.38-.03.02-.05.04-.08.06-.05-.07-.1-.14-.15-.21-.04.04-.08.09-.12.11-.17.06-.23.18-.11.31.13.14.03.29-.02.38-.13.24-.16.26-.12.44-.14.41-.24.73-.36,1.06.04.02.08.04.16.08-.05.15-.11.31-.15.47-.03.11-.04.23-.06.34,0,.02.01.06,0,.07-.13.1-.07.21-.05.34.03.16.03.33-.02.49-.09.31-.17.61-.1.94,0,.02-.02.03-.03.05-.14.31-.18.64-.16.98,0,.16-.11.32-.17.48-.08.26-.16.52-.23.78-.04.15-.05.31-.07.43Z"/>
      <path class="cls-1" d="M18.28,64.55c.19.06.16.2.15.35-.01.38,0,.76,0,1.13,0,.23-.03.47-.05.7,0,.05,0,.1,0,.14,0,.17-.03.34-.02.5,0,.23.03.45.06.71-.01.01-.05.06-.06.06.02.34.06.63.05.93,0,.33-.07.66-.09.99-.01.26.03.52.01.78-.02.36-.09.72-.1,1.08,0,.34.04.68.06,1.02,0,.05.02.1.01.14-.02.32-.05.64-.07.96-.01.35-.01.71-.02,1.06,0,.22.02.46-.03.67-.05.19.02.36.02.54,0,.53-.02,1.06-.02,1.59,0,.38-.01.76,0,1.14.02.57.06,1.14.08,1.71,0,.21-.02.42-.02.63,0,.12.03.24.05.36,0,.03.03.08.02.1-.14.19-.01.36,0,.55.07.56.12,1.12.17,1.69,0,.09-.03.18-.01.26.02.11.05.22.06.32.03.25.04.51.07.76.02.17,0,.32-.24.4.09.04.13.07.17.09.03-.02.05-.04.08-.05,0,.1.04.23,0,.29-.22.28-.07.54.04.83-.11-.03-.19-.06-.23-.07-.13-.24.01-.53-.27-.7-.07-.04-.13-.18-.13-.27-.03-.47-.06-.95-.06-1.42,0-.41.04-.82.05-1.23,0-.1-.03-.21-.04-.31-.02-.22-.05-.43-.06-.65,0-.28,0-.55,0-.83,0-.16-.02-.31-.02-.47,0-.17.05-.33.03-.5-.01-.1-.1-.2-.18-.34.05,0,.15-.03.22-.04-.09-.15-.19-.31-.29-.48.05-.04.09-.07.14-.11,0-.02,0-.04-.01-.05-.16-.09-.18-.21-.17-.39.02-.27-.02-.54-.03-.81,0-.3,0-.61,0-.91,0-.15-.04-.3-.07-.45,0-.05-.04-.12-.02-.16.11-.34.08-.69.12-1.04,0-.03.01-.06,0-.08-.1-.57.02-1.14-.02-1.71-.02-.35-.03-.7-.03-1.05,0-.72.03-1.44,0-2.15-.03-.83-.09-1.66-.16-2.48-.04-.49-.16-.97-.2-1.46-.06-.66-.09-1.32-.13-1.98,0-.15.01-.31,0-.46,0-.05-.05-.1-.08-.14-.03-.05-.07-.09-.07-.14-.04-.3-.07-.59-.1-.89-.08-.63-.15-1.27-.23-1.9-.01-.12-.05-.23-.05-.35,0-.38-.27-.58-.52-.81-.07-.06-.09-.21-.1-.33-.04-.3.08-.55.28-.76.02-.03.09-.01.17-.02-.04-.09-.08-.16-.11-.24.11-.14.05-.31-.02-.44-.03-.05-.17-.03-.26-.03-.17,0-.34.04-.5,0-.36-.08-.65.06-.96.19-.17.07-.42.11-.56.02-.16-.1-.32-.15-.49-.14-.31.03-.49-.22-.73-.32-.11-.05-.21-.13-.32-.2,0-.01.02-.04.02-.05-.16-.23-.33-.46-.49-.69,0,0-.07.03-.1.05-.19.19-.37.38-.55.58-.1.11-.17.24-.28.33-.16.12-.48.02-.62-.12-.1-.09-.19-.22-.38-.25-.17-.02-.31-.22-.47-.34-.09-.06-.17-.14-.27-.18-.13-.05-.21-.1-.24-.26-.02-.11-.17-.19-.24-.31-.06-.11-.21-.21-.08-.36.04-.05.08-.14.12-.14.07,0,.16.04.2.09.17.21.33.43.5.64.06.08.15.14.22.21.06.07.11.16.16.24.07.12.28.19.43.08.23-.17.45-.35.66-.55.19-.17.36-.36.65-.33.02,0,.06-.02.07-.04.15-.25.38-.13.58-.18.1.45.46,1.04,1.04,1.08.65.04,1.31.06,1.96.09.25,0,.5,0,.79,0,.07-.14.14-.34.26-.51.06-.09.18-.13.27-.2.05.09.12.18.14.28.04.15.16.2.41.13-.12-.21.08-.28.19-.36.11-.08.25-.1.41.03.27.22.57.39.87.57.11.06.24.16.39.04.01,0,.05.01.07.02.32.08.65.15.96.26.31.11.56.09.79-.16.01-.02.05-.01.08-.01.19.01.29-.08.29-.28-.06-.09-.35-.09-.17-.34.14.13.26.3.49.18.06-.03.19.08.26.11.11-.07.22-.14.32-.2.02.02.04.03.07.05-.03.14-.07.27-.09.41,0,.05.01.11,0,.16-.02.13-.04.25-.06.37-.01.07-.03.14-.04.21-.03.17-.06.34-.29.32,0,.05-.01.1-.02.15-.3,0-.55.33-.88.1-.3.09-.56-.02-.83-.13-.23-.09-.48,0-.73-.17-.42-.27-.91-.41-1.37-.62-.21-.09-.42-.2-.62-.29-.21.27-.22.55-.19.86.03.29-.01.58.02.87.09.77.2,1.54.3,2.31.07.57.16,1.13.21,1.7.05.5.04,1.01.08,1.51,0,.1.1.19.13.29.02.07,0,.15,0,.25.17.13-.14.48.24.64-.02-.32-.05-.6-.06-.88-.01-.41,0-.82-.01-1.22,0-.38-.02-.75-.05-1.13-.03-.42-.07-.83-.1-1.24,0-.02-.01-.05,0-.06.22-.46.03-.94.03-1.41,0-.41.05-.83-.02-1.25,0-.04.06-.13.09-.13.13-.02.27,0,.38,0-.02.28-.04.52-.06.77,0,0,.02,0,.03,0,.02.07.04.14.06.22,0,.05,0,.1,0,.14.02.28.04.55.05.83,0,.11-.02.22,0,.32.01.1.05.2.09.33-.01.13-.05.3-.05.47.02.45.08.89.11,1.34.01.17-.01.33-.01.5,0,.12.02.24.01.36,0,.07-.06.13-.09.2.16.14.13.21-.12.38Z"/>
      <path class="cls-1" d="M40.69,33.8s.04-.14.09-.19c.72-.58,1.31-1.27,1.74-2.1.08-.16.21-.3.29-.46.1-.2.17-.42.25-.65-.02,0,0,0,0,0,.37.03.37.04.23.4-.1.25-.14.52-.26.76-.28.57-.63,1.09-1.09,1.55-.23.23-.48.45-.69.69-.37.43-.83.76-1.22,1.17-.19.2-.39.35-.64.46-.09.04-.14.15-.22.21-.28.22-.55.43-.84.63-.34.24-.69.49-1.05.7-.51.31-1.01.65-1.56.87-.7.27-1.34.7-2.12.76-.12.01-.23.1-.35.14-.19.05-.39.09-.59.12-.43.06-.87.11-1.3.16-.45.05-.91.08-1.36.13-.17.02-.34.07-.51.1-.04,0-.09.03-.12.02-.38-.09-.75.03-1.11.07-.25.02-.48-.06-.72-.03-.25.04-.5,0-.75.02-.38,0-.76.04-1.14.03-.44,0-.88.03-1.31-.14-.07-.03-.16,0-.24.02-.2.05-.4.12-.6.17-.53.12-1.07.24-1.61.35-.43.09-.86.2-1.3.28-.52.09-1.06.12-1.57.24-.71.17-1.41.41-2.12.6-.27.07-.56.1-.85.14-.1.01-.21.02-.31.01-.11-.01-.22-.05-.33-.08,0-.03,0-.05,0-.08.13-.05.26-.11.39-.15.14-.04.29-.06.43-.09.22-.05.26-.12.16-.35.12-.16.27-.23.48-.22.13,0,.26-.04.39-.08.42-.14.84-.29,1.26-.44.18-.06.35-.11.53-.16.03,0,.08.02.11.02.09-.01.19-.02.28-.05.07-.02.13-.1.2-.1.4-.01.76-.21,1.14-.29.33-.07.66-.12.98-.21.16-.05.32-.07.48-.17.19-.12.45-.13.68-.19.41-.11.82-.22,1.23-.33.03,0,.07-.02.1-.01.18.05.33.04.42-.16.01-.03.09-.03.14-.05.5-.16,1.01-.32,1.51-.47.04-.01.09,0,.12-.02.15-.07.29-.16.43-.23.2-.09.39-.19.6-.25.46-.14.87-.38,1.28-.62.18-.1.36-.18.54-.28.03-.01.06-.02.07-.04.15-.33.52-.38.76-.59.1-.09.28-.08.4-.16.18-.12.33-.27.5-.41.35-.28.7-.56,1.06-.83.15-.11.24-.31.49-.29.06,0,.13-.15.21-.22.32-.26.66-.5.98-.76.11-.09.18-.23.28-.34.18-.18.37-.34.55-.52.3-.28.67-.5.87-.88.07-.13.19-.23.27-.35.06-.09.08-.2.12-.3.02-.04.04-.1.07-.12.07-.05.16-.06.22-.11.05-.04.08-.12.12-.2.12.26.09.32-.12.41-.04.02-.07.09-.09.12.11.02.19.04.31.07-.28.39-.51.75-.79,1.07-.41.48-.84.95-1.29,1.41-.38.38-.79.72-1.18,1.09-.04.03-.04.1-.05.12-.15.07-.29.12-.4.2-.35.27-.69.55-1.04.83-.08.06-.17.11-.26.17-.4.27-.8.54-1.2.81-.31.21-.61.45-.93.66-.36.24-.72.47-1.1.68-.31.18-.65.32-.97.48-.08.04-.15.07-.22.12-.17.11-.33.18-.54.21-.16.02-.31.15-.47.21-.21.07-.43.11-.65.18-.08.03-.14.11-.2.16.09.04.2.14.28.12.8-.22,1.61-.19,2.43-.17.42,0,.85-.11,1.28-.17.06,0,.13,0,.19,0,.31-.04.61-.11.92-.13.47-.03.91-.22,1.37-.28.17-.02.35-.04.52-.07.53-.1,1.05-.22,1.55-.45.28-.13.6-.17.9-.27.32-.11.66-.18.92-.44.06-.06.2-.04.3-.08.18-.08.36-.17.54-.26.42-.22.83-.43,1.24-.67.63-.37,1.26-.73,1.86-1.14.38-.26.79-.5,1.07-.9.05-.06.16-.08.25-.12Z"/>
      <path class="cls-1" d="M23.58,60.28c-.17.1-.07.27-.06.41.02.23.08.46.12.68,0,.03-.02.06-.03.09,0,.08-.03.17,0,.23.11.24.12.23-.09.32-.02.1-.04.18-.05.25,0,.07-.01.14-.01.21,0,.32,0,.64.03.96.01.11.08.21.03.34-.05.15-.06.33-.05.49.02.29.07.57.11.86.02.16.06.32.08.48.01.07.01.14.01.17,0,.13-.01.2-.02.28,0,.04.01.1,0,.12-.2.15-.11.37-.13.56-.01.19.02.39.04.56-.01.02,0-.01.03-.04,0,0,.02.02.02.03.01.16,0,.32.03.47.03.22,0,.42-.07.63-.05.16-.02.35-.04.52,0,.07-.05.14-.06.21-.01.14-.02.27-.02.41,0,.07.02.14.02.21,0,.08.01.16.02.28-.02.01-.08.06-.14.12.02,0,.03,0,.05.01-.03.39-.06.78-.08,1.07.08.32.21.56.18.77-.02.13.07.37-.17.45-.01,0-.02.05-.02.08.03.25.06.49.08.74.02.16.02.32.03.48.01.34.03.69.02,1.03,0,.22-.04.44-.06.67,0,.12,0,.24-.01.36,0,.04.01.08,0,.12-.07.35-.02.69.06,1.04.05.2,0,.43-.02.64-.02.41-.07.81-.07,1.22,0,.65.02,1.29.05,1.94.03.53.09,1.05.13,1.58.03.35.04.71.07,1.07,0,.07.06.14.07.22.03.21.05.41.08.62.04.26.1.51.14.77.03.21,0,.42.04.63.07.43.16.86.22,1.29.02.11-.01.23-.02.38h-.18c-.02.09-.05.19-.08.3.11.02.22.04.33.06,0,.03,0,.05,0,.08-.1.01-.2.03-.33.05.06.05.12.13.17.13.21-.01.28.13.37.27-.38.2-.49-.15-.7-.34,0,.1-.01.18-.02.29-.22-.17-.12-.4-.15-.58-.1-.6-.18-1.2-.24-1.8-.05-.46-.05-.92-.09-1.37-.02-.25-.08-.5-.1-.75-.02-.37-.02-.75-.03-1.12,0-.03.02-.07.01-.1-.04-.41-.08-.82-.12-1.23-.06-.6-.13-1.21-.19-1.81,0-.04.01-.08.02-.14.08.07.12.12.17.16.01-.01.03-.02.04-.03-.03-.1-.09-.2-.09-.31-.04-.66-.08-1.32-.12-1.99,0-.12-.04-.24-.04-.35,0-.17,0-.34,0-.51,0-.16.01-.33.01-.49,0-.35,0-.71,0-1.06,0-.05.05-.11.1-.19-.03-.06-.29-.13-.07-.24,0-.25-.02-.47-.02-.68,0-.43,0-.86-.02-1.28-.01-.31-.03-.63-.07-.94-.02-.16-.06-.31-.09-.47,0-.02-.02-.04-.02-.06.13-.37-.09-.71-.08-1.07.01-.52-.02-1.03-.02-1.55,0-.65.03-1.29.04-1.94,0-.19-.03-.38-.03-.57,0-.08.03-.17.04-.2-.02-.15-.04-.26-.05-.37-.02-.32-.03-.64-.04-.96-.01-.28-.02-.56-.04-.84,0-.14-.04-.28-.06-.42,0-.01,0-.03,0-.04.22-.28-.08-.52-.04-.79.02-.15-.03-.3-.03-.46,0-.41-.07-.8-.14-1.19,0-.04,0-.09.02-.13.04,0,.09,0,.11.03.06.05.11.1.2.19.04-.36.07-.72.11-1.08-.29-.14-.31-.29-.05-.47.23-.15.17-.4.26-.59,0-.02.02-.03.06-.11.1.13.2.23.27.35.13.23.25.47.37.71.01.03.02.09,0,.1-.27.12-.07.32-.08.48,0,.14.07.28.12.43Z"/>
      <path class="cls-1" d="M12.59,85.67c0-.3-.03-.6,0-.9.06-.41,0-.81-.03-1.21-.06-.63-.13-1.25-.2-1.88-.03-.28-.09-.56-.13-.84-.03-.21-.04-.41-.08-.62-.05-.26-.14-.52-.2-.78-.04-.18-.03-.36-.07-.54-.14-.7-.28-1.4-.42-2.1-.06-.32-.1-.65-.17-.97-.08-.33-.18-.66-.28-.98-.02-.05-.05-.12-.03-.16.11-.28-.03-.52-.1-.77-.1-.37-.16-.75-.24-1.13,0-.02,0-.04,0-.06-.13-.62-.26-1.23-.4-1.84-.12-.52-.24-1.05-.36-1.57-.14-.59-.28-1.19-.43-1.78-.15-.6-.32-1.19-.46-1.79-.14-.58-.25-1.17-.39-1.76-.1-.44-.24-.88-.34-1.32-.04-.14-.04-.3-.05-.48-.18-.04-.15-.26-.2-.42-.04-.16-.06-.32-.09-.48-.02-.12,0-.3-.08-.36-.19-.15-.18-.37-.23-.56-.14-.53-.26-1.07-.38-1.6-.1-.48-.18-.96-.27-1.44,0-.05-.07-.09-.11-.15,0-.22,0-.46,0-.7,0-.04-.08-.08-.14-.1-.09-.02-.18-.02-.27-.03.05-.11.09-.22.14-.33h.22s.04.09.07.18c.05-.29.24-.44.43-.57.08-.06.27-.1.31-.06.13.15.39.19.38.44,0,.03-.02.06-.04.09-.12.14-.28.26-.35.42-.06.14-.04.33-.02.48.07.46.21.9.25,1.36.08.98.52,1.86.73,2.81.12.56.27,1.12.42,1.67.17.66.36,1.31.52,1.97.05.21.04.44.07.65.02.14.06.27.09.41.08.37.17.74.25,1.1.12.52.36,1.01.4,1.56.02.2.14.4.18.6.09.44.22.89.23,1.34,0,.25.1.47.13.71.03.25.15.49.17.74.06.78.45,1.48.52,2.26.02.26.06.51.1.76.01.08.08.15.09.22.05.32.08.64.14.95.07.4.12.8.22,1.19.09.34.18.67.19,1.02.01.34.11.68.16,1.02.02.14.03.28.05.42.08.66.18,1.32.24,1.99.05.47.06.95.09,1.42.03.64.06,1.28.09,1.92,0,.23-.03.45-.25.58-.03,0-.05,0-.08-.01Z"/>
      <path class="cls-1" d="M12.07,59.28c-.24.21-.19.64-.58.66.17-.31.34-.61.49-.9-.12-.08-.19-.13-.26-.19.01-.02.02-.05.03-.07.09.02.17.04.29.06.06-.24-.1-.57.29-.73.06.13.16.27.18.42.05.37.06.74.1,1.11.06.62.12,1.23.19,1.85.07.61.16,1.21.23,1.82.01.11,0,.22,0,.4.03.14.08.34.11.54.08.49.14.97.21,1.46.04.25.07.5.1.75.11.98.23,1.97.34,2.95.04.35.09.7.12,1.06.01.16-.05.32-.03.48.07.7.14,1.4.22,2.1.03.25.1.5.13.75.08.75.15,1.5.23,2.26.06.59.14,1.17.2,1.76.04.42.07.84.12,1.26.03.3.1.59.13.89.12,1.17.23,2.34.34,3.51.02.24.05.49.07.73,0,.1-.04.2-.04.3,0,.07,0,.19.03.21.18.1.11.25.11.42-.11-.06-.21-.11-.29-.17-.03-.02-.06-.09-.05-.12.05-.15.12-.3.17-.46.01-.04,0-.11-.04-.14-.11-.08-.23-.15-.35-.22.13-.23.11-.44-.02-.59.02,0,.04,0,.06-.01,0-.07.02-.15,0-.21-.14-.28-.25-.55-.1-.86.01-.03,0-.07,0-.1-.15-.29,0-.63-.11-.88-.11-.24-.1-.46-.14-.68-.08-.44-.13-.88-.19-1.33-.05-.4-.09-.79-.15-1.19-.03-.17.02-.35-.12-.51-.06-.06,0-.21.03-.32-.04-.06-.09-.12-.1-.18-.07-.57-.13-1.14-.2-1.72-.05-.41-.13-.82-.18-1.23-.03-.24-.05-.49-.07-.74-.08-.84-.16-1.68-.25-2.52-.08-.76-.18-1.52-.26-2.28-.06-.58-.11-1.16-.17-1.74-.04-.39-.11-.78-.16-1.17-.02-.19,0-.39-.02-.59-.01-.13-.07-.26-.11-.39-.02-.05-.04-.11-.05-.16-.04-.63-.09-1.25-.12-1.88,0-.2-.04-.38-.07-.57-.06-.3,0-.62.01-.92,0-.01,0-.03,0-.04-.05-.25-.11-.5-.15-.75-.05-.32-.08-.65-.12-.98,0-.05,0-.11-.02-.19Z"/>
      <path class="cls-1" d="M50.67,64.14c-.09,0-.19-.01-.3-.02,0-.01,0-.03,0-.04.05,0,.1,0,.14,0,.2,0,.29-.04.38-.27.23-.58.37-1.19.55-1.79.19-.64.43-1.27.64-1.91.16-.47.3-.94.46-1.42.02-.07.07-.13.08-.19.02-.09.05-.23,0-.26-.08-.06-.2-.06-.31-.07-.07,0-.15.04-.26.07.08-.22.12-.41.38-.35.06.01.13,0,.19-.02.06-.02.1-.08.15-.14.06-.07.17-.13.17-.2,0-.15-.12-.18-.24-.14-.01-.08-.03-.15-.05-.28.13.03.28.03.37.11.18.16.44.25.47.53.02.19.03.38.03.57,0,.2-.02.39-.06.58-.13.58-.25,1.15-.41,1.72-.1.36-.26.71-.39,1.06-.1.26-.19.52-.28.79-.02.07,0,.16,0,.26-.03.02-.11.04-.12.07-.01.51-.53.86-.44,1.4-.05.03-.14.06-.15.11-.1.27-.13.58-.29.82-.13.21-.1.42-.18.62-.03.08-.02.18-.05.24-.04,0,.03.09-.16.18-.06.02-.05.18-.08.3,0,0,.05.01.11.03-.09.07-.21.11-.24.18-.05.14.04.22.2.19-.18.65-.24.75-.42.75-.03.19-.05.38-.08.58-.05-.02-.11-.04-.19-.07v.22c-.12.05-.22.1-.34.15.02.07.04.12.07.19-.08.04-.15.08-.23.13-.07-.07-.13-.14-.2-.21-.11.21-.28.22-.71.09.21-.06.42-.12.64-.19v-.24c.09.07.14.11.2.16.07-.1.13-.19.21-.32-.08-.05-.32,0-.28-.24.06,0,.14.02.21.02,0-.07-.02-.15-.02-.22.01-.12.03-.23.06-.34.02-.08.07-.15.11-.23-.08-.03-.14-.05-.2-.07.18-.03.31-.08.3-.28-.07-.04-.14-.08-.2-.11,0-.02.01-.03.02-.05h.19s0-.03.01-.04c-.05-.02-.11-.05-.17-.07.01-.04.02-.08.04-.13-.07-.01-.12-.02-.18-.03.3-.06.44-.24.47-.53.02-.14.04-.28.08-.41.02-.07.07-.14.12-.21-.06-.05-.14-.11-.21-.16.23.06.29.03.34-.22.04-.22.05-.44.08-.65Z"/>
      <path class="cls-1" d="M28.14,48.02s-.08.12-.13.14c-.7.24-1.39.48-2.09.72-.6.2-1.2.4-1.8.6-.52.18-1.04.37-1.56.55-.02,0-.04.01-.06.02-.42.35-.97.4-1.46.6-.58.24-1.16.47-1.75.69-.12.05-.27.03-.4.04,0,.02.03.08.05.13-.01,0-.02.02-.03.03-.1-.06-.19-.13-.31-.2-.04.06-.09.13-.11.16.05,0,.14,0,.23.01,0,.02,0,.04,0,.05-.24.09-.47.18-.71.27,0-.01-.01-.03-.02-.04.2-.17.38-.38.6-.52.39-.24.82-.39,1.27-.51.44-.11.87-.31,1.3-.47.07-.03.15-.05.22-.08.46-.19.92-.4,1.39-.58.44-.17.89-.3,1.33-.46.45-.17.9-.34,1.35-.52.47-.19.93-.42,1.4-.6.28-.1.58-.14.87-.19.13-.03.26-.04.4-.04.07.08-.21.16.02.2h0Z"/>
      <path class="cls-1" d="M49.81,34.96c.18-.07.44.01.5.18.18.46.35.93.52,1.39.04.09.1.18.13.27.06.21.1.43.15.64.16.71.09,1.41-.11,2.1-.12.41-.23.82-.5,1.17-.13.17-.25.36-.4.53-.04.05-.14.06-.27.1.13-.18.24-.3.31-.44.21-.4.36-.81.45-1.25.05-.23.15-.45.19-.68.03-.19.02-.4.02-.6,0-.12-.01-.25-.03-.37-.05-.36-.1-.72-.16-1.08-.04-.25-.11-.5-.17-.74,0-.02-.02-.04-.03-.05-.29-.29-.39-.67-.53-1.03-.02-.04-.05-.08-.08-.14Z"/>
      <path class="cls-1" d="M35.77,51.45c.6-.26,1.18-.51,1.76-.76.06-.02.11-.06.17-.09.15-.08.28-.17.48-.17.19,0,.37-.14.55-.21.06-.02.13-.02.19-.03-.01.05-.04.11-.03.16.02.21-.16.25-.29.3-.43.18-.86.34-1.3.51-.21.08-.41.17-.6.31-.19.15-.47.19-.72.26-.12.03-.21-.09-.22-.27Z"/>
      <path class="cls-1" d="M20.17,44.07c.11-.01.23-.02.34-.04.15-.03.29-.09.44-.12.29-.07.57-.08.86.01.1.03.23.03.33,0,.23-.06.44-.12.55.24-.62.06-1.24.22-1.88.11.03-.06.04-.09.05-.11-.23-.02-.46-.04-.68-.06,0-.01,0-.02,0-.03Z"/>
      <path class="cls-1" d="M42.45,48.32c.1,0,.21.02.31.03,0,.03.01.06.02.09-.16.06-.32.12-.48.18-.03.01-.05.04-.08.06-.33.23-.65.46-.98.67-.06.04-.18-.02-.28-.03.09.3-.2.27-.33.38-.08.07-.2.09-.3.13-.03-.05-.07-.11-.1-.15.21-.48.73-.44,1.1-.65.28-.15.54-.33.81-.5.11-.07.22-.14.32-.2h0Z"/>
      <path class="cls-1" d="M52.82,57.07c.05-.17.09-.32.14-.47h.52c-.25.39.14.57.24.87-.38.02-.55-.38-.89-.4Z"/>
      <path class="cls-1" d="M43.46,29.71c-.08-.08-.14-.14-.19-.19.1.32.08.43-.07.48-.04-.08-.06-.15-.11-.21-.1-.13-.04-.46.1-.56.05-.03.09-.12.08-.17-.01-.15-.05-.29-.09-.43.02,0,.04,0,.07-.01.07.36.13.71.2,1.09Z"/>
      <path class="cls-1" d="M18.89,44.69l.42-.09s0-.02,0-.03c-.11-.01-.21-.02-.32-.03.07-.15.29-.19.71-.11-.06.03-.1.05-.14.07,0,.01,0,.03,0,.04.18-.03.35-.05.53-.08,0,.03.01.05.02.08-.4.08-.8.17-1.2.25,0-.03-.02-.07-.02-.1Z"/>
      <path class="cls-1" d="M18.86,44.06c.31-.07.59-.12.9-.19,0,.01.03.08,0,.12-.12.2-.69.26-.91.07Z"/>
      <path class="cls-1" d="M39.46,49.83c0,.36-.05.42-.37.48-.03-.07-.09-.2-.08-.21.14-.1.29-.18.44-.27Z"/>
      <path class="cls-1" d="M16.95,44.4c-.24.12-.72.11-.81-.01.26-.08.51-.11.81.01Z"/>
      <path class="cls-1" d="M42.89,48.05c.12-.15.22-.32.47-.19.08.04.21.02.36.02-.07.09-.11.13-.14.17-.23-.16-.46-.07-.68,0,0,0,0,0,0,0Z"/>
      <path class="cls-1" d="M48.63,69.33c.26-.06.31-.02.26.19-.02.07-.03.14-.06.2,0,.03-.03.05-.05.09-.07-.03-.15-.06-.25-.1.17-.11.37-.19.1-.39Z"/>
      <path class="cls-1" d="M44.64,47.14c-.06.09-.09.13-.14.21.09-.02.14-.03.19-.04-.15.31-.39.12-.61.14.04-.06.07-.11.1-.16.01.02.02.04.03.06.13-.06.25-.13.42-.21Z"/>
      <path class="cls-1" d="M17.87,51.92c-.25.08-.46.3-.75.15.12-.08.22-.17.33-.19.13-.02.26.03.42.05Z"/>
      <path class="cls-1" d="M18.55,87.51c-.09.15-.15.24-.21.35-.06-.04-.15-.09-.22-.15,0,0,.05-.13.09-.14.1-.04.21-.04.34-.06Z"/>
      <path class="cls-1" d="M51.57,59.89c.1-.28.2-.56.3-.84.03,0,.05.02.08.03-.1.28-.19.56-.29.85-.03-.01-.06-.02-.09-.03Z"/>
      <path class="cls-1" d="M43.21,69.81c.01.12.03.22.04.34-.26-.14-.2.03-.17.18-.19-.07-.15-.23-.12-.32.03-.08.16-.13.25-.2Z"/>
      <path class="cls-1" d="M28.15,48.02q.1-.28.5-.25c-.17.07-.23.37-.5.25,0,0,0,0,0,0Z"/>
      <path class="cls-1" d="M39.87,50.02c.02-.11-.16-.24.05-.3.06-.02.2.05.21.09.01.15-.11.2-.26.21Z"/>
      <path class="cls-1" d="M43.36,47.7c.2-.05.35-.08.53-.12-.08.27-.17.29-.53.12Z"/>
      <path class="cls-1" d="M13.61,54.09l-.59.18s-.02-.06-.02-.08c.17-.16.4-.1.6-.15,0,.02,0,.04.01.06Z"/>
      <path class="cls-1" d="M6.15,38.24c.15-.19.3-.38.45-.57.02.02.04.03.06.05-.15.2-.29.39-.44.59l-.07-.06Z"/>
      <path class="cls-1" d="M7.23,40.25c-.04.13-.08.27-.15.47-.03-.11-.06-.16-.07-.22,0-.06-.01-.14.02-.19.04-.05.11-.08.17-.11,0,.02.01.04.02.06Z"/>
      <path class="cls-1" d="M34.89,51.94c.11,0,.2.02.28.02-.06.1.04.28-.16.32-.03-.09-.07-.19-.13-.34Z"/>
      <path class="cls-1" d="M50.05,47.57c-.02-.25.25-.22.36-.34l.04.04c-.11.12-.22.24-.33.36-.02-.02-.05-.04-.07-.06Z"/>
      <path class="cls-1" d="M48.08,69.98c.07.12.12.21.2.34-.04.05-.11.12-.2.22v-.56Z"/>
      <path class="cls-1" d="M42.45,48.31h-.19s0-.04,0-.06c.2-.12.4-.22.64-.2,0,0,0,0,0,0-.11.04-.23.07-.34.13-.05.02-.07.09-.1.14,0,0,0,0,0,0Z"/>
      <path class="cls-1" d="M45.78,35.96c.16-.05.31-.11.47-.16,0,.02.02.05.02.07-.16.05-.31.11-.47.16,0-.02-.01-.05-.02-.07Z"/>
      <path class="cls-1" d="M36.51,29.93c-.02-.1-.04-.19-.06-.29h.23c-.05.11-.09.2-.13.3-.01,0-.03,0-.04,0Z"/>
      <path class="cls-1" d="M49.48,67.55c-.05.07-.11.14-.19.24-.02-.08-.06-.15-.05-.17.06-.05.13-.09.2-.13.01.02.03.04.04.06Z"/>
      <path class="cls-1" d="M46.09,36.15c-.12.06-.24.11-.37.17,0-.02-.02-.04-.03-.05.11-.07.23-.14.34-.21.02.03.03.06.05.1Z"/>
      <path class="cls-1" d="M29.19,88.44s-.01,0-.01,0c.08.04.15.07.23.11,0,.02-.01.04-.02.06-.1,0-.19.02-.31.03.04-.08.07-.14.11-.2Z"/>
    </g>
  </g>
</svg>