<?xml version="1.0" encoding="UTF-8"?>
<svg id="Layer_2" data-name="Layer 2" xmlns="http://www.w3.org/2000/svg" viewBox="0 0 75.49 111.51">
  <defs>
    <style>
      .cls-1 {
        fill: #000;
        stroke-width: 0px;
      }
    </style>
  </defs>
  <g id="illustrations">
    <g>
      <path class="cls-1" d="M34.76,3.38c.16-.32.31-.65.51-.94.37-.54.8-1.03,1.44-1.27.74-.27,1.48-.38,2.19.07.01,0,.03.01.05.02.43.18.8.46,1.05.84.24.37.75.55.75,1.09,0,.29.06.59.09.88.03.31-.1.55-.37.69-.19.1-.38.18-.56.29-.21.13-.44.25-.6.42-.17.18-.26.42-.39.63-.15.23-.34.45-.47.69-.29.53-.39,1.11-.41,1.7-.01.35,0,.69.09,1.03.2.04.41.08.61.12-.07-1.07.59-2.22,1.16-3.05.35-.51.73-.97,1.2-1.37.31-.27.63-.52.73-.93.1-.43,0-.9-.12-1.31-.49-1.6-1.71-2.57-3.34-2.9-1.41-.28-2.75.09-3.64,1.27-.34.45-.62.96-.85,1.47-.1.23-.38.82-.25,1.12.5.11.86-.05,1.12-.57Z"/>
      <path class="cls-1" d="M44.63,73.8c0,.39.18.78.28,1.16.21.78.45,1.56.64,2.35.06.28.2.36.48.4-.03-.21-.05-.39-.08-.58-.08-.39-.19-.77-.26-1.15-.09-.52-.14-1.04-.21-1.57-.02-.2-.03-.4-.04-.59,0-.05,0-.13-.02-.15-.1-.06-.18-.11-.05-.23,0,0-.05-.08-.07-.13-.02-.04-.05-.09-.03-.12.09-.25,0-.42-.21-.57.2-.12.11-.22.03-.27.03-.14.09-.33.07-.34-.2-.09-.14-.3-.21-.45-.07-.15-.17-.35-.12-.47.1-.22.04-.38-.03-.57-.06-.14-.15-.3-.14-.44.03-.25,0-.47-.16-.67-.02-.02-.01-.07,0-.1.11-.31.06-.59-.18-.83.06-.04.12-.08.21-.15-.19-.18-.35-.34-.55-.52.13.02.25.04.35.06-.03-.06-.08-.12-.09-.19-.04-.2-.06-.4-.1-.6-.05-.26-.13-.51-.18-.77-.07-.38-.11-.76-.17-1.14-.11-.71-.25-1.42-.35-2.14-.1-.73-.18-1.47-.26-2.2-.04-.35-.16-.72-.1-1.06.09-.51-.2-.89-.27-1.34.3-.17-.06-.23-.06-.29.05-.16.09-.28.13-.4-.06-.02-.1-.04-.15-.06.04-.09.1-.17.1-.23-.03-.29-.07-.59-.12-.88-.07-.43-.14-.87-.23-1.3-.04-.21-.11-.41-.16-.62,0-.04.02-.09.01-.13-.07-.18.16-.43-.18-.54.08-.05.14-.09.17-.11-.05-.41-.12-.8-.15-1.19-.07-.9-.12-1.79-.18-2.69-.03-.44-.05-.88-.07-1.32-.04-.78-.08-1.56-.13-2.35-.03-.45-.07-.91-.13-1.36-.02-.14-.1-.28-.15-.41.02-.04.07-.09.06-.13-.05-.26-.1-.52-.18-.77-.15-.44-.17-.93-.5-1.3,0-.01-.01-.04,0-.05.13-.1.11-.21.08-.33-.27-.03-.54-.04-.81-.04,0,.02,0,.04,0,.06-.01.19,0,.39-.03.58-.06.32-.18.64-.23.96-.05.3-.03.62-.04.92-.04.75-.08,1.49-.11,2.23,0,.17-.03.34.02.5.15.46.16.94.27,1.4.05.22.23.41.34.61.02-.01.05-.02.07-.04-.1-2.04-.25-4.08.15-6.1.05,0,.09,0,.14-.01.08.45.17.9.26,1.38-.03.03-.08.08-.12.12.09.1.22.18.24.29.04.24.02.5.04.74.02.3.05.6.08.91.04.02.1.06.12.07-.06.1-.13.17-.13.23.04.77.1,1.54.15,2.3.03.5.04,1,.07,1.5.04.68.09,1.37.14,2.05.02.28.02.56.05.83.03.21.05.45.16.62.09.14.14.26.18.43.14.67.34,1.33.5,2,.07.31.1.64.12.97.03.48.03.95.04,1.43,0,.1.02.2.03.3.03.02.06.03.09.05.01-.05.02-.1.04-.16-.03.24-.05.45-.05.67,0,.17.03.35.06.52.05.38.11.76.14,1.15.02.22-.03.45-.05.67-.01.12-.03.24-.04.36-.04.35.18.69.08,1.05-.01.04,0,.13.04.15.21.1.15.28.18.45.02.09.1.17.13.27.05.19.21.38.07.52.04.16.09.27.08.38-.02.2-.02.39-.03.59,0,.28.08.49.24.68-.07.08-.13.14-.14.16,0,.15.01.24.02.33,0,.1-.03.22.02.29.09.14.13.24.01.38-.03.03,0,.12.02.18.01.04.07.08.07.12.06.45.1.9.16,1.35.02.17.05.35.08.52.05.24.11.49.16.73.06.32.11.65.16.97.04.26.02.53.31.68.03.01.03.1.02.14-.02.16-.06.32-.09.48-.06.31.2.54.19.87Z"/>
      <path class="cls-1" d="M75.48,101.47c-.06-.08-.16-.13-.21-.21-.18-.35-.36-.71-.51-1.07-.14-.33-.24-.69-.38-1.02-.21-.49-.43-.98-.66-1.47-.17-.36-.34-.72-.54-1.06-.23-.38-.5-.74-.73-1.12-.26-.43-.48-.89-.73-1.32-.27-.46-.61-.89-.84-1.38-.46-.99-.88-2-1.3-3.01-.11-.27-.15-.57-.26-.85-.19-.48-.43-.93-.62-1.41-.16-.41-.27-.83-.43-1.24-.12-.3-.29-.58-.4-.88-.11-.28-.17-.58-.26-.87-.12-.45-.21-.92-.38-1.35-.17-.46-.42-.88-.63-1.33-.15-.32-.3-.64-.44-.96-.25-.58-.41-1.2-.83-1.7-.03-.03-.03-.11-.01-.14.12-.15-.01-.17-.09-.25-.12-.13-.32-.35-.28-.46.09-.24-.03-.32-.19-.43.28-.32-.11-.44-.15-.67,0-.11-.04-.22-.07-.32-.01-.05-.02-.1-.04-.14-.04-.11-.07-.21-.12-.31-.06-.11-.15-.19-.2-.3-.15-.32-.26-.67-.45-.97-.37-.62-.66-1.27-.9-1.95-.09-.25-.2-.5-.35-.73-.3-.48-.66-.92-.7-1.52-.01-.16-.17-.31-.24-.47-.07-.16-.11-.33-.15-.49-.01-.04.01-.13,0-.14-.26-.06-.14-.31-.22-.46-.2-.39-.33-.82-.5-1.23-.05-.11-.12-.21-.16-.32-.11-.32-.2-.65-.31-.96-.07-.19-.16-.37-.25-.58.01-.01.04-.06.05-.07-.12-.22-.23-.41-.32-.61-.04-.08.02-.22-.02-.29-.17-.26-.36-.51-.52-.74.02-.06.09-.14.07-.19-.16-.42-.34-.84-.5-1.27-.05-.12-.19-.26.02-.39.01,0,0-.08,0-.09-.14-.08-.02-.19-.05-.28-.07-.22-.12-.47-.25-.66-.12-.16-.16-.45-.47-.45-.03,0-.1-.18-.08-.23.18-.29.18-.28-.12-.37.02-.09.07-.18.05-.25-.14-.44-.29-.87-.44-1.3-.06-.19-.14-.37-.21-.55-.05-.13-.16-.26-.14-.38.03-.28-.02-.43-.2-.48-.04-.11-.05-.19-.09-.27-.05-.1-.18-.2-.17-.28.05-.42-.38-.74-.22-1.17,0-.01,0-.04-.01-.05-.13-.17-.26-.33-.4-.5.26-.09.1-.24.05-.34-.12-.2-.1-.41-.12-.62-.01-.19.03-.45-.25-.54-.04-.01-.06-.08-.08-.13-.22-.71-.58-1.36-.79-2.07,0-.02-.01-.03-.02-.05-.27-.39-.53-.78-.77-1.18-.48-.79-.94-1.58-1.4-2.38,0,0-.02,0-.02,0-.04-.03-.07-.09-.1-.14-.05-.07-.1-.15-.18-.26.01-.01.03-.03.05-.04-.07-.12-.14-.25-.21-.37-.01.1-.02.2-.03.31-.08-.09-.17-.17-.24-.27-.07-.1-.14-.22-.19-.33-.02-.06,0-.14.01-.18-.15-.23-.29-.45-.42-.68-.31-.55-.58-1.11-.9-1.65-.37-.61-.75-1.2-1.14-1.8-.33-.4-.65-.81-.94-1.24-.01,0-.02-.01-.03-.01-.08-.02-.11-.18-.16-.28,0,0,0,0,0,0-.09-.14-.17-.27-.25-.41-.03-.06-.06-.12-.09-.18h-.02c-.06-.13-.14-.3-.21-.47,0,0,.01,0,.02,0,0-.02-.01-.03-.02-.05-.05-.02-.1-.05-.17-.08.04-.03.07-.06.1-.09-.36-1-.37-2.02.21-2.96.11-.37.14-.78.39-1.1.14-.18.15-.37.2-.57.07-.3.27-.57.28-.9,0-.21.08-.42.12-.64.06-.29.11-.59.17-.88,0-.03.05-.05.08-.06.29-.15.29-.47.3-.7.03-.45-.07-.91-.1-1.36,0-.07,0-.15.04-.22.04-.12.16-.24.15-.36-.06-.63,0-1.27.05-1.89.03-.32.02-.62-.05-.92,0-.02,0-.05,0-.08.09-.62.03-1.22-.15-1.82-.03-.11,0-.24,0-.44-.1-.18-.22-.45-.38-.69-.12-.2-.13-.39-.09-.6.1-.46.19-.92.29-1.38.04-.18.09-.36.11-.54.09-.64.14-1.29.25-1.93.13-.73.31-1.44.47-2.18.15,0,.28-.04.24-.17.18-.18.32-.31.5-.49.34.24.81.31,1.21.58.42.27.91.43,1.35.65.52.26,1.05.49,1.5.88.03,0,.05-.01.08-.01.16,0,.32.01.47.03,0,0,0,0,0,0,0,0,0,0,.01,0,.18.02.36.04.54.03.24-.01.36-.15.36-.33-.02-.02-.03-.03-.05-.05-.71-.6-1.71-.96-2.54-1.35-1.01-.47-2.02-.99-3.04-1.44-1-.44-2.09-.65-3.12-1.01-.95-.34-1.85-.83-2.75-1.27-.89-.43-1.77-.9-2.51-1.56-.74-.66-1.27-1.51-2.07-2.11-.29-.22-.52-.44-.68-.69-.56,0-1.12.02-1.68.02-1.33,1.41-2.42,3.13-4.01,4.26-.74.53-1.56.92-2.38,1.3-.88.4-1.73.86-2.61,1.26-.89.4-1.82.66-2.67,1.14-.8.45-1.54.99-2.33,1.47-.57.35-1.42.56-1.9,1.02-.41.38-.18.64.18.77.07,0,.15-.04.23-.09.27-.17.54-.35.82-.5.71-.37,1.43-.73,2.15-1.08.15-.07.32-.11.46-.2.19-.12.34-.3.54-.4.64-.35,1.01-.21,1.3.45,0,.02.01.03.02.05.1.35.22.7.31,1.06.17.69.36,1.38.47,2.07.13.76.18,1.53.27,2.29.04.35.19.66.46.92-.06.04-.12.08-.18.12.13.03.25.05.38.08-.36.62-.53,1.26-.69,1.91-.2.78-.14,1.54.03,2.3.21.96.48,1.9.74,2.85.22.81.47,1.62.7,2.43.01.04,0,.09-.01.13-.11.18-.1.35.05.51.03.03.05.08.05.12.01.33.06.65.15.98.18.62.26,1.28.47,1.9.07.2.17.35.32.42.21.09.41.28.69.12.12-.07.36-.09.45-.01.24.2.52.25.8.31.34.08.69.16,1.04.23.2.05.4.09.61.14.14.03.29.09.43.1.48.02.98-.05,1.44.05.44.09.79-.09,1.17-.18.13-.03.26-.09.39-.13,0,.02.02.05.03.07.04-.06.08-.14.14-.17.31-.14.49-.38.57-.7.04-.16.14-.19.27-.18.44.02.89.1,1.32.04.5-.07,1.01.24,1.51-.08.25-.16.56-.22.87-.33.14.16.29.33.41.47.02.16.03.3.05.49.2-.09.41-.12.45-.22.09-.22.27-.2.4-.18.54.08,1.01-.17,1.51-.29.17-.04.34-.04.51-.07l.03.15c-.31.12-.62.25-.94.35-.26.09-.53.14-.79.21-.22.06-.44.14-.67.15-.31.02-.62-.04-.93-.03-.45.02-.9.12-1.35.12-.78,0-1.57-.05-2.35-.08-.02,0-.04.03-.12.09.23.06.42.12.6.15.32.04.64,0,.95.08.69.17,1.38.23,2.08.04.03,0,.07-.02.1-.01.71.06,1.43.09,2.14-.03.51-.08,1.01-.17,1.49-.25.02.11.04.26.07.42-.6.25-1.21.54-1.9.56-.52.01-1.03.12-1.55.23-.52.11-1.05.2-1.59.24-.59.05-1.19.05-1.78.08-.14,0-.27.07-.41.11-.14.04-.28.1-.43.1-.36,0-.73-.04-1.09-.03-.15,0-.31.07-.45.15-.14.08-.23.13-.37,0-.13-.14-.29-.19-.48-.05-.1.07-.24.08-.37.11-.17.04-.24-.15-.35-.19-.29-.09-.61-.11-.91-.18-.24-.05-.54.16-.72-.16,0-.01-.06,0-.1,0-.35-.02-.7-.02-1.04-.06-.13-.01-.27-.09-.36-.18-.28-.26-.62-.35-.97-.33-.22,0-.35,0-.41-.17-.75.14-.57.63-.38,1.13-.19-.02-.33-.04-.46-.06-.32-.03-.59.04-.82.31-.26.31-.58.58-.86.87-.24.25-.48.5-.7.77-.45.57-.91,1.13-1.2,1.81-.03.07-.15.11-.23.16-.02.01-.04.02-.08.05.06.04.1.08.16.12-.22.3-.43.6-.65.9-.28.39-.65.72-.7,1.24,0,.05-.08.09-.12.14-.09.1-.2.19-.26.3-.08.13-.1.3-.17.44-.44.92-.88,1.83-1.33,2.74-.2.41-.44.81-.61,1.23-.2.49-.34,1.01-.51,1.51-.25.69-.5,1.39-.77,2.07-.22.55-.46,1.08-.69,1.63-.11.26-.23.51-.32.78-.2.61-.35,1.24-.58,1.84-.24.62-.56,1.2-.84,1.8-.71,1.51-1.42,3.03-2.13,4.54-.39.82-.81,1.63-1.16,2.47-.35.84-.61,1.71-.93,2.56-.42,1.11-.79,2.23-1.37,3.28-.4.72-.77,1.46-1.17,2.18-.61,1.1-1.23,2.19-1.84,3.29-.24.43-.49.86-.7,1.31-.52,1.09-1.01,2.19-1.54,3.28-.45.92-.93,1.83-1.41,2.73-.3.56-.63,1.1-.94,1.65-.31.56-.6,1.13-.93,1.68-.22.38-.5.73-.72,1.11-.24.41-.44.84-.66,1.26-.26.52-.54,1.02-.77,1.55-.22.48-.39.98-.58,1.47-.18.48-.32.97-.52,1.44-.22.54-.47,1.07-.73,1.58-.22.44-.49.86-.72,1.29-.04.07-.05.21-.01.27.21.34.52.51.9.55.04-.12.08-.23.1-.3.13.16.25.32.39.45.17.15.37.28.57.41.07.05.15.1.24.11.85.1,1.7.19,2.55.29.31.04.62-.05.93.13.13.08.27.16.41.24.2,0,.4,0,.6.03-.01-.17-.15-.22-.38-.28.47-.2,1.56.05,1.9.47-.08.01-.15.02-.27.04.21.15.38.27.6.43-.04,0-.08,0-.13.01.63.34,1.24.71,1.92.94.33.11.65.17.98.21.23-.04.46-.02.68.03.34,0,.68.03,1.01.15,0,0,0-.02,0-.03.02-.02.05-.04.07-.05.03.05.06.1.09.15.02.01.05.02.07.03.46.23.81.58,1.19.88.1.06.2.13.3.21-.01,0-.03-.01-.04-.02.22.16.46.3.73.39.18.06.29.17.37.29.4.15.89-.01,1.22.36.02.03.08.03.13.03.49,0,.97,0,1.46,0,.03,0,.06-.07.11-.13.08-.02.21-.05.33-.09.5-.17.65-.14.95.22.03.03.05.07.07.11.06.12.1.27.19.36.14.15.32.25.48.39.73.65,1.6,1.01,2.52,1.23.6.14,1.21.19,1.83.26.3.03.63.08.92.01.65-.14,1.29-.31,1.91-.54.82-.3,1.62-.65,2.42-1,.09-.04.15-.16.23-.22.05-.04.13-.09.17-.08.33.09.65.19.97.31.19.07.38.18.56.28.23.13.45.28.68.4.13.07.27.13.41.18.18.07.37.12.55.18.09.03.18.09.27.14.5.25,1.02.48,1.51.75.55.31,1.07.69,1.63.97.38.19.81.28,1.22.41.29.09.58.22.88.26.86.13,1.73.3,2.61.17.43-.06.86-.11,1.27-.24.68-.22,1.36-.48,1.98-.86.45-.28.93-.5,1.4-.74.47-.24.93-.5,1.41-.72.48-.23,1.01-.37,1.38-.8.04-.04.14-.06.19-.04.33.13.67.25.99.41.33.16.59.48,1.03.39.08-.02.17.03.26.05.3.09.6.21.9.28.29.07.59.08.88.13.22.04.44.12.66.17.48.12.93,0,1.37-.15.77-.25,1.52-.55,2.24-.92.92-.47,1.73-1.04,2.26-1.95.02-.04.14-.05.2-.04.19.04.37.15.56.16.26.01.52-.04.77-.07,1.4-.17,2.7-.69,3.96-1.29.39-.18.78-.37,1.17-.56.13-.06.25-.17.38-.17.74-.02,1.47.08,2.19.28.3.08.62.12.93.13.25.01.51-.06.76-.06.75,0,1.45-.19,2.12-.48.38-.16.69-.46,1.03-.7.04-.03.06-.11.08-.16.03-.09.05-.19.08-.32-.12-.09-.27-.2-.41-.31-.05.1-.07.17-.11.23-.11.15-.23.29-.34.44-.25.36-.36.4-.78.28-.07-.02-.16-.01-.23,0-.26.05-.52.1-.77.16-.23.05-.46.12-.68.18.15.11.29.22.43.32-.16-.01-.28-.07-.42-.11-.2-.05-.41-.07-.61-.11-.14-.03-.32-.16-.4-.11-.26.17-.5.05-.75.03-.36-.04-.71-.09-1.06-.14-.02-.21.07-.24.22-.23.55.05,1.11.1,1.66.13.36.02.72,0,1.09-.02.66-.03,1.31-.12,1.83-.59.28-.26.52-.56.8-.86-.14-.06-.21-.08-.26-.1.07-.08.18-.14.19-.21.02-.33.14-.54.53-.5-.01-.08,0-.15-.03-.18-.31-.24-.37-.6-.48-.94-.11-.34-.27-.67-.42-1-.08-.18-.13-.43-.27-.5-.2-.11-.19-.2-.23-.39-.05-.27-.25-.53-.43-.77-.21-.29-.49-.53-.69-.83-.33-.49-.63-1.01-.94-1.51-.07-.11-.18-.2-.25-.31-.28-.43-.55-.87-.83-1.3-.05-.08-.12-.16-.16-.25-.15-.32-.27-.66-.44-.96-.12-.22-.33-.39-.45-.61-.1-.18-.09-.41-.18-.59-.19-.39-.41-.78-.63-1.16-.39-.68-.79-1.35-1.18-2.03-.19-.33-.37-.65-.53-.99-.1-.21-.29-.17-.45-.21-.04,0-.1.06-.15.09-.02-.03-.03-.06-.05-.09.12-.08.24-.16.37-.25,0,0-.01-.04-.03-.07-.19-.33-.39-.65-.58-.98-.32-.54-.65-1.07-.94-1.63-.11-.22-.43-.3-.38-.62,0,0-.02-.02-.05-.03-.04.03-.07.06-.11.08,0,.16,0,.34.05.49.22.53.45,1.05.71,1.56.3.6.63,1.19.95,1.78.2.36.31.78.64,1.08.07.07.11.17.16.27.01.07.01.16.05.24.26.53.49,1.07.8,1.56.38.6.51,1.36,1.12,1.78-.02.09-.07.17-.05.21.14.3.27.6.44.88.19.33.45.62.63.96.5.92.97,1.85,1.45,2.78.09.17.2.33.3.5-.34-.18-.65-.38-.94-.61-.11-.09-.17-.23-.25-.35-.13-.19-.25-.4-.39-.58-.28-.34-.61-.63-.85-.99-.44-.65-.84-1.33-1.24-2-.14-.23-.36-.44-.28-.78.04-.16,0-.37-.08-.52-.29-.58-.63-1.14-.93-1.71-.29-.57-.55-1.17-.84-1.75-.25-.52-.51-1.05-.78-1.57-.64-1.22-1.28-2.44-1.92-3.67-.32-.61-.66-1.22-.94-1.85-.21-.46-.34-.96-.5-1.44-.02-.07,0-.15,0-.22.03-.01.05-.02.08-.04.08.1.17.18.23.29.24.45.47.91.7,1.37.16.32.33.64.51.95.03.05.13.07.2.09.03,0,.1-.04.1-.07,0-.04-.03-.12-.06-.13-.28-.07-.34-.34-.44-.54-.48-.92-.93-1.86-1.38-2.79-.19-.38-.37-.76-.54-1.15-.29-.64-.58-1.28-.87-1.92-.13-.3-.27-.59-.38-.9-.14-.41-.21-.84-.38-1.23-.27-.63-.61-1.22-.88-1.85-.38-.86-.73-1.73-1.09-2.59-.32-.75-.66-1.48-.95-2.23-.11-.29-.41-.52-.33-.89.01-.05-.07-.12-.11-.18-.07-.11-.18-.21-.19-.32-.03-.22-.03-.44-.23-.6-.02-.02-.04-.07-.03-.09.11-.33-.13-.52-.29-.75.1.47.21.94.33,1.41.05.21.13.41.2.62.22.56.46,1.1.67,1.66.13.36.21.74.36,1.09.08.19.12.34-.02.53-.22-.46-.43-.93-.6-1.41-.14-.39-.25-.8-.37-1.2-.08-.27-.18-.53-.26-.8-.08-.24-.3-.41-.25-.72.02-.12-.14-.37-.22-.56-.14-.35-.34-.67-.48-.93.04-.17.07-.28.08-.39,0-.05-.09-.09-.1-.15-.01-.08.01-.17.02-.26.08.03.16.06.23.1.04.02.07.06.1.09.02-.01.04-.03.07-.04-.05-.12-.1-.23-.15-.35-.28.14-.48.08-.44-.15.05-.29-.12-.5-.13-.75,0-.09-.05-.18-.11-.25-.13-.16-.19-.3.07-.42-.25-.11-.34-.27-.36-.52-.01-.2-.09-.45-.23-.56-.22-.17-.19-.31-.11-.44-.16-.29-.3-.54-.45-.81-.24.03-.15.24-.11.39.11.43.23.85.37,1.27.19.58.39,1.16.59,1.73.02.05.08.09.11.13.03.04.07.08.09.12.06.16.11.32.17.5-.05.11-.11.28-.18.44.2.18.36.37.26.66,0,.02,0,.05.02.07.11.22.23.44.33.67.13.3.27.61.36.92.12.38.19.78.29,1.16.04.14.07.29.16.4.2.23.4.45.22.78-.02.03.04.11.08.15.04.04.12.06.14.11.13.34.23.69.36,1.03.24.61.48,1.23.74,1.83.28.65.54,1.29.74,1.97.07.22.17.44.26.65.04.1.1.2.15.3.17.34.35.67.5,1.01.06.13.07.27.11.41.02.09.08.17.11.26.05.19.08.4.13.58.14.44.38.86.58,1.28.06.12.11.25.15.37.04.09.07.18.1.28.18.37.34.75.53,1.13.22.44.45.88.67,1.32.18.38.39.75.51,1.15.12.39.45.66.52,1.1.07.44.35.85.54,1.27-.03.02-.07.06-.11.1,0,0,.05.08.06.07.18-.11.19.09.23.15.18.33.34.68.5,1.02.06.12.12.24.18.36.17.35.35.7.52,1.06.12.26.23.53.36.79.1.2.24.38.33.59.16.37.29.75.45,1.11.08.2.21.37.29.57.09.22.1.49.24.67.2.26.31.57.48.84.4.66.83,1.3,1.26,1.95.31.48.62.97.96,1.43.15.2.37.34.55.51.04.03.06.09.08.14.17.62.39,1.21.86,1.67.27.26.54.53.78.81.3.35.52.79,1.07.79.02,0,.05.02.06.04.26.32.58.58.74,1.01.19.52.3,1.05.37,1.59.09.72,0,1.19-.94,1.22-.38.01-.76.04-1.14.07-.09.04-.18.06-.27.06-.16,0-.31,0-.47,0-.22.02-.44.03-.66.05-.18.01-.28-.03-.35-.11-.41-.06-.81-.17-1.16-.39-.33-.22-.57-.51-.72-.85-.05-.04-.09-.07-.13-.1.04-.03.06-.05.08-.07-.03-.09-.07-.18-.09-.27,0,.03-.02.06-.03.11-.07-.17-.12-.32-.19-.44-.12-.21-.26-.42-.38-.63-.42-.49-.91-.99-1.44-1.19.08.15.16.31.23.46.32.7.6,1.41.9,2.12.06.15.1.3.14.41.31.28.61.54.88.82.27.28.51.59.77.9-.33,0-.67-.03-1,0-1.44.14-2.81.53-4.11,1.16-.33.16-.75.2-1.13.21-.25,0-.63.11-.67-.36,0-.06-.1-.11-.15-.17-.01-.01,0-.04,0-.09.07.02.13.04.21.07-.36-.59-.92-.86-1.32-.61.43.18.63.53.74.97h-1.41c-.07-.28-.13-.53-.2-.79-.1.02-.18.04-.34.07.09-.17.14-.27.22-.43-.13.05-.21.07-.28.1-.08-.07-.18-.15-.26-.25-.04-.05-.06-.13-.07-.2,0-.07.03-.15,0-.21-.06-.16-.16-.31-.23-.47-.14-.34-.24-.7-.41-1.03-.31-.58-.65-1.13-.99-1.7-.11-.19-.12-.18-.35-.03.08.05.15.09.18.12.01.18,0,.34.04.49.08.3.17.6.28.9.13.33.2.68.34,1.01.15.36.46.62.53,1.01,0,.04.06.1.1.11.22.07.12.18.05.26.18.24.36.46.52.69.02.03,0,.09.01.13.1.22.17.48.33.65.32.33.69.6,1.01.87-.13.13-.24.23-.35.33-.1.09-.2.2-.31.28-.16.13-.32.25-.49.35-.14.08-.3.15-.45.2-.07.02-.16,0-.25-.01,0,.01,0,.03,0,.04.04,0,.08.02.16.04-.53.21-1,.46-1.51.59-.65.16-1.32.23-1.99.33-.18.03-.44.07-.53-.03-.23-.23-.49-.22-.77-.23-.12,0-.24-.03-.35-.08-.29-.13-.57-.28-.86-.43-.02,0-.03-.02-.05-.03-.18-.05-.37-.1-.55-.15-.19-.05-.38-.09-.57-.14-.11.06-.23.11-.35.11-.09,0-.17.01-.26.02-.02,0-.13.02-.17.02-.15.02-.3.05-.44.09-.14.04-.28.08-.42.13-.03,0-.27.11-.12.05-.08.04-.16.07-.23.11-.6.3-1.19.61-1.86.71,0,0-.01,0-.02.01-.16.13-.31.29-.56.21-.06-.02-.15.03-.2.07-.13.1-.24.22-.38.31-.19.12-.45.18-.59.34-.13.16-.24.18-.41.16-.03,0-.06.01-.11.03.07.06.11.09.19.16-.16,0-.27-.02-.38,0-.32.08-.63.18-.94.26-.21.06-.45.06-.64.17-.32.18-.63.06-.94.06-.21,0-.42-.03-.63-.05-.41-.04-.82-.07-1.23-.11-.12-.01-.25-.12-.35-.09-.42.1-.77-.11-1.14-.21-.36-.1-.7-.27-1.05-.41-.35-.13-.7-.26-1.04-.39-.02,0-.03-.04-.03-.03.04-.02.08-.05.13-.07-.95-.41-1.84-.98-2.74-1.5-.1-.02-.2-.05-.3-.08-.05-.01-.12-.07-.12-.07.02-.03.02-.06.02-.08-.01,0-.03-.02-.04-.02-.11-.06-.22-.13-.33-.19-.17-.07-.32-.16-.45-.3-.29-.21-.55-.45-.74-.75-.35-.54-.34-1.15-.12-1.72-.03-.12-.02-.26.04-.41.07-.19.06-.41.08-.62.02-.03.09-.08.1-.15.07-.38.13-.77.2-1.15.05-.26.11-.53.17-.82-.04-.03-.11-.09-.16-.13.1-.1.23-.17.25-.26.09-.5.15-1,.22-1.5.02-.15.05-.3.07-.45.04-.28.04-.56.11-.83.05-.17.07-.29-.08-.39.09-.11.21-.21.24-.32.16-.54.31-1.09.44-1.64.07-.32.09-.66.15-.99.06-.29.16-.58.21-.87.09-.54.12-1.09.25-1.63.06-.28-.08-.6.18-.84,0,0-.04-.07-.05-.11-.02-.06-.05-.13-.03-.18.11-.25.13-.5.08-.76,0-.03.02-.06.03-.09.06.02.11.04.2.07-.05-.09-.08-.17-.11-.17-.24-.01-.16-.18-.15-.3,0-.18.04-.37.06-.59.04-.02.14-.06.2-.09,0-.28-.01-.54,0-.79.02-.32.08-.63.11-.95.04-.39.06-.78.1-1.17.07-.63.15-1.26.21-1.88.01-.12-.04-.24-.06-.36,0,0,.05,0,.1-.02-.07-.22-.42-.44-.56-.33-.29.22.05.39.08.56-.11.1-.29.18-.28.26.01.27-.02.51-.08.78-.1.46-.14.94-.19,1.41-.04.43-.07.85-.1,1.28,0,.08.06.17.09.25.03,0,.06,0,.09,0-.06.07-.12.14-.16.21-.05.08-.1.17-.13.26-.01.04.04.11.03.15-.1.47-.24.94-.32,1.42-.05.28-.2.58,0,.86.01.02.02.04.03.07-.06.02-.12.04-.17.06.02.01.05.02.07.03-.03.13-.06.25-.08.38-.07.57-.13,1.13-.21,1.7-.12.79-.26,1.58-.38,2.37-.03.17,0,.35,0,.53-.29.87-.43,1.79-.67,2.69-.01.05.05.12.08.18-.02,0-.04-.02-.06-.03-.06.19-.13.37-.18.56-.05.18-.08.36-.11.54-.03.19-.04.38-.06.62-.17.09-.19.22-.08.34-.05.4-.1.75-.15,1.13.22-.07.4-.13.58-.19.09.45-.4.18-.44.44.16.05.4.02.33.27-.05.19-.24.15-.4.1-.05-.01-.11.03-.17.05,0,.02,0,.04,0,.06.13.03.25.07.38.1,0,.02-.01.04-.02.07-.03,0-.07,0-.1,0-.27-.06-.31-.02-.33.28,0,.06-.04.16-.08.18-.16.07-.3.16-.42.27-.06.69-.19,1.38-.51,2-.34.66-.91,1.12-1.57,1.41-.07.16-.14.31-.19.42-.26-.03-.47-.07-.69-.07-.07,0-.14.12-.22.14-.58.12-1.16.22-1.75.32-.09.01-.19-.04-.28-.06-.06-.01-.12-.02-.18-.02-.41.05-.82.11-1.24.15-.08,0-.17-.03-.25-.07-.38-.17-.77-.34-1.15-.53-.24-.12-.46-.28-.66-.46-.38-.32-.74-.65-1.1-.98-.11-.1-.22-.19-.34-.29.2-.08.46-.09.38-.36-.06-.2.04-.32.11-.46.05-.11.03-.23-.05-.29-.14.11-.28.21-.43.31-.45.29-.95.57-1.47.71-.29.08-.62.12-.91.03-.04-.01-.07-.03-.11-.05-.19,0-.38,0-.57,0-.13,0-.29,0-.39-.06-.44-.28-.94-.35-1.42-.46-.08-.02-.19-.01-.25-.06-.34-.31-.78-.53-.98-.99-.07-.17-.11-.36-.23-.5-.22-.26-.07-.43.1-.61.33-.35.67-.7.98-1.08.26-.33.22-.64-.07-.9.02-.03.04-.05.06-.08.15-.19.46-.26.45-.59,0-.07.14-.14.23-.22,0-.01-.02-.07,0-.11.12-.32.25-.63.38-.94.17-.41.47-.77.51-1.24,0-.03.01-.07.03-.09.36-.34.26-.81.38-1.23-.15.13-.26.28-.35.44-.07.12-.11.26-.18.39-.09.16-.19.32-.28.48.08.04.15.07.18.08-.12.12-.25.22-.33.34-.1.16-.16.34-.24.51-.04.09-.1.16-.14.25-.09.21-.17.43-.25.65-.03,0-.06-.01-.08-.02.04.04.07.08.11.12-.24.28-.47.54-.7.81-.14.17-.32.33-.39.52-.09.26-.18.24-.35.1-.13-.11-.25-.14-.38.03-.12.15-.28.26-.43.38-.29.21-.51.52-.49.83.03.35-.19.51-.36.58-.42.18-.88.31-1.35.07-.15-.08-.33-.08-.53,0-.24.09-.52.04-.79.04-.05,0-.15-.07-.15-.11,0-.25-.18-.37-.36-.47-.47-.27-.96-.53-1.44-.79-.61-.33-1.26-.56-1.94-.66-.67-.09-1.35-.14-2.03-.18-.42-.02-.84,0-1.25-.18-.38-.17-.77-.3-1.11-.43.16-.46.3-.88.45-1.3.04-.11.07-.22.14-.31.3-.42.45-.9.6-1.38.1-.32.17-.64.26-.96.06-.2.15-.39.23-.59.24-.58.46-1.17.74-1.72.42-.82.88-1.61,1.33-2.41.29-.52.58-1.03.87-1.55.39-.68.77-1.36,1.17-2.03.45-.74.97-1.44,1.37-2.21.68-1.34,1.28-2.73,1.93-4.08.23-.48.51-.93.76-1.4.07-.13.12-.28.18-.42-.02-.01-.05-.03-.07-.04.07-.06.16-.12.21-.19.36-.65.7-1.3,1.05-1.95.3-.55.6-1.11.89-1.67.15-.28.27-.58.43-.85.14-.25.33-.47.46-.73.28-.55.53-1.12.8-1.68.21-.43.46-.84.67-1.28.46-.93,1.02-1.82,1.31-2.83.15-.52.4-1,.59-1.51.31-.8.61-1.61.91-2.42.42-1.13.85-2.26,1.26-3.4.34-.96.65-1.93.98-2.89.19-.55.41-1.08.61-1.63.25-.67.5-1.34.74-2.01.2-.56.36-1.14.59-1.68.38-.88.81-1.73,1.23-2.59.24-.49.5-.97.76-1.44.08-.14.18-.27.27-.4.14-.2.32-.39.43-.61.09-.18.29-.33.53-.27-.15.26-.3.51-.43.78-.43.87-.88,1.73-1.28,2.61-.23.49-.36,1.02-.58,1.5-.37.78-.73,1.57-.83,2.44-.03.22-.03.45-.1.65-.1.3-.26.59-.39.88-.27.6-.41,1.23-.54,1.87-.02.1,0,.22,0,.34-.03.03-.09.08-.14.12.16.02.3.04.45.05q-.03.51-.47.55c0-.06-.01-.11-.02-.17-.07.47-.13.93-.3,1.36-.04.12-.07.25-.13.37-.09.2-.21.4-.28.61-.09.27-.14.56-.23.83-.15.45-.31.89-.48,1.33-.11.27-.02.58-.2.84-.18.26-.31.55-.45.83-.18.39-.34.79-.5,1.19-.05.12-.07.25-.12.37-.04.11-.13.32-.14.32-.34-.11-.09.32-.29.31.23.22-.08.18-.13.27,0,.01,0,.03-.01.05.06.01.13.02.15.03-.59,1.3-1.13,2.6-1.49,3.96.09.01.16.02.25.04-.16.16-.34.27-.4.42-.17.41-.28.85-.44,1.27-.28.76-.56,1.51-.86,2.26-.2.51-.45,1.01-.65,1.52-.27.7-.53,1.4-.77,2.11-.04.11.05.28,0,.37-.12.23-.25.43-.32.7-.12.49-.33.96-.51,1.43-.08.19-.2.36-.28.55-.07.17-.11.35-.17.54-.09.13-.23.29-.33.47-.17.32-.31.65-.49.96-.16.3-.23.66-.5.9-.01.01-.03.03-.03.04-.16.37-.33.74-.49,1.12.05-.02.11-.03.18-.05-.5.59-.58,1.31-.84,1.95.25-.43.5-.85.71-1.3.25-.54.46-1.1.71-1.65.27-.59.57-1.16.87-1.74.15-.3.33-.58.48-.88.11-.22.19-.45.28-.67.09-.2.41-.29.27-.59-.01-.03.04-.09.07-.14.21-.47.41-.95.63-1.42.06-.13.14-.25.22-.37.08-.12.19-.22.25-.34.13-.24.24-.49.35-.74.25-.52.5-1.03.74-1.55.28-.63.53-1.28.81-1.91.34-.77.7-1.54,1.03-2.32.38-.91.74-1.83,1.24-2.68.26-.45.44-.95.51-1.48.05-.43.13-.86.27-1.26.24-.68.53-1.35.8-2.02.09-.23.16-.46.23-.69.06-.2.13-.4.19-.6.07-.24.14-.49.21-.73.04-.12.07-.25.12-.36.1-.23.27-.45.32-.69.15-.74.43-1.42.7-2.12.15-.38.3-.76.45-1.13.06-.15.1-.31.17-.47.07-.17.17-.32.23-.49.13-.38.23-.77.37-1.14.13-.36.3-.71.45-1.06.09-.22.18-.44.27-.66.16-.39.33-.77.48-1.16.2-.52.38-1.05.57-1.58.09-.26.18-.53.26-.79-.08-.05-.15-.1-.15-.11.11-.1.25-.17.3-.28.13-.34.22-.69.32-1.04.12-.44.22-.88.37-1.31.22-.62.51-1.22.72-1.84.28-.82.55-1.64,1.02-2.37.52-.81.91-1.69,1.61-2.39.4-.4.74-.86,1.11-1.29.03-.03.07-.04.11-.07-.18.44-.4.85-.59,1.27-.12.27-.23.55-.3.83-.08.32-.13.64-.26.96-.16.37-.24.77-.38,1.15-.24.68-.5,1.36-.75,2.04-.07.19-.11.38-.16.57.24.08.36.02.43-.2.06-.18.15-.37.27-.52.13-.15,0-.38.22-.51.05-.03.18-.29,0-.44,0,0,0-.03.02-.06.05.01.11.02.13.02.07-.16.17-.29.19-.43.04-.31.22-.56.31-.86.11-.36.25-.7.37-1.05.09-.26.13-.54.24-.8.25-.57.53-1.12.8-1.67.03-.06.13-.13.18-.12.68.1,1.36.21,2.04.31.17.03.2.1.17.25-.07.28-.05.61-.41.73-.02,0-.03.05-.04.08,0-.03-.01-.05-.02-.08-.1,0-.21-.03-.29,0-.1.05-.18.16-.27.25-.81.77-1.21,1.78-1.65,2.77-.24.55-.39,1.14-.59,1.71-.23.67-.46,1.33-.69,1.99-.13.36-.25.72-.38,1.08-.18.54-.39,1.07-.54,1.61-.21.76-.36,1.53-.56,2.29-.29,1.07-.59,2.13-.91,3.19-.12.4-.3.77-.43,1.16-.22.65-.42,1.31-.64,1.95-.09.25-.25.48-.32.74-.11.48-.03,1-.34,1.43-.01.02,0,.05,0,.08.12.42-.04.79-.17,1.17-.11.34-.49.64-.13,1.05-.14.06-.24.11-.29.13-.05.27-.06.49-.12.71-.31,1.06-.63,2.11-.94,3.17-.2.66-.39,1.33-.58,2-.02.06.03.13.05.21-.09.03-.16.05-.18.05.02.13.06.24.04.34-.07.33-.16.66-.23.99-.03.12-.04.24-.06.36-.03.18-.05.37-.09.55-.04.2-.09.4-.15.59-.08.28-.18.56-.26.84-.05.2-.08.4-.11.6-.03.19-.03.38-.05.66.12-.09.21-.11.23-.16.06-.15.09-.31.14-.47.13-.42.26-.83.39-1.25.09-.3.18-.6.27-.9.05-.15.11-.3.15-.45.07-.25.13-.51.2-.76.08-.27.18-.53.26-.8.12-.38.23-.76.34-1.14.09-.3.24-.6.27-.91.04-.36.07-.71.17-1.05.06-.21.15-.42.23-.67,0-.03-.07-.13-.05-.21.07-.24.16-.47.25-.7.14-.38.29-.75.42-1.13.19-.59.34-1.18.52-1.77.18-.56.39-1.1.57-1.66.03-.1.02-.22.06-.32.09-.26.21-.51.29-.77.11-.36.18-.74.29-1.1.06-.21.17-.42.25-.63.14-.38.26-.76.41-1.13.15-.4.34-.78.48-1.18.11-.3.16-.61.27-.91.17-.48.37-.94.54-1.42.21-.57.41-1.14.6-1.71.07-.21.18-.44.14-.63-.05-.28.09-.48.15-.71.14-.53.31-1.06.48-1.58.27-.84.53-1.68.82-2.51.18-.52.44-1.02.62-1.54.27-.75.59-1.47,1.04-2.1-.17.84-.53,1.69-.34,2.59-.1.12-.19.25-.22.39-.14.67-.22,1.35-.21,2.03,0,.14-.02.38-.08.4-.2.06-.12.19-.12.29,0,.13.03.26,0,.38-.06.27-.14.55-.22.81-.07.21-.16.41-.23.62-.09.27-.19.54-.25.82-.07.31-.09.63-.17.93-.06.26-.2.51-.26.78-.13.54-.22,1.08-.34,1.62-.2.84-.43,1.68-.6,2.53-.17.81-.27,1.64-.42,2.45-.18,1.02-.4,2.04-.53,3.07-.11.88-.15,1.77-.35,2.64-.07.33-.14.67-.13,1,.01.3.08.56-.3.6.03.1.07.18.06.24-.05.29-.13.58-.18.87-.01.06.05.14.08.2-.06.07-.11.14-.18.22.19.03.34.06.48.08,0,.02,0,.04,0,.06h-.4c-.02.25-.01.48-.06.7-.07.33.05.67-.1,1-.02.03.09.12.16.2-.04.21-.19.43-.43.59-.03.02-.02.08-.03.13-.04.18-.08.36-.11.54.23.16.22.23-.04.54.25.12-.04.13-.05.21.03.04.07.09.1.13-.08.09-.14.24-.11.26.25.15-.03.18-.06.27.16.15.17.27-.05.31.03.12.09.23.08.34,0,.08-.1.15-.11.23-.05.31-.09.62-.12.94,0,.05.03.11.05.15.15-.03.27-.06.45-.09.07-.38.15-.79.22-1.21.08-.49.15-.98.23-1.47.06-.31.16-.62.21-.93.23-1.21.46-2.43.67-3.65.07-.37.09-.75.16-1.12.07-.37.18-.74.24-1.11.08-.48.12-.96.19-1.44.16-1.02.36-2.03.51-3.05.09-.6.28-1.18.36-1.78.04-.3.17-.59.13-.9,0-.03.02-.06.03-.1.05-.17.09-.34.15-.57.02-.02.15-.08.18-.17.09-.3.15-.61.22-.92.02-.09.04-.18.07-.28.06-.2.21-.43.16-.59-.1-.28.05-.51.07-.75.05-.49.21-.97.32-1.46.16-.68.31-1.35.46-2.03.15-.67.28-1.34.42-2.02.2-1.04.39-2.08.6-3.12.09-.47.21-.94.3-1.41.08-.4.13-.81.2-1.22.08-.46.45-.81.5-1.3.05-.48.25-.94.34-1.42.04-.19.09-.26.29-.25.52.03,1.04.04,1.55.08.05,0,.15.12.14.18-.04.34-.09.68-.15,1.02-.16.88-.34,1.75-.5,2.63-.11.59-.21,1.18-.27,1.78-.06.58-.09,1.16-.12,1.74-.03.58-.04,1.17-.05,1.76-.02.86-.14,1.73.06,2.58.02.06-.03.15-.05.22-.02.04-.07.08-.07.13-.01.68-.02,1.37-.02,2.05,0,.36.01.72,0,1.07-.01.38-.07.76-.08,1.14,0,.28.07.55.07.83,0,.39-.09.79-.05,1.17.03.27-.18.58.1.82.01.01-.05.1-.08.16-.04.1-.12.2-.12.3-.01.41,0,.82,0,1.23,0,.13.05.27.01.39-.09.3.06.43.34.55.05-.42.1-.82.15-1.21-.06-.03-.1-.05-.15-.07.07-.06.17-.1.18-.15.03-.43.06-.86.07-1.29.01-.44.02-.88,0-1.32,0-.17-.06-.34-.1-.52.03-.06.14-.16.13-.25-.02-.26-.06-.5,0-.77.07-.3.04-.63.07-.94.06-.82.14-1.64.2-2.46.04-.65.04-1.3.08-1.95.02-.42.08-.84.14-1.26.02-.12-.08-.23.04-.37.08-.09.09-.34.02-.43-.16-.19-.05-.3.05-.43-.03-.06-.08-.12-.08-.19-.02-.25.09-.49.08-.75-.01-.21.05-.42.06-.64.01-.22,0-.45,0-.67,0-.06.06-.13.05-.18-.1-.28.03-.54.05-.81.03-.46.15-.92.2-1.38.06-.59.08-1.18.13-1.77.05-.53.1-1.06.18-1.59.02-.14.12-.26.19-.4.11.02.24.04.36.07.06-.08.14-.16.22-.2.15-.09.39-.13.55-.07.1.03.2.05.3.07.57.05,1.14-.05,1.7,0,.2.02.36.07.51.21,0,0,0,.02.02.02.12.01.24.02.36.03.09,0,.2,0,.28-.03.21-.1.4-.22.6-.32.03-.02.09,0,.13.01.64.18,1.29,0,1.92-.04.51-.03.95-.35,1.47-.39.24-.02.45-.11.69.02.15.09.36.07.21.34-.03.04,0,.12.02.18.1.34.2.69.31,1.03.21.62.43,1.23.65,1.84.19.51.39,1.02.57,1.54.17.5.32,1.01.48,1.51.2.63.42,1.26.61,1.89.16.54.27,1.1.43,1.65.2.71.42,1.42.66,2.11.06.17-.01.33.08.52.16.32.48.62.33,1.05-.01.03.02.08.03.12.15.44.31.88.46,1.33.1.29.12.64.55.66,0,0,.02.03.01.03-.09.13-.18.26-.27.39.12.08.25.15.37.23-.12.21-.1.39.09.46.02-.08.05-.17.07-.25.02-.12.07-.26.02-.35-.12-.23-.14-.45-.05-.66-.11-.1-.27-.18-.32-.3-.11-.28-.17-.57-.24-.86-.06-.25-.11-.51-.18-.76-.07-.26-.19-.51-.25-.77-.1-.42-.14-.86-.37-1.25-.02-.04,0-.1,0-.15,0-.05.02-.1,0-.14-.09-.29-.19-.57-.28-.86.03-.01.05-.02.08-.03-.06-.04-.13-.08-.21-.13.07-.09.18-.18.17-.23-.08-.21-.05-.46-.12-.61-.18-.39-.22-.8-.32-1.21-.09-.34-.16-.68-.26-1.02-.08-.27-.19-.53-.29-.79-.37-1.06-.73-2.13-1.11-3.19-.12-.33-.28-.64-.43-.96,0-.02-.02-.06,0-.07.21-.22-.05-.27-.14-.34-.31-.25-.37-.51-.16-.88.03.03.07.05.09.09.18.27.35.55.53.82.01.02.04.05.04.07-.07.37.27.5.45.68.31.31.42.69.53,1.08.05.2.08.4.12.6.01,0,.02,0,.03-.01.01-.07.02-.15.03-.22h.07c.11.24.21.49.35.72.24.39.52.75.75,1.14.35.61.67,1.24,1,1.86.06.11.17.23.05.37-.01.02.02.11.03.11.34.06.38.37.5.6.42.77.81,1.55,1.22,2.32.13.24.19.5.38.73.25.29.39.69.54,1.05.23.52.43,1.05.64,1.58.24.6.48,1.2.71,1.8.19.48.38.96.54,1.45.25.78.6,1.53.79,2.34.09.39.21.8.37,1.18.04.1.17.2.16.29-.05.44.18.79.31,1.18.08.23.13.46.29.65.03.03.04.11.03.15-.11.3.13.46.24.65-.03.11-.07.21-.1.31h.07c.05.11.14.24.14.37,0,.19,0,.35.15.51.12.14.16.34.24.51.12.25.12.58.42.73.04.02.07.08.08.13.1.38.19.75.28,1.13.09.38.13.77.25,1.14.17.52.4,1.03.61,1.54.13.32.28.64.43.96.36.74.68,1.5.82,2.32.04.22.15.35.34.37.17.02.21.12.25.25.1.32.17.66.3.97.25.6.55,1.18.81,1.78.42.92.83,1.84,1.24,2.77.36.82.7,1.64,1.04,2.46.19.45.36.91.56,1.36.32.74.64,1.49.98,2.23.37.77.76,1.53,1.15,2.29.29.55.6,1.1.89,1.65.17.31.32.63.48.95.21.42.43.84.64,1.27.24.47.48.94.73,1.41.22.42.48.83.69,1.26.33.68.63,1.37.97,2.05.14.28.18.59.43.84.1.1.12.32.3.41.03.02.04.07.05.11.25.78.38,1.63,1.19,2.09.1-.07.27-.55.21-.63ZM56.48,69.6s.06-.02.09-.03c.06.14.12.29.2.5-.25-.15-.34-.28-.29-.47ZM60.45,78.78c.22.12.41.23.66.36-.46.05-.5.03-.66-.36ZM65.5,104.85s.01.04.02.07c-.41.12-.82.25-1.24.37,0-.02-.01-.04-.02-.07.38-.22.8-.32,1.24-.38ZM61.17,105.79s.04.05.06.07c-.06.09-.12.19-.2.32-.09-.1-.13-.15-.21-.24.13-.06.24-.1.34-.14ZM31.39,101.9c-.08-.13-.13-.22-.19-.32.14-.01.28-.03.43-.04-.08.13-.15.23-.24.36ZM9.53,103.29c.07,0,.12.12.17.18-.01.02-.02.05-.04.07-.15-.02-.29-.04-.44-.06l-.02-.13c.11-.03.21-.08.32-.07ZM18.85,70.24c.15-.44.27-.82.4-1.2.1.18-.19,1.09-.4,1.2ZM25.73,47.77q.54-.72.69-.73c-.31.77-.42.88-.69.73ZM33.59,43.73h-.07s-.28-.6-.28-.6c.02-.02.03-.04.05-.07.1.02.29.03.29.07.03.2.01.4.01.6ZM29.12,19.95c-.02-.06,0-.14,0-.21,0-.04.01-.1,0-.12-.31-.24-.18-.62-.32-.91-.1-.21-.21-.4-.28-.62-.06-.17-.16-.42-.08-.54.14-.22.08-.29-.14-.39.42.18.52-.22.75-.35.08-.05.18-.06.28-.08.09-.02.2,0,.28-.04.53-.27,1.04-.57,1.57-.83.47-.24.97-.43,1.44-.68.43-.24.83-.53,1.25-.79.61-.39,1.2-.81,1.72-1.32.4-.4.8-.8,1.21-1.18.16-.15.36-.28.54-.41.06-.05.13-.09.18-.15.17-.21.33-.43.65-.3.02,0,.06,0,.07-.02.2-.23.46-.2.74-.23.54-.06.9.2,1.24.53.27.26.5.55.76.81.35.34.69.69,1.09.97.77.54,1.56,1.07,2.38,1.54.6.34,1.25.59,1.88.88.41.19.82.38,1.23.56.05.02.12.05.18.04.54-.08.92.33,1.39.45.03,0,.07.08.07.13,0,.08,0,.19-.05.25-.64.9-.7,1.99-.95,3.01-.13.51-.1,1.07-.18,1.59-.09.59-.23,1.17-.36,1.75-.02.08-.08.15-.12.23-.5-.32-.99-.18-1.48-.04-.09.03-.2,0-.29.04-.18.06-.37.13-.54.21-.35.17-.7.36-1.05.54-.14.07-.3.13-.42.23-.44.35-.87.72-1.32,1.05-.29.22-.62.39-.92.6-.05.04-.08.12-.12.18-.05.08-.08.2-.15.23-.5.21-.63.71-.87,1.12-.13.22-.29.41-.43.62-.1.16-.26.26-.26.51,0,.21-.18.42-.28.63-.15.31-.3.62-.57.87-.14.13-.18.38-.26.58-.02.05-.04.14-.07.15-.27.07-.3.25-.25.5-.03,0-.05,0-.08.01-.17-.41-.34-.83-.52-1.24-.06-.14-.17-.26-.23-.41-.25-.65-.71-1.17-1.12-1.71-.09-.12-.21-.24-.43-.19-.1.02-.27-.12-.35-.23-.16-.21-.28-.46-.43-.69-.3-.46-.72-.79-1.19-1.07-.13-.08-.2-.27-.32-.36-.32-.23-.64-.45-.98-.66-.1-.06-.24-.06-.3-.07-.07-.09-.1-.18-.16-.2-.2-.08-.44-.08-.59-.2-.23-.18-.48-.17-.73-.21-.15-.02-.34.15-.48.12-.18-.04-.34-.1-.5.03-.04.03-.11.03-.21.06-.02-.22-.05-.41-.04-.61.01-.42.05-.83.07-1.25,0-.11-.03-.22-.05-.33-.08-.55-.14-1.1-.24-1.65-.04-.24-.15-.48-.22-.72ZM38.92,37.21c-.02.1-.05.17-.09.23-.04.45-.19.88-.58,1.17-.2.15-.44.24-.69.29,0,0,.01,0,.02,0,.12.05.27.04.46.07-.7.19-1.36.14-2.01.13-.37,0-.73-.07-1.07-.18-.82-.01-1.65-.07-2.38-.34-.21-.08-.4-.19-.57-.31-.34-.09-.66-.26-.92-.57-.06-.07-.08-.26-.05-.28.19-.13.05-.23,0-.35-.13-.34-.29-.67-.33-1.03,0-.01,0-.02,0-.03-.04-.16-.07-.32-.1-.47-.03,0-.05-.02-.08-.03-.03.09-.06.18-.09.27-.03-.02-.06-.05-.08-.07.03-.16.11-.32.19-.47-.08-.36-.15-.72-.25-1.08-.2-.71-.43-1.4-.61-2.12-.24-.94-.37-1.89-.29-2.83,0-.02-.02-.03-.03-.05-.09-.2-.08-.47-.04-.7.11-.59.25-1.18.4-1.76.07-.28.21-.55.27-.83.09-.41.42-.5.74-.63.1-.04.21-.08.32-.13.1.02.23.09.35.07.3-.05.44.15.61.32.13.13.28.23.42.35.05.04.08.1.13.15.11.11.23.21.34.32.14.14.27.3.41.45.1.12.21.23.3.34,2.36.91,3.81,3.52,3.9,5.99.22.24.08.68.4.87.02.01-.01.11,0,.17.03.19.05.39.11.57.07.22.18.44.27.65.17.39.34.77.5,1.17.09.21.18.4.13.67ZM46.77,36.67c-.04.08-.16.11-.22.18-.02.03-.05.05-.07.08,0,.23-.11.46-.39.54-.49.15-1,.25-1.51.27-.37.01-.73-.03-1.1-.04-.64-.02-1.27-.02-1.9-.11-.56-.08-1.17-.26-1.55-.7-.46-.53-.6-1.43-.71-2.1-.13-.8-.18-1.62.03-2.41.02-.07.05-.13.09-.18.03-.12.06-.25.09-.37.1-.33.22-.65.33-.98.19-.56.37-1.13.57-1.69.24-.7.65-1.29,1.2-1.79.04-.04.08-.07.12-.11.09-.1.18-.2.27-.29.35-1.1,1.57-1.79,2.57-2.2.82-.34,1.96-.74,2.81-.28.85.46,1.07,1.51,1.14,2.4.09,1.37-.09,2.73-.45,4.05-.02.33-.04.66-.02.98.04.53-.06,1.04-.2,1.54-.2.75-.39,1.51-.63,2.25-.1.33-.29.64-.46.95Z"/>
      <path class="cls-1" d="M51.53,76.95c-.16.08-.32.15-.55.26v-.74s-.16-.05-.23-.08c0-.15.01-.27,0-.39-.05-.35-.06-.72-.19-1.04-.09-.22-.1-.44-.13-.66-.07-.46-.16-.91-.23-1.36-.03-.17,0-.34-.06-.5-.16-.53-.23-1.06-.26-1.61-.01-.26-.13-.51-.18-.77-.1-.5-.18-1-.26-1.51-.05-.29-.01-.58-.17-.86-.08-.14-.08-.29.03-.47.06-.1.01-.38-.08-.44-.19-.13-.25-.35-.29-.49-.17-.51-.25-1.05-.34-1.59-.08-.47-.13-.94-.19-1.42-.03-.19-.04-.39-.06-.58-.02-.11-.05-.22-.08-.33-.02-.06-.07-.16-.04-.18.22-.23.02-.48.06-.72.03-.19-.04-.39-.07-.58-.04-.26-.06-.52-.11-.78-.16-.84-.33-1.67-.5-2.51-.06-.28-.18-.54-.24-.82-.07-.33-.13-.66-.15-.99-.03-.54-.27-1.03-.4-1.54-.03-.11-.05-.22-.07-.33-.1-.47-.21-.93-.3-1.4-.03-.17-.04-.34-.06-.52-.03-.26-.12-.49-.24-.72-.11-.22-.11-.49-.18-.74-.13-.45-.3-.9-.42-1.35-.28-1.02-.71-2-.9-3.05-.15-.87-.38-1.73-.57-2.59-.04-.2-.03-.41-.06-.6-.04-.22.05-.35.31-.47.1.31.22.6.3.89.15.57.28,1.15.44,1.72.05.19.16.37.22.57.07.23.06.48.21.7.02.03-.1.15-.23.27l.35.43s-.06.07.11.21c.13.11.11.39.16.59.04.17.07.34.1.53.19.03.28.16.23.41,0,.05,0,.1,0,.15.04.18.08.37.13.55.11.39.24.77.35,1.15.07.23.18.47.16.69-.04.34.18.59.18.92,0,.32.12.65.2.97.02.1.08.18.13.29h-.16s0,.04,0,.05c.13.36.26.73.39,1.09.1.27.21.54.29.82.04.14.02.3.03.45,0,.02-.02.06,0,.07.22.26.18.61.29.91.02.04.04.1.08.12.16.1.2.21.06.34.11.23.28.4.18.69-.05.16.01.4.09.57.18.39.21.82.31,1.23.11.42.15.85.22,1.28.1.63.28,1.26.27,1.89,0,.33.02.65.08.96.06.33.12.67.17,1,.05.35.09.71.13,1.06.03.2.07.39.08.59.02.19.01.37.02.56,0,.05-.02.1,0,.15.02.12.08.23.09.34.04.41.03.41.34.65-.18.02-.36.03-.57.05.08.21.03.45.24.63.08.07.1.23.13.36.06.24.1.47.16.73-.06-.04-.11-.07-.21-.14.05.23.09.41.14.59.1.3.22.59.31.9.1.36.19.73.25,1.1.06.37.07.75.12,1.12.02.14.1.27.16.41-.08.14-.18.3-.29.49.14.01.27.03.36.04.07.32.15.63.21.95.06.32.03.65.23.95-.03.01-.07.04-.15.08.11.08.29.15.08.28.02.02.05.04.07.07h0Z"/>
      <path class="cls-1" d="M51.53,76.95c.05.09.13.17.16.26.02.08-.02.17-.04.27.14.03.3.08.11.3-.02.02.03.1.06.15.05.08.1.16.17.26-.09.03-.17.05-.28.09.07.05.13.08.16.12.1.17.2.35.28.53.16.42.31.84.45,1.26.06.19.09.39.12.59,0,.02,0,.06-.02.07-.33.18-.04.39,0,.56.05.24.22.45.31.68.06.15.07.32.1.47,0,.03,0,.07.01.1.15.37.31.74.46,1.11.03.06,0,.15,0,.22,0,.07-.03.14,0,.2.11.28.17.56.13.85,0,.03,0,.05,0,.08.11.31.25.61.32.93.09.4.13.81.17,1.22,0,.04-.06.09-.02.14.01.1.03.2.04.3,0,.08,0,.16,0,.25,0,.08.02.16.02.25,0,.03-.04.09-.03.1.3.24-.07.7.31.91.02,0,.02.07.01.1-.05.51.07.99.22,1.47,0,.03.02.06.01.08-.13.35.08.67.05,1.02-.02.17.09.34.12.52.02.12,0,.24-.04.36.04.09.1.18.11.27.02.24-.03.5.23.66.03.02.03.09.04.14.03.27.06.54.08.82,0,.07-.04.15,0,.21.26,1.26.52,2.52.78,3.81.27.05.25.32.31.61-.15-.11-.14-.44-.38-.22-.05.05-.02.19-.02.3-.04-.02-.15-.06-.18-.13-.09-.25-.15-.51-.23-.77-.07-.26-.16-.52-.22-.78-.08-.31-.15-.63-.22-.95-.11-.52-.21-1.04-.32-1.55-.11-.51-.22-1.01-.33-1.52-.12-.57-.23-1.14-.33-1.71-.03-.18-.03-.38-.06-.56-.13-.83-.27-1.65-.41-2.48-.08-.5-.16-1-.27-1.49-.17-.73-.27-1.5-.58-2.17-.38-.84-.4-1.73-.66-2.59-.08-.28-.08-.57-.15-.85-.06-.23-.19-.44-.24-.67-.09-.44-.14-.89-.22-1.33-.03-.15-.08-.3-.12-.46.13-.03.22-.04.33-.07-.03-.05-.04-.08-.05-.1-.1-.1-.35.08-.37-.23,0-.14-.23-.25-.12-.45,0-.01-.01-.05-.03-.07-.11-.1-.19-.2-.09-.36.02-.03-.07-.13-.12-.21.07-.03.13-.05.22-.08-.08-.07-.14-.12-.21-.18.15-.22.3-.45.45-.67,0,0,0,0,0,0Z"/>
      <path class="cls-1" d="M33.81,81.31c.18-.03.32-.04.46-.06,0-.02,0-.03,0-.05-.12-.05-.25-.09-.45-.17.19-.04.29-.06.45-.1-.16-.1-.29-.17-.44-.26.09-.03.15-.06.21-.08-.02-.05-.04-.09-.04-.09.09-.15.17-.26.24-.38-.02,0-.03-.01-.05-.02.09-.05.18-.11.32-.19-.12-.05-.2-.08-.29-.12.09-.1.16-.19.28-.33-.12.05-.17.07-.23.09,0-.06-.02-.13,0-.18.12-.23.24-.44-.02-.67-.03-.03.04-.17.07-.26.04-.1.14-.18.14-.28.02-.29-.02-.58,0-.86.04-.39.13-.77.19-1.16.07-.5.12-1,.17-1.51.01-.12.03-.26,0-.37-.09-.24.03-.26.27-.25-.09-.1-.15-.17-.2-.24.33-1.78.29-3.6.54-5.4.05,0,.1,0,.14.01,0-.02,0-.04,0-.05-.03-.1-.1-.2-.09-.3.03-.63.08-1.27.12-1.9.02-.29,0-.58.04-.87.02-.13.11-.26.17-.39.03,0,.05,0,.08,0,.06.13.19.26.18.38-.02.4.11.8-.05,1.22.16.18.09.44.07.67-.04.4-.14.8-.17,1.2-.01.22-.09.46-.06.63.04.3-.01.58,0,.86,0,.49.07.98.05,1.47-.02.43-.1.85-.14,1.28-.06.54-.12,1.08-.15,1.62,0,.11.07.24.1.3-.06.1-.15.18-.17.28-.08.4-.14.8-.19,1.2-.07.56-.13,1.13-.2,1.7-.05.4-.1.81-.14,1.21-.03.29-.02.59-.04.88,0,.07-.07.13-.11.2.16.23-.03.46-.03.7,0,.29-.13.47-.38.43,0,.19-.01.37,0,.55,0,.07.09.13.1.14v.72s-.08.01-.12.02c.28.32-.05.71.2,1.08-.34-.1-.58-.17-.85-.24.06-.04.11-.07.14-.08-.03-.67.18-1.34-.11-1.98Z"/>
      <path class="cls-1" d="M27.61,77.59c-.08-.1-.15-.18-.21-.26.11-.04.21-.08.27-.1,0-.17,0-.31,0-.44,0-.17.13-.23.25-.17.08.03.15.17.15.26-.01.19-.06.38-.13.56-.06.15-.18.28-.28.43.1.06.24.18-.07.28.03.08.05.15.09.25-.08-.03-.12-.04-.15-.06-.16-.12-.1-.51.09-.74Z"/>
      <path class="cls-1" d="M25.86,85.76c.43-.2.4-.56.47-.89.11-.53.25-1.06.37-1.59h.09c.02.13.04.27.06.44-.03.04-.11.13-.15.23-.07.16-.17.33-.16.48.03.32-.22.58-.17.91.04.22-.22.43-.52.43Z"/>
      <path class="cls-1" d="M26.28,87.87c.11-.82.22-1.64.33-2.47.12.85-.06,1.67-.33,2.47Z"/>
      <path class="cls-1" d="M25.29,91.53c-.04-.1-.14-.21-.12-.29.06-.28.17-.55.24-.83.07-.26.23-.28.39-.25-.09.16-.18.33-.26.5.15.07.3.13.49.21,0,0-.05.07-.1.08-.09,0-.18-.02-.26-.04-.21-.06-.27.06-.28.24,0,.12,0,.24,0,.35-.03,0-.06.02-.09.03Z"/>
      <path class="cls-1" d="M25.61,90.07c.16-.81.31-1.61.47-2.42-.01.83-.15,1.64-.39,2.43-.03,0-.05-.01-.08-.02Z"/>
      <path class="cls-1" d="M22.36,78.42c-.19-.08-.29-.14-.12-.33.18-.2.19-.46.17-.72,0-.07.03-.16.07-.23.02-.03.1-.04.14-.02.02,0,.03.09.02.13-.09.38-.18.76-.28,1.17Z"/>
      <path class="cls-1" d="M9.81,90.61c.19-.67.55-1.25.86-1.86.02,0,.04.02.06.03-.28.62-.55,1.24-.84,1.87.04,0,.03,0,.02,0-.04-.01-.08-.03-.11-.04h0Z"/>
      <path class="cls-1" d="M20.07,85.75c.24-.65.47-1.29.71-1.94l.08.03c-.23.65-.46,1.3-.68,1.95-.03-.01-.07-.02-.1-.04Z"/>
      <path class="cls-1" d="M24.18,101.61c.14-.62.28-1.25.41-1.87.03,0,.07.01.1.02-.14.62-.29,1.25-.43,1.87-.03,0-.06-.01-.08-.02Z"/>
      <path class="cls-1" d="M50.48,47.62c.21.36.42.72.66,1.12-.15-.06-.29-.1-.42-.15.02-.01.04-.02.07-.04-.12-.3-.23-.6-.35-.9.01,0,.03-.02.04-.03Z"/>
      <path class="cls-1" d="M9.8,90.6c-.12.55-.34,1.06-.68,1.52,0-.03,0-.07.01-.1.15-.38.3-.76.47-1.14.05-.1.14-.19.21-.28,0,0,0,0,0,0Z"/>
      <path class="cls-1" d="M26.06,90.58c-.13-.16-.07-1.09.09-1.42.02,0,.05,0,.07,0-.05.47-.1.94-.16,1.41Z"/>
      <path class="cls-1" d="M27.1,81.47c-.02.51-.07,1.01-.17,1.5-.03,0-.06,0-.09,0,0-.08-.03-.16-.02-.23.06-.39.14-.78.21-1.16,0-.04.05-.07.07-.1h0Z"/>
      <path class="cls-1" d="M21.1,82.58c.07-.32-.04-.68.32-.89.04.31-.13.81-.32.89Z"/>
      <path class="cls-1" d="M21.58,80.63c.09-.33.16-.6.23-.87.27.28.32.31-.23.87Z"/>
      <path class="cls-1" d="M25.7,94.69c-.08-.05-.16-.09-.22-.12.02-.14.02-.26.06-.37.03-.08.11-.14.17-.21.02.08.07.16.07.23-.01.15-.05.3-.08.47Z"/>
      <path class="cls-1" d="M8.62,93.36c.07-.22.15-.44.22-.66.03,0,.06.02.09.02v.43s-.06,0-.11-.02c.03.09.05.17.07.25-.07.01-.13.03-.2.04-.02-.02-.05-.05-.07-.07Z"/>
      <path class="cls-1" d="M53.1,54.56c-.16-.42-.32-.83-.47-1.25.29.37.45.79.47,1.25Z"/>
      <path class="cls-1" d="M22.56,78.62c-.23.2-.4.36-.59.53.01-.41.15-.56.59-.53Z"/>
      <path class="cls-1" d="M25.59,91.59c.1-.03.19-.09.29-.09.18-.01.23.08.16.25-.05.13-.08.28-.13.46-.07-.23.15-.58-.33-.53v-.08Z"/>
      <path class="cls-1" d="M25.67,93.63c.05-.41.1-.82.14-1.23.03,0,.07,0,.1.01-.06.41-.12.81-.18,1.22-.02,0-.04,0-.07,0Z"/>
      <path class="cls-1" d="M27.28,79.52c.02-.17.04-.35.06-.53h.28c.08.28-.26.33-.33.53Z"/>
      <path class="cls-1" d="M51.3,49.56c-.09-.18-.18-.36-.26-.54.04-.02.08-.04.12-.06.09.18.18.36.27.54-.04.02-.09.04-.13.06Z"/>
      <path class="cls-1" d="M25.85,86.5c-.16.29.13.66-.22.94.05-.34.09-.64.14-.95.03,0,.06,0,.09.01Z"/>
      <path class="cls-1" d="M52.45,58.5c.04-.05.08-.1.16-.21.01.24.02.4.03.58-.36,0-.23-.21-.19-.37,0,0,0,0,0,0Z"/>
      <path class="cls-1" d="M26.59,83.09c-.05.23-.1.47-.14.7-.02,0-.05,0-.07,0v-.5c.06-.07.12-.13.17-.19h.05Z"/>
      <path class="cls-1" d="M26.55,82.88c.08-.31.16-.62.25-.94.01,0,.03,0,.04.01-.07.32-.13.64-.2.95-.03,0-.06-.02-.09-.03Z"/>
      <path class="cls-1" d="M26.17,88.89c.02-.25.05-.51.07-.76.03,0,.06,0,.09.01-.04.25-.07.51-.11.76-.02,0-.04,0-.06,0Z"/>
      <path class="cls-1" d="M27.1,81.48c-.04-.2-.07-.41-.11-.62.27.21.28.24.11.61,0,0,0,0,0,0Z"/>
      <path class="cls-1" d="M21.55,81.01c0-.11.01-.21.03-.31,0-.01.1,0,.16,0-.02.11-.05.22-.07.34-.04,0-.08-.01-.12-.02Z"/>
      <path class="cls-1" d="M25.49,95.14h-.21c.09-.15.17-.28.24-.4.02,0,.04.02.06.03-.03.11-.05.22-.09.38Z"/>
      <path class="cls-1" d="M53.91,56.45c-.09-.2-.19-.4-.28-.59l.08-.04c.09.2.17.4.26.6-.02.01-.04.02-.05.03Z"/>
    </g>
  </g>
</svg>