<?xml version="1.0" encoding="UTF-8"?>
<svg id="Layer_2" data-name="Layer 2" xmlns="http://www.w3.org/2000/svg" viewBox="0 0 63.93 98.44">
  <defs>
    <style>
      .cls-1 {
        fill: #000;
        stroke-width: 0px;
      }
    </style>
  </defs>
  <g id="illustrations">
    <g>
      <path class="cls-1" d="M63.92,10.22c-.05-1.02-.38-1.98-.88-2.87-.02-.04-.03-.1-.04-.15-.02-.14-.04-.27-.07-.41.18,0,.14-.13.06-.26-.26-.4-.54-.78-.77-1.19-.59-1.05-1.21-2.07-2.09-2.89,0,.01-.03.06-.04.08-.14-.15-.22-.27-.33-.36-.69-.56-1.49-.9-2.35-1.13-.3-.08-.61-.17-.91-.27-.2-.06-.39-.16-.6-.21-.42-.11-.84-.22-1.26-.32-.42-.1-.85-.27-1.27-.26-.65.02-1.3.15-1.94.26-.39.06-.77.16-1.16.26-.44.12-.88.26-1.32.4-.1.03-.19.06-.29.1-.26.1-.51.18-.79.06-.27-.11-.35-.06-.54.16-.14.16-.33.3-.53.38-.41.17-.84.29-1.24.45-.57.23-1.04.57-1.25,1.19-.08.24-.2.48-.31.71-.08.17-.16.37-.3.47-.29.21-.45.5-.62.79-.17.27-.29.56-.45.83-.34.58-.71,1.13-1.04,1.72-.42.74-.75,1.53-.86,2.38-.06.49,0,1-.02,1.5-.03.8.15.62-.61.78-.62.13-1.25.16-1.89.01-.41-.09-.85-.14-1.27-.16-.85-.04-1.7-.04-2.55-.05-.37,0-.74-.03-1.11-.02-.24,0-.49.05-.73.06-.16,0-.33-.03-.49-.04-.18-.02-.36-.05-.53-.05-.4,0-.8.02-1.2,0-.44-.02-.88-.08-1.32-.09-1.09-.03-2.18-.06-3.26-.04-.68.01-1.36-.09-2.04.04-.05,0-.1,0-.15-.02-.12-.03-.23-.07-.34-.09-.14-.02-.29-.03-.44-.03-.13,0-.27.03-.43.04.18.2.35.21.6.08.13.05.24.07.34.13.27.14.55.16.85.13.1,0,.21.03.31.05,0,0,0-.01,0-.02h1.22s0-.08,0-.12h-2.08v-.08s.09-.02.14-.02c.6,0,1.2,0,1.8.01.19,0,.38.06.57.1h0c.21.03.42.05.63.09.14.03.27.1.41.11.3.01.59-.02.89-.02.71.01,1.42.04,2.14.06.28,0,.56.01.84.02,0-.03.01-.07.02-.1l-.51-.11s0-.04.01-.06c.05,0,.1,0,.14,0,.34.04.68.07,1.03,0,.08-.02.23-.03.22.08-.16.07-.26.12-.37.16.15.21.32-.03.48.05-.01-.08-.02-.13-.04-.19.13,0,.28-.04.18.17.18.06.36.11.54.17.12-.3.19-.32.52-.25.02.07.03.13.04.19.03,0,.05-.01.08-.02,0-.11,0-.21-.01-.28.11.05.2.12.3.14.11.02.23,0,.35,0,.21.01.42.03.63.05,0,.02,0,.04,0,.06-.07.03-.13.06-.18.07.08.07.16.14.24.19.03.02.11.02.14,0,.19-.15.38-.08.58-.03.21.05.43.07.65.09.2.02.41,0,.6.04.42.09.85.2,1.25.34.44.15.87.06,1.3.04.45-.03.91-.1,1.36-.17.15-.02.21.04.23.17.02.16.03.33.05.49.07.6.08,1.21.24,1.79.2.73.52,1.43.82,2.13.15.35.38.67.58,1.04-.31.06-.6.1-.89.16-.8.18-1.62.26-2.44.26-.74,0-1.49-.02-2.23-.02-.32,0-.63.02-.95.02-.53,0-1.06-.02-1.59-.03-.94,0-1.89,0-2.83-.02-.15,0-.31-.04-.46-.04-.28,0-.57.01-.85,0-.32,0-.64-.05-.96-.06-.28,0-.57.03-.85.02-.4-.01-.8-.07-1.2-.08-.59-.01-1.17,0-1.76-.01-.18,0-.36-.07-.54-.07-.36,0-.71.04-1.07.07-.06,0-.13.05-.17.02-.3-.2-.63-.1-.94-.11-.42,0-.83,0-1.25-.09-.28-.07-.56-.15-.84-.02-.06.03-.13,0-.2,0-.41-.04-.83-.08-1.24-.13-.2-.02-.41-.05-.61-.07-.47-.03-.94-.04-1.4-.09-.8-.08-1.61-.18-2.41-.27-.79-.09-1.58-.17-2.37-.26-.46-.06-.91-.14-1.36-.21-1.16-.17-2.33-.35-3.49-.52-.33-.05-.65-.09-.98-.13-.56-.07-1.13-.12-1.69-.2-.38-.06-.8-.09-1.13-.27-.48-.26-1.04-.39-1.44-.9,1.05-.37,2-.97,3.15-.92.03-.04.06-.08.1-.11-.08-.02-.17-.05-.25-.07.1-.05.19-.04.28-.05.31-.06.63-.13.94-.21.2-.05.39-.15.59-.19.18-.04.38-.15.51.08.09-.05.15-.13.23-.14.44-.05.88-.09,1.33-.13.11,0,.22.02.33-.01.3-.08.59-.14.91-.15.7-.01,1.39-.08,2.09-.15.36-.03.72-.09,1.09-.05.19.02.39-.09.62-.16.01,0,.07.05.17.11-.01-.1-.02-.15-.03-.18.13.04.27.09.4.13,0-.02.01-.04.02-.06-.05-.03-.11-.05-.19-.09.3-.02.58-.03.85-.06.12-.01.22-.1.34-.11.26-.03.52-.03.77-.04,0-.02,0-.05,0-.07-.11.01-.22.02-.33.03-.12,0-.29.06-.36,0-.18-.14-.24-.02-.31.09-.07-.04-.14-.11-.21-.11-.27,0-.54,0-.8.01-.42.04-.83.12-1.25.15-.7.05-1.41.05-2.11.1-.82.05-1.65.11-2.47.21-.73.08-1.46.19-2.18.32-.81.14-1.61.32-2.41.47-.27.05-.54.15-.8.12-.45-.05-.78.21-1.15.35-.02,0-.05.04-.06.06-.06.2-.21.19-.36.15-.19-.05-.29,0-.36.19-.02.04-.08.1-.12.1-.21,0-.24-.2-.29-.34-.02-.05.04-.16.1-.2.17-.12.39-.18.54-.32.48-.45,1.04-.74,1.69-.86.5-.1,1.01-.17,1.5-.24-.04-.02-.1-.04-.17-.06,0-.03,0-.05,0-.08.32-.07.65-.13.99-.2h-.92c.43-.1.87-.16,1.3-.2.4-.03.81-.03,1.21-.05.11,0,.22-.04.33-.03.66.09,1.29-.02,1.92-.17.15-.04.31.02.49-.04.3-.1.64-.09.96-.11.53-.04,1.07-.06,1.6-.12.19-.02.43.15.54-.07.12.02.21.05.28.03.2-.06.39-.17.59-.22.18-.04.37-.05.51.11.02.03.06.06.09.05.26-.03.52-.07.78-.11,0-.02,0-.04,0-.06h-.79c.05-.06.1-.07.16-.07.3,0,.6,0,.9,0,.08,0,.16.09.23.09.16,0,.32-.02.48-.04.04,0,.07-.05.1-.08-.14-.02-.29-.05-.43-.06-.72-.03-1.45-.05-2.17-.08-.04,0-.07-.01-.11-.03-.19-.08-.34-.09-.37.18,0,.04-.09.08-.17.14.05-.13.08-.22.11-.32-.12-.02-.23-.05-.32-.04-.46.07-.93-.01-1.39.1-.43.11-.89.12-1.33.15-.54.03-1.08.06-1.62.06-.37,0-.73-.06-1.1-.07-.19,0-.39.03-.58.05-.39.04-.77.06-1.16.13-.26.04-.52.14-.78.22-.4.12-.79.23-1.18.35-.11.03-.24.15-.32.12-.23-.08-.42.04-.63.08-.2.04-.41.09-.47.34,0,.03-.06.05-.1.07-.16.11-.31.22-.48.31-.16.09-.34.24-.51.24-.29,0-.47.14-.65.31-.03.03-.04.08-.06.13-.02.07-.03.14-.04.21-.07-.02-.13-.04-.22-.07-.1.11-.22.23-.31.33.05.09.08.14.1.2.08.25.09.53.31.73.19.18.35.38.51.57.08.1.17.21.22.33.1.24.15.49.26.72.12.27.27.53.42.78.39.67.78,1.34,1.17,2,.27.46.55.92.84,1.38.19.29.41.57.61.85.02.03,0,.08,0,.09.12.06.23.12.34.18-.04.03-.07.06-.1.07.1.09.18.17.29.27-.08,0-.13-.02-.19-.02.22.24.45.48.65.73.63.81,1.3,1.61,1.79,2.53.08.15.12.32.35.29.02,0,.04.04.06.06.25.32.52.63.75.97.22.33.56.62.51,1.09,0,0,.02.02.05.05.41-.22.61.05.8.36.26.4.53.8.79,1.21.15.23.31.45.41.7.1.27.26.39.53.43.09.01.18.1.24.18.15.2.27.41.42.61.36.47.74.92,1.1,1.39.24.31.48.62.71.93.44.6.88,1.2,1.32,1.8.23.31.46.62.69.93.15.19.29.38.45.56.12.14.27.25.38.39.3.37.6.76.89,1.14.03.03.06.06.08.1.31.55.6,1.11.92,1.64.55.92,1.3,1.68,2.05,2.43.13.13.22.29.33.44.06.08.1.19.17.26.25.27.56.49.76.8.28.44.71.72,1.09,1.03.36.3.81.49,1.19.77.54.39,1.24.53,1.71,1.05.1.11.29.13.45.2,0,0,.03-.03.09-.1.07.32.14.6.19.88.04.28.07.56.08.85,0,.34-.05.68-.04,1.01,0,.31.05.63.11.94.1.52.24,1.03.34,1.55.03.18.07.22.24.11.3.88.37,1.78.48,2.68-.03,0-.05.02-.08.03,0,.02.01.05.02.07.02,0,.04,0,.06-.01.05.34.11.67.15.99,0,.04-.04.09-.04.13.02.15.08.3.08.46,0,.11.11.27-.06.34,0,0,0,.02,0,.03.04,0,.08,0,.12,0v.35s-.08.04-.11.05c0,.03,0,.06,0,.09h.12c.09.26.05.5-.1.71h.21s-.03.1-.07.14c-.06.08-.12.15-.19.23,0,.04,0,.07,0,.11.03-.02.07-.04.1-.05-.04.07-.07.14-.11.21,0,.3-.02.6-.02.91.06.01.11.05.12.16-.04,0-.09,0-.13,0,0,.02,0,.04,0,.07.05.03.04.08,0,.13,0,0,0,.02,0,.02.29-.05.38.01.35.28,0,.05-.04.1-.06.14-.05-.02-.11-.05-.16-.08-.04-.02-.08-.05-.11-.08.08,0,.16-.02.29-.04-.13-.09-.22-.16-.31-.23,0,.45.03.9.07,1.35.02.01.03.03.05.04.02.03.04.06.06.09l-.09.06s0,.08.01.12c.06-.07.11-.15.18-.17.05-.02.14.1.2.18-.14-.01-.29-.12-.37.12,0,.01,0,.03,0,.04,0,0,0-.02.01-.03.03,0,.05.02.08.02.01.08.03.15.05.27.1-.14.14-.42.35-.14-.14.12-.22.31-.44.29,0,.05.01.1.02.15.03.03.06.07.11.12.02-.08.03-.14.04-.22.09-.01.21-.02.36-.04-.14.16-.24.27-.36.4.11.03.17.05.23.07-.06.04-.11.1-.18.13-.04.02-.09.04-.15.05,0,.05.01.11.02.16.08-.15.18-.16.39-.03-.05.06-.09.13-.14.19q.26.2.1.49c.06.05.16.1.17.16.03.19.1.43.02.57-.11.2,0,.23.13.34,0-.11.01-.19.02-.27.02-.18.05-.36.23-.44.41-.19.49-.29.46-.73-.03-.6-.08-1.19-.12-1.79-.05-.69-.08-1.38-.15-2.06-.05-.57-.14-1.14-.22-1.71-.05-.39-.11-.77-.18-1.16-.08-.4-.19-.8-.28-1.2-.03-.13-.02-.27-.06-.4-.04-.16-.11-.31-.18-.5.01,0-.04-.01-.1-.03.06-.06.11-.1.11-.1-.08-.3-.26-.56-.08-.88-.05,0-.1-.02-.11-.02-.13-.4-.17-.79-.31-1.17-.05-.12-.03-.26-.04-.39-.02-.26.11-.54-.13-.75.05-.07.09-.11.14-.18-.1-.02-.17-.04-.26-.06,0-.16-.03-.32,0-.46.03-.13.02-.2-.11-.23-.01,0-.02-.03-.05-.07.05-.02.1-.03.11-.04.06-.25-.21-.44-.14-.7-.06-.27-.12-.56-.18-.86-.06-.03-.15-.08-.29-.15.13-.04.21-.07.29-.1v-.05c-.09-.04-.18-.08-.28-.12.05-.03.12-.05.11-.07-.01-.06-.04-.12-.07-.17-.04-.08-.09-.15-.14-.22,0,0,.02-.03.03-.04.04.05.08.1.12.15l.04-.02c-.09-.3-.17-.61-.26-.93.08-.01.14-.03.19-.03.38.04.76.09,1.14.14.36.05.72.12,1.08.19.11.02.2.09.32.14.04-.03.1-.12.19-.15.14-.05.3-.05.45-.08.38-.07.76-.13,1.13-.21.28-.06.57-.13.79-.18.05.22.05.46.17.61.13.17.12.31.08.48-.14.58-.29,1.15-.41,1.73-.11.54-.18,1.09-.29,1.63-.28,1.38-.58,2.75-.86,4.12-.08.39-.15.79-.18,1.18-.04.37-.02.75-.04,1.12-.02.39-.07.79-.06,1.18.03.96.07,1.93.12,2.89.03.64.09,1.27.14,1.91.04.55.1,1.1.13,1.65.02.38,0,.77.03,1.15.06.92.19,1.83.21,2.75.04,1.47.05,2.95.02,4.42-.02.76-.13,1.52-.22,2.28-.1.79-.15,1.58-.06,2.37,0,.03.01.09.02.09.18.01.15.16.17.27.07.6.13,1.2.18,1.8.02.21.14.45-.07.64-.02.01-.01.06-.01.09.04.29.06.58.13.87.07.3.21.58.25.87.07.52.3.98.51,1.45.02.03.05.06.08.09.17.16.41.23.49.51.05.16.23.28.36.42.01-.01.02-.02.03-.03l-.28-.39s.03-.02.05-.04c.05.06.1.12.15.18.28.34.59.64.97.87.34.21.7.38,1.05.56.17.09.35.19.53.25.34.11.69.19,1.03.29.31.09.62.2.93.29.15.04.31.04.46.09.2.06.38.17.58.21.56.1,1.12.19,1.68.24.98.08,1.96.11,2.94.19.65.05,1.29.16,1.94.26.27.04.53.1.8.13.8.11,1.59.25,2.35.51.47.16.93.39,1.25.8.05.06.1.19.07.24-.11.19-.23.38-.4.52-.47.4-.96.78-1.46,1.14-.54.39-1.1.76-1.66,1.14-.21.14-.42.27-.64.38-.63.31-1.31.48-1.93.84-.39.23-.89.3-1.35.38-.42.07-.86.03-1.28.08-.99.12-1.97.28-2.96.4-.85.1-1.7.16-2.56.24-.44.04-.88.08-1.32.14-.23.03-.46.05-.67.12-.55.19-1.11.29-1.69.31-.81.02-1.63-.02-2.44.05-.82.07-1.6-.06-2.4-.19-.25-.04-.51-.09-.76-.12-.25-.02-.51,0-.75-.03-.75-.13-1.5-.26-2.25-.42-.38-.08-.77-.05-1.14-.2-.22-.09-.53-.16-.82.09.56-.05,1.03.1,1.49.32h-.44c.2.07.38.12.54.2.13.06.24.17.37.2.41.12.83.21,1.25.33.12.03.22.09.34.14,0,.02-.01.05-.02.07-.09,0-.17.03-.26.02-.21-.03-.42-.08-.64-.09-.88-.04-1.73-.27-2.57-.51-.74-.21-1.48-.36-2.24-.45-.58-.07-1.16-.16-1.75-.24-.26-.03-.51-.06-.77-.1-.51-.08-1.02-.16-1.52-.24-.14-.02-.3,0-.41-.07-.55-.3-1.14-.55-1.57-1.02-.22-.23-.5-.45-.43-.85.43-.08.62-.35.68-.78.03-.22.07-.49.32-.56.01-.14,0-.26.04-.33.23-.31.45-.64.72-.91.33-.32.71-.59,1.07-.88.11-.09.22-.23.33-.24.13,0,.2-.04.28-.12.05-.05.11-.09.18-.12.18-.08.37-.13.55-.21.25-.11.49-.26.75-.35.36-.13.74-.2,1.09-.38.08-.04.2-.04.26-.1.16-.16.34-.18.53-.18.09-.03.19-.07.31-.11-.03.06-.04.09-.05.12.01.02.03.04.04.06.19-.1.38-.2.57-.29.09.22.25.02.41.06-.03-.09-.04-.14-.07-.23.12.07.2.12.29.17,0-.09-.01-.14-.02-.19.13.01.26.03.38.04.11-.02.23-.07.34-.15.15-.11.29-.13.47-.08.26.08.43-.04.45-.28.22.26.49.19.75.14.19-.03.38-.09.57-.11.24-.03.48-.04.72-.06,0,0,0-.02,0-.02h1.85c.13.09.38.08.53-.06.21.12.43.08.64.06.44-.13.89-.23,1.34-.34.09-.02.18,0,.26.02.07-.15.12-.3.19-.45.09-.21.18-.41.24-.63.1-.4.19-.8.27-1.2.05-.24.08-.48.11-.72.03-.24.04-.49.06-.73.02-.29.04-.59.05-.88,0-.38,0-.76,0-1.14,0-.31-.04-.62-.06-.92,0-.15-.04-.32.02-.45.1-.23.03-.41,0-.61-.02,0-.05,0-.07,0l.02.33h-.03c-.03-.24-.07-.48-.1-.71-.03.25-.03.5-.03.75-.01.6-.03,1.19-.06,1.79-.01.26-.08.52-.1.78-.02.31.01.63-.02.94-.03.37-.09.74-.17,1.1-.08.33-.18.66-.31.98-.05.11-.09.17.02.23-.22.4-.43.79-.64,1.17-.16.3-.31.56-.76.51-.51-.06-1.03-.03-1.54-.04-.71-.01-1.42-.04-2.14-.03-.52.01-1.04.08-1.56.14-.61.06-1.23.08-1.82.22-1.05.26-2.09.59-3.13.89-.48.14-.88.49-1.4.54-.02,0-.04.02-.06.03-.23.14-.45.28-.68.42-.38.23-.77.45-1.15.67-.4.23-.79.49-1.04.9-.3.5-.72.92-.87,1.51,0,.01-.01.02-.02.04,0,.61,0,1.21.02,1.82.03.07.06.14.09.2.08.18.16.36.36.45.12.06.23.13.33.22.36.32.8.47,1.25.54.45.07.92.03,1.36.21.11.04.24.01.36.02.06,0,.11.02.17.03.23.05.47.1.7.15.21.04.42.05.63.08.12.02.24.08.37.11.13.03.27.06.4.08.08.01.16.03.24.04.09.01.18.01.27.03.14.03.28.12.4.1.41-.07.77,0,1.1.25.17.13.37.13.58.13.28,0,.56.05.83.09.04,0,.07.06.1.08.13.08.26.16.39.24.18.11.38.06.57.09.32.04.62.14.93.22.05.01.14.04.14.05,0,.22.14.1.22.1.08,0,.16-.04.24-.04.28.03.56.05.84.11.19.04.42-.06.56.17,0,.02.08.02.1,0,.18-.19.38-.09.58-.05.21.04.41.08.62.11.26.03.52.03.78.05,0,0,0,.01.02.01.09.03.17.09.26.09.9-.06,1.8-.12,2.7-.19,1.25-.1,2.49-.2,3.71-.56.63-.18,1.28-.25,1.95-.23.63.02,1.26-.04,1.89-.05.21,0,.41.04.62.03.54-.03,1.07-.08,1.6-.13.69-.07,1.39-.17,2.08-.25.23-.03.45-.06.68-.1.02-.04.05-.09.08-.15.14.16.39.17.7.02-.15-.01-.26-.02-.37-.03.03-.05.07-.06.1-.07.24-.02.46-.12.73-.05.15.04.35-.14.55-.23-.08-.05-.14-.1-.21-.14l.02-.05c.16.05.32.1.49.14.03,0,.08.03.1.02.25-.1.49-.21.75-.32-.03-.05-.06-.1-.11-.16.16-.04.31-.05.43-.11.39-.19.77-.41,1.15-.61.03-.02.09-.04.1-.06.01-.14.07-.13.18-.09.05.02.12-.02.19-.03-.02-.05-.04-.11-.05-.17,0-.02,0-.04.02-.06.02-.02.05-.04.07-.06.02.08.05.16.07.22.17-.08.29-.14.41-.2-.01-.03-.03-.07-.05-.12.27.09.41-.1.54-.24.26-.28.56-.49.92-.63.54-.21.91-.75.83-1.33-.11-.8-.48-1.48-1.11-2-.12-.1-.22-.21-.33-.32-.06-.06-.1-.13-.16-.19-.41-.34-.91-.5-1.41-.65-.28-.09-.59-.12-.87-.22-.75-.27-1.49-.55-2.24-.83-.77-.29-1.55-.53-2.39-.5-.61.02-1.23.12-1.85,0-.4-.08-.82-.09-1.22-.17-.52-.1-1.03-.29-1.55-.35-1.35-.15-2.44-.76-3.34-1.74-.56-.61-.98-1.31-1.39-2.04-.43-.78-.71-1.6-.84-2.47-.09-.6-.26-1.2-.06-1.81.01-.04-.01-.09,0-.13.01-.31-.11-.62.03-.93.07-.16.1-.36.09-.54-.01-.25-.1-.49-.11-.74-.02-.62-.02-1.24-.03-1.85,0-.08.03-.17.02-.25-.06-.65-.14-1.3-.18-1.95-.05-.68-.05-1.37-.09-2.06-.03-.59-.04-1.18-.13-1.76-.07-.49,0-.96.1-1.43.04-.19.08-.38.06-.57-.04-.45-.12-.9-.19-1.34,0-.06,0-.12,0-.18,0-.25,0-.51-.02-.76-.03-.44-.1-.88.11-1.3.03-.05.06-.11.09-.16-.03-.64-.06-1.28-.08-1.92-.01.03-.02.05-.04.08.01-.2.02-.37.03-.53,0-.33-.01-.66-.01-.98,0-.03-.02-.07-.01-.1,0-.06.01-.11.02-.17.01-.96.08-1.92.24-2.86.04-.42.08-.85.12-1.27,0-.03,0-.07,0-.08-.18-.1-.08-.25-.06-.37.03-.2.11-.4.15-.6.18-1.06.32-2.13.55-3.18.23-1.06.58-2.09.84-3.14.11-.44.38-.79.58-1.18.01-.03.12-.04.16-.02.06.03.11.09.15.11.57-.18.82-.68,1.15-1.09.23-.28.48-.56.73-.82.14-.14.32-.24.45-.39.6-.65,1.2-1.3,1.79-1.97.43-.49.85-.98,1.27-1.49.3-.37.58-.75.87-1.13.44-.57.91-1.12,1.33-1.71.74-1.04,1.42-2.12,2.18-3.15.77-1.04,1.46-2.13,2.12-3.24.53-.88,1.11-1.72,1.68-2.58.39-.58.79-1.16,1.17-1.75.29-.45.55-.93.82-1.39.2-.33.42-.66.62-1,.46-.78.91-1.57,1.25-2.42.03-.09.16-.18.25-.2.45-.1.9-.17,1.36-.25.18-.03.36-.08.54-.1.53-.06,1.06-.07,1.58-.16.43-.07.83-.29,1.26-.32.7-.05,1.28-.37,1.86-.71.25-.15.47-.35.68-.55.38-.37.74-.76,1.12-1.13.08-.08.21-.11.32-.16.04-.11.12-.21.19-.3.61-.76,1.06-1.6,1.39-2.51.04-.12.04-.26.08-.37.19-.51.42-1,.58-1.52.23-.78.45-1.57.6-2.38.12-.66.2-1.34.17-2ZM30.32,12.41c-1.32-.06-2.64-.13-3.96-.19v-.09c1.32.07,2.64.13,3.96.2,0,.03,0,.05,0,.08ZM24.58,97.41v-.08c.4-.08,1.1-.02,1.26.17-.45-.03-.86-.06-1.26-.09ZM49.81,91.2c.36.22.57.52.66.92.03.12-.05.25.09.35.02.02-.05.17-.08.25,0,.07.03.17,0,.2-.2.2-.41.38-.62.56-.04.04-.12.03-.18.04-.1.02-.21.03-.29.08-.52.29-1.03.58-1.53.9-.3.19-.58.44-.87.65-.08.06-.2.08-.3.12,0,0,.03.03.09.1-.3.09-.57.16-.84.25-.29.09-.58.2-.88.29-.38.12-.75.24-1.14.34-.43.11-.86.2-1.29.29-.15.03-.31.02-.27-.19.27-.08.52-.15.77-.22.16-.05.32-.09.48-.15.05-.02.08-.07.12-.11-.51.14-.99.35-1.55.31-.52-.04-1.04.04-1.56.06-.1,0-.21,0-.31,0,.5-.05,1-.11,1.5-.16.07,0,.15-.02.22,0,.58.11,1.09-.1,1.6-.31.41-.17.83-.3,1.21-.52.68-.41,1.47-.64,2.07-1.22.46-.44,1.03-.76,1.55-1.14.42-.31.85-.6,1.19-1.01.18-.23.23-.35.17-.68ZM31.49,83.06c-.06-.3-.12-.6-.17-.91h.06c.05.3.11.6.16.9-.02,0-.03,0-.05,0ZM31.97,84.46c-.34-.35-.27-.82-.4-1.24.13.41.27.83.4,1.24ZM62.56,8.14c.11.32.21.62.3.93.07.24.14.48.16.72.03.28-.12.36-.42.27.07-.06.14-.12.21-.18,0,0-.02-.02-.02-.02-.28.12-.57.23-.85.36-.36.16-.7.34-1.06.48-.39.16-.79.35-1.2.44-.89.19-1.78.36-2.68.47-.71.09-1.44.08-2.16.11-.07,0-.13,0-.2.01-.27.04-.3.03-.35-.28.21-.06.43-.1.64-.17.1-.03.2-.09.28-.16.26-.22.51-.47.78-.69.07-.06.19-.06.28-.09.19-.06.39-.12.58-.19.07-.03.13-.1.21-.11.25-.04.51-.08.76-.1.06,0,.13.04.21.07.01-.04.02-.08.03-.11.13.01.25.03.38.04,0-.02.02-.04.02-.06-.04-.04-.07-.08-.12-.14.05,0,.09-.02.12,0,.14.05.28.16.41.16.17,0,.34-.11.51-.18.03-.01.05-.03.07-.05.42-.56,1.12-.59,1.69-.88.33-.17.68-.31,1.02-.47.14-.06.28-.12.42-.17ZM56.78,6.05c.13-.33.18-.69.26-1.04,0-.02,0-.04.02-.06.12-.27.27-.53.37-.81.06-.16.03-.34.05-.53.02,0,.07.02.16.04v-1.05c-.11.03-.17.04-.23.06.05-.11.09-.2.13-.29-.02-.01-.04-.02-.06-.03-.02.03-.05.06-.09.11-.04-.19-.08-.36-.13-.58.27.13.52.22.73.35.48.31.96.63,1.42.98.21.16.35.41.52.62.03.04.02.12.03.19.32.1.66.65.64.98-.01.18.06.36.07.54,0,.12.01.26-.03.36-.24.56-.48,1.13-.97,1.54-.05.04-.21.09-.07.22-.06.05-.11.11-.17.16-.09.09-.2.16-.26.26-.03.05.03.15.05.23.06-.02.13-.02.16-.06.09-.09.15-.2.24-.29.03-.03.11-.03.16-.05.18-.05.41-.05.52-.16.34-.38.63-.81.95-1.21.12-.16.07-.31.03-.47-.02-.07-.05-.14-.07-.2.01-.02.03-.03.04-.05.07.04.15.08.22.13.11.09.25.18.29.3.06.17.09.37.05.54-.09.39-.35.7-.69.91-.39.25-.81.44-1.22.66-.1.06-.21.11-.31.16-.05.02-.12.06-.16.04-.15-.08-.27,0-.35.1-.18.24-.45.32-.72.41-.15.05-.29.23-.48.08-.01,0-.06.04-.09.05-.18.06-.36.12-.53.19-.04.01-.07.05-.1.07l.02.03c.06-.02.13-.05.21-.08,0,.05.02.1,0,.12-.23.23-.48.42-.82.47-.03,0-.07,0-.08-.02-.18-.21-.36-.09-.53,0-.4.23-.79.45-1.18.69-.15.09-.27.16-.43.03-.03-.03-.1-.02-.12-.02.12-.24.22-.48.35-.71.54-.94,1.09-1.87,1.62-2.81.21-.36.44-.72.59-1.11ZM49.27,1.88c.72-.17,1.42-.44,2.17-.48.16,0,.33-.09.48-.16.6-.29,1.25-.35,1.89-.38.23,0,.47.1.7.15.41.08.83.11,1.2.33.06.03.15,0,.29,0-.09.06-.13.09-.19.14.13.03.25.06.36.09.05.12.13.25.16.38.07.35.06.7-.06,1.05-.06.16-.05.35-.08.52-.1.54-.22,1.08-.29,1.62-.05.4-.25.75-.3,1.14-.05.41-.36.64-.61.92-.07.08-.14.17-.24.29.12-.37.22-.7.32-1.02-.03-.01-.06-.02-.09-.03-.05.15-.11.31-.16.46-.13.4-.26.8-.4,1.2-.03.1-.13.17-.2.25h0c-.06.17-.11.34-.18.51-.18.49-.38.97-.55,1.46-.13.37-.31.42-.58.14-.16-.17-.3-.36-.45-.54-.17-.21-.27-.41-.23-.72.04-.27-.1-.57-.16-.85-.12-.5-.21-1-.37-1.48-.17-.49-.38-.97-.61-1.44-.21-.43-.48-.84-.72-1.25-.27-.47-.55-.94-.82-1.41-.13-.22-.25-.45-.37-.68-.06-.11-.03-.18.1-.21ZM53.85,16.89c-.08-1.41-.16-2.77-.24-4.13.02,0,.03,0,.05,0,.03.11.05.22.09.33.27.72.52,1.44.81,2.14.15.37.39.72.57,1.08.17.34.14.4-.23.49-.13.03-.27.05-.42.08,0-.12.01-.2.02-.3-.2.1-.39.2-.65.32ZM45.12,3.94c.13-.35.35-.65.67-.83.62-.33,1.27-.62,1.9-.93.07-.03.16-.03.27-.05.27.54.54,1.08.83,1.6.22.39.48.76.71,1.14.25.41.46.85.74,1.24.14.19.16.48.42.58.24.51.48,1.02.7,1.54.17.38.31.76.42,1.17-.28-.18-.56-.38-.85-.55-.52-.32-1.05-.63-1.56-.96-1.07-.69-2.11-1.41-3.06-2.26-.15-.13-.32-.24-.47-.37-.07-.06-.12-.15-.17-.22-.05-.06-.08-.15-.14-.16-.42-.1-.29-.51-.44-.76-.02-.04,0-.13.03-.19ZM42.47,17.42c.06-.26-.12-.44-.24-.67.86-.06,1.72-.07,2.52-.52,0,0,.02.04.05.08.4-.18.81-.37,1.23-.54.16-.06.34-.04.51-.08.12-.03.23-.11.35-.17.23-.11.46-.22.7-.32.66-.27,1.32-.54,1.98-.81.29-.12.58-.22.86-.33.21-.09.44-.17.57-.39.02-.03.05-.06.08-.07.22-.05.37-.16.39-.42-.09-.07-.19-.15-.32-.25-.4.29-.8.58-1.21.86-.12.08-.25.16-.37.23-.03.02-.07.02-.1.01-.3-.11-.38-.04-.55.23-.09.14-.3.22-.47.29-.45.17-.92.32-1.37.48-.13.05-.25.12-.39.19.01.03.04.08.06.12-.06.05-.12.09-.19.15-.15-.26-.27-.15-.48-.03-.36.22-.74.44-1.17.53-.43.09-.86.24-1.29.35-.46.12-.93.1-1.4-.01-.05-.01-.12-.07-.13-.13-.04-.18-.07-.37-.1-.56,0-.02,0-.05,0-.06-.27-.39-.18-.83-.19-1.25,0-.27,0-.54,0-.82,0-.13.05-.19.17-.21.52-.08,1.02-.12,1.55,0,.51.12,1.04.12,1.56.2.17.02.32-.03.48-.07.3-.08.62-.13.93-.19.73-.13,1.46-.2,2.15-.48.18-.08.14-.17.11-.32-.07.01-.14.02-.2.04-.78.31-1.58.47-2.41.46-.41,0-.82-.1-1.22-.18-.35-.07-.7-.17-1.03-.29-.45-.16-.9-.1-1.36-.09-.21,0-.43,0-.64-.01-.05,0-.14-.09-.14-.13.1-1.04.18-2.09.32-3.13.07-.5.36-.93.74-1.27.17-.15.37-.25.57-.37.03-.02.1,0,.13.03.16.14.31.29.46.44.33.36.76.58,1.21.75.2.07.44.08.54.32,0,.01.02.02.04.02.29.11.58.22.88.33.17.06.34.09.51.14.29.09.59.19.89.29-.03-.16-.04-.28-.07-.43-.46-.16-.96-.33-1.46-.49,0-.03.01-.06.02-.1.17.01.34.02.49.03-.08-.15-.15-.33-.27-.46-.12-.14-.26-.3-.43-.35-.75-.22-1.39-.64-2.06-1-.03-.01-.05-.03-.08-.05-.63-.31-.53-.33-.26-.87.11-.23.27-.44.44-.63.16-.19.27-.17.41.03.38.55.77,1.1,1.16,1.65.17.24.3.52.5.73.13.14.27.33.52.34.07,0,.18.13.2.22.06.39.33.56.65.7.13.06.27.14.34.25.1.15.25.16.38.19.16.04.23.09.11.25-.02.03.02.16.06.18.43.19.86.36,1.29.54.02,0,.05.02.07,0,.5-.16.74.26,1.07.47.16.1.3.23.45.35.04.03.1.07.14.06.35-.07.53.32.86.29.08.19.29.02.4.14.05.05.1.12.11.18.05.18.08.36.11.55,0,.04-.03.09-.02.13.01.34.04.68.04,1.02,0,.16-.07.33-.06.49,0,.34.05.67.06,1.01,0,.09-.03.18-.03.27-.01.45,0,.9-.03,1.35-.02.35-.05.36-.4.43-.41.09-.82.2-1.23.28-.35.07-.7.11-1.04.18-.16.03-.32.1-.48.11-.18.02-.36,0-.61,0,.6-.88,1.17-1.71,1.73-2.54.38-.55.78-1.09,1.13-1.66.17-.27.26-.59.35-.89.03-.12-.05-.27-.08-.41h-.09c-.12.14-.26.28-.37.44-.25.37-.48.75-.73,1.11-.08.11-.18.2-.27.3-.02.03-.03.06-.05.1-.01.04-.01.09-.03.12-.13.19-.27.37-.41.57,0,0,.05.03.12.07-.11.15-.21.29-.32.43,0,0,.04.01.15.05-.15.13-.3.23-.4.35-.17.21-.32.45-.48.67-.18.25-.38.48-.56.73-.17.23-.33.45-.47.7-.12.21-.33.1-.49.19-.08.05-.19.04-.29.05-.39.06-.76.19-1.16.17-.18-.01-.36.06-.55.09-.1.02-.2.03-.3.03-.43,0-.87,0-1.3.01-.37.01-.74.02-1.1.08-.3.05-.41-.06-.5-.32-.1-.28-.27-.54-.4-.81-.02-.03-.05-.07-.04-.09ZM8.77,25.34c-.09,0-.22,0-.26-.06-.25-.3-.47-.62-.71-.94.02-.02.03-.04.05-.06.18.02.35.04.53.06,0,.02,0,.04,0,.06-.09,0-.19,0-.28-.01,0,.02-.01.04-.02.06.1.04.2.07.28.13.14.11.29.22.4.35.18.22.41.26.67.23.08,0,.17-.01.25-.02l.02.06s-.08.06-.12.06c-.27.03-.53.05-.8.06ZM25.91,43.9c-1.05-.18-2.11-.35-3.16-.54-.1-.02-.21-.1-.29-.18-.46-.49-.91-.99-1.38-1.47-.15-.15-.35-.26-.55-.36-.37-.18-.66-.45-.93-.75-.13-.15-.27-.29-.42-.43-.23-.22-.47-.42-.7-.63-.25-.23-.51-.46-.76-.71-.1-.11-.17-.25-.25-.37-.02-.03-.02-.08-.04-.1-.18-.13-.37-.25-.57-.38.1-.12.18-.21-.06-.27-.13-.03-.3-.11-.29-.34,0-.09-.13-.19-.2-.29-.05-.07-.08-.14-.14-.24-.08-.1-.19-.22-.29-.35-.15-.18-.29-.37-.43-.56-.26-.34-.51-.69-.77-1.03-.27-.37-.56-.74-.82-1.12-.33-.48-.65-.97-.97-1.46-.04-.06-.1-.11-.14-.16-.16-.19-.36-.37-.12-.65l-.05-.02s-.1.07-.16.11c-.13-.63-.42-1.17-.78-1.69-.08-.11-.15-.24-.21-.36-.08-.19-.1-.42-.43-.39.08-.1.11-.15.14-.18-.16-.25-.32-.5-.46-.75-.29-.55-.65-1.05-1.1-1.48,0,0-.01,0-.02-.01-.25-.24-.25-.34-.01-.59.12.06.25.13.38.17.14.04.28.03.42.05.16.02.33.03.47.09.25.12.5.06.74.02.27-.05.46,0,.62.24.05.07.15.1.22.16.2.16.39.33.6.48.68.5,1.17,1.18,1.74,1.79.48.5.92,1.04,1.38,1.55.46.51.92,1,1.38,1.5.06.06.12.14.15.21.02.04,0,.11,0,.17.04.01.1.03.2.05-.06.06-.09.1-.11.12.11.03.23.06.35.09v.05c-.06.01-.12.02-.24.04.14.06.22.1.3.14-.02,0-.05.03-.04.02.1.16.2.34.31.49.28.38.57.75.86,1.12.09.11.18.22.28.32.04.04.1.07.15.07.22,0,.25.13.27.3,0,.09.03.19.08.26.16.18.34.34.51.52.12.13.23.27.36.4.11.11.23.22.35.33-.03.02-.06.04-.08.05.09.07.19.13.27.21.04.04.04.11.06.17.01.03.01.07.03.1.26.31.52.61.77.92.16.21.31.43.47.64.52.7.99,1.43,1.5,2.12.33.45.67.89.99,1.35.33.47.63.95.99,1.49-.16-.03-.27-.05-.38-.07ZM26.12,45.18s0-.06.01-.09c.13.03.26.06.39.09.1.02.2.03.29.05,0,.02,0,.04,0,.05-.23-.03-.46-.07-.69-.1ZM34.55,46.96c-.06-.43.3-.88.89-1.09-.29.35-.57.7-.89,1.09ZM48.69,27.06c-1.13,2.1-2.53,4.02-3.73,6.08-.73,1.25-1.66,2.35-2.49,3.52-.49.7-1.05,1.35-1.56,2.03-.3.4-.56.83-.83,1.25-.34.51-.7,1.01-1.13,1.45-.31.31-.6.64-.91.95-.87.85-1.75,1.69-2.61,2.55-.39.38-.79.76-1.3.97-.3.12-.6.27-.94.13-.01,0-.05.04-.08.06-.04.02-.08.04-.09.05-.04.1-.08.19-.13.32-.08-.09-.14-.16-.23-.26-.02.09-.03.14-.03.15-.71.2-1.41.4-2.1.6-.18.05-.33.08-.42-.14-.03-.08-.13-.12-.23-.2-.06.07-.15.12-.18.2-.07.17-.18.14-.32.1-.21-.06-.43-.09-.64-.12-.58-.09-1.16-.15-1.73-.28-.41-.09-.56-.42-.55-.88,0-.09.03-.19.05-.29h1.22c-.06.04-.14.11-.23.13-.09.02-.18-.03-.28-.05,0,.03,0,.07,0,.1h.57s.02.09.04.09c.26.03.53.06.79.06.31,0,.63-.05.94-.03.11,0,.23.12.37.08.05-.01.11-.03.14-.07.26-.28.52-.57.77-.85-.25-.33-.6-.21-.93-.21-.24,0-.48,0-.73-.02-.07,0-.13-.05-.26-.1.24-.15.43-.26.63-.38,0-.03,0-.06-.01-.09-.09-.02-.18-.06-.27-.06-.23.01-.45.05-.68.07-.72.06-1.44,0-2.16-.07-.07,0-.16-.06-.19-.12-.15-.23-.29-.48-.43-.71-.12-.2-.26-.39-.38-.59-.13-.21-.26-.42-.4-.63-.1-.15-.22-.28-.31-.42-.29-.43-.57-.86-.86-1.29-.47-.71-.93-1.41-1.41-2.11-.33-.48-.67-.95-1.02-1.41-.16-.21-.37-.38-.53-.59-.44-.55-.86-1.1-1.29-1.65-.06-.08-.15-.15-.21-.23-.27-.36-.53-.73-.8-1.09-.03-.04-.06-.11-.1-.12-.3-.08-.33-.39-.52-.57-.2-.19-.35-.42-.53-.63-.1-.12-.21-.22-.31-.34-.05-.06-.11-.13-.13-.2-.05-.14-.12-.24-.28-.27-.13-.03-.19-.14-.24-.28-.06-.17-.21-.32-.33-.47-.65-.74-1.28-1.49-1.95-2.21-.4-.43-.85-.8-1.27-1.2-.11-.1-.2-.22-.3-.33.73-.23,1.32.2,1.99.32,0-.07,0-.12.01-.18h.21s.02-.04.02-.05c-.12-.07-.25-.15-.37-.22.25.02.49.06.73.04.27-.02.52.02.77.13.05.03.15-.03.24-.06-.08.17,0,.44.19.51.3.12.6.23.9.34.11.04.22.08.32.15.51.36,1.11.51,1.69.7.26.09.52.23.79.25.63.05,1.26.06,1.89.06.34,0,.7.01,1.03-.06.7-.15,1.38-.36,2.07-.55.52-.15,1.06-.27,1.56-.47.39-.16.79-.15,1.19-.16.57-.03,1.14.02,1.72.02.48,0,.97,0,1.45.01.45.02.9.08,1.35.2.4.1.83.07,1.25.1.16.01.32.05.47.04.52-.05,1.04-.09,1.56-.06.43.03.87.08,1.3.03.3-.04.56.09.83.06.41-.03.83-.1,1.24-.09.5,0,1-.06,1.5-.04.37.01.76-.1,1.12-.2.97-.29,1.92-.63,2.89-.89.86-.23,1.75-.38,2.63-.56.07-.01.14-.06.21-.07.09-.01.21-.03.27,0,.26.18.79.15,1.02-.08.08-.08.17-.15.26-.2.24-.12.5-.22.76-.33-.32.63-.64,1.28-.98,1.92ZM50.65,23.43c-.16.37-.41.64-.79.82-.2.1-.35.29-.51.46-.19.2-.44.16-.67.2-.2.03-.39.05-.59.07-.12.01-.25.03-.37.03-.27-.01-.55-.06-.82-.05-.22.01-.45.08-.66.14-.51.15-1.02.32-1.54.48-.65.2-1.29.4-1.94.6-.15.05-.31.09-.46.15-1,.36-2.02.52-3.08.49-.46-.01-.93-.01-1.39.01-.3.02-.6.12-.9.13-.67.03-1.34.03-2.01.04-.07,0-.14-.07-.21-.1-.15-.07-.29-.19-.44-.21-.42-.07-.85-.08-1.27-.15-.53-.09-1.04-.23-1.57-.33-.21-.04-.42-.06-.64-.06-.54-.01-1.09,0-1.63-.02-1.35-.07-2.62.24-3.87.71-.41.16-.78.41-1.24.45-.39.03-.79.07-1.18.09-.55.04-1.11.03-1.65.12-.87.15-1.69-.06-2.5-.3-.52-.16-1.03-.36-1.55-.55-.03,0-.06-.03-.08-.03-.22.02-.41-.04-.58-.19-.1-.08-.26-.09-.39-.12-.06-.02-.13-.03-.2-.04,0-.02.01-.03.02-.05.08-.03.15-.07.28-.13-.35-.08-.65-.15-.95-.22,0,.02-.01.03-.02.05.08.06.17.13.3.23-2.04.11-3.92-.36-5.81-.84,0-.03,0-.06,0-.09.05-.03.1-.06.16-.08.06-.03.14-.04.18-.08.32-.36.77-.29,1.18-.34.1-.01.2-.01.31-.02.03-.24-.11-.37-.26-.48-.13-.09-.17-.15-.02-.24-.21,0-.39,0-.58,0-.16-.01-.33-.04-.49-.07,0-.02,0-.04,0-.06.05-.03.09-.07.18-.13h-.33s-.01-.03-.02-.05c.08-.03.15-.07.23-.09.66-.13,1.31-.27,1.97-.39.98-.18,1.97-.22,2.96-.28.71-.05,1.43-.05,2.14-.03,1.4.04,2.8,0,4.2-.14.53-.05,1.05-.14,1.58-.22,1.3-.18,2.55.06,3.74.57,1.33.56,2.71.82,4.14.79.9-.02,1.8-.03,2.7-.08.67-.03,1.33-.17,2-.16,1.15,0,2.3.08,3.45.13.25.01.5.04.75.05.48.03.94-.11,1.4-.22,1.01-.25,2.02-.53,3.04-.77.32-.08.66-.07.99-.11.35-.04.69-.12,1.04-.15.4-.03.81-.04,1.21-.05.07,0,.15-.03.22-.03.14,0,.29-.01.42.03.21.07.04.23.06.37-.07-.02-.14-.03-.19-.06-.2-.11-.36-.11-.5.11-.06.08-.24.09-.37.12-.09.02-.18.03-.32.05.08.05.11.07.19.12-.41.1-.78.19-1.18.29.32.03.62.05.92.08,0,.02,0,.03,0,.05-.13.03-.27.06-.41.09.12.18.31-.14.41.13-.2.03-.38.05-.56.08,0,.02,0,.03,0,.05.17,0,.33,0,.5,0,.11,0,.19-.02.23.12.02.06.13.09.22.16-.03-.13-.09-.22-.07-.26.1-.16.23-.1.37-.03-.04.05-.07.08-.1.12,0,.01.01.03.02.04.06-.03.12-.06.18-.1.02-.01.04-.07.04-.07.3.1.46-.25.75-.22.06,0,.15-.12.2-.21.31-.54.84-.62,1.39-.68.2-.02.39-.13.58-.19.12-.03.24-.04.4-.07-.12.31-.23.59-.34.86ZM52.04,21.02c-.05.02-.1.08-.14.14-.47.7-1.35,1.02-2.15.77-.27-.09-.55-.17-.83-.23-.15-.03-.32,0-.48,0-.08,0-.17,0-.26-.05.04-.03.08-.06.12-.09,0-.02,0-.05,0-.07-.51-.01-1.01-.03-1.54-.04,0,.03.02.07.02.07-.25.03-.49.06-.74.09-.27.03-.54.06-.81.1-.59.07-1.18.1-1.76.21-.77.15-1.53.36-2.3.55-.98.24-1.98.37-2.98.35-1-.02-2.01-.07-3.01-.13-.97-.06-1.93.02-2.9.07-1.06.06-2.14.09-3.2.02-.67-.05-1.34-.3-1.99-.48-.31-.09-.62-.18-.89-.41-.16-.14-.44-.14-.66-.22-1.03-.4-2.09-.33-3.15-.19-.72.1-1.45.19-2.18.17-.29,0-.57.06-.86.07-.6.02-1.21,0-1.81.02-1.4.03-2.8,0-4.18.12-1.48.12-2.95.38-4.43.58-.16.02-.33.01-.48.07-.38.14-.79.01-1.18.13-.23.07-.39,0-.48-.24-.04-.1-.13-.18-.2-.26-.03,0-.05.01-.08.02-.07.19-.13.39-.21.62-.11-.11-.22-.22-.32-.34-.12-.15-.23-.32-.35-.47-.2-.27-.38-.56-.61-.81-.29-.32-.51-.69-.72-1.07-.23-.41-.56-.78-.86-1.15-.48-.61-.85-1.27-1.07-2.04.22.15.42.32.64.43.24.12.49.2.76.27l-.18-.09v-.03c.16.05.32.07.46.14.74.33,1.55.44,2.34.58.81.15,1.63.29,2.44.41.6.09,1.19.17,1.79.23.25.02.51-.01.76-.02.03,0,.08,0,.1.02.32.17.67.14,1.02.15.41.01.82.02,1.24.04.31.02.62.08.93.1.72.04,1.44.06,2.16.11.81.06,1.62.17,2.42.22.96.06,1.93.07,2.89.1.21,0,.41.04.62.03.41,0,.81-.03,1.22-.04.4-.01.8-.01,1.2-.04.24-.02.5.1.73-.07.01,0,.04,0,.06.02.39.22.83.07,1.24.13.16.02.32.01.48,0,.33-.02.67-.06,1-.06.37,0,.75.07,1.12.09.19.01.39,0,.58-.02.1,0,.19-.03.29-.03.79,0,1.58,0,2.37,0,.48,0,.96.02,1.44.03.53.01,1.06.02,1.59.04.85.04,1.69.07,2.54.14.69.06,1.36-.03,2.03-.1.4-.04.8-.09,1.2-.13.14-.02.29-.05.43-.04.11,0,.26-.11.33.08,0,0,.03.01.04.01.43-.03.51.33.69.59.11.15.21.3.32.45.03-.02.06-.04.1-.05-.17-.35-.34-.7-.53-1.07.2-.02.31-.03.39.15.09.21.25.38.36.58.05.08.07.17.06.28-.09-.1-.18-.2-.27-.3-.02.02-.04.03-.05.05.13.15.26.32.4.46.09.09.2.29.35.17.08-.07.07-.28.06-.42,0-.16-.07-.29-.24-.37-.08-.04-.14-.15-.2-.23-.08-.11-.16-.22-.26-.38.57-.06,1.15-.12,1.74-.18.19-.02.39-.04.58-.06.71-.09,1.42-.16,2.12-.29.88-.17,1.74-.39,2.61-.62.6-.16,1.2-.27,1.82-.33.18-.02.36-.09.56-.14,0,.18.06.3-.02.49-.23.57-.38,1.18-.56,1.77-.11.37-.23.71-.63.87ZM58.03,20.79c-.45.13-.9.24-1.35.35-.49.12-.99.24-1.49.34-.28.06-.57.08-.85.11-.38.04-.76.08-1.14.13-.07,0-.13.02-.2.02-.11,0-.25.02-.2-.22-.02,0-.05.01-.07.02-.03.06-.06.12-.09.17-.02-.01-.03-.03-.05-.04.1-.08.02-.27.24-.31.07-.02.13-.25.14-.4.07-.67.26-1.31.49-1.94.08-.21.17-.42.24-.64.18-.53.51-.9,1.06-1.05.26-.07.52-.16.76-.23.63,1.3,1.29,2.55,2.59,3.29.05,0,.12-.02.18-.03.06.17-.05.36-.28.43ZM63.01,11.31c-.02.06-.07.12-.06.18.09.65-.19,1.2-.45,1.76,0,.02,0,.04.04.08.05-.12.1-.24.17-.41.02.07.04.1.03.12-.09.35-.17.7-.27,1.04-.02.06-.08.11-.11.17-.02.03,0,.08-.01.12,0,.03-.03.07-.05.09-.02.02-.06,0-.1.01.03.03.05.07.05.06-.02.1-.02.18-.05.24-.11.27-.23.54-.34.81-.04.11-.06.23-.11.34-.15.39-.28.79-.46,1.16-.1.2-.11.38-.13.58-.01.1-.07.19-.09.29-.07.3-.24.52-.51.67-.01,0-.02.04-.04.1.12-.07.2-.12.28-.16,0,0,.02.02.03.03-.05.04-.1.08-.14.13-.12.15-.23.3-.35.45-.02.03-.04.06-.07.08-.25.22-.51.44-.76.67-.11.1-.19.23-.29.32-.21.18-.43.37-.74.16-.05-.03-.11-.04-.16-.06-.06-.16-.11-.33-.19-.48-.16-.32-.31-.64-.52-.94-.33-.47-.51-1.01-.79-1.5-.01-.02-.02-.05-.03-.1.07.02.12.03.19.05,0-.09-.01-.15-.02-.24-.17.2-.2.19-.3-.03-.08-.16-.13-.29.09-.39.09-.04.02-.52-.08-.61-.79-.67-1.34-1.54-1.94-2.36-.27-.37-.4-.83-.59-1.25-.03-.06-.02-.14-.03-.21l.05-.05c.1.07.24.11.31.2.53.7,1.31.98,2.08,1.27.23.09.45.23.69.27.33.07.61.21.87.4.54.4,1.06.81,1.59,1.21.08.06.18.11.29.18-.08-.22-.16-.41-.22-.61-.05-.19-.08-.38-.13-.57-.11-.43-.3-.82-.75-.97-.52-.17-1.06-.26-1.58-.43-.71-.23-1.4-.5-2.09-.77-.16-.06-.28-.24-.4-.4,1.13.28,2.26.1,3.4.1-.05-.01-.09-.03-.15-.05.27-.18.56-.11.84-.12.17,0,.35-.02.52-.06.28-.05.58-.09.84-.2.67-.29,1.34-.59,1.95-1.01.2-.14.41-.26.62-.39.06-.04.11-.09.17-.13-.02.32-.04.64-.06.97l.03.02s.05-.09.06-.13c.02-.05.02-.1.03-.16.02,0,.05.01.07.02-.04.14-.09.27-.13.41Z"/>
      <path class="cls-1" d="M30.04,75.92c.13-.22.19-.45.17-.71-.08-.82-.17-1.64-.22-2.47-.04-.53-.01-1.06-.03-1.59-.02-.53-.19-1.06-.06-1.6,0-.02,0-.04-.01-.06-.09-.36-.2-.73-.28-1.09-.05-.24-.07-.5-.11-.8-.05.11-.08.17-.12.25-.09-.67-.27-1.28-.46-1.9-.02,0-.04,0-.07.01v.22c-.07,0-.15,0-.16-.02-.07-.14-.12-.29-.17-.44,0-.03.03-.07.02-.1-.04-.09-.09-.17-.13-.26.05.37.1.73.14,1.1.27,2.27.38,4.56.44,6.85.04.02.06.03.07.05.02.08-.02.18-.03.28,0,0-.02,0-.03,0,0,.1,0,.21,0,.31.05,0,.1-.02.17-.03-.07.11-.12.19-.17.26,0,.02,0,.04,0,.06.06,0,.13.02.19.03-.06.02-.12.05-.18.08,0,.02,0,.03,0,.05.05,0,.1-.01.18-.02-.05.08-.09.12-.11.16.08.08.15.15.21.21v.17s.04-.03.05-.03c.04.5.08.99.12,1.48-.01.02-.03.03-.04.05-.02-.07-.03-.13-.05-.2-.02.02-.04.03-.05.05-.02.08-.04.16-.06.26.17-.09.27-.09.28.14-.05-.03-.09-.07-.12-.06-.05.01-.1.05-.15.08.06.02.12.03.15.04.06.24.13.46.19.69.1-.08.18-.15.24-.19-.03-.17-.06-.34-.08-.5.02,0,.04-.01.07-.02.04.07.09.14.16.25.01-.25.02-.45.03-.67-.09.05-.15.08-.22.11-.02-.08-.04-.14-.06-.21h.3c0-.1-.04-.2,0-.25Z"/>
      <path class="cls-1" d="M22.11,12.17c-.07-.05-.13-.09-.15-.1-.16.03-.26.07-.37.06-.44-.04-.89-.12-1.33-.14-.32-.01-.64.05-.96.07-.11,0-.21,0-.32-.03,1.1-.12,2.21-.04,3.34-.05-.09.08-.15.14-.22.21Z"/>
      <path class="cls-1" d="M16.41,11.97s.04-.07.07-.07c.54,0,1.07,0,1.61,0,.03,0,.05.02.08.06-.5.02-1,.05-1.51.06-.08,0-.17-.04-.25-.06,0,0,0,0,0,0Z"/>
      <path class="cls-1" d="M29.84,78.87c-.03-.51-.14-1.02-.09-1.53.02,0,.05,0,.07,0,.03.51.05,1.02.08,1.54-.02,0-.04,0-.06,0Z"/>
      <path class="cls-1" d="M26.1,12.26c.06.06.12.11.18.17,0,0,0,.03,0,.08-.19-.04-.4,0-.55-.2.13-.01.25-.03.37-.04,0,0,0,0,0,0Z"/>
      <path class="cls-1" d="M31.54,12.5c-.15,0-.3-.02-.45-.03.15-.14.34-.11.45.03,0,0,0,0,0,0Z"/>
      <path class="cls-1" d="M31.16,81.45c.05.18.09.36.14.54-.24-.14-.09-.36-.14-.54Z"/>
      <path class="cls-1" d="M17.1,13.02c.16.01.29.02.42.03q-.26.15-.42-.03Z"/>
      <path class="cls-1" d="M37.44,37.96c-.21.31-.43.62-.66.96.03-.16.05-.29.07-.43.05-.05.12-.11.18-.19,0,0-.06-.07-.11-.12.15-.13.31-.28.47-.42-.01-.02-.02-.03-.03-.05-.04.01-.08.02-.12.03v-.03c.15-.12.31-.24.47-.36-.01-.02-.02-.04-.03-.06-.06.01-.13.03-.22.05.03-.04.05-.08.07-.08.32.03.36-.26.49-.43.42-.59.81-1.2,1.23-1.8.23-.33.49-.64.75-.95.07-.08.17-.14.26-.21-.01,0-.04-.02-.08-.05.1-.07.13-.24.32-.15.04.02.15-.09.21-.16.28-.34.56-.68.84-1.03-.02,0-.04-.02-.07-.03.01-.07,0-.16.04-.21.41-.49.82-.99,1.24-1.47.18-.21.42-.37.58-.59.12-.17.21-.36.37-.49.05-.04.09-.09.14-.14-.03-.02-.07-.05-.1-.08.2-.14.39-.27.57-.41.03-.02.19-.07.04-.16,0,0,0-.03,0-.04.13-.2.25-.42.4-.61.16-.2.36-.38.53-.58.23-.27.45-.55.68-.83.05-.06.09-.12.16-.16-.36.88-.95,1.61-1.44,2.4-.49.79-1.02,1.54-1.7,2.18.02.02.04.03.06.05.14-.16.27-.31.41-.47.01,0,.02.02.04.02-.13.2-.26.39-.39.59-.37.56-.73,1.12-1.11,1.67-.51.74-1.04,1.47-1.56,2.2-.42.59-.84,1.19-1.25,1.79-.42.61-.87,1.19-1.24,1.83-.36.63-.75,1.23-1.23,1.78-.13.16-.2.36-.31.54-.03.05-.06.11-.11.14-.38.19-.64.5-.9.83-.27.35-.56.68-.85,1.03.18-.04.35-.09.52-.1.45-.02.81-.28,1.21-.42.18-.06.64.19.62.37,0,.07-.08.16-.15.19-.11.06-.24.07-.35.12-.19.07-.33.15-.45.37-.14.26-.38.5-.74.53-.16.01-.32.09-.48.13,0,.02,0,.04,0,.07.14.05.28.11.44.17-.02.04-.04.1-.07.11-.22.09-.45.18-.68.26-.14.05-.31.05-.44.11-.2.1-.39.02-.58.03-.1,0-.2.04-.26.05-.05.12-.08.21-.13.29-.02.03-.08.06-.11.05-.12-.04-.22-.1-.36-.16.19-.08.37-.15.54-.21,0-.03-.01-.05-.02-.08-.21.03-.41.06-.61.08.05-.34.24-.41.6-.53.09-.03.17-.1.26-.15,0-.02-.02-.04-.03-.06-.05,0-.1.02-.15.03,0-.01,0-.03,0-.04.33-.42.69-.82.99-1.26.31-.43.54-.91.85-1.34.32-.45.69-.88,1.04-1.32.06-.08.09-.19.14-.28.02-.04.05-.07.07-.11.53-.78,1.07-1.57,1.61-2.35.16-.23.32-.46.48-.69.05-.08.1-.15.15-.23-.02-.01-.04-.03-.05-.04-.29.33-.58.66-.86.99.15-.24.31-.48.46-.71-.14.09-.26.2-.35.34-.1.16-.17.33-.25.5Z"/>
      <path class="cls-1" d="M40.43,33.52c.1-.11.21-.21.31-.32.02.01.03.03.05.04l-.28.35s-.06-.05-.08-.07Z"/>
      <path class="cls-1" d="M58.38,19.39c-.07-.08-.14-.15-.21-.24-.11-.13-.19-.29-.31-.39-.33-.26-.46-.65-.69-.98-.06-.09-.12-.18-.16-.28.45.2.59.67.9,1,.31.33.7.6.89,1.14-.16-.05-.27-.08-.37-.13-.02-.01-.01-.1-.02-.15-.01,0-.02.02-.04.02Z"/>
      <path class="cls-1" d="M54.22,8.37s-.03-.02-.05-.03c-.14.36-.44.66-.45,1.07,0,.05-.06.09-.12.12.05-.32.09-.64.14-.97,0-.01-.01-.04,0-.04.32-.11.06-.35.12-.52.1-.31.18-.63.27-.94h.27c-.06-.07-.1-.11-.15-.16,0-.02.02-.04.03-.06.07.03.15.06.22.09-.01.08-.03.16-.04.27-.04,0-.1.02-.19.05.05.04.08.07.12.1-.04.02-.07.05-.11.07.04.06.07.12.11.2-.41.08.03.3-.11.43-.01-.05-.03-.09-.04-.14-.02,0-.04,0-.06.01.02.15.04.3.06.46,0,0,0,0,0,0Z"/>
      <path class="cls-1" d="M54.66,5.62c-.03-.13-.07-.24-.09-.35,0-.02.11-.05.2-.09-.03-.13-.06-.28-.09-.44.08.02.13-.02.05-.18.11.06.17.09.25.13-.06.06-.11.1-.2.19.12,0,.2,0,.28.01-.17.23-.32.46-.21.77.03.08-.03.2-.06.31-.27-.13-.29-.24-.14-.35Z"/>
      <path class="cls-1" d="M55.09,4.19c-.08-.06-.16-.11-.26-.19.06-.24.12-.51.18-.78.01,0,.07,0,.14.01-.03-.08-.06-.13-.08-.18.01,0,.03-.02.04-.03.05.09.11.17.16.26-.24.14-.24.18-.03.3-.03.04-.07.07-.09.11-.02.03-.04.07-.08.13.08,0,.13,0,.18-.01.04,0,.08-.01.13-.02-.08.3-.28.09-.48.1.13.1.22.17.33.26-.07.01-.11.02-.15.03h0Z"/>
      <path class="cls-1" d="M55.3,5.58c-.16-.11-.21-.5-.08-.6.19-.14.15-.34.19-.52.06-.2.1-.4.15-.61.02,0,.05,0,.07,0,0,.07.03.15.01.22-.05.16.07.39-.16.5,0,0,.02.07.01.09-.05.15.06.34-.19.45-.16.06-.12.27-.02.47Z"/>
      <path class="cls-1" d="M55.09,5.65c.09.04.15.07.18.08-.06.23-.12.44-.19.68-.24-.27,0-.49,0-.76Z"/>
      <path class="cls-1" d="M55.09,4.19c.07.06.08.12-.02.16-.15.06-.19-.03-.24-.16.1,0,.19,0,.27,0,0,0,0,0,0,0Z"/>
      <path class="cls-1" d="M43.74,95.86c.39-.12.78-.25,1.17-.37-.37.17-.73.38-1.17.37,0,0,0,0,0,0Z"/>
    </g>
  </g>
</svg>