<?xml version="1.0" encoding="UTF-8"?>
<svg id="Layer_2" data-name="Layer 2" xmlns="http://www.w3.org/2000/svg" viewBox="0 0 69.86 39.67">
  <defs>
    <style>
      .cls-1 {
        fill: #000;
        stroke-width: 0px;
      }
    </style>
  </defs>
  <g id="illustrations">
    <g>
      <path class="cls-1" d="M60.45,38.64s.09-.1.14-.11c.14-.03.28-.04.46-.07-.16-.37-.6-.24-.8-.52.22-.05.43-.09.64-.13.32-.06.64-.11.95-.2.12-.04.21-.17.32-.26.03-.03.09-.02.12-.05.1-.06.23-.12.28-.21.05-.09.01-.22.01-.38.27-.23.59-.5.89-.76,0-.33.27-.48.43-.69.27-.34.6-.24.94-.14.11-.13.22-.28.35-.41.26-.25.58-.4.91-.5.02,0,.06,0,.09.01.15.1.23.08.36-.07.1-.12.34-.11.51-.16.08-.02.17-.03.25-.07.47-.24.86-.55,1.05-1.08.14-.41.33-.81.48-1.22.05-.14.04-.31.05-.46,0-.41.01-.82,0-1.24,0-.07-.07-.14-.1-.21-.02-.03-.04-.07-.05-.11-.03-.22-.06-.27-.33-.44.03.1.06.17.08.25-.01.01-.03.02-.04.03-.18-.16-.38-.3-.46-.54-.01-.04.01-.14.04-.15.05-.02.14-.02.19.01.08.05.14.13.24.18-.04-.14-.05-.3-.14-.41-.21-.26-.16-.52-.11-.81.17-1.01.36-2.02.01-3.02-.17-.49-.48-.92-.88-1.25-.52-.42-1.07-.8-1.61-1.2-.26-.19-.53-.39-.78-.59-.41-.32-.68-.72-.78-1.25-.13-.66-.43-1.25-.86-1.77-.36-.43-.72-.88-1.11-1.29-.15-.16-.37-.34-.58-.37-.45-.06-.79-.37-1.21-.47-.17-.04-.35-.2-.5-.16-.28.06-.49-.17-.79-.07-.21.07-.47-.03-.71-.04-.11,0-.23.01-.34.07.19.03.37.06.56.08.07.01.15.01.22.03.22.04.24.09.09.25-.12.13-.24.29-.39.35-.19.08-.35.23-.61.21-.19-.02-.34-.08-.43-.19-.21-.26-.52-.3-.79-.43-.39-.19-.86-.1-1.24-.36-.11-.08-.31-.02-.46-.05-.64-.12-1.3-.18-1.94-.33-.41-.1-.85-.06-1.27-.09-.3-.02-.59-.06-.89-.08-.05,0-.1.03-.2.06-.02-.03-.06-.12-.11-.2-.01.04-.02.07-.03.11-.14.05-.29.16-.4.13-.3-.1-.56,0-.84.08-.39.1-.78.2-1.17.3-.45.11-.9.21-1.35.31-.11.03-.29,0-.33.07-.11.18-.25.18-.41.14-.08-.02-.16-.06-.26-.1-.02.27-.12.34-.37.28-.17-.04-.36.08-.55.1-.2.02-.39,0-.59,0,0-.02-.01-.04-.02-.06.13-.05.27-.12.4-.16.25-.08.51-.15.76-.23.04-.01.11-.02.12-.05.1-.24.32-.18.51-.23.26-.07.52-.16.78-.24.05-.01.11-.04.15-.03.38.13.73-.1,1.09-.12.01,0,.03-.01.04,0,.23.06.4-.11.6-.14.24-.04.48-.08.72-.12.23-.04.47-.07.7-.11.23-.04.46-.1.7-.14.14-.02.29-.02.44-.03.15-.01.3-.03.45-.04.01,0,.03,0,.04,0,.31.11.63.06.96.07.38,0,.77.07,1.15.17.33.09.67.13,1,.18.11.02.22-.01.33,0,.2.02.39.06.59.09.04,0,.09,0,.11.02.17.17.37-.02.55.05.02,0,.11-.09.12-.15.02-.28-.04-.56.13-.82.09-.15-.11-.6-.27-.7-.46-.31-.84-.7-1.01-1.24-.07-.23-.08-.49-.05-.73.05-.42-.09-.79-.2-1.17-.05-.17-.1-.34-.13-.51-.09-.46-.3-.84-.66-1.14-.21-.18-.41-.38-.64-.52-.22-.14-.48-.21-.73-.31-.18-.08-.32-.23-.55-.18-.1.02-.24-.07-.33-.14-.19-.14-.34-.14-.57-.02-.07.04-.19.02-.28,0-.48-.11-.95-.08-1.37.15-.2.11-.36.12-.57.07-.21-.05-.44-.1-.5-.31-.07-.24,0-.48.24-.66-.32-.45-.66-.88-1.09-1.23-.18-.15-.36-.3-.56-.42-.11-.07-.25-.09-.38-.11-.15-.02-.3,0-.41-.16-.05-.06-.19-.06-.29-.07-.22-.02-.44-.03-.67-.05,0,.02.02.08.05.19-.09-.05-.13-.07-.18-.09-.05-.02-.11-.05-.14-.03-.29.2-.61.1-.92.13-.25.02-.38-.21-.53-.36-.23-.25-.44-.52-.66-.78-.11-.13-.23-.25-.36-.36-.29-.23-.49-.51-.6-.85-.13-.39-.43-.62-.76-.82-.31-.19-.63-.34-1.01-.38-.32-.04-.64-.15-.99-.23.18-.02.34-.03.5-.05,0-.02.01-.04.02-.07-.1-.05-.2-.13-.31-.16-.36-.09-.71-.06-1.07.03-.46.11-.85.35-1.27.54-.17.08-.36.13-.55.03-.04-.02-.13,0-.17.03-.31.26-.69.36-1.08.4-.12.01-.23.06-.34.09-.52.16-.94,0-1.3-.38-.24-.26-.47-.52-.71-.78-.05-.06-.12-.1-.19-.14-.2-.12-.41-.24-.62-.36-.04-.02-.09-.05-.12-.04-.26.09-.45-.05-.66-.17-.09-.05-.22-.02-.33-.02-.05,0-.11.06-.14.04-.31-.16-.63-.01-.97-.03,0,.04,0,.09.01.18-.21-.02-.42-.03-.65-.05.04.07.07.12.13.23-.17-.02-.29-.02-.4-.06-.13-.04-.21-.06-.34.04-.15.12-.36.17-.57.26.13.06.31-.17.35.12-.24-.01-.45.23-.73.05-.05-.03-.21.04-.25.11-.08.15-.22.15-.34.19-.18.07-.36.14-.54.2-.21.08-.22.24-.18.42.02.09.04.19.07.28.04.17,0,.26-.19.24-.04,0-.09.04-.13.07-.18.14-.36.28-.55.46.14-.05.28-.09.46-.15-.14.15-.24.29-.37.38-.07.05-.19,0-.26,0,0,.06,0,.15-.03.17-.14.08-.3.13-.46.2,0,.03.03.1.02.11-.31.21-.52.5-.7.83-.07.13-.24.21-.36.31-.01-.02-.03-.03-.04-.05,0,.03.02.07.03.11-.08,0-.15,0-.23-.01.05.22-.09.24-.22.19-.31-.14-.59-.12-.92,0-.51.19-1.05.1-1.57.03-.23-.03-.47-.07-.7-.07-.13,0-.26.09-.39.13-.1.03-.21.04-.31.05,0,.04.07.15.04.22-.03.09-.13.16-.2.23-.06.06-.11.12-.18.16-.26.16-.38.28-.59-.14-.02.03-.05.05-.05.07-.02.24-.17.28-.39.32-.31.06-.63.15-.74.54-.03.12-.2.19-.32.26-.09.04-.21.06-.27.13-.39.52-.77,1.05-1.14,1.59-.43.62-.87,1.23-1.27,1.87-.4.65-.75,1.34-1.13,2.01-.32.56-.54,1.16-.68,1.8-.07.31-.18.61-.26.92-.06.24-.11.49-.17.73-.03.1-.1.18-.12.28-.12.43-.19.87-.16,1.32.03.4-.01.8.02,1.19.02.35.1.69.15,1.03.04.28.07.57.12.85.03.15.11.29.13.44.06.41.41.69.5,1.08.08.4.39.64.61.95.11.15.26.28.41.44-.01,0-.05.02-.1.03.12.1.21.16.28.23.2.2.4.39.53.65.1.2.37.31.51.51.27.37.62.62,1.02.8.09.04.22,0,.33,0,.09,0,.21-.03.27.02.4.29.79.59,1.18.89.02.01.02.05.03.1-.08,0-.14.01-.21.02.63.09.91.65,1.35,1,.36.29.7.61,1.05.92,0,.01-.01.09.01.1.5.31.91.72,1.33,1.12.43.41.85.82,1.27,1.22.14.13.21.25.18.46-.02.17-.15.19-.23.19-.21,0-.42-.03-.63-.07-.06,0-.13-.04-.17-.09-.19-.2-.38-.42-.57-.63-.24-.27-.48-.54-.72-.81-.38-.43-.74-.88-1.13-1.31-.25-.27-.52-.52-.79-.77-.34-.32-.68-.63-1.04-.93-.09-.08-.22-.12-.34-.14-.22-.04-.37-.15-.5-.32-.09-.12-.18-.23-.36-.19-.04,0-.1-.03-.14-.05-.26-.17-.52-.35-.78-.53-.37-.25-.76-.48-1.1-.77-.27-.23-.47-.54-.7-.81-.08-.09-.16-.19-.25-.28-.11-.11-.24-.19-.33-.31-.44-.54-.88-1.09-1.3-1.65-.17-.22-.27-.51-.46-.71-.28-.29-.42-.62-.45-1.02-.01-.17-.05-.35-.2-.48-.06-.06-.05-.19-.08-.29,0-.03-.02-.06-.03-.1-.04-.11-.07-.22-.11-.34l.08-.05c.09.05.18.1.3.17-.07.05-.12.07-.18.11.07.09.15.17.2.26.04.08.16.13.06.27-.03.05.11.21.17.32.23.37.43.75.69,1.1.26.35.57.66.86.98.02-.01.04-.03.05-.04-.11-.23-.18-.48-.33-.67-.2-.26-.24-.55-.31-.85-.04-.18-.11-.34-.14-.52-.1-.58-.33-1.15-.29-1.75.02-.27.06-.53.06-.8,0-.12-.06-.23-.09-.35-.02-.09-.02-.18-.02-.27.03-.01.07-.03.1-.04l-.19-.07s.03-.05.04-.07c.07.02.13.03.21.05-.22-.42-.07-.9.13-.97.03-.18.04-.34.07-.49.05-.22.1-.44.17-.65.03-.09.11-.16.19-.27-.07,0-.12,0-.21.01.09-.18.17-.35.25-.52,0,0,0-.01,0-.02,0-.57.3-1.05.44-1.57.03-.11.09-.2.11-.31.02-.1-.01-.2-.02-.31.13,0,.2-.08.05-.25.07-.03.12-.05.17-.07,0,0,0-.02,0-.03-.1,0-.21.01-.31.02.04-.06.08-.13.13-.22.22.14.39.05.48-.16.07-.16.25-.28.16-.5,0-.02.08-.16.11-.18.15-.13.31-.22.25-.46,0-.02.05-.05.07-.08.21-.27.42-.55.63-.83.13-.17.24-.34.38-.54,0,0-.03-.04-.06-.07,0-.01.01-.02.02-.03.11-.1.23-.18.32-.29.35-.43.68-.87,1.02-1.31.08-.11.16-.21.24-.32.29-.39.68-.66,1.06-.97.41-.33.87-.55,1.32-.8.13-.07.28-.13.5-.22-.34-.15-.62-.29-.91-.41-.54-.21-1.11-.08-1.66-.1-.72-.02-1.34.26-1.93.61-.35.21-.68.45-1.01.67-.03.02-.06.04-.1.05-.48.12-.97.22-1.45.36-.52.15-1.03.35-1.4.79-.26.31-.53.62-.76.95-.18.25-.3.54-.45.81-.03.06-.08.11-.12.16.12.02.24.05.37.06.04,0,.08-.01.12-.03.16-.06.32-.12.48-.17.03,0,.11.03.12.06.02.1.05.22.01.29-.15.26-.35.46-.7.45-.15,0-.3,0-.45.15-.11.12-.37.17-.55.14-.33-.04-.62-.08-.94.07-.36.17-.75.26-1.12.42-.45.19-.9.38-1.41.25-.06-.01-.15.02-.2.07-.26.27-.58.52-.74.84-.22.45-.44.93-.39,1.47.03.28,0,.58-.07.86-.08.29-.22.57-.37.83-.43.73-.93,1.42-1.1,2.27,0,.05-.05.09-.07.14-.04.11-.14.26-.1.33.09.17.24.31.37.45.03.04.08.06.16.12-.04-.12-.07-.19-.1-.26.05-.05.1-.11.2-.21.03.38.06.7.1,1.02.04.31.09.62.14.94-.03,0-.05,0-.08,0,0-.06.01-.14-.02-.18-.08-.09-.11-.23-.3-.2-.12.02-.25-.08-.41-.15-.05.06-.11.17-.2.23-.07.05-.19.03-.28.05-.01-.02-.03-.04-.04-.07-.04.12-.09.23-.1.35-.03.22-.16.36-.3.51-.2.21-.38.44-.56.67-.02.03-.02.11,0,.13.17.17.05.31-.03.47-.05.11-.15.23-.13.33.04.35-.06.72.12,1.06.1.19.19.38.27.58.24.56.65.98,1.13,1.34.45.34.98.49,1.54.59.41.07.8.24,1.2.37.48.16.97.3,1.43.49.43.17.86.11,1.3.06.12-.01.25,0,.37.03.2.04.39.11.6.17-.07.03-.14.06-.25.1.17,0,.29-.02.47-.03-.09.08-.13.12-.18.16.16.09.31.17.45.26.01,0,0,.07-.01.09-.26-.12-.51-.23-.75-.34-.01.13-.02.21-.03.29-.14-.06-.21.28-.39.07-.04-.05-.13-.05-.2-.08-.01.02-.03.05-.04.07.18.14.33.32.53.41.4.19.82.34,1.23.5.24.09.49.19.74.26.38.11.77.18,1.16.28.17.04.32.14.49.18.08.02.17-.01.32-.02.17.09.41.22.64.34.01-.02.03-.04.04-.06-.05-.05-.1-.11-.15-.16.12.04.34-.03.28.27.34.07.68.19,1.04.22.63.06,1.22.26,1.81.44.38.11.78.18,1.15.3.42.15.83.34,1.25.51.15.06.3.1.47.11-.58-.32-1.16-.63-1.72-.94h.27s0-.04.01-.06c-.16-.02-.31-.04-.47-.06-.23-.04-.48-.02-.62-.28.03-.03.07-.07.1-.1-.02-.02-.03-.04-.04-.04-.32-.1-.64-.22-.96-.3-.67-.16-1.2-.59-1.77-.95-.21-.13-.47-.21-.62-.39-.25-.29-.54-.34-.88-.42-.49-.12-.95-.38-1.34-.71-.14-.12-.28-.22-.43-.32-.04-.03-.13-.04-.16-.01-.18.13-.23-.03-.3-.13-.1-.13-.17-.33-.3-.38-.33-.14-.43-.5-.72-.66-.03-.01-.02-.08-.04-.14-.07.21-.17.1-.23.04-.32-.32-.65-.64-.95-.97-.27-.29-.52-.6-.75-.93-.14-.21-.24-.45-.34-.69-.18-.41-.39-.82-.52-1.25-.28-1-.42-2.03-.27-3.07.07-.53.16-1.05.29-1.57.12-.49.29-.97.47-1.44.16-.41.35-.82.55-1.21.17-.34.38-.65.59-.98.04-.06.12-.1.16-.14.04-.38.47-.6.34-1.04.03,0,.05,0,.08,0,.06.05.12.1.18.15,0,.01-.01.03-.02.04-.05,0-.1-.01-.16-.02.02.03.02.04.04.06.03.04.1.11.09.12-.13.21-.02.48-.22.68-.09.09-.07.29-.12.42-.16.42-.35.82-.5,1.25-.06.18-.18.3-.28.44-.12.17-.16.41-.23.62-.08.26-.15.53-.23.79-.09.33-.21.66-.28.99-.07.34-.1.69-.13,1.03-.02.18-.01.37,0,.56.04.42.07.85.13,1.27.03.18.09.37.15.54.12.33.23.67.38.99.17.37.33.76.57,1.08.31.42.69.78,1.04,1.17.12.13.2.29.33.41.19.18.39.34.59.49.58.45,1.16.89,1.75,1.33.31.23.6.51.95.65.25.1.46.24.69.36.11.06.23.11.31.2.11.13.23.15.4.18.15.02.29.18.43.28.31.21.62.43,1,.51.03,0,.06.01.08.03.31.21.67.3,1.02.42.57.18.96.65,1.5.89.14.07.23.25.36.35.22.16.47.27.66.5.14.18.41.25.62.36.06.03.13.06.18.1.13.1.25.18.43.11.12-.05.24.14.2.29-.07.26,0,.48.25.57.2.07.34.29.62.2.07-.02.27.15.29.26.03.18.14.22.27.28.63.28,1.27.55,1.9.83.24.11.49.2.72.33.19.11.36.26.54.41-.33-.03-.66-.18-.99-.04.45.26.92.48,1.22.93-.41-.13-.84-.2-1.11-.59-.15-.22-.37-.37-.62-.45-.12-.04-.23-.12-.36-.16-.2-.07-.4-.12-.61-.18-.33-.08-.66-.16-.98-.24-.38-.09-.75-.2-1.13-.29-.41-.1-.85-.12-1.22-.3-.4-.18-.81-.14-1.2-.25-.18-.05-.38-.02-.57-.05-.1-.01-.2-.04-.29-.09-.17-.1-.35-.16-.55-.15-.03,0-.07,0-.1-.02-.25-.15-.52-.14-.8-.14-.11,0-.23-.05-.35-.07.01-.02.04-.05.08-.09-.03,0-.06-.02-.07-.02-.17.07-.34.08-.5-.04,0,0-.01,0-.02-.01-.34-.08-.67-.15-1.01-.22-.06-.01-.15,0-.17-.02-.15-.27-.38-.18-.61-.16-.1,0-.2-.01-.3-.06.07.01.13.02.23.04-.17-.17-.21-.17-.38-.08-.04.02-.13.02-.13.01-.07-.17-.22-.12-.34-.14-.28-.07-.55-.15-.84-.2-.63-.11-1.27-.17-1.89-.33-.28-.07-.56,0-.82-.11-.34-.13-.68-.27-1.02-.41-.28-.12-.56-.25-.84-.38-.06-.03-.12-.08-.18-.11-.15-.07-.31-.16-.47-.2-.5-.15-.84-.54-1.23-.85-.22-.18-.47-.32-.64-.53-.15-.19-.35-.32-.48-.55-.14-.26-.45-.43-.68-.64-.21-.19-.41-.37-.61-.56-.15-.15-.28-.33-.43-.49-.03-.03-.08-.06-.11-.06-.2.03-.31-.1-.44-.22-.26-.24-.55-.45-.75-.73-.22-.3-.36-.65-.5-.99-.17-.41-.33-.83-.42-1.27-.09-.4-.18-.84-.1-1.23.1-.5.07-1.02.24-1.5.19-.56.51-1.05.9-1.49.15-.17.26-.36.42-.51.11-.1.27-.15.4-.23.08-.05.18-.09.21-.16.21-.6.44-1.18.73-1.75.29-.57.57-1.16.79-1.76.11-.32.09-.68.11-1.03.03-.53.09-1.05.3-1.55,0-.02,0-.05.02-.06.46-.45.77-1.09,1.46-1.25.27-.06.58-.04.86,0,.26.05.47-.01.69-.14.13-.08.29-.12.43-.18.15-.06.3-.12.46-.17.26-.09.53-.18.8-.24.21-.05.44,0,.63-.08.13-.05.23-.23.31-.37.29-.5.54-1.03.87-1.51.35-.51.71-1.02,1.19-1.41.54-.44,1.17-.66,1.88-.59.45.04.84-.09,1.19-.34.7-.5,1.49-.8,2.29-1.11.78-.3,1.57-.24,2.38-.16.55.06.94.4,1.38.67.04.03.09.07.1.11.04.28.22.34.46.31.15-.02.3-.03.44-.01.1,0,.24.03.29.09.14.2.31.13.49.1.11-.02.22,0,.38,0,.68-.7,1.37-1.48,2.13-2.19.55-.51,1.12-1.03,1.81-1.35.44-.2.9-.36,1.35-.56.31-.14.6-.31.9-.46.44-.22.9-.34,1.39-.31.48.03.96.07,1.43.11.02,0,.04,0,.06.02.44.19.9.36,1.33.59.21.11.37.34.56.5.1.08.22.15.34.19.24.07.43.19.54.42.07.14.16.19.32.14.25-.08.51-.17.77-.2.29-.03.59-.06.87.11.06.04.16.06.22.04.13-.05.26-.13.35-.23.19-.21.42-.28.69-.27.06,0,.14-.01.19-.04.47-.23.97-.13,1.47-.12.25,0,.51,0,.76.02.16.02.34.05.47.13.28.17.53.39.8.58.11.07.25.09.35.17.12.09.22.21.32.32.08.08.17.16.23.26.16.26.31.53.47.79.07.11.17.21.26.3.29.29.58.58.87.87.1.1.19.09.33.08.26-.02.54.03.8.08.17.03.33.11.49.16,0-.02.01-.04.02-.05-.04-.01-.07-.03-.11-.04,0-.02.02-.04.03-.06.1.06.21.12.31.17.05.02.09.05.14.05.16.02.33.04.49.06.92.13,1.7.53,2.29,1.26.16.2.27.46.38.7.19.41.24.46.68.4.55-.08,1.08.01,1.61.16.38.1.77.18,1.15.29.13.04.26.1.38.17.28.16.56.32.83.49.49.31.83.76,1.1,1.26.4.76.55,1.6.57,2.44.01.62.19,1.1.66,1.49.08-.1.17-.12.25.02.21.35.43.69.64,1.03.23.38.5.63,1.02.57.55-.06,1.12-.05,1.67,0,.36.04.7.21,1.05.34.41.15.79.36,1.16.6.5.34.83.79,1.13,1.28.15.24.31.47.43.72.19.41.37.83.5,1.26.11.37.29.68.49,1,.03.05.05.1.04.18-.1-.06-.19-.12-.29-.19-.1.16-.06.27.12.36.85.45,1.73.84,2.54,1.36.83.54,1.53,1.24,1.84,2.22.11.34.23.69.27,1.04.03.29-.06.59-.11.88,0,.05-.09.09-.14.13-.07.07-.14.13-.24.22.1.04.16.06.29.11-.16.07-.27.12-.32.15-.09.38-.19.74-.27,1.1-.02.12-.01.27.03.38.09.24.13.54.47.59.02,0,.06.04.06.06,0,.23.2.34.28.52.07.17.14.34.17.52.05.27.06.55.11.82.02.13.08.25.13.37.07.18-.01.29-.2.26,0,.02,0,.05,0,.06.04.06.12.13.11.18-.02.14-.09.27-.13.4-.02.06-.03.12-.05.19-.06.23-.09.46-.18.68-.09.21-.22.4-.34.58-.13.2-.22.44-.49.5-.1-.2-.17,0-.25.04-.19-.13-.34-.07-.33.16.01.27-.1.39-.34.45-.09.02-.17.05-.18.18,0,.07-.13.15-.22.18-.14.06-.29.07-.43.12-.08.03-.15.11-.23.13-.41.07-.82.13-1.23.2-.17.03-.35.06-.47.22-.26.34-.61.59-.98.81-.05.03-.08.11-.11.17-.03.04-.04.09-.08.12-.33.26-.67.49-.89.87-.15.25-.45.39-.79.37.02.05.04.09.08.19-.57.03-1.1.07-1.64.1h0ZM14.93,29.84c-.17-.22-.42-.16-.65-.2.1.07.2.14.29.2-.14.04-.26.07-.37.1-.12-.09-.25-.19-.4-.29.04-.03.1-.06.21-.13-.13-.02-.21-.03-.29-.04-.18-.02-.38,0-.54-.07-.24-.08-.44-.25-.68-.33-.32-.11-.65-.16-.97-.24,0,.01-.01.02-.02.03.13.11.25.22.38.33-.01.02-.03.04-.04.06-.21-.11-.41-.22-.65-.34.1-.07.14-.1.19-.14-.18-.05-.35-.06-.47-.14-.43-.3-.91-.44-1.41-.53-.1-.02-.19-.08-.32-.13-.02.01-.11.08-.18.07-.19-.03-.36-.1-.55-.15-.15-.03-.31-.08-.45-.07-.31.03-.59-.05-.88-.14-.32-.1-.6-.37-.97-.25,0-.07.01-.12.01-.17-.1,0-.2.02-.35.03.14.16.23.3.34.4.31.29.62.57.93.86.65.6,1.36,1.09,2.23,1.31.36.09.74.12,1.11.16.13.02.26,0,.39.02.17.02.35.05.52.06.15.01.31,0,.46.03.84.14,1.68.3,2.53.42.15.02.34.18.44-.04.3.26.68.24,1.05.33-.02-.09-.03-.14-.04-.21.09.02.16.04.23.06-.03.04-.05.08-.09.14.21.03.39.06.58.09,0-.01,0-.03.01-.04-.07-.02-.13-.05-.22-.08.12-.02.21-.04.29-.05,0-.03,0-.06.01-.08-.57-.05-1.11-.21-1.57-.55.29-.08.56.03.8.14.25.12.47.27.76.28.06,0,.13.01.21.02-.05.05-.08.09-.11.13.19.07.37.14.54.21,0,0,0,.02-.01.03-.18-.02-.36-.05-.54-.07,0,.02,0,.04-.01.07.32.07.64.15.96.22,0-.02,0-.03.01-.05-.09-.05-.17-.1-.26-.15.05-.02.1-.02.13,0,.1.07.19.19.3.22.18.05.37.04.56.06.01-.02.02-.04.03-.06-.04-.05-.07-.11-.12-.14-.1-.05-.22-.07-.31-.12-.15-.08-.28-.21-.43-.25-.67-.17-1.31-.42-1.94-.71-.21-.1-.43-.14-.66-.1ZM26.19,2.75c-.37.2-.64.5-.87.84.33-.24.71-.42.87-.84ZM63.51,18.54c0-.29-.24-.61-.48-.65.18.24.33.45.48.65ZM34.76,2.4c.09.13.13.21.19.28.09.09.29-.02.31-.17-.16-.03-.32-.07-.5-.11Z"/>
      <path class="cls-1" d="M29.26,16.18c-.04.05-.07.12-.12.16-.12.1-.14.3-.36.31-.05,0-.13.14-.12.21.03.16-.08.18-.17.24-.08.05-.15.12-.23.17-.06.03-.13.05-.2.07.14.3-.14.48-.26.7-.1.19-.29.33-.45.51.08-.01.13-.02.23-.03-.09.28-.17.53-.25.78-.1-.03-.18-.07-.25-.07-.14,0-.27.14-.19.24.17.24-.02.27-.16.33-.01,0-.02.02-.04.02.02.11.08.25.04.34-.04.1-.18.15-.29.23.03.04.05.09.08.14-.23.27-.23.3-.12.51-.29.33-.28.74-.34,1.15-.03.27-.09.54-.12.81-.01.09.03.18.02.27,0,.08-.04.15-.05.17,0,.13,0,.2,0,.27-.02.33,0,.68-.09,1-.05.19.11.31.06.5-.04.16-.02.35.07.51.03.05-.02.18-.07.23-.13.12-.13.19.02.28.05.03.11.17.1.18-.22.22.02.41.02.61,0,.18.14.32.09.54-.04.17.07.4.23.58.12.14.21.32.28.49.02.05-.05.15-.07.19.18.27.35.53.52.8.18.29.4.56.51.88.1.26.3.37.47.56.06-.05.11-.09.19-.16-.02.07-.02.11-.04.13-.17.1-.1.24-.06.37.06.19.13.37.19.56.08.25.17.5.31.76.03-.16.09-.32.08-.48-.01-.26-.11-.51-.11-.77,0-.34.03-.68,0-1.02,0-.09.09-.19.11-.29.06-.31.11-.63.17-.98.08.06.15.11.23.17-.08.04-.14.07-.22.11.08.05.14.08.21.12-.15.09-.25.18-.11.28-.03.15-.06.28-.08.4-.01,0-.06-.02-.1-.04,0,.04-.02.08-.02.12-.01.09-.02.18-.03.29.06-.04.1-.06.14-.09v.67s-.09.03-.14.04c.1.08.2.15.25.19-.01.22-.02.39-.04.56,0,.11-.03.23-.04.34,0,.04,0,.1.02.12.16.14.16.31.09.49-.03.07-.03.14-.05.21-.02.13-.04.26-.06.42.13.01.24.12.27.31,0,.01.22,0,.29,0,.09-.39.12-.74.26-1.05.24-.54.31-1.11.46-1.66.06-.22.14-.44.22-.66.12-.33.23-.66.36-.99.2-.48.46-.94.62-1.43.23-.74.7-1.36,1-2.06.2-.46.47-.9.77-1.33,0,.04,0,.08.01.12.24-.19.37-.5.26-.6.06-.05.11-.12.18-.16.07-.05.15-.07.22-.11,0-.02-.01-.03-.02-.05-.05,0-.1,0-.16.02,0-.02.01-.04.02-.06.15-.24.31-.47.46-.71.12-.2.22-.22.35-.07,0,0,0,.02,0,.02-.17.12-.32.23-.37.47-.05.24-.09.49-.24.7-.16.23-.28.49-.41.73-.33.62-.65,1.24-.98,1.86-.2.37-.41.73-.6,1.1-.09.18-.16.38-.23.57-.14.37-.27.74-.41,1.11-.11.3-.25.59-.35.89-.07.21-.06.45-.12.67-.05.16-.18.29-.21.45-.02.1-.04.2-.06.3-.15.66-.28,1.32-.41,1.99-.06.29-.13.59-.15.88-.01.14.09.29.15.46.35-.26.52-.58.64-.94.12-.4.25-.79.35-1.2.08-.32.11-.66.19-.98.06-.25.18-.49.27-.74.12-.36.21-.72.33-1.08.19-.53.37-1.06.59-1.58.26-.62.55-1.24.84-1.84.35-.72.72-1.44,1.09-2.16.15-.28.29-.57.47-.82.23-.32.49-.61.76-.89.49-.5.99-1,1.5-1.47.47-.43.94-.86,1.44-1.24.28-.21.55-.45.94-.5.26-.04.5-.26.75-.4-.01-.02-.02-.04-.03-.06-.08.04-.16.07-.24.11,0-.01-.02-.03-.02-.04.1-.06.19-.12.29-.17.44-.21.88-.41,1.31-.63.57-.3,1.12-.62,1.68-.94.06-.03.09-.1.14-.13.18-.13.34-.26.61-.18.16.05.37-.06.56-.09.16-.03.31-.06.47-.1,0,.03,0,.05.01.08-.56.18-1.12.37-1.68.55,0,.01-.01.02-.02.04.11,0,.21.01.31.02-.2.15-.42.2-.62.13-.03-.01-.08.02-.12.03.03.03.05.07.08.11-.26.14-.54.29-.81.45-.8.47-1.62.92-2.4,1.43-.72.47-1.44.95-2.07,1.52-.8.73-1.54,1.53-2.25,2.36-.38.45-.64,1-.94,1.52-.12.21-.19.45-.3.67-.14.27-.31.52-.44.79-.24.51-.45,1.02-.67,1.53-.12.28-.22.56-.34.84-.07.15-.16.3-.24.45-.01.03-.04.05-.04.08.04.43-.22.77-.32,1.16-.07.25-.09.51-.16.76-.06.24-.16.48-.21.72-.05.19-.06.39-.09.62.17.02.32.03.47.05,0,0,0,.02,0,.02-.05.01-.1.03-.15.03-.35,0-.45.11-.44.48,0,.16,0,.31.01.47,0,.06.05.13.09.16.03.02.11-.02.15-.05.05-.04.09-.1.13-.15.2-.27.39-.55.6-.83-.07-.19-.16-.42-.27-.72.22.1.39.18.58.27.27-.22.57-.44.85-.68.71-.6,1.41-1.2,2.11-1.8.56-.47,1.09-.99,1.69-1.39.62-.41,1.03-1.02,1.62-1.43.36-.26.75-.48,1.1-.75.84-.65,1.6-1.39,2.32-2.17.22-.24.49-.42.74-.63.01,0,.03-.01.04-.03.23-.47.73-.52,1.13-.72.38-.19.77-.36,1.17-.53.13-.05.27-.07.4-.12.14-.05.28-.11.41-.2.85-.56,1.76-.98,2.72-1.32.14-.05.29-.05.43-.07.76-.1,1.52-.21,2.28-.3.15-.02.32.04.47.05.15,0,.31,0,.46,0,.37,0,.74-.02,1.11,0,.37.01.74.04,1.1.09.66.08,1.32.17,1.97.29.29.05.57.18.86.28.03.01.06.03.09.02.33-.05.63.03.93.2.15.08.35.07.52.12.65.2,1.29.4,1.93.61.16.05.32.1.48.16.09.04.16.1.25.15,0,.02-.02.05-.03.07-.13,0-.26.03-.38,0-.23-.07-.5-.02-.68-.26-.09-.12-.21-.08-.21.1h-.21c.03-.06.06-.12.09-.19-.45-.23-.92-.38-1.41-.43-.1-.01-.2-.05-.3-.07-.15-.04-.3-.08-.45-.12-.17-.05-.35-.11-.55-.18-.03,0-.11.03-.18.02-.31-.04-.61-.07-.92-.13-.21-.04-.41-.13-.62-.15-.56-.06-1.12-.13-1.69-.15-.57-.02-1.15-.03-1.72.01-.48.04-.95.17-1.43.27-.61.13-1.22.25-1.83.41-.38.1-.76.24-1.13.37-.33.12-.66.25-.99.4-.59.27-1.17.56-1.75.84-.47.23-.94.46-1.4.72-.26.16-.49.38-.73.58-.46.39-.91.79-1.37,1.19-.33.28-.65.57-.98.84-.69.57-1.39,1.12-2.08,1.69-.51.42-1,.86-1.52,1.27-.6.47-1.23.9-1.83,1.37-.54.42-1.07.87-1.59,1.32-.34.29-.67.6-1,.91-.03.03-.02.13,0,.19.01.04.06.07.13.16.52-.35,1.06-.71,1.59-1.08.2-.13.37-.3.57-.42.32-.2.59-.44.86-.71.24-.24.59-.36.87-.57.57-.43,1.24-.65,1.87-.96.21-.1.43-.2.64-.31.56-.29,1.15-.42,1.77-.44.1,0,.19-.02.29-.03.09-.02.21-.07.23.08.02.13,0,.27-.17.28-.16.01-.33-.03-.49,0-.33.07-.67.13-.97.26-.5.21-.96.5-1.46.7-.39.15-.71.41-1.04.63-.58.38-1.14.79-1.7,1.2-.22.16-.41.36-.64.57.38-.12.7-.26,1.04-.34.28-.06.57-.05.86-.07.14-.06.3-.12.46-.18.05-.02.1-.05.16-.06.13-.03.25-.05.38-.06.03,0,.07.02.09,0,.33-.2.7-.02,1.05-.16.23-.09.51-.09.76-.09.39,0,.78.02,1.17.01.42-.01.84-.09,1.26-.07.37.02.74.13,1.1.22.11.03.21.13.31.2.01-.02.02-.03.04-.05-.08-.07-.15-.14-.23-.21,0-.01.01-.02.02-.04.19.04.41.03.57.12.23.14.46.11.69.16.36.07.71.17,1.07.26.07.1-.09.3.12.3.1,0,.19-.08.29-.12,0-.03,0-.05-.01-.08.18.09.36.19.54.28.05.02.1.06.14.06.22-.02.36.13.52.23.2.12.4.25.59.36-.25-.04-.51-.05-.75-.12-.15-.04-.3-.13-.4-.24-.16-.2-.37-.28-.6-.26-.28.03-.53-.03-.78-.17-.15-.08-.34-.08-.52-.12-.31-.07-.61-.17-.92-.22-.31-.05-.63-.05-.94-.09-.36-.04-.72-.09-1.08-.13-.12-.01-.24,0-.35,0-.26,0-.51,0-.75-.01-.01-.02,0,0,.04.06-.06,0-.11-.01-.15-.01-.15,0-.28-.02-.44.02-.18.04-.39.09-.59.09-.33,0-.66.04-.99.07-.08,0-.16.01-.24.04-.09.03-.18.09-.29.14-.06-.03-.18-.09-.29-.15-.01.02-.02.03-.03.05.02.03.04.06.07.12h-.7c.05.07.08.11.11.14,0,0-.01.01-.02.02-.26.06-.53.12-.79.19-.15.04-.29.09-.43.14-.18.07-.35.14-.53.21,0,.02.01.05.02.07.05.03.1.05.15.08-.02.02-.03.04-.03.04-.51-.17-.85.25-1.28.37-.15.04-.3.1-.42.18-.1.07-.17.19-.26.3.06.18.2.09.3.05.21-.07.41-.19.62-.24.35-.08.71-.14,1.07-.17.98-.08,1.96-.15,2.95-.22.7-.05,1.4-.09,2.1-.15.64-.05,1.23.11,1.78.44.28.17.61.27.79.58.02.03.05.05.09.07.39.19.78.37,1.18.55.13.06.28.13.42.12.3-.02.37.19.46.4.02.04.04.08.07.15-.34-.07-.66-.11-.97-.21-.2-.07-.36-.27-.56-.33-.3-.1-.55-.25-.78-.46-.03-.03-.11,0-.14,0-.04-.06-.05-.13-.09-.15-.35-.16-.71-.31-1.07-.45-.14-.05-.29-.08-.43-.09-.6-.04-1.21-.16-1.81.06-.15.05-.32.03-.48.04-.07,0-.14.03-.21.05,0,.02,0,.04,0,.05l.54.16s0,.03,0,.04c-.09,0-.18,0-.27.01h0c-.07-.02-.13-.07-.21-.08-.25-.03-.5-.04-.76-.09h.2c-.11-.15-.23-.2-.42-.17-.22.04-.45-.02-.68-.03-1.03-.03-1.97.31-2.9.66,0,.02,0,.04,0,.06.09,0,.19,0,.28,0,.33,0,.66,0,.99,0,.31,0,.62,0,.92.04.56.06,1.12.14,1.68.21.6.07,1.19.14,1.79.19.43.04.85.07,1.28.09.11,0,.22-.04.33-.03.17.01.34.05.51.07.27.03.55.03.81.08.53.11,1.06.25,1.58.4.34.1.67.22,1,.34,0,0,.01.01.02,0,.34-.11.58.12.85.25.34.16.35.14.58-.19.28.14.57.27.85.42.34.19.68.4,1.02.59.04.02.1.02.15.02.37.01.74.02,1.1.05.12,0,.24.07.35.13.52.26,1.03.53,1.55.79.06.03.13.04.19.03.46-.07.91-.18,1.37-.21.33-.02.52-.21.72-.41.1-.1.24-.16.33-.26.11-.12.22-.26.28-.42.06-.18.2-.26.32-.35.16-.12.3.01.42.12.07.06.14.12.21.18.07-.11.14-.21.21-.32.02-.04.03-.08.06-.13.48.32.93.68,1.43.93.5.24,1.05.37,1.6.55-.22.23-.51.22-.8,0-.08.05-.16.12-.25.15-.07.03-.16.01-.24.02,0,.03,0,.06,0,.09.31.1.61.21.92.31,0,.03-.02.05-.03.08-.25.06-.48.04-.72-.08-.14-.07-.31-.09-.48-.12-.07-.01-.15.02-.3.04.09-.1.13-.15.19-.22-.17-.1-.31-.26-.55-.15-.06.03-.19-.05-.26-.1-.1-.07-.16-.09-.21.05-.03.07-.09.13-.14.19-.06-.05-.12-.1-.17-.15-.05-.05-.08-.12-.13-.22,0,.29-.19.26-.36.26-.12,0-.24-.01-.4-.03.15.21.06.34-.07.45-.16.14-.33.26-.5.39-.19-.18-.44-.12-.55.08-.04.07-.13.11-.21.16-.14.09-.27.2-.43.25-.44.16-.87-.05-1.3-.1-.38-.05-.73-.17-1.05-.38-.06-.04-.17.02-.25,0-.07,0-.13-.05-.19-.09-.07-.06-.1-.15-.17-.19-.06-.03-.15,0-.22.03-.08.03-.14.12-.22.15-.29.1-.59.19-.89.26-.48.12-.96.28-1.47.19-.08-.02-.18.02-.26.02-.08,0-.18.01-.23-.03-.53-.38-1.15-.51-1.76-.67-.14-.04-.27-.14-.4-.21-.26-.13-.53-.24-.79-.37-.18-.1-.34-.23-.51-.35-.64-.43-1.33-.71-2.1-.76-.23-.01-.47,0-.7,0-.32-.02-.63-.07-.94-.1-.51-.05-.99-.23-1.49-.34-.08-.02-.17.01-.26.02-.09,0-.2.06-.25.02-.18-.13-.38-.07-.58-.09-.29-.03-.6,0-.88-.07-.54-.11-1.05-.06-1.57.08-.33.09-.67.16-1.01.25-.05.01-.06.11-.11.14-.33.26-.79.26-1.13-.01-.19-.15-.61-.08-.7.14-.08.2-.25.14-.39.16-.1.02-.17,0-.19.15,0,.07-.12.17-.2.2-.19.08-.26.19-.18.38-.36.18-.71.37-1.07.52-.45.19-.91.16-1.38.06-.4-.08-.81-.12-1.22-.17-.35-.04-.67-.16-.99-.31-.21-.1-.48-.08-.73-.12-.46-.06-.92-.12-1.39-.18-.05,0-.12-.03-.13-.06-.1-.27-.38-.28-.57-.4-.26-.17-.5-.36-.56-.71-.02-.13-.13-.24-.21-.36-.2-.28-.21-.68,0-.95.19-.25.41-.48.65-.77.03.17.05.27.07.38.02.09.02.18.04.26.06.26.18.34.44.37.13.01.26.07.37.15.14.1.26.17.46.12.21-.06.45,0,.67-.03.31-.04.64.06.93-.12.06-.04.17,0,.26,0,.11,0,.21.02.32,0-.35-.35-.89-.25-1.3-.58.18.02.3.04.42.05,0,0,0-.02,0-.03l-.46-.21s0-.06.01-.08c.34-.1.67-.07,1.02.05-.13-.48-.24-.94-.37-1.4-.04-.13-.13-.25-.2-.37-.21-.34-.44-.66-.62-1.02-.19-.38-.45-.68-.78-.94-1.1-.86-2.21-1.71-3.29-2.6-.82-.68-1.59-1.43-2.4-2.12-.69-.59-1.2-1.3-1.57-2.11-.25-.54-.46-1.1-.6-1.67-.14-.57-.17-1.17-.23-1.77-.05-.51-.09-1.02-.08-1.53.02-.77.06-1.53.14-2.3.05-.48.11-.97.26-1.42.2-.61.47-1.2.75-1.78.18-.38.42-.73.65-1.08.16-.24.36-.46.53-.69.12-.17.19-.37.33-.52.22-.24.47-.45.73-.66.27-.21.55-.41.84-.6.16-.1.35-.15.5-.25.21-.14.4-.32.61-.47.1-.07.23-.11.35-.18.24-.13.49-.24.71-.39,1.1-.74,2.2-1.49,3.29-2.25.28-.19.52-.42.81-.66.07.16.11.26.16.36.02,0,.05-.02.07-.03-.04-.12-.07-.23-.12-.37,1.34-.72,2.55-1.71,4.07-2.23-.06.22-.08.23-.42.26.03.24-.18.27-.32.35-.18.1-.41.11-.46.35-.1.02-.2.02-.28.06-.37.2-.72.42-1.09.62-.17.09-.21.17-.05.3.03.02.02.08.04.12-.19.13-.37.26-.56.39-.05-.02-.12-.05-.23-.08.06.15.09.22-.1.25-.14.02-.27.16-.4.25-.04.03-.08.07-.13.08-.24.06-.36.27-.54.4-.06.04-.14.07-.2.11-.45.32-.89.65-1.34.98-.03.02-.04.06-.06.08-.1.1-.19.22-.3.3-.3.22-.61.42-.93.62-.29.18-.6.34-.89.52-.14.08-.25.2-.39.28-.75.4-1.38.96-2.07,1.44-.59.41-1.04.94-1.46,1.49-.39.51-.72,1.07-.95,1.69-.18.48-.4.94-.53,1.43-.11.42-.11.87-.18,1.31-.03.19-.11.36-.17.54-.01.04-.04.09-.02.12.15.4,0,.81,0,1.22,0,.21.05.42.05.63,0,.21.03.43.05.64,0,.03.02.07.01.09-.15.22.08.45-.02.67-.01.03.03.08.04.12.03.16.06.33.09.49.02.11.04.22.07.33.02.12.05.24.08.36,0,.03.02.06.04.08.03.05.08.09.09.15.12.82.35,1.46.88,2.13.32.41.67.81,1.13,1.11.33.22.57.58.88.84.56.47,1.13.92,1.71,1.37,1.07.83,2.14,1.68,3.13,2.61.15.14.27.3.4.45.02,0,.04-.02.06-.02-.02-.06-.03-.13-.07-.18-.27-.35-.55-.69-.83-1.03-.24-.29-.49-.58-.72-.88-.12-.16-.2-.35-.33-.49-.39-.46-.8-.91-1.21-1.37-.47-.53-.92-1.08-1.22-1.73-.15-.32-.25-.66-.35-.99-.1-.34-.24-.69-.25-1.03-.02-.49-.09-.98.07-1.47.06-.18,0-.4.03-.59.05-.27.14-.52.21-.78.07-.24.06-.52.32-.67-.04-.4.28-.64.44-.94.23-.45.6-.83.84-1.27.12-.22.32-.26.45-.45-.06,0-.11.02-.17.03,0-.01,0-.03,0-.03.1-.05.2-.1.3-.15.03.03.05.06.08.09-.2.26-.4.52-.59.78-.05.07-.07.15-.12.23-.05.08-.12.15-.17.23-.05.07-.09.14-.1.24-.09.11-.17.23-.24.31,0,.07,0,.13-.02.18-.11.29-.23.57-.35.86-.03.07-.1.13-.15.19.2.08.04.27-.01.41-.03.1-.08.15-.03.27.04.09,0,.23-.02.35-.05.26-.15.52-.16.78-.02.41.03.82.04,1.24,0,.14-.04.27-.02.41.02.12.08.23.13.34.01.03.07.07.06.09-.13.23.11.31.18.46.1.19.12.42.2.63.12.3.2.62.48.83.06.04.12.1.14.16.09.41.44.63.69.92.24.27.51.53.77.79.01.02.02.05.03.06.46.17.6.68.99.92.02.01.04.01.11.03-.06-.15-.07-.29-.15-.37-.28-.28-.32-.65-.42-1-.1-.32-.14-.67-.26-.98-.23-.55-.25-1.13-.25-1.7,0-.45.04-.9.09-1.34.07-.58.15-1.16.28-1.73.1-.43.32-.84.41-1.28.08-.4.29-.72.48-1.06.22-.39.45-.77.69-1.15.06-.1.18-.17.23-.27.02-.08.02-.18.06-.24.31-.4.63-.8.95-1.2.23-.29.47-.57.71-.85.12.06.2.1.28.13h0ZM31.64,34.43c.1.04.17.07.29.11-.14.16-.27.3-.41.45.08.03.13.05.17.06-.17.3-.33.58-.49.88.06.02.13.05.22.08-.05.06-.07.12-.12.14-.24.14-.49.28-.74.42-.09.05-.19.12-.28.11-.33-.02-.67-.07-1-.12-.25-.03-.49-.06-.74-.09-.15-.02-.3-.04-.45-.07-.17-.03-.34-.19-.49.05-.02.03-.13.04-.16.02-.23-.17-.51-.13-.76-.18-.26-.05-.26-.07-.57.07.62.15,1.19.29,1.77.41.44.1.87.22,1.33.16.05,0,.11.02.17.04.23.08.46.16.7.23.35.1.7.22,1.06.1.21-.07.4-.17.61-.23.16-.05.33-.07.48-.12.08-.02.13-.11.2-.15.08-.04.18-.05.27-.08.17-.05.34-.09.51-.14.12-.03.29-.03.36-.11.12-.15.19-.34.29-.53-.48-.01-.96.15-1.43-.16.16-.15.33-.25.42-.4.15-.23.38-.32.62-.34.18-.02.19-.08.14-.25-.09.03-.17.06-.24.09-.31.13-.51.01-.42-.31.12-.41-.12-.66-.31-.98-.06.08-.16.16-.15.21.06.24-.16.31-.26.45-.13.19-.3.21-.5.1,0,0-.03.02-.09.06ZM27.19,31.99s-.03.02-.04.03c.02.03.04.05.06.08.36.78.79,1.53.92,2.39.02.13.31.42.45.43.02,0,.04-.02.05-.03-.06-.1-.17-.2-.16-.29.03-.32-.08-.58-.26-.83-.09-.12-.18-.26-.21-.4-.13-.54-.49-.94-.8-1.38ZM47.29,37.28s-.02.07-.03.1c.17.09.32.23.56.16.06-.02.14.04.2.07.27.15.53.24.87.06-.56-.14-1.08-.27-1.61-.4ZM28.8,34.4c.24.13.47-.01.58-.32-.38.15-.19-.29-.4-.36.01.1,0,.19.03.27.03.08.09.14.12.19-.11.08-.2.15-.32.23ZM29.55,35.94s.02-.05.03-.08c-.07,0-.14-.02-.2-.03.01-.01.03-.03.04-.04-.06-.07-.11-.15-.17-.23-.08.06-.13.09-.22.16.2.08.36.15.52.21Z"/>
      <path class="cls-1" d="M36.09,14.54c-.33.26-.66.52-.99.78-.23.18-.48.35-.69.54-.36.33-.71.67-1.04,1.02-.26.27-.52.55-.75.85-.45.58-.89,1.15-1.29,1.76-.23.35-.36.77-.54,1.15-.08.17-.19.32-.29.48-.17.27-.34.54-.5.82-.08.14-.1.3-.16.45-.04.08-.11.15-.16.23-.02.03-.06.08-.06.11.08.37-.16.65-.27.97-.17.52-.35,1.03-.52,1.54-.09.25-.19.5-.26.75-.08.29-.15.58-.17.88-.03.41-.15.81-.18,1.22-.03.48-.01.96-.03,1.43,0,.16-.04.31-.05.47,0,.1.03.19.04.3-.02.01-.06.05-.14.12-.02-.03-.1-.09-.11-.17-.05-.34-.09-.69-.13-1.03-.02-.2-.01-.4-.02-.6,0-.03-.01-.06,0-.09.09-.65.18-1.3.28-1.95.06-.35.12-.71.21-1.06.14-.52.3-1.04.47-1.56.11-.35.24-.69.38-1.03.27-.66.55-1.32.84-1.98.4-.91.95-1.73,1.52-2.53.39-.54.87-.98,1.32-1.47.51-.56,1.12-.99,1.68-1.48.27-.24.6-.42.91-.62.14-.09.28-.18.43-.26.09-.04.18-.07.28-.1,0,.01,0,.03,0,.04Z"/>
      <path class="cls-1" d="M36.78,15.18s-.07-.06-.13-.11c.29-.05.42-.42.81-.25-.06-.08-.08-.12-.11-.15.51-.16.94-.41,1.28-.87.11-.05.26-.14.42-.21.39-.18.77-.36,1.17-.52.13-.05.28-.16.43-.03.01.01.08-.01.1-.04.17-.21.42-.27.66-.32.11-.02.24-.05.13-.21.3.11.57-.03.81-.16.45-.26.91-.44,1.41-.55.37-.08.72-.25,1.08-.32.52-.1,1.05-.15,1.57-.22.18-.02.35-.06.53-.06.2,0,.39.02.59.03.01,0,.03.01.04.01.39-.02.79-.07,1.18-.06.45.01.91-.09,1.36.1.18.07.4.04.61.06.39.05.77.13,1.16.16.24.02.49-.02.74-.01.21,0,.43,0,.63.05.24.06.46,0,.68-.03.05,0,.14,0,.17.04.03.04.03.15,0,.18-.09.09-.21.2-.31.2-.38,0-.77-.02-1.15-.06-.51-.06-1.02-.18-1.53-.24-.28-.04-.56-.02-.84-.02-.01,0-.03.01-.04,0-.35-.14-.7-.08-1.07-.06-.45.03-.9,0-1.35-.02-.27,0-.55-.04-.82-.03-.22,0-.44.04-.66.07-.21.03-.41.09-.62.1-.25,0-.44.13-.63.26-.16.1-.3.09-.42-.11.18-.01.35-.03.52-.04,0-.03,0-.06,0-.09-.24-.16-.5.15-.76.03.05.05.11.1.19.18-.3.15-.57.16-.9-.06.05.12.07.18.09.23-.01.01-.02.02-.03.03-.17.07-.34.13-.52.2-.93.38-1.88.74-2.8,1.14-.43.18-.82.44-1.23.66-.22.11-.45.19-.67.3-.13.06-.24.17-.37.23-.35.18-.71.36-1.07.52-.11.05-.24.05-.36.08h0Z"/>
      <path class="cls-1" d="M29.39,13.43c-.13.12-.22.2-.31.29-.21.2-.41.39-.62.6-.26.26-.5.55-.79.77-.23.17-.4.36-.53.61-.07.13-.21.22-.31.34-.16.18-.31.37-.46.55-.09-.11-.09-.12.02-.25.29-.34.57-.68.87-1.01.51-.56,1.02-1.12,1.55-1.66.3-.3.65-.54.97-.82.6-.52,1.19-1.04,1.78-1.56.26-.24.49-.52.76-.74.52-.4,1.06-.77,1.59-1.15.23-.16.46-.32.7-.46.17-.1.35-.17.53-.25.02,0,.05-.02.06-.01.25.13.38-.08.56-.17.41-.2.84-.37,1.27-.56.56-.24,1.13-.5,1.7-.72.45-.18.91-.32,1.39-.49.02.11.03.18.04.24-.25.13-.48.27-.73.38-.27.12-.56.2-.84.31-.1.04-.2.1-.29.15-.1.06-.18.17-.31.06-.02-.02-.08,0-.12.02-.24.1-.47.22-.7.32-.38.16-.72.36-1.02.65-.12.12-.35.13-.52.21-.35.18-.69.38-1.04.57-.11.06-.25.06-.35.12-.55.32-1.09.64-1.63.97-.1.06-.2.15-.28.24-.34.44-.84.68-1.26,1.02-.44.37-.85.77-1.28,1.16-.14.12-.23.33-.42.28Z"/>
      <path class="cls-1" d="M3.88,19.74c.05.14.09.25.12.35.1.3.19.6.28.89.08.23.15.46.24.68.03.08.09.15.14.22.18.29.33.6.53.88.2.28.49.51.67.8.18.3.41.54.68.74.11.08.21.18.33.29-.06.01-.08.02-.05.01.25.28.5.61.81.88.19.17.46.24.69.36.03.01.07.05.07.07,0,.04-.04.09-.07.09-.11,0-.23.02-.32-.03-.28-.15-.55-.33-.82-.5-.14-.09-.33-.15-.34-.37,0-.02-.05-.03-.07-.06-.18-.2-.36-.41-.53-.61-.21-.24-.44-.47-.63-.72-.52-.68-1.05-1.36-1.39-2.15-.12-.28-.2-.58-.29-.88-.06-.18-.12-.36-.17-.55-.04-.13-.06-.26.12-.4Z"/>
      <path class="cls-1" d="M51.18,34.99c-.36.04-.65-.12-.92-.33-.19-.14-.35-.31-.55-.43-.15-.09-.34-.13-.51-.19,0,.02-.02.04-.03.05-.03-.12-.06-.25-.09-.37-.02,0-.04,0-.06,0-.02.07-.03.14-.05.23-.18-.06-.4-.13-.62-.2,0-.02,0-.04,0-.06.18-.03.42.12.5-.24.99.5,1.96.99,2.96,1.49.35-.02.67.13.97.36.06.05.06.17.09.26-.1,0-.21.04-.29.01-.25-.09-.48-.22-.73-.32-.22-.09-.45-.18-.68-.27h0Z"/>
      <path class="cls-1" d="M45.1,27.16c.16-.03.33-.06.49-.08.58-.05,1.16-.12,1.74-.14.25,0,.5.09.76.15,0,.03,0,.05,0,.08-.03,0-.06.02-.09.02-.4,0-.81-.01-1.21,0-.29,0-.58,0-.85.07-.31.08-.56-.04-.83-.1h0Z"/>
      <path class="cls-1" d="M58.82,31.65c.25-.09.43-.05.54.16.08.17.21.25.36.35.26.17.48.41.72.62.16.13.33.24.49.37.03.03.04.08.07.11-.04,0-.09.02-.13.01-.12-.03-.26-.05-.35-.13-.28-.26-.53-.56-.81-.82-.22-.2-.48-.37-.72-.56-.05-.04-.11-.07-.17-.12Z"/>
      <path class="cls-1" d="M42.27,27.89c.15-.05.27-.1.39-.13.45-.12.9-.22,1.35-.34.04-.01.1-.02.12-.04.13-.18.24-.08.39.05-.2.05-.38.09-.56.14-.47.13-.93.26-1.4.39-.11.03-.24.11-.29-.07Z"/>
      <path class="cls-1" d="M60.45,38.63c-.03.11-.03.12.06.12.25-.02.5-.04.75-.05.06,0,.11.04.17.06-.04.04-.07.12-.11.12-.27.04-.55.08-.82.09-.07,0-.14-.06-.17-.08-.11,0-.21.02-.3.03l-.03-.12c.15-.05.31-.11.46-.16,0,0,0,0,0,0Z"/>
      <path class="cls-1" d="M30.42,23.05c.14-.15.28-.3.46-.5-.09.03-.13.05-.23.09.19-.23.34-.42.49-.61.02-.03.05-.06.05-.09-.01-.2.13-.2.29-.19-.07.05-.16.1-.2.17-.07.11-.11.24-.16.36-.03.09-.05.19-.09.28-.05.13-.09.28-.19.38-.09.1-.23.14-.35.2-.02-.03-.05-.06-.07-.1Z"/>
      <path class="cls-1" d="M54.14,28.88c-.5-.15-1-.3-1.55-.47.18-.12.29-.16.47-.08.2.09.43.15.65.17.25.03.37.16.42.38h0Z"/>
      <path class="cls-1" d="M29.26,16.18c-.05-.07-.09-.15-.15-.24.16-.18.34-.38.5-.59.06-.08.08-.19.14-.28.04-.06.12-.1.18-.16.02.01.04.02.06.03-.09.17-.18.35-.28.52-.14.24-.3.47-.45.7,0,0,0,0,0,0Z"/>
      <path class="cls-1" d="M49.54,27.19s.04.09.06.14c-.18-.02-.35-.03-.52-.05.04-.23.16-.28.47-.23.12.02.23.17.38.05.01-.01.1.07.18.12h-.21c.02.06.04.11.08.23-.12-.06-.19-.09-.25-.13-.06-.05-.11-.11-.16-.16-.02.01-.03.03-.05.04Z"/>
      <path class="cls-1" d="M61.1,33.28c.48.3.95.6,1.44.9-.21.12-.34-.03-.47-.11-.26-.16-.52-.33-.78-.51-.09-.06-.15-.15-.22-.23.01-.01.03-.03.04-.04Z"/>
      <path class="cls-1" d="M39.95,34.65s.04.08.08.13c-.43.05-.87.09-1.31.14,0-.02,0-.04,0-.07.4-.17.82-.22,1.25-.2,0,0,0,0,0,0Z"/>
      <path class="cls-1" d="M30.4,24.01c-.04-.24-.04-.42.15-.58.04-.04.02-.16.02-.26.05,0,.11.02.19.03-.08.29-.08.6-.36.82Z"/>
      <path class="cls-1" d="M48.97,27.08c-.05.05-.11.11-.2.2-.05,0-.17.01-.29,0-.11-.01-.16-.09-.08-.19.12-.14.44-.14.57,0Z"/>
      <path class="cls-1" d="M12.51,13.74s-.06-.09-.08-.13c.23-.34.48-.7.72-1.06.02.01.04.03.06.04-.24.38-.47.76-.71,1.14h0Z"/>
      <path class="cls-1" d="M11.21,19.65c-.13,0-.23.02-.34.03-.03-.19-.07-.39-.11-.58.02,0,.04-.02.06-.03.12.19.25.38.38.59Z"/>
      <path class="cls-1" d="M45.09,27.16c.04.06.09.11.12.17-.19.04-.42.2-.64-.05.14-.05.25-.17.41-.05.01,0,.07-.04.11-.06,0,0,0,0,0,0Z"/>
      <path class="cls-1" d="M10.27,27.31c.04-.05.07-.1.12-.17.14.06.28.13.43.2q-.24.18-.56-.03Z"/>
      <path class="cls-1" d="M41.03,34.54c-.24.01-.48.19-.78-.04.3-.02.54-.04.78-.05,0,.03,0,.06,0,.1Z"/>
      <path class="cls-1" d="M44.03,15.99c.16,0,.32.02.48.02,0,.03,0,.06,0,.09-.16-.04-.33.33-.48-.12Z"/>
      <path class="cls-1" d="M12.56,28.39c-.25-.08-.46-.15-.68-.22"/>
      <path class="cls-1" d="M11.75,14.98c-.04.25-.13.46-.34.63-.02,0-.04-.02-.06-.03.11-.21.22-.42.33-.63.02.01.04.02.07.03Z"/>
      <path class="cls-1" d="M29.22,27.43c.07.02.13.03.2.05-.08.18-.16.35-.23.52-.02,0-.04-.01-.06-.02.03-.18.06-.36.1-.55Z"/>
      <path class="cls-1" d="M63.55,34.81c-.18,0-.37.01-.48-.18,0-.02.02-.05.02-.07l.49.16s-.02.06-.03.09Z"/>
      <path class="cls-1" d="M50.73,27.46c.19.03.39.06.58.1-.22.12-.42.13-.58-.1Z"/>
      <path class="cls-1" d="M29.39,26.73c-.02.21-.02.34-.04.48,0,.05-.02.1-.04.13,0,.01-.09,0-.1-.01-.01-.05,0-.1,0-.15.01-.09.02-.17.04-.25.02-.06.07-.11.14-.2Z"/>
      <path class="cls-1" d="M29,28.75c.05.12.11.24.17.39-.33-.02-.32-.17-.25-.36.02-.01.05-.02.07-.03Z"/>
      <path class="cls-1" d="M34.46,22.74c.09-.15.19-.29.39-.28.02.02.03.04.05.07l-.39.28s-.03-.04-.04-.06Z"/>
      <path class="cls-1" d="M54.13,28.88c.21-.01.43-.07.66.13-.27.06-.46-.04-.65-.14,0,0,0,0,0,0Z"/>
      <path class="cls-1" d="M12.5,13.73c-.08.22-.16.44-.24.66-.03-.01-.06-.03-.1-.04.06-.23.2-.42.34-.61,0,0,0,0,0,0Z"/>
      <path class="cls-1" d="M51.59,27.76c.15.05.3.11.48.17q-.2.13-.48-.17Z"/>
      <path class="cls-1" d="M36.77,15.18c-.18.11-.35.22-.53.32l-.03-.05c.14-.19.31-.31.56-.27,0,0,0,0,0,0Z"/>
      <path class="cls-1" d="M11.22,16.43c-.05.13-.09.23-.14.33-.01.02-.05.04-.08.05-.02,0-.05-.05-.05-.06.06-.12,0-.32.27-.31Z"/>
      <path class="cls-1" d="M29.47,5.73c.17-.06.3-.12.48-.18-.05.11-.1.2-.13.28-.1-.03-.21-.06-.34-.1Z"/>
      <path class="cls-1" d="M41.05,6.56c.15-.06.27-.11.41-.17-.05.24-.18.29-.41.17Z"/>
      <path class="cls-1" d="M32.18,20.44q.21-.25.37-.09c-.14.04-.26.07-.37.09Z"/>
      <path class="cls-1" d="M33.61,3.46c.14-.09.24-.16.35-.23-.04.24-.12.31-.35.23Z"/>
      <path class="cls-1" d="M48.8,16.41c-.21.05-.38.1-.54.14,0-.02,0-.04-.01-.06.16-.08.31-.2.56-.08Z"/>
      <path class="cls-1" d="M26.29,34.67c.15-.02.31-.13.44.1-.16-.01-.31-.03-.45-.04,0-.02,0-.04,0-.06Z"/>
      <path class="cls-1" d="M51.18,34.98c.12.07.23.15.35.22,0,.02-.01.03-.02.05-.14-.04-.28-.09-.49-.15.09-.07.13-.09.16-.12,0,0,0,0,0,0Z"/>
      <path class="cls-1" d="M30.21,24.29c0-.09-.01-.14-.01-.2.03,0,.09,0,.09.01.02.07.06.16.03.22-.02.04-.12.05-.19.07l-.02-.07s.08-.02.1-.03Z"/>
      <path class="cls-1" d="M31.77,20.94c.02.12.04.21.07.35-.29-.2-.29-.21-.07-.35Z"/>
      <path class="cls-1" d="M31.97,20.55c.09-.01.19-.03.32-.05-.09.2-.19.22-.31.13,0-.03,0-.05,0-.08Z"/>
      <path class="cls-1" d="M29.03,28.34c.02-.08.05-.16.09-.27.06.05.1.08.14.11-.06.07-.12.13-.18.2-.02-.01-.03-.03-.05-.04Z"/>
      <path class="cls-1" d="M10.48,28.92c-.16-.06-.31-.11-.39-.14,0-.13-.02-.2-.02-.27,0-.03.05-.08.05-.08.05.02.12.04.15.09.07.1.11.22.2.4Z"/>
    </g>
  </g>
</svg>