<?xml version="1.0" encoding="UTF-8"?>
<svg id="Layer_2" data-name="Layer 2" xmlns="http://www.w3.org/2000/svg" viewBox="0 0 84.43 113.82">
  <defs>
    <style>
      .cls-1 {
        fill: #000;
        stroke-width: 0px;
      }
    </style>
  </defs>
  <g id="illustrations">
    <g>
      <path class="cls-1" d="M83.81,46.12c-.05-.21-.11-.42-.13-.63-.03-.26-.12-.37-.36-.3-.64.19-1.3.33-1.86.73-.21.15-.45.24-.66.38-.16.11-.44.27-.42.39.03.35-.26.46-.37.69,0,.01,0,.03.01.07.06-.03.13-.05.19-.08.01.02.03.04.04.06-.11.08-.21.16-.32.23-.04.03-.1.05-.13.09-.24.37-.51.7-.91.91-.19.1-.34.28-.49.45-.14.15-.25.33-.38.49-.22.26-.52.37-.83.47-.46.15-.92.32-1.39.46-.19.06-.4.07-.59.13-.35.1-.69.2-1.03.34-.22.09-.38.04-.62-.12-.15.13-.31.25-.46.39-.23.21-.55.21-.78,0-.1-.09-.16-.25-.16-.39s.06-.3.16-.39c.33-.29.67-.57,1.01-.83,0,0-.01,0-.02,0,.08-.11.15-.2.23-.3-.19-.12-.31-.24-.3-.42-.38.73-1.2,1.06-2,1.32-.1.11-.23.19-.4.2-.04,0-.08-.01-.12-.02-.04.01-.09.03-.13.04-.29.1-.59-.11-.67-.38-.1-.29.11-.58.38-.67.03,0,.05-.02.08-.03.03-.1.07-.2.13-.29.04-.06.08-.11.13-.16-.12,0-.25-.02-.36-.03.03-.05.05-.1.06-.15-.08.01-.16.01-.23,0,0,0-.01,0-.02,0-.03,0-.06,0-.09,0-.02,0-.04.01-.07.02-.02.01-.04.02-.06.03.02.2.03.39.03.59,0,.25-.17.45-.4.53-.06.02-.12.02-.19.02-.05.03-.1.05-.15.08-.12.06-.23.11-.35.16-.09.05-.18.07-.28.07-.05,0-.1-.01-.15-.02-.14-.03-.25-.13-.33-.25-.04-.06-.06-.13-.07-.2-.02-.07-.01-.15,0-.22.01-.04.04-.08.06-.11-.03-.05-.05-.09-.06-.14,0-.04,0-.08-.01-.13-.31.16-.44.14-.59-.07h.58c0-.13,0-.25.02-.39.03-.15.09-.29.16-.42.1-.18.24-.34.38-.49.03-.1.07-.2.1-.3.14-.39.27-.78.41-1.17.09-.26.18-.52.27-.77.25-.64.51-1.28.75-1.93.02-.06-.05-.16-.08-.24-.09.05-.22.08-.25.15-.17.37-.31.74-.46,1.12-.16.39-.33.78-.47,1.18-.06.15,0,.35-.07.49-.21.48-.45.94-.69,1.41-.04.08-.09.16-.16.28-.05-.1-.07-.14-.09-.18-.12-.29-.24-.57-.36-.86-.06-.13-.15-.25-.18-.39-.07-.3-.14-.6-.16-.9-.03-.38-.02-.77.02-1.15,0-.1.14-.21.24-.29.2-.16.19-.57-.03-.69-.05-.03-.12-.08-.12-.12-.02-.25-.04-.5,0-.74.03-.24.12-.47.17-.71.12-.54.21-1.08.35-1.61.04-.15.16-.32.3-.4.46-.27.85-.63,1.15-1.06.3-.43.57-.88.84-1.33.13-.23.3-.22.49-.11.26.14.46.35.78.42.32.07.61.3.91.47.05.03.1.08.13.14.06.12.1.25.17.42.08-.12.13-.19.18-.26-.16-.16-.19-.33-.11-.54.03-.07.03-.19-.01-.24-.17-.2-.35-.38-.54-.56-.07-.07-.15-.15-.24-.18-.34-.1-.69-.19-1.04-.28-.14-.04-.28-.09-.42-.13-.04,0-.09.02-.13.03-.13.02-.27.04-.45.06,0-.01.01-.02.02-.03-.03,0-.06.02-.09.03,0,.04-.02.09-.04.12-.42.67-.85,1.34-1.25,2.02-.17.3-.45.4-.74.54.02-.19.1-.35.13-.52.03-.22.03-.45.03-.67,0-.32-.17-.6-.24-.9,0-.02-.08-.05-.12-.05-.38.02-.67-.19-.98-.35-.21-.05-.41-.1-.62-.14-.11-.01-.22-.01-.33,0-.08.01-.15.03-.23.05,0,0,0,0,0,0-.14.2-.28.39-.41.6-.13.21-.2.46-.32.69-.02.04-.1.06-.17.1.02-.33.04-.61.05-.89,0-.21.01-.41,0-.62,0-.05-.05-.11-.08-.16-.05.03-.13.05-.15.09-.13.28-.25.58-.38.86-.03.06-.08.12-.13.16-.1.07-.21.13-.34.2-.07-.1-.14-.2-.22-.3-.13-.15-.24-.42-.49-.3-.25.13-.51.29-.55.71.38-.17.56.12.72.33.21.26.39.42.74.29.05-.02.15.02.19.06.03.04,0,.13-.03.19-.01.05-.05.1-.07.15.02,0,.05-.01.07-.02.03.1.12.21.1.29-.07.26-.15.51-.04.77.02.05.02.11.02.16-.04.33-.14.66-.12.98.04.61.14,1.22.22,1.83,0,.04.01.08,0,.11-.13.49.09.92.25,1.35.19.54.39,1.07.77,1.53.24.29.38.67.57,1,.04.07.13.11.2.17.02-.01.04-.02.06-.04-.03-.14-.05-.28-.08-.43.23-.24.49-.04.74-.04.25,0,.28.12.18.29.29.32.59.61.55,1.1-.15.02-.18.38-.44.24-.14-.08-.24-.24-.38-.38.12-.03.19-.04.26-.06,0-.02,0-.04,0-.06-.11-.03-.21-.05-.36-.09.08-.1.15-.18.21-.27-.02-.02-.04-.06-.05-.06-.28.09-.55.09-.81-.05-.28.24-.36-.03-.42-.19-.08-.22-.21-.28-.41-.26-.05,0-.1-.02-.15-.03,0-.01,0-.03,0-.04h.14c-.1-.25-.2-.5-.29-.74,0-.02-.02-.03-.03-.04-.46-.34-.64-.85-.85-1.35-.07-.16-.12-.34-.19-.5-.11-.24-.28-.46-.36-.7-.22-.62-.42-1.24-.6-1.87-.11-.4-.17-.82-.27-1.22-.03-.1-.14-.2-.25-.26-.05-.03-.16.05-.21.07,0,.15,0,.26.02.36.06.49.06,1.01.2,1.48.25.85.55,1.69.9,2.51.19.44.53.81.78,1.22.21.35.57.62.6,1.09,0,.1.3.19.47.27.06.03.16,0,.22.04.16.12.32.25.47.39.16.16.3.34.47.54-.3.13-.67.06-.86.37.39.14.76.27,1.13.41.29.11.33.21.19.52.09.04.19.07.28.1,0,.08-.01.16-.02.24-.01.26-.11.33-.35.21-.21-.11-.43-.22-.6-.37-.21-.19-.38-.42-.57-.64-.34.28,0,.45.1.62.12.2.31.36.48.55.02-.02-.01.01-.04.04.46.42,1.1.68,1.22,1.42-.03.02-.08.07-.19.15.17.15.32.29.46.44.05.06.25.06.11.22.24.17.4.47.75.47.04,0,.08.04.12.05-.12.13-.25.23-.34.37-.04.07.02.2-.01.28-.13.29-.25.6-.43.86-.2.29-.2.75-.77.78.15.03.21.05.3.07-.2.39-.39.75-.58,1.11.04.01.09.03.15.05-.08.07-.16.12-.21.2-.49.66-.98,1.31-1.46,1.97-.4.55-.78,1.12-1.17,1.67-.21.3-.47.57-.65.89-.14.24-.32.28-.56.27-.59-.02-1.18-.07-1.76-.02-.47.03-.96.13-1.39.3-.39.15-.77.27-1.19.26-.09,0-.2.04-.27.1-.4.37-.86.61-1.4.71-.11.02-.23.08-.32.14-.44.34-.88.7-1.32,1.04-.05.04-.15.03-.22.05-.1.03-.19.11-.27.2-.87.81-1.76,1.6-2.6,2.44-.68.68-1.31,1.41-1.91,2.16-.34.42-.66.85-.93,1.32-.52.88-1.18,1.68-1.76,2.53-.32.46-.59.96-.91,1.42-.21.29-.48.53-.72.8l-.09-.06c.04-.16.05-.32.12-.47.2-.42.19-.86.19-1.31,0-.16-.01-.33.03-.48.12-.43.28-.85.38-1.29.1-.45.13-.91.22-1.36.05-.25.15-.49.23-.73.11-.35-.2-.7,0-1.05.01-.03-.04-.09-.07-.14-.02-.04-.05-.08-.04-.12.03-.25.08-.49.09-.74,0-.19.09-.43-.17-.56-.05-.03-.05-.18-.05-.28,0-.08.04-.18,0-.24-.13-.26-.08-.44.16-.51-.02-.16-.04-.3-.06-.44,0,0-.04.02-.08.04-.03-.03-.06-.06-.09-.1l.36-.13s-.05-.06-.07-.09c-.12-.07-.25-.13-.45-.24.42,0,.42-.23.41-.47,0-.08-.02-.17,0-.25.12-.4.11-.8.06-1.22-.03-.2-.16-.5.15-.67.04-.02,0-.2-.03-.3-.02-.06-.09-.11-.14-.17.28-.08.31-.2.14-.41-.03-.04-.09-.07-.11-.11-.03-.08-.06-.17-.05-.24.09-.41.21-.82.27-1.23.07-.48.08-.97.12-1.46.06.02.12.05.14.06-.02-.23-.03-.46-.06-.68-.04-.26.05-.45.3-.54-.22-.33-.25-.47-.19-.92.08.05.16.1.23.15.01-.02.03-.04.04-.06-.09-.09-.26-.19-.26-.28,0-.13.12-.27.19-.4,0,0,0-.02,0-.03.02-.25.02-.51.06-.75.04-.21.1-.42.19-.63.06-.14.12-.26.02-.41-.07-.1-.15-.25-.12-.36.12-.5.24-1,.42-1.47.06-.16.18-.31.2-.5.04-.34.09-.68.14-1.01.03-.2.04-.41.06-.63.19-.06.2-.28.25-.47.09-.42.18-.83.4-1.22.25-.44.55-.89.49-1.44-.03-.29.08-.54.24-.77.14-.2.36-.42.06-.67-.01-.01.01-.06.02-.1.03-.25-.05-.51.18-.72.04-.04,0-.16,0-.24,0-.18-.03-.37.03-.54.07-.21.21-.39.28-.53-.08-.11-.13-.18-.18-.25.08-.05.16-.09.26-.15-.12-.18-.1-.34.06-.51.2-.22.15-.41-.13-.59.19-.16.36-.3.56-.46-.08-.25-.17-.53-.26-.83.25-.08.23-.23.06-.41.12-.09.23-.17.33-.25-.06-.07-.11-.13-.18-.22.28-.06.38-.17.2-.41-.02-.03,0-.15.03-.16.32-.15.28-.49.26-.72-.03-.35.05-.66.12-.98.05-.23.19-.42.46-.42.23,0,.35-.12.36-.33.01-.37.27-.47.56-.54.13-.03.26-.05.37-.11.1-.06.17-.17.25-.25.05-.08.11-.14.17-.2.07-.07.13-.15.2-.21.09-.08.22-.13.29-.23.16-.25.38-.23.6-.17.1.03.2.08.35.14-.01-.14-.02-.24-.03-.36.08,0,.22.02.31-.04.25-.17.48-.12.72,0,.05.02.14,0,.19-.03.13-.09.25-.19.35-.31.17-.2.38-.27.64-.26.75.02,1.49.02,2.24.02.12,0,.23,0,.33,0,.27-.13.59-.16.88-.15.3.01.61.06.9.13.06.02.12.05.17.08.62-.06,1.25-.11,1.88-.15.1,0,.2.01.3.02.26.01.53.07.78.02.41-.08.8-.24,1.2-.36.04-.01.09-.02.13-.02.55.02,1.11.06,1.66.05.12,0,.25-.16.36-.26.1-.09.16-.21.27-.28.2-.14.46-.2.61-.38.29-.34.53-.73.78-1.12.06-.1.08-.25.08-.37,0-.11-.04-.23-.06-.35-.08-.03-.17-.05-.22-.07-.01-.12,0-.24-.04-.31-.16-.26-.35-.51-.52-.76-.03-.04-.03-.11-.03-.09.28-.09.57-.12.76-.27.32-.25.59-.56.88-.86.16-.16.2-.68.09-.89-.08-.15-.13-.33-.19-.49-.33-.27-.36-.35-.61-.78-.11-.19-.26-.4-.45-.48-.19-.07-.27-.17-.35-.33-.03-.07-.15-.1-.28-.17.04.12.06.17.08.23-.09-.01-.17-.04-.19-.1-.08-.19-.25-.29-.41-.41-.27-.19-.78-.04-.88.26-.03.08-.2.2-.21.19-.18-.14-.3-.02-.45.07-.27.17-.57.31-.82.5-.37.27-.73.58-1.08.88-.12.1-.22.22-.31.35-.09.13-.16.29-.24.43-.13-.24-.22-.2-.33-.09-.08.08-.14.18-.23.23-.33.2-.67.38-1.01.57-.22.12-.29.49-.65.41.07.05.14.1.18.12-.06.15-.11.27-.19.48.45-.17.76-.03,1.04.16.18-.16.34-.31.51-.44.52-.39,1.02-.82,1.6-1.12.57-.3,1.06-.7,1.54-1.12.29-.25.54-.55.84-.79.13-.1.38-.17.51-.12.4.17.77.41,1.14.64.12.07.2.19.3.29.2.21.41.41.6.63.02.03,0,.14-.03.17-.49.44-.97.88-1.48,1.29-.15.13-.34.09-.51-.05-.14-.13-.29-.27-.46-.34-.12-.05-.31-.02-.42.05-.06.04-.03.24-.02.36,0,.06.07.11.14.22-.25.07-.47.21-.66.18-.37-.07-.66.1-.99.17-.35.07-.71.15-1.07.19-.08,0-.18-.16-.26-.15-.57.08-1.17-.06-1.71.24-.3.17-.66.24-.99.35-.26.08-.52.13-.78.22-.39.13-.77.29-1.16.43-.11.04-.24.01-.36.05-.41.11-.82.25-1.23.36-.56.16-1.11.31-1.67.44-.61.14-1.23.3-1.92.19.22-.28.37-.61.63-.81.69-.53,1.41-1.04,2.15-1.5.79-.48,1.63-.89,2.45-1.34.39-.22.78-.46,1.17-.69.46-.27.92-.53,1.38-.79.13-.07.26-.13.38-.22.31-.23.6-.48.91-.71.79-.59,1.58-1.19,2.39-1.76.39-.27.71-.58.82-1.05-.03-.03-.1-.1-.09-.12.14-.26.08-.52.05-.79-.04-.33-.06-.67-.1-1.02-.12-.05-.27-.12-.42-.17-.05-.02-.17,0-.17.02-.06.18-.16.08-.26.05-.18-.04-.38-.12-.53-.06-.3.11-.57.31-.85.47-.03.02-.07.03-.1.03-.36-.08-.62.11-.87.33-.27.23-.54.47-.77.73-.15.17-.24.4-.33.61-.02.04.1.21.15.21.21-.03.44-.05.62-.15.43-.25.82-.56,1.24-.81.3-.18.63-.3.94-.44.21-.09.55.04.62.27.07.26.12.54.1.8-.02.22-.15.42-.37.56-.64.43-1.12,1.07-1.82,1.43-.17.09-.32.2-.48.3-.26.14-.54.25-.78.42-.46.32-.9.67-1.36,1-.2.14-.41.27-.62.38-.39.21-.81.39-1.18.63-.5.32-1.16.27-1.61.73-.11.11-.31.15-.38.35-.01.04-.11.05-.16.07-.35.15-.71.24-1.02.55-.66.66-1.39,1.27-2.21,1.6-.27-.17-.52-.33-.76-.49.09-.22.13-.56.33-.74.37-.33.63-.78,1.09-1.03.39-.21.69-.57,1.04-.86.77-.66,1.58-1.28,2.29-1.99.66-.66,1.23-1.43,1.83-2.15.61-.73,1.2-1.47,1.82-2.19.28-.32.5-.65.52-.94-.3-.89-.64-1.59-1.58-1.59.03.11.07.24.11.37-.03.02-.06.04-.09.06-.23-.44-.56-.29-.88-.19-.21.07-.43.14-.7.23,0-.23-.01-.47-.03-.7,0-.08-.04-.16-.08-.23-.03-.07-.11-.12-.12-.18-.03-.15.02-.38-.06-.44-.23-.16-.04-.27,0-.38-.08-.09-.19-.16-.19-.24-.02-.52-.36-.9-.56-1.35-.03-.07-.11-.15-.18-.16-.4-.06-.81-.16-1.2-.12-.31.04-.62.12-.94.09-.11-.01-.24-.02-.33.02-.17.09-.31.22-.47.34.07.09.12.14.13.16-.21.25-.4.47-.6.7-.07.08-.14.15-.18.2,0,.1,0,.18-.02.26-.17.55-.35,1.09-.51,1.63-.09.31-.12.63-.18.94-.14.66-.3,1.32-.43,1.99-.07.36-.02.75-.24,1.07-.01.02,0,.05,0,.08-.1.53-.21,1.06-.32,1.59-.06.31-.14.61-.2.92-.11.57-.21,1.14-.33,1.7-.11.55-.24,1.1-.35,1.65-.03.13-.02.24.15.26.04,0,.07.04.11.06.08.04.15.07.23.1.01-.03.03-.06.04-.08-.03-.07-.06-.14-.09-.22.13-.13.24-.26.27-.41.1-.56.16-1.12.27-1.67.15-.76.33-1.52.51-2.28.15-.63.31-1.26.46-1.88.32-1.34.62-2.69.98-4.02.17-.65.45-1.26.69-1.89.03-.09.16-.19.25-.2.53-.03,1.07-.01,1.59-.06.3-.02.48.07.56.35.15.48.29.96.43,1.44.03.11.02.24,0,.36-.03.25-.08.51-.09.76,0,.15.04.25.26.18.25-.07.53-.09.79-.06.33.03.66.11.97.2.27.09.52.25.64.53.06.14.12.3-.07.41-.57.35-.94.89-1.33,1.4-.49.63-.93,1.31-1.39,1.96-.1.14-.19.27-.27.42-.29.47-.58.94-.85,1.42-.04.08-.09.21-.05.27.1.16,0,.21-.11.28-.3.19-.61.38-.89.59-.49.38-.99.76-1.45,1.18-.44.4-1.06.64-1.28,1.27,0,0-.03,0-.07.01-.02-.08-.04-.16-.08-.3-.32.18-.62.35-.92.51-.01-.06-.03-.13-.04-.2-.02,0-.04,0-.05,0v.5s-.04-.04-.06-.06c-.1.06-.2.11-.31.17.06.05.12.1.17.15.04.04.1.1.11.15.04.41-.02.81-.19,1.19-.19-.05-.35-.08-.46-.11-.06-.18-.08-.34-.16-.46-.16-.27-.33-.54-.53-.78-.33-.37-.69-.71-1.03-1.06-.05-.05-.09-.12-.1-.19-.06-.35-.29-.6-.52-.84-.25-.26-.52-.52-.76-.79-.62-.71-1.24-1.42-1.84-2.14-.2-.24-.41-.5-.49-.79-.08-.29-.23-.48-.42-.68-.3-.33-.78-.49-.9-1.02-.1-.45-.48-.78-.59-1.25-.06-.25-.27-.48-.3-.79-.04-.34-.2-.66-.26-.99-.08-.43-.15-.87-.18-1.3-.02-.26.04-.54.09-.8,0-.04.17-.09.25-.08.18.02.36.1.54.11.42,0,.85-.03,1.27-.03.11,0,.24.03.32.09.32.27.61.56.93.82.21.17.45.31.7.48-.09.08-.14.12-.15.13.18.16.36.31.52.45-.05.11-.1.18-.1.25,0,.21.02.43.04.64.01.14,0,.33.08.4.23.21.23.44.23.72,0,.25.07.51.11.76.05.33.09.66.17.98.04.18.17.33,0,.51-.03.03,0,.18.05.21.19.13.15.31.17.49.02.18.03.36.08.54.14.51.3,1.01.45,1.52.13.47.25.95.4,1.41.07.21.21.19.39.07-.08-.06-.17-.08-.17-.12-.06-.37-.13-.73-.16-1.1-.03-.34.14-.71-.1-1.02-.41-.55-.52-1.19-.52-1.85,0-.05-.01-.11-.02-.16-.04-.29-.09-.58-.13-.86.01-.06-.05-.13-.07-.2-.04-.13-.05-.27-.08-.4-.02-.08-.08-.18-.05-.22.18-.25.04-.45-.08-.65.15-.24.15-.23.02-.49-.05-.11-.12-.23-.11-.34.05-.48-.13-.91-.24-1.36-.04-.16-.04-.33-.04-.49,0-.34,0-.68,0-1.01,0-.26-.01-.54.06-.79.15-.53.36-1.05.54-1.57.17-.5.43-.61.91-.39.15.07.3.18.44.17.29-.02.57-.11.85-.16.07-.01.18-.04.23,0,.24.22.47.45.69.7.08.09.09.25.18.32.22.18.24.4.16.64-.05.16-.11.31-.17.47-.15.43-.29.86-.46,1.29-.22.57-.09,1.21-.4,1.78-.16.3-.22.67-.29,1.02-.07.31-.08.63-.14.94-.05.26-.15.51-.24.82.02.03.08.15.15.17.3.06.27.27.28.49.01.2.03.4.06.6,0,.05.06.09.1.14.04-.04.12-.09.11-.13,0-.14-.04-.28-.05-.42,0-.06-.02-.13,0-.19.02-.11.07-.21.1-.32.04-.18.04-.37.1-.54.14-.37.32-.72.46-1.09.1-.26.18-.53.23-.8.12-.57.45-1.08.49-1.68,0-.1.15-.19.24-.28.06-.06.13-.1.17-.13-.1-.08-.24-.14-.23-.18.04-.41.1-.81.17-1.22.05-.29.14-.58.21-.87.06-.27.18-.53-.24-.7-.23-.1-.37-.42-.53-.66-.25-.36-.48-.74-.7-1.08-.12-.02-.21-.05-.3-.04-.16.02-.41.02-.45.11-.14.3-.31.14-.48.08-.27-.09-.51-.33-.84-.23-.04.07-.08.15-.13.22-.58-.3-1.21-.31-1.2.26-.28,0-.38.11-.47.43-.04.15-.13.29-.19.44-.02.05-.06.09-.07.15-.09.44-.18.87-.25,1.31-.03.17,0,.36,0,.53,0,.22-.02.44-.04.74-.18-.12-.27-.19-.36-.25-.2-.14-.32-.32-.45-.54-.13-.22-.45-.35-.7-.49-.08-.04-.2,0-.31,0-.16-.05-.32-.09-.48-.08-.29.01-.53.26-.86.18-.2-.04-.41-.02-.61,0-.12,0-.23.07-.34.1-.15.05-.32.06-.44.14-.23.17-.38.38-.29.72.05.19,0,.4,0,.61,0,.34,0,.69,0,1.11-.16-.1-.3-.14-.34-.23-.18-.35-.4-.42-.76-.24-.24.11-.52.17-.78.19-.28.02-.57.03-.83.03-.35,0-.6.09-.85.28-.08.06-.15.15-.24.17-.45.11-.69.44-.6.89.01.08.02.17,0,.24-.09.4.26.78.03,1.18,0,0,.05.03.06.05.18.36.1.51-.29.58-.11.02-.23.04-.36.06-.06-.29.13-.43.3-.56.16-.12.24-.22.12-.43-.12-.2-.2-.43-.26-.66-.21-.92-.44-1.84-.44-2.8,0-.44-.09-.93.37-1.24.03-.02.03-.06.05-.09-.12-.13-.23-.26-.36-.42.12-.01.23,0,.25-.04.14-.26.39-.28.64-.3.08,0,.2-.02.23-.08.27-.47.79-.56,1.21-.78.78-.4,1.38-1,2.02-1.56.02-.02.02-.07.04-.1.11-.11.21-.24.33-.32.2-.13.45-.2.64-.34.45-.35.88-.72,1.32-1.09.42-.35.81-.72,1.24-1.05,1.06-.82,2.12-1.63,3.21-2.42.62-.45,1.28-.84,1.91-1.27.17-.11.31-.26.49-.35.4-.23.3-.87.83-.99.13-.47.26-.93.4-1.42-.15,0-.23,0-.31,0-.16-.02-.34,0-.18-.27.11-.19-.03-.33-.22-.41-.08-.03-.17-.05-.26-.08.02-.02.03-.03.05-.05-.06-.1-.13-.19-.19-.29-.18-.32-.53-.3-.81-.42-.33-.13-.69-.19-1.04-.28.02-.17.03-.28.05-.48-.17.16-.28.28-.4.39-.04.04-.08.11-.11.11-.31-.06-.36.21-.43.38-.21.45-.34.94-.57,1.37-.39.73-.83,1.44-1.26,2.15-.1.16-.19.29.11.34-.11.09-.27.16-.26.22.02.22-.14.31-.23.46-.05.08,0,.29.08.36.12.11.18-.02.25-.13.37-.62.76-1.22,1.12-1.84.24-.41.49-.83.62-1.29.12-.41.35-.72.57-1.06.13-.2.29-.39.41-.59.1-.16.19-.26.4-.18.08.03.17.02.24.07.29.19.62.34.84.59.24.28.39.65.55,1,.07.14.1.33.07.48-.03.13-.16.24-.26.35-.65.68-1.27,1.39-1.96,2.02-.49.45-1.07.82-1.62,1.21-.14.1-.32.16-.48.23.2.12.01.21-.08.29-1.18.95-2.36,1.9-3.54,2.84l-.02-.08c-.14,0-.28-.01-.42-.02.38-.33.76-.65,1.14-.98.39-.34.81-.66,1.15-1.04.34-.38.6-.82.91-1.23.25-.33.25-.33-.08-.61-.29.36-.58.71-.86,1.08-.09.11-.13.26-.2.41-.08.01-.22.03-.41.07.1.06.14.09.23.14-1.29,1.13-2.68,2.04-4.06,2.86-.25-.16-.44-.28-.64-.4-.26.36-.59.3-.84.27-.16.08-.24.14-.33.16-.11.03-.24,0-.35.04-.35.1-.39.07-.48-.27-.05-.19-.05-.46-.45-.34.03-.36.06-.68.09-.99-.03.07-.06.15-.1.23-.05.09-.12.17-.16.26-.2.42-.21.42-.54.09-.01-.01-.03,0-.05-.01-.01.06-.02.13-.04.19-.07.18-.52.35-.58.23-.1-.2-.16-.41-.23-.63-.03-.09-.04-.19-.05-.29-.02-.13-.05-.26-.06-.4,0-.12,0-.24,0-.37.01-.3.03-.61.05-.91.04-.01.08-.02.12-.03.07.15.15.3.19.46.08.29.23.44.52.38-.1-.11-.17-.2-.24-.29.02-.09.09-.21.06-.3-.08-.26-.19-.52-.29-.78-.21-.54-.42-1.08-.62-1.62-.1-.27-.17-.55-.25-.83-.01-.04,0-.09.02-.13.11-.39.22-.78.32-1.17.23-.96.61-1.86,1.16-2.69.04-.07.11-.13.17-.18.29-.2.58-.31.95-.36.35-.04.66-.11,1,.05.29.13.64.12.92.27.26.13.49.14.74.08.35-.09.68-.22,1.02-.33.62-.2,1.24-.38,1.85-.59.36-.12.72-.28,1.07-.43.2-.08.41-.16.59-.28.25-.17.5-.32.79-.18.2.1.37.28.51.46.26.33.49.69.73,1.03.22.31.41.37.67.21,0,.03.03.05.03.07-.02.23.19.14.29.21.01.01.07-.04.11-.06-.07-.06-.12-.14-.2-.18-.14-.09-.35-.12-.42-.24-.3-.47-.55-.97-.8-1.42-.18-.14-.34-.24-.48-.37-.45-.38-.94-.38-1.36.02-.22.2-.42.46-.78.27-.03-.02-.09,0-.13.02-.34.06-.67.12-1,.2-.12.03-.23.1-.33.16-.4.22-.77.51-1.27.43-.05,0-.12.07-.16.12-.05.05-.06.14-.11.17-.41.29-.82.15-1.22-.03-.16-.07-.36-.26-.48-.21-.31.13-.65.1-.9,0-.49-.18-.88-.09-1.29.16-.38.22-.85.31-1.07.77-.53,1.07-.98,2.16-1.13,3.36-.01.08-.05.15-.08.23-.03,0-.05.01-.08.02-.62-1-1.13-2.08-2.19-2.81,0,.15.01.27.02.39-.2-.05-.4-.1-.59-.15-.03,0-.04-.08-.07-.11-.03-.04-.07-.11-.12-.11-.17-.02-.34-.01-.51-.03-.33-.05-.66-.08-.97-.17-.31-.08-.61-.09-.87.09-.3.22-.58.46-.87.71-.36.31-.82.47-1.12.87-.14.18-.34.19-.54.03-.17-.14-.34-.29-.54-.37-.64-.25-1.29-.49-1.96-.68-.21-.06-.49,0-.7.1-.31.15-.57.39-.85.6-.07.05-.1.15-.16.26-.04,0-.15,0-.29.02.05.14.09.24.15.36-.13-.06-.24-.11-.35-.16-.03.08-.06.12-.06.16-.02.21-.29.34-.21.6,0,.02-.07.07-.12.08-.11.05-.22.08-.34.13.04.08.07.16.08.19-.12.15-.29.26-.29.38,0,.19.1.38.17.63-.51-.32-1.02-.26-1.54-.15-.07.02-.16-.04-.24-.05-.13-.01-.26-.03-.38,0-.15.03-.3.11-.45.13-.25.03-.51.02-.77.05-.35.04-.4.13-.24.44-.27.14-.62-.22-.85.14.03.07.06.14.09.22-.5.29-.37.47-.1.71.4.35.8.68,1.19,1.03.11.1.17.26.29.34.14.09.33.11.48.18.72.38,1.43.77,2.15,1.14.17.09.4.07.57.16.39.21.87.2,1.22.53.13.12.38.11.57.17.5.18,1,.39,1.5.57.31.11.63.19.95.29.05-.11.09-.17.25-.05.22.17.49.29.75.41.49.23,1.07.21,1.54.52.25.16.57.2.83.34.32.17.62.38.93.57.09.05.18.1.28.11.15.02.31-.02.46.01.38.09.81.16,1.06.48.35.44.77.77,1.21,1.08.15.1.33.19.51.21.19.03.39-.03.58-.05.5-.06.88.18,1.2.51.17.18.32.2.53.19.2,0,.39,0,.53,0,.05.18.07.29.1.39.04.11.12.21.13.32.04.62,0,1.24.09,1.87.1.71.11,1.43.15,2.14,0,.11-.04.23-.07.35-.02.11-.04.22-.08.32-.07.16-.11.36-.24.45-.14.1-.31.15-.47.21,0,0,0,0,0,.01-.04.07-.07.14-.11.21.01.01.02.03.03.04-.03.02-.06.05-.08.07,0,0,0,0,0,0-.01.03-.03.05-.04.08-.05.12-.09.24-.13.36-.04.13-.12.22-.22.29-.02.04,0,.12.03.16.1.18.21.35.31.5.04-.13.09-.27.11-.36.17.69.35,1.41.54,2.16-.37-.5-.85-.66-1.43-.6-.09,0-.18-.05-.27-.06-.2-.02-.36-.23-.59-.1-.15.09-.32.16-.45.28-.07.06-.06.2-.09.3.09.02.18.04.28.06.07.01.14,0,.2.03.21.12.4.27.61.39.44.24.92.4,1.31.69.51.39.94.88,1.41,1.33.06.06.08.14.12.22.21.36.24.77.27,1.17.04.48.13.95.15,1.43.02.46-.02.93,0,1.4.01.37.07.73.1,1.1.04.48.07.97.11,1.47-.03.02-.09.06-.15.11.07.06.16.1.17.15.05.31.1.61.11.92.02.31,0,.63,0,.94,0,.48,0,.95-.02,1.43,0,.24-.13.5-.05.7.1.27.11.53.12.8,0,.21.04.42.06.62h.11c.18-.71.29-1.43.28-2.18.07.07.1.14.11.2.05.4.11.8.14,1.21.04.43.06.86.07,1.3,0,.25-.01.49,0,.74,0,.18.03.37.05.55,0,.08.01.15.02.23h.09v-.8s.03,0,.05,0c.05.12.09.23.14.35.03,0,.07-.02.1-.02-.16-1.23-.32-2.45-.48-3.66.13-.04.19-.06.27-.09-.11-.09-.24-.14-.27-.23-.03-.1.07-.22.07-.33-.01-.39-.04-.79-.08-1.18-.04-.35-.12-.69-.15-1.04-.02-.21.08-.46-.01-.62-.18-.31-.07-.66-.22-.98-.12-.27-.12-.61-.15-.91-.03-.33-.08-.68,0-.98.11-.44.08-.86-.04-1.25-.12-.39-.22-.77-.17-1.18.01-.12-.05-.25-.11-.36-.06-.12-.19-.21-.24-.34-.12-.32-.2-.65-.32-1.06.19.17.34.3.5.43.27.24.53.5.82.72.32.24.67.45,1.01.66.14.09.28.19.41.29.4.04.78.19,1.12.42.23.16.44.33.67.48.05,0,.1.01.15.02.02,0,.03.02.05.03.33.27.78.15,1.14.35.14.08.31.13.47.16.45.11.91.2,1.4.31.03-.03.11-.11.16-.21.06-.12.16-.29.12-.39-.05-.11-.24-.23-.35-.21-.31.05-.55-.12-.82-.19-.42-.11-.82-.27-1.22-.42-.12-.04-.24-.13-.37-.16-.83-.17-1.58-.52-2.25-1.03-.32-.24-.63-.51-.94-.76.32.08.61.2.9.31.33.12.67.22,1.01.34.41.14.81.3,1.22.43,1.18.38,2.37.74,3.55,1.12.26.08.36.28.4.45-.12.15-.24.25-.26.36-.01.06.11.21.19.23.36.09.73.15,1.09.21.24.04.48.07.72.1,0,.03,0,.05,0,.08-.13,0-.26.03-.4.03-.18,0-.25.08-.17.24.09.17.02.52.4.39,0,0,.01.01.02.02.15.11.24.55.15.73.05,0,.14.01.14.02.02.3.29.45.47.59.45.34.96.6,1.44.91.11.07.27.17.28.26.03.27,0,.55-.02.82-.1.77-.21,1.54-.31,2.31-.01.11.02.22,0,.33-.12.47-.25.93-.38,1.39-.14.51-.27,1.03-.43,1.53-.18.55-.42,1.07-.59,1.62-.21.71-.37,1.44-.57,2.16-.13.47-.3.92-.44,1.39-.12.4-.24.81-.35,1.22-.09.36-.18.73-.25,1.1-.14.76-.19,1.53-.41,2.27-.29,1-.34,2.01-.43,3.03,0,.07,0,.14-.02.22-.08.5-.18.99-.24,1.49-.04.34-.02.68-.05,1.02-.03.35-.1.69-.12,1.04-.02.28.02.56,0,.84-.02.4-.09.8-.11,1.2-.02.35.01.69,0,1.04-.02.69-.14,1.37-.18,2.05-.04.8-.08,1.6-.13,2.4-.04.66-.11,1.32-.17,1.99-.01.13-.02.26-.04.39-.06.37.11.76-.1,1.13-.08.15-.08.4-.01.56.06.16,0,.23-.06.34-.2.32-.39.65-.28,1.06.02.06-.02.14-.03.21-.1.55-.18,1.11-.29,1.66-.05.25,0,.44.25.55.03.01.07.03.08.06.24.47.17.93-.2,1.35-.14.16-.27.33-.43.52-.06-.29-.1-.58-.17-.87-.04-.17-.13-.34-.19-.51-.03-.07-.04-.15-.05-.23-.02-.11-.01-.23-.04-.34-.04-.17-.09-.34-.13-.52-.04-.18-.06-.36-.12-.54-.1-.34-.23-.67-.33-1.01-.05-.16-.03-.34-.09-.5-.09-.27-.23-.52-.32-.78-.18-.54-.34-1.09-.5-1.64-.1-.32-.17-.65-.29-.96-.14-.36-.26-.72-.21-1.12.1-.76.16-1.51-.02-2.27-.08-.34-.17-.68-.21-1.02-.06-.5-.06-1-.12-1.5-.03-.3-.11-.59-.16-.89-.07-.54-.14-1.08-.2-1.62-.1-.86-.19-1.71-.28-2.57-.02-.23.05-.52-.07-.68-.15-.21-.17-.41-.21-.63-.15-.91-.29-1.83-.45-2.73-.1-.56-.29-1.1-.22-1.69.05-.39.04-.79.03-1.18-.02-.5-.13-.99-.1-1.49.05-.77-.27-1.52-.14-2.29,0-.02,0-.04-.01-.05-.25-.17-.09-.35-.03-.53,0-.03,0-.06-.02-.12-.05.07-.08.12-.12.17-.05-.14-.08-.26-.13-.41v1.38c-.11-.09-.15-.13-.23-.2.02.47.03.89.07,1.31.07.82.16,1.64.23,2.47.05.5.06,1.01.12,1.51.07.58.17,1.15.26,1.72.06.38.12.76.22,1.13.19.73.22,1.5.31,2.26.02.13,0,.27.01.41.03.23.09.46.13.69.05.27.08.54.13.81.02.1.09.2.1.3.01.58,0,1.15.02,1.73,0,.06.03.13.04.19.1.6.21,1.19.3,1.79.08.52.14,1.04.22,1.55.12.74.27,1.47.4,2.21-.03,0-.05.01-.08.02-.03-.1-.07-.2-.09-.3-.17-.74-.33-1.48-.5-2.22-.02-.09-.08-.18-.14-.25-.14-.17-.28-.33-.14-.56.03-.05.01-.13,0-.18-.19-.51-.38-1.02-.56-1.53-.15-.4-.28-.81-.44-1.2-.25-.62-.55-1.21-.73-1.86-.14-.51-.35-.99-.54-1.48-.1-.24-.24-.47-.33-.71-.13-.33-.21-.67-.35-.99-.13-.29-.31-.56-.45-.85-.15-.31-.25-.65-.42-.95-.24-.42-.54-.81-.81-1.21-.08-.13-.16-.26-.24-.39.03,0,.06.01.1.02.07-.11.2-.23.19-.32-.05-.3-.16-.58-.26-.87-.1-.28-.24-.55-.33-.84-.11-.33-.19-.67-.28-1.01-.08-.31.22-.76.49-.81.06-.11.1-.2.16-.29.09-.14.23-.26.3-.41.24-.53.47-1.06.7-1.6.02-.05.03-.12,0-.15-.13-.17-.08-.35-.06-.53.04-.32-.02-.65.16-.95.01-.02-.03-.07-.03-.1,0-.13,0-.27.03-.4.02-.1.09-.19.09-.29,0-.59.01-1.17,0-1.76,0-.59-.01-1.19-.05-1.78-.03-.49-.11-.98-.17-1.47-.02-.17-.02-.35-.03-.53.08-.19.11-.36-.19-.44.08-.09.14-.17.2-.24-.02-.03-.04-.07-.06-.08-.26-.1-.41-.24-.16-.5.02-.03,0-.16-.04-.18-.3-.12-.33-.29-.16-.47-.33-.7-.46-1.48-1.09-1.97-.11.19-.29.06-.29-.06-.01-.26-.21-.19-.34-.25.07-.07.13-.14.26-.28-.59.09-1-.08-1.29-.52-.28.24-.55.37-.86.11-.05.14-.05.26-.24.16-.22-.12-.48-.2-.72-.22-.51-.03-1,.09-1.49.25-.17.06-.26.15-.08.32.05.05.11.14.1.2-.04.19-.11.37-.16.56-.06-.04-.13-.09-.18-.13-.09.08-.16.15-.24.22.23.09.1.24.04.35-.12.21-.14.41-.04.63.06.12.16.24.16.36,0,.33-.52.67-.82.52-.55-.27-1.08-.57-1.61-.87-.27-.15-.51-.34-.75-.5-.08.02-.18.06-.28.06-.37,0-.69.1-.98.36-.19.16-.47.22-.71.32-.08.03-.18.05-.23.11-.27.29-.53.59-.78.9-.09.11-.14.26-.21.39l.07.04c-.07.05-.14.1-.21.15.03,0,.06.02.09.03-.02.16,0,.38-.08.49-.24.29-.14.57-.09.87,0,.07.03.14,0,.2-.12.25-.24.5-.36.74-.13-.04-.21-.07-.32-.1,0,.09,0,.16.01.2-.27.04-.6,0-.76.14-.21.19-.39.09-.58.1-.31.01-.41.19-.31.48.03.1-.02.22-.04.34-.07-.07-.19-.14-.2-.22-.15-.68-.38-1.34-.66-1.98-.21-.5-.35-1.03-.53-1.54-.2-.56-.41-1.12-.63-1.67-.16-.42-.34-.83-.51-1.25-.06-.15-.12-.3-.17-.46-.18-.48-.34-.97-.53-1.45-.12-.28-.3-.54-.45-.81.16-.05.3-.06.37-.13.09-.08.18-.21.17-.32,0-.14-.1-.38-.16-.38-.22,0-.17-.2-.26-.28-.17-.16-.13-.25.09-.27,0,0,0-.03,0-.04-.02-.31.21-.28.4-.29-.01-.05-.02-.09-.04-.16.13.05.22.09.32.14-.12.23-.26.43-.34.64-.07.17,0,.25.21.19.39-.11.45-.5.73-.72-.07-.05-.1-.1-.14-.11-.2-.04-.33-.13-.33-.36,0-.03-.03-.06-.05-.09-.19-.24.05-.38.14-.54.01-.03.21.02.3.07.2.11.39.03.38-.2-.01-.25.14-.32.32-.41.27-.13.51-.32.79-.43.23-.09.5-.11.71-.15-.18.18-.36.36-.55.54.06,0,.12,0,.17-.03.57-.29,1.2-.52,1.71-.91.85-.65,1.62-1.39,2.42-2.11.35-.31.68-.65,1.01-.98.4-.4.8-.8,1.19-1.22.17-.18.3-.4.45-.6.18-.24.35-.48.55-.71.28-.34.21-.78.35-1.16.14-.36.22-.73.35-1.09.09-.24.26-.41.12-.73-.09-.21-.11-.46-.23-.67,0-.14-.03-.28-.09-.39-.16-.26-.2-.53-.22-.87-.11-.06-.27-.14-.42-.23-.53-.33-.86-.9-1.47-1.15-.34-.14-.64-.39-.96-.59-.09-.06-.17-.14-.25-.22-.23-.2-.44-.44-.7-.57-.48-.23-1-.4-1.49-.58-.08.09-.13.18-.19.2-.16.05-.33.04-.49.09-.24.07-.47.18-.7.26-.21.06-.36.37-.56.24-.26.15-.46.31-.68.37-.36.1-.74.12-1.1.2-.2.04-.39.13-.57.22-.38.19-.75.38-1.12.58-.42.23-.79.24-1.18-.12-.45-.41-1.02-.64-1.57-.9-.58-.27-1.26-.28-1.72.18-.08.08-.12.18-.18.28-.14.22-.3.43-.43.65-.11.18-.16.39-.3.54-.27.31-.64.4-1.04.39-.26,0-.54-.03-.79.04-.27.08-.5.28-.76.39-.35.15-.71.29-1.07.38-.46.11-.93.16-1.4.26-.23.05-.45.13-.66.21-.14.06-.26.19-.4.21-.24.04-.41.18-.58.32-.11.09-.21.18-.32.27-.2.16-.31.61-.2.84.13.27.27.53.37.81.07.21.09.44.14.71-.1-.03-.14-.04-.17-.06-.28-.08-.55-.25-.82-.23-.26.01-.48.29-.8.23-.15-.03-.31.03-.47.03-.22,0-.45-.04-.65.02-.46.14-.9.33-1.35.49.01.03.04.1.08.17-.03-.01-.06-.02-.08-.03-.21.39-.44.77-.64,1.17-.04.08-.02.2-.03.3.03,0,.05.01.08.02-.32.34-.37.57-.15.74-.05.09-.1.19-.15.27.07.08.19.15.18.2-.07.37.16.46.43.5-.08.36-.11.72-.25,1.03-.16.35-.1.71-.17,1.06-.07.32-.07.65-.12.98-.05.33-.16.66-.19,1-.03.35-.01.72.05,1.07.06.31.12.65.38.89.03,0,.06-.01.08-.02-.06-.28-.12-.57-.18-.83.36.18.72.37,1.08.54.23.11.47.22.71.3.51.18,1.02.38,1.55.51.51.12,1.03.18,1.55.23.71.08,1.43.12,2.14.19.05,0,.1.03.17.05-.24.06-.44.12-.64.15-.37.04-.75.06-1.12.09-.44.03-.89.09-1.33.09-.41,0-.82-.04-1.22-.08-.27-.02-.57,0-.8-.12-.55-.29-1.06-.66-1.59-.98-.08-.05-.18-.05-.27-.08l-.06.1c.09.12.22.23.28.37.17.38.53.57.85.74.6.31,1.22.55,1.94.51.64-.04,1.28.02,1.93.02.42,0,.84-.04,1.26-.03.53.02,1.05.02,1.5-.32.03-.02.09-.02.13-.03.31-.07.62-.14.93-.21.07-.02.15,0,.22-.01.26-.03.56,0,.76-.11.48-.29.96-.23,1.46-.14.17.03.36.03.56.04.09.02.27.1.32.05.17-.15.31-.12.47-.04.09.05.18.13.27.12.44-.04.86.33,1.31.08.01,0,.04,0,.05,0,.36.02.71.03,1.08.05,0-.07-.01-.13-.02-.2.37-.07.57.45.96.24.1.2.15.42.29.57.36.37.47.87.52,1.3.05.49.34.84.45,1.28.12.5.44.94.63,1.43.38.96.72,1.94,1.08,2.91.02.05.06.11.04.15-.13.32.02.58.18.84.19.3.19.3-.12.45-.12.06-.23.15-.34.22-.05.03-.11.07-.16.08-.13.04-.26.06-.39.09-.53-.09-.62.46-.96.67.05.02.11.04.11.05-.02.19,0,.42-.1.55-.27.35-.4.76-.44,1.17-.03.28.06.59.14.86.06.19.25.34.29.52.15.65.44,1.2.95,1.65.23.21.45.44.68.67-.05,0-.09.02-.12.02-.29,0-.33.06-.23.34.06.18.02.31-.16.42-.25.16-.49.33-.73.5.01.01.02.03.03.04h-.41c.03.22-.04.48.21.59.24.1.49.08.61-.23.01-.03.2-.03.24.02.21.26.33.29.67.13-.16-.26-.13-.51.09-.7.2-.17.43-.38.66-.4.28-.03.59.08.88.18.25.09.48.24.73.34.42.17.85.31,1.27.48.55.22,1.09.5,1.65.7.63.23,1.3.31,1.97.38.22.02.44.07.65.11-.35.25-.68.55-1.04.05.12.2.13.34-.11.35-.44.02-.88.03-1.31.01-.26,0-.5-.04-.62.29-.13-.09-.23-.17-.34-.23-.07-.04-.17-.06-.25-.04-.25.05-.49.15-.73-.03-.05-.04-.14-.04-.21-.06-.37-.08-.74-.16-1.1-.25-.13-.03-.26-.1-.39-.11-.69-.04-1.38-.09-1.92-.62-.24-.23-.54-.28-.78-.13.26.42.55.84.99,1.02.5.2,1,.44,1.5.59.5.15.94.49,1.52.45.32-.03.65.12.97.21.48.13.93.26,1.23.76.46.75,1.03,1.44,1.55,2.15.29.4.58.79.86,1.19.21.3.36.64.58.93.38.49.78.95,1.19,1.42.39.44.76.9,1.06,1.41.14.24.36.44.54.66.06.07.11.15.18.21.11.1.28.3.35.27.4-.18.33.07.31.3,0,.03,0,.08,0,.11.11.19.23.37.34.56.32.59.6,1.2,1.05,1.73.34.41.56.93.84,1.39.37.61.75,1.21,1.12,1.82.23.38.66.64.68,1.14,0,.03.02.05.04.07.21.36.43.71.63,1.07.2.36.37.75.6,1.09.27.39.58.74.74,1.2.11.33.27.64.41.97-.25-.27-.48-.55-.74-.79-.77-.71-1.53-1.44-2.35-2.1-1.08-.87-2.16-1.76-3.39-2.42-.2-.11-.39-.24-.61-.31-.83-.26-1.66-.5-2.49-.76-.41-.13-.82-.27-1.23-.39-.4-.12-.8-.22-1.2-.34-.28-.08-.55-.25-.86-.12-.04.02-.11-.01-.16-.02-.65-.11-1.3-.22-1.95-.32-.26-.04-.54-.04-.79-.12-.91-.33-1.77,0-2.66.16.09.12.16.22.24.33.2-.04.4-.07.6-.11.21-.04.41-.12.62-.1.49.03.99.09,1.48.16.59.08,1.18.18,1.77.29.19.03.36.13.55.17.39.08.79.13,1.18.23.86.23,1.73.46,2.58.75.72.25,1.43.55,2.11.88.52.25,1.01.56,1.49.87.28.19.51.45.77.66.58.46,1.18.9,1.75,1.38.47.39.91.8,1.36,1.22.38.35.74.71,1.1,1.07.31.31.64.6.92.94.62.74,1.22,1.5,1.83,2.25.53.67.96,1.4,1.24,2.21.12.35.16.74.31,1.09.11.25.05.42-.13.67-.1-.1-.17-.22-.25-.33-.04-.05-.1-.09-.17-.11-.24-.08-.48-.14-.72-.22-.15-.05-.3-.19-.38.04-.4-.25-.78-.49-1.17-.73.08-.01.15-.02.15-.02-.23-.1-.51-.21-.77-.34-.12-.06-.2-.19-.32-.25-.57-.29-1.15-.56-1.73-.83-.24-.11-.48-.23-.72-.34-.05-.02-.1-.04-.15-.06-.4-.12-.8-.23-1.19-.35-.58-.17-1.14-.44-1.78-.34-.06,0-.13-.01-.19-.04-.32-.17-.65-.29-1.02-.29-.34,0-.6-.31-.98-.22-.17.04-.39-.05-.56-.13-.28-.12-.54-.27-.83-.43-.01,0-.09.08-.13.06-.38-.18-.76-.14-1.15-.09-.22.03-.45-.03-.67-.02-.27.02-.53.11-.8.1-.42-.01-.78.16-1.15.3-.12.05-.23.16-.35.16-.44-.01-.71.33-1.04.52-.35.2-.81.31-1.03.72,0,.01-.04,0-.05.02-.19.12-.4.21-.58.35-.43.34-.85.7-1.26,1.07-.38.34-.8.66-1.12,1.05-.41.51-.77,1.06-1.11,1.62-.14.23-.25.51-.27.77-.04.44.11.89-.09,1.32-.05.1-.05.23-.05.35,0,.24-.1.54.02.7.23.34-.06.77.27,1.06-.03.69.33,1.27.6,1.86.29.65.85,1.06,1.39,1.49.36.29.75.54,1.13.8.1.07.21.11.33.18v-.2c.11.05.2.1.29.14.12.05.25.12.38.14.33.06.67.09,1.01.13.1.01.2.04.37.07-.11-.14-.17-.21-.22-.29.1.03.18.1.27.13.16.05.33.11.5.11.18,0,.36-.07.6-.12,0,0,.08-.1.16-.11.5-.08,1-.15,1.49-.22.17-.03.35-.04.51-.1.6-.23,1.19-.49,1.78-.73.4-.16.79-.33,1.19-.49.15-.06.32-.08.52-.13-.28.49-.52.91-.72,1.27-.02.15-.01.25-.05.32-.1.23-.24.46-.34.69-.07.18-.08.38-.16.56-.24.54-.51,1.06-.73,1.6-.15.35-.18.75-.5,1.01-.06.05-.06.19-.07.29-.02.17-.02.35-.04.52,0,.07-.03.15-.06.28.12-.07.18-.13.24-.14.05,0,.15.05.15.08,0,.17-.03.35-.05.52-.03.21.11.5.3.61-.19.15-.2.42-.01.55.05-.09-.05-.32.2-.22.03.02.06.04.09.06,0-.04,0-.08,0-.12-.02,0-.04,0-.06,0,.02-.03.04-.06.05-.08,0-.03,0-.05,0-.08,0-.08.02-.15.05-.22-.01-.03-.03-.07-.05-.11-.07-.11.02-.33.04-.51-.08,0-.14-.01-.25-.02.19-.22.22-.43.04-.61.05-.09.1-.17.13-.25.08-.26.13-.54.22-.79.07-.2.2-.37.28-.56.13-.29.26-.57.36-.87.07-.22.1-.45.16-.67.01-.05.08-.09.1-.15.15-.27.28-.55.43-.82.06-.12.15-.22.22-.34.5-.79,1.19-1.4,1.94-1.93.93-.66,1.88-1.28,2.83-1.9.19-.12.47-.11.62-.26.4-.38.94-.42,1.4-.65.55-.28,1.14-.47,1.63-.86.23-.18.54-.25.8-.38.09-.05.17-.13.25-.2.12-.1.25-.3.35-.29.28.02.44-.19.69-.23-.21-.33.13-.38.26-.44.16-.06.38.01.59.03.03.63.11,1.22-.41,1.7l.09.02c.06-.04.13-.07.19-.11-.1.31-.41.15-.52.23-.09.2-.14.33-.21.45-.1.18-.21.35-.3.52-.03.05-.01.13-.01.17-.11.16-.24.32-.32.49-.15.32-.26.65-.4.97-.11.25-.23.49-.37.73-.41.7-.75,1.43-1.29,2.05-.36.42-.66.89-1.02,1.31-.29.33-.61.63-.94.92-.24.21-.52.38-.77.59-.11.09-.18.23-.27.34.02.03.04.05.06.08-.07.01-.15,0-.2.04-.08.06-.15.14-.21.22-.12.15-.23.32-.36.46-.51.51-1.01,1.03-1.55,1.51-.23.21-.36.51-.66.66-.17.09-.25.34-.41.47-.39.3-.67.72-1.24.81-.04,0-.07,0-.11,0-.09.08-.19.14-.29.2v.06s-.07,0-.11,0c-.03.01-.06.03-.09.04-.14.05-.29.05-.44.02,0,0,0,0,0,0,0,.05-.05.1-.07.15-.05-.04-.12-.08-.13-.14,0-.03-.01-.06-.02-.09-.03-.01-.06-.02-.08-.04-.06-.04-.1-.08-.14-.12.03.16.06.32.09.48-.18.02-.39.03-.61.05.21.41.49.51.85.37.15-.06.32-.08.48-.07.48.04.9-.21,1.36-.24.31-.02.37-.29.56-.42.43-.29.77-.66,1.03-1.1.34-.58.88-.96,1.36-1.41.13-.12.28-.22.43-.32.09-.06.2-.08.27-.15.26-.28.5-.58.75-.86.41-.46.84-.91,1.23-1.39.74-.92,1.62-1.72,2.16-2.8.3-.6.75-1.14,1.05-1.74.48-.95.89-1.94,1.33-2.91.03-.07.09-.13.14-.2.03.01.07.02.1.04-.05.43-.09.87-.14,1.3-.05.41-.14.83-.14,1.24,0,.22-.07.42-.1.63-.03.27-.03.53-.06.8-.02.24-.03.49-.09.73-.1.4-.26.78-.36,1.18-.06.22-.04.46-.08.69-.16.93-.33,1.85-.49,2.78-.13.79-.24,1.59-.37,2.38-.05.31-.14.61-.22.92-.14.51-.29,1.02-.44,1.52-.2.7-.32,1.41-.39,2.14-.06.7-.2,1.38-.3,2.08-.06.39-.13.78-.15,1.18-.02.36.03.73.03,1.09,0,.49-.04.98-.05,1.47,0,.09.04.18.06.27.04.16.13.32.13.49,0,.29-.03.58-.04.88,0,.09-.02.19,0,.28.11.34.24.67.34,1.02.04.12,0,.27.03.39.08.29.17.58.28.86.05.12.13.24.23.34.04.04.13.03.2.04,0-.07.02-.14,0-.2-.09-.32-.22-.62-.16-.98.06-.42.05-.85.06-1.28,0-.22,0-.44,0-.71.26.1.28-.09.31-.23.06-.33.14-.66.12-.98-.06-1.16-.11-2.31.1-3.46.06-.34.13-.69.22-1.02.15-.57.12-1.16.46-1.7.39-.62.21-1.38.21-2.09,0-.02-.03-.04-.09-.13-.03.19-.06.33-.08.46-.03,0-.05-.01-.08-.02-.12-.63.26-3.06.56-3.56.05.07.09.13.13.21.17-.3.16-.62.29-.91.13-.29.12-.64.15-.96,0-.04-.04-.11-.08-.14-.24-.22-.23-.47,0-.7.1-.09.2-.22.22-.34.08-.63.15-1.26.2-1.89.03-.43-.05-.87.25-1.24q-.21-.21-.12-.34c.07.06.16.12.28.21.03-.53.03-1.06-.02-1.59-.04-.14-.05-.29-.05-.44-.03-.23-.05-.46-.1-.69-.05-.28.07-.57.36-.66h-.2c.12-.17.12-.17.05-.4,0-.03,0-.07,0-.11.05-.34.09-.67.13-.94.02.05.05.18.1.29.1.24.29.47.28.71,0,.18.04.35.09.52.11.07.21.17.23.31.12.64.18,1.29.2,1.93.03.13.11.29.02.42,0,.11,0,.22-.01.33.02.02.04.04.05.07.28.7.23,1.48.59,2.15.01.02,0,.06,0,.08.03.13.08.26.11.39.06.3.11.6.16.89-.2-.09-.34-.18-.46-.29-.16-.15-.25-.12-.32.07-.1.24-.18.49-.31.71-.14.24-.1.56-.35.75-.02.01,0,.07,0,.1.02.19-.17.33-.12.56.03.15-.12.34-.16.51-.07.33.05.68-.11,1.01-.17.34-.22.71-.22,1.11,0,.31-.14.62-.21.93-.03.11-.02.23-.04.34-.03.17-.09.33-.11.5-.04.28-.06.56-.11.84-.05.33-.14.65-.17.98-.08.84-.15,1.69-.2,2.53-.04.68-.02,1.36-.03,2.04-.02.9-.03,1.8-.06,2.7,0,.14-.11.29-.09.42.1.56.08.78-.05,1.19-.02.07,0,.14,0,.22,0,.12.02.23.03.35.01,0,.02,0,.04-.01.05.13.1.25.15.38.02,0,.05,0,.07,0,0-.14.03-.28,0-.4-.13-.57.02-1.13.04-1.7.02-.57.12-1.13.16-1.7.05-.76.07-1.52.1-2.28.02-.59.04-1.18.07-1.76.06-.96.15-1.92.43-2.85.1-.33.16-.67.24-1.01.1-.41.22-.81.31-1.22.08-.35.11-.72.22-1.06.08-.24.14-.45,0-.62.22-.54.51-1,.4-1.61-.05-.28.05-.6.11-.89.04-.18.13-.34.19-.51.05-.13.07-.27.13-.47.2.25.39.39.44.65.07.37.22.72.28,1.09.08.48.1.97.17,1.44.12.77.28,1.53.42,2.3.07.38.11.76.17,1.14.02.17-.02.37.06.5.23.39-.03.87.27,1.24.01.02,0,.06,0,.08.03.13.07.26.1.39.02.08.05.15.07.23.07.42.13.84.21,1.26.06.3.16.59.21.89.09.49.15.98.22,1.47.04.27.08.55.15.82.06.2.17.38.26.57.02.04.06.07.14.16-.04-.62-.08-1.16-.12-1.71-.03-.4-.05-.8-.08-1.2-.02-.2.01-.44-.09-.59-.21-.3-.2-.63-.24-.96-.03-.23-.06-.47-.11-.7-.07-.37-.17-.73-.24-1.1-.06-.3-.1-.61-.16-.91-.08-.44-.16-.88-.24-1.32-.09-.49-.13-1-.27-1.48-.09-.3,0-.58-.05-.86-.06-.32-.15-.64-.22-.96-.19-.89-.39-1.78-.58-2.67-.09-.46-.17-.92-.24-1.38-.08-.49-.14-.98-.21-1.47-.04-.26-.12-.52-.14-.79-.02-.3.06-.61-.17-.87-.02-.02-.02-.07-.02-.11-.05-.44-.09-.88-.15-1.32-.05-.4-.11-.79-.15-1.19-.03-.28-.06-.56-.08-.84,0-.06.08-.13.11-.16-.11-.28-.21-.55-.31-.82-.04-.09-.1-.19-.09-.28.02-.21.02-.44-.06-.67,0-.03-.01-.06,0-.08.03-.26.25-.51.54-.61-.01.09-.07.19-.04.25.18.41.38.81.56,1.21.25.58.49,1.16.72,1.75.12.31.22.62.33.93.09.25.17.49.24.75.02.06-.04.16-.09.2-.05.05-.14.06-.17.07.06.15.15.29.18.43.08.38.14.76.21,1.15.08.48.18.95.25,1.43.05.36.05.73.11,1.09.06.43.16.86.24,1.29.15.84.28,1.68.45,2.52.13.66.29,1.31.43,1.96.1.46.21.91.31,1.37.15.71.28,1.42.43,2.13.17.8.36,1.6.51,2.4.15.81.25,1.62.38,2.43.1.6.22,1.19.32,1.79.03.2-.04.41-.01.6.07.54.17,1.07.24,1.61.04.3.09.6.1.9.02.5.03,1,.03,1.5,0,.46-.02.92.02,1.38.03.33.13.66.2.98.14-.04.25-.04.3-.1.1-.12.21-.26.24-.4.02-.1-.09-.23-.13-.35-.27-.89-.03-1.79-.08-2.69-.03-.53-.08-1.05-.12-1.58,0-.09-.02-.17-.02-.26,0-.35.02-.7-.02-1.04-.07-.58-.2-1.15-.27-1.73-.05-.45-.08-.91-.34-1.3.3-.14.18-.38.11-.54-.1-.25-.2-.44-.14-.75.06-.3-.07-.64-.13-.95-.04-.2-.11-.39-.34-.46-.06-.02-.1-.11-.14-.17.01,0,.02-.02.03-.03.1.06.2.11.3.17.02-.01.05-.03.07-.04-.06-.14-.11-.29-.17-.43-.02-.06-.09-.1-.09-.16-.02-.37-.04-.73-.3-.96.04-.14.12-.26.1-.35-.09-.29-.23-.56-.19-.89.02-.17-.09-.35-.13-.53-.05-.26-.08-.52-.14-.77-.09-.34-.22-.66-.31-1-.16-.64-.31-1.28-.46-1.92-.01-.04-.02-.09,0-.14.06-.43-.07-.84-.12-1.26-.08-.78-.22-1.55-.24-2.33,0-.08.02-.17,0-.25,0-.08-.05-.15-.07-.23-.03,0-.05.02-.08.02v-1.4s.05-.02.07-.03c.05.08.1.16.16.23.18.25.34.52.55.74.34.37.73.69,1.07,1.06.08.08.09.24.14.38.19.14.4.29.61.45.27.21.51.47.81.63.29.16.62.24.95.33.12.03.26,0,.46,0-.09-.16-.14-.26-.24-.43.1-.08.23-.16.33-.26.28-.3.56-.6.83-.91.09-.09.16-.25.26-.27.28-.04.36-.2.39-.45,0-.08.05-.16.09-.23.36-.63.62-1.3.69-2.03.04-.37-.04-.76-.05-1.14,0-.45.05-.91.01-1.35-.04-.46-.14-.91-.24-1.36-.05-.22-.23-.43-.22-.63.01-.32-.19-.54-.34-.72-.21-.25-.38-.51-.55-.79-.25-.41-.48-.82-.87-1.12-.36-.28-.72-.56-1.08-.85-.18-.14-.34-.31-.53-.48.15-.1.29-.24.44-.27.28-.05.57-.03.86-.06.18-.02.38-.01.52-.1.26-.15.49-.19.75-.02.09.06.2.08.31.13.02-.12.04-.2.04-.23.14-.09.23-.16.33-.2.06-.03.17-.06.2-.03.16.13.27.08.41-.03.04-.04.12-.03.19-.03.22.01.44.06.65.04.28-.02.55-.08.83-.13.23-.04.48-.18.67-.11.26.09.47.08.71.02.05-.01.11-.03.16-.01.34.08.68-.07.94-.2.33-.16.63-.14.95-.16.25-.01.52-.01.76-.07.74-.19,1.47-.4,2.21-.6.13-.04.33-.06.37-.15.18-.44.69-.39.97-.73.28-.35.77-.51,1.14-.79.94-.7,1.87-1.42,2.78-2.15.42-.33.83-.69,1.17-1.1.33-.39.55-.87.82-1.31.09-.15.29-.29.28-.42-.04-.28.15-.38.25-.46.02-.24.05-.41.04-.59-.01-.49.14-.97.01-1.46-.08-.34-.07-.7-.14-1.04-.06-.29-.18-.56-.26-.84-.12-.43-.18-.9-.37-1.3-.24-.51-.58-.97-.91-1.43-.15-.21-.39-.35-.58-.54-.13-.13-.26-.26-.33-.42-.26-.52-.74-.73-1.23-.95-.05-.02-.12.03-.21.05.03-.09.06-.14.09-.22-.54-.11-1.07-.21-1.6-.31.02-.05.05-.09.09-.17-.35-.02-.67-.04-1.04-.07.19-.25.34-.48.51-.67.24-.28.57-.5.76-.8.63-1.01,1.22-2.06,1.83-3.09.52-.88,1.04-1.76,1.58-2.63.04-.07.17-.12.26-.13.14-.02.31.04.44-.01.35-.16.69-.36,1.1-.25.01,0,.04,0,.05-.02.14-.19.32-.09.5-.09.22,0,.42.28.65.03.01-.01.07,0,.1.02.5.24.98.19,1.45-.16-.17-.1-.28-.24-.53-.17-.29.09-.6.08-.85-.17-.13-.13-.28-.24-.45-.37.09-.04.18-.07.27-.11.21-.12.41-.24.61-.37.07-.04.12-.12.19-.15.41-.14.71.08.96.35.19.21.3.21.47,0,.08-.1.21-.19.33-.22.33-.08.68-.12,1.06-.18,0,.03,0-.03.02-.08.13-.37.09-.42-.31-.45-.21-.01-.41-.04-.62-.06,0-.02-.01-.05-.02-.07.11-.05.21-.14.32-.15.32-.05.65-.03.95-.12.51-.14,1-.31,1.5-.5.45-.17.87-.41,1.32-.56.55-.19.99-.53,1.38-.94.42-.43.84-.86,1.25-1.29-.01,0-.07-.03-.19-.07.2-.1.34-.17.48-.24-.02-.01-.04-.03-.06-.04.15-.39.62-.54.79-.93,0,0,0,0,.01,0,0-.05,0-.11.03-.15.02-.07.06-.13.11-.18.02-.02.05-.05.07-.07,0,0,0,0,0,0,.14-.23.33-.36.54-.44.02-.02.03-.04.05-.05.04-.02.09-.04.13-.06.07-.02.14-.02.21-.01.23-.06.47-.12.68-.25-.04.21-.05.38-.1.53-.02.06-.06.12-.11.17,0,.05.02.11,0,.16,0,.07-.03.14-.07.2-.06.09-.13.17-.21.24-.13.24-.26.47-.41.69-.13.18-.33.32-.5.47-.24.22-.49.43-.75.63-.31.25-.64.48-.99.75.12.06.17.09.3.17-1.61.7-3.16,1.37-4.7,2.03,0,.02.02.05.03.07.04,0,.09,0,.13-.01.59-.18,1.2-.33,1.78-.55.69-.26,1.36-.56,2.03-.86.35-.16.68-.36,1.01-.56.14-.08.26-.21.39-.31.2-.15.45-.27.61-.45.31-.34.57-.71.96-.97.11-.07.23-.17.29-.28.26-.47.5-.95.74-1.42-.04,0-.09,0-.13-.01ZM66.78,38.36s-.02,0-.06-.03c-.04.1-.07.19-.12.31.07.03.13.05.13.05v.79c-.19.15-.32.25-.49.39.26.11.24.22.17.41-.07.22-.04.47-.06.71-.02.26-.02.53-.06.78-.06.37-.18.74-.23,1.11-.05.36-.07.74-.08,1.11,0,.17.08.34.11.51.04.25.19.58.08.75-.21.34.06.49.15.72.06.16.13.32.16.48,0,.05-.11.16-.17.16-.16,0-.33-.06-.48-.1-.05-.01-.1-.06-.12-.1-.14-.3-.3-.59-.41-.9-.22-.64-.43-1.29-.6-1.95-.08-.3-.03-.63-.05-.95-.02-.24-.08-.48-.1-.73-.02-.25-.02-.5,0-.74.09-.68.16-1.38.32-2.04.19-.77.58-1.45,1.11-2.04.21.16.38.33.58.43.27.13.2.34.21.54,0,.11,0,.21,0,.34ZM67.29,50.79c-.22-.11-.42-.28-.62-.43-.05-.03-.07-.1-.11-.18.15-.05.27-.09.4-.14.15.41.49.51.84.61-.1.32-.34.24-.52.14ZM56.79,32.15c.41-.14.84-.25,1.25-.36.15-.04.3-.07.45-.1.05-.01.12-.01.16-.04.45-.32.98-.24,1.48-.34.13-.03.23-.14.36-.17.27-.08.55-.14.82-.22.45-.12.9-.23,1.35-.36.31-.09.6-.24.91-.32.18-.05.38-.04.56-.06.44-.05.88-.11,1.32-.16.4-.04.8-.07,1.2-.11.06,0,.13-.02.18-.05.38-.28.89-.33,1.24-.05.22.18.36.46.53.7.05.07,0,.23.18.14,0,0,.06.04.07.07.11.3,0,.58-.28.81-.24.2-.5.3-.82.35-.27.04-.51.28-.78.4-.19.08-.41.09-.61.13-.03,0-.07,0-.1.01-.33.1-.65.22-.98.31-.38.1-.76.2-1.15.24-.34.04-.72.09-1.04-.01-.44-.14-.84-.03-1.25.03-.88.13-1.76.17-2.64.11-.15,0-.3.05-.45.06-.25,0-.51,0-.76,0-.37,0-.75.03-1.12.03-.08,0-.17-.03-.25-.06-.21-.06-.41-.13-.62-.2,0,.02-.01.04-.02.05-.05-.09-.11-.17-.16-.25.11-.56.61-.45.97-.57ZM53.92,33.61c.05.19.07.34-.21.26-.03,0-.08.03-.05.02-.13-.24-.24-.43-.34-.63.38.01.54.11.6.35ZM50.46,5.8c-.01.48-.36.84-.95.93.34-.33.64-.63.95-.93ZM29.39,13.22c-.51-.07-1.01-.16-1.52-.22-.11-.01-.22.05-.33.07-.07.01-.15.04-.2.01-.24-.11-.46-.25-.7-.34-.61-.22-1.23-.41-1.84-.61-.34-.11-.69-.22-1.03-.34-.36-.14-.72-.3-1.07-.45-.37-.16-.75-.29-1.09-.49-.16-.1-.28-.31-.36-.49-.04-.02-.08-.03-.11-.04-.09-.04-.17-.09-.24-.14.03.1.06.2.1.31-.26-.09-.48-.15-.69-.24-.52-.24-1.06-.45-1.55-.74-.55-.33-1.06-.73-1.58-1.11-.15-.11-.24-.22-.06-.4.1-.09.12-.26.19-.38.18-.3.67-.44.98-.3.39.17.78.24,1.18.01.25-.14.5-.06.73.13.11.09.28.1.42.16.18.07.35.16.53.24.21.09.42.19.63.27.07.02.16-.01.25-.02,0,.02,0,.03,0,.05.15.07.31.13.46.21.24.12.46.26.7.37.1.05.22.04.35,0,.4.46.88.68,1.51.47,0-.08-.01-.18-.02-.28.03-.01.06-.02.09-.04-.34-.22-.68-.44-1.02-.67-.04-.03-.11-.05-.12-.09-.05-.31-.25-.33-.51-.35-.15,0-.31-.17-.43-.3-.14-.16-.26-.21-.49-.16-.22.05-.53.03-.69-.1-.25-.19-.5-.24-.86-.25.22-.44.41-.84.63-1.22.22-.38.45-.75.71-1.11.1-.13.26-.23.41-.3.49-.24.99-.38,1.53-.19.1.03.2.06.3.06.52.02.87.41,1.3.61.03.02.06.04.09.06.63.4.52.5,1.28-.1.47-.37.97-.7,1.45-1.05.02-.02.04-.03.06-.05.47-.41,1.11-.43,1.62-.08.28.19.55.39.92.4.1,0,.2.04.28.1.22.16.42.21.6-.1.25.27.47.52.75.83.07.31.27.68.58.99.04.04.12.1.11.13-.07.4.28.66.34,1.01.02.1.02.21.04.37.08.24.24.54.26.85.04.49,0,.99-.02,1.48,0,.14-.01.28.02.41.05.25-.11.45-.13.68-.02.25.03.51,0,.79-.07-.07-.12-.18-.21-.22-.11-.06-.26-.11-.37-.08-.08.03-.14.19-.16.3-.06.32.13.51.36.72.17.16.23.43.33.67.01.03-.08.11-.14.15-.1.08-.21.15-.33.24.03.06.06.12.09.2-.05.02-.13.01-.15.05-.22.36-.38.19-.63,0-.23-.17-.55-.21-.84-.31-.21-.07-.43-.14-.64-.22-.05-.02-.1-.05-.15-.05-.44-.02-.89-.04-1.25.28-.03.03-.1.01-.15,0-.17-.02-.34-.04-.51-.07ZM32.06,14.73c-.08.23-.15.24-.33.07-.11-.1-.25-.18-.39-.24-.4-.17-.82-.32-1.22-.49-.08-.03-.15-.1-.28-.19.98-.1,1.86.11,2.78.22v.13c.1.02.19.04.28.06-.13.15-.22.27-.34.37-.04.03-.17.04-.2,0-.15-.15-.23-.11-.29.07ZM32.12,15.47c0-.06-.01-.15.01-.16.13-.05.26-.09.39-.13,0,.03,0,.06.01.08-.09.07-.18.15-.28.21-.03.02-.09,0-.14,0ZM32.48,15.75c-.08-.04-.12-.14-.18-.21.08-.04.16-.08.23-.13.32-.2.77-.12,1.01-.51.12-.19.64-.09.78.1.07.09.13.19.22.32-.26.04-.5.09-.73.13,0,.03-.01.05-.02.08.3.15.6.3.9.45-.77.16-1.51.13-2.2-.23ZM37.91,20.56c.04-.18.13-.32.37-.24.05.02.13-.04.2-.06.29-.09.58-.18.87-.28.11-.04.29.05.33-.16,0-.01.06-.03.07-.02.22.15.45.01.67,0,.39,0,.69.13.9.43.18.24.34.51.47.78.07.14.05.31.08.51.02,0,.08.03.15.05,0,.01.02.02.02.03-.17.43.28.62.38.95.08.25.28.47.42.7.07.12.13.24.2.36.1.17.2.34.3.51.19.34.39.68.57,1.03.12.23.26.41.55.42.08,0,.19.04.24.1.38.43.76.85,1.12,1.3.49.61.98,1.22,1.45,1.85.17.23.27.5.43.83-.19-.08-.32-.13-.44-.2-.77-.46-1.62-.68-2.47-.92-.45-.13-.87-.35-1.31-.53-.09-.04-.18-.1-.28-.1-.68-.01-1.17-.41-1.69-.76-.23-.16-.5-.27-.72-.44-.21-.16-.41-.35-.6-.53-.24-.23-.45-.48-.82-.53-.1-.01-.21-.22-.26-.36-.27-.71-.53-1.42-.78-2.13-.06-.17-.05-.36-.09-.54-.11-.55-.23-1.1-.34-1.65-.02-.12-.03-.26,0-.38ZM37.46,22.95s.07,0,.1,0c.32.88.64,1.77.97,2.67-.76-.46-1.63-.8-1.93-1.78.3-.31.76-.42.85-.91ZM38.74,13.27s.14.12.21.19c-.02.04-.05.08-.07.12-.16-.01-.33-.03-.49-.04.12-.09.22-.2.36-.27ZM38.57,14.19c.02.06.04.14.07.22.03.02.05.04.08.06.01-.04.04-.09.03-.13-.06-.21.11-.29.23-.39.31-.27.61-.54.89-.79.14-.03.3-.03.42-.1.39-.21.75-.46,1.14-.67.13-.07.3-.07.53-.12-.13.13-.2.22-.3.29-.61.43-1.23.85-1.85,1.27-.16.11-.34.22-.34.49.17.03.32.05.48.08.01.02.03.04.04.06-.27.19-.53.41-.82.57-.36.19-.74.35-1.12.5-.1.04-.28.01-.36-.06-.14-.13-.22-.31-.33-.47-.05.02-.09.03-.14.05.13-.11.26-.23.39-.34.32-.16.63-.33.95-.5ZM36.23,14.6c.18-.21-.11-.39-.21-.58-.05-.1-.13-.15-.07-.27,0-.02.02-.04.01-.05-.28-.59.14-.22.29-.21.27.01.51,0,.78-.14.22-.11.55-.03.82,0,.13.02.25.11.4.19-.48.26-.59.69-.64,1.14-.05,0-.12.01-.16-.01-.15-.09-.32-.13-.4.05-.05.11.02.27.04.45-.05-.03-.15-.08-.21-.15-.12-.13-.19-.31-.33-.42-.08-.06-.24-.01-.33-.01ZM36.3,22.91c.12.08.18.13.28.2-.12.13-.22.24-.33.35l-.07-.05c.04-.15.07-.31.12-.5ZM48.37,31.76c-.11-.03-.25.01-.35-.03-.27-.11-.57-.2-.76-.39-.28-.27-.69-.22-.98-.5-.03.11-.05.2-.09.35-.22-.15-.47-.26-.63-.45-.4-.46-.89-.78-1.39-1.12-.09-.06-.17-.13-.25-.19-.02.02-.03.03-.05.05l1.63,1.52s-.02.04-.04.06c-.22-.1-.43-.2-.65-.3-.61-.27-1.22-.53-1.83-.8-.12-.06-.24-.14-.36-.2-.1-.05-.21-.23-.33-.01,0,0-.06-.02-.09-.03-.3-.12-.61-.23-.91-.36-.21-.09-.42-.2-.66-.32,0,.04-.02.09-.05.21-.38-.16-.74-.33-1.11-.46-.25-.09-.53-.11-.78-.21-.22-.09-.42-.22-.62-.36-.14-.09-.26-.22-.42-.36.1,0,.16-.01.23-.02-.02-.03-.03-.06-.04-.07-.3-.25-.6-.48-.88-.74-.13-.12-.26-.28-.29-.45-.14-.69-.48-1.3-.76-1.93-.07-.17-.05-.26.1-.37.13-.09.23-.23.37-.38.13.19.27.35.36.53.38.7,1,1.14,1.64,1.55.08-.03.16-.06.23-.06.16,0,.27.07.39.16.04.04.09.07.13.1,0,0,0,0,0,0,.01,0,.03.02.03.02.08.06.16.12.24.18.16.12.33.23.5.34.34.22.68.43,1.03.63.06.03.11.08.15.13.53.26,1.07.51,1.61.76,1,.47,2.05.79,3.11,1.08.57.16,1.11.42,1.64.69.51.25.98.57,1.47.85.05.03.12.07.17.07.27-.02.23.23.28.36.06.15-.09.17-.22.2-.1.02-.22.08-.28.16-.15.18-.31.16-.5.11ZM50.24,35.19c-.08-.25-.25-.37-.47-.46-.23-.09-.44-.22-.71-.2-.1,0-.21-.18-.32-.28.04-.1.06-.21.12-.28.1-.11.19-.17.38-.19.43-.04.59.37.92.46.02,0,.02.08.04.12.04.08.08.22.13.23.2.01.28.14.38.28.03.04.17,0,.28-.02,0,.18-.02.37-.03.56.03.02.06.04.09.06-.08-.58.47-.31.61-.58l.05.07c-.18.13-.37.25-.61.42.11,0,.21.03.24,0,.15-.21.24-.06.35.03-.23.26-.71.33-.96.15-.09-.06-.2-.09-.29-.16-.08-.05-.17-.12-.19-.2ZM45.85,67.66c.09.08.05,1.46-.12,2.18-.14-.74-.07-1.48.12-2.18ZM39.21,48.55c-.04-.39-.08-.78-.12-1.16.02,0,.05,0,.07-.01.2.37.06.78.04,1.17ZM16.66,29.66c-.05-.08-.06-.12-.08-.14-.08-.11-.24-.25-.21-.32.05-.15.19-.29.32-.41.41-.38.49-.91.63-1.4.03-.12-.05-.27-.09-.45-.37.21-.59.45-.63.84-.01.09-.15.17-.23.25-.19.18-.39.36-.61.56-.37-.41-.47-.87-.6-1.33-.12-.41-.15-.83-.05-1.27.05-.24-.08-.52-.16-.77-.15-.52-.28-1.04-.48-1.54-.19-.47-.3-.98-.66-1.37-.06-.07-.04-.21-.08-.31-.15-.39-.32-.78-.47-1.18-.24-.62-.48-1.23-.71-1.85-.04-.1,0-.22-.02-.33-.02-.14-.03-.3-.23-.3,0,.08,0,.16,0,.23,0,.06-.05.12-.04.18.06.33.14.66.21.99.03.14.04.29.06.43.1.68.32,1.32.73,1.88.04.06.05.14.08.21.18.43.36.86.54,1.29.12.28.24.56.36.84.01.02.02.06.01.08-.17.59.09,1.09.32,1.59.02.05.06.1.06.15-.05.59.31,1.08.44,1.63.02.09.13.17.14.25.02.15-.01.31-.02.4-.25-.01-.44.01-.6-.03-.23-.06-.45-.16-.66-.27-.46-.24-.89-.53-1.37-.73-.62-.25-1.21-.56-1.65-1.02-.42-.45-1.01-.57-1.43-.98-.2-.2-.37-.42-.58-.62-.17-.16-.36-.29-.54-.43-.02.02-.04.03-.06.05.49.59.97,1.19,1.49,1.76.74.82,1.71,1.36,2.66,1.89.34.19.74.26,1.11.39.08.03.16.06.23.09.22.11.22.14,0,.34.13.05.25.08.41.14-.11.04-.19.06-.26.11-.07.06-.13.14-.19.21.09.04.18.09.28.14-.08.23-.34.28-.6.36-.1.03-.19.13-.28.19.11.06.22.13.33.17.1.04.21.04.32.05,0,.03,0,.06,0,.09-.08.03-.16.11-.23.1-.29-.05-.57.18-.87.05-.04-.02-.12.08-.19.08-.31.04-.6.03-.9-.13-.32-.17-.68-.24-1.03-.36-.46-.15-.91-.31-1.37-.46-.45-.14-.91-.25-1.35-.4-.43-.14-.87-.27-1.25-.5-.47-.28-.95-.44-1.58-.45,2.02,1.17,4.14,1.9,6.26,2.68-.13.02-.26.04-.4.05-.98.11-1.92-.02-2.87-.31-.94-.29-1.84-.65-2.7-1.13-.64-.36-1.2-.8-1.73-1.31.04.1.09.19.17.37-.16-.08-.24-.13-.32-.17.14.25.28.46.57.55.19.06.33.27.5.4.24.18.48.38.74.53.65.37,1.3.76,1.98,1.06.49.21,1.03.3,1.56.43.08.02.18-.05.28-.07.03,0,.07,0,.1,0,.3.09.59.19.9.28-.3.07-.6.15-.91.2-.66.1-1.22-.31-1.85-.36-.53-.04-1.05-.13-1.58-.21-.35-.06-.69-.15-1.05-.07-.03,0-.06,0-.08-.01-.49-.3-1.05-.29-1.59-.38-.37-.06-.71-.29-1.07-.44-.21-.09-.44-.14-.63-.27-.23-.16-.42-.39-.61-.59-.03-.03-.01-.11,0-.16.11-.3.23-.59.32-.9.03-.09,0-.2,0-.36.15-.11.12-.25.04-.48-.1-.28-.07-.6-.09-.9-.02-.29-.03-.59-.03-.88,0-.15.02-.31.04-.54-.34-.55,0-1.27-.12-1.91.04-.14.1-.26.12-.39.08-.47.45-.66.81-.87.5-.29,1.06-.3,1.6-.27.61.04,1.21.17,1.82.25.14.02.27.03.39.05.1-.21.2-.41.29-.62.01-.03,0-.07,0-.11-.18-.51-.35-1.02-.55-1.52-.1-.25-.03-.56.2-.68.15-.08.32-.12.48-.18.14-.05.28-.1.4-.17.61-.36,1.28-.5,1.97-.59.29-.04.56-.23.84-.35.34-.14.68-.27,1.03-.4.18-.07.37-.15.56-.19.19-.04.39-.02.59-.04.08,0,.16-.04.24-.06.56-.17.9-.59,1.18-1.07.17-.29.37-.57.57-.85.22-.3.38-.31.74-.12.37.2.77.34,1.14.53.37.19.74.38,1.09.61.33.22.65.12.95,0,.5-.18.97-.44,1.46-.64.29-.12.59-.2.88-.3.11-.04.21-.09.32-.14.02,0,.03-.03.04-.03.48.12.83-.22,1.24-.35.18-.06.36-.14.51-.26.48-.38,1.05-.26,1.56-.22.42.03.71.38,1,.68.1.03.2.05.3.08.43.14.87.34,1.2.66.17.16.32.38.36.61,0,0,0,0,0,0,.16.15.32.3.47.46.31.34.64.69.85,1.09.18.35.2.78.31,1.17.04.14.15.25.21.38.03.06.04.16.02.22-.08.23-.18.46-.29.68-.07.14-.18.26-.27.4-.07.1-.23.17-.12.35.03.04-.05.15-.08.22-.06.12-.13.24-.21.31-.15.09-.34.15-.45.28-.47.57-.9,1.19-1.39,1.75-.53.6-1.12,1.15-1.69,1.72-.48.48-.97.94-1.47,1.41-.23.22-.48.44-.72.65-.09.07-.19.12-.3.19-.14-.47.07-.74.37-1.02.43-.39.79-.85,1.19-1.28-.02-.02-.04-.04-.06-.07-.13.1-.3.18-.4.32-.27.36-.61.58-1.02.71-.06.02-.14,0-.24,0,.39-.55.76-1.05,1.12-1.57.13-.19.21-.41.34-.59.23-.31.32-.69.51-1.01.06-.11.2-.17.31-.26.05-.04.1-.08.12-.17-.06.01-.12.03-.21.05.09-.31.26-.18.43-.09.13-.3.2-.61.25-.94-.54.11-.62.56-.83.88-.59.92-1.13,1.87-1.73,2.78-.27.41-.63.77-.97,1.13-.1.11-.27.16-.38.26-.23.21-.42.48-.68.65-.29.19-.63.3-.94.46-.3.15-.61.29-.89.46-.15.1-.23.26-.1.46.02.04.03.12,0,.15-.19.19-.39.37-.61.57ZM16.8,29.92c.06-.11.11-.21.17-.33.12.06.22.12.32.17-.1.29-.26.3-.49.15ZM30.84,87.15c-.02.05-.07.12-.13.13-.61.22-1.23.43-1.85.64-.05.02-.12.04-.14.09-.11.25-.35.27-.56.35-.27.11-.55.2-.83.26-.17.04-.36,0-.53.02-.14.02-.27.07-.48.12-.14,0-.36-.05-.58-.03-.26.02-.51.09-.76.13-.22.04-.42.1-.42.39-.18-.06-.33-.1-.51-.16,0,.08,0,.15,0,.19-.09-.02-.19-.08-.26-.06-.71.21-1.35.07-1.98-.28-.21-.12-.48-.14-.7-.26-.48-.27-.96-.55-1.4-.87-.39-.28-.51-.76-.67-1.19-.13-.35-.29-.68-.41-1.04-.08-.26-.13-.54-.16-.81-.03-.31-.04-.62-.03-.93,0-.13.08-.27.13-.4.02-.06.06-.11.06-.17.05-.4.07-.81.16-1.2.22-1.02.77-1.85,1.56-2.52.52-.44,1.08-.85,1.63-1.26.35-.26.72-.51,1.09-.76.04-.03.1-.06.15-.07.6-.1.96-.57,1.42-.89.35-.24.74-.3,1.15-.28.05,0,.14.04.16.02.18-.29.4-.17.63-.09.04.01.1.02.14,0,.47-.23.92-.14,1.37.06.15.07.29.04.46,0,.28-.05.6,0,.89.06.53.1,1.05.22,1.57.35.21.05.41.15.63.22.23.07.47.11.7.19.29.1.58.22.87.33.11.04.22.14.32.14.32,0,.54.18.8.32.23.13.52.35.71.3.42-.13.69.14,1.01.23.36.1.69.29,1.03.44.49.22.98.43,1.45.68.24.13.45.31.65.5.3.29.58.6.89.93-.7.06-1.32.13-1.94.17-.56.03-1.04.31-1.55.5-.16.06-.35.04-.51.11-.98.42-1.82,1.05-2.56,1.81-.66.69-1.29,1.4-1.8,2.22-.28.45-.7.82-.86,1.35ZM39.65,82.2c-.31.12-.55.36-.87.47-.11.04-.16.24-.27.33-.24.18-.51.34-.78.52.1.29-.23.26-.36.36-.31.24-.65.45-.99.65-.16.1-.35.16-.51.26-.71.43-1.41.86-2.12,1.29-.52.31-1.03.63-1.56.92-.16.09-.37.09-.56.14l-.05-.08c.19-.28.37-.56.56-.84.41-.57.75-1.22,1.24-1.7.77-.76,1.63-1.44,2.64-1.88.27-.12.55-.2.84-.19.16-.04.35-.03.47-.11.31-.21.66-.05.97-.16.13-.05.23-.17.37-.22.4-.16.8-.3,1.2-.44.17-.06.35-.11.57-.17-.15.46-.43.71-.8.86ZM41.11,80.7c-.03.11-.15.28-.24.29-.23.01-.46-.05-.65-.07-.01-.16-.03-.31-.04-.47-.01-.19.1-.29.26-.28.2.02.42.05.6.15.07.04.09.26.06.38ZM39.39,107.62c-.15-.37-.18-1.52,0-1.89v1.89ZM39.43,105.05s-.08,0-.12-.01c.06-1.63.24-3.25.54-4.85-.14,1.62-.28,3.24-.42,4.86ZM40.66,100.71s-.05,0-.08,0v-1.04h.2c-.04.35-.08.7-.12,1.05ZM40.78,99.15v.51c-.13-.09-.29-.18-.18-.38.03-.05.11-.08.18-.13ZM30.34,35.18c.02-.08.07-.15.12-.21.27-.28.27-.45-.09-.73.34-.12.63-.26.94-.33.1-.02.25.12.36.2.1.08.15.12.31.07.18-.05.42.09.62.17.12.04.23.1.34.16.01-.02.02-.04.03-.06-.02-.03-.05-.06-.09-.12.13.01.23.03.34.02.07,0,.15-.06.22-.05.15.01.32.02.45.09.2.1.35.28.55.36.74.27,1.09.83,1.27,1.54.19.75.39,1.51.55,2.27.09.4.09.82.15,1.22.05.34.13.68.19,1.02.02.14,0,.29.03.44.02.13.06.25.09.38-.03.06-.1.14-.11.22-.07.63-.05,1.28-.22,1.88-.15.54-.49,1.02-.78,1.51-.07.11-.24.16-.37.24-.03-.02-.07-.04-.1-.05.04-.36.07-.72.13-1.07.12-.77.29-1.53.13-2.33-.07-.35-.02-.71-.05-1.07-.05-.56-.27-1.06-.59-1.53-.22-.32-.49-.63-.49-1.07,0-.09-.13-.18-.21-.25-.09-.08-.2-.14-.33-.23.11-.08.19-.12.32-.22-.23-.17-.42-.35-.64-.46-.22-.1-.47-.13-.72-.15-.11-.07-.23-.14-.34-.22-.13-.09-.26-.21-.4-.26-.16-.06-.33-.09-.5-.11-.15-.01-.28-.24-.4-.09-.32-.08-.61-.15-.9-.22.05-.28.1-.62.17-.95ZM24.59,49.66c-.43-.19-.88-.3-1.31-.49-.5-.22-.99-.48-1.48-.72-.24-.11-.49-.2-.71-.34-.13-.08-.21-.24-.34-.34-.4-.34-.86-.61-1.19-1-.53-.62-.99-1.32-1.46-1.98-.05-.07-.08-.2-.06-.28.08-.33.15-.67.31-.97.12-.24.32-.48.55-.64.41-.29.85-.53,1.29-.76.2-.1.44-.12.65-.19.06-.02.14-.11.15-.17.04-.26.05-.53.08-.85.64,0,1.28-.02,1.93-.02.45,0,.72-.25.92-.62.02-.04.04-.1.07-.11.25-.09.28-.23.13-.44-.1-.13-.17-.28-.27-.44.26-.15.04-.48.16-.75.17.29.33.59.52.88.28.44.52.91.87,1.29.21.23.44.44.58.71.06.12.02.29.04.43,0,.08.03.16.03.24,0,.09,0,.18-.01.27,0,.02-.03.04-.03.04.15.18,0,.42.08.57.19.34.34.73.76.9.12.05.21.17.39.31-.1-.16-.17-.29-.25-.41-.19-.26-.4-.51-.58-.78-.03-.04,0-.12,0-.18.02-.49.09-.99-.28-1.41-.18-.21-.36-.43-.53-.66-.04-.05-.04-.13-.07-.19l.06-.04c.22.27.44.55.65.82-.23-.68-.61-1.24-1.15-1.74-.37-.35-.63-.82-.93-1.25-.02-.03,0-.13.03-.17.11-.14.25-.26.37-.4.03-.04.07-.09.07-.14.02-.2-.03-.41.04-.58.08-.21.23-.42.41-.54.33-.22.69-.39,1.06-.54.11-.04.29.03.41.09.72.38,1.43.79,2.16,1.16.42.22,1,0,1.27-.47.11-.18.19-.19.41-.15.96.15,1.7.78,2.56,1.14.4.17.68.53.85.97.08.21.21.44.38.58.38.29.56.68.66,1.11.1.41.12.84.15,1.26.03.56.07,1.13.04,1.68-.03.56-.1,1.13-.24,1.68-.09.35-.12.68-.11,1.03,0,.08-.1.16-.12.24-.03.11-.02.22-.04.36-.08-.04-.16-.11-.26-.15-.15-.07-.16-.17-.12-.32.03-.1.03-.23-.01-.32-.07-.16-.22-.29-.02-.48.04-.03-.09-.23-.13-.36-.03-.09-.05-.18-.08-.27.02,0,.04-.01.06-.02-.09-.03-.18-.07-.3-.12.15-.13.27-.23.35-.29-.15-.04-.29-.09-.43-.13l.06-.04c-.11-.36-.15-.77-.36-1.06-.19-.25-.2-.6-.46-.8-.11-.08-.21-.18-.35-.3.05-.35-.4-.26-.56-.49-.05.08-.08.13-.12.19-.16-.08-.32-.34-.48-.01.19.16.42.29.55.49.35.53.69,1.08.96,1.65.14.31.09.71.17,1.06.08.36.19.71.34,1.05.14.33.13.42-.23.56-.03-.07-.07-.14-.09-.21-.08-.27-.08-.28-.29-.07-.29-.16-.32-.48-.33-.73-.02-.42-.18-.77-.43-1.06-.33-.38-.44-.84-.57-1.29-.12-.39-.2-.8-.35-1.21-.02.08-.07.16-.06.23.15.94.31,1.86.8,2.71.19.33.28.72.38,1.09.09.34.13.69.18,1.04,0,.05,0,.11-.01.17-.07-.02-.13-.04-.2-.05-.3-.06-.56-.32-.9-.2-.02,0-.06,0-.08,0-.3-.19-.71-.11-.97-.44-.09-.11-.34-.1-.52-.15-.03-.04-.07-.14-.14-.17-.51-.21-.97-.48-1.33-.92-.02-.03-.06-.05-.09-.06-.01,0-.03,0-.07.01.31.51.73.88,1.29,1.11-.04.11-.08.2-.12.29.01.01.03.03.04.04.07-.05.14-.1.25-.18.14.26.25.54.43.76.22.25.5.44.76.66.08.07.16.12.23.19.02.02,0,.09,0,.1.12.15.24.3.35.45-.02.03-.04.05-.06.08-.49-.13-1.03-.08-1.47-.43-.1-.08-.26-.08-.39-.1-.39-.06-.78-.08-1.16-.19-.46-.14-.88-.36-1.33-.52-.53-.19-1.07-.36-1.61-.53.03-.02.08-.04.17-.09-.18-.07-.32-.12-.52-.2.06.1.09.16.12.22-.02.02-.03.03-.05.05l-.36-.34s.04-.05.06-.07h-.3c.01-.07.02-.12.03-.19-.24-.09-.48-.17-.74-.26.02-.01.08-.05.13-.08-.52-.33-1.05-.66-1.55-.98h.21c-.35-.33-.7-.65-1.08-1-.02.13-.09.29-.04.4.06.13.22.21.36.33,0,0-.04.05-.07.09.08.1.15.22.25.28.17.1.36.21.56.24.23.03.37.11.52.29.34.4.69.8,1.1,1.11.32.24.75.34,1.13.48.16.06.33.09.51.13-.02.03-.05.07-.06.08,1.85.61,3.7,1.21,5.63,1.85-.17.01-.29.04-.4.03-.52-.01-1.03-.09-1.52-.26-.35-.12-.7-.23-1.05-.32-.23-.06-.23-.05-.46.2.13.07.24.16.37.2.3.08.61.13.91.19.29.06.59.11.9.17-.02.09-.03.17-.05.27.11.04.22.08.37.13-.13.1-.23.2-.35.25-.58.29-1.2.43-1.84.42-1.24,0-2.41-.34-3.54-.84ZM43.68,78.86c-.33-.07-.42-.02-.37.22-.21.03-.55-.14-.59-.34-.09-.4-.17-.79-.21-1.2-.07-.75-.17-1.5-.15-2.24.01-.75-.18-1.44-.37-2.14-.12-.46-.24-.91-.37-1.37-.19-.69-.39-1.38-.61-2.06-.05-.17-.18-.31-.31-.51.69,3.18,1.49,6.3,1.69,9.51-.01-.01-.06-.03-.08-.07-.37-.84-.75-1.68-1.1-2.53-.14-.34-.35-.6-.59-.87-.62-.69-1.18-1.43-1.68-2.22-.31-.49-.66-.93-.91-1.47-.24-.52-.63-.98-.93-1.48-.23-.39-.4-.83-.63-1.22-.24-.41-.54-.8-.79-1.21-.13-.21-.19-.46-.3-.68-.27-.5-.55-1-.84-1.49-.38-.62-.78-1.23-1.17-1.84-.08-.13-.34-.2-.19-.35-.35-.49-.69-.93-.99-1.4-.28-.44-.48-.93-.78-1.35-.51-.71-1.07-1.38-1.63-2.05-.42-.49-.8-1.01-1.13-1.56-.07-.13-.16-.2-.33-.17-.28.05-.27-.18-.31-.37-.04-.17-.06-.37-.16-.5-.62-.81-1.12-1.72-1.88-2.43-.26-.24-.49-.52-.71-.8-.07-.09-.14-.24-.11-.34.03-.12.11-.25.32-.23.15.01.3-.09.45-.18-.31-.14-.66.1-1-.14.32-.18.71-.27.9-.1.19.17.47.12.66.34-.18.02-.29.03-.39.05,0,.04,0,.07,0,.11.12,0,.29.05.35-.01.08-.09.09-.25.12-.38-.03-.03-.05-.06-.08-.09.31-.08.61-.18.92-.23.36-.06.73-.05,1.09-.1.2-.03.39-.11.59-.16.26-.06.51-.12.77-.18.06-.01.12,0,.18,0,.13-.03.25-.07.37-.1.12-.03.27-.12.35-.08.27.15.49.11.69-.16.11.25.28.2.46.13.29-.11.6-.06.9-.25.24-.15.62-.01.88-.06.43-.09.58.2.81.39.13.1.21.28.28.44.21.45.4.91.62,1.36.04.09.05.3.26.2,0,0,.05.04.05.06-.03.48.4.78.46,1.23.08.68.48,1.23.79,1.81.09.17.1.4.21.59.17.3.32.61.46.92.03.06,0,.15,0,.18.11.2.22.38.31.57.37.8.75,1.59,1.07,2.41.23.58.35,1.19.54,1.78.11.37.27.72.37,1.09.17.64.34,1.28.45,1.93.11.61.22,1.21.38,1.81.16.61.37,1.21.56,1.81.34,1.09.69,2.18,1.03,3.27.16.51.35,1.02.5,1.54.07.24.09.5.14.76.01.07.03.14.05.21.12.39.27.78.34,1.18.11.6.29,1.18.38,1.78,0,.02.03.04.06.09.04-.07.06-.13.12-.23.17.46,0,.82-.22,1.16ZM46.69,86.67c-.01.14-.02.29-.05.43,0,.04-.06.09-.1.11-.02,0-.08-.04-.09-.07-.05-.15-.09-.3-.13-.45-.04-.16.07-.23.2-.22.08,0,.15.1.22.15-.02.02-.04.03-.06.05ZM53.12,89.49s-.02.03-.03.05c-.06.46-.35.75-.71,1.01-.17.13-.25.38-.37.57-.1.16-.21.33-.32.48-.21.31-.55.27-.91.07-.26-.15-.45-.34-.62-.56-.02,0-.05-.01-.07-.02-.51-.26-.86-.71-1.2-1.16-.07-.1-.14-.19-.21-.29,0,0-.01-.02-.02-.03.16.33.32.67.51.98.12.21.31.38.43.62-.11-.1-.25-.18-.34-.3-.43-.59-.84-1.19-1.27-1.78-.06-.08-.13-.16-.2-.22-.18-.17-.35-.35-.36-.63,0-.08-.08-.21-.15-.23-.29-.06-.42-.2-.34-.51.01-.05,0-.11-.02-.19.12,0,.22,0,.35-.02-.02-.06-.04-.1-.06-.15-.08-.16-.16-.31-.23-.46-.05-.1-.06-.23-.12-.32-.18-.29-.55-.45-.54-.87,0-.13-.08-.26-.11-.35.19-.14.38-.26.56-.39,0-.04-.02-.09-.03-.13-.23-.05-.46-.09-.68-.16-.08-.02-.15-.11-.2-.18-.11-.2-.18-.43-.39-.48,0-.12,0-.23-.03-.32-.13-.3-.28-.59-.4-.9-.19-.49-.52-.94-.46-1.52.19-.1.36-.09.56.07.5.39.84.89,1.16,1.43.22.36.54.67.79,1.01.4.56.78,1.13,1.16,1.7.36.55.71,1.1,1.06,1.66.03.04.06.09.07.13.05.2.16.33.44.35-.08-.61-.45-1.11-.55-1.69.3.19.6.38.95.61,0-.54-.24-.87-.5-1.18-.31-.36-.63-.7-.93-1.06-.29-.35-.55-.73-.83-1.1-.1-.13-.2-.25-.3-.38-.19-.24-.4-.47-.56-.73-.09-.15-.08-.36-.29-.44-.02,0,.01-.14.02-.21.27-.01.55-.02.82-.04,0,.03,0,.06.01.08-.11.02-.22.05-.3.07.37.2.76.4,1.18.62-.04.03-.08.06-.07.06.32.37.66.73.96,1.11.16.2.23.46.39.65.34.41.71.78,1.06,1.19.49.58.98,1.15,1.43,1.76.14.19.12.51.26.71.1.13.37.23.53.19.27-.06.29.06.33.25.11.56.05,1.08-.34,1.53ZM46.54,81.21l.02-.1c.21-.04.42-.07.63-.11l.03.1c-.12.07-.24.13-.36.2,0,0,0,0,0,0-.1-.03-.21-.06-.31-.09ZM51.17,80.76c.07.07.08.21.16.26.38.24.5.67.75,1.01.27.35.5.73.74,1.1.35.55.52,1.16.58,1.8.02.26.1.5,0,.76-.07.19-.13.39-.21.63-.43-.44-.83-.86-1.24-1.28-.32-.32-.64-.63-.96-.96-.11-.11-.2-.24-.31-.35-.26-.28-.53-.56-.8-.84-.03-.03-.06-.06-.12-.12.07-.03.12-.05.18-.07-.15-.24-.29-.48-.47-.77-.28-.04-.92-.7-1.01-1.07-.39-.19-.72-.36-1.09-.54.37-.3.7-.28,1.05-.22.22.04.47.15.69-.03.71.14,1.46.17,2.04.7ZM63.81,62.16c.6.12,1.12.4,1.66.63.46.2.97.31,1.38.61.52.38,1,.79,1.22,1.43.03.08.07.16.13.21.4.32.54.78.69,1.24.07.23.25.42.34.65.06.15.06.32.09.49,0,.03,0,.06.01.08.35.41.18.89.15,1.33-.03.45-.16.9-.27,1.34-.04.16-.15.31-.27.43-.27.25-.44.53-.54.88-.06.23-.21.43-.32.65-.01.02-.05.05-.05.06.15.25-.04.37-.19.5-.15.13-.29.27-.43.4-.18.17-.34.35-.52.52-.07.06-.15.1-.19.13-.03.07-.03.15-.07.17-.25.17-.51.32-.75.5-.36.28-.69.59-1.04.87-.35.27-.72.52-1.09.76-.2.13-.37.29-.66.26-.14-.01-.29.18-.44.27-.38.23-.73.5-1.13.67-.66.28-1.36.51-2.04.75-.06.02-.12.05-.19.05-.49.03-.97.05-1.46.08-.12,0-.24.04-.35.05-.54.03-1.07,0-1.6-.1-.15-.03-.31,0-.46.02-.17.03-.35.12-.36-.19-.31.21-.59.19-.91.14-.43-.06-.89-.12-1.29-.02-.33.08-.69.04-1.02.22-.25.14-.61.11-.91.14-.31.03-.6.08-.9.22-.19.09-.45.07-.68.07-.35-.01-.68.07-.97.26-.3.2-.61.15-.93.04-.02.04-.03.12-.06.13-.18.05-.38.05-.56.12-.26.1-.32-.12-.42-.25-.2-.25-.49-.32-.77-.4-.02,0-.05.04-.08.05-.13.05-.24.17-.4-.04-.09-.11-.34-.1-.52-.14-.05-.01-.11-.02-.1-.02.02-.48.03-.93.06-1.39.01-.19.05-.36.27-.48.2-.11.31-.39.45-.6.24-.36.46-.74.69-1.1.22-.34.45-.67.67-1,.34-.5.69-1,1.02-1.51.11-.17.16-.37.27-.53.28-.42.57-.84.85-1.26.09-.14.16-.31.24-.46.02-.04.03-.09.06-.12.34-.35.68-.7,1.02-1.05.05-.06.09-.14.11-.22.04-.26.15-.41.42-.54.33-.15.6-.42.88-.66.38-.32.73-.67,1.09-1.01.39-.37.77-.76,1.17-1.14.25-.23.48-.53.78-.66.83-.36,1.47-1.05,2.34-1.34.31-.1.61-.32.87-.53.27-.23.57-.28.89-.32.18-.02.38-.06.51-.17.29-.25.63-.34,1-.36.54-.03,1.08-.03,1.62-.04.22,0,.44,0,.72,0-.81.88-1.6,1.73-2.38,2.59-.06.06-.11.13-.13.21-.15.49-.53.77-.9,1.09-.25.22-.45.51-.66.77-.54.65-1.09,1.31-1.62,1.97-.34.41-.66.83-.99,1.25-.36.46-.7.93-1.07,1.37-.19.23-.42.43-.65.63-.44.39-.88.77-1.32,1.15.03.34-.3.45-.45.67-.17.24-.4.45-.61.66-.54.54-1.08,1.08-1.63,1.62-.11.11-.23.2-.35.31-.36.32-.71.68-1.1.96-.55.41-1.12.8-1.79,1.02-.24.08-.45.25-.74.42.29.17.52.32.76.46.02,0,.04-.01.06-.02l-.12-.32c-.03-.14.04-.17.22-.2.35-.07.67-.27,1.01-.42.11-.05.22-.09.33-.13.13-.05.27-.08.38-.16.38-.29.72-.64,1.12-.88.8-.47,1.24-1.27,1.89-1.88.66-.62,1.3-1.27,1.93-1.92.25-.26.46-.57.71-.84.25-.27.51-.53.77-.79.35-.35.72-.67,1.05-1.04.46-.52.9-1.06,1.34-1.6.17-.22.29-.48.47-.69.41-.52.85-1.02,1.27-1.54.56-.69,1.11-1.4,1.68-2.09.34-.4.73-.77,1.1-1.15.34-.34.7-.65,1.01-1.01.29-.33.26-.32.71-.23ZM69.05,53.77c-.19-.06-.38-.13-.64-.21.28-.01.48-.02.68-.03,0,.05-.02.14-.04.24ZM68.26,50.96s0-.07,0-.1c.17,0,.34,0,.51,0,.17,0,.34.02.54.03-.37.37-.71.09-1.05.07ZM69.56,51.08c.19-.08.37-.2.6-.04-.2.23-.4.14-.6.04ZM71.33,51.82c-.26-.24-.59-.31-.92-.41-.08-.02-.13-.14-.2-.22.12-.08.24-.2.37-.21.12,0,.25.12.38.17.14.06.29.1.46.16-.08.09-.14.15-.22.23.08.07.17.15.28.25-.07.01-.14.04-.16.02ZM72.94,52.22c-.25-.07-.51-.14-.76-.21,0-.03,0-.06.01-.09.26.06.52.12.78.18l-.03.13Z"/>
      <path class="cls-1" d="M72.78,39.68c.44-.26.82-.51,1.22-.72.27-.14.56-.22.88-.16.42.07.86.09,1.28.13,0,.02,0,.05.01.07-.14.04-.28.08-.34.09.21.17.46.36.7.56.03.03.04.12.02.17-.11.38-.03.57.28.7.05.11.06.24.12.27.07.03.19-.02.27-.07.12-.08.24-.17.35-.27.49-.45,1.04-.32,1.49,0,.1.07.16.21.26.3.13.11.28.22.47.09.09-.06.18-.12.29-.16.43-.18.52-.12.76.29.27.47.44.96.61,1.47.11.34.39.65.41.99.02.37.15.78-.09,1.16-.26.41-.41.91-.73,1.26-.33.36-.82.58-1.23.86-.01-.02-.03-.04-.04-.06.32-.33.65-.66.95-1,.27-.31.53-.63.75-.97.24-.37.23-.77.06-1.18-.09-.22-.12-.46-.21-.68-.14-.34-.31-.67-.46-1-.05-.11-.05-.25-.1-.37-.08-.2-.18-.4-.28-.63-.03,0-.09,0-.12.01-.09.21-.16.41-.25.59-.11.22-.25.41-.36.63-.14.29-.15.62-.35.89-.2.28-.3.63-.48.93-.22.36-.49.69-.72,1.05-.24.39-.44.81-.68,1.2-.3.48-.62.95-.94,1.41-.23.34-.68.54-.99.44,1.49-2.06,2.81-4.23,3.81-6.6-.02-.02-.07-.07-.14-.14.07-.05.14-.09.2-.13,0-.02,0-.05-.01-.05-.56-.07-1.09-.15-1.67.07-.94.35-1.66,1-2.44,1.58-.35.26-.63.24-1-.06.14-.22.3-.36.58-.41.17-.02.33-.16.47-.29.18-.16.31-.37.49-.52.41-.36.49-.8.26-1.27-.17-.34-.41-.65-.65-.96-.07-.08-.26-.12-.37-.1-.46.12-.89.32-1.25.65-.25.23-.52.43-.77.65-.07.06-.12.15-.18.23-.18-.1-.49-.04-.62.13-.23.31-.45.62-.69.92-.04.05-.16.06-.25.07-.14.01-.27,0-.41,0,0-.03-.02-.05-.02-.08.07-.04.15-.07.22-.11.1-.07.18-.11.15-.3-.02-.17.12-.39.25-.54.21-.24.48-.42.71-.65.13-.13.25-.26.16-.5-.06-.15.01-.35.06-.52.01-.05.13-.07.2-.1.03.07.08.13.09.2.01.14,0,.29,0,.52Z"/>
      <path class="cls-1" d="M83.9,48.63c-.2-.09-.4-.18-.61-.28.25-.17.49-.12.7.11.06.06.16.13.24.13.22.01.23.09.14.26-.31.62-.83,1.02-1.39,1.39-.97.66-2,1.22-3.04,1.76-.26.14-.55.22-.83.32-.02-.03-.04-.06-.06-.09.05-.08.09-.19.16-.24.38-.27.78-.52,1.17-.78.11-.07.2-.17.31-.23.89-.56,1.78-1.11,2.67-1.66.27-.17.5-.36.53-.69Z"/>
      <path class="cls-1" d="M74.78,52.94v-.41c.84-.18,1.69.13,2.57.17-.59.17-1.15.45-1.73.48-.58.03-1.06.5-1.66.38,0-.03-.02-.05-.03-.08.04-.03.09-.07.15-.12-.12-.03-.22-.05-.4-.1.39-.16.63-.47,1.08-.32Z"/>
      <path class="cls-1" d="M28.58,96.4s.03-.06.04-.09c0-.01,0-.03,0-.04,0-.06,0-.11,0-.17-.03-.06-.06-.12-.1-.17-.25-.1-.15.12-.2.22l.05.47s-.04.01-.06.02c-.12-.13-.23-.26-.35-.39-.03.02-.05.04-.08.05.46.36.31,1.05.83,1.39,0-.38-.05-.74-.11-1.1,0-.07-.05-.15-.03-.19Z"/>
      <path class="cls-1" d="M36.92,9.35c.24-.7.48-1.4.72-2.09.12.06.15.31.04.56-.09.2-.12.43-.22.63-.15.32-.34.63-.51.94-.01-.01-.03-.02-.04-.03Z"/>
      <path class="cls-1" d="M37.65,7.11c.03-.68.26-1.33.4-1.99.03,0,.06,0,.08.01-.04.34-.08.67-.14,1.01-.06.33-.15.66-.23.99l-.12-.02Z"/>
      <path class="cls-1" d="M19.7,65.56c-.5.1-1.01.22-1.52.16,0-.04-.01-.08-.02-.12.12-.01.24-.03.36-.03.22,0,.44.05.57-.21.02-.04.14-.08.19-.06.15.04.28.12.42.18,0,.03,0,.06,0,.09Z"/>
      <path class="cls-1" d="M50.59,26.45c.08.61.17,1.21.25,1.82-.05,0-.1.01-.15.02-.07-.61-.14-1.22-.21-1.82.04,0,.07,0,.11-.01Z"/>
      <path class="cls-1" d="M36.21,10.66c-.04.25-.08.5-.12.75,0,.04-.06.1-.08.09-.1-.03-.19-.08-.32-.14.12-.08.19-.13.31-.21-.12-.04-.2-.07-.27-.1-.02-.36.29-.33.49-.4Z"/>
      <path class="cls-1" d="M50.37,24.61v1.28s-.04,0-.06,0c-.02-.43-.04-.85-.07-1.28.04,0,.08,0,.12,0Z"/>
      <path class="cls-1" d="M78.49,52.52c-.2.23-.46.23-.76.15l.73-.23s.02.06.03.09Z"/>
      <path class="cls-1" d="M73.8,53.56c-.21.19-.44.09-.67.03,0-.03,0-.05,0-.08.22-.01.44-.03.66-.04,0,.03,0,.06.01.08Z"/>
      <path class="cls-1" d="M37.43,16.5c-.1.11-.2.22-.3.31-.01.01-.11-.03-.12-.07-.02-.05,0-.13.03-.16.09-.07.2-.12.3-.17.03.03.06.05.09.08Z"/>
      <path class="cls-1" d="M20.27,28.53c-.1.29-.38.29-.59.41-.02-.03-.04-.06-.05-.09.22-.1.43-.21.65-.31,0,0,0,0,0,0Z"/>
      <path class="cls-1" d="M39.2,45.19v.59s-.03,0-.05,0v-.59s.03,0,.05,0Z"/>
      <path class="cls-1" d="M17.37,27.84c.05-.54.16-1.06.47-1.53.43-.65.85-1.3,1.24-1.97.18-.3.27-.65.42-1-.04-.02-.11-.06-.12-.07.06-.51.14-.99.16-1.46.03-.63.04-1.27,0-1.9-.03-.36-.18-.72-.3-1.07-.06-.16-.16-.31-.25-.46,0,0-.02-.02-.01-.02.24-.31-.22-.42-.18-.72.37.35.75.64.81,1.19.02.25.16.49.19.74.07.78.11,1.56.16,2.34.04.8-.14,1.55-.36,2.31-.23.79-.6,1.51-1.04,2.2-.28.43-.58.84-.88,1.26-.06.08-.16.14-.24.21-.02-.02-.05-.03-.07-.05Z"/>
      <path class="cls-1" d="M19.73,26.72c.32-.49.65-.94.93-1.43.4-.73.75-1.49,1.15-2.22.24-.44.36-.9.5-1.37.15-.5.4-.96.59-1.45.07-.19.08-.4.1-.6,0-.08-.04-.18-.01-.24.17-.33-.09-.5-.25-.71-.27-.37-.55-.73-.82-1.1-.03-.04-.01-.17.03-.21.09-.08.2-.12.33-.19.11.59.5.96.88,1.34.09.09.14.22.18.34.01.04-.07.11-.12.2.36.2.16.5.08.77-.18.58-.39,1.16-.56,1.74-.05.16-.09.23-.31.12.28.36.06.64-.05.88-.19.42-.51.79-.69,1.21-.12.31-.36.54-.46.86-.08.27-.27.51-.42.76-.23.37-.47.73-.71,1.1-.08.13-.17.27-.37.21Z"/>
      <path class="cls-1" d="M12.29,18.33c-.04-.23-.08-.46-.12-.75.34.22.37.59.12.75,0,0,0,0,0,0Z"/>
      <path class="cls-1" d="M26.41,48.07c.45.18.91.35,1.4.55-.23.16-1-.15-1.4-.55Z"/>
      <path class="cls-1" d="M21.2,44.12c-.27-.28-.5-.53-.72-.77.19-.19.33-.03.44.11.14.17.37.32.29.66Z"/>
    </g>
  </g>
</svg>