<?xml version="1.0" encoding="UTF-8"?>
<svg id="Layer_2" data-name="Layer 2" xmlns="http://www.w3.org/2000/svg" viewBox="0 0 74.72 47.55">
  <defs>
    <style>
      .cls-1 {
        fill: #000;
        stroke-width: 0px;
      }
    </style>
  </defs>
  <g id="illustrations">
    <g>
      <path class="cls-1" d="M74.67,25.82c-.04-.69-.07-1.38-.11-2.08,0-.08-.03-.15-.02-.23.11-.77-.27-1.43-.98-1.73-.1-.04-.21-.14-.26-.24-.14-.26-.39-.47-.65-.52-.33-.06-.66-.13-.88-.49.23-.1.42-.19.62-.28-.16-.14-.3-.25-.5-.42.24-.07.4-.12.57-.17-.04-.43-.08-.86-.12-1.29-.02,0-.04,0-.07,0,.04-.11.08-.21.1-.26-.1-.15-.18-.27-.25-.39.02-.01.05-.03.07-.04.04.02.08.05.1.06.03-.15.09-.28.09-.42,0-.25-.05-.49-.09-.73,0-.04-.02-.08-.02-.12,0-.3.02-.6.01-.89,0-.06-.09-.12-.1-.12.01-.12.03-.2.02-.29-.01-.28-.15-.64-.03-.82.22-.33.15-.64.15-.96,0-.43-.07-.86-.11-1.32-.06.05-.12.1-.18.15-.02-.11,0-.19.05-.26.03-.06.08-.1.13-.15-.06-.05-.12-.1-.17-.14.24-.41.09-.87.03-1.3-.03-.29-.1-.58-.13-.88-.01-.1-.05-.2-.07-.3-.02-.13-.06-.25-.06-.38,0-.16.05-.33.05-.49,0-.28-.05-.56-.07-.84,0-.1,0-.21,0-.31-.05-.5-.16-1.01.05-1.5.02-.04,0-.12-.03-.16-.32-.48-.65-.96-.97-1.44-.12-.18-.29-.35-.34-.55-.06-.21-.01-.46-.01-.67.22-.03.44-.06.67-.08.05-.76-.53-1.55-1.25-1.71-.49-.11-.96-.16-1.46-.03-.61.16-1.23.24-1.85.34-.06,0-.12-.05-.23-.1-.01,0-.09.06-.17.08-.2.05-.41.07-.6.14-.4.15-.77.38-1.24.27-.1-.02-.23.04-.34.1-.19.1-.37.23-.57.33-.14.07-.32.09-.46.16-.75.4-1.5.81-2.25,1.21-.52.28-1.05.55-1.34.98-.21.02-.36,0-.48.06-.15.07-.27.2-.4.31-.34.29-.65.62-1.02.86-.98.62-1.98,1.2-2.97,1.81-.48.3-.93.63-1.38.97-.45.34-.85.78-1.34,1.06-.57.33-1.06.75-1.59,1.13-.54.39-1.09.79-1.55,1.3-.57.64-1.27,1.16-1.9,1.74-.65.6-1.29,1.23-1.94,1.84-.24.23-.52.42-.78.63-.12.1-.23.2-.38.34.13.03.19.05.27.07-.5.22-.82.65-.78.93-.13.05-.29.07-.36.15-.45.48-.88.97-1.31,1.47,0,0-.03-.05-.06-.1-.22-.33-.43-.67-.67-1-.2-.28-.48-.42-.84-.42-.44,0-.87-.02-1.31-.01-.15,0-.31.04-.43.12-.19.13-.36.2-.57.08-.05-.03-.15.02-.21.05-.06.04-.09.13-.16.16-.18.09-.38.13-.55.23-.24.15-.45.02-.68,0-.85-.08-1.53.33-2.18.81-.19.14-.38.29-.58.44-.06-.14-.09-.28-.13-.28-.45-.06-.39-.54-.64-.77-.02-.02.07-.15.11-.22.04-.08.08-.15.14-.26-.19.03-.31.04-.43.06.02.03.04.06.1.15-.11-.04-.18-.05-.19-.08-.16-.28-.33-.55-.46-.84-.16-.37-.25-.78-.66-.98-.08-.04-.13-.14-.18-.22-.32-.61-.78-1.11-1.29-1.57-.29-.26-.48-.59-.84-.8-.24-.14-.36-.46-.57-.66-.78-.74-1.53-1.51-2.36-2.17-1.18-.94-2.41-1.8-3.63-2.67-1.07-.76-2.15-1.51-3.25-2.23-1.15-.76-2.33-1.47-3.5-2.21-.28-.17-.56-.34-.83-.52-.19-.12-.35-.28-.54-.39-.52-.32-1.05-.62-1.57-.93-.38-.22-.75-.47-1.14-.67-.38-.19-.65-.62-1.15-.58-.04,0-.08-.05-.12-.07-.22-.09-.44-.18-.66-.27-.33-.13-.65-.27-.98-.4l-.03.07c.06.03.13.07.19.1,0,0-.01.02-.02.03-.24-.05-.49-.11-.74-.17-.1.19-.33.12-.51.08-.32-.08-.56-.07-.66.3-.44-.34-.58-.21-.73.27-.04.12-.09.24-.09.36.05.68-.53,1.16-.56,1.81-.01.24-.1.48-.08.72.02.27-.08.74-.31.89.29.06.11.17.08.3-.09.43-.09.89-.23,1.3-.33.93-.72,1.84-1.1,2.75-.23.53-.44,1.07-.56,1.64-.06.26-.12.52-.13.79-.03.45.2.93-.15,1.35.12.43-.2.75-.29,1.13-.04.18-.07.36-.1.57-.09.02-.25.02-.37.08-.27.13-.53.28-.77.46-.1.08-.2.24-.2.37,0,.29.13.6-.26.75-.03.01-.05.08-.06.13-.18.69-.39,1.38-.53,2.08-.32,1.63-.24,3.26-.06,4.9.07.64.09,1.29.14,1.94.06.76.14,1.52.2,2.28.01.16.02.37-.07.47-.02.02-.06.04-.1.06.28,1.6.16,3.26-.36,4.79.01.65.02,1.29.04,1.94.02.74.06,1.48.1,2.21.01.22.01.45.08.65.26.72.53,1.43.82,2.14.14.35.36.68.49,1.03.12.33.31.63.38,1,.07.42.33.8.51,1.2.34.74.78,1.4,1.3,2.02.53.64.98,1.35,1.53,1.98.21.23.5.51.9.39,0,.07,0,.13.02.15.17.18.81.31,1.04.21.03-.01.07-.04.09-.07.17-.36.52-.38.83-.4.56-.02,1.03-.26,1.51-.52.46-.25.92-.49,1.39-.73.55-.27,1.11-.52,1.65-.79.56-.29,1.11-.6,1.67-.89.15-.08.34-.11.47-.2.56-.4,1.1-.83,1.66-1.23.62-.44,1.26-.86,1.9-1.29.02-.01.06,0,.08-.02.13-.06.29-.1.4-.18.44-.35.84-.77,1.31-1.08,1.11-.72,1.96-1.74,3.02-2.52.36-.26.66-.6.99-.89.4-.36.79-.73,1.22-1.05.47-.35.88-.75,1.41-1.05.52-.3.94-.79,1.39-1.2.26-.24.49-.51.75-.74.65-.56,1.32-1.1,1.98-1.65.35-.29.68-.6,1.03-.9.37-.32.75-.64,1.18-1.01.14.17.23.3.33.41.31.33.7.5,1.12.6.37.09.74.17,1.11.27.68.18,1.36.26,2.06.13.21-.04.4-.13.61-.17.42-.08.85-.12,1.27-.23.25-.06.53-.07.72-.33.12-.16.35-.32.56-.11.36.35.67.74,1.04,1.08.45.42.59,1.06,1.1,1.44.25.18.4.48.6.73.1-.03.18-.05.26-.07-.22-.85-.56-1.62-1.16-2.27.2-.03.38-.06.52,0,.34.13.68.27,1,.45.59.34,1.16.71,1.73,1.08.87.56,1.73,1.13,2.59,1.71.52.35,1.03.7,1.52,1.09.26.2.45.49.7.7.36.31.77.56,1.1.9.34.34.71.59,1.15.78.42.18.82.41,1.22.63.11.06.2.18.29.27.1.11.18.23.28.33.12.12.27.21.38.34,1.28,1.53,2.85,2.73,4.49,3.84.81.55,1.67,1.05,2.66,1.25.33.07.64.2.98.31-.4.37-1.38.47-1.84.26-.26-.12-.56-.18-.84-.26-.52-.15-1.05-.28-1.57-.45-.37-.13-.71-.32-1.07-.47-.05-.02-.13.01-.2.01-.05,0-.12,0-.16-.02-.45-.24-.9-.5-1.35-.74-.61-.33-1.21-.66-1.83-.96-.42-.21-.69-.63-1.15-.77-.12-.03-.22-.11-.32-.18-.52-.32-1.04-.65-1.56-.97-.23-.14-.52-.2-.71-.37-.19-.17-.4-.31-.62-.43-.09-.05-.17-.13-.24-.2-.24-.23-.46-.48-.72-.69-.31-.26-.67-.47-.98-.73-.23-.2-.41-.46-.63-.67-.42-.42-.85-.82-1.27-1.23-.66-.64-1.31-1.29-1.97-1.93-.06-.06-.16-.08-.24-.11-.02.03-.03.05-.05.08.6.58,1.19,1.15,1.82,1.76-.1-.01-.16-.02-.24-.03.15.1.34.16.4.28.48.88,1.23,1.5,1.91,2.2.21.22.51.37.67.62.27.4.55.75,1,.96.31.15.62.31.88.52.84.69,1.69,1.34,2.66,1.84.26.13.51.29.76.44.51.31,1.01.63,1.53.92.2.11.45.12.67.19.4.13.79.28,1.18.41.3.1.62.18.92.29.74.27,1.48.56,2.21.85.06.02.11.08.15.1-.16.08-.3.16-.54.28.43.07.79.12,1.16.18-.09-.06-.18-.12-.28-.18.17-.07.37-.13.52-.07.52.22,1.07.15,1.6.27.28.06.57.08.75.35.07.09.2.2.3.2.69.03,1.41.45,2.05-.16.01-.01.04-.02.05-.02.24.04.32-.14.42-.31.06-.1.17-.21.26-.22.09,0,.19.12.33.22-.44.26-.82.48-1.22.71.25.2.51.16.76.09.37-.1.73-.21,1.1-.31.07-.1.13-.27.37-.18-.09-.2,0-.41.3-.7-.06.21-.1.39-.15.57.14-.19.28-.39.43-.57.16-.19.32-.39.51-.55.19-.16.4-.76.26-.9-.19-.19-.13-.43-.05-.56.27-.41.5-.84.67-1.31.22-.63.5-1.23.72-1.86.11-.31.24-.58.52-.76,0-.07-.04-.16-.02-.22.18-.48.38-.95.57-1.43.18-.45.39-.88.55-1.33.07-.2.04-.44.1-.65.12-.46.26-.91.41-1.35.08-.23.19-.45.31-.72,0-.04-.02-.16,0-.28.03-.17.1-.34.14-.51.02-.13-.02-.28.03-.39.06-.12.19-.2.3-.3-.07-.01-.16-.02-.25-.04,0-.04.01-.07.02-.09.11-.47.2-.96.35-1.42.05-.17-.02-.47.24-.49.04-.18.06-.35.12-.49.08-.17.18-.32.14-.52,0-.02.05-.08.11-.1.07-.49.12-.98.15-1.48-.01,0-.03.02-.04.02,0-.16.03-.3.06-.45,0-.01,0-.03,0-.04,0-.16.01-.31.02-.47-.02-.14-.04-.28-.05-.42ZM31.43,20c-.23-.13-.42-.23-.62-.34.33-.12.49.02.62.34ZM3.54,13.17c.06-.28.05-.57.31-.76,0,0,.01-.02.01-.03-.25-.34.2-.51.21-.79,0-.06.09-.14.16-.17.48-.19.67-.6.71-1.11.05-.59.24-1.18.37-1.77.01-.06.05-.12.07-.19.22-.87.64-1.65,1.03-2.45.11-.23.2-.48.26-.73.14-.54.44-1,.7-1.49.14-.28.26-.57.4-.84.12-.22.26-.42.38-.63.02-.04-.03-.12-.02-.17.02-.08.07-.15.07-.28l-.56.56s-.04-.04-.06-.06c.17-.31.39-.56.71-.74.19-.11.36-.28.52-.44.06-.07.05-.2.1-.37.27.07.56.14.84.23.64.2,1.26.46,1.83.81.37.23.8.39,1.12.67.27.23.52.49.82.68.48.31.93.67,1.48.88.36.14.66.44,1,.65.73.46,1.46.91,2.2,1.36.32.2.65.38,1.01.59-.11.04-.15.05-.2.07.01.02.02.04.03.05.19.13.41.22.55.38.36.43.82.73,1.31,1-.14-.12-.28-.24-.41-.36.02-.02.03-.04.05-.05.3.25.67.4.88.79.13.23.42.37.64.55.75.59,1.52,1.17,2.25,1.78.41.35.76.77,1.14,1.15.13.13.29.24.44.36.23.2.47.39.66.62.1.12.1.33.17.49.11.22.22.45.37.64.49.58,1.01,1.15,1.52,1.72.7.78,1.35,1.59,1.89,2.49.14.24.32.47.06.74-.04.05-.02.16-.03.29-.9-.52-1.78-1.02-2.6-1.48-.46.12-.81-.09-1.18-.21q.14-.12.71,0c-.12-.06-.24-.13-.37-.19-.18-.09-.37-.16-.54-.27-.29-.18-.62-.22-.94-.31-.46-.12-.9-.36-1.32-.6-1.06-.63-2.09-1.31-3.14-1.95-.49-.3-1.01-.54-1.5-.83-.21-.12-.39-.3-.6-.41-.62-.33-1.26-.64-1.88-.96-.77-.4-1.54-.82-2.32-1.21-.8-.4-1.61-.79-2.41-1.18-.64-.32-1.34-.33-2.02-.4-.45-.05-.9-.06-1.34-.09-.32-.02-.6.03-.71.45-.28-.19-.57-.3-.74-.51-.39-.48-1.12-.08-1.2.34-.07.36-.04.72.11,1.06.1.22.25.31.47.36.88.22,1.77.19,2.66.17.7-.01,1.42-.03,2.08.3.15.08.35.07.53.08.41.02.77.19,1.12.39.48.27.97.53,1.45.8.52.29,1.03.6,1.57.85.63.29,1.29.51,1.94.77.5.2,1.01.39,1.51.63.67.32,1.33.66,1.99,1.01,1.22.66,2.39,1.44,3.66,1.98.98.42,1.78,1.12,2.77,1.5.13.05.27.15.4.14.53-.05.89.28,1.29.54.37.25.76.49,1.13.74.26.17.6.33.52.71-.08.35-.46.32-.73.37-.15.03-.32,0-.47-.04-.71-.18-1.29-.59-1.9-.97-.24-.15-.49-.32-.76-.42-.71-.26-1.43-.5-2.15-.73-1.1-.35-2.21-.69-3.31-1.04-.9-.29-1.79-.61-2.69-.93-.17-.06-.32-.17-.51-.2.08.06.16.13.25.19-.01.02-.02.04-.03.06-.16-.07-.31-.17-.47-.21-.78-.22-1.57-.44-2.36-.64-.42-.11-.84-.18-1.26-.29-.6-.16-1.19-.35-1.79-.49-.33-.08-.67-.11-1.03-.06-.28.04-.58-.08-.88-.12-1.49-.19-2.98-.37-4.47-.57-.28-.04-.54-.17-.8-.28-.89-.39-1.85-.48-2.77-.73-.1-.03-.2-.06-.31-.09.12-.4.26-.77.34-1.15ZM19.8,18.58c-.15-.1-.27-.18-.42-.27.3-.14.43-.06.42.27ZM1.44,27.13c.31.13.36.32.22.69-.09-.28-.16-.48-.22-.69ZM30.6,30.55c-.68.86-1.67,1.36-2.46,2.09-.88.81-1.99,1.25-2.94,1.94-.9.66-1.79,1.35-2.67,2.04-.71.55-1.42,1.1-2.1,1.68-.4.34-.73.76-1.12,1.11-.62.54-1.27,1.05-1.9,1.58-.13.11-.19.3-.32.42-.16.16-.34.3-.51.45-.27.23-.54.47-.81.7-.07.06-.15.12-.23.17-.68.46-1.35.93-2.04,1.37-.45.29-.93.53-1.4.79-.08.04-.15.1-.25.16-.05-.03-.13-.08-.18-.11-.62.33-1.22.66-1.83.96-.27.13-.58.2-.87.27-.07.02-.17-.04-.25-.07l.03-.1c.15-.04.3-.08.44-.12,0-.03-.01-.05-.02-.08-.19.04-.37.08-.56.14-.04.01-.11.1-.1.12.03.05.09.09.17.16-.27.09-.54.18-.8.27-.02-.05-.03-.1-.05-.14.08-.02.17-.06.25-.05.16.02.25-.01.3-.18.05-.17.15-.3.36-.31.07,0,.14-.08.25-.15-.37-.08-.65-.13-.88.18-.05.07-.24.12-.31.08-.32-.18-.6-.04-.92.09.06-.59-.32-1.15.08-1.72-.08,0-.13-.02-.22-.03.32-.67.64-1.32.96-1.99.06.06.11.1.14.13.04-.1.06-.21.12-.28.2-.2.42-.38.64-.57.37-.31.74-.64,1.13-.93.5-.37,1.01-.72,1.52-1.07.53-.36,1.07-.71,1.59-1.07.29-.2.55-.43.83-.65.23-.17.45-.35.69-.51.22-.14.42-.29.6-.49.26-.29.58-.56.93-.74.54-.29,1.11-.49,1.67-.74.53-.23,1.06-.46,1.58-.7.64-.3,1.28-.62,1.92-.92.65-.3,1.31-.57,1.96-.88.56-.27,1.11-.56,1.65-.86.88-.49,1.76-1,2.64-1.5.61-.35,1.22-.71,1.85-1.03.38-.2.79-.32,1.18-.49.42-.19.83-.4,1.25-.6.18-.08.44.04.52.22.02.06.07.1.08.11-.54.64-1.08,1.24-1.59,1.88ZM31.08,26.93c-.42.17-.87.27-1.18.65-.08.1-.28.11-.41.18-.34.19-.68.4-1.04.61.05.04.1.09.12.11-1.06.46-2.14.94-3.24,1.41.07.12.1.17.14.25-.31-.04-.58-.07-.79.21-.07.1-.27.1-.4.17-.56.27-1.12.54-1.67.82-.52.26-1.03.53-1.55.78-.53.26-1.06.5-1.6.73-.1.04-.25-.06-.36-.02-.29.1-.59.19-.83.37-.33.24-.32.26-.77.38-.12.03-.24.12-.34.2-.18.16-.36.2-.6.08.04-.06.08-.11.13-.18-.46.08-.64.72-1.25.57.08.07.13.11.18.15-.37.18-.74.36-1.1.55-1.33.69-2.47,1.64-3.56,2.65-.63.58-1.29,1.14-1.95,1.69-.35.29-.75.54-1.13.79-.21.14-.47.24-.66.41-.12.11-.16.32-.24.48-.05.09-.09.19-.14.28-.32.56-.65,1.11-.97,1.68-.28.51-.38,1.06-.33,1.64.01.13-.03.26-.04.39-.43-.03-.35-.5-.61-.67.08.02.17.04.25.06-.12-.25-.26-.32-.46-.18-.2.14-.33.06-.44-.09-.22-.29-.44-.58-.62-.9-.07-.12-.23-.28-.04-.46.02-.02,0-.11-.02-.13-.34-.28-.35-.72-.51-1.09-.17-.4-.37-.8-.48-1.21-.16-.58-.25-1.17-.37-1.75-.03-.16-.08-.32-.1-.48-.07-.59-.14-1.18-.21-1.78.03,0-.02,0-.06.01-.05-.69-.09-1.39-.14-2.11-.02,0-.07,0-.08,0-.02-.35.16-.66.05-1-.03-.08.05-.19.06-.28.08-.46.19-.93.23-1.39.03-.31-.07-.62-.08-.93,0-.28-.12-.57.05-.84.05-.08.1-.16.15-.24-.04-.03-.09-.06-.14-.09q.13-.58.04-.6c.37-.28.23-.68.27-1.04,0-.07-.03-.15-.03-.23-.01-.22-.06-.41-.36-.32.16-.12.31-.22.41-.3-.08-.14-.14-.2-.16-.28-.01-.07.02-.16.04-.24l.09-.02c-.09-.08-.18-.15-.25-.21,0-.07.04-.19.01-.21-.3-.18-.16-.5-.24-.75-.12-.38-.13-.77-.15-1.16-.03-.49-.22-.95-.14-1.46.04-.28-.1-.59-.13-.89-.02-.21-.02-.43,0-.64.04-.49.09-.98.16-1.47.06-.5.1-1.01.22-1.49.11-.44.1-.92.41-1.3.11-.14.09-.39.21-.51.26-.27.65-.26,1-.34.71-.16,1.42,0,2.12.04.38.02.75.15,1.12.23.46.11.92.22,1.39.33.2.05.39.08.59.11.41.07.82.14,1.23.22.43.07.86.13,1.28.22.32.07.66.13.94.29.83.46,1.74.67,2.65.88.4.09.81.17,1.2.29.21.06.39.19.59.26.12.04.26.02.37.07.19.1.36.23.54.34.06.04.17.08.2.05.2-.16.37-.02.56.01.44.09.88.15,1.31.24.54.11,1.08.21,1.6.35.83.23,1.66.47,2.48.74.41.13.8.34,1.21.47.48.14.97.22,1.46.34.64.16,1.28.3,1.91.51.89.29,1.77.61,2.65.94.12.04.2.18.3.27-.12.1-.22.27-.35.3-.47.1-.94.15-1.42.24-.69.13-1.38.2-2.06.45-.87.33-1.8.51-2.71.75-1.28.35-2.6.19-3.89.3-1.05.09-2.1.21-3.15.3-1.07.08-2.14.13-3.2.2-.63.04-1.26.11-1.89.14-.59.03-1.19.07-1.78.02-.55-.04-1.09-.18-1.63-.3-1-.21-2-.47-3-.65-.73-.14-1.48-.21-2.22-.27-.35-.03-.71.02-1.06.06-.08,0-.19.12-.21.21-.03.16-.04.33,0,.49.04.24.27.3.44.25.85-.25,1.69,0,2.54-.01.58,0,1.08.24,1.61.35.94.21,1.89.43,2.82.67.49.13.97.01,1.45-.02.46-.03.92,0,1.38-.04.75-.05,1.51-.14,2.26-.19.5-.03,1.01,0,1.52-.01.42,0,.84-.04,1.26-.05.5,0,.99.03,1.49.02.41,0,.82-.04,1.22-.05.6-.02,1.21-.01,1.81-.08.52-.05,1.03-.17,1.54-.28.39-.08.77-.23,1.16-.3.35-.07.72-.04,1.07-.11.51-.1,1.01-.25,1.52-.39.11-.03.22-.09.33-.09.94.03,1.79-.32,2.67-.57.36-.1.65-.01.99.1-.05.06-.07.12-.11.13-.96.37-1.93.72-2.9,1.1-.33.13-.65.31-.98.46-.28.13-.56.24-.84.36-.43.19-.85.39-1.28.57-.34.14-.69.25-1.04.38-.22.08-.42.19-.64.24-.34.07-.7.07-1.03.16-.34.09-.66.25-1,.35-.52.14-1.05.27-1.58.38-.84.17-1.69.33-2.54.49-1.07.2-2.15.38-3.21.58-.52.1-1.02.25-1.54.37-.4.09-.81.16-1.21.25-1.66.38-3.32.77-4.98,1.15-.33.07-.66.13-.99.2-.08.02-.15.03-.22.06-.31.09-.44.27-.39.51.04.22.35.44.58.43.2-.01.41-.02.61-.04.07,0,.16,0,.22-.05.52-.34,1.14-.35,1.7-.56.53-.19,1.12-.23,1.69-.34.12-.02.23-.08.35-.12.18-.06.37-.16.55-.15.49.05.91-.16,1.36-.28.68-.17,1.35-.34,2.04-.48.76-.16,1.52-.31,2.28-.42.66-.1,1.32-.14,1.98-.22.29-.04.58-.13.87-.2.61-.14,1.22-.27,1.82-.43.52-.14,1.03-.33,1.56-.47.75-.2,1.51-.35,2.25-.56.8-.23,1.58-.53,2.39-.73.39-.09.71-.27,1.05-.44.97-.5,1.94-1.01,2.91-1.52.09-.05.19-.08.29-.12.33-.12.5,0,.52.36,0,.1.06.2.12.3-.17.51-.7.49-1.11.66ZM40.48,28.2c-.08.07-.15.13-.25.21.1.03.16.05.23.06,0,.03.02.05.02.08-.19.09-.38.17-.56.26-.08.04-.15.14-.23.16-.13.04-.28.06-.42.06-.36,0-.72-.03-1.08-.05-.19-.01-.37-.06-.56-.07-.16-.01-.32-.02-.48,0-.18.02-.36.14-.55-.01-.02-.01-.06-.01-.08,0-.28.08-.56.15-.83.24-.28.09-.46.04-.7-.19-.35-.34-.5-.78-.69-1.19-.07-.15-.04-.35-.06-.53-.04-.37-.12-.73-.26-1.09-.21-.5-.33-1.05-.43-1.59-.07-.38-.04-.78-.03-1.18.01-.4-.01-.81.09-1.18.14-.51.09-.98-.03-1.47-.03-.1.05-.22.08-.34.02-.06.03-.12.05-.17.35-.21.69-.41,1.1-.66h-1.03s0-.04,0-.06c.18,0,.36,0,.54,0,.55.03,1.12-.1,1.64.22.21.13.48.09.65-.18.15-.24.36-.26.62-.19.19.05.41.05.61.03.23-.02.47-.09.7-.11.6-.05.69.24.86.77.03.09.06.19.08.29.02.06.07.13.06.19-.05.25-.06.47.09.73.13.23.15.53.17.81.02.19-.02.39-.07.57-.1.36.04.94.34,1.2-.06.02-.1.04-.13.04.12.27.32.54.35.82.04.27.14.59-.08.86-.03.04.03.16.06.26-.21.16-.28.32.02.48.05.03.09.1.12.16.26.56.31,1.1-.15,1.61.09.05.16.09.24.14ZM40.86,28.64c.04-.2.07-.33.11-.5.18.12.3.2.42.28,0,.03,0,.06,0,.08-.16.04-.31.08-.53.13ZM42.81,19.65c.93-.98,1.77-2.03,2.69-3.01.95-1.02,2.03-1.87,3.13-2.72,1.97-1.53,3.88-3.17,5.94-4.59,1.57-1.09,3.23-2.04,4.92-2.93.27-.21.53-.43.81-.63.31-.24.62-.47.95-.68.65-.4,1.35-.74,1.96-1.19.41-.31.86-.28,1.3-.39.06-.02.12-.05.19-.07.2-.05.39-.1.59-.14.29-.06.64.03.8-.35.01-.04.11-.07.15-.05.25.1.46.04.7-.05,0,0,.02,0,.03,0,.64-.25,1.44-.48,2.05-.06,0,0,0,0,0,0,.18,0,.36,0,.54,0,.01.2-.03.38-.15.44.27.48.32,1.1.68,1.54.18.22.14.47.02.65.05.16.12.32.2.48.09.17.09.39.13.58.08.43.17.85.24,1.28.08.5.17,1,.22,1.5.09.81.19,1.62.21,2.44.04,1.43.06,2.86.04,4.29-.01,1.19-.08,2.38-.14,3.57-.01.24-.09.48-.12.66-.26,0-.48.03-.69,0-.52-.09-1.02-.22-1.54-.33-.06-.01-.19-.18-.19.05,0,0-.07.02-.11.01-1.04-.29-2.1-.3-3.18-.26-.85.03-1.7-.1-2.55-.13-.73-.03-1.46,0-2.19-.03-1.07-.05-2.11.15-3.16.31-.49.08-.97.26-1.47.32-.83.11-11.4,1.51-11.48,1.22.07-.04,12.44-3.71,13.22-4.08.07-.03.15-.05.22-.07.68-.15,1.36-.3,2.04-.46,0,0,.02,0,.03,0,.36-.15.7-.4,1.11-.19-.01.02-.05.07-.09.14.05.02.07.04.09.03.2-.06.4-.13.59-.19.31-.09.61-.2.92-.27.27-.06.56-.05.83-.11.14-.03.27-.12.4-.18l-.04-.1-.83.18s-.03-.06-.05-.09c.09-.06.17-.13.27-.17.2-.1.37-.29.66-.2.09.03.24-.08.36-.14.26-.16.5-.24.85-.22.48.03.99-.08,1.44-.25.31-.12.61-.17.93-.2.6-.07,1.22-.1,1.69-.55.07-.07.14-.16.18-.25.09-.25-.04-.43-.3-.45-1.25-.1-2.46.06-3.66.43-.78.24-1.56.46-2.38.57-1.2.17-2.39.44-3.58.69-.44.09-.87.23-1.29.39-1.09.43-2.17.9-3.27,1.33-.31.12-.66.15-.99.25-.38.11-.75.24-1.12.36-.8.27-1.61.51-2.4.81-.79.3-1.56.67-2.35.99-.15.06-.36.03-.53,0-.29-.05-.53,0-.81.13-.38.17-.62.45-.92.7-.16.13-.44.12-.67.16-.42.08-.84.15-1.27.22-.13.02-.27.02-.41.03.01-.04.02-.07.03-.11-.21.03-.41-.09-.51-.27-.03.01-.06.02-.09.03.01-.06.03-.1.05-.15-.04-.15-.03-.32.12-.47ZM67.96,45.22s-.06-.06-.09-.09l.4-.45s.05.06.07.09c-.12.17-.19.37-.38.46ZM73.45,28.18c-.09.56-.22,1.11-.35,1.66-.15.69-.31,1.37-.47,2.06-.14.64-.25,1.29-.44,1.92-.18.62-.46,1.22-.67,1.83-.13.38-.2.78-.32,1.17-.07.24-.19.47-.27.71-.05.14-.02.31-.07.46-.25.73-.5,1.46-.78,2.18-.16.41-.39.8-.57,1.21-.18.39-.35.79-.5,1.19-.18.48-.45.88-.9,1.14-.09.05-.16.14-.23.21-.25.29-.42.32-.76.18-.07-.03-.15-.03-.22-.02-.18.05-.36.11-.54.17-.37.12-.63-.06-.92-.26-.37-.25-.78-.43-1.19-.6-.72-.3-1.46-.55-2.16-.88-.37-.18-.76-.33-1.08-.64-.17-.16-.45-.2-.66-.33-.91-.54-1.81-1.1-2.56-1.86-.18-.18-.34-.41-.56-.5-.22-.08-.28-.22-.37-.39-.28-.56-.74-.94-1.25-1.28-.3-.2-.62-.38-.91-.59-.68-.5-1.34-1.02-2.01-1.54-.38-.29-.76-.57-1.14-.87-1-.78-1.98-1.59-3.01-2.34-.29-.21-.57-.54-.99-.53-.05,0-.11-.05-.15-.08-.33-.25-.64-.53-.99-.75-.61-.38-1.25-.69-1.86-1.07-.5-.31-.96-.68-1.45-1.02-.03-.02-.06-.05-.1-.06-.59-.14-.7-.73-1-1.12-.12-.15-.18-.38-.34-.48-.23-.15-.12-.31-.12-.53.2.05.39.08.57.13,1.27.42,2.54.87,3.82,1.25.52.15,1.04.33,1.61.35.47.02.94.29,1.41.44.65.21,1.31.41,1.96.64.7.25,1.39.55,2.08.83.04.02.09.07.12.07.6-.12,1.11.23,1.66.35.65.14,1.29.31,1.93.45.09.02.19-.01.34-.02.5.39,1.17.44,1.84.51.57.06,1.14.1,1.71.18.43.06.86.17,1.29.23.63.08,1.27.12,1.91.18.8.08,1.6.15,2.4.25.36.05.73.25,1.08.21.67-.08,1.23.32,1.86.36.17,0,.33,0,.5-.01.11,0,.25-.06.33-.01.29.15.4-.04.51-.23.13-.23.05-.4-.13-.57-.31-.29-.63-.32-1-.13-.07.04-.19.03-.28.02-.41-.06-.81-.12-1.22-.2-.83-.16-1.65-.34-2.48-.48-.5-.08-1.01-.08-1.52-.14-.52-.06-1.05-.14-1.56-.25-1.29-.28-2.57-.61-3.86-.89-1.41-.3-2.83-.53-4.23-.83-1.02-.22-2.03-.49-3.04-.75-.32-.08-.63-.22-.95-.31-.14-.04-.3-.01-.45-.05-.27-.06-.53-.15-.79-.23-.63-.18-1.28-.33-1.9-.53-.42-.14-.82-.35-1.27-.55.14-.12.21-.17.35-.29-.23-.02-.38-.04-.52-.04-.47-.01-.89-.11-1.24-.48-.16-.17-.42-.25-.65-.39-.06-.35-.27-.49-.7-.36-.25.08-.29-.05-.36-.22-.2-.45-.69-.66-.6-1.04.06-.27-.05-.66.03-.98.06-.01.18-.02.32-.02.08-.07.18-.12.31-.12,2.3,0,4.67-.08,6.94-.5,1.04-.19,2.08-.39,3.13-.51,1.09-.12,2.18-.16,3.27-.34,4.31-.7,8.73-.6,13.05-.04.14.02.25.09.33.18,0,0,0-.01-.01-.02.14-.04.26-.11.38-.1.75.06,1.52.08,2.12.63.28.25.63.48.58.95,0,.05.03.13.07.15.25.12.28.37.35.59.12.4.26.8.35,1.2.12.54.25,1.09.28,1.64.03.5-.05,1.01-.13,1.5ZM44.34,26.47s.03-.07.05-.11l.53.26s-.04.07-.05.11c-.17-.09-.35-.18-.52-.27ZM62.34,31.53s.04-.07.06-.1c.17.06.34.12.52.17-.01.03-.02.06-.03.09-.21.04-.4.03-.54-.16ZM74.24,27.26s-.05,0-.08,0c0-.19-.02-.39-.03-.58.03,0,.07,0,.1,0v.59Z"/>
      <path class="cls-1" d="M61.19,45.25c.29,0,.58,0,.86,0,.12,0,.24.06.35.11.35.15.73.18,1.11.28-.03.02-.06.05-.08.05-.68-.09-1.35-.19-2.03-.29-.07-.01-.14-.1-.2-.16,0,0,0,0,0,0Z"/>
      <path class="cls-1" d="M10.1.66c-.22-.09-.44-.18-.66-.27.02-.03.06-.08.07-.07.27.09.53.19.79.36-.07,0-.14-.01-.21-.02Z"/>
      <path class="cls-1" d="M30.86,29.67c.1-.29.35-.46.52-.37-.18.13-.35.25-.52.37Z"/>
    </g>
  </g>
</svg>