<?xml version="1.0" encoding="UTF-8"?>
<svg id="Layer_2" data-name="Layer 2" xmlns="http://www.w3.org/2000/svg" viewBox="0 0 54.03 105.35">
  <defs>
    <style>
      .cls-1 {
        fill: #000;
        stroke-width: 0px;
      }
    </style>
  </defs>
  <g id="illustrations">
    <g>
      <path class="cls-1" d="M7.56,38.3c.12.03.24.05.34.07.05.13.1.26.16.41h-.24c.08.12.14.2.21.31-.01.02-.04.09-.07.15,0,.01.01.02.02.04.04.05.1.1.13.16.05.1.07.21.11.32.02,0,.04,0,.06,0-.05.07-.09.14-.15.23.2.07.17.23.18.4.02.23.14.45.18.69.03.23.09.43.22.62.04.06,0,.19-.01.3.21.17.22.22.07.49.04.06.08.13.12.19.04.06.08.11.13.19-.06.04-.11.07-.18.12.1.09.19.18.29.26-.01.02-.03.03-.04.05-.03-.02-.06-.04-.09-.06.01.11.02.21.03.33.05-.04.1-.07.14-.1.02.16.05.32.07.48,0,0,.01-.01.02-.02.11.31.21.61.32.92-.03.03-.06.05-.1.08-.12-.08-.24-.16-.38-.25.05.08.08.22.15.24.22.06.33.19.36.41,0,.05.04.1.07.17-.31.09-.03.24-.03.36,0,.11.07.23.13.33.08.12.19.22.23.35.05.16.03.33.06.49.02.12.11.23,0,.34,0,0,0,.03,0,.05.18.3.16.64.23.96.07.34.11.68.19,1.02.08.33.19.66.3.98.02.07.1.13.12.2.07.19.13.39.23.57.16.31.35.6.53.89.05.08.14.12.2.19.4.41.8.82,1.21,1.23.09.09.21.17.33.22.45.21.67.59.84,1.03.04.1.09.21.17.27.15.1.23.24.15.38-.08.15-.25.3-.45.23-.26-.1-.54-.21-.75-.38-.71-.59-1.18-1.37-1.69-2.12-.19-.27-.23-.61-.49-.86-.17-.16-.2-.46-.31-.68-.03-.07-.11-.14-.19-.17-.22-.09-.23-.29-.26-.48,0-.07-.03-.15-.07-.19-.28-.25-.27-.61-.34-.93-.03-.13-.16-.28,0-.42,0,0,0-.07-.03-.09-.21-.17-.17-.41-.21-.63-.01-.08-.03-.16-.06-.29-.01,0-.08-.02-.14-.04.2-.37.12-.74.05-1.11-.03.17-.06.35-.11.58-.14-.12-.21-.18-.29-.24,0,0,.01-.02.02-.03.05.02.1.03.14.05v-.52s-.08.07-.14.11c-.23-.17-.03-.39-.13-.55-.06-.13-.14-.25-.18-.39-.12-.42-.22-.83-.32-1.25-.17-.76-.42-1.5-.65-2.25-.14-.48-.22-.98-.33-1.47-.18-.78-.38-1.55-.56-2.32-.18-.76-.32-1.52-.35-2.3-.03-.88-.07-1.75-.09-2.63,0-.14.07-.29.07-.44,0-.2-.03-.39-.02-.59,0-.2.04-.41.06-.59-.02-.19-.05-.37-.06-.55,0-.17.05-.35.01-.51-.15-.52.03-1.04-.01-1.55-.02-.29-.04-.57-.04-.86,0-.37.02-.73.03-1.1,0-.39.01-.77.02-1.16.02-.59.03-1.19.09-1.77.07-.68.18-1.37.27-2.05.04-.31.09-.61.13-.92,0-.05-.03-.14-.08-.17-.32-.19-.66-.35-.97-.55-.26-.16-.5-.11-.81-.08.08.09.13.14.22.23-.12-.03-.18-.04-.24-.06-.19.5-.63.08-.91.24-.04.02-.09.01-.19.02.09.06.14.09.21.14-.04.14-.08.3-.12.45-.01.04-.06.1-.05.11.21.26,0,.53,0,.8.02.34-.03.69-.06,1.03-.02.28-.07.55-.08.83,0,.46.01.92.01,1.38,0,.24-.04.49-.03.73,0,.18.04.36.05.54.03.48.06.95.06,1.43,0,.31-.08.62-.1.94-.02.28,0,.57,0,.86-.02.55-.06,1.1-.07,1.65,0,.36.03.72.04,1.08.01.42.03.84.02,1.26,0,.33-.06.67-.08,1,0,.06.04.12.07.21-.09-.02-.16-.04-.2-.05.07.14.13.29.2.44.08.16.17.32-.09.44.14.09.32.17.1.3.03.09.07.16.08.24.08.49.16.98.24,1.46.15.93.3,1.86.44,2.8.11.74.17,1.48.3,2.22.09.49.29.96.37,1.45.1.59.44,1.05.68,1.57.13.27.21.57.31.86.02.05-.01.11-.02.17,0,.03,0,.08.02.09.33.08.22.44.38.63.1.12.15.3.22.45.06.13.18.24.2.37.09.58.48.99.81,1.42.55.71,1.13,1.39,1.7,2.1.17.21.31.43.49.69.26-.05.16.28.25.42.18.28.31.6.42.92.05.14,0,.32-.04.48,0,.02-.12.02-.18.03.24.67.52,1.32,1.24,1.63.13.05.27.07.4.11.04.01.09.02.12.05.32.25.64.5.96.75.04.03.14.04.18,0,.28-.2.55-.42.83-.63.05-.04.16-.06.22-.03.24.1.48.25.48.53,0,.32-.09.66-.42.82-.26.12-.55.17-.83.27-.13.05-.29.11-.37.21-.22.25-.52.23-.82.32-.29.76-.29,1.53.12,2.31.16.31.18.71.24,1.07.06.32,0,.65.1.98.08.27.02.59.02.88,0,.67-.01,1.34,0,2.01.02.89.05,1.79.09,2.68.01.34-.01.7.09,1.02.11.32.05.63.08.94.06.56.04,1.12.06,1.69.03.74.06,1.49.08,2.23.02.62.03,1.24.05,1.87.03.83.06,1.65.08,2.48,0,.37-.03.74-.03,1.11,0,.16.03.31.03.47,0,.64,0,1.28-.02,1.92-.02.62-.07,1.25-.11,1.87,0,.13-.04.25-.04.38,0,.24.03.48.03.73,0,.19-.01.38-.01.56,0,.06.02.12.04.18,0,.02.05.05.04.05-.24.35.18.68,0,1.05-.01-.16-.02-.3-.03-.43-.02,0-.04,0-.07,0-.04.68-.07,1.36-.11,2.04h.08c.03-.41.07-.82.1-1.23,0,0,.01,0,.02,0,.01.09.04.17.03.26-.07,1.31-.15,2.62-.21,3.93-.02.32.03.64.09,1,.02-.04.03-.08.06-.14,0,.11.02.2.02.28.01.51.02,1.02.03,1.54.01.86.01,1.72.03,2.57,0,.37.05.74.08,1.11.02.23.2.31.39.34.31.04.52.2.59.5.03.12.02.26.04.39,0,.03.04.07.06.08.09,0,.18,0,.29,0v.3c.22.14.44.28.67.42-.02,0-.05.03-.09.05.16.11.3.22.45.33.07.05.14.09.21.12.29.13.58.26.87.37.38.15.76.3,1.14.43.26.09.54.14.81.2.68.15,1.36.29,2.04.43.49.1.99.19,1.48.3.11.02.2.12.31.16.21.06.43.11.64.16.02.08.05.18.07.27.02,0,.05-.01.07-.02,0-.06-.01-.11-.02-.17.01-.02.03-.03.04-.05.11.09.22.16.32.26.19.2.37.42.55.63.02.02.03.05.05.05.18,0,.32.09.36.25.06.25.09.51.13.76h-6.84s.05-.09.08-.1c.72-.11,1.43-.21,2.15-.31.37-.06.75-.1,1.11-.19.19-.05.37-.19.54-.29.06-.04.11-.1.21-.2-.24-.14-.45-.31-.69-.39-.53-.18-1.08-.32-1.62-.47-.36-.09-.72-.15-1.08-.23-.06-.01-.13-.01-.18-.04-.38-.15-.75-.32-1.13-.46-.23-.09-.48-.14-.72-.22-.1-.03-.2-.06-.28-.12-.12-.09-.22-.12-.37-.07-.06.02-.17-.02-.22-.07-.26-.23-.53-.4-.88-.16-.03.02-.08.03-.11.02-.25-.1-.54-.15-.73-.31-.21-.18-.39-.45-.47-.72-.06-.21-.15-.36-.27-.52-.22-.3-.52-.3-.85-.25-.36.05-.73.1-1.05-.03-.05-.2-.09-.36-.14-.53-.05-.19-.11-.38-.17-.59-.2.07-.3.28-.42.49-.09-.02-.19-.03-.35-.06.34-.37.65-.71.96-1.06.03-.25.04-.55.11-.83.06-.25.23-.48.27-.74.06-.37.03-.75.05-1.12,0-.25.02-.49.04-.74.03-.48.07-.97.1-1.45.03-.39.06-.79.07-1.18.01-.38-.02-.77.03-1.14.05-.36-.09-.72.07-1.08.06-.14-.04-.35-.07-.56.24-.16.02-.43.05-.66.03-.24.02-.49.03-.74,0-.15-.02-.3,0-.44.06-.61.15-1.21.18-1.82.03-.61.01-1.22.01-1.83,0-.18.01-.38-.03-.55-.12-.49,0-1-.09-1.49-.02-.11,0-.23,0-.37-.03-.01-.08-.04-.16-.07.07-.07.13-.13.19-.2-.04-.14-.12-.29-.1-.43.02-.14.14-.27.21-.41.1-.2.2-.4.3-.6-.03,0-.06,0-.1,0-.09-.14-.18-.27-.26-.41,0,0,.02-.02.03-.03.04.02.07.05.08.05-.05-.44-.11-.9-.17-1.36-.04-.01-.14-.04-.24-.06,0-.02,0-.03.01-.05.06,0,.13-.01.19-.02-.02-.05-.05-.11-.05-.16,0-.06-.13-.16.04-.19-.01-.09,0-.22-.05-.25-.16-.1-.13-.2-.06-.33.05-.1.06-.21.08-.32,0-.02-.06-.06-.09-.09.05-.03.1-.06.13-.08-.06-.1-.12-.19-.19-.29.06-.05.11-.1.18-.16-.09-.05-.16-.1-.25-.15.05-.05.11-.1.18-.15,0-.05,0-.13.01-.21.01,0,.03,0,.04,0-.02-.1-.05-.2-.08-.33-.08-.03-.22-.04-.12-.26.07-.14,0-.35,0-.52,0-.04,0-.07.02-.11.02-.04.05-.07.07-.1-.05,0-.1-.02-.15-.03v-.24c.07.04.13.08.21.13.04-.31-.3-.16-.34-.38.1.03.18.07.27.1.01,0,.02-.02.04-.03-.05-.06-.1-.13-.16-.19-.03-.03-.08-.05-.12-.07.04-.04.09-.08.15-.13-.19-.09-.3-.18-.1-.39.05-.05-.01-.23-.03-.35-.03,0-.05,0-.08-.01.03-.01.06-.03.09-.04.03-.01.05-.02.02-.06.03-.2.08-.41.08-.61,0-.2-.06-.4-.08-.6-.01-.08,0-.17-.01-.26,0-.13.03-.3-.03-.39-.1-.12-.09-.19,0-.29.02-.02.03-.07.02-.1-.1-.24-.12-.44.21-.53-.07-.01-.14-.02-.17-.03-.01-.08-.01-.15-.03-.21-.02-.08-.05-.16-.08-.27.1.01.16.02.23.03-.27-.12-.18-.35-.18-.56,0-.21-.02-.42-.04-.6.14-.09.26-.18.4-.27-.18,0-.33-.02-.48-.03,0-.03,0-.05,0-.08.07.01.15.02.22.03.09-.31-.07-1.01-.24-1.08.16-.27.16-.36-.09-.56.13-.04.26-.07.38-.11-.04-.04-.08-.09-.12-.13-.05.03-.1.06-.17.1-.04-.08-.08-.15-.12-.22.26-.02.34-.09.34-.54-.06,0-.12.01-.22.02.06-.08.1-.13.14-.19-.06-.02-.12-.05-.21-.08.06-.05.11-.09.19-.15-.1-.01-.16-.02-.23-.03,0-.03-.03-.08-.01-.1.03-.05.09-.09.13-.13-.34-.03-.23-.34-.31-.57.07.02.14.03.23.06-.11-.09-.2-.16-.29-.24.02-.02.04-.04.06-.06h.19c-.05-.06-.09-.12-.14-.18-.05-.06-.1-.11-.14-.16.04-.02.08-.03.11-.05-.05-.09-.09-.18-.15-.29.07.01.12.02.16.02-.06-.17-.13-.33-.16-.49-.03-.16,0-.32,0-.53.1.02.23.04.39.07-.11-.07-.2-.13-.31-.2.05-.05.11-.12.21-.24-.13-.03-.24-.05-.36-.08,0-.03,0-.1-.02-.19.09.06.15.1.21.13.01-.01.02-.02.03-.03-.09-.16-.19-.33-.28-.49,0-.02.02-.07.05-.09.05-.05.11-.1.16-.15-.02-.02-.05-.04-.07-.07,0,.05-.02.1-.02.13-.21-.13-.16-.3-.2-.45-.1-.41-.08-.82-.06-1.23.02-.61-.26-1.13-.39-1.69-.06-.28-.24-.52-.34-.79-.1-.26-.19-.53-.24-.81-.03-.18-.09-.21-.23-.13-.24-.22-.28-.51-.29-.81,0-.16,0-.33-.06-.47-.13-.28-.43-.44-.55-.74-.01-.03-.11-.03-.16-.04.03-.06.09-.13.07-.18-.03-.11-.1-.1-.16,0-.05-.04-.1-.08-.15-.12.21-.38-.22-.29-.3-.46.03.02.07.04.1.06.05-.27-.37-.74-.66-.74.14-.16,0-.24-.09-.32-.11-.1-.22-.2-.34-.29-.13-.09-.27-.15-.4-.24-.05-.03-.13-.07-.13-.11,0-.22-.22-.27-.32-.41-.19-.24-.39-.47-.53-.74-.19-.34-.33-.7-.49-1.06-.07-.15-.12-.3-.19-.45-.01-.03-.08-.03-.08-.03-.05-.16-.07-.3-.12-.42-.27-.62-.6-1.21-.72-1.89-.07-.4-.26-.78-.36-1.18-.11-.45-.24-.9-.24-1.37,0-.23-.09-.46-.14-.69-.13-.64-.26-1.28-.37-1.92-.14-.83-.26-1.66-.37-2.49-.04-.3-.04-.61-.07-.92-.03-.31-.09-.62-.13-.92,0-.03-.02-.06-.02-.09.08-.56-.21-1.08-.21-1.63,0-.04-.04-.09-.03-.11.25-.31-.09-.67.08-.99-.19-.22.02-.53-.18-.78-.12-.15-.12-.42-.13-.64-.02-.39,0-.79-.03-1.19-.05-.76-.14-1.53-.18-2.29-.02-.36.06-.72.05-1.08-.02-.69.12-1.37.13-2.07.01-.93.18-1.87.27-2.8.05-.46.05-.93.14-1.39.12-.59.1-1.18.05-1.77-.06-.61-.08-1.22.04-1.82.03-.17.03-.36,0-.54-.08-.51-.02-.98.17-1.46.09-.22.08-.47.11-.71.02-.19.02-.38.06-.57.12-.58.12-1.16.12-1.74,0-.5.09-1,.13-1.5.03-.38.03-.77.06-1.15.05-.63.13-1.26.15-1.9,0-.33.07-.65.09-.97.02-.34.03-.69.08-1.03.04-.33.12-.65.18-.98,0-.04.02-.08.01-.12-.09-.33.13-.62.1-.95-.04-.49.14-.95.16-1.44,0-.11-.05-.23-.04-.34.03-.26.2-.48.49-.65.05.17.09.33.13.5,0,.03,0,.07-.03.1-.18.24-.18.52-.19.81-.02.42-.07.83-.09,1.25-.02.44-.03.88-.05,1.32,0,.19-.06.39-.05.58.02.9-.03,1.8-.18,2.69-.04.23-.05.49,0,.72.05.27,0,.53-.05.79-.04.25-.06.49-.09.77.01.04.07.12.07.21-.03.54-.08,1.09-.12,1.63-.04.53-.08,1.07-.12,1.6-.03.35-.04.7-.07,1.04-.04.34-.17.69-.12,1.02.04.28-.05.53-.03.8.02.37.1.78-.08,1.15-.07.15-.12.31-.18.47-.01.04-.03.1-.01.13.11.16.07.33.07.5.01.4.14.8.22,1.22.3-.18.26-.47.33-.7.01-.04,0-.1.04-.13.14-.13.28-.27.43-.38.05-.04.18-.02.23.02.16.12.26.1.45.02.27-.12.6-.14.9-.12.48.04.93.23,1.35.48.12.07.28.08.43.12.4.09.79.19,1.19.28.28.06.56.1.84.15.08.02.15.06.2.08.1,0,.2-.05.26-.02.45.24.93.33,1.43.33.35,0,.7.05,1.03-.02.35-.08.7-.12,1.05-.19.45-.08.9-.15,1.35-.21.78-.12,1.56-.22,2.34-.34.57-.09,1.14-.19,1.71-.3.14-.03.27-.09.4-.13.21-.06.39-.19.64-.11.09.03.22-.09.33-.14.23-.1.48-.19.7-.31.08-.04.14-.16.15-.26.04-.27.08-.55.08-.83,0-.2-.05-.39-.06-.59,0-.09.02-.18.08-.27.05.34.08.68.14,1.02.03.16.07.34.16.47.21.3.24.63.27.97.04.42.07.84.08,1.26,0,.51-.01,1.02-.02,1.53,0,.58-.01,1.16,0,1.74,0,.56,0,1.13.02,1.69,0,.26.05.52.07.77,0,.11,0,.24-.18.16,0-.42.02-.85,0-1.27-.03-.42-.12-.83-.16-1.25-.02-.26,0-.53,0-.8,0-.48,0-.95,0-1.43,0-.19.05-.39.04-.58-.02-.52-.06-1.04-.1-1.56,0-.09,0-.19-.03-.29-.13.43-.54.38-.84.53-.16.08-.35.07-.48.25-.07.1-.25.13-.38.16-.17.04-.35.03-.52.06-.08.01-.15.09-.23.11-.15.04-.3.07-.45.09-.32.04-.65.05-.97.09-.46.07-.92.16-1.38.24-.3.05-.6.1-.89.14.09.22.16.41.24.6,0,0,0,0,0,0-.13-.06-.25-.12-.37-.19-.07-.04-.18-.09-.19-.16-.05-.23-.21-.21-.36-.19-.51.06-1.03.14-1.54.21-.07,0-.14-.03-.2,0-.13.02-.25.06-.38.06-.38,0-.76-.13-1.14-.02-.04.01-.09-.05-.15-.06-.09-.02-.2-.06-.27-.03-.32.13-.33.14-.44-.17-.14.07-.25.09-.43,0-.2-.1-.5-.02-.76,0-.2.01-.18.11-.07.22-.13.18-.28.14-.45.08-.32-.12-.65-.21-.97-.33-.26-.1-.52-.23-.78-.35.01.1.03.22.04.34.03.36.06.73.07,1.09.02.57.03,1.15.06,1.72,0,.24.07.48.06.71-.01.26-.09.51-.11.76-.02.34-.02.68-.02,1.02,0,.49,0,.98,0,1.47-.02.53-.07,1.05-.02,1.59.06.64.03,1.28.03,1.93,0,.56-.01,1.12-.02,1.67,0,.06-.04.12-.03.16l.03.54s0,0,0,0c0,.14.02.28.02.42-.02,0-.05,0-.07,0,.05.07.1.13.14.2-.02,0-.04,0-.06,0-.03.09-.05.18-.08.26-.02.07-.05.15-.09.23.06,0,.14-.02.17-.02-.05.12-.1.25-.15.4.06.02.12.05.18.07-.08.11-.16.22-.25.35.15.05.26.09.39.14-.09.05-.19.09-.28.14.09.05.18.1.28.16-.04.17-.09.34-.13.53.02,0,.07.03.17.06-.1.08-.18.13-.29.22.11.02.2.04.34.07-.13.1-.23.18-.34.26-.07.01-.15.02-.28.05.14.11.23.17.32.24.02-.01.04-.03.07-.04-.04-.08-.08-.17-.11-.25ZM3.05,34.73c0,.14-.04.29,0,.41.08.3-.1.66.24.88-.19.2-.05.41-.04.6,0,.05.08.09.13.14-.03-.18-.08-.33-.08-.48,0-.07.08-.16.07-.23-.05-.34-.12-.67-.2-1.01-.02-.11-.08-.21-.12-.32,0-.08-.01-.16-.01-.23,0-.37,0-.73-.02-1.1,0-.15-.04-.31-.02-.46.01-.1.15-.18.15-.27.02-.46.03-.92.02-1.37,0-.2-.07-.4-.06-.6,0-.17.08-.34.1-.51.04-.52.07-1.03.08-1.55,0-.19-.11-.39-.11-.58.01-.32.08-.64.12-.96,0-.07.02-.14,0-.21-.03-.32-.08-.64-.09-.96-.01-.38,0-.75.02-1.13.01-.32.04-.64.06-.96.03-.4.07-.81.09-1.21,0-.15-.05-.3-.07-.45-.1.35-.14.7-.22,1.03-.1.44,0,.9-.16,1.35-.12.36-.12.77-.11,1.16,0,.33-.13.66,0,.99.02.05-.03.12-.04.18-.01.05-.02.11-.03.16-.01.34-.02.68-.04,1.01,0,.18-.06.35-.05.53.02.38.08.76.12,1.13.04.53.05,1.05.12,1.58.03.21-.01.31-.16.34.02.18.1.36.05.5-.1.25-.01.49-.02.73-.01.29.2.56.07.86-.01.02.01.06.02.09.02.17.03.34.06.5.03.14.09.28.13.42ZM5.07,45.9s-.05.07-.04.09c.2.56.39,1.12.6,1.67.02.06.07.11.11.16.01-.07.05-.15.03-.22-.05-.2-.15-.38-.19-.58-.07-.42-.33-.74-.51-1.13ZM4.54,44.79s.04,0,.06-.01c-.07-.35-.14-.7-.21-1.05,0-.04-.03-.08-.01-.11.12-.18-.02-.19-.16-.24.12.49.04.99.32,1.41ZM3.97,42.53s.06,0,.08.01c.04-.14.08-.28.12-.42l-.08-.02c-.01.05-.03.11-.04.16-.02,0-.04,0-.06,0v-.38s-.06,0-.09.01c.02.21.05.42.07.63ZM6.1,48.52c.02.33.21.57.35.84.02-.01.05-.03.07-.04-.14-.27-.28-.54-.42-.8ZM3.25,37.57s.05,0,.07,0c.01-.2.03-.41.04-.61-.04,0-.08,0-.11,0v.61ZM4.25,42.65s-.05,0-.08.01c.03.22.06.44.09.65.04,0,.08-.01.12-.02-.05-.22-.09-.43-.14-.65ZM8.08,21.13c.19.2.35.24.55.16-.17-.05-.33-.09-.55-.16Z"/>
      <path class="cls-1" d="M29.18,105.35c.44-.11.87-.24,1.32-.31.4-.07.81-.08,1.22-.12.3-.03.59-.06.89-.1.07,0,.13-.06.23-.15-.06-.03-.12-.05-.21-.09.62-.14,1.1-.41,1.57-.79.55-.46,1.18-.82,1.78-1.21.33-.22.71-.38,1.02-.63.73-.6,1.55-1.08,2.17-1.8.18-.22.38-.42.56-.63.04-.04.06-.12.05-.17-.1-.37.07-.71.07-1.06,0-.29-.06-.6-.14-.88-.13-.45-.11-.87.03-1.32.15-.47.22-.96.31-1.44.06-.34.1-.68.14-1.03.03-.27.05-.55.08-.82.03-.39.14-.8.07-1.18-.04-.24.14-.46,0-.69-.02-.04.07-.14.11-.22-.04-.05-.1-.11-.17-.19.07-.04.12-.08.19-.13-.06-.02-.11-.04-.2-.07.07-.09.13-.17.22-.29.02.13.03.18.04.23.02,0,.03,0,.05,0v-.21c-.09,0-.15,0-.25.01v-.76c.07.07.11.12.16.18.05-.02.09-.04.13-.06.13.09.08.26-.03.32.04.11.11.22.12.33.02.27.02.55.03.83.01.28.04.55.04.83,0,.07-.08.13-.12.2.28.08.1.36.13.55.02.12.12.37-.18.38.08.04.16.08.2.09-.03.23-.06.41-.08.61-.08-.03-.14-.06-.19-.08.31.16.19.43.18.66-.02.76-.06,1.53-.1,2.29-.02.3.06.55.32.73.03.02.04.09.06.14-.04,0-.08.02-.13.03,0,.28.17.53.2.83.02.2.3.37.48.56.13-.21.08-.51.37-.6-.14-.51,0-1.06-.18-1.48-.02-.27-.03-.46-.04-.65,0-.12.02-.25.01-.37,0-.15-.03-.3-.02-.44,0-.09.03-.18.08-.26.19-.31.09-.65.06-.95-.06-.59-.1-1.16,0-1.75.03-.16-.01-.33,0-.49,0-.53.03-1.05.02-1.58,0-.28-.04-.56-.07-.83-.03-.23-.04-.23.2-.3-.4-.08.02-.48-.28-.6.06-.06.1-.11.15-.17-.05-.04-.1-.07-.17-.12.08-.03.12-.04.18-.06-.05-.08-.1-.15-.18-.27.16.02.27.03.42.04-.16.23-.06.42-.02.62.04.24-.03.5-.05.76.17.03.08.22.03.31-.11.21,0,.45-.08.66.02-.03.03-.05.07-.11,0,.17.15.32-.04.46-.01,0,0,.1.01.1.22.07.11.16.06.3-.05.14.01.31.08.47v-.39s.05,0,.07-.01c.03.22.05.44.08.66.03.21.08.42.11.64.04.31.08.62.12.94.08.7.16,1.41.22,2.11.04.41.06.83.1,1.24.02.24.08.48.09.72.01.21-.01.43,0,.64,0,.24.1.5.04.72-.09.3.06.4.27.49.06.02.13.02.26,0,.04.39.08.77.13,1.2.23.12.53.28.81.42.11.12.2.25.33.33.48.3.99.56,1.46.87.46.3,1,.36,1.49.55.41.16.83.32,1.24.48.04.02.09.05.13.05.3,0,.55.13.82.24.46.19.92.38,1.4.54.27.09.57.12.85.17,0,0,.02,0,.02,0,.22.22.5.1.75.13.09,0,.17,0,.26-.02.55.23.93.59.8,1.26h-1.71c-.06-.05-.12-.11-.19-.13-.22-.09-.49-.12-.67-.26-.48-.38-1.04-.62-1.6-.83-.81-.3-1.66-.5-2.48-.8-.95-.35-1.9-.69-2.78-1.2-.3-.17-.63-.38-1.02-.19-.04.02-.1,0-.14,0-.23-.08-.46-.16-.68-.27-.53-.26-1.05-.54-1.54-.79-.05.36-.1.77-.15,1.18.03.01,0,0-.02-.01-.06.12-.12.24-.18.36-.04.07-.04.16-.08.23-.12.19-.27.36-.5.45-.23.1-.38.02-.43-.24-.39.08-.78.1-1.12.37-.26.2-.61.3-.9.47-.11.07-.18.21-.25.34,0,.01.11.1.18.15.15.1.2-.05.29-.1.13-.08.28-.16.43-.19.75-.16,1.5-.21,2.26-.02.1.03.2.08.3.11-.05.09-.1.17-.16.27.19.15.09.3-.07.4-.09.06-.23.03-.35.05-.1,0-.26-.02-.28.02-.08.18-.2.11-.32.09-.39-.06-.78-.07-1.16.01-.7.14-1.39.31-2.09.46-.04,0-.08.04-.12.07h-7.31ZM39.1,101.89c.42-.04.64-.16.64-.35-.23-.04-.51.11-.64.35-.3-.03-.52.1-.63.43.24-.17.44-.3.63-.43Z"/>
      <path class="cls-1" d="M.56,105.35s.06-.09.11-.15c-.39-.26-.53-.67-.64-1.1-.02-.09-.03-.23.02-.3.21-.28.4-.63.68-.78.54-.28,1.14-.44,1.71-.64.33-.11.66-.21.99-.3.41-.12.83-.22,1.25-.33.14-.04.29-.09.43-.13,1.24-.39,2.49-.78,3.73-1.18.29-.09.57-.21.86-.32,0,.02.02.03.03.05-.3.2-.59.43-.91.59-.55.27-1.12.5-1.69.74-.27.11-.53.24-.8.33-.88.3-1.76.6-2.65.87-.48.15-.89.43-1.37.59-.05.02-.08.1-.13.12-.15.04-.36.1-.3.26.06.16.23.33.4.38.36.13.73.19,1.11.26.13.03.26,0,.39.02.14.02.28.07.42.1.17.04.35.09.52.1.99.04,1.99.08,2.98.11.33,0,.67-.03,1.01-.03.15,0,.29.01.44.03.04,0,.09.04.13.03.45-.05.9-.12,1.35-.15.16-.01.33.06.5.09.12.02.25.03.38,0-.06-.04-.13-.08-.24-.15.22-.03.38-.05.52-.07.07.07.14.19.19.18.09-.02.17-.11.31-.2,0,.08-.02.15-.02.21.1,0,.22-.01.33,0,.14.02.28.04.4.08.1.03.18.13.28.15.35.07.69.05,1.05.02.37-.04.74,0,1.11-.02.13,0,.3.06.34-.16.33.04.65.08.98.12-.04.03-.08.07-.12.1l.31.14.03-.03c-.21-.03-.42-.05-.63-.08,0,.02-.01.03-.02.05.11.05.22.1.33.16,0,.02-.02.05-.03.07-.15,0-.3-.02-.39-.02-.12-.13-.2-.22-.29-.31-.02.02-.04.04-.07.06.04.07.08.14.12.21-.32.11-.61.16-.91-.04-.07-.04-.2-.05-.27-.01-.25.15-.52.1-.79.11-.12,0-.23.04-.34.07-.03.01-.05.07-.08.11h-2.75c.71-.15,1.43-.29,2.14-.44,0-.02,0-.04.01-.06-.08-.02-.15-.05-.23-.04-.26.02-.51.06-.76.09-.52.06-1.05.08-1.57.18-.49.09-.95.18-1.46.12-.46-.05-.94.03-1.41.07-.05,0-.09.06-.14.09h-2.8c-.3-.07-.6-.19-.9-.21-.4-.04-.8.02-1.18-.14-.2-.09-.41-.13-.62-.19-.02,0-.04.03-.07.05.06.05.11.09.13.1-.18.13-.36.26-.54.39h-.9Z"/>
      <path class="cls-1" d="M39.86,65.61s-.06-.08-.09-.12c-.03-.05-.09-.1-.1-.15-.02-.53-.02-1.06-.06-1.59-.05-.59-.13-1.17-.2-1.75-.01-.11.07-.28-.13-.32-.02,0-.04-.06-.03-.08.16-.45-.02-.89-.05-1.33-.03-.41-.27-.75-.55-1.05-.23-.24-.24-.36,0-.59.4-.37.82-.68,1.36-.82.22-.06.25-.16.16-.37-.18-.42-.35-.85-.54-1.27-.04-.08-.14-.14-.22-.2-.14-.1-.28-.21-.42-.3-.09-.06-.18-.21-.3-.02-.02.03-.12.04-.17.02-.33-.13-.67-.24-.96-.42-.32-.2-.52-.52-.64-.89-.04-.11-.09-.21-.14-.31-.07-.14-.15-.27-.24-.4-.17-.28-.35-.55-.52-.82-.09-.14-.19-.28-.27-.43-.03-.05-.05-.1-.06-.16-.02-.12-.24-.15-.13-.36.04-.08-.17-.27-.23-.42-.23-.56-.6-1.05-.86-1.6-.15-.32-.24-.66-.36-.99-.07-.2-.14-.39-.16-.61.04.04.09.07.15.12.01-.06.04-.1.03-.13-.09-.44-.17-.88-.29-1.31-.13-.45-.33-.88-.48-1.32-.18-.54-.34-1.1-.51-1.64-.05-.16-.15-.31-.2-.48-.34-1.06-.68-2.12-.81-3.24-.07-.59-.22-1.18-.31-1.77-.07-.46-.07-.94-.12-1.4-.1-.81-.25-1.62-.34-2.43-.1-.89-.17-1.79-.24-2.69-.05-.63-.08-1.26-.12-1.88,0-.14-.02-.27-.03-.41-.03,0-.07-.01-.1-.02-.05.21-.11.42-.15.63-.03.12-.02.26-.07.36-.13.26-.12.52-.1.8.02.23-.07.46-.07.69,0,.8,0,1.59.02,2.39.02.88.05,1.75.07,2.63,0,.36-.01.72.02,1.08.03.37.09.74.16,1.1.13.7.26,1.41.41,2.1.11.53.25,1.06.37,1.59.02.1.03.21,0,.33-.18-.69-.36-1.38-.55-2.06-.03-.12-.08-.24-.11-.36-.06-.34-.11-.67-.17-1.01-.08-.4-.2-.79-.26-1.19-.06-.38-.06-.77-.08-1.15-.03-.49-.08-.97-.09-1.46,0-.7.03-1.41.04-2.11,0-.11.03-.25-.02-.33-.18-.33.02-.66,0-.99-.02-.27.04-.55.05-.83,0-.14,0-.27-.02-.41,0-.06-.05-.13-.03-.18.12-.31.11-.63.12-.96.02-.46.05-.92.09-1.38.02-.23.04-.46.08-.68.04-.28.1-.55.15-.83.13-.79.27-1.58.39-2.38.08-.54.12-1.09.17-1.64,0-.05,0-.1-.01-.14-.09-.25-.09-.46.15-.65.08-.06.08-.23.1-.35.05-.3.13-.56.48-.65.11-.03.2-.13.3-.2.05.06.08.12.13.14.27.14.54.27.82.39.06.03.17.01.23-.03.19-.12.38-.07.57-.03.09.02.18,0,.27,0,.1.01.19.05.22.06.16-.02.27-.06.38-.05.27.02.48-.05.71-.2.19-.13.4-.27.69-.21.25.05.53.02.8-.02.42-.05.8,0,1.19.2.28.14.61.18.93.23.44.08.89.13,1.32.22.59.12,1.16.11,1.75.01.77-.12,1.55-.2,2.32-.3.42-.06.84-.13,1.27-.18.17-.02.35.03.52.03.37,0,.74-.02,1.11-.05.32-.03.64-.1.95-.17.42-.1.83-.26,1.25-.32.65-.09,1.27,0,1.78.49.05.05.11.08.17.12.24.17.25.39.03.58-.41.35-.86.58-1.41.54-.28-.02-.46.15-.66.29-.05.03-.02.17-.03.25-.02.16-.02.31-.05.47-.09.45-.33.89-.07,1.35.01.02.02.06.02.09-.01.27-.02.54-.04.81,0,.08-.06.16-.07.19.02.23.09.43.05.61-.09.39-.12.75-.05,1.16.07.41.01.85.01,1.27,0,.73,0,1.45,0,2.1-.11.17-.19.29-.26.41-.01-.1-.03-.23-.04-.36-.02,0-.04,0-.06,0,0,.14,0,.28,0,.42,0,.12,0,.24,0,.35,0,.33.02.67.02,1,0,.34,0,.68,0,1.02-.01.44-.05.87-.06,1.31,0,.73.02,1.46.02,2.2,0,.46-.03.92-.07,1.38-.02.3-.09.6-.12.9-.03.3-.02.6-.07.89-.04.28-.15.55-.21.83-.07.34-.1.68-.18,1.01-.13.58-.27,1.15-.41,1.73-.05.21-.09.42-.15.63-.09.34-.2.67-.3,1.03.08-.04.16-.09.24-.13-.2.29-.4.58-.6.87.08.05.18.1.29.16.34-.44.56-.97.77-1.52.18-.47.44-.91.67-1.36.11-.21.24-.42.32-.64.09-.26.14-.53.2-.79.03-.11.04-.22.08-.32.02-.04.09-.06.14-.09.02.04.07.09.07.13,0,.09-.03.18-.04.27-.01.1-.02.2,0,.31.33-.41.47-.96.92-1.27.03.01.06.03.09.04-.11.35-.21.7-.33,1.04-.19.52-.39,1.03-.59,1.54-.4.97-.8,1.94-1.2,2.92-.39.95-.94,1.8-1.52,2.64-.02.03-.04.07-.05.11-.11.53-.23,1.06-.33,1.59-.04.23-.02.47-.08.7-.09.36-.38.56-.68.73-.2.11-.28.29-.35.5-.06.17-.2.32-.31.46-.08.11-.18.2-.29.29-.24.21-.47.45-.75.61-.49.28-1,.57-1.54.75-.43.15-.92.16-1.32.23.12.38.25.82.39,1.26.03.09.1.17.17.23.31.24.65.47.61.92-.02.22-.11.44-.17.66-.14.47-.63.51-.94.78-.02.02-.06.03-.09.02-.38-.1-.69.12-1.02.22-.06.02-.13,0-.22-.01.12.14.19.27-.01.38-.05.03-.07.15-.07.22.03.68.07,1.36.1,2.04,0,.06-.04.13-.02.18.02.1.05.2.06.3.02.19.04.37.06.56.02.26.11.51.04.8-.05.22.05.46.07.7,0,.05-.04.11-.08.18.1.17.1.18-.05.23h0ZM32.08,22.62c.01.27.05.48.03.68-.04.42-.13.83-.17,1.25-.05.56-.1,1.12-.11,1.67-.01.74.02,1.48.02,2.22,0,.22-.04.45-.04.67.01.5.04,1,.06,1.49.02.55.05,1.1.08,1.64.01.3.02.6.03.9.02.6-.1,1.21.15,1.8.06.14.06.3.06.46,0,.18-.02.35-.01.53.01.28.05.56.06.84.01.64-.02,1.28.02,1.92.03.5.12,1.01.23,1.5.14.65.31,1.29.5,1.93.31,1.01.63,2.01.99,3,.33.9.77,1.76,1.21,2.62.16.3.2.66.32.99.13.37.28.73.41,1.09.1.28.28.56.28.84,0,.4.09.75.3,1.09.23.38.41.8.62,1.19.56,1.01,1.4,1.69,2.51,2.01.47.14.96.2,1.44.28.08.01.17-.01.25-.05.17-.08.34-.16.49-.27.41-.27.82-.52,1.2-.83.18-.15.4-.4.4-.6,0-.3.21-.45.28-.68.03-.1.03-.22.03-.33,0-.35-.14-.71.08-1.03.05.01.09.02.15.03-.03-.07-.08-.14-.06-.17.18-.27.29-.55.35-.88.06-.3.3-.56.45-.84.1-.17.24-.35.26-.53.04-.33.12-.62.36-.85.02-.02.04-.05.06-.07.22-.51.46-1.02.66-1.54.14-.37.23-.75.34-1.13.1-.35.21-.69.31-1.04.01-.05,0-.11-.02-.2.07-.12.16-.28.26-.44.01,0,.03.01.04.02-.25.95-.51,1.9-.77,2.88.07.07.14.08.18-.05.15-.45.29-.9.43-1.35.2-.71.39-1.42.59-2.13l-.09-.05c-.07.1-.13.2-.22.33v-.31c.35-.14.39-.19.35-.57-.05.18-.09.3-.13.43-.07-.03-.12-.05-.2-.08.11-.08.27-.14.1-.23.04-.15.14-.31.1-.39-.11-.19.02-.28.09-.41.03-.06.01-.14.02-.22h-.02c.13-.54.26-1.08.41-1.68-.13.06-.17.09-.24.12.08-.24.19-.44.22-.66.07-.5.1-1.01.15-1.5-.09-.01-.17-.02-.25-.03,0-.02-.02-.05-.02-.07.11-.08.23-.15.33-.22-.24,0-.25-.02-.11-.25.08-.14.09-.26-.04-.38-.03-.03-.06-.09-.06-.14.03-.41.08-.81.11-1.22,0-.12-.02-.24,0-.36.03-.18.05-.34-.04-.52-.05-.1-.03-.25,0-.37.04-.15.12-.29.17-.43.02-.06.03-.12.04-.19-.03-.02-.09-.07-.11-.09.03-.09.06-.16.08-.24-.02,0-.04-.01-.06-.02-.01.03-.03.07-.04.1-.04-.08-.05-.18,0-.21.19-.16-.01-.15-.1-.21.17-.38.01-.85.35-1.19-.01-.01-.03-.03-.04-.04-.07.06-.13.11-.17.14.02-.19.02-.43.06-.65.09-.43-.02-.86.1-1.3.07-.24-.04-.52-.05-.79-.01-.31-.02-.62,0-.94,0-.31.04-.61.06-.92.03-.38.06-.76.08-1.14.02-.32.06-.65.07-.97,0-.52-.02-1.03-.01-1.55,0-.19.02-.35-.2-.44-.1-.04-.16-.16-.25-.24-.04-.04-.1-.1-.15-.1-.32-.01-.64-.04-.96-.01-.45.03-.45.05-.41.53,0,.02,0,.03,0,.05-.03.66-.08,1.33-.09,1.99,0,.67.04,1.34.05,2.01,0,.39.01.77,0,1.16-.03.47-.11.93-.13,1.4-.04.84-.04,1.68-.07,2.53-.04.91-.09,1.81-.14,2.72-.02.45-.04.91-.08,1.36-.1,1.03-.22,2.06-.33,3.09-.02.17.05.34.03.51-.03.41-.08.82-.13,1.23-.04.35-.07.7-.1,1.05-.03.36-.07.72-.1,1.08,0,.06-.05.11-.06.16-.03.36-.04.73-.08,1.09-.06.58-.16,1.15-.22,1.73-.04.39-.05.78-.09,1.17,0,.09-.08.18-.14.33-.04-.18-.07-.29-.1-.4.03,0,.07-.01.09-.02-.02-.07-.06-.14-.06-.2.02-.22.08-.43.1-.64.01-.16,0-.33-.04-.48-.03-.14.08-.23.03-.4-.07-.19.07-.44.09-.66.06-.5.08-1,.04-1.51,0-.1-.01-.22.04-.3.16-.23.13-.47.08-.72-.01-.06,0-.14.02-.2.16-.27.12-.43-.13-.58.02-.08.05-.16.07-.24-.28-.08-.12-.24-.07-.38.06-.17.14-.35.16-.53.05-.54.07-1.09.11-1.64,0-.11.02-.22.03-.32.04-.29-.09-.61.17-.85.03-.03.04-.13.01-.16-.16-.18-.02-.4-.1-.6-.02-.06,0-.15.03-.22.02-.11.07-.22.08-.34.04-.46.07-.92.11-1.39,0,.07-.03.16-.08.24-.04.06-.1.1-.15.15.03-.2.05-.41.16-.5.24-.19.12-.42.16-.64-.03.16-.06.33-.09.49h-.1c-.02-.21,0-.41-.06-.6-.08-.29-.14-.57-.02-.86.02-.05.03-.11.04-.16.01-.37-.1-.74.06-1.1,0-.01,0-.03,0-.05.05-.63-.04-1.26.06-1.9.08-.54.01-1.09.02-1.64,0-.24.05-.48.08-.74,0-.03-.05-.09-.05-.16,0-.58,0-1.16-.01-1.74-.01-.77-.04-1.54-.04-2.32,0-.26.09-.52.14-.78-.58-.03-1.14-.04-1.71-.08-.57-.05-1.13-.13-1.73-.21.05.07.08.11.1.15.09.15.2.3.08.48-.13.19-.31.28-.55.21-.1-.03-.2-.02-.3-.05-.14-.04-.27-.11-.4-.15-.13-.04-.26-.08-.39-.11,0,0,0,.02-.01.03.04.03.08.05.13.08-.4-.26-.84-.26-1.3-.28-.35-.19-.77-.15-1.12-.19-.07.99-.15,1.95-.2,2.9-.05.96-.07,1.92-.11,2.95-.05-.08-.08-.1-.08-.12,0-.71,0-1.41.02-2.12,0-.11.06-.21.06-.32,0-.39-.01-.79,0-1.18,0-.1.05-.2.06-.3.02-.4.02-.81.04-1.21,0-.18.05-.35.06-.53,0-.04-.05-.12-.09-.13-.09-.03-.2-.05-.3-.06-.31-.03-.62-.07-.94-.07-.5,0-.99.01-1.49.03-.19,0-.26.1-.27.3-.02.54-.06,1.08-.08,1.62,0,.1.09.2.09.29-.03.34-.13.69-.13,1.03.01,1.13.06,2.25.09,3.38,0,.25.03.49.04.73.01.18.02.35.03.53-.03,0-.05.01-.08.02-.08-.16-.15-.33-.24-.49-.04-.08-.12-.22-.16-.21-.22.05-.25-.12-.3-.21.02-.11.04-.17.05-.25,0-.01-.07-.03-.11-.05-.02.07-.05.14-.04.21.03.23.08.45.12.69.22.03.32.16.29.4-.02.21,0,.43.01.64.02.48.05.96.08,1.44.03.5.05,1.01.07,1.51.02.36.03.73.04,1.1.02.39.04.78.05,1.18.01.37.03.73.04,1.1,0,.14,0,.27-.02.41,0,.07-.06.14-.09.21-.19-.39-.22-.75-.17-1.14-.08.04-.13.07-.19.1.03-.3.51-.58.04-.83.06-.24.12-.47.17-.69-.02,0-.05-.01-.07-.02-.02.08-.05.16-.09.3-.05-.23-.07-.4.07-.54.02-.02.02-.11,0-.13-.19-.15-.2-.19-.11-.3-.03-.15-.05-.25-.06-.35,0-.07.02-.15.02-.22,0-.08-.01-.15-.02-.23-.02-.3-.03-.6-.05-.91-.02-.22-.05-.44-.06-.66-.02-.41-.03-.83-.05-1.24,0-.17-.05-.33-.06-.49,0-.14.02-.28.01-.42-.05-.58-.08-1.17-.16-1.75-.05-.34.07-.68-.07-1.02-.01-.03.03-.07.03-.11.01-.1.03-.2.02-.29-.02-.24-.06-.48-.06-.72,0-.16.06-.33.06-.49,0-.49-.09-.97.03-1.46.07-.27-.01-.56.09-.84.09-.24.05-.53.06-.8,0-.15-.04-.27-.21-.29-.59-.08-1.19-.15-1.82-.23Z"/>
      <path class="cls-1" d="M23.96,24.62s.09-.02.1-.02c-.01-.12-.02-.19-.03-.26,0-.04.01-.08,0-.11-.08-.12-.14-.22,0-.34.02-.02-.01-.1-.03-.18.06.02.12.04.19.06-.01-.16.01-.29-.19-.33-.08-.02-.14-.14-.24-.24.1.02.18.03.26.04,0-.02.02-.05.03-.07-.18-.07-.36-.14-.57-.22.19.01.36.02.52.03-.14-.24-.3-.5-.46-.76.04-.01.08-.03.12-.04,0-.12-.02-.22-.03-.37.15-.14-.1-.15-.12-.26-.02-.08-.04-.17-.07-.25-.08-.2-.16-.4.04-.59-.08-.02-.15-.04-.21-.07-.13-.04-.2-.11-.2-.27-.01-.48-.01-.96-.1-1.42-.07-.41-.25-.8-.38-1.2-.02-.07-.07-.14-.08-.21-.02-.16-.03-.32-.04-.48-.03-.47-.06-.94-.1-1.41,0-.02-.01-.05,0-.07.18-.63,0-1.26.01-1.9,0-.4,0-.81,0-1.21,0-.06-.07-.13-.07-.19-.03-.31-.05-.62-.08-.94-.01-.19-.02-.38-.04-.57,0-.05-.07-.09-.11-.13.17-.25.07-.41,0-1.14-.05.04-.08.08-.11.11,0-.01-.02-.04-.02-.04.19-.19.09-.42.1-.64.02-.41-.07-.81-.02-1.23.03-.24-.06-.5-.06-.74-.02-.45-.01-.91-.02-1.36,0-.22-.06-.44-.04-.65.05-.6-.26-1.13-.33-1.71-.01-.1-.1-.18-.17-.28.09-.21.04-.43-.1-.61-.14-.18-.14-.36-.05-.56-.67-.03-1.34.24-2.04.11,0-.02,0,.03-.01.07-.9.04-1.79.07-2.69.11-.38.02-.77-.02-1.12.08-.28.09-.53-.05-.79.04-.26.09-.55.09-.83.15-.5.11-1,.13-1.51.05-.29-.05-.59-.15-.86-.08-.34.08-.63-.05-.94-.08-.33-.03-.66-.07-.98-.11-.86-.13-1.72-.14-2.59-.14-.87,0-1.75.15-2.6-.17-.3-.11-.61-.22-.93-.34.07-.26.23-.33.4-.39.9-.33,1.84-.44,2.79-.49.22-.01.44-.01.67-.13.23-.11.55-.03.82-.04.18,0,.36-.03.54-.04.46-.04.92-.06,1.37-.11.55-.06,1.1-.15,1.65-.21.19-.02.39,0,.59-.01.16,0,.33-.06.49-.05.52,0,1.05.03,1.57.03.26,0,.52-.03.78-.02.26.01.51.06.77.09.12.01.23,0,.35,0,.7,0,1.41-.01,2.11,0,.3.01.59.13.89.15.39.02.78-.05,1.17-.03.38.02.77.02,1.12.31.03-.06.06-.11.08-.15.06.1.1.18.17.3.07-.09.1-.13.14-.18.01,0,.02,0,.04.01-.01.04-.02.09-.04.15.09,0,.17-.02.25-.02.05.15.1.29.15.43.05.19.07.36-.06.54-.05.07-.06.19-.06.28.06.59.14,1.17.2,1.76.05.48.11.96.15,1.45.04.47.05.95.09,1.42.04.52.1,1.05.15,1.57.04.38.12.76.1,1.14-.02.39.04.75.08,1.13.1.96.2,1.93.29,2.89.12,1.27.54,2.46.88,3.67.17.6.25,1.23.36,1.85.01.08-.06.18-.08.27-.02.08-.02.17-.02.25,0,.09,0,.18,0,.27.03,0,.06,0,.1.01-.12.36-.11.72-.05,1.15-.19.41-.02.88.12,1.35-.2.08-.21.65,0,.93-.07.03-.13.06-.24.1.32.17.12.42.14.65,0,.13.06.25.08.38.02.12.02.24.03.39-.04-.02-.08-.04-.14-.08.06.15.12.27.17.39.02.05.06.09.06.13.04.44.06.87.1,1.31.02.28.08.57.08.85,0,.57.07,1.14.11,1.71.02.27-.03.54-.01.81.01.23.07.46.11.69,0,.02.02.05.01.07-.19.31.04.64-.07.96-.09.25-.13.52-.17.79-.02.1.02.21.03.33-.01.03-.08.1-.07.16.12.53,0,1.04-.07,1.59-.05-.07-.1-.14-.15-.23-.23,0-.42-.27-.36-.52.17-.62.17-1.25.16-1.88,0-.25.03-.5.02-.75-.03-1.09-.08-2.17-.11-3.26,0-.17.11-.4.03-.51-.16-.25-.05-.52-.13-.76-.02-.06.03-.13.03-.2,0-.12,0-.25,0-.38-.08,0-.12.01-.17.02.17-.16.18-.32.12-.52-.05-.19-.07-.39-.1-.61ZM5.21,1.76s.01.03.02.05c.17,0,.34,0,.52,0,.53-.01,1.06-.04,1.59-.04.99,0,1.98.03,2.97.05.73.01,1.45.07,2.17.03.91-.06,1.82-.2,2.73-.31.74-.09,1.48-.22,2.24-.15.79.08,1.58.04,2.35-.16.14-.04.38-.14.37-.19-.03-.22-.25-.2-.41-.22-.98-.08-1.96-.16-2.95-.23-.62-.05-1.24.08-1.85-.06-.02,0-.05,0-.07.01-.27.21-.61.12-.84.02-.33-.14-.64-.05-.95-.06-.44-.02-.88.12-1.32.17-.19.02-.38-.03-.57-.02-.57.06-1.15.14-1.72.21-.19.02-.38.04-.56.06-.18.02-.36.06-.53.03-.21-.04-.4-.1-.46.1-.2.02-.35.05-.5.04-.25,0-.51-.03-.76-.04-.06,0-.15-.03-.18,0-.24.19-.52.14-.79.2-.16.03-.32.12-.53.21.12.08.17.1.23.14-.08.06-.14.11-.2.16Z"/>
      <path class="cls-1" d="M15.43,55.17c-.06.02-.11.05-.15.04-.28-.11-.7-.72-.71-1.02,0-.02-.01-.06,0-.07.21-.19.12-.43.11-.65,0,0,0-.02,0-.02.17-.5.01-1,.04-1.49.02-.48.22-.96.36-1.43.02-.06.12-.1.13-.15.09-.29.17-.57.26-.86.22-.71.46-1.42.67-2.13.3-1.02.59-2.04.86-3.06.18-.7.33-1.41.47-2.12.1-.52.19-1.04.27-1.57.07-.45.12-.9.18-1.34.13-.96.14-1.93.1-2.9-.01-.3.07-.6.1-.91.01-.1-.01-.2,0-.3.05-.5.12-1.01.16-1.51.05-.59.06-1.18.11-1.77.04-.48.11-.95.16-1.43.06-.53.01-1.06-.1-1.58-.13-.57-.13-1.14-.05-1.73.04-.32,0-.66,0-.99,0-.38.01-.76.02-1.15,0-.58.01-1.16.01-1.74,0-.19-.03-.39-.04-.58,0-.24.14-.39.38-.39.23,0,.25.2.26.35.03.58.03,1.17.06,1.75.03.69.1,1.39.12,2.08.02.69,0,1.38.02,2.07,0,.45.06.91.04,1.36-.02.64-.09,1.27-.14,1.9-.02.29-.06.59-.08.88-.03.44-.03.88-.06,1.32-.03.37-.1.74-.15,1.11-.04.32-.1.64-.12.96-.03.39-.01.79-.03,1.18-.05,1.13-.02,2.27-.27,3.39-.12.54-.14,1.09-.21,1.64,0,.06.02.12.03.17.22-.06.43-.11.66-.17-.26.25-.48.48-.73.72,0,0,.04.07.04.07-.09.12-.17.18-.19.26-.08.35-.14.71-.21,1.06-.1.45-.19.9-.3,1.35-.16.68-.3,1.36-.5,2.02-.22.78-.49,1.55-.74,2.32-.01.04-.03.08,0,.14.03-.05.07-.09.09-.14.29-.73.6-1.44.85-2.18.14-.43.16-.9.26-1.34.07-.32.23-.59.56-.72.04-.02.08-.04.12-.04.18,0,.18,0,.14-.22.08,0,.16,0,.26-.01-.03-.05-.06-.1-.13-.21.11.06.17.08.24.11.02-.05.04-.11.06-.16-.06-.03-.12-.05-.18-.08.01-.02.02-.04.03-.04.16,0,.2-.08.24-.24.05-.17.22-.3.35-.47-.08-.05-.17-.09-.26-.14.13-.02.25-.03.37-.06.15-.04.13-.12.04-.19.06-.11.12-.21.17-.32-.06-.01-.11-.02-.23-.04.09-.04.15-.07.22-.11.01-.12.03-.26.05-.39.02,0,.03,0,.05,0v.37s.03,0,.05,0c.06-.31.13-.62.19-.93.17,0,.41.09.26-.22,0-.02.03-.06.05-.1.2-.48.39-.97.6-1.45.07-.16.17-.31.27-.49-.08-.23-.02-.47.31-.64-.04.12-.09.24-.13.37.01,0,.05.02.07.02-.05.2-.1.41-.16.6-.19.62-.37,1.24-.57,1.86-.09.26-.21.51-.33.76-.14.28-.33.55-.45.84-.29.66-.55,1.34-.85,2-.36.83-.47,1.72-.7,2.58-.25.9-.62,1.75-1.04,2.58-.31.61-.51,1.27-.72,1.92-.05.15-.19.28-.22.43-.05.24-.08.5-.07.75,0,.27-.24.71-.47.83-.12.06-.23-.04-.22-.21Z"/>
      <path class="cls-1" d="M51.46,34.23c.07-.15.16-.26.18-.38.08-.54.12-1.07,0-1.61-.07-.32-.03-.66-.05-.99-.03-.51-.1-1.02-.1-1.53,0-.54.07-1.09.11-1.63.01-.2,0-.41,0-.61,0-.3.03-.61-.01-.91-.04-.28-.05-.54,0-.82.05-.26,0-.5-.17-.72-.12-.15-.08-.31-.03-.48.06-.22.08-.46.12-.69,0-.05.04-.1.07-.17.29.13.38.4.46.65.09.32.17.64.21.97.03.26-.03.53-.03.8-.02.58-.04,1.15-.03,1.73,0,.32.1.63.15.95,0,.03.01.06.01.08-.02.43-.08.86-.06,1.28.02.5.09,1,.16,1.5.02.13.1.26.13.39.03.1.05.22.04.32-.03.87-.05,1.74-.1,2.6-.03.53-.09,1.05-.14,1.58-.1,1.01-.2,2.02-.31,3.03-.02.16-.06.32-.08.48-.04.28-.08.57-.1.85-.03.46-.03.91-.06,1.37,0,.13-.04.25-.05.39-.1.13-.2.25-.16.47.03.15-.06.33-.1.49-.04.13-.11.25-.14.38-.03.16-.03.33-.05.49-.01.07-.07.14-.11.22,0,0,.05.03.09.05-.24.34-.15.75-.27,1.12-.02-.02-.05-.04-.07-.06-.04.11-.07.23-.11.34,0,0-.02,0-.03,0-.02.06-.03.12-.05.18h-.02c-.05.12-.11.23-.16.34-.04.11-.07.22-.09.34-.02.12-.03.24-.04.38-.04,0-.09.01-.18.02.05.04.09.07.1.08-.04.11-.07.22-.1.33-.02,0-.06,0-.04,0-.08.24-.15.45-.22.66,0,0,0,0-.01-.01-.01.13,0,.27-.04.4-.09.3-.19.6-.3.89-.03.08-.11.14-.15.22-.18.31-.37.62-.54.93-.37.64-.77,1.26-1.09,1.93-.36.75-.65,1.54-.96,2.32-.28.7-.55,1.41-.85,2.1-.24.56-.5,1.12-.77,1.67-.24.49-.54.95-.77,1.45-.16.34-.27.71-.39,1.08-.06.18-.2.32-.18.56.02.21-.17.26-.5.2.04-.09.1-.16.12-.25.04-.13.06-.26.09-.39,0-.02,0-.03,0-.05.16-.41.32-.81.47-1.22.08-.22.13-.45.21-.66.11-.28.24-.56.34-.85.05-.15.06-.31.1-.51.25-.1.35-.31.32-.62-.01-.13.11-.27.15-.37.05-.44.38-.76.44-1.15.07-.46.41-.8.46-1.27.36-.03.13-.52.47-.61-.09-.04-.14-.07-.17-.09.06-.13.12-.24.17-.36.17-.35.34-.7.49-1.06.1-.25.16-.53.26-.79.1-.29.22-.57.34-.85.16-.39.3-.79.47-1.18.26-.6.55-1.19.81-1.79.16-.36.32-.73.45-1.11.2-.58.39-1.16.56-1.75.13-.45.25-.91.35-1.38.14-.66.25-1.33.39-2,.03-.14.12-.28.19-.44,0-.19-.02-.42,0-.64.07-.52.17-1.03.23-1.55.05-.38.04-.77.08-1.16.02-.16.11-.31.12-.46.02-.25,0-.5.02-.74.02-.48.07-.96.08-1.44,0-.31.1-.61,0-.92-.03-.1.18-.25-.05-.31Z"/>
      <path class="cls-1" d="M20.76,47.81c-.09.13-.18.26-.27.39-.14.19-.25.42-.42.56-.15.12-.24.21-.23.39-.05.13-.1.27-.16.4-.14.28-.28.56-.44.82-.18.3-.4.57-.46.94-.01.1-.13.18-.21.3,0,0,.03.04.04.07-.09.06-.18.12-.31.21.13.04.19.05.27.07-.11.08-.19.14-.25.19.04.07.07.13.1.19-.02.01-.03.03-.05.04-.02-.06-.04-.11-.06-.15-.25.1.1.5-.35.47.02.08.03.18.04.23-.09.09-.17.17-.25.25.05.04.11.09.12.1-.02.07-.05.14-.08.22-.03.08-.06.17-.09.28.12.16.03.37-.31.62.04.05.08.11.12.16,0,0,0,.03-.02.03-.26.11-.2.39-.28.59-.11.27-.18.56-.25.84-.08.32-.15.65-.23.97-.06.23-.14.45-.18.68-.05.31-.05.62-.1.93-.06.36-.06.75-.27,1.08-.04.06.03.18.06.3-.03.02-.08.06-.13.1.08.16.1.28-.03.47-.09.13-.02.38-.02.61,0,0-.03.02-.08.04.05.16.21.32,0,.47-.02.01.02.1.04.15.04.09.08.18.07.29-.04-.04-.08-.07-.14-.13,0,.17-.03.31,0,.44.11.37-.02.71-.08,1.05-.09.48-.17.95-.26,1.43-.11.61-.23,1.22-.31,1.84-.08.55-.13,1.11-.16,1.67-.01.27.04.55.1.82.09.43-.05.82-.18,1.22-.06.17-.07.35-.12.52-.02.09-.07.17-.11.27.02.07.04.18.06.28-.09-.06-.17-.09-.22-.15-.03-.05-.05-.16-.02-.19.12-.11.24-.2.05-.35,0,0,.03-.08.04-.11-.25-.18-.36-.43-.4-.73-.04-.4-.1-.8-.14-1.2,0-.06.01-.17.05-.18.22-.1.05-.31.14-.44-.04-.02-.07-.04-.12-.06.04-.09.09-.17.13-.27-.06-.01-.11-.02-.16-.03,0-.02,0-.04,0-.04.19-.19.13-.43.15-.65.01-.12-.02-.25,0-.38.08-.43.19-.84.25-1.27.1-.72.38-1.39.53-2.1.09-.42.21-.84.28-1.26.09-.6.14-1.2.22-1.8.07-.5.15-1,.24-1.49.05-.26.18-.52.17-.78-.02-.4.06-.77.12-1.16.04-.25.02-.51.08-.75.13-.5.27-.99.44-1.47.16-.46.37-.91.55-1.37.12-.31.22-.63.33-.95.16-.44.34-.87.51-1.3.14-.38.28-.75.41-1.13.38-1.15.73-2.31,1.14-3.45.11-.31.37-.56.56-.85.4-.61.84-1.2,1.19-1.84.25-.45.39-.96.58-1.45.29-.74.59-1.47.87-2.22.08-.2.06-.44.16-.64.21-.43.29-.89.42-1.34.09-.31.17-.63.24-.95.09-.37.21-.75.22-1.12.01-.28.17-.54.15-.79-.03-.3.13-.58.07-.88-.01-.05.1-.16.18-.19.14-.05.14.06.13.17,0,.15,0,.31,0,.48.07-.01.13-.02.2-.03v.3c-.07,0-.14-.01-.21-.02-.04.5-.08.99-.1,1.49,0,.06.06.12.09.18.02,0,.04-.01.06-.02.01-.1.02-.21.03-.31.02,0,.03,0,.05,0,0,.07.02.13,0,.2-.11.48-.24.97-.35,1.45-.01.04-.01.1,0,.14.08.25.08.48,0,.74-.07.2-.09.42-.09.63-.01.56-.25,1.05-.43,1.56-.19.56-.37,1.12-.58,1.67-.07.18-.19.34-.28.52-.1.2-.18.41-.28.61-.36.76-.72,1.52-1.1,2.27-.1.2-.17.41-.32.59-.14.17-.19.43-.27.65-.04.12-.07.25-.1.36Z"/>
      <path class="cls-1" d="M50.53,12.61c.05-.08.09-.16.13-.23-.17-.2-.22-.41-.22-.67,0-.37-.05-.75-.09-1.12-.02-.18.03-.36-.09-.54-.07-.11.01-.31-.01-.47-.05-.31-.14-.61-.18-.91-.03-.3-.01-.61-.01-.92,0-.1,0-.18-.07-.29-.09-.12-.07-.33-.1-.49-.02-.13-.05-.25-.07-.38-.04-.31-.08-.62-.13-.98-.13-.07-.14-.26-.14-.46,0-.16-.09-.33-.06-.48.07-.27-.18-.41-.19-.66,0-.17-.12-.37-.25-.48-.14-.12-.36-.21-.55-.23-.64-.06-1.28-.13-1.92-.12-.56.01-1.12.1-1.68.2-.68.12-1.36.24-2.06.23-.57,0-1.13.01-1.7,0-.17,0-.34-.08-.51-.08-.58,0-1.16.04-1.73.03-.25,0-.5-.1-.76-.15-.04,0-.08-.02-.12,0-.62.18-1.25-.02-1.87.09-.3.05-.59.08-.89.12-.04,0-.08.03-.12.02-.36-.15-.69.03-1.03.07-.3.04-.57-.01-.81-.18-.08-.05-.16-.17-.16-.25,0-.06.12-.14.21-.17.86-.3,1.76-.38,2.65-.48,1.2-.13,2.41-.18,3.62-.11.82.05,1.65.05,2.48.08.58.02,1.15.03,1.73.04.1,0,.2-.05.29-.07.2-.03.39-.06.6-.09-.03-.02-.08-.04-.13-.07.03,0,.06,0,.08,0,.58.1,1.16-.02,1.74,0,.1,0,.22-.03.31,0,.49.18.97-.01,1.45-.05.44-.04.44-.04.67.31.06.09.17.15.27.2.07.03.17.03.25.03q.57.04.77.57s.06.09.11.13c.2.16.31.6.17.79-.23.3-.1.62-.09.93,0,.15.03.29.16.42.07.07.01.25.03.38.09.61.19,1.22.28,1.82.12.76.26,1.53.36,2.29.06.51.04,1.03.08,1.55.03.42.1.84.13,1.27.03.35.02.71.05,1.06.03.48.07.96.12,1.43.03.27.13.53.17.8.02.14-.03.29-.03.44,0,.36-.02.72.03,1.06.04.25.15.5.28.71.14.23.16.47.19.71.05.38.09.76.13,1.14,0,.04-.01.09-.02.14-.44-.15-.26-.65-.54-.86-.03.03-.07.09-.12.14-.03-.06-.07-.12-.09-.18-.02-.05-.04-.1-.04-.16,0-.07.01-.13.01-.15-.05-.12-.14-.22-.12-.3.07-.27-.18-.43-.2-.67-.02-.18-.06-.35-.08-.53-.04-.33-.06-.66-.09-.98-.02-.23-.04-.46-.07-.69-.02-.19-.05-.38-.06-.56-.01-.17,0-.32.2-.39-.08-.19-.16-.39-.25-.58-.02,0-.05,0-.07.01.04-.06.08-.13.12-.19-.22-.22-.24-.37-.1-.66-.06.01-.11.02-.16.03.02-.17.04-.35.05-.52,0-.04-.04-.09-.06-.13-.02-.06-.06-.15-.04-.18.13-.16.04-.27-.07-.38ZM38.83,2.83h-1.79s0,.06,0,.09c.05,0,.11.02.16.02.22,0,.45-.05.66-.01.61.12,1.22.1,1.84.09.05,0,.09-.05.14-.07-.04-.04-.07-.1-.12-.12-.04-.02-.11,0-.16,0-.22-.06-.51.11-.64-.22,0,0-.03,0-.06,0,0,.06-.02.11-.03.21ZM42.06,3s0-.06,0-.08c-.3-.07-.61-.2-.9-.18-.38.02-.74.17-1.13.1-.03,0-.08.05-.12.08.04.03.07.09.11.1.11.02.22.04.33.04.41,0,.82,0,1.23-.02.17,0,.33-.03.5-.04ZM42.93,3.27s0,.05,0,.08l.65.06s0-.06,0-.09c-.22-.02-.44-.03-.65-.05Z"/>
      <path class="cls-1" d="M1.96,12.84c-.06.03-.13.07-.22.12.28.14.04.29.02.43-.02.15.13.34-.07.44.03.05.07.1.07.15-.02.45-.05.9-.07,1.35-.01.22,0,.43-.02.65-.02.27-.09.54-.07.81.03.32-.01.63-.02.95,0,.06-.04.12-.04.16.01.15.08.33.02.45-.12.29-.14.57-.09.87.02.12-.03.24-.04.36-.06.82-.12,1.63-.16,2.45-.04.84-.07,1.68-.1,2.53-.01.29-.04.57-.06.86,0,.12.08.28.03.37-.12.19.03.36,0,.55-.04.2-.03.41-.04.62,0,.26,0,.52,0,.78,0,.06-.07.12-.09.14.04.08.09.14.1.21.02.5.04.99.06,1.49.02.42.04.83.06,1.25.02.61.02,1.23.06,1.84.02.22-.08.41-.07.6,0,.28.12.55.18.82.03.12.07.24.11.36-.02,0-.04,0-.06.01.06.07.11.14.18.22-.2.12-.33.31-.59.17-.17-.09-.25-.21-.26-.39-.01-.18-.04-.36-.08-.54-.08-.46.07-.94-.16-1.39-.07-.14-.06-.34-.06-.51,0-.45.02-.91.02-1.36,0-.67-.04-1.34-.03-2,0-.66.05-1.32.08-1.98.01-.34.03-.68.05-1.02.05-.74.1-1.49.15-2.23.03-.52.08-1.04.1-1.56.02-.56.02-1.13.05-1.69.01-.27.06-.54.08-.8.03-.37.06-.75.09-1.12.01-.18.04-.36.05-.54.04-.36.08-.72.11-1.07.05-.59.09-1.18.12-1.76.05-.8.08-1.6.14-2.4.04-.53.12-1.06.17-1.59.08-.87.16-1.73.24-2.6.03-.33.03-.67.07-1,.04-.28.12-.56.21-.84.03-.07.16-.11.3-.19-.04.21-.07.35-.1.49-.04.25-.09.49-.12.74-.08.7-.16,1.39-.23,2.09-.02.23,0,.46,0,.68-.03.46-.09.92-.12,1.38-.03.33-.05.65-.05.98,0,.07.07.14.12.24Z"/>
      <path class="cls-1" d="M32.02,16.77c.22.14.11.29.05.48-.05.15-.01.33-.03.5,0,.08-.05.15-.03.21,0,.16,0,.33,0,.49,0,.1,0,.2,0,.29,0,.08-.02.16-.03.27.27.03.11.29.1.41-.06.51-.17,1.01-.27,1.52-.13-.08-.29-.13-.37-.23-.39-.56-.58-1.16-.27-1.82.17-.36.18-.76.24-1.14.03-.2.07-.41.09-.61.01-.16.02-.32-.02-.47-.03-.11,0-.19.02-.3.04-.2.03-.42.04-.63.01-.24.02-.48.03-.72,0-.26.01-.52.02-.78,0-.28.04-.56,0-.84-.1-.77.12-1.5.18-2.25.04-.48.07-.97.11-1.45.03-.35.07-.7.11-1.05.02-.25.02-.5.06-.74.03-.18.1-.35.14-.53.02-.08.03-.17.04-.26,0-.13,0-.26.01-.39,0-.07.02-.14.03-.25,0,0,.06-.02.07-.02-.04-.17-.13-.34-.1-.49.15-.69.33-1.36.51-2.04.03-.11.12-.2.18-.31.04.01.07.02.11.03-.03.12-.04.25-.08.37-.05.17-.14.33-.16.5-.07.45-.12.91-.18,1.36-.01.12,0,.25-.02.38-.04.32-.01.63-.14.95-.12.31-.06.7-.07,1.06,0,.2,0,.41,0,.61-.01.46-.02.93-.04,1.39-.02.4-.1.8-.08,1.19.01.2-.06.36-.07.54-.04.59-.02,1.17-.03,1.76,0,.4,0,.79,0,1.19,0,.22-.06.43-.08.65,0,.03,0,.06,0,.09,0,.29.02.58.02.87,0,.06-.05.12-.09.19Z"/>
      <path class="cls-1" d="M8.95,33.54s-.07-.06-.09-.08c.05-.22.1-.41.14-.57-.04-.05-.12-.09-.12-.14,0-.39.03-.78-.01-1.17-.05-.48.09-.95-.02-1.42-.04-.19.12-.44.04-.59-.08-.14.11-.31-.09-.4-.02,0-.01-.09-.01-.14,0-.54,0-1.08.02-1.61.02-.57.06-1.13.09-1.7.04-.68.07-1.35.11-2.03.02-.4.07-.49.38-.77-.04.78-.09,1.52-.11,2.27-.02.75-.02,1.51-.04,2.26-.02.73-.01,1.46-.02,2.19-.01.73.06,1.47-.06,2.36.02.21.05.58.07.95.06.78.12,1.55.18,2.33.04.55.04,1.1.12,1.64.08.61.25,1.21.34,1.82.08.61.26,1.19.39,1.78.09.39.1.8.15,1.2.02.14.09.27.12.41.04.16.05.33.08.49.03.15.07.31.09.46.03.25.04.51.07.76.02.18.06.37.1.55.06.25.15.49.2.74.04.18,0,.37.04.55.02.11.14.22-.05.27-.1-.07-.19-.13-.29-.2,0-.11.28-.25-.04-.33.06-.38-.01-.59-.26-.65.17-.34.07-.68,0-1.01-.1-.47-.19-.93-.3-1.4-.04-.16-.14-.31-.16-.46-.04-.34-.05-.68-.07-1.01,0-.03,0-.06-.01-.09-.24-.52-.27-1.07-.34-1.62-.03-.24-.12-.47-.17-.7-.04-.23-.06-.46-.1-.69-.03-.16-.08-.31-.1-.47-.03-.21-.04-.42-.05-.63,0-.01.02-.03.02-.04-.05-.15-.02-.28.02-.43.04-.12-.08-.29-.13-.43-.02-.07-.08-.13-.08-.19-.04-.55-.07-1.1-.1-1.65,0-.12.02-.25.04-.43Z"/>
      <path class="cls-1" d="M41.79,70.39c.06-.03.13-.07.16-.08-.04-.28-.07-.55-.11-.82,0-.03,0-.07.02-.09.18-.18.07-.42.13-.63.05-.19.1-.38.13-.57.02-.08.01-.16.02-.25,0-.09.01-.19.06-.28-.02-.11-.13-.23.06-.33,0,0,0-.04,0-.07-.07-.49.26-.91.24-1.39,0-.07.04-.15.08-.25-.07.05-.11.07-.16.1-.01-.01-.02-.02-.03-.03.04-.04.08-.09.11-.13.05-.07.12-.14.13-.22.02-.13-.03-.37,0-.37.18-.05.09-.23.17-.31,0,0-.05-.07-.07-.11.12-.12.28-.23.08-.4.04-.06.1-.11.12-.17.08-.23.13-.46.21-.69.03-.1-.02-.27.18-.26-.01-.05-.02-.1-.03-.15.09-.01.16-.02.18-.02,0-.15-.02-.27,0-.37.03-.11.09-.26.3-.14-.07.25-.14.52-.22.79-.05.19-.13.37-.16.57-.03.2-.11.3-.37.28.12.1.19.16.28.23-.3.43-.33.94-.42,1.42-.02.1-.09.19-.1.28-.03.19-.05.37-.09.56-.05.3-.12.59-.17.89-.02.1-.04.21-.05.31-.02,0-.04,0-.07,0,.03.06.07.12.08.15-.05.14-.09.25-.14.38.03.02.07.05.13.08-.02.05-.04.1-.07.14-.14.14-.17.29-.09.47.02.05.04.11.02.15-.13.26-.06.54-.11.81-.06.32-.08.63-.03.95,0,.02,0,.05-.01.07-.38.66-.11,1.38-.23,2.07-.01.08-.03.18-.01.26.03.19.05.36-.24.33.14.23.25.4.19.67-.06.27-.1.55-.04.84.02.11-.06.24-.11.41.11.11.14.29.06.51-.03.09.03.22.02.32-.01.08.09.22-.09.23.02.06.02.12.05.16.06.09.11.16-.04.21-.02,0-.05.08-.04.1.05.09.11.17.2.29-.13-.03-.21-.05-.3-.07.02-2.27-.09-4.55.23-6.84Z"/>
      <path class="cls-1" d="M22.14,35.15c.04-.08.08-.16.11-.24.07-.2.15-.39.2-.59.04-.18.04-.36.05-.54.01-.23.04-.47.03-.7-.03-.59-.08-1.17-.11-1.75-.01-.27-.01-.55-.01-.82,0-.34,0-.69-.02-1.03,0-.07-.08-.13-.14-.21.03-.05.08-.12.13-.2-.05-.01-.09-.03-.1-.03v-.86c-.2-.11.03-.26.04-.42.02.04.06.08.06.12.05.75.09,1.5.16,2.25.1,1.02.22,2.04.34,3.06.02.17.08.33.07.5,0,.18-.07.36-.12.54-.23.87-.47,1.73-.7,2.6-.19.73-.38,1.46-.58,2.18-.06.23-.16.45-.21.6-.11.07-.18.12-.31.2-.01-.15-.07-.3-.03-.42.17-.54.37-1.07.53-1.61.13-.41.23-.83.33-1.25.09-.38.17-.77.25-1.16.01-.06-.03-.13-.04-.2.02,0,.05,0,.07,0Z"/>
      <path class="cls-1" d="M49.61,41.48c-.12,0-.21-.02-.34-.02.07-.04.11-.07.18-.11-.07-.05-.12-.08-.16-.11.06-.11.11-.21.17-.33.04,0,.1,0,.17.01-.02-.02-.03-.04-.04-.05-.14-.04-.17-.11-.09-.25.1-.18.02-.43.25-.55-.1-.17.02-.32.05-.48.08-.44.2-.88.28-1.32.06-.3.07-.6.12-.9.02-.15.07-.3.13-.45.01-.03.11-.03.18-.04-.03-.09-.35-.11-.07-.3.06-.04-.03-.33-.06-.52.02,0,.07-.02.07-.02.05-.36.1-.67.13-1,.03-.27.02-.55.04-.82.01-.23.04-.45.05-.67.02-.29.04-.57.05-.86,0-.06-.04-.13-.06-.22,0,0,.08-.06.07-.08-.08-.2.06-.4-.02-.6-.03-.07-.07-.14-.1-.18.03-.08.08-.15.1-.24.08-.5-.06-1.01-.04-1.51.03-.99.11-1.98.18-2.98,0-.04.03-.08.09-.1-.01.22-.03.43-.03.65,0,1.55,0,3.11,0,4.66,0,.84-.01,1.69-.06,2.53-.04.77-.13,1.53-.21,2.3-.17,1.46-.55,2.88-.94,4.29-.02.08-.03.17-.05.26Z"/>
      <path class="cls-1" d="M16.12,31.14c.16.11.13.27.13.44-.02.39.01.79,0,1.18,0,.85-.03,1.69-.04,2.54,0,.4.02.8.02,1.19,0,.57-.04,1.14-.05,1.7,0,.34.03.69.02,1.03,0,.29-.04.58-.06.86-.01.24.01.48-.01.72-.08.77-.18,1.54-.26,2.31-.06.58-.12,1.17-.18,1.75,0,.03-.02.05-.03.08-.02,0-.04,0-.07,0,0-.2,0-.39,0-.59.01-.27.03-.54.05-.8.01-.16.04-.32.05-.49.02-.36.02-.72.03-1.08.02-.59.04-1.18.06-1.77,0-.05-.03-.1-.04-.11.02-.24.05-.45.06-.65,0-.09-.01-.19,0-.29.02-.51.04-1.01.07-1.52.02-.36.04-.73.04-1.09,0-.22-.07-.44-.03-.65.09-.41.04-.83.08-1.24,0-.04.05-.09.05-.08.01-.12.03-.22.03-.32,0-.06-.04-.13-.03-.19,0-.29,0-.57.02-.86.01-.24.06-.48.07-.72,0-.17-.04-.35-.04-.53,0-.29.04-.57.06-.86h0Z"/>
      <path class="cls-1" d="M40.67,76.55c-.08,0-.16.01-.18.01-.03-.12-.06-.19-.07-.26-.01-.12,0-.23-.02-.35-.04-.43-.03-.88-.15-1.29-.05-.19.04-.34-.01-.5-.02-.07-.05-.13-.08-.2.11-.08.1-.07-.02-.18-.02-.02-.02-.05-.03-.08.02,0,.05.01.07,0,.04-.02.11-.05.11-.07-.02-.08-.06-.15-.09-.21.02,0,.06,0,.1-.02-.03-.05-.06-.1-.08-.16.03-.02.06-.03.07-.04-.03-.06-.07-.11-.07-.17-.01-.39,0-.78-.02-1.17,0-.14-.07-.27-.09-.41,0-.1.02-.21.04-.35-.03-.13-.11-.32-.1-.5.07-.76-.07-1.51-.1-2.26,0-.22-.07-.44-.1-.65-.01-.13.02-.27,0-.4-.02-.19-.06-.38-.1-.59.24.06.15.27.18.4.09.4.15.8.2,1.2.04.29.06.57.08.86.05.72.1,1.44.15,2.16.02.34.04.69.05,1.03.02.41.03.82.05,1.23.02.45.02.89.05,1.34.02.31.07.62.09.93.02.23.03.46.04.7h0Z"/>
      <path class="cls-1" d="M16.13,31.15c0-.58,0-1.16,0-1.74,0-.54-.01-1.09,0-1.63,0-.18.07-.35.08-.53.02-.22.03-.45.01-.68,0-.07-.13-.14-.14-.22-.04-.21-.06-.43-.08-.64-.01-.12-.02-.25-.03-.39.04,0,.09,0,.09,0-.02-.25-.05-.49-.06-.74-.01-.48-.02-.96-.02-1.44,0-.13.03-.26.05-.39,0,0,0,0,0,0,.04.04.1.07.1.11.05.74.09,1.49.12,2.23.03.79.05,1.58.06,2.37,0,.57,0,1.15,0,1.73-.01.55-.04,1.09-.06,1.63,0,.08.02.17.03.27-.05.01-.1.03-.16.04,0,0,0,0,0,0Z"/>
      <path class="cls-1" d="M2.25,6.25c0-.18-.02-.31,0-.44.02-.1.1-.19.16-.29-.1-.09-.07-.3.12-.5-.14-.08-.22-.17-.05-.31.03-.03,0-.12,0-.18.04-.71.23-1.39.55-2.02.06-.12.15-.22.28-.3-.06.29-.11.57-.17.86-.08.36-.16.71-.23,1.07-.1.5-.18,1.01-.29,1.51-.03.13-.16.24-.23.36-.02.03,0,.09-.03.13-.03.05-.07.09-.11.13Z"/>
      <path class="cls-1" d="M21.54,16.23c-.19.02-.32-.05-.27-.17.07-.19-.03-.34-.04-.51-.02-.22-.02-.44-.02-.65,0-.18,0-.36,0-.54.08.02.13.03.12.03,0-.26,0-.51,0-.77,0-.18,0-.36-.01-.54,0-.03-.02-.07,0-.09.23-.26.1-.57.13-.85,0-.05.04-.1.1-.13v4.04s-.09,0-.18-.02c.08.09.13.14.18.2Z"/>
      <path class="cls-1" d="M40.63,86.31c.19.2,0,.32-.1.45.21.16.25.49.09.68.17.26.17.46,0,.71.18.1.11.2-.03.28.05.07.1.12.17.21-.09.01-.15.02-.22.03.05.15.27.32-.04.44.07.04.11.06.18.1-.16.08-.27.1-.34-.05-.02-.04.03-.1.05-.16-.03-.19-.17-.45-.1-.63.15-.34.07-.71.18-1.06.01,0-.05-.02-.05-.05,0-.17,0-.34.01-.51,0-.01.02-.03.02-.04-.16-.23,0-.33.18-.41h0Z"/>
      <path class="cls-1" d="M40.43,81.99c.13-.04.24-.05.24.14,0,.5,0,1.01-.01,1.51,0,.04-.02.07-.09.15-.08-.11-.16-.21-.25-.32.03,0,.05-.01.08-.02,0-.14-.01-.27,0-.41,0-.08.04-.16.06-.23l.11-.04-.21-.09.02-.04s.1-.01.17-.02c-.07-.18.04-.41-.17-.54.02-.03.05-.06.07-.09,0,0-.02,0-.02,0Z"/>
      <path class="cls-1" d="M41.71,80.86s-.07-.02-.12-.04c.03-.07.07-.14.1-.22-.22-.13-.25-.93-.06-1.07-.03-.08-.08-.14-.08-.21,0-.07.04-.15.09-.21.06.3.12.57.07.88-.04.25.12.55,0,.86Z"/>
      <path class="cls-1" d="M40.45,78.94c.09-.08.17-.14.26-.21-.5-.28-.21-.59-.04-.88v.59s.13.29.08.38c-.03.04-.08.09-.08.14,0,.06.01.13.02.19-.08-.06-.16-.12-.24-.18,0,0,0-.01,0-.02Z"/>
      <path class="cls-1" d="M40.7,79.31c0,.08,0,.16,0,.24-.02.15-.13.29,0,.45.03.04.06.25-.15.22-.02,0-.07.05-.07.07.02.05.07.08.09.13.03.1.07.2.06.31,0,.03-.11.06-.18.09,0-.3,0-.56-.02-.81,0-.12-.04-.24.13-.27.02,0,.06-.09.04-.12-.02-.03-.08-.04-.1-.05.06-.08.12-.17.19-.26Z"/>
      <path class="cls-1" d="M41.77,85.17c-.05-.02-.14-.05-.14-.07,0-.22.03-.43.04-.65,0-.09-.03-.19-.04-.28.07,0,.15.01.24.02v.84s-.06.09-.09.14Z"/>
      <path class="cls-1" d="M40.66,76.55v1.08c-.29-.03-.31-.06-.21-.29.02-.05,0-.12,0-.17,0-.08.03-.16.07-.24-.09-.08-.29-.17.03-.25.04-.01.07-.08.11-.12,0,0,0,0,0,0Z"/>
      <path class="cls-1" d="M40.44,84.46l.27.24s-.05.02-.07.02c.01.15.03.3.04.46-.21.05-.33.04-.27-.23.02-.09-.06-.21-.1-.32.02-.01.04-.02.06-.04.06.05.12.1.18.15.01,0,.02,0,.03-.01-.05-.1-.09-.19-.14-.29h0Z"/>
      <path class="cls-1" d="M42,87.18s-.07-.09-.12-.17c-.03.11-.05.18-.06.26-.02,0-.05,0-.07,0,.01-.18.03-.35.04-.53,0-.19,0-.38.02-.59.08.34.17.67.25,1.01-.02,0-.03.02-.05.03Z"/>
      <path class="cls-1" d="M41.6,81.19c.08.05.15.09.22.13-.02.01-.05.02-.08.04.01.11.03.22.03.33,0,.13-.04.24-.24.2.06-.05.1-.08.09-.07-.02-.13-.04-.22-.04-.32,0-.14,0-.28.01-.42,0-.03.08-.06.13-.07.01,0,.04.07.06.1-.04.02-.09.04-.19.08Z"/>
      <path class="cls-1" d="M40.45,85.29c.1.08.18.14.27.21-.15.15-.13.3.04.44-.02.02-.03.03-.05.05-.07-.04-.17-.07-.21-.14-.13-.17-.09-.36-.04-.56Z"/>
      <path class="cls-1" d="M40.43,81.99s.02,0,.02,0c.01-.09.03-.18.04-.28-.06-.03-.14-.07-.21-.1.1-.08.18-.15.27-.23.19.12.19.36,0,.49-.04.03-.07.08-.1.13Z"/>
      <path class="cls-1" d="M41.54,82.03c.08-.02.14-.03.16-.03.04.27.07.54.11.81-.29-.19-.17-.5-.27-.78Z"/>
      <path class="cls-1" d="M40.45,84.45s-.1-.03-.1-.05c.01-.21.03-.43.05-.69.09.11.17.18.21.27.04.11.09.24-.09.31-.04.01-.05.1-.08.16,0,0,0,0,0,0Z"/>
      <path class="cls-1" d="M39.86,65.61c.04.21.08.41.12.62-.03.01-.06.03-.09.04-.06-.08-.12-.16-.16-.24,0,0,.06-.06.07-.07-.04-.12-.09-.24-.14-.39.11.02.15.03.2.04,0,0,0,0,0,0Z"/>
      <path class="cls-1" d="M41.77,85.17s.06-.09.09-.14c.02.05.05.1.04.15-.02.19-.05.38-.08.59-.15-.19-.17-.39-.05-.6Z"/>
      <path class="cls-1" d="M17.4,104.66s-.08.04-.15.08c.07.05.12.09.17.14.03.03.05.08.08.12-.05,0-.11.04-.15.02-.1-.05-.2-.12-.3-.18,0-.03.02-.05.03-.08.1-.05.2-.09.29-.14,0,.01.01.03.02.04Z"/>
      <path class="cls-1" d="M41.26,92.99c-.03-.24-.05-.47-.09-.74.09.02.14.03.16.04-.02.25-.04.47-.06.7,0,0-.01,0-.02,0Z"/>
      <path class="cls-1" d="M40.63,86.3c-.25-.01-.3-.1-.19-.34.19.04.17.2.18.34,0,0,0,0,0,0Z"/>
      <path class="cls-1" d="M40.63,81.28c-.06-.03-.12-.06-.19-.09,0-.09,0-.17-.01-.26.01,0,.03-.02.04-.03.08.1.16.2.23.31-.02.02-.05.04-.07.06Z"/>
      <path class="cls-1" d="M21.35,16.32s.11.01.18.02c.01.17.03.33.04.49h-.03c-.06-.16-.13-.33-.19-.51Z"/>
      <path class="cls-1" d="M41.56,77.84v-.39c.18.16.25.27,0,.39Z"/>
      <path class="cls-1" d="M36.67,29.17c.06.04.11.06.16.09,0,.03,0,.05-.01.08-.12,0-.29.03-.33-.03-.06-.08-.03-.24-.04-.35-.14-.06-.29-.14-.43-.2-.04.1-.12.22-.09.3.04.15-.02.28,0,.42.03.17.04.34.04.52,0,.21,0,.41,0,.65,0,.06.03.16.04.26,0,.13.02.27,0,.4,0,.14-.04.28-.06.43,0,.04-.02.09,0,.11.18.19.04.36-.08.57.1-.05.15-.07.2-.09.01.02.03.04.03.05-.03.14-.17.27.02.4.02.01.02.07,0,.09-.15.31,0,.63-.05.95-.03.22.08.46.1.69.02.19,0,.38,0,.56,0,.06.05.11.06.17.01.08,0,.17.02.25.02.09.05.17.09.3-.11.13-.11.31.07.47-.15.22-.13.29.08.43.04.29.06.53.11.76.06.31.13.63.2.94.02.1.04.2.06.3.06.35.12.71.2,1.06.07.28.16.56.22.85.02.09.04.19.07.28.11.45.2.9.32,1.35.12.45.29.88.4,1.33.07.29.29.49.37.76.03.12.02.25.06.35.08.2.18.39.25.6.12.35.22.71.34,1.06.18.51.35,1.03.58,1.52.31.65.71,1.26,1.01,1.92.36.78.65,1.59.96,2.39.09.22.13.47.2.7.02.05.07.09.11.13.25.23.27.67.06.93-.12.14-.26.11-.35.03-.28-.25-.55-.51-.81-.78-.15-.16-.41-.2-.57-.05-.17.17-.38.17-.55,0-.27-.28-.51-.55-.53-1-.01-.29-.2-.58-.31-.87-.07-.18-.17-.35-.06-.55.05-.09.06-.19.1-.29.2-.46-.06-.85-.19-1.26-.02-.06-.09-.09-.11-.15-.03-.07-.05-.14-.08-.21-.02-.04-.08-.09-.07-.11.07-.11.06-.2-.01-.3-.01-.01.05-.08.07-.11-.09-.07-.18-.15-.27-.23.02-.02.04-.05.06-.07.03,0,.07,0,.16.02-.07-.07-.11-.1-.14-.14-.02-.05-.02-.11-.04-.16-.08-.15-.16-.3-.23-.43.06-.1.12-.22.19-.33-.35-.05-.3-.37-.38-.62v.14c-.11-.2-.2-.36-.3-.55.02-.02.06-.06.11-.11-.1-.19-.24-.38-.28-.58-.04-.23-.2-.45-.11-.71.02-.07-.03-.17-.06-.24-.13-.31-.13-.31-.13-.6.09-.03.17-.06.26-.09,0-.02-.01-.05-.02-.07h-.4c.03-.12.06-.24.09-.38-.03-.02-.1-.07-.19-.13.07-.06.12-.11.17-.15-.21-.2-.23-.43-.17-.68.02-.08,0-.17-.03-.25-.03-.09-.09-.17-.13-.26-.09-.17-.18-.34.03-.5-.06.01-.12.03-.18.04-.04-.28-.08-.55-.12-.85.03,0,.1-.01.17-.03,0,0,0-.02,0-.02-.1-.02-.2-.03-.3-.05,0-.01,0-.03,0-.04.06-.01.11-.03.24-.06-.43-.16-.38-.46-.31-.76-.32,0-.37-.06-.31-.36.02-.09-.01-.18,0-.28,0-.26.01-.26.21-.4-.04,0-.09.02-.12,0-.06-.04-.15-.13-.14-.13.07-.1.07-.17-.03-.24.03-.04.05-.1.1-.13.06-.03.13-.03.19-.05,0-.02,0-.04,0-.07-.09,0-.18-.01-.29-.02-.01-.03-.03-.08-.05-.16h.23s0-.03.01-.05c-.05-.02-.11-.02-.14-.06-.06-.06-.14-.14-.15-.21-.02-.26.03-.52-.02-.77-.08-.36-.04-.73-.09-1.09,0-.06.03-.13.05-.2,0-.03.04-.07.03-.08-.17-.25.03-.51-.02-.75-.01-.06-.04-.12-.01-.16.02-.14.09-.3.05-.43-.07-.2-.02-.4-.02-.6,0-.19.03-.19-.14-.23.03-.09.08-.17.09-.26,0-.21.1-.42-.06-.64-.04-.05.07-.22.13-.36-.04-.02-.09-.06-.16-.11.16-.17.16-.36.12-.59-.05-.28,0-.57,0-.86,0-.08-.04-.17-.04-.25.02-.25.06-.5.07-.75,0-.21-.02-.43-.04-.64-.08-.76-.21-1.52-.18-2.3.02-.37-.04-.75-.05-1.12,0-.16.02-.32.04-.48.04-.34.09-.67.14-1.01.01-.08.07-.2.13-.21.09-.01.24.02.28.09.28.44.5.9.52,1.44.03.59.1,1.18.14,1.77.01.22.01.45-.02.67-.06.46.04.89.14,1.33.06.27.06.27-.13.49Z"/>
      <path class="cls-1" d="M43.7,40.12c-.3-.13-.13-.36-.17-.54-.02-.09,0-.18-.03-.27.03-.08.24-.14.01-.26.15-.07-.1-.24.08-.31.02,0,.01-.09,0-.13-.03-.12-.08-.24-.12-.37.02,0,.04,0,.06,0,0-.07,0-.13.01-.2,0-.09.02-.18.02-.28,0-.05,0-.11-.03-.15-.14-.2-.11-.42.1-.58-.12-.08-.2-.15-.08-.32.04-.07-.04-.22-.07-.35.02-.01.06-.04.11-.06,0-.02,0-.05-.01-.05-.14-.06-.11-.17-.11-.29.02-.2-.01-.4-.02-.61,0-.2-.02-.41-.03-.61,0-.23,0-.47.01-.7,0-.11.03-.21.04-.32.01-.15.03-.3.02-.45,0-.2-.03-.41-.04-.61,0-.1.15-.19.03-.31-.05-.05-.07-.14-.12-.24.09-.12.22-.23.06-.44-.08-.11-.03-.33-.03-.5,0-.3.02-.59.01-.89,0-.2-.02-.4-.03-.56.03-.14.07-.24.08-.34.02-.21.02-.41.03-.62.02-.37.04-.73.05-1.1,0-.07-.05-.15-.08-.23.14-.15.16-.56.03-.66.2-.17.22-.38.09-.48,0-.21-.01-.37,0-.54.01-.13.08-.25.07-.38,0-.59,0-1.17.31-1.71.25-.45.23-.47.51-.58-.11.17-.2.29-.27.42-.1.2-.21.4-.26.61-.07.29-.1.59-.14.88,0,.03-.03.07-.02.09.22.44.05.9.05,1.35.01.58.02,1.17.02,1.75,0,.22-.04.45-.05.67-.02.44-.02.88-.04,1.32,0,.28-.03.56-.04.84,0,.18,0,.37,0,.55,0,.7,0,1.39.01,2.09,0,.54.02,1.08.02,1.62,0,.39-.05.78-.02,1.16.07.8.02,1.61.03,2.41,0,.4-.04.81-.06,1.24Z"/>
      <path class="cls-1" d="M35.89,48.02c-.03-.2-.06-.36-.09-.52-.03-.21-.03-.42-.08-.62-.03-.14-.14-.26-.19-.37.02-.17.05-.35.07-.56-.02,0,.05-.01.06.01.07.16.22.28.1.51-.06.1.06.31.12.46.04.1.13.19.2.29-.06,0-.12,0-.22.01.07.11.13.2.19.29-.09.07-.22.13-.03.24.03.02.07.11.05.13-.03.05-.1.07-.18.11Z"/>
      <path class="cls-1" d="M43.59,40.48s.08.03.08.06c0,.81-.13,1.61-.27,2.4h-.11c.1-.82.2-1.63.3-2.46Z"/>
      <path class="cls-1" d="M37.89,28.92c.02.16.06.32.07.48,0,.11-.05.23-.07.34,0,.07,0,.15.01.22.01.26.02.53.03.79,0,.04.01.07.01.11,0,.06,0,.12-.02.18,0,.02-.09.05-.1.03-.04-.04-.1-.1-.09-.15.01-.13-.03-.24.07-.38.09-.14.02-.39.02-.59,0-.34,0-.69,0-1.03.02,0,.05,0,.07,0Z"/>
      <path class="cls-1" d="M34.99,40.94c-.05-.12-.11-.23-.16-.35-.05-.13-.08-.26-.13-.39-.06-.18,0-.32.19-.39.05.37.09.74.14,1.12-.02,0-.03.01-.05.02Z"/>
      <path class="cls-1" d="M38.04,32.79c-.31-.08-.31-.1-.18-.3.05-.07.05-.19.05-.28,0-.16-.03-.31-.05-.47h.1c.03.33.05.67.08,1.05Z"/>
      <path class="cls-1" d="M34.96,39.6c-.05.04-.11.08-.23.17v-.75s.07,0,.1,0c.04.19.09.38.13.59Z"/>
      <path class="cls-1" d="M35.37,45c-.05-.1-.15-.2-.14-.29.01-.1.13-.18.24-.23-.03.15-.06.3-.1.52Z"/>
      <path class="cls-1" d="M35.14,44.35c.33-.17-.12-.26-.02-.42.18.1.27.25.25.46,0,.02-.14.03-.21.04,0-.03-.01-.06-.02-.08Z"/>
      <path class="cls-1" d="M34.56,38.6c.07-.05.14-.11.22-.14.01,0,.07.08.1.12-.08.05-.16.1-.24.15-.03-.04-.06-.08-.09-.12Z"/>
      <path class="cls-1" d="M38.05,33.29c.02.29.03.59.05.88,0,0-.01,0-.02,0-.05-.29-.09-.59-.14-.88h.11Z"/>
      <path class="cls-1" d="M34.88,41.67c.1-.03.17-.06.31-.1-.08.16-.14.26-.2.37h-.06c-.02-.09-.03-.18-.05-.27Z"/>
      <path class="cls-1" d="M35.32,43.56c0,.09-.01.18-.03.27,0,0-.09,0-.14-.01.02-.09.05-.19.07-.28.03,0,.06.01.1.02Z"/>
    </g>
  </g>
</svg>