<?xml version="1.0" encoding="UTF-8"?>
<svg id="Layer_2" data-name="Layer 2" xmlns="http://www.w3.org/2000/svg" viewBox="0 0 58.76 115.13">
  <defs>
    <style>
      .cls-1 {
        fill: #000;
        stroke-width: 0px;
      }
    </style>
  </defs>
  <g id="illustrations">
    <g>
      <path class="cls-1" d="M58.67,22.2c.03-.06.1-.12.09-.18,0-.24-.03-.48-.04-.72,0-.04,0-.08,0-.12,0-.26.05-.53.02-.78-.07-.48-.17-.96-.28-1.43-.05-.23-.1-.47-.21-.66-.22-.38-.38-.76-.47-1.19-.22-1.01-.78-1.85-1.46-2.6-.27-.29-.53-.59-.8-.88-.1-.11-.2-.31-.31-.32-.25-.02-.42-.17-.61-.28-.35-.2-.48-.56-.59-.92-.09-.29-.19-.61-.17-.91.01-.25-.1-.36-.25-.44-.19-.09-.38-.34-.62-.08-.1-.07-.19-.16-.29-.19-.3-.09-.53-.26-.71-.52-.04-.06-.17-.1-.25-.11-.24,0-.5-.07-.71-.12-.42-.11-.82-.22-1.25-.25-.25-.02-.5-.12-.75-.18-.36-.09-.73-.2-1.1-.27-.39-.08-.8-.1-1.18-.2-.29-.08-.56-.06-.84-.03-.4.04-.79.08-1.18.12-.2.02-.43-.03-.6.06-.2.11-.38.14-.6.14-.39,0-.77.1-1.14.15-.41.05-.83.25-1.15.57-.11.11-.25.18-.39.25-.31.15-.61.27-.88.49-.28.23-.63.38-.93.58-.25.17-.48.37-.74.54-.58.37-1.11.8-1.51,1.37-.08.12-.19.23-.24.37-.1.28-.14.58-.25.86-.38,1.03-.76,2.06-.96,3.14-.11.62-.16,1.25-.28,1.87-.09.45-.08.88.11,1.3.06.14.13.29.21.47-.21-.03-.38-.05-.54-.08-.2-.04-.4-.11-.61-.14-.08-.01-.18.06-.27.06-.47,0-.94-.02-1.41-.02-.14,0-.29.08-.43.08-.29,0-.58-.03-.88-.03-.46,0-.93.08-1.39.05-.96-.07-1.92-.18-2.88-.28-.33-.04-.66-.1-.99-.14-.15-.02-.3,0-.45-.01-.4-.03-.8-.1-1.2-.09-.34,0-.68.1-1.03.16-.14.02-.25,0-.33-.14-.45-.82-.93-1.63-1.36-2.46-.35-.66-.65-1.35-.97-2.03-.38-.82-.78-1.63-1.13-2.46-.21-.48-.34-1-.52-1.5-.11-.29-.26-.57-.37-.87-.2-.56-.38-1.12-.57-1.68-.22-.64-2.81-6.89-2.94-6.89C14.39,1.36,13.71-.12,12.02,0c-.92.07-1.74.56-2.47,1.08-.68.48-2.89,2.09-3.12,2.32-.45.43-.87.89-1.35,1.27-.71.55-1.46,1.03-2.2,1.54-.09.06-.18.11-.27.16-.38.22-.78.41-1.14.67-.4.29-.78.62-1.14.96-.16.15-.32.39-.32.59-.02.69.15,1.33.95,1.7.03.01.06.03.09.05.19-.01.37-.01.56-.04.2-.04.38-.14.56-.25.36-.22.69-.5,1.02-.77.36-.29.73-.54,1.13-.79.35-.22.65-.49.94-.78.04-.04.09-.07.13-.09.07-.06.13-.11.2-.17.74-.67,1.54-1.3,2.33-1.91.4-.31.8-.59,1.24-.84.39-.22.71-.54,1.11-.74.48-.24,1.15-.63,1.7-.46.04,0,.08.02.12.03.11.03.2.13.32.17.14.05.19.14.2.29.02.31.01.65.12.93.24.62.56,1.21.83,1.81.24.52.46,1.05.69,1.58.23.53.43,1.06.67,1.58.13.28.34.52.47.8.23.48.41.99.63,1.48.28.63.59,1.24.89,1.86.26.54.53,1.08.78,1.63.07.16.09.35.18.5.27.48.5.97.68,1.5.17.52.45,1,.66,1.5.18.43.29.9.5,1.32.15.3.11.71.45.92.03.02.01.09.03.14.12.34.26.68.53.92,0,.07-.02.15,0,.2.11.27.25.52.35.8.05.14.25.36-.1.42-.03,0-.05.04-.07.07-.1.25-.29.51-.26.75.04.41-.14.73-.22,1.09-.05.2-.19.39-.2.59,0,.27-.13.52-.11.8.03.38-.06.78-.12,1.17-.11.71-.37,1.39-.34,2.12,0,.07-.04.14-.05.21-.1.56-.2,1.13-.3,1.69-.06.37-.11.75-.17,1.12-.05.29-.13.57-.18.86-.06.37-.08.74-.14,1.1-.02.16-.11.31-.12.47-.03.39-.03.78-.06,1.17-.01.16-.12.32-.14.48-.1.65-.19,1.31-.28,1.97,0,.05,0,.1,0,.14,0,.28.02.57,0,.85-.04.4-.14.79-.19,1.19-.05.43-.08.87-.12,1.31-.01.13-.05.26-.05.4,0,.29.1.58-.05.87-.03.07,0,.17.02.26,0,.05.03.1.02.14-.04.19-.09.37-.12.56-.07.53-.11,1.07-.19,1.6-.05.35-.16.68-.21,1.03-.06.45-.07.91-.14,1.36-.11.64-.13,1.28-.1,1.92.03.58.08,1.16.13,1.73.03.36.04.72.08,1.08.05.46.13.92.18,1.38.08.7.11,1.41.22,2.11.08.53.24,1.04.38,1.56.08.27.18.54.31.79.17.36.4.47.76.32-.14-.07-.28-.13-.42-.2-.04-.02-.1-.09-.1-.09.12-.14-.01-.25-.06-.36-.23-.53-.13-1.09-.19-1.63-.04-.35-.01-.71-.02-1.07,0-.12-.03-.24-.03-.36-.02-.67-.06-1.32-.19-1.98-.16-.78-.25-1.58-.34-2.37-.06-.57-.07-1.14-.08-1.71,0-.28.02-.56.04-.84.02-.22.04-.43.06-.65.05-.59.1-1.19.16-1.78.04-.35.12-.69.16-1.04.08-.63.14-1.26.22-1.89.08-.63.18-1.25.26-1.88.01-.1,0-.21.01-.32.05-.42.12-.84.16-1.26.03-.31.02-.62.06-.93.06-.46.19-.91.24-1.37.07-.6.08-1.22.15-1.82.06-.5.14-1,.29-1.48.09-.3.15-.58.16-.89,0-.13,0-.26,0-.4.02-.29.05-.58.09-.87.04-.29.1-.57.15-.87.15.14.26.28.41.37.17.1.24.22.21.41-.02.15-.02.31-.05.46-.13.8-.27,1.6-.41,2.4-.09.52-.18,1.03-.25,1.55-.05.32-.06.64-.09.96,0,.11.04.24-.01.33-.22.38-.23.8-.27,1.22-.07.77-.15,1.53-.21,2.3-.05.68-.07,1.37-.11,2.05-.03.52-.05,1.05-.09,1.57-.02.24-.08.47-.12.73,0,.01.05.08.05.14-.02.44-.18.88-.12,1.33,0,.06-.02.13-.02.19-.02.24-.06.49-.07.73,0,.22-.06.43-.03.66.06.48,0,.97,0,1.45,0,.06.04.13.07.19.02,0,.05,0,.07,0,.01-.09.03-.18.03-.27.01-.47,0-.94.04-1.4.04-.51.11-1.02.18-1.52.05-.42.12-.84.18-1.25.06-.41.14-.81.19-1.22.08-.66.13-1.32.2-1.98.05-.42.11-.85.15-1.27.04-.42.06-.83.1-1.25.01-.15.07-.29.11-.46-.02-.1-.07-.24-.06-.36.06-.51.14-1.01.23-1.51.05-.29.14-.58.18-.87.05-.36.05-.72.1-1.07.07-.45.18-.88.25-1.33.06-.4.11-.79.15-1.19.02-.18.01-.36,0-.54-.01-.21-.04-.41-.07-.65.09.02.15.02.19.05.4.3.96.32,1.3.73.04.05.13.05.2.09.22.12.44.25.65.38.04.02.08.08.08.11-.05.32.17.24.34.24.13,0,.29-.03.39.04.44.28.94.34,1.43.46.39.1.79.13,1.18.18.34.05.56.19.61.46.03.16.05.33.03.49-.11.78-.31,1.54-.63,2.26-.05.11-.1.22-.14.34-.23.72-.45,1.45-.7,2.17-.29.85-.63,1.69-.9,2.55-.34,1.08-.63,2.18-.95,3.26-.08.28-.17.55-.24.83-.03.14.02.31-.03.45-.09.25-.21.48-.29.75-.08.27-.21.54-.3.82-.11.34-.22.68-.32,1.02-.09.3-.18.61-.24.91-.03.13,0,.27,0,.41,0,.06.04.13.03.19-.05.43-.02.85.12,1.31.06-.16.13-.28.16-.4.09-.38.16-.77.27-1.14.13-.44.31-.87.47-1.3.2-.56.41-1.13.6-1.7.16-.46.32-.93.46-1.4.11-.37.2-.74.3-1.12.11-.42.19-.84.32-1.25.12-.37.31-.71.43-1.07.24-.68.34-1.41.68-2.07.03-.06.07-.13.1-.19.16-.48.3-.96.48-1.43.16-.42.38-.82.53-1.25.31-.86.61-1.72.89-2.59.1-.3.13-.62.25-.92.06-.16.19-.33.34-.4.22-.1.46-.05.67.1.08.05.17.11.26.13.26.06.53.09.79.14.09.02.17.06.25.1,0,.02,0,.05,0,.07-.1.05-.21.11-.31.16-.14.07-.3.12-.43.22-.18.13-.17.27.02.41.05.03.09.07.14.1.25.19.26.22.05.46-.03.03-.05.07-.06.1-.19.45-.41.89-.56,1.36-.27.88-.47,1.78-.74,2.66-.26.84-.58,1.67-.84,2.51-.22.71-.39,1.43-.6,2.15-.1.33-.24.66-.35.98-.07.19-.12.39-.21.57-.12.25-.28.48-.37.74-.3.86-.59,1.72-1.11,2.48-.06.09-.1.21-.14.31-.12.32-.24.64-.36.96-.05.13-.13.26-.18.39-.17.49-.31.99-.51,1.46-.2.47-.33.96-.31,1.46.01.37.17.73.27,1.16.12-.13.25-.15.18-.34-.03-.09.04-.22.07-.33.04-.13.08-.26.11-.4.11-.4.21-.81.35-1.21.22-.65.47-1.28.7-1.93.21-.59.46-1.15.82-1.66.16-.22.27-.48.39-.73.13-.26.22-.55.37-.8.36-.62.6-1.28.76-1.97.03-.11.06-.21.08-.32.06-.31.1-.63.16-.94.04-.23.05-.47.13-.7.13-.38.3-.75.44-1.14.13-.35.23-.71.34-1.06.12-.38.23-.76.34-1.14.17-.64.33-1.29.51-1.93.08-.27.12-.58.29-.8.29-.37.39-.78.43-1.22.02-.16.02-.35-.06-.47-.13-.2-.13-.35-.02-.55.13-.25.22-.52.29-.79.09-.36.07-.36.47-.33.21.02.43.03.64.04.7.05,1.4.13,2.1.15.55.01,1.11-.05,1.66-.09.76-.05,1.52-.08,2.27-.16.91-.1,1.81-.2,2.69-.49.65-.21,1.34-.29,2.01-.42.12-.02.24-.04.36-.06-.06-.04-.12-.05-.18-.04-1.17,0-2.28.36-3.43.54-.41.07-.82.09-1.23.13,0-.02,0-.05,0-.07.05-.01.09-.03.14-.04,0-.02,0-.05,0-.07-.21.03-.42.06-.63.08-.11.01-.23.02-.33,0-.3-.09-.58-.27-.88-.3-.43-.04-.86.04-1.29.03-.95-.01-1.9-.06-2.85-.08-.43,0-.87.05-1.3.05-.69,0-1.38-.17-2.06.12-.22.09-.31-.02-.39-.23-.05-.14-.15-.31-.28-.35-.29-.11-.61-.15-.92-.22-.38-.08-.76-.2-1.14-.23-.27-.02-.5-.07-.73-.21-.1-.06-.24-.07-.36-.1-.37-.09-.8-.1-1.11-.29-.39-.25-.83-.3-1.22-.5-.05-.03-.16-.05-.19-.03-.14.15-.28.03-.4,0-.39-.11-.77-.25-1.15-.37-.42-.14-.86-.23-1.17-.58-.07-.08-.13-.22-.11-.31.02-.09.13-.2.22-.22.35-.06.71-.1,1.07-.11.47,0,.94.04,1.41.04.6,0,1.2-.03,1.79-.06.69-.04,1.38-.08,2.08-.14.24-.02.53-.02.7-.16.16-.13.29-.21.49-.22.26-.02.53-.04.79-.06,0,.02,0,.04,0,.06l-.44.08s0,.04.01.06c.04,0,.09-.01.13-.02.23-.06.46-.16.7-.16.52-.01,1.04.02,1.56.03.12,0,.24-.04.35-.07.24-.06.47-.17.7-.18.33,0,.67.09,1,.11.77.05,1.54.09,2.3.13.07,0,.15,0,.22-.02.18-.04.36-.09.54-.11.26-.02.52,0,.78-.01.77-.04,1.53-.1,2.3-.13.59-.03,1.19-.04,1.78-.07.99-.05,1.99-.11,2.98-.17.16,0,.33-.02.49-.04.47-.04.93-.09,1.4-.12.31-.02.61-.05.92-.04.23,0,.47-.09.69.08.11.08.27.1.39.17.11.06.22.14.28.24.07.11.04.29.11.39.2.28.29.58.28.91,0,.04,0,.1.02.13.2.23.31.5.4.8.19.68.29,1.37.39,2.06.07.47.11.94.17,1.41.02.18.06.37.09.55.06.39.13.78.18,1.18.03.24.03.48.05.71.05.47.1.94.15,1.4,0,.06.03.11.04.17.02.11.04.23.06.34.02.11.1.2.12.31.08.45.15.9.21,1.36.03.19.01.39.03.58.03.34.08.68.12,1.02.02.17.05.34.08.51.02,0,.04,0,.05,0-.04.06-.08.11-.11.15.06.08.13.14.14.21.02.22.02.44.03.65,0,.04.04.07.04.11.02.23.16.47-.04.69.05.05.11.09.12.14.04.27.27.52.13.83-.02.04,0,.09.02.14.04.19.09.39.11.58,0,.04-.05.09-.08.13.06.11.06.22.05.33-.01.12-.05.23-.05.35,0,.18.03.36.05.54-.03,0-.05,0-.08.01.04.03.1.06.11.09.02.33.02.65.03.98,0,.06,0,.12,0,.18.05.26.11.52.15.78.05.37.09.74.13,1.09-.08.2-.18.41-.28.65-.07-.08-.12-.13-.18-.2-.11.14-.24.25-.29.39-.07.22-.11.45-.13.69-.01.14.05.29.04.43,0,.23-.03.45-.06.68-.11.77-.21,1.55-.33,2.32-.06.37-.16.73-.26,1.09-.1.35-.2.7-.32,1.05-.07.2-.18.38-.27.58-.57,1.35-1.13,2.7-1.71,4.04-.05.12-.2.2-.3.3-.02-.02-.04-.03-.05-.05.02.05.03.1.05.17-.09-.01-.16-.05-.2-.02-.22.14-.45.29-.65.46-.37.31-.75.62-1.09.96-.28.28-.6.5-.89.76-.44.4-.79.91-1.18,1.37-.29.34-.53.73-.86,1.03-.68.61-1.41,1.17-2.09,1.77-.28.25-.66.43-.75.85.23.11.6,0,.83-.19.32-.29.65-.57.98-.85.03-.03.11-.01.16,0,.05,0,.09.02.21.05-.21-.28.04-.37.14-.46.08-.08.28-.06.45-.08-.14.42-.36.64-.53.58-.04.06-.07.13-.12.18-.13.17-.28.33-.41.5-.14.18-.25.38-.41.54-.41.4-.84.79-1.28,1.16-.35.29-.73.54-1.09.81-.04.03-.05.1-.05.1-.2.09-.38.14-.53.24-.44.29-.95.38-1.43.54-.02,0-.06.02-.07,0-.17-.16-.32-.01-.43.06-.17.11-.26.01-.4-.05-.11-.04-.22.25-.41.1,0,0,0-.01-.02-.03.14-.21.29-.42.45-.65-.12-.03-.16-.04-.25-.06.37-.21.67-.49,1.1-.4.04,0,.1,0,.14-.03.37-.24.73-.48,1.09-.72.08-.06.19-.1.25-.17.17-.2.31-.41.48-.61.21-.26.43-.51.65-.77.13-.16.3-.29.39-.47.31-.64.82-1.01,1.46-1.24v-.47c-.25-.05-.43-.02-.6.18-.36.42-.61.94-1.07,1.27-.04.03-.1.08-.12.07-.04-.02-.09-.08-.1-.12-.03-.25-.06-.5-.06-.75-.01-.33,0-.65,0-1-.16-.08-.24.01-.29.2-.07.29-.14.59-.26.87-.53,1.2-1.49,1.9-2.73,2.2-.69.16-1.4.08-2.09-.02-.51-.07-1.03-.24-1.54-.22-.72.03-1.38-.2-2.07-.33-.45-.08-.88-.24-1.32-.36-.05-.02-.11-.03-.17-.04-.42-.06-.68-.32-.78-.72-.02-.09-.07-.18-.12-.26-.11-.15-.23-.3-.35-.44-.18-.21-.35-.42-.57-.61-.42-.36-.79-.79-1.16-1.21-.27-.32-.47-.7-.76-1-.17-.18-.29-.38-.39-.6-.05-.12-.1-.24-.16-.36-.33-.61-.66-1.22-.99-1.83-.09-.18-.2-.35-.27-.54-.12-.33-.3-.63-.37-.98-.03-.13-.2-.23-.28-.36-.1-.16-.18-.34-.24-.51-.11-.3-.21-.6-.31-.91-.04-.11-.07-.23-.1-.35,0-.04,0-.09.01-.13,0-.09.02-.19,0-.28-.01-.14-.04-.28-.05-.43-.01-.14-.02-.27-.04-.41-.06-.39-.24-.78-.09-1.19.02-.05-.02-.12-.03-.18-.02-.11-.08-.25-.04-.33.1-.2.1-.4.08-.62-.02-.22-.02-.43-.02-.65,0-.41.02-.81,0-1.22-.02-.34-.03-.72-.19-1.01-.09-.16-.09-.22-.07-.32-.03-.35-.06-.71-.09-1.06-.03,0-.06-.01-.09-.02-.13.26-.32.5-.37.78-.08.44-.11.89-.11,1.34,0,.75.06,1.5.09,2.25,0,.14,0,.29.02.43.04.47.17.96.09,1.4-.06.35-.13.65.01,1,.1.25.08.55.12.82.05.38.13.75.16,1.13.04.39.16.74.43,1.03.25.26.51.51.74.78.18.21.32.45.47.68.14.21.27.43.4.65.06.11.1.24.17.35.2.28.42.55.6.84.09.14.11.31.18.52-.48-.18-.87-.35-1.13-.74-.29-.43-.57-.88-.88-1.29-.25-.33-.57-.6-.83-.92-.39-.48-.75-.99-1.13-1.49-.06-.08-.11-.16-.17-.24-.18-.27-.36-.55-.56-.81-.06-.08-.18-.11-.27-.17-.02.03-.04.05-.07.08.09.16.21.3.28.47.18.4.31.82.5,1.21.35.72.8,1.39,1.29,2.02.26.34.48.71.7,1.08.14.23.16.55.28.75.27.44.64.84,1.02,1.2.28.26.56.49.71.87.06.16.16.34.43.38.32.04.47.38.6.63.11.22.23.42.39.6.11.13.23.25.33.39.12.15.23.31.35.46.09.11.2.21.3.31.26.27.53.54.79.82.07.07.11.17.18.25.12.14.26.27.39.41.03.03.09.05.12.08.11.1.23.19.32.31.06.07.11.16.12.25.01.38.09.48.44.55.25.05.49.13.73.21.06.02.13.06.15.11.06.14.09.29.14.43.11.31.27.61.55.74.2.1.25.25.32.41.06.13.08.28.13.42.11.3.34.35.57.08.11.13.21.26.32.41-.27.06-.56.06-.59.44.09.06.19.14.31.18.43.17.63.52.75.94.08.29.24.55.31.86.05.21.13.39.02.61.2.13.15.33.17.52.07.66.17,1.32.27,1.98.03.25.14.51.08.74-.07.31.07.59.04.89-.03.23.13.5.09.72-.09.41.02.79.03,1.19,0,.2.07.4.11.6-.05.04-.11.1-.17.16.03,0,.06,0,.08.01.02.28.1.58.03.83-.09.3.06.59-.06.9-.08.19.01.45-.03.7-.06.39,0,.8.01,1.2,0,.18,0,.37-.03.55-.05.32.05.63-.04.96-.07.28-.01.6-.11.89-.01.03.04.09.05.13.02.06.05.12.05.18.03.24.07.49.08.74,0,.11-.04.23-.05.35-.01.16-.01.32,0,.48,0,.06.05.12.05.18,0,.86,0,1.72,0,2.57,0,.23-.09.46-.1.69,0,.39.06.79.02,1.18-.04.49-.15.97-.23,1.45-.04.29-.08.58-.12.86-.04.31-.09.62-.14.94-.05.29-.1.57-.16.88h.25q-.05.38-.36.29c-.04.1-.1.2-.12.31-.08.4-.15.8-.2,1.21-.03.22-.15.32-.34.34-.49.06-.98.05-1.46.22-.3.1-.64.08-.96.1-.95.05-1.87.2-2.74.59-1.36.6-2.27,1.59-2.65,3.04-.07.28-.04.34.25.45.28-.4.7-.7.84-1.2-.1-.01-.16-.02-.25-.03.07-.07.14-.11.17-.17.26-.6.76-.99,1.31-1.27.67-.34,1.37-.66,2.09-.82.86-.19,1.76-.21,2.65-.27.53-.04,1.07,0,1.61,0,.09,0,.19.05.25.11.19.2.36.43.55.63.02.03.19-.01.2-.05.04-.13.12-.12.23-.16.12-.04.22-.18.3-.3.02-.03-.06-.15-.11-.2-.15-.12-.33-.2-.47-.33-.15-.14-.39-.32-.38-.47.03-.39-.07-.71-.25-.98v-.97c.06.04.1.06.17.11.06-.32.13-.62.18-.92.05-.29.1-.58.14-.87.05-.34.11-.67.14-1.01.03-.4.01-.8.06-1.19.05-.38-.06-.79.15-1.15.02-.04,0-.11,0-.17,0-.25,0-.49,0-.74,0-.11.02-.22,0-.33-.03-.34-.09-.68-.11-1.02-.02-.35-.02-.7-.03-1.05-.01-.32,0-.65-.05-.96-.03-.19-.01-.35.02-.54.07-.36.05-.73.06-1.1,0-.19-.09-.42-.02-.56.12-.25.04-.47.02-.7,0-.1.03-.2.03-.31,0-.17,0-.34,0-.5-.03-.09,0-.18.03-.26.1-.31.1-.63.1-.96,0-.51.08-1.02.13-1.53.02-.18.05-.37.06-.55,0-.3,0-.59-.02-.89-.01-.19-.06-.38-.1-.57.03-.05.11-.13.11-.21.02-.29.04-.57.03-.86-.03-.61-.08-1.21-.12-1.82,0-.06-.05-.12-.07-.18-.02-.06-.04-.12-.06-.17-.03-.13-.06-.27-.09-.39.02-.08.08-.17.07-.25-.02-.17-.11-.33-.12-.49-.01-.37.04-.74.01-1.11-.02-.33-.11-.66-.17-.99-.02-.11-.04-.23-.1-.32-.21-.29-.1-.59-.05-.88.02-.09.1-.17.15-.25-.07-.02-.17-.04-.27-.07.47-.26-.08-.35-.06-.57.24-.09.49-.19.68-.26-.01-.11-.03-.19-.04-.28,0-.06.01-.13-.02-.16-.12-.12-.25-.24-.39-.33-.02-.01-.12.09-.19.12-.03.01-.08,0-.12-.02-.3-.18-.59-.36-.9-.55.16-.07.31-.2.39-.16.24.12.37-.02.5-.14.22.09.42.17.64.26-.11.07-.18.13-.31.21.41,0,.75,0,1.08,0,.2,0,.4.02.58-.02.34-.08.68-.21,1.02-.3.45-.12.91-.22,1.36-.33-.21.21-.45.35-.65.53-.34.31-.6.67-.61,1.15,0,.36-.16.63-.46.82-.07.04-.13.1-.2.15.01.02.02.04.03.05.1-.04.19-.08.3-.12-.04.29-.25.53-.22.86.03.38-.06.76-.1,1.15,0,.04-.02.09-.05.11-.15.08-.08.18-.06.29.02.15.03.3,0,.45-.06.27-.18.53-.25.8-.08.34-.13.69-.22,1.02-.04.15-.16.28-.25.44.04.03.12.08.24.16-.14.04-.25.06-.44.11.39.11.27.38.31.58.07.32-.22.57-.19.92.03.31.2.64,0,.96,0,0,0,.03.02.04.15.17.08.33,0,.5-.05.1-.1.21-.12.32-.02.08,0,.18,0,.27,0,.09.08.18.1.28.02.11-.02.24-.03.36.08.03.15.05.23.07-.05.19-.14.36-.13.53.03.58.11,1.16.14,1.74.03.43,0,.85.02,1.28.01.22.08.44.14.73-.31.22,0,.6-.04.95-.03.4.03.8.04,1.2,0,.05-.02.1-.04.14-.12.2-.05.39,0,.59.07.23.11.46-.04.6,0,.43,0,.8,0,1.18,0,.08.02.19-.02.24-.21.22-.06.5-.02.67.04.18.12.38.18.58.13.45.06.93.17,1.39.13.51-.1,1.02.08,1.54.13.36.09.79.09,1.19,0,.48-.05.96-.08,1.44-.05.78.04,1.58.11,2.37.05.58.14,1.15.41,1.67.24.48.52.56.95.51.39-.05.44-.17.25-.51-.09-.16-.19-.33-.23-.51-.04-.18,0-.38-.04-.57-.03-.16.03-.26.16-.27.07,0,.16.1.22.17.12.12.2.31.34.38.29.14.61.23.93.31.31.07.63.13.95.15.33.02.66.14.98-.06.06-.04.16,0,.24,0,.24.04.49.18.72-.03.03-.02.1,0,.14,0,.36.09.71.19,1.07.27.44.1.89.19,1.33.28.18.03.36.02.53.07.67.2,1.33.44,2.03.48.06,0,.12.08.17.12.15.13.28.28.44.39.36.24.73.45,1.09.69.17.11.31.26.45.39.04.04.08.11.06.16-.08.26-.16.52-.26.77-.05.11-.13.23-.22.3-.72.47-1.51.79-2.35.98-.41.1-.84.15-1.25.25-.72.18-1.44.37-2.19.39-.72.02-1.43.1-2.15.16-.17.01-.35.04-.5.11-.92.43-1.9.46-2.9.45-.72,0-1.45.05-2.17.09-.36.02-.71.09-1.07.07-.62-.05-1.23.05-1.76.33-.58.3-1.15.25-1.74.17-.53-.06-1.06-.17-1.58-.25-.27-.04-.55-.06-.82-.12-.29-.07-.56-.25-.85-.28-.48-.05-.92-.21-1.37-.34-.27-.07-.53-.16-.8-.21-.24-.05-.49-.04-.72-.08-.37-.07-.73-.18-1.1-.23-.53-.07-1-.27-1.46-.54.05-.05.08-.07.13-.11-.11-.05-.2-.13-.29-.12-.39.03-.59-.24-.83-.48-.51-.49-.43-1.1-.42-1.71,0-.04.01-.08.03-.12.1-.17.24-.32.31-.51.21-.5.57-.82,1.04-1.06.18-.09.31-.26.46-.4-.01-.02-.03-.04-.04-.06-.17.07-.35.12-.51.2-.27.14-.53.29-.79.45-.69.45-1.14,1.58-.92,2.37.08.29.14.59.36.85.44.52.95.93,1.54,1.25.24.13.51.21.77.29.49.15.98.29,1.48.43.16.04.31.09.47.1.42.02.8.11,1.15.36.09.06.22.08.34.1.3.05.62.06.91.14.23.07.42.24.64.34.29.13.6.22.9.33.13.05.27.09.41.13,0,.02-.01.05-.02.07-.05,0-.11.01-.16.03-.08.02-.16.05-.24.08.08.05.16.14.25.15.42.01.84.06,1.25,0,.57-.09,1.12-.08,1.67.05.11.02.23,0,.34-.01.07,0,.14-.02.21-.01.26.04.52.08.79.13.18.03.37.09.55.09.55,0,1.1-.02,1.65-.06.46-.04.92-.12,1.38-.17.58-.05,1.16-.08,1.74-.13.32-.03.63-.16.94-.16.54,0,1.04-.16,1.55-.29.72-.19,1.44-.4,2.17-.47.62-.06,1.18-.19,1.7-.54.49-.32,1.05-.48,1.63-.57.39-.06.8-.12,1.17-.26.47-.18.91-.43,1.36-.66.14-.07.26-.19.37-.31.11-.12.17-.28.28-.39.48-.48.37-1.46-.02-1.87-.16-.17-.29-.36-.47-.5-.49-.37-.91-.84-1.48-1.11-.41-.19-.81-.39-1.22-.58-.06-.03-.14-.04-.21-.05-.48-.06-.96-.13-1.44-.19-.28-.04-.56-.08-.84-.11-.13-.01-.26.02-.38,0-.4-.09-.8-.21-1.2-.31-.21-.05-.42-.09-.6-.13-.15.03-.29.07-.42.07-.3-.01-.6-.06-.9-.07-.14,0-.29.07-.43.06-.58-.04-1.18-.03-1.72-.3-.22-.11-.5-.16-.6-.41-.13-.37-.21-.75-.32-1.13-.13-.47-.31-.91-.62-1.3-.05-.06-.08-.15-.1-.23-.07-.35,0-.73-.23-1.04-.03-.04-.03-.09-.03-.14,0-.12,0-.25,0-.37-.02-.24-.07-.48-.08-.73-.01-.27,0-.54.01-.81,0-.1.07-.24.03-.3-.22-.34-.01-.73-.13-1.08-.03-.09.05-.22.07-.33.01-.06.01-.13,0-.19-.03-.22-.07-.43-.1-.65-.01-.09-.03-.18-.04-.28,0,0,0,0-.01,0l-.13-1.57c-.04-.08-.02-.17-.01-.26.02-.26-.09-.53.07-.78.03-.04,0-.11,0-.17-.02-.31-.06-.63-.06-.94,0-.58.04-1.17.03-1.75,0-.35.13-.71-.05-1.05-.01-.02,0-.06,0-.09.02-.17.04-.33.05-.5,0-.18,0-.35,0-.53,0-.23,0-.46,0-.72.16-.07.21-.21.16-.41-.04-.17-.07-.35-.05-.52.02-.14.08-.27-.02-.41-.03-.05-.04-.13-.03-.19.16-.62.01-1.28.18-1.9.05-.19,0-.4.02-.59.04-.38.09-.75.14-1.13.01-.11.02-.22.03-.32.02-.19.07-.38.08-.57.01-.35-.03-.7,0-1.04.05-.62.1-1.23.2-1.84.04-.25-.03-.49,0-.74.05-.36.15-.7.27-1.03.08-.21.21-.39.33-.58.25-.37.49-.75.77-1.1.25-.31.58-.56.79-.89.32-.49.58-1.03,1.02-1.44.22-.21.41-.47.66-.62.4-.23.71-.55,1.02-.87.58-.6,1.15-1.21,1.73-1.82.27-.29.54-.57.8-.86.13-.14.27-.28.35-.45.11-.24.22-.45.49-.54.07-.02.11-.11.17-.17.23-.26.42-.6.71-.75.26-.14.48-.26.68-.48.36-.39.79-.72,1.21-1.05.34-.26.56-.66.97-.85.35-.16.45-.54.6-.84.26-.56.46-1.16.69-1.74.18-.45.36-.9.55-1.35.12-.28.26-.55.38-.84.18-.43.35-.87.54-1.29.14-.33.29-.66.44-.99.03-.06.11-.14.09-.19-.1-.31.11-.53.21-.78.04-.1,0-.24.04-.34.15-.36.4-.66.45-1.08.07-.5.29-.99.08-1.43.22-.3.41-.56.6-.82.2.2.44.2.78.13-.2-.16-.34-.28-.49-.38-.08-.05-.3-.28-.3-.37,0-.3,0-.6.03-.9.07-.66.11-1.31-.06-1.96,0-.03,0-.06,0-.09-.01-.14-.02-.27-.04-.41-.02-.09-.1-.2-.08-.28.08-.29-.06-.46-.27-.6.12-.2.09-.29-.01-.3-.06-.13-.1-.22-.14-.3,0-.09,0-.19,0-.29,0-.1,0-.19-.02-.29-.04-.27.14-.55-.04-.83-.07-.1-.18-.23-.07-.39.02-.02-.05-.11-.08-.17-.02-.04-.05-.08-.06-.12-.03-.17-.06-.35-.08-.52-.01-.09,0-.19-.01-.29,0-.12-.02-.23-.03-.35,0-.13-.02-.26-.02-.4,0-.05.02-.1,0-.14-.09-.35-.21-.7-.29-1.05-.08-.35-.14-.7-.19-1.05-.06-.41-.1-.82-.18-1.22-.05-.24-.18-.46-.19-.72,0-.09-.12-.21-.09-.26.12-.19-.03-.34-.05-.51,0-.05-.05-.11-.04-.13.16-.17,0-.23-.06-.28.02-.12.06-.21.04-.29-.06-.31-.14-.62-.21-.93,0-.02.02-.05.02-.07,0-.14-.01-.29,0-.43.02-.24-.14-.44-.12-.69.02-.31-.07-.63-.12-.94-.04-.23-.13-.43-.06-.69.07-.22,0-.48-.02-.72-.02-.21.03-.35.25-.4.03,0,.07-.03.08-.06.06-.2.2-.23.38-.2.07.01.15.02.22,0,.43-.19.85-.41,1.29-.57.73-.26,1.47-.49,2.2-.73.06-.02.12-.05.17-.08.13-.08.26-.16.38-.25.16-.11.34-.2.46-.34.17-.2.28-.45.44-.67.4-.54.84-1.06,1.21-1.63.27-.42.47-.89.64-1.36.14-.38.19-.8.29-1.19.09-.34.24-.66.3-1,.17-.94.3-1.89.44-2.84.05-.34.1-.67.33-.94-.04-.06-.07-.12-.11-.18.02,0,.05,0,.07.01ZM30.33,72.92c.02.06.03.11.05.17-.01,0-.03.02-.04.03-.08-.09-.16-.18-.24-.26.02-.03.03-.05.05-.08.22.05.44.1.66.15-.16.21-.3.02-.48,0ZM35.36,103.29c.11.22.23.43.32.64.09.2.16.41.21.62.03.16,0,.33,0,.55-.5-.55-.74-1.1-.53-1.81ZM51.64,52.03s-.07.02-.1.03c-.08-.28-.16-.56-.24-.83.41.19.16.56.35.8ZM51.54,12.02c.17.07.3.24.47.34.4.24.67.58.85,1,.03.06.08.11.13.16.22.21.07.44.04.66-.05.28-.25.4-.51.49-.63.21-1.14.58-1.53,1.12-.05.07-.1.17-.1.26,0,.16.01.16-.07.19-.01.1,0,.18-.03.23-.11.14-.24.27-.35.41-.25.31-.48.63-.73.94-.17.21-.33.43-.52.63-.09.09-.25.11-.33.21-.12.13-.19.3-.28.46-.09.16-.17.32-.26.47-.15.28-.16.28-.48.13.08-.22.16-.43.23-.65.08-.31.17-.62.22-.94.08-.58.13-1.16.18-1.74.05-.56.07-1.13.14-1.69.04-.32.14-.63.24-.94.03-.09.14-.16.22-.24.03,0,.06,0,.09,0,.07.23.13.46.2.69.02.06.06.1.09.16.02-.05.05-.11.05-.16,0-.14,0-.28-.03-.41-.05-.3-.23-.45-.55-.42.07-.02.14-.03.21-.05,0-.02,0-.04,0-.07-.07-.01-.15-.05-.22-.04-.4.1-.67.36-.78.76-.13.45-.24.91-.38,1.36-.18.57-.39,1.13-.57,1.7-.05.15-.05.32-.06.48,0,.13.03.26,0,.39-.12.51-.22,1.02-.38,1.51-.13.4-.22.41-.59.22-.04-.02-.08-.04-.15-.08-.1.57-.53.36-.86.36-.25,0-.39-.18-.52-.37-.51-.78-1.17-1.44-1.85-2.07-.36-.33-.61-.74-.89-1.13-.39-.53-.85-1.01-1.29-1.51-.11-.12-.26-.19-.39-.29-.03.02-.07.03-.1.05-.01.33-.04.65-.03.98,0,.09.13.17.19.26.22.29.44.58.65.88.21.3.39.62.61.91.19.24.41.46.62.69.16.16.34.3.49.47.16.18.3.37.5.63-.53-.03-1-.06-1.46-.09.04-.1.12-.24.11-.25-.12-.09-.26-.22-.38-.21-.23.01-.5.05-.67.19-.16.13-.29.14-.46.11-.28-.05-.56-.08-.64-.44-.01-.06-.22-.1-.34-.11-.07,0-.19.07-.22.14-.15.35.06.64.48.74.28.06.58.09.81.23.46.29.96.37,1.54.46-.12.03-.16.05-.23.07.47.17.97-.11,1.41.24.35.28.76.48,1.15.72,0,.03-.01.07-.02.1-.21,0-.42.04-.62.02-.48-.04-.97-.07-1.43-.18-.44-.11-.87-.28-1.27-.49-.24-.12-.34-.04-.41.14-.08.2-.22.28-.41.28-.51-.01-1.02-.04-1.54-.06-.26,0-.52-.02-.78-.02-.16,0-.21-.04-.17-.22.05-.26.04-.53.06-.8,0-.04,0-.08,0-.12.05-.49.09-.99.15-1.48.01-.09.1-.22.17-.23.16-.02.18-.13.2-.23.06-.24.11-.48.17-.74-.05-.03-.11-.06-.2-.12.08-.06.14-.12.21-.15.14-.06.17-.16.2-.3.03-.17.11-.34.2-.49.16-.29.38-.55.52-.85.18-.38.46-.65.78-.9.38-.31.75-.65,1.17-.9.61-.36,1.26-.66,1.9-.98.45-.23.9-.48,1.37-.65.45-.17.93-.3,1.41-.36,1.06-.13,2.13-.03,3.2.08.52.05,1.04.1,1.56.2.32.06.64.17.94.3ZM47.26,20.59c0,.1.03.21.08.31.07.15-.03.44-.18.52-.26.13-.45.06-.51-.24-.04-.2-.16-.44.14-.56.03-.01.06-.07.06-.1-.01-.31.24-.23.45-.34-.02.19-.04.3-.03.41ZM46.55,21.18c-.02.41-.54.74-.81.54-.11-.08-.11-.33-.11-.51,0-.06.15-.19.23-.18.24.03.47.1.69.15ZM42.45,17.76c.11.04.21.08.3.12.04.26-.07.41-.31.48-.09-.19-.18-.37-.3-.6.13.09.23.16.36.24-.02-.09-.03-.15-.05-.24ZM35.94,18.57c.09-.43.17-.86.28-1.28.07-.25.2-.49.3-.73.08-.21.16-.42.24-.63.31-.77.63-1.55.94-2.32.18-.44.38-.61.76-.63,0-.06,0-.12.01-.18.04,0,.07-.01.08,0,.15.09.23.01.33-.1.09-.11.19-.22.31-.29.47-.27.95-.5,1.41-.79.31-.2.55-.48.85-.69.2-.14.46-.21.74-.33-.11-.01-.17-.02-.23-.03.22-.25.5-.33.79-.45.85-.34,1.74-.28,2.61-.39.62-.08,1.25-.11,1.87-.16,0,.02,0,.04,0,.06-.06.01-.11.02-.17.03,0,.02,0,.03,0,.05.06.02.13.06.19.06.18-.02.35-.09.52-.07.19.03.36.15.54.21.45.15.89.29,1.35.42.33.1.67.17,1.01.25.03,0,.06.02.09.03,0,.03-.02.06-.03.08-.19.03-.38.04-.57.09-.66.16-1.27-.2-1.93-.17-.59.03-1.2-.03-1.79.03-.35.04-.69.02-1.04,0-.33,0-.67-.07-.98,0-.27.07-.55-.01-.8.1-.5.23-1.04.4-1.51.67-.83.49-1.64,1.03-2.43,1.59-.69.48-1.15,1.17-1.64,1.83-.12.16-.19.35-.28.53-.21.41-.42.83-.62,1.24-.04.08-.04.17-.06.26-.08.47-.2.92-.19,1.42.02.59-.07,1.18-.11,1.76,0,.07-.02.15-.02.22,0,.46-.2.67-.66.66-.05,0-.14-.07-.14-.12-.06-.52-.12-1.03-.15-1.55-.01-.24.06-.48.11-.72ZM23.28,29.93c-.49,0-.99,0-1.48,0-.35,0-.69.05-1.04.05-.13,0-.27-.07-.45-.12.34-.3.29-.65.27-.96-.03-.38.02-.75.07-1.13.05-.33.12-.65.17-.98.09-.61.16-1.22.24-1.83.03-.21.05-.42.1-.62.01-.06.09-.16.14-.16.07,0,.16.06.2.12.07.1.11.23.16.35.11.3.28.56.34.89.05.24.21.47.33.7.1.2.26.38.31.59.13.57.49,1.04.6,1.62.07.42.16.83.25,1.24.04.18-.06.24-.21.24ZM26.16,29.76c-.28.03-.55.06-.83.09-.53.07-.92-.18-1.14-.62-.31-.63-.57-1.28-.85-1.92-.22-.52-.42-1.05-.64-1.58-.07-.18-.18-.34-.26-.52-.1-.23-.19-.47-.29-.7-.08-.19-.27-.38-.26-.55.02-.22-.07-.25-.19-.29-.06-.18-.12-.35-.18-.51-.09-.28-.15-.58-.43-.77-.05-.03-.05-.15-.07-.23-.02-.06-.02-.12-.05-.17-.21-.4-.44-.78-.64-1.19-.19-.4-.35-.82-.52-1.23-.25-.6-.51-1.21-.75-1.82-.18-.45-.32-.93-.51-1.38-.21-.5-.46-.99-.69-1.48-.14-.29-.3-.58-.44-.87-.16-.35-.31-.7-.47-1.06-.21-.48-.47-.94-.6-1.44-.23-.88-.56-1.7-.97-2.51-.22-.44-.44-.87-.66-1.31-.21-.41-.41-.82-.62-1.24-.05-.09-.11-.18-.16-.28-.23-.51-.46-1.03-.68-1.54-.03-.07-.07-.13-.08-.2-.05-.21-.09-.42-.15-.62-.02-.07-.04-.14-.05-.2-.11-.16-.22-.32-.34-.47-.12-.16-.27-.33-.46-.41-.19-.08-.43-.07-.63-.07-.48,0-.88.13-1.26.42-.2.15-.38.33-.59.47-.16.1-.33.19-.5.29-.23.23-.48.43-.73.64-.55.45-1.15.83-1.73,1.25-.65.47-1.3.93-1.96,1.39-.47.33-.97.62-1.42.97-.54.42-1.04.89-1.56,1.33-.43.37-.8.33-1.13-.11-.06-.08-.11-.17-.14-.26-.02-.09-.03-.21,0-.28.28-.56.73-.95,1.25-1.28.57-.36,1.12-.72,1.68-1.09.46-.31.93-.61,1.38-.94.53-.39,1.06-.79,1.56-1.22.3-.26,1-.82,1.07-.87.67-.59,1.34-1.18,2.06-1.71.68-.5,1.44-1.03,2.3-1.16,1.5-.23,2.14,1.09,2.75,2.26.06.13.11.26.14.38.08.3.94,2.55,1.3,3.32.19.41.38.81.56,1.23.21.48.42.96.62,1.45.23.55.45,1.11.68,1.66.04.1.1.19.14.29.12.29.24.59.35.89.04.09.09.18.12.28.11.31.19.64.31.94.14.35.34.67.49,1.02.53,1.22,1.02,2.46,1.69,3.61.19.32.31.69.49,1.01.26.48.56.95.83,1.43.13.24.2.52.34.75.16.26.35.49.48.78.35.82.76,1.62,1.13,2.43.2.44.37.89.54,1.34.22.59.43,1.19.65,1.79.27.71.54,1.42.82,2.12.07.17.02.25-.15.27ZM36.08,29.16c-.32.02-.63.07-.95.1-.45.04-.9.1-1.36.12-.59.02-1.19,0-1.78.02-.2,0-.41.01-.61.02-.74.02-1.47.03-2.21.06-.73.03-1.47.07-2.21.1-.19-.53-.38-1.06-.57-1.58,0-.02,0-.05-.02-.07-.31-.71-.63-1.41-.93-2.13-.24-.57-.44-1.16-.7-1.73-.32-.7-.67-1.38-1-2.07-.09-.19-.17-.38-.24-.58-.01-.03.05-.12.09-.14.25-.07.5-.15.76-.18.17-.02.34.03.52.06.36.06.72.13,1.08.2.2.04.38.11.58.14.46.06.93.01,1.39.14.25.07.54-.01.81-.02.08,0,.16,0,.24.01.55.04,1.1.09,1.64.14.1,0,.19.06.29.07.56.08,1.11.1,1.68-.06.34-.09.73-.02,1.1-.04.25,0,.5-.03.74-.06.38-.03.48.03.48.4,0,.35-.05.7-.04,1.05.03.65.03,1.31.33,1.93.3.63.62,1.25,1,1.83.11.17.26.32.33.51.12.31.19.63.29.95.07.24.15.49.23.76-.3.02-.63.02-.95.05ZM47.97,29.8c-.33,0-.54-.16-.72-.4-.18-.24-.43-.43-.65-.65l-.04.08c-.09.01-.18.05-.27.03-.43-.08-.83-.27-1.28-.23-.48.05-.96.09-1.44.14-.1,0-.2.01-.29.02-.24,0-.48,0-.71.02-.22.02-.44.11-.66.13-.52.04-1.03.05-1.55.08-.28.01-.56.04-.84.04-.17,0-.34-.04-.51-.05-.2,0-.4,0-.6.02-.2.02-.37-.06-.46-.21-.24-.4-.54-.78-.67-1.22-.22-.77-.61-1.46-.89-2.19-.06-.15-.14-.29-.22-.44-.37-.67-.57-1.36-.42-2.14.08-.42.1-.84.15-1.27.1,0,.14,0,.18,0,.45-.02.6.13.6.58,0,.08.03.17.07.24.11.24.24.47.33.71.15.39.29.78.4,1.18.09.32.1.67.21.99.19.57.41,1.14.91,1.55.18.15.34.32.52.48.1.09.17.09.26-.02.09-.12.21-.2.3-.32.14-.19.1-.37-.08-.52-.38-.32-.42-.37-.6-.81.29-.1.58-.21.87-.29.2-.05.41-.05.61-.09.12-.02.24-.08.42-.14.17.14.38,0,.6-.1.02,0,.05-.05.05-.04.24.14.37-.06.57-.21-.24-.04-.43-.05-.63.02-.06.03-.15.01-.22,0-.18-.05-.34-.04-.44.13-.63-.23-1.26-.03-1.84-.02-.25-.6-.47-1.18-.72-1.75-.14-.33-.33-.64-.5-.96-.04-.08-.08-.17-.09-.25-.01-.14-.03-.29.22-.28.21.01.43-.04.65-.06.28-.03.53.05.73.27.31.33.71.34,1.13.31.59-.03,1.18-.03,1.77-.06.42-.02.84-.06,1.26-.1.35-.03.7-.07,1.05-.12.09-.02.19-.1.26-.18.13-.13.23-.28.35-.42.05.27.09.52.15.77.02.09.09.17.11.26.03.12.05.24.07.36.02.1.03.2.04.3.14-.03.35,0,.42-.09.13-.17.25-.26.46-.21.02,0,.06,0,.08-.02.13-.09.26-.19.39-.28.03.02.06.03.09.05-.04.24-.09.47-.13.73.06.15.16.34.2.55.19.98.31,1.98.56,2.94.14.55.09,1.11.27,1.65.05.15.09.3.15.44.15.36.11.72.05,1.08ZM56.77,26.67c-.05.38-.08.78-.2,1.14-.2.63-.74,1.01-1.22,1.42-.28.25-.62.42-.79.8-.12.26-.44.43-.56.68-.18.39-.46.66-.8.86-.45.25-.92.45-1.38.68-.2.1-.4.21-.61.29-.15.06-.31.06-.46.12-.27.11-.55.22-.8.37-.25.15-.44.16-.55-.05-.03-.06-.02-.14-.04-.21-.02-.13.06-.3-.13-.39-.01,0,0-.12.02-.14.18-.12.18-.23.08-.43-.07-.14-.04-.34,0-.5.01-.05.17-.1.27-.1.06,0,.12.07.22.14,0-.11.02-.2-.02-.25-.21-.29-.47-.56-.65-.87-.12-.22-.14-.5-.21-.75-.04-.12-.12-.23-.14-.35-.09-.58-.15-1.17-.25-1.75-.05-.3-.15-.58-.21-.88-.03-.14-.04-.28-.06-.43,0,0,.07,0,.14,0-.02-.13-.03-.26-.05-.39.03,0,.06-.02.09-.02.04.06.1.12.13.19.14.28.28.56.4.84.05.12.05.27.07.41,0,.05,0,.11.03.16.16.34.32.68.47,1.02.05.11.09.22.11.34.08.32.11.65.22.95.12.34.31.65.47.97.05.1.11.19.18.27.23.29.53.36.89.32.17-.02.34-.03.51-.02.29.02.54-.09.77-.26.47-.37.87-.79.91-1.46-.06.09-.12.19-.19.28-.06.07-.12.16-.19.18-.05.01-.13-.08-.19-.12,0-.02,0-.05,0-.07-.36.14-.72.29-1.08.42-.69.24-1.21.21-1.4-.59-.04-.17,0-.35-.02-.52-.02-.15-.04-.3-.09-.44-.23-.68-.46-1.35-.72-2.02-.12-.32-.3-.63-.45-.94-.15-.31-.29-.62-.45-.91-.06-.12-.17-.22-.26-.32.02-.03.04-.05.07-.08.23.14.46.27.68.43.85.61,1.67,1.27,2.55,1.82.69.43,1.41.85,2.25.97.05,0,.1.11.11.17.02.12,0,.25,0,.41.09-.02.18-.04.27-.06-.05-.08-.08-.14-.13-.21.2.04.37.08.54.11.12.03.25.08.37.07.14-.01.34-.04.41-.13.23-.33.4-.7.63-1.03.21-.31.1-.67.24-.99.04-.09.11-.16.17-.23.03.01.07.02.1.03-.02.34-.03.68-.07,1.02ZM54.61,27.55c.36-.29.72.13,1.07-.01,0,.02.02.04.02.06-.1.04-.21.12-.3.11-.26-.03-.55.11-.79-.15ZM57.05,24.46c-.03.1-.11.19-.16.28q-.25-.13-.29.16s-.01.07-.03.09c-.24.26-.24.61-.34.92-.02.07.04.16.06.23-.04.07-.1.14-.13.22-.15.36-.29.72-.44,1.09-.41-.07-.79-.09-1.14-.21-.28-.1-.52-.32-.78-.48-.07-.04-.12-.12-.19-.14-.52-.13-.93-.44-1.33-.77-.44-.35-.92-.67-1.34-1.05-.32-.28-.65-.51-1.04-.68-.33-.14-.65-.32-.96-.49-.06-.04-.14-.16-.12-.2.04-.07.17-.16.21-.14.48.23,1.01.02,1.49.22.16.06.34.06.52.08.02,0,.05-.05.11-.11-.59-.12-1.14-.24-1.69-.32-.29-.05-.59-.03-.89-.04-.35,0-.64-.16-.86-.41-.11-.12-.14-.32-.19-.48,0-.03.09-.13.14-.13.13,0,.27.02.41.03.04,0,.08,0,.12,0,.48-.14.97-.28,1.45-.43.47-.15.92-.35,1.39-.48.32-.09.67-.1,1-.14.02,0,.05,0,.07,0,.54-.14,1.08-.29,1.62-.42.45-.11.91-.16,1.36-.28.3-.08.62-.17.84-.37.16-.14.18-.45.27-.72-.09.01-.12,0-.12.02-.3.6-.87.75-1.46.86-.5.1-1.01.2-1.51.28-.69.11-1.38.17-2.07.29-.33.06-.65.18-.98.28-.39.11-.78.23-1.17.33-.04.01-.1-.03-.14-.05.03-.05.04-.12.08-.16.4-.37.81-.74,1.22-1.1.28-.25.51-.54.64-.9.04-.11.13-.22.21-.31.29-.31.57-.62.87-.9.16-.15.37-.25.55-.37-.17.28-.33.54-.49.8.02.02.05.04.07.06.06-.07.14-.12.18-.2.26-.49.52-.99.95-1.34.37-.3.69-.69,1.27-.75-.34-.14-.64-.11-.85.09-.29.27-.68.36-.98.6-.28.22-.57.44-.83.69-.66.63-1.29,1.29-1.96,1.91-.26.24-.61.39-.97.6.1-.46.4-.71.69-.98.09.08.2.23.33.02-.09-.02-.18-.03-.27-.04-.09-.3.17-.46.3-.65.15-.22.37-.4.59-.57.19-.15.43-.24.63-.37.26-.17.44-.4.58-.69.2-.42.5-.78.87-1.08.14-.12.28-.25.42-.38.04-.04.1-.05.21-.04-.14.42-.27.84-.42,1.29.39-.1.46-.41.58-.66.14-.29.27-.6.41-.89.16-.35.4-.41.68-.15.31.29.6.6.89.91.23.24.47.48.69.74.08.1.14.22.2.33.13.27.27.55.38.83.1.25.16.52.27.78.1.24.22.46.35.69.09.16.24.28.25.51.01.22.17.43.22.65.05.21.08.43.09.64.01.3-.1.65.01.9.15.31-.1.53-.05.79.01.09-.02.19-.04.28-.16.54-.32,1.08-.5,1.61ZM57.79,24.36c-.03.23-.06.46-.11.69-.01.06-.08.1-.12.16-.03-.06-.11-.14-.1-.19.06-.2.05-.4.16-.61.14-.26.1-.61.15-.91,0-.04.04-.07.06-.1.02,0,.04.01.07.02-.04.31-.08.62-.12.93Z"/>
      <path class="cls-1" d="M45.61,32.2c.41.07.87-.01,1.23.3.04-.11.07-.22.11-.33.02.2-.03.38,0,.56.06.55.15,1.1.22,1.65.04.25.07.5.12.74.04.18.03.31-.13.43-.1.08-.2.2-.25.32-.1.24-.17.49-.24.74-.04.15-.14.38-.08.46.2.26-.03.61.22.84.01.01-.06.1-.07.16-.03.2-.05.41-.07.61,0,.02.05.04.07.06.02.02.04.06.04.08-.18.61.05,1.21.07,1.82,0,.32.04.66.03.98-.02.49.14.99-.01,1.48,0,.03.01.06.02.09.02.15.03.3.06.45.03.14.07.27.1.41.03.07,0,.16,0,.25,0,.63-.02,1.25,0,1.88,0,.3,0,.62.08.9.16.53.04,1.05.04,1.57,0,.17-.04.31.11.38-.03.14-.09.27-.08.38.03.27.07.55.14.82.15.57.13,1.13.06,1.7-.01.08-.03.16-.02.24.02.26.07.53.06.79-.01.3-.07.59-.11.88-.08.55-.14,1.11-.11,1.67.03.51.02,1.03.05,1.55.02.5-.09,1.01-.15,1.52-.04.34-.12.67-.16,1.01-.08.59-.15,1.18-.23,1.77,0,.02,0,.05-.02.07-.49,1.04-.97,2.08-1.46,3.12-.13.28-.26.57-.38.86.02.02.03.04.05.06.08-.05.17-.08.22-.15.34-.47.69-.94,1.01-1.44.5-.77.98-1.56,1.45-2.35.14-.24.24-.51.33-.77.03-.08-.04-.19-.07-.29-.02,0-.04,0-.06,0,.04-.11.04-.28.11-.31.2-.1.15-.26.17-.41-.04.04-.07.09-.15.18.05-.38.08-.71.12-1.04.02,0,.04,0,.06,0-.01.27-.02.55-.04.82.02-.07.07-.14.07-.2.04-.68.06-1.36.11-2.04.02-.22.04-.46.24-.62.02-.01-.03-.11-.05-.16,0-.01,0-.03,0-.04.04,0,.09-.01.13-.02-.05-.15-.15-.31-.12-.42.11-.37.03-.79.27-1.13.03-.04,0-.11,0-.17,0-.12-.02-.24-.02-.36,0-.31.21-.61.02-.93-.03-.05.03-.15.04-.23.01-.08.02-.17.02-.26,0-.31-.02-.61,0-.92,0-.31.07-.62.05-.93-.01-.23-.14-.46.02-.68.01-.02,0-.06,0-.09,0-.08-.02-.16-.02-.25,0-.06.04-.13.03-.19-.08-.44-.15-.87-.14-1.32.01-.51.03-1.03-.06-1.53-.05-.26-.11-.5-.08-.78.03-.34-.07-.7-.03-1.04.04-.33-.22-.58-.14-.92.05-.22-.07-.48-.09-.72-.02-.41-.01-.82-.03-1.24-.01-.28-.14-.59-.07-.84.11-.39-.01-.75-.03-1.11-.01-.35-.12-.69-.16-1.03-.04-.32-.02-.65-.05-.98-.04-.45-.1-.89-.14-1.33-.02-.26-.05-.53-.01-.79.02-.18.08-.33-.07-.47-.04-.04-.06-.1-.06-.16-.03-.43-.07-.85-.09-1.28-.02-.65-.05-1.29-.03-1.94,0-.23-.17-.54.26-.69-.25-.06-.3-.17-.19-.36-.17-.05-.32-.1-.46-.14-.06.13-.09.21-.15.35-.12-.32-.28-.51-.57-.51-.38,0-.76,0-1.14,0-1.01,0-2.03.02-3.04-.04-.79-.05-1.58-.23-2.38-.29-.63-.05-1.27,0-1.88.22-.13.05-.27.06-.41.07-.64.05-1.28.06-1.91.14-.74.09-1.47.24-2.2.36-.11.02-.22.04-.33.06,0,.02,0,.03.01.05.07.02.15.04.22.05-.89.27-1.84.24-2.71.61.06.05.12.08.18.08,1.04.03,2.08.08,3.11.07,1.08,0,2.14.24,3.23.07.62-.1,1.26-.07,1.89-.08.19,0,.38.02.6.04-.05.08-.07.12-.08.13.2-.04.4-.09.61-.13-.22-.04-.43-.05-.62-.23.14-.09.24-.19.36-.21.28-.06.57-.12.86-.12.99,0,1.98,0,2.97.02.6.01,1.21,0,1.8.1Z"/>
      <path class="cls-1" d="M28.31,32.46c.13-.11.29-.24.33-.39.04-.16.12-.28.17-.41-.09-.08-.17-.16-.28-.26-.36.1-.76.19-1.12.34-.15.06-.33.25-.34.4-.01.13.15.33.29.42.43.27.55.25.95-.1Z"/>
      <path class="cls-1" d="M38.47,33.16c-.08.01-.15.11-.2.19-.01.02.07.13.12.15.08.02.17-.02.25-.03.07-.01.13-.05.2-.05.13,0,.26.02.38,0,.38-.05.75-.14,1.13-.17.74-.06,1.49-.09,2.28-.14-.17-.02-.3-.04-.43-.05-.74-.04-1.48-.12-2.22-.11-.51,0-1.02.12-1.52.2Z"/>
      <path class="cls-1" d="M27.97,33.42c.29-.04.58-.16.85-.23-.48-.04-.99-.22-1.48.05,0,.04,0,.07,0,.11.21.03.43.1.63.08Z"/>
      <path class="cls-1" d="M26.6,114.83v.07h.65s0-.05,0-.07h-.65Z"/>
      <path class="cls-1" d="M44.58,17.17c-.14-.38-.25-.77-.41-1.14-.16-.37-.36-.73-.53-1.1-.22-.46-.42-.92-.65-1.37-.04-.08-.18-.16-.28-.16-.14,0-.23.11-.2.27.03.18.04.37.11.53.11.24.28.46.4.7.26.52.51,1.04.75,1.58.21.47.37.96.58,1.43.19.42.4.82.62,1.22.06.1.18.16.28.24.02-.02.03-.03.05-.05-.08-.28-.16-.57-.25-.85-.15-.44-.31-.87-.47-1.31Z"/>
      <path class="cls-1" d="M45.63,17.22c-.1.27-.1.49-.03.74.06.21.26.44-.01.65.12.29.24.57.37.87.2-.12.22-.31.17-.46-.12-.32.02-.53.17-.7-.22-.36-.44-.71-.67-1.1Z"/>
      <path class="cls-1" d="M46.42,12.62c-.02.18-.05.36-.07.53.02.01.04.02.05.04.04-.03.11-.07.12-.1,0-.15,0-.3-.01-.45-.03,0-.06-.01-.09-.02Z"/>
      <path class="cls-1" d="M42.29,24.6c-.06.09-.12.24-.09.31.07.14.14.02.2-.05.03-.03.1-.02.12-.02,0-.11-.01-.21-.02-.34-.07.03-.17.05-.21.11Z"/>
      <path class="cls-1" d="M55.51,21.21s0,.08-.02.13c-.14-.08-.25-.19-.35-.18-.61.06-1.21.14-1.81.22-.65.09-1.3.17-1.95.28-.31.05-.63.05-.93.22-.22.13-.53.09-.8.14-.1.02-.2.07-.29.1.09.12.15.26.26.35.07.05.21.03.31.02.45-.04.89.02,1.33.16.44.13.9.23,1.36.27.59.05,1.18.04,1.77.01.44-.02.89-.07,1.32-.17.19-.04.43-.11.52-.35.01-.03.04-.05.06-.07.31-.28.34-.75.15-1.12h-.93ZM55.8,22.33c-.59.21-1.2.26-1.82.26-.31,0-.62.04-.94.07-.09,0-.17.06-.21.08-.63-.14-1.25-.27-1.86-.41,0-.02-.01-.03-.02-.05.11-.03.22-.08.34-.09.65-.09,1.31-.14,1.96-.26.41-.07.81-.25,1.22-.35.3-.07.61-.12.91-.14.15,0,.31.07.46.11,0-.02,0-.03.01-.05-.06-.02-.12-.05-.25-.09.11-.05.16-.07.21-.09.02,0,.06,0,.07,0,.1.13.38-.12.4.19.02.44-.16.7-.49.81Z"/>
      <path class="cls-1" d="M54.25,17.84c.26-.03.45-.19.64-.39-.23.1-.45.2-.68.3.01.03.03.06.04.09Z"/>
      <path class="cls-1" d="M50.89,27.72c-.13-.18-.25-.3-.51-.3.02.07.03.13.05.18.11.33.24.65.34.98.06.19.09.39.13.59.04.19.19.22.34.2.08,0,.21-.09.22-.15.03-.18.04-.37,0-.55-.09-.38-.35-.66-.58-.96Z"/>
    </g>
  </g>
</svg>