<?xml version="1.0" encoding="UTF-8"?>
<svg id="Layer_2" data-name="Layer 2" xmlns="http://www.w3.org/2000/svg" viewBox="0 0 77.23 117.3">
  <defs>
    <style>
      .cls-1 {
        fill: #000;
        stroke-width: 0px;
      }
    </style>
  </defs>
  <g id="illustrations">
    <g>
      <path class="cls-1" d="M43.53,90.17s.04-.07.05-.1c-.13.17-.26.33-.38.5-.48.69-.96,1.4-1.44,2.09-.41.59-.84,1.18-1.27,1.76-.18.24-.31.5-.43.76-.08.18-.21.35-.25.53-.03.11.06.26.09.39.09-.05.19-.09.26-.15.09-.07.16-.16.22-.26.35-.51.69-1.03,1.04-1.53.28-.4.6-.76.85-1.17.38-.59.69-1.22,1.07-1.8.09-.13.17-.26.25-.39-.16-.17-.18-.43-.08-.64Z"/>
      <path class="cls-1" d="M76.82,73.61c.15-.09.26-.23.41-.37-.11-.06-.18-.1-.25-.14,0-.02.01-.03.02-.05h.23c-.08-.1-.18-.15-.28-.18-.18-.06-.22-.14-.11-.3.4-.59-.13-1.53-.78-1.62-.27-.04-.54-.04-.81-.02-.26.01-.46.13-.58.39-.04.08-.13.14-.18.21-.08.12-.2.23-.22.36-.04.31-.03.61.21.88.17.18.03.46-.21.48-.36.03-.73.05-1.09.07-.01,0-.02-.02-.03-.02.06-.02.11-.03.16-.05-.08-.05-.15-.06-.22-.08-.38-.1-.8,0-1.17-.24-.21-.13-.55-.04-.68.11-.29-.26-.56-.56-1.02-.41-.05.02-.12-.01-.17-.05-.36-.28-.8-.33-1.22-.43-.3-.07-.59-.19-.88-.29.04-.13.07-.2.09-.27-.29.18-.51.07-.72-.1-.11-.08-.27-.22-.34-.19-.24.1-.32-.1-.47-.18-.04-.02-.1-.05-.14-.03-.21.09-.32-.04-.45-.16-.12-.11-.25-.28-.39-.29-.25-.01-.41-.14-.6-.24-.33-.18-.68-.32-1.02-.48-.07-.03-.13-.08-.19-.13,0-.01.01-.02.02-.03.09.02.17.04.26.06-.13-.18-.28-.32-.44-.43-.05-.04-.18-.04-.22,0-.17.16-.29.01-.33-.08-.13-.31-.29-.51-.58-.38-.53-.47-1.02-.9-1.53-1.35.03.1.06.19.09.28-.85-.31-1.43-.94-2.01-1.59.13.19.25.39.37.57-.32-.24-.63-.48-.95-.72-.05-.04-.1-.09-.11-.14-.06-.25-.2-.28-.41-.17-.05.03-.11.03-.16.04-.06-.08-.1-.15-.14-.2.03-.1.05-.19.1-.33-.22.11-.37.18-.48.23-.67-.56-1.32-1.11-1.97-1.66.03-.01.07-.03.1-.04.01-.09.03-.18.04-.27-.03,0-.06-.02-.09-.03-.06.08-.11.17-.19.28-.11-.08-.23-.14-.3-.24-.36-.51-.87-.85-1.3-1.28-.4-.41-.79-.82-1.18-1.23-.12-.13-.21-.34-.36-.4-.41-.18-.52-.62-.83-.88-.36-.3-.53-.8-.99-1.01-.09-.04-.14-.17-.2-.27-.14-.22-.28-.44-.43-.66-.27-.4-.77-.61-.9-1.13h-.39c0-.13,0-.22-.03-.29-.03-.08-.11-.13-.16-.21-.16-.24-.3-.49-.46-.73-.09-.13-.2-.26-.32-.37-.04-.04-.13-.05-.19-.06-.04,0-.1.02-.11,0-.09-.14-.18-.28-.26-.43-.04-.08-.05-.18-.09-.25-.08-.14-.17-.28-.26-.42-.15-.22-.29-.45-.45-.67-.11-.16-.26-.3-.36-.46-.16-.26-.29-.54-.46-.79-.48-.71-.96-1.4-1.32-2.19-.28-.62-.65-1.19-.97-1.79-.22-.42-.44-.84-.62-1.27-.2-.48-.35-.99-.54-1.48-.13-.34-.3-.66-.42-1-.15-.44-.28-.9-.39-1.35-.23-1.02-.47-2.04-.48-3.1,0-.54-.14-1.09-.21-1.63-.07-.59-.34-.75-.84-.39-.01,0-.03,0-.04,0-.05-.13-.12-.26-.15-.39-.02-.08,0-.19.05-.25.19-.21.4-.4.54-.54-.08-.12-.12-.2-.18-.28-.24-.32-.11-.6.07-.88.21-.32.16-.53-.16-.7-.08-.04-.16-.1-.24-.15-.54-.33-.87-.78-.78-1.44.03-.23.11-.46.14-.69.04-.35-.12-.71,0-1.06,0-.01,0-.03,0-.05-.02-.45-.05-.89-.05-1.34,0-.4.03-.81,0-1.21-.04-.83-.08-1.66-.15-2.49-.03-.37,0-.74.03-1.1.03-.54.08-1.09.13-1.63,0-.1.12-.23.09-.3-.09-.21.03-.38.03-.57,0-.29.06-.59.09-.88.01-.15.02-.29.03-.46-.03-.01-.11-.04-.19-.07.02-.17.04-.32.06-.47.06-.52.16-1.04.08-1.57-.06-.41-.09-.84-.03-1.24.04-.29,0-.54-.08-.8-.05-.17-.06-.36-.08-.54-.02-.14-.01-.29-.04-.43-.05-.26-.11-.51.16-.71-.25-.15-.22-.38-.23-.6-.02-.48-.03-.96-.06-1.43,0-.18-.05-.36-.05-.55,0-.41.04-.81.06-1.22.02-.7.04-1.4.05-2.09.02-.87.06-1.74-.08-2.62-.07-.43-.01-.88-.01-1.39.18.07.3.08.36.15.29.31.67.42,1.04.57.19.08.4.22.49.39.17.34.49.49.75.72.02.02.08,0,.09,0,.02-.18.04-.33.04-.48,0-.06-.02-.15-.06-.19-.2-.23-.41-.46-.63-.67-.4-.38-.81-.75-1.23-1.12.41-.25.88-.26,1.39-.19,0-.16-.01-.28,0-.4.01-.08.04-.2.1-.24.52-.33,1.05-.65,1.57-.98.14-.09.26-.2.39-.31,0-.04-.02-.07-.03-.11-.22-.03-.46-.14-.65-.08-.39.12-.77.31-1.12.52-.8.5-1.63.91-2.63,1.12.02-.18.02-.34.07-.48.17-.49.4-.96.54-1.46.08-.28.03-.61,0-.91-.05-.58-.26-1.11-.64-1.57-.1.22-.08.43-.05.67.07.71.05,1.43.02,2.14-.01.38-.11.76-.16,1.13-.91-.14-1.19-.8-1.38-1.53-.27.05-.32.2-.25.4.07.21.16.41.25.64-.47.08-1.02-.08-1.35.48.09,0,.13,0,.17,0,.52-.07.96.07,1.35.43.37.33.35.56-.08.78-.59.3-1.19.59-1.77.9-.75.39-1.5.79-2.25,1.19-.12.06-.27.12-.34.22-.05.06,0,.21.03.31.01.04.14.05.2.04.18-.04.35-.15.53-.16.54-.03.96-.43,1.54-.4.37.02.75-.29,1.12-.48.62-.32,1.22-.67,1.84-.98.34-.18.44-.1.41.28-.01.16-.1.31-.12.46-.02.22-.27.35-.2.63.09.37.09.77.09,1.16-.01.93-.05,1.85-.09,2.78,0,.11-.08.22-.1.28-.01.22-.03.38-.03.54,0,.16.04.31.04.47,0,.11-.02.22-.04.32-.01.07-.07.13-.07.19.01.7.03,1.4.06,2.1.02.57.04,1.15.06,1.72.02.55.04,1.09.06,1.64,0,.03,0,.05,0,.08.03.67.07,1.34.1,2.01.02.46.04.92.06,1.38.02.48.08.96.03,1.44-.06.57-.08,1.13-.01,1.65-.06.08-.15.15-.15.21,0,.49,0,.98.02,1.47.03.69.08,1.37.12,2.06.05,1.04.09,2.07.14,3.11,0,.19.04.38.04.57.01.27,0,.55.02.82.03.29.11.58-.23.76-.08.04-.11.15-.18.22-.06.06-.13.14-.19.14-.33-.02-.54.28-.84.32-.04,0-.07.09-.1.13.16.17.32.34.42.44-.12.23-.21.42-.31.6-.07.12-.07.2.04.29.12.1.22.23.32.35.21.26.14.57.15.93-.17-.1-.31-.18-.45-.26,0-.15-.05-.28-.12-.4-.04-.06-.11-.11-.17-.16-.05.06-.13.12-.15.19-.03.14-.03.29-.02.44.03.28-.04.36-.34.31-.25-.04-.32,0-.31.27.02.37.07.74.09,1.11,0,.17,0,.33.14.45.04.03.04.1.05.16-.01,0-.03.02-.04.03-.02-.05-.04-.1-.06-.15-.06.33-.05.62-.07.91-.01.15-.12.3-.13.45-.03.34-.09.67-.18.99-.16.8-.42,1.57-.73,2.31.05-.01.1-.03.16-.04,0,.27-.31.77-.57.94-.02.04-.04.08-.06.12.04.03.08.06.12.09-.37.69-.74,1.37-1.11,2.07-.05-.04-.07-.07-.1-.11-.06.11-.12.21-.18.32.07.09.08.2,0,.33-.06.09-.09.19-.16.27-.14.2-.42.39-.42.58,0,.2-.09.28-.2.34-.03.06-.05.11-.08.17.03,0,.05.01.09.02-.2.37-.4.72-.59,1.06-.05.12-.11.23-.16.35-.21.43-.47.85-.79,1.21-.02.03-.03.06-.04.09-.04.07-.1.14-.16.2-.07.06-.17.1-.21.17-.28.45-.54.92-.82,1.37-.55.88-1.1,1.75-1.66,2.62-.26.41-.55.81-.83,1.21-.08.11-.19.2-.28.31-.36.47-.71.95-1.06,1.43-.18.25-.32.51-.5.76-.14.2-.31.39-.5.62.06.12-.05.26-.19.38-.09.08-.19.16-.25.26-.25.36-.49.72-.74,1.08-.2.28-.42.56-.61.84-.19.28-.34.59-.54.86-.29.38-.61.74-.93,1.09-.43.47-.84.96-1.32,1.39-.54.49-1.13.93-1.72,1.37-.26.2-.56.34-.85.5-.16.09-.33.16-.48.26-.64.38-1.28.78-1.93,1.16-.47.27-.95.52-1.42.79-.4.23-.8.46-1.2.69-.3.17-.61.33-.9.52-.51.32-1.12.32-1.64.53-.04.14-.09.27-.18.36-.05.05-.16.06-.24.08-.02-.03-.03-.07-.05-.1.11-.08.21-.16.32-.25-.12-.03-.25-.04-.29.02-.26.34-.66.3-1.01.4-.43.13-.84.33-1.27.47-.21.07-.44.09-.66.14-.61.15-1.23.3-1.84.45-.11.03-.24-.03-.35-.02-.36.04-.72.1-1.13.16.09-.16.18-.28.23-.41.12-.31-.09-.56-.2-.82-.08-.21-.25-.43-.22-.62.05-.27-.11-.36-.24-.5-.08-.09-.15-.25-.22-.25-.41,0-.83,0-1.22.12-.22.07-.42.32-.55.54-.15.27-.35.44-.67.5.05.16.11.3.15.43.13.42.25.85.41,1.27.17.46.36.92.23,1.41-.08.32-.02.62,0,.93.06.58.2,1.17.15,1.74-.09.91.08,1.79.17,2.68.03.26.09.51.16.75.42.19.78.48,1.13.79,0-.06-.02-.11-.02-.18.24.12.44.2.6.32.22.16.41.37.63.54.52.38,1.03.78,1.57,1.12.59.37,1.21.68,1.81,1.02.04.02.05.09.08.14.06-.01.17-.06.25-.04.17.06.33.15.48.26.06.04.11.15.11.24.04.49.05.98.09,1.47.02.17.11.34.17.52-.1.04-.15.05-.21.08-.4.17-.79.36-1.01.75-.11.21-.24.43-.12.69.13.28.28.57.37.87.11.37.27.66.71.66,0,0,.02.01.06.05-.28,0-.53-.01-.78,0-.08,0-.23.12-.23.13.06.17-.04.34,0,.51.2.95-.37,2.11-1.26,2.56.08-.21.16-.41.24-.62.05.03.09.06.14.09.31-.46.38-1.26.06-1.49-.16.48-.32.94-.49,1.43-.07-.06-.11-.09-.13-.11-.44.46-.88.9-1.29,1.33.06.11.12.17.12.23,0,.4-.04.8-.03,1.2,0,.18.02.39.12.52.24.32.54.59.8.89.45.52.89,1.04,1.33,1.57.23.28.45.54.87.51.21-.02.43-.04.62.16.17.18.41.03.42-.22,0-.08.02-.17.03-.25.02-.15.09-.33.04-.44-.1-.21.05-.3.15-.35.62-.32,1.19-.69,1.68-1.18.17-.17.3-.37.49-.62-.31-.07-.53-.12-.76-.17.26-.41.51-.82.79-1.26.02.27.04.52.06.78.16-.59,0-1.13-.22-1.65-.06-.15-.25-.25-.32-.4-.24-.53-.67-.91-1.07-1.31-.11-.11-.21-.23-.32-.34.02-.02.03-.03.05-.05,0,0,0,0,.01,0-.09-.1-.17-.21-.24-.33-.05-.08-.07-.17-.07-.25-.03-.03-.06-.05-.09-.08-.19-.23-.33-.51-.49-.78.05,0,.11,0,.16,0,.33-.06.7-.02.82-.49.07-.25.29-.47.43-.7.04-.07.09-.17.08-.24-.06-.42-.08-.85-.48-1.12-.06-.04-.11-.15-.11-.23.01-.49.08-.95.49-1.29.16-.11.34-.19.46-.33.16-.19.22-.12.27,0,.1,0,.18-.03.24-.02.83.14,1.65.29,2.48.43.32.06.65.13.98.16.49.05.98.05,1.47.1.38.04.76.16,1.14.21.95.13,1.9.27,2.85.36.97.09,1.95.17,2.92.17,1.21,0,2.42-.11,3.63-.17.21-.01.42-.06.63-.09.56-.07,1.12-.15,1.67-.22.54-.07,1.08-.13,1.63-.19.1-.01.21.01.28-.03.3-.17.62-.11.94-.11.07,0,.19.09.21.15.06.25.08.5.11.75.06.45.17.87.45,1.24.2.26.37.55.55.82-.09.06-.16.1-.21.14.04.1.1.19.1.27,0,.26.12.46.3.65.54.52,1.07,1.05,1.58,1.61.47.52.86,1.12,1.36,1.62.44.43.82.9,1.18,1.39.52.7,1.03,1.41,1.53,2.12.11.16.3.33.02.52-.02.01,0,.08,0,.12.01.13.02.26.03.41-.08,0-.13-.01-.19-.02-.05.2-.12.39-.15.59-.04.3-.12.61-.07.9.14.7-.03,1.39.02,2.09,0,.05-.03.1-.05.14-.08.15-.17.29-.26.43-.05.07-.11.14-.18.2-.35.28-.67.55-.66,1.09.02.64.08,1.26.22,1.87.06.25.16.45.39.57.03.02.04.07.06.1-.24.31-.51.53-.88.67-.64.25-1.16.67-1.38,1.38-.11.36-.29.71-.38,1.07-.11.45-.19.92-.21,1.39-.01.34.02.38-.22.35-.02.07-.04.15-.06.22.08.38.31.68.57.94.3.31.51.68.79,1.01.19.22.26.54.4.8.04.08.12.16.2.21.36.2.55.55.69.89.15.34.29.66.61.9-.04.05-.08.09-.11.14.11.05.26.07.28.14.12.33.35.26.58.18.53-.19,1.08-.36,1.55-.69.31-.22.44-.42.33-.75-.13-.41-.08-.46.33-.56.18-.04.35-.16.49-.29.17-.16.23-.39.29-.63.08-.29.31-.54.42-.83.17-.42.32-.85.12-1.31-.06-.13-.12-.26-.17-.4-.03-.09-.02-.2-.07-.27-.08-.15-.2-.27-.29-.41-.35-.5-.6-1.06-.86-1.61-.23-.49-.44-1.01-.92-1.33-.06-.04-.12-.13-.11-.19.02-.26-.11-.43-.32-.57-.26-.17-.58-.31-.5-.68.08-.09.14-.15.2-.23.15-.2.27-.44.46-.59.42-.31.75-.63.68-1.21-.03-.21-.06-.42-.11-.63-.05-.24-.23-.33-.46-.4-.21-.06-.35-.16-.34-.44.01-.23-.07-.47-.15-.69-.29-.75-.39-1.52-.27-2.31.03-.19.08-.42.37-.46.14-.02.25-.2.39-.32-.41-.2-.38-.22-.21-.58.02-.05.05-.08.08-.11-.07-.3-.07-.62.01-.92.04-.13.09-.26.16-.38-.08-.05-.15-.09-.22-.14-.1-.07-.15-.16-.02-.28.12-.11.25-.25.31-.39.09-.21-.19-.57-.43-.6-.09.19-.18.38-.28.59-.05-.3-.43-.44-.23-.84-.14.08-.2.12-.3.17-.16-.21-.32-.42-.48-.62-.42-.52-.83-1.05-1.26-1.56-.32-.38-.67-.74-1-1.11-.28-.32-.56-.63-.84-.95-.12-.13-.3-.23-.19-.47.02-.04-.1-.15-.16-.23,0,0-.03.01-.05.02.01.07.03.14.06.29-.62-.31-.97-.78-1.32-1.26.52.16,1.02.35,1.36.82-.09-.19-.19-.36-.33-.47-.4-.31-.82-.59-1.23-.89-.08-.06-.14-.18-.14-.28-.01-.81-.01-1.62,0-2.42,0-.19.02-.41.11-.57.14-.25.33-.48.52-.7.11-.14.25-.27.37-.4.03.02.06.04.09.06-.02.18-.05.37-.07.55.09-.34.32-.56.56-.78.17-.16.31-.37.4-.58.06-.16.12-.18.26-.15.28.05.46-.07.56-.33.04-.09.11-.17.16-.27.17-.32.34-.63.48-.96.03-.08-.03-.23-.1-.31,0,0,0,0-.01,0-.12.06-.25.07-.37.04,0,0-.01,0-.02-.01-.24.13-.42.32-.57.57-.14.24-.39.42-.57.64-.15.18-.29.35-.57.32-.1.77-.74,1.12-1.18,1.7-.03-.14-.05-.19-.06-.24-.1-.66-.19-1.32-.29-1.98-.08-.54-.21-1.07-.26-1.61-.04-.5.03-1.01-.02-1.51-.04-.37.15-.54.39-.69.16-.1.35-.17.5-.23.04-.06.07-.16.13-.19.27-.11.54-.2.81-.28.33-.09.66-.15.99-.22.25-.06.5-.14.76-.19.08-.01.18.03.25.08.22.19.42.39.62.59.04.04.05.11.05.16,0,.42,0,.85.02,1.27,0,.26.03.52.06.77.04.34.08.67.15,1,.05.24.17.47.24.7.07.23.12.46.18.69.02.07.04.15.09.19.2.17.29.14.48-.17.1.06.22.11.3.18.43.4.85.8,1.26,1.21.63.64,1.34,1.13,2.13,1.55.57.3,1.1.66,1.64,1,.17.11.32.24.48.37-.01.01-.07.05-.06.07.04.26.07.52.13.77.06.25.09.49.03.72.15-.26.3-.52.45-.79.06-.11.13-.23.18-.34.03-.05.05-.1.08-.16.01-.03.02-.05.04-.08,0-.01,0-.02.01-.03.1-.24.17-.48.22-.73.01-.06.04-.1.07-.14-.16-.06-.33-.13-.38-.24-.06-.15-.08-.3-.1-.45.04.06.09.1.17.13.84.24,1.69.43,2.54.59.01,0,.03.02.04.03,0,0,.01,0,.02-.01.47.09.94.17,1.42.24,0,0,0,.02,0,.02.11.14.55.19.84.1.27.03.53.06.8.09,0,0,0,0,0,0,0,.04.01.09.02.13.14-.03.28-.05.42-.08,0,0,0,0,0,0,.44.04.89.07,1.33.1.18.14.34.15.51.1.09-.02.2-.05.28-.02.15.06.27.04.39-.02.21,0,.42.02.63.03,0,.01-.01.02-.02.04.09-.01.17-.02.25-.03.43.01.86.02,1.29.02.13.06.27.12.4.17.01-.04.02-.07.03-.11-.05-.02-.11-.05-.16-.07.24,0,.49,0,.73,0,.11.07.2.15.24.13.07-.04.15-.09.22-.13.04,0,.09,0,.13,0,.49-.01.99-.02,1.48-.04,0,.17.09.16.38.09-.02-.03-.05-.07-.07-.1,3.06-.1,6.17-.39,8.99-1.6-.08.05-.16.11-.24.16.23.11.24.1.4-.08.11-.12.17-.3.4-.24.46.13.9.03,1.28-.21-.02.65-.05,1.3-.07,1.95-.19-.04-.38.03-.56.13-.2.11-.2.3-.17.5,0,.06-.08.13-.13.23,0,.01.03.08.07.14.17.26.13.4-.16.5-.16.05-.24.15-.13.31.27.4.57.76,1.02.98.05.02.08.08.12.12-.05.04-.1.09-.15.12-.08.05-.17.08-.23.15-.6.64-1.09,1.36-1.43,2.18-.03.07-.07.14-.12.2-.49.62-.72,1.31-.52,2.09.06.24.26.45.43.74.05-.13.07-.18.11-.26.3.39.52.73.79,1.02.59.61,1.14,1.25,1.79,1.79.42.34.85.52,1.38.42.07-.01.15-.05.21-.1.15-.12.23-.25.14-.47-.11-.28.09-.5.21-.74.26-.51.48-1.04.72-1.56.16-.35.38-.67.52-1.03.13-.33.28-.68.14-1.06-.11-.3-.2-.61-.29-.93-.04-.14.06-.32-.12-.43.03-.05.06-.09.1-.15-.05-.05-.12-.09-.15-.14-.48-.78-1.1-1.41-1.9-1.85-.03-.02-.06-.04-.08-.07-.13-.26-.26-.51-.37-.73.13-.19.27-.34.34-.52.03-.08-.01-.24-.08-.31-.19-.21-.35-.41-.34-.72,0-.26-.08-.52-.12-.78-.07.15-.08.3-.1.45-.03.16-.13.25-.29.16.01-.03.02-.06.02-.1.03-.79.06-1.57.09-2.36,0-.08-.03-.16-.09-.22.33-.17.68-.26,1.1-.17.23.05.43-.05.56-.29.12-.22.56-.4.75-.3.16.08.27.04.38-.04.34-.26.73-.42,1.14-.54.29-.09.55-.24.72-.5.13-.2.44-.3.37-.62.23-.05.19-.2.14-.36,0-.01.01-.03.02-.04.06.03.12.07.16.1.12-.31.24-.6.35-.89.09-.24.2-.49.23-.74.05-.5.04-1.01.06-1.51.02-.4.03-.8.1-1.19.05-.29,0-.63.29-.85.05-.04.05-.2.02-.29-.05-.12-.14-.21-.23-.33.07-.06.15-.13.24-.21-.17-.22-.33-.43-.51-.65.43-.3.06-.51-.06-.74q.52-.39.43-1.01c-.09-.62-.09-.62.45-.95ZM39.2,108.93c.35.38.66.81.93,1.25.32.5.65.99.86,1.55.09.04.19.08.28.12-.04.38-.08.75-.13,1.12,0,.02-.04.03-.07.04-.03.1-.08.19-.13.27-.06.14-.16.27-.28.33,0,0-.02.02-.02.02-.1.08-.22.13-.35.14-.22.12-.4.28-.51.56-.05.12-.23.21-.36.29-.34.2-.55.5-.69.86-.03.07.02.17.04.31-.3-.16-.59-.29-.85-.47-.12-.08-.16-.26-.24-.39-.15-.23-.31-.46-.47-.7-.09-.14-.16-.28-.26-.41-.2-.27-.41-.53-.61-.81-.16-.22-.29-.43-.24-.74.05-.32-.02-.66-.03-1-.01-.35.08-.67.26-.98.12-.2.23-.4.23-.66,0-.49.21-.91.64-1.28,0,.04.01.08.02.12.15-.19.37-.32.68-.31.52.01.96.41,1.29.77ZM38.98,104.48c-.12.18-.23.37-.36.54-.05.07-.12.12-.19.17-.04.03-.09.06-.14.06-.2,0-.53-.42-.46-.6.1-.25.16-.53.5-.63.42-.12.59-.01.65.47ZM38.82,43.64c.02-.31.15-.61.19-.92.03-.3,0-.61,0-.91,0-.35.01-.7.03-1.05,0-.03.03-.06.12-.09.04.23.09.45.11.68.03.51.02,1.02.08,1.52.05.38.21.74.27,1.11.11.63.18,1.26.26,1.89,0,.03,0,.07.02.1.33.71.29,1.5.43,2.25.08.4.21.79.31,1.19.22.83.41,1.67.67,2.49.25.76.56,1.5.89,2.23.49,1.06,1.01,2.11,1.55,3.15.22.41.54.77.81,1.15.08.11.15.23.26.33-.01-.06-.02-.12-.03-.18.02-.01.03-.02.05-.03.11.19.24.37.33.57.13.27.21.57.37.82.13.22.35.38.52.58.27.32.53.65.79.98.32.4.64.79.96,1.2.27.34.51.7.79,1.04.15.18.34.33.51.49.24.23.48.46.72.69.09.09.19.21.3.23.21.04.15.17.19.25.11.11.22.21.32.33.11.13.1.13.24.04.02-.02.08-.03.08-.03.13.17.26.35.38.52,0,0-.05.06-.06.07.2.19.4.39.61.59.02-.04.04-.09.06-.13.17.17.34.34.57.56v-.22c.27.19.53.38.78.55-.07.1-.13.17-.18.25.01.03.02.05.03.08.13-.02.26-.05.39-.06.21-.01.62.39.71.65.03.08.11.15.19.2.1.08.2.16.31.22.21.12.43.23.69.37q-.04-.27-.33-.21c.02-.09.04-.17.07-.26-.12-.09-.24-.17-.36-.26,0-.02.01-.03.02-.05.07,0,.13,0,.2,0,0-.02,0-.03.01-.05-.11-.02-.23-.04-.35-.07-.08-.27-.22-.47-.55-.46-.04,0-.09-.03-.13-.06-.3-.27-.56-.61-.9-.8-.43-.24-.74-.55-1.04-.92-.32-.4-.69-.76-1.02-1.15-.15-.18-.25-.4-.41-.58-.16-.18-.35-.33-.52-.5-.15-.15-.28-.32-.43-.47-.11-.11-.25-.18-.34-.29-.3-.38-.53-.84-.9-1.15-.56-.49-.9-1.12-1.34-1.69-.17-.22-.29-.53-.64-.56-.06,0-.11-.14-.16-.22-.19-.31-.38-.61-.58-.92-.18-.28-.39-.54-.56-.82-.28-.48-.54-.98-.81-1.46-.39-.7-.82-1.38-1.15-2.11-.52-1.17-.97-2.37-1.43-3.56-.12-.31-.15-.66-.26-.98-.09-.26-.27-.48-.33-.74-.17-.67-.3-1.35-.44-2.03-.1-.5-.2-1-.24-1.51.04.16.08.31.12.47.1.37.21.73.3,1.1.06.27.08.55.15.82.02.09.12.16.19.24.12.11.28.2.36.33.66,1.14,1.3,2.29,2.13,3.32.25.31.47.64.66.99.11.19.13.43.22.64.04.08.16.13.24.19.12.09.27.16.34.28.17.26.28.56.45.82.08.13.26.19.33.31.65,1.19,1.64,2.1,2.47,3.15.69.88,1.51,1.63,2.32,2.4.49.47.96.98,1.39,1.52.21.26.46.44.69.66.16.15.28.34.44.49.09.09.21.17.33.19.17.02.28.07.38.22.09.12.25.22.39.27.34.11.55.35.72.63.02.04.02.09.04.13l.08-.08c-.05-.16-.09-.32-.14-.48.02-.01.03-.03.05-.04.13.17.26.33.38.51.12.18.22.37.49.39.12.01.25.15.32.27.15.23.34.37.61.43.11.03.21.14.31.22.22.18.44.36.66.55.04.03.06.1.09.15-.06.02-.11.05-.17.07-.01.02-.02.04-.03.06.11.04.23.07.33.14.27.17.55.32.78.53.2.18.35.43.49.62h.39c-.1-.08-.21-.17-.31-.26l.07-.09c.28.22.56.43.85.65.1.07.2.23.25-.04.41.32.82.6,1.26.69.12.1.2.18.29.25.59.38,1.17.77,1.77,1.14.55.34,1.13.64,1.69.96.23.13.45.28.68.42.07.04.15.06.23.06.44.01.8.21,1.16.43.09.05.22.04.33.06.23.05.47.06.67.16.21.1.5.15.55.47,0,.05.17.07.33.12.1.28.35.35.7.23.19-.06.39-.06.59-.08.05,0,.11,0,.14.04.26.3.56.15.85.09.03,0,.06-.02.1-.02.01,0,.03.01.07.03-.05.05-.09.1-.15.17.08.03.14.09.18.07.26-.11.46.09.69.13.32.05.65.07.86-.12.17.11.3.24.44.28.14.03.37.09.34-.31.14.18.21.28.31.41,0-.1.01-.15.02-.23.18.15.36.28.51.43.03.03-.04.14-.07.24.08.04.21.11.37.19-.3.17-.55.32-.8.45-.06.03-.15,0-.22-.01-.29-.07-.58-.18-.88-.23-.56-.08-1.12-.12-1.68-.18-.57-.07-1.14-.16-1.71-.24-.29-.04-.59-.07-.89-.09-.11,0-.21,0-.32,0,0,.03,0,.06,0,.1l1.83.26s0,.05-.01.08c-1.18-.09-2.37-.16-3.53-.58-.2.25-.45.02-.67-.04-.38-.1-.75-.26-1.13-.38-.07-.02-.17.04-.26.07-.13-.1-.28-.21-.46-.35,0,.17.17.45-.16.27-.02-.01-.1.09-.16.14-.12,0-.29-.06-.43-.02-.08.02-.11.19-.18.33.3.04.5.41.84.11.15.44.55.31.87.38.04,0,.1-.02.12,0,.44.31.98.21,1.45.38.15.05.32.06.44.15.28.22.57.18.87.1.19-.05.33,0,.51.09.29.16.61.28.97.13.29-.12.54.11.81.17.16.04.33.06.49.04.26-.03.51-.13.77-.16.17-.02.34.03.52.03.06,0,.16-.03.18-.07.11-.28.28-.17.35-.01.12.23.27.22.47.19.3-.05.61-.07.91-.1.06,0,.12.05.18.09.12.07.24.14.41.24-.08.11-.15.28-.28.38-.59.46-1.2.9-1.8,1.35-.14.1-.3.18-.44.29-.39.3-.84.39-1.31.49-.32.06-.63.17-.95.26-.03,0-.07.05-.09.04-.4-.2-.73.08-1.1.13-.77.11-1.55.24-2.32.37-.11.02-.22.09-.28.12-.2-.02-.36-.06-.51-.04-.87.11-1.75.22-2.62.35-.91.14-1.72-.13-2.51-.53-.66-.33-1.34-.62-2-.96-.41-.21-.77-.5-1.17-.74-.27-.16-.55-.3-.83-.45-.07-.04-.13-.08-.2-.12-.33-.2-.65-.41-.98-.61-.27-.17-.53-.36-.8-.53-.13-.08-.28-.14-.4-.23-.69-.5-1.39-.98-1.95-1.63-.39-.45-.75-.92-1.17-1.34-.34-.34-.74-.62-1.12-.92-.33-.27-.66-.53-.99-.8-.02-.02-.04-.04-.05-.06-.56-.6-1.15-1.17-1.66-1.81-.46-.57-.82-1.22-1.22-1.83-.35-.53-.7-1.05-1.03-1.59-.32-.51-.63-1.02-.94-1.53-.36-.61-.74-1.22-1.06-1.85-.37-.71-.7-1.44-1.04-2.17-.2-.43-.4-.86-.57-1.3-.2-.52-.37-1.05-.55-1.57-.34-1-.52-2.04-.73-3.07-.19-.93-.3-1.87-.49-2.8-.15-.74-.37-1.47-.54-2.21-.15-.66-.3-1.32-.41-1.99-.09-.55-.15-1.1-.18-1.65-.02-.56,0-1.13.04-1.69ZM65.76,74.35s-.02.04-.03.05h-.31c-.03-.12-.06-.22-.09-.33.01-.02.03-.03.04-.05.13.11.26.22.39.33ZM40.4,57.9c-.06-.47.02-.93.21-1.4.04.1.09.2.12.31.18.64.35,1.28.53,1.92.04.16.08.31.13.47.17.51.35,1.03.54,1.54.02.05.09.08.12.13.05.09.09.19.16.35.06.07.22.18.28.34.12.3.19.62.28.92,0,.03.02.07.04.09.23.21.36.45.41.76.02.16.22.3.32.46.23.36.46.72.68,1.09.29.48.55.97.85,1.44.15.24.36.43.52.66.1.15.14.33.21.5.17.43.43.79.75,1.12.15.16.23.4.37.58.24.32.5.62.75.93.02-.01.04-.02.06-.03,0-.04,0-.07-.02-.14.36.34.77.57.92,1.07.08.26.29.48.61.53.09.01.17.08.24.13.07.05.12.16.19.18.24.07.33.27.45.45.05.07.11.12.18.17.12.09.26.16.35.27.38.46.74.94,1.13,1.39.36.41.72.83,1.14,1.17.59.48,1.23.91,1.86,1.34.64.43,1.29.85,1.94,1.25,1.03.64,2.07,1.26,3.11,1.88.2.12.44.15.66.23.13.05.25.13.37.19,0,.03,0,.07-.01.1-.18.04-.36.12-.53.12-.58,0-1.18-.08-1.74,0-.44.06-.86.02-1.28.04-1.05.06-2.1.1-3.16.14-.13,0-.27-.05-.4-.06-.14-.01-.28-.02-.41,0-.57.1-1.03-.25-1.54-.4-.75-.21-1.5-.45-2.24-.7-.5-.17-.99-.38-1.47-.59-.32-.14-.63-.33-.94-.49-.29-.15-.59-.27-.86-.45-.26-.17-.49-.39-.73-.59-.01-.01-.03-.03-.04-.03-.44,0-.57-.41-.83-.64-.54-.48-.75-1.19-1.04-1.83-.23-.51-.39-1.05-.56-1.59-.2-.64-.38-1.29-.55-1.95-.17-.63-.31-1.27-.47-1.9-.07-.28-.19-.55-.26-.83-.06-.26-.06-.53-.09-.79-.03-.23-.05-.46-.09-.69-.22-1.26-.45-2.53-.65-3.79-.09-.58-.11-1.16-.18-1.74-.08-.73-.2-1.46-.27-2.2-.04-.39,0-.8-.02-1.19,0-.09-.07-.18-.08-.27ZM1.95,72.56c.08-.27.14-.28.31-.07.17.21.31.46.28.75-.03.2-.32.41-.52.38-.08-.01-.17-.04-.29-.07.08-.35.14-.68.23-1ZM2.26,74.8c.45-.16.89-.33,1.35-.47.26-.08.55-.08.82-.14.36-.08.71-.2,1.08-.27.36-.07.73-.09,1.09-.15.21-.04.41-.1.61-.17.52-.17,1.05-.32,1.56-.51.49-.18.97-.41,1.44-.62.23-.1.44-.25.71-.17.04.01.11,0,.15-.03.25-.16.5-.24.82-.21.21.02.44-.13.64-.23.5-.24.99-.48,1.48-.74.11-.06.18-.2.29-.26.54-.3,1.08-.59,1.63-.87.25-.13.51-.21.77-.33.45-.21.9-.4,1.34-.64.58-.32,1.19-.63,1.71-1.04.59-.46,1.1-1.01,1.63-1.53.23-.22.43-.47.63-.72.54-.68,1.07-1.37,1.61-2.05.01-.06.03-.12.06-.18.53-.87,1.18-1.68,1.73-2.54-.11.09-.21.19-.32.29,0-.01,0-.02,0-.03.44-.6.88-1.2,1.31-1.8.22-.34.44-.69.66-1.03,1.06-1.6,2.17-3.16,3.4-4.63.18-.39.36-.78.57-1.15.39-.72.83-1.42,1.22-2.14.54-.99,1.06-1.99,1.59-2.97.21-.39.45-.77.67-1.15.18-.31.34-.63.51-.94.04-.07.09-.14.14-.21.02,0,.04.02.06.02-.03.13-.06.25-.1.38-.17.62-.35,1.23-.53,1.84-.22.74-.44,1.48-.65,2.23-.12.43-.22.86-.35,1.29-.24.77-.46,1.56-.75,2.31-.3.77-.68,1.51-1.02,2.26-.13.29-.26.59-.37.89-.24.68-.62,1.28-1.01,1.87-.74,1.11-1.49,2.22-2.24,3.32-.26.37-.55.72-.82,1.09-.04.05-.04.13-.06.19-.05.11-.09.2-.24.26-.19.08-.31.31-.45.48-.27.33-.56.65-.78,1.01-.42.7-1.03,1.24-1.57,1.83-.47.52-1.03.97-1.57,1.42-.71.58-1.42,1.16-2.17,1.68-.73.51-1.51.95-2.28,1.41-.75.45-1.51.91-2.28,1.33-.58.31-1.19.57-1.78.86-.42.21-.83.43-1.25.64-.12.06-.27.06-.4.1-.64.18-1.27.37-1.91.53-.62.15-1.25.25-1.86.39-.27.06-.53.16-.77.28-.22.11-.42.2-.66.07-.07-.04-.17-.03-.25-.02-.62.09-1.25.16-1.86.28-.59.12-1.19.06-1.76.16-.62.11-1.1-.12-1.6-.37-.05-.03-.1-.08-.17-.16.23-.09.41-.16.6-.23ZM1.72,76.32c.37.08.68.17,1,.21.18.03.37-.01.55-.03.03,0,.06-.03.07-.02.34.2.7-.11,1.02,0,.38.12.65,0,.97-.17.16-.09.4-.02.6-.05.17-.02.33-.08.5-.11.08-.02.19-.05.24-.02.18.13.25.05.27-.07h.95c.04-.13.19-.12.37-.16.4-.11.79.03,1.17-.07.05-.01.09-.05.13-.08.2-.15.4-.23.67-.24.21,0,.41-.13.62-.2.03-.01.06-.04.09-.04.64.01,1.21-.28,1.8-.46.02,0,.06-.03.07-.02.35.17.53-.11.77-.27.19-.13.4-.25.61-.33.45-.17.94-.26,1.36-.49.33-.18.69-.27,1.01-.43.23-.12.4-.36.61-.54.12-.1.27-.18.42-.25.29-.15.59-.27.86-.45.15-.1.23-.29.38-.49.04.12.07.19.09.23.42-.34.75-.74,1.17-.92.47-.2.8-.53,1.17-.84.04-.03.12,0,.13,0,.28-.24.55-.46.81-.69.1-.09.19-.19.29-.29.06-.05.11-.13.17-.15.44-.1.58-.6.99-.73-.02-.37.32-.44.52-.62.71-.65,1.28-1.41,1.87-2.16.28-.35.61-.67.9-1.01.56-.66,1.12-1.31,1.65-1.99.87-1.13,1.68-2.3,2.32-3.59.38-.77.78-1.53,1.14-2.3.35-.74.67-1.48.98-2.23.24-.58.48-1.17.67-1.78.29-.9.56-1.81.81-2.71.26-.94.51-1.88.73-2.82.19-.8.35-1.61.49-2.42.14-.8.23-1.6.37-2.4.06-.33.21-.65.32-.98.03,0,.07,0,.1.01-.02.29-.03.58-.08.86-.11.65-.24,1.3-.36,1.94-.13.69-.26,1.37-.38,2.06-.1.56-.19,1.12-.27,1.69-.04.29-.02.6-.06.89-.1.71-.2,1.43-.32,2.14-.07.4-.22.8-.23,1.2-.01.45-.22.84-.28,1.27-.06.43-.1.87-.19,1.29-.13.6-.3,1.19-.48,1.78-.03.12-.22.22-.21.31.02.16-.08.24-.11.36-.09.27-.22.54-.27.82-.15.77-.35,1.51-.67,2.22-.08.18-.18.31-.19.53-.02.26-.21.51-.34.76-.18.35-.36.71-.58,1.05-.21.33-.22.68-.16,1.08-.07-.03-.12-.06-.18-.09-.02.29-.05.58-.07.87-.26,0-.31.06-.46.47.08-.05.13-.08.25-.16-.12.21-.21.37-.31.55-.03-.06-.05-.1-.09-.17-.05.12-.09.21-.15.33.11-.02.19-.04.28-.05-.08.31-.53.45-.41.75-.17.33-.3.59-.44.85-.17.33-.36.66-.53.99-.15.29-.29.58-.45.86-.1.16-.23.3-.37.44-.79.77-1.57,1.55-2.37,2.31-.12.12-.28.21-.4.33-.16.16-.16.43-.45.52-.15.05-.26.27-.37.43-.54.75-1.27,1.3-1.95,1.91-.34.3-.72.55-1.11.79-.77.49-1.54.98-2.34,1.41-.93.51-1.87,1.02-2.9,1.32-.38.11-.74.26-1.12.38-.11.04-.24.04-.35.06-.03,0-.08,0-.1,0-.28.26-.64.2-.97.28-.35.09-.7.17-1.05.21-1.16.13-2.31.25-3.47.37-.23.02-.45.08-.68.09-.17,0-.33-.03-.5-.05-.15.03-.33.12-.5.1-.44-.05-.87-.15-1.3-.23-.25-.04-.49-.08-.74-.12-.02.02-.04.04-.06.07.1.06.2.11.3.17-.02.03-.05.06-.07.09-.24-.14-.48-.28-.71-.43-.19-.11-.33-.25-.41-.48-.05-.14-.25-.23-.38-.35-.19-.17-.38-.36-.58-.52-.08-.06-.2-.07-.31-.09-.09-.02-.19-.01-.26-.06-.47-.37-.93-.76-1.39-1.14-.03-.02-.05-.04-.12-.1ZM8.43,92.84c.4.59.79,1.18,1.17,1.78.1.16.14.37.19.51-.02.09-.02.13-.04.15-.34.37-.31.94-.71,1.28-.18.16-.27.43-.41.64-.12.19-.24.37-.36.55-.13.2-.27.4-.38.62-.07.14-.12.23-.29.11-.4-.3-.82-.58-1.21-.88-.21-.16-.42-.33-.57-.54-.17-.26-.23-.59-.41-.85-.23-.33-.01-.47.18-.65.35-.34.7-.69,1.07-1.01.44-.38.78-.82,1-1.36.1-.24.26-.42.52-.46.08-.01.2.04.25.1ZM8.51,89.31c-.04.1-.09.19-.12.29-.07.2-.2.34-.4.3-.13-.03-.25-.16-.33-.28-.25-.4.02-.91.47-.92.42,0,.56.22.38.61ZM9.6,86.88c-.03-.07-.06-.14-.09-.24-.04.05-.08.08-.1.13-.13.34-.25.68-.4,1.02-.03.07-.15.1-.22.14-.03-.06-.09-.13-.09-.19,0-.41,0-.81.13-1.21.06-.18-.05-.41-.09-.62-.02-.08-.06-.15-.04-.26.32.18.64.36.98.55-.23.24-.23.26.06.42-.04.08-.09.17-.13.25ZM31.69,82.77c.04.1,0,.22-.01.34,0,.22,0,.44,0,.65,0,.54,0,1.07-.02,1.61,0,.19-.04.38-.05.57-.02.24-.14.38-.37.4-.58.05-1.16.09-1.75.13-1.12.09-2.23.16-3.35.27-.76.07-1.52.24-2.29.29-.81.05-1.62.01-2.43.02-.27,0-.53.01-.8.02-.09,0-.18,0-.26-.02-.44-.08-.87-.15-1.31-.24-.17-.04-.32-.11-.48-.18-.1-.04-.2-.08-.31-.13,0,0,0-.01,0-.02-.14-.02-.29-.04-.43-.06.06.08.1.2.17.31-.1,0-.14,0-.16,0-.92-.33-1.91-.25-2.85-.48-.72-.18-1.47-.27-2.21-.39-.66-.11-1.32-.2-1.97-.35-.47-.11-.93-.3-1.39-.45-.41-.13-.83-.25-1.25-.37-.03,0-.07-.02-.1-.03-.7-.44-1.48-.68-2.24-.96-.11-.04-.21-.12-.31-.19-.88-.59-1.76-1.18-2.64-1.76-.53-.35-.75-.84-.77-1.47,0-.44-.09-.88-.13-1.32-.03-.29-.06-.58-.1-.93.28.22.55.42.82.63.21.17.4.36.63.5.17.11.38.17.58.22.23.05.49,0,.68.11.22.12.4.18.67.19.42.02.82.24,1.23.37.25.08.51.14.76.24.07.03.11.15.18.25.16-.15.37-.02.6.06.27.09.56.08.84.14.52.12,1.04.3,1.57.4.64.12,1.29.17,1.94.25.16.02.33,0,.49.01.06,0,.13.02.16.06.18.24.43.16.66.16.08,0,.2-.01.23.03.11.17.23.14.38.08.22-.08.45-.15.66-.22,0,.17.17.26.48.26.1,0,.2.03.29.05.04,0,.09.03.13.02.46-.22.94-.04,1.4-.03.13,0,.26.05.39.03.56-.08,1.09.04,1.64.12.14.02.28.01.42,0,.12,0,.24-.06.3.11,0,.03.09.05.14.04.37-.04.74-.09,1.12-.13,0,0-.02-.04-.04-.07.16.03.32.06.45.09.2-.03.4-.05.58-.1.32-.09.63-.22.96-.3.28-.07.58-.11.87-.16.56-.09,1.12-.17,1.67-.27.27-.05.55-.11.82-.17.44-.1.88-.22,1.33-.32.35-.08.7-.12,1.05-.2.61-.13,1.21-.28,1.82-.43.19-.04.37-.1.56-.14.21-.05.38.05.39.26,0,.28-.03.57-.04.86,0,.1-.01.2-.02.31-.01.2,0,.4-.04.6-.05.3-.03.58.08.86ZM37.33,46.89c-.06.51-.12,1.02-.17,1.52-.01.12-.04.25-.02.36.09.48-.04.93-.14,1.39,0,.04-.03.09-.01.12.14.41,0,.81-.03,1.22,0,.07.05.15.06.23.02.37.07.74.05,1.11-.02.25-.16.48-.22.72-.04.15-.08.29.05.48.14.2.16.49.22.74.03.14.02.28.04.42.05.3.01.34-.27.29,0,.01,0,.04,0,.04.22.06.34.17.27.43-.05.22-.05.45-.07.67,0,.01-.01.03-.01.04.03.19.07.39.08.58.02.41.04.83.04,1.24,0,.37-.02.75-.03,1.12,0,.03-.01.08,0,.1.2.34.19.68.04,1.03-.01.02,0,.05,0,.08,0,.56-.01,1.11-.02,1.67,0,.66-.01,1.32-.02,1.99-.01.81-.04,1.63-.05,2.44,0,.3.09.61.04.9-.08.44,0,.87-.03,1.31-.03.63,0,1.25-.03,1.88-.02.43-.12.85-.16,1.28-.01.12.06.24.04.36-.02.19-.09.38-.1.58-.02.42-.04.84-.03,1.26,0,.15.15.3-.07.41-.02,0-.02.04-.02.07-.03.67-.05,1.35-.09,2.02-.03.51-.05.51-.57.57-.08,0-.15.06-.24.1-.11-.18-.26-.12-.41-.04-.13.07-.27.13-.41.19-.38.14-.75.28-1.13.39-.63.18-1.26.34-1.89.52-.33.1-.66.23-1,.31-.16.04-.38-.06-.51.02-.21.13-.4.05-.6.05-.12,0-.24-.05-.36-.07,0-.03-.02-.06-.03-.08.38-.37.76-.74,1.16-1.1.36-.32.66-.69.91-1.1.65-1.04,1.08-2.19,1.5-3.33.2-.54.3-1.11.47-1.66.15-.46.35-.91.5-1.37.04-.11-.02-.25,0-.36.06-.27.15-.53.21-.8.15-.63.29-1.25.42-1.89.17-.89.33-1.79.49-2.68.04-.25.07-.51.11-.78-.05-.01-.1-.03-.23-.06.31-.06.2-.19.12-.32.03,0,.06,0,.09.01.03-.12.06-.24.08-.37.02-.11.03-.22.04-.33.03-.19.05-.38.09-.57.05-.27.1-.55.19-.82.07-.22.02-.4-.03-.61-.05-.23.03-.5.07-.75.04-.28.14-.55.07-.86-.05-.24.09-.52.13-.78.02-.14.03-.29.04-.43,0-.02-.02-.04-.01-.06.02-.09.04-.17.06-.26l.24-.73s-.03-.02-.05-.03c-.1.08-.21.14-.29.23-.05.06-.08.15-.08.23,0,.14.04.28.02.41-.12.68-.25,1.35-.37,2.02-.03.16,0,.33-.02.5-.04.38-.08.76-.12,1.13,0,.09-.02.19,0,.28.08.39,0,.76-.13,1.13-.09.23-.12.49-.18.73-.08.35-.15.71-.24,1.06-.01.04-.11.06-.19.07-.34.58-.56,1.61-.4,1.72-.05.08-.12.15-.15.23-.3,1.1-.59,2.21-.89,3.32-.13.46-.24.93-.39,1.39-.27.79-.58,1.57-.87,2.36,0,.02-.04.03-.07.06-.03-.04-.05-.08-.05-.08-.11.37-.22.77-.34,1.15-.13.39-.25.78-.41,1.15-.12.27-.28.53-.44.78-.04.05-.16.05-.27.09-.32.72-1,1.13-1.6,1.62-.12.1-.19.27-.28.41-.02.03-.02.1-.04.11-.25.13-.5.26-.76.38-.06.03-.15,0-.28-.02-.51.31-1.12.52-1.78.59-.59.07-1.16.2-1.74.31-.22.04-.43.1-.65.12-.1.01-.22-.05-.33-.07-.19-.04-.38-.07-.56-.1,0,.03,0,.07-.01.1.12.01.24.03.36.04,0,.01,0,.02,0,.03-.28.06-.56.11-.84.18-.18.04-.37.06-.52.15-.27.16-.52.05-.79,0-.06-.01-.15-.03-.2,0-.27.15-.48.08-.66-.17-.27.18-.53.17-.85.13-.33-.04-.7-.22-1.06-.02-.06.03-.21-.08-.3-.07-.23.01-.46.05-.69.03-.49-.03-.99-.07-1.48-.13-.42-.05-.84-.13-1.27-.16-.51-.04-1.03-.07-1.55-.08-.24,0-.37-.12-.32-.29-.18-.02-.37-.05-.56-.07-.02.06-.06.17-.12.32-.16-.15-.43-.08-.46-.36,0-.02-.05-.06-.08-.06-.2-.02-.4-.03-.6-.02.17.13.47-.06.58.24-.63-.06-1.24-.13-1.86-.19,0-.01-.01-.02-.02-.04.11-.02.21-.07.32-.07.69-.02,1.38-.04,2.07-.05.41,0,.82.02,1.22.02.32,0,.64-.03.96-.05.04,0,.07-.04.16-.08-.13-.04-.2-.06-.28-.08,0-.02,0-.04,0-.05.1.01.21.03.31.04.08,0,.16,0,.24,0,.19-.01.37-.03.56-.05,0,.04,0,.08.01.12-.27.04-.53.08-.8.12,0,.03,0,.05-.01.08.09.02.2.08.28.06.5-.12,1-.26,1.51-.39.02,0,.04-.02.04-.1-.27.05-.54.1-.81.15,0-.03-.02-.05-.03-.08.17-.06.34-.14.52-.18.21-.05.42-.06.52-.32.04-.12.16-.24.34-.15.03.02.11,0,.14-.02.33-.31.76-.4,1.17-.55.32-.13.65-.26.96-.41.16-.08.39,0,.49-.23.01-.02.17.02.23.03.09-.09.16-.17.25-.22.38-.2.78-.37,1.16-.59.2-.11.34-.31.54-.44.25-.16.52-.27.77-.41.14-.08.26-.2.4-.3.03-.03.09-.03.17.01-.07.07-.15.15-.21.23-.05.06-.08.14-.14.26-.09.04-.26.1-.42.17-.05.02-.09.06-.13.09-.11.05-.21.1-.32.16-.15.08-.46.01-.3.35,0,.01-.02.06-.03.06-.19-.05-.27.29-.49.12-.04-.03-.17.02-.21.07-.15.22-.32.37-.59.42-.1.02-.17.14-.26.21.01.02.03.04.04.05.09-.07.17-.14.26-.2l.05.02c-.01.06-.03.12-.04.18.19-.06.38-.1.56-.18.22-.1.43-.24.63-.37.09-.06.16-.15.26-.25.17.13.33,0,.49-.15.16-.15.36-.27.54-.41.43-.32.9-.61,1.3-.97.47-.42.89-.9,1.33-1.35.14-.14.28-.27.41-.41.2-.22.4-.44.59-.67.42-.51.81-1.05,1.25-1.54.51-.56,1.02-1.12,1.46-1.73.26-.36.54-.72.8-1.09.34-.47.68-.94,1.01-1.43.05-.08.02-.22.03-.37.31-.08.32-.46.49-.72.21-.32.33-.69.58-1,.11-.14.13-.35.21-.52.22-.48.46-.95.69-1.42.1-.21.22-.4.34-.61.02-.03.06-.06.06-.09-.02-.63.47-1.06.63-1.63.19-.7.45-1.38.68-2.07.15-.45.32-.89.47-1.34.09-.28.17-.56.24-.85.22-.91.44-1.81.66-2.72.11-.47.24-.95.34-1.42.07-.33.1-.67.15-1.01.1-.62.19-1.24.31-1.85.05-.26.1-.56.25-.76.36-.49.24-1.1.46-1.61.05-.13,0-.29.01-.44.01-.28.25-.19.4-.21.17-.02.16.12.15.24ZM37.26,45.83c-.01.22-.04.4-.18.56,0,0,.01.04.03.08-.07.02-.15.05-.22.07-.02-.1-.07-.2-.06-.3.05-.62.07-1.25.17-1.87.15-.93.36-1.85.54-2.78.07-.35.11-.7.17-1.05,0-.05.06-.09.09-.14.03,0,.05.02.08.02,0,.12.01.24,0,.35-.12.8-.24,1.6-.36,2.41-.04.3-.16.62-.1.9.12.61-.12,1.16-.15,1.74ZM37.69,77.09c-.24.03-.19-.18-.17-.32.02-.18.12-.38.07-.53-.11-.31-.02-.62-.03-.92-.01-.33.08-.67.01-.98-.07-.32.03-.58.07-.87.02-.19-.02-.39,0-.58.04-.59.13-1.17.15-1.76.03-1.2.05-2.41.04-3.62,0-.72-.1-1.43-.1-2.15,0-.77.09-1.54.14-2.31.02-.36.02-.72.04-1.07,0-.16.06-.32.06-.48,0-.51-.02-1.03-.02-1.54,0-.56.02-1.12.02-1.68,0-.46-.04-.91-.05-1.37,0-.21.04-.43.06-.64.02-.22.04-.44.04-.66.02-.6,0-1.21.04-1.81.05-.74.17-1.48.22-2.23.07-.97.11-1.93.16-2.9.01-.22,0-.45.02-.67,0-.07.06-.13.1-.19-.01,0-.03,0-.04,0v-.51l.04-.05c.06.07.16.13.17.21.09.56.16,1.12.25,1.67.11.6.2,1.21.37,1.79.21.7.25,1.42.39,2.12.09.42.22.83.28,1.25.07.5.09,1,.1,1.5.03.88.06,1.76.08,2.64,0,.15,0,.3,0,.44.13,1.49.25,2.99.39,4.48.03.38.13.76.18,1.14.02.16,0,.33,0,.5,0,.12.05.23.07.34.05.28.08.56.13.84.16.89.32,1.78.47,2.67.08.43.15.85.23,1.27.04.18.13.34.17.52.13.56.23,1.12.36,1.68.17.69.33,1.38.56,2.05.21.6.47,1.21.81,1.75.54.85,1.13,1.65,2,2.22,1.03.68,2.12,1.22,3.27,1.68.45.18.87.45,1.31.67,0,.02,0,.05-.01.07-.53.02-1.06.03-1.58.05-.64.02-1.28.04-1.9-.12-.21-.05-.4-.15-.61-.2-.25-.07-.52-.11-.77-.18-.62-.17-1.26-.31-1.87-.52-.52-.18-1-.46-1.5-.67-.55-.23-1.13-.41-1.66-.67-.46-.22-.9-.5-1.31-.81-.39-.29-.73-.61-1.28-.54ZM43.84,87.8c-.35-.23-.65-.4-.93-.62-.36-.28-.7-.58-1.04-.87-.34-.29-.64-.63-1.01-.85-.78-.46-1.33-1.14-1.97-1.74-.22-.21-.48-.38-.56-.7-.03-.14-.03-.28-.06-.42-.07-.42-.17-.84-.22-1.26-.06-.65-.09-1.3-.13-1.95,0-.09,0-.18-.03-.26-.11-.3.06-.51.23-.71.03-.04.19-.05.23-.01.77.72,1.74,1,2.74,1.21.13.03.26.05.39-.1.08-.09.35-.02.57-.02-.24.32-.22.61.08.77.42.23.86.44,1.31.62.35.14.49.3.37.64-.15.42.02.83,0,1.24,0,.22-.03.44-.04.66,0,.08,0,.15,0,.23,0,.18-.02.36-.02.54,0,.1.02.2.02.31,0,.07-.03.14-.05.24.23.94.29,1.94.11,3.04ZM44.91,86.2c-.05-.01-.11-.03-.16-.04-.18-.05-.31.04-.38.17,0-.13.02-.26.04-.38.22.06.41.11.64.17-.05.03-.1.06-.13.09ZM71.15,91.86c.75.23,1.21.76,1.46,1.49.04.11,0,.24,0,.36.01.21.05.42.04.63-.02.19-.06.4-.15.57-.23.48-.46.96-.73,1.42-.33.56-.71,1.1-1.09,1.69-.22-.21-.42-.38-.6-.58-.35-.39-.73-.76-1.01-1.2-.21-.33-.34-.73-.41-1.12-.03-.2.13-.44.24-.64.17-.3.4-.58.55-.89.13-.26.21-.55.29-.83.19-.64.84-1.07,1.39-.9ZM75.62,79.11c-.04.24.06.48-.07.74-.1.19,0,.47.01.72,0,.04-.02.08-.04.12-.04.13-.08.25-.11.38-.03.15-.06.31-.09.48.01.01.06.05.11.11-.09.05-.16.08-.23.11,0,.05,0,.08.01.1.13.27.1.33-.17.44-.09.04-.19.12-.25.2-.27.42-.6.75-1.08.92-.37.14-.73.3-1.09.47-.31.14-.6.33-.92.43-.54.17-1.1.29-1.66.44-.08.02-.16.04-.23.06-.06.1-.15.19-.29.23-.81.25-1.64.47-2.44.76-.18.07-.36.14-.53.21.04.03.08.07.11.11,0,0,0,0,0,0-.54.2-1.08.36-1.63.5,0-.01,0-.02-.01-.03-.02,0-.04.01-.06.02-.13.04-.25.07-.38.11,0,0,0,0,.01,0-.03,0-.06.01-.09.02-.62.19-1.24.39-1.89.49-.8.12-1.61.1-2.42.1-.07,0-.12-.02-.18-.04-.02,0-.05.01-.08.02-1.1.06-2.19.08-3.27.1-3.42.06-6.86-.12-10.2-.86.01,0,.02,0,.03,0-.59-.1-1.23-.28-1.56-.6-.11,0-.22-.03-.32-.14h.2c-.1-.16-.13-.35-.05-.58-.04-.49-.05-.98-.08-1.46-.01-.2-.09-.41-.07-.61.06-.49-.03-.95-.16-1.42-.05-.17-.16-.32-.26-.51.23.04.41.08.59.11.77.1,1.54.23,2.31.29.58.05,1.17-.02,1.75.03.94.07,1.88,0,2.81-.08.7-.05,1.42-.08,2.12,0,.58.07,1.13.22,1.7-.04.17-.08.39-.05.59-.07.27-.03.54-.06.81-.08.13,0,.26.03.38.05.03.06.06.12.09.18.02,0,.03-.01.05-.02v-.15c.64.04,1.27.08,1.9.12.17.01.35.04.52,0,.26-.06.5-.19.76-.25.36-.1.73-.17,1.1-.25.69-.14,1.38-.32,2.08-.41,1.11-.14,2.22-.22,3.34-.31.2-.02.4.03.59.04.14,0,.28,0,.41-.02.19-.03.38-.09.57-.11.29-.03.58,0,.86-.06.33-.09.64-.26.97-.39.26-.1.53-.18.8-.27.39-.13.79-.24,1.18-.37.2-.07.4-.15.6-.23.17-.07.33-.14.5-.21.09-.04.19-.07.28-.12.28-.17.55-.35.83-.52.17-.1.36-.19.54-.29.08-.04.2-.14.23-.12.11.07.26.19.26.29,0,.36-.03.72-.09,1.08ZM75.81,72.53c-.22.4-.23.4-.52-.01-.03-.04-.06-.08-.1-.13.11-.1.22-.2.3-.27.12.14.22.25.32.36,0,0,0,.03-.01.05Z"/>
      <path class="cls-1" d="M60.78,71.59s0,0,.01,0c0,0,0,0,0,0h0Z"/>
      <path class="cls-1" d="M56.13,69.99c.12.03.27.08.35.18.17.22.34.41.65.42.03,0,.06.05.1.08.16.11.31.23.47.33.21.13.44.23.65.36.29.17.53.42.89.45.09,0,.23,0,.28.05.2.25.45.29.75.27-.03-.05-.05-.1-.08-.17.27.07.54.11.76.22.22.11.41.3.61.45.04-.09.04-.16,0-.2-.15-.2-.31-.4-.48-.59-.09-.09-.07-.32-.29-.25.06.08.11.16.17.25-.11.05-.22.14-.29.12-.18-.05-.34-.14-.5-.24-.2-.12-.38-.26-.61-.41-.01-.02-.06-.11-.13-.15-.09-.06-.2-.1-.31-.14-.65-.25-1.29-.51-1.79-1.03-.04-.04-.1-.08-.16-.08-.37,0-.59-.25-.83-.47-.25-.23-.53-.42-.82-.42.05.14.12.29.15.45.03.19.27.48.45.53Z"/>
      <path class="cls-1" d="M62.89,73.01c.14.04.26.43.2.59-.03.08-.02.17-.03.29.17-.22.3-.37.44-.55-.1.01-.18.02-.29.03-.05-.56-.43-.85-.91-1.09-.08.2-.06.35.16.44h-.3s-.01.04-.02.06c.08.04.15.08.23.1.17.04.35.07.52.11Z"/>
      <path class="cls-1" d="M57.05,70.89c.21.09.41.18.62.27,0-.02.02-.03.03-.05-.19-.11-.39-.22-.58-.33-.02.04-.05.07-.07.11Z"/>
      <path class="cls-1" d="M60.29,71.32s-.02.05-.03.08c.17.06.35.12.52.18-.06-.28-.33-.16-.49-.26Z"/>
      <path class="cls-1" d="M60.78,71.59s0,0,0,0c0,0,0,0,0,0,0,0,0,0,0,0Z"/>
      <path class="cls-1" d="M15.93,79.22s.03.08.05.11c.34-.13.67-.36,1.01-.38.38-.01.52-.43.95-.32-.11-.12-.14-.17-.16-.18-.63.26-1.24.51-1.86.76Z"/>
      <path class="cls-1" d="M18.09,78.34c.11.21.54.09.86-.28-.06-.04-.12-.09-.15-.1-.25.13-.48.26-.71.38Z"/>
      <path class="cls-1" d="M36.44,54.16c-.08.31-.18.61-.24.92-.01.07.08.16.14.28.07-.42.14-.8.21-1.2-.05,0-.11,0-.11,0Z"/>
    </g>
  </g>
</svg>