<?xml version="1.0" encoding="UTF-8"?>
<svg id="Layer_2" data-name="Layer 2" xmlns="http://www.w3.org/2000/svg" viewBox="0 0 64.36 100.08">
  <defs>
    <style>
      .cls-1 {
        fill: #000;
        stroke-width: 0px;
      }
    </style>
  </defs>
  <g id="illustrations">
    <g>
      <path class="cls-1" d="M.58,29.85c.12-.15.09-.34-.03-.56-.08-.14-.04-.34-.06-.52-.01-.17-.03-.34-.04-.52,0-.02-.01-.03-.01-.05.05-.68-.06-1.35-.09-2.02-.02-.37.02-.74.02-1.1,0-.12-.03-.23-.04-.32.05-.09.15-.18.13-.21-.11-.18.35-.43-.14-.56.12-.04.18-.07.25-.09,0-.3-.02-.31-.34-.33v-.59c.21.06.37-.07.29-.28-.08-.21.13-.46-.1-.63,0,0,0-.03,0-.04.24-.11.03-.21-.02-.32.15-.11.17-.23.1-.41-.05-.13,0-.29-.01-.44,0-.21-.06-.43-.02-.62.03-.17.06-.34.07-.51.01-.16,0-.32,0-.48,0-.02,0-.06,0-.07.28-.34.17-.77.24-1.15.03-.19.16-.37.15-.55-.03-.59.19-1.13.27-1.7.03-.26.17-.5.22-.75.06-.28.06-.57.11-.86.04-.25.11-.5.15-.75.02-.14,0-.29.04-.43.09-.44.2-.88.29-1.33.03-.13.05-.27.04-.4-.02-.69.31-1.3.42-1.96.07-.44.12-.88.19-1.32.02-.16.06-.33.1-.49.04-.16.11-.31.15-.45.34.02.69.58.67.77-.01.15-.1.31-.2.43-.35.47-.58.98-.64,1.56-.04.35-.1.7-.16,1.05-.03.19-.09.39-.13.58-.01.07,0,.15-.01.23-.02.15-.03.31-.07.45-.09.36-.2.71-.19,1.1,0,.29-.08.59-.12.88-.04.29-.08.59-.12.88-.04.26-.09.51-.14.76-.03.16-.06.32-.09.48-.04.22-.07.44-.12.66-.1.52-.29,1.04-.29,1.56,0,.36-.12.68-.14,1.02-.01.27-.04.54-.12.79-.09.28-.04.57-.07.85-.04.3-.03.61-.05.91-.02.23-.05.46-.06.69-.01.26-.01.51-.02.77,0,.03.01.06,0,.09-.1.23-.09.46-.04.71.05.25,0,.52-.01.78,0,.09-.02.18-.04.28-.08,0-.17.02-.27.03.09.17.17.32.25.48-.23.2-.21.65.04.86-.04.07-.1.14-.1.2.02.25.07.49.09.74,0,.09-.02.19-.08.27.1.19.2.39.3.58-.04,0-.1-.01-.17-.02.04.22.07.44.11.67-.03,0-.09,0-.16.02.13.12.24.22.35.32l-.05.06c-.06-.04-.13-.09-.25-.17.11.2.2.34.28.48-.02,0-.03.02-.05.03-.05-.06-.09-.12-.14-.19-.02.01-.05.02-.07.04.08.18.17.36.25.55.13.3.14.39.11.72.06.03.11.05.23.1-.1.02-.14.03-.23.05.09.11.16.19.23.28,0,0,.02,0,.02.02.06.22.11.43.16.65.02.08,0,.17.04.25.07.15.12.27.05.45-.03.09.09.22.16.37-.1.11-.17.25.05.39.04.03.03.14.06.2.04.1.09.2.14.3.01.02.03.04.03.07.04.52.25.97.5,1.42.25.46.46.95.7,1.41.33.61.69,1.2,1.02,1.8.21.38.4.76.6,1.15.17.33.34.67.52.99.04.07.12.12.15.19.08.14.16.28.25.41.11.16.23.32.37.47.28.32.56.64.87.93.39.36.82.66,1.2,1.02.53.51,1.22.81,1.76,1.31.51.48,1.04.94,1.56,1.41.23.21.46.43.69.64.15.14.32.26.5.39.04.07.07.19.15.26.33.3.66.61,1.03.86.55.37.92.89,1.35,1.37.19.21.3.48.48.66.33.33.35.76.55,1.13.12.22.16.5.23.75.01.04.02.1,0,.12-.23.16-.04.26.04.4.08.17.08.39.12.58.04.2.1.39.14.58.06.26.21.41.5.48.04-.27.08-.53.12-.8.06-.32.09-.65.2-.95.14-.41.18-.83.2-1.26,0-.12-.11-.24-.16-.37-.06-.15-.11-.3-.18-.49.13.03.19.04.25.05,0-.02.01-.04.02-.06-.06-.02-.13-.04-.19-.05-.04,0-.08,0-.12,0,.1-.2.1-.18.33-.17.1,0,.21-.1.32-.14.26-.09.54-.16.78-.28.15-.08.27-.24.39-.38.06-.07.11-.16-.02-.26-.12-.09-.02-.2.07-.29.31-.3.61-.62.91-.93l-.09-.09c-.19.16-.36.34-.57.49-.11.08-.27.16-.38.13-.47-.14-.92.03-1.38.06-.32.02-.64.2-.96.03-.06-.03-.13-.06-.2-.09-.05.03-.13.1-.18.08-.37-.11-.73-.23-1.1-.36-.1-.04-.18-.13-.27-.18-.08-.05-.17-.13-.25-.12-.48.05-.75-.32-1.08-.55-.31-.22-.6-.47-.9-.71-.23-.19-.44-.38-.66-.58-.08-.07-.15-.13-.24-.21.05-.02.11-.05.17-.08-.18-.03-.27-.1-.33-.28-.04-.13-.24-.21-.34-.33-.09-.12-.15-.26-.22-.4.02-.02.04-.03.06-.05-.1-.03-.19-.06-.31-.1.02-.05.05-.11.04-.15,0-.07-.03-.18-.06-.18-.23-.03-.31-.18-.34-.39,0-.03-.04-.07-.06-.07-.29,0-.34-.27-.47-.44-.22-.3-.45-.59-.65-.9-.11-.18-.17-.4-.2-.6-.09-.06-.19-.12-.28-.18.12-.2.43-.29.19-.61.13.09.21.15.33.24-.02-.11-.03-.17-.05-.24l.04-.03c.33.52.66,1.05,1.01,1.56.24.34.52.65.78.97.04.05.09.09.12.15.08.13.09.29.29.35.08.02.1.24.16.36.05.1.12.19.17.28.08-.08.15-.15.22-.22.03.16.04.38.12.56.07.17.2.33.34.45.39.33.81.62,1.2.95.41.34.87.59,1.38.75.66.21,1.32.4,1.99.56.27.06.56.05.83-.08.19-.09.41-.11.62-.17.64-.19,1.13-.59,1.53-1.12.11-.15.24-.28.36-.42.24-.27.45-.56.57-.91.06-.17.19-.32.28-.48.06-.11.11-.23.15-.31,0-.11,0-.19.03-.26.3-.78.65-1.54.9-2.33.25-.8.43-1.62.61-2.44.13-.57.21-1.15.33-1.72.07-.34.21-.67.23-1.01.01-.25.04-.5.04-.75,0-.8,0-1.59,0-2.39,0-.58.05-.84.23-1.19,0-.13-.02-.26-.02-.39,0-.1.04-.21.04-.31,0-.16-.09-.33.09-.45,0,0,0-.02,0-.02-.02-.29-.04-.58-.05-.88,0-.08.02-.17.04-.26.01-.05.05-.1.05-.16,0-.19-.02-.39-.02-.58,0-.28.02-.56.02-.84,0-.31,0-.61.02-.92,0-.35.04-.7.03-1.05,0-.29-.05-.57-.06-.86-.01-.28,0-.56,0-.84,0-.39.02-.78.02-1.18,0-.64,0-1.28,0-1.93,0-.14-.02-.28-.02-.42,0-.66-.01-1.32,0-1.98,0-.27.08-.54.1-.81,0-.13-.05-.26-.07-.4-.03-.33-.05-.67-.08-1.01-.03-.33-.06-.67-.08-1-.01-.22.12-.31.32-.23,0,.44,0,.87,0,1.31.01.47.05.94.06,1.41.01.38.02.76.02,1.15,0,.43-.03.86-.02,1.29,0,.63.03,1.27.05,1.9.01.38.03.75.04,1.13,0,.33,0,.65-.02.98,0,.1-.03.21-.05.31-.05.23,0,.44.08.66.04.12.02.27.02.4,0,.28-.03.57-.04.85,0,.29-.09.61.01.85.13.28-.06.48-.05.73.02.55-.08,1.09-.03,1.65.02.21.13.46-.05.66.14.17-.07.36.04.53.01.02.02.07,0,.08-.27.31-.09.72-.23,1.07-.07.17-.04.38,0,.57-.03.07-.08.15-.08.22,0,.64,0,1.28.02,1.92.02.69-.04,1.36-.21,2.03-.09.36-.08.75-.11,1.13-.02.19-.04.38-.05.58,0,.11.02.22.02.3.22-.1.41-.2.61-.29.02.03.03.05.05.08-.36.06-.35.57-.79.57.07.1.14.18.24.32-.13-.06-.21-.09-.31-.14-.22,1.38-.57,2.71-.87,4.09.72-.94,1.4-1.84,2.1-2.75-.06-.03-.13-.07-.17-.09.1-.1.22-.17.3-.28.07-.11.11-.24.16-.37-.02-.01-.03-.03-.05-.04.1-.04.2-.08.34-.13-.08-.03-.13-.04-.18-.06.04-.33.29-.69.51-.72-.14-.24.03-.4.13-.59.05-.1.06-.21.1-.32.15-.36.3-.72.46-1.08.03-.07.09-.13.14-.2.03-.05.07-.09.08-.14.06-.44.06-.44.13-.67-.02-.15-.08-.32-.04-.46.11-.45.27-.88.39-1.33.16-.56.34-1.12.46-1.68.07-.34.05-.7.08-1.05.02-.17-.02-.37.2-.49.05-.03.04-.2.04-.3,0-.16-.02-.32.18-.38-.03-.06-.1-.13-.09-.19,0-.19.04-.37.05-.56.02-.22.04-.44.02-.66-.03-.35-.09-.71-.13-1.06,0-.08.04-.16.04-.23,0-.09-.04-.17-.06-.26-.01-.04-.04-.09-.04-.13,0-.16,0-.32,0-.49-.02,0-.04,0-.06,0,.06-.09.12-.18.18-.27-.02,0-.05,0-.07-.01,0-.11,0-.22-.02-.33-.02-.11-.08-.22-.12-.34.16-.1.21-.22.03-.37-.03-.03-.04-.1-.04-.15,0-.32.01-.64.02-.96,0-.3.03-.61.01-.9-.04-.46-.11-.93-.17-1.39,0-.07-.04-.14-.04-.21,0-.51,0-1.02-.02-1.54-.02-.51-.06-1.01-.09-1.52-.02-.41,0-.83-.05-1.24-.09-.87-.22-1.73-.31-2.6-.05-.47-.04-.94-.08-1.41-.04-.49-.1-.97-.14-1.46-.01-.12,0-.24,0-.31-.06-.2-.11-.36-.15-.52-.05-.17-.08-.34-.13-.51-.05-.17-.14-.15-.23-.03-.04.06-.11.1-.17.14,0,0-.07-.06-.07-.08.02-.1.02-.27.08-.29.31-.12.21-.41.28-.63.02-.07.06-.14.09-.21.06-.21.13-.43.17-.64.08-.47.14-.95.21-1.42.02-.14.04-.27.06-.41,0-.06,0-.15.04-.19.17-.19.24-.42.35-.63.07-.14.31-.2.47-.29-.04-.28-.09-.57-.13-.85-.11,0-.2.01-.29.02,0-.02,0-.05-.01-.07.08-.03.15-.07.25-.11,0-.09,0-.18-.01-.27-.05-.24-.09-.49-.18-.71-.05-.13-.18-.24-.3-.32-.23-.16-.48-.3-.72-.45.01.04.03.11.04.18-.02,0-.04,0-.05-.01-.58-.27-1.14-.57-1.77-.68-.22-.04-.43-.1-.63-.18-.11-.04-.2-.14-.36-.26.04.1.05.13.07.17-.57-.11-1.14-.23-1.71-.34,0-.02,0-.03,0-.05.44.06.89.11,1.33.17.17.02.33.05.5.05.77.01,1.42.38,2.12.63.41.14.81.29,1.21.46.31.13.64.27.9.48.17.14.24.42.34.64.04.08.06.17.07.25,0,.07-.02.15-.03.22-.02,0-.04,0-.06,0,.02.06.05.13.06.19.02.39.02.78.05,1.17.05.59.13,1.18.21,1.77.07.52.13,1.04.25,1.54.25,1.03.55,2.04.79,3.07.16.7.29,1.42.36,2.13.03.25.03.47.24.66-.05.02-.1.03-.12.04-.06.33.17.66-.02.97.23.26.11.62.23.89-.13-.09-.28-.2-.42-.29-.02-.01-.08.04-.14.07.33.18.42.39.4.7-.01.27.11.54-.18.71.13.11.23.19.32.26-.02.02-.03.05-.05.07-.08,0-.15-.01-.23-.02-.01.01-.03.03-.04.04.09.08.17.17.27.26-.12.1-.21.22-.09.42.03.05-.06.17-.1.28.08.09.19.17.06.36-.1.14.04.44.15.49,0,.26-.01.52,0,.77.01.24-.06.5.12.71-.16.03-.11.15-.09.27.05.23.09.46.1.69,0,.06-.13.12-.22.2.36.1.2.37.23.58.02.14.06.28.09.44-.13.07-.14.09-.02.39.03-.07.06-.13.08-.18.01,0,.03,0,.04,0v1.27h-.24c.06.14.1.25.15.36.03,0,.06-.02.08-.03,0-.04-.01-.08-.02-.12.01,0,.04,0,.04.01,0,.11-.01.21-.02.32-.05-.02-.1-.04-.16-.07-.08.16-.04.25.19.29-.05.31-.1.61-.15.98-.03-.11-.06-.18-.08-.24-.03.03-.07.06-.1.08.06.13.12.26.17.39,0,0-.01,0-.02.01,0-.05-.02-.1-.03-.15-.04.02-.07.04-.11.06v1.05c.05.04.13.09.21.14,0,.02-.02.04-.03.05-.06-.02-.12-.04-.17-.06-.02.01-.05.03-.07.04.06.15.11.29.17.44-.15-.01-.21.03-.17.21.03.14-.02.29-.04.46-.15-.1-.24-.17-.36-.25.03-.05.06-.12.1-.19-.06-.02-.11-.04-.1-.03.03-.35.07-.67.09-1,.03-.67.05-1.34.07-2,0-.33,0-.66-.01-.98,0-.5,0-1,0-1.51,0-.14-.02-.27-.03-.41,0-.11-.08-.23.08-.29-.05-.1-.11-.2-.13-.31,0-.05.07-.11.05-.17-.02-.19-.04-.37-.06-.56-.03-.33-.06-.65-.08-.98-.01-.17,0-.34,0-.52,0-.1-.05-.19-.08-.29.05-.05.11-.13.17-.2-.19-.21-.11-.41.02-.61-.05-.04-.1-.08-.15-.13.22-.23.05-.35-.13-.49.06-.02.1-.03.16-.05-.19-.29,0-.7-.34-.94.06-.02.12-.04.17-.06-.09-.38-.14-.75-.26-1.1-.06-.18-.11-.31.1-.47-.11-.07-.2-.12-.35-.21.12-.06.18-.08.24-.11-.07-.1-.11-.17-.15-.23-.04-.07-.09-.37-.1-.47-.03-.23-.08-.46-.13-.69-.06-.26-.11-.52-.17-.77-.04-.15-.08-.29-.11-.4.06-.1.17-.21.15-.24-.07-.1-.18-.18-.29-.28.08-.09.23-.21-.09-.28-.09-.02-.14-.27-.18-.42-.02-.08.07-.19.05-.27-.04-.32-.11-.64-.16-.96,0-.03.01-.06.01-.09,0-.16.02-.32.03-.49,0-.08.02-.17.02-.21-.02-.18-.03-.32-.05-.46-.07-.57-.14-1.14-.22-1.71-.02-.18-.07-.36-.09-.54-.02-.27-.02-.54-.04-.81-.01-.16-.03-.33-.08-.48-.02-.06-.15-.09-.23-.14-.03.02-.06.04-.09.06.05.14.1.28.14.39-.01.08-.03.16-.03.19-.1.15-.25.28-.27.43-.07.46-.12.94-.13,1.41-.01.7.02,1.4.02,2.09,0,.69-.06,1.37-.04,2.06,0,.46.09.92.15,1.39.15,1.25.32,2.49.44,3.74.05.5,0,1.02,0,1.53,0,.1.04.2.05.3.04.59.1,1.19.1,1.78,0,.46.03.92.04,1.37.02.59.1,1.18.14,1.77.03.43,0,.85.03,1.28.02.31.1.62.13.94.02.19,0,.38,0,.57.01.58.04,1.16.04,1.75,0,.31-.02.61-.09.92-.07.36-.04.74-.1,1.11-.05.33-.15.64-.22.97-.05.26-.06.54-.14.79-.04.14-.11.26-.04.42-.07.01-.12.02-.12.02,0,.15.02.28,0,.4-.12.49-.24.97-.39,1.45-.09.29-.22.56-.35.88.07-.03.12-.05.19-.08,0,.05,0,.11-.03.15-.09.18-.2.36-.27.55-.05.13,0,.3-.05.43-.24.62-.48,1.24-.75,1.84-.34.73-.71,1.45-1.08,2.17-.21.39-.41.78-.71,1.12-.2.22-.31.54-.48.79-.19.27-.42.51-.63.76-.12.16-.26.32-.33.5-.05.13-.13.17-.22.24-.12.11-.19.29-.28.43l.08.06c.25-.24.5-.5.76-.72.28-.24.56-.48.87-.68.46-.29.8-.68,1.13-1.09.39-.51.81-1,1.17-1.53.46-.68.9-1.38,1.31-2.09.28-.48.49-1,.72-1.5.07-.16.11-.33.17-.49.17-.49.34-.99.51-1.48.01-.04.02-.08.03-.12.25-.52.34-1.09.51-1.63.12-.37.22-.75.31-1.13.01-.05-.02-.11-.03-.16-.01-.13-.05-.23.03-.38.08-.15.03-.38.05-.57,0-.11.04-.21.07-.34-.02-.04-.07-.11-.11-.18.09-.16.28-.29.1-.5-.02-.02.03-.11.04-.16.01-.05.02-.11.03-.2.05,0,.14-.01.22-.02,0,.16,0,.3,0,.45,0,.11-.03.22-.04.33.02,0,.05,0,.07,0,.02-.12.05-.24.09-.41.07.07.13.11.13.14-.09.48-.24.96-.18,1.46,0,.02-.02.04-.08.06v-.6s-.06,0-.1,0c-.01.1-.03.19-.04.29-.01.11,0,.23-.03.33-.06.17-.02.28.15.36.06-.08.11-.16.17-.24.02,0,.03,0,.05,0,0,.06,0,.13,0,.19-.02.11-.06.21-.08.31-.08.41-.12.82-.25,1.21-.06.17,0,.29,0,.44,0,.28-.02.56-.07.83-.1.52-.2,1.04-.34,1.55-.13.48-.37.93-.48,1.41-.13.54-.44.98-.63,1.48-.12.33-.4.59-.58.9-.36.61-.68,1.24-1.04,1.84-.21.35-.48.66-.71,1-.14.2-.26.42-.4.62-.17.23-.35.45-.53.67-.29.35-.58.7-.89,1.04-.14.15-.33.25-.49.39-.07.06-.1.17-.16.25-.49.61-1.11,1.1-1.63,1.68-.16.18-.3.39-.47.56-.08.09-.2.14-.32.21,0,0,.01.03.05.12-.2-.03-.37-.1-.52-.06-.15.04-.27.18-.43.3-.15-.08-.23.11-.35.2-.52.42-.64,1.05-.87,1.63-.23.58-.47,1.16-.65,1.76-.1.34-.09.71-.1,1.07,0,.16.03.33.05.5,0,.04.02.09,0,.12-.27.51-.08,1.07-.17,1.6-.06.34.06.71-.03,1.03-.1.41.11.73.18,1.09.08.44.05.9.06,1.35,0,.12.01.25.02.37.02.79.03,1.58.06,2.36.02.68.07,1.35.08,2.03,0,.5-.03.99-.02,1.49,0,.23.06.45.09.67.02.15.04.3.09.45,0,.2,0,.4,0,.59,0,.18,0,.35.02.53.02.2.08.4.1.6.03.45.04.89.05,1.34.02,1.13.03,2.27.17,3.4.08.66.09,1.33.15,1.99.04.47.11.94.15,1.41.02.19-.04.39-.02.58.03.27.08.55.18.8.11.25.4.2.62.24.15.02.3,0,.45,0,.3-.01.59-.03.92-.04.05-.17.14-.19.36-.09.23.11.53.11.79.16.38.07.75.15,1.13.22.12.02.24.02.36.04.07,0,.15,0,.21.04.61.32,1.29.44,1.95.61.77.21,1.55.36,2.29.69.31.14.66.17.97.3.2.08.45.09.58.32.02.04.07.06.12.07.32.07.58.26.84.44.12.08.28.11.42.16-.02,0-.06.02-.1.04,0,.02,0,.05,0,.07.12-.01.23-.03.35-.04,0,.01,0,.03,0,.04-.06.02-.12.04-.26.09.34.09.35.5.7.51.04,0,.09.1.13.16.11.2.25.36.51.39.07,0,.14.12.19.19.22.32-.04.76.27,1.07.04.04-.08.3-.17.42-.06.07-.22.06-.33.06-.05,0-.1-.07-.17-.12-.11.15-.28.27-.08.47.02.02.03.07.02.09-.14.27-.26.56-.44.8-.17.23-.42.4-.62.61-.12.13-.2.28-.31.42-.03.04-.1.04-.14.07-.09.06-.19.1-.25.18-.35.41-.76.77-1.23,1.04-.11.07-.3,0-.46,0-.08,0-.18-.03-.25,0-.21.11-.41.24-.6.38-.04.03-.04.11-.05.15-.42.2-.82.45-1.25.6-.56.2-1.1.5-1.73.49-.32,0-.63.11-.95.15-.4.05-.81.07-1.22.12-.37.04-.74.13-1.11.16-.14.01-.29-.06-.44-.1-.06-.01-.12-.02-.18-.04-.12-.04-.24-.08-.36-.13-.12-.05-.23-.11-.37-.17,0,.35-.1.51-.39.43-.13-.03-.28.02-.42.04-.31.04-.63.1-.94.11-.36.02-.73.03-1.09,0-.39-.03-.77-.1-1.16-.16-.29-.04-.59-.08-.88-.13-.16-.03-.33-.07-.48-.13-.36-.14-.73-.05-1.09-.03-.58.03-1.16.08-1.74.11-.73.03-1.39-.26-2.08-.44-.58-.15-1.08-.43-1.56-.75-.11-.07-.24-.13-.37-.17-.56-.17-1.05-.48-1.51-.83-.19-.14-.36-.33-.49-.53-.45-.66-.88-1.32-1.3-1.99-.14-.21-.26-.44-.35-.68-.07-.17-.1-.37-.1-.56,0-.2.15-.13.26-.09.17-.36.34-.72.52-1.08.09-.19.25-.25.45-.3.28-.07.55-.17.7-.47-.07-.04-.14-.09-.22-.14.18-.3.5-.37.77-.51.2-.1.41-.16.62-.24.26-.1.52-.21.77-.32.21-.1.44-.11.65-.16.51-.12,1-.35,1.5-.53.08-.03.17-.05.27-.08.17.16.46-.02.73-.11.16-.05.3-.09.46-.01.02.01.07.02.09,0,.33-.21.7-.22,1.06-.23.27,0,.42-.24.66-.28.12-.02.25-.02.37-.05.07-.02.13-.07.19-.1.42.35.5.37.73.16.06.05.13.11.26.22-.28.05-.49.09-.71.12-.77.13-1.55.26-2.32.39-.24.04-.48.07-.71.13-.15.04-.28.13-.43.18-.83.3-1.66.59-2.48.89-.65.24-1.25.57-1.82.96-.33.22-.68.42-.99.68-.04.04-.1.07-.15.07-.36.02-.51.13-.52.5,0,.31.04.64.13.94.08.28.24.53.37.8.02.04.06.09.1.11.29.19.61.37.88.58.21.16.4.35.68.4.1.02.21.05.31.08.05.02.12.02.15.06.19.24.48.28.73.39.49.2.98.42,1.47.64.48.21.99.29,1.49.4.46.1.94.12,1.39.33.28.13.62.12.94.17,0,0,.02,0,.02,0,.41.13.85.12,1.24.24.6.18,1.19.34,1.8.4.38.04.74.09,1.14-.02.28-.08.62.03.93.05.05,0,.1-.03.15-.03.29-.05.58-.09.86-.14.34-.05.69-.09,1.03-.14.48-.08.96-.16,1.44-.24.43-.08.86-.17,1.29-.24.14-.02.29-.01.43-.04.08-.01.15-.06.23-.1.04-.02.1-.07.12-.06.23.18.46.01.68-.01.31-.04.6-.16.91-.23.12-.03.25-.02.38-.05.19-.04.38-.1.56-.16.04-.01.06-.05.1-.06.63-.15,1.11-.56,1.61-.93.41-.31.85-.59,1.22-.94.44-.41.83-.89,1.25-1.34.15-.16.29-.32.43-.48.08-.09.07-.42-.02-.48-.03-.02-.09,0-.1,0-.07-.13-.14-.24-.21-.36-.04.02,0,0,0,0-.23-.16-.47-.32-.69-.5-.46-.37-.91-.74-1.36-1.12-.15-.13-.3-.26-.47-.37-.04-.03-.18-.01-.19.01-.06.19-.16.09-.24.04-.09-.06-.19-.14-.24-.23-.09-.16-.17-.17-.3-.05-.07-.09-.13-.16-.19-.24-.01,0-.03.01-.04.02,0,.05,0,.1.01.18-.1-.04-.19-.07-.27-.11-.36-.18-.7-.41-1.07-.55-.82-.31-1.67-.54-2.47-.89-.77-.33-1.57-.34-2.37-.46-.42-.06-.86-.02-1.29-.07-.27-.03-.54-.13-.85-.22,0,.97.01,1.97.36,2.96.25.02.19.28.22.49-.04-.05-.08-.1-.13-.16-.02.01-.04.02-.05.03-.2.29-.31.3-.59.12-.09-.06-.22-.08-.33-.09-.24-.02-.23-.23-.31-.37-.08-.12-.14-.26-.19-.39-.03-.07,0-.16-.02-.24-.04-.21-.08-.42-.12-.63,0-.04-.02-.08-.05-.1-.23-.19-.23-.46-.28-.72-.05-.25-.13-.49-.21-.77-.29-.04-.61-.08-.94-.13v-.03c.31-.08.62-.16.94-.24-.19-.32-.16-.41.13-.57.05-.03.08-.1.12-.16.05,0,.12.01.16.02.03-.15.07-.29.08-.42,0-.18-.02-.36-.05-.53,0-.06-.05-.11-.07-.17-.07-.2-.18-.4-.21-.6-.06-.37-.08-.74-.11-1.12-.03-.01-.11-.04-.25-.1.15-.07.23-.1.31-.14,0-.02,0-.03,0-.05-.07,0-.14,0-.2.01-.26-.39.01-.76-.05-1.13-.03-.12-.06-.23-.1-.35-.02-.05-.06-.09-.07-.13-.02-.06-.02-.13-.03-.19-.02-.09-.03-.18-.05-.27-.02-.12-.05-.23-.06-.35-.03-.49-.05-.97-.08-1.46,0-.12-.06-.23-.07-.34-.01-.1,0-.21,0-.31,0-.03.04-.08.03-.1-.18-.23-.07-.49-.09-.74-.04-.43-.07-.86-.09-1.29-.02-.33-.02-.66-.02-.99,0-.4,0-.8,0-1.2,0-.23-.02-.47-.02-.74.11-.02.11-.1.03-.27-.06-.12-.01-.28-.02-.42,0-.1-.02-.2-.04-.32.04-.02.1-.05.17-.09-.02-.03-.04-.05-.04-.07-.04-.09-.09-.17-.1-.26,0-.12.03-.25.03-.37,0-.18-.04-.35-.07-.57.19-.13,0-.29-.06-.46.02,0,.05,0,.07,0,0-.09,0-.18-.01-.26-.03-.22-.07-.45-.09-.67-.03-.25-.04-.5-.06-.75-.02-.21-.04-.43-.06-.64,0-.09-.03-.18-.03-.27,0-.23,0-.47-.02-.7-.01-.26-.05-.51-.06-.77,0-.11.04-.21.06-.31-.03-.15-.08-.31-.1-.47-.05-.37-.09-.75-.14-1.12-.07-.47-.24-.95-.19-1.41.06-.59-.19-1.1-.27-1.65-.03-.22-.08-.44-.13-.66-.03-.12-.06-.23-.24-.22-.05,0-.14-.11-.16-.18-.07-.28-.12-.57-.19-.85-.04-.16-.02-.35-.23-.41-.02,0-.03-.03-.04-.06-.35-1.04-1.08-1.77-1.97-2.35-.86-.56-1.64-1.21-2.41-1.89-.6-.54-1.23-1.04-1.86-1.56-.33-.27-.67-.51-.98-.8-.25-.22-.45-.49-.69-.73-.1-.11-.25-.17-.35-.28-.28-.34-.55-.69-.82-1.04-.6-.77-1.07-1.63-1.52-2.49-.24-.46-.51-.91-.76-1.37-.18-.33-.33-.67-.5-1.01-.11-.23-.2-.46-.32-.69-.18-.35-.4-.68-.56-1.05-.23-.55-.42-1.12-.61-1.69-.09-.25-.16-.51-.22-.78-.05-.24-.05-.48-.09-.72-.04-.26-.12-.52-.16-.78-.02-.13.02-.26.03-.38-.04-.12-.08-.24-.12-.37-.02-.07-.06-.13-.07-.2-.08-.28-.16-.56-.24-.84,0-.03,0-.08,0-.09-.19-.1-.09-.28-.12-.43-.04-.16-.12-.31-.2-.51ZM21.82,47.38s-.04-.02-.05-.03c-.1.11-.2.22-.31.32-.14.13-.29.25-.43.37-.05.04-.09.08-.14.13.06.02.14.07.18.05.23-.12.48-.23.66-.4.09-.08.06-.29.08-.44ZM16.94,54.84c.06.41.05.78.33,1.09.02-.32.04-.64.06-.96-.13-.04-.23-.07-.39-.13ZM25.32,90.63s0,.04.01.06c.12-.01.24-.02.35-.04.12-.02.24-.05.36-.07,0-.03-.01-.06-.02-.08-.24.04-.47.09-.71.13ZM17.02,48.37s-.05.05-.07.07c.06.07.12.15.19.21.01.01.09-.05.16-.1-.11-.08-.2-.13-.28-.18ZM30.26,32.4s-.05,0-.07,0q-.13.25.07.35v-.36Z"/>
      <path class="cls-1" d="M58.55,43.83c.27-.02.36-.25.49-.43.36-.51.72-1.02,1.08-1.54-.05-.02-.09-.03-.1-.04.24-.18.41-.39.49-.72.08-.33.26-.65.41-.96.16-.31.36-.6.43-.96.04-.2.21-.36.28-.55.18-.46.35-.93.52-1.4.03-.07.09-.13.11-.2.11-.31.26-.61.27-.96,0-.16.12-.32.17-.48.08-.29.14-.58.21-.88.03-.13.07-.27.16-.39.02.07.03.13.04.17-.04.16-.08.31-.11.46-.08.38-.13.77-.22,1.15-.04.15-.14.29-.22.43.06.05.1.1.14.13,0,.18-.35.24-.13.48-.24.34-.26.75-.29,1.15.02,0,.04.01.06.02-.08.06-.17.12-.31.21.13.04.21.08.3.09.14.02.19.09.12.22-.13.24-.26.49-.4.74.04.01.09.02.14.04,0,.02,0,.03,0,.05-.1.02-.19.04-.29.07.18.08.17.16.11.31-.09.23-.13.47-.19.71-.04.15-.18.26-.14.44,0,.03-.08.09-.12.14.08.19.04.27-.17.36-.03.01-.04.07-.04.11,0,.09.01.19-.02.26-.21.47-.41.94-.65,1.4-.17.32-.41.6-.57.93-.05.11-.11.19-.19.28-.02.02.02.09.03.13-.21,0-.36.1-.46.28-.12.21-.23.44-.36.65-.15.23-.31.45-.54.62-.2.15-.35.38-.54.55-.21.19-.42.38-.65.53-.15.1-.19.17-.09.34-.15-.09-.2.23-.36.06,0,.04-.03.09-.02.11.06.05.13.08.23.15-.12.22-.26.44-.37.66-.06.12-.08.27-.12.4-.02.05-.02.11-.05.16-.51.77-.85,1.66-1.52,2.32-.19.19-.36.39-.54.57-.16.16-.57.13-.8-.06-.06-.05-.12-.09-.18-.14-.03.01-.06.02-.09.03.03.25.06.49.08.71-.06.03-.14.04-.17.09-.37.7-.77,1.38-1.09,2.1-.36.83-.66,1.69-.96,2.54-.21.61-.31,1.24-.35,1.88-.02.28,0,.56-.01.83-.03.37-.08.74-.15,1.11-.09.47-.23.93-.23,1.41,0,.23-.16.31-.38.4-.02-.25-.03-.46-.05-.67-.09-.73-.06-1.45-.03-2.18.02-.32-.05-.64-.03-.95.03-.39.1-.78.15-1.17.07-.47.13-.95.2-1.42.04-.27.06-.55.11-.82.01-.06.11-.13.19-.16.18-.08.17-.18.06-.32-.02.05-.04.08-.04.08-.04-.06-.09-.13-.13-.2-.03-.05-.07-.1-.06-.15.08-.48.27-.92.51-1.35.3-.52.67-.98,1.13-1.37.34-.29.75-.5,1.09-.79.41-.36.8-.76,1.17-1.16.25-.27.44-.58.77-.8.34-.22.63-.52.64-.97-.46.02-.52.06-.5.36-.08.05-.16.11-.24.15-.14.08-.23.19-.27.34-.02.07-.08.15-.15.19-.16.12-.36.2-.51.33-.19.16-.49.24-.72.13-.15-.07-.28-.02-.38.14.06.05.12.11.18.16-.01.01-.02.03-.03.04-.09-.04-.18-.11-.27-.1-.19.01-.4.03-.57.11-.35.16-.73.13-1.09.2-.04,0-.08-.01-.12,0-.2.09-.39.19-.58.27-.12.05-.25.14-.35-.06-.02-.04-.13-.03-.2-.04-.01.08-.03.13-.03.15-.53-.03-1.04-.05-1.55-.08,0-.02,0-.04,0-.06-.14.09-.28.19-.44.25-.09.04-.24.05-.29,0-.32-.29-.74-.25-1.11-.38-.14-.05-.33.03-.5.04-.08,0-.16.02-.23,0-.36-.1-.74-.16-1.07-.33-.55-.28-1.2-.33-1.71-.67-.25-.17-.53-.19-.76-.36-.27-.2-.56-.39-.83-.59-.04-.03-.03-.12-.06-.18-.02-.04-.06-.09-.1-.12-.11-.08-.23-.15-.36-.24.07-.03.12-.05.23-.09-.27-.13-.5-.22-.72-.34-.15-.08-.34-.16-.42-.29-.21-.33-.46-.59-.79-.8-.09-.06-.18-.17-.21-.28-.08-.26-.3-.44-.44-.63-.15-.2-.11-.53-.41-.65-.08-.03-.14-.24-.17-.34-.07-.23-.42-.24-.37-.53-.46-.45-.52-1.11-.84-1.64-.09-.14-.07-.35-.11-.53-.09-.34-.18-.67-.28-1.01-.04-.13-.09-.25-.12-.38-.13-.56-.28-1.11-.39-1.67-.15-.75-.31-1.51-.4-2.27-.09-.75-.09-1.51-.13-2.26-.02-.36-.05-.73-.06-1.09,0-.18,0-.36.05-.54.08-.38-.06-.75.06-1.15.1-.33.01-.71.03-1.06.02-.45.07-.9.09-1.35.01-.27.17-.53.02-.8-.01-.03-.02-.07-.01-.09.11-.37.12-.75.16-1.13.04-.42.06-.85.09-1.27,0-.1.04-.2.05-.3.04-.59.21-1.16.35-1.73.13-.52.21-1.06.31-1.59.06-.32.1-.64.14-.96,0-.03,0-.08.01-.09.33-.32.14-.72.19-1.08,0-.05,0-.12.02-.14.18-.14.05-.21-.04-.25.06-.16.14-.3.16-.46.07-.4.13-.8.18-1.2.02-.13.02-.26,0-.39-.06-.47-.08-.94-.22-1.39-.09-.28-.1-.51,0-.77.02-.05.05-.1.07-.15.04-.1.08-.21.11-.32.03-.11.03-.23.07-.32.12-.25.15-.51.15-.78,0-.12.08-.24.07-.37,0-.53.13-1.03.17-1.55.02-.24-.04-.5-.04-.74,0-.2.06-.41.11-.65-.15-.07-.13-.25-.1-.46.03-.26-.03-.53,0-.79.03-.29.11-.58.2-.86.06-.18.22-.34.26-.52.06-.23.06-.47.08-.71.03-.31.05-.63.11-.93.03-.13.15-.23.23-.34l.07.02c.02.06.05.13.04.19-.03.44-.08.88-.09,1.31,0,.23.02.48.09.69.2.57.31,1.14.19,1.73-.02,0-.05,0-.07.01-.03-.15-.07-.31-.07-.46,0-.32-.05-.62-.27-.87-.06-.07-.16-.11-.26-.14.14.51.16.99.06,1.48-.05.27-.02.56-.04.84-.02.4-.07.8-.09,1.19,0,.18.04.36.04.54,0,.2-.03.39-.05.59,0,.04-.04.09-.03.11.2.39-.03.77-.03,1.15,0,.27-.06.54-.07.81,0,.11.05.22.08.34,0,.1-.02.22-.03.33-.03.19-.07.38-.08.58,0,.27.03.54.03.81,0,.16-.06.31-.07.47-.01.12,0,.24,0,.36,0,.27,0,.54-.01.81,0,.1-.1.19-.1.29,0,.2.03.4.04.59,0,.1.02.19,0,.29-.03.33-.08.65-.11.98-.04.36-.09.73-.1,1.09-.02.83-.02,1.66-.02,2.49,0,.25.06.51-.01.73-.13.41.04.8.02,1.2-.03.43,0,.86,0,1.3.01,1.06,0,2.12.05,3.17.01.4.14.79.18,1.19.02.2-.03.4-.02.6.05.8.16,1.6.16,2.39,0,.73.16,1.44.26,2.15.1.69.33,1.37.51,2.05.09.34.2.67.31,1,.06.17.14.33.19.51.08.26.14.54.24.79.11.27.25.53.38.79.21.42.42.84.62,1.27.04.07.07.15.11.21.2.27.4.53.59.8.05.07.05.17.08.3,0,0,.1.02.11.06.08.27.15.54.17.81-.23-.24-.46-.48-.69-.72.03-.02.09-.06.14-.09-.06-.05-.11-.11-.18-.17.03-.02.07-.05.11-.09-.05-.06-.1-.12-.2-.23.02.11.02.16.03.21-.02,0-.04.01-.06.02-.04-.12-.09-.23-.13-.35-.01-.04,0-.1-.03-.11-.35-.17-.36-.56-.54-.84-.11-.17-.11-.42-.24-.58-.18-.22-.11-.48-.19-.7-.04-.12-.22-.19-.34-.29.15-.03.18-.09.07-.25-.16-.23-.31-.49-.38-.76-.06-.24-.21-.4-.31-.61-.08-.17-.12-.36-.18-.53-.12-.31-.25-.62-.36-.94-.07-.21-.1-.43-.14-.65-.18-.95-.37-1.91-.55-2.86-.03-.19.05-.41-.01-.58-.09-.24.1-.45.02-.65-.2-.51-.02-1.04-.15-1.55-.02-.1-.11-.18-.14-.27-.04-.12-.06-.26-.1-.39-.26-1.08-.29-2.18-.31-3.28-.01-.65-.02-1.31,0-1.96,0-.37.05-.74.06-1.11,0-.2,0-.4-.03-.59,0-.04-.07-.07-.11-.11-.05.5-.1.94-.15,1.44-.21.12-.14.42-.2.67-.05.19-.05.4-.1.59-.06.21-.05.42-.04.64,0,.11-.04.22-.04.32-.03.59-.06,1.18-.07,1.77-.02,1.08-.03,2.15-.04,3.23,0,.35-.01.71.01,1.06.02.24.1.46.13.7.02.17-.01.34.02.5.17.93.32,1.87.53,2.79.21.94.48,1.87.73,2.79.22.79.56,1.51,1.04,2.19.56.81,1.28,1.45,1.93,2.17.54.6,1.15,1.14,1.76,1.68.55.49,1.21.82,1.91,1.06.02-.02.04-.03.06-.05-.38-.54-.75-1.07-1.15-1.63.25-.02.46-.04.73-.06-.26-.12-.32-.47-.72-.31.11.05.2.1.29.15-.32.12-.52-.03-.67-.21-.3-.36-.56-.75-.84-1.13-.24-.32-.36-.67-.45-1.06-.05-.25-.18-.48-.27-.72-.04-.11-.08-.23.14-.23-.14-.27-.28-.51-.42-.77.22-.02.3-.16.23-.39h0c.06-.02.11-.05.15-.07.18.25.36.47.51.7.06.1.07.23.1.35.09.09.23.17.31.3.25.35.49.71.72,1.07.28.47.53.96.83,1.41.21.33.49.62.73.94.13.18.24.39.36.59.13-.06.41.02.52.21.28.49.39.49,1.02.66-.4-.5-.78-.95-1.12-1.43-.18-.26-.3-.56-.45-.84-.03-.05-.06-.12-.11-.14-.24-.11-.24-.12-.04-.3.02-.02.03-.05.06-.09-.09-.07-.18-.14-.23-.18,0-.11.03-.21,0-.28-.09-.21-.25-.4-.29-.62-.03-.14.01-.3-.08-.45-.2-.31-.39-.63-.58-.95.24-.21-.01-.41-.08-.57-.09-.22-.14-.45-.21-.68-.02-.08-.07-.14-.11-.24.07-.06.16-.14-.02-.27-.16-.12-.16-.46-.03-.61-.07,0-.15,0-.19-.03-.06-.06-.15-.17-.13-.22.09-.21.06-.33-.13-.36.04-.11.07-.21.1-.32-.06-.02-.13-.04-.24-.07.1-.04.15-.07.25-.11-.09-.06-.15-.1-.22-.15.05-.05.09-.09.15-.14-.1-.06-.2-.09-.25-.16-.04-.06,0-.16,0-.19-.03-.09-.05-.15-.05-.2-.01-.07-.01-.15-.01-.18.04-.12.06-.22.09-.31-.06.02-.13.04-.21.06,0-.09.02-.17.03-.25h.16s0-.03,0-.04c-.07-.03-.13-.05-.25-.1.11-.02.17-.03.27-.05-.08-.05-.12-.08-.17-.12.02-.04.06-.1.07-.12-.09-.11-.16-.2-.26-.33.14-.04.21-.05.31-.08-.2-.13-.34-.25-.28-.51.03-.11.03-.29-.19-.29-.03,0-.09-.09-.09-.13,0-.19,0-.39.02-.58,0-.08.06-.16.09-.26-.24-.08-.13-.35-.16-.54-.08-.53-.14-1.07-.18-1.61-.02-.19.09-.42.02-.58-.12-.28.17-.55-.03-.8-.02-.02.03-.08.03-.13,0-.24.09-.49-.07-.72.04,0,.08-.02.16-.04-.07-.08-.12-.14-.19-.22.05-.04.1-.08.17-.13-.02-.1-.25-.22-.03-.29,0-.13-.05-.25-.02-.34.07-.17,0-.21-.15-.21.15-.17.17-.45.04-.63.05-.04.11-.08.18-.14-.07-.03-.12-.04-.2-.07.05-.13.11-.26.17-.41-.03-.01-.09-.05-.14-.08.05-.16.11-.31.13-.47.01-.1-.04-.21-.04-.31,0-.09.03-.19.02-.27-.02-.16-.05-.32-.04-.49,0-.49.03-.99.03-1.48,0-.41-.01-.82-.02-1.23-.01-.39-.03-.77-.05-1.16-.01-.38-.04-.77-.03-1.15.01-.51.05-1.03.08-1.54,0-.13.06-.25.1-.41.4.32.5.73.58,1.14.07.34.12.69.16,1.04.04.35.03.71.09,1.06.08.47,0,.93,0,1.4,0,.18.05.36.1.54.04.16.05.3-.19.38.02-.09.04-.16.05-.2-.1,0-.23-.02-.35,0-.13.03-.26.06-.22.27.03.14-.04.3-.06.45-.01.11,0,.23,0,.38-.02.01-.07.04-.12.06,0,.03,0,.05,0,.05.23.03.14.22.15.33.01.18-.04.36-.05.54,0,.08.03.16.05.23.06.16.07.3-.05.44-.01.02.03.08.05.12.02.04.08.1.07.12-.19.22.04.5-.11.74.05.03.1.05.17.09-.08.07-.14.12-.23.2.1.01.16.02.24.03,0,.03.01.06,0,.09-.05.19-.07.36-.02.56.07.29-.14.62.1.9.01.02,0,.06,0,.09,0,.11,0,.23-.01.34,0,.08,0,.16,0,.24,0,.08.01.16.02.24h.07s-.08.09-.07.13c.03.18.25.33.08.54.05.04.11.08.16.12-.2.21-.19.32.04.52-.19.26-.22.22.22.52-.27.2-.13.47-.06.66.15.36.14.74.21,1.11.08.44.11.91.28,1.31.11.24.02.52.21.73.03.03-.04.15-.05.19.05.16.1.29.14.42.16.61.32,1.22.47,1.84.07.28.12.56.18.84,0,.03.05.05.07.07.19.21.3.46.29.75,0,.05-.02.13,0,.16.34.38.33.89.52,1.33.09.21.16.43.28.64.09.15.12.36.21.54.12.27.18.56.39.8.16.19.22.46.34.69.11.21.23.42.36.62.41.64.83,1.28,1.24,1.92.09.14.17.22.36.1.11-.06.32-.04.44.03.31.19.59.12.89-.02.17-.08.35-.15.52-.22.12-.05.23-.1.16-.28-.06-.16,0-.29.14-.42.36-.34.71-.7,1.03-1.07.11-.13.12-.34.21-.49.12-.21.29-.4.41-.61.19-.37.51-.67.6-1.1.04-.2.2-.37.29-.56.13-.29.23-.58.34-.88.03-.07.04-.14.07-.23q.18.15-.03.38s.08.09.12.13c0,.02,0,.04-.01.04-.17.09-.19.2-.14.39.02.06-.06.17-.12.24-.05.06-.13.09-.19.14-.14.11-.1.18.09.23-.14.22-.27.42-.38.59.08.07.17.14.23.2-.13.03-.25.04-.33.1-.03.02-.01.15,0,.22,0,.02.08.03.13.04,0-.05.01-.11.02-.17.4-.03.78-.17,1.02-.51.36-.5.69-1.02.99-1.56.32-.57.58-1.16.86-1.75.21-.45.41-.9.62-1.34.05-.1.12-.19.16-.25,0-.08,0-.15.03-.2.1-.21.23-.41.31-.62.21-.52.39-1.06.59-1.58.09-.25.2-.5.33-.83-.12-.18.11-.41.15-.67.03-.21.13-.42.21-.62.03-.07.09-.12.14-.19-.03-.04-.06-.09-.11-.15.1-.09.35-.15.09-.35.09-.08.17-.16.26-.23-.16-.12.03-.29,0-.36-.11-.21.07-.25.12-.33-.03-.29-.11-.55.08-.82.07-.1.02-.29.03-.43.02-.38.04-.76.07-1.13.03-.36.07-.73.09-1.09.01-.25-.04-.51,0-.75.02-.15.16-.28.25-.41.01-.02.08-.02.11,0,.02.02.04.07.04.1-.08.96-.16,1.92-.25,2.88-.02.24-.13.46-.16.7-.04.29-.04.59-.06.88,0,.05-.02.09-.03.14-.05.2-.11.4-.16.6-.09.33-.17.66-.27.99,0,.03-.08.05-.16.08.06.02.11.03.15.04.03.03.05.05.08.08-.09.05-.18.1-.29.16.08,0,.13.01.26.03-.1.16-.18.29-.26.42h.19c-.11.22-.43.33-.24.65.01.02-.05.08-.07.12-.04.09-.12.15-.05.29.03.06-.08.21-.14.31-.03.06-.09.11-.15.17.06.05.11.1.15.13-.09.09-.17.18-.29.31.12-.02.17-.03.21-.03.01.02.02.04.04.06l-.33.22s.01.03.02.04h.13s0,.04-.02.05c-.07.06-.18.11-.2.19-.07.18-.07.39-.15.56-.08.16-.24.25-.21.49.02.16-.16.33-.25.5-.09.17-.18.34-.25.52-.01.04.07.11.1.15-.08.1-.17.22-.28.35.12.24-.04.42-.15.62-.15.25-.4.5-.42.76-.02.48-.4.75-.53,1.17-.1.3-.36.55-.53.83-.13.21-.21.44-.35.65-.15.23-.34.45-.5.67-.14.19-.27.39-.41.58-.24.32-.5.64-.75.96-.08.1-.07.16.02.26.08.1.09.26.15.43.24.02.42-.17.62-.3.57-.36,1.11-.76,1.68-1.12.23-.14.5-.21.74-.33.18-.09.36-.21.51-.34.26-.23.51-.47.75-.71.13-.14.24-.29.34-.45.23-.36.48-.72.68-1.11.09-.18.23-.31.34-.47.13-.18.19-.43.27-.64.08-.22.29-.39.23-.65.27-.25.22-.64.45-.93.19-.24.26-.57.37-.87.17-.42.32-.85.49-1.27.12-.28.28-.54.39-.82.1-.24.15-.5.22-.74.08-.3.16-.59.23-.89.08-.31.15-.62.24-.93.07-.25.15-.49.23-.73,0,0,0-.02,0-.02.3-.15.21-.44.24-.7q.25.29.08.54s.06.05.1.08c-.09.07-.17.13-.25.19.1.07.19.14.28.21-.14.11-.28.21-.45.33,0,.03,0,.1-.02.17.19.09.31.22.21.44-.1-.03-.18-.06-.27-.08,0,.02-.02.03-.02.05.08.08.17.16.26.25-.07.05-.12.09-.19.14.05.05.1.09.15.14-.19.11-.37.21-.39.45.08.02.15.04.25.06-.13.1-.38-.02-.34.28.01.11-.2.25-.05.37-.06.15-.11.28-.15.41,0-.01-.01-.03-.02-.04-.03.06-.06.12-.09.17-.03.05-.07.08-.12.14.04.02.11.05.13.06-.17.43-.34.85-.51,1.27.01,0,.03,0,.04.01-.12.17-.25.35-.37.53.04.05.08.1.13.15-.15.12-.3.24-.46.37.08.04.16.07.24.11-.13.11-.24.22-.36.32.02.01.06.05.13.1-.09.03-.15.05-.23.08.13.15.11.24-.03.4-.14.15-.23.35-.27.59-.04.26-.26.5-.41.74-.05.08-.12.14-.16.23-.02.03.02.1.05.15.03.05.06.1.09.15-.26-.26-.27.15-.37.14-.01.09,0,.16-.04.21-.09.14-.21.26-.3.39-.03.04,0,.1,0,.16.05-.02.11-.03.15-.07.13-.13.25-.26.37-.41.1-.12.31-.21.19-.43ZM43.24,46.65s.09-.05.14-.08c-.09-.13-.14-.31-.26-.39-.19-.12-.28-.26-.32-.47-.03-.18-.11-.23-.33-.23.27.41.53.79.78,1.17ZM56.78,47.88c-.25.09-.45.17-.68.25-.06.08-.15.2-.24.32,0,.01.02.03.03.04.32-.16.64-.32.99-.49-.05-.06-.09-.1-.1-.11ZM36.83,24.72s.07,0,.1.01c.03-.27.06-.54.09-.8-.03,0-.05,0-.08,0-.04.27-.08.53-.12.8Z"/>
      <path class="cls-1" d="M49.22,75.92c-.02.15-.04.3-.06.47.06.02.12.04.16.05-.02.1-.04.19-.05.27,0,.06-.03.13-.01.18.08.2.17.38-.02.58-.04.04,0,.17,0,.25.04.59.14,1.18.11,1.77-.01.27.06.5.07.74.02.4,0,.8.03,1.19.03.32.11.63.16.94.04.24.07.48.09.72.02.17.05.32.23.41.39.19.47.57.55.95.02.1.1.2.11.3.06.43.3.8.35,1.24.05.42.18.82.3,1.23.05.19.15.36.22.54.04.11.07.22.13.31.1.16.2.33.3.49.06.1.12.19.16.3.03.08.05.17.03.25-.08.33.07.67.39.8.21.08.43.14.64.21.16.05.46.42.43.54-.03.16-.38.39-.58.35-.22-.04-.28.1-.39.25-.05-.04-.1-.09-.16-.12-.09-.03-.2-.07-.28-.05-.26.08-.63,0-.8-.21-.23-.3-.44-.62-.66-.94.05-.05.09-.1.17-.17-.24-.07-.34-.2-.34-.43,0-.1-.14-.18-.17-.29-.1-.38-.18-.76-.28-1.14-.02-.08-.11-.15-.16-.23-.06-.09-.12-.18-.18-.28.41-.2.3-.41-.18-.77.06-.05.11-.09.16-.14.04-.04.11-.09.11-.11-.03-.08-.08-.2-.13-.2-.24-.02-.24-.16-.21-.34.02-.14.02-.27-.19-.18-.02,0-.07-.05-.11-.09.31-.11-.03-.41.2-.55-.23.03-.25-.06-.23-.24.02-.25-.03-.51-.03-.75,0-.36-.24-.68-.1-1.05.05-.12-.05-.3-.06-.45,0-.19-.08-.39.08-.57.03-.03.03-.11.02-.16-.11-.87-.25-1.73-.33-2.6-.06-.69-.05-1.38-.06-2.08,0-.07.1-.14.12-.21.02-.09.06-.17.06-.26,0-.1-.03-.19-.05-.34.03-.02.11-.05.2-.1-.05-.04-.08-.07-.13-.1-.16-.1-.25-.2-.24-.44.04-.63,0-1.26.01-1.89,0-.39.04-.77.04-1.16,0-.16-.06-.32-.09-.48,0-.04-.03-.11,0-.13.16-.22.17-.43,0-.65-.02-.02-.02-.06-.01-.09.1-.53.04-1.06.03-1.59,0-.14,0-.28.03-.43.03-.18-.06-.29-.2-.37-.13-.07-.15-.18-.05-.27.24-.22.16-.47.11-.73-.03-.13-.06-.25-.08-.38,0-.07,0-.18.05-.21.05-.03.15.01.24.02v-.28c-.07.05-.12.08-.17.12-.23-.18-.07-.39-.03-.59.04.04.08.07.12.11.04-.06.08-.1.12-.16.05.06.09.12.12.17.02,0,.05-.02.07-.03-.03-.06-.04-.15-.08-.18-.14-.08-.27-.07-.35.1-.2-.26-.17-.44.1-.57-.29-.32-.32-.67-.06-.78-.22-.27-.25-.8-.08-.98-.04-.17-.08-.32-.12-.52.07.05.1.07.13.09.02,0,.04-.02.06-.03-.04-.07-.09-.13-.13-.2-.04-.07-.1-.17-.08-.21.13-.24.11-.37-.12-.54-.03-.02-.05-.04-.09-.07.35-.22.13-.51.11-.78-.02-.25-.08-.5-.14-.74-.19-.85-.38-1.7-.6-2.55-.15-.56-.36-1.1-.54-1.65-.2-.6-.38-1.21-.61-1.8-.28-.7-.6-1.38-.92-2.07-.17-.38-.37-.76-.55-1.13-.02-.04-.01-.11,0-.13.08-.05.18-.11.27-.13.05-.01.12.04.17.08.15.13.29.27.45.43-.02.03-.06.09-.11.16.19.03.36.05.53.08.27.05.42.23.53.47.15.32.34.62.49.93.33.71.66,1.43.97,2.15.05.12-.02.29,0,.43.07.34.17.66.24,1,.07.34.13.69.19,1.04.02.11.06.21.07.32.05.45.07.9.14,1.34.09.66.2,1.31.3,1.97.03.19.02.39.04.59.08.85.17,1.71.25,2.56.03.29.03.57.05.86.08,1.03.18,2.06.22,3.09.05,1.05.04,2.11.05,3.16,0,.08-.06.15-.1.24.21.19.1.47.17.75-.15-.08-.28-.14-.23.1.06.02.13.04.15.05-.05.1-.11.18-.11.27-.02.23-.01.46-.03.69,0,.05-.06.1-.09.14-.04-.03-.08-.07-.12-.1-.08-.07-.16-.15-.27-.25-.02.13-.04.2-.05.28.16.05.31.08.45.16.06.03.08.16.09.24.02.36-.09.79.06,1.06.24.42.04.81.13,1.21.09.41.09.84.1,1.27,0,.34-.03.68-.04,1.03,0,.23,0,.45,0,.68-.03,0-.07,0-.1,0-.03-.23-.09-.45-.1-.68-.02-.45,0-.89,0-1.34,0-.04.06-.07.07-.11.02-.07.03-.14.01-.2-.06-.19-.14-.38-.16-.6.04.02.09.05.1.06-.07-.47-.15-.94-.23-1.45-.04,0-.1-.01-.16-.02.15-.13.18-.42.05-.57q-.14.3-.05.57ZM48.91,73.87c.17.08.29.13.45.21-.02-.12-.02-.24-.05-.34-.04-.11-.11-.21-.15-.3.2.07.15-.13.21-.28-.27,0-.3-.15-.27-.4.06.07.08.09.09.11.02.04.03.09.05.13.13-.31.13-.33-.19-.33.02-.07.03-.14.05-.21.07.04.13.07.24.13-.02-.11-.03-.17-.04-.23-.19.11-.15-.13-.25-.16-.05-.01-.1-.03-.15-.05-.01.06-.04.11-.03.17.01.11.05.22.06.34,0,.24,0,.47,0,.74,0,0-.04.05-.08.09.21.11.03.28.06.38ZM49.15,69.67c-.1-.22-.17-.38-.25-.55.34-.07.34-.08.14-.45-.02.07-.05.17-.08.26-.02,0-.05,0-.07-.01-.02-.13-.04-.25-.07-.38-.03,0-.05,0-.08,0,0,.07.01.14.02.21.02.27.25.54.03.83,0,0,.05.1.08.1.08.01.17,0,.29-.01ZM49.19,70.99c-.25-.05-.41.05-.37.25.12-.11.19-.09.25.06.01.04.09.05.13.08.02-.05.06-.11.06-.15,0-.08-.04-.15-.07-.23ZM48.88,70.92c.04-.11.06-.17.09-.23.1.08.18.14.25.2.01-.02.03-.03.04-.05-.17-.11-.12-.43-.46-.45.03.17.05.32.08.52ZM48.94,75.3h.07c.02-.07.04-.15.06-.24.07-.03.15-.05.28-.1-.17-.09-.29-.15-.45-.23.01.22.02.39.03.57ZM49.31,71.55c-.31-.15-.23.26-.44.28.1.05.18.08.24.11.07-.14.14-.27.2-.39ZM48.71,69.81s-.02.04-.03.06c.06.08.1.2.18.23.08.03.2-.03.3-.05,0-.03,0-.06.01-.1-.16-.05-.31-.1-.47-.15ZM48.76,68.39s.07.02.11.03c.03-.09.07-.19.08-.28,0-.02-.11-.05-.16-.07l-.03.32Z"/>
      <path class="cls-1" d="M42.66,8.14c-.06-.12-.1-.22-.17-.36-.18.28-.39.27-.63.23-1.09-.19-2.02-.66-2.69-1.56-.33-.44-.34-1.13.04-1.5.08.16.14.32.23.46.38.64.95,1.02,1.64,1.26.14.05.27.13.42.18.08.03.18.03.27.03.04,0,.08-.02.11-.01.62.3,1.31.26,1.96.43.05.01.1,0,.14.02.87.25,1.74.45,2.64.57.45.06.9.12,1.35.19.11.02.21.06.32.09.08.02.17.02.27,0,.11,0,.22.02.33.02.02,0,.06,0,.07.01.25.26.61.1.9.22.11.04.26-.05.4-.05.3-.01.61-.02.91,0,.22.02.43.08.67.13.13-.21.37-.25.65-.22.09,0,.18-.06.27-.07.2,0,.4,0,.59.03.08,0,.16.04.22.09.12.11.19.1.29-.03.06-.07.18-.1.28-.11.18-.01.36.03.53,0,.14-.02.26-.11.39-.17.03-.02.06-.07.09-.06.58.12,1.06-.16,1.57-.34.47-.17.94-.34,1.41-.52.39-.15.78-.3,1.14-.5.15-.09.23-.31.34-.47.03-.04.02-.13.06-.15.29-.18.2-.49.26-.74.03-.11.06-.21.1-.31.06-.15.14-.29.18-.38-.02-.12-.03-.2-.05-.28-.05-.16-.08-.33-.17-.46-.26-.39-.59-.7-.99-.94-.1-.06-.21-.11-.29-.18-.23-.21-.52-.19-.79-.24-.17-.03-.36-.02-.4-.25-.07.02-.12.03-.19.05.01-.06.02-.1.03-.14-.45.2-.58-.04-.62-.44-.22.04-.46.08-.72.13v-.26c-.08-.02-.16-.03-.25-.05.01-.05.03-.11.05-.2-.1.06-.16.1-.22.14,0-.02.01-.04.02-.06-.3-.11-.6-.24-.92-.32-.08-.02-.21.06-.32,0-.02.04-.04.07-.06.13-.2-.18-.42-.25-.69-.24-.14,0-.28-.09-.42-.13-.06-.02-.14-.03-.18,0-.23.12-.44.04-.66,0-.28-.05-.57-.06-.86-.09-.08,0-.17,0-.26-.04.12-.05.24-.1.36-.15v-.03c-.59.03-1.18.06-1.72.08-.31,0-.57,0-.84,0-.19,0-.38.03-.57.05-.52.06-1.04.11-1.57.17-.16.02-.31.08-.46.12-.08.02-.16,0-.23,0,.34-.12.67-.27,1.02-.36.37-.1.75-.15,1.13-.21.51-.08,1.03-.19,1.54-.21.61-.03,1.23.03,1.85.05.06,0,.13.01.19.01.56-.01,1.13-.04,1.69-.03.41.01.82.08,1.23.13.11.01.22,0,.33.01.33,0,.66.02.93.24.02.01.05.02.07.02.46-.08.78.24,1.15.41.09.04.18.07.26.11.56.29,1.12.59,1.61,1.01.03.03.07.04.11.06.62.19.86.67.95,1.26.01.07.07.13.09.19.02.13,0,.27.04.4.03.1.11.18.16.27.03.05.06.1.06.15,0,.09-.01.18-.02.25,0,.12-.02.2,0,.26.09.24.22.47.29.72.03.1-.03.22-.07.4-.04-.11-.06-.17-.1-.29-.07.08-.15.14-.15.19.01.13.05.26.1.38.12.26.08.42-.16.51.2.17.08.36.04.54,0,.03-.07.06-.11.06-.21,0-.34.11-.41.29-.25.61-.79.83-1.36.55.13-.12.26-.27.42-.38.16-.11.34-.18.5-.3-.4-.12-.76-.04-1.09.19-.03.02-.04.1-.02.14.01.03.08.04.13.04.07,0,.14,0,.22,0,0,.03,0,.06,0,.09-.32.03-.63.05-.97.08,0,0,0,.05-.01.06-.38.24-.77.44-1.21.54-.2.04-.4.11-.6.15-.06.01-.15.04-.19.01-.31-.2-.61.04-.91.02-.13,0-.26-.04-.39-.07,0-.02,0-.04.01-.06-.04.04-.1.13-.13.13-.37-.1-.71.04-1.06.13-.37.1-.75.19-1.13.26-.26.05-.52.09-.78.09-.31,0-.62-.05-.93-.07-.7-.06-1.4-.12-2.11-.18-.25-.02-.49-.09-.73-.12-.11-.01-.22.04-.32.02-.37-.07-.73-.16-1.1-.24-.18-.04-.37-.07-.56-.1-.01,0-.04.06-.06.09-.14-.04-.3-.08-.46-.14-.08-.03-.14-.09-.22-.12-.07-.03-.15-.03-.22-.04-.1-.01-.21-.02-.31-.03-.47-.06-.93-.12-1.4-.19-.08-.01-.16-.07-.24-.11-.06-.03-.13-.05-.14-.05ZM60.53,4.89s-.08.02-.12.03c.02.09,0,.22.06.26.13.1.09.19.04.31-.02.06-.03.15,0,.2.03.04.12.02.27.04-.09-.32-.17-.58-.25-.84Z"/>
      <path class="cls-1" d="M60.04,87.61c-.07-.09-.12-.17-.17-.24-.02.02-.04.03-.07.05.12.15.24.31.37.46,0,0-.01.02-.02.03-.04-.02-.09-.04-.12-.07-.2-.19-.4-.39-.61-.58-.04-.03-.1-.03-.15-.05-.11-.05-.22-.1-.31-.17-.04-.03-.04-.11-.05-.16.06,0,.13-.04.17-.02.23.11.45.23.67.34.04.02.07.03.11.04.72.15,1.35.46,1.83,1.04.33.4.74.77.96,1.23.46.98,1.11,1.87,1.37,2.93.11.45.24.9.34,1.35.02.11-.02.25-.08.35-.14.25-.31.35-.5.37-.18.22-.3.43-.48.57-.35.28-.54.67-.77,1.03-.12.2-.21.42-.33.62-.06.1-.17.17-.28.28,0,0,.01.06.03.13-.09-.04-.15-.07-.21-.1,0,.01-.02.03-.03.04.04.04.07.08.09.1-.35.28-.69.58-1.05.84-.31.23-.65.43-.97.64-.02.01-.05.02-.06.02-.3-.14-.54.03-.79.13-.15.06-.25.22-.4.3-.26.16-.52.3-.79.44-.06.03-.16,0-.25,0-.05.13-.89.33-1.48.31.07.04.11.06.21.12-.36.05-.65.1-.93-.09.02.03.04.07.06.1-.34-.03-.68-.05-1.02-.1-.43-.07-.86-.16-1.29-.24-.04,0-.09.02-.14.01-.23-.02-.46-.04-.68-.05-.1,0-.21-.04-.29,0-.17.09-.36-.13-.51.07-.01.02-.1-.03-.15-.04-.06-.02-.14-.06-.18-.04-.15.11-.29.08-.45,0-.03-.02-.13.01-.14.04-.08.28-.32.22-.51.24-.12.02-.24.03-.41.05,0,0-.04-.04-.08-.08-.02,0-.03,0-.04.01-.21.38-.49.12-.74.07-.37-.07-.74-.2-1.11-.29-.12-.03-.26-.05-.38-.03-1.03.19-2.02-.02-3-.26-.55-.14-1.07-.38-1.61-.57-.04-.01-.08-.03-.1-.06-.13-.24-.33-.41-.6-.49.16-.33.43-.31.7-.27.48.07.96.17,1.45.2.57.04,1.13.01,1.7.02.17,0,.35.06.52.08.18.02.36.01.53.02.04,0,.08,0,.11,0,.36.16.71.32,1.07.47.11.04.23.04.35.04.64,0,1.27,0,1.91-.01.19,0,.38-.09.58-.09.2,0,.4.06.6.07.5.03.99.05,1.49.08.06,0,.13-.02.19-.02.27.01.54.03.81.05.08,0,.16.02.24.01.43-.06.87-.09,1.29-.2.5-.13.99-.32,1.48-.48.32-.11.61-.25.82-.53.15-.19.29-.4.45-.59-.08.22.08.5-.2.66.24.31.54.14.79.06.36-.12.73-.27,1.05-.47.37-.23.7-.54,1.05-.81.08-.06.16-.11.23-.17.49-.4.97-.81,1.28-1.37.4-.72.71-1.47.6-2.33-.02-.14-.1-.27-.16-.4-.07-.15-.2-.29-.04-.46-.03-.04-.09-.08-.12-.14-.26-.49-.56-.97-.77-1.49-.27-.65-.74-1.12-1.22-1.6-.13-.13-.26-.26-.36-.41-.05-.08-.06-.21-.05-.31.02-.23-.15-.22-.26-.23Z"/>
      <path class="cls-1" d="M6.91,34.51s-.05.02-.05.02c.02.17.04.31.06.45.02.18,0,.37.28.4-.1.07-.16.12-.22.16.11.18.21.33.32.5-.06.03-.11.05-.17.08.04.08.07.16.11.23-.16.07-.25,0-.28-.19-.01-.09-.08-.17-.11-.25-.04-.1-.07-.21-.1-.32-.05-.18-.08-.36-.13-.54-.06-.22-.15-.44-.2-.67-.04-.22-.03-.45-.07-.67-.06-.32-.14-.63-.23-1-.07.13-.11.2-.18.34-.04-.15-.09-.25-.07-.3.11-.2.02-.38,0-.57-.06-.38-.1-.76-.15-1.13-.06-.46-.13-.91-.18-1.37-.03-.29,0-.58-.03-.87,0-.15-.05-.31-.07-.44.02-.13.05-.26.05-.39.01-.23,0-.46.01-.69,0-.17.01-.34,0-.51-.03-.58-.12-1.17-.09-1.75.03-.52-.06-1.06.17-1.57.05-.12.01-.28.03-.42.03-.32.07-.64.11-.97,0-.05.02-.1.02-.14.01-.38.02-.76.03-1.14,0-.28,0-.57.03-.85.04-.34.12-.68.15-1.02.05-.57.1-1.13.09-1.7,0-.14.04-.27.04-.4.02-.27,0-.53.01-.8,0-.15.05-.3.08-.45.02-.09.03-.18.04-.27.02-.11.04-.22.05-.34.01-.12.16-.24,0-.37-.02-.01-.02-.06-.01-.09.07-.46.14-.92.22-1.38.04-.25.11-.49.14-.74.04-.35.05-.69.08-1.04.05-.44.11-.88.16-1.32.01-.12,0-.25,0-.37,0-.16.07-.23.23-.17.1.03.22.05.31.1.19.1.19.27.02.4-.09.07-.17.16-.25.25-.03.03-.06.07-.05.1.1.42,0,.84.03,1.26.02.36-.05.72-.06,1.08,0,.16.05.31.05.47,0,.11-.04.22-.03.33,0,.16,0,.33,0,.49-.02.26-.04.52-.07.78-.03.26-.06.52-.11.78-.02.08-.1.15-.09.22-.03.31-.06.63-.08.94,0,.11-.02.22-.02.33-.05.85-.11,1.7-.15,2.55-.03.51-.03,1.02-.05,1.52-.02.48-.08.96-.09,1.44,0,.7.02,1.4.03,2.1.01.69.01,1.38.03,2.06.01.46.05.92.07,1.38,0,.18-.03.37-.01.55.03.36.1.72.12,1.08.01.21,0,.44-.06.63-.13.35-.05.67.03.99.05.19.09.38.13.57,0,.02,0,.06,0,.07-.28.29-.13.63-.1.95.03.27.04.54.08.81.04.26.1.52.16.8Z"/>
      <path class="cls-1" d="M9.95,18.9c-.01.14-.03.26-.04.39,0,.05.03.11.02.16-.02.41-.05.83-.07,1.24-.01.34,0,.69-.03,1.03-.02.22-.1.43-.14.65-.04.29-.07.58-.09.87-.02.21,0,.41-.02.62,0,.08-.08.15-.12.22.23.21.06.49.09.73.02.17-.03.35-.03.52,0,.35.05.7-.04,1.06-.06.22.02.47,0,.71-.01.29-.05.58-.07.87-.02.33-.03.66-.05.98-.02.29-.06.59-.08.88-.01.24,0,.49,0,.73,0,.27,0,.54,0,.81,0,.09.03.18.02.27,0,.08-.05.15-.08.26.08.14.1.31-.06.49-.04.05-.03.15-.04.23-.02.17-.05.34-.12.5.08.17.18.33.22.51.02.08-.1.19-.17.3.05.04.11.09.13.1.02.14.04.24.06.36,0,0-.04.02-.08.03,0,.19.01.38.03.56,0,.08.06.15.08.22.02.07.03.15.05.22.04.17.06.35.14.5.07.13.15.23.09.4-.03.1.04.23.07.33.08.25.2.47.11.76-.04.14.07.33.12.49.1.37.19.74.31,1.11.06.21.16.41.24.61-.35.12-.35.1-.56-.19-.22-.3-.44-.59-.52-.96-.11-.53-.22-1.06-.31-1.6-.09-.53-.16-1.06-.21-1.59-.02-.25.02-.51.03-.76,0-.04.04-.1.02-.11-.15-.18-.04-.36-.04-.54-.02-.68-.08-1.35-.11-2.03-.02-.48-.04-.96-.02-1.44.01-.26.15-.51.17-.77.03-.48,0-.96.03-1.44.03-.61.1-1.21.13-1.82.02-.37-.02-.74,0-1.11.02-.33.1-.66.12-.99.03-.43.02-.85.04-1.28.01-.22.07-.44.1-.67.03-.23.05-.47.08-.7.03-.28.09-.56.11-.84.03-.34.03-.67.05-1.01,0-.14.04-.28.06-.43,0-.09,0-.19,0-.28,0-.05-.02-.1-.01-.14.1-.56.22-1.12.31-1.68.06-.41.08-.82.12-1.23,0-.02,0-.04,0-.04.26-.26.14-.57.15-.87,0-.26.03-.52.06-.77.07-.64.18-1.27.19-1.91,0-.51.13-.99.21-1.48.03-.17.09-.33.13-.51.1.05.16.09.23.12,0-.01.02-.02.03-.03-.03-.05-.06-.09-.1-.15.03-.01.06-.04.08-.03.06.03.17.08.17.12,0,.1-.06.2-.12.36.05.09,0,.21-.08.38-.11.25-.11.55-.12.83-.01.32.04.64.01.96-.02.29-.12.58-.17.87-.06.37-.09.74-.14,1.11-.11.79-.24,1.58-.35,2.37-.06.41-.09.82-.13,1.23-.01.11-.04.22-.06.35Z"/>
      <path class="cls-1" d="M22.89,7.14s.03.09.06.17c-.07-.01-.13-.04-.19-.03-.52.09-1.03.18-1.55.26-.16.03-.33,0-.5,0-.27,0-.53.09-.78.18-.14.05-.3.03-.45.04-.29.02-.58.03-.85.17-.03.01-.06.04-.08.04-.77,0-1.52.3-2.3.24-.31-.02-.64-.03-.93.06-.46.14-.93.09-1.39.19-.16.03-.33.02-.49.01-.27,0-.55-.02-.82-.02-.35,0-.71.02-1.06.01-.22,0-.43-.02-.64-.04-.19-.01-.39,0-.55-.14-.01,0-.04-.01-.05,0-.26.23-.48-.07-.74-.05-.25.02-.52-.08-.78-.1-.39-.04-.79-.04-1.19-.08-.26-.03-.52-.1-.78-.14-.42-.06-.85-.07-1.25-.16-.42-.1-.82-.27-1.23-.4-.12-.04-.25-.07-.38-.08-.55-.05-.96-.37-1.38-.67-.09-.06-.19-.12-.3-.15-.34-.1-.36-.11-.49-.52.61.24,1.21.49,1.83.71.99.35,1.99.67,3.06.67.17,0,.33.06.5.08.06,0,.13-.03.19-.04.05,0,.1,0,.15,0,.25.03.5.06.76.08.23.02.46.01.7.02.55,0,1.08.17,1.62.2.73.05,1.46.08,2.18.11.7.02,1.39.03,2.09.03.32,0,.64-.04.96-.06.52-.03,1.04-.04,1.56-.08.41-.03.82-.09,1.23-.15.28-.04.55-.1.82-.13.3-.04.6-.04.9-.08.27-.04.54-.09.81-.2.22-.08.49-.03.74-.02.1,0,.2.07.23-.1,0-.03.14-.05.21-.04.06.01.11.08.2.16-.03-.29.04-.33.24-.19.17.13.24,0,.28-.14.32-.04.64-.07.95-.11,0,.02,0,.03-.01.05.06.02.14.08.19.06.5-.22,1.04-.22,1.57-.28-.47.14-.94.3-1.42.41-.38.09-.75.16-1.12.3-.09.04-.23-.05-.35-.08Z"/>
      <path class="cls-1" d="M41.33,19.35c-.05.09-.08.16-.12.23-.06-.04-.12-.07-.17-.1l-.03.04c.04.05.08.11.16.2-.08,0-.14.01-.18.02v.87c-.08.05-.16.09-.27.15.36.09.35.09.32.45-.02.17,0,.34-.05.52-.02-.27-.05-.54-.08-.83-.11.01-.19.02-.23.03-.02.18-.04.33-.06.52.09.06.21.15.06.33-.02.03.03.18.08.2.07.02.16-.03.23-.04v.65c-.04-.05-.09-.12-.14-.19-.12.39-.17.79-.09,1.21.05.31,0,.63.01.95.01.29.06.58.08.88.01.2,0,.4,0,.61-.02,0-.04,0-.06,0-.03-.13-.07-.26-.09-.35-.22.09-.44.17-.69.27.03.03.09.11.12.11.16-.03.32-.09.51-.15-.02.1-.05.23-.07.33-.19-.02-.35-.06-.51-.05-.06,0-.12.09-.2.15.08.02.14.03.2.04,0,.02,0,.03.01.05-.07.03-.14.06-.23.1.02.07.08.16.06.24-.01.08-.1.14-.15.21-.04-.05-.13-.11-.13-.16,0-.3.02-.6.03-.9,0-.14,0-.27,0-.41-.02-.23,0-.43.26-.53-.05,0-.11.02-.15,0-.04-.02-.06-.08-.08-.12.29-.1.07-.29.07-.43,0-.17-.05-.34-.04-.53.03.04.05.07.1.14-.01-.22-.02-.4-.03-.64.2-.17.02-.45.03-.7.02-.42.03-.84.2-1.24.01-.03.04-.06.03-.09-.08-.34,0-.68.02-1.02.01-.36.04-.72.08-1.07.03-.26.1-.51.13-.76.02-.18-.02-.36,0-.54.03-.33.07-.66.11-1,0-.02.04-.05.05-.07-.18-.1-.05-.27-.1-.39-.08-.22-.03-.37.1-.44.02-.64.03-1.23.05-1.82,0-.08-.02-.16,0-.23.02-.08.06-.17.12-.23.09-.09.2-.16.3-.24-.02-.03-.04-.05-.06-.08-.09.07-.19.14-.29.22,0-.4-.03-.79,0-1.18.04-.48.04-.97.07-1.45.01-.22.1-.44.18-.65.09-.23.2-.45.31-.68,0,0,.02,0,.02.02.02.55.03,1.1.04,1.65,0,.22.01.44.03.66.02.34.06.68.08,1.03.01.35,0,.69,0,1.04,0,.06.06.12.05.18-.04.53-.09,1.05-.13,1.58-.04.49-.06.97-.1,1.46,0,.13-.03.26-.09.38,0-1.05.09-2.09-.03-3.13-.32-.04-.34-.03-.26.25.02.06,0,.13,0,.19.01.11-.07.25.11.33.05.02.09.22.05.26-.19.22-.03.39.05.58,0,.02,0,.05.01.09-.12.05-.34.06-.14.28,0,0-.02.06-.04.08-.18.13-.08.18.08.2-.07.09-.11.15-.17.22.14.22.26.44-.04.64-.02.01.03.13.06.24-.13.11.12.35-.11.54-.1.08,0,.39-.02.6-.01.22-.05.43-.07.65.03.01.06.02.09.04.04-.04.12-.08.13-.12.04-.23.06-.47.1-.71.05-.36.1-.72.19-1.1.02.04.06.09.05.13-.02.22-.07.44-.08.66-.01.26,0,.51,0,.8.1-.02.2-.03.33-.06ZM40.36,25.58c-.16-.04-.32-.07-.48-.11-.01.04-.02.07-.03.11.16.06.32.14.48.17.04,0,.11-.16.16-.24-.02-.01-.05-.03-.07-.04-.02.04-.05.08-.07.11ZM40.88,14.26s.05.02.08.03c.02-.06.05-.13.05-.19,0-.07-.03-.14-.06-.2-.02-.05-.05-.12-.08-.13-.05,0-.1.04-.21.09.35.05.19.26.22.39ZM40.17,25.15s-.03.04-.05.06c.03.08.06.16.09.24.02,0,.04,0,.05-.01,0-.04.02-.08.03-.12.05.02.09.03.13.04,0-.02.02-.04.03-.07-.09-.05-.19-.09-.28-.14Z"/>
      <path class="cls-1" d="M53.11,95.63c-.17.04-.27.07-.39.1.03.07.05.14.09.23-.07,0-.13,0-.2.01,0,.05.01.1.02.2-.18-.05-.35-.06-.49-.13-.6-.3-1.18-.61-1.78-.91-.42-.21-.85-.42-1.28-.62-.44-.22-.75-.58-1.03-.99.05-.02.09-.03.17-.06-.06-.03-.1-.05-.12-.08-.05-.08-.12-.16-.14-.24-.05-.25-.06-.51-.12-.75-.03-.1-.17-.16-.27-.25-.1.23-.3.23-.47-.01-.1-.14-.19-.28-.26-.43-.04-.08-.07-.19-.04-.26.07-.17.05-.28-.11-.34.13-.3.25-.59.36-.85.13.01.28.02.44.04.06,0,.13.03.17.07.15.14.29.3.43.45.41-.21.55-.15.67.3.05.19.11.42.04.58-.1.24-.02.37.08.57.18.37.49.5.84.63.3.11.59.29.86.47.43.27.84.56,1.16.96.11.14.29.23.46.3.38.17.62.34.96.76-.12-.06-.2-.1-.27-.14-.08-.04-.15-.08-.26-.09.15.15.29.3.47.49Z"/>
      <path class="cls-1" d="M21.29,85.88c-.6.22-1.2.14-1.77-.01,0,.13-.02.26-.02.38-.02.01-.04.02-.06.04-.05-.33-.27-.17-.43-.2-.01.04-.03.07-.04.11-.11.34-.11.34.27.36.08,0,.17.04.28.07-.09.33-.57.14-.61.42-.11-.05-.24-.15-.34-.14-.2.03-.35-.03-.52-.1-.16-.06-.25-.13-.21-.31,0-.02,0-.05-.02-.07-.05-.09-.12-.18-.15-.28-.06-.2-.13-.34-.32-.48-.18-.13-.29-.43-.34-.67-.06-.31.13-.5.45-.57.03-.12.07-.24.1-.36.02,0,.04,0,.06,0,0,.06,0,.11-.01.16.05,0,.15-.02.19.02.16.16.3.08.38-.06.26-.46.68-.44,1.11-.4.14.01.29.03.43.03.41,0,.73.21,1.05.42.38.26.8.21,1.2.12.19-.04.37-.22.33-.5.07,0,.13-.02.2-.03.02-.11.03-.21.05-.35.06.05.1.07.1.08-.08.29.1.61-.13.88-.03.03,0,.16.03.2.14.14.06.26,0,.39-.02.06-.07.15-.06.17.19.18,0,.35-.03.5-.06.27-.52.55-.81.56-.26,0-.24-.23-.36-.4Z"/>
      <path class="cls-1" d="M21.08,36.86c.01-.05.02-.1.04-.15.17-.38.15-.8.17-1.2.04-.74.08-1.49.15-2.22.02-.16.17-.32.29-.46.03-.04.21-.02.25.03.08.09.24.18.13.36-.23.35-.25.75-.26,1.15,0,.6.02,1.2.03,1.8,0,.3.01.59,0,.89-.02.64-.15,1.26-.31,1.89-.16.61-.48,1.11-.82,1.62-.3.44-.51.95-.73,1.44-.12.28-.14.6-.25.88-.09.23-.3.41-.38.64-.15.48-.42.89-.66,1.32-.26.48-.64.82-1.14,1.01-.1.04-.21.07-.31.11-.31.15-.66-.03-.67-.36,0-.09.06-.24.13-.27.61-.3.96-.86,1.41-1.32.18-.18.36-.36.53-.56.09-.11.14-.24.21-.37.16-.31.34-.61.47-.93.15-.37.23-.77.36-1.15.25-.72.52-1.42.77-2.14.12-.36.19-.74.29-1.11.07-.23.17-.45.25-.67.03-.07.05-.15.08-.22-.02,0-.03,0-.05-.01Z"/>
      <path class="cls-1" d="M4.33,12.08c-.12.17-.25.34-.38.53-.06-.13-.11-.22-.17-.35.11-.04.22-.07.32-.11-.3-.21-.18-1.12.1-1.28.05-.18.1-.3.12-.43.05-.24.1-.49.11-.73.02-.35.04-.71.02-1.06,0-.16-.11-.32-.17-.5.04-.01.12-.04.2-.07.65.53.63,1.25.58,1.98-.04.55-.1,1.1-.16,1.65,0,.09-.07.18-.11.27.02.03.09.08.08.13-.05.32-.12.63-.18.94,0,.05.02.11,0,.16-.04.25-.08.49-.12.74-.02.12-.02.25-.04.4-.11.08-.27.16-.15.37.01.02,0,.06-.02.09-.06.09-.18.16.03.24.05.02.07.19.05.27-.03.07-.14.12-.17.15,0,.13.04.28,0,.34-.18.2-.08.36.02.48-.07.25-.13.46-.19.68,0,.01,0,.03,0,.05q.05.28-.13.44c.28.21,0,.41.04.66.14.13.1.53-.15.68.29.05.18.26.21.43.04.24-.12.33-.3.5.13-.02.19-.02.28-.03-.04.23.11.48-.19.62-.02,0-.01.11,0,.15.19.3.18.35-.11.51-.01,0-.01.03-.03.07.36.1.25.41.26.65,0,.24.05.52-.18.69.02.21.03.41.04.61,0,0-.02,0-.03,0,0,.14-.01.28-.01.43,0,.28,0,.56-.01.84,0,.3-.1.59-.12.89-.04.57-.14,1.14-.17,1.71-.04.65-.02,1.3-.03,1.96,0,.38-.01.76,0,1.14,0,.15.04.31.06.46.04.34.07.68.11,1.03,0,.07,0,.15.04.2.09.15.1.29.09.46-.02.53.03,1.07.14,1.6.06.3.11.6.18.9.02.08.06.16.12.29-.2-.09-.25-.25-.29-.4-.05-.16-.06-.33-.1-.49-.05-.18-.19-.33-.11-.56.04-.11-.08-.27-.1-.41-.05-.41-.08-.82-.12-1.24-.01-.1-.03-.21-.08-.3-.07-.12-.09-.21-.02-.33.02-.03.03-.1.01-.14-.11-.28-.07-.57-.03-.86.02-.15-.04-.32-.05-.48-.02-.19-.01-.38-.03-.57-.02-.2-.05-.41-.08-.61,0-.04-.04-.08-.06-.12-.02-.03-.08-.08-.07-.09.17-.26-.04-.52.02-.79.04-.19,0-.4,0-.59,0-.06-.01-.16.02-.17.22-.12.13-.28.06-.43-.07-.15-.04-.24.12-.28,0-.2-.14-.41.04-.64q-.07-.27.21-.64c-.21-.11-.2-.28-.17-.5.03-.3-.1-.62-.05-.91.06-.37-.12-.72.02-1.1.09-.23,0-.52,0-.78-.01-.29-.04-.58-.05-.87,0-.14.06-.27.07-.41.01-.23,0-.45,0-.72.04-.03.13-.09.21-.14-.02,0-.04,0-.06,0,.02-.57.02-1.15.08-1.72.03-.29.18-.57.23-.86.05-.29.04-.6.08-.9.03-.26.1-.52.13-.78.05-.36.18-.7.15-1.07-.01-.14.06-.28.08-.42.07-.48.13-.97.2-1.46-.05-.02-.09-.04-.14-.06Z"/>
      <path class="cls-1" d="M61.88,15.76c-.02-.07-.03-.13-.05-.2-.02,0-.05,0-.07,0,.02.16-.03.37.06.47.17.21.09.41.09.62,0,.4,0,.8,0,1.19,0,.12-.01.23-.02.38.03.02.08.06.14.11-.07.11-.27.23.03.31.04.42.08.86.13,1.32,0,0-.03,0-.08.02.14.33.22.67.17,1.03,0,.05-.08.09-.13.14.1.2.3.38.11.64-.04.05.04.19.06.29.03.16.05.32.09.47.03.13.07.25.14.37-.17.31-.06.56.17.8.02.02,0,.06,0,.09.02.44.04.87.07,1.31.01.25.03.5.04.75.01.24.04.49.03.73-.03.89-.07,1.78-.13,2.67-.01.19-.15.36-.23.55-.03.06-.05.13-.08.19-.09,0-.19.01-.25.02-.07-.11-.13-.21-.2-.33.03-.02.07-.04.13-.08-.23-.18-.19-.38-.13-.63.07-.27.05-.56.06-.86.06.04.11.06.22.13.01-.65.02-1.27.03-1.89,0,0,.01,0,.02,0,0-.13-.02-.25-.03-.42-.17-.14-.1-.39-.13-.63-.02-.14-.02-.29-.01-.43.01-.14.05-.28.08-.43.03,0,.05-.02.08-.03-.08-.03-.17-.05-.25-.08.16-.26.13-.54-.09-.73.29-.2.05-.45.08-.69-.08,0-.14.01-.21.02,0-.04-.01-.06,0-.08.09-.16.06-.32,0-.48-.03-.09,0-.21-.03-.3-.04-.16-.09-.31-.16-.46.09-.32.13-.64.01-1,.16-.19-.05-.42-.03-.65-.1-.02-.2-.05-.34-.08.15-.09.24-.15.34-.22,0-.02,0-.04,0-.06-.12.01-.25.02-.41.04.11-.12.2-.2.28-.29.13-.08.28-.11.18-.36-.04-.1.02-.24.03-.36.02-.35-.05-.4-.37-.28-.02,0-.05,0-.15-.03.12-.11.2-.19.3-.27.03.09.05.13.06.17.03-.05.08-.09.08-.13-.02-.37-.04-.73-.07-1.1-.01-.17-.01-.35-.04-.52-.03-.17.03-.35-.21-.47-.2-.1-.22-.68-.08-.92.03.11.06.21.09.31.02,0,.04-.01.06-.02-.09-.23.12-.52-.19-.72-.1-.06-.04-.3.04-.34-.14-.23-.27-.46-.41-.69.02,0,.04,0,.06,0v-.59s-.05-.04-.05-.04c.16-.61-.02-1.16-.08-1.72,0-.02-.02-.04-.01-.04.29-.3.1-.67.14-1.01.03-.23.04-.46.06-.73.04.06.07.08.07.11.05.32.09.64.13.97,0,.06-.04.12-.06.18-.02.05-.06.12-.04.15.23.47.22.99.33,1.49.18.83.32,1.67.47,2.51.05.29.11.57.16.86-.03,0-.05,0-.08.01Z"/>
      <path class="cls-1" d="M42.05,87.45c-.4.16-.8.33-1.2.48-.58.22-1.1.53-1.56.96-.19.18-.49.24-.74.36-.09.04-.19.09-.27.14-.13.08-.26,0-.38.03-.25.05-.49.16-.73.26-.14.06-.26.16-.39.24.17.16.17.25-.02.47-.28.33-.44.72-.55,1.13-.05.17-.09.37-.21.5-.25.29-.09.58.04.8.25.44.59.83.89,1.25.12.16.24.33.35.5.02.02,0,.1-.01.1-.05.02-.12.03-.15,0-.24-.22-.49-.42-.69-.67-.2-.24-.36-.51-.52-.77-.36-.57-.52-1.2-.5-1.87,0-.06.05-.16.07-.16.21.01.3-.17.41-.28-.04-.04-.09-.08-.14-.13.05-.03.11-.05.14-.1.07-.1.2-.22.18-.31-.06-.23.12-.32.21-.47-.02.07-.05.14-.08.21.23,0,.23-.19.33-.31.16-.21.39-.37.62-.51.72-.45,1.44-.88,2.17-1.3.44-.25.89-.48,1.41-.52.27-.02.54-.11.83-.17.02.04.05.09.09.16.06-.06.11-.11.14-.14.09.05.17.09.24.13h0Z"/>
      <path class="cls-1" d="M41.78,97.53c-.21.18-.39.07-.56-.07-.04.07-.08.14-.09.15-.26-.05-.49-.11-.73-.15-.04,0-.09.04-.13.07-.16.14-.35.15-.55.18-.39.07-.63-.15-.89-.36-.2-.16-.39-.33-.58-.51-.32-.31-.44-.72-.55-1.14-.04-.18-.11-.35-.2-.51-.15-.27-.14-.47.11-.64.06-.04.26.02.32.09.17.24.33.5.46.76.13.26.29.45.58.56.69.27,1.34.63,1.95,1.07.26.19.56.33.85.5Z"/>
      <path class="cls-1" d="M47.43,52.64c1.07-.37,2.16-.69,3.3-.82-.25-.02-.51-.03-.76-.07-.26-.04-.51-.1-.76-.19h1.56c.01-.08,0-.2.04-.25.06-.05.17-.04.27-.05.35-.02.71-.05,1.07-.06.14,0,.29.02.43,0,.09,0,.18-.05.26-.1.13-.09.25-.21.38-.3.09-.06.53.13.49.21-.06.12-.18.25-.3.3-.5.22-1.02.4-1.52.61-.89.38-1.84.6-2.74.96-.47.18-.94.2-1.42.06-.12-.03-.21-.15-.32-.22,0-.03.02-.06.03-.09Z"/>
      <path class="cls-1" d="M40.78,2.7c-.03.13-.01.26-.08.32-.13.11-.3.18-.45.28-.05.04-.12.1-.12.16-.02.32-.22.52-.42.74-.09.1-.14.23-.25.39-.15-.22-.29-.41-.41-.6-.03-.04-.02-.11-.02-.16,0-.1.02-.2.03-.3.02,0,.09.04.17.07.04-.16.07-.29.11-.43.07-.21.11-.4.41-.45.24-.04.46-.22.66-.37.29-.21.57-.44.8-.62.15-.01.26,0,.31-.04.41-.33.89-.47,1.37-.64.16-.06.31-.12.47-.17.2-.06.38-.11.61-.02.2.08.45.01.67.03.1,0,.19.07.28.1,0,.03-.02.06-.03.09-.21.03-.42.05-.63.08-.09.11-.19-.01-.31-.02-.28-.02-.57-.02-.84.14-.28.16-.62.21-.83.49-.05.07-.11.13-.17.2-.31-.15-.45.17-.66.28-.25.14-.48.3-.7.44Z"/>
      <path class="cls-1" d="M42.06,87.45c-.04-.09-.09-.18-.13-.26,1.59-.67,3.29-.86,5.02-.87,0,.03.02.06.03.1-.21.07-.42.15-.63.2-.23.05-.49.03-.69.12-.17.08-.32.16-.51.18-.36.04-.71.11-1.06.19-.44.11-.87.27-1.31.35-.23.05-.49-.02-.73-.03,0,0,0,0,0,0Z"/>
      <path class="cls-1" d="M58.83,87.02c-1.52-.56-3.1-.81-4.76-.86.18-.1.26-.32.51-.23.05.02.12.02.16,0,.41-.28.84-.12,1.25-.04.6.12,1.19.36,1.79.45.27.04.49.12.7.26.14.1.26.24.38.37-.01.02-.03.04-.04.05Z"/>
      <path class="cls-1" d="M12.95,37.7c-.02.1-.05.26-.07.43-.03,0-.05.01-.08.02-.08-.24-.17-.47-.23-.71-.08-.33-.14-.67-.21-1.01-.06-.3-.13-.59-.18-.89-.05-.24-.14-.5-.11-.73.04-.31-.13-.61,0-.92.06-.14.01-.32.02-.48,0-.04.03-.1.06-.11.03-.01.1.02.12.05.07.12.15.24.18.37.07.32.13.64.14.97,0,.21-.11.43-.1.65,0,.25.09.5.14.75,0,.05.03.09.04.14.04.29.06.58.12.87.03.14.16.25.04.41-.02.02.07.12.13.21Z"/>
      <path class="cls-1" d="M3.84,4.69c.22-.08.38-.14.54-.2,0,.02.02.03.03.05-.12.08-.22.19-.35.24-.25.11-.45.27-.64.47-.13.13-.34.19-.52.28-.07-.29.15-.74.35-.85.13-.08.28-.16.37-.28.24-.3.56-.47.9-.62.27-.12.55-.2.81-.32.24-.11.46-.09.68.02-.53,0-.96.32-1.42.51-.27.11-.49.34-.72.53-.04.03-.03.12-.04.16Z"/>
      <path class="cls-1" d="M41.6,17.74c.14.21,0,.5-.03.78-.03.24-.12.48-.2.76-.19-.26.19-3.64.47-4.1.02.14.06.28.04.42-.07.44-.19.87-.26,1.31-.03.18.02.38.02.57,0,.07-.02.14-.04.26Z"/>
      <path class="cls-1" d="M62.32,32.39c-.11-.01-.22-.03-.3-.04.02-.31.04-.59.05-.88.02-.34.02-.68.05-1.01.02-.19.32-.34.49-.3-.1.73-.2,1.46-.3,2.23Z"/>
      <path class="cls-1" d="M4.9,5.39c.08-.42.15-.8.23-1.23-.15.05-.24.09-.33.12-.01-.02-.02-.04-.03-.06.19-.1.37-.2.56-.3.17-.09.26.01.27.15.03.35.05.71-.19.99-.12.15-.34.21-.51.32Z"/>
      <path class="cls-1" d="M13.24,39.3c.06.06.15.1.17.17.06.15.02.33.21.45.09.06.1.25.15.37.02.05.06.09.11.15-.13.03-.28.07-.19.29-.32-.42-.41-.91-.6-1.36-.2-.47-.06-.96.08-1.44.02.46.05.91.07,1.37Z"/>
      <path class="cls-1" d="M41.08,42.49s-.08-.09-.14-.12c-.21-.12-.34-.26-.31-.53.02-.15-.08-.31-.13-.46.11,0,.23-.01.35,0,.04,0,.1.09.09.12-.09.28.15.43.26.62.11.21-.11.23-.14.36,0,0,0,0,0,0Z"/>
      <path class="cls-1" d="M40.37,29.29v-.45q-.23-.15,0-.33c-.07-.07-.14-.13-.18-.17.05-.08.12-.17.18-.26-.02-.01-.03-.02-.05-.04-.05.04-.11.09-.22.19.01-.15.02-.24.03-.34.1,0,.19.01.3.02.03.86.07,1.71.1,2.6-.21-.18.03-.51-.25-.64.16-.27.14-.41-.11-.6.09.01.16.02.2.02Z"/>
      <path class="cls-1" d="M45.05.42c.06-.27.31-.16.46-.2.23-.05.47-.02.71-.04.04,0,.08-.03.12-.05-.02-.04-.04-.08-.07-.14.11.04.22.08.33.12-.32.29-1.34.48-1.56.3Z"/>
      <path class="cls-1" d="M61.81,33.33c.06-.24.09-.47.19-.66.05-.1.23-.13.35-.2.01.02.03.05.04.07-.13.17-.26.34-.39.52.08.04.13.07.23.13-.15.05-.26.09-.41.14Z"/>
      <path class="cls-1" d="M61.4,17.68c-.32.07-.21-.24-.28-.37-.08-.16-.07-.36-.11-.54.03,0,.05-.02.08-.03.1.31.2.61.3.94Z"/>
      <path class="cls-1" d="M53.58,42.05c-.04.16-.08.32-.12.49.04.02.09.03.13.05-.11.08-.21.16-.32.24-.02-.01-.04-.02-.06-.03.09-.26.18-.51.28-.77.03,0,.06.02.09.02Z"/>
      <path class="cls-1" d="M38.41,31.43c.07-.3.13-.6.19-.89.13.31.04.61-.19.89Z"/>
      <path class="cls-1" d="M61.01,15.8c.04.24.07.46.11.7-.27-.18-.15-.45-.21-.67,0,0,.07-.03.1-.04Z"/>
      <path class="cls-1" d="M29.87,83.47q-.38.07-.44-.34c.13.1.26.2.44.34Z"/>
      <path class="cls-1" d="M49.73,75.16c-.03-.13-.07-.25-.09-.32.03-.2.05-.35.07-.49.01,0,.02,0,.03,0,.01.27.02.54.04.81-.02,0-.03,0-.05,0Z"/>
      <path class="cls-1" d="M.04,20.95s.11.08.12.13c.02.11.02.23.02.35,0,.02-.06.04-.11.06-.03-.18-.05-.34-.07-.5.01-.02.03-.03.04-.05Z"/>
      <path class="cls-1" d="M61.54,19.18c-.12-.09-.2-.15-.31-.23.11-.06.19-.11.28-.16.01.13.02.24.03.39Z"/>
      <path class="cls-1" d="M61.22,18.08v-.34s.04-.02.06-.03l.16.26c-.07.03-.13.06-.22.11Z"/>
      <path class="cls-1" d="M31.73,84.81c-.08.06-.15.13-.23.16-.05.02-.12-.04-.18-.06v-.06c.13-.04.24-.08.36-.12.02.02.04.05.06.07Z"/>
      <path class="cls-1" d="M40.89,26.61c-.07-.12-.14-.19-.17-.28-.02-.04.01-.09.02-.14.05.02.14.04.14.07.02.11,0,.22,0,.35Z"/>
      <path class="cls-1" d="M14.04,41.31c.03.19.06.33.08.47-.22-.07-.26-.21-.08-.47Z"/>
      <path class="cls-1" d="M4.17,35.01c.05.14.1.28.16.42-.03.01-.06.02-.09.03-.05-.14-.11-.28-.16-.42.03-.01.06-.02.1-.04Z"/>
      <path class="cls-1" d="M.35,22.88c-.07-.14-.13-.27-.2-.41.03-.01.05-.03.08-.04.07.14.13.27.2.41-.03.01-.05.03-.08.04Z"/>
    </g>
  </g>
</svg>