<?xml version="1.0" encoding="UTF-8"?>
<svg id="Layer_2" data-name="Layer 2" xmlns="http://www.w3.org/2000/svg" viewBox="0 0 80.08 121.86">
  <defs>
    <style>
      .cls-1 {
        fill: #000;
        stroke-width: 0px;
      }
    </style>
  </defs>
  <g id="illustrations">
    <g>
      <path class="cls-1" d="M54.95,4.3c-.26-.06-.07-.16-.01-.22.52-.51,1.05-1.01,1.58-1.52-.07-.04-.16-.1-.25-.16.01-.02.03-.04.04-.06.07.04.14.08.23.13.34-.17.37-.74.89-.71-.05-.02-.1-.04-.16-.05.01-.03.01-.05.03-.06.22-.18.44-.36.66-.55.34-.29.65-.62,1.02-.86.23-.15.56-.19.85-.22.24-.03.49,0,.72.06.13.03.25.14.37.22.15.09.29.25.44.28.59.08,1.19.14,1.78.17.33.02.67-.06,1.01-.05.16,0,.33.07.48.14.46.22.91.46,1.36.7.21.11.42.23.62.35.56.34,1.13.68,1.69,1.04.33.21.62.49.97.64.73.32,1.49.57,2.23.87.19.08.36.25.51.4.23.22.59.3.69.65.01.04.11.05.18.08-.01.12,0,.26-.04.39-.07.2-.12.43-.26.58-.16.17-.24.32-.26.54-.04.58-.1,1.17.12,1.8.03-.12.05-.18.06-.24.02,0,.03,0,.04.01.19.23.41.43.56.68.27.47.58.94.74,1.45.39,1.25.4,2.49-.37,3.63-.19.28-.4.54-.58.83-.22.38-.41.78-.62,1.16-.2.35-.4.7-.63,1.03-.06.09-.21.12-.32.17-.12.06-.3.1-.34.2-.09.22-.12.47-.14.71-.04.44-.05.89-.07,1.34,0,.13,0,.26,0,.39-.02.37-.04.74-.06,1.11,0,.14.02.27,0,.41-.09.5-.22,1-.27,1.51-.12,1.06-.72,1.88-1.25,2.75-.42.68-.84,1.37-1.3,2.02-.4.56-.8,1.15-1.3,1.61-.68.63-1.42,1.2-2.36,1.45-.47.12-.91.36-1.37.53-.18.07-.39.07-.57.13-.74.25-1.48.51-2.26.78.04.11.08.23.14.42.18-.35.37-.16.46-.04.13.17.17.41.27.6.22.4.07.91.39,1.29.09.11.07.32.09.48,0,.04,0,.09,0,.13.09.29.17.58.28.87.04.11.14.2.21.3.04.06.09.11.13.17-.07.04-.15.09-.24.14,0,.02.02.08.04.15-.09-.05-.17-.1-.21-.12.19.44.38.9.58,1.35.15.34.11.65-.13.94-.08.09-.13.21-.21.33-.11-.06-.2-.12-.3-.18-.02.02-.03.03-.05.05.13.12.26.24.38.36.26.26.51.53.78.78.09.09.23.13.33.21.11.09.22.19.31.31.17.23.33.47.46.72.18.35.34.71.49,1.08.05.13.06.28.09.42.11.53.14,1.03-.29,1.44.05.13.09.25.14.4-.45.04-.69-.24-1-.41-.1.11.02.45.22.52.22.08.44.17.66.25.01.03.02.06.03.1-.12.08-.23.16-.41.28.05-.52-.31-.21-.52-.4.04.17.06.27.09.37.18.62.4,1.22.55,1.85.22.89.42,1.79.6,2.69.08.38.14.77.14,1.16,0,.25.1.38.3.45.36.12.74.19,1.07.36.21.11.41.32.37.65-.03.25-.12.39-.39.41-.07,0-.14.03-.24.05.02.14.04.27.07.44.72-.21.97.38,1.34.77.17.18.3.4.47.58.08.09.25.11.32.2.17.25.35.51.43.79.2.7.33,1.4.16,2.14-.04.17.1.38.14.58.08.47.11.94.22,1.4.16.68.34,1.36.55,2.02.15.49.34.97.53,1.45.25.62.56,1.22.78,1.85.2.57.28,1.17.45,1.75.29,1.03.6,2.06.9,3.09.18.6.44,1.2.5,1.82.04.44.26.69.5.99.15.19.23.44.34.66.32.67.63,1.35.97,2,.57,1.08,1.19,2.13,1.77,3.2.4.74.75,1.5,1.14,2.24.36.67.75,1.31,1.12,1.97.11.19.21.39.3.59.24.58.59,1.08,1,1.55.06.07.06.19.09.29.22,0,.34.02.26.33-.06.23.06.49.05.74-.01.33-.05.66-.1.98-.05.36-.14.7-.44.96-.07.06-.05.24-.06.35-.57.17-1.25.11-1.59.79-.09,0-.22.01-.31-.03-.35-.17-.57.07-.81.24-.06.04-.13.09-.15.16-.3.65-.89.64-1.48.66-.25.01-.52.11-.75.24-.58.31-1.13.66-1.7.99-.05.03-.12.04-.18.06-.12-.16-.14-.28.05-.39.27-.16.53-.33.79-.51.19-.13.35-.3.55-.42.23-.15.48-.28.73-.4.07-.04.16-.04.24-.04.35-.04.7-.06,1.04-.13.12-.03.23-.17.33-.27.23-.23.36-.6.78-.55.04-.24.1-.41.38-.26.1.05.22.07.33.11.17.07.28.04.38-.15.2-.37.73-.62,1.09-.56.24-.36.21-.42-.1-.69-.3-.26-.44-.62-.51-1.01-.04-.27-.03-.61-.18-.8-.27-.34-.27-.64-.18-1.03.06-.29-.03-.61-.06-.94.06-.03.14-.08.26-.14-.16-.06-.3-.12-.43-.17,0-.03.01-.05.02-.08.07,0,.13.02.2.03.01-.03.03-.06.04-.08-.12-.06-.25-.12-.45-.22.09-.04.16-.07.16-.07-.23-.43-.44-.83-.66-1.23-.09-.16-.2-.3-.29-.45-.19-.36-.35-.73-.55-1.08-.21-.38-.45-.75-.69-1.12-.03-.05-.08-.09-.1-.14-.11-.27-.24-.52-.54-.5-.13-.35-.24-.67-.37-.99-.22-.53-.45-1.06-.69-1.58-.09-.19-.22-.35-.34-.52-.1-.15-.27-.29-.3-.45-.08-.45-.47-.71-.63-1.11-.12-.29-.24-.58-.35-.87-.2-.54-.38-1.09-.58-1.63-.08-.22-.18-.43-.23-.65-.1-.4-.3-.76-.43-1.15-.18-.49-.32-1-.47-1.5-.06-.2-.05-.42-.13-.61-.22-.6-.5-1.17-.7-1.78-.16-.45-.24-.93-.35-1.4,0-.03,0-.08-.02-.09-.24-.19-.14-.47-.16-.7-.03-.29-.04-.56-.28-.77-.04-.04-.07-.16-.04-.19.18-.23.04-.37-.11-.55-.16-.2-.29-.42-.41-.65-.03-.06,0-.19.04-.25.13-.19.09-.37.02-.56-.07-.18-.15-.36-.23-.56-.59.2-.81-.34-1.14-.65-.19-.18-.39-.43-.44-.68-.1-.49-.45-.82-.69-1.21-.25-.41-.54-.8-.8-1.21-.21-.34-.38-.7-.57-1.04-.03-.05-.07-.09-.14-.13-.04.21-.18.39.06.6.13.12.11.36.11.57,0,.25.13.5.21.75.13.36.26.71.41,1.06.16.38-.08.67-.14,1.05-.27-.19-.52-.37-.76-.54-.25.4-.04.73.2.95.18.17.47.31.26.65-.02.03.09.15.17.26-.11.43.42.85.24,1.39.37.3.49.77.56,1.24.06.35.02.35.26.45-.03.14-.1.27-.08.38.08.37.32.75.26,1.09-.07.39-.01.71.08,1.05,0,.01.01.02,0,.03-.17.3.11.48.18.71.14.43.24.87.35,1.31.15.59.24,1.2.44,1.77.26.74.35,1.5.48,2.26.05.29.17.56.26.84.35,1.09.67,2.19,1.06,3.27.18.5.4.99.75,1.43.37.46.56,1.05.85,1.57.23.41.49.81.73,1.22.26.45.51.92.77,1.37.22.37.45.74.67,1.1.03.05.1.13.09.15-.26.37.08.55.28.7.33.25.32.65.51.96.51.86,1,1.72,1.5,2.59.12.22.23.44.35.67l-.07.06c-.13-.14-.25-.27-.38-.41-.63-.68-1-1.53-1.47-2.32-.4-.66-.79-1.32-1.15-2.01-.27-.51-.7-.92-1.04-1.4-.19-.26-.32-.56-.48-.83-.08-.14-.17-.26-.25-.4-.74-1.18-1.56-2.31-2.21-3.54-.45-.85-.69-1.82-.95-2.76-.24-.88-.55-1.73-.86-2.58-.27-.73-.4-1.51-.59-2.27-.12-.46-.26-.91-.37-1.36-.08-.31-.14-.63-.23-1.01.11.07.17.11.25.16-.08-.39-.27-.73-.06-1.12.06-.1-.05-.29-.08-.44-.09-.41-.17-.82-.29-1.23-.06-.2-.22-.37-.31-.57-.15-.34-.29-.69-.42-1.04-.08-.24-.14-.48-.2-.72-.07-.24-.12-.49-.21-.73-.08-.23-.19-.44-.28-.67-.1-.26-.18-.53-.27-.8-.04-.12-.07-.24-.14-.34-.14-.18-.24-.36-.03-.58-.11-.06-.2-.12-.29-.16-.32-.13-.26-.46-.45-.75.17.08.26.13.36.18l.07-.06c-.14-.17-.28-.34-.42-.51-.05-.06-.14-.11-.16-.17-.21-.61-.25-1.23-.24-1.88,0-.6-.07-1.2-.11-1.8l-.09-.02c-.07.19-.1.41-.22.57-.11.16-.31.25-.47.38.4.25.37.7.03,1.13-.04-.13-.06-.23-.1-.33-.03-.08-.08-.16-.17-.31-.07.6-.16,1.09-.16,1.59,0,.41.13.83.18,1.24.03.27.02.55.06.83.02.12.12.24.14.36.08.54.11,1.09.22,1.63.19.86.43,1.71.64,2.56.08.31.13.62.21.92.21.81.43,1.62.65,2.43.14.51.26,1.03.44,1.54.14.4.37.77.54,1.16.42,1,.82,2,1.24,3,.44,1.06.89,2.12,1.32,3.18.16.39.28.79.44,1.17.22.5.47.99.69,1.49.1.23.15.49.24.73.1.27.25.53.32.81.03.13-.06.29-.09.43-.04,0-.08,0-.12,0-.04-.18-.08-.36-.13-.54-.04-.15-.07-.3-.14-.43-.24-.44-.5-.86-.76-1.3-.08-.13-.16-.25-.23-.38-.07-.12-.3-.23-.04-.39.02-.01-.03-.16-.06-.23-.44-1.02-.88-2.05-1.33-3.07-.17-.38-.39-.74-.55-1.13-.21-.49-.37-.99-.57-1.48-.11-.26-.24-.51-.37-.75-.04-.08-.14-.12-.2-.19-.06-.06-.1-.14-.13-.22-.13-.35-.24-.71-.36-1.06-.05-.14-.09-.27-.14-.41-.08-.19-.19-.37-.25-.57-.15-.45-.32-.91-.41-1.38-.09-.48-.1-.98-.16-1.47-.02-.18-.12-.35-.16-.53-.03-.15-.02-.3-.04-.45-.06-.42-.12-.83-.18-1.25,0-.04-.01-.09-.03-.12-.26-.45-.28-.97-.38-1.46-.1-.48-.25-.94-.37-1.42-.05-.2-.15-.45-.07-.59.28-.51-.23-.95,0-1.48-.33.07-.36.27-.43.47-.13.38-.22.81-.46,1.11-.4.5-.97.79-1.64.77-.29,0-.58,0-.86,0,.02-.03.05-.07.07-.1-.06-.15-.13-.29-.17-.44-.12-.47-.26-.95-.32-1.43-.06-.5-.05-1.01-.02-1.51.02-.34.08-.69.19-1.01.09-.26.28-.47.43-.71.09-.15.22-.3.24-.46.03-.32.2-.51.46-.67.3-.2.59-.41.88-.65-.51.15-1.06.23-1.48.61-.08.07-.22.11-.33.11-.35,0-.71-.04-1.06-.01-.91.06-1.82.15-2.73.23-.15.01-.31.03-.45.08-.67.23-1.35-.06-2.03.05-.65.11-1.33.1-1.99.13-.24.01-.44-.08-.57-.36.11.03.19.04.28.06-.05-.09-.09-.15-.11-.18.11-.11.2-.22.3-.32-.08-.07-.16-.17-.25-.21-.34-.15-.2-.35-.03-.6-.3,0-.55.02-.79,0-.15-.02-.29-.12-.44-.19-.14-.06-.28-.11-.41-.18-.21-.1-.29.05-.42.16-.11.09-.27.11-.4.16-.14-.51.1-.88.63-1,.03,0,.06.01.09.02.04-.38.38-.12.54-.25.04-.03.16-.02.21.02.38.27.8.07,1.2.11.38.04.75.19,1.16.31.07-.18.26-.15.5-.15.57,0,1.08.16,1.59.41.16.08.36.09.55.12.39.06.77.11,1.16.15.38.03.77.03,1.15.05.07,0,.16.07.21.14.17.23.37.37.68.37.65.01,1.18-.26,1.68-.62.08-.06.16-.19.24-.19.55-.02.85-.49,1.29-.7.31-.15.44-.09.59.2.05.09.17.19.27.21.25.05.51.02.75.09.18.05.34.21.5.32.17.11.32.26.5.34.21.1.29-.03.27-.23-.01-.12-.02-.23-.06-.34-.1-.33.07-.52.33-.69.05.07.09.13.15.22.11-.08.2-.14.32-.23,0,.07,0,.13.01.21.09-.02.18-.04.26-.06,0-.39.02-.75,0-1.12-.05-.74-.12-1.47-.18-2.21-.01-.17,0-.34.01-.5.02-.78-.18-1.48-.81-1.99-.12-.1-.27-.18-.4-.27-.06-.04-.15-.1-.15-.16,0-.32-.21-.35-.47-.44-.31-.1-.57-.34-.87-.53.01,0-.03.02-.06.04-.11-.18-.2-.34-.29-.48-.13.6-.21,1.19-.4,1.74-.19.56-.63.97-1.1,1.4.35-1.11.61-2.19,1.23-3.12-.03.02-.06.04-.1.05,0-.02,0-.05,0-.06.18-.22.2-.41-.02-.64-.11-.11-.1-.33-.15-.5-.02-.08-.03-.17-.04-.26-.03,0-.06,0-.09,0-.03.09-.06.18-.07.27-.09.93-.34,1.82-.79,2.64-.23.43-.14.93-.33,1.36-.03.06.04.16.06.24-.29.07-.58.14-.89.21.01.04.03.1.07.26-.3-.02-.56-.03-.81-.05-.39-.03-.79-.05-1.18-.12-.13-.02-.29-.14-.35-.26-.28-.54-.37-1.12-.23-1.72.04-.18.15-.35.22-.52.02-.06.01-.13.01-.2.2-.36.42-.74.65-1.15,0,0-.04-.03-.07-.05.23-.24.47-.49.76-.8-.4.17-.72.31-1.07.45-.07-.16-.13-.3-.19-.45-.07.09-.16.17-.18.26-.08.45-.42.48-.77.5-.33.02-.49-.18-.41-.5.06-.27.15-.54.21-.81.08-.37.27-.67.45-1,.18-.33.5-.52.65-.85.04-.09.18-.13.27-.19-.25-.57-.72-.98-1.23-1.33-.74-.51-1.22-1.2-1.64-1.97-.15-.29-.42-.51-.64-.76-.3-.34-.6-.68-.92-1-.37-.37-.76-.72-1.13-1.09-.26-.25-.5-.51-.75-.77-.24-.26-.23-.42.03-.65.04-.03.06-.08.09-.12.11-.13.2-.31.34-.39.44-.22.64-.59.72-1.04.01-.06-.01-.14-.05-.18-.18-.19-.35-.41-.56-.55-.37-.24-.79-.41-1.16-.65-.3-.2-.54-.48-.82-.71-.65-.53-1.1-1.21-1.43-1.97-.17-.38-.29-.79-.62-1.08-.09-.08-.14-.22-.2-.33.04-.03.05-.05.05-.05.33.08.57-.09.84-.24.13-.07.4-.05.53.04.3.2.55.47.87.75-.14,0-.19.01-.24.01,0,.02,0,.05,0,.06.08.12.16.24.24.36.15.21.19.52.54.54.06,0,.13.11.16.18.47.89,1.18,1.56,1.93,2.21.31.27.56.61.85.91.09.1.19.18.31.3.05-.07.12-.12.14-.18.17-.44.53-.4.89-.36.28.03.57.02.85.07.44.07.89.1,1.29.26.44.17.88.42,1.24.73.35.29.73.41,1.14.38.65-.04,1.32-.09,1.95-.26.79-.22,1.55-.58,2.33-.84.44-.15.92-.2,1.36-.34.46-.14.91-.33,1.37-.5,1.36-.51,2.18-1.68,3.2-2.61.48-.44.83-.98,1.13-1.56.17-.34.42-.63.61-.96.47-.84.48-1.76.45-2.68-.02-.73-.09-1.45-.11-2.18,0-.29.06-.57.07-.86,0-.36-.04-.72-.05-1.08,0-.1.04-.21.03-.31,0-.11-.06-.21-.07-.32-.03-.37-.04-.74-.06-1.11-.03-.47-.08-.95-.1-1.42,0-.21.05-.42.07-.63,0-.11.03-.27-.03-.32-.31-.3-.61-.66-.99-.84-.46-.21-.85-.46-1.11-.89-.36-.59-.77-1.15-.87-1.87-.03-.22-.18-.42-.29-.62-.16-.31-.2-.59.17-.78.14-.07.31-.2.42-.17.25.08.5.22.55.53.12.69.56,1.14,1.11,1.52.26.18.52.33.72.62.29.43.68.79,1,1.21.14.19.2.44.3.67.07.17.18.34.21.52.09.51.15,1.03.2,1.55.03.3,0,.6.07.94.26-.3.55-.57.77-.89.48-.69.91-1.41,1.37-2.11.39-.6.32-1.24.19-1.9-.19-.95-.8-1.67-1.36-2.39-.6-.77-.55-1.53-.2-2.35.06-.13.12-.27.14-.42.06-.4-.11-.65-.49-.78-.23-.08-.51-.08-.62-.37,0-.02-.05-.05-.08-.04-1.08.03-2.34-.81-3.2-1.59-.82-.75-1.75-1.32-2.74-1.81-.75-.37-1.5-.55-2.33-.43-.6.08-1.21.05-1.82.08-.16,0-.34.05-.48.12-.47.23-.86.58-1.35.81-1.03.5-2.01,1.09-3,1.65-.31-.23-.42-.2-.71.17h.01ZM58.97,32.86c-.22.07-.4.15-.57.18-.23.03-.47.04-.7,0-.64-.09-1.3-.15-1.91-.34-.73-.22-1.42-.58-2.14-.86-.2-.08-.43-.08-.67-.12-.08.23-.2.14-.36.02-.13-.1-.28-.16-.44-.24-.02.08-.02.1-.02.1.83.84,1.72,1.63,2.49,2.53.78.92,1.45,1.94,2.14,2.93.36.52.66,1.1,1,1.64.04.06.16.12.23.1.32-.09.71.01.96-.31.03-.04.11-.06.17-.06.34-.02.69-.03,1.03-.03.14,0,.3,0,.42.07.25.14.48.33.7.49-.23-.62-.46-1.29-.92-1.85-.04-.05-.08-.09-.1-.14-.13-.34-.25-.68-.38-1.02-.03-.07-.13-.13-.21-.14-.04,0-.1.1-.14.17-.1.2-.14.46-.3.58-.22.17-.52.33-.78.32-.3,0-.6-.19-.88-.32-.09-.04-.2-.17-.19-.24.04-.22.13-.43.2-.65.4-.04.53-.13.42-.37-.11-.26-.03-.44.15-.61.22.19.28.06.33-.14.08-.4.15-.81.26-1.2.04-.13.18-.22.27-.33.03.01.06.03.09.04-.05-.07-.1-.14-.14-.2ZM57.42,39.08c-.37-.02-.56-.31-.73-.56-.48-.68-.92-1.4-1.38-2.09-.05-.07-.15-.18-.21-.16-.24.05-.28-.13-.38-.26-.3-.42-.55-.9-.93-1.26-.72-.68-1.5-1.29-2.26-1.92-.05-.04-.13-.07-.19-.06-.21.05-.43.1-.63.19-.19.09-.41.19-.26.48.09.17.15.37.27.52.28.34.56.69.88.99,1.16,1.13,2.31,2.26,3.5,3.35.59.54,1.18,1.12,1.96,1.34.11-.18.22-.35.35-.55ZM67.31,59.02s.06,0,.09,0c.04-.11.09-.22.1-.34.05-.55.11-1.1.13-1.66,0-.18-.05-.48-.17-.54-.29-.14-.27-.36-.29-.6,0-.06,0-.13-.04-.17-.28-.4-.55-.8-.85-1.18-.13-.17-.31-.32-.47-.48-.08.17-.14.29-.21.43-.14-.14-.23-.25-.36-.38.15-.05.27-.09.41-.13-.12-.23-.28-.39-.53-.32-.12.04-.31.2-.29.27.05.2-.07.51.29.57.08.01.16.09.21.15.06.06.09.15.13.23.04.09-.03.25.02.35.16.3.39.57.55.88.37.73.73,1.46,1.07,2.2.1.22.14.47.21.71ZM59.16,56.61c-.41-.04-.68.15-.78.54-.03.12-.1.23-.13.36-.08.33-.37.6-.26.98.06.21.17.42.17.63,0,.28.13.42.36.48.25.07.39-.1.49-.3.28-.62.55-1.25.82-1.87,0-.02-.04-.06-.05-.08-.17.15-.33.3-.47.42-.05-.38-.1-.77-.15-1.16ZM58.2,43.44c-.13.07-.41.13-.54.3-.55.7-1.04,1.43-1.29,2.3-.06.21-.1.43-.15.64-.05.25.06.35.24.33.19-.17.39-.28.49-.45.18-.3.3-.64.44-.97.19-.45.37-.91.55-1.36.01-.03.03-.06.04-.09.08-.25.16-.5.23-.71ZM63.68,43.56s.06,0,.08,0c-.05-.21-.06-.45-.16-.64-.12-.21-.3-.39-.48-.56-.09-.09-.25-.11-.34-.2-.24-.24-.45-.5-.69-.74-.07-.07-.18-.09-.27-.13.16.42.32.76.73.95.23.11.39.39.57.6.19.23.36.48.55.72ZM63.27,53.84c.56-.11.65-.51.66-.88,0-.12-.3-.25-.46-.38-.05.19-.02.32-.04.44-.04.27-.1.53-.16.82ZM61.06,42.86c-.11.06-.21.1-.29.15-.07.04-.13.1-.19.15.05.06.1.13.16.17.18.09.36.16.49.22.18-.06.31-.1.41-.14-.18-.17-.38-.36-.58-.55ZM60.13,56.36s-.04-.04-.06-.07c-.1.08-.28.14-.3.24-.05.23-.03.47-.04.71.06-.01.16,0,.16-.04.09-.28.16-.56.23-.85ZM59.94,32.7s-.02-.08-.03-.12c-.22.05-.45.11-.67.16,0,.04.02.08.03.12.22-.05.45-.11.67-.16ZM59.64,53.93c.26.02.47.03.72.05-.36-.27-.46-.27-.72-.05Z"/>
      <path class="cls-1" d="M52.74,92.64c-.08.51-.55.86-.99.73-.21-.06-.43-.15-.6-.29-.24-.2-.53-.21-.79-.32-.41-.17-.74-.02-1.09.08-.17.05-.31.17-.49.28.09.05.18.1.27.15,0,.04-.02.07-.03.11-.12-.03-.32-.01-.36-.09-.14-.25-.34-.15-.52-.12-.37.05-.74.13-1.12.19-.53.08-.9-.22-1.25-.55-.24-.23-.49-.47-.68-.74-.18-.25-.4-.2-.63-.18-.26.02-.53.02-.8.04-.15.01-.29.04-.44.06-.47.06-.88-.15-1.29-.31-.11-.04-.23-.05-.34-.06-.28-.04-.51-.1-.72-.36-.12-.15-.39-.44-.73-.27-.07.03-.2.01-.26-.04-.22-.16-.48-.3-.63-.51-.54-.76-1.3-.75-2.11-.73-.62.02-1.32.06-1.85-.19-.67-.32-1.29-.18-1.94-.18-.05,0-.1.03-.15.06-.71.44-1.31.08-1.84-.33-.54-.41-1.04-.89-1.46-1.41-.27-.34-.55-.84-.51-1.22.06-.47-.13-.92.03-1.39.08-.25-.02-.55-.01-.83,0-.41.04-.8.27-1.18.15-.24.11-.6.15-.9.03-.25.02-.53.11-.76.11-.28.32-.52.49-.8-.25-.1-.14-.27-.02-.47.08-.13.12-.31.12-.47.02-.43.15-.66.44-.72-.04-.13-.08-.25-.12-.4.07-.04.14-.09.21-.13.07-.04.14-.07.25-.12-.09-.07-.15-.11-.23-.17.13-.16.25-.3.4-.48,0,0-.06-.03-.18-.08.21-.14.38-.26.55-.38.04-.03.07-.1.09-.16.32-.72.65-1.44.97-2.16.54-1.21.92-2.47,1.25-3.75.1-.36.2-.72.31-1.14-.05-.04-.32-.1-.07-.29-.2-.14-.37-.26-.56-.4-.04.05-.08.11-.13.17-.02,0-.04-.01-.06-.02.06-.81.13-1.62.19-2.42.02-.26.02-.53.02-.79,0-.24.07-.4.32-.48.24-.07.31.1.41.25.14.22.21.43-.02.64.23.06.43.11.71.19.08-.37.16-.76.26-1.15.15-.61-.12-1.15-.27-1.71-.11-.41-.27-.82-.34-1.24-.06-.37-.04-.77-.01-1.15.02-.38.09-.76.14-1.12-.29.29-.57.59-.89.87-.17.15-.3.37-.61.35-.14,0-.27.22-.43.29-.66.32-1.37.53-1.99.97-.28.2-.67.26-1.02.36-.59.16-1.19.3-1.79.45-.18.05-.31.12-.37.33-.03.11-.22.22-.35.23-.29.03-.59.01-.9.01.18.45-.31.17-.34.39.02,0,.06.03.16.08-.36.1-.56.27-.58.63,0,.12-.21.24-.3.35-.1.02-.2.03-.3.05,0,.02,0,.04,0,.07.06.02.12.05.2.09-.11.12-.19.23-.3.33-.18.16-.14.32.02.45.37.33.74.64,1.25.74.2.04.39.1.54-.1.03-.03.1-.06.14-.05.68.23,1.35.07,1.96-.17.49-.19,1.02-.15,1.5-.35.48-.21,1.01-.32,1.34-.81.16-.24.41-.43.62-.64.2-.2.45-.36.6-.58.19-.27.37-.23.6-.12h0c-.17.17-.36.34-.51.54-.25.31-.23.49.02.81.14.18-.1.67-.37.68-.51.01-.92.28-1.36.48-.19.08-.31.33-.65.13.08.14.11.2.14.25,0,0-.02.02-.04.02-.19,0-.39-.05-.57,0-.34.08-.67.21-1.01.3-.31.08-.63.15-.95.22-.29.07-.58.16-.87.21-.89.14-1.78.1-2.58-.33-.28-.15-.47-.49-.68-.76-.04-.05.01-.18.03-.28-.08-.04-.28.13-.18-.22.14-.52.46-.84.83-1.22h-.35c.41-.17.67-.48.88-.85-.39-.06-.77-.14-1.15-.16-.21-.01-.41.11-.63.14-.2.03-.4.05-.6.02-.25-.04-.48-.17-.73-.2-1-.13-1.98-.32-2.94-.65-.05-.02-.12-.04-.15-.02-.25.19-.47.02-.66-.09-.38-.21-.74-.46-1.1-.7-.22-.15-.36-.87-.25-1.16.1-.27.36-.38.8-.37.5.01,1,.05,1.5,0,.38-.03.75-.21,1.14-.26.16-.02.34.11.49.17.21-.15.41-.31.53-.4.22-.05.4-.04.48-.12.16-.19.32-.24.55-.15.04.02.12-.04.17-.12-.05,0-.1,0-.17,0,.04-.03.06-.05.08-.06.62-.29,1.25-.58,1.87-.88.1-.05.21-.18.22-.28.02-.24.17-.25.34-.29.31-.07.63-.12.93-.24.51-.19.94-.51,1.33-.9.14-.15.38-.2.54-.33.3-.23.57-.49.86-.73.02-.02.06-.04.09-.03.07.02.17.1.2.07.07-.05.09-.17.16-.22.18-.15.38-.28.57-.42.27-.18.6-.32.81-.55.17-.19.33-.2.54-.22-.02-.02-.04-.05-.07-.07.1-.11.2-.22.3-.34,0,0,.02,0,.03-.02.11-.57.67-.37.99-.57.09-.06.21-.08.32-.12-.02-.02-.05-.05-.07-.07.13-.2.21-.46.39-.58.27-.18.47-.47.83-.56.2-.06.35-.34.51-.52.1-.1.19-.21.28-.31.13-.14.26-.26.35-.44.12-.23.38-.4.58-.59.1-.1.21-.2.37-.26-.11.36-.19.74-.35,1.08-.11.23-.33.41-.51.6-.24.25-.54.46-.74.74-.26.35-.64.37-1,.48-.16.05-.31.12-.47.18.01.03.02.07.04.1.13-.05.27-.1.4-.14-.34.44-.48,1.06-1.14,1.22.06.03.1.04.13.06,0,.02,0,.05,0,.07-.21.02-.43.04-.68.07.08.13.12.22.17.3-.82.28-1.39.91-2.06,1.38-.52.36-1.03.73-1.56,1.06-.35.22-.75.38-1.1.6-.15.09-.25.26-.39.39-.37.35-.83.53-1.31.67-.09.03-.16.11-.23.18-.15.15-.27.33-.44.45-.21.15-.44.29-.68.39-.47.2-.95.35-1.41.55-.87.36-1.74.7-2.68.83-.18.02-.35.1-.53.13-.06.01-.13-.06-.19-.07-.15-.03-.3-.04-.45-.05,0,.04-.02.08-.02.12.18.07.35.14.53.22.25.11.58.16.72.35.15.21.32.26.51.3.31.07.62.1.93.13.55.06,1.09.11,1.68.18-.05-.06-.08-.09-.13-.14.06.01.1,0,.13.03.23.17.45.31.7.01.05-.05.18-.05.27-.05.31,0,.61,0,.92,0,.31,0,.61,0,.92-.15.3-.14.67-.13,1.01-.19.12-.02.23-.06.35-.09.14-.04.27-.11.41-.13.32-.04.65-.03.96-.09.18-.03.4-.14.48-.27.1-.17.15-.25.35-.17.04.02.13-.06.2-.07.2-.05.41-.1.6-.17.23-.08.43-.21.66-.28.1-.03.23.04.29.06.31-.18.61-.35.91-.5.04-.02.11.02.16.03.04,0,.1.02.13,0,.35-.21.68-.43,1.03-.64.49-.3,1-.58,1.48-.9.1-.07.15-.26.17-.4.05-.41.06-.82.09-1.22,0-.04,0-.09.02-.12.38-.65.27-1.39.37-2.08.1-.73.16-1.46.55-2.12.08-.13.07-.32.11-.48.25-.91.47-1.83.76-2.72.22-.68.54-1.34.8-2.01.03-.07,0-.16,0-.26.29-.12.38-.31.22-.54.11-.19.22-.36.31-.54.27-.57.51-1.16.78-1.72.24-.5.52-.98.78-1.47.12-.22.24-.43.37-.67.04.02.1.05.25.12-.09-.16-.14-.25-.19-.33.03,0,.05.02.08.02.11-.32.23-.64.34-.96,0-.03-.01-.07,0-.09.34-.88.42-1.84.79-2.7.25-.6.07-1.11-.14-1.66-.11-.3-.36-.56-.41-.82-.13-.66-.6-1.09-.85-1.66-.25-.56-.5-1.12-.82-1.64-.21-.34-.53-.6-.8-.9-.33-.37-.66-.75-.99-1.12-.3-.34-.58-.71-.92-1-.98-.81-2.02-1.55-2.97-2.39-.82-.72-1.73-1.27-2.7-1.74-.94-.46-1.91-.87-2.88-1.23-.5-.19-1.06-.27-1.6-.32-.33-.03-.68.11-1.02.14-.51.04-1.03.03-1.55.08-.4.04-.78.14-1.18.21-.3.05-.62.04-.88.17-.71.34-1.39.73-2.07,1.13-.37.22-.71.48-1.04.75-.21.17-.39.39-.52.54-.18.07-.32.08-.41.16-.31.29-.67.52-.89.93-.11.2-.33.41-.5.62-.05.06-.1.15-.09.23.04.39-.18.71-.26,1.06-.02.11.09.25.1.38.05.59.4,1,.83,1.37.41.36.81.73,1.22,1.09.07.06.17.08.26.11.11.04.23.08.35.13,0,.03-.02.05-.03.08-.09-.02-.18-.03-.27-.05,0,.02-.02.03-.02.05.02.02.05.05.07.06.72.32,1.43.67,2.16.96.43.17.88.27,1.32.41.1.03.23.05.28.13.22.28.48.15.72.09.31-.08.58-.1.84.16.06.06.25,0,.42,0-.06.11-.1.19-.15.27.13-.06.24-.11.36-.17-.22.31-.41.64-.85.59-.21-.03-.42-.04-.63-.06-.58-.07-1.17-.19-1.75-.22-.64-.04-1.15-.4-1.73-.59-.35-.11-.68-.25-1.02-.39-.18-.08-.34-.19-.46-.37-.05-.07-.2-.08-.26-.17-.13-.09-.25-.18-.38-.28-.9-.65-1.68-1.39-2.18-2.41-.29-.59-.24-1.15.03-1.72.13-.27.26-.55.37-.83.18-.47.55-.79.87-1.16.45-.54,1.11-.78,1.61-1.23.56-.51,1.21-.91,1.69-1.52.19-.24.5-.39.76-.58.25-.19.51-.36.85-.31.02,0,.07-.02.08-.04.2-.36.54-.31.86-.3.06,0,.14,0,.17-.04.23-.26.57-.19.85-.29.15-.06.32.03.46.05.42.05.87-.04,1.3-.09.03,0,.05-.1.11-.06.45-.06.89-.13,1.34-.16.22-.01.45.05.67.09.31.06.61.16.92.19.69.06,1.26.41,1.85.72.09.05.2.09.26.17.14.2.28.3.51.13.04-.03.13-.02.17.01.22.17.44.34.64.53.16.15.29.21.41-.09.19.19.37.36.55.53.04.04.07.12.1.11.52-.02.74.54,1.13.59.12.2.19.39.31.49.21.16.47.27.7.41.04.02.09.06.11.1.18.35.47.57.83.73.11.05.21.18.27.3.19.36.52.54.82.77.15.12.26.29.39.44.23.26.49.46.79.64.22.13.35.42.54.63.43.48.9.93,1.29,1.45.46.62.88,1.28,1.27,1.95.42.7.78,1.43,1.17,2.15.02.05.06.09.07.14.06.36.16.4.43.19.3-.23.6-.47.94-.73-.11.02-.18.04-.26.05,0-.02,0-.04,0-.06.11-.14.22-.28.35-.4.11-.11.22-.22.36-.28.17-.07.37-.09.4-.33,0-.03.05-.07.09-.08.44-.21.87-.45,1.33-.61.23-.08.51-.01.76-.01-.07-.1-.15-.32-.3-.44-.24-.18-.03-.37.03-.38.22-.04.45,0,.67.02.11.01.21.09.32.13.2.09.29.23.38.44.15.35.4.68.68.93.32.28.67.51.72.98,0,.08.1.2.16.21.3.03.35.26.4.46.12.52.17,1.05.31,1.56.26.98.18,1.97.16,2.95,0,.32-.12.64-.17.97-.04.3-.06.59-.09.89,0,.01,0,.02,0,.03-.15.41-.29.82-.45,1.22-.18.44-.38.87-.58,1.3-.04.09-.14.16-.22.23-.1.08-.31.1-.13.3-.11.05-.22.11-.36.18.06.03.1.05.14.07-.15.15-.33.3-.47.47-.29.36-.56.73-.83,1.11-.22.31-.44.63-.63.96-.04.07.05.22.08.32-.19-.04-.33.05-.47.31-.16.3-.46.51-.63.81-.35.58-.77,1.12-.92,1.82-.09.42-.34.8-.53,1.2-.07.14-.17.26-.25.39-.28.5-.61.98-.82,1.52-.13.34-.3.64-.48.95-.2.33-.32.7-.51,1.03-.16.28-.39.51-.55.78-.09.16-.17.36-.15.54.04.42-.17.52-.62.48.37.25.38.52.25.79-.07.14-.24.23-.37.34-.01,0,.05.03.18.08-.17.34-.34.69-.53,1.07.17.15.17.32-.05.53-.14.14-.19.37-.28.56-.07.15-.16.26-.34.16-.17-.09-.13-.21-.07-.37.12-.35.19-.71.28-1.07.06-.24.12-.48.19-.72.08-.31.15-.62.25-.92.13-.38.2-.77.3-1.16.11-.45.27-.9.43-1.34.08-.22.22-.42.34-.63.02.02.03.04.05.07.07-.04.19-.08.19-.12.02-.64.44-1.1.74-1.61.09-.15.37-.23.19-.52-.05-.08.32-.12.23-.42-.04-.13.26-.35.38-.55.07-.12.09-.26.09-.41.29-.27.46-.63.58-1.02.02-.05.05-.09.07-.14.36-.64.74-1.27,1.06-1.93.14-.29.32-.49.55-.69.16-.14.21-.41.31-.62.06-.13.13-.25.2-.37.22-.38.43-.76.66-1.14.11-.18.23-.35.36-.52.3-.39.64-.75.9-1.17.21-.33.28-.74.5-1.08.06-.09.13-.17.14-.19.07-.2.12-.32.15-.46.11-.43.23-.85.31-1.29.09-.45.15-.91.21-1.35,0,0,.02.06.04.11.06-.06.09-.07.09-.08-.03-.54-.05-1.08-.1-1.62-.01-.12-.12-.24-.16-.36-.07-.18-.11-.37-.18-.55-.19-.48-.34-.99-.6-1.43-.13-.21-.49-.3-.75-.42-.21-.1-.43-.15-.64-.26-.18-.09-.32-.24-.51,0-.04.06-.23,0-.31.07-.21.15-.41.3-.62.44-.64.42-1.21.91-1.52,1.65-.11.27-.32.5-.48.75-.28.44-.55.88-.83,1.31-.12.19-.29.36-.4.56-.17.29-.31.59-.45.89-.34.74-.69,1.47-.98,2.23-.11.3-.25.58-.33.91-.09.39-.39.72-.58,1.1-.27.54-.52,1.08-.76,1.63-.2.47-.36.95-.55,1.42-.28.66-.58,1.31-.85,1.97-.11.27-.14.57-.22.86-.08.34-.16.67-.25,1.01-.19.69-.4,1.38-.59,2.07-.1.35-.17.71-.24,1.07-.05.24-.06.49-.09.74-.05.44-.09.88-.16,1.32-.03.2-.1.38-.15.58-.19.74-.46,1.47-.56,2.23-.06.44-.1.94.23,1.38.19.26.2.64.31.95.39,1.07.22,2.12-.11,3.15-.26.83-.55,1.65-.83,2.48-.12.35-.29.69-.41,1.04-.09.24-.14.5-.2.75-.1.38-.18.76-.29,1.13-.06.2-.18.38-.26.58-.17.44-.32.9-.51,1.34-.17.4-.38.78-.57,1.18-.44.92-.9,1.82-1.31,2.75-.3.69-.56,1.4-.8,2.12-.14.41-.19.85-.29,1.27-.02.09-.09.17-.12.22.01,1.22-.4,2.39-.07,3.62.08,0,.19.04.24-.21.08-.42.14-.89.39-1.21.23-.3.19-.8.67-.92.06-.02.11-.13.14-.2.28-.64.55-1.27.82-1.91.29-.69.58-1.37.89-2.06.15-.34.32-.66.51-1.03-.02-.03-.07-.1-.13-.2.36-.18,0-.78.46-.84,0-.53.28-.86.69-1.14-.05-.02-.07-.04-.09-.04-.03,0-.06.02-.16.06.1-.17.16-.28.22-.39.18-.31.36-.62.52-.94.22-.44.42-.89.63-1.34.08-.17.13-.36.21-.53.44-.96.87-1.92,1.32-2.88.23-.49.55-.94.73-1.45.18-.5.49-.92.73-1.38.17-.33.41-.62.6-.95.09-.15.11-.34.18-.51.12-.28.25-.56.37-.84.09-.22.17-.44.27-.67-.08-.02-.15-.03-.26-.05.08-.05.11-.08.14-.09.25-.04.32-.21.41-.43.14-.35.38-.66.56-.99.07-.13.12-.26.14-.42.02-.23.15-.46.27-.66.43-.72.87-1.43,1.33-2.13.21-.31.48-.58.72-.87.19-.23.51-.45.55-.7.06-.47.44-.63.66-.94.1-.14.27-.29.5-.08-.31.43-.64.84-.92,1.27-.32.49-.74.89-1,1.44-.22.46-.47.93-.74,1.38-.16.28-.25.6-.4.88-.12.22-.28.41-.46.66.05.26-.2.46-.4.65-.1.1-.19.13-.12.29.03.07-.02.18-.04.26-.06.19-.11.38-.18.56-.05.12-.14.22-.19.34-.34.72-.55,1.54-1.14,2.08-.41.38-.55.88-.89,1.28-.07.08-.06.31-.12.47-.1.26-.1.57-.21.82-.09.22-.27.41-.45.66.01.12.18.35-.15.44,0,.45-.39.72-.52,1.12-.14.43-.29.86-.49,1.25-.42.83-.61,1.77-1.24,2.49-.07.08-.15.16-.24.26.27.14.15.32.06.52-.3.61-.59,1.22-.89,1.83-.1.19-.23.36-.33.53h-.42s0,.06,0,.08c.1.03.21.05.38.09-.13.23-.26.41-.36.61-.12.26-.2.55-.32.81-.38.89-.76,1.79-1.17,2.67-.19.4-.47.76-.68,1.15-.21.41-.41.82-.57,1.25-.16.43-.31.88-.4,1.33-.08.42-.08.86-.08,1.29,0,.1.1.22.19.31.29.3.6.56.79.95.06.12.33.15.51.21.05.02.14-.03.18,0,.42.26.81.1,1.21-.05.13-.05.31,0,.44-.06.34-.18.66-.08,1.01-.05.19.02.33.06.47.16.27.18.53.38.89.21.06-.03.2.05.26.11.2.22.41.22.68.11.31-.13.65-.22.98-.27.13-.02.29.09.42.18.31.22.58.49.9.68.2.12.51.23.7.16.35-.13.55.07.79.2.37.19.72.43,1.06.66.14.1.26.23.39.36.03.03.04.09.07.09.44.02.88.06,1.32.04.41-.02.81-.11,1.22-.16.07,0,.15.06.27.11.2-1.21.39-2.4.58-3.61.27,0,.26-.25.25-.49,0-.1.01-.2.02-.35-.06-.03-.19-.08-.37-.16.37.04.4-.24.46-.43.09-.28-.17-.3-.31-.34.09-.11.22-.21.27-.35.04-.1-.03-.24-.05-.39.07-.04.2-.11.37-.2-.15-.08-.28-.14-.43-.22.09-.04.15-.07.23-.1-.19-.21-.33-.4-.08-.65.04-.04-.01-.17,0-.25.03-.18.06-.37.13-.54.09-.25.16-.47-.1-.66.31-.22.24-.75.01-1.28.07-.01.14-.03.24-.04-.07-.08-.12-.14-.18-.23.07-.03.13-.05.1-.04.04-.28.02-.52.11-.72.1-.25-.02-.51.06-.7.22-.54.05-1.13.25-1.67.03-.08-.06-.2-.05-.3.06-.47.15-.94.21-1.41.02-.16-.01-.33,0-.5.03-.32.09-.65.12-.97.02-.23.04-.46.02-.68-.05-.61,0-1.2.2-1.8.08-.22-.03-.5.26-.63-.04-.13-.12-.25-.1-.36.06-.4.15-.79.22-1.19,0-.05.03-.1.03-.15,0-.28.04-.54.17-.81.14-.29.2-.63.15-.99-.04-.27.16-.57.21-.87.12-.68.21-1.36.34-2.03.08-.39.13-.78.28-1.17.14-.36.08-.79.13-1.19.02-.14.06-.28.14-.39.25-.34.45-.7.52-1.12.02-.11.09-.21.15-.34-.08.02-.16.03-.24.05-.01-.02-.02-.04-.03-.07.26-.13.53-.26.77-.38-.09,0-.22.02-.38.04.1-.22.18-.41.28-.64,0,0,.08.02.18.05.01-.11.02-.2.02-.22.19-.15.33-.27.48-.4-.11.58-.14,1.17-.58,1.62.15.12.1.31-.04.39-.25.14-.17.35-.21.54-.04.19-.13.37-.18.57-.07.27-.15.54-.2.81-.07.39-.09.79-.17,1.17-.18.87-.38,1.72-.57,2.59-.13.62-.36,1.24-.34,1.85.02.56-.33,1.03-.22,1.57,0,.03,0,.07-.01.09-.44.58-.37,1.27-.44,1.93-.07.64-.16,1.27-.22,1.9-.02.16.05.34.03.5-.05.49-.13.97-.2,1.46,0,.04-.04.1-.02.12.2.29-.21.41-.09.69.17.09.21.29.03.52-.04.05-.08.14-.06.18.15.33.16.64-.11.92.28.25-.08.31-.13.47-.06.18-.12.41-.05.58.13.36.07.71.05,1.07-.02.43-.07.85-.11,1.28,0,.11,0,.22.02.32,0,.04.05.1.03.11-.24.3-.05.64-.12.96-.13.57-.01,1.16-.12,1.73-.12.6-.24,1.19-.36,1.79-.02.11-.01.23-.02.35-.02.68-.03,1.34-.32,2-.25.55-.3,1.19-.48,1.78-.08.25-.06.47.11.63.16.15.39.22.58.35.15.1.28.27.44.31.17.05.38.01.57-.02.17-.03.32-.14.48-.16.54-.07,1.07-.11,1.61-.15.18-.01.37,0,.58,0,0-.02.02-.07.05-.15.34.11.73.08,1.05.3.22.12.45.24.67.37,0,.03-.02.05-.02.08.17-.07.34-.13.51-.2h0ZM34.58,66.84s-.04.02-.06.04c-.04.77-.08,1.54-.13,2.38.22-.4.4-.74.58-1.07-.03,0-.07,0-.1,0-.04-.11-.1-.21-.11-.32-.03-.27-.04-.54-.07-.82,0-.08-.08-.15-.12-.22Z"/>
      <path class="cls-1" d="M43.9,8.86c0-.08,0-.16.03-.24.14-.48.5-.77.91-1,.05-.03.05-.11.1-.15.11-.09.23-.23.35-.22.89.05,1.39-.49,1.79-1.16.16-.27.24-.61.32-.92.04-.16-.02-.35-.04-.6.49-.48.99-1.09,1.6-1.54.55-.4,1.21-.65,1.85-.92.15-.06.38.05.57.08.16.03.33.08.49.06.27-.03.55-.06.8-.15.32-.11.6-.32.91-.43.41-.15.82-.34,1.3-.25.12-.38.51-.24.76-.26.53-.05.62.44.8.85-.3.13-.59.24-.87.37-.08.04-.15.14-.2.22-.21.33-.51.53-.89.58-.59.08-1.18.17-1.77.25-.25.04-.52.04-.76.12-.26.08-.54.19-.75.36-.47.37-.93.75-1.57.8-.04,0-.08.05-.11.08-.16.12-.32.22-.47.35-.05.04-.02.17-.07.2-.11.08-.24.13-.38.2.06.05.1.09.17.14-.05,0-.08.01-.11.02-.11.02-.3-.07-.27.18,0,.02-.08.04-.12.06-.02-.05-.08-.12-.06-.16.12-.21.25-.41.38-.61.03-.04.06-.07.05-.16-.1.11-.22.22-.31.34-.38.55-.73,1.11-1.12,1.65-.31.43-.71.76-1.19,1-.73.38-1.16,1.03-1.4,1.81-.12.38-.33.74-.49,1.11-.04.08-.06.18-.05.27.04.4-.15.74-.23,1.1-.05.22-.04.46-.05.68-.03.64-.05,1.29-.09,1.93-.03.54.04,1.05.41,1.49.09.11.15.26.2.34.64.3,1.26.58,1.93.89-.11.05-.16.07-.29.13.29.17.53.31.77.46.03,0,.06-.02.09-.03-.09-.28-.17-.56-.25-.81.09,0,.2-.18.2-.37,0-.29.06-.58.07-.88.02-.61.37-1.09.61-1.61.15-.32.27-.67.4-1,.02-.05.06-.11.11-.14.18-.15.38-.28.54-.45.1-.1.12-.31.35-.19.01,0,.09-.14.15-.19.23-.17.7-.09.95.06.18.11.41.16.62.17.22,0,.44-.09.66-.14.05-.01.12-.06.14-.11.08-.28.21-.51.53-.47-.06-.24-.13-.43-.15-.63-.02-.23.11-.35.36-.3.44.08.88.19,1.33.22.36.03.72-.06,1.09-.06.61-.01,1.23.03,1.84-.02.47-.04.93-.18,1.39-.27.67-.13,1.33-.26,2-.39.09-.02.18-.06.34-.11-.05.23-.08.43-.12.64-.05,0-.1.02-.15.02-.37,0-.72.03-1.07.19-.32.15-.68.22-1.04.3-.55.11-1.09.21-1.65.29-.61.08-1.23.13-1.84.18-.21.01-.42-.05-.63-.06-.44,0-.89,0-1.34,0,.04.2.05.36.1.52.15.51.55.65,1.02.69.25.02.5.13.73.1.48-.07.89.29,1.37.16.78-.2,1.56.08,2.34,0,.41-.04.8-.2,1.2-.31.35-.09.72-.15,1.06-.27.45-.17.9-.37,1.33-.58.56-.26,1.13-.51,1.65-.83.44-.27.83-.63,1.25-.94.19-.14.41-.22.59-.36.22-.16.42-.36.63-.53.08-.06.15-.12.23-.19.05.08.12.16.16.25.18.52.07.86-.36,1.21-.73.61-1.41,1.27-2.16,1.84-.48.36-1.04.61-1.58.88-.44.22-.93.34-1.34.59-.35.21-.75.22-1.09.42-.59.35-1.28.33-1.92.51-.25.07-.53.05-.79.05-.38,0-.77.01-1.15-.04-.31-.04-.6-.2-.91-.27-.47-.11-.92-.33-1.43-.3-.18.01-.37-.19-.55-.28-.17-.08-.34-.15-.51-.23-.11-.05-.23-.09-.32-.17-.28-.25-.54-.52-.81-.78-.03-.02-.06-.04-.09-.05-.08-.02-.18,0-.23-.05-.23-.2-.47-.19-.74-.08-.96.4-1.42,1.24-1.83,2.12-.36.77-.3,1.6-.23,2.42.03.29.14.57.23.92-.18-.05-.27-.07-.39-.1.11.35-.15.27-.32.33-.22.08-.34.26-.44.48-.1.2-.26.44-.45.52-.45.18-.89.05-1.27-.25-.62-.49-1.24-.98-1.87-1.48-.12.57-.43,1.05-.79,1.53-.35.45-.33,1.03-.07,1.56.1.22.22.43.35.69-.12-.07-.19-.11-.27-.15.13.22.1.57.51.54.06,0,.13.13.2.16.17.07.37.08.51.18.14.1.24.27.34.42.28.41.6.8.81,1.25.1.2.28.51.05.76-.08.09-.22.13-.34.2.26.45.63.87.76,1.4-.04.03-.08.07-.13.1-.17-.25-.33-.5-.5-.75-.04.05-.07.11-.11.16-.13.03-.25.08-.38.07-1.28-.06-2.09-.81-2.73-1.83-.18-.29-.25-.68-.64-.81-.06-.51-.49-.94-.33-1.5.11-.4.06-.78-.02-1.18-.06-.29-.05-.58.1-.87.18-.34.25-.74.44-1.08.25-.44.54-.87.86-1.27.26-.34.67-.42,1.07-.4.2.01.23-.09.21-.21-.03-.15-.07-.33-.17-.43-.33-.33-.4-.76-.52-1.18-.29-.98-.32-1.98-.11-2.97.11-.5.3-.99.49-1.46.14-.34.34-.65.5-.98.12-.26.22-.54.34-.8.04-.08.12-.14.18-.21l-.06-.04Z"/>
      <path class="cls-1" d="M53.98,118.9s-.07-.13-.05-.19c.09-.27-.08-.29-.21-.3,0-.12,0-.24-.04-.35-.12-.32-.27-.62-.37-.94-.18-.58-.32-1.16-.49-1.78.07-.13.19-.35.32-.58-.07.03-.14.07-.15.07-.15-.39-.3-.78-.45-1.17-.05-.14-.12-.27-.21-.46-.06,0-.19-.02-.28-.03,0-.09.04-.19,0-.24-.17-.28-.4-.54-.23-.91.02-.03-.04-.11-.07-.15-.31-.3-.68-.52-.94-.91-.18-.28-.32-.56-.39-.85-.31,0-.63.01-.94-.01-.03.43-.07.86-.09,1.3-.03.52-.04,1.04-.03,1.55,0,.15.08.3.13.44.08-.01.16-.03.24-.04-.03-.06-.04-.15-.08-.18-.23-.14-.22-.34-.11-.53.06-.1.2-.15.32-.24-.02-.08-.06-.19-.11-.36.4.37.75.69,1.1,1.01.11.1.28.16.33.28.2.46.34.95.54,1.41.22.53.48,1.05.73,1.57.19.4.4.78.6,1.17.06.12.11.26.17.4-.41-.08-.76-.06-1.09.15-.43.27-.86.21-1.28-.01-.06-.03-.08-.12-.12-.17-.35.12-.61-.11-.86-.27-.26-.17-.48-.41-.73-.63.03-.05.07-.11.12-.18-.14-.06-.27-.1-.39-.15,0-.11.02-.21.03-.34-.27.04-.38-.03-.32-.31.04-.17-.03-.37-.05-.56-.08,0-.16.02-.29.03.09-.13.15-.22.21-.32-.02,0-.04.02-.06.03-.03-.41-.05-.82-.08-1.25.02,0,.11-.02.11-.03-.16-1.1.07-2.25-.53-3.3-.22.08-.34-.1-.48-.28-.11-.15-.25-.28-.38-.41-.05-.05-.17-.1-.18-.09-.06.06-.09.15-.12.23-.11.3-.21.6-.33.9-.06.15-.2.28-.24.43-.14.5-.26,1.01-.36,1.52-.05.24.04.54-.07.74-.19.32-.2.65-.24.99-.01.11-.12.21-.16.32-.05.15-.17.32.06.44.09.05.16.13.21.16-.13.94-.13,1.82.4,2.68.06-.16.1-.31.17-.49.24.29.16.47-.08.64.28-.06.49-.04.5.3,0,.04.06.07.1.1.28.25.55.5.83.76.01.01,0,.05.02.06.11.1.25.18.34.3.24.31.87.18.88.77,0,.03.06.06.09.08.26.12.52.23.79.35.02.1.04.2.06.31.02,0,.04,0,.06,0,.03-.09.06-.18.09-.27.16,0,.32.32.42-.02.12.19.2.44.37.56.16.11.37.31.63.12.1-.07.23-.12.36-.13.26-.04.56.01.79-.09.26-.12.71-.12.62-.64-.04-.21.04-.43.08-.67.03.03.06.06.1.09.11.09.21.24.32.24.22,0,.41-.11.47-.34.05-.18.07-.39.16-.55.17-.32,0-.54-.17-.78Z"/>
      <path class="cls-1" d="M64.59,116.95q-.06.48-.8.38c-.05-.13-.1-.25-.14-.36h-.37s.02.08.03.18c-.13-.11-.22-.18-.35-.28.01.13.02.21.05.4-.13-.13-.21-.21-.29-.29-.28.24-.56-.05-.84-.03-.02.09-.03.18-.05.28-.12-.02-.26-.01-.35-.07-.14-.09-.25-.23-.39-.37-.02.02-.09.08-.1.1-.62-.27-1.23-.53-1.85-.8-.07-.13-.14-.34-.27-.5-.07-.09-.26-.08-.34-.17-.21-.25-.56-.04-.77-.27.05-.04.09-.08.1-.09-.22-.15-.43-.3-.65-.44-.23-.15-.45-.36-.7-.41-.34-.07-.5-.19-.42-.53-.36-.18-.84-.87-.74-1.04-.07-.06-.14-.14-.22-.19-.12-.08-.21-.28-.4-.1-.02.01-.14-.09-.21-.13.18-.14-.05-.26-.02-.39.13-.64.26-1.29.4-1.93.04-.18.13-.26.37-.2.18.05.41-.04.61-.11.45-.14.77,0,.99.41.06.1.18.18.28.27.14.33.24.71.61.94.18.12.3.33.46.49.16.16.32.32.48.48.01.01.04.03.04.04.06.68.76.67,1.12,1.03.17.16.39.29.61.38.35.14.75.18,1.08.35.2.11.34.14.52.02.39.5.89-.14,1.32.21-.09-.45.06-.58.45-.47.36.1.87-.13,1-.47.03-.08-.03-.22.02-.28.07-.1.2-.16.31-.24-.03-.09-.07-.19-.13-.35.1.04.15.07.21.09.15-.45.21-.48.84-.44.1,0,.21.05.31.05.12,0,.25-.03.46-.06h.57c.48.45,1.01.91,1.21,1.66.17-.05.32-.1.47-.14.05.06.11.12.15.19.24.37.08.86-.35.98-.36.1-.24.33-.21.52-.41.23-.24.69-.47,1-.02-.09-.03-.16-.03-.18-.17.05-.35.08-.5.16-.13.07-.29.17-.34.29-.14.36-.42.47-.75.49-.26.01-.53-.03-.79-.04-.01,0-.03,0-.03,0-.39.31-.8.03-1.2.02Z"/>
      <path class="cls-1" d="M22.54,55.01c-.2.05-.4.1-.6.16-.32.09-.65.17-.96.3-.3.12-.67.08-.92.34-.01.01-.04.02-.06,0-.54-.25-.95.44-1.49.21-.17.2-.38.05-.58.06-.13.01-.25.09-.37.12-.25.07-.5.16-.75.19-.87.09-1.75.15-2.63.21-.14,0-.29-.05-.43-.04-.1,0-.2.08-.27.17-.1,0-.19,0-.29,0-.04,0-.08.04-.11.03-.65-.12-1.3-.25-1.96-.36-.22-.04-.45,0-.66-.06-.6-.15-1.13-.43-1.51-.94-.17-.22-.36-.42-.54-.62-.03.02-.06.04-.09.06.1.18.2.35.29.53-.24-.15-.53-.2-.63-.54-.04-.14-.28-.23-.44-.32-.25-.15-.51-.28-.79-.43,0,.01-.04.07-.12.21-.07-.18-.17-.31-.15-.43,0-.07.21-.16.31-.16.27.02.46-.09.68-.24.55-.38,1.19-.52,1.84-.62.06,0,.14.1.15.12-.29.26-.54.49-.79.72.52.68,1.25.49,1.91.48.48,0,.95-.15,1.42-.21,1-.12,1.99-.27,2.93-.66.52-.21,1.1-.26,1.63-.42.47-.15.91-.37,1.37-.54.71-.26,1.44-.48,2.15-.75.54-.21,1.06-.47,1.58-.72.09-.04.14-.16.22-.25.2.17.38.02.59-.06.51-.21,1.05-.38,1.56-.58.36-.14.71-.3,1.06-.45.53-.23,1.08-.41,1.59-.68.4-.21.75-.53,1.13-.79.08-.05.2-.1.29-.09.34.04.59-.12.87-.31.24-.16.53-.23.8-.34.36-.15.74-.27,1.08-.47.31-.18.57-.45.86-.67.05-.04.13-.04.2-.06.1-.03.23-.03.29-.1.32-.4.7-.39,1.13-.22.06.02.16-.05.24-.08.03.28-.19.57-.49.71-.42.19-.82.42-1.24.63-.1.05-.21.11-.31.11-.39.02-.71.2-1.04.41-.46.29-.97.49-1.46.73-.44.22-.87.46-1.33.65-1.11.48-2.23.94-3.35,1.41-.6.25-1.25.39-1.79.82-.35.28-.86.36-1.27.57-.4.2-.82.34-1.21.58-.44.26-.86.64-1.45.57-.26-.03-.53.07-.8.12-.05,0-.12.05-.14.09-.17.41-.57.41-.9.49-.17.04-.35.25-.56.07,0,0-.06.03-.07.05-.14.31-.46.27-.71.33-.51.14-1.02.28-1.54.39-.74.17-1.48.33-2.23.46-.28.05-.58,0-.92,0,.32.13.61.23.88.37.55.28,1.15.22,1.73.32.54.09,1.06.03,1.58.02.51-.02,1.02-.03,1.52-.06.1,0,.19-.09.28-.14,0-.03,0-.07,0-.1.08.05.15.09.23.14.17.1.33.18.52.03.07-.05.17-.08.26-.09.63-.1,1.26-.17,1.88-.3.52-.11,1.02-.31,1.54-.45.38-.11.77-.19,1.15-.3.37-.11.74-.22,1.09-.36.42-.16.82-.36,1.24-.52.13-.05.3-.02.45-.04.05,0,.12,0,.15-.03.33-.39.82-.42,1.27-.52.05-.01.11-.01.15-.04.64-.37,1.28-.74,1.92-1.12.03-.02.05-.04.08-.04.76-.08,1.31-.61,1.97-.9.54-.24,1.08-.48,1.61-.75.5-.26.97-.55,1.46-.82.13-.07.27-.14.42-.18.08-.02.17,0,.35,0,.55-.6,1.2-1.25,2.32-1.11-.1.14-.15.26-.23.33-.93.82-1.93,1.56-3.03,2.12-.52.27-1.1.44-1.64.67-.47.2-.92.45-1.38.66-.65.3-1.23.73-1.96.88-.25.05-.45.31-.68.46-.25.16-.49.42-.76.45-.47.05-.9.23-1.37.29-.31.04-.55.19-.8.37-.26.18-.59.28-.91.37-.38.11-.78.14-1.16.25-.14.04-.24.21-.36.32,0-.02,0-.03,0-.05Z"/>
      <path class="cls-1" d="M8.04,40.55c.08.07.16.15.24.22.02-.02.04-.04.07-.05-.06-.08-.11-.18-.19-.22-.6-.31-.85-.91-1.17-1.45-.06-.11-.1-.23-.18-.33-.24-.29-.3-.62-.2-.98.09-.34.17-.68.24-.93.44-.1.76-.18,1.08-.23.39-.06.72.06,1.07.25.72.38,1.46.71,2.2,1.07.15.07.3.14.45.22.72.38,1.51.55,2.29.79.54.17,1.08.14,1.61.19.2.02.41-.07.62-.07.55,0,1.1.04,1.65.03.31,0,.62-.07.97-.11.1.1.21.16.41.01.16-.12.41-.11.62-.13.32-.03.64-.03.96-.04.03,0,.06,0,.09,0,.67-.16,1.34-.33,2.01-.49.67-.17,1.34-.34,2.02-.5.22-.05.45-.04.66-.09.12-.03.23-.12.34-.13.16-.01.32,0,.48-.03.44-.09.79-.32,1.16-.57.35-.24.82-.33,1.23-.48.43-.16.85-.39,1.29-.46.55-.1.88-.55,1.38-.7.09-.03.2,0,.29-.04.14-.06.27-.16.4-.25.64.65.33,1.3-.18,1.67.08.02.14.04.19.06-.45.41-.89.84-1.36,1.22-.41.33-.86.59-1.29.9-.41.29-.8.61-1.21.9-.08.06-.22.05-.33.07,0-.12-.06-.26-.01-.35.07-.13.21-.3.33-.31.37-.04.55-.35.82-.51.51-.29,1.03-.57,1.48-.95.4-.34.9-.56,1.16-1.06.13-.25.33-.47.18-.81-.17.08-.35.16-.52.25-1.01.5-2.01.99-3.01,1.5-.18.09-.33.26-.51.31-.35.09-.71.11-1.07.16-.16.02-.32.03-.48.04-.37.03-.68.14-.96.4-.11.1-.33.06-.51.08-.19.02-.39.03-.58.08-.82.18-1.64.35-2.45.57-.3.08-.57.25-.89.28-.57.06-1.13.19-1.71.22-.24.01-.46-.02-.68-.03-.23-.01-.47.17-.71.21-.33.05-.67.04-1,.06-.05,0-.11-.02-.16,0-.46.22-.95,0-1.43.09-.4.06-.84-.05-1.24-.15-.73-.17-1.44-.43-2.17-.58-.69-.14-1.28-.51-1.91-.76-.72-.29-1.44-.56-2.16-.85-.12.23-.22.42-.32.61.05,0,.12,0,.11,0,.07.13.12.21.16.3.04.1.04.23.11.31.15.2.34.38.5.58.16.19.3.41.47.59.29.33.55.74.91.95.66.39,1.27.91,2.1.95.13,0,.27.06.37.14.29.19.58.31.95.21.12-.04.29.1.44.12.56.05,1.13.1,1.69.11.5.01,1.03-.11,1.51,0,.53.11.99-.05,1.48-.09.23-.02.47.07.7.05.44-.05.88-.16,1.33-.24.67-.13,1.35-.24,2.01-.4.53-.13,1.03-.33,1.55-.52.33-.12.64-.26.96-.39,0,0,.02-.02.03-.01.66.13.99-.53,1.54-.64.39-.08.65-.33.97-.52.12-.08.34-.01.59-.01-.1.14-.12.22-.17.25-.32.16-.56.42-.85.61-.49.33-1.04.57-1.57.85-.43.22-.86.43-1.3.64-.12.06-.27.11-.39.08-.49-.11-.9.14-1.34.27-.32.09-.65.19-.97.28-.12.03-.25.05-.34.12-.2.16-.42.16-.65.1-.18-.05-.35-.1-.47.1,0,.02-.03.03-.05.04-.49.09-.98.25-1.48.26-.42.01-.85-.08-1.28.04-.16.04-.35-.02-.53-.03-.46-.03-.93-.07-1.39-.08-.35-.01-.69-.03-1.04-.06-.41-.03-1.14-.12-1.55-.28-.3-.12-.61-.16-.92-.04-.07.02-.16.07-.2.04-.31-.22-.69-.24-1.02-.42-.1-.05-.15-.21-.25-.26-.44-.24-.86-.48-1.24-.84-.25-.24-.6-.42-.84-.71-.03-.04-.05-.09-.08-.13.02-.01.03-.03.05-.04Z"/>
      <path class="cls-1" d="M10.87,48.01c-.37-.05-.74-.13-1.12-.16-.16-.01-.34.09-.5.07-.37-.04-.73-.12-1.09-.19-.34-.07-.69-.11-1.02-.21-.39-.13-.77-.29-1.13-.49-.64-.35-1.26-.76-1.9-1.12-.68-.37-1.18-.92-1.61-1.54-.26-.37-.49-.75-.73-1.13-.18-.28-.24-.58-.15-.9.09-.34.34-.51.7-.45.03,0,.07.01.09,0,.39-.35.83-.1,1.24-.1.32,0,.64.11.96.25-.05.02-.11.04-.19.08.05.07.1.14.16.23-.04,0-.07.02-.09.02-.11,0-.23-.06-.33-.03-.28.07-.5.01-.65-.24-.09-.14-.18-.16-.3-.04-.12.12-.26.23-.35.37-.07.11-.1.25-.1.38.01.22.07.44.11.68.12.09.27.22.43.33.85.59,1.71,1.18,2.57,1.77.09.07.18.15.28.21.47.26.94.52,1.42.77.08.04.2,0,.3.03.56.11,1.12.3,1.69.32.36.01.71.23,1.1.05.15-.07.36,0,.54,0,.68-.05,1.37-.09,2.05-.18.26-.03.5-.17.79-.28.18.26.4.06.66-.04.36-.15.72-.33,1.15-.27.16.02.34-.11.51-.16.16-.05.33-.12.49-.14.44-.05.88-.06,1.31-.12.14-.02.25-.18.39-.22.5-.15,1.03-.22,1.5-.42.74-.32,1.55-.32,2.29-.62.18-.08.34-.22.53-.29.44-.18.89-.33,1.33-.51.18-.07.34-.19.51-.27.57-.27,1.15-.53,1.73-.78.23-.1.47-.17.7-.28.36-.18.72-.38,1.08-.56.32-.16.65-.29.97-.44.12-.06.22-.17.35-.2.75-.19,1.32-.74,2.02-1.02.27-.11.49-.35.73-.52.08-.06.16-.13.2-.16.14.15.24.27.3.33.51-.63,1-1.23,1.48-1.83.1-.12.26-.06.39-.2.23-.25.56-.4.83-.63.15-.13.25-.32.39-.5.09.17.16.3.24.46-.33.32-.67.66-1.03,1-.22.21-.43.42-.67.61-.32.27-.65.53-.99.77-.24.17-.48.33-.19.76-.49-.24-.64.17-.92.27-.28.1-.54.29-.81.44-.39.22-.77.45-1.17.66-.28.15-.57.27-.86.4-.17.08-.35.15-.52.22-.78.33-1.57.66-2.35,1-.44.19-.87.43-1.31.61-.75.31-1.5.6-2.26.88-.69.25-1.39.46-2.08.72-.27.1-.51.27-.78.38-.31.12-.63.19-.94.29-.18.06-.35.16-.53.21-.63.19-1.27.38-1.91.57-.17.05-.33.13-.49.16-.5.09-1,.14-1.49.24-.43.09-.85.24-1.27.36-.04.01-.08.04-.12.04-.46,0-.92,0-1.39,0-.11,0-.22.08-.33.1-.19.04-.43.15-.56.08-.22-.13-.2.02-.25.14Z"/>
      <path class="cls-1" d="M43.42,88.81c-.55-.07-.87-.5-.88-1.06,0-.39.02-.79,0-1.18-.02-.19-.15-.38.02-.47-.01-.23-.03-.4-.03-.57.02-.73.05-1.47.06-2.2,0-.14-.16-.22-.12-.43.08-.4.02-.82.05-1.24.01-.22-.19-.47.07-.67.01-.01,0-.08-.02-.12-.24-.53-.29-1.07-.06-1.62.02-.05-.03-.14-.05-.21-.11-.35.07-.66.11-.98-.01-.15-.04-.29-.04-.44,0-.48.04-.97.05-1.45,0-.53.04-1.07-.03-1.6-.06-.45.19-.87.09-1.3-.09-.4-.05-.79.1-1.16.08-.19.06-.38.08-.58.04-.54.12-1.09.21-1.63.04-.23.16-.45.23-.68.04-.14.04-.3.08-.44.07-.26.15-.52.22-.78.09-.34.16-.68.24-1.02.09-.39.2-.78.27-1.17.07-.4.19-.79.17-1.22-.01-.26.1-.53.18-.79.15-.49.32-.98.47-1.47.12-.38.21-.76.33-1.14.13-.42.23-.85.4-1.25.31-.71.68-1.4,1.01-2.11.13-.27.22-.57.35-.84.11-.23.24-.44.38-.65.05-.07.15-.12.23-.13.23-.03.5-.01.55.24.04.21-.1.41-.35.5-.34.12-.34.48-.46.75-.12.28-.19.58-.3.87-.18.47-.41.93-.55,1.41-.28.94-.53,1.89-.78,2.83-.16.63-.29,1.26-.45,1.89-.06.22-.24.44-.21.64.08.51-.22.92-.31,1.38-.07.36-.29.69-.36,1.05-.17.92-.28,1.86-.43,2.78-.06.38-.19.74-.26,1.12-.05.27-.03.54-.06.81-.03.3-.12.6-.11.9,0,.35.1.68-.04,1.05-.07.18.08.44-.18.61-.03.02.01.18.03.26.25.91-.02,1.8-.09,2.69-.08.96-.09,1.91,0,2.87.06.63.08,1.26.1,1.89.04,1.05.09,2.09.11,3.14.02.95,0,1.91,0,2.9Z"/>
      <path class="cls-1" d="M53.58,59.72c-.05.03-.11.06-.16.1.16-.24.37-.46.16-.78.22-.07.38-.16.15-.35.29-.38.24-.94.74-1.18.05.22.1.42.15.63-.13.09-.27.19-.4.28-.07.49-.14.98-.19,1.46-.07.62-.11,1.24-.18,1.86-.04.39-.08.78-.16,1.17-.07.36-.09.35-.06.4-.07.31-.16.56-.18.82-.04.51-.05,1.01-.06,1.52,0,.09.04.18.07.27.06.18.09.33-.07.52-.1.12-.1.36-.1.54,0,.15.07.3.1.43.04-.03.09-.07.15-.11l.07.04c-.07.34-.16.67-.22,1.01-.02.1.05.21.04.31,0,.12-.04.24-.08.36-.03.09-.11.17-.11.25.02.75.12,1.49.08,2.24-.05.77,0,1.54.03,2.31.06,1.39.19,2.78.32,4.16.11,1.15.28,2.3.39,3.45.07.66.07,1.33.12,1.99,0,.13.06.26.09.38.01.06.05.15.03.18-.33.38.05.65.12.97.06.25.1.51.11.77,0,.07-.12.15-.19.23.21.55.34,1.12.21,1.61.1,1.02.19,1.96.28,2.9-.07.03-.13.06-.21.1.03.05.07.08.08.11.04.11.12.23.11.33,0,.08-.14.22-.2.22-.11-.02-.22-.11-.32-.19-.32-.25-.2-.53-.08-.83.05-.13.14-.33-.2-.26.33-.24.34-.42.14-.59,0-.17.01-.27,0-.37-.03-.25-.23-.5.01-.73-.04-.09-.12-.18-.13-.28-.06-.61-.1-1.22-.16-1.83-.03-.34-.11-.68-.15-1.03-.07-.54-.11-1.08-.18-1.61-.09-.69-.21-1.37-.29-2.06-.05-.39-.03-.78-.07-1.16-.01-.13-.13-.26-.14-.39-.06-.71-.11-1.42-.16-2.13,0-.07-.02-.15-.05-.19-.15-.2-.14-.33.16-.37-.07-.12-.13-.22-.17-.32-.06-.15-.13-.31-.14-.47-.05-.68-.18-1.37-.1-2.03.09-.74-.14-1.45-.04-2.18.08-.58,0-1.18,0-1.77,0-.63,0-1.26.01-1.89.01-.7.01-1.39.06-2.09.08-1.11.17-2.22.3-3.32.06-.51.25-1,.37-1.51.03-.12,0-.25.01-.37.04-.36.09-.73.14-1.09,0-.02.01-.05.02-.07.06-.09.12-.17.18-.26l-.08-.06Z"/>
      <path class="cls-1" d="M2.31,50.55h.28s.07-.09.11-.13c-.07-.02-.14-.04-.21-.05-.69-.17-1.08-.73-1.54-1.19-.09-.09-.1-.26-.19-.36-.11-.14-.25-.26-.4-.37-.21-.16-.46-.57-.33-.89.14-.35.32-.69.76-.77.13-.02.24-.13.37-.14.14-.04.32-.03.42-.12.23-.21.21-.23.56-.13-.53.3-1.02.58-1.57.9.18.08.27.12.36.16.24.09.27.34.39.53.19.31.42.6.66.88.18.21.39.38.59.57.69.62,1.5,1.05,2.35,1.38.36.14.77.14,1.16.18.56.05,1.13.08,1.69.09.43.01.86-.02,1.29-.02.36,0,.72.01,1.08,0,.17,0,.35-.06.52-.1.68-.13,1.35-.33,2.03-.37.54-.03.95-.33,1.42-.5.07-.02.19-.06.2-.04.19.27.35.1.53-.02.06-.04.17,0,.25-.02.2-.04.4-.09.6-.13.12-.03.24-.07.36-.1.06-.01.16.02.18-.02.18-.24.43-.14.66-.16.07,0,.13-.1.19-.15-.02-.04-.04-.07-.05-.11.37-.05.74-.09,1.11-.14.06,0,.13-.06.15-.1.17-.43.56-.37.9-.45.2-.04.45-.02.57-.26.02-.03.11-.05.16-.03.31.08.61.18.79-.25.04-.09.31-.09.48-.1.2-.02.41.02.37-.32.25.26.69.14.79-.17.06-.19.13-.24.35-.29.41-.09.79-.31,1.17-.51.23-.12.42-.33.71-.2.13.06.19.07.18-.11,0-.02.16-.05.25-.07.22-.05.38-.14.5-.38.08-.17.31-.28.49-.38.3-.17.6-.32.91-.46.04-.02.16.09.2.17.03.06,0,.16,0,.25-.01,0-.03.03-.05.02-.38-.14-.56.18-.82.34-.4.26-.8.55-1.22.78-.4.22-.84.38-1.27.57-.02.08-.04.18-.06.31-.2.02-.4.03-.64.05,0,.03-.03.12-.05.25-.1-.06-.19-.11-.23-.13-.22.17-.41.32-.6.45-.29.19-.58.4-.89.55-.33.16-.68.28-1.02.4-.39.13-.78.24-1.17.36-.06.02-.12.01-.17.03-.25.06-.55.06-.72.21-.34.31-.75.36-1.14.48-.11.03-.21.08-.31.14-.3.16-.59.34-.96.19-.08-.03-.22.01-.29.07-.34.31-.79.26-1.18.41-.44.17-.93.07-1.36.37-.25.18-.64.16-.97.22-.29.06-.6.02-.85.22-.01.01-.04.03-.05.02-.48-.21-.9.16-1.36.15-.3,0-.6-.03-.9-.02-.15,0-.3.08-.45.09-.26.02-.53-.03-.78.02-.74.14-1.43-.05-2.13-.23-.74-.19-1.43-.51-2.09-.9-.22-.13-.53-.13-.79-.2-.09-.02-.18-.07-.27-.11,0-.03.02-.05.03-.08Z"/>
      <path class="cls-1" d="M56.01,72.01c0-.12-.01-.29-.03-.46-.08-.73-.18-1.47-.23-2.2-.03-.48.02-.96.02-1.45,0-.36-.03-.71-.02-1.07,0-.31.07-.62.06-.93-.03-.5-.12-1-.16-1.5-.03-.33-.01-.66-.02-1,0-.42-.02-.83-.02-1.25,0-.34.02-.67,0-1.01-.01-.27-.07-.54-.1-.81-.03-.22-.05-.45-.08-.7.11.02.21.04.32.06.36,1.26.4,2.57.47,3.87.05.9.11,1.81.17,2.71.02.23.04.45.06.68,0,.05.03.13,0,.15-.25.26-.02.54-.03.8,0,.29.07.58.08.87,0,.24-.03.49-.03.74,0,.54,0,1.08.15,1.62.11.4.13.83.12,1.25-.05,1.5.33,2.94.55,4.4.06.38.07.77.12,1.15.02.14.05.29.1.42.07.16.17.28,0,.47-.07.08.07.32.11.49.06.27.13.53.19.8.05.27.09.53.14.8,0,.05.03.09.04.14.01.13.02.27.08.4-.09.27.76,4.16.89,4.42-.06.03-.13.05-.22.09.05.09.1.17.16.25.02.03.09.07.09.08-.17.35.18.65.1,1,0,.03-.02.07,0,.09.24.39.13.87.34,1.28.12.24.13.54.19.82-.03.01-.05.02-.08.03-.19-.32-.39-.63-.6-.97.03-.05.08-.13.14-.21-.17-.11-.29-.25-.17-.51-.14-.1-.32-.21-.51-.34.21-.2.14-.41,0-.63-.12-.2-.04-.78.04-.86-.11-.45-.23-.86-.31-1.28-.05-.23-.04-.43-.21-.66-.16-.2-.13-.55-.18-.84-.02-.12.02-.24,0-.35-.06-.22-.15-.43-.22-.64-.03-.1-.02-.2-.03-.31-.01-.07,0-.18-.05-.21-.29-.23-.04-.24.09-.29-.28-.75-.66-1.47-.57-2.32.02-.21-.07-.45-.14-.66-.27-.82-.29-1.67-.4-2.51-.07-.49-.17-.97-.24-1.45-.11-.71-.22-1.43-.31-2.15-.01-.08.07-.18.13-.32Z"/>
      <path class="cls-1" d="M55.46,97.32c.08,1.12.15,2.25.21,3.37.05.89.11,1.78.13,2.68.01.72-.04,1.44-.06,2.16-.01.34.08.66-.05,1.02-.1.28-.06.65,0,.96.07.39.07.75-.01,1.15-.05.25-.01.52.02.78.03,0,.06-.02.09-.02.25.02.51.05.76.09-.02-.1-.03-.19-.05-.29-.04-.19-.11-.37-.13-.56-.03-.25.06-.53.04-.74-.06-.71.16-1.46-.29-2.13.57-.28.32-.66.12-1.05.08-.02.15-.03.22-.04-.06-.8-.12-1.59-.19-2.37-.07-.77-.15-1.53-.23-2.29.09-.08.17-.15.21-.18-.1-.19-.2-.32-.24-.47-.04-.2-.02-.42-.04-.62-.11-1-.25-2-.34-3-.02-.17-.04-.35,0-.53-.11-.02-.22-.03-.33-.05,0,.36,0,.72.03,1.08.02.35.12.7.15,1.05Z"/>
      <path class="cls-1" d="M47.33,106.06c-.04-.08-.08-.16-.14-.24.56-.3.31-.67.09-1.05.08-.02.15-.03.22-.05-.08-.79-.16-1.58-.25-2.37-.09-.77-.19-1.53-.29-2.28.09-.08.17-.15.21-.18-.1-.19-.21-.32-.25-.46-.05-.2-.03-.41-.06-.62-.14-1-.3-1.99-.42-2.99-.02-.17-.05-.35-.02-.53-.11-.01-.22-.03-.33-.04.01.36.02.72.06,1.08.03.35.14.7.17,1.05.11,1.12.2,2.24.3,3.36.07.89.16,1.78.19,2.67.03.72,0,1.44,0,2.16,0,.34.09.66-.03,1.02-.1.29-.04.65.02.96.08.39.09.75.02,1.15-.05.25,0,.52.04.78.03,0,.06-.02.09-.02.04,0,.09,0,.13.01.09-1.14-.03-2.3.25-3.41Z"/>
      <path class="cls-1" d="M65.99,110.88c-.13-.06-.24-.15-.36-.22-.38-.23-.76-.45-1.18-.69,0-.17-.21-.24-.39-.22-.29.02-.52-.08-.76-.21-.07-.04-.14-.08-.21-.1-.21-.07-.42-.13-.68-.2-.16.12-.34-.03-.53-.12-.07.01-.14.01-.21,0-.04,0-.08-.02-.13-.03-.04.02-.09.06-.13.11-.15-.08-.3-.16-.46-.24-.07-.01-.13-.03-.2-.04-.15-.03-.32-.08-.48-.08.02,0,.04,0,.06,0-.02,0-.05,0-.07,0-.04,0-.07,0-.11-.01-.09,0-.17-.02-.26-.02-.04,0-.08-.02-.11-.03,0,.03,0,.05,0,.08,0,.5.2.92.54,1.27.29-.25.15.36.4.19-.04-.08-.07-.16-.13-.28.14.03.25.04.36.07.79.24,1.59.49,2.38.73.2.06.4.08.6.15.51.18,1.01.4,1.53.55.32.1.68.1,1.04.14v-.34c-.42.1-.39-.25-.52-.45Z"/>
      <path class="cls-1" d="M63.64,83.7c-.29.05-.46-.09-.62-.47-.08-.19-.22-.36-.34-.54-.22-.86-.59-1.66-1.04-2.51.02-.06.07-.21.1-.29-.13-.2-.24-.35-.34-.5-.09-.13-.13-.31-.25-.4-.34-.26-.25-.67-.4-.99-.08-.17-.14-.34-.2-.52-.1-.31-.17-.62-.28-.93-.07-.21-.19-.39-.25-.6-.07-.23-.09-.48-.15-.72-.07-.29-.11-.59-.24-.85-.19-.38-.22-.78-.25-1.19-.08-.94-.35-1.82-.67-2.71-.1-.28-.09-.6-.15-.9-.08-.46-.22-.92-.25-1.39-.03-.31.09-.62.12-.93.01-.12-.04-.25-.06-.38-.04-.36-.07-.72-.1-1.09-.05-.91-.08-1.82-.15-2.73-.04-.58-.14-1.16-.22-1.8.09.03.23.04.25.1.16.44.33.88.43,1.34.1.47.11.96.18,1.44.1.68.25,1.35.31,2.02.03.3.12.6,0,.94-.11.33,0,.75.01,1.12,0,.1.03.21.06.31.04.16.09.31.15.51,0,.02-.06.1-.05.17.06.29.14.58.2.87.13.59.28,1.17.38,1.76.05.3,0,.61,0,.78.12.56.21,1,.32,1.43.11.44.24.87.39,1.3.03.1.14.18.18.22,0,.21-.04.39,0,.56.18.67.37,1.33.59,1.98.08.23.27.42.4.63.03.04.07.08.08.13.06.3.08.6.17.89.06.21.16.43.29.6.35.43.45.93.53,1.45,0,.03.01.06.03.09.39.54.56,1.18.83,1.77h0Z"/>
      <path class="cls-1" d="M65.68,49.17c0-.33-.08-.68.01-.99.24-.83-.1-1.61-.1-2.42,0-.78-.02-1.56-.06-2.34-.03-.54-.04-1.1-.18-1.61-.13-.44-.42-.84-.67-1.23-.29-.46-.6-.9-.93-1.33-.17-.23-.42-.4-.62-.61-.14-.15-.3-.3-.4-.48-.16-.29-.28-.6-.41-.9-.02-.04,0-.1,0-.18.08.04.14.05.19.09.44.36.55.35.93-.06.14-.15.28-.3.47-.51.37.39.72.75,1.06,1.11-.01.03-.02.05-.03.08h-.64c.1.16.16.31.26.42.48.53.8,1.17,1.12,1.8.1.19.2.38.25.58.02.08-.08.19-.13.29.06-.02.13-.04.19-.06.43.92.34,1.9.36,2.86.04,1.48-.25,2.93-.49,4.38-.06.37-.09.75-.14,1.12-.02,0-.03-.01-.05-.02Z"/>
      <path class="cls-1" d="M62.33,95.22c-.03-.08-.03-.17-.05-.25-.11-.6-.22-1.2-.33-1.79-.03.02-.06.05-.1.06-.04.02-.08.02-.12.03.04.22.07.45.1.67.01.08-.02.18-.03.26-.01.11-.05.22-.04.33.07.55.25,1.1.22,1.65-.04.78-.23,1.55-.37,2.32-.11.59-.23,1.19-.38,1.77-.1.4-.26.79-.35,1.19-.04.16.02.34.04.47-.1.21-.25.41-.29.62-.11.67-.35,1.32-.32,2.03.02.39-.12.78.3,1.07-.13.04-.22.06-.31.09q-.06.5.36.41c0-.08-.04-.19-.02-.2.29-.11.24-.44.19-.54-.15-.28.03-.49.06-.72.07-.49.12-.98.18-1.47.01-.09,0-.19.02-.28.04-.18.06-.48.17-.51.21-.07.21-.2.24-.35.04-.23.08-.47.14-.7.05-.18.13-.36.19-.54s.08-.37.13-.56c.05-.18.13-.34.19-.52.22-.65.02-1.35.25-2,.02-.04-.02-.1-.02-.15,0-.38-.02-.77,0-1.15.02-.41.08-.81-.05-1.22Z"/>
      <path class="cls-1" d="M52.27,95.93c-.03-.08-.03-.17-.05-.25-.11-.6-.22-1.2-.33-1.79-.03.02-.06.05-.1.06-.04.02-.08.02-.12.03.04.22.07.45.1.67.01.08-.02.18-.03.26-.01.11-.05.22-.04.33.07.55.25,1.1.22,1.65-.04.78-.23,1.55-.37,2.32-.11.59-.23,1.19-.38,1.77-.1.4-.26.79-.35,1.19-.04.16.02.34.04.47-.1.21-.25.41-.29.62-.11.67-.35,1.32-.32,2.03.02.39-.12.78.3,1.07-.13.04-.22.06-.31.09q-.06.5.36.41c0-.08-.04-.19-.02-.2.29-.11.24-.44.19-.54-.15-.28.03-.49.06-.72.07-.49.12-.98.18-1.47.01-.09,0-.19.02-.28.04-.18.06-.48.17-.51.21-.07.21-.2.24-.35.04-.23.08-.47.14-.7.05-.18.13-.36.19-.54s.08-.37.13-.56c.05-.18.13-.34.19-.52.22-.65.02-1.35.25-2,.02-.04-.02-.1-.02-.15,0-.38-.02-.77,0-1.15.02-.41.08-.81-.05-1.22Z"/>
      <path class="cls-1" d="M69.4,92.49c-.77-.25-1.54-.48-2.31-.72-.45-.14-.96-.03-1.35-.4-.07.44-.27.61-.69.61-.31,0-.61-.04-.92-.02-.21.01-.57-.07-.58.21,0,.25.33.32.58.3.12,0,.24-.1.36-.12.43-.07.87-.15,1.31-.19.04,0,.1.05.15.11.03,0,.06,0,.09-.01,0,0,.02,0,.02,0,0,0,0,0,.01,0,.02,0,.05,0,.07,0,.02,0,.05,0,.07,0,0,0,0,0,0,0,0,0,0,0,.01,0,0,0,.02,0,.03.01,0-.03,0-.05-.01-.08.33.06.59.11.86.15.53.07,1.07.13,1.6.19.05,0,.11.03.14.07.19.32.44.27.8.12-.11-.11-.17-.22-.25-.25Z"/>
      <path class="cls-1" d="M61.4,26.78c-.75.44-1.59.49-2.38.28-.74-.21-1.53-.5-1.76-1.43-.1-.4.15-.65.29-.95.03-.05.21-.09.28-.05.11.05.25.16.26.26.07.6.4.94.97,1.11.23.07.43.2.66.29.11.04.24.07.36.07.26,0,.52-.03.79-.04.35,0,.48.1.54.46Z"/>
      <path class="cls-1" d="M67.13,20.3c-.16.36-.29.74-.5,1.08-.19.32-.66.38-.98.19-.23-.14-.48-.26-.66-.45-.11-.11-.16-.35-.13-.51.05-.26.21-.5.27-.77.14-.59,1.01-.73,1.45-.45.33.21.45.51.55.91Z"/>
      <path class="cls-1" d="M55.27,20.07c.06.67-.79,1.2-1.41.92-.25-.11-.47-.29-.69-.46-.06-.04-.08-.18-.06-.26.09-.4.18-.8.31-1.19.08-.24.56-.46.83-.41.29.05.46.23.51.53.02.14.03.31.27.25.05-.01.16.09.18.16.04.15.05.31.07.47Z"/>
      <path class="cls-1" d="M61.67,25.73c-.34-.12-.7-.22-1.03-.38-.3-.15-.31-.67-.05-.91.09-.08.11-.23.2-.31.1-.1.24-.22.37-.23.08-.01.24.13.27.23.06.19.19.15.32.16.31.02.6.41.58.77-.02.3-.36.64-.65.67Z"/>
      <path class="cls-1" d="M63.63,83.7c.23.36.26.8.53,1.17.18.26.23.64.41.95.1.18.11.45.06.65-.04.17,0,.24.1.35.14.18.21.35.19.62-.02.34.15.69.24,1.04.06.26.12.52.11.8-.05-.09-.11-.18-.15-.28-.19-.58-.37-1.17-.56-1.76-.07-.21-.18-.41-.25-.62-.04-.13-.11-.31-.06-.42.1-.2,0-.3-.13-.39-.2-.13-.26-.3-.28-.55-.03-.36-.14-.74-.31-1.06-.14-.25-.1-.37.1-.52,0,0,0,0,0,0Z"/>
      <path class="cls-1" d="M34.03,40.95c.38-.02.54-.4.84-.47-.25-.29-.49-.55-.73-.82.03-.03.05-.06.08-.1.6.02.92.49,1.37.9-.72.45-1.41.87-2.1,1.3-.06-.12-.1-.21-.17-.34.19-.08.41-.16.6-.27.06-.03.08-.14.1-.2Z"/>
      <path class="cls-1" d="M69.98,84.73c-.18-.25-.33-.49-.38-.84-.05-.39-.28-.76-.46-1.13-.18-.37-.38-.74-.58-1.1-.11-.2-.22-.39-.37-.66.34.03.55.18.64.4.37.91.72,1.83,1.06,2.75.07.18.11.37.16.55-.03,0-.05.02-.08.02Z"/>
      <path class="cls-1" d="M52.74,92.64c.28-.06.58-.08.84-.18.3-.11.55.02.82.09.28.08.56.17.85.22.43.09.86.15,1.29.23,0,.03,0,.09-.02.09-.36.05-.72.16-1.06.11-.45-.07-.93-.21-1.31-.45-.31-.19-.51-.22-.79-.02-.21.15-.42,0-.61-.09,0,0,0,0,0,0Z"/>
      <path class="cls-1" d="M70.47,86.4c.33.03.39.26.46.46.26.78.51,1.57.76,2.35.09.27.36.48.24.8,0,.02-.02.04-.06.12-.06-.08-.11-.14-.14-.2-.19-.46-.39-.91-.57-1.38-.07-.19-.09-.4-.15-.6-.11-.37-.22-.74-.34-1.1-.05-.15-.13-.29-.21-.46Z"/>
      <path class="cls-1" d="M46.28,54.59c.1-.06.2-.15.3-.16.21,0,.42.01.62.06.29.07.57.17.89.26-.03.04-.08.11-.12.17l-.02-.09c-.31-.01-.61-.01-.92-.03-.23-.01-.47-.04-.7-.07-.02-.05-.03-.1-.05-.15Z"/>
      <path class="cls-1" d="M51.87,57.79c.23.2.08.67-.28.8.28.13.13.27.03.41-.13.18-.28.24-.52.06.09-.01.14-.02.19-.02.05-.47.26-.87.58-1.25Z"/>
      <path class="cls-1" d="M31.7,42.46c.51-.3.97-.57,1.45-.85.02.02.08.1.15.17-.17.27-1.2.73-1.6.68Z"/>
      <path class="cls-1" d="M49.49,113.4c.1.08.19.16.32.26-.11.04-.18.07-.28.11.06.09.12.17.18.26-.14.13-.27.26-.43.41-.21-.53-.13-.87.2-1.04,0,0,0,0,0,0Z"/>
      <path class="cls-1" d="M70.65,86.25c-.36-.2-.53-.68-.38-1.15.12.37.24.73.38,1.15Z"/>
      <path class="cls-1" d="M33.84,64.66c-.06-.1-.13-.2-.19-.29.18-.18.37-.36.61-.6-.06.41-.11.72-.42.89,0,0,0,0,0,0Z"/>
      <path class="cls-1" d="M54.94,4.31c.05,0,.1-.01.16-.02-.13.3-.65.61-.96.51.22-.13.45-.25.67-.38.05-.03.09-.08.14-.11,0,0-.01.01-.01.01Z"/>
      <path class="cls-1" d="M57.41,92.92c.22.03.4.05.58.08-.38.18-.52.15-.58-.08Z"/>
      <path class="cls-1" d="M67.34,69.68c-.06-.28-.11-.56-.17-.84.03,0,.06-.01.09-.02.06.28.13.55.19.83-.04,0-.07.02-.11.02Z"/>
      <path class="cls-1" d="M60.6,10.43c-.03.2-.06.4-.1.59-.05-.01-.1-.02-.15-.03.05-.19.1-.39.15-.58.03,0,.06.01.1.02Z"/>
    </g>
  </g>
</svg>