<?xml version="1.0" encoding="UTF-8"?>
<svg id="Layer_2" data-name="Layer 2" xmlns="http://www.w3.org/2000/svg" viewBox="0 0 64.09 101.16">
  <defs>
    <style>
      .cls-1 {
        fill: #000;
        stroke-width: 0px;
      }
    </style>
  </defs>
  <g id="illustrations">
    <g>
      <path class="cls-1" d="M64.06,68.61s-.03-.06-.05-.08c-.06-.09-.1-.09-.03-.25.05-.12.05-.11-.02-.21-.07-.09-.08-.17-.1-.28-.03-.27-.1-.53-.11-.81-.04-.68-.17-1.4-.42-2.03-.26-.66-.59-1.3-.89-1.95-.06-.13-.12-.14-.21-.24-.09-.09-.08-.21-.1-.33-.05-.34-.27-.68-.41-.98-.16-.35-.32-.7-.48-1.05-.07-.15-.2-.33-.23-.48-.02-.14.04-.1.12-.18-.08-.11-.2-.16-.27-.29-.08-.14-.15-.29-.22-.44-.15-.3-.3-.59-.41-.91-.09-.27-.27-.51-.43-.75-.2-.3-.38-.61-.57-.92-.68-1.16-1.45-2.25-2.31-3.28-.16-.19-.27-.43-.45-.61-.09-.09-.21-.14-.31-.21-.14-.1-.23-.23-.33-.37-.16-.23-.35-.39-.55-.57-.22-.2-.43-.41-.68-.57-.1-.06-.13-.1-.19-.19-.09-.14-.22-.22-.35-.31-.26-.19-.52-.36-.78-.53-.12-.08-.18-.19-.28-.29-.08-.08-.17-.13-.26-.18-.27-.16-.49-.35-.73-.55-.58-.49-1.15-.99-1.76-1.46-.26-.2-.53-.39-.83-.53-.31-.15-.73-.25-.98-.51,0-.03.02-.06.04-.09-.09-.03-.19-.01-.28-.04-.12-.03-.21-.11-.31-.17-.25-.16-.51-.23-.8-.3-.29-.07-.58-.13-.87-.2-.14-.03-.26-.07-.38-.15-.15-.1-.07-.06-.03-.16-.07-.06-.2-.09-.29-.14-.11-.05-.19-.08-.32-.08-.13,0-.24,0-.37-.04-.14-.06-.26-.14-.4-.19-.12-.05-.23-.11-.35-.15-.1-.04-.17-.02-.27-.02-.24-.02-.42-.19-.65-.23-.12-.02-.22-.02-.33-.07-.12-.04-.22-.11-.34-.15-.32-.12-.67-.17-1.01-.25-.64-.14-1.28-.24-1.92-.37-.3-.06-.6-.12-.91-.17-.33-.06-.66-.07-.99-.11-.54-.07-1.03-.42-1.42-.79-.19-.18-.31-.38-.44-.6-.15-.24-.33-.38-.59-.5-.26-.12-.56-.28-.84-.34-.04,0-.14,0-.18-.03-.03-.03-.02-.06-.04-.09-.07-.1-.17-.15-.21-.26-.04-.11-.03-.22-.02-.34.02-.18.02-.35.02-.52,0-.35.02-.7.09-1.04.06-.28.17-.54.22-.82.03-.14.04-.28.01-.43-.03-.16-.12-.28-.18-.42.1.01.16.11.25.1.01-.25-.22-.56-.32-.77-.16-.33-.33-.66-.51-.99-.12-.21-.25-.42-.46-.55-.11-.07-.24-.11-.37-.11-.12,0-.26.04-.38,0-.21-.07-.19-.38-.2-.55-.03-.37-.08-.75-.1-1.13-.04-.7-.04-1.41-.05-2.11,0-.73.05-1.47.07-2.2,0-.29,0-.58.02-.86.01-.15-.02-.3-.03-.45-.02-.2,0-.39,0-.58.02-.31-.06-.64,0-.95.04-.27.1-.6.05-.87-.02-.08-.03-.11-.01-.19.01-.05.04-.07.03-.12,0-.05-.05-.1-.05-.15,0-.08.02-.16.02-.24,0-.36-.02-.72-.02-1.08,0-.29.04-.57.11-.85.03-.12-.02-.19-.03-.31,0-.15.04-.32.04-.47,0-.24-.05-.53.03-.76.06-.18.13-.19,0-.33-.03-.04-.1-.08-.12-.14-.02-.08.04-.18.05-.26.07-.32-.03-.63,0-.96,0-.14.02-.27-.01-.4-.03-.12-.1-.24-.09-.37,0-.06.05-.11.05-.16,0-.04-.02-.09-.02-.13,0-.05.02-.1.02-.16,0-.04-.01-.05-.01-.08,0-.07-.03-.09,0-.17.01-.06.03-.1.02-.17-.02-.18-.12-.36-.18-.53-.1-.3-.07-.6-.15-.9-.02-.07-.04-.14-.04-.21,0-.07.05-.12.06-.19.02-.16-.06-.35-.09-.51-.06-.29-.08-.55-.07-.85.01-.32-.11-.63-.14-.95-.01-.15-.03-.3-.07-.45-.04-.13-.09-.22-.09-.35,0-.15-.03-.29-.06-.44-.03-.17-.02-.35-.04-.52-.08-.71-.15-1.42-.22-2.13-.07-.78-.06-1.55-.11-2.33-.05-.79-.19-1.57-.25-2.36-.07-.78-.09-1.58-.24-2.36-.08-.42-.1-.83-.13-1.25-.01-.19-.02-.38-.04-.57-.01-.18.01-.41-.04-.58-.14.04-.33,0-.47,0s-.33.03-.47,0c-.03.13,0,.3.01.43,0,.16.03.32.07.47.08.32.11.62.12.95.03.73.19,1.44.25,2.16.03.34.06.66.11,1,.02.09.02.17,0,.26,0,.06-.07.15-.05.2.02.1.13.16.16.27.03.12.02.26.04.38.02.13-.03.09-.1.18-.14.19.11.39.13.57-.09.06-.12.04-.12.16,0,.09.05.19.07.28.04.2.05.39.01.59-.03.17.06.32.09.49.04.18.04.36,0,.54-.03.16-.07.3-.02.46.05.16.14.29.18.45.03.11.04.24.05.35.01.17-.05.24-.14.38.04.07.12.12.17.19.06.09.1.19.13.29.03.09.04.19.03.28-.01.11-.05.17,0,.28.05.09.09.05.06.17-.03.13-.07.19-.04.33.02.1.09.18.12.27.04.13-.03.14-.06.25-.05.19,0,.49.02.68.03.29.14.58.16.86,0,.11-.03.21-.04.32-.01.12,0,.24.02.36.05.29.05.59.07.89.01.28.02.55.05.83.03.28.11.56.14.84.03.28,0,.57.01.85,0,.13-.04.24-.04.36,0,.11.08.19.09.31.15,1.2.2,2.41.27,3.62.01.28-.04.58.03.85.02.09.07.17.03.26-.05.11-.15.12-.11.26.03.1.07.14.07.26,0,.14-.02.28-.03.42-.02.31-.03.61-.01.92.05,1.22.04,2.44,0,3.67,0,.3,0,.59.02.88.02.25-.05.47,0,.71.03.11.04.2-.02.3-.04.07-.1.1-.11.19-.02.12.03.29.04.41,0,.06.03.15.03.22,0,.12-.03.09-.08.16-.11.14.04.37.04.54,0,.33-.01.66-.03.99,0,.15-.02.31-.03.46,0,.1.03.29-.06.35-.07.04-.34-.02-.43-.02-.17,0-.33.01-.5.03-.16.02-.33.05-.49.09-.12.03-.28.04-.38.13-.2.17-.31.52-.37.77-.04.14-.06.29-.08.43-.02.13-.07.3-.06.43.01.15.04.23,0,.4-.03.14-.07.29-.1.43-.07.33-.1.65-.1.99,0,.34,0,.72.08,1.05.07.27.19.51.24.78.03.14.05.28.12.41.06.14.2.28.23.42-.19,0-.41-.1-.61-.12-.17-.02-.34-.02-.51,0-.2.02-.4.06-.59.1-.14.03-.29.04-.42.11-.14.07-.23.22-.34.32-.11.1-.19.2-.26.33-.09.17-.15.35-.18.54-.04.19-.02.4-.06.58-.06.3-.47.28-.71.33-.45.09-.9.18-1.36.26-.85.14-1.7.27-2.55.43-.85.16-1.67.31-2.49.6-.82.28-1.62.61-2.41.97-.77.35-1.51.77-2.24,1.21-.72.44-1.35,1-1.94,1.61-1.22,1.26-2.35,2.62-3.46,3.97-1.1,1.36-2.23,2.7-3.3,4.09-.24.31-.48.62-.7.95-.22.32-.27.69-.51,1-.26.32-.52.63-.77.95-.27.34-.55.66-.73,1.06-.06.12-.09.25-.15.37-.07.17-.19.24-.29.37-.08.11-.08.22-.06.34.01.08.05.16.04.25-.01.13-.09.14.04.23.11.08.16.06.21-.06.08-.19.09-.41.16-.6.05-.14.13-.25.19-.38.08-.18-.13-.28,0-.44.02-.03.07-.07.1-.09.11-.06.17,0,.27-.02.2-.02.32-.36.42-.52.23-.37.45-.74.71-1.09.26-.35.45-.73.69-1.09.23-.35.51-.67.82-.96.33-.31.7-.59,1.1-.81.11-.06.27-.1.36-.2.11-.12.03-.27.16-.4.35-.35.76-.65,1.14-.97.16-.14.32-.27.49-.4.16-.13.41-.26.54-.43-.07-.02-.14.02-.21,0,0-.09.27-.06.33-.1,0-.07-.04-.11.02-.16.04-.03.11-.01.15-.04-.26-.22-.4.1-.59.21-.13.07-.24.1-.36.19-.12.1-.24.2-.36.3-.25.21-.5.42-.74.63-.26.22-.53.51-.82.69.16-.37.52-.72.79-1.02.31-.35.61-.69.91-1.04.28-.33.57-.67.83-1.01.09-.12.17-.27.29-.37.06-.04.11-.06.18-.07.05,0,.17.04.18-.04-.03-.04-.11-.06-.11-.12,0-.04.2-.22.22-.25.13-.15.26-.3.38-.45.11-.14.23-.29.3-.46.07-.17.07-.39.17-.54.05.05.04.13.09.18.12.02.31-.28.38-.36.15-.16.29-.33.44-.48.29-.31.6-.61.93-.89.32-.28.67-.52.98-.8.33-.3.67-.5,1.07-.7.8-.38,1.63-.68,2.43-1.05.42-.19.86-.31,1.3-.44.22-.07.45-.13.67-.2.19-.05.42-.13.62-.1,0,.11-.31.18-.39.22-.17.07-.34.15-.5.22-.33.15-.65.3-.97.45-.67.31-1.33.62-1.99.96-.6.31-1.2.64-1.78,1-.28.18-.55.38-.77.64-.09.1-.06.11-.04.23.02.14-.13.19-.12.31.22-.05.43-.25.63-.34.26-.13.47-.26.69-.45.42-.35.93-.64,1.42-.9.23-.12.48-.15.71-.26.29-.13.57-.29.86-.42.57-.26,1.15-.5,1.72-.74,1.15-.49,2.31-.95,3.51-1.27.27-.07.54-.14.81-.2.23-.06.42-.26.66-.25.05,0,.22,0,.25.05.05.08-.1.13-.15.16-.12.07-.2.13-.29.22-.09.09-.2.13-.32.19-.29.13-.54.27-.85.32-.14.02-.28.03-.42.08-.15.06-.27.16-.41.24-.26.15-.56.22-.84.32-.17.06-.33.12-.5.17-.15.04-.38.06-.49.16,0,.04,0,.07,0,.11-.16.08-.35.12-.52.18-.19.07-.38.14-.57.23-.38.17-.75.36-1.12.54-.35.17-.71.35-1.06.53-.19.09-.38.19-.56.28-.16.08-.38.16-.51.29.05.12,1.32-.38,1.48-.44.55-.2,1.08-.42,1.64-.6.53-.17,1.03-.43,1.52-.67.25-.12.49-.25.75-.35.13-.06.27-.11.41-.16.08-.03.25-.14.34-.1-.02.13-.41.34-.52.41-.22.14-.45.26-.67.39-.45.25-.87.54-1.28.84-.43.31-.85.63-1.28.95-.2.15-.39.31-.6.45-.08.05-.17.1-.23.17-.06.07-.12.16-.19.23-.7.76-1.4,1.52-2.11,2.27-.34.36-.68.7-1.06,1.02-.36.3-.73.55-1.06.88-.33.33-.63.7-.9,1.08-.13.18-.23.38-.37.54-.13.16-.29.26-.4.43-.22.33-.36.75-.66,1.03-.09.09-.2.13-.27.24-.11.15-.14.24-.32.31-.14.06-.29.18-.37.32-.05.09-.03.2-.06.29-.03.1-.09.19-.14.28-.06.1-.13.19-.18.29-.04.07-.06.16-.12.21-.05.04-.13.04-.18.08-.07.05-.12.13-.16.2-.26.38-.61.67-.87,1.04-.27.37-.47.8-.66,1.22-.23.5-.53.97-.77,1.47-.23.48-.39.99-.63,1.47-.26.5-.47,1.03-.65,1.56-.09.28-.17.56-.25.84-.03.12-.07.25-.1.37-.03.11-.05.35-.14.43-.19.01-.44-.14-.62-.21-.17-.06-.35-.12-.52-.18-.38-.13-.8-.23-1.15-.42-.32-.17-.59-.41-.85-.65-.1-.09-.18-.19-.29-.27-.06-.04-.12-.07-.19-.09-.05,0-.14.03-.17-.03.04-.02.07-.05.1-.08-.04-.09-.15-.15-.2-.23-.07-.1-.11-.18-.08-.3.06-.24.19-.3,0-.52.1,0,.18.06.25-.02.06-.05.06-.18.07-.25.02-.16.05-.31.18-.42.09-.08.09-.07.12-.19.03-.12.04-.17-.12-.17,0,.12-.16.18-.23.28-.11.15-.2.33-.29.49-.18.34-.26.69-.33,1.07-.04.17-.07.35-.13.52-.03.08-.05.15-.09.23-.04.08-.12.17-.14.25-.03.16.19.23.1.37-.09.16-.3.25-.36.42.09.09.29.03.39-.02.09-.05.16-.14.21-.22.06-.08.13-.17.17-.26.08-.17.02-.36.07-.52.1-.29.67.27.78.36.13.12.27.15.42.23.13.06.18.22.31.27.11-.13.23-.15.39-.1.22.07.44.15.65.22.4.14.8.27,1.19.42.24.09.21.2.17.42-.05.23-.09.46-.14.69-.04.17,0,.34-.08.5-.09.18-.09.4-.1.6-.03.44,0,.87-.05,1.3-.06.44-.13.88-.16,1.32-.03.45-.04.9-.09,1.35-.02.19-.04.38-.11.56-.02.06-.05.11-.06.18-.01.1.04.17.05.26-.11.05-.27.02-.39.02-.12,0-.25.01-.37-.02-.21-.06-.41-.25-.58-.38-.43-.33-.9-.62-1.36-.91-.37-.23-.85-.45-1.12-.81-.28-.37-.16-.89-.17-1.33,0-.27-.02-.54,0-.81,0-.23,0-.47.01-.7.01-.12.07-.13.12-.23.04-.07.02-.16.03-.24.01-.07.05-.14.05-.22,0-.11-.06-.19-.06-.31,0-.12.05-.25.07-.37.01-.1.02-.18.07-.27.06-.11.11-.13.09-.28-.01-.13-.03-.32-.08-.43-.08-.17-.25-.05-.29.09-.02.06,0,.14,0,.19-.03.1-.15.11-.21.2.03.08.11.1.14.17-.07.02-.13,0-.2,0,0,.14.14.25.15.38-.07.02-.15-.02-.21.03-.07.06-.05.22-.05.3-.02.25-.15.56-.09.81-.11.07-.09.12-.05.22.04.12.05.21.04.33-.02.19-.03.4-.12.56-.08.15,0,.4,0,.58,0,.28,0,.55.01.83,0,.24.02.48.05.72.03.25.12.49.11.74,0,.23.05.45.1.67.05.26.1.52.15.77.22,1.06.45,2.11.72,3.16.25.98.44,1.98.78,2.94.03.09.06.19.12.26.07.08.1.13.13.25.07.26.14.52.23.78.08.26.15.53.21.8.03.14.07.28.07.43,0,.07-.04.22.04.25-.09.09.11.37.15.47.13.27.26.54.38.81.21.46.43.91.56,1.39.07.24.16.42.31.62.17.21.29.45.44.67.3.49.64.96.98,1.42.34.46.64.92.95,1.4.3.48.64.93.97,1.39.15.2.3.41.49.57.21.18.41.35.6.55.38.4.76.8,1.16,1.19.23.22.46.44.73.62.23.16.48.29.69.46.23.19.46.31.74.41.12.04.24.08.35.13.11.05.28.18.41.15.01-.1-.08-.15-.08-.24,0-.09.08-.11.1-.19-.15-.08-.37-.07-.53-.13-.17-.06-.34-.14-.5-.23-.16-.09-.32-.17-.48-.27-.11-.07-.11-.05-.15-.17-.03-.1,0-.2-.13-.23-.07-.02-.15.04-.22.02-.07-.02-.1-.06-.13-.11-.11-.15-.17-.33-.28-.48-.28-.38-.61-.72-.9-1.09-.59-.75-1.16-1.5-1.73-2.26-.53-.7-1.07-1.36-1.5-2.12-.18-.32-.37-.65-.61-.93-.29-.34-.66-.59-.98-.89-.26-.24-.44-.48-.58-.81-.07-.16-.08-.34-.17-.49-.05-.08-.11-.14-.15-.23-.05-.11-.04-.22-.04-.34-.01-.43-.2-.88-.33-1.29-.14-.46-.29-.92-.44-1.38-.29-.91-.5-1.83-.78-2.74-.32-1.05-.55-2.12-.78-3.19-.11-.51-.22-1.02-.3-1.54-.04-.24-.07-.48-.1-.72-.01-.11-.03-.21-.04-.32-.02-.13-.07-.29-.04-.42.14-.01.35.12.48.19.18.1.35.22.52.34.36.24.71.47,1.07.7.34.21.68.41,1.03.62.27.16.65.32.74.65.05.18.04.38.05.57.01.18.03.37.04.55.03.41.07.83.1,1.24.03.42.07.84.1,1.25.02.19.03.38.05.56.03.2.03.44.1.63.07-.17.02-.4,0-.58-.02-.21-.04-.41-.06-.62-.04-.41-.07-.82-.08-1.23-.01-.41,0-.82-.03-1.23-.01-.19-.03-.38-.04-.57,0-.16-.03-.4.11-.52.15.03.25.29.4.29.07,0,.15-.09.23-.09.07,0,.17.06.21-.02.06-.12-.24-.39-.29-.46-.11-.13-.14-.27-.23-.4-.08-.11-.2-.23-.33-.28-.07-.02-.16,0-.22-.04-.07-.05,0-.16,0-.23.03-.14,0-.3.06-.44.06-.13.16-.16.28-.21-.03-.21.02-.43-.01-.64.05.02.1.05.15.07.04-.13-.22-.19-.19-.32.02-.09.11-.1.11-.22,0-.18-.1-.35-.08-.53.09-.06.25.19.35.21.31-.35-.55-.39-.21-.77.11,0,.17.1.27.11.03-.13-.03-.29-.05-.42-.02-.13-.04-.26-.05-.39-.02-.16-.16-.61.02-.71.15.03.17.28.21.39.06-.21.06-.41-.05-.59-.07-.12-.07-.13-.04-.27.03-.13.05-.25.08-.38.05-.26.12-.53.16-.8.02-.14.04-.27.06-.41.02-.13,0-.3.08-.41.13-.02.28.05.41.08.13.03.26.07.38.12.28.12.56.25.84.36.17.07,1.56.62,1.59.41-.07-.04-.62-.11-.57-.2.14-.02.29.04.43.06.16.02.32.04.49.07.26.04.68.1.87.29-.03.07-.1.07-.12.14.18.14.54.15.76.19.29.05.58.1.87.17.54.12,1.08.22,1.63.29.52.06,1.05.23,1.56.35.15.03,1.2.09.99.42.09.1.37.18.49.18.08,0-.01-.04.12-.01.08.02.18.06.24.12-.03.15-.24.15-.35.13-.16-.03-.33-.09-.49-.02.02.1.34.07.43.09.15.03.28.08.37.2.15.2.13.53.08.77-.03.13-.06.27-.06.41,0,.12.08.24.04.34-.02.05-.09.07-.11.14-.02.06,0,.11,0,.17.01.12.02.12.12.15-.14.22-.09.39-.09.64,0,.13-.01.13-.13.14-.11.01-.22,0-.32.02.11.11.24.15.31.29.07.14.06.3.04.45-.02.16-.02.27.07.4.04.07.09.12.08.21-.02.09-.11.14-.13.23-.05.16.04.35.06.5.03.21-.01.43,0,.65.02.42.04.85.08,1.28.02.2.09.39.15.58.03.09.09.17.12.26.03.07.01.12.02.2.03.21.09.41.11.61.02.2-.05.39-.04.59,0,.1.04.09.08.16.04.07,0,.15.02.23.02.21.17.3.25.47.03.08,0,.15,0,.24,0,.1.02.21.04.31.04.24.08.47.13.71.04.21.1.34.22.51.14.19.2.39.27.62.12.44.21.88.29,1.33.03.19.01.38.11.55.12.2.18.42.24.64.12.45.3.89.41,1.34.11.45.22.89.33,1.34.04.14.23.64.05.75-.09.05-.24-.03-.32.03-.12.09-.02.32.06.4.09.09.25.23.38.27.13.04.26-.06.39.02.1.07.12.21.16.31.08.22.17.43.24.65.03.1.1.23.11.34.01.1-.05.1-.06.18-.02.12.2.36.27.47.25.42.44.87.67,1.3.13.24.27.47.4.71.07.12.14.24.2.35.06.11.19.26.21.39-.13.04-.33-.02-.46-.03-.15-.02-.31-.06-.45-.04.17.14.52.11.73.17.3.08.47.25.63.5.18.28.42.51.62.78.21.26.39.5.67.68.3.2.63.38.94.57.15.09.3.18.42.31.11.12.21.25.33.37.27.26.6.47.89.7.07.05.13.12.2.16.05.03.11.02.14.06.06.07.14.39.14.47-.03.01-.07.02-.1.03.02.13.13.25.16.38.04.13.07.27.05.41-.04.29-.27.49-.55.55-.6.12-1.17-.27-1.67-.55-.53-.29-1.13-.44-1.62-.81-.12-.09-.24-.2-.34-.32-.11-.14-.17-.19-.34-.26-.17-.07-.34-.15-.5-.22-.16-.07-.41-.14-.54-.26.13-.11.36-.08.5-.17-.11-.06-.26-.05-.38-.07-.16-.03-.32-.08-.48-.12-.22-.05-.45-.04-.66-.1-.12-.03-.21-.1-.26-.21-.02-.03,0-.07-.03-.1-.04-.05-.16-.07-.22-.09-.26-.1-.62-.25-.79-.49-.07-.1-.1-.2-.2-.28-.12-.1-.27-.18-.4-.27-.27-.21-.51-.47-.76-.69-.05-.04-.08-.07-.15-.08-.05,0-.08.04-.13,0-.06-.03-.06-.15-.08-.2-.02-.04-.1-.25-.17-.25-.08,0,0,.19,0,.23-.24.1-.17-.26-.24-.35-.1.02-.21,0-.31.01.08-.05.21-.05.27-.12-.15-.18-.44-.23-.58-.42.04-.12.66.05.78.07.27.04.55.07.82.09.27.02.55.04.82.04.24,0,.6,0,.81-.13-.11-.09-.35-.05-.48-.05-.19,0-.37,0-.56-.02-.41-.04-.82-.11-1.23-.16-.39-.05-.78-.09-1.17-.17-.16-.03-.32-.08-.45-.17-.12-.08-.21-.23-.34-.29.02.11.11.2.11.32-.28.03-.55-.25-.84-.27-.16-.01-.3,0-.45-.04-.17-.05-.33-.11-.5-.16-.31-.1-.63-.21-.94-.32-.17-.06-.33-.11-.5-.17-.11-.04-.29-.12-.41-.07-.08.31.6.44.77.49.21.06.42.15.63.2.19.04.37.03.56.09.39.12.77.22,1.16.33.38.1.89.18,1.21.41-.05.04-.11.03-.16.07.1.16.31.29.45.41.15.12.31.23.47.34.33.22.56.5.87.74.29.22.47.52.76.74.13.1.26.19.39.3.05.04.1.09.16.11.05.01.17-.03.19.03-.03.02-.06.05-.08.09.1.18.4.31.57.42.22.14.46.27.72.33.26.06.47.16.7.27.11.05.22.09.32.13.12.05.29.08.4.16-.21.09-.5,0-.7.12.11.1.28.14.42.21.13.06.26.13.39.19.29.15.58.3.86.48.17.11.34.23.34.46,0,.18-.11.34-.28.4-.21.08-.46-.03-.66-.09-.3-.09-.59-.2-.87-.33-.55-.24-1.08-.54-1.62-.81-.93-.46-1.97-.84-2.66-1.65-.08-.09-.14-.21-.23-.28-.11-.1-.28-.15-.41-.22-.29-.15-.57-.32-.84-.51-.25-.18-.48-.38-.75-.53-.27-.16-.54-.28-.78-.48-.25-.21-.44-.46-.69-.66-.26-.21-.53-.42-.79-.63-.27-.22-.54-.46-.8-.7-.11-.11-.23-.22-.33-.34-.12-.13-.18-.25-.29-.06-.08-.05-.11-.16-.18-.23-.08-.09-.18-.13-.29-.17-.23-.1-.47-.3-.61-.52.06-.07.42.33.52.31,0-.09-.18-.18-.24-.23-.11-.09-.22-.18-.32-.28-.18-.17-.36-.34-.53-.52-.36-.37-.69-.76-1.01-1.16-.05-.07-.22-.2-.21-.29,0-.09.11-.11.09-.21-.03-.14-.24-.23-.22-.38,0-.08.15-.13.15-.2,0-.06-.1-.08-.14-.1-.11-.08-.34-.35-.23-.5.11.12.15.29.25.41,0-.24-.14-.52-.24-.73-.06-.12-.12-.24-.19-.36-.06-.1-.16-.22-.17-.34.17-.03.46.09.63.15.21.07.42.15.62.25.38.18.73.38,1.14.49.44.12.87.29,1.32.41.45.12.9.18,1.36.23.47.05.94.09,1.41.07.23,0,.45-.04.68-.06.11,0,.24.03.35,0,.1-.02.15-.1.25-.13.44-.14.98-.11,1.43-.08.23.02.46.05.68.08.24.03.54.13.77.1-.05-.11-.23-.12-.33-.14-.14-.03-.28-.07-.43-.09-.26-.04-.53-.03-.79-.04-.58-.01-1.15-.01-1.73.02-1.15.06-2.3-.05-3.43-.29-1.1-.24-2.15-.66-3.24-.93-.48-.12-.96-.25-1.37-.54-.19-.13-.23-.21-.29-.43-.05-.16-.19-.41-.38-.43,0,.16.15.33.21.48.06.17.07.36.11.54.11.41.34.81.53,1.19.19.37.38.74.57,1.11.05.1.11.2.16.3.04.09.1.24.16.31.09.1.25.05.35.17-.03.07-.11.12-.07.2.04.07.23.13.29.17.1.08.19.18.28.28.08.08.24.2.27.31-.03.02-.05.05-.07.08.03.1.14.18.2.27.06.1.1.21.18.3.16.21.39.35.58.52.42.38.77.82,1.2,1.19.47.4.95.79,1.44,1.17.47.37.99.71,1.42,1.13.43.43.84.89,1.29,1.31.44.41.93.75,1.41,1.11.48.35.96.72,1.49,1,.51.27,1.06.46,1.6.66.63.23,1.26.4,1.91.55.31.07.63.14.93.24.15.05.3.1.45.15.1.03.37.04.43.13-.02.03-.03.07-.03.11.15.09.44.14.61.16.03-.06-.29-.17-.33-.22.33-.13.72.24,1-.03-.08-.03-.3.02-.37-.06-.04-.05,0-.16.04-.19.11-.08.37.05.5.05.12,0,.18-.04.29-.08.09-.03.14-.02.23.01.19.06.39.09.55.21.07.05.13.12.2.15.09.04.2.03.29.03.49,0,.97-.02,1.45-.05.21-.01.43-.01.64-.03.25-.02.48-.06.73-.06.25,0,.51.03.76.03.23,0,.46-.03.68-.04.48-.02.95.05,1.42.06.21,0,.42-.05.63-.06.5-.02.88-.03,1.37-.11.22-.03.45-.02.67-.05.47-.06.93-.17,1.38-.29.4-.11.79-.25,1.21-.29.17-.02.29-.07.44-.15.2-.1.41-.14.63-.19.36-.08.73-.11,1.09-.19.05-.05.11-.09.19-.1.52-.12,1.07-.2,1.61-.31,0,0,0-.02.02-.03.21-.17.57-.14.82-.22.33-.12.62-.31.89-.53.17-.14.33-.3.49-.44.08-.07.16-.14.25-.2.08-.06.15-.1.2-.18.05-.08.13-.08.22-.1.11-.03.21-.08.31-.12.21-.1.44-.16.65-.25.4-.16.7-.48,1.11-.6.21-.07.41-.13.61-.23.21-.11.42-.2.64-.29.21-.09.42-.18.64-.25.22-.07.43-.13.63-.24.2-.11.38-.22.6-.29.2-.07.4-.12.58-.21.2-.09.36-.23.51-.37.13-.13.28-.36.47-.4.09-.02.19,0,.23-.11.04-.1.04-.16.16-.17.04,0,.09,0,.13-.02.05-.03.05-.08.08-.13.05-.09.15-.12.23-.17.21-.12.39-.29.57-.45.3-.25.63-.46.94-.7.36-.29.65-.64.98-.96.34-.34.68-.67,1.02-1.01.16-.16.34-.32.48-.5.04-.04.15-.17.18-.2.77-.64,3.8-6.31,3.97-6.55.35-.49.63-1.02.95-1.53.05-.07.2-.23.2-.33,0-.1-.06-.08.02-.2.18-.27.28-.58.4-.88.24-.62.45-1.28.78-1.86.07-.12.15-.22.15-.36,0-.14.02-.24.07-.37.06-.16.11-.33.17-.49.04-.12.12-.27.15-.4.02-.12-.04-.21-.04-.33,0-.12.04-.24.05-.36.04-.33.05-.67.1-1,.09-.67.2-1.33.28-2,.04-.3.07-.6.1-.9.02-.15.03-.3.05-.45.01-.14-.03-.27-.03-.41,0-.11.08-.18.11-.28.04-.13.02-.26,0-.38-.04-.31.03-.62.03-.93,0-.3-.02-.6.07-.89.04-.12.08-.19.02-.31ZM5.91,88.51c-.14-.12-.25-.21-.35-.31-.1-.11-.18-.23-.27-.34.2-.08.52.22.62.65ZM36.3,44.89c.02-.06.16-.12.23-.11.39.08.78.18,1.17.29.16.04.31.12.44.21.24.15.48.32.72.47.1.06.23.09.33.15.3.18.6.37.91.55.2.12.43.2.63.31.29.16.56.34.84.51.39.24.79.48,1.18.72.05.03.12.07.16.05.2-.09.3.08.43.16.01,0,.02.04.02.06-.01.1.02.14.1.15.11.02.23.02.31.08,1,.69,1.99,1.39,2.99,2.08.52.36,1.07.69,1.59,1.05.41.29.79.62,1.19.92.12.09.28.15.42.22.02,0,.05,0,.06,0,.07.31.42.33.58.55.17.21.38.38.59.56.09.08.24.11.32.2.25.31.48.64.73.95.13.16.28.29.43.43.03.03.09,0,.14.01,0-.05,0-.12-.02-.16-.24-.37-.47-.74-.73-1.09-.18-.24-.4-.47-.64-.65-.32-.24-.58-.53-.85-.82-.4-.41-.87-.74-1.3-1.12-.18-.16-.34-.35-.5-.52-.01-.01-.02-.03-.03-.03-.36-.02-.47-.38-.72-.55-.35-.25-.68-.51-1.05-.8,0,0-.03.05-.06.11-.06-.1-.12-.18-.18-.26-.05-.07-.09-.15-.15-.19-.33-.2-.67-.39-1.01-.58-.03-.02-.05-.06-.06-.12.05.02.11.05.18.08,0-.03,0-.06-.02-.06-.5-.22-.81-.69-1.26-.97-.56-.35-1.11-.73-1.66-1.1-.32-.21-.67-.4-.96-.65-.35-.31-.76-.52-1.14-.78-.08-.06-.13-.16-.21-.26-.14.07-.22-.03-.31-.15-.19-.25-.26-.59-.6-.71-.02,0-.03-.03-.04-.05,0-.02,0-.04-.02-.12.17.06.31.1.45.15.34.12.69.21.98.44.06.05.12.09.22-.02.06-.06.28.03.42.08.33.11.64.23.97.34.7.24,1.41.47,2.11.73.3.11.58.27.88.38.55.22,1.11.43,1.66.64.38.15.77.28,1.14.45.63.27,1.25.57,1.81.97.32.22.66.4.97.63.26.2.48.46.74.67.92.74,1.86,1.45,2.77,2.19.43.35.85.71,1.23,1.11.38.4.69.86,1.03,1.3.32.42.63.86.96,1.28.61.8,1.1,1.67,1.59,2.55.31.56.63,1.12.9,1.7.53,1.14,1.03,2.3,1.54,3.45.08.18.18.35.26.54.07.16.14.32.15.48,0,.08-.09.19-.16.24-.49.32-.99.64-1.49.94-.31.19-.64.34-.97.52-.14-.38-.26-.7-.37-1.02-.23-.64-.45-1.29-.69-1.93-.18-.51-.36-1.02-.57-1.51-.16-.38-.39-.74-.56-1.12-.18-.41-.39-.79-.69-1.13-.23-.27-.43-.56-.62-.85-.05-.07-.04-.18-.06-.28-.09-.33-.28-.58-.52-.82-.44-.45-.82-.96-1.15-1.5-.18-.3-.44-.52-.74-.72-.31-.2-.53-.53-.81-.83.11-.06.16-.08.29-.15-.31-.18-.57-.32-.82-.48-.08-.05-.13-.14-.19-.2-.06-.05-.12-.1-.21-.12.03.05.07.11.12.21-.13-.06-.22-.1-.36-.16.07-.04.14-.07.2-.1,0-.02,0-.05-.01-.07-.27-.09-.55-.17-.82-.26-.02.03-.03.05-.05.08.11.11.21.25.35.31.37.15.61.45.88.72.27.26.55.52.8.8.23.26.43.54.64.82.04.05.03.14.04.22.09.08.21.17.31.28.16.19.31.4.46.6.2.27.42.54.61.82.54.77,1.08,1.54,1.6,2.32.14.2.21.45.34.66.15.25.34.47.51.71,0,.01.02.02.03.04.13.41.26.82.4,1.22.14.42.31.83.43,1.26.17.64.31,1.3.46,1.95.03.13.08.26.12.38-.01.01-.02.04-.03.04-.43.07-.76.31-1.09.58-.51.43-1.13.68-1.74.93-.34.14-.66.34-1.03.47.19-.13.37-.26.62-.43-.14.02-.22.02-.29.04-.74.23-1.48.47-2.22.7-.48.14-.97.2-1.47.15-.46-.04-.85.12-1.21.38.2-.07.39-.15.59-.21.13-.04.26-.06.4-.06.14,0,.21.07.1.19-.15.17-.3.33-.46.49-.06.06-.11.13-.2.23.38-.12.7-.23,1.03-.32.29-.08.57-.18.87-.19.76-.05,1.4-.38,2.02-.76.02-.01.05-.02.1,0-.08.06-.16.13-.24.19,0,.02.01.05.02.07.12-.01.24-.01.35-.04.16-.04.32-.15.48-.16.56-.05,1.02-.32,1.51-.55.21-.1.44-.15.65-.23.28-.1.57-.21.84-.33.12-.05.21-.15.32-.2.1-.04.22-.05.34-.07.29.45.61,2.88.44,3.04.04.21.09.38.11.56.05.5.12,1.01.14,1.52.03.57.02,1.14.02,1.7,0,.31-.02.61-.04.92,0,.06-.08.14-.13.15-.61.18-1.22.35-1.83.51-.62.17-1.23.38-1.89.45-.51.06-1,.27-1.5.43-.45.15-.89.33-1.34.48-.14.04-.3,0-.46,0,0-.03,0-.05,0-.08.26-.14.53-.29.79-.43,0-.02-.01-.03-.02-.05-.42.17-.84.36-1.27.52-.43.15-.88.26-1.36.41.21.25.44.28.65.29.08.08.13.14.19.19.05-.06.09-.14.16-.18.16-.1.34-.18.51-.26.01.02.03.04.04.07-.07.05-.13.11-.2.16,0,.02.02.04.02.06.64-.21,1.27-.42,1.91-.63.01.03.02.05.04.08l-.49.3s0,.02.01.03c.04-.01.09-.02.13-.04.22-.09.44-.18.65-.27.03-.01.07-.02.08-.04.2-.41.63-.29.95-.4.42-.14.87-.19,1.31-.27.07-.01.14.03.21.05.03,0,.06.02.08.02.42-.09.87.02,1.28-.19.25-.13.51-.24.78-.34.18-.07.37-.1.59-.16-.06.32-.11.6-.16.87-.2,1.1-.38,2.22-.76,3.28-.06.17-.25.3-.39.43-.07.06-.15.11-.23.16l.03.06c.14-.06.28-.12.46-.19-.03.17-.04.31-.08.44-.02.05-.13.08-.2.08-.13,0-.21.02-.3.14-.12.15-.29.27-.45.39-.16.12-.32.23-.47.38.38-.05.77-.1,1.18-.16-.04.19-.07.41-.14.62-.27.78-.55,1.55-.83,2.32-.12.34-.26.68-.39,1.03-.04.1-.16.07-.24.16-.1.13-.31.18-.47.26-.17.08-.34.16-.52.23-.24.09-.49.17-.74.23-.3.07-.54.22-.8.39-.3.21-.68.31-.99.51-.74.48-1.59.67-2.41.91-.73.21-1.47.42-2.21.59-.56.13-1.13.21-1.69.31-.11.02-.22.05-.33.08.19.15.61.11.66-.04.29.17.59.12.9.08.24-.03.49-.07.73-.11.06,0,.11-.05.16-.07.06-.03.13-.08.18-.07.23.06.45.15.68.23,0,.02,0,.05-.01.07l-.15.05s0,.04,0,.05c.09.02.17.03.26.05,0,0,0,0,0,0,.04.1-.01.12-.1.12-.11,0-.22.03-.34.04,0,.02,0,.04,0,.06.09.05.19.09.28.14,0,.02,0,.04,0,.06-.21-.02-.42-.04-.64-.06,0,.02,0,.05-.01.07.06.03.12.07.24.13-.15.02-.26.03-.36.04,0,.01,0,.03-.01.04.06.02.12.05.24.09-.13.09-.23.17-.33.25-.13.11-.25.22-.39.33-.13.11-.27.21-.42.3-.04.02-.12-.03-.18-.04-.1.16-.18.34-.3.49-.44.54-.88,1.08-1.34,1.6-.19.21-.42.41-.67.52-.41.19-.81.44-1.3.43-.24,0-.48.03-.72.07-.18.03-.35.1-.52.15-.2.06-.41.11-.63.16,0-.09.01-.15.02-.19-.13.05-.25.1-.37.13-.02,0-.06-.08-.08-.13.14-.07.18-.28.39-.26.07,0,.18-.08.21-.15.1-.24.22-.46.4-.65.03-.03.03-.09.04-.15.02,0,.08,0,.18.01-.07-.06-.11-.1-.16-.14.11-.08.21-.16.32-.22.12-.08.11-.15.04-.2.06-.06.1-.13.16-.18.14-.1.28-.22.43-.28.17-.07.2-.2.25-.35.08-.22.19-.43.29-.63.01-.02.09-.01.1-.06.08-.09.18-.18.25-.28.12-.15.23-.31.33-.47.11-.19.21-.4.32-.59.05-.08.12-.14.19-.23-.04-.15.06-.39.23-.51.12-.08.24-.34.25-.48,0-.04.07-.11.12-.12.16-.04.33-.05.49-.08.26-.03.28-.07.19-.41.01.23-.03.3-.21.22-.12-.05-.28,0-.46,0,.07-.27.12-.52.2-.77.06-.22.13-.44.22-.65.12-.29.27-.57.4-.86.14-.34.26-.69.4-1.03.05-.11.14-.21.21-.31.06-.08.11-.16.15-.21-.02-.07-.06-.12-.05-.17,0-.05.06-.08.08-.13.04-.12.22-.22.06-.4-.04-.04.03-.18.08-.27-.04-.14-.09-.27.03-.43.06-.08.04-.21.06-.32.08-.38.18-.76.23-1.14.07-.57.09-1.15.14-1.73.01-.15-.04-.32.13-.44.03-.03-.03-.18-.05-.28.05,0,.1.02.13.02.01-.12,0-.26.05-.33.04-.05.2,0,.3,0-.07-.37-.15-.79-.2-1.2-.02-.18.05-.36.05-.54,0-.19-.02-.38-.06-.56-.05-.2-.07-.38-.03-.6.06-.34.05-.75-.09-1.05-.27-.58-.35-1.19-.48-1.79-.03-.15-.1-.3-.12-.45-.02-.15,0-.3-.03-.45-.11-.5-.24-.99-.34-1.49-.13-.67-.24-1.35-.37-2.02-.13-.69-.25-1.38-.39-2.07-.11-.53-.26-1.05-.39-1.57-.15-.6-.27-1.21-.43-1.81-.06-.24-.19-.47-.28-.7-.18-.47-.35-.93-.52-1.4-.21-.59-.4-1.19-.61-1.78-.08-.22-.2-.43-.3-.65,0-.01-.02-.03-.02-.04.15-.39-.3-.61-.28-.96,0-.03-.07-.06-.12-.1.02-.06.05-.13.08-.22-.09-.02-.16-.04-.24-.05.02-.1.04-.2.06-.29-.11.02-.26.09-.28.06-.06-.09-.09-.21-.09-.32,0-.11.05-.23.08-.38-.08-.02-.21-.1-.28-.07-.08.03-.1.18-.17.3.01,0-.04,0-.05-.01-.06-.16-.11-.32-.16-.49,0-.02,0-.04-.02-.05-.2-.21-.15-.51-.26-.75-.11-.25-.26-.49-.4-.73-.02-.03-.04-.06-.09-.14.4-.09.78-.18,1.15-.25.52-.1,1.05-.12,1.56-.34.48-.21,1-.33,1.5-.51-.55-.05-1.09-.04-1.63.09-.57.14-1.15.27-1.73.39-.28.06-.57.08-.86.11-.06,0-.14-.05-.18-.1-.13-.15-.25-.31-.35-.47-.12-.19-.22-.38-.32-.58-.05-.1-.07-.23-.14-.31-.28-.33-.52-.69-.72-1.08-.13-.26-.36-.48-.56-.71-.16-.19-.35-.35-.51-.54-.2-.24-.4-.49-.58-.75-.19-.26-.34-.57-.56-.8-.62-.62-1.01-1.41-1.61-2.05-.2-.21-.35-.48-.49-.73-.05-.08-.04-.23,0-.32ZM58.73,66.21c-.31.2-.64.42-.96.63.11-.37.68-.73.96-.63ZM41.14,94.14c-.3.04-.59.15-.88.24-.04.01-.04.1-.09.22-.53.05-1.13.11-1.73.17,0,.02,0,.04,0,.06.13.02.26.05.39.07,0,.02,0,.04,0,.06-.47.04-.93.1-1.4.13-1.14.08-2.27.16-3.41.2-.57.02-1.14-.06-1.79-.1.16-.25-.12-.5.18-.67-.27-.09-.29-.33-.33-.55-.11-.58-.16-1.17-.32-1.74-.16-.55-.09-1.08-.04-1.62.02-.16.08-.2.23-.2.56.02,1.12.04,1.69.04.36,0,.72-.04,1.07-.05.72-.03,1.44-.05,2.17-.08.13,0,.25-.03.37-.06.63-.14,1.25-.27,1.87-.36.08.05.16.12.25.13.22.04.44.09.66.07.21-.02.4-.12.61-.17.08-.02.16,0,.23,0,.08-.03.14-.09.21-.09.31-.02.63-.03.95-.04.33-.01.44-.1.55-.41.02-.05.09-.1.14-.1.68-.09,1.35-.23,2.04-.16.19.02.38-.03.65-.06-.3.54-.56,1.02-.84,1.52-.06-.05-.09-.08-.17-.15-.55.73-1.09,1.45-1.66,2.21.12-.01.17-.02.22-.02l.03.06c-.1.04-.2.07-.3.13-.09.05-.17.13-.26.19.01.02.02.04.04.06.08-.01.15-.02.23-.04l.02.03c-.06.03-.12.1-.17.09-.24-.05-.36.12-.51.26.04.05.09.1.16.18-.45-.17-.56.22-.77.43-.08.07-.12.11-.24.13ZM41.29,95.06c-.12.07-.24.15-.38.24.01-.17.27-.36.38-.32,0,0,0,.05,0,.09ZM45.17,88.72c.1.04.15.06.22.08-.02.04-.02.07-.04.09-.17.14-.33.05-.49,0,0-.03,0-.06,0-.09.13.02.25.05.39.08-.02-.04-.05-.08-.09-.16ZM33.65,45.73c.48.9.68,1.9,1.05,2.84.19.48.41.99.73,1.38.38.45.58.98.86,1.48.1.17.22.32.48.33-.09-.28-.18-.55-.27-.82l.06-.02c.05.07.1.13.15.2.01,0,.02-.01.03-.02-.04-.12-.06-.25-.12-.35-.2-.33-.3-.72-.59-1.01-.23-.23-.32-.54-.42-.86-.34-1.13-.73-2.25-1.12-3.36-.14-.38-.31-.75-.61-1.06-.11-.11-.11-.33-.17-.52.28-.06.5.04.67.21.15.15.26.34.39.5.43.51.86,1.01,1.28,1.52.39.47.77.95,1.15,1.42.18.22.35.45.52.68.13.17.25.35.37.52.32.48.63.96.96,1.43.25.36.54.69.79,1.05.35.52.68,1.07,1.02,1.6.13.21.29.4.44.6-.15.12.04.25.1.31.27.3.41.66.57,1.01.17.35.34.7.51,1.04.16.33.32.66.49.98.11.21.26.4.37.61.19.38.36.78.54,1.17.14.28.29.56.43.84.18.35.37.7.52,1.07.14.35.2.75.37,1.09.27.52.4,1.08.57,1.63.3.95.51,1.93.76,2.9.12.49.24.97.34,1.46.09.47.15.94.24,1.41.04.22.16.44.16.66,0,.68.27,1.3.37,1.96.14.93.33,1.84.49,2.77.04.22.02.45.04.67.03.42.09.85.08,1.27-.02.85-.09,1.69-.13,2.54-.05,1.28-.49,2.5-.64,3.76-.04.35-.11.69-.18,1.03-.04.17-.09.33-.16.49-.03.06-.12.11-.18.12-1.3.09-2.6.18-3.9.27-.51.04-1.03.08-1.54.14-.28.03-.56.1-.84.13-.91.11-1.81.21-2.72.31-.28.03-.55.09-.82.13-.74.13-1.47.35-2.23.32-.19,0-.38.14-.58.16-.47.05-.95.09-1.43.11-.35.01-.7-.03-1.05-.04-.1,0-.21.03-.32.05.3.49.73.68,1.29.65.28-.01.52,0,.65-.31.02-.06.18-.07.28-.07.43,0,.86.05,1.29.03.76-.04,1.52-.12,2.27-.2.33-.03.66-.12.99-.16.3-.04.61-.06.91-.09.05,0,.11,0,.15-.01.45-.15.9-.27,1.38-.24.11,0,.22-.08.33-.1.36-.08.71-.16,1.07-.22.15-.02.31.02.48.04-.03.03-.05.06-.08.09l.03.04c.1-.06.21-.11.31-.17.03-.01.07-.02.1-.02.36.1.7.03,1.06-.02.58-.09,1.17-.11,1.76-.16.39-.03.78-.07,1.21-.11-.12.37-.22.69-.33,1.01-.15.43-.32.85-.49,1.28-.06.17-.13.33-.19.5-.07.17-.17.3-.39.32-.42.03-.83.09-1.24.13-.23.02-.47.02-.71.07-.11.02-.21.11-.34.13l.09-.07s-.01-.03-.02-.04c-.16.06-.31.14-.47.16-.15.02-.32-.04-.47-.06,0,.03,0,.05-.01.08.22.02.44.07.66.05.64-.06,1.28-.15,1.92-.23.24-.03.48-.07.77-.12-.1.16-.18.28-.26.4,0,0,0,0,0,0,0,0,0,0,0,0,0,0,0,0,0,0,0,0,0,0,0,0h0c-.1.16-.39.23-.61.16-.04.06-.08.12-.13.22-.11-.28-.3-.13-.44-.12-.35.03-.7.09-1.04.15-.12.02-.25.05-.37.08,0,0,0,.07,0,.11-.24,0-.48,0-.73,0-.05,0-.11,0-.16,0-.57.09-1.14.08-1.71.14-.52.05-1.04.11-1.53.27-.21.07-.42.14-.64.2-.24.07-.47.14-.72.18-.19.03-.39.05-.58.04-.95-.06-1.88.04-2.82.16-.57.07-1.15,0-1.73-.01-.16,0-.32,0-.47-.03-.06-.01-.15-.09-.16-.14-.07-.41-.12-.83-.17-1.25-.08-.64-.16-1.27-.23-1.91-.02-.21-.05-.44-.01-.65.03-.15.16-.29.24-.43,0,0-.07-.05-.13-.1.02,0,.04,0,.06-.01,0-.18.05-.42-.04-.52-.16-.17-.06-.27,0-.43-.07-.03-.14-.07-.17-.08-.03-.12-.05-.2-.07-.29-.02-.13-.05-.25-.06-.38-.03-.38-.09-.77-.08-1.16.02-.56.09-1.12.16-1.68.03-.22.13-.43.18-.65.06-.27.1-.55.14-.83.05-.34.11-.68.13-1.03.01-.19-.09-.38-.06-.57.04-.27-.13-.56.09-.83.08-.1.02-.23-.15-.26.03-.18.09-.33-.01-.53-.08-.14.02-.37.01-.56,0-.21-.06-.42-.06-.63,0-.24.02-.47.02-.71,0-.37,0-.75,0-1.12,0-.04-.03-.09-.02-.13.04-.23.07-.46.05-.69-.07-.1-.09-.23-.07-.35,0-.02,0-.04-.02-.07-.01-.04,0-.09,0-.15.03,0,.06.01.09.02.07-.09.17-.15.32-.15.59,0,1.17-.01,1.76-.03,0-.02,0-.03,0-.05h.55s0,.02,0,.03c.23,0,.46-.02.68-.03,0,0-.01,0-.02,0,0-.03,0-.07,0-.1.25-.03.51-.06.76-.1.33-.05.65-.1.98-.15.43-.07.85-.15,1.28-.21.5-.07,1-.15,1.51-.19.49-.03.98-.05,1.47,0,.19.02.37.1.55.18.59-.08,1.18-.16,1.78-.24.24-.09.49-.17.75-.09.28-.03.56-.06.84-.08,0,0,0,0,.01-.01.03-.04.09-.04.13-.07.08-.07.14-.17.23-.22.1-.06.22-.11.33-.14.11-.03.23-.02.35-.02.05,0,.11,0,.14.04.21.21.48.22.73.15.13-.04.28-.22.29-.34.02-.22-.22-.37-.44-.35-.12.02-.25.04-.37.06.03.02.07.05.11.08,0,.02-.01.03-.02.05-.13-.05-.26-.11-.39-.16-.07-.02-.14-.04-.21-.03-.3.02-.61.04-.91.08-.29.03-.58.02-.84.18-.04.03-.1.04-.15.05-.27.06-.54.11-.8.18-.54.14-1.1.19-1.65.13-.41-.05-.82-.02-1.22.02-.32.03-.64.14-.97.17-.99.11-1.97.21-2.96.29-.27.02-.55-.02-.82,0-.22.02-.44.11-.66.12-.4.02-.8,0-1.2.02-.45.02-.89.06-1.31.26-.21.1-.5.15-.71-.07-.05-.06-.09-.14-.11-.22-.05-.22-.09-.45-.12-.68-.08-.52-.17-1.04-.22-1.56-.03-.34.08-.69.03-1.02-.06-.36,0-.71-.02-1.06-.02-.28-.06-.56-.08-.83,0-.09.02-.19.03-.29.08-.69.18-1.37.25-2.06.04-.42.06-.85.08-1.28.02-.31.03-.62.03-.93,0-.18.09-.24.25-.22.38.04.75.09,1.13.13.07,0,.15,0,.22,0,.1,0,.2,0,.33,0,.08-.18.23-.27.48-.25.83.06,1.66.11,2.49.16.22.01.44-.03.65.02.43.1.86-.02,1.29-.02.39,0,.77-.1,1.16-.12.43-.03.86-.03,1.29-.04.44-.01.89.05,1.33-.1.25-.08.5-.12.76-.17.17-.04.35-.06.52-.12.06-.02.15-.15.13-.18-.05-.09,0-.3-.23-.24-.43.1-.87.2-1.3.28-.37.07-.74.1-1.11.15-.02,0-.06-.01-.07,0-.23.25-.52.05-.77.11-.26.06-.54.06-.81.06-.63,0-1.27-.02-1.9-.02-.68,0-1.35.04-2.03.02-.48-.01-.95-.1-1.43-.13-.33-.02-.67,0-1.01,0-.37,0-.75,0-1.12-.06-.09-.01-.19-.2-.22-.32-.07-.31-.11-.63-.15-.94-.05-.43-.12-.86-.13-1.29,0-.42.04-.84.08-1.26.04-.44.1-.89.15-1.33.02-.16.07-.25.27-.26.46-.02.91-.09,1.37-.13.14-.01.29.02.43.04.04,0,.07,0,.11,0,.55-.08,1.1-.16,1.65-.23.42-.06.85-.11,1.27-.16.12-.01.25,0,.38-.02.3-.05.59-.12.89-.18.16-.03.32-.07.48-.09.47-.07.94-.13,1.4-.21.08-.01.15-.09.22-.13-.11-.27-.24-.36-.5-.35-.99.05-1.97.19-2.95.43-.34.08-.71.06-1.07.08-.22.01-.43.03-.65.05-.28.02-.57.04-.85.06-.67.04-1.34.08-2.02.11-.29.01-.32-.04-.35-.32-.03-.26-.09-.51-.13-.76-.07-.43-.13-.85-.19-1.28-.04-.28-.07-.56-.1-.84-.02-.2-.03-.4-.01-.6.03-.34.07-.69.11-1.03.06-.45.11-.91.19-1.36.09-.51.21-1.02.3-1.53.12-.71.21-1.42.31-2.13.02-.12.03-.24.05-.37.24,0,.48,0,.71,0,.03,0,.07.03.09.06.32.53.65,1.06.94,1.6ZM29.63,37.32c.14-.34.26-.69.45-1,.13-.22.33-.4.54-.55.4-.29.86-.26,1.33-.2.23.03.43.08.62.21.32.24.34.58.36.92,0,.14,0,.28,0,.43h.01c-.04.51-.09,1.02-.1,1.52-.01.41.01.82.04,1.22.02.31.1.62.12.94.02.24-.22.28-.37.35-.15.07-.36.05-.53.03-.23-.04-.45-.15-.69-.18-.18-.02-.37,0-.54.05-.26.07-.34.06-.48-.17-.26-.43-.56-.84-.74-1.29-.3-.74-.36-1.51-.03-2.28ZM17.55,50.55c.22-.24.37-.55.61-.77.39-.35.83-.65,1.25-.98.15-.12.28-.28.43-.41.44-.36.88-.7,1.32-1.05.41-.32.8-.65,1.23-.94.31-.21.65-.35.98-.53.42-.23.84-.46,1.26-.68.05-.03.12-.07.17-.06.3.07.53-.14.78-.22.08-.03.17-.03.25-.06.13-.05.25-.12.38-.17.14-.05.28-.08.42-.13.14-.05.28-.14.42-.18.27-.07.55-.12.83-.18.01.02.03.05.04.07-.07.1-.14.2-.21.3-.41.61-1.04,1-1.54,1.52-.64.66-1.33,1.29-1.95,1.98-.6.66-1.15,1.37-1.7,2.08-.3.39-.56.81-.84,1.21-.35.51-.72,1.02-1.06,1.53-.14.2-.28.41-.38.64-.08.19-.2.2-.36.15-.34-.09-.67-.19-1.01-.28-.66-.19-1.33-.39-1.99-.58-.4-.12-.81-.23-1.23-.35.65-.65,1.28-1.28,1.89-1.92ZM16.98,61.89c-.07.67-.15,1.34-.19,2.02-.02.32.09.65.1.97.01.25-.05.51-.05.76,0,.29.04.59.05.88,0,.25,0,.51,0,.76,0,.17.02.34.02.46-.05.13-.1.22-.1.31,0,.12.04.25.04.37,0,.06-.06.11-.08.15.03.22.05.44.08.68-.13.12-.28.15-.46-.04,0,.03-.02.06-.02.09.07.06.14.12.24.2-.09-.03-.14-.07-.2-.07-.09,0-.17.02-.26.03-.14.02-.28.07-.41.05-.7-.11-1.4-.24-2.1-.36-.6-.11-1.2-.21-1.8-.33-.45-.09-.91-.2-1.37-.31.05-.06.1-.12.14-.18.07.02.15.04.29.08-.03-.03-.06-.05-.09-.07-.24-.05-.47-.11-.72-.15-.61-.11-1.24-.15-1.82-.39-.06-.02-.11-.06-.16-.1-.03,0-.06-.01-.09-.02-.12-.03-.25-.11-.34-.08-.35.12-.58-.14-.87-.24-.25-.08-.5-.14-.75-.21-.03,0-.05-.02-.1-.05.12-.36.26-.7.33-1.06.12-.63.38-1.2.66-1.76.14-.27.32-.52.46-.79.13-.25.25-.51.37-.77.19-.41.39-.83.57-1.25.06-.15.07-.32.14-.47.08-.17.19-.32.3-.48.03-.05.06-.09.1-.13.01-.02.02-.04.03-.07.05-.08.1-.16.16-.23.04-.05.1-.1.15-.15.02-.05.09-.12.14-.16.21-.17.33-.4.48-.62.19-.28.46-.51.69-.76.19,0,.31.25.5.07.13.24.56.11.61.51.02.15.23.27.43.29.75.08,1.5.15,2.25.24.46.06.92.15,1.38.23.31.06.62.13.93.18.2.03.37.23.33.43-.06.28-.05.54.03.82.06.21-.02.45-.05.68ZM11.75,58.91c.12-.08,1.22.14,1.47.29-.2,0-.48.04-.74-.01-.26-.05-.49-.19-.73-.28ZM17.34,59.28c-.23-.02-.44-.04-.65-.07-.55-.06-1.1-.1-1.65-.18-.46-.07-.91-.16-1.36-.28-.62-.16-1.24-.18-1.87-.15-.1,0-.22-.04-.31-.09-.25-.14-.5-.29-.79-.46.16-.2.28-.35.4-.5.32-.39.63-.79.96-1.18.23-.28.48-.54.69-.82.39-.51.76-1.05,1.16-1.56.21-.27.49-.49.74-.72.06-.06.13-.12.2-.18.05-.1.12-.18.22-.25.07-.05.15-.06.23-.05,0-.01,0-.02,0-.03.1,0,.2-.03.28,0,.43.17.89.3,1.27.56.21.14.34.21.59.21.27,0,.54.17.82.24.28.07.57.1.85.16.24.05.48.13.72.2.02.03.04.06.06.09-.15.12-.33.22-.44.37-.21.28-.39.58-.57.88-.19.31-.37.62-.55.94-.11.2-.2.4-.29.6-.15.35-.31.69-.45,1.04-.08.2-.05.41-.22.61-.1.12-.02.38-.02.62ZM17.72,67.68s-.08-.01-.09-.01c-.02-.27-.11-.56-.03-.8.1-.3-.04-.56,0-.84.02-.14-.05-.3.05-.44.02-.03-.05-.13-.03-.2,0-.12,0-.24,0-.36-.02-.22-.08-.44.04-.61-.03-.19-.06-.35-.07-.51-.02-.34-.08-.68-.03-1.01.06-.44.2-.87.31-1.3.05-.21.07-.44.15-.64.12-.31.15-.61.12-.93-.05-.7.05-1.38.32-2.03.19-.46.38-.93.6-1.38.18-.35.42-.67.63-1.01.16-.27.33-.53.45-.81.14-.33.3-.47.65-.44.74.06,1.47.15,2.21.19.48.03.97,0,1.45.03-.21.19-.47-.01-.71.11.33.14.67.08.96.02.46-.1.91-.02,1.36-.02.34,0,.68.03,1.02.04.04,0,.08,0,.12-.02,0-.03,0-.05,0-.08l-1.16-.1s0-.04-.01-.06c.31-.06.63-.13.94-.19.27-.05.54-.12.81-.16.18-.03.37-.04.55-.07.12-.01.26,0,.2-.19.22-.05.44-.08.66-.15.06-.02.1-.14.12-.23,0-.02-.11-.1-.17-.1-.53.01-1.06.01-1.58.07-.55.07-1.09.22-1.64.3-.43.06-.86.07-1.3.08-.46.01-.92-.02-1.38.02-.37.03-.72.14-1.09.21-.11.02-.22.02-.34.01-.36-.02-.71-.05-1.07-.07-.02-.03-.04-.06-.06-.1.1-.07.23-.12.29-.21.23-.35.43-.74.67-1.08.5-.72,1.02-1.42,1.54-2.12.05-.07.15-.11.2-.15.05-.11.07-.22.13-.3.36-.46.73-.91,1.1-1.36.61-.72,1.22-1.45,1.84-2.15.17-.19.4-.34.6-.5.04-.03.09-.06.13-.09.4-.37.81-.74,1.21-1.12.19-.18.35-.4.55-.58.06-.06.2-.03.3-.05.01.03.02.06.03.09-.27.24-.54.49-.81.73.03.02.06.03.05.02-.22.19-.46.37-.67.58-.57.56-1.13,1.14-1.69,1.71-.03.03-.06.07-.09.11.02.02.04.04.06.05.07-.06.13-.12.2-.18.34-.31.68-.62,1.02-.93.26-.24.5-.5.77-.73.18-.16.4-.29.59-.44.31-.24.64-.47.9-.76.15-.16.28-.18.46-.2.11-.01.21-.08.32-.09.14-.01.29,0,.42.03.04.01.08.15.07.22-.05.31-.11.63-.17.94,0,.03,0,.06-.01.08-.06.63-.12,1.27-.18,1.9-.04.43-.09.86-.14,1.28,0,.08-.03.16-.05.25.02,0,.05,0,.09.02.07.1-.22.23-.02.29,0,.11-.01.19-.02.28-.02.12-.04.24-.05.36,0,.09.02.19,0,.28-.11.44.03.86.1,1.29.04.24.03.5.05.75,0,.09.04.19.05.28.03.32.05.63.07.95,0,.04-.01.11.01.13.2.16.08.41.18.6.02.03,0,.11-.01.12-.11.07-.11.15-.08.27.03.13-.04.19-.18.18-.46-.01-.93-.02-1.39-.02-.41,0-.83-.01-1.24-.01-.1,0-.2.02-.29.03v.07c.07,0,.14.02.21.02.88.03,1.76.05,2.63.07.13,0,.25.02.23.19-.03.37-.07.74-.1,1.11-.01.21.02.43,0,.64-.01.18-.06.35-.09.51,0,.17,0,.32,0,.47,0,.12.02.24.03.36.04.5.07,1.01.11,1.51.02.21.04.42.07.63.04.34.03.36-.31.38-.04,0-.08.01-.13.02.02.03.02.05.03.05q.44.03.42.47c-.03.68-.05,1.36-.1,2.04-.03.34-.13.68-.19,1.02-.03.16,0,.33-.02.49-.03.35-.08.7-.11,1.05,0,.12.04.25.05.38,0,.1,0,.21-.02.32-.09,1.57,0,3.14.17,4.75-.84,0-1.64,0-2.45,0-.4,0-.82.02-1.21-.08-.25-.06-.5-.11-.75-.13-.58.01-1.16,0-1.74-.08-.53-.07-1.04-.23-1.57-.34-.11-.02-.22-.05-.33-.07-.72-.1-1.43-.23-2.15-.31-.45-.05-.91-.06-1.36-.02-.33.03-.63,0-.92-.14-.04-.02-.09-.06-.1-.1-.06-.28-.11-.56-.14-.85,0-.07.06-.14.09-.23-.34-.33-.15-.75-.13-1.17ZM20.62,88.41c-.11-.35-.19-.72-.29-1.07-.13-.41-.26-.82-.41-1.23-.03-.08-.13-.14-.2-.2.03-.15.13-.35.07-.47-.13-.25-.14-.46-.02-.69.01-.02-.01-.07-.03-.1-.31-.55-.5-1.15-.63-1.77-.05-.26-.19-.5-.27-.76-.11-.39-.21-.78-.31-1.17-.05-.2-.11-.39-.15-.59-.01-.07.03-.16.06-.23.05-.14.02-.24-.17-.27.21-.18.17-.35.1-.54-.02-.09-.04-.18-.05-.28-.03-.16-.1-.3-.04-.48.03-.1-.07-.25-.11-.37-.03-.1-.07-.2-.09-.3,0-.05.04-.11.08-.21-.02-.02-.07-.08-.12-.14.02,0,.04,0,.06,0v-.51c0-.09-.24-.13-.03-.26,0,0,0-.02,0-.02-.24-.23,0-.53-.11-.79-.05-.13-.03-.29-.05-.43,0-.09-.02-.18-.04-.29,0,0,.05-.02.06-.02-.03-.36-.05-.71-.08-1.06-.02-.21-.07-.41-.1-.61,0-.03-.01-.06-.01-.09,0-.27-.01-.54,0-.81,0-.12.01-.27.08-.34.12-.12.08-.21.04-.33-.02-.06,0-.13,0-.19,0-.14-.01-.28-.01-.42,0-.05.01-.15.03-.15.26-.03.17-.25.25-.42-.1.01-.17.02-.26.03.07-.08.13-.15.2-.22-.08-.03-.15-.07-.25-.11.03-.03.05-.05.06-.08.02-.36.24-.21.41-.15.55.2,1.09.4,1.64.59.17.06.35.06.53.1.24.05.47.11.71.15.2.03.41.02.6.06.7.15,1.42.1,2.13.19.17.02.34.07.52.09.14.02.28,0,.41.02.4.05.79.11,1.18.16.2.03.41.02.6.06.13.03.25.11.37.17.05.03.11.07.16.07.26,0,.55.07.78-.01.69-.26,1.37.02,2.05-.03.07,0,.15,0,.22,0,.32-.01.41.06.42.37.03.71.04,1.42.06,2.12.02.91.04,1.81.05,2.72,0,.22-.02.45-.02.67,0,.43.04.86.02,1.29-.02.43-.08.87-.12,1.3-.02.24-.03.48-.05.72,0,.09-.03.17-.03.26,0,.49-.01.98-.02,1.47,0,.1,0,.21,0,.31.09.58.19,1.16.27,1.75.05.36.08.71.05,1.08-.04.49.06,1,.11,1.5.05.43.12.86.16,1.29.03.27.02.54.05.82.01.14.05.27.07.42-.05.01-.09.01-.12.03-.21.07-.44-.11-.67.08-.1.08-.34-.04-.52-.05-.74-.02-1.48-.02-2.22-.03-.29,0-.58-.01-.87-.04-.8-.08-1.6-.03-2.39-.21-.21-.05-.45,0-.67-.02-.73-.09-1.45-.19-2.17-.28-.06,0-.11,0-.19.01.02-.05.02-.08.03-.11-.07,0-.13.01-.19.02-.03-.07-.04-.18-.08-.19-.4-.11-.43-.46-.52-.77ZM24.08,94.39c-.2-.04-.29-.18-.39-.36-.13-.25-.35-.45-.51-.68-.44-.63-.89-1.26-1.31-1.92-.26-.41-.47-.87-.7-1.3-.02-.04-.03-.09-.04-.13-.04-.16-.08-.32-.13-.5.32.07.67.17,1.03.23.58.11,1.17.2,1.76.28.47.07.94.12,1.41.15.87.06,1.73.13,2.6.15.99.03,1.99,0,2.98.01.34,0,.36.04.35.37-.01.21,0,.41-.01.62-.02.41-.06.83-.05,1.24.02.34-.04.68.12,1.03.14.29.15.65.21.98.04.21-.04.43.11.62.02.03-.01.1-.03.2-.61-.07-1.19-.14-1.78-.19-.84-.07-1.67-.12-2.51-.2-.25-.02-.5-.12-.75-.18-.04,0-.07-.02-.11-.02-.78.02-1.51-.27-2.26-.42ZM33.44,99.3c.09.19.07.49-.16.59-1.02.45-2.19.12-3.26.13-.59,0-1.28.19-1.84-.06-.49-.22-.75-.73-.89-1.23-.03-.04-.06-.09-.09-.13.01-.02.03-.03.04-.05,0,0,0,0,0-.01-.04,0-.09-.02-.15-.03.02-.07.04-.13.06-.18-.01-.02-.02-.04-.03-.04-.11,0-.16-.08-.23-.14-.18-.15-.28-.35-.43-.52-.58-.64-1.17-1.27-1.74-1.91-.09-.1-.1-.26-.17-.37-.11-.17-.24-.31-.38-.49.42.11.81.23,1.21.31.18.04.37-.01.55,0,.3.04.59.14.89.13.26,0,.45.22.74.12.16-.05.4.01.6-.01.06,0,.14.05.2.09.17.11.33.16.51.03.03-.02.1,0,.15,0,.55.01,1.1.14,1.64-.09.05-.02.17.02.21.07.11.15.25.15.41.14.11,0,.28.1.34.06.18-.14.16,0,.2.09.02.05.06.08.1.12-.04.04-.07.09-.13.15.43.1.37.51.47.79.11.29.18.6.34.87.2.36.37.74.59,1.09.09.15.26.25.39.37.02.02.04.04.08.09-.08,0-.15,0-.21,0,0,0,0,0,0,.01ZM36.66,98.37s-.09.09-.14.13c-.59.46-1.32.73-1.86,1.26-.2.2-.53.15-.68-.09-.17-.29-.28-.61-.47-.88-.06-.09-.07-.2-.05-.31-.11-.22-.23-.43-.34-.66.05-.03.11-.06.15-.08-.03-.22-.35-.29-.18-.55q-.22-.16-.11-.27c-.12-.18-.25-.37-.38-.56.07-.01.13-.02.26-.05-.15-.06-.25-.1-.39-.15.32-.24.04-.41-.07-.63.14-.01.27-.04.39-.04.55,0,1.1.03,1.66.03.74,0,1.48.01,2.22-.03.83-.05,1.67-.16,2.5-.24.28-.03.56-.06.84-.1.21-.03.41-.08.62-.1.05,0,.11.05.16.07-.05.04-.08.11-.14.13-.27.09-.41.29-.52.52-.09.19-.2.35-.45.25-.03-.01-.06.01-.12.03.09.13.4.11.22.38-.08,0-.17.01-.27.02-.02-.08-.03-.15-.05-.22-.13.04-.37.36-.37.49,0,.08-.28.27-.4.29-.07,0-.14.04-.21.07-.1.05-.19.12-.31.2.02.03.08.1.14.19-.06.01-.11.05-.15.03-.3-.14-.39-.09-.46.26,0,.01-.02.02-.03.05h-.36c0,.07.02.14.03.23-.09-.04-.15-.07-.25-.11-.12.15-.26.3-.36.43-.03,0-.05,0-.08,0ZM51.62,91.48c-.07.05-.13.11-.18.18-.02.02,0,.07,0,.13h-.25s-.05.06-.08.09c.01.05.03.09.04.14-.04,0-.1,0-.15-.02-.13.16-.26.32-.39.49.01.02.03.04.04.06l-.05-.04s-.05.06-.07.09c-.07.11-.14.21-.21.32.06.17.02.38-.17.51-.18.12-.38.22-.58.3,0,0-.01.01-.02.02,0,.02-.02.03-.03.04-.02.01-.03.03-.05.04-.48.46-1.02.84-1.61,1.17-.8.46-1.64.86-2.41,1.37-.8.53-1.59,1.14-2.3,1.79-.32.29-.83,0-.72-.42.1-.39.37-.68.68-.91-.02-.01-.04-.02-.06-.04.05-.11.26-.05.21-.23.04,0,.1-.02.12,0,.02.02.03.03.05.04.08-.05.17-.1.25-.16,0,0,0,0,0,0-.07.01-.13.03-.21.05.06-.26.31-.43.53-.37.23.07.19-.15.27-.24.05-.05.07-.15.13-.19.17-.12.36-.22.54-.33-.04-.06-.08-.11-.11-.17-.23.05-.46.08-.55.35,0-.05.02-.09.01-.14-.02-.23-.16-.32-.37-.2-.14.08-.26.18-.39.26-.02.11-.08.21-.2.28-.99.6-1.72,1.55-2.66,2.22-.97.69-2.02,1.25-3.17,1.58-.34.1-.71-.32-.49-.64.17-.24.37-.46.57-.66-.04,0-.08-.02-.11-.02.08-.09.14-.18.22-.25.08-.06.13-.04.17.02.1-.09.21-.17.31-.25.28-.21.59-.41.92-.53.03-.04.06-.09.09-.13.02.04.05.06.07.08,0,0,.01,0,.02,0,.15-.16.3-.32.47-.46-.03-.15.1-.15.17-.2.07-.05.14-.09.21-.14.1-.09.21-.18.31-.27.04-.04.09-.07.14-.09.21-.21.53-.33.58-.68,0-.04.1-.07.17-.11-.01-.05-.03-.11-.04-.17.37-.11.75-.21,1.12-.32.41-.12.82-.24,1.23-.35.23-.06.47-.09.71-.11.1,0,.2.09.3.12.19.07.04.15.03.24,0,.04.07.12.12.14.1.04.19.06.08.19-.09.1-.07.12.18.27.02-.04.04-.07.07-.1,0-.02,0-.03,0-.05.34-.97,1.18-1.44,2.12-1.69.44-.12.88-.2,1.32-.3.17-.04.34-.09.51-.14.05-.05.11-.1.16-.16.08-.09.15-.18.23-.28-.15-.07-.33-.08-.54-.03-.51.14-1.04.22-1.56.33-.01-.02-.02-.04-.03-.07.23-.25.46-.49.68-.74.17-.2.3-.44.46-.64.31-.38.63-.75.95-1.12.13-.15.27-.28.42-.45-.07-.01-.17-.03-.27-.05.24-.15.48-.3.75-.47-.12-.08-.21-.15-.31-.22.06,0,.12-.03.17-.01.31.14.5-.06.7-.26-.07-.04-.12-.07-.16-.09.03-.04.07-.08.1-.12-.08-.05-.15-.1-.25-.18.45-.21.89-.43,1.35-.62.38-.16.77-.29,1.16-.43.37-.14.74-.27,1.1-.42.46-.2.91-.41,1.36-.62.16-.07.31-.04.48.11-.5.48-1,.96-1.49,1.43,0,.01.01.02.02.03.09-.05.17-.1.28-.17-.21.31-.56.52-.88.7-.32.18-.62.43-.88.69-.31.3-.57.65-.84.99.74-.48,1.38-1.07,1.97-1.73.02.02.04.04.06.06-.26.35-.52.7-.78,1.05-.37.48-.73.96-1.13,1.41-.21.23-.5.39-.75.59ZM58.51,85.58c-.18.5-.34,1-.6,1.47-.33.61-.74,1.23-1.21,1.77-.01,0-.93.93-1.26,1.28-.61.65-1.23,1.29-1.95,1.83-.2.16-.42.3-.64.44-.16.1-.36.26-.57.25-.3-.03-.46-.38-.33-.63.09-.18.31-.29.46-.41.21-.17.43-.34.63-.53.15-.15.31-.3.45-.46.17-.18.45-.41.55-.64-.01-.02-.03-.04-.04-.05.16-.22.4-.36.55-.6.14-.23.22-.49.38-.72.17-.26.36-.5.55-.75.17-.22.32-.45.53-.63.16-.14.26-.24.32-.44.04-.12.07-.13.19-.18.14-.06.2-.1.29-.22.12-.19.3-.27.49-.39.11-.07.21-.15.32-.22.15-.1.24-.15.42-.19.24-.06.45-.2.65-.37-.06.14-.12.27-.17.41ZM63.56,69.25c-.05.11-.03.32-.27.28.06.03.11.06.15.08.02.27.04.52.06.78,0,.03,0,.06-.01.09-.04.22-.09.45-.11.67,0,.05.07.11.13.19,0,0,0,.04-.03.05-.21.07-.21.18-.11.36.03.05-.06.17-.11.29.03.02.09.08.15.13-.25.07-.26.35-.04.6-.08.02-.2.01-.24.07-.04.05.02.16.02.25,0,.1-.04.2-.05.29,0,.17,0,.34,0,.53-.07-.04-.1-.06-.14-.08l-.03.04c.06.07.12.14.2.23-.08.16-.17.32-.26.51.02,0,.09.04.16.07-.05.27-.1.54-.15.8-.09.48-.18.95-.29,1.42-.1.46-.22.92-.33,1.38-.05.21-.03.46-.28.57.02.2-.11.31-.24.41-.02.01-.03.05-.03.06.17.15-.04.26-.05.4.04.02.08.03.09.03-.09.32-.17.64-.26.97.01,0-.02,0-.05-.02-.03-.02-.05-.05-.05-.04-.09.19-.2.37-.28.56-.1.26-.18.53-.28.84-.02.01-.09.06-.2.12.08.06.13.09.18.13-.01.02-.03.04-.03.04-.19-.09-.24.07-.32.18-.1.14-.19.28-.27.43-.2.38-.61.51-.87.83-.26.32-.55.63-.84.93-.23.23-.48.44-.75.63.05-.08.11-.17.17-.26-.07-.03-.13-.05-.15-.06.15-.43.26-.86.45-1.26.07-.15.2-.28.21-.45,0-.09-.04-.2-.01-.28.15-.59.3-1.19.47-1.78.02-.08.14-.15.23-.18.31-.1.63-.17.95-.26.08-.02.18-.06.24-.12.06-.07.1-.18.08-.27,0-.05-.14-.12-.21-.11-.34.02-.68.06-1.07.1.08-.25.16-.49.23-.73.08-.28.14-.56.2-.84.06-.27.1-.54.17-.8.05-.2.13-.39.2-.59,0-.01.01-.03,0-.04-.14-.26.03-.32.17-.33.05-.19.1-.32.13-.46.05-.32.11-.63.14-.95.02-.17-.01-.35,0-.52,0-.09.07-.18.12-.28-.01-.2-.03-.43-.03-.67,0-.04.09-.09.15-.14-.15-.13-.2-.31-.09-.51.02-.04.05-.08.09-.1.24-.11.27-.24.12-.44-.03-.04.02-.16.04-.26-.05-.03-.15-.09-.27-.16.1-.04.16-.06.22-.09-.06-.09-.12-.16-.21-.28.11.04.16.06.25.09-.1-.18-.17-.31-.26-.47h.34c-.15-.31-.31-.56-.39-.83-.08-.26-.08-.54-.09-.82,0-.1.04-.2.03-.29-.07-.45-.14-.9-.21-1.38.2-.08.15-.23.1-.41-.13-.49-.24-.98-.35-1.48-.01-.05.03-.15.08-.19.26-.19.54-.36.81-.53.31-.19.62-.38.93-.57.03-.02.06-.03.08-.05.14-.16.3-.21.52-.12-.04-.06-.07-.11-.09-.13.12-.25.23-.47.34-.7.02,0,.04-.01.05-.02.09.47.3.9.41,1.37.12.49-.05.97,0,1.46.25.02.31.16.31.38,0,.3.04.6.05.9,0,.18,0,.36,0,.57.1.02.24.1.15.28Z"/>
      <path class="cls-1" d="M16.07,76.89c-.17-.03-.33-.06-.49-.1-.55-.04-1.06-.11-1.61-.29v.04c-.19-.02-.39,0-.53-.15,0-.01,0-.02,0-.03-.02,0-.04-.01-.07-.02,0,0,0,0,0,0-.01.03-.02.06-.03.08-2.61-.34-5.23-.68-7.69-1.73-.02.04-.04.08-.06.12.32.26.63.54.97.78.5.35,1.04.62,1.64.74.81.17,1.64.3,2.46.43.5.08,1.01.11,1.51.19.63.1,1.26.23,1.9.33.4.06.81.04,1.21.12.36.06.66.03.91-.27-.08-.04-.16-.08-.25-.13.05-.04.09-.07.13-.1ZM10.71,76.25c-.21-.04-.42-.07-.63-.11,0-.03.01-.05.02-.08.21.04.42.08.63.12,0,.02-.01.05-.02.07Z"/>
      <path class="cls-1" d="M11.64,83.41c.27.07.55.11.83.18.09.02.18.07.28.08.78.13,1.56.25,2.34.38.4.07.8.15,1.21.23.2.04.4.08.61.11.16.02.32.03.48.04.08,0,.16,0,.23,0,.01.03.03.06.04.09-.04,0-.08,0-.12.01,0,0,.02,0,.03,0h.59s.01-.04.02-.06c-.09-.04-.18-.09-.27-.11-.39-.08-.77-.17-1.16-.24-.2-.03-.4-.04-.6-.06-.23-.03-.46-.05-.68-.09-.1-.02-.19-.12-.29-.15-.46-.1-.93-.19-1.39-.29v.08c-.14-.03-.26-.06-.41-.09.04-.02.07-.04.1-.05-.52-.35-1.16-.19-1.71-.4.02-.05.03-.08.04-.12-.1.02-.19.04-.27.05,0-.02,0-.04-.01-.06.03-.02.07-.03.1-.05,0-.02,0-.04,0-.07-.12-.03-.24-.06-.36-.09-.06-.02-.14,0-.19-.04-.21-.18-.46-.13-.7-.16-.17-.02-.37-.07-.49-.18-.16-.14-.31-.19-.51-.15-.24.05-.44-.02-.59-.22-.04-.05-.12-.06-.18-.08-.18-.04-.38-.05-.55-.12-.23-.09-.43-.24-.65-.35-.53-.26-1.07-.51-1.59-.77-.25-.13-.49-.29-.75-.44.03-.02.06-.03.07-.06.02-.03.02-.06.02-.06-.18.04-.35.07-.52.11,0,.03,0,.05.02.07.04.05.08.11.13.15.37.25.4.64.39,1.02-.01.41.01.8.15,1.19.01.04.05.07.11.13-.07-.45-.13-.85-.19-1.25.29-.01.44-.25.38-.51.07-.02.13-.06.2-.06.07,0,.16-.02.22.02,1.24.76,2.45,1.58,3.89,1.95.59.15,1.17.3,1.76.44Z"/>
      <path class="cls-1" d="M14.34,92.18c.14.13.22.14.35.05-.08-.03-.14-.06-.15-.06-.05-.1-.08-.17-.12-.21-.36-.4-.74-.79-1.08-1.2-.32-.38-.62-.78-.91-1.19-.06-.08-.28-.1-.14-.28-.04-.01-.07-.03-.11-.04-.08-.02-.18-.01-.25-.06-.15-.1-.27-.22-.41-.33-.09-.08-.19-.15-.29-.22-.01.01-.03.03-.04.04.03.05.05.1.08.14.48.57.95,1.14,1.43,1.71.18.21.38.4.58.6.08.08.19.14.31.23,0,0-.02.04-.04.11.24-.09.23.04.19.19.04,0,.06.01.08,0,.21-.04.2-.03.2.17,0,.05.08.11.14.15.04.03.11.01.16.02l-.05.05s.04.1.07.13Z"/>
      <path class="cls-1" d="M6.77,57.49s-.01-.04-.02-.06c-.14-.05-.29-.15-.42-.14-.13.01-.25.14-.39.23.12.09.2.18.25.17.2-.05.39-.14.59-.21Z"/>
      <path class="cls-1" d="M16.4,89.19c-.4-.02-.8-.05-1.2-.07,0,.02,0,.04,0,.06.4.03.8.05,1.2.08,0-.02,0-.05,0-.07Z"/>
      <path class="cls-1" d="M14.75,92.82c.11.02.22.06.33.06.03,0,.06-.11.11-.21-.19,0-.31.01-.43.02,0,.04,0,.09,0,.13Z"/>
      <path class="cls-1" d="M11.99,92.79s.04-.05.06-.07c-.18-.12-.36-.24-.53-.36-.02.03-.03.05-.05.08.18.12.35.24.53.36Z"/>
      <path class="cls-1" d="M5.55,83.45c.08.23.16.47.24.7.02,0,.04-.01.06-.02-.07-.23-.14-.47-.22-.7-.03,0-.05.01-.08.02Z"/>
      <polygon class="cls-1" points="15.63 93.36 15.62 93.36 15.62 93.36 15.63 93.36"/>
      <path class="cls-1" d="M15.48,93.11c-.03-.15-.1-.2-.34-.09.18.13.33.23.48.34-.05-.08-.13-.16-.14-.24Z"/>
      <path class="cls-1" d="M9.45,68.29s-.01.03-.02.05c.23.08.47.16.7.25.01-.03.02-.06.04-.09-.24-.07-.48-.14-.72-.21Z"/>
      <path class="cls-1" d="M18.22,89.35c.28.02.56.04.84.07,0-.02.01-.03.02-.05-.29-.02-.57-.04-.86-.06,0,.01,0,.03,0,.04Z"/>
      <path class="cls-1" d="M6.27,85.16c.03-.06.07-.11.06-.13-.08-.13-.18-.26-.27-.39-.02.01-.04.03-.06.04.08.14.15.28.27.48Z"/>
      <polygon class="cls-1" points="2.06 62.84 2.06 62.84 2.06 62.84 2.06 62.84"/>
      <path class="cls-1" d="M2.41,62.64h-.46c.06.1.08.16.11.21.1-.06.2-.12.35-.21Z"/>
      <path class="cls-1" d="M8.17,57.67s0,.04-.01.06c.18.03.37.07.55.1,0-.02,0-.05.01-.07-.18-.03-.37-.06-.55-.09Z"/>
      <path class="cls-1" d="M44.79,88.45s0-.04,0-.07l-1.3.13s0,.04,0,.06c.43-.04.86-.08,1.29-.12Z"/>
      <path class="cls-1" d="M34.41,61.27s0,.03,0,.05h1s0-.03,0-.05h-.99Z"/>
      <path class="cls-1" d="M41.45,88.62c-.22-.13-.47,0-.71.03.23.02.47.03.7.05,0-.03,0-.05,0-.08Z"/>
      <path class="cls-1" d="M43,88.52h-.48s0,.03,0,.05c.16.02.31.04.47.05,0-.03,0-.07,0-.1Z"/>
      <path class="cls-1" d="M42.26,88.61s0-.04-.01-.06c-.18.03-.36.05-.53.08,0,.02,0,.05.01.07.18-.03.36-.06.53-.09Z"/>
      <path class="cls-1" d="M45.06,88.46c.17-.02.32-.04.48-.06-.18-.12-.39-.11-.48.06Z"/>
      <path class="cls-1" d="M46.21,59.74s-.05.12-.07.18c-.08.04-.16.08-.25.12,0,.03,0,.05,0,.08.07.02.15.05.22.04.27-.02.53-.04.8-.07.41-.04.82-.08,1.23-.14.28-.04.55-.12.82-.17.31-.05.62-.06.93-.11.39-.07.77-.17,1.15-.25.03,0,.06-.04.09-.06.39-.24.8-.4,1.26-.36.16.01.32.04.47,0,.34-.07.68-.16,1.01-.27.24-.08.48-.2.6-.45.12-.24.02-.42-.21-.52-.17-.07-.28,0-.43.02-.23.05-.46.06-.68.12-.37.1-.72.25-1.09.33-.69.13-1.38.22-2.07.34-.41.07-.81.16-1.21.27-.27.08-.53.22-.8.3-.48.15-.96.27-1.44.41-.12.04-.23.11-.33.18Z"/>
      <path class="cls-1" d="M52.84,82.49c.21-.08.43-.16.64-.25.03-.01.07-.02.1-.04.11-.05.22-.09.33-.14.15-.07.3-.15.45-.21.15-.06.31-.11.46-.17.04-.02.06-.09.1-.11.36-.12.73-.23,1.09-.35.23-.08.46-.16.69-.25.24-.09.52-.1.7-.41-.1,0-.16-.01-.2,0-.25.1-.49.21-.75.3-.32.1-.66.16-.97.27-.4.15-.8.34-1.19.52-.25.12-.5.25-.75.39-.06.03-.12.12-.18.12-.39.01-.71.18-1.04.39.13.04.23.07.34.1-.03-.14.08-.14.17-.18Z"/>
      <path class="cls-1" d="M50.87,83.33c.06.01.13.06.17.04.28-.1.56-.21.85-.32.23-.09.46-.18.69-.27,0-.02,0-.05,0-.07-.14-.02-.3-.1-.41-.05-.44.18-.87.41-1.3.61,0,.02,0,.04,0,.06Z"/>
      <path class="cls-1" d="M52.42,87.09c-.75.23-1.55.23-2.26.6.77-.12,1.53-.33,2.26-.6Z"/>
      <path class="cls-1" d="M50.87,77.31c-.05-.27-.08-.31-.3-.34,0,.22.12.36.3.34Z"/>
      <path class="cls-1" d="M53.28,82.52c-.21.05-.4.1-.59.14.13.07.43,0,.59-.14Z"/>
      <path class="cls-1" d="M52.69,82.66s0,0,0,0c0,0,0,0,0,0,0,0,0,0,0,0,0,0,0,0,0,0,0,0,.01,0,.02,0Z"/>
      <path class="cls-1" d="M18.9,60.69c.05.03.11.04.16.05.18.03.41.01.53.12.13.11.25.15.39.16.28.02.56.04.85.06.25.02.5.06.75.07.57.02,1.15.03,1.72.04.27,0,.54-.03.8-.02.55.02,1.1.06,1.64.07.5,0,1-.03,1.5-.02.52,0,1.04.04,1.58.06,0-.31.13-.31.32-.2-.01-.07-.02-.11-.03-.17.08.03.13.05.13.05.07-.06.11-.1.19-.17-.17-.07-.32-.14-.47-.2-.08-.03-.16-.06-.24-.08-.09-.03-.18-.07-.27-.06-.89.04-1.78.11-2.67.13-.55.02-1.09-.01-1.64-.04-.78-.04-1.56-.08-2.34-.14-.4-.03-.8-.12-1.19-.16-.41-.05-.82-.09-1.24-.11-.12,0-.25.05-.38.07,0,.03,0,.06-.01.09.3.11.59.22.89.33-.33.19-.65-.11-.96.09Z"/>
      <path class="cls-1" d="M22.15,85.11c.19,0,.37.12.56.17.59.18,1.18.11,1.77-.01.07-.01.13-.05.18-.07-.06-.1-.11-.18-.16-.26-.1,0-.21-.02-.32-.03-.33-.02-.66-.05-.99-.05-.38,0-.75.07-1.13.05-.49-.03-.97-.12-1.49-.19.14.15.41,0,.48.26-.11.02-.2.03-.29.04,0,.02,0,.04,0,.07.1,0,.21.01.3-.03.37-.15.72.05,1.08.05Z"/>
      <path class="cls-1" d="M25.1,85.28c.25-.07.5-.17.76.04.13.1.32.18.51.05.07-.05.28-.05.29-.02.13.34.36.12.56.13.41.01.67-.29,1.01-.45-.14-.02-.28-.05-.41-.02-.41.11-.82.11-1.23.03,0,.02.02.05.04.09-.2.04-.38.08-.57.12,0-.01,0-.03,0-.04.06-.05.12-.09.18-.14-.23-.09-.43.09-.68,0-.22-.07-.51.03-.78.06.05.2.17.19.32.15Z"/>
      <path class="cls-1" d="M28.09,85.41c.11.07.23.13.34.2.02-.03.05-.05.07-.08-.06,0-.12-.02-.18-.03.01-.03.03-.05.04-.08.33.26.66.14,1.01.08-.22-.25-.44.03-.7-.03.1-.04.15-.06.23-.1-.37-.18-.65-.2-.81.05Z"/>
    </g>
  </g>
</svg>