<?xml version="1.0" encoding="UTF-8"?>
<svg id="Layer_2" data-name="Layer 2" xmlns="http://www.w3.org/2000/svg" viewBox="0 0 86.34 130.43">
  <defs>
    <style>
      .cls-1 {
        fill: #000;
        stroke-width: 0px;
      }
    </style>
  </defs>
  <g id="illustrations">
    <g>
      <path class="cls-1" d="M86.19,112.87c-.15-.21-.4-.41-.26-.67-.11-.18-.22-.32-.29-.47-.28-.56-.76-.93-1.17-1.38-.88-.93-1.72-1.91-2.55-2.88-.48-.56-.96-1.13-1.36-1.75-.66-1.02-1.26-2.08-1.88-3.12-.41-.69-.85-1.37-1.21-2.09-.66-1.34-1.32-2.69-1.9-4.07-.49-1.17-.86-2.39-1.3-3.59-.16-.43-.34-.85-.52-1.26-.11-.25-.26-.48-.26-.79,0-.25-.1-.5-.2-.73-.17-.39-.38-.75-.55-1.14-.32-.73-.63-1.46-.93-2.2-.1-.25-.16-.52-.27-.77-.13-.32-.3-.62-.43-.93-.35-.88-.68-1.77-1.02-2.65-.35-.92-.71-1.83-1.07-2.75-.25-.65-.53-1.29-.77-1.94-.18-.49-.32-1-.5-1.49-.34-.9-.69-1.8-1.06-2.69-.22-.54-.46-1.06-.68-1.59-.38-.94-.73-1.89-1.13-2.83-.41-.99-.84-1.98-1.3-2.96-.31-.67-.67-1.32-1.03-1.97-.58-1.05-1.17-2.09-1.75-3.14-.3-.53-.58-1.07-.89-1.59-.29-.49-.6-.97-.89-1.46-.61-1.04-1.22-2.08-1.8-3.15-.61-1.13-1.16-2.29-1.78-3.41-.39-.7-.82-1.38-1.29-2.03-.56-.77-1.18-1.49-1.78-2.23-.15-.18-.33-.34-.45-.54-.09-.15-.07-.37-.17-.52-.55-.87-1.11-1.72-1.67-2.58-.14-.21-.27-.43-.42-.64-.1-.14-.22-.27-.31-.42-.13-.2-.22-.45-.39-.61-.35-.32-.56-.71-.72-1.13-.1-.27-.22-.53-.26-.84-.03-.23-.2-.45-.37-.67-.08-.03-.15-.07-.21-.14-.25-.25-.45-.53-.56-.87-.09-.29-.08-.58-.04-.87.03-.21.1-.42.16-.63.03-.11.06-.21.08-.32,0-.02,0-.05.01-.07-.06-.11-.08-.24-.03-.43.12-.46.11-.96.43-1.36.02-.03,0-.09.01-.14.05-.25.09-.51.16-.75.07-.22.19-.41.26-.63.13-.42.2-.87.35-1.28.22-.61.5-1.19.74-1.79.12-.3.32-.62.29-.91-.03-.39.09-.82-.18-1.18-.04-.05-.06-.13-.06-.2.03-.41.07-.81.12-1.22.01-.08.09-.16.14-.24.04-.06.1-.11.11-.16.01-.21,0-.42,0-.66h-.34c.05-.29.19-.46.47-.47.21-.01.41-.02.62,0,.44.05.87.12,1.31.16,1.6-.03,3.19-.01,4.78-.11.44-.03.96-.1,1.25-.39,0-.03,0-.06-.02-.1-.41-1.21-1.93-2.08-2.92-2.74-1.3-.86-2.6-1.73-3.83-2.69-.74-.57-1.38-1.27-2.06-1.91-.33-.31-.64-.63-.91-.98-.52-.28-.94-.65-1.33-1.06-.34-.37-.68-.75-1.02-1.13-.15-.17-.32-.33-.44-.52-.45-.68-.88-1.36-1.34-2.04-.1-.15-.26-.27-.34-.35-.08-.12-.1-.21-.15-.24-.35-.18-.7-.34-1.05-.53,0,0,0,0,0,0-.38-.08-.71-.28-.83-.73-.14-.51.05-1.03.27-1.49.58-1.24,1.67-2.08,2.56-3.09.08-.23.17-.46.25-.69,0-.2,0-.4,0-.6,0-.5,0-1-.18-1.47-.25-.67-.74-1.32-1.32-1.73-.65-.46-1.36-.6-2.12-.34-.59.2-1.11.59-1.51,1.07-.1.12-.31.41-.37.57,0,0,0,0,0,.02.02.01.03.03.05.04.51.14,1.01.13,1.44-.28.26-.25.53-.5.81-.74.08-.07.24-.15.31-.11.57.32,1.23.49,1.62,1.1.56.85.64,1.73.09,2.57-.58.88-1.24,1.7-1.91,2.51-.37.45-.7.89-.7,1.49,0,.13-.02.27-.04.4-.04.36-.06.73-.12,1.09-.02.16,0,.36-.25.4-.99.16-1.76.76-2.52,1.34-.6.46-.9,1.16-1.15,1.86-.04.12-.11.27-.21.34-.7.49-1.41.96-2.12,1.43-.62.4-1.25.79-1.88,1.18-.5.31-.98.67-1.52.9-.04.02-.08.04-.12.05-.06.05-.12.11-.18.16-.94.95-1.85,1.92-2.91,2.74-1.19.92-2.69,1.7-3.18,3.1,0,.11.04.23.22.22.54,0,1.09.03,1.62-.03,1.14-.14,2.29-.16,3.43-.08.55.04,1.1.08,1.65.1.18,0,.33-.07.39.2.18.81.38,1.61.59,2.41.2.8.39,1.59.61,2.38.16.57.3,1.15.42,1.73.2.93.49,1.84.8,2.75.21.6.62,1.12.71,1.78.06.44.26.85.35,1.29,0,.03,0,.06,0,.1.16.4.21.86.19,1.28-.02.34-.07.67-.16,1,0,.02,0,.03,0,.05,0,.35-.1.64-.37.91-.37.37-.71.79-1.02,1.21-.42.58-.78,1.2-1.19,1.78-.45.63-.95,1.22-1.42,1.84-.03.04,0,.13,0,.14-.31.38-.6.73-.89,1.08.2-.12.36-.28.51-.45.14-.16.27-.32.4-.49.02.02.04.04.06.06-.22.29-.44.58-.65.87-.21.28-.38.6-.63.85-.13.13-.28.21-.38.39-.41.74-.86,1.46-1.29,2.2-.14.24-.39.44-.36.77-.39.18-.49.58-.68.92.08.04.14.07.16.08-.16.1-.38.16-.48.31-.3.4-.56.84-.82,1.27-.31.51-.59,1.02-.89,1.53-.15.25-.32.5-.47.75-.27.47-.52.96-.8,1.42-.4.67-.83,1.32-1.24,1.98-.49.81-.96,1.62-1.45,2.43-.31.51-.64,1.02-.96,1.53-.33.52-.66,1.03-.97,1.55-.3.51-.58,1.03-.88,1.54-.15.26-.32.5-.48.76.05.02.12.04.16.06-.18.17-.38.31-.51.5-.13.2-.19.44-.3.66-.25.47-.51.94-.77,1.4-.12.21-.25.41-.36.62-.21.36-.32.8-.69,1.05-.03.02-.06.05-.08.09-.17.31-.33.63-.52.93-.2.33-.42.64-.68,1.04.23-.06.42-.05.51-.14.18-.2.33-.45.46-.7.15-.28.26-.58.42-.85.26-.44.57-.86.83-1.3.44-.75.86-1.51,1.31-2.26.26-.43.56-.84.82-1.27.59-1,1.16-2.02,1.75-3.02.17-.28.35-.57.69-.71,0,.1,0,.19-.05.26-.51.82-.78,1.75-1.11,2.64-.27.71-.5,1.44-.72,2.17-.16.53-.29,1.06-.37,1.6-.11.69-.44,1.3-.66,1.95-.29.85-.52,1.72-.78,2.58-.17.56-.36,1.12-.57,1.66-.4,1.02-.82,2.04-1.24,3.05-.17.42-.39.83-.56,1.25-.13.32-.22.67-.35,1.08.13-.16.24-.26.31-.38.39-.71.79-1.42,1.13-2.15.38-.81.72-1.64,1.04-2.48.28-.74.52-1.49.77-2.24.16-.47.3-.94.44-1.41.05-.18.04-.38.1-.54.22-.57.5-1.12.69-1.71.32-1,.56-2.02.86-3.02.2-.67.45-1.33.68-2,.12-.34.22-.69.36-1.02.1-.25.27-.48.38-.73.27-.62.49-1.26.79-1.85.54-1.05,1.11-2.09,1.69-3.12.47-.83.96-1.65,1.47-2.46.65-1.04,1.33-2.06,2-3.1.24-.38.47-.77.71-1.15.2-.32.41-.63.59-.96.24-.41.44-.83.69-1.24.3-.5.61-.98.93-1.47.24-.36.49-.71.77-1.11.01.1.02.13.02.14-.6.99-1.22,1.97-1.81,2.96-.22.36-.4.75-.58,1.1-.37.45-.52,1.01-.77,1.5-.26.52-.46,1.07-.68,1.6-.23.52-.49,1.03-.68,1.57-.19.53-.3,1.08-.45,1.62l.1.04c1.12-2.15,1.97-4.44,3.42-6.41-.16.48-.35.95-.51,1.42-.33.94-.63,1.89-.96,2.83-.16.45-.34.89-.54,1.32-.11.24-.29.45-.41.69-.31.61-.33,1.35-.8,1.89-.03.03-.04.09-.05.14-.09.25-.18.49-.27.74-.09.25-.31.48-.16.74-.09.11-.2.2-.25.31-.1.23-.15.47-.25.7-.13.29-.29.57-.43.86-.21.43-.41.86-.62,1.29-.23.48-.49.94-.7,1.43-.46,1.05-.9,2.11-1.33,3.18-.25.62-.49,1.24-.7,1.87-.29.86-.57,1.71-.8,2.58-.26.99-.45,1.99-.68,2.98-.25,1.05-.53,2.1-.79,3.15-.29,1.14-.57,2.29-.86,3.43-.21.81-.43,1.61-.64,2.42-.09.34-.19.68-.3,1.01-.09.28-.18.56-.31.82-.12.25-.14.53-.23.79-.27.72-.49,1.46-.71,2.2-.04.12,0,.25,0,.39-.18.06-.17.06-.14.26,0,.04-.01.08-.02.12-.09.31-.19.62-.28.93-.19.73-.38,1.46-.56,2.19-.03.11-.04.22-.05.34.02,0,.03,0,.05,0-.08.12-.17.24-.27.38.21-.05.37-.09.58-.14-.16.13-.27.22-.39.31.05.05.1.11.16.16q-.28.26-.25.36c.13-.09.27-.19.4-.29.03.03.05.06.08.08-.11.12-.21.27-.35.34-.2.1-.39.1-.41.45-.03.48-.26.96-.4,1.43.03,0,.06-.02.07-.03-.13.4-.26.82-.39,1.21.07.08.12.15.17.21.08.02.16.04.24.06q-.19.5-.54.45c-.05.13-.1.26-.16.39.04,0,.08.02.12.02-.03,0-.05.01-.08.02.03.11.06.23.08.34,0,.06-.01.13-.02.25.08.11.21.27.33.42.01-.07.03-.15.05-.24.04,0,.09,0,.13,0,.01.2.03.4.04.63.03.02.12.06.21.1.06-.3.13-.58.18-.86.1-.66.19-1.33.29-1.99.06-.39.14-.77.24-1.16.08-.33.2-.66.29-.98.02-.06.02-.13.03-.2.03-.19.05-.38.09-.56.09-.41.2-.81.29-1.22.09-.4.14-.81.24-1.2.17-.68.37-1.36.55-2.04.1-.38.17-.76.29-1.14.25-.81.52-1.6.77-2.41.14-.47.25-.94.39-1.41.07-.22.21-.42.26-.64.16-.71.28-1.42.44-2.13.11-.49.24-.97.39-1.45.06-.19.12-.34.09-.56-.02-.16.15-.34.21-.52.22-.76.44-1.52.64-2.29.24-.9.45-1.8.69-2.69.07-.28.17-.55.27-.85-.16-.18.41-2.2.76-2.68-.02-.11-.02-.21.01-.31.1-.3.25-.6.3-.91.08-.5.19-.97.52-1.37.02-.03.05-.06.06-.1.06-.23.08-.47.17-.68.28-.6.61-1.18.89-1.78.43-.93.84-1.86,1.26-2.8.07-.17.09-.36.19-.51.38-.58.6-1.23.88-1.85.15-.32.21-.67.35-.99.22-.49.47-.96.7-1.44.06-.12.19-.23.03-.36-.01-.01,0-.08.02-.11.12-.22.26-.43.37-.65.21-.43.41-.87.62-1.31.07.03.15.05.22.08-.2-.17-.17-.35-.08-.56.15-.34.28-.69.39-1.05.19-.63.35-1.27.54-1.9.18-.6.32-1.22.56-1.8.19-.47.17-.99.46-1.42.01-.02,0-.06,0-.09.04-.19.05-.39.11-.57.1-.28.22-.55.34-.83.31-.76.66-1.5,1.23-2.1.69-.72,1.13-1.58,1.52-2.47.13-.3.44-.55.35-.93.25-.18.5-.35.75-.53.02.02.04.04.06.06-.03.07-.1.17-.08.19.24.22.04.42-.07.66.4-.22.31-.79.76-.9-.14.44-.31.87-.5,1.29-.19.4-.42.78-.64,1.18.06.02.16.07.28.12-.1.2-.24.17-.4.12-.24-.08-.41,0-.53.24.18-.06.34-.1.5-.15,0,.02.02.05.03.07-.2.14-.43.28-.29.56.07-.04.14-.08.21-.12.01.02.03.05.04.07-.04.06-.08.12-.13.18.09.05.16.09.23.13.02.02.04.04.06.07.1-.07.23-.13.3-.23.11-.16.17-.35.26-.55-.07-.03-.14-.07-.18-.08.65-1.37,1.59-2.6,1.82-4.15-.05,0-.13-.01-.25-.03.09-.12.16-.21.26-.34-.13.03-.28.01-.34.08-.19.22-.12.44.15.64-.15.07-.24.1-.31.14-.25-.23-.16-.48-.05-.7.21-.43.41-.85.49-1.33.04-.24.09-.52.46-.55.43-.03.87-.22,1.28-.16.36.05.57-.19.86-.22.27-.04.52-.04.72.23.12.17.23.45.53.33.03.08.05.15.06.2.13-.04.23-.1.32-.08.3.05.52-.07.75-.24.06-.05.27-.02.29.03.23.49.46.98.64,1.49.14.39.21.81.33,1.21.21.7.48,1.39.66,2.1.28,1.13.5,2.27.76,3.4.14.59.29,1.17.46,1.75.1.33.25.65.34.99.09.35.1.71.19,1.06.17.66.41,1.31.55,1.97.15.72.29,1.44.33,2.17.05.92.26,1.8.45,2.69.18.84.34,1.69.46,2.54.11.77.17,1.55.26,2.33.04.34.11.67.14,1,.06.59.1,1.19.17,1.78.11.96.25,1.91.35,2.87.08.76.1,1.52.17,2.28.05.52.13,1.04.19,1.56.03.3.08.6.08.9,0,.28.13.54.03.83-.04.12.08.29.1.44.07.5.11,1,.18,1.49.13.82.01,1.65.28,2.48.25.77.15,1.63.38,2.43.13.46.15.95.25,1.41.2.96.43,1.91.65,2.87.1.43.18.86.28,1.28.08.34.19.68.26,1.03.06.25.08.51.12.77-.08.02-.14.03-.13.03.08.24.21.45.2.65-.02.29,0,.58.08.84.04.14.03.21,0,.33-.06.19-.21.35-.1.6.1.23.11.51.15.77.05.36.09.72.14,1.09-.06.09-.13.19-.21.32.13.03.22.04.26.05,0,.18-.02.32,0,.46.08.42.25.84.24,1.26-.02.86.23,1.7.08,2.57-.05.3,0,.62.03.92,0,.07.09.14.12.18-.03.1-.08.19-.09.27,0,.17.01.35.02.52.02.31.05.62.04.93,0,.23-.1.46-.09.68.02.54.08,1.08.11,1.62.04.62.01,1.24.1,1.85.13.86.2,1.72.12,2.59-.03.27,0,.55.02.82.04.52.12,1.05.15,1.57.03.63.01,1.27.04,1.91.03.65.08,1.29.13,1.94.07.84.14,1.68.22,2.53.01.16.06.32.09.48.01.07.01.13.02.2.09,0,.2,0,.28-.03.09-.04.15-.12.21-.17-.04-.15-.1-.3-.13-.47-.04-.25-.04-.5-.07-.75-.02-.14-.05-.29-.07-.43-.03,0-.06,0-.09,0,.08-.09.17-.18.27-.29-.26-.15-.25-.3-.04-.48.06-.05.08-.18.07-.27-.03-.28-.21-.55,0-.83.02-.03-.03-.11-.04-.16,0-.07,0-.15,0-.22,0-.22.02-.45-.03-.66-.06-.21-.21-.39-.3-.59-.02-.04.01-.11.03-.16.04-.14.09-.29.12-.43.03-.21.06-.42.06-.63,0-.27-.03-.55-.04-.82,0-.07.06-.16.06-.24-.03-.52-.08-1.03-.11-1.55,0-.04.02-.07.03-.11.16-.62.2-1.24.07-1.87-.09-.41-.13-.83-.23-1.23-.03-.1.11-.16-.01-.31-.13-.16-.16-.48-.11-.7.03-.11.06-.2.02-.31-.06-.18-.13-.36-.18-.52.05.02.13.05.3.11-.08-.2-.17-.33-.17-.46-.03-.67-.03-1.34-.05-2.01,0-.08-.07-.2-.03-.25.23-.27-.02-.39-.16-.52-.21-.18-.24-.4-.07-.62.04-.05.07-.15.04-.18-.11-.14-.03-.27-.04-.41,0-.48-.02-.96.01-1.45.02-.27-.17-.54-.1-.87.06-.27-.1-.59-.15-.88,0-.04.01-.08.01-.12,0-.35,0-.7-.01-1.05-.01-.29-.03-.58-.06-.87-.04-.37-.09-.75-.13-1.12-.03-.25-.08-.51-.08-.77,0-.47,0-.94-.07-1.42-.04-.27-.04-.54-.05-.82.3.02.55.04.79.06-.15-.32-.31-.63-.43-.94-.12-.29-.29-.55-.35-.88-.05-.31-.25-.58-.35-.89-.09-.28-.1-.58-.18-.86-.12-.41-.3-.81-.4-1.23-.1-.39-.12-.8-.19-1.2-.03-.16-.2-.31.12-.4-.41-.12-.28-.46-.34-.68-.09-.33-.02-.69-.06-1.04-.05-.42-.14-.84-.22-1.25-.1-.5-.2-1.01-.3-1.51,0-.03.01-.07.01-.11,0-.1.01-.21,0-.3-.03-.12-.11-.24-.11-.36-.02-.29.04-.59-.01-.87-.04-.17-.04-.32-.02-.48,0-.05-.05-.1-.07-.15-.06-.18-.17-.37-.16-.55.01-.5,0-.99-.11-1.47-.04-.18-.05-.36-.06-.55-.02-.26.02-.55-.08-.78-.12-.25-.02-.29.21-.32.02-.04.03-.08.05-.12-.13-.11-.27-.23-.36-.31-.02,0,.05,0,.13.01-.05-.24-.1-.45-.16-.7.1-.1.02-.54-.15-.75,0-.16,0-.26,0-.36-.02-.17-.06-.34-.08-.52-.05-.43-.1-.86-.15-1.29-.02-.17-.02-.34-.03-.59-.12-.11-.18-.71-.05-.84-.04-.15-.06-.28-.11-.4-.09-.24.07-.48-.02-.72-.06-.16-.07-.34-.12-.5-.06-.22-.14-.44-.19-.67-.03-.12,0-.25,0-.38,0-.24-.01-.48-.04-.71-.04-.32-.09-.63-.15-.94-.03-.14-.05-.3-.12-.43-.08-.16-.16-.28,0-.45.06-.06.03-.21.01-.32-.02-.09-.11-.17-.11-.26-.04-.35-.02-.71-.09-1.05-.1-.52-.25-1.04-.37-1.56-.05-.24-.08-.48-.12-.72-.01-.07,0-.15-.04-.21-.11-.25-.28-.47-.34-.73-.1-.47-.14-.95-.18-1.43-.01-.16-.07-.31-.09-.46-.04-.36.02-.74,0-1.11-.01-.43-.05-.86-.08-1.26-.12-.04-.22-.08-.32-.11.05-.06.11-.12.14-.16-.09-.31-.17-.61-.26-.9-.14-.42-.32-.82-.43-1.24-.18-.68-.3-1.37-.48-2.05-.24-.97-.5-1.93-.76-2.89-.24-.88-.47-1.76-.73-2.64-.15-.51-.3-1.03-.51-1.51-.13-.31-.19-.61-.16-.93.37-.02.43.06.46.4.02.27.07.55.18.79.32.74.69,1.47,1.02,2.21.07.16.05.43.17.51.3.2.17.55.34.79.12.16.1.41.21.59.15.26.18.49.08.67.08.24.14.4.19.57.15.55.32,1.1.45,1.66.11.45.18.92.26,1.38.04.21.02.42.08.62.09.32.23.63.31.96.18.73.33,1.47.51,2.2.13.53.29,1.06.44,1.59.08.27.2.53.25.81.15.81.27,1.62.41,2.43.09.54.15,1.08.26,1.62.17.86.35,1.72.56,2.57.23.92.49,1.84.76,2.75.17.58.17,1.2.43,1.76.05.1.02.23.04.35,0,.07.01.13.03.2.12.52.26,1.04.36,1.57.11.56.18,1.12.3,1.68.08.38.2.75.3,1.13.01.04.03.09.02.14-.05.34-.05.35.28.27.09-.2.11-.39-.13-.51.07-.09.12-.15.17-.22h-.07c-.03-.17-.07-.34-.1-.52-.02-.15-.02-.31-.05-.47-.07-.37-.17-.73-.23-1.1-.05-.34-.04-.68-.11-1.01-.09-.42-.25-.83-.34-1.25-.17-.82-.33-1.64-.47-2.47-.11-.59-.18-1.18-.29-1.76-.06-.35-.17-.68-.21-1.03-.05-.38-.33-.74-.13-1.1-.09-.19-.21-.35-.24-.52-.08-.44-.12-.89-.17-1.33-.04-.33.03-.71-.11-.98-.23-.45-.17-.91-.2-1.36-.01-.23-.03-.42-.22-.57-.07-.06-.14-.15-.15-.24-.07-.44-.09-.89-.17-1.33-.08-.43-.19-.86-.29-1.28-.09-.36-.17-.73-.26-1.09-.04-.15-.08-.3-.14-.49.12-.11-.03-.23-.08-.39-.13-.39-.08-.83-.33-1.19-.02-.03-.03-.07-.03-.11-.1-.61-.08-1.25-.46-1.79-.02-.03-.02-.07-.02-.11.07-.03.14-.05.14-.06-.05-.29-.1-.54-.15-.82h-.19c-.02-.11-.03-.21-.05-.31-.09-.34-.18-.68-.29-1.01-.18-.53-.36-1.06-.57-1.59-.22-.58-.49-1.14-.71-1.72-.16-.43-.27-.87-.43-1.3-.1-.29-.27-.55-.37-.84-.11-.28-.04-.45.24-.54.3-.09.61-.13.92-.17.38-.05.64.09.82.43.08.16.12.35.24.46.37.37.32.88.46,1.32.07.22.02.48.09.69.1.27.29.52.42.78.11.22.17.48.29.69.49.83.86,1.7,1.11,2.62.17.62.29,1.25.46,1.87.09.32.25.62.36.94.15.46.29.93.43,1.39.17.58.36,1.15.49,1.73.04.2.33.54-.25.62.45.26.49.65.52,1.04-.02,0-.07,0-.16-.02.54.83.35,1.8.66,2.67-.1.05-.19.1-.31.17.34-.04.38.22.43.4.19.63.35,1.27.52,1.91.22.87.45,1.74.64,2.62.09.4.07.83.19,1.21.1.31.19.63.28.94.17.59.43,1.15.64,1.73.16.45.37.89.44,1.35.05.31.15.59.22.88.13.55.25,1.11.37,1.67.09.4.18.8.26,1.2.04.21.01.46.12.62.27.37.24.83.43,1.22.32.67.12,1.43.33,2.13.16.54.2,1.12.29,1.69,0,.04.01.09.04.11.24.2.19.49.2.74.06.94.14,1.87.53,2.74.18.41.15.47-.18.74-.02.01-.01.05,0,.01.18.23.37.4.46.61.08.21.08.46.08.69.02.42.05.44.46.5.12.02.33.18.31.22-.12.44.12.8.24,1.18.06.19.09.36.1.57.01.3.14.59.22.88-.02,0-.05.02-.07.03-.22-.34-.3-.79-.63-1.05.03.25.08.48.12.72.02.13-.02.29.04.39.18.33.4.64.6.95.03.05.06.11.06.16-.01.47.05.91.18,1.36.18.61.31,1.23.46,1.85.19.81.38,1.62.55,2.44.03.16-.07.38,0,.5.22.33.2.69.28,1.04.09.42.32.8.29,1.25-.01.2.04.42.12.61.18.41.29.83.35,1.27.03.2.04.4.06.61l-.1.06c-.06-.06-.13-.13-.19-.19-.01.26-.05.52-.03.78.03.61.24,1.2.1,1.82-.01.05.05.12.07.18.02.07.04.14.05.21.01.13-.02.29.04.39.15.24.18.49.2.77.01.32.11.64.18.95.04.19.12.36.15.55.04.25.15.46.23.69.12.37.16.77.25,1.15.13.54.27,1.07.41,1.61.15.59.29,1.19.46,1.78.16.55.38,1.09.39,1.68,0,.05.06.11.09.16-.03,0-.06-.01-.1-.02-.04.15-.07.3-.11.44.03.01.05.02.08.03.05-.11.1-.22.14-.33.03,0,.06,0,.09,0,.16.47.29.96.49,1.41.18.4.21.88.58,1.19.11.09.25.24.24.36-.03.31.07.57.19.84.15.33.36.66.37,1,0,.23.07.32.19.39,0,.14,0,.25.03.34.19.55.39,1.11.61,1.65.2.5.2.6-.26.91-.22.15-.16.21.02.33.35.24.6.55.72.97.07.27.04.53.06.79.02.35.15.71.3,1.04.28.59.47,1.2.53,1.85.02.22.05.43.29.38.09.26.16.49.25.74-.46.26-.66.65-.45,1.2.02.05,0,.15-.05.19-.36.37-.73.74-1.1,1.1-.08.08-.19.15-.32.25-.08,0-.23-.02-.37-.04-.02-.04-.03-.09-.05-.13.08-.01.16-.02.24-.04-.03-.05-.06-.09-.09-.14-.11.29-.43-.06-.54.2-.13.06-.24.09-.33.16-.33.27-.63.6-.99.81-.48.29-1,.53-1.52.73-.96.36-1.93.7-2.91.99-.59.17-1.2.25-1.8-.02-.11-.05-.28-.1-.34-.05-.23.19-.47.09-.68.03-.65-.19-1.29-.42-1.93-.63.01-.04.02-.07.04-.11.52.14,1.05.28,1.57.42,0-.01,0-.02.01-.03-.09-.05-.17-.09-.26-.14,0-.02,0-.04,0-.07.1,0,.2-.02.34-.03-.13-.11-.22-.18-.31-.26,0-.03,0-.05.01-.08h1.18s0-.08,0-.13c-.16-.02-.31-.05-.47-.04-.72.05-1.44.03-2.12-.25-.28-.12-.56-.49-.56-.77-.1-.03-.19-.05-.31-.09.1-.1.17-.18.21-.22-.16-.16-.43-.41-.41-.44.16-.22-.04-.26-.11-.31v-.59c-.02-.11,0-.22-.03-.31-.07-.22-.2-.43-.23-.65-.07-.43-.22-.72-.69-.82-.24-.05-.31-.04-.28.2.01.09.02.19.05.28.2.49.39.97.44,1.51.01.17.11.33.16.5.05.16.1.31.15.47-.03,0-.05-.01-.08-.02-.07.1-.2.22-.18.3.11.35.26.69.39,1.04-.05.03-.13.07-.28.16.2-.03.32-.05.48-.08-.2.17-.39.3-.52.47-.14.2-.26.33-.5.17-.04-.08-.07-.17-.12-.27-.22.1-.41.21-.62.26-.48.12-.97.21-1.46.29-.38.06-.77.04-1.13.15-.47.14-.92.22-1.41.08-.24-.07-.41.08-.34.25.09.19.2.38.47.37.43-.01.87-.01,1.3,0,.1,0,.2,0,.28.04.24.1.46.3.74.11.04-.03.11,0,.17,0,.35.01.71.07,1.05.02.3-.04.59-.2.89-.29.11-.03.27.03.35-.03.31-.23.62-.48.88-.76.15-.17.19-.43.26-.6.68.44,1.36.87,2.04,1.3.13.08.27.16.42.21.8.26,1.64.31,2.46.19,1.15-.16,2.3-.39,3.43-.69.69-.18,1.42-.26,2.04-.68.26-.18.61-.24.89-.41.76-.45,1.52-.9,2.26-1.38.43-.28.81-.64,1.21-.97-.01-.02-.02-.04-.04-.06h-.17c.07-.3.27-.28.51-.22.61.16,1.21.29,1.85.33,1.34.07,2.64-.04,3.94-.36.13-.03.24-.13.37-.17.39-.12.87.03,1.18-.38.01-.02.06-.01.08-.01.22,0,.38-.08.54-.24.1-.1.26-.13.39-.2.18-.09.35-.2.53-.3.08-.05.17-.09.25-.15.49-.4.97-.81,1.47-1.19.72-.56,1.37-1.18,1.93-1.9.17-.22.36-.46.42-.73.14-.59.54-.95,1-1.26.28-.19.64-.26.96-.42.21-.1.39-.26.59-.39-.02-.03-.03-.06-.05-.09-.1.02-.19.04-.29.06-.29.06-.58.15-.8-.15-.07-.09-.12-.22-.21-.26-.23-.1-.47-.18-.73-.04-.05.03-.21-.02-.22-.07-.09-.27-.19-.54-.23-.82-.08-.45-.06-.46.36-.33.05.02.1.06.16.07.23.04.45.08.71.13,0-.02,0,.05,0,.11.13-.03.25-.05.36-.09.12-.05.29-.08.35-.18.17-.26.44-.29.66-.25.25.04.43,0,.6-.16.18-.17.41-.31.55-.51.28-.37.8-.56.81-1.12,0-.02.03-.05.05-.07.26-.25.25-.54.04-.83ZM31.49,22.56c-.01.12,0,.25,0,.31-.9-.07-1.8-.05-2.65-.25-.91-.21-1.78-.13-2.75-.06,1.4-1.36,2.92-2.42,4.57-3.31.02.02.04.04.06.06-.05.11-.11.21-.18.34.35.16.39.49.4.83,0,.07.07.14.12.21.03.04.08.06.1.1.25.56.38,1.15.32,1.77ZM34.9,41.34c-.23.22-.51.39-.8.56l.89-1.43s.07.02.1.03c-.05.28.05.61-.19.84ZM47.92,25.44c-.02-.17,0-.34,0-.52.03-.01.06-.03.09-.04.06.11.17.21.17.32,0,.78-.03,1.57-.06,2.36-.36.03-.43-.06-.38-.32.12-.59.26-1.18.19-1.8ZM48.17,24.3s-.05,0-.08-.01c.1-.58.2-1.16.31-1.78.21.22.05,1.23-.23,1.79ZM50.44,20.34c.28.03,4.28,3.21,4.64,3.68-.96-.36-1.92-.14-2.85-.27-.91-.13-1.81-.06-2.78-.05.33-1.14.66-2.25.99-3.35ZM49.24,18.97s.05.02.08.03c0,1.21-.44,2.31-.75,3.45l-.13-.03c.08-.31.15-.62.23-.93.09-.39.22-.77.27-1.16.02-.2-.11-.42-.18-.64.16-.24.32-.48.48-.72ZM32.79,17.64c.25-.24.5-.51.8-.66,1.34-.67,2.56-1.53,3.74-2.42.05-.04.11-.07.16-.1.23-.46.58-.89.88-1.27.4-.51.84-1.03,1.38-1.4.53-.36,1.12-.26,1.65.06.88.53,1.53,1.34,2.2,2.11.55.39,1.07.84,1.56,1.3.75.71,1.44,1.49,2.07,2.31.45.33.89.65,1.34.97.14.1.18.18.09.34-.19.33-.38.66-.53,1.01-.11.26-.13.55-.21.82-.1.32-.25.63-.31.96-.05.33-.03.67-.01,1.01.02.49-.09.59-.59.65-.99.13-1.93-.17-2.89-.28-.58-.06-1.15-.11-1.73-.17-.85-.09-1.7-.19-2.56-.26-1.26-.1-2.51-.18-3.77-.27-.2-.01-.39-.03-.58-.08-.09-.02-.23-.11-.24-.19-.06-.31-.31-.59-.16-.93.01-.02.01-.06,0-.08-.13-.24-.27-.47-.41-.7-.2-.33-.41-.66-.6-1-.03-.05.02-.15.04-.26-.08-.06-.19-.15-.3-.24-.03-.03-.09-.08-.08-.11.08-.26-.19-.34-.27-.51-.11-.23-.29-.39-.62-.33-.19.03-.14-.19-.05-.27ZM47.05,24.08c-.15-.21-.35-.1-.61-.05-.44.08-.9.06-1.35,0-.49-.05-.99-.11-1.44-.29-.69-.27-1.4-.22-2.11-.29-.14-.01-.29-.04-.42-.06.53,0,1.06-.02,1.6,0,1.25.05,2.49.12,3.74.19.24.01.47.03.71.03.14,0,.28-.04.42-.06.19.52-.2.48-.54.51ZM47.18,25.02c-.11.31-.2.63-.37.9-.26.39-.18.85-.3,1.26-.05.18-.07.23-.27.23-.72,0-1.44-.04-2.15.04-.64.08-1.27.3-1.9.45-.09.02-.19.02-.28.02-.11,0-.24-.07-.26.13,0,.02-.03.05-.06.06-.81.17-1.61.45-2.46.14-.33-.12-.71-.15-1.07-.19-.23-.03-.47,0-.71,0,0,0,0,.02,0,.03-.33,0-.67,0-1,0-.26,0-.41-.05-.45-.36-.15-1.14-.33-2.28-.5-3.41-.03-.21.04-.32.25-.33.52-.01,1.04-.06,1.56-.03,1.07.04,2.15.1,3.22.18.76.06,1.52.2,2.28.27.87.08,1.75.12,2.62.17.53.03,1.06.04,1.59.07.28.02.35.12.26.38ZM32.48,20.6c-.04-.15-.18-.29-.28-.42-.26-.35-.14-.75-.2-1.13.03-.02.05-.05.08-.07.19.18.45.33.56.55.25.51.41,1.05.62,1.58.08.21.22.39.28.6.1.32.16.65.25,1.03-.32-.02-.55-.04-.77-.06-.18-.71-.34-1.4-.53-2.09ZM33.98,28.24c-.23-.24-.4-.5-.43-.86-.02-.26-.2-.5-.25-.75-.15-.83-.27-1.66-.4-2.49,0-.03.01-.07.02-.11h1.37c.08.37.16.73.26,1.1.12.47.33.92.37,1.4.04.5-.03,1.02-.12,1.52-.08.46-.49.54-.82.2ZM44.87,37.22c-1.22.13-2.5.14-3.71-.07-.68-.12-1.34-.22-2.04-.17-.53.03-1.05.07-1.57.04-.1.1-.24.17-.43.15-.69-.05-.99-.66-1.2-1.24-.21-.58-.32-1.19-.45-1.8-.24-1.18-.76-2.31-1.02-3.49-.13-.31-.24-.63-.33-.95-.05-.16-.06-.33-.04-.49,0-.07.11-.16.18-.19.47-.15.96-.16,1.45-.08,0,0,0,0,.01,0,.01,0,.02-.02.04-.02.5-.21,1.05-.16,1.58-.1.23,0,.45,0,.68,0,.76.02,1.51.11,2.27.1.42,0,.85-.15,1.27-.23.36-.07.71-.16,1.07-.2.73-.1,1.47-.19,2.2-.25.35-.03.73.12,1.07.06.42-.08.77.21,1.2.08.29-.08.65.1.98.18.03,0,.06.14.05.21-.08.41-.13.84-.27,1.23-.28.82-.59,1.63-.89,2.44-.06,1.06-.11,2.11-.26,3.16-.15,1.05-.82,1.52-1.84,1.63ZM50.95,128.54s-.03-.06-.05-.1c.06-.05.11-.09.19-.16-.06-.02-.12-.04-.26-.09.44-.13.81-.24,1.17-.36,0-.03,0-.06,0-.08.07.05.14.1.2.15.03.05.05.1.07.13-.45.17-.89.34-1.33.51ZM68.99,81.56c-.34-.06-.65-.87-.72-1.72.24.57.48,1.15.72,1.72ZM60.73,97.09s.07-.02.1-.02c.25.96.5,1.91.75,2.87-.03,0-.06,0-.09.01-.3-.94-.63-1.87-.76-2.86ZM61.55,102.39c.25-.18.37-.48.78-.4-.13.09-.22.14-.32.21.07.18.14.35.21.52h-.34c.09-.34.08-.35-.34-.33ZM62.18,103.42c-.03-.08-.04-.17,0-.27-.07-.1-.13-.19-.2-.3.11-.05.18-.09.25-.13,0,0,0,0,0,0,.07.26.14.53.21.8-.03.01.02,0,.06-.03,0,.01.02.03.02.04-.03.13-.06.25-.09.38-.06-.11-.11-.22-.17-.33-.03-.06-.06-.11-.08-.17ZM62.35,104.16s.05-.02.08-.03c.03.04.07.07.09.12.1.2.21.41.29.62.05.14.05.3-.21.33-.09-.36-.17-.7-.25-1.03ZM63.67,108.59c-.23-.7-.46-1.39-.69-2.09-.09-.27-.18-.55-.26-.82-.01-.04.04-.12.08-.16.02-.01.12.03.13.07.05.17.07.34.13.51.03.09.13.15.15.24.15.57.3,1.14.43,1.71.04.18.06.36.09.54-.02,0-.04,0-.07,0ZM67.05,119.25c.32.74.64,1.47.98,2.26-.4-.2-1.09-1.86-.98-2.26ZM77.93,122.38c.17-.21.33-.44.53-.61.25-.22.54-.4.82-.59.07-.05.16-.06.26-.06-.56.4-.94,1.03-1.61,1.27ZM80.34,119.84c0,.27-.19.36-.37.48-.27.2-.54.4-.79.62-.18.15-.28.35-.6.3-.2-.03-.43.12-.69.2.31.28.52-.29.76.02-.21.12-.42.23-.63.35.1.31-.26.41-.42.68.12-.04.21-.06.29-.08-.15.16-.31.31-.52.53.02-.15.03-.2.05-.28-.34.25-.65.52-.98.71-.36.21-.75.35-1.14.54,0,0,.02.04.06.11-.41-.06-.79-.11-1.23-.18.42-.22.78-.41,1.15-.61,0-.01-.01-.03-.02-.04-.39.17-.78.36-1.18.51-.85.32-1.71.58-2.64.57-.58,0-1.16.08-1.73,0-.45-.06-.9-.27-1.32-.46-.15-.07-.21-.31-.31-.48-.13-.21-.25-.43-.35-.6.19-.13.38-.26.63-.44.52.21.95.78,1.67.89-.39-.35-.74-.68-1.09-1-.31-.28-.4-.66-.46-1.06-.03-.2-.11-.39-.19-.58-.3-.68-.67-1.33-.9-2.03-.18-.54-.51-.99-.66-1.53-.05-.19-.2-.41-.02-.58-.1-.29-.21-.58-.3-.88-.01-.05.07-.13.12-.21-.08-.13-.38-.22-.14-.46-.05-.05-.11-.1-.16-.15.02-.15.13-.24-.02-.44-.16-.22-.33-.5-.31-.84,0-.16-.15-.33-.21-.5-.05-.14-.06-.28-.1-.47-.1-.06-.35-.07-.15-.38.07-.1-.04-.31-.07-.48-.02-.16-.03-.32-.06-.47-.01-.06-.06-.12-.11-.16-.31-.24-.27-.61-.34-.93,0-.03.05-.07.04-.05-.15-.33-.31-.64-.42-.97-.07-.21.02-.51-.1-.65-.3-.35-.11-.81-.36-1.15-.02-.03,0-.11.03-.15.08-.15,0-.22-.04-.36-.04-.2-.29-.27-.22-.57.05-.24-.24-.55-.38-.85.04-.08.1-.2.18-.39-.16.03-.24.04-.26.05-.1-.55-.25-1.08-.28-1.62-.04-.62-.38-1.12-.5-1.7-.15-.74-.35-1.47-.51-2.21-.06-.29-.16-.54-.37-.76-.11-.11-.17-.3-.2-.47-.06-.28-.25-.55-.15-.85.06-.16.16-.32.28-.44.02-.21.07-.42.05-.62-.03-.26-.11-.51-.18-.77-.08-.27-.18-.54-.27-.82-.08-.25-.14-.5-.2-.75-.03-.1-.03-.21-.05-.32-.03-.17-.06-.33-.08-.44-.02-.18-.02-.3-.05-.42-.05-.27-.13-.55-.15-.82-.03-.39.02-.8-.04-1.18-.03-.23-.21-.44-.33-.69,0,0,.07-.03.13-.05-.04-.22-.05-.45-.12-.66-.14-.43-.08-.92-.39-1.31-.04-.05.02-.19.04-.31-.03,0-.1-.03-.17-.06.15-.21-.27-2.11-.45-2.28-.04-.31-.06-.53-.09-.78-.23-.18-.29-.4-.18-.67-.19-.15-.34-.31-.23-.58,0-.02,0-.06-.02-.08-.37-.31-.17-.87-.53-1.19.13-.24-.17-.39-.14-.67.03-.29-.22-.62-.36-.97,0,0,.09-.1.06-.15-.04-.07-.15-.11-.24-.16.17-.08.22-.17.04-.35-.09-.09-.06-.29-.1-.43-.01-.06-.05-.12-.08-.17-.02-.04-.07-.1-.06-.11.19-.26-.11-.26-.21-.39.15-.16.18-.29-.06-.42-.15-.07-.2-.57-.1-.68-.06-.14-.44-.16-.19-.46.04-.05-.12-.27-.18-.42-.03-.08-.02-.18-.03-.32.11.05.17.07.23.1-.43-.27-.32-.75-.43-1.13-.05-.17,0-.37,0-.48-.05-.27-.1-.47-.11-.66-.02-.43,0-.87-.01-1.3,0-.06-.02-.12-.03-.17-.18-.65-.35-1.3-.54-1.95-.04-.15-.11-.3-.14-.45-.03-.14-.03-.28-.06-.42-.01-.07-.06-.14-.08-.21-.03-.08-.05-.16-.08-.24.03-.02.06-.03.09-.05-.09-.06-.17-.11-.21-.14-.05-.17-.08-.29-.11-.41-.09-.37-.21-.74-.25-1.12-.05-.45-.23-.86-.36-1.28-.16-.54-.35-1.06-.5-1.6-.23-.88-.42-1.77-.64-2.65-.08-.33-.2-.65-.29-.98-.05-.2-.06-.41-.11-.61-.16-.58-.36-1.14-.5-1.73-.3-1.2-.58-2.41-.85-3.62-.28-1.28-.51-2.56-.81-3.83-.17-.71-.44-1.4-.64-2.1-.17-.61-.37-1.23-.44-1.86-.04-.37-.24-.67-.28-1.02-.03-.24-.09-.47-.15-.7-.06-.24-.14-.47-.22-.75.98.78,1.76,1.69,2.5,2.63.19.25.37.5.53.77.08.14.09.32.15.47.07.18.17.35.23.54.16.5.32,1.01.47,1.51.27.89.55,1.78.81,2.68.13.46.24.92.36,1.39.12.44.24.88.34,1.33.02.07-.04.16-.06.25.2.13.45.6.48.89,0,.07.07.14.1.21.18.59.35,1.17.54,1.76.03.11.14.19.18.24.03.13.04.22.07.31.07.19.16.38.24.57.07.17.21.27.25.48.04.21.26.4.43.57-.15-.7-.54-1.31-.63-2.07-.08-.11-.25-.26-.34-.45-.24-.55-.45-1.12-.66-1.69-.09-.25-.14-.51-.22-.84,0,0-.07-.03-.16-.08.06-.08.11-.15.19-.24-.1-.07-.18-.13-.23-.16.06-.31-.11-.5-.29-.7.56-.27.29-.7.2-1.08-.08-.36-.17-.73-.28-1.08-.19-.64-.31-1.3-.63-1.9-.03-.05-.02-.13-.04-.24.09.06.15.08.17.12.26.37.54.72.77,1.1.37.59.7,1.2,1.06,1.79.39.63.81,1.26,1.22,1.88.31.47.64.94.93,1.42.3.5.57,1.02.87,1.51.75,1.23,1.51,2.45,2.26,3.68.23.37.45.75.66,1.13.22.39.45.78.63,1.19.2.45.33.93.51,1.39.09.23.3.43.31.65.02.4.3.68.36,1.06.06.37.21.72.34,1.07.14.4.3.79.45,1.18.19.49.42.96.54,1.46.15.6.37,1.16.53,1.75.02.09-.02.2,0,.29.14.48.29.95.42,1.43.06.21.06.43.11.64.05.18.11.35.2.51.11.19.27.35.36.55.14.3.25.62.33.94.04.17-.02.35-.03.53,0,.04-.02.08-.01.11.14.47.28.94.44,1.4.16.46.35.91.51,1.37.33.95.66,1.9.98,2.85.17.51.37,1.01.52,1.52.2.72.36,1.44.53,2.17.12.53.2,1.08.33,1.61.13.51.31,1.01.44,1.52.12.47.2.95.31,1.42.07.29.14.59.23.87.26.76.49,1.53.7,2.31.14.55.3,1.1.47,1.64.19.62.43,1.22.61,1.84.17.56.28,1.14.44,1.7.07.25.22.48.3.73.18.52.33,1.04.5,1.56.02.07.06.13.07.19.02.13.03.25-.03.39.15.42.3.85.45,1.27.08.22.27.43.26.65,0,.54.33.95.46,1.44.15.56.45,1.08.65,1.63.28.78.63,1.52,1.09,2.2.69,1.02,1.39,2.02,2.06,3.05.21.32.44.6.78.79.17.09.38.24.11.49.29.15.36.35.42.67.06.37-.05.72.06,1.09.09.32.03.7.03,1.05,0,.43-.02.86-.01,1.29,0,.08.06.16.05.23-.01.14-.04.27-.03.41ZM80.98,118.43s-.06,0-.09,0v-.96c.42.31.07.64.09.95ZM84.51,113.56c.06.03.13.07.25.14-.13.03-.2.05-.29.08.05.08.1.15.17.26-.13-.01-.23-.02-.33-.03,0,.01-.01.03-.02.04.05.03.1.07.17.11-.13.11-.3.19-.39.33-.05.08,0,.2-.12.3-.27.24-.57.19-.86.12-.65-.15-1.31-.32-1.95-.51-.26-.08-.49-.23-.73-.35-.04-.02-.08-.08-.12-.07-.38.07-.59-.23-.77-.45-.73-.89-1.41-1.81-2.11-2.72,0-.01,0-.04,0-.12.15.17.25.31.37.43.23.25.48.48.71.73.19.21.35.44.54.65.06.07.17.1.26.15.02-.02.03-.05.05-.07-.33-.43-.66-.86-.99-1.3.04,0,.1-.02.14-.03-.9-1-1.5-2.19-2.04-3.41-.31-.69-.59-1.39-.86-2.09-.11-.29-.16-.61-.27-.9-.16-.46-.33-.91-.5-1.37-.09-.25-.19-.49-.25-.65,0-.21.03-.34,0-.45-.18-.52-.34-1.04-.38-1.6,0-.14-.08-.28-.13-.41-.26-.79-.53-1.58-.78-2.37-.1-.32-.15-.66-.25-.99-.13-.41-.29-.81-.42-1.22-.17-.54-.33-1.09-.49-1.63-.22-.73-.43-1.45-.64-2.18-.19-.65-.37-1.3-.55-1.95-.03-.13,0-.27,0-.4,0-.07.03-.15,0-.2-.3-.48-.3-1.03-.38-1.56-.05-.34-.2-.66-.28-.99-.22-.89-.42-1.78-.65-2.67-.13-.51-.31-1.01-.47-1.51-.08-.24-.16-.48-.23-.72-.01-.05.02-.12.04-.18.06.03.13.05.16.09.05.09.08.2.11.3.2.55.4,1.1.59,1.66.26.76.49,1.52.77,2.27.16.43.38.84.56,1.26.37.86.71,1.73,1.1,2.58.29.62.64,1.21.94,1.83.15.31.34.65.37.98.05.78.5,1.4.73,2.1.16.48.24.99.39,1.48.08.26.22.51.32.76.07.17.11.34.19.51.14.31.3.61.42.92.15.41.26.84.42,1.25.08.21.22.38.32.58.11.23.16.48.28.7.26.49.55.97.84,1.44.22.36.45.74.72,1.07.46.55.76,1.21,1.21,1.76.1.12.14.29.21.43.06.13.11.27.19.39.33.53.66,1.07,1.01,1.59.12.18.31.31.44.48.43.54.97.96,1.51,1.38.47.36.83.87,1.25,1.3.25.25.56.45.67.81.08.25.17.49.23.74.01.05-.06.12-.1.2.07.06.13.11.2.17-.06.04-.11.08-.18.12.09.1.17.19.3.35-.34-.13-.5,0-.59.26Z"/>
      <path class="cls-1" d="M2.31,113.79c-.29.08-.24-.17-.23-.28.02-.22-.06-.3-.25-.35-.45-.12-.9-.28-1.35-.39-.08-.02-.19.13-.28.2-.2-.45-.24-.96-.15-1.49.19-1.15.36-2.3.56-3.44.08-.46.29-.91.29-1.36,0-.74.42-1.4.35-2.15-.02-.2.05-.41.1-.61.23-.96.48-1.92.71-2.87.11-.44.13-.93.34-1.32.24-.44.3-.9.42-1.37.07-.02.15-.04.26-.07-.07-.1-.13-.18-.2-.28.09-.06.16-.1.16-.1.03-.34,0-.65.09-.91.18-.56.41-1.1.63-1.65.02-.05.09-.11.08-.15-.1-.42.25-.71.33-1.08.07-.31.09-.67.38-.91,0,0,0-.02.01-.03.14-.48.28-.95.43-1.43.03-.09.1-.18.15-.26.04-.07.12-.12.13-.19.06-.45.28-.82.53-1.19.19-.29.27-.66.42-.98.13-.28.3-.54.43-.83.07-.15.09-.33.14-.5.16-.44.31-.89.5-1.31.15-.33.36-.64.54-.95.04-.06.04-.14.07-.21.09-.24.18-.47.27-.71.08-.22.14-.44.23-.66.06-.15.15-.28.25-.45.06-.17.12-.39.21-.59.19-.39.47-.76.58-1.17.07-.26.25-.46.3-.68.08-.41.39-.68.5-1.03.08-.29.21-.54.31-.81.02-.05-.04-.14-.05-.16.14-.04.27-.2.25-.48,0-.1.03-.22.08-.31.2-.38.36-.79.64-1.11.38-.44.45-1.03.8-1.48.15-.19.19-.45.3-.67.19-.38.4-.76.61-1.12.27-.47.55-.94.85-1.4.25-.39.27-.38.54-.37-.09.2-.16.4-.27.58-.15.24-.35.46-.5.7-.07.12-.05.29-.12.42-.27.48-.57.96-.85,1.44-.14.24-.24.51-.39.75-.27.46-.38.98-.62,1.45-.09.18-.08.41-.13.62-.02.07-.06.14-.1.21-.25.43-.53.85-.75,1.3-.16.34-.22.73-.36,1.09-.12.3-.29.58-.44.87-.02.04-.06.07-.08.12-.29.67-.58,1.34-.86,2.01-.07.16-.31.25-.14.52.05.09-.19.35-.29.54-.13.25-.18.53-.37.77-.18.23-.16.59-.29.87-.15.32-.01.76-.45.94.03.01.06.03.09.04-.03.1-.04.2-.08.29-.13.35-.53.54-.58.95-.02.14-.07.28-.12.42-.27.75-.55,1.5-.82,2.25-.02.06-.04.14-.09.18-.41.4-.45.95-.61,1.45-.06.2-.18.39-.25.59-.25.68-.44,1.38-.76,2.02-.14.28-.11.56-.23.82-.04.08-.09.16-.14.23-.03.05-.09.13-.07.16.16.37-.07.63-.16.93,0,.1.02.2,0,.29-.05.23-.21.42-.11.69.04.1-.12.25-.15.38-.2.89-.39,1.78-.59,2.67-.06.25-.16.48-.22.73-.14.56-.26,1.12-.4,1.68-.15.6-.32,1.19-.48,1.79-.03.13-.08.25-.1.33.03.17.09.32.07.46-.14.89-.32,1.77-.43,2.66-.06.46-.01.93-.01,1.4.31-.13.31-.7.84-.53-.04.13-.08.26-.11.39-.04.18-.27.32-.06.55.03.03-.16.27-.26.42-.08-.03-.16-.06-.25-.09-.01.02-.02.04-.03.06.14.09.27.19.43.26.15.06.34.05.46.14.31.27.61.09.92.03.25-.05.26-.27.32-.43.46-1.1.92-2.2,1.35-3.3.4-1.02.61-2.1.85-3.17.13-.58.34-1.15.48-1.73.13-.52.19-1.06.32-1.58.05-.23.19-.43.29-.65.34-.7.53-1.45.62-2.21.04-.33.21-.59.26-.91.08-.48.23-.95.35-1.42.02-.07.02-.15.06-.19.35-.38.34-.88.46-1.35.03-.13.09-.26.13-.39.15-.5.3-1.01.46-1.51.18-.6.35-1.2.67-1.74.11-.18.24-.28.56,0-.11.05-.21.11-.32.15-.21.08-.26.23-.24.43.05.44,0,.85-.18,1.28-.22.56-.34,1.16-.53,1.73-.18.56-.42,1.09-.57,1.65-.08.31-.19.6-.3.89-.24.65-.63,1.25-.67,1.97,0,.09,0,.18,0,.28,0,.09.04.18.03.26-.07.28-.12.58-.23.84-.15.33-.22.65-.22,1.02,0,.3-.14.61-.21.92-.07.33-.11.67-.18,1-.04.24-.09.47-.15.7-.19.72-.39,1.43-.58,2.15-.06.24-.28.46-.11.74-.27.34-.29.79-.36,1.18-.12.62-.4,1.17-.61,1.74-.22.59-.54,1.14-.74,1.73-.16.48-.38.95-.35,1.48.02.22-.08.44-.09.66,0,.17,0,.36.06.5.15.31.18.63.24.96.01.08.06.16.12.22.28.28.57.56.87.82.09.08.22.16.33.16.61.04,1.22.01,1.82.08.77.09,1.43-.2,2.09-.52.64-.3,1.14-.77,1.53-1.34.14-.21.21-.46.33-.69.04-.07.12-.13.19-.19.19.48-.07.83-.21,1.2-.11.27-.11.29-.02.38-.4.25-.52.71-.84,1.09.44.04.75-.1,1.04-.29.03-.02.06-.08.07-.12.17-1.06.34-2.12.52-3.17.12-.74.25-1.47.37-2.21.04-.26.02-.53.06-.79.03-.16.12-.31.21-.45-.05-.37-.19-.73-.05-1.16.11-.32.03-.7.05-1.05.03-.42.09-.84.14-1.26.03-.27.03-.53.06-.8,0-.05.08-.09.17-.19-.03-.15-.17-.41.09-.63.04-.03,0-.14,0-.22-.01-.15-.07-.31-.05-.46.07-.42.13-.84.37-1.22.08-.12.04-.32.07-.47.01-.07.07-.13.12-.21-.01-.02-.06-.1-.1-.18.08-.01.15-.03.23-.04,0-.04-.01-.1-.02-.17.2.1.3.36.58.33-.1-.15-.15-.25-.22-.34-.05-.08-.1-.2-.17-.22-.33-.1-.29-.34-.27-.59.04-.46.09-.93.14-1.45.18.09.32.16.46.23-.13.24.02.36.2.41.18.05.18.15.17.29-.04.5-.07,1.01-.11,1.51-.01.16-.05.31-.08.51-.08-.09-.12-.13-.19-.2v.35c-.07.03-.15.07-.22.1,0,.02,0,.04,0,.05.1-.01.2-.02.27-.03-.19.48-.32.97-.31,1.52-.04.01-.1.04-.16.06.15.22-.08.51-.03.58.15.22-.18.39.01.61.07.08-.11.36-.17.55-.05.16-.22.3-.06.48,0,0,0,.02,0,.03-.2.29-.06.59-.06.89,0,.19-.02.39.03.58.07.3.03.57-.06.86-.08.25-.1.52-.14.78-.12.84-.24,1.69-.37,2.53-.02.14-.12.27-.14.41-.06.45-.09.91-.15,1.37-.03.24-.11.48-.15.72-.04.25-.05.5-.07.75,0,.03.02.07,0,.09-.29.45-.08.93-.04,1.38.04.4.04.84.33,1.21.12.16.09.44.13.66.09.5.19,1.01.28,1.51.02.1,0,.21-.04.32-.05.12.25.18.04.35-.01.01,0,.09.02.11.33.3.57.76,1.1.78.04,0,.1,0,.11.02.35.46.71.17,1.09.04.45-.16.93-.25,1.39-.38.32-.09.6-.23.8-.52.25-.37.22-.96-.08-1.2-.15.08-.29.15-.44.23-.02-.03-.03-.05-.05-.08.12-.1.23-.2.41-.36-.16.04-.24.05-.41.09.14-.15.23-.25.32-.34l-.06-.02c.05-.15.11-.29.15-.44.11-.35.21-.7.31-1.06.07-.26.11-.54.2-.8.27-.8.57-1.59.84-2.38.2-.6.37-1.21.56-1.82.08-.26.23-.52.26-.78.02-.17,0-.34.06-.52.15-.41.26-.84.38-1.26.15-.58.29-1.16.43-1.75.01-.05-.03-.12-.05-.19.06,0,.14.02.28.03-.11-.1-.18-.16-.29-.26.1,0,.16,0,.2.01.19.09.29,0,.34-.16.09-.27.14-.55.22-.81.07-.22.21-.43.27-.66.19-.67.35-1.35.52-2.03.02-.06.04-.12.13-.16-.17.67-.33,1.35-.51,2.02-.19.69-.41,1.37-.59,2.06-.28,1.09-.5,2.19-.81,3.27-.38,1.33-.81,2.64-1.25,3.95-.08.23-.2.41-.04.64.03.04-.05.15-.08.23-.1.23-.21.46-.3.69-.08.23.04.3.29.27-.08.08-.14.13-.14.13.03.15.08.25.06.33-.11.48-.27.95-.36,1.44-.04.18,0,.4.08.56.13.31-.09.55-.09.82-.01.44-.04.89-.07,1.33-.02.35.15.64.25.95.03.1-.12.26-.19.4-.03.06-.06.12-.09.18.07.03.14.07.21.08.61.08,1.23.15,1.85.21.8.08,1.61.25,2.41.18.82-.07,1.64-.29,2.4-.66.88-.44,1.66-1.01,2.44-1.6.14-.11.3-.22.46-.26.16-.03.35.01.52.05.1.02.18.12.28.13.26.03.51.07.72.26.34.32.61.69.72,1.16.05.2.14.39.22.58.02.05.05.09.04.14-.02.23.04.32.18.55.24.37.45.77.69,1.14.11.18.18.4.45.45.09.02.12.23.21.31.23.21.48.4.73.59.04.03.14-.04.3-.08-.11.16-.16.24-.23.35.13.04.25.07.34.1-.13.2-.25.38-.4.63.38.17.78.37,1.2.54.99.4,1.94.14,2.84-.27.6-.28,1.16-.66,1.73-1,.18-.11.31-.26.33-.52.03-.46.27-.6.71-.48.04.01.1.04.11.02.35-.32.75-.05,1.12-.1.25-.03.5-.09.78-.15-.19-.41-.43-.61-.78-.68-.27-.05-.54-.13-.81-.14-.3,0-.51.17-.65.43-.05.09-.2.21.13.24-.5.15-.91.27-1.31.4-.08.03-.15.1-.2.17-.23.34-.56.53-.92.7-.35.16-.69.36-1.04.54-.07.04-.15.06-.23.09-.02-.03-.04-.06-.07-.09.05-.03.11-.04.15-.08.53-.49,1.07-.97,1.58-1.47.21-.21.42-.37.72-.31.39.08.48-.28.69-.47.46-.4.94-.75,1.58-.62.36.07.72.18,1.05.34.16.08.27.31.35.49.09.21.14.42.41.48.03,0,.05.07.1.14-.14.02-.25.03-.36.04,0,.02-.01.04-.02.06.39.17.78.34,1.17.51-.05.11-.27.24.05.27.02,0,.04.04.05.07.12.18.22.37.35.54.11.15.24.28.38.4.06.06.15.08.25.13,0,.06-.02.16-.04.28.27.17.51.4.8.48.29.07.61-.01.92-.03,0,.03.01.07.02.1-.28.1-.56.2-.88.32.1.09.19.17.29.26-.18-.05-.36-.09-.59-.16.34.43.5.47.94.36.15-.04.34.01.48.08.41.2.83.27,1.27.16.86-.21,1.72-.43,2.58-.65.1.38-.07.69-.47.79-.42.1-.84.18-1.26.25-.85.13-1.7.11-2.56.03-.78-.07-1.42-.44-2.09-.77-.16-.08-.31-.17-.45-.26-.45-.3-.89-.62-1.35-.9-.21-.12-.46-.18-.69-.25-.25-.07-.5-.17-.75-.16-.29.01-.61.07-.87.21-.63.33-1.22.73-1.84,1.08-.2.11-.42.17-.63.26-.21.1-.42.21-.55.28-.23.09-.39.15-.55.21-.05.02-.1.03-.14.03-.82-.05-1.64-.07-2.45-.19-.44-.07-.84-.3-1.07-.78-.11-.22-.41-.35-.61-.53-.55-.49-1.09-1-1.42-1.67-.15-.3-.38-.57-.4-.95-.02-.26-.22-.51-.46-.69-.31-.23-.59-.5-.88-.74-.06-.05-.14-.07-.21-.08-.47-.01-.95-.04-1.41,0-.25.02-.48.17-.72.27-.05.02-.1.06-.15.07-.82.13-1.64.28-2.44.53-.54.17-1.14.21-1.72.23-1.02.03-2.05,0-3.15,0,.08-.15.11-.2.18-.33-.87.02-1.4-.54-2.04-1,.09-.01.14-.02.2-.02,0-.01,0-.03,0-.04-.16,0-.33-.02-.49-.02,0-.02-.01-.04-.02-.06.13-.08.26-.15.42-.25-.13-.38-.26-.76-.41-1.19-.34.13-.64.27-.96.36-.26.07-.54.12-.81.1-.43-.03-.86-.1-1.28-.2-.24-.06-.45-.22-.68-.34-.12-.06-.22-.16-.34-.21-.21-.1-.36-.22-.43-.48-.07-.25-.29-.46-.35-.71-.13-.5-.65-.84-.58-1.42.01-.12.04-.24.07-.41-.12-.05-.27-.11-.44-.18,0-.06,0-.13,0-.2.01-.09.03-.25.07-.25.51-.07.34-.5.4-.78.09-.37.08-.76.12-1.2-.45.24-.88.44-1.29.68-.32.19-.61.43-.91.66-.33.24-.72.24-1.09.29-.33.04-.66.08-.99.08-.63,0-1.27,0-1.9-.08-.5-.07-.98-.28-1.47-.45-.15-.05-.28-.17-.44-.28-.05.15-.1.28-.17.48-.45-.68-.52-1.36-.37-2.11-.28.1-.45-.41-.78.06-.02-.2-.03-.32-.04-.42-.07,0-.16-.02-.25-.02.04-.12.09-.24.13-.36.03,0,.06.01.09.02.03.07.06.14.08.21.02,0,.04,0,.06,0,.04-.2.09-.39.13-.59.03.31.12.56.42.79,0-.53.16-1-.18-1.49.05-.09.12-.24.22-.44-.14.01-.26.03-.38.04h0ZM28.97,122.77c-.29-.25-.58-.27-.89-.16-.26.09-.52.16-.77.27-.18.07-.36.16-.5.28-.2.17-.39.35-.62.5-.23.15-.43.36-.64.55l.05.09c.3-.12.64-.19.91-.36.61-.38,1.23-.64,1.96-.43.14.04.25.16.37.25-.1.14.05.36-.18.46-.06.02-.08.11-.15.2.24,0,.42-.02.6,0,.13.02.27.06.36.14.13.12.23.28.34.43.03-.01.05-.03.08-.04-.04-.08-.08-.16-.12-.25-.06-.15-.19-.33-.16-.46.06-.27-.02-.41-.19-.49.02-.19.04-.37.07-.59-.12.1-.2.16-.25.21-.09-.11-.14-.21-.23-.26-.17-.09-.17-.19-.03-.32ZM42.08,126.93c.01.13,0,.18.02.22.22.43.19.97.61,1.31.11.09.19.25.3.27.26.05.53.04.8.04.05,0,.09-.06.14-.09-.04-.05-.07-.13-.11-.14-.14-.03-.28-.03-.42-.04,0-.01,0-.03,0-.04.11-.03.22-.06.42-.1-.29-.1-.49-.17-.74-.26.11-.06.18-.09.23-.11-.15-.08-.3-.15-.44-.23.02-.02.05-.04.07-.05-.03-.09-.03-.21-.09-.26-.22-.17-.47-.32-.76-.52ZM29.33,122.45c-.15-.36-.37-.52-.73-.54,0,.08,0,.15.02.17.22.12.45.23.72.37Z"/>
      <path class="cls-1" d="M43.39,67.72c-.03-.14-.07-.28-.08-.42-.07-.74-.15-1.49-.2-2.24-.07-1.09-.1-2.18-.17-3.26-.09-1.31-.2-2.62-.32-3.93-.09-1.04-.19-2.07-.31-3.11-.06-.51-.17-1.01-.23-1.52-.04-.35,0-.7-.02-1.05,0-.13-.02-.25-.03-.38-.04-.55-.09-1.1-.12-1.66-.03-.49-.08-.96-.39-1.37-.07-.09-.1-.23-.1-.35-.02-.52-.01-1.04-.02-1.57,0-.04-.01-.09-.02-.13h-.08c-.05.47-.1.94-.15,1.41-.02.23-.07.47-.04.69.08.53-.18,1.02-.14,1.55,0,.07-.01.14-.01.2,0,.62.01,1.23,0,1.85-.01.42-.09.83-.11,1.24-.01.34.06.68.03,1.01-.05.51-.16,1.02-.26,1.52-.06.28-.15.55-.22.83-.17.73-.38,1.45-.5,2.19-.16.99-.25,1.99-.37,2.98-.08.7-.17,1.41-.24,2.11-.03.32-.04.65-.07.97-.02.21-.07.42-.09.63-.01.12,0,.23,0,.35,0,.06,0,.11-.01.17-.02.11-.1.26-.06.32.12.16.02.29,0,.43-.03.16-.05.31-.08.47-.07.34-.16.68-.22,1.02-.13.72-.24,1.44-.37,2.15-.1.55-.23,1.09-.32,1.63-.11.62-.18,1.25-.3,1.87-.09.48-.24.94-.34,1.41-.02.11.05.23.03.34-.08.49-.17.98-.25,1.47-.01.08,0,.18.02.26.08.34-.05.61-.26.83.07.23.16.45.2.68.01.06-.09.16-.16.21-.14.1-.2.19,0,.29-.21.19-.25.42-.27.68-.02.29-.1.57-.19.85-.27.86-.55,1.72-.83,2.58-.01.03-.04.06-.02.04.05.14.14.28.11.32-.12.14.16.5-.16.47-.05.14-.09.24-.13.34h0c-.05-.17-.08-.36-.16-.53-.17-.38.12-.68.14-1.03.02-.34.11-.67.17-1.01.03-.19.07-.37.1-.56-.18.23-.36.47-.56.74.09.2.04.29-.3.41.13-.33.1-.69.49-.85.1-.04.13-.22.17-.38-.12.07-.24.14-.41.25.16-.37.62-.38.72-.71-.02-.03-.05-.05-.07-.08l-.39.31s-.03-.03-.05-.05c.22-.25.43-.51.69-.81-.16.04-.26.06-.39.1.03-.05.03-.09.05-.09.46-.08.54-.41.55-.81,0-.18.07-.35.08-.53,0-.12-.02-.24-.04-.43.32-.15.43-.52.5-.9,0-.05-.08-.12-.06-.18-.02-.21-.03-.42-.05-.63,0-.07-.05-.14-.04-.2.05-.3.1-.6.16-.9.1-.54.2-1.07.28-1.62.02-.11-.07-.24-.12-.41.27-.29.15-.75.17-1.16.02-.29.03-.57.07-.86.09-.54.1-1.1.15-1.65.03-.28.07-.57.13-.85.02-.08.08-.16.14-.22.23-.23.24-.23,0-.44.19-.21.21-.43.15-.72-.04-.2.14-.44.21-.67.07-.25.12-.5.17-.75.03-.13.05-.25.07-.38,0-.05-.03-.1-.04-.1.07-.21.18-.42.2-.62.02-.28-.04-.57-.04-.85,0-.11.08-.21.13-.35.03.01-.01,0,0,0,.11-.6.24-1.2.33-1.79.18-1.12.36-2.23.51-3.35.09-.66.09-1.33.18-1.99.07-.48.22-.94.32-1.42.06-.27.09-.54.12-.81.14-1.08.28-2.17.4-3.25.04-.34.02-.69.06-1.03.06-.64.14-1.29.2-1.93.1-1.05.21-2.09.3-3.14.05-.64.08-1.28.12-1.92,0-.14,0-.29,0-.48-.03-.08-.09-.22-.11-.37-.12-1.02-.22-2.05-.34-3.07-.04-.35-.11-.7-.14-1.07.07.14.2.27.21.42.03.39.26.66.45.97.2.33.25.77.34,1.16.06.27.11.55.13.83.08.76.14,1.52.21,2.27.07.71.12,1.42.21,2.13.09.77.2,1.53.3,2.3.04.31.13.62.16.94.04.43.02.86.05,1.28.03.46.08.92.13,1.37.07.61.18,1.22.22,1.84.1,1.35.16,2.69.24,4.04.06.98.16,1.95.21,2.93.04.85.02,1.7.04,2.56.02.99.06,1.99.08,2.98,0,.25-.03.5-.04.75h0Z"/>
      <path class="cls-1" d="M31.84,71.8c-.07.17-.11.26-.15.37.12.03.21.06.36.1-.06.1-.14.19-.17.28-.1.3-.19.61-.26.92-.08.33-.08.68-.2.99-.26.64-.33,1.33-.55,1.99-.22.68-.39,1.38-.63,2.05-.23.66-.55,1.29-.79,1.94-.18.47-.31.96-.45,1.45-.2.7-.41,1.39-.59,2.09-.16.64-.28,1.29-.45,1.92-.17.61-.41,1.21-.57,1.82-.2.75-.35,1.52-.52,2.28-.03.15-.09.29-.15.48.02.02.09.08.19.17-.33-.05-.39.21-.37.34.05.28-.06.43-.27.59.06.06.12.11.18.16-.2.15-.24.32-.18.57.03.15-.03.37-.14.48-.19.21-.25.42-.31.69-.1.48-.37.93-.55,1.39-.11.28-.16.58-.26.86-.27.79-.56,1.57-.83,2.36-.34.97-.66,1.94-1.01,2.91-.32.9-.65,1.79-.97,2.69-.18.52-.36,1.04-.52,1.57-.08.25-.24.4-.52.42.07-.06.12-.09.18-.14-.06-.07-.12-.13-.18-.19-.05-.06-.09-.12-.11-.15.1-.22.19-.42.28-.63.12-.28.28-.56.32-.85.02-.16.07-.28.14-.43.13-.28.2-.59.29-.89.02-.07.02-.14.04-.2.29-.85.57-1.7.87-2.54.22-.61.5-1.2.71-1.82.14-.44.32-.87.22-1.37-.05-.25.06-.53.11-.79,0-.02.08-.03.11-.05.04-.03.1-.07.11-.11,0-.04-.04-.09-.06-.12.07-.22.14-.45.22-.68.1-.28.2-.56.3-.84.23-.62.44-1.25.68-1.86.19-.48.45-.93.64-1.4.26-.67.69-1.28.79-2.02.02-.13.11-.25.19-.4-.02-.01-.08-.06-.16-.13.12-.05.21-.09.35-.15-.14-.1-.28-.19-.41-.29,0-.02,0-.03,0-.05.11.01.22.03.35.05-.22-.26-.21-.52.05-.85v.35s.03-.02.05-.03c.06.1.11.19.18.3.19-.81.37-1.62.56-2.43-.08-.04-.17-.09-.27-.14.01-.02.02-.04.03-.07.07.03.14.06.22.09.02-.01.05-.03.07-.04-.04-.1-.08-.2-.13-.31.03,0,.1-.03.22-.07-.08-.07-.12-.11-.16-.14.07-.04.15-.07.19-.12.04-.05.04-.13.07-.23.02-.1.03-.25.07-.39.24-.78.47-1.56.73-2.33.17-.5.41-.98.58-1.48.14-.41.22-.83.34-1.25.12-.43.25-.85.36-1.27.07-.28.11-.56.19-.83.13-.44.28-.87.42-1.31.11-.34.26-.69.28-1.04.01-.2.17-.36.1-.6-.07-.21,0-.47.03-.71.06-.37.23-.75.18-1.11-.06-.48.06-.91.25-1.3.24-.49.27-1.01.42-1.51.03-.11.02-.23.04-.38.02,0,.09-.03.15-.05-.03-.01-.05-.03-.08-.04.08-.19.11-.43.25-.58.38-.42.45-.97.66-1.45.02-.05-.04-.14-.05-.17.07-.1.16-.17.19-.26.15-.47.16-.98.43-1.42.06-.09.03-.28.12-.4.06-.08.12-.16.17-.24.04-.06.07-.12.08-.19.02-.18.02-.37.05-.55.09-.45.2-.89.29-1.34.04-.21.07-.41.24-.57.11-.1.18-.27.22-.43.14-.62.33-1.21.64-1.77.19-.34.25-.76.37-1.13.06-.19.14-.37.22-.59-.01,0-.07-.06-.12-.1.28-.93.55-1.84.84-2.8,0,0-.05-.06-.11-.13h.25c.04-.09.09-.18.11-.28.1-.47.19-.95.31-1.42.02-.09.12-.16.2-.25-.06-.03-.12-.05-.17-.07.16-.35.32-.69.47-1.03.06-.14.12-.25.06-.46-.07-.24.08-.55.14-.82.06-.25.15-.5.17-.75.09-1.25.14-2.5.24-3.74.04-.55.17-1.1.27-1.66.15,0,.27-.02.42-.02.12.41,0,.81-.04,1.21-.12,1.17-.22,2.34-.34,3.51-.11,1.01-.2,2.02-.36,3.02-.08.5-.27.99-.44,1.47-.16.46-.38.9-.56,1.36-.05.14,0,.33-.05.47-.3.78-.63,1.55-.91,2.33-.14.39-.19.8-.3,1.2-.04.15-.14.28-.2.42-.03.06-.01.14-.03.2-.02.07-.05.13-.06.2-.04.15-.05.31-.1.45-.12.33-.26.67-.41.99-.03.07-.17.08-.29.13.3.41-.09.77-.14,1.17-.04.32-.19.63-.29.95-.16.51-.35,1.02-.49,1.54-.19.74-.33,1.49-.53,2.22-.15.57-.36,1.12-.54,1.68-.02.07,0,.15,0,.22-.02.11-.02.24-.08.33-.18.28-.42.53-.55.84-.2.45-.33.93-.49,1.4-.09.27-.04.47.16.66-.04.05-.09.1-.12.16-.03.06-.03.13-.09.21-.03-.07-.05-.13-.11-.29ZM24.71,95.37l.1.03c.11-.37.22-.75.33-1.12l-.1-.03c-.11.37-.22.75-.33,1.12ZM25.1,93.93s.07.02.1.03c.12-.28.25-.55.37-.83-.03-.01-.05-.02-.08-.03-.13.28-.26.55-.39.83Z"/>
      <path class="cls-1" d="M34.26,45.38s.04.04.06.07c.03.06.07.12.08.13-.24.55-.46,1.09-.69,1.62-.02.06-.06.11-.08.16-.07.14-.15.28-.19.43-.09.28-.12.59-.24.85-.37.81-.72,1.63-1.17,2.39-.21.35-.18.74-.37,1.07-.05.09-.11.17-.17.26.01.05.08.18.05.2-.19.15-.06.43-.31.59-.14.09-.13.42-.2.64-.03.09-.1.17-.14.26-.03.08-.04.17-.06.25.03.02.06.03.09.05-.08.02-.16.05-.17.05-.04.21-.07.4-.11.58-.06.25-.11.49-.18.73-.12.39-.26.78-.37,1.17-.07.24-.08.5-.16.73-.08.23-.22.45-.3.68-.13.39-.22.8-.34,1.2-.06.23-.14.45-.2.68-.14.57-.26,1.14-.42,1.7-.16.59-.36,1.18-.53,1.77-.02.08,0,.18-.02.26-.02.08-.04.15-.05.23,0,.04.02.09,0,.13-.11.3-.27.59-.32.9-.04.23.01.48-.19.66.21.27-.05.51-.05.77,0,.25-.16.49-.23.74-.08.3-.15.6-.21.9-.05.23-.08.47-.12.72-.01,0-.07.02-.17.04.09.06.14.1.16.12-.08.25-.16.47-.23.69-.15.5-.28,1.01-.43,1.51-.06.22-.07.42.11.58-.18.26-.17.29.21.56-.15-.03-.25-.05-.41-.08-.05.34-.08.67-.14.99-.14.71-.29,1.41-.44,2.11-.09.41-.18.83-.29,1.24-.03.12-.14.23-.21.34-.14.22-.29.45-.42.67-.02.03.04.1.07.17-.24.15-.47.3-.75.48-.05-.57.17-1.02.35-1.47.44-1.09.75-2.21.96-3.36.07-.41.2-.81.28-1.23.07-.39.08-.8.17-1.19.16-.72.35-1.43.53-2.15.12-.45.25-.9.35-1.36.02-.08-.05-.18-.08-.29.06-.04.12-.08.18-.11-.04-.19-.07-.38-.11-.56.02,0,.03.01.05.02.03-.12.05-.24.08-.36.06-.23.12-.45.17-.68.08-.36.13-.73.22-1.08.16-.56.36-1.11.52-1.67.17-.58.31-1.17.47-1.76.04-.17.09-.34.14-.51.24-.94.47-1.89.73-2.82.28-1.03.57-2.07.9-3.09.18-.57.45-1.12.68-1.68.2.04.34.07.49.1-.01-.04-.01-.07-.02-.07-.47-.14-.48-.15-.3-.61.38-.97.76-1.94,1.15-2.9.23-.57.48-1.13.74-1.69.07-.14.18-.26.29-.42-.08-.02-.16-.04-.26-.06.11-.09.21-.16.3-.23-.01-.02-.03-.04-.04-.06-.04.02-.08.04-.15.07.07-.14.14-.26.19-.38.07-.15.12-.31.2-.46.03-.07.1-.11.15-.16.02-.08.03-.17.05-.26-.02-.01-.07-.03-.12-.06.21-.48.71-.25,1.02-.46Z"/>
      <path class="cls-1" d="M38.11,38.37c0,.33,0,.66,0,.98-.02.66-.04,1.31-.1,1.96-.02.22-.2.41-.27.63-.52,1.54-1.05,3.09-1.55,4.64-.2.63-.33,1.29-.52,1.93-.16.53-.37,1.03-.56,1.55-.11.3-.2.59-.31.89-.34,1-.68,1.99-1.12,2.95-.26.56-.46,1.16-.68,1.74-.27.74-.55,1.48-.8,2.23-.13.37-.19.75-.32,1.12-.23.67-.5,1.33-.73,2.01-.18.53-.32,1.08-.48,1.62-.24.81-.48,1.61-.72,2.42-.08.29-.12.59-.21.87-.1.31-.24.62-.34.93-.05.15-.05.32-.08.48l-.12-.02c.04-.22.06-.44.13-.66.14-.47.32-.93.43-1.41.02-.09.25-.49-.25-.43.26-.05.33-.19.28-.39-.12-.49.15-.9.3-1.33.13-.38.28-.74.41-1.12.06-.17.1-.35.15-.53.09-.29.19-.57.28-.86.16-.55.29-1.12.47-1.67.13-.39.31-.76.45-1.14.04-.12.02-.26.04-.38.08-.42.13-.85.25-1.26.12-.39.33-.76.48-1.14.4-1.03.78-2.07,1.18-3.1.27-.71.58-1.4.83-2.12.25-.74.43-1.51.66-2.26.26-.84.53-1.67.82-2.5.4-1.12.88-2.22,1.22-3.36.16-.55.47-1.08.42-1.68-.02-.27-.05-.56-.17-.8-.14-.3-.04-.47.18-.62.12-.08.27-.13.35-.16Z"/>
      <path class="cls-1" d="M22.86,94.93c-.2.02-.42-.12-.45-.38-.05-.41-.07-.83-.01-1.23.08-.56.24-1.11.36-1.67.03-.14.04-.29.06-.43.13-.66.27-1.33.39-1.99.09-.52.14-1.04.22-1.57.04-.26.13-.52.14-.78.03-.53.22-1.01.35-1.51.17-.69.28-1.38.46-2.07.23-.89.48-1.78.74-2.66.21-.72.44-1.43.71-2.13.17-.46.44-.88.62-1.33.15-.36.23-.74.34-1.11.04,0,.07.02.11.03-.04.19-.07.39-.12.58-.2.69-.39,1.39-.6,2.08-.15.48-.36.94-.5,1.42-.16.56-.28,1.13-.41,1.7-.19.86-.36,1.72-.53,2.58-.1.53-.17,1.06-.28,1.59-.14.64-.32,1.27-.46,1.9-.13.61-.22,1.23-.33,1.84-.07.4-.16.8-.22,1.2-.04.25-.03.51-.09.76-.07.32-.2.63-.26.95-.09.48-.13.97-.19,1.45,0,.04-.01.08-.02.12-.01.21-.03.42-.04.67Z"/>
      <path class="cls-1" d="M31.07,100c-.18.17-.35.34-.29.66-.04-.04-.11-.07-.12-.12-.15-.63.17-1.69.52-1.9-.07.28-.15.6-.23.94h.37c-.02-.14-.03-.26-.06-.44.3-.16.28-.49.24-.85-.02-.18.01-.38.06-.56.12-.43.25-.86.39-1.28.01-.04.09-.06.15-.11-.18-.21-.05-.33.19-.48-.02.23-.04.42-.06.6,0,0-.01,0-.02,0-.04.15-.08.3-.11.45-.01.06.02.16-.01.19-.26.23-.07.37.11.53-.16.12-.37.23-.13.45-.29.02-.37.25-.36.42.03.74-.21,1.42-.37,2.13-.14.66-.28,1.32-.39,1.99-.13.77-.24,1.55-.36,2.33-.04.24-.1.47-.13.71-.02.14,0,.28,0,.47-.37.2-.24.64-.32.99-.18.79-.32,1.59-.45,2.39-.04.23,0,.47-.03.7-.14.75-.3,1.5-.44,2.25-.04.2-.05.41-.09.61-.03.14-.08.27-.13.47-.17-.28-.31-.42-.23-.74.13-.5.15-1.03.2-1.54.01-.11-.04-.23-.04-.34,0-.25,0-.51,0-.76.03,0,.05,0,.08-.01.05.08.1.15.19.3.09-.18.16-.32.25-.49-.16,0-.25.01-.26.01-.01-.2-.05-.37-.03-.54.05-.34.09-.68.2-1,.12-.34.4-.62.32-1.03-.01-.08.14-.19.22-.3-.29-.12-.04-.3-.01-.44.09-.48.22-.95.3-1.43.07-.44.08-.89.12-1.34,0-.02,0-.04,0-.06.36-.7.37-1.51.61-2.24.12-.35.16-.73.18-1.1,0-.15,0-.31.03-.46.07-.12.13-.23.2-.35-.03-.01-.06-.02-.09-.03-.14.11-.28.22-.43.33,0,.01.02.02.03.04l.23-.05Z"/>
      <path class="cls-1" d="M27.64,117.4c.12-.06.24-.12.33-.17,0-1.14.32-2.2.48-3.28.12-.02.22-.04.34-.06.12.14.22.26.04.46-.07.08-.01.28-.03.42-.08.58-.2,1.15-.25,1.73-.04.5,0,1-.03,1.5,0,.19-.06.37-.1.56,0,.04-.03.1-.01.11.26.2.04.51.19.74.06.09.08.21.13.36,0,0-.08.04-.12.05.01.07,0,.1.02.11.27.22.11.52.14.78.04.31.1.58.4.74l-.05.06c-.13-.12-.26-.23-.39-.35-.28-.26-.42-.57-.38-.97.01-.17-.09-.34-.14-.51l-.1.02c.03.29.06.59.09.88-.03.02-.06.03-.08.05-.08-.11-.23-.21-.24-.33-.11-.86-.19-1.72-.28-2.58-.01-.11.03-.23.05-.35h0ZM28.26,118.72c-.23.3-.12.57-.08.83.02-.25.05-.5.08-.83Z"/>
      <path class="cls-1" d="M52.72,116.21c.19.13.37.25.57.39-.08.04-.18.08-.22.1.01.21.03.39.03.58-.01.49-.04.97-.06,1.46,0,.1-.03.2-.01.29.02.1.09.19.19.24-.05-.5-.1-.99-.15-1.5.2,0,.2,0,.23.34.02.17.03.35.08.52.01-.12.03-.24.04-.36.02,0,.05,0,.07,0-.02.23-.09.47-.06.69.02.23.15.44.19.67.09.58.15,1.17.23,1.75l-.1.03c-.04-.08-.11-.15-.12-.23-.1-.53-.18-1.06-.29-1.59-.02-.09-.17-.15-.26-.22-.02.09-.03.17-.05.26,0,.05-.02.1-.02.16,0,.42,0,.85,0,1.27,0,.02.03.04.07.09.03-.24.06-.46.09-.67.04,0,.07,0,.11,0v1.08s-.03,0-.05,0l-.11-.35s-.05,0-.07.01v.33c-.34-.12-.37-.39-.39-.65-.06-.92-.11-1.84-.14-2.76-.02-.64,0-1.27,0-1.92.08,0,.15-.01.21-.02h0Z"/>
      <path class="cls-1" d="M27.46,88.62c.17-.47.36-.94.5-1.41.18-.58.31-1.17.48-1.75.23-.77.48-1.53.71-2.3.17-.57.3-1.15.46-1.72.01-.04.03-.09.08-.12-.09.63-.13,1.28-.28,1.9-.15.61-.41,1.2-.6,1.8-.19.61-.33,1.24-.53,1.84-.21.62-.47,1.21-.71,1.82-.04-.02-.07-.04-.11-.06Z"/>
      <path class="cls-1" d="M51.32,70.8s.12.06.13.1c.08.31.18.61.22.93.09.68.15,1.37.22,2.05,0,.02,0,.04,0,.06,0,.37.01.74.02,1.11,0,.04-.01.09-.02.19-.14-.18-.29-.27-.34-.49-.09-.4-.05-.8-.07-1.19-.03-.44-.04-.87-.09-1.31-.03-.3-.13-.58-.16-.88-.01-.19.06-.39.09-.58,0,0,0,0,0,0Z"/>
      <path class="cls-1" d="M35.52,85.09c.16.32-.14.58-.12.88,0,.02-.07.05-.11.07-.03-.03-.06-.05-.09-.08-.02.12-.05.25-.07.37.04,0,.08,0,.15-.01-.07.11-.14.2-.18.3-.05.14-.06.3-.08.45-.05.38-.42.56-.66.83-.02.02-.07,0-.11,0,.07-.17.12-.35.22-.49.04-.05.18-.03.32-.06-.11-.05-.18-.09-.32-.15.12-.2.25-.38.34-.58.11-.26.2-.52.28-.79.01-.03-.07-.09-.1-.13.09-.25.19-.52.3-.81.09.08.16.14.24.21,0,0,0,0,0,0Z"/>
      <path class="cls-1" d="M27.06,75.38c0-.13-.03-.27,0-.4.07-.26.17-.52.24-.78.11-.38.22-.75.32-1.13.1-.38.14-.79.32-1.13.21-.4.25-.86.43-1.26.03,0,.06.02.1.03-.43,1.56-.86,3.11-1.3,4.67-.04,0-.08,0-.12,0Z"/>
      <path class="cls-1" d="M51.62,75.31c.15.07.27.14.38.19.05.51.1,1,.15,1.52-.33-.16-.36-.42-.37-.72-.02-.33-.1-.66-.15-.99Z"/>
      <path class="cls-1" d="M34.21,89.22c0,.09,0,.22-.03.23-.09.03-.19.01-.36.01.16-.38.3-.7.46-1.07-.02,0-.1-.05-.18-.09.14-.12.28-.24.42-.36-.13.41-.12.42.02.52-.09.23-.17.45-.25.67.03.02.06.03.08.05-.06.02-.12.04-.15.05Z"/>
      <path class="cls-1" d="M34.63,89.36c.23-.85.46-1.66.7-2.55.04.17.12.3.09.4-.22.68-.46,1.36-.7,2.04-.01.03-.04.05-.09.1Z"/>
      <path class="cls-1" d="M27.65,117.4c-.1.09-.21.18-.37.32-.03-.41-.04-.74-.09-1.07-.02-.1-.18-.16-.11-.33.05-.13,0-.3.07-.48.03.06.1.12.09.17-.05.43.15.8.23,1.21.01.07.11.13.17.19,0,0,0,0,0,0Z"/>
      <path class="cls-1" d="M32.81,94.23c-.16.51-.31,1.01-.47,1.52-.19-.44.07-1.32.47-1.52Z"/>
      <path class="cls-1" d="M57.09,81.55c.23.13.65,1.26.57,1.47-.54-.37-.33-1.01-.57-1.47Z"/>
      <path class="cls-1" d="M52.73,116.22c-.07-.08-.14-.16-.24-.28.18-.15.36-.3.56-.46.06.21.11.36.16.54-.1.02-.22.05-.37.08.07.05.11.09.14.12,0,.02,0,.04-.01.05-.08-.02-.16-.04-.25-.06,0,0,0,0,0,0Z"/>
      <path class="cls-1" d="M57.67,127.16c.24,0,.49,0,.73,0,.19-.01.38-.05.58-.02-.43.27-.87.21-1.31.02Z"/>
      <path class="cls-1" d="M59.67,92.84l-.2-1.16c.3.34.37.73.32,1.14-.04,0-.08.01-.12.02Z"/>
      <path class="cls-1" d="M43.38,67.71c-.08.47.15.97-.16,1.42,0-.41,0-.83,0-1.24,0-.06.11-.12.16-.17,0,0,0,0,0,0Z"/>
      <path class="cls-1" d="M28.9,68.86c.09.52-.23.93-.34,1.39-.03,0-.07-.02-.1-.02.07-.27.13-.54.21-.81.06-.19.15-.37.23-.56,0,0,0,0,0,0Z"/>
      <path class="cls-1" d="M63.56,111.27c-.06-.04-.14-.07-.16-.13-.13-.4-.25-.81-.37-1.22l.07-.03c.06.16.12.31.17.47.1.3.19.6.29.9h0Z"/>
      <path class="cls-1" d="M32.79,93.47v.47s-.05.02-.08.03c-.05-.06-.14-.14-.13-.17.13-.26.1-.6.4-.76.03.02.05.04.08.05-.1.14-.21.29-.27.38Z"/>
      <path class="cls-1" d="M28.91,68.86c-.02-.06-.07-.13-.06-.18.07-.3.15-.59.27-.88-.01.37.02.74-.22,1.06,0,0,0,0,0,0Z"/>
      <path class="cls-1" d="M56.82,128.05c.29.08.54.16.8.23,0,.01,0,.03,0,.04h-.89s.05-.14.1-.28Z"/>
      <path class="cls-1" d="M27.3,114.79c-.03.32-.05.63-.08,1.01-.25-.37-.01-.69-.04-1.01.04,0,.08,0,.12,0Z"/>
      <path class="cls-1" d="M60.46,96.16c-.15-.22-.16-.45.01-.7.05.23.11.45.17.7-.08,0-.13-.01-.19-.01,0,0,0,0,0,0Z"/>
      <path class="cls-1" d="M2.3,113.79v.58c-.15-.05-.24-.07-.38-.12.14-.17.26-.32.39-.47,0,0,0,0,0,0Z"/>
      <path class="cls-1" d="M63.56,111.27c.1.33.2.67.3,1-.18-.31-.43-.61-.3-1,0,0,0,0,0,0Z"/>
      <path class="cls-1" d="M14.23,97.56c-.02.14-.04.29-.05.43-.04.03-.09.06-.13.09-.05-.14-.1-.27-.15-.4.07-.02.21-.06.34-.11,0,0,0,0,0,0Z"/>
      <path class="cls-1" d="M33.04,92.33c.14-.19.3-.42.45-.62-.01.42-.15.6-.45.62Z"/>
      <path class="cls-1" d="M27.42,85.85c-.05-.09-.1-.17-.14-.25.11-.06.21-.11.32-.17.02.01.03.02.05.04-.07.13-.15.25-.22.38Z"/>
      <path class="cls-1" d="M2.06,114.48c-.08.22-.16.45-.23.67-.03-.01-.06-.02-.09-.04.08-.22.17-.44.25-.66l.07.03Z"/>
      <path class="cls-1" d="M71.21,108.14c.06-.05.11-.09.16-.13,0-.02,0-.05-.02-.06-.27-.16-.25-.48-.34-.72-.09-.25-.09-.53-.17-.79-.03-.11-.16-.19-.25-.29.23-.18.16-.41.05-.67-.08-.18-.14-.4.03-.56.07.16.13.29.18.43.22.6.56,1.14.71,1.79.2.82.59,1.59.9,2.38.21.54.43,1.07.67,1.6.28.63.57,1.26.88,1.88.4.8.81,1.59,1.24,2.37.21.38.47.73.7,1.1.23.36.43.73.67,1.09.47.69.88,1.42,1.55,1.96.15.12.34.21.51.31.28.02.58.05.87.08,0,.04.01.09.02.13-.13.04-.28.12-.4.1-.51-.08-1.02-.21-1.45-.51-.27-.19-.5-.45-.72-.7-.38-.43-.76-.85-1.11-1.31-.3-.4-.57-.84-.82-1.27-.53-.9-1.06-1.79-1.54-2.71-.28-.53-.47-1.1-.71-1.64-.26-.59-.55-1.18-.8-1.78-.11-.26-.13-.55-.21-.82-.08-.29-.16-.59-.28-.87-.05-.14-.18-.24-.3-.39Z"/>
      <path class="cls-1" d="M60.32,69.65c.13-.22.08-.36-.17-.51,0-.12.02-.22,0-.3-.09-.37-.18-.74-.28-1.1-.18-.64-.37-1.28-.56-1.93-.03-.09-.06-.19-.08-.28.04-.01.08-.03.12-.04.61,1.62,1.22,3.23,1.84,4.89,0,.05,0,.15.02.25.1.48.21.97.32,1.45.02.09.1.17.14.25.35.77.5,1.58.58,2.42.03.36.21.7.28,1.06.12.63.2,1.27.31,1.9.09.53.19,1.05.28,1.58.05.31.1.62.16.92.07.33.19.66.22.99.02.19-.08.39-.13.6-.37-.11-.25-.4-.29-.58-.16-.75-.28-1.5-.43-2.25-.02-.08-.09-.15-.15-.24.15-.24.18-.5.01-.78-.11-.19-.18-.37-.17-.63.01-.32-.16-.65-.25-.98-.02-.06-.05-.13-.07-.19-.13-.69-.25-1.39-.38-2.08-.01-.07-.14-.11-.22-.16.23-.11.17-.3.09-.54-.14-.39-.22-.79-.33-1.19-.14-.47-.29-.94-.42-1.42-.08-.27-.13-.54-.21-.81-.03-.1-.12-.18-.21-.3Z"/>
      <path class="cls-1" d="M66.91,95.62c-.19-.64-.39-1.29-.58-1.93-.08-.26-.15-.53-.2-.8-.02-.08.05-.18,0-.25-.03-.09-.07-.17-.1-.26-.01-.03.01-.09,0-.11-.33-.4-.33-.94-.55-1.39-.2-.42-.21-.94-.33-1.41-.08-.35-.2-.69-.29-1.04-.14-.53-.27-1.06-.43-1.58-.13-.43-.3-.85-.43-1.28-.05-.16-.03-.35-.05-.52-.01-.08-.07-.14-.09-.22-.15-.52-.31-1.05-.43-1.58-.09-.39-.15-.79-.21-1.19,0-.06.05-.14.09-.19.06-.07.14-.13.24-.22.04.07.1.13.12.21.16.61.3,1.22.46,1.83.16.62.33,1.24.49,1.87.21.82.41,1.65.61,2.47.02.1.01.21.02.31,0,.06-.02.15.01.17.43.3.19.84.44,1.22.12.19.06.5.11.75.02.1.11.19.14.29.06.18.09.36.14.54.12.49.25.98.35,1.48.07.34.09.69.17,1.02.07.33.18.65.28.98.05.17.14.33.16.5.02.12-.04.25-.06.37-.02,0-.03-.02-.05-.03Z"/>
      <path class="cls-1" d="M70.48,104.38c-.08.05-.15.09-.24.15-.06-.08-.11-.15-.16-.21.07-.13.14-.24.2-.35-.02-.01-.04-.03-.06-.04-.05.05-.1.11-.15.16-.02,0-.05-.01-.07-.02.03-.12.07-.24.1-.34-.19.09-.38.18-.62.29.14-.33.69-.26.57-.71-.26,0-.32-.09-.28-.35,0-.05-.03-.12-.05-.18-.02-.07-.05-.15-.07-.22.09.02.19.01.26.06.04.04.04.15.03.22,0,.05-.05.1-.1.2.13-.04.19-.06.29-.1.05.2.09.4.15.59.05.16.15.31.19.47.03.12,0,.25,0,.38,0,0,.01-.01.01-.01Z"/>
      <path class="cls-1" d="M56.69,57.4c-.07-.08-.15-.16-.22-.24-.03-.04-.07-.09-.1-.13-.06.1-.12.19-.21.35.03-.24.06-.45.08-.61-.09-.09-.19-.19-.3-.29.54.06.63.15.57.47.11.14.2.25.29.37l-.11.09Z"/>
      <path class="cls-1" d="M69.1,100.05c-.35-.13-.45-.42-.34-.92.12.32.22.59.34.92Z"/>
      <path class="cls-1" d="M70.48,104.38s-.01.01-.01.01c.23.1.27.25.12.42-.07.09-.12.2-.17.3-.04-.03-.09-.07-.13-.1.06-.21.13-.43.19-.64Z"/>
      <path class="cls-1" d="M57.03,58.4c.12-.02.24-.04.34-.05.17.23-.38.43.04.64-.36-.03-.21-.39-.4-.51,0-.02.01-.05.02-.07Z"/>
      <path class="cls-1" d="M57.11,58.18c-.17-.04-.29-.07-.44-.1.1-.09.17-.15.27-.24-.15-.07-.26-.12-.42-.19.14-.05.23-.09.32-.12.09.21.17.4.27.65Z"/>
      <path class="cls-1" d="M68.99,100.95c.13.06.24.12.4.2,0-.02-.01.04-.03.11.07,0,.13-.01.22-.02-.02.04-.02.07-.04.08-.23.11-.34.03-.54-.36Z"/>
    </g>
  </g>
</svg>