<?xml version="1.0" encoding="UTF-8"?>
<svg id="Layer_2" data-name="Layer 2" xmlns="http://www.w3.org/2000/svg" viewBox="0 0 75.53 114.06">
  <defs>
    <style>
      .cls-1 {
        fill: #000;
        stroke-width: 0px;
      }
    </style>
  </defs>
  <g id="illustrations">
    <g>
      <path class="cls-1" d="M75.49,81.47c.02-.75.11-1.51-.08-2.26,0-.02,0-.06.02-.07.17-.14.03-.22-.04-.34-.07-.13-.09-.29-.13-.44-.01-.05-.01-.1-.03-.15-.09-.22-.19-.44-.28-.66-.42-1.02-1.09-1.84-1.98-2.47-.2-.14-.51-.14-.76-.23-.25-.1-.56-.18-.71-.37-.35-.45-.6-.99-.93-1.46-.35-.49-.73-.94-1.12-1.4-.1-.12-.25-.19-.37-.27.15-.09.06-.2-.07-.25-.36-.13-.52-.48-.8-.69-.23-.17-.41-.41-.6-.61-.22.11-.38.18-.16.4.11.11.13.31.2.5-.44-.25-.83-.47-1.22-.68-.2-.1-.43-.15-.63-.26-.35-.2-.67-.44-1.02-.63-.29-.16-.62-.27-.92-.42-.19-.09-.37-.12-.56-.03-.05.02-.15.02-.19-.01-.31-.21-.6-.45-.91-.66-.08-.06-.2-.08-.3-.12-.01.02-.02.05-.04.07.06.04.12.08.18.11.09.05.22.06.28.13.4.45.92.67,1.48.86.22.08.46.16.64.3.49.4.93.86,1.44,1.24.87.65,1.71,1.32,2.42,2.14.52.6,1.03,1.21,1.52,1.83.22.28.42.58.59.89.1.18.15.35.32.51.18.17.32.39.45.62.1.16.2.32.28.48.02.03.03.07.04.1.24.43.46.87.68,1.29-.21.03-.27.24-.34.45-.13.38.2.53.36.75.12.16.29.28.48.45-.46.12-.44.49-.52.79-.06.22-.16.26-.36.2-.44-.13-.9-.14-1.34-.05-.36.07-.72.19-1.05.35-.42.2-.91.27-1.24.67-.11.13-.31.18-.44.26-.12-.13-.22-.23-.31-.33-.06-.07-.15-.14-.18-.22-.08-.28-.15-.56-.22-.84-.08-.32-.12-.66-.22-.97-.27-.84-.52-1.7-.87-2.51-.33-.77-.77-1.5-1.18-2.24-.23-.41-.48-.81-.76-1.2-.18-.26-.31-.58-.66-.68-.01,0-.02-.03-.03-.05.03-.04.06-.09.09-.13-.08-.07-.15-.12-.2-.19-.34-.45-.65-.91-1.01-1.34-.99-1.19-1.86-2.47-3.01-3.52-.41-.38-.82-.76-1.23-1.15-.52-.5-1.25-.72-1.68-1.33-.04-.05-.11-.09-.17-.12-.22-.1-.45-.19-.67-.29.07.09.16.17.21.26.04.07.04.17.06.25,0,0,0,0,0,0-.21-.22-.42-.44-.63-.67-.03-.03-.04-.09-.05-.14-.01-.08-.02-.17-.03-.24-.08-.04-.16-.06-.21-.1-.1-.08-.18-.2-.28-.27-.2-.12-.42-.2-.61-.34-.25-.18-.48-.39-.73-.58-.1-.08-.23-.12-.33-.2-.42-.39-.84-.77-1.23-1.18-.23-.24-.39-.54-.62-.77-.31-.32-.46-.82-.98-.91-.02,0-.04-.03-.06-.05-.41-.37-.88-.68-1.13-1.2-.08-.15-.16-.34-.4-.18-.02.01-.09-.01-.11-.04-.3-.31-.61-.61-.88-.94-.54-.65-1.04-1.33-1.6-1.96-.53-.61-1.04-1.21-1.32-1.99-.09-.24-.26-.5-.29-.72-.04-.27-.23-.38-.32-.58-.09-.2-.23-.38-.28-.59-.04-.18-.1-.3-.24-.4-.06-.05-.08-.16-.12-.24-.76-1.46-1.06-3.06-1.45-4.63.13.13.24.27.3.42.28.64.53,1.29.82,1.93.32.71.64,1.43,1.02,2.11.41.72.87,1.43,1.37,2.1,1.4,1.88,2.86,3.73,4.54,5.38.61.6,1.27,1.15,1.91,1.73.27.24.52.5.79.74.17.15.34.3.53.42.28.18.59.31.85.5.62.45,1.21.94,1.85,1.37.81.55,1.65,1.05,2.47,1.6.64.42,1.25.88,1.88,1.31.11.07.25.1.4.16-.36-.66-.95-.99-1.51-1.37.06-.07.11-.12.15-.17-.26.09-.46.07-.59-.2-.01-.03-.05-.05-.08-.07-.47-.18-.74-.62-1.14-.89-.35-.24-.65-.55-.99-.8-.47-.35-.97-.66-1.44-1.01-.32-.23-.64-.46-.93-.73-.34-.31-.6-.71-.96-.97-1.27-.91-2.31-2.06-3.41-3.15-.52-.51-.95-1.12-1.43-1.68-.29-.33-.61-.63-.88-.97-.46-.55-.92-1.1-1.33-1.7-.32-.47-.56-.99-.82-1.49-.26-.51-.48-1.03-.72-1.55-.03-.07-.07-.14-.1-.21-.25-.53-.52-1.05-.76-1.59-.1-.22-.16-.46-.24-.69.02-.01.04-.02.06-.03.32.52.63,1.04.95,1.56.05.09.14.16.18.25.18.39.45.71.72,1.05.36.44.57,1,.91,1.46.8,1.07,1.59,2.15,2.49,3.14,1.11,1.21,2.32,2.32,3.49,3.47.21.2.47.35.7.54.15.12.27.26.41.38.08.08.15.18.25.24.45.25.9.49,1.35.73.18.1.37.19.53.32.51.42,1,.87,1.53,1.28.53.41,1.1.77,1.64,1.16.87.62,1.74,1.23,2.59,1.88.44.34.98.46,1.39.86.52.5,1.11.92,1.68,1.36.15.12.32.2.47.32.5.38,1,.78,1.5,1.16.06.05.14.06.21.09-.03.04-.06.07-.09.11h-.46s0,.05,0,.07c.2.03.4.08.6.09.05,0,.14-.07.17-.13.02-.05,0-.14-.04-.18-.21-.23-.44-.44-.65-.66-.33-.34-.65-.71-1-1.03-.26-.23-.53-.42-.75-.71-.35-.44-.8-.79-1.22-1.16-.35-.3-.79-.47-1.08-.86-.16-.21-.39-.37-.61-.53-.35-.25-.56-.73-1.09-.71.02-.06.04-.1.06-.16-.33.07-.53-.06-.63-.35-.01-.03-.03-.06-.06-.08-.22-.19-.43-.37-.65-.55-.03-.02-.08,0-.12-.01-.1-.03-.21-.06-.29-.12-.23-.19-.42-.43-.67-.58-.48-.3-1-.54-1.49-.82-.25-.15-.48-.35-.73-.49-.14-.08-.31-.11-.47-.15-.13-.04-.3,0-.32-.22,0-.07-.1-.15-.16-.2-.4-.29-.8-.58-1.2-.87-.12-.09-.23-.18-.34-.28-.26-.23-.51-.45-.77-.68-.2-.18-.41-.35-.6-.55-.09-.09-.14-.21-.2-.31-.02-.03-.03-.08-.06-.1-.49-.48-.98-.95-1.46-1.43-.02-.02-.04-.06-.06-.09-.27-.31-.54-.63-.81-.94-.04-.05-.08-.09-.11-.15-.07-.13-.12-.23-.32-.18-.08.02-.2-.15-.35-.27.13,0,.18,0,.24.01.01-.02.02-.04.04-.07-.09-.07-.21-.12-.26-.2-.19-.36-.56-.6-.66-1.02-.01-.06-.11-.11-.16-.17-.13-.12-.26-.22-.38-.35-.03-.04-.01-.13-.01-.14-.17-.12-.34-.21-.48-.34-.06-.06-.02-.22-.07-.31-.14-.25-.3-.49-.47-.72-.17-.24-.37-.46-.54-.71-.39-.59-.79-1.18-1.15-1.79-.43-.73-.81-1.47-1.23-2.21-.28-.5-.58-.98-.86-1.47-.15-.26-.32-.52-.41-.81-.09-.27-.09-.57-.13-.87-.05-.02-.13-.04-.26-.08.11-.04.16-.06.2-.08-.1-.2-.21-.39-.29-.59-.14-.37-.26-.74-.37-1.11-.16-.54-.33-1.08-.46-1.63-.13-.54-.25-1.09-.32-1.64-.06-.42-.16-.56.34-.78.06-.03.11-.18.09-.25-.07-.35-.16-.7-.25-1.05-.06-.2-.09-.44-.22-.59-.24-.29-.54-.48-.97-.35-.31.09-.59-.17-.59-.5,0-.29.02-.59.04-.88.02-.31.03-.61.05-.95.19-.17.7-.06.66-.46-.39-.33-.72-.61-1.05-.88.05-.11.05-.19.03-.27-.11-.34-.24-.68-.06-1.04.05-.1.06-.24.05-.36-.04-.42-.11-.83-.14-1.25-.02-.28.03-.57.04-.9-.19-.21-.12-.54-.13-.83,0-.25.04-.5.03-.74-.01-.27-.06-.54-.1-.81-.04-.28-.09-.56-.14-.84,0-.04-.01-.09-.01-.13,0-.2,0-.41,0-.61-.01-.28-.08-.55-.05-.82.03-.23.13-.45-.03-.68-.02-.03,0-.08,0-.13,0-.17,0-.33,0-.52.15,0,.12-.12.08-.27-.04-.15-.13-.3.02-.48.12-.15-.08-.45.19-.58,0,0,0-.02,0-.04-.05-.03-.11-.07-.19-.12.09-.12.17-.23.25-.35-.18-.08-.22-.19.01-.32-.04-.02-.08-.04-.13-.07.28-.21-.04-.31-.07-.47-.01-.07-.04-.15-.03-.22.03-.21.1-.41.1-.62,0-.21-.05-.42-.06-.63,0-.06.02-.13.06-.19.13-.19.34-.35.09-.6-.02-.02.03-.09.03-.14.01-.11.05-.22.02-.32-.04-.12-.14-.23-.23-.36.1-.05.19-.1.31-.16-.06-.15-.11-.29-.17-.45.07-.03.14-.06.21-.09-.01-.09-.06-.19-.02-.24.16-.24-.06-.3-.18-.37-.32-.18-.35-.25-.14-.53.03-.04.08-.07.15-.12-.26-.18-.27-.39-.15-.63.02-.04,0-.09.01-.13.03-.12.05-.25.08-.37.01-.1-.06-.21-.06-.32,0-.24.13-.48-.03-.71-.01-.02,0-.08.01-.1.19-.21.12-.47.11-.7-.04-.44-.3-.87.01-1.29-.07-.06-.12-.13-.18-.15-.22-.08-.22-.15,0-.25.32-.15.64-.3.95-.47.25-.14.47-.35.73-.47.23-.1.26-.21.14-.4-.22-.35-.44-.69-.66-1.04-.07-.11-.22-.27-.18-.34.17-.33.02-.64.01-.96.02,0,.05-.02.07-.03.58-.06,1.15-.1,1.69-.36.26-.13.45-.28.56-.55.11-.28.26-.54.53-.69-.01-.23.1-.48-.11-.67,0,0-.01-.04,0-.05.12-.3-.11-.44-.27-.62-.04-.04-.1-.12-.09-.14.2-.28-.02-.23-.19-.27-.09-.02-.15-.14-.22-.21-.29-.31-.63-.45-1.06-.39-.21.03-.44,0-.66-.03-.13-.01-.27-.08-.4-.08-.33-.01-.66.01-.99-.01-.15-.01-.3-.1-.44-.16-.1-.04-.21-.06-.32-.06-.22,0-.45-.08-.6.18-.05.08-.18.17-.27.17-.27,0-.53-.06-.8-.09-.08.03-.17.08-.27.1-.17.03-.34.03-.5.08-.28.1-.56.22-.82.36-.25.13-.53.25-.71.45-.25.27-.42.62-.62.93-.05.08-.13.14-.23.23.02.05.08.15.13.25-.02,0-.05.01-.07.02.02.11.01.24.07.33.17.27.41.47.69.63.29.17.55.41.82.62.11.08.2.18.32.23.23.11.46.19.7.28.15.06.29.14.44.18.24.07.49.13.76.19-.22.35-.42.67-.62,1-.05.08-.19.13-.21.21-.06.27-.07.55.11.78.28.37.71.45,1.13.55.2.05.4.09.61.14-.06.21-.15.39-.14.56.03.43-.11.87.07,1.3.05.13.03.29.03.44,0,.18-.02.36-.02.55,0,.18.02.35.03.53,0,.6,0,1.2,0,1.79,0,.44-.04.88,0,1.31.04.41-.24.79-.08,1.21.16.4.03.81.01,1.22-.01.23-.05.47,0,.69.09.5.17.98.13,1.5-.05.84-.01,1.68.02,2.52.02.7.09,1.39.13,2.09.06.95.13,1.89.19,2.84.02.25.03.51.07.76.08.57.18,1.14.26,1.71.02.14-.03.29-.06.48.19.27.18.37-.08.67-.05.05-.06.14-.07.22-.01.07,0,.15-.01.19-.19.03-.44.02-.47.09-.08.22-.24.17-.38.19-.08.01-.15.03-.27.06.19.16.34.28.47.42.24.25-.19.3-.15.51.03.03.11.06.12.11.06.25.25.37.44.5.07.04.12.16.12.24.01.39,0,.78,0,1.21-.42-.03-.8-.08-1.18-.09-.33-.01-.66,0-.99.02-.07,0-.15.07-.19.13-.08.16-.11.34-.2.49-.21.37-.1.76-.03,1.13.03.16.2.29.3.44.07.11.16.24.16.35-.03.43-.08.85-.15,1.27-.06.39-.15.77-.24,1.16-.07.3-.18.6-.25.9-.02.09.04.19.05.22-.04.23-.07.41-.12.59-.02.07-.06.13-.11.19-.06.08-.15.15-.2.23-.35.73-.69,1.47-1.06,2.2-.09.19-.25.35-.4.57-.02.1-.04.28-.11.42-.17.32-.38.61-.55.93-.31.58-.6,1.17-.92,1.75-.12.22-.37.38-.47.61-.28.69-.69,1.29-1.11,1.89-.58.83-1.15,1.66-1.73,2.49-.4.58-.79,1.18-1.21,1.75-.21.29-.49.53-.72.8-.29.33-.56.68-.85,1-.09.1-.25.14-.35.24-.26.27-.47.59-.75.83-.59.53-1.21,1.02-1.82,1.52-.5.41-1,.82-1.52,1.21-.57.44-1.15.86-1.72,1.28-.18.14-.18.26.07.39-.11.11-.2.2-.31.32-.02-.11-.03-.16-.04-.22-.22.12-.41.26-.61.35-.2.08-.39.23-.64.07-.04-.03-.32.16-.31.23.02.27-.18.28-.33.37-.34.21-.69.42-1.02.65-.05.03-.05.15-.06.22,0,.08.02.21,0,.22-.08.03-.18.01-.27.02-.08,0-.18-.01-.23.03-.1.08-.17.21-.27.3-.18.18-.25.5-.13.74-.17.08-.33.16-.5.24-.01-.02-.03-.04-.04-.06.04-.08.09-.16.13-.25-.02-.01-.03-.03-.05-.04-.36.23-.71.47-1.13.74h.57s0,.04,0,.06c-.22.08-.44.16-.67.25-.01-.13-.02-.21-.04-.36-.17.16-.29.27-.41.39-.02.02,0,.11,0,.12.18.08.39.26.55.22.35-.09.68-.27,1-.45.65-.38,1.28-.8,1.92-1.19.52-.32,1.03-.65,1.46-1.09.13-.13.25-.27.39-.38.31-.24.62-.46.93-.7.6-.46,1.2-.94,1.81-1.39.75-.55,1.53-1.05,2.19-1.71.09-.09.22-.13.33-.19.02.02.04.05.05.07-.11.1-.22.2-.32.32-.18.21-.36.43-.53.65-.01.02.03.08.05.12.14.29.12.36-.14.57-.05.04-.06.12-.09.18-.04.08-.08.17-.15.23-.49.46-.98.93-1.49,1.37-.61.52-1.23,1.02-1.86,1.51-.46.36-.93.72-1.42,1.05-.12.08-.32.05-.45.13-.21.12-.38.3-.58.42-.8.5-1.61.96-2.4,1.48-.79.52-1.57,1.07-2.32,1.65-.99.76-1.94,1.57-2.91,2.35-.56.45-1.02.99-1.33,1.64-.03.07-.03.16-.06.32.11-.08.16-.11.19-.14.35-.33.68-.68,1.05-.99.61-.52,1.23-1.03,1.87-1.52.61-.46,1.25-.87,1.88-1.3.44-.3.93-.54,1.33-.89.63-.55,1.38-.91,2.09-1.32.39-.22.77-.48,1.16-.69.42-.22.87-.39,1.29-.62.49-.27.95-.59,1.42-.9.05-.03.11-.09.11-.13-.01-.16.09-.16.2-.18.05-.01.1-.08.14-.12.13-.12.27-.23.41-.35.15-.13.3-.25.46-.39-.05-.07-.09-.13-.16-.22.1-.03.17-.06.24-.08.18-.07.38-.09.42-.37.02-.12.18-.29.3-.32.23-.05.23-.36.46-.37.11-.4.47-.61.71-.9.26-.31.52-.61.77-.92.2-.24.37-.5.57-.73.17-.19.36-.34.54-.51-.07-.08-.12-.15-.21-.25-.09.12-.17.2-.24.29,0,0,0-.01-.01-.02-.21.18-.43.35-.7.58.03-.12.02-.18.05-.2.19-.19.4-.36.57-.57.12-.14.2-.33.25-.51.02-.08-.08-.2-.13-.31-.08,0-.18-.01-.29-.02,0-.02-.01-.05-.02-.07.15-.11.29-.22.44-.34.02.02.04.04.06.07-.02.06-.04.12-.06.18.03.02.06.05.09.07,1.44-1.37,2.67-2.92,3.9-4.48-.9,1.41-1.86,2.79-2.72,4.32.13-.08.22-.11.28-.18.14-.16.26-.33.39-.49.23-.29.5-.55.69-.87.3-.51.52-1.05.81-1.57.23-.41.49-.81.76-1.19.18-.26.19-.4-.03-.56.3-.43.62-.85.9-1.29.32-.51.63-1.03.92-1.55.16-.28.24-.61.4-.89.57-.99,1.16-1.96,1.73-2.94.53-.91,1.03-1.83,1.55-2.75.06-.1.1-.21.16-.31l.09.05c-.05.11-.11.22-.13.34-.08.37-.12.74-.21,1.1-.16.66-.33,1.31-.51,1.97-.22.84-.43,1.68-.69,2.51-.2.63-.43,1.26-.69,1.87-.31.73-.69,1.44-.97,2.18-.32.86-.82,1.61-1.32,2.36-.38.58-.76,1.17-1.16,1.74-.31.45-.67.87-.99,1.31-.31.43-.73.8-.78,1.37,0,.05-.05.09-.08.15-.06-.05-.11-.09-.18-.14-.16.21-.32.41-.47.61-.4.5-.85.98-1.17,1.52-.19.33-.44.56-.7.81-.4.39-.79.8-1.18,1.2-.34.34-.71.66-1.01,1.04-.29.37-.77.55-.97,1,0,.02-.05.04-.06.04-.2-.05-.25.14-.37.23-.3.25-.6.49-.9.73,0,.18.13.12.19.07.24-.21.48-.43.71-.65.07-.07.15-.14.22-.21-.03.13-.08.22-.15.3-.51.58-1.03,1.16-1.52,1.75-.4.48-.77,1-1.16,1.49-.42.52-.85,1.02-1.16,1.62-.22.42-.5.82-.82,1.17-.2.22-.38.44-.51.7-.13.25-.22.51-.33.76-.05.12-.09.26-.17.37-.14.21-.34.39-.46.62-.25.49-.46,1.01-.7,1.51-.15.3-.33.58-.48.88-.03.06,0,.15,0,.22,0,.04,0,.09,0,.12-.15.37-.31.73-.44,1.1-.1.29-.14.6-.21.9.02,0,.04.01.07.02.04-.1.08-.21.13-.3.03-.05.11-.06.17-.09.02.05.06.1.06.16,0,.13,0,.26,0,.43.13-.24.25-.44.35-.65.12-.27.23-.55.32-.83.1-.31.12-.64.34-.92.09-.12.15-.26.2-.4.06-.14.05-.33.15-.41.16-.13.16-.23.09-.32.14-.19.27-.33.36-.5.23-.43.41-.88.65-1.31.2-.36.44-.7.66-1.04.15-.23.3-.45.46-.67.05-.07.15-.12.19-.2.16-.26.3-.54.48-.8.17-.25.38-.47.57-.71.29-.37.57-.75.85-1.12.08-.11.18-.21.26-.32.23-.3.44-.62.67-.92.33-.44.65-.88,1-1.31.23-.28.48-.54.72-.8.35-.37.69-.75,1.04-1.12.2-.21.41-.42.64-.66,0-.02,0-.11.06-.16.27-.27.56-.52.81-.81.38-.44.74-.9,1.1-1.36.13-.17.22-.37.37-.52.46-.48,1.06-.84,1.24-1.54.01-.04.05-.08.08-.1.43-.37.89-.71,1.22-1.18.24-.33.51-.63.74-.97.19-.27.31-.59.52-.85.26-.33.5-.67.69-1.04.27-.54.6-1.05.86-1.59.31-.62.73-1.19.92-1.87.07-.27.23-.53.36-.78.07-.13.17-.25.27-.4,0-.02-.05-.1-.02-.15.11-.22.24-.43.35-.65.04-.08.06-.18.09-.29.03-.04.09-.1.11-.18.1-.34.19-.68.29-1.01.14-.47.3-.94.44-1.42.2-.69.4-1.37.59-2.06.14-.49.26-.99.4-1.48.04-.14.13-.26.2-.39-.01,0-.03,0-.04,0l.2-.97s.06,0,.08,0c0,.04.03.08.02.12-.06.37-.14.73-.17,1.1-.05.52-.06,1.04-.12,1.55-.1.77-.22,1.54-.36,2.3-.1.52-.16,1.05-.3,1.58-.25.91-.37,1.86-.56,2.79-.05.25-.19.47-.29.71-.05.12-.09.24-.14.36-.05.19-.08.37-.16.54-.11.21.07.54-.19.62-.14.8-.39,1.51-.79,2.18.06.12.04.24-.07.41-.07.11-.21.24-.19.32.06.19-.01.27-.15.35-.02.01-.03.06-.04.1-.05.14-.07.3-.16.4-.39.48-.59,1.02-.56,1.66h-.18c0,.31.11.63-.28.87.1.08.16.13.22.18-.1-.04-.2-.09-.3-.14,0,.01-.01.03-.02.04.05.06.1.11.15.17-.17.23-.34.46-.52.71h.29c-.15.16-.33.3-.41.47-.1.23-.09.5-.3.72-.19.19-.27.5-.38.76-.02.04.04.12.06.17-.15.18-.41.35-.45.56-.05.25-.1.44-.33.55.08.08.12.13.18.19-.32.07-.4.18-.29.35.11-.08.25-.15.33-.26.22-.29.42-.59.63-.89.15-.22.31-.44.46-.65-.07-.08-.13-.15-.21-.25.47.01.4-.41.57-.61.15-.18.19-.45.3-.66.1-.18.23-.34.35-.51.03-.12.1-.22.15-.32.16-.33.31-.66.48-.98.13-.25.33-.46.35-.76.01-.12.11-.23.17-.35.07-.14.15-.28.21-.42.06-.14.09-.29.16-.43.07-.16.17-.3.25-.45.08-.17.16-.35.23-.53.16-.42.33-.84.48-1.26.09-.25.15-.51.23-.76.06-.19.15-.38.21-.58.16-.51.31-1.02.46-1.52.06-.18.13-.36.18-.54.1-.41.18-.82.3-1.23.37-1.35.62-2.73.84-4.11.09-.59.21-1.17.34-1.75.06-.23.21-.44.3-.67.06-.16.1-.34.13-.51.07-.41.12-.83.2-1.24.01-.06.08-.16.14-.17.22-.04.3.05.29.3-.06.9-.12,1.8-.17,2.69-.02.33-.03.66-.04,1,0,.09.03.19.02.29-.03.34-.13.69-.08,1.01.09.55-.07,1.05-.11,1.58-.02.21,0,.43.02.65,0,.1.04.19.07.28,0,.17.25.24.08.49-.06.09.1.33.16.53-.1.02-.2.04-.31.06.02.06.03.14.08.17.26.16.26.17.07.37.14.12.16.53.03.67.04.08.12.16.11.23-.05.31-.06.62-.01.93.05.38.06.76.08,1.15.01.23,0,.47,0,.7,0,.11.03.23.08.33.18.32-.07.61-.03.94.05.38-.07.78-.08,1.17,0,.23.05.46.08.69-.02.11-.05.22-.06.34-.01.25,0,.51-.01.76-.02.33-.1.66-.1,1,0,.45.05.9.06,1.35.01.54.02,1.08.01,1.62,0,.11-.07.23-.09.3.03.15.08.27.07.39-.02.28-.07.55-.09.83-.04.71-.07,1.43-.12,2.14-.02.25-.07.5-.13.74-.03.1-.06.17-.05.29.02.23-.06.47-.11.7-.03.14-.08.28-.11.42-.03.15-.04.31-.06.46-.02.21-.11.44.17.56.04.02.06.09.1.13-.01.01-.02.03-.03.04-.08-.04-.15-.08-.24-.13-.15.21-.09.39.05.53-.07.09-.16.15-.18.23-.1.36-.19.72-.28,1.08-.06.23.07.52.27.66.04.03.03.11.05.17-.27.06-.18.29-.23.46-.03.12-.11.22-.13.28-.02.15-.03.24-.04.33,0,.08-.02.17-.02.25-.01.37.06.77-.06,1.09-.16.44-.1.88-.16,1.31-.02.17-.04.34-.06.52-.02,0-.05,0-.07,0,.07.06.14.12.22.19-.13.03-.24.06-.34.08.04.19.07.34.1.48-.29.17-.31.41-.19.69-.04.03-.09.06-.15.1.05.07.09.14.12.2-.06.01-.12.02-.19.04.19.36.19.92.07,1.04.03.17.08.31.06.45-.01.11-.13.21-.15.32-.04.27-.04.54-.06.82-.03.01-.08.03-.12.05.1.07.19.14.28.21-.05.05-.09.08-.12.12.25.23,0,.3-.13.4.08.06.15.12.21.17-.17.06-.33.15-.49.18-.49.09-.99.15-1.48.23-.41.06-.71-.2-.74-.62-.04-.64-.08-1.28-.11-1.92-.06-.97-.16-1.93-.15-2.9,0-.86.15-1.73.23-2.59.02-.2.04-.4.05-.6,0-.25-.08-.53.02-.72.09-.18.03-.28,0-.41.21-.19.22-.23.14-.48-.01-.05-.03-.1-.02-.15.03-.3.07-.6.11-.9.07-.52.14-1.03.21-1.55.07-.55.14-1.11.22-1.66.05-.33.11-.67.2-.99.16-.6.52-1.15.5-1.81,0-.29.13-.58.2-.87.16-.69.35-1.38.45-2.08.09-.67.36-1.32.22-2.02.27-.32-.04-.35-.26-.5-.12.25-.28.46-.32.7-.07.34-.05.7-.07,1.06,0,.04,0,.08-.03.12-.07.15-.19.3-.23.46-.2.8-.39,1.61-.56,2.42-.13.63-.22,1.27-.36,1.9-.14.65-.31,1.28-.47,1.93-.07.3-.17.59-.22.89-.11.63-.21,1.26-.29,1.9-.07.57-.13,1.14-.17,1.71-.02.4.02.8,0,1.2-.01.32-.1.63-.08.95.02.46,0,.92-.06,1.37-.02.12.02.26.03.38,0,.05.03.1.01.14-.22.48-.2.94.03,1.38-.06.1-.09.2-.09.3-.02.29-.03.57-.04.86,0,.2-.04.4-.03.6,0,.14.1.28.11.42.01.38,0,.75-.02,1.13,0,.22-.15.36-.38.35-.37-.01-.73-.07-1.09-.06-.87.02-1.73.06-2.6.12-.85.06-1.7.15-2.54.24-.44.05-.88.14-1.32.2-.4.06-.79.23-1.22.11-.15-.04-.33-.05-.48-.02-.23.04-.37-.05-.46-.16.01-.14.03-.24.03-.33,0-.16,0-.32,0-.48.03-.29.15-.59.1-.87-.04-.2-.08-.35.06-.5.02-.02,0-.07,0-.1,0-.35-.03-.69,0-1.04.04-.32.15-.63.22-.94.03-.13.02-.28.04-.41,0-.06.04-.11.06-.16.17-.35.39-.68.24-1.14.25.06.29-.09.29-.28,0-.05.03-.1.05-.15.11-.39.23-.79.34-1.18-.05,0-.11,0-.16.03-.18.1-.35.21-.52.31-.01-.02-.03-.04-.04-.07-.04.08-.08.15-.12.24.07.02.12.04.18.05,0,.02,0,.04,0,.06-.2.09-.4.19-.65.3.18.04.32.08.5.12-.24.2-.44.37-.66.55.33.16.33.2.11.42-.05.05-.06.2-.03.27.07.14.08.22-.05.33-.22.19-.19.33.07.48.03.02.05.04.09.07-.16.06-.29.11-.42.16.01.14.02.27.03.39-.13.04-.24.07-.38.11.1.06.17.09.23.13-.03,0-.05,0-.08,0-.05.31-.09.62-.15.97.17.09.12.21-.04.35-.09.08-.17.22-.18.33-.04.42-.06.85-.08,1.28,0,.07.06.15.05.22-.04.21-.1.41-.16.66.02,0-.04.03-.07,0-.33-.22-.64-.46-.98-.68-.1-.06-.24-.05-.35-.08-.13-.03-.3-.02-.39-.09-.41-.37-.92-.46-1.42-.56-.47-.1-.94-.17-1.42-.22-.54-.05-1.08-.08-1.62-.07-.4,0-.8.09-1.2.13-.34.03-.68.03-1.02.07-.34.04-.69.07-1,.18-.48.18-.52.19-.84-.17-.04-.05-.11-.09-.17-.14.06-.3.1-.62.18-.92.06-.22.05-.5.3-.54-.02-.18-.08-.34-.06-.48.03-.19.12-.36.19-.55,0,0-.02,0-.02-.01.04-.1.07-.21.11-.32.05-.1.11-.21.16-.33.11-.26.12-.58.48-.67-.37-.26.22-.35.09-.6-.03-.05.19-.23.3-.36-.21-.18.08-.21.1-.26-.02-.1-.05-.16-.04-.2.21-.37.42-.73.63-1.1.14-.24.23-.51.48-.68.05-.04.04-.17.07-.26.01-.04.02-.08.05-.11.31-.4.62-.8.93-1.2-.07-.06-.11-.09-.16-.13.12-.05.26-.06.32-.13.25-.34.48-.7.73-1.07-.08-.02-.13-.04-.22-.06.13-.05.26-.06.31-.13.15-.2.26-.42.4-.64-.12-.02-.21-.03-.3-.04,0-.03-.01-.05-.02-.08.35.08.59-.03.76-.31-.28-.13-.87.13-.91.45-.04.29-.23.43-.41.59-.23.21-.4.58-.31.84-.36-.1-.49.17-.68.37-.09.09-.27.14-.29.24-.06.31-.3.51-.43.77-.41.75-1.04,1.37-1.32,2.2-.08.25-.18.49-.29.77-.14.23-.32.49-.47.77-.13.26-.09.59-.35.8-.02.01,0,.07-.01.1-.13.33-.24.67-.39,1-.08.19,0,.44-.22.58.09.43-.17.78-.27,1.17-.06.21-.2.4-.22.61-.03.3-.17.49-.43.7-.34-.44-.67-.88-1.01-1.32-.03-.04-.08-.09-.12-.09-.22,0-.28-.18-.37-.32-.04-.06-.07-.13-.13-.17-.34-.24-.68-.49-1.03-.72-.15-.09-.33-.14-.5-.2-.07-.02-.18,0-.22-.05-.19-.18-.35-.39-.53-.58-.08-.09-.15-.19-.25-.26-.54-.39-1.08-.78-1.61-1.17-.01,0-.01-.03-.03-.08.06-.06.15-.13.19-.22.04-.07.04-.17.03-.25-.02-.11-.07-.22-.11-.33.02,0,.04-.02.06-.02-.04-.02-.09-.05-.11-.06.05-.06.16-.14.15-.18-.09-.26.1-.41.19-.61.3-.67.61-1.35.78-2.08.06-.25.26-.47.4-.71.26-.46.47-.96.97-1.25.19-.11.33-.32.51-.45.27-.18.63-.2.75-.63.08-.28.42-.49.65-.73.2-.2.41-.39.61-.58.45-.43.89-.88,1.35-1.3.57-.52,1.17-1.01,1.62-1.65.15-.23.31-.5.64-.53.04,0,.07-.06.11-.1,0-.03-.02-.05-.03-.08-.08.02-.18.02-.24.07-.17.14-.33.24-.55.1-.03-.02-.09,0-.14,0,0,.04-.02.07-.01.1.08.23-.09.36-.23.45-.06.04-.23-.09-.36-.12-.09-.02-.22-.02-.28.04-.25.24-.49.51-.73.78.03.02.07.06.13.1-.1.11-.17.26-.31.03-.18.14-.36.27-.54.4-.29.23-.59.44-.86.69-.11.1-.13.3-.24.41-.36.34-.75.65-1.12.99-.08.07-.13.17-.19.26-.27.42-.81.6-1,1.09-.02.05-.08.08-.14.12-.02-.06-.04-.1-.04-.1-.22.15-.4.33-.63.41-.34.12-.71.17-1.07.25-.1.02-.19.05-.29.09-.25.1-.5.2-.73.33-.22.13-.4.35-.64.43-.27.1-.42.3-.6.48-.1.1-.2.2-.31.31,0,.01.04.05.03.05-.16.19-.34.34-.44.54-.22.45-.34.91-.12,1.4.18.39.33.8.48,1.2.19.5.37,1,.56,1.5.03.09.07.17.09.23,0,.1-.03.19-.01.27.15.56.31,1.11.45,1.67.16.62.25,1.26.45,1.86.42,1.24.89,2.47,1.34,3.71.05.14.02.3.08.43.23.48.49.95.73,1.43.09.18.17.36.25.55.11.27.21.55.31.83.03,0,.05-.02.08-.03v-.17s.04-.01.06-.02c.36,1.21,1.16,2.18,1.74,3.24-.04.06-.09.15-.07.18.27.34.55.68.83,1.02.02.03.06.05.07.08.18.42.43.77.77,1.1.48.47.9,1.01,1.35,1.52.3.34.61.67.92,1.01.02-.01.04-.03.05-.04-.01-.05-.03-.1-.04-.15.1.03.15.1.21.15.3.26.48.77,1.06.49,0,.03.01.06.02.09-.06.02-.13.04-.23.07.42.27.76.5,1.12.71.94.55,1.83,1.2,2.97,1.32.37.04.73.18,1.07.34.3.14.55.38.84.53.77.39,1.55.77,2.34,1.12.57.26,1.16.47,1.75.69.48.18.97.36,1.46.5.48.13.98.18,1.46.33.39.12.82.1,1.18.35.03.02.07.01.1.02.38.08.78.14,1.15.26.3.09.57.29.87.39.63.21,1.19.57,1.9.56.68-.02,1.36.08,2.04.12.07,0,.16-.04.21,0,.19.12.36.25.57.4.01.22-.08.43-.32.57-.13.07-.19.18-.13.36.11.3.19.61.29.91.03.09.1.21.18.24.36.15.73.29,1.11.4.27.08.56.1.89.15-.11.07-.19.11-.25.17-.08.09-.2.18-.22.28-.06.26-.06.53-.1.79-.03.2,0,.38.18.48.33.19.67.37,1.03.52.44.19.89.35,1.41.55-.15.07-.24.1-.31.15-.08.06-.16.13-.19.22-.01.03.1.11.16.18.06.07.21,0,.22.2.01.2.16.4.24.6-.19.18-.19.87.07,1.05.33.23.71.5,1.09.53.85.08,1.64-.18,2.27-.78.15-.14.2-.31.1-.52-.07-.14-.11-.29-.16-.45-.02-.04-.03-.08-.04-.12-.02-.06-.03-.12-.05-.17.02,0,.04,0,.06,0,.03-.19.08-.37.19-.52.12-.16.26-.31.45-.39.09-.04.18-.07.27-.1,0,0,0,0,0,0,.14-.12.28-.28.45-.37.29-.15.61-.23.9-.36.48-.22.52-.43.21-.85-.23-.3-.45-.61-.68-.91.12-.08.23-.16.35-.22.62-.31,1.24-.62,1.86-.93.04-.02.08-.05.09-.09.07-.21.14-.43.2-.65.05-.19.03-.43.14-.57.18-.23.42-.47.68-.58.52-.23,1.08-.32,1.66-.35.33-.02.66-.1.99-.16.53-.1,1.06-.21,1.59-.31.63-.12,1.25-.23,1.88-.36.21-.04.42-.11.63-.17.32-.09.65-.18.97-.26.09-.02.19,0,.28,0,.06,0,.12.04.18.03.29-.02.58-.06.85-.08,0,0-.05-.05-.1-.11.21-.07.39-.15.59-.2.16-.04.35,0,.5-.07.47-.21,1-.22,1.46-.47.16-.09.38-.06.56-.11.47-.11.94-.24,1.41-.36-.01-.02-.02-.05-.03-.07.04-.05.08-.1.13-.14.15-.13.33-.24.46-.4.13-.15.25-.28.45-.31.22-.03.44-.07.66-.11.13-.02.28-.02.38-.1.2-.16.38-.28.63-.11-.02-.1-.05-.23-.04-.23.15-.05.3-.09.47-.13.1-.24.34-.32.69-.3-.13-.07-.18-.09-.26-.13.06-.07.09-.12.13-.15.28-.19.56-.37.83-.56.15-.1.23-.36.46-.15.26-.29.5-.56.78-.86h-.22c.34-.21.63-.45.85-.77.2-.29.29-.63.51-.93.31-.42.61-.84.99-1.19.15-.14.32-.26.45-.42.22-.26.38-.57.64-.79.55-.48.89-1.09,1.28-1.68.39-.6.78-1.21,1.15-1.82.18-.29.32-.59.48-.89-.03-.01-.05-.03-.08-.04-.05.09-.1.18-.15.27-.13.21-.18.48-.49.53-.05,0-.12.1-.12.15-.02.17-.01.17-.14.15-.17.14-.3.27-.45.37-.04.03-.13,0-.19,0,0-.06,0-.13.03-.18.04-.09.11-.16.14-.25.19-.43.37-.87.57-1.3.08-.17.08-.27-.11-.33.06-.07.12-.11.15-.18.12-.3.24-.6.35-.9.1-.29.19-.57.28-.86.12-.4.22-.81.33-1.21.06-.23.2-.47.16-.67-.05-.22,0-.38.05-.57.07-.22.11-.44.17-.66.08-.32.04-.71.58-.76-.12-.08-.17-.12-.2-.14.12-.24.29-.44.34-.67.1-.46.12-.94.19-1.4.01-.08.07-.2.14-.22.29-.11.58-.17.82.19.12-.22.23-.4.31-.59.08-.19.2-.26.39-.19.08.03.17.05.2.06-.08.31-.14.6-.22.88-.19.64-.38,1.28-.57,1.92-.03.09-.01.18-.02.26-.44.4-.36,1.02-.61,1.5-.01.02.05.08.09.13.24-.59.47-1.15.7-1.7.02-.05.06-.12.09-.12.18.03.19-.11.23-.22.03-.1.07-.2.11-.29.36-.7.59-1.43.74-2.23h.45c-.3,1.54-.59,3.09-.89,4.6-.08.11-.17.2-.22.3-.05.1-.05.22-.08.37.03.06.09.17.18.32-.18.01-.29.02-.36.02-.04.11-.07.19-.11.3.02,0,.08.04.17.07-.05.1-.09.18-.12.26-.05.13-.12.27-.12.4,0,.23-.06.32-.31.26.05.11.09.19.13.27-.23.03-.39.38-.34.66-.07.06-.19.14-.19.15.09.18-.07.31-.07.46,0,.23-.06.37-.31.36.06.1.1.17.15.26-.2,0-.45.17-.39.27.13.22-.11.25-.16.37-.03.07-.1.12-.16.17-.11.09-.22.19-.33.28-.01.01-.02.02-.04.04.03.05.06.1.09.15-.03-.03-.06-.06-.09-.09-.07.11-.12.24-.21.33-.06.05-.21.01-.26.06-.05.05-.02.17-.04.25-.03.1-.09.19-.15.32-.19.06-.35.2-.38.46.1-.03.17-.09.23-.15.02-.02.04-.04.06-.06.1-.1.27-.18.29-.3.03-.18.14-.26.27-.33.07-.04.14-.09.18-.15.47-.63.94-1.26,1.39-1.89.2-.28.37-.59.55-.88,0-.01,0-.03,0-.07-.05-.02-.11-.05-.14-.06.09-.12.19-.23.26-.36.07-.12.13-.25.19-.38.11-.24.21-.48.31-.72.13-.31.26-.63.38-.95.11-.3.2-.61.33-.9.06-.15.16-.27-.13-.34.14-.05.22-.08.27-.1.04-.16.08-.29.11-.43.07-.25.19-.51.21-.76.02-.2.42-.34.13-.55.04-.14.08-.25.09-.37.01-.14-.03-.3,0-.43.07-.34.23-.68.24-1.03ZM69.92,73.24c-.43-.49-.85-.98-1.3-1.49.12-.04.23-.07.34-.11.01.41.35.59.56.86.17.22.33.45.5.67-.03.02-.06.05-.1.07ZM60.57,63.41c.11.07.21.14.32.21-.03.04-.06.08-.09.13-.1-.08-.2-.16-.3-.24.02-.03.05-.06.07-.09ZM33.54,2.6c-.05-.28.03-.35.46-.5-.15.17-.3.33-.46.5ZM35.16,3.65c-.05,0-.1-.12-.15-.19.06-.05.12-.13.19-.14.32-.03.64-.04.95-.05.07.11.14.22.24.38-.43,0-.83,0-1.23,0ZM39.62,2.46c.2-.09.34-.3.52-.45.04-.03.16-.05.17-.04.06.11.18.27.14.35-.27.57-.76.87-1.37.96-.04,0-.09,0-.13.02-.36.1-.5.02-.63-.34.44-.16.89-.3,1.31-.5ZM37.04,1.94c.52-.22.98-.16,1.52-.04-.24.12-.39.21-.55.28-.03.01-.08.02-.1,0-.24-.19-.53-.16-.86-.25ZM15.4,63.56c.2-.35.29-.39.6-.24-.22.09-.41.17-.6.24ZM17.09,61.72c.16-.05.27-.09.39-.13.02.15.06.3.05.44,0,.07-.09.04-.44-.31ZM35.47,42.47s-.05,0-.08,0c.06-.39.12-.78.19-1.17h.05c-.05.4-.11.78-.16,1.17ZM37.05,42.76c-.11-.04-.2-.08-.29-.12.08-.08.16-.16.24-.24.02.02.03.04.05.06v.3ZM37.08,42.24c-.01.08-.13.14-.2.21-.04-.01-.08-.03-.12-.04.05-.83.1-1.67.15-2.58.07.09.09.12.11.15.29.75.16,1.51.06,2.26ZM39.09,37.38c.02.31.04.56.06.81-.09-.24-.3-.47-.06-.81ZM11.48,83.3c.66-.04,1.33-.11,1.99-.1.61,0,1.23.08,1.84.16.27.03.52.2.78.22,1.18.08,2.27.53,3.41.79.23.05.46.07.69.11.27.05.37.18.35.46-.02.18-.08.36-.1.54-.04.31-.07.62-.11.93,0,.07-.02.14-.04.2-.02.1-.08.22-.04.28.14.24.04.43-.11.63.03,0,.06,0,.09.01,0,.1,0,.2,0,.3-.01.39-.07.77-.04,1.16.05.78.15,1.55.23,2.33.01.13.03.27,0,.39-.09.43.14.79.21,1.19.02.11,0,.24,0,.28.08.29.14.53.21.76.03.09.08.17.12.26.32.77.65,1.54.97,2.31.21.52.45,1.01.8,1.46.25.31.48.64.58,1.05.05.18.27.31.38.49.22.35.53.62.64,1.06.07.26.39.46.59.68.23.24.46.48.68.73.1.12.17.27.25.41-.6-.21-1.3-.14-1.77-.65-.06.01-.13.05-.17.03-.36-.24-.7-.5-1.06-.75-.72-.5-1.49-.94-2.16-1.5-.71-.6-1.34-1.31-1.99-1.98-.41-.41-.81-.83-1.2-1.26-.49-.54-1.01-1.07-1.44-1.66-.55-.74-.99-1.56-1.53-2.3-.25-.35-.25-.75-.42-1.11-.32-.66-.62-1.34-.91-2.02-.24-.56-.45-1.15-.7-1.7-.43-.93-.72-1.91-1.05-2.88-.05-.15-.1-.31-.16-.45-.02-.04-.09-.05-.16-.09-.02.08-.02.15-.05.19-.04.06-.09.15-.15.16-.05,0-.14-.06-.17-.12-.13-.27-.24-.56-.37-.88.39-.04.73-.08,1.07-.1ZM23.02,97.79l.11-.09c.2.25.4.5.6.75-.02.02-.04.04-.07.06-.21-.24-.43-.48-.64-.72ZM12.17,87.24s-.05.01-.07.02c-.12-.15-.27-.29-.18-.51.03,0,.06-.02.09-.03.05.17.1.34.15.52ZM11.76,86.15c.02.06-.02.13-.04.28-.14-.18-.26-.28-.31-.4-.12-.3-.21-.61-.3-.93-.02-.06.03-.14.05-.2.05.04.13.08.16.14.16.37.31.74.45,1.12ZM8.56,84.08c-.02-.2-.04-.41-.07-.66.26.14.28.38.07.66ZM1.35,75.92c0-.07.02-.17-.02-.24-.17-.32-.35-.63-.52-.92,1.08-.69,2.11-1.36,3.15-2.03-.01.05,0,.12-.04.16-.45.58-.74,1.23-.93,1.93-.08.31-.23.6-.29.9-.05.28,0,.57-.04.85-.04.42-.11.83-.17,1.26-.42-.29-.66-.69-.8-1.17-.08-.27-.23-.51-.35-.76ZM3.61,85.18c.15.3.3.6.48.93-.34-.14-.57-.57-.48-.93ZM14.31,99.32c-.76-.43-1.51-.87-2.25-1.33-.2-.12-.35-.34-.51-.52-.08-.09-.14-.2-.23-.29-.66-.71-1.33-1.41-1.97-2.13-.49-.55-.93-1.14-1.4-1.7-.07-.09-.16-.15-.25-.23.05-.04.08-.07.07-.06-.15-.27-.3-.51-.44-.76-.17-.31-.34-.62-.5-.93-.1-.2-.2-.39-.28-.6-.44-1.02-.86-2.05-1.31-3.06-.39-.87-.85-1.72-1.2-2.6-.39-.98-.7-1.99-1.05-2.99-.12-.33-.23-.67-.34-1-.25-.7-.49-1.41-.52-2.24.22.09.42.14.59.25,1.36.84,2.73,1.66,3.94,2.73.15.13.37.19.55.29.08.05.17.14.21.23.1.25.2.51.24.78.07.43.34.71.64.99.05.05.08.15.09.22.04.34.07.67.09,1.01.03.93.27,1.82.5,2.72.11.43.3.82.4,1.24.1.42.42.75.42,1.22,0,.27.23.54.34.81.08.19.14.4.23.59.13.29.37.55.4.85.03.26.25.47.17.76-.05.18.33.5.55.53.1.01.2.04.3.07,0,.01,0,.02-.01.04-.15,0-.3-.02-.45-.03-.01.02-.02.04-.03.06.1.11.2.23.3.34.03.04.07.08.1.12.14.24.29.49.42.74.03.06.03.14.04.21-.06-.03-.13-.05-.18-.09-.11-.09-.21-.19-.32-.28.19.3.36.61.55.9.04.06.06.13.07.2.35.31.72.6,1.05.93.34.33.63.72.98,1.05.5.48,1.04.92,1.56,1.38.08.07.17.15.31.27-.69-.14-1.3-.33-1.85-.65ZM20.01,101.35c-.31-.1-.62-.19-.93-.29,0-.03.02-.06.03-.08l.93.3s-.01.05-.02.07ZM24.28,103c-.56-.2-1.11-.42-1.67-.63-.06-.02-.13-.01-.18-.05-.47-.4-1.07-.5-1.63-.7-.19-.07-.35-.22-.52-.34-.2-.14-.4-.28-.62-.41-.52-.3-1.04-.57-1.56-.88-.63-.37-1.27-.75-1.88-1.16-.28-.19-.52-.44-.78-.66,0,0-.01-.02-.02-.02-.36.03-.45-.34-.72-.47-.38-.17-.71-.44-1.03-.72.08.04.17.07.19.08-.38-.51-.81-1.03-1.18-1.61-.29-.45-.5-.96-.74-1.44-.26-.51-.53-1-.77-1.52-.3-.65-.59-1.31-.84-1.98-.19-.5-.31-1.03-.47-1.55-.04-.13-.12-.25-.18-.39.01-.01.05-.04.04-.04-.07-.19-.17-.35-.19-.53-.08-.69-.13-1.39-.19-2.08-.05-.6-.1-1.2-.14-1.8-.02-.31.22-.54.52-.5.05,0,.1.06.12.11.28.65.55,1.3.84,1.95.3.69.62,1.38.93,2.08.1.23.2.46.32.68.07.13.22.21.3.33.13.19.24.4.37.62-.3,0-.38.11-.24.34.19.33.41.64.62.96.1.15.22.3.34.44.03.04.1.05.16.07.06.02.16,0,.17.03.02.06,0,.13-.01.2.26.08.26.09.19.39.07-.05.14-.09.25-.17.06.08.13.17.22.3-.11.02-.17.03-.22.03,0,.02-.01.03-.01.04.08.23.14.48.24.7.1.23.3.42.35.65.04.21.17.33.29.46.21.23.38.46.31.8-.01.07.05.17.1.23.43.53.88,1.05,1.31,1.57.35.42.65.88,1.03,1.27.49.51,1.01.97,1.55,1.43.55.47,1.14.91,1.71,1.36-.05,0-.13.02-.2.03,0,.02-.02.04-.02.06,1.13.77,2.38,1.33,3.66,2.01-.06.03-.11.05-.16.07h-.01s0,0,0,0c0,0,0,0,0,0,0,0,0,0,0,0,.08.07.16.15.29.27-.1.02-.18.05-.24.03ZM27.16,103.86c-.88-.26-1.76-.51-2.64-.77q.08-.1.83-.12c-.37-.09-.74-.19-1.11-.28.32-.11.61,0,.89.13.69.31,1.38.62,2.06.93-.01.04-.03.07-.04.11ZM32.45,104.65c-.22-.04-.43-.13-.65-.13-.71-.01-1.32-.31-1.94-.59-.69-.32-1.34-.72-1.91-1.23-.85-.75-1.79-1.41-2.57-2.25-.36-.38-.76-.72-1.03-1.18-.58-1-1.19-1.98-1.74-2.99-.24-.45-.37-.96-.55-1.44-.11-.29-.24-.56-.32-.86-.14-.54-.26-1.09-.37-1.63-.1-.47-.19-.94-.28-1.41-.02-.13-.02-.26-.04-.39-.02-.12-.05-.25-.09-.43,0,0,.05-.06.05-.12-.07-.51,0-1.02,0-1.53,0-.35.06-.69.09-1.04,0-.09.02-.19.01-.29-.04-.46.12-1.49.32-1.83.28.38.38.78.29,1.24-.08.39-.15.79.16,1.13.21.24.17.55.22.84.08.42,0,.87.29,1.28.19.26.21.64.31.96.17.57.2,1.18.53,1.7.07.12.08.28.14.41.04.09.13.17.21.27-.1.3-.04.45.19.5.02.14,0,.28.05.39.06.13.08.12.56.07-.09-.31-.18-.61-.27-.92-.02-.08-.03-.17-.05-.25-.02-.08-.02-.17-.05-.25-.1-.25-.29-.48-.31-.73-.05-.49-.41-.87-.38-1.37-.47-.92-.54-1.95-.8-2.92-.01-.05-.03-.11,0-.14.14-.19.05-.32-.03-.43,0-.12.02-.24.02-.37,0-.23.02-.47-.02-.7-.07-.39-.2-.77-.28-1.16-.01-.06.04-.18.09-.21.09-.04.2-.02.31-.02.63-.04,1.26-.07,1.89-.11.44-.03.87-.04,1.31-.1.38-.05.76-.25,1.13-.22.56.04,1.07-.17,1.61-.22.21-.02.41-.09.61-.1.45-.01.9,0,1.36,0,.48,0,.8.29.88.75.09.51.28.97.63,1.37.04.05.05.13.06.18.09-.05.18-.1.3-.16.14-.57.29-1.17.45-1.77-.02-.02-.05-.04-.07-.06.15-.02.3-.04.46-.05.63-.04,1.25-.09,1.88-.11.11,0,.25.04.34.11.6.44,1.2.89,1.8,1.34.13.1.17.18.14.35-.15.85-.3,1.7-.41,2.56-.06.51-.15,1.03-.08,1.56.06.41-.03.84-.03,1.26,0,.21.03.41.05.62.06.59.13,1.18.18,1.77.08,1-.02,2.01.02,3.01,0,.14.06.28.09.42.02.07.06.17.03.22-.16.26-.03.49.04.72.02.08.08.15.14.26-.02.02-.06.08-.11.16.07.06.14.12.23.19-.07.05-.13.1-.16.12.05.49.1.95.15,1.42-.08.04-.15.08-.2.1.03.42.07.81.11,1.32-.01.14-.06.41-.04.67.04.53.12,1.07.16,1.6.01.22-.06.45-.1.68-.02.12-.05.24-.08.39-.22-.02-.43-.03-.65-.2-.89-.7-1.6-1.56-2.25-2.46-.37-.52-.63-1.13-.91-1.71-.06-.12-.01-.3-.05-.44-.03-.12-.11-.23-.18-.36.22-.08.14-.21.06-.36-.04-.08-.07-.16-.1-.24-.04-.11-.09-.22-.15-.38.18-.27-.07-.54-.13-.83-.05-.28-.16-.55-.17-.83,0-.21-.07-.31-.27-.4-.26.28.06.6-.07.88.09.06.17.11.27.17-.12.21-.19.43.09.57.03.02.05.08.05.12,0,.18-.02.36,0,.54.02.16.14.32.13.47-.01.3.09.62.19.85.12.26.04.57.29.82.25.24.33.64.49.97-.15-.1-.3-.19-.45-.28-.02.02-.03.05-.05.07.05.06.08.14.14.18.35.26.51.66.74,1.01.37.56.77,1.1,1.17,1.66-.05,0-.12.01-.18.02-.27.03-.54.07-.82.1-.07,0-.14,0-.21,0-.5-.03-1-.06-1.5-.1-.13,0-.25-.04-.38-.07ZM39.67,111.95c0,.08-.02.16-.04.24-.02.07-.05.15-.09.22-.09.2-.24.35-.42.47-.16.11-.37.17-.56.17-.23,0-.44-.08-.62-.23-.11-.1-.18-.23-.22-.37-.02-.03-.06-.05-.07-.08-.04-.06-.06-.13-.06-.2-.01-.05,0-.1,0-.16,0,0,0-.02,0-.02.03-.23.09-.53.38-.62.02,0,.04-.01.06-.02.16-.13.34-.23.54-.27.09-.02.19-.04.29-.03.09,0,.16.02.24.04.1-.02.19-.04.29-.05,0,.01,0,.03,0,.04-.06.02-.12.04-.18.05.02,0,.03,0,.05.02.2.09.35.29.4.5.02.1.04.2.02.31ZM41.19,109.68s-.03,0-.04.01c0,.01-.01.03-.01.04,0,.04-.04.08-.08.1-.2.07-.41.15-.62.18-.35.05-.71.09-1.06.1-.31,0-.63-.03-.94-.06-.41-.04-.82-.09-1.22-.16-.25-.04-.5-.07-.75-.11-.1,0-.19,0-.29,0-.21,0-.34-.1-.43-.23-.16-.05-.29-.16-.34-.35-.07-.26.09-.62.38-.67.93-.16,1.88-.24,2.83-.26.52-.01,1.04,0,1.56.07.1.01.2.03.31.05.33-.06.65.05.97.24-.02.04-.05.09-.07.13.31.29.26.79-.19.94ZM43.51,106.55c-.38.49-1.09.61-1.67.67-.66.07-1.32.03-1.98,0-2-.09-4.01-.02-6.01-.02-.7,0-.7-1.08,0-1.08.99,0,1.99-.02,2.99-.02.05-.03.1-.06.16-.08,1.96-.53,4.11-.59,6.12-.39.49.05.68.54.38.92ZM53.97,102.55c-.27.16-.59.22-.9.32-.17.06-.36.09-.53.15-.32.11-.62.28-.97.33-.65.1-1.29.25-1.94.38-.08.02-.17.01-.3.02.61-.33,1.16-.62,1.71-.92l-.04-.08c-.13.03-.26.06-.39.1l-.02-.04.75-.41s-.02-.07-.04-.11c-.18.04-.35.09-.58.14.06-.07.09-.12.14-.16.39-.32.78-.63,1.18-.94.14-.11.29-.19.44-.28.19-.12.37-.25.57-.39-.06-.05-.11-.09-.16-.14.06-.02.14-.03.15-.05.1-.32.33-.53.55-.77.07-.08.12-.19.21-.22.39-.17.5-.57.74-.87.06-.08.1-.18.17-.26.37-.47.74-.95,1.13-1.41.44-.53.77-1.11,1.06-1.72.07-.16.27-.3.26-.45,0-.16.11-.23.15-.34.08-.21.23-.4.32-.61.04-.11.07-.28.02-.36-.09-.14-.25-.23-.37-.34-.06.07-.12.13-.14.15-.21.47-.39.88-.59,1.33.11.17.02.38-.13.53-.19.19-.16.42-.24.66-.04-.03-.11-.07-.18-.12-.29.43-.57.85-.86,1.28-.43.64-.84,1.28-1.28,1.91-.22.32-.47.61-.88.74-.24.08-.44.3-.65.48-.13.11-.25.25-.36.39-.09.12-.13.29-.23.4-.28.29-.57.56-.86.84-.01.01-.03.03-.04.03-.49.3-.98.61-1.48.91-.68.4-1.36.8-2.06,1.16-.38.2-.81.31-1.22.46-.14.05-.27.13-.41.17-.22.07-.45.15-.68.15-.41,0-.82-.05-1.3-.08.11-.16.18-.3.29-.41.18-.19.4-.34.57-.54.28-.34.54-.7.8-1.06.03-.04.05-.08.08-.1.24-.14.31-.32.12-.56.07.04.13.09.24.15.21-.36.65-.54.72-1,0-.02.01-.03.02-.05.36-.39.69-.83,1.1-1.15.24-.19.42-.39.58-.63.15-.21.25-.46.38-.68.11-.18.23-.35.33-.54.21-.39.4-.79.59-1.19.02-.03-.05-.1-.09-.17.07,0,.12,0,.22.01,0-.2-.01-.39-.02-.58,0-.03,0-.06,0-.07.3-.24.17-.56.18-.87,0-.21.07-.41.11-.62.07-.33.12-.66.2-.98.07-.27.19-.54.28-.8.04-.12.12-.26.09-.38-.06-.28.07-.48.18-.71.06-.12.06-.28.09-.42.05-.22.1-.45.16-.67.03,0,.06,0,.08,0-.09-.07-.17-.14-.3-.24.1-.11.21-.21.29-.32.05-.07.09-.16.1-.24.02-.52.03-1.03.04-1.55,0-.41,0-.82.01-1.23,0-.11.1-.21.15-.31.02-.11.05-.2.07-.3,0-.05,0-.1,0-.15-.06-.31.11-.66.39-.81.25-.14.51-.25.73-.45.12-.11.36-.1.53-.17.27-.11.54-.21.82-.03.04.03.13-.02.2-.03.39-.1.75-.03,1.09.16.16.08.32.16.26.4-.01.04.13.18.19.16.47-.1.9-.01,1.33.24.04-.12.07-.19.1-.29.14.14.26.27.4.38.06.05.17.04.26.06,0-.11.03-.21.01-.31-.01-.08-.08-.15-.16-.31.27.05.47.09.68.13.12.02.26,0,.37.05.15.06.37.16.39.27.06.37.04.76.05,1.14,0,.11.05.22.07.34-.21.14-.24.36-.26.61-.02.3-.18.59-.17.88.01.32-.24.52-.24.84,0,.38-.21.76-.26,1.14-.08.59-.42,1.09-.54,1.68.15.15.39.11.51-.13.08-.15.12-.32.17-.49.12-.33.24-.66.35-1,.1-.3.19-.6.29-.9.09-.29.18-.58.27-.87.02-.08,0-.17.02-.25.02-.11.06-.21.08-.32.02-.15.03-.3.05-.45-.03,0-.06-.02-.09-.03.05-.04.12-.07.15-.12.03-.06.05-.18.03-.2-.25-.17-.11-.4-.1-.6,0-.22.02-.45.05-.67,0-.07.08-.14.08-.2-.02-.33,0-.69-.12-.97-.11-.24-.4-.41-.62-.6-.05-.04-.16-.05-.22-.02-.17.07-.34.17-.52.26.03.05.06.13.13.25-.26-.12-.42-.09-.49.15-.28-.16-.53-.37-.82-.46-.65-.2-1.32-.35-1.99-.5-.41-.09-.83-.13-1.25-.19-.06-.44-.15-.87-.54-1.16.12-.1.29-.19.35-.32.05-.13-.03-.3-.04-.46-.03-.29-.08-.58-.08-.87,0-.66-.1-1.3-.47-1.87-.07-.11-.2-.19-.3-.3,0,.02-.03.04-.03.05.08.41.17.82.25,1.24.02.11-.03.24-.03.36,0,.6-.02,1.19.14,1.79.12.44.11.91.14,1.36.02.22-.09.37-.31.47-.35.16-.68.36-1.03.52-.24.11-.49.21-.74-.03-.21-.2-.47-.36-.73-.51-.14-.08-.31-.12-.47-.15-.63-.1-1.27-.24-1.9-.25-.48-.01-.97.01-1.46.14-.51.14-1.08.04-1.63.07-.34.02-.67.08-1,.11-.17.02-.35,0-.52.04-.23.04-.46.1-.69.16.22.19.22.2-.11.43,1.14.44,2.3.39,3.47.19.04-.17.08-.33.12-.5h.3s0-.04,0-.05c-.19-.04-.37-.08-.57-.12.24-.3.57-.27.73.03.19.33.43.46.78.31.42-.18.83-.1,1.24-.02.42.07.85.16,1.26.28.17.05.32.19.45.31.33.29.32.67.25,1.06-.04.21-.04.44,0,.65.02.1.15.18.24.28-.05,0-.12,0-.19.01,0,.02,0,.05,0,.05.32.14.24.41.23.66,0,.23-.04.46-.04.69-.01.39-.07.43-.43.27-.03-.01-.06,0-.09,0-.02.03-.04.05-.06.08.05.02.1.02.14.05.17.12.17.33.01.49-.04.04-.07.09-.1.13.05.03.09.08.14.08.2,0,.18.07.13.23-.04.12.02.26.03.4,0,.1.01.2.02.31-.03,0-.05.01-.08.02-.03-.04-.06-.11-.11-.12-.13-.04-.28-.1-.4-.07-.05.01-.09.21-.1.32-.05.67-.06,1.35-.13,2.02-.04.38-.07.77-.25,1.14-.11.21-.05.51-.14.73-.16.4-.38.78-.58,1.19.05.07.19.19.2.32,0,.12-.13.24-.24.33-.03.21-.21.61-.41.7.07.05.12.09.18.12-.23.26-.45.5-.65.76-.06.08-.05.22-.12.29-.12.12-.27.22-.41.33.05.03.1.07.2.13-.64.87-1.27,1.74-1.92,2.63.08.02.14.03.2.05-.04.02-.07.03-.1.04-.07.02-.19.02-.21.07-.11.18-.26.26-.45.33-.09.03-.13.2-.21.29-.32.32-.65.63-.98.95-.05.05-.15.06-.2.11-.08.07-.15.16-.22.24-.02.03-.02.08-.04.09-.55.32-.87.95-1.52,1.13-.26.08-.52.26-.77.25-.72-.02-1.45-.12-2.17-.2-.07,0-.18-.08-.2-.15-.13-.5-.25-1.01-.34-1.51-.16-.87-.33-1.73-.32-2.63,0-.47-.09-.94-.14-1.41,0-.03,0-.09-.03-.1-.21-.11-.12-.34-.19-.5-.09-.22-.06-.48-.09-.72,0-.06-.06-.12-.09-.18-.02-.04-.06-.08-.06-.13-.01-.12-.01-.24,0-.36,0-.05.03-.13.05-.14.06,0,.12.03.16.04-.06-.96-.15-1.92-.18-2.89-.02-.61.05-1.22.06-1.84,0-.38-.05-.76-.06-1.15,0-.43-.01-.86.02-1.29.04-.51.1-1.01.19-1.51.11-.66.25-1.32.56-1.94.12-.23.19-.5.22-.76.03-.24.15-.3.34-.3.3,0,.6.05.89.04.25,0,.49-.07.76-.12-.04-.09-.07-.15-.1-.23.13.06.25.16.36.15.29,0,.59-.05.92-.08-.11-.07-.18-.11-.26-.16.02-.03.04-.05.06-.08.17.05.34.1.47.15.06-.12.12-.23.17-.34.01,0,.03.02.04.03v-.38c-.1,0-.25-.04-.39-.02-.38.06-.75.14-1.12.23-.11.03-.2.15-.31.16-.12.01-.26-.09-.38-.08-.38.04-.75.12-1.13.17-.17.02-.39.03-.53-.05-.58-.33-1.13-.7-1.69-1.05-.27-.16-.45-.34-.45-.7,0-.35-.12-.69-.14-1.04-.02-.23.05-.47.06-.7,0-.15-.04-.31-.05-.46-.01-.2-.02-.4,0-.59.03-.36.08-.71.1-1.07,0-.13-.04-.27-.06-.36v-.53c.08-.1.21-.19.23-.31.07-.36.1-.74.15-1.11,0,0,0-.02,0-.03.04-.07.11-.15.11-.22,0-.05-.09-.11-.15-.15-.07-.04-.16-.06-.32-.12.14,0,.23.01.27-.02.08-.08.32-.03.21-.3-.05-.13.08-.32.11-.49.01-.09-.03-.19-.04-.3.03-.06.11-.15.11-.25.01-.33,0-.67,0-1.04.02-.04.1-.15.08-.23-.04-.19.11-.39-.03-.58-.02-.03-.01-.1.01-.13.23-.27.16-.57.11-.88,0-.05.09-.12.15-.2-.21-.2.36-.5-.12-.73.39-.01.28-.28.32-.46.04-.19.06-.39.08-.59.02-.19,0-.39.02-.58.02-.2.02-.41.07-.6.25-.84.26-1.7.38-2.56.03-.21.07-.41.08-.62.01-.3,0-.6,0-.9,0-.16.02-.33,0-.49-.02-.37-.06-.74-.07-1.11,0-.13.05-.26.04-.39-.01-.24-.07-.48-.08-.72,0-.17.03-.34.05-.51,0,0,.01-.02.01-.02-.22-.28.11-.58-.04-.86-.03-.07.04-.18.04-.27.03-.47.05-.95.09-1.42.03-.34.1-.68.11-1.02.02-.42-.01-.85-.02-1.27,0-.2,0-.41,0-.61,0-.16-.05-.32-.05-.48-.03-.77-.03-1.54-.07-2.3-.02-.31-.04-.59.07-.9.07-.21,0-.47,0-.7,0-.06,0-.12,0-.18.01-.43.01-.86.04-1.28.01-.23.09-.46.12-.69.05-.44.07-.89.12-1.33.14-1.31.3-2.62.26-3.94,0-.07,0-.16.05-.19.11-.1.19-.16,0-.26-.03-.02.02-.19.04-.29.03,0,.06,0,.09,0,.13.68.26,1.36.38,2.04.04.23.03.47.08.7.07.33.18.65.28.96.01.04.09.05.14.08.05.03.1.05.15.11-.22-.03-.28-.03-.21.22.13.46.17.95.25,1.42.1.55.21,1.09.3,1.63.1.55.17,1.11.26,1.66.01.07.04.13.08.19.28.37.39.8.52,1.23.19.64.47,1.25.71,1.87.04.1.07.2.08.3.08.61.42,1.09.76,1.58.17.25.36.53.41.82.08.39.34.66.49,1,.14.33.39.61.57.93.38.66.73,1.34,1.11,2,.18.32.43.6.6.92.14.25.2.53.33.79.15.3.35.59.52.89.18.32.34.65.52.97.22.39.47.76.69,1.15.2.36.38.73.57,1.09.05.1.11.18.12.32-.07-.05-.14-.09-.21-.14-.01.01-.02.02-.04.03.17.17.33.34.53.55-.14-.05-.24-.08-.37-.13.09.3.17.48.47.54.12.02.21.29.29.45.1.2.18.4.26.61.07.18.12.37.19.55.02.06.04.13.08.16.35.19.41.56.56.87.32.7.66,1.39.95,2.1.31.76.6,1.52.83,2.3.11.38.07.8.1,1.2,0,.06.01.14.05.16.26.16.51.34.85.38.04-.42-.14-.75-.26-1.09-.23-.65-.5-1.29-.71-1.95-.46-1.42-1.04-2.79-1.67-4.14-.24-.52-.54-1.02-.8-1.54-.33-.66-.62-1.35-.96-2.01-.42-.8-.88-1.58-1.31-2.37-.3-.55-.57-1.12-.87-1.66-.29-.52-.62-1.03-.94-1.54-.31-.52-.63-1.03-.94-1.55-.44-.74-.91-1.47-1.32-2.23-.31-.57-.52-1.19-.84-1.75-.47-.82-.74-1.73-1.11-2.6-.1-.23-.11-.5-.18-.75-.04-.16-.13-.3-.17-.46-.13-.53-.27-1.07-.38-1.61-.12-.59-.2-1.19-.31-1.78-.13-.67-.24-1.35-.43-2.01-.19-.68-.32-1.36-.42-2.06-.06-.41-.18-.82-.26-1.23-.02-.12.01-.26,0-.39-.03-.25-.08-.51-.11-.76-.07-.58-.15-1.17-.17-1.75-.02-.33.07-.66.09-.99.01-.32.24-.4.54-.51.09.37.17.74.26,1.1.08.32.19.64.25.96.04.2.01.4.02.61,0,.04,0,.11.03.12.32.2.27.54.28.83.04,1.01.25,1.99.48,2.96.27,1.15.53,2.3.89,3.43.31.96.74,1.89,1.15,2.82.23.53.51,1.06.81,1.56.48.79,1.04,1.54,1.49,2.35.33.59.87.99,1.28,1.5.74.92,1.55,1.78,2.36,2.64.28.3.66.52.98.8.26.22.47.52.76.66.23.11.29.5.66.4.09-.02.25.18.36.31.2.24.38.48.72.56.15.04.29.19.4.33.15.2.32.33.57.4.2.06.37.21.52.3-.03.07-.06.15-.09.23.07.01.15.02.21.05.18.09.39.06.54.28.18.27.42.53.75.68.27.13.51.34.76.51.13.2.24.41.39.58.18.21.46.35.57.59.24.5.67.77,1.09,1.06.29.2.57.4.87.59.16.1.35.15.49.26.13.09.26.22.32.36.13.31.36.52.59.75.33.33.58.74.87,1.11.06.08.13.14.2.22.51.58,1.02,1.15,1.53,1.73.07.08.07.23.13.32.08.14.2.25.29.38.28.43.55.86.82,1.29.17.26.37.51.52.78.13.24.21.51.32.77.09.19.16.4.3.53.26.25.36.57.47.89.22.6.42,1.19.62,1.8.05.15.05.31.07.47.06.47.12.95.31,1.39.07.17.02.24-.16.26-.13.01-.25.06-.37.08,0,.03-.02.05-.02.08.16.13.31.26.47.38.22.16.45.3.67.46.18.13.17.32.15.5-.07.52-.17,1.03-.24,1.55-.05.36-.08.72-.11,1.08-.02.26-.01.26-.23.38.1.35-.03.67-.12.98-.09.3-.1.63-.33.9-.09.11-.04.35-.08.53.13.31,0,.61-.13.88-.38.81-.79,1.6-1.17,2.41-.65,1.39-1.63,2.52-2.71,3.58-.43.42-.94.79-1.27,1.28-.19.29-.48.37-.68.6-.17.19-.18.21-.06.44-.23.15-.47.31-.7.47l.02.04c.09-.04.18-.08.26-.12.02.04.03.07.05.11-.12.04-.24.09-.36.13-.09.03-.21.04-.27.11-.47.5-1.01.91-1.62,1.25-.37.21-.65.55-.98.82-.32.26-.64.52-.97.76-.5.35-.99.71-1.51,1.02ZM64.54,97.49c-.73.83-1.46,1.67-2.21,2.49-.18.19-.45.31-.69.44-.26.14-.53.25-.79.37-.06.02-.13.01-.19.02v-.07c.42-.32.87-.63,1.29-.96.12-.09.2-.25.31-.36.27-.29.55-.57.83-.84.54-.52,1.09-1.04,1.63-1.56.26-.24.52-.49.81-.7-.33.39-.65.79-.99,1.17ZM68.43,92.25c-.1.01-.19.03-.29.04l.06.03c-.08.16-.16.33-.25.5.11.18-.01.49-.37.85-.08-.18-.01-.42.18-.8.13-.26.22-.53.35-.83.11.05.22.09.33.14,0,.02,0,.04,0,.07ZM68.69,91.94s-.13-.01-.23-.02c.13-.23.23-.41.33-.59.04.02.07.03.11.05-.07.19-.13.38-.21.57ZM70.53,85.12c-.07.42-.17.83-.29,1.23-.05.16-.2.3-.29.45-.06.1-.09.2-.14.3-.03.06-.07.12-.11.2h.31c0,.28-.05.47-.38.41-.03,0-.08.06-.12.09.04.04.07.11.12.12.08.03.18.02.27.03,0,.03,0,.06,0,.08-.12.01-.23.03-.39.05-.07.21-.15.46-.22.7.02.01.04.02.07.03-.09.02-.19.03-.35.06.14.07.24.11.33.15-.11.13-.23.26-.34.38.04.11.09.22.13.32-.1.02-.19.04-.33.06.1.06.18.11.29.17-.1.02-.18.03-.32.05.09.05.14.07.16.08-.12.12-.25.24-.35.38-.04.06,0,.17,0,.26.02.22.17.42-.03.67-.12.15-.11.41-.17.69-.12-.17-.23-.32-.35-.49-.05.08-.26.1-.08.26.02.02-.05.13-.09.2-.29.45-.57.91-.87,1.35-.22.31-.48.59-.72.89-.21.28-.4.56-.6.85.02.02.04.05.05.07.13-.07.26-.13.41-.21-.16-.28.12-.35.25-.43.08-.04.27.1.4.17.02.01.04.08.02.09-.16.21-.33.42-.5.63-.03-.02-.06-.04-.09-.06.07-.14.14-.28.23-.47-.27.22-.51.41-.75.6-.17-.18-.37-.09-.59.2-.31.41-.63.81-.97,1.2-.22.25-.49.46-.72.69-.32.32-.62.66-.94.97-.18.18-.4.31-.59.48-.47.43-.94.87-1.41,1.29-.29.26-.62.47-.9.73-.4.38-.91.5-1.4.66-.42.14-.83.33-1.26.46-.36.11-.75.16-1.13.21.83-.34,1.49-.92,2.13-1.52.77-.72,1.56-1.41,2.32-2.14.45-.43.85-.9,1.28-1.34.31-.32.63-.63.94-.96.56-.61,1.11-1.23,1.65-1.85.27-.31.53-.62.78-.95.09-.13.12-.3.18-.45-.02-.01-.04-.02-.06-.04.06-.02.13-.04.19-.07.18-.09.15-.12.11-.35-.03-.15-.01-.36.2-.44.09-.03.18-.06.3-.1-.05-.08-.09-.13-.14-.2.09-.02.17-.03.19-.03.08-.13.13-.22.22-.36-.01-.09-.09-.26.16-.27,0-.08-.02-.17,0-.24.23-.58.47-1.16.7-1.74.07-.19.09-.4.13-.6.1-.5.23-1,.29-1.5.03-.31.2-.6.07-.94-.06-.15.08-.37.11-.56.05-.42.07-.84.14-1.26.04-.24.12-.47.22-.69.06-.12.2-.23.33-.26.18-.04.26-.13.31-.28.08-.26.25-.41.51-.53.42-.19.81-.44,1.22-.66.02-.01.04-.04.06-.05.22-.04.44-.09.66-.13.01.18.06.36.04.53-.13.88-.28,1.77-.44,2.65ZM74.13,79.93c-.17.1-.36.08-.52,0-.13.15-.33.18-.53.08-.02-.39-.05-.73-.06-1.07,0-.12.02-.25.02-.38.01-.48-.21-.9-.41-1.31-.18-.37-.41-.71-.61-1.07-.07-.13-.12-.28-.2-.46.34,0,.6.03.81.25.35.37.69.74,1.03,1.12,0,0,0,0,0,0,.16,0,.27.07.38.16.79.63,1.08,2.11.07,2.68Z"/>
      <path class="cls-1" d="M22.98,75.95c-.13-.09-.27-.18-.44-.29h.42c.09-.3.11-.62.26-.86.15-.23.04-.26-.12-.33-.03-.01-.06-.02-.09-.07h.62c-.08-.1-.12-.15-.17-.22.09.01.16.02.25.04-.02-.07-.08-.13-.06-.18.05-.13.09-.29.18-.36.22-.15.19-.36.23-.56.03-.12.08-.24.08-.36,0-.08-.08-.16-.13-.25.32-.23.45-.6.59-.99.15-.41.35-.8.54-1.19.01-.03.13-.05.16-.03.1.06.18.15.27.23-.15.21-.41.32-.3.61,0,.01-.1.07-.16.1.12.17.04.36-.14.42-.02.14-.03.24-.06.34-.07.2-.15.39-.23.58-.01.03-.01.09-.03.1-.28.12-.23.43-.38.63-.07.09-.06.22-.1.33-.03.09-.09.17-.16.29.13.24-.17.39-.25.6-.1.23-.25.44-.38.66-.14.25-.27.49-.41.74,0,0,0,0,0,0Z"/>
      <path class="cls-1" d="M17.95,68.44c-.18.13-.37.27-.52.38h.38s0,.04.01.07c-.22.08-.43.17-.61.23.01.4-.33.58-.54.79-.22.22-.57.32-.87.47-.02-.04-.05-.07-.07-.11.28-.23.58-.45.84-.7.18-.18.31-.42.49-.6.22-.23.47-.45.72-.65.12-.09.2-.04.18.12h0Z"/>
      <path class="cls-1" d="M28.37,66.04c-.11.14-.22.29-.34.43-.06.07-.14.13-.24.21,0,.02.03.13,0,.17-.16.18-.35.33-.53.51.04.31-.03.43-.34.53,0,0,0,0,0,0-.09-.12-.18-.23-.29-.39.23-.13.46-.27.73-.43v-.39c.1.03.17.05.22.07,0-.07-.01-.18.02-.19.27-.14.31-.67.78-.5h0Z"/>
      <path class="cls-1" d="M25.65,69.61c.03-.11.03-.27.1-.32.08-.05.22.01.34.03,0,.03,0,.06,0,.09-.08.05-.17.1-.27.15.12.19.04.34-.06.52-.12.23-.29.13-.45.12-.02,0-.07-.13-.06-.15.13-.14.28-.28.42-.41-.01-.01-.02-.02-.03-.03Z"/>
      <path class="cls-1" d="M26.1,68.81v-.3c.13-.01.29-.03.37-.04v-.79c.15.07.3.14.45.21,0,0,0,0,0,0-.07.12-.15.24-.22.36-.07.12-.11.26-.17.39-.09.19-.24.23-.42.18h0Z"/>
      <path class="cls-1" d="M18.85,67.83c.02-.13.05-.27.08-.4.33-.23.68-.47,1.02-.72.01.01.02.02.03.03-.36.38-.72.75-1.08,1.13l-.05-.04Z"/>
      <path class="cls-1" d="M67.37,69.52c-.05.07-.09.13-.14.21-.13-.12-.34-.1-.35-.35,0-.06-.16-.12-.23-.19-.05-.05-.07-.13-.1-.19.08,0,.18-.03.23,0,.14.1.34.14.38.36,0,.06.14.1.22.15Z"/>
      <path class="cls-1" d="M60.53,67.29c.49-.18.62.19.87.52-.33-.2-.59-.36-.87-.52Z"/>
      <path class="cls-1" d="M45.92,55.63c.2.25.4.51.61.78-.27-.05-.65-.47-.68-.72.02-.02.05-.04.07-.06Z"/>
      <path class="cls-1" d="M17.95,68.45c.05-.04.11-.08.18-.13-.06-.06-.11-.1-.18-.17.24-.08.45-.15.66-.21-.14.32-.35.48-.65.51,0,0,0,0,0,0Z"/>
      <path class="cls-1" d="M71.28,87.97c.13-.15.26-.29.39-.44.05.03.1.07.15.1-.05.17-.09.34-.14.52-.13-.03-.24-.06-.34-.09-.02-.03-.04-.07-.06-.1Z"/>
      <path class="cls-1" d="M12.18,65.7c-.13-.23-.13-.33.08-.41.12-.04.21-.15.36-.2-.14.19-.27.38-.43.6Z"/>
      <path class="cls-1" d="M28.62,65.3c.03.08.09.17.07.24-.04.19-.22.21-.44.02.13-.09.25-.17.38-.25,0,0,0,0,0,0Z"/>
      <path class="cls-1" d="M34.88,60.26v.7s-.05.02-.08.03c-.04-.07-.13-.17-.11-.2.1-.14-.05-.39.19-.53Z"/>
      <path class="cls-1" d="M16.03,70.37c-.11.33-.33.27-.55.24,0-.03-.02-.06-.03-.09.19-.05.37-.1.58-.15Z"/>
      <path class="cls-1" d="M35.47,55.64v.7s-.07,0-.11,0c.01-.11.03-.22.04-.32.02-.13.05-.25.07-.37Z"/>
      <path class="cls-1" d="M12.46,64.76c-.06.12-.12.24-.2.39-.06-.04-.13-.08-.22-.15.15-.11.27-.2.39-.28.01.01.02.03.04.04Z"/>
      <path class="cls-1" d="M28.38,66.05c-.1-.05-.21-.11-.31-.16,0-.02,0-.03,0-.05h.49c-.09.1-.13.15-.18.2,0,0,0,0,0,0Z"/>
      <path class="cls-1" d="M26.09,68.8c.01.14.03.29.04.45-.32-.17-.32-.26-.04-.45,0,0,0,0,0,0Z"/>
      <path class="cls-1" d="M20.01,66.47c-.19.11-.38.23-.58.34-.01-.02-.02-.03-.03-.05.19-.14.38-.27.57-.41.02.06.03.09.04.12,0,0,0,0,0,0Z"/>
      <path class="cls-1" d="M41.89,65.05c-.12-.31-.28-.6-.34-.9-.22-1.17-.43-2.34-.61-3.52-.22-1.39-.52-2.77-.57-4.18-.02-.44-.11-.89-.17-1.33-.01-.1,0-.2.02-.3.09.54.18,1.09.28,1.63.09.46.21.92.28,1.38.08.48.11.98.19,1.46.07.42.19.83.27,1.25.1.56.18,1.13.29,1.69.11.56.26,1.11.39,1.66.05.24.09.48.13.72.05.27.05.54.29.75.07.06.06.21.07.32.04.3.07.6.1.9,0,.07,0,.15.02.22.03.17-.09.36.18.48.1.05.16.37.11.54-.09.35.14.61.15.92.02.26.07.52.12.77.11.57.24,1.14.33,1.71.07.44.09.89.15,1.33.05.4.11.8.17,1.19.13.79.27,1.57.4,2.36.08.47.13.93.19,1.4.07.56.14,1.12.2,1.68.05.46.1.92.13,1.38.02.38,0,.75-.02,1.13,0,.22-.16.33-.33.35-.18.03-.23-.13-.32-.28-.12-.2-.07-.42-.17-.61.06-.04.11-.07.19-.12-.34-.13-.09-.39-.14-.58-.02-.09,0-.19-.05-.27-.08-.17-.02-.25.12-.28-.04-.13-.1-.25-.13-.38-.06-.3-.12-.59-.15-.89-.03-.21-.02-.43-.03-.65,0-.18,0-.37-.01-.55,0-.19-.1-.35-.05-.58.05-.19-.1-.43-.14-.65-.12-.74-.22-1.48-.33-2.22,0-.03,0-.05,0-.08.06-.52-.15-1.01-.22-1.51-.05-.4-.07-.81-.13-1.22-.13-.97-.27-1.95-.42-2.92-.09-.58-.24-1.14-.35-1.72-.05-.24-.05-.48-.09-.72-.03-.15-.07-.31-.13-.45-.06-.17-.08-.3.09-.3Z"/>
      <path class="cls-1" d="M65.12,82.1c.09.08.23.22.48.14.08-.03.19.07.29.1-.12.29-.35.35-.69.17-.13.08-.27.17-.37.23.07.13.12.24.18.35-.03.03-.05.06-.08.09-.14-.04-.28-.08-.42-.12-.21-.06-.41-.17-.61.04-.03.03-.09.02-.16.03.08-.2.16-.34.4-.32.11,0,.22-.09.35-.15-.15-.1-.23-.17-.33-.22-.04-.02-.14,0-.16.03-.14.26-.4.33-.64.43-.09.04-.17.11-.24.16.15.06.28.11.4.16-.12.39-.06.37-1.2.74.09-.08.18-.16.26-.24-.01-.02-.02-.04-.03-.06-.17.07-.35.13-.52.2-.04.02-.07.13-.06.15.12.17,0,.22-.11.31-.08.06-.13.14-.1.11-.12-.09-.23-.19-.35-.28.07-.06.11-.14-.13-.21-.19-.06-.36-.18-.55-.29,1.37-.79,2.83-1.22,4.39-1.54Z"/>
      <path class="cls-1" d="M60.86,84.19c-.14.08-.29.16-.44.23-.01-.02-.03-.04-.04-.06.05-.05.09-.1.19-.2-.16-.02-.28-.04-.37-.05.08-.1.15-.22.24-.32.12-.13.21-.03.27.06.06.08.08.19.14.33Z"/>
      <path class="cls-1" d="M57.43,92.61c.17-.24.39-.18.59-.24-.05.25-.12.28-.59.24Z"/>
      <path class="cls-1" d="M40.11,54c.08.18.15.34.22.5-.17,0-.26-.19-.22-.5Z"/>
      <path class="cls-1" d="M31.61,90.33s.08-.02.17-.04c-.2-.1-.24-.2-.18-.4.07-.24.02-.52.04-.77.01-.18.05-.35.11-.52-.09-.13-.2-.26,0-.42.02-.02.03-.09.02-.1-.24-.14.05-.36-.09-.52.35.26.38.36.17.61.14.11.26.22.12.44-.08.12.08.35-.13.47.13.23.11.45.04.7-.05.18.04.41.06.62.05.5.08,1,.13,1.5.05.57.08,1.15.17,1.72.09.56.23,1.11.34,1.67.02.1,0,.2-.02.33.06.26.12.57.19.87-.02.02-.05.04-.07.06-.12-.1-.24-.2-.37-.3.02,0,.04-.02.06-.03-.02-.14-.04-.27-.06-.41-.01-.09-.02-.18-.04-.32,0,0-.07-.04-.17-.1.08-.09.15-.16.22-.23-.13-.22-.26-.44-.38-.67-.03-.06-.03-.15-.03-.23-.02-.14-.02-.28-.05-.42-.05-.23-.22-.5-.15-.68.11-.28-.02-.49-.02-.74,0-.16-.08-.32-.09-.48,0-.21.05-.41.05-.62,0-.09-.05-.19-.07-.28-.02-.06-.06-.11-.05-.16.01-.18.04-.35.07-.56Z"/>
      <path class="cls-1" d="M24.41,94.22c.16.33.32.67.5,1.01.16.31.44.59.49.91.08.44.48.64.6,1.08-.14-.15-.25-.27-.38-.41,0,.45.18.64.46.51.1.13.2.26.3.39.02.03.06.07.05.09-.13.25.15.41.12.66-.04.02-.11.05-.16.07-.11-.14-.18-.32-.31-.39-.26-.15-.36-.41-.5-.64-.22-.39-.42-.8-.64-1.19-.12-.22-.26-.44-.4-.66-.03-.05-.11-.07-.12-.07-.17-.42-.33-.81-.48-1.21.18-.05.31-.09.48-.14Z"/>
      <path class="cls-1" d="M26.83,99.03s.09.01.12.04c.79.68,1.32,1.61,2.2,2.2-.64.06-2.17-1.44-2.32-2.24Z"/>
      <path class="cls-1" d="M30.64,102.39c-.19.1-.31-.09-.47-.16-.09-.04-.15-.17-.24-.23-.12-.07-.25-.11-.38-.15-.09-.03-.18-.03-.3-.05.04-.09.07-.14.1-.2-.06,0-.11,0-.17-.01,0-.03,0-.06,0-.09.17.02.38-.03.5.06.34.25.63.55.95.83Z"/>
      <path class="cls-1" d="M32.02,86.7c.14.33-.02.69-.02,1.04-.08-.09-.16-.19-.25-.3.08-.05.14-.09.21-.13-.05-.06-.09-.11-.15-.18.06-.05.12-.1.17-.15-.03-.09-.05-.18-.08-.27.04,0,.07-.01.11-.02Z"/>
      <path class="cls-1" d="M14.44,93.52c-.22-.3-.43-.6-.65-.9.28.25.74.36.65.9Z"/>
    </g>
  </g>
</svg>