<?xml version="1.0" encoding="UTF-8"?>
<svg id="Layer_2" data-name="Layer 2" xmlns="http://www.w3.org/2000/svg" viewBox="0 0 31.64 102.97">
  <defs>
    <style>
      .cls-1 {
        fill: #000;
        stroke-width: 0px;
      }
    </style>
  </defs>
  <g id="illustrations">
    <g>
      <path class="cls-1" d="M31.49,12.95c.2-.33.16-.68.11-1.03-.03-.2-.05-.39-.06-.54-.08-.07-.16-.11-.16-.15-.04-.57-.09-1.13-.09-1.7,0-.29-.09-.55-.23-.76-.36-.53-.6-1.12-.77-1.73-.1-.33-.13-.65-.29-.98-.21-.41-.34-.85-.65-1.22-.5-.59-.95-1.22-1.67-1.57-.21-.1-.48-.15-.64-.31-.29-.27-.71-.25-.99-.54-.13-.13-.31-.24-.45-.39-.05-.05-.16-.11-.17-.09-.17.16-.32.03-.47-.03-.28-.11-.55-.25-.83-.36-.28-.11-.55-.27-.84-.29-.29-.03-.49-.22-.77-.27-.39-.07-.77-.23-1.13-.4-.36-.17-.7-.33-1.1-.24-.23.06-.37.01-.44-.22-.04-.13-.15-.19-.28-.11-.19.11-.37.24-.56.37-.14.1-.27.24-.42.28-.36.08-.72.15-1.09.15-.22,0-.44.12-.66-.02-.04-.03-.12.03-.19.03-.07,0-.13,0-.2,0-.11,0-.23-.02-.34-.03-.09,0-.17,0-.26-.02-.47-.11-.93-.21-1.42-.16.03.05.05.09.07.13-.04.01-.09.05-.11.04-.16-.13-.32-.21-.53-.12-.22-.25-.49.06-.74-.08-.14-.08-.37,0-.55,0-.06,0-.12.03-.18.06-.12.07-.23.16-.36.22-1.24.59-2.55,1.03-3.69,1.82-.22.15-.47.26-.69.39-.22.13-.43.27-.64.41-.02.01-.05,0-.07,0-.15-.08-.2.03-.29.11-.33.33-.68.66-1.1.86-.05-.11-.09-.19-.13-.28-.03,0-.06,0-.09-.01-.31.51-.62,1.02-.94,1.54,0,.01.04.06.07.11-.13.09-.31.14-.18.35.02.03-.02.09-.04.14-.1.31-.2.62-.3.94.02.01.07.04.12.07-.23.25-.26.4-.14.57-.09.28-.23.53-.24.78,0,.22-.06.36-.2.51-.03.03-.04.07-.06.11.09.02.17.04.21.05-.07.25-.14.48-.21.73.01,0,.07.04.1.06-.04.12-.11.23-.09.32.07.46-.02.49-.47.61-.17.05-.32.13-.48.19,0,.03-.01.06-.02.09.33-.14.3.1.25.21-.1.22.01.37.07.55.13.43.29.85.19,1.32-.03.12.04.26.07.4-.14.43-.06.99-.47,1.37.02.03.05.06.05.06-.05.08-.09.13-.12.19-.08.15-.05.38-.31.4-.02,0-.06.12-.05.18.02.1.09.18.11.28.06.33.16.63.29.94.14.35.19.74.21,1.12.02.41-.06.83-.04,1.25,0,.19-.06.23-.19.31-.22.13-.42.3-.6.47-.14.13-.12.42.04.54.28.22.32.57.52.85-.1.04-.17.08-.24.11.25.44.13.87.07,1.3-.05.03-.1.06-.15.08.08.05.17.1.2.11-.03.13-.06.26-.09.39-.05.22,0,.48-.37.58.14.02.2.04.33.06-.16.08-.28.13-.38.2-.1.07-.17.18-.27.26-.42.31-.47.53-.15.92.19.23.23.48.22.77-.03.59-.04,1.19-.06,1.78,0,.17,0,.33-.03.5-.06.35-.39.48-.63.68-.17.14-.32.28-.32.54,0,.25.03.46.17.69.27.44.31.94.33,1.44.02.49.07.96-.26,1.39-.1.12-.14.26-.35.11-.13.44-.27.85-.37,1.27-.11.51-.17,1.04-.02,1.56.08.28.21.55.29.83.1.39.17.78.24,1.18.03.17,0,.37.23.46.06.02.13.13.14.2.02.41.25.72.46,1.04.28.43.59.84.88,1.26.34.48.84.78,1.29,1.14.52.42,1,.89,1.62,1.17.33.15.65.34.99.47.38.15.79.23,1.16.39.25.11.47.11.72.05.08-.02.16,0,.24,0,.04-.08.08-.14.11-.21.25.14.48.28.72.41.09.04.19.06.27.08.24.12.47.25.71.36.07.03.16.02.23.02.09,0,.17,0,.26,0,.18,0,.4-.09.54-.02.39.22.59.61.65,1.05.04.28.22.54.05.86-.09.18,0,.44-.02.67-.04.44-.11.87-.17,1.3-.02.13-.04.25-.07.41,0,0,.05.03.09.05-.04.07-.11.14-.1.19.06.58-.15,1.14-.04,1.73.13.66.48,1.15,1.15,1.34.15.04.39.05.38.3.08-.02.17-.08.25-.07.54.08,1.07.17,1.6.26.09.02.21-.01.28.03.41.28.82.3,1.24.03.24-.16.66.04.64.31-.03.31.06.57.18.84.07.17.15.34.18.52.05.28.08.56.08.84,0,.45-.04.9-.02,1.35,0,.18,0,.27-.19.31-.04,0-.07.04-.14.1h.32c-.02.19-.03.36-.05.53-.06.57-.13,1.13-.17,1.7-.02.26.04.53.01.79-.02.27.01.59-.36.7-.09.02-.15.13-.22.2-.13.12-.27.24-.4.36h.2s0,.05,0,.08c-.68.04-1.37.08-2.05.12-.02-.04-.04-.07-.06-.11.11-.13.2-.31.34-.38.5-.26.67-.79.98-1.2.09-.11.03-.3.06-.44.1-.53.22-1.05.25-1.6.01-.2.06-.39.1-.64-.01-.02-.06-.09-.08-.12.03-.11.06-.18.06-.25,0-.15-.03-.3-.03-.45,0-.14.05-.29.02-.42-.05-.22-.16-.43-.23-.64-.22-.64-.61-1.15-1.16-1.54-.06-.04-.15-.09-.2-.07-.45.17-.75-.11-1.06-.34-.2-.15-.25-.16-.39.04-.08.11-.19.23-.31.27-.32.09-.57.24-.74.54-.04.08-.16.17-.23.16-.26-.03-.29.09-.26.29.02.11.03.22,0,.32,0,.04-.11.06-.17.09.02.02.04.04.06.07.05,0,.09.02.13.03-.04.14-.06.29-.13.4-.15.27.09.51.02.8-.07.29-.09.65.12.94.02.03,0,.12-.04.15-.26.22-.12.48-.06.7.06.21.09.38-.02.58.06.03.12.05.18.08-.16.18-.03.3.08.41-.05.04-.11.07-.17.11.05.16.11.31.14.46.04.23,0,.48.1.68.14.31.21.56-.19.75.02.02.03.03.05.05.17.02.35.04.52.07-.2.22-.42.24-.55.01-.08-.14-.15-.13-.26-.05-.07.06-.15.11-.21.18-.17.18-.35.24-.59.14-.06-.03-.15-.02-.21,0-.16.08-.25.02-.33-.12-.14-.22-.25-.23-.43-.04-.09.1-.15.26-.26.3-.31.1-.34.37-.45.6-.46.02-.53.08-.53.55,0,.17.01.33.02.5.04.57.11,1.15.12,1.72,0,.48-.05.96-.07,1.44,0,.05,0,.1.02.15.04.16.13.33.13.49.03.66.05,1.32.04,1.98,0,.29.1.61-.13.83.05.09.11.16.12.23.02.23.04.47.03.7,0,.47-.03.95-.05,1.42,0,.31.07.64-.02.91-.12.38.03.73-.03,1.09-.03.2-.06.39-.09.59,0,.04-.02.08-.02.12.06.53.07,1.07,0,1.6,0,.02,0,.05,0,.07.2.28.04.61.14.92.06.17.04.38.03.56-.04.55.08,1.09-.03,1.65-.15.71.06,1.44,0,2.17-.03.43.04.86.07,1.3,0,.16.08.35-.18.38.23.48.24,1.21.09,1.3.03.11.06.21.09.3.04.14-.09.28.03.42.03.04-.07.19-.11.29.14.06.14.14-.12.57.07.05.14.11.17.13-.05.11-.13.2-.14.3-.03.17-.03.34-.04.51.4.1-.21.29.03.42.04,0,.12.02.21.03-.04.09-.09.16-.09.23,0,.18.07.37-.11.5.3.13-.09.41.12.57.02.01.02.08,0,.09-.14.13-.08.25,0,.37.02.03.02.12,0,.15-.13.17-.1.35-.07.55.03.2.13.41-.06.59-.03.03,0,.14,0,.21,0,.05.06.1.06.15-.01.17-.11.37-.05.51.13.29.06.55,0,.83,0,.04-.01.09,0,.11.14.14.13.27-.07.4.25.07.21.23.15.36-.07.15-.07.25.05.28-.03.25-.12.49-.06.68.05.16.04.3.02.45,0,.06,0,.12,0,.17.02.53.04,1.06.06,1.59,0,.07-.03.15-.05.22-.01.07-.02.14-.04.25.08-.07.13-.1.18-.14.02,0,.04.02.07.03-.39.3-.04.78-.32,1.11,0,.01,0,.05.01.07.03.18.07.36.07.53,0,.29-.06.58-.04.87.02.69.07,1.37.11,2.06.03.39.14.46.53.37-.01-.07-.03-.15-.03-.22,0-.06,0-.13.01-.2.02,0,.04,0,.05,0,.04.15.07.3.12.47.18-.19.06-.33.04-.48-.03-.38.02-.76.05-1.14.02-.31.07-.61.11-.99-.14.08-.22.12-.3.17-.01-.02-.03-.04-.04-.06.07-.06.12-.15.2-.18.18-.06.19-.17.14-.31-.03-.08-.07-.16-.09-.21.25-.35.13-.74.16-1.09.03-.34.06-.72-.15-1.04.25-.06.26-.1.09-.31.03-.06.09-.11.09-.16-.02-.3-.07-.6-.08-.9-.02-.52,0-1.05-.02-1.57,0-.13-.05-.26-.09-.43.13-.08.09-.22,0-.38.04-.1.06-.2.05-.3,0-.09-.02-.18-.03-.27-.01-.12-.03-.23-.04-.35-.01-.09.09-.2.07-.26-.08-.2-.07-.37.06-.55-.1-.02-.15-.03-.18-.03.05-.13.13-.25.12-.36,0-.17-.09-.34-.11-.51-.01-.12.03-.25.04-.37.01-.13.01-.26.02-.4-.04-.02-.07-.03-.11-.05.08-.04.16-.08.21-.11-.06-.13-.13-.21-.12-.29,0-.31.05-.62.05-.93,0-.09-.08-.17-.12-.26,0-.02-.02-.04-.03-.07.05-.03.1-.07.13-.09-.03-.31-.08-.6-.08-.89,0-.29.06-.58.1-.86-.03-.1-.04-.21-.04-.33,0-.2.19-.42-.05-.61.36-.2-.13-.56.17-.74-.07-.1-.13-.19-.2-.3.36-.08.06-.25.08-.38.03-.15,0-.32,0-.53.01-.02.11-.14.08-.18-.15-.25-.08-.45.02-.58-.03-.3-.06-.51-.08-.73-.03-.06.02-.13.02-.19-.04-.3-.09-.59-.13-.89,0-.03,0-.08.01-.09.23-.17.04-.19-.08-.23.16-.09.17-.23.15-.4-.03-.24-.01-.48-.02-.72,0-.11-.03-.22-.03-.33,0-.09,0-.19,0-.28,0-.13,0-.26,0-.39,0-.04-.01-.09-.03-.13-.02-.07-.05-.15-.06-.22-.01-.06,0-.13,0-.19-.03-.31-.13-.62-.08-.91.06-.38-.1-.79.12-1.15.01-.02,0-.06,0-.1-.01-.26-.04-.52-.03-.78.02-.29.1-.58.11-.88.02-.38.01-.76,0-1.14,0-.12-.06-.26-.01-.34.12-.23.05-.44,0-.68.29-.03.09-.17.03-.28.28-.05.1-.18.07-.27.21-.22.1-.42.01-.55.08-.17.17-.29.18-.41.02-.3-.06-.61.02-.88.07-.23,0-.38-.07-.55.05-.06.14-.11.14-.17.01-.35,0-.7,0-1.06,0-.08.06-.16.03-.23-.03-.09-.13-.17-.17-.26-.02-.03.02-.09.03-.14.01-.08.02-.17.03-.25.02-.24.07-.48.05-.71,0-.15.26-.36,0-.43.06-.12.15-.24.18-.37.12-.48.23-.97.34-1.46.47.18.48.18.71-.04.23.04.43.07.67.11-.07-.14-.11-.21-.15-.28.08-.02.17-.04.25-.04.12,0,.25,0,.37.01.3.02.6.09.89.04.25-.04.48-.11.73-.05.22.06.42.01.63-.03.18-.03.38-.03.56-.03.37,0,.74.06,1.1.03.45-.03.89-.13,1.33-.2.09-.01.18,0,.27.03.19.04.37.1.49-.14.03-.06.14-.09.21-.12.15-.07.21-.05.28.14.26.62.05,1.25.08,1.87.02.35-.07.71-.11,1.06-.05.39-.11.79-.15,1.18-.02.18.02.37-.23.43-.09.02-.16.13-.24.2.02.02.04.05.06.07.12-.09.23-.19.39-.31v.74c-.08.05-.18.11-.27.17-.02.03-.03.06-.05.1.33-.17.29,0,.26.15-.04.17-.08.33-.14.49-.05.12-.13.22-.23.39.03.01.11.06.13.07-.05.28-.08.49-.12.69-.02.1-.1.24-.05.29.13.16.08.31.03.47-.01.04-.01.08-.01.11-.02.27,0,.56-.08.82-.04.14-.05.24-.03.38.02.12,0,.26-.02.39,0,.08-.05.16-.05.24,0,.23,0,.47,0,.72-.01,0,.04,0,.07,0-.12.37-.31.72,0,1.12-.11-.02-.16-.02-.21-.03-.02.02-.03.05-.05.07l.31.16s-.01.05-.02.07c-.31.02-.27.27-.25.41.02.15-.29.3,0,.43-.03.04-.1.07-.1.11,0,.21,0,.43,0,.64,0,.14,0,.28-.01.41,0,.09,0,.18,0,.27,0,.22-.03.44-.09.65-.05.16-.19.32.06.44.03.01.02.09.03.14.03.14.08.28.07.42,0,.15-.06.31-.11.46-.03.08-.1.14-.16.2.03,0,.06,0,.09,0,.02.08.08.17.06.24-.04.16-.11.31-.17.47.01,0,.03.02.04.02.05-.04.1-.07.15-.11.02.02.04.03.06.05-.08.14-.17.28-.25.42.05,0,.11.02.16.02,0,.02,0,.03,0,.05-.08.03-.16.05-.2.07v.68c.16.14.16.81-.04,1.06.04,0,.08,0,.11,0-.02.2.02.43-.08.58-.18.26.14.55-.12.77.25.29.02.62.06.92.01.09-.04.19-.07.32,0,0,.06.05.06.09-.01.2,0,.41-.07.59-.11.31-.02.63-.09.94-.02.09-.05.17-.07.26.04.17.05.35.04.53,0,.18-.02.37-.03.55.02,0,.03,0,.05,0-.05.05-.1.11-.15.16.12.28-.05,1.41-.14,1.45.03.2.08.37.07.54,0,.11-.11.22-.16.32.06.03.16.06.16.09,0,.22,0,.44-.01.65,0,.1-.04.2-.06.34-.02.01-.09.05-.15.09.2.31.19.95-.01,1.15.38.09.06.18,0,.29.19.11.2.22-.03.31.08.04.13.08.17.1-.01.1-.02.18-.04.26-.06.23.11.5-.12.7,0,0,.02.06.07.18.04-.11.05-.16.05-.16-.02.28-.06.58-.07.89-.01.23,0,.47-.02.7,0,.07-.02.2-.05.2-.17.02-.1.14-.11.23-.05.32.08.66-.14.95-.02.02,0,.07,0,.11.02.11.06.23.05.34-.02.46-.03.92-.09,1.37-.05.34.04.72-.23,1.01-.02.02.01.08.01.12,0,.15,0,.31,0,.49.15.17.08.43.07.66-.01.29-.02.31.26.31.07,0,.15,0,.23-.02-.02-.24.2-.46.02-.69-.01-.02,0-.06.01-.1.04-.29.21-.57.08-.88-.02-.04,0-.1.02-.14.17-.3.18-.61.06-.93-.02-.04,0-.1,0-.15.05-.35.11-.7.14-1.05.04-.43.05-.87.08-1.31.04-.47.08-.94.13-1.4.02-.16.05-.31.09-.49-.02-.06-.06-.17-.06-.28,0-.17.02-.35.05-.52.07-.47.09-.94.14-1.41.04-.34.04-.69.04-1.04,0-.21-.07-.43,0-.61.1-.29.06-.58.11-.87.09-.44.06-.91.09-1.36.03-.41.09-.82.12-1.23.05-.59.08-1.18.13-1.77.03-.39.03-.78.09-1.17.05-.29.09-.56.08-.86-.02-.34.16-.68.23-1.03.02-.12-.05-.25-.08-.38-.01-.06-.04-.14-.02-.19.08-.3.13-.6.1-.92,0-.09.01-.19.02-.29.02-.26.05-.52.07-.78,0-.09,0-.19.03-.28.03-.13.16-.3.12-.37-.12-.2-.05-.39,0-.54.12-.35.07-.71.1-1.07.04-.5.08-.99.11-1.49.01-.2,0-.4-.01-.6.02-.13.05-.27.06-.42.02-.25.02-.51.04-.76.02-.27.07-.54.1-.82,0-.07-.02-.15-.02-.22,0-.08-.02-.17.02-.24.12-.23.01-.47.07-.7.04-.18.04-.37.05-.56.01-.21,0-.43.05-.63.05-.27-.15-.61.21-.8.02-.01,0-.1,0-.15,0-.25-.03-.5-.03-.75,0-.31.06-.62.03-.92-.02-.2-.03-.36.18-.43-.04-.12-.1-.23-.09-.34.02-.48.07-.96.1-1.44.04-.56.1-1.13.1-1.69,0-.61-.01-1.22-.08-1.82-.06-.57-.15-1.14-.53-1.62-.08-.1-.15-.26-.15-.39,0-.13-.04-.19-.12-.27-.31-.32-.5-.69-.44-1.17.05-.37.07-.74.09-1.11.02-.27.03-.55.05-.82.03-.33.06-.66.08-.98.02-.31,0-.62.05-.92.02-.15.11-.27,0-.42-.02-.02-.01-.09,0-.12.18-.25,0-.51.04-.76.03-.2-.1-.42-.08-.62.01-.21-.04-.29-.3-.25.32-.38-.15-.63-.08-.98.03-.17.02-.57.18-.72.1-.09.27-.24.25-.3-.1-.27.09-.41.18-.6.02-.04.05-.1.04-.14-.06-.37.18-.63.32-.92.15-.32.37-.6.52-.91.14-.31.22-.64.36-.95.14-.3.31-.59.44-.83-.03-.09-.07-.16-.05-.2.1-.24.31-.42.36-.71.04-.23.18-.44.28-.66.13-.29.25-.59.39-.88.04-.1.09-.2.15-.28.08-.1.17-.23.28-.27.22-.07.46-.04.68-.11.89-.27,1.68-.74,2.44-1.27.78-.55,1.4-1.27,2.06-1.95.18-.18.29-.42.46-.62.48-.55.69-1.23.93-1.9.19-.54.34-1.1.48-1.66.08-.32.11-.66.2-.98.07-.27-.06-.6.22-.76-.04-.08-.1-.14-.09-.19.12-.73.25-1.45.37-2.18.06-.37.07-.74.12-1.11.01-.11.07-.22.1-.33.02-.08-.03-.17-.02-.25.07-.58.16-1.15.23-1.73.02-.13-.03-.28.03-.39.13-.26.12-.53.14-.8.03-.42.06-.84.11-1.27.04-.46.09-.91.15-1.37.02-.18.06-.36.1-.53.04-.18.1-.36.13-.54.08-.52.16-1.03.22-1.55.04-.31.1-.63.09-.95-.02-.93-.07-1.85.23-2.75.05-.16.08-.32.09-.49,0-.19-.03-.38-.03-.57,0-.23.01-.46.01-.69,0-.33-.04-.67,0-1,.05-.47.16-.94.24-1.42.05-.27.08-.54.13-.82.11-.64.18-1.27-.02-1.91-.02-.06-.03-.14,0-.19ZM14.98,56.93s.04,0,.06,0v.54s-.07,0-.11,0c.02-.18.03-.36.05-.54ZM13.04,56.29c.13-.32.43-.33.73-.36-.11-.12-.2-.22-.32-.36.15-.01.26-.02.36-.03,0-.02,0-.03,0-.05h-.44c0-.12.04-.2.21-.19.41.01.86.3,1,.7.07.19.06.41.1.61.09.42-.14.78-.17,1.18,0,.11-.14.23-.25.3-.39.26-.79.5-1.21.75-.05-.34-.1-.61-.14-.88,0-.05-.05-.09-.08-.13-.02-.03-.08-.07-.07-.08.12-.23-.04-.45-.01-.65.04-.27.17-.54.28-.8ZM13,61.54v-.22c-.08-.06-.15-.1-.2-.17,0-.01.07-.09.12-.16-.19-.08-.18-.22-.15-.41.05-.29.02-.6.04-.9.01-.18.07-.25.29-.19.74.21,1.16.04,1.5-.71.11-.25.26-.49.42-.72.2.92.09,1.81-.46,2.53-.36.47-.9.83-1.57.95ZM30.16,8.55s.06,0,.08-.01c.04.23.08.46.12.69-.07-.06-.18-.11-.19-.18-.03-.16,0-.33,0-.49ZM30.19,9.4s.03,0,.04,0c.03.08.05.16.08.24.02,0,.04,0,.05-.01v-.37c.05.14.11.28.15.42.02.09,0,.2-.05.27-.06.08-.13.17-.19.25.07.01.14.03.23.05.06.37.02.42-.41.45.03-.44.06-.87.09-1.3ZM11.91,44.49c-.26,0-.53-.02-.79-.08-.31-.06-.57-.18-.82-.42-.25-.23-.29-.57-.51-.79-.02-.02-.02-.08-.04-.09-.4-.09-.28-.53-.5-.74,0,0-.02-.04-.01-.05.24-.19-.04-.26-.08-.39-.09-.28-.18-.57-.24-.86-.21-.97-.08-1.95-.07-2.92,0-.34.1-.67.15-1.01,0-.04-.02-.1-.03-.14-.13-.3-.26-.59-.39-.89-.06-.13-.16-.25-.31-.18-.09.04-.18.17-.19.27-.06.35-.08.7-.14,1.04-.06.36-.15.7-.22,1.06-.03.18-.05.36-.05.53,0,.35.01.71,0,1.06,0,.23-.04.45-.05.68,0,.08.05.15.06.23.07.44.11.88.22,1.31.09.37.24.73.38,1.09.09.22.24.42.34.64.06.14.09.29.08.46-.07-.09-.14-.19-.23-.3-.18.09-.36.09-.58-.03-.14-.08-.36-.03-.54-.04-.5-.03-.91-.26-1.33-.54-.8-.52-1.37-1.27-2.03-1.93-.8-.8-1.49-1.7-2.03-2.69-.1-.18-.26-.32-.39-.48-.09-.11-.28-.18-.21-.38-.07-.01-.14-.02-.23-.03-.03-.15-.06-.32.11-.48.13-.12.22-.3.3-.46.11-.22.21-.45.28-.68.07-.2.09-.42.14-.62.3-.03.54-.08.78-.08.58-.01,1.16,0,1.73-.01.23,0,.46-.05.68-.08.14-.01.28-.02.42-.02.55-.03,1.1-.03,1.64-.1.3-.04.59-.17.88-.26.06-.02.12-.07.14-.13.07-.18.14-.36.34-.46.03-.02.03-.16,0-.21-.14-.22-.33-.36-.62-.35-.7.01-1.39-.01-2.09.02-.78.03-1.56.1-2.34.17-.39.03-.78.11-1.18.15-.08,0-.22-.06-.25-.13-.13-.3-.33-.53-.57-.74-.04-.03-.09-.11-.08-.15.12-.38-.03-.81.2-1.18.03-.05-.05-.17-.08-.26.31-.22.45-.51.36-.69.17-.29.48-.24.74-.25.62-.03,1.23-.03,1.85-.06.53-.02,1.06-.07,1.59-.08.37,0,.76-.03,1.12.04.4.08.67-.04.93-.32.2-.22.22-.43.04-.68-.05-.07-.06-.19-.05-.28.03-.21-.06-.34-.27-.34-.26,0-.52.04-.79.06-.29.03-.57.07-.86.09-.2.01-.4,0-.6,0-.77,0-1.53.09-2.29.18-.31.04-.63,0-.94,0-.13,0-.24-.06-.2-.22.03-.16-.19-.38.17-.45-.2-.18-.29-.32-.12-.55.09-.12.06-.34.06-.52.01-.3.19-.53.35-.77.01-.02.03-.05.03-.07-.11-.29.18-.42.27-.63.04-.09.28-.14.42-.14.31.02.6.01.9-.07.32-.09.67-.05,1.01-.08.19-.01.37-.05.56-.06.15,0,.31.04.46.03.09,0,.18-.07.27-.07.21,0,.41.03.62.05.11,0,.22,0,.32.02.2.06.42-.05.63.13.12.1.42,0,.63-.02.03,0,.05-.1.1-.21.14-.04.33-.29.32-.54-.01-.17-.07-.34-.09-.52-.02-.12-.02-.25-.01-.38.01-.16-.06-.23-.22-.23-.38.01-.77,0-1.15.03-.65.04-1.29.1-1.94.13-.13,0-.25-.07-.34-.09-.87.09-1.71.19-2.55.28-.04-.22-.09-.45-.12-.67,0-.04.08-.1.13-.17-.02-.09-.22-.23.03-.36.04-.02.06-.19.03-.23-.18-.2.02-.27.13-.38-.05-.04-.1-.08-.1-.08.08-.22.17-.39.2-.58.06-.32.07-.64.12-.96.01-.06.12-.16.18-.16.39-.02.78,0,1.18-.01.43,0,.86-.04,1.28,0,.73.07,1.47-.1,2.2,0,.52.08.85-.22,1.15-.57.11-.12.21-.26.32-.4-.23-.16-.43-.3-.63-.43-.04-.03-.11-.01-.16-.01-.27,0-.55-.02-.82-.03-.44-.01-.89-.03-1.33-.02-.33,0-.67.05-1,.05-.13,0-.31.09-.38-.14,0-.02-.11-.01-.21-.02.04.03.05.04.05.04.02.01.04.02.06.08-.6.05-1.2.1-1.8.15-.04-.18-.07-.33-.1-.48.19-.09.26-.41.13-.55.09-.08.17-.16.3-.28-.12-.03-.17-.04-.31-.07.17-.05.27-.09.38-.12-.07-.14-.15-.28.06-.4.06-.03.03-.19.08-.25.23-.3.56-.43.92-.47.34-.04.69-.06,1.03-.07.06,0,.13.06.19.05.13-.02.26-.06.39-.09.04,0,.08-.03.12-.04.32-.04.64-.07.95-.1.63-.07,1.25-.14,1.88-.22.19-.03.37-.1.55-.15-.02-.03-.03-.05-.05-.08.1-.09.21-.18.3-.27.05-.05.13-.15.12-.19-.05-.13.16-.3-.09-.39-.21-.08-.41-.22-.61-.33-.05-.02-.12-.03-.16,0-.18.11-.35.05-.49-.05-.29-.22-.6-.06-.89-.05-.11,0-.22.04-.33.06-.05,0-.11,0-.15.02-.55.25-1.14.19-1.71.27-.38.05-.78.02-1.17.04-.28.01-.55.05-.82.08,0-.31-.02-.66,0-1,.03-.33.14-.64.17-.97.03-.28,0-.56,0-.84,0-.08.07-.15.08-.23,0-.07-.02-.14-.03-.2l-.2.05c-.02-.06-.04-.13-.08-.28.23.15.35.11.54.03.33-.15.72-.24,1.1-.08.19.08.37.1.55,0,.06-.03.14-.05.22-.05.97-.03,1.94-.06,2.92-.08.65-.01,1.31,0,1.96,0,.04,0,.08-.04.12-.06.14-.08.28-.17.42-.26.06-.03.12-.06.17-.1.14-.12.13-.28-.04-.35-.19-.08-.35-.16-.35-.4,0-.04-.12-.11-.18-.11-.99-.05-1.97-.09-2.96-.12-.23,0-.47.05-.7.06-.43.02-.85.02-1.28.05-.15.01-.3.09-.46.11-.51.06-1.03.11-1.52.15.08-.2.15-.41.24-.63-.07-.02-.13-.04-.25-.07.21-.07.34-.15.18-.37.2-.02.24-.12.23-.29,0-.14.07-.29.1-.44.06-.33.12-.65.18-.98.03-.15.05-.3.06-.46.04-.47.06-.93.13-1.39.03-.18.17-.35.24-.48.23-.23.45-.42.63-.65.29-.36.64-.62,1.06-.82.26-.12.48-.34.73-.47.54-.29,1.08-.57,1.64-.82.51-.23,1.04-.44,1.58-.62.32-.11.66-.15.99-.22.3-.07.59-.14.89-.21.16-.03.33-.04.49-.06.04,0,.08-.01.11-.03.29-.2.59-.17.95-.03-.31.18-.58.35-.86.49-.33.18-.63.38-.86.7-.17.24-.38.44-.55.67-.28.39-.46.83-.59,1.29-.08.31-.19.61-.26.93-.06.28-.08.57-.11.85-.03.37-.06.73-.06,1.1,0,.13.04.26.08.39.15.54.24,1.1.67,1.52.13.12.23.12.26-.05.06-.31.1-.63.15-.95.03-.18.08-.36.08-.54.02-.83.13-1.64.37-2.44.09-.32.08-.67.19-.98.3-.8.67-1.56,1.45-2.02.19-.11.4-.24.34-.53-.02-.08-.05-.16-.1-.24.07-.24.31-.17.48-.2.25-.04.5,0,.75-.03.21-.02.41-.07.62-.09.07,0,.14.04.2.01.31-.03.63-.07,1.02-.11-.13.16-.21.29-.32.4-.24.22-.49.43-.74.65-.05.05-.07.13-.11.2-.04.08-.08.18-.14.22-.42.22-.58.63-.78,1.01-.14.26-.29.51-.46.8.01.02.05.08.07.11-.07.19-.14.36-.22.56h-.14s-.03.06-.03.06c.09.12.04.22.01.35-.08.31-.12.63-.16.94-.08.63-.17,1.26-.2,1.89-.01.2.11.43.22.62.08.13.45,0,.61-.21-.08-.02-.15-.05-.26-.08.06-.08.11-.14.17-.22-.08.02-.14.03-.27.05.06-.14.1-.24.15-.35-.02-.06-.06-.16-.1-.27h.2c.26-1.25.47-2.53,1.13-3.68.19.1.22-.04.3-.24.15-.37.41-.67.73-.92.65-.49,1.28-1,1.93-1.48.32-.24.72-.28,1.1-.23.54.06,1.08.16,1.61.27.22.05.42.16.64.24.12.04.24.06.36.1.2.06.41.11.58.21.35.22.68.47,1.02.71.25-.25.55-.16.78-.03.55.31,1.06.67,1.45,1.19.49.27.94.61,1.32,1.03.75.83,1.14,1.88,1.23,2.99.04.54.17,1.33-.14,1.81-.09.14-.21.24-.34.31,0,.06,0,.12,0,.18-.05-.04-.1-.08-.14-.12-.29.1-.62.07-.93,0-.63-.14-1.18-.38-1.83-.44-.81-.07-1.63-.07-2.44-.15-.84-.08-1.67-.12-2.51-.14,0,0,0,0,0,0-.32.18-.63.12-.96.02-.13-.04-.31.05-.52.1-.14,0-.34.01-.54.03-.27.02-.56.01-.82.1-.34.11-.73.01-1.04.28-.08.07-.26.07-.38.05-.32-.05-.51.12-.67.35-.1.15.13.45.4.46.33,0,.67-.03,1-.05.47-.03.95-.09,1.42-.11.58-.02,1.17-.04,1.75-.02.16,0,.32.02.49.03.08-.07.19-.11.33-.09.46.06.92.1,1.38.14-.04-.04-.09-.09-.14-.13.16.06.28.11.4.15.04,0,.09,0,.13,0,.01-.07.02-.13.03-.19.03-.03.07-.06.1-.09.03.07.07.14.08.22,0,.02,0,.05-.02.07,1.12.07,2.23.13,3.35.34.41.08.87.12,1.19.43.24.23.31.52.32.82.04.04.09.07.13.11-.04.17-.08.36-.13.56-.01.05-.05.1-.08.15,0,0-.01,0-.02-.01,0,.05-.02.09-.02.14.04,0,.08,0,.13-.01-.07.25-.13.45-.19.66-.02,0,.03,0,.08.02-.06.23-.1.44-.16.65-.02.06-.06.11-.1.16-.04-.05-.08-.09-.12-.14-.07.02-.14.03-.21.05-.2.22-.47.35-.83.35-1.42,0-2.85-.21-4.27-.3-1.05-.06-2.11-.08-3.16-.08-.02.03-.04.06-.06.1-.04-.04-.08-.08-.12-.1-.46,0-.91,0-1.37,0,0,0,0,0,0,0-.2.01-.4.04-.6.08-.46.11-.94.02-1.37.14-.28.08-.5-.05-.76-.03-.23.02-.37.07-.39.32,0,.05,0,.11-.03.15-.16.2-.12.42.04.56.18.17.39.34.68.28.11-.02.24-.03.33.02.25.13.5.15.77.11.23-.03.46-.1.69-.11.26-.01.53.01.79.02.11,0,.21-.01.32-.02.17,0,.34.02.5-.02.14-.03.29-.03.43-.02.06-.04.14-.06.22-.07,2-.21,3.99.17,5.99.05.59-.04,1.28-.04,1.71.44.01.01.02.03.03.04.09.01.18.02.27.03.03.23.08.45.09.67,0,.05-.05.12-.1.16,0,.08,0,.15,0,.23,0,0,.01,0,.02,0,0,.03-.02.05-.02.08,0,.12-.02.24-.04.36.03.02.06.03.06.03,0,.12,0,.21,0,.29,0,.06-.02.12-.06.16-.04.04-.09.08-.14.11-.01.03-.02.05-.03.08.07.04.14.08.21.13-.17.18-.35.39-.54.57-.17.16-.37.19-.58.04,0,0-.02-.01-.03-.02-.08.01-.16.03-.25.03-1.07.06-2.16,0-3.23,0h-6.65s-.06,0-.1.01c-.07.01-.15.04-.26.07-.07,0-.2-.02-.3.03-.23.12-.44.26-.64.41-.04.03-.04.18,0,.26.11.28.32.49.63.52.34.03.68,0,1.02.02.3.01.59.06.89.07.09,0,.18-.06.27-.06.34,0,.67,0,1.01.01.27,0,.55-.03.81.04.36.09.7-.09,1.05.01.17.05.37-.03.55,0,.1.02.2.05.29.09.94-.02,1.88-.06,2.82-.12.57-.03,1.35-.1,1.86.21.21.13.37.34.49.57.04-.02.08-.04.12-.06.02,0,.09.06.12.11.01.03,0,.1-.04.12-.03.02-.06.04-.1.06.03.09.06.18.08.27.07,0,.13.02.2.05-.06.03-.11.06-.16.09,0,.03,0,.06.01.08h.16c-.05.08-.1.14-.14.2,0,.06,0,.13,0,.19h.02s-.01,0-.02.01c0,.06,0,.12-.02.19,0,0,0,0,.01,0,0,.02,0,.06,0,.06,0,0-.01.01-.02.02-.04.24-.14.46-.33.63-.37.35-.95.27-1.42.23-1.54-.15-3.1-.07-4.65-.11-1.7-.05-3.4-.14-5.08.07-.14.02-.24-.02-.32-.08-.18.02-.35.06-.53.1-.05.01-.15-.06-.18-.11-.09-.16-.23-.14-.35-.08-.25.13-.55.23-.46.64.04.17-.02.37-.03.55,0,.15.25.31.48.33.31.03.61.08.92.08.24,0,.47-.05.71-.07.07,0,.15.03.22.02.18,0,.36-.05.53-.02.14.03.35-.12.44.12,0,.02.08.04.11.04.47,0,.94,0,1.42-.02.52-.01,1.03-.18,1.63-.06-.03.02-.06.05-.09.07.74-.01,1.47-.02,2.21-.03.79,0,1.59,0,2.38.03.45.01,1.15-.08,1.56.15.68.38.58,1.6.29,2.3.08.06.1.14-.02.18-.04.01-.06.03-.09.05,0,0,0,.01,0,.01-.03.05-.06.09-.09.13-.02.07-.02.14-.02.2,0,.08.15.16.26.27-.01.05-.04.14-.07.25-.06-.12-.11-.21-.15-.3-.28.09-.29.1-.13.35.07.11.15.23.25.4-.17.63-.31.84-.78.69,0-.03,0-.08.02-.09.27-.17.23-.44.24-.7.01-.24-.09-.39-.32-.43-.2-.03-.3-.17-.27-.34,0,0,0,0-.01,0-.77.05-1.55,0-2.33,0-.39,0-.79.01-1.18.02-.02,0-.05,0-.07,0-1.21.03-2.42.06-3.63.07-.12,0-.2-.04-.28-.09-.05.01-.09.03-.14.04-.05.01-.1.05-.13.04-.5-.16-1.01-.07-1.51-.08-.14,0-.28.05-.41.06-.1,0-.2-.02-.24-.02-.16.03-.28.05-.39.09-.23.08-.46.18-.69.28-.12.06-.22.16-.34.21-.11.04-.24.02-.4.04-.05.08-.14.19-.21.31-.17.29.01.64.34.63.28,0,.43.18.6.33.15.14.26.14.46.04.18-.09.43-.03.66-.03.77,0,1.54,0,2.32.02.25,0,.49.07.74.1.14.01.29,0,.44,0,.07,0,.14-.02.21-.02.07,0,.14,0,.21,0,.07-.05.15-.09.25-.1,1.98-.23,3.97-.19,5.95-.14.23,0,.43.16.5.38.02.07.04.15.06.23.04.09.04.19.04.29.04.51-.06,1.1-.32,1.47,0,.03,0,.06,0,.09-.17.18-.37.35-.51.56-.06.09-.02.26-.03.39.1-.01.19-.02.29-.03.03,0,.06-.01.14-.03-.03.14-.03.26-.07.36-.05.12-.11.27-.22.34-.12.08-.29.1-.43.14-.02-.03-.03-.04-.03-.05.06-.37.13-.74.16-1.11,0-.05-.13-.12-.24-.16-.34.06-.7.05-.99.07-1.7.07-3.41.14-5.11.16-.05,0-.11.01-.16,0-.14,0-.29,0-.43,0-.12.11-.26.11-.37,0-.07,0-.14,0-.21,0-.06,0-.11.01-.16.02-.16.01-.34-.09-.45.11-.02.03-.11.04-.14.02-.34-.24-.76,0-1.11-.19-.06-.03-.19,0-.26.05-.14.1-.27.11-.42.02-.04-.03-.11-.02-.16,0-.19.04-.37.08-.56.1-.23.15-.48.24-.77.21-.15-.02-.27,0-.28.19,0,.07-.04.13-.06.22.03.02.08.06.16.11-.19.14-.14.23,0,.4.15.17.26.32.5.32.07,0,.13.12.2.14.25.04.5.07.75.09.76.05,1.52.12,2.28.13.04,0,.09,0,.13,0,.08-.08.2-.14.35-.14,2.26,0,4.53-.26,6.78,0,.29-.13.57-.26.88-.4-.05.3-.09.54-.13.78-.02.12-.07.15-.14.16,0,.02,0,.04,0,.06.03,0,.07.01.1.02,0,.02.02.04.02.06-.04.02-.09.03-.13.05,0,.15-.02.3-.04.45.01,0,.02,0,.04,0-.03.06-.05.12-.07.18-.12.61-.35,1.21-.58,1.77-.34.84-.65,1.71-1.22,2.42-.57.71-1.33,1.27-2.16,1.65-.98.45-2.1.76-3.18.57-.07-.01-.12-.04-.17-.07-.22.02-.43.04-.65.07-.47.05-.95.07-1.43.11-.75.06-1.43-.14-2.04-.58-.53-.38-.85-.94-1.15-1.5-.21-.4-.29-.83-.35-1.28-.07-.6-.21-1.18-.28-1.78-.04-.36,0-.72,0-1.09-.1,0-.14,0-.13,0-.03-.84-.06-1.68-.09-2.51-.03,0-.07-.02-.1-.03-.14.32-.27.64-.41.97.02,0,.06.01.12.02-.07.11-.15.2-.21.31-.03.05,0,.12-.02.17-.01.06-.06.12-.06.18-.02.28-.12.55-.11.85,0,.28-.21.61-.12.84.08.22-.11.44.08.64.07.07.03.25.05.38.06.47.09.95.2,1.41.15.64.24,1.3.6,1.88.19.3.3.64.48.94.07.12.23.2.33.3.21.21.41.43.61.65,0,.03-.01.06-.02.09-.28.03-.56.07-.85.07ZM28.68,11.9c-.03.28-.05.51-.08.77q-.19-.2.08-.77ZM26.68,26.22c-.02.11-.04.19-.06.33-.13-.14-.23-.24-.33-.35.01-.02.02-.05.04-.07.11.03.23.06.35.1ZM20.6,25.66c-.27.03-.53.06-.8.09,0-.03,0-.06,0-.08.27-.03.54-.05.8-.08,0,.02,0,.05,0,.07ZM28.1,35.7c-.06.25-.08.52-.14.77-.06.26-.15.51-.21.72.03.14.06.24.06.34,0,.2-.13.37-.06.6.04.12-.12.29-.18.45-.41,1.06-.82,2.12-1.54,3.01-.2.25-.44.47-.69.67-.52.41-1.06.82-1.61,1.19-.53.36-1.11.64-1.74.81-.21.06-.41.14-.61.22-.05.02-.08.08-.11.13-.04.05-.06.13-.11.16-.49.3-.76.8-1.18,1.19.06.01.1.02.14.03-.18.32-.36.64-.5.87-.17.56-.31,1.04-.6,1.49.17.11.08.24,0,.37-.11.17-.21.34-.32.5-.01.02-.07.01-.1.03-.04.03-.08.06-.09.1,0,.02.05.06.08.09-.17.06-.37.4-.35.61,0,.03,0,.06-.02.08-.21.27-.39.57-.63.81-.24.23-.53.4-.82.57-.21.13-.44.26-.67.34-.23.09-.48.15-.73.17-.42.03-.84.01-1.26.02-.18,0-.32-.04-.45-.2-.16-.22-.36-.4-.4-.7-.02-.18-.11-.37-.34-.43-.04-.01-.09-.08-.1-.13-.08-.65-.22-1.3-.21-1.95,0-.6-.11-1.16-.25-1.73-.11-.46-.24-.92-.36-1.39.03-.01.06-.04.09-.03.35.06.68,0,1.01-.11.11-.04.25-.02.37,0,.39.06.78.13,1.17.19.05,0,.15,0,.16-.03.19-.38.55-.25.84-.26.11,0,.21,0,.32-.04.35-.11.73-.17,1.09-.25.1-.02.21-.03.32-.06.46-.12.92-.26,1.39-.38.05-.01.13-.01.16.01.12.1.19.03.3-.04.18-.1.4-.14.6-.2.11-.04.23-.06.34-.1.26-.08.54-.13.78-.24.78-.39,1.59-.74,2.22-1.37.36-.36.72-.72,1.05-1.1.36-.42.69-.86,1.04-1.29.02-.02.05-.03.05-.05.01-.44.34-.77.4-1.2.06-.42.22-.83.33-1.25.1-.39.17-.78.28-1.16.09-.31.2-.63.64-.61,0-.4.12-.51.48-.55.07,0,.16-.05.2-.11.1-.12.17-.27.26-.4.02-.02.17.01.19.06.11.25.07.51,0,.77ZM28.74,32.7c-.06.19-.14.4-.23.6.01.04,0,.13-.02.15-.03.02-.06.04-.08.06-.23.41-.57.73-1.09.68-.29-.03-.5-.22-.52-.52-.02-.45.15-.87.23-1.31,0-.04.02-.09.02-.13,0-.02.04-.21.01-.08.02-.08.02-.18.03-.26.02-.21.02-.43.02-.64,0-.12.05-.23.12-.31,0-.02,0-.03,0-.05,0,0,.01,0,.01.01.1-.1.23-.16.37-.17.02,0,.03,0,.05,0,.05-.03.1-.06.15-.08.15-.04.26,0,.4.05.14.06.27.15.37.25.04,0,.07,0,.11.02-.02.02-.03.03-.04.05.17.18.28.4.29.67.02.34-.12.67-.22.99ZM29.21,27.17c-.03.3-.11.59-.18.87-.01.05-.02.09-.03.14.01,0,.03,0,.04,0-.04.13-.08.26-.11.38,0,0,0,.01,0,.02,0,0,.06,0,.11,0,0,.32-.11.54-.32.68,0,.01,0,.03-.02.04-.09.16-.27.26-.45.26-.08,0-.15-.02-.22-.05-.13,0-.28.02-.31-.03-.06-.1-.04-.26-.03-.4-.07-.24-.03-.5.03-.73-.1-.2.03-.45.03-.66,0-.31.07-.61.13-.93,0-.02,0-.03,0-.05,0-.05.02-.09.03-.14,0,0,.01,0,.02,0,0,0,0-.02,0-.02.16-.24.44-.44.74-.4.31.04.48.21.52.52.02.13.02.26,0,.4.04-.17-.01-.4.29-.45-.11.21-.21.39-.3.57ZM30,23.38c-.07.35-.1.69-.24,1.02-.18.43-.68.73-1.14.54-.7-.29-.54-1.18-.42-1.77.01-.07.04-.13.08-.18,0-.03-.02-.06-.02-.09,0,0,0,0,0,0,0,0,0-.01,0-.02,0-.02-.01-.04-.01-.06,0-.12.02-.24.04-.36.01-.08.03-.16.06-.24.03-.08.06-.15.1-.23.04-.07.09-.13.14-.19.1-.12.25-.2.4-.25.07-.02.14-.02.21-.01,0,0,.01,0,.02,0,0,0,0,0,0,0,.02,0,.03.01.04.01.1-.1.23-.17.38-.17.1,0,.18.03.26.08.05.01.1.03.15.05,0,.02-.01.04-.02.07.07.09.12.2.12.32,0,.49-.04.98-.14,1.46ZM30.05,19.57c.17.23-.07.23-.15.31-.01.01-.03.03-.05.04-.02.06-.05.11-.09.16.05.06.1.12.15.19,0,0-.01.02-.02.03-.08-.05-.16-.11-.22-.14-.03.02-.07.05-.1.07-.08.06-.15.12-.16.1-.03-.02-.05-.05-.08-.08-.11-.01-.24-.06-.31-.14-.03-.03-.05-.06-.07-.1-.01,0-.02.02-.04.03-.02,0-.04-.02-.06-.02.01-.06.02-.12.03-.18,0-.03,0-.06,0-.09.03-.21.06-.41.09-.62.01-.08.03-.17.04-.25,0-.04.01-.08.02-.11,0,0,0-.05.01-.08,0-.03.01-.08.01-.09,0-.04,0-.08.01-.12,0-.09.01-.18.02-.27,0-.08,0-.16,0-.23,0-.05,0-.09,0-.14,0-.03-.02-.18,0-.04-.02-.15-.02-.27.05-.4.06-.12.18-.2.31-.24.12-.04.29-.01.4.05.1.06.22.19.24.31.06.39.06.77,0,1.17,0,.02,0,.04,0,.05.04,0,.07,0,.11.01-.04.03-.08.06-.12.09-.02.11-.03.22-.05.33.06.01.12.02.18.04-.04.13-.15.3-.11.36ZM30.74,14.23c-.04.16-.1.31-.17.46-.01.08-.03.15-.04.23.02,0,.05,0,.07-.01-.02.22-.01.47-.07.71-.06.25-.18.48-.29.76-.07-.04-.13-.09-.2-.13-.19-.13-.4-.23-.56-.38-.1-.09-.2-.25-.19-.37,0-.06.04-.13.08-.2-.01-.19,0-.38.06-.56.02-.06.05-.11.07-.17,0-.05,0-.11.01-.16.03-.21.05-.43.14-.61,0-.02,0-.04,0-.06,0-.05.03-.09.05-.13,0-.14-.07-.3.14-.35-.03-.03-.07-.05-.13-.1.13-.07.24-.13.36-.19.06.26.12.48.44.37.02,0,.12.12.12.18,0,.07,0,.13,0,.2,0,.04.02.07.02.11.08.12.11.28.07.42ZM30.72,12.44c-.35-.12-.51.02-.57.33-.01.05-.11.1-.18.13-.03.01-.08-.04-.12-.06.03-.06.08-.11.1-.17.03-.12.04-.25.05-.38.03-.35.05-.69.07-1.04,0-.1.01-.21.03-.36.1.08.17.14.23.18.08-.12.16-.23.24-.34.02.01.04.02.06.03-.03.29-.06.58-.09.87.04,0,.14-.01.29-.02-.44.25-.19.54-.1.84Z"/>
      <path class="cls-1" d="M13.1,99.12s.09-.04.21-.09c-.1.25-.17.44-.25.63-.03,0-.06-.01-.1-.02-.03-.49-.05-.98-.08-1.5.05,0,.14.02.26.03-.09-.16-.16-.31-.25-.47,0-.29,0-.61,0-.93,0-.02-.01-.04,0-.05.19-.39-.02-.78.04-1.17,0-.05.06-.11.06-.16,0-.11.04-.24,0-.32-.08-.14-.11-.24-.04-.39.03-.07,0-.18-.01-.27-.03,0-.06,0-.08-.01.09-.16.17-.32.27-.5-.07.02-.12.03-.15.04.03-.83.06-1.66.1-2.49-.09.03-.17.06-.26.09-.02-.02-.04-.04-.06-.05.42-.16.18-.47.21-.72.02-.17.05-.33.06-.5,0-.08-.04-.16-.04-.24.02-.3.06-.61.08-.91,0-.08-.05-.16-.1-.29,0-.27,0-.61,0-.94,0-.02-.03-.05-.02-.07.02-.17.05-.35.08-.52.04-.17.06-.33-.23-.34.3-.09.24-.24.19-.46-.06-.26,0-.55,0-.86,0,0-.06-.02-.07-.02-.02-.19-.04-.34-.04-.5,0-.12.03-.24.06-.38-.05-.01-.12-.03-.22-.05.23-.18.21-.38.14-.61-.04-.11-.02-.25-.04-.37-.01-.09-.06-.17-.07-.25-.02-.11-.07-.24-.02-.32.16-.3.07-.64.14-.95.03-.13-.08-.28-.08-.42-.02-.78-.05-1.57-.05-2.35,0-.45.07-.89.08-1.34,0-.43.2-.81.29-1.22.18-.89.64-1.72.62-2.66,0-.32.08-.64.13-.95.01-.07.06-.13.14-.17-.05.39-.11.78-.14,1.17-.04.53-.06,1.07-.11,1.6-.02.25-.1.5-.14.75-.02.12-.03.25-.05.37-.01.08-.02.16-.05.23-.06.14-.12.26.02.39.02.02.03.08.03.12-.07.43.05.88-.16,1.3-.06.12-.06.27-.1.43h.15s.01.05,0,.07c-.15.37-.09.77-.12,1.16-.06.66,0,1.33.04,1.99.02.41-.02.82,0,1.23.05,1.06.02,2.11.03,3.17,0,.69.03,1.39.03,2.08,0,.58-.02,1.15-.02,1.73,0,.09,0,.18,0,.28,0,.3.1.59-.02.89-.05.12.01.27,0,.41,0,.37-.01.73-.02,1.1-.01.32-.03.64-.04.96,0,.11,0,.23,0,.34,0,.85.03,1.71.01,2.56,0,.31-.09.62-.13.92-.01.1.02.2.01.3-.02.17-.05.33-.08.51Z"/>
      <path class="cls-1" d="M13.05,101.94v-1.74s.06,0,.1,0c.08.58.03,1.17.02,1.75-.04,0-.08,0-.12,0Z"/>
      <path class="cls-1" d="M10.7,23.61c-.16-.02-.32-.05-.28-.3,0-.06-.08-.13-.06-.2,0-.16-.01-.31-.02-.47,0-.02,0-.03,0-.05.05-.33.06-.67.17-.98.13-.39.33-.76.53-1.12.08-.14.24-.23.37-.35.28-.26.56-.53.81-.77-.03-.09-.06-.16-.08-.23.06-.02.15-.07.17-.05.08.09.14.2.23.35.45,0,.72.34.9.81.02-.02.04-.03.06-.05-.02-.08-.04-.15-.06-.23.16.06.16.09.1.35-.03.14,0,.3.02.46.06-.16.12-.31.17-.47.03,0,.07.02.1.02-.03.23-.04.46-.09.69-.09.41-.25.81-.31,1.23-.06.39-.32.62-.53.89-.15.2-.41.27-.55.52-.07.13-.33.17-.51.24-.13.05-.27.16-.39.14-.25-.06-.48-.18-.72-.29-.02-.01-.02-.08-.04-.16Z"/>
      <path class="cls-1" d="M11.32,34.35c-.42-.14-.64-.39-.7-.79-.06-.38-.2-.76-.17-1.12.08-.78-.03-1.55.02-2.32.02-.32.11-.64.09-.96-.02-.26.14-.49.12-.71-.03-.33.17-.6.15-.94-.02-.33.13-.67.22-1,.09-.33.19-.66.28-.99.01-.05,0-.11.01-.15.04-.08.11-.14.16-.22.05.07.14.14.15.22.04.21.05.43.07.68.06-.08.1-.13.14-.18.02.01.04.02.06.03-.07.14-.14.28-.22.45.1-.03.15-.04.21-.06,0,.02.03.05.03.07-.05.38-.13.75-.16,1.13-.02.41,0,.82.02,1.23.02.82.06,1.65.05,2.47-.01.64-.12,1.28-.15,1.92-.02.33-.1.61-.31.87-.06.08-.03.23-.05.37Z"/>
      <path class="cls-1" d="M13.95,15.11c-.05-.08-.09-.15-.14-.22-.22.44-.67.35-1.04.43-.09.02-.21-.08-.31-.14-.11-.06-.22-.11-.31-.18-.22-.15-.26-.4-.29-.64-.03-.25-.05-.5-.05-.75,0-.11.06-.22.09-.34h.08s-.08-.09-.12-.15c.1-.2.21-.41.33-.66.02.03,0,0-.02-.02.14-.11.28-.22.48-.37-.07-.02-.11-.03-.14-.04.15-.09.27-.17.41-.24.31-.15.6-.36.93-.43.18-.04.47.11.6.26.37.42.6.93.54,1.5-.07.6-.28,1.18-.65,1.67-.04.05-.11.08-.17.09-.2.03-.2.03-.22.23ZM14.05,13.24c-.57.08-.83.19-.51,1.01.45-.11.53-.22.51-1.01Z"/>
    </g>
  </g>
</svg>