<?xml version="1.0" encoding="UTF-8"?>
<svg id="Layer_2" data-name="Layer 2" xmlns="http://www.w3.org/2000/svg" viewBox="0 0 62.38 118.4">
  <defs>
    <style>
      .cls-1 {
        fill: #000;
        stroke-width: 0px;
      }
    </style>
  </defs>
  <g id="illustrations">
    <g>
      <path class="cls-1" d="M59.28,110.89c.03.06.04.14.04.22-.02,1.84-1.43,2.91-3.01,3.53-4.03,1.57-8.56,2.39-12.87,2.53-.85.03-1.69,0-2.54-.03-.13,0-.27,0-.4-.01-.63-.02-1.26-.07-1.89-.1-.7-.04-1.43.06-2.08-.13-.04-.01-.08-.02-.13-.03-1.35-.06-2.75-.12-4.01-.59-.3-.03-.6-.07-.87-.25-.03-.02-.09-.02-.13-.02-.39.08-.74-.07-1.08-.23-.59-.28-1.18-.55-1.75-.86-.35-.19-.62-.49-.68-.89-.08-.47-.09-.94-.11-1.42,0-.15.09-.32.05-.44-.26-.68-.21-1.39-.22-2.09-.01-.82.02-1.65.03-2.48,0-.32,0-.64,0-.96,0-.56.03-1.11.01-1.67-.02-.61.21-1.2.11-1.83-.09-.59,0-1.22.04-1.83.02-.33.09-.65.11-.98.02-.38.02-.77,0-1.15-.02-.55-.02-1.1-.09-1.65-.03-.22-.04-.33.28-.36-.09-.13-.19-.21-.2-.3-.04-.31-.08-.63-.08-.95,0-.43.07-.84.17-1.26.15-.65.15-1.33.22-2,.01-.13-.01-.27.03-.38.29-.69-.04-1.39.07-2.08.04-.27.01-.54.03-.81,0-.09.1-.17.09-.26-.02-.27-.08-.53-.09-.8-.03-.72-.11-1.43-.04-2.16.08-.82.04-1.64.05-2.47,0-.01.02-.03.04-.05.07.01.14.02.18.03-.02-.38-.05-.75-.07-1.12-.02-.31-.05-.62-.06-.93-.01-.5.02-1-.02-1.5-.03-.43-.13-.85-.22-1.27-.01-.07-.08-.13-.13-.19-.15.49-.25.95-.31,1.41-.07.57-.11,1.15-.17,1.72,0,.05-.03.11-.06.15-.2.27-.19.52.02.79-.17.19-.1.5.11.61-.07.06-.17.12-.2.21-.03.11-.02.24,0,.36.08.36.34.72-.02,1.08-.02.02,0,.1.01.15,0,.04.04.09.03.12-.25.86-.22,1.74-.22,2.62,0,.15-.03.29.16.35.02,0,.03.07.05.13-.09,0-.15,0-.2.01-.1,1.21-.2,2.4-.29,3.58-.02.32-.03.64-.04.96,0,.14.02.29.03.43,0,.31.02.62,0,.92-.01.3.21.62,0,.89.05.2.11.37.13.54.04.37.09.74.09,1.12,0,.68-.04,1.35-.06,2.03,0,.2,0,.4-.01.6,0,.1,0,.2-.01.3-.03,0-.05.01-.08.02.08.07.15.14.21.2-.05.09-.11.16-.12.23-.03.54-.05,1.08-.07,1.61,0,.09.03.17.05.29-.27.27-.32.5-.13.85.11.19.1.35.07.55-.04.3-.06.62-.05.92.02.51.07,1.02.1,1.53,0,.08,0,.19.05.24.37.37.02.69-.04,1.04-.06-.16-.08-.32-.09-.48-.03-.28-.15-.48-.3-.59.06.46.1.92.1,1.38.05,0,.1,0,.15.02.09.68.03,1.36-.07,2.03,0,0,0,.02,0,.03-.02.89-.36,1.76-.11,2.66.05.19.06.39.07.59,0,.06-.03.13-.06.23.1.53.23,1.06.43,1.55.23.56.49.72,1.05.9.83.27,1.6.63,2.39,1.01.83.4,1.69.82,2.61.91.21.02.35.15.42.3.32.11.64.18.97.24,3.14.14,6.28.35,9.43.37.03-.01.05-.02.08-.03.26-.15.51-.18.79-.19.05,0,.09,0,.14-.02.11-.04.22-.1.33-.12.23-.03.47,0,.7-.04.36-.05.71-.19,1.06-.16.31.02.55-.07.81-.18.06-.03.14,0,.2,0,.16,0,.36.08.46.01.3-.2.61-.23.96-.27.55-.06,1.1-.2,1.63-.37.57-.18,1.16-.26,1.72-.46.36-.13.79-.11,1.19-.11.38,0,.75,0,1.09-.21.16-.1.32-.2.49-.28.07-.03.19.04.25,0,.67-.37,1.34-.75,2.02-1.14-.15-.08-.19-.14-.07-.27.44-.47.88-.95,1.27-1.46.03-.04.05-.07.08-.11.17-.85.22-1.71.25-2.58-.09.16-.18.32-.28.48ZM41.75,117.88s0-.07-.01-.1c.16-.03.32-.06.48-.07.04,0,.08.11.14.19l-.6-.02Z"/>
      <path class="cls-1" d="M62.35,75.57c.08-.64.04-1.26-.17-1.86-.2-.58-.48-1.13-.66-1.71-.16-.51-.25-1.05-.32-1.59-.03-.25.05-.53.12-.78.07-.27-.05-.6.27-.77-.09-.1-.14-.24-.15-.38-.02-.74-.09-1.49-.01-2.23.01-.14.07-.26.16-.35,0-.25,0-.51.05-.75.07-.38-.11-.75.03-1.14.1-.29.04-.64.06-.96,0-.11.06-.21.09-.31-.01-.3-.03-.61-.04-.91,0-.07,0-.15,0-.22-.02-.79-.05-1.59-.06-2.38-.01-.75.01-1.5,0-2.25-.02-.71-.12-1.42-.12-2.13,0-1.1.06-2.21.08-3.31.02-1.03.04-2.07.06-3.11.01-.82-.05-1.65.03-2.47.15-1.59.15-3.18.17-4.78.01-1.01.04-2.02.04-3.02,0-1.38-.05-2.77-.06-4.15,0-.12.07-.23.1-.33-.03-.07-.11-.17-.11-.27,0-.77,0-1.54,0-2.31,0-.91-.1-1.82-.03-2.72.05-.65.08-1.28-.08-1.91-.13-.54-.23-1.11-.79-1.41-.25-.14-.49-.29-.74-.43-.42-.23-.85-.44-1.25-.7-.64-.4-1.24-.89-1.92-1.23-.66-.34-1.18-.96-1.97-1.06-.03,0-.06-.03-.1-.05-.37-.16-.75-.33-1.13-.49-.03-.01-.07-.01-.11-.01-.58-.03-1.17-.01-1.75-.09-.37-.05-.73-.22-1.08-.35-.14-.05-.26-.17-.4-.23-.75-.29-1.54-.21-2.31-.12-.19.02-.39.16-.54.29-.09.08-.13.27-.11.4,0,.06.18.13.29.15.23.05.47.07.7.12.34.07.69.16.77.58.28-.06.53-.17.78-.17.87,0,1.75.04,2.62.07.11,0,.22.01.32.05.55.22,1.1.44,1.64.7.44.22.88.46,1.27.75.51.38.95.84,1.45,1.22.37.28.76.58,1.2.7.66.17,1.15.51,1.57,1.02.14.17.14.25,0,.38-.07.06-.12.14-.19.2-.56.56-1.17,1.06-1.85,1.46-.76.45-1.43,1.04-2.28,1.35-.19.07-.35.19-.54.26-.19.08-.39.22-.59,0-.24.17-.45.38-.77.26-.02,0-.05,0-.08.01-.23.11-.45.26-.7.34-.35.11-.72.17-1.09.25-.13.03-.29,0-.4.06-.52.3-1.11.34-1.67.5-.27.08-.57.06-.86.09-.08,0-.16.04-.23.06-.18.05-.36.15-.54.15-1.35.04-2.71.06-4.06.1-.87.03-1.75.08-2.62.14-.21.01-.41.12-.63.09-.45-.06-.91-.08-1.36-.13-.35-.04-.7-.15-1.05-.17-.57-.02-1.13.02-1.7.02-.29,0-.58,0-.87-.03-.34-.03-.69-.08-1.03-.12-.53-.07-1.08-.07-1.58-.23-.82-.25-1.61-.57-2.39-.95-.9-.44-1.67-.99-2.28-1.78-.46-.34-.92-.72-1.26-1.18-.2-.27-.36-.56-.39-.9-.35-.1-.74-.03-.88.32-.13.33-.02.62.1.93.1.25.21.52.22.78.02.6,0,1.21-.02,1.81,0,.05-.03.09-.02.13.01.14,0,.29.05.41.1.24.24.45.01.7-.05.05-.02.17-.02.26,0,.24,0,.49.01.73.01.14.07.28.13.42.05.11.2.24.18.32-.11.37.04.79-.3,1.14-.21.21-.24.64-.26.98-.01.24.15.48.22.72.12.39.35.78.06,1.2-.04.05.01.17.04.25.09.26.19.53.29.79.07.19.07.35-.19.43.11.05.17.08.19.09-.06.14-.14.25-.16.38-.04.3-.06.6-.06.9,0,.28.04.55.06.83,0,.09,0,.19.04.27.06.19.15.36,0,.55-.07.08-.09.21-.14.32-.08.18-.21.36-.2.53.06.59.17,1.17.25,1.75,0,.06-.06.13-.11.21.24.1.23.33.23.56,0,.37,0,.75-.01,1.12,0,.38.05.77,0,1.14-.08.53-.06,1.05-.01,1.58.08.9.23,1.8.07,2.71-.02.13,0,.26-.09.39-.09.12-.14.3-.15.46-.02.2.02.4.02.61,0,.2.08.43-.14.58-.01.01-.01.06,0,.08.23.47.03,1.03.31,1.49.03.05.05.18.02.2-.16.12-.06.21.01.31.15.23.12.76-.09.86-.27.13-.12.35-.14.5-.03.32.05.65.09.98.05.12.1.26.1.39-.03.39-.13.78-.12,1.16.02.94.09,1.88.15,2.82.02.34.11.68.13,1.02.03.51,0,1.01.03,1.52.01.2.09.41.16.6.15.37-.19.76.04,1.12.02.02,0,.07-.01.11-.19.56-.1,1.12-.07,1.69.02.39,0,.78-.02,1.17,0,.17-.07.35-.05.51.08.48.1.94-.03,1.41.03.44-.69.72-1.02.26-.55-.78-1.24-1.44-1.94-2.08-.66-.62-1.31-1.26-2.02-1.83-1.34-1.06-2.79-1.98-4.09-3.08-1.38-1.16-2.6-2.44-4.1-3.47-1.43-.99-2.96-1.83-4.49-2.65-.12,0-.24,0-.36,0-.5,0-1-.04-1.5-.08.19.11.36.24.48.46.04.06.17.12.24.11.41-.06.73.07,1.05.32.41.32.89.56,1.32.86.48.33.94.69,1.5.88.07.02.13.07.19.1.6.38,1.22.74,1.81,1.14.28.19.63.35.62.74-.09.07-.18.13-.33.24-.39-.2-.82-.42-1.25-.64-.05-.02-.1-.04-.16-.05-.69-.2-1.38-.39-2.08-.58-.58-.16-1.16-.32-1.77-.28-.1,0-.2-.02-.29-.05-.35-.1-.69-.1-.99.15-.17.14-.33.2-.55.13-.1-.03-.24.02-.35.06-.13.05-.25.14-.38.19-.21.07-.44.09-.65.17-.42.16-.82.35-1.23.54-.29.13-.58.28-.94.45.17-.55.29-1.09.5-1.58.18-.4.48-.75.74-1.11.06-.08.14-.14.23-.2.22-.15.44-.3.66-.45.48-.31.97-.51,1.54-.24.14.07.31.09.47.12.34.06.69.11,1.03.15.14.02.29.01.44.02,0-.03.01-.07.02-.1-.61-.45-1.23-.89-2-1.07-.35-.08-.69-.18-1.05-.01-.27.13-.55.22-.82.35-.82.41-1.57.91-2.02,1.75-.08.14-.25.24-.38.35-.07.07-.15.13-.26.22.37.08.39.11.18.32-.16.17-.37.31-.49.51-.18.3-.51.53-.4.97.04.17,0,.37-.03.56-.03.27-.06.53-.12.79-.07.28-.2.55-.24.84-.05.34-.04.7-.05,1.05,0,.32-.02.64.02.96.05.4.07.76-.33,1.01-.12.07-.22.2-.33.28-.15.11-.15.26-.06.38.4.52.88.91,1.59.86.04,0,.08,0,.12-.02-.22-1.31-.42-2.86.4-3.96.15-.21.37-.27.59-.21,0,0,0,0,0,0,0,0,0,0,0,0,.04.01.08.02.12.04.41.21.79.47,1.2.7.37.21.76.31,1.17.4.6.13,1.19.24,1.76.44.11.02.22.06.32.08.35.07.74.07,1.06.21.44.18.87.29,1.34.26.06,0,.13.05.19.07.12.05.23.12.36.14.35.08.71.14,1.07.21.08.01.18.01.26,0,.14-.03.27-.09.41-.1.05,0,.17.13.16.17-.05.2.06.24.2.29.45.13.89.26,1.34.39.69.2,1.43.23,2.08.57.47.24.97.44,1.43.7.29.16.54.4.83.63,0,0,0,.05-.02.09-.02.09-.04.18-.06.27-.09-.03-.18-.06-.26-.09-.06-.02-.12-.05-.18-.07-.81-.17-1.62-.3-2.45-.24-.4.03-.8.04-1.19.06-.04.63-.03.64.37.57.11.21.29.29.52.26.09,0,.18,0,.27,0,.58.09,1.16.21,1.75.26.49.04.95.04,1.42.3.43.24.97.3,1.47.38.52.09.93.35,1.37.69-.39.05-.71.09-1.04.13-.1.01-.19.07-.28.06-.3-.03-.59-.08-.89-.11-.43-.04-.87-.13-1.28-.05-.34.06-.6.02-.87-.15-.29-.19-.58-.36-.95-.33,0,.16-.3.42-.42.36-.19-.09-.37-.18-.59-.29.16-.04.3-.08.45-.12,0-.03,0-.06,0-.09-1.19.05-2.34-.19-3.46-.51,0,.13.24.35-.08.39-.14.01-.33-.11-.45-.22-.15-.15-.27-.27-.51-.22-.2.04-.42.09-.56-.16-.03-.05-.15-.08-.22-.07-.31.02-.66-.19-.9.16,0,0-.02,0-.03,0-.07-.03-.13-.07-.25-.13.05.11.08.17.11.25-.22.05-.44.2-.67-.02.08-.08.14-.15.26-.27-.27-.01-.48-.01-.68-.03-.16-.01-.32-.06-.49-.07-.14-.01-.29,0-.43,0-.26-.02-.54.02-.76-.08-.28-.12-.55-.17-.85-.16-.1,0-.23-.05-.31-.12-.32-.31-.71-.37-1.12-.32-.08.01-.18.19-.2.3-.01.08.08.23.16.25.34.1.69.16,1.04.23.1.02.19.04.29.08.2.07.4.16.61.23.46.15,1.01,0,1.41.4.04.04.12.03.19.04.19.03.38.03.57.08.4.11.79.25,1.2.34,2.69.14,5.35.63,8.03.87,1.42.13,2.85.21,4.27.27,1.37.06,2.76-.02,4.13.09.62.05.63.92.12,1.04-.06.17-.23.37-.4.41-.45.12-.9.21-1.35.32-.66.16-1.32.31-1.97.47-.2.05-.39.13-.6.16-.44.07-.88.12-1.32.16-.36.04-.73.09-1.09.08-.51-.02-.98.18-1.5.11-.65-.09-1.31-.1-1.96-.15-.18-.01-.36-.04-.54-.03-.12,0-.24.07-.36.06-.22-.01-.44-.04-.65-.09-.52-.12-1.04.16-1.57-.04-.3-.11-.64-.11-.95-.19-.41-.11-.84-.15-1.2.02-.34.16-.58-.05-.87-.06.11-.05.22-.04.32-.04.11,0,.22.01.32-.02.04-.01.06-.2.06-.2-.22-.07-.48-.23-.67-.18-.26.07-.42-.02-.6-.14-.06-.04-.12-.09-.19-.11-.63-.21-1.3-.33-1.89-.63-.89-.45-1.74-.99-2.57-1.55-.41-.27-.71-.71-1.12-.98-.5-.33-.89-.73-1.14-1.26-.05-.11-.07-.28-.15-.34-.24-.15-.32-.38-.4-.63-.09-.28-.56-.54-.83-.46-.11.03-.21.17-.27.29-.07.15.03.22.18.27.08.02.19.09.2.16.04.19.04.39.07.59.02.11.04.24.11.31.04.04.18-.03.32-.06.21.27.43.59.69.88.46.51.93,1,1.41,1.48.3.3.62.6.96.86.34.25.81.29,1.12.62.06.07.25,0,.37.03.12.03.24.09.36.14-.08.2.09.24.2.28.58.25,1.16.49,1.74.73.12.05.25.06.42.09-.05-.12-.07-.18-.11-.27.06.03.1.03.11.05.14.3.46.27.69.4.05.03.16.02.18,0,.23-.36.36-.12.54.06.1.09.31.36.47,0,0,0,.17.04.25.09.05.03.05.15.1.17.41.22.86.3,1.35.29-.11-.23,0-.3.16-.44.21-.17.39-.09.59-.09.16,0,.32.06.48.1,0,.03,0,.06-.01.08-.18.04-.35.08-.53.12,0,.04.01.07.02.11.18-.02.36-.06.54-.05.18,0,.37.06.56.1-.08.11-.11.16-.14.2.07.04.14.12.21.12.54.02,1.08.02,1.62.02.28,0,.57,0,.85.01.56.01,1.13.11,1.67.03.86-.12,1.7-.36,2.55-.54.19-.04.38-.07.58-.11,0,.02.02.04.02.06-.2.11-.41.23-.63.36.08.04.13.06.21.1-.09.06-.15.1-.21.13-.61.29-1.22.58-1.83.88-.05.02-.08.09-.12.14.02.02.03.04.05.06-.13.04-.26.07-.39.13-.29.14-.63.18-.83.49-.07.11-.21.17-.32.25-.18.14-.46.08-.59.38-.09.19-.41.26-.55.5-.09.15-.35.2-.52.31-.24.15-.46.33-.69.49-.26.17-.55.3-.78.5-.14.12-.45.21-.3.5-.28.24-.54.46-.84.71.37-.07.54-.51.95-.43-.22.18-.42.32-.61.49-.13.12-.24.26-.38.38-.3.25-.61.49-.91.74-.02.01-.02.04-.03.08.06-.02.11-.03.16-.05-.15.15-.33.26-.48.4-.28.27-.55.56-.82.84-.03.03-.06.1-.05.12.17.24-.09.31-.17.45-.03.06-.1.1-.15.15-.74.72-1.18,1.63-1.59,2.56-.08.19-.1.4-.24.58-.1.12-.06.34-.13.49-.31.6-.63,1.19-.86,1.84-.25.7-.3,1.49-.82,2.1-.15.18-.12.5-.18.75-.13.49-.36.91-.76,1.23-.09.07-.21.17-.23.26-.04.3-.2.5-.44.65-.06.04-.12.09-.16.15-.02.04.01.1.03.18-.24.13-.18.43-.19.67,0,.38-.1.7-.34.99-.14.17-.27.34-.41.51-.18.19-.2.57-.63.46-.01.03-.02.06-.04.09.05.02.11.04.12.04-.12.2-.23.4-.35.59-.02,0-.03-.02-.05-.02.03-.09.05-.17.08-.26-.03-.01-.05-.03-.08-.04-.12.23-.23.48-.38.69-.3.46-.65.88-.94,1.35-.55.86-1.1,1.71-1.2,2.77-.02.26-.16.5-.39.66.05-.1.1-.19.15-.29-.02-.01-.04-.02-.06-.03-.1.15-.21.29-.3.44-.28.44-.56.88-.83,1.33-.05.08-.07.18-.07.27.01.15.09.3.08.44,0,.21.08.34.23.46.05.04.09.1.13.17.02,0,.04,0,.06.02.04,0,.08,0,.13,0,0,0,0,0,0,0,0,0,0,0,.01,0,.05-.01.11-.03.16-.04.02-.01.05-.02.07-.03.04-.02.08-.04.12-.06.05-.03.09-.05.14-.08.01,0,.06-.04.08-.05.11-.08.22-.17.32-.26.03-.04.08-.08.12-.1.19-.16.37-.32.57-.47.05-.04.1-.06.15-.08.61-.65,1.36-1.12,2.14-1.52.83-.43,1.72-.75,2.58-1.13.54-.23,1.07-.48,1.6-.71.69-.3,1.39-.61,2.09-.9.22-.09.48-.1.68-.21.37-.2.74-.29,1.15-.27.09-.08.19-.16.3-.23,0-.04-.01-.07-.03-.12.12-.04.23-.06.33-.07.09-.05.17-.1.26-.14-.04,0-.07.02-.11.02-.06,0-.12-.04-.18-.07,0-.02.02-.05.03-.07.19-.04.38-.1.57-.1.04,0,.07.01.11.02.54-.22,1.11-.37,1.67-.52.63-.18,1.22-.54,1.8-.84.58-.3,1.17-.57,1.81-.73.42-.41.83-.82,1.25-1.23.41-.4.81-.81,1.21-1.22-.1-.14-.16-.3-.27-.37-.23-.14-.24-.31-.16-.53.02-.06.03-.12.04-.19.06-.33.06-.69.43-.87,0,0-.01-.07-.02-.12.09.02.16.03.19.04.01-.26,0-.51.03-.76.05-.35.21-.7.18-1.04-.04-.57.18-1.07.22-1.61,0-.12.01-.24.06-.34.18-.39.2-.76-.08-1.11-.03-.04-.04-.11-.02-.15.21-.34.2-.73.24-1.11,0-.08.04-.16.06-.23.24-.66.49-1.32.73-1.98.26-.73.48-1.48.76-2.2.13-.33.36-.63.51-.96.2-.45.29-.97.55-1.36.5-.75.66-1.61.98-2.42.21-.52.37-1.07.57-1.6.12-.31.24-.62.39-.91.15-.28.36-.52.54-.79.06-.09.1-.2.18-.27.27-.25.58-.42.97-.41,0-.09,0-.17-.01-.3.21.07.39.13.56.2.01-.02.03-.05.04-.07.33.31.64.66,1.01.92.53.37.65.86.6,1.46-.01.17.06.35.12.51.06.15.19.27.24.42.14.36.23.73.38,1.08.38.89.78,1.77,1.18,2.66.23.5.56.92.97,1.28.68.59,1.18,1.32,1.69,2.06.46.67.86,1.39,1.49,1.93.2.17.35.42.5.64.26.38.47.79.76,1.14.66.8,1.37,1.55,2.03,2.35.4.5.86.92,1.37,1.3.79.58,1.57,1.18,2.34,1.78.42.33.83.69,1.24,1.03.19-.15.35-.34.55-.02.12.19.39.3.46.49.12.32.38.4.63.51.27.24.51.53.94.48.09,0,.2.18.29.28.03.03,0,.11.03.14.38.32.79.6,1.11.98.16.19.37.33.53.52.46.56.93,1.13,1.36,1.72.11.15.11.38.14.58,0,.05-.06.12-.09.18-.05-.04-.11-.08-.15-.13-.23-.27-.42-.58-.67-.82-.46-.43-.86-.91-1.16-1.46-.06-.11-.2-.19-.31-.28-.02.02-.05.05-.07.07.12.15.26.29.35.46.61,1.2,1.07,2.47,1.81,3.61.19.29.39.6.48.92.14.5.19,1.02.27,1.54.06.41.1.81-.17,1.19-.09.12-.11.29-.17.5.23-.04.38-.09.54-.1.54-.02.81-.38.92-.83.11-.43.1-.89.16-1.33.02-.14.03-.31.11-.4.14-.15.1-.27.06-.44-.09-.4-.21-.81-.18-1.21.01-.24.02-.46-.02-.69-.1-.49-.19-.99-.28-1.48-.26-1.38-.53-2.77-.79-4.15-.06-.32-.14-.64-.2-.96-.16-.84-.29-1.69-.47-2.53-.06-.26-.23-.5-.33-.75-.05-.13-.05-.28-.09-.42-.13-.46-.26-.91-.41-1.37-.2-.64-.42-1.28-.62-1.93-.1-.31-.25-.65-.21-.95.03-.27-.04-.29-.24-.36-.24-.08-.48-.18-.68-.33-.32-.24-.6-.52-.89-.79-.76-.71-1.46-1.48-2.22-2.19-.72-.68-1.47-1.31-2.29-1.87-.32-.22-.59-.51-.89-.77.34-.26.63-.12.92-.04.69.19,1.37.45,2.1.48.2,0,.41,0,.6.04,1.34.27,2.67.55,4.01.83.03-.02.09-.09.16-.1.17-.02.35,0,.52,0,.56-.01,1.13-.02,1.69-.05.16,0,.31-.11.46-.13.23-.03.46-.02.69-.02.05,0,.11.02.16,0,.27-.04.55-.04.81-.13.21-.07.39-.15.62-.06.1.04.31.04.35-.02.17-.28.41-.2.65-.19.1,0,.2,0,.29-.02.9-.22,1.72-.61,2.51-1.08.24-.14.53-.22.79-.33.24.47.15.92.12,1.34-.04.43-.17.85-.27,1.28.38.11.43.15.37.37-.09-.07-.18-.14-.26-.21-.09.08-.16.14-.2.17.07.19.11.37.2.53.21.35.15.69.03,1.04-.05.14-.07.32-.02.44.11.28.12.99-.1,1.17-.27.22-.24.49-.27.77-.02.16-.05.33-.08.48.05.12.13.24.16.38.02.12-.03.25-.04.38-.02.51-.04,1.02-.06,1.53-.02,0-.04,0-.06,0,0-.56,0-1.13,0-1.69-.02.06-.03.13-.03.19,0,.87,0,1.74,0,2.61,0,.12-.03.24-.03.35,0,.16-.02.34.03.49.04.16.08.28,0,.44-.06.1-.08.22-.09.34-.01.27,0,.55,0,.82-.04.64-.1,1.28-.12,1.92-.03.8-.04,1.59-.05,2.39,0,.63-.05,1.26,0,1.89.05.56,0,1.13.26,1.66.02.03-.02.1-.04.15-.03.06-.08.12-.08.18-.03.26-.06.53-.05.8,0,.15.12.3.12.45,0,.26-.01.52-.05.77-.12.74.1,1.5-.18,2.22,0,0,0,.02,0,.03,0,.43,0,.86.01,1.29.02.34-.02.66-.18.97-.05.1,0,.27.01.41.04.01.08.02.12.03.08-.09.19-.16.22-.26.12-.34.2-.69.31-1.04.05-.16.16-.3.17-.46.01-.15.05-.28.11-.4.05-.59.14-1.17.3-1.75,0-.44,0-.87.02-1.31,0-.08.09-.15.14-.23-.03-.04-.12-.09-.12-.16-.03-.22-.04-.45-.03-.68,0-.7.03-1.39.04-2.09,0-.2.03-.41,0-.6-.09-.51-.09-1.01.01-1.52.04-.19-.07-.41-.12-.62-.06-.27-.13-.54-.2-.81.04,0,.08-.01.12-.02.02.09.03.18.05.26.02.08.05.15.08.27.03-.22.05-.37.07-.55-.02-.03-.07-.11-.15-.24.08-.04.15-.08.23-.12-.23-.18-.29-.41-.16-.44.26-.06.21-.24.21-.4-.02-.87-.13-1.74-.03-2.62.03-.3.04-.61.08-.92.06-.45.03-.91.04-1.37,0-.22-.04-.4-.27-.51-.06-.03-.1-.18-.08-.26.03-.15.12-.29.19-.47-.33-.23-.12-.62-.2-.95.09-.01.17-.02.27-.04.02-.49.04-.97.06-1.45.03-.96.06-1.92.08-2.89,0-.08,0-.16-.01-.25-.01-.15-.05-.31-.03-.46.06-.54.24-1.07-.04-1.6-.04-.07-.03-.16-.04-.24-.04-.23.28-.45.02-.68,0,0,.02-.05.02-.08.02-.12.05-.25.07-.37.03-.19.02-.4.11-.56.21-.39.45-.75.69-1.12.16-.23.38-.43.51-.67.14-.27.22-.58.28-.87.15-.67.45-1.31.44-2.03,0-.31-.01-.63.03-.94ZM27.23,30.98c-.18-.02-.25-.1-.21-.29.1-.44.18-.89.27-1.32.19.11.17,1.1-.06,1.61ZM15.31,63.58c.13.17.45.28.32.63-.22-.19-.42-.36-.62-.54.08-.03.17-.05.3-.09ZM13.16,68.38c-.12-.05-.31.2-.38-.09-.02-.07.04-.15.07-.22l.36.23s-.03.06-.05.09ZM24.91,74.26c-.16-.08-.32-.17-.49-.24-.13-.05-.27-.07-.41-.1-.09-.02-.18-.05-.27-.07,0-.03.02-.06.02-.09.1.02.19.05.34.08-.08-.1-.13-.16-.18-.23.39-.06.88.21,1.03.55-.01.03-.03.07-.04.1ZM25.68,73.41c-.77.06-1.5-.4-2.15-.88-.04.04-.07.08-.11.11,0,0,0,0,0,0,0-.16-.06-.26-.15-.31,0,0,0,0,0,0-.09-.06-.21-.08-.34-.09-.82-.06-1.61-.29-2.36-.61-.34-.15-.6-.46-.89-.7-.23-.19-.45-.4-.7-.55-.17.11-.41.12-.57,0-.21-.15-.4-.31-.58-.49-.7-.3-1.37-.68-2.11-.97-.33-.13-.66-.24-1-.35v.16c-.17-.11-.3-.2-.44-.3-.52-.16-1.05-.31-1.57-.48.01.01.02.03.03.04-.03.02-.05.03-.08.05-.05-.05-.1-.1-.16-.15-.06-.02-.12-.05-.18-.07-.38.19-.66.12-1.03-.21-.18-.16-.42-.25-.64-.35-.27-.12-.55-.23-.83-.33-.18-.06-.38-.08-.57-.11-.15-.03-.3-.03-.44-.07-.46-.15-.9-.36-1.36-.48-.47-.12-.97-.14-1.45-.26-.33-.08-.64-.26-.96-.38-.11-.04-.25-.02-.37-.05-.14-.04-.32-.08-.39-.19-.05-.08.03-.26.07-.39.01-.05.07-.08.11-.12.16-.15.3-.29.39-.52.09-.23.39-.37.61-.55.07-.06.16-.15.24-.15.16,0,.28-.27.47-.07.01.01.14-.04.15-.08.05-.17.15-.18.29-.12.26.1.48.07.69-.16.11-.12.32-.17.49-.2.24-.03.48,0,.73,0,.17,0,.34-.02.51-.02.25,0,.51,0,.76.01.08,0,.16.03.24.05.09.03.18.07.31.12.11.49.5.53,1.12.05.1.09.29.14.15.35-.02.03,0,.09.02.13.13.22.74.36.91.28.45.2.84.37,1.26.55.13-.36.34-.21.54-.19.33.04.33.39.54.53.11.07.2.17.32.21.36.12.73.2,1.08.35.19.08.32.29.51.39.47.26.99.45,1.43.75.58.4,1.11.89,1.66,1.34.07.06.14.11.21.17.23.16.42.34.58.55.42.15.82.34,1.2.56-.07-.09-.15-.18-.23-.28.12,0,.2-.02.24.01.34.28.68.56,1,.9.2.14.4.27.6.41.98.69,2.1,1.32,2.72,2.38.22.38-.12.75-.49.78ZM22.19,85.21c.09-.02.16-.04.24-.06,0,.14.3.19.11.38-.1-.09-.2-.18-.35-.32ZM25.52,78.07c-.17.29-.58.48-.44.94-.27.25-.84,1.3-.8,1.51-.07.04-.13.09-.22.14.05.06.09.11.15.19-.28.01-.36.18-.36.42.15-.05.3-.09.44-.14.13-.04.25-.1.44-.18.29-.83.61-1.74.93-2.65.17.06.17.07.11.26-.09.25-.18.5-.23.77.18-.31.19-.7.52-.91-.16.4-.19.86-.56,1.17.14.15.1.32.01.52-.18.46-.33.93-.49,1.4-.21.63-.36,1.29-.66,1.88-.21.41-.31.87-.57,1.26-.18.27-.2.64-.31.96-.1.3-.23.59-.35.89-.23-.22-.46-.45-.67-.65.03-.12.05-.22.07-.32.09.03.18.05.28.09.03-.17.06-.32-.07-.51-.09-.13-.04-.35-.06-.54-.02.03-.06.08-.1.13-.06-.04-.11-.08-.15-.12-.13-.11-.23-.08-.27.07-.09.3-.18.6-.22.9-.04.28.26.19.38.3-.01.12-.03.26-.04.4h-.29c.01-.09.03-.15.04-.21-.27,0-.49.66-.34.96.14-.05.28-.1.41-.15.01.04.03.07.04.11-.12.05-.25.09-.36.15-.08.04-.2.09-.21.15-.04.24-.21.49.02.72.03.03.02.12.01.18-.06.29-.13.57-.2.87.1.06.26.14.42.23,0,.03-.02.06-.03.09l-.54-.02c.06.17.11.28.15.4l-.51-.02c.09.12.17.21.2.26l-.04.97s-.09-.03-.14-.05c-.02.02-.04.05-.06.07.07.04.13.08.24.14-.41.22-.41.59-.43.96-.03.62-.07,1.24-.12,1.86-.03.42-.06.83-.11,1.25-.03.22-.11.44-.17.66-.05.18-.09.37-.14.55-.1.37-.19.74-.29,1.1-.02.08-.12.13-.17.2-.07.09-.14.19-.21.29.02.02.04.03.05.05.05-.02.09-.04.13-.06-.2.81-.79,1.21-1.52,1.48-1.05.39-2.04.91-2.94,1.59-.28.21-.59.36-.96.42-.4.07-.77.32-1.17.45-.57.18-1.16.34-1.74.48-.11.03-.22.04-.33.06-.44.22-.91.4-1.39.55-.09.07-.18.13-.28.18-.13.06-.29.03-.45.04-.44.12-.89.24-1.33.38-.73.22-1.46.5-2.16.79-.62.26-1.42.56-1.83,1.13-.4.54-1.27,0-.89-.57.22-.33.46-.65.69-.98.2-.43.53-.78.73-1.22.07-.15.18-.24.31-.28.04-.04.09-.08.12-.12,1.09-1.28,1.96-2.72,2.82-4.16.41-.7.81-1.4,1.16-2.13.18-.37.26-.78.36-1.18.07-.28.12-.57.18-.86.01-.05.03-.12.06-.15.48-.46.51-1.11.74-1.68.17-.41.3-.84.46-1.26.05-.12.17-.22.22-.34.06-.14.06-.3.11-.44.08-.2.17-.4.28-.58.32-.5.64-1,.99-1.47.2-.26.45-.48.7-.71,1.08-1,2.16-2,3.25-2.98.99-.89,2-1.75,3-2.62.07-.06.14-.13.22-.16.59-.19,1.08-.55,1.5-.99.67-.71,1.6-.98,2.38-1.5.38-.25.81-.44,1.17-.71.18-.13.26-.4.39-.59.04-.06.12-.09.18-.14.22-.16.44-.29.74-.29.25,0,.51-.11.77-.17-.24.28-.52.54-.7.84ZM28.67,75.93l-.72-.03c.03-.32.27-.53.56-.49.45.06.03.35.16.51ZM29.06,73.57c-.15.08-.34.22-.48.18-.19-.04-.25-.25-.27-.48-.06-.66-.17-1.32-.24-1.99-.05-.43-.03-.87-.1-1.3-.16-1-.17-2.01-.17-3.03,0-.57-.09-1.13-.13-1.7-.06-.94-.11-1.88-.15-2.83,0-.16.08-.33.12-.5.01-.05.03-.11.03-.16,0-.46,0-.93-.03-1.39-.02-.44-.1-.89-.08-1.33,0-.39.11-.78.16-1.17.03-.24.06-.49.05-.74-.04-.51-.12-1.02-.17-1.53-.02-.2.02-.4.02-.6,0-.46-.01-.91,0-1.37,0-.21.06-.41.09-.62,0-.07,0-.14,0-.21,0-.16-.08-.35-.02-.48.16-.34.03-.68.06-1.02.05-.73.11-1.46.17-2.19.04-.49,0-.96-.16-1.43-.05-.14-.02-.3-.02-.46,0-.07.03-.14.03-.22,0-.65-.01-1.3-.03-1.94-.02-.56-.05-1.13-.08-1.69-.02-.23,0-.43.18-.5-.05-.21-.12-.4-.12-.58,0-1.13.03-2.25.02-3.38,0-.44-.09-.87-.12-1.31-.02-.22.02-.44.02-.66,0-1.02-.01-2.04,0-3.06.02-1.05.09-2.1.11-3.15,0-.2-.06-.41-.1-.63.03-.08.09-.2.1-.32.03-.35.03-.71.05-1.1.04.02.11.03.15.07.38.4.76.8,1.14,1.21.22.24.43.49.76.57.91.22,1.63.82,2.46,1.17.61.26,1.3.35,1.97.44,1,.14,2.02.22,3.03.31.65.06,1.3.08,1.94.13.49.04.98.12,1.47.15.73.04,1.47,0,2.19.1.56.07,1.09.01,1.63-.08.19-.03.4,0,.6.02.21.03.42.13.63.13.28,0,.55-.06.83-.1.13-.02.27-.08.4-.09.67-.03,1.35-.03,2.02-.09.53-.05,1.05-.15,1.56-.27,1.08-.25,2.16-.53,3.24-.79.31-.08.63-.09.9-.34.13-.12.39-.14.59-.13.59.04,1.09-.21,1.59-.46.5-.25,1-.51,1.5-.78.23-.12.46-.26.66-.43.14-.12.23-.3.31-.47.08-.18.17-.3.38-.35.3-.08.48-.29.67-.55.33-.45.28-.9.22-1.37,0-.04,0-.08,0-.12.03-.01.05-.02.08-.03.11.19.23.38.32.58.26.63.39,1.29.24,1.95-.13.59.06,1.14.08,1.7.03.89.09,1.77.13,2.66,0,.04,0,.11-.02.13-.18.19-.08.3.09.36-.05.47-.12.91-.13,1.35,0,.19.09.38.13.58.05.23.11.47.13.7.03.36.05.72.03,1.08,0,.16-.1.31-.16.49.16.12.22.28.12.5-.17.37-.13.77-.14,1.17-.02.89-.04,1.79-.16,2.67-.09.64.03,1.21.19,1.81.04.17-.06.37-.09.56-.06.33-.16.66-.18.99-.03.41,0,.82,0,1.23,0,.07-.05.14-.07.22-.07.18-.17.35-.2.54-.06.36-.1.72-.13,1.09,0,.11.04.23.05.34,0,.07,0,.14.02.21,0,.1.02.21.03.31.03,0,.05,0,.08,0v-.4s.04,0,.07-.01c.02.05.05.1.05.15,0,.3,0,.61-.03.91,0,.08-.08.15-.14.25,0,.11.01.28.03.45.02.16.07.32.06.47-.04.46-.12.91-.15,1.36-.05.65-.13,1.31-.13,1.96,0,.52-.02,1.05.02,1.56.07.98.17,1.95.27,2.93.12,1.14.16,2.27.12,3.41-.02.6-.1,1.2-.12,1.81,0,.33,0,.67,0,1,0,.02.01.04.01.05.06,1.37.15,2.85-.38,4.14,0,.02-.03.04-.04.06-.02.16-.04.31-.06.46l-.09.04c-.04-.08-.08-.15-.12-.23-.14.06-.31.05-.48-.03-.9-.44-1.77-1.06-2.51-1.75-.23-.05-.47-.1-.7-.13-.58-.08-1.17-.11-1.75-.19-.28-.04-.55-.16-.82-.25-.03,0-.03-.09-.06-.18-.07.11-.13.19-.19.28-.02,0-.06.01-.08,0-.49-.31-1.01-.03-1.52-.05-.39-.02-.78.01-1.17.04-.15.01-.33.04-.44.13-.24.2-.5.16-.77.18-.71.05-1.42.13-2.12.25-.91.16-1.81.36-2.71.56-.81.18-1.61.4-2.41.61-.43.11-.86.21-1.28.33-.19.05-.36.14-.54.21-.17.06-.34.13-.51.15-1.01.12-2.03.16-3.02.35-.73.14-1.43.44-2.14.68-.58.19-1.15.4-1.73.6-.02-.02-.04-.04-.06-.05.08-.1.17-.2.25-.29.2-.22.4-.44.6-.66.03-.03.07-.08.1-.08.47.01.74-.36,1.1-.56.14-.08.28-.17.4-.3-.14.04-.29.07-.43.11,0-.03-.02-.06-.03-.08.25-.09.5-.19.75-.28.07-.03.15-.06.22-.09.08-.03.19-.1.22-.08.21.2.36.01.53-.07.17-.08.37-.11.54-.18.21-.09.4-.2.59-.33.19,0,.4.11.55-.21.06-.13.37-.16.57-.2.18-.04.32-.07.29-.3-.02-.16.09-.18.23-.2.2-.03.39-.11.58-.17.03-.01.08-.04.1-.03.34.15.64-.06.96-.08.16,0,.32-.09.44.1.02.04.19.01.27-.02.2-.07.39-.19.6-.25.15-.04.32-.03.48-.03.08,0,.16.02.24.01.36-.05.73-.1,1.09-.15.06,0,.15-.02.17-.06.12-.19.21-.1.31.01.27-.18.58-.19.86-.11.3.08.54.07.81-.11.17-.11.41-.12.62-.14.23-.02.46.02.69,0,.12,0,.23-.09.34-.12.18-.05.36-.09.55-.1.31-.03.62-.03.93-.05.05,0,.1-.03.13-.05-.22-.49-.59-.49-1.03-.4-.35.08-.71.11-1.05-.04-.04-.02-.1-.03-.13-.01-.39.27-.86.22-1.29.31-.57.11-1.16.16-1.74.23-.09.01-.2,0-.27-.04-.36-.21-.73-.08-1.09-.02-.33.05-.65.07-.98.14-.46.09-.91.21-1.36.31-.1.02-.2-.01-.31-.01-.04,0-.09,0-.12.02-.32.14-.62.36-.95.4-.62.08-1,.54-1.5.8-.28.14-.57.25-.87.36-.24.09-.48.16-.57.43-.01.04-.07.08-.11.1-.2.11-.41.21-.54.27-.15-.05-.27-.12-.32-.09-.27.15-.6.27-.77.51-.26.36-.65.46-.96.71-.31.25-.64.48-.96.73-.25.2-.5.41-.74.62-.05.04-.1.09-.16.09-.27,0-.45.16-.62.35-.14.15-.27.33-.44.41-.17.09-.39.08-.59.12-.36.07-.72.13-1.06.23-.16.05-.29.21-.45.3ZM43.17,77.71c-.29-.11-.59-.21-.89-.32-.21-.08-.42-.17-.62-.27-.06-.03-.23,0-.14-.17-.16-.06-.32-.13-.49-.16-.22-.04-.45-.03-.67-.07-.11-.02-.17-.14-.32,0-.07.07-.32,0-.45-.08-.12-.07-.2-.23-.32-.37.1-.02.17-.04.32-.07-.13-.05-.18-.09-.23-.08-.04,0-.06.08-.1.11-.07.07-.17.22-.22.2-.14-.04-.31-.12-.37-.23-.07-.13-.11-.1-.23-.13-.3-.07-.57-.25-.86-.38-.07-.03-.13-.07-.2-.09-.07-.02-.16-.02-.2-.06-.17-.19-.43-.16-.74-.26.13-.08.2-.12.27-.17.09-.06.18-.18.28-.19.55-.06,1.11-.09,1.65.09.15.05.31.1.46.11.47.02.93.03,1.4.03.33,0,.63-.05.92-.26.19-.14.46-.17.7-.21.76-.14,1.56-.16,2.26-.43,1.02-.38,2.08-.58,3.13-.81.24-.05.5-.03.75-.07.46-.08.91-.17,1.36-.28.18-.04.34-.16.52-.19.39-.08.79-.1,1.17-.21.22-.06.4-.24.6-.35.07-.04.21-.06.23-.03.13.2.3.11.44.08.68-.15,1.35-.27,2.06-.27.32,0,.66-.16.95-.3.57-.28,1.1-.62,1.67-.88.21-.1.5-.05.75-.05.75.01,1.18.44,1.41,1.12.13.38.31.76.37,1.15.14,1.03-.17,1.97-.79,2.77-.56.71-1.23,1.31-2.1,1.65-.35.14-.68.33-1.02.47-.29.12-.59.24-.9.29-.65.1-1.2.51-1.86.56-.75.06-1.49.23-2.24.22-.34,0-.68.04-1.01.04-.54,0-1.09-.02-1.63-.06-.23-.02-.46-.11-.69-.15-.12-.02-.24.02-.36.01-.46-.05-.93-.1-1.39-.17-.14-.02-.27-.15-.41-.21-.18-.08-.38-.13-.57-.2-.18-.06-.36-.15-.55-.19-.13-.03-.31-.04-.39.03-.22.18-.39.05-.55-.04-.13-.07-.21-.21-.32-.31.01-.02.03-.04.04-.06.1.04.21.08.31.12.01-.02.02-.04.03-.06-.08-.04-.16-.1-.25-.13ZM40.38,70.75c.26-.05.52-.06.78-.12.14-.04.25-.16.39-.23.27-.15.52-.34.87-.15.12.07.28.1.47-.02.15-.1.44,0,.66,0,.06,0,.13-.07.16-.13.05-.09.04-.25.1-.27.11-.05.26-.04.39-.02.04,0,.04.16.08.3.18-.01.36-.03.54-.04,0-.02,0-.05.01-.07l-.28-.11s.01-.03.02-.05c.16.05.32.11.49.16v-.1c.38-.06.81.06,1.05-.4.06.1.09.16.13.19.05.03.16.06.18.04.25-.32.62-.25.95-.28.06,0,.12.03.18.05.14.05.28.09.46.16-.01-.18-.02-.26-.02-.37.2.03.42-.2.57.14.02.06.24.04.41.06-.04-.13-.06-.21-.09-.3.04-.02.09-.07.14-.07.19,0,.39.03.58.02.1,0,.19-.07.29-.1.23-.08.4-.36.7-.18.03.02.13-.1.26-.2-.04.17-.07.27-.09.37-.04.17.02.25.2.2.14-.04.23-.1.41-.02.16.07.45-.06.65-.17.19-.11.32-.16.52-.03.15.09.35.1.52.14.13.03.26.06.4.09,0-.03,0-.07,0-.12.1.02.2.04.3.06.02-.03.03-.05.05-.08-.05-.02-.09-.03-.2-.07.36-.05.61,0,.81.21.05.05.15.09.22.09.3-.02.6-.13.89-.09.28.04.55.19.8.34.1.06.08.23-.1.28-.36.1-.72.2-1.08.31-.54.16-1.07.34-1.61.5-.04.01-.09.02-.12.05-.27.25-.41.26-.69.06-.04-.03-.1-.05-.15-.04-.17.04-.34.1-.49.21.15-.05.3-.1.44-.14-1.15.82-2.62.74-3.8,1.45-.01-.03-.02-.05-.03-.08.09-.04.18-.07.34-.13-.36-.1-.65-.18-.94-.26-.01.03-.02.05-.03.08.04.04.09.07.12.12.04.06.06.12.09.19-.09.01-.24.07-.28.03-.12-.14-.21-.08-.3.01-.12.13-.27.12-.43.14-.28.04-.63-.02-.82.31-.03.06-.13.1-.21.11-.39.08-.79.14-1.19.21-.47.08-.94.15-1.4.23-.88.16-1.76.35-2.64.49-.29.04-.59-.07-.89-.06-.41.01-.82.12-1.23.1-.89-.03-1.78-.11-2.67-.18-.16-.01-.31-.13-.46-.19-.06-.02-.12-.03-.18-.03-.61,0-1.21,0-1.82,0-.13,0-.25,0-.39,0,.06-.58.57-.57.93-.74.14-.07.28-.14.43-.2.13-.06.27-.1.4-.15.59-.21,1.18-.45,1.79-.63.51-.16,1.05-.26,1.57-.39.32-.08.63-.19.95-.27.32-.08.65-.13.97-.19ZM39.85,70.49l.7-.08s0,.06,0,.09c-.23.04-.46.08-.7.11,0-.04,0-.08-.01-.12ZM45.7,96.28c.43.25.87.48,1.18.87-.54-.1-.82-.54-1.18-.87ZM47.27,98.08c-.14-.06-.27-.11-.39-.16.11-.04.22-.09.33-.11.1-.02.21-.02.32-.03,0,.03.01.06.02.09-.1.07-.19.15-.27.21ZM47.95,89.36c.26.04.44.15.46.46.01.19.11.38.19.55.29.63.46,1.29.57,2.02.03.02.11.06.27.16-.11.03-.18.06-.22.07.23.23.43.42.63.62-.03.06-.1.12-.09.17.04.18.1.36.15.54-.03.01-.05.02-.08.03-.59-.79-1.19-1.59-1.78-2.38.05.29-.03.64.28.71.06.26.09.48.16.68.06.18.18.34.24.52.02.07-.04.17-.06.26.26.3.41.67.54,1.08.17.55.46,1.07.67,1.61.07.18.12.39.12.59,0,.5.19.95.38,1.39.18.44.37.88.53,1.33.06.18.03.4.04.62-.36-.16-.66-.28-.94-.44-.12-.07-.2-.21-.3-.32-.5-.53-1-1.06-1.49-1.61-.26-.29-.47-.63-.74-.92-.42-.45-.87-.87-1.3-1.3-.05-.05-.07-.14-.1-.21-.03-.05-.06-.11-.09-.16-.07-.02-.14-.06-.21-.12-.08-.07-.16-.15-.25-.23-.02-.01-.04-.03-.06-.04-.42-.3-.85-.61-1.3-.87l1.42,1.98c-.81-.15-6.24-5.51-6.53-6.48.22.18.41.34.6.5.08.07.15.16.24.2.18.07.35.16.51.26-.66-.69-1.26-1.44-1.8-2.19-.02-.02-.03-.05-.05-.07-.58-.71-1.18-1.41-1.73-2.14-.27-.35-.44-.78-.67-1.16-.08-.13-.17-.25-.26-.37-.11-.14-.22-.27-.34-.41-.96-.85-2.09-1.44-2.42-2.79-.12-.51.55-.87.9-.48.33.36.65.73.97,1.11,0,0,0-.01.01-.02.49.49,1,.99,1.52,1.49.02.02.03.05.06.06.42.23.85.44,1.25.7.2.13.39.3.54.49.16.2.31.35.59.39.16.02.32.13.46.24.81.64,1.72,1.13,2.69,1.47.42.15.7.45,1.07.63.76.38,1.54.72,2.32,1.06.78.35,1.6.59,2.44.72ZM42.63,83.73c.57.43,1.12.88,1.68,1.33.24.19.47.38.7.58.45.4.91.79,1.34,1.21.28.27.53.57.79.86.02.02.03.06.06.16-.18-.05-.31-.09-.44-.13-.76-.25-1.53-.45-2.26-.77-.7-.3-1.35-.73-2.03-1.09-.39-.2-.81-.35-1.19-.57-.41-.24-.77-.56-1.18-.8-.38-.22-.78-.4-1.16-.61-.11.02-.23.02-.35-.04-.99-.49-1.89-1.15-2.73-1.87-.76-.64-1.42-1.37-2.13-2.06-1.19-1.14-2.95-2.23-3.4-3.91-.07-.26.12-.59.39-.63,1.71-.25,3.18,1.23,4.3,2.32,1.11,1.08,2.43,1.99,3.43,3.17.16.07.28.13.4.19.87.48,1.69,1.01,2.43,1.69.41.37.91.63,1.36.97ZM60.82,76.79s0,.02-.01.03c-.2.75-.4,1.5-.62,2.25-.03.1-.14.18-.23.25-.06.05-.14.07-.19.16.09-.02.18-.03.26-.05,0,.01.01.02.02.03l-.26.15c.11.24.03.45-.22.6-.89.51-1.78,1.01-2.66,1.52-.05.03-.1.06-.15.06-.32-.03-.56.16-.83.27-.29.11-.63.12-.94.18-.61.11-1.22.22-1.82.35-.15.03-.29.14-.4.25-.11.11-.17.12-.3.03-.21-.15-.42-.2-.64,0-.05.05-.15.09-.22.09-.73-.07-1.45-.15-2.18-.23-.44-.05-.89-.1-1.33-.18-.05,0-.11-.03-.16-.04-.32-.02-.64-.05-.96-.13h0c-.7-.14-1.48-.29-2.24-.46-.53-.11-1.04-.28-1.57-.38-.86-.16-1.63-.56-2.41-.92-.76-.35-1.51-.77-2.15-1.29-.47-.38-.92-.8-1.44-1.13-.03-.02-.06-.04-.08-.07-.36-.59-.9-1.01-1.41-1.45-.16-.13-.36-.21-.54-.31-.1-.05-.2-.11-.35-.19.25-.15.44-.22.69-.12.23.09.47.14.71.21.04.01.07.01.11.03.45.18.9.34,1.34.54.25.12.59.26.68.48.23.56.78.46,1.17.68.22.12.49.13.73.22.22.08.44.18.64.29.83.43,1.67.8,2.61.94.39.05.71.01,1.09-.04.36-.05.76.15,1.14.24.44.11.88.23,1.33.33.22.05.45.11.67.14.44.06.88.11,1.32.14.46.03.91.02,1.37.04.16,0,.32.03.53.06-.13-.05-.23-.09-.34-.13v-.07c.25-.03.5-.05.75-.08.13-.02.27-.05.4-.07.27-.04.52-.14.8-.01.35.16.7-.04,1.04-.1.77-.13,1.51-.32,2.22-.67.52-.26,1.12-.37,1.68-.56.32-.11.64-.25.82-.58.02-.03.05-.05.08-.07.02-.01.05-.01.11-.03.01.11.03.2.04.32.24-.17.47-.33.7-.5.57-.43,1.06-.93,1.38-1.56.11-.2.15-.43.45-.44.17.39-.1.67-.24.98Z"/>
      <path class="cls-1" d="M36.27,21.82c.16.02.33.05.49.07.18-.09.38-.28.53-.25.26.07.32-.2.53-.2.14,0,.28-.08.41-.13.22-.08.44-.15.68-.07.11.03.25.02.36-.02.3-.11.59-.25.89-.35.09-.03.24-.02.3.04.32.3.47.88.36,1.32.15.42.27.84.61,1.14.44.38,1,.59,1.24,1.16.2.48.02.91-.11,1.38-.03.12-.06.24-.08.35.03-.06.07-.12.1-.18.06,0,.1.01.15,0,.39-.05.51.02.4.41-.09.35-.27.7-.5.98-.2.25-.23.5-.25.78,0,.13.01.25.02.38.03.46.01.92.09,1.37.09.5.53.62.95.36.21-.13.17-.29.21-.45.1-.4.23-.79.28-1.19.08-.69.08-1.39.17-2.08.07-.57.04-1.18.48-1.64-.02-.07-.04-.14-.03-.21,0-.07.02-.14.05-.2.02-.06.06-.12.12-.17.09-.1.19-.2.29-.3-.05-.12-.05-.23-.02-.36.04-.18.13-.35.24-.49.13-.16.27-.32.42-.45.1-.09.2-.17.3-.25.03-.07.05-.14.09-.2.18-.27.39-.52.55-.81.26-.48.52-.97.73-1.47.25-.59.43-1.21.66-1.8.59-1.53.88-3.14,1.04-4.76.01-.14-.03-.29,0-.43.12-.75.12-1.49.02-2.24-.09-.65-.15-1.29-.22-1.94,0-.07.03-.14.04-.18-.06-.08-.17-.19-.15-.22.14-.25-.01-.46-.08-.66-.26-.78-.58-1.54-.82-2.32-.24-.78-.65-1.48-.94-2.23-.07-.19-.32-.33-.15-.58.02-.02-.02-.09-.04-.13-.36-.55-.73-1.09-1.1-1.63-.09-.14-.21-.2-.34-.22-.02-.03-.05-.06-.08-.09,0,0,.02.01.03.02-.03-.02-.05-.05-.07-.08-.06-.09-.12-.19-.2-.27-.1-.1-.22-.18-.34-.26-.04-.03-.08-.05-.13-.06-.11-.03-.25,0-.33.08-.06.05-.09.11-.13.18-.06.1-.13.2-.2.29-.03.04-.07.08-.1.11-.05.05-.08.12-.09.19-.09.02-.16.08-.23.16-.33.44-.66.88-.98,1.33-.05.08-.04.2-.04.24-.11.09-.21.15-.27.23-.14.18-.27.37-.41.55-.28.38-.62.73-.83,1.15-.34.65-.59,1.35-.9,2.02-.32.68-.55,1.39-.73,2.12-.04.17-.14.33-.14.5,0,.3-.15.49-.36.67,0,0,0,.03,0,.05.07-.02.15-.03.17-.04-.03.1-.09.2-.09.29,0,.15.08.29.08.44-.01.38-.06.75-.08,1.12-.01.22-.02.44,0,.66.01.21.08.42.08.62-.04,1.49.37,2.89.74,4.31.23.89.65,1.73.68,2.68,0,.15.01.23-.16.29-.58.2-1.15.41-1.73.63-.15.06-.3.13-.45.2,0,.02.01.04.02.05h.34c-.12.1-.17.17-.22.17-.21-.01-.41-.05-.62-.07-.26-.03-.51-.08-.77-.08-.16,0-.2.1-.09.24.07.08.11.17.17.27-.18.03-.33.06-.48.08,0,.03,0,.06,0,.09ZM43.23,23.88c-.01.07-.44-1.04-.48-1.03-.07,0-.65-2.34-.7-2.67-.02-.15.07-.31.12-.47-.01,0-.02,0-.03,0-.01-.2-.05-.41-.03-.61.08-.82.16-1.64.27-2.46.04-.3.16-.6.28-.89.02-.06.18-.07.34-.12.15.52.31,1.02.42,1.52.05.21-.06.45-.03.67.08.58.03,1.16.02,1.75,0,.66-.05,1.33-.09,1.99-.02.24-.02,2.09-.07,2.33ZM44.86,23.87l-.38-.14s.03-.06.04-.09c.13.02.26.03.41.05-.01.04-.04.11-.06.18ZM40.38,15.7c-.06-.17-.03-.36-.04-.6-.04-.09-.15-.24-.17-.4-.09-.59-.19-1.17-.23-1.76-.04-.51-.04-1.03-.02-1.54.03-.68-.04-1.37.25-2.01.03-.06.03-.15.02-.21-.06-.36.06-.68.2-1.01.11-.25.2-.52.28-.78.13-.44.18-.92.38-1.33.39-.79.85-1.56,1.29-2.32.3-.51.54-1.07,1.11-1.36.4-.21.46-.61.58-.98.02-.07.03-.14.02-.2.02-.01.03-.02.05-.03.1-.1.2-.21.28-.33,0,0,.01-.02.02-.02.03.03.06.05.08.08.03.04.05.08.08.12.06.08.12.14.2.2.06.04.13.05.2.04.41.98.83,1.95,1.19,2.93.41,1.13.75,2.29,1.12,3.46-.05-.05-.1-.1-.16-.17,0,.07,0,.09,0,.12.18.53.45,1.05.53,1.59.14.89.73,1.7.49,2.66,0,.02,0,.04,0,.05-.01.22-.02.43-.04.65-.02.18-.06.36-.07.54-.03.47-.01.94-.09,1.4-.25,1.51-.58,3.01-1.25,4.4-.36.76-.72,1.52-1.08,2.28-.03.06-.1.15-.16.15-.24.01-.27.21-.31.36-.07.24-.08.49-.16.73-.11.36-.81,1.63-.54.27.04-.48.16-.97.11-1.44-.1-1.08,0-2.15-.09-3.23-.07-.83-.09-1.67-.29-2.49-.16-.64-.44-1.23-.88-1.72-.27-.31-.65-.39-.94-.21-.3.19-.48.47-.56.82-.07.31-.13.63-.25.93-.08.22-.25.41-.38.61.01.02.03.04.04.05.08-.03.16-.06.28-.11,0,.11.04.23,0,.3-.18.27-.09.57-.13.85,0,0-.03.01-.06.02-.04-.11-.07-.21-.1-.3-.07.07-.12.17-.19.18-.07,0-.19-.06-.22-.13-.16-.36-.32-.73-.44-1.1Z"/>
      <path class="cls-1" d="M31.99,23.33s.05-.02.08-.03c.32-.21.64-.42.96-.63,0-.03-.01-.05-.02-.08-.18,0-.35,0-.56,0,.05-.07.08-.12.14-.2-.14-.02-.3-.09-.36-.04-.18.14-.31.32-.6.3-.14,0-.29.16-.45.25.13.51.33.62.82.43Z"/>
      <path class="cls-1" d="M30.18,23.98c-.02-.12-.03-.22-.04-.33.2-.02.36-.04.52-.06-.03.12-.06.2-.09.34.13-.04.21-.07.28-.09-.26-.31.25-.25.17-.47-.08.03-.23.11-.25.09-.17-.21-.43-.12-.64-.19-.29-.09-.34-.05-.4.23-.38-.09-.52.29-.79.43.42.07.84.42,1.23.04ZM29.62,23.9c-.02-.05.07-.14.11-.22.03.01.05.03.08.04.02.1.04.21.07.41-.13-.11-.24-.15-.26-.23Z"/>
      <path class="cls-1" d="M26.76,26.09c.11-.07.26-.09.44-.14,0-.04,0-.16-.01-.26.12-.02.21-.04.31-.06-.11-.22.18-.14.21-.3,0-.01-.03-.03-.04-.05-.17-.3-.39-.35-.59-.07-.25.35-.45.73-.66,1.09,0,0,.01.03.05.12.11-.13.19-.26.3-.33Z"/>
      <path class="cls-1" d="M34.75,22.16c-.13.03-.26.07-.4.1.01.04.02.08.04.12.47-.09.95-.18,1.47-.27-.15-.14-.24-.21-.32-.3-.09-.09-.16-.2-.25-.29-.16-.15-.31-.12-.46.08.14.04.28.08.41.11-.19.16-.36.29-.52.42.01,0,.02.01.03.02Z"/>
      <path class="cls-1" d="M5.22,98.6c-.06.22-.05.39-.14.49-.24.28-.35.58-.29.99.07-.07.12-.13.18-.18.14-.17.27-.34.41-.51.09-.28-.18-.46-.15-.78Z"/>
      <path class="cls-1" d="M27.94,25.12c.08-.07.16-.14.24-.22,0-.03-.02-.06-.02-.09-.17.05-.34.1-.51.14,0,.03-.01.06-.02.09.11.05.21.11.32.16,0-.03-.01-.06-.02-.09Z"/>
      <path class="cls-1" d="M34.51,21.9s-.01-.06-.02-.09c-.19.04-.37.08-.56.11,0,.03,0,.07.01.1.19-.04.38-.09.57-.13Z"/>
      <path class="cls-1" d="M60.93,76.39s-.05-.02-.08-.03c-.25.18-.24.47-.26.75.07-.1.15-.2.22-.3,0,0,0-.02.01-.03.04-.13.07-.27.11-.4Z"/>
      <path class="cls-1" d="M51.87,66.56c.64.15.77.09.92-.37-.1-.02-.19-.04-.3-.07.06-.03.1-.06.19-.11l-.82-.03c.12.22.29.4.01.58Z"/>
      <path class="cls-1" d="M54.05,66.66c-.09-.2-.13-.34-.21-.44-.05-.07-.21-.14-.25-.11-.19.13-.36.3-.53.45,0,0,0,.03,0,.05l.98.04Z"/>
      <path class="cls-1" d="M23.27,84.06c.03-.17.17-.37-.09-.49.19-.21.36-.4.57-.64-.23-.09-.4-.15-.64-.24.05.16.11.28.13.4.01.08-.03.25-.06.25-.24.03-.25.21-.29.37-.05.2-.07.41-.11.63.22,0,.44-.01.49-.29Z"/>
      <path class="cls-1" d="M23.88,82.37c.17-.06.3-.1.43-.15-.04-.09-.08-.18-.12-.29,0,.01.02-.02.05-.08-.15,0-.27.03-.38,0-.28-.06-.34-.03-.41.24.13-.01.26-.03.41-.05,0,.05,0,.13.02.32Z"/>
      <path class="cls-1" d="M44.08,93.59s-.07-.08-.11-.11c-.04-.04-.07-.06-.11-.1-.09-.07-.2-.12-.35-.14-.1,0-.26-.15-.27-.24,0-.07-.03-.12-.05-.17-.19-.14-.38-.27-.57-.4-.1-.03-.17-.07-.21-.14-.06-.04-.13-.08-.19-.12-.03.02-.06.04-.09.06.08.12.11.2.16.25.45.44.88.9,1.35,1.31.2.17.5.22.75.32.02-.03.04-.07.05-.1-.08-.08-.18-.15-.25-.24-.04-.06-.09-.12-.13-.18Z"/>
    </g>
  </g>
</svg>