<?xml version="1.0" encoding="UTF-8"?>
<svg id="Layer_2" data-name="Layer 2" xmlns="http://www.w3.org/2000/svg" viewBox="0 0 69.68 84.05">
  <defs>
    <style>
      .cls-1 {
        fill: #000;
        stroke-width: 0px;
      }
    </style>
  </defs>
  <g id="illustrations">
    <g>
      <path class="cls-1" d="M69.58,53.28c-.14-.21-.26-.46-.55-.52-.04,0-.11-.05-.11-.08-.05-.38-.33-.54-.64-.65.09-.3-.2-.74-.54-.84-.36-.11-1.27.21-1.49.53-.01.02-.04.04-.03.05.07.2-.12.24-.21.35-.01.01-.02.03-.03.06.06.02.11.04.14.05-.13.23-.25.44-.41.72-.18.02-.44.04-.71.07v.06h.81c-.3.44-.58.84-.85,1.25-.04-.02-.08-.03-.12-.05,0-.13.02-.26.02-.39-.23-.05-.37-.24-.42-.48-.07-.3-.05-.63-.16-.91-.45-1.21-.93-2.4-1.39-3.6-.17-.46-.31-.93-.47-1.4-.09-.26-.15-.53-.27-.78-.13-.25-.34-.47-.25-.79,0-.03-.04-.09-.06-.13-.07-.12-.16-.23-.21-.35-.18-.43-.34-.87-.51-1.3-.09-.23.06-.43.29-.54.49-.22.94-.5,1.24-.97.64-1.01,1.27-2.03,1.92-3.03.35-.54.63-1.11.7-1.76.02-.16.01-.41-.09-.48-.31-.23-.59-.62-1.08-.39-.04-.09-.07-.17-.11-.23-.18-.22-.28-.56-.69-.46-.08.02-.24-.09-.3-.18-.11-.14-.17-.32-.25-.49-.09,0-.19,0-.28-.03-.21-.04-.36,0-.44.23-.04.12-.15.21-.22.31-.28.42-.58.83-.83,1.28-.51.91-.99,1.84-1.5,2.79-.03-.18-.03-.35-.09-.48-.21-.46-.47-.9-.67-1.36-.09-.22-.29-.44-.14-.67-.09-.14-.18-.26-.24-.39-.15-.35-.29-.71-.42-1.07-.12-.34-.21-.69-.33-1.03-.14-.4-.29-.79-.43-1.18-.07-.19-.3-.36-.05-.57-.3-.26-1.09-2.12-.99-2.32-.06-.05-.17-.11-.17-.14.06-.25-.1-.41-.2-.6-.03-.07,0-.17,0-.25,0-.07,0-.15-.03-.22-.07-.17-.17-.33-.23-.5-.07-.19-.09-.4-.17-.58-.1-.23-.23-.44-.34-.67-.11-.22-.23-.44-.35-.65-.09-.16-.29-.34-.26-.47.11-.46.15-.95.5-1.33.16-.17.27-.4.37-.62.16-.34.28-.7.44-1.04.23-.49.46-.98.71-1.46.42-.81.9-1.58,1.27-2.41.2-.44.47-.82.69-1.24.06-.11.06-.24.09-.39.2.05.18-.11.13-.28.08,0,.15.01.18.02.07-.18.12-.35.19-.5.26-.58.57-1.14.78-1.73.19-.52.21-1.1.51-1.59.23-.38.48-.76.73-1.13.05-.08.22-.16.21-.17-.16-.29.13-.38.23-.55.25-.42.5-.84.75-1.26.24-.41.53-.81.71-1.25.37-.9.93-1.72,1.11-2.7.07-.38.22-.75.33-1.13.18-.61.35-1.23.53-1.84.09-.31.26-.6.3-.91.04-.32.31-.53.29-.86-.02-.27.09-.55.07-.82-.03-.38-.44-.5-.64-.78-.16-.22-.35-.37-.17-.64-.46-.49-.85-.54-1.2-.16-.04-.05-.09-.1-.14-.15-.17.16-.33.31-.5.45-.24.21-.47.15-.67-.22-.17.39-.31.78-.83.64.05.35-.09.55-.36.64-.52.18-.69.71-1.09,1.01-.02.02-.03.05-.04.08-.05.11-.08.24-.16.32-.34.34-.7.66-1.04.99-.17.17-.32.37-.52.6,0,0,.03.09,0,.14-.21.34-.48.63-.69.98-.36.57-.86,1.05-1.3,1.56-.45.53-.88,1.07-1.34,1.58-.69.75-.78,1.77-1.28,2.61-.16.26-.25.57-.38.85-.25.51-.52,1.01-.77,1.52-.16.34-.3.69-.47,1.03-.18.35-.38.7-.57,1.05-.09.18-.18.36-.26.55-.04.08-.05.18-.07.27-.11.15-.2.32-.29.49-.04.09-.06.19-.11.27-.2.4-.4.79-.6,1.18-.13.26-.26.52-.42.76-.36.54-.78,1.05-1.11,1.61-.11.19-.19.37-.46.4.31.36.08.59-.13.83-.11.14-.23.28-.31.43-.21.4-.41.82-.61,1.23-.02.04-.07.08-.1.09-.31.04-.63.07-.94.12-.41.06-.82.11-1.22.2-.84.2-1.68.43-2.52.65-.46.12-.91.23-1.36.38-.59.19-1.15.47-1.75.59-.81.16-1.64.21-2.48.32.14-.34.24-.67.39-.97.29-.58.44-1.19.5-1.83.06-.63-.16-.88-.81-.88-.31,0-.53-.09-.57-.43-.22.07-.29,0-.25-.23-.19.06-.38.1-.56.17-.29.11-.65,0-.78-.23-.18-.33-.4-.34-.58,0-.17.32-.29.67-.43,1.01-.03.06-.06.15-.03.2.12.23-.04.37-.13.54-.07.12-.15.24-.2.36-.46,1.04-.93,2.09-1.38,3.13-.06.15-.06.33-.11.48-.03.1-.08.24-.16.28-.38.17-.76.34-1.15.46-.72.22-1.45.39-2.17.6-.68.2-1.35.47-2.04.66-1.13.32-2.28.61-3.42.91-.93.24-1.85.48-2.78.7-.42.1-.86.15-1.29.23l-.04-.1c.17-.2.34-.41.5-.61.24-.29.46-.59.7-.87.27-.31.55-.61.82-.93.19-.22.35-.46.55-.67.12-.13.13-.22,0-.34-.09-.08-.24-.19-.23-.29.02-.34-.2-.45-.45-.56-.18-.08-.51.03-.45-.35,0,0-.06-.02-.08-.04-.29-.3-.59-.17-.89-.03-.11.05-.25.16-.35.13-.19-.06-.37-.19-.55-.29-.02.02-.03.05-.05.07.02-.05.04-.09.06-.14-.15,0-.3.04-.36.13-.18.27-.3.58-.48.86-.46.71-.92,1.42-1.4,2.12-.44.64-.9,1.26-1.34,1.89-.01.01.01.05.02.1.09-.04.16-.07.3-.12-.06.09-.08.14-.1.15-.35.11-.48.43-.51.72-.03.23-.16.31-.3.36-.35.12-.73.19-1.09.3-.59.17-1.17.36-1.76.52-.91.25-1.83.49-2.73.74-.34.1-.66.25-1.01.35-.92.26-1.84.52-2.76.76-.59.16-1.15.47-1.78.44-.06.12-.1.26-.19.36-.09.09-.23.14-.37.21.27.25.03.39-.1.52-.46.47-.94.92-1.31,1.47-.49.72-.78,1.51-.84,2.39,0,.12-.03.25-.1.34.02.02.04.04.06.06-.02-.02-.02-.03.03.03.01,0,.02.02.04.03.04.03.08.06.12.08.07.05.15.09.23.13.03.02.07.03.11.05.02,0,.04.01.05.02.07.03.15.05.23.07.16-.22.39-.33.82-.35.51-.03,1.01-.07,1.52-.13.78-.09,1.56-.21,2.34-.31.86-.11,1.73-.2,2.59-.29.12-.01.24,0,.39,0-.03.19-.03.32-.08.43-.2.41-.14.8.04,1.19.05.1.2.21.31.22.11,0,.29-.09.32-.18.2-.6.59-1.07,1.03-1.49.11-.11.28-.18.43-.21.38-.07.76-.12,1.14-.16.81-.09,1.62-.16,2.5-.25-.13.24-.2.42-.32.56-.39.49-.46,1.07-.47,1.67,0,.27.08.52.31.67.1.06.29.06.39,0,.1-.07.16-.23.21-.35.2-.47.38-.95.61-1.41.14-.29.13-.71.6-.76-.1-.03-.18-.01-.24-.05-.07-.04-.12-.12-.18-.18.07-.03.14-.08.22-.08.16-.01.33,0,.49,0,.61,0,1.22,0,1.82,0,.69,0,1.37,0,2.11,0-.37.49-.7.89-.98,1.32-.27.42-.54.85-.46,1.4.04.29.21.41.49.3.07-.03.15-.07.2-.13.27-.33.54-.66.81-.99.07-.08.1-.19.16-.28.04-.08.08-.17.14-.23.15-.16.32-.3.48-.45-.03-.03-.05-.05-.08-.08-.1.11-.21.22-.31.33-.03-.1,0-.17.03-.23.1-.21.19-.44.33-.63.1-.14.26-.28.41-.32.34-.07.7-.08,1.04-.11.14-.01.27,0,.41-.02.28-.02.56-.06.84-.08.38-.04.75-.07,1.14-.1-.01.05-.02.1-.04.14-.27.68-.55,1.35-.81,2.04-.05.14-.05.32,0,.46.07.2.41.18.61.05.25-.16.41-.52.81-.37.09-.19.17-.37.26-.55-.01,0-.03-.02-.04-.03l-.25.28s-.06-.03-.08-.05c.38-.58.6-1.22.69-1.93.08.12.14.2.19.28l.07-.05s-.07-.09-.14-.18c.33-.06.62-.14.9-.16.54-.04,1.08-.04,1.62-.05.22,0,.44,0,.66-.04.28-.05.55-.11.74.13.11-.02.2-.04.28-.04,0,0,.04.11.03.12-.06.05-.14.08-.21.12-.06.04-.14.09-.16.15-.13.37-.24.75-.38,1.11-.11.29-.09.55.06.88.21-.08.43-.12.59-.24.31-.24.53-.55.6-.95.02-.09.05-.23.11-.25.27-.09.14-.21.07-.3.11-.19.2-.37.33-.52.08-.1.22-.22.33-.21.8.06,1.59.15,2.38.23.21.02.42.1.61-.08.04-.04.15-.02.21,0,.31.11.62.23.92.34-.15.53-.31,1.1-.48,1.66-.08.27-.22.52-.29.79-.08.31-.08.64-.17.95-.2.71-.45,1.41-.66,2.12-.24.8-.43,1.62-.71,2.4-.14.41-.4.78-.63,1.16-.27.44-.56.87-.85,1.3-.26.39-.52.78-.78,1.17.05,0,.1,0,.21-.01-1.05,1.62-2.08,3.21-3.11,4.79,0,0,.02.02.03.03.1-.07.19-.13.29-.2-.18.38-.42.73-.66,1.07-.08.12-.18.23-.25.36-.12.24-.22.48-.33.72h.11c-.15.26-.3.51-.44.77-.09.17-.18.33-.34.27,0,.09.02.19-.02.25-.17.25-.37.49-.58.77.1-.03.17-.06.25-.08-.14.18-.29.33-.39.51-.08.14-.18.25-.33.28-.01,0-.02.03-.04.06.06.05.13.11.23.19-.19.26-.38.5-.54.75-.09.13-.14.29-.19.45-.06.17-.08.36-.32.37-.02,0-.03.05-.05.07.06.06.13.11.17.15-.31.46-.61.91-.92,1.36,0,0,.05.03.14.09-.16.15-.29.29-.43.43.02.01.09.04.18.09-.2.28-.39.54-.58.81-.03.04-.05.08-.05.13,0,.22-.13.38-.27.53-.1.1-.18.22-.31.38.14-.06.23-.09.31-.13-.06.12-.16.19-.26.25-.1.07-.19.14-.34.25h.25s.02.05.03.08c-.29.12-.57.27-.87.36-.96.28-1.94.51-2.9.8-.97.29-1.92.62-2.87.97-.7.26-1.47.3-2.1.75-.12.08-.26.14-.4.18-.36.1-.73.16-1.08.29-.53.19-1.04.42-1.56.63-.74.3-1.49.58-2.23.88-.43.17-.86.35-1.27.57-.2.11-.44.3-.48.49-.05.27-.18.4-.43.57h.28c-.06.14-.1.27-.17.37-.14.22-.27.45-.44.65-.23.26-.5.49-.73.74-.09.1-.13.2.07.29.22.1.44.21.56.41.26-.02.52-.03.78-.03.05-.03.1-.05.14-.06.29-.04.59-.03.88-.03.13,0,.26.01.4.02,0,.01,0,.02,0,.03.29-.09.59-.18.88-.27.01.03.02.06.03.1-.07.03-.13.05-.2.08.29,0,.57-.04.85-.09.46-.08.92-.23,1.38-.25.64-.04,1.28,0,1.92,0,.15,0,.31.01.46-.02.18-.04.34-.17.51-.2.25-.04.53.02.76-.06.44-.13.87-.23,1.32-.23.41,0,.82-.03,1.23-.06.2-.01.4-.06.6-.09,0-.03,0-.05-.01-.08-.11-.01-.22-.02-.33-.03.39-.13.79-.19,1.2-.24.07,0,.14.03.21.04-.03.07-.05.14-.1.2-.25.37-.52.74-.76,1.12-.09.13-.13.29-.21.44-.11.19-.28.37-.32.57-.03.14.07.37.19.46.17.13.4.1.56-.09.08-.09.14-.19.21-.28.15-.17.58-.22.77-.13-.07-.12-.13-.24-.21-.39.11-.08.23-.16.35-.24l-.07-.04c.06-.12.1-.27.19-.36.3-.32.61-.63.95-.92.09-.07.35-.08.4-.02.27.33.49.7.73,1.04.23.33.47.65.7.98.16.23.33.47.46.72.2.4.34.82.56,1.21.19.34.47.64.68.98.17.28.5.4.59.79.07.35.39.65.58.98.5.85,1.05,1.65,1.98,2.09.32.15,1.11-.06,1.25-.38.02-.04,0-.1,0-.14,0-.1,0-.19-.01-.29-.48-2-.71-4.05-1.08-6.08-.07-.17-.14-.33-.2-.5-.1-.26-.18-.54-.27-.8-.04-.12-.14-.25-.11-.35.07-.23.02-.38-.1-.43-.05-.19-.07-.32-.12-.43-.09-.2-.25-.39-.27-.59-.02-.25-.31-.45-.15-.73,0-.02-.07-.08-.11-.12-.03-.03-.08-.06-.09-.1-.12-.33-.2-.68-.35-1-.15-.32-.35-.62-.56-.9-.14-.19-.21-.34.05-.5-.07-.04-.12-.07-.16-.09-.06-.02-.12-.04-.22-.07.17-.19.32-.35.46-.5-.09-.44.4-.57.49-1,.07.17.11.24.14.32.09,0,.17-.01.31-.03-.11.15-.18.26-.31.42.31-.21.57-.34.78-.53,1.08-.97,2.15-1.94,2.91-3.21.87-1.45,1.96-2.75,2.96-4.12.49-.67,1.05-1.31,1.39-2.1.09-.21.32-.37.49-.56-.08-.03-.12-.05-.09-.04.2-.24.41-.48.61-.73.2-.24.39-.49.58-.74l-.07-.06c-.14.08-.27.16-.41.24-.02-.03-.03-.06-.05-.08.21-.13.41-.26.62-.38.1-.06.21-.1.29-.18.11-.11.19-.24.27-.37.02-.02.03-.05.04-.07-.07-.03-.13-.06-.17-.07.15-.13.31-.24.43-.38.13-.16.22-.35.33-.52-.03,0-.1-.02-.25-.06.16-.1.27-.18.39-.25,0-.06-.02-.15.02-.21.2-.38.41-.76.63-1.12.38-.62.88-1.16,1.25-1.79.1-.17.22-.32.33-.48.16-.21.32-.43.49-.63.15-.17.38-.31.14-.62.41.01.53-.28.67-.52.08-.13.11-.29.19-.42.2-.34.39-.68.62-1,.36-.5.74-.99,1.14-1.46.47-.55,1.28-.67,1.67-1.33,0,0,.02-.01.03-.01.37,0,.46-.28.64-.53.33-.46.76-.84,1.13-1.25.14.09.3.2.48.32,0-.09,0-.15,0-.2.02,0,.04-.02.07-.03.21.3.41.6.61.88-.31.26-.6.46-.82.72-.8.95-1.38,2.01-1.73,3.21-.04.13.01.35.1.43.07.06.28-.03.42-.07.06-.02.12-.08.15-.13.28-.4.57-.81.84-1.22.27-.41.49-.85.77-1.25.24-.34.53-.65.84-1.02.29.23.59.46.88.71.44.38.88.75,1.31,1.15.15.14.25.33.34.52.13.26-.05.47-.18.67-.41.62-.8,1.25-1.06,1.95-.09.25-.16.51-.19.77-.01.11.08.3.17.33.12.05.35.03.42-.05.31-.36.58-.75.86-1.14.14-.21.25-.44.38-.66.09-.16.2-.32.26-.5.11-.34.3-.45.55-.26.24.18.47.38.68.59.43.45.85.91,1.24,1.39.47.59,1.05,1.09,1.4,1.78.15.3.4.55.62.81.21.25.45.47.67.71-.05.04-.1.07-.1.07.19.3.35.58.53.85.12.19.25.37.41.53.25.25.53.46.78.71.16.16.38.33.25.6-.08.19-.2.36-.31.53-.34.51-.63,1.04-.78,1.65-.09.36.07.6.23.87.02.03.17.01.2-.03.11-.13.21-.28.29-.44.29-.52.58-1.04.87-1.57.11,0,.23-.01.36-.02.06.09.12.18.18.28-.07.02-.12.04-.17.05,0,.02,0,.05,0,.07.1,0,.21.01.31.02,0-.03.01-.05.02-.08.07.15.14.29.21.44h-.31s0,.05,0,.07c.14.05.29.1.44.15-.05.11-.08.18-.14.32.45-.02.6.3.76.61.09.16.14.35.25.49.23.31.49.6.71.92.16.22.33.45.39.7.06.25.08.49.39.61-.09.04-.13.05-.15.06.2.15.42.3.68.48-.17.09-.24.12-.27.14.15.2.29.39.43.59.03.05,0,.15.05.19.56.47.69,1.19,1.06,1.77.18.28.3.58.48.86.29.45.6.88.9,1.32.19.28.33.61.57.84.28.27.62.47.94.7.06,0,.11,0,.13-.02-.07,0-.08.01-.04,0,.02,0,.03,0,.05,0,.05,0,.09-.02.14-.04.04-.01.1-.02.13-.05-.06.03-.07.03-.02,0,.01,0,.02-.01.03-.02.09-.04.17-.09.26-.14.07-.05.14-.09.21-.15.01,0,.02-.02.03-.02,0,0,0,0,.02-.01.04-.03.08-.06.11-.09.06-.05.13-.09.21-.11,0,0,0-.01,0-.02.03-.1.11-.19.17-.29.29-.49.58-.98.87-1.48.04-.07.07-.14.09-.21.11-.47.21-.95.31-1.42.03-.13.1-.3.05-.37-.26-.31-.03-.68-.15-1.01-.07-.19-.01-.43-.01-.63-.06-.06-.15-.1-.18-.17-.04-.12-.06-.25-.06-.37,0-.11.02-.23.02-.34,0-.09-.02-.19-.07-.26-.08-.12-.28-.27-.26-.33.12-.29-.13-.45-.2-.66-.01-.04-.04-.07-.06-.1-.19-.52-.39-1.03-.57-1.55-.19-.56-.38-1.11-.56-1.67-.02-.06-.02-.16.02-.21.21-.28.42-.55.64-.82.29-.36.46-.8.82-1.13.53-.49.88-1.12,1.24-1.74.1-.17.14-.38.26-.52.19-.22.16-.42.03-.62ZM61.98,41.33s.07.05.11.08c-.14.2-.28.4-.42.6-.04-.02-.07-.05-.11-.07.14-.2.28-.4.42-.61ZM54.8,25.23c-.06-.3.26-.88.53-1.05-.07.41-.31.69-.53,1.05ZM33.91,24.81l.1.03-.34,1.09s-.09-.03-.13-.05l.38-1.08ZM19.14,28.94s.08.06.13.09c-.27.38-.54.76-.81,1.14l-.09-.07c.26-.39.52-.77.78-1.16ZM16.85,31.06s.06.05.09.07c-.18.2-.35.41-.53.61-.03-.02-.06-.05-.09-.07.18-.2.35-.41.53-.61ZM34.66,39.1c-.86-.16-1.72-.34-2.61-.34-.23,0-.47-.07-.7-.12-.03,0-.08-.05-.07-.07,0-.04.04-.1.07-.1.28-.06.29-.32.42-.5.09-.12.22-.21.33-.31.11-.09.23-.17.34-.27.01-.01-.05-.15-.08-.16-.19-.02-.43-.09-.55,0-.27.19-.48.46-.7.71-.2.22-.37.47-.57.68-.18.19-.39.24-.64.12-.1-.05-.23-.06-.34-.06-.99.06-1.99.14-2.98.21-.13,0-.27,0-.48,0,.25-.44.52-.8.66-1.21.12-.35.55-.59.38-1.04-.01-.03.05-.11.09-.14.39-.3.78-.58.98-1.07.13-.32.4-.59.6-.88.09-.12.16-.26.27-.37.52-.56,1.04-1.12,1.58-1.66.09-.09.29-.09.5-.14-.06-.11-.1-.34-.22-.4-.19-.09-.36.04-.52.21-.2.21-.51.32-.74.51-.67.55-1.2,1.22-1.7,1.92-.25.35-.53.67-.8,1-.15.2-.3.4-.44.61-.11.16-.19.34-.32.49-.11.13-.28.21-.13.41.01.02-.07.1-.11.15-.2.26-.42.49-.58.77-.12.21-.15.48-.21.69-.7.11-1.36.24-2.03.32-.47.06-.95.07-1.42.05-.19,0-.37-.16-.6-.27.28-.43.56-.83.82-1.24.04-.06,0-.17.04-.24.16-.29.3-.6.51-.85.44-.52.84-1.07,1.16-1.69.13-.25.35-.44.52-.67.03-.04.06-.1.08-.15.06-.1.1-.28.17-.29.41-.08.45-.5.71-.72.24-.21.37-.54.2-.92-.39,0-.68.21-.9.51-.28.37-.56.75-.82,1.13-.19.27-.37.55-.55.83-.37.55-.76,1.09-1.11,1.65-.23.37-.36.8-.6,1.16-.36.55-.78,1.07-1.19,1.59-.04.05-.16.05-.25.06-.98.04-1.95.09-2.93.12-.54.02-1.07,0-1.6,0-.06-.5.35-.86.32-1.38.19-.16.25-.42.33-.73.09-.34.17-.77.61-.97-.06-.04-.1-.07-.2-.13.14-.07.27-.1.35-.19.16-.17.29-.36.42-.55.12-.17.2-.36.34-.51.15-.16.22-.32.07-.48-.15-.16-.36-.29-.57-.14-.19.13-.45.33-.46.51-.01.25-.15.33-.26.5-.32.5-.6,1.03-.88,1.56-.1.19-.15.4-.21.6-.01.04.06.09.06.09-.16.31-.31.59-.45.88-.05.11-.08.22-.11.34-.08.28-.19.44-.55.48-1.32.12-2.63.29-3.94.45-.36.04-.73.19-1.07.14-.89-.13-1.72.13-2.58.23-1.01.12-2.02.26-3.03.38-.73.09-1.46.16-2.19.22-.32.02-.39-.13-.3-.44.05-.18,0-.38-.01-.59.1.16.19.14.27-.07.09-.25.19-.5.33-.72.14-.23.34-.42.51-.63.01-.01.05-.02.05-.03.02-.4.47-.51.57-.87.08-.3.37-.43.78-.43-.08-.05-.14-.1-.29-.19.32-.1.56-.17.81-.24.52-.14,1.04-.29,1.57-.42.92-.23,1.86-.43,2.78-.68,1.03-.28,2.04-.59,3.06-.9.57-.17,1.14-.38,1.71-.51.41-.1.84-.09,1.25-.16.45-.08.9-.2,1.35-.3.13-.03.27-.05.4-.1.54-.19,1.07-.4,1.63-.53,1.44-.34,2.87-.76,4.3-1.12.71-.18,1.45-.26,2.16-.44.73-.18,1.49-.27,2.15-.68.06-.04.12-.08.19-.09.75-.06,1.4-.5,2.15-.59.48-.06.98-.14,1.43-.32.42-.17.86-.15,1.28-.26.43-.11.89-.12,1.33-.21.25-.05.49-.2.74-.26.36-.08.73-.11,1.08-.19.54-.13,1.07-.28,1.6-.43.13-.03.27-.04.39-.1.14-.07.31-.15.39-.27.22-.33.51-.49.9-.52.35-.03.69-.09,1.03-.16.09-.02.15-.16.24-.23.05-.04.15-.11.18-.09.44.3.81.01,1.28-.11-.12-.05-.17-.07-.21-.09.2-.24.47-.21.74-.25.51-.07,1-.22,1.5-.35.6-.15,1.2-.31,1.8-.48.3-.09.59-.22.88-.32.38-.12.76-.15,1.17-.06-.2.26-.4.49-.55.75-.25.44-.45.9-.68,1.34-.12.24-.29.45-.41.69-.27.5-.51,1.01-.78,1.51-.16.3-.35.59-.51.9-.14.28-.25.57-.4.84-.3.57-.61,1.14-.93,1.72.05.03.11.06.19.1-.03.03-.04.06-.06.07-.36.18-.54.5-.7.85-.05.12-.11.23-.17.35-.09.19-.17.37-.26.56-.06.12-.13.24-.21.35-.16.23-.34.46-.5.69-.03.04-.09.08-.08.11.1.43-.29.64-.45.94-.29.55-.61,1.08-.96,1.59-.12.19-.19.36-.25.58-.11.37-.34.7-.51,1.05-.04.09-.05.2-.08.36-.36-.45-.87-.44-1.31-.61-.09-.03-.14-.16-.22-.21-.16-.09-.33-.19-.5-.22-.58-.1-1.17-.14-1.75-.25ZM35.7,42.71c.2-.56.37-1.14.55-1.71.07-.22.11-.45.18-.74.41.09.83.16,1.23.26.05.01.12.2.08.26-.4.71-.82,1.4-1.22,2.12-.21.38-.37.79-.58,1.18-.17.31-.39.59-.58.89-.05.08-.13.18-.11.26.04.26-.17.37-.31.5-.04.04-.18-.01-.34-.03.37-1,.74-1.99,1.1-2.99ZM22.5,69.34c.05-.21,0-.44,0-.68.21-.11.46-.25.76-.41-.24.69-.58,1.26-1.04,1.76.09-.22.22-.43.27-.66ZM16.94,73.59s-.01-.05-.02-.07c.29-.11.58-.21.87-.32.02.06.04.12.05.18-.3.07-.6.14-.9.21ZM20.2,70.75c-.09.11-.21.23-.03.37.23.18.18.4.07.61-.22.43-.58.68-1.02.85-.21.08-.4.22-.61.32-.11.05-.26.12-.37.09-.35-.1-.17.16-.22.34-.09-.13-.14-.22-.23-.36-.65.19-1.3.4-1.97.58-.72.19-1.45.34-2.17.5-.23.05-.47.07-.69.16-.88.35-1.82.42-2.75.53-1.21.15-2.42.3-3.71.46.33-.39.63-.75.94-1.11.04-.05.11-.08.17-.11.13-.06.1-.1.27-.24.14-.12.32-.26.56-.19.11.03.25,0,.36-.05.51-.21,1-.46,1.52-.66.93-.35,1.87-.68,2.81-1.02.86-.32,1.7-.67,2.56-.97.5-.17,1.02-.27,1.53-.41.25-.07.53-.11.74-.25.8-.5,1.7-.73,2.59-.99.25-.07.51-.12.77-.18.03.02.05.04.08.06-.12.22-.21.46-.36.66-.27.35-.57.68-.85,1.02ZM24.32,72.72c.16.58.31,1.17.5,1.75.27.83.58,1.65.87,2.48.26.74.55,1.48.75,2.23.21.77.38,1.55.5,2.34.07.44,0,.9-.01,1.35l-.15.05c-.23-.22-.61-.42-.65-.68-.09-.57-.44-.98-.7-1.44-.27-.49-.66-.91-.96-1.38-.15-.23-.24-.5-.36-.74-.28-.56-.56-1.12-.87-1.67-.33-.59-.64-1.2-1.03-1.75-.31-.44-.72-.82-1.1-1.24.3-.37.77-.61,1.23-.84.23-.12.35-.26.41-.52.06-.27.23-.52.4-.75.19-.25.42-.47.67-.73.19.31.33.61.37.97.02.19.1.38.15.56ZM24.67,65.43c-.33.68-.66,1.36-.99,2.05-.14.3-.3-.03-.44.05-.02-.02-.05-.04-.07-.06.21-.4.42-.79.63-1.19.18-.35.36-.69.53-1.04.34-.71.66-1.42,1.01-2.13.5-1.01,1-2.01,1.51-3.01.1-.19.21-.37.32-.56.03.01.06.02.08.03-.21.53-.41,1.07-.63,1.6-.35.82-.7,1.65-1.07,2.46-.28.61-.59,1.2-.88,1.8ZM25.91,68.64c-.21-.07-.35-.11-.5-.16.32-.46.58-.99.99-1.38.36-.35.63-.77.97-1.12.13-.14.18-.35.29-.51.15-.22.3-.43.47-.63.46-.54.93-1.07,1.4-1.6.08-.09.21-.13.31-.21.08-.07.15-.16.22-.23.11-.1.23-.2.34-.3-1.31,2.23-2.98,4.16-4.5,6.13ZM41.65,45.82c-.07.13-.13.26-.22.38-.05.08-.13.14-.23.24-.1-.28-.05-.42.14-.52.06-.03.08-.14.13-.19.05-.05.12-.09.19-.12.01,0,.07.05.07.07-.02.05-.06.09-.09.14ZM41.66,45.19c.19-.15.34-.27.5-.39.02.02.03.05.05.07-.15.13-.15.47-.55.31ZM42.32,44.45c-.23-.28-.17-.39.36-.63-.12.2-.23.4-.36.63ZM45.07,39.47c-.26.36-.61.67-.83,1.05-.1.17-.18.34-.31.5-.12.14-.21.3-.32.46.19-.03.36-.05.48-.07-.21.19-.51.36-.65.61-.13.23-.29.28-.48.39-.23.13-.38.42-.54.64-.16.21-.27.45-.44.66-.14.17-.24.3-.22.58.01.22-.24.46-.4.68-.11.15-.27.27-.38.41-.17.2-.33.41-.48.63-.24.34-.46.69-.69,1.05.05.01.13.03.2.04-.24.24-.47.48-.75.76.16.04.24.07.32.09-.5.09-.62.52-.83.86.14-.12.27-.25.41-.37h.08c-.01.1,0,.22-.04.25-.14.09-.25.29-.47.14.02.26-.03.46-.32.55-.09.03-.15.16-.25.28.12.04.19.06.26.09-.12.37.21.12.31.26-.14.16-.27.39-.47.52-.19.13-.44.16-.66.24.01.04.03.07.04.11l.53-.21s.03.03.04.04c-.11.09-.2.22-.32.27-.13.05-.29.03-.44.04,0,.03,0,.06,0,.09.17.02.34.05.58.08-.19.17-.34.3-.48.43.06,0,.15,0,.27.02-.12.18-.21.33-.31.47-.1.14-.2.16-.32,0-.03-.04-.2-.04-.2-.03-.06.15-.09.31-.15.51.1-.02.22-.03.34-.05.02.02.05.05.07.07-.29.29-.58.58-.87.87-.03-.03-.07-.06-.1-.08l.1-.21s-.04-.02-.06-.03c-.08.14-.16.29-.25.46.07.03.14.06.2.09-.33.51-.63,1.02-.97,1.5-.43.6-.89,1.18-1.34,1.77-.18.23-.34.48-.51.72-.42.61-.82,1.23-1.26,1.81-.45.6-.98,1.14-1.67,1.48-.09.04-.15.14-.21.22-.08.1-.14.24-.23.32-.76.64-1.56,1.24-2.3,1.91-.38.35-.69.79-1.01,1.2-.33.44-.63.9-.94,1.36-.05.07-.08.16-.12.24l-.09-.08c.11-.29.21-.59.33-.87.15-.33.35-.64.49-.98.19-.45.42-.9.49-1.37.05-.37.27-.61.42-.9.11-.22.18-.47.26-.71.22-.62.44-1.24.66-1.86.23-.65.46-1.3.82-1.87.3-.46.47-.96.66-1.45.07-.18.25-.31.38-.46-.04-.04-.09-.08-.13-.12-.03.1-.06.2-.1.29-.03-.02-.05-.03-.08-.05.07-.17.09-.42.22-.5.37-.22.44-.62.68-.91.08-.09.17-.17.25-.26.07-.08.14-.16.17-.29l-.2.12c.38-.62.7-1.27,1.23-1.85,0-.01-.02-.13.02-.2.25-.39.52-.77.76-1.17.24-.38.45-.78.69-1.17.13-.21.26-.42.4-.61.34-.46.67-.91,1.02-1.36.32-.41.68-.8.97-1.23.37-.56.68-1.15,1.02-1.72.24-.42.47-.85.73-1.26.26-.43.53-.85.81-1.27.11-.16.24-.31.39-.49-.11-.26-.07-.34.3-.41.16-.03.33-.06.49-.09.01,0,.02-.03.05-.05-.11-.12-.24-.23-.34-.37-.04-.06-.08-.2-.05-.21.23-.16.33-.39.41-.63.02-.05.15-.06.26-.1-.05-.11-.1-.2-.15-.3.1-.09.22-.16.3-.26.06-.07.07-.18.13-.27.09-.14.2-.27.29-.42.08-.14.12-.31.22-.45.22-.32.35-.66.46-1.03.08-.27.32-.49.46-.74.06-.11.04-.27.07-.4.11-.42.48-.65.72-.97.04-.05.02-.15.03-.23l-.07-.02c.13-.09.27-.16.39-.26.1-.08.22-.15.13-.34-.03-.07.09-.27.18-.32.28-.13.36-.38.46-.63.07-.16.18-.31.33-.54-.04-.24-.02-.26.49-.37-.08-.05-.15-.08-.16-.12-.03-.07-.06-.19-.02-.22.21-.16.35-.35.5-.59.21-.34.36-.69.55-1.04.01-.03.03-.07.04-.07.47-.09.47-.56.67-.85.53-.78,1.02-1.58,1.48-2.4.37-.65.67-1.35,1.02-2.01.18-.33.41-.64.59-.97.08-.15.24-.32.11-.53-.02-.03,0-.1.04-.13.3-.29.56-.58.68-1,.05-.17.33-.21.33-.47.01-.41.26-.71.53-1,.15-.16.27-.4.28-.61.02-.27.25-.39.32-.61.11-.31.25-.62.35-.93.08-.22.06-.41-.22-.52-.29-.11-.32-.32-.17-.58.06-.1.06-.24.08-.37.01-.06.01-.13.05-.16.33-.27.48-.63.6-1.04.09-.32.29-.62.46-.92.04-.06.16-.08.26-.13-.13-.46.33-.51.56-.74-.08-.31.04-.62.26-.78.32-.23.4-.57.56-.88.2-.38.31-.81.5-1.2.14-.29.33-.56.5-.83.3-.47.59-.94.89-1.41.23-.37.44-.76.71-1.12.27-.37.59-.7.9-1.05.19-.21.32-.48.64-.58.14-.04.21-.31.33-.46.13-.16.24-.36.41-.46.42-.24.57-.71.91-1.01.27-.23.53-.47.8-.71.17-.35.42-.64.71-.91.32-.3.68-.57,1.05-.8.32-.19.67-.38,1.03-.46.4-.09.85-.05,1.09.32.23.36.14.83,0,1.21-.05.14-.14.24-.25.3-.15.41-.28.84-.45,1.24-.35.82-.75,1.63-1.11,2.44-.11.25-.17.52-.27.77-.11.28-.22.55-.35.81-.36.79-.71,1.58-1.09,2.35-.34.7-.76,1.36-1.08,2.07-.24.52-.36,1.1-.56,1.64-.07.19-.24.35-.33.54-.24.51-.43,1.06-.7,1.55-.35.62-.78,1.18-1.16,1.79-.19.3-.34.63-.51.95-.06.12-.1.2-.29.14-.28-.09-.92.36-1.04.63-.14.32-.31.62-.47.92-.47.89-.96,1.78-1.42,2.68-.15.3-.24.64-.36.96-.39,1.01-.95,1.94-1.63,2.78-.02.02-.03.05-.05.08.17.17.1.37-.05.44-.46.21-.56.67-.76,1.05-.23.43-.42.89-.67,1.31-.15.25-.09.46-.03.7-.03-.05-.07-.11-.11-.18-.23.14-.37.33-.38.61,0,.08-.08.17-.14.23-.1.11-.22.2-.33.3.02.02.03.04.05.06.13-.1.27-.2.4-.29.02.02.04.03.06.05-.13.2-.21.47-.39.59-.34.24-.41.61-.59.93-.39.71-.75,1.45-1.13,2.17-.15.29-.34.57-.51.85-.12.19-.31.29-.42.51-.14.28-.19.67-.55.82.03.39-.44.47-.49.75-.07.36-.32.58-.5.84ZM39,49.39c-.22.13-.4.23-.57.34,0-.28.16-.39.57-.34ZM53.42,27.39h.32c-.24.36-.45.7-.68,1.02-.03.05-.15.04-.22.06-.02-.03-.05-.06-.07-.09.13-.15.26-.31.39-.45.08-.09.19-.15.25-.25.04-.06,0-.16,0-.29ZM50.91,29.38s-.05-.03-.08-.04c.12-.2.24-.4.35-.61.1.31-.06.49-.28.65ZM66.54,61.38c.16.48.36.95.51,1.44.1.32.16.66.23.99.07.33.17.66.19,1,.05.83.07,1.64-.41,2.41-.38.61-.57,1.32-.65,2.04,0,.04-.02.09-.04.18-.35-.46-.76-.84-.96-1.31-.17-.39-.46-.62-.7-.92-.13-.17-.22-.3-.13-.42-.2-.25-.39-.45-.53-.68-.4-.65-.77-1.32-1.15-1.98-.36-.62-.77-1.21-1.06-1.86-.24-.53-.63-.95-.92-1.45-.35-.59-.72-1.18-1.13-1.73-.4-.54-.87-1.03-1.31-1.55-.06-.07-.07-.19-.1-.29-.04-.15-.07-.29-.12-.49.27-.31.48-.7.59-1.14.07-.28.21-.55.31-.83.09-.24.19-.48.18-.75,0-.15.13-.29.19-.45.1-.25.18-.51.27-.76.02-.06.02-.12.06-.17.14-.17.07-.27-.12-.34.01-.04.02-.07.03-.09.05-.08.13-.15.14-.23,0-.04-.12-.15-.15-.14-.09.04-.18.11-.24.18-.61.75-.78,1.69-1.12,2.55-.21.54-.43,1.07-.66,1.64-.43-.36-.74-.79-1.02-1.24-.09-.14-.22-.26-.31-.4-.21-.32-.4-.65-.61-.97-.16-.24-.34-.47-.52-.71-.29-.38-.59-.75-.87-1.14-.04-.05,0-.24.06-.27.45-.19.58-.62.78-.99.32-.6.61-1.21.88-1.82.16-.36.31-.73.4-1.11.17-.65.59-1.17.89-1.75.08-.16.24-.32.05-.49-.13-.12-.47-.03-.63.15.06,0,.11.01.19.02-.19.25-.36.49-.53.7,0,.06.02.17-.02.2-.44.37-.63.87-.76,1.4-.03.13-.13.24-.2.38.07,0,.14.01.2.02,0,.03,0,.06,0,.06-.49.19-.55.68-.74,1.07-.13.27-.27.55-.38.83-.14.32-.26.65-.38.98-.01.04.1.11.09.16-.01.07-.08.12-.15.2-.41-.43-.82-.85-1.22-1.27-.55-.57-1.11-1.14-1.65-1.72-.14-.15-.24-.34-.35-.52-.02-.03-.02-.1,0-.13.18-.27.36-.53.54-.79.03-.04.09-.06.1-.1.13-.61.54-1.04.97-1.47.06-.06.1-.15.15-.22.12-.17.24-.34.39-.54-.01-.07-.04-.21-.06-.36-.28-.02-.54-.04-.71.33-.11.24-.36.41-.53.62-.08.1-.15.22-.23.32-.29.39-.58.77-.86,1.16-.04.06-.04.16-.06.31-.01,0-.05.02-.07.05-.16.37-.4.23-.58.05-.33-.32-.62-.67-.93-1-.17-.18-.36-.34-.55-.51-.23-.2-.47-.4-.7-.59-.04-.03-.11-.06-.11-.09,0-.37-.31-.46-.53-.61-.46-.31-.94-.58-1.4-.87-.12-.08-.22-.19-.31-.31-.03-.04-.02-.15.01-.2.28-.58.58-1.15.84-1.73.16-.36.25-.76.41-1.12.14-.32.43-.59.49-.92.07-.41.53-.65.43-1.11,0-.04.06-.11.11-.15.11-.09.29-.15.11-.35-.02-.03.12-.2.2-.27.07-.1.13-.22.22-.3.14-.12.25-.21.24-.45,0-.2.21-.4.33-.61.21-.38.41-.77.62-1.16.33-.61.66-1.22.98-1.84.35-.69.67-1.39,1.02-2.08.19-.39.41-.76.63-1.13.09-.15.24-.25.32-.4.05-.1.03-.24,0-.36-.04-.26.47,0,.35-.36.53-.34.7-.94,1.09-1.36.52,1.55,1.07,3.08,1.56,4.62.48,1.52,1.17,2.97,1.53,4.46.1.22.19.38.26.55.2.46.42.92.57,1.4.18.57.28,1.18.48,1.74.12.34.24.73.66.87.21.07.28.21.21.44-.05.15-.04.32-.06.54.1.08.37-.08.31.25-.02.14.15.3.2.46.11.38.17.77.3,1.14.16.43.36.84.57,1.25.13.26.24.5.28.82.05.38.34.72.48,1.09.13.34.21.69.32,1.04.11.35.22.71.36,1.05.16.41.37.8.53,1.21.13.33.2.68.32,1.01.11.3.25.59.35.89.04.11.03.25.04.41.01,0,.1.04.12.1.13.4.25.8.38,1.2.1.3.19.61.32.9.23.53.5,1.05.73,1.59.16.38.25.78.39,1.16.37.97.76,1.93,1.15,2.9.08.2.21.39.28.59.03.08-.04.21-.01.29Z"/>
      <path class="cls-1" d="M30.79,51.6c-.29.52-.59,1.05-.88,1.57-.03-.02-.06-.03-.08-.05.31-.51.53-1.08.97-1.51,0,0,0,0,0,0Z"/>
      <path class="cls-1" d="M24.53,70.55s.02,0,.02,0c.05-.29.28-.4.5-.51l.06.07c-.19.14-.39.28-.58.43Z"/>
    </g>
  </g>
</svg>