<?xml version="1.0" encoding="UTF-8"?>
<svg id="Layer_2" data-name="Layer 2" xmlns="http://www.w3.org/2000/svg" viewBox="0 0 76.99 125.22">
  <defs>
    <style>
      .cls-1 {
        fill: #000;
        stroke-width: 0px;
      }
    </style>
  </defs>
  <g id="illustrations">
    <g>
      <polygon class="cls-1" points="24.79 33.65 24.79 33.66 24.79 33.65 24.79 33.65"/>
      <path class="cls-1" d="M71.46,49.21s-.03.02-.05.03c-.56.3-1.11.6-1.67.89-.21.11-.44.21-.64.34-.38.26-.72.58-1.21.63-.02,0-.03.02-.05.02-.44.23-.88.46-1.31.7-.39.22-.78.44-1.18.67.1.06.14.09.25.16-.23.01-.43-.04-.53.04-.33.25-.63.55-.94.82-.27.23-.45.57-.82.68-.03,0-.06.05-.08.07-.33.46-.72.87-.97,1.39-.1.22-.32.38-.49.56-.49.51-.98,1.01-1.46,1.52-.12.13-.19.31-.31.44-.29.31-.6.6-.9.9-.04.04-.05.1-.07.17.42-.11.67-.37.91-.67.27-.34.57-.64.87-.95.41-.43.85-.83,1.24-1.27.46-.52.88-1.09,1.33-1.62.17-.21.38-.38.57-.57.23-.23.46-.46.68-.71.1-.11.17-.25.27-.41,0,0,.1.06.15.03.3-.18.6-.38.89-.57.02-.01-.01-.12,0-.12.45-.23.94-.4,1.35-.68.48-.33,1.04-.31,1.54-.52.04-.02.1.02.15.04-.13.15-.26.27-.37.4-.49.6-.96,1.23-1.49,1.79-.52.56-.91,1.26-1.7,1.62.14.1.23.16.35.25-.24.08-.46.16-.68.24,0,.03.01.06.02.09.08.03.16.07.28.11-.08.06-.12.11-.17.14-.17.09-.34.15-.5.25-.07.05-.11.15-.17.22.09.04.18.08.24.11-.06.05-.16.13-.24.21-.75.69-1.51,1.36-2.24,2.07-.26.25-.44.59-.67.88-.56.7-1.13,1.4-1.7,2.09-.85,1.04-1.7,2.08-2.54,3.13-.3.37-.55.78-.85,1.14-.29.35-.47.77-.74,1.14-.33.46-.71.91-.98,1.44-.2.4-.49.8-.85,1.14-.34.31-.57.74-.85,1.11-.15.19-.3.38-.45.58-.03-.01-.06-.03-.09-.04.1-.26.21-.52.31-.77.23-.55.45-1.1.69-1.64.16-.36.38-.69.52-1.06.07-.19.29-.45-.03-.64-.02,0-.01-.05-.02-.09.08-.04.16-.09.27-.14v.25s.05.02.08.03c.2-.35.39-.7.59-1.05,0,0,0,0,0,0,.15-.23.29-.47.48-.76-.19.05-.31.08-.45.12.07.04.12.06.16.09v.09c-.12,0-.22-.02-.36-.03,0,0-.03.03-.06.07-.02-.01-.04-.03-.06-.04.07-.13.14-.26.22-.39.12-.19.24-.36.21-.63-.02-.16.15-.34.25-.5.21-.35.45-.68.65-1.04.21-.38.38-.77.58-1.15.13-.24.3-.46.42-.71.14-.28.23-.58.38-.86.24-.45.56-.86.75-1.32.18-.42.32-.84.65-1.17.16-.16.29-.36.4-.56.41-.71.88-1.38,1.44-1.98-.05-.01-.09-.02-.14-.03-.02-.03-.04-.06-.06-.09.28-.24.58-.45.84-.71.48-.49.92-1.01,1.39-1.52.31-.33.63-.66.96-.97.17-.15.39-.26.58-.38.12-.08.31-.12.36-.23.17-.32.43-.28.7-.26.07,0,.13.02.2.02,0-.03,0-.07.01-.1-.26-.02-.52-.05-.85-.08.06-.09.1-.18.17-.23.13-.09.28-.15.4-.25.39-.28.77-.58,1.25-.73.41-.13.45-.18.65-.55-.44.16-.85.29-1.26.46-.16.06-.28.2-.41.32-.18.16-.35.34-.54.49-.26.2-.55.36-.81.56-.3.24-.58.5-.87.75-.08.07-.17.13-.25.21-.49.51-.99,1.01-1.48,1.53-.43.46-.9.9-1.26,1.42-.57.82-1.27,1.54-1.69,2.47-.14.3-.41.54-.61.79.06,0,.16-.01.3-.02-.09.08-.15.12-.19.17-.18.22-.44.41-.52.66-.12.37-.29.67-.54.97-.19.23-.21.59-.57.71.09.06.14.09.15.09-.1.18-.19.34-.28.51-.16.29-.31.59-.49.88-.25.4-.32.87-.59,1.27-.27.41-.44.9-.64,1.36-.24.54-.48,1.09-.72,1.63-.46,1.02-.92,2.04-1.38,3.07-.3.67-.6,1.34-.9,2.02-.11.25-.26.51-.29.78-.06.6-.39,1.08-.69,1.55-.22.34-.55.62-.77.96-.53.83-1.01,1.69-1.36,2.63-.28.76-.61,1.5-.92,2.25-.14.34-.26.67-.4,1.03.03.02.08.07.11.11-.11.08-.28.16-.28.24,0,.29-.13.54-.21.8-.06.17-.07.36-.1.54-.1.12-.19.26-.25.41-.1.23-.19.47-.28.71.03.01.1.05.17.08,0,.03-.01.06-.02.08l-.27-.04s0-.03.01-.05c-.09.04-.18.09-.3.15.01-.12.02-.18.03-.32-.21.28-.09.73-.58.73.06-.29.13-.56.16-.83.1-.71.18-1.42.26-2.13.01-.11.02-.22.03-.33.04-.25.11-.51.11-.76-.01-.27.1-.52.08-.8-.03-.42.09-.86.17-1.29.03-.15.12-.29.14-.44.1-.63.17-1.27.27-1.9.04-.24.1-.49.22-.7.11-.22.17-.41.11-.65-.04-.19-.07-.39-.06-.58.01-.24.1-.48.12-.72.03-.4.04-.81.07-1.21.01-.19.06-.37.1-.59.03-.01.09-.04.23-.09-.41-.06-.25-.3-.24-.47.03-.62.06-1.24.13-1.86.06-.5.2-.99.3-1.49.01-.07,0-.15-.01-.23-.02,0-.05,0-.07,0l-.17.87s-.07-.01-.11-.02c0-.38,0-.76,0-1.14,0-.14-.02-.33.05-.4.16-.16.29-.25-.02-.36-.02,0-.04-.11-.02-.15.19-.33,0-.68.04-1.01.02-.13.02-.26,0-.39-.11-.41-.24-.81-.36-1.21-.05-.17-.1-.35-.14-.53-.04-.14-.02-.31-.11-.4-.16-.17-.14-.35-.13-.55.01-.15.03-.3,0-.44-.11-.44-.24-.88-.38-1.34.06-.02.12-.04.23-.08-.09-.1-.17-.18-.24-.26-.08-.08-.18-.15-.22-.25-.02-.05.09-.14.1-.16-.02-.22-.04-.38-.05-.55-.02-.19-.01-.39-.05-.57-.06-.29,0-.64-.35-.81-.03-.01-.04-.06-.05-.1-.05-.28-.09-.55-.14-.83,0-.03,0-.08-.01-.1-.13-.22-.26-.43-.4-.66.21-.13.23-.22.05-.37-.34-.27-.63-.56-.72-1.05-.1-.58-.31-1.15-.51-1.71-.24-.69-.6-1.32-1.1-1.87-.23-.25-.44-.51-.65-.77.02,0,.04,0,.06-.01-.33-.76-.66-1.52-.95-2.19-.46-.52-.86-1.01-1.29-1.46-.44-.46-.93-.88-1.39-1.33.46-.48.65-.52,1.21-.16.43.27.82.6,1.22.92.21.18.4.39.59.6.09.11.15.25.23.37.2.25.48.47.34.86,0,.02,0,.06.01.08.24.2.01.27-.1.39-.05.05-.11.12-.12.19-.03.25.2.42.49.41.12,0,.26.01.36.07.48.3.95.62,1.42.94.26.18.51.37.77.55.41.28.82.55,1.24.82.16.1.33.21.51.27.61.21,1.23.42,1.85.61.34.1.68.19,1.03.22.48.04.97.03,1.46,0,.31-.01.63-.05.94-.1.26-.04.52-.13.79-.17.27-.04.57.04.75-.25.03-.05.13-.06.2-.09.41-.18.88-.22,1.23-.56.1-.1.25-.16.39-.19.32-.07.65-.08.96-.16.2-.05.37-.22.58-.26,1.18-.26,2.36-.51,3.49-.95.63-.25,1.27-.45,1.89-.71.47-.2.86-.52,1.18-.93.3-.38.7-.69.96-1.09.55-.84,1.04-1.71,1.56-2.57.11-.19.54-.47.69-.44-.01.04-.02.08-.05.15.1-.01.19-.03.21-.03.06-.14.09-.24.14-.31.05-.07.14-.11.22-.17-.01-.02-.03-.05-.04-.07-.05,0-.11,0-.16,0-.4-.04-.48-.15-.36-.53.09-.31.21-.62.29-.93.03-.13-.04-.29,0-.4.28-.71.55-1.41.87-2.1.22-.47.57-.88.77-1.35.24-.59.55-1.11.97-1.59.26-.31.47-.68.61-1.06.11-.29.08-.63.1-.95,0-.19.07-.27.27-.25.13.01.27-.02.33-.02.12-.32.21-.57.32-.82.06-.13.06-.21-.08-.3-.12-.08-.25-.2-.29-.33-.08-.3-.12-.6-.5-.66-.04,0-.1-.04-.11-.08-.15-.39-.49-.35-.77-.3-.63.11-1.26.2-1.89.06-.43-.09-.91,0-1.25-.38-.04-.05-.16-.05-.24-.03-.42.11-.83.23-1.24.35-.25.07-.52.21-.77.19-.78-.06-1.54.07-2.27.27-.73.2-1.42.53-2.11.84-.93.4-1.84.82-2.76,1.25-.6.28-1.16.65-1.82.77-.03,0-.07.03-.1.05-.38.26-.74.54-1.14.77-.34.19-.71.32-1.07.47-.02-.03-.04-.06-.06-.09.07-.08.14-.16.21-.24.5-.55,1.03-1.09,1.51-1.66.38-.45.7-.94,1.05-1.42.65-.89,1.31-1.77,1.94-2.67.57-.83,1.11-1.69,1.66-2.53.34-.51.66-1.03,1.02-1.53.37-.52.82-.98,1.16-1.52.38-.6.88-1.12,1.13-1.81.28-.8.59-1.58.69-2.43.02-.18.12-.35.14-.52.06-.44.09-.89.16-1.34.04-.28.14-.55.17-.83.04-.46.04-.92.08-1.38.02-.2.19-.39,0-.59-.02-.02,0-.07.01-.11.03-.33.07-.66.08-.99.01-.3,0-.6,0-.92-.04-.06-.13-.15-.16-.25-.07-.24-.15-.49-.15-.74,0-.56-.1-1.14.11-1.69.04-.1.04-.22.03-.33-.04-.42-.09-.85-.12-1.27-.01-.21-.11-.33-.28-.41-.3-.14-.5-.47-.89-.41-.02,0-.05,0,0,0-.08.15-.14.27-.2.38-.17-.17-.31.06-.47.04-.38-.04-.51.25-.53.54-.01.22-.14.28-.33.28-.22,0-.25-.13-.25-.32,0-.2,0-.41-.06-.61-.02-.08-.17-.14-.28-.17-.04-.01-.15.04-.16.09-.26.81-.57,1.62-.35,2.47.15.05.29.12.4.22.17.15.33.16.46-.03.17-.25.33-.51.48-.77.09-.14.22-.29.24-.44.06-.47.35-.65.75-.74.46-.1.48-.07.49.41,0,.5.04,1.01.06,1.51,0,.23.03.46.03.7,0,.37-.04.74,0,1.1.04.47.17.94.19,1.41.02.51-.01,1.03-.09,1.54-.18,1.22-.22,2.44-.22,3.66,0,.09,0,.19-.02.28-.09.42-.19.84-.28,1.25-.03.13-.03.27-.09.38-.26.48-.52.97-.82,1.43-.51.79-1.05,1.56-1.59,2.34-.5.71-.9,1.48-1.49,2.14-.92,1.05-1.76,2.16-2.64,3.25-.36.44-.72.88-1.06,1.33-.2.27-.36.57-.57.83-.31.39-.65.75-.98,1.12-.21.25-.41.51-.63.75-.22.24-.48.44-.71.67-.41.41-.65.95-1.18,1.26-.23.13-.41.38-.63.54-.35.27-.72.51-1.07.77-.47.33-.92.71-1.41,1-.7.4-1.43.74-2.15,1.11-.08.04-.17.06-.26.07-.19.02-.39.01-.58.03-.37.03-.74.07-1.1.1.65-.72,1.36-1.35,1.98-2.05.62-.71,1.16-1.51,1.73-2.27-.06-.03-.1-.05-.2-.1h.43c-.18-.39.26-.21.34-.39h-.29c.75-.9,1.5-1.8,2.24-2.71-.05-.01-.11-.02-.19-.04.36-.29.47-.81.98-.9-.07,0-.13,0-.2-.01.11-.18.22-.34.32-.51.15-.25.29-.51.43-.77.16-.31.28-.64.44-.94.18-.33.41-.64.59-.97.13-.24.21-.5.31-.75.25-.61.52-1.21.76-1.82.13-.32.16-.69.34-.96.21-.33.29-.64.26-1.01,0-.09.22-.66.27-.77.07-.15.15-.31.16-.47.02-.34,0-.68,0-1.02,0-.06.03-.13.07-.16.21-.18.24-.35.09-.57.06-.01.17,0,.18-.04.09-.27.18-.54.25-.82.04-.17.02-.36.06-.54.06-.36.14-.71.21-1.07,0-.03.01-.07.02-.11-.08,0-.14,0-.25.01.06-.23.13-.43.17-.64.03-.16-.03-.33.02-.48.07-.21.22-.4.08-.64-.02-.03,0-.13.03-.15.19-.13.07-.24-.01-.35-.1-.13-.23-.18-.39-.07.03.22.06.43.08.58-.05.19-.12.34-.12.49,0,.16.07.31.09.39-.09.15-.18.25-.2.36-.03.14,0,.28.02.42,0,.07.06.13.08.2.02.05.04.12.03.17-.11.43-.2.87-.34,1.3-.09.29-.26.56-.34.85-.12.49-.11,1.02-.4,1.47-.14.21-.21.47-.27.72-.06.25-.08.52-.12.8-.2.17-.31.46-.35.74-.08.58-.17,1.16-.44,1.68-.33.63-.57,1.31-.97,1.9-.08.12-.05.31-.12.45-.08.16-.22.28-.31.43-.67,1.19-1.33,2.39-2.01,3.57-.04.08-.2.16-.27.13-.22-.08-.28.06-.37.17.01.03.02.05.03.08.16-.04.33-.09.57-.15-.4.47-.74.88-1.08,1.28-.03.04-.11.03-.21.06-.18.22-.38.5-.61.77-.1.11-.22.1-.29-.05-.07-.13-.13-.27-.2-.41-.24.12-.47.23-.58.52-.06.16-.23.28-.35.41-.17.18-.36.33-.5.52-.11.15-.28.33-.05.54.05.04.04.21,0,.29-.16.33-.32.67-.53.97-.28.4-.6.77-.91,1.15-.07.08-.17.2-.25.2-.22,0-.45-.01-.66-.08-.26-.09-.49-.04-.65.13-.27.26-.51.06-.79.07.16-.21.28-.37.42-.56-.26-.07-.44-.12-.61-.18-.24-.08-.77.11-.89.33-.02.05-.01.12,0,.18.09.43.03.65-.53.75-.21.04-.42.06-.55.3-.06.11-.23.21-.36.24-.27.06-.56.09-.84.09-.16,0-.32-.07-.46-.15-.34-.19-.63-.46-1.06-.52-.16-.02-.32-.23-.44-.39-.09-.12-.13-.28-.19-.42.62-.3,1.27-.21,1.76.22.17.15.4.16.57,0,.15-.15.29-.31.43-.47.24-.28.22-.45-.05-.72-.25-.25-.47-.53-.7-.8.02-.03.05-.06.07-.09.24.11.49.21.73.32.03.01.04.07.05.12.05.32.18.39.48.27.18-.07.36-.14.56-.22-.01-.1-.03-.22-.04-.35-.11-.21-.21-.42-.29-.67-.11-.34,0-.49.27-.64-.11-.11-.19-.18-.27-.25l.07.05c.18-.23.36-.46.58-.73-.21-.47-.43-.97-.65-1.46.13-.03.23-.05.32-.08,0-.02,0-.05,0-.07-.12-.04-.25-.09-.43-.15.31-.17.21-.38.17-.61-.03-.13.05-.29.08-.43.02,0,.05,0,.07,0-.03-.08-.07-.17-.1-.25.07-.06.13-.11.17-.14-.07-.08-.12-.15-.18-.21-.05-.05-.1-.11-.16-.13-.19-.05-.43-.02-.58-.12-.33-.22-.64-.15-.97-.06-.45.12-.47.16-.23.55.19.31.39.62.08.98-.08.1-.16.19-.25.3.08.13.17.28.26.44.07.14.12.28-.04.4-.11.09-.23.17-.32.24-.37-.33-.73-.66-1.04-.94.08-.16.21-.29.2-.41-.02-.15-.15-.28-.23-.43.05-.02.11-.05.23-.1-.18-.19-.32-.39-.5-.54-.31-.25-.65-.47-.97-.7.1-.16.15-.27.15-.38,0-.13-.07-.26-.08-.4-.02-.23.01-.47-.01-.7-.07-.69-.16-1.37-.25-2.06-.1-.76-.2-1.53-.05-2.3,0-.05-.07-.1-.09-.16-.08-.25-.15-.51-.21-.76,0-.03.04-.08.08-.1.21-.17.18-.42-.07-.54-.06-.03-.1-.08-.21-.17h.42c.04-.12.1-.22.1-.32.01-.32,0-.64.01-.96,0-.27.04-.54.04-.8,0-.36.03-.72,0-1.08-.07-.63.25-1.22.08-1.87-.1-.38-.08-.8-.24-1.17-.05-.12-.07-.26-.07-.38,0-.52,0-1.03-.19-1.53-.1-.26-.19-.54-.18-.81,0-.22-.04-.36-.18-.51-.05-.06-.09-.19-.06-.26.1-.21,0-.3-.18-.38.07-.05.13-.1.16-.13-.05-.38.02-.71.18-1.01.02-.05.08-.1.07-.14-.1-.33.06-.62.13-.93.05-.2,0-.42-.02-.67.06-.09.16-.23.24-.38.18-.35.35-.7.51-1.06.13-.29.19-.64.37-.89.46-.64.76-1.4,1.35-1.96.23-.22.41-.5.63-.73.22-.23.52-.4.68-.67.14-.23.35-.4.5-.62.31-.44.69-.83,1.02-1.26.27-.34.53-.36.82-.04.08.08.14.18.19.28.2.42.4.83.57,1.26.13.31.47.51.66.44.36-.13.44.14.59.26.24.21.3.23.43-.07.14-.32.18-.71.39-.95.25-.28.05-.72.42-.92.02,0-.01-.09,0-.13.02-.07.06-.13.1-.19.07-.13.14-.27.21-.4.15-.29.09-.73.56-.84-.08-.02-.16-.03-.24-.05.02-.25.11-.33.34-.18-.31-.31.17-.49.08-.77.13-.09.26-.17.42-.2.18-.04.77.15.7.15.11.27.16.51.29.71.17.27.41.51.59.78.16.25.44.43.7.35.42-.14.79-.02,1.16.18.15.08.32.11.48.19.17.08.37.16.5.29.51.5.84,1.12.96,1.81.15.82.29,1.65.3,2.47,0,.8.3,1.6.03,2.41,0,.02,0,.04,0,.06-.03.42-.05.85-.1,1.27-.09.64-.22,1.28-.31,1.92-.13.93-.39,1.82-.72,2.69-.06.15-.05.32-.1.48-.31.9-.64,1.79-.92,2.7-.24.77-.42,1.56-.61,2.35-.1.44-.16.9-.24,1.34-.11.56-.24,1.11-.34,1.68-.12.69-.19,1.39-.51,2.03-.13.26-.24.56-.27.84-.02.28-.16.5-.25.74-.13.35-.37.65-.55.99-.04.07,0,.19,0,.28-.02,0-.09-.02-.1,0-.2.4-.41.8-.6,1.21-.14.3-.23.63-.37.93-.08.17-.21.31-.3.47-.32.56-.62,1.12-.94,1.68-.03.04-.11.06-.17.08,0-.07,0-.15.03-.19.27-.34.2-1.01-.1-1.3-.22-.21-.4-.05-.61,0-.12.03-.26,0-.37-.05-.12-.05-.22-.15-.33-.23.15-.07.07-.19-.07-.24-.37-.15-.76-.29-1.14-.42-.42-.14-.5-.1-.77.28-.09.12-.16.26-.23.38.27.35.27.35.73.58.06.03.12.1.13.16.03.15.06.31.03.45-.07.31.1.43.34.51.42.14.75.8.66,1.26-.2-.48-.4-.93-.91-1.16,0,.08-.02.13-.02.18.02.42.04.84.08,1.26.02.22-.09.33-.25.42-.06.04-.14.06-.2.09-.18.08-.25.21-.11.37.11.13.24.25.38.38-.13.1-.15.22.01.37.25.23.47.49.69.75.19.21.43.24.65.13.31-.16.62-.34.89-.57.28-.24.46-.56.52-.95.03-.2.1-.4.2-.57.2-.36.43-.71.63-1.06.12-.22.38-.37.34-.67,0-.03.09-.06.09-.09.02-.17.33-.34.06-.48.13-.2.28-.38.39-.59.18-.32.34-.66.51-.99.09-.18.15-.37.24-.55.06-.12.16-.21.23-.33.06-.11.1-.23.15-.34.13-.45.31-.87.67-1.23-.13-.03-.23-.05-.37-.09.21-.06.38-.11.62-.17-.16-.09-.24-.14-.37-.22.18-.03.29-.04.45-.07-.1-.07-.15-.11-.21-.15.27-.14.53-.25.55-.62,0-.16.1-.33.16-.49.11-.27.23-.54.34-.81.19-.48.37-.97.56-1.45.07-.17.18-.32.22-.49.1-.48.17-.96.23-1.44.04-.29.05-.58.05-.87,0-.17-.1-.35-.07-.51.07-.39.25-.76.25-1.15,0-.28.09-.43.29-.55-.05-.12-.1-.22-.15-.33.45-.04.04-.24.15-.34.06-.22.12-.44.19-.71.01,0,.09-.04.1-.05,0-.17,0-.3.02-.41.15-.49.3-.98.47-1.47.19-.56.39-1.12.59-1.68.19-.53.39-1.05.56-1.58.15-.5.27-1.02.39-1.53.02-.09-.02-.2-.04-.3.02,0,.03.01.05.02.15-.88.3-1.76.45-2.66.03,0,.12-.02.26-.05-.22-.11-.4-.21-.14-.36-.03-.11-.11-.24-.08-.27.2-.2.4-.45.65-.57.5-.22.99-.19,1.52-.04.02,0,.04,0,.05,0,.3-.02.59-.03.93-.05-.1-.07-.17-.12-.28-.2.23-.11.26-.24.11-.43-.08-.09-.13-.24-.12-.36,0-.13.07-.37.13-.38.39-.05.77-.11,1.17.1.63.34.95.88,1.19,1.5.07.19.14.38.22.61.08.1.16.21.22.33.06.12.11.24.15.36.1.04.18.1.24.18.07.1.09.23.13.35l.08.03c.03-.08.09-.16.09-.24,0-.11,0-.23-.06-.33-.06-.12-.05-.2,0-.28-.05-.03-.09-.07-.12-.12-.1-.17-.17-.34-.22-.52-.13-.32-.25-.6-.36-.89-.21-.55-.49-1.07-.97-1.41-.28-.2-.59-.39-.91-.45-.71-.13-1.33.18-1.94.52-.11.06-.23.11-.34.16-.02.01-.04.03-.06.05h.25c-.03.11-.05.2-.07.28.06.06.12.11.21.2-.78.19-1.64.08-2.18.89,0-.38,0-.66,0-.95,0-.14.03-.29.02-.43-.03-.25-.09-.5-.15-.75-.02-.08-.1-.19-.16-.19-.24-.02-.31-.16-.37-.37-.09-.32-.2-.65-.36-.94-.13-.25-.32-.47-.51-.69-.18-.22-.39-.41-.59-.61-.13-.13-.29-.23-.39-.38-.2-.32-.4-.66-.77-.78-.33-.11-.69-.11-1.03-.16,0,.01,0,.03,0,.04.07.05.13.1.2.16-.32.3-.44.29-.72.02-.18-.18-.29-.37-.3-.63,0-.09-.1-.25-.16-.26-.13-.01-.7-.68-.94-.71-.25-.03-.51-.02-.76,0-.49.07-.85.37-1.19.71-.07.04-.11.11-.14.21-.11.32-.24.65-.41.94-.12.21-.25.41-.39.61-.06.16-.11.32-.16.48-.04.16-.18.27-.34.3-.01.03-.03.06-.04.09-.02-.01-.05-.02-.07-.03,0-.02.01-.04.02-.06-.01,0-.02,0-.04,0-.21-.03-.37-.21-.37-.42,0-.03,0-.05,0-.08-.04-.13-.07-.26-.12-.39,0,0,0,0,0-.01,0,0,0-.01-.02-.03-.02-.03-.04-.07-.06-.1-.05-.07-.09-.14-.14-.21-.09-.12-.16-.22-.26-.34-.05-.06-.11-.11-.16-.17,0,0,0,0,0-.01,0,0,0,0-.01,0-.02-.01-.04-.02-.06-.04,0,0-.04-.02-.05-.02-.02,0-.05-.02-.05-.02-.06-.02-.12-.04-.19-.05-.05-.01-.1-.02-.16-.03-.01,0-.04,0-.04,0-.03,0-.06,0-.09,0-.14-.01-.28-.03-.42-.03-.06,0-.12,0-.17,0-.29.07-.57.17-.83.34-.35.22-.66.48-.83.88.05.02.1.03.15.05-.1.07-.19.14-.27.21-.76.61-1.27,1.44-1.91,2.17-.15.17-.25.39-.37.58-.2.32-.39.65-.59.98,0,.01-.03.03-.04.03-.33.16-.56.45-.69.77-.22.55-.4,1.12-.55,1.69-.16.59-.16,1.21-.42,1.78-.05.1-.08.22-.13.37-.37-.32-.44-.71-.55-1.09-.05-.17-.13-.33-.21-.5.13-.09.08-.44-.14-.73.02-.09.04-.18,0-.24-.07-.14-.17-.27-.24-.42-.12-.26-.21-.54-.36-.79-.09-.15-.26-.26-.4-.37-.47-.37-.63-1.05-1.25-1.28-.19-.07-.38-.21-.57-.2-.14,0-.28.17-.4.29-.15.15-.24.37-.41.47-.32.19-.62.11-.9-.15-.22-.21-.43-.49-.81-.44-.04,0-.12-.1-.15-.16-.13-.31-.58-.51-.91-.44-.17.03-.36,0-.54-.03-.21-.04-.41-.15-.62-.15-1,.01-1.86.85-1.93,1.85-.03.38-.05.76-.09,1.14-.01.09-.07.24-.13.25-.35.09-.36.42-.52.65-.18.27-.48.47-.73.69-.05.04-.13.05-.19.07.06.04.11.08.17.12-.25.23-.49.43-.53.84-.04.53-.23,1.05-.32,1.58-.21,1.29-.39,2.58-.58,3.86-.02.11-.06.22-.1.34-.46-.14-.86-.3-1.09-.71-.16-.28-.28-.58-.42-.87-.03-.07-.1-.16-.08-.23.06-.22-.09-.34-.21-.45-.65-.57-1.3-1.13-1.97-1.68-.35-.29-.71-.56-1.22-.47-.07.01-.15-.02-.21-.05-.46-.29-.91-.59-1.36-.89-.35-.23-.87-.17-1.03.19-.12.26-.3.23-.48.31-.17.08-.33.26-.42.43-.05.1.08.28.1.43.06.42.34.71.6.99.43.47.75,1,.99,1.58.07.17.35.4.01.61.25.16.24.16.13.39-.03.07-.07.14-.08.21-.03.39-.05.41-.41.34.12.06.24.12.39.19-.1.06-.17.1-.24.14.02.07.07.13.07.19.01.45-.15.88-.05,1.33,0,.03-.05.06-.05.09-.05.17-.13.35-.14.52,0,.27.05.53.09.8.04.29.05.59.15.86.21.58.47,1.14.72,1.71.25.58.5,1.16.75,1.74.14.33.28.66.44.98.15.29.4.53.49.86.02.08.05.17.07.25.04-.01.08-.02.11-.03-.03-.11-.07-.22-.1-.33-.15-.46-.31-.91-.46-1.37-.04-.14-.06-.28-.08-.43-.05-.13-.18-.24-.24-.38-.19-.43-.35-.86-.54-1.29-.11-.27-.18-.59-.38-.77-.18-.17-.11-.25-.04-.36-.06-.11-.12-.19-.15-.29-.25-1.04-.23-2.08-.03-3.12.02-.08.11-.15.17-.22.04-.04.11-.07.12-.11.13-.43.26-.87.38-1.31.06-.25.13-.49-.04-.75-.39-.62-.76-1.25-1.12-1.89-.27-.48-.5-.97-.75-1.46.34-.23.64-.14.92.03.25.15.48.32.73.47.3.18.63.34.92.54.22.16.44.19.71.18.21,0,.48.02.64.14.29.22.56.5.78.8.19.26.31.58.44.89.23.51.48,1.03.68,1.55.27.7.73,1.24,1.47,1.37.44.07.53.4.7.65.19.29.22.67.35,1,.27.66.53,1.32.84,1.95.58,1.16,1.2,2.31,1.8,3.46.26.5.64.93.83,1.48.34.96.53,1.96.99,2.88.42.84.77,1.72,1.18,2.57.32.66.68,1.32,1.05,1.96.39.67.82,1.31,1.21,1.97.1.16.13.36.19.54-.08.08-.13.18-.11.25.03.1.12.26.18.26.29,0,.39.21.53.41.23.33.37.73.74.97.19.13.31.36.52.6-.49.01-.62.37-.82.7-.2-.14-.4-.24-.55-.4-.27-.27-.52-.55-.71-.91-.2-.37-.53-.68-.8-1.01-.57-.7-1.1-1.42-1.5-2.23-.07-.15-.25-.28-.24-.41,0-.27-.14-.42-.32-.57-.15-.13-.28-.28-.42-.43-.03.17-.07.33-.1.52.08-.03.15-.06.21-.09,0,.01.01.02.02.03-.13.13-.25.27-.4.42.25.11.45.2.67.3-.07.05-.14.1-.19.14-.05-.05-.09-.09-.12-.13-.17.21-.08.36.06.52.43.51.85,1.01,1.25,1.54.27.36.49.76.75,1.12.46.64,1.03,1.18,1.69,1.64.08.06.11.2.17.3l-.08.06c.27.06.38.28.54.46.28.32.68.54,1.01.82.26.23.5.5.78.79-.16.03-.24.05-.29.06.75.37,1.5.73,2.25,1.1,0,.03,0,.05-.01.08-.1.02-.21.07-.31.07-.65,0-1.3,0-1.95-.05-.6-.03-1.2-.08-1.79-.18-.34-.06-.65-.27-.98-.36-1.08-.28-2.16-.56-3.24-.81-.84-.19-1.65-.43-2.38-.91-.23-.15-.43-.34-.67-.46-.88-.42-1.62-1.03-2.31-1.71-.36-.35-.67-.75-1.05-1.08-.59-.51-1.09-1.07-1.4-1.79-.03-.06-.09-.11-.13-.17-.09-.11-.17-.22-.26-.33-.04-.05-.08-.11-.12-.16-.04.05-.1.1-.13.16-.03.05-.05.12-.06.14.1.26.19.49.3.71.05.1.15.18.18.28.08.21.1.45.2.65.07.15.22.26.34.38.15.16.32.3.47.46.25.28.47.59.74.85.31.3.65.59,1,.84.85.59,1.71,1.18,2.6,1.73.58.35,1.19.67,1.82.91.53.21,1.11.3,1.68.45.72.18,1.43.36,2.15.53.1.02.22.06.3.02.29-.15.45.07.65.2.08.05.17.1.26.11.45.03.89.05,1.34.07.73.05,1.45.1,2.18.16.21.02.42.07.68.12-.08.14-.12.21-.16.28-.01-.03-.02-.06-.03-.08-.25.06-.49.13-.74.19-.1.03-.2.05-.3.07-.25.04-.54.02-.74.14-.25.15-.51.23-.79.28-.47.08-.94.21-1.41.24-.56.04-1.12.03-1.68,0-.72-.02-1.44-.03-2.14-.12-.9-.12-1.79-.3-2.68-.48-.73-.15-1.47-.31-2.17-.55-.6-.21-1.14-.54-1.72-.81-.08-.03-.18,0-.27,0,.03.07.06.14.08.2-.06.02-.14.04-.31.09.44.22.79.45,1.17.58.54.19.97.64,1.59.63.04,0,.09.02.13.05.24.15.45.4.78.23.03-.02.1.04.16.05.15.03.31.07.47.09.38.05.75.1,1.13.15.34.04.68.09,1.05.14.03.14.2.18.39.18.21,0,.41,0,.61.04.17.03.33.11.27.34-.04.19.09.23.23.24.26.03.52.05.78.08.22.03.44.08.65.11-.47.14-.87.33-1.16.69.55-.04,1.08-.07,1.61-.12.41-.04.82-.07,1.22-.15.59-.11,1.2-.14,1.72-.49.06-.04.12-.1.19-.11.1-.02.2,0,.3.01-.05.08-.09.19-.16.23-.24.13-.49.22-.73.35-1.08.55-2.15,1.1-3.23,1.64-.27.13-.59.17-.86.3-.32.15-.63.29-.98.39-.63.2-1.23.5-1.84.76-.47.2-.93.46-1.42.58-.52.12-1.07.11-1.61.15-.62.05-1.25.07-1.87.15-.4.05-.79.17-1.17.29-.82.27-1.69.27-2.53.52-.81.24-1.49.7-2.27.97-.54.18-1.04.5-1.55.75-.31.15-.62.3-.96.47-.21-.25-.48-.11-.74-.07-.5.07-1,.13-1.49.24-.48.11-.94.29-1.41.43-.06.02-.13,0-.25.02.17-.48.33-.91.48-1.35.02-.05-.03-.13-.02-.18.05-.23.1-.47.16-.7.02-.08.13-.14.13-.22.01-.23-.13-.38-.33-.47-.35-.14-.69-.3-1.04-.41-.68-.22-1.35-.43-2.09-.33-.49.07-1,.05-1.51.06-.08,0-.17-.02-.24-.06-.72-.34-.96-1.02-1.03-1.71-.05-.5.1-1.03.21-1.54.05-.23.08-.48.37-.65.2-.12.28-.43.44-.64.11-.14.28-.24.4-.38.19-.23.36-.47.53-.71.23-.32.45-.65.7-.95.14-.17.34-.39.52-.4.26-.02.46-.02.59-.26.13,0,.25,0,.34-.07.05-.04.05-.15.07-.19.18-.11.37-.2.52-.33.43-.38.94-.59,1.47-.73,1.3-.35,2.61-.67,3.93-.98.16-.04.34,0,.54,0,.02-.03.06-.17.14-.21.29-.14.6-.26.91-.35.1-.03.26.04.36.11.22.16.4.37.63.51.42.26.87.47,1.3.71.23.13.44.29.67.41.34.16.69.29,1.03.45.16.07.32.17.44.3.35.38.97.36,1.28-.09-.14-.06-.27-.13-.42-.16-.1-.03-.2,0-.31,0,.04.09.07.19.12.32-.07-.07-.18-.12-.18-.18,0-.26-.23-.29-.38-.38-.11-.07-.25-.09-.36-.16-.05-.03-.06-.12-.09-.2-.56-.31-1.14-.64-1.73-.97-1.08-.6-2.12-1.27-2.93-2.22-.26-.3-.52-.6-.79-.9-.65-.73-1.31-1.44-1.93-2.19-.29-.35-.45-.79-.73-1.15-.4-.52-.89-.97-1.27-1.5-.28-.4-.47-.86-.68-1.31-.16-.36-.31-.72-.43-1.09-.14-.44-.23-.89-.38-1.32-.14-.43-.13-.81.14-1.2.27-.38.27-.84.18-1.28-.09-.49-.23-.97-.38-1.45-.03-.1-.17-.17-.29-.28-.02-.11-.06-.27-.1-.43-.18-.67-.14-1.03.4-1.43.46-.33.75-.28,1.02.21.33.6.66,1.2,1,1.79.12.21.23.42.37.62.13.2.28.39.43.6.02-.02-.02.01-.01.01.34.49.68.98,1.02,1.47.64.85,1.31,1.69,2.17,2.36-.03.03-.07.06-.11.09.22.31.48.54.9.59-.21-.35-.36-.69-.59-.98-.45-.58-.96-1.11-1.41-1.7-.35-.46-.67-.95-.97-1.44-.24-.39-.41-.81-.65-1.2-.29-.49-.62-.96-.92-1.45-.44-.74-.88-1.47-1.27-2.24-.08-.17-.33-.37-.13-.65.05-.07-.06-.26-.09-.38.04-.02.08-.04.12-.06-.05-.07-.09-.17-.16-.19-.21-.08-.4-.16-.38-.44.01-.15-.04-.3-.02-.45.02-.19.05-.38.11-.56.05-.16.16-.31.24-.46.12-.22.21-.48.39-.65.43-.39.89-.75,1.36-1.08.19-.13.45-.16.68-.24,0-.02,0-.05,0-.07-.2-.03-.39-.07-.53-.09-.08.08-.12.14-.16.15-.18.02-.37.04-.56.03-.29-.01-.54.02-.72.28-.09.13-.2.27-.33.33-.45.22-.67.64-.91,1.02-.28.44-.57.9-.45,1.48.02.12-.04.25-.06.36.06.09.15.18.17.27.08.39.14.78.19,1.18.03.22.03.45.05.7-.28.07-.53.25-.66.57-.22.57-.66,1.08-.49,1.76.02.09.02.23-.03.3-.12.17-.16.33-.16.55.01.39-.07.78-.12,1.16-.01.1-.03.21-.06.36.17.28.17.32-.11.39.33.23.37.48.15.68.08.09.19.18.23.28.15.39.28.78.42,1.18.02.07.05.14.07.21.09.33.15.67.29.98.37.86.81,1.69,1.38,2.44.21.27.47.51.67.79.3.4.56.83.85,1.24.26.37.52.75.8,1.11.43.53.89,1.03,1.31,1.56.21.27.46.43.8.49.35.05.35.06.2.33.34.25.68.49,1.06.77-.26.11-.47.21-.69.27-1.4.38-2.81.75-4.21,1.12-.1.03-.22,0-.33.02-.27.07-.53.13-.79.24-.28.12-.54.29-.82.41-.2.08-.43.12-.59-.07-.37.1-.72.2-1.08.3,0,.04.02.07.02.11l.9-.12s0,.05.01.08c-.14.06-.28.11-.44.18.07.03.12.05.17.07-.14.05-.26.04-.39.05-.09,0-.21,0-.11.15.06,0,.12-.02.17-.03.01.03.03.06.04.09-.39.2-.78.4-1.17.61-.2.11-.44.19-.36.51.01.05-.07.14-.12.2-.05.06-.13.1-.19.15-.48.5-.78,1.12-1.04,1.75-.34.82-.73,1.64-.91,2.5-.16.73-.1,1.53.54,2.11.04.04.08.09.09.14.07.35.34.48.64.58.65.21,1.33.24,2,.28.09,0,.18,0,.28,0,.45.04.91.05,1.36.14.41.07.8.22,1.2.35.06.02.15.12.14.17-.04.31-.09.62-.18.92-.1.35-.3.67-.34,1.02-.03.26-.07.45-.33.55.11.23,0,.29-.2.35-.13.04-.25.16-.36.26-.09.09-.16.21-.24.31-.45.57-.96,1.1-1.26,1.79-.19.45-.02,1.15.37,1.43.06.04.16.05.18.1.1.22.18.45.25.64-.13.02-.3.04-.47.06,0,.03,0,.06,0,.1,1.09.03,2.18.23,3.31-.03-.1-.08-.2-.16-.34-.28.45.15.85.28,1.3.43-.15.04-.3.07-.44.12-.07.03-.12.1-.18.15.05.06.09.15.16.17.15.05.31.07.47.1.39.07.79.23,1.18.2.74-.05,1.37.21,1.99.54.18.1.36.19.55.27.5.2.99.4,1.49.6-.02.02-.05.05-.07.07.01.06,0,.15.04.18.11.07.23.12.35.16.26.09.53.17.79.26.06.02.16.07.16.1-.05.29.17.25.32.25,1.24.06,2.47.1,3.71-.04.16-.02.32,0,.46-.06.38-.14.78-.07,1.07.1.25.14.44.11.67.1.54-.02,1.08-.02,1.63-.04.07,0,.16.01.22-.01.57-.22,1.16-.43,1.71-.69.97-.45,1.91-.96,2.89-1.38.98-.43,1.86-.98,2.52-1.81.8-1.01,1.57-2.04,2.34-3.08.27-.36.5-.76.76-1.13.23-.32.52-.6.69-.95.57-1.14,1.36-2.12,2.1-3.14.36-.5.63-1.07,1.06-1.53.01-.01.02-.03.02-.05.02-.16.03-.34.08-.49.05-.14.15-.26.22-.38.02.02.05.04.09.07.06-.83.05-1.34.5-1.64q-.24-.26-.1-.54c.11-.22.22-.43.36-.71.12.06.29.11.4.21.31.29.59.6.89.9.94.94,1.56,2.11,2.31,3.19.24.34.42.73.62,1.1.23.43.47.85.68,1.28.2.4.38.82.53,1.24.12.35.33.69.29,1.09,0,.03.01.07.03.1.4.55.55,1.21.76,1.85.13.4.19.81.32,1.21.12.37.06.75.26,1.13.23.44.29.98.41,1.48.22.9.49,1.81.44,2.76,0,.18-.03.36-.05.54.05.43.1.86.15,1.32-.05,0-.11,0-.19.02.03.39.08.77.09,1.14,0,.3-.05.61-.07.91-.04.4-.09.79-.1,1.19-.01.27.03.55.05.85.12.03.27.08.42.12-.02.21.02.46-.08.61-.1.15.16.46-.22.45.12.17.15.95.05,1.08-.02.02-.05.02-.07.04-.05.07-.1.14-.15.21.07.02.15.04.2.05,0,.27,0,.53,0,.79,0,.09-.02.23-.07.25-.23.1-.21.27-.13.46-.08.02-.14.03-.2.04.07.1.13.18.16.22-.06.14-.15.26-.14.36,0,.13.09.26.13.37-.07.05-.15.11-.24.18q.19.17-.03.72c.07.02.13.03.24.06-.08.12-.14.22-.2.32.02.07.09.2.06.22-.22.19-.23.43-.21.68,0,.15-.02.3-.05.44-.13.63-.3,1.25-.41,1.88-.15.86-.23,1.72-.38,2.58-.21,1.22-.19,2.47-.56,3.66-.04.11-.1.22-.11.34-.06.44-.13.87-.16,1.31-.08,1.19-.29,2.36-.52,3.54h.1c.02.13.07.24.04.32-.04.09-.14.15-.22.22.22.12.19.39-.06.61.04.08.08.15.12.22-.06,0-.13.01-.22.02.03.13.06.25.09.37.03,0,.06,0,.1,0,.12-.41.25-.82.37-1.23.03,0,.06,0,.09.01.02.21.03.43.05.66.07-.09.12-.15.16-.21.03.04.08.11.07.12-.05.07-.12.14-.19.19-.02.01-.07-.02-.11-.02-.02,0-.05.01-.1.03.07.06.13.1.16.13-.05.12-.1.24-.15.36.02.02.04.03.05.05l.37-.37s.04.02.05.04c-.03.23-.06.46-.09.71-.12,0-.23.02-.34,0-.11-.03-.2-.11-.31-.16-.04-.02-.1-.02-.13,0-.18.14-.3.33-.27.57,0,.06.1.12.15.18.05-.06.1-.11.13-.18.06-.13.1-.26.13-.36.13.18.23.33.34.49-.05.03-.12.08-.2.13.06.04.1.08.14.11-.09.08-.23.13-.24.2-.02.28-.13.55-.07.86.06.3-.02.62-.18.9-.09.17-.23.33-.1.57.05.1.03.27-.02.38-.09.18-.23.33-.35.49.03,0,.05,0,.08.01v.8s-.1.02-.15.03c-.04.17-.09.31-.11.45-.01.15-.04.41.03.45.22.13.21.33.22.51.04.44-.08.85-.34,1.18.05.11.15.23.13.34-.01.09-.16.16-.26.25.1.01.19.03.22.03,0,.54.02,1.06,0,1.57-.01.22-.13.43-.21.64-.03.09.04.2.05.31,0,.09-.08.19-.12.28-.08-.04-.19-.06-.23-.12-.03-.04.02-.15.04-.26-.21.01-.39.03-.58.04,0,.04.01.08.02.11.08-.02.15-.04.26-.06.03.09.09.18.09.28,0,.14-.05.29-.08.44-.07-.04-.18-.1-.29-.16-.02.03-.04.05-.06.08.08.08.17.15.23.24.08.11.13.24.2.36-.11.02-.23.03-.43.06.15.15.28.27.42.41-.08.16.05.46-.32.51.03.43.06.86.09,1.31-.12.02-.18.14-.13.32.03.14.05.28.06.42.02.37-.07.73-.02,1.1.05.4.02.82.02,1.23,0,.6.01,1.21,0,1.81,0,.42-.01.83-.03,1.25,0,.21-.03.41-.04.6h-.62s-.03-.02-.02-.04c.14-.24-.01-.43-.13-.61-.44-.69-.71-1.45-.92-2.23-.03-.11-.14-.23-.11-.31.07-.22-.04-.37-.12-.54-.13-.26-.32-.51-.37-.79-.04-.29-.29-.5-.25-.83.03-.2-.16-.43-.22-.65-.21-.69-.42-1.39-.63-2.09-.07-.23-.18-.46-.21-.7-.09-.78-.16-1.56-.21-2.34-.03-.44-.01-.89-.01-1.33,0-.44,0-.89,0-1.33,0-.18,0-.36,0-.54-.02,0-.05,0-.07,0-.02.12-.05.25-.07.37-.02,0-.03,0-.05.01-.04-.1-.08-.21-.14-.37-.01.13-.03.2-.03.27,0,.39,0,.78.03,1.16.04.59-.2,1.18-.07,1.77.08.37-.01.78.27,1.11.03.03.03.12,0,.15-.28.29.02.63-.08.95-.06.18.09.42.14.64.12.5.24,1,.36,1.5.12.5.24.99.37,1.49-.11.05-.15.07-.19.08-.04.01-.09,0-.13.01.47-.06.4.37.51.59.11.21.11.48.15.72-.03,0-.07.02-.1.03-.07-.09-.16-.18-.22-.28-.19-.35-.37-.71-.54-1.08-.21-.44-.43-.89-.63-1.33-.22-.48-.42-.97-.64-1.45-.11-.25-.25-.5-.35-.76-.24-.62-.46-1.25-.71-1.87-.15-.38-.36-.75-.52-1.13-.11-.27-.18-.56-.26-.84-.17-.59-.36-1.17-.51-1.76-.06-.23-.03-.48-.06-.72-.09-.57-.2-1.14-.3-1.71-.13-.71-.27-1.43-.4-2.14-.06-.31-.13-.62-.2-.93-.04-.17-.07-.34-.11-.55.02-.03.1-.11.09-.18,0-.53-.03-1.06-.05-1.59,0-.19-.08-.39-.04-.56.08-.4.09-.76-.04-1.17-.12-.38-.26-.76-.37-1.14-.03-.1-.08-.2-.07-.3.03-.46-.24-.82-.37-1.23-.1-.32-.24-.62-.35-.94-.2-.63-.37-1.26-.58-1.88-.14-.41-.33-.8-.47-1.2-.08-.22-.09-.46-.14-.68-.04-.17-.07-.34-.14-.49-.16-.35-.4-.67-.52-1.04-.19-.58-.57-1.09-.66-1.72-.03-.23-.23-.43-.34-.66-.07-.15-.15-.31-.19-.47-.06-.23-.07-.47-.12-.7-.06-.25-.15-.49-.2-.75-.1-.5-.15-1.02-.29-1.51-.22-.8-.37-1.6-.4-2.46.11.08.18.14.27.2.62.41,1.07.97,1.56,1.51.7.78,1.43,1.55,2.12,2.35.46.54.89,1.12,1.01,1.85.11.65.2,1.32.37,1.95.16.57.42,1.11.65,1.66.23.57.46,1.13.68,1.7.25.63.34,1.33.8,1.88.01.01.03.04.03.04-.17.28.12.31.25.44-.06.04-.11.08-.1.07.28.58.56,1.13.79,1.69.15.37.23.78.35,1.17.23.69.47,1.39.71,2.08.03.08.08.15.11.23.02.09,0,.2.04.28.12.32.39.65.35.95-.04.33.08.61.18.85.13.32.18.5-.24.7.22.05.35.08.55.12-.13.11-.22.19-.33.29.19.05.36.09.53.13.02-.03.04-.05.06-.08-.07-.11-.14-.21-.22-.33.24-.1.26-.26.05-.45.29-.19.17-.36.02-.53.02-.13.02-.26,0-.39-.05-.29-.11-.58-.15-.87-.04-.26-.01-.54-.08-.79-.05-.2-.22-.37-.31-.56-.16-.36-.31-.73-.45-1.1-.14-.36-.24-.74-.38-1.1-.2-.51-.42-1.02-.62-1.53-.15-.38-.27-.77-.42-1.15-.2-.49-.44-.97-.6-1.47-.2-.61-.39-1.22-.74-1.78-.14-.23-.38-.46-.24-.7-.34-.84-.66-1.62-1-2.45.4.1.71.17,1.06.25-.24-.31-.45-.58-.69-.89.13,0,.19,0,.26.01,0-.02.01-.04.02-.05-.1-.06-.19-.12-.3-.19.24-.08.23-.19.05-.3-.13-.08-.27-.15-.44-.25.11-.04.17-.07.28-.11-.16-.09-.28-.16-.39-.23.11-.29-.19-.39-.29-.6.03-.06.07-.12.11-.19-.14-.09-.28-.15-.37-.25-.2-.24-.36-.51-.57-.74-.7-.78-1.42-1.54-2.13-2.32-.11-.12-.18-.26-.29-.37-.49-.5-.97-1-1.48-1.48-.16-.15-.21-.5-.57-.37-.03.01-.13-.11-.17-.19-.04-.09-.06-.19-.09-.32.14-.06.28-.12.43-.19-.7-.6-1.4-1.19-2.13-1.82.15-.05.22-.07.37-.11-.23-.02-.41.02-.52-.05-.43-.27-.83-.57-1.25-.85-.14-.09-.3-.19-.46-.19-.54-.01-1.06.11-1.53.39-.1.06-.19.21-.21.33-.05.42-.12.82.03,1.27.21.59.22,1.25.36,1.87.12.53.28,1.04.47,1.55.26.71.57,1.4.86,2.1.08.2.17.39.27.59.03.05.11.08.12.13.18.51.37,1.02.68,1.48.09.14.14.31.23.45.09.15.21.28.29.43.09.16.14.35.24.51.32.55.65,1.1.99,1.64.33.52.68,1.04,1.02,1.55.09.13.15.29.24.41.19.25.4.48.6.72.17.2.33.4.5.61.03-.02.05-.04.08-.06-.12-.71-.42-1.33-.88-1.88-.28-.34-.52-.71-.8-1.1.1,0,.15.01.24.02-.09-.15-.16-.25-.23-.35-.23-.35-.5-.68-.68-1.06-.25-.51-.43-1.05-.64-1.57,0-.02,0-.04-.02-.05-.22-.61-.45-1.23-.66-1.84-.21-.61-.7-1.08-.83-1.72-.02-.12.02-.27-.04-.36-.2-.31-.42-.6-.64-.9-.05-.07-.1-.13-.15-.2-.25-.09-.42-.27-.49-.54-.07-.28-.28-.49-.19-.85.05-.2-.23-.47-.27-.77-.05-.38-.2-.75-.3-1.12q.24-.1.23-.45c0-.23.16-.34.49-.36.3-.02.2.15.18.3,0,.02.04.05.04.05.12-.05.22-.14.29-.12.19.06.4.13.56.25.53.44,1.07.89,1.55,1.38.3.3.65.58.75,1.04.23.98.46,1.96.71,2.93.05.21.08.36-.27.35.35.11.46.39.35.67-.04.11-.04.27,0,.38.09.31.21.61.31.91.08.25.16.5.25.8-.11.15-.11.16.08.57-.06.05-.13.1-.28.22.58,0,.34.49.57.73.13.13.02.51.02.81,0,0-.05.02-.15.07.47.09.36.45.43.7.1.08.24.13.28.22.15.36.26.73.4,1.09.02.07.11.14.1.19-.11.29.35.43.18.73.29.08.14.38.26.54.05.07.1.15.15.22-.04.11-.03.22,0,.32.03.1.07.2.11.29.04.08.08.14.13.22.28.25.35.42.22.53.13.24.29.45.36.69.16.52.44.98.68,1.47.14.3.48.54.36.94,0,.02.03.07.05.09.36.28.43.7.47,1.1.06.57-.02,1.16.08,1.72.09.52-.01,1.03.1,1.56.12.56.06,1.16.02,1.74-.04.66.09,1.3.21,1.94.09.51.22,1.02.29,1.53.08.57.1,1.16.17,1.73.04.36.14.71.19,1.07.06.4.04.81.14,1.19.12.45.33.87.5,1.31.2.55.39,1.1.59,1.64.09.25.15.55.32.74.18.2.25.42.36.64.04.08.12.13.15.21.05.16.03.35.11.49.18.35.4.67.59,1.01.25.44.55.88.69,1.35.13.41.3.76.51,1.12.07.11.08.25.12.38-.19-.09-.34-.2-.45-.34-.3-.37-.54-.78-.87-1.11-.22-.23-.41-.44-.48-.75-.01-.05-.06-.09-.09-.14-.28-.39-.59-.77-.85-1.17-.29-.45-.55-.92-.81-1.39-.22-.41-.44-.83-.87-1.03-.3-.13-.5-.32-.65-.58-.21-.36-.39-.74-.62-1.09-.5-.76-.98-1.53-1.32-2.39-.22-.57-.55-1.1-.85-1.64-.12-.21-.34-.36-.43-.57-.21-.48-.4-.97-.55-1.47-.13-.44-.23-.9-.29-1.36-.04-.31-.36-.55-.19-.93.06-.14-.1-.37-.13-.56-.2-1.02-.33-2.07-.61-3.07-.27-.97-.51-1.94-.65-2.93-.04-.31-.08-.61-.13-.91-.08-.5-.18-1.01-.25-1.51-.04-.24,0-.5-.05-.74-.05-.24-.16-.46-.22-.7-.03-.1.03-.3-.02-.31-.29-.13-.03-.18,0-.23-.1-.15-.21-.28-.27-.44-.44-1.14-.86-2.28-1.3-3.41-.25-.64-.43-1.33-.92-1.85-.04-.04-.05-.12-.08-.18-.25-.57-.3-1.18-.41-1.79-.02-.1-.06-.22-.13-.29-.17-.17-.38-.29-.55-.46-.33-.33-.65-.68-.97-1.02-.15-.16-.31-.18-.53-.03.11.21.19.43.32.62.3.48.66.94.92,1.44.27.52.52,1.06.67,1.62.2.77.31,1.57.42,2.36.07.51.07,1.02.12,1.53.07.63.15,1.26.24,1.89.09.66.19,1.32.29,1.97.1.65.2,1.3.32,1.94.07.34.15.69.28,1.02.13.34.32.65.49.99.29-.09.2-.35.18-.62.23.12.43.22.63.32-.04-.19-.19-.34-.19-.49,0-.35-.21-.55-.43-.76-.06-.05-.06-.16-.09-.24-.02-.05-.02-.14-.06-.16-.25-.14-.27-.41-.32-.64-.19-.89-.35-1.78-.52-2.67-.02-.13-.08-.26-.07-.38.02-.3.07-.6-.2-.83-.03-.02,0-.1,0-.15,0-.2,0-.41,0-.61-.03-.1.03-.23,0-.32-.04-.1-.15-.18-.23-.26.02-.02.03-.04.05-.06.07.01.14.03.22.04-.09-.67-.18-1.31-.26-1.94l.11-.03c.11.18.25.35.34.54.21.49.4.98.57,1.48.07.21.03.46.1.67.09.3.23.59.36.88.4.87.3,1.83.44,2.74.06.39.08.78.13,1.17.01.11.1.25.06.32-.16.27.05.48.1.71.07.35.28.67.15,1.04-.01.04,0,.09.01.14.03.13.13.3.08.38-.15.22-.02.43,0,.62.05.44.11.87.31,1.28.08.16-.02.41.06.56.19.33.13.67.14.95.16.12.35.19.4.31.14.38.24.78.31,1.18.08.44.14.88.05,1.33-.01.05.08.18.13.18.31,0,.36.24.43.46.11.33.15.69.33.97.29.44.43.98.85,1.36.21.19.29.53.42.8.24.52.47,1.04.7,1.57.07.17.16.36.16.54,0,.29.14.49.29.71.11.16.4.23.23.51.1.04.18.07.28.11-.08.06-.13.11-.2.17.31.07.48.18.57.51.11.37.39.68.62,1.01.16.24.38.44.53.68.31.49.63.97,1.04,1.4.48.51.93,1.04,1.37,1.58.2.24.33.52.53.76.21.25.46.46.68.7.75.84,1.49,1.69,2.26,2.52.29.31.65.55.96.85.31.29.78.4.94.85.01.03.13.06.14.04.04-.05.09-.14.07-.18-.11-.22.03-.27.19-.3.16-.03.32-.04.55-.07,0,.17.01.37.03.57.05.55.13,1.09.16,1.64.05.88.04,1.77.1,2.65.08,1.13.18,2.25.34,3.37.13.91.35,1.82.56,2.72.12.51.32.63.88.62.01-.35.01-.7.05-1.05.04-.44.07-.9.18-1.33.19-.77.11-1.55.09-2.33-.02-.54-.17-1.08-.14-1.62.04-.93-.25-1.85-.12-2.78.02-.18-.03-.37-.04-.56-.08-1.02-.16-2.03-.23-3.05-.06-.98-.14-1.97-.13-2.95,0-1.02-.19-2.02-.2-3.03,0-.04,0-.08-.03-.11-.25-.3-.17-.67-.18-1,0-.44.06-.88.1-1.31.05-.56.08-1.11.15-1.67.05-.46.14-.91.19-1.37.04-.44.02-.88.06-1.31.03-.3.13-.59.18-.89.1-.61.19-1.22.3-1.82.08-.47.2-.93.28-1.4.1-.56.19-1.13.25-1.7.07-.75.29-1.47.49-2.19.02-.08.09-.14.13-.21.04-.07.08-.14.1-.21.05-.23.1-.46.12-.69.02-.16,0-.32,0-.48-.01-.23-.06-.47-.04-.7.04-.33.13-.66.19-.99.04-.21.02-.41-.27-.45-.17-.02-.33-.08-.49-.12,0,0,0,0,0,0-.1-.09-.2-.18-.35-.32.29-.07.57-.13.85-.2,0-.01,0-.03,0-.04l-.63-.11c.17-.04.35-.03.52-.04.06,0,.11-.06.16-.1-.05-.04-.09-.11-.15-.12-.18-.04-.36-.07-.54-.1,0-.03,0-.05,0-.08.33.07.64.07.93-.21-.24.05-.42.08-.63.12.05-.16.08-.24.09-.32.04-.32.07-.65.11-.97,0-.07.05-.14.07-.21.03-.09.03-.22.09-.27.19-.15.41-.28.61-.41-.01.22,0,.44-.04.65-.04.23.12.29.26.33.15.04.31,0,.37-.21.05-.21.14-.41.18-.62.05-.25.08-.5.13-.81.08.15.14.24.23.4.11-.12.2-.2.26-.3.05-.08.07-.19.11-.29.31-.7.64-1.38.92-2.09.15-.38.21-.81.32-1.2.08-.26.18-.51.28-.76.21-.53.43-1.07.64-1.61.08.05.12.07.15.09v-.47c.11.07.17.11.18.12.03-.15.03-.31.09-.43.14-.32.32-.63.48-.94.09-.18.19-.36.28-.54.03.01.05.02.08.03-.04-.07-.09-.14-.15-.23.12-.02.21-.04.3-.06.03-.42.27-.73.51-1.04.12-.15.22-.31.33-.46.51-.67.97-1.38,1.53-2.01.57-.64,1.15-1.27,1.55-2.04.2-.4.48-.74.74-1.1.31-.42.62-.83.93-1.24.37-.5.75-1.01,1.12-1.51.31-.42.62-.85.94-1.27.34-.44.7-.86,1.06-1.28.14-.17.31-.33.45-.5.2-.26.32-.6.57-.8.25-.2.41-.44.6-.67.33-.41.67-.81.99-1.22.13-.16.23-.34.36-.49.08-.09.22-.12.3-.21.32-.37.62-.76.95-1.13.21-.24.46-.46.69-.69.28-.29.57-.58.84-.89.19-.22.33-.47.53-.76h-.31c.26-.08.3-.49.64-.42.03,0,.07-.08.1-.12.31-.37.62-.73.93-1.1.38-.45.76-.9,1.12-1.36.39-.49.76-.99,1.15-1.48.21-.26.44-.52.7-.73.33-.26.71-.46,1.06-.7.51-.34.98-.72,1.27-1.27-.23-.18-.41-.14-.56.1ZM54.91,65.81s.11.04.12.04c.11.16-.29.17-.03.33-.2.08-.41.15-.61.23-.02-.36.38-.37.53-.6ZM54.38,66.41s0,0,0,0c.08.03.16.06.24.09-.15.41-.21.48-.53.29.1-.13.19-.25.29-.38ZM42.56,39.43s.02.05.03.08c-.17.06-.34.12-.52.18-.01-.04-.03-.08-.04-.12.17-.05.35-.09.52-.14ZM40.84,42.5c.17.04.38.01.54-.05.26-.09.49-.24.74-.36.01.02.02.04.03.06-.04.02-.07.04-.11.05,0,.01,0,.03,0,.04.16,0,.33.04.47,0,.69-.25,1.39-.5,2.07-.8.8-.35,1.58-.74,2.35-1.14.36-.18.68-.43,1.02-.64.56-.34,1.12-.67,1.68-1.01.69-.43,1.38-.87,2.08-1.3.5-.3.98-.69,1.53-.84.45-.12.7-.47,1.09-.62.14-.05.27-.15.41-.17.51-.09.91-.4,1.37-.61.73-.32,1.47-.63,2.22-.91.79-.29,1.58-.57,2.38-.82.63-.19,1.27-.32,1.91-.46.85-.19,1.69-.4,2.55-.54.63-.1,1.27-.12,1.91,0,.58.11,1.18.09,1.77.14.23.02.45.09.73.14-.09.12-.14.2-.21.25-.55.41-1.09.84-1.65,1.23-.35.24-.77.39-1.11.64-.76.56-1.36,1.28-1.77,2.15-.26.54-.64,1.03-.91,1.58-.33.68-.6,1.38-.88,2.08-.05.12,0,.27,0,.4.03.02.06.03.09.05.12-.18.23-.36.36-.53.23-.29.34-.67.74-.84.11-.05.14-.3.2-.46.15-.42.27-.83.52-1.21.29-.44.49-.95.76-1.41.15-.26.36-.49.56-.73.19-.23.41-.44.61-.67.24-.27.59-.31.91-.43.42-.16.92-.1,1.29-.54.09.47-.09.8-.24,1.13-.35.78-.67,1.57-1.06,2.32-.33.66-.75,1.28-1.11,1.93-.57,1.06-1.13,2.13-1.66,3.2-.15.31-.42.41-.69.53-.59.27-1.19.51-1.77.78-.25.12-.46.31-.7.44-.22.12-.45.21-.76.34.14.04.22.1.29.08.4-.11.82-.18,1.17-.39.25-.15.51-.18.76-.25.16-.04.32-.09.52-.14.08-.36.49-.03.69-.31-.19,1.16-1.11,1.75-1.6,2.65.11-.06.2-.12.34-.2-.06.08-.09.14-.13.16-.57.41-1.12.87-1.73,1.21-.47.26-1.02.41-1.55.56-.68.2-1.38.35-2.07.51-.5.12-1,.21-1.49.35-.87.24-1.67.65-2.46,1.08-.11.06-.22.11-.33.15-.34.12-.67.22-.95.47-.09.09-.25.14-.38.15-.82.07-1.64.15-2.47.18-1.34.04-2.58-.29-3.66-1.11-.84-.64-1.64-1.32-2.48-1.97-.17-.13-.41-.15-.6-.26-.09-.05-.14-.18-.18-.28-.07-.21-.09-.44-.19-.64-.28-.57-.62-1.11-.88-1.68-.09-.2-.26-.34-.34-.52-.28-.68-.87-1.12-1.3-1.67-.12-.16-.13-.4-.2-.63.35-.1.64.03.94.1ZM39.55,40.52s.03.07.04.11c-.18.07-.36.14-.54.21-.01-.04-.02-.07-.04-.11.18-.07.35-.14.53-.21ZM41.85,35.63c-.07.17-.14.35-.24.51-.09.15-.23.26-.35.39-.02-.02-.05-.03-.07-.05,0-.04-.01-.09,0-.12.38-.51.29-1.09.25-1.67-.03-.42-.15-.74-.45-.96v-1.34c.36-.02.53.24.69.45.11.15.12.37.18.56.04.13.07.26.1.36.01.21-.01.41.04.59.13.45.02.87-.15,1.29ZM5.27,26.7c-.05.18-.12.36-.16.54-.05.23-.08.47-.13.74-.2-.25-.3-2.11-.15-2.45.25.13.34.3.28.6-.03.14.11.3.17.46.02.04.03.09.05.13-.02,0-.05,0-.07-.01ZM35.89,40.61c.12.09.25.18.36.28.04.04.05.16.02.22-.12.24-.6.48-.87.45-.1-.01-.2-.01-.31-.02-.42-.03-.73-.33-.81-.75-.02-.09-.14-.16-.2-.24-.13-.17-.26-.35-.38-.52.19-.11.37-.23.57-.32.11-.05.24-.05.42-.08.07.05.2.1.26.2.23.38.63.53.95.79ZM34.07,35.06c.14.02.23-.05.22-.24-.01-.16.07-.33.15-.51.02.08.05.17.06.26.01.09,0,.19,0,.29.03,0,.06,0,.09,0l-.47-2.14s.05-.03.08-.05c.09.17.22.34.27.53.06.21.03.45.07.67.02.11.09.24.18.31.29.23.61.44.96.7-.19.05-.33.09-.48.14-.25.08-.51.14-.76.24-.3.13-.35.54-.1.76.17.15.16.47-.02.62-.09.07-.18.12-.23.15-.58-.65-1.16-1.29-1.74-1.94.39-.22.72-.3,1.08.04.15.14.42.16.64.2ZM28.96,35.24s-.04-.04-.06-.06c-.76-.58-1.18-1.42-1.61-2.23-.47-.88-.93-1.78-1.32-2.7-.14-.34-.42-.56-.55-.88-.21-.53-.39-1.08-.54-1.64-.2-.73-.35-1.46-.74-2.13-.51-.88-1-1.78-1.46-2.69-.62-1.22-1.32-2.4-1.73-3.72-.12-.39-.21-.79-.3-1.2-.04-.19-.04-.38-.07-.57-.02-.14-.07-.27-.11-.4.03-.05.09-.11.09-.17,0-.36-.03-.71-.03-1.07,0-.27.06-.54.03-.8-.06-.54.18-1.04.17-1.58,0-.28.26-.56.26-.83,0-.25.11-.42.17-.62.15-.46.31-.91.48-1.37.2-.54.54-.87,1.14-.69.33-.41.22-.86.27-1.29.09-.7.21-1.4.33-2.09.02-.12.06-.32.27-.29.21.02.4.02.56.26.29.44.34.96.52,1.43.08.21.09.43.31.59.09.06.09.3.07.45-.07.59.19,1.12.26,1.68.02.18.01.37.03.55.01.12.06.24.08.36.03.15.04.3.07.45.03.14.07.27.11.44-.02.02-.07.09-.11.14.04.12.08.23.12.38.06.02.15.05.28.09-.02-.6-.05-1.18.21-1.81-.08-.17-.21-.41-.32-.66-.02-.05,0-.13.02-.19.09-.31.17-.61.1-.95-.06-.29-.06-.6-.03-.89.06-.55.17-1.09.27-1.63.01-.07.08-.12.16-.22.13.15.27.28.37.43.48.69,1.03,1.31,1.76,1.74.17.1.28.32.4.49.08.11.14.23.22.37.12-.4-.01-.8-.32-1.1-.17-.17-.32-.36-.51-.57.14-.08.22-.12.3-.16-.02-.01-.03-.02-.05-.03.1-.14.18-.3.3-.43.12-.13.25-.25.4-.33.12-.06.32-.1.4-.04.33.24.67.49.92.8.19.24.28.57.38.88.17.53.3,1.07.45,1.61.09.34.19.67.29,1.01.23.79.48,1.58.7,2.37.07.24.06.51.11.76.07.33.2.66.24,1,.13,1.02.25,2.05.35,3.07.07.68.1,1.37.16,2.05.01.13.1.24.13.34-.05.25-.13.49-.13.73-.03,1.33-.11,2.67-.05,4,.07,1.57.28,3.14.41,4.71.05.58.03,1.17.06,1.76.01.22.08.43.12.65.01.07.03.13.04.21-.32.05-.48-.08-.56-.36-.1-.34-.67-.48-.91-.22-.06.06-.05.22-.02.32.06.21.18.4.23.62.08.33-.05.43-.37.34-.16-.05-.32-.14-.48-.14-.15,0-.32.06-.46.15-.05.03,0,.19,0,.3,0,.15-.02.29-.03.48.19.22.43.48.66.76.31.39.61.78.91,1.18.14.18.2.36.18.61-.02.23.11.47.17.72.04.16.05.32.07.49-.04.01-.07.03-.11.04-.13-.14-.26-.28-.39-.43-.26-.29-.54-.54-.92-.68-.18-.07-.31-.3-.43-.48-.07-.1-.08-.25-.16-.36-.21-.29.07-.51.11-.76.05-.3.03-.37-.27-.41-.12-.02-.24-.02-.36-.03-.22-.02-.38-.09-.47-.32-.12-.28-.26-.55-.56-.71-.38-.2-.57-.57-.72-.94-.31-.74-.6-1.49-.87-2.24-.19-.52-.36-1.04-.51-1.57-.12-.43-.12-.91-.3-1.31-.21-.45-.13-.91-.25-1.35-.08-.29-.11-.59-.19-.88-.16-.54-.37-1.07-.51-1.61-.11-.42-.04-.86.04-1.3-.05-.01-.11-.03-.19-.05.17-.2.12-.38.04-.6-.08-.21-.04-.47-.05-.71,0-.31.02-.63-.01-.94-.02-.18-.13-.34-.16-.52-.21-1.25-.24-2.51-.11-3.77.03-.27-.03-.55-.03-.83,0-.16.05-.31.05-.47,0-.39,0-.77,0-1.16,0-.06-.02-.13,0-.17.21-.31-.02-.35-.23-.42,0,.29.01.56,0,.83-.03.49-.03,1-.13,1.48-.04.21-.07.42-.11.62-.02.1-.11.19-.19.31.21.12.19.3.12.56-.07.28,0,.6.01.9,0,.03.03.07.03.08-.35.31.08.56.06.84-.02.33.1.66,0,.99-.03.11.06.27.14.38.11.16.13.3-.06.44.2.1.32.22.19.43-.01.02-.02.07,0,.08.35.25.13.65.23.96.11.37.11.78.14,1.17.03.38.04.77.03,1.15,0,.19-.05.38-.09.59.12.44.25.92.36,1.34.01.18,0,.28.02.39.04.28.09.55.14.83.19,1.03.34,2.07.58,3.09.14.58.44,1.11.65,1.67.07.18.16.28.33.36.11.05.18.18.25.29.3.53.58,1.07.9,1.59.18.3.47.53.62.84.13.26.38.44.52.78-.15-.06-.24-.1-.33-.14-.44-.21-.87-.43-1.12-.88ZM32.7,42.11s0-.05,0-.08c.04,0,.09,0,.15-.01-.03-.04-.04-.07-.06-.08-.26-.13-.52-.3-.8-.39-.53-.17-.96-.48-1.31-.89-.29-.33-.48-.74-.76-1.19.38-.06.69-.1,1.04-.16-.06-.09-.12-.17-.14-.19-.15-.83-.65-1.35-1.3-1.85.46-.04.75.09,1.06.28.52.34.84.84,1.23,1.29.13.15.25.32.37.48.14.19.28.38.41.57.04.05.08.14.06.18-.13.28.06.34.25.46.12.07.17.26.25.4.05.09.09.2.16.27.12.11.31.16.39.29.08.12.07.3.11.49-.16.04-.35.11-.54.14-.19.02-.38,0-.57-.01ZM10,59.06c-.18.16-.41.16-.64.07-.15-.06-.31-.11-.49-.17,1.21-.65,1.5-.75,1.75-.58-.21.23-.4.47-.63.68ZM10.5,57.23c.02.12.04.19.05.29-.28.13-.57.28-.86.4-.66.29-1.32.57-1.98.85-.05.02-.11.02-.17.03-.48.09-.97.12-1.42.28-.24.09-.46.11-.7.13-.34.04-.63-.06-.86-.32-.2-.23-.38-.48-.57-.73-.03-.03-.05-.09-.04-.13.11-.27.16-.6.54-.76-.1-.03-.18-.05-.25-.07.02-.02.04-.05.06-.07,0-.03.01-.05.03-.08.02-.02.05-.03.06-.06.4-.82,1.22-1.06,1.96-1.37.51-.21,1.08-.27,1.61-.45.6-.21,1.23-.1,1.85-.26-.1-.23,0-.32.26-.3.17.01.35,0,.44-.21.02-.04.16-.03.23-.06.29-.13.58-.26.87-.39-.02-.26.05-.33.31-.34.27,0,.57.03.71-.3.02-.05.13-.07.2-.09.46-.13.92-.26,1.38-.38.11-.03.23-.06.34-.09,0-.03,0-.05-.01-.08-.31.02-.63.02-.93.08-.29.06-.56.18-.85.25.15-.31.48-.27.72-.39.11-.05.21-.11.32-.15.18-.07.35-.15.54-.18.37-.06.68-.27,1.03-.36.31-.08.63-.09.95-.11.71-.04,1.41.05,2.12-.11.64-.14,1.3-.17,2.02-.26-.13.11-.22.22-.34.29-.49.28-.98.55-1.47.83-.52.3-1.03.6-1.56.89-.08.04-.19.03-.23.07-.1.1-.19.23-.32.3-.49.28-.99.52-1.47.81-.34.2-.64.47-.98.66-.66.37-1.25.81-1.82,1.29-.08.06-.21.07-.31.1-.13.04-.25.07-.37.17h.25c-.2.46-.41.01-.64.05.09.08.16.14.24.21-.3.28-.66.34-.96.11ZM36.29,48.05c-.07.39-.15.78-.23,1.19.02.01.07.05.11.08-.01.03-.02.06-.03.06-.23.04-.34.2-.42.4-.13.29-.41.52-.4.88,0,.01-.02.03-.03.04-.53.36-.74.95-1.05,1.46-.43.7-1.03,1.26-1.51,1.92-.03.04-.09.12-.08.13.18.19-.05.3-.12.38-.33.42-.7.8-1.04,1.21-.18.21-.39.42-.49.66-.21.56-.71.88-.99,1.38-.24.43-.58.82-.92,1.18-.16.17-.42.23-.64.34-.1.05-.22.09-.29.17-.35.42-.89.51-1.31.79-.38.26-.86.31-1.22.62-.19.16-.46.35-.78.27-.04-.01-.1.03-.14.06-.22.13-.43.29-.67.38-.25.1-.53.15-.8.18-.23.02-.41.1-.55.28-.27.34-.68.29-1.04.29-.3,0-.58-.01-.89.07-.35.09-.73.03-1.1.04-.18,0-.36.05-.54.06-.23.01-.45,0-.68,0-.51-.01-1.02-.03-1.54-.04-.04,0-.09,0-.2-.02.28-.2.51-.37.74-.53.78-.55,1.56-1.1,2.34-1.66.27-.2.53-.43.77-.67.05-.05.05-.15.07-.24.46-.35.96-.73,1.46-1.1-.01-.04-.02-.08-.03-.12-.21.02-.41.04-.62.06-.02,0-.04.01-.05.02-.09.19-.17.38-.26.57-.11.03-.24.07-.38.1-.02-.02-.04-.04-.05-.07.04,0,.08-.01.16-.03-.13-.06-.2-.1-.25-.12-.25.3-.49.59-.77.93.09.27-.27.25-.44.36-.16.1-.38.12-.58.18q-.18-.22.36-.42c-.1-.03-.17-.06-.3-.1.28-.22.53-.41.8-.62-.04-.12-.17-.14-.3-.05-.34.23-.7.45-1.01.72-.28.24-.49.56-.77.8-.28.24-.6.43-.9.65-.17.13-.33.3-.52.38-.4.18-.78.46-1.26.37-.14-.03-.27-.12-.34-.14-.04-.15-.04-.31-.1-.33-.29-.12-.59-.2-.95-.31.03.15.05.22.07.33-.74-.3-1.46-.58-2.19-.87.1-.15.15-.23.22-.34,1.39-.18,2.54.42,3.6,1.29.02-.03.04-.06.06-.1-.22-.19-.43-.4-.66-.58-.55-.42-1.08-.88-1.81-.96-.37-.04-.75-.08-1.12-.12-.18-.02-.36-.04-.53-.09-.15-.04-.32-.08-.17-.33.08-.14.04-.35.06-.53,0-.05.02-.11.06-.14.21-.17.43-.33.65-.5-.03-.01-.08-.04-.14-.07.52-.41,1.02-.82,1.54-1.2.5-.37,1.01-.73,1.53-1.08.21-.14.46-.24.69-.37.55-.32,1.1-.65,1.64-.99.46-.29.9-.61,1.36-.89.48-.29.98-.55,1.48-.81.09-.05.21-.04.27-.05.19-.12.36-.26.54-.34,1.49-.7,2.98-1.39,4.48-2.07.93-.42,1.88-.8,2.83-1.19.92-.38,1.85-.75,2.78-1.14.25-.1.47-.28.72-.37.47-.16.96-.28,1.44-.42.33-.1.65-.23.98-.34.12-.04.25-.08.4-.07-.3.27-.58.56-.89.81-1.15.9-2.31,1.79-3.48,2.66-.57.42-1.18.78-1.76,1.18-.49.34-.98.69-1.46,1.05-.09.06-.14.17-.18.3.17-.11.34-.22.51-.33,0,0,0,.01.01.02l-2.36,1.77s0,.07,0,.11c.07.02.14.05.21.07-.06.06-.08.09-.09.09-.48-.18-.62.27-.88.48-.17.14-.31.32-.49.51.32.04.61.07.89.11,0,.03,0,.06.01.08-.25.18-.32.53-.73.56-.19.01-.38.21-.57.32-.16.09-.32.16-.48.23-.02-.03-.04-.05-.05-.08.25-.18.5-.35.74-.52-.02-.15-.03-.29-.04-.4-.41.35-.82.71-1.24,1.07.01.02.02.04.04.06.07-.01.15-.03.22-.04,0,.02,0,.04.01.06-.22.04-.44.08-.66.13.45.32.84-.08,1.29-.02l-1.53,1.03s.02.06.03.09c.3-.11.6-.21.89-.34.15-.07.28-.18.42-.27.22-.13.44-.22.54-.5.05-.14.25-.23.38-.34.3-.23.61-.43.9-.67.25-.21.47-.45.71-.66.74-.64,1.49-1.26,2.23-1.9.72-.62,1.4-1.28,2.14-1.88.41-.33.8-.68,1.21-1,.49-.39.96-.82,1.44-1.22.39-.33.81-.63,1.2-.97.6-.51,1.17-1.05,1.77-1.54.27-.22.61-.35.94-.54.1.32.16.55.23.77.02.06.02.12.01.18-.04.25-.08.49-.13.74ZM24.84,54.72c-.05.37-.28.57-.69.57.16-.23.3-.44.45-.65.06.02.15.05.24.08ZM41.82,105.83c-.05-.32-.09-.56-.13-.82.23.05.27.29.13.82ZM41.92,104.81c-.26-.28-.25-.38.03-.49,0,.15-.02.29-.03.49ZM41.81,104.17c-.07-.09-.18-.17-.19-.27,0-.07.11-.16.17-.24.06.08.13.15.22.26-.09.11-.14.18-.2.25ZM42.61,120.25c.02.08-.09.18-.19.36-.04-.23-.07-.39-.1-.56.02-.02.04-.04.05-.07.08.09.21.16.24.27ZM43.79,90.86c-.05.07-.17.09-.26.14-.01-.04-.03-.07-.04-.11.05-.02.11-.04.18-.06-.19-.22-.2-.46-.1-.71.02-.05.1-.09.16-.13.03.05.08.09.09.15.08.24.15.49-.03.72ZM43.53,89.05c.09-.18-.04-.44.29-.55-.06.19-.12.39-.18.58-.04-.01-.07-.02-.11-.03ZM43.98,87.85s.11.04.17.08c-.17.14-.34.28-.52.41-.01-.01-.03-.03-.04-.04.13-.15.25-.31.39-.45Z"/>
      <path class="cls-1" d="M76.79,44.62c-.22-.26-.79-.17-.98.13-.31.48-.61.97-.89,1.41-.03.26-.05.49-.08.74-.15.03-.28.06-.42.09-1.06.26-2.12.52-3.18.79-.16.04-.32.13-.23.38.08-.03.15-.06.22-.08.48-.17.95-.39,1.44-.48.4-.08.83-.02,1.25,0,.5.02.99.05,1.52.08-.05.12-.1.22-.14.32-.19.42-.38.84-.56,1.26-.15.35-.31.7-.43,1.06-.14.42-.4.83-.31,1.31-.1.05-.2.09-.29.14,0,.52-.31.89-.58,1.26.04.04.13.1.12.11-.1.25-.2.5-.34.73-.15.26-.44.4-.57.7-.22.49-.51.94-.76,1.42-.03.06,0,.16,0,.19-.1.11-.21.19-.26.3-.21.38-.4.77-.61,1.15-.17.3-.32.61-.66.77-.02.01-.04.04-.06.07.06.02.1.04.15.05q-.29.47-.61.49c.14.03.2.05.29.07-.09.13-.16.25-.25.36-.44.51-.93.98-1.3,1.54-.39.59-.93,1.02-1.38,1.54-.14.16-.34.27-.49.42-.7.67-1.4,1.35-2.09,2.03-.29.29-.56.6-.85.89-.12.13-.26.24-.45.42.22.03.44.11.48.05.22-.29.53-.45.83-.63.03-.02.04-.07.07-.1.06-.06.12-.16.19-.18.15-.05.28-.1.37-.25.07-.11.19-.2.29-.28.16-.12.35-.22.5-.35.35-.32.7-.64,1.03-.98.27-.29.72-.38.87-.79.05-.13.1-.27.15-.4.03.04.07.08.1.11.08-.13.14-.28.25-.39.59-.6,1.2-1.19,1.62-1.94.18-.31.44-.57.66-.86.22-.29.42-.59.63-.88.04-.05.07-.11.11-.16.19-.22.38-.44.57-.67.02-.02.03-.04.05-.08h-.24c.15-.25.29-.48.43-.71.13-.2.28-.4.4-.6.08-.13.12-.27.2-.4.29-.5.6-.98.87-1.49.16-.31.26-.65.41-.97.07-.16.2-.31.28-.47.12-.25.21-.52.33-.77.12-.25.3-.47.4-.73.29-.73.54-1.47.83-2.2.14-.35.36-.67.49-1.01.2-.51.38-1.03.53-1.56.13-.43.24-.87.29-1.32.02-.21-.06-.48-.2-.64Z"/>
      <path class="cls-1" d="M62.84,64.03c.3-.41.62-.82.91-1.24.3-.42.56-.86.87-1.27.33-.44.7-.85,1.02-1.29.1-.13.11-.33.15-.5-.35.32-.71.63-1.04.96-.35.34-.69.67-1,1.04-.43.5-.82,1.04-1.22,1.54.01,0,.08,0,.14.02-.09.12-.19.22-.26.34-.16.24-.28.53-.48.72-.21.19-.42.37-.57.6-.09.14-.34.26-.16.45-.14.12-.27.23-.38.36-.09.1-.17.22-.26.33-.05.06-.13.11-.18.18-.16.23-.4.38-.48.7-.05.2-.33.33-.49.5-.13.14-.27.28-.38.43-.05.07-.04.2-.1.27-.3.34-.62.65-.91,1-.59.7-1.11,1.46-1.83,2.05-.49.4-.96.84-1.42,1.27-.5.47-.97.97-1.46,1.45-.08.08-.2.12-.29.2-.21.19-.4.41-.62.6-.73.62-1.12,1.47-1.67,2.27.16-.02.28-.04.4-.05-.17.25-.36.46-.48.7-.45.85-.87,1.71-1.55,2.42-.31.33-.56.72-.82,1.1-.04.05,0,.15-.01.23.07,0,.17.01.2-.02.31-.43.76-.71,1.16-1.04.71-.59,1.21-1.35,1.65-2.16.42-.77.72-1.62,1.38-2.25.06-.06.07-.17.13-.23.24-.23.5-.45.75-.69.11-.11.2-.24.32-.35.18-.17.38-.33.56-.5.28-.25.56-.5.83-.77.11-.11.14-.29.26-.38.82-.59,1.44-1.36,2.09-2.12.56-.65,1.06-1.35,1.61-2.01.53-.62,1.05-1.25,1.52-1.93.69-.99,1.43-1.95,2.15-2.93Z"/>
      <path class="cls-1" d="M65.79,59.72s0,0,0,0h0c.28-.04.35-.16.34-.58-.24.15-.47.29-.7.43.15.06.25.11.35.15,0,0,0,0,0,.01,0,0,0,0,.01-.01h0Z"/>
      <path class="cls-1" d="M20.42,35.44c-.1-.11-.19-.23-.26-.36-.37-.68-.71-1.39-1.39-1.84-.04-.03-.07-.06-.09-.1-.41-.71-.83-1.42-1.21-2.14-.38-.73-.72-1.48-1.09-2.24-.09.08-.18.15-.29.25.14.05.24.08.28.09.04.14.07.23.1.33.04.12.13.23.12.35,0,.22.03.4.14.61.09.15.24.38.07.51.12.16.24.3.32.45.17.3.33.61.49.91.12.22.23.44.36.65.21.36.5.69.64,1.07.1.26.19.48.4.65.06.13.12.26.22.32.14.08.22.14.08.26.11.09.23.15.3.24.26.32.48.68.75.99.63.71,1.29,1.39,2.02,2,.64.53,1.25,1.11,1.98,1.52.18.1.39.14.57.25.36.22.67.55,1.06.68.85.29,1.72.5,2.59.7.26.06.54.36.83.04-.05-.03-.11-.06-.17-.09-.47-.18-.95-.33-1.4-.56-.81-.41-1.63-.84-2.4-1.32-.75-.47-1.47-1-2.17-1.54-.61-.46-1.2-.94-1.76-1.46-.4-.37-.74-.82-1.1-1.24Z"/>
      <path class="cls-1" d="M57.51,18.79c.05-.15.01-.31.2-.37-.05-.17-.09-.31-.13-.42-.1-.04-.19-.07-.36-.14.12.17.2.3.29.42-.02.01-.03.02-.05.03-.08-.04-.15-.08-.27-.15-.05.34-.07.64-.15.93-.24.91-.49,1.82-.74,2.73-.05.17-.08.34-.15.5-.04.1-.12.18-.17.28-.26.52-.48,1.07-.78,1.57-.38.62-.84,1.2-1.27,1.79-.2.27-.41.54-.62.81-.16.21-.32.42-.49.63-.11.14-.2.28-.32.4-.23.22-.47.43-.7.65.57-.04.77-.54,1.13-.83.33-.26.53-.65.86-.92.1-.08.19-.17.27-.27.14-.16.27-.32.4-.48.25-.31.5-.61.74-.93.24-.32.42-.69.68-1,.2-.24.31-.48.33-.78,0-.05.04-.1.07-.15.1-.17.21-.34.31-.51.01-.02,0-.05,0-.08.04-.23,0-.54.15-.68.26-.27.01-.67.3-.91,0,0-.08-.12-.13-.2.09-.03.17-.05.29-.09-.06-.09-.11-.17-.13-.21.09-.18.17-.34.27-.52,0-.05-.06-.18-.02-.24.19-.27.1-.59.19-.87Z"/>
      <path class="cls-1" d="M54.16,15.55c0,.11.02.22.03.36.1.08.24.18.45.35.03-1.16.06-2.25.09-3.36-.16,0-.32-.1-.34.17-.05.65-.13,1.3-.19,1.95-.02.18-.03.36-.03.54Z"/>
      <path class="cls-1" d="M41.56,102.05c-.28-.01-.35.19-.44.41.08.04.16.07.23.11,0-.02.02-.03.03-.05-.04-.04-.08-.09-.16-.19.31-.04.58-.08.94-.13-.16-.11-.26-.18-.38-.26.03-.36.06-.75.1-1.15-.09.05-.15.09-.22.13.12-.25.02-.48.05-.71.07-.41.35-.83.08-1.26,0,0,0,0,.01-.02-.08.05-.18.1-.2.17-.07.23.07.51-.16.71-.01.01,0,.05,0,.08-.01.4-.03.79-.04,1.21.04,0,.13.01.3.03-.17.11-.27.17-.38.24,0,.02,0,.04,0,.06.1-.01.19-.02.37-.04-.18.14-.3.23-.42.33v.08c.09.01.19.01.28.04.05.01.08.06.12.09-.03.04-.07.11-.1.11Z"/>
      <path class="cls-1" d="M41.81,98.91s-.02.02-.02.02c.01,0,.02-.01.03-.02h0Z"/>
      <path class="cls-1" d="M67.29,57.62s-.13.04-.19.06c.01.02.02.04.04.07-.12.18-.29.3-.58.21.03.08.05.14.07.2-.21.27-.41.54-.66.87.23.02.43.04.63.06-.01-.03-.02-.07-.03-.1.08-.11.14-.24.23-.34.16-.18.34-.33.5-.51.05-.05.04-.16.08-.23.03-.05.15-.08.15-.12,0-.07-.06-.14-.1-.21.43-.07.77-.56.71-1-.35.28-.73.55-.83,1.03Z"/>
      <path class="cls-1" d="M69.21,55.02c-.19.22-.36.45-.54.68.04.03.08.06.12.09,1.01-.7,1.68-1.71,2.4-2.71-.21.11-.41.22-.62.33-.05.03-.1.05-.21.11.16.03.25.05.32.06-.25.24-.5.47-.74.7.04.06.07.11.14.22-.14-.06-.2-.09-.26-.12-.22.22-.42.42-.61.63Z"/>
      <path class="cls-1" d="M57.68,15.95c.16-.18.3-.33.4-.45-.19-.42,0-.86-.08-1.36-.08.14-.17.24-.18.34-.06.39-.09.77-.13,1.16-.03.24-.06.47-.1.71-.06.32-.14.65-.2.97,0,.04.04.09.07.16.12-.08.23-.15.35-.24-.1-.07-.17-.12-.27-.18.17-.19.33-.36.47-.52-.07-.08-.14-.15-.24-.26.14-.05.22-.08.38-.13-.18-.08-.29-.14-.46-.21Z"/>
      <path class="cls-1" d="M37.27,96.81c-.18-.29.06-.2.07-.25-.01-.17-.03-.34-.05-.55-.11.04-.2.08-.26.1,0,.13.03.21.02.3-.02.2-.07.39-.07.59,0,.46.02.92.03,1.39,0,.12.03.25.05.42.01-.01-.03.02-.07.06.11.06.21.12.32.18.01-.06.03-.09.02-.12-.11-.48-.05-.98.02-1.45.04-.25,0-.52-.08-.66Z"/>
      <path class="cls-1" d="M58.2,10.18c.06.02.12.03.2.05-.02-.16-.03-.29-.05-.43-.11.02-.2.03-.36.06.08.13.14.22.21.31-.26.08-.04.25-.07.37-.12.49-.12.99-.09,1.5.03.41-.04.82-.07,1.24,0,.04.03.07.05.11.03,0,.05,0,.08,0,.11-1.02.23-2.04.34-3.04-.07-.05-.16-.11-.24-.17Z"/>
      <path class="cls-1" d="M62.65,66.51c-.07.04-.11.16-.17.18-.21.05-.2.16-.11.27-.48.11-.71.55-1.13.75.08.09.14.16.2.23.63-.48,1.23-.93,1.83-1.39-.1-.07-.18-.15-.24-.15-.13,0-.26.05-.37.11Z"/>
      <path class="cls-1" d="M54.36,12.44c.03.11.15.19.25.3.06-.11.11-.23.17-.34-.05-.03-.09-.05-.13-.07.05-.06.09-.11.13-.15-.03,0-.05-.01-.08-.02,0-.09-.02-.19-.02-.28,0-.1,0-.21,0-.31,0-.02-.13-.05-.14-.03-.06.07-.12.15-.14.24-.02.08.02.17.04.26,0,0-.02,0-.03-.01-.02.14-.07.28-.04.41Z"/>
      <path class="cls-1" d="M41.95,97.95c-.02-.14-.05-.29-.07-.43-.01,0-.03,0-.04,0-.07.42-.14.83-.21,1.28.03.02.11.06.18.1.06-.2.14-.39.18-.6.02-.11-.02-.24-.04-.36Z"/>
      <polygon class="cls-1" points="41.81 98.91 41.82 98.91 41.81 98.91 41.81 98.91"/>
      <path class="cls-1" d="M23.71,32.22c-.03.16-.05.26-.06.36,0,.06-.01.14.02.18.12.16.25.31.39.44.07.06.18.08.27.11-.15-.32-.3-.64-.46-.96-.03-.06-.11-.1-.16-.13Z"/>
      <polygon class="cls-1" points="24.33 33.31 24.34 33.32 24.35 33.31 24.33 33.31"/>
      <path class="cls-1" d="M37.81,94.6c.02.09.03.15.04.19-.1.06-.19.1-.27.15,0,.02.01.05.02.07h.4c.05.22.08.39.12.59.35-.26-.14-.59.16-.82-.17-.07-.3-.12-.47-.18Z"/>
      <path class="cls-1" d="M56,64.08c-.05.36-.19.58-.51.7,0,.03,0,.05,0,.08.09-.02.21-.02.25-.07.2-.27.38-.55.56-.83.07-.1.13-.21.19-.31-.02-.02-.05-.04-.07-.06-.15.16-.4.31-.42.48Z"/>
      <path class="cls-1" d="M41.17,102.65c.03.3.27.46.44.39.07-.03.23-.53.17-.57-.07-.05-.18-.04-.27-.05.01.03.03.06.04.09-.02.13-.05.25-.08.42-.14-.14-.21-.21-.29-.28Z"/>
      <polygon class="cls-1" points="42.51 93.76 42.51 93.77 42.51 93.77 42.51 93.76"/>
      <path class="cls-1" d="M42.4,95.13c.04-.06.08-.13.07-.18-.09-.26-.09-.51.09-.74.12-.16.07-.3-.04-.44-.38.42-.17.89-.11,1.36Z"/>
      <path class="cls-1" d="M69.42,48.48c.44.08.73-.36,1.14-.36-.01-.04-.02-.08-.03-.12-.38.12-.76.25-1.15.37.01.04.02.07.03.11Z"/>
      <path class="cls-1" d="M72.02,48.48s.03.07.04.11c.44-.16.87-.32,1.31-.49-.52-.08-.9.25-1.35.38Z"/>
      <path class="cls-1" d="M23.83,31.62c-.18-.07-.36-.13-.54-.19-.02.03-.04.06-.06.09.13.1.25.21.39.31-.02.06-.05.14-.08.23.08.01.08,0,.29-.44Z"/>
      <path class="cls-1" d="M68.36,56.57c.08-.11.15-.23.22-.34-.22.03-.41.06-.63.08.08.13.13.19.17.26,0,0,0,0,0,0,0,0,0,0,0,0,0,0,0,0,0,0,.08.1.16.12.24,0Z"/>
      <path class="cls-1" d="M41.89,96.73c-.13.24-.09.52.13.71-.12-.35-.05-.61.18-.83q-.21-.06-.3.12Z"/>
      <path class="cls-1" d="M24.51,33.62c-.05-.1-.11-.19-.16-.29.04.22.07.44.12.69.14-.16.23-.26.32-.36-.09-.03-.17-.06-.26-.09,0,.02,0,.04-.01.06Z"/>
      <polygon class="cls-1" points="24.78 33.65 24.79 33.65 24.78 33.65 24.78 33.65"/>
      <path class="cls-1" d="M24.34,33.32s0,0,0,.01c0,0,0-.01,0-.02,0,0,0,0,0,0Z"/>
      <path class="cls-1" d="M71.53,52.56c-.16.11-.32.22-.54.37.22.04.34.06.47.08,0-.02.01-.04.02-.06-.07-.03-.13-.06-.2-.09.12-.07.22-.14.33-.2l-.07-.1Z"/>
      <path class="cls-1" d="M3.64,42.89s0,0,.02,0h0s0,0,0,0h0s0,0,0,0Z"/>
      <path class="cls-1" d="M2.82,43.35c.27-.15.54-.3.81-.46-.37-.03-.61.19-.81.46Z"/>
      <path class="cls-1" d="M42.17,95.92c.12-.15.23-.31.35-.46-.04-.03-.07-.05-.11-.08-.11.16-.23.31-.34.47.03.02.07.05.1.07Z"/>
      <path class="cls-1" d="M60.68,68.13s-.03.05-.05.07c.06.05.13.15.19.15.09,0,.19-.05.28-.09.02,0,.02-.06.02-.1-.07,0-.15,0-.22,0-.08,0-.15-.03-.23-.04Z"/>
      <path class="cls-1" d="M42.51,93.76s0,0,0,0c0,0,0-.01,0-.02,0,0,0,0,0,0Z"/>
      <path class="cls-1" d="M42.68,93.24s-.07-.01-.1-.02c-.02.18-.04.35-.06.53.17-.14.26-.3.16-.51Z"/>
      <path class="cls-1" d="M47.9,33.24c-.14.17-.29.35-.43.52.02.02.05.04.07.06.14-.18.28-.36.42-.53-.02-.02-.04-.03-.06-.05Z"/>
      <path class="cls-1" d="M63.12,45.92s-.05-.03-.07-.05c-.27.38-.54.75-.82,1.13.02.02.05.03.07.05l.82-1.13Z"/>
      <path class="cls-1" d="M21.37,57.47l-.58.44s.04.06.06.09c.35.04.41-.28.57-.48-.01-.02-.03-.04-.04-.06Z"/>
      <path class="cls-1" d="M14.86,52.55c.24-.03.42-.05.6-.07-.22-.24-.38-.22-.6.07Z"/>
    </g>
  </g>
</svg>