<?xml version="1.0" encoding="UTF-8"?>
<svg id="Layer_2" data-name="Layer 2" xmlns="http://www.w3.org/2000/svg" viewBox="0 0 61.9 112.21">
  <defs>
    <style>
      .cls-1 {
        fill: #000;
        stroke-width: 0px;
      }
    </style>
  </defs>
  <g id="illustrations">
    <g>
      <path class="cls-1" d="M1.2,64.96c-.02-.07-.03-.13-.05-.2-.01.02-.03.03-.04.05-.08-.06-.2-.11-.22-.19-.06-.22-.07-.45-.3-.59-.05-.03-.04-.24.01-.32.11-.17.09-.54-.08-.58-.27-.07-.23-.25-.2-.44,0-.06.03-.12.02-.17-.04-.23-.09-.45-.14-.7-.04,0-.1.01-.19.03.02-.07.01-.13.04-.18.11-.17.13-.32.04-.51-.14-.29-.04-.48.26-.63.4-.2.83-.17,1.25-.19.34-.01.62-.15.9-.3.33-.18.66-.37,1-.55.19-.1.3-.33.26-.53-.03-.16-.03-.32-.07-.48-.04-.15-.11-.3-.17-.44,0-.02-.02-.03-.02-.04,0-.84-.01-1.69,0-2.53,0-.22.08-.45.16-.66.12-.34.82-.65,1.25-.47.39.16.81.25,1.22.39.31.11.6.25.91.36.11.04.24.02.35.07.52.2,1.03.41,1.55.62.06.02.11.05.17.06.58.18.71.14.78-.45.04-.37.13-.72.18-1.08.03-.16.06-.21.2-.21.03-.28.07-.54.1-.81,0-.09-.01-.19-.05-.27-.12-.26-.14-.5-.02-.77.08-.18.05-.4.11-.59.04-.13.13-.27.24-.34.39-.25.84-.25,1.28-.21.11.01.23.04.34.04.89,0,1.59.46,2.3.91.17.11.33.24.5.36.16-.18.31-.37.48-.56.16.11.23.09.32-.11.07-.16.28-.25.43-.37.02-.02.04-.03.06-.05.07-.05.14-.09.2-.13l.09.3c.17-.21.33-.41.51-.62.04.06.06.1.09.13.07.05.13.13.21.14.04,0,.1-.11.13-.18.09-.16.16-.32.24-.48.03.03.05.06.08.1.11-.02.21-.03.32-.05.41-.05.82-.12,1.23-.13.76-.01,1.3.42,1.79.94.12.13.29.22.4.36.15.21.25.46.4.67.16.23.35.42.52.64.46.61.95,1.21,1.37,1.85.33.5.64,1.02.88,1.56.22.51.38,1.05.47,1.59.1.65.12,1.32.13,1.98,0,.16-.05.33,0,.54-.11-.03-.18-.05-.25-.07-.01.03-.04.06-.03.07.18.27.03.53-.04.78-.03.12-.09.22.06.31.03.02-.01.16-.04.24-.03.1-.08.19-.11.29-.03.1-.04.2-.05.3-.05.34-.11.67-.16,1.04-.12-.05-.19-.07-.3-.11-.03.19-.05.35-.07.51.02,0,.03,0,.05.01.02-.06.05-.13.07-.19.1.15.2.29.33.47-.1,0-.16,0-.21,0-.33-.05-.4-.02-.44.3-.02.17-.07.32-.11.48-.08.29-.08.62-.07.92,0,.08.18.14.28.22.3-.58.04-1.25.58-1.7,0,.43.05.85-.15,1.26.02.04.08.13.07.21-.01.16-.06.33-.09.49-.13.71-.26,1.43-.41,2.14-.07.37-.19.73-.25,1.1-.05.27-.03.55-.07.81-.06.38-.15.75-.2,1.14-.05.4-.1.81-.1,1.21,0,.92.06,1.84.05,2.77,0,.97-.07,1.94-.1,2.91-.01.36.02.73.02,1.09,0,.33-.04.66-.02.98,0,.14.1.3.2.4.16.15.31.23.21.51-.05.13.12.32-.01.49.1.06.2.13.31.19.12.06.37.03.17.29-.02.02.07.12.12.18-.04.03-.09.07-.19.14.23.11.42.2.64.3-.01.05-.03.14-.04.18.11.11.2.2.33.33-.41-.02-.48-.08-.51-.33-.03.06-.08.13-.08.19,0,.07.06.16.11.18.17.08.35.16.54.19.3.06.37.34.55.52.34.35.65.73.95,1.11.17.21.3.44.44.67.03.04-.03.13-.01.18.04.08.11.21.17.22.3.02.64.27.74.55,0-.5-.04-1-.02-1.5.03-.52.11-1.04.17-1.56.06-.51.14-1.02.21-1.55.13.02.21.04.28.05,0-.01.01-.02.02-.04-.06-.04-.12-.07-.16-.1.1-.23.2-.45.3-.66.15-.31.32-.62.46-.93.26-.57.52-1.15.77-1.73.19-.44.36-.9.53-1.35.11-.3.18-.62.34-.89.72-1.27,1.25-2.63,1.85-3.96.46-1.02.82-2.08,1.23-3.12.32-.8.64-1.61.96-2.41.21-.51.44-1.01.62-1.53.12-.35.17-.73.24-1.1.05-.28.1-.55.14-.83,0-.06-.04-.12-.07-.18-.04-.09-.1-.17-.11-.26-.01-.14-.06-.19-.19-.23-.08-.03-.14-.17-.19-.27-.07-.15-.13-.31-.19-.47-.11-.27-.22-.54-.35-.8-.13-.25-.28-.49-.44-.72-.26-.36-.61-.67-.77-1.06-.1-.25-.34-.36-.39-.58-.12-.44-.19-.9-.28-1.35-.03-.16-.05-.33-.07-.43-.14-.1-.24-.17-.36-.25-.06-.04-.14-.07-.2-.11-.18-.11-.45-.09-.56-.35-.02-.05-.19-.04-.29-.06h0c-.17-.18-.33-.37-.5-.56-.02.02-.05.03-.07.05.02.07.03.14.07.26-.38.07-.75.13-1.14.2.05.03.08.05.12.07,0,.02-.01.04-.02.06-.13-.04-.27-.08-.4-.11,0,.01-.02.03-.02.04.04.04.09.08.13.12-.02.02-.03.04-.04.04-.45.08-.81.29-1.08.66-.1.14-.27.24-.38.38-.21.27-.44.54-.6.83-.1.18-.15.31-.37.17-.04-.03-.11-.02-.23-.03.08.08.1.12.14.15.26.16.26.18,0,.39-.07.06-.09.19-.15.27-.15.22-.12.56-.43.68-.05.02-.08.08-.12.13-.04.06-.09.11-.15.19-.05.43-.23.86-.49,1.27-.13-.3.25-1.61.44-1.74.04-.24.08-.43.12-.64.08.05.14.09.22.15l-.14-.44c.09.06.13.08.19.12.09-.16.17-.33.28-.48.09-.12.23-.22.36-.3,0-.12-.04-.26.19-.35.11-.04.17-.23.25-.35.16.09.16.09.18-.13,0-.04.04-.1.08-.13.51-.42,1-.88,1.53-1.26.24-.17.58-.2.9-.29.04.05.09.13.16.22.04-.25.08-.47.12-.68.03-.15,0-.21-.17-.18-.08.02-.19,0-.26-.05-.51-.3-.99-.66-1.52-.91-.81-.38-1.51-.92-2.22-1.44-.34-.24-.69-.46-1.02-.71-.2-.15-.37-.33-.56-.49-.3-.26-.61-.5-.9-.78-.28-.27-.52-.57-.79-.85-.13-.14-.28-.27-.42-.41-.26-.25-.54-.48-.78-.74-.31-.33-.6-.69-.89-1.04-.14-.17-.28-.35-.41-.52-.44-.57-.86-1.15-1.31-1.7-.63-.78-1.26-1.55-1.76-2.41-.24-.41-.45-.85-.66-1.27-.07-.14-.05-.25.07-.37.29-.33.58-.66,1.01-.79.37-.11.75-.17,1.13-.22.86-.11,1.73-.2,2.59-.31.04,0,.08-.02.18-.04-.11-.27-.21-.53-.31-.78-.08-.18-.19-.35-.24-.54-.19-.71-.19-1.43-.07-2.15.06-.35.35-.48.63-.57.55-.18,1.11-.27,1.69-.23.8.05,1.51.31,2.1.87.24.23.5.43.82.69.06-.23.11-.42.17-.6.09-.27.13-.57.38-.74.02-.88.18-1.68.97-2.22.06-.04.12-.08.18-.09.29-.06.59-.11.89-.16.05,0,.11,0,.14.02.48.32.95.67,1.44.97.29.18.52.4.7.69.19.3.28.3.56.08.21-.16.36-.31.69-.14.17.09.49-.13.75-.21,0,.03.01.1.02.16.12.08.6-.12.63-.27.08-.34.34-.48.63-.57.13-.04.28-.02.41-.04.02,0,.02-.09.05-.18.14.04.29.08.44.14.28.11.56.23.84.36.05.02.07.1.12.18-.35.05-.5-.43-.87-.2.28.16.55.32.84.48.02-.07.04-.14.07-.22.13.1.28.17.37.29.16.19.27.42.42.63.23.32.47.62.69.95.09.14.11.34.22.45.25.27.31.59.35.92,0,.06.07.12.11.17.1.15.08.29-.08.41.24.02.3.15.33.36.06.44.17.86.24,1.3.1.66.22,1.33.27,1.99.05.71.07,1.43.03,2.14-.05.91-.12,1.82-.25,2.73-.14,1.02-.31,2.04-.54,3.04-.26,1.16-.57,2.31-.9,3.45-.27.93-.57,1.86-.91,2.77-.4,1.08-.61,2.2-.86,3.31-.04.19-.13.38-.21.6.12.07.12.22,0,.4-.22.31-.15.66-.03.97.16.4.39.77.62,1.15.21-.81.85-1.34,1.23-2.03.27-.48.72-.86,1.06-1.31.26-.34.62-.62.66-1.11,0-.08.13-.14.22-.23.04.06.05.09.07.11.05.05.11.09.16.13.04-.07.11-.15.1-.21-.03-.17.04-.25.19-.29.43-.12.74-.44,1.08-.69.28-.2.58-.4.84-.63.58-.5,1.14-1.03,1.72-1.53,1.19-1.03,2.37-2.07,3.6-3.06,1.11-.89,2.25-1.75,3.4-2.58,1.97-1.42,4.06-2.62,6.43-3.26.23-.06.45-.15.68-.21.23-.06.45-.11.74-.18-.09-.11-.15-.24-.25-.31-.7-.52-1.13-1.25-1.51-2.01-.05-.1-.07-.23-.14-.32-.08-.12-.19-.2-.36-.09-.05.03-.16-.03-.26-.06-.03.09-.06.19-.1.32-.4-.4-.73-.06-1.05.08-.36.15-.7.38-1.04.59-.25.15-.51.29-.73.47-.37.31-.83.46-1.23.71-.08.05-.21.03-.31.05,0,.02,0,.04,0,.07.07.02.15.03.24.05.02.23-.2.31-.31.29-.21-.04-.24.06-.25.22-.09-.02-.17-.04-.24-.06-.17.21-.29.46-.6.55-.11.03-.21.26-.37.34-.21.11-.42.24-.58.33-.08.15-.12.31-.22.39-.36.29-.76.54-1.12.83-.16.13-.26.32-.41.45-.19.18-.4.33-.6.5-.08.07-.17.13-.31.23.13.02.18.04.26.05-.04.05-.05.09-.08.1-.44.11-.63.51-.93.78-.2.17-.38.37-.63.5-.17.09-.26.31-.4.46-.09.1-.18.19-.27.28-.09.08-.18.16-.27.25-.31.3-.61.61-.91.92-.2.2-.39.4-.6.63.1.06.16.1.22.14,0,0-.01.02-.02.02-.41.03-.63.24-.75.63-.03.1-.19.16-.28.25-.25.26-.48.52-.73.78-.02-.01-.04-.03-.06-.04.08-.11.17-.22.25-.33.07-.11.12-.25.2-.36.41-.59.8-1.21,1.26-1.76.45-.54.99-1.02,1.49-1.52.57-.57,1.11-1.18,1.71-1.72,1.15-1.03,2.33-2.03,3.5-3.05.32-.27.61-.58.93-.84.45-.35.93-.67,1.4-1.01.4-.29.78-.62,1.2-.87.67-.41,1.37-.78,2.06-1.14.19-.1.42-.17.62-.17.19,0,.38,0,.57-.03.05,0,.14.04.17.09.18.28.31.59.52.85.33.4.69.78,1.08,1.13.09.08.33,0,.49,0,.07,0,.15-.05.19-.02.28.15.56.07.83,0,.19-.05.37-.13.56-.16.12-.02.24,0,.44.02-.1.1-.14.14-.15.15.18.13.37.26.54.4.2.16.21.42.17.62-.14.71-.31,1.43-.52,2.13-.14.43-.38.83-.58,1.24-.23.49-.45.99-.7,1.48-.13.25-.3.48-.47.76.12,0,.17,0,.28.01-.11.28-.23.53-.32.79-.05.13-.06.27-.04.42-.2.21-.24.46-.21.76.02.29-.03.59-.34.74h0c.02-.17.03-.34.05-.52-.05.03-.11.08-.18.1-.12.03-.27.07-.33-.11-.04-.15-.02-.28.17-.35.12-.04.22-.13.41-.24-.33-.07-.37-.19-.28-.42.28-.68.53-1.38.79-2.07.51-1.33,1.03-2.65,1.55-3.98.02-.06.04-.11.09-.23-.45-.02-.88-.09-1.29-.03-.2.03-.37.3-.55.48-.13.13-.24.29-.36.43-.02.02-.06.04-.09.05-.17,0-.34,0-.54,0,.2-.22.4-.43.6-.65-.01-.02-.02-.04-.03-.06-.27.07-.55.13-.82.19-.13.03-.26.03-.38.08-.17.07-.34.17-.54.28-.24-.17-.29-.13-.42.42-.08-.16-.13-.25-.19-.36-.08.09-.18.2-.3.33-.12.01-.27-.21-.45-.04-.1.09-.24.14-.32.24-.11.13-.19.29-.28.44-.38-.24-.38-.24-.61.14-.06.09-.17.16-.24.22-.14-.01-.27-.02-.41-.03.02.12.03.19.04.29-.25-.02-.51-.07-.53.26-.22.08-.42.16-.64.24,0,.02.03.08.05.14-.12.09-.24.21-.38.26-.14.05-.3.03-.36.21-.03.07-.06.14-.11.2-.04.05-.13.12-.17.11-.38-.13-.53.25-.86.3.09.1.13.14.22.23-.17-.03-.27-.05-.4-.07l.11.35s-.05.02-.07.03c-.05-.07-.1-.14-.17-.23-.1.27-.56.21-.51.63-.17-.15-.21-.02-.31.1-.15.16-.38.26-.57.38-.45.3-.9.6-1.34.9-.08.06-.14.15-.21.23-.27.26-.53.52-.81.76-.41.35-.84.67-1.25,1.02-.4.35-.79.72-1.19,1.08-.46.41-.92.82-1.38,1.23-.68.6-1.36,1.21-2.05,1.8-.35.31-.76.56-1.08.89-.65.68-1.22,1.44-1.66,2.28-.23.43-.46.85-.72,1.32.31-.1.59-.18.87-.27.57-.17,1.14-.33,1.7-.51.15-.05.27-.16.41-.2.47-.12.94-.21,1.4-.34.37-.1.73-.24,1.09-.36.07-.02.19-.04.22,0,.28.32.56.07.84.03.18-.02.36-.08.54-.11.36-.06.73-.11,1.09-.17.16-.03.32-.09.49-.09.09,0,.19.08.33.14,0,0,.05-.02.1-.06.1-.07.18-.17.29-.2.81-.2,1.63-.4,2.44-.58.45-.1.91-.13,1.36-.22.25-.05.48-.15.72-.24.8-.29,1.61-.55,2.39-.88.49-.2.94-.5,1.4-.74.31-.16.63-.31.94-.47.05-.03.09-.12.09-.19.02-.37.14-.5.48-.41.24.07.29-.06.4-.2.14-.18.31-.34.49-.53.01-.07.04-.19.07-.3.02-.07.07-.12.09-.19q.13-.33.49-.11c-.26.43-.5.87-.79,1.28-.19.27-.5.45-.67.73-.52.82-1.37,1.17-2.17,1.6-.56.3-1.16.55-1.75.79-.29.12-.61.17-.91.27-.33.11-.65.26-.98.36-.13.04-.28,0-.41.02-.13.01-.26.03-.38.08-.17.07-.29.27-.51.16-.02-.01-.07.03-.11.04-.24.08-.48.2-.75.09-.07-.03-.22-.01-.26.04-.23.29-.59.24-.89.35-.03.01-.11-.08-.16-.13-.05-.05-.08-.11-.12-.16-.05.04-.1.09-.16.12-.09.05-.18.08-.27.13-.09.05-.2.09-.28.16-.12.09-.23.23-.41.07.18-.08.35-.16.52-.23l-.04-.11c-.15.06-.32.08-.44.18-.29.23-.62.31-.99.34-.9.08-1.8.14-2.69.28-.52.08-1.02.29-1.52.45-.43.14-.87.29-1.29.45-.47.18-.96.34-1.41.57-.45.23-.86.52-1.28.8-.06.04-.08.13-.11.2-.08.18-.16.37-.25.55-.08.16-.17.32-.27.46-.07.1-.17.17-.28.24-.13.18-.26.36-.38.55-.11.17-.15.35-.14.56,0,.07-.09.15-.13.23-.33.75-.67,1.49-.98,2.24-.39.93-.73,1.87-1.15,2.78-.53,1.15-1.13,2.27-1.69,3.41-.34.69-.73,1.35-1,2.07-.37.98-.8,1.94-1.31,2.85-.01.02-.01.05-.02.1.07,0,.14,0,.2,0,0,.01,0,.03,0,.05-.13.24-.27.48-.38.73-.09.19-.15.41-.24.6-.25.49-.3,1.01-.33,1.56-.04.59-.2,1.16-.32,1.74-.11.56-.05,1.1.06,1.59.07-.1.15-.22.24-.33.09-.12.17-.23.26-.35.03,0,.06.02.09.03-.05-.06-.09-.13-.14-.19.02.01.04.02.06.03.15-.28.29-.57.44-.85-.02-.02-.04-.03-.06-.05l-.23.07c.08-.12.14-.22.21-.31.14-.18.26-.39.43-.53.25-.22.52-.44.82-.59.23-.11.52-.1.78-.15.12-.02.24-.05.33-.11,1.04-.75,2.17-1.33,3.34-1.87,1.35-.62,2.8-.87,4.25-1.11.78-.13,1.55-.28,2.31-.46.38-.09.73-.28,1.1-.41.26-.09.53-.16.79-.26.23-.09.44-.22.66-.31.26-.11.53-.18.78-.31.76-.38,1.5-.81,2.28-1.15.32-.14.58-.32.82-.55.05-.05.15-.12.21-.1.33.1.47-.11.67-.32.14-.15.38-.2.57-.32.59-.36,1.17-.73,1.76-1.08.2-.12.43-.19.63-.3.2-.12.39-.27.59-.39.16-.09.33-.16.49-.25.04-.02.08-.06.09-.1.04-.11.06-.23.09-.33.33.1.71-.07.8-.31.1-.26.29-.38.54-.49.22-.1.41-.28.62-.41.39-.25.78-.49,1.16-.76.21-.15.38-.36.6-.56.12.06.27.11.33-.18.02-.11.24-.17.34-.28.16-.17.25-.42.44-.53.4-.23.53-.66.81-.97.11-.12.26-.22.37-.35.07-.08.12-.19.16-.29.04-.1.05-.2.08-.33-.09,0-.17.01-.24.02.29-.87.24-1.75.16-2.64-.03-.35-.04-.71-.07-1.07-.03-.39-.22-.69-.55-.92-.2-.14-.34-.36-.55-.48-.29-.16-.44-.43-.61-.69-.23-.34-.45-.69-.67-1.03-.21-.32-.41-.65-.65-.95-.2-.26-.45-.03-.65.03-.31.1-.6.26-.89.42-.09.05-.14.16-.22.25q-.47-.05-.46.27c-.49.03-.75.45-1.12.7-.27.19-.53.4-.81.57-.25.15-.52.26-.78.4-.31.17-.61.36-.92.54-.16.09-.31.27-.49.11-.24.23-.47.45-.7.68-.24.24-.52.36-.85.44-.14.03-.27.14-.39.23-.2.15-.37.33-.58.46-1.28.81-2.59,1.58-3.86,2.42-1.06.7-2.09,1.46-3.12,2.21-.64.46-1.28.94-1.91,1.43-.93.73-1.75,1.56-2.51,2.47-.36.43-.78.82-1.13,1.25-.62.79-1.21,1.6-1.82,2.4-.37.48-.74.95-1.13,1.41-.16.18-.36.33-.57.52-.06-.38.44-.36.4-.71-.1.11-.19.21-.28.31-.01,0-.03-.01-.04-.02.01-.07.03-.14.06-.29-.16.21-.28.36-.39.51-.02-.01-.04-.02-.07-.03.02-.08.03-.17.08-.24.19-.33.39-.65.58-.98.1-.16.17-.34.29-.49.29-.37.59-.73.91-1.08.18-.19.46-.32.57-.54.12-.24.25-.44.43-.64.62-.69,1.21-1.41,1.82-2.1.75-.84,1.54-1.63,2.44-2.3,1.55-1.15,3.09-2.31,4.66-3.43.81-.58,1.68-1.07,2.52-1.61.64-.4,1.29-.79,1.92-1.21.9-.61,1.77-1.26,2.66-1.88.11-.07.25-.12.38-.12.32,0,.51-.23.76-.37.16-.1.33-.19.49-.28.06-.03.14-.06.18-.11.28-.38.68-.58,1.09-.79.63-.33,1.23-.73,1.85-1.07.5-.27,1.01-.52,1.53-.73.23-.09.51-.07.78-.11.04.08.08.18.13.29l-.03.06c-.07-.08-.14-.16-.21-.24-.03.04-.05.07-.08.11.04.12,0,.26.26.22.19-.03.41.05.52.25.15.28.25.62.47.83.18.17.23.43.44.55.16.09.33.15.5.22-.08.07-.14.12.04.25.42.3.75.7.99,1.16.08.16.12.34.16.52.08.37.14.75.23,1.11.16.62.04,1.25.06,1.88.03.88-.2,1.71-.54,2.49-.33.76-.87,1.4-1.44,2-.41.43-.88.82-1.33,1.21-.09.08-.23.1-.35.14-.24.06-.42.17-.48.44-.02.08-.2.18-.28.16-.31-.08-.44.1-.55.32-.16.33-.39.47-.76.45-.05,0-.13.02-.16.06-.12.16-.22.33-.33.5-.29.19-.58.39-.88.58-.43.29-.85.58-1.28.85-.06.04-.15.04-.22.04-.16,0-.3.02-.3.23,0,.03-.02.07-.05.08-.21.12-.42.23-.63.36-.12.07-.22.16-.34.24-.05.03-.11.06-.16.06-.26,0-.26-.01-.26.27-.16.03-.32.06-.52.09.06.07.1.12.14.16,0,.02-.01.03-.02.05-.08-.03-.16-.05-.24-.08,0,.02.02.03.02.05-.29.13-.6.23-.87.39-.12.07-.23.15-.36.19-.01,0,0,.08,0,.12-.11,0-.22-.02-.35-.03-.02.3-.2.39-.47.43-.21.03-.4.13-.6.21-.04.01-.08.05-.09.09-.03.23-.12.27-.34.18-.2-.08-.31.06-.32.44-.93.39-1.89.78-2.85,1.19-.26.11-.51.28-.82.17-.01,0-.04,0-.05,0-.35.38-.85.31-1.28.43-.64.17-1.27.36-1.92.44-.54.07-1.07.17-1.57.38-.54.23-1.06.48-1.59.74-.57.27-1.12.57-1.69.83-.47.21-.96.36-1.42.6-.56.29-1.1.62-1.63.96-.35.23-.67.49-1.01.75-.1.08-.19.17-.3.27.09.07.15.11.24.17-.05.06-.1.12-.16.16-.22.18-.45.35-.67.53-.31.26-.35.64-.41,1-.06.33-.08.67-.34.93.03.19.43.28.12.55.09.03.16.06.17.06.02.28.04.52.06.76.11.15.24.29.34.46.03.05-.03.16-.02.23.04.34.1.67.14,1.01.03.22.03.44.07.65.04.21-.07.47.17.63.02.01.02.06.02.07-.19.35.16.69,0,1.05-.02.05.14.18.22.28-.18.08-.15.09-.19.4-.05.41.08.79.17,1.17.04.17.18.31.26.47.03.06.02.16-.01.22-.07.15-.14.26-.05.45.08.18.06.41.09.62.03.21.06.42.08.64,0,.1-.01.2-.02.3,0,.04,0,.09.03.12.17.16.09.33.06.51-.01.06.05.14.07.22.03.12.12.28.08.34-.16.21-.05.31.11.42.05.03.09.08.15.13-.16.15-.19.3-.06.49.05.07.01.21,0,.32.03.26.06.52.09.83-.09-.05-.13-.08-.17-.08-.03,0-.09.02-.1.05-.01.03,0,.09.02.11.12.11.25.21.36.33.03.03.04.14.01.18-.13.15-.06.22.09.3.06.03.1.12.19.24-.15-.03-.21-.04-.27-.05-.02.06-.07.13-.07.2-.02.22-.22.43-.03.66.03.04.04.1.03.15-.03.21-.08.42-.09.62,0,.05.07.12.13.16.05.04.11.05.15.13-.07,0-.15,0-.27,0,.09.08.14.12.2.18-.14.36-.36.71-.17,1.16.07.01.2.03.28.05-.01.28-.03.53-.04.79.09.02.16.04.23.06,0,.02-.01.03-.02.04-.11.15-.18.3-.1.5.05.13.1.3-.06.42-.04.03-.03.13-.03.2.02.27.06.53.05.8,0,.13-.1.26-.2.39.02-.31-.13-.45-.38-.53.1.64.42,1.23.16,1.89-.06-.03-.13-.05-.19-.08-.01.01-.02.03-.04.04.07.08.14.15.2.23-.01.02-.02.04-.04.06-.1-.06-.24-.09-.27-.17-.07-.18-.2-.39.08-.55-.25-.06-.35-.28-.26-.41-.06-.12-.14-.21-.17-.31-.11-.46-.2-.92-.32-1.38-.17-.71-.37-1.41-.53-2.12-.09-.39-.1-.79-.16-1.18-.06-.38-.17-.76-.2-1.15-.07-.98-.08-1.97-.18-2.95-.1-.93-.17-1.87-.13-2.81.01-.36-.03-.73-.03-1.09,0-.24.08-.48.06-.73-.05-.55-.1-1.11-.02-1.67.04-.28-.1-.58-.14-.87-.07-.48-.12-.96-.2-1.43-.07-.42-.18-.84-.26-1.26-.02-.11-.02-.23,0-.33.03-.15.11-.29-.06-.4-.01,0-.03-.03-.03-.04.09-.19-.02-.37-.04-.56,0-.09.08-.22-.08-.26-.01,0-.01-.11,0-.15.04-.08.1-.14.15-.22-.36-.25.02-.35.12-.53-.07-.04-.13-.07-.19-.12-.06-.05-.14-.12-.15-.19-.05-.37-.21-.68-.43-.99-.12-.18-.27-.42.06-.64-.52-.06-.68-.49-.97-.77-.15-.14-.25-.33-.41-.46-.44-.37-.76-.84-1.1-1.3-.23-.31-.49-.6-.73-.9-.11-.13-.21-.25-.33-.37-.08-.08-.17-.19-.27-.22-.24-.07-.49-.08-.72-.15-.12-.03-.26-.1-.33-.19-.42-.55-.83-1.11-1.23-1.68-.07-.1-.06-.28-.15-.36-.23-.21-.47-.41-.73-.58-.79-.5-1.56-1.03-2.46-1.33-.91-.3-1.82-.63-2.75-.88-.86-.24-1.7-.46-2.48-.92-.4-.23-.87-.33-1.29-.51-1.07-.46-2.13-.94-3.2-1.41-.54-.24-1.09-.47-1.64-.68-.1-.04-.23,0-.34-.01-.1-.01-.2-.04-.29-.08-.52-.28-.91-.71-1.26-1.18-.11-.14-.22-.31-.37-.39-.21-.12-.22-.28-.25-.49-.05-.32-.18-.62-.28-.93-.02,0-.04.01-.06.02-.04.1-.08.19-.12.29-.02,0-.04,0-.06,0-.04-.14-.06-.3-.14-.42-.14-.24-.18-.48-.12-.74,0-.03-.03-.07-.05-.1-.1-.16-.22-.31-.28-.48-.27-.69-.52-1.38-.77-2.07-.18-.5-.34-1.02-.51-1.53-.02-.05-.02-.1-.03-.15-.03-.26-.04-.52-.26-.72-.04-.03-.08-.1-.07-.13.11-.25-.04-.47-.09-.7-.01-.05.05-.12.08-.18-.02.18.02.32.24.39.02-.21-.06-.33-.24-.39ZM23.84,66.74c.07.02.15.03.17.04.03.2.05.36.08.53.03,0,.06,0,.1,0,.04-.06.1-.11.1-.17.02-.26.04-.52.04-.78,0-.05-.1-.15-.15-.15-.07,0-.15.07-.17.08.07.15.11.24.17.36l-.34.11c.02-.41.03-.83.07-1.24.03-.33.13-.66.17-.99.15-1.17.32-2.34.43-3.52.07-.73.13-1.46.07-2.19-.09-1.21-.53-2.33-1.23-3.32-.44-.62-.92-1.22-1.37-1.84-.5-.7-1-1.39-1.66-1.95-.13-.11-.26-.27-.41-.31-.31-.08-.65-.09-.97-.14-.33-.05-.63.02-.85.27-.12.13-.19.31-.43.23,0,0-.04.11-.06.16-.06,0-.16-.03-.18,0-.13.24-.4.26-.6.38-.16.09-.27.26-.4.4-.06.07-.1.17-.17.21-.16.1-.34.19-.49.26.55.81,1.14,1.64,1.69,2.49.53.81.98,1.66,1.29,2.58.31.94.63,1.87.79,2.84.02.12.11.24.13.36.05.44.06.88.12,1.32.07.56.21,1.11.26,1.67.07.87.07,1.75.1,2.62,0,.17.02.34.04.51.03.26.08.51.12.78-.04.04-.09.09-.16.16.28.13.21.3.11.49-.02.04-.04.12-.02.14.26.23.08.56.17.83.03.11-.02.25-.06.38-.05.2.09.35.12.52.11.56.05,1.14.23,1.7.08.24.06.52.08.78.04.66.33,1.24.58,1.83.15.36.32.72.46,1.08.09.24.14.5.23.75.16.49.33.97.5,1.46.11.31.22.62.32.94.04,0,.07-.02.11-.03.08-1.55-.06-3.08-.33-4.59.06-.02.13-.03.24-.06-.06-.08-.09-.14-.13-.19-.12-.13-.05-.29.04-.34.25-.12.16-.26.06-.41-.09-.14-.14-.26-.02-.4.14-.16.1-.29-.05-.4.04-.06.09-.1.09-.14-.04-.53.15-1.03.13-1.55,0-.32.14-.63.17-.96.04-.51.19-1.02.28-1.53.07-.36.11-.72.18-1.07.06-.33.14-.65.21-.98ZM34.99,35.45s0,.04-.01.05c-.05,0-.1.01-.15.02-.21.05-.4.08-.6.23-.29.22-.69.29-1.05.43-.16.06-.32.14-.47.23-.15.08-.2.21-.11.37.22.41.44.82.65,1.24.2.42.43.83.56,1.27.17.55.26,1.12.37,1.69.1.52.19,1.04.25,1.56.05.38.1.77.07,1.15-.07.89-.2,1.77-.3,2.66-.04.35-.1.69-.13,1.04-.02.33-.23.55-.45.85-.02-.4-.02-.72-.05-1.04-.08-.75,0-1.49.09-2.23.04-.38.16-.76.17-1.14.01-.37-.07-.74-.11-1.11-.07-.67-.21-1.32-.34-1.98-.06-.32-.14-.63-.23-.94-.14-.45-.33-.88-.48-1.33-.21-.63-.49-1.22-.89-1.75-.19-.26-.39-.51-.61-.76-.19-.21-.38-.44-.61-.6-.37-.25-.77-.46-1.17-.68-.05-.03-.13-.02-.19,0-.38.12-.66.37-.85.68-.1,0-.23-.01-.23,0-.07.25-.37.39-.3.7,0,.03-.02.08-.06.16-.02-.15-.03-.25-.04-.34-.03,0-.06,0-.09,0,0,.08,0,.15.01.23,0,.22.03.45.02.67-.02.59-.04,1.18-.07,1.76,0,.1-.02.23-.08.27-.13.09-.3.16-.45,0-.13-.13-.24-.27-.39-.38-.48-.36-.96-.74-1.47-1.06-.71-.44-1.51-.49-2.32-.45-.06,0-.15.05-.16.09-.08.47-.17.94-.2,1.41-.04.62.38,1.13.52,1.71.05.2.19.38.29.57.19.34.35.71.57,1.03.3.44.66.85.98,1.28.39.52.75,1.06,1.16,1.57.26.32.56.61.85.91.35.36.68.75,1.07,1.06.33.26.51.73,1.03.73.04,0,.09.05.12.1.36.65.99,1.09,1.28,1.79.17.39.45.74.68,1.11.1.17.19.34.28.51.02,0,.05-.01.07-.02-.04.06-.08.11-.14.2.31-.03.35.21.43.39.12.25.22.51.32.76.08.21.15.42.24.63.04.1.13.19.19.28-.02.03-.04.06-.05.09-.12-.05-.3-.05-.36-.14-.22-.33-.47-.63-.57-1.05-.06-.24-.31-.43-.45-.65-.41-.62-.8-1.26-1.23-1.87-.38-.52-.77-1.03-1.26-1.47-.59-.53-1.16-1.09-1.73-1.64-.25-.24-.48-.48-.71-.73-.34-.37-.69-.75-1.01-1.14-.27-.32-.52-.67-.77-1.01-.4-.53-.82-1.06-1.2-1.61-.11-.15-.22-.2-.39-.18-.27.02-.55.06-.8,0-.6-.13-1.18-.21-1.8-.14-.55.07-1.11.09-1.63.32-.25.11-.34.26-.22.5.18.38.38.75.6,1.11.16.27.37.51.56.75.42.55.84,1.1,1.27,1.65.3.39.59.77.89,1.15.35.45.68.91,1.04,1.35.24.29.52.55.79.81.12.12.28.2.4.32.16.16.27.36.44.51.45.4.92.77,1.38,1.15.25.21.52.4.77.61.31.28.59.61.92.86.53.39,1.1.75,1.65,1.1.34.22.72.39,1.06.61.44.28.86.59,1.29.89-.02.05-.04.1-.1.24.22-.16.32-.14.38.05.02.05.08.09.12.13.15.16.31.32.46.48.15.16.3.31.45.47l.06-.06c-.19-.24-.37-.48-.56-.72.02-.01.04-.03.06-.04.5.4,1.01.8,1.55,1.22.06-.86-.29-1.56-.61-2.28.09-.01.17-.02.29-.04-.28-.29-.57-.54-.38-.98.14.25.28.5.45.81-.09-.43-.15-.81-.25-1.17-.26-.95-.59-1.88-.81-2.84-.35-1.54-1.1-2.89-1.84-4.26-.35-.65-.77-1.27-1.12-1.92-.48-.89-.94-1.79-1.35-2.71-.14-.31-.38-.66-.16-1.05,0-.01-.03-.05-.06-.08l.19-.06c.03.17.02.35.09.49.14.31.3.6.48.89.24.39.37.83.68,1.2.31.38.44.9.66,1.36.23.49.44.98.68,1.46.44.84.9,1.67,1.3,2.41.02-.81.05-1.73.07-2.65.03,0,.05,0,.08,0,.08.14.2.26.24.41.04.15.04.33,0,.48-.16.7.02,1.36.2,2.01.44,1.59.91,3.18,1.37,4.77.02.08.05.17.08.25.06-.73-.2-1.44-.06-2.16.05.04.07.08.08.13.04.39.08.78.12,1.17.1.9.19,1.8.3,2.69.05.41.14.82.19,1.23.09.61.15,1.22.25,1.82.03.19.03.32-.18.39-.04.01-.08.06-.1.1,0,.02.04.1.06.1.27-.01.13.19.17.32.04-.05.08-.1.11-.14.01,0,.03.02.04.02-.04.12-.09.24-.13.36.02,0,.05.01.07.02.05-.04.1-.08.14-.12.02.01.04.03.06.04-.04.07-.08.13-.1.17.15.49.31.95.64,1.4.14-.56.25-1.08.39-1.58.13-.45.3-.89.45-1.34.02-.07.05-.15.06-.22.06-.56.1-1.12.19-1.67.09-.53.26-1.05.38-1.58.17-.75.32-1.5.5-2.24.28-1.2.6-2.38.85-3.58.15-.71.21-1.44.3-2.16.08-.66.17-1.33.23-2,.06-.68.13-1.37.06-2.05-.07-.76-.19-1.52-.33-2.28-.09-.5-.22-1-.38-1.48-.16-.46-.38-.9-.58-1.35-.02-.03-.07-.05-.09-.08-.06-.08-.11-.15-.16-.23h0c-.32-.4-.64-.8-.93-1.18-.15-.03-.28-.06-.4-.08,0-.02,0-.05,0-.07l.23-.07s.01-.05.02-.07c-.07-.03-.14-.09-.21-.09-.09,0-.18.05-.27.08-.02-.01-.04-.03-.06-.04.16-.11.24-.21.04-.29-.06.11-.12.2-.19.34-.06-.11-.1-.17-.14-.23,0,.02-.01.05-.02.07-.22-.04-.45-.08-.67-.13ZM4.35,60.83s-.05.02-.08.02c.01-.32-.11-.42-.41-.31-.25.09-.49.21-.73.33-.04.02-.07.06-.08.09-.23.5-.36.59-.89.52-.24-.03-.48-.13-.71-.21-.16-.05-.33-.13-.48,0-.07.06-.13.18-.11.26.08.42.17.83.28,1.24.14.52.29,1.04.46,1.56.52,1.61,1.03,3.22,1.57,4.82.38,1.13.86,2.22,1.47,3.25.41.69,1.01,1.18,1.74,1.49.78.33,1.57.65,2.35.97,1.05.42,2.11.85,3.16,1.26.67.27,1.34.56,2.03.78.93.3,1.88.53,2.81.83.8.26,1.57.59,2.35.9.27.11.54.23.86.38-.3-.51-.56-.97-.83-1.43-.19-.34-.41-.67-.57-1.02-.15-.31-.25-.65-.38-.97-.14-.32-.3-.64-.45-.96-.15-.33-.27-.68-.46-.98-.35-.57-.73-1.12-1.13-1.66-.28-.38-.57-.77-.9-1.11-.34-.35-.77-.61-1.09-.97-.35-.38-.78-.65-1.17-.97-.39-.32-.81-.6-1.23-.89-.65-.45-1.3-.89-1.96-1.34-.34-.24-.71-.45-1.03-.71-.56-.46-1.09-.94-1.56-1.5-.24-.29-.57-.52-.79-.82-.59-.79-1.14-1.6-1.71-2.4-.11-.15-.22-.3-.32-.45ZM20.28,73.69s.07-.02.1-.02c-.04-.27-.08-.55-.13-.82-.2-1.08-.45-2.16-.61-3.24-.13-.88-.14-1.78-.21-2.67-.04-.53-.11-1.05-.16-1.57-.04-.33-.09-.66-.13-1-.05-.46-.09-.93-.16-1.39-.07-.43-.17-.85-.27-1.27-.17-.72-.35-1.45-.54-2.17-.05-.2-.16-.38-.22-.57-.11-.32-.2-.65-.33-.96-.39-.96-.91-1.83-1.52-2.67-.39-.53-.78-1.07-1.21-1.56-.34-.39-.75-.72-1.15-1.05-.16-.14-.41-.31-.58-.27-.26.06-.43-.07-.63-.12-.09-.02-.21-.03-.28.02-.32.21-.43.19-.59-.15-.02-.05-.05-.09-.07-.13-.33.04-.44.12-.52.42-.13.53-.23,1.08-.3,1.62-.02.15-.1.29-.16.43-.11-.09-.23-.18-.37-.3,0,.06-.04.14-.01.18.06.08.16.13.23.2.06.06.15.13.16.21.01.05-.06.16-.12.19-.18.07-.19.18-.16.35.03.18,0,.37,0,.62.11.13.04.4-.07.71-.11.3-.2.54-.53.57.07.48.21.9.67,1.18-.13,0-.21,0-.23,0,.19.28.4.57.59.87.13.2.23.42.36.61.2.28.42.55.63.83.29.39.57.78.87,1.16.24.31.53.58.75.91.31.46.57.94.86,1.41.29.46.6.91.88,1.38.18.3.3.62.46.93.16.3.36.57.5.87.35.77.68,1.55,1,2.34.51,1.22,1,2.44,1.5,3.66.21.52.43,1.05.64,1.58.1.26.2.52.32.84-.18-.08-.28-.12-.46-.2.27.61.37,1.22.86,1.63.06.05.11.14.14.22.26.58.5,1.17.79,1.72.24.46.56.87,1.11,1.17l-.66-2.15c-.1-.09-.16-.23-.26-.32-.31-.26-.4-.62-.5-.98-.23-.83-.42-1.68-.64-2.51-.18-.71-.4-1.41-.55-2.13-.21-.97-.38-1.95-.57-2.92-.18-.91-.39-1.81-.58-2.72-.12-.56-.25-1.12-.32-1.68-.05-.38-.33-.74-.15-1.15,0-.02-.03-.06-.04-.09-.03-.1-.06-.2-.08-.3-.05-.29-.07-.59-.14-.88-.31-1.22-.63-2.43-.94-3.65-.02-.06,0-.13,0-.2.02,0,.05,0,.07-.01.09.22.18.43.26.66.2.55.42,1.09.57,1.65.26.98.48,1.97.7,2.96.15.69.27,1.39.4,2.09.07.39.15.78.23,1.17.09.47.2.93.28,1.4.07.39.08.79.17,1.18.19.84.4,1.68.62,2.52.12.47.28.92.42,1.38ZM15.28,70.36v.09c.05,0,.12,0,.19,0,.06,0,.13,0,.16.02.21.18.44.35.62.55.25.26.48.55.7.84.17.24.22.55.42.79.31.37.6.76.9,1.15.02,0,.04-.02.06-.03-.04-.13-.07-.27-.12-.39-.41-.98-.83-1.96-1.24-2.94-.41-.96-.8-1.93-1.22-2.88-.08-.18-.22-.33-.31-.5-.21-.4-.39-.81-.62-1.19-.51-.83-1.05-1.64-1.59-2.46-.56-.85-1.12-1.7-1.71-2.53-.28-.4-.62-.76-.91-1.16-.26-.37-.5-.75-.7-1.15-.2-.39-.37-.79-.49-1.21-.05-.17-.04-.35-.23-.44-.05-.03-.1-.06-.16-.09-.31-.15-.64-.27-.93-.44-.67-.41-1.38-.71-2.18-.79-.47-.05-.93-.19-1.44-.29-.04.92-.1,1.83-.04,2.77.06.96.26,1.87.74,2.68.47.78.84,1.64,1.56,2.23.02.09.01.2.07.26.18.2.38.37.58.55.73.69,1.43,1.4,2.2,2.05.97.82,2.16,1.34,3.15,2.14.26.21.57.36.84.56.3.23.58.48.87.72.09.07.21.1.28.19.25.3.49.62.76.96-.1-.02-.15-.02-.21-.03ZM29.14,97.52s-.07-.01-.1-.02c-.02.06-.05.12-.07.18-.15.53-.08,1.07-.03,1.61.08,1.03.13,2.07.2,3.1.04.59.09,1.18.18,1.76.11.78.25,1.56.4,2.34.04.2.14.39.2.57.12.67.23,1.34.35,2.02.3-.15.43-.88.26-1.03-.18-.15-.1-.32-.11-.49,0-.07,0-.14,0-.21-.04-.38-.09-.75-.13-1.13-.02-.17.01-.35-.01-.52-.04-.27-.14-.54-.16-.81-.04-.53-.03-1.07-.07-1.6-.03-.53-.06-1.06-.14-1.58-.08-.55-.21-1.09-.33-1.63-.11-.56-.24-1.11-.34-1.68-.05-.3-.06-.6-.1-.9ZM60.1,45.7c.39.19.84.06,1.08.51.06-.09.15-.18.14-.23-.04-.14-.09-.33-.2-.38-.32-.15-.65-.08-1.02.11ZM18.96,75.02s.06-.04.08-.06c-.13-.67-.32-.91-.75-.87.24.33.45.63.67.93ZM16.08,52.37c-.2.2-.38.39-.56.57.27.13.53-.11.56-.57ZM4.45,73.16s-.05.05-.07.08c.22.11.15.53.61.47-.21-.21-.37-.38-.53-.55ZM57.69,62.01s.08-.03.12-.05c-.15-.31-.31-.61-.46-.92-.02,0-.03.02-.05.03l.4.95ZM32.06,78.93c-.36.27-.41.43-.22.54.08-.18.15-.36.22-.54ZM24.91,84.05s-.05.04-.07.06c.14.17.16.43.49.53-.17-.24-.29-.41-.42-.59ZM24.09,67.87c.05-.19.09-.31.12-.43-.11.05-.22.1-.35.17.09.1.13.15.23.26ZM15.87,52.13c.16-.11.26-.18.38-.26-.22-.15-.33-.08-.38.26Z"/>
      <path class="cls-1" d="M55.64,25.18c-.15-.05-.31-.1-.44-.14-.6.14-1.03.51-1.44.94-.13.12-.29.22-.38.37-.47.77-.83,1.58-1.05,2.46-.35,1.4-.73,2.79-1.1,4.18-.38,1.45-.91,2.84-1.47,4.23-.06.14-.17.26-.25.39-.03-.01-.06-.03-.08-.04.02-.1.03-.2.05-.3.17-.7.35-1.4.52-2.09.21-.84.41-1.68.63-2.51.2-.75.41-1.5.62-2.24.2-.71.4-1.42.62-2.12.19-.61.35-1.24.61-1.83.48-1.05,1.29-1.78,2.34-2.26.28-.13.59-.17.86-.31.28-.15.52-.38.78-.57.09-.07.2-.13.31-.2l.11.35c.13-.11.22-.19.31-.28.07-.06.14-.2.18-.19.09.02.16.12.24.2.25-.04.54-.06.81-.14.49-.13.91.05,1.27.33.17.13.2.45.36.62.16.17.11.29.02.45-.22-.02-.38-.08-.41-.34-.04-.27-.29-.44-.71-.49.16.13.27.22.38.32.04.04.05.1.07.15.07.2.12.4.21.59.03.06.22.13.23.11.15-.22.33-.02.55-.1-.04.16-.06.26-.08.35-.04.15-.11.3.05.43.03.03.06.1.04.14-.09.24-.17.49-.28.72-.1.21-.11.2.04.49.05-.15.09-.25.12-.35.24,0,.26.04.22.36-.02.19-.01.39-.07.57-.11.39.05.75.09,1.12.08.62.06,1.25.07,1.87,0,.47.03.94-.01,1.4-.06.72-.06,1.47-.28,2.14-.28.83-.72,1.61-1.27,2.31-.29.36-.53.76-.84,1.11-.44.49-.91.95-1.37,1.42-.76.77-1.5,1.54-2.28,2.28-.34.32-.75.57-1.11.86-.2.16-.39.32-.56.5-.09.09-.12.23-.22.32-.15.14-.26.12-.27-.18-.08.12-.14.17-.17.25-.13.34-.42.5-.71.68-.29.18-.53.43-.8.65-.26.21-.52.42-.78.63-.32.25-.64.48-.95.73-.44.35-.87.7-1.3,1.05-.08.06-.12.17-.2.24-.28.24-.56.48-.85.72-.04.03-.08.07-.11.11-.16.21-.28.44-.56.57-.2.09-.3.37-.48.53-.26.24-.55.44-.82.67-.07.06-.15.15-.15.24-.04.39-.38.53-.59.77-.08.09-.15.18-.24.25-.08.07-.17.12-.29.2-.16.38-.34.81-.53,1.23-.1.23-.3.45-.3.67.02.53-.36.89-.49,1.34-.13.46-.29.92-.44,1.38-.02.05-.04.1-.07.14-.13.15-.14.28.04.4-.29.42-.57.83-.86,1.25.06.03.11.05.18.08-.04.06-.08.11-.12.16-.02,0-.04-.01-.04-.02-.04-.04-.08-.08-.12-.13-.04.05-.11.09-.12.15-.02.15-.07.22-.22.27-.1.04-.16.19-.22.3-.07.15-.12.31-.24.45,0-.09.01-.17.02-.24-.15.14-.32.26-.44.42-.17.24-.33.34-.47.27.43-.73.88-1.46,1.27-2.21.46-.88.89-1.77,1.31-2.67.22-.46.41-.94.57-1.42.27-.77.51-1.55.76-2.32.11-.36.2-.72.29-1.08-.19-.13-.17-.27.03-.39.04-.02.09-.07.09-.1.03-.76.28-1.49.41-2.23.06-.32.19-.63.25-.96.02-.12-.07-.25-.12-.4.1-.01.17-.02.18-.02-.02-.24-.05-.46-.06-.68-.01-.3,0-.59,0-.89,0-.77.03-1.53,0-2.3-.04-.84-.09-1.69-.22-2.53-.14-.88-.35-1.76-.56-2.63-.22-.92-.47-1.83-.73-2.73-.19-.65-.42-1.29-.63-1.94-.09-.29-.15-.6-.24-.89-.24-.72-.5-1.43-.73-2.15-.13-.4-.22-.82-.34-1.23-.13-.41-.28-.81-.4-1.22-.11-.38-.2-.76-.3-1.14-.08-.28-.19-.54-.24-.82-.04-.21,0-.43-.02-.64,0-.04-.04-.09-.07-.15l.23-.07c.07.26.12.54.2.8.24.72.49,1.43.74,2.15.22.64.44,1.27.66,1.91.16.47.32.93.44,1.41.07.29.28.53.3.84,0,.06.18.11.29.17-.03.04-.09.11-.14.18.1.33.19.65.3.96.13.38.28.75.39,1.12.16.52.3,1.04.45,1.56.26.93.53,1.85.76,2.78.14.58.25,1.17.32,1.77.12,1,.2,2.01.28,3.01.06.87,0,1.75-.1,2.61-.08.6-.08.6-.26.76.07.16.18.3.17.44,0,.17-.12.33-.18.49.03-.02.09-.04.15-.07.04.11.08.21.12.32.27-.11.42-.25.38-.56-.02-.16.02-.33.06-.49.14-.64.31-1.27.42-1.91.19-1.07.39-2.13.52-3.21.1-.8.1-1.62.13-2.42.01-.41-.03-.82-.03-1.23,0-.17.05-.34.06-.52,0-.19-.01-.38-.02-.58-.08-1.49-.12-2.99-.25-4.47-.08-.98-.3-1.94-.44-2.91-.06-.41-.12-.83-.11-1.25,0-.3.1-.61.17-.91.01-.05.08-.1.15-.13-.13.42-.08.8.15,1.16.03.05.04.15.02.2-.2.43.01.83.12,1.22.13.48.24.96.29,1.45,0,.08.06.15.09.23,0,.02.04.05.04.06-.13.24.11.42.09.65-.03.23-.03.48,0,.71.04.56.11,1.12.14,1.68.03.63.04,1.26.07,1.89,0,.13.1.26.09.38-.03.32.02.69-.32.92l.2-.06c.01.31,0,.61.04.91.06.38.04.74-.06,1.11-.06.22-.02.47-.03.73.07-.06.11-.09.13-.11-.08.51-.15,1.04-.24,1.56-.05.28-.16.54-.21.82-.08.43-.13.87-.21,1.3-.03.16-.11.31-.17.47-.02.06-.06.12-.05.17.11.58-.24,1.05-.35,1.58-.03.15-.05.31-.09.46-.04.15-.08.3-.16.44-.04.07-.13.11-.2.16.06.04.11.07.17.11.12-.14.23-.28.36-.41.52-.56.87-1.21,1.11-1.94.44-1.36.94-2.71,1.38-4.08.3-.92.53-1.86.79-2.79-.16-.32.21-.64.02-.97-.04-.08.02-.22.05-.33.29-1.02.58-2.04.88-3.06.15-.51.38-1,.48-1.51.23-1.11.4-2.22.6-3.34.04-.21.15-.45.09-.63-.18-.57-.03-1.11.1-1.65.12-.51.27-1.01.41-1.52-.3.07-.32-.18-.4-.41-.26-.84-.7-1.59-1.22-2.29-.42-.57-.83-1.15-1.24-1.74-.38-.55-.8-1.09-1.11-1.69-.47-.89-.85-1.83-1.27-2.74-.04-.08-.11-.14-.16-.22-.03-.04-.05-.1-.04-.14.05-.34-.02-.65-.14-.96-.01-.03-.03-.07-.03-.1.02-.24-.02-.45-.09-.69-.07-.25.02-.54.04-.83-.04.07-.08.14-.16.28,0-.18,0-.29.02-.4.03-.21.06-.41.09-.62,0-.04.02-.1,0-.13-.24-.29-.08-.61-.01-.89.05-.22.23-.41.37-.61.09-.13.2-.24.28-.37.26-.39.63-.62,1.05-.79.06-.02.18,0,.2.05.11.22.36.35.36.63,0,.02.03.04.06.07.11-.04.24-.06.33-.13.14-.11.17-.25.17-.45,0-1.38.06-2.76.6-4.06.35-.83.41-1.71.53-2.58.05-.37.11-.74.16-1.11.01-.12,0-.24-.03-.36-.05-.27.09-.39.33-.43.07-.01.14-.02.21-.04.19-.06.27,0,.33.2.19.63.42,1.25.6,1.88.16.56.26,1.13.45,1.69.08-.38.14-.78.26-1.15.14-.43.32-.85.51-1.27.15-.35.47-.43.81-.46.18-.02.28.05.29.24.04.56.08,1.12.15,1.67.12.91.31,1.81.41,2.71.08.65.07,1.31.09,1.97,0,.05.01.11,0,.16-.03.14-.08.28-.08.42,0,.19,0,.39.03.57.05.31.12.63.19.95.33-.1.29-.63.72-.52-.02-.31.18-.24.28-.24.25.4.48.76.69,1.12.1.18.17.39.25.59.02.05.05.11.07.16.05.22.11.44.14.66.03.22.08.45.03.65-.11.46-.25.92-.41,1.36-.3.82-.54,1.66-.67,2.52-.08.53-.22,1.06-.35,1.58-.17.69-.35,1.37-.54,2.05-.23.78-.44,1.57-.74,2.32-.17.43-.47.84-.79,1.19-.43.46-.7,1.07-.78,1.67-.06.53-.26,1.05-.4,1.57-.51.38-.43.98-.56,1.5-.13.54-.19,1.11-.29,1.66-.17.86-.33,1.72-.52,2.58-.11.46-.32.88-.42,1.34-.07.34-.31.59-.41.91-.07.22-.05.46-.1.68-.07.3-.06.61-.25.89-.13.19-.15.45-.19.69-.19,1.35-.59,2.64-1.04,3.93-.11.33-.2.66-.32.99-.24.65-.5,1.3-.75,1.95-.07.19-.14.39-.16.62.1-.09.2-.18.29-.28.48-.5.95-1,1.43-1.5.61-.64.93-1.46,1.35-2.21.5-.91,1.01-1.82,1.48-2.74.29-.56.51-1.15.79-1.71.3-.61.65-1.19.95-1.81.33-.68.62-1.38.93-2.08.15-.34.3-.68.45-1.03-.01-.05-.06-.14-.04-.19.22-.59.45-1.18.68-1.77.17-.41.39-.8.53-1.21.1-.32.12-.66.16-.99.02-.16.01-.32,0-.49,0-.05-.07-.1-.13-.18.02-.03.07-.1.14-.19-.08,0-.15,0-.24-.02,0-.16.02-.3.03-.45.21.02.34.11.23.35.05,0,.11,0,.12.03.11.25.23.49.3.75.09.34,0,.69-.12.99-.2.5-.19,1.05-.48,1.52-.2.32-.26.73-.39,1.09-.22.6-.42,1.2-.67,1.79-.36.84-.76,1.67-1.15,2.49-.26.53-.55,1.05-.81,1.58-.47.96-.91,1.95-1.41,2.9-.35.67-.78,1.3-1.17,1.95-.02.03-.02.08-.03.15.31-.02.37-.25.46-.47.04.09.07.16.09.21.47-.08.59-.67,1.12-.66-.38.47-.71.98-1.26,1.24-.08.16-.18.31-.29.45-.1.12-.23.23-.35.34-.11.1-.22.19-.34.27-.28.2-.57.36-.7.72-.1.29-.29.56-.5.79-.41.44-.85.85-1.3,1.25-.33.29-.54.64-.64,1.06,0,.02,0,.05.01.07.08,0,.15,0,.23,0-.06.59-.55,1.18-1.1,1.34-.06.02-.14-.02-.2-.01-.14.02-.29.11-.41.07-.2-.07-.27.05-.31.17-.12.37-.21.75-.31,1.13.21-.21.37-.46.58-.65.21-.19.5-.29.72-.47.95-.79,1.87-1.6,2.82-2.38,1.03-.85,2.08-1.67,3.13-2.51.75-.61,1.52-1.21,2.25-1.84.47-.4.89-.84,1.34-1.26.78-.74,1.56-1.47,2.32-2.23.68-.67,1.21-1.47,1.72-2.26.3-.46.59-.94.65-1.51.03-.33.12-.65.18-.98.01-.07.05-.15.08-.22.06-.13.13-.26.21-.41-.12-.02-.17-.03-.29-.05.12-.42.24-.81.35-1.19-.04.02-.11.06-.18.09-.02-.01-.04-.03-.05-.04.06-.12.12-.24.15-.3-.09-.14-.22-.25-.23-.37-.01-.2-.25-.36-.09-.58.01-.02-.1-.12-.15-.19-.04-.06-.13-.14-.12-.19.16-.68-.02-1.34-.08-2.01-.06-.66-.19-1.32-.28-1.97-.04-.29-.12-.57-.24-.84-.09-.19-.21-.36-.33-.54-.03-.04-.1-.05-.16-.08-.01.02-.02.03-.03.05.07.1.14.2.21.3-.01.03-.02.05-.03.08-.16-.03-.32-.04-.48-.08-.11-.03-.22-.14-.32-.12-.29.05-.56.15-.84.23-.13.04-.26.06-.38.12-.13.06-.25.16-.38.24,0,0,.03.03.07.09-.2.04-.38.06-.55.11-.11.04-.21.11-.29.2-.02.03.08.15.12.23ZM51.66,7.61c.2.26.27.52.14.84.11.1.19.22-.03.34.15.11.19,1.32.1,1.48.23.32.11.69.15,1.03.04.31,0,.63,0,.93.03.08.07.15.08.22.07.31-.04.62.07.94.08.25,0,.54.02.81.01.45.03.89.06,1.34.01.25.07.5.07.75,0,.48-.02.95-.04,1.43-.01.45-.03.9-.05,1.34-.01.19-.07.37-.09.56-.04.34.01.71-.12,1.02-.16.39-.06.75-.04,1.12,0,.18.1.36.17.57.17-.22.31-.39.43-.57.32-.47.48-1,.58-1.56.14-.81.32-1.61.43-2.41.08-.6.09-1.22.13-1.83.04-.56.1-1.12.1-1.68,0-1.14-.03-2.28-.08-3.42-.02-.58-.08-1.15-.15-1.73-.07-.53-.12-1.07-.36-1.6.22.16.43.33.65.49.03-.01.05-.03.08-.04-.02-.52,0-1.04-.06-1.56-.1-.78-.27-1.56-.39-2.34-.11-.74-.27-1.49-.19-2.25,0-.07-.04-.15-.06-.23-.08.06-.19.1-.22.17-.17.41-.37.82-.45,1.24-.13.64-.16,1.31-.24,1.96,0,.07-.05.13-.09.19-.07.12-.16.24-.22.37-.07.16-.13.33-.19.5-.21-.16-.34-.25-.47-.35-.03-.02-.03-.08-.04-.12-.04-.19-.06-.38-.11-.56-.29-1.06-.59-2.12-.88-3.19-.02-.06-.06-.12-.09-.19-.03,0-.06,0-.09,0-.09.52-.18,1.04-.28,1.56-.05.27-.09.55-.17.82-.18.66-.39,1.31-.57,1.96-.05.2-.03.42-.08.62-.11.47-.19.94-.05,1.42.13.46.22.92.35,1.38.18.58.4,1.15.57,1.74.16.56.3,1.12.44,1.69.12.48.23.96.34,1.44.07.27.14.54.21.81.1.43.21.85.3,1.28.06.3.19.62.14.91-.09.55.09,1.03.18,1.54.07.35.12.71.02,1.08-.06.22,0,.48.01.72.04,0,.09,0,.13,0,0-.19-.02-.38,0-.56.06-.51.03-1.02-.01-1.53-.07-.8-.09-1.6-.12-2.39,0-.36.06-.71.04-1.07-.03-.73-.09-1.46-.13-2.18-.02-.33-.04-.67-.04-1.01,0-.23.03-.47.02-.7,0-.33-.02-.67-.03-1,0-.1.03-.2.04-.33-.11-.09-.13-.2.08-.29-.09-.03-.15-.05-.15-.05.04-.36.08-.69.12-1.03-.07-.05-.12-.1-.17-.14.09-.1.17-.19.26-.28-.23-.17-.08-.29.05-.43ZM47.26,9.39c-.23.3-.43.58-.67.83-.21.22-.17.61-.52.73-.03,0-.03.13-.03.19.05.38.12.76.17,1.14.03.19.04.38.06.56.02.16.04.32.07.48.05.24.1.49.16.73.06.25.13.49.22.73.04.1.13.17.18.27.2.39.39.79.58,1.18.15.3.3.6.46.9.17.31.31.64.51.93.56.79,1.13,1.58,1.73,2.34.53.68.9,1.45,1.22,2.25.06.16.13.32.19.48.04,0,.08-.01.12-.02,0-.16.04-.33,0-.48-.09-.33-.25-.64-.32-.98-.04-.19-.13-.27-.3-.31-.06-.02-.13-.03-.21-.04.03-.13.08-.25.08-.36-.01-.58-.02-1.16-.08-1.73-.09-.83-.2-1.65-.34-2.47-.14-.8-.34-1.6-.52-2.39-.16-.67-.35-1.33-.51-2-.14-.59-.26-1.18-.4-1.77-.07-.28-.17-.56-.26-.85-.44.32-.68.85-1.22.91l-.38-1.25ZM54.52,15.97h.09c.07-.2.15-.41.22-.62.32-1.03.61-2.06.96-3.08.15-.45.14-.87,0-1.31-.12-.37-.3-.69-.7-.76-.01-.26-.02-.48-.03-.7h-.08c-.16.19-.32.38-.48.56.02.03.03.05.05.08.08-.03.17-.06.27-.1,0,.32-.28.12-.39.22,0,.4-.04.8-.02,1.2.04.68.11,1.37.16,2.05.03.4.03.8.02,1.21,0,.42-.04.83-.06,1.25ZM60.21,28.2c0-.3,0-.59-.01-.91-.4.27-.4.46.01.91ZM47.21,8.82s-.03-.06-.04-.09c-.06,0-.14-.03-.17,0-.11.1-.2.21-.28.33-.03.04-.03.12-.04.18.06,0,.15.02.18-.01.13-.12.24-.27.35-.4ZM60.28,29.9c.05-.16.1-.24.1-.33,0-.11-.06-.22-.06-.32,0-.15.04-.29.06-.47-.16.15-.23.79-.1,1.12ZM45.1,46.98s.08.03.12.04c.05-.19.11-.39.16-.58-.03,0-.05-.02-.08-.02-.07.19-.13.38-.2.57Z"/>
      <path class="cls-1" d="M52.26,66.2c0,.05.02.13,0,.16-.17.19-.36.38-.54.57-.1.1-.2.2-.3.29-.2.2-.4.4-.6.59-.04.04-.1.07-.14.11-.11.08-.21.17-.32.26-.16.14-.32.27-.49.41-.07.06-.17.1-.23.17-.18.22-.41.36-.64.52-.35.23-.64.53-.98.77-.08.06-.24,0-.36,0-.02-.03-.04-.06-.06-.1-.05.11-.07.25-.15.33-.09.09-.24.2-.35.19-.35-.05-.36-.05-.27.25-.17.11-.32.22-.51.34-.25-.23-.46.06-.6.2-.19.21-.43.29-.65.43-.26.16-.5.35-.75.53-.04.03-.1.08-.12.07-.3-.16-.47.08-.67.22-.22.15-.45.29-.67.43-.06.04-.12.09-.2.17.11.03.18.05.25.07-.25.15-.34.12-.39-.18-.19.14-.36.27-.53.4-.17.12-.34.23-.51.35-.23.16-.51.24-.69.5-.11.16-.36.21-.52.34-.33.24-.64.5-.97.74-.59.44-1.19.87-1.78,1.31-.56.42-1.11.84-1.65,1.27-.71.57-1.45,1.12-2.1,1.76-.56.56-1.1,1.16-1.47,1.89-.2.39-.51.72-.77,1.08-.15.2-.28.42-.43.62-.05.07-.14.13-.22.16-.1.03-.28.07-.31.03-.09-.14-.18-.32-.17-.48,0-.18.13-.35.18-.54.04-.19.04-.39.08-.59.03-.12.09-.25.17-.35.44-.52.88-1.04,1.35-1.54.7-.74,1.4-1.47,2.13-2.18.25-.25.57-.42.87-.62.7-.46,1.41-.91,2.12-1.37.98-.63,1.93-1.28,2.93-1.87.93-.55,1.91-1.02,2.86-1.54.28-.15.55-.31.82-.45.43-.22.87-.42,1.28-.66.65-.38,1.3-.79,1.93-1.2.77-.51,1.55-1.01,2.28-1.56.64-.49,1.23-1.06,1.84-1.59.3-.26.62-.49.94-.73.03.02.05.03.08.05Z"/>
      <path class="cls-1" d="M26.54,63.08l.14-.04c-.01.31-.03.61-.04.91-.01.31-.04.61-.04.92,0,.11.07.21.11.32.01.03,0,.07,0,.11.02.16.06.32.07.48,0,.13-.05.26-.06.4,0,.08.04.15.08.28q-.14.26-.01.36c.01.21.02.35.03.5,0,.04.03.09.02.12-.08.28-.01.54.12.79.02.04-.04.11-.04.16.03.33.07.65.11.98.03.26.03.53.1.78.08.24.03.46.06.69.04.34.06.68.1,1.02.04.41.08.81.12,1.22.02.28.02.57.06.85.04.28.13.55.2.81-.05.04-.1.08-.15.12.03.03.06.07.1.1.06.05.13.09.2.14-.08,0-.16.01-.26.02.05.12-.13.33.17.36-.21.19-.19.32.07.45-.15.18-.37.36-.09.59-.11.17-.02.29.09.41.02.02,0,.06,0,.1,0,.1-.06.24-.02.28.21.2.15.34,0,.41.05.18.11.32.12.46.06.91.12,1.82.15,2.73.02.57,0,1.13,0,1.7,0,.15-.07.19-.21.19-.13,0-.24,0-.25-.19-.02-.47-.04-.95-.06-1.42-.02-.41-.07-.81-.05-1.22.03-.91-.08-1.8-.15-2.7-.08-1.05-.16-2.1-.25-3.14-.05-.57-.13-1.14-.19-1.71-.08-.76-.14-1.53-.22-2.29-.09-.79-.21-1.57-.28-2.36-.08-.81-.13-1.62-.19-2.43-.03-.38-.07-.76-.07-1.14,0-.41-.01-.84.06-1.24.03-.18.04-.3-.04-.46-.04-.08.04-.29.13-.36.11-.07.29-.08.43-.06.05,0,.11.19.1.28-.01.1-.13.17-.17.27-.05.14-.07.3-.12.48Z"/>
      <path class="cls-1" d="M41.94,20.25c-.38-.32-.64-.27-1.06.17-.36.38-.53.83-.52,1.35,0,.12-.11.24-.19.39-.15-.2-.3-.33-.2-.58.17-.41.3-.83.46-1.24.26-.65.79-.99,1.47-.98.54.01,1.07.16,1.44.64.24.31.53.57.8.86.03.03.05.07.04.14-.16-.14-.31-.28-.47-.41,0,.02-.01.05-.02.07-.14-.01-.28-.03-.42-.04-.08,0-.21-.04-.23-.01-.04.07-.07.19-.04.26.12.29.24.58.42.84.44.63.92,1.23,1.37,1.87.52.74,1.02,1.5,1.25,2.4.04.13.08.26.1.4-.4-.88-.94-1.68-1.5-2.46-.54-.75-1.11-1.48-1.65-2.23-.12-.17-.22-.38-.28-.58-.12-.43-.38-.71-.79-.86h0Z"/>
      <path class="cls-1" d="M31.82,56.72c.1.23.25.44.3.68.08.33.09.67.12,1,.04.48.05.96.08,1.43.01.22.05.43.03.65-.05.8.13,1.6.01,2.39-.09.6.02,1.18.02,1.76,0,.41-.06.83-.11,1.24-.04.29-.12.58-.15.87-.01.1.06.21.12.31-.1.32-.26.62-.18,1,.03.17-.09.36-.12.55-.04.23-.06.46-.09.69-.02.11-.06.21-.09.32-.03,0-.05,0-.08-.01-.02-.07-.08-.17-.06-.21.22-.36-.12-.84.25-1.14-.04-.11-.12-.21-.11-.31.06-.59.15-1.18.21-1.77.04-.35.11-.71.05-1.04-.09-.55.02-1.09.02-1.63,0-.49.02-.98.02-1.47,0-.16-.01-.31,0-.47.01-.09.07-.17.12-.28-.39-.09-.09-.41-.15-.62-.1-.38-.09-.8-.12-1.2-.04-.51-.07-1.02-.13-1.53-.03-.23-.12-.44-.16-.67-.04-.22-.05-.44.21-.55,0,0,0,0,0,0Z"/>
      <path class="cls-1" d="M46.84,27.08c.18.4.37.79.55,1.19.07.15.14.31.2.47.01.03-.03.08-.05.13-.06-.03-.14-.04-.16-.08-.07-.18-.12-.37-.19-.56-.11-.31-.24-.61-.34-.93-.03-.1,0-.23,0-.34,0-.16.03-.34-.03-.48-.24-.63-.53-1.25-.76-1.88-.35-.95-.67-1.91-1-2.87-.03-.08-.05-.15-.07-.23.03-.01.06-.02.09-.03.73,1.78,1.46,3.57,2.2,5.38-.13.08-.25.14-.36.21-.03,0-.06.02-.08.03Z"/>
      <path class="cls-1" d="M39.94,22.06c.09.19.22.21.48.07.17.49-.08.9-.58.96-.11.01-.39-.21-.39-.32,0-.04.03-.1.06-.1.29-.07.18-.31.2-.49.07-.03.14-.07.23-.11Z"/>
      <path class="cls-1" d="M56.86,57.15c.1-.17.21-.35.31-.52.27-.46.54-.91.8-1.37.06-.11.12-.25.11-.37-.01-.23.11-.34.28-.44.09-.05.16-.13.28-.24-.02.11-.01.18-.04.24-.12.25-.24.5-.38.75-.2.37-.4.74-.61,1.11-.13.23-.27.46-.43.67-.07.09-.17.16-.26.24-.02-.02-.05-.05-.07-.07Z"/>
      <path class="cls-1" d="M31.21,72.07c.07-.79.29-1.55.32-2.41.32.33.32.4.14.48-.03.27-.03.51-.09.73-.1.4-.05.86-.37,1.19Z"/>
      <path class="cls-1" d="M41.93,20.24c-.22.18-.44.35-.67.52-.03.02-.11.01-.13-.01-.03-.02-.02-.09-.01-.13.07-.31.39-.46.82-.37,0,0,0,0,0,0Z"/>
      <path class="cls-1" d="M58.97,54.09c.06.21.06.41-.05.62-.09.18-.11.4-.16.6-.04.14-.08.28-.12.42-.29-.09-.14-.24-.1-.36.14-.43.29-.85.43-1.28,0,0,0,0,0,0Z"/>
      <path class="cls-1" d="M30.95,73.12c.31.1-.04.28.06.41-.24.16-.12.47-.27.67-.04.06-.08.12-.12.19-.02,0-.04-.02-.06-.02.05-.19.09-.39.15-.57.07-.23.17-.45.25-.67h0Z"/>
      <path class="cls-1" d="M42.51,55.81c-.04-.11-.06-.16-.09-.22-.07.03-.13.06-.2.08.2-.22.41-.41.57-.65.12-.18.09-.21.26-.21-.18.32-.35.63-.55.99Z"/>
      <path class="cls-1" d="M30.96,73.12s-.07-.05-.07-.07c.07-.28.15-.55.23-.84.09.05.16.09.27.15-.08.12-.15.23-.22.34-.02.03-.07.09-.06.1.21.24-.08.23-.16.32,0,0,0,0,0,0Z"/>
      <path class="cls-1" d="M48.09,30.41l-.44-1.44s.03,0,.04-.01l.44,1.44s-.03,0-.04.01Z"/>
      <path class="cls-1" d="M30.58,74.91c-.22-.15-.21-.27.04-.36-.01.12-.03.24-.04.36Z"/>
      <path class="cls-1" d="M57.18,44.85c-.03-.16-.05-.33-.08-.49.03,0,.05,0,.08,0,.06.16.13.32.08.49-.03,0-.06,0-.08,0Z"/>
      <path class="cls-1" d="M26.85,61.12c-.03.12-.05.24-.08.38-.19-.13-.18-.22.08-.38Z"/>
      <path class="cls-1" d="M28.09,39.4c-.2.05-.38.1-.59.15,0,.02-.01.08-.02.14-.02.01-.05.03-.07.04-.08-.11-.17-.22-.25-.33.13-.07.21-.09.26-.14.26-.36.44-.33.68.14Z"/>
      <path class="cls-1" d="M32.8,54.06c-.07-.08-.16-.19-.27-.31.05-.02.11-.04.2-.07-.07-.08-.13-.15-.21-.24,0-.02.02-.08.05-.17.14.13.26.25.36.35-.04.14-.08.28-.13.44Z"/>
      <path class="cls-1" d="M15.62,56.3c.3.67.6,1.34.9,2.01-.03.01-.06.03-.09.04l-.89-2.02s.05-.02.08-.03Z"/>
    </g>
  </g>
</svg>