<?xml version="1.0" encoding="UTF-8"?>
<svg id="_Слой_2" data-name="Слой 2" xmlns="http://www.w3.org/2000/svg" viewBox="0 0 406.14 283.96">
  <g id="_Слой_1-2" data-name="Слой 1">
    <path d="m129.62,44.22c-13.97-7.7-28.54-14.87-44.37-17.73-37.95-7.07-35.28,21.05-7.6,35.25-9.42,1.62-10.28,11.21-5.13,17.85,6.06,7.48,14.88,12.2,23.58,15.98-12.07,5.25-3.22,17.04,4.99,20.95,7.71,4.23,16.21,6.13,24.79,7.73-8.27,2.53-11.05,10.72-3.08,15.8,9.4,6.01,21.14,7.57,32.11,7.63-8.75,8.17-.21,15.39,8.99,15.95,8.61.62,17.21-1.24,24.99-4.9h0c-40.02,50.81-80.16,64.59-143.08,69.26-13.81,1.83-29.2,1.21-41.14,9.33-18.47,22.04,23.08,23.48,36.74,23.36-6.32,5.69-10.06,20.74,1.05,23.16,9.46.93,18.52-3.75,27.61-5.65,11.94,13.36,37.83-11.65,50.38-17.02,15.18-8.25,29.42-18.1,44.1-27.11,42.19,10.35,89.23,16.51,128.55-6.51,77.84-43.52,41.97-142.53,106.59-198.2,2.03-2.35,6.59-3.71,6.48-7.28-1.71-8.09-20.41,2.39-26.96.81-42-60.41-92.96,14.03-120.48,49.19-33.29,32.3-95.09-12.66-129.08-27.84Zm187.43-26.6c10.46-10.41,26.87-13.88,39.95-6.32,21.35,10.41,9.52,22.95,33.32,17.12-60.5,57.22-26.15,145.5-97.89,191.29-38.31,24.37-85.39,17.42-127.2,7.38-7.13.26-15.34,8.87-21.91,12.25-20.79,11.95-40.85,26.27-62.84,35.92-3.35.92-4.99-1.94-7.43-3.49-9.23-1.64-18.27,5.08-27.68,5.32-5.39.54-2.36-6.55-.99-9.2,28-23.22-24.45-8.85-36.32-19.43,0,0-.02.03-.02.03-7.05-13.16,45.05-13.09,53.64-15.16,50.62-3.18,98-24.78,128.78-65.9,44.67-47.8,77.55-106.48,126.57-149.81Zm-71.13,70.64h0c-13.76,16.91-26.87,34.35-40.73,51.17-13.04,9.42-29.99,23-46.87,15.13,2.19-4.53,16.83-8.71,7.74-13.99-13.6-.21-29.88,1.57-40.98-7.87,5.04-4.31,12.68-2.38,18.24-5.56,11.75-12.04-40.56-7.02-46.18-23.95,5.3-4.3,12.96-.95,19.05-1.96,6.18-4.41-1.16-7.47-5.54-8.17-10.54-3.3-33.28-10.42-34.15-23.33,5.18-3.17,11.39-1.37,16.98-2.04,8.39-6.64-8.82-9.05-12.59-12.14-14.65-7.21-29.09-26.56-.84-22.67,56.62,9.28,105.74,67.8,165.86,55.37Zm104.01-64.87c5.8,3.8.02,12.55-5.95,9.38-6.99-3.47-.12-13.23,5.95-9.38Zm-235.18,29.07c-11.73-4.53-23.95-9.52-36.57-10.29-2.05.38-2.88-2.69-.87-3.37,2.85-2.06,51.2,11.23,37.44,13.66Zm24.45,9.77c20.49,12.73,42.87,22.22,65.64,30.03,10.17,13.29-64.94-23.84-67.27-26.9-2.98-1.12-.79-5.38,1.63-3.13Zm-14.98,181.46c-5.07,1.85-26.02,16.62-29,13.3-.42-.84-.09-1.94.77-2.35,15.48-7.64,30.66-15.95,45.46-24.82,11.37.06-15.24,12.42-17.23,13.88Zm-37.65,19.71c-1.65.55-4.29,2.68-5.34.25-.6-1.75,1.33-2.37,2.6-2.87,2.73-2.16,6.13.74,2.74,2.62Zm242.82-117.24c3.19-8.38,5.62-16.71,7.35-25.46-.69-3.35,13.77-63.33,16.93-47.24-11.24,21.42-11.18,46.17-19.1,68.66-1.16,1.97-1.06,7.05-4.24,6.33-.9-.38-1.29-1.39-.95-2.29Zm-42.01,57.41c-1.42-3.45,7.93-7.46,9.99-10.32,8.17-7.29,15.77-15.52,21.04-25.17-.01.02-.03.05-.04.07,1.09-2.42,4.51-.47,3.09,1.63.04-.07.07-.14.11-.21-7.47,13.88-19.39,24.81-31.73,34.34-.75.58-1.88.41-2.45-.34Z"/>
  </g>
</svg>