<?xml version="1.0" encoding="UTF-8"?>
<svg id="_Слой_2" data-name="Слой 2" xmlns="http://www.w3.org/2000/svg" viewBox="0 0 604.31 614.26">
  <g id="_Слой_1-2" data-name="Слой 1">
    <path d="m138.1,326.15s.02,0,.04,0h-.04ZM5.25,194.19c2.1-.92,7.64-4.23,9.22-1.64,3.25-1.75,6.57-3.39,9.94-4.91-7.78-.9-9.21-10.14-.09-8.85,3.66.97,9.19,1.09,11.41,4.35,6.45-2.25,13.11-3.64,19.88-4.82-8.53-4.72-5.23-13.8,6.06-9.08,3.32,1.89,7.36,3.94,9.38,7.24,5.63-.41,11.3-.54,16.96-.39-16.67-12.35,2.57-20.6,13.04.81,4.42.44,8.81,1.04,13.16,1.8-9.53-13.91,7.16-16.32,13.47,2.93,4.42,1.17,8.77,2.4,13.02,4.02-14.47-7.9-20.8-24.88-28.88-38.45-2.16-4.13-8.69-11.98.24-12.38,25.04,1.83,52.08,10.35,69.34,29.27,15.92-18.58,21.15-22.78,39.32-3,8.99-15.5,29.51-.63,37.62,8.81.27-1.8.64-3.58,1.22-5.3-6.22-11.8-6.5-25.83-6.34-38.9.48-3.93-1.5-9.77,2.97-11.85,19.29-2.17,37.64,24.72,45.25,40.11-.94-9.19-.87-18.57-.18-27.8-14.11-6.55-7.93-23.64,1.01-10.06.5-3.9,1.13-7.78,1.87-11.64-13.71-10.39-4.16-29.04,2.43-10.86,1.62-6.35,3.57-12.62,5.76-18.8-11.18-14.45.67-29.22,6.1-14.44,2.72-5.67,5.74-11.2,8.92-16.65-8.93-11.33,4.02-27.4,5.94-9.84,4.26-6.74,8.3-13.62,12.89-20.14-1.37-15.19,21.8-19.76,9.45-3.53,3.37-.13,6.77,1.9,4.47,5.69-2.95,3.4-8.35,4.04-12.59,3.86-3.28,4.94-6.36,10.02-9.47,15.08,15.38-5.32,10,12.74-7.45,12.08-2.91,5-5.61,10.13-8.05,15.38,15.93-11.31,16.25,8.57-5.68,13.59-1.61,4.3-3.06,8.65-4.35,13.05,2.55-2.97,8.92-4.15,9.24,1.11-.57,5.86-7.8,11.48-12.86,13.46-.64,3.14-1.19,6.29-1.66,9.46,4.56-7.55,14.13-5.29,8.18,3.36-2.91,3.13-6.43,8.08-9.66,9.99-2.42,18.92,2.39,37.88,4.08,56.12.09.63.18,1.26.26,1.89,4.53-13.02.61-26.85,3.66-40.06,5.56-24.39,21.9-30.63,45.07-26.2,2.91-3.87,6.56-7.29,10.52-10.93,4.78-4.78,8.7-11.45,15.95-12.53,16.59-1.49,32.35,11.06,44.59,21.01,16.19-11.52,35.28,1.12,46.95,13.33,10.9,2.93,24.33-1.08,34.13,5.98,15.22-29.77,53.31-28.57,81.38-37.03,8.27-2.61,10.14-1.32,9.39,7.55-2.5,43.3-37.86,70.33-76.94,81.41,2.31,1.03,4.78,2.11,6.92,3.32,19.33-11.99,32.73,6.37,10.96,6.87,5.08,3.6,9.95,7.64,14.54,12.03,19.81-9.78,26.84,13.1,8.54,8.99,3.82,4.4,7.34,9.05,10.52,13.88,16.87-4.19,24.08,16.5,6.55,11.17,3.65,7.05,6.55,14.32,8.54,21.96,15-1.89,18.45,25.8,2.55,12.37,1.4,8.95,1.84,18,1.94,27.02,15.3,4.97,3.36,29.8-4.26,8.66-2.29,2.4-5.06,4.08-6.75,3.32-6.47-3.78,1.61-13.82,6.46-15.4-.14-6.76-.57-13.52-1.45-20.22-9.6,9.44-15.57-3.25-2.65-13.95-1.62-6.17-3.82-12.14-6.52-17.89-3.99,14.37-13.68,2.29-7.12-12.91-2.77-4.35-5.83-8.53-9.12-12.52.08,15.61-14.2,8.21-9.69-10.54-3.96-3.83-8.01-7.53-12.47-10.73,4.54,18.23-11.5,13.52-11.03-7.18-2.28-1.37-4.67-2.54-7.1-3.61,3.78,15.36-1.09,32.43-10.77,44.73-6.32,9.59-6.31,21.44-6.94,32.59,14.05-1.62,25.81,8.94,37.16,15.42,3.31,1.77,5.65,4.26,2.76,7.78-15.57,20.74-48.34,30.62-73.48,28.7-.26.81-.65,1.62-1.11,2.38,14.15-1.75,29.49-.02,43.8,2.38,4.65.25,5.74,3.57,3.76,7.5-23.76,37.14-71.33,52.41-113.76,50.8-.76,1.18-2.34,2.87-3.89,3.91-17.26,31.78-26.18,69.54-25.99,105.65-4.38,26.22,54.28,102.92,2.88,77.25.13,9.05,9.92,40.97-4.98,40.29-8.05-.24-16.19.03-24.18-.94-2.5,3.97-16.61,1.03-18.22-3.24-1.96,8.99-12.44,3.8-11.48-3.39-.82,5.09-2.49,11.84-8.54,10.87-5.13-1.68-17.73-1.02-17.89-8.07-1.72,3.72-6.25,3.35-9.7,2.87-7.68-1.2-.33-19.29-.25-24.78-5.63.98-21.52,2.67-17.39-6.87,3.28-8.21,6.66-16.38,9.53-24.55,17-46.76,25.56-100.47.2-145.92-51.12,11.22-109.77-14.84-139.14-57.19-2.76-9.39,9.88-7.9,15.63-9.86,20.35-4.45,41.33-8.92,62.23-6.24-5.83-8.11-10.67-16.85-15.25-25.72-7.94,7.73-18.21,15.47-29.81,11.5-25.14,14.57-53.81,1.12-80.47-.2-10.31-.04.32-14.22,2.4-18.7,7.12-10.85,18.64-18.03,30.45-22.88-2.76-5.84,2.57-14.74,8.44-18.16-7.56-10.87-6.01-26.88-6.74-39.58-.78-12.63,10.11-20.47,20.2-25.65.16-.7.43-1.41.65-2.07-5.7-2.8-11.83-4.67-17.99-6.21-7.81,15.43-27.72,6.78-11.15-2.42-4.72-.87-9.48-1.54-14.27-2.03-6.61,24.56-29.56,11.47-8.51-.66-6.41-.34-12.85-.32-19.25.07-8.89,22.03-27.75,13.92-11.2,1.07-8.39,1.15-16.72,2.77-24.73,5.46-1.91,19.39-18.2,16.33-11.65,4.7-3.24,1.49-6.44,3.1-9.61,4.8-.89,5.7-8.64,9.29-13.71,7.45-4.76-3.05-.88-8.52,3.05-10.15Zm143.22-.52c6.15.9,11.18,7.08,17.43,7.89.12-.1.25-.18.38-.25-2.74-10.1,4.5-21.43,14.09-24.94-.13-.05-.26-.09-.38-.14-17.94-9.39-28.06-1.16-31.52,17.44Zm59.74,23.66c5.85,10.06-6.49,21.76-17,25.07-2.8,5.74-6.71,10.81-11.48,14.94.42.8.41,1.83-.28,2.54,3.09,5.7,11.58-4.07,14.81-6.06,11.2-6.7,20.85-12.63,27.57-24.11,18.36-16.61,5.23-59.84-7.13-39.5,1.39,5.53.39,11.55-2.14,17.16-1.32,3.37-2.72,6.73-4.35,9.96Zm-11.41,62c10.67-2.58,18.51-9.86,26.77-16.51,19.06-9.38,34.45-33.01.43-28.36-6.35,10.3-16.23,16.6-26.93,22.86-4.04,2.96-8.97,8.24-14.12,8.76-.52,1.02-.79,2.16-.99,3.29-1.24,10.13,6.48,12.34,14.84,9.96Zm-21.66-70.46c-3.81,1.27-7.06,5.88-4.48,9.61,5.78,7.16,18.01-6.61,18.71.72,13.85-21.04-4.59-28.95-9.69-11-.41,1.61.71,2.82.82,4.32-.24,2.53-3.68,2.74-4.53.46-.63-1.32-.86-2.7-.83-4.1Zm12.93,12.2c-4.7,2.31-9.9,4.89-15.27,3.65,4.71,7.12,13.02,11.15,21.34,11.33.1-.05.2-.1.29-.15-7.31-1.68-15.84-6.95-7.44-13.4.37-.47.73-.95,1.08-1.43Zm9.51,12.91c8.84-4.29,10.95-17.61-.92-19.01-1.97,4.78-4.86,9.16-8.44,12.87,1.9,1.91,4.37,3.24,7.05,3.61,1.33.04,2.5,1.14,2.31,2.53Zm5.49-21.53c-.79-3.65-2.2-7.19-4.38-10.22.44,2.76,0,5.76-.64,8.48,1.93.39,3.6.99,5.02,1.73Zm-16.98,27.01c-6.27-1.14-21.09-11.82-19.11-18.55-2.78-3.62-2.18-9.48,1.54-12.92-2.12-.82-4.48-.96-6.73-.73-24.89,6.68-22.08,46.77,24.3,32.2Zm-11.7-53.45c-4.06,5.11-6.93,14.32-.22,18.43.64-.17,1.3-.27,1.97-.29,1.94-6.73,9.58-11.82,16.4-9.72,5.45-4.76,13.12,9.67,14.35,14.86,14.5-24.73-14.36-41.22-32.51-23.28Zm-42.89,66.63c11.49,21.88,43.57,9.34,53.34-8.13-7.21,1.93-14.81,2.49-22.2,2.18-26.08-.82-27.03-35.72-4.44-43.26-4.76-2.39-10.05-7.77-15.46-3.97-5.62,4.23-13.46,8.7-14.59,16.21-.21,12.27-.65,25.23,3.36,36.97Zm.69,26.69c9.62,2.14,20.56,4.91,29.72-.14,5.8-4.1,11.02-9.21,15-15.04-.92-.74-1.57-1.97-1.83-3.26-12.16,8.74-29.09,11.29-41.59,1.79-1.37.63-2.5,1.7-3.61,2.71-5.48,5.17-6.7,12.41,2.31,13.93Zm32.71,37.29c-7.49-8.73-7.87-19.16-5.81-31.34-9.98,2.71-24.29.69-33.89-4.11-16.28,5.69-30.46,16.68-35.9,33.53,15.88.92,31.25,5.1,46.93,6.83,9.68.7,19.9-.63,28.68-4.92Zm32.1-12.89c-4.96-7.46,4.91-7.91,10.01-10.53,18.71-10.52,37.83-25.86,40.89-48.4-2.79,11.09-13.49,16.11-22.06,21.94-10.99,11.1-45.75,32.16-48.47,4.34-3.72,4.05-7.68,8.3-12.08,11.18-6.53,13.16-2.57,40.76,17.73,32.19,5.48-2.52,9.45-6.92,13.98-10.71Zm41.28-28.92c-6.75,7.23-14.46,13.48-22.89,18.61,9.97-.36,19.82.84,29.38,3.43.43-11.53,4.83-25.38,11.13-36.57-3.99,3.35-7.33,7.36-11.12,10.94-1.71,1.3-4.35,4.64-6.51,3.59Zm35.52-29.03c-.96,14.79-.13,30.08.5,44.86,1.89-15.97,7.23-31.14,11.97-46.43-2.56-2.16-4.67-4.78-6.3-7.7-.48,1.28-1.04,2.52-1.74,3.69-1.29,2.05-2.8,3.88-4.44,5.58Zm24.9-14.02c12.91,25.56,21.18,53.23,25.69,81.45,5.63-8.09,12.81-14.86,21.08-20.34-6.91-24.74-19.87-48.45-43.9-60.09-.96-.41-1.92-.76-2.86-1.02Zm7.58-1.68c22.8,12.52,36.63,35.78,42.97,60.36,10.92-6.73,22.74-11.41,34.54-16.24,7.39-4.56,11.83-.69,14.02,7.93,1.76-1.71,3.02-3.84,4.11-6.02-6.52-3.41-11.7-10.36-11.47-17.88-13.55,5.09-30.27-7.83-37.48-18.47-5.01-8.13-6.47-17.73-9.51-26.65-3.53-9.84-8.97-19.69-5.66-29.74-25.51.28-27.17,11.01-28.56,33.07-.76,4.64-1.6,9.11-2.97,13.65Zm40.79-20.3c4.15,11.08,5.14,24.02,13.8,32.84,8.43,7.77,20.05,16.15,31.6,10.16,6.41-2.47,16.12-4.72,16.42-12.99-11.73-2.49-16.2-15.94-8.39-24.7-17.59-3.79-30.35-24.6-17.29-39.64-8.61,1.11-19.56.17-25.67-6.37-.42.16-.88.18-1.32.05-18.28,12.28-17.41,22.32-9.14,40.66Zm11.91-47.05c.71.47,1.18,1.29,1.02,2.19,5.75,7.9,19.9,7.07,28.62,4.98.06-.05.11-.11.17-.16.07-13.37,8.56-21.7,20.25-25.66-2.73-8.55.9-15.3,7.17-20.27-22.42.06-41.11,9.87-53.96,28.33-3.22,3.86-4.17,7.53-3.27,10.6Zm111.76,23.15c-2.06,1.06-4.8,2.3-7.47,2.72,2.78,13.04-10.75,23.92-22.88,25.14-.02,6.7-25.24,6.35-34.69,2.89-20.62,23.93,32.08,23.92,44.57,17.41,17.07-7.76,26.34-29.55,20.64-47.33-.04-.27-.11-.55-.17-.83Zm-1.49,37.04c-11.25,19.48-35.69,21.48-56.02,17.99-.32,9.22-10.55,13.01-17.98,15.66-2.42,19.64,31.32,24.21,45.03,19.62,7.97-3.03,12.55-10.49,18.08-16.45,9.77-10.07,16.8-13.92,20.99-28.58,2.27-6.96-1.39-11.05-8.47-8.55-.51.21-1.09.33-1.63.32Zm-7.97,62.85c3.11-7.89,2.83-16.62,2.08-24.79-15.9,21.81-31.48,26.29-57.35,17.06-1.3,2.43-3.79,6.86-7.16,9.15.95,6.11,1.09,13.18.84,19.61,10.91,4.23,22.89,3.91,33.4-1.18,8.04-2.85,16.98-5,23.01-11.43,1.26-1.99,3.22-3.61,4.11-6-.25-1.09.18-1.87,1.06-2.43Zm-70.01-7.63c-13.47,31.45-35.34,58.5-49.7,89.45,2.26,2.92,4.01,6.54,5.94,9.47,2.62,1.22,3.89,4.35,5.51,6.61,3.51-2.71,7.91-3.95,11.44-6.44,26.34-23.82,38.1-65.5,26.8-99.1Zm-84.35,104.32c-18.55-18.58-34.43-42.47-33.99-69.52-20.24-10.01-42.98-17.96-66.09-14.33-.31.32-.73.53-1.18.62,41.61,13.79,70.69,49.21,98.18,81.51,1.04.55,2.07,1.11,3.08,1.71Zm31.24-18.22c14.13-29.83,34.89-56.07,48.31-86.27-47.25,14.83-85.22,52.48-69.61,105,6.07-5.34,11.52-26.46,21.3-18.73Zm59.69-39.47c4.08-4.21,8.81-7.72,13.86-10.53-4.26-.27-8.15-1.72-12.27-2.8-.32,4.73-.81,8.81-1.26,11.45-.1.63-.22,1.25-.33,1.87Zm68.6-40.22c45.32-.44,31.45-3.29,37.9-39.08-10.15,9.54-23.45,11.91-36.65,13.93.25,2.03.43,4.06.52,6.11.49,6.68,0,13.19-1.77,19.04Zm-32.53-70.93c-7.84-1.47-16.21-4.83-19.94-12.37-12.02-1.89-17.31-8.62-16.94-16.27-4.85-.65-7.17-4.5-7.96-9.26-24.78,27.07,23.27,43.9,44.85,37.9Zm7.07-35.12c-.12.75-.32,1.53-.61,2.26,10.21,5.84,1.58,16.35-8.05,12.58-.87,4.69-7.6,7.28-13.04,7.96,22.83,25.39,63.57-16.09,22.09-23.03-.12.09-.25.16-.38.22Zm-9.78,4.68c-3.4-2.02-8.01-.37-8.79,3.47.78,1.53,2.67,4.53,4.61,3.18-2.91-3.09,2.47-6.76,3.72-2.57,2.83,4.04,14.81,2.11,7.15-2.94-.18.04-.36.07-.54.07-.09.16-.19.33-.33.49-2.07,1.99-3.92-.98-5.82-1.71Zm-.72,5.51c-.17.31-.42.58-.71.79.31-.18.56-.48.71-.79Zm-16.83-19.7c-21.87,11.39-11.08,35.26,11.91,25.72-16.52-5.18-2.17-23.92,10.02-14.19,5.6-12.01-13.53-15.73-21.93-11.52Zm25.4-21.69c-12.93-3.35-27.59-1.69-38.5,6.36-6.69,3.56-11.55,24.44-2.71,26.89,3.84-17.36,35.55-26.37,42.89-6.7,7.86-.69,16.05,3.83,20.5,10.3,4.38-.12,8.82-2.49,11.77-5.65,8.25-14.98-22.98-28.28-33.95-31.2Zm-127.32,233.68c-6.06-20.22-2.22-44.01,9.22-62.53-5.17-29.47-12.78-58.89-26.74-85.61-18.36,56.17-31.67,103.13,17.52,148.14Zm-42.69-130.86c-12.16,12.47-18.73,30.73-19.9,48.01,7.62,2.55,15.17,5.56,22.26,9.35-1.79-9.17-1.64-18.73-2.06-28.07-.2-9.74-.81-19.56-.3-29.3Zm-47.91,84.54c10.06,1.97,19.84,5.4,28.93,10.11,16.95,7.51,29,23.24,44.54,31.89-25.94-29.82-53.91-62.38-93.07-73.98,5.64,10.75,11.13,21.96,18.92,31.18.32.23.54.5.68.8Zm-75.6,11.04c16.59,5.12,33.08,10.45,49.3,16.65,20.34,7.22,41.57,11.65,61.6,19.76-.51-.87-.82-1.76-.79-2.62-4.59-10.89,20.31-7.13,25.92-6.36-24.41-23.23-57.21-39.85-91.62-35.31-15.02,1.22-29.68,4.99-44.41,7.88Zm127.73,57.13c-7.64-14.13-16.32-16.13-30.46-20.99-18.12-6.1-36.85-10.31-54.75-17.14-15.36-6.22-31.37-10.46-47.03-15.8,29.67,38.99,82.88,63.64,131.83,54,.13-.02.27-.04.41-.07Zm21.04,178.48c-2.05.74-4.14,1.38-6.27,1.9-1.28,7.1-2.96,14.16-3.45,21.38,1.4.22,2.84.11,4.25.02,1.18-1.6,1.6-3.61,2.02-5.52,1.21-5.91,1.91-11.95,3.46-17.78Zm24.91-14.84c-5.53,4.65-11.48,8.71-17.83,11.83-2.1,8.38-2.76,17.17-3.59,25.78-.03,1.1-.52,2.34.8,2.75,4.21,1.59,8.81,1.77,13.16,2.88,2.18.48,2.65-3.81,3.16-5.32,2.09-12.54,2.33-25.36,4.3-37.92Zm13.84-13.65c-1.92,2.18-3.9,4.32-5.96,6.39-.06,11.4-2.99,23.57-2.73,35.35.56,3.93-2.08,9.87,1.71,12.47,5.22-17.43,4.37-36.26,6.98-54.2Zm12.88-13.7c-.32-.5-.64-1.01-.96-1.52-4.68,5.12-7.76,10.94-7.71,18.07-1.78,15.9-2.44,31.38-5.22,47.24,1.84-1.87,5.36-.27,4.08,2.4,3.08,1.27,6.37,2.23,9.71,1.9.52-22.63-.59-45.43.1-68.1Zm4.42,6.43c-.1,17.73-.31,35.47.23,53.19,1.77.56,3.59,1.03,5.39,1.52,4.26-15.55-.41-32.62-.69-48.51-1.72-2-3.36-4.08-4.93-6.2Zm23.21,22.22c-4.84-3.02-9.3-6.67-13.38-10.74-.63,9.42,9.68,55.94-9.49,46.44,0,.72-.01,1.43-.06,2.11,8.07.72,16.06.67,24.14.79,5.95-2.77-.8-31.67-1.2-38.41,0-.06-.01-.12-.02-.19Zm-3.45-59.44c-23.64,5.48-52.39,5.99-72.76-8.94-5.06,26.77-12.96,52.93-23.39,78.07,49.44-.81,65.14-60.79,75.09-46.91,10.68,16.09,23.67,32.57,43.38,37.27-7.6-22.71-17.8-39.03-22.31-59.49Zm-71.92-14.17c19.07,15.92,48.11,15.07,71.05,9.73-.94-5.43-1.46-11.2-1.42-17.46-21.32,9.05-46.9,8.83-69.07,3.46-.17,1.43-.35,2.85-.56,4.28Zm70.4-21.26c-22.69,4.66-48.7.38-69.48-9.61.83,7.28.72,14.65.11,21.91,18.46,5.93,51.74,5.23,68.73-3.82.06-1.09.13-2.2.22-3.32.11-1.72.25-3.44.42-5.15Zm27.81-90.11c.28-.62.74-1.21,1.44-1.72-42.36-5.03-41.64,24.73-53.94,2.59-4.36-2.92-5.79-9.41-9.77-13.04-28.2,49.54-20.36,4.91-69.96,9.18,21.1,20.41,31.12,48.88,34.28,77.63,15.79,10.88,52.62,16.16,70.69,10.64,5.12-28.74,10.78-58.66,25.94-84,.33-.55.79-.97,1.31-1.29Zm118.24-50.78c-15.21,3.07-29.54,8.98-43.67,15.18,0,0,0,0,0,0-4.88,2.1-9.51,4.08-14.26,6.13.17-.07.33-.14.5-.21-17.46,7.53-34.89,15.02-51.44,24.43.4.57.69,1.17.83,1.83,33.47.91,68.62-8.28,93.85-31.1,5.1-4.97,10.78-9.94,14.2-16.26Zm-47.73-3.66c-1.29,1.06-2.77,1.91-4.07.72-24.37,4.68-47.62,19.52-62.91,44.79.7.21,1.37.47,1.99.75,17.62-10.27,36.57-18.32,55.23-26.37,0,0-.02,0-.02,0,16.83-7.18,33.43-15.06,51.19-19.44-14.57-2.18-28.43-2.49-41.41-.46Zm-1.88-4.3c1.73-1.51,3.52-3.44,3.7-5.82-22.83-15.75-56.43-5.5-72.75,15.11-4.1,15.47-11.74,29.99-22.8,41.62,7.24-1.77,14.73-2.23,22.14-1.92.88-1.83,1.77-3.44,2.93-5.18,16.49-24.48,39.95-39.1,66.78-43.81Zm76.06-32.73c-26.85,5.57-54.46,9.29-81.87,6.09-3.51,3.93-8.9,7-14.57,8.93,9.68.68,21.32,1.95,27.98,9.77,5.46.62,11.01.21,16.48-.15,18.62-2.34,39.57-9.94,51.98-24.64Zm-34.9-17.82c-1.4,19.2-28.12,14.17-41.58,15.9-.63,1.33-1.33,2.62-2.13,3.85,25.88,2.54,51.81-1.03,77.16-6.2-2.78-1.76-5.57-3.46-8.38-5.21-7.52-4.34-16-10.3-25.07-8.34Zm-.84-96.67c-7.51-6.52-10.42-24.47-23.2-19.19-1.04,3.59-2.33,7.09-4.47,10.14,2.32,5.57,1.44,11.34-2.89,15.36,3.17,11.54,3.7,23.88-2.59,34.59,23.02-1.93,8.21,28.83-1.72,36.53,24.81-1.32,47.2-21.2,49.91-46.18,3.04-16.08-3.81-21.73-15.04-31.24Zm91.72-71c-18.07,24.52-48,42.72-74.65,56.14,1.06,6.71,3.63,13.61,1.64,20.38,9.1-3.17,18.19-6.31,26.73-10.87,26.35-12.92,44.05-36.5,46.28-65.66Zm-82.1,30.9s.03-.06.05-.1c-.2.37-.35.76-.49,1.14,5.56,4.92,6.77,12.39,7.35,19.47,25.05-12.72,56.11-31.8,72.31-55.19-18.03,5.44-37.2,6.74-54.71,13.55-9.83,4.49-19.68,11.14-24.5,21.13Zm-34.29-2.15c2.97,5.48,3.38,11.97,2.52,18.08,15.87-4.41,17.83,18.47,35.64,30.3,3.79-6.02-.8-16.15-1.18-22.63.3-16.68-9.4-26.5-26.23-25.72-2.34-.11-6.96.38-10.76-.04Zm-49.29-14.62c-8.57,4.73-22.1,10.71-18.06,22.8,20.07-5.59,48.58,4.6,61.79,20.59,9.95-18.81.66-34.06-16.77-43.22-10.15-5.96-16.87-6.51-26.96-.17Zm-76.02,22.35c-1.57,7.37-11.18,18.25-.71,21.75-2.78-13.32,12.96-24.67,21.82-32.86,14.9-12.56,30.71-8.69,47.87-14.43-14.35-10.92-38.14-29.17-51.06-7.27-11.55,9.61-16.32,17.93-17.92,32.8Zm-40.88,42.91c6.81-5.74,16.49-6.24,25.41-6.37,2.58-4.91,7-8.13,11.22-11.46-8.88-4.4-5.95-13.22-1.35-22.55,2.95-7.05,2.22-15.74,6.1-22.19-21.56-5.9-35.55,5.4-38.48,26.5-1.35,12.13,1.09,24.34-2.9,36.07Zm-52.81-66.99c21.73,32.31,31.44,70.64,36.73,108.77,1.25.25,2.5.62,3.75,1.11,2.37-8.54,3.57-17.18,4.02-26.06.8-23.81-6.25-50.33-23.82-68.7-4.73-4.77-13.15-13.44-20.68-15.12Zm.62,41.72c21.42-10.81,22.57,58.2,19.46,69.75,1.57,3.28,3.06,7.09,5.95,9.72,1.95-3.99.93-11.41,6.15-12.6-5.38-37.28-14.66-74.75-36.07-106.26-.32,13.2-.67,27.17,4.51,39.4Zm-.26,15.72c9.22,19.56,3,44.66-11.59,60.26,5.39,8.21-.73,18.72-3.65,26.84,7.63-8.74,18.61-13.68,26-22.66,9.22-14.27,5.48-34,4.07-49.96-1.05-7.09-2.72-25.28-10.74-27.2-2.43.49-2.91,5.49-3.39,7.56-.41,1.4-.15,3.64-.72,5.17Zm-37.99-10.29c4.53,6.77,9.27,14.74,7.55,23.2,6.54,13.12,5.43,29.68-4.16,41.02,6.32-1.01,13.89-.5,18.48,4.41,17.07-16.74,24.04-50.17,3.31-66.68-5.23-3.65-10.11-8.2-16.67-8.33-3.51-.08-8.09,1.27-7.89,5.49-.13.36-.35.66-.62.9Zm-43.57,6.29c2.62,1.1,4.97,1.68,7.61,2.72,9.46-1.44,19.64,2.23,24.5,10.77,3.11-4.59,10.28-6.98,14.59-2.65-2.3-11.26-15.44-28.68-26.89-30.19-8.15,4.69-13.11,12.99-19.81,19.35Zm-33.86,11.62c3.81-12.18,17.75-19.84,29.55-13.35.68-.89,1.38-1.75,2.13-2.59-16.39-18.12-42.12-26.01-65.81-28.05,6.3,10.61,11.46,21.94,18.72,31.97,3.91,5.3,9.06,9.96,15.41,12.02Zm-1.61,4.17c.13.06.26.12.39.18,0-.01,0-.03.01-.04-.14-.04-.27-.09-.4-.14Zm232.31,202.75c-4.21,7.47-20.69,47.04-16.19,52.68,3.69.05,2.86-8.41,4.33-11.14,3.54-13.66,8.25-27.13,14.8-39.65,1.07-1.84-1.67-3.63-2.94-1.89Zm-9.4,131.34c-.74-1.42-.43-4.11-2.58-4.12-5.81,2.14,10.15,28.16,12.19,33.05.72,1.33,2.91.94,3.19-.52-3.76-9.5-9.83-18.38-12.8-28.42Z"/>
  </g>
</svg>