<?xml version="1.0" encoding="UTF-8"?>
<svg id="_Слой_2" data-name="Слой 2" xmlns="http://www.w3.org/2000/svg" viewBox="0 0 301.85 403.59">
  <g id="_Слой_1-2" data-name="Слой 1">
    <path d="m3.55,167.51c8.62,5.04,18.82,6.3,28.63,6.71-11.85,8.04-16.72,22.18-24.49,33.61-10.07,13.06,2.68,10.46,10.8,5.64,14.11-7.31,25.13-19.43,33.54-32.98-.23,1.34-.12,2.59.65,3.51-1.62,3.22-1.47,9.57,3.46,13.43.07,6.22,3.95,11.36,9.48,13.64-7.16,15.48-1.01,32.4,1.8,48.15,2.97,11.49,28.92-13.41,29.83-19.8.52,4.29-.47,9.96,2.49,13.38,6.79,1.61,21.53-12.5,26.03-17.79.96,9.95-1.76,25.66,13.21,13.76-1.47,59.71,10.82,83.76-28.88,134.85-1.2,3.04-10.31,9.8-8.01,12.4,5.04,11.1,108.61,9.64,114.05-2,1.55-.47,2.42-2.74.71-4.02-14.3-11.98-25.83-27.33-35.92-42.93-6.41-11.71-6.15-25.88-7.52-38.61-.29-20.61-.65-41.21-.94-61.82v.12h0c0-.81-.4-1.58-1.04-2,6.99-3.98,11.91-14.34,15.54-22.41.05,14.87,9.99,26.31,15.2,39.51,3.74,12.54,19.07-20.24,19.01-24.59,10.68,9.18,26.31,6.17,39.33,6.42,3.47.24,3.47-2.71,3.35-5.31.55-25.8-21.63-42.27-44.88-47.43,3.59-1.34,6.6-4.12,7.61-7.93,3.55-1.55,6.5-3.82,8.64-6.6,2.65,9.8,8.8,16.43,15.64,23.32,7.86,9.64,9.56,7.88,10.23-3.82,4.69,12.96,12.51,26.5,23.69,34.69,6.93.27,1.53-11.03,2.04-15.13-1.44-11.58-3.68-23.26-7.98-34.15,6.67,1.56,13.17-.96,19.73-1.2,1.27.72,2.94-.04,3.27-1.45-5.12-13.3-13.21-30.56-29.36-32.36,4.87-8.24-2.61-20.45-12.37-18.93,1.15-2.43,2.03-6.14-1.69-6.46-4.29-.99-8.57-2.25-13-2.43,2.9-2.13,5.57-4.65,7.31-8.11,17.91.73,37.08-7.51,47.29-22.37.61-3.48-6.1-3.98-8.49-5.17-13.15-3.71-26.15-11.53-40.17-9.84,9.41-8.55,13.9-21.92,10.85-34.34-.97-3.85-3.84-14.17-9.4-10.49-10.18,7.82-21.4,16.03-25.4,28.83-4.85-1.43-10.45-.26-15.28.98,7.14-10.23,10.22-21.19,8.46-33.93-.31-2.74.09-7.69-4.13-6.55-17.07,5.55-42.78,10.13-43.71,31.76-2.98-2.19-6.57-3.64-10.3-3.64-.83-17.99-11.57-34.43-25.06-45.57-1.94-.37-2.91,1.63-2.79,3.29-3.64,21.72-8.23,35.61,8.42,52.36-5.25-.46-5.53,1.79-4.82,8.3-5.01-10.55-14.75-18.18-24.57-24.07-7.91-4.43-7.98-.32-8.64,6.55-1.06,11.03.88,23.14,6.77,32.73-.74-.16-1.48-.27-2.23-.35-4.47-10.3-13.04-18.18-22.86-23.38-3.74-2.26-17.76-8.72-21.13-4.95-1.45,3.46.45,7.63.46,11.3-4.76-8.96-12.05-16.41-21.66-20.3-5.25-2.15-13.57-4.65-11.16,4.41,1.79,11.45,3.63,25.09,13.62,32.41-1.76.96-2.73,2.45-2.93,3.88-15.68-4.34-20.31,21.7-5.73,25.07-8.82,15.57,18.37,11.45,24.45,5.87-.57,3.33-.49,6.76.34,9.97-23.12-8.18-40.74,17.23-55.66,31-3.78,3.78-11.95,9.29-3.71,13.36Zm6.62,44.77c8.11-11.11,14.74-30.84,27.95-35.93h-.02c1.38-.2,2-1.32,1.93-2.39,4.08-.39,8.12-1.21,12.02-2.46-9.44,17.32-22.98,33.54-41.88,40.77Zm46.39-21.73c-.42-1.35-.48-2.84-.04-4.19,6.05,2.28,10.87,3.02,17.72,2.52-2.36,8.12-14.34,10.04-17.68,1.67Zm21.28-7.36c-6.75,2.74-14.9,1.19-21.36-1.85,2.82-14.53,18.12-24.16,31.83-16.71-5.08,5.09-9.09,11.44-10.48,18.56Zm4.66,20.6c-3.7-.43-8.25-2.16-9.45-6.05,1.13-.8,3.06-2.92,4.43-5.16.55,4.14,2.13,8.07,5.02,11.21Zm-21.54-3.79c2.64.89,5.5.88,8.1-.02,1.63,3.99,5.44,6.42,9.47,7.59-6.57,2.03-15.67-.65-17.57-7.57Zm34.77,29.96c-2.7,12.48-12.43,22.67-24.1,27.44-2.77-14.63-8.26-30.75-1.8-45.07,8.93,2.27,16.82-4.01,24.5-7.18,2.86,7.85,3.45,16.56,1.41,24.8Zm5.13-40.27c-1.58,6.45-7.06,12.14-13.65,13.39-9.46-10.69-5.35-26.51,4.64-35.67,5.48,5.87,9.85,14.01,9.01,22.28Zm-8.34-28.76c-.72-.45-1.42-.46-2-.21-5.35-2.89-11.84-3.75-17.83-2.56,3.53-3.58,6.61-7.54,8.7-11.54,12.84,3.77,27.1,1.05,35.82-9.93.07.05.15.09.23.14-3.12,11.91-12.73,21.7-24.91,24.11Zm-5.19-54.52c1.13-.28,2.28-.39,3.41-.93,5.36,1.38,9.34,5.71,12.24,10.21-8.12-1.65-17.09-2.01-25.07.32,2-4.06,5.45-7.42,9.41-9.6Zm-.12-4.61c1.08-1.39,3.43-1.32,3.62-3.27.67.07,1.36-.14,1.87-.72.51-.43,1.06-.82,1.7-.99.08.15.16.31.22.47-2.04,2.02-4.55,3.96-7.41,4.52Zm55.64,60.83c1.88-4.22,2.71-9.16,1.39-13.65,8.85,2.1,20.67,6.39,21.34,16.98.81,5.76-1.84,11.27-7.05,13.98-9.23.12-17.04-8.69-15.68-17.31Zm59.5,2.06c1.62,9.38-4.47,18.75-12.96,22.5-11.11-8.54-8.91-26.77,4.52-31.54,2.67,2.38,5.47,4.83,8.45,6.97-.34.63-.41,1.4,0,2.07Zm3.62,24.65c.15-.05.31-.09.46-.14.13,1.08.8,2.01,2.21,2.52-4.21,1.5-9,1.62-13.14-.18,3.55-.34,7.05-1.17,10.46-2.2Zm-4.93-3.3c-.87.2-1.75.38-2.63.54,6.01-5.25,9.11-12.98,8.68-20.98,2.57,1.38,5.28,2.44,8.16,2.98,7.36,9.56-6.2,16.05-14.2,17.46Zm-3.42-33.08c10.03-7.17,26.37-5.02,36.26,1.49-6.31,17.31-27.17,8.63-36.26-1.49Zm6.51-54.86c-1.95-10.35-1.14-24.19,9.97-28.85,14.05,8.67,6.23,31.67-6.26,38.28-.79-2.34-1.95-4.6-3.43-6.54.59-.8.68-1.95-.28-2.89Zm.24,14.23c-5.19-.55-10.7-.39-15.45,1.76,3.28-4.19,6.57-8.79,6.76-14.3,5.02,1.79,7.88,7.38,8.68,12.54Zm-20.78-5.61c.01-.96-.01-1.96-.08-2.97,1.86.84,4.01,1.27,5.99,1.56-1.63,3.15-4.11,5.9-6.31,8.65.36-3.34.48-6.18.39-7.24Zm-.1-8.98c.25-.24.46-.56.6-.98,3.05-1.26,6.11,1.17,6.51,4.17-2.44-.33-5.05-.75-6.9-2.45-.04-.28-.11-.53-.21-.75Zm7.23,20.48c4.59-2.11,9.62-1.83,14.58-1.23,3.41,16.73-17.92,28.41-32.25,24.26,3.73-9.03,8.77-18.24,17.67-23.03Zm-9.56,66.08c.26.38.53.76.81,1.13-4.37,19.02-15.42,35.72-26.82,51.33-1.6-23.66,9.01-37,26.01-52.46Zm-3.32-64.78c-.04.17-.07.33-.11.5-1.14-9.58-6.56-18.01-15.58-22.25,17.02-15.3,19.04,9.71,15.7,21.75Zm-5.62,12.51c-1.04,2.54-2.48,4.96-3.26,7.52-19.39-4.07-22.12-23.9-10.2-38.43,12.2,4.99,17.33,18.65,13.46,30.91Zm-27.01,47.29c2.85,2.39,6.29,4.09,9.91,4.88-4.32,4.76-13.55,4.57-17.91-.08,3.3-1.16,6.8-2.85,8-4.8Zm-4.31-1.98c-5.52,3.38-14.91,6.83-19.66.6,2.69.51,5.79.4,8.1-1.23,3.7-1.08,6.76-4.44,9.29-7.29.7,2.53,1.84,4.72,3.46,6.72-.44.32-.84.76-1.2,1.2Zm-8.32-8.02c-1.47,1.3-3.13,2.35-4.69,3.52-22.79,4.58-8.56-22.84,11.35-24.15,3.44,7.23-1.42,15.6-6.66,20.63Zm-1.23-51.07c-2.47,7.55-8.04,11.36-14.59,15.07-.27-.35-.62-.65-1.04-.8-8.64-13.15-.82-29.22,7.27-40.68.25-.06.5-.18.73-.37,7.87,5.97,10.57,17.56,7.63,26.78Zm-18.12-19.2c-2.78,4.82-4.72,10.31-5.42,15.91-3.08-5.08-5.85-8.66-11.26-11.99,4.54-6.34,13.41-12.8,21.66-12.05-1.73,2.67-3.38,5.39-4.98,8.14Zm-31.75,20.61c8.56-1.14,18.49-1.64,26.18,2.74.5,4.75,1.54,9.03,4.61,13.07-7.64,8.29-19.59,9.92-30.03,6.7-.44-.9-1.88-1.38-2.84-.9-5.91-2.32-12.09-6.23-14.7-12.21,5.18-3.64,10.34-7.84,16.77-9.39Zm42.95,109.71c-5.63,7.96-13.59,13.95-21.98,18.77-4.51-24.74,6.97-51.89,31.63-60.66,1.44,1.59,3.42,2.71,5.55,3.46-.31,14-7.17,27.21-15.2,38.44Zm6.78,18.82c-.98-6.71-.97-13.8-.3-20.27,6.99-10.72,12.75-22.97,13.15-35.95,1.13.15,2.16.23,3.27.13,7.46,19,3.76,46.19-16.12,56.09Zm44.79,99.21c9.71,16.33,21.92,31.71,36.02,44.5-15.78,9.19-87.2,8.93-105.07,2.66,18.28-23.11,37.84-50.06,36.68-80.85-.34-22.56.84-45.98-.79-68.38,4.03-3.97,5.62-7.03,7.81-11.68.09,3.05.29,6.1.33,9.15-.77,6.98,13.42,4.5,16.97,3.5.72,22.25-.17,44.94,1.47,66.98.19,11.58,1.86,23.55,6.57,34.12Zm12.88-150.91c-3.43,17.03-9.42,49.97-32.59,46.2,12.23-16.24,23.82-33.24,29.29-53.03.58.59,1.13,1.45,2,1.55.43.71,1.15,1.4,1.99,2.04-.46.95-.53,2.25-.68,3.25Zm16.68,61.86c-10.26-19.65-22.13-40.18-7.69-61.42,4.49.9,8.94.34,13.22-1.36,10.77,19.88,9.63,45.38-5.53,62.78Zm38.23-51.22c10.41,7.87,15.68,19.02,15.55,32.07-12.03-.51-28.72,3.38-37.06-7.61,2.22-12.59-1.27-25.2-6.46-36.63,10,1.93,19.91,5.88,27.98,12.17Zm-32-19.5c.46-.28.79-.63,1-1,.41-.21.81-.44,1.21-.68,1.66,1.34,3.89-.12,5.7-.47-2.17,1.64-5.24,2.22-7.9,2.15Zm10.6-7.81c-.85.31-1.71.61-2.57.89,2.23-3.45,2.67-8.04.96-11.77,5.13-.21,10.11-2.5,13.51-6.28,1.4,8.16-3.8,14.47-11.9,17.15Zm11.74-33.08c-.25-.46-.63-.76-1.06-.91-.08-.5-.11-1.02-.13-1.53,3.71-.67,7.51-1.47,11.1-2.75,7.93.18,11.38,8.48,14.01,14.79-8.6.52-18.78-2.26-23.92-9.6Zm22.12,52.21c-7.3-7.68-16.25-15.87-17.1-27.06-.25-.4-.63-.7-1.06-.88,1.25-3.73,1.3-7.95-.18-12.34,0,0,0,0-.01,0-.11-.38-.29-.68-.5-.91.23-.5.46-1.02.66-1.56,2.62,1.52,5.54,2.72,8.46,3.52,6.09,11.93,11.77,25.46,9.73,39.23Zm27.03,24.78c-16.58-18.14-17.93-29.55-24.45-51.41,4.47,3.23,9.54,5.94,14.57,7.62,6.02,13.71,8.21,28.94,9.88,43.79Zm-12.96-73.06c14.08.55,20.2,14.04,25.53,25.07-15.97,4.8-32.38-2.67-42.94-14.92,7,.35,13.62.64,8.43-8.23,2.32.08,4.65-.57,6.66-1.78.62.26,1.42.27,2.32-.14Zm-8.99-18.87c11.85.46,9.89,19.24-2.27,15.98-2.07-3.84-4.75-7.3-8.69-9.23,2.07-1.27,3.93-2.87,5.54-4.73,1.89-.29,3.32-2.07,5.42-2.03Zm-5.17-6.8c-3.52,9.52-13.66,13.12-22.92,14.69,2.52-17.04,6.72-19.02,22.92-14.69Zm-28.82-4.68c-6.96,0-12.98-4.04-17.82-8.71,5.52-2.68,9.74-7.63,12.71-12.84,7.32-2.62,18.23,5.34,25.39,9-.03.55.12,1.11.44,1.55-4.3,6.82-12.84,10.62-20.72,11Zm19.98-19.95c-.39.44-.93.82-1.48,1.21-5.63-2.79-10.53-6.08-17.27-7.64,3.48-2.23,6.47-5.33,8.34-9.11,9.37-2.33,18.91,7.48,10.4,15.54Zm7.9-23.21c13.6.83,25.96,7.65,38.93,11.3-10.38,11.62-25.99,18.17-41.56,17.45-.57-.89-1.62-1.34-2.47-1.95,9.02-8.02,4.82-20.69-6.07-23.39,3.23-2.23,7.26-3.43,11.18-3.41Zm-24.31-15.56c2.35-13.27,13.96-21.55,23.94-29.35,6.84,11.54,4.02,27.26-5.56,36.43-2,3.63-10.72,5.95-9.91,9.86-.28.43-.39.88-.37,1.32-.11,0-.21,0-.31,0,1.63-6.24-1.55-13.48-7.87-16.58.23-.47.29-1.05.08-1.69Zm3.08,11.35c2.5,7.26-3.01,14.26-8.89,18,1.25-6.56,1.37-13.85-2.31-19.63-.03-7.87,9.9-3.5,11.2,1.64Zm-8.05-11.88c.17,0,.33,0,.48-.03-.03.49,0,.98.1,1.46-3.17.11-6.23,1.66-7.55,4.55-4.01-4.19-8.28-1.49-11.93,1.35-8.3,6.29-8.88,18.5-7.76,28.04-1.98-1.07-4.37-1.86-6.79-1.65-2.86-3.04-8.82-4.07-11.75-1.09-1.79-3.17-5.61-5.45-9.47-5.14,4.24-1.73,7.77-5.37,10.42-9.18,10.01-2.17,19.16-6.59,25.45-14.95,6.02-1.99,12.24-4.3,18.8-3.36Zm-10.03-38.68c3.86,21.01-10.15,45.85-31.12,51.42,3.35-5.9,3.88-30.99-7.61-22.43-.46-20.27,23.74-23.89,38.73-28.99Zm-35,31.93c3.01,7.67,1.45,16.35-3.08,22.82-2.88,3.67-6.43,7.59-11.35,8.04.2-4.68-.59-9.49-2.22-13.9,1.33-.17,2.18-1.59,1.82-2.84,2.28-6.78,9.29-10.22,14.83-14.11Zm-11.43-1.85c1.01.62,1.82,1.55,2.05,2.74-4.03,2.89-7.73,6.44-9.59,11.14-1.69-2.74-3.97-5.06-6.63-6.8-.23-.48-.69-.9-1.4-1.15-1.69-8.38,10.37-10.28,15.57-5.93Zm-32.08-12.84c-4.08-10.49-.5-21.74,1.12-32.36,10.85,10.18,18.76,23.87,19.44,38.99-4.32,1.22-8.1,4.73-8.74,9.44-4.52-4.69-9.36-9.72-11.82-16.07Zm24.6,45.7c-.7-.84-2.07-1.05-2.98-.42-11.32-2.31-16.87-13.97-16.62-24.7,14.23.59,19.88,12.1,19.6,25.12Zm-21.91,2.56c.8-4.02,1.21-8.21.96-12.34,3.32,6.79,9.57,12.42,17.52,13.85-8.77,4.36-15.4,8.53-21.9,16.57-.22-1.44-.54-2.86-.95-4.25,2.56-3.92,3.09-9.29,4.38-13.83Zm-30.2-44.79c21.36,10.88,32.89,29.24,23.42,52.86-2.01-3.53-4.45-6.69-8.04-8.84-13.65-9.54-18.03-28.01-15.38-44.03Zm-1.79,40.17c3.02.34,6.44.88,8.71,3.06-6.41-.02-13.34,3.48-18.57,8.08-1.47-2.28-4.16-2.59-6.49-1.43,3.7-5.26,9.55-10.19,16.35-9.71Zm-19.6-21.47c6.7,4.2,12.57,9.99,16.03,17.16-7.47,1.25-13.46,6.33-17.64,13.35-13.95-7.42-15.85-24.17-17.32-38.32,6.84.73,13.08,4.29,18.93,7.81Zm-16.12,22.35c2.19,3.77,5.12,7.17,9.1,10.03-3.8.3-6.9,1.49-9.81,3.64.7-4.53,1.13-9.09.71-13.67Zm10.36,14.43c.33-.02.79-.03,1.29-.03-1.51,1.59-2.37,3.67-1.45,5.5-4.69,3.49-9.09,8.14-10.15,14.45-1.81,1.01-3.56,2.15-5.28,3.31-2.35-10.11,4.29-23.1,15.59-23.23Zm-45.33-54.47c19.38,4.19,30.4,24.86,30.63,43.54-2.25-5.33-7.3-9.37-13.06-10.42-.53-.83-1.55-1.36-2.59-.95-12.01-5.43-12.9-20.78-14.97-32.17Zm1.46,58.76c-9.56-3.46-4.97-20.9,5.91-15.64,1.23,2.7,2.37,5.14,3.78,7.68-3.59,1.82-6.37,4.54-8.31,7.95-.44-.14-.92-.14-1.38,0Zm20.48,7.22c-5.38,3.33-12.32,4.27-18.43,2.72,1.73-5.66,4.41-11.63,10.17-14.11,2.94,3.81,6.91,6.74,11.74,7.73-.98,1.38-2.09,2.67-3.48,3.67Zm-11.16-26.83c1.4-2.87,6.84-1.68,9.18-.56,7.12,3.17,8.72,11.76,8.55,18.8-.55-.02-1.09.16-1.52.51-9.09-1.22-13.36-11.08-16.21-18.76Zm-30.06,66.33c10.93-10.65,25.46-27.96,42.5-22.49-1.68,8.51,9.75,15.08,16.41,18.1-13.1,24.95-49.02,31.27-72.32,17.68,4.46-4.43,9.06-8.74,13.41-13.29Z"/>
  </g>
</svg>