<?xml version="1.0" encoding="UTF-8"?>
<svg id="_Слой_2" data-name="Слой 2" xmlns="http://www.w3.org/2000/svg" viewBox="0 0 244.93 166.32">
  <g id="_Слой_1-2" data-name="Слой 1">
    <path d="m32.75,94.36c23.67.33,47.57-2.65,70.21-9.64-15.24,22.03-28.88,45.16-44.8,66.72-1.81,2.96-8.99,9.55-8.37,12.59,1.99,6.68,15.87-3.23,20.53-3.95,7.9-3.24,16.14-5.51,24.2-8.33,12.68-7.18,21.44-29.23,31.13-40.64,22.7,49.86,11.59,32.09,60.95,49.1,2.91,1.36,5.82-2.4,3.61-4.81-.71-.75-1.43-1.51-2.03-2.36-14.21-22.71-28.27-45.6-40.4-69.49,26.74,10.06,49.78,12.09,75.63,8.61,24.57-1.8,21.91-29.65,20.88-47.72-.08-8.7-.65-17.37-2.13-25.95,2.42-46.07-89.2,6.41-102.54,23.82-6.84.05-20.4.94-28.24,2.34C84.68,27.27,37.87-4.19,6.09,9.17c-3.8.91-3,11.99-3.69,15.53C1.39,36.85.34,49.02.23,61.22c-2.09,23.82,9.82,32.65,32.52,33.14Zm-23.41-13.8c-6.62-10.48-1.18-45.21-.7-58.73,18.89,16.14,69.95,28.54,96.45,31.5-.07,6.99.22,14.89,2.72,23.14-21.55,8.3-80.89,20.63-98.47,4.09Zm85.22,64.43c-10.72,4.74-22.59,7.31-33.34,12.24,18.84-24.52,33.81-51.77,52.12-76.67,8.17,1,16.82,3.4,25.04,1.61-14.62,20.92-28.29,42.58-43.82,62.83Zm85.87,7.07c-10.83-3.55-21.87-6.36-32.84-9.42-6.73-11.86-11.74-24.9-18.07-36.95,4.45-6.27,9.02-12.46,13.09-18.98,11.47,22.41,24.64,43.92,37.83,65.35Zm56.27-75.25c-8.07,20.19-75.55,9.17-90.33-1.21,1.58-7.42,3.31-17.13,2.29-24.38,27.38-9.82,67.09-9.94,87.69-31.4,1.67,18.6,4.86,38.72.35,56.99Zm-82.89-39.37c21.91-15.23,47.39-31.08,74.93-31.01,16.06,1.82-4.58,17.83-11.13,19.53-22.94,9.01-47.55,12.69-71.16,19.6-.29-.36-.59-.7-.91-.99,2.54-2.61,5.43-4.86,8.27-7.13Zm-32.67,12.1c6.73-.04,13.64-2.21,20.28-.79,3.17,5.57.8,15.25-.11,21.41-.31,12.01-20.3,4.73-27.8,4.2-2.2-7.24-2.62-14.95-2.3-22.47,2.2-2.92,6.69-1.9,9.92-2.35ZM16.53,11.86c33.15-.25,61.57,18.66,88.67,35.54-29.51-4.17-59.24-11.56-85.91-25.16-4.92-2.77-15.14-10.81-2.76-10.38Z"/>
  </g>
</svg>