<?xml version="1.0" encoding="UTF-8"?>
<svg id="_Слой_2" data-name="Слой 2" xmlns="http://www.w3.org/2000/svg" viewBox="0 0 313.8 322.35">
  <g id="_Слой_1-2" data-name="Слой 1">
    <path d="m8.92,313.35c25.94,3.75,52.24,4.56,78.39,5.79,17.18.49,45.5,4.75,50.27-17.22,19.81-47.5,38.24-157.46,106.9-146.72,4.99,1.24,12.72,2.41,12.25,9.04.2,33.2-3.57,66.32-2.05,99.54,1.01,11.6-2.81,48.8,4.91,55.31.61,5.69,11.14,2.23,14.91,2.02,4.74-.59,5.76-4.78,5.2-8.84,0-27.66-2.77-55.29-.5-82.93,0-53.01,41.63-97.17,33.56-151.23C309,50.78,283.42.44,252.39,0c-21.63,10.32-36.24,32.71-46.46,53.75-30.5,52.45-41.42,113.14-70.5,166.11-23.03,53.31-82.94,25.65-120.63,56.71-9.28,7.22-24.71,33.21-5.88,36.78Zm15.58-35.55c19.58-13.24,44.34-10,66.38-15.41,71.88-13.29,79.29-139.1,115.74-194.23,10.53-23.27,23.86-46.71,45.86-60.96,6.17-1.32,12.64,2.71,17.32,6.43,46.53,43.09,43.19,95.7,18.47,149.64-23.47,46.86-15.83,100.47-15.5,151.05-2.1.77-5.93.39-8.92.83-4.7-42.68-2.09-85.92-.45-128.73-.39-9.77,2.23-20.35-1.38-29.65-24.22-22.52-64.57-3.73-80.11,21.07-25.52,38.84-37.22,84.26-53.13,127.4-7.74,11.99-36.55,6.12-48.98,6.59-24.03-1.32-48.25-1.95-72.04-5.79-2.23-11.66,8.13-21.8,16.74-28.25ZM271.25,37.75c22.77,20.17,31.65,64.85,19.44,92.52-1.01,2.07-4.17.44-3.14-1.55.49-.91.93-1.85,1.33-2.8,8.83-27.51,1.69-65.17-19.58-85.26-1.89-1.27.09-4.17,1.94-2.91Zm7.83,122.86c-.82,2.11-4.1.78-3.24-1.32,1.71-2.85,4.13-16.14,7.98-14.66,2.6,2.03-4.35,12.3-4.74,15.98Zm-220.58,113.77c-.01,1.49-1.37,1.78-2.54,1.9-12.97,2.73-24.59,9.89-34.49,18.44-15.03.68,36.56-29.34,37.03-20.34Z"/>
  </g>
</svg>