<?xml version="1.0" encoding="UTF-8"?>
<svg id="_Слой_2" data-name="Слой 2" xmlns="http://www.w3.org/2000/svg" viewBox="0 0 577.99 860.18">
  <g id="_Слой_1-2" data-name="Слой 1">
    <path d="m146.28,826.9s.06,0,.08,0c0,0-.08,0-.08,0Zm162.19,20.53c-.14-.04-.3-.06-.44-.08,0,0,.44.08.44.08Zm58.77-767.65c15.51-3.72,24.37,14.24,28,26.57,6.53,35.2-54.62,61.37-71.92,28.24-2.61,1-5.25,1.88-7.89,2.62-6.78,13.72-5.83,29.58.95,43.1,5.85,13.75,20.13,19.72,31.88,27.4,73.61,43.75,69.63,222.82,79.09,302.55,44.81,46.63,78.96,101.68,108.34,158.99,16.7,29.06,31.7,58.99,39.12,91.91,2.64.38,4.58,4.13,1.81,6.26-35.58,21.93-79.95,40.58-122.36,36.6-38.7,42.29-104.1,53.56-158.3,40.9-1.41,5.78-19.35,9.22-23.63,10.65-42.14,8.93-96.74,7.59-125.88-28.67-48.33-4.33-98.51-18.38-140.12-42.96-.71,1.5-2.49,2.33-4.09,1.88-6.59-1.96,3.28-20.08,3.92-25.4,28.22-80.53,71.47-155.59,123.85-222.73,21.49-88.69-1.27-294.4,101.94-325.34,9.59-4.79,20.35-8.09,27.85-15.98,7.33-10.57,4.37-24.64,3.75-36.69-16.71,4.74-23.63-6.28-28.95-20.27-7.11-17.76-11.44-37.94-7.45-56.94-4.32,1.31-12.85,6.93-15.49,1.13-9.38-18.68-1.35-40.32,10.97-55.65,42.03-55.65,154.87-22.96,144.59,51.82Zm30.61,409.44c-3.97,2.47-5.43-2.76-6.06-5.8-22.14-20.14-43.18-41.44-63.39-63.52-2.34-3.06-6.44-5.99-6.24-10.15,12.17-32.53,33.34-63.64,41.03-98.41,6.99-37.08-7.91-63.66-47.53-44.28-17.16,7.14-21.42,24.68-28.64,19.48-13.82-15.7-35.86-32.26-57.39-21.61-48.9,29.21,3.57,116.3,27.34,149.2,2.56,1.65,1.6,6.39-1.88,6.28-36.2,20.89-62.98,54.72-90.09,86.01-.11,3.91-1.36,8.99-5.9,7.05-66.14,77.51-120.42,167.05-151.02,264.54,41.54,21.42,89.68,38.25,137.36,41.82-24.29-112.12,49.29-281.52,101.61-379.1,3.28-3.76,5.76-14.88,11.65-12.68,1.59.88,2.4,3.15,1.36,4.76-58.91,108.03-130.32,262.82-107.35,387.26,2.38.46,3.46,3.8,1.91,5.53,33.2,34.55,93.13,33.5,134.97,16.46-.76-.58-1.44-1.24-2.01-2.02-.34-3.51,1.38-4.41,3.57-4.22,6.18-130.38,9.95-261.34-7.25-391.11-1.13-3.51-.48-9.89,4.7-7.67,20.83,130.9,16.99,268.45,8.22,400.55,50.74,13.06,111.75,2.35,149.63-35.34-4.18-99.11-30.58-199.57-85.81-282.74.06.09.13.18.19.28-3.86-5.85-72.21-96.02-45.49-81.14,6.25,11,12.44,22.29,19.43,32.78,74.44,92.23,113.43,208.27,118.67,326.13,40.06,2.63,80.37-13.31,114.92-32.8-8.38-41.53-30.97-77.53-50.73-114.36-30.71-59.99-72.02-113.85-119.76-161.2Zm-192.17-164.09c-7.97,32.8-20.58,64.29-29.31,96.83-4.68,23.4-5.46,47.34-9.07,70.9,24.77-28.55,49.57-57.19,81.81-77.57-15.62-20.01-35.89-58.14-43.43-90.16Zm123.34,84.11c18.45,22.86,40.21,43.26,61.56,63.47-2.17-20.62-.7-41.88-4.45-62.18-6.19-26.95-15.2-53.24-21-80.27-10.02,27.99-23.54,52.62-36.11,78.98Zm-23.96-262.74c.44-1.67.94-3.59,1.51-5.55-10.49,8.61-23.31,13.86-36.36,17.35,1.67,14.81,4.22,32.98-6.91,44.56-24.92,19.83-64.45,23.04-78.21,55.48-38.76,84.09-30.93,179.11-46.26,268.32,19.25-23.44,20.68-19.31,23.67-50.58,1.72-58.58,27.14-111.98,40.4-168.17-5.43-57.17,54.86-69.59,87.04-28.4,40.96-47.98,97.79-26.08,78.46,39.66,1.32.37,2.44,1.48,2.58,2.93,4.71,30.39,16.43,59.44,22.46,89.62,3.72,22.63,1.63,45.76,5.03,68.42,7.41,6.92,14.45,14.21,21.22,21.75-2.56-59.07-9.55-117.75-19.97-175.94-10.68-56.08-16.26-93.03-70.71-121.91-17.73-9.76-30.5-38.83-23.95-57.53Zm61.07-58.09c-3.16,19.94-18.47,34.9-36.22,43.34,13.21,23.9,57.39,5.57,58.75-19.2.1-9.46-9.86-32.07-21.87-24.67-.21.17-.43.35-.66.53Zm-149.09-9.71c17.76-5.47,32.91-17.06,44.07-31.69,1.2-2.37,3.11-5.14,6.09-3.48.62.44,1.16.91,1.67,1.45-.29,21.47,19.53,37.68,39.72,41.47,4.41,1.19,2.65,7.89-1.78,6.77-19.95-4.22-37.61-16.93-43.89-37.31-7.47,9.06-16.9,16.56-27.19,22.28-7.37,21.4-.7,45.87,8.5,65.63,5.91,12.27,9.7,10.36,21.61,8.34,15.02-3.84,30.63-9.66,41.22-21.45,1.29-1.65,3.16-1.63,4.53-.79,1.04-1.32,2.99-1.16,4.16-.23,19.74-5.83,39.11-20.3,43.29-41.38-.51-1.26-.31-2.81.73-3.78,13.56-66.16-77.77-100.05-123.14-61.24-14.85,13.71-27.41,34.93-19.6,55.39Zm51.2-28.81h0c.32-.25.69-.65.83-.95-.22.35-.51.66-.83.95Z"/>
  </g>
</svg>