<?xml version="1.0" encoding="UTF-8"?>
<svg id="_Слой_2" data-name="Слой 2" xmlns="http://www.w3.org/2000/svg" viewBox="0 0 494.56 282.71">
  <g id="_Слой_1-2" data-name="Слой 1">
    <path d="m172.45,217.68c.11.01.22.04.33.05l-.33-.05ZM287.02,21.26c3.11.25,6.53-.59,9.49.43,33.57-.95,22.82,24.54,24.3,47.25,1.36.58,2.38,1.98,2.13,3.81.8,2.97,2.87,5.38,4.84,7.66,32.02,28.07,76.84,36.04,111.35,60.89,33.97,22.02,74.98,71.31,45.11,111.23-12.42,18.9-35.03,30.48-57.56,30.19-94.97-2.9-31.95-141.79-106.11-169.24-.08,13.89-.16,27.79-.24,41.68.61,17.44.99,38.34-20.73,40.68-19.35,2.47-39.74,1.19-59.42,2.42-30.77,27.8-81.61,26.88-111.5-1.79-37.41-.59-74.92-.64-112.29-1.78C-4.23,193.55.69,170.64.16,156.16c-.01-13.33,0-26.67-.02-40-.01-25.81-.03-51.62-.04-77.43.23-16.82,15.88-18.25,28.97-16.95.57-3.58-.95-8.09,1.41-11.08,6.31-2.29,13.96-.31,20.72-.96,8.48-.07,16.97.07,25.45-.12,5.57.81,2.43,8.22,3.2,12.05,17.46-.04,34.91-.07,52.36-.1,4.72-5.97,8.83-12.92,14.57-17.86,11.87-2.31,25.06.03,37.34-.63,10.08-.08,20.22.43,30.26.05,3.08-.23,4.1,3.23,5.76,5.17,2.97,4.51,6.6,8.83,9.55,13.08,4.56,0,9.12-.02,13.67-.03-.16-7.17,3.47-14.32,9.72-18.04,14.32-8.38,35.11-.28,33.93,17.95Zm-146.09.29c26.68-.05,53.36-.11,80.05-.16-2.81-3.64-5.28-7.45-8.04-11.12-20.92-.13-41.84-.31-62.76-.44-2.66,3.25-5.33,6.49-7.86,9.84-.46.63-.93,1.26-1.39,1.89Zm-64.61-4.94c.95.03,1.92-.31,2.57-.97-.67.62-1.59.97-2.57.97Zm-40.24,5.16c12.26-.04,24.52-.06,36.78-.08-.04-1.67-.02-3.33,0-5-12.21.03-24.43.06-36.64.07-.02.77-.04,1.55-.06,2.32-.02.9-.06,1.8-.08,2.69Zm85.8,167.64c-30.43-34.1-25.12-91.37,11.05-119.3-41.93-.11-83.87-.25-125.8-.37.02,30.47.02,60.94.04,91.41.49,7.48-1.27,15.79,1.73,22.78,5.3,7.43,38.58,3.13,49.32,4.58,21.22.29,42.43.61,63.65.9Zm106.55-117.63c-1.55.11-2.99-.86-3.53-2.26-44.73-28.36-108.02,1.2-115.11,53.63-9,48.34,35.9,95,84.41,88.06l-.12.02c.14-.02.3-.03.43-.05,13.3-1.63,25.53-6.5,36.27-14.33,42.21-29.59,40.93-97.17-2.35-125.06Zm85.37-1.24c-24.69.34-49.38.72-74.07,1.08,35.31,28.86,39.06,86.21,7.79,119.41,15.56-.46,31.12-.9,46.68-1.37,8.95-.7,17.56-4.36,18.72-14.26.96-34.86.42-69.93.87-104.87Zm6.93,12.5c-.05,7.74-.09,15.48-.13,23.22,57.13,17.88,44.18,89.81,59.02,135.55,31.34,77.57,155.93,9.1,87.22-66.77-32.54-39.37-84.27-52.61-127.36-76.58-4.59-2.89-13.34-8.89-18.74-15.43Zm-25.47-54.37c-12.53-.46-25.01-.46-37.62-.35-41.27.38-82.74-.41-123.91.56h0c-37.83-.82-75.94.14-113.87-.09C.81,26.17,8.66,51.41,7.12,62.74c45.26.19,90.53.16,135.78.46,26.46-15.96,61.71-15.41,87.58,1.55,27.78-.39,55.57-.83,83.35-1.21.22-8.94-.24-17.97.34-26.86-2.53-7.84-12-8.29-18.93-8.01Zm-44.85-7.33c9.86-.02,19.72-.04,29.58-.06.04-1.62.01-3.25-.38-4.82-4.09-15.14-30.42-11.01-29.19,4.88ZM86.77,107.01c6.66,7.04,10.01,17.38,7.59,26.9-1.96,10.06-12.92,19.65-23.19,14.32-12.97-5.6-10.15-28.6,4.62-28.91,2.96-8.6-12.09-15.59-5.6-20.16,3.73-5.5,13.72,4.8,16.58,7.85Zm-4.08,5.95c.5,5.53,1.34,14.86-6.94,13.35-8.88,1.33-7.4,16.63,1.82,16.45,6-.59,9.64-6.88,10.33-12.39.97-6.21-1.27-12.62-5.22-17.41Zm62.23,66.8c-44.52-36.71-17.66-110.64,39.99-110.27,44.7-1.09,76.51,49.39,56.31,89.25-16.05,36.06-66.69,47.12-96.3,21.01Zm44.36-105.61c-50.44-4.55-81.77,57.23-48.47,95.23,24.97,31.19,78.42,24.96,95.59-11.04,19.42-35.17-7.13-82.36-47.11-84.19Zm9.78,48.16c-20.46-16.59,11.1-42.62,23.46-19.35,7.05,14.01-11.07,28.95-23.46,19.35Zm-2.71-15.66c-3.77,16.71,22.14,21.09,24.06,4.06,1.44-14.86-20.52-18.51-24.06-4.06Z"/>
  </g>
</svg>