<?xml version="1.0" encoding="UTF-8"?>
<svg id="_Слой_2" data-name="Слой 2" xmlns="http://www.w3.org/2000/svg" viewBox="0 0 260.37 472.06">
  <g id="_Слой_1-2" data-name="Слой 1">
    <path d="m1.76,448.01c49.32,29.58,130.58,26.23,186.48,19.37,20.05-4.16,55.47-2.6,69.72-18.09,1.32-.39,2.42-1.5,2.42-3.32-.66-9.55.71-22.35-9.05-27.71-7.64-4.44-16.58-5.79-25.21-7.04-16.46-1.77-32.96-5.25-49.48-5.52-1.72-72.84-3.44-145.68-5.17-218.52-.62-26.69-1.29-53.4-1.89-80.09-.03-1.5-1.02-2.79-2.37-3.25h0c-3.99-3.3-10.46-2.95-14.95-6-8.14-3.91-14.04-11.1-18.37-18.85,22.05-9.95,25.05-40.52,9.91-57.57-7.04-8.3-16.78-13.67-26.49-18.28-3.62-1.28-8.45-5.05-11.98-1.9-3.16,3.95,2.5,7.29,4.28,10.48,22.88,26.39-8.37,55.31,11.37,68h0s0,0,0,0c-4.38,8.08-11.77,13.68-19.96,17.53-3.59,2.79-16.51,5.34-16.22,9.47.22,22.89.51,45.79.73,68.68.82,75.89,1.57,151.79,2.42,227.68-22.92,2.16-45.07,2.07-66.93,9.81-15.79,3.44-22.72,14.25-20.36,30.12h0c-1.03,1.53-.95,3.81,1.11,5.01Zm246.2.61c-62.03,18.95-182.67,26.95-240.28-5.11h0c-.15-2.84-.37-6.22-.18-8.91,51.87,19.75,108.34,18.44,162.89,15.21,27.88-2.33,57.77,1.91,82.52-14.07h0c.23,2.7.31,5.92.45,9.79-1.82.69-3.66,2.43-5.4,3.1ZM123.91,51.55c3.46-13.59,1.75-28.71-6.2-40.45,27.63,10.03,42.1,47.18,11.25,62.8.06-5.61,9.33-23.31,5.45-26.39-3.87-.03-2.47,6.54-4.08,9.12-1.63,5.74-3.99,11.36-4.88,17.27-8.32-2.44-3.14-15.83-1.54-22.34Zm-24.43,54.2c11.52-4.94,22.27-12.17,28.19-23.55,7,13.68,19.81,23.71,34.94,26.7,2.83,100.5,3.89,201.37,7.59,301.7h0c-6.25,6.95-20.51,7.18-29.31,8.17-16.05,1.19-51.95,2.21-46.04-22.59-.21-19.09-.41-38.18-.61-57.27-.82-76.55-1.59-153.1-2.45-229.64,2.57-1.14,5.13-2.32,7.68-3.51ZM18.14,421.13c22.62-8.48,46.64-9.24,70.43-10.96,6.3,22.2,80.41,20.75,88.59,2.27,16.53,2.97,65.56,3.04,73.88,15.44-20.8,16.99-50.57,12.45-75.71,14.68-55.56,3.15-113.37,5.75-166.11-14.92h0c1.5-2.55,4.19-4.43,8.92-6.5ZM145.51,121.4c-.03-.95.68-1.79,1.65-1.85,3.87.04,1.59,19.54,2.6,23.68.52,14.94,1.02,29.9,1.54,44.84.5,14.65,1,29.31,1.51,43.97-.67,3.19,2.35,12.14-1.36,13.07-3.65-.56-1.4-14.94-2.34-18.68-.77-22.23-1.53-44.44-2.29-66.67-.42-12.79-.89-25.57-1.32-38.36Zm9.79,214.04c-.33,2.09,1.46,6.28-1.58,6.71-.89,0-1.72-.72-1.75-1.64-.48-13.79-.92-27.58-1.4-41.36.7-2.51-3.85-38.96,2.53-28.74.73,21.67,1.47,43.35,2.2,65.02Zm34.91,95.73c.59-3.69,9.73-1.87,12.86-2.9,8.02-.81,16.18-1.06,24.04-3,.92-.25,1.89.44,2.09,1.34-.92,5.47-30.74,4.58-37.09,6.16-.94.09-1.82-.65-1.89-1.59Z"/>
  </g>
</svg>