<?xml version="1.0" encoding="UTF-8"?>
<svg id="_Слой_2" data-name="Слой 2" xmlns="http://www.w3.org/2000/svg" viewBox="0 0 394.06 596.54">
  <g id="_Слой_1-2" data-name="Слой 1">
    <path d="m12.36,375.33c5.07,3.19,11.04,4.28,16.59,6.32-23.88,31.76,14.94,64.9,18.48,12.11.58-1.52,1.41-3.3,2.83-4.2,22.87,22.52,41.73,48.21,72.02,17.06,3.57-.13,6.32-7.26,8.13-10.09,7.91-12.84,11.62-28.51,22.42-39.37,4.04-4.61,14.16-5.14,14.2,2.69,1.73,16.5-17.16,9.06-23.5,20.87-12.21,22.46,29.6,37.98,40.02-1.68.37,16.85.76,33.69,1.12,50.54-19.23,39.29-50.49,71.38-69.31,111.02-2.34,5.47-20.39,37.04-13.64,40.69,3.86,21.48,120.58,14.02,142.34,13.88,12.46-1.18,51.15-1.9,54.74-15.4-8.75-38.76-30.76-72.51-55.12-103.25-12.64-16.62-27.99-31.69-36.52-51.09-.16-12.76-.28-25.52-.42-38.27,17.09,38.76,55.29.43,32.82-18.17-3.36-1.76-7.86-5.33-11.35-.49-.11.16-1.04,1.02-1.43,1.15-10.38-8.72,4.44-22.52,17.02-11.27,2.81,2.62,3.36,6.7,4.52,10.2,3.03,31.95,40.85,69.8,70.14,41.69,32.51-27.86,12.51-5.85,29.03,6.35,22.39,2.88,19.11-30.22,6.55-40.18,3.23-4.5,10.39-3.58,15.14-5.73,40.09-13.27,27.79-59.98-8.68-35.74h0c7.78-7.8,12.78-17.8,18.64-27.01,5.66-5.85,1.61-10.03-5.47-9.19-1.13-51.28-2.28-102.56-3.41-153.84-.24-10.8-.48-21.6-.72-32.4-.94-4.19,2.01-11.54-3.03-13.39-2.78-3.75-9.78-5.72-17.3-6.58,21.08-23.59,18.78-56.65-3.5-78.51-3.07-3.6-10.62-11.55-13.75-4.03-5.9,26.55-35.71,61.69-4.05,82.78-5.68,1.03-16.98,3.74-18.59,10.23-.64,65.23,4.83,131.99,6.21,197.71-1.85.2-3.89-.22-5.63.51-13.45-.12,9.59,26.39,13.34,29.82,4.06,3.82,8.8,6.86,13.94,9,2.3,10.01-4.86,21.7-15.02,23.81-13.83-2.19-25.42-26.29-37.74-32.15-7.5-4.4-18.48,2.17-22.3,9.41-15.4-22.3-43.81-19.93-55.84,3.38-.02-2.2-.05-4.41-.07-6.61,9.34-3.52,27.99-26.29,27.78-35.4.26-4.67-5.07-3.86-8.22-3.78-.78-51.92-1.55-103.82-2.33-155.74-.16-11.01-.33-22.02-.49-33.04-.51-3.1,1.11-7.31-1.55-9.58h0c-1.6-7.52-14.7-8.3-21.39-9.44h0c23.54-27.92,19.89-64.3-7.67-87.82-2.21-2.18-5.94-4.53-8.77-2.09-8.36,32.36-35.99,63.62.3,89.37-8.6,1.09-20.83,1.82-22.6,11.69.49,12.21.95,24.43,1.41,36.64,2.08,53.62,4.12,107.23,6.21,160.84-2.43.23-5.15-.41-7.42.59h0c-12.75,1.66,16.44,34.14,21.12,36.05.04,1.85.07,3.7.12,5.55-8.93-20.73-43.41-23-49.58.21h0c-4.41-8.14-6.69-19.34-18.52-17.82-19.36,4.39-23.88,18.34-31.18,34.26-17.66,19.83-34.87,3.71-25.32-18.81.95-.59,1.56-1.25,1.91-1.92h0c7.09-1.83,36.83-36.65,21.91-37.59-1.48-1.76-4.01-.91-6.01-1.01-3.23-65.42-3.75-131.58-8.34-196.64-1.38-8.11-12.41-7.41-18.88-8.55h0c23.06-31.83,26.58-59.44-3.61-87.86-3.05-4.09-8.9-8.74-11.37-1.47-18.8,28.45-31.56,62.91-1.48,89.12-8.96,1.35-22.05,1.8-22.3,11.51,3.06,65.18,6.24,130.36,9.33,195.55-2.25.26-5.13-.57-6.75,1.43h0c-6,5.11,13.41,31.19,18.82,35.11-.07,1.42.08,2.93-.6,4.2-12.07-34.27-50.13,12.96-18.38,33.83ZM324.79,80.52c-13.5-21.54,8.74-43.39,12.86-64.75,23.46,20.76,26.2,54.15,2.66,76.02-1.72-7.48-.48-15.34.87-22.8.53-6.37,6.2-15.64,2.48-21.24-1.13-.5-2.43.4-2.43,1.61-.33,13.6-7.57,27.07-4.73,40.98-4.14-3.02-8.56-5.72-11.7-9.82Zm11.88,18.45c.68.18,1.42.17,2.08-.05,8.11-.09,16.28,1.29,21.72,3.95-12.79,6.4-29.64,4.95-43.03.76,4.79-2.84,11.89-4.35,19.23-4.66Zm-15.3,170.21c-1.95-52.93-3.86-105.87-5.84-158.8,14.82,4.8,32.38,5.42,46.95-.42h0c1.4,63.02,2.79,126.03,4.2,189.05-14.72.49-29.44,1-44.16,1.49-.41-10.44-.77-20.88-1.15-31.32Zm-112.29,88.12c2.37-15.56,19.38-30.47,35.1-22.7,11.1,3.53,16.96,25.44,22.85,13.1,1.28-5.68,6.32-9.17,11.73-10.54,2.28-.02,3.73,2.66,5.66,3.26,12.28,10.07,19.87,25.31,35.32,30.48,16.6.59,29.7-20.3,23.27-35.23-13.03-6.57-21.54-14.81-28.71-27.89,19.33-.65,38.65-1.33,57.98-1.93-5.33,8.42-9.98,17.46-17.09,24.57-2.8,2.85-11.61,5.62-6.54,10.44h0c3.89,8.15,20.8-3.23,27.2-5.9,5.95-1.38,13.02,3.87,11.38,10.25-7.16,24.86-37.62,15.31-40.31,30.91-.45,3.17,2.15,5.24,4.12,7.28,2.98,3.58,4.52,8.13,5.88,12.52.27,3.37.38,6.96-1.09,10.09-16.7,19.53,3.5-46.42-45.07,1.89h0c-25.6,18.27-53.26-16.09-55.59-40.78-1.51-14.13-18-25.29-30.97-17.51-16.02,9.38-4.04,35.82,8.63,24.09,12.01,3.47,5.61,18.91-3.04,22.86-15.28,4.7-23.91-28.22-20.71-39.25ZM172.36,62.55c-.73-19.14,12.07-35.46,15.83-53.72,25.47,22.7,27.02,53.17,5.32,79.18-6.84-12.99,5.24-45.67-1.08-44.95-2.24.4-1.22,2.98-1.5,4.57-1.72,13.05-4.93,25.26-1.73,38.12-7.18-6.37-15.79-12.91-16.84-23.21Zm41.12,38.6c-13.24,4.55-28,1.19-41.39-1.38,13.12-4.02,28.48-3.12,41.39,1.38Zm-45.06,4.95c15.23,3.17,32.38,7,47.47,1.66,1,63.7,1.9,127.39,2.88,191.09-14.3.22-28.6.42-42.89.62-2.49-64.45-4.98-128.92-7.46-193.37Zm-1.72,200.52h0c19.75-.3,39.5-.59,59.25-.88-5.69,10.01-12.7,20.62-23.19,26.18-2.36-.19-4.36,2.42-3.5,4.54.07,20.53.43,41.07.6,61.6,1.09,6.51-2.06,31,2.38,33.36,29.4,49.26,76.95,89.07,89.18,147.72-15.93,12.81-172.15,15.78-183.14.13.75-1.78.38-3.16-.5-4.03h0c16.99-53.57,59.4-93.76,83.27-143.54h0c1.43-17.86-.76-36.55-.56-54.68-1.29-6.84,1.82-44.94-3.54-44.88-6.98-7.93-14.92-16.02-20.26-25.53ZM22.92,41.25c3.07-11.41,10.52-21.12,16.09-31.52,29.74,27.75,24.92,51.8,2.34,82.42-.07-.08-.15-.16-.22-.25-2.75-14.76,5.92-28.96,3.95-43.78.19-2.47-3.39-2.71-3.51-.26,1.84,13.72-5.56,27.26-4.39,40.88-13.76-11.05-19.22-30.62-14.26-47.49Zm36.99,61.77c-12.59,4.71-26.89,1.2-39.94.19,12.73-3.78,27.06-3.75,39.94-.19Zm-42.77,6.82c14.61,1.59,30.07,4.58,44.43.27h0c2.52,63.06,4.89,126.12,7.36,189.18-14.23.42-28.45.83-42.68,1.25-3.02-63.57-6.08-127.14-9.12-190.7Zm-5.16,229.95c2.46-3.31,7.87-4.4,10.51-.75,1.64,2.52,1.25,5.38,2.91,8.09,3.95,6.85,12.1.43,12.56-5.48h0c2.21.09,4.34-2.21,3.56-4.52-1.85-3.29-6.21-4.67-8.53-7.83-5.79-6.32-10.18-13.77-13.7-21.57h0c19.63-.61,39.26-1.1,58.89-1.73-3.93,9.46-10.62,17.86-18.99,23.76-2.59,2.61-9.83,3.03-7.75,7.92h0c-13.33,30.97,17.71,50.87,38.19,24.01,4.56-8.14,6.46-17.92,13.75-24.35,22.19-16.29,16.22,2.62,28.02,13.74,5.48,3.7,9.42-1.69,7.64-4.49h0c3.09-19.58,30.5-17.78,37.48-1.75,6.65,13.41,1.19,49-16.17,51.73-7.24.95-16.58-6.4-10.01-13.31,8.02-7.64,22.2-1.95,23.7-20.59,1.55-18.73-19.85-20.39-29.14-7.38-9.98,12.54-14.3,28.2-22.86,41.8-29.82,34.62-45.38,7.22-68.99-14.19-1.13-1.1-2.8-1.13-4.07-.43-13.58,1.15-7.69,43.63-19.06,28.44-10.47-13.75,19.31-32.18-1.68-36.93-17.55-3.08-28.06-18.62-16.27-34.21Zm78.3,59.23c14.23,2.24,23.79-11.24,29.82-22.21,1.93-4.29,6.55-9.45,5.59-14.26,2.45-8.38-4.13-20.59-13.86-15.71-6.15,3.05-9.8,9.3-14.06,14.42-4.79,6.65-11.45,12.03-15.1,19.43-3.43,6.96-.91,17.01,7.61,18.33Zm-1.47-14.79c2.47-5.74,7.58-9.85,11.33-14.74,6.33-7.98,21.48-30.16,18.34-4.72-5.75,10.54-11.43,25.73-24.9,27.52-4.8.71-6.45-4.28-4.77-8.05Zm203.13,19.49c13.04,4.21,22.53-11.02,14.56-21.59-3.47-4.96-8.37-8.73-11.86-13.7-3.69-5.02-4.95-11.34-8.27-16.53-12.34-8.43-20.34,9.86-17.34,20.19,2.35,13.05,9.48,27.33,22.9,31.63Zm-15.19-43.27c.82-1.65,2.39-4.29,4.56-3.45,2.71,6.04,4.91,12.43,9.21,17.57,3.55,4.75,8.82,8.29,11.39,13.73,1.71,3.96-.82,8.84-5.27,9.08-14.8-1.91-24.03-23.75-19.89-36.93Zm-75.07,90.57c.84-.38,1.96-.02,2.32.87,9.2,17.38,22.41,32.17,33.44,48.28,7.21,9.96,14.08,19.94,20.3,30.52,1.16,1.92-1.73,3.8-2.98,1.84-10.2-17.24-22.21-33.27-34.01-49.37-2.79-4.34-23.49-29.42-19.07-32.15Zm59.73,97.11c-.94-1.86,1.88-3.65,3.08-1.64,1.45,2.01,14.57,29.6,5.54,22.59-2.07-7.22-5-14.44-8.62-20.95ZM55.3,121.71c.99.05,1.66.88,1.66,1.59,1.38,34.53,2.8,69.07,4.19,103.6.29,2.31-3.31,2.67-3.49.38-1.3-32.09-2.58-64.17-3.89-96.26.57-2.72-2.15-8.55,1.53-9.32Zm155.39,1.79c.94-.04,1.8.72,1.82,1.68.31,22.2.65,44.4.96,66.59.14,11.19.33,22.38.48,33.56.11,2.29-3.43,2.38-3.5.15-.41-29.03-.84-58.05-1.25-87.08.7-3.25-2.05-14.14,1.49-14.9ZM59.83,240.77c3.67.63,1.53,8.08,2.45,11-.6,4.17,3.45,24.35-.25,24.77-3.9.65-2.62-29.07-3.8-33.89-.05-.95.62-1.81,1.6-1.89Zm154.68,24.96c-.69,3.23,2.09,10.71-1.44,12.05-3.74-.4-1.27-12.12-2.14-15.42.73-3.68-2.31-17.73,1.3-18.5,3.85.03,1.34,18.02,2.28,21.88Zm140.3-143.14c.98-.02,1.73.76,1.79,1.71.3,14.63.56,29.26.86,43.89.29,14.67.58,29.34.86,44.01-.7,3.12,2.09,11.7-1.5,12.64-3.75-.36-1.25-15.97-2.14-19.75-.49-24.66-.96-49.32-1.44-73.98.55-2.54-1.73-7.7,1.58-8.53Zm4.06,115.21c3.71.85,1.3,8.51,2.16,11.59-.73,4.44,2.92,27.57-.83,27.82-3.99.64-1.83-32.36-2.98-37.56,0-.95.66-1.79,1.65-1.84Z"/>
  </g>
</svg>