<?xml version="1.0" encoding="UTF-8"?>
<svg id="_Слой_2" data-name="Слой 2" xmlns="http://www.w3.org/2000/svg" viewBox="0 0 581.05 666.28">
  <g id="_Слой_1-2" data-name="Слой 1">
    <path d="m3.11,602.47c1.55.19,3.13-.76,3.68-2.21,0,0,0,0,0,0,74.94,88.9,491.65,86.86,569.9.86,4.84-.95,3.01-8.82,3.71-12.64.12-11.32,0-22.66.48-33.98.59-2.06-.41-3.63-1.83-4.32-5.92-17.41-23.68-26.9-39.23-34.57-13.69-6.37-28.05-11.25-42.58-15.32-4.45-1.2-6.16,5.56-1.85,6.75,74.46,20.02,119.17,59.75,19.73,93.46-105,31.79-217.7,32.48-326.21,22.6-50.78-6.06-102.4-13.66-149.17-35.86-71.44-35.81-4.84-68.43,39.67-80.47-.46,1.03-.44,2.27.13,3.24.08,16.14.02,32.29.14,48.43.02,2.49,3.07,4.11,5.16,2.86,31.96,70.08,368.7,52.79,409.06-8.06,3.8-3.42-.28-17.44.27-23.01-1.89-27.41-3.79-54.82-5.69-82.23-1.5-21.32-2.95-42.64-4.43-63.96-1.42-5.03,1.21-23.42-4.77-23.5-3.51-16.97-28.67-19.23-42.68-23.19-2.62-40.04-5.21-80.07-7.82-120.11-1.53-6.69-.25-46.07-5.49-45.49-10.6-10.66-26.15-14.28-40.55-16.56-4.12-3.82-8.72-7.13-13.66-9.77,22.24-2.61,42.56-14.95,47.64-38.94.8-3.11-.85-6.8-4.36-6.95-19.17-.35-43.24-5.72-58.94,7.86-1.11-6.6-1.87-13.33-3.79-19.67,1.32-1.39,2.9-2.49,4.4-3.68,9.46,7.47,20.48-1.96,8.7-6.17,2.34-1.55,4.73-3.03,7.15-4.45,2.14,1.87,6.87,2.77,8.92,2.9,6.62.75,8.48-6.68,2.09-8.81,2.37-1.16,4.76-2.28,7.18-3.35,6.24,8.6,20.97,2.54,10.48-4.33,2.85-1.1,5.72-2.14,8.6-3.14,8.18,7.94,19.97,2.46,12.17-3.96,1.05-.38,2.51-.53,3.22-1.42,4.05,4.27,17.95-1.98,10.99-7.61-4.29-1.93-11.03-1.07-13.69,3.14-1.34.34-2.66.8-3.99,1.19,3.86-13.82-12.77-6.23-9.42,3.07-3.77,1.29-7.52,2.67-11.23,4.13,5.98-17.65-13.3-6.13-10.15,4.25-2.85,1.28-5.67,2.62-8.46,4.03.88-14.06-13.91-3.14-10.25,5.62-2.24,1.33-4.46,2.7-6.64,4.14.01-15.84-14.3-1.66-9.63,6.87-.8.57-1.65,1.18-2.46,1.82-6.4-19.12-30.77-26.51-49.53-22.57,12.15-7.37,35.77-36.59,22.8-49.55-4.08-.69-7.67,2.67-11.4,3.91-10.23,4.51-21.32,9.14-28.76,17.78.89-10.31-5.22-32-18.68-21.89-8.29-13.63-30.16-12.27-38.77.88-8.53-4.21-25.33,3.83-21.95,15.78-5.05.49-13.84,2.04-13.98,8.41,2.06,8.58,3.93,17.34,8.17,25.41-.21.52-.35,1.08-.41,1.62-2.13-3.33-4.32-6.61-6.75-9.71.56-3.91,1.6-8.79-.82-12.25-3.06-3.2-6.51-.21-7.05,3.25-2.98-3.04-6.14-5.9-9.45-8.59,2.09-16.1-11.46-20.36-10.72-7.76-3.45-2.23-7.01-4.3-10.65-6.2.3-3.71-1.58-7.78-3.55-10.87-4.82-6.15-10.48-.86-7.73,5.6-1.09-.45-2.19-.9-3.29-1.33-1.98-4.52-11.22-8.89-13.68-2.69-1.51,6.45,7.8,11.13,13.04,8.34,1,.39,2,.78,2.98,1.2-2.19,2.11-3.24,5.06-.84,7.64,2.51,2.82,8.2-.28,11.57-2.54,3.66,1.95,7.17,4.07,10.55,6.35-11.29,5.02.74,13.72,9.38,7.06,3.55,2.96,6.9,6.15,10.06,9.53-13.64,2.59-1.77,13.44,6.77,7.96,2.26,2.92,4.4,5.97,6.41,9.16-17.05-.28-7.05,14.74,5.19,9.04.53,1.02,1.06,2.05,1.57,3.1-1.95,1.78-3.88,3.69-5.73,5.69-12.69-12.97-28.93-23.85-47.03-27.04-5.3-.66-19.23-3.6-13.8,6.22,7.13,14.72,12.39,33.06,27.04,42.12-28.24,7.62-53.46,26.98-74.44,46.16-1.07,5.98,9.41,10.98,13.77,13.58,23.64,11.88,53.22,15.32,77.97,4.92-3.4,4.05-6.38,8.38-8.69,11.86-11.92,1.37-25.75,9.61-34.31,19.07-3.57,2.29-4.22,6.62-5.9,10.1-5.03.61-.81,31.45-1.76,37.5.59,33.29,1.11,66.42,1.76,99.69-14.58,2.65-30.46,7.82-41.96,17.68-2.22-2.09-6.07-.25-5.84,2.8,0,11.23.08,22.46.1,33.7.08,32.47.19,64.93.28,97.4-27.1,8.96-70.09,20.08-78.16,51.24-.71,12.14.7,24.57-.4,36.8.7,4.04-3.74,13.71,2.16,14.97Zm483.2-49.94c-67.39,54.87-285.88,58.7-366.71,27.86-11.12-5.01-28.36-11.1-28.42-25.51.24-2.31-2.26-4.4-4.54-3.54-.02-11.81-.06-23.61-.09-35.42,79.77,62.59,334.88,76.93,398.85-11.14,1.05,15.15,2.1,30.31,3.14,45.46-.89.58-1.46,1.55-2.23,2.28Zm-107.38-178.47c-70.42,14.7-145.88,19.47-216.35,2.55-36.81-10.3-17.27-22.24-28.55-21.94-.22-12.06-.41-24.12-.64-36.18,49.64,35.73,249.2,31.44,294.28-10.75.91,14.05,1.83,28.09,2.74,42.14-11.82,15.44-33.76,18.9-51.49,24.19Zm-.13.03c-.14.03-.23.06-.4.1.14-.03.27-.06.4-.1Zm47.68-84.68c-1.94.56-3,2.94-2.11,4.76,3.4,12.31-15.52,17.83-24.39,22.09-57.29,19.29-119.63,21.18-179.61,17.46-24.51-3.07-71.77-5.39-87.01-26.14h0c-.69-31.2-1.68-62.73-1.5-93.89,5.23,4.85,16.17,7.64,23.16,9.23,3.35,9.09,17.27,5.17,25.22,2.56,61.49,8.44,127.02,5.25,186.49-14.52,7.75,1.97,48.75,13.11,41.05-4.64-1.01-3.6-1.97-7.23-2.98-10.84,6.18-2.49,12.85-8.12,14.83-11.21,2.3,35.04,4.55,70.09,6.85,105.14Zm-234.54-126.43c.72-.04,1.28-.29,1.7-.66,2.11,6.52,6.06,12.49,11.16,17.02-13.88,13.66-28.35,25.34-43.97,37.49,2.25-21.07,13.09-42.17,31.11-53.85Zm76.31-95.03c2.33.96,10.73,7.19,17.96,11.33-5.21,1.48-9.94,4.68-13.04,9.21-9.46-.25-18.79,6.01-23.52,15.01-12.62.87-26.03,8.16-31.87,19.89-1.34-.34-2.68-.84-3.97-1.48-.48-1.08-1.68-1.81-2.9-1.74-18.75-13.99,4.15-32.81,15.83-42.48,14.48-13.3,21.93-21.3,41.51-9.73Zm61.48,71.02c3.17-.95,6.41-2.06,9.46-3.5-.56,41.62-19.36,47.34-57.05,49.53,4.7-5.09,7.96-11.56,8.5-18.69,15.06-2.37,27-13.67,29.19-24.79,3.56-.48,7.98-2.24,9.91-2.55Zm20.31,6.35c29.23,2.68,45.93,31.66,51.21,57.95-19.25-14.81-39.31-28.92-59.81-41.97,1.48-5.52,1.49-11.38,1.99-17.12,2.19.38,4.37.96,6.61,1.14Zm-140.89,37.46c3.91,2.67,8.25,4.66,12.74,6.22-13.02,15.7-38.03,34.58-59.3,33.75,15.78-13.03,32.08-25.43,46.57-39.97Zm10.95,16.73c1.49-1.53,5.58-5.4,7.27-8.81,15.37,4.38,33.15,10.17,47.62.25,16.01-1.2,33.43-1.22,48.02-8.54,9.16,11.51,21.78,20.04,35.36,25.57-54.49,17-112.52,18.84-169.01,13.53,11.85-6.01,23.12-14.82,30.75-22Zm110.01-17.17c-.83-.88-1.62-1.78-2.36-2.74,4.77-3.26,8.82-7.53,11.7-13.13,20.85,13.85,42.11,27.68,61.27,43.77-25.85.71-52.75-8.86-70.61-27.9Zm-82.79-72.94c-1.11,4.16-.53,6.73.64,8.14-12.36,8.38-2.79,25.73,8.99,29.79-41.36,23.62-50.9-32.02-9.63-37.92Zm30.98-14.17c11.02,3.87,12.23,18.9,5.12,26.89,2.31-12.55-14.7-18.15-19.65-6.31-3.39-.99-7.07-1.17-10.45-.44-.21-.47-.53-.98-1.03-1.51.75-11.84,14.07-23.93,26.01-18.63Zm-17.77,47.49c-16.38-4.15-17.83-27.59,2.58-21.22.03.09.06.18.1.26-11.43,4.48-1.89,18.37,8.22,14.44,2.9,6.27,7.71-2.24,9.32-6.15,10.11,10.16-11.9,15.43-20.21,12.67Zm13.68-13.43c-2.94,1.71-8.43,3.44-10.59-.15-.03-.06-.12-.4-.14-.54,1.64-4.28,7.86-.29,10.73.69Zm3.48-6.17c-.22.75-.49,1.48-.78,2.2-.57-1-1.75-1.82-3.19-2.45-1.13-1.95-2.89-3.5-4.83-4.76,2.44-6.95,11.45-2.4,8.79,5.01Zm-11.39,26.31c.08-.16.14-.33.18-.51,11.48,1,29.84-9.02,19.41-21.45,1.16-1.14,2.04-2.01,2.79-3.06,5.99-.67,14.19-.21,18.94,2.96-1.07,2.19,2.09,4.36,3.88,3.12,13.62,17.67-22.8,39.4-40.13,27.39-2.74-1.69-6.35-4.92-5.08-8.47Zm45.04-25.99c-4.57-2.83-12.61-5.38-19.62-4.81,4.66-11.25-.53-25.21-12.38-29,19.94-19.67,51.3,16.24,32,33.81Zm-95.6,5.12c-4.36,13.66,5.77,29.27,20.3,30.08,3.15,1.04,17.27-2.52,24.48-6.96,1.28,10.43,15.15,15.4,24.5,15.07-4.59,25.83-31.24,27.6-51.79,19.87-16.21-3.29-33.71-13.54-35.59-31.63.51-.89.53-2.05-.19-2.79-.51-10.16,6.96-18.57,13.71-25.43,1.47.75,3.01,1.35,4.58,1.78Zm202.01,45.49c-.15,7.78-8.2,12.94-14.57,15.98-3.05-10.15-7.3-20.01-14.18-28.22,10.09,2.08,20.86,5.32,28.74,12.24Zm-61.32-33.72c-4.03-1.12-8.08-1.73-12.29-1.76.2-1.09.45-2.18.76-3.25,24-2.48,47.12-10.83,65.55-26.74-6.71,23.42-31,32.75-54.02,31.75Zm-1.11-27.48c13.73-12.57,33.84-8.92,50.99-8.1-16.35,14.35-36.91,21.79-58.24,24.6,4.02-3.91,5.98-9.48,5.88-14.95.64-.32,1.12-.87,1.36-1.55Zm-29.27-45.42c14.07,4.64,18.69,19.44,20.54,32.74,1.1,7.26,3.68,15.36-.06,22.24-5.72,8.68-16.93,11.2-26.53,13.27-.43-3.14-1.8-6.12-4.25-8.72,16.08-17.2,2.31-43.45-18.57-48.18-5.69-3.2-11.81-6.15-17.27-9.96,15.17-3.33,31.12-8.37,46.13-1.39Zm-28.07-14.91c-7.05,5.28-14.65,10.77-23.74,11.8,17.52-13.33,32.67-26.45,44.51-45.73-.45,13.79-10.49,25.49-20.77,33.93Zm-18.62-6.57c3.37-15.32,19.76-21.68,32.89-27.48-11.09,17.57-27.35,30.89-43.72,43.32-.13-.07-.26-.14-.39-.21,4.36-4.3,7.17-9.03,9.38-14.57.7-.1,1.37-.46,1.83-1.06Zm-11.84,8c-1.45,1.88-2.95,3.91-5.1,5.03-5.68-2.12-10.91-2.58-15.94-1.45-2.02-6.56-6.6-11.68-11.42-16.56,2.51-15.81,21.7-21.66,33.96-28.73,10.41,10.25,6.51,31-1.5,41.72Zm-37.11-43.53c7.66-6.67,20.92-7.07,26.73,1.76-5.88,3.17-12.38,6.62-17.6,11.04-3.06-4.1-7.02-7.76-11.21-10.33.63-.93,1.24-1.92,2.08-2.47Zm-21.13,7.48c9.73-7.95,19.98,1.69,26.49,8.95-2.56,2.86-4.53,6.1-5.56,9.85-6.49-5.12-14.03-8.89-22.01-10.08-.25-.23-.57-.41-.95-.53-2.02-2.82-.45-6.26,2.02-8.2Zm31.99,41.39c-4.39,1.99-8.69,5.23-13.1,9.69-4.33-2.82-8.94-3.58-13.71-1.74-4.03-1.65-9.2-1.85-11.81-6.23-.2-1.66-.9-3.11-2.43-3.67-3.87-6.92-5.14-15.33-7.37-22.85,16.33-10.02,42.75,8.71,48.42,24.79Zm-40.77,11.64c.55-.86.91-2.01,1.16-3.1,1.59,1.3,3.38,2.35,5.41,3.08-1.56,1.01-3.15,2.16-4.76,3.43-.58-1.14-1.19-2.28-1.81-3.41Zm11.03,3.54c6.39-3.83,9.86-2.85,12.3-1.53-15,11.35-38.03,33.87-17.36,50.75-3.22,3.34-6.4,6.86-8.97,10.71-4.47-7.72-12.71-13.55-14.43-22.64-.82-12.28,18.59-31.08,28.46-37.29Zm-35.94,1.87c4.45,3.18,9.24,7.28,13.09,11.47-1.85,2.25-3.56,4.54-5.05,6.81-14.19-10.34-28.09-21.31-41.28-32.9,12.08,1.6,23.41,7.52,33.25,14.62Zm-11.12,25.37c-14.24-6.08-19.21-22.45-25.43-35.46,13.56,11.47,27.3,22.8,41.77,33.09-.89,1.69-1.63,3.34-2.17,4.91-3.38-.73-6.6-.82-9.98-.65-.84-1.65-2.75-1.26-4.19-1.89Zm-5.03,8.7c5.87-1.38,12.15-2.32,18.06-.69-.27,6.13,3.01,11.46,6.82,16.41-27.68,15.51-59.83,22.03-91.28,23.78,20.37-15.74,40.94-32.87,66.4-39.49Zm-17.89,59.75c-16.71-.79-34.58-4.67-48.18-14.84,32.75-1.5,65.57-8.82,94.53-24.72,2.54,2.89,4.42,6.12,6.55,9.27-1.87,4.07-2.71,8.78-2.49,13.3-13.76,11.98-32.2,17.98-50.41,16.99Zm21.76,17.59c-4.82,9.09-6.37,19.49-8.33,29.55-6.51-2.44-17.41-3.05-20.53-9.94,6.87-9.5,17.72-15.98,28.86-19.62Zm-75.51,186.37c7.55-12.88,26.07-14.94,39.21-19.64.4,4.36-1.87,17.53,6.14,12.89,36.41,43.4,257.69,29.55,298.92-8.37,2.43,2.13,6.23-.15,5.71-3.27,0,0,0,0,0,0-.29-3.73-.5-7.46-.73-11.19,108.35,24.14-71.82,50.52-98.63,51.15-43.58,4.51-227.86,12.48-250.62-21.56Zm8.92,16.05c66.2,26.9,324.84,22.99,379.22-21.53,2.9,41.76,5.8,83.52,8.68,125.28-3.63,1.13-3.8,6.17-6.23,8.82-21.2,28.64-58.46,39.04-91.65,47.24-90.38,18.67-224.09,13.61-300.25-43.02-.13-40.95-.22-81.89-.38-122.84,3.16,2.59,6.85,4.46,10.6,6.05ZM13.41,578.07c85.22,74.69,481.28,80.48,560.07-3.35-.18,6.89.32,13.57-.62,20.45-77.04,85.06-490.5,86.93-565.25-2.8.49-6.52.73-13.07.77-19.62h0c1.53,1.9,3.23,3.68,5.02,5.32Zm394.36-280.61c-.96.04-1.76-.73-1.82-1.68-.85-12.86-1.66-25.73-2.5-38.59.59-4.3-3.95-28.5-.04-28.42.97-.04,1.75.73,1.82,1.68.94,14.41,1.87,28.82,2.8,43.24-.6,3.98,3.58,23.55-.25,23.78Zm50.29,128.36c.65-4.01-4.17-24.43.22-23.98,3.47,1.85,2.1,19.11,3.27,23.87,0-.11-.02-.22-.02-.33,1.21,15.68,3.07,31.29,3.95,46.99.06.95-.82,1.76-1.73,1.77-.99.01-1.71-.78-1.77-1.73-.86-15.61-2.74-31.18-3.93-46.75,0,.06.01.11.02.16Zm-60.39-166.08c.07,11.87.85,23.75,1.59,35.59.15,2.28-3.23,2.61-3.49.31.49-5.4-4.31-37.71.23-37.73.95.04,1.71.88,1.66,1.83Zm51.2,179.66c.18-2.27,3.56-2.14,3.5.16,1.39,19.15,2.92,38.31,4.29,57.47-5.8,14.08-6.33-54.15-7.79-57.63Z"/>
  </g>
</svg>