<?xml version="1.0" encoding="UTF-8"?>
<svg id="_Слой_2" data-name="Слой 2" xmlns="http://www.w3.org/2000/svg" viewBox="0 0 153.48 464.25">
  <g id="_Слой_1-2" data-name="Слой 1">
    <path d="m73.96,84.24c5.75,1.6,21.8.28,22.19-7.52,3.62-19.4,10.15-38.57,11.24-58.42,2.08-20.66-45.51-24.84-50.93-7.31-1.78,22.51,1.15,45.05,5.83,67.06.92,4.02,8.16,5.27,11.68,6.19ZM62.5,11.16c9.11-6.82,22.57-6.48,32.51-1.56,9.18,3.04,6.13,11.51,5.34,18.92-2.52,16.11-7.23,31.86-10.23,47.89-6.81,3.56-15.38,3.03-22.15-.43-4.39-21.07-7.36-43.2-5.47-64.82Zm87.28,431.17c6.92-55.73,6.55-116.54-22.62-166.7-25.97-42.18-28.65-65.87-26.7-114.41-.16-10.43-.79-20.83-1.57-31.23,2.3-3.46,4.25-6.97,3.96-11.36-.46-4.93,2.74-17.61-2.21-19.59-8.02-6.75-37.12-4.85-46.64-.41-5.03.6-2.4,9.24-3.61,12.89-.42,7.71-.72,15.74,6.06,20.62,2.64,29.76,2.99,60.71-4.79,89.81C30.2,270.79.82,318.5.09,373.58c-.74,22.89,3.16,45.73,7.68,68.09,1.23,8.66,7.35,14.85,16,16.11,16.66,5.04,34.37,4.36,51.56,6.06,23.65,1.38,60.14.33,74.44-21.51ZM4.94,381.69c-.19-12.52,1.08-24.95,3.42-37.19,44.14,12.02,93.3,12.06,137.15-1.03,2.76,18.33,3.1,37.26,2.59,55.78-45.84,11.7-95.51,13.42-141.76,2.76-.78-6.75-1.32-13.52-1.41-20.32Zm85.47-195.72c-9.37.27-18.72-.39-28.02-1.52.83-12.97.94-26.01.26-38.93,10.72.13,21.52.43,32.17-.97.88,13.71.59,27.44.57,41.18-1.65.2-3.32.19-4.98.25Zm-25.06-85.28c9.01-.98,17.87-1.18,26.97.06-10.23,1.73-20.79,1.91-31.07.59,1.36-.27,2.73-.47,4.1-.65Zm-9.43,4.53c13.64,3.01,28.72,2.9,42.17-.94.26,6.25.18,12.6-.79,18.77-4.68,5.04-3.16,10.31-2.74,16.51-10.59,1.31-21.67,1.25-32.37.87-.33-21.94-9.83-5.08-6.28-35.21Zm-13.44,148.48c11.16-19.88,19.04-41.23,19.56-64.25,11.32,1.4,21.82,1.91,33.36,1.36-4.48,54.87,42.31,94.88,49.28,147.53-43.08,13.44-91.76,13.14-135.3,1.22,6.47-30.27,19.29-58.25,33.11-85.85Zm84.4,199.32c-29.61,11.01-73.96,6.16-104.57-.89-13.18-1.27-12.44-33.82-15.28-44.72,18.02,4.49,36.7,6.07,55.23,6.31h-.03c28.78.17,57.79-1.43,85.7-9.18-1.31,12.13-.9,24.6-2.93,36.51-3.69,6.53-11.6,9.09-18.11,11.97ZM64.16,121.35c8.69.6,17.47,1.32,26.15.77,3.27-.12,3.54,4.71.26,4.99-8.91.56-17.89-.14-26.79-.77-3.23-.21-2.85-5.25.38-4.99Zm7.2,231.85s.07,0,.1,0c0,0-.1,0-.1,0ZM91.93,23.52c.87-2.24-.34-7.29,2.98-7.37,3.04,1.16.31,5.55.47,7.97-1.03,2.51.46,8.23-3.09,8.49-3.16-1.45-.16-6.37-.36-9.09Zm-4.54,35.98c1.07-2.84-.2-15.94,3.78-14.83,2.74,1.05-.51,12.02-.29,15.11-.99,2.77.31,9.62-3.36,9.99-3.3-1.53.27-7.29-.13-10.26Zm13.59,205.75c-9.82-18.96-13.66-40.58-11.93-61.8.15-2.27,3.53-2.19,3.5.13-1.69,20.6,2.04,41.72,11.52,60.02,1.05,2.01-1.98,3.68-3.09,1.66Zm12.38,26.39c-1.04-2.02,1.99-3.67,3.09-1.66,1.74,2.51,23.3,45.47,12.64,37.87-4.16-12.52-9.19-24.76-15.73-36.21Zm23.51,144.64c-.38,1.86.71,5.5-2.02,5.68-.94-.04-1.74-.86-1.69-1.81,1.09-3.95-.72-27.22,2.92-26.39,3.71.35.23,18.64.79,22.52Z"/>
  </g>
</svg>