<?xml version="1.0" encoding="UTF-8"?>
<svg id="_Слой_2" data-name="Слой 2" xmlns="http://www.w3.org/2000/svg" viewBox="0 0 493.45 699.29">
  <g id="_Слой_1-2" data-name="Слой 1">
    <path d="m.34,504.93c0,.07,0,.14,0,.22,0-.03,0-.07,0-.1,0-.05,0-.08,0-.11Zm19.95,188.3c-.78-.64-1.29-1.6-1.29-2.66.04-11.42-.01-22.85,0-34.27.01-49.62.02-99.24.03-148.86-4.78,3.88-8.35,10.54-14.04,12.76-6.67-1.19-3.83-10.21-4.66-15.07.19-2.87-.96-6.02.13-8.71-.23.38-.39.81-.46,1.25,3.49-7.5,11.63-12.38,16.93-18.78,19.19-19.38,38.36-38.78,57.55-58.15,39.34-38.82,77.41-79.93,117.41-117.71.03-14.25.05-28.5.07-42.76,1.31-9.29-1.58-16.77-6.93-24.27-1.94-.95-2.19-3.24-1.91-5.15,4.75-18.44,9.47-36.88,14.23-55.32,10.71-41.68,21.46-83.34,32.15-125.03,3.55-13.94,7.19-27.86,10.75-41.8,1.1-2.86.61-7.84,4.48-8.39,1.82-.91,4.38.17,4.83,2.21,3.35,13.07,6.73,26.14,10.09,39.21,10.71,41.6,21.42,83.2,32.13,124.8,5.41,21.04,10.84,42.07,16.25,63.11.38,1.49-.22,3.03-1.44,3.85-3.07,4.79-5.23,10.2-8.07,15.15,0,17.03.07,34.06.1,51.09,48.45,48.59,96.92,97.17,145.37,145.76,15.85,15.94,31.78,31.8,47.62,47.75,4.14,4.48-.07,13.17.31,18.94.5,4.56-3.02,8.95-7.03,4.87-3.87-3.87-7.74-7.74-11.61-11.61-.37,46.86-.69,93.71-1.04,140.57-.1,12.72-.18,25.45-.28,38.17-1.09,4.59,2.77,13.75-3.48,15.08-148.44-.13-296.88-.28-445.32-.42-2.88.13-4.78-3.38-2.89-5.63Zm139.85-1.23c.03-55.64.07-111.29.1-166.93-3.8,2.69-18.77,23.75-19.24,10-.29-2.89-.18-5.84-.34-8.75-6.34-3.92,14.61-18.77,17.43-23.32,11.18-11.37,22.37-22.75,33.55-34.12.08-45.41.15-90.81.21-136.22-55.27,55.92-110.56,111.83-165.84,167.73-.19,63.79.5,127.74-.28,191.47,33.61.06,67.23.07,100.84.11,11.19,0,22.37.02,33.56.03Zm175.82-176.67c-30.93-29.63-61.87-59.27-92.8-88.9-14.8,15.14-29.69,30.2-44.52,45.31.43,2.49-1.69,4.95-4.26,4.34-15.59,15.86-31.19,31.72-46.78,47.58.06,1.37.1,2.73.14,4.1,30.93-31.18,61.81-62.41,92.73-93.6,1.84-1.93,4.92-.9,6.71.53,9.26,9,18.46,18.05,27.68,27.09,20.1,19.66,40.18,39.35,60.29,58.99.28-1.81.55-3.62.82-5.44Zm-38.44-279.97c-34.74.32-69.49.6-104.24.92,7.53,9.15,5.65,19.4,5.67,30.42-.05,21.02-.05,42.04-.1,63.06-.06,43.99-.14,87.99-.21,131.98,13.85-14.09,27.7-28.18,41.55-42.26,1.33-1.79,4.01-2.14,5.56-.46,15.09,15.08,30.86,29.59,46.18,44.47-.11-50.96-.2-101.92-.31-152.88-.04-13.95-.05-27.9-.08-41.85.75-7.82-1.72-16.77,1.14-24,1.57-3.15,3.21-6.27,4.82-9.4Zm-53.48,456.71c-.03-42.4-.08-84.79-.11-127.19-33.74,1.46-38.71-6.82-37.08,32.57.25,31.53.53,63.05.78,94.58,12.13,0,24.27.02,36.4.03Zm39.34.04c-.41-32.76-.85-65.52-1.26-98.28.75-30.67-1.48-30.74-31.19-29.1.04,42.45.06,84.9.11,127.35,10.78,0,21.56.02,32.34.03Zm36.91.03c.15-58.59.12-117.18.38-175.75-25.7-25.16-51.39-50.31-77.1-75.45-25.46,25.71-50.92,51.41-76.39,77.12.1,57.97-.07,115.96-.06,173.94,11.17,0,22.34.02,33.51.03-.32-37.79-.63-75.6-.94-113.39,1.04-7.88,3.98-19.02,13.03-20.06,11.72-.23,23.44-.54,35.16-.79,9.21.46,18.97-1.72,27.85.02,16.71,5.51,12.78,24.05,13.4,37.83.4,32.15.84,64.32,1.23,96.48.25,0,.49,0,.74,0,9.73.01,19.45.02,29.18.03Zm146.12-193.56c-55.9-55.9-111.82-111.79-167.72-167.69.07,46.44.2,92.88.28,139.32,13.94,13.35,27.88,26.7,41.81,40.06,1.28,1.11,2.71,2.27,2.37,4.24-2.61,15.46-.65,25.44-15.55,8.65-.11,56.31-.21,112.68-.32,168.99,45.88.04,91.76.09,137.64.13.46-64.4.98-128.79,1.42-193.18,0-.18.04-.35.07-.52Zm-167.76-188.9c0,3.86.02,7.73.02,11.59.34.15.67.37.94.65,0,0,0,0,0,0,61.91,61.9,123.83,123.8,185.73,185.7.33-3.26.66-6.51.98-9.78-60.2-60.39-120.43-120.75-180.63-181.13-2.34-2.35-4.69-4.69-7.04-7.04Zm-107.89-80.37c36.57-.31,73.14-.65,109.71-.96-18.24-70.9-36.5-141.79-54.75-212.69-16.38,63.45-32.65,126.93-48.99,190.39-1.99,7.75-3.98,15.5-5.98,23.26ZM7.13,498.75c.09,3.61.19,6.94.36,10.45,61.53-61.98,122.6-124.54,184.38-186.2,0-3.63.01-7.26.02-10.89-56.72,57.3-113.45,114.61-170.17,171.91-4.87,4.91-9.72,9.83-14.59,14.74Zm209.38,1.32c-5.11-31.6,38.75-46.19,53.53-17.83,18.48,39.83-44.4,60.79-53.53,17.83Zm6.88-7.84c-3.8,28.18,37.97,34.5,42.7,6.48,3.68-28.07-37.89-34.38-42.7-6.48Zm50.54-217.28c2.32,16.5-1.06,36.75-.73,54.05,0-.04,0-.09,0-.13-1.45,6.58-10.38,2.89-15.2,3.76-15.23-.49-30.82.59-45.89-.74-5.52-.09-3.26-7.07-3.68-10.66.2-15.03-.07-30.13.36-45.13,5.21-29.25,46.27-36.47,61.18-10.78,1.84,2.97,3.15,6.25,3.96,9.64Zm-7.62,50.72c.07-15.91,1.93-32.07,1.1-47.84-2.31-13.89-16.76-23.87-30.57-21.12-10.43,1.77-19.17,10.31-21.19,20.7-.01,15.98-.17,31.96-.24,47.94,11.16.01,22.31.13,33.47.22,5.81.04,11.62.07,17.43.11Zm-154.14,309.38c-.03,3.88,1.06,10.33-4.18,11.05-14.5.04-29,.11-43.5.14-2.85.27-4.92-3.11-3.21-5.46-.29-17.96-.61-35.93-.92-53.89.79-5.89-2.25-16.78,1.21-21.17,28.81-100.04,16.83-118.84,48.7-4.43.83.6,1.43,1.53,1.43,2.6,0,12.09.18,24.18.24,36.26.06,11.64.17,23.27.23,34.9Zm-27.1-28.71c-5.78.48-11.57.96-17.35,1.44.16,10.48.38,20.96.52,31.45,5.56,0,11.12-.03,16.67-.05.03-10.95.13-21.89.15-32.84Zm.16-35.89c-6.04.58-12.07,1.18-18.11,1.77.19,10.69.35,21.38.54,32.06,5.81-.48,11.61-.97,17.42-1.45.03-10.79.11-21.59.15-32.38Zm3.35,32.09c5.46-.45,10.91-.91,16.37-1.36-.07-10.88-.14-21.75-.22-32.63-5.34.51-10.68,1.04-16.03,1.56-.03,4.39-.04,8.78-.04,13.16,0,6.42-.05,12.84-.08,19.26Zm.42-91.32c-.16,18.46-.11,36.92-.27,55.37,5.11-.5,10.22-1,15.33-1.49-2.54-9.11-5.09-18.22-7.64-27.32-2.48-8.85-4.95-17.7-7.42-26.55Zm-20.96,57.39c5.73-.56,11.47-1.12,17.2-1.68.1-21.62.19-43.24.29-64.86-5.17,19.74-10.36,39.49-15.57,59.23-.64,2.44-1.25,4.89-1.92,7.31Zm37.16,70.5c-.08-11.47-.15-22.95-.23-34.42-5.47.45-10.94.91-16.41,1.36-.05,11.04-.1,22.08-.15,33.12,5.6-.03,11.19-.04,16.79-.06Zm320.79,10.36c-14.54.23-29.08.44-43.62.67-2.74.46-4.7-1.74-4.58-4.38-.2-9.65-.25-19.3-.39-28.95-.16-11.89-.32-23.79-.48-35.68.43-3.47-1.37-8.01,1.05-10.85,5.53-20.57,11.12-41.13,16.66-61.69,2.05-4.42,3.65-20.89,7.46-21.8,6.47-1.15,6.78,15.36,9.28,19.97,5.1,17.74,10.16,35.49,15.27,53.23.4,3.3,3.39,7.14,1.51,10.27.47,22.77.9,45.55,1.35,68.32-.3,3.73,1.9,10.26-3.51,10.9Zm-24.07-36.28c-5.85.31-11.71.61-17.56.91.13,9.67.27,19.34.39,29.01,5.76-.08,11.52-.17,17.27-.26-.01-4.28-.03-8.55-.05-12.83-.02-5.61-.04-11.22-.06-16.83Zm-.15-38.92c-5.98.41-11.95.83-17.93,1.24.15,11.7.33,23.4.48,35.09,5.86-.31,11.73-.61,17.59-.91-.03-7.74-.06-15.49-.09-23.23-.02-4.06-.04-8.13-.05-12.19Zm3.63,35.24c5.5-.29,11.01-.57,16.51-.86-.25-11.91-.44-23.81-.71-35.72-5.31.37-10.62.73-15.93,1.1.05,11.14.06,22.29.12,33.43,0,.68,0,1.37,0,2.05Zm-.36-99.45c.09,20.15.14,40.31.22,60.46,5.29-.36,10.58-.72,15.88-1.1.02-.91-.15-1.85.13-2.73-2.04-7.19-4.11-14.38-6.17-21.57-3.35-11.69-6.7-23.38-10.06-35.07Zm-20.25,61.88c5.66-.39,11.31-.78,16.97-1.17-.04-20.3-.17-40.61-.2-60.91-1.85,6.84-3.7,13.67-5.54,20.51-3.74,13.86-7.49,27.71-11.22,41.57Zm37.76,70.6c-.14-10.13-.39-20.26-.57-30.39-5.52.28-11.04.57-16.57.86.05,9.93.06,19.86.11,29.79,1.65-.03,3.29-.05,4.94-.08,4.03-.06,8.06-.12,12.09-.18Zm-173.81-329.06c8,14.16-17.64,13.39-10.27.06-20.12.98-16.48-.7-7.82-15.95-5.05-30.23,29.33-33.64,24.23-1.38,2.33,4.54,4.63,9.11,6.95,13.65-.01-.03-.04-.07-.04-.07.02.03.04.07.05.1.05.09.1.19.13.26,1.21,5.72-9.91,2.45-13.24,3.32Zm7.57-4.55c-1.56-3.04-3.1-6.08-4.65-9.13-3.47-1.16-.38-5.4-.7-7.86,1.62-9.49-8.08-21.39-14.32-8.77-5.54,13.91,3.33,9.79-7.35,25.94,2.64-.02,5.28-.03,7.92-.05,6.37-.04,12.73-.09,19.1-.13Zm9.52,324.29c-2.88-1.72-2.76,3.48-7.22,1.85-1.11-.21-1.48-1.55-2.68-1.51-3.93.81-.37,4.81,2.09,4.99,2.87,1.32,10.45-1.65,7.81-5.33Zm-27.59,1.06c-3.15,3.35-5.56.78-8.41-.78-3.65.69-.71,4.52,1.55,5.14,7.55,3.77,13.73-6.47,6.85-4.36Zm13.18-557.1c9.36,40.09,18.74,80.17,28.1,120.26.51,2.16,3.96,1.4,3.4-.82-7.84-33.58-15.7-67.15-23.53-100.73-1.74-3.73-3.23-22.71-6.95-22-1.56.4-1.44,2.07-1.02,3.3Z"/>
  </g>
</svg>