<?xml version="1.0" encoding="UTF-8"?>
<svg id="_Слой_2" data-name="Слой 2" xmlns="http://www.w3.org/2000/svg" viewBox="0 0 266.95 347.38">
  <g id="_Слой_1-2" data-name="Слой 1">
    <path d="m244.15,45.97c-24.48-16.43-52.89-26.48-79.96-37.89-.45-2.01.68-5.47-1.67-6.37-19.58-3.44-42.03-.81-62.45.1-3.41.7-12.69-.66-11.5,5.49-24.02,12.05-49.17,22.72-70.14,39.95-11.12,7.55-16.1,16.18-15.57,29.73-1.32,45.75-1.55,91.51-.63,137.27.91,38.15-3.5,76.44-1.85,114.5-1.49,3.24,2.59,4.28,5.16,4.07.34,4.02-1.34,8.44-.28,12.25.34,4.22,22.05,1.14,26.59,1.97,5.9,2.57,3.18-10.48,4.03-13.65,2.15-.36,5.78,1.29,6.08-2.11.03-5.72.28-11.43.25-17.15.71-51.35,7.49-102.36,10.55-153.57,3.42,8.67,6.99,17.29,11.15,25.61-2.94,51.8-9.54,104.77-8.4,156.2,1.85,6.67,52.15,3.98,60.24,3.35,4.48,4.94,12.57-16.56,15.52-19.7,3.95,5.5,8.55,10.31,12.46,15.89.2.98,1.04,1.72,2.05,1.81,21.71-3.43,46.27-3.83,66.38-11.21,1.74-1.26.42-4.35.46-6.33-1.08-15.31-2.37-30.79-4.01-46.08-3.37-32.81-.35-66.99-3.05-99.26,5.01-12.23,9.17-24.77,13.1-37.38,4.68,59.33,4.45,119.48,9.45,178.5.06.89.59,1.74,1.64,1.99.91,0,1.83-.05,2.75-.07.24,2.94.43,5.73,1,8.65-2.8,5.72,22.35,1.75,26.15,2.33,4.66.43,1.93-9.29,2.89-12.4,7.42,1.71,2.98-17.93,3.99-22.63-.18-15.15-.72-30.3-.78-45.45,1.1-55.48-.22-110.98-4.95-166.29-1.03-14.65-6.28-31.14-16.66-42.11ZM89.39,16.73c10.68,29.96,21.95,59.37,28.81,90.62,6.89,25.61,8.67,52.2,14.43,78-.5,9.56-.6,19.33-.88,28.94-20.29-55.49-41.61-110.97-66.23-164.75,8.21-10.74,15.92-21.88,23.86-32.81Zm40.04-3.7c3.04,10.28,7.91,19.13,13.89,27.8-3.88,5.22-8.01,10.45-12.36,15.32-4.77-5.89-10.22-11.33-14.22-17.79,5-8.03,9.38-16.46,12.69-25.32Zm5.96,164.29c-4.31-25.04-7.14-50.29-13.78-74.87,2.67-2.44.46-7.74,1.44-11.14.75-11.36,2.16-23.12,2.43-34.66,4.52,6.54,6.35,5.99,11.06-.04,3.57,14,7.7,27.91,9.73,42.25.2,1.13.95,1.72,1.79,1.87-3.78,25.6-7.14,51.3-12.67,76.6Zm14.12-86.52c-2.45-13.01-6.33-25.71-9.36-38.59,1.95-2.47,3.98-4.88,5.87-7.4,2.86,4.17,5.46,8.6,8.77,12.42-1.92,11.17-3.63,22.36-5.27,33.57Zm-35.44-48.23c2.22,3.19,4.71,6.16,7.22,9.12-.49,12.95-1.76,26.05-2.71,39.03-3.6-13.11-7.03-26.28-11.71-39.05,3.77-.72,4.72-6.45,7.2-9.1Zm22.79,145.79c13.91-55.58,18.98-114.21,28.02-171.02,10.39,10.83,22.2,20.22,34.18,29.21-24.2,48.02-44.84,97.66-62.26,148.54.04-2.24.06-4.48.06-6.72Zm4.05-183.58c6.18,0,12.38.49,18.56.3.53,2.74-.36,6.34,1.21,8.66-1.47,12.52-2.87,25-4.91,37.44-9.38-14.32-21.57-28.61-23.01-46.42,2.72-.02,5.44-.03,8.15.03Zm-13.35.05c-4.7,15.6-13.44,29.39-22.09,43.05-4.29-13.5-12.31-26.56-12.42-40.88,11.33-.99,22.94-1.87,34.51-2.17ZM13.49,342.66c-1.25-.01-2.63,0-3.97-.02.13-3.57.5-6.21.51-9.59,7.12.11,14.24.14,21.36.3-.1,3.08-.2,6.15-.33,9.23-5.81.12-11.72-.13-17.56.09Zm117.66-64.35c-.8,14.37-2.45,28.77-2.14,43.15-.03.02-.05.04-.1.08.03-.03.07-.04.1-.07,0,0,0,.02,0,.02-4.48,6.13-7.52,13.34-11.9,19.61-19.27,1.74-38.76,1.72-57.95-.72,1.42-48.99,5.16-97.9,8.66-146.78,1.71,3.05,3.53,6.05,5.47,8.98,1.61,2.55,5.32.25,3.9-2.25-14.18-21.81-22.27-46.91-31.58-71.14-5.93-16.92-11.75-33.98-16.19-51.38-.83-2.88-5.03-1.68-4.35,1.14,6.44,24.7,14.98,48.81,24.16,72.61-4.54,58.92-11.43,118.03-11.74,177.29-10.87-.07-21.97,0-32.86-.57-1.49-25.73,1.95-51.38,1.55-77.12,1.29-46.52-.83-93.05.25-139.56,1.49-16.12-.86-32.8,2.78-48.6C28.64,39.16,59.08,27.23,85.96,13.75c-5.85,8.18-11.66,16.4-17.6,24.53-1.37,3.27-11.97,11.57-6.47,13.94,19.01,42.25,36.39,85.34,52.88,128.64-.03-.09-.07-.19-.1-.29,17.3,49.2,21.21,43.02,16.48,97.74Zm126.73,48.23c-.03,1.33-.05,2.66-.06,3.99-6.69.16-13.39.19-20.07.49-.26-2.46-.65-4.6-.73-7.26,6.98-.22,13.98-.54,20.96-.99-.1,1.33.01,2.78-.1,3.76Zm3.74-126.98c-.45,39.51-.13,78.99.59,118.5-10.11.57-20.24,1.09-30.37,1.38-3.3-62.57-4.89-125.41-9.53-187.95,4.94-17.64,10.38-35.64,13.08-53.64-4.27-4.73-5.12,4.29-5.79,7.12-3.06,14.4-6.75,28.65-10.87,42.78-4.72,15.2-9.43,31.68-15.52,46.89-.48,3.86-8.27,13.95-4.15,16.06,1.41.56,2.44-.41,3.04-1.59-1.24,47.02,1.9,94,6.39,140.77-20.32,3.86-40.74,6.85-61.3,9.22-4.12-6.37-9.76-11.25-13.58-17.9-.34-25.94,3.74-52.11,3.68-78.12.29-10.43-1.29-20.81-.99-31.23,6.38-22.27,15.35-43.76,23.24-65.53,12.03-33.16,27.69-64.93,43.09-96.68.79-1.9,2.83-4.88.09-5.91-11.88-9.08-23.6-18.08-33.99-28.91,23.17,9.18,46.21,19.09,67.94,31.33,11.14,6.54,14.78,20.18,18.28,31.9,4.62,39.9,6.01,81.07,6.67,121.51Zm-134.98,36.52c-4.81-.2-2.6-9.31,1.58-6.79,3.83,1.21,2.91,8.17-1.58,6.79Zm2.02,23.87c3.05,3.01.03,7.59-3.79,5.43-3.84-3.05-.78-8.85,3.79-5.43Zm-5.52,33.78c-2.17-2.33-.45-7.51,3.2-6.21,4.18,1.6.55,9.3-3.2,6.21Z"/>
  </g>
</svg>