<?xml version="1.0" encoding="UTF-8"?>
<svg id="_Слой_2" data-name="Слой 2" xmlns="http://www.w3.org/2000/svg" viewBox="0 0 860.67 349.98">
  <g id="_Слой_1-2" data-name="Слой 1">
    <path d="m15.97,156.47c-14.09,6.14-.09,14.61,11.75,3.54,4.15,4.05,9.34,6.71,13.36,3.27,29.81,9.03,60.95,4.95,90.81-1.71-9.53,6.84-18.41,20.35-18.28,32.53,2.58,2.14,10.58-6.87,13.76-8.19,11.45-6.05,19.19-15.32,23.33-27.61,9.93-1.65,19.9-3.09,29.92-3.69-6.17,2.74-23.34,18.09-23.86,24.35.58,1.06,1.91.98,2.83.48,15.8-3.58,30.73-10.96,39.98-24.8,17.31.85,34.68-.89,51.94,1.37-42.22-2.3-73.25,17.55-100.18,48.1-2.88-.85-5.88,1.05-7.91,3.61-2.6-2.11-5.18-4.33-8.31-5.61-5.51-3.04-11.26,2.75-5.45,7.01-23.03-.33-24.42,18.56-.35,11.99-18.67,19.55.4,22.15,11.27,4.82.48,2.37,2.37,4.93,5.05,4.51,4.71-2.17,3.69-10.43,1.72-14.38,4.85-1.35,8.34-5.05,6.51-9.72,27.08-30.03,56.71-49.48,98.85-46.77-87.89,16.36-86.72,90.17-138.71,143.6-1.38,3.03,2.54,4.15,4.85,4.26,50.92-2.29,102.27-30.61,135.15-69.08-.74,4.78,5.24,6.24,8.96,4.09-1.16,3.34-2.15,6.74-3.01,10.18-5.21.32-17.82,10.35-11.96,15.95,3.22,1.69,6.65-.18,9.29-2.6-.76,5.01-1.18,10.06-1.24,15.12-4.32,2.24-12.97,13.67-6.13,17.08,2.2.67,4.9-1.39,6.79-3.96.54,4.7,1.42,9.36,2.64,13.95-1.57,4.62,1.21,11.41,6.41,12.16,8.12-1.38,3.86-14.44-3.24-14.1-1.17-4.97-2.27-9.91-2.64-15.03,11.74,5.34,8.93-8.88-.26-11.36.17-5.02.64-10.05,1.4-15.04,12.43,14.88,13.78-8.14,2.7-12.9.88-3.29,1.91-6.54,3.08-9.73,7.86,15.7,15.72,3.41,8.1-8.19,8.18,9.78,22.05,13.32,30.32,23.07-3.9,20.26-8.11,43.42,16.57,51.04,28.59,15.1,62.77,8.24,86.01-13.24,23.8,1.55,53.24,17.44,72.11-4.36,10.49.54,19.32-3.46,28.76-7.31,12.09-2.39,24.33-4.66,34.88-11.79-6.47,15.65,5.05,28.62,8.98,8.37.89,1.98,1.71,3.99,2.45,6.04-10.53,16.64-1.38,29.31,4.15,14.67.48,2.26.89,4.53,1.24,6.81-11.14,4.01-7.72,26.38,1.48,13.54.15,4.07.08,8.2,0,12.33-5.01,2.82-5.65,14.45.32,16.81,6.79.82,8.61-13.98,3.19-17.02.07-4.18.21-8.37-.05-12.54,12.8,9.63,8.25-11.84-1.4-13.18-.61-4.02-1.39-8.02-2.38-11.96,17.48,13.18,12.56-9.99-3.58-11.49-.99-2.65-2.1-5.24-3.34-7.78,18.25,7.27,8.85-10.97-3.92-9.9,3.41-2.87,6.57-6.16,8.37-10.29,24.12,45.9,70.22,76.88,120.93,85.35,2.39.9,4.99-.45,4.55-3.14-5.94-17.1-9.57-34.81-12.73-52.61-7.51-55.76-65.11-103.39-121.64-93.69-.61-1.35-1.23-2.7-1.83-4.05,48.33-7.46,99.32,13.92,136.77,43.62-3.99,6.4,2.27,15.35,8.34,18.99-3.34,6.63-4.92,14.34-5.3,21.79-.42,8.39,6.47,12.66,9.03,2.59,2.89,15.99,15.24,23.36,11.81,1.19,2.43,3.23,7.42,11.64,12.13,10.02,4.98-5.49-4.87-18.55-8.16-23.86,5,2.73,16.12,9.08,19.08,1.16-1.93-9.37-21.48-15.93-30.52-17.3-1.79-6.48-4.64-18.23-13.45-16.55-37.04-30.58-92.74-53.39-141.14-44.9-.08-.2-.17-.4-.25-.6,26.28-7.36,54-7.95,81.18-7.14,21.04,22.85,40.61,34.18,71.69,37.83,1.64.74,3.36-1.02,2.34-2.57-16.53-13.5-32.23-29.37-53.67-34.77,8.2.17,16.41.26,24.61.12,11.04,7.07,20.83,16.24,32.29,22.75,9.75,5.69,20.38,9.91,31.46,12.13,5.69,1.39,11.99,1.65,17,4.9,2.17,1.26,3.82-1.83,1.76-3.07-16.88-17.99-33.61-36.94-60.15-38.1,9.32-1,18.52-3.07,27.7-4.86,16.99,7.39,33.76,16.76,52.86,16.84,5.42-.22,22.27,2,10.52-6.35-10.39-9.91-23.26-16.68-37.81-17.26,22.34-6.97,44.61-15.94,63.62-29.87,7.7,3.6,16.66-5.35,19.64-11.93,24.44,8.39,42.16-9.66,16.06-9.4,3.29-2.54,13.54-10.68,6.17-13.85-4.74-.7-12.31,5.32-16.16,8.03,10.31-28.38-16.3-18.73-10.25,9.42-7.04,2.11-18.51,6.11-17.74,15.04-19.68,14.32-42.8,23.41-65.99,30.31,9.13-6.4,15.69-15.49,19.62-27.08,1.28-2.45-1.68-4.36-3.4-2.2-14.57,12.07-38.2,16.81-45,36.35-12.67,2.66-25.53,4.29-38.48,4.7,23.92-6.7,45.12-23.86,57.94-45.1,1.27-1.78-.24-3.98-2.31-3.15-27.12,11.3-57.26,19.4-71.02,48.37-9.82-.08-19.66-.32-29.49-.66,28.05-9.4,53.51-30.07,65.12-57.67-.07-2-2.36-2.19-3.56-1.01-16.54,8.82-34.9,15.19-46.65,30.75-8.53,9.25-14.74,21.5-25.76,27.71-18.22-.31-36.44,0-54.46,3.05,41.44-15.95,84.59-39.05,107.68-78.58,7.55.54,12.87-8.95,14.11-15.42,11.33-2.08,22.23-6.86,31.45-13.83,3.15-2.48,8.14-8.26,3.39-11.55-4.28-2.1-12.95,1.62-16.98,3.72,14.27-22.62-.59-38.96-13.76-9.68-.75-5.46-3.27-13.95-10.13-13.45-5.01.63-5.74,13.52-6.07,17.68-.32,6.8,1.98,13.37,4.25,19.69-7.01,4.48-14.27,13.94-9.41,21.17-25.73,43.09-78.79,70.9-126.44,82.43-.52-1.38-1.02-2.77-1.5-4.17,58.32-18.34,112.45-68.49,119.65-131.52.33-4.88-4.15-4.62-6.31-1.16-36.66,32.06-94.78,28.05-119.23,78.89-.46-4.23-1.28-8.41-2.51-12.44,14.11-.65,20.76-18.36,3.99-10.6.87-2.07,1.71-4.15,2.5-6.27,17.01-3.07,17.87-19.15,3.93-11.97.88-3.16,1.59-6.26,2.11-9.32,14.76-7.94,12.87-20.9,1.14-12.89.03-7.18-.96-14.49-2.96-22.39,11.33-11.04-5.89-20.82-5.82-5.83-10.75-2.4-8,13.24,3.1,9.35,1.39,6.1,2.07,11.8,2.15,17.33-10.37-4.8-8.54,11.35-1.32,15.14-.33,1.79-.72,3.58-1.17,5.38-9.14-8.07-12.19,7.39-4.36,13.75-.09.24-.17.47-.26.7-2.55-7.21-10.66-4.35-10.2,2.66-9.51-15.22-28.86-15.56-44.75-18.4-13.09-1.77-26.52-4.95-39.52-5.59-10.47-5.47-21.39-6.85-31.7-4.87-4.85-2.97-9.16-6.97-15.03-7.74-73.65-15.93-84.02,24-103.44,79.8-2.18-4.12-4.09-8.53-5.57-13,3.76-2.78,6.45-9.58,6.31-14.35-1.23-6.84-7.86-5.2-10.49-.48-.51-2.34-.95-4.66-1.3-6.98,15.2-9.68,7.47-25.61-1.08-15.17.06-4.47.46-8.97,1.23-13.55,17.17-4.51,17.13-19.88,3.42-13.86,1.5-4.7,2.98-9.42,4.5-14.11,10.75,6.06,16.7-9.09,3.57-8.45.65-3.23-.15-7.69-3.77-8.69-7.2-.83-7.55,11.08-2.49,14.04-2.01,6.31-4.13,12.56-5.93,18.95-10.35-15.46-16.97,4.31-2.88,12.35-1.14,6.35-1.56,12.77-1.03,19.26-13.52-17.8-19.25,7.82,1.31,11.14.42,2.57.92,5.17,1.51,7.77-3.42-1.92-7.63,1.5-6.32,5.25-15.85-42.11-33.45-87.07-79.42-103.71-9.12-4.02-18.13-7.82-27.61-11.24-2.38-1.19-7.68-2.72-6.66,1.82-.98,1.67.51,2.96,1.94,4.04,5.42,11.09,9.79,22.64,13.87,34.28,16.12,49.02,47.95,99.6,101.31,112.21-.19.23-.37.46-.55.69-43.58-8.7-84.56-28.65-115.99-60.32,1.29-5.71-4.12-10.27-9.23-13.19.93-7.33-.06-15.26-2.23-22.35-3.4-10.83-13.38-8.41-12.37,2.61-11.87-15.2-21.02-7.17-8.64,7.4-24.09-9.45-20.37,10.14-.12,14.16-13.64,4.27.33,16.59,16.74,4.17.69,6.24,7.47,13.13,13.84,9.84,27.13,27.93,61.54,46.26,98.88,56.59-13.89-1.98-27.92-2.26-41.92-1.78-.03-.64-.36-1.27-1.04-1.5-6.35-2.93-10.08-9.42-15.15-14-10.54-10.09-24.78-19.14-39.7-18.47-2.36,2.3,2.22,4.39,3.44,6.11,9.05,9.58,16.39,22.75,28.46,26.96-5.36.74-10.97.07-16.39.95-25.37-17.39-28.45-23.7-60.78-29.5-1.75-1.16-3.63,1.25-2.18,2.71,12.59,10.07,19.95,25.59,36.37,29.42-5.31,1.57-10.41,2.98-15.89,3.75-14.96-9.86-27.37-18.49-46.18-18.36-1.72-1-3.65,1.04-2.37,2.62,10.64,5.65,19.1,15.82,30.84,19.16-26.98,5.03-44.91,5.79-72.69-1.13-1-4.74-8-6.39-12.48-6.43.43-4.91.9-10.05-2.14-14.12-2.46-3.07-7.46-2.22-6.47,2.34-4.18-6.46-17.38-9.26-10.42,1.75-3.37-.81-8.8-2.34-10.78,1.52-2.01,5.96,11.5,10.06,15.76,11.28Zm115.19,48.33c3-.02,5.6,2.13,7.91,3.88-1.82-.03-9.16-1.87-7.91-3.88Zm-9.64,14.31c-2.15-.05-4.78-.13-6.4-1.71,0-.05.02-.1.04-.15,0,0-.01,0-.01,0,3.42-4.96,17.8-5.06,24.48-4.95-5.48,3.4-11.59,6.35-18.1,6.81Zm3.61,15.27s-.06,0-.08,0c1.13-7.81,10.57-14.13,16.52-18.64-2.55,8-8.29,15.83-16.44,18.65Zm19.68-7.6c-1.72-2.5-1.05-5.86-.33-8.68,1.35,2.7,1.1,5.85.33,8.68Zm.56-13.92c-.19-.2-.38-.39-.54-.61,1.02-1.98,3.26-5.79,5.89-4.58.98,3.24-2.77,4.69-5.34,5.19Zm547.23,63.88c-2.42-5.42.38-14.43,1.93-20,.63,6.74,1.4,13.76-1.93,20Zm13.13,9.26c-5.58-8.35-7.06-18.9-6.91-28.79,3.71,8.98,8.68,18.84,6.91,28.79Zm13.34-3.79c-8.39-7.45-13.01-18.39-17.73-28.38,7.76,7.46,15.21,17.77,17.73,28.38Zm.34-26.65c1.29.71,13.32,7.76,7.43,7.8-8.61-.52-18.58-8.39-24.93-13.96,6.15.95,11.99,3.32,17.5,6.16Zm-26.27-21.02c2.76,3.61,4.07,8.23,5.1,12.62-.59.27-1.15.67-1.81.76-10.05-4.22-12.27-21.22-3.29-13.38Zm-17.28-39.74c6.08,4.63,11.64,9.97,17.6,14.77-23.8-2.02-44.2-14.82-59.79-32.42,15.1,2.86,29.92,8.19,42.19,17.65Zm172.93-78.37c2.67.09,5.93-.28,8.17,1.39,0,0,0,0,0,0-5.36,4.57-13.96,3.07-20.48,2.23,3.72-2.22,7.91-3.37,12.31-3.62Zm-10.99-4.71c4.49-3.65,9.55-7.67,15.18-9.2-4.46,7.79-13.51,11.64-21.04,15.69-.12-.1-.25-.19-.41-.27,0-.01.01-.02.02-.04,2.61-1.12,3.86-4.51,6.26-6.19Zm-4.46-15.74c3.39-5.43,3.92-.04,3.29,3.29-1.18,5.23-3.47,10.06-6,14.79-.78-6.08-.32-12.64,2.71-18.08Zm-16.94,29.47c3.61-2.93,8.17-4.34,12.58-5.62-2.7,11.08-23.61,17.25-12.58,5.62Zm-136.55,51.66c34.12,4.03,44.62,7.58,67.37,33.63-26.21-3.21-48.22-17.44-68.31-33.67.31.02.65-.1.94.04Zm57.92-9.34c19.99-1.37,31.72,3.22,46.41,16.5-19.71,1.52-38.35-5.87-55.51-14.81,2.74-.64,5.48-1.3,8.2-2.01.24.16.54.28.91.32Zm-10.98-9.63c9.24-8.46,21.45-12.72,31.57-19.97-6.3,15.44-19.35,25.59-35.59,29.06-1.23-.55-3.17-.77-3.47.82-.15.03-.3.07-.46.11,1.46-3.98,4.97-7.1,7.94-10.02Zm-29.32-14.83c10.17-4.95,21.19-7.81,31.45-12.55-14.31,21.35-37.41,37.84-63.18,41.6,7.49-12.39,18.94-22.35,31.72-29.05Zm-52.77,20.69s.04-.02.07-.03c-.02.01-.04.02-.07.03Zm-3.66-6.42c12.07-18.29,30.19-29.62,50.05-37.86-12.59,23.57-34.71,41.51-60.02,49.93,3.62-3.76,6.78-7.93,9.97-12.06Zm72.39-96.68c2.28-.47,5.57-2.11,7.95-1.12-4.12,10.1-20.64,15.03-30.46,18.14,6.97-6.36,12.91-14.38,22.51-17.02Zm-23.01,11.21c2.29-12.06,4.28-25.59,14.83-33.53,2.96-1.32,3.13,3.42,3.09,5.32-1.03,11.77-9.21,21.12-17.94,28.28l.02-.07Zm-8.4-30.66c.23-.59.83-1.05,1.51-.72,11.3,8.6,1.87,23.3.8,34.33-4.97-11.35-6.45-21.69-2.31-33.61Zm-.19,36.36c.29.73,1.12,1.1,1.86,1,3.42,4.29-4.03,14.91-8.88,15.2-6.01-3.16,2.43-13.63,7.02-16.2Zm-385.39-38c.62.3,1.49.75,1.04,1.56.02-.05.03-.09.05-.15-1.13,1.94-3.94,1.04-5.62.35.1-.19.16-.41.19-.62.98-1.28,2.86-2.01,4.33-1.14Zm-9.03-6.3c2.02-7.46,3.9,2.46,1.89,5.1-1.67-1.1-2.01-3.2-1.89-5.1Zm-156.72,55.27c-13.16-1.99,7.4-4.16,10.46-3.76-3.24,1.81-6.7,3.52-10.46,3.76Zm-9.27-12.48c-1.61-.82-8.14-4.47-5.81-6.56,7.96-2.41,20.39,6.84,26.51,11.52-7.12-.48-14.25-1.79-20.7-4.96Zm21,.68c-6-4.75-15.16-12.78-16.59-20.63,8.72,3.31,12.68,13.73,17.32,21.14-.25-.17-.49-.34-.73-.51Zm-1.64-13.85c-1.5-6.51,1.84-12.89,5.34-3.4,1.93,5.98,2.28,12.3,2.32,18.56-2.69-5.02-6.85-9.32-7.66-15.17Zm15.15,30.8c-5.15.08-7.66-5.6-7.82-10.09.28-.08.55-.24.77-.45,2.79.9,12.66,8.34,7.05,10.53Zm117.04,65.81c0-.07,0-.12,0-.19.03,0,.07.02.1.03-.03.05-.07.11-.1.16Zm-120.65,98.5c20.37-47.4,60.77-99.82,118.22-94.08-3.32,6.72-5.33,14.12-6.17,21.74-52.13,30.26-84.27,86.61-139.74,112.04,10.57-12.22,20.07-25.44,27.7-39.7Zm116.83-30.19c-3.47.18-7.12,1.51-10.24,3.08,2.94-4.66,5.73-9.4,8.17-14.34.9,3.13,1.98,6.18,3.23,9.1-.39.71-.79,1.43-1.16,2.15Zm-52.83,38.55c-27.19,18.73-58.82,33.4-91.99,36.38,56.02-24.37,88.46-80.27,139.63-111.68-.24,6.18.26,12.41,1.42,18.46-9.9,23.66-27.72,42.92-49.07,56.84Zm48.68-29.95c-1.28,1.53-5.51,4.39-7.39,2.83-.79-5.08,5.87-6.66,9.69-7.65-.84,1.57-1.28,3.36-2.3,4.81Zm-12.98,28.67c-7.04,2.12,5.04-8.91,7.11-9.09-.25,1.14-.47,2.28-.69,3.43-2.12,1.63-3.5,4.66-6.42,5.66Zm3.68,23.36c-.03-.11,0-.21,0-.32-.68,2.56-2.36,5.05-4.67,6.39-.33-3.58,2.89-6.83,5.08-9.41.02.7.05,1.39.09,2.09-.32.3-.53.72-.5,1.25Zm10.93,26.52c-.06.58-.19,1.3-.77,1.58-2.58-1.06-3.61-4.28-3.36-6.89.04-.04.08-.07.11-.11,2.51.04,4.44,3.02,4.02,5.42Zm-2.41-26.29c-2.1.49-3.03-1.85-4.58-2.55-.03-.91-.05-1.81-.05-2.71,2.09,1.15,4.6,2.59,4.63,5.26Zm3.45-22.79c-2.91-1.13-4.27-4.12-5.65-6.77.26-1.29.53-2.58.83-3.86,3.29,2.38,6.1,6.52,4.82,10.62Zm6.63-20.18c-3.17-1.04-4.75-6.2-5.31-9.23.45-1.05.92-2.1,1.4-3.14,2.19,2.79,5.26,8.89,3.91,12.37Zm-2.29-15.67c.06-.12.12-.24.18-.36.2.36.4.7.61,1.04-.26-.26-.52-.49-.79-.69Zm15.17,6.39c-21.09-15.07-20.67-49.48-10.65-71.11,1.17,0,2.32-1.78,1.68-3.01,9.59-16.34,30.41-19.37,45.1-29.66-7.54,16.76-19.94,31.75-22.41,50.56-5.97,29.76,14.25,33.82,5.7,66.23-5.6-5.38-13.09-8.53-19.41-13.02Zm75.27-125c2.89.52,5.61,1.56,8.15,2.99-8.09,9.38-16.65,23.52-12.29,36.17-33.54,20.45-25.48,87.03,19.31,83.64.09.09.18.19.28.28-50.59,17.83-89.61-23.36-63.88-72.13,4.97-9.32,10.92-18.11,15.04-27.88,4.41-14.42,17.44-26.79,33.4-23.08Zm129.19,38.19c7.44,16.29,17.72,31.07,26.45,46.51,15.07,45.22-55.75,47.24-81.57,65.4,1.76-4.44,7.82-13.41,9.08-20.96,17.48-15.75,34.56-41.84,28.02-66.17,6.99-7.55,13.26-15.47,18.02-24.78Zm-69.79,124.83c-39.75,44.36-73.12,7.17-91.32-34.18,16.29,5.66,36.68,6.42,52.22-1.64,15.46,10.64,37.71,16.03,54.94,6.96-3.75,7.75-7.35,15.29-11.68,22.78-2.71,2.21-4.5,4.37-4.16,6.08Zm-59.7-119.26c7-4.88,20.57-7.6,27.54-1.58-1.14,4.3-1.53,9-.15,13.33-8.64,8.63-9.63,25.57,2.26,31.73,1.71,7.94,9.68,12.86,17.47,12.7-15.11,20.6-53.28,25.31-62.62-2.88-6.79-19.15-2.15-41.73,15.51-53.3Zm37.06-7.8c22.74-26.8,49.1.09,30.92,27.17-1.02-.56-2.2-.84-3.51-.73.2-16.25-20.96-20.22-31.93-11.39-.49-5.25,1.73-10.73,4.52-15.05Zm17.34,56.39c-1.27-.48-2.8-.19-3.6,1.28-5.34,1.15-12.07-.7-14.45-5.36,5,.11,13.96-8.69,4.92-9.35-2.1,1.1-3.8,3.81-6.34,3.43-.75-1.08-2.25-1.64-3.48-1.02-9.57-6.99-3.11-21.01,5.38-26.02,11.98-8.87,29.51,2.99,18.22,16.22-1.87-7.32-13.07-7.36-14.86-.04-.57,3.76,5.02,5.06,5.94,1.19,2.99-2.82,4.47,2.93,3.02,5.01-1.17,2.78-6.44,4.93-3.46,8.28,4.23,3.39,9.38-5.37,9.89-8.99,4.25.91,6.81-5.27,8.04-8.57.58.18,1.32-.3,1.79.19.03.75.37,1.55,1.17,2.15,3.23,8.7-4.35,17.89-12.19,21.58Zm32.26,25.5s.06-.07.09-.11c-.03.03-.06.07-.09.11Zm.1-.12c-15.32,19.82-44.69,18.28-63.36,4.01,13.11-2.93,25.19-11.44,31.59-23.17,11.8-4.22,22.13-17.91,17.04-30.52,3.41-5.71,6.41-12.25,7.5-18.76,42.93.88,26.75,48.01,7.24,68.45Zm9.13-75.08c-.06,1.06-.54,2.3-.95,3.53-4.72-2.19-9.88-3.38-14.95-2.95,1.05-28.45-38.19-32.06-50.12-6.94-8.17-5.46-20.08-4.08-28.56-.14.29-62.22,107.71-60.07,94.58,6.5Zm-130.93,149.5c-5.7-2.67-12.27-4.79-16.15-10.04-8.15-19.37,5.02-43.75,3.6-64.12,1.93,1.82,3.94,3.69,6.05,5.3,14.91,27.35,31.38,68.1,68.71,65.79-17.17,12.16-43.6,11.88-62.21,3.07Zm125.67-7.81c-12.9-1.05-25.48-4.63-38.28-6.39,6.52-4.33,11.83-10.15,15.9-16.73,18.89-14.56,43.01-18.82,64.54-28.09-10.83,19.89-12.91,52.06-42.17,51.21Zm96.06-21.96c1.09,3.87.02,9.26-2.44,12.42-2.59-3.79-.5-11.17,1.2-16.09.32.51.62,1.03.92,1.55-.37.65-.37,1.5.32,2.12Zm7.8,19.3c.48,3.4-.95,6.88-2.67,9.75-1.35-3.84.72-8.63,2.63-12.62.15.48.3.97.44,1.45-.31.34-.48.82-.39,1.42Zm4.18,20.02c-.48,2.82-1.42,5.72-3.63,7.71-1.34-3.94.77-7.79,3.73-10.34.09.73.18,1.45.27,2.18-.14.13-.27.28-.36.45Zm2.27,33.16c-2.66-2.72-1.67-7.61.24-10.54.14.05.3.08.45.09,2.55,2.88,1.02,7.5-.69,10.45Zm1.74-35.23c2.71,1.74,4.8,4.79,5.06,8.04-2.27-1.04-3.64-3.29-5.06-5.23-.1-1.01-.22-2.03-.35-3.04.12.06.24.13.35.22Zm4.42-15.6c-4.38-.54-6.41-5.08-9.64-7.33-.09-.27-.19-.54-.28-.82,4.26,1.15,8.06,4.11,9.91,8.15Zm-8.11-21.4c-3.61-.13-6.64-2.37-9.35-4.57.03.02.05.04.08.07-.1-.08-.2-.16-.3-.23,3.55.35,7.42,1.74,9.57,4.72Zm-8.88-18.52c-10.27,13.27-27.43,18.72-43.41,21.08-8.37,2.09-15.59,7.77-24.54,7.34,6.88-12.68,10.72-26.71,17.35-39.52,1.84-5.67,7.61-7.64,11.74-11.5,10.33-8.18,16.6-22.26,11.83-35.14-6.2-13.03,5.02-26.26,6.74-39.41,6.1,32.01,35.93,64,20.3,97.15Zm23.26,17.62c-5.45-7.53-10.36-15.08-14.34-23.57,2.25-8.81,1.95-18.09.17-26.81,16.26,7.8,29.51,20.83,42,33.62-.07-.07-.14-.14-.21-.21,25.59,24.42,43.9,55.6,70.97,78.51-38.55-6.25-75.21-30.35-98.59-61.54Zm-19.09-78.31c45.77-3.38,91.97,28.55,106.09,72.1,6.9,21.35,8.03,44.12,15.62,65.29-41.51-35.7-67.15-90.48-118.08-114.94-2-7.43-4.91-14.69-8.01-21.75,1.37-.28,2.84-.49,4.39-.71Zm32.47-48.51c-14.59,10-30.78,17.61-47.11,23.92-2.12-6.44-3.81-13.08-5.95-19.53,42.82-29.52,93.62-53.49,121.02-99.73-8.22,39.6-34.31,73.6-67.97,95.34Zm-17.22-57.51c24.41-16.61,55.33-20.72,79.63-37.45-26.86,43.22-75.04,66.04-115.72,94.13,1.25-24.58,15.3-43.18,36.09-56.68Zm-26.75,9.54c-2.08,3.16-5.84,4.59-9.36,5.49,2.74-2.21,5.55-5.36,9.36-5.49Zm-.36-14.67c1.74-1.77,3.99-3.8,6.68-3.32-.9,3.52-5.19,4.98-8.73,6.14.28-.79.54-1.56.79-2.34.41.02.85-.11,1.25-.49Zm4.16-22.68c1.43-1.63,3.2-3.48,5.51-3.57-.68,3.28-3.83,5.31-6.47,7.14.1-.93.19-1.86.25-2.79.29-.19.54-.45.7-.78Zm-4.25-36.8c2.6,1.07.27,4.86-.82,6.43-.57-1.8-1.88-5.84.82-6.43Zm-4.37,10.44c-7.91-.44-2.6-6.53,1.47-.5-.45.26-.94.49-1.47.5Zm1.03,26.99c-.63-4.02-.12-5.43,3.51-2.47-.1,2.27-.3,4.53-.6,6.78-1.36-1.17-2.61-2.45-2.9-4.31Zm-2.23,23.43c-1.36-2.2-3.94-6.62-.84-8.43,2.6.66,2,4.19,2.03,6.16-.29.89-.59,1.79-.9,2.69-.09-.13-.18-.27-.29-.42Zm-6.53,4.05s-.01-.05-.01-.05c3.43,1.3,2.16,6.08,2,8.8-.4.93-.81,1.86-1.23,2.78-1.49-2.79-3.94-9.36-.76-11.53Zm-77.62-13.18c18.24,4.16,50.13,3.68,63.78,15.25,24.08,26.42,8.6,63.22-.6,92.58-8.89-13.24-16.48-27.19-23.15-41.64,8.66-21.3-7.03-35.65-22.54-47.56-6.77-5.76-12.25-13.04-18.9-18.92.54.08,1.01.17,1.41.28Zm-14.77-2.19c10.21,4.96,16.81,14.5,24.82,22.14,34.07,25.09,33.5,41.05,5.89,72.73-2.09-3.23-5-5.76-8.2-7.94,17.68-53.31-49.83-84.77-87.54-50.65-2.36-1.45-4.83-2.75-7.48-3.56,19.06-23.01,39.43-49.07,72.51-32.73Zm-57.44-14.06c7.46,1.39,14.88,1.07,21.16,6.21-19.11,5.86-29.26,26.37-43.73,39.1-10.62-.85-21.74,3.43-28.43,11.98-.6,0-1.22.17-1.82.63-7.36,10.95-19.95,16.02-31.53,21.33,16.34-44.32,23.69-88.89,84.35-79.24Zm-97.47,53.46c3.82-11.84,8.47-3.76,1.16,6.16-.51-1.63-.99-3.24-1.43-4.85.26-.39.38-.86.27-1.31Zm-1.95-24.26c4.92-8.36,6.27,3.04-1.78,7.96-.64-2.82.58-5.47,1.78-7.96Zm.89-24.67c10.34-9.48,10.76.46-1.19,3.93.22-1.02.47-2.05.72-3.09.21-.21.38-.48.47-.84Zm-4.91-.38c.16.47.54.8.98.96-.33,1.34-.64,2.69-.93,4.05-8.45-6.67-5.98-17.75-.05-5.01Zm-10.31,25.48c4.19-1.09,6.16,8.04,9.04,7.7.25.73.22,1.58.37,2.36-3.66-.39-11.33-6.7-9.41-10.06Zm10.35,24.71c.79.59,1.46,1.62,2.35,1.78.42,1.57.88,3.12,1.36,4.67-1.6-.39-3.05-1.35-4.14-2.58-1.15-1.19-2.84-5.55.43-3.86Zm3.31,9.95c.48.15,1.06.22,1.62.18,2.03,5.79,4.49,11.25,7.36,15.92-.18.51-.36,1.03-.54,1.54-6.46-6.19-11.17-13.77-15.14-21.84,1.66,2.13,4.14,3.7,6.71,4.2ZM207.96,24.14c46.18,23.76,47.87,80.88,76.98,118.04C233.5,109.5,209.08,50.25,168.84,6.78c13.31,5.09,26.63,10.47,39.12,17.36Zm15.8,92.93c.11.1.09.09.11.11-27.87-27.75-38.91-66.3-52.98-101.87,36.9,44.22,62.97,100.59,113.43,131.68-1.17.85-2.31,1.76-3.4,2.73-21.83-4.37-41.56-17.03-57.16-32.66Zm-46.73,52.93c-4.33,2.19-9.11,3.15-13.74,4.6,9.53-11.19,17.99-19.99,32.04-20.19-4.95,6.35-11.17,11.71-18.3,15.6Zm2.12-32.71c-4.48-5.28-7.98-11.2-13.1-15.95,18.78,2.48,30.91,17.53,43.72,29.76-11.49-.52-22.89-5.11-30.62-13.81Zm-39.21,34.47c-6.11,7.06-15.05,10.83-22.14,16.79,4.16-14.37,13.85-26.92,28.75-29.57-2.02,4.34-3.73,8.91-6.61,12.77Zm-19.91-44.8c18.97,2.04,34.25,12.67,48.53,24.57-.66.06-1.32.11-1.97.16l.23-.02c-23.37,3.01-32.43-9.5-46.79-24.72Zm31.23,27.59c.1.02.19.04.29.05-.07.01-.15.02-.22.04-.02-.03-.04-.06-.07-.09Zm-36.01-3.99c4.04,2.61,7.79,5.61,11.97,8.03-13.82,2.18-23.65-7.53-33.87-14.98,7.71.66,15.28,2.9,21.9,6.95Zm-76.23,9.85c-2.81,2.62-6.97-.98-8.97-3.17,3.13-.17,6.77.84,8.97,3.17Zm-12.19-11.75c-.55-1.43-.96-2.91-1.33-4.4-.2-.79-.45-1.8-.59-2.74,1.78,1.83,1.83,4.68,1.93,7.13Zm-2.22,9.35c-2.97,2.25-7.01,4.59-10.86,3.81,2.69-2.78,7.25-2.96,10.86-3.81Zm-2.27-9.17c-4.16-2.02-7.59-5.03-9.73-9.21,4.34,1.6,7.1,5.62,9.73,9.21Zm-18.01-2.58c7.47-.54,12.92,4.67,18.95,8.11-5.96-.87-15.73-3.3-19.78-7.87.25-.13.55-.21.83-.24Z"/>
  </g>
</svg>