<?xml version="1.0" encoding="UTF-8"?>
<svg id="_Слой_2" data-name="Слой 2" xmlns="http://www.w3.org/2000/svg" viewBox="0 0 346.57 759.05">
  <g id="_Слой_1-2" data-name="Слой 1">
    <path d="m344.94,219.23c-2.21-4.1-7.19-6.03-11.6-4.63-3.84-3.52-7.77-6.95-11.94-10.06,20.4-3.73,1.15-19.94-9.98-6.6-5.05-3.07-10.32-5.78-15.75-8.08,14.8-7.3-2.92-22.8-14.04-4.95-4.26-1.21-8.58-2.17-12.94-2.87,14.51-10.51-3.69-22.15-14.31-1.34-3.41-.09-6.84-.02-10.26.23,16.64-13.39,19.74-35.88,15.67-55.74.26-1.96-.84-4.2-3.07-4.07-12.83,7.25-27.84,17.98-30.86,33.29-1.9-2.27-3.87-4.5-5.37-7.06-1.45-1.79-1.65-5.46-3.68-6.52-2.53-30.36-13.16-23.66-38.07-18.23-1.93-2.06-3.95-4.15-6.31-5.79,10.19-11.25,14.32-27.09,13.02-42.07-.82-3.58-4.36-2.75-6.79-1.4-10.5,4.85-21.83,9.52-29.19,18.86,1.26-3.52,2.65-7,4.11-10.45,2.85.31,6.87-2.48,9.1-3.48,6.83-2.86,7.44-13.81-2.16-11.4,1.24-2.38,2.53-4.74,3.87-7.07,20.4-.23,25.15-18.86,8.63-13.83,2.41-3.61,4.9-7.15,7.42-10.67,5.85-.37,12.73-1.55,16.81-6.14,3.41-4.36-1.58-9.03-6.25-7.48,2.27-2.59,4.76-4.99,7.3-7.32,4.48,1.07,14.09-3.42,15.37-8.08.84-11.64-19.64-5.2-18.95,3.91-3.88,3.45-7.42,7.24-10.72,11.24-1.51-19.82-20.32,1-8.39,11.15-3.59,5.03-7.15,10.08-10.44,15.32-2.08-22.33-21.38-1.36-6.28,10.5-1.57,2.78-3.08,5.6-4.52,8.45-8.52-14.34-17.31,4.09-6.29,13.64-1.88,4.52-3.6,9.12-5.14,13.77-.59-7.03-21.37-44.96-25.52-24.71-4.56,12.52-4.23,26.63,2.49,38.91-22.73-.32-26.69,25.37-27.12,43.19-4.8-7.13-10.12-13.89-15.93-20.22,2.94-17.25-11.33-24.78-11.48-11.19-2.85-2.47-5.77-4.85-8.77-7.13,1.76-20.73-17.38-26.35-13.13-8.73-3.99-2.25-8.1-4.3-12.21-6.34,1.74-13.39-15.06-23.29-13.64-7.16-.93-.54-1.85-1.09-2.76-1.66-1.06-4.66-5.07-10.49-10.46-9.75-10.44,3.59-.15,20.4,8.56,15.15,1.57.95,3.16,1.81,4.78,2.66-7.11,1.63-7.84,11.2.47,11.02,4.09-.2,9.12-1.4,11.69-4.84,3.83,1.94,7.66,3.88,11.38,6.04-16.22,7.68,5.85,18.43,13.34,8.98,2.9,2.23,5.71,4.58,8.43,7.04-17.45,6.74-.1,16.9,10.82,10.83,2.41,2.67,4.73,5.43,6.96,8.26-7.45-3.59-40.39-10.93-25.36,6.3,4.04,4.93,7.36,13.25,12.69,17.47-7.85,3.6-14.95,9.07-22.16,13.73-2.62,1.41-5.62,4.27-2.43,6.88,10.28,4.31,17.57,5.59,32.25,4.88-2.71,3.96-5.36,8.96-5.79,12.8-14.88,6.95-20.43,24.77-34.23,33.49-1.72,3.13,1.43,4.73,4.17,4.76,8.28,1.13,16.55,2.76,24.93,2.87,8.15.3,16.13-2.13,23.23-6.04-6.81,9.99-15.75,33.38-3.74,42.02,4.88.79,8.08-4.98,12.25-6.86,2.56,82.31,8.09,165.38,33.79,244.2,5.92,20,16.62,37.36,28.85,54.09,7.12,34.22,4.78,69.94,7.44,104.75.2,9.74-.79,19.53-2.99,28.99-70.15,8.91-62.86,50.76,4.89,50.12,20.83-.46,43.25-3.12,60.73-15.33,26.86-23.8-21.1-36.44-39.57-35.81-4.04-11.65-3.94-23.66-4.05-35.84-.28-28.23.3-56.47,1.67-84.66-.02-17.58,17.18-31.25,23.02-47.62,24.99-48.14,27.33-102.78,30.05-155.84,1.87-46.36,5.32-92.76,4.23-139.19,6.61-1.09,13.1-3.41,19.46-5.53,4.17-2.33,16.39-1.99,15.79-8.09-4-7.11-11.32-11.35-16.43-17.96-7.9-9.38-19.01-15.93-31.48-16.14,1.38-3.23,2.55-6.36,3.36-9.46,6.04-1.16,12.29-1.51,18.42-1.4,6.7,15.79,25.93,15.56,15,1.45,3.92.67,7.8,1.57,11.62,2.67,3.46,19.96,20.74,19.2,15.83,5.88,4.67,2.13,9.22,4.57,13.59,7.28-2.77,15.78,13.97,23.09,12.14,8.56,2.58,2.06,5.08,4.23,7.48,6.49,1.92,16.99,23.01,17.03,15.45.73Zm-101.31-45.34c-2.16,2.14-4.54,4.04-7.01,5.81.1-3.02-.24-6.06-1.18-9.2,7.25-12.29,13.78-24.79,19.7-37.77,2.79,14.31-.95,30.66-11.51,41.16Zm5.48-41.34c-4.91,10.74-10.33,21.34-16.34,31.61-6.48-12.46,6.59-24.39,16.34-31.61Zm-25.23,28.15c16.89,19.31-.65,37.4-6.7,57.06-3.18,16.2-12.86,21.04-28.5,20.66,16.57-5.66,19.01-23.88,20.36-38.89,14.26-12.26,7.34-31.14,8.13-47.31,2.62,3.69,5.68,7.13,6.7,8.48Zm-13.5,80.37c14.52,12.85,18.66,35.47,10.82,53.1-4.95-17.73-6.69-37.49-19.99-51.35,3-.6,5.81-1.54,8.36-2.98.14.43.39.85.81,1.23Zm-128.81-70.93c4.7-.45,9.92-.8,14.15,1.62-.45.38-.89.75-1.33,1.13-12.9,2.78-25.58,7.16-38.67,9.37,7.98-5.41,16.11-10.95,25.86-12.12Zm22.39,21.67c.51-3.17,1.07-6.33,1.79-9.45,4.25,6.56,10.44,12.97,17.14,16.65,1.26,7.11,4.57,14.09,9.5,19.44-19.45,1.11-31.44-5.53-28.43-26.63Zm67.6-65.41c3.69,3.33,7.34,7.14,9.9,11.48-7.4-2.2-15.11-.09-22.55.66-4.9-5.02-12.29-5.78-18.48-3.72-1.57-1.89-4.58-.11-6.76-.93,8.8-11.83,25.5-16.52,37.89-7.48Zm-21.21,13.25c1.62.41,2.99,1.27,4.2,2.35-14.51-.69-29.66,10.51-26.04,26.27-.04.08-.06.17-.09.26-11.69-11.29,8.9-32.53,21.93-28.89Zm8.92,45.08c-2.14,1.15-4.72,1.65-7.18,1.4,2.38-.97,3.98-2.41,3.51-4.38,1.66-2.29,1.35-6.51-.57-8.5.36-1.78.16-3.89-.39-5.58,11.49-4.72,14.03,12.67,4.63,17.06Zm-8.21-7.63c.09,1.18-.25,2.35-.18,3.34-.98.43-1.96.95-2.87,1.17.12-1.81,1.46-3.8,3.05-4.51Zm-1.31-5.34c-4.14,1.03-7.44,6.15-7.29,10.43-4.9-.61-8.76-4.29-6.24-10.18,2.36-6.33,13.45-7.84,13.54-.25Zm14.05-9.07c-3.73-1.79-9.07-1.8-12.67.54-5.11-3.57-13.34-2.35-17.47,2.7-3.91-19.6,39.06-28.52,30.14-3.24Zm-34.3,21c.18-1.59.6-3.12,1.1-4.62,1.87,6.8,8.56,9.21,15.83,8.57-.58,5.32,8.36,4.3,11.66,3.42-8.96,13.65-31.62,12.28-28.59-7.37Zm31.6,12.63c1.51-1.81,4.24-6.2,3.99-9.12,5.7-4.7,7.45-14.05,3.17-20.44.24-.54.43-1.11.63-1.69,17.72-15.41,9.35,12.72,7.69,21.52-3.68,12.61-11.17,15.83-21.98,15.14,2.45-1.49,4.67-3.31,6.49-5.41Zm24.73-31.44c0-7.76-9.34-13.31-15.52-7.79.13-5.6-1.69-10.98-6.63-13.47,8.41-1.16,21.8-4.88,26.12,10.64,3.04,14,5.38,25.74-8.25,34.91,1.91-7.94,3.69-16.13,4.28-24.29Zm-57.4-26.16c1.21,0,2.45.21,3.69.44-10.94,7.73-19.25,26.36-5.54,34.76-2.32,6.06-4.05,13.3-1.7,19.81-5.52-2.71-11.7-10.12-14.56-14.37-7.4-10.94,3.75-40.5,18.11-40.64Zm.48,62.09c-.04-.14-.07-.28-.1-.43,4.09,4.89,10.76,6.46,16.87,4.9,11.07,4.72,24.83,1.67,30.85-6.24,7.69-2.76,19.59-14.36,20.96-22.9,5.17,12.01-7.82,22.73-14.49,31.43-18.98,19.93-44.06,23.06-54.08-6.76Zm32.79,27.19s.08-.11.12-.16c11.2-3.17,21.29-12.46,29.23-21.01,3.92.54,8.3-.43,11.69-2.28-.85,16.53-5.78,25.57-21.66,31.53-11.55,8.15-25.72,8.53-39.33,7.67,7.46-4.29,14.49-9.05,19.95-15.75Zm-26.42,21.94c.73-.27,1.26-.63,1.64-1.03,7.55.62,15.11.61,22.69.28-5.22,17.67-14.81,34.27-26.21,48.76,1.31-6.43,1.96-13.01,1.84-19.56.44-9.35-6.17-20.06.05-28.45Zm-.6,55.24c13.67-16.6,25.08-35.85,30.9-56.66,1.86-.32,3.71-.76,5.51-1.36-.45,7.71,3.06,14.07,8.17,19.73-6.53,19.15-23.72,37.99-44.94,38.67.11-.14.23-.27.36-.38Zm43.13-50.27c-1.34-3.21-1.69-6.84-.98-10.24.99-.5,1.97-1.02,2.94-1.56,4.71,1.38,10.17.62,14.91.53,13.74,13.09,16.07,32.11,20.65,49.61-10.28-14.89-29.03-22.15-37.52-38.35Zm26.8-131.42c8.94,2.43,6.58,30.69,7.16,38.61-.02,7.36,2.04,14.84.46,22.13-2.58,7.68-8.66,15.49-17.01,17.05,5.3-6.93,11.43-15.51,8.35-24.59-1.19-2.55-2.22-8.17-5.93-7.13-1.42-9.76-1.26-21.32-9.48-28.27.69-5.17-4.59-9.4-7.3-13.37,7.85-1.76,15.57-4.83,23.74-4.43Zm-34.68-12.32c-.59.72-1.48,1.64-2.02,2.64-2.38-1.39-4.88-2.58-7.47-3.52,5.95-9.41,12.97-18.05,19.57-26.99-.57,10.07-3.58,20.04-10.08,27.87Zm4.87-30.07c-6.83,9.17-13.75,17.75-19.82,27.57-2.3-.54-4.65-.94-7.01-1.15,2.93-13.58,14.83-20.8,26.83-26.42Zm-35.48,26.18c-.68.02-1.37.05-2.05.09-2.96-10.91-7.57-21.19-10.27-32.26,7.49,9.01,11.98,20.42,12.31,32.17Zm-17.91-31.94c2.58,11.01,7.08,21.54,10.29,32.43-1.86.15-3.73.31-5.59.43-6.29-10.22-7.73-21.98-4.7-32.86Zm-17.19,47.08c4.94-9.36,16.43-8.31,25.46-8.95,10.59-1.05,21.75-1.54,31.61,3.11-14.01-2.81-26.26,6.04-34.38,16.72-16.35,2.1-21.98,20.99-24.72,34.86-8.03-11.74-2.77-33.93,2.03-45.75Zm-11.27,39.97c.43.83.97,1.88,1.42,2.84-1.81-.52-3.7-.79-5.61-.88-7.66-6.38-15.57-13.06-24.01-18.43,11.24,1.39,22.4,6.4,28.21,16.47Zm-20.17,2.62c-4.63-3.79-7.47-9.17-10.67-14.22,6.65,3.89,12.33,9.21,18.41,13.95-1.78.2-3.54.57-5.23,1.03-.53-.52-1.36-.84-2.5-.75Zm7.07,22.35c-7.32,1.95-15.28,1.33-22.7.18,9.84-1.84,19.52-4.46,29.19-7-2.03,2.14-3.95,4.36-5.77,6.67-.24.02-.48.05-.72.15Zm20.64-12.44c.16-.1.29-.2.43-.3.35.27.72.52,1.1.78-10.86,35.95.18,50.65,37.65,48.95,4.11,2.43,9.27,3.8,14.01,4.19-19.02,18.2-31.48,15.41-53.07,3.6-39.7-16.67-25.63-34.3-.12-57.22Zm-36.45,42.65c1.89-1.83,3.95-3.45,6.12-4.93.9,4.54,3.63,8.5,7.46,11.96-8.73,5.63-18.96,8.48-28.75,11.73,5.67-5.67,9.42-13.09,15.16-18.76Zm-12.09,23.52c10.37-3.43,21.26-6.48,30.19-12.96,2.79,1.93,5.94,3.69,9.15,5.28-15.44,9.62-22.48,9.99-39.33,7.67Zm41.54,2.59c1.77-2.17,3.67-4.26,5.76-6.12,2.83,1.48,5.68,2.93,8.58,4.25-5.37,5.16-18.17,20.82-23.31,31.28-1.46-10.09,3.36-21.37,8.97-29.41Zm-3.47,31.08c5.93-11.29,14.22-21.63,23.33-30.64,3.93,1.47,7.97,2.58,12.16,3.08-8.44,13.26-22.76,19.33-35.49,27.56Zm121.04,441.58c47.46,13.2,1.08,34.35-22.93,35.87-14.73,2.34-69.9,3.33-68.16-18.49,8.68-13.77,27.56-16.22,42.44-19.08-9.08,19.66,42.53,17.53,29.48-1.12,6.44.39,12.89,1.3,19.17,2.83Zm-28.93-134.9c-1.04,38.49-4,78.16-.54,116.26.79,3.36,1.54,6.72,2.48,10.02h0c.53,1.86,1.12,3.7,1.79,5.52h0c.79,2.11,1.7,4.19,2.81,6.21-5.25,4.87-15.36,3.9-21.41,1.05-.62-3.76,1.82-8.25,2.28-12.22,0,0,0,0,0,0,1.37-6.49,2.51-13.74,2.62-20.46-.7-33.76-1.97-67.91-5.02-101.64-.15-15.78-11.97-24.39-18.9-37.32,15.41,11.85,37.7,9.8,52.49-2.32-5.39,12.04-16.38,21.7-18.58,34.9Zm57-323.41c.95,49.37-3.15,98.77-5.58,148.08-1.71,38.45-5.18,77.5-20.17,113.36-12.52,34.1-55.66,45.81-74.09,9.87-29.21-81.88-34.69-169.42-37.07-255.64,9.71-5.01,18.75-11.45,25.42-20.19-1.89,8.68,2.4,17.56,2.12,26.53-.09,6.1-.73,12.2-2,18.17-1.14,5.85-5.39,12.36,3.95,12.87,23.62.74,43.85-18.53,51.79-39.96,7,6.47,15.45,12.15,21.17,18.17,5.19,4.44,7.98,11.39,13.32,15.43,5.7,1.91,9.75-11.7,10.94-15.86,4.43-17.34.08-36.59-12.38-49.62,6.51,4.42,14.92,6.31,22.67,6.07-.11,4.24-.15,8.47-.08,12.71Zm-.72-18.18c-7.28-.34-16.23-1.5-21.09-7.46,2.58-4.01,3.92-9.18,5.39-13.77,15.13,4.06,29.67,10.2,44.93,13.71-9.64,3.02-19.08,7.22-29.24,7.52Zm-8.27-37.2c17.31-1.43,28.12,12.95,38.98,24.33-15.23-3.23-29.55-9.72-44.62-13.53,1.46-3.61,3.37-7.23,4.91-10.6.25-.04.49-.1.73-.21Zm-6.27,123.53c2.02,34.28,1.3,68.61-2.2,102.75-1.32,14.19-3.1,27.88-5.77,41.77-.27,1.49-.37,3.89-2.47,3.54-3.35-1.68.87-9.93.66-13.35,6.99-44.59,8.8-90.04,6.28-135.05.19-2.3,3.67-2.07,3.49.33Zm-16.6,165.84c.05,6.19-13.35,33.41-9.39,33.5,3.76.14,4.28-8.66,6.13-11.47.64-2.68,11.47-27.57,3.25-22.03Zm3.22,1.37s-.05.11-.08.18c.06-.12.09-.24.12-.35-.02.06-.03.12-.05.17Z"/>
  </g>
</svg>