<?xml version="1.0" encoding="UTF-8"?>
<svg id="_Слой_2" data-name="Слой 2" xmlns="http://www.w3.org/2000/svg" viewBox="0 0 729.98 1004.2">
  <g id="_Слой_1-2" data-name="Слой 1">
    <path d="m155.04,667.16c.63-1.14,1.14-2.36,1.51-3.61,2.12.6,4.24,1.24,6.28,2.1-10.76,20.3,17.45,39.85,32.65,22.64,30.86,11.74,51.37,38.95,74.31,60.78,4.83,6.08,9.75,12.08,14.76,18.02-38.76-24.88-88.95-34.27-129.68-9.06-3.37,1.02-4.07,5.19-1.02,7,15.62,10.01,28.99,23.16,44.85,32.83,55.93,35.96,90.37-2.83,136.01,23.4,28.88,28.4,59.97,54.61,93.12,77.93-20.07-7.62-41.51-11.59-62.97-9.93-5.07-29.35-48.22-28.71-52.34.78-4.86.43-15.85,2.7-21.48,5.73-15.01-17.21-43.27,1.63-33.05,22.09-30.39,29.95-2.19,41.98-6.26,25.64.08.17.19.35.24.54-.28-.78-.86-1.42-1.59-1.8,1.47-7.2,5.81-14.11,11.41-18.99,15,15.63,41.42-2.02,32.81-21.86,5.62-2.53,11.68-4.18,17.8-4.77,3.47,31.7,50.28,30.91,52.76-.88,53.16-4.79,97.67,28.15,141.62,52.83-55.21-11.15-112.11-12.25-160.3,19.01-4.28,3.56-28.42,19.03-15.71,23.38,77.89,13.08,111.9,27.81,185.15-16.79,8.32-4.36,16.78-8.58,26.53-7.92,57.2,28.28,121.08,36.04,184.2,37.93,1.76.14,3.29-1.47,3.33-3.17-.61-6.53-19.09-2.63-25.68-4.37-31.51-1.95-63.51-5.1-94.34-12.71-18.33-14.18-32.68-34.14-36.1-57.43-5.87-51.4-11.94-111.25-63.62-137.5-5.08-3.14-19.48-15.85-17.45-1.44-.94,66.83,11.46,140.38,71.08,180.74-37.98-15.45-71.42-42.41-90.95-78.91,18.83-11.94,4.18-41.73-16.78-34.25-1.85-5.19-3.38-10.56-3.75-16.05,18.05-5.27,14.77-32.74-4.04-33.61.02-9.26,3.65-19.48,12.36-24.01,3.78.84,5.51-4.82,1.86-6.22-13.78-.76-21.34,19.5-20.69,31.13-17.44,5.17-14.09,32.51,4.05,33.41.27,6.35,2.37,12.59,4.49,18.58-15.96,11.92-2.66,38.87,16.51,33.61,9.7,17.96,22.71,34.17,37.97,47.84-35.1-19.05-68.56-41.03-100.09-65.57-29.85-41.57,8.08-96.19-14.88-140.88-1.74-6.22-32.84-51.43-37.09-36.35-2.25,45.9-26.19,92.79,4.13,134.98-19.58-22.03-35.65-47.58-46.14-75.25,21.43-6.04,17.24-38.62-4.99-39.12-.54-3.31-.98-6.43-1.04-9.99,20.28,1.13,24.08-28.98,4.2-32.99.75-6.99,3.92-14.5,10.39-17.92.37,4.38,6.58,4.93,6.73.15-.07-3.66-3.24-6.76-6.91-6.64-10.56,2.24-15.8,14.61-16.75,24.42-15.31,2.49-18.25,24.99-4.08,31.34-.32,4.15.48,8.33.99,12.45-21.19,6.23-17.16,38.42,4.96,39.13,6.25,17.62,15.12,34.35,25.54,49.9-41.27-42.77-78.83-89.55-109.25-140.56-7.89-8.93-2.62-20.72,1.3-30.36,22.15-41.55,43.45-86.99,13.2-130.79-4.48-6.99-10.34-11.08-12.14.06-15.23,44.19-41.64,69.8-26.27,120.67-21.19-34.19-34.2-77.7-23.7-117.53,23.52,3.77,33.25-30.39,11.31-39.62,1.41-3.75,2.76-6.72,4.87-10,15.77,4.98,26.76-17.73,12.98-26.94,3.96-5.25,12.72-9.09,18.24-4.08,8.68.7,4.06-9.67-6.71-8.86-3.92-.63-15.75,5.17-17.53,10.38-14.71-3.36-24.48,16.92-12.75,26.37-2.5,4.28-3.85,7.12-5.5,11.48-2.05-.18-4.09-.05-6.09.34,0,0,0,0,0,0-18.84,3.19-22.54,30.98-5.14,38.92-6.25,19.51-3.84,40.51-.52,60.44-22.42-49.28-36.31-102.2-45.73-155.57,8.02-18.43,28.93-24.42,43.04-37.17,29.68-25.93,46.73-53.65,43.51-94.26-1.07-4.39,1.02-20.69-7.12-15.12-9.64,16.33-28.52,23.4-42.45,35.33-25.65,20.05-37.69,46.68-41.93,76.08-1.84-17.1-4.85-34.62-1.63-51.73,5.88-23.74,9.95-48.64,23.12-69.7,20.58,6.44,33.8-22.81,15.43-34.06,1.46-3.32,3.73-6.94,6.13-9.93,14.52,6.22,27.84-13.5,16.59-24.61,4.77-5.62,12.48-3.64,18.97-.56,12.7-5.13-14.3-16.42-24.75-3.25-14.54-5.91-27.46,13.9-16.19,24.82-2.82,3.24-4.9,7.2-6.79,11.06-19.17-4.83-31.53,22.37-15.26,33.62-11.78,19.07-16.46,41.2-21.61,62.72-3.46-49.43-3.09-99.11,5.49-147.9,54.08-41.12,71.64-92.27,50.51-157.33-1.34-3.6-1.93-10.58-7.18-9.8-1.54.28-2.53,1.75-3.33,2.96-5.56,8.38-11.12,16.36-17.82,23.98-36.89,33.62-52.09,89.67-27.84,135.02-5.88,26.86-7.14,54.51-7.97,81.91-4.27-46.88-31.23-76.76-77.6-85.3-12.84-3.18-1.84,13.1-1.25,18.7,3.56,13.31,5.89,27.26,13.52,39.03,11.56,19.96,25.57,26.12,42.74,39,10.32,10.18,19.29,22.95,21.66,37.59-.05-.25-.07-.46-.07-.72,0,0,.02,0,.03,0-.02.56.11,1.13.37,1.65.27.57.69.98,1.17,1.25,1.81,37.58,5.31,75.08,11.15,112.27-4.97-9.53-11.06-18.45-18.84-25.86,12.61-18.52-12.87-40.09-29.1-24.7-3.52-2.26-7.33-3.93-11.38-5.41.16-.88.25-1.77.25-2.66.39-13.72-18.61-20.1-26.56-8.9-10.26-5.98-35.25,4.35-24.96,11.51,1.69.38,3.52-.49,4-2.27,4.36-4.79,12.4-5.58,18.29-3.25-3.59,15,17.68,24.35,26.37,11.67,3.63,1.07,6.83,2.55,10.07,4.5-9.71,17.3,12.93,36.62,28.49,24.32,36.69,36.91,33.36,93.92,53.16,139.56-19-40.19-49.92-85.99-100.42-80.36-4.44-.2-10.97.52-7.77,6.53,18.48,46.31,40.74,84.64,92.75,97.39,10.14,2.51,20.15,6.09,28.93,11.39,22.61,52.28,52.15,101.84,84.16,148.92-12.88-10.34-26.07-20.55-41.36-27.13,8.82-19.56-17.22-37.42-32.37-22.3-3.06-1.47-6.33-2.46-9.59-3.33-1.3-18.1-28.71-20.64-33.28-3.08-8.22-.01-25.07,10.06-17.79,18.31,2.45,1.57,5.78-1.11,4.77-3.84,2.23-4.79,7.44-6.96,12.36-7.88,1.11,16.11,24.36,20.98,31.83,6.67Zm134.59,242.37c-.75,18.57-29.12,16.41-27.08-2.06,2.1-16.84,27.54-14.9,27.08,2.06Zm68.98-13.43c-2.8,24.46-39.76,22.51-39.92-2.15.56-27.9,42.37-25.65,39.92,2.15Zm85.45-63.25c-13.21-4.03-6.73-24.67,6.41-20.43,13.36,3.93,6.8,24.82-6.41,20.43Zm19.5,53.11c-15.29,1.68-19.06-21.88-4.02-25.06,13.84-3.63,21.81,16.85,9.1,23.47-1.04-.09-2.33.55-2.81,1.16-.74.24-1.51.33-2.27.44Zm-166.66-189.82c-6.82-11.25,10.96-21.77,17.54-10.37,6.92,11.28-10.98,21.86-17.54,10.37Zm4.9,54.53c-17.04-4.13-10.14-30.79,6.76-26.14,16.95,4.18,10.09,30.71-6.76,26.14Zm-117.14-306.5c.69-11.95,19.52-9.53,17.2,2.2-1.79,10.43-18.09,8.34-17.2-2.2Zm-19.21,53.88c-17.23-25.25,29.6-35.22,24.14-5.14h0c-3.03,10.13-17.24,13.15-24.14,5.14Zm-10.03-301.96c1.2-11.25,18.85-9.1,17.3,2.11-1.24,11.18-18.8,9.05-17.3-2.11Zm-25.21,43.74c-3.64-15.72,21.19-21,24.25-5.16,3.47,15.61-21.08,20.83-24.25,5.16Zm20.67-118.81c-9.01,13.58-21.69,23.93-33.47,35.02,17.94-45.15,37.88-91.13,43.13-139.83,9.5,34.66,11.57,74.11-9.66,104.82Zm-37.23-51.75c9.77-20.36,27.37-34.99,40.38-53.13-5.3,47.47-24.7,92.2-42.13,136.28-10.57-25.17-10.47-59.41,1.76-83.15ZM47.42,349.47c-.76,10.68-17.49,9.3-16.49-1.36.72-10.71,17.54-9.32,16.49,1.36Zm37.1,32.47c-14.27,8.4-27.08-14.25-12.53-22.16,14.22-8.23,26.91,14.2,12.53,22.16Zm73.9-11.51c-9.46,8.13-21.1,13.47-30.66,21.41,18.83-39.93,54.88-69.21,72.86-109.23,2.3,37.55-13.48,62.87-42.21,87.82Zm.99-63.08c10.57-9.2,23.58-15.64,34.16-24.86-19.28,39.66-55.06,68.92-73.12,109.65,1.6-32.64,12.69-63.52,38.96-84.8Zm-73.44-98c5.84,13.93,7.96,29.58,10.27,44.56-12.75-34.48-36.63-63.61-64.92-86.66,24,6.59,43.34,18.27,54.65,42.1Zm-9.13,36.16c-30.25-15.7-42.67-40.39-48.94-72.71,31.88,26.61,49.91,51.46,64.13,87.73-4.37-5.63-9.16-10.78-15.19-15.02Zm60.34,283.6c-26.76-29.44-56.38-56.59-90.45-77.34,48.19-1.39,70.65,38.81,90.45,77.34Zm-14.92,12.04c-39.5-11.2-64.26-45.54-77.33-82.7,37.77,23.44,71.29,54.34,98.84,89.16-7.08-2.45-14.39-4.17-21.51-6.46Zm108.15,63.88c-5.3,12.29-12.87,23.61-17.32,36.22,2.92-41.89,24.51-82.56,21.06-124.8,15.62,27.99,9.68,59.84-3.75,88.58Zm-26.29-40.14c6.76-17.57,17.54-33.42,23.34-51.36,4.05,42.78-16.9,82.75-20.7,124.82-7.68-23.68-11.77-50.03-2.64-73.46Zm37.21,189.76c27.5,8.32,53.73,23.42,72.52,45.34-44.87-25.6-95.36-41.61-147.35-40.57,23.77-11.79,49.16-13.03,74.83-4.76Zm-79.18,8.16s0,0-.01,0c.03-.21.04-.42.02-.63.03.21.02.43-.01.64Zm115.61,44.02c-44.61,7.82-79.95-13.87-111.48-40.96,54.62-.4,96.95,14.07,143.3,39.04-10.46-1.14-21.42.63-31.83,1.92Zm246.32,153.19c-61.37,7.12-125.39,1.43-184.61,21.5,47.56-41.96,126.58-38.98,184.61-21.5Zm-100.76,38.58c-26.52-.18-51.91-8.74-78.04-12.35,54.71-16.77,112.95-13.43,169.45-18.79-28.4,15.08-58.33,31.62-91.41,31.14Zm138.15-114.31c4.48,27.69,4.29,51.92,16.83,74.1-44.24-44.54-44.91-111.28-72.38-164.69,38.2,25.01,47.05,42.7,55.54,90.58Zm-55.39-14.29c-6.35-23.85-4.4-48.93-6.01-73.47,29.2,58.83,30.38,134.59,86.05,178.18-40-21.47-69.29-60.38-80.04-104.71Zm-117.48-64.01c-1.59,12.17-3.19,24.83-2.15,37.14-10.81-23.57-14.65-49.53-16.26-75.24-1.34-20.41-.17-42.34-8.1-61.92,29.97,29.17,32.7,59.19,26.51,100.02Zm-40.81-32.77c1.42-19.82,7.99-39.01,10.35-58.79,9.61,47.97,1.72,101.04,29.1,144.68-22.77-22.39-42.33-52.59-39.45-85.89Zm-177.01-107.75c11.88-12.97,32.02,5.93,19.82,18.61-11.88,13.05-32.08-5.93-19.82-18.61Zm-20.21-4.7c-2.41,13.52-23.57,9.38-20.74-4.04,2.46-13.44,23.51-9.34,20.74,4.04Z"/>
  </g>
</svg>