<?xml version="1.0" encoding="UTF-8"?>
<svg id="_Слой_2" data-name="Слой 2" xmlns="http://www.w3.org/2000/svg" viewBox="0 0 714.1 809.76">
  <g id="_Слой_1-2" data-name="Слой 1">
    <path d="m709.57,758.25c-33.34,2.53-66.8-2.62-99.64-8.02-12.02-28.35-13.19-69.77-33.72-93.12-9.2-4.72-11.72,8.41-11.86,14.98-1.6,23.7,9.9,45.7,21.92,65.38-30.91-28.75-54.12-66.65-64.93-107.66,9.62-3.77,20.47-16.7,21.49-27.35-1.35-14.4-16.87-7.78-21.86.86-1.08-1.58-2.17-2.85-3.25-3.85,26.17-84.92-55-108.75-25.51-22.63-8.32-11.78-39.02-33.02-41.33-6.73,4.19,18.59,20.65,33.85,37.51,41.62-9.89,14.25,15.22,21.38,26.35,19.09,11.88,43.76,36.44,83.95,70.14,114.38-9.49-2.13-18.91-4.51-28.27-7.16-2.51-9.85-15.97-19.25-21.22-6.52-5.36-1.79-10.68-3.69-15.96-5.68-10.44-30.63-29.84-78.86-54.06-100.04-8.03-5.52-15.67.31-14.21,9.49-13.58,3.29-16.61,22.7-14.61,34.87-28.34-31.07-24.19-35.48-35.09-73.72,4.23-9.16,5.68-19.27,4.42-29.45-2.63-21.08-20.94-18.13-26,.69-3.16,2.29-3.94,6.67-4.59,10.36-12.15-25.67-24.31-51.63-33.36-78.66,53.64-58.82,5.67-86.65-8.23-29.74-6.64-30.76-8.63-62.42-8.16-93.88.07-.09.12-.18.18-.28,14.25-4.56,30.33-17.99,35.19-32.74,2-6.33-.49-15.65-8.58-14.75-12.54,2.66-21.74,13.79-26.13,25.34,1.78-31.91,4.65-64.01,12.05-95.13,9.86-10.94,21.6-23.96,23.63-39.36.82-5.34-1.07-13.18-7.76-12.88-20.76,4.45-27.42,31.7-19.71,49.31-8.04,31.56-10.6,64.32-12.71,96.77-23.33-59.72-58.18-4-.74,23.74-.36,33.29,1.87,66.78,9.28,99.3-7.13-7.7-15.45-14.89-25.65-17.75-10.51-2.86-15.94,5.93-12.19,15.24,5.97,13.63,30.08,31.01,45.5,29.11,10.28,28.94,22.61,57.25,36.48,84.63-.03.55-.07,1.11-.09,1.66-50.88-29.87-50.63,20.44-1.08,21.27l-.29-.02c.74.01,1.57.03,2.45.03,2.43,16.95,7.29,33.65,14.44,49.16-24.92-15.31-49.42-30.88-73.04-48.08-.26-.61-.73-1.21-1.51-1.72-17.25-40.75-20.01-90.2-47.73-126.91-33.55-29.76-5.19,55.49.07,64.96,6.25,14.46,13.29,29.03,22.17,42.23-33.37-28.48-64.12-60.28-91.83-94.3,6.92-38.28,19.64-80.3,6.64-118.59-3.71-8.85-14.61-12.32-20.39-3.38-4.88,8.12-6.52,17.77-8.22,26.97-3.79,26.81-.75,45.01,4.9,73.24-20.67-27.39-39.51-56.19-56.41-86.06,3.36-29.92,25.55-106.04,4.3-129.46-22.9-9.86-26.73,79.85-23.27,93.86-13.72-27.48-25.93-55.67-36.31-84.45.81-19.13,38.41-133.42,3.01-126.89-17.05,23.9-16.06,56.67-16.18,85-9.61-33.34-13.48-68.09-17.59-102.49C43.85,102.22,69.19-8.61,29.32.54c-7.66,5.04-9.13,15.44-10.78,23.81-2.83,30.61,1.01,62.04,12.65,91.49,3.98,33.05,7.24,66.38,15.5,98.69-68.12-132.49-58.86,1.31,9.46,33.52,9.11,29.71,20.94,58.54,34.15,86.79-16.46-15.41-35.88-35.93-59.64-36.6-7.83,1.39-7.81,9.92-3.37,14.97,22.59,25.1,50.74,48.43,82.53,60.39,18.68,34.8,40.09,68.23,63.76,99.93-22.93-12.33-48.91-28.32-75.79-25.66-16.72,6.27,1.13,22.89,10.09,27.44,27,13.67,56.96,22.98,87.15,25.63,25.4,30.92,52.89,60.18,82.82,86.72-14.78-4.74-99.57-36.9-95.82-6.03,3.96,7.61,12.53,11.62,20.24,14.49,29.1,8.44,61.97,14.07,91.49,4.8,28.54,22.79,59.44,42.55,90.54,61.72-26.2.35-53.58-1.5-78.85,6.46-6.41,2.42-16.46,8.7-12.29,16.7,5.36,7.9,28.78,8.38,38.14,9.17,21.63.81,42.88-3.88,63.56-10.02-2.25,25.96,35,22.14,50.6,14.02,7.41,3.95,14.87,7.73,22.38,11.35,5.59,5.64,11.25,11.22,17.02,16.69-16.49,9.63-83.36,21.4-82.55,40.84,16.39,28.48,79.45-14,99.82-25.2,10.14,8.74,20.67,17,31.73,24.53-72.98,4.03-22.13,54.59,20.58,12.64,8.18,6.16,85.22,37.77,88.73,28.14.01-1.31-1.13-2.3-2.39-2.27-29.06-5.01-57.06-15.38-83.07-29.24,2.05-10.21,2.32-21.03.86-31.36,12.29,3.52,24.72,6.61,37.31,9.25,9.47,7.33,19.59,13.82,30.35,19.26,18.21,8.98,37.59,17.01,57.95,18.95,4.3-.02,4.17-6.49,0-6.5-25-3.6-51.24-13.25-71.07-28.37,9.37,1.41,108.36,17.15,100.53,1.31-1.03-1.22-2.72-1.19-4.09-.73Zm-179.15-155.59c1.43-1.15,3.74-3.34,5.52-1.71,1.71,8.01-9.99,18.28-15.81,22.83.58-8.05,4.17-15.79,10.29-21.12Zm-14.32,9.57c-.37,1.14-1,3.05-1.55,5.19-10.14-5.1-5.33-23.74,2.7-7.81-.41.87-.8,1.74-1.15,2.61Zm-24.14-69.01c3.19-28.9,20.45-6.55,22.65,8.93,2.19,14.68,2.05,30.09-2.17,44.37-1.24-.24-2.41-.16-3.5.19-8.98-16.24-17.46-34.58-16.98-53.49Zm-23.03,46.25c-4.79-5.91-10.31-12.22-11.59-19.94-.02-9.29,11.41-4.65,15.83-1.25,12.95,7.98,20.1,22.77,30.91,32.45.02.03.04.06.06.08-1.35,2.27-2.07,5.21-1.88,8.29-13.13-2.22-24.58-9.8-33.33-19.64Zm25.52,30.79c-.95-.9-2.81-2.82-1.48-4.04,6.27-2.38,14.58,4.14,18.88,8.35-5.95,0-12.6-.39-17.4-4.31Zm-149.47-404.36c6.86-6.8,14.43-8.39,12.24,4.08-2.14,12.73-11.88,22.13-19.25,32.12-4.05-12.1-2.63-27.1,7.01-36.2Zm5.26,117.27c9.91-4.02,6.93,10.29,3.54,14.79-6.53,10.04-16.65,17.47-27.2,22.89,1.58-15.12,8.72-31.67,23.65-37.68Zm-53.54,15.22c-5.5-7.11-3.17-24.39,8.34-15.72,10.04,9.51,15.23,24.58,16.03,38.12-9.68-5.42-18.48-12.91-24.36-22.39Zm40.12,130.44c8.48-58.42,50.79-39.48,3.56,15.77-1.39-5.19-3.93-10.31-3.56-15.77Zm-36.12-1.34c-6.35-6.7-8.3-19.92,5.01-15.17,14.63,6.55,27.76,18.85,30.81,35.06-12.54.39-27.55-11.03-35.81-19.89ZM34.87,5.71s-.03.02-.11,0c.04,0,.07,0,.11,0Zm-9.25,15.77c1.37-4.72,2.89-15.21,8.87-15.75,20.69,6.91,4.31,85.64.65,103.18-8.53-27.17-14.08-59.12-9.51-87.43ZM5.38,164.24c16.16,9.83,35.94,54.65,44.81,72.79-23.47-17.29-40.65-43.77-44.81-72.79Zm70.76-19.11c13.65,15.81-7.23,85.73-11.24,108.79-3.8-32.96-5.84-80.24,11.24-108.79Zm114.9,337.92c-9.1-27.83-13.04-58.39-7.72-87.37,1.64-5.87,3.18-19.18,9.3-21.74,23.37,13.32,4.4,90.35-.02,113.93-.39-.48-.77-.97-1.15-1.46.47-1.09.43-2.42-.41-3.38Zm-78.3-125.57c-3.34-31.21-3.09-64.88,10.99-93.6,2.51-3.32,4.41,3.26,5.12,5.25,6.07,35.98-2.72,72.83-9.62,108.12-1.58-2.89-3.14-5.79-4.69-8.7-.4-3.68-1.4-7.36-1.8-11.07Zm-33.89-7.8c-103.05-76.77-12.57-43.7,22.86,8.47,1.2,2.35,2.43,4.69,3.65,7.04-9.25-4.09-18.14-9.62-26.52-15.51Zm68.2,134.56c-11.77-3.91-23.59-7.96-34.57-13.77-7.52-4.01-26.01-18.81-5.36-16.73,27.94,3.97,52.86,19.61,76.83,33.32,1.79,2.3,3.6,4.58,5.42,6.86-14.42-1.37-28.5-5.44-42.32-9.68Zm107.99,114.64c-15.16-1.07-60.95-5.36-67.11-20.69,26.09-10.93,70.41,12.06,97.49,18.46-9.94,2.3-20.21,2.87-30.38,2.23Zm290.39,131.36c2.5,1.44,4.27,3.65,5.59,6.17-3.77-1.1-7.54-2.26-11.27-3.47,1.13-2.34,2.94-4.14,5.68-2.7Zm-73.06-87.97c16.26,25.22,29.46,52.44,39.59,80.67-15.91-3.92-41.32-49.46-48.34-65.36-6.31-15.01-12.24-43.22,8.75-15.32Zm-6.41,59.8c-2.82-2.85-5.62-5.72-8.38-8.63,2.88-6.73,4.14-14.34,5.55-21.55,7.75,15.13,18.13,29.77,28.09,42.27-8.51-3.82-16.93-7.87-25.26-12.09Zm-25.54-20.51c3.1,3.46,6.26,6.86,9.47,10.22-.55.34-1.11.66-1.69.97-9-4.88-17.91-9.95-26.74-15.14,6.55.41,12.86,1.54,18.96,3.95Zm1.47-7.04c-2.72-10.64-2.07-30.91,9.88-34.7,5.25,24.39,11.7,22.67,2.45,50.08-3.96-4.23-7.86-8.52-11.7-12.87-.14-.83-.59-1.71-.64-2.5Zm-7.14.58c-4.31-1.09-9.13-1.88-13.93-2.09-2.29-6.99-3.47-14.3-5.09-21.48,6.09,8.05,12.43,15.92,19.03,23.57Zm-33.5-108.65c1.27,7.63.56,15.64-1.86,23.06-3.09-8.06-5.54-19.35-14.47-22.6,4.03-10.96,13.44-15.89,16.33-.47Zm-52.62,31.53c-3.5-2.36-10.74-8.06-7.71-12.76,10.61-6.14,24,2.41,33.35,8.05.03,3.86.24,7.71.63,11.55-9.17.11-18.76-2.35-26.27-6.84Zm33.32,10.93c-1.68-11.84-2.33-24.25,1.51-35.73,5.52,3.95,9.15,15.46,11.85,25.24,0,0,0,0,0,0,.54,1.93,1.03,3.79,1.5,5.52,0,0,0,0,0,0,6.76,22.92,11.66,46.07,17.26,69.23-.04,0-.07,0-.11,0-4.58-2.74-9.15-5.52-13.7-8.32-9.04-17.74-15.26-35.19-18.31-55.94Zm-118.35-93.27c-2.64-10.98-6.53-22.39-5.58-33.76,29.59,30.23,31.52,77.05,45.95,115.15-18.96-23.88-31.67-52.32-40.37-81.4Zm80.12,172.74c-8.77.6-66.45-.76-35.13-13.55,28.03-7.59,58.03-5.7,86.85-5.36,3.02,1.94,6.05,3.87,9.09,5.77-19.8,6.18-40,11.89-60.8,13.14Zm94.09,8.75c-6.69,2.31-13.71,3.81-20.84,3.57-8.78.25-23.6-7.85-15.97-17.61,3.52-1.17,7.11-2.05,10.51-3.52,9.51,5.8,19.11,11.33,28.8,16.6-.84.32-1.67.63-2.5.95Zm15.16-1.81c.06-.04.12-.07.18-.11.13.14.27.28.41.42-.2-.1-.39-.21-.59-.31Zm27.02,20.69c5.35,2.43,10.72,4.79,16.12,7.06-2.13.76-4.27,1.49-6.41,2.23-3.27-3.07-6.51-6.17-9.71-9.29Zm-9.47,37.05c-16.69,8.34-34.14,18.85-53.48,17.51-36.49-6.06,67.13-33.93,73.21-38.54,0,0,0,0,0,0,1.59-.63,3.21-1.16,4.83-1.72,0,0,0,0,0,0,3.18-1.24,6.63-2.04,9.6-3.72,1.81.73,3.63,1.44,5.44,2.15-11.96,9.98-25.84,17.15-39.6,24.33Zm43.89-19.45c1.15-.7,1.82-1.55,2.14-2.42,5.76,2.16,11.55,4.23,17.37,6.2-1.25,8.43.3,18.57,3.81,27-11.07-7.41-21.59-15.64-31.73-24.37,2.87-2.02,5.68-4.15,8.4-6.41Zm1.28,58.38c-10.17-.34-21.04-8.48-7.56-15.29,10.26-4.75,21.47-5.29,32.73-4.94,2.02.74,2.93,4.49,5.43,3.39,1.33.79,2.66,1.56,4,2.33-9.53,8.41-21.65,14.97-34.59,14.51Zm38.38-46.61c1.44,9.49,1.19,19.33-.45,28.79-13.85-5.18-16-22.26-15.43-35.34,5.13,1.69,10.28,3.29,15.46,4.83.15.58.29,1.16.41,1.73Zm18.85-82.66c17.33,24.46,18.98,58.5,29.62,86.15-.02,0-.05,0-.07-.01-16.63-20.96-39-59.02-29.55-86.14Z"/>
  </g>
</svg>