<?xml version="1.0" encoding="UTF-8"?>
<svg id="_Слой_2" data-name="Слой 2" xmlns="http://www.w3.org/2000/svg" viewBox="0 0 835.3 112.02">
  <g id="_Слой_1-2" data-name="Слой 1">
    <path d="m831.77,71.55c-16.91-1.77-38.08-6.35-49.41,10.18-24.83,6.17-51.05,6.58-76.32,3.03,9.99-1.61,20.7-3.46,29.07-9.74,2.29-1.32,10.54-12.03,4.85-12.61-2.17.66-4.31,1.66-6.65,1.82-29.85.11-25.34,16.68-46.88,16.92-20.58-4.51-40.67-11.1-60.55-17.99,17.77,3.49,34.46-4.65,48.25-15.19,12.41-5.51-1.52-6.29-7.11-7.05-13.16-2.1-26.29.81-38.93,4.63-9.69,2.35-19.42,8.62-29.72,7.2.02,0,.05.02.07.03-.64-.22-1.21-.08-1.62.25-18.71-6.38-38.3-9.2-57.92-10.93,20.92-2.46,38.11-15.22,52.27-30.07,2.12-1.16.64-4.19-1.52-3.21-29.75,11.38-56.26,5.49-82.11,32.08-13.17.31-26.22,3.01-38.44,7.96,12.88-10.78,23.43-24.32,30.01-39.83,5.47-11.76-1.52-7.95-7.45-2.44-23.03,18.89-53.44,31.65-61.46,63.36-1.87,1.51-20.57,14.79-10.58,13.41,3.88-3.67,7.98-7.1,12.26-10.28.69-.06,1.35-.52,1.61-1.16,5.78-4.18,11.87-7.92,18.2-11.24,19.42-5.68,35.21,9.16,53.77,12.08,10.27,1.15,22.22,1.41,31.52-3.36,1.2-2.23-1.48-2.86-3.15-2.99-16.3-5.74-31.86-19.56-49.6-18.84,16.37-4.24,33.53-3.65,50.25-2.35,27.44,4.16,31.5,40.57,66.98,42.76,4.59.32,3.62-3.48,1.07-5.65-4.22-5.46-7.3-11.7-11.81-16.96-5.37-6.66-12.53-11.9-20.39-15.62,21.9,3.94,42.6,13,63.72,19.88,9.18,3.75,13.82,12.35,18.59,20.5,5.93,10.58,16.14,16.6,27.84,18.91,2.06.7,4.65-.25,3.55-2.77-5.94-8.86-9.13-19.92-17.9-26.59,21.06,5.88,42.55,10.13,64.41,10.67,15.22,3.19,24.3,20,40.78,19.54,8.21.27,16.68-2.83,4.18-7.48-6.66-4.12-12.31-10.16-19.81-12.74,8.8-.75,17.55-2.1,26.13-4.24,14.77,1.79,30.48,3.04,43.87-4.97,2.54-1.48,15.81-8.76,6.07-8.92Zm-129.9,9.34c10.19-11.07,21.5-12.35,35.41-13.88-6,11.17-25.3,13.48-36.88,14.83.5-.3.99-.62,1.48-.95Zm-54.79-36.31c8.2-1.5,16.8-.79,25.01.55-18.33,15.42-40.37,19.18-63.04,10.37,12.62-3.9,24.85-8.91,38.03-10.92Zm-211.94,21.31c9.97-28.02,39.42-40.03,60.71-58.14-7.75,19.28-22.99,34.39-39.22,46.54-7.55,3.56-14.85,7.66-21.77,12.34.09-.25.18-.49.27-.74Zm28.65-10.88c23.15-10.94,45.08,2.78,65.26,13.51-28.67,7.75-42.38-11.7-67.96-12.44.32-.15.63-.3.95-.44.69.13,1.21-.3,1.74-.63Zm85.69-3.75s0,0,0,0c.01,0,.04.03.07.05-.02-.01-.04-.03-.06-.04Zm38.64,16.45c4.41,5.12,7.37,11.26,11.51,16.58-23.04-2.06-33.88-24.26-50.1-37.23,14.63,2.32,29.13,8.95,38.6,20.65Zm-33.45-47.17c9.38-1.52,18.99-2.4,28.09-5.38-17.65,20.07-44.29,25.48-69.96,25.41,11.89-10.14,26.46-17.22,41.87-20.03Zm124.55,84.64c-20.17-4.56-22.24-16.99-32.83-31.03,21.23,6.71,22.93,12.68,32.83,31.03Zm92.97,1.23c-12.52.85-20.46-9.68-30.21-15.4,17.73.5,19.8,7.25,33.21,15.24-1,.11-2,.15-3,.16Zm20.58-23.51c-2.15-.2-4.31-.34-6.46-.5,10.05-12.81,27.76-9.47,41.85-7.56-10.2,7.24-23,9.66-35.39,8.05Zm-412.46-2.45c-3.49-2.98-7.21-5.73-10.8-8.61-7.7-9.23-9.65-21.8-15.13-32.39-4.89-9.92-11.96-19.15-20.14-26.62-5.27-4.99-11.78-8.3-18.01-12.29-1.63-1.66-4.11.82-2.53,2.44,11.67,18.34,16.45,39.62,33.35,54.22-10.89-5.9-22.45-10.75-34.5-13.62-25.04-20.28-23.86-31.5-59.41-42.82-1.74-1.4-3.95.92-2.45,2.54,3.15,2.76,5.74,6.12,8.51,9.25,8.79,11.49,18.1,21.13,31.02,26.86-6.98-.94-14-1.56-21.03-1.77-11.35-.4-22.83,2.91-33.89-.39-11.14-3.85-20.67-12.26-32.89-13.11-2.42-.49-18.74-1.29-15.02,3.84,3.68,1.69,7.48,3.33,11.02,5.41,6.47,3.88,13.19,7.81,20.49,9.69-15.17,3.08-30.09,7.52-44.53,13.11-1.86-.88-3.41,1.43-5.19,1.84-.5-.97-1.66-.98-2.62-.77-8.82.7-15.06-7.25-23.14-9.37-3.94-1.64-21.12-1.52-19.56,4.89,9.14,4.49,17.41,13.19,28.33,12.63-9.42,4.13-18.63,8.8-28.38,12.14-.82-.3-1.53.07-1.9.66-4.89,1.62-9.87,2.93-14.86,4.21-12.96,3.39-17.07-11.74-31.01-12.63-2.88-1-21.55.66-16.35,5.8,8.7,2.11,15.49,8.09,23.66,11.45-7.89,1.1-15.88,1.39-23.84,1.24-17.49-7.31-38.34-8.91-56.3-1.94-1.53.51-4.1,1.58-2.93,3.59,4.39,2.39,10.14,1.12,15.07,2.76,14.61,4.51,30.64,8.8,44.44-.9,16.96.39,33.9-2.15,50.31-6.49-8.24,5.85-13.64,14.41-17.61,23.54-.8,1.03-1.08,2.46.27,3.19,4.29-.36,8.33-4.27,12.48-5.91,10.09-4.95,17.03-14.14,19.29-25.16,22.19-8.15,43.03-19.75,65.72-26.69-11.59,7.32-19.17,19.92-22.03,32.87,1.56,2.67,4.45-.84,6.34-1.55,11.32-6.17,20.66-15.61,26.38-27.18,1.9-4.11,5.48-6.91,8.71-9.63,20.26-4.86,40.86-7.67,61.53-7.48-17.53,3.37-33.78,14.7-40.51,31.32.76,3.69,9.46-2.91,12.43-3.16,6.35-2.38,12.51-5.12,18.45-8.43,10.64-5.84,19.02-15.6,31.48-17.64,19.59,2.61,38.48,8.67,55.64,18.78-28.71-11.69-46.21-2.87-69.19,14.5-6.04,5.38,15.45,4.02,18.09,4.62,25.9,1.58,47.54-20.19,72.45-4.27,3.95,1.51,8.8,8.68,12.5,8.77,2.82-1.82-.6-3.89-2.23-5.31ZM258.78,6.7c18.67,5.06,30.95,19.41,43.46,33.16-20.19-4.81-31.09-17.75-43.46-33.16Zm-129.87,45c15.9-5.15,20.36,5.84,33.47,8.82-14.41,4.69-22.02-2.14-33.47-8.82Zm-63.35,22.21c11.9-4.07,21.49,4.17,30.34,10.78-11.74,2.42-20.1-7.17-30.34-10.78Zm-25.11,20.38c-10.19.46-19.15-4.78-29.27-5.93-1.15-.61-.07-.9,1.01-1.18,14.27-3.45,29.44-1.83,43.2,3.2-4.68,2.34-9.68,3.59-14.93,3.91Zm57.22,11.88c4.51-10.11,12.67-18.15,22.59-23.09-2.68,11.82-12.26,18.16-22.59,23.09Zm93.98-39.39c-5.03,6.28-11.27,11.49-18.28,15.44,4.1-13.3,14.29-24.38,27.19-29.63-3.27,4.47-5.43,9.77-8.92,14.19Zm2.78-39.45c14.77-1.62,26.48,8.17,39.47,13.12-16.2,2.21-25.62-6.02-39.47-13.12Zm69,28.51c-8.26,5.13-17.07,8.7-26.22,12.15,8.69-16.09,27.62-23.5,45.13-24.85-7.01,3.08-12.4,8.79-18.92,12.7Zm66.72-28.2c-2.96-6.63-5.73-13.37-9.36-19.75,21.4,10.51,32.17,34.69,39.73,56.07-12.83-9.48-23.78-21.67-30.37-36.31Zm-5.65,45.68c-12,4.22-25.06,5.23-37.68,3.82.08,0,.15.01.23.02-.4-.03-.76-.06-1.18-.1,18.44-18.28,44.06-21.04,67.06-9.49-9.87-1.49-19.27,2.65-28.42,5.75Z"/>
  </g>
</svg>