<?xml version="1.0" encoding="UTF-8"?>
<svg id="_Слой_2" data-name="Слой 2" xmlns="http://www.w3.org/2000/svg" viewBox="0 0 992.72 312.62">
  <g id="_Слой_1-2" data-name="Слой 1">
    <path d="m975.78,12.08c-12.11,5.32-16.3,17.65-12.78,29.78-26.56,28.62-61.09,50.2-97.45,70.12,12.4-11.12,23.62-23.86,31-38.89,12.29-.62,28.03-28.12,11.86-33.24-8.65-.05-13.24,9.71-15.49,16.83-.7,7.22-2,14.09-6.34,20.14-7.43,12.09-17.2,22.57-27.88,31.86-5.34,4.62-10.98,8.92-16.82,12.88-.9.58-1.42,1.54-1.54,2.55-3.88,1.71-7.79,3.36-11.7,4.94,4.74-4.99,32.86-36.22,29.16-40.87-3.92-4.45-9.34,2.4-13.43,3.75-22.48,12.79-50.39,23.04-59.18,49.95-3.72,1.01-9.15.8-11.42,4.34-30.51,6.94-62.09,7.69-92.97,2.89,34.39-4.91,67.23-17.62,97.03-35.29,11.68,1.85,41.45-21.49,26.58-33.09-15.28-8.78-35.91,14.19-33.58,29.15-23.03,12.61-47.25,23.68-73.12,28.89,25.96-13.43,49.35-35.91,57.61-64.57.92-7.43-6.35-5.56-10.97-4.49-29.17,4.56-66.67,7.01-83.61,34.44-6.74-26.15-36.29-47.31-51.27-20.85-2.84-15.02-20.53-22.08-33.38-12.77,9.25-8.76,20.07-16.37,27.18-27.08,7.59-4.04,17.78-6.64,20.42-15.93,3.49-8.38-3.18-16.72-12.03-13.04-8.61,4.01-16.14,14.3-13.77,24.05-4.87,8.94-13.76,14.94-20.96,21.9-8.6,7.62-17.16,15.33-26.58,21.94,3.18-8.05,4.63-16.66,5.28-25.26,2.48-7.35-3.74-78.08-18.13-50.96-11.93,22.7-29.47,46.83-24.48,73.81-20.02-10.56-43.19-4.91-59.77,9.4-2.3-20.9-11.62-41.23-27.87-54.87-7.88-4.77-8.62,16.22-11.18,20.87-3.97,12.93-6.4,27.64-4.3,41.29-8.08-14.72-13.58-30.36-18.94-46.42,9.35-5.3,5.16-40.7-6.49-43.42-19.8.77-15.39,37.57-.69,43.98,5.04,15.21,10.29,30.44,17.62,44.72-8.29-4.16-20.13-3.85-26.59,2.72-7.83-21.54-23.48-38.43-43.22-49.6-14.26-8.02-37.86-20.69-53.9-13.7-2.65,3.17.38,6.89,1.89,9.85,14.61,25.9,19.69,60.25,44.82,78.51-28.23-12.53-52.68-32.87-70.15-58.29,1.07-17.57-4.76-31.72-12.57-46.03-30.23-43.01-53.85,28.46,6.67,49.7,16.43,24.4,39.28,44,65.43,57.38-12.28-.23-24.57-.84-36.83-1.62-.03-.09-.06-.18-.1-.28,1.72-4.56-5.2-6.52-7.46-9.65-13.28-13.38-22.49-30.65-37.24-42.81-4.14-3.7-41.98-31.37-41.06-17.39,12.17,20.58,18.32,45.83,38.96,60.21-18.72-8.63-35.91-21.18-50.33-36.23-.99-3.84-2.73-7.56-3.79-11.41.2-1.29-.38-2.63-1.44-3.4-12.2-35.01-46.74-21.05-16.98,7.71,21.96,13.7,38.53,34.96,62.62,46.41-30.14-5.41-59.77-13.48-87.87-25.82-9.29-18.13-11.21-36.99-31.73-47.71-4.48-2.44-16.16-8.83-16.17.55,2.41,6.2,7.03,11.42,10.2,17.29,3.48,6.09,7.37,12.12,11.79,17.65-23.25-11.81-45.03-26.03-66.31-40.94.01-10.09-17.02-30.34-26.57-34.66C-14.32-3.93,5.16,40.95,33,42.11c12,8.62,24.23,16.92,36.79,24.71-9.44-1.43-19.16-1.73-28.43.64-7.43,1.33-10.38,8.92-1.73,11.23,17.48,4.37,38.91,15.66,55.13,2.61,14.97,7.22,28.89,15.96,44.52,21.76,13.95,3.79,27.54,9.64,41.73,13.03-20.06-1.07-40.2-.84-60.12,1.6-9.26-2.03-25.97-.98-34.47,3.41-26.7,20.66,23.68,35.81,32.46,4.1,26.95-3.93,54.34-3.27,81.44-.65-6.4.7-56.38,16.88-34.12,23.69,32.15.19,69.17,6.08,94.78-18.05,10.4.98,20.81,1.68,31.22,2.12-7.48,3.41-14.47,7.95-20.83,13.15-16.09,11.61-25.44,31.73-43.44,40.45-3.99-.77-6.75,4.67-2.77,6.71,36.29,9.24,79.38,22.59,111-5.47,1.26,2.48,2.68,4.92,4.34,7.12-20.62,11.85-23.52,37.32-33.38,56.9-.74,1.9-2.32,3.66-1.89,5.82,2.45,7.27,13.47-1.74,17.65-3.64,18.61-11.65,33.44-29.88,41.2-50.38,1.88-.13,3.76-.39,5.62-.74-12.37,23.25,24.8,44.52,44.19,34.79-3.32,11.92-4.09,24.52-8.62,36.13-.61,5.34-12,19.4-2.84,20.84,18.38-5.45,33.49-21.32,43.07-37.43.95,15.25,10.29,28.32,17.39,41.45,3.66,6.92,8.42,1.37,8.72-4.12,4.3-14.23,7.85-28.71,8.34-43.64,6,16.59,16.6,30.44,29.83,42.12-6.92,8.88,5.73,18.62,14.01,20.1,20.98,2.45,4.89-27.01-7.92-23.99-16.51-14.64-23.18-25.04-31.25-44.73,9.84,1.72,20.38,1.04,30.53-1.54,23.6,2.07,48.6-5.78,65.35-22.68-.18,13.1,5.8,24.91,11.33,36.41,1.95,4.58,3.77,9.24,5.24,14,.46,1.78.7,3.89,2.56,4.77,5.16,1.9,8.18-5.04,10.95-8.29,12.68-19.57,14.65-45.02,8.01-67.08,11.38,9.79,20.4,21.94,28.45,34.56-.59,9.74,4.03,21.27,12.41,25.97,21.76,7.47,8.66-27.49-5.34-27.88-8.98-14.3-19.1-28.18-32.22-38.98,7.11-.93,15.14-3.47,21.62-6.95,14.69,53.2,59.65,59.65,104.77,75.72,3.33,2.01,6.95-2.73,4.24-5.44-13.61-43.41-46.04-88.01-92.3-99.13-.04-.77-.12-1.53-.22-2.29,46.47,7.36,91.79,23.66,131.98,48.17.17,10.75,6.86,21.13,16.84,25.31,6.61,2.92,16.2-.31,16.28-8.43-.8-12.1-15.71-23.9-27.68-21.79-27.22-16.62-56.85-29.97-87.61-39.16,25.27,1.09,50.14-1.88,74.36-7.88,27.05,13.63,68.51,38.73,97.86,20.94,2.28-6.52-6.93-6.94-11.11-8.44-20.47-5.37-35.3-15.31-52.55-20.17,26.47-8.42,54.56-10.31,82.17-8.43-3.15,6.95,21.86,12.37,26.37,10.02,23.47-11.74-15.73-27.45-26.19-17.01-19.02-1.28-38.28-.82-57.12,2.25,44.53-21.19,88.18-46.2,122.82-81.42.66-.08,1.3-.32,1.84-.75,1.26-.04,2.53-.85,3.04-2.08,7.34-5.47,14.59-11.57,19.31-19.53,6.77-11.22-3.94-20.35-14.82-14.43Zm-76.82,52.52c.29-6.15,2.65-15.22,8.82-17.78,1,6.76-2.74,14.53-8.82,17.79,0,0,0-.01,0-.02Zm-107.86,23.07c2.88-1.46,8.44-3.75,10.28.15.49,8.42-15.93,18.37-23.34,19.77-.17-.11-.35-.19-.54-.27,1.06-8.17,6.57-15.53,13.59-19.66Zm-175.92-66.95c3.37-.77,2.42,3.3,1.69,5.23-1.92,5.24-7.94,6.87-12.47,9.21.47-6.21,4.92-12.28,10.78-14.43Zm-388.57,24.98c-23.03-26.57.9-54.31,16.45-7.48-6.32-6.1-17.28-1.52-16.45,7.48Zm12.92,9.91c-2.15-2.55-9.99-11.98-3.42-13.2,6.2,1.51,7.21,12.23,9.6,16.87-2.25-.88-4.58-1.79-6.18-3.67Zm-86.61-6.06c8.63.2,12.52,11.86,16.15,18.11.09,1.16.37,2.37.76,3.57-7.61-3.99-16.99-12.61-16.92-21.69Zm-31.31,36.06c-11.69-9.94-18.59-23.98-26.83-36.65,15.28,6.54,21.78,21.84,26.83,36.65ZM7.06,10.36c7.2-3.72,21.94,18.58,24.97,24.61-11.52-2.43-24.29-12.12-24.97-24.61Zm70.59,70.03c-10.73-.04-20.86-4.14-31.09-6.95,13.52-1.92,27.44.31,40.27,4.75-2.83,1.47-6.01,2.11-9.18,2.19Zm16.83,56.21c-8.74.47-12.19-6.28-3.15-10.15,6.57-2.42,13.79-2.52,20.72-2.69-2.11,7.61-9.84,12.72-17.57,12.85Zm425.42,159.37c2.78,2.61,6.97,5.71,7.16,9.75-4.84-.12-11.01-3.34-12.27-8.31,1.83.4,4.09.45,5.11-1.44Zm144.27-41.89c-6.32-1.61-8.35-9.35-9.85-14.91,5.93,2.12,8.72,9.18,9.85,14.91Zm149.94-31.61c-8.17-1.25-14.14-9.61-14.95-17.51,7.26-2.75,27.57,16.61,14.95,17.51Zm-215.08-95.11c-.52-.53-1.13-.91-1.79-1.14,1.21-.78,3.09-1.58,4.28-.35h-.09c.98,1.74.41,4.34-1.48,5.21.43-1.27.07-2.71-.92-3.72Zm64.25,18.52c-2.49-.54-4.98-1.07-7.47-1.57-.16-.21-.31-.41-.47-.61,2.99.47,6,.83,9.02,1.06-.44.29-.8.68-1.07,1.13Zm40.81-18.83c-15.56,11.42-35.58,13.21-53.93,8.53,34.22-7.24,65.91-27.86,92.78-49.21-8.84,16.79-22.7,30.76-38.86,40.69Zm-41-11.58c11.86-31.36,50.26-33.9,78.84-38.23-22.58,21.52-51.55,37.57-80.81,48.42,1.62-2.84,1.44-6.6,1.97-10.19Zm-29.71-36.84c13.26,7.95,22.16,23.65,22.49,39.16-1.03,16.96-34.74,8.82-46.29,10.29,1.05-4.65-1.15-9.86-4.45-12.57,6.3-13.13,7.19-41.6,28.26-36.88Zm-31.57,3.71c4.37,10.31.19,20.84-4.1,30.36-7-.38-14.79,4.19-17.44,11.41-10.07-5.69-20.9-19.59-14.88-31.62,5.55-13.05,28.33-29.85,36.42-10.15Zm-23.04,53.23c-.42-1.7-.91-3.39-1.46-5.07.97.54,1.87,1.02,2.55,1.44.11,1.23.47,2.44,1.06,3.49-.76-.16-1.49-.13-2.15.14Zm-34.87,31.83c.48-10.69-3.46-22.04-13.09-27.3.4-1.82.24-4.13-.02-6.28,3.55-.48,3.12-5.56,3.69-8.31,16.29,4.68,17.2,28.75,12.95,42.89-1.29-.77-2.49-1.06-3.53-1.01Zm-57.81,32.5c-.65-1.71-2.71-2.88-4.48-2.3-.49-.34-.91-.68-1.27-1.01,15.32-2.29,31.71-7.54,34.42-24.2,6.97-7.54,12.72-17.01,11.05-27.03,31.71,21.33-9.47,69.21-39.72,54.54Zm-50.34,7.21c-18.21-11.05-17.5-36.54-9.76-53.99,1.37-.66,2.18-2.18,1.96-3.72,4.99-8.68,12.63-15.76,22.12-19.23-3.61,10.39-5.84,23.29,3.67,30.72-3.31,14.9,1.14,31.98,17.81,35.41,1.06,2.79,2.91,4.4,4.99,6.1-10.83,9.73-28.38,13.1-40.79,4.69Zm-21.61,61.48c4.73-18.09,5.3-39.17,20.44-52.15.85,0,1.56-.3,2.12-.78.94.41,1.92.78,2.92,1.13-7.11,17.78-16.14,35.07-25.49,51.8Zm-53.22-72.46c-9.51,1.06-15.89-5.41-19.27-13.61,1.21-2.08-.27-4.57-2.34-5.1-11.81-21.97,4.57-49.18,30.08-37.63,6.61,8.96,17.4,13.57,26.76,19.17-.17,2.01-.07,4.01.32,5.87-2.51,4.02-2.83,8.39-1.6,12.76-7.8,10.99-18.42,18.34-33.94,18.54Zm43.82-21.22c3.11,2.4,6.53,1.29,9.18-1.19,1.47,8.51-6.32,11.99-11.18,4.55.69-1.1,1.36-2.22,2-3.35Zm12.94-19.73c-.29-2.05-1.07-4.03-2.26-5.72,1.73-1.83,3.96-3.15,5.16-1-1.1,2.17-2.06,4.42-2.9,6.71Zm74.34-49.83c-.05,0-.1,0-.16,0,17.16-.68,33.57,14.47,31.92,32.15-.28-.05-.56-.1-.84-.15-3.86-7.01-13.55-11.31-21.73-9.77-17.82-5.83-38.17,9.68-45.06,25.84-8.49-21.99,12.93-47.88,35.9-48.06,0,0-.02,0-.02,0Zm22.76,55.51c-.17.47-.42.94-.74,1.41-3.03-9.71-13.2-16.02-22.98-8.4-2.53.18-4.82.92-6.81,2.06,1.43-31.11,49.08-26.7,30.53,4.93Zm-39.42,28.86c-30.73-5.96-11.59-51.76,12.22-55.46-7.5,6.63-13.28,17.9-8.89,27.05-3.38,5.51-3.14,12.89,3.01,17.99-.21,3.54,1.53,7.1,4.36,9.25-3.54.94-7.23,1.44-10.7,1.16Zm19.07-27.07c-.8.17-1.59.42-2.33.75.38-.93.96-1.78,1.62-2.53,1.37.19,2.7.68,3.78,1.55-1.01-.06-2.03.03-3.07.24Zm4.24,10.05c-1.15,2.04-3.98,3.53-6.01,1.81,1.89-.89,3.94-1.46,6.01-1.81Zm-13.64-4.37c.18.62.41,1.21.69,1.78-.09.27-.18.54-.25.82-.34.34-.66.7-.95,1.08-1.41-2.21-1.38-5.14.13-7.29-.08,1.22.04,2.45.38,3.61Zm9.71,16.24c-.71-.01-1.42-.15-2.11-.33.88-.37,1.59-1.11,1.92-2.01,11.29.14,16.58-16.06,9.01-23.69,8.95,7.65,3.21,25.73-8.82,26.03Zm57.97-9.88c7.27-19.72,5.99-50.12-17.82-56.4-.01-5.53-.81-10.95-2.47-15.98,1.16-.2,2.31-.34,3.43-.41,1.21,1.06,3.16,1.07,4.41.08,12.53.71,19.88,10.91,26.25,20.48,13.77,26.35,5.68,54.71-10.82,76.33,1.14-8.25.37-16.73-2.97-24.11Zm35.09-47.86c-.15-.38-.37-.73-.65-1.04,1.38-2.67,3.98-4.73,6.75-5.76-2.66,1.55-4.98,3.88-6.11,6.8Zm-28.16-42.57c2.03-1.55,4.03-3.15,6.01-4.77-5.42,6.52-9.08,13.16-9.19,20.94-3.65-2.34-7.69-4.05-11.97-4.89,4.21-4.38,10.43-7.19,15.15-11.28Zm-15.19-5.9c-1.4,3.85-3.02,7.62-4.81,11.31-2.35,1.21-5.21,2.27-4.9,5.22-.84.03-1.68.09-2.51.21,9.2-27.72,11.1-47.59,14.22-73.64,4,18.51,3.52,39.65-1.99,56.9Zm-23.5-20.62c2.88-14.85,11.51-27.57,18.76-40.74-2.08,24.84-5.9,49.91-13.33,73.73-9.29-8.16-7.65-21.89-5.43-32.99Zm-4.84,32.48c8.41,6.59,11.85,17.05,11.68,27.92-.4.06-.82.12-1.19.24-15.26-29.19-59.39-24.09-73.3,3.78-5.77.76-10.16,3.08-14.78,5.84,4.11-33.94,48.22-60.86,77.6-37.77Zm-69.95,6.07c-4.12,4.61-7.59,9.61-10.25,15.14-3.28-20.74-3.95-41.97-6.42-62.84,10.45,13.14,17.51,30.71,16.67,47.7Zm-23.44-45.35c2.36,23.98,4.03,47.98,7.56,71.85-1.54-2.01-3.28-3.84-4.87-5.82-13.77-19.66-9.69-44.39-2.69-66.03Zm-35.07-6.93c-2.23-3.17-2.67-8.93.32-11.58.32.08.65.12.98.13.06,4.16-.42,8.2-1.29,11.45Zm-4.77-30.36c2.82,2.85,4.52,7.14,5.38,11.8-4.9-.2-7.73,4.04-8.87,8.51-2.32-7.21-1.64-15.75,3.5-20.31Zm16.57,88.68c11.02,5.06,12.47,15.54,16.84,14.66,3.45,3.94,6.68,8.1,9.88,12.15,2.05,2.48-.07,6.14,1.38,8.61-1.16,1.4-2.26,2.85-3.28,4.36-4.11-3.09-10.81-1.77-14.42,3.01-5.46-1.97-9.7,1.57-11.97,6.75-5.56-3.03-11.1-6.22-16.37-9.86-20.52-11.69-6.67-53.39,17.94-39.69Zm-43.25-23.69c5.85,8.08,10.98,16.8,13.13,26.62-3.5,6.19-5.15,13.79-4.78,20.7-23.12-29.55-41.63-63.55-73.23-85.53,23.39,3.18,51.47,20.58,64.88,38.21Zm-39.72,27.08c-12.62-17.62-18.04-38.98-27.56-58.27,29.41,21.2,47.35,52.81,68.52,81.2-15.74-2.29-31.44-9.87-40.96-22.94Zm-97.32-12.52c-6.9-9.77-10.71-21.81-16.48-32.35,29.22,11.9,43.77,40.52,65.11,61.61-19.39-2.07-37.56-13.28-48.62-29.26Zm4.35,47.41c-16.47,2.64-33.31.56-49.91.77,23.84-11.71,51.26-15.96,77.54-12.22-7.99,5.92-18.04,9.52-27.62,11.45Zm42.7,18.97c14.62-15.9,34.64-25.43,55.4-27.53,5.02-2.13,10.67,4.06,14.81.81,1.98.4,3.95.91,5.92,1.49-6.36,3.66-10.93,10.5-12.71,17.46-28.31,12.02-55.38,28.35-86.48,32.39,8.3-7.55,15-16.82,23.07-24.63Zm25.1,37.76c-15.1.92-29.78-2.98-44.33-6.71,29.19-4.14,55.07-18.95,81.52-30.88-.22,7.19,1.56,14.55,4.6,21.1-12.22,9.91-25.69,15.33-41.79,16.49Zm54.08,1.85c.54.39,1.1.76,1.68,1.09-7.99,12.39-17.27,24.05-26.16,35.82,5.32-14.38,10.31-28.49,24.48-36.91Zm-22.88,46c10.98-13.96,21.96-27.58,31.37-42.69.91.16,1.83.28,2.75.38-7.11,16.82-19.02,31.93-34.12,42.31Zm66.02-16.5c-13.69-7.95-19.24-15.18-9.16-29.31,7.82-2.91,14.15-8.55,19.19-15.11,3.84,4.39,11.45,7.24,16.45,3.53,1.72,8.06,5.4,15.38,11.22,20.94-2.03,17.61-20.61,30.65-37.7,19.96Zm26.93,50.96c12.03-19.43,22.4-39.99,31.01-61.14.8.13,1.62.26,2.45.35.26.95.63,1.86,1.07,2.74-3.27,23.19-15.56,44.48-34.53,58.04Zm40.28-43.29c1.12-1.79,1.44-4.18-.44-5.56.14-.61.27-1.23.39-1.84.49.49.97.96,1.46,1.43.81,16.74,2.54,33.42,3.84,50.13-7.68-13.99-11.88-27.11-5.25-44.16Zm12.28,44.35c-1.19-14.89-2.56-29.76-3.53-44.66,2.62,1.63,5.39,3.02,8.25,4.18,1.25,13.53-1.21,27.25-4.71,40.47Zm9.42-46.17c-4.85-1.71-9.49-4.17-13.49-7.46.56-3.71-1.82-8.12-5.68-5.75-.4-.52-.79-1.05-1.16-1.6.03-.4.14-.8.09-1.21,9.53-1.29,18.87-5.65,25.58-12.42,24.43,10.46,54.37-6.73,60.22-32.04.77.39,1.44.9,2.02,1.52.08.99.57,1.89,1.7,2.52,3.2,8.78,2.95,18.89.21,27.92-1.18.82-1.56,2.24-1.27,3.53-10.28,25.1-44.3,33.31-68.23,24.98Zm60.64-.54c-1.76.29-3.53.55-5.31.78,9.21-5.56,16.41-13.92,19.95-24.19,19.58-14.07,29.96-45.07,27.38-67.79,2.63,1.89,6.11,4.95,7.94,13.47,11.14,37.25-12.18,71.51-49.96,77.73Zm50.36-22.62c.54-.74.78-1.65.67-2.54,2.18-3.45,3.87-7.12,5.15-10.94,4.08,19.24,7.33,38.96,5.41,58.75-6.24-14.63-15.33-29.04-11.23-45.28Zm17.96,48.28c2.66-23.46-1.6-46.92-6.73-69.77,2.22,1.1,4.66,1.82,7.14,2.33,13.05,19.01,10.28,47.78-.41,67.44Zm3.68-73.79c-5.57-.92-8.88-3.17-12.66-6.55-.24-14.02-.76-30.17-11.02-40.69.93-.12,1.75-.52,2.4-1.11,3.15,6.82,12.12,5,16.15-.15,12.79,5.65,34.52.93,43.7,9.58-.06,1.6,1,3.29,2.65,3.58,10.4,23.88-20.69,38.57-41.21,35.34Zm54.06,26.6c-6.74-9.13-10.03-20.05-14.74-30.25,2.2-1.7,3.81-3.46,5.28-5.71,30.94,19.44,55.53,46.7,80.54,72.95-25.58-8.32-54.45-14.25-71.08-36.99Zm53.48-7.16c9.93,12.25,19.04,25.47,23.94,40.5-26.18-26.93-51.36-55.54-83.6-75.5.8-2.01,1.4-4.09,1.79-6.22,23.97,5.61,42.99,22.19,57.87,41.22Zm209.47-68.34c-6.39,4.27-15.58-.61-21.7-3.7,5.93-3.53,17.01-1.01,21.7,3.7Zm-83.57-36.61c-13.33,16.77-27.52,37.91-50.51,40.49,8.96-20.92,31.64-30.07,50.51-40.49Zm25.07,69.84c-26.65,3.27-51.54-9.31-74.23-21.83,26.77-3.92,49.02,16.4,74.23,21.83Zm115.5-146.44c-3.78,5.9-9.21,10.52-14.62,14.87-6.6-17.38,22.57-29.64,14.62-14.87Z"/>
  </g>
</svg>