<?xml version="1.0" encoding="UTF-8"?>
<svg id="_Слой_2" data-name="Слой 2" xmlns="http://www.w3.org/2000/svg" viewBox="0 0 1127.28 375.06">
  <g id="_Слой_1-2" data-name="Слой 1">
    <path d="m643.15,324c8.45,12.14,23.48,16.84,37.49,18.76,1.36.16,2.74-.57,3.27-1.88-4.83-20.79,1.93-44.86-12.45-62.99,12.38-2.4,14.93-18.11,12.56-28.65,2.88,3.72,5.67,7.49,8.27,11.41-.44.42-.65,1.26-.74,2.1.03-.15.03-.14.05-.23-.74,3.68-2.67,12.9,2.24,14.27,2.98.11,4.4-2.69,4.97-5.47,3.56,6.23,6.82,12.62,9.84,19.13-6.88,8.94-.67,24.35,4.95,11.23,3.88,9.26,7.38,18.68,10.7,28.14-2.48,3.05-1.68,13.17,2.73,14.69,8.09,1.39,5.77-11.58,1.42-14.93-.95-2.72-1.93-5.43-2.91-8.13,13.41.78,2.07-14.14-5.35-14.17-3.18-8.06-6.61-16.02-10.45-23.8,3.32.78,7.21-1.92,5.73-5.54-2.17-4.19-7.29-6.02-11.8-6.07-3.37-6.09-7.01-12.03-10.97-17.75,32.64,31.14,50.75-8.1,16.59-28.89,4.94.43,10.02.62,15.05.19,21.64,50.27,53.13,81.97,110.96,81.18,4.6-.75,16.61,1.88,16.85-4.63-29.62-41.27-44.3-83.27-102.62-88.2,51.98-2.22,103.91,12.63,147.17,41.64.45,5.62,4.65,10.25,9.7,12.33-9.97,17.97,2.96,36.39,9.98,19.75,6.95,21.55,34.37,26.87,18.23-1.99,26.59,13.88,34.33-11.02,6.98-19.56,10.1-5.67,4.5-18.45-6.44-16.34-3.02.29-13.32,4.04-17.72,8.22-3-6.25-11.32-11.94-17.92-7.75-32.74-21.05-70.31-36.86-109.37-40.53,27.14-3.63,54.64-2.15,81.95-2.95,2.76,5.95,9.23,10.92,15.61,12.56,9.93-.46.84-10.23-3.66-12.28,16.84.54,33.72,1.46,50.47,3.33,2.69,5.27,8.71,10.02,14.48,11.78,8.25.57,4.29-6.96-.58-10,14.39,2.07,28.66,5.12,42.68,8.92-.45,3.45,6.67,11.57,10.38,12.26,5.94,1.71,6.4-5.17,3.01-8.37,13.46,4.19,26.67,9.15,39.57,14.94,4.48,18.34,19.01,20.04,11.3,5.31,4.43,2.14,8.83,4.34,13.18,6.62.3.74,1.15,1.11,1.94,1.03,10.74,5.71,21.2,11.96,31.08,19.04.99,5,3.31,10.36,7.49,13.53,4.21,3.43,8.65-.26,6.56-5.09-1.02-2.27-4.85-8.83-8.13-9.08-6.26-4.93-13.07-9.11-19.88-13.23,13.46-8.66-10.3-13-17.03-9.65-11.21-5.95-22.68-11.39-34.41-16.22,10.84-3.23,5.22-10.26-3.46-9.75-2.21-.24-10.13.99-12.61,3.58-12.85-4.61-25.96-8.53-39.25-11.7,2.25-1.04,4.12-2.62,4.57-5.16-1.28-10.09-17.33-2.31-22.01,1.45-13.24-2.55-26.63-4.09-40.05-5.28,3.31-1.81,6.47-5.35,3.72-8.79-6.36-4.5-16.24,2.04-20.08,7.52-24.7-1.88-49.43-.97-74.15-.81,17.81-2.81,35.6-5.79,53.3-9.25,15.52,11.43,34.86,1.1,17.99-3.71,15.06-3.3,30.08-6.91,44.97-10.99,6.33,2.66,14.53,5.33,21.28,2.5,4.51-2.45,1.82-7.29-2.45-7.95,17.38-5.31,34.51-11.38,51.23-18.49,1.43,4.09,14.87,4.3,18.68,2.79,8.29-4.01,2.15-8.89-5.47-8.65,10.83-4.97,21.58-10.23,32.04-15.99,5.57-2.81,11.2-6.51,16.67-9.79.46.35,1.11.57,2,.52l-.26-.02c17.73,3.41,26.41-10.95,11.94-9.71,8.2-5.75,15.75-12.37,23.15-19.1,5.18-1.89,14.27-12.41,6.04-15.77-7.6-.45-12.81,8.71-11.91,15.71-12.71,11.86-27.2,21.65-42.17,30.34,2.49-8.6-5.15-12.58-10.16-4.84-3.17,3.87-5.49,8.51-5.53,13.6-16.75,8.87-34.05,16.57-51.76,23.32,2.97-3.19,4.82-11.9-1.75-11.52-6.71,2.76-11.13,10.1-13,16.91-16.38,5.71-33.05,10.68-49.9,15.06,11.51-14.03-10.73-12.84-15.51,3.86-16.68,3.97-33.49,7.43-50.32,10.52,3.23-2.39,7.02-8.69,2.2-11.4-8.43-1.22-17.96,7.38-22.05,14.9-28.35,4.68-56.69,9.36-85.43,10.51,34.42-7.82,68.79-18.72,99.12-37.15,6.54,4.89,16.85-.49,20.89-6.81,6.85,3.52,13.8,7.63,21.72,7.84,8.64.66,12.83-8.16,4.54-12.83,28.48-4.29,34.46-29.45-.31-19.66,28.09-20.55,12.1-42.55-13.31-18.83,7.18-24.89-18.97-17.47-23.97,2.87-15.53-1.14-12.66,22.8-2.49,28.96-5.49,2.95-9.58,7-9.56,12.98-28.9,17.64-61.81,28.4-94.66,36.02,28.21-12.66,45.22-40.03,47.55-70.43,1.68-14.91,9.76-28.63,14.96-42.32-.83-6.15-16.46-.15-20.4,1.02-38,13.62-67.41,47-78.6,85.52-.2-3.28-3.8-3.74-6.38-2.62,5.86-9.37,10.19-19.79,12.81-30.56,3.21.53,6.06-3.09,8.38-5.02,5.92-6.34.02-12.33-6.3-6.12,1.24-9.07.38-18.27-1.21-27.25,2.81-.12,5.41-6.89,5.85-8.95,1.37-6.36-5.84-9.04-8.25-2.63-1.15-5.16-2.34-10.32-3.55-15.47,3.57-20.97-18.85-16.65-4.12-.06,2.71,11.97,5.88,23.88,7.38,36.09-14.41-4.95-6.36,12.42.06,16.32-.81,8.29-2.85,16.51-5.88,24.35-.62-4.06-7.19-9.82-8.7-3.27-.12,4.82,1.05,9.97,3.85,13.96-3.17,5.99-6.79,11.6-11.1,16.73,21.53-35.36-16.74-36.04-31.35-7.71-.59-25.23-29.2-34.61-31.72-4.96-2.33-1.74-4.51-2.87-7.3-3.25,51.3-40.52,77.26-102.36,42.7-159.71-1.45-4.43-5.96-4.57-8-.44-25.68,37.01-79.09,52.09-72.68,107.3-13.69-6.38-24.65,6.5-30.38,20.86.77-48.57-43.21-40.33-39.68,3.3-8.42-10.72-14.61-22.83-19.59-35.57,8.88-13.34-.23-26.84-4.59-13.85-2.85-10.49-4.37-21.28-4.39-32.24,4.3-1.69,12.23-14.88,5.45-17.57-1.96-.18-3.55,1.06-4.82,2.81.23-3.86.63-7.7,1.19-11.53,3.15-3.8,7.1-12.93,2.8-17.17-6.4-4.14-9.69,10.17-6.55,15.1-1.88,12.96-2.56,26.19-1.57,39.24-12.5-8.21-11.83,9.1,1.67,12.53,1.89,9.76,5.12,19.2,8.83,28.48-1.47-.28-3.07,0-4.16,1.07-4.44,6.12,4.7,11.94,10.22,11.99,2.24,4.26,4.69,8.4,7.39,12.37-6.14-5.03-15.13-11.31-23.41-7.3,11.33-34.14-21.33-43.1-26.46-6.25-14.38-43.67-54.47-17.51-27.94,14.85-12.25-4.69-30.62-3.3-32.54,11.26-11.98-11.65-27.11-19.99-42.74-25.76-7.6-3.39-47.78-13.39-54.14-4.5-2.79,1.5-1.71,5.08,1.1,6.03,7.27,9.63,13.2,20.13,18.04,31.17,12.07,36.19,46.4,56.59,82.86,61.58-48.07,3.27-96.77-7.5-139.1-30.57.88-7.92-7.72-13.81-14.99-14.94,1.79-9.62-.56-25.51-10.12-30.25-6.19-.94-6.29,8.05-6.86,12.3-18.67-22.35-39.7-3.27-9.04,17.3-20.7,6.39-2.42,24.97,16.32,10.71,4.49,9.62,13.76,16.76,21.79,10.13,17.01,9.14,34.97,16.62,53.54,21.96-11.52-.28-23.04-.4-34.56-.48-10.86-16.93-32.94-13.52-15.13-.09-14.5-.09-29-.2-43.52-.56-1.43-5.39-14.3-14.27-20.15-10.92-5.14,3.46.76,8.4,4.22,10.36-19.71-.79-39.43-1.62-59.1-3.07-12.95-18.4-30.45-11.37-15.68-1.3-19.74-1.8-39.45-4.48-58.78-8.96-7.47-17.21-26.85-17.79-14.51-3.46-19.57-4.8-38.8-10.75-57.99-16.9-2.62-4.39-6.95-8.85-11.4-11.65-5.84-2.93-10.77,1.56-6.61,7.17,7.69,8.59,25.38,9.76,36.24,14.41-3.12,1.69-5.39,4.65-3.87,8.23,3.98,5.14,16.75.48,20.89-3.16,16.82,4.74,33.78,9,50.94,12.26-4.14,1.95-7.29,9.99-.6,10.62,6.9.47,13.76-2.62,18.43-7.62,21.5,3.03,43.22,4.4,64.88,5.78-3.84,2.38-8.65,9.17-2.81,12.04,5.47,2.09,17.39-5.93,19.35-11.18,18,.84,36.01,1.34,54.02,1.61-5.02,1.9-7.4,10.86-.51,11.58,6.74-.95,13.52-5.64,17.19-11.35,33.29.66,66.81-1.22,99.71,4.65-22.34,2.13-44.31,6.95-66.09,12.29-14.3-12.14-28.85-1.31-13.91,3.67-16.52,4.56-32.86,9.78-48.97,15.58-2.22-4.34-9.91-4.7-14.36-4.02-6.81,1.31-4.95,8.2,1.08,8.95-17.16,6.52-33.97,13.81-50.58,21.6-3.72-1.75-8.47-2-12.59-1.79-6.24.49-8.81,7.54-2.22,8.93-14.37,7.39-29.08,14.6-41.89,24.54-2.64-2.37-7.35.59-10.14,1.85-13.28,9.66,2.05,14.02,10.97,2.52,4.54-3.6,9.34-6.94,14.37-9.87-1.07,2.6-1.5,5.89.68,7.99,5.97,4.96,14.93-11.02,14.43-16.57,13.64-7.3,27.66-13.88,41.74-20.26-1.2,13.95,15.31,7.44,14.64-6.39,16.82-7.11,33.94-13.53,51.29-19.26-2.41,3.64-3.89,8.03-.74,10.9,7.64,2.39,14.94-9.04,15.86-15.7,14.58-4.44,29.31-8.39,44.15-11.85-1.67,2.83-.57,7.35,2.95,8.05,5.85.66,9.52-6.48,10.98-11.26,21.75-4.38,43.96-7.17,66.13-8.01-21.65,5.7-42.06,15.15-61.06,26.99-6.58-6.21-15.7-.3-19.8,6.4-20.07-15.32-41.74-3.67-23.31,7.77-31.05,9.66-19.89,32.43,8.47,17.77-11.75,23.69,17.84,36.55,20.57-10.74,8.47.17,18.26-6.6,16.79-15.73,26.26-16.87,55.91-27.92,86.83-32.55-22.61,18.09-42.98,41.24-49.08,70.37-1.05,3.59-1.77,7.28-3.03,10.81-1.21,1.33-1.53,3.41-.06,4.71,2.71,2.19,5.65-1.48,8.48-2,4.02-1.56,8.44-3.18,13-4.33,37.17-4.87,67.8-12.99,90.15-45.85-3.11,7.47-5.61,15.22-7.44,23.13-18.31,8.26-16.48,29.4-2.49,13.79-1.61,12.3-1.55,24.74.32,37.03-4.2-.67-11.2,16.84-4.47,17.69,3.8.48,5.48-4.01,6.6-6.9,1.22,4.97,2.77,9.88,4.64,14.69-.1,24.65,25,8.52,3.49-2.14-4.68-12.16-7.17-25.13-7.66-38.18,2.8,3.63,8.74,4.85,9.98-.39.38-6.36-5.73-10.73-9.64-14.9,1.12-15.23,5.22-30,11.13-44.08,13.73,16.15,36.23-2.04,46.3-14.11-11.88,52.06,27.12,56.01,33.12,10.5,5.22,10.55,12.37,20.85,23.68,22.4-14.16,32.69-16.08,74.9,6.15,104.5,3.22,2.09,4.91-1.12,5.85-3.72,8.34-17.54,22.4-31.61,30.74-49.22.63.94,1.28,1.83,1.72,2.56Zm66.43-22.96c-.11-1.54.11-3.11.59-4.57.21,1.55-.06,3.11-.59,4.57Zm200.27-13.76c-2.66-5.16-.3-11.23,1.64-16.25,1.31,5.35.98,11.34-1.64,16.25Zm23.92,12.3c-9.48-4.41-12.78-15.82-15.11-25.28,7.23,6.74,12.77,15.72,15.11,25.28Zm15.53-15.93c-10.53-.89-20.14-7.41-27.35-15.02,6.62.37,13.16.82,19.34,3.61,3.62,1,18.63,10.19,8.02,11.41Zm-11.95-28.23c7.09.45,1.93,6.37-2.28,6.83-4.36,1.35-9.02-.19-13.53-.08,4.7-3.23,10.04-6.24,15.81-6.75Zm-31.77-.57c4.08.89,6.21,4.84,7.89,8.32-4.47.54-9.77-3.18-10.72-7.72.36-1.17,1.87-.8,2.83-.6Zm35.02-43.11c3.18,1.29,5.84,3.68,8.29,6.04-3.27-1.18-5.87-3.62-8.29-6.04Zm56.01,11.83c2.06,1.63,4.98,3.02,5.98,5.74-2.86-.74-4.36-3.52-5.98-5.74Zm114.87,57.16c.29.58.57,1.04.67,1.73-2.68-1.49-4.2-4.37-5.33-7.14.15.03.3.04.45.04,1.86,1.24,3.02,3.52,4.21,5.37Zm-61.48-36.69c1.28,1.58,2.23,3.4,2.97,5.28-1.32-1.56-2.16-3.43-2.97-5.28Zm37.44,9.21c-1.45,1.9-3.88.73-5.73,1.13-1.83-1.06-3.67-2.11-5.53-3.13,3.91-.43,8.04-.01,11.26,2Zm-199.8-38.2c-3.69-1.28-6.92-3.78-9.57-6.6,3.73,1.27,6.95,3.66,9.57,6.6Zm150.06,12c-2.63,1.66-5.91,1.38-8.75,2.06-1.34-.52-2.68-1.03-4.02-1.53,4.1-1.47,8.49-1.88,12.77-.53Zm-68.6-15.69c7.28-4.58,21.12-4.05,4.08,1.02-1.42-.31-2.84-.61-4.27-.9.06-.04.12-.08.19-.11Zm-49.4-11.9c1.39-.21,3.12-1.17,4.42-.43-1.76,3.84-7.15,3.51-10.36,5.3-.64-.05-1.27-.09-1.91-.14,2.2-2.16,4.89-3.87,7.86-4.72Zm48.75-21.37c-4.05,1.55-8.63.28-12.7-.75,4.13-.52,8.81-.94,12.7.75,0,0,0,0,0,0Zm122.17-57.81c-1.15.06-2.3.07-3.45.04,3.18-1.49,6.77-1.95,10.24-2.22-1.95,1.61-4.28,1.88-6.78,2.19Zm32.57-36.91c.1,2.05-1.38,3.76-2.81,5.18-1.82-.12-2.85,1.96-4.22,2.9.93-3.53,3.18-7.7,7.03-8.08Zm-211.92,80.43c-5.77,1.64-11.86-1.73-16.99-4.2,5.93-.62,12.44.02,16.99,4.2Zm19.41-21.66c-5.52,8.42-25.36,11.65-37.52,10.9,10.69-5.74,25.5-13.6,37.52-10.9Zm-23.07-22.52c3.43-2.68,10.81-7.66,14.24-3.17-1.98,11.26-26.29,26.96-36.28,33.76,4.44-11.82,12.68-22.22,22.05-30.59Zm-23.9-2.01c1.83-3.5,4.42-6.71,8.2-8.17,7.04-1.97-.45,12.83-1.76,15.27-3.96,6.64-7.63,13.74-9.64,21.39-3.66-9.22-1.24-19.94,3.19-28.49Zm-10.46,9.82c.12.19.25.36.39.51-1.03,4.88-1.29,9.9-.49,14.44-3.23-4.65-4.42-10.98.09-14.95Zm3.12,28.3c.95-.49,2.21-.75,3.36-1.1.89.88,1.71,1.95,2.8,2.58-.98,4.21-9.46,10.23-13.23,7-.58-3.83,3.85-6.95,7.07-8.48Zm-131.24-24.79c-1.06,2.25-3.25,3.72-5.25,5.06,1.22-2.15,3.22-3.66,5.25-5.06Zm-228.49-46.04c.62,2.84-.53,5.72-1.4,8.39-.02-2.84.48-5.7,1.4-8.39Zm-367.2,110.53c4.22.03,7.42,3.39,10.33,6.06-3.83-1.11-7.67-3.04-10.33-6.06ZM4.01,163.89c3.92.05,6.45,3.92,8.91,6.51-3.45-.81-7.87-2.84-8.91-6.51Zm33.39,24.73c.61-3.44,4.91-3.41,7.53-4.07,1.64.49,3.28.99,4.93,1.47-3.8,1.9-8.22,3.17-12.46,2.6Zm47.73,1.61c-3.04-1.43-5.46-4.12-7.2-6.98,4.05,1.43,6.45,4.86,8.76,8.32-.31-.07-.62-.15-.93-.22-.08-.42-.28-.81-.63-1.12Zm20.1,16.08c.81-3.24,4.52-3.96,7-5.43,2.1.37,4.2.72,6.3,1.05-3.75,2.97-8.48,4.79-13.3,4.38Zm189.09.62c-4.33-1.34-9.03-3.41-11.7-7.33,5,.25,9.07,4.39,12.55,7.7-.17,0-.33,0-.5,0-.1-.12-.22-.25-.35-.37Zm-70.85-7.75c4.94-1.03,9.45,3.88,13.07,6.75-4.84-.59-9.85-3.03-13.07-6.75Zm-23.66,10.86c-8.02,8.82-21.58,9.04-4.33-1.19,1.68.09,3.37.19,5.05.27-.2.33-.43.65-.72.92Zm69.42,2.76c-3.15,2.41-6.75,5.17-10.75,5.71-1.41-4.4,9.12-7.08,12.38-7.4-.51.59-1.05,1.16-1.63,1.69Zm33.89,16.13c-3.25.01-6.58-.62-9.44-2.2,3.25-1.24,6.59.79,9.44,2.2Zm-60.98,19.57c-3.33.44-7.08.71-10.17-.94,3.28-1.21,7.04-.4,10.17.94Zm-66.55,27.75c-2.43.44-5.05,1.27-7.51.77,2.17-1.61,4.9-1,7.51-.77Zm-53.69,32.89c-1.67,1.85-4.33,2.89-6.66,3.71,1.72-1.89,4.2-3.06,6.66-3.71Zm22.48-4.14c-.82-3.42,2.25-6.64,4.12-9.29,1.09-.62,2.19-1.22,3.29-1.83-1.2,4.36-3.73,8.57-7.41,11.13Zm58.24-30.08c-2.74-1.94.51-4.79,1.73-6.56,1.34-.59,2.68-1.18,4.02-1.76-.48,3.47-2.01,8.18-5.75,8.33Zm62.79-21.87c-.51-3.39,3.37-7.51,5.55-9.8,1.2-.38,2.39-.76,3.59-1.13-1.16,4.66-4.93,8.77-9.15,10.93Zm67.05-26.23c-.55,1.32-4.77,8.37-6.1,5.59-.31-2.03,1.72-3.38,2.73-4.86,1.13-.28,2.27-.55,3.41-.81-.02.03-.02.06-.04.09Zm-33.38,23.14c-.12.07-.23.13-.36.2,6.23-1.95,12.78,1.52,18.22,4.66-6.44,1.37-14.28,1.05-18.78-4.17.21-.34.59-.51.92-.69Zm-9.98,25.44c-.99-.08-2.11-.11-2.91-.76,3.21-8.79,22.01-13.13,33.11-13.19-8.28,7.59-18.83,13.47-30.2,13.96Zm23.88,16.38c-7.8-5.26,4.19-19.25,8.75-23.8-1.12,5.66-2.32,22.43-8.75,23.8Zm16.67-32c-1.02.09-2.04.13-3.06.12-.23-.92-.92-1.65-1.36-2.48,12.2-20.77,21.58-.71,4.42,2.36Zm13.17-14.29s.09.02.13.04c-.04-.02-.09-.02-.13-.04Zm131.37,43.93c1.32-3.71,4.03-6.68,7.26-8.85-1.64,3.49-4.21,6.52-7.26,8.85Zm4.05,48.76c.24-2.79,1.32-5.52,2.89-7.82-.58,2.72-1.4,5.46-2.89,7.82Zm18.19,19.99c.02.62-.22,1.48-.83,1.78-2.17-.56-2.83-4.22-3.17-6.22,1.51,1.24,3.98,2.18,4,4.43Zm149.23-41.44c-.28-.8-.79-1.51-1.43-1.98,2.44-6.75,4.34-13.77,4.8-21.02,5.87,15.46,14.78,29.67,25.82,41.98-11.66-2.27-23.63-7.96-29.19-18.97Zm-18.31-57.46c-.05-.15-.09-.28-.11-.45,0,0,0,0,0,0,.02.15.06.29.1.44Zm-14.67-10.61c-.06.07-.12.14-.18.21-1.06-6.96-5.14-14.64-9.97-21.48,6.91,3.72,13.97,7.63,21.61,9.62-4.37,3.1-7.64,7.85-11.46,11.66Zm-44.67-43.6c-17.13,7.1-29.58-17.78-13.63-27.24,18.6-10.7,33.34,18.78,13.63,27.24Zm-117.39,1.37c-.09-.22-.21-.42-.35-.61.33.12.66.24.99.36-.21.08-.43.17-.64.25Zm-16.1-43.02s0,0,0-.01c0,0,.02,0,.03,0,0,0-.01,0-.02,0Zm16.56,1.28c4.52-1.19,9.29-1.42,13.8-2.65.87,3.15,2.59,6.04,4.92,8.32-30.67,38.74-70.9,5.22-18.72-5.67Zm27.34-19.84c15.63-6.3,25.08,18.43,9.24,24.17-15.53,6.12-24.88-18.36-9.24-24.17Zm11.15,30.41c-.15.31-.45.54-.72.75.28-.2.53-.46.72-.75Zm.85,1.56c-.08-.76-.08-1.59-.13-2.41,2.62-1.08,5.03-2.75,6.91-4.89,2.86,1.79,5.19,3.71,7.72,5.83-4.95-.08-9.82.32-14.5,1.47Zm24.04-.79c-4.28-4.25-8.93-8.32-14.02-11.57.39-.89.7-1.82.95-2.76.87.2,2.28.1,3.1-.15,6.21,7.17,14.43,12.21,22.98,16.61-4.27-.84-8.64-1.61-13.02-2.13Zm-69.25,18.15c1.53,1.81,3.55,3.25,4.94,5.22-3.1-1.27-6.06-2.88-9.05-4.59,1.38-.11,2.75-.32,4.12-.63Zm13.52,7.09c-2.05-3.31-4.31-6.54-7.12-9.21,3.98-1.73,7.81-4.14,11.34-6.89-2.06,4.92-3.91,10.71-4.22,16.1Zm15.15-24.45c.47-.77,1.16-1.65,1.71-2.56,2.73,1.23,5.78,1.71,8.76,1.52.11.92.03,1.99.4,2.83-12.03,3.39-14.8,16.91-6.75,25.64-.84,16.29-26.28,7.72-4.13-27.44Zm9.67,32.16c.8.48,1.63.92,2.49,1.3-1.43.75-2.84,1.53-4.24,2.33.78-1.16,1.36-2.41,1.75-3.64Zm8.74-2.88c-5.83-1.25-11.04-5.51-12.69-11.35-2.49-11.37,14.69-12.94,22.57-13.29,13.22-.12,26.3,2.74,39.1,5.8-.64,3.57-.29,7.22.84,10.65-14.92,6.15-33.59,11.1-49.82,8.2Zm15.86,6.65c4.21-.36,8.38-1.06,12.52-1.95-4.27,2.79-8.45,5.51-13.08,9.44.34-2.97.49-5.79.56-7.48Zm92.77-56c27.86-29.8,58-.65,12.95,14.05-9.56,3.11-25.02,5.23-32.41,11.15-.4-.86-.87-1.67-1.37-2.47,7.34-7.2,14.88-14.3,20.83-22.74Zm60.43,46.01c11.42-12.19,28.93,5.65,16.67,17.06-12.89,10.48-27.98-4.18-16.67-17.06Zm26.62.98s0,0,.01,0c-.11.24-.24.48-.41.68.16-.21.29-.44.4-.69Zm-34.29,54.88c.17.74.35,1.5.54,2.27-2.57-1.04-5.26-1.6-7.93-2.19,2.51-1.46,4.79-3.41,6.82-5.66.07,1.87.26,3.74.57,5.58Zm-63.35-46.98c-3.47-2.96-7.03-5.81-10.71-8.5,1.2-1.7,2.11-3.58,2.76-5.52,55.17,5.39,77.22,63.78,7.96,14.03Zm39.13,40.31c-2.3-5.62,1.36-10.77,4.11-15.33,3.66-1.51,6.41-4.69,6.34-9.05,4.73-2.5,8.23-3.88,13.6-6.38.72,2.27,2.39,3.88,4.44,5.02-.42,11.82-7.5,26.6-20.04,29.11-3.13.24-7.24.13-8.44-3.36Zm22.84-45.04c-.86,2.63-.82,5.44-.44,8.15-4.28,2.6-9.11,4.22-13.54,6.57-3.87-7.98-11.47-13.32-18.88-17.73,8.19.47,16.74,1.37,24.6-1.55,2.72,1.48,5.51,3.02,8.32,4.37-.02.06-.04.13-.06.19Zm-14.08-9.15c-18.61,2.68-36.72-3.35-54.77-6.99,0-.98-.07-1.96-.21-2.94,7.23-5.03,15.8-6.93,24.24-8.91,12.58-2.24,25.85-1.57,36.94,4.91,8.25,5.62,1.22,12.91-6.19,13.93Zm-11.85-25.59c2.72-1.35,5.31-2.92,7.68-4.77-1.13,1.58-1.76,3.5-1.65,5.57-1.99-.36-4.01-.62-6.03-.79Zm48.67,132.22c.32,7.86.09,15.55.85,23.3-16.19-17.97-22.83-41.76-32.45-63.45,5.19.88,10.31,2.24,14.22,5.85.66,1.18,1.42,2.28,2.29,3.27,1.52,3.7,5.98,6.09,7.94,9.82,4.27,6.26,6.54,13.69,7.15,21.21Zm3.29-41.88c-4.56,15.15-15.37,10.71-18.21-2.61-1.7-5.4-.82-11.14-.48-16.6,2.67-5.36,4.19-10.83,4.35-14.74,2.39.55,4.9.76,7.35.51,4.79,9.96,8.43,22.36,6.98,33.45Zm16.35,8.77c-.21-1.78,0-3.58.3-5.34.19,1.77.21,3.62-.3,5.34Zm33.46,69.31c-1.27-1.74-1.05-4.19-1.07-6.25,1.2,1.8,1.48,4.13,1.07,6.25Zm-.37-23.05c-3.41.66-4.96-2.78-5.73-5.48,2.48,1.14,4.7,2.87,5.73,5.48Zm-16.03-38.11c-2.34.59-4.64-1.42-5.79-3.31,2.25.44,4.47,1.4,5.79,3.31Zm9.88-30.65c2,6.33-1.99,11.73-8.75,10.68-16.15-3.77-24.62-20.41-33.85-32.89,2.37-1.39,4.43-3.45,5.94-5.79,14.79,3.56,30.91,13.21,36.66,28Zm-11.9-29.53c-7.56-.61-14.75-3.17-22.14-4.61.81-3.26.96-6.78-.23-9.97.32-.35.73-.6,1.09-.89,11.47-7.33,33.66-14.22,46.31-6.39,4.35,3.03,7.84,9.3,4.73,14.32-6.04,9.6-19.91,8.01-29.76,7.54Zm69.45,67.73c-24.43-13.75-37.09-38.11-48.34-62.65,1.4-.36,2.77-.8,4.11-1.36,29.09,30.99,61.5,61.41,101.43,77.54-19.74.1-40.24-3.15-57.2-13.54Zm3.35-57.98c28.69,12.11,39.94,42.66,57.4,66.5-10.04-4.06-19.9-8.56-29-14.49.06.04.12.08.18.11-26.16-17.23-49.75-38.11-70.86-61.22.51-.4.98-.82,1.42-1.24,13.92,1.91,27.96,4.48,40.86,10.34Zm120.53-33.88c-3.37.15-6.51-.9-9.66-2.02,4.14-.48,8.01.26,12.02,1.57-.75.31-1.56.37-2.36.44Zm130.28-40.24c-3.26.13-6.49-.49-9.66-1.22,4.35-.91,8.97-.5,13.3.32-1.14.55-2.39.78-3.64.9Zm27.43-28.82c1.48-2,2.77-4.49,5.04-5.67,2.19,5.29-2.81,9.81-7.35,11.55.39-2.09,1.11-4.11,2.31-5.88Zm-59.61,24.01c.21,4.5-4.34,7.12-6.55,10.42-.74.27-1.47.54-2.21.8,1.63-4.49,4.84-8.52,8.76-11.22Zm-64.17,22c-.92,3.78-5.68,5.02-7.42,8.03-.85.21-1.71.41-2.56.62,1.92-4.08,5.61-7.56,9.98-8.66Zm-68.48,13.78c1.24-.51,2.53-1.3,3.9-1.24.01.01.02.03.04.04-.54,4.85-6.56,5.92-8.94,9.27-2.07.37-4.14.73-6.22,1.09,2.86-3.98,6.89-6.91,11.22-9.16Zm-58.33-56.84c-1.87,36.11-29.45,65.72-64.71,72.66-.26-.67-.57-1.33-.92-1.98,21.6-35.61,43.46-73.2,74.91-101.07-4.38,9.68-7.57,19.86-9.29,30.39Zm-64.15,25.19c14.97-28.61,40.15-52.97,71.75-61.99-32.81,27.59-54.61,66.29-77.32,102.14-1.91-1.81-4.19-3.31-6.74-4.4,2.92-12.3,7.02-24.26,12.31-35.75Zm-14.75,22.13c-1.24,3.86-2.57,8.03-3.39,12.02-5.52-.64-11.2-.13-16.78.72,2.46-2.34,4.77-4.83,6.92-7.44,3.93,1.45,10.44-2.19,13.24-5.29Zm-7.75-.13c1.24-.68,2.58-1.17,3.93-1.58-1.86,1.49-4.03,2.42-6.34,3.09.12-.16.24-.31.35-.46.82-.07,1.22-.57,2.05-1.05Zm17.82-85.17c.21,2.06-.89,4.03-1.94,5.78.25-2.01.79-4.08,1.94-5.78Zm-11.79-22.49c-.64-1.12-1.09-2.35-1.27-3.63,1.06.88,1.15,2.36,1.27,3.63Zm2.87,45.55c3.47-.52,3.5,2.21,4.75,3.25.04,1.64.03,3.28-.03,4.93-2.17-2.3-3.74-5.25-4.72-8.18Zm-6.15,36.86c1.33,2.13,1.32,4.46,1.99,6.92-.03.07-.06.14-.09.21-1.09-2.22-1.54-4.7-1.9-7.13Zm-25.72,36.07c-4.87,4.93-10.58,8.62-16.33,12.4-1.53-1.81-3.47-3.21-5.51-4.38,12.25-44.41,61.3-53.24,21.84-8.01Zm-42.26-24.45c10.33-26.58,28.56,12.84,14.16,30.28-2.42-.39-4.97-.22-7.3.57-3.79-9.65-8.55-20.24-6.86-30.85Zm-6.98,11.34c.29.66.86,1.2,1.53,1.51,1.49,7.37,4.44,14.95,7.04,20.75-1.93,1.39-3.68,3.1-5.02,5.07-1.67-.84-3.34-1.69-5.01-2.55,10.59-9.81-.38-21.85-11.9-24.42.79-8.52,9.73-5.05,13.36-.36Zm46.11-114.3c-.53,39.7-25.88,72.91-55.15,97.55,2.67-7.5-1.57-14.51-8.23-17.77,26.49-37.79,49-82.37,49.86-129.34,7.67,15.45,13.92,32.08,13.52,49.56Zm-84.26,32.01c5.82-36.11,43.25-51.03,64.66-76.38-2.91,44.39-24.14,86.8-50.05,122.34-5.71-.49-11.6,1.37-16.69,4.05,4.76-7.29,6.86-17.89,2.42-24.67-1.58-8.41-1.5-16.9-.35-25.33Zm-15.51,23.27c5.98-1.33,9.2,2.58,11.49,6.84,3.54,11.58-6.8,21.82-12.68,30.85-2.94,3.03-7.12,6.03-8.19,10.21-3.92,4.36-7.93,7.73-12.1,12.11-1.68-1.52-3.65-2.73-5.75-3.6,4.65-16.74,9.16-49.8,27.23-56.42Zm-52.41-.24c11.89-25.04,26.28-2.32,25.06,15.23.36,12.95-3.16,28.1-5.96,39.9-2.11-.25-4.29-.1-6.38.33-11.27-16.01-20.38-35.92-12.71-55.46Zm-33.3-74.36c-.48,2.23-1.67,4.08-2.97,6.08.76-2.16,1.57-4.13,2.97-6.08Zm-1.59-27.32c.5,2.5-.54,4.93-1.53,7.18-.28-2.43.44-5.02,1.53-7.18Zm-10.97,52.45c2.44.49,4.19,2.79,5.76,4.58.07.52.15,1.04.22,1.56-2.7-1.2-5.45-3.33-5.98-6.14Zm14.28,43.17c1.36-.12,2.44,1.4,3.66,1.54.47,1.05.96,2.09,1.45,3.12-2.48-.74-5.14-2.47-5.11-4.66Zm8.06,23.81c13.41,10.31,20.19,26.69,28.89,40.75-2.59,1.67-4.85,3.9-6.47,6.56-13.74-7.08-29.74-12.99-38.48-26.58-9.18-14.68-2.21-34.92,16.05-20.73Zm-37.14-15.26c8.9-38.11,27.79-12.31,6.94,22.83-2.37-1.17-4.98-1.83-7.62-1.95-.7-6.93-.31-13.99.67-20.88Zm-29.33,10.37c-23.28-30.01,14.43-48.23,22.72,11.17-2.39.66-4.64,1.85-6.58,3.37-.13-.08-.26-.17-.39-.25-5.38-4.3-11.36-8.64-15.75-14.29Zm-24.54,8.24c12.67-2.66,26.43,3.41,36.55,10.8-1.88,2.87-2.96,6.24-3.07,9.66-11.1,1.71-24.07,4.42-34.66-.89-6.72-4.97-8.54-15.93,1.18-19.57Zm-25.04,4.17c9.57,7.07,17.05,16.44,23.57,26.34-5.34,2.88-9.95,9.26-9.23,14.35-29.7-21.76-54.94-50.75-89.08-65.34,25.14-1.49,55.15,9.86,74.73,24.65Zm-34.05,44.68c-20.42-15.2-25.03-41.91-39.02-61.95,42.71,20.38,71.71,61.93,114.73,81.98-26.11,4.6-54.26-5.24-75.7-20.03Zm-112.69-41.95c3.38,5.96,5.68,13.13,4.6,20.02-4.69-5.55-6.68-12.89-4.6-20.02Zm-24.23,5.77c-5.08-10.48,7.54-2.08,10.55.94,4.85,4.49,8.95,9.67,11.69,15.67-7.69-1.76-18.9-9.94-22.24-16.61Zm10.88,26.66c-1.92.02-4.41-.04-5.52-1.87,2.2-3.29,11.68-3.51,15.13-1.97-2.98,1.72-6.15,3.42-9.61,3.84Zm29.01,7.25c-4.9-.01-8.5-6.33-10.08-10.39,4.8-3.45,20.82,8.14,10.08,10.39Zm143.72,55.54c11.89-11.72,24.82-23.92,41.52-28.36,1.45,4.75,7.91,9.14,13.22,8.51-30.41,21.76-60.89,44.47-85.22,73.11,5.45-21.25,13.99-37.58,30.49-53.26Zm15.62,47.27c-13.13,3.03-26.82,3.82-39.71,7.75,28.82-31.55,63.05-59.22,100.18-80.3,2.55.35,5.15.41,7.73.43.43,11.82-3.75,15.54-8,25.07-15.84,19.9-33.27,41.97-60.2,47.06Zm56.01,24.56c-3.49-1.29-6.46-5.34-5.81-9.19,2.14,2.25,6.64,6.24,5.81,9.19Zm23.99-59.35c-4.93,1.64-11.84,1.75-14.07-3.93-5.2-16.23,33-36.53,45.18-42.92,1.65,2.23,3.75,4.14,6.12,5.6-5.53,16.17-20.84,36.53-37.24,41.25Zm42.81,21.34c-9.76,6.53-10.68-12.02-10.95-17.96.23-14.72,5.56-28.76,10.97-42.28,1.69.45,3.42.71,5.17.73,8.07,16.81,12.87,47.54-5.19,59.5Zm22.87-28.68c-4.22-10.4-7.61-21.13-10.37-32,1.88-.66,3.66-1.59,5.28-2.73,52.03,34.01,29.32,84.29,5.09,34.74Zm15.04,69.43c.82-24.67,10.49-48.93,28.37-66.13-.5,4.72.57,9.4,3.87,12.24-14.08,32.33-21.78,67.36-23.36,102.55-7.89-14.86-10.43-31.91-8.87-48.67Zm14.9,47.55c1.91-34.01,8.99-67.72,22.85-98.94.56.12,1.13.21,1.68.28,24.09,34.48-5.14,70.11-24.53,98.67Z"/>
  </g>
</svg>