<?xml version="1.0" encoding="UTF-8"?>
<svg id="_Слой_2" data-name="Слой 2" xmlns="http://www.w3.org/2000/svg" viewBox="0 0 580.9 936.65">
  <g id="_Слой_1-2" data-name="Слой 1">
    <path d="m2.71,373.95c19.3,15.69,22.84,60.91,48.03,62.43,6.93,32.98,15.66,65.71,28.61,96.88-10.51-14.43-26.83-21.78-44.5-21.5-1.77-.17-4.51-1.4-5.13,1.09.52,3.34,5.15,4.98,7.1,7.74,6.34,6.44,9.85,15.1,16.38,21.37,10.48,10.8,28.68,7.79,37.56,20.7.53.82,1.23,1.82,2.34,1.64,14.37,29.98,31.36,58.69,50.49,85.89-12.27-12.1-27.99-23.46-46.19-20.43-4.89.7-9.57,2.51-14.49,2.91-1.04.33-1.54,1.59-1.16,2.58,5.52,4.7,11.92,9.29,17.21,14.6,28.86,25.41,42.95,8.71,59.47,20.34,19.19,24.48,41.44,46.4,64.79,66.88-20.32-9.07-43.47-16.28-61.38,1.41-2.22,1.48-1.63,4.56,1.21,4.33,12.19.1,23.33,6.31,35.37,7.51,12.65,2.61,24.63-8.42,36.86-2.99,21.52,17.84,44.35,34.23,67.93,49.36,5.33,7.96,11.1,15.05,15.77,23.54-12.76.39-23.37,6.92-32.62,15.15-1.88,2.55,1.34,4.03,3.54,3.04,18.35-2.84,35.75,4.9,53.83,5.85,5.83,5.33,11.84,10.47,18.04,15.4-53.26-29.03-96.86,9.23-151.08-25.09-1.65-1.44-4.17-2.05-5.53.1-1.95,3.96,4.2,6.27,6.38,8.82,33.42,29.91,80.33,44.74,124.52,34.74,26.03-5.4,50.72,7.22,74.38,13.65,11.04,6.12,22.67,11.03,34.2,16.01-3.22,9.09-8.08,17.34-14.23,24.72-1.08.62-1.75,1.91-1.07,3.07.72,1.32,2.56,1.17,3.48.18,13.41-6.65,30.56-6.22,40.76-18.72,34.05,8.98,70.81,12.19,105.12,2.62,1.56-.49,2.52-2.09,2.07-3.7-1.29-3.79-5.21-1.36-7.95-.96-31.36,7.43-64.48,4.84-95.43-2.99,6.22-10.19,5.65-21.93,11.39-32.91,3.16,2.18,80.89,11.38,65.94,1.13-21.87,1.67-44.01-.54-65.43-5.1.05-.63-.19-1.29-.77-1.71-3.02-2.5-3.41-6.39-4.38-10.1-2.77-22.27-9.45-45.11-29.29-58.16-2.37-2.15-8.78-7.15-7.35-.16,6.64,23.14,2.01,53.54,25.55,66.21-15.7-4.19-31.14-9.42-46.29-15.26-6.48-36.25-5.07-74.37-24.58-106.9-2.37-3.56-7.88-15.92-11.77-16.42-6.6.51-1.28,8.39-.71,12.13,11.6,31.74-2.16,65.29,5.31,97.56-7.6-3.49-15.21-7.16-22.82-10.99-6.51-27.74,7.66-50.37-15.5-76.48-3.44-4.37-7.61-7.89-10.76-12.56-1.4-1.43-3.89.1-3.31,1.98,1.88,34.3-10.1,52.31,18.51,81.39-14.28-7.49-28.51-15.54-42.54-24.11-8.62-56.92,28.01-116.03-3.84-171.79-2.95-4.18-13.76-26.82-19.14-22.51-2.75,2.85.72,6.86.99,10.17,19.41,48.76-14.79,113.69.6,158.64-23.91-40.48-37.22-81.81-44.49-125.5-2.93-88.15,61.46-69.11,30.51-201.84,0,0,0,0-.01,0-.54-3.77-6.37-2.91-5.92.81.04,9.75-1.25,19.53-2.47,29.2-2.11,12.57-5.67,24.86-9.2,37.1.03-.08.05-.15.07-.24-8.08,27.04-15.7,44.16-20.27,61.12-2.55-48.98,1.11-100.01-10.89-148.18,8.69-61.58-13.89-130.97-59.62-173.6-8.73-.22,1.24,15.23,1.59,19.72,20.62,52.43-1.11,115.34,50.96,151.44,6.58,21.9,8.32,43.86,9.53,66.54-10.99-50.02-70.1-68.11-82.3-117.61-.63-4.25-6.04-5.13-6.61-.5,12.42,114.7,65.26,79.11,89.83,144.66,2.96,47.32-1.47,84.56,8.89,133.39,1.96,12.07,4.38,24.07,7.37,35.96-4.05-5.73-8.76-11.09-14.08-15.66-2.65-6.2-5.26-12.62-7.24-18.87-5.72-3.15-2.36,7.95-3.34,10.76-15.89-10.88-34.33-17.95-50.5-28.33,1.54-15.29-3.26-34.16-15.44-43.78-.89.15-1.68.91-1.72,1.84.52,8.41-1.49,16.69-3.97,24.75-9.89-9.67-18.59-20.63-26.32-32.19-2.18-2.51-2.89-7.23-6.42-8.07-13.13-.08,23.09,57.33,28.98,61.07-.02,10.37,4.07,20.09,8.78,29.19-22.14-28.02-41.26-58.4-57.83-89.99-3.16-7.84,1.21-17.66,5.37-24.56,11.66-17.64,16.12-41.54,4.57-60.18-2.83-1.04-2.95,2-3.41,3.91-5.82,22.92-23.05,36.53-15.51,62.8-19.45-40.36-33.28-83.42-41.59-127.36.08.12.11.24.15.38-1.56-21.99,30.28-38.19,30.26-70.4.34-3.28.09-34.41-6.49-24.1-4.35,23.97-25.01,41.54-28.87,65.56-2.53-31.15-9.39-100.46,6.2-126.11,12.77-17.3,27.66-34.86,25.01-58,.2-3.24-3.21-22.06-8.65-16.02-1.96,8.56-4.86,17.16-9.18,24.93.01-.02.02-.04.03-.06-4.46,8.4-8.99,16.87-11.52,26.09,2.35-26.73,1.74-54.37,4.6-80.73,10.65-12.5,26.26-20.89,34.23-35.77,5.36-9.23,8.33-19.96,7.83-30.66-.37-2.82.37-8.25-3.46-8.7-20.44,15.43-35.22,25.82-39.09,52.87-.53-23.31-.15-47.07-5.29-69.95-1.18-28.93-4.05-59.71-27.8-79.91-1.76-1.99-6.41-5.75-7.38-1.21,3.93,28.94,6.95,60.16,30.88,80.26,5.97,26.03,5.13,53.33,5.68,80-5.93-17.44-19.81-31.3-35.68-40.16-2.38-1.16-8.42-4.97-8.71-.02,11.6,21.19,18.71,50.48,43.93,59.42-1.5,33.37-2.89,66.74-5.65,100.04-2.1-21.58-14.68-41.99-33.78-52.51-7.4-2.78-3.22,6.3-2.01,9.79,3.61,10.28,4.9,21.05,9.36,31.08,5.65,11.73,15.04,21.46,25.15,29.48-2.48,35.59-3.24,71.58,1.47,107.02-7.09-16.27-19.42-30.36-36.84-35.73-2.73-.19-6.17-3.54-8.48-1.41-1.4,2.06,1.25,3.14,2.32,4.53Zm146.55,287.99c-31.34.02-37.78-5.85-60.44-26.16,25.42-9.26,44.81,9.08,61.14,26.3-.23-.05-.46-.09-.7-.14Zm52.66,84.61c-11.94-.29-22.71-6.41-34.54-7.43,16.47-14.49,39.49-5.01,56.87,2.8-7.56,1.03-14.55,5.19-22.33,4.63Zm138.2,125.2c-38.44,8.48-79,1.14-111.1-22.07,55.74,20.64,85.01-16.83,145.38,24.43-11.2-2.6-22.83-3.53-34.28-2.36Zm5.19-90.65c.11-10.35,2.38-20.54,1.79-30.93,23.87,21.55,19.81,46.13,19.22,75.12-12.32-12.11-21.51-26.34-21.01-44.19Zm-146.6-314.73c-12.27-7.77-21.85-19.05-28.55-31.86.07.12.13.24.19.35-6.21-11.38-9.5-24.05-12.4-36.6,19.31,37.24,60.6,49.82,72.48,93.37-8.51-10.74-20.38-17.9-31.72-25.26Zm-3.87-127.51c-2.22-23.58-6.19-47.22-13.87-69.69,35.42,41.33,53.22,97.33,48.93,151.57-28.56-20.44-32.75-49.35-35.06-81.88Zm42.3,162.72c.08-.05.15-.11.23-.17,0,.22.02.43.02.65-.09-.16-.17-.32-.25-.48Zm-7.06,187.88c4.12,2.75,8.14,5.88,11.7,9.29,1.5,16.44-3.06,34.69,3.09,50.71-21.73-25.16-18.82-38.61-14.8-60.01Zm22.84,66.9c-11.15-15.46-6.04-35.55-6.97-53.28,12.35,13.2,19.5,30.86,30.02,45.28,6.45,13.83,13.76,27.26,21.91,40.15-15.4-10.13-30.46-20.87-44.96-32.15Zm111.91,76.95c-5.1,3.47-10.98,6.06-17.13,6.75-5.49-4.98-10.77-10.18-15.76-15.63,11.47.73,22.37,4.46,32.89,8.88Zm-52.62,1.49c-5.89-.9-11.87-.98-17.81-.67,7.9-7.42,18.74-10.02,29.35-10.07,4.65,5.75,10.06,10.79,15.39,15.93-9.08-.89-17.9-3.9-26.93-5.18Zm148.47,87.29c-7.14,3.63-15.14,4.8-22.7,7.2,4.56-6.12,7.83-13.02,10.52-20.13,6.8,2.52,13.7,4.79,20.68,6.77-2.49,2.47-5.35,4.57-8.49,6.16Zm16.93-20.05c-.97,3.2-2.45,6.23-4.33,8.98-6.25-1.73-12.45-3.68-18.57-5.87-.97-1.15-2.38-1.87-3.52-2.85,5.28-13.62,18.95-23.1,33.47-23.85-3.71,7.41-4.7,15.73-7.05,23.59Zm-20-59.29c-2.08-11.33-1.78-23.04-5.03-34.19,22.68,14.32,23.96,39.97,29.92,63.37-12.21-5.24-22.29-15.92-24.89-29.18Zm-20.96,21.28c12.68,4.53,25.58,8.65,38.64,12.01-12.04,3.32-22.58,12.06-27.28,23.67-10.96-10.52-16.51-24.86-20.15-38.92,2.92,1.11,5.84,2.19,8.78,3.24Zm-21.55-52.81c1.32,13.91,2.37,28.27,5,42.15t0,0c2.93,15.43,7.82,30.29,17.28,43.33-25.74-15.98-38.33-46.97-38.87-76.37,0-21.89,5.26-43.86-.11-65.57,9.13,17.53,14.53,36.84,16.71,56.45Zm4.1,78.41c-24.31-12.77-46.79-28.18-67.66-46.14,6.77-1.6,12.54-4.18,18.02-8.9,8.81,4.51,17.7,8.85,26.7,12.95,4.18,15.63,11.82,30.47,22.93,42.08Zm-93.7-79.19c7.48,4.33,15.01,8.58,22.59,12.75-6.56-1.74-13.33-2.87-20.06-3.14-3.51-3.72-6.42-7.74-7.74-12.75,1.74,1.05,3.46,2.11,5.21,3.14Zm-18.46-125.6c3.37-20.18,2.55-40.91-2.61-60.73,36.3,51.87,3.99,113.77,6.7,170.36-20.27-36.76-10.51-70.95-4.1-109.63Zm-47.82-130.54c9.34-26.65,18.79-53.72,22.5-81.84,14.64,76.84-12.29,84.56-33.43,144.83-3.52-21.52,3.09-43.01,10.93-62.99Zm-25.81,112.92c.09.2.17.38.25.58-.1-.07-.19-.14-.29-.21.01-.12.03-.24.04-.36Zm-67.6-66.33c7.83,10.66,9.91,21.31,9.36,32.99-4.92-3.51-9.58-7.34-14.01-11.44,2.01-7.09,4.4-14.14,4.65-21.55Zm-26.17,8.24c-.47-.87-.93-1.75-1.39-2.64,5.54,6.81,11.47,13.36,17.86,19.4,0,0,0,0,0,0,1.09,1.02,2.19,2.03,3.3,3.04,0,0,0,0,0,0,4.79,4.29,9.83,8.28,15.17,11.87,0,0,0,0,0,0,1.22.81,2.45,1.62,3.7,2.4h0c31.64,17.94,67.49,30.42,80.95,67.04-4.16-6.4-8.8-11.73-13.84-16.33,0,0,0,0,0,0-1.5-1.36-3.03-2.67-4.59-3.91,0,0,0,0,0,0-3.07-2.44-6.26-4.68-9.56-6.76,0,0,0,0,0,0-1.21-.75-2.42-1.49-3.65-2.21,0,0,0,0,0,0-36.72-18.12-66.08-31.49-86.88-69.95.03.06.07.12.1.18-.39-.71-.78-1.42-1.16-2.12Zm32.02,47.47c-1.31,5.66-2.48,11.31-1.8,17.25-5.55-9.89-10.06-19.05-11.31-29.02,4.11,4.2,8.49,8.13,13.11,11.77Zm5.12,28.38c-3.73-7.97-3.86-17.16-1.56-25.68,15.46,12.05,34.45,18.05,51.2,27.84-4.32,18.1-5.27,37.04,6.22,52.77-20.13-17.02-38.89-35.08-55.66-53.98.01-.3-.04-.61-.19-.95Zm-62.22-181.83c10.54,23.06-5.16,42.09-13.36,62.67-9.01-25.64,5.44-40.42,13.36-62.67Zm-36.31,45.86c-29.26-6.98-22.91-15.2-40.32-32.91,23.87-.95,41.05,18.99,50.75,38.76-3.05-2.63-6.51-4.8-10.43-5.84Zm-18.16-304.42c5.29-11,11.9-21.49,14.71-33.51,9.05,27.52-9.15,47.42-23.7,68.29,1.83-11.86,3.62-23.9,8.99-34.77Zm-3.05-77.71c3.88-32.4,12.52-42.44,36.79-61.37,4.05,27.76-17.99,47.31-37.26,63.33.16-.65.32-1.3.47-1.96ZM19.64,6.16c20.55,17.73,25.81,44.71,25.94,70.62C22.58,50.4,25.45,37.96,19.64,6.16Zm36.42,390.17c6.09-16.97,19.23-30.65,24.27-48.09,5.71,31.95-13.18,48.19-27.48,73.09-.47-8.42.37-17.02,3.2-25Zm-28.88-242.19c-5.29-9.25-8.64-19.45-13.85-28.75,19.44,10.42,35.81,29.31,37.43,52.02-10.38-4.4-17.8-13.9-23.58-23.27Zm10.09,133.8c-19.19-18.39-16.87-31.03-24.96-53.91,21.68,14.71,29.07,33.46,30.22,58.95-1.77-1.66-3.52-3.35-5.26-5.04Zm6.9,125.53c1.42,4.07,2.64,8.36,3.63,12.59.36,1.28.33,3.88,1.81,4.49.11.59.23,1.18.34,1.77-20.86-3.35-24.9-42.8-40.82-57.16,17.41,5.91,29.01,21.43,35.04,38.32Z"/>
  </g>
</svg>