<?xml version="1.0" encoding="UTF-8"?>
<svg id="_Слой_2" data-name="Слой 2" xmlns="http://www.w3.org/2000/svg" viewBox="0 0 1084.04 151.31">
  <g id="_Слой_1-2" data-name="Слой 1">
    <path d="m918.71,42.05c-29.54-4.2-60.24-4.31-89.31,2.96,48.8-46.74-28.94-59.36-34.14,11.4-24.74,9.17-49.87,17.32-75.08,25.1,8.66-8.1,15.85-22.18,10.54-33.78-5.54-9.5-16.4-7.41-24.26-2.18-14.63,10.25-22.72,28.13-22.51,45.87-28.84,7.04-60.1,8.9-87.37-4.85,14-.67,32.23-4.09,41.37-13.34,7.45-7.32,8.74-19.48-.1-26.28-24.61-15.89-58.27,4.38-70.23,27.52-7.08-2.58-14.34-4.49-21.99-4.72-3.15,0-23.04-1.47-19.66,4.82.68,1.02,2.08,1.33,3.11.66,11.93-2.58,25-.88,36.52,3.27,17.4,89.83,76.01,70.64,36.48,15.23,25.73,11.24,55.01,8.52,81.68,2.3,84.96,62.61,89.9-3.79,39.81-10.83,25.15-7.77,50.16-16.04,74.86-25.13,57.49,44.03,107.7,8.59,39.23-12.39,29.74-5.69,60.96-5.27,90.69.79,11.6,62.65,67.72,61.3,35.31,12.75,24.27,12.03,46.13,29.26,67.38,45.87,3.95,6.57,5.94,14.21,9.65,21.07,13.75,32.56,56.29,30.62,39.51-4.72-9.07-14-30.39-21.55-46.55-20.41-.36-.31-.76-.46-1.16-.49-22.65-17.68-45.52-35.69-71.81-47.72,11.36.18,36.45-11.59,19.77-23.26-15.58-6.45-37.58,1.07-50.16,12.75-3.81-.9-7.66-1.66-11.56-2.24Zm-344.99,30.15c8.99-12.18,22.76-22.63,37.73-25.83,15.3-3.67,38.54,6.83,23.23,23.78-11.58,10.1-28.5,11.62-43.36,12.06-1.07-.02-1.77.54-2.1,1.26-5.78-2.38-11.49-5.03-17.34-7.36.47-1.36,1.17-2.64,1.83-3.91Zm17.28,17.16c11.25,8.87,20.09,23.16,19.68,37.81-.45,3.34-1.15,7.79-4.68,9.17-19.91-1.27-31.98-39.12-35.6-55.95,6.83,2.94,13.98,5.51,20.6,8.97Zm97.48.38c.19-14.98,7.08-30.04,18.96-39.38,6.75-5.08,17.43-8.3,20.47,2.35,1.29,13.73-8.26,24.96-19.07,32.1-6.74,1.94-13.55,3.83-20.4,5.53,0-.2,0-.4.03-.61Zm23.38-.19c53.29-3.65,58.35,62.89-21.98,5.02,7.37-1.61,14.48-4.4,21.98-5.02Zm90.05-46.69c13.38-48.95,68.47-36.73,17.78,4.91-6.67,2.1-13.25,4.49-19.81,6.93.47-3.96,1.03-7.94,2.03-11.84Zm29.73,8.42c67.78,16.47,22.45,44.37-27.89,6.81,9.11-2.77,18.12-8.34,27.89-6.81Zm247.62,88.79c-.86,4.09-4.67,6.98-8.83,6.96-20.36-1-26.81-24.36-34.14-39.71,17.26-.09,46.72,11.49,42.97,32.76Zm-120.68-77.94c6.02,7.51,14.13,19.67,8.44,29.13-16.08,6.63-31.94-29.08-34.03-41.67,9.17,2.85,19.61,4.37,25.59,12.54Zm-18.07-20.1c33.02-20.64,66.96,2.98,11.92,9.25-5.61-2.23-11.34-4.15-17.17-5.73,1.58-1.39,3.42-2.48,5.24-3.52ZM21.34,121.95c19.99,2.67,38.25-13.22,46.64-30.15,20.16-9.12,41.27-16.08,62.29-22.97-10.57,9.37-28.65,38.31-10.47,47.64,22.2,1.72,34.78-36.08,34.39-54.31,24.2-6,49.21-8.31,74.26-6.24-13.27,6.5-43.78,37.46-18.28,46,21.79.01,41.31-22.57,49.66-41.41,32.25,10.96,63.93,23.55,97.46,30.58-14.77,3.37-29.5,10.9-36.77,24.78-4.15,7.21-2.6,17.59,6.13,20.32,24.35,3.67,48.81-20.22,61.05-39.19,21.94,2.59,44.86.79,64.77-9.35-9.11,11.03-22.79,41.7-1.46,46.51,22.97-1.44,31.57-39.3,27.74-58.21,26.93-10.36,45.86,8.86,44.6-.16,0,.04.01.07.02.11-11.95-9.34-31.13-8.94-45.32-4.4-8.17-18.75-26.28-39.22-48.5-37.16-25.02,11.55,10.88,41.43,25.78,46.98-20.31,11.19-43.55,14.02-66.42,11.31-38.32-99.63-98.72-52.07-32.6-6.47-32.76-6.71-63.5-19.32-95.03-29.92-7.31-15.71-15.4-31.69-26.75-45.05-32.61-33.26-53.07,15.88.05,40.75-27.01-2.82-54.51-.85-80.82,5.68-61.42-71.15-102.85-10.07-28.49,8.07-20.72,7.14-41.64,13.51-61.35,23.21-12.71-1.72-24.92-6.89-37.83-7.29-31.4-1.31-36.2,35.28-4.74,40.34Zm447.13-7.34c-3.96,10.66-22.17,25.06-24.04,5.4.43-17.58,12.45-37.57,29.9-42.37.11.12.23.24.37.35,1.42,12.42-.66,25.4-6.24,36.62Zm-14.8-38.95c-64.2-41.22-2.65-55.55,20.12-2.64-4.32,1.65-8.54,3.56-12.73,5.55-2.55-.73-5.04-1.65-7.39-2.91Zm-112,54.84c-23.75,8.4-22.96-12.35-7.85-23.83,8.49-7.29,19.65-10.2,30.36-12.58,6.14-1.22,12.51,1.76,18.73,2.24-7.91,12.84-27.01,29.9-41.25,34.17Zm28.39-42.04c-73.75-38.14-27.08-92.33,14.27,3.59-4.16-.59-8.29-1.36-12.4-2.24-.27-.69-.88-1.25-1.87-1.35Zm-116.94-23.93c-7.46,12.64-20.82,27.46-35.08,32-12.15,4.15-16.21-4.62-10.25-14.54,6.58-11.33,17.29-20.2,29.37-25.28,6.15.61,12.2,1.56,18.2,2.74-.65,1.74-1.42,3.42-2.24,5.08Zm-39.43-33.59c-6.04-6.35-12.4-19.9-2.47-25.63,20.72-4.73,36.26,34.75,44.47,49.6-16.02-2.72-30.59-12.65-42.01-23.97Zm-61.05,32.03c-.07.04-.23.1-.34.13.38-.14.72-.37,1.01-.69-.19.22-.41.41-.67.55Zm-11.06,30.92c-25.15,42.96-38.77,2.21-2.22-27.81,3.43-.99,6.88-1.92,10.33-2.81-.08,10.69-3.14,21.19-8.12,30.62Zm-8.6-31.45c-74.07-13.21-41.75-67.39,15.91-3.63-5.31.86-10.58,3.96-15.91,3.63ZM4.25,99.07c9.46-23.74,39.93-8.12,58.02-5.85-7.62,11.88-19.26,22.87-33.84,24.47-11.06,1.23-25.46-5.93-24.18-18.63Z"/>
  </g>
</svg>