<?xml version="1.0" encoding="UTF-8"?>
<svg id="_Слой_2" data-name="Слой 2" xmlns="http://www.w3.org/2000/svg" viewBox="0 0 1252.33 222.77">
  <g id="_Слой_1-2" data-name="Слой 1">
    <path d="m1250.14,69.46c-23.37-4.25-45.29-15.99-69.5-15.41-20.07-.61-39.69,8.28-59.68,5.74.13.04.24.1.36.16-.69-.36-1.49-.47-2.22-.13-17.4-3.19-35.01-5.91-52.74-5.35,16.29-5.33,32.02-12.81,45.26-23.73,7.24.49,23.67-10.05,23.16-18.45-.14-2.5-2.68-4.21-5.07-3.56-12.4,6.88-20.37,19.75-32.94,26.59-37.57,23.84-83.81,21.43-125.49,33.11,31.02-12.33,57.68-33.31,63.04-67.43-1.3-1.75-3.73-1.06-4.62.72-4.97,4.86-10.59,9.1-16.48,12.78-46.59,24.52-25.74,38.16-77.64,63.54-12.61,3.95-25.84,7.34-37.99,11.86-3.13,1.11-6.26,2.24-9.39,3.38,15.52-10.43,29.84-23.4,39.12-39.74,6.16-3.25,20.29-27.38,7.52-28.18-5.79,2.15-13.76,20.27-12.26,26.57-23.48,38.27-67.41,55.95-109.13,66.72,33.04-16.89,49.55-51.98,76.64-75.71,2.22-1.26,1.87-4.62-.76-4.96-1.45-.04-2.8.72-4.18,1.09-21.52,6.91-43.89,16.2-58.09,34.62-11.4,16.69-15.72,34.88-34.04,46.72-30.25,19.63-68.95,24.31-104.56,20.78,38.04.29,70.4-13.52,94.11-43.64,12.23-20.81-10.39-23.52-17.76,10.81-26.36,27.12-69.31,32.45-104.96,24.77,44.82,2.66,75.18-30.13,100.37-62.7,5.3-6.14,11.01-11.87,18.12-15.91,2.97-5.86-4.48-4.04-7.57-2.7-51,9.76-72.72,66.83-123.08,74.87-.99-.86-2.43-.63-3.31.18-2.62-1.62-8.08-8.08-9.07-1.71,14.06,16,41.02,19.59,61.58,21.88,2.52,1.84,6.53.95,9.54,1.84,55.53,8.54,92.74,65.73,152.22,62.73,0,0-.08,0-.08,0,4.63,1.22,7.14-3.98,1.97-5.41-39.14-19.91-66.21-57.36-113.56-61.4,38.83-11.73,81.93-6.27,119.07,9.23,6.8,5.99,13.41,12.85,21.94,16.39,4.1,1.97,10.87,1.74,10.6-4.22-5.2-12.23-21.24-16.4-33.34-17.97-26.02-10.85-54.77-15.29-82.88-14.56,19.44-6.33,38.81-12.04,58.24-18.11,55.62-13.05,102.82,30.1,159.97,12.17,2.66-1.66.95-5.11-1.91-4.75-38.41-1.66-72.53-27.42-111.64-24.03,40.95-15.04,89.28-14.67,129.93,1.33,3.08,4.65,8.96,7.93,14.4,9.18,4.88,1.38,11.41-2.22,6.77-7.26-5.72-4.25-13.56-7.99-20.72-7.27-26.25-10.79-55.59-12.43-83.7-11.19,24-6.86,48.22-13.1,72.74-17.8,51.74.97,76.19,45.69,134.36,36.51,2.06-.26,5.25-.1,5.31-2.91.06-1.76-1.68-2.61-3.22-2.61-34.66-4.84-62.28-31.83-95.67-36.51,23.29-2.18,46.82-.53,69.77,4.08,26.56,9.51,54.22,17.21,82.81,16.01,4.28.55,64.66-3.22,50.34-11.07Zm-279.27-8.48c6.11-6.12,10.18-13.8,15.64-20.44,10.25-13.1,26.71-18.56,39.39-28.88-7.24,27.87-34.52,43.05-59.35,53.35,1.51-1.27,2.95-2.6,4.31-4.03Zm-150.46,34.74c9.34-25.75,33.21-41.22,58.45-49.22-26.27,27.54-38.95,54.73-75.62,71.9,7.17-6.33,13.18-13.96,17.17-22.67Zm-120.93,9.6c19.09-18.28,38.17-38.16,64.28-45.97-28.23,31.75-53.55,70.26-101.34,68.91,13.79-4.91,26.05-13.41,37.05-22.94Zm126.94,84.79s-.05-.04-.08-.07c7.15,5.96,14.78,11.87,23.12,16.19-47.47-2.32-79.9-41.93-122.39-57.52,41.03-.79,68.75,16.31,99.35,41.4Zm107.79-78.88c15.95,5.28,31.56,12.12,48.23,14.83-40.12,6.43-76.92-17.42-116.53-18.21,22.46-6.95,46.34-4.29,68.3,3.38Zm193.05-12.78c-35.88,1.94-63.89-23.93-96.5-34.4,41.71.36,60.07,23.51,96.5,34.4Zm71.38-22.92c-21.66.28-43.45-2.87-63.92-10.5,42.25-8.6,62.52-7.62,103.26,6.82-12.96,2.48-26.13,3.93-39.34,3.68Zm-1027.25-3.89c-16.4-.24-32.78.81-49.15,1.73-40.58-4.52-68.66-35.79-112.86-28.34-3.23.33-12.85.36-8.09,5.47,4.86,1.51,9.8,2.95,14.55,4.85,34.23,16.36,62.32,34.06,102.07,23.33-.33.04-.64.02-.97-.05,19.29-.89,38.64-2.53,57.98-1.92-13.38,3.6-25.04,11.35-37.99,16.07-7.22,2.52-14.59,4.3-22.06,5.95-3.17,1.32-11.08.12-10.02,5.29,23.07,9.11,57.7,7.74,80.57-3.18,14.57-8.21,28.75-18.96,46.11-18.66,16.08,2.61,31.97,6.4,47.45,11.55-19.12.32-38.92,4.88-53.59,17.81-42.35,25.97-15.23,56.84,3.68,3.43,32.67-26.43,71.1-15.2,106.23-2.3,1.68.53,3.37,1.05,5.06,1.56-55.59-3.06-51.03,14.42-90.23,39.04-2.55.4-3.78,3.97-1.02,5.07,3.58,1.56,18.1-3.71,21.96-5.12,9.46-3.6,18.2-7.74,26.45-13.9,44.52-30.36,99.16-5.02,147.32.74-28.99,3.55-59.56,12.43-80.43,33.89-6.2.65-11.94,5.32-16.5,9.39-19.77,19.24-1.73,29.01,12.03,6.89,2.24-3.86,6.22-7.58,7.11-11.93,34.64-35.46,87.87-35.02,134.04-33.74-47.44,9.26-51.06,50.39-86.64,71.21-2.13,1.7-6.97,1.96-6.44,5.48.5,6.31,34.83-9.07,39.42-10.9,41.25-14.19,40.77-55.02,77.6-67.23,21.02-2.14,41-11.04,57.88-23.53,1.7-1.29,4.64-2.35,3.48-4.97-6.03-6.25-9.66,16.18-43.41,3.38-31.03-12.64-51.41-45.35-86.34-49.72-2.97-1.16-4.97,2.72-2.39,4.43,7.5,3.34,12.16,10.88,17.95,16.44,19.75,21.52,46.41,38.23,75.52,42.85-39.3,11.5-87.94-9.05-109.22-43.61-1.9-45.46-32.06-19.16-4.1,2.94,15.95,26.84,46.54,42.69,76.95,47.94-66.34,4.36-69-14.79-107.85-59.26-13.58-13.28-30.75-23.12-49.6-26.67-3.66.13-11.06-4.4-13.19-.98-.7,1.49.3,3.13,1.8,3.57,38.41,20.67,52.55,62.49,96.45,78.2-13.65-2.27-27.39-4.63-40.73-8.25-7.36-1.47-13.74-5.45-19.73-9.83-20.39-14.39-39.41-31.03-52.24-52.82-1.31-7.94-2.51-16.8-8.1-23.04-4.49-5.97-12.16-4.49-11.04,3.74,1.2,8.94,7.32,18.32,15.28,22.59,12.94,21.75,32.17,38.66,52.64,53.24-9.82-2.98-19.57-6.15-29.39-9.14-46.11-22.47-71-76.77-129.53-71.78-3.63.86-9.08-2.23-11.48,1.29-.72,1.65.67,3.43,2.38,3.52,4.29-.09,8.1,2.09,11.91,3.82,12.3,5.53,21.91,15.4,32.63,23.32,18.59,13.34,42.04,16.91,61.24,29.2-25.05-8.87-50.32-17.83-76.66-22.11-27.26-8.81-58.6-11.19-81.8-29.84-3.95-8.29-7.97-18.36-16.58-22.93-2.65-1.39-7-1.45-7.78,2.13,2.47,21.98,47.48,40.7,66.9,45.54-8.49,0-16.99-1.05-25.48-1.14Zm-70.07,4.67c-32,4.71-58.69-15.47-86.8-26.79,33.39-4.39,61.19,17.29,91.68,26.22-1.62.22-3.24.41-4.87.57Zm383.42,96.43c-12.42,20.86-34.26,32.48-56.62,40.01,25.78-23.82,37.29-57.37,75.52-63.71-7.98,6.42-13.26,15.3-18.9,23.71Zm27.29-58.55c-18.06-8.9-31.96-23.62-45.45-38.3,34.47,10.3,55.14,49.21,93.18,50.85-1.72.35-3.49.43-5.24.55h.04c-15.16.36-29.25-6.47-42.54-13.09Zm-108.36-8.26c-16.04-14.91-27.83-34.31-46.23-46.63,38.89,7.47,55.96,45.39,82.55,69.83-13.09-5.89-25.76-13.34-36.32-23.2Zm-105.15-18.96c-14.31-6.31-29.79-10.31-42.77-19.33-11-7.83-20.48-17.88-32.83-23.73,40.25.53,59.47,24.27,87.2,48.78-3.78-2.07-7.64-4.01-11.6-5.72Zm-.64,46.13c-10.22,7.51-21.41,13.35-33.73,17.31,30.68-27.78,37.88-33.87,81.21-30.74-16.62.37-33.41,4.41-47.49,13.43Zm-85.1-52.69c-36.16,18.63-49.52,29.71-93.44,22.46,33.01-6.34,59.52-31.97,95.02-22.97-.53.17-1.05.34-1.57.52Z"/>
  </g>
</svg>