<?xml version="1.0" encoding="UTF-8"?>
<svg id="_Слой_2" data-name="Слой 2" xmlns="http://www.w3.org/2000/svg" viewBox="0 0 390.51 522.32">
  <g id="_Слой_1-2" data-name="Слой 1">
    <path d="m209.07,97.41c.1,0,.19,0,.29,0h-.29Zm11.15-4.77c.59.63.74,1.59.42,2.41-2.34,8.52-4.64,17.05-6.98,25.56-4.69,17.19-9.4,34.38-14.1,51.56-6.19,21.28-10.57,43.05-18.93,63.61-11.3,31-31.98,56.73-55.25,79.58-31.29,46.97-37.06,105.81-55.42,158.37,15.7,4.49,66.57,31.11,34.48,46.36-22.11,5.88-45.75-.98-66.54-8.84-66.92-28.87-36.02-58.43,21.5-40.87,12.63-32.84,23.88-66.36,33.32-100.28,5.53-18.35,10.34-36.87,10.19-55.99-.01-3.72-.15-7.54-.92-11.19-5.53-16.24-5.19-42.27-4.93-55.93,1.54-28.39,11.33-55.43,18.31-82.79,9.06-30.22,15.37-62.28,25.82-91.6,13.57-8.13,53.66,5.57,68.34,11.39,3.88,2.08,9.62,3.83,10.68,8.65Zm-74.71-17.61c18.33,11.12,48.34,18.6,69.7,17.45-19.54-11.52-46.85-18.19-69.49-17.51-.07.02-.14.04-.21.06Zm30.15,84.18c-18.02,46.2-49.78,27.22-68.55,52.43-1.81,7.57-3.04,15.28-4.3,22.95,36.4-11.43,85.7-17.13,91.4-63.21,1.88-10.15,4.47-29.98-.4-39.05-7.58-10.53-16.09,21.8-18.16,26.88Zm-106.6,318.97c-.85,4.57-.14,9.32,2.12,13.41,1.24,2.6-2.67,4.64-4.05,1.97-3.01-5.23-3.31-11.11-2.4-16.87-1.02-.34-2.05-.66-3.08-.97-1.4,3.11-12.44,15.56-15.65,11.49-1.66-3.08,2.91-4.16,4.59-5.85,2.5-1.99,5.02-4.12,6.63-6.92-.43-.12-.88-.26-1.31-.37-.09-.02-.17-.04-.17-.04-10.85-3.55-63.23-11.51-48.24,12.12,20.6,21.5,52.2,30.12,81.05,31.65,46.18-1.16,6.56-30.79-13.8-37.45-1.88-.76-3.78-1.48-5.68-2.16Zm5.02-34.67c-3.36,9.43-6.38,18.93-10.32,28.16.64.2,1.27.4,1.91.6.23-.91.49-1.81.76-2.7,2.35-8.74,5.14-17.36,7.66-26.06Zm46.01-128.54c-3.87,1.5-9.25,1.65-12.26-1.83-.15-.06-.29-.14-.43-.24.09,12.23-1.04,20.43-3.33,31.75,4.2-10.47,9.3-20.5,16.01-29.68Zm66.97-114.12c-20.37,25.96-56.02,28.38-84.97,38.77-.64,22.81-3.29,50.14,8.57,70.38,19.98,9.42,57.19-53.24,63.28-69.61,5.44-12.82,9.72-26.04,13.12-39.54Zm16.95-62c-1.52-2.73-3.2-5.29-5.07-6.29,2.15,5.58,1.92,11.33,2.1,17.15.99-3.62,1.98-7.24,2.97-10.87Zm11.44-41.83c-24.38.68-50.97-6.01-72.2-18.01-11.15,40.9-22.28,81.81-33.43,122.71,21.13-14.55,45.85-9.54,58.44-36.83,7.77-15.61,13.62-56.58,37.37-31.95,1.12-4.09,2.23-8.17,3.35-12.26,2.16-7.89,4.31-15.77,6.47-23.66ZM64.1,498.37c-8.54-1.22-18.57-4.33-23.4-12.02.25-2.53-3.65-3.33-4.4-.84,2.73,13.6,21.62,16.91,33.48,17.98,2.78.44,9.93-1.06,7.43-5.06-1.29-1.49-2.85-.46-4.16.34-2.92.7-6.01-.15-8.95-.41ZM321.23,7.14c4.11,36.3,9.27,72.66,12.87,108.94-.4,36.76-1.47,72.41-13.1,108.86-9.97,21.9-6.93,46.3-3.63,69.49,6.25,38.64,8.09,77.93,16.29,116.26,15.62-1.22,58.02-3.42,56.83,19.58-9.34,21.47-43.8,26.09-64.65,28.82-71.52,5.77-70.91-35.38-3.99-46.75-2.08-26.69-5.68-53.31-9.23-79.85-4.78-26.29-4.1-54.48-16.38-78.77-11.17-20.5-30.43-42.58-36.13-64.02-19.84-55.56-20-115.29-28.08-173.23-3.52-13.47,92.94-24.1,89.19-9.33Zm13.69,407.95c.95,3.4,2.82,6.64,5.2,9.19,2,2.06-1.04,5.28-3.18,3.18-3.26-3.43-5.24-7.51-6.62-11.87-1.39.15-2.76.39-4.14.6-.57,3.42-1.4,16.97-6.41,15.77-2.7-1.27-.5-4.25.02-6.12,1.02-3.01,1.52-5.88,1.84-8.87-16.43,1.34-71.23,22.88-31.43,35.47-.04-.01-.07-.02-.11-.03,24.78,5.72,51.47,2.02,74.98-6.8,41.53-17.34,13.08-32.34-16.3-31.23-4.62.01-9.23.25-13.83.69Zm-23.46-175.31c-4.15,3.78-10.01,6.96-15.42,4.18,16.31,25.85,15.89,57.34,20.83,86.57,3.67,26.93,7.29,53.97,9.47,81.08.93-.14,1.85-.27,2.78-.4-5.67-27.36-8.52-55.05-11.6-82.78-2.81-29.35-11.58-59.17-6.06-88.65Zm16.76-80.02c-14.07,13.44-33.56-6.9-44.57-16.35-21.43-17.57-24.1-42.28-39.83-63.33,3.52,30.5,5.71,61.26,15.05,90.68,6.06,25.46,40.55,108.28,60.07,46.43,5.55-18.74,6.69-38.2,9.29-57.44Zm-9.08-.05c12.1-1.67,11.67-23.07,1.65-27.49-20.68-11.89-44.85-18.31-62.07-35.74,9.04,24.78,33.04,58.67,60.42,63.22ZM236.92,19.63c2.04,18.01,4.12,36.01,6.17,54.02,3.67-.83,8.63,9.35,11.17,11.42,6.2,7.48,13.86,14.29,21.96,19.4,16.43,12.06,38.14,15.16,53.16,29.05.7-40.97-8.62-81.62-12.21-122.41-24.94,9.04-54.01,12.44-80.25,8.52Zm.45-4.6c24.9,4.33,51.65.25,75.66-6.95,1.13-.48,2.27-.97,3.28-1.68-24.8-4.21-54.65-.5-78.18,8.14-.26.15-.52.31-.76.48Zm95.48,421.59c-5.84,1.07-13.33,2.19-18.05-2.22,2.37-2-.75-5.46-3.01-3.35-4.98,4.61,2.6,9.69,7.05,10.36,6.3,2.37,35.13-2.24,30.77-12.22-1.27-2.67-5.27-.92-4.13,1.8-1.63,3.29-9.1,4.64-12.62,5.63ZM146.39,157.38s0,0,0,0c-6.82-9.47,6.66-21.22,15.12-13.19,10.69,10.14-6.51,25.17-15.13,13.19Zm2.74-6.1c-.59,7.17,10.67,8.03,11.16.84.71-7.28-10.75-8.13-11.16-.84Zm23.99-30.63c-10.97-6.27-.03-22.39,9.86-14.54,8.22,6.42-.85,19.82-9.86,14.54Zm-.01-8.54c-1.1,5.74,8.04,7.09,8.58,1.23.58-5.32-7.64-6.52-8.58-1.23Zm107.12-49.58c-8.65,5.62-20.4-3.63-16.98-13.36,1.94-6.63,10.11-10.07,16.21-6.83,7.98,3.68,8.44,15.91.77,20.19Zm-12.92-10.94c-1.49,9.01,12.67,11.15,13.93,2.11,1.5-9.01-12.7-11.17-13.93-2.11Zm33.76,56.49c-7.7-6.69,2.16-19.08,10.42-13.06,9.49,6.51-1.95,20.85-10.42,13.06Zm1.79-6.81c-.84,4.93,6.9,6.16,7.64,1.21.87-4.95-6.92-6.18-7.64-1.21Zm-138.22,137.67c-11.28,20.2-22.9,42.8-42.71,55.74-1.18.97-.52,2.97.99,3.08,6.91,3.63,56.96-66.32,41.73-58.82Zm154.26-67.29c-3.21.36-1.72,5.28-2.6,7.56-1.39,12.17-4.31,23.89-7.92,35.6-.1,2.89-5.71,13.13-2.21,14.06,3.52,2.69,18.43-58.91,12.72-57.23Z"/>
  </g>
</svg>