<?xml version="1.0" encoding="UTF-8"?>
<svg id="_Слой_2" data-name="Слой 2" xmlns="http://www.w3.org/2000/svg" viewBox="0 0 451.62 846.47">
  <g id="_Слой_1-2" data-name="Слой 1">
    <path d="m330.1,46.76c3.74-11.98,8.27-32.08-4.17-40.18-9.64-2.53-20.25,15.99-32.56,15.04.75-8.81-2.83-25.26-14.81-20.88-10.95,7.25-20.77,17.18-34.59,18.84-29.83,5.05-49.9-10.54-79.86,8.81-37.27,23.6-45.83,113.68.5,131.06,3.63,78-24.15,104.51-92.69,136.21-1.89-.8-4.14.48-4.6,2.41-2.56,1.81-6.79,2.37-8.04,5.48-40.8,27.05-47.13,79.92-47.61,124.9-2.44,56.53-9.58,112.88-11.68,169.39,20.19,68.1,55.34,131.11,90.21,192.44-7.59,18,6.71,19.81,19.52,26.83,21.07,9.36,41.64,19.8,62.61,29.38,27.86-2.4,45.47-54.47,56.63-76.91,9.88,19.8,19.42,39.73,29.21,59.58,2.86,4.26,3.9,10.92,8.83,13.22,23.84,2.23,45.32-11.08,66.14-20.78,13.36-5.78,27.24-10.23,40.81-15.51,1.48-.55,2.12-1.69,2.18-2.89.78-.84,1.15-2.05.6-3.42-5.49-12.64-10.43-25.51-15.28-38.41,55.58-121.41,104.05-137.69,86.51-286.03-3.45-27.82-8.42-55.48-9.75-83.53-1.22-21.67-8.45-42.9-17.4-62.73-13.69-31.09-48.91-36.27-76.77-48.92,0,0,0,0,0,0-34.15-17.64-93.34-27.43-86.99-77.58,34.12,3.22,34.58-37.85,39.17-61.88,2.45-19.79,5.59-40.24-.42-59.8,17.16-3.23,28.75-18.31,34.29-34.13Zm-164.34,104.96c-.05-.02-.1-.04-.15-.05.37.11.75.17,1.12.16-.17.04-.34-.02-.52-.02h0c-.15-.03-.3-.06-.46-.1Zm-10.69,91.93c6.95,10.23,23.09,25.99,32.89,35.33-6.23-1.6-12.48-3.15-18.82-4.02-10.5-.2-8.42,27.98-8.24,35.29,1.08,6.95-1.84,17.69,6.5,20.77,15.24,2.72,30.51-7.49,44.55-12.5,3.62,3.2,10.37,1.3,14.86.82,2.07,69.03-.34,137.94-3.18,206.88-45.63-76.89-81.72-160.32-109.02-245.43,17.28-9.58,32.01-22.62,40.46-37.14Zm119.32,77.51c-12.67.49-24.92-6.25-37.03-9.52,2.4-5.35.29-12.36-.69-18.46,11.27-5.22,23.12-10.77,35.46-13.29,5.01,7.68,2.04,31.24,2.25,41.27Zm-42.08-3.43c-.51.37-1.16.53-1.78.54.65-.03,1.26-.22,1.78-.54Zm-1.32-8.86c-5.24,5.54-10.92,3.6-17.53,4.52-.63-4.39-3.72-19.67.96-21.49,2.36-1.7,12.35-2.85,14.07-.36,2.2,5.25,3.61,11.68,2.51,17.33Zm-24.82,4.52c-6.76,2.03-33.55,16.51-37.51,9.35-.69-13.51-2.63-27.52,1.16-40.73,12.03,2.81,24.37,4.98,35.96,9.36-1.14,5.78-.89,13.35.39,22.02Zm-97.73-29c28.55,88.7,66.6,175.46,115.05,255.16-5.69,24.13-2.49,50.08-3.69,74.83-30.69-62.28-91.58-102.26-126.08-161.71-16.44-47.7-15.92-100.3-19.65-150.26,11.49-5.95,23.12-11.66,34.37-18.03Zm7,428.66c-.77-2.06.29-4.13.6-6.2,16.98,7.88,34.95,12.63,51.95,20.79-.22,2.81-.54,5.63-1.09,8.39-18.63-2.49-35.6-11.66-52.34-19.83.77-.74,1.19-1.82.87-3.14Zm-4.11-17.5c-7.82-32.62-16.93-64.92-25.77-97.27-4.7-17.8-7.94-18.9-2.46-37.57,5.06-21.88,10.19-43.74,15.06-65.66,7.63,43.35,14.15,86.97,25.48,129.69-1.74,23.89-8.22,47.23-12.31,70.81Zm-37.98,50.03c-26.41-47.24-50.37-96.33-66.34-148.15,4.23-71.9,10.37-144.21,14.78-215.91,7.38-30.27,16.65-58.41,45.19-74.41-.02,7.99.49,15.99,1.31,23.94,7.09,45.31,1.31,95.54,25.62,136.26-.01,35.6-15.03,71.14-20.9,106.65,8.71,46.32,25.6,91.59,35,138.07-4.7,23.09-9.71,46.11-15.44,68.96-6.35-11.83-12.75-23.65-19.22-35.41Zm150.84,15.05c-6.73,21.3-28.84,70.65-49.58,79.22-26.1-13.68-55.13-23.37-79.68-39.33,6.57-25.52,12.84-51.3,17.68-77.5,17.37,8.52,34.97,17.82,54.43,20.04,7.73.95,7.16-8.93,7.86-14.17,5.39-10.56-48.39-22.47-57.35-29.1,4.98-23.3,9.8-46.68,12.91-70.29.84-11.59-4.66-22.59-6.67-33.88-9.02-38.37-13.83-77.43-21.32-116.23,31.95,41.94,73.86,75.4,101,121.01,5.51,8.79,10.24,18.36,16.32,26.96,2.39,43.76-6.31,89.86,4.79,132.38-.17.26-.3.55-.38.88Zm145.18,39.71c-15.54,5.96-31.54,10.85-46.43,18.37-16.74,8.33-34.23,17.38-53.42,16.96-14.11-28.18-28.82-56.23-41.14-85.25-3.71-40.14-1.44-80.88-1.44-121.33,34.14-53.86,90.01-91.16,123.39-146.09-.39,3.25-.65,5.86-1.02,9.27.01-.09.02-.18.03-.27-4.48,40.83-12.49,81.27-18.9,121.84-8.38,37.69-8.5,46.32,2.23,83.63-1.81-1.76-4.69-.32-6.75.76-11.62,5.21-23.41,10.07-35.26,14.73-4.05,2.7-12.14,1.93-13.65,6.97-1.83,2.68.95,5.37,2.07,7.74,1.36,2.15,2.1,4.85,4.28,6.35,9.65,3.06,45.83-14.25,55.46-20.84,8.62,29.56,18.18,58.86,30.55,87.15Zm-38.67-96.55c.56,1.89,1.44,3.53,2.43,5.13-14.75,7.47-29.95,14.77-46.04,18.83-1.06-1.48-1.8-3.37-2.69-5.11,15.79-5.19,31.02-12.33,46.3-18.86Zm7.03-18.55c-.32-.35-.7-.6-1.11-.76-7.08-22.33-6.63-37.55-1.03-60.05,7.65-45.28,16.22-90.5,21.17-136.17,14.24,122.91,13.18,82.07-19.04,196.98Zm71.36-362.29c22.36,33.5,21.66,74.98,26.49,113.42,2.14,16.15,4.87,32.23,6.32,48.46,14.75,134.46-32.14,156.74-83.82,266.98-6.01-17.63-11.03-35.57-16.17-53.47,6.5-34.43,20.57-67.02,29.06-100.99,5.77-21.31-.85-42.95-2.69-64.34-1.95-20.16-4.1-40.29-6.03-60.45-.62-2.71.64-6.56-2.43-7.96,21.44-51.65,16.62-110.06,15.08-164.83,13.06,5.05,25.89,11.28,34.19,23.18Zm-40.92-25.79c8.46,166.75-12.4,181.39-124.03,296.49-6.01,7.55-12.09,15.11-17.29,23.24.43-24.25-.86-49.01,2.48-73,1.75-.65,3.07-2.53,2.15-4.6,39.7-82.89,89.18-165.57,94.57-259.51,13.82,6.34,27.79,12.3,42.13,17.38Zm-79.12-33.56c10.13,4.23,20.17,8.67,30.19,13.14-4.61,89.42-49.83,169.36-88.61,247.99,3.15-69.02,5-138.07,3.21-207.17,11.29,4.43,23.19,8.27,35.14,10.66,10.01,1.7,13.53-3.19,12.6-12.69.22-37.76,5.26-53.35-37.59-33.38,8.94-9.89,17.5-20.2,24.4-31.62,6.02,5.59,13.1,10.08,20.65,13.07Zm-25.66-18.25c-8.64,14.64-20.01,27.44-31.65,39.74-5.7-3.24-14.55-2.24-20.68.56-3.39-.89-6.75-2.47-10.28-3.41-13.67-15.12-30.53-28.19-41.82-45.6,11.84-23.87,14.36-53.83,11.99-83.8,1.5.53,2.89.86,4.56.76,4.97,32.32,46.92,42.88,74.54,48.04-2.02,16.14,2.73,31.72,13.35,43.71Zm21.18-78.81c-3.96,28.47-18.01,33.06-44.03,26.27-20.7-5.28-54.73-15.27-57.88-39.58-1.81-3.44-.46-9.78-4.94-10.94-2.28-.34-4.25,1.74-3.93,3.98-16.92-.69-14.63-52.41-3.27-30.65,21.57,48.94,20.71-17.57,32.68-31.84,6.97-11.63,21.8-1.37,32.31-1.7,10.86,1.24,21.81-.04,32.6-1.38,7.26.94,14.55,2.14,21.85,1.24,4.71,28.12.36,56.83-5.38,84.6Zm18.45-95.48c-10.75,5.22-22.76,4.68-34.17,2.61-10.04.93-20.1,2.52-30.22,1.7-10.03-.52-19.78-4.51-29.83-4.09-18.94,5.47-21.14,37.46-25.64,53.75-4.54-5.02-5.18-12.38-9.41-17.66-23.11-18.52-24.01,31.99-10.42,40.95-.04,1.05.02,2.11.15,3.18-36.64-22.8-27.95-93.73,4.3-117.15,44.97-25.14,62.42,14.81,115.03-27.28,4.72,4.89,2.72,11.98,4.11,17.92,9.18,11.7,27.97-6.59,36.6-11.81,10.17,16.9-3.76,49.19-20.51,57.89Zm-85.59,345.37c6.42-4.26,8.59,6.98,1.68,7.35-3.84-.23-4.07-5.16-1.68-7.35Zm1.99,31.35c6.58.41,3.88,8.93-1.98,7.1-4.56-1.4-2.7-8.5,1.98-7.1Zm-4.42,34.32c-1.88-2.93.87-7.44,4.12-7.56,2.8-.02,4.36,3.78,2.46,5.75-.41,2.82-4,5.12-6.57,1.81Z"/>
  </g>
</svg>