<?xml version="1.0" encoding="UTF-8"?>
<svg id="_Слой_2" data-name="Слой 2" xmlns="http://www.w3.org/2000/svg" viewBox="0 0 1137.9 1161.07">
  <g id="_Слой_1-2" data-name="Слой 1">
    <path d="m469.37,99.47c-3.02-.53-.58-5.31-.3-7.25,1.95-8.44,12.95-13.27,17.34-3.91.68,1.38,1.1,2.89,1.14,4.43-.02,2.26-3.41,2.32-3.5.06-.11-2.22-1.26-4.31-2.97-5.66-10.08-2.96-7.91,12.93-11.72,12.33Zm11.7-2.39c-1.07-.52-2.4.39-2.47,1.58-.72,1.27-2.2,3.1-.42,4.19,2.38,1.43,5.54-4.72,2.89-5.77Zm100.4,21.62c5.28-.03,10.02,2.88,14.29,5.76,1.93,1.23,3.79-1.67,1.9-2.94-4.55-2.93-11.11-7.28-16.69-5.95-1.25.75-.88,2.79.5,3.14Zm-14.71,14.69c2.92,1.84,6.2,3.16,9.68,3.39,2.29.08,2.47-3.31.18-3.5-4.12.9-10.41-6.55-12.49-3.4-.82,1.86,1.43,2.67,2.64,3.5Zm-23.99-33.45c2.61,1.62,5.19,3.44,7.24,5.74,1.65,1.41,3.89-.94,2.41-2.52-1.41-1.69-11.09-10.17-12.5-6.52-.86,2.03,1.52,2.55,2.85,3.3Zm64.96,52.54s0,0,0,0c0,.03.01.05.02.08,0-.02-.01-.05-.02-.07Zm12.83,24.98c1.36-3.56-1.38-7.71-5.07-8.22-1.63-.19-2.62,1.97-1.39,3.06.49.54,1.46.39,2.03.87,4.83,4.53-5.54,8.62-3.59,11.04,2.42,3.25,7.55-4.51,8.02-6.75Zm-120.84,149.73s-.09-.03-.14-.02c0,0,.14.02.14.02Zm38.49-211.07c.56,2.13,4.64,4.16,6.19,4.83,2.08.97,3.55-2.21,1.49-3.17-.86-.33-1.66-.75-2.42-1.24-1.22-1.69-3.06-2.78-4.3-4.69-.59-.75-1.74-.84-2.46-.25-1.72,1.55.49,3.28,1.5,4.52ZM224.05,404.03s-.04,0-.06,0c0,0,.06,0,.06,0ZM74.4,981.6s-.01,0-.02,0c0,0,0,0,0,0,0,0,.01,0,.02,0Zm98.01-397.01c-.08,0-.15,0-.23,0,0,0,.23,0,.23,0Zm745.96,465.74s0,.01-.01.02c0,0,0-.01.01-.02Zm182.27-13.88c-12.8,3.68-25.57,7.57-38.5,10.7,55.45,17.57,18.94,49.28-19.03,3.93-14.55,2.52-29.34,3.79-44.19,4.79,9.61,3.32,19.46,7.9,25.65,16.26,7.32,9.55.81,17.43-10.16,17.04-19.66-.51-43.85-13.13-52.68-30.79-15.44,1.28-30.76,3.16-45.75,6.73,11.27.32,24.28.85,33.6,7.83,5.4,13.89-15.95,17.55-25.79,16.09-13.06-1.9-28.01-3.77-38.25-12.72-.56.14-1.12.12-1.65-.2-8.15,3.46-16.01,8.07-23.1,13.37-.23.69-.5,1.36-.8,2.02,51.55-11.23,83.95,19.9,122.98,46.58,4.58,3.05-.26,5.76-3.7,5.88-45,7.58-89.51-14.56-125.19-40.11,7.47,9.71,19.02,14.67,28.17,22.5,5.61,4.66,10.17,10.37,14.9,15.88,2.4,2.27,6.67,6.11,1.79,8.24-41.44,5.39-85,.13-126.88.2-15.92-.3-31.92-2.39-47.66-.09-18.43,3.53-36.29,10.86-55.34,10.49-26.36-.75-51.68-11.43-77.79-13.89-29.56-2.84-59.44-1.17-89,.58-3.48,1.52-8.03-.58-11.85-.1.08,0,.13,0,.23,0-9.2.18-19.25-2.64-26.7-7.75-1.04-1.89-.06-4.44-.11-6.53-25.66.54-51.11-6.67-76.73-5.3-4.43.39-9.16.75-12.71,3.69-2.79,3.09-35.84.04-29.45-6.23-.71-6.75-1.68-13.49-2.17-20.26-17.7,15.5-40.78,18.85-62.6,24.79-11.54,3.72-23.12,7.36-35.09,9.32-8.16,1.4-26.79,5.16-12.25-7.43,14.83-13.48,28.1-29.1,44.89-40.21-54.02,11.8-120.09-8.12-165.17-38.57-9.59,4.38-20.46,2.89-30.27.21-5.69,3.95-13.04,8.55-17.93,9.8,3.13,19.46-24.37,17.82-26.14.92-2.2-16.3,19.72-17.74,25.02-4.36,5.41-1.47,10.11-4.53,14.69-7.67-11.46-3.81-22.2-9.97-31.81-17.15-12.72,10.31-28.16-9.37-15.13-19.24-2.73-6.91,2.39-15.11,9.7-15.73-8.47-3.66-15.34-9.9-21.36-17.75-16.25,10.99-22.02-14.06-8.69-21.52,13.06-7.8,19.69,10.28,11.22,19.03,7.75,10.68,19.09,19.17,32.54,20.14-1.57-1.92-4.2-4.73-4.05-6.59-2.04-4.03-3.32-7.74-5.09-11.96-10.39.96-13.34-14.85-3.28-17.66,10.22-3.41,16.46,12.08,6.74,16.72,3.79,12.68,12.06,22.64,21.15,31.89.71-5.23-.23-10.74-1.66-15.76-12.21,3.47-18.54-17.67-4.13-17.75-7.36-6.76-1.18-19.97,8.64-18.79,9.93.42,13.85,14.49,5.51,19.93,11.02,14.42,18.98,34.87,13.8,52.89,1.1.91,2.2,1.82,3.31,2.72.96-.13,2.01.51,2.03,1.63,5.11,4.07,10.27,8.13,15.56,11.97,2.54-19.81-.64-41.76-11.79-58.63-11.37,10.89-23.26-6.9-13.67-16.66,9.54-10.71,22.84,2.76,15.94,13.7,10.49,14.79,18.26,46.12,11.77,62.96.03.1.05.19.06.29,27.52,19.76,59.29,30.12,93.87,37.38-7.42-4.59-12.53-11.83-13.12-20.9-18.42-5.63-25.93-30.16-17.4-46.53-35.77-16.28-58.56-49.31-80.66-80.3-30.82-36.13-56.54-77.86-94.05-107.57-1.48-1.22-4.93-2.11-3.47-4.52.05-1.07,1.22-1.79,2.21-1.5,21.98,17.8,48.6,27.81,73.61,40.4,54.15,27.4,102.17,67.94,137.4,117.38,19.31-13.53,47.62-1.5,59.06,16.76-3.64-8.37-7.2-16.77-10.89-25.12-6.99,2.18-18.21,2.62-22.77-4.15-2.31-9.3,13.34-9.02,18.44-5.43-3.87-8.46-8.02-16.86-13-24.72-24.3,10.55-28.42-15.19-7.04-10.49-4.51-6.3-9.34-12.37-14.43-18.23-35.34,17.05-31.63-16.96-7.29-8.09-5.8-6.16-11.65-12.25-17.98-17.86-22.24,18.71-36.31-6.33-10.42-9.18-9.17-7.97-18.47-16.09-25.32-26.21-9.93,2.24-19.18-5.83-16.69-15.98.72-7.24,7.92-13.87,14.08-7.25,4.56,5.78,6.18,13.92,5.39,21.11,6.34,9.4,14.91,17.01,23.29,24.36,2.75-30.74,23.72-16.7,11.91,10.42,4.96,4.48,9.73,9.16,14.35,13.99-.95-7.22,7.99-24.9,15.29-14.24,3.18,8.72,1.37,19.46-3.49,27.26,4.6,5.37,9.12,10.8,13.25,16.53-.29-6.88,8.43-19.03,12.81-8.19,1.12,4.88-.2,17.73-4.29,20.95,3.4,5.57,6.59,11.28,9.43,17.16,1.39-5.36,4.94-18.65,12.59-14.05,5.08,5.1-.16,25.03-5.02,30.71,10,22.39,18.81,45.35,31.17,66.58-7.88-24.53-2.97-51.73-3.23-77.2-.63-29.83,30.93,35.96,32.17,41.39-14.46-61.97-54.59-112.31-93.04-161.37-22.74-1.64-38.9-17.94-55.15-32.07-1.85-1.99-7.96-4.79-4.92-7.91,13.81-2.69,32.99,9.88,43.75,18.33-23.06-28.79-45.38-61.23-47.67-99.19-17.28-4.21-35.91-4.98-51.75-13.84-16.88-8.91-48.62-29.03-19.94-45.16,4.32-4.15,3.14-12.01,8.9-14.79,11.17-2.27,16.04-12.5,27.01-4.48,5.32-9.06,15.05-1.22,22.6-1.44,9.05-2.1,12.8-8.09,21.55-.65,6.75,2.38,13.8-1.18,20.59.52,3.76,1.02,7.27,2.19,11.06,2.82,14.69,1.12-.38,25.82-3.09,33.29-5.59,11.7-12.19,22.73-20.41,32.72-2.03,2.21-9.42,12.58-12.89,12.88,1.25,15.72,6.51,31.19,13.25,45.34-1.95-13.51.91-27.86,2.4-41.36,6.15-7.46,9.29,14.3,9.51,18.1,1.09,13.15.56,26.98-2.67,39.69,12.12,19.83,29.1,37.71,41.68,56.33,24.26,32.49,50.82,63.65,69.42,99.93-1.15-6.65-1.37-13.47-.76-20.16-10.09-20.32-13.89-44.95-30.94-61.08-9.42,0-20.23-7.82-25.58-15.44-6.23-10.33,1.67-18.93,11.83-11.31,5.61,4.65,17.8,16.46,16.22,24.24,16.02,15.05,20.7,37.48,29.26,56.91,1.3-8.6,3.54-17.1,5.75-25.44-16.17-24.53-25.77-52.83-32.17-81.3-8.67,1.16-22.46.51-23.79-10.45-9.43-1.55-22.93-6.54-27.48-15.22-4.97-6.59.66-13.3,5.17-19.31,6.61-10.53,22.52-17.21,33.27-9.15-.33-5.04,3.5-6.74,8.18-8.53-7.71-9.64-14.17-20.64-16.19-32.94-6.95,2.82-15.99-2.36-14.05-10.16-24.53-31.8,4.54-58.92,20.02-7.02,4.01,4.37,1.08,11.39-2.64,15.67,1.73,12.41,8.46,23.57,16.28,33.11,5.82-1.28,9.46-8.89,15.64-7.87,11.64,9.57,12.37,33.04,7.03,45.59.41.46.57,1.12.2,1.91,5,11.46,13.71,20.73,20.02,31.43,6.78,10.66,10.74,22.59,13.86,34.71.96,2.94,3.66,6.76,2.43,9.76.39,1.51.77,3.02,1.15,4.54.84.5,1.03,1.66.63,2.53,1.04,4.15,2.15,8.27,3.61,12.25.15-16.96.67-33.93,1.43-50.88-5.62-21.73-16.31-41.75-23.33-63.02-5.98-17.24-9.64-35.14-16.5-52.1-9.55-24.2-22.13-47.77-40.15-67.01-43.89,14.34-47.62-22.6-11.82-13.18-2.86-3.21-5.75-6.39-8.69-9.53-10.67,4.54-21.83,10.12-33.46,8.25-11.43-3.29-9.08-19.36,2.66-20,8.43-.93,16.35,1.93,24.16,4.75-4.02-4.16-8.08-8.28-12.17-12.37-59.15,23.25-65.69-33.69-8.65-8.59-5.78-5.7-11.57-11.39-17.32-17.11-17.52,7.44-41.33,7.52-57.07-3.12-17.35-24.96,40.3-8.72,49.21-4.77-7.68-7.79-15.21-15.71-22.46-23.9-.78-.23-1.13-.68-1.25-1.22-16.35,2.95-38.64,4-52.37-6.95-6.11-5.04-6.83-14.8,1.54-17.81,13.89-3.28,27.61,5.23,39.63,11.19-6.41-8-12.59-16.19-18.57-24.53-.34.12-.8.12-1.2-.09-56.02,10.72-75.99-62.65-8.46-13.94-8.99-13.82-18.07-27.87-23.49-43.53-13.32-12.08-18.11-33.17-12.1-49.97,4.3-7.92,12.32-3.39,15.07,3.21,3.58,7.34,3.9,15.61,3.77,23.63-.88,7.34,1.61,18.99-2.39,24.75,4.95,13,12.29,24.91,19.79,36.56-1.39-9.72-.33-20.88,1.53-27.93,5.01-16.07,19.87-5.94,18.76,7.04-.05,12.83-4.91,25.12-9.27,37.01,5.77,8.25,11.82,16.32,18.13,24.14-14.16-64.82,34.3-38.51,13.37,15.89,5.79,6.6,11.75,13.04,17.85,19.37-3.23-9.82-3.81-22.26-3.82-30.2-.24-18.14,14.77-12.58,18.02.85,3.41,13.39,2.81,27.96-1.61,42.07,5.25,5.15,10.59,10.21,15.8,15.4-14.72-52.94,28.91-42.34,9.33,9.29,3.55,3.63,7.14,7.26,10.66,10.92-2.18-12.76,1-33.08,9.68-32.31,11.82,4.34,8.38,35.42-.51,41.94,4.26,4.53,8.48,9.1,12.63,13.74-6.95-10.39,4.28-44.45,14.91-26.94,2.48,7.17.36,31.48-6.54,35.39-.07.23-.18.45-.36.64,10.86,12.13,20.45,25.37,27.93,39.83-2.77-14.54.89-29.17.29-43.76,6.92-10.86,19.93,37.78,17.97,42.76-.01,15.59-1.83,31.76,1.24,47.1,0,0,0-.02,0-.02.15,1.1.56,2.2.38,3.3,7.05,29.05,19.64,56.17,29.77,84.16,1.03-20.82,2.26-41.62,2.96-62.44-35.34-60.45-11.65-84.7-37.07-129.1-17.53,5.28-49.58-72.37-20.55-67.64,10.04,4.48,16.51,20.88,20.86,30.52,3.14,10.74,15.4,27.7,3.26,36.3,23.24,40.65,5.35,76.2,33.72,122.72,5.58-74.37-16.7-145.95-32.11-217.76-7.51-.35-23.46,3.37-18.66-9.39,4.43-16.98,8.86-34.14,15.18-50.51-.3-.22-.56-.5-.79-.8-2.12,6.31-9.55,5.33-12.17-.46.04,10.8-15.16,25.15-24.12,14.62.28,4.51-25.29,39.14-24.53,23.24,2.48-12.51,3.64-26.69,15.38-34.27,1.59-1.01,6.87-4.86,8.75-3.39.66-2.1,1.51-4.07,2.38-5.7-5.42,2.66-10.48,3.32-14.66,2.62-7.93,17.34-29.35,28.42-48.01,28.55-4.04.27-8.59-3.23-3.16-5.73,14.12-9.22,25.7-23.09,42.59-27.37-2.81-3.28-3.52-7.87-1.12-12.53-5.89.71-34.31,4.06-32.44-5.22,5.6-4.64,12.01-8.53,18-12.72-.23-7.39,10.41-17.33,16.53-20.12-1.78-.89-3.33-2.16-4.63-3.67-1.92,4.85-3.1,7.9-6.28,11.55-6.49,6.87-22.37,7.35-23.33-3.97-7.51,12.85-23.7,21.36-38.3,19.98-2.79-2.22,3.22-9.21,4.53-11.56,5.89-9.37,17.15-18.56,28.81-15.36-.21-2.76.54-5.73,2.2-7.96-7.4-5.35-6.02-19.45,4.11-20.76-.14-.51-.22-1.02-.26-1.53-16.23,9.28-36.93-16.67-45.64-28.28-.5-1.65,1.61-2.99,2.86-1.78,15.81,5.52,36.08,7.11,43.89,24.56,8.38-18.78,30.99-8.39,28.05,10.24.43-.56.88-1.1,1.36-1.62-.79-4.63,1.19-9.3,4.44-12.94-12.86.3-18.13-13.44-25.18-21.84-7.8-10.33,17.88-.11,20.11,2.99-4.7-10.62-14.41-10.07-24.36-11.76-18.07-5.36-31.15-15.19-2.52-17.46-1.54-1.18-3.1-2.32-4.67-3.46-16.41-.35-29.88-11.56-37.7-25.24-1.96-.98-1.33-3.88.97-3.54,15.14,5.31,25.78,7.35,37.33,21.12-11.15-50.52,21.83,2.23,15.75,16.52,2.27,3.28,8.87,7.07,9.4,10.48,3.4,3.9,6.48,7.97,9.37,12.26-1.29-4.28-.98-36.69,6.63-27.68,11.56,11.09,21.01,26.58,17.59,43.06,1.48.92,2.92,2.12,3.36,3.86.12.02.24.03.36.05-2.73-6.88,2.98-15.73,10.3-16.42-13.48-7.89-11.98-23.82-12.78-37.27,1.1-5.31,12.46,6.83,14.26,7.74-1.45-4.27-2.7-8.61-3.77-12.99-15.99-3.62-15.06-23.29-2.41-12.17-.45-2.94-.83-5.89-1.09-8.85-14.15-5.68-12.42-30.95-.13-15.1.28-4.97.82-9.94,1.43-14.9-9.97-4.61-8.61-20.07.47-12.6-10.56-17.32,13.49-25.85,7.16-1.85,1.59-1.75,4.61-3.21,6.39-.91,3.11,6.74-6.06,12.03-10.5,15.45-.54,4.49-1.01,8.98-1.32,13.49,9.98-15.94,16.47.65-.22,12.77.17,3.23.5,6.44.94,9.65,7.44-16.87,19.03-3.87,2.23,12.37,1.48,6.34,3.41,12.58,5.58,18.72-1.51-13.26,6.35-23.96,12.43-34.89,2.05-2.07,3.72.63,4.21,2.56,4.14,12.31,4.42,24.39.72,35.74,3.54-1.24,7.07.77,9.19,3.62,1.02-1.1,2.33-2.02,3.47-2.75-9.51-44.39-11.15-98.25,18.52-135.55,22.68-26.52,84.42-42.46,93.72-75.6-6.87-29.22-6.67-64.88,7.93-92.04,26.34-41.23,70.69-29.55,101.08.19,14.56,13.55,19.15,10.84,37.08,10.54,10.72,2.39,5.39,15.03,2.69,21.99-5.73,12.25-17.34,25.09-31.63,25.73,1.35,12.16,1.44,24.65-2.3,36.38,11.11-5.11,21.14-12.42,32.26-17.56,1.76-5.21,7.22-9.22,11.58-12.41,12.5-9.22,24.7,3.63,37.14,6.05,22.62,4.89,50.69,4.48,66.76,23.45,5.02-5.71,11.08-11.16,18.84-11.52,8.42.63,19.15,4.11,20.1,13.87,27.42,12.08,3.72,60.84-30.14,46.97-.36.49-.97.79-1.59.72,7.89,41.75-38.75,78.16-77.03,58.43-9.09-4.84-16.03-11.84-22.62-19.51-2.58-2.7-6.51-2.77-9.87-4.08-14.47,20.35,3.79,65.51,2.85,89.66,4.68,46.85-8.46,89.94-31,130.62,8.13,9.71,6.37,20.84,4.81,32.41-1.64,6.42.42,23.17-10.15,20.22,17.95,85.49,38.19,172.41,85.1,247.33,4.77-6.55,9.95-12.92,14.09-19.89-9.09-19.35-12.35-41.12-8.56-61.89,9.13-18.19,20.79,10.13,22.52,19.02-1.5-19.82-4.19-39.6-7.38-59.2-13.37-4.47-25.03-14.17-34.53-24.52-12.44,9.11-21.75-9.32-9.73-16.64,9.85-6.79,19.61,5.49,12.18,14.21,8.83,9.91,19.39,17.73,31.39,23.28-3.25-16.59-7.73-32.94-14.06-48.65-8.31,1.2-16.02-5.45-22.4-10.07-5.93,7.22-16.2,1.15-12.59-7.51,3.96-11.51,19.84-7.65,14.53,4.6,5.59,4.21,11.93,9.3,19.12,9.76-2.03-4.79-4.24-9.47-6.91-13.95-14.18,4.16-15.84-17.68-4.41-21.99,13.13-5.65,17.56,14.19,7.52,20.35,5.34,9.19,9.27,19.11,12.7,29.14,4.4-14.18,3.82-29.48,1.79-43.95-10.82,2.18-16.59-13.52-6.92-18.87,7.95-5.03,18.36,3.82,14.74,12.48h0c-.85,2.18-2.45,4.02-4.47,5.2,2.38,16.72,3.06,34.58-3.4,50.44,1.77,5.59,3.36,11.23,4.77,16.92,2.37-4.74,4.48-9.83,5.73-14.87-8.17-3.39-5.49-16.46,3.37-16.34,11.28-.36,11.24,17.42.01,17.11-1.56,6.74-4.53,13.17-7.92,19.16,4.68,19.64,6.66,39.89,9.16,59.85,0-.05-.01-.1-.01-.15.33,2.68.59,5.36.8,8.04,6.93-16.5,13.54-33.19,19.11-50.2-.03.09-.06.19-.09.28.05-.13.09-.26.13-.39-8.58-20.82-14.32-46.96-2.84-66.97,5.46-7.22,14.16-7.17,19.5-.34.64-3.2,1.03-6.36,1.43-9.58-12.06-8.06-23.94-18.17-28.6-32.42-14.59,9.94-24.68-15.1-13.1-23.97,13-10.44,24.6,10.82,15.79,21.21,1.8,4.88,3.84,9.74,7.07,13.86,2.68-6.44,4.4-13.28,5.51-20.16-7.68-2.29-9.08-14.04-1.53-17.23-6.86-11.7-10.54-24.97-12.24-38.36-19.8,4.73-20.43-23.47-4.18-28.34,18.56-6.08,22.46,19.91,7.53,26.97,1.69,13.71,5.39,27.52,12.73,39.3,2.46.24,4.45,1.48,5.71,3.22,7.53-10.63,11.49-23.23,13.45-35.99-14.56,2.88-21.24-15.07-9.64-23.49,8.68-8.22,26.88-3.51,24.29,10.19,0,0,0,0,0,0-1.04,5.74-5.68,10.35-11.01,12.37-1.83,14.51-6.72,28.85-15.41,40.67.23,1.01.32,2.06.27,3.09,1.96,2.47,4.67,4.26,6.96,6.24.16-.1.33-.16.51-.2,8.7-10.85,11.4-24.93,14.68-38.15-8.14-5.23.19-18.52,7.88-11.39,3.42,4.12.8,11.42-4.51,12.37-3.41,14.1-6.52,28.94-16.02,40.33-.39,7.85-.41,15.73-1.03,23.57,14.76-12.74,22.72-30.41,26.91-49.02-12.57-2.5-5.92-20.63,5.16-18.86,11.39,1.32,8.32,17.51-1.56,18.8-2.25,10.12-5.56,20.11-10.42,29.22,9.62-.52,18.35-6.48,25.44-12.6-6.51-11.65,8.46-25.93,16.47-12.22,6.51,9.48-4.96,25.54-14.51,15.16-7.9,6.54-18.49,14.16-29.19,12.85-4.79,8.14-11.12,15.65-18.67,21.47-.26,3.06-.58,6.12-.94,9.18.96.73.8,2.39-.36,3-.51,4.46-1.22,8.89-2.23,13.26,3.65,7.01,5.93,15.91,7.18,25.01,10.83-60.23,53.95-43.29,15.1,13.24,30.42-21.15,46.73-.7,18.75,20.97-15.51,10.95-34.83,14.28-51.35,23.3-8.82,14.05-15.18,27.83-19.81,42.45,5.85-10.64,13.27-20.45,21.78-29.07,19.04-20.36,36.7-4.93,21.21,17.56-13.57,19.72-32.49,35.32-51.16,49.93-1.77,11.8-3.01,23.83-3.9,35.82,34.37-85.85,88.65-45.71.44,29.57,17.51,27.97,35.97,56.17,46.18,87.84,16.04,2.94,28.96,14.27,37.88,27.39-1.58-16.07-1.46-32.26-1.44-48.41-27.14,2.92-38.74-30.14-49.92-49.46-1.31-8.41,12.42,1.34,15.68,2.51,14.27,7.4,25.97,18.84,34.3,32.44.1-10.95.38-21.89,1.06-32.8-26.49-5.92-38.04-28.3-45.25-52.25-.51-8.79,17.66,5.95,19.92,8.14,11.04,10.01,20.03,22.31,25.89,36.03.84-11.14,1.35-22.29,1.95-33.44-21.55-4.71-28.59-29.22-32.31-48.12,8.16-9.45,31.23,32.07,32.81,39.32.7-12.41,1.89-24.79,3.7-37.08-13.23-4.23-17.93-18.02-22.17-29.84-.71-3.68-4.47-7.86-2.88-11.49,10.26-2.81,24.44,22.24,26.55,30.92,1.83-11.53,2.9-23.16,3.51-34.81-11.28-4.92-13.06-19.51-15.56-30.22-.16-1.89-1.62-4.3,0-5.85,6.63-1.51,13.61,12.68,16.63,18.08.34-5.69.87-11.2.86-16.8-8.7-12.51-1.63-27.62,4.46-39.6,2.43-2.72,6.38-18.53,10.96-13.46,5.46,15.71,3.2,34.72-5.15,49.09-1.2,1.63-4.7,7.63-6.77,4.6-.18,7.74-.91,15.43-1.27,23.16,4.81-10.11,13.68-17.44,22.23-24.33,4.69-4.86,8.41-1.74,7.48,4.26-.65,6.24-3.87,11.95-7.76,16.75-5.58,6.46-13.41,13.23-21.87,14.5-.14.4-.43.71-.79.92-.73,10.88-1.76,21.73-3.23,32.53,8.75-11.47,24.46-15.62,37.67-19.27,1.48.46,1.67,2.19,1.2,3.46-4.85,14.61-17.44,22.75-32.02,25.68-2.26-.05-6.87,2.76-7.47-.71-.11.71-.46,1.51-1.05,1.92-1.66,10.89-2.69,21.85-3.47,32.82,7.96-12.19,22.42-17.5,34.23-25.18,2.42-1.78,5.7-3.17,6.87.72,1.58,20.93-24.45,32.43-41.76,35.82-.65,8.5-.77,17.03-1.42,25.56,5.92-11.33,15.92-18.6,28.48-25.41,15.64-10.53,9.93,5.87,4.68,13.63-8.4,12.2-20.86,22.34-34.31,28.35-.45,6.85-.85,13.57-.93,20.34,4.75-15.16,17.25-25.7,31.62-31.37,7.12-3.79,7.87,4.22,6.58,9.29-5.13,20.69-23.42,34.05-38,48.17-.09.3-.25.56-.47.76-.05,11.6-.16,23.19.42,34.79,3.15-16.29,13-30.64,26.67-39.9,7.52-2.24,3.59,15.28,2.93,19-4.72,17.52-12.68,36.62-27.49,47.79,1.08,10.04,2.5,19.99,5.42,29.66,5.64-13.47,16.73-24.56,30.87-28.72-.89-16.19,4.34-32.08,8.78-47.46-.02.08-.03.09-.06.22,15.98-38.19,2.55-80.39,16.11-118.91,8.76-23.82,28.98-43.1,31-69.37-10.28-4.52-19.25-16.51-21.4-27.3-6.9-8.05-15.53-14.35-21.9-22.85-4.41-5.77-13.62-20.18-3.68-24.48,3.71-.4,7.29,1.52,10.89.75,16.24-5.77,32.15-15.01,48.86-5.31,19.91,3.62,18.92-4.1,23.98,21.22,10.85-2.67,30.32,5.18,38.3,12.61,2.98,3.71,9.65,6.27,8.07,11.98-1.02,3.67-6.95,7.1-10.34,6.6-26.8,5.76-39.47,33.21-69.45,28.6-9.8,49.55-41.21,55.64-37.94,120.73,4.98-16.19,14.98-30.3,25.01-43.65,1.93-1.67,3.91-8.29,6.99-5.39,2.5,27.22-15.04,50.6-31.87,69.98-.27,15.78-4.68,30.89-9.29,45.8.01-.04.02-.07.03-.11-.18.61-.45,1.49-.63,2.12.03-.09.04-.15.06-.22-4.11,14.17-8.59,28.74-8.12,43.56,5.3-1.2,10.79-1.76,16.29-1.65-1.11-28.34,7.27-56.77,18.18-82.62-.01.04-.03.08-.05.12,7.95-19.77,15.38-39.87,23.47-59.57-.02.06-.05.11-.07.17,3.51-9.07,7.49-18.11,9.68-27.56-9.04-14.03-.5-36.19,14.87-42.55,15.65.35-2.2,41.83-11.59,43.87-2.06,8.66-5.58,16.97-8.78,25.22.03-.08.06-.15.09-.21-9.46,23.02-18.05,46.52-27.52,69.53.02-.04.03-.08.05-.13-9.15,23.33-15.89,48.7-14.8,73.89,3.41.26,6.79.79,10.09,1.6,4.61-27.98,18.48-53.03,34.64-75.87,13.14-17.09,27.73-33.6,35.47-54.03-12.46-.41-17.93-13.43-18.97-24.21-.1-4.75-2.94-10.23-1.03-14.62,4.41-4.03,24.6,22.93,24.41,27.47,5.3-14.97,10.12-30.15,17.23-44.42-.1-.36-.07-.77.06-1.2-9.56-20.81,1.03-40.6,8.93-60.21,8.78-12.27,2.32,42.18.26,44.68,8.27-13.57,19.35-25.01,30.53-36.18-.09-24.34,25.61-35.25,41.82-48.69,11.31-7.87,3.63,11.86.91,15.7-9.08,17.24-25.31,28.62-42.19,37.39-10.38,10.42-20.51,21.15-28.19,33.78,10.24-6.57,23.73-7.97,35.57-10.21,4.14.14,12.49-5.05,15.01-.93-6.38,13.84-33.05,24.84-48.1,24.98-2.89-.54-8.3,2.22-9.94-.64-.18.34-.35.69-.52,1.03.14.78-.26,1.54-.94,1.89-7.09,14.17-11.77,29.14-17.09,44.04,15.32-15.92,38.42-16.3,58.02-23.21,9.79-3.22-1.97,11.22-4.53,12.91-13.88,11.37-39.25,21.3-57.08,20.85-.09.6-.49,1.06-1,1.29-9.05,24.24-27.85,42.42-42.07,63.49-12.55,20.15-24.44,42.11-27.74,65.88,1.75.55,3.47,1.18,5.16,1.9,2.25-38.71,31.21-67.66,63.79-84.88,30.7-17.61,59.65-38.74,82.09-66.37,14.45-13.63-12.35,47.36-13.64,50.65-15.22,30.86-30.6,62.76-53.66,88.61,1.83,17.28-4.13,34.09-7.46,50.81,6.32-5.56,13.14-10.55,20.18-15.27-3.34-13.94,1.07-35.52,6.95-48.45,3.26-6.26,7.57-12.6,14.23-15.55,9.56-3.6,12.78,6.43,9.95,13.95-5.95,17.28-18.81,31.32-27.02,47.33,22.06-13.85,43.49-28.94,68.41-37.06-5.36-16.53,4.4-34.95,13.46-48.62,4.22-8.45,18.53-17.04,15.94-.89-4.1,14.07-12.23,26.91-19.29,39.57.04-.06.04-.06.12-.2-1.57,2.68-3.03,5.26-4.41,7.99,85.83-29.98,98.9,26.15,12.77-.38-17.85,5.43-35.81,12-51.72,21.63,83.85-4.79,51.09,46.08-10.47,6.56-13.51,8.07-26.9,16.69-39.6,26.1,21.45-8.11,54.66-15.48,72.46,2.42.69,19.9-72.09,13.78-82.14,5.65-6.68,5.58-11.78,13.09-16.85,19.73,0,.03,0,.06-.01.1,3.79,5.59,4.16,9.25,4.97,14.63,26.48-21.02,61.06-3.32,90.49.34,3.03-.13,3.51,3.27.43,3.88-29.4,13.95-49.27,29-83.42,26.74,0,0,.23,0,.23,0-3.85-.02-7.71-.12-11.54-.53-9.16,23.36-34.97,37.23-59.54,35.82,12.92,7.02,18.97,23.32,18.26,37.48,6.19-4.29,12.86-8.07,19.64-11.22.19-18.66,12.01-33.86,26.37-44.27,5.72-4.4,14.76-5.46,16.54,3.33,1.28,14.82-12.1,25.22-22.78,33.16,18.71-5.87,38.21-8.6,57.97-10.34-.94-14.99,7.55-30.07,19.11-39.26,6.11-5.59,24.28-14.12,23.5.61-3.72,16.54-18.73,27.32-30.98,37.73,23.33-1.69,46.87-2.6,69.79-6.24-.79-10.42,12.35-24.75,20.72-30.08,29.75-15.33,12.95,16.37.66,25.73,13.64-3.6,27.19-7.57,40.75-11.47,1.35-14,17.37-26.57,30.73-25.65,17.9,6.08-29.24,38.58-33.21,29.99Zm-129.32-125.83c11.96,5.44,23.78,11.78,36.94,12.95,17.18,1.47,25.9-6.77,4.35-12.48-13.29-3.18-28.03-4.14-41.29-.46Zm65.54-28.38c12.77,2.8,38,11.28,48.32,1.19,0,0-.05.05-.05.05-6.72-6.57-26.18-4.18-35.26-3.55-4.37.57-8.7,1.34-13,2.3Zm1.07-50.26s0,0,0,0c.02.05.02.06.05.12-.01-.04-.03-.08-.04-.11Zm-23.89,51.43c4.9-10.12,25.6-42.01,23.86-51.47-2.68-3.41-9.94,8-11.38,10.1-8.05,12.18-14.28,26.55-12.48,41.37Zm-72.51,35.8c3-7.76,40.79-54.93,20.28-53.83-11.38,5.9-15.82,19.74-18.05,31.57-1.28,7.32-2.29,14.84-2.23,22.26Zm32.75-259.21c18.04-9.74,35.34-24.38,40.75-44.92-7.71,5.79-15.6,11.39-23.22,17.3-9.37,7.12-17,15.24-17.53,27.62Zm-37.53,50.56c19.14-.38,37.65-6.42,51.7-19.85-17.5,4.79-40.46,3.22-51.7,19.85Zm-3.63-2.35c5.94-15.28,8.11-31.63,7.64-47.94-6.44,16.02-13.91,30.44-7.64,47.94Zm-17.53,58.48c19.59-1.68,45.41-10.03,57.95-26-8.7,2.95-18.07,4.19-26.81,6.74-11.81,3.31-23.81,9.14-31.13,19.26Zm-4.83-.18c.25-.62.5-1.23.74-1.85-1.29-12.32-10.89-20.95-19.07-29.23,1.93,12.27,2.38,30.59,18.33,31.07Zm-23.95-49.06c-3.6-.55-6.67-3.05-9.53-5.1-.31,4.21-.83,10.46,1.72,13.5.41-.08.84.01,1.2.22,3.03-2.05,4.65-5.61,6.6-8.62Zm-8.96-9.38c.51.16.94.53,1.11,1.13,2.91,2.05,5.9,4.9,9.64,4.86,3.71-7.42,7.55-17.06,4.62-24.57-2.2.01-4.41,2.57-6.37,3.73-4.88,3.59-7.81,9.02-9,14.84Zm-48.38,92.17c14.8-17.72,24.81-31.58,26.37-55.4-6.49,8.68-13.03,17.38-18.07,27.01-4.5,8.79-9.51,18.2-8.3,28.38Zm48.72-152.02c-6,1.82-13.01,6.64-12.44,13.67,5.05-1.53,13.26-8.1,12.44-13.67Zm56.34-12.96c.32-.22.7-.37,1.08-.47-4.62-1.22-8.66-4.14-12.56-7.04-14.37,6.38-24.68,20.59-41.14,22.6-1.1,5.1-7.34,11.06-10.81,13.03,22.08,1.9,35.05-19.63,54.46-26.09,2.86-.76,6.05-2.59,8.98-2.04Zm-34.17-25.07c9.24,2.54,17.45,6.86,23.7,14.14-.04-.05-.1-.08-.15-.12,5.29,3.3,10.25,8.2,16.99,7.63,2.63-3.32-2.6-5.54-4.45-7.67-4.32-5.4-10.61-7.96-16.94-10.28-5.27-1.85-13.35-5.29-19.14-3.7Zm-69.17-17.17c15.04,6.68,31.08-2.77,45.89,3.72-.01,0-.03-.01-.07-.03,6.86,2.54,11.73,8.56,18.23,11.59-5.84-28.01-.79-10.97-29.15-21.89-4.34-2.41-9.53-2.02-14.11-.73-7.41,1.7-13.89,4.55-20.79,7.34Zm11.38,41.88c9.42.72,16.18,15.08,19.96,23.37.44-5.94,14.46-18.24,18.97-11.25,15.33-2.6,25.18-14.95,38.34-21.78-5.14-6.5-12.99-9.3-20.63-11.73-.63.28-1.51.14-2-.62-8.28-2.52-13.7-9.72-21.6-12.95-8.69-4.09-18.3-1.51-27.36-.44-10.05.38-19.38-4.99-29.46-4.44-1.07.05-2.29-.23-2.64-1.22-.39,0-.77.01-1.16.08-2.03,2.45-.62,6.11.28,8.79,5.59,13.43,18.06,21.62,27.29,32.21Zm16.94,25.06c-2.77-6.89-9.1-18.07-15.67-21.63.37,2.35,1.83,4.42,2.86,6.45,3.28,5.75,7.28,11.4,12.81,15.17Zm-90.85,126.89c15.12-8.28,31.33-20.31,35.98-37.69-16.05,7.92-32.6,18.81-35.98,37.69Zm3.01-42.01c13.71-2.27,38.96-14.59,37.69-30.9-13.31,9.02-31.6,14.6-37.69,30.9Zm4.73-43.35c14.26-3.5,29.52-7.87,35.22-23.33-13.09,4.98-30.21,8.32-35.22,23.33Zm-5.2-.38c-3.36-12.89-9.51-25.99-20.95-33.51,4.98,12.08,7.67,27.79,20.95,33.51Zm-5.61,45.61c-1.62-5.68-3.95-10.9-6.8-15.95.01.03.03.05.04.07-5.38-9.4-10.9-19.41-20.07-25.62,4.54,15.86,9.06,35.91,26.82,41.5Zm9.7-267.08c.8.25,1.44,1.07,1.22,1.96,6.05,7.31,13.03-3.38,9.66-9.61-2.79-8.01-12.14-5.32-11.91,2.64-.03,1.71.27,3.46,1.03,5Zm-20.74-18.3c.6-.69,1.66-.71,2.36-.21,6.07-1.03,8.55-11.41.93-11.8-5.74-.49-11.17,8.35-5.02,11.57.55.23,1.13.4,1.73.44Zm-10.33-15.4c3.23-1.87,2.67-8.42-2.02-6.6-2.97,1.64-1.83,7.67,2.02,6.6Zm-14.01-11.4c-.37-2.47,2.81-3.89,3.6-1.33,12.97-6.21,6.53-23.84-7.42-18.19-11.71,3.7-11.97,21.41,2.25,19.81.53-.07,1.05-.17,1.57-.29Zm-46.58,40.8c-9.8,4.81-4.98,26.26,6.84,19.86,8.57-5.23,4.58-24.71-6.84-19.86Zm-3.93,90.77c.81-1.27,3.04-.92,3.2.76,5.03-.35,6.21-7.74,1.55-9.65-4.55-2.15-9.23,3.73-6.07,7.67.37.48.81.91,1.32,1.23Zm-11.8-51.23c-.18-1.79,2.01-2.49,3.02-1.38,6.26-4.79-.38-14.97-7.3-11.2-6,2.88-3.93,12.52,2.7,12.69.53.02,1.06,0,1.57-.11Zm-18.04,16.53c.24-.6,1.15-1.05,1.77-.92,6.74-3.63,5.73-18.23-3.7-14.54-7.23,2.55-8.31,17.7,1.49,15.62.15-.05.29-.11.44-.16Zm-15.66,7.99c-.29-.7.45-2.07,1.34-2.12,3.08-7.14-5.33-8.56-7.86-2.4-2.63,4.75,1.93,9.3,6.06,5.03.16-.16.31-.33.46-.5Zm2.7,37.75c-1.27-1.54.87-3.72,2.4-2.42,5.2-7.13-3.51-13.81-9.35-7.44-5.18,4.34-1.76,14,5.4,10.74.54-.24,1.07-.52,1.55-.88Zm-344.3-274.49c2.37-3.06,4.56-5.83,5.92-9.38,1-3.33-.18-4.12-2.1-1-1.87,3.18-3.81,6.65-3.82,10.38Zm-1.89-22.81c2.68-3.08,6.43-6.23,6.54-10.61-3.08,2.81-5.13,6.72-6.54,10.61Zm2.15-26.24c2.46-2.31,6.2-4.34,6.71-7.96-2.67,2.18-5.26,4.83-6.71,7.96Zm-.95-9.35s.08.01.13.02c1.27-3.21,2.86-9.43-.2-11.71-3.32,2.95-2.53,8.5.08,11.68Zm-2.32,2.59c.06.07.12.15.18.22,0-.01,0-.03,0-.04-.06-.06-.12-.12-.18-.18Zm-.78,7.84c.42-2.7-1.44-5.98-3.8-7.27-1.16,2.38,1.64,5.49,3.8,7.27Zm-2.04,29.72c-.1-4.47-2.24-10.15-6.21-12.5-1.07,4.34,2.46,9.87,6.21,12.5Zm2.05,20.93c-1.39-3.03-3.26-7.23-6.92-7.76.16,3.46,4.09,6.22,6.92,7.76Zm21.63,294.63c-24.25-67.01-43.52-30.37-14.32,13.51-.92-4.01-1.48-8.62.82-12.24,2.8-4.86,9.61-4.71,13.5-1.27Zm.45,23.49c9.38-5.36-.32-26.65-10.01-21.49-3.32,3.19-2.06,9.11-.53,12.93,2.26,3.77,5.75,8.84,10.54,8.56Zm-204.78-175.18c.08-.01.15-.02.23-.02.58-11.97,1.67-24.07-.44-35.89-3.73-15.39-12.73-17.02-13.13.65-.52,12.93,3.38,26.51,13.34,35.26Zm30.39,53.49c3.76-10.34,7.63-20.91,8.21-31.98.57-14.51-10.93-19.93-12.99-2.52-1.26,11.36-2.46,24.89,4.79,34.5Zm-2.07,3.19c-.07-.1-.14-.2-.21-.3-.18-.07-.35-.17-.49-.31.12.1.23.18.37.25-4.45-5.22-43.55-32.83-45.83-20.89.03,6.28,5.04,11,9.85,14.35,10.46,7.37,23.95,8.55,36.32,6.89Zm63.92,69.39c2.74-12.98,4.54-27.08.15-39.82-2.44-7.33-10.24-13.35-10.52-1.36.52,13.64-.23,31.21,10.37,41.18Zm-30.41-33.1c2.52-9.75,4.94-19.72,4.18-29.78-1.55-15.99-15.25-25.7-14.12-2.29-.16,11.35,1.71,23.64,9.95,32.07Zm-3.62,2.6s.06-.06.08-.09c-61.2-47.42-75.78,9.43-.1.1,0,0,.01,0,.02,0Zm31.28,33.24c-67.99-26.15-70.14,3.88-19.07,3.99,6.51-.12,12.98-1.75,19.07-3.99Zm21.43-.83c.4,7.57,1.8,15.63,6.62,21.7,11.71-35.57-7.37-49.86-6.62-21.7Zm3.46,26.99c-41.23-25.66-59.68,8.16-15.06,3.05,5.14-.6,10.2-1.26,15.06-3.05Zm44.03,36.77c.68,0,1.33.45,1.6,1.06,3.97-9.2,6.2-20.94,3.9-30.66-4.48-7.93-9.44,7.53-10.13,11.19-.61,6.34.71,13.29,4.63,18.42Zm-19.08-55.89s.07,0,.07,0c0,0,.02,0,.02,0-.03,0-.07,0-.1,0Zm-1.62,36.1c6.64-7.37,10-29.7,1.83-36.12-7.34,5.79-6.68,21.08-5.23,29.68.68,2.31,1.26,5.08,3.4,6.44Zm-4.36,2.25c-8.64-3.02-17.35-7.02-26.73-6.12-9.82.61-9.26,13.79.61,13.57,9.1-.31,17.9-3.96,26.12-7.45Zm21.62,22.07c-16.76-19.87-48.77.37-16.19,2.32,5.46.07,11.03-.46,16.19-2.32Zm47.77,73.5c-.39-24.41,3.27-50.24-10.55-72.01-.33,13.81-2.99,27.64.03,41.31,1.79,10.78,6.89,20.51,10.53,30.71Zm-63.5-17.76c2.66-3.3,10-7.92,13.79-7.12-2.78-7.26-6.37-14.57-11.84-20.17-14.74-9.82-8.42,22.91-1.95,27.29Zm13.51,9.57c3.72-4.28,5.43-10.59-.77-13.4-3.91,1.4-8.88,3.31-10.59,7.35-2.19,6.73,6.42,8.9,11.35,6.04Zm-.42,142.26c.33-3.72,4.77-6.23,8.09-5.28-4.35-5.25-9.82-10.26-12.11-10.69-7.57-2.61-5.44,6.71-2.43,10.15,1.87,2.22,4.07,4.14,6.45,5.82Zm13.81,6.03c.11-.09.23-.16.34-.22.1-.57,0-1.29-.3-2.14-2.6-3.83-9.69-9.66-10.64-1.59,2.24,1.29,4.58,2.4,6.94,3.33.68-2.06,3.33-1.27,3.66.63Zm-80.35-77.9c2.28-14.48,3.39-33.38-1.8-47.22-.71,7.55-1.57,15.11-2.26,22.66-.91,8.41.07,17.05,4.06,24.57Zm-23.37-61.03c.97-1.46,2.85-1.09,3.36.06.39,0,.76-.15,1.15-.09,5.4-5.04,11.22-15.03,7.7-21.32-2.17-2.12-3.19-7.5-7.04-6.5-2.41.72-4.6,2.3-7.2,1.74-5.32-3.05-5.63.7-9.32,3.55-9.02,2.57-8.88,9.34-3.72,15.97,3.87,4.26,9.45,6.1,15.07,6.58Zm-33.48-72.23c13.5,11.97,24.72,25.34,30.85,42.18.85.38,1.69.72,2.64.42,9.64-4.57,10.71-.01,15.67,7.27,1.35,2.82,1.41,6.03.71,9.06,6.44-7.67,30.03-47.95,24.89-55.64-9.01-2.49-17.72-4.92-27.09-3.13-3.59.06-7.38-.33-10.35-2.54-6.48-6.13-14.19,5.43-22.38,1.94-4.7-1.23-12.14-5.29-14.94.44Zm17.36,69.48c-7.06-5.79-9.21-19.65,1.78-22.17,3.1-1.22,4.22-5.59,7.82-5.91-4.04-10.71-30.09-51.01-42.88-41.07-12.18,6.95-12.87,1.06-18.08,16.07-3.13,6.54-16.34,9.82-12.61,18.77,9.57,14.95,26.66,23.79,42.83,29.79,6.94,1.95,14.04,3.29,21.15,4.52Zm76.36,123.45c-13.27-15.88-31.96-29.21-52.59-33,10.02,8.07,19.23,17.31,29.84,24.6,6.77,4.64,14.74,7,22.76,8.4Zm-68.76,8.67c-1.33-1.55-1.41-4.74,1.35-4.08-4.22-35-25.65,2.13-2.59,4.16.41,0,.83-.02,1.24-.08Zm32.28,29.17c1.63,1.41,3.26,2.83,4.88,4.25,1.79-4.61,2.54-9.45,2.7-14.34.09-10.02-5.3-8.91-7.4-.31-1.07,3.2-1.31,7.12-.18,10.39Zm1.71,7.84c-1.39-1.03-2.62-2.23-3.53-3.65-5.93-2.93-20.8,5.95-9.51,8.74,4.76-.28,9.26-2.28,13.04-5.09Zm29.66,23.13c5.59-5.81,5.86-37.2-4.31-18-3.36,6.64-1.2,13.45,4.31,18Zm-4.44,2.09c-13.32-9.47-25.14,1.58-14.9,3.94,5.18-.21,10.05-2.26,14.9-3.94Zm24.45,23.44c.82,1.23,1.63,2.45,2.42,3.7,2.11-5.65,4.15-12.26,2.29-18.09-3.24-3.83-6.88,9.98-5.02,12.21.6.48.76,1.55.31,2.18Zm-1.15,4.66c-.08-.12-.16-.25-.24-.37-11.78-10.68-21.81,1.3-9.86,2.24,3.4-.24,6.99-.65,10.1-1.86Zm-143.31,48.45c-.15-1,.53-1.88,1.37-2.09,4.65-8.35-5.45-17.03-11.37-8.11-5.13,6.29,1.61,17.63,9.02,11.2.35-.31.69-.64.98-1Zm-81.8-8.16c-.09-1.04.86-1.93,1.85-1.91,6.51-6.76,1.25-20.63-8.22-12.6-6.57,4.45-6.14,20.24,4.29,15.88.75-.37,1.45-.82,2.09-1.37Zm43.37,84.07c-1.17-.3-1.76-1.68-1.02-2.62-3.81-9.46-20.14-8.66-18.06,3.18.85,10.11,18.04,15.19,19.4,2.84.07-1.14-.01-2.29-.33-3.39Zm14.27-81.83c-.21.08-.42.15-.65.17,0,0,0,0,0,0-1.21.28-2.46.37-3.7.24,3.38,3.28,4.32,9.5.57,12.84,2.03,6.76,3.08,12.49,1.63,20.75,5.22,5.24,10.67,10.18,16.28,14.93.58-1.68.79-3.68.94-5.26.41-15.65-5.28-31.59-15.08-43.67Zm-4.78-3.17c6.72,1.64,11.9-7.03,7.32-12.2-4.01-5.12-12.91-2.34-13.28,4.16-.37,3.7,2.32,7.32,5.96,8.03Zm-7.73,4.01c-7.15,1.94-1.75,12.37,4.27,10.91,7.1-1.95,1.72-12.34-4.27-10.91Zm-17.32-4.54c.35-.34,1.06-.57,1.56-.41,5.72-2.23,3.42-11.34-2.68-10.61-6.76.51-6.4,11.03.39,11.05.24,0,.49,0,.73-.04Zm4.46,24.95c5.36,4.34,5.48,13.18.27,17.68,8.3,3.66,18.01,5.02,26.96,3.68-2.56-2.56-5.69-4.9-7.85-7.6-4.12-4.28-8.1-8.69-11.92-13.25-.61.2-1.29.27-1.9.22-1.92-.14-3.76-.39-5.55-.73Zm-15.59,11.28c4.87-1.84,10.44-.3,13.64,3.67,10.29-11.16-11.57-21.75-13.96-6.75-.08,1.04,0,2.08.32,3.08Zm9.78,18.23c-.07-1.02.74-1.73,1.65-1.78,1.55-2.22,1.97-5.18,1.09-7.74-2.03-1.45-7.03-2.51-6.16-5.71-15.65-2.68-13.18,22.17,1.71,16.34.61-.31,1.18-.67,1.71-1.11Zm37.72,17.34c4.43-3.01,9.26-6.3,11.63-11.19-4.52-3.75-8.95-7.61-13.3-11.54-9.54,2.71-20.25.94-29.41-2.41.26,2.77-.48,5.61-2.04,7.89,9.92,7.52,21.23,13.64,33.12,17.25Zm27.59,1.23c-4.49-3.26-8.89-6.66-13.2-10.16-2.59,4.67-5.42,6.75-10.01,10.14,7.67,1.89,15.8,2.62,23.21.02Zm710.07-10.17c-3.63-3.44-9.43-4.48-13.13-7.67-2.09-1.34-4.02-2.93-5.8-4.72,9.98,26.34,32.09,44.64,47.52,67.52.13-.02.27-.02.41,0-.32-1.16.94-2.19,2.2-2.08,2.32-2.23,4.77-4.3,7.33-6.25,2.88-15.26-4.82-32.33-18.84-39.3-5.87-3.86-13.88-3.43-19.7-7.49Zm-37.24-66.58c1.26.64,1.22,2.15.34,2.9,3.79,28.25,21.81,71.79,57.14,52.78-18.12-6.35-28.79-25.68-24.65-45-15.64-1.63-28.21-13.19-31.55-27.73-1.08,2.53-1.59,5.37-1.72,7.98-.01,3.04.15,6.06.44,9.07Zm3.91-24.65c1.57.35,1.73,2.67.23,3.27,1.45,15.31,14.67,27.33,29.72,28.74.25-.62.53-1.22.83-1.79-16.14-10.33-8.16-42.62,9.12-44.16,1.4-9.54,12.19-16.1,21.03-16.61-21.85-9.71-53.6-2.26-60.12,23.13-.59,2.44-.85,4.93-.82,7.41Zm65.75-32.11c.99.55,1.94,1.13,2.84,1.76.02.08.02.16.03.24,15.37,2.56,26.75,17.37,25.97,32.84,9.92,6.27,13.15,22.02,12.35,34.92,2.93-6.26,4.55-12.98,5.47-19.77-.81-.79-.66-2.22.34-2.78,3.39-20.5-10.7-42.26-31.03-46.94-.49.2-1.21-.04-1.57-.36-4.78-1.02-9.75-1.27-14.39.08Zm28.57,38.92c-.74,4.93-4.42,25.22-11.28,22.54-.85-1.01-.25-2.24.7-2.91,5.11-5.82,6.72-15.58,7.27-21.76-1.15-.53-1.21-2.39.05-3-.7-30.09-37.73-38.49-47.57-16.4.35.41.48.83.46,1.22,1.82.49,3.71,1.4,5.64,2.77,42.66-3.29,46.05,66.87.64,61.48h.03c-8.64-.82-13.99-8.21-17.65-15.4-4.9,17.78,6.67,38.13,24.71,42.42,37.65,4.88,60.69-43.37,36.99-70.97Zm-63.16,19.13c.22-1.29,2.02-1.7,2.89-.84-1.77-11.03,9.27-25.65,21.14-21.51-.02-.1-.03-.19-.06-.29-12.45-34.1-42.62,4.33-23.97,22.65Zm8.4,4.82c1.12.27,2.26.4,3.39.37-1.64-.32-3.21-1.15-4.38-2.35.26.7.58,1.37.99,1.99Zm15.85-24.18c.1.02.19.06.28.09-.01-.1-.03-.21-.04-.31-.08.08-.15.16-.24.22Zm-.17,12.63c-1.4,4.57-7.96,3.27-10.6.55-1.51,1.97-.75,4.9-.04,7.06,1.08.43,2.25.62,3.41.65,3.82-1.13,9.8-3.27,7.24-8.27Zm-4.61-.46c3.41-.58-1.96-2.02-3-1.01.9.55,1.95.92,3,1.01Zm7.11,7.89c.21-.22.41-.44.61-.66-.12.1-.25.21-.38.31-.07.12-.15.24-.23.35Zm.92-8.25c.15.4.28.79.38,1.2.87-1.42.69-2.82,0-4.11-.1.97-.22,1.94-.39,2.91Zm-18.31,3c.12-1.99,1.25-3.78,2.75-5.02.01-6.71,9.05-6.43,12.57-2.39.06-.69.11-1.38.14-2.06-6.63-6.4-17.47.94-15.46,9.48Zm-4.93,11.6c3.05,6.43,7.66,13.6,15.38,14.32,37.75,5,37.82-53.07,2.51-54.76,3.9,4.38,5.89,10.18,6.05,16,9.99,8.55,2.43,26.86-11.03,24.89-2.74,1.26-5.93,1.55-8.85.87-.63.29-1.49.18-2.03-.55-.69-.22-1.37-.48-2.03-.77Zm86.01,2.48c.5,7.74-.39,15.57-2.95,22.88,32.01,4.63,60.64-8.55,87.55-24.1-20.07-3.2-39.97-10.72-60.5-9.26.08-.01.15-.02.23-.03-8.23.76-16.02,3.84-22.44,9.02-.63.4-1.23,1.1-1.89,1.49Zm-6.18-13.03c-1.81,8.04-3.48,16.74-9.33,22.89-3.91,21.73-25.82,38.23-47.74,36.1-5.97,4.3-12.69,6.43-19.96,6.67,29.28,15.21,69.2-.9,77.81-33.61,2.43-8.27,3.26-22.84-.79-32.05Zm7.4-20.03c-6.13-7.85-6.28-18.85-6.82-28.36-3.01,2.17-5.85,4.73-9.09,6.51,6.33,8.1,10.38,18.67,9.98,29.19,1.8-2.58,3.83-5,5.92-7.33Zm89.09-9.33s0-.06.01-.09c0,.04-.01.08-.03.11l.02-.02Zm-73.93-.44c-.76.63-1.52,1.28-2.27,1.93,12.16,6.87,68.64,10.69,76.23-1.71h0c-1.65-4.47-8.36-5.08-12.38-6.71-20.38-5.66-41.11.27-60.2,7.48-.62-.05-1.12-.46-1.38-.99Zm-15.24-42.73c-3.87,16.07-5.87,35.07,2.45,49.96,1.24-1.3,2.5-2.58,3.8-3.82,2.77-15.33,7.7-30.57,8.71-46.29.89-20.95-11.1-16.13-14.95.15Zm82.86-136.18c-14.35,22.13-29.55,44.04-48.11,62.79.05-.05.11-.11.16-.16-28.06,26.4-56.97,53.28-73.72,88.67,8.21,2.27,15.42,6.95,21,13.16,3.33-3.17,7.59-5.56,11.15-8.58-.38-10.85,8.04-51.52,23.51-32.27,11.92-12.68,20.51-27.99,29.12-42.96,14.93-25.59,27.94-52.37,36.89-80.65Zm-139.71,141.28c3.94,2.04,7.78,4.98,10.25,8.61,1.43.13,2.86.33,4.26.59,17.23-36.78,47.42-64.47,76.35-91.92-.06.05-.1.1-.16.16,16.25-16.71,29.68-35.84,42.56-55.19-27.02,30.62-64.47,47.96-97.29,71.04-19.39,15.71-35.5,40.31-36.1,65.76.16.32.19.65.13.96Zm-73.52,66.37c-.31-7.39.3-13.72,4.37-19.4-1.74-32.84,37.65-48.02,64.8-36.18,3.35-1.81,6.98-2.06,9.97-2.3-11.87-11.72-33.23-13.45-48.68-9.41.03,0,.07-.02.1-.02-27.59,6.33-42.57,42.82-30.56,67.31Zm-11.9-71.42c-8.93,3.43-21.14-4.29-29.36-8.17,9.17,34.91,25.32,66.93,44.24,97.48-1.02-4.04-1.93-8.33-2.48-12.62-11.51-9.49-8.13-28.01-5.54-41-.22-.24-.38-.53-.44-.87-2.98-11.48-5.59-22.98-6.41-34.82Zm-41.65-35.6c-3.52-.5-7.18-.58-10.96-.15,5.07,6.75,10.45,13.52,16.96,18.95-.81-2.64-1.61-5.29-2.44-7.92-1.14-3.64-2.34-7.27-3.56-10.89Zm45.43,30.66c.18.21.32.46.39.72,13.57-14.49,25.82-38.65,24.65-58.8-6.67,5.65-13.46,11.63-17.61,19.46-5.93,11.46-9.52,25.84-7.43,38.62Zm-2.8-61.63c13.17-13.15,36.48-30.04,35.07-50.58-20.55,7.96-30.8,19.76-34.35,41.64-.46,2.96-.72,5.95-.71,8.94Zm14.29-176.32c12.43-5.04,25.39-16.4,25.38-30.72-10.52,8.22-21.85,17.3-25.38,30.72Zm-2.83-39.21s-.02-.09-.03-.14c.53,1.77,1.18,3.58,2.18,5.11.64-.01,1.29.42,1.56,1.01,11.13-12.22,12.42-31.96,9.33-47.48-5.6,12.16-16.85,27.82-13.03,41.5Zm-1.95,38.65c1.46-10.26-6.01-20.53-12.41-27.4,2.32,9.47,3.4,21.9,12.41,27.4Zm-13.38,132.59c-7.68-18.81-21.55-37.47-39.7-47,9.2,24.62,13.29,37.21,39.7,47Zm.15,47.68c.06-.05.12-.11.18-.16-4.76-21.41-26.66-36.41-45.65-45.03,10.55,17.68,19.34,44.12,43.16,45.84.43-.85,1.51-1.05,2.31-.65Zm-34.96,28.34c2.4,7.11,4.56,14.3,6.75,21.48,8.27,5.3,18.52,10.32,28.11,10.87,1.04-.68,1.99-.47,2.58.08-.02-.9-.5-1.93-.96-2.54-8.32-14.09-20.94-26.18-36.47-29.9Zm-48.96-95.08c13.93-12.64,27.54-26.01,37.82-41.84,9.97-15.54,14.49-43.63-10.67-20.52-16.77,16.49-26.46,39.02-27.15,62.37Zm7.53-78.56c-.77,3.85-1.45,7.78-2.06,11.82,19.3-16.61,42.47-32.69,52.33-56.98,3.09-9.93-3.18-14.88-12.23-9.89-18,13.16-31.19,33.69-37.66,54.76-.11.12-.24.21-.37.29Zm72.8-112.29c-8.75,4.12-18.51,8.49-24.23,16.58-.21.81-.95,1.39-1.82,1.33-5.99,8.01-12.23,16.33-17.78,24.53,17.63-9.3,39.54-11.86,53.25-27.38,9.41-11.32,6.14-21.42-9.42-15.05Zm-27.8,14.43c.5-.66.99-1.32,1.49-1.98,11.37-13.6,22.79-30.68,24.11-49.44.5-10.45-9.18-6.55-13.25-1.06-8.41,10.73-10.59,24.73-12.09,37.89-.48,5-.5,9.73-.26,14.58Zm-34.99-185.48c-14.28-3.34-22.48,23.94-4.81,22.44,10.4-1.11,17.08-19.1,4.81-22.44Zm11.45,77.39c.86-.58,2.11-.19,2.52.72,1.86-.1,3.08-1.88,3.5-3.45-2.16-2.41-4.11-4.99-5.92-7.68-4.62.92-4.56,8.72-.11,10.41Zm13.49,41.25c.3-2.53.57-5.05.78-7.59-.36-.6-.24-1.33.14-1.77.73-9,.93-18.04,1.21-27.06-2.81.1-4.97-2.93-6.95-4.71-1.04,2.12-2.87,3.71-5.5,4.05-1.31,7.77-3.18,15.57-6.54,22.73,4.85,5.57,10.83,10.27,16.86,14.34Zm-16.39,77.08c2.02-.22,2.19,2.07,1.51,3.46,1.81,4.08,4.16,7.95,6.58,11.52,4.44-6.6,9.22-12.94,13.93-19.34-.1-17.16.24-35.65-7.23-51.79-1.24-.13-1.8-1.51-1.36-2.59-4.66-9.62-14.62-7.5-18.02,1.79-6.28,17.88-2.49,39.54,4.59,56.95Zm-20.84,61.77c.29,5.44.46,10.88.69,16.33,5.1-21.88,14.65-42.44,26.97-61.2-3.67-.2-4.74-5.97-6.81-8.66-6.05,18.07-13.21,35.76-20.71,53.28-.04.09-.09.17-.14.25Zm-6.43,51.58c.53-.16.97-.18,1.32-.09.18-1.42.36-2.85.55-4.27,2.86-18.92,1.16-39.07-5.4-57.18-1.66-4.31-9.02-19.86-12.86-9.39-3.73,24.24.55,51.64,16.38,70.93Zm-23.29,12.95c6.9,11.79,13.5,23.73,20.87,35.23,1.14-14.72,1.19-29.4,3.23-44.07-4.6-1.02-7.16-7.05-9.93-10.73-3.55,5.32-7.19,10.2-10.98,15.28-1.07,1.42-2.13,2.86-3.2,4.29Zm-83.46-299.85c-4.48,8.34-8.96,16.69-13.7,24.89,2.89,5.11,5.71,10.36,7.58,15.98,1.97.99,3.15,7.41,6.11,4.75,3.02-7.86,2.72-16.52,4.04-24.76,1.07-7.9.51-14.26-4.03-20.86Zm29.41-129.97c-2.57,1.36-8.33-8.05-14.96-8.2-27.44-.16-57.09,28.36-50.97,56.76,2.76-7.7,2.87-16.66,6.01-23.93,7.67-2.23-7.71,39.4-8.08,44.95-4.26,17.53-10.85,34.34-14.48,52.02-1.3,3.3-1.3,11.47-4.93,12.53-22.51,8.4-47.47,5.44-71.1,6.21-19.83.41-39.51-.41-57.77-8.85-8.6-3.09-16.83-7.12-25.48-10.07-1-.43-1.23-1.43-.94-2.23-2.74,4.66-8.04,9.46-13.5,8.02-.11,5-1.92,9.94-2.51,14.9-.42,2.1.47,7.62-3.27,5.41-6.46-5.48-9.87-8.59-11.75-12.48-2.29,7.74-11.18,13.5-19.09,13.48,7.28,20.97,35.23,20.97,53.52,17.37,14.86-2.65,29.85-9.43,44.94-9.06,34.48,7.02,113.17,44.19,138.11,12.07,23.81-37.83,46.73-78.43,54.85-122.82,2.49-15.24,1.84-30.7,1.38-46.08Zm-227.85,221.29c-7.11-14.19-15.17-28.3-20.52-43.2-1.75.71-3.84,1-5.99,1.06,2.35,14.23,4.78,28.25,8.21,42.2,6.1.12,12.2-.08,18.3-.06Zm-42.85-43.41c-1.4-.14-2.79-.3-4.18-.5-.68,15.86-3.81,31.67-4.06,47.49,3.31.72,6.55,1.49,9.82,2.07,1.87-16.31-2.01-32.79-1.57-49.06Zm5.5,43.96c2.58.86,5.11.91,7.67.74-1.66-14.73-4.72-29.35-6.23-44.08-1.22-.12-2.46-.22-3.72-.33.23,3.68.29,7.2.64,10.85.69,10.94,1.98,21.87,1.65,32.82Zm11.21,1.12c1.47-.28,2.96-.58,4.36-1.1-3.53-14.08-5.86-28.54-8.31-42.77-.82-.04-1.61-.08-2.41-.2,2.02,14.67,4.63,29.33,6.35,44.07Zm6.75-52.37c-13.65,1.73-28.93.42-40.06-8.36-.19,1.97-.5,3.95-.45,5.91,6.08,7.36,27.02,7.42,36.32,7.18,2.64-.04,4.36-2.23,4.19-4.73Zm-65.27-28.89c.8-1.76,2.2-3.27,3.83-4.29-4.77-7.32-12.01-15.17-21.53-14.38-3.98.36-6.14,4.46-4.38,7.79,4.04,7.96,14.08,9.49,22.08,10.88Zm-26.12-14.18c.63-11.31,18.13-8.97,24.32-2.12-1.26-6.66.8-14,6.55-17.63-2.68-3.59-1.37-9.3,2.29-13.28-.72.04-1.55,0-2-.63-.93,2.49-2.32,4.88-4.11,6.8.97.11,1.63,1.07,1.47,2.02-1.89,9.17-16.13,15.78-24.82,12.97-.83,4.38-2.11,8.82-6.2,11.26.84.15,1.67.35,2.5.6Zm4.13-38.77c-1.06.46-1.77,1.54-1.87,2.68.04.04.08.09.11.13.04-.18.06-.36.11-.53.27-.9.87-1.74,1.64-2.28Zm8.53-3.04c5.04-6.89-3.4-15.94-9.75-8.82.03.97-.63,1.48-1.37,1.7-1.87,2.77-2.66,6.35-1.67,9.36,2.48-3.59,8.59-4.28,12.79-2.23Zm-13.31-10.07c2.76-3.38,7.04-5.66,11.09-4.65,1.12-1.55,3.06-2.25,4.95-2.45-7.9-6.91-21.37,1.02-22.74,10.65,2.05-1.58,4.32-2.81,6.7-3.55Zm60.73-11.74c8.28,3.69,22.23-5.42,22.49-14.13-1.21-4.5-7.18-5.08-11.1-4.74-2.53.5-4.93,1.92-6.92,3.77-.45,1.08-1.06,2.1-2.02,2.2-.73.94-1.36,1.93-1.85,2.93.35,3.32.42,6.76-.6,9.98Zm23.81-7.04c16.06-4.74,22.33-21.01,22.01-36.54-8.97,8.4-19.35,17.65-19.12,31,.28.96-.34,1.75-1.14,2.04-.39,1.23-1,2.4-1.75,3.5Zm14.71,35.91c-.61,10.99,5.91,29.69,18.68,20.16.84-9.92-10.96-16.33-18.68-20.16Zm-4.15.94c-.56.27-1.19.41-1.88.41-7,5.39-20.3,23.54-8.83,29.84,10.01-.86,12.7-13.58,12.07-21.9-.38-2.38-.32-5.57-1.37-8.35Zm-15.59,31.23c-3.25-3.63-3.45-9.03-2.16-14.09-3.79,2.98-8.34,4.86-13.47,4.51.21.19.41.39.61.61,1.16,0,2.06,1.27,1.97,2.53,2.48,3.67,3.64,8.49,1.18,12.02,1.01,4.03,3.28,7,9.33,12.13.6-5.92,3.01-11.72,2.54-17.71Zm-17.18,8.62c-4.45.85-9.45-.27-12.36-3.92,0,0,0,0,0,0l.14.18c-.05-.06-.09-.12-.14-.17-1.82,4.71-5.62,8.28-10.11,8.94,2.72,12.53,20.73,4.05,22.47-5.02Zm-28.96,9.83c-2.3-1.59-5.22,3.39-2.14,3.8-.07-.03-.16,0-.23-.03,1.68.13,3.31-2.36,2.37-3.78Zm1.49-37.18c2.59-.84,5.59-.96,7.84.55.86-.24,1.81-.29,2.77-.08,2.5-1,5.42-.74,7.7.69,3.36-14.71-16.43-19.47-19.51-4.95-.31,1.66.23,2.93,1.2,3.8Zm-2.23-15.07c9.06.42,20.86-12.31,10.45-18.86-.54.89-1.72,1.24-2.47.69-.91,4.81-2.13,10.79-8.31,7.39,1.05,3.57,1.19,7.29.33,10.79Zm12.18-34.71c-.04.79-.1,1.58-.18,2.37.62-.09,1.24-.13,1.86-.12-.64-.7-1.2-1.46-1.68-2.25Zm-.23,33.64c1.48.08,3.03.4,4.29.92,10.96-6.62,11.78-29.39-4.07-28.67.6,2.3.66,4.72-.03,6.88,7.3,3.5,7.36,14.15,1.76,19.24-.61.55-1.27,1.1-1.96,1.63Zm10.03,5.9c1.77,2.98,2.47,6.73,2.21,10.45,2.06-4.2,5.14-9.2,1.55-13.6-.04-.01-.08-.04-.12-.06,0,0,0,0,0,0,.05.03.07.04.11.06-.04-.02-.09-.04-.13-.06-.76.28-1.51.65-2.13,1.18.14.95-.61,1.75-1.48,2.03Zm15.11-23.03c.06-.06.1-.11.15-.16-.18.18-.38.37-.41.63l-.05-.06c4.49,5.55,12.41,7.36,18.56,10.67-2.19-5.04-4.56-9.18-9.78-11.16-2.6-.95-6.08-1.61-8.48.08Zm24.93,15.52c-1.32.46-2.71-.54-2.24-2.61-.14.14-.3.26-.47.34-.44,1.32-.56,4.08,1.23,4.44,1.05-.13,1.47-1.14,1.49-2.18Zm-5.21,3.78c-.1-.13-.19-.27-.27-.41-6.35,2.18-12.94,4.87-19.78,3.86-5.1.81-6.27,6.07-8.14,10.06-.9,13.56,17.37,1.88,20.61-4.5,2.31-3.15,5.1-6.09,7.58-9Zm-26.42,27.39c-.79-1.58-3.04-2.12-3.6-3.65-.77-.72-1.73-1.44-2.57-2.19.06,3.13-1.6,6.46-4.48,7.92-.23,1.23-.56,2.44-.95,3.64,1.76,4.68,8.26,6.35,12.42,3.95-.42-2.56-.64-5.66-.82-9.66Zm-17.69-2.63s0,0,0,0h0c.54.38,1.19.6,1.85.67.23-.87,1.19-1.44,2.1-1.24.11-.21.26-.4.48-.55.2-1.19-.22-2.65-.99-3.44-.92,1.22-2.63.16-3.81.91.09.05.19.1.29.13,3.32-1.28,3.41,3.79.08,3.52,0,0,0,0,0,0Zm6.96-23.9c.15-.33.36-.64.6-.93-.28.27-.56.51-.84.73.08.07.17.13.24.2Zm-.4,17.63c.84,1.19,1.33,2.61,1.42,4.07.39-1.5-.22-3.11-1.42-4.07Zm14.01-24.66c-5.54,2.61-.25,5.83,3.54,6.07,1.56-.09,3.67-.84,4.97.15,4.75-.46,9.28-2.31,13.76-3.84,0-.02,0-.04,0-.06-7.01-2.24-15.25-6.27-22.26-2.32Zm-3.15,7.34c.18.5.33,1.02.46,1.57.3-.29.63-.55.96-.79-.52-.24-1-.51-1.42-.78Zm-15.03,32.04c-.28-.83-.48-1.69-.58-2.54-5.12.42-9.75-4.96-6.9-9.72-.5-.72-.78-1.43-.86-2.11-1.75.06-3.58-.42-4.84-.97-17.81,9.84,5.16,40.71,13.18,15.34Zm52.65-35.99c3.75,1.63,7.27,3.5,10.46,5.9.4-.21.89-.27,1.35-.13,30.03,5.23,18.77-28.82-11.81-5.77Zm10.72-21.11c-7.53,2.41-11.48,9.49-13.91,16.51.17.25.32.51.45.79,7.15-4.22,17.15-5.48,19.69-14.27.5-3.55-3.73-3.99-6.23-3.03Zm-19.47,14.1c.61.08,1.15.46,1.38,1.09.03-.02.05-.05.08-.07,2.15-5.61,5.91-10.39,6.93-16.47,5.55-27.01-21.7,2.52-8.39,15.45Zm-32.88-15.67c3.93,8.54,1.49,18.06-5.11,24.63,2.14-2.03,4.77-2.66,6.32-1.69-1.42-4.59,7.19-9.69,13.54-8.8-18.07-9.09,1.12-17.78,10.88-8.46-.27-4.96,2.25-10.46,5.09-14.1-2.46.57-5.76,4.3-8.01,2.1-4.67,4.89-11.22,8.51-18.15,7.6-1.64-.24-3.26-.48-4.57-1.28Zm-2.76-19.13c-7.13-9.1-17.65,6.03,1.62,14.45.83-4.72.69-10.16-1.62-14.45Zm-25.03,25.32c1.78-1.98,4.22-2.58,6.57-1.87,2.19-10.07-15.81-8.27-6.57,1.87Zm-16.58-.31c5.01,4.34,4.73,10.25,1.73,15.21,1.99,2.1,1.84,6.71.02,8.87.23.36.33.8.27,1.25-1.33,3.43,3.3,3.99,5.48,2.64,4.64-2.16,6.98-7.48,7.69-12.3,1.46-8.51-5.9-19.47-15.19-15.66Zm-4.38,17.22c.31-.44.73-.87,1.14-1.28-1.4-.57-2.97-.79-4.45-.5.16,0,.32.02.49.04,1.1.2,2.12.85,2.82,1.74Zm-3.27,1.74c-.49.57-.51,1.5-.17,2.14.91-.59,1.35-1.57.17-2.14Zm4.13,1.85c.23-.16.4-.38.55-.63-.15.02-.3.02-.45,0-.02.21-.05.42-.11.62Zm-5.38,18.63c0,.06.02.12.01.19,7.15,1.88,17.51-2.58,20.11-9.78-2.96,2.21-8.01,3.6-11.05.66-1.67,3.78-5.13,7.04-9.07,8.94Zm38.62,35.9s.01.02.02.03c0,0,.02-.01.03-.02-.02,0-.03,0-.05-.01Zm171.62-259.5c10.44-1.83,11.55,7.29,8.64,15.04-2.27,5.04-2.9,12.26-7.68,15.48,8.72,32.57,14.8,66,16.7,99.72,13.71-21.01,27.38-41.91,39.29-63.92,9.89-16.47,18.03-40.26,10.83-58.84-6.62-8.78-20.66-8.71-27.18-17.71-5.34.79-11.03-.75-15.4-3.67-9.04,3.38-17.76,7.83-25.2,13.9Zm14.61,132.61c-2.79-32.08-6.8-64.55-15.78-95.68,1.44,45.61-12.05,91.69-3.38,136.89.24-1.8.52-3.59.88-5.3,2.31-13.59,10.8-24.75,18.28-35.91Zm-13.87-106.7c2.37-5.9,5.24-11.82,5.82-18.22.45-6.16-5.6-3.95-9.72-3.91-1.41,4.74-3.03,10.6-7.25,13.61,1.64,3.57,3.7,7.56,7.48,9.11,1.47.7,2.99,1.52,3.66-.59Zm-14.97-10.84c4.52-.49,6.48-8.15,7.58-11.88-.15-.17-.23-.4-.39-.57-4.05-.7-8.32,9.15-7.19,12.45Zm9.42,14.42c-4.51-2.32-6.65-6.09-8.91-10.76-1.95,38.19-.81,76.9,2.85,114.98,1.85-34.73,7.19-69.4,6.06-104.22Zm-5.48-29.8c-3.44-2.96-13.92-12.04-18.13-8.82-3.88,7.25-6.62,16.54-5.89,24.67,5.18,2.32,11.46-1.46,16.4-3.05.6-4.9,4.42-11.15,7.23-12.62.13-.06.27-.12.4-.18Zm-23.15,19.86c4.94,28.45,11.87,56.52,16.64,85-.55-29.03-2.91-58.49-.13-87.36-.27-.32-.49-.69-.65-1.09-5.1,1.83-10.14,4.35-15.64,3.5-.07-.02-.15-.04-.22-.06Zm31.39,162.91c15.35,8.42,31.97,14.28,46.51,24.06,4.82-13.71,7.96-27.93,11.9-41.91-8.05-13.6-.03-32.28,9.22-43.39,14.11-14.73,40.82-32.57,57.89-12.81.4-4.33-1.4-8.4-4.39-11.48-35.41-30.1-67.43,53.53-102.89,39.94-.06,0-.12-.02-.18-.04-9.91,13.19-17.68,28.08-17.81,44.92-.02.26-.11.5-.25.71Zm219.11-156.32s0,0,0,0c0,0,0,0,0,0Zm14.38-46.48c.41-.1.82-.2,1.24-.27-10.48-12.46-12.59-30.32-10.26-45.94-.9-.87-1.82-1.69-2.77-2.47-24.71,15.27-17.11,43.93,9.78,49.13.06-.06.09-.13.16-.19.66-.54,1.29-.54,1.85-.26Zm31.73-41.72c-7.99,8.5-26.37,13.4-37.81,12.15.68,10.55,4.28,20.58,11.06,28.69,21.27,9.59,43.69-12.78,35.42-34.17-1.68-3.39-5.5-4.98-8.67-6.66Zm-38.02,1.45c-.17,2.38-.17,4.83-.05,7.24,12.83.61,27.66-2.61,36.53-12.28-3.09-9.77-18.42-12.21-25.75-5.75-4.07,3.03-7.25,7.3-10.73,10.79Zm-109.12-25.56c8.14-2.43,16.84-3.89,25.24-2.5,2.61-1.56,4.05,2.3,1.47,3.43-12.56,13.27,3.22,31.11,18.12,32.07,9.17-.49,4.36,6.84.66,3.56-9.6-1.21-20.22-5.71-24.04-15.22-11.51,13.36,6.39,21.41,18.03,22.08,2.64,1.01,8.22-1.17,8.94,2.31-.05.98-.89,1.67-1.84,1.66-10.13-.03-23.56-2.77-29.41-9.45-2.86,3.49-4.29,8.03-2.91,12.46,0,0,0,0,0,0,.44,1.37-.64,2.32-1.7,2.33-2.18,8.25-19.15,9.97-19.23,17.07.72,4.24,3.35,8.1,2.9,12.55,2.8-12.96,9.95-29.82,25.93-21.9,5.51,2.52,11.62.61,17.25-.23,5.71-1.7,10.48-5.5,15.35-8.8,10.81.13-14.08,13.42-17.05,12.82,8.82,17.4-14.3,37.65-31.26,30.93-3.02,4.24,4.03,5.96,7.06,6.73,6.86,1.11,10.09,7.95,14.83,12.23,4.22,4.18,8.86,7.4,13.9,10.29,35.81,18.26,79.21-15.86,71.91-54.72-14.89-.39-30.32-15.75-29.53-30.99,2.27-9.75,6.53-16.95,15.91-23.9-19.21-13.87-44.84-10.57-66.21-18.62-9.06-3.49-15.77-10.23-25.51-4.02-3.4,2.03-6.26,4.82-8.81,7.83Zm-45.65,25.87c-1.42.57-5.5.77-5.63,2.6,2.67,7.2,5.31,10.88-2.08,16.37.08-.07.15-.13.22-.19-7.27,5.26-2.12,8.72-8.72,12.39-5.24,5.39-.72,14.27-10.02,17.79,7.16,6.99,18.57,8.05,25.49,15.27,10.82,18.41-.01,48.72-10.38,65.46-12.29,22.42-26.18,43.75-40.23,65.04,34.83,5.98,67.83-74.39,103.53-38.83-1.82-21.9-14.35-57.91-2.38-79.03-.15-.39-.12-.85.05-1.23-3.07-2.37-2.49-7.6.73-9.53,1.84-.95,3.82.12,5.65.55,3.18.85,6.49.32,9.61-.48,9.74-3.49,21.27-17.41,13.61-27.38-5.71,1.39-11.11.02-16.4-2.22-19.72-3.41-12.42,28.39-29.58,34.39-3.14,1.85-6.76,2.92-9.68,5.11-2.63.91-3.51-2.44-1.07-3.54,16.29-11.16,17.95-10.26,12.69-29.89.88-7.57,15.98-10.23,20.91-17.94-1.41-5.63.61-11.58,4.51-15.66-2.28-4.22-.41-11.05,4.53-17.38-2.81-5.71-.66-12.13,2.83-16.95-19.94-1.91-36.8,10.03-53.2,19.57-4.74,2.54-9.81,4.37-15,5.72Zm-107.87,2.86c8.34,20.16,21.01,38.63,33.4,56.44,7.34-6.96,16.68-11.49,25.91-15.42-4.63-4.24-26.89-27.4-22.25-32.35,2.42-.82,2.77,2.59,3.69,4,7.55,11.56,18.35,29.02,32.93,31.12,16.17,1.47,7.66-13.66,17.02-19,1.29-.65,1.55-2.01,1.7-3.32.62-6.47,10.51-9.86,9.13-13.76-6.78-12.41.26-12.48,10.53-15.46,4.34-12.36,4.38-25.64,2.85-38.39-41.1-18.56-28.47-6.84-57.49,18.38-3.46,2.76-9.63,1.93-7.63-3.61,1.59-7.96.23-22-10.09-22.46-15.75,1.59-20.16,29.49-7.43,36.96,4.65.24,1.3,5.54-2.67,2.77-11-6.7-9.82-29.01-1.51-37.52,16.48-16.33,29.86,5.39,24.92,21.94,1.06-.12,1.99-.63,2.84-1.25,6.37-6.01,12.75-12.34,18.11-19.42,5.06-7.15,8.96-10.81,18.15-8.19,10.37,2.09,19.9,11.16,30.78,8.93,12-4.43,21.36-14.85,25.42-26.79,2.42-6.99,4.49-15.03-5.79-13.68-20.04,5.69-33.45-11.1-47.79-21.95-73.94-51.3-105.62,33.84-91.14,96.64.77-.13,1.61.26,2,1.46,6.05,3.08,13.53,3.1,19.11-1,.81-.5,1.93-.16,2.39.65,1.1,2.45-2.51,3.27-4.05,4.28-4.98,2.93-14.75,1.68-18.51-.53-.82,3.82-2.42,7.31-4.53,10.53Zm-16.17,16.26c5.88,15.04,13.21,30.13,16.8,46.12,3.21-17.92,7.95-24.16,24.29-11.76-9.79-15.39-20.26-30.42-27.39-47.24-3.93,4.89-8.89,9.12-13.7,12.89Zm-93.72,172.05c.39.35.62.89.5,1.56,0-.02,0-.04.01-.06.3,2.69.95,5.24,1.68,7.82,8.74-3.64,15.92,6.22,10.19,13.89,1.49.6,2.85,1.43,3.9,2.55,2.33-13.88,14.92-21.94,23.68-31.69,1.17-1.11,3.2-.03,2.91,1.57-2.56,12.64-1.56,28.07-12.21,37.48,4.37.24,7.13,5.47,4.12,16.42,8.59-8.8,24.45-3.48,14.74,9.07,23.22-.91,18.23,23.52-2.2,21.59,17.05,16.35-6.74,27.98-16.12,11.36-.43,2.71-1.27,5.34-2.69,7.73,4.39-1.59,13.34,4.64,18.28,5.97,6.63,2.77,13.42,5.12,20.2,7.5,6.24,2.46,12.44,3.86,19.1,4.09,21.63.81,43.27.93,64.92.01-25.43-10.64-50.84-27.04-66.71-49.94-20.64-40.95-38.16-83.97-48.07-128.82-1.3-5-10.25-53.52-1.55-49.54.96.59,1.01,1.88.38,2.74-1.33,6.17-.2,12.64.23,18.87,4.24,38.89,17.2,76.21,32.24,112.13,9.12,18.81,14.55,40.64,29.99,55.37,22.86,19.08,53.27,48.3,84.81,33.77,3.24-10.61,5.2-21.62,8.43-32.26-14.55-10.05-31.39-15.87-46.83-24.32-1.27-.52-2.69-1.6-2.35-2.83-7.85-31.18-11.4-63.3-17.4-94.88-5.21-23.34-9.69-46.8-14.23-70.29-3.77-19.4-11.4-38.42-19.14-56.85-39.14,26.84-82.34,38.58-90.94,91.94-4.67,25.74-3.98,52.33.12,78.08Zm-2.51,16.77c1.07,2.21,1.28,4.7.95,7.12,3.12-1.89,6.59-2.22,10.21-1.67,2.53-2.68,3.53-7.74-.35-9.65-3.65-1.59-8.6,1.16-10.82,4.19Zm-14.12,4.24c.52.14.94.5,1.15,1.03,3.48.77,6.59,3.84,7.51,7.39,3.53-3.08,4.03-8.94,1.44-12.74-3.5-7.01-11.5-2.36-10.1,4.31Zm-7.35,1.59c9.87-13.18,11.68-30.8,6.65-46.17-3.81,7.06-8.6,13.89-9.97,21.95-1.01,8.1.26,16.67,3.33,24.22Zm-9.3,8.72c1.34-.46,2.66,1.23,2.06,2.37,1.55.6,3.02,1.5,4.19,2.73,1.31-15.22-6.05-29.08-19.17-36.75.51,14.18-.79,23.43,12.93,31.64Zm-10.02,18.4c-1.53-11.13,15.09-10.39,16.32-.69,2.7-7.95-6.85-16.68-13.94-10.88-3.35,2.61-5.31,8.14-2.38,11.57Zm-22.26-7.31c.86.17,1.3.66,1.44,1.23,3.27-.86,6.84-.91,9.99.35,1.3-14.7-5.93-28.61-16.48-38.39-3,10.75-4.02,28.78,5.05,36.8Zm-43.17-67.77c1.04,11.24,1.86,23.25,11.53,29.95.95-9-5.71-23.46-11.53-29.95Zm-2.28,20.41c-8.11-10.03-18.94-17.34-31.62-19.79,3.21,4.86,6.7,9.71,11.74,12.81,6.21,3.41,12.74,6.75,19.88,6.98Zm21.87,23.1c-9.64-11.31-14.7-16.11-29.59-9.99,5.74,4.35,12.12,7.46,19.26,8.42,1.39.32,6.11.73,10.33,1.57Zm18.93,27.13c-6.16-8.31-14.38-15.76-24.89-17.49,5.4,6.48,10.22,17.78,19.51,18.71,1.9.13,3.69-.5,5.38-1.22Zm-34.95,15.91c7.59.81,15.24,6.26,20.08,11.51,2.23-7.12,3.43-16.34-2.19-22.19-4.63-4-12.04-3.34-15.44,1.9-1.71,2.59-3.53,5.6-2.45,8.78Zm-5.63-4.61c-5.73-14.49-23.09-18.49-36.71-21.57,8.23,10.02,18.73,22.06,32.31,23.47,1.5-.29,3.62-.4,4.4-1.9Zm5.5,24.89c6.34-.57,11.91-4.57,18.26-5.59-4.98-5.92-14.53-12.89-22.62-10.71-8.29,3.31-3.81,16.33,4.36,16.31Zm-7.51,13.35c-13.91-7.26-26.27,8.04-32.21,19.05,13.26-1.47,25.43-7.12,32.21-19.05Zm7.93-9.85c-1.59.01-3.24-.33-4.66-.91-.19.27-.46.5-.85.64-1.15,2.48-2.25,6.33.72,7.94.39-1.4,1.04-2.76,1.95-4.02.84-1.3,1.79-2.52,2.84-3.65Zm21.75.27c-.62-1.35-1.09-2.78-1.37-4.24-.89.67-2.4.26-2.62-.94-8.68.6-17.79,6.64-19.54,15.4-.52,7.48,8.72,8.4,13.78,5.45,5.53-2.39,7.79-8.7,9.5-13.99.12-.49.16-1.1.24-1.68Zm26.94-5.67c-4.77-.2-11.48.28-12.62-5.87-3.1-3.05-3.59-8.32-2.25-12.4-4.68,2.91-8.27,7.67-9.83,12.89-3.83,18.66,20.07,22.95,24.7,5.38Zm-11.09,14.91s0-.01-.01-.02c-9.55.55-16.49,8.2-21.05,15.95,8.89-2.6,20.99-4.22,21.06-15.93Zm-19.63,34.11s-.05,0-.07,0c4.1-.22,8.23-.68,12.18-1.7,2.69-2.85,7.44-6.24,11.8-6.86.38-.47.79-.87,1.26-1.07-2.5-1.7-4.74-4.5-5.48-6.97-14.74-5.29-27.75,7.83-39.17,15.11,2.44.91,5.12,1.2,7.46,1.44,4.01.31,8.01.23,12.02.04Zm15.31,18.71c-15.9-1.5-31.98,18.2-44.74,25.97,11.48.63,22.61-4.68,31.74-11.17,5.17-3.97,11.01-8.41,13-14.8Zm30.79-17.42c-.76-1-1.27-2.22-1.46-3.45-6.25-.83-12.28-4.19-18.71-3.17-3.3,3.81-7.38,5.37-11.93,6.78-4.78,4.83-3.42,12.26,3.15,14.06.93-.07,1.47.19,1.76.62,1.31.26,2.65.35,3.93.25,10.36-.22,16.61-8.53,23.27-15.09Zm-16.31,25.67c0,.06,0,.12,0,.18.02-.41.02-.78.04-1.17-14.37,5-17.14,20.61-19.27,33.8,9.28-8.67,18.79-19.59,19.23-32.8Zm19.88-23.5c-.1-.01-.21-.03-.31-.05-3.07,5.38-9.24,8.22-12.02,13.58-15.33,27.37,15.03,25.86,14.85,1.64-.28-5.28-1.72-10.03-2.52-15.17Zm7.35-4.91c-.58,1.91-2.04,3.49-3.84,4.32.97,6.35,4.45,21.83,9.56,21.02,0,0-.05-.01-.05-.01,6.01-6.54-.6-19.61-5.67-25.33Zm18.47,81.42c-.34-17.22,3.15-34.09,4.1-51.19-2.91-.62-5.69-1.51-8.15-2.9-6.27,17.28-11.88,35.64-15.45,53.42,2.16,1.19,4.89.82,7.3,1.04,4.25.22,8.04-.13,12.2-.37Zm24.47,544.63c1.19-39.59,7.18-58.97-12.13-96.18-.4,6.04-.8,12.08-1.01,18.15-2.04,26.45,11.05,51.64,13.15,78.03Zm-.06,1.48c-.02.05-.05.11-.08.16.02.15.04.3.06.44,0-.2.02-.4.02-.6Zm1.82-72.43c-.3-21.88-1.17-43.75-1.87-65.62-4.63-5.1-8.91-10.47-12.97-16.01,2.39,16.21,2.51,32.71,1.41,49.02,4.85,10,8.93,20.35,12.73,30.78.23.6.46,1.21.69,1.82Zm-29.85-112.48s0-.02,0-.04c-.12.46-.23.91-.35,1.36,2.75,4.3,5.49,8.69,8.29,13.01-1.76-6.45-3.97-12.77-6.75-18.89-.44,1.48-.82,3.1-1.2,4.55Zm-1.54,5.97c-2.76,9.81-4.74,18.78-5.52,27.49,6.43,13.48,13.67,26.56,20.33,39.93.86-16.44.19-33.07-3.02-49.25-4.09-5.94-7.97-12.03-11.79-18.16Zm-8.01-67.42c7.56,12.86,16.89,24.54,27.87,34.64-2.43-15.39-13.74-28.49-27.87-34.64Zm-23.82-21.15c2.76-3.43,5.03-7.36,6.33-11.57.76-2.17.64-8.03-2.87-5.15-4.69,4.01-6.09,10.66-3.58,16.07.04.22.08.44.12.65Zm13.63-57.91c-2.78,2.9-5.06,6.24-8.22,8.78-4.16,2.89-10.39,5.02-12.06,10.14,4.4,5.8,7.17,12.99,7.09,20.27,3.74-4.26,9.83-1.82,9.79,3.73,8.41-11.96,11.79-30.28,3.39-42.91Zm-24.5,11.52c.74.37.98,1.14.85,1.85.4.59.8,1.18,1.17,1.79,2.65-3.67,8.81-7.49,11.17-8.47,4.01-2.16,7.06-9.36,11.17-10.18-.8-1.7-1.91-3.18-3.53-3.95-4.5,2.25-8.01,6.45-12.95,7.99-.42.58-1.18.93-1.89.74-1.17.44-2.36.85-3.54,1.25-5.13,1.91-4.14,4.75-2.45,8.98Zm-41.07,20.93c18.65-7.75,17.24-25.44,36.99-19.74-10.18-12.55-27.86-2.33-33.94,9.28-2.13,2.96-5.1,6.72-3.05,10.46Zm25.16,14.7c2.34-11.99,16.69-5.39,21.66,1.34,6.37-13.81-2.89-36.12-20.15-33.17-4.59,1.21-6.47,6.67-10.1,9.46-4,4.48-9.17,7.55-14.35,10.47.26.4.31.83.22,1.24,2.12,2.11,4.77,3.69,7.34,5.19,4.94,2.74,9.87,4.76,15.39,5.47Zm23.14,10.62c-2.48-6.43-10.64-16.45-18.36-12.96-6.31,11.76,9.56,14.37,18,13.03.12-.02.24-.04.37-.07Zm34.1,79.97c5.53-22.03,15.3,20.1,16.51,25.63,4.35,6.44,9.05,12.6,14.21,18.41-.41-13.71-.73-27.42-.77-41.13-3.52-6.49-5.36-13.63-7.17-20.75-14.35-12.86-27.7-28.31-35.86-45.62.67-2.11,2.84-1.02,4.1-.15,9.54,3.97,18.34,9.62,24.44,18.14-5.61-20.23-19.13-32.66-29.71-52.4-2.34,3.96-4.83,8.2-8,11.43-1.97,3.82-4.05,7.89-7.38,10.67,2.74,12.38,6.44,24.5,10.63,36.46,4.8,13.87,11.13,27.03,18.99,39.31Zm5.13,83.86c3.49,8.99,6.51,18.16,9.06,27.48.38-9.32,1-18.63,1.6-27.95-6.36-13.47-13.59-26.51-20.28-39.82-.07,12.22,2.56,24.23,9.17,37.63.44.79.81,1.85.46,2.65Zm18.47,121.92c2.23,1.62,4.17,3.66,6.36,5.3-4.03-47.87-16.55-97.54-45.82-136.41-2.64,55.04-5.54,95.46,39.46,131.11Zm-72.51-120.89c2.52-4.21,7.93-21.58,3.75-24.64-5.72,4.57-7.83,14.3-5.28,21.2.6,1.1.94,2.32,1.53,3.44Zm-2.89,2.05c-.1-.23-.21-.46-.31-.7-2.16.49-3.39-2.59-5.32-3.28-2.61-1.51-10.9-2.02-12.59.92.9,4.52,12.28,4.25,15.88,3.73.8-.15,1.61-.32,2.34-.68Zm15.98,36.66c2.74,8.9,3.03,21.31-5.83,26.84.98,2.7,1.58,5.45,1.85,8.21,13.18,4.84,24.65,13.36,35.56,22.17-7.85-11.56-14.93-23.47-21.48-35.85-3.58-7.04-6.9-14.18-10.11-21.37Zm-74.12,57.56c14.66,12.53,28.82-2.77,32.25-17.49-15.25,7.11-18.51-12.47-19.3-23.21-2.49.95-4.82,2.28-6.9,3.94-.06.96-.95,1.73-1.91,1.67-7.8,7.52-11.75,19.94-7.75,30.13.89.08,1.41,1.08,1.27,1.89.41-.04.81-.12,1.22-.26,2.19-.73,3.29,2.55,1.11,3.32Zm3.72-39.44c3.1-2.5,5.6-3.68,9.5-5.09,1.1-12.47,17.07-14.83,20.3-2.14,2.69-5.02,8.01-7.7,13.51-8.75-4.77-5.86-11.28-10.49-18.11-13.62-16.86-7.76-38.3,14.31-25.21,29.6Zm15.48,5.89c-.43.59-.63,1.3-.77,2,1.24,2.84,3.3,5.82,6.43,6.66-5.3-6.3-1.76-16.84,5.76-19.54-1.67-8.78-11.44-10.14-13.69-.96,4.18-.27,2.95,4.08-.5,3.67-.05,1.89.18,3.8.53,5.56,1.63-.88,3.36,1.17,2.23,2.6Zm1.23,10.35c3.11,5.03,10.02,4.44,13.4.02-1.54.82-3.29,1.15-5.01.78-2.42,2.11-6.08.89-8.4-.8Zm11.01-2.73c-.12-.03-.24-.06-.35-.1-.03.07-.06.15-.08.22.15-.03.29-.07.43-.12Zm1.59-5.05c-.1-.01-.21-.03-.32-.03-.36.39-.62.86-.78,1.36.51.85,1.7-.3,2.1-.81-.31-.31-.8-.56-1.22-.56.04,0,.08,0,.11,0,.04,0,.07.01.11.02Zm4.94.98c1.7-3.82,1.63-9.62-3-11.2,1.11,4.56-3.93,4.89-3.51.2-5.13,2.23-7.61,9.63-3.77,14.05.95-3.99.88-7.24,5.68-8.45,3.44-.38,4.43,2.58,4.6,5.41Zm-8.38,26.81c15.63,6.43,31.43-15.17,34.36-28.9-.62-.96-.52-2.2.4-2.71,2.35-17.8-19.16-23.9-28.14-9.56,9.66,3.42,6.9,16.69-.02,23.8.21,1.67-.63,4.06-.89,5.3-1.48,4.15-3.31,8.31-5.7,12.07Zm-16.58-76.32c.06,1.01-.91,1.94-1.94,1.77-.98,1.11-1.58,2.27-1.47,3.7,1.35-.25,2.72-.45,4.11-.58,1.35-1.43,2.94-.28,3.11,1.08,13.3-2.35,26.59,7,33.97,17.79,11.25-.5,18.37,10.61,16.99,21,6.74-6,4.86-17.32,1.9-24.95-7.05-16.39-26.27-26.46-43.72-25.26-3.35.6-9.21,2.62-12.95,5.44Zm-181.55-137.09c56.2,49.2,106.85,104.88,170.72,144.65,1.28-.49,2.59-.92,3.92-1.28-.27-2.68.81-5.15,2.58-7.13-16.34-24.77-38.2-45.43-59.89-65.47-34.16-31.04-75.79-51.57-117.32-70.78Zm146.58,166.77c5.07-8.19,11.86-15.97,20.41-20.46-63.26-39.47-113.41-94.83-169.11-143.55,24.45,27.68,46.75,57.18,69.95,85.91,20.86,29.6,42.63,60.32,75.84,77.02.93.41,1.88,1.02,2.91,1.07Zm15.02,45.85c-4.43-10.34-.26-24.45,8.09-33.08-9.39-9.91-4.2-26.87,6.93-33.04-21.94,5.57-40.37,33.59-27.4,54.79,2.72,5.13,6.92,9.22,12.38,11.33Zm73.83-16.01c-1.06-.45-1.3-2.22-.22-2.92-.19-1.15-.42-2.29-.71-3.43-5.5,14.72-21.17,33.53-38.49,26.18-6.63,9.72-21.67,10.76-29.91,2.65,13.41,40.49,71.19,12.68,69.32-22.48Zm21.36,38.3c10.4-3.51,21.96-4.03,32.3-.65-14.77-14.39-31.14-28.19-50.24-36.41-.2,19.16-15.84,37.83-34.54,43.24,11.16.75,22.34-.09,33.21-2.06,6.39-.87,13.02-4.55,19.27-4.12Zm50.48,16.66c-38.81-42.91-80.06,7.76-108.87,35.34,4.66-.38,9.29-1.09,13.89-1.88-.04,0-.08.01-.12.02,15.04-2.52,29.27-8.16,43.94-12.04,19.5-4.53,26.93-4.87,44.38-16.58,2.38-1.56,4.69-3.08,6.78-4.86Zm123.28,27.62c.13-.99.27-1.98.42-2.97-15.74-8.07-33.09-14.54-47.5-25.54-2.37-1.55-6.49-2.58-5.57-6.2,10.35-67.43,16.84-135.39,26.24-202.97,5.16-47.82,10.73-95.56,18.12-143.09-3.6-90.87-7.57-182.37,8-272.39-12.47-3.63-25.02-6.98-37.43-10.83-8.27-1.98-16.67-6.73-25.26-5.87-14.82,2.42-29.2,7.55-44.02,9.84.14,2.6-.46,4.49-1.57,5.84,5.6,16.41,14.75,31.55,22.34,47.09.12,1.83-1.77,2.29-3.23,1.83-7.06-.45-14.26.5-21.28-.22-2.55,1.1-6.36,2.7-8.97,1.35-3.2.27-5.32.22-8.93-.51.37,8.21-8.72,3.63-13.38,2.98.15,1.98-.78,3.13-3.56,2.98,0,0,0,0,0,.01,9.29,43.08,20.01,85.87,28.35,129.15,8.11,57.3,2.3,117.17-.14,173.79.41,18.74-4.07,39.16.41,57.12.67,1.18-.27,2.76-1.66,2.61.1,13.49.46,26.97.89,40.45,1.24.98,1.64,2.8.11,3.54.76,27.05,2.21,54.69,1.81,81.47.02,27.72-2.78,55.39-2.34,83.1.81,1.02,1.16,2.13.19,2.96.37,7.08,1.89,14.18,2.1,21.23,27.63,7.24,18.79-.04,38.28-1.98,18.62-1.34,37.03,2.82,55.55,4.11,7.32.79,14.66,1.38,22.01,1.14Zm-7.38-361.83c-15.86,109.06-25.49,219.1-41.88,328.04,15.94,10.49,32.53,19.89,50.35,26.71,18.57-117.87-4.95-236.54-8.47-354.74Zm374.45,311.6c-9.73-11.54-20.2-22.45-27.33-35.85-6.9-12.7-11.7-26.4-18.34-39.22-9.7-19.47-22-37.51-31.74-56.95-9.32-18.95-15.41-39.26-21.6-59.39-5.71-4.03-10.76-8.9-15.15-14.51-10.61-11.18-9.81-15.12,6.13-13.65-10.19-30.86-28.28-58.29-45.41-85.58-.68-.14-1.37-.94-1.3-1.69-1.07-.31-1.28-1.36-1.23-2.36-7.77-12.46-15.36-25.03-22.53-37.85-2.68,2.73-4.49-1.44-1.88-3.33-38.45-61.55-60.05-131.37-76.02-201.69-5.57-23.24-6.95-48.43-19.09-69.45-3.52,4.44-6.66,13.15-11.43,15.5-3.82,3.08-6.97,7.33-11.47,9.43-9.47,1.83-19.34,1.64-28.96,1.51h.02c-12.49-.92-24.62-3.64-36.62-6.89-15.21,87.47-11.58,176.35-8.25,264.65,2.63,128.28,29.92,260.38,8.54,388.42,0,.02,0,.04,0,.06.31.59.22,1.35-.21,1.84-.2,1.83-.34,3.67-.41,5.52,6.41,2.69,12.71,5.62,19.72,5.99,36.62.3,74.64-4.86,111.52.45,24.34,3.15,47.87,12.87,72.53,13.01,19.83.02,38.15-8.68,57.6-11.02,56.14-1.76,112.94,6.39,168.88.82-9.61-11.21-19.57-21.73-32.43-29.19-14.72-9.35-22.43-25.68-33.55-38.57Zm146.78,60.97c-43.81-7.56-80.79-41.77-125.41-42.9-.04.21-.12.4-.23.58,30.18,22.69,65.96,41.24,104.14,43.82,7.16.27,14.45-.31,21.51-1.5Zm-115.45-46.04c39.29,6.25,71.89,32.6,110.61,41.22-28.27-19.63-56.51-44.94-93.27-42.68-5.77.06-11.66.32-17.34,1.46Zm182.12-47.23c13.25-.33,21.65-11.99,28.11-22.24,11.32-20.91-26.15,3.2-28.62,21.09.36.32.51.73.52,1.15Zm-81.49,7.47c.62-.05,1.23-.1,1.85-.15,10.86-9.75,35.71-25.9,32.96-42.12-4.08-3.05-12.17,2.65-15.76,4.97-11.43,8.31-19.27,22.12-19.41,36.33.11.32.27.64.37.97Zm-78.2,16.63c.1.01.21.03.31.06,11.48-5.4,21.83-13.88,30.25-23.27,13.05-19.19.82-25.76-13.84-9.73-8.89,8.69-16.2,20.29-16.73,32.94Zm4.23,3.64c10.23,6.96,23.34,9.04,35.43,10.55,7.31.55,23.81-.25,21.99-10.63-5.69-3.7-12.52-4.65-19.05-5.67-12.88-1.64-26.83-.36-38.36,5.76Zm93.21-18.12c-5.34.33-10.67.68-16,1.08-.32.27-.72.42-1.12.43.04.16.25.57.23.56,14.23,25.57,76.47,38.81,53.32,11.87-7.7-7.11-20.28-12.81-30.72-13.69-1.7-.31-4.57,1.14-5.72-.26Zm72.4-7.78c-1.23.7-2.49,1.15-3.36.39-1.46.3-2.93.59-4.4.86,8.48,9.17,19.21,17.88,31.57,20.79,4.19.53,10.22-.55,7.38-6.1-6.94-9.58-19.99-13.82-31.19-15.93Zm70.01-37.67c-8.51,3.42-16.47,10.74-18.34,19.93.68.36.99,1.2.83,1.93,7.97-2.88,24.06-13.16,26.86-21.27.51-4.58-7.16-1.38-9.34-.59Zm-161.3-57.76c-.07,0-.15,0-.22,0,0,0,.22,0,.22,0Zm-86.49-356.97s0,0-.02,0c.01,0,.02.01.04.02,0,0-.01,0-.02,0Zm46.8,27.46c-.11-.08-.23-.14-.35-.21.12.06.24.14.35.21Zm-261.38-73.14s0-.01,0-.02c0,.02.02.04.02.05,0-.01,0-.02-.01-.03Z"/>
  </g>
</svg>