<?xml version="1.0" encoding="UTF-8"?>
<svg id="_Слой_2" data-name="Слой 2" xmlns="http://www.w3.org/2000/svg" viewBox="0 0 1658 1292.06">
  <g id="_Слой_1-2" data-name="Слой 1">
    <path d="m1250.88,95.55c3,1.66-2.05,6.81-3.32,8.31-1.87,3.11-6.34.52-3.09-1.88,2.47-1.31,3.83-7.62,6.41-6.42Zm-6.64-4.04c-1.91-.06-3.6.19-5.46.41-1.35.06-2.77.7-4.09.25-1.71-.8-1.05-3.45.84-3.34,2.96-.33,5.91-.93,8.91-.82,2.29.17,2.12,3.56-.18,3.5Zm-7.07-.95c0-.45-.19-.88-.49-1.19.29.31.47.73.49,1.19Zm56.61,12.14c16.14,2.17,4.02-52.02-11.8-37.41-3.09,3.09,1.68,6.92,2.56,2.48,11.2-6.75,15.19,23.73,12.1,30.52-1.32,2.57-4.04-1.01-5.57.82-1.42,1.84,1.05,3.4,2.71,3.59Zm-1.76-14.64c5.64-.73-.28-14.45-4.21-15.4-3.2-1.45-4.4,4.06-.8,3.52,4.74,3.64,2.37,11.37,5.01,11.88Zm-85.69,22.71c2.39,1.11,3.64-2.51,5.45-3.52,1.31-1.64,5.53-1.69,4.7-4.35-1.15-4.14-14.06,5.77-10.16,7.87Zm.3,6.62s-.02,0-.03,0c.02,0,.04.01.06.01-.01,0-.02,0-.03,0Zm9.47-.17c-1.46-1.49-2.81.45-4.14,1.06-.63.14-1.28.38-1.66.85-1.92-.37-5.06-3.62-5.75-.09.5,3.85,12.21,5.92,11.46.66.63-.76.82-1.63.09-2.48Zm115,71.38c-5.34-1.95-6.72,3.08-.59,3.45,21.19,3.62,33.43,24.08,33.04,44.56.21,2.23,3.79,1.84,3.48-.42.47-21.82-13.43-43.9-35.92-47.59Zm-459.71,885.47c146.7-22.13,224.58-107.13,280.09-239.35,4.85-10.5,9.15-21.93,17.95-29.88,1.24-.22,1.82-1.94.89-2.87,89.03-108.83,131.35-264.38,89.42-400.7-2.05-4.23-2.57-10.19-6.37-13.07-3.54.18-1.54,3.01-.6,4.82,28.37,69.51,23.47,147.36,5.84,218.96-21.62,111.21-89.56,203.26-178.83,270.6-31.22,25.22-65.04,47.06-98.83,68.66-.8.51-.97,1.68-.44,2.43,62.79-33.55,123.44-82.35,174.28-134.27-57.24,136.45-129.24,227.23-282.49,251.02-.33,1.19-1.03,2.37-.9,3.63Zm535.83,53.19s0,0-.06-.05c.03.03.06.05.09.07-.01,0-.02-.02-.03-.03Zm-283.15-5.89s-.06-.02-.09-.02l.09.02Zm533.5-407.13c-1.49,8.47-3.39,16.04-10.78,21.32-4.66,3.12-10.42,5.55-15.97,6.09-9.4,6.04-18.54,12.57-29.09,16.39,12.11,1.75,16.95,13.15,25.42,20.25,1.13,1.25,3.05,1.71,3.59,3.36.44,1.53-1.08,2.98-2.52,2.78-11.5.91-26.75-1.01-34.72-10.45-2.82-3.85-4.93-9.61-10.39-9.99-18.05,5.69-35.75,19.35-39.35,38.77,7.79-7.36,19.21-6.18,28.99-8.22,3.78-.78,7.74-1.18,11.25-2.85,2.33-.64,3.82,2.66,1.85,4.02-13,23.17-30.22,22.1-47.21,37.87-1.35,7.82-3.05,15.61-4.93,23.36,11.66-18.61,29.18-33.7,49.49-41.95,15.66-8.82,22.51,10.29,7.05,9.24-3.25-.95-9.02.84-9.9-3.1-19.77,9.33-36.19,25.24-46.51,44.46,12.22-11.91,30.23-11.32,44.74-18.63,1.31-1,1.94-3.29,4.03-2.9,4.63,1.52-.49,5.68-1.41,7.98-10.84,24.88-34.85,38.54-59.37,46.98-.43.52-1.14.82-1.82.8-7.48,19.68-18.77,37.45-29.34,55.55,3.66-.61,7.89.3,11.41,2.1-7.22-21.9,19.15-43.79,30.99-60.36,7.55-4.12,5.04,14.12,4.89,17.78-.92,20.97-12.15,38.97-29.05,50.91.26.8.49,1.61.57,2.4,3.35,2.19,5.89,5.94,6.8,9.91,5.72-13.08,15.69-23.77,25.97-33.4-4.2-3.75-3.82-16.74-1.22-20.21,3.23-6.06,8.59-10.56,12.39-16.23,3.64-5.33,6.47-10.75,9.15-16.54,10.2-9.09-1.79,37.29-4.3,39.8,4.83-3.62,9.77-7.07,14.72-10.42,2.96-22.04,30.63-23.83,46.53-32.85,10.76-3.86,0,9.86-2.42,12.61-9.11,11.25-26.25,25.17-40.94,23.44-.03,0-.06-.02-.09-.02-9.85,7.12-20.12,14.02-29.15,22.25,9.15-3.94,19.02-2.01,28.57-1.33,2.88.78,9.38-2.95,8.69,2.36-.47,1.53-2.14,1.74-3.47,2.09-1.97,1.09-3.89,2.27-5.83,3.42.34,3.49-2.35,8.13-5.33,11.38,7.01-.8,14.07-1.02,21.13-.66,5.54-14.47,29.48-11.29,11.17,1.05,9.44,1.24,18.83,3.84,28.06,6.32,11.33-10.4,32.28,11.68,7.22,8.45-.15,10.47-12.98,1.99-11.01-4.81-6.23-1.64-12.45-3.32-18.79-4.48,9.23,13.38-11.32,9.4-13.83-1.82-5.89-.51-11.86-.58-18.15-.12,17.38,8.28,3.41,19.43-11.66,1.41-5.45.91-10.89,2.19-16.18,3.83,4.53.39,8.76,4.24,4.5,7.67,10.2.19,26.1-6.1,14.47,10.32-9.45,14.27-26.58,18.7-42.74,15.29-1.76,4.3-5.57,7.48-9.68,9.41,17.87,12.95,3.3,31.16-15.26,28.08-12.94-.6-19.47-12.22-28-20.43-1.35,6.36-6.06,11.75-10.99,15.64,8.98-2.08,17.67.14,23.52,7.73,14.91-.5,23.36,12.11,21.31,25.76,4.61-.95,9.23-2.22,13.55-4,1.33-1.75,3.96-2.51,5.95-3.21.07-.1.15-.19.23-.28,11.87-23.48,6.04-26.04,31.73-42.06,15.03-7.29-9.64,33.33-14.41,34.67,5.75-2.34,10.79-5.9,15.97-9.19,7.58-17.43,17.66-16.09,33.47-21.92,3.69-.43,15.99-9.09,17.34-4.44-4.86,14.08-20.4,24.07-34.57,27.59-5.58,1.28-10.6,2.39-15.95,3.9-4.31,3.11-8.92,5.69-13.81,7.81,12.33-1.24,24.71-.06,36.91,1.86,6.64.23,13.58.65,19.13,4.84,6.38,3.91,7.88,12.09-1.27,12.87-3.53-.3-5.63-3.75-8.08-5.93-2.04-2.6-5.25-4.37-7.04-7.04-13.26-1.55-26.85-3.72-40.18-2.02,9.8,2.85,19.1,8.7,27.95,13.33,5.16,1.84,8.41,5.46,1.05,7.19-19.48,7.2-37.9-3.09-53.9-13.41-4.7,1.88-9.56,3.04-14.47,4.14-1.55,15.22,1.5,33.2-13.24,42.94.76,3.86,1.19,7.49,1.26,10.85.67-.05,1.38-.05,2.08-.03,7.97-17.57,23.78-23.14,40.87-28.55,1.84-.36,3.52-2.24,5.41-1.64,1.19.49,1.88,2.02,1.17,3.18-3.3,5.5-5.2,11.84-9.42,16.81,13.16-4.3,27.48-2.08,42.27-1.53,5.51,3.37-2.32,12.36-5.63,14.91-10.97,9.47-26.43,10.75-39.88,6.52,17,10.03,32.27,23.14,40.47,41.4,15.57,3.59,17.19,23.59,25.35,34.88,2.66,3.39.73,6.45-3.42,4.67-12.17-4.2-23.26-6.66-26.23-20.92-.36-4.29-4.9-13.96-.63-16.61.14-.29.32-.54.51-.76-3.81-7.1-7.74-14.28-13.54-19.96,4.29,11.16.46,23.74-1.22,34.9-7.31,3.31-12.77-16.79-11.66-22.24.16-7.9,2.51-15.52.34-23.07-1.45-1.43-3.3-1.74-4.3-3.34-9.68-6.73-20.45-12.04-31.99-13.65,14.15,10.28,16.78,30.98,21.75,46.47-.4,1.45-1.99,2.12-3.26,1.45-18.5-6.03-30.74-12.26-34.91-33.71-5.27,6.99-20.47,9.56-31.84,7.9,7.2,5.3,13.46,12.54,15.01,21.59,3.31,10.78-20.22.07-24.05-1.25,1.94,2.73,3.77,5.54,5.49,8.41,21.16-5.88,29.46,19.19,5.01,9.11,2.88,5.7,5.38,11.56,7.39,17.62,17.3-4.84,24.85,24.8,3.46,11.34,1.63,6.04,2.99,12.15,4.18,18.27,6.03-.01,15.05,8.51,12.66,14.57-2.81,5.07-8.72-.92-11.07-3.69.65,5.67,1.08,11.36,1.45,17.05,4.67,4.02,5.24,11.34,2.6,16.67-.86,2.12-3.07,4.04-5.47,3.31-6.52-2.99-3.74-13.27-1.53-18.39-.23-4.29-.55-8.61-.98-12.91-7.55,11.28-13.7-2.41-1.7-13.22-.84-5.23-1.91-10.41-3.22-15.49-7.7,13.87-17.2,1.1-4.27-15.06-1.25-3.69-2.64-7.33-4.19-10.9-.71,4.66-5.72,8.55-8.77,3.71-1.3,4.26-4.94,13.19-10.64,10.46-3-3.82-3.64-9.16-6.16-13.36-6.87-14.27-23.93-27.49-18.08-44.91-5.05-1.2-9.31-4.4-12.7-8.34-2.46,12.2-8.93,23.59-18.52,31.59,14.48,12.41,25.9,26,21.04,46.06-1.02.6-2.2.31-3.05-.49-7.89-7.59-25.63-15.39-28.95-25.49-1.47,59.82,38.05,34.3,71.2,52.65,3.59-1.72,6.58,3.44,2.11,4.26-1.87-.03-3.69.53-5.45,1.11-24.39,12.52-53.68,17.63-58.55-17.48-8.06-6.49-12.92-16.86-13.67-27.44-4.24,19.76-22.69,28.76-37.07,40.17-.29,2.02-2.53,3.63-4.27,2.04.71-40.58,38.74-33.88,40.41-66.29.57-2.31-.33-6.77,2.9-7.12.4-19.71-.12-40.58,10.45-58.03-5.92,7.24-13.77,12.62-21.91,16.97.81,25.88-8.78,55.9-33.05,68.14-2.93-.54-1.61-3.78-1.58-5.77,1.22-14.72-1.41-30.09,4.13-44.17-6.3,7.27-15.93,23.31-15.95,32.9,7.64.98,4.73,21.35-3.81,15.33-7.18-10.93,4.51-35.75,13.56-47.7-10.21,5.89-20.42,19.8-27.93,31.94-3.47,16.4,1.52,33.73-3.88,49.97-1.63,4.7-3.86,13.68-10,13.56-2.8-.22-5.03-2.67-4.75-5.51.93-12.65-1.81-25.8,2.75-37.98-17.25,18.59-33.16,39.91-38.16,65.27-.25,1.2-1.63,1.88-2.77,1.57-5.39-3.47,7.29-28.02,9.94-33.21-11.15,9.85-22.3,13.14-36.1,11.46-1.06.77-2.23,1.08-3.31.15-2.76-3.45,3.7-5.61,5.32-8.18,13.33-16.29,32.98-12.56,48.49-24.67,10.17-12.38,21.56-24.04,30.26-37.15,4.72-7.11,9.32-14.39,15.24-20.57-21.4,11.39-43.58,24.83-68.68,23.53-56.08-.57,1.55-23.59,21.59-25.01,12.85-1.4,25.96.23,38.69-2.5,7.69-.86,14.41-6.44,21.83-7.12,2.54-1.62,5.17-3.11,7.85-4.52-5.08-1.72-9.16-4.78-13.57-7.77-8.65,5.25-20.44,5.16-27.77-2.32-3.43,7.33-9.88,12.43-18.62,11.65-11.2.37-22.28-4.57-20.18-17.68-4.68.83-9.55.19-13.71-2.06.77,11.37-5.28,21.6-12.64,30.84-3,3.67-17.38,21.52-21.7,19.59-5.02-3.25,3.65-28.31,6.23-33.31-8.38,6.3-18.45,10.58-28.99,9.55,4.15,8.57,1.97,18.4.28,27.34-.6,3.46-2.64,12.24-7.05,6.94-6.55-7.34-13.56-14.56-17.77-23.57-.16,5.02,0,10.04.56,15,2.96.24,7.14,5.47,7.98,7.67,2.29,4.29-.42,9.95-5.29,6.24.6,2.14,1.28,4.26,2.07,6.35,2.59-1.75,7.8,2.16,9.79,4.41,4.17,4.11-.46,9.95-5.33,6.69,1.21,2.68,2.49,5.33,3.82,7.94.32-.02.65.01.97.16,1.82-.78,6.54,1.14,7.48,2.81,1.82,2.94-1.74,5.69-4.5,4.21,4.05,14.95-11.82,10.43-7.24-3.72-1.93-3.66-3.68-7.25-5.25-10.81-5.84,12.07-12.38-3.65-4.09-10.4-1.1-3.23-2.05-6.45-2.83-9.7-6.42,14.65-15.64,3.55-1.9-10.13-.35-2.61-.59-5.25-.73-7.94-5.67,13.98-14.31,29.57-29,32.78-4.39-1.97-1.14-12.54-2.3-16.94-5.51,10.16-16.49,14.57-26.49,19.13-2.43,1.52-4.95,4.07-8.13,3.18-4.92-1.44-14.2-6.7-10.4-12.72-12.75-17.85.53-39.69,20.25-45.08-15.91,2.02-31.1-.79-40.91,15.14-.94,21.51,10,41.21,14.93,61.66,1.34,6.77,3.45,14.08,1.14,20.86-1.18,3.47-4.16,6.61-3.56,10.46-.18,2.06-3.05,2.73-4.14.95-11.76-21.04-9.86-28.34-7.76-50.98.89-12.7-3.48-22.57-5.14-35.37-10.22,19.7-17.97,50.36-42.42,55.02-2.78-2.58.24-6.93.28-10.16,3.03-30.44,29.18-49.26,51.79-66.12-9.27,0-19.26-1.51-27.88,2.33-.9,1.52-.77,4.03-2.73,4.58-3.99,7.9-12.6,11.17-19.1,16.56-7.53,6.26-12.65,14.02-23.74,12.59-8.5-2.12-17.89.19-25.93-3.49,3.96,24.16-12.34,32.01-11.06,11.3-7.69,13.3-11.82,28.54-11.87,43.77,6.73-.5,13.37,8.19,11.2,14.59-1.81,4.23-7.06,4.57-10.11.76,2.04,7.42.05,28.87-11.79,22.69-5.26-6.42,1.35-17.26,7.46-20.72-1.22-8.63-1.57-17.4-.75-26.05-2.72,2.91-6.1,4.75-9.09,2.3-5.03-8.01,7.12-18.81,13.36-22.57,2.51-7.28,5.81-14.34,10.01-20.81-9.08,4.23-18.19,8.84-26.35,14.51,1.88,2.31-2.78,10.7-4.18,13.1-13.26,21.82-28.39-5.73,20.32-27.67-12.36-1.04-15.39-14.29-22.49-22.16-2.5,18.08-16.05,31.99-32.05,39.53-5.52,2.51-29.56,16.35-31.89,7.14,2.92-7.44,10.16-12.94,13.87-20.21,5.68-10.07,11.21-20.92,21.23-27.3-8.87,2.55-17.62,5.52-26.37,8.47.58,17.34-20.48,21.82-12.69,4.79-3.58,1.61-7.09,3.4-10.53,5.3,2.01,14.24-14.3,22.58-9.66,5.6-4.02,2.44-7.86,5.1-11.44,8.05,5.24,10.21-5.33,28.77-9.23,9.07-1.95,2.31-3.75,4.76-5.37,7.38.04-.06.08-.13.12-.18-.32.52-.64,1.04-.95,1.56,11.69,8.09-.53,26.5-4.38,8.15-1.55,3.26-2.79,6.68-4.52,9.85,4.62,6.12,1.71,17.85-5.92,19.82-7.64-1.23-1.88-17.82,1.61-21.36.87-1.42,1.45-2.77,2.12-4.25-14.05,8.14-10.92-9.53,6.41-13.29,2.18-3.73,4.68-7.24,7.46-10.51-3.14.12-7.48-2.55-5.46-6.04,3.52-4.02,10.06-4.63,15.04-3.45,2.37-1.99,4.84-3.87,7.41-5.62-4.75-.86-3.71-6.79.34-7.99,4.03-1.69,8.52-.61,12.65.18,3.44-1.95,6.93-3.8,10.49-5.48-6.29-.82-7.65-8.2-.5-8.71,4.81,0,9.75,1.5,14.15,3.32,4.62-1.58,9.27-3.08,13.92-4.57-12.65-.06-25.22-1.85-37.74-3.54-.26,1.23-1.55,2.02-2.78,1.71-12.71,13.05-31.72,14.37-48.21,19.67-2.68.41-7.92,3.88-9.54.59.25-9.03,23.78-23.39,32.23-25.98-8-1.12-16.01-2.18-24.03-3.06.05,0,.09,0,.14.01-11.55-1.28-21.83-1.27-31.52.39-6.53,13.08-8.64,28.57-20.36,38.62-3.02,3.49-11.36,11.67-10.51,1.7,1.13-13.84,6.13-27.38,16.88-36.61-21.5,5.97-32.48,29.28-33.22,50.26,5.89,1.17,4.77,9.17.35,11.44-8.09,4.62-10.77-6.45-4.91-10.22.37-12.49,3.64-25.12,10.45-35.71-7.55,6.96-17.61,11.53-23.02,20.26-5.46,18.92-15.95,35.41-32.28,46.81-2.68,1.63-7.93,7.98-10.89,5.11-3.12-2.73,2.73-15.59,4.03-19.26,6.79-16.88,19-34.14,37.29-39.13,8.56-6.34,16.59-13.31,25.14-19.63-12.19,2.87-24.81.86-36.72-2.31-2.96-1.31-11.51-.92-9.26-5.99,11.95-5.38,26.57-8.3,39.69-5.7,7.43,1.01,14.7,6.24,22.1,4.12,7.2-3.63,14.69-6.26,22.52-7.84.58-.71,1.69-1.03,2.64-.5,3.94-.66,7.98-1.06,12.1-1.19-11.23-3.48-22-13.29-31.05-21.85-8.19-6.52-3.24-8.94,4.77-7.05,22.44.42,33.86,15.59,48.36,29.85,8.17,1.43,16.68,1.97,24.92,3.38-8.94-4.59-16.49-11.51-22.87-19.24-6.03.51-8.94-9.31-2.71-11.48,4.69-2.35,10.7,5.07,6.39,8.88,9.35,11.11,22.1,20.98,36.48,23.84-14.42-8.26-19.82-25.46-29.1-38.04-66.12-17.72-74.4-8.91-136.05,7.86-26.03,5.46-53.31.38-78.87,8.56-25.92,7.17-48.54,21.76-73.42,31.41-31.68,15.3-68.33,20.49-97.8-2.6-41.18-25.65-17.93-63.53,23.07-67.4,33.56-5.3,68.26-4.58,101.67-9.6.76-1.1,1.8-2,2.86-2.87-.77-12.2-14.13-19.52-22.97-26.36-32.91-22.3-75.05-30.15-114.02-23.63-19.71,3.8-39.3,9.3-56.04,20.61-28.1,20.46-64.05,42.67-100.1,32.5-13.32-5.89-5.21-21.24,1.73-29.12,9.25-12.15,25.23-16.95,34.61-28.74,5.16-11.88-15.68-17.06-23.74-19.63-25.43-8.57-50.43,1.26-73.45,11.94-23.52,9.25-48.57,17.45-74.13,15.46-22.87,2.14-123.61-53.92-68.42-70.36,33.71-1.28,64.21,16.9,98.32,13.48-1.13-1.61.45-3.1,1.58-4.16-15.77-12.33-34.46-17.13-52.41-24.97-30.47-18.4-112.06-46.75-71.89-92.23,26.4-20.01,75.67,2.71,108.5-7.07,35.51-10.53,57.47-43.03,81.14-69.14,3.42-4.03,8.42-10.73.33-12.9-13.9-1.28-23.36,12.64-35.42,17.63-44.41,22.99-108.81,30.88-145.51-8.32-32.88-60.58-12.98-81.7,52.01-76.31,23.53-.76,46.68-6.25,69.01-13.42,16.65-5.76,7.45-15.22.14-24.74-21.63-20.25,8.21-34.67,26.6-36.54,40.66-4.57,85.3,15.84,122.95-7.1,283.76-249.12,378.72,263.85,673.89,42.61,82.33-65.99,150.01-150.28,205.14-239.82,9.01-13.88,19.4-26.88,31.62-38.08-13.1,3.33-14.12-13.38-5-19.91-10.38-1.03-16.63-12.06-3.23-15.04-.17-.13-.34-.26-.5-.4-12.82,1.15-21.32-13.7-18.46-25.12-.41-.75-.48-1.47.09-2.04-.34-9.15,2.51-17.79,1.68-27.1-3.8,10.94-10.92,21-18.85,29.47.15.26.26.62.22.94,1.21,1.59-.63,2.71-1.63,3.76-11.85,22.6,25.58,24.95,27.63,44.64,3.74,22.81-15.63,44.8-38.36,45.92-7.6,2.57-20.68,7.25-14.8,17.69,10.28,20.27,2.72,31.24-19.02,34.35-5.54,5.97.32,13.27-13.73,16.68-4.26.83-8.32-1.39-12.5-1.53-11.74,3.25-12.38,15.6-2.66,21.79,7.82,5.75,2.86,19.74-7.29,17.18h.05c-2.94-.81-13.9-1.55-13.46-5.32.3-.91,1.3-1.42,2.21-1.12,5.24,1.42,11.08,4.29,16.45,2.45,3.44-2.49,3.04-8.37-.41-10.71-5.49-4.02-13.33-5.2-17.13-11.24-8-14.53,12.42-19.76,23.18-16.63,7.3-.36,13.1-5.2,16.71-11.44-1.22-.15-2.44-.38-3.65-.7l.17.04c-18.89-2.96-24.51-22.86-2.86-15.71,3.84,1.21,7.37,4.51,11.57,3.85,4.34-1.79,4.46-7.79,2.61-11.47-3.27-7-10.41-14.15-4.13-21.75,5.47-6.35,14.44-9.94,22.8-9.13,4.01-4.07,6.62-10.58,5-16.19-17.57,5.13-34.27-9.59-28.42-27.4-18.54-8.1-17.71-38.7-4.66-51.76-15.92-17.06-.37-42.24,15.56-53.49-4.85-5.25-9.07-11.41-11.55-18.15-45.6,12.08-29.36,61.37-25.52,95.49,3,24.37-4.96,53.35-34.6,51.7-20.03-1.55-24.91-27.66-7.49-36.99,5.43-4.09,19.56,1.89,13.46,9-1.76,1.87-7.89.38-6.14,4.36,1.12,3.29,8.11-1.93,8.84-3.85-2.24-49.73-16.32-113.79,49.75-126.48-.59-8.59,4.28-17.08,10.32-22.93-15.14-4.2-4.3-22.94,7-24.57-13.23-7.75-16.34-24.87-2.24-33.6-5.01-8.31-7.25-19.12-1.15-26.85-.66-.37-1.24-.87-1.53-1.57-11.86,3.64-9.62-6.63-2.01-10.95-.95-.19-1.83-.74-2.42-1.46-.71.74-2.05.92-2.78-.24-6.36-11.25-8.53-25.48-4.23-37.82,10.3-23.8,43.14-27.82,66.12-28.93,8.5.09,16.33,3.54,24.4,5.62,5.52-.71,14.96-5.07,17.08,2.82,2,2.67,5.25,10.49,2.24,12.99,3.41,4.64,6.36,9.61,7.91,15.13,1.17,4.02-1.69,8.81.51,12.45,4.02,6.23,18.57,9.52,8.29,17.52,2.59,2.61,2.41,5.76-.7,7.91-.01.07-.02.14-.03.21,2.27,2.4.77,6.15.91,9.12,7.31,13.19-9.96,13.29-18.81,13.9-16.54,60.19,57.09,56.26,51.46,113,4.38-18.46,9.19-38.71,15.13-56.16-2.07-10.84.68-37.52,9.89-44.53-1.35-8.34,2.92-19.2,12.21-20.05.23-1.06.47-2.12.72-3.18-.12-.08-.24-.17-.35-.27.02.02.06.05.09.08-5.85-4.94-12.25-8.99-18.67-13.03-11.68,13.18-19.86,12.73-23.09-5.57-2.12-.3-4.68-.66-4.71-3.27-4.44-.01-5.56-1.48-8.14-4.64-2.92-.02-5.86.58-8.65,1.11-7.63-.62-3.5-20.77-5.68-26.37-3.38-8.95-10.28-16.64-11.75-26.29-.23-2.26-1.27-10.16,2.48-9.34,1.03.33,1.41,1.46,1.06,2.43-2.03,11.26,6.66,20.48,10.83,30.19,3.58,8.15-.32,17.74,3.18,25.81,5.12-1.12,10.96-2.44,13.79,3.18.92.17,2.1.22,3.19.43,1.34-1.25,2.53-2.65,3.48-4.18,1.25-1.9,4.15-.04,2.94,1.9-1,1.51-2.13,3.02-3.44,4.31.09.28.16.58.17.93,1.38.47,3.65-.24,3.8,1.86,3.19,3.75,1.92,16.94,10.08,12.16,11.87-8.13,19.34-22.58,19.36-36.85.02-.95.91-1.7,1.84-1.66,5.82,3.95-4.18,26.51-8.5,31.11,6.19,3.95,12.44,7.9,18.09,12.6,10.98-10.51,23.03-20.07,35.87-28.19-4.62-3.91-7.65-9.51-10.53-14.81-8.88-.11-17-5.89-22.17-12.6-1.37-2.35-6.7-7.61-3.47-9.82,1-.37,1.97.24,2.32,1.19,4.29,9.18,14.23,19.01,25.06,17.32,1.14-10.55-.13-21.16-1.11-31.67.51-4.13-4.52-16.81.56-17.51-1.83-34.88-28.87-31.89-14.51-42.66-3.94.55-8.01,1.45-11.51,3.39-1.1,1.46-3.62.94-3.38-1.08-1.26-1.16-.49-3.44-.94-4.99-8.27,8.87-4.89-2.55-19.13-7.14,3.57,17.56-6.95,3.07-15.18,2.98-23.37-.86-34.6,33.85-51.73,38.31.87,2.36,4.29,2.46,4.78,4.89-3.33,6.88-17.48,2.9-23.09.44.03,19.36,14.83,22.37,28.97,12.38,9.16-6.48,21.78-30.37,34.36-21.9,2.13,1.91-.76,3.4-2.49,3.84-12.51,5.65-16.18,20.34-2.63,27.34,7.27,3.78,15.6,5.46,21.57,11.36,2.76-3.85,2.23-8.98,2.53-13.48.16-2.28,3.55-2.12,3.5.18-.18,4.61-.25,19.17-7.56,16.67-5.76-6.17-14.27-7.77-21.47-11.53-15.07-7.54-13.55-25.1.62-32.67-18.15,6.55-24.86,34.62-49.95,28.43-8.72-3.19-10.69-13.47-10.98-21.71-.1-1.29.76-2.65,2.13-2.72,6.33,1.23,12.45,5.16,19.17,3.13-9.22-9.24,2.89-6.59,6.91-11.89,14.54-15.44,33.59-46.1,57.77-29.85-.95-4.71-3.09-10.42,4.38-7.31,4.83,2.35,10.42,4.65,13.09,9.6,1.58-.98,2.35-2.64,3.36-4.08,4.03-2.46,4.62,3.77,4.77,7.09,8.48-3.92,26.37-6.38,11.37,5.94,9.85,7.32,16.04,17.91,17.85,30.02.18,3.3,2.7,8.57-1.39,10.31.8,12.31,6.84,39,1.12,48.94,8.63,18.44,15.06,11.59,18.75,22.17,2.16,5.6,5.6,9.07,10.93,11.65,17.26,9.79,28.46,27.29,35.87,45.24,27.82,61.35-3.29,126.62-10.63,188.85-.43,24.93,9.03,48.67,19.9,70.71,2.11-6.01,4.28-12,6.43-18-9.08-12.23-3.38-28.21-4.71-42.18-.7-2.16.75-4.52,3.16-3.47,5.58,5.79,8.89,13.66,9.78,21.53,6.18-19.18,9.85-39.14,12.9-59.04-6.8-10.56-4.67-23.9-1.84-35.5,2.02-4.58.83-14.04,4.95-16.23,10.76,6.46,14.34,30.13,9.6,41.56-1.98,3.74-3,11.29-7.37,12.46-.38.3-.79.46-1.21.52-2.51,15.92-5.42,31.84-9.7,47.39,5.49-5.23,11.79-10.08,17.2-15.26,1.46-2.27,5.29-3.3,5.59.29-1.01,13.86-10.12,25.99-21.28,33.73-2.19,1.3-6.43,5.98-7.91,1.72-4.06,11.98-8.54,23.77-12.68,35.75,5.7-6.64,12.67-12.54,18.47-18.88,1.22-1.81,3.93-1.98,4.65.35.37,12.8-5.43,25.07-14.84,33.66.27,1.21-1,2.42-2.18,2.01-4.33,3.91-9.4,6.76-14.2,10-.12,1.09-.39,2.07-1,2.68-3.75,14.45-6.68,29.11-9.23,43.81,7.42-13.27,21.05-22.47,29.85-34.68.97-2.56,4.91-1.41,4.3,1.3-.77,26.68-14.51,52.55-36.78,66.91-.08,1.04-.78,1.91-1.65,2.28-.65,11.26.67,22.52,2.3,33.66,4.26-21.87,21.92-38.94,35.17-56.27,2.63-.64,3.35,2.13,2.9,4.2-.98,30.8-12.53,50.89-30.72,75.08-.58.87-1.74,1.12-2.67.75,3.62,14.41,8.03,28.65,11.29,43.14,1.91-6.23,3.88-12.45,5.92-18.65-16.25-19.47-.84-30.01,5.01-14.37,1.79-4.85,3.7-9.77,5.77-14.66-16.47-13.85,2.08-33.93,5.61-12.24,2.99-6.01,6.3-11.84,10.01-17.33-10.5-14.71,10.21-30.67,9.12-11.76,4.91-5.29,10.18-10.47,16.49-14.06-.13-5.98,10.75-11.03,15.35-7.89,6.16,6.29-8.93,14.66-14.25,12.51-3.53,2.27-6.84,4.94-9.95,7.93,5.22-1.67,10.11,3.25,5.37,7.5-4.4,3.54-10.7,5.01-16.23,5.17-4.06,5.65-7.68,11.79-10.93,18.12,19.49-12.2,12.89,12.24-5.17,12.63-.24.61-.74,1.1-1.35,1.34-2.15,5.05-4.1,10.07-5.87,14.92,3.66-2.17,11.36-2.21,10.32,3.77-1.93,5.05-9.62,9.24-14.71,9.8-.13.12-.26.23-.42.32-1.88,5.7-3.7,11.42-5.46,17.14,2.97-2.42,4.71-10.06,9.11-9.25,5.1,5.62,4.34,25.08,1.54,32.27-3.46,10.67-12,18.64-18.99,26.72,4.38,5.55,7.8,11.85,10.81,18.29-3.43-18.94,11-34.01,18.47-50.6.44-2.04,2.61-3.39,4.29-1.67,22.23,24.18,4.98,52.85-7.81,77.16,10.73-.14,31.12,2.4,24.57,17.8,3.88.17,7.54,1.72,10.87,3.28.98-4.19,2.31-8.28,4.05-12.21-25.32,1.77-40.7-36.94-18.9-25.04-1-17.54,12.82-32.95,27.82-40.21,2.41-5.3,11.47-2.63,15.46.32,1.54.1,3.07.8,3.87,1.96,13.97,8,12.73,30.77,6.23,43.64,5.95-1.21,23.82-15.52,17.36,0-4.57,16.46-21.17,26.33-37.81,22.53l.29.04c-3.23-.56-6.8-.93-9.65-2.59-2.12,4.46-3.64,9.22-4.67,14.05.03.02.05.04.07.06,12.47-12.64,33.94-7.14,49.63-12.01,4.3,2.39-1.87,6.47-3.31,8.96-8.8,10.5-19.63,19.92-33.2,23.31,6.92-.47,12.41,3.98,9.65,11.17-3.66,7.86-12.17,13.37-20.04,16.4,11.28-.65,17.95,10,22.05,19.05-1.25-8.57-7.39-33.87,8.35-18.43,12.32,10.22,25.69,22.17,26.41,39.33,2.71-9.56,5.05-19.22,6.94-28.97-11.27-9.63-18.68-22.76-17.18-37.88-5.71-35.52,16.48,2.59,20.39,13.46,4.04-27.7,2.04-56.31,5.2-84.26-21.1-4.86-20.59-31.55-26.78-48.15-1.15-2.23-.33-4.86,2.54-4.6,9.57,2.73,15.66,12.05,21.06,19.85-4.34-16.15-11.76-31.51-22.2-44.61-29.37-5.45-19.55-30.45-5.24-19.14,4,3.09,13.94,15.19,11.61,20.05,10.76,14.7,17.63,31.31,21.98,48.89,3.27-20.3,8.95-40.9,20.08-58.37-8.91-16.06,10.31-26.86,21.43-34.59,11.96-11.44,17.55,25.91-16.49,35.27-6.26,9-10.43,19.27-13.83,29.65,6.59-5.85,15.52-8.59,21.61-15.11,1.11-3.78,6.28-1.38,4.14,1.91-3.08,23.61-12.34,29.44-32.15,40.13-4.47,29.77-5.3,59.85-6.35,89.89,3.04-6.1,7.5-11.5,12.53-16.1-12.68-23.48,14.51-42,25.44-60.03,2.47-1.35,4.15,1.15,4.12,3.44,1.79,16.98-4.03,33.75-15.08,46.61,18.7-7.86,39.23-11.89,55.52-24.78,2.91-17.13,17.07-19.19,28.55-28.4,1.93-1.94,5.02.81,3.42,2.97Zm-140.63-66.76c-1.69-3.67-9.45-15.13-14.18-12.71-1.37,1-1.21,3.03-.56,4.43,2.81,5.23,9.34,6.99,14.73,8.28Zm-21.66,106.4c-3.99,3.77-8.59,7.59-13.9,9.49,15.11,2.39,27.06-2.93,32.69-18.98-6.16,3.36-13.3,4.99-18.79,9.48Zm-.07-47.08c-1.24,2.11-5.19,4.63-8.36,4.73,2.09,17.29-.79,35.02-12.57,48.69,0,.02,0,.05,0,.07,21.29-2.63,32.28-28.9,24.61-47.62-.9-2.13-2.07-4.22-3.67-5.86Zm-14.27-5.75c.76.67,1.94,1.12,2.98,1.64.05-.49.21-.92.46-1.28-1.13-.24-2.29-.37-3.4-.52-.01.05-.02.1-.04.15Zm8.57,3.34c-.34,1.89-2.12,2.11-3.6,1.43-.02.17-.1.32-.19.47.38.17.69.44.92.78,1.69-.5,3.85-1.09,4.75-2.73-.08-.04-.17-.07-.25-.1-.51.23-1.09.3-1.63.16Zm-26.39,51.92c1.95,1.43,5.43-.15,6.45,2.4,14.23-14.35,13.27-33.09,13.25-51.5-1.92-.92-4.27-1.98-5.8-3.61-3.93,2.07-7.66,4.48-11.02,7.39-14.95,13.88-19.7,30.71-2.88,45.32Zm-4.96,2.43c-7.41-3.86-7.01-14.94-15.82-16.56,1.5,8.07,8.27,14.06,15.82,16.56Zm-34.07-344.89c9.73-6.33,18.61-15.13,21.68-26.64-8.48,7.83-19.55,14.37-21.68,26.64Zm11.22-75.95c1.27-3.4-.19-15.26,4.58-14.83,1.15.27,2.02,1.52,1.69,2.7-1.03,5.53-1.51,11.16-2.36,16.72,6.95-12.99,7.18-27.14-.57-40.01-2.11,11.41-6.77,24.09-3.34,35.43Zm-728.02,839.61c-16.8-5.85-24.96-5.64-41.99-.9,9.34,2.48,18.91,4.45,28.6,3.72,4.55-.51,9.07-1.32,13.4-2.82Zm-32.94,31.11c-18.9,8.69-29.34,28.41-34.64,47.52,10.77-8.41,21.92-17.37,27.94-29.95,2.87-5.61,4.21-11.81,6.7-17.57Zm62.11-35.41c-12.13,9.85-17.43,19.25-19.35,34.68,11.63-10.52,14.73-20.35,19.35-34.68Zm173.96,48.14c-3.6,3.59-7.8,7.59-8.37,12.77,2.61-1.1,3.88-3.97,5.33-6.23,1.18-2.1,2.35-4.23,3.05-6.54Zm18.73,9.87c-3.51,3.13-7.37,6.89-7.89,11.8,4.48-2.2,6.29-7.39,7.89-11.8Zm2.18,26.17c1.84,2.88,2.11,7.83,6.09,9.02,3.4-1.61-3.18-10.14-6.09-9.02Zm126.4,7.65c7.54-12.88-.58-28.36-4.37-41.28-1.59,15.55-3.57,26.73,4.37,41.28Zm-14.65-86.22c-19.29,13.66-35.68,32.83-37.73,57.2,22.27-12,25.37-37.52,37.73-57.2Zm249.05-6.48c-25.45,1.96-52.77-.21-74.46,15.99,6.72,1.24,13.06,1.79,19.68,1.87,19.77.43,37.89-8.59,54.77-17.86Zm-43.88,67.57c-15.76,5.02-23.07,4.18-35.46,17.2,1.9.15,3.8.31,5.71.32,11.76-.61,22.01-9.44,29.75-17.52Zm36.93-33.93c-11.45,18.1-7.43,29.46-8.26,49.23.2.12.41.21.63.28,4.15-3.61,4.99-10.05,6.46-15.15,2.47-11.32.83-22.9,1.18-34.36Zm22.85-5.23c-.62,2.54-.91,5.44.18,7.88.93-2.43,1.22-5.57-.18-7.88Zm53.46,13.67c-11.5,14.06-27.86,15.74-31.63,36.31,15.65-10.16,26.83-17.11,31.63-36.31Zm22.42,34.46c5.89,27.9,32.46,19.32,50.37,10.41-14.23-6.63-24.64-4.16-40.26-6.97-3.65-.59-7.03-1.78-10.11-3.44Zm187.57-61.16c-.54,1.56-2.88,2.23-4,.52,1.13,15.98,5.75,24.53,21.9,28.5-3.63-6.47-6.57-13.27-9.83-19.92-1.63-3.02-4.5-7.62-8.07-9.11Zm19.36-118.44c2.78,2.49,5.06,5.7,8.17,7.75,3.64-.35.79-2.89-.67-4.11-2.24-1.67-4.78-2.97-7.5-3.64Zm-27.73-21.18c15.29-2.98,27.25-7.07,37.19-19.85-6.49,2.74-13.09,5.18-19.92,6.92-8.21,2.24-13.4,5.05-17.27,12.93Zm5.56,35.38c-13.33-6.52-29.6-19.19-44.61-12.01,13.38,8.79,26.88,16.46,43.65,12.25.32-.08.64-.16.95-.24Zm-35.89-24.07c10.5-6.75,17.75-17.96,21.95-29.53-12.07,7.73-17.52,12.78-21.06,27.08-.26.83-.56,1.65-.89,2.45Zm44.64-139.27c.23.14.43.33.6.53,16.48-3.63,28.25-12.52,38.12-25.99-12.69,6.5-35.08,9.59-38.72,25.45Zm-32.3,21.12c.08.01.16.02.24.04,10.23-9.18,13.64-23.21,15.36-36.27-4.34,9.36-14.3,15.4-17.08,25.42-.38,3.6-.26,7.57,1.47,10.81Zm39.82-122.14c3.1.04,6.61,1.55,9.41.05-.22-.82-.85-1.56-1.48-2.13-.54-.06-1.08.07-1.62.12-2.17.4-4.27,1.14-6.31,1.96Zm-34.18-124.49c12.63-6.53,23.13-13.71,25.22-28.88-4.93,3.88-10.83,6.28-15.8,10.09-5.95,4.46-9.15,11.5-9.42,18.78Zm17.01-54.9c12.01-3.04,26.89-14.17,22.1-28.16-4.23,3.06-8.5,6.04-12.76,9.04-6.43,4.19-12.12,11.03-9.34,19.12Zm-26.6,85.22c.27-.16.58-.24.89-.27,2.97-14.2-11.78-34.93-22.07-42.12,2.92,8.41,4.02,17.46,6.83,25.88,2.59,6.83,7.18,13.97,14.35,16.51Zm-7.52,107.28c1.92-14.38-5.12-27.26-13.52-38.3.45,4.38.45,9.03.59,13.38.44,11.19,5.6,17.16,12.93,24.92Zm-39.82-3.73c-.53,29.7,16.23,35.51,25.03,60.05,4.36-11.99,4.67-26.29-2.29-37.37-5.8-9.14-14.75-15.59-22.74-22.68Zm-32.05,4.12c4.52,8.47,4.75,18.71.08,27.42,1.72,11.27-7.86,14.91-15.08,20.34-4.97,4.49-9.56,9.88-16.09,12.08,15.48,3.01,25.92-2.3,37.6-11.78,20.23-10.81,29.46-20.67,14.19-41.63-4.41-7.73-12.93-8.15-20.69-6.43Zm16.3,47.65c-17.06,9.83-25.68,20.96-47.54,16.69,4.5,7.63,3.76,17.28-2.89,22.58,13.73-.95,25.34,9.24,39.34,7.89,9.17-5.9,19.71-9.86,26.07-19.19,8.01-12.64.01-23.7-13.42-26.38-.92-.26-1.41-.88-1.57-1.58Zm-31.61,106.64c-2.32,17.76-14.53,30.87-27.95,41.49.74.62,1.11,1.64.63,2.62,15.52-2.66,30.61-11.17,39.99-23.87,9.71-10.39-.12-23.19-12.68-20.24Zm-45.55,58.67c-50.15,28.88-78.82-28.22-49.32-41.71-1.02-2.83-1.8-5.75-2.33-8.69-2.89-2.59-6.19-.75-8.7,1.58-9.34,10.96-6.7,29.75,1.06,40.99,14.56,22.7,27.87,21.39,51.16,12.5,2.87-1.29,5.57-2.87,8.13-4.67Zm-16.57,12.3c-9.57,2.36-20.67,5.44-29.66-.2,15.02,30.18-22.95,60.69-50.04,40.34,7.63,8.17,16.09,19.71,17.25,31.74,3.01-.59,6.1-1.05,9.17-1.23-15.39-7.84-13.07-12.58.51-20.18,10.98-7.53,24.44-17.63,38.46-13.98,1.54-12.24,11.36-24.51,23.07-28.79-.23-.05-.47-.09-.7-.15-3.75-.86-7.85-4-8.05-7.56Zm49.21,20.33c16.33-4.76,47.76,5.41,39.52,25.65,7.94-7.54,3.47-19.3,4.58-28.75,1.83-14.69-9.57-16.63-20.92-12.16-8.66,3.44-16.36,8.96-23.18,15.27Zm34.31,31.87c-3.87,3.12-8.93,6.73-14.1,6.43-1.52,1.49-3.89,2.94-5.45,2.47-1,1.14-2.33,1.95-3.88,2.19-4.61,6.38-14.21,9.08-21.36,5.61-.01.02-.02.03-.03.05,6.33,10.81,24.57,6.51,34.85,3.4,3.03-2.17,5.8-5.36,7.2-9.1,1.55-3.44,3.07-7.26,2.77-11.05Zm-60.64,17.18c5.21,4.51,7.89,2.43,10.76-1.21-.33-1.22-.48-2.52-.49-3.87-7.44-10.54-6.05-25.86,1.47-35.98-2.17.24-5.12,2.38-6.87.33-.75-.16-1.38-.41-1.9-.75-.02.04-.05.08-.07.11-6.59,12.36-18.34,30.9-2.89,41.37Zm18.07-42.67c6.01,10.12,31.66,9.07,31,21.11.68,1.85.67,3.99.15,5.97,12.87-4.2,19.52-17.34,5.58-25.37-9.77-6.08-22.2-5.06-32.93-2.66-1.27.3-2.53.63-3.8.94Zm24.9,28.35c.25-.6.84-1.11,1.49-1.27.29-.64.5-1.36.6-2.07-1.72-.02-2.74-2.33-1.62-3.61-2.1-.06-4.74,2.46-6.07-.35-1-2.59,2.16-3.43,4.05-3.93-2.18-1.09-5.26-2.22-8.57-3.47,1.37,2.15,3.79,3.91,4.29,6.48.11,2.08-2.56,3.19-3.96,1.97-6.32,3.65,4.7,16.01,5.26,6.51-2.67-4.68,4.57-5.33,4.52-.26Zm-10.7,7.03c-6.01-3.78-7.87-12.52-1.52-17.14-1.11-1.76-4.45-4.31-2.36-6.34-5.31-2.16-10.47-4.7-12.97-7.95-5.7,8.27-8.02,20.57-2.23,29.95.79.26,1.46.94,1.6,1.98,4.49,4.94,12.96,4.02,17.49-.5Zm-17.82-34.48c-.21.05-.41.11-.62.16.18.05.35.11.52.2.03-.12.06-.24.1-.36Zm20.38-19.87c-11.1.18-28.27,2.78-29.3,16.52.75.04,1.51.11,2.13.48,4.17-1.1,8.34-2.21,12.53-3.18-.15-.63-.02-1.33.54-1.97,4.12-4.12,8.89-8.3,14.09-11.84Zm-7.77-3.96c-.06-.06-.12-.13-.19-.18-.84.43-2.46-.18-2.75-1.07-10.89-.56-19.93,4.29-28.83,7.12-13.97,2.35-27.46,14.28-28.08,28.98.39.64.44,1.46.15,2.14,1.21,8.3,8.63,13.41,14.24,18.91.74-3.38,2.72-7.65,6.46-8.3,2.32-10.1,7.05-19.82,12.9-28.3.35-4.72,4.39-10.92,7.56-12.85,5.48-4.06,11.91-5.7,18.52-6.46Zm-52.03,55.9c-5.59-4.72-11.36-11.34-12.08-18.34-15.34-5.4-32.88,11.49-45.35,19.11,3.51,5.05,9.93,7.15,15.68,8.51,14.33,2.63,29.77-1.47,41.75-9.28Zm50.49-62.61c-.53.29-1.07.58-1.6.86.41.03.82.08,1.22.14.13-.34.24-.68.39-1Zm-139,60.82c-.41-9.89-19.01-31.39-28.6-22.16.29,1.01.58,2.58-.34,3.28,4.93,9.64,6.77,22.74,2.1,32.75,10.32,6.56,26.41-1.7,26.84-13.88Zm-46.78,9.71c.71-1.55,3.11-1.61,3.92-.12,8.64-4.58,4.17-16.51,3.2-24.15-.54.73-.94,1.61-1.56,2.33,2.84,2.78,4.74,15.17-1.69,11.6-.82,4.28-5.32,7.66-9.21,4.5.31,2.84,2.65,5.12,5.34,5.85Zm-57.36-4.06c-.73.54-1.53.9-2.4.95-4.04,7.08-10.21,13.88-17.42,17.66-.54,2.45-1.48,4.77-2.94,6.81,1.49,1.06,2.17,3.1,3.21,4.58,6.36-10.09,11.42-21.14,19.54-30Zm-32.4,27.97c11.18-6.2,8.92-16.95,7.44-27.68-3.09,2.48-7.62,4.3-11.78,3.09-3.96,9.16-17.99,9.28-22.57,1.14-2.41,1.61-5.57,2.28-8.66,2.24-2.73,6.63,3.81,14.17,8.19,18.81,8.11,8.13,17.88,8.35,27.38,2.39Zm-37.41,14.06s0,0,0-.01c0,0,0,0,0,.01Zm-1.64-6.5c-3.4,2.95-6.54,6.01-9.12,9.74,1.89,1.18,2.98,2.48,4.26,4.09.67-4.8,2.13-9.71,4.85-13.82Zm5.76-65.33c3.7-11.85,20.62-12.25,27.21-2.9,3.67-.65,7.4.73,10.61,2.43,1.34-19.55-37.97-31.11-41.85-9.67.35,3.47.68,8.22,4.03,10.14Zm22.68-64.91c3.07,3.89,6.95,9.47,12.51,8.92.07-.4.24-.75.49-1.05-.08-.18-.17-.35-.25-.53-.85-.3-1.56-1.24-2.02-1.76-.65-1.71-13.83-11.92-10.72-5.58Zm2.38,9.52c4.28,6.05,7.83,12.62,9.85,19.76,1.41.79,1.28,2.71,1.68,4.11,4.3.35,9.34,2,14.26,4.42-5.65-8.92-9.86-18.81-12.96-25.28-1.42.96-3.4,1.17-5.09.89-2.92-.55-5.49-1.99-7.74-3.9Zm24.56-4.23c-3.33,5.26-2.66,13.47-.3,19.05.87-4.28,4.8-17.43.12-18.87.02-.03.05-.05.07-.08.03-.03.07-.06.1-.09Zm49.23,52.81c-6.52-14.18-20.1-25.11-34.98-29.48,7.69,17.99,11.46,46.47,35.27,48.77.06-.12.11-.24.17-.36-2.51-5.98-2.95-12.88-.45-18.92Zm-61.21-20.16c-3.44-.74-8.85.79-9.93,4.42,4.84,2.61,9.34,6.97,12.08,12.01,12.57,5.48,26.95,18.81,25.62,33.65,14.07-22.97-4.16-45.48-27.77-50.08Zm-33.84,52.55c-.06-2.58.44-5.13,1.49-7.28-2.51-1.97-4.31-4.93-5.36-8-.03,0-.05.02-.08.03-10.3,2.41-5.89,16.53,3.95,15.25Zm22.15-13.64c-1.67-4.67-9.39-4.07-9.47,1.15.58.64.78,1.6.48,2.41.33.71,1.2,2.4,2.07,1.44,2.26-2.08,5.21,1.5,2.93,3.44.07.84-.27,1.7-1.18,2.13-.4.9-.07,3.63,1.37,2.73,1.83-1.18,2.7-5.08,5.3-4.05.66-3.08-.45-6.36-1.5-9.25Zm-3.02-13.11c-12.08-11.43-27.09,4.64-14.89,15.86,1.12-.95,2.45-1.64,4-2,.16-3.48,2.39-6.68,5.81-7.88-.31-2.24,3.1-4.67,5.08-5.98Zm2.27,31.94c-.42-.45-.79-.95-1.12-1.48-4.97,2.74-9.3-3.26-7.67-8-1.8-.76-2.97-2.52-3.69-4.24-.16.05-.32.11-.47.19.24,1.44-1.14,2.73-2.74,2.87-1.47,2.57-1.59,5.95-.74,8.82,2.4,8.22,12.93,9.24,16.42,1.83Zm5.84-1.76c19.24-1.77,13.45-31.45-5-26.84-1.06.66-2.13,1.36-3.02,2.23,7.46,1.69,9.29,9.55,9.03,17.32,1,1.51.2,4.49-1,7.29Zm15.45,13.87c21.95-15.14,16.75-34.33-4.53-47.61.22,2.09,1.15,5.05-.47,6.77,6.94,5.49,7.91,16.32,3.14,23.58.61,4.02,1.16,8.06,1.6,12.1.19,1.68.29,3.42.26,5.16Zm-52.7-115.78c8.3,16.44,8.45,43.15,29.89,48.14,1.19-3.62,4.92-5.3,8.4-6.36-.09-.46-.2-.93-.28-1.39-2.52-3.29-2.73-8.21-5.14-11.78-6.85-13.18-18.28-24.55-32.86-28.61Zm10.7,103s0,0,0,0c-15.69,1.8-21.57-20.42-5.46-24.16,0-.19-.02-.38-.02-.57-1.26-.4-2.49-1.68-3.34-2.78-33-17.85-12.94,41.39,8.83,27.52Zm-49.15-63.48c2.45,18.44,5.52,38.82,19.19,52.55-3.93-18.36-5.13-38.5-19.19-52.55Zm-24.51,58.44c15.46,19.37,40.94,37.66,66.49,27.14-3.06-5.01-5.77-10.17-4.58-15.94-.71.29-1.54.14-2.13-.25-18.09-10.26-39.39-12.81-59.78-10.94Zm54.37,42.78c-3.9,1.31-7.89,2.3-11.82,3.07,2.72-.19,6.42-.27,8.87.44.94-1.21,1.92-2.37,2.95-3.51Zm82.74-40.4c6.55-6.79,15.63-13.06,25.52-11.28-8.07-2.32-14.76-8.13-19.29-15.22,1.23,8.01-.09,16.41-4.19,23.43-.57.89-1.25,2.01-2.04,3.07Zm45.64-6.52c0-.05-.02-.11-.02-.16-7.76-3.61-13.97-14.34-8.68-22.2,8.5-9.81,23.53-3.12,33.35,1.18.05-.31.16-.62.33-.91-4.06-20.43-27.82-23.11-35.66-3.66-3.49,8.97,1.14,22.75,10.69,25.76Zm-.93-42.11c13.31-4.94,26.01,3.13,29.68,16.84.84-.45,1.72-.69,2.61-.79-5.67-5.57-7.35-13.85-3.85-21.29-11.34-12.31-30.65-30-28.77.41.09,1.61.23,3.22.34,4.83Zm34.07-38.04c10.66-16.02,21.53-32.71,19.79-52.85-12.4,17.36-23.5,31.55-19.79,52.85Zm83.28-247.98c-21.04,9.38,11.23,27.32,21.31,30.45,6.38-1.45,12.77-.06,18.85,1.94.92-1.15,1.92-2.27,2.99-3.33-9.31-3.66-17.32-13.69-17.06-24.03-8.06-3.64-17.13-7.97-26.08-5.03Zm45.04-8.9c-4.1-1.84-9.03.03-12.42,2.57-4.08,6.48-2.76,17.97,2.55,23.61,3.67,3.89,7.2,8.57,13.11,7.44,3.51-2.39,6.7-4.51,10.82-4.96-4.52-1.75-8.59-3.8-11.06-9.44-2.95-5.96-3.1-12.68-2.99-19.21Zm6.02,14.69c2.68,9.44,10.02,9.22,17.35,12.89,1.72-2.1-.15-5.23,1.52-7.26-21.97-.83-17.61-32.85-4.14-31.18.03,0,.06,0,.09,0-1.74-2.65-5.15-3.3-8.28-2.14-.54.85-1.61,1.32-2.57.97-8.36,4.39-5.76,18.59-3.97,26.74Zm22.07,5.69c1.41,2.39.74,5.44-.15,8.11,40.72.55,31.75-26.59,19.25-20.37-.46.91-1.07,1.37-1.7,1.52-3.23,6.35-10.22,10.98-17.41,10.73Zm25.18,32.18c-2.66-.59-5.92-.67-8.05-2.46-7.25,1.44-15.52,3.38-18.9,10.73,11.52-7.02,21.59,3.23,19.81,15.6,4.71-2.38,10.74-.5,14.14,3.24.81-2.23,1.14-4.61,1.35-6.96.74-7.45-2.34-15.57-8.35-20.14Zm-8.33,48.86c5.14-4.56,14.62-7.17,13.57-15.69-3.05-9.2-10.57-3.72-12.81-6.01-1.49,7.96-7.67,15.89-16.19,16.88-7.19,6.7-14.02,14.95-23.96,17.1,4.03,3.58,13.4,1.49,18.42.82,9.65-1.56,14.26-6.81,20.97-13.11Zm-38.15,7.33c6.19-1.95,10.52-7.1,15.28-11.25-2.03-.27-3.98-.83-5.83-1.62-8.64,1.55-19.19-3.09-23.01-11.16-4.97-2.3-9.33,3.37-8.1,8.11.56.69.74,1.68.29,2.5.09.73.17,1.46.2,2.18-2.97,14.88,10.85,13.61,21.17,11.24Zm15.74-15.72c1.01-.98,2.2-1.75,3.44-2.42-.74-4.18-2.54-8.02-5.24-11.35-1.21-.17-2.05-2.15-1.27-3.29-4.29-.12-9.11-4.6-6.49-8.57-7.93,1.65-7.97,11.18-3.9,16.64,3.02,4.86,7.89,8.14,13.45,9Zm2.24-18.97c3.23-1.58,7.8-5.48,8.07-8.83-.18,0-.36,0-.53.03l.06.02c-1.98.64-4.18,1.38-5.48,3.1.03,4.02-5,3.03-4.59-.37-.48-.36-.99-.65-1.53-.86-7.44,2.3-2.55,4.67,2.09,4.76,1.29.21,1.89,1.17,1.91,2.15Zm12.29-10.3c1.68,6.13-6.3,12.69-11.33,14.79,2.94,3.86,4.36,8.56,4.94,13.33,10.49-3.2,15.68-21.4,6.38-28.12Zm-17.33-1.73c-5.24-8.26-19.71-6.3-24.46,1.44-2.27,5.57.77,11.41,1.34,17.01,1.01,5.88,6.92,9.45,12.59,10.76-12.58-10.99-8.36-30.99,10.37-29.01.06-.06.11-.13.16-.19Zm20.93-15.52c-6.41-8.58-19.54-16.39-30.22-12.1-4.31,2.42-8.5,5.59-11.66,9.5.17,1.13-.7,2.1-1.72,2.36-2.29,3.66-4.02,8.09-4,12.46,6.22-7.41,23.12-9.46,29.48-.47,1.58-2.36,3.13-4.77,5.37-6.56,3.74-2.68,8.24-4.12,12.74-5.19Zm-12.18-44.18c2.63,1.27,10.1,1.28,8.52-3.07l.02-.04c-1.05-.6-2.35-.43-3.48-.2-.68,1.47-2.14,1.57-3.22.95.04,1.09-.77,2.13-1.84,2.35Zm.13,19.83c-.21-.41-.55-.74-.96-.94.42.22.75.55.96.94Zm-1.51-20.02c-3.73-2.17-5-5.88-4.1-8.53-7.28-.15-.55,7.84,2.3,9.83.47-.94,1.09-1.27,1.8-1.3Zm-.84,13.79c.49-1.69.65-3.41.53-5.17-4.16-3.82-9.47-7.39-11.36-12.96-4.5,8.61,1.05,18.44,10.83,18.13Zm15.59-15.46c-.18,5.16-6.01,7.61-10.86,7.1.21,2.04.54,5.54.04,8.08,1.07-.22,2.12-.55,3.11-1.06,5.03-2.35,10.27-8.33,7.71-14.13Zm-10.32-5.53c-.74-1.01-2.28-1.48-3.44-.98-.03.73-.28,1.38-.82,1.82.23.8.99,1.58,1.71,2.18-.02-.34.03-.7.19-1.06.42-1.01,1.35-1.6,2.36-1.96Zm-16.08-12.95c-9.67-27.23-43.43-27.54-67.71-26.03,9.6,5.57,17.88,13.38,28.23,17.64,10.82,4.66,22.32,6.8,33.68,9.59,1.86-.74,3.83-1.18,5.8-1.2Zm-39.51,62.07c-10.72,2.91-14.27,7.17-15.04,18.49-1.67,4.56-5.24,7.64-7.9,11.54-13.94,24.92,9.93,26.04,27.67,19.2-1.42-6.91,3.83-14.11,11.2-13.55-.98-5.14-2.68-11.34-1.54-15.37-3.78-5.96-.86-13.51,2.13-19.23-4.66-1.44-8.93-2.08-13.1-1.66-.45.76-1.32,1.25-2.46.96-.32-.12-.64-.25-.97-.37Zm-16.79,93.04c7.89,4.88,17.62,1.82,26.13.52,11.46-3.6,22.22,5.75,32.29,6.41.67-.8,1.78-.82,2.7-.45,8.74-2.11,12.01-11.7,7.77-19.21-1.62-.91-3.35-3.66-2.56-5.55-7.51,1.08-20.69,4.26-24.49-4.35-11.64,1.33-22.62-2.76-19.9-16.44-6.09,2.35-12.73,2.94-19.15,3.32-9.43,8.22-13.88,27.13-2.79,35.75Zm75.83,37.72c-7.37,1.02-5.26,8.41-6.79,13.53,11.49-4.68,21.11,6.91,19.74,18.16,2.41-.54,5.34.08,7.68.66.05-.14.08-.26.11-.34,5.15-14.48-1.85-37.14-20.74-32.01Zm-72-7.24c6.68-3.33,12.04-8.61,17.78-11.61-15.62-13.57-39.08-22.08-58.63-11.98,11.38,9.58,23.58,22.35,39.38,22.7.61.08,1.13.42,1.47.9Zm37.22-24.59c-9.27-3.57-18.8.69-28.26,1.19,4.64,2.82,9.39,6.31,13.62,9.96,7.41-1.68,18.84,2.7,24.75,7.97,5.24.31,10.42,2.44,13.71,6.6.03-6.85.25-13.79-2.19-20.27-.53-.04-1.15-.09-1.78-.21-7.17,1.81-13.47-2.8-19.85-5.25Zm-20.26,60.4c5.91-2.42,12.78-2.84,18.5-.07,3.51-5.63,11.89-7.58,17.24-4.21,1.14-23.02-39.31-16.45-36.31,3.87.22.13.41.26.57.41Zm3.77-21.26c.64.49,1.19,1.17,1.13,2.07,11.33-7.04,33.37-5.83,34.88,10.69,9.17-9.63,4.29-28.24-10.1-28.38-10.36.01-22.24,5.37-25.91,15.62Zm20.14,30.34c.52.27,1.02.59,1.31,1.09.4-1.1.63-2.19.06-3.16-.57.58-1.18,1.24-1.37,2.05,0,0,0,.01,0,.02Zm7.51,18.22c-1.17-8.79-7.57-6.89-13.08-10.81-2.75-1.72-3.78-6.18-.15-7.53-.61-.35-1.02-.91-1.26-1.58-9.13-.74-3.6,12.37,1.76,14.49,3.92,2.52,8.33,3.98,12.73,5.43Zm-7.16-12.72c-.15-.35-.2-.73-.16-1.12-.77.28-1.68.15-2.3-.44-.22-.04-.44-.06-.66-.06.93.82,2,1.29,3.12,1.62Zm-.13,14.93c-10.98-2.18-25.11-19.84-10.4-26.49-4.48-1.02-9.37-.21-13.49,1.73-17.57,12.63,11.88,24.81,23.89,24.76Zm-2.85-24.9c7.32-7.23,11.36,4.54,6.73,10.46.16.07.32.16.49.28,0,0,0,0,0,0h0s-.1-.06-.15-.1c3.08,1.62,5.15,4.57,6.41,7.79.13-.25.26-.5.38-.76,10.21-18.54-6.1-32.64-13.87-17.66Zm-51.14-.63c1.87-13.66,14.18-31.32,29.63-27.49,3.71-9.25,13.35-15.44,23.31-17.35-4.66-2.1-9.69-4.55-14.91-4.24-.49,1.37-2.3,2.24-3.7.93-5.55,2.15-9.98,7.21-15.22,10-15.07,7.19-29.48,20.79-19.12,38.15Zm4.27,25.34c-15.03,5.24-8.65,27.19,1.27,34.75,17.32,13.14,42.48,2.79,56.61-10.48-21.49.98-48.35-1.6-57.8-24.23-.03-.01-.06-.02-.08-.03Zm69.2,10.82c-3.38-6.44-12.65-4.93-18.51-6.16-.58-.02-1.16-.04-1.74-.07,0,0,.3.01.3.01-15.1.77-46.38-16.19-27.78-31.63-3.44-5.39.35-13.11,4.3-17.57-.83-1.09-1.19-2.39-1.23-3.75-32.79-4.29-42.84,76.14,33.95,68.1.14-.09.29-.18.43-.26,3.6-2.68,6.9-5.72,10.27-8.68Zm10.58-51.63c-8.5.09-12.97,6.87-12.34,14.77,3.01,9.09-1.02,18.58-5.52,26.46.01.33-.04.64-.16.91,4.33.82,8.47,2.58,10.74,6.4,11.05-8.21,27.52-43.56,7.28-48.55Zm28.25-35.77c-12.68-.04-23.01-9.18-35.74-7.56,1.57,5.19,3.64,21.72.49,25.22.05.11.1.23.15.35,5.64-5.68,16.66-5.37,23.15-1.86.61-1.62,1.4-3.18,2.21-4.7,2.47-4.49,5.86-8.22,9.74-11.45Zm-112.04-20.26c-3.62-2.59-7.4-4.91-11.29-6.98-2.85,2.68-5.9,5.76-9.49,7.59,7.37-1.57,14.25-1.7,20.78-.62Zm-22.24-12.09c-1.94-.79-3.89-1.55-5.86-2.26-.54,6.09-1.19,12.16-1.91,18.23,1.41-.86,3.15-1.54,4.79-2.07-8.08-2.08-.23-10.21,2.98-13.91Zm-21.95,116.49c9.43-6,21.18,1.48,26.54,10.74-3.26-13.82-1.42-34.86,14.57-37.26-.13-.6.12-1.46.56-1.87-10.89-13.51-4.92-32.79,9.62-40.9-15.07-2.38-26.88-13.83-38.08-23.39-3.9,30.99-9.91,61.67-13.21,92.69Zm-37.87,44.85c.08-.14.16-.27.24-.41-.32-.01-.63-.18-.87-.3.22.24.43.47.63.71Zm3.85-5.13c.71-.7,1.46-1.32,2.24-1.8-.76-1.2-1.43-2.49-1.98-3.85-.05,1.89-.14,3.77-.26,5.65Zm17.51,18.57c10.37.83,26.2-3.74,28.02-15.51-.32-.39-.51-1.12-.41-1.65-.07-.1-.14-.21-.19-.31-.93.35-1.88.64-2.85.86.55,4.83-16.97,8.55-20.21,7.74-6.69-.03-10.53-4.2-11.89-9.32-4.97,6.38-.73,17.37,7.54,18.19Zm30.9-41.42c-6.55-5.33-18.49-1.98-20.73,6.26.42.24.82.5,1.16.81,14.26-12.6,28.24,7.01,8.55,13.83,1.08-.02,2.15-.15,3.2-.41,9.33-.96,14.93-13.78,7.83-20.5Zm-12.47,16.68c13.08-4.67,4.12-14.12-4.16-6.1,2.71,1.63,5.15,4.08,4.16,6.1Zm-11.9-2.72c1.77,2.78,7.4.88,8.18,4.27.34-.14.69-.28,1.03-.42-1.27-.43-1.65-1.97-2.74-2.69-1.69-1.27-4.62-2.87-6.47-1.16Zm-10.14,4.29s.05.03.08.06c-.02-.02-.03-.03-.05-.05,0,0,.01.01.02.02,0,0,0,0,0,0,.07.07.13.14.2.21,0,0-.02-.02-.03-.03.67.83.69,2.04,0,2.88,1.75,10.01,14.57,6.76,21.18,3.96-1.82.08-4.03-.84-3.54-2.84-.52-.22-1.14-.9-1.24-1.69-6.6.65-16.63-7.02-7.2-11.55-5.52-1.85-9.13,3.51-9.41,9.04Zm14.74,34.8c7.68,1.03,15.47,2.12,22.89-.8,14.44-3.68,28.11-25.4,11.1-34.74-3.05,4.18-6.8,6.59-12.53,8.8-.84,6.62-4.95,11.91-10.97,14.47.1.58-.02,1.2-.41,1.67-2.97,3.88-6.34,7.45-10.08,10.59Zm23,14.6c26.36,1.9,43.63-35.94,18.33-50.23,19.05,24.9-18.99,47.63-41.79,40.09,7.79,3.38,14.73,9.48,23.46,10.14Zm18.72-55.27c-2.01-2.5-3.91-5.09-5.54-7.84.37,2.07.47,4.13.24,6.12.61-.32,1.37-.36,2.2.13,1.05.49,2.09,1.02,3.1,1.59Zm-41.4-18.61c-1.25,1.84-2.21,3.82-2.75,5.76,17.38-18.61,42.79,5.22,22.72,22.33,0,0,.02.02.02.02,26.37-6.53,1.53-49.67-16.81-31.86-.29.27-.57.55-.85.84.09.28.14.59.1.92-.32,1.61-1.28,1.99-2.43,1.97Zm-4.99-.41c-14.86.22-27.63,12.42-17.12,26.49.02,0,.04,0,.06,0,.75-.83,1.61-1.54,2.51-2,.35-6.95,4.6-13.69,11.98-13.45-.36-1.3-.36-2.8-.1-3.95.51-2.45,1.43-4.86,2.66-7.1Zm-63.63-38.74c5.27,25.41,4.17,45.44,26.69,63.08,1.27.56,2.37,2.08,1.82,3.45,1.94,1.58,4.06,3.42,5.86,5.26.24-6.54,1.78-13.74,1-20.44-1.67-2.61-.97-6.42-1.36-9.44-4.25-18.21-17.2-30.08-34.01-41.91Zm25.17,106.56c-12.55-6.98-36.04-5.44-20.13,12.69-6.35-9.9,6.54-13.32,12.96-6.43.81-1.26,1.68-2.49,2.77-3.51,1.26-1.32,2.86-1.97,4.41-2.75Zm-5.95,17.36c-.01-10.3-20.91-15.88-6.03-2.38,2.98.67,1.65,5.29-1.23,4.37.21.57.16,1.24-.13,1.74,2.07,3.5,3.43-.46,3.42-2.69.12-1.22,1.41-2.05,2.57-1.88.6.09,1.08.41,1.4.84Zm9.42-13.46c-.45.04-.83.14-1.25.23-.57,10.1,6.45,24.17-4.94,30.9,16.28,7.27,11.53-24.12,6.18-31.13Zm30.39-10.78c.18-1.21,1.47-1.94,2.92-1.98,3.23-2.37,6.25-5.01,8.96-7.96-13.64,5.96-31.5-2.27-27.34-18.84-1.98,1.87-3.79,4.3-5.11,6.98.18,1-.1,1.9-1.05,2.46-3.85,8.89,2.43,17.71,10.84,20.57,3.96,1.4,7.49.65,10.78-1.23Zm202.75-168.88c-8.87,3.46-15.14,12.87-24.83,13.85-6.78,4.73-12.46,10.56-15.2,18.79,4.48,4.48,6.85,11.26,7.42,18.22,3.91-2.97,7.68-6.12,11.04-9.71,11.06-11.36,16.78-26.35,21.57-41.15Zm-9.4-113.52c-4.59-.74-9.25-.92-13.45.98-7.41,10.02-21.65,9.97-32.74,7.7,2.03,1.75,5.76,5.29,6.55,7.91,6.5-.5,11.17,4.4,17.73,2.97,9.37-.94,20.77-7.28,23.77-16.54.1-1.31-.29-2.96-1.87-3.02Zm-12.98-23.09c-.08.53-.24.95-.45,1.29,3.28,3.81,5.05,8.8,3.87,13.97,14.4-3.31,26.4-12.05,35.54-23.5-12.47,2.7-28.59-.4-38.97,8.23Zm-19.98-3.39c2.69.24,5.27,1.52,6.9,3.79,12.31,14.7-9.42,26.5-22.57,26.28,10.79,2.33,23.34,3.97,31.02-4.58,6-7.42,4.63-15.37-1.8-20.39-1.08.16-2.17-.6-2.45-1.63-.68-.39-1.4-.75-2.16-1.08-2.7-1.2-5.89-2.57-8.94-2.38Zm-27.01-15.83c.71.93,1.36,1.91,1.99,2.9,2.34-1.03,7.02.19,8.67,3.21,4.76-1.2,9.44,2.49,10.88,6.91.29-.2.58-.39.88-.55,6.28-9.95-1.61-12.65-10.2-13.74-3.88-.53-9.39-2.31-12.22,1.28Zm-.05-9.62c10.23-20.41,27.61-47.1,9.93-68.19-14.91,26.16-24.26,37.46-9.93,68.19Zm-59.66-45.4c-2.6-.08-5.18.13-7.61.98,10.99,7.21,26.49,15.62,37.69,4.16-11.73.45-19.35-1.24-30.09-5.14Zm-3.57-119.26c-7.76-5.88-15.18-13.61-24.88-15.98,10.3,37.78,32.08,49.75,59.35,73.87-6.43-22.1-15.24-44.41-34.7-58.08.04.03.07.06.11.09.05.04.1.08.11.09Zm-2.24,49.65c5.99,18.96,4.37,40.62,19.46,55.82,4.76,5.23,10.86,9.61,17.89,11.05,1.08.18,1.67.89,1.85,1.69,5.67-8.78,9.94-19.62,7.7-30.05-4.72.45-2.9-8.76-4.42-11.86-8.51-15.16-26.4-22.17-42.48-26.66Zm-13.45,5.18c5.11-1.87,8.1,8.34,1.83,5.82-.91.21-1.92.21-2.8,0-2.56,2.39-3.82,5.33,1.05,3.93,4.25-1.14,6.44-5.9,10.19-7.4.07-2.39-.17-4.89-1.72-6.79-3.27-3.91-7.95.76-8.55,4.44Zm20.21,59.96c7.53.52,14.93,2.1,22.32,3.6-21.04-10.47-28.72-35.5-30.58-57.4-4.19,5.46-17.23,14.09-19.83,3.42-7.16,19.88,8.63,44.12,28.09,50.37Zm45.53-26.81c.24,7.76-.78,15.56-3,23.01,9.85-11.75,12.29-23.45,9.4-38.34-3.61,5.2-7.24,8.34-6.39,15.33Zm-17.06-60.85c16.25-22.53,26.7-37.38,28.69-66.07-8.77,12.6-20.25,23.69-26.09,38.08-3.23,8.83-3.9,18.74-2.6,27.99Zm-37.55-107.3c5.38,17.94,4.93,43.33,26.67,49.65-.91-18.78-13.71-36.76-26.67-49.65Zm31.7,47.97c17.71-16.02,30.23-30.97,32.28-55.69-15.08,15.4-33.79,32.07-32.28,55.69Zm-2.19-113.51c1.97,13.14,1.28,28.26,10.61,38.73.54-1.87,1.07-3.94.98-5.84.55-11.77-1.35-25.51-11.59-32.88Zm27.21,24.02c-1.25-1.96-2.4-3.99-3.5-6.04-2.63,3.8-4.66,7.95-5.59,12.71,3.14-1.93,6.22-4.16,9.09-6.66Zm-1.17-9.17c1.21,2.29,2.38,4.58,3.77,6.76,6.43-6.33,11.31-14.15,12.24-23.17-5.2,5.37-11.23,10.5-16.01,16.41Zm3.36-33.1c.49-1.38.97-2.75,1.45-4.13.99-8.84,1.36-18.54-3.46-26.43.21,7.63-1.25,14.87-.38,22.42.45,2.76,1.1,5.63,2.39,8.14Zm-59.48-280.93c-11.06,10.14-20.53,21.97-28.58,34.63-4.25,6.81-7.03,14.05-9.88,21.48-2.88,5.34-2.25,13.37-7.21,17.08,1.51,34.8-6.74,71.77-27.58,100.41,4.58-.74,26.11,10.06,24.04,14.59-.58.74-1.73.9-2.46.3-6.95-5.68-14.52-11.43-23.87-11.56-.09.13-.18.26-.27.4.04.06.07.11.1.18,7.85,3.25,12.93,10.35,17.4,17.26,1.15,1.95-1.9,3.71-3.04,1.74-4.21-6.49-8.99-13.23-16.48-16.11-1.12,1.53-2.3,2.71-3.65,3.68,8.7,5.1,12.49,15.15,17.09,23.61,1.07,2.03-1.87,3.72-3.04,1.74-4.36-8.8-8.84-18.06-17.08-23.6-3.57,1.57-7.68,3-11.23,4.81-1.72.98-5.51,3.13-5.45-.42-11.78,2.53-24.12,6.46-36.11,6.14-.12,2.2-.28,4.4-.54,6.59,32.92-.17,64.01,21.22,97.12,14.44.14-.1.27-.2.41-.31,8.03-18.04,20.93-35.65,29.54-54.11,8.84-16.92,18.61-34.88,18.88-54.33-.51-2.63,3.29-3.38,3.48-.59.37,6.84-1.09,13.62-3.21,20.09-3.42,11.96-8.9,23.01-14.66,33.92,15.69-10.17,24.5-27.41,32.57-43.68,13.66-7.81-21.62,44.1-26.96,44.06-1.75,1.08-5.38,4.96-7.07,2.36-.33.63-.67,1.26-1,1.88,13.9-3.28,24.96-12.98,34.06-23.54,10.59-2.56-11.35,16.6-13.51,17.66-6.75,4.35-14.34,9.06-22.5,9.53-6.68,13.09-14.34,25.63-21.52,38.45,7.73-8.62,13.78-20.29,23.9-26.1,4.83.75-1.29,10.64-2.35,13.09,6.93-.03,12.88-4.35,19.13-6.74,6-3.15,18.13-4.68,7.75,4.12,4.29-1.31,4.5,2.95,1.51,5.56,6.9,1.79-3.6,8.97-5.82,11.03,5.32,3.56-13.34,14.06-16.48,14.05-29.59,9.03-60.53,15.89-91.56,16.69.34.32.57.75.56,1.27.31.51.6,1.03.9,1.54,1.12-1.67,4.07-.31,3.2,1.66,39.51,72.04,50.06,154.41,43.56,235.45-4.96,90.09,17.24,179.17,14.05,268.91,3.14,1.14,6.3,2.39,9.33,3.72-2.89-4.04-3.34-17.98,4.43-12.56,3.5,5.04,5.84,11.62,6.22,17.74,2.21,1.19,4.38,2.46,6.5,3.82-2.39-9.24.45-20.9,7-28.85-14.89-1.37-13.31-20.75-6.33-29.79,2.2-3.24,5.25-5.91,6.8-9.54.46-9.22,3.88-16.57,13.12-19.88-40.94-15.01-29.59-51.81,11.24-32.4-.51-10.17,10.11-15.91,19.29-13.81.4-3.26,1.55-6.47,4.08-8.71-12.61-3.04-25.47-5.66-36.85-12.15-9.29-5.36-17.55-12.72-27.15-17.45-2.07-.52-2.7-3.28-.7-4.36,25.07-3.08,59.21-4.37,75.36,18.64-3.91-11.13-9.07-22.14-16.14-31.65-11.53,12.74-29.53,6.73-41.59-1.88.05.03.1.06.14.08-8.09-4.19-11.6-7.19-.1-9.69-19.22-8.64-37.94-46.51-15.92-60.56.46-6.39,6.88-12.46,13.01-10.15,9.84-.93,24.11,6.58,33.06,11.17-17.01-15.2-38.12-28-46.85-50.05-2.17-7.61-18.08-32.74,1.46-25.16,18.87,10.79,37.72,25.37,47.07,45.46-3.57-17.15-6.54-34.69-5.66-52.25-26.04-6.59-25.25-36.5-32.06-57.33-.8-10.44,11.68,2.11,14.08,5.04,8.15,9.09,14.44,19.87,19.19,31.1-1.1-9.19-1.98-18.44-3.99-27.47-5.68-1.58-10.44-6.27-12.58-11.71-2.03-5.31,3.51-8.53,7.57-4.96-1.56-4.59-3.21-9.14-5.01-13.64-15.36,1.58-21.6-18.38-6.4-14.2-2.52-4.97-5.45-9.75-8.46-14.44-7.56.78-19.72-14.62-10.84-18.94,6.25-1.59,15.38,10.67,14.36,16.07,3.07,4.58,5.85,9.33,8.38,14.21,4.4-13.43,14.72,2.95,7.45,12.23-.02.2-.06.4-.11.6.48.78.3,1.8-.32,2.46,1.4,3.43,2.7,6.9,3.93,10.38.9-3.63,5.36-5.25,7.35-1.79,2.35,6.15.59,12.79-1.82,19.1,1.63,5.95,2.59,12.02,3.36,18.13,2.4-13.76,5.03-27.45,8.38-40.99-12.25-11.05-13.45-32.37-13.52-47.76,2.57-3.46,6.94.44,9.26,2.37,6.3,5.82,9.67,14.33,10.62,22.72,1.18-3.79,2.46-7.55,3.75-11.31-9.17-18.1-17.26-37.01-20.49-57.15-2.73-14.17-.86-28.54,2.37-42.45,10.32-50.88,29.04-105,10.19-155.98-7.95-21.51-20.44-42.74-41.61-53.31Zm-9.96,296.84c0,.13,0,.26.01.39.13-.11.27-.2.42-.28-.14-.05-.28-.09-.43-.11Zm-125.3-55.29c11.38,1.52,23.73,3.83,34.49-1.07-10.79-.02-21.89-.84-32-4.64-.76.22-1.53.38-2.3.53,2.73.63.86,3.59-.19,5.17Zm134.09-22.74c2.55-1.4,4.97-3.04,7.32-4.75-8.67-.52,6.93-8.62,8.21-11.06-.49.32-1.05.31-1.52.11-3.26,1.64-8.02,8.69-10.91,6.11-.55-.81-.3-1.87.47-2.43,4.14-3.11,7.95-5.94,11.68-9.42-1.23.23-2.5,1.01-3.75.67-3.62,2.92-7.32,5.74-11.12,8.42-1.9,1.26-3.84-1.59-1.96-2.9,5.67-3.97,11-8.21,16.26-12.66-7.45,2.53-36.08,18.43-24.9-1.54-10.54,9.34-16.64,24-28.62,31.38-19.31,4.37-36.58-1.18-54.61-6.12-15.13-3.26-30.79-10.05-46.32-7.46-3.54,2.02-3.98-3.33-.33-3.58,1.36-31.56,5.12-63.7-1.03-95-1.01-2.71,2.72-4.12,3.35-1.21.67,3.29,1.21,6.59,1.67,9.9,1.18-12.12-.02-24.61-8.56-33.3-10.2-8.76-18.03-5.66-23.89,5.66-11.48,25.75-2.21,100.9,7.96,127.6,46.72,34.68,109.78,16.77,160.62,1.58Zm-175.13-38.61c.66-.04,1.32.07,1.92.34-.69-4.63-1.23-9.29-1.67-13.95-.01,4.54-.15,9.08-.25,13.62Zm36.97-93.64c5.61,8.69,6.54,19.29,5.58,30.32-.85,2.81.65,8.21-2.53,9.39,2.02,22.31-.06,44.76-.85,67.1.26-.15.61-.22.97-.21,0,0,0,0,0,0,11.98-1.01,23.55-3.7,35.1-6.59-2.21-21.25,8.2-41.64,5.25-62.8-8.37-18.69-29.96-23.3-43.52-37.21Zm-2.25,117.7c.45.18.8.51,1,.92-.18-.42-.56-.77-1-.92Zm84-98.04c-14.75,23.64-21.54,51.27-30.67,77.35,2.71-1.09,5.9-2.38,7.39-5.03,23.12-29.32,32.52-66.38,32.11-103.24-4.54,3.1-9.05,6.26-13.29,9.76.62,3.29,2.91,6.07,4.6,8.9,4.8,5.64,4.24,6.65-.13,12.28Zm-5.83-71.26c1.63.27,1.89,2.57.5,3.27.26,2.56,2.11,4.73,2.45,7.12,12-18.24,29.94-43.78,53.06-54.51-1.29-3.27-2.23-6.29-5.95-7.23-13.43,7.86-25.71,17.94-36.89,28.67-1.45,7.35-3.13,14.71-3.67,22.25-.08.95-1.09,1.6-1.99,1.47-3.58-1.69.53-12.62.55-16.31-6.49,2-8.57,8.85-8.06,15.27Zm-10.52,38.08c3.7-9.57,7.91-18.35,12.9-26.76-3.27,2.05-4.12-4.15-5.04-6.32-5.63,7.21-6.09,17.62-7.48,26.42-.16,2.22-.32,4.44-.38,6.67Zm-20,111.55c.36.26.62.64.73,1.06.51-.22,1.01-.43,1.52-.64,8.06-28.81,17.31-59.82,34.21-85.17-16.07-19.87-4.28-18.13,11.05-30.35,7.01-27.73,22.57-52.56,43.75-71.66-1.18-1.18-2.21-2.52-3.1-3.95-39.04,21.78-62.7,65.47-73.58,107.62-7.14,27.22-15.18,54.76-14.58,83.09Zm-2.78-18.39c-1.09,6.33-.96,12.76-.95,19.16.14-.06.28-.13.42-.19-.07-.16-.12-.32-.14-.5-.18-6.19.09-12.35.66-18.48Zm-40.2-202.83c-2.41-7.81-7.51-14.49-12.82-20.6-5.7,11.31-13.12,21.73-23.31,28.78.2,3.12-.94,6.39-2.47,9.09,2.55,6.16.13,14.01-2.39,19.92,4.85,10.47,1.09,22.68-2.94,32.85,13.22,13.75,5.06,34.93-5.29,50.01,1.41.45,1.73,2.65.08,3.29-9.8,19.18,4.74,41.67,8.67,60.59.27-22.31-8.33-65.71,20.92-72.13,7.8-4.68,25.48,15.43,32.74,19.49,8.76,5.4,18.7,9.55,24.98,18.11-15.14-33.46-59.75-34.41-48.56-88.75-8.43.96-16.97-1.25-22.52-8-1.36-2.21-6.62-5.36-4.11-8.01,5.14-.83,7.96,14.88,24.73,12.53,7.62-.65,16.49.52,23.07-4.01-1.61-4.31-2.2-8.42-1.56-13.03-.35-.31-.62-.69-.82-1.09-6.76.89-6.86-4.28-3.12-3.7-.08-.04-.16-.06-.25-.08,1.12.31,2.3.37,3.45.24.45-1.05,1.83-1.43,2.14-2.52-4.05-3.9-.89-5.9,1.78-8.93-2.88-3.82-7.85-5.56-10.73-9.53-3.99-3.95-.8-9.73-1.67-14.53Zm-6.9-18.96c-.19-2.65-.91-5.29-2.41-7.48-.31.38-.67.58-1.03.66-.26.59-.53,1.17-.81,1.76.37.4.71.88,1.1,1.22,1.06,1.26,2.12,2.54,3.16,3.85Zm-92.26,40.38c-6.78-5.69,1.51-8.48,6.54-9.79-6.42-4.83.13-7.54,5.22-7.8-3.31-3.77,2.49-5.96,5.08-7.57-6.83-4.62,9.7-13.28,12.36-9.7,4.23.1,4.54,21.52-1.52,19.76.2,3.39.59,11.88-5.01,9.71-.16,3.26-.11,6.94-2.24,9.61,14.06,3.02,34.82,2.12,38.94-15.14-3.04,2.4-28.48,11.46-29.37,6.63-.1-.98.62-1.78,1.56-1.92,27.56-1.95,45.58-20.46,55.24-45.13-3.12-.79-7.64,1.74-10.66,1.76-7.26-.61-13.92-4.76-21.32-5.22-37.45-1.32-85.52,13.24-63.38,60.07.08-.15.18-.3.29-.44,2.08-2.53,5.33-3.6,8.26-4.82Zm-.39,19.32c4.97-.47,4.77-15.67,10.6-7.46,3.87-1.81,1.98-19.74,7.76-10.18,2.84-4.14-.98-11.28,2.83-14.27,2.07-.35,2.46,2.17,3.19,3.52,1.53-3.04-2.61-13.37,2.65-12.42.84.43,1.09,1.38,1.47,2.17.9-4.24.83-8.84-.41-13-3.4.11-6.27,2.26-8.9,4.16,6.69,3.39-.98,6.26-4.2,8.39,9.05,4.51-2.95,5.69-6.78,6.5,8.56,5.52-2.74,6.95-6.72,9.34,8.49,6.39-1.59,6.71-6.03,10.29,13.31.75-2.24,6.91-3.82,11.54,2.98.87,9.47-4.86,8.35,1.39Zm10.03,63.02c27.63,6.85,51.05-39.79,46.34-62.57-8.29,13.76-23.83,19.98-39.41,19.23-.95.01-1.79-.66-1.85-1.64-.46-3.39,14.84-1.72,18.37-3.69,13.91-4.34,26.07-19.37,24.88-34.27-7.32,8.37-19.14,11.11-29.84,9.42-2.5-.81-9.43,0-8.31-3.97-.96.76-2.24,1.06-3.33.31-.33,4.21-3.46,13.52-8.88,9.05-.99,2.3-2.38,5.64-4.5,7.42.28,1.61-1.57,1.87-2.53,2.78-5.31,6.96-2.75,16.85,1.97,23.66,1.06.17,1.53,1.1,1.43,1.9.79.99,2.47,1.03,2.54,2.52-.37,3.45-4.05,1.21-5.34-.5-8.65,5.16-10.75,14.67-4.17,22.53,3.04,4.68,8.2,6.09,12.62,7.83Zm-12.21,22.17c9.1-7.18,19.66-11.97,28.09-19.84-6.26,2.94-13.36,1.78-19.82.52-7.4,1.21-18.57,7.62-14.59,16.44,1.41,2.02,4.01,2.35,6.32,2.88Zm-10.13,24.91c22.74-2.64,41.56-17.11,46.53-40.01.25-.92,1.23-1.48,2.15-1.22,4.79,3.9-9.43,25.78-13.31,28.77,20.92-9.64,46.46-42.34,31.12-64.9-4.17,9.81-11.04,21.03-20.18,27.96-9.3,16.02-30.61,20.04-41.27,34.76-2.72,4.34-5.39,9.42-5.04,14.64Zm-2.8,4.33s0-.02,0-.02c-61.29,10.67-49.93,73.23-46.89,119.43,3.14,8.03-14.64,18.58-16.14,6.57-.39-3,2.2-5.03,4.89-5.54.97-.36,2.77,0,3.13-1.19-3.68-6.77-12.84-2.59-15.98,2.74-12.52,25.36,21.15,32.53,35.58,15.77,26.74-38.7-27.61-108.62,25.94-133.84,3.09-1.43,6.26-2.69,9.46-3.91Zm15.26,19.18c10.57-8.48,18.98-19.61,23.59-32.36-3.68,2.07-7.39,4.09-10.99,6.25-1.97.95-5.08,5.71-6.79,2.24-5.36,2.69-11.09,4.71-16.78,6.79,2.13,5.89,6.05,11.27,9.88,15.95.29.36.7.74,1.09,1.14Zm13.37,131.65c-11.41-16.71-11.69-32.84-.26-49.69-9.53,8.86-22.98,17.13-24.12,31.34-.6,15.25,11.03,20.73,24.38,18.35Zm.51,20.27s.04.02.05.02c19.86-.91,11.07-20.85,6.23-32.13-4-15.33-4.64-32.74,3.81-46.67-17.74,20.33-21.15,37.29-6.13,59.78,2.65,6.25-.09,13.85-3.96,19Zm-54.75,68.27c-14.02-1.22-19.79,11.71-5.38,17.49-.75-1.52-1.19-3.17-1.15-4.95-.06-4.98,2.54-9.7,6.53-12.54Zm27.31-12.45c-2.97,4.89-6.81,8.93-12,11.29,4.53.75,10.01-1.79,11.16-6.5.37-1.55.44-3.23.84-4.79Zm25.69-51.59c-.08-.05-.15-.1-.22-.16-1.77.62-5.45,1.72-4.77-1.5-7.62.16-16.7,4.59-18.91,11.01-.89,6.54,5.62,11.28,7.02,17.39,1.82,5.34-.48,13.1-6.65,14.14-7.56.88-14.24-8.01-21.75-4.94-.4,7.02,13.33,10.17,19.07,10.57.96-.91,2.22-1.11,2.95,0,12.1-1.19,27.82-6.21,22.12-21.5-3.48-10.58-9.72-16.87,1.14-25.01Zm18.76-86.74c-11.84,13.53-11.7,33.09-7.33,49.61,3.53,9.88,10.9,21.25,3.07,31.09,19.56-1.57,34.19-18.02,34.5-37.44-.35-16.3-14.8-18.86-24.64-28.09-4.03-3.81-5.87-9.56-5.6-15.17Zm13.95-117.04c-5.62,6.21-12.81,10.44-19.99,14.57,1.6-.14,2.83,2.29,1.32,3.41-6.19,19.82-24.1,31.33-38.01,45.3-8.65,9.77-14.15,27.14-3.93,37.62,8.28-7.87,19.27-13.31,28.51-19.77-.04.03-.08.06-.12.09,11.09-7.44,24.03-18.3,22.65-33.03-.3-1.35.31-3.07,1.95-2.87,2.71.97,1.4,5.28,1.61,7.6-4.25,26.61-34.81,34.19-52.08,50.5.27,1.16-.7,2.5-2.11,2.13-12.18,12.19-12.5,37.1,2.74,46.96,13.96-23.95,41.82-36.54,57.09-59.84,27.99-35.75-7.56-56.24.38-92.66Zm25.9,127.48c-.03-.29.01-.57.14-.82-4.34-10.13-6.14-21.27-8.3-32.04-2.53-.73-3.13-2.04-3.89,1.54,1.71,1.16,1.63,3.59-.28,3.84.04,1.6.18,3.21.18,4.81.9.95,1.92,1.77,2.93,2.6,1.78,1.43-.35,4.15-2.16,2.75-.35-.3-.88-.72-1.47-1.2.01,1.39.29,2.79.39,4.18,1.34,1.45,2.95,2.45,4.68,3.36,1.96,1.18.18,4.14-1.79,3.01-.45-.3-.97-.59-1.5-.89,2.18,4.49,6.15,8.14,11.08,8.86Zm26.35,15.87c-7.02-2.96-10.16-4.29-18.3-8.81-2.8.25-9.55.04-8.96,4.41,3.82,5.22,18.05,5.45,27.26,4.4Zm-12.42,18.41c6.75-3.14,11.67-8.98,15.34-15.2-5.22.79-10.29.79-15.6.6-3.24.6-6.44,2.14-7.99,5.31-4.56,8.27-.7,13.46,8.25,9.29Zm-379.18,744.14c29.6,7.5,53.85,1.05,76.62,27.1-1.87-6.3-2.07-12.89.53-19-28.43,1.03-37.57-12.57-53.1-33.19-1.43-2.56-8.52-4.8-4.27-7.88,25.46,5.71,49.31,1.96,69.09,23.5.05-2.11.48-4.18,1.24-6.15-6-6.27-9.95-14.35-12.4-22.63-12.73-4.77-7.86-28.37,3.26-17.1,1.6,2.91,3.75,14.82,1.37,16.95,2.2,6.71,5.32,13.28,10.01,18.57,4.46-8.35,13.03-12.13,20.93-16.35,1.24-.86,1.72-3,3.59-2.5,5.66-11.72,17.13-18.21,28.26-8.84,2.89-8.58,12.69-7.24,18.81-2.81,8.38-3.6,15.62-.45,22.27,5,10.25,5.26,21.98,10.99,20.01,24.71,12.2,6.62,26.71,9.71,36.86,19.97,6.79,6.66,11.32,15.46,18.85,21.28,11.91-1.5,24.03-3.86,34.03-10.69-30.53,9.99-55.62-12.14-73.4-33.94-1.02-2.37,1.73-3.81,3.71-2.9,14.56-.41,29.33-1.28,43.54,2.85-7.24-5.13-14.34-11.29-20.79-17.93-16.94,5.84-27.95-14.99-8.3-9.24-4.36-5.26-8.21-10.64-11.34-15.9-12.29,5.51-23.3-19.82-4.85-9.21-2.87-6.16-5.74-12.36-8.2-18.69-15.05-12.22-2.06-30.38,4.58-7.67.36,2.45,2.2,6.17.48,8.27,1.2,2.79,2.39,5.57,3.61,8.35.25-6.93,7.09-7.29,8.37-1.09.64,4.78-.17,10.15-1.9,14.6,2.67,5.09,5.89,9.87,9.44,14.38-.07-3.16.45-6.44,3-7.37,7.61-.24,7.1,13.57,7.44,18.96,3.1,4.22,7.45,7.57,11.31,11.15-10.13-16.94-11.19-38.27-14.77-56.58,1.67-2.05,4.2-.34,4.74,1.76,10.69,12.04,20.11,25.69,22.03,42.19,3.43-4.7,10.69-5.42,16.94-3.34-4.28-12.4,7.02-22.32,18.73-21.92-12.6-10.58-14.35-29.75-21.05-44.44-7.38-17.92,25.27,2.05,28.63,7.3-4.52-8.44,5.88-10.44,11.12-5.51-6.63-11.94-13.69-21.41-23.64-30.52-17.34,12.22-32.33-6.35-12.57-10.23-2.06-2.16-9.59-4.61-6.47-8.35-11.27-24.08,13.21-24.65,19.68,10.93.36.36.66.76.89,1.2,1.58.1,2.66,1.98,1.7,3.32,1.6,1.47,3.12,2.93,4.56,4.4-2.91-22.16,19.68-15.93,12.43,15.1,6.08,8.89,10.93,18.6,16.65,30.5,2.4-23.12,21.18-11.33,9.15,17.4-.06.21-.16.38-.26.55,2.02,4.85,6.68,8.49,8.56,13.04,2.28,1.7,4.35,3.51,6.08,5.36-2.37-7.49-5.56-14.52-7.71-21.95-.13-2.75,2.84-3.63,5.08-3.03,15.53,3.77,29.88,15.27,37.63,29.13,1.81-2.69,4.09-5.08,6.69-6.95-1.06-10.14-1.28-33.04,13.68-28.14-16.26-17.22-13.64-42.77-21.01-63.6-.83-2.07,1.97-4.02,3.62-2.48,2.8,3.35,7.07,5.68,10.36,8.34,8.69,6.18,17.05,13.77,23.08,22.72-1.35-17.47,3.08-34.97,10.13-50.84-3.49-7.57,4.95-26.72,14.47-17.9,2.56,7.11-3.05,19.64-10.89,20.75-6.83,16.25-11.08,33.93-8.88,51.61,4.22-15.96,15.25-30.6,25.36-43.17,3.11-.42,2.87,3.14,2.88,5.27,1.17,17.91-3.5,35.76-14.64,50,5.4-2.95,11.95-4.38,17.8-3.84,1.01-1.21,2.11-2.32,3.3-3.31,4.27-40.97,12.92-81.47,16.48-122.49-1.08-.36-2.15-.72-3.24-1.06-13.44,22.1-25.49,7.66-9.59-2.63-5.38-1.23-10.85-2.08-16.35-2.61-9.92,21.12-21.19,9.84-11.51-.68-3.2-.23-6.59.24-9.71-.14-13.47,9.66-28.26-4.52-12.68-7.87,2.72-.03,12.07.87,13.08,3.54.01,0,.02.02.03.03,2.91-.2,5.86-.11,8.79-.09-8.46-13.67,6.69-12.03,10.4-1.51,1.41-.48,3.3.56,3.04,2.35,5.33.57,10.63,1.44,15.86,2.61-1.94-2.32-3.41-5.07-4.4-7.88-2.23-5.22,1.84-9.67,6.45-5.22,3.68,4.75,8.66,10.18,9.33,16.2.29.1.59.19.88.29,2.8-88.13-18.63-175.52-14.25-263.97,4.74-73.24.51-148.67-32.58-215.54,24.02,73.7,23.03,154.77,5.4,229.78-.18,3.9-5,2.66-3.41-.75,18.7-80.39,20.16-178.96-16.59-254.29-12,5.85-26.17,3.25-38.86,1.36-.05.06-.1.13-.15.19,1.9.35,1.6,3.36-.23,3.44-29.69,19.09-46.97,51.29-65.34,80.37-35.27,56.14-79.88,106.01-125.11,154.27-337.69,346.01-437.17-243.81-728.09,6.4.37,4.82-10,7.69-13.68,10.07-45.05,23.25-100.53-14.39-143.19,14.04-19.84,14.48,44.19,39.23-7.97,53.39-20.05,5.82-40.63,10.43-61.57,11.07-25.41-1.02-73.14-4.35-62.31,34.87,11.2,77,112.57,68.89,162.76,35.48,12.83-8.25,24.55-17.9,36.3-27.61,50.3-40.35,116.58-58.26,180.46-56.04,48.97.82,95.06,18.42,142.39,28.67,27.22,5.51,54.84,9.2,82.35,12.78,3.06.22,2.35,4.74-.34,4.49-44.15-5.42-88.11-12.28-130.84-24.86-95.82-31.18-209.07-20.03-285.32,49.98,7.43-.66,14.28,5.96,10.82,13.27,93.35-62.52,211.36-49.07,312.81-15.33,62.22,18.06,127.14,16.15,190.99,10.44,3.02-.19,2.99,4.35.24,4.5-10.64.89-21.3,1.54-31.96,2.16-76.51,8.94-151.42-7.97-224.15-30.29-85.93-21.81-189.57-14.08-259.49,43.41-22.79,25.97-46.27,57.16-82.2,64.12-33.16,9.48-108.06-25.32-110.71,27.74,8.63,32.17,52.58,44.42,78.19,61.08,18.75,8.36,39.64,13.7,55.82,26.78,271.83-341.26,514.7,53.21,843.23-225.61,17.22-2.64-35.78,31.31-40.84,36.46-97.82,71-226.02,88.75-343.26,68.07-193.39-40.76-325.87-42.17-457.04,125.35-4.5,29.25-111.4-27.57-116.78,3.53-.61,11.42,18.53,23.8,26.98,29.83,28.29,19.07,51.17,26.96,85.18,19.72,47.3-9.55,84.34-45.23,133.69-18.39,5.76,2.89,11.14,8,10.98,14.18,89.56-71.75,205.53-91.75,315.72-109.79,2.7-.39,3.81,3.79.7,4.45-65.82,11.85-132.73,20.88-195.65,44.53.12-.04.23-.09.35-.13-47.39,17.47-93.12,42.11-131.09,74.97-76.11,49.28-9.22,57.11,37.46,29.63,11.29-6.21,21.2-14.48,32.15-21.22,21.47-12.84,46.33-18.68,70.98-21.03,44.6-.86,101.47,11.46,124.96,52.88,52.41-41,118.73-58.12,181.74-75.74,16.19-4.15,32.39-8.25,48.6-12.3,1.19-.29,2.43.32,2.79,1.54,2.42,4.31-27.02,8.18-31.72,10.4-67.26,17.96-138.03,34.92-195.01,76.72-7.43,5.39-9.88,12.39-21.62,12-33.67,4.69-105.01-.24-127.69,23.45-24.75,33.6,33.86,61.12,61.71,59.12,24.1-2.27,45.8-13.46,67.69-22.86,34.4-19.58,72.4-29.85,112.07-27.96,41.51-2.84,79.91-29.53,122.3-17.64,23.25,3.42,45.62,10.2,67.62,18.17Zm451.25-182.35s-.02.01-.02.01c.06.12.08.27.19.35,4.54-2.82,6.64-8.34,6.52-13.52-5.01-1.41-7.49,9.64-6.7,13.15Zm-130.02,46.27c.28.36.55.72.82,1.07-.15-5.2,1.83-16.12-3.64-18.71-2.32,3.28-.49,10.19.94,13.65.54,1.29,1.91,2.66,1.87,3.99Zm-20.45-20.46c-2.46-7.08-4.52-18.5-12.36-21.05-2.09,5.46,1.99,11.52,5.9,15.13,1.03.84,2.6,1.43,2.42,3.02,1.25.95,2.46,1.89,3.64,2.82.13.02.27.05.4.08Zm1.03,6.91c-1.05-.89-2.14-1.79-3.25-2.68-18.76-.82-8.44,10.47,3.25,2.68Zm-47.56,169.45c-11.61-15.52-22.14-26.61-41.48-32.19,9.39,14.91,22.43,29.8,40.89,32.11.2.03.4.05.6.08Zm-177.08,14.73c-13.66-17.14-33.49-27.12-54.86-25.05,15.16,12.43,24.4,25.49,45.59,25.98,3.03-.77,6.16-1.14,9.28-.93Zm10.28-39s0-.03.01-.04c-19.19-20.18-33.59-18.59-58.54-21.94,14,20.02,24.57,32.22,50.95,29.77,2.16-2.9,5.06-5.21,7.58-7.78Zm9.62,8c3.83-3.21,8.47-4.4,13.13-3.5-2.73-5.69-1.56-13.34,3.83-17.18-2.27-4.9-3.4-8.68-1.94-13.18-6.98,2.89-12.97,7.4-16.62,14.02.33,1.1-.35,2.31-1.37,2.75-1.8,5.6.2,12.22,2.97,17.09Zm54.55-52.78c-3.72,6.06-9.31,12.85-7.34,20.4,1,.9.95,2.09.39,2.95,3.37,3.11,4.94,6.11,6.17,11.4,3.34-4.39,6.3-18.94,13.72-13.22,5.1,3.79,8.8,12.96,10.44,21.88,4.66-12.17-.61-25.86-8.41-35.52-3.5-4.74-8.81-8.65-14.98-7.88Zm11.06,72.21c13.31-10.69,9.96-36.75-1.21-47.38-8.65,14.48-15.57,35.79-35.8,35.61,8.99,12.36,23.32,28.32,37.01,11.77Zm-37.77-40.69c-.7.98-2.84.87-2.81,2.44,3.34.36,6.23-2.17,8.54-4.27-1.38-7.87,11.56-.84-.79,6.46,4.99,3.09,8.27,8.71,9.79,14.47,3.14-2.47,5.56-5.67,7.53-9.12-.89-3.13-.26-6.74-1.93-9.78-4.66-10.6-14.87-8.78-20.33-.21Zm-2.35,1.38c-.06.08-.12.16-.18.24.05-.08.08-.1.18-.24Zm3.15,21.3c1.73-.06,4.01-.67,4.74,1.13,1.8-.47,3.54-1.17,5.19-2.05-1.36-6.31-5.04-13.27-11.8-14.78-1.95.19-4.36-.27-5.49-2.02-.74.32-1.63.23-2.29-.27-7.01,6.94.31,19.16,9.66,18Zm17.11-48.43c-5.46-5.37-14.04-5.67-18.23,1.38-4.36,6.84-12.2,14.19-6.63,22.58,1.45-.68,2.83-1.25,4.33-1.69,3.7-6.77,11.42-9.63,17.28-7.6-.56-2.46-.26-5.24.28-7.57.67-2.5,1.74-4.83,2.97-7.1Zm-43.66,57.85c5.35,5.98,11.1,12.13,18.43,15.58,7.42,2.55,15.6,3.29,23.38,2.55-14.85-5.64-19.7-32.18-38.04-27.41-3.63,1.6-7.49,5.71-3.78,9.28Zm52.65,20.21c13.86,2.59,25.15-7.57,35.63-15.03,9.32-7.53,11.32-21.31,8.28-32.36-1.34-5.87-4.74-15.06-12.02-9.72-.71,1.4-2.07,1.58-3.08,1.07.73,5.24,1.58,19.36-4.94,20.47,1.42,10.84-2.32,19.78-9.66,26.94-3.86,3.99-8.6,7.98-14.22,8.63Zm48.4-48.13c.09-.03.19-.06.28-.07,4.28-12.94-1.23-21.59-13.56-25.95-5.9-3.24-11.7-10.07-19.08-7.2,5.55,6.19,10.24,13.59,12.11,21.76,3.59-5.17,13.06-4.32,16.24.84,1.76,3.38,3.1,6.96,4,10.62Zm-121.51-29.17c-.63-3.55.54-8.74-2.57-11.13-3.81,2.26-.63,9.3,2.57,11.13Zm-60.28,77.15c-13.59-12.1-25.95-25.86-42.58-33.94,4.32,6.63,7.12,14.25,12.61,20.1,7.75,8.22,18.75,13.09,29.97,13.84Zm-74.19-10.11c-14.22-14.18-19.35-22.08-40.95-23.63,12.99,12.27,22.74,20.45,40.95,23.63Zm50.62,13.2c-16.21-6.2-33.61,6.29-45.22,17.27,15.17-5.09,32.98-6.11,45.22-17.27Zm54.73-1.21c-11.29-4.57-21.17-16.77-31.57-24.51-1.39-1.16-3.26-2.05-2.95-4.07-11.91-1.66-23.26-5.39-34.4-9.76,17.12,9.64,32.15,24.57,45.49,37.95,7.78.72,15.63,1.07,23.42.38Zm30.73,3.08c-29.97-4.4-38.35,29.96-54.39,47.68,24.12-6.44,50.51-20.65,54.38-47.68,0,0,0,0,0,0Zm57.84-2.12c-15.06.24-25.71-2.19-36.2-13.41-4.28-4.31-11.59-10.13-7.84-16.8-1.86-2.28-3.02-5.1-3.84-7.99-22.89,16.71-2.64,40.62,9.42,57.12,15.81,12.28,27.18-10.99,38.46-18.93Zm-20.19,25.2c.27-.4.54-.8.82-1.19-.28.17-.56.33-.85.49.04.23.06.47.03.7Zm-13.9,73.54c-7.89,6.47-6.29,20.22-1.4,7.89.77-2.53,1.1-5.34,1.4-7.89Zm21.17-74.27c-1.98,4.76-3.23,10.28-1.97,15.37,2.6-4.62,2.09-10.25,1.97-15.37Zm71.04-33.51c5.22-10.08,8.36-22.36,5.13-34.32.96,12.95-3.89,25.76-16.26,32.87-11.45,9.27-25.85,16.11-40.6,10.92-5.45,4.76-11.02,9.29-15.73,14.85,4.17,5.24,11.67,3.5,17.55,4.15,4.63.05,9.16,1.75,13.79,1.08,4.95-.61,8.37-4.56,11.84-7.75,4.95-4.83,10.88-8.42,16.54-12.34,3.67-2.17,5.1-6.5,7.74-9.46Zm47.6-6.28c-17.38-5.88-28.67-21.95-38.37-37-.31,1.51-.72,2.99-1.24,4.44,4.71,7.98,3.09,24.24-.51,33.31,16.57-2.72,26.6-.05,40.12-.76Zm4.08,45.28c-1.94-17.49,8.41-35.2,26.07-39.26-1.12.05-2.24.13-3.36.25-18.06,1.39-34.73,22.45-22.71,39.01Zm8.28,11.06c1.53-.06,1.79-2.17,3.2-2.45-.11-2.2-1.54-3.19-3.86-4.7.17.55.14,1.17-.15,1.7,4.52,3.77-1.37,6.45-4.34,2.39-.23.08-.49.13-.78.13,1.73,1.41,3.83,2.43,5.93,2.93Zm23.59-47.64c-18.18,5.05-28.41,15.4-27.41,35.34,4.59-.57,10.32,3.63,11.29,8.08,6.02-2.86,12.38-5.02,17.09-9.91,9.26-8.11,12.21-28.04-.97-33.5Zm41.4-11.65c-5.76.56-11.28-1.47-16.1-5.08-20.36,10.33-8.78,39.98-11.07,58.26,17.84-9.37,25.93-34.49,27.17-53.18Zm22.76,4.38c-2.77-1.23-3.18-4.38-1.25-6.7-1.09-1.92-2.25-3.81-3.44-5.67-3.91,3.41-8.63,6.03-13.68,7.28.19.41.25.89.12,1.38.35,13.47,9.86,25.15,19.11,34.94,2.4-10.22,5.11-21.73-.86-31.23Zm51.2-40.3c-.54-3.06-.35-6.21.3-9.29-26.18-4.6-36.56,27.91-48.8,45.05.17.32.33.65.5.97,7.58,2.45,15.96-.47,22.8-3.92,12.62-6.83,21.87-19.35,25.2-32.8Zm6.54,11.62c-1.3-1.23-2.45-2.61-3.44-4.11-2.15,5.74-4.98,11.23-9.44,15.65-6.38,10.87-11.45,21.45-13.06,36.2,5.15-4.45,9.51-9.38,13.79-14.62,7.35-9.31,15.34-20.65,12.14-33.12Zm24.83-1.26c-.94-.61-1.81-1.32-2.54-2.14-6.75.12-12.58-6.62-11.37-13.14-4.9-.55-8.54-4.54-11.27-8.35-.11.28-.21.57-.31.85.74,1.1.52,2.84-1.02,3.4-1.28,4.78-.83,10.11,2.09,14.21,2.36-.89,3.23,2.24,3.68,4.04,1.62,1.32,3.46,2.38,5.42,3.07,4.99,1.71,10.83.84,15.32-1.95Zm32.21,2.67c-6.01,2.34-14.26,1.76-19.81-2.17-2.23,1.44-4.94,2.09-7.6,1.56-1.77,1.47-3.78,2.66-5.94,3.53-3.44,12.74,7.73,14.89,17.71,14.59,9.92-.3,12.41-9.95,15.65-17.52Zm2.41,5.92s-.02-.04-.04-.06c.01.02.02.04.04.06Zm31.29-6.33c-1.33-.9-1.39-3.3.36-3.93-1.01-11.85-9.06-22.01-16.8-30.4-6.31-7.98-8.28-4.27-14.38-7.12-.48.07-.96.12-1.45.15,14.1,11.08,19.13,29.42,3.17,39.3,1.53,2.61-1.62,5.6-2.23,8.2,8.41,10.41,27.66,6.53,31.32-6.19Zm13.96,17.98c6.9-3.32,13.99-6.35,20.75-9.9-4.25-11.75-19.99-10.55-30.01-8.33-.57,3.93-2.4,7.57-5.99,10.58,4.37,3.18,9.1,6.18,14.5,7.22.3.12.55.27.76.42Zm20.14-4.58c-3.85,1.94-7.54,3.66-11.08,5.31-18.83,9.93-12.76,35.82-14.52,53.57,18.63-13.42,25.67-36.75,25.6-58.88Zm21.42-20.46c-7.67,2.91-16.43,4.59-23.96,4.55,3.31,2.02,5.37,3.95,7.19,8.37,1.82-1.04,3.6-2.14,5.34-3.3,4.17-2.79,8.11-5.84,11.42-9.62Zm6.78-1.72c.53-.84,1.12-1.51,1.77-2.35-.68.41-1.38.8-2.11,1.18.12.18.22.38.27.61.05.18.07.37.07.56Zm-2.54,61.7c-1.33.98-2.87,2.05-4.36,2.74-3.23,18.06,13.53,24.7,25.46,33.83.14-18.3-8.79-25.07-21.1-36.57Zm19-38.44c-5.87-7.37-9.93-16.37-7.9-25.93-.02-.02-.04-.05-.06-.07-16.56,15.84-15.8,41.25-16.22,62.45,12.27-7.19,20.53-20.44,23.12-34.21.07-.86.44-1.72,1.07-2.23Zm38.44,5.94c8.27-3.68,21.02-9.36,22.08-19.49-11.58,2.37-28.38,6.14-36.3-5.01-9.67,10.88-25.07-5.28-25.13-15.97-5.37,10.31-3.08,23.28,4.5,31.86,6.95,12.71,22.62,13.56,34.84,8.62Zm-8.55,6.82c-3.12.46-6.28.58-9.46.31.09.69-.14,1.42-.82,1.96-2.72,19.93,18.84,32.64,22.91,51.24,11.94-15.52-1.24-41.16-12.63-53.51Zm23.61,31.63c-1.45-2.61-2.97-5.17-4.59-7.69,1.31,3.76,2.21,7.64,2.61,11.7.63-1.49,1.33-2.86,1.98-4.01Zm-3.77-35.61c-1.39-.1-3.32.16-4.32-.98-3.09,1.52-6.31,2.79-9.61,3.71.06.19.11.39.12.61,8.55,12.44,19.09,16.1,33.19,19.03-1.79-10.67-11.64-16.67-19.38-22.37Zm39.77-13.51c.19-3.52-2.2-10.31,2.42-10.7.1-3.02-.34-6.51-.82-9.96-7.78,5.68-18.08,5.66-26.24,10.06,1.29,8.66-6.66,15.58-13.31,19.67,6.33.43,12.64,1.5,19.02.96,9.94-.8,15.93-4.32,18.93-10.02Zm6.74-7.94c-.31,3.21-1.01,6.12-2.14,8.7,1.69,16.44,11.59,30.11,28.38,33.1-4.2-15.71-8.09-37-26.24-41.8Zm52.44,23.25c-.07,10.73-3.99,22.52,2.48,32.2,1.74-11.54,4.64-21.67-2.48-32.2Zm-27.94-26.65c18.13,6.35,44.23,11.56,55.19-9.01-19.89-1.46-37.51-1.84-55.19,9.01Zm-17.36-1.33c.58.03,1.17.05,1.75.1,17.19-3.97,26.06-5.46,34-23.95-16.38,5.61-26.2,7.68-35.75,23.85Zm-15.11-79.77c-.83.83-2.37.83-3.17-.1-5.56.01-10.97,1.6-15.73,4.53,18.2-1.26,17.47,14.61,16.88,27.9,1.34,10.17-.48,20.12-9.71,25.96.02,5.7-2.06,11.39-5.08,16.3,17.91-3.89,33.63-14.55,31.53-35.86.56-14.24,6.65-39.03-14.73-38.72Zm-47.57,5.68c1.21.77,2.13,2.36,1.19,3.68,3.71.12,7.94-1.22,11.32.09,8.92-5.15,17.83-13.3,28.24-13.84-1.27-1.19-2.68-2.22-4.3-2.96-10.55-3.79-30.99,2.88-36.45,13.03Zm21.64-42.33c-9.86,10.34-25.9,19.09-40.18,20.21-7.37,8.94-16.41,16.79-27.56,20.44-3.28,1.88-.64,3.82,3.05,5.1,16.25,2.08,32.06-7.28,45.75-15.03,7.6-4.51,16.76-7.46,22.48-14.5,6.3-7.02,6.81-13.87-3.54-16.22Zm14.06,3.14c2.88-1.45,7.38-2.84,8.35-5.64-.23-.63.04-1.75.66-2.25.49-4.09-2.28-8.91-5.3-12.62-6.72-8.66-7.99-25.98,5.88-27.8-4.96-4.86-12.43-5.11-15.81,1.1-2.92,4.19-1.75,10.67-5.05,14.28,9.77,6.11,7.43,18.6.44,26.13,3.07.57,5.58,2.52,7.52,4.87,1.56-.6,2.67.66,3.31,1.93Zm15.03-43.22c-.95.33-2.08.07-2.67-.75-17.63.94-5.38,20.96-.64,27.65,7.49,1.43,16.85,2.48,22.43-3.94-3.76.07-13.2-9.99-5.52-10.15,2.37,1.46,3.14,5.32,6.33,5.71,2.86-3.69-4.23-4.82-3.77-7.94-3.29,4.13-5.3-1.83-4.05-5.32-7.38,2.02-7.74,10.53-5.46,16.78.84,2.82-3.3,4.2-4.28,1.41-1.55-5.13-2.56-11.01.24-15.9-.58-.84-.4-2.17.3-2.95.44-1.97-1.36-3.8-2.91-4.59Zm16.53,5.83c-.36,1.3.06,3.12-.27,4.43.45-1.34,2.05-1.72,3.23-1.23-.47-1.29-1.4-2.43-2.51-3.2v-.03c-.07-.03-.14-.06-.22-.09-.08.04-.16.08-.25.12Zm24.26.7c5.01-1.06,10.17-.81,15.25-.66-1.69-.78-4.49-.84-4.96-2.99-.42-.18-.76-.5-1.1-.79-3.18,1.34-6.25,2.82-9.19,4.44Zm-10.79,7.15c-.1.08-.2.16-.3.24-.01.18-.05.36-.11.52,0,0,.01.01.02.02.1-.26.24-.52.39-.78Zm-8.91,29.32c-8.13,1.91-16.44-.04-24.05-2.97-1.92,3.61-5.49,5.51-9.23,6.76,5.39,5.29,9.82,11.53,16.07,15.62,13.88,7.89,38.96-3.92,19.51-18.05-1.26.04-2.01-.58-2.3-1.36Zm4.75-25.69c.08,13-17.09,17.6-27.58,14.28.29,1.35.43,2.81.23,4.17,3.81,1.48,7.74,2.6,11.77,3.28,14.62,2.22,32.57-9.87,15.59-21.74Zm8.17-1.48c.01.75-.41,1.36-.99,1.75,2.32,2.67,4.28,6.07,4.31,9.66,16.61,3.46,32.78-1.86,40.61-17.65-13.27,3.32-35.14-4.23-43.93,6.24Zm38.9-25.2c-.52-1.96-.64-4.11-.38-6.21-4.76,1.44-9.65,2.48-14.57,3.26,1.35,1.73,1.93,4.05,1.6,6.24,4.41-1.34,8.87-2.44,13.35-3.29Zm-24.75-6.19c8.89-1,17.57-2.35,25.94-5.26,1.3-2.55,3.32-4.56,6.03-5.37-3.47-.36-6.95-.68-10.44-.38-8.17.91-16.16,4.71-21.54,11Zm-15.8,21.91c4.89-3.22,10.06-6.01,15.47-8.25-.67-2.94-.29-6.58,1.04-9.22-2.34.28-4.69.54-6.96,1.18-1.79,2.33-3.49,4.73-5.09,7.22-1.76,2.89-3.22,5.93-4.46,9.07Zm-23.56-4.7c5.97-3.07,14.22.39,15.31,7.35,3.82-7.53-8.95-21.65-15.31-7.35Zm7.98-18.26c1.17.81,2.26,1.61,3.07,2.71,19.36-13.06,28.03-35.58,26.65-58.44-10.23,16.18-31.5,30.75-27.96,51.91,1.41,1.69-.05,3.78-1.76,3.82Zm-15.95,12.07c1.69.6,3.28,1.66,4.48,3.09,2.22-4.28,6.63-8.21,11.75-7.5-.46-1.68-1.21-3.22-2.86-4.02-7.95-5.4-19.54-1.91-13.37,8.44Zm27.49-72.19c.73-16.86-13.93-28.03-20.57-42.03.24,8.48-6.19,16.13-13.19,21.28,16.65,3.85,24.52,18.91,14.46,33.65,10.71-1.63-16.36,49.11-21.06,50.56,1.96.24,4.51,1.29,6.87,2.79.31-2.16.96-4.24,2.18-5.79-.32-1.2.66-2.59,1.28-3.76,10.56-18.63,22.49-36.51,30.04-56.7Zm56.19-48.51s.02,0,.03-.01c0,0-.02,0-.03,0,0,0,0,0,0,0Zm-48.95,43.82c5.98-2.69,12.09-5,17.99-7.78,0,0-.01,0-.02,0,14.79-6.48,26.88-18.18,34.37-32.44-8.74,2.84-17.87,4.2-26.4,7.68-13.47,5.76-23.31,18.24-25.95,32.53Zm16.98-67.51c12.66-9.97,30.44-13.35,38.75-28.34-6.91,1.52-13.91,2.21-20.9,3.18-14.25,1.97-17.05,12.85-17.85,25.16Zm19.17-54.86c11.25-14.32,23.65-29.85,21.82-49.48-3.28,4.62-6.57,9.17-10.1,13.59-8.29,10.25-18.91,22.07-11.71,35.88Zm32.01-8.61c8.77,13.96,15.36,16.05,31.53,17.4-8.48-9.05-17.16-22.16-31.53-17.4Zm61.12-44.46c-9.21,6.1-17.43,6.99-21.06,18.72.07.02.15.06.22.09,10.48-2.45,18.92-7.37,20.84-18.81Z"/>
  </g>
</svg>