<?xml version="1.0" encoding="UTF-8"?>
<svg id="_Слой_2" data-name="Слой 2" xmlns="http://www.w3.org/2000/svg" viewBox="0 0 450.84 236.27">
  <g id="_Слой_1-2" data-name="Слой 1">
    <path d="m2.44,187.05c19.37,16.14,44.62,22.33,69.44,22.34,8.33.2,15.94.09,24.5-.46,12.03-.57,20.85.43,17.18-15.04,40.01,8.23,72.11,41.58,114.41,42.38,55.54-.99,211.04.93,222.52-68.34,4.12-30.08-27.79-45.66-52.76-50.98-38.6-6.43-73.3.17-104.49-30.43-32.1-25.13-59.07-56.3-90.94-81.69-8.62-9.02-21.74,9.11-26.96,12.53-6.68,6.38-13.73,12.34-20.69,18.41C130.03,26.42,109.67,7.78,83.33,2.79,66.61-.93,43.21-3.57,32.48,12.91c-5.98,5.69-7.09,16.07-10.2,23.73-9.99,31.93-12.36,65.31-16.08,98.35.1,5.06-2.22,8.81-4.42,13.05-2.79,11.56-1.77,23.74-.56,35.48-.27,1.16.02,2.46,1.22,3.53ZM217.27,28.69c.17.27.37.52.59.74-.19-.14-.33-.34-.48-.53h0c-.04-.06-.08-.13-.12-.2Zm-58.3,13.22c12.97-10.04,23.63-23.37,37.6-31.91,6.23,4.16,12.63,9.65,18.32,15.07-4.52,2.7-28.54,18.4-22.11,23.81,2.54,2.21,5.29-.07,6.97-2.15,6.25-6.09,12.82-12.69,21.01-16.02,3.99,3.88,8.02,7.79,12.03,11.66-3.47,4.35-20.84,15.99-15.3,21.07,1.57,1.35,3.92,1.13,5.29-.4,5.06-5.44,9.48-10.69,15.61-15.31,3.63,3.44,7.28,6.85,10.95,10.24-3.16,3.48-14.26,9.19-10.43,14.47,1.3,1.46,3.85,1.76,5.29.32,3.31-3.53,7.03-6.62,10.77-9.63,2.87,2.61,5.75,5.2,8.65,7.77-3,2.51-10.36,5.01-7.64,9.91,4.52,5.17,9.13-3.79,13.86-4.42,15.86,13.33,30.97,28.68,50.61,36.31-12.08,7.91-22.52,18.02-32.98,27.9-7.98,6.83-15.47,16.9-25.98,19.54-34.93-29.09-75.1-52.32-117.91-67.66-42.69-13.86-80.07-11.85-105.29-52.18,34.38,28.78,88.99,39.63,120.67,1.61ZM50.05,9.04C86.67.72,117.03,27.58,148.44,41.25c-10.42,9.66-22.75,18.46-37.61,17.94-20.06,3.54-106.17-27.61-60.78-50.15Zm-20.83,30.71c34.26,61.76,114.44,46.66,167.21,85.17,22.27,11.51,42.39,26.43,61.89,42.05,10.16,3.15,20.34-8.42,27.44-14.4,13.84-13.06,27.32-26.78,43.65-36.75,16.74,5.51,34.4,4.81,51.74,5.92,21.6,2.72,57.86,11.62,61.47,36.61-37.16,47.4-104.28,44.74-159.04,48.14-48.93-1.99-76.84-1.8-116.71-33.36-45.69-33.12-108.86-.85-153.66-34.25,4.29-33.18,5.79-66.98,16.02-99.13ZM7.91,156.91c.17-3.71.7-7.31,3.31-10.1,42.83,30.72,99.47,3.66,144.57,28.48,49.03,34.81,64.43,36.09,124,38.63,55.86-2.69,121.8-.65,163.3-44.29-14.66,44.76-85.64,49.95-125.65,54.76-40.54,3.07-83.53,11.22-122.82-3.08-28.75-10.59-53.9-33.06-85.28-35.2-6.73,1.34-2,9.99-2.61,14.56-33.36,2.63-70.53,3.8-98.09-18.28-.95-8.54-1.48-16.72-.72-25.49Zm149.56-80.87c4.85.15,4.46,7.82-.39,7.49-4.85-.15-4.46-7.82.39-7.49Zm16.63,9.42c4.85.15,4.46,7.82-.39,7.49-4.85-.15-4.46-7.82.39-7.49Zm20.97,12.88c4.85.15,4.46,7.82-.39,7.49-4.85-.15-4.46-7.82.39-7.49Zm24.36,14.41c4.85.15,4.46,7.82-.39,7.49-4.85-.15-4.46-7.82.39-7.49Zm19.08,13.34c4.85.15,4.46,7.82-.39,7.49-4.85-.15-4.46-7.82.39-7.49Zm22.16,15.4c4.85.15,4.46,7.82-.39,7.49-4.85-.15-4.46-7.82.39-7.49Zm14.83-8.97c4.85.15,4.46,7.82-.39,7.49-4.85-.15-4.46-7.82.39-7.49Zm19.26-13.35c4.85.15,4.46,7.82-.39,7.49-4.85-.15-4.46-7.82.39-7.49ZM30.72,70.36c.58-2.16,3.85-1.36,3.41.79-1.63,16.22-3,32.48-3.4,48.79-7.84,12.16.21-46.38,0-49.57Zm-13.64,104.29c.8-2.95-1.4-19.32,3.96-16.12.93,5.03-.78,10.82-.45,16.1-.06,2.3-3.44,2.32-3.5.02Zm343.68,16.45c-.73-3.83,18.57-5.35,22.41-7.59,16.95-4.96,32.86-13.47,46.36-24.47,1.59-.04,2.39,2.13,1.12,3.1-17.46,15.85-40.55,23.93-63.17,29.07-1.97.15-5.84,2.55-6.73-.11Zm-41.11,5.79c4.74.31,28.13-5.93,28.88-2.09.58,3.78-24.07,4.1-28.41,5.57-2.24.32-2.71-3.19-.47-3.47Z"/>
  </g>
</svg>