<?xml version="1.0" encoding="UTF-8"?>
<svg id="_Слой_2" data-name="Слой 2" xmlns="http://www.w3.org/2000/svg" viewBox="0 0 176.56 234.72">
  <g id="_Слой_1-2" data-name="Слой 1">
    <path d="m69.27,202.41c7.29,8.34,14.67,16.61,22.18,24.76,3.01,2.83,8.59,12.01,11.93,4.93,4.04,1.61,5.5-3.48,7.38-6.06,18.76-28.61,30.86-60.78,42.3-92.84,10.89-33.42,30.05-68.87,21.23-104.76-17-50.07-75.68-27.05-85.83,15.43C74.73,4.19,21.29-4.34,2.27,35.44c-12.46,61.26,28.6,122.38,67,166.97ZM48.33,16.47c21.25,2.47,30.13,23.75,38.89,40.01,3.4,1.93,6.02-1.62,6.26-4.76,6.83-41.96,63.57-68.29,75.57-15.13,1.75,52.95-39.74,145.11-67.53,191.19-24.57-27.02-49.97-53.97-68.27-85.8C13.25,105.38-22.24,15.81,48.33,16.47Zm76.17,8.95c-1.57-3.73,6.5-4.41,8.85-4.69,18.37-2.87,30.88,12.25,27.47,29.94.52,3.11-3.17,5.06-3.66,1.38,3.96-20.45-9.93-32.82-29.66-26.47-.83.88-2.32.98-3-.16Zm-1.43,138.37c6.35-15.37,11.9-31.12,17.12-46.89,0,0,0,0,0,0,4.31-12.32,7.42-25.06,11.32-37.46,1.19-1.63,3.81-.08,3,1.74-7.69,28.14-16.8,55.88-27.78,82.9-1.83,2.53-3.1,12.06-6.65,11.34-2.98-2.43,2.48-8.4,2.98-11.64Z"/>
  </g>
</svg>