<svg xmlns="http://www.w3.org/2000/svg" xmlns:xlink="http://www.w3.org/1999/xlink" width="1920" zoomAndPan="magnify" viewBox="0 0 1440 1439.999935" height="1920" preserveAspectRatio="xMidYMid meet" version="1.0"><defs><clipPath id="6a7ddfe81c"><path d="M 0 48.601562 L 1440 48.601562 L 1440 1391.101562 L 0 1391.101562 Z M 0 48.601562 " clip-rule="nonzero"/></clipPath></defs><g clip-path="url(#6a7ddfe81c)"><path fill="#f4d35e" d="M 1426.335938 774.070312 C 1447.828125 751.972656 1439.625 714.53125 1431.863281 688.605469 C 1398.511719 577.230469 1284.820312 371.132812 1211.550781 279.859375 C 1173.667969 232.679688 1143.058594 201.226562 1078.621094 195.035156 C 1072.351562 186.328125 1079.652344 103.238281 1077.089844 83.660156 C 1074.972656 67.453125 1062.59375 60.878906 1047.914062 56.382812 C 1011.703125 45.273438 905.351562 43.679688 875.066406 67.53125 C 848.472656 88.480469 860.691406 150.136719 854.984375 180.519531 C 853.773438 186.933594 850.769531 192.011719 844.21875 193.949219 C 827.28125 198.949219 785.628906 193.625 764.417969 194.796875 C 667.738281 200.136719 570.859375 208.789062 474.203125 215.078125 C 454.566406 216.347656 433.035156 213.042969 413.597656 214.957031 C 367.828125 219.472656 338.070312 251.308594 308.652344 283.40625 C 233.46875 365.507812 142.378906 480.410156 75.257812 570.191406 C 34.148438 625.175781 -15.167969 691.527344 4.507812 765.117188 C 15.398438 805.804688 43.140625 825.082031 84.914062 815.746094 C 87.074219 941.941406 72.777344 1074.726562 80.921875 1200.820312 C 88.242188 1314.132812 127.878906 1343.042969 236.636719 1355.605469 C 350.148438 1368.710938 454.828125 1351.289062 566.828125 1344.050781 C 616.40625 1340.847656 666.972656 1342.378906 715.925781 1335.90625 C 792.523438 1407.019531 888.617188 1388.226562 981.925781 1388.1875 C 1038.238281 1388.167969 1084.347656 1395.847656 1142.335938 1387.28125 C 1367.203125 1354.03125 1345.992188 1225.984375 1355.164062 1039.605469 C 1357.523438 991.78125 1361.65625 942.425781 1363.351562 894.558594 C 1364.441406 863.851562 1362.402344 832.824219 1362.925781 802.097656 C 1382.503906 792.761719 1410.488281 790.363281 1426.335938 774.089844 Z M 903.433594 99.953125 C 914.847656 90.175781 1034.328125 91.363281 1036.785156 100.457031 L 1032.511719 190.722656 L 891.378906 190.722656 Z M 461.320312 1311.148438 C 456.644531 1312.660156 418.679688 1315.441406 409.664062 1315.925781 C 386.117188 1317.195312 261.113281 1318.730469 248.8125 1311.109375 C 245.546875 1309.089844 244.738281 1308.367188 242.945312 1304.878906 C 237.117188 1293.566406 230.96875 1218.320312 230.101562 1200.78125 C 225.789062 1113.5 226.210938 929.097656 342 913.550781 C 424.484375 902.484375 446.140625 983.898438 455.292969 1048.152344 C 466.359375 1125.777344 461.460938 1200.09375 463.742188 1277.597656 C 464.042969 1287.980469 474.003906 1307.015625 461.300781 1311.105469 Z M 1206.953125 1326.914062 C 1129.511719 1356.210938 943.09375 1354.617188 857.140625 1347.984375 C 812.625 1344.554688 755.765625 1328.265625 735.183594 1284.433594 C 691.953125 1192.414062 819.519531 1152.835938 890.105469 1177.898438 C 911.054688 1185.335938 956.421875 1229.914062 963.679688 1184.429688 C 967.992188 1157.332031 957.8125 1129.226562 969.96875 1102.007812 C 976.117188 1088.234375 996.523438 1069.707031 1011.242188 1066.683594 C 1062.632812 1056.078125 1110.78125 1094.101562 1131.265625 1138.359375 C 1142.457031 1162.511719 1143.019531 1220.5 1161.609375 1229.046875 C 1191.328125 1242.71875 1236.148438 1171 1280.625 1210.78125 C 1330.425781 1255.320312 1245.421875 1312.335938 1206.933594 1326.894531 Z M 774.457031 1138.339844 L 782.121094 1006.921875 C 791.574219 994.644531 914.441406 971.960938 919.605469 977.042969 C 922.769531 1032.691406 928.292969 1087.710938 919.5625 1142.371094 C 871.195312 1123.601562 823.753906 1120.574219 774.4375 1138.339844 Z M 963.960938 1041.5625 L 963.960938 975.027344 L 970.007812 968.976562 L 1066.789062 968.976562 C 1069.046875 968.976562 1098.179688 973.835938 1101.285156 974.804688 C 1105.921875 976.257812 1109.8125 979.683594 1113.160156 983.089844 L 1113.160156 1045.59375 C 1110.296875 1048.65625 1076.40625 1029.804688 1068.703125 1027.546875 C 1030.234375 1016.378906 998.234375 1021.761719 963.960938 1041.5625 Z M 1306.695312 1174.628906 C 1293.792969 1171.40625 1285.765625 1161.910156 1271.472656 1159.488281 C 1238.609375 1153.902344 1214.835938 1161.523438 1185.785156 1174.652344 C 1189.472656 1145.054688 1157.175781 1109.730469 1153.746094 1087.691406 C 1146.871094 1043.4375 1177.738281 969.117188 1136.164062 943.976562 C 1076.324219 907.746094 856.355469 932.6875 788.429688 956.78125 C 754.515625 968.796875 737.199219 981.417969 733.972656 1019.261719 C 730.464844 1060.492188 733.8125 1111.542969 738.285156 1152.511719 L 736.25 1158.480469 C 688.851562 1187.191406 670.683594 1245.199219 693.769531 1295.582031 L 508.296875 1307.699219 C 506.726562 1261.449219 510.273438 1214.671875 508.441406 1168.441406 C 505.09375 1084.023438 499.003906 912.664062 403.335938 878.371094 C 333.613281 853.367188 263.371094 886.433594 226.796875 947.625 C 167.074219 1047.550781 188.304688 1197.3125 201.753906 1307.71875 C 145.683594 1297.15625 129.070312 1267.757812 125.019531 1213.121094 C 114.917969 1077.128906 132.074219 927.886719 126.167969 790.542969 L 441.742188 436.738281 C 496.140625 554.40625 533.359375 680.601562 588.199219 798.328125 C 601.285156 826.433594 614.855469 866.03125 644.390625 879.238281 C 678.566406 894.519531 727.417969 887.785156 764.277344 884.257812 C 870.347656 874.136719 984.0625 857.460938 1090.378906 843.410156 C 1166.671875 833.328125 1242.941406 820.503906 1318.753906 807.703125 L 1306.65625 1174.609375 Z M 1335.6875 762.054688 C 1259.898438 777.761719 1175.5625 788.425781 1098.480469 799.050781 C 986.019531 814.535156 847.140625 837.703125 736.109375 843.933594 C 716.046875 845.0625 669.351562 848.289062 655.804688 835.605469 C 641.628906 822.339844 601.75 720.199219 591.125 694.632812 C 556.769531 612.046875 529.246094 518.980469 491.625 439.28125 C 463.214844 379.117188 445.152344 372.542969 397.386719 420.488281 C 319.78125 498.394531 250.125 593.015625 175.726562 674.652344 C 158.667969 693.363281 81.527344 781.671875 59.351562 775.078125 C 15.539062 718.363281 74.230469 643.480469 109.3125 596.140625 C 167.175781 518.03125 239.539062 432.890625 302.804688 358.167969 C 324.84375 332.117188 376.5 263.003906 409.464844 259.171875 C 449.625 254.515625 494.40625 257.742188 534.527344 255.199219 C 628.90625 249.210938 723.449219 239.375 818.027344 236.269531 C 894.824219 233.75 1035.09375 225.339844 1105.234375 245.078125 C 1148.058594 257.136719 1189.976562 320.867188 1214.9375 357.160156 C 1272.339844 440.671875 1354.640625 594.207031 1386.476562 689.671875 C 1407.585938 752.941406 1393.070312 750.179688 1335.75 762.054688 Z M 1335.6875 762.054688 " fill-opacity="1" fill-rule="nonzero"/></g><path fill="#f4d35e" d="M 366.175781 611.160156 C 240.265625 628.945312 264.316406 829.132812 397.0625 811.351562 C 523.179688 794.453125 506.402344 591.363281 366.175781 611.160156 Z M 402.75 764.65625 C 316.65625 789.554688 301.457031 668.804688 366.054688 655.398438 C 449.183594 638.136719 464.628906 746.75 402.75 764.65625 Z M 402.75 764.65625 " fill-opacity="1" fill-rule="nonzero"/><path fill="#f4d35e" d="M 654.472656 1009.96875 C 649.25 1009.101562 603.222656 1012.628906 595.21875 1013.71875 C 591.042969 1014.28125 584.773438 1015.429688 581.871094 1018.335938 C 569.226562 1030.957031 580.316406 1049.949219 595.984375 1052.992188 C 600.941406 1053.960938 648.285156 1050.089844 654.59375 1048.738281 C 676.933594 1043.980469 675.441406 1013.433594 654.472656 1009.96875 Z M 654.472656 1009.96875 " fill-opacity="1" fill-rule="nonzero"/><path fill="#f4d35e" d="M 154.03125 834.757812 C 147.234375 863.914062 207.902344 865.34375 225.042969 855.121094 C 252.058594 812.722656 160.140625 808.527344 154.03125 834.757812 Z M 154.03125 834.757812 " fill-opacity="1" fill-rule="nonzero"/><path fill="#f4d35e" d="M 622.195312 1117.210938 C 631.488281 1126.464844 656.046875 1124.226562 657.578125 1107.953125 C 661.46875 1066.742188 594.550781 1089.707031 622.195312 1117.210938 Z M 622.195312 1117.210938 " fill-opacity="1" fill-rule="nonzero"/><path fill="#f4d35e" d="M 251.230469 820.785156 C 234.519531 837.320312 262.605469 866.714844 278.8125 846.371094 C 294.296875 826.957031 267.625 804.554688 251.230469 820.785156 Z M 251.230469 820.785156 " fill-opacity="1" fill-rule="nonzero"/><path fill="#f4d35e" d="M 902.304688 1247.917969 C 875.550781 1255.863281 900.207031 1302.117188 927.710938 1285.5625 L 935.191406 1272.457031 C 934.847656 1257.65625 917.730469 1243.34375 902.324219 1247.917969 Z M 902.304688 1247.917969 " fill-opacity="1" fill-rule="nonzero"/><path fill="#f4d35e" d="M 1064.792969 1285.683594 C 1087.191406 1296.589844 1101.890625 1266.289062 1087.957031 1252.253906 C 1068.703125 1232.859375 1036.867188 1272.09375 1064.792969 1285.683594 Z M 1064.792969 1285.683594 " fill-opacity="1" fill-rule="nonzero"/><path fill="#f4d35e" d="M 398.03125 1094.871094 C 371.621094 1097.347656 371.601562 1144.628906 405.410156 1138.460938 C 428.355469 1134.265625 420.371094 1092.773438 398.03125 1094.871094 Z M 398.03125 1094.871094 " fill-opacity="1" fill-rule="nonzero"/></svg>