<?xml version="1.0" encoding="UTF-8"?>
<svg id="_Слой_2" data-name="Слой 2" xmlns="http://www.w3.org/2000/svg" viewBox="0 0 442.43 386.74">
  <g id="_Слой_1-2" data-name="Слой 1">
    <path d="m35.63,177.53c-.03.21-.01.42.02.62-1.68,17.86.15,36.68-.35,54.84-.82-.52-1.65-1.04-2.47-1.55-.18-.4-.47-.75-.86-.98.9-3.46-9.97-10.19-12.43-13.35-3.92-3.03-12.21-12.59-17.36-10.21-1.89.97-2.45,3.3-2.05,5.25,4.01,16.83,22.87,18.53,35.2,26.18.2,41.63.42,83.27.62,124.9,0,29.42-3.24,20.07,24.12,21.69,92.04.5,184.09,1,276.13,1.5,41.42-.38,27.41,7.82,29.96-38.65.14-39.12.28-78.24.42-117.36,7.96,3.76,15.43,9.06,24.14,10.91,4.48,1.15,9.41-1.61,7.3-6.66-2.85-5.38-10.04-9.31-16.96-11.91,7.53,0,15,.85,22.42,1.81.04.68.37,1.34.97,1.73,9.61,5.97,18.66,13.66,29.91,16.26,11.26,2.04,9.57-6.84,2.12-11.42-11.99-10.83-28.59-10.42-43.74-12.3,7.87-1.71,12.5-11.53,1.23-11.03-8.63,1.64-19.18,3.11-24.83,10.51-.84.04-1.68.12-2.52.18-.59-18.11,1.42-37.01-.52-54.75-12.97-12.87-25.93-25.74-38.91-38.59-.65-31.87-1.29-63.74-1.94-95.62-1.08-4.07,2.03-30.53-3.42-27.92-77.5-.36-154.99-.79-232.49-1.15-6.55-3.53-2.5,14.07-3.37,17.4.17,9.21.32,18.42.49,27.63.52,28.72,1.02,57.43,1.54,86.15-17.13,15.51-36.16,29.72-52.35,45.89Zm-31.11,33.56c6.56,3.45,11.4,9.11,17.09,13.99-1.07-.17-2.06.29-2.49,1.17-6.64-3.13-12.65-7.94-14.61-15.15Zm433.2,27.27c-9.87-.81-17.84-7.56-26-12.67,9.95.15,19.15,5.68,26,12.67Zm-397.92-5.63c-.07-16.87-.19-33.75-.25-50.62,33.76,22.17,67.51,44.34,101.27,66.51-7.07,3.1-11.83,9.75-12.63,17.46-4.95,1.16-10.01.53-14.99-.17-30.75-58.74-45.15-31.26-16.4-3.44-8.09-2.23-15.9-5.3-23.64-8.64-3.58-8.49-8.64-17.22-14.44-24.58-4.69-5.84-12.16-4.28-9.73,4,1.17,4.16,3.29,8.08,5.86,11.56-5.14-2.81-10.11-5.8-15.03-8.95,0-1.04-.01-2.08-.02-3.13Zm157.27-4.5c10.23-.12,21.48,3.68,27.83,12.03-.97-.11-2.01-.26-3,.04-4.22-5.63-12.03-8.18-20.47-4.34-7.18-1.35-15.01-.51-20.82,4.26,2.16-8.32,8.31-11.61,16.46-11.99Zm109.25-13.79c18.65-14.86,37.31-29.7,55.97-44.55-.04,10.78-.08,21.57-.12,32.35-12.45,3.27-22.82,11.4-29.19,22.9-6,1.73-11.94,3.7-17.79,5.89,4.99-5.36,12.78-11.32,12.63-19.28-1.14-3.35-4.91-2.09-6.93-.34-9.79,7.24-19.36,16.16-24.4,27.59-3.39,1.62-6.76,3.29-10.12,4.98,8.15-8.39,16.67-17.42,19.32-29.2.22-.08.44-.19.63-.34Zm49.44,9.9c1.08,2.25,4.34,2.51,6.32,3.84-.18,50.22-.36,100.43-.55,150.64-35.23-22.28-70.45-44.57-105.69-66.84-1.03-5.46-4.56-11.15-9.52-12.91-1.81-5.15-4.77-9.67-8.48-13.7.11-.15.22-.3.32-.45,6.94,6.48,19.29-.61,24.34-6.57,1.5-.15,3.28-1.29,4.78-2.51,17.53,15.66,48.73,23.46,65.77,3.69.44-2.25-2.03-3.13-3.49-4.23-10.51-6.74-18.77-16.73-30.36-21.77,7.04-.1,31.28,2.94,30.73-7.64-4.53-6.22-15.33-6.27-22.5-6.94,3.73-1.7,7.6-3.05,11.46-4.45,9.78,3.07,19.66,6.23,29.83,7.73,3.76,1,10.58-.03,9.28-5.31-3.43-6.46-12.41-7.4-18.92-8.81,5.49-1.49,11.05-2.76,16.66-3.77Zm-151.98,77.54c-.03-.08-.05-.16-.08-.23.02,0,.03-.01.05-.02.01.08.02.17.03.25Zm-40.99-56.87c.31.12.61.25.9.41-1.03,1.52-1.94,3.17-2.73,4.92-5.54-1.65-10.52,3.12-12.52,8.13-4.21-8.5,6.42-16.5,14.35-13.46Zm-15.43,22.09c.4,2.07,1.38,3.91,3.08,5.22.04,5.3,4.9,10.4,10.35,7.77.35.59.74,1.16,1.15,1.72-5.1,12.72-23.67-2.09-14.58-14.71Zm7.89,2.95c.38-.96,1.09-1.73,2.07-2.08.07,2.76.6,5.44,1.53,8.03-1.84,1.13-3.38-.96-3.82-2.94.77-.79.94-2.1.22-3Zm2.25-6.76c-2.22.4-4.42,1.54-5.62,3.47-.38-1.16-.35-2.53-.1-3.87.92-.65,1.2-1.81.83-2.74.98-2.34,3.83-6.39,6.7-5.53-.92,2.87-1.53,5.83-1.82,8.67Zm-14.21-10.8c-.6,3.56-.02,7.32,2.24,9.64-5.32,5.66-6.65,14.35-2.86,21.04-14.68-3.52-12.57-26.35.62-30.68Zm-1.81,35.08c1.27.24,3.14.21,4.25-.53,5.56,4.91,15.95,6.03,19.47-1.37,1.84,1.97,3.91,3.8,6.28,4.91-7.07,10.62-24.11,6.33-30.36-3.1.12.03.24.07.36.1Zm45.77-46.11c2.39-1.14,4.97-1.56,7.58-1.56-6.96,4.63-12.95,15.82-4.96,22.17-6.43,1.52-10.8,10.33-7.98,15.46-13.82-6.23-6.62-31.33,5.36-36.07Zm45.33,7.42c4.25,6.34,6.71,14.31,6.45,22.03-1.32,11.13-11.82,22.99-23.68,21.78,1.08-1.45,2.38-3.37,2.98-5.08,14.98-7.88,14.75-24.34,6.84-37.62-.03-1.85-.35-3.62-.91-5.26,3.23.11,6.33,1.6,8.33,4.15Zm10.22-1.89c2.03.87,2.66,3.19,2.51,5.25-1.74,0-3.68.63-5.01,1.7-.7-1.88-1.52-3.73-2.54-5.45,1.11-1.83,3.07-2.7,5.04-1.5Zm16.61-7.28c15.97,2.94,17.19,21.44,6.57,31.35,1.3-4.94.69-10.52-1.08-15.35,1.04-5.58-.53-11.62-5.51-14.58-.23-.55-.48-1.07-.75-1.58.26.05.53.1.79.16Zm42.5-29.94c-1.64,15.74-14.65,27.73-26,37.54-1.02-2.24-2.44-4.29-4.21-6.05,10.97-9.51,22.27-19.1,30.21-31.49Zm2.18,24.83c5.06-7.03,10.98-13.44,18.05-18.51-4.56,7.44-11.35,13.08-18.05,18.51Zm-8.63,9.92c9.89-1.92,20.39-1.42,29.72,2.57-11.57,3.89-24.53,2.1-36.82.96,2.36-1.19,4.73-2.37,7.1-3.53Zm-47.15,23.02c-1.38,1.12-2.98,2.02-4.72,2.44.03-1.12,0-2.25-.1-3.37,4.5-1.7,8.6-7.45,6.02-12.06.13-.75.28-1.39.33-2.12,4.28,3.67,3.33,11.68-1.53,15.11Zm-3.08-10.79c.13.16.29.3.5.42.5,1.93-1.47,3.69-2.98,4.77-.25-1.14-.55-2.26-.89-3.38.46-.17.87-.49,1.15-1.01.68-.36,1.43-.76,2.22-.8Zm-2.55,19.12c.12-.41.22-.81.32-1.22,4.32-.15,9.22-4.02,11.18-6.77,2.94.19,6.09-3.08,7.78-5.22,1.89,9.29-4.76,17.41-13.59,19.56-2.84,1.04-5.8,1.45-7.81-1.18.87-1.69,1.59-3.43,2.12-5.17Zm32.93-11.38c14.91,8.42,31.12,16.15,48.51,16.82-16.94,11.86-39.07,3.25-53.6-8.56,2.1-2.45,3.79-5.3,5.09-8.26Zm33.89,10.04c-11.34-3.43-22.16-8.22-32.37-14.41.42-1.79.6-3.57.54-5.31,19.22-3.72,32.3,11.78,46.16,21.96-4.85-.3-9.71-.72-14.33-2.24Zm-51.21-28.65c4.09,4.23,2.7,11.99-1.41,15.74,1.13-6.05-1.89-13.18-8.17-14.84-.31-.61-.69-1.19-1.13-1.72,3.25-1.87,7.89-1.68,10.72.82Zm-52.74,24.13c-.59.39-1.21.9-1.61,1.49-1.56,1.35-3.67.61-5.07-.64.06.07.12.15.18.22-.62-.61-.77-1.62-.38-2.39.53-.22.91-.5,1.18-.82,4.51,5.29,8.24.75,4.9-1.73-1.47-1.56-3.35-2.75-5.4-3.54,6.97-10.99,16.65.57,6.2,7.41Zm-10.95-3.95c.14.01.27.05.41.06-3.3,4.74,1.56,10.91,7.18,10.61-15.68,10.04-24.27-9.19-7.59-10.67Zm13.17,11.5c.31-.52.4-1.02.33-1.48.32-.67.33-1.5-.12-2.22,2.69-2.22,5.39-4.71,6.35-8.17,3.57,3.3,8.33-5.11,9.37-7.96,7.95,12.7-3.71,30.41-18.93,28.14-2.13-.24-4.82-.55-5.88-2.7,3.48-.94,6.72-2.78,8.86-5.6Zm8.99-16.75c-.59.63-1.44,1.17-2.08,1.78-.1-10.87-14.15-11.45-18.93-2.97-15.53-5.06,6.96-23.84,16.14-20.76,10.1,2.05,10.93,15.24,4.86,21.95Zm-72.98,35.51c.6.4,1.21.79,1.84,1.14-3.65,7.92-8.33,15.3-12.99,22.66,2.26-8.51,5.31-16.92,11.15-23.8Zm-8.35,27.81c5.03-8.06,10.19-16.08,14.23-24.7,1.64.71,3.38,1.22,5.15,1.54-3.9,10.24-11.27,18.87-20.42,24.8.35-.54.7-1.08,1.04-1.64Zm27.05-21.18c0-.68.27-1.34.47-1.99,2.94-.53,5.75-1.66,8.16-3.43-2.22,6.19-4.45,12.51-8.46,17.71-.64-4.06-.67-8.22-.17-12.3Zm12.52-24.51c1.76,1.57,7.44,6.12,9.26,2.34,2.32,2.3,6.66,3.46,10.45,3.07,1.18,7.16,11.56,7.16,17.09,6.13-11.11,17.55-38.31,3.84-36.8-11.55Zm16.54,23.89c.93.2,1.88.36,2.82.45-5.82,13.95-12.41,27.65-21.71,39.75.79-17.89,6.83-27.7,18.89-40.2Zm-11.35,37.33c8.24-11.25,13.36-24.22,19.17-36.76,3.26,17.24-5.59,38.89-23.88,43.4,1.55-2.21,3.17-4.4,4.71-6.65Zm30.41-41.86c8.72,14.46,19.97,27.86,25.69,43.94-22.32-11.3-24.98-16.92-28.23-42.15.88-.54,1.73-1.14,2.54-1.79Zm28.23,37.93c-6.04-13.82-15.35-25.75-23.27-38.49,1.96.18,3.76.08,5.65-.32,12.6,8.09,19.58,24.04,17.63,38.81Zm-10.86-41.38c2.56-1.43,4.91-3.31,6.98-5.47,3.51,3.85,6.39,8.72,7.9,13.83-.08.3-.14.61-.21.92-4.89-3.09-9.78-6.19-14.68-9.28Zm18.72,14.94c-.02-1.02,0-2.04.09-3.05h0c.05-.61.12-1.19.2-1.7,3.54,3.7,6.5,9.93,3.55,14.83,0,0,0,0,0,0-2.56-1.51-3.56-5.34-3.79-9.01h0c-.02-.36-.04-.72-.05-1.08Zm80.06-77.47c.38.08.78.08,1.17-.03-.19.05-.36.09-.55.11,8.74.02,18.74.72,26.1,5.97-9.29.22-18.44-3.49-27.36-5.84.22-.07.43-.14.65-.21Zm33.85-24.53c-5.57,5.47-12.5,9.36-19.1,13.46,4.83-6.34,11.76-10.57,19.1-13.46Zm-70.6,10.67c-6.59,7.48-14.43,13.84-21.9,20.42-2.3-1.47-4.99-2.56-7.87-3.08,2.75-15.84,23.52-22.11,37.65-27.64-2.41,3.5-5.09,7.08-7.88,10.3Zm-46.31,24.32c-.05.05-.11.11-.16.16-3.07-1.22-6.51-.24-8.59,2.33-.68-.68-1.43-1.32-2.22-1.87,2.88-8.77,14.79-10.99,20.37-3.57-3.36-.19-6.78.74-9.4,2.94Zm-67.45,2.39c-5.11,7.06-7.8,18.36-5.17,27.12-.8,4.58-1.1,9.27.44,13.54-15.33-10.45-11.4-36.71,4.52-44.53-.14,1.2-.28,2.72.2,3.87Zm-16.14-4.74c-3.38-9.52-8.44-18.31-14.55-26.31,9.23,6.08,15.69,16.18,18.03,26.92-1.12-.35-2.29-.54-3.48-.61Zm-19.2-24.92c6.17,7.58,11.1,16.16,14.49,25.33-1.25.29-2.47.71-3.63,1.25-10.17-3.95-9.42-17.62-11-26.77.05.07.1.13.14.2Zm-54.9,21.19c9.54,6.71,15,17.54,20.43,27.6-10.56-6.37-18.04-15.31-20.43-27.6Zm-32.97-5.88c6.25,4.71,9.14,12.67,13.12,19.2-6.37-4.11-11.72-11.73-13.12-19.2Zm-7.38,14.44c9.55,5.51,19.46,10.65,29.7,14.94-42.05,3.15-19.21,25.95,8.65,3.38,9.89,3.56,19.71,6.15,30.2,7.52-40.11,22.87-26.19,54.09,13.89.75.28,5.07,2.73,9.74,6.77,12.91.84,3.56,2.79,6.67,5.38,9.2-6.91,8.28-10.5,18.82-12.85,29.22-28.95,18.43-57.9,36.86-86.85,55.28-.23-45.59-.45-91.18-.68-136.77,1.9,1.19,3.82,2.39,5.81,3.58Zm28.21,19.58c-5.03,2.55-10.72,4.54-16.42,4.17,4.72-3.29,10.85-3.66,16.42-4.17Zm47.78,7.28c-6,7.22-17.64,23.01-27.01,24.73,4.34-12.14,16.22-18.97,27.01-24.73Zm187.31,110.14c-88.54-.49-177.09-.95-265.63-1.45,27.64-17.6,55.28-35.19,82.93-52.78-7.13,19.81,24.7-8.38,26.79-13.59-.87,3.29-1.52,6.63-1.96,10.01-4.17,2.48-5.82,7.52-5.86,12.15,1.16,23.57,20.13,6.96,10.49-12.75.45-3.31,1.17-6.57,2.1-9.78,4.32,20.98,18.12-12.77,19.1-19.51,2.81,2.95,6.31,5.33,10.11,6.86-10.97,10.17-18.09,23.4-18.47,38.59.1,3.81-3.63,9.92.99,12.07,23.31.12,37.42-25.82,34.73-47.05,1.55,23.04,12.1,33.08,32.15,42.38,3.86,2.18,5.1-2.71,5.82-5.33,3.72-13.51-.08-28.78-8.77-39.62,2.9,1.84,5.8,3.67,8.7,5.51-1.92,10.93,10.72,25.9,13.96,8.82,34.65,21.91,69.29,43.83,103.94,65.74-17.04-.09-34.07-.19-51.11-.27Zm-157.5-38.75c-3.01-2.7-2.1-12.6,1.43-14.85.98,3.64,1.51,12.2-1.43,14.85Zm242.54-106.12c-9.99-.26-18.37-7.82-27.4-11.49,0-.54,0-1.09,0-1.63,8.83,1.03,22.59,5.23,27.4,13.12Zm1.76-24.66c-5.94,3.43-12.99,6.23-19.95,5.9,5.92-3.61,13.12-5.15,19.95-5.9Zm-37.21,7.04c-2.95.5-5.91,1.08-8.87,1.7,4.36-2.72,8.72-5.51,12.47-8.97,0,2.29-.02,4.58-.02,6.87-1.19.12-2.38.24-3.57.4Zm-29.15-85.59c10.56,10.47,21.14,20.94,31.69,31.42-10.86,8.64-21.71,17.28-32.56,25.93-.4-19.81-.81-39.61-1.21-59.42.69.69,1.39,1.38,2.08,2.07ZM145.38,5.24c58.29.29,116.59.59,174.88.87,1.28,62.81,2.55,125.63,3.83,188.45-5.92,4.7-11.83,9.41-17.74,14.12-.88-13.74-15.96-1.83-23.11-.18-11.91,5.32-24.87,11.78-27.57,26.09-.28,0-.56.04-.84.09-6.9-6.71-19.44-5.72-24.76,3.53.47-1.69.85-3.4.8-5.18,12.24-22-3.65-36.18-9.33-15.56-1.82,6.65,4.96,11.33,4.72,17.39-11.87-11.79-38.64-17.82-48.2-.41-3.36,1.83-6.74,3.78-9.87,6.01-2.06-9.92-7.13-19.2-14.5-26.14-2.76-2.71-17.92-14.18-18.44-5.54,2.65,11.85.71,28.07,12.08,35.79-.62.59-1.18,1.19-1.67,1.9-17.18-11.42-34.5-22.66-51.72-34.02-1.24-69.16-2.46-138.32-3.7-207.48,18.39.07,36.77.2,55.16.28Zm83.16,221.79c-3.09-4.27-4.01-11.14.54-14.79,4.34,2.2.54,11-.54,14.79Zm-151.27-80.23c3.6-3.11,7.21-6.21,10.81-9.32.43,23.99.85,47.98,1.28,71.97-16.05-10.52-32.07-21.09-48.12-31.6,12-10.36,24.02-20.69,36.02-31.05Zm40.54-100.88c1.6-2.59,5.44-.25,3.85,2.32,6.47-1.69,11.93-6.02,17.15-10.04,2.38-3.38,7.73-11.57,12.01-11.74,9.96,3.86-14.12,15.13-12.19,23.53.57,1.68,3.3.51,4.58.22,8.01-3.05,14.33-8.74,19.23-15.62,3.8-5.62,10.98-3.23,5.95,3.01-2.1,2.93-5.99,4.43-7.72,7.47-1.01,3.37,10.21-1.91,11.57-2.51,2.18-1.5,6.89-4.23,6.72.55-1.07,2.27-1.49,4.87,1.9,4.78,3.49.92,11.59-3.67,11.96.78,3.91-.74,7.07-3.69,10.62-4.8,2.74.42,2.06,3.33.75,4.9,11.16-1.58,20.43-9.29,29.91-14.9,2.11-2.03,4.03-4.94,7.02-5.61,3.32-.06,3.13,3.56.97,5.23-5.13,4.08-11.44,9.17-12.39,16.03,7.94-1.73,13.26-9.94,20.55-12.93,3.62.33,1.91,4.16.67,6.09,4.74.04,8.84-2.63,12.29,2.04,4.18,2.84,17.11-2.74,18.59,1.88-.3,4.43-7.17,2.42-10.25,3.18-4.33.14-9.7.9-12.61-3.02-3.68-1.19-10.43,2.95-12.48-2.31-4.86,3.19-11.36,9.97-17.38,9.54-4.92-.78-4.54-6.88-2.36-10.15-4.99,2.87-23.1,14.51-26.89,6.89-3.27,1.28-8.2,4.45-11.04.93-5.19.87-14.01,2.3-15.14-4.79-4.83,1.86-13.84,7.1-17.27.8-5.68,5.4-24.19,14.05-21.94-.66-4.22,2.5-8.68,5.66-13.74,5.77-3.76-.09-4.88-4.09-2.88-6.88Zm13.51,41.17c-2.53-2.67-4.55,1.15-5.16,3.41-3.05,12.26,15.34,4.41,21.09,2.51,1.46,7.81,12.21.71,16.06-1.48-.46,10.88,13.77,7.22,19.89,4.26.36,21.53,31.25,2.81,40.3-3.07,1.95-1.48,1.35-4.6-1.27-4.65-2.09.31-4.68,1.8-5.49,3.81-6.28,2.92-33.42,19.05-28.43,1.35,49.75-26.43,15.98-46.44-3.73-3.08-5.17,3.12-23.05,9.03-14.45-3.24.82-1,1.13-2.44.12-3.43-2.13-1.98-3.84.95-5.59,1.96-4.03,2.42-7.98,5.25-12.55,6.53,2.49-2.65,1.29-7.31-2.67-4.71-6.09,2.36-12.49,5.29-19.23,5.5.2-1.92,2.53-3.78,1.13-5.66Zm60.33-1.48c3.16-5.24,11.9-16.59,18.49-16.3,0,0,0,0,0,0,0,0,0,0,0,0,0,0,0,0,0,0-1.18,5.23-14.22,13.52-18.83,16.88.11-.2.22-.4.34-.59Zm38.64,8.3c3.77.51,12.82-7.52,11.71.42,7.45,2.26,14.97-3.65,21.12-7.31,5.06-2.41,7.41-7.59,11.74-10.75,2.56-1.25,4.72,1.46,3.32,3.83-1.55,3.41-6.01,4.49-7.19,8.04-1.1,3.41,3.6,9.64-.3,11.49-4.37.32-3.29-6.54-4.22-9.44-7.59,4.61-20.52,14.32-28.42,6.28-4.45,2.45-17.92,3.79-12.36-4.69,1.9-2.37,5.68-1.01,4.6,2.14Zm53.45,27.17c-3.16,5.27-7.43,10.04-9.64,15.79,4.55,1.28,8.02-1.53,11.61-3.85,2.5-1.5,4.79,2.44,2.27,3.89-8.92,7.75-25.49,6.51-14.85-7.86-11.23,7.36-21.83,16.31-34.34,21.37-8.67,2.52-9.65-4.93-5.67-10.88-4.26,2.96-17.19,11.18-17.47,1.25-4.26,2.57-12.77,6.62-15.24-.05-10.06,10.12-25.33,14.93-14.5-5-4.59,3.72-16.92,13.85-22.73,9.63-9.22,2.2-16.72,13.63-17.87-3.78-5.62,2.94-12.4,5.59-18.72,3.58-7.07-2.86-3.3-11.74,1.79-14.6,2.6-1.41,4.78,2.35,2.26,3.89-12.14,11.9,11.75,5.52,16,1.12,7.52-19.05,20.63-8.4,3.72,2.92-.94,2.54-.53,5.34.32,7.85,4.45-1.88,10.61-7.93,15.39-4.43,9.67-1.42,20.4-12.86,27.77-19.18,1.92-2.29,7.56-11.36,10.86-8.25,2.68,4.74-5.17,8.36-7.74,11.58-3.9,6.02-8.04,12.19-10.31,19.03,5.46-2.77,10.31-7.52,14.96-11.27,1.38-1.1,1.81-3.1,3.43-3.98,1.49-.87,3.49.18,3.52,1.92,0,3.05-4.43,4.64-3.77,7.9,6.14.3,11.87-4.85,16.75-8.12,1.61-2.72,7.27-6.41,7.27-.82-1.97,4.01-6.95,5.75-8.56,10.27,7.65-2.35,14.58-7.76,20.36-13.13,1.39-1.58,2.63-3.7,4.76-4.32,2.81-.57,3.7,2.8,1.94,4.59-5.22,5.03-10.22,11.18-12.02,18.25,8.08-1.19,14.75-7.62,21.62-11.65,7.7-5.27,15.51-10.42,22.89-16.13,1.86-2.05,5.25-.14,3.93,2.47Z"/>
  </g>
</svg>