<?xml version="1.0" encoding="UTF-8"?>
<svg id="_Слой_2" data-name="Слой 2" xmlns="http://www.w3.org/2000/svg" viewBox="0 0 233.39 269.63">
  <g id="_Слой_1-2" data-name="Слой 1">
    <path d="m153.31,195.81c-29.06,67.02,46.43,87.2,56.64-1.7,5.69-56.45-3.19-113.38-10.91-169.3,10.98-5.48,21.72-11.44,32.33-17.38,5.12-3.55-.57-10.03-5.19-6.3-14.09,8.27-29.81,13.14-45.59,17.08-29.86,8.84-60.78,10.22-91.7,10.48-8.54,1.6-21.72-1.99-26.98,6.38-3.34,54.31,3.25,111.74-4.85,166.9-40.24-16.9-83.14,50.05-37.27,67.53,18.1,1.84,33.15-13.41,38.73-29.47,14.65-62.75,11.09-128.74,9.89-192.88,31.94,15.62,91.86-4.88,123.11-18.68,7.53,51.58,14.05,103.54,11.7,155.82-15.25-16.67-40.68-6.27-49.91,11.53Zm18.99,50.47c-20.72-1.86-21.26-30.15-13.12-44.51,8.05-17.44,31.41-26.4,42.41-6.5-3.7,17.53-9.55,45.6-29.3,51.01Zm-148.26,15.4c-35.86-6.13-4.85-68.47,32.27-51.29-1.53,20.45-8.23,48.11-32.27,51.29ZM70.04,38.26s0,0,0,.01c0,0-.01,0-.02-.01,0,0,.01,0,.02,0Z"/>
  </g>
</svg>