<?xml version="1.0" encoding="UTF-8"?>
<svg id="_Слой_2" data-name="Слой 2" xmlns="http://www.w3.org/2000/svg" viewBox="0 0 673.52 139.79">
  <g id="_Слой_1-2" data-name="Слой 1">
    <path d="m557.21,79.95c40.24-.99,78.47-16.98,111.86-38.68,2.55-1.57,6.01-4.54,3.67-7.69-3.07-3.12-8.04-.34-11.89-.58-10.78.72-21.67,1.13-32.41-.18,9.8-8.63,18.68-18.61,27.49-28.02,1.03-2.47-1.3-5.35-3.93-4.71-2.41.4-4.41,2.66-6.99,3.18-17.28,6.24-34.89,12.04-52.81,16.21-28.8,6.89-58.7,7.8-87.48,14.34-4.83.95-11.2,6.24-6.03,10.85,12.25,5.62,27.17,2.25,40.17,5.76-25.06,10.83-53.52,10.28-80.26,13.72-35.6,3.31-71.42,6.69-107.22,7.93-32.43,2.17-64.92,2.8-97.41,2.5-28.17.02-57.76-1.58-83.97-12.64,13.13-4.03,33.43-1.94,42.36-13.51,1.9-4.77-3.33-7.62-7.42-7.75-32.91-2.59-65.76-1.27-98.78-4.31-25.95-2.18-51.95-4.52-77.64-8.77-52.88-14.51-4.46,19.2,11.02,27.27-8.67,2.04-17.72,2.32-26.55,1.26-3.97.07-9.12-3.03-12.32.29-3.56,6.22,8.18,9.89,12.13,12.56,43.57,20.69,95.78,35.41,143.67,27.44.66,4.89-3.45,20.17,2.85,21.02,45.89,14.57,94.28,21.33,142.49,21.44,16.74,6.46,285.89-23.25,254.56-44.22-.29-5.22-.83-10.42-1.5-15.59.64.58,1.46.94,2.34.87Zm-25.71-37.73c-7.89-.8-15.83-1.22-23.72-2.01,43.92-7.66,88.87-10.92,130.9-27.19-6.11,6.57-12.44,12.93-19.71,18.17-9.06,12.51,32.97,9.07,38.83,9.02-29.13,16.98-61.08,31.04-95.35,32.33-2.55.39-6.68-.27-8.21,1.93-2.13-5.18-.46-29.22-7.26-27.53-3.98-3.93-10.23-4.03-15.49-4.72Zm-378.3,48.6c-46.38,3.79-93.84-6.99-135.6-27.23,7.05,1.3,45.75-1.91,27.54-13.71-9.32-4.55-17.98-10.43-25.96-17.05,60.58,11.95,122.63,11.86,184.02,14.68-12.87,5.86-28.69,3.55-41.08,10.56-2.04-.2-3.98,1.7-3.74,3.78-.91,10.18-1.08,20.4-1.72,30.6-.72-1.13-2.06-1.75-3.47-1.62Zm360.64,17.95c-114.87,21.4-237.18,38.73-350.81,2.22.13-14.49,1.3-29.34,1.94-43.87,54.54,25.44,162.18,11.36,224.25,10.1,24.96-1.58,49.69-4.56,74.64-6.56,26.91-3.61,56.18-2.65,80.72-15.48,1.78,14.01,4.14,27.96,4.91,42.08-11.58,4.66-23.59,8.34-35.66,11.51Z"/>
  </g>
</svg>