<?xml version="1.0" encoding="UTF-8"?>
<svg id="_Слой_2" data-name="Слой 2" xmlns="http://www.w3.org/2000/svg" viewBox="0 0 300.65 192.94">
  <g id="_Слой_1-2" data-name="Слой 1">
    <path d="m182.33,189.1c60.02,16.05,122.36-35.3,118.12-97.28-2.47-73.6-88.81-116.85-149.2-74.67C81.7-31.19-13.26,29.61,1.54,113.01c10.91,68.61,93.76,103.13,150.18,62.61,9.46,6.3,19.4,10.72,30.61,13.49Zm-71.54-76.34c3.3,19,12.53,36.9,26.13,50.58-50.05,30.24-117.15-8.46-116.05-66.95C19.96,38.31,86.55-.31,136.52,29.5c-21.33,21.5-31.13,53.49-25.73,83.27Zm31.36,61.29C78.23,212.18-3.13,157.98,7.46,84.27,15.43,19.91,91.78-15.05,145.68,21.25c-1.46,1.15-2.88,2.35-4.27,3.59-47.99-30.52-116.35.05-125.57,56.18-13.62,70.69,64.71,124.78,125.98,86.97,0,0,0,0,0,0,1.91-1.18,3.79-2.41,5.61-3.73,0,0,0,0,0,0,1.64-1.19,3.25-2.44,4.8-3.76,0,0,0,0,0,0,1.67-1.42,3.28-2.91,4.85-4.44,0,0,0,0,0,0,33.21-31.52,32.78-89.31-1.18-120.11,1.34-1.11,2.65-2.14,4.08-3.16,41.58,39.57,32.29,113.23-17.81,141.26Zm8.59-23.61c-30.36-28.88-30.27-81.42.32-110.15,31.7,28.35,32.24,82.44,1.06,111.47-.46-.43-.92-.87-1.38-1.32Zm40.34-72.89c-3.64-18.15-12.6-35.18-25.58-48.41,50.04-31.13,118.07,7.52,116.98,66.46.97,58.16-65.73,96.84-115.73,67.01,21.25-22.32,30.53-54.81,24.33-85.06Zm-33.84,93.9c1.63-1.32,3.21-2.69,4.75-4.11,56.37,34.78,131.11-10.13,126.88-76.22-2.43-62.86-75.37-100.82-128.2-66.6,0,0,0,0-.01-.01-1.89,1.2-3.74,2.47-5.55,3.79,0,0,0,0,.01.01-1.42,1.04-2.81,2.12-4.15,3.26h0c-1.66,1.42-3.27,2.89-4.84,4.42,0,0,0,0,0,0-33.2,31.55-32.67,89.19,1.12,120.1-1.51,1.32-3.12,2.52-4.76,3.65-8.21-8.04-14.85-17.76-19.43-28.41h0c-23.75-52.2,12.79-116.93,69.93-123.44,61.84-9.5,115.56,51.86,97.85,111.96-14.18,56.48-85.04,83.99-133.61,51.58Z"/>
  </g>
</svg>