<?xml version="1.0" encoding="UTF-8"?>
<svg id="_Слой_2" data-name="Слой 2" xmlns="http://www.w3.org/2000/svg" viewBox="0 0 241.68 253.23">
  <g id="_Слой_1-2" data-name="Слой 1">
    <path d="m20.59,85.43c-53.91,56.41,8.77,119.96,64.94,140.6,21.1,10.17,42.9,23.47,66.24,26.9,2.33,1.1,3.89-1.11,5.23-2.7,7.44-8.18,15.25-16.26,22.49-24.68,26.5-32.88,58.33-77.17,62.16-120.09.5-18.43-6.54-38.02-20.63-50.27-24.57-18.14-62.07-11.2-82.16,10.65C136.83,43.04,110-4.92,83.33.41c-20.5,15.39-10.04,44.97-3.18,65.09-21.22-2.59-44.52,4.47-59.56,19.94Zm120.42-13.13c36.36-39.22,96.83-23.97,94.57,34.43-2.45,26.99-16.82,51.09-30.76,73.76-14.57,24.8-33.71,46.05-53.37,66.98-18.78-4.89-36.31-12.92-53.55-21.85C-82.39,154.4,47.25,13.71,121.87,95.81c2.9,6.82,7.52,5.9,7.62-1.53,1.07-5.7,3.71-10.93,6.86-15.76.29,12.04-2.03,23.95-4.88,35.59-13.46-3.35-21.27,16.31-9.19,23.12,14.5,8.62,27.31-13.75,12.54-21.87,3.46-14.54,5.76-26.83,4.85-41.37.45-.56.89-1.13,1.36-1.68Zm-8.1,48.94c10.17,10.33-12.12,18.08-10.56,3.69,3.95,2.98,8.24.02,10.25-3.91.1.07.21.14.31.21Zm-8.86.56c1.32-1.35,3.25-2.12,5.14-1.97-.93,1.97-3.28,3.95-5.14,1.97Zm-41.96-61.19c-5.55-17.67-14.14-42.22,2.14-56.71,23.22-5.92,51.69,45.04,51.52,65.36-4.85,5.92-9,12.61-11.19,19.99-12.92-14.15-23.74-18.76-40.32-23.03-.79-1.81-1.49-3.7-2.14-5.61Z"/>
  </g>
</svg>