<?xml version="1.0" encoding="UTF-8"?>
<svg id="_Слой_2" data-name="Слой 2" xmlns="http://www.w3.org/2000/svg" viewBox="0 0 190.19 377.76">
  <g id="_Слой_1-2" data-name="Слой 1">
    <path d="m181.59,271.89c-2.38-24.47-5.13-48.92-7.25-73.41-5.93-10.13-13.95-19.2-20.6-28.96-13.72-18.81-27.48-37.61-41.2-56.42-2.56-3.06-15.65,1.08-20.4.74,75.12-173.11-63.29-129.74-27.68,2.96-5.57,1.6-29.68.78-30.63,5.34-5.96,15.93-11.74,31.94-17.65,47.89-3.95,10.7-7.88,21.41-11.82,32.11-1.73,5.69-5.52,11.15-3.99,17.27,4.87,42.68,9.75,85.35,14.62,128.03,5.19,42.11-3.2,28.65,39.17,26.78,35.96-3.64,71.93-7.29,107.89-10.92,5.52-1.68,28.72.23,28.13-6.26-2.87-28.39-5.72-56.78-8.59-85.17ZM66.97,38.7c7.35-30.79,46.74-56.58,44.48-6.42-1.92,28.62-13.41,55.36-23.19,81.98-6.75.72-13.5,1.44-20.26,2.17-7.24-25.15-8.89-52.52-1.03-77.73Zm94.46,318.66c-45.9,4.63-91.8,9.32-137.7,13.91-5.92-52.01-11.93-104.04-17.8-156.05,11.02-29.88,21.96-59.78,33-89.65,9.11-.97,18.21-1.94,27.32-2.92,1.39,4.11,3.02,8.08,4.89,11.31-14.29,10.47-.11,33.81,15.79,25.96,18.03-8.44,5.38-36.05-12.77-27.77-1.68-3.06-3.17-6.82-4.27-9.89,12.95-1.39,25.91-2.76,38.86-4.15,19.95,27.24,39.82,54.53,59.74,81.8,4.71,51.75,10.41,103.45,15.46,155.18-7.5.79-15.01,1.5-22.52,2.27Zm-82.4-215.98c2.7.57,4.92-1.17,5.94-3.48,7.76,3.91,5.42,16.47-3.22,17.35-9.04,1.52-14.42-11.02-7.04-16.48,1.34,1.33,2.78,2.26,4.31,2.61Zm2.29-4.05c-1.1.82-2.25.62-3.39-.23,1.2-.33,2.45-.44,3.68-.3-.08.18-.17.36-.29.53Z"/>
  </g>
</svg>