<?xml version="1.0" encoding="utf-8"?>
<!-- Generator: Adobe Illustrator 24.1.2, SVG Export Plug-In . SVG Version: 6.00 Build 0)  -->
<svg version="1.1" xmlns="http://www.w3.org/2000/svg" xmlns:xlink="http://www.w3.org/1999/xlink" x="0px" y="0px"
	 viewBox="0 0 841.9 1190.6" style="enable-background:new 0 0 841.9 1190.6;" xml:space="preserve">
<style type="text/css">
	.st0{fill:none;stroke:#020203;stroke-width:1.5;stroke-miterlimit:10;}
</style>
<g id="Layer_1">
</g>
<g id="Layer_2">
</g>
<g id="Layer_3">
</g>
<g id="Layer_4">
</g>
<g id="Layer_5">
	<path class="st0" d="M166.8,997.6c-13.2-0.9-16.3-3.5-15.2-13.6c1.1-10,4.1-32.2,10-36.8c6-4.5,19.5-1.1,21.7,0
		c4.9,2.3,5.8,18.6,12.5,28c6.6,9.4,8.6,16.2,1.9,17.3s-38.2,1.1-42.1-1c-3.9-2.1,9.1-38.9,2.6-49.3c-6.5-10.4-8.3-18.3-6-21.2
		c2.3-2.9,1.9-17,1.3-26.4c-0.6-9.4,5.2-59.8,5.7-68.9c0.5-9.1-3.2-53,0.3-69.8c3.6-16.9,8.4-21.2,8.6-27.2s-3.9-14.9-3.2-21.4
		s4.4-10.7,3.6-17.3c-0.8-6.6-0.3-21.1,3.1-27.1c3.4-6,6.4-24.6,5.1-36.9s-5.2-14.7-5.1-22.7c0.2-7.9,2.4-11.3,1-19
		s-2.9-16.5-1.9-23.7c1-7.1,5.4-16.1-7.6-19.1c-13-2.9-29.6-8.3-29.2-12.2c0.4-3.9,20.3-30.1,18.8-38.6c-1.5-8.4-6.8-46.7-6.5-58.9
		c0.3-12.2-1.7-29.7,4.1-48.2c5.8-18.5,14.4-53.7,17.2-62.4c2.8-8.7,16.6-49.3,20.2-59.4c3.6-10.2,18.1-18.3,27.1-20.4
		c17.4-4.1,30.6-4.2,40.9-6.2c10.4-1.9,16.5,0.4,21.1,3.3s45.5,19.8,50.2,23.9c4.7,4.1,10.6,10.1,8.3,11.7c-2.3,1.5-1.1-10-5.5-17.3
		c-4.7-7.8-17.9-15-23.8-18c-5.5-2.7-20-12.4-25.7-11.1c-3.9,0.9-11.6,4.9-8.6,6.6c3,1.7,20.5-11.2,24.1-14.3
		c3.6-3.1,4.6-11.2,32.3,10.5c20.4,16,15.4,19.5,10.1,39.1c-2.5,9.2,3.6-16.2,1.9-23c-1.7-6.8-31.4-22-31.8-33.3
		c-0.3-6.5,4.5-38.8,16.4-56.9c8.8-13.2,20.3-16,33.5-14.5c8.5,1,29.9,6.3,40,15.1c10.2,8.8,6.9,21.6,6,23.6c-0.4,1-1.5,1.5-2.5,1.3
		c-13.1-2.7-48.3-32.3-51.3-29c-3.2,3.5,21.6,9.4,29.6,13.7c8,4.4,4.6,14.8,5.3,17.8c0.6,3,0.8,10-4.1,11.8
		c-4.9,1.8-8.3,2.4-8.8,6.6s-4,13.3-6.9,13.2c-2.9-0.1-4.8-2.8-4.5-6.4c0.3-3.6-6.6-15-12.4-14.8s-12.9,10-17.7,16.2
		c-4.9,6.2-20.2,3.2-20-2.9s7.9-56.7,32.7-62.1c15.1-3.2,40.4,2.9,52.5,13c7.8,6.5,5.9,17.7,5.9,19.2c0,1.6,0.3,3.1,0.8,4.5l0.4,1.1
		c0.2,0.4,0.4,0.9,0.6,1.3c2,3.8,4.2,10.9,3.4,23.7c-0.7,12.2-0.8,13.6-2.5,14.9c-1.7,1.3-2.3,4-1.9,8.3s3.2,17.9-5.9,16.5
		c-1.6-0.3,10.4-6.4,18.3-8.2c4.8-1.1-0.2-4.8,4.9-10.5c4.3-4.7,13.9-15.4,22.8-16.8c4.1-0.7,5.1,6.2,2.9,11.9
		c-2.2,5.6-7.6,10.6-6.9,16.4c0.6,5.8-5.3,1.9-7.5,5.4c-2.2,3.5,1,11.7-0.4,15.3c-1.4,3.7-5.5,5.4-4.6,10.7
		c0.9,5.3,5.3,5.9,6.8,12.7c1.5,6.8-0.8,19.6,8.2,22.6s21.4-2.5,24.2-6.5c2.8-4,8.7-5,12-0.8c3.2,4.2,3,12-2.2,14
		c-5.2,2.1-12-2.9-11.9-7.7c0.1-4.8,9.9-9.1,12-5.2c2.1,3.9,2,8.9-4,9.4c-6,0.5-4.3-7.3-1.4-7.5s8.3,2.8,13.5,1.2
		c5.2-1.6,7.5,4.4,5.9,8.3c-1.5,3.9-5.5,5.9-9.8,3.7c-4.3-2.3-1.7-11.6,6.2-9.2s-2.2,13-5,7c-2.8-5.9,8.5-11.2,14.6-8
		c6,3.2,6,12.4-2.3,13s-1.7-10.8,1.1-10.6c2.8,0.2,6.5,5.6,0.8,7.1c-5.8,1.5-4.2-3.1-1.4-3.6s2.5,7.7-3.9,8.8
		c-6.4,1.1-17.1-6.5-21.4-3.6c-4.3,2.9-6,26.1,7.9,26.7c13.9,0.5,13.7-5.3,16.2-9.6c2.5-4.3,13.5-0.6,12.2-3.5
		c-1.3-2.8-9.5-6.7-13.6-1.7c-4.1,5-16.9,14.9-19.1,8.3c-2.3-6.6,25.2-16.6,27.3-19.6s2.8-5.3-0.1-13.1s-25.8-7.9-24.5-12.4
		s10.4-11.8,12.4-9.2c1.9,2.6,2.7,18.5-3.3,18.1c-6-0.3-4.3-11.5-1-13.3c3.3-1.9,3.8-8.5,10.6-11.2c6.8-2.7,11.7,2.3,18.5,3.3
		c6.8,1.1,1.9-22.4-12-24.5s-35.1,17.2-35.1-1.8s4.1-29.8,9.5-30s44.3,35.4,40.6,25.7c-3.9-10-23.4-31.7-58.6-35.1
		c-2.4-0.4-10.1-0.5-9.8-3.1c1-9.9,60.2,7.7,71.5,38.2c3.7,10,0.7,31,0.3,33.5c-0.4,2.4-8.5,3.3-12.3-1.6c-4.3-5.5-12.3-3.3-15.3,1
		c-3,4.3,0.1,17.1,9.1,16.2c9-0.9,12.4-8,10.4-11.6c-2.1-3.6-10-2.8-10,9c0,11.8,4,13.9,2.6,18.9c-1.4,5-9.5,5.9-6.7,8.4
		s10.7,1.9,10.3,6s10-7.2,5.8-8.3c-4.2-1.1-9.2-4-6.9-6.6c2.3-2.6,8.7,1,11.7-3.2c2.9-4.2-11.8-10.8-10.6-5.1
		c1.2,5.7,9.3-5.4,9.2-9.2s3.3-17,7.8-13.8c4.4,3.1,11.2,13,8.9,17.2c-2.4,4.2-13.3,3.6-14.5-0.6c-1.2-4.2,9.5-0.2,9.3,8.3
		c-0.2,8.5-5.9,8.6-10.4,14c-11.3,13.7,2.3,6.7,9.2,16.5c5.1,7.2,25.7,49.6,27.3,65.9c1.6,16.3,9.5,40.2,13.1,50.3
		c3.6,10.2,11.1,28,14.5,42.5c2.9,12.6,6.4,53.8,6.8,64.7c0.2,6-18.2,8.3-19.1,6.4c-0.9-1.9,16.7-4.4,22.1-4.9
		c11.8-1.1,32.4-4.1,39.4,2.2c7.3,6.6,11.2,17,4.1,20.6c-7.1,3.6-29-5.5-27.2-13.8s11.5-10.8,18.6-7.5c7.2,3.4,12.3,15.4,7.1,17.5
		c-5.2,2.1-16.7-1-19.1-7.1c-2.4-6.2,10.2-9.1,13-7c2.8,2.1,7.3,7.8,2.9,8.9c-4.4,1.1-10.5-0.3-11-4.4c-0.5-4.1,12.8,1.5,12.3,6.2
		c-0.5,4.7-25.8-6.6-40-7.9c-14.3-1.3-27.7,0.3-27.5,6.3s4.9,9.2,3.2,17c-1.6,7.8,2.9,13.8,7,10.4c4.1-3.4,4.4-10.9,11.7-12
		c7.3-1.1,13.8-7.3,12.8-13s-16.9,7.9-18,18.5c-1.1,10.5-1.1,20.9,4.1,22.7c5.2,1.8,22.8-4.1,24.1-12.8c1.3-8.8-6.4-17.4-14.1-16.5
		c-7.7,0.9-12.3,9.2-12.6,13.3c-0.3,4.1,0,19,13.8,10.7s8.1-18.8,3.7-20.6c-4.4-1.8-17.5,6.9-13.6,14.9c3.9,8,17.5-3.1,14.9-8.4
		c-2.6-5.3-12.2,1.6-10.7,8.1s16.9-4.7,27.4-9.7c10.5-5,23.3-10.9,23.8-16.9s-2.4-18.3-7.3-18.5c-4.9-0.2,10.5,0.3,22.4-2.6
		c11.8-2.9,31.3,1.1,35.6,8.4c4.4,7.3-0.8,0-18.6,0s-18.6,11.2-12.5,13c6.2,1.8,7.1,16.2-1.5,17.3c-8.6,1.1-18.6-9.6-16.4-14.7
		c2.3-5.2,17.6-3.9,20.1,1.5c2.5,5.3-5.3,12.2-10.2,8.6c-4.9-3.6,3.1-6.6,5.7-5.8s-7,13.6-18.8,10.4c-11.8-3.2-17-5-19.9,2.1
		c-2.9,7.1,6.8,18.6,16.9,15.7c10-2.9,4.1-18.5-7-18.1c-11,0.3-9.9,15.4,5.2,15.2c15.1-0.2-3-18.4-8.8-12s2.3,17-6.2,22
		c-8.4,5-19.4-1.9-13.9-7.6c5.5-5.7,15.4-5.7,16-0.3s-11.2,8.6-13.6,5.5c-2.4-3.1,7.6-8.3,11.2-6.6s16,11.7,11,18.6
		s-15.1-3.9-24.6-5.8c-9.6-1.9-25.3-5.8-27.4,1.6c-2.1,7.5,26.1,11,27.9,3.1c1.8-7.9-30.6-7.5-21.7-2.9c8.9,4.5,15.9,3.1,11,1.3
		s-11.8,6.5,0,13.9s19-3.3,26.6-4.9s4-21.1,15.2-20.4c11.2,0.6,10.6,13.6,2.2,13.3c-8.5-0.3-8.1-11.1-0.8-10.9
		c7.3,0.2,17,15.1,13.8,20.7s-16,8.3-19.8,1.6c-3.8-6.7,5.7-11.8,13.4-9.8c7.7,1.9,5.3,10.7-5,11c-10.3,0.3-4.8-9.3,1.5-9.5
		c6.3-0.2,18.8-2.2,15.3-13.2s-12.9-12.4-12.7-17.2c0.1-4.8,5.7-1.1,17.2-3.6s10.2-13.8,13.4-9c3.2,4.9-5.4,4.8-3.8,8.6
		c1.6,3.9,7.8-3.9,7.7,0.3s-16.5,5.7-26.8,5.2c-10.3-0.5,10.9-1.3,33.3,5.9s16.3,13.7,10.9,15c-5.4,1.3-37.9-9.6-42.5-14.2
		c-4.5-4.5,12-2.8,9.5,11c-2.5,13.8-6.9,17.7-8.1,23.7c-1.2,5.9,10.5,3.5,7.6-1c-2.9-4.4-8.7,7.8-13.8,11.2s0.6,13.8,4.4,13.8
		c3.8,0,1.9-4.3,6.3-5.5c4.3-1.2,9-6.2,8.6-10.5c-0.3-4.3-5-14.3-16.4-5.4c-11.5,8.9-5.7,12.5-9.8,16.2c-4.1,3.7-10.2,0.5-10-4.2
		c0.2-4.7,6-4.5,8.4-3.4s3.1,15.6-11.2,15.2c-14.3-0.3,3.1-11.8,1.1-17.8c-1.9-6-7,2.4-16.5,2.4c-9.6,0-12.3-7-9.2-9.7
		c3.1-2.8,24.8-12.3,20.4-6.3c-4.4,6-9.7,18.6-16,19.6c-6.3,1-20.4,6.5-22.4,16.9c-1.9,10.4,14.4,8.8,22.5,3.2
		c8.1-5.5,8.8-16.9,2.8-17.7s-24.6,9.3-22,15.6c2.6,6.3,8.7,3.7,16.7-2.1c7.9-5.8,9.7-13.8,2.4-9.6c-7.3,4.2-18,12.5-10.2,11
		c7.8-1.5,8.3-15.6,3.2-22.4s-21.7-7.5-26.7-1.1c-5,6.3-2.4,21.7,3.6,23.7c6,1.9,9.7-16,19.1-17.7c9.4-1.6-9.7-11.5-18.6-5.2
		c-8.9,6.3-4.1,18.4,0.3,19.1s3.2-12.5,10.5-13.9s1.1-5.8-2.6-5.3c-3.7,0.5-12.3,8.1-9.7,12.2s9.9-22.5,17.8-19.1
		c7.9,3.4,25.4,16.9,27.2,25c1.8,8.1,1.1,16.5,1,25.4c-0.2,8.9-5.7,26.7-2.3,31.4c3.4,4.7,1.9-23.7-0.8-28.7
		c-2.8-5-0.7-21.1-5.7-21.2s-16.5,4.9-10.7,10.2c5.8,5.3,13.9-1.5,11.7-4.5c-2.3-3.1-6.8,7.5-4.7,15.7c2.1,8.3,2.6,30-1.3,44.2
		c-3.9,14.3-7,19.1-9.6,16.9c-2.6-2.3,8.7-11,7.5-37.4c-1.3-26.4-14.9-13.4-24.6-22.8c-9.7-9.4-21.4-21.7-20.3-24.8
		c1.1-3.1,34.7,4.5,36.6,15.6c1.9,11-7.3,13.8-14.4,7.9s-17.2-27.4-22-33.9s2.6-25.9,14.7-24.8s3.7,0.4-5-8.9
		c-8.6-9.3,2-12.5,3.9-18.8s-20.1-12.7-21.4-6.9c-1.3,5.8,10.5-38.7,5-45.5s-12.8-1.9-8.3,7.6c4.5,9.6,14.4,10.4,14.3-6.8
		s-11.6-49.7-17-63.8c-5.4-14-17.2-46.2-19.8-56.3c-2.6-10-5-24.5-4.1-32.2c1-7.8,5.3-9.9,6.3-35c0.2-4.9-1.1-17.2-4.9-26.9
		c-3.7-9.7-13.8-20.4-17.7-20.7s-7.1,1.1-2.3,4.1c4.9,2.9,14.9,17.7,16.2,34.2c1.3,16.5,3.1,28.1-1.6,35.6s-0.8,14.2,1,16.8
		s-3.1,10-8.9,16c-5.8,5.9-27.8,36.6-30.8,43c-3,6.4,24.7-1.8,29.5-4.3c8.3-4.3,11.5-41.8,11.4-48c-0.1-6.3-15.5,34.9-7.4,48
		c8.1,13.1,15,27,21.9,45s8,29.8,9.9,47c1.9,17.2,0.6,30.9,2.9,44.4c2.3,13.5,4,44.6,7,63c3,18.4,35.9,121.9,48.8,154.6
		c13,32.7,35.3,93,46,105.3s14.9,4.5,32.1,25.6s23.7,29.5,22,43.4s-28,14.4-39.1,7c-11-7.5-31.8-6-34.7,2.8
		c-2.9,8.7,16.2,11.3,16.4,17.7s-14.3-0.8-41.3,2.8s-34.3-5.2-43.4-3.5s-4.3,8.4-26.1,11.2c-21.8,2.8-16.9-2.6-24.2-4.3
		c-7.3-1.7,1.9,8-8.6,7.8c-10.6-0.2-25.5-0.4-31.3-5s-6,4.3-18.4,1.7s-21.2,2.6-23.3,0.2c-2.2-2.4,0.4-11.9-7.6-13.2
		c-8-1.3-20.5,3.5-27.9-5.2c-7.3-8.6-0.9-17.9-10.8-21.4s-12.1,4.5-19,8.2c-6.9,3.7-11-1.7-15.1,2.6s-6.7,6-11,2.4
		c-4.3-3.7-10.4-8.9-7.3-15.8c3-6.9-8.2-1.9-12.5-19.4c-4.3-17.5-16.2-19.7-15.8-29.2c0.4-9.5,7.3-78.6,18.1-126.8
		c10.8-48.2,31.8-129.8,33.7-143.7s1.3-17.6,4.5-22.4s7.9-14.2,11.4-13.5c3.5,0.6,8.9,1.4,12.3,0.1c3.5-1.3-2.2,11.6-5.4,15.2
		s-13,6.3-18.2,6.2c-5.2-0.1,12.2-17.4,6.5-20.9c-5.6-3.6-5.4-4.4-5-7.3c0.4-2.9,4.1,4.4-2.5,8.4c-6.6,4.1-7-2.3-6.4-8.7
		c0.6-6.4,0.4-15.2-1.1-22c-1.5-6.7-2-21,0.9-19c2.9,1.9,9.2,14.3,14.2,12.7s5.2-4.1,5.6-0.4c0.4,3.7-5.5,6.9-9.5,12.7
		c-4,5.8-3.9,17,3.6,20.1c7.5,3.1,0.1-11.2,5.9-43.9c5.8-32.6,6.3-48.5,6.2-59s4.1-32.7,5.5-43.2c1.5-10.5-6.2-20.1-5.8-32.9
		s-0.5-35.2-2.9-49.6s-5.3-36.8,0.6-49.1c4-8.3,12.4-13.3,20.9-15.6c5.6-1.5,12.5,0.6,8.2,2.5c-4,1.7-15,1.5-15.9,2.8
		c-1.1,1.7,5.3,11,11.5,21.1s12.9,33.5,15.5,42.7c2.6,9.2,0.4,44.8,1.1,54.9c0.7,10.1,2.3,28.8,2.2,38.8c-0.2,10-7.6,49.9-10.1,61.3
		c-2.5,11.4-7.5,22.8-11.9,32.2c-4.5,9.4-16.2,36.6-11.8,38.2s2.6-17.6,6.3-28.8c3.7-11.2,12.8-29.4,15.4-41.8
		c2.6-12.4,9.8-49.5,9.9-60.8c0.1-11.3,0.2-25.7,0.5-29.5s15.7-0.3,23.6-0.4s35,2.6,35.6-1.7c0.6-4.3-23.5-20.4-27.5-25.7
		s-8.7-27.7-12.4-37.5s-11.7-29.2-17.4-39c-5.7-9.8-20.1-27-16.7-29.4c1.3-0.9,4.3-2,5.8-2.4c10.3-2.9,14.7-14.3,13.4-24.1
		s-3.7-22.2-9.7-27.1c-6-4.9-24.1-8.1-25.6-13c-1.5-4.9,0.3-7.9,3.4-10.2c3.1-2.3,1.1-6.2,1.5-8.1s1-2.1,2.4-2.9
		c1.5-0.8,1-5.7,2.1-7.5c0.6-0.9-1.3-3.1-1.9-4.8c-0.6-1.5,0.1-2.5-2.5-2c-5.5,1.1-4.8,2.9-6.4,4.1c-1.6,1.1-7.1,0.1-6.9,2.3
		s1.9,3.5-0.2,6.9c-2,3.4-4.3,0.6-3.6,2.9c0.6,2.3,2.6,6.6-2.8,9.7c-5.4,3.2-20.7-7.1-26.7-9.7c-6-2.6-9.7,0.2-7,7
		c0,0,0.5,10.5,2.9,12.6c2.5,2.1,23.8,21.7,26.9,28.4c3.1,6.6-5.3,43.5-5.4,57c-0.2,13.4-3.6,17.8-2.8,21.6s2.9,11.3,2.6,17.7
		c-0.3,6.3-4.5,12.3-3.1,15.4c1.5,3.1,5.5,13.9,5.4,22.6c-0.1,8.7-0.3,18.1,1.6,22c1.9,4,2.7,30.2,2.4,38c-0.2,7.8-0.6,21,1.1,24.6
		s6.4,11,7.2,14.7c0.8,3.7-2.9,48.8-8.2,50.1c-5.3,1.3-13.9,4.6-17.5-2.3c-3.6-6.9-14.3-38.9-17.9-49.7c-3.7-10.8-14-46.1-16.6-60.8
		c-2.6-14.7-6.7-54.2-7.9-64.8c-1.2-10.6-3.1-45.5,5-72.9c8.1-27.4,33.2-48.3,37.6-45c4.4,3.2-37.3,23.9-44.9,61.2
		c-5.7,28.2-1.5,42.6-0.2,58.2s5.7,52,7.8,63.7c2.1,11.7,19,66.1,21.2,76.2c1.6,7-1.9,15.7-10.4,18.4c-18,5.7-61.1-1.6-68.5-4.3
		c-7.5-2.7-0.3-22.6,4.2-34.4s12.3-30.3,8.9-31c-4.5-1-10.6,60.6-18.7,62c-8.1,1.4-51.1-14.6-60.5-19.3c-9.4-4.8-20.6-11.6-20.6-8.4
		s29.7,8.3,41.8,13c12.1,4.6,31.7,10.4,47.7,14.5s45.2,9.5,65.1,5.7c5.5-1,10.5,1.2,10.7,4.5c0.5,9.2-1.6,54.8-6.3,72.8
		c-4.7,18-7.1,48.8-10.2,58.7c-3.1,9.9-3.1,30-8.4,43.7s-9.1,36.3-9.6,49.1c-0.5,12.8-9.2,42.3-12.2,53.3s-6,47.3-5.2,54.8
		c0.8,7.5-12.6,12.3-12.8,17.3c-0.2,5,4.1,16.5-5.5,20.4c0,0-12.4,4.8-24.7,4.1c-12.3-0.7-10.5-1.4-8.7-2.9
		c1.9-1.5,17.7,1.1,26.2-1.7c8.5-2.8,8.6-6.9,10.4-10.1c1.7-2.9,5-3.9,6.3-2.7c4.1,3.4,22.7,18.1,25.6,18.5
		c2.9,0.3,13.1,11.2,10.5,16.7c-2.6,5.5-31.1,16-52.5,19.4s-36,3.4-37.1-11.7c-1.1-15.1-1.6-25,4.5-25c6.2,0-1.5-7.5,0.3-15.9
		c1.8-8.4,4.5-8.9,1-15.8c-3.6-6.9-2.1-16.1,2.8-22c4.9-5.9,7.9-14.5,8-24.7c0.1-10.3,0.6-46.5,2.8-61.7c2.2-15.2,7.2-37.9,8.9-44.7
		s-0.3-18.5,6.8-30.2c7.1-11.8,0.3-13.4-1.6-18.8c-1.9-5.4-3.3-17.5-2.1-24.5c1.3-7,7.5-7.9,7.7-14.9c0.2-7-3.2-19.1-6.6-26.8
		s-5-29.9-5.1-41.3c-0.2-11.3-6.6-27.2-2.4-27.2c4.2,0,2.3,52.5,0.6,60.1s-11.3,14.7-13.4,20.4c-2.1,5.7-0.6,19-3.1,28
		c-2.4,9.1-4.7,7.5-4.7,13.6c0,6.2-4.1,20.3-9.6,28.5c-5.5,8.3-0.8,19.3-4.2,34.4c-3.4,15.1-5.3,7-4.9,16.6c0.5,9.6-1.9,23.3-3.1,31
		c-1.1,7.8-0.6,46.7-0.9,55.4c-0.3,8.7-0.6,23.8-5,31.2s-33.2,12-41.4,9.4c-8.2-2.6,42.7-10.3,39.5-5c-3.1,5.3-6.6,6.7-4.6,13
		c1.9,6.3,0.9,18-6.7,25.4c0,0-4.1,3.2-1.2,10.4c2.9,7.1,6.5,15.3,12.1,23.1c4.7,6.6,2.7,13.5-4.1,13.5S173.8,998.1,166.8,997.6z"/>
</g>
<g id="Layer_6">
</g>
<g id="Layer_7">
</g>
<g id="Layer_8">
</g>
<g id="Layer_9">
</g>
<g id="Layer_10">
</g>
<g id="Layer_11">
</g>
<g id="Layer_12">
</g>
</svg>
