<?xml version="1.0" encoding="utf-8"?>
<!-- Generator: Adobe Illustrator 24.1.2, SVG Export Plug-In . SVG Version: 6.00 Build 0)  -->
<svg version="1.1" xmlns="http://www.w3.org/2000/svg" xmlns:xlink="http://www.w3.org/1999/xlink" x="0px" y="0px"
	 viewBox="0 0 841.9 1190.6" style="enable-background:new 0 0 841.9 1190.6;" xml:space="preserve">
<style type="text/css">
	.st0{fill:none;stroke:#020203;stroke-width:1.5;stroke-miterlimit:10;}
</style>
<g id="Layer_1">
</g>
<g id="Layer_2">
</g>
<g id="Layer_3">
</g>
<g id="Layer_4">
</g>
<g id="Layer_5">
</g>
<g id="Layer_6">
</g>
<g id="Layer_7">
</g>
<g id="Layer_8">
</g>
<g id="Layer_9">
	<g>
		<path class="st0" d="M83.9,817.4c19.8-3.4,89.1-46.7,104.8-64.4s28.8-40.8,43.6-56.9c14.8-16.1,47.4-37.9,56.9-45.2
			c9.5-7.2,33.9-25.3,41.8-32.4s21.9-15.7,14.7-26.7s-12.4-14.8-21.3-10.3c-8.9,4.5-21.9,18-21.7,24.9c0.2,6.9,7.7,17,14,15.9
			c6.3-1,11.6-43.6,4.1-40.8c-7.5,2.8-38.2,16.2-45.2,20.4c-7,4.2-43.3,35.8-58.2,37.5c-14.9,1.7-39.8-0.7-40.5-18.5
			s26.8-31.3,38.4-34.1c11.5-2.8,43.1-8.4,48.5-8.4c5.4,0,26.3,6.5,37.3,1.5c11-5,15-14.8,15.1-16.7c0.1-1.8-27.7-5.7-29-3.7
			c-1.3,2,13.5,11.5,24.5,8.3s-24.8-9.2-31.6-10.6s-17.6-4.7-31.3,0.8c-13.7,5.4-57.2,31-53.6,34.5c1.8,1.7,13.2-9.7,29.3-19.8
			s36.9-18.9,45.1-20.9c16.4-4.1,58.3-11.5,71.3-17s24.3-18.3,25.4-25.8s4.7-7.8-3.5-8.1c-8.3-0.3-30.7,4.7-28.9,7.1
			c1.8,2.4,12.9,8.3,28.5,1.9c15.6-6.3-28.7-3.1-39.7-0.9c-11,2.1-42.7,7.6-50.6,9.1c-7.9,1.5-31.7,15.4-41.9,23.9
			s-21.8,14.6-28.5,21.9c-6.7,7.3-12.8,20.2-10.1,20.9c1.5,0.4,18.4-23.3,43.3-43c20.5-16.3,48.3-28.7,61.9-33.2
			c30.1-10,56.7-18.8,66.9-30c10.2-11.2,4.4-19.7,5.3-20.5s1.9-7.6-1.8-7.7c-3.7-0.2-33.9,8.1-33.6,12.5s21.8,8.8,32.9-2.2
			c11.2-11-29.4-1.8-48.4,4.9c-19,6.6-38.3,14.4-49,17.2c-10.7,2.8-27.5,11.6-33,18c-5.5,6.4-28.5,33.9-35.5,43.8
			s-24.1,44-20.8,44.9c1.9,0.5,13.3-28.7,36.7-60.2c16.1-21.7,44.8-47.2,52.1-53.3c17.9-14.8,36-30.6,41-41.2
			c5-10.6,6.6-17.4,4.5-20.7s1.9-9.2-3.7-7.6c-5.6,1.6-27.2,15.5-26.4,17.2c0.9,1.8,20.8-2.9,27.1-8c6.3-5.1-22.9,4.8-32.9,11.5
			c-10.1,6.7-22.3,14.2-28.1,17.8s-40.1,24.1-50,31.6c-9.9,7.6-34.5,40.6-46.1,51.5S115,555,110,560.7s-16.1,39.2-19.8,53.4
			s-19.5,51.5-26.4,66.8s-20.5,42.9-36.7,57.7"/>
		<path class="st0" d="M814.8,560.8c-18.3-15.6-51.1-57.5-72.5-97.5c-21.4-40.1-41.9-89.4-71.4-90c-29.5-0.6-12.7,6.3-61.5,7
			c-48.8,0.8-77.2-1.8-89.4,3.7c-12.2,5.5-29.4,24.2-52.6,35.3c-23.2,11.2,31.4-9.2,46.2-14.5c14.8-5.4,30.1-7.4,56.2-9.6
			c26-2.2,53.9,1.3,55.1-2.8c0.8-2.4-68.1,3.8-121.9,16.2c-35.2,8.1-61.6,23.3-66.4,25c-12,4.5-25.6,11-24.6,13.8
			c0.9,2.8,8.5,4.2,16.6-1c8.1-5.3,8.6-8.6,7.7-10.4c-0.9-1.8-27.2,9.3-26.6,17.5c0.6,8.3,8.9,15.3,23.7,14
			c14.8-1.3,12.4,1.2,13.3,4.1c0.9,2.9,4.9,23.7,3.5,26.3c-1.4,2.6-5.3,3.4-8.4,5.7c-3,2.2-4.7,0.2-5.8-2.2
			c-3.5-7.5-5.2-21.4-5-25.9s2-7.9,4.9-6.9c2.9,0.9,7.6,29.1,4.8,31.9c-6.9,6.6-28.9,9.6-36.4,2.7c-7.5-7-3.2-21.2,5.4-30.6
			c8.6-9.5,27.4-4.4,44.3-5.9c16.9-1.5,43.1-8.2,55.5-11.7s27.6-6.4,41.4-5.8c13.8,0.6,69.6,3,69.5,6.5s-32.1-7.6-72.7-7.9
			c-40.6-0.3-66.7,15.5-74.8,22.1c-8.1,6.6-23.4,22.1-23.2,23.5c0.3,2.6,0,6.7,1.5,7.9c2,1.5,15.2-0.1,16.4-1.2
			c1.5-1.4-1.2-21.3,2-25.4c3.2-4.1,13.2-11.9,36.7-17.1c23.6-5.3,25.9-6.5,23.8-4.5s-16.2,12-18.2,16.3c-1.9,4.2-1.7,32.5-3.4,33.9
			c-8.3,6.8-37.2-7-38.9-2.4c-0.6,1.6,50,4.2,52.9,3.6c3.1-0.7,0.8-31.8,3.9-36.1c3.1-4.2,14-9.3,19.3-9.4c5.2-0.1,24.4,4,34.3,13.2
			c9.9,9.3,9.3,15.5,14.4,20.1c5.1,4.6,15.4,7.1,15.9,12.4s-7.2,18.7-23.9,18s-53-16-63.4-18.2s-58.9-8.8-70.7-4.6
			s-15.9,10.7-17.3,17.5s1.1,16.5,11.2,21.8c10.1,5.3,26.7,10.9,36.1-2.3c9.4-13.2-8.3-28.1-13.8-30.6c-5.6-2.5-16.1-6.9-24.9,9.2
			c-8.8,16.1,6.6,24.9,20.5,32.3c13.8,7.3,27.5,17.7,34,19.4c6.5,1.8,41.1,9.6,53.9,14.1c12.8,4.4,38.4,17.7,45.2,22.9
			s18.1,14.4,28.7,20.3s18,12.9,30.2,16.8c12.2,3.9,28.6,10,46.3,14.2c17.7,4.2,75.4,16.3,88.3,18.7"/>
	</g>
</g>
<g id="Layer_10">
</g>
<g id="Layer_11">
</g>
<g id="Layer_12">
</g>
</svg>
