<?xml version="1.0" encoding="utf-8"?>
<!-- Generator: Adobe Illustrator 24.1.2, SVG Export Plug-In . SVG Version: 6.00 Build 0)  -->
<svg version="1.1" xmlns="http://www.w3.org/2000/svg" xmlns:xlink="http://www.w3.org/1999/xlink" x="0px" y="0px"
	 viewBox="0 0 841.9 1190.6" style="enable-background:new 0 0 841.9 1190.6;" xml:space="preserve">
<style type="text/css">
	.st0{fill:none;stroke:#020203;stroke-width:1.5;stroke-miterlimit:10;}
</style>
<g id="Layer_1">
</g>
<g id="Layer_2">
	<path class="st0" d="M368.2,261.4c-3.4-3.6-12.5-10.9-18.9-16.6c-7.4-6.6-3.6-8.4-5.1-9.4c-1.4-1-3.3,2-4.2,8.2s5,17.3,7.4,26.3
		c2.5,9,17.1,51.8,16,45.8c-1.2-6,0.7-26.4,2.9-32.5c2.2-6.1,8.8-5.9,8.5-10.2c-0.3-4.3-8-1.4-10.2-2.7c-2.2-1.3-5.2-7.6,0.3-5.7
		c5.5,1.9,13.9-2.4,15.2-1.1s0.6,6.3-3.5,7.8c-4.1,1.5-9-2.3-9.7,3.3c-0.7,5.6,7.2,2.9,10.9,8.6c3.7,5.7,5.6,17,6.9,26.6
		c1.3,9.6-6.9,30.8-11.3,30.3c-4.4-0.5-5.6-11.8-15.7-31.8c-10.1-19.9-15.6-51.2-13-43.9c2.5,7.3,7.2,66.7,8,90.1
		c0.8,23.4-6.8,55.4-12.4,66.9c-5.6,11.4-23.8,18.6-24.6,21s19.3,5.8,27.4,8.5c5.9,1.9,22.7-5.5,22.7-14.2c0-1.2-1.5-3.6-1.7,2.3
		c-0.2,4.9-6.8,53.3-11.4,65.6c-4.5,11.9-13.5,45.3-14.1,60.3s-2.3,42.1-4.2,55.6S325.7,639,329,639c3.3,0,7.3-68.1,7.6-74.2
		c0.3-6.1,7.4-43.5,8.9-40.5c1.5,3,2.5,32.2,1.9,46s-3.2,29-2.1,37.8c1.1,8.8,6.6,16,3.9,17.7c-2.8,1.7-3.8-13.8-2.6-25.7
		c1.2-11.8,4.3-39.7,3.2-50.9c-1.1-11.2-0.3-29.6,4.1-41.6c6.2-16.8,10.5-46.1,11.3-54.2c0.8-8.1,1.5-17.1,3.6-19.5
		c5.4-6.2,30.8,15.3,29.5,20.1c-1.3,4.8-15.2,5.6-15.4-1.2c-0.3-6.8-11.4-20.1-13.2-26.1c-1.7-6-0.5-45.5-0.9-61.6s4.1-21.8,10.5-27
		s5.3-35.4,10.8-47.2c5.5-11.8,33-5.1,29.9,3.2c-3.1,8.2,7.1,74.5,4.4,71.4c-2.7-3.1,2.3-35.1-3.4-61.5
		c-5.7-26.4-17.2-36.3-21.4-40.1c-4.3-3.7,7.9,0.5,12.8,10.8c4.9,10.3-14.7,15.6-6.9,10.3c7.8-5.3,7.1,2.7,7.1,14.5
		s-4.4,76.9-8,90.8c-3.5,13.8,0,86-0.2,97.8s-1.2,15.4-2.1-0.4c-0.9-15.8-0.9-57.6-1.2-82.1c-0.4-24.5-2.6-83.7-5.2-100.6
		s-5.6-29.4-7.4-34.2c-1.8-4.8-3.1-16.6-1.8-14.8s0.3,21.9-0.3,21.3s-2.6-6.5-5.2-9.9s-12.1-3.8-8.7-5.5c3.4-1.7,12.1-13,13.2-13.7
		c1.2-0.7,0.4,3.5,0.8,5.9c0.4,2.5,30.4,14.1,37.3,16.4s7.7,1.6,8.4,6.6s1.7,12.4,5.7,49.1c4,36.7,12.8,33.8,7.9,34.4
		c-4.8,0.6-17.3,3.8-22.5,12.1c-7.6,12-7.8,30.9-7.8,37.6c0,11.1,12.4,23.8,12.6,28.2c0.2,4.4-4.8,16.7-4.6,27.1
		c0.2,10.5-3.6,26.7-9.4,34.8c-5.7,8.1-2.1,8.9-4.1,5.1s-2.8-13.7,0-21.8c2.8-8.1,8.6-19.8,8.1-48.8s1.2-51.8,9.1-61.8
		c4.4-5.5,8.9-5.9,13.3-5.6c4.4,0.4,5.1-4.4,18.8-4.7c20.3-0.5,26.7,13.3,31.8,26.7c6.6,17.5,3.8,31.7,0,39.1
		c-5.7,11.2,4,29,14.9,33.1c10.9,4.1,5.8-0.1,3.5-8c-2.4-7.8-0.8-25.9-5.8-34.3c-5.1-8.4-7.2-21.3-13.4-37.2
		c-6.2-16-18.7-21.8-31-21.5c-12.2,0.3-15.2,5.7-18.7,5.2c-3.6-0.5-9.4-0.3-15.1,7.1c-5.5,7.2-8.3,23.7-7.8,37.4s30.3,47.1,27,60.4
		c-3.3,13.3-23.8,37.5-22.7,47.6c1.1,10.1-0.3,11.8-2.5,1.2c-2.3-10.6,9-22.3,7.8-33.8c-1.2-11.4-2.7-26.6,1.6-37.8
		s0.5-32.5,1.7-24.5c1.2,7.9,14.2,20,17.1,22.2c2.9,2.3,6,1.3,8.8,0.8c2.7-0.5,4.5,3.8,5,11.2c0.5,7.4-2.7,7.4-4,9.3
		c-1.9,2.7-5,10.1-6.2,13.9c-1.2,3.8-4.4,7.4-6.1,7.9c-1.6,0.6,3.9-6,4.7-8.6c1.1-3.3,6-11.3,8.2-10.1c2,1,2.6,4.4,7.1,4.9
		c7.2,0.8,20.3-2.2,27.7-5.2c7.4-3,14.7,0.3,8,0.8s-14.6-12.3-16-20.3c-1.5-8-8.3-38.6-6.4-35.3s1.4,13.1-5.1,20.6
		c-6.5,7.4-18.8,11-22.4,10.1s-10.5-8.7-15.4-14.7c-4.9-6-4.5-12.1-4.3-17.4c0.2-5.3-3.3-3-2.9-16.9c0.4-13.9,10.6-17.9,14.4-18.8
		c3.7-0.9,8.4,4.9,12.5,13.8c4.1,9,8.9,17.8,20.4,19.2c10,1.3,18.3,9.9,15.7,6.4c-2.6-3.5-4.8-2.3-6.2,1c-1.4,3.3-0.3,17.9,0.7,24
		c1,6.1,4.5,15.4,9.9,18.5c5.4,3.1,18.1,3.5,20.7,3.5s-3.9-5.4-4.5-8.3c-0.7-2.9,27.6-2.3,44.7-1.9c16.2,0.4,35.6,4.9,42.4,9.3
		c6.8,4.4,1.5,12.2,9,15.3c7.6,3.1,17.5,0.9,17.9-1.6s-8.1-2.4-14.1-4.4s-2.3-7.7-15.9-15.2s-48-6.7-60.1-7.1
		c-10.8-0.4-23.8,2-25.4-0.5c-1.6-2.5,16.9-7.2,57.8-2.4c40.9,4.8,39.4,18.6,44.8,21.6c5.5,3,15.3,4.4,16.8,6.2s0,5.8-5.8,6.7
		c-5.8,0.9-11.9,10.5-15.4,20.2c-3.5,9.7-8.3,44-10.1,56.9c-1.8,12.9-5.1,36.5-5.1,30.8c0-5.7,20.1-3.3,22.1-6.5
		c1.9-3.2,4.7-24.1,6.1-35.4c1.4-11.4,0.9-29.6,2.1-41.1c1.2-11.5,6.3-29.2,6.1-25.7c-0.2,3.5-4.5,58.6-7.2,77.1
		s-22.2,142.7-19.5,142.7c2.7,0,9.7-62.3,10.4-70.1c0.7-7.8-1.4-41.9,0.6-43.4c1.9-1.5,1,8.5-1.7,14.8s-15.6,13.3-23.1,16.6
		c-7.5,3.3-8.2,2.9-8.2,25.6c0,9.7,6.3,8,6.4-3.3s-0.4-19.6-3.5-18.7c-3,0.9-4.5-4.1-2.6-8.7c1.9-4.6,9.5-2.9,15.8-5.8
		s15.5-13.5,13.7-17s-19.5,1.9-24.3,3.8c-4.8,1.9-8.6,4.9-13.9,11.3c-5.3,6.4,2.1,16.7,4.6,16.7s1.3-6,1.3-9.1
		c0-3.1-1.5-5.4-4.3-3.6c-2.8,1.8,0.4,13.3-3,12.9c-3.4-0.4-2.2-10.2-1.2-13c1-2.8-8.6-10.7-15.9-14.9c-11.7-6.8-15.7-5.9-20.2,2.1
		c-5.7,10.1-26.5,13.3-38,15.3c-11.4,2-44.4,3.5-45.5,2.1c-1.9-2.6,0.6-4.7,1.1-11.4s-1.6-10.4-2.7-12.1c-1-1.7-4.7,1.3-6.6,1.5
		c-1.9,0.2-5.4,0.4-9.1-1.1s-5.1-2.2-9.9-5.8c-4.8-3.6-7.7-3.1-9.7-5c-2-1.9,0.4-14.7,2-19.5c1.6-4.8,9-12.9,9.5-18.2
		c0.5-5.3-7.8-14.2-10.4-21.9s6.8-23,5.7-24.3c-1.1-1.3-7.6,12.4-11.7,23.4c-4.1,11-13.5,29.4-16.3,38.2c-2.7,8.8-2.3,17-2.6,23.6
		c-0.3,6.6,1.1,14.7-1.4,17c-2.5,2.3-5.3,4-5.6,1.7s8.2-12,18.1-16.4c9.9-4.3,18.2-0.6,22.4,3.1c4.2,3.7,11.2,6.6,17.3,6.6
		c6.1,0.1,64.7-12.2,67.7-17.2c3-5,0.4-31-0.6-40.6c-1.1-9.6-1.6-48.7-5-41.3c-1.8,3.9,4.4,15.9,5.8,25.1c1.3,9.2,5.3,52.6,1.2,58.6
		c-4.1,6-34.6,12.1-49.4,14.4s-14.9-3.1-14.9,1.4s2.3-18.5,0.1-30.2c-2.3-11.7-8.9-18.2-15.6-26.2c-6.6-8-5.3-11.8-2.8-23.1
		c2.5-11.3,12.8-21.9,17.1-24.3s7.3,5.2,6.8,7.7s-9.4,9-7.2,12.9c2.3,3.9,2,11.6,1.6,19c-0.4,7.4,10.1,18.7,9.6,14.9
		c-0.5-3.9-1.9-11.7-0.7-25.3c1.2-13.6,6.9-21,15.3-21.9c8.4-0.9,39-30.9,48.2-33c9.2-2.1,18.6,5,20.5,11.3s-1.3,53.5-1.9,63.6
		c-0.5,10.1-0.4,49-4.2,56.7c-3.7,7.7-24.2,12.3-37.6,14.3c-13.4,1.9-38.6,1.9-43.6,2.1c-5,0.2-5-18.2-3.1-18.1s2.2,17.2-1.3,17.5
		c-3.5,0.3-13.8,1.1-19.1-0.7c-5.3-1.8-13.6-10.1-11.7-8.6s2.2,10.4-1,10s-8.6-10.9-5.8-10.6c2.7,0.3,2.4,9.6-1.9,9.7
		c-4.3,0.2-6.1-11.1-4.4-7.6c1.7,3.5-2.4,5.3-4.6,2.8c-2.2-2.5-6.9-8.8-5.9-8.1c1,0.7-0.3,5.1-4.3,6.2c-4,1.1-3.3-5.5-5.4-0.8
		s-22.8,17.1-49.2,32.9c-26.4,15.8-33.5,23.9-50.9,41.7s-46.8,58.1-59.6,71.3c-12.8,13.1-27.1,2.8-56.5,2.5s-72.3,18.8-65.6,34.7
		c6.7,16,54.2,0.4,108.5-21.3c54.2-21.6,100-108.5,102.5-98.6s-29.4,54.2-74.1,89.7c-44.7,35.5-140.4,61.3-150,65.2
		s-20.2,35.8,6,34.7c26.2-1.1,74.4-39.4,126.9-69.1s135.1-157,123.4-151c-11.7,6-34.4,48.2-43.6,72.3
		c-9.2,24.1-54.6,86.9-86.5,100.3c-31.9,13.5-106,54.2-120.2,64.2s-2.4,41.8,12.8,34.4S142.9,873,212.1,828s179-207,160.2-207
		S303.2,728,272,775.1c-31.2,47.1-80.8,103.9-113.8,128s11.7,44.7,33.7,44.7s78-64.5,115.9-127.6s89.7-216.6,80.1-197.5
		c-9.6,19.1-89.7,344.6-115.9,344.6s-42.5-19.9,0-19.9s20.4,51.4,4.4,51.4c-16,0,10.1-24.7,29.8-50.8
		c19.7-26.1,54.2-137.7,69.1-197.3c14.9-59.6,10.1-126.8,29.5-126.8s11.4,181.3,13.6,225.2c2.1,43.9-86.5,153.8-73.7,154.8
		c12.8,1.1,36.9-8.2,58.1-45.6s17.2-58.1,25-99.3c7.8-41.1,18.1-93.4,21.4-115.7c3.4-22.3,15.4-126.2,9.4-126.2
		c-6,0-3.7,224.9,0.5,263.9c4.3,39,2.1,85.1,27.7,85.1c25.5,0,26.6-14.9,16.7-47.1c-9.9-32.3-17.4-136.5-18.6-160.8
		c-1.2-24.3,3.4-62,1.2-89.7c-2.1-27.7-13.6-51-6.4-51c7.3,0-17.4,91.3-20.6,133.1c-3.2,41.8-29.1,164.5-38.1,196
		c-9,31.6-20.4,81.8-6.6,81.7s16.7-20.4,36.2-18.9s11.2,20,26.2,20.4s16.3-8,31.7-9.6s16.7,8.3,22.5,8.1c5.8-0.2,4.3-25.5,3.9-56.3
		c-0.4-30.8-32.3-186.1-35-201.5s-3.7-57.8-4.7-82.3c-0.9-24.5-5.6-59.4-7.7-65.7c-2.1-6.2,8.2-6.8,8,2.9s9.2,60.6,14.5,98.4
		c5.3,37.8,12,228.7,23.9,228.7c12,0,9.6-182.7-3.2-182.4s12.2,138.5,17.3,168c5.1,29.5,33.8,76,55,83c21.3,6.9,52.6-2.7,61.2-5.6
		s-9-21.3-23.9-38.8s-50.5-98.4-64.1-135.1c-13.6-36.7-27.9-86.1-38-130s-18.1-87.5-20.7-94.4c-2.7-6.9,1.9-10.1,4.5-7.2
		c2.7,2.9,21.5,58.5,36.2,105.8s33.8,95.5,76.6,142.8c42.8,47.3,84.2,139.1,95,140.7c10.8,1.6,37.2,2.1,37.2-34.6
		c0-36.7-40.2-83-58-99.4s-75.2-85.6-89-109.9s-28.5-69.7-35.6-83.8s-35.5-57.5-43.8-63.5c-8-5.7-5.2-16.3,1.6-16
		c7.6,0.4,26.6,12.9,24.6,18.1s-2.5,19.1,10.3,33.7c12.8,14.5,14,27,18.8,47s62.7,96.8,85.3,125c22.6,28.2,39.9,46.3,69.5,73.6
		c29.6,27.4,45.6,123.4-6.7,136.7c-52.4,13.3-134.8,16-143.8,5.6c-9-10.4-18.9-13-27.4-6.1c-8.5,6.9-28.7,8-56.4,5.8
		c-27.7-2.1-78.2,9.3-130,9.3s-76.7-33-59.6-34.2s26.5-26.2,12-26.2s-32.6,31.2-60.4,31.2c-27.8,0-28.1-28.4-28.1-31.9
		c0-3.5-16.5-10.1-21.8-11.6s-9.2,7-14.2,7s-15.7-4.3-24.3-9.6c-8.6-5.3-13-0.9-24.9-7.3s-17.3-19.3-25-19c-7.7,0.3-19.3,3.1-34.9-4
		s-47.9-33-40.8-95.7s37.4-85.3,65.8-91.1c28.4-5.8,78.8-3.3,94.3-4.6c7.2-0.6,13.8-2.5,24.1-15.8c10.3-13.3,33-34.9,35.8-57.4
		c1.3-10.1,4.4-38.3,5.1-67.9c0.9-36.6-0.7-75.2-0.8-82c-0.2-12.2-1.1-41.5-0.2-46.2c0.9-4.7,7.4-12.3,14.1-16.4
		c6.6-4.1,10.2-8.9,11.3-14.5c1.2-5.7,10.9-9.1,19.9-17.8c9-8.7,14.4-30.6,14.1-37.1c-0.3-6.5-3.5-30.2-7-45.8
		c-3.5-15.6-17.3-52.7-18.5-56.8c-1.2-4.1,19.9-3.2,19.9,0.5s-18.6,2.7-20.7-4.5c-2.1-7.2-7.1-14.1-7.3-19.5
		c-0.2-5.4,30.6-22.9,19-13.1c-11.6,9.9-49.5,16-44.7,14s7,11.6,9.1,27.1c2.1,15.4,1.6,47.3,0.7,57.6c-0.9,10.2-11.2,29.5-11.7,34.7
		c-0.5,5.2,6.8,13.2,10.9,23.3c4.1,10.1,6.5,28.7,6,34.3s10.5,5.3,9.7,2c-0.7-3.3-11.9,3.2-17.6,4.3s-13.4,7.9-13.8,11.6
		c-0.4,3.7,4.4,11.5,6.1,11.1c1.7-0.4,1.2-4.8,5.7-10.9s11.3-4.9,11.7-6.2c0.4-1.3,0.8-5.1-0.7-4.6c-1.5,0.4-6.5-1.3-12.1,1.9
		c-5.7,3.2-13.2,13.8-15,13.6c-1.8-0.3-5.2-10.3-8.2-20.8s-8.2-29.3-10.9-43.4c-2.7-14.1-0.4-32.1,0.1-47.9
		c0.5-15.8,4.3-24,4.9-28.5c0.5-4.5,4.8-24.6,9.7-33.7c5-9,5.8-26.2,9.9-26.1s12.6-1.9,26.2-5.8c13.6-4,17.7-7.1,28.2-13.3
		s9.5-20.3,9.8-26.9c0.1-3.1,0.9-9.8,0.2-16.9c-0.8-8.1-3.1-16.7-3.6-20c-1-6.2,0.7-14,6.5-19.5c5.8-5.5,17.7-10.6,28.9-10.5
		s9.4,4.5,12.8,4.6c3.4,0.1,5.5-0.7,13.6,6.1s7.8,16.3,7.4,22.2c-0.4,5.8-4,11.1-6.1,14.7c-2.1,3.6-2.6,7.1-3.2,12.6
		c-0.6,5.5-20.8,29.8-16.4,27.3c2.1-1.2,11.1-14.4,12.4-17.2c1.9-4.3,3-16.4,2.3-20.3c-0.7-3.8-2.7-7.3-9.7-7.3s-29.9-5.1-34.2-6.2
		c-4.3-1.1-5.1,0.9-7.5,7.7c-2.4,6.8-1.9,19.3-5,19.3s-5.6-8.3-5.6-10.8s0.2-11.7,4.1-11.7c3.9,0,4.7,6.3,4.3,9.9
		c-0.4,3.6,1.3,19.4,3.9,25.4c2.6,6,11.7,12.9,17.9,13.7c6.3,0.8,14.4-2.1,14.7-0.4c0.3,1.8,0.7,5.6,0.4,6.6
		c-0.3,0.8-11.4,15.2-15.1,16.6c-2.7,1-20.1,13.4-19.4,15.3C351.6,279.7,369.8,263.1,368.2,261.4z"/>
</g>
<g id="Layer_3">
</g>
<g id="Layer_4">
</g>
<g id="Layer_5">
</g>
<g id="Layer_6">
</g>
<g id="Layer_7">
</g>
<g id="Layer_8">
</g>
<g id="Layer_9">
</g>
<g id="Layer_10">
</g>
<g id="Layer_11">
</g>
<g id="Layer_12">
</g>
</svg>
