<?xml version="1.0" encoding="utf-8"?>
<!-- Generator: Adobe Illustrator 24.1.2, SVG Export Plug-In . SVG Version: 6.00 Build 0)  -->
<svg version="1.1" xmlns="http://www.w3.org/2000/svg" xmlns:xlink="http://www.w3.org/1999/xlink" x="0px" y="0px"
	 viewBox="0 0 841.9 1190.6" style="enable-background:new 0 0 841.9 1190.6;" xml:space="preserve">
<style type="text/css">
	.st0{fill:none;stroke:#020203;stroke-width:1.5;stroke-miterlimit:10;}
</style>
<g id="Layer_1">
</g>
<g id="Layer_2">
</g>
<g id="Layer_3">
</g>
<g id="Layer_4">
</g>
<g id="Layer_5">
</g>
<g id="Layer_6">
	<path class="st0" d="M246.2,999.2c0,0-7.4-44.6-9-73.3c-1.6-28.6,1.1-46.9,1.6-65.6c0.5-18.7-2.3-31.3,2.7-46
		c5-14.6,5.2-17.6,1.4-30.4c-3.8-12.8,3.8-38.3-1.4-50.5s-2.2-26.4-7.6-33.4c-3.9-5-7.7-14.4-10.2-22.2c-1.5-4.8,1.3-8.1,6.3-7.1
		c11.4,2.2,29.1,2.2,45.8,2.9c21.9,0.9,61.3-10.1,61.3-6.8c0,2.3-41.5,10.6-60.9,9.9c-17.2-0.6-43.8,0.2-51.3-2.5
		c-1.1-0.4-4.2-0.1-4.7-6.4c-1.1-11.9,0-36.8,1.4-47.1c1.8-13.3,9.8-56.2,13.5-56.3s-18.2,66.8-20,79.1c-1.9,12.3,0,22.2-1.6,23.1
		c-1.6,0.8-6.4-7-6.2-11.7c0.3-4.7,5.2-30.8,6.1-40.9c0.9-10.1,2-38.2,3.6-47.9c1.6-9.7,8.5-43.2,6.7-54
		c-1.8-10.8-10.6-41.4-11.2-55.7c-0.6-14.3-4.5-29.5-3.9-39c0.6-9.5,4.3-40.3,9.1-53.9c4.8-13.5,25.6-38.9,27.5-43.5
		c1.9-4.6,16.8,8.5,23.1,17.6c6.3,9.1,6.8,11.7,11.6,12c4.8,0.3,6.3,1.6,6,5.1c-0.3,3.5,2.2,9.8,12.9,20.4
		c10.7,10.6,27.8,33,32.5,42.1c4.6,9.1,13.8,28.4,16.1,29.3c2.4,0.9-0.2-25.5-14.4-48.5c-6.1-9.9-21.8-33.2-27.3-41
		c-5.4-7.8,2.5-15.6,3.9-13.1c1.4,2.5-2.8,12.8-7.9,5.7c-5.1-7.2-46-50.3-47-48.1c-1,2.2-10,14.9-7.9,15.9c1.4,0.7,6.6-9.8,9.3-15.3
		c0.9-1.8,0.6-4.2,4.7-1.3c9.7,7,40.3,26.7,39,28.9c-1.9,3.1-29.2-22.1-34.4-26.5c-1.5-1.3-2.7-2.3-3.7-3.2
		c-3.4-3.3-2.6-3.8-2.5-6.2c0.1-2.4-0.4-5.2-0.9-7.5c-0.8-3.8-6.4-10.2-7.5-14.9c-1.1-4.7-4.2-9.6-5-20.5s-4.4-33.1,7-44
		c13-12.5,25.4-16.8,41.1-15.2c10.1,1,21.9,6.5,28.9,12.9c5.6,5.1,7,21.5-5,24.2s-25-5.7-28.8-3.8c-3.8,1.9-5.6,8.6-9.7,9.9
		c-4.1,1.3,4.1,8.4,3.1,17.6s0.9,18.8-1,19.9c-1.9,1.2-4.8,0.9-6.1-3.3c-1.3-4.2-12.6-14.1-18.9-12c-6.3,2.1-6.2,6.2-7,2.4
		c-0.8-3.8-6.3-33.5,0.8-45.8c4.9-8.5,21.2-19.6,36.3-20.4s36.5,11,42.4,18.6c5.6,7.3,6.9,10.5,9.2,19.4c2.4,8.9,3.5,17.2,2.1,20.2
		c-1.4,3-3.4,3.7-3.7,8.2c-0.2,4.5-1,12.5,0.2,15.2c1.1,2.6,2.5,7.4,0,9c-1.8,1.1-1.6,2.3-1.7,4.2c-0.2,2.1-0.1,4.2,0.4,6.3v0
		c1.7,10.5-4.3,16.4-1.9,21.3c2.4,4.9,10.4,5.2,24.2-0.3c13.8-5.6,28,7.7,40,19.8s4.5,28.9,4.7,35.4c0.3,6.5,11.5,18.3,16.1,26.5
		c4.6,8.2,2.9,11.3,5,15.5s10.5,4.1,11-2.5c0.5-6.6-6.3-16.4-10-21c-3.6-4.6-9.6-10.7-12.8-15.7s4.1-9.3,3.4-15.9
		c-0.7-6.6-3.7-8.1-6.7-13.1c-3-5-0.2-9.2-2.6-12.9c-2.5-3.7-1.7-7.4-2.1-11.5c-0.4-4.1-5.1-6.6-11.3-7.7c-6.3-1.1-10.4-9-14-12
		c-3.6-3-10.6-2.3-13.6-1.9c-3,0.4-2.4-5.3-6.4-8c-4.2-2.8-24.2-1.7-24.4,5.1c0,1.4-0.6,3.5-1.2,4.8c-1.2,2.2,2.5,8.6-2.8,11.7
		c-5.3,3.2-14.7,5.6-22.8,4.2c-8.1-1.4-6.4,18.6-2.7,22.3c1.3,1.3,3.2,2.3,5.3,2.9c2.9,0.8,8.2,26.7,10.5,29.6
		c2.3,2.9,6.5,9.1,8.6,13.2c2.1,4.1,6.3,9.8,11.8,12.7c5.6,2.9,9.9,8.1,13.5,11.4c3.6,3.3,10.7,2.5,14.8-0.8s15-19,15.9-27.9
		c0.8-8.9,1.4-18.6-1.3-16.6c-1.2,0.8,0.5,8.5-1.9,17.2c-4.1,14.8-12.3,26.8-10.7,29.5c2.9,4.6,6.1,10.7,6.9,15.8
		c0.8,5.1-0.9,9.1-2.9,10.7c-1.9,1.6,0.1,4.1,0.3,8.1c0.3,4.1,1.2,9.9-0.8,10.7c-2,0.8-0.2-6.8-4.6-6.6s-1.8-4.2-4.5-4.2
		s-4.3,3.5-6.5,2.2c-2.2-1.3-4.4-21.1-5.3-28.6c-0.9-7.4,0.1-7.8-4.1-11.4c-4.2-3.6-6.8-6.4-6.1-5.1c0.7,1.4,4.3,10.1,5.7,14.2
		s3.9,17.6,5.1,21.6c1.3,4,2.6,10.4,1.2,10.5c-3.8,0.1-6.9-32.3-23.2-55.1c-14.9-21-19.9-27.2-19-41.3c0.3-4.7,3.2-8.9,7.6-10.7
		c1-0.4,2-0.9,3.1-1.5c8.1-4.8,17.4-11.7,24.1-6.5c6.8,5.2,10.5,8.9,16.9,8.1s6.4,12.6,10.9,12.1c4.5-0.6,6.8-10.3,14.1-8.2
		c7.3,2,2,8.7,3.4,13.1c1.4,4.4,5,15.5,10.9,24.9c6,9.4,12.7,20.3,20.8,26.8c8.1,6.5,19.1,21.2,23.8,32.8
		c4.7,11.6,5.9,22.6,5.5,29.5c-0.4,6.9,8.7,56.6,11.5,72.5c2.8,15.9,10.7,43.7-1.5,46.5C452,593,456,589,445.9,589
		s-35.7-2.1-46.1-7.9c-10.4-5.7-23.2-9.9-30.4-9.7c-7.2,0.2-10.7-0.3-15.2-3.4c-4.5-3-7.1-8.5-5.3-9.1c1.8-0.7,11-2.9,11-0.8
		c0,2.1-9.9-1.4-9.6-3c0.3-1.7-1.5-5.5-0.3-7.7c1.1-2.1,6-0.5,8.1-2.1s2.1-5.8,3.5-5.2c1.4,0.6-0.2,10.4,3.2,10.3
		c3.4-0.1,4.1-7.4,3.8-9.2c-0.3-1.8,0.8,3.4,7.3,4.5c6.4,1.1,11.3,4.6,21.9,6.5c10.6,1.9,17.6,2.5,23.7,1c6.1-1.4,12.3-4.3,19.6-3.6
		c7.3,0.7,10.7,9.8,12.3,6.5c1.6-3.3-8.5-1.4-15.8-5c-7.3-3.5-46.1-13.9-46.5-9.5c-0.5,4.4,38.3,1.4,49.4-0.8
		c11-2.1,30.5-8.1,31.1-14.5c0.3-3.8-6.5-0.7-12.6,1.3c-4.3,1.4-7.9,1.4-10.1,1.5c-5.3,0.3,13.3-6.4,19.1-10.1s10.4-8.5,10.1-11.6
		c-0.3-3-6.9,1.1-11.9,4.5c-5,3.4-17.7,4.4-17.2,6.1c0.5,1.7,12.2-4,15.6-8.1c3.5-4.1,11.7-8.8,11.7-12s-4.7-3.2-7.6-0.9
		c-2.9,2.3-7.4,4.5-12.1,6.7c-4.7,2.2-7.6,1.9-7.1,0.9c0.5-0.9,9.5-8.7,13.3-10.1c3.8-1.4,6.7-3.7,7-5.7c0.3-1.9-3.7-4-8.7-2
		c-5,2-10.8,5.3-19,7.9c-8.2,2.5-22.4-2.3-22.6,0.3s10.6-1.7,15.7-8.5c5.2-6.8,3.3-12.2,0.8-13.8s-7.5,6.6-13.8,9.8
		c-6.3,3.2-11.8,4.2-14.7,7.6s-6.2,6.8-7.1,10.2s-0.9,3.4,0.1,8.3s1.9,5.4,1.1,13.2c-0.8,7.8-9.9,20.5-18,22s-12.3-2-13.8-3.9
		c-1.5-1.9-0.1-8,3.8-9.1c3.9-1.1,5.1-7.1,3-11c-2.1-3.9-7.1-3.4-7.9-9.9s-0.2-10.6,6.3-13.5c6.4-2.8,8.1-10.4,11.6-7.7
		c3.5,2.7,11.1,5.1,12.6,9.6c1.5,4.5-17.7-8-14.6-13.5c3-5.5,8.3-7.5,12.3-0.8c3.9,6.8-14.1,10.4-17.2,1.9s6.1-9.5,10.9-15.8
		s6-10.4,1.5-13.7c-4.5-3.4-14.1,0.2-13.7,6.3c0.3,6.1-8.1,5.4-8.2,0.8s2.3-7.9,5.3-7.1c3,0.8-1.4,8,2.8,14.3
		c4.2,6.3,4.4,6.4,5.2,12.1c0.8,5.7-9.2,15.8-15.8,14.6c-6.5-1.1-8.2-5.4-17.1-11.2c-8.9-5.7-20.4-9.5-29.9-0.9
		c-9.5,8.6-7.8,22.1-4.8,25.6c2.9,3.5,27.7,7.7,32.3,0c4.6-7.7-1.1-19.6-14.1-19.6s-18.4,9.7-11.3,14c7.1,4.3,19.8-8.2,11.2-9.4
		c-8.7-1.1-6.2,16,6.3,11.7c12.5-4.3,9-7.1,11.7-11.5c2.7-4.4,21.7-4.2,15.3,6.3s-12.7,13.1-14.6,11c-1.9-2-16.2-5.9-17.9,5.9
		c-1.7,11.7,4.5,11.3,7.2,14.8c2.7,3.5,4.6-0.3,7.8-2.4c3.2-2,8.7-1.4,8.7-7.2s0-8.1-2.7-8.7c-2.7-0.6-14.8-1.2-16.3,2.3
		s0.8,12.1,4.1,11.7c3.3-0.3,9.7-4.7,7.3-7.7s-9.7,0.7-7.9,3.5c1.8,2.8,10.5-5.7,5.3-7.7c-5.2-2-13.6,11.6-8.7,17.6
		c5,6,2,6.7,0.1,7.4c-1.9,0.7-8.2-1.3-7.6-3.3c0.6-2,3.4,3.6,2.5,8.6s-5.5,7.6-10.7,7.6c-5.2,0-4.2-12.2-4.4-13.9
		c-0.2-1.8-1.2,5.7-9.4,7.9c-8.2,2.1-12.8,0.4-13-2.3c-0.2-2.7,1.9-5.8,0.2-8.4c-1.8-2.5-7.9-2.5-6.2-6.4s5.2-5.1,3.4-7.5
		s-3-5.2-0.4-6.3c2.6-1.2,10.5-0.8,16.8-1c6.3-0.2,14.4-1,17.9,2.5s6.8,10.5,6.9,14.5c0.1,4.1,4.9,11.6,2.7,16.1s-1.3,8.1-5.4,8.3
		s-2.8,4-7.2,5.4c-4.4,1.4-1.3-5.1-3.6-6.7c-2.4-1.6-6.8,4.1-13,3.9c-6.2-0.2-5.2-11-3-8.5c2.2,2.5-9.5,5.2-10.9,2.5
		c-1.4-2.8,1.6-5.9,1.3-11.1c-0.3-5.2-16.1,3.2-25,4.6c-8.9,1.4-11.1,1.7-4.2,4.5c6.8,2.8,20.4,0.8,24-2.6c3.6-3.4,1.4-6.6-0.4-5.2
		c-1.9,1.4-4.1,15.2-2.3,18.7c1.8,3.5,4.6-20.5,3.7-23.9s-18.7-2.9-16,4.6c2.7,7.5,2.5-4.6-0.9-9.5c-3.5-5,0.4-11.5,3.3-13.8
		c2.9-2.3-0.3-6,4.1-9c4.5-3,10.6,4,8.5,8.3c-2.1,4.3-6.5-9.5-1.4-12.1c5.1-2.6,4.1-10.1,1.4-10.8c-2.7-0.7-9.1,5.9-18-0.9
		c-8.9-6.8-2.9-13.9,0.8-15c3.7-1.2,4.5-9,11.6-12.3c7.1-3.3,9.3-4.8,16.4-8.5c7.1-3.7,12-4.1,13.4-6.8c1.4-2.8,9.1-12.8,12.9-12.9
		c3.8-0.2,5.8,3,5.2,6.8c-0.7,3.9,7.4,4.1,8.5,6.7c1.2,2.6,5.4,5.7,12,6.7c6.6,1,9.5-2.9,9.8-6.8c0.3-3.9-3.2-8.4-7.9-6.7
		c-4.7,1.7-11.8-2.7-12.4,2.3c-0.6,5,17.9,9.6,18.4,14.3c0.5,4.6,15.2-7.9,5.8-9.7s0.8,5.2-7.2,16.2s-22.1,9.6-26.4,4.2
		c-4.2-5.4-0.6-15.3,6.9-15.3c7.5,0,19,3.4,17.6,8.4c-1.4,5-13.4,12.6-19.9,6.8c-6.4-5.8-3.9-12.2-0.3-12.8
		c3.6-0.6,16.6-0.5,16.1,4.1c-0.5,4.6-9.6,9.1-12.6,6.6s0.3-6.3,4.5-5.9c4.1,0.4,8.5,1.2,4.5,5.5c-4.1,4.3,6.1,17.4,16.7,16.9
		c10.6-0.6,12.1-16.3,6.3-20.4s-14.4-0.6-17.4,12.1s-38.4-2.9-49.7,3.3s-13.1,17.7-3.9,26.5c9.1,8.8,12.7,2.7,10.7-1
		c-2-3.7-48.2,32.7-38.1,50.1c10.1,17.5,14.3-1.2,18.8-0.1c4.5,1.1,9.8,9.9,7.4,14.2c-2.4,4.3-5.7,6.9-6,9.4
		c-0.2,2.5-12.4,0.3-11.4-8c1-8.3,11.9-18.9,16.2-16.2c4.3,2.7,3.9,25.2-1.1,26.7c-5.1,1.5-10.3,1.8-8.1,4.8c2.1,3,8,2.8,9.7,4.7
		s6,6.8,7.7,6.6s2.5-8,0.1-10.7c-2.4-2.7-7-7.8-3.4-10.5c3.6-2.7,10.5-0.3,9.4-6c-1.1-5.6-7.1-5.1-5.7-8.9c1.4-3.8,9.6-6.2,10.4-2.1
		c0.8,4.1-8.6,22.1-9.6,24.8c-1,2.7,3.4-0.9,7.7-8.5c4.3-7.5,6.9-14.9,6.9-13.1c0,1.8-6.3,22.5-7.3,26s0.7,3.8,3,3
		c2.4-0.8,2.7-0.7,4.2,0.1c1.5,0.8,1.1-26.8,1.6-28.3c0.5-1.5,1,11.5,3.8,14.8c2.8,3.3,2.7,10.1,1.1,12.8c-1.6,2.7-3.6,3.9-4.2,1.9
		c-0.6-2,5.7-0.3,9.9-0.7s-0.9-9.1-2.5-14.4s-5.3-17.2-4.3-19.6c1-2.4,3.4,2,3.9,4.8c0.6,2.8,4.7,18.9,5.1,22.4s0.3,6.5,2.5,6.5
		s4.6-0.6,3.6-2c-1-1.5-10.7-29.4-10.7-32.1c0-2.7,10.8,30,13,31.8c2.1,1.8,5.4,2.5,3.9-0.5c-1.5-3-11.9-36.6-14.6-36.1
		c-2.7,0.5,15.1,35.5,17,35.6c1.9,0.1,1.8-0.8-0.1-6c-1.9-5.2-13.9-27.6-12.6-30.5c1.2-2.9,8.5,24.8,18.8,33.9s8.9-1.2,7.5-2.9
		c-1.4-1.7-19.4-24.6-22.2-28.5c-2.8-3.9,22.4,31,20.3,31.8c-2.1,0.8-20.5-31.3-20.2-33.7c0.3-2.4,27.9,26,26.4,29.7
		s-35-38.6-32.1-36.4c2.9,2.3,7,8.2,9,5.4c2.1-2.8,14.4,29.1,22.4,27.3c8-1.8,9.5-3,23.4-3.6c14-0.6,72.2,9.2,70.8,12.8
		c-1.5,3.6-5.3,6.6-8.6,5c-3.3-1.7-16.7-10.1-19-8.2c-2.4,1.9-2.7,3.5,5.5,8.1c8.2,4.6,11.7,9.5,13.5,8.1
		c10.7-7.9-6.5-11.3-24.1-11.8c-8.8-0.3-25.4,0.2-40.3,1.4c-0.9,0.1-1.7,0.3-2.5,0.5h0c-3.3,1.1-5.7,3.8-6.5,7.2
		c-3.4,13.7-13.1,49.5-24.1,58.6c-13.7,11.3-24.8,75.2-27.9,97.9s-18.9,49.7-22.6,43.9c-3.7-5.7,24.2-0.5,31.9,4.4
		c7.8,4.9,22.6-5.4,34.8-8.5c12.2-3,5.7-31.8,3-43.4c-2.7-11.7-5.1-48,6.3-72.2c10.2-21.7,2.5-62.2,2.9-80.7
		c0.1-3.2-2.1-5.9-5.2-6.5l0,0c-0.7-0.1-1.3-0.1-2-0.1c-9.5,1.2-16.8,2.8-18.1,4.8c-3.6,5.6-14.6,39.8-26.6,74.3
		c-11.9,34.5-26.4,79.3-27.7,105.2c-1.4,25.9-6.3,34.5-1.9,36.4c2,0.9,8.5,1.2,14.9,0.3c8-1,7.3,0.7,7.3,0.7
		c-0.2,10.8-10.6,34-14.6,43c-4.1,9-9.9,21.5-8.6,36c1.4,14.5-3.9,55.2-3.8,61.6s-5.9,9.5-6.5,0s0.5-66.9,3.6-75.7
		c3.2-8.8,3.2-13.4,10.9-22.1c7.8-8.7,7.8-26.6,9.8-33.8c2-7.2,6.4-9.8,9.9-11c3.9-1.4,7-2.5,7.1-4.4c0.5-5.7-30-2.3-29.7,2.5
		c0.1,2.7,15.1,1.6,30.6,0.4c3.2-0.2,6.4,0.4,9.2,1.8h0c1.6,0.8,3.2,1.9,4.5,3.2c7,7,24.6,29.3,14.8,53.2
		c-11.5,28.1-14.9,86.2-13.2,103.4c1.7,17.2-35.4,16.1-36.8-6.8c-1.5-22.8,43.9-133.5,47.7-147.4c3.7-13.9,33.1,37.9,26.4,68.6
		c-6.8,30.8-36.2,79.4-20.3,90.3c15.9,10.8,39.9,5.7,40.9-25.4c1-31.1-4.7-82.5-9.1-110.9c-4.4-28.4,10.1-43.3,16.2-48.3
		c6.1-5.1,28.7,71.3,31.7,94.3c2.9,23-3.6,95.3,14.3,93.3c17.9-2,15.5-54.8,5.4-87.9c-10.1-33.1-22-59.8-19.7-67.6
		c2.3-7.8,30.2,14.2,39.3,22.3c9.1,8.1,2,10.5,6.8,31.4s53.7,97.4,56.8,104.4c3,7.1,36.8,7.1,40.2-0.7s-14.2-79.8-16.9-93.6
		c-2.7-13.9,57.1,102.8,47.7,103.1c-9.5,0.3-23.3-1.4-64.9,1c-41.6,2.4-74.4,3.4-139.6-4.4c-65.2-7.8-83.7,6.1-96.1,1.4
		c-12.4-4.8-50.3,3.4-48-1.8c2.3-5.2,36.7-27.5,45.7-56.3c9-28.8,18.3-51.8,23.7-76.4c3.3-15.1,2.6-27.9,1.5-35.6
		c-0.6-4.4,2.2-8.6,6.5-9.7l0,0c0.5-0.1,1.1-0.2,1.6-0.2c5.5-0.3,10.4-0.4,13.8-0.1c15,1.4,31.7,4.6,32.3-9.6
		c0.7-14.2-8.3-74-7.1-87c1.2-13,15-29.6,15.9-51c0.8-21.5-4.4-57.3-10.1-62.5s-0.7-10,9.1,4.9c9.8,14.9,27,71.8,28.2,84.7
		c1.2,12.8-9.1,27.7-16.7,41.7c-7.6,14-22.1,16.9-16.1,30.6c6.1,13.7,22.6,25.7,21.6,21c-1-4.7-22.6-21.1-15.5-28.6
		c7.1-7.4,18.6-1,32.6-7.4c14-6.4,36.7,8.3,39.5,17.4s-1.9,18.8-21.8,24.8c-19.9,6.1-27.7,16.4-23.7,24.8s25,6.3,30.4,3.4
		s7.8-12,17.9-13c10.1-1,27.4,1.7,38.9-5.2c11.5-6.9,12.8-13.4,6.9-26.7s-2.4-20.5-3.9-28.2c-1.5-7.8-17.2-13-32.3-14.2
		c-15-1.2-27.7,3.7-32.6-7.4s-22.3-60.2-35.7-89.6c-13.4-29.4-11.8-39.9-6.8-38.5c5.1,1.4,34,84.8,58,99
		c24,14.2,54.4,39.2,59.5,53.6s11,33.6,5.6,38.7c-5.4,5.1-10.6,6.4-6.3,9.5c4.4,3,15.6,5.4,8.4,6.1c-7.2,0.7-25.5,12.3-21.6,24.8
		c3.9,12.5-35.2,23-24,37.5s34.1,53.6,42.6,67.6c8.5,14,19.4,23,28.9,39.5c9.5,16.6,21.2,20.1,16,2.7s-11.3-62-17.6-88.3
		c-6.3-26.4-19.2-62.6-19.4-87s-3.4-39.9-16-62.9c-12.6-23-62.4-65.1-73.7-81.1s-32.7-54.8-26.6-57.2c6.1-2.5,24.1,10.1,38.8,25.5
		c14.6,15.3,41.2,61.7,51.4,83.8c10.1,22.1,30.4,56.3,36.5,63.5c6.1,7.2-3.2,6.8-5.6,9.5c-2.5,2.7,4.7,11.7,7.4,23
		c2.7,11.3,0.2,24.3,3.4,42.1s32,57.5,38.3,75.5c6.3,18,21,52.7,33.1,65.4"/>
</g>
<g id="Layer_7">
</g>
<g id="Layer_8">
</g>
<g id="Layer_9">
</g>
<g id="Layer_10">
</g>
<g id="Layer_11">
</g>
<g id="Layer_12">
</g>
</svg>
