<?xml version="1.0" encoding="utf-8"?>
<!-- Generator: Adobe Illustrator 24.1.2, SVG Export Plug-In . SVG Version: 6.00 Build 0)  -->
<svg version="1.1" xmlns="http://www.w3.org/2000/svg" xmlns:xlink="http://www.w3.org/1999/xlink" x="0px" y="0px"
	 viewBox="0 0 841.9 1190.6" style="enable-background:new 0 0 841.9 1190.6;" xml:space="preserve">
<style type="text/css">
	.st0{fill:none;stroke:#020203;stroke-width:1.5;stroke-miterlimit:10;}
</style>
<g id="Layer_1">
</g>
<g id="Layer_2">
</g>
<g id="Layer_3">
</g>
<g id="Layer_4">
</g>
<g id="Layer_5">
</g>
<g id="Layer_6">
</g>
<g id="Layer_7">
</g>
<g id="Layer_8">
	<path class="st0" d="M204.1,884.1c-5.8-3-1.1-9.3-1.1-9.3c2.4-3.9,1.9-10.6,0.4-16c-1.5-5.5-9.9-9.7-10.8-14.3
		c-0.8-4.6,4.7-7.8,4.6-16.9c-0.1-9-0.9-28.3-1.5-34.1c-0.6-5.8,4.6-12.2,4.7-21.8c0.2-9.5,2.8-18.1,5.5-30.5s12.2-43.3,9.9-63.5
		c-2.3-20.2-15.3-81.1-9.8-82.6c5.5-1.5,5.5,68.1,7,83.9c1.5,15.8,1.1,49.7-0.3,74.6c-1.5,24.9-0.5,66.5,1.3,84.7
		c1.8,18.2-5.4,16.3-5.4,21.7s8,7.7,8,14c0,4.2-0.1,12.6,0.4,18.4c0.2,2.3-0.4,7.5,5.9,7.1c6.3-0.4,4.8,4.1,3.7,8.5
		s-11.7,4.4-11.6,2.8c0.1-1.6,11-0.7,9.9,2.3c-1.1,3-6.9,9.3-11.3,7.2c-4.3-2.1,2.6-17.5,3.1-20.8c0-0.2,0.1-0.5,0.2-0.7l0,0
		c0.5-1.1,1.8-1.5,2.9-1c0.3,0.1,0.6,0.3,0.9,0.3c5.8,1.2,11.6-8.6,6.5-23.6c-5.1-15,16.8-70.7,24.4-83.3
		c7.7-12.5,11.2-38.9,12.2-54.6c1-15.6,14-109.2,18.2-109.6c4.2-0.4-14.3,85.9-17.4,95.8c-3,9.9-7.2,37.8-10,48.4
		c-2.8,10.6-25.3,48.7-27.7,64.8c-2.4,16.2-8.7,19.4-9.6,26.6c-0.9,7.2,7.7,29.4,10.6,35.2c2.9,5.8,0.1,14.2-2.8,18.4
		c-2.9,4.1-8,6.7-13.6,8.6s0.9,12.4,1.1,19.2c0.2,6.8,9.6,11.4,21.8,17.6c12.3,6.2,17.5,3.8,27.9,6c10.4,2.2,13.1,12.4,19.4,14.9
		c6.3,2.5,34.5,9.8,50.5,13s49,9.7,66.4,9.7s23.9-16.3,32.7-16.3c8.8,0,12.1,16.3,28.5,16.3s29.7-15.1,36.8-15.2
		c7.2-0.1,16.6,5.3,24.3,5.3s12.2,1.4,24.3,1.2c12.2-0.2,20.7-7.8,26.7-4.5c6,3.4,2.2,11.9,2.7,15.2c0.5,3.3,8-0.9,26.6-1.4
		c18.6-0.5,32.3-8.6,38.9-11.9c6.6-3.4,4.2,6.3,28.9,5.9c24.7-0.4,24.9-8.3,28.1-16.2c3.3-7.9-35.8-27.6-39.6-30.8
		c-3.8-3.3,7-3.1,21.5-7.7s18.2-22,15.2-26.9c-3-4.9-42.6-13.8-54.9-19.8c-12.3-6-44.3-29.3-54-40.3c-9.7-11-56.3-70.1-62.5-80
		c-6.2-10-28.8-50.5-36-60.6s-32.3-42.3-36.9-52.6s-11.2-18.9-15.4-21.4c-4.2-2.5-13.1-3.3-16.1-10.2c-2.9-7-0.2-17.5-2.9-31.5
		c-2.7-14-4.5-12.1-9.4-17.1c-5-5-4.6-12.8-6.1-17.6c-1.5-4.8-1.8-12.9-4.1-21.6s-17.1-33.8-20.5-44.2c-3.5-10.4-1.1-23.8,1.3-31.3
		s11.1-41.1,10.5-61.8c-0.2-7.3-1.7-12.3-0.9-15.6c1.5-6.1,5.9-5.9,4.3-2.1c-1.3,3.4-18.2-14-32.2-17.2c-17.7-4.1-34.5,2-34.7-4.5
		c0-1.3,1.8-3.7,9.8-4.2c41.7-2.7,24.8,63.4,24.3,73.8c-0.4,10.4-5.1,54.5-8.4,67s-30.4,48-35.7,54.1s-25,18.1-26.2,21.6
		c-1.2,3.5-5.9,25.1-0.1,25.4c5.8,0.3,15.3-12.6,14-5.9c-1.3,6.7-25.1,18.5-25.7,15.5c-0.7-2.9,22.2-6.4,20.4-1.7
		c-1.7,4.7-11.1,9.8-16.2,7.9c-5.1-1.8-14.7-9.6-14.4-4.5c0.2,5.1,8.1,8.8,10.1,5.1s-10.6-16.4-14-14.3c-3.4,2.1,0.9,12.9,4.7,12.8
		c3.8-0.1-0.7-9.9-2.6-13.6c-2-3.7-1.8-16.8-2.6-15.6c-0.8,1.2-6.7,11.4-7.9,13.6s2.3,2.3,5.4,2.1c3.1-0.2,4.8-2.3,5.3-7.2
		c0.5-4.9-0.8-10.7-0.5-17.1c0.5-11.7-7.4-20.9-10.1-42.5c-1.3-10.4-9.2-29.3-12.6-41.6s-7.4-42.1-7.5-51.2s-5.1-35.1-6.6-42.6
		c-1.5-7.5-5.2-48.3-7.1-42.8c-2.9,8.5,4.6,18.4,7,29.3s8.1,39.9,8.7,55.4s5.4,41.8,8,50.7s11.7,33.7,12.6,41.7
		c0.9,8,7.3,29.9,2.6,37.7c-4.6,7.7-71,4.4-69.1-1.7c1.6-5.3,48.9,4.3,65.4,6.2c3,0.3,6-0.5,8.4-2.4l0,0c1.2-1,2.2-2.2,2.9-3.6
		c4.7-8.8,13.9-21.6,18.2-27.8c5.8-8.3,18.4-29.4,26.2-41.5c7.8-12.2,5.2-16.7,4.8-30.6c-0.4-13.9-2.9-21.6,1-21.7
		s35.6-2.3,37.9-2.3s1,5.3-0.4,7c-1.4,1.6-1.2,4-6.3,5s-11.8-7.9-18.4-7.1s-16.2,11.8-16.2,4.5c0-7.4-4.8-35.3-8-47.9
		s4.1-49.9,21.4-58.3c17.2-8.5,40.9,6.8,45.2,15.4c3.9,7.8,13.7,19.4,17.3,12.5s4.2-15.6,4.8-7.4c0.5,8.3-0.1,52.4-1.7,60.8
		c-1.6,8.5-14.8,46.5-10,56.9c4.8,10.4,17.2,41.8,18.8,52.4c1.6,10.5,0.5,31.3,8.4,38.8c7.8,7.5,17.7,6.2,14.9,3.1
		c-2.9-3-9.6,13.5-4.5,22.4c5.1,8.9,3.5,25.1,6.5,22.3c3-2.8,8.8-10.4,7.6-16c-1.2-5.5-8.9,7.7-10.6,18.8c-1.7,11.1,20,19.4,32,18.9
		c12.1-0.5,20.1-7.6,20.4-18.5s6-7.3,1.1-6.6c-4.9,0.7-7.3,1.4-10.4,6c-3.1,4.6-10.8,16,2.4,16.4s12.6,2.9,11.7,1.2
		c-0.9-1.7-2.1-6.7,1.5-14.3c3.6-7.6,12.4-6.7,10.2-2.5c-2.2,4.2-12.9-8.9-4.5-9.9s13.1-6.4,2.3-9.7c-10.9-3.3-3.8,4.7,8.8,5.8
		c12.6,1.1,8.1-7.1,3.3-10.5c-4.9-3.5-14.9-2.1-5.9,0.9s14.9,1.4,9.4-3.1s-1.8-7.1-6.4-11s-11.3,1.4-12.3,9.7
		c-1,8.3-19.4,20.5-22.9,15.4c-3.5-5.1-2.1-10.3,3.8-13.3c5.9-2.9,14.9,2.1,13.1,8.8s-19.6,13-27.8,6.7c-8.3-6.3-8.3-15,2.9-15.7
		s9.2,5.5,9.7,15.2s-16.4,15.9-10.6,14s5.8,7.3,0.1,9.7s-16.9-0.1-23-3.3s-5.1-7.3-11.4-6.5c-6.3,0.8-11.7,6.4-4.9,8.9
		c6.8,2.5,6.1-2,9.6-8.7s22.5-9,20.2-8.4c-2.3,0.7-5.6,0.3-3.8-2c1.8-2.3,5.1-1.8,8,0.5c2.9,2.4-1.2,3.3-7.7,4.3
		c-6.5,1.1-6.1-4-1.4-7.7s12.3-2.4,11.8,4.8s-14.9,7.3-18.1,5c-3.3-2.3,2.6-13.7,8.4-15.4c5.8-1.7,13.6,4.7,13.6,9.1
		c0,4.5-4.7,9.4-11.5,11.3c-6.8,1.8-12.9-0.4-12.9-5.3s5.5-8.3,6-13.9c0.4-5.6-2.2-10.7-5.4-10c-3.3,0.7-3.7,10.9-8.6,13.3
		c-4.9,2.4-8.7,1.8-7.9,4.5c0.8,2.6-1,13.8-2.5,11.4c-1.5-2.4-8.4,3.3-11.8-1.5c-3.5-4.8,11.6-7,11.3-9.6c-0.3-2.6-2-6.1-6-3
		c-4,3-5,7.7-12.5,6.6c-7.5-1.1-8.6-1.5,0.7-8.4c9.2-6.8,21.8,1,28.1-3c6.3-4,2.1-6.7,1.1-13.5c-1-6.7,3.5-7.7-0.2-10.9
		c-3.7-3.1-3.7-0.2-5.3,3.9c-1.6,4.1,1.8,3.7,11.1,1.4c9.2-2.3,13.3,0,12.1,7.9c-1.2,7.9-11.5-0.3-3.3-7.1s0.4,1.1,14,1
		c13.6-0.1,12-7,8.1-12.9c-3.8-5.9-6.7-5.6-8.3,2.4c-1.5,8,16.5,9.3,16.2,4.9c-0.3-4.5,4.9-2,6.6-0.2c1.7,1.7-0.4,0.9-5.1,6.1
		c-4.7,5.2-5.3,1.8-5.9-3.1c-0.5-5,1.5-10.2,9.2-4.7s11-3.3,8.9-2.5c-2.1,0.8-4.2,2.3-1.7,3.8s5.5-2.4,6.7-4.1s-6.5-3-8.9-0.1
		c-2.4,2.9-1.8,11,4.2,7.3c6.1-3.7,6.7-5.3,8.5-8.8c1.7-3.5,12-2.8,10.1,2.4s-9.6-11-5.3-8s12.4,4.2,13,2.7s-1.5-10-11.2-10.1
		c-9.7-0.1-5.4,9.2-11.1,11.3c-5.6,2.1-15.6-7-16.5-12.4c-0.9-5.4-39.2-1-29.2-0.4c10,0.5,27.6-1.4,23.6-7.2c-4-5.8-25.3,6-17.9,4.8
		c7.4-1.2,16-10.2,14.8-12.3c-1.2-2.1-5.2,0-7.5,4s-9.6,5.3-15.2,8.6c-5.6,3.3-1.3-6.3-4.2-5.6s-1,4.9-1.8,10.2
		c-0.9,5.3-3.5,21.5-5.9,15.4s5.9-15.4,9.1-11.5c3.3,3.9,6.7,18.4,3.5,13.9c-3.3-4.5-4.5-17.1,1.6-15c6.1,2.1,11.1,10.8,6.7,7.8
		c-4.3-2.9-10.9-10.1,0.1-11.5c11-1.4,11,5.2,22.3,6.5c11.3,1.3,12.4-8.3,12.4-16s-6.2-8.4-11.2-8c-5,0.3-0.9,1.4,3.7,8.1
		c4.6,6.7,3,10.4,7.4,12.1c4.3,1.6,4-4.8,2.4-12.4c-1.6-7.6-9-11.1-13.5-10.5s-8.7,5.1-4.2,6c4.5,0.9,6,4.6,7.2,12.1
		s9.7,10.6,12.2,6.3c2.5-4.3,0.9-17.9-1.1-21.8c-2-3.9-10.6-7.6-17.5-4.6c-6.8,3-8.9-11.2-6.7-9.1c2.1,2.1,0.2,5.7-3.5,1.8
		c-3.7-3.9,4.6-5.9,7.5-1.8c2.9,4.1-2.7,12.9-10,10.2c-7.3-2.7-7.4-14.7-1.6-16s12.2,0.3,14.6,5.8c2.4,5.5-3.9,11.7-8.9,13
		c-5,1.3-29,8.9-20.3,10s8.3-7.4,3.7-7.7c-4.6-0.3-14.4,4.3-13.6,11.9c0.9,7.7-11.4,13.3-16.4,9.4s1.2-5.1,7.6-5.6
		c6.4-0.5,10.5,10.1,1.2,14.7c-9.3,4.6-18.2,8.7-24.4,9.9c-6.2,1.2-5.3,8.9-1.2,13.9s15.6,5.5,18.3,0.4s2.3-17.8-3-17.4
		s-14.8,5.5-17.8,8.5s-11.2,8.6-13.3,5.5c-2.1-3.1-2.8-14.9,2.1-16.7c4.9-1.8,13.5-9.6,20-11.7s10.1,4.9,8.8,9.2
		c-1.3,4.3-12.4,8.3-12.7-6.8c-0.3-15.1-15,13.7-9.9,6.2c5.1-7.5-5.2-5.4-0.4-11.4s6.9-16.9,10.3-13.3c3.5,3.6,2.4,16.2-2.2,16.3
		c-4.6,0.1-5.8-8.3-2-17.6c3.7-9.3,0.6-23.4-2.9-25.6s-12.6-1.5-10.1,1.3c2.5,2.9,8.1,21.3,16.2,19c8.1-2.3,14.6-5,22.5-5.1
		s1.1,4-3,4.7s-7-3-3.5-6.7c3.5-3.7,8.5-1.7,11.6,2.8c3.2,4.5-2.7,8.3-7,9c-4.3,0.7-12.5-2.9-8.9-11.1s16.2-3.2,18.5,0
		c2.3,3.2,1.8,14.1-11.4,13.1c-13.2-1-12.3-15.5-6.5-19c5.8-3.5,16.9,0.4,19.4,3.7c2.5,3.3,1.8,18.1-10.7,18.6s-18.4-12.8-14.7-20.1
		c3.7-7.3,10-7.2,19.6-3.7s17.4-3.4,21.1-1.5c3.7,1.9,2.3,2.9-4,4c-6.3,1.1-9.8-7.1-2.4-8.5c7.3-1.4,11.1,1.7,12,5.2
		c0.9,3.5-0.6,6.3-6.9,7.1c-6.4,0.8-7.2-0.9-9.9-6.8s0.7-7.5,9.6-7.7c8.9-0.2,10.3,7.6,9.8,11c-0.6,3.4-3.7,6-12.1,5.9
		s-11.5-11.1-9.5-15.6c2-4.5,8.6-2.9,14.4-2.9c5.9-0.1,16.6,0.4,13.7-3.1c-2.9-3.5,2-14.6-0.6-15.5c-2.5-0.9-10.3,4.5-13,10.3
		s-9.7,5.7-10.8,5c-1.1-0.7,1.2-20.9-2-20.7s1.1,22-0.6,21.4c-1.6-0.6-19.9-23.8-17.9-25.1c2-1.3,16.9,24.8,14.4,25.8
		c-2.5,1-10.3-18.7-12.5-16.1c-2.3,2.6,12.5,17.4,10.5,19.3c-2,2-17.4-21.3-19.1-19.9c-1.6,1.5,17.8,22.5,17,19.4s-9.8-6.1-15.7-9.4
		c-6-3.4-3.1-7.5-2-19c1.1-11.4,1.5-31.1-1.6-40.2c-3.1-9.1,3.3-3.3-4.4-32.1c-7.7-28.8,2.2-43.7-4.8-64.2
		c-5.4-15.6-27-20.9-31.5-27.8c-10.4-15.9,2.8-10.4,22-29.2c8.4-8.3,15.7-4.1,15.6,6.8c-0.1,10.9-23.5,16.1-28.6,9.9
		c-5.1-6.2,16.9-25.7,20.7-28c3.8-2.3,4.9,11.5-1.8,19.9c-6.7,8.4-17.4-0.9-17.5-3.5c-0.1-2.6,6-8.4,12.6-16.1
		c2.3-2.7,0.2-8.3-1.3-15.9c-0.6-3.1,7.9-22.8-14.7-38.1c-20.7-14-39.6,0.5-42.5,3.1c-11.3,10.2-4.7,8.7,1.5,10.9
		s14.6,20.2,24.8,29.3c10.2,9.1,23.8,12.3,23.4,17.8c-0.4,5.5-15.3,12.3-15.9,21.3c-0.5,9,13.3,14.2,24.8,10.7
		c9.6-3,16.9-10.9,18.5-16c2.1-6.5-0.3-17.8-4.7-23.5s-8.8-1.5-10.4-7.8c-1.6-6.3,8.4-24-3.7-42.8c-12.1-18.8-33.5-17.9-48.1-12.1
		c-14.5,5.8-29.2,34.8-28.6,38.9c0.6,4.1-3,8-5.1,11.4s-2.9,13.5-0.8,22.9c2.1,9.4,1.4,19.1,10.3,21.7c8.9,2.6,47.2-25.1,40.4-10.5
		c-6.8,14.6-32.6,11.2-34.7,11.6s1.8,7.5,1.7,14.1c-0.1,6.6-17.7,16-21.1,24.6c-3.3,8.6-6.8,13.5-11.3,21.1
		c-4.6,7.6-4.1,23.2-3.8,34.3c0.2,11.1,8.3,27.1,7.9,40.8c-0.4,13.7-2.2,54.5,2.7,49.4c4.9-5.1-5.1-29.2-5.1-42.8
		s-4.3-32.1-7.6-40.3s0-13,1.5-29c1.5-16,0.6-26.8,1.8-40.7c1.2-13.9,3.9-26.9-13.5-53.2s0.7-31,6.9-26.9s9.1,2.4,12.3,0.8
		c3.1-1.6,0.4-7.4,3.4-8.3c2.9-0.9,2.9-2.8,2.9-2.8s2.9-0.8,3.7-1.6c0.8-0.9-0.3-2,2.1-2.7c2.4-0.8,3.4,2.7,6.3,2
		c2.9-0.8,5.8-9,5.5-12.6c-0.2-3.6,1.8-3.9,5.3-6.2s5.1-5,6.5-13.9c1.4-8.9-4.9-8.5-16.7-17.5s-5.8-27.5-12.2-36.7
		c-6.4-9.2-20.4-8.1-31.5-0.5c-11.1,7.5-15.3,21.4-17.7,30.4c-2.4,9-5.1,14.7-7,16.5c-1.8,1.8-3.1,13.1,4.5,11.7
		c7.6-1.4,8.8-18.6,17.5-18s12.8,9.7,12.6,13.1c-0.2,3.5-2,9.9,3.5,9.6s3-7.1,6.5-9.1c3.5-2.1,12.1,7.3,15.4,5.2s3.1-16.3,3.7-20
		c0.5-3.7,10.2,4.8,18.1,9.6c7.9,4.8,15.7-1.3,17.8-8.5s-9.1-17.4-14.7-31.9s-26.3-19-31.9-19.3c-5.6-0.3-17.4-0.9-31.7,9.6
		c-12.3,8.9-18,34.2-20,41.2c-2,7-11.3,14.9-13.7,16.6c-2.4,1.7-5.2,7.3,2.3,11.3c7.5,4,23.9,20.1,29.2,26.1
		c5.3,6,12.2,5.2,16.2,7.1c2.3,1.1,0.6,4.7-0.3,8.5c-0.6,2.7,0.4,6-1.1,5.8c-3.7-0.7-5.5-8.5-6.6-13.3c-1.1-4.8-10.5-14.1-15.2-19.6
		c-4.7-5.4-26.2-21-29.7-22.3c-3.5-1.3-10.8,15.1-13.4,13.8c-2.6-1.3,5.8-7.5,8.1-9c2.3-1.5,9.3,3,19.6,10.8
		c10.3,7.8,18.9,16.2,26,26.1c7.1,9.9,21.3,32.9,24.8,44.7c3.5,11.8-0.7,57.6,2.1,53.8c3-4.1,4.6-20.6,3.5-29.7
		c-1.7-13.3-14.4-39.3-23.4-49.9c-8.9-10.5-11.9-15.5-21.3-20.1s-35.6-20.4-38.4-23.9c-2.8-3.5-10.4,1.7-16.5,5.6
		c-6.1,3.9-14.2,10.3-23.7,28.8c-9.4,18.5-6.7,47.9-6.6,56.3c0.1,8.4,3.4,18.9,4,31s-1.4,58.1-3.7,57.6c-2.3-0.5-8.6-12.8-8.6-27.3
		s6.7-39.3,9.1-42.9c2.4-3.6-0.2,50-1.3,61.8s-7.3,27.6-12.2,40.9c-4.9,13.4-12.7,54.9-9.1,57.7c3.6,2.8,2.7,5.5,2.2,10.3
		s5,6.3,15.7,19.3c10.8,13,29,15.5,25.6,9.3c-3.4-6.2,5.8-34,7.2-46.3s15.3-38.4,16.3-45.7c1-7.2,2.1-10.6-1.4-5.5
		c-3.5,5.1-17.7,45.1-20.9,54.1c-3.1,9-13.3,44.5-16.4,43.7c-3.1-0.9-7.6-7.9-6.3-2.2c1.3,5.8,1.5,40.7,1.3,57.5
		c-0.2,16.7-2,40.9-4.8,57.6c-2.8,16.6-6.6,31.2-10.2,49.5c-3.6,18.4-2.7,60-2.7,68.3c0,8.4,0.7,33.6,4,43.6
		c3.4,10,5.5,18.7,4.8,28.1s2.4,25.4-0.1,25.4c-2.5,0-1.6-4.7-1.3-8.7s0.9-5.1,10.8-5c9.9,0.1,28.3-8.6,32.8-11.9s3.9-0.2,9.3,1.5
		s5.6,4.5,4.6,10.8s1,11.5-7.9,11.8c-8.9,0.3-17.2,5.1-30.1,6.2c-12.9,1.1-18.2-6.2-19.3-0.2c-1.1,6,3.3,7.6,10.9,8.6
		s20.4-0.1,24.2-5.4s10.8-4.8,18.2-5.2c0,0,2.4-2.6,2-10c-0.4-7.4,1.3-11.4,0.4-12.6C213,884.6,208.8,886.5,204.1,884.1z"/>
</g>
<g id="Layer_9">
</g>
<g id="Layer_10">
</g>
<g id="Layer_11">
</g>
<g id="Layer_12">
</g>
</svg>
