<?xml version="1.0" encoding="utf-8"?>
<!-- Generator: Adobe Illustrator 24.1.2, SVG Export Plug-In . SVG Version: 6.00 Build 0)  -->
<svg version="1.1" xmlns="http://www.w3.org/2000/svg" xmlns:xlink="http://www.w3.org/1999/xlink" x="0px" y="0px"
	 viewBox="0 0 841.9 1190.6" style="enable-background:new 0 0 841.9 1190.6;" xml:space="preserve">
<style type="text/css">
	.st0{fill:none;stroke:#020203;stroke-width:1.5;stroke-miterlimit:10;}
</style>
<g id="Layer_1">
</g>
<g id="Layer_2">
</g>
<g id="Layer_3">
</g>
<g id="Layer_4">
</g>
<g id="Layer_5">
</g>
<g id="Layer_6">
</g>
<g id="Layer_7">
</g>
<g id="Layer_8">
</g>
<g id="Layer_9">
</g>
<g id="Layer_10">
</g>
<g id="Layer_11">
	<path class="st0" d="M75.6,284.5c0,0,20.6,49,33.8,75.8c5.4,10.9,12.5,26.4,20,43.1c4.7,11.3,21.7,27.6,37.5,22.9
		c11.8-3.5,13.1-13.8,12.3-20.6c-0.4-3.4,21.4-15.4,24.1-10.2s-24,7.8-25.4,5.6c-0.1-0.2-0.2-0.6-0.3-0.7
		c-1.8-4.4-10.6-12.5-21.4-8.9c-10.8,3.6-12.8,17-9.9,23.3c4.6,9.9,12.7,11.5,30.8,11.5c6.6,0,11.5,4.5,13.8,10.4
		c0,0.1,0.2,0.3,0.3,0.4c1.7,2,28.1-0.3,25.4-5.6c-2.7-5.3-24.5,6.7-24.1,10.2c0,0.2,0.1,0.6,0.1,0.9c1.4,9.1-1.7,18.5-11.1,18.5
		c-17.9,0-21.9-9.6-21.9-17s3.8-16,16.2-16s22.6,21.9,5.4,37.4c-14.4,12.9,1.4,34.6,16.6,29.3c10.2-3.5,13-11.4,11.6-18.3
		c0-0.2-0.2-0.6-0.2-0.8c-0.6-3.4,21.4-15.4,24.1-10.2s-23.7,7.6-25.4,5.6c-0.1-0.2-0.5-0.5-0.6-0.7c-4.2-7-13.1-10.9-20.4-8
		c-7.8,3.1-11.1,14.3-7.9,21.2c6.6,14.3,15.2,7.5,31.4,14.8c4.1,1.9,6.9,4.7,8.6,7.9l0,0c0.5,0.7,1.2,1.1,2,1.2
		c5.9,0.9,26.3-1.4,23.9-6.1c-2.7-5.3-24.4,6.7-24.1,10.2c0,0.4,0.1,1.2,0.1,1.6c0.6,7.9-3.7,15.8-10.6,17.4
		c-12,2.8-20.8-6.1-22.4-14.9c-1.6-8.9,2.8-16.4,10.4-17.7c7.6-1.3,18.2,4.4,20.2,12.5c4.6,19-24.8,41.7-34.2,18.1
		c-9.4-23.6-36.1-86.9-45-107.4c-3.6-8.4,1,7.3,1.8,9.6c1,2.8,3.6,8.3,4.7,11c4.9,11.5,9.3,22.2,12.7,30.7
		c11.8,29.5,51.3,129.3,60.7,127.4c9.4-1.8,66.5-19,96.9-31c30.5-12,83.4-50.8,85.5-43.5s4.1,16.9-2.5,20.9s-44.8,21.4-72.8,30.9
		s-58.4,13.3-64.8,12.9c-6.4-0.4,17.2-12.3,11.1,8.5c-6.1,20.8-17.5,67.4-14.4,83.2c3.1,15.8,16,68.6,27.8,81s17.7,48.6,17.4,59.6
		c-0.3,10.9,12.5,80.2,47.2,71.5c32.1-8.1,29.2-40.1,24.8-59.2c-4.4-19-24.5-30-26.3-47.2s2.6-28.9,11.2-30.2
		c8.6-1.3,10.7,16.5,18.2,21c7.6,4.4-4.4-16-2.6-33.5C378,727,404.4,684,407.3,665c2.9-19-9.1,33.8-19.7,53.8
		c-5.9,11.1-10.2,21.7-9.7,28.2c0.9,11.8,9,56.4,16.5,62c7.4,5.6,6.9-30,12.6-44.8c5.7-14.9,39.8-71.8,39.5-72.8
		c-1.8-6.9-35.7,66.3-37.8,72.8c-2.1,6.5-6.3,39.5-8.9,44.7c-2.4,4.8-6.7,24.1-4,26.5c0.9,0.8,1.7,1.7,1.9,2.9
		c1.8,9.7-6.7,32.8-14,34c-8.2,1.4-15.9,0.9-15.6-14.1s20.3-21.4,31.1-23c4.4-1,6.6,1.2,12.1-2.7s21.5-16.4,23.3-25.5
		c1.8-9.1,17.5-42.1,23.7-49.8c3-3.6,6.3-9.8,9.3-15.9c1.4-2.8,5.8-1.5,5.3,1.6c-0.1,0.5-0.3,1.1-0.7,1.6c-2.4,3.1-5.2-2.7,3.4-20.2
		c3.2-6.5,8.3-8.3,7.7-4.4c-0.7,3.9-9.9,26.3-15.8,34.7s-10.2,21.5-14.1,30.6c-3.9,9.1-7.8,11.6-11.2,18.8s-11.9,32.2-3.8,37.9
		c8.1,5.7,3.5,17.6-7.6,23.2c-11.1,5.6-28,7.4-39.4,7.4s-13,9.6-19.5,13.9c-6.5,4.3-41.8,2.7-51.1,24.9
		c-9.3,22.2,14.9,26.1,27.1,23.7s49.9-15.8,67.8-26.8c17.9-11.1,27.1-23.7,29.6-21.2c0.9,0.9-14.7,11.8-33.6,21.2
		c-21.5,10.7-34.3,16.4-63.9,25c-10.8,3.1-19.2,0.4-20.7,2.7c-6.8,10.3-21.1,37.6,6.6,43.5c9.8,2.1,43.9-25.8,53.7-34.1
		c9.8-8.3,50.4-53.8,53.8-51.5c2,1.3-52.3,48.1-66.8,58.9c-14.6,10.8-13.2,13.6-7.7,18.4s17.1,8.1,26.2-3
		c9.1-11.1,22.9-22.7,29.5-34.4c6.6-11.7,16.4-30.8,31.7-47.6c15.3-16.8,18.9-27.8,19.4-43.4c0.5-15.6,0.8-20.5-8.7-8.9
		c-6.9,8.5-21.8,13.7-21.2,10.4c0.4-2.2,8.3,1.3,15.4-3.3c10.2-6.7,15-16.4,17.6-24.8c5-15.6,12-27.2,18-36.3
		c6-9.2,11.1-24.9,17.4-34.4c6.3-9.5,11.4-17.1,27.6-29.3c16.2-12.2,34.4-32.1,43.3-44c8.9-11.9,40.9-49.7,41.5-55.3
		s-13.1-7.7-44.2-19.4c-31.1-11.6-60.6-32.7-72.6-42.6c-12-9.9-20.5-23.3-19.8-28.1s8.3-15.8,10.1-15.4c1.7,0.3,20,25.1,30.6,33.8
		c10.6,8.7,53.9,33.4,79.1,42.2c18.5,6.5,35.6,11.7,44.9,12.7c0,0,0,0,0,0c2.8,0.3,4.3,3.3,3,5.7c-2.6,4.7-7,11-12.1,11.9
		c-8.1,1.4-19.5-0.8-18.2-3.5s21.6-4.5,34-15.1c4.2-3.6,22.4-37.7,23.8-43.6s-7.5,5.6-12,8.5c-4.5,3-12.2,6.8-14.8,5.9
		c-2.6-0.9,6.9-17.2,10.8-16.5c3.8,0.7-10.3,15.3-14.9,12.7c-4.7-2.6-3.1-9.9-3.1-9.9s-5.6,5-7.1,8.5c-1.6,3.5-5.9,13.2-13.6,13
		c-7.6-0.2,0.5-10.8,5.2-13.4c4.7-2.6-10.6,12.3-16.3,13c-5.7,0.7-11.6-3.3-7.5-6.9s8.5-8.9,15.8-11.6s-9.4,5.7-14.4,3.5
		s6.9-9,11.3-12.3c4.3-3.3-4-3.3-1.4-6.6s11.5-3.6,16.3-2.3s23.5,5.4,28.7,4.9c5.2-0.5,5.4-15.3-0.7-14.8
		c-6.1,0.5-20.2,9.7-16.5,15.8s12.2-17.9,17.7-21.5s15.1-2.6,18.4,2.3c3.3,4.9,3.5,21.7,0,23.5c-3.5,1.7,3.8-18.8,9.4-26.9
		s11.5-12.7,15.6-19.3c4.2-6.6,5-15.6,2.6-20.3c-2.4-4.7-8-0.3-8.3,4.3c-0.3,4.7-9.6,18.8-6.1,24.2c3.5,5.4-12,7.5-18.4,7.5
		s-10.1-7.1-10.3-15.6c-0.2-8.5-2.3-12.7-1.4-14.8c0.9-2.1,8.9,4.2,10.6,8.3c1.7,4.2-0.3-6.3,3-14.4s3.6-14.8,4.9-16.3
		c1.2-1.6,5,13.4,5.6,17.5c0.5,4.2,5.7,5.6,3.5,10.6s0.9,14.4,5.4,7.5c4.5-6.9,16.1-20.9,20.6-32.4c4.6-11.5,33.7-75.8,43.5-97.7
		c9.7-21.9-32,28.1-42,29.5s-7.4-6-8.9-11.8c-1.4-5.9-9.6-1.6-11.2,3.1c-1.6,4.7-1.2,14.2-5.1,13.4c-3.9-0.8-9.3-2.6-9.3-0.3
		c0,2.3,6,11.7,9,13.6s-11.1-0.4-10.3,2.2c0.8,2.6,11.6,10.9,15.8,14.9c4.2,3.9,9.3,2.3,11.6-3.4c2.3-5.7,3.9-8.1,5.5-12.6
		c1.6-4.6,0.1-7.8-2.5-9.3c-2.6-1.4-15.8-12-18.9-28.4s-9.1-37.8-9.9-44c-0.8-6.3,28.9-7.8,39.1-19.3c10.2-11.5-38,21.9-48.2,22.9
		c-10.2,1-15.1-5.5-19-10.4c-3.9-5-6.8-22.4-1.8-36.2c5-13.8,7.3-15.6,9.4-13.8c2.1,1.8,1.6,32.6-0.5,36
		c-2.1,3.4,2.1-23.7,12.2-30.5s17.5-1.3,10.4,4.4c-7,5.7-19.7,19-19.4,24c0.3,5-0.5-15.9,19.2-18.2c19.7-2.3,15.9,3.8,14.6,5.1
		c-1.3,1.3-27,7.6-26.3,12.8c0.7,5.2,16-10.3,19,0c3,10.3-21.8,3.5-23.6,7.8c-1.8,4.3,17.1,2.2,15.1,9.4
		c-2,7.2-34.8-123.5-37.4-122.9c-3.5,0.9,10.6,48.8,13.4,50.2c2.8,1.3,57.6-32.8,59.5-29c3.1,6.4-72.2,31.2-99.4,42.2
		c-5,2-8.2,7.1-7.8,12.5c1.3,17.6,2.9,49.1,7,48.1c5-1.2-5.7-43.2-7.9-57.5c-1.3-8.4-11-64.7-12.8-54.2
		c-1.9,11.6-22.8,92.6-31.3,119.9c-8.5,27.3-8.3,37.9-0.3,42.7c8,4.9-9.6,10.4-7.1,13.2s11.6,7.8,22.2,2.4
		c10.6-5.4,11.5-9.7,15.3-9.7c3.8,0,2.1,13.6,14.1,9.6c12-4,22.6-14.4,18.8-18.4c-3.8-4-24.8,20.2-20.2,27.5s29.7-22.1,25.2-25.2
		c-4.5-3.1-28.1,29.9-14.9,40c13.2,10.1,21-32,18.4-37.5c-2.6-5.6-11.3,38.2-1,39.4c10.3,1.2,19.6-20.8,6.3-37.7
		c-13.4-16.9,6.3,28.1,14.6,26.9c8.3-1.2,16.2-10.6,10.1-15.6c-6.1-5-26.2-20.9-28.8-18.3c-2.5,2.6,26.1,21.5,36.2,14.7
		s7-19.7-0.9-21.9c-7-1.9-35.3-3-36.3,3.1c-1,6.1,39.3-5.9,35.6-14.2s-39.2,4.5-35.7,8.7c3.5,4.2,38.5-15.6,34.7-24.2
		c-3.8-8.5-40.2,15.5-36.7,21.9c3.5,6.4,40.4-29.2,15-40.3c-25.4-11.1-22.3,37.9-18,40.3c4.3,2.4,1.7-43.1-6.7-37.9
		c-8.3,5.2-4.5,37.4,1.7,38c6.3,0.7-2.1-45.7-18.8-28.8c-16.7,16.9,13.6,35.4,17,31.3c3.4-4.1-22.6-23.1-25-8.3
		c-2.4,14.8,24,19.3,25.2,13.7c1.2-5.6-25.2-5.8-25.5,6.9s32.3,1.2,28.8-5.6c-3.5-6.8-20.2,12.3-33.2,3.6c-13-8.7-13.4-17.4-17.2-17
		c-3.8,0.3,3.5,12.3,5.6,16c2.1,3.6-3.5-15.1-12.2-17.4c-8.7-2.3-0.5,15.2,0.5,14.9c0.7-0.1-6.3-35.6-14.3-21.8
		c-8.1,13.8-61.2,153.2-66.4,151.7c-5.2-1.6,19.9-20.1,35.7-17.2c10,1.9,14.2,4.6,15,5.2c0.9,0.6-0.4-6.6,0.4-13.8
		s3.5-11.6,4.1-19.4s5-2.6,4.8,1.7c-0.2,4.3,4.7,13.2,2.6,20.3c-2.1,7.1-7,12.6-7,12.6s8.7,0.8,15-1.1c6.3-1.9,11,1.9,11.1-1.4
		c0.1-3.3-4.3-8.1-3-13.9c1.3-5.8,7.4-11.4,9.6-18.2s2.3-9.7,4.9-7.6c1.2,1,6,6.9,6.8,14.5c0.9,8.4,1.2,18.1-4,18.9
		c-3.3,0.5,7.1-5.3,11.3-9.6c4.2-4.3,11.6-15.2,11-20.9s-9.3-15.6-8.9-19.9c0.4-4.3-5.7-8.2-1.6-9.9s7.2,2.7,9.6,8.6
		c2.5,5.9,7.9,11.6,7.6,19.5c-0.4,7.9-0.8,13-3.7,13c-3,0,1.6-4.6,8-4.3c6.4,0.3,14.6,2,15.3,0.7s1.8-4.8,3.5-4.8
		c1.7,0-2-6.9,0-10.7c2-3.8,10.9-4.3,12.8-1.3c1.8,3,11.7-2.1,13.8,1.4c2.1,3.5,2.2,10.2,1.2,11.1c-1,0.9,6.6,2.9,4,10.9
		c-1.4,4.5-11.7,10-18.4,10c-6.6,0-6-6.5-6-6.5s-9.3,2.9-11.1-3.8c-1.8-6.6-5.5-3.5-3.9,1c1.6,4.6-3.1,10.3-10,10.4
		s-10.9-4.6-13-2.9c-2.1,1.7-12.9,12.6-24,15c-11.1,2.3-0.5-7,10,4.3c10.6,11.3,9.9,17.1,8.5,18.2c-1.4,1.2-17.5,0.5-23.6-5.9
		c-6.1-6.4-3.8-13.4-5-13.9s1,2.9-7.9,3c-9,0.1-19.3,6.1-18.6,1.7c0.7-4.4,7.2,0.7,9.9,6.3c2.7,5.6,0,16,4.6,15.8
		c4.6-0.3,20.1-1.3,22,12.1c2,13.4-13.2-1.6-17.3-1.7s8.5-6.8,12.1,3.1s7.3,17.7,4.2,19.3c-3.1,1.6-19.2-8.9-18.8-17.7
		c0.4-8.9,5.7,10.6-1.8,15.5c-7.6,5-4.8,2.1-7.9-5.9c-3.1-7.9-3-14.3-1.2-19.8c1.8-5.5-1.6-19.7-9.4-22.5
		c-7.8-2.9-10.2,0.7-11.1,4.6c-0.9,3.9-9.5,9.6-17.6,5.7s-11.2-13.9-5.7-18.4c5.5-4.4,10.4-10.9,8.3-16.8
		c-2.1-5.9-20.5,15.6-31.1,35.7c-10.7,20.1-25.8,27.9-43.4,40.7c-17.6,12.8-41.3,37.5-55.2,49.5s-16.3,33.7-18.2,47.2
		c-1.9,13.6-21.7,47.5-22.5,60.2c-1.5,23.8,16.5,37.9,14.2,39.1c-2.2,1.2-15.6-13.2-11.5-38.4c2.5-15.2,19.5-48.5,21.7-55.8
		s2.5-25.4,9-38.6c6.5-13.2,13.4-12.3,9.7-24.3c-3.6-12-14.9-16.2-17.5-31.1c-2.6-14.9,19.3-39.3,23.3-53.2
		c4-13.9-11.6-58.2-27.3-93.6C361,386.7,300.3,248.2,286.7,211"/>
</g>
<g id="Layer_12">
</g>
</svg>
