<?xml version="1.0" encoding="utf-8"?>
<!-- Generator: Adobe Illustrator 24.1.2, SVG Export Plug-In . SVG Version: 6.00 Build 0)  -->
<svg version="1.1" xmlns="http://www.w3.org/2000/svg" xmlns:xlink="http://www.w3.org/1999/xlink" x="0px" y="0px"
	 viewBox="0 0 841.9 1190.6" style="enable-background:new 0 0 841.9 1190.6;" xml:space="preserve">
<style type="text/css">
	.st0{fill:none;stroke:#020203;stroke-width:1.5;stroke-miterlimit:10;}
</style>
<g id="Layer_1">
</g>
<g id="Layer_2">
</g>
<g id="Layer_3">
	<path class="st0" d="M496.2,1005.2c-2.7,8.9-8.5,18.8-18.5,23.4c-6.1,2.8-18.8,5.3-30.3,8.5c-13.5,3.7-28.2,7.6-28.7,10.1
		c-2,10.7,7.1,8.5,17.2,8.5c10.1,0,103.9,0.5,111.4-3.3c7.5-3.8,5.2-30.3,0-33.1s-35.4,15.9-58.1,4.8c-17.6-8.6,43.4,3.4,53.4-0.1
		c10-3.5-44.2-27.5-44.2-20.1s58.1,11.5,60.6-2.6c2.5-14.1,2.5-61.7,0-88.8c-2.5-27.1-1.2-101.2-1.4-112.6s4.2-96.4,9.7-111.6
		c1.1-3.2,5.6-2.7,5.5,0.7c-0.7,25.9-5.6,86.4-5.6,99.3c0,18.3,4.9,80.7,5.8,90.8c0.9,10-0.9,72.5,1.4,91.8
		c2.3,19.4,9.9,32.4-2.5,34.4c-12.3,1.9-31.2,2.7-31.6,7.8s22.9,12.5,24.2,7.1c1.2-5.5-2.3-15.2-3.3-10.4
		c-1.1,4.8,17.3,28.4,9.2,37.2c-2.1,2.3-16.4,3.4-17.6,0.9c-1.3-2.5,6.2-10.4-2.1-30.7c-4-9.7,7.5-6.8,11.6-13.2
		c4.5-7,1.8-23.4,1.4-39.7c-0.7-31.2-2.6-76-2.6-90.3c0-14.3-1.2-75.8,0.7-99.6c1.6-19.5,4.2-58.9,5.1-72.6c0.2-3.2,1.4-6.2,3.3-8.7
		l0,0c3.4-4.3,8.8-6.6,14.3-5.9c10.9,1.3,24.4,2.3,26.8-12.6c3.2-19.6,10-92.5,9.2-111.4c-0.9-18.9-8.6-41.8,3.7-68.6
		s21.5-57.8,21.5-77.2c0-19.4,1.9-49.2,6.3-60.1c9.4-22.9,39.5-4.2,47.2-17.3c9-15.2,14.5-44.2,8.1-55.7c-6.3-11.5-33-37.2-46-32.8
		c-9.4,3.2,4.1,21.7,4.5,22.2l0,0c1,1.2,11.2,15.7,14.1,28.1c4.3,17.9,3.6,41.7,0.4,40.8c-6.1-1.8-30.9-2.2-38.2-3.2
		c-7.3-0.9-15-23.9-4.6-22.8c10.5,1.1,16.8-9.4,16.3-13.3c-0.5-3.9-19.5-6.5-20.4-11.6c-0.9-4.8,14.9-11.1,25.7-15.4
		c1.4-0.5,2.6-1.5,3.5-2.6v0c3.4-4.6,1.3-11.3-4.3-12.7c-4.4-1.1-9.8-1-15.3,0.6c-12.7,3.7-24.5,4.1-28.7,3.3
		c-4.2-0.7-1.6,7.2-3.5,11.8s-3.3,0.2-4.4,2.1c-1.1,1.9-5.3,0.9-5.1,4.6s-8.1-1.6-10.8,5.8c-2.6,7.4,11.2,29.4,5.9,39.3
		c-5.3,9.9-26.3-23.3-29.9-50.6c-2.1-16.3-3.6-33.5-5.9-46.8c-0.5-3.1-0.1-6.3,1.4-9.1l0,0c0.7-1.4,1.7-2.8,2.9-3.9
		c6.9-6.4,14.8-8.8,14.6-4.2c-0.2,5.1,1.2,18.9,8.5,18c2.8-0.4,2.9-1.6,4.5-1.7c4.2-0.2,7.3,3.8,7.9-0.9c0.4-3.2,2.5,2.3,4.6,1.4
		c2.1-0.9,7.4-5.8,7.1-2.1c-0.5,5,1.4,11,8.6,4.2c3.3-3.1,14.1-5.5,17.3-5.5s23.6-4.1,26.3-11.8s8.5-37.2-4.8-52S605,166.7,591,187
		c0,0-32.4,28.9-27.1,44.5s7.5,20.3,10.3,30.8c2.8,10.5,21.2,56.2,18.7,60.4c-2.5,4.2-14.9-19.2-19.5-31.8
		c-7.4-20.4-14.6-73-28.9-89.3c-7.6-8.7-14.6-18.1-11.9-20.5c5.3-4.9,35.6-8.3,42.1-12.7c6.5-4.4,24.3,5.5,27.7,11.1
		s14.3-13.3,23.3-9.2c15.3,7.1-6.5,16-3.9,21.9s32.3,3.2,36.8,9s1.1,17.1,5.6,19.4s14.8-23.1,13.9-44.1c-0.9-21-18-40.7-40.5-41.6
		s-49.9,5.6-59.2,14.6s-3.2,14.9,1.2,19.8c4.4,4.9-45.7,9.6-65.6,22.1s-37.9,36-41.1,52.2c-3.2,16.2-3.3,42.1-2.3,48.7
		c1.1,6.5,37.4-29.1,41.6-18.2c4.2,10.9-34.1,1.6-39.7,14.1c-2.5,5.5,1.8,49.2,1.6,55.7c-0.2,6.5-18.9,32.4-43.7,47.9
		c-24.9,15.5-19.7,43-18.9,50.6c0.9,7.6,10-13.2,32.1-16.5c22.1-3.3,42.3-4.7,58.3-17.6c16-12.9,46.1-61.5,59-58
		c10.2,2.8,58.7,5.8,75.2,11.7c16.5,5.9,22.6-0.5,39.8,3.6c8.9,2.1,18.4,8.3,27.5,13.2c9.3,4.9,15.4,19.6,15.9,30.6
		s-4.2,23.5-15.3,24.7c-11,1.2-10.1-3.5-8.9-5.9c1.2-2.4,6.8,0.7,10.1-9.6c3.3-10.3,0.5-19.8-3.5-16.1s0.5,14.5,3.8,15.1
		c3.3,0.5-0.1-4.3-10.7-12.4s3.3-15-7.2-21.3s-36.5-4.6-38.1-9.7c-1.6-5.1,5.6-21.2,27.5-9.8c5.5,2.9,20.8,14.6,24.9,15.3
		s7.3-20.4-9.1-29.8c-8.1-4.6-13.3-7.1-36.5-7.6c-23.3-0.5-53.2-12.6-67.7-12.6c-9.8,0-19.4,7.9-31.1,15.6
		c-4.6,3-22.8-34.6-27.5-43.7c-4.7-9.2-30.8-52.7-21.6-56.1s9.7,18.5,13.8,40.8c4.1,22.3,32.8,60.4,31.4,62
		c-3.3,3.9-7.8,6.9-11.3,10.9c-14.6,16.6-44.2,51.2-58.5,56.5c-14.3,5.3-33.1,5.9-42.5,8c-9.3,2.1-26.9,14-37.5,27.9
		c-10.7,13.8-16.4,19.4-9.9,25.9c6.5,6.5,25,17,46.4,12.3s113.1-27,130.9-49.4c17.9-22.3-39.8,27.4-75.8,40.8
		c-36,13.4-94-17.6-102.6,4.8c-8.6,22.4,12,33.3-7.6,25c-19.6-8.3-1.2-23.3-20.1-24.3s-16,8.1-23.4,2.1c-7.4-6,2.6-16.7-3-26.3
		c-5.6-9.5-103-71-126.4-71s-43.9,11.3-44.8,27.9c-0.9,16.6,0,39.3,12.5,49.7s4.9-12.2-22.7-5.5c-27.7,6.7-30.1,10-18.9,17.3
		c11.3,7.2,7.2-10.9-10.2,4.1c-17.5,15,5.5,31.6,27,29.6s-31-10.8-25.4,0.9c5.6,11.6,24.9,39.8,26.1,58.5
		c1.2,18.7-5.1,28.6-12.2,29.1s-20.8-7.8-13.2,3.3c7.6,11.1,30.3,38.6,41.6,46.7c11.3,8.1,12.9,9.9,6.9,19.9s-13.8,9.3-9.2,14.6
		c4.6,5.3,22.2,5.6,23.4,13.2c1.2,7.6-3,12.5,2.8,16.9c5.8,4.4,11.8,12.9,7.6,21.5c-4.2,8.6,2.8,24.7,10.6,32.3
		c7.8,7.6,28.2,24,35.6,32.4s28.9,11.8,39.7,18.5c10.8,6.7,25.4,19.7,33.3,19s13.6-2.3,15-8.5c1.4-6.2-11.6,0.7-9,15.7
		c2.6,15,10,24.2,14.5,25s23.3-20.1,28.4-39.8c5.1-19.7-15.9,13-3.3,30c12.5,16.9,21.7,22.7,38.8,20.1s37.4-11.3,41.1-20.4
		c3.7-9.2,9-26.6,14.3-22.2c5.3,4.4,19.6-1.6,23.4-12.4c3.9-10.8-3.5-12.3-7.6-24.3s3.9-53.1,3-66.8c-0.4-6-0.6-15.2-2.3-24
		c-2.2-11.5-6-22.6-5.8-27.9c0.7-13.9,5.7-61.6,9.7-89.5c3.8-26.7,8.6-58,14.2-73.2c5.6-15.2,16-42.5,9.5-42.3
		c-6.5,0.2-28.7,174.4-29.7,188.5c-0.4,5,40.5,2.4,49.5,5.1c9,2.7,30.1,14.5,41,10.2c10.9-4.2-38.7-6.6-57.1-6.9
		c-18.5-0.3-32.1-7.1-32.9-3.3c-1.8,8.1-2,17.2,0.1,23.2c1.8,5.1,5.8,20.5,5.7,39.9c-0.2,45.2-7,112.2-3.9,122.8
		c4.4,15.2,6.9,49.4,7.6,69.5c0.6,16.6-4,59.7-1.9,73.6C486,1006.4,497.3,1001.6,496.2,1005.2z"/>
</g>
<g id="Layer_4">
</g>
<g id="Layer_5">
</g>
<g id="Layer_6">
</g>
<g id="Layer_7">
</g>
<g id="Layer_8">
</g>
<g id="Layer_9">
</g>
<g id="Layer_10">
</g>
<g id="Layer_11">
</g>
<g id="Layer_12">
</g>
</svg>
