<?xml version="1.0" encoding="utf-8"?>
<!-- Generator: Adobe Illustrator 24.1.2, SVG Export Plug-In . SVG Version: 6.00 Build 0)  -->
<svg version="1.1" xmlns="http://www.w3.org/2000/svg" xmlns:xlink="http://www.w3.org/1999/xlink" x="0px" y="0px"
	 viewBox="0 0 841.9 1190.6" style="enable-background:new 0 0 841.9 1190.6;" xml:space="preserve">
<style type="text/css">
	.st0{fill:none;stroke:#020203;stroke-width:1.5;stroke-miterlimit:10;}
</style>
<g id="Layer_1">
</g>
<g id="Layer_2">
</g>
<g id="Layer_3">
</g>
<g id="Layer_4">
	<path class="st0" d="M614,1048.6c0,0,8.5-33.2,8-46.9c-0.5-13.7,5.2-23.3,19.2-80.1c14-56.8,41.2-164.1,46.4-186.3
		c5.2-22.2,3.1-31.9,8.1-32.8c5-0.8,12.5-5.8,11.3-9.3c-1.3-3.6-16.3-4.2-16.2,0.7c0.4,17.6,21.9-3.8,26.6-1.7
		c0.7,0.3,6.1-64.8,8.1-93.9c1.9-29.1,3-91.1-1.4-127.1c-4.4-36-14.8-90-20.6-108.4c-5.8-18.4-8-47.2-17.6-47.2
		c-3.5,0-11.6,11-16.1,29c-8,32-12.1,82.2-11.2,104.7c1.5,35.1,12.8,79.1,13.7,96.5s3.3,53.8,3.5,68.9c0.2,15.2,10.4,75.9,14.3,74.6
		c3.8-1.3-16-58.3-16.5-74.4c-0.3-9.1-1.1-26.4-1.7-40.4c-0.2-5.9,0.9-3-1.9-0.9c-5.5,4-21.7,8.9-29.3,12.5
		c-9.3,4.3-15.4,0.8-7.7-2.6s38.9-11.1,38.6-16.1c-0.5-8.5-1.2-17.4-2.5-25.6c-3.8-24.2-13-62-13.5-92.6
		c-0.3-17.3,2.1-72.1,10.6-104.7c6.6-25.1,20.7-31.1,16.5-32.4c-9.7-2.9-30.7-8.6-50.7-13.5c-19.9-4.9-32.6-4.8-38.6-8.1
		c-6-3.3-18.8-17.6-18.7-13.4c0.2,4.2,6.4,35.1,2.7,55.6c-3.7,20.5-10.8,67.3-13,89.8c-2.2,22.5-9.7,87.3-12.6,96.1
		c-2.9,8.8,0.9,33.8,6.4,34.8s-9.7-15.3-4.8-34.1c4.8-18.8,18.7-50.4,21.8-58.8s11.2-31.4,14.2-41s10.8-43.8,10.7-50.1
		c-0.1-6.3-10.9-17.7-13.3-14.5s3.5,6.4,6.2,6.5c2.7,0.1,7.4-2.5,8.7-0.7c1.3,1.7-2.1,7.9,2.3,7.2c4.4-0.6,6.9-5.2,4.1-5.4
		s-5.3-2.4-4.9-3.6c0.4-1.2,6.3,0.5,7.1-1.8c0.8-2.3-4.8-7.3-8.5-4.6c-3.7,2.7,11-0.7,12.2-4.2c1.2-3.5-6.1-7.3-13.5,0.2
		c-7.4,7.5-9.4,6.6-6.4,7.6s7-14.3,16-13.6c9,0.6,15.1,3.5,16-3.8c0.9-7.2-11.4-9.3-19-2.3s-12.3,12.7-10.7,13.6
		s10.6-19.3,16.5-27.4c5.9-8.1,9.4-11.8,8.1-13s-30.3,27-29.6,38.7c0.2,3.1,13.9-21.6,14.7-28.3c0.8-6.7-1.9-3.4-4.6,0.4
		c-2.7,3.8-3,8-5.9,8.4c-2.8,0.5-2.1-9.1-3.8-9.2s-1,18.2-1.2,21.8c-0.2,3.6-13.3-14-15.2-19.5c-1.9-5.5,7.7,0.2,9.9,3.1
		c2.2,2.9,4.8,16.5,3.6,21.3c-1.3,4.8-3.6,18.4-7,25.3c-3.4,7-7.6,11-4.8,11.7s6,2.1,7.5,4.1s5.4-7.7,5.6-13.2
		c0.2-5.5,15.7-51.5,14.5-62.1c-1.2-10.6-1.4-16.5-10.4-19.9c-9.1-3.4-19.7-15.3-25.8-22.6s-13.9-20.1-13.4-39.6
		c0.5-19.5,2.1-47.7-3.8-57.3c-5.9-9.6-24.4-28.4-45.8-30.6c-21.4-2.2-44.6,5.3-63.5,17.7c-18.9,12.4-27.3,24.2-24.7,30.1
		s10.2,9.8,15.2,15.6s8.5,15.8,7.7,22.5c-0.8,6.7-1.8,5.9-3.5,14.3c-1.6,8.4-2.7,16.3-0.9,16.4c1.8,0.1,7.1-13.8,6.6-17.4
		s-5.6-4.2-7-1.3s2.7,17.4,0.1,22.5c-2.7,5.1-1.6,9.7,2.5,9.3c4-0.4,7.7-1.4,9.3,0.3c1.6,1.6,3.1,7.2,6.4,7.2s4.5,4.2,3.5,6.8
		s-0.9,3.8,2.7,5.8c3.6,1.9,1,9,4.2,13.6c3.2,4.7,6.6,5.2,12.7,3.6c6.1-1.6,15.4-9.3,24.2-5.5s26,13.4,29.5,10.7s13.4-12,20.1-18.3
		c6.7-6.3,25.1-25.1,18.8-23c-6.3,2.1,7.7,6.4,3.4,12.3c-4.3,5.9-19.6,20.7-24.6,25.5c-9.5,9.1-23.1,7-22.9,12.3
		c0.2,4.9,2.7,7,6.7,5.9c4-1.1,6.4-3.7,5.3-7.6c-1.1-3.9-13.3-0.8-23.4-5.9c-10.2-5-12.5-6.2-12.9-4.5c-0.4,1.7-0.5,10.4,1.1,13.9
		c1.6,3.5,0.4,9.3,3.7,11.3s20.6-7.3,25.5-8.9s27.8,9.9,32.6,10.3c4.8,0.5-2.5-27.4-5.9-29.8c-3.5-2.5-24.3,12.4-23.4,15.2
		c0.9,2.7,23.8-7.4,31.1-14.6c7.3-7.2,13.3-12.5,15.2-9.2s4,26.3-2.6,53.5c-4,16.7-9.8,66.9-11.2,82.1c-1.4,15.2-9.6,66.7-13.2,50.3
		c-3.6-16.5-20.9-76.4-29.6-100.3c-8.8-23.9-23.4-73.1-23.9-77.5c-0.5-4.4-1.4-4-4.3,2.8c-2.9,6.9-14.8,21.3-18.8,25.4
		s16.3,11,15.2,6.8c-1.1-4.2-18.7,12-16.7,16.1s51.6,99.9,59,112.8c7.4,12.9,17.6,37.3,16.2,45.3c-1.4,8-1.6,47.1-13.7,50.2
		c-12.1,3.2-14.4-1.4-20.4,4.5s-10.7,11.4-11.3,21.1c-0.5,9.7,2.1,30.6-0.1,36.8s2.9,4.9,4-0.8c1.1-5.8,9.6-16.6,7.7-20.2
		c-1.9-3.6-9.5-4.3-9.9-1.9s11.3,0.1,15.4,3.6s5.9,10.3,20.4,14.5s16.3,4.2,19,5.6c2.7,1.4,6.6,5.9,11.2,7.6
		c4.6,1.7,10.8,2.3,13.4,3.1c2.6,0.8,12.7,1.6,12.7-1.2c0-2.8-3.1-4.7-7.5-5.3c-4.4-0.6-9.6-3.3-13.3-4.8c-3.7-1.5-7.8-3.6-6.9-4.9
		c1-1.4,7.5,0.3,10.4,1.5s8.8,4.6,14.5,5.4c5.8,0.8,22.2,6,22.2-0.3c0-6.3-10.4-5.2-12.6-6.9c-2.3-1.6-10-4.7-14.2-5.2
		s-10.4-3.4-9.7-4.3c0.7-0.9,9.9,1.3,13.3,2.5s8.6,2.9,11.6,2.9s12.2,6.2,16.7,6.4c4.5,0.2,4.9-5.2,3.4-7.9
		c-1.5-2.7-7.2-4.4-13.6-6.9c-6.4-2.5-6.9-4-12.4-4.7c-5.6-0.8-13-2.5-13.2-4.9c-0.3-2.4,4.4-2.5,8.7-1.8s7.1,2.3,12,2.3
		s15,3,19,2.5s3.6-4.9,1.8-7.5c-1.9-2.7-9.2-3.7-15.5-5.1c-6.3-1.4-8.4-3-13-3.6c-4.6-0.7-15.6-3.6-19.6-6.5c-4-2.9-11.9-6.7-11-9.7
		c0.9-3,8.4-3,12.9-3.6c4.5-0.6,14.5-11,14.6-15c0.1-4-2.5-6.9-4.9-5.9c-2.5,1-2.6,5.6-10.4,7.6c-7.8,2.1-17.4,1.4-21.2,0.5
		c-3.8-0.8-13.1,4.1-16.5,6.4s-17.9,5.2-22.1,4.5c-1.6-0.3,1.9-6.5-1.3-9.1c-3.2-2.7-5.7-3.3-6.3-2.1c-0.6,1.2,0.3,4.9-1.5,7.2
		c-1.7,2.3-8.6,7.8-5.5,10.9c3.2,3.1,6.3-0.5,5.9-2.2c-0.4-1.6-7.4-4.8-11.3,2.4c-3.9,7.1-11.9,12.3-15.7,15.6
		c-3.8,3.2-7.6,2.5-7-1.2c0.6-3.7,9.6-10.4,12.4-14.3c2.8-3.8,14.6-19.2,12.5-20.6c-2.1-1.4-4.9,12.7-11,19.9S478.9,586.6,476,590
		c-2.9,3.4-6.7,5-8.1,3.9c-1.4-1.1,8-10.2,12-13.4c4-3.2,11.3-10.2,12.5-17.1c1.3-7-0.7-13.8,1.9-13.9c2.7-0.1-1.3,13.8-7.3,21.1
		c-6,7.3-17.4,23.9-19.3,18.2c-1.9-5.7,1.4-10.6,3.9-14.3c2.6-3.7,7-11.5,7.7-16.5c0.7-4.9-2-10.4-0.1-11.4c1.9-1,2.1,13.5-1.5,9.4
		s-6.6-8.8-5.2-9.3c1.4-0.5,2.6,9.3,2.7,12.3c0.1,2.9,2,12.9-4.7,14.9s-4.4-6.1-5.6-9.2s-5.5-10.1-3.8-14.2c1.6-4.1,5.1-6.2,1.6-8.5
		c-3.5-2.3-14-3.4-16.3-9.3s1.6-11.9,3.8-10.2s4.4,4.7,9.5,4.4c5.1-0.3,16.1-2.6,20.1,0.1s7.3,8.2,16.7,11.6
		c9.4,3.4,17.9,6.7,18.1,14.1c0.2,7.4-6.8-8.2-17.6-15.7c-11.4-8-24.2-13.7-25.9-20.7c-1.7-7-2.8-18.6-11.4-36.7
		c-8.6-18.1-18.1-69-24.3-88.2c-6.2-19.2-17-42.1-11.9-47.6c5.1-5.5,18.8-5.7,30.9-13.2c12.1-7.5,35.9-27.8,39.2-25.2
		s-72.6,33.5-77.1,43c-4.5,9.5-7.2,47-1.7,56.2c5.5,9.1-33.7-54.3-42.4-54.9c-8.8-0.5,17.6,3.5,30,9.7c12.4,6.2,11.3,43.7,16.5,51.6
		c5.1,7.9,19.8,28.7,20.3,50.3c0.5,21.6-16.6,35.1-24.9,43.5c-8.2,8.4-13.2,35.9-9.5,43.2c3.7,7.3-57.3,9-84.7,7.7
		c-27.4-1.3-57.4-6.6-57.4-2c0,11.2,7.5-6.1,4.8-15.1s-9.1-60.7-8.6-76.3c0.4-15.6,8.2-53.2,4.4-55.6c-3.8-2.3-8.2,53.4-2.1,42.5
		c6.2-10.8,4.1-15.8,10.8-25.5c6.7-9.7,11.1-18.5,7.1-34.3s-10.6-34.3-13.9-34.9s-19.8-1.8-20.4-7c-0.7-5.2,1.5-6,9.2-7.8
		s13.7-6.3,16.2-2.1s4.8,9.6,8.5,8.2c3.7-1.4,5.4-3.8,5.2-1.9c-0.1,1.9-2.6,7.4-4.5,9.3c-1.9,1.9,3.2,4.8,7,4.1s4.4,3.2,1.9,4.9
		c-2.5,1.8-2.7,2.3-1.6,4.8c1.1,2.5-1.2,6.6,0.1,7.4c1.4,0.8,11.7-3.8,16.5-0.3s6.3,8.6,4.7,12.6c-1.6,4,2.9,6.2,4.9,7
		s3.6,4.9,3.4,7.8c-0.1,2.9,0.7,4.4,4.3,4.8c3.6,0.4,3.3-7.8,6.7-8.1c3.4-0.3,2.5,4.7,2.1,6.2c-0.4,1.5-1.6,3.8,4.3,4.4
		c5.9,0.5,8.2-2.3,8.2-6.2s1.2-5.8,4-3.7c2.7,2.1,1.2,6.4,2.9,6c1.7-0.4,4.9-8.4,4.8-11.3c-0.2-2.8,2.3,0.5,4.8,0.7
		c2.5,0.2,5.2-1.9,5.8-0.3c0.5,1.6-2,6.9-4.9,8.9c-2.9,2-2.9,3.9-1.4,5.6c1.6,1.6,3.8,5.7,2.5,7.9c-1.3,2.2-8,2.6-9.1,7.6
		c-1.1,5-0.4,6.1,3.2,6.2s12.3-0.5,14.6,0.5c2.3,1.1-2.8,2.8-5.9,3.4c-3,0.5-1.7,3.9,1.1,3.5c2.8-0.5-1.8,1.8-2.1,5
		c-0.3,3.2,1.5,5.8,2.7,9.1c1.3,3.4-0.1,7.7-2.5,8.2c-2.4,0.5-0.9,5.4,0.4,6.7s3,3.8,0.9,8.4c-2.1,4.7-1.2,9.6-0.5,12
		c0.7,2.4,0.3,3.7-0.4,6.8c-0.6,3.1,1.6,7.2,2.7,11.4c1.1,4.2-1.4,12.8,0.4,13.1c1.7,0.3,1-10.1,2.1-13.2c1.1-3.1,3.3-9.5,3.3-12.3
		s-2.7-3.4-2.6-5.6c0.2-2.2,4.3-4.4,5.6-9s-0.7-12.7,0.4-14.4c1.1-1.6,5.9-0.8,6.5-3.1s-3-3.3-2.8-5.4c0.2-2.1,4.3-3.5,4.3-6.7
		c0-3.2-4.1-4.2-3.4-6.7s1.6-11.6-0.1-15s3.3-8.3,4.7-9.1c1.4-0.7,1.6,5.3,1,8.6s2.1,2.7,5.4,1.1c3.3-1.6,7.5-0.5,6.7-5.3
		c-0.8-4.8-3.2-6.4-8.2-8.4c-5-2-9.9-5.3-9.7-7.7s7,0.1,9.8-0.4c2.8-0.5,0-6.2-1.9-9.3c-1.9-3.1-6.6-4.8-7.3-7.2
		c-0.7-2.4,5.5,0.5,4.3-2.2c-1.2-2.7-6.3-6.1-6.7-10c-0.4-3.8,5.5-7.4,6.6-5.8c1.1,1.6-2.2,5.5-1.1,7.7c1.1,2.2,5.6,7.8,9.1,8.3
		c3.5,0.5,7.2,6.3,8.8,8.9s4.8,7.8,6.8,6.6c1.9-1.2,5-5.9,2.7-9.7c-2.4-3.8-18.4-36-24.8-37.6s-16.1-8-16.6-16.7
		c-0.5-8.6,3.3-18.3,8.1-19.3c4.8-1.1,14,3,20.3,6c6.3,3,13.3-1.5,14.3-5.1s-1.4-7.4,0-10.3c1.4-2.9,2.7-4.9,2.5-6.7
		c-0.3-1.8,2.7-4.3,4.9-5.1s4.3-7,6.2-7.5c1.9-0.5,7.8-0.8,8.9-5.1c1.1-4.3-4.4-10.6-3.4-17c1-6.4,3.8-9.2,3.3-15.2
		s-0.3-13.3-8.7-9.3c-8.4,4-26,5.9-35.9,0.9s-16.6-2.9-16.8,2c-0.2,4.9,1.3,21.2-5.3,40.1s-13.2,24.5-7.3,35.3
		c5.9,10.8-2.7,29.1-12.3,31.5c-9.5,2.4,7.5-27.8,2.4-41.7s-11.3-19.6-7.3-32.8s29.1-25.1,27.6-34.8c-1.5-9.7-13,18.1-19,29.8
		s-14.8,11.9-23.8,4.9c-9-7-32.8-22.2-29.3-33.2c3.5-11,13.4-23.9,17.8-20.6s33.2,19.5,28.8,32c-4.4,12.4-26.2,43.5-34,47.4
		c-7.9,3.8,22.3-53.2,45.6-67.7c23.2-14.5,53.1,13.8,73.4-2.2c9.5-7.5,9.4-19.2,1.7-32l0,0c-1.1-2.1-0.5-4.7,1.5-6
		c22.9-15.4,38.9-5.1,40.9,0.6c2.1,6-3.8,15.1,3.3,17.8c7.1,2.7,12.9,10.3,13.9,22.5c1.4,17.6,10.3,8.8,9.6,5.9
		c-1.3-5.7-0.3-15.8,4-25.1c4.3-9.3,10.2-15.5,17.8-8.1c7.7,7.4,17.7,30.6,26.1,35.3c8.4,4.7,8.8-4.1,5.6-18.9
		c-3.2-14.8-32.1-31.4-46.1-31.7s-29.2,4.5-35.3-4.3c-5.4-7.8-27.3,1.3-38.2,8.2c-2.1,1.3-4.8,0.9-6.4-0.9l0,0
		c-0.1-0.1-0.1-0.1-0.2-0.2c-4.5-5.9-10.5-12-18-17.8c-6.4-5.1-35.9-16.3-60.6-9.1c-24.7,7.1-39.2,26.7-39.2,37.9
		s3.1,40.8-14.1,40.8S271,237,257.1,263.9s6,49.8,21.8,49c15.7-0.7,33.1-8.5,30.1-4.5c-2.9,4-2.5,12.2-19.5,19.9
		c-17,7.7-20.2,9.3-32.4,13c-12.2,3.7-26.2,2.2-35.9,15.6c-9.7,13.4-18.3,48.5-17.6,69.3s3.3,72.1,3.1,89.8c0,0-3.6,54.5-7.1,86.9
		c-3.6,32.4,1.1,111.1,0,116.6c-1.1,5.5-4.6,8.7-10.4,16.2c-5.9,7.5-11.5,16.8-10.2,19.4c1.3,2.6,3.3,11,3.5,13.2
		c0.2,2.2,0.7,13.9,2.6,14.8s4.8-3.3,4.4-7.1c-0.4-3.8-7.1,14.6-4.9,19.6c2.2,4.9,3.3,4.8,6.4-0.4c3.1-5.1,10.8-14.5,9.5-17.9
		c-1.3-3.5-11.5,27.4-14.5,33.8c-2.9,6.4-3.1,12.6,1.6,10.4c4.8-2.2,26.9-40.1,30-41.7c3.1-1.6,2.9,18.5,2.9,26.9
		c0,8.4-25.6,5.1-27.4,12.1c-1.8,7,0.2,11-6.2,18.5c-6.4,7.5-7.1,4.8-10.2,4.9c-3.1,0.2-12.3,2.4-10.1,5.3c2.2,2.9,15.2,3.7,19,0.4
		c3.8-3.3-15.9,0.4-17.7,5.9c-1.8,5.5-1,11,2.7,13.3s10.8-2.5,11-8s-13-6.7-22.9,0c-9.9,6.7-11.5,7.4-10,11.7s14-0.9,16.2-5.6
		c2.2-4.7-23.3-1.8-26.9,7c-3.6,8.8-13.9,15.8-20,22.1c-6.2,6.3-2.3,14.3,5.5,16.3c7.8,2.1,13.3,1.6,15.4,5.6
		c2.1,4,7.7-5.2,2.9-12.9c-4.8-7.7-6.4-16.9-15.5-13.2c-9.1,3.7-9.1,34.2-3.6,39.7c5.5,5.5,11.5,7.5,17,5.9
		c5.5-1.6,5.8-8.9,3.8-13.2S124.7,934,131.1,945c6.4,11,23.3,5.5,22.4-0.1s-4.6-9.1-9.7-7.7c-5.1,1.5,6.6,4.4,13.9,0
		c7.3-4.4,6.4-13,7-18.7s1.3-10.1-4.8-17.4c-6-7.3-6.2-18.8-1.8-21.4s12.1,3.1,16.1,10.2s3.3,15-2.4,16.8c-5.7,1.8-18.7-9.1-18.1-22
		c0.6-12.9,17.6-16.8,24-10.8c6.4,6,10.1,12.6,7,22.5c-3.1,9.9-9.3,12.8-13.2,16.3c-3.8,3.5,5.5,11.7,0.9,19.4
		c-4.6,7.7-12.8,4.4-15.2,9.7c-2.4,5.3-5.7,14.1-15.2,16.3c-9.5,2.2-4.4,6,4.9,4.9c9.3-1.1,14.5-4.2,18.5-9.3c4-5.1-6.2-1.3-6.2,11
		s-15.6,15-12.4,18.1c3.1,3.1,27.4-9.7,29.1-21.4s-17.7,21.2-11.5,22.9s22.3-12.3,23.8-18.7c1.5-6.4-0.3,8.6,11.7,7.7l5-0.4
		c1-0.1,1.7,0.7,1.4,1.7c-4.6,17.7-24.1,73.6-25.8,73.6c-1.5,0,22.2-72.6,25.1-74.6c4.1-2.8,9.6-8.8,10.5-14.1
		c1.4-8.1,5.5-21.5-5.2-28c-10.7-6.4-18.7-4.7-23.1-11.9c-4.4-7.3-4-17.3,1-20c4.9-2.7,16.5,1.9,18.9,7.8c2.5,5.9,6.6,19.8-3.2,23.7
		c-9.7,4,2.7-12.3,15.1-11.1c12.3,1.2,2.3,24.3,3.2,31c0.8,6.7-11.1,19.2-7.7,29.4s4.1,3.7,10.8,2.1s10.8-8,5.8-11.9
		s-9.6-7.7-8.6-12.2c1-4.5,5.6,3.7,15,6.3c9.3,2.6,17.3-4.3,18.5-8.8c1.2-4.5-1.1-16.1-5.8-20.7s-23.2,0.8-23.6,9.2s9.2,13.7,17,9.5
		s17.2-14.8,21.3-15.5c4.1-0.7,6.9,10.3,21.1,4.1s10-15.8,2.2-17.6c-7.8-1.8-19.2,0.8-19.6,10.2c-0.4,9.3,36.6-4.1,39.1-14.4
		c2.5-10.3-4.4-18.8-13-14.5s-11.9,18.9-8.4,23.5c3.5,4.6,8.1-18.7,6.2-27.2c-1.9-8.5-1.1-15.6-11.7-11.5
		c-10.6,4.1-16.2,4.4-18.1,9.7c-1.9,5.4,0.7,15.1,8.6,14c8-1.1,23.6-11.9,21.8-20.4s-11.4-21.8-24.4-19.6c-13,2.2-16,15.8-7.7,18.1
		c8.3,2.3,18.1-5.2,17.3-10.8c-0.8-5.6-20.9-0.5-28.8-0.7c-8-0.1,4-9.7-1.9-12.3c-5.9-2.6-11,6.2-19.5,6.9s-9.1-7.3-13.3-3
		c-4.3,4.3-11,9.7-7.7,15.5c3.3,5.8-1.5,7.8-1.2,11.8c0.3,4,5.9,7.5,7,11.9c1.1,4.4,11.7,1.5,19.1,4.1c7.4,2.6,7.4,7.3,14.1,0
		s7-3.3,12.1-7.7s8.5-9.9,4.9-13c-3.5-3.2,4.3-30.6,13.7-24c9.5,6.6-7.5-8.8-14.7-9.9c-7.1-1.1-10.8-9.1-8.9-11.3
		c1.9-2.2,24.8,6.6,24,10.2s-15.8,3.3-23.2,0.3c-7.4-3-11.9-18.7-4.3-19.2c7.7-0.5,25.9-0.8,27.6,1.4c1.6,2.2-10.2,8-18.4,10.2
		c-8.2,2.2-15.8-0.3-21.5,4.5c-5.8,4.8-15.9,5.2-15.2-0.7c0.7-5.9,26.6-17.2,27.6-11.7c1,5.5-16.1,22.1-29.4,22.2s-19.8-4.9-9.7-8.2
		c10-3.3,0.7,12.5-10,11.9c-10.7-0.5-17.3-17-1.9-24.2s38.4-2.6,43.8-5.5c5.4-2.9-9.7-5.1-15.4-12.5c-5.6-7.4-13.2-16.5-11.8-27.4
		s10.7-1.5,13-5.4c2.3-3.8-2.9-8.1-1.8-16.2c1.1-8.1,9.3-14,9.1-21c-0.2-7-1.3-20.9-4.2-29.5s-3.7-43.9-0.9-60.4
		c2.7-16.5,10.8-57.6,13.5-77.2c2.7-19.6,9.3-31.8,9.7-65c0.4-33.1,3.4-60.9,3.7-48.5c0.4,18.8,7.1,54.2,4.8,67.4
		c-2.4,13.2-11.3,58.9-18.5,58.2c-7.3-0.7,14.4-44.3,20.2-43.8c5.8,0.5,34.8,3.1,62.6,3.3c27.8,0.2,82.3-0.1,80.5-6.6
		c-4.1-15-4.1,1,4,14.9c8.1,13.9,33.8,65.3,35.2,115.1c1.5,49.8-4.9,70.7-21.2,119.7c-40.8,122.5-5.9,231.2-9.9,236.8
		c-4,5.5-43.8,4.9-39.2-4.8c17.8-37,15.6-188,46.1-281c19.8-60.3,10.6-131.9-5.5-157.7c-2-3.1-13.1-20.2,14.4-3.7
		s46.9,28.4,53.4,29.4c6.5,1,9.2-41.9,4.5-34.7c-4.8,7.2-10.7,31.5-0.2,38c10.5,6.5,14.5,9.1,14,6.3c-0.5-2.8-45.9-33.8-45.7-17.1
		c0.2,16.6-1.8,55.1-3.7,72.1c-1.9,17-5.9,30.6-1.1,32.5s35.3,10.2,48.6,9.7c13.3-0.4,27.6-9.7,40.1-35
		c12.5-25.2,22.8-62.2,24.2-59.8c1.4,2.3,10.6,5.5,13.4,6s7.1,22.2,19.1,39s37.7,39.9,54.1,38.8c16.3-1.1,36.1-24.9,38-29.5
		c1.9-4.5-23.9,26.8-38.5,26.3c-14.5-0.5-39.7-20-51.3-36c-11.5-16.1-15.4-25.1-24.7-25.1c-9.3,0-19.6,1-15.9,3.2s12.8-8.1,12.5,1.4
		s2.6,79,5.6,79.2c3,0.1,17.7-3.8,17.2-21c-0.4-11.3,0.7-34.2-4.4-47.8c-0.3-0.8-11-14.1-14.8-10.9c-13.3,11.3,2.9,99.9,1.2,121.9
		c-1.3,17.1-3.6,66.6-3.7,78.1c-0.1,11.5,1.8,63.3,3.6,78.2s8.5,74.2,11.7,88.9c3.2,14.7-17.4,21.3-33.3,18
		c-15.9-3.3-43.4,4.8-43.2-1.6c0.1-6.4-1.6-65.7-4.7-88.2c-3-22.5-12.9-60-19.5-80.3c-6.6-20.3-22-70.5-25.1-91.5
		c-3.2-21-9.5-41.4-9-55"/>
</g>
<g id="Layer_5">
</g>
<g id="Layer_6">
</g>
<g id="Layer_7">
</g>
<g id="Layer_8">
</g>
<g id="Layer_9">
</g>
<g id="Layer_10">
</g>
<g id="Layer_11">
</g>
<g id="Layer_12">
</g>
</svg>
