<?xml version="1.0" encoding="utf-8"?>
<!-- Generator: Adobe Illustrator 24.1.2, SVG Export Plug-In . SVG Version: 6.00 Build 0)  -->
<svg version="1.1" xmlns="http://www.w3.org/2000/svg" xmlns:xlink="http://www.w3.org/1999/xlink" x="0px" y="0px"
	 viewBox="0 0 841.9 1190.6" style="enable-background:new 0 0 841.9 1190.6;" xml:space="preserve">
<style type="text/css">
	.st0{fill:none;stroke:#020203;stroke-width:1.5;stroke-miterlimit:10;}
</style>
<g id="Layer_1">
</g>
<g id="Layer_2">
</g>
<g id="Layer_3">
</g>
<g id="Layer_4">
</g>
<g id="Layer_5">
</g>
<g id="Layer_6">
</g>
<g id="Layer_7">
</g>
<g id="Layer_8">
</g>
<g id="Layer_9">
</g>
<g id="Layer_10">
</g>
<g id="Layer_11">
</g>
<g id="Layer_12">
	<path class="st0" d="M772.2,477.4c0,0-62.2,5.3-82.6,1.8c-20.3-3.5-61.4-9.7-109.5-9.7c-48.1,0-94-0.3-105.5,7.3
		c-11.5,7.6-47.9,31.5-63.5,41.7c-15.6,10.3-50.7,39.1-60.9,45.4c-8.5,5.2-37.2,19.5-30.6,27.4c6.6,7.8,14.2,11.9,26.6,6.2
		s9.3-26.4,0.8-27.9c-2.4-0.4-7.3,1-9.5,1.9c-13.2,5-26.6,16.6-25.4,23.8c1.8,10.3,14.1,26.2,31.3,23.3s66.1-21.2,70.9-28
		c4.8-6.8,5-7.8,9.3-8.4c4.3-0.7,24-3.3,30.6-8.9s16.9-20.4,14.4-29c-2.5-8.6-7.1,17.4,1,21c8.1,3.6,28.5-27,22.5-29.5
		s-20.9,32.8-13.1,37.7c7.8,5,45.7,23.2,83.1,27.1c22.9,2.4,63.8-4.2,89.4-13.8c9.8-3.7,15.9-42.1,9.4-33.9
		c-61.8,77.7-190.3,31-186.2,25.4c5.3-7.3,73.6,75.9,89.3,73.5c8-1.2-155-80.1-120.4-65c12,5.2,66.5,49.3,78.3,89.8
		c12.6,43.2,25.4,60.5,21.7,61.3c-11.3,2.4-48.3,8.6-54.1,3.4c-8.6-7.8-24.6-44.5-34.7-45.9s-43.8,8.2-46.8,15.5
		c-3,7.3,19.9,45.8,24.4,44.4c4.5-1.4-24.6-47.2-30.5-44c-5.8,3.2,23.6-7.2,35.4-11.3c22.2-7.7-13.7-43.8-20.2-47.7
		c-6.5-3.9-27.1-1.1-26.3,3c0.9,4.1,20.2-3.5,18.1-10.7c-2.1-7.2,3.9-43.8,3.4-47.8s-16.9,2.8-20.4,11.3c0,0-4.9,15.6-1.2,22.4
		c3.6,6.8,14.2,7.5,16.2,2.5c2-5,5.8-28.7,1.7-29.6c-1.9-0.4-18.3-11.7-19.6,7.8c-0.8,11.9-0.3,31.9-0.4,35.5
		c-0.2,6.5,3,26.8,3.8,31.3c0.8,4.5,6.6,51.2-0.4,50.4c-7.1-0.8-16.6-0.6-18.7-15c-2.1-14.5-3-31.3,8.6-32.1
		c11.9-0.9,12.5,19.7,9.6,31.3c-2.6,10.5-14.2,12.8-17.1,11.6c-6.2-2.5-9.7-16.7-9.8-24.5c-0.1-7.8-4.7-20.6-4.4-29.5
		c0.3-8.8-12-49.3-6.8-50.2c5.2-0.9,6.3,59.7,8.2,69.4c1.9,9.7,1.9,22.5,5.6,30.4c3.8,7.8,9.8,43.3,4.5,44.6
		c-5.3,1.3-14.9,1.7-18-2.9c-3.1-4.5-13.2-42.8,3.2-45.5c8.6-1.4,15.5,20.3,11.5,32.4c-3.7,11.1-17.7,12.7-21,11.4
		c-6.7-2.8-21.5-26.5-24.3-39.6c-2.8-13.1,6.5-32.4,3.5-48.5c-3-16.1-15.9-63.1-17.7-72.8c-1.8-9.8-21.4-36.3-26.2-41.7
		c-4.8-5.5-27.5-28.5-22.8-32.1c4.6-3.6,37.2,55.4,43.3,65.1s14.6,53.6,16,58.1c1.4,4.5,5.3,20.9,6,25.3s-4.4,39.2-4.9,43.9
		c-0.5,4.6-6.9,23.4-7.2,27c-0.3,3.6-13.4,5.3-14.9,0.2c-1.5-5.1-3.6-46.5,13.8-46.2c8.7,0.1,9.4,18.4,3.3,28.3
		c-6.2,9.9-19.3,11.4-24.7,4.7c-10.8-13.2-11-28.9-10.6-42.4c0.4-13.5,0.8-17.9-4.3-23c-5.1-5.1-7.8-13.7-12.3-24.6
		c-4.4-10.9-5.7-20.5-10.2-27.8c-4.4-7.3-45.8-39.8-48.1-34.2c-2.3,5.6,21.5,5.7,22.2,8.8c0.7,3.1-0.6,28-8.4,23.6
		c-7.8-4.4-77.4-41.3-74.7-45.6c2.6-4.3,77.3,46.2,84.1,52.5c6.8,6.3,7.8,10.2,11.8,7.4s15.3-5.4,13.7-8.1s-18,6.7-20.6,14.6
		c-2.6,7.9-2.3,22.8,4.3,29.8c6.6,7,38.8,12.7,36.8,7.4c-2-5.2-25.8,8.6-25.8,23.8c0,15.2,10.1,29.6,32.9,29.6
		c3.7,0-9.4-0.9-19.7-7.9c-9-6.1-8.2-17.3-13.4-13.8c-3.6,2.4-7.9,4.2-10.7,4.5c-13.5,1.3-20.3-10.9-21.3-16.4c-1-5.5-5.5-11-2-24.6
		c3.5-13.6,19.6,9.4,17.4,15.5s-5.5,9.8-5.5,14.9c0,5.1,2.2,10.7-3.7,4.2c-6-6.5-5.5-18-15.2-25.1c-9.8-7-12.2-12.5-21.7-17.8
		c-9.5-5.3-23.6-10.2-39.1-19.2s-25.2-30.2-35.8-50.3s-6.2-43.7-16.1-76.2S65.8,451.6,70.5,431c4.6-20.5,72.2-12.9,106.9,6
		c34.8,18.9,23.5,37.7,54.3,38.1c30.8,0.3,46.7,1.7,54.8,0.8c8.1-0.8,22.7,0.3,31.2,8.8c8.4,8.4,12.7,12.9,17.7,16.1
		c5,3.1,19.2,4.3,36.1,7c16.9,2.6,31.6,16.6,31.1,19s-28.2,25.8-32,25.3c-3.8-0.4-15.2-16.9-17.5-19.5c-4.3-4.8-10.6-4.2-11.8-1.3
		c-0.8,1.9,4.8,2.8,9.3,2.4c2.9-0.2,5.5-2,6.9-4.5h0c2.3-4.1,1.1-9.3-2.8-11.9c-2.5-1.7-6-2.8-10.3-2.5c-10.3,0.7-9.3,5-7.1,7.6
		s14.4,7.3,17.2,6.1s-1.8-10.8-8.9-9.9s-14.6,14.9-18.2,19.7c-3.6,4.8-6.1,8.2-7.6,6.2c-1.4-2-6.8-32.4-9.7-30.4
		c-2.9,2.1,10.5,40.3,14,36.2s16.9-20.9,16.2-23.5c-0.7-2.6-18.9,20.9-14.9,26.8s13.6,19,7.6,22.2c-15.7,8.3-23.7,17.5-21.9,23.6
		c1.9,6.1,16.3,63.6,17.3,72c1,8.4-1.3,30.4-3.1,37.5c-1.8,7.2-17.5,52-22.6,48.7c-5.1-3.3-2.5-9.5,0.1-8.6s-4.5,11.7,7.5,18.1
		c12,6.4,39.6,4.6,52.2,3.8c12.6-0.9,24.8-5.8,40.6-7.3c15.8-1.4,38.5-6.7,45.8-8.9c7.3-2.2,59.5-10.6,73.3-11.7
		c13.8-1.1,66.8-5.7,86.9-11.6c20.1-5.8,56.6-23.4,73.8-34.9c17.2-11.5,26.2-24.5,89-21.7"/>
</g>
</svg>
