<?xml version="1.0" encoding="utf-8"?>
<!-- Generator: Adobe Illustrator 24.1.2, SVG Export Plug-In . SVG Version: 6.00 Build 0)  -->
<svg version="1.1" xmlns="http://www.w3.org/2000/svg" xmlns:xlink="http://www.w3.org/1999/xlink" x="0px" y="0px"
	 viewBox="0 0 841.9 1190.6" style="enable-background:new 0 0 841.9 1190.6;" xml:space="preserve">
<style type="text/css">
	.st0{fill:none;stroke:#020203;stroke-width:1.5;stroke-miterlimit:10;}
</style>
<g id="Layer_1">
</g>
<g id="Layer_2">
</g>
<g id="Layer_3">
</g>
<g id="Layer_4">
</g>
<g id="Layer_5">
</g>
<g id="Layer_6">
</g>
<g id="Layer_7">
</g>
<g id="Layer_8">
</g>
<g id="Layer_9">
</g>
<g id="Layer_10">
	<path class="st0" d="M392.4,217.3c-23.4,15.1-81.9,61.9-105,97.5s-30.6,77.7-37.5,105.8c-6.9,28.1-19.1,75.7-27.4,97.7
		c-8.3,22-25.1,59.5-25.7,84.2s12.7,38.1,24.2,60.5c11.5,22.5,20.5,43.1,28.3,74.4c7.8,31.3,14,22.5,24,45.6
		c10,23,12,35.1,29.5,48.6c17.4,13.5,49,37.2,57.5,40.6c8.6,3.5,39.9,13.6,29.9,6c-9.9-7.5-30.8-19.4-41.2-29
		c-10.3-9.6-36.8-39.2-45.6-47.1c-8.8-7.9-34.4-35.8-32.3-29.4c2.1,6.4,13.6,37.4,20.4,45.7c9.4,11.5,34.4,28.4,60.3,47
		c24.6,17.7,35.6,10.1,49.8,23.5c7.6,7.2,26.8,11.9,30.2-2.1c3.3-14-3.6-41.3-21.2-64.7c-17.7-23.4-26.1-30.3-30.6-37.4
		c-4.6-7-16.5-10.4-25.7,0.2c-9.2,10.5,24.8-1.1,17.6-14.5c-7.2-13.5-27.1-45.9-34.5-51.1s-27.7,7.5-25.4,12.2
		c2.3,4.7,26.8-8.4,25.2-18.2s-5.7-39-15.4-55.5c-9.8-16.5-8.9-24.5-13.9-26.8c-5-2.3-34.1-2.3-34.1,1.7c0,4,35.5,2,37.3-7.2
		c1.8-9.2,3.5-32.1,1.5-37.9c-2-5.8-20.9-17.6-22.5-15.2c-1.6,2.4,10.2,12.2,29.7,7.7c19.5-4.5,62.3,0.8,60.4-7
		c-1.8-7.8-11.7-33.7-26.5-47.6c-14.8-13.9-48.9-48.5-38.8-50.9c4-1,8.2,24.4,24.8,39.7c31.8,29,40.6,61.1,38.9,64.3
		c-3.9,7.5-12.5,33.6-13.3,45.9c-0.4,6.7,5.8,26.8,6.5,35.5c0.1,0.9-1.3,1.1-2,0.6c-7.7-5.3-47.4-32.4-57.1-28.4
		c-3.6,1.5,17.4,2.2,35.5,11.2c7,3.5,15.4,10.3,20.2,16.3c3.4,4.3,5.3,9.6,5.3,15.1c0.1,16.2-0.6,63.4,2.6,79
		c3.8,19,0,25.7,16.4,43.9s27.4,33.5,32.6,45.6s15.1,42.2,4.9,49.5c-8.2,5.9-7,1.9-4.5,6.5c2.4,4.6,10.2,16.3,11.8,18
		c1.6,1.7,2.3,9.2,4.4,15.4s15.9,39.7,25.5,40.2c9.6,0.6,10.9-9.6,9.6-13.3c-1.3-3.7-15.1-30.2-20.5-35.9
		c-5.4-5.7-14.8-8.4-16.6-5.7s35,55,39.6,43.2c4.6-11.8,10.5-22.2,9-36.1s-5.7-26.5-11.2-39.7c-5.5-13.1-22.7-42.3-22.5-54
		c0.2-11.7,58.8,27.5,58.8,54.1c0,26.6-27.3,27.4-32.9,20.5c-3.7-4.5-13.4-35.3-21.5-59.1c-1-2.9-18,3.9-16.8,5.7
		c1.2,1.8,16.6-6.7,15.7-9.2c-3.9-11.1-5.9-20.7-6.3-24.7c-1.5-12.4-10-33-9.5-43.9c0.1-1.2,0-2.8,0.2-4.5c0.4-5-47.9,2.8-38.1,2.9
		c9.8,0.1,37.9-3.4,38.2-6.6c1.5-14.7,1.4-39.3,0.5-46.9c-0.6-4.6,0.8-9.4,2.4-14.4c0.7-2.3-10.1-8.7-24.3-12.5
		c-14.4-3.9-32-5.2-31.6-6.5c0.8-2.5,55.6,18.2,57.6,14.6c1.8-3.4,3.1-7.1,4.3-10.5c3.6-9.5,8.1-27.7,4.8-31.1
		c-3.3-3.3-29.7-7-51.2-39.1c-21.6-32.1-20.7-45.7-23.7-44.1s20,42.5,39.1,59.8c19,17.3,41.3,28.1,62.6,15.1
		c8.7-5.3,14.7-12,16.6-19.7c3.3-13.6-16-53.9-30.9-51.7c-14.9,2.2-40.5,7.8-44.3,29.8c-1.9,11.3,8,31.6,26,35.3
		c16.4,3.4,40.3-8.3,45.1-16c0.4-0.6,0.8-1.3,1.3-1.9h0c3.6-4.5,5.3-10.3,4.3-16c-0.7-4.4-2-8.6-3.8-12.5
		c-7.6-16.5-13.3-34.9-19.9-48.8c-6.6-14-19.5-34.1-25.7-47.8c-6.2-13.8-13-27.6-13.4-47.6c-0.5-19.9,0.9-39.6-7-53.4
		c-7.9-13.9-20.8-37.4-37-42.8c-16.3-5.4,41.2,82.5,49.9,28.9s75.9-145.4,89.2-145.4c3.2,0-45.3,42.8-74.8,94.4
		c-19.6,34.2-19,78.6-18.1,95c0.9,16.6-0.3,28.5,3.3,42.8c5.4,21,16.7,42.5,24,54c12.2,19.3,44.5,70.9,46,101.7
		c1.4,29.2-5.3,51.2-1,76.4c0.5,3.2,0.9,6.5,1,9.8l0,0.2c0.1,3.4,0.5,6.7,1.1,10c1.3,7.1,3.8,19.9,4.9,25
		c2.7,12.7,16.5,29.2,15.7,31.1c-0.8,1.9-8.1-9.5-11-19.3c-3-10-8-33.9-9-42c-0.1-1.2-2-1.7-2.5-0.4c-4.2,11.1-34.3-4.5-32.5,3.4
		c2.1,9.5,28.1,54.1,39.1,61.1c11,7,40.4,25.1,46.5,29.7c0.4,0.3,1.1,0.7,1.9,1.1c2.5,1.2-3.9,17.8-6.8,16.1
		c-2.9-1.7,7.9-15.5,10.2-14.6c16.3,6.1,60.4,20.7,68.1,32c8.9,13.1,6.6,30.2,0,31.3c-6.6,1.1-52.1-3.9-54.6-9.9
		c-4.4-10.4,35.4-11.6,56.1-4c5.8,2.1,1.4,10.6-10.4,11.5c-16.1,1.1-42.9-5.9-49.5-7.3c-8.8-1.9-24.2-4.4-34.5-10.5
		c-2.2-1.3-15.4,13.3-13.4,14.9c2,1.6,14-13.9,11.3-15.9c-1.5-1.1-4-2.3-5.4-3.4c-10.8-8.3-48-45.6-42.1-46.1
		c6-0.5,44.3,11,51.6,21.6c7.3,10.5-2.8,29.8,0,32.7c2.8,2.8,40.9,31,47,39.4c6.1,8.4,13.3,22,8.2,37.3
		c-5.1,15.3-6.1,15.4-12.2,13.5s-45.3-22.8-43-29.6c4.5-13.1,41.3,7.5,52,18.1c8,7.9-53-15.9-61-20.4c-8-4.5-29.5-17.4-28.7-20.2
		c0.8-2.8,7.4-13.7,1.7-26.9c-7.4-17.2-38.4-46.7-56.9-47.3c-1.4,0-1.2-5.6-2.8-13.6c-3.6-17.9-12.1-29.6-7.4-65.6
		c3.1-23.7,11.3-48.6,17.3-37.3c6,11.3,6.3,38.1,13.5,56.1c3,7.5,8.3,18.8,14.6,28.4c2.2,3.4-19.3,26.1-20.8,23.8
		c-2.2-3.3,19.8-25.6,22.1-21.8c7.6,12.4,17.3,26.1,26.6,35.1c8.7,8.4,16.8,19,27.8,25.1c11.8,6.6,26,8.7,32.6,10.2
		c4.2,1,2.3-5.6,17.2-7.4c22.9-2.8,47.8,6.2,46.3-0.8c-2.3-10.7-14-18-13.5-22.6s-0.2-16.3-16.2-31.8
		c-10.5-10.2-22.7-19.5-29.5-25.2c-1.3-1.1-17.2,17.3-15.8,18.4c1.6,1.3,18-15.8,14.6-19.5c-1.3-1.4-4-3.1-4.6-4
		c-3.5-4.5-3.9-31.9-6.5-38.7c-2.6-6.7-25.1-14.1-33.4-0.7s-5.8,42.2,2.7,50.2c8.5,8,29.9,10.3,33.9-3.9c4-14.2,2.4-38.5,3.6-52.8
		c1.1-14.3,4.3-54.6,3.7-66.4c-0.6-11.8,1.7-43.3,3.9-54.2s9.9-50.1,11.9-58.2c2.1-8,6.6-33,4.2-47.3c-1.2-7.1-3.8-20.9-7.9-33.9
		c-4.1-13.3-9.7-25.7-11.8-30.9c-4.3-10.2-18.3-41-18.7-48.2c-0.5-7.2,2.5-29,5.3-36.8c2.8-7.7,15.6-45.8,20.1-55.6
		c4.5-9.8,18.3-39.8,18.3-39.8"/>
</g>
<g id="Layer_11">
</g>
<g id="Layer_12">
</g>
</svg>
