<?xml version="1.0" encoding="utf-8"?>
<!-- Generator: Adobe Illustrator 24.1.2, SVG Export Plug-In . SVG Version: 6.00 Build 0)  -->
<svg version="1.1" xmlns="http://www.w3.org/2000/svg" xmlns:xlink="http://www.w3.org/1999/xlink" x="0px" y="0px"
	 viewBox="0 0 841.9 1190.6" style="enable-background:new 0 0 841.9 1190.6;" xml:space="preserve">
<style type="text/css">
	.st0{fill:none;stroke:#020203;stroke-width:1.5;stroke-miterlimit:10;}
</style>
<g id="Layer_1">
</g>
<g id="Layer_2">
</g>
<g id="Layer_3">
</g>
<g id="Layer_4">
</g>
<g id="Layer_5">
</g>
<g id="Layer_6">
</g>
<g id="Layer_7">
	<path class="st0" d="M214.9,967.5c1.7-1.6,3.4,8.5-8.9,8.1c-12.3-0.4-49.2-4.8-52.5-15.1c-3.4-10.4-19.6-23-21-19.4
		c-1.4,3.6,4.6,13.2,9.9,12.9c5.3-0.3-11.9-14.1-11.3-19.8s4.2-24.7,8.5-25.2c4.3-0.5,19.3,4.1,29.4-2.9c10.1-7-19.7,4.2-28.4,4.3
		c-8.7,0.1-4.9-28-4.7-34.9c0.1-6.9-4-46.2-0.4-63s5.2-66.6,8.7-73.8c3.5-7.2-3.7-18.4-6.8-51.3c-3.1-32.9-8.3-60.1-12-75.8
		c-3.7-15.7-10.4-53.8-12.1-60s-23.4-7.5-19.4-17.1c4-9.6,17.3-66.4,22.1-81.1c0.3-1,0.9-2.6,1.4-4c1.5-4,9.8-5,12.6-1.7
		c2.8,3.3-3.2,15.5-7.9,20.2c-4.7,4.7,59.2,21,65.1,23c5.9,2,4.7-4.9,6.6-12.9c1.9-8.1,3.1-5.6-16-11.2c-19-5.6-59-19-58.6-22.6
		c0.6-7.1,4.2-12.3,2.3-14.1c-4.5-3.9-26.7-9-29.3-18.8c-3.8-14.6,8.9-35.6,12.7-42.5c7.5-13.7,18.5-30.5,20.6-40
		s11.9-31.2,20.9-35.9c9.1-4.7,6.6-3.3,24.2-15.2c17.6-11.9,25.4,12.2,22.7,32.5c-1.9,14.1-26.5,60.3-32.5,70.7
		c-5.9,10.4-15.8,5.2-28.5,2c-12.7-3.2-28.9,14.7-31.7,10.3c-2.9-4.4,10.5-11.2,22.8-10.4s26.8,17.1,35.8,20.1s36.6,10.1,43.4,11.8
		c6.8,1.7-5.9,36.6-8.8,33.2c-2.9-3.3,9.1-28.1,10.2-30.7s5.8-1.1,11.4,0.7s0,38.7-3.8,33c-3.8-5.7,2.6-23.9,5.1-29.2
		c2.6-5.3,13.2-3.5,17.6-3.5c4.5,0,6.4,4.2,14.2,5.4s10.4,4.3,8.1,6.7c-2.4,2.4-25.5-0.5-23.1-2.5c2.4-2,3.8,6.8,4,8.2
		c0.2,1.5,3.8,2.6,11.6,3c7.8,0.4,10.8-3.1,12.5-5.4c1.7-2.4,2.9,2.4,2,5.4s-3.9,5.2-7.4,6.7c-3.5,1.5-11.1,0.2-10.2,1.5
		s-0.5,8.1-4,10c-3.5,2-12.3,8.8-15.9,4.5s-9.7-5.1-12.8-6.5c-3.2-1.4-13.2-3.7-21.2-4.5c-13.9-1.3-68.9-18.9-81.5-24.8
		C98,420.1,86,416,93.3,393.5c7.3-22.5,27.6-48.1,31.4-62.5c3.8-14.4,10-31.6,22.8-38.7c12.8-7.2,27.7-19.2,37.2-21.2
		c9.5-2,21.1-5.1,27.2-7.4c3.7-1.4,16.7-6.9,19.2-7.8s14.9,25.3,23.2,38c3.9,5.9,8.4,11.9,10.6,17c2.5,5.9,2.5,10.4,2.8,10
		c0.6-0.8,3.5-1.5,2.3,4.3c-1.2,5.9,1.8,40,0.8,47.4c-1,7.4-10.4,29.4-11,26.2s5.2-17.5,6-25.8c0.8-8.3-1.8-46.4-1.7-57.4
		c0.1-11-13-1.9-13.7,1c-0.6,2.9-1,75.6-1.1,83c-0.1,7.4,9.3,5.9,9.2,4.1c-0.1-1.8-0.9-44.5-1.5-55.1s3.4-31.9,4.3-36.2
		c1-4.3-1.5-6.9-3.5-7c-2-0.1-5.8,5.8-7.8,7.8s-21.7-26.3-17.7-28c3.9-1.7,10.3,26.8,13,27.3c2.8,0.5,7.6-6.3,9.7-9.1
		c2.1-2.8,4.1-6.1,1.8-10.3c-2.3-4.1-22.6-37.6-23.1-39.2c-0.5-1.6-9.9,0.8-9.4,6.8c0.5,6,11.6,39.2,14.2,56.2
		c2.6,17,5.8,41.9,7.7,63.1c1.9,21.2,1.2,20.5-1.7,6.5s-17.2-76.8-18.6-82.9c-1.4-6.1,4.9-3.3,3.3-5.2c-1.6-1.9-13.2-22.8-15.1-31.7
		c-1.2-5.2,9.1-6.5,19.3-13.1c3.3-2.1,9.7-12.9,13.1-21.8c3.3-8.8,8.8-44.6,38.6-49.3c29.8-4.7,51,26.6,54.1,35s5,20.8-7.3,25.1
		c-7.3,2.6-15.7,3.6-21.9,2.7c-6.1-0.9-1.8-8.7-10.4-11.9s-8.2,11.9-11.4,13.6s-8.3-5.6-9.6-13.3c-1.3-7.7-11.6-9.1-17.4-3.3
		c-5.8,5.8-9.4,15-16.5,13.4c-4.2-1,2.2-2.5,6-15.6s7-24,14.1-31.4c11.1-11.8,28.9-17.1,45.8-7.5c16.9,9.6,24.4,26.8,22.6,48.7
		c-0.5,6.6-5.1,18.4-7.7,21c-2.6,2.6-6.3,0.1-6.3,3.5s0.2,16.9-4.1,18.7s-6.5-5.2-7.9-2.6c-1.5,2.6,0.8,4.9-2.5,5.4s-4.5-1.2-4,2.4
		c0.6,3.6-0.4,2.7-2.9,4.2s0.6,7.9-4.6,9.5s-14.6-1.7-16.7-6.3c-2.2-4.6-4.3-5.4-6.8-3.6c-2.5,1.9-11.7,7.2-8.6,11.1
		c3.1,3.9,16.9,21,19.2,26.8c2.2,5.8,2.2,25.1,1.9,31.8s-1.3,17.6-2.1,21.9c-0.8,4.3-14.7,12-14.8,24.7c-0.1,12.8,5.7,17.7,4.6,21.2
		c-1,3.5-2.2,10.8-4,9c-1.9-1.8,6.6-10.9,4.5-17.7c-1.1-3.5-4.8-10-2.9-16.6c1.8-6.4,9-12.8,13.8-16c9.8-6.6,28.7-13.8,33.2-18
		c4.5-4.2,18.3-24.2,19.2-31.6c0.9-7.4-2.8-15.1-8.9-15.1c-6.1,0.1-16.2-4.2-14.9-7.7c1.3-3.5,2.4-5,1.3-8.1s1.7-5.2,3-5.3
		c1.3-0.1,0.3-4.7-0.7-5.9s3.9-2.4,2.6-3.6c-1.3-1.2-6.3-3.3-4.6-7s11.1-6.2,14.5-9.6c3.4-3.4-1-5,4.4-10.9
		c5.4-5.8,17.7-18.4,24.9-14.1c8,4.8,6.3,12.7,6.6,23.3c0.3,10.8,12.2,17.3,13.4,28.8c1.5,14.4-7.9,28.4-6.9,38.4
		c3.8,37.2,15.9,87,19.6,86.3c2.9-0.5-6.3-23-15-46.4c-3-8-11-14.3-13.4-21.5c-3.5-10.4-0.7-20.8-1.1-23.7
		c-1.2-10.9,4.9-21.1,3.1-27.9s-8.9-5.2-9.5-15.2c-0.2-3.2,2.5-12.8,1.8-16.7c-0.8-3.8,2.9-8.8,2.9-13c0-4.2-3.9-10.1-9.3-11
		c-4.5-0.7,2.8-6,4.7-6.6c7.5-2.7,41.4,5.3,52.7,21.1c11.3,15.7,14.8,48,14.2,60s-4.9,23-2.6,29.5c2.3,6.5,10.9,22.9,10.6,30.8
		s-4.7,33.7-1.6,42.4s8.4,22.8,8.4,35.8c0,12.9,1.5,26.5-5.2,36.1c-6.7,9.6-15.1,6.3-15.5,1.8s-2.5,7.2-15.6-2
		c-13.1-9.2-8.6-14.7-9.3-21.1c-0.3-3-7.7-18.5-10.9-36.4c-3.6-20.4-3.2-43.4-3.6-46.4c-1.5-10-1.6-26.2-25.6-31.3
		c-24-5.1-30.3,3.1-34.3,7.7c-4,4.6,17.2-15.5,35.1-10.7c17.9,4.9,23.4,31.3,20.9,43.7c-0.5,2.6-3,11.3-5.1,13.6
		c-1.4,1.5-0.9-8.1-1.1-14.1c-0.2-5.9-7.2-21.9-21.5-23c-14.3-1.2-21.6,3.4-21.8,12.2c-0.2,8.8,0.3,43.6-1.4,54
		c-1.7,10.4-2.9,14.1,3.6,22.1c12.9,15.6,8.2-6.1-10.5-6.7c-18.7-0.6-40.7-22-44.8-24.1s-5.8-12.1-4.8-15s3.7-3.6,2.1-7.1
		c-1.6-3.5,0.4-8.7-3.5-9.2c-3.8-0.5-14.2-3.9-19.4-1.4c-5.2,2.5-8.8,6.3-5.9,8.3c2.9,2,0,2.9,2.5,4.2c2.5,1.3-2.5,11.8,1.3,15.8
		s9.9,4.5,12.9,2.3c3.1-2.2-12.8-4.2-2.7,13.2c3.3,5.7,8.8,8.8,13.6,13.3c9.8,9.2,20.3,18.1,29.1,24.9
		c13.2,10.2,23.5,18.5,31.4,17.7c7.9-0.8,12.1-2,19-21.9c10.8-31,25.9-67.6,19.6-63.4c-3.6,2.4-9.3,34.8-11.6,45.1
		c-2.8,12.3-8.7,39.7-20.6,42.2c-5.2,1.1,5.8,5.8,21,35.4c15.1,29.5,39.7,87.4,45.8,100.1c6.1,12.7,67.7,134,90.5,165.7
		c22.8,31.6,58.3,31.6,81.1,31.6s80.3,10.5,93.6,12.3c13.3,1.8,72.4,25.1,84.6,58.3c12.3,33.2-7.2,48.1-36.3,44.2
		c-29.1-3.8-29.7,17.9-62.4,28.4c-32.7,10.5-61.9-1.3-84.1,11.3c-22.2,12.5-46.8,17.6-69,11s-46.8-8.9-66-5.4
		c-19.2,3.6-26.1-5.9-44.5-2.3c-18.4,3.6-58.6-4.6-58.3-10.7c0.3-6.1-28.4-0.5-49.6-2.8c-21.2-2.3-43.2,2.6-45.3-6.4
		c-2-8.9-4.3-11-15.1-15.1s-16.1-10.1-18.6-17.2c-2.5-7.1-7.6,0.2-9.5-4.2c-1.9-4.4-5.9-40.8-4.2-72.1c1.7-31.3,14.4-111.4,19-133.8
		c4.6-22.4,5-65.6,5.8-90.1c0.8-24.5,1.9-68.8,9.8-91.3c6.1-17.4,18.1-60.8,33.4-76.2c5.4-5.4,27.6-0.4,28.4,3.7
		c0.8,4.1-27-4.9-27.4-7.6c-0.7-4.3-2.6-27.9-7-16c-4.4,11.9-27.6,88.8-44.9,104.5c-17.3,15.7-64,2.1-85.5-11.9"/>
</g>
<g id="Layer_8">
</g>
<g id="Layer_9">
</g>
<g id="Layer_10">
</g>
<g id="Layer_11">
</g>
<g id="Layer_12">
</g>
</svg>
