<?xml version="1.0" encoding="utf-8"?>
<!-- Generator: Adobe Illustrator 24.1.2, SVG Export Plug-In . SVG Version: 6.00 Build 0)  -->
<svg version="1.1" xmlns="http://www.w3.org/2000/svg" xmlns:xlink="http://www.w3.org/1999/xlink" x="0px" y="0px"
	 viewBox="0 0 841.9 1190.6" style="enable-background:new 0 0 841.9 1190.6;" xml:space="preserve">
<style type="text/css">
	.st0{fill:none;stroke:#020203;stroke-width:1.5;stroke-miterlimit:10;}
</style>
<g id="Layer_1">
	<path class="st0" d="M257.2,999.2c0,0,19.2-63.3,22.1-98.2c3-34.9-6.6-82.5-13.5-109.2c-6.9-26.7-10.7-57.2-5.4-81.8
		c5.3-24.6,16.5-47.9,19.4-56.8c3-8.9,6-14.4,4-15.1c-2-0.7-29.4-17.8-32.1-22.3c-2.7-4.5-2.9-34.9-2.7-40.9
		c0.2-6-1.3-64.9-0.7-80.6s1.1-42.4,24.7-42.4c23.6,0,26.4,31.5,22.9,53c-3.6,21.5-10.2,60.9-9,64.7s6.4-2.1,4.9-8.5
		s-7.4-9.2-8.7-7.6c-1.4,1.6,7.7,14.3,12.1,13.4c4.4-0.9,7.8-4.9,14.7-6.8s9.5-0.8,9.2,2.6c-0.2,3.4,0.1,9.6-2.6,11.6
		c-2.7,2-8,2.7-12.7-2.1c-4.7-4.8,0.4-9.7,1.2-8.1c0.9,1.6,0,8.5-7.1,7.9s-7.3,4.4-6.9,7.6c0.4,3.2,5.7,9.6,8,11.6s-0.7-5.4,3.4-8.4
		c4.2-3,7.9-0.2,7.1-3.3c-0.7-3.1-13.3-12.3-18.4-6.9c-5.2,5.3,1.9,14.9,3.9,17c2,2.1-13-2-17.3-5.8c-4.3-3.8-12.9,2-12.5,8
		c0.5,6.1-3.3,10.2-1.8,12.6c1.5,2.5,6.2,6.6,12.8,6.4c6.6-0.2,13.3-6.2,13.9-11.1c0.7-4.9,14.6-6.8,14.8-12.5
		c0.1-5.6,6.2-2.8,7,2.5c0.8,5.2,7.1,11,7.1,13.8c0,2.8-3.1,13.4-14.8,12.1c-11.6-1.3-13.9-6.1-13.4-10.2s10,12.8,16.4,13.3
		s10.2-3.1,11.8,0.3c1.6,3.4,2.4,16.7-2.6,15.9c-5.1-0.8-17.4-1.8-20.2-1c-2.8,0.8-8.9,3.1-8.9-5.4c0-8.5,1.5-14,3.6-15.4
		s6.9,5.6,7.2,9.3s-3.4,9.7-6.6,9.2s-3-9.5,1-11.6s5.2-2,12.9,0c7.7,2,39,12.9,43.1,16.6s-21.1-10.3-20.8-17.4c0.3-7,8-9.2,9.8-17.4
		s-4.9-11-6.9-8.9c-2,2.1-17.8,13.9-17.4,17s16.6,10.4,23.9,17.7s16.2,11.6,23.4,15.2s-16.4-24.4-22-31.8
		c-5.6-7.4-7.7-18.9-16.4-24.4c-8.7-5.6-1.6-10.7,1.5-10.5c3.1,0.2,4.8-5.4,8.4-5.4s10.3,11.8,10.7,17.7c0.3,5.9,3.3,21,7.4,26.6
		s9.2,12.3,12.8,19.7s-8.8,5.8,0,9.3s15.7,10.1,19.2,8.4s6.6-6.1,14-7s10.2,0.8,13,3.3s7.7,5.4,10,5.5c2.3,0.1,5,2,4.7,4.2
		c-0.3,2.1-3,4.1-7.4,4c-4.4-0.1-16.6-4-15.9-6.5s15.3,8,16.5,12c1.1,3.9-4.4,10-8.1,10.1c-3.7,0.1-4.4,1-4.3,2.7
		c0.2,1.7-0.1,4.8-1.6,5.4c-1.6,0.6-5.9,0-5.8,1.1c0.1,1.1-2,3.7-4.9,4.4s4.9,2,4.9,0.2c0-1.8,2-6.9,3.7-3.6
		c1.7,3.3-1.1,12.9-2.7,13.4s-9.4-4.3-12.2-5.2c-2.7-0.9-8.3-3.4-11.1-7.5s-8-13.2-16.9-17.1c-8.9-3.9-26.7-12.5-39.5-16.9
		c-12.8-4.4-30.9-18.4-31.8-16.3c-0.9,2,19.4,10.4,33.4,15.7s47.9,17,45.1,25.5c-2.9,8.4-9.3,27-12.1,36.6s-11.8,38.8-12,43.4
		c-0.2,4.6,0.7,6.1,2.8,5.3c2.1-0.7,6.8-22.5,8.9-32.2s10.6-36.6,11.5-40.3c0.9-3.7-0.8-3.8-1.3,0.4s-10.3,47.4-11.1,52.8
		c-0.7,5.4,0.7,28.4,0.7,36.9c0,8.4-1.8,16.8-0.4,17.4c1.4,0.6,4.6-35.8,3.3-45.5s12.7-62.7,11.6-68.8c-1.1-6.1-5.9,46.1-4.1,53.8
		c1.8,7.7,2,25.7,0.7,31.6c-1.2,5.9,3.1,0.7,3.4-6c0.4-6.8,1.4-10.7,0.4-16.6c-1-5.9-2-22.6-1.6-31.8c0.4-9.2,3.9-15.5,3.1-22.5
		c-0.9-7-1.1,22.5-1.1,28.8c0,6.3,2.3,18.6,4.2,27.2c1.8,8.6-1.7,28.3-2.3,34.2c-0.6,5.9,6.9-18.7,6.3-29.1
		c-0.6-10.4-3.3-16.7-4.1-26.8c-0.7-10.1,1.6-26.8,1-29.6c-0.6-2.8,2.2,17.6,4.8,26.9s0.2,19.9,0,25.6s-5.2,30.6-4.2,32.6
		c1,2,5.4-13.6,7.7-21.5c2.3-7.9,2.7-22.9,1-34.2c-1.7-11.3,1.6,16.5,3.9,25.3s1.2,25.1,3.2,25.6c2,0.5,3.3-11.6,2.2-17.6
		c-1.1-6-10.7-54.8-13.9-58.2s7.3,20.9,9.8,28.2c2.6,7.3,10.9,32.1,13.4,33.9c2.5,1.8,4.2-1.6,3.1-3.9s-8-17.8-10-25.6
		c-2-7.7-10.7-23.6-11.7-30.4c-1-6.8,23.5,57.5,26.4,66.4c3,8.9,5,4.7,4.3,1.8s-23.1-62.6-26.1-66.9c-3-4.3,2.3,5.3,9,15.9
		c6.6,10.6,22.6,52.6,23.5,57.2c0.9,4.5,3.6-5.3-1.7-16.6c-5.3-11.3-17-37-19.5-40.7s-12.3-20.1-14.3-24c-2-3.9,9.5,16.4,14.3,21.1
		c4.8,4.8,22.9,45.2,25.6,48.7s3.9-0.7,2.4-3.9s-19.3-40.2-23.5-44c-4.3-3.9-15.2-18.9-15.3-20.8c-0.1-1.9,36.4,63.3,39,60.2
		c2.6-3.1-4.2-18-8.9-25.6c-4.8-7.5-12.4-19.4-17.8-25.2s-4.1-7.3-0.2-5.2c3.8,2.1,0.1,37.6,0.9,76.1c0.7,38.5,1.1,116.2,0.6,129.5
		s-2.8,88.9,2,89.4c4.8,0.5-2.7-75.5-3-96.1s-3-193.4,0.3-201.4c3.3-8.1,2.5-12.2,2.4-13.1c-0.1-0.9,1.9-1.1,2.7-2.5
		c0.8-1.3,0-4.6,0.8-5.7c0.8-1,5.7-0.9,7.4-2.4s6.1-6.1,5-9.5c-1.1-3.4-4.1-5.5-3.7-4.7c0.5,0.7,3.4,0.6,5.8-0.3s4.7-2.6,4.5-5.7
		c-0.2-3.2-10.7-4.3-8.3-6.8s9.3-3.9,10.7-1.4s5.4,4.8,9.2,4c3.8-0.7,6.8,2.3,7.8,5.6c1,3.3,3.7-4.5,2.2-10.2
		c-1.5-5.7-5-11.4-11.1-14.6s-26.6,9.6-25,13.1c1.6,3.5,10.6-14.3,17.8-15.8s13.3,1.4,18,8.6s21.1,6.5,23.9,5.1
		c2.8-1.4,4.6-5.7,9.8-6.7s13.4-3.7,11.5-7.5c-2-3.8-5.3-7-5.9-9.8c-0.6-2.8-10.1,0.6-9.8-2.2c0.2-2.8,7.4-9,7.4-13.9
		c0-4.8,5.6-6.9,1.4-13.2s1.1-7.1,2.1-10.2c1.1-3-3.9-10.7-12.9-10.4c-9,0.2-11.6,7.3-13.2,13.4c-1.6,6.1,2.5,12.7-1.4,15.5
		c-3.9,2.8-8.4,5-12.9,8.1c-4.5,3.1-7.7,6.4,0.7,4.7c8.5-1.7,17.5-1.4,18.3,2.8s-20.7,1.8-20.7,1.8S461,623,462.9,628
		c1.8,4.9,0,6.5-2,7.1c-2,0.6-7.7-0.5-11.2-9.1c-3.5-8.6-19.3-6.1-23.1-4.5c-3.8,1.6,12.7-15.6,16.4-19.4c3.7-3.8,0.9-3.7-5.3,1
		s-5.2-7.5,1.2-10.1c6.4-2.6-4.2,13.6-8.7,8.5c-4.5-5.2,7.3-7.3,1-13.8c-6.3-6.5-10.2,4.3-11.7,1.2c-1.5-3.1,2.1-16.8,6.1-18.1
		c4.1-1.2,6.4-3.6,5.4-6.5s-7.4-1.5-4.5-5.8c2.8-4.3,6.8-6.3,11.1-9.2c4.3-3-1.6-6-6.4-2.5c-4.8,3.6,0.4-3.3-3.7-8
		c-4.1-4.7-11.4-8-15.4-10c-3.9-2-8.9,2.9-6.4,7.8c2.5,4.9,6.5,3.4,5.6,10.3c-0.9,6.9-0.9,9.5-5.6,9.9c-4.7,0.4-7.1-2-7.7,1
		c-0.6,3,2.3,5.6-2.2,6.9c-4.5,1.3-8.2,0.6-9.8-4.6s-8-13.5-11.9-12.2c-3.9,1.3,4.1,14,8.4,16c4.3,2-0.9,4.7-4.3,4.7
		c-3.4,0-2.1-5.7-4.8-5.7s-1.3,9.7-4.9,9.2s-6.6-6.9-9.3-5.8c-2.7,1.1,0.8,5.2-0.5,6.2c-1.3,1-1.9-2-4.7-0.7
		c-2.8,1.2-1.4,3.9,0.4,5.7c1.8,1.9,2.5,4.3,1.5,5.8s9-0.8,12.8,1.1c3.8,1.9,16.3,9.3,21.6,20.2c5.3,10.9,3.3,23.7,1.7,26.9
		s10.7,13.8-7.1,14c-17.8,0.2-22.1-15.9-22.4-22.5s-21.1-23-15.7-31.5s11.8-5.6,15.9-6.7c4.1-1.1,0.2-2,0.5-7
		c0.2-4.9,4.5-1.6,9.9-2.8c5.4-1.2,5.3-3.9,9.1-5.7c3.8-1.8,7.5-6.3,5.3-11.6c-2.2-5.2,1-11,2.9-17.3c1.9-6.3,7.8-22,4.3-31.1
		c-3.4-9.2-26.4-41.9-30.6-50c-4.2-8.1-13.4-21.1-16.7-24.5c-3.3-3.4-6.1-4.9-6.3-3.1s0.5,14.3,4.8,11.7c4.3-2.6-0.2-10.4-3-9.4
		c-2.8,1,7.7,12-4.3,10.9s-20.5-5.9-32.9-9.8s-28-6-34.4-3.3c-6.4,2.7-19,18-21.8,35.8c-2.8,17.8,2-9,8.1-18.5
		c6.1-9.5,14-16.7,22.2-23.2c8.2-6.5,17-15.7,18.8-30.5c1.7-14.8,1-24.7-2-28.2c-3-3.5-8.5-8.3-9.9-11.7c-1.4-3.4-3.4-14.1,0.7-17.5
		c4-3.4,13.7,16.1,12.9,22.3c-0.7,6.1-6.8,3-9.8-1.1c-3-4.1-5.9-12.6-2.2-18.3s-1.1-9.8-0.6-17.5c0.5-7.6,3-24.6,15.7-35.9
		c12.7-11.3,34.9-13.3,47.4-8c12.5,5.2,25.4,19.7,26.9,32.9c1.5,13.2,0.1,23-2,22.4c-2.1-0.7-3-17.8-11.9-23.4
		c-8.9-5.6-23.1-12-34.5-4.9c-11.4,7.1,14.1,2.5,5.4-12.5s-18.3-15-12.8-11.3c5.5,3.7,21.8,18,1.6,26.7c-3.4,1.5-4.7,7.5-5.8,13.2
		s-10.1,9.1-14.4,13c-4.3,3.9-2.3,17.7,0.5,30.5c2.8,12.8,12.2,25.9,26.9,32.3c14.8,6.4,24.3,0,27.3-3.1c3-3.1,13.5-17.5,15.7-25.1
		c2.2-7.5,2.7-33.2,1.2-34.3c-1.5-1.1,0.2,24.1-1.9,32.4c-2.1,8.3-11.6,22.1-15.2,25.3c-3.6,3.2-14.6,7.5-14.9,11.8
		c-0.2,2.8-3.8,17.6-1.6,27c1.1,4.9,7.3,6.1,9,8.2c4.8,6.2,17.1,28.2,21.2,34.7c4.2,6.5,16.4,24.5,19.3,30.1
		c3,5.6,6.6,19.1,10.9,10.1c4.3-9,8-28.6,6.3-46.6c-1.7-17.9-0.7-27.5,4.1-42.5c4.8-15,8.5-19.8,9.8-25.9s7.6-9,10.9-11.4
		c3.3-2.5,9.6-10.7,10.3-9.3c0.7,1.4-2.1,5.3-1.4,7.5c0.7,2.2,2.2,5.3,1.7,7.7c-0.5,2.5-5.3,4.8-10,14.9s-11.7,29.3-14,42.3
		c-2.3,13-7.1,41.6-10.2,54.1s-6.1,21.6-7.9,27.8s16.6,5.7,20.9-16.5c4.3-22.2,7.3-52.9,10.6-64.1c3.3-11.1,8.9-32.8,12-41.3
		c3.2-8.5,9.6-24.3,12.7-24c3.1,0.3,6.4,11.7,11.9,11.7c5.5,0,1.4-8.5,1.4-12.6c0-4.1,0.6-7.8-2.5-12.4c-3-4.5-4.9-12.4-8-11
		s-4.2,11.8-4.1,15.4c0.1,3.6-0.6,9.5-4.3,8.4c-3.7-1.1-6.9-9-3.5-12.5s6.3-3.8,6.8,0.6c0.4,4.4-9.2,7.4-10.6,7.3
		s-1.4-16.7-0.9-20.7s3.3-5.7,5.8-2.7c2.5,3,5.1,7.5,5.3,12.4c0.2,4.8-4.9-8.2-3.4-13.9s3.7-9.8,4.1-6.8s0.2,12.8,5.3,14
		c5.1,1.2,10.8-8.1,15.5-11.4c4.7-3.3,4.2-2.6,14.6-8.2c10.4-5.6,19.4-13.6,19.9-15.6c0.6-2-2.4-6.3-2.6-12.9s-1.4-13.3,0.4-16.2
		c1.8-2.9,5.7-5.8,7-9c1.3-3.3,3-6.6,4.7-8.4c1.7-1.8,2.7-6.4,1.4-9.8c-1.4-3.4-3-6.1-7.3-4.5c-4.2,1.7-7.4,5.3-8.5,8.1
		c-1.1,2.7-3.1,10.6-4.9,13s-0.2-8.9,0.1-14.5c0.4-5.7,1-13.5,0-16.1c-1-2.6-7.6-10.3-9.7-17.5s-10.2-18.7-20.9-20.5
		c-10.7-1.8-25.7,0.1-32.3,5.8c-6.6,5.7-10,20.7-10.8,25.4c-0.9,4.8-4.9,10.7-4.7,14.9s-1.5,17.7,0.1,26.9
		c1.6,9.2,8.7,23.7,14.6,32.1c5,7.1,8.3,9.3,13.5,11c4.2,1.4,4.5,12.5,3.2,11.5c-1.3-1-0.1-10.8,2.3-11.1c7.2-0.7,16.3-2.3,26.9-11
		c11.8-9.7,17.5-20,20.5-34.7s5.7-18.7,10.3-20.9c4.6-2.2,5.9-0.6,8.7-9.1s7.3-32.8,0-44.9c-7.3-12-27.7-19.7-36.9-16
		c-9.2,3.7,8.3,5.8-3.4-3.6c-11.7-9.4-24.7-8-38.8,0c-14.1,8-24.8,18-26.7,29.3s0.9,35.9,4,40.4c3.1,4.5-2.1-25.6,4.5-38.5
		s20-17,29.1-12.7c9.1,4.3,28.5-4.3,30.2-9.7s-10.6,5.5-8.5,11.7s25.7,29,41.2,25.9c8.8-1.7,2.7,9.1-3.7,18.2
		c-4.9,7-9.5,11.8-10.9,16c-3.3,9.5,2.3,39.1,4.6,45.1c2.3,6,4.5,6.2,6.7,9.8c2.2,3.6-2.2,5.7-4.3,7.6c-2.1,1.9-13.2,9.3-19.4,12.9
		c-6.2,3.6-13.8,8.5-16.1,8.8s2.9-10.2,3.3-8.4c0.4,1.8-7.5,19.3-6.5,22.7c1,3.4,30.6-21,34.3-27.2c3.8-6.2,1.4-5.9-2.5,0.1
		s-26,44.5-31.4,54.2c-5.4,9.7-21.5,43.6-24.7,54.1s-11.9,35.7-14.7,49.8s-6.5,23.1-5.2,26.9c1.3,3.8-1.3-10.2,10.3-26.1
		c11.6-15.9,21-28,29.3-46.9c8.4-18.9,36.9-62.9,45.2-72.8c8.4-9.8,16.7-14.8-2-11c-18.7,3.8,1.3,0,9.8-12.5
		c8.5-12.5,10.7-11,8.7-15.4c-2-4.4-10.4-18-12.2-15.8c-1.8,2.1,11,17,19.2,23.6c8.2,6.6,34.4,23.9,41.5,32.9
		c7,8.9,16.5,42.1,16.1,77.7c-0.3,35.6-7.4,108.7-7.7,125.2c-0.3,16.6-14.1,56-18.6,78.9s-12.9,75.5-15.5,78.1
		c-2.6,2.6-43.2-12.7-54-10.8c-3.4,0.6-5.2,15-7.6,18.6c-2.1,3-0.6,8.7-1.6,11.5c-3.4,9-37.7-6.9-41.4-22.4s-17.8-91.5-10.1-91.5
		s2,77.2,3.9,103.3c2,26.1,17.7,238.3,25.6,238.3c7.9,0-26.1-6.6-26.1-1.5s2.8,5.4-5.7-39.1c-8.6-44.5-28.3-169.3-27.7-180.4
		c0.6-11.1,2,2,4.1,4.3c2.1,2.3,6.5-2.5,3.2-11.7c-3.3-9.2,3.8,13.7,6.1,14.3c2.3,0.6,3.4-8.5,2.9-11.5c-0.6-3,2.2,1.4,4.3,0.4
		c2.1-1,2.7-7.1,1.1-9.8c-1.6-2.7,61.9,0.1,59.2,9.1c-0.8,2.6-1.8,8-0.9,11.7c1,4.1-1.2,20.8,2,24.7c3.2,3.9,9.8,6.3,12.2,5.3
		s8.6,0.6,11.9-1.7c3.3-2.3,2.6-3.3,7.5-3.3c4.9,0,5.4-6.4,5.3-7.4s3,3.7,6.5,2.1c3.6-1.6,3.6-11.4,3.6-16.8c0-5.4,2.5-16.7,3-23.4
		c0.5-6.6,2-16.2-8.2-18.6s-40.4-3.4-38.8-7s20.2-84.1,23.6-113.8c3.4-29.8,3-107.2,2.7-141.9c-0.2-34.7,10.3-99.6,37.9-99.6
		s32.5,50.7,33.4,63.2c1,12.5-6.9,169.2-5.4,191.3s1.4,99.2,0.4,106.2c-1,7-8.1,7.9-14,11.1c-5.9,3.2-31.4,10.5-30.1,14.1
		c1.3,3.6,20-6.1,18.7-13.3c-1.3-7.2-7.7,25.1-7.2,36.9s-1.6,103.1-2.8,114.9c-1.1,11.8,0.5,92.7,0.5,92.7"/>
</g>
<g id="Layer_2">
</g>
<g id="Layer_3">
</g>
<g id="Layer_4">
</g>
<g id="Layer_5">
</g>
<g id="Layer_6">
</g>
<g id="Layer_7">
</g>
<g id="Layer_8">
</g>
<g id="Layer_9">
</g>
<g id="Layer_10">
</g>
<g id="Layer_11">
</g>
<g id="Layer_12">
</g>
</svg>
