<?xml version="1.0" encoding="UTF-8"?>
<svg id="_Слой_2" data-name="Слой 2" xmlns="http://www.w3.org/2000/svg" viewBox="0 0 171.33 631.79">
  <g id="_Слой_1-2" data-name="Слой 1">
    <path d="m0,256.76c2.05,77.06,4.05,154.14,6.09,231.21.82,29.39,1.5,58.8,2.32,88.19,1.21,6.41-1.69,33.11,3.17,34.41,21.19,33.99,136.2,23.53,159.04-5.84,0,0,0,0,0,0,.93-1.06.65-2.47.68-3.77-.01-1.97-.02-4.22-.04-6.5,0,.02,0,.03,0,.05-1.27-116.23-.36-233.07-2.68-349.03-6.96-42.3-42.69-46.78-55.2-78.13.14-48.91.3-97.94.44-146.86.72-1.01.73-2.66-.19-3.86-.14-.39-.37-.74-.65-1.05C107.97-.13,88.34.36,74.65.08c-11.05-.7-24.54,3.26-27.8,15.12-.67,50.86-.45,101.89-.83,152.81C23.26,199.67,1.72,213.65,0,256.76Zm162.64,68.52c.26,42.14.5,84.5.77,126.72-49.55,8.97-101.11,7.87-151.18,3.7-1.19-44.67-2.34-89.35-3.53-134.02,51.05,5.02,102.74,7.69,153.93,3.6Zm-82.57,299.14c-16.64.9-57.45-2.3-63.93-19.95-1.23-47.23-2.48-94.46-3.73-141.68h0c50.29,4.17,101.11,4.86,151.04-3.5.3,47.42.56,94.79.87,142.22-18.75,19.04-58.26,21.2-84.25,22.92ZM53.33,98.16c.01-3.14.03-6.29.04-9.43h0c17.72.68,35.65,1.16,53.27-1.31-.02,8.78-.05,17.57-.08,26.35-17.52,3.46-35.58,2.11-53.3.57.03-5.39.05-10.79.07-16.18Zm1.77-84.27c8.2-10.16,23.28-6.44,34.68-5.97,7.67.28,14.65,3.25,17.06,11.04-.07,20.28-.12,41-.18,61.37-17.27,2.46-35.69,2.38-53.25,1.25h0c.07-21.02.24-42.04.27-63.06-.32-1.68.37-3.31,1.42-4.64ZM7.5,251.74c1.05-35.63,26.87-52.49,43.46-79.87,1.23-.57,2.05-1.84,2.05-3.27.08-15.75.13-31.49.21-47.23,17.66,1.55,35.76,2.73,53.3-.45.18,15.88-.43,31.98-.13,47.67,11.19,32.94,52.48,41.22,55.76,81.32.12,22.47.3,45.71.42,68.33-51.22,4.1-103.04,1.67-154.07-3.74-.48-18.94-1.05-37.88-1.51-56.82.29-2.01.18-4.36.48-5.94Zm99.57-55.53c-1.15-1.06-1.61-2.94.2-3.61,2.14-.43,2.8,2.26,4.22,3.35,20.37,19.7,34.65,45.66,38.26,73.87-.37,3.12,2.86,12.69-.81,13.57-.96.04-1.77-.73-1.82-1.68-.46-22.86-8.54-45.22-21.48-63.96-5.36-7.91-12.26-14.43-18.57-21.53Zm44.2,378.17c.03,2.25-3.36,2.46-3.5.13-.02-29.87-2.57-59.66-2.38-89.54.04-2.01-.16-4.05.09-6.04.5-2.11,3.71-1.54,3.44.6-.48,31.64,2.32,63.21,2.36,94.84Z"/>
  </g>
</svg>