<?xml version="1.0" encoding="UTF-8"?>
<svg id="_Слой_2" data-name="Слой 2" xmlns="http://www.w3.org/2000/svg" viewBox="0 0 737.45 771.32">
  <g id="_Слой_1-2" data-name="Слой 1">
    <path d="m731.19,283.14C702.2,115.8,542.78-10.09,373.28.64,228.66,6.06,95.96,111.18,57.56,250.75c-.65-10.94-2.61-23.84-12.24-30.34-5.67-3.44-11.72.79-13.46,6.51-8.56,26.77.61,57.1,14.36,80.56-1.51,14.11-2.37,28.31-2.2,42.51-3.64-9.81-6.48-20.1-11.92-29.1,8.32-8.07,2.83-23.44-8.71-24.45-12.48-1.92-21.3,13.99-13.03,23.54h0c3.66,4.58,10.17,6.56,15.76,4.66,9.78,17.85,14.83,37.98,17.66,58.01-35.03-47.68-58.9-7.86-32.59,19.26,15.77,13.42,34.77,23.28,46.28,41.2,4.13,12.58,8.17,25.45,13.49,37.67-6.5-6.6-13.55-12.66-20.75-18.49,11.11-18.93-17.08-36.7-29.37-18.51-11.04,15.39,9.61,35.41,24.61,23.79,13.55,10.68,26.94,22.67,36.05,37.51-71.15-67.5-100.43,7.8-29.85,18.09,15.04.19,31.5-1.6,44.69,6.65,9.32,14.99,19.77,29.3,31.33,42.66-10.67-6.98-22.05-13.17-33.9-18.36,4.18-23.97-31.72-30.02-35.6-5.94-3.13,18.48,23.29,28.4,33.01,12.37,14.62,6.73,28.94,14.61,42.08,24.18-20.86-8.21-49.68-16.08-68.63-.03-12.24,11.53-1.2,28.69,11.19,34.68,30.52,12.6,61.26-15.11,92.88-6.48,19.64,16.44,41.17,30.66,63.98,42.31-14.92-2.77-30.36-4.28-45.56-3.35-6.78-28.79-49.22-13.55-36.14,12.98,8.07,16.01,33.86,11.68,36.25-6.09,19.92-.76,39.97,1.44,59.14,6.91-95.36,2.25-48.84,86.1,13.18,26.75,8.48-6.74,18.76-11.2,28.94-14.53,21.14,6.54,42.94,10.97,64.93,13.34-13.63.94-26.4,5.24-39.15,9.88-9.07-20.53-41.06-10.79-37.16,11.33,3.91,24.12,40.64,19.89,38.91-4.48,15.79-6.23,32.19-10.39,49.23-10.5-22.19,7.72-45.88,17.7-60.08,37.32-16.42,25.33,10.05,45.82,34.29,32.1,35.54-17.6,36.86-60.02,79.87-74.83,202.01-14.84,350.99-210.25,311.89-408.95ZM22.56,318.32c-9.66,1.31-11.52-13.87-1.82-14.92,9.67-1.28,11.48,13.82,1.82,14.92Zm18.63,143.73c-10.91,7.87-23.05-9.41-11.93-17,10.9-7.87,23.04,9.42,11.93,17Zm42.44,96.73c-8.33,8.29-22.78-2-17.68-12.59,4.77-11.52,23.16-6.24,21.05,6.06-1.78.73-2.96,2.96-1.95,4.87-.4.61-.9,1.14-1.42,1.65Zm96.21,100.78c-4.47,14.29-26.95,8.56-24.05-6.13,2.01-13.7,23.25-13.23,24.56.58-.5,1.03-.54,2.3,0,3.34-.07.76-.29,1.49-.5,2.21Zm134.95,42.31c.07.04.13.09.2.13-.16-.1-.32-.18-.49-.25,0,0,0-.02-.01-.03.1.05.2.09.3.14Zm-5.95,9.76c-2.8,16.07-27.96,11.41-24.82-4.6,2.73-16.18,28.06-11.48,24.82,4.6Zm-230.58-235.41c-20.87-73.62,27.67-109.37,19.69-51.45-3.4,22.02-13.98,43.52-14.95,65.81-2.19-4.55-3.43-9.5-4.74-14.36Zm-23.64-178.77c3.51-13.23,9.29-32.01,23.81-36.32,3.6,15.34-16.65,29.6-24.5,41.27.22-1.65.44-3.3.69-4.94Zm-16.61-67.01c1.41-3.87,2.77-6.03,6.03-1.98,12.19,19.58,4.81,44.68,3.02,66.28-8.51-18.84-15.47-44.01-9.05-64.29Zm-.42,182.56c-13.26-9.93-34.72-20.26-29.59-40.24,1.11-4.6,3.71-7.26,8.43-4.8,22.68,10.41,31.97,35.67,36.51,58.6-4.63-5.04-9.87-9.48-15.35-13.55Zm44.85,104.39c-21.6-3.73-42.1,4.57-58.93-14.08-17.19-21.82,11.05-21.73,24.83-13.78,13.66,7.09,25.48,17.31,36.17,28.28-.68-.15-1.37-.29-2.06-.42Zm88.13,20.74c-.77,18.75-9.2,43.58-5.16,62.77-16.55-15.29-23.74-37.88-25.3-59.91-2.22-43.71,36.24-59.25,30.45-2.86Zm-76.67,77.88c-8.37.63-16.9-2.34-22.54-8.67-16.8-18.33,12.19-27.02,26.97-24.41,20.8,1.53,40.09,10.79,57.45,21.86-21.35-1.74-40.86,9.8-61.88,11.22Zm171.16,40.73c-8.4-6.64-17.66-13.83-23.19-23.38-8.62-10.82-8.16-49.28,12.42-30.56,15.32,17.96,15.73,43.17,25.25,63.97-5.02-3.06-9.82-6.41-14.48-10.03Zm-5.9,27.34c-12.72,8.7-24.08,22.55-40.66,22.81-22.55-.96-27.86-18.57-5.57-27.79,20.16-8.12,42.19-7.06,63.3-4.16-5.98,2.47-11.79,5.39-17.07,9.14Zm142.36-3.79c-22.57-7.57-46.65-16.87-62.55-35.6-13.81-15.71-6.17-47.58,17.86-29.45,23.15,17.81,34.83,45.98,53.64,67.76-3.01-.82-5.98-1.74-8.95-2.71Zm-33.06,46.54c-51.07,87.42-118.91-.8,27.96-30.13-11.46,7.79-20.55,18.52-27.96,30.13Zm361.31-365.44c-5.54,166.89-141.26,309.57-307.73,323.44-15.33-14.69-25.65-34.49-38.49-51.57-60.56-81.06-96.06,23.25,7.78,51.01-22.29-2.15-45.04-7.16-62.55-21.97,7.96-18.37-18.81-32.01-29.04-14.8-9.66,15.35,11.69,32.99,24.9,20.52,8.96,6.81,18.85,12.71,29.57,16.29-21.89-2.31-43.53-6.87-64.56-13.37-4.83-7.58-7.53-16.31-9.89-24.92-20.7-100.02-82.24-43.32-30.6,6.59-18.07-11.66-38.5-29.11-40.16-51.98,19.03-4.47,13.7-35.04-4.85-35.57-20.63-.48-20.48,31.58-2.01,35.47-.68,14.62,10.32,30.6,23.72,43.11-18.01-9.93-35.04-21.61-50.95-34.63-10.46-29.92,7.43-61.6,2.31-92.47-11.59-52-58.07-4.3-40.97,45.33-7.99-13.52-16.32-28.35-17.49-44.5,18.06-3.02,17.87-30.88-.21-33.7-21.92-4.06-28.47,28.99-6.75,33.72,1.05,16.21,8.28,31.24,16.81,45.37-14.7-17.77-27.31-36.7-38.25-57.32-4.53-33.97,18.34-65.38,15.16-99.35-2.04-21.41-20.58-21.59-30.97-5.43-4.63,8.4-7.04,17.52-7.98,26.9-1.34-16.4-1.98-33.67,6.63-48.27,10.42,3.98,21.87-6.49,18.73-17.23-2.85-12.63-21.55-14.53-26.87-2.74,0,0,0,0,0,0-2.66,5.18-1.63,11.8,2.29,16.06-8.15,13.5-9.15,29.28-8.32,44.75-3.71-16.74-6.16-33.77-7.28-50.88,5.62-20.7,24.82-33.99,33.2-53.56,7.63-27.65-25.85-18.95-33.19,8.27.11-1.74.24-3.48.39-5.22,8.31-19.07,29.63-30.58,33.89-51.72,2.04-11.62-7.21-16.57-16.28-9.96,17.68-41.71,43.71-86.32,87.65-103.96,13.75-4.53,40.29-6.96,37.26,14.71-.3,4.96-2.66,10.65.19,15.21,4.01,5.41,11.3,1.42,14.09-3.21,1.44-1.7.76-4.53-1.3-5.4-3.46-1.58-4.69,2.67-7.13,4.06,11.81-56.84-60-34.42-81.73-8.64-24.75,22.13-41.41,51-54.06,81.36C111.14,87.15,281.8-18.73,449.44,12.35c165.6,27.66,289.05,181.31,280.33,349.04Zm-407.1,297.31c-3.58,11.65-21.76,5.67-17.73-5.83,3.66-11.44,21.56-5.54,17.73,5.83Zm-113.37-65.52c-11.88,5.27-20.18-16.18-8.24-20.74,11.16-3.22,18.26,15.27,8.24,20.74Zm-93.12-82.45c-13.05,1.26-14.9-19.22-1.82-20.3,13.23-1.46,15.1,19.38,1.82,20.3Zm-42.89-139.28c-7.54-6,2.08-17.7,9.42-11.45,7.46,6.01-2.09,17.6-9.42,11.45Zm-21.44-20.29c2.36-12.36,5.25-25.14,11.89-35.98,3.1-5.83,19.5-16.82,14.76-2.2-6.42,14.29-18.07,25.28-26.66,38.18Z"/>
  </g>
</svg>