<?xml version="1.0" encoding="UTF-8"?>
<svg id="_Слой_2" data-name="Слой 2" xmlns="http://www.w3.org/2000/svg" viewBox="0 0 724.75 698.24">
  <g id="_Слой_1-2" data-name="Слой 1">
    <path d="m28.48,422.49c17.87,15.14,36.92,34.88,61.26,37.2,7.74,18.84,17.27,36.94,28.61,53.88-7.16-6.63-56.81-42.54-61.33-25.93-4.43,12.07,14.77,5.11,20.67,5.34,22.55,10.51,41.89,26.93,58.8,44.98-11.77-7.34-27.78-23.54-42.49-20.78-5.18,2.03-5.59,8-.55,10.46,5.01,2.32,10.81-.73,15.74-1.98,32.09,17.6,56.29,45.39,85.64,66.66-24.13-7.01-66.61-19.63-88.75-5.5-4.3,6.76,4.3,11.46,9.66,13.47,26.43,10.1,73.55,15.02,100.99,6.22,10.71,6.34,21.82,12,33.25,16.93-74.19-4.1-47.02,31.88-35.62,7.37,16-3.79,32.66-3.58,48.8-.51-46.51,2.46-26.97,29.55-14.61,7.31,29.27-8.47,57.44,6.65,86.51,8.81-9.53,4.34-123.97,37.59-89.49,51.34,37.37-3.18,80.88-20.06,104.79-49.91,10.34.71,20.72.93,31.08.57-8.42,2.31-51.26,20.16-36.73,31.44,5.56,1.44,11.84-7.38,8.45-11.95,25.52-18.99,58.26-20.95,88.28-27.6-142.73,80.57-14.88,75.92,23.89-6.75,8.14-2.65,16.16-5.65,24.04-8.98-7.77,4.47-44.54,43.77-29.01,49.61,5.64.39,10.84-11.77,4.88-14.39,7.92-15.63,21.51-27.21,35.36-37.65-5.61,6.29-21.57,23.43-14.72,31.69,2.21,1.17,4.4-.65,5.58-2.43,2.01-2.93,5.46-8.56,1.13-10.97,13.37-21.59,34.98-35.37,55.73-48.98-20.1,24.02-50.81,62.25-34.22,68.73,28.74-3.02,72.76-74.22,72.59-101.43,9.28-9.43,18.04-19.4,26.03-29.95-4.55,12.51-20.28,55.9-4.47,62.57,8.79-.91-.48-21.96-.28-27.69,2.85-17.79,9.24-34.7,17.72-50.55-2.83,13.35-5.87,27.91-.48,41.05,1.48,3.21,6.07,4.47,7.57.66,1.13-6.55-3.52-12.5-5.48-18.49.37-16.96,6.43-32.88,11.79-48.59,10.83-20.27,19.24-41.76,25.26-63.93,3.51,19.3,12.09,83.67,26.91,86.3,13.81,1.04,6.97-33.09,6.34-41.6-4.87-26.72-8.68-57.07-26.14-78.72,2-13.57,3.1-27.27,3.31-40.98,3.23,16.67,16.51,59.65,31.14,67.86,4.18,1.26,7.41-3.91,5.06-7.35-3.75-5.26-10.08-7.8-14.4-12.62-9.54-20.51-17.04-41.78-19.48-64.39,4.9,9.44,10.67,19.17,19.33,25.65,5.92,3.53,9.85-4.28,4.73-8.02-2.98-1.52-6.38-2.29-9.44-3.68-9.31-11.79-15.43-25.82-18.08-40.64-.15-.85-.82-1.49-1.61-1.76-3.85-28.62-11.87-56.67-23.64-83.04,8.79,7.71,73.21,77.66,76.38,48.02-19.13-38.04-55.59-69.57-95.47-84.01-8.29-13.36-17.57-26.11-27.85-38.01,16.79,10.44,33.67,23.05,53.69,26.02,6.32.83,9.35-6.41,3.88-10.03-3.89-2.64-8.6-.5-12.82-.11-1.91.35-4.19-.49-5.85.71-21.66-10.13-42.27-23.36-59.79-39.72,14.35,6.89,34.72,15.51,53.64,13.37,5.16-1.33,6.28-6.94,1.01-9.07-6.72-1.83-14.29.63-20.76,2.49-21.29-2.95-38.97-16.62-57.25-25.78-26.23-20.29-55.73-36.38-87.12-47.11,12.72.35,109.76,7.53,92.13-18.69-23.96-16.33-104.69-4.64-130.71,8.11-10.85-2.22-21.84-3.76-32.86-4.78,18.63-4.18,42.99-11.9,56.06-25.99,3.46-6.87-5.34-9.7-9.77-5.25-2.48,2.16-3.97,5.12-5.86,7.76-1.2,1.53-3.72,2.82-3.37,5.03-21.25,12.58-45.79,14.55-69.48,17.23-1.18.02-2.36.04-3.54.07,15.92-5.48,35.7-13.12,44.4-28.43,1.25-3.59-2.35-7.13-5.9-5.72-5.59,2.94-7.57,10.25-10.3,15.47-15.6,11.63-35.48,14.82-53.38,20.39-23.93,2.59-47.54,8.18-70.17,16.38,10.19-6.64,64.66-49.85,41.42-59.25-25.29,2.29-80.17,56.74-88.73,81.17-15.15,8.71-29.55,18.68-43,29.84,7.09-12.38,48.12-63.29,32.92-73.61-7.44-1.17-5.4,8.73-6.02,13.3.23,2.74-2.11,6.11-.26,8.44-13.03,23.43-27.37,46.72-45.05,67,25.18-51.22-11.64-56.55,3.77-28.69-2.37,19.91-13.54,37.18-24.91,53.06-19.13,23.07-34.95,48.94-46.56,76.59-.82-22.11-1.57-44.47-6.79-66.12-2.41-9.52-4.3-19.68-9.83-27.96-3.67-5.86-12.77-5.95-14.29,1.54-7.61,39.08,1.64,81.66,22.42,115.28-5.82,17.71-10.06,35.95-12.51,54.43-3.1-20.86-10.11-68.12-31.01-77.1-2.68-.28-5.27,2.09-5.03,4.81.24,3.71,3.6,5.91,6.14,8.16,2.24,1.51,5.86,6.36,8.7,4.73,13.54,28.7,18.23,61.36,18.55,92.88-6.08-15.98-12.43-45.82-29.13-52.96-5.07-1.26-8.46,3.48-5.04,7.64,3.42,3.62,10.03,9.5,14.98,9.81,8.94,16.59,13.27,35.26,19.31,52.72.98,30.63,6.67,61.08,16.81,90.01-19.82-24.33-38.93-50.22-65.31-67.69-11.01-7.85-23.29-5.87-17.33,9.84,5.83,13.77,16.3,25.09,26.92,35.37Zm219.42,268.34c-.38,0-.75.02-1.12.01,26.86-18.55,59.82-25.84,89.92-37.64-23.33,19.56-58.45,34.86-88.8,37.63Zm184.43-25.68c-13.92,12.7-30.24,23.93-49.19,26.99,17.3-23.96,46.59-35.47,70.73-51.21-5.92,9.11-13.42,17.04-21.54,24.22ZM66.96,135.71c18.09,29.18,15.19,70.74,17.32,104.32-15.86-31.95-24.87-68.86-17.32-104.32Zm57.62,297.29c14.35,27.9,11.4,61.71,13.25,92.36-9.67-21.41-23.21-70.72-13.25-92.36Zm60.25,170.66c-24.17-.81-50.99-.74-72.6-13.16,30.68-7.78,62.67,2.84,92.05,12.21-6.44.88-12.96.93-19.45.95,0,0,.01,0,.01,0Zm26.03-63.17c17.78,10.26,39.7,60.37,50.5,79.83-19.62-17.06-46.95-53.85-50.5-79.83Zm81.47,43.41s0,0,0,0c9.88,1.87,17.28,10.14,25.23,15.8,17.19,13.65,34.16,27.57,51.62,40.88-25.22-6.06-67.15-32.09-76.85-56.68Zm221.76,20.92c-20.63,3.34-70.08,8.65-88.04-4.29,32.08-9.66,67.05-2.38,100.14-2.75-3.97,2.43-8.01,4.78-12.1,7.04Zm2.34,48.77c2.85-24.1,41.85-57.93,53.79-79.44,2.98-2.53,5.86-5.2,8.72-7.87-6.79,28.19-38.47,75.2-62.51,87.31Zm109.48-162.03c-14.89,15.03-38.15,39.93-59.89,42.03,9.48-21.42,53.31-42.69,71.72-58.67-2.57,6.59-7.04,11.45-11.82,16.64Zm46.23-88.95c13.4,31.02,22.23,66.09,19.61,100.02-15.99-28.53-15.57-63.58-23.6-94.63.65-3.04,1.25-6.1,1.81-9.16.76,1.24,1.45,2.54,2.18,3.77Zm-8.73-100.19c-1.86,31.18-12.08,72.16-31.77,96.99.38-38.52,18.54-75.11,30.69-111.16.54,2.82,1.03,5.64,1.49,8.47-.78,1.79-.11,3.8-.41,5.7Zm-32.05,90.95s0-.05,0-.08c0,.03,0,.05,0,.08Zm85.92-124.3c-30.87-14.65-51.61-43.9-77.31-65.45-1.66-3.17-3.38-6.31-5.15-9.42,32.32,14.16,66.65,44.43,82.46,74.87Zm-181.16-170.88c27.69,30.33,55.83,69.13,59.51,111.02-9.86-7.73-14.87-20.23-21.22-30.76-14.1-27.13-26.81-54.95-41.01-82.04.91.59,1.81,1.18,2.72,1.77Zm-81.99-51.92c17.75-5.22,91.2-14.1,103.56-1.79-8.28,6.07-23.04,5.48-33.11,6.67-24.96,3.17-51.21-3.04-75.57.05-1.88-.5-3.77-.99-5.66-1.45,3.55-1.29,7.14-2.46,10.77-3.48Zm-80.12,31.56c-18.56-7.65-36.58-16.47-54.6-25.29,2.46-.44,4.93-.85,7.41-1.22,28.63,5.52,66.17,14.14,87.55,35.1.01,0,.24.42.27.61-10.9,2.5-30.04-5.1-40.63-9.2Zm-137.26-11.66c13.3-17.1,50.41-54.9,70.93-59.25-13.07,30.33-51.34,50.58-77.54,68.72,1.97-3.3,4.24-6.43,6.6-9.47Zm2.91,49.24c-.06-.04-.12-.07-.18-.11.3.17.63.34.86.6-13.54,16.43-70.39,27.18-92.49,33.22.43-.52.9-1.01,1.35-1.51,23.71-14.37,62.4-36.83,90.67-32.08-.18-.11-.19-.11-.21-.12Zm-164.78,249.75c-.27-4.26-.47-8.52-.59-12.79,19.42-27.66,40.79-54.67,54.8-85.62,2.26-6.26,5.29-17.47-3.17-20.21-21.33,1.22-43.07,49.24-50.12,67.6,4.67-38.03,11.27-85.61,52.22-101.04,2.73,3.46,23.36.12,15.81-6.61-17.9-3.03-34.58,9.91-46.11,22.61,8.55-24.33,30.27-41.67,53.47-51.59,46.41,12.68,27.27-37.69-36.44,17.55,7.65-13.06,16.23-25.6,25.85-37.29,29.23-7.61,84.99-16.3,105.43-37.5,8.16-30.58-67.45,1.26-78.32,8.33,16.08-15.17,33.91-28.46,52.94-39.69,17.49-12.18,40.53-14.37,60.53-7.29.32,2.96,9.41,10.85,12.51,11.42,8.26.87,7.55-7.48,1.57-10.63-12.89-7.45-28.51-10.8-43.36-9.44,21.71-9.28,48.51-7,68.86,4.85.62,5.86,7.08,15.04,12.96,16.9,3.88,1.05,6.69-3.04,5.36-6.53-11.76-19.02-36.93-25.37-59.3-25.79,9.47-3.03,19.3-5.67,29.28-7.84,30.72,16.02,62.95,33.85,97.62,39.83,7.31,1.43,18.41-1.45,14.06-10.94-17.39-20.16-46.16-27.36-70.91-34.67,29.85-2.17,60.65.31,89.84,7.31,13.76,8,25.89,19.76,32.63,34.33-2.59,3.29.59,19.39,4.65,21.18,7.97,2.32,4.41-11.32,3.15-15.25-4.75-14.54-14.32-27-26.2-36.52,20.57,11.06,40.74,25.39,54.48,44.69-2.45,1.64-.46,5.27-.24,7.62,9.53,41.45,35.39-.87-33.09-45.26,16.65,6.2,32.91,14.05,48.17,23.2,14.56,32.37,31.51,64.64,47.7,96.52,5.95,9.77,11.76,22.91,21.76,28.96,32.86,2.12-20.9-86.76-30.75-97.95,20.58,17.26,39.26,37.88,54.48,60.27,16.01,19.44,20.77,45.68,14.53,70.04-6.07,1.19-16.68,15.48-9.15,19.84,16.78-7.18,17.71-33.98,15.82-53.34,9.21,20.73,9.06,44.73,2.99,66.4-38.31,32.98,11.78,40.62,9.2-37.78,3.9,10.62,7.31,21.99,9.98,33.26-5.07,7.63-60.71,158.87-21.39,125.88,16.09-21.19,23.69-47.74,28.97-73.45.61,11.9.56,23.99-.21,36.05-.85,22.72-4.83,45.89-25.5,59.22-33.66-.63-16.22,28.99,15.4-7.46-6.36,14.87-16.68,28.07-30.21,37.1-6.19-.12-13.86,1.34-19.24,4.9-3.3,2.28-3.35,7.01,1.08,7.7,19.77-1.84,35.53-19.11,46.16-34.68-3.13,10.4-6.95,20.61-11.23,30.58-12.19,12.67-101.29,59.21-80.94,77.62,20.93,3.14,40.5-17.42,55.21-30.17-10.42,15.55-22.49,30.49-35.87,43.94-12.76,5.71-26.82,9.48-40.93,8.8,1.01-3.61-5.21-4.58-7.72-4.96-4.08-.96-8.7,3.83-4.58,6.97,11.33,5.09,24.42,3.09,36.16.37-15.6,7.64-33.64,12.53-50.08,13.06-26.48-20.13-32.46,25.88,48.21-6.67-8.5,7.19-17.38,13.93-26.63,20.15-27.67.73-96.82-9.83-116.58,5.83-6.34,22.23,59.02,19.02,74.45,17.7-25.83,12.59-51.2,20.35-78.86,7.71,2.32-4.86-11.12-12.06-13.29-5.97,1.63,11.24,27.8,16.27,37.62,17-20.88,3.85-42.78-1.77-61.82-10.82-8.64-23.32-35.57,3.49,34.53,15.98-10.24,1.44-20.57,2.41-30.91,2.74-22.35-13.94-69.45-62.94-90.58-64.38-24.89,11.53,42.96,59.94,57.72,63.74-20.55-1.35-41.84-7.5-57.18-21.81.18.18.18.17.23.22-.88-.83-1.49-1.42-2.46-2.46,1.87-2.82-2.69-9.43-5.42-10.75-3.93-2.5-8.65-.48-6.3,4.41,6.94,10.29,16.23,18.03,26.76,23.64-10.98-2.57-22.19-5.74-33-9.66-.08-.18-.17-.35-.28-.53.02.03.04.07.05.1-16.01-25.72-32.5-77.93-60.18-90.44-24.7,4.68,23.72,70.29,33.09,79.57-33.97-16.37-46.73-22.68-54.6-62.02,2.18-.25,2.32-2.79,2.67-4.51,4.97-35.69-23.72-10.41,4.02,38.03-19.13-16.74-28.2-42.52-29.73-67.47,3.19-4.65,5.45-11.06,5.07-16.83-1.15-7.24-8.84-4.41-9.45,1.57-3.19,23.16,3.31,48.7,15.44,67.94-11.55-9.92-22.36-20.72-32.19-32.35-.74-15.58-.72-31.65-1.65-47.32-8.77-116.32-47.57-55.21-18.93,20.25-13.51-20.15-24.56-41.92-32.81-64.73-3.12-15.59.05-32.54,7.67-46.46,5.88-.46,22.02-11.87,11.06-16.1-17.63,5.36-22.51,28.45-24.55,44.63-9.7-27.87,1.91-58.58,18.35-81.62,6.63,1.61,25.78-10.34,16.79-17.26-23.65,2.73-39.01,44.91-42.76,65.68-1.67-9.71-2.81-19.5-3.51-29.33Zm1.34-27.55c7.87-30.11,21.87-65.84,47.96-84.25-.19,22.39-34.69,64.25-47.96,84.25ZM6.93,380.29c0-.22.02-.43.05-.65,25.53,8.69,54.94,49.89,72.62,70.69-21.71-8.15-68.13-47.18-72.63-70.1,0,0-.04.06-.04.06Z"/>
  </g>
</svg>