<?xml version="1.0" encoding="UTF-8"?>
<svg id="_Слой_2" data-name="Слой 2" xmlns="http://www.w3.org/2000/svg" viewBox="0 0 738.44 701.41">
  <g id="_Слой_1-2" data-name="Слой 1">
    <path d="m20.99,471.13c-4.84-.06-12.09,3.96-5.91,8.39,2.94,1.6,5.95,3.06,8.85,4.72,9.53,5.46,18.45,12.26,29.11,15.42,18.76,6.96,42.86.04,58.07,15.08.99.97,2.12,1.18,3.13.93,20.71,27.47,45.87,51.57,74.18,71.11-25.32-10.31-52.52-16.12-79.92-13.43-6.65.78-31.31,3.02-32.44,10.52-.24,3.2,3.07,4.37,5.67,4.79,47.33,14.39,76.2,31.64,125.44,10.1,19.77,11.69,40.75,21.35,62.57,28.53-35.67,7.44-58.07,40.44-91.93,52.71-7.9,2.89-5.24,10.28,2.4,10.16,41.96-.4,90.82-21.85,116.92-55.08,29.68,6.97,60.33,9.85,90.78,8.17,57.52,6.14,69.9,51.33,118.34,57.82,5.88-.07,32.21,2.82,29.74-6.72-2.66-4.19-7.88-6.24-11.53-9.55-26.18-23.2-42.94-45.63-80.95-49.32,20.57-4.79,40.68-11.56,59.94-20.21.75.61,1.77.9,2.99.55,23.36-9.15,47.31,2.4,70.83,4.27,9.85.52,19.68-.2,29.13-3.31,4.8-1.66,29.63-11.79,24.09-18.45-.97-1.26-2.55-1.59-4.06-1.43-35.47,5.66-50.29-10.55-79.97-5.14,24.89-15.01,44.97-36.25,66.32-55.31,30.63-21.68,65.82-6.92,93.36-38.34,2.75-3.36,12.44-10.14,4.64-13.05-9.65,2.94-18.93,7.99-29.44,9.69-20.15,3.24-31.81,2.58-46.14,11.08,12.73-18.32,23.63-37.9,32.3-58.45,4.82-9.17,5.87-20.58,12.34-28.59,19.14-14.61,36.14-29.23,47.96-50.66,3.01-5.47,11.58-17.5,10.58-23.38-2.06-4.62-6.67-1.35-8.88,1.36-12.26,13.31-31.6,17.78-41.72,33.32,4.36-23.81,5.98-48.15,4.84-72.32,16.79-22.57,27.14-44.96,26.33-73.47.73-3.35-1.83-6.79-5.31-4.97-7.98,14.21-19.29,27.21-24.64,42.92C666.82,116.27,521.74-5.22,364.97.17,219.9.85,86.03,110.49,56.92,252.63c-.6-6.96-32-60.12-29.86-33.1,7.9,20.61,1.78,51.03,24.79,62.43-3.32,28.66-3.62,59.47,1.02,87.22.06.42.12.84.19,1.26-9.15-13.55-23.06-23.22-37.96-30.03-4.22-2.22-18.18-7.97-14.49,1.98,20.03,17,27.01,54.96,57.76,55,8.46,34.92,22.68,68.5,42.22,98.69-20.83-20.41-50.57-32.18-79.61-24.96Zm139.99,131.37c-24.81-1.54-47.97-11.52-71.38-18.96,34.94-9.02,71.07-1.14,103.67,12.5-10.13,4.31-21.32,6.22-32.29,6.47Zm26.65,80.58c35.19-14.33,60.24-54.44,101.94-49.85-25.22,29.74-63.75,45.75-101.94,49.85Zm337.31,10.81c-46.6,8.17-71.2-39.6-111.65-52.17,58.41-4.45,72.2,18.51,111.65,52.17ZM96.16,433.41c2.38-8.44,6.25-16.37,8.33-24.9,13.19,23.94,8.7,52.02,1.83,77.18-7.87-16.11-15.87-34.17-10.16-52.28Zm68.27,69.36c24.38,21.73,27.64,50.95,36.12,80.5-26.2-18.41-25.14-53.38-36.12-80.5Zm451.19,102.22c-27.81,17.72-59.19.97-88.74.46,39.44-18.11,51.97,1.14,88.74-.46Zm.24-94.62c-13.31-27.05-10.84-45.87-.69-73.61,8.96,25.45,13.34,48.4.69,73.61.03-.07.06-.14.09-.21-.03.07-.06.14-.09.2Zm80.07-12.36c-23.16,20.86-44.34,13.72-69.79,23.28,24.86-22.88,41.39-13.44,69.79-23.28Zm6.89-124.51c6.91-5.35,15.1-8.72,22.01-14.05-10.64,18.16-23.45,35.58-41.4,47.1,2.38-12.65,9.37-24.82,19.38-33.04Zm-19.74-71.51c-21.05-14.29-20.07-45.53-33.33-65.81,18.69,16.85,29.94,41.12,33.33,65.81Zm28.2-55.94c-.46,17.79-9.06,33.6-18.4,48.26-1.76-18.45,8.28-33.87,18.4-48.26Zm-665.49,21.74c-6.44-11.7-5.6-25.24-8.97-38.13,8.48,13.31,17.95,28.36,16.02,44.83-2.81-1.69-5.33-3.79-7.06-6.71Zm-30.96,80.25c18.51,8.34,33.65,23.22,40.42,42.46-21.57-3.41-27-28.61-40.42-42.46Zm57.43,72.7c-3.49-13.8-18.67-54.71-9.14-64.71,5.74-8.63,13.51-15.99,17.26-25.86,2.42-4.43,10.38-38.54-1.26-33.21-7.92,10.4-19.05,18.92-22.66,32.04-.54-23.92,1.62-48.24,6.62-71.84,23.95-19.39,45.25-39.52,45.8-72.82,1.32-5.78-3.21-12.95-8.03-6.05-6.52,8.26-14.51,15.42-19.05,25.09-5.15,9.25-7.8,19.6-12.47,29.06C106.41,101.04,235.69,4.82,372.23,7.12c150.3-1.44,286.83,114.55,309.48,263.36-6.9-16.9-16.89-31.38-32.5-44.08-3.38-3.42-15.87-11.43-14.31-1.12,21.51,24.83,19.78,74.91,50.85,85.46,1,28.48-1.84,57.35-8.69,85.33-1.16-10.78-4.13-21.35-8.21-31.37-1.26-5.58-29.66-53.23-29.11-29.56,2.71,19.41-.96,41.87,15.37,56.37,5.21,4.72,10.75,9.38,12.9,16.37,10.15,18.96-31.12,84.3-44,101.5,11.7-24.86,6.2-53.48-3.54-78.61-1.56-3.09-1.98-7.58-5.18-9.39-7.09-1.37-4.45,9.74-6.95,13.86-4.78,13.75-8.8,27.97-9.03,42.63-1.82,20.15,21.26,37.01,3.68,54.74-.62.84-.78,1.89-.56,2.85-19.71,21.29-42.16,39.82-67.03,54.97,21.67-23.4,27.68-55.76,22.76-86.5-.12-2.79.79-6.94-2.99-7.56-1.99-.32-3.54,1.19-4.15,2.96-13.76,20.57-24.22,32.81-26.18,58.24-2.67,16.16.27,35.29-14.89,46.07-19.5,11.77-43.11,18.47-65.35,24.33,50.58-19.57,59.27-110.48,33.25-73.26-51.35,45.72-20.75,57.73-63.4,78.96-37.54,5.26-76.09,3.66-113.12-4.83-15.3-12.25-21.19-31.3-30.82-48.09-12.19-20.71-28.94-39.77-50.69-50.62-2.99-1.97-7.39-.31-6.56,3.63,1.92,4.1,4.84,7.79,6.84,11.91,14.15,25.9,24.59,59.63,49.91,74.35-19.66-6.67-39.54-15.66-57.69-26.35-11.23-24.37-12.01-53.07-26.62-76.18-7.77-11.09-16.89-22.87-29.05-29.21-8.18.23-2.09,9.17-.43,13.16,10.5,22.73,10.42,49.91,24.47,71.07-25.81-19.58-48.7-43.26-67.37-70.03-1.63-6.89-.99-13.97,1.11-20.85,5.75-21.38,8.89-45.21.63-66.35-2.54-4.06-7.52-23.73-13.18-20.43-1.46.61-2.01,2.2-2.21,3.66-5.07,23.15-17.3,41.63-10.52,63.27-6.58-13.23-12.14-26.94-16.88-41.02Zm-12.59-72.1c1.38-17.34,5.85-27.08,18.27-39.18-1.07,16.72-7.81,26.73-18.27,39.18Zm14.57-110.56c9.17-18.16,11.82-34.88,27.31-49.73-1.57,19.73-11.94,37.4-27.31,49.73Zm595.87,158.71c-20.9-20.25-21.67-24.9-22.39-53.68,12.43,15.26,20.1,34.17,22.39,53.68Zm-141.57,190.77c2.87-26.82,3.65-55.3,23.17-76.17,4.16,28.36-3.55,55.02-23.17,76.17Zm-86.06,33.57c3.29-4.46,4.96-9.85,6.65-15.08,5.23-20.29,21.83-33.83,35.56-48.5-2.61,27.85-16.75,51.18-42.21,63.57Zm-159.69-2.29c-32.35-13.08-41.19-49.48-56.91-77.18,28.23,17.87,41.59,48.99,56.91,77.18Zm-200.6-121.53c-28.47-2.37-32.65-5.51-56.3-19.98,24.56-4.97,48.9,4.66,67.05,21.26-3.57-.55-7.18-.9-10.74-1.28Z"/>
  </g>
</svg>