<?xml version="1.0" encoding="UTF-8"?>
<svg id="_Слой_2" data-name="Слой 2" xmlns="http://www.w3.org/2000/svg" viewBox="0 0 804.33 798.78">
  <g id="_Слой_1-2" data-name="Слой 1">
    <path d="m794.26,294.95c-30.2-34.88-71.77-69.23-120.95-62.43-12.69-21.72-27.19-41.9-44.18-60.49,21.28,13.92,49.8,34.77,76.23,27.55,5.47-10.39-21.34-9.11-25.61-4.75-28.58-8.08-53.26-28.18-75.55-47.33,16.95,9.97,36.36,16.23,56.06,17.28,11.36.3,22.7-2.79,33.98-1.52,3.68-2.29-1.64-4.02-3.47-4.84-20.12-11.84-35.62-14.24-58.69-13.19-15.87-.66-29.06-8.31-42.58-15.89-9.39-5.66-20.13-8.57-29.26-14.58,30.82,7.22,63.68,2.99,89.86-15.49,2.47-1.18,4.67-4.09,2.63-6.64-1.37-1.65-3.63-1.41-5.55-1.77-23.86-2.61-47.23-13.25-71.52-9.17-15.67,2.3-28.19,13.04-43.02,17.64-13.13-6.55-26.73-12.22-40.64-16.92,13.77-.78,26.9-5.61,40.08-10.58,4.24,2.47,21.06-6.26,16.39-11.72-3.35-3.59-18.38,4.35-18.41,8.69-42.05,18.42-52.96,6.55-93.77-.03,24.08-2.32,48.62-7.73,68.16-22.78,4.17-2.54,8.1-5.91,12.44-7.97,1.42.45,2.5-1.09,2.11-2.27-.49-3.91-5.57-.05-7.96-.69-14.35.56-27.61,5.89-39.1,14.35-19.74,12.37-44.18,16.88-67.22,16.02,14.79-7.43,47.88-49.5,36.04-65.02-3.61-1.6-6.65,2.13-9.57,3.75-24.4,16.35-56.11,28.83-62.31,61.15-17.32.93-34.53,3.21-51.51,6.81,18.34-11.18,35.14-26.75,45.89-45.38,2.5-6.15-2.53-9.15-6.58-3.77-4.41,4.99-8.11,11.68-8.56,18.35-17.82,23.25-43.77,35.02-71.4,42.22,29.32-19.54,36.67-39.16,47.71-70.36-.85-2.45-4.48-1.44-4.66,1.11-18.77,13.68-24.03,37.47-40.21,53.49-10.44,10.88-22.52,20.23-35,28.69.16-.1.12-.08.19-.12-2.49,1.71-5.33,2.92-8.01,4.31,18.19-21.89,19.3-58.01,9.94-84.03-1.22-3.8-5.07-8.93-9.07-4.99-3.73,6.39-5.58,13.88-9.14,20.43-15.32,25.22-34.5,56.08-22.66,86.49-13.32,8.65-25.98,18.33-37.88,28.85,9.56-15.07,15.49-29.21,16.88-48.2,3.22-6.33,3.96-14.32,3.17-21.35-.96-6.27-6.23-6.55-8.38-.73-2.66,6.73-2.51,16.2,1.69,22.15-1.67,37.03-28.47,61.65-51.31,87.72,11.4-18.05,21.3-38.32,20.94-60.15.11-11.14-4.9-21.77-3.11-32.95.3-1.6-1.72-2.66-2.9-1.58-1.17,1.61-1.53,3.69-2.56,5.42-12.45,20.71-7.41,38.42-10.46,60.55-3.48,17.04-9.62,33.68-17.71,49.08,1.42-27.8-16.86-51.63-30.77-74.02-16.99-5.2-8.58,83.88,18.89,93.49-10.48,17.76-19.25,36.53-26.25,55.92-1.18-18.83.1-37.95-4.44-56.4-.49-5.34-4.1-21.8-12.07-18.15-7.23,1.78,5.27,16.84,8.58,18.56,3.09,10.88,3.05,22.18,3.49,33.4,1.31,17,2.23,33.84-4.11,49.99,1.08-49.46-8.08-54.63-34.76-91.36-1.16-.14-2.34,1.1-1.7,2.35,2.65,36.5,7.27,34.72,22.4,64.11,6.93,14.37,7.04,30.74,9.15,46.3-1.27,6.57-2.34,13.18-3.22,19.81-3.83-26.63-25.2-42-46.47-56.31-3.13-1.71-6.77-7.14-10.66-5.45-3.78,2.2-1.66,7.39-1.61,10.93,2.4,36.08,19.28,74.62,56.02,86.62-.29,13.65.25,27.32,1.64,40.9-8.56-16.72-21.31-31.95-36.25-43.32-2.58-1.83-7.4-2.24-7.71,1.87,1.7,6.02,9.68,9.52,15.61,9.51,17.61,16.68,30.84,38.01,32.98,62.6-6.78-13.54-16.99-25.33-29.35-34.15-7.61-4.93-15.29-10.34-22.95-14.92-2.41-.88-3.39,2.05-1.32,3.5,11.49,9.71,14.63,25.49,25.62,35.53,22.01,15.56,36.45,38.6,43.77,64.28-16.87-11.88-37.65-18.19-58.08-19.85-5.27.15-19.69-2.21-20.49,5.09.25,4.32,7.06,7.64,9.88,10.78,23.06,20.63,51.27,53.22,85.72,41.1,8.83,16.44,19.06,32.12,30.52,46.86-17.81-14.9-39.17-25.64-62.02-29.19-2.82.1-4.79,2.83-2.89,5.27,4.43,3.87,12.37,4.81,17.81,2.75,32.77,6.8,56.33,33.84,79.04,56.49-22.39-15.98-49.29-30.71-77.71-25.67-7.66,1.68-15.84,1.67-23.55.43-2.33-.82-3.49,2.55-1.24,3.31,2.28.41,4.54.81,6.74,1.53,57.04,22.69,46.9-5.16,108.86,33.91,3.49,1.97,6.59,5.3,10.16,6.8,1.85,1.47,3.73,2.93,5.63,4.36-23.29-1.66-44.08,14.92-62.3,27.93-8.45,6.01-18.12,9.84-27.33,14.43-10.71,10.42,24.92,13.27,30.62,13.92,30.52,2.37,67.39-11.74,78.09-42.55,13.63,8.05,27.4,16.44,41.99,22.92-16.35-.1-33.46,1.27-48.37,8.32-4.05-.31-16.61,5.77-12.26,10.79,4.22,2.17,13.9-3.58,14.88-8.17,21.45-8.3,47.46-11.41,68.77-1.37-20.83-2.28-43.66,2.02-58.95,17.28-8.75,8.19-15.36,18.82-26.5,24.17-2.06.32-2.41,4.03-.1,4.2,14.86-3,29.01-8.67,40.33-18.99,21.18-15.44,48.4-22.83,74.24-17.43,4.41,1.19,8.84,2.28,13.29,3.29-27.42,7.14-41.94,30.05-60.08,49.02-2.15,14.64,31.78,3.13,39.46,2.04,25.22-4.89,46.25-22.05,57.66-44.87,22.53,2.47,45.34,2.57,67.9.33-25.49,7.73-47.94,22.63-68.39,39.38-5.04-.84-17.23,11.89-9.24,15,4.42.93,12.92-8.48,12.09-12.77,23.51-19.93,50.74-35.2,80.82-42.49-28.51,14.39-33.99,51.45-60.11,68.1-1.77.31-1.85,2.8-.23,3.35,1.7,1.87,3.7-1.32,5.74-1.74,29.11-8.28,49.71-31.05,66.32-55.19,10.94-14.5,27.97-20.89,43.68-28.57-18.62,19.58-34.67,42.7-37.75,69.96.35,4.75-3.06,19.53,1.53,21.39,2.12.77,4.05-.63,4.85-2.57,15.6-31.05,76.93-64.93,64.39-101.73,14.13-6.41,27.81-13.8,40.92-22.15-7.14,9.55-13.15,20.45-15.21,31.31-9.52,14.41-1.56,30.93,4.29,14.95,1.59-4.8,1.43-10.29-.74-14.88,3.88-16.88,16.2-35.82,32.11-45.55-16.09,23.52-.65,52.48-7.15,77.99-1.85,2.44,1.63,5.23,3.07,1.87,25.26-33.67,10.81-79.03,33.82-103.66,8.72-8.84,16.81-18.68,25.07-28.02-14.5,31.6-10.66,66.71-3.21,99.61.32,2.64.17,5.9,3.66,6.14,4.98-.07,5.44-11.88,7.96-15.71,23.84-48.69,25.61-59.55,7.62-110.76,13.14-18.51,24.44-38.35,33.53-59.15-4.6,20.29-10.36,41.44-6.51,62.29-12.19,12.02,8.76,26.75,6.87,6.12-.16-2.54-.53-6.02-3.45-6.93-3.84-23.54,3.23-47.36,9.05-70.04-1.35,18.85,15.5,32.85,20.94,50.72.96,2.57-.02,6.09,1.68,8.14,1.46.74,2.46-.29,2.68-1.57,3.94-21.99-8.45-41.4-14.24-61.81-3.23-23.73,3.58-47.66,7.04-71.05,4.22,19.13,11.07,37.88,25.21,51.99,10.04,10.69,20.23,22.2,31.9,30.83,8.29-.71.51-10.8.06-15.38-8.17-50.4-10.72-61.71-54.54-91.33,2.21-29.84.26-59.98-5.7-89.3,7.71,26.95,21.74,51.25,38.3,73.69-1.9,4.22,9.21,18.13,13.71,18.59,3.95.61,4.56-3.46,3.03-6.24-2.51-5.91-7.41-10.69-13.17-13.44-16.84-22.49-31.06-47.28-38.8-74.49,15.15,25.71,41.66,29.08,62.98,46.67.75,1.76,3.4,1.27,3.41-.65-13.63-25.41-16.38-25.36-40.06-39.76-22.68-14.98-36.62-35.94-46.19-60.88-.15-.38-.3-.76-.46-1.13,36.37,38.6,69.24,22.97,108.69,40.05,10.86-1.7-3.37-12.56-6.04-16.41Zm-228.32-203.3c24.42-9.81,49.92,1.72,74.41,5.27-28.87,18.74-65.59,16.86-97.11,5.85,7.68-3.5,14.88-7.96,22.7-11.12Zm-298.4,672.91c-1.75.17-3.5.27-5.26.26,20.7-22.43,45.46-53.14,80.04-42.75-17.49,30.8-41.78,37.49-74.78,42.49Zm104.2-15.17s-.04.03-.06.04c.03-.02.05-.04.08-.06,0,0-.01,0-.02.01Zm282.59-86.96c-4.23,10.78-10.27,20.75-14.28,31.62-8.25-38.71-6.58-61.43,9.86-97.75,9.23,21.09,13.7,44.22,4.42,66.12Zm101.94-184.24c2.08,10.36,2.82,20.98,5.53,31.21-25.96-22.6-41.13-46.32-45.43-80.93,18.74,12.97,35.79,25.8,39.9,49.72Zm-67-131.99c-8.33,16.1-20.61,29.67-30.35,44.86,6.67-32.06,35.88-55.72,35.72-89.99,3.22,15.03,1.79,31.37-5.36,45.13Zm-21.65-46.96c-9.45,20.91-25.07,38.53-32.85,60.28-15.71-45.48,12.94-82.33,33.76-120.15,6.14,19.33,8.31,41.09-.92,59.86Zm-105.13-136.8c2.27,14.22,1.59,28.7,3.72,42.93-27.46-30.78-36.75-57.41-37.86-98.44,17.14,14.02,30.57,33.28,34.13,55.51Zm21.78-22.39c25.45,29.22,25.99,58.84,27.67,95.27-16.72-31.3-10.54-73.75-35.36-101.06,2.59,1.89,5.16,3.82,7.69,5.79Zm11.17-3.47c33.59,21.82,57.66,2.92,89.68,22.9-36.9,7.03-72.5-7.6-101.82-29.45,4.08,2.1,8.12,4.31,12.14,6.56Zm-169.08-37.12c9.15,12.2,13.36,27.39,20.15,40.98-32.43-8.39-57.73-35.02-68.27-66.34,18.28,2.56,36.64,10.43,48.12,25.36Zm15.8-22.66c24.07,13.67,30.93,38.78,46.54,60.28-23.54-15.7-29.92-49.1-55.22-61.68,2.9.43,5.8.86,8.68,1.4Zm21.1-18.58c17.54-8.79,24.14-18.01,45.68-19.45-17.89,13.72-38.55,22.47-61.09,25.04,5.26-1.45,10.41-3.26,15.4-5.6Zm-84.2-1.25c9.96-24.9,37.36-32.91,57.22-47.83-6.26,25.91-30.28,59.33-60.06,55.86.79-2.6,1.75-5.34,2.84-8.03Zm-159.45,62.01c39.91-14.81,56.6-.86,91.34,15.39-34.49,6.07-63.33,5.46-93.06-14.09.59-.4,1.17-.84,1.73-1.3Zm49.1-25.01c30.5-9.4,57.69.21,82.67,18.08-28.66,1.04-56.2-22.34-84.14-17.51.49-.19.97-.38,1.46-.57Zm16.08-26.8c13.42-13.52,17.7-33.72,32.54-45.91-7.26,30.21-29.18,53.91-56.55,67.79,8.6-6.6,16.8-13.78,24.01-21.88Zm-67.04-2.8c7.6-14.53,17.85-27.62,23.13-43.35,11,33.2,2.58,75.09-29.2,93.77-5.21-16.77-.86-34.76,6.06-50.42Zm-58.44,139.9c12.68-.5,24.61,1.35,37.52,1.55-25.95,13.84-55.37,25.82-85.23,19.74,13.41-11.44,29.85-20.23,47.71-21.3Zm16.58-36.12c14.09-1.94,28.28,1.81,42.39.33-24.6,13.63-57.39,3.6-80.5,20.15,11.03-9.41,24.14-18.07,38.11-20.47Zm-41.36-4.92c4.81-23.34-1.75-39.5,9.47-61.39,7.5,29.8,1.03,55.75-15.23,80.53,2.23-6.28,4.21-12.65,5.77-19.14Zm-43.3,40.78c-8.39-18.01-10.24-39.2-8.52-58.83,13.55,22.16,31.63,47.6,21.92,74.77-6.2-3.88-10.41-9.26-13.4-15.94Zm-14.46,99.04c16.14-30.61,52.77-34.5,81.27-47.24-20.66,26.3-58.78,25.58-81.63,48.52.12-.42.24-.85.37-1.27Zm-24.33-27.53c-9.08-14.28-16.84-29.21-17.06-46.57,24.98,28.92,29.97,45.59,28.64,83.9-1.28-13.14-4.81-25.93-11.58-37.33Zm-44.83,24.22c34.92,22.44,44.03,34.87,49.43,77.39-.05.88-.09,1.76-.12,2.65-32.94-12.07-46.99-47.33-49.3-80.03Zm68.19,175.52c-3.55-30.93,20.89-54.01,39.92-74.82-6.56,28.14-34.66,46.1-39.92,74.82Zm-14.28-5.56c-4.34-6.23-9.52-11.81-15.51-16.48-18.31-13.11-17.09-21.07-26.31-33.57,22.79,12.34,39.64,33.06,47.17,57.93-1.74-2.66-3.52-5.29-5.34-7.88Zm35.88,61.79c-10.07-41.98,6.26-54.7,20.17-90.33,13.37,32.65-6.36,62.05-20.17,90.33Zm-40.52,6.95c-17.81-9.9-31.18-25.43-46.57-38.49,29.4-.79,72.36,11.68,82.14,43.84-11.74,4.45-24.97.74-35.58-5.35Zm88.75-13.94c11.43,32.47-.76,69.2,15.74,100.41-11.99-16.63-22.27-36.02-21.67-57.09.63-14.6,6.43-28.6,5.93-43.32Zm-67.39,89.16c-2.08-.81-4.23-1.65-6.41-2.45,24.02-5.4,48.82.45,69.33,13.96-25.17-11.35-38.25-1.86-62.92-11.51Zm104.18,16.38c-11.53-23.93-8.01-47.91-6.35-73.26,22.16,28.55,27.23,65.07,24.53,100.21-8.12-7.38-14.39-16.66-18.18-26.95Zm-1.56,62.18c-21.04,15.49-49.49,17.02-74.15,10.32,30.58-11.43,57.33-50.42,93.14-35.3-2.73,10.62-10.38,18.64-18.99,24.98Zm71.25-34.57c-6.26-17.95-6.55-37.46-13.94-55.11,25.76,28.19,21.56,73.74,52.4,97.95-17.62-8.58-31.6-24.52-38.46-42.84Zm-19.83,63.86c-12.33,7.21-22.28,18.33-36.99,20.98,6.92-5.09,11.78-12.32,17.9-18.25,15.97-16.78,41-20.78,63.14-16.9-15.12.89-28.23,5.01-44.06,14.17Zm275.41-33.04c-47.83,8.53-66.42-20.45-98.01-48.56,51.46-.74,63.83,19.93,101.81,47.91-1.26.23-2.53.45-3.8.65Zm-66.72,47.19c-14.51,21.25-31.93,40.94-56.79,49.69,11.41-10.66,18.61-24.36,26.54-37.55,12.67-20.03,34.12-30.91,56.93-34.36-10.41,5.29-19.44,13.06-26.68,22.21Zm72.69-18.45c-13.18,25.93-39.54,42.2-55.74,66.17,2.04-33.01,27.61-72.97,57.82-86.31,3.07,6.54.76,13.85-2.09,20.14Zm3.24-78.88c28.67-4.25,55.79.51,85.17-5.5-29.18,18.81-64.05,15.5-96.36,8.37,3.64-1.29,7.38-2.26,11.2-2.87Zm77.29,44.3c-2.3,15.53-5.4,31.28-12.84,45.24-.09-35.92-10.39-63.13,21.79-85.83-6.61,12.28-7.37,26.89-8.95,40.6Zm63.8-115.16c-2.86,4.48-5.87,8.92-8.99,13.31-46.17-12.75-93.09-7.1-129.87,25.62-3.24,2.08-7.61,7.79-1.54,9.53,44.21-1.82,75.88,12.24,116.98-16.28-7.84,9.47-16.2,18.53-25.08,27.03-33.12,11.91-70.23.71-103.86,10.82-3.43,1.05-6.6,2.81-9.97,3.95-2.47,1.24-.46,4.18,1.87,3.28,35.48,1.97,58.06,13.87,95.26-3.08-13.98,13.07-33.72,16.61-52.21,18.58-7.38.6-14.79.02-21.99-1.84-2.98-2.38-6.54-4.7-10.45-4.84-15.94,2.59,6.07,15.76,12.26,8.84,14.19,3.39,35.67.61,51.95-4.98-15.92,11.24-33.07,21.25-50.96,29.47-.2-.14-.41-.26-.66-.37-.62-2.82-4.16-3.28-6.12-5-20.31-14.17-37.74-33.62-61.22-42.63-11.36-4.46-23.57-4.55-35.79-5.38-6.78.21-14.99-2.69-21.84-.56-2.72,2.08-.93,5.67,1.73,6.81,30.85,21.67,51.95,60.22,94.89,56.74-52.74,12.12-89.86-39.3-138.44-47.51-2.44-.02-7.47-2.65-8.18.93,37.06,23.24,73.01,62.89,121.26,56.43-27.74,9.74-57.32,2.22-81.95-12.33-9.5-4.09-15.56-11.07-21.87-18.82-2.4-2.14-6.71-5.17-9.46-2-3.14,6.58,10.17,16.34,16.26,15.3,17.58,12.47,38.3,22.6,59.92,25.19-24.23,3.34-48.85,3.92-73.21,1.67-5.81-4.21-8.43-11.15-11.2-17.51-11.77-34.54-31.47-73.5-70.65-81.52-6.15,2.06-.9,7.14.78,10.6,16.62,32.02,25.22,72.01,58.89,85.65-56.85-4.82-62.01-43.14-78.48-88.25-.31-3.73-25.43-42.35-24.22-27.99,16.15,37.54,9,77.94,49.2,102.8-17.03-3.64-27.33-18.45-37.19-31.66-4.22-6.55-8.93-12.99-12.02-20.15-1.14-6.1-.93-12.53-4.36-17.99-5.03-6.76-9.04.84-6.75,6.32,1.69,5.9,5.37,11.56,9.28,16.11,7.65,14.07,17.16,27.16,28.4,38.61-17.45-7.48-34.21-16.58-50.11-27.05-.03-43.96-.04-75.92-28.05-113.02-2.25-3.72-7.41-14.14-11.28-6.34.19,36.85-8.11,64.12,11.74,98.94-41.63-31.98-13.87-91.8-37.29-133.1-4.04-2.58-3.21,3.31-2.3,5.59,4.23,39.82-18.06,54.65,8.8,98.49-18.78-20.63-26.54-49.88-24.39-77.37,3.04-3.41,4.32-8.57,5.54-12.97,1.39-10.01-8.32-7.66-9.31.48-1.48,22.62.32,46.79,9.6,67.99-11.3-14.5-21.2-29.83-30.02-46.35.54-8.26,4.03-16.26,8.04-23.58,18.02-26.7,27.77-64.56,9.84-93.75-4.12-2.71-6.14,1.07-6.52,4.76-8.95,28.86-29.87,52.68-24.9,83.75-30.6-58.48,25.79-74.31,33.61-125.53,2.89-4.14-2.75-6.43-3.46-.89-7.61,14.54-21.92,23.65-30.96,37.22-7.8,11.72-14.21,25.31-15.06,39.54-3.23-25.61.88-55.08,20.31-73.72,26.34-10.75,5.61-23.18-3.57-1.4-14.01,14.11-19.92,33.49-21.02,53.11-3.34-20.54-4.57-41.42-3.88-62.22,10.16-9.47,22.4-14.05,35.37-19.25,21.01-9.43,34.82-22.39,45.04-43.09,3.97-8.44,10.65-16.91,10.26-26.59-2.81-8.69-11.19.56-15.8,2.7-29.9,13.94-59.3,23.93-72.57,57.78,2.71-14.85,2.94-31.37,10.51-44.78,11.58-15.86,32.23-19.65,49.11-27.47,18.18-7.05,30.76-18.85,43.7-33.15.79-.47,1-1.6.52-2.37-.28-4.3-4.13-.79-5.66.79-9.22,7.4-20.56,11.11-31.97,13.99-18.85,5.23-37.38,14.02-50.69,28.7,11.73-20.3,34.01-35,55.53-43.37,4.45.32,15.66-3.49,11.62-9.33-3.58-2.05-13.23,3.02-14.66,6.74-18.69,7.74-36.71,19.04-49.29,35.1,6.21-16.38,13.9-32.38,22.74-47.52,29.7,7.19,59.8-3.01,86.17-16.47,4.04-2.81,20.61-8.67,19.47-14.17-.82-2.93-3.64-2.71-6.1-2.3-28.74.14-59.78-7.25-85.26,10.63,25.6-39.78,65.64-20.07,100.72-39.22,3.09-2,7.71-2.98,9.74-6.07.74-1.5-1.13-3.15-2.53-2.22-27.01,9.67-52.02-7.21-79.15,12.74,16.54-15.88,39.92-23.84,62.59-25.22,1.52,2.9,14.74,2.23,17.75,1.33,6.5-1.89,3.46-7.32-2.02-7.61-5.31-.95-10.97.15-15.66,2.77-17.14.71-33.98,5.88-48.98,14.24,14.17-13.51,29.64-25.64,46.05-36.32,30,20.88,63.78,24.53,99.08,17.79,4.16-1.1,15.59-1.44,16.76-6.11.71-2.83-2.06-4.49-4.46-4.87-29.06-9.24-49.64-30.41-80.94-24.29,48.34-28.16,83.51,20.05,121.16,6.98.11-.87-.34-1.81-1.51-1.99-5.47-.78-10.2-3.96-14.79-6.91-16.73-12.09-36.91-19.35-57.71-17.33,22.63-3.94,48.11-.49,68.59,10.12,1.11,3.92,10.31,9.43,14.35,10.02,4.88.84,5.96-3.52,2.4-6.34-4.44-4.21-10.35-7.4-16.55-7.58-15.47-8.49-33.69-10.21-51.01-11.37,21.2-5.44,42.95-8.73,64.81-9.79,9.89,35.98,39.56,66.87,76.32,75.47,4.72,1.55,10.59-.47,7.96-6.31-12.22-27.73-23.31-59.64-55.21-69.24,59.95-3.29,53.95,55.03,98.35,74.14,1.44,1.19,3.6-.73,2.56-2.28.38-1.71-1.54-2.25-2.68-3-19.56-17.6-24.4-47.06-46.96-62.57,24.01,2.89,41.44,29.63,53.41,47.37,1.15,4.57,3.34,9.27,6.45,12.86,11.76,8.26,3.57-13.72-3.99-15.54-8.04-12.99-20.33-28.76-34.09-39.41,16.65,4.58,33.26,10.77,49.11,18.08-2.68,44.09,15.9,90.23,49.86,118.33,3.19.08,4.35-3.28,3.27-5.86-5.99-36.01-.53-71.2-28.32-99.58,60.53,31.07,37.28,85.77,67.4,130.22.32,1.32,2.06,1.66,2.95.77,3.74-1.25-1.68-6.87-1.31-9.79-2.08-30.52-1.31-60.47-20.22-86.83,19.95,15.64,28.94,47.4,33.56,71.62,3.12,8.6-3.69,31.12,4.76,34.48,6.64.21,4.29-19.79-.35-21.54-.13-23.48-8.67-46.18-18.99-66.97,19.3,19.28,35.95,40.93,49.76,64.51-21.48,45.22-53.96,77.91-35.29,132.98,1.26,3.05,1.72,8.74,4.91,10.23,2.68,1.04,4.92-1.43,5.09-3.98,9.27-37.53,47.54-65.81,41.7-107.31,22.71,43.21,4.23,67.83-17.25,105.21-3.79,7.46-11.88,28.51-7.64,35.37,0,0-.11-.05-.11-.05.39.15.75.16,1.06.07,2.73.77,2.36-2.65,2.72-4.35,10.81-25.33,36.91-44.08,39.83-73.16,1.47,23.8-6.86,47.34-18.06,68.02-4.58,1.36-19.8,15-11.67,18.96,7.61.44,14.31-10.07,14.41-16.76,10.49-18.95,18.26-40.25,18.99-62.07,4.62,24.27,6.4,49.08,5.34,73.77-30.12,10.85-60.03,29.25-75.65,58.48-3.73,6.25-7.17,12.66-10.74,19-1.2,3.29-6.63,7.64-3.21,11.1,3.24,3.27,13.03-6.05,17.74-7.35,31.88-11.4,56.27-27.39,69.23-60.16-12.94,68.93-54.29,49.36-90.9,109.54.02-.01.04-.02.06-.04,0,0,0,0,0,0-.67.44-1.05,1.28-.71,2.12,2.67,3.66,6.52-3.93,9.04-5.18,25.82-19.12,60.18-25.02,74.4-57.8-3.72,17.22-10.4,29.41-24.49,42.45-11.61,10.85-23.13,23.11-38.46,28.48-3.99-5.12-19.16-1.09-12.74,5.91,2.99,2.77,13.1,1.99,13.92-2.62,20.21-7.66,37.61-26.5,51.25-41.87-7.65,19.98-17.44,39.22-28.89,57.31Zm-17.34,19.09c-37.03,31.16-69.24,24.25-113.01,21.93,31.74-26.06,73.85-33.62,113.01-21.93Zm-162.2,115.06c-48.73,11.96-85.14-24.14-122.48-48.67,43.44,8.84,75.94,50.52,122.48,48.67Zm-135.57,7.34c-42.03-18.88-40.2-47.14-59.71-82.8,35.19,13.61,46.33,51.12,59.71,82.8ZM67.28,371.2c12.6-46.02,42.27-51.62,79.16-71.08-22.12,51.63-35.51,47.67-79.16,71.08Zm635.98,46.33c-15.83,39.81-34.36,51.91-72.92,67,14.45-31.75,40.35-54.77,72.92-67Zm-3,40.31c-7.96,43.11-41.65,51.97-74.35,71.26,5.34-7.71,11.69-14.64,18.77-20.88,19.08-16.28,45.86-25.18,55.58-50.38Zm13.02,88.78c1.68,4.59,2.39,9.37,2.64,14.19-15.22-25.58-24.1-35.61-15.12-66.99-2.99,18.79,6.32,35.68,12.47,52.8Zm31.85-204.9c16.18,8.95,18.27,12.93,24.47,23.39-30.95-16.75-52.53-25.27-65.29-60.75,10.37,15.01,23.03,27.25,40.81,37.36Zm-1.68-49.15c-11.38-2.83-22.67-7.07-32.41-13.68-11.33-7.74-19.82-19.05-28.85-28.79-1.8-3.7-3.68-7.36-5.61-10.98,47.18-4.28,82.87,27.18,112.18,60.14-14.75-4.2-30.39-3.2-45.3-6.69Z"/>
  </g>
</svg>