<?xml version="1.0" encoding="UTF-8"?>
<svg id="_Слой_2" data-name="Слой 2" xmlns="http://www.w3.org/2000/svg" viewBox="0 0 767.83 721.69">
  <g id="_Слой_1-2" data-name="Слой 1">
    <path d="m759.01,383.93c-15.73,24.88-42.37,39.02-63.96,58.03-32.4,28.67-46.59,72.11-77.42,102.21,21.46-34.04,36.67-71.96,44.73-111.37,3.69-17.92,5.83-36.14,6.54-54.42,5.82-25.44,12.39-49.67,23.59-73.32,20.34-33.93,48.08-67.53,48.07-109.16-.83-2.08-3.7-2.89-5.46-1.47-28.94,49-61.88,68.46-68.5,130.23-4.11-32.59-12.88-64.62-26.3-94.61-11.67-43.8-.77-92.14-19.04-134.54-5.15-12.42-12.42-23.87-16.84-36.6-.98-6.03-8.94-3.97-7.02,1.87-4.7,49.94-3.77,81.97,20.59,127.29-8.38-13.36-17.72-26.08-27.87-38.15-20.62-38.28-47.73-73.14-81.6-100.64-21.69-15.96-44.39-30.24-63.88-49.04-15.22-3.28,9.01,26.63,10.01,32.01,4.72,9.7,10.13,19.11,16.16,28.1-19.95-8.97-40.82-15.79-62.14-20.64-28.41-18.14-60.46-26.91-94-27.93-18.61-2.6-37.26-4.81-55.99-6.22-4.46-2.25-10.49,1.34-5.9,5.75,17.55,4.13,33.63,12.61,49.15,21.71C126.6,47.19-13.37,212.14,1.02,387.43c9.49,187.08,185.27,334.19,371.07,310.7,10.76,2.59,21.45,4.72,32.45,8.3,76.13,29.79,141.93,15.8,200.57-40.61,31.48,10.13,74.22-2.57,106.8-15.95,2.77-1.73,1.43-6.35-1.77-6.42-21.88,2.27-43.06-5.22-63.5-12.09-31.08-9.35-64.5-17.45-96.74-9.56,16.2-13.65,31.07-28.8,44.45-45.24,2.65.75,4.41-2.14,6.27-3.67,7.34-6.61,16.14-11.25,24.74-15.99,68.02-32.1,117.78-91.68,140.24-163.2.85-3.87,3.06-8.07,1.94-12.04-2.65-4.6-6.83-.92-8.51,2.27Zm-195.2,114.39c2.12,4.25,4.4,8.42,6.57,12.64-18.32,55.86-57.23,101.53-101.17,139.38,38-46.52,51.52-109.2,94.6-152.03Zm6.59-2.39c-21.76-41.13-15.05-86.95,4.96-127.19-4.99,34.11-17.88,71.36.86,103.54,0,0,0,0,0,0,17.38,27.11,25.53,61.73,13.44,92.71,1.76-24.62-7.15-48.07-19.26-69.07Zm48.51-183.53c6.8,15.06,13.32,30.41,16.6,46.68,4.14,27.33,4.9,55,12.66,81.73-31.53-49.7-30.38-72.53-29.26-128.41Zm59.62-9.44c6-34.79,31.13-60.07,52.19-86.58-6.1,32-27.87,56.79-43.76,84.15-6.3,12.13-10.47,25.21-14.79,38.14.53-12.12,3.53-23.96,6.36-35.71Zm-74.74-227.56c26.69,48.11,19.38,67.25,24.12,118.67-18.92-39.28-31.55-74.74-24.12-118.67Zm-95.16-16.97c25.79,22.42,48.54,48.68,65.82,78.23-5.64-4.49-11.77-8.33-18.08-11.8,0,0,0,0,0,0-47.77-22.04-78.82-59.29-100.87-105.76,16.66,14.53,36.2,25.17,53.13,39.33Zm-56.04,1.93c13.42,5.4,27.52,9.56,35.5,22.44-18.36-9.63-37.15-18.63-54.99-29.24,6.56,2.1,13.05,4.37,19.5,6.8ZM283.14,14.81c24.4,3.89,49.69,4.48,73.93,9.47,44.11,13.45,80.77,43.49,122.8,61.99-36.69-13.06-76.63-13.34-112.96-27.22-28.93-12.31-55.96-29.63-83.77-44.23Zm-23.13,669.8C102.61,649.56-8.83,493.86,8.9,333.53,22.61,177.21,155.95,47.82,312.75,39.16c19.72,11.19,39.57,22.21,60.93,29.85,14.16,4.9,29.02,7.07,43.73,9.64,32.6,6.36,66.05,12.28,94.74,30.13,1.4.89,2.79.69,3.81-.05,19.39,15.64,44.9,22.44,62.16,40.86-26.62-17.47-62.36-19.22-88.42.17-14.79,10.13-27.82,23.39-45.1,29.33-8.15,3.05-16.85,3.62-25.32,5.1-11.32,7.6,22.6,14.09,27.22,14.77,29.59,3.36,51.72-18.99,75.55-32.52,29.53-15.72,57.84-4.54,82.66,14.16,16.58,24.11,29.85,50.49,39.43,78.14-23.2-50.3-43.54-64.49-90.12-87.54-3.02-2.35-8.56-4.25-9.19,1.2.87,4.4,4.28,7.97,6.18,12,43.16,90.15,78.08,51.88,105.85,122.84,7.77,42.3,6.94,86.86-2.38,128.99-9.87-31.99-6.48-57.89-14.57-88.83-5.51-19.53-14.69-37.71-22.96-56.16-1.45-2.44-1.99-6.68-5.48-6.79-4.59.24-3.46,4.97-2.55,7.98,1.44,7.66,2.63,15.39,3.22,23.16-1.37,42.57-2.56,72.92,19.98,111.51,6.69,11.44,14.57,22.58,15.16,36.11-10.66,34.51-27.26,67.13-48.56,96.28,7.43-27.16,3.45-57.01-11.28-80.86,2.81-12.53,8.2-24.68,9.87-37.36-7.18-12.28-12.82,19.81-16.72,23.7-17.88-34.7,2.34-75.01,3.23-111.58-.22-3.96,1.33-9.25-1.89-12.26-4.1-2.41-6.07,2.04-6.55,5.37-18.36,50.45-39.04,91.14-14.73,144.94-51.23,49.35-62.4,127.1-115.94,174.59-2.82,4.06-11.98,6.79-10.98,11.86-23.26,7.41-48.17,12.3-72.76,14.24,41.49-12.61,77.86-44.4,92.95-85.57,1.54-2.81,2.2-7.66-2.03-8.19-5.21,1.22-9.37,5.97-14.48,7.96-24.33,11.09-49.46,22.55-65.51,45.01-31.5,49.42-60.11,44.45-111.89,33.24ZM574,155.29c-56.32-21.97-86.96,52.24-139.62,33.69,55.86-12.31,71.57-73.3,139.62-33.69Zm65.8,110.2c-7.98-7.96-17.99-13.28-27.69-18.81-27.06-13.54-40.53-40.01-54.72-65.23,44.68,19.01,61.88,40.96,82.42,84.04Zm-291.24,422.56c6.15-3.89,11.18-9.31,15.66-15,23-35.16,43.82-45.88,80.59-62.81-16.72,39.36-54.52,68.9-96.24,77.81Zm44.26,7.08c22.45-3.94,44.49-10.22,65.66-18.65,26.23-11.95,53.64-23.97,82.96-23.49-58.31,26.27-75.98,61.77-148.62,42.14Zm92.65,19.55c-18.39.45-36.43-2.1-54.16-7.17,74.6-1.13,87.35-65.95,181.6-56.61-3.19,2.47-6.27,4.91-9.28,7.32,0,0,0,0,0,0-37.03,29.67-63.43,55.15-118.16,56.46Zm146.9-80.28c19.33,5.36,38.01,13.5,58.09,15.84-24.79,8.43-51.88,16.71-77.93,9.8,3.49-2.66,6.99-5.29,10.43-8.01,6.3-5.38-.4-9.31-6.34-8.12-19.54-.47-39.44-1.28-58.18,3.79-13.49-2.21-27.52-2.54-45.83,1.3,35.04-30.15,77.64-26.48,119.76-14.61Zm-138.83,17.7c1.85-1.13,3.74-2.19,5.66-3.2-1.88,1.09-3.76,2.15-5.66,3.2Zm77.73-59.92c-12.08,12.51-25,24.16-38.91,34.64-24.26,9.24-49.66,19.74-67.38,39.37-4.51,1.95-9.07,3.79-13.66,5.55,54.2-37.07,99.99-89.94,123.31-151.78,8.5,19.82,10.78,42.59,4.76,63.38-2.65,2.99-5.35,5.94-8.11,8.84Zm48.2-40.07c33.95-30.93,48.01-78.14,83.39-107.66,17.71-15.07,38.35-27.12,53.4-45.08-31.35,78.4-62.06,113.1-136.79,152.74Z"/>
  </g>
</svg>