<?xml version="1.0" encoding="UTF-8"?>
<svg id="_Слой_2" data-name="Слой 2" xmlns="http://www.w3.org/2000/svg" viewBox="0 0 733.59 680.67">
  <g id="_Слой_1-2" data-name="Слой 1">
    <path d="m695.36,421.44c10.46-10,22.9-18.59,30.71-31.09,3.89-7.14,8.33-15.42,7.4-23.76-1.95-5.1-6.99-2.56-9.23.84-7.08,7.89-15.39,14.96-22,23.28C741.35,167.25,533.83-24.97,314.09,31.19c4.95-5.48,21.85-23.1,16.01-30.32-3.97-2.82-8.1,1.95-11.62,3.57-15,8.23-30.15,18.17-34.59,35.93-25,9.04-48.88,21.2-70.83,36.21,7.65-8.88,28-47,13.71-53.21-3.56.23-4.8,4.23-6.54,6.76-13.29,21.97-31.62,41.84-35.4,68.14-22.01,18.96-41.38,40.98-57.35,65.25,1.74-14.66.53-29.62-3.6-43.85-1.59-5.32-9.67-32.58-17.23-20.73-4.1,37.25-17.98,63.23.63,99.99-14.16,28.96-23.81,60.08-28.54,91.96-3.99-17.21-11.45-33.87-22.98-47.36-3.55-5.34-33.71-32.73-30.36-13.4,10.4,17.76,11.49,38.55,18.95,57.56,4.65,17.17,17.69,29.23,26.05,44.28,5.89,10.86,5.2,23.72,6.35,35.71,1.75,17.53,4.82,34.92,9.44,51.93-12.36-26.39-40.92-35.6-60.58-54.91-5.95-6.14-10.19-13.42-15.49-20.12-13.85-9.76-10.32,27-7.7,33.25,11.57,48.72,69.65,50.19,98.06,83.09,60.19,146.88,232.32,226.76,383.39,178.24,42.13-3.15,61.31,59.97,131.82,36.13,4.98-1.53,27.97-11.27,14.79-15.85-5.83-.49-11.6-1.44-17.37-2.36-33.12-4.48-58.57-32.32-93.04-31.54,10.42-4.67,20.62-9.89,30.49-15.66,1.84,2.95,8.87.5,12.89,1.08,30.5,3.69,63.2,15.56,92.46-.5,4.41-2.65,16.8-8.74,14.54-14.95-2.72-5.14-19.47,1.74-25.36,1.15-24.9,4.06-49.29-6.07-73.98.11,18.63-12.98,35.9-27.92,51.36-44.56,1.35-.1,2.62-.96,3.06-2.27,21.07-13.55,48.86,6.79,69.16-9.6,16.56-12.73,23.66-28.54-5.18-18.53-14.57,1.4-29.77-4.81-43.72,2.1,8.06-11,15.38-22.51,21.95-34.46,18.59-4.86,35.88-13.6,48.5-28.09,3.07-4.01,10.6-13.66,4.22-17.5-3.79-1.35-11.73,4.61-16,5.93-8.41,3.66-16.96,7.54-23.89,13.58,5.93-13.59,10.84-27.61,14.76-41.9ZM75.6,323.53c-.21.96-.02,1.84-.16,2.91-4.08-8.33-11.07-14.67-15.97-22.46-4.87-8.37-8.22-17.53-11.37-26.66-4.68-14.41-5.84-29.86-13.14-43.37,21.21,14.79,33.65,39.29,38.19,64.31,1.6,4.85-.16,11.34,3.03,15.33-.25,3.31-.44,6.63-.58,9.94Zm649.04,53.7c-4.3,12.66-14.38,21.89-24.38,30.26,5.05-12.27,15.28-21.01,24.38-30.26ZM321.45,10.79c-7.11,10.92-16.11,21.75-28.85,26.08,5.19-12.7,17.57-19.53,28.85-26.08Zm-27.17,49.64c-12.13,6.36-25.85,4.31-38.72,1.82,12.36-5.71,25.73-3.72,38.72-1.82Zm-70.47-22.78c-3.63,19.22-15.63,35.82-29.12,49.62,0,0-.02.02-.02.02,5.79-18.52,19.32-33.18,29.14-49.63Zm-111.38,70.91c10.87,25.53,13.42,57.61-.97,82.1-14.19-32.58-2.81-49.39.97-82.1Zm64.59,46.35c-10.82,28.99-41.95,40.55-65.46,57.13,13.98-30.53,41.98-36.74,65.46-57.13Zm-35.19,80.15c-5.27,32.04-33.42,53.12-56.22,73.52,4.46-44.44,29.76-46.23,56.22-73.52Zm-52.39,206.09C52.5,419.29,1.9,406.9,7.47,352.66c30.19,46.13,55.71,28.36,82.05,88.56-.03-.02-.07-.05-.1-.07Zm17.41-91.59c6.07-10.51,13.43-20.22,19.35-30.82.39,35.03-23.46,63.56-31.84,96.53-3.94-22.5,1.45-45.93,12.49-65.72Zm463.95,299.53c15.36,9.08,32.68,14.18,50.34,16.29-54.41,24.59-76.74-10.61-119.5-31.71,24.08-4.37,48.71,2.61,69.16,15.41Zm-65.28-30.26c10.85-27.86,16.92-57.88,31.1-84.43,5.56-9.59,12.88-17.96,19.29-26.96,7.74,43.09-11.72,89.68-50.39,111.39Zm101.99-15.72c16.19,2.29,32.7,1.66,48.81-.93-26.79,16.73-58.27,7.13-86.94,2.18,12.42-3.63,25.46-3.44,38.13-1.25Zm-21.36-29.05c-3.28-18.67,1.98-36.03,10.77-52.46,2.25,17.85,1.89,38.34-10.77,52.46Zm112.96-47.32c-16.46,22.92-41.47,7.91-63.82,12.07,24.35-21.4,38.64-4.11,63.82-12.07Zm-56.97-12.12c-9.34-16.84-.6-30.95,1.96-47.99,6.07,15.4,4.95,33.05-1.96,47.99Zm71.37-61.3c-8.89,13.04-23.39,20.84-37.81,26.34,8.41-13.9,23.62-20.07,37.81-26.34Zm-39.4-43.21c4.96,11.39,5.76,24.42,4,36.63-2.92-11.97-2.21-24.47-4-36.63Zm10.58-6.5c-.2,4.38-.54,8.66-1.01,12.91-1.65-6.55-6.27-21.24-15.19-16.19-4.02,4.35-.27,13.17-.49,18.74,1.58,10.82-.1,29.33,7.54,38.26-6.02,14.12-13.1,28.15-21.25,41.35,3.98-5.53-5.8-62.51-15.45-45.81-1.53,24.42-16.01,46.35-.68,69.59-11.34,15.13-24.04,29.23-37.97,42.02,5.83-14.49,5.57-30.75,3.31-45.98-1.8-4.11.02-13.39-5.77-13.76-2.34.14-3.24,2.32-3.39,4.36-8.78,22.55-20.02,38.37-15.15,63.54.4,4.72-2.59,8.5-4.1,12.63-17.4,12.86-36.18,24.06-55.93,33,36.54-26.18,51.23-73.14,43.24-116.42-.08-3.32-.36-8.91-5.1-7.69-3.64,2.2-4.92,7.2-7.88,10.28-5.78,8.12-12.43,15.65-17.55,24.22-11.46,19.72-17.16,42.14-24.84,63.48-3.85,10.92-4.88,24.34-14.73,31.83-2.9,2.12-6.02,4.04-9.51,5.03-2.6-.01-5.7,1.63-4.81,4.62-92.81,27.87-197.72,8.34-274.46-50.95-48.98-37.34-86.37-89.75-105.64-148.42,2.99-43.85,43.81-81.18,33.43-126.27-4.59-5.53-8.39,1.9-10.29,5.78-11.08,18.8-25.24,36.29-30.84,57.82,3.51-36.63,23.3-73.09,58.14-88.23,6.02,20.89,37.59,18.14,40.01-3.42,2.74.94,5.37,2.17,7.85,3.73-8.28,10.98,1.54,27.9,15.18,26.22-.02,7.2-4.61,15.66-12,18.56-3.43,2.26-.52,7.71,3.29,6.16,10.21-4.38,16.38-16.21,15.84-27.09,18.64-11.22,1.67-39.66-17.08-28.7-4.11-2.87-8.71-5.07-13.52-6.45-5.35-22.4-39.3-19.33-40.41,3.69-36.85,15.35-59.37,52.06-63.73,91.12-.51-5.09-.87-10.2-1.08-15.31.36-9.21-.99-19.36-.02-28.97,1.82-.34,3.15-2.25,2.75-4.08,24.79-24.4,58.91-46.81,63.51-84.18.58-4.09.26-12-5.79-10.26-3.79,2.08-6.11,6.16-9.41,8.92-14.11,14.71-34.83,23.03-44.96,41.37,3.34-14.62,6.72-29.73,12.73-43.41,1.38.1,2.82-.6,3.41-1.92,17.98-27.17,70.75-33.26,80.64-78.76,1.63-5.21-1.7-10.65-6.9-6.32-4.48,4.14-9.27,7.94-14.11,11.64-15.25,10.92-29.6,17.66-41.56,28.73,8.3-15.58,18.86-30.05,29.99-43.76,30.12-13.79,67.38-12.42,92.45-36.6,3.24-3.43,12.75-10.46,10.29-15.61-1.55-2.83-4.99-2.07-7.54-1.27-32.01,7.33-45.42,9.66-73.16,29.47,20.42-19.95,43.56-37.15,68.74-50.77,1.03,2.67,4.67,1.99,7.01,2.51,11.21,1.58,22.54,4.66,33.86,2.42,5.12-1.19,27.47-7.49,21.95-15.09-1.14-1.28-2.76-1.56-4.38-1.72-9.1-.59-18.31-2.67-27.45-2.79,232.68-93.7,473.93,113.2,416.67,357.46,2.28-37.41-1.29-75.6-13.07-111.19,19.82-14.97,5.07-47.89-19.31-42.94-4.14-7.18-8.74-14.19-14.03-20.48,12.73-20.71-17.28-41.78-32.36-22.68-12.99-4.78-27.57-5.47-40.36.36-15.1,5.05-24.85,24.2-10.04,35.19,4.36,4.09,22.97,2.62,17.11-5.75-4.08-3.06-6.73,4.4-14.08-.64-10.5-11.58,5.55-22.44,16.37-24.61,9.1-2.65,18.73-1.26,27.61,1.72-6.48,17.77,16.44,33.86,30.96,21.74,4.43,5.23,8.51,11.12,12.24,17.4-26.86,13.94-8.79,54.7,19.57,44.25,11.32,34.27,13.94,67.09,12.68,102.4ZM155.04,273.27c3.06-11.15,19.64-12.75,24.79-2.41-.02,0-.04,0-.06,0,1.16,2.31,1.55,4.72,1.59,7.31.03,0,.07,0,.1.01-.47,15.01-23.34,17.15-26.61,2.5.08-.03.16-.06.24-.08-.23-2.36-.69-5.15.19-7.39-.07.02-.15.04-.23.06Zm55.52,29.62c-10.42,1.29-14.44-14.99-4.92-18.77,9.37-3.91,18.62,7.94,11.43,15.61-.03-.11-.08-.21-.11-.32-1.19,1.63-3.15,2.7-5.22,3.09,0,0,0,0,0,0-.41.07-.82.14-1.25.17.02.07.05.15.07.22Zm-37.84-176.32c11.53-7,22.26-15.43,34.67-20.86,11.83-5.11,24.66-6.99,37.06-10.2-18.64,20.04-46.48,24.42-71.74,31.06Zm497.01,168c-20.2,8.02-33.42-22.1-13.84-31.52.02.04.05.09.07.14,1.95-1.3,4.32-1.99,6.75-1.8,0,0,0-.01,0-.02,14.98-1.26,23.96,18.73,13.09,29.1-.01-.03-.03-.07-.04-.1-1.3,2.19-3.64,3.07-6.14,3.88.04.11.08.21.12.32Zm-34.31-60.24c-12.59,9.57-28.06-10.23-15.77-20-.01,0-.02-.01-.04-.02,13.2-11.71,30.36,10.23,15.75,19.97.02.02.04.04.05.05Z"/>
  </g>
</svg>